<?xml version="1.0" encoding="UTF-8" standalone="no"?>
<!DOCTYPE svg PUBLIC "-//W3C//DTD SVG 1.1//EN"
 "http://www.w3.org/Graphics/SVG/1.1/DTD/svg11.dtd">
<!-- Generated by graphviz version 2.43.0 (0)
 -->
<!-- Pages: 1 -->
<svg width="710pt" height="453pt"
 viewBox="0.00 0.00 710.41 453.09" xmlns="http://www.w3.org/2000/svg" xmlns:xlink="http://www.w3.org/1999/xlink">
<g id="graph0" class="graph" transform="scale(1 1) rotate(0) translate(4 449.09)">
<polygon fill="white" stroke="transparent" points="-4,4 -4,-449.09 706.41,-449.09 706.41,4 -4,4"/>
<!-- fin&#45;&#45;emploi -->
<g id="edge1" class="edge">
<title>fin&#45;&#45;emploi</title>
<path fill="none" stroke="darkgrey" stroke-width="1.03" d="M470.86,-134.37C448.88,-148.03 403.05,-176.51 379.01,-191.45"/>
</g>
<!-- fin&#45;&#45;pollution -->
<g id="edge2" class="edge">
<title>fin&#45;&#45;pollution</title>
<path fill="none" stroke="darkgrey" stroke-width="1.62" d="M491.12,-139.09C494.66,-144.66 498.95,-151.38 502.98,-157.71"/>
</g>
<!-- fin&#45;&#45;épuisement de la ressource -->
<g id="edge3" class="edge">
<title>fin&#45;&#45;épuisement de la ressource</title>
<path fill="none" stroke="darkgrey" stroke-width="1.58" d="M479.71,-112.42C477.81,-104.68 475.5,-95.27 473.75,-88.15"/>
</g>
<!-- fin&#45;&#45;impact environnemental -->
<g id="edge4" class="edge">
<title>fin&#45;&#45;impact environnemental</title>
<path fill="none" stroke="darkgrey" stroke-width="2.03" d="M468.57,-129.53C454.99,-132.17 434.24,-136.2 416.35,-139.67"/>
</g>
<!-- emploi&#45;&#45;pollution -->
<g id="edge5" class="edge">
<title>emploi&#45;&#45;pollution</title>
<path fill="none" stroke="darkgrey" stroke-width="4.59" d="M381.38,-198.5C408.67,-194.58 460.81,-187.07 491.75,-182.61"/>
</g>
<!-- emploi&#45;&#45;impact environnemental -->
<g id="edge6" class="edge">
<title>emploi&#45;&#45;impact environnemental</title>
<path fill="none" stroke="darkgrey" stroke-width="4.24" d="M369.06,-183.82C369.34,-182.94 369.62,-182.05 369.91,-181.15"/>
</g>
<!-- emploi&#45;&#45;conflit -->
<g id="edge7" class="edge">
<title>emploi&#45;&#45;conflit</title>
<path fill="none" stroke="darkgrey" stroke-width="1.06" d="M369.53,-183.96C378.05,-159.62 393.41,-115.76 400.45,-95.65"/>
</g>
<!-- emploi&#45;&#45;économie du pays -->
<g id="edge8" class="edge">
<title>emploi&#45;&#45;économie du pays</title>
<path fill="none" stroke="darkgrey" stroke-width="3.01" d="M377.58,-189.56C391.53,-178.12 412.48,-160.95 424.22,-151.33"/>
</g>
<!-- emploi&#45;&#45;amélioration environnementale -->
<g id="edge9" class="edge">
<title>emploi&#45;&#45;amélioration environnementale</title>
<path fill="none" stroke="darkgrey" stroke-width="2.96" d="M375.33,-215.08C389.52,-231.93 413.18,-260.02 427.33,-276.82"/>
</g>
<!-- emploi&#45;&#45;famille -->
<g id="edge10" class="edge">
<title>emploi&#45;&#45;famille</title>
<path fill="none" stroke="darkgrey" d="M345.41,-200.75C311.84,-200.14 242.6,-198.9 234.07,-198.74"/>
</g>
<!-- emploi&#45;&#45;formation -->
<g id="edge11" class="edge">
<title>emploi&#45;&#45;formation</title>
<path fill="none" stroke="darkgrey" stroke-width="1.27" d="M349.75,-213.49C320.43,-239.9 254.01,-299.72 247.85,-305.27"/>
</g>
<!-- emploi&#45;&#45;automatisation -->
<g id="edge12" class="edge">
<title>emploi&#45;&#45;automatisation</title>
<path fill="none" stroke="darkgrey" stroke-width="1.08" d="M351.5,-214.62C341.11,-226.32 326.9,-242.32 321.18,-248.77"/>
</g>
<!-- pollution&#45;&#45;épuisement de la ressource -->
<g id="edge13" class="edge">
<title>pollution&#45;&#45;épuisement de la ressource</title>
<path fill="none" stroke="darkgrey" stroke-width="3.73" d="M506.25,-155.97C496.66,-134.52 482.82,-103.57 475.71,-87.66"/>
</g>
<!-- pollution&#45;&#45;impact environnemental -->
<g id="edge16" class="edge">
<title>pollution&#45;&#45;impact environnemental</title>
<path fill="none" stroke="darkgrey" stroke-width="10" d="M492.02,-173.15C470.81,-168.07 439.9,-160.66 416.08,-154.95"/>
</g>
<!-- pollution&#45;&#45;conflit -->
<g id="edge17" class="edge">
<title>pollution&#45;&#45;conflit</title>
<path fill="none" stroke="darkgrey" stroke-width="1.18" d="M497.24,-162.88C472.51,-142.2 430.73,-107.26 412.78,-92.25"/>
</g>
<!-- pollution&#45;&#45;économie du pays -->
<g id="edge19" class="edge">
<title>pollution&#45;&#45;économie du pays</title>
<path fill="none" stroke="darkgrey" stroke-width="2.67" d="M493.28,-169.32C476.86,-162.47 455.65,-153.62 443.26,-148.44"/>
</g>
<!-- pollution&#45;&#45;amélioration environnementale -->
<g id="edge20" class="edge">
<title>pollution&#45;&#45;amélioration environnementale</title>
<path fill="none" stroke="darkgrey" stroke-width="1.91" d="M502.17,-199.79C486.84,-221.87 462.97,-256.26 449.4,-275.81"/>
</g>
<!-- pollution&#45;&#45;montagne -->
<g id="edge14" class="edge">
<title>pollution&#45;&#45;montagne</title>
<path fill="none" stroke="darkgrey" stroke-width="1.39" d="M531.83,-158.76C551.18,-133.05 583.06,-90.69 591.65,-79.29"/>
</g>
<!-- pollution&#45;&#45;biodiversité -->
<g id="edge15" class="edge">
<title>pollution&#45;&#45;biodiversité</title>
<path fill="none" stroke="darkgrey" stroke-width="1.63" d="M535.44,-195.66C558.64,-216.1 596.26,-249.23 606.92,-258.62"/>
</g>
<!-- pollution&#45;&#45;développement -->
<g id="edge18" class="edge">
<title>pollution&#45;&#45;développement</title>
<path fill="none" stroke="darkgrey" stroke-width="1.54" d="M494.59,-191.56C488.01,-195.31 481.13,-199.23 475.78,-202.27"/>
</g>
<!-- pollution&#45;&#45;revenu -->
<g id="edge21" class="edge">
<title>pollution&#45;&#45;revenu</title>
<path fill="none" stroke="darkgrey" stroke-width="1.06" d="M541.19,-183.76C578.67,-190.94 647.43,-204.12 664.04,-207.3"/>
</g>
<!-- pollution&#45;&#45;déclin -->
<g id="edge22" class="edge">
<title>pollution&#45;&#45;déclin</title>
<path fill="none" stroke="darkgrey" stroke-width="1.35" d="M540.05,-169.82C575.38,-155.95 639.76,-130.68 655.3,-124.57"/>
</g>
<!-- pollution&#45;&#45;développement durable -->
<g id="edge23" class="edge">
<title>pollution&#45;&#45;développement durable</title>
<path fill="none" stroke="darkgrey" stroke-width="1.48" d="M515.38,-204.02C514.3,-226.88 512.75,-259.65 511.94,-276.69"/>
</g>
<!-- pollution&#45;&#45;innovation -->
<g id="edge24" class="edge">
<title>pollution&#45;&#45;innovation</title>
<path fill="none" stroke="darkgrey" stroke-width="1.4" d="M495.71,-193.01C474.06,-207.5 441.17,-229.53 425.23,-240.2"/>
</g>
<!-- épuisement de la ressource&#45;&#45;impact environnemental -->
<g id="edge25" class="edge">
<title>épuisement de la ressource&#45;&#45;impact environnemental</title>
<path fill="none" stroke="darkgrey" stroke-width="4.14" d="M462.13,-84.24C450.02,-93.54 427.88,-110.54 409.79,-124.43"/>
</g>
<!-- épuisement de la ressource&#45;&#45;conflit -->
<g id="edge26" class="edge">
<title>épuisement de la ressource&#45;&#45;conflit</title>
<path fill="none" stroke="darkgrey" stroke-width="1.87" d="M460.05,-78.63C447.72,-80.04 427.88,-82.32 415.46,-83.75"/>
</g>
<!-- épuisement de la ressource&#45;&#45;économie du pays -->
<g id="edge28" class="edge">
<title>épuisement de la ressource&#45;&#45;économie du pays</title>
<path fill="none" stroke="darkgrey" stroke-width="1.61" d="M465.64,-86.93C458.47,-99.48 445.96,-121.41 438.68,-134.16"/>
</g>
<!-- épuisement de la ressource&#45;&#45;développement -->
<g id="edge27" class="edge">
<title>épuisement de la ressource&#45;&#45;développement</title>
<path fill="none" stroke="darkgrey" stroke-width="1.37" d="M470.68,-88.48C469.74,-113.11 467.49,-172.07 466.56,-196.68"/>
</g>
<!-- impact environnemental&#45;&#45;conflit -->
<g id="edge29" class="edge">
<title>impact environnemental&#45;&#45;conflit</title>
<path fill="none" stroke="darkgrey" stroke-width="3.41" d="M393.8,-112.56C396.15,-106.33 398.42,-100.29 400.24,-95.46"/>
</g>
<!-- impact environnemental&#45;&#45;économie du pays -->
<g id="edge32" class="edge">
<title>impact environnemental&#45;&#45;économie du pays</title>
<path fill="none" stroke="darkgrey" stroke-width="3.62" d="M417.1,-144.88C418.76,-144.8 420.36,-144.73 421.86,-144.66"/>
</g>
<!-- impact environnemental&#45;&#45;amélioration environnementale -->
<g id="edge33" class="edge">
<title>impact environnemental&#45;&#45;amélioration environnementale</title>
<path fill="none" stroke="darkgrey" stroke-width="2.78" d="M394.46,-179.98C406.32,-209.43 423.09,-251.1 432.32,-274.02"/>
</g>
<!-- impact environnemental&#45;&#45;automatisation -->
<g id="edge36" class="edge">
<title>impact environnemental&#45;&#45;automatisation</title>
<path fill="none" stroke="darkgrey" stroke-width="1.42" d="M362.63,-177.5C347.25,-203.41 326.85,-237.8 320.56,-248.39"/>
</g>
<!-- impact environnemental&#45;&#45;développement -->
<g id="edge31" class="edge">
<title>impact environnemental&#45;&#45;développement</title>
<path fill="none" stroke="darkgrey" stroke-width="2.25" d="M410.3,-167.61C426.65,-179.37 445.91,-193.22 457,-201.2"/>
</g>
<!-- impact environnemental&#45;&#45;innovation -->
<g id="edge34" class="edge">
<title>impact environnemental&#45;&#45;innovation</title>
<path fill="none" stroke="darkgrey" stroke-width="1.01" d="M392.92,-180.64C399.63,-199.86 407.57,-222.57 412.15,-235.66"/>
</g>
<!-- impact environnemental&#45;&#45;vision positive de la ressource -->
<g id="edge30" class="edge">
<title>impact environnemental&#45;&#45;vision positive de la ressource</title>
<path fill="none" stroke="darkgrey" stroke-width="1.21" d="M350.18,-127.24C320.17,-108.45 276.84,-81.33 261.06,-71.45"/>
</g>
<!-- impact environnemental&#45;&#45;richesse -->
<g id="edge35" class="edge">
<title>impact environnemental&#45;&#45;richesse</title>
<path fill="none" stroke="darkgrey" stroke-width="1.82" d="M368.85,-112.64C355.7,-75.96 335.94,-20.82 330.92,-6.82"/>
</g>
<!-- conflit&#45;&#45;économie du pays -->
<g id="edge37" class="edge">
<title>conflit&#45;&#45;économie du pays</title>
<path fill="none" stroke="darkgrey" stroke-width="1.23" d="M409.05,-95.08C414.32,-105.88 422.66,-122.98 427.97,-133.88"/>
</g>
<!-- amélioration environnementale&#45;&#45;développement durable -->
<g id="edge43" class="edge">
<title>amélioration environnementale&#45;&#45;développement durable</title>
<path fill="none" stroke="darkgrey" stroke-width="1.54" d="M457.31,-290.03C470.87,-289.5 488.93,-288.81 500.37,-288.36"/>
</g>
<!-- amélioration environnementale&#45;&#45;innovation -->
<g id="edge44" class="edge">
<title>amélioration environnementale&#45;&#45;innovation</title>
<path fill="none" stroke="darkgrey" stroke-width="1.39" d="M430.69,-274.74C427.49,-268.6 423.92,-261.77 421.09,-256.35"/>
</g>
<!-- amélioration environnementale&#45;&#45;maintien de l’exploitation -->
<g id="edge42" class="edge">
<title>amélioration environnementale&#45;&#45;maintien de l’exploitation</title>
<path fill="none" stroke="darkgrey" stroke-width="1.27" d="M438.92,-308.77C438.7,-341.11 438.25,-407.06 438.14,-423.04"/>
</g>
<!-- développement&#45;&#45;économie du pays -->
<g id="edge38" class="edge">
<title>développement&#45;&#45;économie du pays</title>
<path fill="none" stroke="darkgrey" stroke-width="1.73" d="M460.95,-197.83C454.76,-185.95 444.45,-166.18 438.23,-154.23"/>
</g>
<!-- développement&#45;&#45;amélioration environnementale -->
<g id="edge39" class="edge">
<title>développement&#45;&#45;amélioration environnementale</title>
<path fill="none" stroke="darkgrey" stroke-width="1.42" d="M462.7,-218.28C458.18,-232.14 450.15,-256.73 444.71,-273.38"/>
</g>
<!-- développement&#45;&#45;développement durable -->
<g id="edge40" class="edge">
<title>développement&#45;&#45;développement durable</title>
<path fill="none" stroke="darkgrey" stroke-width="1.26" d="M471.69,-217.6C480.37,-232.99 497.09,-262.59 505.81,-278.03"/>
</g>
<!-- développement&#45;&#45;innovation -->
<g id="edge41" class="edge">
<title>développement&#45;&#45;innovation</title>
<path fill="none" stroke="darkgrey" stroke-width="1.11" d="M457.39,-214.5C448.28,-221.52 434.09,-232.44 424.9,-239.52"/>
</g>
<!-- développement durable&#45;&#45;innovation -->
<g id="edge45" class="edge">
<title>développement durable&#45;&#45;innovation</title>
<path fill="none" stroke="darkgrey" stroke-width="1.08" d="M501.19,-283.5C482.81,-275.51 444.39,-258.81 426.06,-250.85"/>
</g>
<!-- innovation&#45;&#45;automatisation -->
<g id="edge46" class="edge">
<title>innovation&#45;&#45;automatisation</title>
<path fill="none" stroke="darkgrey" stroke-width="1.09" d="M404.76,-247.04C383,-248.2 335.85,-250.71 322.33,-251.43"/>
</g>
<!-- fin -->
<g id="node1" class="node">
<title>fin</title>
<ellipse fill="#84206b" stroke="white" stroke-width="0" cx="483.21" cy="-126.69" rx="14.5" ry="14.5"/>
<text text-anchor="middle" x="456.21" y="-146.47" font-family="Helvetica,sans-Serif" font-size="18.40" fill="#4d4d4d">fin</text>
</g>
<!-- emploi -->
<g id="node2" class="node">
<title>emploi</title>
<ellipse fill="#c03a51" stroke="white" stroke-width="0" cx="363.53" cy="-201.07" rx="18" ry="18"/>
<text text-anchor="middle" x="312.03" y="-225.07" font-family="Helvetica,sans-Serif" font-size="20.00" fill="#4d4d4d">emploi</text>
</g>
<!-- pollution -->
<g id="node3" class="node">
<title>pollution</title>
<ellipse fill="#f2741c" stroke="white" stroke-width="0" cx="516.57" cy="-179.04" rx="25" ry="25"/>
<text text-anchor="middle" x="543.07" y="-211.48" font-family="Helvetica,sans-Serif" font-size="23.20" fill="#4d4d4d">pollution</text>
</g>
<!-- épuisement de la ressource -->
<g id="node4" class="node">
<title>épuisement de la ressource</title>
<ellipse fill="#741a6e" stroke="white" stroke-width="0" cx="471.1" cy="-77.36" rx="11" ry="11"/>
<text text-anchor="middle" x="577.6" y="-92.92" font-family="Helvetica,sans-Serif" font-size="16.80" fill="#4d4d4d">épuisement de la ressource</text>
</g>
<!-- impact environnemental -->
<g id="node5" class="node">
<title>impact environnemental</title>
<ellipse fill="#fcffa4" stroke="white" stroke-width="0" cx="381" cy="-146.53" rx="36" ry="36"/>
<text text-anchor="middle" x="172.5" y="-191.13" font-family="Helvetica,sans-Serif" font-size="28.00" fill="#4d4d4d">impact environnemental</text>
</g>
<!-- conflit -->
<g id="node6" class="node">
<title>conflit</title>
<ellipse fill="#59106e" stroke="white" stroke-width="0" cx="404.17" cy="-85.05" rx="11" ry="11"/>
<text text-anchor="middle" x="367.17" y="-78.61" font-family="Helvetica,sans-Serif" font-size="16.80" fill="#4d4d4d">conflit</text>
</g>
<!-- économie du pays -->
<g id="node7" class="node">
<title>économie du pays</title>
<ellipse fill="#6f196e" stroke="white" stroke-width="0" cx="432.98" cy="-144.15" rx="11" ry="11"/>
<text text-anchor="middle" x="520.98" y="-137.71" font-family="Helvetica,sans-Serif" font-size="16.80" fill="#4d4d4d">économie du pays</text>
</g>
<!-- amélioration environnementale -->
<g id="node8" class="node">
<title>amélioration environnementale</title>
<ellipse fill="#ba3655" stroke="white" stroke-width="0" cx="439.05" cy="-290.73" rx="18" ry="18"/>
<text text-anchor="middle" x="265.55" y="-314.73" font-family="Helvetica,sans-Serif" font-size="20.00" fill="#4d4d4d">amélioration environnementale</text>
</g>
<!-- famille -->
<g id="node9" class="node">
<title>famille</title>
<ellipse fill="#02020e" stroke="white" stroke-width="0" cx="233.21" cy="-198.73" rx="0.5" ry="0.5"/>
<text text-anchor="middle" x="253.21" y="-202.63" font-family="Helvetica,sans-Serif" font-size="12.00" fill="#4d4d4d">famille</text>
</g>
<!-- formation -->
<g id="node10" class="node">
<title>formation</title>
<ellipse fill="#000004" stroke="white" stroke-width="0" cx="247.39" cy="-305.68" rx="0.5" ry="0.5"/>
<text text-anchor="middle" x="217.89" y="-295.58" font-family="Helvetica,sans-Serif" font-size="12.00" fill="#4d4d4d">formation</text>
</g>
<!-- automatisation -->
<g id="node11" class="node">
<title>automatisation</title>
<ellipse fill="#230c4c" stroke="white" stroke-width="0" cx="318.64" cy="-251.62" rx="3.5" ry="3.5"/>
<text text-anchor="middle" x="264.14" y="-259.24" font-family="Helvetica,sans-Serif" font-size="13.60" fill="#4d4d4d">automatisation</text>
</g>
<!-- montagne -->
<g id="node12" class="node">
<title>montagne</title>
<ellipse fill="#0d0829" stroke="white" stroke-width="0" cx="593.83" cy="-76.39" rx="3.5" ry="3.5"/>
<text text-anchor="middle" x="555.33" y="-77.01" font-family="Helvetica,sans-Serif" font-size="13.60" fill="#4d4d4d">montagne</text>
</g>
<!-- biodiversité -->
<g id="node13" class="node">
<title>biodiversité</title>
<ellipse fill="#1f0c48" stroke="white" stroke-width="0" cx="609.81" cy="-261.17" rx="3.5" ry="3.5"/>
<text text-anchor="middle" x="566.31" y="-268.79" font-family="Helvetica,sans-Serif" font-size="13.60" fill="#4d4d4d">biodiversité</text>
</g>
<!-- développement -->
<g id="node14" class="node">
<title>développement</title>
<ellipse fill="#6a176e" stroke="white" stroke-width="0" cx="466.13" cy="-207.77" rx="11" ry="11"/>
<text text-anchor="middle" x="435.63" y="-183.33" font-family="Helvetica,sans-Serif" font-size="16.80" fill="#4d4d4d">développement</text>
</g>
<!-- revenu -->
<g id="node15" class="node">
<title>revenu</title>
<ellipse fill="#08051d" stroke="white" stroke-width="0" cx="667.72" cy="-208.01" rx="3.5" ry="3.5"/>
<text text-anchor="middle" x="640.72" y="-215.63" font-family="Helvetica,sans-Serif" font-size="13.60" fill="#4d4d4d">revenu</text>
</g>
<!-- déclin -->
<g id="node16" class="node">
<title>déclin</title>
<ellipse fill="#230c4c" stroke="white" stroke-width="0" cx="658.75" cy="-123.22" rx="3.5" ry="3.5"/>
<text text-anchor="middle" x="634.75" y="-130.84" font-family="Helvetica,sans-Serif" font-size="13.60" fill="#4d4d4d">déclin</text>
</g>
<!-- développement durable -->
<g id="node17" class="node">
<title>développement durable</title>
<ellipse fill="#5a116e" stroke="white" stroke-width="0" cx="511.41" cy="-287.94" rx="11" ry="11"/>
<text text-anchor="middle" x="601.41" y="-303.5" font-family="Helvetica,sans-Serif" font-size="16.80" fill="#4d4d4d">développement durable</text>
</g>
<!-- innovation -->
<g id="node18" class="node">
<title>innovation</title>
<ellipse fill="#751b6e" stroke="white" stroke-width="0" cx="415.91" cy="-246.44" rx="11" ry="11"/>
<text text-anchor="middle" x="360.41" y="-262" font-family="Helvetica,sans-Serif" font-size="16.80" fill="#4d4d4d">innovation</text>
</g>
<!-- vision positive de la ressource -->
<g id="node19" class="node">
<title>vision positive de la ressource</title>
<ellipse fill="#340a5f" stroke="white" stroke-width="0" cx="255.02" cy="-67.67" rx="7" ry="7"/>
<text text-anchor="middle" x="133.52" y="-79.51" font-family="Helvetica,sans-Serif" font-size="15.20" fill="#4d4d4d">vision positive de la ressource</text>
</g>
<!-- richesse -->
<g id="node20" class="node">
<title>richesse</title>
<ellipse fill="#0a0722" stroke="white" stroke-width="0" cx="329.73" cy="-3.5" rx="3.5" ry="3.5"/>
<text text-anchor="middle" x="298.73" y="-11.12" font-family="Helvetica,sans-Serif" font-size="13.60" fill="#4d4d4d">richesse</text>
</g>
<!-- maintien de l’exploitation -->
<g id="node21" class="node">
<title>maintien de l’exploitation</title>
<ellipse fill="#150b37" stroke="white" stroke-width="0" cx="438.12" cy="-426.59" rx="3.5" ry="3.5"/>
<text text-anchor="middle" x="347.12" y="-434.21" font-family="Helvetica,sans-Serif" font-size="13.60" fill="#4d4d4d">maintien de l’exploitation</text>
</g>
</g>
</svg>
