<?xml version="1.0" encoding="UTF-8" standalone="no"?>
<!DOCTYPE svg PUBLIC "-//W3C//DTD SVG 1.1//EN"
 "http://www.w3.org/Graphics/SVG/1.1/DTD/svg11.dtd">
<!-- Generated by graphviz version 2.43.0 (0)
 -->
<!-- Pages: 1 -->
<svg width="438pt" height="281pt"
 viewBox="0.00 0.00 437.89 280.99" xmlns="http://www.w3.org/2000/svg" xmlns:xlink="http://www.w3.org/1999/xlink">
<g id="graph0" class="graph" transform="scale(1 1) rotate(0) translate(4 276.99)">
<polygon fill="white" stroke="transparent" points="-4,4 -4,-276.99 433.89,-276.99 433.89,4 -4,4"/>
<!-- emploi&#45;&#45;pollution -->
<g id="edge1" class="edge">
<title>emploi&#45;&#45;pollution</title>
<path fill="none" stroke="darkgrey" stroke-width="10" d="M239.45,-117.4C251.79,-121.19 267.77,-126.08 281.98,-130.44"/>
</g>
<!-- emploi&#45;&#45;impact environnemental -->
<g id="edge2" class="edge">
<title>emploi&#45;&#45;impact environnemental</title>
<path fill="none" stroke="darkgrey" stroke-width="4.7" d="M225.94,-131.45C234.32,-155.05 247.97,-193.47 255.85,-215.67"/>
</g>
<!-- emploi&#45;&#45;économie -->
<g id="edge3" class="edge">
<title>emploi&#45;&#45;économie</title>
<path fill="none" stroke="darkgrey" stroke-width="1.63" d="M218.1,-132.64C217.74,-145.99 217.29,-162.56 216.99,-173.29"/>
</g>
<!-- emploi&#45;&#45;végétalisation -->
<g id="edge4" class="edge">
<title>emploi&#45;&#45;végétalisation</title>
<path fill="none" stroke="darkgrey" d="M211.43,-90.56C202.01,-63.99 186.24,-19.54 181.77,-6.93"/>
</g>
<!-- pollution&#45;&#45;impact environnemental -->
<g id="edge6" class="edge">
<title>pollution&#45;&#45;impact environnemental</title>
<path fill="none" stroke="darkgrey" stroke-width="5.33" d="M298.1,-172.17C289.07,-187.38 278.6,-205.02 271.27,-217.38"/>
</g>
<!-- pollution&#45;&#45;économie -->
<g id="edge8" class="edge">
<title>pollution&#45;&#45;économie</title>
<path fill="none" stroke="darkgrey" stroke-width="6.94" d="M283.32,-155.46C263.79,-163.93 240.43,-174.06 227.2,-179.8"/>
</g>
<!-- pollution&#45;&#45;épuisable -->
<g id="edge5" class="edge">
<title>pollution&#45;&#45;épuisable</title>
<path fill="none" stroke="darkgrey" stroke-width="7.79" d="M326.71,-106.29C332.15,-87.61 338.57,-65.61 342.65,-51.62"/>
</g>
<!-- pollution&#45;&#45;démolition -->
<g id="edge7" class="edge">
<title>pollution&#45;&#45;démolition</title>
<path fill="none" stroke="darkgrey" stroke-width="4.29" d="M351.65,-131.75C382.7,-123.53 423.86,-112.64 428.88,-111.31"/>
</g>
<!-- impact environnemental&#45;&#45;économie -->
<g id="edge9" class="edge">
<title>impact environnemental&#45;&#45;économie</title>
<path fill="none" stroke="darkgrey" stroke-width="2.42" d="M249.62,-219.7C241.55,-211.04 231.27,-200.01 224.37,-192.59"/>
</g>
<!-- emploi -->
<g id="node1" class="node">
<title>emploi</title>
<ellipse fill="#d34743" stroke="white" stroke-width="0" cx="218.69" cy="-111.04" rx="21.5" ry="21.5"/>
<text text-anchor="middle" x="160.19" y="-139.26" font-family="Helvetica,sans-Serif" font-size="21.60" fill="#4d4d4d">emploi</text>
</g>
<!-- pollution -->
<g id="node2" class="node">
<title>pollution</title>
<ellipse fill="#fcffa4" stroke="white" stroke-width="0" cx="316.58" cy="-141.04" rx="36" ry="36"/>
<text text-anchor="middle" x="342.08" y="-185.64" font-family="Helvetica,sans-Serif" font-size="28.00" fill="#4d4d4d">pollution</text>
</g>
<!-- impact environnemental -->
<g id="node3" class="node">
<title>impact environnemental</title>
<ellipse fill="#ab2f5e" stroke="white" stroke-width="0" cx="262" cy="-232.99" rx="18" ry="18"/>
<text text-anchor="middle" x="122" y="-256.99" font-family="Helvetica,sans-Serif" font-size="20.00" fill="#4d4d4d">impact environnemental</text>
</g>
<!-- économie -->
<g id="node4" class="node">
<title>économie</title>
<ellipse fill="#64156e" stroke="white" stroke-width="0" cx="216.69" cy="-184.36" rx="11" ry="11"/>
<text text-anchor="middle" x="164.19" y="-199.92" font-family="Helvetica,sans-Serif" font-size="16.80" fill="#4d4d4d">économie</text>
</g>
<!-- végétalisation -->
<g id="node5" class="node">
<title>végétalisation</title>
<ellipse fill="#1e0c45" stroke="white" stroke-width="0" cx="180.56" cy="-3.5" rx="3.5" ry="3.5"/>
<text text-anchor="middle" x="129.06" y="-11.12" font-family="Helvetica,sans-Serif" font-size="13.60" fill="#4d4d4d">végétalisation</text>
</g>
<!-- épuisable -->
<g id="node6" class="node">
<title>épuisable</title>
<ellipse fill="#7c1d6d" stroke="white" stroke-width="0" cx="346.75" cy="-37.53" rx="14.5" ry="14.5"/>
<text text-anchor="middle" x="286.75" y="-57.31" font-family="Helvetica,sans-Serif" font-size="18.40" fill="#4d4d4d">épuisable</text>
</g>
<!-- démolition -->
<g id="node7" class="node">
<title>démolition</title>
<ellipse fill="#000004" stroke="white" stroke-width="0" cx="429.39" cy="-111.17" rx="0.5" ry="0.5"/>
<text text-anchor="middle" x="396.89" y="-115.07" font-family="Helvetica,sans-Serif" font-size="12.00" fill="#4d4d4d">démolition</text>
</g>
</g>
</svg>
