<?xml version="1.0" encoding="UTF-8" standalone="no"?>
<!DOCTYPE svg PUBLIC "-//W3C//DTD SVG 1.1//EN"
 "http://www.w3.org/Graphics/SVG/1.1/DTD/svg11.dtd">
<!-- Generated by graphviz version 2.43.0 (0)
 -->
<!-- Pages: 1 -->
<svg width="496pt" height="355pt"
 viewBox="0.00 0.00 495.86 355.49" xmlns="http://www.w3.org/2000/svg" xmlns:xlink="http://www.w3.org/1999/xlink">
<g id="graph0" class="graph" transform="scale(1 1) rotate(0) translate(4 351.49)">
<polygon fill="white" stroke="transparent" points="-4,4 -4,-351.49 491.86,-351.49 491.86,4 -4,4"/>
<!-- pollution&#45;&#45;travail -->
<g id="edge1" class="edge">
<title>pollution&#45;&#45;travail</title>
<path fill="none" stroke="darkgrey" stroke-width="6.94" d="M267.4,-199.45C269.53,-200.36 271.6,-201.25 273.55,-202.09"/>
</g>
<!-- pollution&#45;&#45;richesse -->
<g id="edge2" class="edge">
<title>pollution&#45;&#45;richesse</title>
<path fill="none" stroke="darkgrey" stroke-width="2.66" d="M254.12,-214.88C260.79,-226.19 268.02,-238.44 272.86,-246.65"/>
</g>
<!-- pollution&#45;&#45;destruction -->
<g id="edge3" class="edge">
<title>pollution&#45;&#45;destruction</title>
<path fill="none" stroke="darkgrey" stroke-width="4.81" d="M208.29,-171.38C177.37,-155.29 130.69,-130.99 113.95,-122.27"/>
</g>
<!-- pollution&#45;&#45;argent -->
<g id="edge4" class="edge">
<title>pollution&#45;&#45;argent</title>
<path fill="none" stroke="darkgrey" stroke-width="2.6" d="M266.91,-200.8C295.1,-214.42 335.55,-233.98 351.36,-241.62"/>
</g>
<!-- pollution&#45;&#45;nickel -->
<g id="edge5" class="edge">
<title>pollution&#45;&#45;nickel</title>
<path fill="none" stroke="darkgrey" stroke-width="9.5" d="M268.29,-176.16C275.75,-173.66 283.77,-170.96 291.38,-168.41"/>
</g>
<!-- pollution&#45;&#45;montagne -->
<g id="edge6" class="edge">
<title>pollution&#45;&#45;montagne</title>
<path fill="none" stroke="darkgrey" d="M263.43,-166.58C289.59,-146.52 328.04,-117.05 342.58,-105.9"/>
</g>
<!-- pollution&#45;&#45;camion -->
<g id="edge7" class="edge">
<title>pollution&#45;&#45;camion</title>
<path fill="none" stroke="darkgrey" stroke-width="3.05" d="M252.31,-157.39C259.56,-143.21 267.8,-127.09 272.97,-116.99"/>
</g>
<!-- pollution&#45;&#45;économie -->
<g id="edge8" class="edge">
<title>pollution&#45;&#45;économie</title>
<path fill="none" stroke="darkgrey" stroke-width="8.62" d="M241.89,-218.77C242.14,-220.6 242.39,-222.41 242.64,-224.18"/>
</g>
<!-- pollution&#45;&#45;environnement -->
<g id="edge9" class="edge">
<title>pollution&#45;&#45;environnement</title>
<path fill="none" stroke="darkgrey" stroke-width="6.43" d="M263.74,-206.13C276.76,-215.81 291.98,-227.13 302.96,-235.3"/>
</g>
<!-- pollution&#45;&#45;emploi -->
<g id="edge10" class="edge">
<title>pollution&#45;&#45;emploi</title>
<path fill="none" stroke="darkgrey" stroke-width="10" d="M253.42,-214.96C263.65,-233.11 276.53,-255.97 284.97,-270.93"/>
</g>
<!-- pollution&#45;&#45;usine -->
<g id="edge11" class="edge">
<title>pollution&#45;&#45;usine</title>
<path fill="none" stroke="darkgrey" stroke-width="1.24" d="M231.69,-154.47C228.54,-136.76 224.89,-116.25 223,-105.63"/>
</g>
<!-- pollution&#45;&#45;exploitation -->
<g id="edge12" class="edge">
<title>pollution&#45;&#45;exploitation</title>
<path fill="none" stroke="darkgrey" stroke-width="1.06" d="M248.54,-155.69C258.97,-126.83 273.79,-85.83 279.57,-69.82"/>
</g>
<!-- pollution&#45;&#45;conflit -->
<g id="edge13" class="edge">
<title>pollution&#45;&#45;conflit</title>
<path fill="none" stroke="darkgrey" stroke-width="1.58" d="M234.02,-218.99C230.66,-251.26 225.74,-298.46 223.88,-316.3"/>
</g>
<!-- pollution&#45;&#45;développement -->
<g id="edge14" class="edge">
<title>pollution&#45;&#45;développement</title>
<path fill="none" stroke="darkgrey" stroke-width="2.17" d="M206.4,-196.92C177.87,-206.49 139.27,-219.43 134.56,-221.01"/>
</g>
<!-- pollution&#45;&#45;déforestation -->
<g id="edge15" class="edge">
<title>pollution&#45;&#45;déforestation</title>
<path fill="none" stroke="darkgrey" stroke-width="1.84" d="M204.74,-186.82C168.26,-187.15 112.33,-187.64 97.32,-187.78"/>
</g>
<!-- travail&#45;&#45;richesse -->
<g id="edge16" class="edge">
<title>travail&#45;&#45;richesse</title>
<path fill="none" stroke="darkgrey" stroke-width="1.7" d="M284.46,-222.39C283.17,-229.73 281.63,-238.5 280.44,-245.27"/>
</g>
<!-- travail&#45;&#45;nickel -->
<g id="edge17" class="edge">
<title>travail&#45;&#45;nickel</title>
<path fill="none" stroke="darkgrey" stroke-width="3.33" d="M295.8,-196.31C298.21,-193.14 300.93,-189.55 303.73,-185.86"/>
</g>
<!-- travail&#45;&#45;économie -->
<g id="edge18" class="edge">
<title>travail&#45;&#45;économie</title>
<path fill="none" stroke="darkgrey" stroke-width="2.93" d="M276.14,-217.76C271.73,-221.77 266.54,-226.48 261.71,-230.86"/>
</g>
<!-- travail&#45;&#45;environnement -->
<g id="edge19" class="edge">
<title>travail&#45;&#45;environnement</title>
<path fill="none" stroke="darkgrey" stroke-width="2.72" d="M296.1,-219.22C299.37,-223.31 303.1,-227.96 306.54,-232.25"/>
</g>
<!-- richesse&#45;&#45;nickel -->
<g id="edge20" class="edge">
<title>richesse&#45;&#45;nickel</title>
<path fill="none" stroke="darkgrey" stroke-width="2.22" d="M283.39,-245.98C289.65,-232.79 300.84,-209.25 310.14,-189.69"/>
</g>
<!-- richesse&#45;&#45;économie -->
<g id="edge21" class="edge">
<title>richesse&#45;&#45;économie</title>
<path fill="none" stroke="darkgrey" stroke-width="1.51" d="M267.74,-252.72C267.29,-252.57 266.83,-252.42 266.37,-252.27"/>
</g>
<!-- richesse&#45;&#45;emploi -->
<g id="edge22" class="edge">
<title>richesse&#45;&#45;emploi</title>
<path fill="none" stroke="darkgrey" stroke-width="1.19" d="M283.53,-266.2C284.23,-267.58 284.96,-269.04 285.7,-270.5"/>
</g>
<!-- argent&#45;&#45;nickel -->
<g id="edge23" class="edge">
<title>argent&#45;&#45;nickel</title>
<path fill="none" stroke="darkgrey" stroke-width="3.68" d="M355.62,-238.24C351.92,-228.17 344.62,-208.3 338.16,-190.72"/>
</g>
<!-- argent&#45;&#45;emploi -->
<g id="edge24" class="edge">
<title>argent&#45;&#45;emploi</title>
<path fill="none" stroke="darkgrey" stroke-width="1.89" d="M352.13,-248.71C342.44,-255.02 322.91,-267.73 309.14,-276.7"/>
</g>
<!-- nickel&#45;&#45;montagne -->
<g id="edge25" class="edge">
<title>nickel&#45;&#45;montagne</title>
<path fill="none" stroke="darkgrey" stroke-width="2.72" d="M339.46,-123.33C341.86,-117.49 344.1,-112.01 345.75,-107.99"/>
</g>
<!-- nickel&#45;&#45;camion -->
<g id="edge26" class="edge">
<title>nickel&#45;&#45;camion</title>
<path fill="none" stroke="darkgrey" stroke-width="5.36" d="M300.77,-130.79C295.37,-125.14 290.04,-119.57 285.9,-115.24"/>
</g>
<!-- nickel&#45;&#45;économie -->
<g id="edge27" class="edge">
<title>nickel&#45;&#45;économie</title>
<path fill="none" stroke="darkgrey" stroke-width="6.18" d="M301.25,-183.95C287.82,-198.81 271.61,-216.74 260.16,-229.4"/>
</g>
<!-- nickel&#45;&#45;environnement -->
<g id="edge28" class="edge">
<title>nickel&#45;&#45;environnement</title>
<path fill="none" stroke="darkgrey" stroke-width="3.44" d="M322.57,-192.77C321.49,-205.02 320.33,-218.2 319.44,-228.42"/>
</g>
<!-- nickel&#45;&#45;emploi -->
<g id="edge30" class="edge">
<title>nickel&#45;&#45;emploi</title>
<path fill="none" stroke="darkgrey" stroke-width="5.79" d="M317.1,-192C310.97,-216.92 303.01,-249.32 298.17,-269.03"/>
</g>
<!-- nickel&#45;&#45;usine -->
<g id="edge32" class="edge">
<title>nickel&#45;&#45;usine</title>
<path fill="none" stroke="darkgrey" stroke-width="4.79" d="M294.24,-139.18C270.8,-126.01 240.74,-109.12 227.94,-101.92"/>
</g>
<!-- nickel&#45;&#45;exploitation -->
<g id="edge33" class="edge">
<title>nickel&#45;&#45;exploitation</title>
<path fill="none" stroke="darkgrey" stroke-width="1.14" d="M310.44,-124.06C301.18,-104.19 290.2,-80.6 285.01,-69.47"/>
</g>
<!-- nickel&#45;&#45;terre rouge -->
<g id="edge29" class="edge">
<title>nickel&#45;&#45;terre rouge</title>
<path fill="none" stroke="darkgrey" stroke-width="1.65" d="M360.21,-145.92C391.33,-136.04 433.01,-122.8 438.09,-121.18"/>
</g>
<!-- nickel&#45;&#45;terre -->
<g id="edge31" class="edge">
<title>nickel&#45;&#45;terre</title>
<path fill="none" stroke="darkgrey" stroke-width="1.05" d="M356.51,-175.59C384.74,-192.74 424.34,-216.81 439.27,-225.88"/>
</g>
<!-- nickel&#45;&#45;sln -->
<g id="edge34" class="edge">
<title>nickel&#45;&#45;sln</title>
<path fill="none" stroke="darkgrey" stroke-width="5.97" d="M361.91,-160.43C396.79,-163.85 446.89,-168.77 465.13,-170.56"/>
</g>
<!-- nickel&#45;&#45;ressource -->
<g id="edge35" class="edge">
<title>nickel&#45;&#45;ressource</title>
<path fill="none" stroke="darkgrey" stroke-width="1.12" d="M319.63,-121.36C313.47,-85.52 304.43,-32.87 301.19,-14.03"/>
</g>
<!-- nickel&#45;&#45;minerai -->
<g id="edge36" class="edge">
<title>nickel&#45;&#45;minerai</title>
<path fill="none" stroke="darkgrey" stroke-width="4.21" d="M304.53,-127.48C283.46,-98.25 252.72,-55.62 241.51,-40.08"/>
</g>
<!-- camion&#45;&#45;usine -->
<g id="edge37" class="edge">
<title>camion&#45;&#45;usine</title>
<path fill="none" stroke="darkgrey" stroke-width="1.16" d="M266.93,-105.34C255.64,-103.61 238.5,-100.99 228.89,-99.52"/>
</g>
<!-- économie&#45;&#45;environnement -->
<g id="edge38" class="edge">
<title>économie&#45;&#45;environnement</title>
<path fill="none" stroke="darkgrey" stroke-width="8.54" d="M267.29,-245.76C277.59,-245.88 289.78,-246.03 299.61,-246.15"/>
</g>
<!-- économie&#45;&#45;emploi -->
<g id="edge39" class="edge">
<title>économie&#45;&#45;emploi</title>
<path fill="none" stroke="darkgrey" stroke-width="7.67" d="M262.21,-259.66C267.98,-264.59 274.4,-270.06 279.93,-274.79"/>
</g>
<!-- environnement&#45;&#45;emploi -->
<g id="edge40" class="edge">
<title>environnement&#45;&#45;emploi</title>
<path fill="none" stroke="darkgrey" stroke-width="3.33" d="M308.36,-262.3C306.63,-265.2 304.83,-268.22 303.1,-271.12"/>
</g>
<!-- emploi&#45;&#45;conflit -->
<g id="edge41" class="edge">
<title>emploi&#45;&#45;conflit</title>
<path fill="none" stroke="darkgrey" stroke-width="1.64" d="M277.79,-295.02C262.47,-303 240.18,-314.61 229.41,-320.22"/>
</g>
<!-- usine&#45;&#45;minerai -->
<g id="edge42" class="edge">
<title>usine&#45;&#45;minerai</title>
<path fill="none" stroke="darkgrey" stroke-width="2.39" d="M223.38,-91.54C226.34,-79.23 232.54,-53.57 235.53,-41.15"/>
</g>
<!-- exploitation&#45;&#45;ressource -->
<g id="edge43" class="edge">
<title>exploitation&#45;&#45;ressource</title>
<path fill="none" stroke="darkgrey" stroke-width="1.6" d="M284.22,-56.17C287.67,-45.42 294.3,-24.72 297.76,-13.93"/>
</g>
<!-- exploitation&#45;&#45;minerai -->
<g id="edge44" class="edge">
<title>exploitation&#45;&#45;minerai</title>
<path fill="none" stroke="darkgrey" stroke-width="1.69" d="M275.79,-59.03C267.14,-53.44 251.59,-43.4 243.12,-37.93"/>
</g>
<!-- ressource&#45;&#45;minerai -->
<g id="edge45" class="edge">
<title>ressource&#45;&#45;minerai</title>
<path fill="none" stroke="darkgrey" stroke-width="1.04" d="M293.27,-9.9C281.12,-15.15 255.67,-26.15 243.71,-31.33"/>
</g>
<!-- pollution -->
<g id="node1" class="node">
<title>pollution</title>
<ellipse fill="#fbbe23" stroke="white" stroke-width="0" cx="237.4" cy="-186.53" rx="32.5" ry="32.5"/>
<text text-anchor="middle" x="146.9" y="-161.91" font-family="Helvetica,sans-Serif" font-size="26.40" fill="#4d4d4d">pollution</text>
</g>
<!-- travail -->
<g id="node2" class="node">
<title>travail</title>
<ellipse fill="#972766" stroke="white" stroke-width="0" cx="287.01" cy="-207.88" rx="14.5" ry="14.5"/>
<text text-anchor="middle" x="331.51" y="-198.66" font-family="Helvetica,sans-Serif" font-size="18.40" fill="#4d4d4d">travail</text>
</g>
<!-- richesse -->
<g id="node3" class="node">
<title>richesse</title>
<ellipse fill="#5f136e" stroke="white" stroke-width="0" cx="278.51" cy="-256.23" rx="11" ry="11"/>
<text text-anchor="middle" x="232.51" y="-271.79" font-family="Helvetica,sans-Serif" font-size="16.80" fill="#4d4d4d">richesse</text>
</g>
<!-- destruction -->
<g id="node4" class="node">
<title>destruction</title>
<ellipse fill="#2b0b57" stroke="white" stroke-width="0" cx="107.7" cy="-119.02" rx="7" ry="7"/>
<text text-anchor="middle" x="57.2" y="-130.86" font-family="Helvetica,sans-Serif" font-size="15.20" fill="#4d4d4d">destruction</text>
</g>
<!-- argent -->
<g id="node5" class="node">
<title>argent</title>
<ellipse fill="#450a69" stroke="white" stroke-width="0" cx="358.05" cy="-244.85" rx="7" ry="7"/>
<text text-anchor="middle" x="376.05" y="-256.69" font-family="Helvetica,sans-Serif" font-size="15.20" fill="#4d4d4d">argent</text>
</g>
<!-- nickel -->
<g id="node6" class="node">
<title>nickel</title>
<ellipse fill="#fcffa4" stroke="white" stroke-width="0" cx="325.73" cy="-156.88" rx="36" ry="36"/>
<text text-anchor="middle" x="248.73" y="-129.48" font-family="Helvetica,sans-Serif" font-size="28.00" fill="#4d4d4d">nickel</text>
</g>
<!-- montagne -->
<g id="node7" class="node">
<title>montagne</title>
<ellipse fill="#340a5f" stroke="white" stroke-width="0" cx="348.44" cy="-101.41" rx="7" ry="7"/>
<text text-anchor="middle" x="302.44" y="-82.25" font-family="Helvetica,sans-Serif" font-size="15.20" fill="#4d4d4d">montagne</text>
</g>
<!-- camion -->
<g id="node8" class="node">
<title>camion</title>
<ellipse fill="#65156e" stroke="white" stroke-width="0" cx="278.06" cy="-107.04" rx="11" ry="11"/>
<text text-anchor="middle" x="320.06" y="-100.6" font-family="Helvetica,sans-Serif" font-size="16.80" fill="#4d4d4d">camion</text>
</g>
<!-- économie -->
<g id="node9" class="node">
<title>économie</title>
<ellipse fill="#d04545" stroke="white" stroke-width="0" cx="245.61" cy="-245.49" rx="21.5" ry="21.5"/>
<text text-anchor="middle" x="170.61" y="-230.71" font-family="Helvetica,sans-Serif" font-size="21.60" fill="#4d4d4d">économie</text>
</g>
<!-- environnement -->
<g id="node10" class="node">
<title>environnement</title>
<ellipse fill="#a92e5e" stroke="white" stroke-width="0" cx="317.86" cy="-246.38" rx="18" ry="18"/>
<text text-anchor="middle" x="411.86" y="-270.38" font-family="Helvetica,sans-Serif" font-size="20.00" fill="#4d4d4d">environnement</text>
</g>
<!-- emploi -->
<g id="node11" class="node">
<title>emploi</title>
<ellipse fill="#ad305d" stroke="white" stroke-width="0" cx="293.84" cy="-286.66" rx="18" ry="18"/>
<text text-anchor="middle" x="309.34" y="-310.66" font-family="Helvetica,sans-Serif" font-size="20.00" fill="#4d4d4d">emploi</text>
</g>
<!-- usine -->
<g id="node12" class="node">
<title>usine</title>
<ellipse fill="#4a0c6b" stroke="white" stroke-width="0" cx="221.72" cy="-98.42" rx="7" ry="7"/>
<text text-anchor="middle" x="193.72" y="-96.26" font-family="Helvetica,sans-Serif" font-size="15.20" fill="#4d4d4d">usine</text>
</g>
<!-- exploitation -->
<g id="node13" class="node">
<title>exploitation</title>
<ellipse fill="#4f0d6c" stroke="white" stroke-width="0" cx="282.02" cy="-63.05" rx="7" ry="7"/>
<text text-anchor="middle" x="229.52" y="-60.89" font-family="Helvetica,sans-Serif" font-size="15.20" fill="#4d4d4d">exploitation</text>
</g>
<!-- conflit -->
<g id="node14" class="node">
<title>conflit</title>
<ellipse fill="#2b0b57" stroke="white" stroke-width="0" cx="223.13" cy="-323.49" rx="7" ry="7"/>
<text text-anchor="middle" x="192.13" y="-335.33" font-family="Helvetica,sans-Serif" font-size="15.20" fill="#4d4d4d">conflit</text>
</g>
<!-- développement -->
<g id="node15" class="node">
<title>développement</title>
<ellipse fill="#010108" stroke="white" stroke-width="0" cx="134.08" cy="-221.17" rx="0.5" ry="0.5"/>
<text text-anchor="middle" x="86.58" y="-211.07" font-family="Helvetica,sans-Serif" font-size="12.00" fill="#4d4d4d">développement</text>
</g>
<!-- déforestation -->
<g id="node16" class="node">
<title>déforestation</title>
<ellipse fill="#08051d" stroke="white" stroke-width="0" cx="93.5" cy="-187.81" rx="3.5" ry="3.5"/>
<text text-anchor="middle" x="45" y="-195.43" font-family="Helvetica,sans-Serif" font-size="13.60" fill="#4d4d4d">déforestation</text>
</g>
<!-- terre rouge -->
<g id="node17" class="node">
<title>terre rouge</title>
<ellipse fill="#000004" stroke="white" stroke-width="0" cx="438.61" cy="-121.02" rx="0.5" ry="0.5"/>
<text text-anchor="middle" x="404.61" y="-124.92" font-family="Helvetica,sans-Serif" font-size="12.00" fill="#4d4d4d">terre rouge</text>
</g>
<!-- terre -->
<g id="node18" class="node">
<title>terre</title>
<ellipse fill="#2b0b57" stroke="white" stroke-width="0" cx="445.27" cy="-229.53" rx="7" ry="7"/>
<text text-anchor="middle" x="419.77" y="-241.37" font-family="Helvetica,sans-Serif" font-size="15.20" fill="#4d4d4d">terre</text>
</g>
<!-- sln -->
<g id="node19" class="node">
<title>sln</title>
<ellipse fill="#340a5f" stroke="white" stroke-width="0" cx="472.11" cy="-171.25" rx="7" ry="7"/>
<text text-anchor="middle" x="453.61" y="-183.09" font-family="Helvetica,sans-Serif" font-size="15.20" fill="#4d4d4d">sln</text>
</g>
<!-- ressource -->
<g id="node20" class="node">
<title>ressource</title>
<ellipse fill="#3d0965" stroke="white" stroke-width="0" cx="299.98" cy="-7" rx="7" ry="7"/>
<text text-anchor="middle" x="255.98" y="-4.84" font-family="Helvetica,sans-Serif" font-size="15.20" fill="#4d4d4d">ressource</text>
</g>
<!-- minerai -->
<g id="node21" class="node">
<title>minerai</title>
<ellipse fill="#4a0c6b" stroke="white" stroke-width="0" cx="237.23" cy="-34.13" rx="7" ry="7"/>
<text text-anchor="middle" x="201.23" y="-31.97" font-family="Helvetica,sans-Serif" font-size="15.20" fill="#4d4d4d">minerai</text>
</g>
</g>
</svg>
