<?xml version="1.0" encoding="UTF-8" standalone="no"?>
<!DOCTYPE svg PUBLIC "-//W3C//DTD SVG 1.1//EN"
 "http://www.w3.org/Graphics/SVG/1.1/DTD/svg11.dtd">
<!-- Generated by graphviz version 2.43.0 (0)
 -->
<!-- Pages: 1 -->
<svg width="755pt" height="361pt"
 viewBox="0.00 0.00 754.96 361.23" xmlns="http://www.w3.org/2000/svg" xmlns:xlink="http://www.w3.org/1999/xlink">
<g id="graph0" class="graph" transform="scale(1 1) rotate(0) translate(4 357.23)">
<polygon fill="white" stroke="transparent" points="-4,4 -4,-357.23 750.96,-357.23 750.96,4 -4,4"/>
<!-- fin&#45;&#45;emploi -->
<g id="edge1" class="edge">
<title>fin&#45;&#45;emploi</title>
<path fill="none" stroke="darkgrey" stroke-width="1.08" d="M318.47,-231.34C327.73,-213.89 347.25,-177.09 358.55,-155.79"/>
</g>
<!-- fin&#45;&#45;pollution -->
<g id="edge2" class="edge">
<title>fin&#45;&#45;pollution</title>
<path fill="none" stroke="darkgrey" stroke-width="1.9" d="M324.06,-238.17C355.04,-229.83 445.1,-205.6 488.84,-193.83"/>
</g>
<!-- fin&#45;&#45;épuisement de la ressource -->
<g id="edge3" class="edge">
<title>fin&#45;&#45;épuisement de la ressource</title>
<path fill="none" stroke="darkgrey" stroke-width="1.2" d="M323.85,-244.3C341.49,-249.7 376.77,-260.52 394.52,-265.95"/>
</g>
<!-- fin&#45;&#45;impact environnemental -->
<g id="edge4" class="edge">
<title>fin&#45;&#45;impact environnemental</title>
<path fill="none" stroke="darkgrey" stroke-width="2.17" d="M322.44,-234.74C329.87,-229.59 340.8,-222.02 351.22,-214.81"/>
</g>
<!-- emploi&#45;&#45;pollution -->
<g id="edge5" class="edge">
<title>emploi&#45;&#45;pollution</title>
<path fill="none" stroke="darkgrey" stroke-width="4.78" d="M384.46,-145.28C410.54,-153.78 459.95,-169.89 489.4,-179.49"/>
</g>
<!-- emploi&#45;&#45;impact environnemental -->
<g id="edge6" class="edge">
<title>emploi&#45;&#45;impact environnemental</title>
<path fill="none" stroke="darkgrey" stroke-width="4.73" d="M371.59,-157.19C371.75,-157.81 371.91,-158.44 372.07,-159.08"/>
</g>
<!-- emploi&#45;&#45;économie du pays -->
<g id="edge7" class="edge">
<title>emploi&#45;&#45;économie du pays</title>
<path fill="none" stroke="darkgrey" stroke-width="2.91" d="M379.6,-153.38C400.31,-176.19 441.18,-221.2 458.07,-239.8"/>
</g>
<!-- emploi&#45;&#45;amélioration environnementale -->
<g id="edge8" class="edge">
<title>emploi&#45;&#45;amélioration environnementale</title>
<path fill="none" stroke="darkgrey" stroke-width="3.22" d="M383.87,-146.81C399.24,-153.4 421.91,-163.11 437.27,-169.7"/>
</g>
<!-- pollution&#45;&#45;épuisement de la ressource -->
<g id="edge9" class="edge">
<title>pollution&#45;&#45;épuisement de la ressource</title>
<path fill="none" stroke="darkgrey" stroke-width="3.54" d="M493.18,-202.49C469.5,-220.45 431.2,-249.52 414.03,-262.55"/>
</g>
<!-- pollution&#45;&#45;impact environnemental -->
<g id="edge12" class="edge">
<title>pollution&#45;&#45;impact environnemental</title>
<path fill="none" stroke="darkgrey" stroke-width="10" d="M488.06,-188.58C467.97,-189.63 439.58,-191.11 417.08,-192.29"/>
</g>
<!-- pollution&#45;&#45;économie du pays -->
<g id="edge15" class="edge">
<title>pollution&#45;&#45;économie du pays</title>
<path fill="none" stroke="darkgrey" stroke-width="2.73" d="M497.66,-207.2C489.2,-218.02 479.16,-230.85 472.61,-239.23"/>
</g>
<!-- pollution&#45;&#45;amélioration environnementale -->
<g id="edge16" class="edge">
<title>pollution&#45;&#45;amélioration environnementale</title>
<path fill="none" stroke="darkgrey" stroke-width="1.89" d="M488.44,-182.91C482.86,-181.93 477.04,-180.9 471.8,-179.99"/>
</g>
<!-- pollution&#45;&#45;montagne -->
<g id="edge10" class="edge">
<title>pollution&#45;&#45;montagne</title>
<path fill="none" stroke="darkgrey" stroke-width="1.05" d="M538.1,-184.57C581.75,-179.86 668.32,-170.5 676.34,-169.63"/>
</g>
<!-- pollution&#45;&#45;biodiversité -->
<g id="edge11" class="edge">
<title>pollution&#45;&#45;biodiversité</title>
<path fill="none" stroke="darkgrey" stroke-width="1.55" d="M523.61,-164.48C541.27,-125.67 576.05,-49.23 583.95,-31.85"/>
</g>
<!-- pollution&#45;&#45;conflit -->
<g id="edge13" class="edge">
<title>pollution&#45;&#45;conflit</title>
<path fill="none" stroke="darkgrey" stroke-width="1.14" d="M527.67,-207.87C535.66,-219.28 545.02,-232.65 550.3,-240.2"/>
</g>
<!-- pollution&#45;&#45;développement -->
<g id="edge14" class="edge">
<title>pollution&#45;&#45;développement</title>
<path fill="none" stroke="darkgrey" stroke-width="1.94" d="M496.16,-205.73C468.33,-235.82 414.31,-294.21 394.27,-315.88"/>
</g>
<!-- pollution&#45;&#45;déclin -->
<g id="edge17" class="edge">
<title>pollution&#45;&#45;déclin</title>
<path fill="none" stroke="darkgrey" stroke-width="1.06" d="M533.86,-172.78C573.7,-144.8 658.84,-85 675.73,-73.14"/>
</g>
<!-- pollution&#45;&#45;développement durable -->
<g id="edge18" class="edge">
<title>pollution&#45;&#45;développement durable</title>
<path fill="none" stroke="darkgrey" stroke-width="1.18" d="M518.85,-211.87C525.99,-243.18 537.91,-295.47 542.22,-314.35"/>
</g>
<!-- pollution&#45;&#45;innovation -->
<g id="edge19" class="edge">
<title>pollution&#45;&#45;innovation</title>
<path fill="none" stroke="darkgrey" stroke-width="1.5" d="M505.69,-211.41C496.13,-241.98 480.08,-293.3 473.19,-315.33"/>
</g>
<!-- épuisement de la ressource&#45;&#45;impact environnemental -->
<g id="edge20" class="edge">
<title>épuisement de la ressource&#45;&#45;impact environnemental</title>
<path fill="none" stroke="darkgrey" stroke-width="3.98" d="M401.75,-258.48C399.21,-250.61 395.62,-239.48 392.13,-228.68"/>
</g>
<!-- épuisement de la ressource&#45;&#45;économie du pays -->
<g id="edge23" class="edge">
<title>épuisement de la ressource&#45;&#45;économie du pays</title>
<path fill="none" stroke="darkgrey" stroke-width="1.3" d="M415.74,-265.56C426.83,-261.69 444.19,-255.63 455.24,-251.77"/>
</g>
<!-- épuisement de la ressource&#45;&#45;conflit -->
<g id="edge21" class="edge">
<title>épuisement de la ressource&#45;&#45;conflit</title>
<path fill="none" stroke="darkgrey" stroke-width="1.55" d="M416.44,-267.5C445.59,-263 523.15,-251.02 547.24,-247.3"/>
</g>
<!-- épuisement de la ressource&#45;&#45;développement -->
<g id="edge22" class="edge">
<title>épuisement de la ressource&#45;&#45;développement</title>
<path fill="none" stroke="darkgrey" stroke-width="1.38" d="M401.62,-279.84C398.31,-289.57 393.44,-303.93 390.14,-313.66"/>
</g>
<!-- impact environnemental&#45;&#45;économie du pays -->
<g id="edge27" class="edge">
<title>impact environnemental&#45;&#45;économie du pays</title>
<path fill="none" stroke="darkgrey" stroke-width="3.72" d="M411.56,-213.66C427.28,-223.68 445.35,-235.21 456.12,-242.07"/>
</g>
<!-- impact environnemental&#45;&#45;amélioration environnementale -->
<g id="edge28" class="edge">
<title>impact environnemental&#45;&#45;amélioration environnementale</title>
<path fill="none" stroke="darkgrey" stroke-width="2.54" d="M416.2,-185.82C423.19,-184.16 430.25,-182.48 436.34,-181.03"/>
</g>
<!-- impact environnemental&#45;&#45;conflit -->
<g id="edge24" class="edge">
<title>impact environnemental&#45;&#45;conflit</title>
<path fill="none" stroke="darkgrey" stroke-width="3.63" d="M415.69,-204.57C457.81,-217.2 525.93,-237.62 547.62,-244.12"/>
</g>
<!-- impact environnemental&#45;&#45;développement -->
<g id="edge26" class="edge">
<title>impact environnemental&#45;&#45;développement</title>
<path fill="none" stroke="darkgrey" stroke-width="2.97" d="M382.55,-230.4C383.73,-258.21 385.29,-294.83 386.07,-313"/>
</g>
<!-- impact environnemental&#45;&#45;innovation -->
<g id="edge29" class="edge">
<title>impact environnemental&#45;&#45;innovation</title>
<path fill="none" stroke="darkgrey" stroke-width="1.16" d="M401.17,-224.07C421.25,-253.82 450.86,-297.71 463.64,-316.65"/>
</g>
<!-- impact environnemental&#45;&#45;vision positive de la ressource -->
<g id="edge25" class="edge">
<title>impact environnemental&#45;&#45;vision positive de la ressource</title>
<path fill="none" stroke="darkgrey" stroke-width="1.14" d="M377.3,-158.24C373.03,-116.88 366.4,-52.52 364.72,-36.15"/>
</g>
<!-- impact environnemental&#45;&#45;richesse -->
<g id="edge30" class="edge">
<title>impact environnemental&#45;&#45;richesse</title>
<path fill="none" stroke="darkgrey" stroke-width="1.54" d="M359.71,-165C329.45,-123.54 277.11,-51.83 272.27,-45.2"/>
</g>
<!-- impact environnemental&#45;&#45;automatisation -->
<g id="edge31" class="edge">
<title>impact environnemental&#45;&#45;automatisation</title>
<path fill="none" stroke="darkgrey" stroke-width="1.08" d="M347.12,-181.31C311.52,-167.79 258.76,-147.76 244.63,-142.4"/>
</g>
<!-- amélioration environnementale&#45;&#45;développement durable -->
<g id="edge36" class="edge">
<title>amélioration environnementale&#45;&#45;développement durable</title>
<path fill="none" stroke="darkgrey" stroke-width="1.93" d="M463.57,-192.32C483.14,-223.79 526.82,-294.05 539.99,-315.24"/>
</g>
<!-- amélioration environnementale&#45;&#45;innovation -->
<g id="edge37" class="edge">
<title>amélioration environnementale&#45;&#45;innovation</title>
<path fill="none" stroke="darkgrey" stroke-width="1.12" d="M455.88,-194.83C459.2,-225.96 465.94,-289.01 468.69,-314.66"/>
</g>
<!-- amélioration environnementale&#45;&#45;maintien de l’exploitation -->
<g id="edge35" class="edge">
<title>amélioration environnementale&#45;&#45;maintien de l’exploitation</title>
<path fill="none" stroke="darkgrey" stroke-width="1.18" d="M455.38,-158.69C458.27,-121.97 464.65,-40.82 466.11,-22.31"/>
</g>
<!-- conflit&#45;&#45;économie du pays -->
<g id="edge32" class="edge">
<title>conflit&#45;&#45;économie du pays</title>
<path fill="none" stroke="darkgrey" d="M547.22,-246.34C531.72,-246.68 495.34,-247.49 476.85,-247.89"/>
</g>
<!-- développement&#45;&#45;économie du pays -->
<g id="edge33" class="edge">
<title>développement&#45;&#45;économie du pays</title>
<path fill="none" stroke="darkgrey" stroke-width="1.58" d="M394.71,-316.37C409.87,-301.79 442.19,-270.7 457.4,-256.07"/>
</g>
<!-- développement&#45;&#45;amélioration environnementale -->
<g id="edge34" class="edge">
<title>développement&#45;&#45;amélioration environnementale</title>
<path fill="none" stroke="darkgrey" stroke-width="1.44" d="M391.18,-314.1C402.6,-289.13 432.2,-224.41 446.29,-193.61"/>
</g>
<!-- développement durable&#45;&#45;innovation -->
<g id="edge38" class="edge">
<title>développement durable&#45;&#45;innovation</title>
<path fill="none" stroke="darkgrey" stroke-width="1.04" d="M536.74,-321.84C523.8,-322.63 496.27,-324.3 480.88,-325.24"/>
</g>
<!-- fin -->
<g id="node1" class="node">
<title>fin</title>
<ellipse fill="#71196e" stroke="white" stroke-width="0" cx="313.31" cy="-241.07" rx="11" ry="11"/>
<text text-anchor="middle" x="291.31" y="-256.63" font-family="Helvetica,sans-Serif" font-size="16.80" fill="#4d4d4d">fin</text>
</g>
<!-- emploi -->
<g id="node2" class="node">
<title>emploi</title>
<ellipse fill="#b1325a" stroke="white" stroke-width="0" cx="367.12" cy="-139.63" rx="18" ry="18"/>
<text text-anchor="middle" x="315.62" y="-127.63" font-family="Helvetica,sans-Serif" font-size="20.00" fill="#4d4d4d">emploi</text>
</g>
<!-- pollution -->
<g id="node3" class="node">
<title>pollution</title>
<ellipse fill="#eb6628" stroke="white" stroke-width="0" cx="513.24" cy="-187.26" rx="25" ry="25"/>
<text text-anchor="middle" x="539.74" y="-219.7" font-family="Helvetica,sans-Serif" font-size="23.20" fill="#4d4d4d">pollution</text>
</g>
<!-- épuisement de la ressource -->
<g id="node4" class="node">
<title>épuisement de la ressource</title>
<ellipse fill="#5d126e" stroke="white" stroke-width="0" cx="405.22" cy="-269.23" rx="11" ry="11"/>
<text text-anchor="middle" x="276.72" y="-284.79" font-family="Helvetica,sans-Serif" font-size="16.80" fill="#4d4d4d">épuisement de la ressource</text>
</g>
<!-- impact environnemental -->
<g id="node5" class="node">
<title>impact environnemental</title>
<ellipse fill="#fcffa4" stroke="white" stroke-width="0" cx="381" cy="-194.17" rx="36" ry="36"/>
<text text-anchor="middle" x="172.5" y="-166.77" font-family="Helvetica,sans-Serif" font-size="28.00" fill="#4d4d4d">impact environnemental</text>
</g>
<!-- économie du pays -->
<g id="node6" class="node">
<title>économie du pays</title>
<ellipse fill="#59106e" stroke="white" stroke-width="0" cx="465.64" cy="-248.14" rx="11" ry="11"/>
<text text-anchor="middle" x="531.64" y="-263.7" font-family="Helvetica,sans-Serif" font-size="16.80" fill="#4d4d4d">économie du pays</text>
</g>
<!-- amélioration environnementale -->
<g id="node7" class="node">
<title>amélioration environnementale</title>
<ellipse fill="#ae305c" stroke="white" stroke-width="0" cx="453.96" cy="-176.85" rx="18" ry="18"/>
<text text-anchor="middle" x="591.46" y="-142.85" font-family="Helvetica,sans-Serif" font-size="20.00" fill="#4d4d4d">amélioration environnementale</text>
</g>
<!-- montagne -->
<g id="node8" class="node">
<title>montagne</title>
<ellipse fill="#010106" stroke="white" stroke-width="0" cx="676.94" cy="-169.57" rx="0.5" ry="0.5"/>
<text text-anchor="middle" x="645.44" y="-173.47" font-family="Helvetica,sans-Serif" font-size="12.00" fill="#4d4d4d">montagne</text>
</g>
<!-- biodiversité -->
<g id="node9" class="node">
<title>biodiversité</title>
<ellipse fill="#0e092b" stroke="white" stroke-width="0" cx="585.58" cy="-28.28" rx="3.5" ry="3.5"/>
<text text-anchor="middle" x="542.08" y="-35.9" font-family="Helvetica,sans-Serif" font-size="13.60" fill="#4d4d4d">biodiversité</text>
</g>
<!-- conflit -->
<g id="node10" class="node">
<title>conflit</title>
<ellipse fill="#420a68" stroke="white" stroke-width="0" cx="554.49" cy="-246.18" rx="7" ry="7"/>
<text text-anchor="middle" x="523.49" y="-244.02" font-family="Helvetica,sans-Serif" font-size="15.20" fill="#4d4d4d">conflit</text>
</g>
<!-- développement -->
<g id="node11" class="node">
<title>développement</title>
<ellipse fill="#550f6d" stroke="white" stroke-width="0" cx="386.55" cy="-324.23" rx="11" ry="11"/>
<text text-anchor="middle" x="309.05" y="-339.79" font-family="Helvetica,sans-Serif" font-size="16.80" fill="#4d4d4d">développement</text>
</g>
<!-- déclin -->
<g id="node12" class="node">
<title>déclin</title>
<ellipse fill="#0e092b" stroke="white" stroke-width="0" cx="678.67" cy="-71.07" rx="3.5" ry="3.5"/>
<text text-anchor="middle" x="654.67" y="-78.69" font-family="Helvetica,sans-Serif" font-size="13.60" fill="#4d4d4d">déclin</text>
</g>
<!-- développement durable -->
<g id="node13" class="node">
<title>développement durable</title>
<ellipse fill="#490b6a" stroke="white" stroke-width="0" cx="543.83" cy="-321.41" rx="7" ry="7"/>
<text text-anchor="middle" x="627.33" y="-333.25" font-family="Helvetica,sans-Serif" font-size="15.20" fill="#4d4d4d">développement durable</text>
</g>
<!-- innovation -->
<g id="node14" class="node">
<title>innovation</title>
<ellipse fill="#65156e" stroke="white" stroke-width="0" cx="469.89" cy="-325.91" rx="11" ry="11"/>
<text text-anchor="middle" x="503.39" y="-301.47" font-family="Helvetica,sans-Serif" font-size="16.80" fill="#4d4d4d">innovation</text>
</g>
<!-- vision positive de la ressource -->
<g id="node15" class="node">
<title>vision positive de la ressource</title>
<ellipse fill="#1b0c41" stroke="white" stroke-width="0" cx="364.32" cy="-32.27" rx="3.5" ry="3.5"/>
<text text-anchor="middle" x="258.32" y="-32.89" font-family="Helvetica,sans-Serif" font-size="13.60" fill="#4d4d4d">vision positive de la ressource</text>
</g>
<!-- richesse -->
<g id="node16" class="node">
<title>richesse</title>
<ellipse fill="#000004" stroke="white" stroke-width="0" cx="271.91" cy="-44.7" rx="0.5" ry="0.5"/>
<text text-anchor="middle" x="246.41" y="-48.6" font-family="Helvetica,sans-Serif" font-size="12.00" fill="#4d4d4d">richesse</text>
</g>
<!-- automatisation -->
<g id="node17" class="node">
<title>automatisation</title>
<ellipse fill="#0c0826" stroke="white" stroke-width="0" cx="241.04" cy="-141.03" rx="3.5" ry="3.5"/>
<text text-anchor="middle" x="186.54" y="-141.65" font-family="Helvetica,sans-Serif" font-size="13.60" fill="#4d4d4d">automatisation</text>
</g>
<!-- maintien de l’exploitation -->
<g id="node18" class="node">
<title>maintien de l’exploitation</title>
<ellipse fill="#040314" stroke="white" stroke-width="0" cx="466.41" cy="-18.5" rx="3.5" ry="3.5"/>
<text text-anchor="middle" x="375.41" y="-4.12" font-family="Helvetica,sans-Serif" font-size="13.60" fill="#4d4d4d">maintien de l’exploitation</text>
</g>
</g>
</svg>
