<?xml version="1.0" encoding="UTF-8" standalone="no"?>
<!DOCTYPE svg PUBLIC "-//W3C//DTD SVG 1.1//EN"
 "http://www.w3.org/Graphics/SVG/1.1/DTD/svg11.dtd">
<!-- Generated by graphviz version 2.43.0 (0)
 -->
<!-- Pages: 1 -->
<svg width="421pt" height="230pt"
 viewBox="0.00 0.00 421.28 229.85" xmlns="http://www.w3.org/2000/svg" xmlns:xlink="http://www.w3.org/1999/xlink">
<g id="graph0" class="graph" transform="scale(1 1) rotate(0) translate(4 225.85)">
<polygon fill="white" stroke="transparent" points="-4,4 -4,-225.85 417.28,-225.85 417.28,4 -4,4"/>
<!-- pollution&#45;&#45;épuisement -->
<g id="edge1" class="edge">
<title>pollution&#45;&#45;épuisement</title>
<path fill="none" stroke="darkgrey" stroke-width="4.51" d="M298.85,-113.3C336.21,-109.23 391.29,-103.22 406.04,-101.61"/>
</g>
<!-- pollution&#45;&#45;environnement -->
<g id="edge2" class="edge">
<title>pollution&#45;&#45;environnement</title>
<path fill="none" stroke="darkgrey" stroke-width="4.05" d="M227.08,-120.96C200.92,-123.7 167.15,-127.22 150.02,-129.01"/>
</g>
<!-- pollution&#45;&#45;ressource -->
<g id="edge3" class="edge">
<title>pollution&#45;&#45;ressource</title>
<path fill="none" stroke="darkgrey" stroke-width="2.18" d="M237.43,-143.17C220.08,-160.85 198.56,-182.77 188.88,-192.62"/>
</g>
<!-- pollution&#45;&#45;destruction -->
<g id="edge4" class="edge">
<title>pollution&#45;&#45;destruction</title>
<path fill="none" stroke="darkgrey" stroke-width="7.21" d="M292.61,-137.84C314.1,-152.76 340.93,-171.39 350.24,-177.85"/>
</g>
<!-- pollution&#45;&#45;économie -->
<g id="edge5" class="edge">
<title>pollution&#45;&#45;économie</title>
<path fill="none" stroke="darkgrey" stroke-width="10" d="M233,-96.62C212.28,-82.35 185.78,-64.1 170.63,-53.67"/>
</g>
<!-- pollution&#45;&#45;emploi -->
<g id="edge6" class="edge">
<title>pollution&#45;&#45;emploi</title>
<path fill="none" stroke="darkgrey" stroke-width="9.48" d="M253.28,-82.35C249.07,-67.13 244.44,-50.38 241.51,-39.78"/>
</g>
<!-- pollution&#45;&#45;richesse -->
<g id="edge7" class="edge">
<title>pollution&#45;&#45;richesse</title>
<path fill="none" stroke="darkgrey" stroke-width="1.19" d="M289.71,-92.45C308.25,-75.32 330.28,-54.96 334.24,-51.29"/>
</g>
<!-- environnement&#45;&#45;ressource -->
<g id="edge8" class="edge">
<title>environnement&#45;&#45;ressource</title>
<path fill="none" stroke="darkgrey" stroke-width="1.5" d="M145.22,-139.58C154.54,-153.67 171.86,-179.87 179.7,-191.73"/>
</g>
<!-- environnement&#45;&#45;économie -->
<g id="edge9" class="edge">
<title>environnement&#45;&#45;économie</title>
<path fill="none" stroke="darkgrey" d="M141.47,-119.42C144.96,-104.26 151.34,-76.57 155.23,-59.67"/>
</g>
<!-- économie&#45;&#45;emploi -->
<g id="edge10" class="edge">
<title>économie&#45;&#45;emploi</title>
<path fill="none" stroke="darkgrey" stroke-width="1.09" d="M172.83,-42.42C188.47,-39.22 213.2,-34.17 227.44,-31.26"/>
</g>
<!-- pollution -->
<g id="node1" class="node">
<title>pollution</title>
<ellipse fill="#fcffa4" stroke="white" stroke-width="0" cx="262.92" cy="-117.22" rx="36" ry="36"/>
<text text-anchor="middle" x="165.42" y="-161.82" font-family="Helvetica,sans-Serif" font-size="28.00" fill="#4d4d4d">pollution</text>
</g>
<!-- épuisement -->
<g id="node2" class="node">
<title>épuisement</title>
<ellipse fill="#10092d" stroke="white" stroke-width="0" cx="409.78" cy="-101.2" rx="3.5" ry="3.5"/>
<text text-anchor="middle" x="366.28" y="-108.82" font-family="Helvetica,sans-Serif" font-size="13.60" fill="#4d4d4d">épuisement</text>
</g>
<!-- environnement -->
<g id="node3" class="node">
<title>environnement</title>
<ellipse fill="#5a116e" stroke="white" stroke-width="0" cx="139" cy="-130.16" rx="11" ry="11"/>
<text text-anchor="middle" x="64" y="-123.72" font-family="Helvetica,sans-Serif" font-size="16.80" fill="#4d4d4d">environnement</text>
</g>
<!-- ressource -->
<g id="node4" class="node">
<title>ressource</title>
<ellipse fill="#440a68" stroke="white" stroke-width="0" cx="183.75" cy="-197.85" rx="7" ry="7"/>
<text text-anchor="middle" x="139.75" y="-209.69" font-family="Helvetica,sans-Serif" font-size="15.20" fill="#4d4d4d">ressource</text>
</g>
<!-- destruction -->
<g id="node5" class="node">
<title>destruction</title>
<ellipse fill="#09061f" stroke="white" stroke-width="0" cx="353.6" cy="-180.19" rx="3.5" ry="3.5"/>
<text text-anchor="middle" x="312.1" y="-187.81" font-family="Helvetica,sans-Serif" font-size="13.60" fill="#4d4d4d">destruction</text>
</g>
<!-- économie -->
<g id="node6" class="node">
<title>économie</title>
<ellipse fill="#7c1d6d" stroke="white" stroke-width="0" cx="158.53" cy="-45.34" rx="14.5" ry="14.5"/>
<text text-anchor="middle" x="98.53" y="-65.12" font-family="Helvetica,sans-Serif" font-size="18.40" fill="#4d4d4d">économie</text>
</g>
<!-- emploi -->
<g id="node7" class="node">
<title>emploi</title>
<ellipse fill="#64156e" stroke="white" stroke-width="0" cx="238.53" cy="-29" rx="11" ry="11"/>
<text text-anchor="middle" x="198.53" y="-4.56" font-family="Helvetica,sans-Serif" font-size="16.80" fill="#4d4d4d">emploi</text>
</g>
<!-- richesse -->
<g id="node8" class="node">
<title>richesse</title>
<ellipse fill="#000004" stroke="white" stroke-width="0" cx="334.87" cy="-50.71" rx="0.5" ry="0.5"/>
<text text-anchor="middle" x="309.37" y="-54.61" font-family="Helvetica,sans-Serif" font-size="12.00" fill="#4d4d4d">richesse</text>
</g>
</g>
</svg>
