<?xml version="1.0" encoding="UTF-8" standalone="no"?>
<!DOCTYPE svg PUBLIC "-//W3C//DTD SVG 1.1//EN"
 "http://www.w3.org/Graphics/SVG/1.1/DTD/svg11.dtd">
<!-- Generated by graphviz version 2.43.0 (0)
 -->
<!-- Pages: 1 -->
<svg width="599pt" height="531pt"
 viewBox="0.00 0.00 598.81 531.42" xmlns="http://www.w3.org/2000/svg" xmlns:xlink="http://www.w3.org/1999/xlink">
<g id="graph0" class="graph" transform="scale(1 1) rotate(0) translate(4 527.42)">
<polygon fill="white" stroke="transparent" points="-4,4 -4,-527.42 594.81,-527.42 594.81,4 -4,4"/>
<!-- pollution&#45;&#45;travail -->
<g id="edge1" class="edge">
<title>pollution&#45;&#45;travail</title>
<path fill="none" stroke="darkgrey" stroke-width="6.82" d="M320.87,-244.4C301.19,-241.42 277.01,-237.75 261.9,-235.47"/>
</g>
<!-- pollution&#45;&#45;richesse -->
<g id="edge2" class="edge">
<title>pollution&#45;&#45;richesse</title>
<path fill="none" stroke="darkgrey" stroke-width="2.35" d="M321.12,-255.79C265.22,-267.12 152.48,-289.97 116.99,-297.16"/>
</g>
<!-- pollution&#45;&#45;destruction -->
<g id="edge3" class="edge">
<title>pollution&#45;&#45;destruction</title>
<path fill="none" stroke="darkgrey" stroke-width="5.31" d="M372.56,-222.66C401.94,-182.31 455.95,-108.13 471.33,-86.99"/>
</g>
<!-- pollution&#45;&#45;argent -->
<g id="edge4" class="edge">
<title>pollution&#45;&#45;argent</title>
<path fill="none" stroke="darkgrey" stroke-width="2.54" d="M334.64,-222.25C320,-200.9 300.72,-172.78 292.49,-160.78"/>
</g>
<!-- pollution&#45;&#45;nickel -->
<g id="edge5" class="edge">
<title>pollution&#45;&#45;nickel</title>
<path fill="none" stroke="darkgrey" stroke-width="8.26" d="M320.49,-250.58C292.63,-251.67 252.62,-253.25 223.82,-254.38"/>
</g>
<!-- pollution&#45;&#45;camion -->
<g id="edge6" class="edge">
<title>pollution&#45;&#45;camion</title>
<path fill="none" stroke="darkgrey" stroke-width="2.78" d="M347.88,-217.06C341.13,-175.95 329.81,-106.96 325.41,-80.15"/>
</g>
<!-- pollution&#45;&#45;économie -->
<g id="edge7" class="edge">
<title>pollution&#45;&#45;économie</title>
<path fill="none" stroke="darkgrey" stroke-width="8.13" d="M320.68,-244.41C274.31,-237.45 190.44,-224.85 151.12,-218.95"/>
</g>
<!-- pollution&#45;&#45;environnement -->
<g id="edge8" class="edge">
<title>pollution&#45;&#45;environnement</title>
<path fill="none" stroke="darkgrey" stroke-width="6.64" d="M324.96,-266.12C285.82,-289.47 216.4,-330.88 185.53,-349.29"/>
</g>
<!-- pollution&#45;&#45;emploi -->
<g id="edge9" class="edge">
<title>pollution&#45;&#45;emploi</title>
<path fill="none" stroke="darkgrey" stroke-width="10" d="M326.57,-268.26C305.99,-282.94 278.26,-302.72 261.46,-314.69"/>
</g>
<!-- pollution&#45;&#45;terre -->
<g id="edge10" class="edge">
<title>pollution&#45;&#45;terre</title>
<path fill="none" stroke="darkgrey" stroke-width="1.03" d="M385.95,-248.36C417.4,-247.47 462.6,-246.18 479.97,-245.69"/>
</g>
<!-- pollution&#45;&#45;exploitation -->
<g id="edge11" class="edge">
<title>pollution&#45;&#45;exploitation</title>
<path fill="none" stroke="darkgrey" d="M362.36,-280.76C377.42,-332.33 406.48,-431.84 414.36,-458.8"/>
</g>
<!-- pollution&#45;&#45;conflit -->
<g id="edge12" class="edge">
<title>pollution&#45;&#45;conflit</title>
<path fill="none" stroke="darkgrey" stroke-width="1.07" d="M354.09,-281.88C354.87,-309.74 355.94,-347.75 356.39,-363.55"/>
</g>
<!-- pollution&#45;&#45;développement -->
<g id="edge13" class="edge">
<title>pollution&#45;&#45;développement</title>
<path fill="none" stroke="darkgrey" stroke-width="2.33" d="M385.37,-255.96C441.25,-267.54 551.21,-290.34 561.4,-292.45"/>
</g>
<!-- pollution&#45;&#45;déforestation -->
<g id="edge14" class="edge">
<title>pollution&#45;&#45;déforestation</title>
<path fill="none" stroke="darkgrey" stroke-width="2.44" d="M383.3,-236.52C440.86,-212.13 562.64,-160.52 584.06,-151.45"/>
</g>
<!-- travail&#45;&#45;richesse -->
<g id="edge15" class="edge">
<title>travail&#45;&#45;richesse</title>
<path fill="none" stroke="darkgrey" stroke-width="1.96" d="M234.12,-239.49C206.08,-252.61 141.39,-282.85 116.27,-294.59"/>
</g>
<!-- travail&#45;&#45;nickel -->
<g id="edge16" class="edge">
<title>travail&#45;&#45;nickel</title>
<path fill="none" stroke="darkgrey" stroke-width="3" d="M233.59,-238.5C230.01,-239.85 225.99,-241.37 221.86,-242.93"/>
</g>
<!-- travail&#45;&#45;économie -->
<g id="edge17" class="edge">
<title>travail&#45;&#45;économie</title>
<path fill="none" stroke="darkgrey" stroke-width="3.1" d="M232.99,-231.12C212.48,-228.07 174.77,-222.45 151.02,-218.91"/>
</g>
<!-- travail&#45;&#45;environnement -->
<g id="edge18" class="edge">
<title>travail&#45;&#45;environnement</title>
<path fill="none" stroke="darkgrey" stroke-width="2.88" d="M239.72,-245.74C225.49,-268.77 195.13,-317.89 179.6,-343.03"/>
</g>
<!-- richesse&#45;&#45;nickel -->
<g id="edge19" class="edge">
<title>richesse&#45;&#45;nickel</title>
<path fill="none" stroke="darkgrey" stroke-width="2.09" d="M116.06,-294.04C125.94,-288.76 141.59,-280.42 155.75,-272.87"/>
</g>
<!-- richesse&#45;&#45;économie -->
<g id="edge20" class="edge">
<title>richesse&#45;&#45;économie</title>
<path fill="none" stroke="darkgrey" stroke-width="1.74" d="M109.03,-288.78C112.73,-275.68 119.12,-253.08 123.82,-236.48"/>
</g>
<!-- richesse&#45;&#45;emploi -->
<g id="edge21" class="edge">
<title>richesse&#45;&#45;emploi</title>
<path fill="none" stroke="darkgrey" stroke-width="1.39" d="M117.07,-301.41C141.29,-305.86 199.27,-316.53 228.77,-321.96"/>
</g>
<!-- argent&#45;&#45;nickel -->
<g id="edge22" class="edge">
<title>argent&#45;&#45;nickel</title>
<path fill="none" stroke="darkgrey" stroke-width="3.87" d="M283.35,-160.07C270.68,-172.76 237.24,-206.25 213.49,-230.04"/>
</g>
<!-- argent&#45;&#45;emploi -->
<g id="edge23" class="edge">
<title>argent&#45;&#45;emploi</title>
<path fill="none" stroke="darkgrey" stroke-width="2.34" d="M286.79,-161.82C280.74,-186.46 260.05,-270.75 250.98,-307.68"/>
</g>
<!-- nickel&#45;&#45;camion -->
<g id="edge25" class="edge">
<title>nickel&#45;&#45;camion</title>
<path fill="none" stroke="darkgrey" stroke-width="4.52" d="M208.98,-226.62C240.32,-183.53 297.36,-105.09 316.85,-78.29"/>
</g>
<!-- nickel&#45;&#45;économie -->
<g id="edge26" class="edge">
<title>nickel&#45;&#45;économie</title>
<path fill="none" stroke="darkgrey" stroke-width="4.87" d="M158.04,-235.3C154.47,-232.83 150.91,-230.38 147.58,-228.08"/>
</g>
<!-- nickel&#45;&#45;environnement -->
<g id="edge27" class="edge">
<title>nickel&#45;&#45;environnement</title>
<path fill="none" stroke="darkgrey" stroke-width="2.15" d="M181.6,-291.45C178.73,-308.03 175.45,-327.03 173.11,-340.57"/>
</g>
<!-- nickel&#45;&#45;emploi -->
<g id="edge29" class="edge">
<title>nickel&#45;&#45;emploi</title>
<path fill="none" stroke="darkgrey" stroke-width="4.94" d="M211.38,-283.65C219.45,-293.16 228.12,-303.38 234.85,-311.32"/>
</g>
<!-- nickel&#45;&#45;montagne -->
<g id="edge24" class="edge">
<title>nickel&#45;&#45;montagne</title>
<path fill="none" stroke="darkgrey" stroke-width="2.28" d="M174.83,-222.13C158.72,-180.16 132.3,-111.33 124.06,-89.87"/>
</g>
<!-- nickel&#45;&#45;terre rouge -->
<g id="edge28" class="edge">
<title>nickel&#45;&#45;terre rouge</title>
<path fill="none" stroke="darkgrey" stroke-width="1.67" d="M186.84,-219.77C185.12,-152.14 181.56,-12.01 181.28,-1.17"/>
</g>
<!-- nickel&#45;&#45;usine -->
<g id="edge30" class="edge">
<title>nickel&#45;&#45;usine</title>
<path fill="none" stroke="darkgrey" stroke-width="4.6" d="M174.77,-289.38C154.12,-342.77 115.06,-443.72 104.77,-470.32"/>
</g>
<!-- nickel&#45;&#45;sln -->
<g id="edge31" class="edge">
<title>nickel&#45;&#45;sln</title>
<path fill="none" stroke="darkgrey" stroke-width="6.32" d="M163.24,-229.28C126.33,-189.36 58.81,-116.33 40.06,-96.06"/>
</g>
<!-- nickel&#45;&#45;ressource -->
<g id="edge32" class="edge">
<title>nickel&#45;&#45;ressource</title>
<path fill="none" stroke="darkgrey" stroke-width="1.02" d="M204.04,-288.31C232.39,-344.94 289.18,-458.37 303.35,-486.67"/>
</g>
<!-- nickel&#45;&#45;minerai -->
<g id="edge33" class="edge">
<title>nickel&#45;&#45;minerai</title>
<path fill="none" stroke="darkgrey" stroke-width="3.59" d="M192.23,-291.75C199.5,-350.25 213.46,-462.52 217.14,-492.12"/>
</g>
<!-- économie&#45;&#45;environnement -->
<g id="edge34" class="edge">
<title>économie&#45;&#45;environnement</title>
<path fill="none" stroke="darkgrey" stroke-width="8.89" d="M135.55,-236.5C143.5,-264.66 157.56,-314.47 165.02,-340.92"/>
</g>
<!-- économie&#45;&#45;emploi -->
<g id="edge35" class="edge">
<title>économie&#45;&#45;emploi</title>
<path fill="none" stroke="darkgrey" stroke-width="8.32" d="M145.46,-230.5C168.66,-252.22 211.57,-292.39 233.31,-312.74"/>
</g>
<!-- environnement&#45;&#45;emploi -->
<g id="edge36" class="edge">
<title>environnement&#45;&#45;emploi</title>
<path fill="none" stroke="darkgrey" stroke-width="3.09" d="M186.64,-351.33C199.49,-345.74 217.21,-338.04 230.06,-332.46"/>
</g>
<!-- emploi&#45;&#45;conflit -->
<g id="edge37" class="edge">
<title>emploi&#45;&#45;conflit</title>
<path fill="none" stroke="darkgrey" stroke-width="1.56" d="M263.36,-332.18C287.87,-342.36 332.52,-360.9 349.65,-368.01"/>
</g>
<!-- exploitation&#45;&#45;ressource -->
<g id="edge39" class="edge">
<title>exploitation&#45;&#45;ressource</title>
<path fill="none" stroke="darkgrey" stroke-width="2.32" d="M409.5,-467.41C389.79,-472.34 333.18,-486.53 313.47,-491.46"/>
</g>
<!-- exploitation&#45;&#45;minerai -->
<g id="edge40" class="edge">
<title>exploitation&#45;&#45;minerai</title>
<path fill="none" stroke="darkgrey" stroke-width="2.1" d="M409.31,-466.89C378.53,-472.12 256.24,-492.93 225.23,-498.2"/>
</g>
<!-- usine&#45;&#45;minerai -->
<g id="edge38" class="edge">
<title>usine&#45;&#45;minerai</title>
<path fill="none" stroke="darkgrey" stroke-width="2.55" d="M109.13,-478.23C129.68,-482.23 190.35,-494.03 211.04,-498.06"/>
</g>
<!-- ressource&#45;&#45;minerai -->
<g id="edge41" class="edge">
<title>ressource&#45;&#45;minerai</title>
<path fill="none" stroke="darkgrey" stroke-width="1.8" d="M299.36,-493.69C282.67,-494.87 241.69,-497.76 225.15,-498.92"/>
</g>
<!-- pollution -->
<g id="node1" class="node">
<title>pollution</title>
<ellipse fill="#fbbe23" stroke="white" stroke-width="0" cx="353.18" cy="-249.29" rx="32.5" ry="32.5"/>
<text text-anchor="middle" x="262.68" y="-195.67" font-family="Helvetica,sans-Serif" font-size="26.40" fill="#4d4d4d">pollution</text>
</g>
<!-- travail -->
<g id="node2" class="node">
<title>travail</title>
<ellipse fill="#972766" stroke="white" stroke-width="0" cx="247.43" cy="-233.27" rx="14.5" ry="14.5"/>
<text text-anchor="middle" x="262.93" y="-253.05" font-family="Helvetica,sans-Serif" font-size="18.40" fill="#4d4d4d">travail</text>
</g>
<!-- richesse -->
<g id="node3" class="node">
<title>richesse</title>
<ellipse fill="#5f136e" stroke="white" stroke-width="0" cx="106.03" cy="-299.38" rx="11" ry="11"/>
<text text-anchor="middle" x="60.03" y="-314.94" font-family="Helvetica,sans-Serif" font-size="16.80" fill="#4d4d4d">richesse</text>
</g>
<!-- destruction -->
<g id="node4" class="node">
<title>destruction</title>
<ellipse fill="#2b0b57" stroke="white" stroke-width="0" cx="475.52" cy="-81.24" rx="7" ry="7"/>
<text text-anchor="middle" x="425.02" y="-93.08" font-family="Helvetica,sans-Serif" font-size="15.20" fill="#4d4d4d">destruction</text>
</g>
<!-- argent -->
<g id="node5" class="node">
<title>argent</title>
<ellipse fill="#450a69" stroke="white" stroke-width="0" cx="288.48" cy="-154.93" rx="7" ry="7"/>
<text text-anchor="middle" x="256.48" y="-166.77" font-family="Helvetica,sans-Serif" font-size="15.20" fill="#4d4d4d">argent</text>
</g>
<!-- nickel -->
<g id="node6" class="node">
<title>nickel</title>
<ellipse fill="#fcffa4" stroke="white" stroke-width="0" cx="187.76" cy="-255.8" rx="36" ry="36"/>
<text text-anchor="middle" x="192.76" y="-300.4" font-family="Helvetica,sans-Serif" font-size="28.00" fill="#4d4d4d">nickel</text>
</g>
<!-- camion -->
<g id="node7" class="node">
<title>camion</title>
<ellipse fill="#65156e" stroke="white" stroke-width="0" cx="323.58" cy="-69.03" rx="11" ry="11"/>
<text text-anchor="middle" x="281.58" y="-84.59" font-family="Helvetica,sans-Serif" font-size="16.80" fill="#4d4d4d">camion</text>
</g>
<!-- économie -->
<g id="node8" class="node">
<title>économie</title>
<ellipse fill="#d04545" stroke="white" stroke-width="0" cx="129.69" cy="-215.73" rx="21.5" ry="21.5"/>
<text text-anchor="middle" x="54.69" y="-243.95" font-family="Helvetica,sans-Serif" font-size="21.60" fill="#4d4d4d">économie</text>
</g>
<!-- environnement -->
<g id="node9" class="node">
<title>environnement</title>
<ellipse fill="#a92e5e" stroke="white" stroke-width="0" cx="170" cy="-358.56" rx="18" ry="18"/>
<text text-anchor="middle" x="76" y="-382.56" font-family="Helvetica,sans-Serif" font-size="20.00" fill="#4d4d4d">environnement</text>
</g>
<!-- emploi -->
<g id="node10" class="node">
<title>emploi</title>
<ellipse fill="#ad305d" stroke="white" stroke-width="0" cx="246.67" cy="-325.25" rx="18" ry="18"/>
<text text-anchor="middle" x="262.17" y="-349.25" font-family="Helvetica,sans-Serif" font-size="20.00" fill="#4d4d4d">emploi</text>
</g>
<!-- terre -->
<g id="node11" class="node">
<title>terre</title>
<ellipse fill="#2b0b57" stroke="white" stroke-width="0" cx="487.15" cy="-245.49" rx="7" ry="7"/>
<text text-anchor="middle" x="461.65" y="-257.33" font-family="Helvetica,sans-Serif" font-size="15.20" fill="#4d4d4d">terre</text>
</g>
<!-- exploitation -->
<g id="node12" class="node">
<title>exploitation</title>
<ellipse fill="#4f0d6c" stroke="white" stroke-width="0" cx="416.36" cy="-465.69" rx="7" ry="7"/>
<text text-anchor="middle" x="363.86" y="-477.53" font-family="Helvetica,sans-Serif" font-size="15.20" fill="#4d4d4d">exploitation</text>
</g>
<!-- conflit -->
<g id="node13" class="node">
<title>conflit</title>
<ellipse fill="#2b0b57" stroke="white" stroke-width="0" cx="356.59" cy="-370.9" rx="7" ry="7"/>
<text text-anchor="middle" x="325.59" y="-382.74" font-family="Helvetica,sans-Serif" font-size="15.20" fill="#4d4d4d">conflit</text>
</g>
<!-- développement -->
<g id="node14" class="node">
<title>développement</title>
<ellipse fill="#010108" stroke="white" stroke-width="0" cx="562.16" cy="-292.6" rx="0.5" ry="0.5"/>
<text text-anchor="middle" x="514.66" y="-296.5" font-family="Helvetica,sans-Serif" font-size="12.00" fill="#4d4d4d">développement</text>
</g>
<!-- déforestation -->
<g id="node15" class="node">
<title>déforestation</title>
<ellipse fill="#08051d" stroke="white" stroke-width="0" cx="587.31" cy="-150.07" rx="3.5" ry="3.5"/>
<text text-anchor="middle" x="538.81" y="-157.69" font-family="Helvetica,sans-Serif" font-size="13.60" fill="#4d4d4d">déforestation</text>
</g>
<!-- montagne -->
<g id="node16" class="node">
<title>montagne</title>
<ellipse fill="#340a5f" stroke="white" stroke-width="0" cx="121.53" cy="-83.28" rx="7" ry="7"/>
<text text-anchor="middle" x="75.53" y="-64.12" font-family="Helvetica,sans-Serif" font-size="15.20" fill="#4d4d4d">montagne</text>
</g>
<!-- terre rouge -->
<g id="node17" class="node">
<title>terre rouge</title>
<ellipse fill="#000004" stroke="white" stroke-width="0" cx="181.27" cy="-0.5" rx="0.5" ry="0.5"/>
<text text-anchor="middle" x="147.27" y="-4.4" font-family="Helvetica,sans-Serif" font-size="12.00" fill="#4d4d4d">terre rouge</text>
</g>
<!-- usine -->
<g id="node18" class="node">
<title>usine</title>
<ellipse fill="#4a0c6b" stroke="white" stroke-width="0" cx="102.23" cy="-476.88" rx="7" ry="7"/>
<text text-anchor="middle" x="74.23" y="-488.72" font-family="Helvetica,sans-Serif" font-size="15.20" fill="#4d4d4d">usine</text>
</g>
<!-- sln -->
<g id="node19" class="node">
<title>sln</title>
<ellipse fill="#340a5f" stroke="white" stroke-width="0" cx="35.12" cy="-90.71" rx="7" ry="7"/>
<text text-anchor="middle" x="16.62" y="-102.55" font-family="Helvetica,sans-Serif" font-size="15.20" fill="#4d4d4d">sln</text>
</g>
<!-- ressource -->
<g id="node20" class="node">
<title>ressource</title>
<ellipse fill="#3d0965" stroke="white" stroke-width="0" cx="306.61" cy="-493.18" rx="7" ry="7"/>
<text text-anchor="middle" x="262.61" y="-505.02" font-family="Helvetica,sans-Serif" font-size="15.20" fill="#4d4d4d">ressource</text>
</g>
<!-- minerai -->
<g id="node21" class="node">
<title>minerai</title>
<ellipse fill="#4a0c6b" stroke="white" stroke-width="0" cx="218.05" cy="-499.42" rx="7" ry="7"/>
<text text-anchor="middle" x="182.05" y="-511.26" font-family="Helvetica,sans-Serif" font-size="15.20" fill="#4d4d4d">minerai</text>
</g>
</g>
</svg>
