<?xml version="1.0" encoding="UTF-8" standalone="no"?>
<!DOCTYPE svg PUBLIC "-//W3C//DTD SVG 1.1//EN"
 "http://www.w3.org/Graphics/SVG/1.1/DTD/svg11.dtd">
<!-- Generated by graphviz version 2.43.0 (0)
 -->
<!-- Pages: 1 -->
<svg width="1019pt" height="684pt"
 viewBox="0.00 0.00 1019.24 684.07" xmlns="http://www.w3.org/2000/svg" xmlns:xlink="http://www.w3.org/1999/xlink">
<g id="graph0" class="graph" transform="scale(1 1) rotate(0) translate(4 680.07)">
<polygon fill="white" stroke="transparent" points="-4,4 -4,-680.07 1015.24,-680.07 1015.24,4 -4,4"/>
<!-- avenir sans nickel&#45;&#45;travail -->
<g id="edge1" class="edge">
<title>avenir sans nickel&#45;&#45;travail</title>
<path fill="none" stroke="darkgrey" stroke-width="2.91" d="M618.84,-423.07C622.26,-408.53 626.31,-391.33 629.27,-378.74"/>
</g>
<!-- avenir sans nickel&#45;&#45;politique -->
<g id="edge2" class="edge">
<title>avenir sans nickel&#45;&#45;politique</title>
<path fill="none" stroke="darkgrey" stroke-width="3.25" d="M587.03,-466.66C564.44,-480.05 531.72,-499.45 511.32,-511.55"/>
</g>
<!-- avenir sans nickel&#45;&#45;secteur nickel -->
<g id="edge3" class="edge">
<title>avenir sans nickel&#45;&#45;secteur nickel</title>
<path fill="none" stroke="darkgrey" stroke-width="2.56" d="M584.63,-461.61C580.03,-463.25 575.33,-464.93 570.96,-466.49"/>
</g>
<!-- avenir sans nickel&#45;&#45;relation politique -->
<g id="edge4" class="edge">
<title>avenir sans nickel&#45;&#45;relation politique</title>
<path fill="none" stroke="darkgrey" stroke-width="1.03" d="M607.85,-480.84C600.42,-531.8 585.55,-633.85 582.6,-654.05"/>
</g>
<!-- avenir sans nickel&#45;&#45;avenir avec nickel -->
<g id="edge5" class="edge">
<title>avenir sans nickel&#45;&#45;avenir avec nickel</title>
<path fill="none" stroke="darkgrey" stroke-width="3.02" d="M611.42,-422.61C610.62,-387.46 609.31,-330.13 608.76,-305.96"/>
</g>
<!-- avenir sans nickel&#45;&#45;pollution -->
<g id="edge6" class="edge">
<title>avenir sans nickel&#45;&#45;pollution</title>
<path fill="none" stroke="darkgrey" stroke-width="4.75" d="M586.19,-438.56C553.87,-422.04 499.14,-394.06 468.61,-378.45"/>
</g>
<!-- avenir sans nickel&#45;&#45;ressource minière -->
<g id="edge7" class="edge">
<title>avenir sans nickel&#45;&#45;ressource minière</title>
<path fill="none" stroke="darkgrey" stroke-width="5.67" d="M599.12,-425.58C581.88,-390.74 551.7,-329.74 535.39,-296.79"/>
</g>
<!-- avenir sans nickel&#45;&#45;dégradation environnementale -->
<g id="edge8" class="edge">
<title>avenir sans nickel&#45;&#45;dégradation environnementale</title>
<path fill="none" stroke="darkgrey" stroke-width="5.23" d="M583.4,-447.06C561.47,-443.44 531.11,-438.43 507.62,-434.56"/>
</g>
<!-- avenir sans nickel&#45;&#45;société néo&#45;calédonienne -->
<g id="edge9" class="edge">
<title>avenir sans nickel&#45;&#45;société néo&#45;calédonienne</title>
<path fill="none" stroke="darkgrey" stroke-width="2.59" d="M582.98,-448.93C530.31,-443.75 420.98,-433 381.44,-429.11"/>
</g>
<!-- avenir sans nickel&#45;&#45;alternative au développement -->
<g id="edge10" class="edge">
<title>avenir sans nickel&#45;&#45;alternative au développement</title>
<path fill="none" stroke="darkgrey" stroke-width="3.87" d="M591.9,-430.88C562.89,-400.82 509.86,-345.88 482.33,-317.36"/>
</g>
<!-- avenir sans nickel&#45;&#45;économie -->
<g id="edge11" class="edge">
<title>avenir sans nickel&#45;&#45;économie</title>
<path fill="none" stroke="darkgrey" stroke-width="2.12" d="M585.86,-439.17C575.05,-433.97 562.86,-428.1 553.37,-423.54"/>
</g>
<!-- avenir sans nickel&#45;&#45;amélioration environnementale -->
<g id="edge12" class="edge">
<title>avenir sans nickel&#45;&#45;amélioration environnementale</title>
<path fill="none" stroke="darkgrey" stroke-width="2.06" d="M635.41,-433.75C652.45,-420.57 674.62,-403.42 686.81,-393.99"/>
</g>
<!-- travail&#45;&#45;politique -->
<g id="edge13" class="edge">
<title>travail&#45;&#45;politique</title>
<path fill="none" stroke="darkgrey" stroke-width="3.2" d="M621.43,-374.8C595.61,-404.43 534.91,-474.07 507.03,-506.07"/>
</g>
<!-- travail&#45;&#45;secteur nickel -->
<g id="edge14" class="edge">
<title>travail&#45;&#45;secteur nickel</title>
<path fill="none" stroke="darkgrey" stroke-width="3.11" d="M622.62,-375.75C607.47,-396.4 579.95,-433.88 563.7,-456.02"/>
</g>
<!-- travail&#45;&#45;avenir avec nickel -->
<g id="edge15" class="edge">
<title>travail&#45;&#45;avenir avec nickel</title>
<path fill="none" stroke="darkgrey" stroke-width="1.37" d="M627.02,-343.93C622.4,-331.64 616.32,-315.46 612.41,-305.05"/>
</g>
<!-- travail&#45;&#45;pollution -->
<g id="edge16" class="edge">
<title>travail&#45;&#45;pollution</title>
<path fill="none" stroke="darkgrey" stroke-width="4.59" d="M615.16,-361.61C581.5,-362.7 509.7,-365.02 471.48,-366.26"/>
</g>
<!-- travail&#45;&#45;ressource minière -->
<g id="edge17" class="edge">
<title>travail&#45;&#45;ressource minière</title>
<path fill="none" stroke="darkgrey" stroke-width="2.41" d="M619.15,-349.66C599.95,-334.39 565.72,-307.16 544.02,-289.91"/>
</g>
<!-- travail&#45;&#45;dégradation environnementale -->
<g id="edge18" class="edge">
<title>travail&#45;&#45;dégradation environnementale</title>
<path fill="none" stroke="darkgrey" stroke-width="5.74" d="M616.77,-368C590.59,-378.98 539.31,-400.47 505.35,-414.7"/>
</g>
<!-- travail&#45;&#45;société néo&#45;calédonienne -->
<g id="edge19" class="edge">
<title>travail&#45;&#45;société néo&#45;calédonienne</title>
<path fill="none" stroke="darkgrey" stroke-width="3.11" d="M615.94,-365.39C566.46,-377.76 426.21,-412.81 381,-424.11"/>
</g>
<!-- travail&#45;&#45;alternative au développement -->
<g id="edge20" class="edge">
<title>travail&#45;&#45;alternative au développement</title>
<path fill="none" stroke="darkgrey" stroke-width="3.34" d="M616.33,-354.74C586,-343.6 522.75,-320.39 488.29,-307.74"/>
</g>
<!-- travail&#45;&#45;économie -->
<g id="edge22" class="edge">
<title>travail&#45;&#45;économie</title>
<path fill="none" stroke="darkgrey" stroke-width="3.55" d="M617.53,-370.05C599.68,-380.18 570.89,-396.52 553.03,-406.66"/>
</g>
<!-- travail&#45;&#45;amélioration environnementale -->
<g id="edge23" class="edge">
<title>travail&#45;&#45;amélioration environnementale</title>
<path fill="none" stroke="darkgrey" stroke-width="2.4" d="M650.16,-367.98C661.42,-372.67 675.92,-378.71 685.52,-382.71"/>
</g>
<!-- travail&#45;&#45;nickel -->
<g id="edge21" class="edge">
<title>travail&#45;&#45;nickel</title>
<path fill="none" stroke="darkgrey" stroke-width="1.32" d="M616.33,-355.37C565.93,-338.73 419.38,-290.34 385.73,-279.23"/>
</g>
<!-- travail&#45;&#45;essor technologique -->
<g id="edge24" class="edge">
<title>travail&#45;&#45;essor technologique</title>
<path fill="none" stroke="darkgrey" stroke-width="2.8" d="M640.32,-344.28C647.06,-327.92 657.25,-303.14 664.01,-286.7"/>
</g>
<!-- travail&#45;&#45;matériel -->
<g id="edge25" class="edge">
<title>travail&#45;&#45;matériel</title>
<path fill="none" stroke="darkgrey" stroke-width="1.14" d="M651.64,-359.01C724.65,-350.94 993.21,-321.26 1009.92,-319.41"/>
</g>
<!-- politique&#45;&#45;secteur nickel -->
<g id="edge28" class="edge">
<title>politique&#45;&#45;secteur nickel</title>
<path fill="none" stroke="darkgrey" stroke-width="3.43" d="M509.06,-508.78C516.85,-502.22 526.13,-494.41 533.95,-487.83"/>
</g>
<!-- politique&#45;&#45;relation politique -->
<g id="edge29" class="edge">
<title>politique&#45;&#45;relation politique</title>
<path fill="none" stroke="darkgrey" stroke-width="1.46" d="M504.63,-540.87C526.2,-573.37 570.05,-639.44 580.04,-654.48"/>
</g>
<!-- politique&#45;&#45;avenir avec nickel -->
<g id="edge30" class="edge">
<title>politique&#45;&#45;avenir avec nickel</title>
<path fill="none" stroke="darkgrey" stroke-width="1.37" d="M502.44,-503.24C526.1,-456.71 585.34,-340.2 603.28,-304.93"/>
</g>
<!-- politique&#45;&#45;pollution -->
<g id="edge31" class="edge">
<title>politique&#45;&#45;pollution</title>
<path fill="none" stroke="darkgrey" stroke-width="2.89" d="M486.42,-502.01C477.9,-473.33 462.52,-421.54 453.49,-391.14"/>
</g>
<!-- politique&#45;&#45;ressource minière -->
<g id="edge32" class="edge">
<title>politique&#45;&#45;ressource minière</title>
<path fill="none" stroke="darkgrey" stroke-width="3.71" d="M495.31,-501.05C501.15,-455.11 514.78,-347.99 521,-299.17"/>
</g>
<!-- politique&#45;&#45;dégradation environnementale -->
<g id="edge33" class="edge">
<title>politique&#45;&#45;dégradation environnementale</title>
<path fill="none" stroke="darkgrey" stroke-width="4.33" d="M487.89,-501.35C485.47,-490.3 482.46,-476.52 479.71,-463.94"/>
</g>
<!-- politique&#45;&#45;société néo&#45;calédonienne -->
<g id="edge34" class="edge">
<title>politique&#45;&#45;société néo&#45;calédonienne</title>
<path fill="none" stroke="darkgrey" stroke-width="1.68" d="M475.33,-509.67C449.36,-490.05 400.85,-453.4 378.54,-436.56"/>
</g>
<!-- politique&#45;&#45;alternative au développement -->
<g id="edge36" class="edge">
<title>politique&#45;&#45;alternative au développement</title>
<path fill="none" stroke="darkgrey" stroke-width="2.68" d="M489.88,-501.24C484.7,-459.7 473.33,-368.46 467.81,-324.18"/>
</g>
<!-- politique&#45;&#45;économie -->
<g id="edge37" class="edge">
<title>politique&#45;&#45;économie</title>
<path fill="none" stroke="darkgrey" stroke-width="3.49" d="M500.83,-502.81C509.23,-482.63 522.11,-451.71 530.04,-432.65"/>
</g>
<!-- politique&#45;&#45;nouvelle&#45;calédonie -->
<g id="edge35" class="edge">
<title>politique&#45;&#45;nouvelle&#45;calédonie</title>
<path fill="none" stroke="darkgrey" stroke-width="1.27" d="M470.91,-521.06C441.15,-518.84 389.13,-514.95 370.3,-513.55"/>
</g>
<!-- secteur nickel&#45;&#45;relation politique -->
<g id="edge38" class="edge">
<title>secteur nickel&#45;&#45;relation politique</title>
<path fill="none" stroke="darkgrey" stroke-width="1.1" d="M554.36,-495.18C561.77,-538.56 578.11,-634.27 581.48,-653.98"/>
</g>
<!-- secteur nickel&#45;&#45;avenir avec nickel -->
<g id="edge39" class="edge">
<title>secteur nickel&#45;&#45;avenir avec nickel</title>
<path fill="none" stroke="darkgrey" stroke-width="1.49" d="M557.33,-453.18C569.67,-414.97 595.74,-334.19 605.08,-305.25"/>
</g>
<!-- secteur nickel&#45;&#45;pollution -->
<g id="edge40" class="edge">
<title>secteur nickel&#45;&#45;pollution</title>
<path fill="none" stroke="darkgrey" stroke-width="3.31" d="M535.3,-457.99C516.25,-438.52 483.89,-405.45 463.9,-385.01"/>
</g>
<!-- secteur nickel&#45;&#45;ressource minière -->
<g id="edge41" class="edge">
<title>secteur nickel&#45;&#45;ressource minière</title>
<path fill="none" stroke="darkgrey" stroke-width="2.14" d="M547.86,-452.37C542.92,-415.16 532.75,-338.65 527.5,-299.07"/>
</g>
<!-- secteur nickel&#45;&#45;dégradation environnementale -->
<g id="edge42" class="edge">
<title>secteur nickel&#45;&#45;dégradation environnementale</title>
<path fill="none" stroke="darkgrey" stroke-width="3.07" d="M531.65,-462.82C523.19,-457.98 513,-452.15 503.46,-446.69"/>
</g>
<!-- secteur nickel&#45;&#45;société néo&#45;calédonienne -->
<g id="edge43" class="edge">
<title>secteur nickel&#45;&#45;société néo&#45;calédonienne</title>
<path fill="none" stroke="darkgrey" stroke-width="1.48" d="M529.6,-468.44C491.86,-458.99 413.71,-439.42 381.32,-431.31"/>
</g>
<!-- secteur nickel&#45;&#45;alternative au développement -->
<g id="edge45" class="edge">
<title>secteur nickel&#45;&#45;alternative au développement</title>
<path fill="none" stroke="darkgrey" stroke-width="4.77" d="M541.17,-454.37C525.11,-421.77 492.78,-356.12 475.75,-321.54"/>
</g>
<!-- secteur nickel&#45;&#45;économie -->
<g id="edge47" class="edge">
<title>secteur nickel&#45;&#45;économie</title>
<path fill="none" stroke="darkgrey" stroke-width="2.14" d="M545.79,-452.78C544.3,-446.42 542.67,-439.49 541.24,-433.37"/>
</g>
<!-- secteur nickel&#45;&#45;amélioration environnementale -->
<g id="edge48" class="edge">
<title>secteur nickel&#45;&#45;amélioration environnementale</title>
<path fill="none" stroke="darkgrey" stroke-width="2.76" d="M569.38,-462.57C600.61,-443.9 662.36,-407 686.16,-392.78"/>
</g>
<!-- secteur nickel&#45;&#45;nickel -->
<g id="edge46" class="edge">
<title>secteur nickel&#45;&#45;nickel</title>
<path fill="none" stroke="darkgrey" stroke-width="1.7" d="M536.34,-457.29C500.02,-415.72 405.83,-307.9 383.55,-282.4"/>
</g>
<!-- secteur nickel&#45;&#45;essor technologique -->
<g id="edge49" class="edge">
<title>secteur nickel&#45;&#45;essor technologique</title>
<path fill="none" stroke="darkgrey" stroke-width="1.37" d="M561.8,-454.9C585.35,-414.96 639.96,-322.37 661.76,-285.41"/>
</g>
<!-- secteur nickel&#45;&#45;nouvelle&#45;calédonie -->
<g id="edge44" class="edge">
<title>secteur nickel&#45;&#45;nouvelle&#45;calédonie</title>
<path fill="none" stroke="darkgrey" stroke-width="1.05" d="M529.56,-478.16C487.81,-486.91 396.57,-506.04 370.4,-511.52"/>
</g>
<!-- relation politique&#45;&#45;dégradation environnementale -->
<g id="edge50" class="edge">
<title>relation politique&#45;&#45;dégradation environnementale</title>
<path fill="none" stroke="darkgrey" stroke-width="1.07" d="M580.53,-654.33C570.58,-633.63 515.34,-518.79 487.72,-461.37"/>
</g>
<!-- relation politique&#45;&#45;économie -->
<g id="edge51" class="edge">
<title>relation politique&#45;&#45;économie</title>
<path fill="none" stroke="darkgrey" stroke-width="1.38" d="M581.38,-653.77C576.69,-628.53 549.89,-484.5 540.42,-433.56"/>
</g>
<!-- avenir avec nickel&#45;&#45;ressource minière -->
<g id="edge52" class="edge">
<title>avenir avec nickel&#45;&#45;ressource minière</title>
<path fill="none" stroke="darkgrey" stroke-width="1.38" d="M597.48,-291.97C585.16,-288.97 564.82,-284.02 548.69,-280.09"/>
</g>
<!-- avenir avec nickel&#45;&#45;dégradation environnementale -->
<g id="edge53" class="edge">
<title>avenir avec nickel&#45;&#45;dégradation environnementale</title>
<path fill="none" stroke="darkgrey" stroke-width="2.43" d="M600.37,-302.63C580.57,-322.07 529.17,-372.55 497.74,-403.4"/>
</g>
<!-- avenir avec nickel&#45;&#45;alternative au développement -->
<g id="edge54" class="edge">
<title>avenir avec nickel&#45;&#45;alternative au développement</title>
<path fill="none" stroke="darkgrey" stroke-width="1.9" d="M597.22,-295C574.18,-295.71 521.23,-297.34 489.67,-298.31"/>
</g>
<!-- avenir avec nickel&#45;&#45;économie -->
<g id="edge55" class="edge">
<title>avenir avec nickel&#45;&#45;économie</title>
<path fill="none" stroke="darkgrey" stroke-width="2.16" d="M602.9,-304.15C590.67,-324.88 561.48,-374.38 546.42,-399.9"/>
</g>
<!-- avenir avec nickel&#45;&#45;amélioration environnementale -->
<g id="edge56" class="edge">
<title>avenir avec nickel&#45;&#45;amélioration environnementale</title>
<path fill="none" stroke="darkgrey" stroke-width="2.77" d="M616.25,-302.84C632.87,-320.41 671.74,-361.52 688.22,-378.96"/>
</g>
<!-- avenir avec nickel&#45;&#45;essor technologique -->
<g id="edge57" class="edge">
<title>avenir avec nickel&#45;&#45;essor technologique</title>
<path fill="none" stroke="darkgrey" stroke-width="2.02" d="M618.82,-290.54C628.39,-286.73 642.8,-280.99 654.05,-276.51"/>
</g>
<!-- pollution&#45;&#45;ressource minière -->
<g id="edge58" class="edge">
<title>pollution&#45;&#45;ressource minière</title>
<path fill="none" stroke="darkgrey" stroke-width="4.26" d="M462.47,-347.81C475.83,-331.86 494.72,-309.31 508.07,-293.36"/>
</g>
<!-- pollution&#45;&#45;dégradation environnementale -->
<g id="edge59" class="edge">
<title>pollution&#45;&#45;dégradation environnementale</title>
<path fill="none" stroke="darkgrey" stroke-width="10" d="M456.04,-390.36C456.72,-392 457.42,-393.66 458.11,-395.34"/>
</g>
<!-- pollution&#45;&#45;société néo&#45;calédonienne -->
<g id="edge61" class="edge">
<title>pollution&#45;&#45;société néo&#45;calédonienne</title>
<path fill="none" stroke="darkgrey" stroke-width="2.84" d="M426.26,-382.36C411.16,-393.86 390.99,-409.22 378.45,-418.77"/>
</g>
<!-- pollution&#45;&#45;alternative au développement -->
<g id="edge63" class="edge">
<title>pollution&#45;&#45;alternative au développement</title>
<path fill="none" stroke="darkgrey" stroke-width="4.25" d="M452.86,-342.91C454.55,-336.65 456.37,-329.9 458.06,-323.62"/>
</g>
<!-- pollution&#45;&#45;économie -->
<g id="edge65" class="edge">
<title>pollution&#45;&#45;économie</title>
<path fill="none" stroke="darkgrey" stroke-width="4.04" d="M468.78,-379.09C485.05,-387.81 506.66,-399.4 521.18,-407.18"/>
</g>
<!-- pollution&#45;&#45;amélioration environnementale -->
<g id="edge66" class="edge">
<title>pollution&#45;&#45;amélioration environnementale</title>
<path fill="none" stroke="darkgrey" stroke-width="1.47" d="M471.64,-369.09C525.03,-373.36 647.4,-383.14 684.78,-386.12"/>
</g>
<!-- pollution&#45;&#45;nickel -->
<g id="edge64" class="edge">
<title>pollution&#45;&#45;nickel</title>
<path fill="none" stroke="darkgrey" stroke-width="1.72" d="M431.01,-346.62C415.59,-326.05 392.78,-295.61 383.23,-282.88"/>
</g>
<!-- pollution&#45;&#45;essor technologique -->
<g id="edge67" class="edge">
<title>pollution&#45;&#45;essor technologique</title>
<path fill="none" stroke="darkgrey" stroke-width="2.42" d="M469.54,-357.02C514.94,-337.36 614.56,-294.2 654.21,-277.03"/>
</g>
<!-- pollution&#45;&#45;nouvelle&#45;calédonie -->
<g id="edge62" class="edge">
<title>pollution&#45;&#45;nouvelle&#45;calédonie</title>
<path fill="none" stroke="darkgrey" stroke-width="1.03" d="M433.9,-388.92C414.52,-422.96 378.17,-486.81 366.77,-506.84"/>
</g>
<!-- pollution&#45;&#45;nature -->
<g id="edge60" class="edge">
<title>pollution&#45;&#45;nature</title>
<path fill="none" stroke="darkgrey" stroke-width="2.32" d="M421.05,-365.64C368.85,-362.69 251.56,-356.06 221.32,-354.35"/>
</g>
<!-- ressource minière&#45;&#45;dégradation environnementale -->
<g id="edge68" class="edge">
<title>ressource minière&#45;&#45;dégradation environnementale</title>
<path fill="none" stroke="darkgrey" stroke-width="6.36" d="M516.14,-297.94C507.42,-323.76 493.43,-365.22 483.54,-394.51"/>
</g>
<!-- ressource minière&#45;&#45;alternative au développement -->
<g id="edge70" class="edge">
<title>ressource minière&#45;&#45;alternative au développement</title>
<path fill="none" stroke="darkgrey" stroke-width="4.34" d="M501.01,-283.85C496.7,-285.65 492.2,-287.54 487.89,-289.35"/>
</g>
<!-- ressource minière&#45;&#45;économie -->
<g id="edge72" class="edge">
<title>ressource minière&#45;&#45;économie</title>
<path fill="none" stroke="darkgrey" stroke-width="3.36" d="M526.46,-299.11C529.04,-327.37 533.17,-372.7 535.45,-397.7"/>
</g>
<!-- ressource minière&#45;&#45;amélioration environnementale -->
<g id="edge73" class="edge">
<title>ressource minière&#45;&#45;amélioration environnementale</title>
<path fill="none" stroke="darkgrey" stroke-width="1.4" d="M545.23,-287.97C582.83,-312.7 660.08,-363.5 686.63,-380.96"/>
</g>
<!-- ressource minière&#45;&#45;nickel -->
<g id="edge71" class="edge">
<title>ressource minière&#45;&#45;nickel</title>
<path fill="none" stroke="darkgrey" stroke-width="1.06" d="M499.19,-274.61C465.25,-275.27 406.47,-276.4 386.03,-276.8"/>
</g>
<!-- ressource minière&#45;&#45;essor technologique -->
<g id="edge74" class="edge">
<title>ressource minière&#45;&#45;essor technologique</title>
<path fill="none" stroke="darkgrey" stroke-width="3.81" d="M549.42,-273.38C578.77,-272.51 626.51,-271.09 652.57,-270.31"/>
</g>
<!-- ressource minière&#45;&#45;nouvelle&#45;calédonie -->
<g id="edge69" class="edge">
<title>ressource minière&#45;&#45;nouvelle&#45;calédonie</title>
<path fill="none" stroke="darkgrey" stroke-width="1.26" d="M510.18,-294.91C475.62,-346.22 387.57,-476.92 367.41,-506.85"/>
</g>
<!-- dégradation environnementale&#45;&#45;société néo&#45;calédonienne -->
<g id="edge76" class="edge">
<title>dégradation environnementale&#45;&#45;société néo&#45;calédonienne</title>
<path fill="none" stroke="darkgrey" stroke-width="2.4" d="M435.79,-428.33C417.12,-428.15 395.39,-427.94 381.38,-427.81"/>
</g>
<!-- dégradation environnementale&#45;&#45;alternative au développement -->
<g id="edge78" class="edge">
<title>dégradation environnementale&#45;&#45;alternative au développement</title>
<path fill="none" stroke="darkgrey" stroke-width="4.17" d="M469.96,-392.58C468.74,-370.86 467.21,-343.75 466.11,-324.32"/>
</g>
<!-- dégradation environnementale&#45;&#45;économie -->
<g id="edge80" class="edge">
<title>dégradation environnementale&#45;&#45;économie</title>
<path fill="none" stroke="darkgrey" stroke-width="6.09" d="M507.6,-421.59C511.63,-420.78 515.61,-419.99 519.27,-419.26"/>
</g>
<!-- dégradation environnementale&#45;&#45;amélioration environnementale -->
<g id="edge81" class="edge">
<title>dégradation environnementale&#45;&#45;amélioration environnementale</title>
<path fill="none" stroke="darkgrey" stroke-width="2.87" d="M507.47,-422.08C559.24,-412.44 652.82,-395.01 684.78,-389.06"/>
</g>
<!-- dégradation environnementale&#45;&#45;nickel -->
<g id="edge79" class="edge">
<title>dégradation environnementale&#45;&#45;nickel</title>
<path fill="none" stroke="darkgrey" stroke-width="2.02" d="M453.14,-397.97C430.47,-361.08 394.05,-301.79 382.45,-282.91"/>
</g>
<!-- dégradation environnementale&#45;&#45;essor technologique -->
<g id="edge82" class="edge">
<title>dégradation environnementale&#45;&#45;essor technologique</title>
<path fill="none" stroke="darkgrey" stroke-width="3.25" d="M500.51,-405.91C543.71,-371.41 624.16,-307.16 656.74,-281.14"/>
</g>
<!-- dégradation environnementale&#45;&#45;nouvelle&#45;calédonie -->
<g id="edge77" class="edge">
<title>dégradation environnementale&#45;&#45;nouvelle&#45;calédonie</title>
<path fill="none" stroke="darkgrey" d="M443.43,-450.84C418,-470.56 382.78,-497.87 369.05,-508.52"/>
</g>
<!-- dégradation environnementale&#45;&#45;nature -->
<g id="edge75" class="edge">
<title>dégradation environnementale&#45;&#45;nature</title>
<path fill="none" stroke="darkgrey" stroke-width="3.19" d="M437.22,-418.6C375.9,-400.83 252.11,-364.96 221.21,-356"/>
</g>
<!-- société néo&#45;calédonienne&#45;&#45;alternative au développement -->
<g id="edge86" class="edge">
<title>société néo&#45;calédonienne&#45;&#45;alternative au développement</title>
<path fill="none" stroke="darkgrey" stroke-width="2.71" d="M375.81,-415.8C392.57,-393.79 428.64,-346.42 449.31,-319.28"/>
</g>
<!-- société néo&#45;calédonienne&#45;&#45;économie -->
<g id="edge88" class="edge">
<title>société néo&#45;calédonienne&#45;&#45;économie</title>
<path fill="none" stroke="darkgrey" stroke-width="2.47" d="M381.29,-426.65C412.35,-424.47 485.13,-419.36 519.08,-416.97"/>
</g>
<!-- société néo&#45;calédonienne&#45;&#45;nickel -->
<g id="edge87" class="edge">
<title>société néo&#45;calédonienne&#45;&#45;nickel</title>
<path fill="none" stroke="darkgrey" stroke-width="1.78" d="M367.95,-412.94C370.47,-381.23 376.35,-307.5 378.2,-284.16"/>
</g>
<!-- société néo&#45;calédonienne&#45;&#45;nouvelle&#45;calédonie -->
<g id="edge85" class="edge">
<title>société néo&#45;calédonienne&#45;&#45;nouvelle&#45;calédonie</title>
<path fill="none" stroke="darkgrey" stroke-width="1.34" d="M366.16,-442.53C365.39,-461.06 364.12,-491.99 363.54,-505.88"/>
</g>
<!-- alternative au développement&#45;&#45;économie -->
<g id="edge92" class="edge">
<title>alternative au développement&#45;&#45;économie</title>
<path fill="none" stroke="darkgrey" stroke-width="5.09" d="M477.97,-320.47C492.34,-343.62 514.9,-379.95 527.59,-400.4"/>
</g>
<!-- alternative au développement&#45;&#45;amélioration environnementale -->
<g id="edge93" class="edge">
<title>alternative au développement&#45;&#45;amélioration environnementale</title>
<path fill="none" stroke="darkgrey" stroke-width="3.73" d="M488.12,-307.99C537.47,-326.77 650.43,-369.74 685.35,-383.02"/>
</g>
<!-- alternative au développement&#45;&#45;nickel -->
<g id="edge91" class="edge">
<title>alternative au développement&#45;&#45;nickel</title>
<path fill="none" stroke="darkgrey" stroke-width="1.65" d="M440.3,-292.79C421.84,-288.04 397.73,-281.82 385.92,-278.78"/>
</g>
<!-- alternative au développement&#45;&#45;essor technologique -->
<g id="edge94" class="edge">
<title>alternative au développement&#45;&#45;essor technologique</title>
<path fill="none" stroke="darkgrey" stroke-width="3.76" d="M489.57,-295.54C531.69,-289.56 616.03,-277.57 652.96,-272.32"/>
</g>
<!-- économie&#45;&#45;amélioration environnementale -->
<g id="edge96" class="edge">
<title>économie&#45;&#45;amélioration environnementale</title>
<path fill="none" stroke="darkgrey" stroke-width="1.41" d="M555,-412.47C588.08,-406.49 657.87,-393.87 684.85,-388.99"/>
</g>
<!-- économie&#45;&#45;essor technologique -->
<g id="edge97" class="edge">
<title>économie&#45;&#45;essor technologique</title>
<path fill="none" stroke="darkgrey" stroke-width="1.02" d="M549.45,-402.24C574.96,-374.44 633.18,-310.97 658.66,-283.2"/>
</g>
<!-- amélioration environnementale&#45;&#45;essor technologique -->
<g id="edge98" class="edge">
<title>amélioration environnementale&#45;&#45;essor technologique</title>
<path fill="none" stroke="darkgrey" stroke-width="1.76" d="M693.54,-376.19C689.26,-356 680.03,-312.44 674.8,-287.76"/>
</g>
<!-- nickel&#45;&#45;économie -->
<g id="edge95" class="edge">
<title>nickel&#45;&#45;économie</title>
<path fill="none" stroke="darkgrey" stroke-width="1.08" d="M384.05,-281.55C405.94,-300.74 490.13,-374.54 523.43,-403.72"/>
</g>
<!-- exploitation minière&#45;&#45;ressource minière -->
<g id="edge26" class="edge">
<title>exploitation minière&#45;&#45;ressource minière</title>
<path fill="none" stroke="darkgrey" stroke-width="1.22" d="M432.66,-6.92C441.3,-32.13 495.3,-189.79 516.06,-250.42"/>
</g>
<!-- exploitation minière&#45;&#45;alternative au développement -->
<g id="edge27" class="edge">
<title>exploitation minière&#45;&#45;alternative au développement</title>
<path fill="none" stroke="darkgrey" stroke-width="1.05" d="M431.91,-7.24C435.02,-34.9 454.53,-208.64 461.88,-274.14"/>
</g>
<!-- nouvelle&#45;calédonie&#45;&#45;alternative au développement -->
<g id="edge89" class="edge">
<title>nouvelle&#45;calédonie&#45;&#45;alternative au développement</title>
<path fill="none" stroke="darkgrey" stroke-width="1.92" d="M366.4,-506.38C379.64,-478.45 431.19,-369.72 453.87,-321.88"/>
</g>
<!-- nouvelle&#45;calédonie&#45;&#45;économie -->
<g id="edge90" class="edge">
<title>nouvelle&#45;calédonie&#45;&#45;économie</title>
<path fill="none" stroke="darkgrey" stroke-width="1.41" d="M369.44,-509.56C393.87,-495.88 484.13,-445.35 521.13,-424.65"/>
</g>
<!-- nature&#45;&#45;société néo&#45;calédonienne -->
<g id="edge83" class="edge">
<title>nature&#45;&#45;société néo&#45;calédonienne</title>
<path fill="none" stroke="darkgrey" stroke-width="1.13" d="M220.66,-357.11C243.84,-368.3 322.13,-406.11 353.56,-421.28"/>
</g>
<!-- nature&#45;&#45;alternative au développement -->
<g id="edge84" class="edge">
<title>nature&#45;&#45;alternative au développement</title>
<path fill="none" stroke="darkgrey" stroke-width="1.28" d="M221.07,-352.42C252.84,-345.46 384.9,-316.55 440.18,-304.44"/>
</g>
<!-- avenir sans nickel -->
<g id="node1" class="node">
<title>avenir sans nickel</title>
<ellipse fill="#f98c0a" stroke="white" stroke-width="0" cx="612.09" cy="-451.8" rx="29" ry="29"/>
<text text-anchor="middle" x="694.59" y="-487.96" font-family="Helvetica,sans-Serif" font-size="24.80" fill="#4d4d4d">avenir sans nickel</text>
</g>
<!-- travail -->
<g id="node2" class="node">
<title>travail</title>
<ellipse fill="#bd3853" stroke="white" stroke-width="0" cx="633.44" cy="-361.02" rx="18" ry="18"/>
<text text-anchor="middle" x="583.94" y="-349.02" font-family="Helvetica,sans-Serif" font-size="20.00" fill="#4d4d4d">travail</text>
</g>
<!-- politique -->
<g id="node3" class="node">
<title>politique</title>
<ellipse fill="#cb4149" stroke="white" stroke-width="0" cx="492.55" cy="-522.68" rx="21.5" ry="21.5"/>
<text text-anchor="middle" x="424.05" y="-550.9" font-family="Helvetica,sans-Serif" font-size="21.60" fill="#4d4d4d">politique</text>
</g>
<!-- secteur nickel -->
<g id="node4" class="node">
<title>secteur nickel</title>
<ellipse fill="#ca404a" stroke="white" stroke-width="0" cx="550.7" cy="-473.73" rx="21.5" ry="21.5"/>
<text text-anchor="middle" x="453.7" y="-501.95" font-family="Helvetica,sans-Serif" font-size="21.60" fill="#4d4d4d">secteur nickel</text>
</g>
<!-- relation politique -->
<g id="node5" class="node">
<title>relation politique</title>
<ellipse fill="#160b39" stroke="white" stroke-width="0" cx="582.09" cy="-657.57" rx="3.5" ry="3.5"/>
<text text-anchor="middle" x="521.09" y="-665.19" font-family="Helvetica,sans-Serif" font-size="13.60" fill="#4d4d4d">relation politique</text>
</g>
<!-- avenir avec nickel -->
<g id="node6" class="node">
<title>avenir avec nickel</title>
<ellipse fill="#550f6d" stroke="white" stroke-width="0" cx="608.51" cy="-294.65" rx="11" ry="11"/>
<text text-anchor="middle" x="673.01" y="-310.21" font-family="Helvetica,sans-Serif" font-size="16.80" fill="#4d4d4d">avenir avec nickel</text>
</g>
<!-- pollution -->
<g id="node7" class="node">
<title>pollution</title>
<ellipse fill="#eb6628" stroke="white" stroke-width="0" cx="446.34" cy="-367.07" rx="25" ry="25"/>
<text text-anchor="middle" x="369.84" y="-349.51" font-family="Helvetica,sans-Serif" font-size="23.20" fill="#4d4d4d">pollution</text>
</g>
<!-- ressource minière -->
<g id="node8" class="node">
<title>ressource minière</title>
<ellipse fill="#f3761b" stroke="white" stroke-width="0" cx="524.18" cy="-274.13" rx="25" ry="25"/>
<text text-anchor="middle" x="394.68" y="-230.57" font-family="Helvetica,sans-Serif" font-size="23.20" fill="#4d4d4d">ressource minière</text>
</g>
<!-- dégradation environnementale -->
<g id="node9" class="node">
<title>dégradation environnementale</title>
<ellipse fill="#fcffa4" stroke="white" stroke-width="0" cx="472" cy="-428.68" rx="36" ry="36"/>
<text text-anchor="middle" x="218" y="-473.28" font-family="Helvetica,sans-Serif" font-size="28.00" fill="#4d4d4d">dégradation environnementale</text>
</g>
<!-- société néo&#45;calédonienne -->
<g id="node10" class="node">
<title>société néo&#45;calédonienne</title>
<ellipse fill="#902568" stroke="white" stroke-width="0" cx="366.77" cy="-427.67" rx="14.5" ry="14.5"/>
<text text-anchor="middle" x="233.27" y="-447.45" font-family="Helvetica,sans-Serif" font-size="18.40" fill="#4d4d4d">société néo&#45;calédonienne</text>
</g>
<!-- alternative au développement -->
<g id="node11" class="node">
<title>alternative au développement</title>
<ellipse fill="#f98b0b" stroke="white" stroke-width="0" cx="464.68" cy="-299.08" rx="25" ry="25"/>
<text text-anchor="middle" x="263.18" y="-281.52" font-family="Helvetica,sans-Serif" font-size="23.20" fill="#4d4d4d">alternative au développement</text>
</g>
<!-- économie -->
<g id="node12" class="node">
<title>économie</title>
<ellipse fill="#b0315b" stroke="white" stroke-width="0" cx="537.1" cy="-415.71" rx="18" ry="18"/>
<text text-anchor="middle" x="567.6" y="-381.71" font-family="Helvetica,sans-Serif" font-size="20.00" fill="#4d4d4d">économie</text>
</g>
<!-- amélioration environnementale -->
<g id="node13" class="node">
<title>amélioration environnementale</title>
<ellipse fill="#781c6d" stroke="white" stroke-width="0" cx="695.83" cy="-387.01" rx="11" ry="11"/>
<text text-anchor="middle" x="817.33" y="-402.57" font-family="Helvetica,sans-Serif" font-size="16.80" fill="#4d4d4d">amélioration environnementale</text>
</g>
<!-- nickel -->
<g id="node14" class="node">
<title>nickel</title>
<ellipse fill="#2f0a5b" stroke="white" stroke-width="0" cx="378.78" cy="-276.93" rx="7" ry="7"/>
<text text-anchor="middle" x="349.28" y="-257.77" font-family="Helvetica,sans-Serif" font-size="15.20" fill="#4d4d4d">nickel</text>
</g>
<!-- essor technologique -->
<g id="node15" class="node">
<title>essor technologique</title>
<ellipse fill="#ad305d" stroke="white" stroke-width="0" cx="670.98" cy="-269.76" rx="18" ry="18"/>
<text text-anchor="middle" x="753.48" y="-235.76" font-family="Helvetica,sans-Serif" font-size="20.00" fill="#4d4d4d">essor technologique</text>
</g>
<!-- matériel -->
<g id="node16" class="node">
<title>matériel</title>
<ellipse fill="#000004" stroke="white" stroke-width="0" cx="1010.74" cy="-319.32" rx="0.5" ry="0.5"/>
<text text-anchor="middle" x="984.74" y="-323.22" font-family="Helvetica,sans-Serif" font-size="12.00" fill="#4d4d4d">matériel</text>
</g>
<!-- exploitation minière -->
<g id="node17" class="node">
<title>exploitation minière</title>
<ellipse fill="#0c0826" stroke="white" stroke-width="0" cx="431.49" cy="-3.5" rx="3.5" ry="3.5"/>
<text text-anchor="middle" x="359.99" y="-11.12" font-family="Helvetica,sans-Serif" font-size="13.60" fill="#4d4d4d">exploitation minière</text>
</g>
<!-- nouvelle&#45;calédonie -->
<g id="node18" class="node">
<title>nouvelle&#45;calédonie</title>
<ellipse fill="#320a5e" stroke="white" stroke-width="0" cx="363.25" cy="-513.02" rx="7" ry="7"/>
<text text-anchor="middle" x="284.75" y="-524.86" font-family="Helvetica,sans-Serif" font-size="15.20" fill="#4d4d4d">nouvelle&#45;calédonie</text>
</g>
<!-- nature -->
<g id="node19" class="node">
<title>nature</title>
<ellipse fill="#4d0d6c" stroke="white" stroke-width="0" cx="214.1" cy="-353.94" rx="7" ry="7"/>
<text text-anchor="middle" x="182.1" y="-365.78" font-family="Helvetica,sans-Serif" font-size="15.20" fill="#4d4d4d">nature</text>
</g>
</g>
</svg>
