<?xml version="1.0" encoding="UTF-8" standalone="no"?>
<!DOCTYPE svg PUBLIC "-//W3C//DTD SVG 1.1//EN"
 "http://www.w3.org/Graphics/SVG/1.1/DTD/svg11.dtd">
<!-- Generated by graphviz version 2.43.0 (0)
 -->
<!-- Pages: 1 -->
<svg width="418pt" height="327pt"
 viewBox="0.00 0.00 417.71 327.05" xmlns="http://www.w3.org/2000/svg" xmlns:xlink="http://www.w3.org/1999/xlink">
<g id="graph0" class="graph" transform="scale(1 1) rotate(0) translate(4 323.05)">
<polygon fill="white" stroke="transparent" points="-4,4 -4,-323.05 413.71,-323.05 413.71,4 -4,4"/>
<!-- pollution&#45;&#45;épuisement -->
<g id="edge1" class="edge">
<title>pollution&#45;&#45;épuisement</title>
<path fill="none" stroke="darkgrey" stroke-width="3.68" d="M198.88,-149.27C152.91,-149.55 78.85,-150 72.01,-150.04"/>
</g>
<!-- pollution&#45;&#45;environnement -->
<g id="edge2" class="edge">
<title>pollution&#45;&#45;environnement</title>
<path fill="none" stroke="darkgrey" stroke-width="3.15" d="M216.97,-117.8C197.3,-84.09 167.37,-32.83 156.84,-14.79"/>
</g>
<!-- pollution&#45;&#45;ressource -->
<g id="edge3" class="edge">
<title>pollution&#45;&#45;ressource</title>
<path fill="none" stroke="darkgrey" d="M253.12,-117.52C272.62,-83.19 302.37,-30.81 312.43,-13.1"/>
</g>
<!-- pollution&#45;&#45;destruction -->
<g id="edge4" class="edge">
<title>pollution&#45;&#45;destruction</title>
<path fill="none" stroke="darkgrey" stroke-width="6.78" d="M217.35,-180.64C194.74,-220.6 158.32,-284.99 154.95,-290.94"/>
</g>
<!-- pollution&#45;&#45;économie -->
<g id="edge5" class="edge">
<title>pollution&#45;&#45;économie</title>
<path fill="none" stroke="darkgrey" stroke-width="10" d="M271.5,-148.78C308.57,-148.51 363.91,-148.1 387.46,-147.93"/>
</g>
<!-- pollution&#45;&#45;emploi -->
<g id="edge6" class="edge">
<title>pollution&#45;&#45;emploi</title>
<path fill="none" stroke="darkgrey" stroke-width="9.4" d="M253.64,-180.34C272.46,-212.31 300.56,-260.04 312.51,-280.35"/>
</g>
<!-- pollution -->
<g id="node1" class="node">
<title>pollution</title>
<ellipse fill="#fcffa4" stroke="white" stroke-width="0" cx="235.22" cy="-149.05" rx="36" ry="36"/>
<text text-anchor="middle" x="137.72" y="-193.65" font-family="Helvetica,sans-Serif" font-size="28.00" fill="#4d4d4d">pollution</text>
</g>
<!-- épuisement -->
<g id="node2" class="node">
<title>épuisement</title>
<ellipse fill="#02020e" stroke="white" stroke-width="0" cx="71.5" cy="-150.04" rx="0.5" ry="0.5"/>
<text text-anchor="middle" x="35.5" y="-153.94" font-family="Helvetica,sans-Serif" font-size="12.00" fill="#4d4d4d">épuisement</text>
</g>
<!-- environnement -->
<g id="node3" class="node">
<title>environnement</title>
<ellipse fill="#490b6a" stroke="white" stroke-width="0" cx="153.01" cy="-8.23" rx="7" ry="7"/>
<text text-anchor="middle" x="88.01" y="-20.07" font-family="Helvetica,sans-Serif" font-size="15.20" fill="#4d4d4d">environnement</text>
</g>
<!-- ressource -->
<g id="node4" class="node">
<title>ressource</title>
<ellipse fill="#2f0a5b" stroke="white" stroke-width="0" cx="315.89" cy="-7" rx="7" ry="7"/>
<text text-anchor="middle" x="271.89" y="-18.84" font-family="Helvetica,sans-Serif" font-size="15.20" fill="#4d4d4d">ressource</text>
</g>
<!-- destruction -->
<g id="node5" class="node">
<title>destruction</title>
<ellipse fill="#000004" stroke="white" stroke-width="0" cx="154.7" cy="-291.39" rx="0.5" ry="0.5"/>
<text text-anchor="middle" x="120.2" y="-295.29" font-family="Helvetica,sans-Serif" font-size="12.00" fill="#4d4d4d">destruction</text>
</g>
<!-- économie -->
<g id="node6" class="node">
<title>économie</title>
<ellipse fill="#6c186e" stroke="white" stroke-width="0" cx="398.71" cy="-147.85" rx="11" ry="11"/>
<text text-anchor="middle" x="346.21" y="-163.41" font-family="Helvetica,sans-Serif" font-size="16.80" fill="#4d4d4d">économie</text>
</g>
<!-- emploi -->
<g id="node7" class="node">
<title>emploi</title>
<ellipse fill="#520e6d" stroke="white" stroke-width="0" cx="318.22" cy="-290.05" rx="11" ry="11"/>
<text text-anchor="middle" x="278.22" y="-305.61" font-family="Helvetica,sans-Serif" font-size="16.80" fill="#4d4d4d">emploi</text>
</g>
</g>
</svg>
