<?xml version="1.0" encoding="UTF-8" standalone="no"?>
<!DOCTYPE svg PUBLIC "-//W3C//DTD SVG 1.1//EN"
 "http://www.w3.org/Graphics/SVG/1.1/DTD/svg11.dtd">
<!-- Generated by graphviz version 2.43.0 (0)
 -->
<!-- Pages: 1 -->
<svg width="372pt" height="341pt"
 viewBox="0.00 0.00 372.05 341.18" xmlns="http://www.w3.org/2000/svg" xmlns:xlink="http://www.w3.org/1999/xlink">
<g id="graph0" class="graph" transform="scale(1 1) rotate(0) translate(4 337.18)">
<polygon fill="white" stroke="transparent" points="-4,4 -4,-337.18 368.05,-337.18 368.05,4 -4,4"/>
<!-- pollution&#45;&#45;épuisement -->
<g id="edge1" class="edge">
<title>pollution&#45;&#45;épuisement</title>
<path fill="none" stroke="darkgrey" d="M191.48,-155.76C148.22,-155.24 80.62,-154.44 72.34,-154.34"/>
</g>
<!-- pollution&#45;&#45;environnement -->
<g id="edge2" class="edge">
<title>pollution&#45;&#45;environnement</title>
<path fill="none" stroke="darkgrey" stroke-width="4.02" d="M216.89,-121.59C205.7,-85.78 189.04,-32.51 183.19,-13.8"/>
</g>
<!-- pollution&#45;&#45;destruction -->
<g id="edge3" class="edge">
<title>pollution&#45;&#45;destruction</title>
<path fill="none" stroke="darkgrey" stroke-width="10" d="M257.31,-135.23C292.64,-110.2 347.86,-71.08 354.62,-66.29"/>
</g>
<!-- pollution&#45;&#45;économie -->
<g id="edge4" class="edge">
<title>pollution&#45;&#45;économie</title>
<path fill="none" stroke="darkgrey" stroke-width="4.17" d="M216.07,-190.51C204.77,-223.82 188.31,-272.34 181.11,-293.57"/>
</g>
<!-- pollution&#45;&#45;emploi -->
<g id="edge5" class="edge">
<title>pollution&#45;&#45;emploi</title>
<path fill="none" stroke="darkgrey" stroke-width="4.94" d="M256.78,-177.86C284.99,-198.89 326.08,-229.52 344.06,-242.93"/>
</g>
<!-- pollution -->
<g id="node1" class="node">
<title>pollution</title>
<ellipse fill="#fcffa4" stroke="white" stroke-width="0" cx="227.71" cy="-156.19" rx="36" ry="36"/>
<text text-anchor="middle" x="130.21" y="-200.79" font-family="Helvetica,sans-Serif" font-size="28.00" fill="#4d4d4d">pollution</text>
</g>
<!-- épuisement -->
<g id="node2" class="node">
<title>épuisement</title>
<ellipse fill="#02020e" stroke="white" stroke-width="0" cx="71.5" cy="-154.33" rx="0.5" ry="0.5"/>
<text text-anchor="middle" x="35.5" y="-158.23" font-family="Helvetica,sans-Serif" font-size="12.00" fill="#4d4d4d">épuisement</text>
</g>
<!-- environnement -->
<g id="node3" class="node">
<title>environnement</title>
<ellipse fill="#490b6a" stroke="white" stroke-width="0" cx="181.06" cy="-7" rx="7" ry="7"/>
<text text-anchor="middle" x="116.06" y="-18.84" font-family="Helvetica,sans-Serif" font-size="15.20" fill="#4d4d4d">environnement</text>
</g>
<!-- destruction -->
<g id="node4" class="node">
<title>destruction</title>
<ellipse fill="#000004" stroke="white" stroke-width="0" cx="355.31" cy="-65.81" rx="0.5" ry="0.5"/>
<text text-anchor="middle" x="320.81" y="-69.71" font-family="Helvetica,sans-Serif" font-size="12.00" fill="#4d4d4d">destruction</text>
</g>
<!-- économie -->
<g id="node5" class="node">
<title>économie</title>
<ellipse fill="#6c186e" stroke="white" stroke-width="0" cx="177.51" cy="-304.18" rx="11" ry="11"/>
<text text-anchor="middle" x="125.01" y="-319.74" font-family="Helvetica,sans-Serif" font-size="16.80" fill="#4d4d4d">économie</text>
</g>
<!-- emploi -->
<g id="node6" class="node">
<title>emploi</title>
<ellipse fill="#520e6d" stroke="white" stroke-width="0" cx="353.05" cy="-249.63" rx="11" ry="11"/>
<text text-anchor="middle" x="313.05" y="-265.19" font-family="Helvetica,sans-Serif" font-size="16.80" fill="#4d4d4d">emploi</text>
</g>
</g>
</svg>
