<?xml version="1.0" encoding="UTF-8" standalone="no"?>
<!DOCTYPE svg PUBLIC "-//W3C//DTD SVG 1.1//EN"
 "http://www.w3.org/Graphics/SVG/1.1/DTD/svg11.dtd">
<!-- Generated by graphviz version 2.43.0 (0)
 -->
<!-- Pages: 1 -->
<svg width="613pt" height="355pt"
 viewBox="0.00 0.00 613.18 355.03" xmlns="http://www.w3.org/2000/svg" xmlns:xlink="http://www.w3.org/1999/xlink">
<g id="graph0" class="graph" transform="scale(1 1) rotate(0) translate(4 351.03)">
<polygon fill="white" stroke="transparent" points="-4,4 -4,-351.03 609.18,-351.03 609.18,4 -4,4"/>
<!-- fin&#45;&#45;pollution -->
<g id="edge1" class="edge">
<title>fin&#45;&#45;pollution</title>
<path fill="none" stroke="darkgrey" stroke-width="1.02" d="M423.07,-307.55C414.8,-285.33 395.32,-232.97 383.89,-202.25"/>
</g>
<!-- fin&#45;&#45;impact environnemental -->
<g id="edge2" class="edge">
<title>fin&#45;&#45;impact environnemental</title>
<path fill="none" stroke="darkgrey" stroke-width="1.46" d="M427.67,-306.8C429.07,-284.34 432.26,-233.05 434.45,-197.91"/>
</g>
<!-- pollution&#45;&#45;impact environnemental -->
<g id="edge9" class="edge">
<title>pollution&#45;&#45;impact environnemental</title>
<path fill="none" stroke="darkgrey" stroke-width="10" d="M399.44,-171.97C400.25,-171.75 401.06,-171.53 401.88,-171.3"/>
</g>
<!-- pollution&#45;&#45;économie du pays -->
<g id="edge10" class="edge">
<title>pollution&#45;&#45;économie du pays</title>
<path fill="none" stroke="darkgrey" stroke-width="2.14" d="M393.45,-161.28C411.92,-143.85 439.57,-117.76 453.3,-104.79"/>
</g>
<!-- pollution&#45;&#45;amélioration environnementale -->
<g id="edge11" class="edge">
<title>pollution&#45;&#45;amélioration environnementale</title>
<path fill="none" stroke="darkgrey" stroke-width="1.33" d="M366.74,-154.96C357.61,-129.09 343.2,-88.25 335.08,-65.25"/>
</g>
<!-- pollution&#45;&#45;épuisement de la ressource -->
<g id="edge7" class="edge">
<title>pollution&#45;&#45;épuisement de la ressource</title>
<path fill="none" stroke="darkgrey" stroke-width="3.28" d="M350.05,-180.16C339.08,-180.84 326.77,-181.6 318.09,-182.13"/>
</g>
<!-- pollution&#45;&#45;biodiversité -->
<g id="edge8" class="edge">
<title>pollution&#45;&#45;biodiversité</title>
<path fill="none" stroke="darkgrey" stroke-width="1.03" d="M359.79,-198.54C339.97,-224.36 306.91,-267.43 298,-279.03"/>
</g>
<!-- impact environnemental&#45;&#45;économie du pays -->
<g id="edge17" class="edge">
<title>impact environnemental&#45;&#45;économie du pays</title>
<path fill="none" stroke="darkgrey" stroke-width="3.16" d="M449.63,-128.21C452.58,-120.54 455.5,-112.95 457.72,-107.17"/>
</g>
<!-- impact environnemental&#45;&#45;amélioration environnementale -->
<g id="edge18" class="edge">
<title>impact environnemental&#45;&#45;amélioration environnementale</title>
<path fill="none" stroke="darkgrey" stroke-width="2.26" d="M411.72,-135.42C389.72,-112.18 358.6,-79.3 341.49,-61.22"/>
</g>
<!-- impact environnemental&#45;&#45;conflit -->
<g id="edge15" class="edge">
<title>impact environnemental&#45;&#45;conflit</title>
<path fill="none" stroke="darkgrey" stroke-width="2.93" d="M400.71,-156.67C352.39,-149.77 269.75,-137.97 245.11,-134.45"/>
</g>
<!-- impact environnemental&#45;&#45;développement -->
<g id="edge16" class="edge">
<title>impact environnemental&#45;&#45;développement</title>
<path fill="none" stroke="darkgrey" stroke-width="1.69" d="M467.2,-142.18C499.67,-121.28 549.14,-89.43 569.56,-76.29"/>
</g>
<!-- impact environnemental&#45;&#45;richesse -->
<g id="edge19" class="edge">
<title>impact environnemental&#45;&#45;richesse</title>
<path fill="none" stroke="darkgrey" stroke-width="1.23" d="M468.3,-179.24C514.67,-204.82 596.54,-249.98 604.11,-254.16"/>
</g>
<!-- emploi&#45;&#45;pollution -->
<g id="edge3" class="edge">
<title>emploi&#45;&#45;pollution</title>
<path fill="none" stroke="darkgrey" stroke-width="4.2" d="M401.41,-57.84C396.09,-82.26 386.51,-126.21 380.49,-153.82"/>
</g>
<!-- emploi&#45;&#45;impact environnemental -->
<g id="edge4" class="edge">
<title>emploi&#45;&#45;impact environnemental</title>
<path fill="none" stroke="darkgrey" stroke-width="3.83" d="M409.8,-57.45C414.45,-75.48 421.82,-104.1 427.68,-126.81"/>
</g>
<!-- emploi&#45;&#45;économie du pays -->
<g id="edge5" class="edge">
<title>emploi&#45;&#45;économie du pays</title>
<path fill="none" stroke="darkgrey" stroke-width="2.51" d="M418.09,-52.91C429.01,-63.93 444.37,-79.42 453.64,-88.78"/>
</g>
<!-- emploi&#45;&#45;amélioration environnementale -->
<g id="edge6" class="edge">
<title>emploi&#45;&#45;amélioration environnementale</title>
<path fill="none" stroke="darkgrey" stroke-width="2.45" d="M387.22,-41.9C375.06,-43.18 359.09,-44.86 346.95,-46.14"/>
</g>
<!-- épuisement de la ressource&#45;&#45;impact environnemental -->
<g id="edge12" class="edge">
<title>épuisement de la ressource&#45;&#45;impact environnemental</title>
<path fill="none" stroke="darkgrey" stroke-width="3.72" d="M317.87,-181.04C336.09,-178.09 373.16,-172.09 401.08,-167.58"/>
</g>
<!-- épuisement de la ressource&#45;&#45;économie du pays -->
<g id="edge14" class="edge">
<title>épuisement de la ressource&#45;&#45;économie du pays</title>
<path fill="none" stroke="darkgrey" d="M316.48,-177.46C344.29,-162.02 424.18,-117.7 451.99,-102.27"/>
</g>
<!-- épuisement de la ressource&#45;&#45;conflit -->
<g id="edge13" class="edge">
<title>épuisement de la ressource&#45;&#45;conflit</title>
<path fill="none" stroke="darkgrey" stroke-width="1.28" d="M297.79,-176.37C283.51,-166.12 256.03,-146.4 243.93,-137.72"/>
</g>
<!-- développement&#45;&#45;économie du pays -->
<g id="edge20" class="edge">
<title>développement&#45;&#45;économie du pays</title>
<path fill="none" stroke="darkgrey" stroke-width="1.14" d="M568.06,-72.75C545.73,-77.82 494.77,-89.38 472.46,-94.44"/>
</g>
<!-- fin -->
<g id="node1" class="node">
<title>fin</title>
<ellipse fill="#741a6e" stroke="white" stroke-width="0" cx="426.97" cy="-318.03" rx="11" ry="11"/>
<text text-anchor="middle" x="404.97" y="-333.59" font-family="Helvetica,sans-Serif" font-size="16.80" fill="#4d4d4d">fin</text>
</g>
<!-- pollution -->
<g id="node2" class="node">
<title>pollution</title>
<ellipse fill="#ef6c23" stroke="white" stroke-width="0" cx="375.09" cy="-178.61" rx="25" ry="25"/>
<text text-anchor="middle" x="298.59" y="-211.05" font-family="Helvetica,sans-Serif" font-size="23.20" fill="#4d4d4d">pollution</text>
</g>
<!-- impact environnemental -->
<g id="node3" class="node">
<title>impact environnemental</title>
<ellipse fill="#fcffa4" stroke="white" stroke-width="0" cx="436.7" cy="-161.81" rx="36" ry="36"/>
<text text-anchor="middle" x="228.2" y="-103.41" font-family="Helvetica,sans-Serif" font-size="28.00" fill="#4d4d4d">impact environnemental</text>
</g>
<!-- emploi -->
<g id="node4" class="node">
<title>emploi</title>
<ellipse fill="#b3325a" stroke="white" stroke-width="0" cx="405.3" cy="-40" rx="18" ry="18"/>
<text text-anchor="middle" x="353.8" y="-6" font-family="Helvetica,sans-Serif" font-size="20.00" fill="#4d4d4d">emploi</text>
</g>
<!-- économie du pays -->
<g id="node5" class="node">
<title>économie du pays</title>
<ellipse fill="#5d126e" stroke="white" stroke-width="0" cx="461.67" cy="-96.89" rx="11" ry="11"/>
<text text-anchor="middle" x="373.67" y="-72.45" font-family="Helvetica,sans-Serif" font-size="16.80" fill="#4d4d4d">économie du pays</text>
</g>
<!-- amélioration environnementale -->
<g id="node6" class="node">
<title>amélioration environnementale</title>
<ellipse fill="#ae305c" stroke="white" stroke-width="0" cx="329" cy="-48.03" rx="18" ry="18"/>
<text text-anchor="middle" x="155.5" y="-36.03" font-family="Helvetica,sans-Serif" font-size="20.00" fill="#4d4d4d">amélioration environnementale</text>
</g>
<!-- épuisement de la ressource -->
<g id="node7" class="node">
<title>épuisement de la ressource</title>
<ellipse fill="#62146e" stroke="white" stroke-width="0" cx="306.79" cy="-182.83" rx="11" ry="11"/>
<text text-anchor="middle" x="178.29" y="-176.39" font-family="Helvetica,sans-Serif" font-size="16.80" fill="#4d4d4d">épuisement de la ressource</text>
</g>
<!-- biodiversité -->
<g id="node8" class="node">
<title>biodiversité</title>
<ellipse fill="#0b0724" stroke="white" stroke-width="0" cx="295.74" cy="-281.99" rx="3.5" ry="3.5"/>
<text text-anchor="middle" x="252.24" y="-289.61" font-family="Helvetica,sans-Serif" font-size="13.60" fill="#4d4d4d">biodiversité</text>
</g>
<!-- conflit -->
<g id="node9" class="node">
<title>conflit</title>
<ellipse fill="#450a69" stroke="white" stroke-width="0" cx="237.97" cy="-133.44" rx="7" ry="7"/>
<text text-anchor="middle" x="206.97" y="-145.28" font-family="Helvetica,sans-Serif" font-size="15.20" fill="#4d4d4d">conflit</text>
</g>
<!-- développement -->
<g id="node10" class="node">
<title>développement</title>
<ellipse fill="#59106e" stroke="white" stroke-width="0" cx="578.87" cy="-70.3" rx="11" ry="11"/>
<text text-anchor="middle" x="501.37" y="-45.86" font-family="Helvetica,sans-Serif" font-size="16.80" fill="#4d4d4d">développement</text>
</g>
<!-- richesse -->
<g id="node11" class="node">
<title>richesse</title>
<ellipse fill="#000004" stroke="white" stroke-width="0" cx="604.68" cy="-254.47" rx="0.5" ry="0.5"/>
<text text-anchor="middle" x="579.18" y="-258.37" font-family="Helvetica,sans-Serif" font-size="12.00" fill="#4d4d4d">richesse</text>
</g>
</g>
</svg>
