<?xml version="1.0" encoding="UTF-8" standalone="no"?>
<!DOCTYPE svg PUBLIC "-//W3C//DTD SVG 1.1//EN"
 "http://www.w3.org/Graphics/SVG/1.1/DTD/svg11.dtd">
<!-- Generated by graphviz version 2.43.0 (0)
 -->
<!-- Pages: 1 -->
<svg width="1152pt" height="569pt"
 viewBox="0.00 0.00 1152.07 568.62" xmlns="http://www.w3.org/2000/svg" xmlns:xlink="http://www.w3.org/1999/xlink">
<g id="graph0" class="graph" transform="scale(1 1) rotate(0) translate(4 564.62)">
<polygon fill="white" stroke="transparent" points="-4,4 -4,-564.62 1148.07,-564.62 1148.07,4 -4,4"/>
<!-- avenir sans nickel&#45;&#45;industrie -->
<g id="edge1" class="edge">
<title>avenir sans nickel&#45;&#45;industrie</title>
<path fill="none" stroke="darkgrey" stroke-width="1.29" d="M420.38,-383.36C421.62,-428.33 423.91,-511.18 424.43,-529.98"/>
</g>
<!-- avenir sans nickel&#45;&#45;travail -->
<g id="edge2" class="edge">
<title>avenir sans nickel&#45;&#45;travail</title>
<path fill="none" stroke="darkgrey" stroke-width="4.26" d="M418.97,-324.94C418.35,-295.21 417.42,-250 416.9,-224.93"/>
</g>
<!-- avenir sans nickel&#45;&#45;politique -->
<g id="edge3" class="edge">
<title>avenir sans nickel&#45;&#45;politique</title>
<path fill="none" stroke="darkgrey" stroke-width="4.77" d="M403.95,-329.55C401.93,-326.38 399.89,-323.18 397.96,-320.14"/>
</g>
<!-- avenir sans nickel&#45;&#45;secteur nickel -->
<g id="edge4" class="edge">
<title>avenir sans nickel&#45;&#45;secteur nickel</title>
<path fill="none" stroke="darkgrey" stroke-width="4.38" d="M446.03,-342.2C501.07,-317.49 626.84,-261.04 675.66,-239.13"/>
</g>
<!-- avenir sans nickel&#45;&#45;relation politique -->
<g id="edge5" class="edge">
<title>avenir sans nickel&#45;&#45;relation politique</title>
<path fill="none" stroke="darkgrey" stroke-width="1.61" d="M436.8,-377.9C469.98,-423.75 540.6,-521.37 553.55,-539.27"/>
</g>
<!-- avenir sans nickel&#45;&#45;avenir avec nickel -->
<g id="edge6" class="edge">
<title>avenir sans nickel&#45;&#45;avenir avec nickel</title>
<path fill="none" stroke="darkgrey" stroke-width="3.37" d="M428.63,-326.3C451.9,-254.99 512.95,-67.87 528.07,-21.51"/>
</g>
<!-- avenir sans nickel&#45;&#45;pollution -->
<g id="edge7" class="edge">
<title>avenir sans nickel&#45;&#45;pollution</title>
<path fill="none" stroke="darkgrey" stroke-width="7.04" d="M405.91,-328.3C396.12,-309.83 383.07,-285.2 373.74,-267.57"/>
</g>
<!-- avenir sans nickel&#45;&#45;ressource minière -->
<g id="edge8" class="edge">
<title>avenir sans nickel&#45;&#45;ressource minière</title>
<path fill="none" stroke="darkgrey" stroke-width="5.62" d="M448.56,-352.55C488.34,-350.45 559.18,-346.71 596.81,-344.72"/>
</g>
<!-- avenir sans nickel&#45;&#45;dégradation environnementale -->
<g id="edge9" class="edge">
<title>avenir sans nickel&#45;&#45;dégradation environnementale</title>
<path fill="none" stroke="darkgrey" stroke-width="7.98" d="M441.69,-334.97C459.98,-319.17 486.04,-296.65 505.63,-279.73"/>
</g>
<!-- avenir sans nickel&#45;&#45;nature -->
<g id="edge10" class="edge">
<title>avenir sans nickel&#45;&#45;nature</title>
<path fill="none" stroke="darkgrey" stroke-width="2.63" d="M435.7,-329.79C476.4,-268.49 581.96,-109.53 608.49,-69.57"/>
</g>
<!-- avenir sans nickel&#45;&#45;société néo&#45;calédonienne -->
<g id="edge11" class="edge">
<title>avenir sans nickel&#45;&#45;société néo&#45;calédonienne</title>
<path fill="none" stroke="darkgrey" stroke-width="4.03" d="M425.22,-325.45C436.36,-269.06 460.77,-145.44 469.09,-103.28"/>
</g>
<!-- avenir sans nickel&#45;&#45;nouvelle&#45;calédonie -->
<g id="edge12" class="edge">
<title>avenir sans nickel&#45;&#45;nouvelle&#45;calédonie</title>
<path fill="none" stroke="darkgrey" stroke-width="1.2" d="M446.84,-363.98C461.71,-369.38 478.95,-375.63 488.27,-379.02"/>
</g>
<!-- avenir sans nickel&#45;&#45;alternative au développement -->
<g id="edge13" class="edge">
<title>avenir sans nickel&#45;&#45;alternative au développement</title>
<path fill="none" stroke="darkgrey" stroke-width="5.98" d="M447.92,-347.13C498.78,-334.65 604.94,-308.59 655.94,-296.08"/>
</g>
<!-- avenir sans nickel&#45;&#45;nickel -->
<g id="edge14" class="edge">
<title>avenir sans nickel&#45;&#45;nickel</title>
<path fill="none" stroke="darkgrey" stroke-width="1.21" d="M446.14,-366.17C490.53,-386.37 577.29,-425.84 601.44,-436.82"/>
</g>
<!-- avenir sans nickel&#45;&#45;économie -->
<g id="edge15" class="edge">
<title>avenir sans nickel&#45;&#45;économie</title>
<path fill="none" stroke="darkgrey" stroke-width="3.85" d="M447.61,-346.43C480.4,-337.48 533.66,-322.94 561.02,-315.48"/>
</g>
<!-- avenir sans nickel&#45;&#45;amélioration environnementale -->
<g id="edge16" class="edge">
<title>avenir sans nickel&#45;&#45;amélioration environnementale</title>
<path fill="none" stroke="darkgrey" stroke-width="2.42" d="M439.98,-333.31C484.15,-288.36 587,-183.7 616.56,-153.61"/>
</g>
<!-- avenir sans nickel&#45;&#45;essor technologique -->
<g id="edge17" class="edge">
<title>avenir sans nickel&#45;&#45;essor technologique</title>
<path fill="none" stroke="darkgrey" stroke-width="2.39" d="M430.75,-327.08C448.41,-284.4 482.27,-202.6 496.82,-167.45"/>
</g>
<!-- avenir sans nickel&#45;&#45;risque -->
<g id="edge18" class="edge">
<title>avenir sans nickel&#45;&#45;risque</title>
<path fill="none" stroke="darkgrey" stroke-width="1.45" d="M391.16,-346.92C305.39,-325.29 53.9,-261.87 38.26,-257.93"/>
</g>
<!-- industrie&#45;&#45;politique -->
<g id="edge19" class="edge">
<title>industrie&#45;&#45;politique</title>
<path fill="none" stroke="darkgrey" stroke-width="1.56" d="M423.93,-530.2C420.07,-506.7 398.51,-375.71 389.92,-323.47"/>
</g>
<!-- industrie&#45;&#45;secteur nickel -->
<g id="edge20" class="edge">
<title>industrie&#45;&#45;secteur nickel</title>
<path fill="none" stroke="darkgrey" stroke-width="1.43" d="M426.88,-531.22C449.43,-505.95 628.4,-305.43 681.03,-246.46"/>
</g>
<!-- industrie&#45;&#45;pollution -->
<g id="edge21" class="edge">
<title>industrie&#45;&#45;pollution</title>
<path fill="none" stroke="darkgrey" stroke-width="1.05" d="M423.74,-530.2C417.9,-503.25 381.26,-334.4 367.32,-270.1"/>
</g>
<!-- industrie&#45;&#45;ressource minière -->
<g id="edge22" class="edge">
<title>industrie&#45;&#45;ressource minière</title>
<path fill="none" stroke="darkgrey" stroke-width="1.83" d="M427.32,-531.15C446.49,-512.66 559.21,-403.9 603.79,-360.89"/>
</g>
<!-- industrie&#45;&#45;dégradation environnementale -->
<g id="edge23" class="edge">
<title>industrie&#45;&#45;dégradation environnementale</title>
<path fill="none" stroke="darkgrey" stroke-width="1.28" d="M425.9,-530.34C435.53,-505.66 493.42,-357.34 519.8,-289.72"/>
</g>
<!-- industrie&#45;&#45;alternative au développement -->
<g id="edge24" class="edge">
<title>industrie&#45;&#45;alternative au développement</title>
<path fill="none" stroke="darkgrey" stroke-width="1.56" d="M427.11,-531.42C449.04,-510.77 605.24,-363.69 663.05,-309.26"/>
</g>
<!-- industrie&#45;&#45;nickel -->
<g id="edge25" class="edge">
<title>industrie&#45;&#45;nickel</title>
<path fill="none" stroke="darkgrey" stroke-width="1.21" d="M427.71,-532.21C449.11,-521.23 572.02,-458.11 601.47,-442.98"/>
</g>
<!-- industrie&#45;&#45;économie -->
<g id="edge26" class="edge">
<title>industrie&#45;&#45;économie</title>
<path fill="none" stroke="darkgrey" stroke-width="1.57" d="M426.71,-530.69C442.24,-508.18 536.55,-371.47 568.16,-325.66"/>
</g>
<!-- travail&#45;&#45;politique -->
<g id="edge28" class="edge">
<title>travail&#45;&#45;politique</title>
<path fill="none" stroke="darkgrey" stroke-width="4.21" d="M411,-224.06C405.9,-240.19 398.32,-264.16 392.92,-281.25"/>
</g>
<!-- travail&#45;&#45;secteur nickel -->
<g id="edge29" class="edge">
<title>travail&#45;&#45;secteur nickel</title>
<path fill="none" stroke="darkgrey" stroke-width="4.83" d="M434.83,-208.11C484.3,-212.3 620.48,-223.84 673.77,-228.35"/>
</g>
<!-- travail&#45;&#45;relation politique -->
<g id="edge30" class="edge">
<title>travail&#45;&#45;relation politique</title>
<path fill="none" stroke="darkgrey" stroke-width="1.1" d="M423.42,-223.2C449.51,-286.15 541.35,-507.7 554.13,-538.54"/>
</g>
<!-- travail&#45;&#45;avenir avec nickel -->
<g id="edge31" class="edge">
<title>travail&#45;&#45;avenir avec nickel</title>
<path fill="none" stroke="darkgrey" stroke-width="2.23" d="M425.74,-190.89C448.55,-152.1 507.13,-52.45 525.74,-20.8"/>
</g>
<!-- travail&#45;&#45;pollution -->
<g id="edge32" class="edge">
<title>travail&#45;&#45;pollution</title>
<path fill="none" stroke="darkgrey" stroke-width="6.53" d="M401.61,-217.14C395.67,-221.35 388.75,-226.27 382.36,-230.8"/>
</g>
<!-- travail&#45;&#45;ressource minière -->
<g id="edge33" class="edge">
<title>travail&#45;&#45;ressource minière</title>
<path fill="none" stroke="darkgrey" stroke-width="3.76" d="M431.63,-216.62C467.76,-240.69 559.25,-301.65 600.81,-329.33"/>
</g>
<!-- travail&#45;&#45;dégradation environnementale -->
<g id="edge34" class="edge">
<title>travail&#45;&#45;dégradation environnementale</title>
<path fill="none" stroke="darkgrey" stroke-width="7.58" d="M433.2,-213.67C450.42,-221.01 477.76,-232.67 499.46,-241.92"/>
</g>
<!-- travail&#45;&#45;nature -->
<g id="edge35" class="edge">
<title>travail&#45;&#45;nature</title>
<path fill="none" stroke="darkgrey" stroke-width="1.55" d="M431.09,-195.81C469.69,-167.32 573.81,-90.47 605.4,-67.15"/>
</g>
<!-- travail&#45;&#45;société néo&#45;calédonienne -->
<g id="edge36" class="edge">
<title>travail&#45;&#45;société néo&#45;calédonienne</title>
<path fill="none" stroke="darkgrey" stroke-width="4.31" d="M424.23,-190.2C435.29,-166.7 455.46,-123.85 465.67,-102.18"/>
</g>
<!-- travail&#45;&#45;nouvelle&#45;calédonie -->
<g id="edge37" class="edge">
<title>travail&#45;&#45;nouvelle&#45;calédonie</title>
<path fill="none" stroke="darkgrey" stroke-width="1.21" d="M423.92,-223.02C440.65,-260.27 480.85,-349.77 492.12,-374.86"/>
</g>
<!-- travail&#45;&#45;alternative au développement -->
<g id="edge38" class="edge">
<title>travail&#45;&#45;alternative au développement</title>
<path fill="none" stroke="darkgrey" stroke-width="4.88" d="M434.11,-211.97C479.52,-225.96 601.02,-263.37 656.35,-280.41"/>
</g>
<!-- travail&#45;&#45;nickel -->
<g id="edge39" class="edge">
<title>travail&#45;&#45;nickel</title>
<path fill="none" stroke="darkgrey" stroke-width="1.84" d="M428.2,-220.8C465.19,-265.88 578.76,-404.31 603.16,-434.06"/>
</g>
<!-- travail&#45;&#45;économie -->
<g id="edge40" class="edge">
<title>travail&#45;&#45;économie</title>
<path fill="none" stroke="darkgrey" stroke-width="4.85" d="M431.76,-216.36C462.63,-236.21 532.23,-280.97 563.16,-300.86"/>
</g>
<!-- travail&#45;&#45;amélioration environnementale -->
<g id="edge41" class="edge">
<title>travail&#45;&#45;amélioration environnementale</title>
<path fill="none" stroke="darkgrey" stroke-width="3.57" d="M433.91,-201.45C475.53,-189.22 579.92,-158.53 613.82,-148.57"/>
</g>
<!-- travail&#45;&#45;essor technologique -->
<g id="edge42" class="edge">
<title>travail&#45;&#45;essor technologique</title>
<path fill="none" stroke="darkgrey" stroke-width="3.55" d="M431.72,-196.83C447.63,-186.64 472.48,-170.73 488.44,-160.52"/>
</g>
<!-- travail&#45;&#45;risque -->
<g id="edge43" class="edge">
<title>travail&#45;&#45;risque</title>
<path fill="none" stroke="darkgrey" stroke-width="1.03" d="M398.5,-208.99C325.53,-218.85 55.15,-255.36 38.32,-257.63"/>
</g>
<!-- travail&#45;&#45;exploitation minière -->
<g id="edge27" class="edge">
<title>travail&#45;&#45;exploitation minière</title>
<path fill="none" stroke="darkgrey" stroke-width="1.51" d="M407.33,-191.01C391.57,-164.35 360.33,-111.5 352.31,-97.93"/>
</g>
<!-- travail&#45;&#45;matériel -->
<g id="edge44" class="edge">
<title>travail&#45;&#45;matériel</title>
<path fill="none" stroke="darkgrey" stroke-width="1.21" d="M400.78,-215.52C353.26,-242.54 213.89,-321.81 203.07,-327.96"/>
</g>
<!-- politique&#45;&#45;secteur nickel -->
<g id="edge56" class="edge">
<title>politique&#45;&#45;secteur nickel</title>
<path fill="none" stroke="darkgrey" stroke-width="4.88" d="M407.63,-297.02C464.24,-283.88 618.24,-248.14 674.55,-235.07"/>
</g>
<!-- politique&#45;&#45;relation politique -->
<g id="edge57" class="edge">
<title>politique&#45;&#45;relation politique</title>
<path fill="none" stroke="darkgrey" stroke-width="2.45" d="M398.82,-319.61C434.85,-370.74 537.7,-516.7 553.55,-539.19"/>
</g>
<!-- politique&#45;&#45;avenir avec nickel -->
<g id="edge58" class="edge">
<title>politique&#45;&#45;avenir avec nickel</title>
<path fill="none" stroke="darkgrey" stroke-width="2" d="M396.13,-282.41C424.34,-225.84 505.43,-63.28 526.47,-21.1"/>
</g>
<!-- politique&#45;&#45;pollution -->
<g id="edge59" class="edge">
<title>politique&#45;&#45;pollution</title>
<path fill="none" stroke="darkgrey" stroke-width="4.78" d="M377.83,-282.14C375.9,-277.67 373.84,-272.89 371.86,-268.3"/>
</g>
<!-- politique&#45;&#45;ressource minière -->
<g id="edge60" class="edge">
<title>politique&#45;&#45;ressource minière</title>
<path fill="none" stroke="darkgrey" stroke-width="4.55" d="M407.7,-305.71C451.29,-313.38 550.45,-330.82 596.96,-339.01"/>
</g>
<!-- politique&#45;&#45;dégradation environnementale -->
<g id="edge61" class="edge">
<title>politique&#45;&#45;dégradation environnementale</title>
<path fill="none" stroke="darkgrey" stroke-width="6.65" d="M407.06,-295.49C430.8,-288.07 470.12,-275.79 498.49,-266.92"/>
</g>
<!-- politique&#45;&#45;nature -->
<g id="edge62" class="edge">
<title>politique&#45;&#45;nature</title>
<path fill="none" stroke="darkgrey" stroke-width="1.72" d="M401.35,-286.1C445.39,-239.49 573.43,-103.95 606.66,-68.77"/>
</g>
<!-- politique&#45;&#45;société néo&#45;calédonienne -->
<g id="edge63" class="edge">
<title>politique&#45;&#45;société néo&#45;calédonienne</title>
<path fill="none" stroke="darkgrey" stroke-width="3.71" d="M394.43,-281.91C411.69,-238.91 451.89,-138.79 466.51,-102.4"/>
</g>
<!-- politique&#45;&#45;nouvelle&#45;calédonie -->
<g id="edge64" class="edge">
<title>politique&#45;&#45;nouvelle&#45;calédonie</title>
<path fill="none" stroke="darkgrey" stroke-width="2.33" d="M403.85,-314.74C428.82,-333 473.45,-365.66 489.31,-377.26"/>
</g>
<!-- politique&#45;&#45;alternative au développement -->
<g id="edge65" class="edge">
<title>politique&#45;&#45;alternative au développement</title>
<path fill="none" stroke="darkgrey" stroke-width="4.07" d="M408.3,-301.01C461.14,-298.72 595.59,-292.91 655.23,-290.34"/>
</g>
<!-- politique&#45;&#45;nickel -->
<g id="edge66" class="edge">
<title>politique&#45;&#45;nickel</title>
<path fill="none" stroke="darkgrey" stroke-width="1.88" d="M404.88,-313.46C451.65,-342.57 572.97,-418.04 601.66,-435.9"/>
</g>
<!-- politique&#45;&#45;économie -->
<g id="edge67" class="edge">
<title>politique&#45;&#45;économie</title>
<path fill="none" stroke="darkgrey" stroke-width="4.22" d="M408.04,-302.94C446.21,-304.68 524.76,-308.26 560.3,-309.88"/>
</g>
<!-- politique&#45;&#45;amélioration environnementale -->
<g id="edge68" class="edge">
<title>politique&#45;&#45;amélioration environnementale</title>
<path fill="none" stroke="darkgrey" stroke-width="1.55" d="M404.68,-289.93C452.41,-258.57 579.44,-175.09 615.17,-151.61"/>
</g>
<!-- politique&#45;&#45;essor technologique -->
<g id="edge69" class="edge">
<title>politique&#45;&#45;essor technologique</title>
<path fill="none" stroke="darkgrey" stroke-width="1.43" d="M399.61,-284.9C422.88,-254.93 470.68,-193.32 492.48,-165.24"/>
</g>
<!-- politique&#45;&#45;risque -->
<g id="edge70" class="edge">
<title>politique&#45;&#45;risque</title>
<path fill="none" stroke="darkgrey" stroke-width="1.73" d="M364.82,-299.22C291.13,-289.88 53.03,-259.71 38.22,-257.83"/>
</g>
<!-- secteur nickel&#45;&#45;relation politique -->
<g id="edge71" class="edge">
<title>secteur nickel&#45;&#45;relation politique</title>
<path fill="none" stroke="darkgrey" stroke-width="2.14" d="M686.58,-250.18C657.99,-313.92 570.09,-509.85 557.2,-538.59"/>
</g>
<!-- secteur nickel&#45;&#45;avenir avec nickel -->
<g id="edge72" class="edge">
<title>secteur nickel&#45;&#45;avenir avec nickel</title>
<path fill="none" stroke="darkgrey" stroke-width="2.29" d="M682.4,-212.63C649.25,-168.34 563.13,-53.27 538.3,-20.08"/>
</g>
<!-- secteur nickel&#45;&#45;pollution -->
<g id="edge73" class="edge">
<title>secteur nickel&#45;&#45;pollution</title>
<path fill="none" stroke="darkgrey" stroke-width="5.06" d="M673.91,-231.18C614.71,-233.85 450.27,-241.29 387.1,-244.15"/>
</g>
<!-- secteur nickel&#45;&#45;ressource minière -->
<g id="edge74" class="edge">
<title>secteur nickel&#45;&#45;ressource minière</title>
<path fill="none" stroke="darkgrey" stroke-width="3.13" d="M683.71,-248.38C670.63,-268.51 649.56,-300.9 635.72,-322.17"/>
</g>
<!-- secteur nickel&#45;&#45;dégradation environnementale -->
<g id="edge75" class="edge">
<title>secteur nickel&#45;&#45;dégradation environnementale</title>
<path fill="none" stroke="darkgrey" stroke-width="4.62" d="M674.28,-233.59C647.41,-237.88 600.79,-245.33 568.46,-250.49"/>
</g>
<!-- secteur nickel&#45;&#45;société néo&#45;calédonienne -->
<g id="edge76" class="edge">
<title>secteur nickel&#45;&#45;société néo&#45;calédonienne</title>
<path fill="none" stroke="darkgrey" stroke-width="3.05" d="M677.25,-218.63C633.13,-190.74 521.77,-120.36 484.39,-96.74"/>
</g>
<!-- secteur nickel&#45;&#45;nouvelle&#45;calédonie -->
<g id="edge77" class="edge">
<title>secteur nickel&#45;&#45;nouvelle&#45;calédonie</title>
<path fill="none" stroke="darkgrey" stroke-width="1.39" d="M678.11,-243.36C635.44,-275.57 527.33,-357.17 500.97,-377.07"/>
</g>
<!-- secteur nickel&#45;&#45;alternative au développement -->
<g id="edge78" class="edge">
<title>secteur nickel&#45;&#45;alternative au développement</title>
<path fill="none" stroke="darkgrey" stroke-width="7.34" d="M691.55,-251.45C691.01,-254.35 690.44,-257.36 689.88,-260.37"/>
</g>
<!-- secteur nickel&#45;&#45;nickel -->
<g id="edge79" class="edge">
<title>secteur nickel&#45;&#45;nickel</title>
<path fill="none" stroke="darkgrey" stroke-width="3.02" d="M687.13,-250.29C668.09,-295.76 622.42,-404.83 610.63,-432.99"/>
</g>
<!-- secteur nickel&#45;&#45;économie -->
<g id="edge80" class="edge">
<title>secteur nickel&#45;&#45;économie</title>
<path fill="none" stroke="darkgrey" stroke-width="3.57" d="M677.76,-242.43C654.73,-258.26 615,-285.59 593.44,-300.42"/>
</g>
<!-- secteur nickel&#45;&#45;amélioration environnementale -->
<g id="edge81" class="edge">
<title>secteur nickel&#45;&#45;amélioration environnementale</title>
<path fill="none" stroke="darkgrey" stroke-width="3.96" d="M681.53,-213.44C666.52,-195.49 643.29,-167.7 631.7,-153.85"/>
</g>
<!-- secteur nickel&#45;&#45;essor technologique -->
<g id="edge83" class="edge">
<title>secteur nickel&#45;&#45;essor technologique</title>
<path fill="none" stroke="darkgrey" stroke-width="3.57" d="M675.38,-221.84C637.39,-206.1 555.87,-172.31 520.59,-157.69"/>
</g>
<!-- secteur nickel&#45;&#45;foncier -->
<g id="edge82" class="edge">
<title>secteur nickel&#45;&#45;foncier</title>
<path fill="none" stroke="darkgrey" stroke-width="1.43" d="M717.15,-230.47C804.55,-231.57 1127.91,-235.65 1143.02,-235.84"/>
</g>
<!-- secteur nickel&#45;&#45;échange commercial -->
<g id="edge84" class="edge">
<title>secteur nickel&#45;&#45;échange commercial</title>
<path fill="none" stroke="darkgrey" stroke-width="1.31" d="M715.36,-239.3C770.58,-264.66 922.79,-334.56 932.25,-338.9"/>
</g>
<!-- relation politique&#45;&#45;pollution -->
<g id="edge85" class="edge">
<title>relation politique&#45;&#45;pollution</title>
<path fill="none" stroke="darkgrey" stroke-width="1.41" d="M553.7,-539.18C537.08,-513.71 417.03,-329.73 375.79,-266.53"/>
</g>
<!-- relation politique&#45;&#45;ressource minière -->
<g id="edge86" class="edge">
<title>relation politique&#45;&#45;ressource minière</title>
<path fill="none" stroke="darkgrey" stroke-width="1.28" d="M556.76,-538.67C563.5,-518.47 598.11,-414.73 613.97,-367.22"/>
</g>
<!-- relation politique&#45;&#45;dégradation environnementale -->
<g id="edge87" class="edge">
<title>relation politique&#45;&#45;dégradation environnementale</title>
<path fill="none" stroke="darkgrey" stroke-width="1.97" d="M555.33,-538.5C553.32,-513.29 541.36,-362.67 535.77,-292.33"/>
</g>
<!-- relation politique&#45;&#45;alternative au développement -->
<g id="edge88" class="edge">
<title>relation politique&#45;&#45;alternative au développement</title>
<path fill="none" stroke="darkgrey" stroke-width="1.13" d="M557.24,-538.92C568.99,-515.86 641.08,-374.31 671.24,-315.09"/>
</g>
<!-- relation politique&#45;&#45;économie -->
<g id="edge89" class="edge">
<title>relation politique&#45;&#45;économie</title>
<path fill="none" stroke="darkgrey" stroke-width="2.07" d="M555.97,-538.48C558.34,-514.51 571.77,-378.5 576.68,-328.85"/>
</g>
<!-- avenir avec nickel&#45;&#45;pollution -->
<g id="edge90" class="edge">
<title>avenir avec nickel&#45;&#45;pollution</title>
<path fill="none" stroke="darkgrey" stroke-width="1.89" d="M524.85,-20.18C499.99,-54.53 412.12,-175.95 376.79,-224.76"/>
</g>
<!-- avenir avec nickel&#45;&#45;ressource minière -->
<g id="edge91" class="edge">
<title>avenir avec nickel&#45;&#45;ressource minière</title>
<path fill="none" stroke="darkgrey" stroke-width="2.02" d="M534.41,-21.68C547.01,-68.02 597.13,-252.28 615.3,-319.06"/>
</g>
<!-- avenir avec nickel&#45;&#45;dégradation environnementale -->
<g id="edge92" class="edge">
<title>avenir avec nickel&#45;&#45;dégradation environnementale</title>
<path fill="none" stroke="darkgrey" stroke-width="3.39" d="M531.57,-22.17C531.76,-56.83 532.37,-163.6 532.69,-220.16"/>
</g>
<!-- avenir avec nickel&#45;&#45;société néo&#45;calédonienne -->
<g id="edge93" class="edge">
<title>avenir avec nickel&#45;&#45;société néo&#45;calédonienne</title>
<path fill="none" stroke="darkgrey" stroke-width="1.15" d="M524.67,-19.93C513.85,-34.07 492.79,-61.61 480.81,-77.26"/>
</g>
<!-- avenir avec nickel&#45;&#45;alternative au développement -->
<g id="edge94" class="edge">
<title>avenir avec nickel&#45;&#45;alternative au développement</title>
<path fill="none" stroke="darkgrey" stroke-width="3.13" d="M536.95,-20.9C558.45,-59.98 637.88,-204.36 670.43,-263.53"/>
</g>
<!-- avenir avec nickel&#45;&#45;économie -->
<g id="edge95" class="edge">
<title>avenir avec nickel&#45;&#45;économie</title>
<path fill="none" stroke="darkgrey" stroke-width="2.22" d="M533.23,-22.02C540.28,-67.01 566.92,-236.99 575.67,-292.82"/>
</g>
<!-- avenir avec nickel&#45;&#45;amélioration environnementale -->
<g id="edge96" class="edge">
<title>avenir avec nickel&#45;&#45;amélioration environnementale</title>
<path fill="none" stroke="darkgrey" stroke-width="3.02" d="M537.9,-20.24C554.92,-44.79 601.12,-111.47 618.19,-136.09"/>
</g>
<!-- avenir avec nickel&#45;&#45;essor technologique -->
<g id="edge97" class="edge">
<title>avenir avec nickel&#45;&#45;essor technologique</title>
<path fill="none" stroke="darkgrey" stroke-width="2.67" d="M529.32,-21.96C524.55,-46.02 513.1,-103.63 507.28,-132.94"/>
</g>
<!-- pollution&#45;&#45;ressource minière -->
<g id="edge98" class="edge">
<title>pollution&#45;&#45;ressource minière</title>
<path fill="none" stroke="darkgrey" stroke-width="5.05" d="M385.46,-254.17C434.83,-272.8 548.76,-315.79 598.25,-334.47"/>
</g>
<!-- pollution&#45;&#45;dégradation environnementale -->
<g id="edge99" class="edge">
<title>pollution&#45;&#45;dégradation environnementale</title>
<path fill="none" stroke="darkgrey" stroke-width="10" d="M387.16,-246.9C416.14,-248.74 463.92,-251.78 496.82,-253.88"/>
</g>
<!-- pollution&#45;&#45;nature -->
<g id="edge100" class="edge">
<title>pollution&#45;&#45;nature</title>
<path fill="none" stroke="darkgrey" stroke-width="3.24" d="M382.18,-230.47C433.95,-192.58 569.56,-93.32 605.67,-66.89"/>
</g>
<!-- pollution&#45;&#45;société néo&#45;calédonienne -->
<g id="edge101" class="edge">
<title>pollution&#45;&#45;société néo&#45;calédonienne</title>
<path fill="none" stroke="darkgrey" stroke-width="5.11" d="M376.31,-224.84C399.61,-191.71 444.87,-127.35 463.56,-100.78"/>
</g>
<!-- pollution&#45;&#45;nouvelle&#45;calédonie -->
<g id="edge102" class="edge">
<title>pollution&#45;&#45;nouvelle&#45;calédonie</title>
<path fill="none" stroke="darkgrey" stroke-width="1.53" d="M379.62,-263.38C410.18,-294.64 471.38,-357.24 489.76,-376.04"/>
</g>
<!-- pollution&#45;&#45;alternative au développement -->
<g id="edge103" class="edge">
<title>pollution&#45;&#45;alternative au développement</title>
<path fill="none" stroke="darkgrey" stroke-width="5.75" d="M386.71,-248.65C445.42,-256.62 592.79,-276.63 655.51,-285.14"/>
</g>
<!-- pollution&#45;&#45;nickel -->
<g id="edge104" class="edge">
<title>pollution&#45;&#45;nickel</title>
<path fill="none" stroke="darkgrey" stroke-width="2.93" d="M381.64,-260.87C433.6,-301.96 572.41,-411.73 602.15,-435.25"/>
</g>
<!-- pollution&#45;&#45;économie -->
<g id="edge105" class="edge">
<title>pollution&#45;&#45;économie</title>
<path fill="none" stroke="darkgrey" stroke-width="5.33" d="M385.93,-252.54C429.98,-265.85 522.72,-293.87 561.18,-305.49"/>
</g>
<!-- pollution&#45;&#45;amélioration environnementale -->
<g id="edge106" class="edge">
<title>pollution&#45;&#45;amélioration environnementale</title>
<path fill="none" stroke="darkgrey" stroke-width="2.21" d="M385.71,-236.25C440.9,-215.26 575.93,-163.91 614.31,-149.32"/>
</g>
<!-- pollution&#45;&#45;essor technologique -->
<g id="edge107" class="edge">
<title>pollution&#45;&#45;essor technologique</title>
<path fill="none" stroke="darkgrey" stroke-width="3.7" d="M382.86,-231.33C411.67,-212.12 462.9,-177.96 488.42,-160.94"/>
</g>
<!-- pollution&#45;&#45;risque -->
<g id="edge108" class="edge">
<title>pollution&#45;&#45;risque</title>
<path fill="none" stroke="darkgrey" stroke-width="1.62" d="M336.74,-246.26C262.9,-249.09 51.3,-257.21 38.14,-257.71"/>
</g>
<!-- ressource minière&#45;&#45;dégradation environnementale -->
<g id="edge109" class="edge">
<title>ressource minière&#45;&#45;dégradation environnementale</title>
<path fill="none" stroke="darkgrey" stroke-width="7.06" d="M603.9,-325.74C590.9,-313 573.14,-295.61 558.64,-281.4"/>
</g>
<!-- ressource minière&#45;&#45;nature -->
<g id="edge110" class="edge">
<title>ressource minière&#45;&#45;nature</title>
<path fill="none" stroke="darkgrey" d="M621.27,-318.28C619.74,-259.15 615.98,-113.05 614.91,-71.52"/>
</g>
<!-- ressource minière&#45;&#45;société néo&#45;calédonienne -->
<g id="edge111" class="edge">
<title>ressource minière&#45;&#45;société néo&#45;calédonienne</title>
<path fill="none" stroke="darkgrey" stroke-width="1.88" d="M609.13,-321.69C578.81,-270.24 503.31,-142.11 479.36,-101.45"/>
</g>
<!-- ressource minière&#45;&#45;nouvelle&#45;calédonie -->
<g id="edge112" class="edge">
<title>ressource minière&#45;&#45;nouvelle&#45;calédonie</title>
<path fill="none" stroke="darkgrey" stroke-width="1.81" d="M597.76,-350.65C568.16,-359.55 519.72,-374.1 501.93,-379.45"/>
</g>
<!-- ressource minière&#45;&#45;alternative au développement -->
<g id="edge113" class="edge">
<title>ressource minière&#45;&#45;alternative au développement</title>
<path fill="none" stroke="darkgrey" stroke-width="6.36" d="M641.03,-326.8C647.79,-320.94 655.44,-314.29 662.42,-308.23"/>
</g>
<!-- ressource minière&#45;&#45;nickel -->
<g id="edge114" class="edge">
<title>ressource minière&#45;&#45;nickel</title>
<path fill="none" stroke="darkgrey" stroke-width="1.67" d="M618.28,-368.2C615.15,-389.61 610.83,-419.14 608.86,-432.56"/>
</g>
<!-- ressource minière&#45;&#45;économie -->
<g id="edge115" class="edge">
<title>ressource minière&#45;&#45;économie</title>
<path fill="none" stroke="darkgrey" stroke-width="4.44" d="M601.72,-328.2C598.79,-326 595.83,-323.77 593.05,-321.68"/>
</g>
<!-- ressource minière&#45;&#45;amélioration environnementale -->
<g id="edge116" class="edge">
<title>ressource minière&#45;&#45;amélioration environnementale</title>
<path fill="none" stroke="darkgrey" stroke-width="2.55" d="M622.26,-318.32C622.85,-275.03 624.05,-187.93 624.48,-156.79"/>
</g>
<!-- ressource minière&#45;&#45;essor technologique -->
<g id="edge117" class="edge">
<title>ressource minière&#45;&#45;essor technologique</title>
<path fill="none" stroke="darkgrey" stroke-width="4.59" d="M608.82,-322.04C584.78,-282.85 534.17,-200.32 513.18,-166.09"/>
</g>
<!-- ressource minière&#45;&#45;échange commercial -->
<g id="edge118" class="edge">
<title>ressource minière&#45;&#45;échange commercial</title>
<path fill="none" stroke="darkgrey" stroke-width="1.06" d="M647.09,-343.05C718.76,-342.06 919.61,-339.3 932.1,-339.12"/>
</g>
<!-- dégradation environnementale&#45;&#45;nature -->
<g id="edge119" class="edge">
<title>dégradation environnementale&#45;&#45;nature</title>
<path fill="none" stroke="darkgrey" stroke-width="4.75" d="M546.94,-222.51C565.93,-177.02 598.74,-98.4 610.38,-70.51"/>
</g>
<!-- dégradation environnementale&#45;&#45;société néo&#45;calédonienne -->
<g id="edge120" class="edge">
<title>dégradation environnementale&#45;&#45;société néo&#45;calédonienne</title>
<path fill="none" stroke="darkgrey" stroke-width="3.74" d="M520.56,-222.32C507.2,-185.65 486.53,-128.92 477.03,-102.84"/>
</g>
<!-- dégradation environnementale&#45;&#45;nouvelle&#45;calédonie -->
<g id="edge121" class="edge">
<title>dégradation environnementale&#45;&#45;nouvelle&#45;calédonie</title>
<path fill="none" stroke="darkgrey" stroke-width="2.01" d="M522.47,-290.75C513.73,-319.73 501.94,-358.82 497.2,-374.53"/>
</g>
<!-- dégradation environnementale&#45;&#45;alternative au développement -->
<g id="edge122" class="edge">
<title>dégradation environnementale&#45;&#45;alternative au développement</title>
<path fill="none" stroke="darkgrey" stroke-width="6.86" d="M568.44,-263.89C595.04,-269.66 630.97,-277.46 655.76,-282.84"/>
</g>
<!-- dégradation environnementale&#45;&#45;nickel -->
<g id="edge123" class="edge">
<title>dégradation environnementale&#45;&#45;nickel</title>
<path fill="none" stroke="darkgrey" stroke-width="2.75" d="M546.64,-289.84C564.89,-334.55 595.89,-410.52 605.14,-433.16"/>
</g>
<!-- dégradation environnementale&#45;&#45;économie -->
<g id="edge124" class="edge">
<title>dégradation environnementale&#45;&#45;économie</title>
<path fill="none" stroke="darkgrey" stroke-width="7.09" d="M556.22,-284.08C559.9,-288.48 563.56,-292.87 566.81,-296.76"/>
</g>
<!-- dégradation environnementale&#45;&#45;amélioration environnementale -->
<g id="edge125" class="edge">
<title>dégradation environnementale&#45;&#45;amélioration environnementale</title>
<path fill="none" stroke="darkgrey" stroke-width="2.65" d="M556.05,-228.22C576.32,-203.73 604.52,-169.68 617.53,-153.96"/>
</g>
<!-- dégradation environnementale&#45;&#45;essor technologique -->
<g id="edge126" class="edge">
<title>dégradation environnementale&#45;&#45;essor technologique</title>
<path fill="none" stroke="darkgrey" stroke-width="4.07" d="M523.27,-221.35C518.36,-203.59 512.61,-182.76 508.62,-168.34"/>
</g>
<!-- dégradation environnementale&#45;&#45;matériel -->
<g id="edge128" class="edge">
<title>dégradation environnementale&#45;&#45;matériel</title>
<path fill="none" stroke="darkgrey" stroke-width="1.1" d="M497.53,-263.9C414.93,-281.93 215.4,-325.5 203.01,-328.21"/>
</g>
<!-- dégradation environnementale&#45;&#45;échange commercial -->
<g id="edge127" class="edge">
<title>dégradation environnementale&#45;&#45;échange commercial</title>
<path fill="none" stroke="darkgrey" stroke-width="1.05" d="M568.38,-263.53C663.17,-283.2 916.22,-335.7 931.94,-338.96"/>
</g>
<!-- nature&#45;&#45;société néo&#45;calédonienne -->
<g id="edge129" class="edge">
<title>nature&#45;&#45;société néo&#45;calédonienne</title>
<path fill="none" stroke="darkgrey" stroke-width="2.71" d="M603.42,-62.58C577.8,-67.7 514.92,-80.27 486.41,-85.97"/>
</g>
<!-- nature&#45;&#45;nouvelle&#45;calédonie -->
<g id="edge130" class="edge">
<title>nature&#45;&#45;nouvelle&#45;calédonie</title>
<path fill="none" stroke="darkgrey" stroke-width="1.04" d="M610.78,-70.67C592.28,-120.38 512.64,-334.37 497.57,-374.87"/>
</g>
<!-- nature&#45;&#45;alternative au développement -->
<g id="edge131" class="edge">
<title>nature&#45;&#45;alternative au développement</title>
<path fill="none" stroke="darkgrey" stroke-width="1.53" d="M617.89,-71.07C628.23,-104.9 660.37,-210.1 675.9,-260.97"/>
</g>
<!-- nature&#45;&#45;économie -->
<g id="edge132" class="edge">
<title>nature&#45;&#45;économie</title>
<path fill="none" stroke="darkgrey" stroke-width="1.16" d="M613.02,-71.43C607.33,-110.79 588.08,-244.16 581.06,-292.78"/>
</g>
<!-- nature&#45;&#45;amélioration environnementale -->
<g id="edge133" class="edge">
<title>nature&#45;&#45;amélioration environnementale</title>
<path fill="none" stroke="darkgrey" stroke-width="1.27" d="M615.93,-71.46C617.85,-87.76 621.4,-117.97 623.32,-134.27"/>
</g>
<!-- nature&#45;&#45;essor technologique -->
<g id="edge134" class="edge">
<title>nature&#45;&#45;essor technologique</title>
<path fill="none" stroke="darkgrey" stroke-width="1.67" d="M605.92,-67.44C586.83,-83 541.11,-120.26 517.85,-139.22"/>
</g>
<!-- société néo&#45;calédonienne&#45;&#45;nouvelle&#45;calédonie -->
<g id="edge135" class="edge">
<title>société néo&#45;calédonienne&#45;&#45;nouvelle&#45;calédonie</title>
<path fill="none" stroke="darkgrey" stroke-width="1.99" d="M473.09,-103.38C477.25,-155.97 491.46,-335.49 494.52,-374.13"/>
</g>
<!-- société néo&#45;calédonienne&#45;&#45;alternative au développement -->
<g id="edge136" class="edge">
<title>société néo&#45;calédonienne&#45;&#45;alternative au développement</title>
<path fill="none" stroke="darkgrey" stroke-width="3.86" d="M482.77,-99.07C516.27,-130.62 618.62,-227.03 663.28,-269.09"/>
</g>
<!-- société néo&#45;calédonienne&#45;&#45;nickel -->
<g id="edge137" class="edge">
<title>société néo&#45;calédonienne&#45;&#45;nickel</title>
<path fill="none" stroke="darkgrey" stroke-width="2.46" d="M477.27,-102.62C500.03,-161.41 588.75,-390.5 605.19,-432.94"/>
</g>
<!-- société néo&#45;calédonienne&#45;&#45;économie -->
<g id="edge138" class="edge">
<title>société néo&#45;calédonienne&#45;&#45;économie</title>
<path fill="none" stroke="darkgrey" stroke-width="3.64" d="M478.28,-102.08C496.74,-140.51 550.37,-252.19 570.61,-294.34"/>
</g>
<!-- société néo&#45;calédonienne&#45;&#45;amélioration environnementale -->
<g id="edge139" class="edge">
<title>société néo&#45;calédonienne&#45;&#45;amélioration environnementale</title>
<path fill="none" stroke="darkgrey" stroke-width="1.26" d="M485.76,-93.98C516,-105.18 587.5,-131.64 614.27,-141.56"/>
</g>
<!-- société néo&#45;calédonienne&#45;&#45;essor technologique -->
<g id="edge140" class="edge">
<title>société néo&#45;calédonienne&#45;&#45;essor technologique</title>
<path fill="none" stroke="darkgrey" stroke-width="1.61" d="M478.69,-101.98C483.57,-111.48 490.21,-124.39 495.43,-134.53"/>
</g>
<!-- nouvelle&#45;calédonie&#45;&#45;alternative au développement -->
<g id="edge141" class="edge">
<title>nouvelle&#45;calédonie&#45;&#45;alternative au développement</title>
<path fill="none" stroke="darkgrey" stroke-width="2.39" d="M501.4,-378.42C525.66,-366.58 613.9,-323.52 658.42,-301.8"/>
</g>
<!-- nouvelle&#45;calédonie&#45;&#45;économie -->
<g id="edge142" class="edge">
<title>nouvelle&#45;calédonie&#45;&#45;économie</title>
<path fill="none" stroke="darkgrey" stroke-width="2.19" d="M500.57,-376.85C513.4,-365.97 545.73,-338.52 564.46,-322.61"/>
</g>
<!-- nouvelle&#45;calédonie&#45;&#45;amélioration environnementale -->
<g id="edge143" class="edge">
<title>nouvelle&#45;calédonie&#45;&#45;amélioration environnementale</title>
<path fill="none" stroke="darkgrey" stroke-width="1.2" d="M498.57,-375.18C516.35,-342.77 597.38,-195.07 619.21,-155.29"/>
</g>
<!-- alternative au développement&#45;&#45;nickel -->
<g id="edge144" class="edge">
<title>alternative au développement&#45;&#45;nickel</title>
<path fill="none" stroke="darkgrey" stroke-width="2.72" d="M671.31,-314.97C653.07,-350.81 621.22,-413.37 611.04,-433.38"/>
</g>
<!-- alternative au développement&#45;&#45;économie -->
<g id="edge145" class="edge">
<title>alternative au développement&#45;&#45;économie</title>
<path fill="none" stroke="darkgrey" stroke-width="6.24" d="M655.8,-294.93C636.79,-298.81 612.45,-303.78 596.2,-307.09"/>
</g>
<!-- alternative au développement&#45;&#45;amélioration environnementale -->
<g id="edge146" class="edge">
<title>alternative au développement&#45;&#45;amélioration environnementale</title>
<path fill="none" stroke="darkgrey" stroke-width="5.7" d="M673.23,-262.05C659.82,-229.86 638.08,-177.68 628.92,-155.69"/>
</g>
<!-- alternative au développement&#45;&#45;essor technologique -->
<g id="edge148" class="edge">
<title>alternative au développement&#45;&#45;essor technologique</title>
<path fill="none" stroke="darkgrey" stroke-width="5.21" d="M661.23,-271.27C623.28,-242.22 549.17,-185.49 518.05,-161.66"/>
</g>
<!-- alternative au développement&#45;&#45;foncier -->
<g id="edge147" class="edge">
<title>alternative au développement&#45;&#45;foncier</title>
<path fill="none" stroke="darkgrey" stroke-width="1.31" d="M713.55,-285.7C812.1,-274.28 1128.27,-237.62 1143.03,-235.91"/>
</g>
<!-- nickel&#45;&#45;économie -->
<g id="edge149" class="edge">
<title>nickel&#45;&#45;économie</title>
<path fill="none" stroke="darkgrey" stroke-width="1.92" d="M606.24,-432.79C601.78,-413.21 589.02,-357.1 582.46,-328.27"/>
</g>
<!-- nickel&#45;&#45;amélioration environnementale -->
<g id="edge150" class="edge">
<title>nickel&#45;&#45;amélioration environnementale</title>
<path fill="none" stroke="darkgrey" stroke-width="1.64" d="M608.23,-432.45C610.49,-392.97 621.26,-204.45 624,-156.5"/>
</g>
<!-- nickel&#45;&#45;essor technologique -->
<g id="edge151" class="edge">
<title>nickel&#45;&#45;essor technologique</title>
<path fill="none" stroke="darkgrey" stroke-width="1.52" d="M605.34,-432.86C592.14,-396.19 529.74,-222.89 509.85,-167.66"/>
</g>
<!-- économie&#45;&#45;amélioration environnementale -->
<g id="edge152" class="edge">
<title>économie&#45;&#45;amélioration environnementale</title>
<path fill="none" stroke="darkgrey" stroke-width="1.89" d="M583.32,-293.33C592.86,-259.18 613.8,-184.2 621.61,-156.21"/>
</g>
<!-- économie&#45;&#45;essor technologique -->
<g id="edge153" class="edge">
<title>économie&#45;&#45;essor technologique</title>
<path fill="none" stroke="darkgrey" stroke-width="1.92" d="M570.75,-294.19C556.44,-263.53 525.91,-198.16 511.53,-167.38"/>
</g>
<!-- économie&#45;&#45;échange commercial -->
<g id="edge154" class="edge">
<title>économie&#45;&#45;échange commercial</title>
<path fill="none" stroke="darkgrey" stroke-width="1.15" d="M596.52,-312.16C666.45,-317.77 916.39,-337.81 931.95,-339.06"/>
</g>
<!-- amélioration environnementale&#45;&#45;essor technologique -->
<g id="edge155" class="edge">
<title>amélioration environnementale&#45;&#45;essor technologique</title>
<path fill="none" stroke="darkgrey" stroke-width="2.27" d="M613.48,-145.88C592.55,-146.8 547.24,-148.8 521.88,-149.92"/>
</g>
<!-- essor technologique&#45;&#45;matériel -->
<g id="edge156" class="edge">
<title>essor technologique&#45;&#45;matériel</title>
<path fill="none" stroke="darkgrey" stroke-width="1.41" d="M487.97,-160.01C427.91,-195.42 216.22,-320.2 203.05,-327.96"/>
</g>
<!-- exploitation minière&#45;&#45;politique -->
<g id="edge45" class="edge">
<title>exploitation minière&#45;&#45;politique</title>
<path fill="none" stroke="darkgrey" stroke-width="1.43" d="M351.02,-98.29C354.77,-119.85 374.33,-232.57 382.64,-280.43"/>
</g>
<!-- exploitation minière&#45;&#45;secteur nickel -->
<g id="edge46" class="edge">
<title>exploitation minière&#45;&#45;secteur nickel</title>
<path fill="none" stroke="darkgrey" stroke-width="1.87" d="M353.82,-96.04C384.06,-107.91 606.55,-195.26 675.34,-222.26"/>
</g>
<!-- exploitation minière&#45;&#45;pollution -->
<g id="edge47" class="edge">
<title>exploitation minière&#45;&#45;pollution</title>
<path fill="none" stroke="darkgrey" stroke-width="1.74" d="M350.68,-98.42C351.95,-114.99 357.16,-182.92 360.02,-220.32"/>
</g>
<!-- exploitation minière&#45;&#45;ressource minière -->
<g id="edge48" class="edge">
<title>exploitation minière&#45;&#45;ressource minière</title>
<path fill="none" stroke="darkgrey" stroke-width="1.49" d="M353.09,-97.16C376.49,-118.6 546.27,-274.11 603.29,-326.34"/>
</g>
<!-- exploitation minière&#45;&#45;dégradation environnementale -->
<g id="edge49" class="edge">
<title>exploitation minière&#45;&#45;dégradation environnementale</title>
<path fill="none" stroke="darkgrey" stroke-width="1.42" d="M353.27,-97.23C370.36,-112.36 459.67,-191.38 505.58,-232"/>
</g>
<!-- exploitation minière&#45;&#45;société néo&#45;calédonienne -->
<g id="edge50" class="edge">
<title>exploitation minière&#45;&#45;société néo&#45;calédonienne</title>
<path fill="none" stroke="darkgrey" stroke-width="1.41" d="M353.91,-94.53C369.01,-93.8 429,-90.92 457.18,-89.57"/>
</g>
<!-- exploitation minière&#45;&#45;nouvelle&#45;calédonie -->
<g id="edge51" class="edge">
<title>exploitation minière&#45;&#45;nouvelle&#45;calédonie</title>
<path fill="none" stroke="darkgrey" stroke-width="1.02" d="M352.02,-97.92C366.43,-126.47 472.23,-336.17 491.95,-375.24"/>
</g>
<!-- exploitation minière&#45;&#45;alternative au développement -->
<g id="edge52" class="edge">
<title>exploitation minière&#45;&#45;alternative au développement</title>
<path fill="none" stroke="darkgrey" stroke-width="2.15" d="M353.71,-96.62C382.2,-113.2 587.01,-232.36 659.3,-274.42"/>
</g>
<!-- exploitation minière&#45;&#45;amélioration environnementale -->
<g id="edge53" class="edge">
<title>exploitation minière&#45;&#45;amélioration environnementale</title>
<path fill="none" stroke="darkgrey" stroke-width="1.22" d="M353.87,-95.34C381.52,-100.45 566.45,-134.64 613.67,-143.37"/>
</g>
<!-- exploitation minière&#45;&#45;essor technologique -->
<g id="edge54" class="edge">
<title>exploitation minière&#45;&#45;essor technologique</title>
<path fill="none" stroke="darkgrey" stroke-width="1.09" d="M353.89,-95.97C371.5,-102.4 451.13,-131.49 486.61,-144.45"/>
</g>
<!-- exploitation minière&#45;&#45;matériel -->
<g id="edge55" class="edge">
<title>exploitation minière&#45;&#45;matériel</title>
<path fill="none" stroke="darkgrey" stroke-width="1.23" d="M348.31,-98C330.88,-125.51 210.29,-315.89 202.77,-327.76"/>
</g>
<!-- avenir sans nickel -->
<g id="node1" class="node">
<title>avenir sans nickel</title>
<ellipse fill="#fa9407" stroke="white" stroke-width="0" cx="419.57" cy="-354.08" rx="29" ry="29"/>
<text text-anchor="middle" x="279.07" y="-390.24" font-family="Helvetica,sans-Serif" font-size="24.80" fill="#4d4d4d">avenir sans nickel</text>
</g>
<!-- industrie -->
<g id="node2" class="node">
<title>industrie</title>
<ellipse fill="#07051b" stroke="white" stroke-width="0" cx="424.53" cy="-533.85" rx="3.5" ry="3.5"/>
<text text-anchor="middle" x="391.53" y="-541.47" font-family="Helvetica,sans-Serif" font-size="13.60" fill="#4d4d4d">industrie</text>
</g>
<!-- travail -->
<g id="node3" class="node">
<title>travail</title>
<ellipse fill="#bf3952" stroke="white" stroke-width="0" cx="416.52" cy="-206.56" rx="18" ry="18"/>
<text text-anchor="middle" x="367.02" y="-194.56" font-family="Helvetica,sans-Serif" font-size="20.00" fill="#4d4d4d">travail</text>
</g>
<!-- politique -->
<g id="node4" class="node">
<title>politique</title>
<ellipse fill="#d74b3f" stroke="white" stroke-width="0" cx="386.38" cy="-301.96" rx="21.5" ry="21.5"/>
<text text-anchor="middle" x="317.88" y="-330.18" font-family="Helvetica,sans-Serif" font-size="21.60" fill="#4d4d4d">politique</text>
</g>
<!-- secteur nickel -->
<g id="node5" class="node">
<title>secteur nickel</title>
<ellipse fill="#d24644" stroke="white" stroke-width="0" cx="695.54" cy="-230.2" rx="21.5" ry="21.5"/>
<text text-anchor="middle" x="598.54" y="-191.42" font-family="Helvetica,sans-Serif" font-size="21.60" fill="#4d4d4d">secteur nickel</text>
</g>
<!-- relation politique -->
<g id="node6" class="node">
<title>relation politique</title>
<ellipse fill="#120a32" stroke="white" stroke-width="0" cx="555.61" cy="-542.12" rx="3.5" ry="3.5"/>
<text text-anchor="middle" x="494.61" y="-549.74" font-family="Helvetica,sans-Serif" font-size="13.60" fill="#4d4d4d">relation politique</text>
</g>
<!-- avenir avec nickel -->
<g id="node7" class="node">
<title>avenir avec nickel</title>
<ellipse fill="#510e6c" stroke="white" stroke-width="0" cx="531.5" cy="-11" rx="11" ry="11"/>
<text text-anchor="middle" x="445" y="-26.56" font-family="Helvetica,sans-Serif" font-size="16.80" fill="#4d4d4d">avenir avec nickel</text>
</g>
<!-- pollution -->
<g id="node8" class="node">
<title>pollution</title>
<ellipse fill="#eb6628" stroke="white" stroke-width="0" cx="361.93" cy="-245.29" rx="25" ry="25"/>
<text text-anchor="middle" x="285.43" y="-277.73" font-family="Helvetica,sans-Serif" font-size="23.20" fill="#4d4d4d">pollution</text>
</g>
<!-- ressource minière -->
<g id="node9" class="node">
<title>ressource minière</title>
<ellipse fill="#ec6726" stroke="white" stroke-width="0" cx="621.92" cy="-343.4" rx="25" ry="25"/>
<text text-anchor="middle" x="701.42" y="-375.84" font-family="Helvetica,sans-Serif" font-size="23.20" fill="#4d4d4d">ressource minière</text>
</g>
<!-- dégradation environnementale -->
<g id="node10" class="node">
<title>dégradation environnementale</title>
<ellipse fill="#fcffa4" stroke="white" stroke-width="0" cx="532.9" cy="-256.17" rx="36" ry="36"/>
<text text-anchor="middle" x="786.9" y="-228.77" font-family="Helvetica,sans-Serif" font-size="28.00" fill="#4d4d4d">dégradation environnementale</text>
</g>
<!-- nature -->
<g id="node11" class="node">
<title>nature</title>
<ellipse fill="#5c126e" stroke="white" stroke-width="0" cx="614.62" cy="-60.35" rx="11" ry="11"/>
<text text-anchor="middle" x="575.62" y="-75.91" font-family="Helvetica,sans-Serif" font-size="16.80" fill="#4d4d4d">nature</text>
</g>
<!-- société néo&#45;calédonienne -->
<g id="node12" class="node">
<title>société néo&#45;calédonienne</title>
<ellipse fill="#8d2369" stroke="white" stroke-width="0" cx="471.94" cy="-88.86" rx="14.5" ry="14.5"/>
<text text-anchor="middle" x="338.44" y="-108.64" font-family="Helvetica,sans-Serif" font-size="18.40" fill="#4d4d4d">société néo&#45;calédonienne</text>
</g>
<!-- nouvelle&#45;calédonie -->
<g id="node13" class="node">
<title>nouvelle&#45;calédonie</title>
<ellipse fill="#2b0b57" stroke="white" stroke-width="0" cx="495.1" cy="-381.5" rx="7" ry="7"/>
<text text-anchor="middle" x="559.6" y="-393.34" font-family="Helvetica,sans-Serif" font-size="15.20" fill="#4d4d4d">nouvelle&#45;calédonie</text>
</g>
<!-- alternative au développement -->
<g id="node14" class="node">
<title>alternative au développement</title>
<ellipse fill="#fb9b06" stroke="white" stroke-width="0" cx="684.49" cy="-289.07" rx="29" ry="29"/>
<text text-anchor="middle" x="900.99" y="-267.23" font-family="Helvetica,sans-Serif" font-size="24.80" fill="#4d4d4d">alternative au développement</text>
</g>
<!-- nickel -->
<g id="node15" class="node">
<title>nickel</title>
<ellipse fill="#2f0a5b" stroke="white" stroke-width="0" cx="607.81" cy="-439.72" rx="7" ry="7"/>
<text text-anchor="middle" x="578.31" y="-451.56" font-family="Helvetica,sans-Serif" font-size="15.20" fill="#4d4d4d">nickel</text>
</g>
<!-- économie -->
<g id="node16" class="node">
<title>économie</title>
<ellipse fill="#a82e5f" stroke="white" stroke-width="0" cx="578.47" cy="-310.71" rx="18" ry="18"/>
<text text-anchor="middle" x="511.97" y="-334.71" font-family="Helvetica,sans-Serif" font-size="20.00" fill="#4d4d4d">économie</text>
</g>
<!-- amélioration environnementale -->
<g id="node17" class="node">
<title>amélioration environnementale</title>
<ellipse fill="#721a6e" stroke="white" stroke-width="0" cx="624.63" cy="-145.39" rx="11" ry="11"/>
<text text-anchor="middle" x="746.13" y="-160.95" font-family="Helvetica,sans-Serif" font-size="16.80" fill="#4d4d4d">amélioration environnementale</text>
</g>
<!-- essor technologique -->
<g id="node18" class="node">
<title>essor technologique</title>
<ellipse fill="#a92e5e" stroke="white" stroke-width="0" cx="503.75" cy="-150.71" rx="18" ry="18"/>
<text text-anchor="middle" x="385.25" y="-138.71" font-family="Helvetica,sans-Serif" font-size="20.00" fill="#4d4d4d">essor technologique</text>
</g>
<!-- risque -->
<g id="node19" class="node">
<title>risque</title>
<ellipse fill="#000004" stroke="white" stroke-width="0" cx="37.5" cy="-257.74" rx="0.5" ry="0.5"/>
<text text-anchor="middle" x="18.5" y="-261.64" font-family="Helvetica,sans-Serif" font-size="12.00" fill="#4d4d4d">risque</text>
</g>
<!-- exploitation minière -->
<g id="node20" class="node">
<title>exploitation minière</title>
<ellipse fill="#110a30" stroke="white" stroke-width="0" cx="350.4" cy="-94.69" rx="3.5" ry="3.5"/>
<text text-anchor="middle" x="278.9" y="-80.31" font-family="Helvetica,sans-Serif" font-size="13.60" fill="#4d4d4d">exploitation minière</text>
</g>
<!-- matériel -->
<g id="node21" class="node">
<title>matériel</title>
<ellipse fill="#010005" stroke="white" stroke-width="0" cx="202.41" cy="-328.34" rx="0.5" ry="0.5"/>
<text text-anchor="middle" x="176.41" y="-332.24" font-family="Helvetica,sans-Serif" font-size="12.00" fill="#4d4d4d">matériel</text>
</g>
<!-- foncier -->
<g id="node22" class="node">
<title>foncier</title>
<ellipse fill="#000004" stroke="white" stroke-width="0" cx="1143.57" cy="-235.85" rx="0.5" ry="0.5"/>
<text text-anchor="middle" x="1121.57" y="-239.75" font-family="Helvetica,sans-Serif" font-size="12.00" fill="#4d4d4d">foncier</text>
</g>
<!-- échange commercial -->
<g id="node23" class="node">
<title>échange commercial</title>
<ellipse fill="#010108" stroke="white" stroke-width="0" cx="932.71" cy="-339.12" rx="0.5" ry="0.5"/>
<text text-anchor="middle" x="868.71" y="-343.02" font-family="Helvetica,sans-Serif" font-size="12.00" fill="#4d4d4d">échange commercial</text>
</g>
</g>
</svg>
