<?xml version="1.0" encoding="UTF-8" standalone="no"?>
<!DOCTYPE svg PUBLIC "-//W3C//DTD SVG 1.1//EN"
 "http://www.w3.org/Graphics/SVG/1.1/DTD/svg11.dtd">
<!-- Generated by graphviz version 2.43.0 (0)
 -->
<!-- Pages: 1 -->
<svg width="650pt" height="298pt"
 viewBox="0.00 0.00 650.26 298.18" xmlns="http://www.w3.org/2000/svg" xmlns:xlink="http://www.w3.org/1999/xlink">
<g id="graph0" class="graph" transform="scale(1 1) rotate(0) translate(4 294.18)">
<polygon fill="white" stroke="transparent" points="-4,4 -4,-294.18 646.26,-294.18 646.26,4 -4,4"/>
<!-- pollution&#45;&#45;emploi -->
<g id="edge1" class="edge">
<title>pollution&#45;&#45;emploi</title>
<path fill="none" stroke="darkgrey" stroke-width="10" d="M290.11,-133.27C289.99,-132.71 289.88,-132.16 289.77,-131.6"/>
</g>
<!-- pollution&#45;&#45;démolition -->
<g id="edge2" class="edge">
<title>pollution&#45;&#45;démolition</title>
<path fill="none" stroke="darkgrey" stroke-width="2.3" d="M277.61,-184.7C256.45,-211.01 223.43,-252.06 214.57,-263.09"/>
</g>
<!-- pollution&#45;&#45;nickel -->
<g id="edge3" class="edge">
<title>pollution&#45;&#45;nickel</title>
<path fill="none" stroke="darkgrey" stroke-width="3.82" d="M324.39,-156.07C341.62,-152.55 363.65,-148.06 381.48,-144.42"/>
</g>
<!-- pollution&#45;&#45;économie -->
<g id="edge4" class="edge">
<title>pollution&#45;&#45;économie</title>
<path fill="none" stroke="darkgrey" stroke-width="3.78" d="M308.54,-135.67C315.77,-120.61 324.62,-102.17 330.85,-89.19"/>
</g>
<!-- pollution&#45;&#45;impact environnemental -->
<g id="edge5" class="edge">
<title>pollution&#45;&#45;impact environnemental</title>
<path fill="none" stroke="darkgrey" stroke-width="3.61" d="M288.68,-133.76C281.97,-107.89 272.24,-70.31 266.57,-48.44"/>
</g>
<!-- pollution&#45;&#45;déforestation -->
<g id="edge6" class="edge">
<title>pollution&#45;&#45;déforestation</title>
<path fill="none" stroke="darkgrey" d="M296.19,-190.94C296.38,-217.25 296.65,-252.69 296.69,-258.07"/>
</g>
<!-- emploi&#45;&#45;nickel -->
<g id="edge9" class="edge">
<title>emploi&#45;&#45;nickel</title>
<path fill="none" stroke="darkgrey" stroke-width="5.16" d="M316.9,-107.17C337.19,-113.64 362.67,-121.76 382.34,-128.03"/>
</g>
<!-- emploi&#45;&#45;économie -->
<g id="edge10" class="edge">
<title>emploi&#45;&#45;économie</title>
<path fill="none" stroke="darkgrey" stroke-width="7.21" d="M315.82,-82.42C317.89,-81.56 319.93,-80.71 321.88,-79.91"/>
</g>
<!-- emploi&#45;&#45;impact environnemental -->
<g id="edge11" class="edge">
<title>emploi&#45;&#45;impact environnemental</title>
<path fill="none" stroke="darkgrey" stroke-width="4.61" d="M271.66,-61.61C270.2,-56.95 268.75,-52.34 267.44,-48.17"/>
</g>
<!-- emploi&#45;&#45;richesse -->
<g id="edge7" class="edge">
<title>emploi&#45;&#45;richesse</title>
<path fill="none" stroke="darkgrey" stroke-width="2.52" d="M254.4,-119.2C234.67,-135.32 209.96,-155.52 199.14,-164.36"/>
</g>
<!-- emploi&#45;&#45;argent -->
<g id="edge8" class="edge">
<title>emploi&#45;&#45;argent</title>
<path fill="none" stroke="darkgrey" stroke-width="2.04" d="M312.29,-75.72C336.27,-59.2 368.07,-37.3 381.26,-28.22"/>
</g>
<!-- emploi&#45;&#45;conflit -->
<g id="edge12" class="edge">
<title>emploi&#45;&#45;conflit</title>
<path fill="none" stroke="darkgrey" stroke-width="1.12" d="M246.48,-95.79C221.15,-95.48 190,-95.11 179.62,-94.98"/>
</g>
<!-- nickel&#45;&#45;économie -->
<g id="edge16" class="edge">
<title>nickel&#45;&#45;économie</title>
<path fill="none" stroke="darkgrey" stroke-width="1.96" d="M388.48,-116.28C376.43,-105.8 362.41,-93.62 352.32,-84.84"/>
</g>
<!-- nickel&#45;&#45;exploitation -->
<g id="edge14" class="edge">
<title>nickel&#45;&#45;exploitation</title>
<path fill="none" stroke="darkgrey" stroke-width="1.32" d="M445.81,-135.12C476.8,-132.46 521.75,-128.59 542.28,-126.83"/>
</g>
<!-- nickel&#45;&#45;camion -->
<g id="edge15" class="edge">
<title>nickel&#45;&#45;camion</title>
<path fill="none" stroke="darkgrey" stroke-width="1.77" d="M410.68,-170.61C408.24,-200.3 404.82,-241.93 403.44,-258.72"/>
</g>
<!-- nickel&#45;&#45;usine -->
<g id="edge17" class="edge">
<title>nickel&#45;&#45;usine</title>
<path fill="none" stroke="darkgrey" stroke-width="1.81" d="M430.92,-165.54C447.18,-191.14 470.16,-227.31 479.13,-241.43"/>
</g>
<!-- nickel&#45;&#45;sln -->
<g id="edge18" class="edge">
<title>nickel&#45;&#45;sln</title>
<path fill="none" stroke="darkgrey" stroke-width="2.75" d="M440.29,-156.29C451.4,-163.87 462.91,-171.73 468.24,-175.37"/>
</g>
<!-- nickel&#45;&#45;minerai -->
<g id="edge19" class="edge">
<title>nickel&#45;&#45;minerai</title>
<path fill="none" stroke="darkgrey" stroke-width="1.26" d="M440.55,-119.46C460.78,-105.73 486.78,-88.09 498.19,-80.35"/>
</g>
<!-- économie&#45;&#45;impact environnemental -->
<g id="edge21" class="edge">
<title>économie&#45;&#45;impact environnemental</title>
<path fill="none" stroke="darkgrey" stroke-width="5.45" d="M322.77,-64.23C309.61,-56.99 291.01,-46.77 277.86,-39.54"/>
</g>
<!-- argent&#45;&#45;nickel -->
<g id="edge13" class="edge">
<title>argent&#45;&#45;nickel</title>
<path fill="none" stroke="darkgrey" stroke-width="1.43" d="M389.01,-31.13C392.36,-45.83 400.23,-80.34 406.12,-106.18"/>
</g>
<!-- exploitation&#45;&#45;minerai -->
<g id="edge20" class="edge">
<title>exploitation&#45;&#45;minerai</title>
<path fill="none" stroke="darkgrey" stroke-width="1.11" d="M545.12,-117.71C534.85,-107.4 517.48,-89.96 508.98,-81.43"/>
</g>
<!-- pollution -->
<g id="node1" class="node">
<title>pollution</title>
<ellipse fill="#fb9706" stroke="white" stroke-width="0" cx="295.97" cy="-161.87" rx="29" ry="29"/>
<text text-anchor="middle" x="212.97" y="-198.03" font-family="Helvetica,sans-Serif" font-size="24.80" fill="#4d4d4d">pollution</text>
</g>
<!-- emploi -->
<g id="node2" class="node">
<title>emploi</title>
<ellipse fill="#fcffa4" stroke="white" stroke-width="0" cx="282.52" cy="-96.22" rx="36" ry="36"/>
<text text-anchor="middle" x="199.02" y="-68.82" font-family="Helvetica,sans-Serif" font-size="28.00" fill="#4d4d4d">emploi</text>
</g>
<!-- démolition -->
<g id="node3" class="node">
<title>démolition</title>
<ellipse fill="#10092d" stroke="white" stroke-width="0" cx="212.31" cy="-265.89" rx="3.5" ry="3.5"/>
<text text-anchor="middle" x="172.31" y="-273.51" font-family="Helvetica,sans-Serif" font-size="13.60" fill="#4d4d4d">démolition</text>
</g>
<!-- nickel -->
<g id="node4" class="node">
<title>nickel</title>
<ellipse fill="#f8cf3a" stroke="white" stroke-width="0" cx="413.36" cy="-137.91" rx="32.5" ry="32.5"/>
<text text-anchor="middle" x="419.36" y="-178.29" font-family="Helvetica,sans-Serif" font-size="26.40" fill="#4d4d4d">nickel</text>
</g>
<!-- économie -->
<g id="node5" class="node">
<title>économie</title>
<ellipse fill="#ad305d" stroke="white" stroke-width="0" cx="338.65" cy="-72.96" rx="18" ry="18"/>
<text text-anchor="middle" x="369.15" y="-38.96" font-family="Helvetica,sans-Serif" font-size="20.00" fill="#4d4d4d">économie</text>
</g>
<!-- impact environnemental -->
<g id="node6" class="node">
<title>impact environnemental</title>
<ellipse fill="#bf3952" stroke="white" stroke-width="0" cx="262" cy="-30.82" rx="18" ry="18"/>
<text text-anchor="middle" x="122" y="-18.82" font-family="Helvetica,sans-Serif" font-size="20.00" fill="#4d4d4d">impact environnemental</text>
</g>
<!-- déforestation -->
<g id="node7" class="node">
<title>déforestation</title>
<ellipse fill="#000004" stroke="white" stroke-width="0" cx="296.69" cy="-258.76" rx="0.5" ry="0.5"/>
<text text-anchor="middle" x="256.19" y="-262.66" font-family="Helvetica,sans-Serif" font-size="12.00" fill="#4d4d4d">déforestation</text>
</g>
<!-- richesse -->
<g id="node8" class="node">
<title>richesse</title>
<ellipse fill="#470b6a" stroke="white" stroke-width="0" cx="193.65" cy="-168.85" rx="7" ry="7"/>
<text text-anchor="middle" x="154.65" y="-166.69" font-family="Helvetica,sans-Serif" font-size="15.20" fill="#4d4d4d">richesse</text>
</g>
<!-- argent -->
<g id="node9" class="node">
<title>argent</title>
<ellipse fill="#260c51" stroke="white" stroke-width="0" cx="387.38" cy="-24" rx="7" ry="7"/>
<text text-anchor="middle" x="355.38" y="-4.84" font-family="Helvetica,sans-Serif" font-size="15.20" fill="#4d4d4d">argent</text>
</g>
<!-- conflit -->
<g id="node10" class="node">
<title>conflit</title>
<ellipse fill="#0c0826" stroke="white" stroke-width="0" cx="176.07" cy="-94.94" rx="3.5" ry="3.5"/>
<text text-anchor="middle" x="151.57" y="-102.56" font-family="Helvetica,sans-Serif" font-size="13.60" fill="#4d4d4d">conflit</text>
</g>
<!-- exploitation -->
<g id="node11" class="node">
<title>exploitation</title>
<ellipse fill="#741a6e" stroke="white" stroke-width="0" cx="553.26" cy="-125.88" rx="11" ry="11"/>
<text text-anchor="middle" x="592.26" y="-141.44" font-family="Helvetica,sans-Serif" font-size="16.80" fill="#4d4d4d">exploitation</text>
</g>
<!-- camion -->
<g id="node12" class="node">
<title>camion</title>
<ellipse fill="#400a67" stroke="white" stroke-width="0" cx="402.83" cy="-266.18" rx="7" ry="7"/>
<text text-anchor="middle" x="367.83" y="-278.02" font-family="Helvetica,sans-Serif" font-size="15.20" fill="#4d4d4d">camion</text>
</g>
<!-- usine -->
<g id="node13" class="node">
<title>usine</title>
<ellipse fill="#260c51" stroke="white" stroke-width="0" cx="482.93" cy="-247.41" rx="7" ry="7"/>
<text text-anchor="middle" x="454.93" y="-259.25" font-family="Helvetica,sans-Serif" font-size="15.20" fill="#4d4d4d">usine</text>
</g>
<!-- sln -->
<g id="node14" class="node">
<title>sln</title>
<ellipse fill="#120a32" stroke="white" stroke-width="0" cx="471.29" cy="-177.45" rx="3.5" ry="3.5"/>
<text text-anchor="middle" x="477.29" y="-185.07" font-family="Helvetica,sans-Serif" font-size="13.60" fill="#4d4d4d">sln</text>
</g>
<!-- minerai -->
<g id="node15" class="node">
<title>minerai</title>
<ellipse fill="#280b53" stroke="white" stroke-width="0" cx="503.99" cy="-76.42" rx="7" ry="7"/>
<text text-anchor="middle" x="467.99" y="-88.26" font-family="Helvetica,sans-Serif" font-size="15.20" fill="#4d4d4d">minerai</text>
</g>
</g>
</svg>
