<?xml version="1.0" encoding="UTF-8" standalone="no"?>
<!DOCTYPE svg PUBLIC "-//W3C//DTD SVG 1.1//EN"
 "http://www.w3.org/Graphics/SVG/1.1/DTD/svg11.dtd">
<!-- Generated by graphviz version 2.43.0 (0)
 -->
<!-- Pages: 1 -->
<svg width="1030pt" height="596pt"
 viewBox="0.00 0.00 1030.45 596.16" xmlns="http://www.w3.org/2000/svg" xmlns:xlink="http://www.w3.org/1999/xlink">
<g id="graph0" class="graph" transform="scale(1 1) rotate(0) translate(4 592.16)">
<polygon fill="white" stroke="transparent" points="-4,4 -4,-592.16 1026.45,-592.16 1026.45,4 -4,4"/>
<!-- pollution&#45;&#45;emploi -->
<g id="edge1" class="edge">
<title>pollution&#45;&#45;emploi</title>
<path fill="none" stroke="darkgrey" stroke-width="6.42" d="M464.05,-343.63C471.83,-333.39 481.68,-320.41 489.49,-310.12"/>
</g>
<!-- pollution&#45;&#45;économie du pays -->
<g id="edge2" class="edge">
<title>pollution&#45;&#45;économie du pays</title>
<path fill="none" stroke="darkgrey" stroke-width="3.51" d="M439.16,-342.5C420.45,-313.57 384.54,-258.04 368.49,-233.22"/>
</g>
<!-- pollution&#45;&#45;richesse -->
<g id="edge3" class="edge">
<title>pollution&#45;&#45;richesse</title>
<path fill="none" stroke="darkgrey" d="M433.4,-348.06C405.86,-328.1 353.89,-290.43 336.1,-277.54"/>
</g>
<!-- pollution&#45;&#45;impact environnemental -->
<g id="edge4" class="edge">
<title>pollution&#45;&#45;impact environnemental</title>
<path fill="none" stroke="darkgrey" stroke-width="10" d="M429.24,-362.5C425.31,-362.8 421.11,-363.12 416.9,-363.45"/>
</g>
<!-- pollution&#45;&#45;conflit -->
<g id="edge5" class="edge">
<title>pollution&#45;&#45;conflit</title>
<path fill="none" stroke="darkgrey" stroke-width="1.44" d="M429.75,-356.31C388.32,-347.52 298.53,-328.47 272.79,-323.01"/>
</g>
<!-- pollution&#45;&#45;revenu -->
<g id="edge6" class="edge">
<title>pollution&#45;&#45;revenu</title>
<path fill="none" stroke="darkgrey" stroke-width="1.19" d="M448.38,-339.17C443.26,-296.95 432.16,-205.45 428.98,-179.22"/>
</g>
<!-- pollution&#45;&#45;nickel -->
<g id="edge7" class="edge">
<title>pollution&#45;&#45;nickel</title>
<path fill="none" stroke="darkgrey" stroke-width="2.92" d="M471.89,-354.85C485.46,-350.96 503.07,-345.93 516.59,-342.05"/>
</g>
<!-- pollution&#45;&#45;exploitation -->
<g id="edge8" class="edge">
<title>pollution&#45;&#45;exploitation</title>
<path fill="none" stroke="darkgrey" stroke-width="1.21" d="M468.64,-348.29C505.76,-321.91 590.83,-261.47 618.97,-241.47"/>
</g>
<!-- pollution&#45;&#45;montagne -->
<g id="edge9" class="edge">
<title>pollution&#45;&#45;montagne</title>
<path fill="none" stroke="darkgrey" stroke-width="1.58" d="M454.42,-382.08C459.57,-414.21 469.1,-473.52 472.35,-493.79"/>
</g>
<!-- pollution&#45;&#45;développement -->
<g id="edge10" class="edge">
<title>pollution&#45;&#45;développement</title>
<path fill="none" stroke="darkgrey" stroke-width="1.57" d="M436.69,-377.12C400.91,-417.84 309.25,-522.16 292.37,-541.36"/>
</g>
<!-- pollution&#45;&#45;engin -->
<g id="edge11" class="edge">
<title>pollution&#45;&#45;engin</title>
<path fill="none" stroke="darkgrey" stroke-width="1.73" d="M471.79,-367.25C496.74,-374.97 537.6,-387.62 556.75,-393.54"/>
</g>
<!-- pollution&#45;&#45;terre -->
<g id="edge12" class="edge">
<title>pollution&#45;&#45;terre</title>
<path fill="none" stroke="darkgrey" stroke-width="1.27" d="M466.09,-376.95C486.99,-399.28 523.96,-438.8 539.9,-455.83"/>
</g>
<!-- pollution&#45;&#45;usine -->
<g id="edge13" class="edge">
<title>pollution&#45;&#45;usine</title>
<path fill="none" stroke="darkgrey" stroke-width="1.25" d="M472.81,-362.69C529.79,-367.56 681.7,-380.54 723.86,-384.15"/>
</g>
<!-- emploi&#45;&#45;économie du pays -->
<g id="edge14" class="edge">
<title>emploi&#45;&#45;économie du pays</title>
<path fill="none" stroke="darkgrey" stroke-width="5.37" d="M483.52,-282.99C454.08,-268.1 398.55,-240 373.38,-227.26"/>
</g>
<!-- emploi&#45;&#45;richesse -->
<g id="edge15" class="edge">
<title>emploi&#45;&#45;richesse</title>
<path fill="none" stroke="darkgrey" stroke-width="2.05" d="M481.19,-290.26C442.11,-285.82 361.31,-276.64 337.01,-273.88"/>
</g>
<!-- emploi&#45;&#45;impact environnemental -->
<g id="edge16" class="edge">
<title>emploi&#45;&#45;impact environnemental</title>
<path fill="none" stroke="darkgrey" stroke-width="6.57" d="M484.23,-303.87C465.08,-315.43 434.81,-333.71 411.99,-347.49"/>
</g>
<!-- emploi&#45;&#45;conflit -->
<g id="edge17" class="edge">
<title>emploi&#45;&#45;conflit</title>
<path fill="none" stroke="darkgrey" stroke-width="2.53" d="M481.27,-295.31C430.46,-301.49 304.64,-316.79 273.05,-320.64"/>
</g>
<!-- emploi&#45;&#45;revenu -->
<g id="edge18" class="edge">
<title>emploi&#45;&#45;revenu</title>
<path fill="none" stroke="darkgrey" stroke-width="2.56" d="M491.39,-274.38C474.27,-246.69 442.66,-195.57 431.85,-178.1"/>
</g>
<!-- emploi&#45;&#45;nickel -->
<g id="edge19" class="edge">
<title>emploi&#45;&#45;nickel</title>
<path fill="none" stroke="darkgrey" stroke-width="4.26" d="M516.38,-309.87C518.8,-312.9 521.31,-316.06 523.72,-319.09"/>
</g>
<!-- emploi&#45;&#45;exploitation -->
<g id="edge20" class="edge">
<title>emploi&#45;&#45;exploitation</title>
<path fill="none" stroke="darkgrey" stroke-width="1.54" d="M522.32,-283.67C549.34,-271.23 597.05,-249.25 617.93,-239.64"/>
</g>
<!-- emploi&#45;&#45;engin -->
<g id="edge21" class="edge">
<title>emploi&#45;&#45;engin</title>
<path fill="none" stroke="darkgrey" stroke-width="1.06" d="M514.26,-311.31C528.11,-333.65 550.8,-370.24 561.43,-387.38"/>
</g>
<!-- emploi&#45;&#45;terre -->
<g id="edge23" class="edge">
<title>emploi&#45;&#45;terre</title>
<path fill="none" stroke="darkgrey" stroke-width="1.26" d="M508.22,-313.71C517.85,-350.52 537.45,-425.41 544.74,-453.26"/>
</g>
<!-- emploi&#45;&#45;usine -->
<g id="edge24" class="edge">
<title>emploi&#45;&#45;usine</title>
<path fill="none" stroke="darkgrey" stroke-width="1.09" d="M522.91,-300.74C570.56,-319.7 688.68,-366.71 724.43,-380.94"/>
</g>
<!-- emploi&#45;&#45;minerai -->
<g id="edge22" class="edge">
<title>emploi&#45;&#45;minerai</title>
<path fill="none" stroke="darkgrey" stroke-width="1.07" d="M521.12,-304.28C543.13,-318.13 579.59,-341.07 600.22,-354.05"/>
</g>
<!-- emploi&#45;&#45;opérateur minier -->
<g id="edge25" class="edge">
<title>emploi&#45;&#45;opérateur minier</title>
<path fill="none" stroke="darkgrey" stroke-width="1.03" d="M520.75,-304.7C561.18,-331.61 657.94,-396 688.61,-416.41"/>
</g>
<!-- emploi&#45;&#45;vision positive de la ressource -->
<g id="edge26" class="edge">
<title>emploi&#45;&#45;vision positive de la ressource</title>
<path fill="none" stroke="darkgrey" stroke-width="1.16" d="M510.63,-272.43C521.11,-245.55 538.88,-200.01 543.93,-187.08"/>
</g>
<!-- économie du pays&#45;&#45;impact environnemental -->
<g id="edge27" class="edge">
<title>économie du pays&#45;&#45;impact environnemental</title>
<path fill="none" stroke="darkgrey" stroke-width="6.27" d="M362.44,-235.18C365.56,-257.17 371.58,-299.68 375.92,-330.32"/>
</g>
<!-- économie du pays&#45;&#45;conflit -->
<g id="edge28" class="edge">
<title>économie du pays&#45;&#45;conflit</title>
<path fill="none" stroke="darkgrey" stroke-width="1.47" d="M350.26,-231.48C330.05,-253.02 285.36,-300.64 270.6,-316.37"/>
</g>
<!-- économie du pays&#45;&#45;nickel -->
<g id="edge29" class="edge">
<title>économie du pays&#45;&#45;nickel</title>
<path fill="none" stroke="darkgrey" stroke-width="1.78" d="M372.55,-228.63C403.07,-248.55 483.05,-300.74 519.15,-324.3"/>
</g>
<!-- richesse&#45;&#45;impact environnemental -->
<g id="edge30" class="edge">
<title>richesse&#45;&#45;impact environnemental</title>
<path fill="none" stroke="darkgrey" stroke-width="2.02" d="M333.46,-279.48C339.59,-290.66 352.62,-314.44 363.49,-334.27"/>
</g>
<!-- richesse&#45;&#45;nickel -->
<g id="edge31" class="edge">
<title>richesse&#45;&#45;nickel</title>
<path fill="none" stroke="darkgrey" stroke-width="1.12" d="M336.85,-275.18C364.89,-283.71 470.95,-315.96 516.41,-329.78"/>
</g>
<!-- impact environnemental&#45;&#45;conflit -->
<g id="edge32" class="edge">
<title>impact environnemental&#45;&#45;conflit</title>
<path fill="none" stroke="darkgrey" stroke-width="1.76" d="M347.36,-353.16C321.05,-342.96 286.62,-329.61 272.38,-324.09"/>
</g>
<!-- impact environnemental&#45;&#45;revenu -->
<g id="edge33" class="edge">
<title>impact environnemental&#45;&#45;revenu</title>
<path fill="none" stroke="darkgrey" stroke-width="1.44" d="M389.53,-331.05C400.99,-283.84 420.58,-203.11 426.42,-179.03"/>
</g>
<!-- impact environnemental&#45;&#45;nickel -->
<g id="edge34" class="edge">
<title>impact environnemental&#45;&#45;nickel</title>
<path fill="none" stroke="darkgrey" stroke-width="4.02" d="M416.46,-359.38C447.09,-353.49 490.32,-345.17 515.91,-340.25"/>
</g>
<!-- impact environnemental&#45;&#45;exploitation -->
<g id="edge36" class="edge">
<title>impact environnemental&#45;&#45;exploitation</title>
<path fill="none" stroke="darkgrey" stroke-width="3.7" d="M412.81,-349.31C469.14,-319.39 583.75,-258.52 618.19,-240.22"/>
</g>
<!-- impact environnemental&#45;&#45;montagne -->
<g id="edge37" class="edge">
<title>impact environnemental&#45;&#45;montagne</title>
<path fill="none" stroke="darkgrey" stroke-width="2.02" d="M401.52,-396.08C423.87,-428.61 457.97,-478.24 469.51,-495.03"/>
</g>
<!-- impact environnemental&#45;&#45;développement -->
<g id="edge38" class="edge">
<title>impact environnemental&#45;&#45;développement</title>
<path fill="none" stroke="darkgrey" stroke-width="1.71" d="M364.46,-398.48C341.03,-444.22 300.02,-524.25 291.33,-541.21"/>
</g>
<!-- impact environnemental&#45;&#45;engin -->
<g id="edge39" class="edge">
<title>impact environnemental&#45;&#45;engin</title>
<path fill="none" stroke="darkgrey" stroke-width="2.43" d="M416.91,-372.1C459.83,-379.15 529.22,-390.55 556.12,-394.96"/>
</g>
<!-- impact environnemental&#45;&#45;terre -->
<g id="edge41" class="edge">
<title>impact environnemental&#45;&#45;terre</title>
<path fill="none" stroke="darkgrey" stroke-width="1.38" d="M412.33,-384.6C450.77,-407.18 513.82,-444.2 537.84,-458.31"/>
</g>
<!-- impact environnemental&#45;&#45;minerai -->
<g id="edge40" class="edge">
<title>impact environnemental&#45;&#45;minerai</title>
<path fill="none" stroke="darkgrey" stroke-width="1.58" d="M417.16,-365.83C468.08,-365.31 559,-364.37 597.59,-363.98"/>
</g>
<!-- impact environnemental&#45;&#45;vision positive de la ressource -->
<g id="edge42" class="edge">
<title>impact environnemental&#45;&#45;vision positive de la ressource</title>
<path fill="none" stroke="darkgrey" stroke-width="1.56" d="M405.24,-339.26C446.66,-293.21 528.03,-202.75 542.93,-186.2"/>
</g>
<!-- impact environnemental&#45;&#45;milieu -->
<g id="edge35" class="edge">
<title>impact environnemental&#45;&#45;milieu</title>
<path fill="none" stroke="darkgrey" stroke-width="1.35" d="M344.93,-367.34C270.08,-369.69 102.55,-374.95 75.57,-375.8"/>
</g>
<!-- impact environnemental&#45;&#45;danger -->
<g id="edge43" class="edge">
<title>impact environnemental&#45;&#45;danger</title>
<path fill="none" stroke="darkgrey" stroke-width="1.03" d="M350.8,-386.25C284.66,-430.16 132.1,-531.43 122.63,-537.71"/>
</g>
<!-- revenu&#45;&#45;nickel -->
<g id="edge44" class="edge">
<title>revenu&#45;&#45;nickel</title>
<path fill="none" stroke="darkgrey" stroke-width="1.76" d="M432,-177.9C446.93,-200.33 500.97,-281.55 525.29,-318.1"/>
</g>
<!-- nickel&#45;&#45;exploitation -->
<g id="edge45" class="edge">
<title>nickel&#45;&#45;exploitation</title>
<path fill="none" stroke="darkgrey" stroke-width="1.9" d="M551.9,-319.87C571.57,-297.96 605.85,-259.8 620.83,-243.11"/>
</g>
<!-- nickel&#45;&#45;montagne -->
<g id="edge46" class="edge">
<title>nickel&#45;&#45;montagne</title>
<path fill="none" stroke="darkgrey" stroke-width="1.23" d="M529.46,-356.33C515.09,-393.43 485.11,-470.78 476.1,-494.04"/>
</g>
<!-- nickel&#45;&#45;engin -->
<g id="edge47" class="edge">
<title>nickel&#45;&#45;engin</title>
<path fill="none" stroke="darkgrey" stroke-width="2.59" d="M546.94,-355.66C552.07,-366.05 558.17,-378.39 562.34,-386.82"/>
</g>
<!-- nickel&#45;&#45;terre -->
<g id="edge49" class="edge">
<title>nickel&#45;&#45;terre</title>
<path fill="none" stroke="darkgrey" stroke-width="2.27" d="M539.03,-357.83C541.24,-385.33 544.96,-431.72 546.66,-452.88"/>
</g>
<!-- nickel&#45;&#45;usine -->
<g id="edge50" class="edge">
<title>nickel&#45;&#45;usine</title>
<path fill="none" stroke="darkgrey" stroke-width="3.71" d="M558.43,-341.37C600.24,-351.73 692.17,-374.51 723.85,-382.36"/>
</g>
<!-- nickel&#45;&#45;minerai -->
<g id="edge48" class="edge">
<title>nickel&#45;&#45;minerai</title>
<path fill="none" stroke="darkgrey" stroke-width="3.7" d="M557.89,-343.4C570.6,-347.88 586.7,-353.56 598.68,-357.79"/>
</g>
<!-- nickel&#45;&#45;opérateur minier -->
<g id="edge51" class="edge">
<title>nickel&#45;&#45;opérateur minier</title>
<path fill="none" stroke="darkgrey" stroke-width="2.74" d="M556.37,-346.41C590.81,-364.95 662.22,-403.4 688.29,-417.44"/>
</g>
<!-- nickel&#45;&#45;vision positive de la ressource -->
<g id="edge52" class="edge">
<title>nickel&#45;&#45;vision positive de la ressource</title>
<path fill="none" stroke="darkgrey" stroke-width="1.12" d="M538.42,-314.6C540.35,-277.8 544.17,-205.07 545.09,-187.47"/>
</g>
<!-- nickel&#45;&#45;ressource non&#45;renouvelable -->
<g id="edge53" class="edge">
<title>nickel&#45;&#45;ressource non&#45;renouvelable</title>
<path fill="none" stroke="darkgrey" stroke-width="1.69" d="M550.75,-353.36C583.91,-395.83 668.02,-503.51 683.49,-523.32"/>
</g>
<!-- exploitation&#45;&#45;engin -->
<g id="edge54" class="edge">
<title>exploitation&#45;&#45;engin</title>
<path fill="none" stroke="darkgrey" stroke-width="1.22" d="M624.2,-245.53C613.13,-274.93 582.19,-357.15 571.2,-386.34"/>
</g>
<!-- exploitation&#45;&#45;usine -->
<g id="edge56" class="edge">
<title>exploitation&#45;&#45;usine</title>
<path fill="none" stroke="darkgrey" stroke-width="1.34" d="M634.87,-244.3C654.12,-271.4 709.55,-349.47 728.45,-376.08"/>
</g>
<!-- exploitation&#45;&#45;minerai -->
<g id="edge55" class="edge">
<title>exploitation&#45;&#45;minerai</title>
<path fill="none" stroke="darkgrey" stroke-width="2.77" d="M627.14,-245.9C624.99,-268.05 620.12,-318.29 617.48,-345.49"/>
</g>
<!-- exploitation&#45;&#45;vision positive de la ressource -->
<g id="edge57" class="edge">
<title>exploitation&#45;&#45;vision positive de la ressource</title>
<path fill="none" stroke="darkgrey" stroke-width="1.17" d="M618.69,-229.02C600.15,-217.53 559.96,-192.65 548.44,-185.51"/>
</g>
<!-- exploitation&#45;&#45;commerce -->
<g id="edge58" class="edge">
<title>exploitation&#45;&#45;commerce</title>
<path fill="none" stroke="darkgrey" stroke-width="1.12" d="M635.22,-226.25C665.42,-189.01 783.88,-42.95 808.53,-12.56"/>
</g>
<!-- montagne&#45;&#45;engin -->
<g id="edge59" class="edge">
<title>montagne&#45;&#45;engin</title>
<path fill="none" stroke="darkgrey" stroke-width="1.01" d="M478.26,-495.5C493.56,-478.53 541.43,-425.44 559.9,-404.96"/>
</g>
<!-- montagne&#45;&#45;terre -->
<g id="edge61" class="edge">
<title>montagne&#45;&#45;terre</title>
<path fill="none" stroke="darkgrey" stroke-width="1" d="M479.79,-497.67C492.67,-491.27 522.04,-476.68 537.55,-468.98"/>
</g>
<!-- montagne&#45;&#45;minerai -->
<g id="edge60" class="edge">
<title>montagne&#45;&#45;minerai</title>
<path fill="none" stroke="darkgrey" stroke-width="1.34" d="M478.54,-495.93C498.53,-476.67 572.38,-405.53 602.64,-376.38"/>
</g>
<!-- engin&#45;&#45;terre -->
<g id="edge64" class="edge">
<title>engin&#45;&#45;terre</title>
<path fill="none" stroke="darkgrey" stroke-width="1.61" d="M564.1,-407.59C560.44,-420.06 554.46,-440.46 550.78,-453.02"/>
</g>
<!-- engin&#45;&#45;usine -->
<g id="edge65" class="edge">
<title>engin&#45;&#45;usine</title>
<path fill="none" stroke="darkgrey" stroke-width="1.53" d="M578.26,-396.03C608.55,-393.91 692.99,-388.01 723.59,-385.87"/>
</g>
<!-- engin&#45;&#45;minerai -->
<g id="edge63" class="edge">
<title>engin&#45;&#45;minerai</title>
<path fill="none" stroke="darkgrey" stroke-width="1.97" d="M576.6,-390.43C583.42,-385.79 592.81,-379.39 600.68,-374.03"/>
</g>
<!-- terre&#45;&#45;usine -->
<g id="edge71" class="edge">
<title>terre&#45;&#45;usine</title>
<path fill="none" stroke="darkgrey" stroke-width="1.01" d="M557.89,-459.66C590.56,-445.89 691.37,-403.41 724.31,-389.53"/>
</g>
<!-- usine&#45;&#45;opérateur minier -->
<g id="edge72" class="edge">
<title>usine&#45;&#45;opérateur minier</title>
<path fill="none" stroke="darkgrey" stroke-width="3.06" d="M727.05,-393.07C720.82,-399.46 712.11,-408.37 705.88,-414.75"/>
</g>
<!-- usine&#45;&#45;localité -->
<g id="edge73" class="edge">
<title>usine&#45;&#45;localité</title>
<path fill="none" stroke="darkgrey" stroke-width="1.43" d="M745.64,-387.29C793.68,-397.12 987.01,-436.68 1015.45,-442.5"/>
</g>
<!-- minerai&#45;&#45;terre -->
<g id="edge66" class="edge">
<title>minerai&#45;&#45;terre</title>
<path fill="none" stroke="darkgrey" stroke-width="1.17" d="M605.36,-379.01C591.06,-400.04 565.69,-437.34 553.91,-454.67"/>
</g>
<!-- minerai&#45;&#45;usine -->
<g id="edge67" class="edge">
<title>minerai&#45;&#45;usine</title>
<path fill="none" stroke="darkgrey" stroke-width="2.28" d="M633.54,-366.98C658.6,-371.46 703.45,-379.48 724.01,-383.15"/>
</g>
<!-- minerai&#45;&#45;opérateur minier -->
<g id="edge68" class="edge">
<title>minerai&#45;&#45;opérateur minier</title>
<path fill="none" stroke="darkgrey" stroke-width="1.15" d="M630.44,-374.33C647.47,-386.51 674.97,-406.18 689.09,-416.28"/>
</g>
<!-- minerai&#45;&#45;vision positive de la ressource -->
<g id="edge69" class="edge">
<title>minerai&#45;&#45;vision positive de la ressource</title>
<path fill="none" stroke="darkgrey" d="M609.08,-346.84C593.34,-306.53 554.4,-206.86 546.65,-187.03"/>
</g>
<!-- minerai&#45;&#45;ressource non&#45;renouvelable -->
<g id="edge70" class="edge">
<title>minerai&#45;&#45;ressource non&#45;renouvelable</title>
<path fill="none" stroke="darkgrey" stroke-width="1.29" d="M622.96,-380.59C638.95,-417.61 676.43,-504.41 684.44,-522.96"/>
</g>
<!-- main d’oeuvre&#45;&#45;usine -->
<g id="edge62" class="edge">
<title>main d’oeuvre&#45;&#45;usine</title>
<path fill="none" stroke="darkgrey" stroke-width="1.05" d="M956.74,-567.33C934.02,-548.68 781.84,-423.69 743.57,-392.25"/>
</g>
<!-- pollution -->
<g id="node1" class="node">
<title>pollution</title>
<ellipse fill="#cf4446" stroke="white" stroke-width="0" cx="451" cy="-360.82" rx="21.5" ry="21.5"/>
<text text-anchor="middle" x="476.5" y="-389.04" font-family="Helvetica,sans-Serif" font-size="21.60" fill="#4d4d4d">pollution</text>
</g>
<!-- emploi -->
<g id="node2" class="node">
<title>emploi</title>
<ellipse fill="#e65d2f" stroke="white" stroke-width="0" cx="502.72" cy="-292.7" rx="21.5" ry="21.5"/>
<text text-anchor="middle" x="444.22" y="-277.92" font-family="Helvetica,sans-Serif" font-size="21.60" fill="#4d4d4d">emploi</text>
</g>
<!-- économie du pays -->
<g id="node3" class="node">
<title>économie du pays</title>
<ellipse fill="#7f1e6c" stroke="white" stroke-width="0" cx="360.39" cy="-220.69" rx="14.5" ry="14.5"/>
<text text-anchor="middle" x="260.39" y="-240.47" font-family="Helvetica,sans-Serif" font-size="18.40" fill="#4d4d4d">économie du pays</text>
</g>
<!-- richesse -->
<g id="node4" class="node">
<title>richesse</title>
<ellipse fill="#2f0a5b" stroke="white" stroke-width="0" cx="329.95" cy="-273.08" rx="7" ry="7"/>
<text text-anchor="middle" x="290.95" y="-284.92" font-family="Helvetica,sans-Serif" font-size="15.20" fill="#4d4d4d">richesse</text>
</g>
<!-- impact environnemental -->
<g id="node5" class="node">
<title>impact environnemental</title>
<ellipse fill="#fcffa4" stroke="white" stroke-width="0" cx="381" cy="-366.21" rx="36" ry="36"/>
<text text-anchor="middle" x="172.5" y="-410.81" font-family="Helvetica,sans-Serif" font-size="28.00" fill="#4d4d4d">impact environnemental</text>
</g>
<!-- conflit -->
<g id="node6" class="node">
<title>conflit</title>
<ellipse fill="#4d0d6c" stroke="white" stroke-width="0" cx="265.76" cy="-321.52" rx="7" ry="7"/>
<text text-anchor="middle" x="234.76" y="-333.36" font-family="Helvetica,sans-Serif" font-size="15.20" fill="#4d4d4d">conflit</text>
</g>
<!-- revenu -->
<g id="node7" class="node">
<title>revenu</title>
<ellipse fill="#380962" stroke="white" stroke-width="0" cx="428.11" cy="-172.06" rx="7" ry="7"/>
<text text-anchor="middle" x="394.61" y="-183.9" font-family="Helvetica,sans-Serif" font-size="15.20" fill="#4d4d4d">revenu</text>
</g>
<!-- nickel -->
<g id="node8" class="node">
<title>nickel</title>
<ellipse fill="#db503b" stroke="white" stroke-width="0" cx="537.29" cy="-336.13" rx="21.5" ry="21.5"/>
<text text-anchor="middle" x="484.29" y="-321.35" font-family="Helvetica,sans-Serif" font-size="21.60" fill="#4d4d4d">nickel</text>
</g>
<!-- exploitation -->
<g id="node9" class="node">
<title>exploitation</title>
<ellipse fill="#721a6e" stroke="white" stroke-width="0" cx="628.2" cy="-234.91" rx="11" ry="11"/>
<text text-anchor="middle" x="567.2" y="-250.47" font-family="Helvetica,sans-Serif" font-size="16.80" fill="#4d4d4d">exploitation</text>
</g>
<!-- montagne -->
<g id="node10" class="node">
<title>montagne</title>
<ellipse fill="#280b53" stroke="white" stroke-width="0" cx="473.48" cy="-500.81" rx="7" ry="7"/>
<text text-anchor="middle" x="427.48" y="-512.65" font-family="Helvetica,sans-Serif" font-size="15.20" fill="#4d4d4d">montagne</text>
</g>
<!-- développement -->
<g id="node11" class="node">
<title>développement</title>
<ellipse fill="#110a30" stroke="white" stroke-width="0" cx="289.68" cy="-544.42" rx="3.5" ry="3.5"/>
<text text-anchor="middle" x="232.18" y="-552.04" font-family="Helvetica,sans-Serif" font-size="13.60" fill="#4d4d4d">développement</text>
</g>
<!-- engin -->
<g id="node12" class="node">
<title>engin</title>
<ellipse fill="#67166e" stroke="white" stroke-width="0" cx="567.26" cy="-396.79" rx="11" ry="11"/>
<text text-anchor="middle" x="532.76" y="-412.35" font-family="Helvetica,sans-Serif" font-size="16.80" fill="#4d4d4d">engin</text>
</g>
<!-- terre -->
<g id="node13" class="node">
<title>terre</title>
<ellipse fill="#520e6d" stroke="white" stroke-width="0" cx="547.56" cy="-464.01" rx="11" ry="11"/>
<text text-anchor="middle" x="515.56" y="-479.57" font-family="Helvetica,sans-Serif" font-size="16.80" fill="#4d4d4d">terre</text>
</g>
<!-- usine -->
<g id="node14" class="node">
<title>usine</title>
<ellipse fill="#771c6d" stroke="white" stroke-width="0" cx="734.85" cy="-385.09" rx="11" ry="11"/>
<text text-anchor="middle" x="700.85" y="-378.65" font-family="Helvetica,sans-Serif" font-size="16.80" fill="#4d4d4d">usine</text>
</g>
<!-- minerai -->
<g id="node15" class="node">
<title>minerai</title>
<ellipse fill="#a82e5f" stroke="white" stroke-width="0" cx="615.71" cy="-363.79" rx="18" ry="18"/>
<text text-anchor="middle" x="635.71" y="-387.79" font-family="Helvetica,sans-Serif" font-size="20.00" fill="#4d4d4d">minerai</text>
</g>
<!-- opérateur minier -->
<g id="node16" class="node">
<title>opérateur minier</title>
<ellipse fill="#69166e" stroke="white" stroke-width="0" cx="698.1" cy="-422.72" rx="11" ry="11"/>
<text text-anchor="middle" x="616.1" y="-438.28" font-family="Helvetica,sans-Serif" font-size="16.80" fill="#4d4d4d">opérateur minier</text>
</g>
<!-- vision positive de la ressource -->
<g id="node17" class="node">
<title>vision positive de la ressource</title>
<ellipse fill="#210c4a" stroke="white" stroke-width="0" cx="545.3" cy="-183.56" rx="3.5" ry="3.5"/>
<text text-anchor="middle" x="644.3" y="-191.18" font-family="Helvetica,sans-Serif" font-size="13.60" fill="#4d4d4d">vision positive de la ressource</text>
</g>
<!-- milieu -->
<g id="node18" class="node">
<title>milieu</title>
<ellipse fill="#0a0722" stroke="white" stroke-width="0" cx="71.87" cy="-375.91" rx="3.5" ry="3.5"/>
<text text-anchor="middle" x="47.37" y="-383.53" font-family="Helvetica,sans-Serif" font-size="13.60" fill="#4d4d4d">milieu</text>
</g>
<!-- danger -->
<g id="node19" class="node">
<title>danger</title>
<ellipse fill="#000004" stroke="white" stroke-width="0" cx="122.17" cy="-538.02" rx="0.5" ry="0.5"/>
<text text-anchor="middle" x="100.17" y="-541.92" font-family="Helvetica,sans-Serif" font-size="12.00" fill="#4d4d4d">danger</text>
</g>
<!-- ressource non&#45;renouvelable -->
<g id="node20" class="node">
<title>ressource non&#45;renouvelable</title>
<ellipse fill="#190c3e" stroke="white" stroke-width="0" cx="685.96" cy="-526.48" rx="3.5" ry="3.5"/>
<text text-anchor="middle" x="588.96" y="-534.1" font-family="Helvetica,sans-Serif" font-size="13.60" fill="#4d4d4d">ressource non&#45;renouvelable</text>
</g>
<!-- commerce -->
<g id="node21" class="node">
<title>commerce</title>
<ellipse fill="#280b53" stroke="white" stroke-width="0" cx="813.04" cy="-7" rx="7" ry="7"/>
<text text-anchor="middle" x="766.04" y="-18.84" font-family="Helvetica,sans-Serif" font-size="15.20" fill="#4d4d4d">commerce</text>
</g>
<!-- main d’oeuvre -->
<g id="node22" class="node">
<title>main d’oeuvre</title>
<ellipse fill="#190c3e" stroke="white" stroke-width="0" cx="959.58" cy="-569.66" rx="3.5" ry="3.5"/>
<text text-anchor="middle" x="906.58" y="-577.28" font-family="Helvetica,sans-Serif" font-size="13.60" fill="#4d4d4d">main d’oeuvre</text>
</g>
<!-- localité -->
<g id="node23" class="node">
<title>localité</title>
<ellipse fill="#09061f" stroke="white" stroke-width="0" cx="1018.95" cy="-443.22" rx="3.5" ry="3.5"/>
<text text-anchor="middle" x="990.95" y="-450.84" font-family="Helvetica,sans-Serif" font-size="13.60" fill="#4d4d4d">localité</text>
</g>
</g>
</svg>
