<?xml version="1.0" encoding="UTF-8" standalone="no"?>
<!DOCTYPE svg PUBLIC "-//W3C//DTD SVG 1.1//EN"
 "http://www.w3.org/Graphics/SVG/1.1/DTD/svg11.dtd">
<!-- Generated by graphviz version 2.43.0 (0)
 -->
<!-- Pages: 1 -->
<svg width="502pt" height="240pt"
 viewBox="0.00 0.00 502.24 240.48" xmlns="http://www.w3.org/2000/svg" xmlns:xlink="http://www.w3.org/1999/xlink">
<g id="graph0" class="graph" transform="scale(1 1) rotate(0) translate(4 236.48)">
<polygon fill="white" stroke="transparent" points="-4,4 -4,-236.48 498.24,-236.48 498.24,4 -4,4"/>
<!-- pollution&#45;&#45;travail -->
<g id="edge1" class="edge">
<title>pollution&#45;&#45;travail</title>
<path fill="none" stroke="darkgrey" stroke-width="6.21" d="M218.01,-117.56C228.5,-138.86 242.89,-168.1 251.12,-184.82"/>
</g>
<!-- pollution&#45;&#45;destruction -->
<g id="edge2" class="edge">
<title>pollution&#45;&#45;destruction</title>
<path fill="none" stroke="darkgrey" stroke-width="4.41" d="M181.36,-74.61C157.28,-57.53 122.19,-32.63 111.81,-25.27"/>
</g>
<!-- pollution&#45;&#45;argent -->
<g id="edge3" class="edge">
<title>pollution&#45;&#45;argent</title>
<path fill="none" stroke="darkgrey" stroke-width="1.12" d="M226.46,-70.94C245.78,-52.26 272.93,-26.02 284.24,-15.09"/>
</g>
<!-- pollution&#45;&#45;nickel -->
<g id="edge4" class="edge">
<title>pollution&#45;&#45;nickel</title>
<path fill="none" stroke="darkgrey" stroke-width="7.93" d="M234.37,-93.47C249.34,-94.48 267.72,-95.71 283.57,-96.77"/>
</g>
<!-- pollution&#45;&#45;camion -->
<g id="edge5" class="edge">
<title>pollution&#45;&#45;camion</title>
<path fill="none" stroke="darkgrey" stroke-width="1.4" d="M215.47,-64.26C220.97,-49.66 227.44,-32.5 231.52,-21.69"/>
</g>
<!-- pollution&#45;&#45;économie -->
<g id="edge6" class="edge">
<title>pollution&#45;&#45;économie</title>
<path fill="none" stroke="darkgrey" stroke-width="7.77" d="M226.38,-111.89C236.41,-121.53 248.08,-132.74 256.81,-141.13"/>
</g>
<!-- pollution&#45;&#45;environnement -->
<g id="edge7" class="edge">
<title>pollution&#45;&#45;environnement</title>
<path fill="none" stroke="darkgrey" stroke-width="6" d="M196.85,-119.47C193.59,-130.42 189.98,-142.51 187.29,-151.54"/>
</g>
<!-- pollution&#45;&#45;emploi -->
<g id="edge8" class="edge">
<title>pollution&#45;&#45;emploi</title>
<path fill="none" stroke="darkgrey" stroke-width="10" d="M214.47,-119.41C217.63,-128.94 221.04,-139.18 223.69,-147.13"/>
</g>
<!-- pollution&#45;&#45;déforestation -->
<g id="edge9" class="edge">
<title>pollution&#45;&#45;déforestation</title>
<path fill="none" stroke="darkgrey" d="M176.27,-94.58C141.73,-98.23 87.78,-103.94 81.17,-104.64"/>
</g>
<!-- travail&#45;&#45;nickel -->
<g id="edge10" class="edge">
<title>travail&#45;&#45;nickel</title>
<path fill="none" stroke="darkgrey" stroke-width="1.67" d="M265.47,-185.47C274.21,-171.56 288.65,-148.57 300.43,-129.82"/>
</g>
<!-- travail&#45;&#45;économie -->
<g id="edge11" class="edge">
<title>travail&#45;&#45;économie</title>
<path fill="none" stroke="darkgrey" stroke-width="1.78" d="M261.5,-183.98C262.63,-179.93 263.88,-175.46 265.06,-171.22"/>
</g>
<!-- travail&#45;&#45;environnement -->
<g id="edge12" class="edge">
<title>travail&#45;&#45;environnement</title>
<path fill="none" stroke="darkgrey" stroke-width="1.53" d="M244.29,-192.16C230.91,-186.32 210.37,-177.34 196.85,-171.43"/>
</g>
<!-- argent&#45;&#45;nickel -->
<g id="edge13" class="edge">
<title>argent&#45;&#45;nickel</title>
<path fill="none" stroke="darkgrey" stroke-width="2.71" d="M291.77,-16.7C295.22,-26.91 302.04,-47.05 308.06,-64.88"/>
</g>
<!-- nickel&#45;&#45;camion -->
<g id="edge14" class="edge">
<title>nickel&#45;&#45;camion</title>
<path fill="none" stroke="darkgrey" stroke-width="3.47" d="M294.43,-72.73C277.01,-54.47 254.98,-31.37 243.44,-19.26"/>
</g>
<!-- nickel&#45;&#45;économie -->
<g id="edge15" class="edge">
<title>nickel&#45;&#45;économie</title>
<path fill="none" stroke="darkgrey" stroke-width="3.89" d="M295.38,-125.83C290.84,-130.8 286.28,-135.81 282.29,-140.18"/>
</g>
<!-- nickel&#45;&#45;emploi -->
<g id="edge16" class="edge">
<title>nickel&#45;&#45;emploi</title>
<path fill="none" stroke="darkgrey" stroke-width="3.97" d="M289.76,-119.46C273.11,-130.74 253.28,-144.18 240.74,-152.67"/>
</g>
<!-- nickel&#45;&#45;usine -->
<g id="edge17" class="edge">
<title>nickel&#45;&#45;usine</title>
<path fill="none" stroke="darkgrey" stroke-width="3.57" d="M355.25,-93.6C388.2,-88.41 434.67,-81.1 452.19,-78.34"/>
</g>
<!-- nickel&#45;&#45;sln -->
<g id="edge18" class="edge">
<title>nickel&#45;&#45;sln</title>
<path fill="none" stroke="darkgrey" stroke-width="5.62" d="M349.57,-78.45C359.91,-71.28 370.13,-64.19 375.06,-60.76"/>
</g>
<!-- nickel&#45;&#45;minerai -->
<g id="edge19" class="edge">
<title>nickel&#45;&#45;minerai</title>
<path fill="none" stroke="darkgrey" stroke-width="2.37" d="M354.76,-108.56C380.87,-115.53 414.37,-124.46 428.63,-128.27"/>
</g>
<!-- économie&#45;&#45;environnement -->
<g id="edge20" class="edge">
<title>économie&#45;&#45;environnement</title>
<path fill="none" stroke="darkgrey" stroke-width="8.68" d="M251.95,-156.16C235.86,-158.33 212.58,-161.48 197.66,-163.49"/>
</g>
<!-- économie&#45;&#45;emploi -->
<g id="edge21" class="edge">
<title>économie&#45;&#45;emploi</title>
<path fill="none" stroke="darkgrey" stroke-width="8" d="M252.05,-156.9C248.96,-157.44 245.79,-158 242.81,-158.53"/>
</g>
<!-- environnement&#45;&#45;emploi -->
<g id="edge22" class="edge">
<title>environnement&#45;&#45;emploi</title>
<path fill="none" stroke="darkgrey" stroke-width="1.77" d="M197.69,-164.04C202.85,-163.55 208.65,-162.98 213.81,-162.49"/>
</g>
<!-- usine&#45;&#45;minerai -->
<g id="edge23" class="edge">
<title>usine&#45;&#45;minerai</title>
<path fill="none" stroke="darkgrey" stroke-width="1.13" d="M456.34,-83.71C451.8,-93.87 443.05,-113.4 438.49,-123.58"/>
</g>
<!-- pollution -->
<g id="node1" class="node">
<title>pollution</title>
<ellipse fill="#fbba1f" stroke="white" stroke-width="0" cx="205.18" cy="-91.51" rx="29" ry="29"/>
<text text-anchor="middle" x="122.18" y="-127.67" font-family="Helvetica,sans-Serif" font-size="24.80" fill="#4d4d4d">pollution</text>
</g>
<!-- travail -->
<g id="node2" class="node">
<title>travail</title>
<ellipse fill="#8a226a" stroke="white" stroke-width="0" cx="257.61" cy="-197.98" rx="14.5" ry="14.5"/>
<text text-anchor="middle" x="213.11" y="-217.76" font-family="Helvetica,sans-Serif" font-size="18.40" fill="#4d4d4d">travail</text>
</g>
<!-- destruction -->
<g id="node3" class="node">
<title>destruction</title>
<ellipse fill="#180c3c" stroke="white" stroke-width="0" cx="108.82" cy="-23.15" rx="3.5" ry="3.5"/>
<text text-anchor="middle" x="67.32" y="-30.77" font-family="Helvetica,sans-Serif" font-size="13.60" fill="#4d4d4d">destruction</text>
</g>
<!-- argent -->
<g id="node4" class="node">
<title>argent</title>
<ellipse fill="#320a5e" stroke="white" stroke-width="0" cx="289.5" cy="-9.99" rx="7" ry="7"/>
<text text-anchor="middle" x="307.5" y="-21.83" font-family="Helvetica,sans-Serif" font-size="15.20" fill="#4d4d4d">argent</text>
</g>
<!-- nickel -->
<g id="node5" class="node">
<title>nickel</title>
<ellipse fill="#fcffa4" stroke="white" stroke-width="0" cx="319.67" cy="-99.2" rx="36" ry="36"/>
<text text-anchor="middle" x="396.67" y="-71.8" font-family="Helvetica,sans-Serif" font-size="28.00" fill="#4d4d4d">nickel</text>
</g>
<!-- camion -->
<g id="node6" class="node">
<title>camion</title>
<ellipse fill="#550f6d" stroke="white" stroke-width="0" cx="235.56" cy="-11" rx="11" ry="11"/>
<text text-anchor="middle" x="193.56" y="-26.56" font-family="Helvetica,sans-Serif" font-size="16.80" fill="#4d4d4d">camion</text>
</g>
<!-- économie -->
<g id="node7" class="node">
<title>économie</title>
<ellipse fill="#c73e4c" stroke="white" stroke-width="0" cx="269.93" cy="-153.74" rx="18" ry="18"/>
<text text-anchor="middle" x="336.43" y="-177.74" font-family="Helvetica,sans-Serif" font-size="20.00" fill="#4d4d4d">économie</text>
</g>
<!-- environnement -->
<g id="node8" class="node">
<title>environnement</title>
<ellipse fill="#9d2964" stroke="white" stroke-width="0" cx="183.15" cy="-165.45" rx="14.5" ry="14.5"/>
<text text-anchor="middle" x="97.15" y="-185.23" font-family="Helvetica,sans-Serif" font-size="18.40" fill="#4d4d4d">environnement</text>
</g>
<!-- emploi -->
<g id="node9" class="node">
<title>emploi</title>
<ellipse fill="#a02a63" stroke="white" stroke-width="0" cx="228.33" cy="-161.08" rx="14.5" ry="14.5"/>
<text text-anchor="middle" x="215.96" y="-131.86" font-family="Helvetica,sans-Serif" font-size="18.40" fill="#4d4d4d">emploi</text>
</g>
<!-- déforestation -->
<g id="node10" class="node">
<title>déforestation</title>
<ellipse fill="#000004" stroke="white" stroke-width="0" cx="80.5" cy="-104.72" rx="0.5" ry="0.5"/>
<text text-anchor="middle" x="40" y="-108.62" font-family="Helvetica,sans-Serif" font-size="12.00" fill="#4d4d4d">déforestation</text>
</g>
<!-- usine -->
<g id="node11" class="node">
<title>usine</title>
<ellipse fill="#380962" stroke="white" stroke-width="0" cx="459.24" cy="-77.23" rx="7" ry="7"/>
<text text-anchor="middle" x="473.24" y="-89.07" font-family="Helvetica,sans-Serif" font-size="15.20" fill="#4d4d4d">usine</text>
</g>
<!-- sln -->
<g id="node12" class="node">
<title>sln</title>
<ellipse fill="#1f0c48" stroke="white" stroke-width="0" cx="378.11" cy="-58.65" rx="3.5" ry="3.5"/>
<text text-anchor="middle" x="365.11" y="-44.27" font-family="Helvetica,sans-Serif" font-size="13.60" fill="#4d4d4d">sln</text>
</g>
<!-- minerai -->
<g id="node13" class="node">
<title>minerai</title>
<ellipse fill="#380962" stroke="white" stroke-width="0" cx="435.56" cy="-130.12" rx="7" ry="7"/>
<text text-anchor="middle" x="399.56" y="-141.96" font-family="Helvetica,sans-Serif" font-size="15.20" fill="#4d4d4d">minerai</text>
</g>
</g>
</svg>
