<?xml version="1.0" encoding="UTF-8" standalone="no"?>
<!DOCTYPE svg PUBLIC "-//W3C//DTD SVG 1.1//EN"
 "http://www.w3.org/Graphics/SVG/1.1/DTD/svg11.dtd">
<!-- Generated by graphviz version 2.43.0 (0)
 -->
<!-- Pages: 1 -->
<svg width="711pt" height="447pt"
 viewBox="0.00 0.00 710.62 447.15" xmlns="http://www.w3.org/2000/svg" xmlns:xlink="http://www.w3.org/1999/xlink">
<g id="graph0" class="graph" transform="scale(1 1) rotate(0) translate(4 443.15)">
<polygon fill="white" stroke="transparent" points="-4,4 -4,-443.15 706.62,-443.15 706.62,4 -4,4"/>
<!-- pollution&#45;&#45;emploi -->
<g id="edge1" class="edge">
<title>pollution&#45;&#45;emploi</title>
<path fill="none" stroke="darkgrey" stroke-width="10" d="M306.59,-234.18C306.6,-234.04 306.61,-233.9 306.62,-233.77"/>
</g>
<!-- pollution&#45;&#45;richesse -->
<g id="edge2" class="edge">
<title>pollution&#45;&#45;richesse</title>
<path fill="none" stroke="darkgrey" stroke-width="1.65" d="M317.61,-237.02C329.31,-213.56 345.85,-180.37 354.03,-163.97"/>
</g>
<!-- pollution&#45;&#45;démolition -->
<g id="edge3" class="edge">
<title>pollution&#45;&#45;démolition</title>
<path fill="none" stroke="darkgrey" stroke-width="2.76" d="M275.31,-264.98C245.14,-266.86 200.14,-269.65 182.79,-270.73"/>
</g>
<!-- pollution&#45;&#45;argent -->
<g id="edge4" class="edge">
<title>pollution&#45;&#45;argent</title>
<path fill="none" stroke="darkgrey" stroke-width="1.58" d="M325.2,-283.59C338.41,-296.67 354.52,-312.63 362.54,-320.57"/>
</g>
<!-- pollution&#45;&#45;nickel -->
<g id="edge5" class="edge">
<title>pollution&#45;&#45;nickel</title>
<path fill="none" stroke="darkgrey" stroke-width="4.98" d="M333.77,-259.66C369.57,-255.37 430.08,-248.11 467.26,-243.66"/>
</g>
<!-- pollution&#45;&#45;exploitation -->
<g id="edge6" class="edge">
<title>pollution&#45;&#45;exploitation</title>
<path fill="none" stroke="darkgrey" stroke-width="1.48" d="M319.29,-237.93C340.61,-201.37 379.29,-135.03 395.47,-107.3"/>
</g>
<!-- pollution&#45;&#45;montagne -->
<g id="edge7" class="edge">
<title>pollution&#45;&#45;montagne</title>
<path fill="none" stroke="darkgrey" d="M328.84,-279.67C367.18,-305.74 439.58,-354.97 460.75,-369.36"/>
</g>
<!-- pollution&#45;&#45;camion -->
<g id="edge8" class="edge">
<title>pollution&#45;&#45;camion</title>
<path fill="none" stroke="darkgrey" stroke-width="1.8" d="M320.26,-287.77C341.42,-320.95 378.1,-378.46 392.38,-400.85"/>
</g>
<!-- pollution&#45;&#45;économie -->
<g id="edge9" class="edge">
<title>pollution&#45;&#45;économie</title>
<path fill="none" stroke="darkgrey" stroke-width="4.58" d="M332.43,-254.79C348.72,-249.89 368.76,-243.86 382.77,-239.65"/>
</g>
<!-- pollution&#45;&#45;impact environnemental -->
<g id="edge10" class="edge">
<title>pollution&#45;&#45;impact environnemental</title>
<path fill="none" stroke="darkgrey" stroke-width="4.09" d="M326.89,-244.42C350.02,-224.98 385.47,-195.2 404.93,-178.86"/>
</g>
<!-- pollution&#45;&#45;conflit -->
<g id="edge11" class="edge">
<title>pollution&#45;&#45;conflit</title>
<path fill="none" stroke="darkgrey" stroke-width="1.08" d="M283.32,-283.46C258.57,-307.09 219.72,-344.18 209.29,-354.14"/>
</g>
<!-- pollution&#45;&#45;développement -->
<g id="edge12" class="edge">
<title>pollution&#45;&#45;développement</title>
<path fill="none" stroke="darkgrey" stroke-width="1.37" d="M278.19,-250.21C229.08,-226.1 127.74,-176.35 118.35,-171.74"/>
</g>
<!-- pollution&#45;&#45;déforestation -->
<g id="edge13" class="edge">
<title>pollution&#45;&#45;déforestation</title>
<path fill="none" stroke="darkgrey" stroke-width="1.51" d="M275.67,-266.45C223.73,-272.35 118.07,-284.35 97.15,-286.73"/>
</g>
<!-- emploi&#45;&#45;richesse -->
<g id="edge14" class="edge">
<title>emploi&#45;&#45;richesse</title>
<path fill="none" stroke="darkgrey" stroke-width="3.1" d="M336.4,-173.73C341.49,-169.28 346.45,-164.95 350.42,-161.49"/>
</g>
<!-- emploi&#45;&#45;démolition -->
<g id="edge15" class="edge">
<title>emploi&#45;&#45;démolition</title>
<path fill="none" stroke="darkgrey" stroke-width="1.36" d="M277.5,-214.97C245.57,-232.58 198.67,-258.46 181.88,-267.72"/>
</g>
<!-- emploi&#45;&#45;argent -->
<g id="edge16" class="edge">
<title>emploi&#45;&#45;argent</title>
<path fill="none" stroke="darkgrey" stroke-width="2.6" d="M324.19,-230.49C337.99,-260.72 357.35,-303.14 364.64,-319.12"/>
</g>
<!-- emploi&#45;&#45;nickel -->
<g id="edge17" class="edge">
<title>emploi&#45;&#45;nickel</title>
<path fill="none" stroke="darkgrey" stroke-width="6.34" d="M344.51,-205.37C379.79,-213.2 433.51,-225.12 467.56,-232.68"/>
</g>
<!-- emploi&#45;&#45;exploitation -->
<g id="edge18" class="edge">
<title>emploi&#45;&#45;exploitation</title>
<path fill="none" stroke="darkgrey" stroke-width="1.31" d="M333.52,-170.74C352.94,-149.41 379.12,-120.67 393.1,-105.32"/>
</g>
<!-- emploi&#45;&#45;économie -->
<g id="edge19" class="edge">
<title>emploi&#45;&#45;économie</title>
<path fill="none" stroke="darkgrey" stroke-width="7.01" d="M342.72,-211.17C356.47,-216.76 371.78,-222.99 383.11,-227.59"/>
</g>
<!-- emploi&#45;&#45;impact environnemental -->
<g id="edge20" class="edge">
<title>emploi&#45;&#45;impact environnemental</title>
<path fill="none" stroke="darkgrey" stroke-width="5.42" d="M343.87,-187.9C362.96,-182.61 385.83,-176.27 401.27,-172"/>
</g>
<!-- emploi&#45;&#45;conflit -->
<g id="edge22" class="edge">
<title>emploi&#45;&#45;conflit</title>
<path fill="none" stroke="darkgrey" stroke-width="2.18" d="M289.61,-227.83C263.36,-268.59 218.79,-337.8 208.7,-353.46"/>
</g>
<!-- emploi&#45;&#45;ressource -->
<g id="edge21" class="edge">
<title>emploi&#45;&#45;ressource</title>
<path fill="none" stroke="darkgrey" stroke-width="1.08" d="M304.66,-161.68C298.86,-115.33 289.16,-37.73 286.21,-14.07"/>
</g>
<!-- richesse&#45;&#45;nickel -->
<g id="edge23" class="edge">
<title>richesse&#45;&#45;nickel</title>
<path fill="none" stroke="darkgrey" stroke-width="1.61" d="M368.66,-159.91C389.63,-172.7 439.97,-203.41 471.76,-222.81"/>
</g>
<!-- richesse&#45;&#45;économie -->
<g id="edge24" class="edge">
<title>richesse&#45;&#45;économie</title>
<path fill="none" stroke="darkgrey" stroke-width="1.09" d="M364.02,-163.88C370.95,-177.47 383.52,-202.13 391.82,-218.4"/>
</g>
<!-- richesse&#45;&#45;impact environnemental -->
<g id="edge25" class="edge">
<title>richesse&#45;&#45;impact environnemental</title>
<path fill="none" stroke="darkgrey" stroke-width="1.28" d="M369.98,-156.41C378.63,-158.31 390.86,-160.98 400.93,-163.18"/>
</g>
<!-- argent&#45;&#45;nickel -->
<g id="edge26" class="edge">
<title>argent&#45;&#45;nickel</title>
<path fill="none" stroke="darkgrey" stroke-width="2.19" d="M373.59,-321.65C390.74,-310.5 440.67,-278.06 472.29,-257.52"/>
</g>
<!-- nickel&#45;&#45;exploitation -->
<g id="edge27" class="edge">
<title>nickel&#45;&#45;exploitation</title>
<path fill="none" stroke="darkgrey" stroke-width="2.45" d="M481.39,-212.47C460.28,-180.76 426.38,-129.85 410.97,-106.72"/>
</g>
<!-- nickel&#45;&#45;montagne -->
<g id="edge28" class="edge">
<title>nickel&#45;&#45;montagne</title>
<path fill="none" stroke="darkgrey" stroke-width="1.64" d="M491.79,-271.45C484.04,-302.94 472.71,-348.99 468.43,-366.4"/>
</g>
<!-- nickel&#45;&#45;camion -->
<g id="edge29" class="edge">
<title>nickel&#45;&#45;camion</title>
<path fill="none" stroke="darkgrey" stroke-width="2.92" d="M482.86,-267.91C459.71,-306.85 419.07,-375.23 404.08,-400.45"/>
</g>
<!-- nickel&#45;&#45;économie -->
<g id="edge30" class="edge">
<title>nickel&#45;&#45;économie</title>
<path fill="none" stroke="darkgrey" stroke-width="3.32" d="M466.98,-238.04C450.76,-237.17 431.76,-236.16 418.15,-235.43"/>
</g>
<!-- nickel&#45;&#45;impact environnemental -->
<g id="edge31" class="edge">
<title>nickel&#45;&#45;impact environnemental</title>
<path fill="none" stroke="darkgrey" stroke-width="2.33" d="M475.38,-217.98C461.27,-205.27 444,-189.72 432.31,-179.19"/>
</g>
<!-- nickel&#45;&#45;roche -->
<g id="edge32" class="edge">
<title>nickel&#45;&#45;roche</title>
<path fill="none" stroke="darkgrey" stroke-width="1.31" d="M521.25,-264.23C554.84,-302.13 617.48,-372.82 635.34,-392.97"/>
</g>
<!-- nickel&#45;&#45;terre rouge -->
<g id="edge33" class="edge">
<title>nickel&#45;&#45;terre rouge</title>
<path fill="none" stroke="darkgrey" stroke-width="1.52" d="M530.76,-249.74C580.96,-265.76 676.07,-296.13 695.57,-302.36"/>
</g>
<!-- nickel&#45;&#45;usine -->
<g id="edge34" class="edge">
<title>nickel&#45;&#45;usine</title>
<path fill="none" stroke="darkgrey" stroke-width="2.64" d="M523.43,-217.37C560.4,-182.62 629.35,-117.82 649.01,-99.35"/>
</g>
<!-- nickel&#45;&#45;sln -->
<g id="edge35" class="edge">
<title>nickel&#45;&#45;sln</title>
<path fill="none" stroke="darkgrey" stroke-width="3.22" d="M532.14,-236.93C571.73,-233.47 635.91,-227.85 657.24,-225.98"/>
</g>
<!-- nickel&#45;&#45;minerai -->
<g id="edge36" class="edge">
<title>nickel&#45;&#45;minerai</title>
<path fill="none" stroke="darkgrey" stroke-width="2.36" d="M509.54,-208.64C523.14,-166.1 546.67,-92.53 553.86,-70.05"/>
</g>
<!-- exploitation&#45;&#45;impact environnemental -->
<g id="edge37" class="edge">
<title>exploitation&#45;&#45;impact environnemental</title>
<path fill="none" stroke="darkgrey" stroke-width="1.5" d="M406.05,-108.91C408.62,-120.55 412.26,-137.03 415.01,-149.48"/>
</g>
<!-- exploitation&#45;&#45;ressource -->
<g id="edge38" class="edge">
<title>exploitation&#45;&#45;ressource</title>
<path fill="none" stroke="darkgrey" stroke-width="1.28" d="M391.18,-85.86C366.44,-67.43 309.59,-25.08 291.19,-11.37"/>
</g>
<!-- exploitation&#45;&#45;minerai -->
<g id="edge39" class="edge">
<title>exploitation&#45;&#45;minerai</title>
<path fill="none" stroke="darkgrey" stroke-width="1.86" d="M417.29,-91.64C449.3,-85.11 525.39,-69.59 548.93,-64.78"/>
</g>
<!-- économie&#45;&#45;impact environnemental -->
<g id="edge40" class="edge">
<title>économie&#45;&#45;impact environnemental</title>
<path fill="none" stroke="darkgrey" stroke-width="5.48" d="M404.88,-217.12C407.68,-207.14 411.18,-194.64 413.99,-184.64"/>
</g>
<!-- usine&#45;&#45;minerai -->
<g id="edge41" class="edge">
<title>usine&#45;&#45;minerai</title>
<path fill="none" stroke="darkgrey" stroke-width="1.48" d="M647.6,-92.18C629.64,-86.53 580.84,-71.16 562.81,-65.48"/>
</g>
<!-- pollution -->
<g id="node1" class="node">
<title>pollution</title>
<ellipse fill="#fb9906" stroke="white" stroke-width="0" cx="304.57" cy="-263.16" rx="29" ry="29"/>
<text text-anchor="middle" x="221.57" y="-299.32" font-family="Helvetica,sans-Serif" font-size="24.80" fill="#4d4d4d">pollution</text>
</g>
<!-- emploi -->
<g id="node2" class="node">
<title>emploi</title>
<ellipse fill="#fcffa4" stroke="white" stroke-width="0" cx="309.14" cy="-197.51" rx="36" ry="36"/>
<text text-anchor="middle" x="225.64" y="-242.11" font-family="Helvetica,sans-Serif" font-size="28.00" fill="#4d4d4d">emploi</text>
</g>
<!-- richesse -->
<g id="node3" class="node">
<title>richesse</title>
<ellipse fill="#59106e" stroke="white" stroke-width="0" cx="358.99" cy="-154.01" rx="11" ry="11"/>
<text text-anchor="middle" x="312.99" y="-147.57" font-family="Helvetica,sans-Serif" font-size="16.80" fill="#4d4d4d">richesse</text>
</g>
<!-- démolition -->
<g id="node4" class="node">
<title>démolition</title>
<ellipse fill="#240c4f" stroke="white" stroke-width="0" cx="175.62" cy="-271.17" rx="7" ry="7"/>
<text text-anchor="middle" x="127.62" y="-269.01" font-family="Helvetica,sans-Serif" font-size="15.20" fill="#4d4d4d">démolition</text>
</g>
<!-- argent -->
<g id="node5" class="node">
<title>argent</title>
<ellipse fill="#3d0965" stroke="white" stroke-width="0" cx="367.58" cy="-325.55" rx="7" ry="7"/>
<text text-anchor="middle" x="335.58" y="-337.39" font-family="Helvetica,sans-Serif" font-size="15.20" fill="#4d4d4d">argent</text>
</g>
<!-- nickel -->
<g id="node6" class="node">
<title>nickel</title>
<ellipse fill="#f8cd37" stroke="white" stroke-width="0" cx="499.58" cy="-239.78" rx="32.5" ry="32.5"/>
<text text-anchor="middle" x="428.58" y="-280.16" font-family="Helvetica,sans-Serif" font-size="26.40" fill="#4d4d4d">nickel</text>
</g>
<!-- exploitation -->
<g id="node7" class="node">
<title>exploitation</title>
<ellipse fill="#85216b" stroke="white" stroke-width="0" cx="402.88" cy="-94.58" rx="14.5" ry="14.5"/>
<text text-anchor="middle" x="332.88" y="-114.36" font-family="Helvetica,sans-Serif" font-size="18.40" fill="#4d4d4d">exploitation</text>
</g>
<!-- montagne -->
<g id="node8" class="node">
<title>montagne</title>
<ellipse fill="#260c51" stroke="white" stroke-width="0" cx="466.7" cy="-373.41" rx="7" ry="7"/>
<text text-anchor="middle" x="420.7" y="-385.25" font-family="Helvetica,sans-Serif" font-size="15.20" fill="#4d4d4d">montagne</text>
</g>
<!-- camion -->
<g id="node9" class="node">
<title>camion</title>
<ellipse fill="#540f6d" stroke="white" stroke-width="0" cx="398.31" cy="-410.15" rx="11" ry="11"/>
<text text-anchor="middle" x="356.31" y="-425.71" font-family="Helvetica,sans-Serif" font-size="16.80" fill="#4d4d4d">camion</text>
</g>
<!-- économie -->
<g id="node10" class="node">
<title>économie</title>
<ellipse fill="#b73557" stroke="white" stroke-width="0" cx="400.01" cy="-234.47" rx="18" ry="18"/>
<text text-anchor="middle" x="409.01" y="-200.47" font-family="Helvetica,sans-Serif" font-size="20.00" fill="#4d4d4d">économie</text>
</g>
<!-- impact environnemental -->
<g id="node11" class="node">
<title>impact environnemental</title>
<ellipse fill="#c83f4b" stroke="white" stroke-width="0" cx="418.9" cy="-167.12" rx="18" ry="18"/>
<text text-anchor="middle" x="522.9" y="-133.12" font-family="Helvetica,sans-Serif" font-size="20.00" fill="#4d4d4d">impact environnemental</text>
</g>
<!-- conflit -->
<g id="node12" class="node">
<title>conflit</title>
<ellipse fill="#1f0c48" stroke="white" stroke-width="0" cx="206.63" cy="-356.68" rx="3.5" ry="3.5"/>
<text text-anchor="middle" x="182.13" y="-364.3" font-family="Helvetica,sans-Serif" font-size="13.60" fill="#4d4d4d">conflit</text>
</g>
<!-- développement -->
<g id="node13" class="node">
<title>développement</title>
<ellipse fill="#000004" stroke="white" stroke-width="0" cx="117.65" cy="-171.4" rx="0.5" ry="0.5"/>
<text text-anchor="middle" x="70.15" y="-175.3" font-family="Helvetica,sans-Serif" font-size="12.00" fill="#4d4d4d">développement</text>
</g>
<!-- déforestation -->
<g id="node14" class="node">
<title>déforestation</title>
<ellipse fill="#09061f" stroke="white" stroke-width="0" cx="93.5" cy="-287.15" rx="3.5" ry="3.5"/>
<text text-anchor="middle" x="45" y="-294.77" font-family="Helvetica,sans-Serif" font-size="13.60" fill="#4d4d4d">déforestation</text>
</g>
<!-- ressource -->
<g id="node15" class="node">
<title>ressource</title>
<ellipse fill="#2f0a5b" stroke="white" stroke-width="0" cx="285.32" cy="-7" rx="7" ry="7"/>
<text text-anchor="middle" x="241.32" y="-18.84" font-family="Helvetica,sans-Serif" font-size="15.20" fill="#4d4d4d">ressource</text>
</g>
<!-- roche -->
<g id="node16" class="node">
<title>roche</title>
<ellipse fill="#390963" stroke="white" stroke-width="0" cx="640.2" cy="-398.46" rx="7" ry="7"/>
<text text-anchor="middle" x="611.7" y="-410.3" font-family="Helvetica,sans-Serif" font-size="15.20" fill="#4d4d4d">roche</text>
</g>
<!-- terre rouge -->
<g id="node17" class="node">
<title>terre rouge</title>
<ellipse fill="#0b0724" stroke="white" stroke-width="0" cx="699.12" cy="-303.49" rx="3.5" ry="3.5"/>
<text text-anchor="middle" x="657.62" y="-311.11" font-family="Helvetica,sans-Serif" font-size="13.60" fill="#4d4d4d">terre rouge</text>
</g>
<!-- usine -->
<g id="node18" class="node">
<title>usine</title>
<ellipse fill="#3b0964" stroke="white" stroke-width="0" cx="654.36" cy="-94.31" rx="7" ry="7"/>
<text text-anchor="middle" x="626.36" y="-106.15" font-family="Helvetica,sans-Serif" font-size="15.20" fill="#4d4d4d">usine</text>
</g>
<!-- sln -->
<g id="node19" class="node">
<title>sln</title>
<ellipse fill="#260c51" stroke="white" stroke-width="0" cx="664.4" cy="-225.36" rx="7" ry="7"/>
<text text-anchor="middle" x="645.9" y="-237.2" font-family="Helvetica,sans-Serif" font-size="15.20" fill="#4d4d4d">sln</text>
</g>
<!-- minerai -->
<g id="node20" class="node">
<title>minerai</title>
<ellipse fill="#3d0965" stroke="white" stroke-width="0" cx="556.01" cy="-63.34" rx="7" ry="7"/>
<text text-anchor="middle" x="520.01" y="-75.18" font-family="Helvetica,sans-Serif" font-size="15.20" fill="#4d4d4d">minerai</text>
</g>
</g>
</svg>
