<?xml version="1.0" encoding="UTF-8" standalone="no"?>
<!DOCTYPE svg PUBLIC "-//W3C//DTD SVG 1.1//EN"
 "http://www.w3.org/Graphics/SVG/1.1/DTD/svg11.dtd">
<!-- Generated by graphviz version 2.43.0 (0)
 -->
<!-- Pages: 1 -->
<svg width="836pt" height="536pt"
 viewBox="0.00 0.00 836.26 536.01" xmlns="http://www.w3.org/2000/svg" xmlns:xlink="http://www.w3.org/1999/xlink">
<g id="graph0" class="graph" transform="scale(1 1) rotate(0) translate(4 532.01)">
<polygon fill="white" stroke="transparent" points="-4,4 -4,-532.01 832.26,-532.01 832.26,4 -4,4"/>
<!-- pollution&#45;&#45;travail -->
<g id="edge1" class="edge">
<title>pollution&#45;&#45;travail</title>
<path fill="none" stroke="darkgrey" stroke-width="6.62" d="M371.7,-249.21C388.01,-239.96 407.67,-228.8 420.33,-221.61"/>
</g>
<!-- pollution&#45;&#45;richesse -->
<g id="edge2" class="edge">
<title>pollution&#45;&#45;richesse</title>
<path fill="none" stroke="darkgrey" stroke-width="3.72" d="M373.23,-278.57C399.01,-289.87 434.65,-305.48 451.99,-313.08"/>
</g>
<!-- pollution&#45;&#45;destruction -->
<g id="edge3" class="edge">
<title>pollution&#45;&#45;destruction</title>
<path fill="none" stroke="darkgrey" stroke-width="4.24" d="M336.33,-233.47C330.24,-205.06 321.79,-165.61 318.38,-149.71"/>
</g>
<!-- pollution&#45;&#45;argent -->
<g id="edge4" class="edge">
<title>pollution&#45;&#45;argent</title>
<path fill="none" stroke="darkgrey" stroke-width="3.32" d="M320.96,-241.2C299.3,-217.6 267.56,-183.02 253.05,-167.21"/>
</g>
<!-- pollution&#45;&#45;nickel -->
<g id="edge5" class="edge">
<title>pollution&#45;&#45;nickel</title>
<path fill="none" stroke="darkgrey" stroke-width="10" d="M375.88,-265.25C402.36,-265.13 439.61,-264.95 466.93,-264.82"/>
</g>
<!-- pollution&#45;&#45;montagne -->
<g id="edge6" class="edge">
<title>pollution&#45;&#45;montagne</title>
<path fill="none" stroke="darkgrey" stroke-width="2.35" d="M371.56,-282.13C425.67,-314 540.64,-381.72 568.54,-398.15"/>
</g>
<!-- pollution&#45;&#45;camion -->
<g id="edge7" class="edge">
<title>pollution&#45;&#45;camion</title>
<path fill="none" stroke="darkgrey" stroke-width="3.85" d="M365.51,-289.2C398.19,-324.01 457.42,-387.09 478.49,-409.53"/>
</g>
<!-- pollution&#45;&#45;économie -->
<g id="edge8" class="edge">
<title>pollution&#45;&#45;économie</title>
<path fill="none" stroke="darkgrey" stroke-width="8.41" d="M355.48,-295.79C358.1,-302.25 360.81,-308.92 363.23,-314.89"/>
</g>
<!-- pollution&#45;&#45;environnement -->
<g id="edge9" class="edge">
<title>pollution&#45;&#45;environnement</title>
<path fill="none" stroke="darkgrey" stroke-width="5.83" d="M375.76,-265.18C375.91,-265.18 376.07,-265.18 376.22,-265.18"/>
</g>
<!-- pollution&#45;&#45;emploi -->
<g id="edge10" class="edge">
<title>pollution&#45;&#45;emploi</title>
<path fill="none" stroke="darkgrey" stroke-width="8.79" d="M311.13,-271.65C308.3,-272.2 305.51,-272.75 302.87,-273.26"/>
</g>
<!-- pollution&#45;&#45;terre -->
<g id="edge11" class="edge">
<title>pollution&#45;&#45;terre</title>
<path fill="none" stroke="darkgrey" stroke-width="1.74" d="M374.68,-273.73C426.96,-287.54 528.57,-314.39 556.12,-321.66"/>
</g>
<!-- pollution&#45;&#45;usine -->
<g id="edge12" class="edge">
<title>pollution&#45;&#45;usine</title>
<path fill="none" stroke="darkgrey" stroke-width="3.2" d="M352.59,-296.93C364.62,-337.15 384.8,-404.65 392.64,-430.87"/>
</g>
<!-- pollution&#45;&#45;érosion -->
<g id="edge13" class="edge">
<title>pollution&#45;&#45;érosion</title>
<path fill="none" stroke="darkgrey" stroke-width="1.15" d="M322.14,-239.98C269.67,-176.55 136.6,-15.66 128.34,-5.67"/>
</g>
<!-- pollution&#45;&#45;exploitation -->
<g id="edge14" class="edge">
<title>pollution&#45;&#45;exploitation</title>
<path fill="none" stroke="darkgrey" stroke-width="2.17" d="M356.59,-295.36C368.4,-321.72 384.92,-358.57 392.86,-376.28"/>
</g>
<!-- pollution&#45;&#45;sln -->
<g id="edge15" class="edge">
<title>pollution&#45;&#45;sln</title>
<path fill="none" stroke="darkgrey" stroke-width="1.36" d="M336.22,-297.5C327.55,-337.57 313.29,-403.44 308.65,-424.9"/>
</g>
<!-- pollution&#45;&#45;ressource -->
<g id="edge16" class="edge">
<title>pollution&#45;&#45;ressource</title>
<path fill="none" stroke="darkgrey" stroke-width="1.82" d="M326.06,-293.38C303.3,-330.6 264.53,-394.01 252.42,-413.81"/>
</g>
<!-- pollution&#45;&#45;conflit -->
<g id="edge17" class="edge">
<title>pollution&#45;&#45;conflit</title>
<path fill="none" stroke="darkgrey" stroke-width="3.11" d="M352.86,-234.07C363.26,-200.43 379.06,-149.36 384.73,-131.04"/>
</g>
<!-- pollution&#45;&#45;développement -->
<g id="edge18" class="edge">
<title>pollution&#45;&#45;développement</title>
<path fill="none" stroke="darkgrey" stroke-width="2.7" d="M310.46,-264.45C252.84,-262.76 137.21,-259.38 115.17,-258.73"/>
</g>
<!-- pollution&#45;&#45;minerai -->
<g id="edge19" class="edge">
<title>pollution&#45;&#45;minerai</title>
<path fill="none" stroke="darkgrey" stroke-width="3.1" d="M347.06,-297.89C353.44,-351.04 365.8,-454.09 369.86,-487.94"/>
</g>
<!-- pollution&#45;&#45;déforestation -->
<g id="edge20" class="edge">
<title>pollution&#45;&#45;déforestation</title>
<path fill="none" stroke="darkgrey" stroke-width="1.89" d="M356.36,-235.51C382.96,-175.28 441.32,-43.11 451.16,-20.84"/>
</g>
<!-- travail&#45;&#45;richesse -->
<g id="edge21" class="edge">
<title>travail&#45;&#45;richesse</title>
<path fill="none" stroke="darkgrey" stroke-width="2.26" d="M437.37,-228.6C443.24,-249.57 454.03,-288.08 459.28,-306.81"/>
</g>
<!-- travail&#45;&#45;destruction -->
<g id="edge22" class="edge">
<title>travail&#45;&#45;destruction</title>
<path fill="none" stroke="darkgrey" stroke-width="1.29" d="M420.88,-206.57C396.12,-191.35 341.52,-157.8 323.09,-146.48"/>
</g>
<!-- travail&#45;&#45;argent -->
<g id="edge23" class="edge">
<title>travail&#45;&#45;argent</title>
<path fill="none" stroke="darkgrey" stroke-width="1.06" d="M419.21,-210.06C383.16,-199.42 288.39,-171.47 256.18,-161.97"/>
</g>
<!-- travail&#45;&#45;nickel -->
<g id="edge24" class="edge">
<title>travail&#45;&#45;nickel</title>
<path fill="none" stroke="darkgrey" stroke-width="4.19" d="M445.15,-222.78C452.99,-228.46 463.64,-236.17 473.66,-243.43"/>
</g>
<!-- travail&#45;&#45;camion -->
<g id="edge25" class="edge">
<title>travail&#45;&#45;camion</title>
<path fill="none" stroke="darkgrey" stroke-width="1.46" d="M437.06,-228.54C447.07,-267.07 474.42,-372.45 483.33,-406.76"/>
</g>
<!-- travail&#45;&#45;économie -->
<g id="edge26" class="edge">
<title>travail&#45;&#45;économie</title>
<path fill="none" stroke="darkgrey" stroke-width="3.22" d="M426.72,-227.17C415.8,-248.49 393.98,-291.12 381.26,-315.96"/>
</g>
<!-- travail&#45;&#45;environnement -->
<g id="edge27" class="edge">
<title>travail&#45;&#45;environnement</title>
<path fill="none" stroke="darkgrey" stroke-width="3.08" d="M424.46,-225.76C418.77,-233.14 411.34,-242.78 405.27,-250.66"/>
</g>
<!-- travail&#45;&#45;terre -->
<g id="edge28" class="edge">
<title>travail&#45;&#45;terre</title>
<path fill="none" stroke="darkgrey" stroke-width="1.63" d="M444.87,-223.93C471.79,-246.6 538.06,-302.39 557.63,-318.87"/>
</g>
<!-- travail&#45;&#45;exploitation -->
<g id="edge29" class="edge">
<title>travail&#45;&#45;exploitation</title>
<path fill="none" stroke="darkgrey" stroke-width="1.49" d="M430.35,-228.63C423.35,-262.29 406.03,-345.53 399.78,-375.57"/>
</g>
<!-- travail&#45;&#45;conflit -->
<g id="edge30" class="edge">
<title>travail&#45;&#45;conflit</title>
<path fill="none" stroke="darkgrey" stroke-width="1.16" d="M426.68,-201.33C416.54,-181.69 397.6,-145.02 390.06,-130.43"/>
</g>
<!-- richesse&#45;&#45;nickel -->
<g id="edge31" class="edge">
<title>richesse&#45;&#45;nickel</title>
<path fill="none" stroke="darkgrey" stroke-width="3.08" d="M469.01,-308.85C472.35,-304.51 476.59,-298.98 480.94,-293.32"/>
</g>
<!-- richesse&#45;&#45;économie -->
<g id="edge32" class="edge">
<title>richesse&#45;&#45;économie</title>
<path fill="none" stroke="darkgrey" stroke-width="2.1" d="M451.16,-319.74C436.66,-322.54 411.01,-327.5 392.72,-331.03"/>
</g>
<!-- richesse&#45;&#45;environnement -->
<g id="edge33" class="edge">
<title>richesse&#45;&#45;environnement</title>
<path fill="none" stroke="darkgrey" stroke-width="2.6" d="M453.39,-310.73C441.99,-301.94 422.11,-286.6 408.55,-276.15"/>
</g>
<!-- richesse&#45;&#45;emploi -->
<g id="edge34" class="edge">
<title>richesse&#45;&#45;emploi</title>
<path fill="none" stroke="darkgrey" stroke-width="1.87" d="M451.49,-315.1C421.9,-308.27 339.37,-289.22 302.91,-280.8"/>
</g>
<!-- richesse&#45;&#45;terre -->
<g id="edge35" class="edge">
<title>richesse&#45;&#45;terre</title>
<path fill="none" stroke="darkgrey" stroke-width="1.01" d="M473.48,-318.25C494.4,-319.48 538.92,-322.1 556.14,-323.11"/>
</g>
<!-- richesse&#45;&#45;exploitation -->
<g id="edge36" class="edge">
<title>richesse&#45;&#45;exploitation</title>
<path fill="none" stroke="darkgrey" stroke-width="1.03" d="M454.61,-325.78C442.13,-339.06 417.63,-365.15 405.16,-378.42"/>
</g>
<!-- destruction&#45;&#45;nickel -->
<g id="edge37" class="edge">
<title>destruction&#45;&#45;nickel</title>
<path fill="none" stroke="darkgrey" stroke-width="1.95" d="M323.06,-146.72C346.08,-161.81 427.7,-215.32 472.67,-244.8"/>
</g>
<!-- destruction&#45;&#45;économie -->
<g id="edge38" class="edge">
<title>destruction&#45;&#45;économie</title>
<path fill="none" stroke="darkgrey" stroke-width="1.24" d="M318.81,-149.51C326.29,-175.89 353.42,-271.6 365.53,-314.31"/>
</g>
<!-- destruction&#45;&#45;emploi -->
<g id="edge39" class="edge">
<title>destruction&#45;&#45;emploi</title>
<path fill="none" stroke="darkgrey" stroke-width="1.78" d="M315.26,-149.49C310.52,-169.55 296.53,-228.76 289.43,-258.79"/>
</g>
<!-- argent&#45;&#45;nickel -->
<g id="edge40" class="edge">
<title>argent&#45;&#45;nickel</title>
<path fill="none" stroke="darkgrey" stroke-width="3.77" d="M255.71,-163.04C291.48,-177.74 410.34,-226.59 469.25,-250.81"/>
</g>
<!-- argent&#45;&#45;emploi -->
<g id="edge41" class="edge">
<title>argent&#45;&#45;emploi</title>
<path fill="none" stroke="darkgrey" stroke-width="2.11" d="M248.83,-169.22C255.7,-189.52 270.89,-234.41 279.3,-259.28"/>
</g>
<!-- nickel&#45;&#45;montagne -->
<g id="edge43" class="edge">
<title>nickel&#45;&#45;montagne</title>
<path fill="none" stroke="darkgrey" stroke-width="3.91" d="M519.78,-296.81C537.02,-329.75 562.52,-378.47 571.48,-395.59"/>
</g>
<!-- nickel&#45;&#45;camion -->
<g id="edge44" class="edge">
<title>nickel&#45;&#45;camion</title>
<path fill="none" stroke="darkgrey" stroke-width="6.37" d="M499.01,-300.54C495.26,-334.82 489.82,-384.44 487.41,-406.46"/>
</g>
<!-- nickel&#45;&#45;économie -->
<g id="edge45" class="edge">
<title>nickel&#45;&#45;économie</title>
<path fill="none" stroke="darkgrey" stroke-width="7.61" d="M471.11,-281.72C446.03,-295.16 411.87,-313.47 390.76,-324.78"/>
</g>
<!-- nickel&#45;&#45;environnement -->
<g id="edge46" class="edge">
<title>nickel&#45;&#45;environnement</title>
<path fill="none" stroke="darkgrey" stroke-width="5.56" d="M466.72,-264.79C448.43,-264.86 427.04,-264.94 412.25,-264.99"/>
</g>
<!-- nickel&#45;&#45;emploi -->
<g id="edge49" class="edge">
<title>nickel&#45;&#45;emploi</title>
<path fill="none" stroke="darkgrey" stroke-width="6.74" d="M466.99,-266.64C419.88,-269.25 339.06,-273.73 303.22,-275.71"/>
</g>
<!-- nickel&#45;&#45;terre -->
<g id="edge50" class="edge">
<title>nickel&#45;&#45;terre</title>
<path fill="none" stroke="darkgrey" stroke-width="2.62" d="M528.83,-289.96C539.79,-300.68 551.52,-312.14 558.03,-318.51"/>
</g>
<!-- nickel&#45;&#45;usine -->
<g id="edge51" class="edge">
<title>nickel&#45;&#45;usine</title>
<path fill="none" stroke="darkgrey" stroke-width="5.07" d="M484.3,-295.5C459.5,-336.53 417.01,-406.83 401.65,-432.24"/>
</g>
<!-- nickel&#45;&#45;exploitation -->
<g id="edge52" class="edge">
<title>nickel&#45;&#45;exploitation</title>
<path fill="none" stroke="darkgrey" stroke-width="2.8" d="M479.28,-292.02C455.35,-319.69 419.81,-360.78 404.7,-378.25"/>
</g>
<!-- nickel&#45;&#45;sln -->
<g id="edge53" class="edge">
<title>nickel&#45;&#45;sln</title>
<path fill="none" stroke="darkgrey" stroke-width="5.3" d="M475.31,-288.26C428.5,-328.24 336.41,-406.9 312.77,-427.08"/>
</g>
<!-- nickel&#45;&#45;ressource -->
<g id="edge54" class="edge">
<title>nickel&#45;&#45;ressource</title>
<path fill="none" stroke="darkgrey" stroke-width="2.22" d="M472.02,-283.54C412.2,-320.06 283.95,-398.38 254.71,-416.23"/>
</g>
<!-- nickel&#45;&#45;conflit -->
<g id="edge55" class="edge">
<title>nickel&#45;&#45;conflit</title>
<path fill="none" stroke="darkgrey" stroke-width="1.46" d="M480.01,-236.91C451.99,-203.01 406.49,-147.96 391.67,-130.04"/>
</g>
<!-- nickel&#45;&#45;minerai -->
<g id="edge56" class="edge">
<title>nickel&#45;&#45;minerai</title>
<path fill="none" stroke="darkgrey" stroke-width="5.24" d="M485.18,-296.26C454.97,-349.99 395.1,-456.48 376.7,-489.21"/>
</g>
<!-- nickel&#45;&#45;déforestation -->
<g id="edge57" class="edge">
<title>nickel&#45;&#45;déforestation</title>
<path fill="none" stroke="darkgrey" stroke-width="1.82" d="M495.73,-229.26C483.11,-167.36 457.92,-43.84 453.31,-21.22"/>
</g>
<!-- nickel&#45;&#45;extraction -->
<g id="edge42" class="edge">
<title>nickel&#45;&#45;extraction</title>
<path fill="none" stroke="darkgrey" stroke-width="1.63" d="M538.95,-268.11C620.87,-275.97 815.11,-294.62 827.17,-295.78"/>
</g>
<!-- nickel&#45;&#45;caillou -->
<g id="edge47" class="edge">
<title>nickel&#45;&#45;caillou</title>
<path fill="none" stroke="darkgrey" stroke-width="1.73" d="M524.39,-293.9C567.08,-352.12 659.95,-478.75 675.6,-500.09"/>
</g>
<!-- nickel&#45;&#45;terre rouge -->
<g id="edge48" class="edge">
<title>nickel&#45;&#45;terre rouge</title>
<path fill="none" stroke="darkgrey" stroke-width="2.49" d="M536.8,-251.9C610.12,-224.29 779.09,-160.65 805.04,-150.87"/>
</g>
<!-- nickel&#45;&#45;goro -->
<g id="edge58" class="edge">
<title>nickel&#45;&#45;goro</title>
<path fill="none" stroke="darkgrey" stroke-width="2.01" d="M524.99,-236.13C576.14,-169.96 699.11,-10.86 706.75,-0.98"/>
</g>
<!-- nickel&#45;&#45;exportation -->
<g id="edge59" class="edge">
<title>nickel&#45;&#45;exportation</title>
<path fill="none" stroke="darkgrey" stroke-width="1.96" d="M524.8,-235.66C553.25,-197.91 600.63,-135.04 611.34,-120.82"/>
</g>
<!-- montagne&#45;&#45;camion -->
<g id="edge60" class="edge">
<title>montagne&#45;&#45;camion</title>
<path fill="none" stroke="darkgrey" stroke-width="1.65" d="M567.79,-403.05C552.46,-405.81 515.63,-412.42 497.15,-415.75"/>
</g>
<!-- montagne&#45;&#45;économie -->
<g id="edge61" class="edge">
<title>montagne&#45;&#45;économie</title>
<path fill="none" stroke="darkgrey" d="M567.97,-399.58C540.48,-390.57 436.48,-356.47 391.91,-341.85"/>
</g>
<!-- montagne&#45;&#45;terre -->
<g id="edge62" class="edge">
<title>montagne&#45;&#45;terre</title>
<path fill="none" stroke="darkgrey" stroke-width="1.23" d="M573.71,-394.86C571.52,-380.04 566.4,-345.47 564.19,-330.56"/>
</g>
<!-- camion&#45;&#45;économie -->
<g id="edge63" class="edge">
<title>camion&#45;&#45;économie</title>
<path fill="none" stroke="darkgrey" stroke-width="1.31" d="M477.17,-411.24C458.26,-397.63 414.1,-365.84 389.25,-347.96"/>
</g>
<!-- camion&#45;&#45;environnement -->
<g id="edge64" class="edge">
<title>camion&#45;&#45;environnement</title>
<path fill="none" stroke="darkgrey" stroke-width="1.49" d="M480.42,-408.17C465,-382.58 422.63,-312.28 403.62,-280.74"/>
</g>
<!-- camion&#45;&#45;terre -->
<g id="edge66" class="edge">
<title>camion&#45;&#45;terre</title>
<path fill="none" stroke="darkgrey" stroke-width="1.21" d="M493.28,-409.02C508.91,-389.89 545.91,-344.61 558.71,-328.96"/>
</g>
<!-- camion&#45;&#45;usine -->
<g id="edge67" class="edge">
<title>camion&#45;&#45;usine</title>
<path fill="none" stroke="darkgrey" stroke-width="2.52" d="M475.47,-420.57C458.09,-425.19 423.96,-434.28 406.59,-438.91"/>
</g>
<!-- camion&#45;&#45;sln -->
<g id="edge68" class="edge">
<title>camion&#45;&#45;sln</title>
<path fill="none" stroke="darkgrey" stroke-width="1.33" d="M474.98,-418.6C441.29,-421.27 341.55,-429.17 314.16,-431.34"/>
</g>
<!-- camion&#45;&#45;minerai -->
<g id="edge69" class="edge">
<title>camion&#45;&#45;minerai</title>
<path fill="none" stroke="darkgrey" stroke-width="1.97" d="M477.15,-424.1C455.76,-439.22 402.15,-477.12 380.49,-492.44"/>
</g>
<!-- camion&#45;&#45;caillou -->
<g id="edge65" class="edge">
<title>camion&#45;&#45;caillou</title>
<path fill="none" stroke="darkgrey" stroke-width="1.05" d="M496.48,-422.31C532.72,-438.47 653.24,-492.19 674.6,-501.72"/>
</g>
<!-- économie&#45;&#45;environnement -->
<g id="edge70" class="edge">
<title>économie&#45;&#45;environnement</title>
<path fill="none" stroke="darkgrey" stroke-width="7.18" d="M378.13,-314.49C381.44,-304.32 385.37,-292.18 388.52,-282.48"/>
</g>
<!-- économie&#45;&#45;emploi -->
<g id="edge71" class="edge">
<title>économie&#45;&#45;emploi</title>
<path fill="none" stroke="darkgrey" stroke-width="6.22" d="M353.57,-323.03C337.78,-312.34 315.02,-296.91 300.17,-286.85"/>
</g>
<!-- économie&#45;&#45;usine -->
<g id="edge72" class="edge">
<title>économie&#45;&#45;usine</title>
<path fill="none" stroke="darkgrey" stroke-width="1.49" d="M376.27,-356.2C381.42,-378.66 389.38,-413.33 393.39,-430.84"/>
</g>
<!-- économie&#45;&#45;exploitation -->
<g id="edge73" class="edge">
<title>économie&#45;&#45;exploitation</title>
<path fill="none" stroke="darkgrey" stroke-width="1.81" d="M381.28,-354.59C385.09,-362.11 389.27,-370.38 392.44,-376.63"/>
</g>
<!-- économie&#45;&#45;sln -->
<g id="edge74" class="edge">
<title>économie&#45;&#45;sln</title>
<path fill="none" stroke="darkgrey" stroke-width="2.07" d="M359.34,-353.34C344.65,-375.45 320.64,-411.58 311.16,-425.84"/>
</g>
<!-- économie&#45;&#45;ressource -->
<g id="edge75" class="edge">
<title>économie&#45;&#45;ressource</title>
<path fill="none" stroke="darkgrey" stroke-width="1.07" d="M353.59,-347.47C325.53,-366.84 272.46,-403.49 254.67,-415.78"/>
</g>
<!-- économie&#45;&#45;conflit -->
<g id="edge76" class="edge">
<title>économie&#45;&#45;conflit</title>
<path fill="none" stroke="darkgrey" stroke-width="2.26" d="M373.03,-313.36C376.43,-266.83 384.25,-159.67 386.33,-131.23"/>
</g>
<!-- économie&#45;&#45;minerai -->
<g id="edge77" class="edge">
<title>économie&#45;&#45;minerai</title>
<path fill="none" stroke="darkgrey" stroke-width="1.12" d="M371.4,-356.9C371.35,-392.25 371.24,-460.9 371.2,-487.81"/>
</g>
<!-- environnement&#45;&#45;emploi -->
<g id="edge78" class="edge">
<title>environnement&#45;&#45;emploi</title>
<path fill="none" stroke="darkgrey" stroke-width="4.09" d="M376.18,-266.98C355.98,-269.14 323.42,-272.62 303.22,-274.78"/>
</g>
<!-- environnement&#45;&#45;usine -->
<g id="edge79" class="edge">
<title>environnement&#45;&#45;usine</title>
<path fill="none" stroke="darkgrey" stroke-width="1.16" d="M394.35,-283.3C394.71,-319.81 395.5,-400.88 395.79,-430.57"/>
</g>
<!-- environnement&#45;&#45;exploitation -->
<g id="edge80" class="edge">
<title>environnement&#45;&#45;exploitation</title>
<path fill="none" stroke="darkgrey" stroke-width="1.05" d="M394.67,-283.25C395.36,-308.82 396.61,-354.57 397.18,-375.55"/>
</g>
<!-- environnement&#45;&#45;développement -->
<g id="edge81" class="edge">
<title>environnement&#45;&#45;développement</title>
<path fill="none" stroke="darkgrey" stroke-width="1.19" d="M376.06,-264.65C318.54,-263.34 142.24,-259.32 115.04,-258.7"/>
</g>
<!-- environnement&#45;&#45;exportation -->
<g id="edge82" class="edge">
<title>environnement&#45;&#45;exportation</title>
<path fill="none" stroke="darkgrey" stroke-width="1.11" d="M409.25,-254.94C454.74,-224.43 588.86,-134.46 610.56,-119.91"/>
</g>
<!-- emploi&#45;&#45;usine -->
<g id="edge83" class="edge">
<title>emploi&#45;&#45;usine</title>
<path fill="none" stroke="darkgrey" stroke-width="1.05" d="M295.41,-291.94C318,-325.62 371.62,-405.55 389.77,-432.62"/>
</g>
<!-- emploi&#45;&#45;sln -->
<g id="edge84" class="edge">
<title>emploi&#45;&#45;sln</title>
<path fill="none" stroke="darkgrey" stroke-width="1.25" d="M287.75,-294.81C292.59,-329.03 302.89,-401.83 306.13,-424.8"/>
</g>
<!-- emploi&#45;&#45;conflit -->
<g id="edge85" class="edge">
<title>emploi&#45;&#45;conflit</title>
<path fill="none" stroke="darkgrey" stroke-width="2.62" d="M295.31,-261.53C317.21,-228.68 368.19,-152.19 382.84,-130.21"/>
</g>
<!-- terre&#45;&#45;exploitation -->
<g id="edge86" class="edge">
<title>terre&#45;&#45;exploitation</title>
<path fill="none" stroke="darkgrey" stroke-width="1.01" d="M556.45,-326.07C530.9,-335.8 439.48,-370.61 408.12,-382.55"/>
</g>
<!-- usine&#45;&#45;minerai -->
<g id="edge87" class="edge">
<title>usine&#45;&#45;minerai</title>
<path fill="none" stroke="darkgrey" stroke-width="2.89" d="M391.48,-451.99C386.98,-462.41 380.05,-478.47 375.57,-488.86"/>
</g>
<!-- exploitation&#45;&#45;ressource -->
<g id="edge88" class="edge">
<title>exploitation&#45;&#45;ressource</title>
<path fill="none" stroke="darkgrey" stroke-width="1.52" d="M386.3,-389.1C357.1,-395.64 279.21,-413.08 255.58,-418.36"/>
</g>
<!-- exploitation&#45;&#45;minerai -->
<g id="edge89" class="edge">
<title>exploitation&#45;&#45;minerai</title>
<path fill="none" stroke="darkgrey" stroke-width="2.02" d="M394.96,-397.38C389.95,-418.81 378.78,-466.56 373.74,-488.1"/>
</g>
<!-- ressource&#45;&#45;minerai -->
<g id="edge90" class="edge">
<title>ressource&#45;&#45;minerai</title>
<path fill="none" stroke="darkgrey" stroke-width="1.1" d="M254.6,-423.72C274.29,-436.44 337.78,-477.44 361.84,-492.97"/>
</g>
<!-- pollution -->
<g id="node1" class="node">
<title>pollution</title>
<ellipse fill="#fac228" stroke="white" stroke-width="0" cx="343.17" cy="-265.4" rx="32.5" ry="32.5"/>
<text text-anchor="middle" x="252.67" y="-305.78" font-family="Helvetica,sans-Serif" font-size="26.40" fill="#4d4d4d">pollution</text>
</g>
<!-- travail -->
<g id="node2" class="node">
<title>travail</title>
<ellipse fill="#a02a63" stroke="white" stroke-width="0" cx="433.35" cy="-214.23" rx="14.5" ry="14.5"/>
<text text-anchor="middle" x="388.85" y="-205.01" font-family="Helvetica,sans-Serif" font-size="18.40" fill="#4d4d4d">travail</text>
</g>
<!-- richesse -->
<g id="node3" class="node">
<title>richesse</title>
<ellipse fill="#6a176e" stroke="white" stroke-width="0" cx="462.3" cy="-317.59" rx="11" ry="11"/>
<text text-anchor="middle" x="416.3" y="-293.15" font-family="Helvetica,sans-Serif" font-size="16.80" fill="#4d4d4d">richesse</text>
</g>
<!-- destruction -->
<g id="node4" class="node">
<title>destruction</title>
<ellipse fill="#390963" stroke="white" stroke-width="0" cx="316.87" cy="-142.66" rx="7" ry="7"/>
<text text-anchor="middle" x="266.37" y="-123.5" font-family="Helvetica,sans-Serif" font-size="15.20" fill="#4d4d4d">destruction</text>
</g>
<!-- argent -->
<g id="node5" class="node">
<title>argent</title>
<ellipse fill="#510e6c" stroke="white" stroke-width="0" cx="245.29" cy="-158.75" rx="11" ry="11"/>
<text text-anchor="middle" x="206.29" y="-174.31" font-family="Helvetica,sans-Serif" font-size="16.80" fill="#4d4d4d">argent</text>
</g>
<!-- nickel -->
<g id="node6" class="node">
<title>nickel</title>
<ellipse fill="#fcffa4" stroke="white" stroke-width="0" cx="502.95" cy="-264.65" rx="36" ry="36"/>
<text text-anchor="middle" x="507.95" y="-206.25" font-family="Helvetica,sans-Serif" font-size="28.00" fill="#4d4d4d">nickel</text>
</g>
<!-- montagne -->
<g id="node7" class="node">
<title>montagne</title>
<ellipse fill="#420a68" stroke="white" stroke-width="0" cx="574.74" cy="-401.8" rx="7" ry="7"/>
<text text-anchor="middle" x="528.74" y="-382.64" font-family="Helvetica,sans-Serif" font-size="15.20" fill="#4d4d4d">montagne</text>
</g>
<!-- camion -->
<g id="node8" class="node">
<title>camion</title>
<ellipse fill="#71196e" stroke="white" stroke-width="0" cx="486.18" cy="-417.72" rx="11" ry="11"/>
<text text-anchor="middle" x="444.18" y="-433.28" font-family="Helvetica,sans-Serif" font-size="16.80" fill="#4d4d4d">camion</text>
</g>
<!-- économie -->
<g id="node9" class="node">
<title>économie</title>
<ellipse fill="#d84c3e" stroke="white" stroke-width="0" cx="371.44" cy="-335.14" rx="21.5" ry="21.5"/>
<text text-anchor="middle" x="296.44" y="-363.36" font-family="Helvetica,sans-Serif" font-size="21.60" fill="#4d4d4d">économie</text>
</g>
<!-- environnement -->
<g id="node10" class="node">
<title>environnement</title>
<ellipse fill="#b1325a" stroke="white" stroke-width="0" cx="394.17" cy="-265.06" rx="18" ry="18"/>
<text text-anchor="middle" x="300.17" y="-231.06" font-family="Helvetica,sans-Serif" font-size="20.00" fill="#4d4d4d">environnement</text>
</g>
<!-- emploi -->
<g id="node11" class="node">
<title>emploi</title>
<ellipse fill="#b43359" stroke="white" stroke-width="0" cx="285.19" cy="-276.71" rx="18" ry="18"/>
<text text-anchor="middle" x="233.69" y="-264.71" font-family="Helvetica,sans-Serif" font-size="20.00" fill="#4d4d4d">emploi</text>
</g>
<!-- terre -->
<g id="node12" class="node">
<title>terre</title>
<ellipse fill="#390963" stroke="white" stroke-width="0" cx="563.15" cy="-323.52" rx="7" ry="7"/>
<text text-anchor="middle" x="537.65" y="-335.36" font-family="Helvetica,sans-Serif" font-size="15.20" fill="#4d4d4d">terre</text>
</g>
<!-- usine -->
<g id="node13" class="node">
<title>usine</title>
<ellipse fill="#57106e" stroke="white" stroke-width="0" cx="395.9" cy="-441.75" rx="11" ry="11"/>
<text text-anchor="middle" x="361.9" y="-457.31" font-family="Helvetica,sans-Serif" font-size="16.80" fill="#4d4d4d">usine</text>
</g>
<!-- érosion -->
<g id="node14" class="node">
<title>érosion</title>
<ellipse fill="#000004" stroke="white" stroke-width="0" cx="127.93" cy="-5.18" rx="0.5" ry="0.5"/>
<text text-anchor="middle" x="105.43" y="-9.08" font-family="Helvetica,sans-Serif" font-size="12.00" fill="#4d4d4d">érosion</text>
</g>
<!-- exploitation -->
<g id="node15" class="node">
<title>exploitation</title>
<ellipse fill="#5c126e" stroke="white" stroke-width="0" cx="397.48" cy="-386.6" rx="11" ry="11"/>
<text text-anchor="middle" x="336.48" y="-402.16" font-family="Helvetica,sans-Serif" font-size="16.80" fill="#4d4d4d">exploitation</text>
</g>
<!-- sln -->
<g id="node16" class="node">
<title>sln</title>
<ellipse fill="#420a68" stroke="white" stroke-width="0" cx="307.14" cy="-431.9" rx="7" ry="7"/>
<text text-anchor="middle" x="288.64" y="-443.74" font-family="Helvetica,sans-Serif" font-size="15.20" fill="#4d4d4d">sln</text>
</g>
<!-- ressource -->
<g id="node17" class="node">
<title>ressource</title>
<ellipse fill="#4a0c6b" stroke="white" stroke-width="0" cx="248.69" cy="-419.91" rx="7" ry="7"/>
<text text-anchor="middle" x="204.69" y="-431.75" font-family="Helvetica,sans-Serif" font-size="15.20" fill="#4d4d4d">ressource</text>
</g>
<!-- conflit -->
<g id="node18" class="node">
<title>conflit</title>
<ellipse fill="#390963" stroke="white" stroke-width="0" cx="386.84" cy="-124.2" rx="7" ry="7"/>
<text text-anchor="middle" x="355.84" y="-136.04" font-family="Helvetica,sans-Serif" font-size="15.20" fill="#4d4d4d">conflit</text>
</g>
<!-- développement -->
<g id="node19" class="node">
<title>développement</title>
<ellipse fill="#07051b" stroke="white" stroke-width="0" cx="111.5" cy="-258.62" rx="3.5" ry="3.5"/>
<text text-anchor="middle" x="54" y="-266.24" font-family="Helvetica,sans-Serif" font-size="13.60" fill="#4d4d4d">développement</text>
</g>
<!-- minerai -->
<g id="node20" class="node">
<title>minerai</title>
<ellipse fill="#57106e" stroke="white" stroke-width="0" cx="371.19" cy="-499.01" rx="11" ry="11"/>
<text text-anchor="middle" x="328.19" y="-514.57" font-family="Helvetica,sans-Serif" font-size="16.80" fill="#4d4d4d">minerai</text>
</g>
<!-- déforestation -->
<g id="node21" class="node">
<title>déforestation</title>
<ellipse fill="#120a32" stroke="white" stroke-width="0" cx="452.58" cy="-17.62" rx="3.5" ry="3.5"/>
<text text-anchor="middle" x="404.08" y="-25.24" font-family="Helvetica,sans-Serif" font-size="13.60" fill="#4d4d4d">déforestation</text>
</g>
<!-- extraction -->
<g id="node22" class="node">
<title>extraction</title>
<ellipse fill="#010108" stroke="white" stroke-width="0" cx="827.76" cy="-295.83" rx="0.5" ry="0.5"/>
<text text-anchor="middle" x="796.76" y="-299.73" font-family="Helvetica,sans-Serif" font-size="12.00" fill="#4d4d4d">extraction</text>
</g>
<!-- caillou -->
<g id="node23" class="node">
<title>caillou</title>
<ellipse fill="#0c0826" stroke="white" stroke-width="0" cx="677.86" cy="-503.17" rx="3.5" ry="3.5"/>
<text text-anchor="middle" x="652.36" y="-510.79" font-family="Helvetica,sans-Serif" font-size="13.60" fill="#4d4d4d">caillou</text>
</g>
<!-- terre rouge -->
<g id="node24" class="node">
<title>terre rouge</title>
<ellipse fill="#040314" stroke="white" stroke-width="0" cx="808.41" cy="-149.6" rx="3.5" ry="3.5"/>
<text text-anchor="middle" x="766.91" y="-157.22" font-family="Helvetica,sans-Serif" font-size="13.60" fill="#4d4d4d">terre rouge</text>
</g>
<!-- goro -->
<g id="node25" class="node">
<title>goro</title>
<ellipse fill="#010005" stroke="white" stroke-width="0" cx="707.12" cy="-0.5" rx="0.5" ry="0.5"/>
<text text-anchor="middle" x="692.62" y="-4.4" font-family="Helvetica,sans-Serif" font-size="12.00" fill="#4d4d4d">goro</text>
</g>
<!-- exportation -->
<g id="node26" class="node">
<title>exportation</title>
<ellipse fill="#09061f" stroke="white" stroke-width="0" cx="613.54" cy="-117.91" rx="3.5" ry="3.5"/>
<text text-anchor="middle" x="570.54" y="-125.53" font-family="Helvetica,sans-Serif" font-size="13.60" fill="#4d4d4d">exportation</text>
</g>
</g>
</svg>
