<?xml version="1.0" encoding="UTF-8" standalone="no"?>
<!DOCTYPE svg PUBLIC "-//W3C//DTD SVG 1.1//EN"
 "http://www.w3.org/Graphics/SVG/1.1/DTD/svg11.dtd">
<!-- Generated by graphviz version 2.43.0 (0)
 -->
<!-- Pages: 1 -->
<svg width="540pt" height="297pt"
 viewBox="0.00 0.00 540.07 297.48" xmlns="http://www.w3.org/2000/svg" xmlns:xlink="http://www.w3.org/1999/xlink">
<g id="graph0" class="graph" transform="scale(1 1) rotate(0) translate(4 293.48)">
<polygon fill="white" stroke="transparent" points="-4,4 -4,-293.48 536.07,-293.48 536.07,4 -4,4"/>
<!-- emploi&#45;&#45;pollution -->
<g id="edge1" class="edge">
<title>emploi&#45;&#45;pollution</title>
<path fill="none" stroke="darkgrey" stroke-width="10" d="M337.11,-137.83C335.63,-145.62 333.9,-154.67 332.24,-163.38"/>
</g>
<!-- emploi&#45;&#45;impact environnemental -->
<g id="edge2" class="edge">
<title>emploi&#45;&#45;impact environnemental</title>
<path fill="none" stroke="darkgrey" stroke-width="3.76" d="M329.97,-135.44C314.29,-161.75 286.04,-209.15 271.38,-233.74"/>
</g>
<!-- emploi&#45;&#45;ressource -->
<g id="edge3" class="edge">
<title>emploi&#45;&#45;ressource</title>
<path fill="none" stroke="darkgrey" stroke-width="1.22" d="M359.03,-104.72C384.81,-87.46 431.49,-56.21 451.32,-42.94"/>
</g>
<!-- emploi&#45;&#45;économie -->
<g id="edge4" class="edge">
<title>emploi&#45;&#45;économie</title>
<path fill="none" stroke="darkgrey" stroke-width="1.76" d="M322.56,-128.03C300.23,-141.66 263.35,-164.17 244.14,-175.9"/>
</g>
<!-- emploi&#45;&#45;végétalisation -->
<g id="edge5" class="edge">
<title>emploi&#45;&#45;végétalisation</title>
<path fill="none" stroke="darkgrey" stroke-width="2.11" d="M362.91,-116.18C382.66,-115.72 410.64,-115.07 423.75,-114.76"/>
</g>
<!-- emploi&#45;&#45;automatisation -->
<g id="edge6" class="edge">
<title>emploi&#45;&#45;automatisation</title>
<path fill="none" stroke="darkgrey" stroke-width="1.31" d="M346.09,-95.54C351.91,-70.64 361.28,-30.61 365.1,-14.28"/>
</g>
<!-- pollution&#45;&#45;impact environnemental -->
<g id="edge8" class="edge">
<title>pollution&#45;&#45;impact environnemental</title>
<path fill="none" stroke="darkgrey" stroke-width="7.56" d="M297.09,-221.46C289.82,-227.26 282.32,-233.25 276.13,-238.2"/>
</g>
<!-- pollution&#45;&#45;économie -->
<g id="edge10" class="edge">
<title>pollution&#45;&#45;économie</title>
<path fill="none" stroke="darkgrey" stroke-width="6.23" d="M289.73,-192.97C274.6,-190.51 257.83,-187.79 246.21,-185.9"/>
</g>
<!-- pollution&#45;&#45;épuisable -->
<g id="edge7" class="edge">
<title>pollution&#45;&#45;épuisable</title>
<path fill="none" stroke="darkgrey" stroke-width="9.57" d="M298.72,-174.6C279.39,-157.14 254.3,-134.49 240.21,-121.77"/>
</g>
<!-- pollution&#45;&#45;démolition -->
<g id="edge9" class="edge">
<title>pollution&#45;&#45;démolition</title>
<path fill="none" stroke="darkgrey" stroke-width="6.18" d="M352.27,-223.47C361.72,-232.19 371.42,-241.14 377.17,-246.44"/>
</g>
<!-- pollution&#45;&#45;argent -->
<g id="edge11" class="edge">
<title>pollution&#45;&#45;argent</title>
<path fill="none" stroke="darkgrey" d="M360.44,-207.77C398.15,-217.47 453.73,-231.78 460.53,-233.53"/>
</g>
<!-- impact environnemental&#45;&#45;économie -->
<g id="edge14" class="edge">
<title>impact environnemental&#45;&#45;économie</title>
<path fill="none" stroke="darkgrey" stroke-width="3.16" d="M254.33,-232.84C249.2,-221.7 242.53,-207.23 237.75,-196.85"/>
</g>
<!-- épuisable&#45;&#45;économie -->
<g id="edge12" class="edge">
<title>épuisable&#45;&#45;économie</title>
<path fill="none" stroke="darkgrey" stroke-width="1.49" d="M229.84,-126.81C230.22,-139.09 230.77,-156.45 231.15,-168.73"/>
</g>
<!-- épuisable&#45;&#45;conflit -->
<g id="edge13" class="edge">
<title>épuisable&#45;&#45;conflit</title>
<path fill="none" stroke="darkgrey" stroke-width="1.15" d="M218.77,-101.7C206.07,-89.38 185.59,-69.52 178.36,-62.51"/>
</g>
<!-- emploi -->
<g id="node1" class="node">
<title>emploi</title>
<ellipse fill="#da4e3c" stroke="white" stroke-width="0" cx="341.14" cy="-116.69" rx="21.5" ry="21.5"/>
<text text-anchor="middle" x="282.64" y="-144.91" font-family="Helvetica,sans-Serif" font-size="21.60" fill="#4d4d4d">emploi</text>
</g>
<!-- pollution -->
<g id="node2" class="node">
<title>pollution</title>
<ellipse fill="#fcffa4" stroke="white" stroke-width="0" cx="325.49" cy="-198.77" rx="36" ry="36"/>
<text text-anchor="middle" x="422.99" y="-171.37" font-family="Helvetica,sans-Serif" font-size="28.00" fill="#4d4d4d">pollution</text>
</g>
<!-- impact environnemental -->
<g id="node3" class="node">
<title>impact environnemental</title>
<ellipse fill="#c63d4d" stroke="white" stroke-width="0" cx="262" cy="-249.48" rx="18" ry="18"/>
<text text-anchor="middle" x="122" y="-273.48" font-family="Helvetica,sans-Serif" font-size="20.00" fill="#4d4d4d">impact environnemental</text>
</g>
<!-- ressource -->
<g id="node4" class="node">
<title>ressource</title>
<ellipse fill="#59106e" stroke="white" stroke-width="0" cx="460.64" cy="-36.7" rx="11" ry="11"/>
<text text-anchor="middle" x="408.14" y="-52.26" font-family="Helvetica,sans-Serif" font-size="16.80" fill="#4d4d4d">ressource</text>
</g>
<!-- économie -->
<g id="node5" class="node">
<title>économie</title>
<ellipse fill="#8a226a" stroke="white" stroke-width="0" cx="231.62" cy="-183.54" rx="14.5" ry="14.5"/>
<text text-anchor="middle" x="171.62" y="-203.32" font-family="Helvetica,sans-Serif" font-size="18.40" fill="#4d4d4d">économie</text>
</g>
<!-- végétalisation -->
<g id="node6" class="node">
<title>végétalisation</title>
<ellipse fill="#510e6c" stroke="white" stroke-width="0" cx="431.07" cy="-114.59" rx="7" ry="7"/>
<text text-anchor="middle" x="478.07" y="-126.43" font-family="Helvetica,sans-Serif" font-size="15.20" fill="#4d4d4d">végétalisation</text>
</g>
<!-- automatisation -->
<g id="node7" class="node">
<title>automatisation</title>
<ellipse fill="#2d0b59" stroke="white" stroke-width="0" cx="366.8" cy="-7" rx="7" ry="7"/>
<text text-anchor="middle" x="302.3" y="-18.84" font-family="Helvetica,sans-Serif" font-size="15.20" fill="#4d4d4d">automatisation</text>
</g>
<!-- épuisable -->
<g id="node8" class="node">
<title>épuisable</title>
<ellipse fill="#9f2a63" stroke="white" stroke-width="0" cx="229.37" cy="-111.98" rx="14.5" ry="14.5"/>
<text text-anchor="middle" x="169.37" y="-131.76" font-family="Helvetica,sans-Serif" font-size="18.40" fill="#4d4d4d">épuisable</text>
</g>
<!-- démolition -->
<g id="node9" class="node">
<title>démolition</title>
<ellipse fill="#230c4c" stroke="white" stroke-width="0" cx="382.38" cy="-251.24" rx="7" ry="7"/>
<text text-anchor="middle" x="334.38" y="-263.08" font-family="Helvetica,sans-Serif" font-size="15.20" fill="#4d4d4d">démolition</text>
</g>
<!-- argent -->
<g id="node10" class="node">
<title>argent</title>
<ellipse fill="#000004" stroke="white" stroke-width="0" cx="461.22" cy="-233.7" rx="0.5" ry="0.5"/>
<text text-anchor="middle" x="440.72" y="-237.6" font-family="Helvetica,sans-Serif" font-size="12.00" fill="#4d4d4d">argent</text>
</g>
<!-- conflit -->
<g id="node11" class="node">
<title>conflit</title>
<ellipse fill="#180c3c" stroke="white" stroke-width="0" cx="175.73" cy="-59.96" rx="3.5" ry="3.5"/>
<text text-anchor="middle" x="151.23" y="-67.58" font-family="Helvetica,sans-Serif" font-size="13.60" fill="#4d4d4d">conflit</text>
</g>
</g>
</svg>
