<?xml version="1.0" encoding="UTF-8" standalone="no"?>
<!DOCTYPE svg PUBLIC "-//W3C//DTD SVG 1.1//EN"
 "http://www.w3.org/Graphics/SVG/1.1/DTD/svg11.dtd">
<!-- Generated by graphviz version 2.43.0 (0)
 -->
<!-- Pages: 1 -->
<svg width="903pt" height="532pt"
 viewBox="0.00 0.00 902.62 532.22" xmlns="http://www.w3.org/2000/svg" xmlns:xlink="http://www.w3.org/1999/xlink">
<g id="graph0" class="graph" transform="scale(1 1) rotate(0) translate(4 528.22)">
<polygon fill="white" stroke="transparent" points="-4,4 -4,-528.22 898.62,-528.22 898.62,4 -4,4"/>
<!-- pollution&#45;&#45;dégradation environnementale -->
<g id="edge1" class="edge">
<title>pollution&#45;&#45;dégradation environnementale</title>
<path fill="none" stroke="darkgrey" stroke-width="9.04" d="M355.58,-273.49C371.98,-275.17 396.63,-277.7 417.06,-279.79"/>
</g>
<!-- pollution&#45;&#45;nouvelle&#45;calédonie -->
<g id="edge2" class="edge">
<title>pollution&#45;&#45;nouvelle&#45;calédonie</title>
<path fill="none" stroke="darkgrey" stroke-width="1.38" d="M335.57,-289.6C330.67,-334.9 318.03,-451.85 315.61,-474.26"/>
</g>
<!-- pollution&#45;&#45;travail -->
<g id="edge3" class="edge">
<title>pollution&#45;&#45;travail</title>
<path fill="none" stroke="darkgrey" stroke-width="6.45" d="M337.4,-289.69C337.28,-310.12 337.08,-343.39 336.95,-365.27"/>
</g>
<!-- pollution&#45;&#45;économie -->
<g id="edge4" class="edge">
<title>pollution&#45;&#45;économie</title>
<path fill="none" stroke="darkgrey" stroke-width="5.31" d="M325.79,-285.8C313,-301.25 292.67,-325.8 279.96,-341.16"/>
</g>
<!-- pollution&#45;&#45;nickel -->
<g id="edge5" class="edge">
<title>pollution&#45;&#45;nickel</title>
<path fill="none" stroke="darkgrey" stroke-width="5.22" d="M348.3,-286.43C351.31,-290.55 354.69,-295.17 358.08,-299.82"/>
</g>
<!-- pollution&#45;&#45;ressource minière -->
<g id="edge6" class="edge">
<title>pollution&#45;&#45;ressource minière</title>
<path fill="none" stroke="darkgrey" stroke-width="2" d="M319.49,-272.83C283.44,-275.19 203.37,-280.44 174.04,-282.37"/>
</g>
<!-- pollution&#45;&#45;politique -->
<g id="edge7" class="edge">
<title>pollution&#45;&#45;politique</title>
<path fill="none" stroke="darkgrey" stroke-width="3.12" d="M320.21,-276.68C305.24,-281.04 283.87,-287.26 269.95,-291.31"/>
</g>
<!-- pollution&#45;&#45;secteur nickel -->
<g id="edge8" class="edge">
<title>pollution&#45;&#45;secteur nickel</title>
<path fill="none" stroke="darkgrey" stroke-width="3.23" d="M350.44,-258.41C354.51,-254.24 359,-249.65 363.05,-245.51"/>
</g>
<!-- pollution&#45;&#45;nature -->
<g id="edge9" class="edge">
<title>pollution&#45;&#45;nature</title>
<path fill="none" stroke="darkgrey" stroke-width="3.49" d="M344.94,-288.22C355.99,-312.86 376.53,-358.67 386.67,-381.27"/>
</g>
<!-- pollution&#45;&#45;amélioration environnementale -->
<g id="edge10" class="edge">
<title>pollution&#45;&#45;amélioration environnementale</title>
<path fill="none" stroke="darkgrey" d="M347.27,-256.29C382.59,-200.72 502.07,-12.76 509.5,-1.07"/>
</g>
<!-- pollution&#45;&#45;société néo&#45;calédonienne -->
<g id="edge11" class="edge">
<title>pollution&#45;&#45;société néo&#45;calédonienne</title>
<path fill="none" stroke="darkgrey" stroke-width="1.51" d="M344.21,-288.66C362.83,-335.87 414.34,-466.55 423.45,-489.65"/>
</g>
<!-- pollution&#45;&#45;exploitation minière -->
<g id="edge12" class="edge">
<title>pollution&#45;&#45;exploitation minière</title>
<path fill="none" stroke="darkgrey" stroke-width="2.18" d="M331.11,-254.42C325.19,-238.48 316.5,-215.09 311.02,-200.34"/>
</g>
<!-- pollution&#45;&#45;alternative au développement -->
<g id="edge13" class="edge">
<title>pollution&#45;&#45;alternative au développement</title>
<path fill="none" stroke="darkgrey" stroke-width="1.87" d="M352.9,-281.08C391.19,-304.58 489.04,-364.6 507.79,-376.1"/>
</g>
<!-- pollution&#45;&#45;matériel -->
<g id="edge14" class="edge">
<title>pollution&#45;&#45;matériel</title>
<path fill="none" stroke="darkgrey" stroke-width="2.78" d="M321.77,-281.01C289.35,-300.29 215.69,-344.11 186.06,-361.73"/>
</g>
<!-- pollution&#45;&#45;foncier -->
<g id="edge15" class="edge">
<title>pollution&#45;&#45;foncier</title>
<path fill="none" stroke="darkgrey" stroke-width="1.08" d="M329.64,-288.08C307.6,-334.15 245.9,-463.11 231.28,-493.67"/>
</g>
<!-- pollution&#45;&#45;industrie -->
<g id="edge16" class="edge">
<title>pollution&#45;&#45;industrie</title>
<path fill="none" stroke="darkgrey" stroke-width="2.81" d="M326.97,-286.24C307.42,-313.33 265.74,-371.1 246.12,-398.29"/>
</g>
<!-- pollution&#45;&#45;échange commercial -->
<g id="edge17" class="edge">
<title>pollution&#45;&#45;échange commercial</title>
<path fill="none" stroke="darkgrey" stroke-width="1.14" d="M322.02,-262.07C295.57,-245.7 242.79,-213.06 225.05,-202.09"/>
</g>
<!-- dégradation environnementale&#45;&#45;nouvelle&#45;calédonie -->
<g id="edge18" class="edge">
<title>dégradation environnementale&#45;&#45;nouvelle&#45;calédonie</title>
<path fill="none" stroke="darkgrey" stroke-width="1.62" d="M432.23,-313.03C397.4,-362.13 330.14,-456.94 317.34,-474.99"/>
</g>
<!-- dégradation environnementale&#45;&#45;travail -->
<g id="edge19" class="edge">
<title>dégradation environnementale&#45;&#45;travail</title>
<path fill="none" stroke="darkgrey" stroke-width="8.09" d="M426.2,-307.53C403.51,-327.74 371.82,-355.96 352.91,-372.8"/>
</g>
<!-- dégradation environnementale&#45;&#45;économie -->
<g id="edge20" class="edge">
<title>dégradation environnementale&#45;&#45;économie</title>
<path fill="none" stroke="darkgrey" stroke-width="7.46" d="M419.3,-296.62C379.71,-311.97 315.77,-336.76 285.43,-348.52"/>
</g>
<!-- dégradation environnementale&#45;&#45;nickel -->
<g id="edge21" class="edge">
<title>dégradation environnementale&#45;&#45;nickel</title>
<path fill="none" stroke="darkgrey" stroke-width="10" d="M422.33,-302.55C418.39,-304.99 414.34,-307.49 410.4,-309.93"/>
</g>
<!-- dégradation environnementale&#45;&#45;ressource minière -->
<g id="edge22" class="edge">
<title>dégradation environnementale&#45;&#45;ressource minière</title>
<path fill="none" stroke="darkgrey" stroke-width="4.3" d="M417.02,-283.44C350.93,-283.35 213.78,-283.16 174.02,-283.11"/>
</g>
<!-- dégradation environnementale&#45;&#45;politique -->
<g id="edge23" class="edge">
<title>dégradation environnementale&#45;&#45;politique</title>
<path fill="none" stroke="darkgrey" stroke-width="4.57" d="M417.01,-285.67C373.18,-288.32 301.42,-292.65 270.67,-294.5"/>
</g>
<!-- dégradation environnementale&#45;&#45;secteur nickel -->
<g id="edge24" class="edge">
<title>dégradation environnementale&#45;&#45;secteur nickel</title>
<path fill="none" stroke="darkgrey" stroke-width="4.66" d="M423.01,-263.65C411.96,-256.38 399.94,-248.48 390.78,-242.45"/>
</g>
<!-- dégradation environnementale&#45;&#45;nature -->
<g id="edge25" class="edge">
<title>dégradation environnementale&#45;&#45;nature</title>
<path fill="none" stroke="darkgrey" stroke-width="5.28" d="M435.84,-315.32C423.81,-337.38 408.45,-365.57 399.65,-381.7"/>
</g>
<!-- dégradation environnementale&#45;&#45;amélioration environnementale -->
<g id="edge26" class="edge">
<title>dégradation environnementale&#45;&#45;amélioration environnementale</title>
<path fill="none" stroke="darkgrey" stroke-width="1.32" d="M460.31,-247.93C475.05,-174.3 507.73,-11.12 509.76,-0.99"/>
</g>
<!-- dégradation environnementale&#45;&#45;société néo&#45;calédonienne -->
<g id="edge27" class="edge">
<title>dégradation environnementale&#45;&#45;société néo&#45;calédonienne</title>
<path fill="none" stroke="darkgrey" stroke-width="2.01" d="M448.31,-319.53C441.06,-373.16 427.99,-469.78 425.32,-489.56"/>
</g>
<!-- dégradation environnementale&#45;&#45;exploitation minière -->
<g id="edge28" class="edge">
<title>dégradation environnementale&#45;&#45;exploitation minière</title>
<path fill="none" stroke="darkgrey" stroke-width="4.02" d="M423.02,-263.63C390.7,-242.35 340.97,-209.61 318.13,-194.57"/>
</g>
<!-- dégradation environnementale&#45;&#45;alternative au développement -->
<g id="edge29" class="edge">
<title>dégradation environnementale&#45;&#45;alternative au développement</title>
<path fill="none" stroke="darkgrey" stroke-width="2.23" d="M472.09,-314.44C485.77,-336.84 502.85,-364.81 508.78,-374.52"/>
</g>
<!-- dégradation environnementale&#45;&#45;matériel -->
<g id="edge30" class="edge">
<title>dégradation environnementale&#45;&#45;matériel</title>
<path fill="none" stroke="darkgrey" stroke-width="4.45" d="M418.59,-294.09C356.74,-313.06 229.7,-352.01 187.41,-364.98"/>
</g>
<!-- dégradation environnementale&#45;&#45;foncier -->
<g id="edge31" class="edge">
<title>dégradation environnementale&#45;&#45;foncier</title>
<path fill="none" stroke="darkgrey" stroke-width="2.3" d="M426.93,-308.77C374.29,-359.47 258.71,-470.79 233.2,-495.36"/>
</g>
<!-- dégradation environnementale&#45;&#45;industrie -->
<g id="edge33" class="edge">
<title>dégradation environnementale&#45;&#45;industrie</title>
<path fill="none" stroke="darkgrey" stroke-width="3.99" d="M422,-302.05C374.73,-330.17 286.71,-382.54 251.07,-403.75"/>
</g>
<!-- dégradation environnementale&#45;&#45;échange commercial -->
<g id="edge35" class="edge">
<title>dégradation environnementale&#45;&#45;échange commercial</title>
<path fill="none" stroke="darkgrey" stroke-width="2.3" d="M419.15,-271.11C362.84,-250.65 253.74,-210.99 225.75,-200.82"/>
</g>
<!-- dégradation environnementale&#45;&#45;relation politique -->
<g id="edge32" class="edge">
<title>dégradation environnementale&#45;&#45;relation politique</title>
<path fill="none" stroke="darkgrey" stroke-width="1.35" d="M423.04,-262.98C362.02,-221.47 227.83,-130.19 206.23,-115.5"/>
</g>
<!-- dégradation environnementale&#45;&#45;risque -->
<g id="edge34" class="edge">
<title>dégradation environnementale&#45;&#45;risque</title>
<path fill="none" stroke="darkgrey" stroke-width="1.71" d="M480.16,-308.01C530.23,-353.52 634.22,-448.04 653.28,-465.37"/>
</g>
<!-- dégradation environnementale&#45;&#45;avenir sans nickel -->
<g id="edge36" class="edge">
<title>dégradation environnementale&#45;&#45;avenir sans nickel</title>
<path fill="none" stroke="darkgrey" stroke-width="1.07" d="M489.27,-282.62C591.29,-280.18 875.58,-273.37 893.25,-272.94"/>
</g>
<!-- nouvelle&#45;calédonie&#45;&#45;travail -->
<g id="edge37" class="edge">
<title>nouvelle&#45;calédonie&#45;&#45;travail</title>
<path fill="none" stroke="darkgrey" stroke-width="1.72" d="M316.03,-474.55C318.57,-463.85 326.47,-430.63 331.77,-408.36"/>
</g>
<!-- nouvelle&#45;calédonie&#45;&#45;économie -->
<g id="edge38" class="edge">
<title>nouvelle&#45;calédonie&#45;&#45;économie</title>
<path fill="none" stroke="darkgrey" stroke-width="1.49" d="M313.95,-474.71C308.43,-460.21 286.02,-401.35 274.83,-371.97"/>
</g>
<!-- nouvelle&#45;calédonie&#45;&#45;nickel -->
<g id="edge39" class="edge">
<title>nouvelle&#45;calédonie&#45;&#45;nickel</title>
<path fill="none" stroke="darkgrey" stroke-width="2.73" d="M316.67,-474.61C323.02,-459.89 348.61,-400.53 365.09,-362.32"/>
</g>
<!-- nouvelle&#45;calédonie&#45;&#45;ressource minière -->
<g id="edge40" class="edge">
<title>nouvelle&#45;calédonie&#45;&#45;ressource minière</title>
<path fill="none" stroke="darkgrey" stroke-width="1.38" d="M312.81,-474.94C296.17,-453.63 197.49,-327.26 170.07,-292.14"/>
</g>
<!-- nouvelle&#45;calédonie&#45;&#45;politique -->
<g id="edge41" class="edge">
<title>nouvelle&#45;calédonie&#45;&#45;politique</title>
<path fill="none" stroke="darkgrey" stroke-width="1.95" d="M314.07,-474.52C307.38,-453.91 272.86,-347.56 260.41,-309.21"/>
</g>
<!-- nouvelle&#45;calédonie&#45;&#45;secteur nickel -->
<g id="edge42" class="edge">
<title>nouvelle&#45;calédonie&#45;&#45;secteur nickel</title>
<path fill="none" stroke="darkgrey" stroke-width="1.67" d="M316.06,-474.53C322.12,-449.94 358.71,-301.5 371.39,-250.07"/>
</g>
<!-- nouvelle&#45;calédonie&#45;&#45;nature -->
<g id="edge43" class="edge">
<title>nouvelle&#45;calédonie&#45;&#45;nature</title>
<path fill="none" stroke="darkgrey" stroke-width="1.15" d="M317.78,-475.23C327.81,-464.43 364.54,-424.85 382.55,-405.44"/>
</g>
<!-- nouvelle&#45;calédonie&#45;&#45;exploitation minière -->
<g id="edge44" class="edge">
<title>nouvelle&#45;calédonie&#45;&#45;exploitation minière</title>
<path fill="none" stroke="darkgrey" stroke-width="1.16" d="M315.09,-474.32C314.17,-445.52 308.11,-256.22 306.36,-201.37"/>
</g>
<!-- nouvelle&#45;calédonie&#45;&#45;industrie -->
<g id="edge45" class="edge">
<title>nouvelle&#45;calédonie&#45;&#45;industrie</title>
<path fill="none" stroke="darkgrey" stroke-width="1.43" d="M312.18,-475.53C302.05,-467.28 268.93,-440.28 249.69,-424.59"/>
</g>
<!-- travail&#45;&#45;économie -->
<g id="edge46" class="edge">
<title>travail&#45;&#45;économie</title>
<path fill="none" stroke="darkgrey" stroke-width="6.99" d="M317.04,-377.87C306.93,-373.14 294.78,-367.45 285.15,-362.95"/>
</g>
<!-- travail&#45;&#45;nickel -->
<g id="edge47" class="edge">
<title>travail&#45;&#45;nickel</title>
<path fill="none" stroke="darkgrey" stroke-width="8.19" d="M349.61,-369.71C352.25,-366.1 355.11,-362.2 357.97,-358.3"/>
</g>
<!-- travail&#45;&#45;ressource minière -->
<g id="edge48" class="edge">
<title>travail&#45;&#45;ressource minière</title>
<path fill="none" stroke="darkgrey" stroke-width="3.39" d="M318.22,-376C281.44,-353.98 200.55,-305.57 172.67,-288.88"/>
</g>
<!-- travail&#45;&#45;politique -->
<g id="edge49" class="edge">
<title>travail&#45;&#45;politique</title>
<path fill="none" stroke="darkgrey" stroke-width="4.24" d="M322.36,-370.73C306,-352.18 279.8,-322.47 265.69,-306.47"/>
</g>
<!-- travail&#45;&#45;secteur nickel -->
<g id="edge50" class="edge">
<title>travail&#45;&#45;secteur nickel</title>
<path fill="none" stroke="darkgrey" stroke-width="4.91" d="M342.15,-365.96C349.89,-335.2 364.1,-278.71 371.29,-250.12"/>
</g>
<!-- travail&#45;&#45;nature -->
<g id="edge51" class="edge">
<title>travail&#45;&#45;nature</title>
<path fill="none" stroke="darkgrey" stroke-width="3.62" d="M358.24,-389.99C364.88,-390.87 372.04,-391.83 378.1,-392.64"/>
</g>
<!-- travail&#45;&#45;société néo&#45;calédonienne -->
<g id="edge52" class="edge">
<title>travail&#45;&#45;société néo&#45;calédonienne</title>
<path fill="none" stroke="darkgrey" stroke-width="1.84" d="M350.57,-403.7C372.04,-429.56 412.12,-477.84 422.39,-490.21"/>
</g>
<!-- travail&#45;&#45;exploitation minière -->
<g id="edge53" class="edge">
<title>travail&#45;&#45;exploitation minière</title>
<path fill="none" stroke="darkgrey" stroke-width="3.39" d="M333.51,-365.66C327.18,-324.62 313.52,-236.02 308.13,-201.09"/>
</g>
<!-- travail&#45;&#45;alternative au développement -->
<g id="edge54" class="edge">
<title>travail&#45;&#45;alternative au développement</title>
<path fill="none" stroke="darkgrey" stroke-width="1.4" d="M358.52,-386C400.09,-383.82 488.5,-379.19 507.34,-378.21"/>
</g>
<!-- travail&#45;&#45;matériel -->
<g id="edge55" class="edge">
<title>travail&#45;&#45;matériel</title>
<path fill="none" stroke="darkgrey" stroke-width="3.71" d="M315.12,-384.76C281.25,-381.06 216.73,-374.02 187.9,-370.87"/>
</g>
<!-- travail&#45;&#45;foncier -->
<g id="edge56" class="edge">
<title>travail&#45;&#45;foncier</title>
<path fill="none" stroke="darkgrey" stroke-width="1.58" d="M321.71,-402.86C296.98,-428.59 249.05,-478.47 233.3,-494.86"/>
</g>
<!-- travail&#45;&#45;industrie -->
<g id="edge58" class="edge">
<title>travail&#45;&#45;industrie</title>
<path fill="none" stroke="darkgrey" stroke-width="4.03" d="M315.83,-392.5C297.28,-397.23 270.53,-404.07 253.08,-408.52"/>
</g>
<!-- travail&#45;&#45;échange commercial -->
<g id="edge60" class="edge">
<title>travail&#45;&#45;échange commercial</title>
<path fill="none" stroke="darkgrey" stroke-width="1.96" d="M325.32,-368.69C299.63,-327.51 238.6,-229.69 222.84,-204.43"/>
</g>
<!-- travail&#45;&#45;relation politique -->
<g id="edge57" class="edge">
<title>travail&#45;&#45;relation politique</title>
<path fill="none" stroke="darkgrey" stroke-width="1.26" d="M327.22,-367.45C298.99,-309.61 217.47,-142.58 204.9,-116.83"/>
</g>
<!-- travail&#45;&#45;risque -->
<g id="edge59" class="edge">
<title>travail&#45;&#45;risque</title>
<path fill="none" stroke="darkgrey" stroke-width="1.84" d="M357.79,-392.45C423.59,-409.13 623.41,-459.78 652.71,-467.21"/>
</g>
<!-- économie&#45;&#45;nickel -->
<g id="edge61" class="edge">
<title>économie&#45;&#45;nickel</title>
<path fill="none" stroke="darkgrey" stroke-width="6.38" d="M286.25,-350.93C301.82,-347.27 324.87,-341.86 344.15,-337.34"/>
</g>
<!-- économie&#45;&#45;ressource minière -->
<g id="edge62" class="edge">
<title>économie&#45;&#45;ressource minière</title>
<path fill="none" stroke="darkgrey" stroke-width="2.33" d="M253.31,-344.8C231.11,-329.63 190.33,-301.77 172.16,-289.35"/>
</g>
<!-- économie&#45;&#45;politique -->
<g id="edge63" class="edge">
<title>économie&#45;&#45;politique</title>
<path fill="none" stroke="darkgrey" stroke-width="4.73" d="M264.67,-337.2C262.83,-328.4 260.64,-317.95 258.92,-309.7"/>
</g>
<!-- économie&#45;&#45;secteur nickel -->
<g id="edge64" class="edge">
<title>économie&#45;&#45;secteur nickel</title>
<path fill="none" stroke="darkgrey" stroke-width="3.7" d="M280.3,-341.53C300.93,-317.97 343.1,-269.8 363.76,-246.19"/>
</g>
<!-- économie&#45;&#45;nature -->
<g id="edge65" class="edge">
<title>économie&#45;&#45;nature</title>
<path fill="none" stroke="darkgrey" stroke-width="2.81" d="M285.69,-360.6C310.49,-368.48 355.71,-382.84 378.58,-390.11"/>
</g>
<!-- économie&#45;&#45;société néo&#45;calédonienne -->
<g id="edge66" class="edge">
<title>économie&#45;&#45;société néo&#45;calédonienne</title>
<path fill="none" stroke="darkgrey" stroke-width="1.48" d="M282.02,-367.12C316.21,-397.3 404.24,-474.99 421.77,-490.46"/>
</g>
<!-- économie&#45;&#45;exploitation minière -->
<g id="edge67" class="edge">
<title>économie&#45;&#45;exploitation minière</title>
<path fill="none" stroke="darkgrey" stroke-width="2.05" d="M272.35,-337.39C279.79,-303.91 295.78,-231.96 302.65,-201.08"/>
</g>
<!-- économie&#45;&#45;alternative au développement -->
<g id="edge68" class="edge">
<title>économie&#45;&#45;alternative au développement</title>
<path fill="none" stroke="darkgrey" stroke-width="1.49" d="M286.64,-356.84C338.19,-361.71 482.89,-375.37 507.38,-377.69"/>
</g>
<!-- économie&#45;&#45;matériel -->
<g id="edge69" class="edge">
<title>économie&#45;&#45;matériel</title>
<path fill="none" stroke="darkgrey" stroke-width="2.25" d="M250.53,-357.78C232.36,-360.49 204.55,-364.64 187.74,-367.14"/>
</g>
<!-- économie&#45;&#45;foncier -->
<g id="edge70" class="edge">
<title>économie&#45;&#45;foncier</title>
<path fill="none" stroke="darkgrey" stroke-width="1.2" d="M263.56,-372.62C254.65,-404.73 236.05,-471.74 230.06,-493.35"/>
</g>
<!-- économie&#45;&#45;industrie -->
<g id="edge72" class="edge">
<title>économie&#45;&#45;industrie</title>
<path fill="none" stroke="darkgrey" stroke-width="2.66" d="M259.42,-370.94C254.77,-379.11 249.12,-389.05 244.48,-397.21"/>
</g>
<!-- économie&#45;&#45;échange commercial -->
<g id="edge73" class="edge">
<title>économie&#45;&#45;échange commercial</title>
<path fill="none" stroke="darkgrey" stroke-width="1.66" d="M262.94,-337.74C252.16,-303.48 228.55,-228.48 221.26,-205.34"/>
</g>
<!-- économie&#45;&#45;relation politique -->
<g id="edge71" class="edge">
<title>économie&#45;&#45;relation politique</title>
<path fill="none" stroke="darkgrey" stroke-width="1.35" d="M263.62,-337.35C249.87,-286.34 210.83,-141.54 204.22,-117.03"/>
</g>
<!-- nickel&#45;&#45;ressource minière -->
<g id="edge74" class="edge">
<title>nickel&#45;&#45;ressource minière</title>
<path fill="none" stroke="darkgrey" stroke-width="5.26" d="M344.17,-321.57C294.11,-310.94 205.03,-292.02 174.02,-285.43"/>
</g>
<!-- nickel&#45;&#45;politique -->
<g id="edge75" class="edge">
<title>nickel&#45;&#45;politique</title>
<path fill="none" stroke="darkgrey" stroke-width="3.39" d="M344.37,-319.5C319.69,-312.78 287.98,-304.13 270.01,-299.23"/>
</g>
<!-- nickel&#45;&#45;secteur nickel -->
<g id="edge76" class="edge">
<title>nickel&#45;&#45;secteur nickel</title>
<path fill="none" stroke="darkgrey" stroke-width="6.45" d="M378.03,-292.85C377.48,-278.41 376.86,-262.43 376.4,-250.55"/>
</g>
<!-- nickel&#45;&#45;nature -->
<g id="edge77" class="edge">
<title>nickel&#45;&#45;nature</title>
<path fill="none" stroke="darkgrey" stroke-width="5.59" d="M386.57,-364.5C387.69,-370.05 388.79,-375.49 389.74,-380.19"/>
</g>
<!-- nickel&#45;&#45;société néo&#45;calédonienne -->
<g id="edge78" class="edge">
<title>nickel&#45;&#45;société néo&#45;calédonienne</title>
<path fill="none" stroke="darkgrey" stroke-width="1.1" d="M389.06,-363.86C400.72,-406.01 419.36,-473.39 423.84,-489.58"/>
</g>
<!-- nickel&#45;&#45;exploitation minière -->
<g id="edge79" class="edge">
<title>nickel&#45;&#45;exploitation minière</title>
<path fill="none" stroke="darkgrey" stroke-width="7.11" d="M362.74,-296.71C346.89,-265.99 323.86,-221.35 312.59,-199.52"/>
</g>
<!-- nickel&#45;&#45;alternative au développement -->
<g id="edge80" class="edge">
<title>nickel&#45;&#45;alternative au développement</title>
<path fill="none" stroke="darkgrey" stroke-width="1.73" d="M413.29,-341.67C446.47,-354.02 493.94,-371.7 507.3,-376.67"/>
</g>
<!-- nickel&#45;&#45;matériel -->
<g id="edge81" class="edge">
<title>nickel&#45;&#45;matériel</title>
<path fill="none" stroke="darkgrey" stroke-width="5.68" d="M344,-335.97C297.97,-344.96 219.71,-360.24 187.68,-366.49"/>
</g>
<!-- nickel&#45;&#45;foncier -->
<g id="edge82" class="edge">
<title>nickel&#45;&#45;foncier</title>
<path fill="none" stroke="darkgrey" stroke-width="2.37" d="M355.46,-356.18C318.8,-397.65 251.13,-474.22 232.82,-494.94"/>
</g>
<!-- nickel&#45;&#45;industrie -->
<g id="edge84" class="edge">
<title>nickel&#45;&#45;industrie</title>
<path fill="none" stroke="darkgrey" stroke-width="8.02" d="M348.2,-347.28C318.27,-364.73 274.32,-390.37 251.14,-403.89"/>
</g>
<!-- nickel&#45;&#45;échange commercial -->
<g id="edge86" class="edge">
<title>nickel&#45;&#45;échange commercial</title>
<path fill="none" stroke="darkgrey" stroke-width="3.11" d="M351.5,-306.3C312.56,-274.57 244.49,-219.1 224.65,-202.94"/>
</g>
<!-- nickel&#45;&#45;relation politique -->
<g id="edge83" class="edge">
<title>nickel&#45;&#45;relation politique</title>
<path fill="none" stroke="darkgrey" stroke-width="1.35" d="M356.4,-300.87C312.75,-247.46 220.95,-135.13 205.5,-116.21"/>
</g>
<!-- nickel&#45;&#45;risque -->
<g id="edge85" class="edge">
<title>nickel&#45;&#45;risque</title>
<path fill="none" stroke="darkgrey" stroke-width="1.07" d="M411.73,-345.28C478.78,-378.96 628.83,-454.32 653,-466.46"/>
</g>
<!-- ressource minière&#45;&#45;politique -->
<g id="edge87" class="edge">
<title>ressource minière&#45;&#45;politique</title>
<path fill="none" stroke="darkgrey" stroke-width="2.91" d="M174.02,-284.55C190.76,-286.77 222.58,-290.98 241.25,-293.45"/>
</g>
<!-- ressource minière&#45;&#45;secteur nickel -->
<g id="edge88" class="edge">
<title>ressource minière&#45;&#45;secteur nickel</title>
<path fill="none" stroke="darkgrey" stroke-width="2.13" d="M173.84,-280.52C208.3,-272.33 315.53,-246.85 358.07,-236.74"/>
</g>
<!-- ressource minière&#45;&#45;nature -->
<g id="edge89" class="edge">
<title>ressource minière&#45;&#45;nature</title>
<path fill="none" stroke="darkgrey" stroke-width="1.91" d="M173.16,-288.03C210.23,-306.02 338.12,-368.11 379.56,-388.23"/>
</g>
<!-- ressource minière&#45;&#45;exploitation minière -->
<g id="edge90" class="edge">
<title>ressource minière&#45;&#45;exploitation minière</title>
<path fill="none" stroke="darkgrey" stroke-width="2.42" d="M172.38,-276.76C197.33,-259.89 265.4,-213.87 293.5,-194.88"/>
</g>
<!-- ressource minière&#45;&#45;matériel -->
<g id="edge91" class="edge">
<title>ressource minière&#45;&#45;matériel</title>
<path fill="none" stroke="darkgrey" stroke-width="1.94" d="M164.35,-294.36C166.22,-309.88 169.58,-337.83 171.63,-354.85"/>
</g>
<!-- ressource minière&#45;&#45;industrie -->
<g id="edge92" class="edge">
<title>ressource minière&#45;&#45;industrie</title>
<path fill="none" stroke="darkgrey" stroke-width="2.52" d="M168.45,-292.86C180.9,-315.17 211.51,-370.03 226.68,-397.22"/>
</g>
<!-- ressource minière&#45;&#45;échange commercial -->
<g id="edge93" class="edge">
<title>ressource minière&#45;&#45;échange commercial</title>
<path fill="none" stroke="darkgrey" stroke-width="1.62" d="M169.22,-273.71C180.85,-256.13 205.61,-218.75 215.18,-204.28"/>
</g>
<!-- politique&#45;&#45;secteur nickel -->
<g id="edge94" class="edge">
<title>politique&#45;&#45;secteur nickel</title>
<path fill="none" stroke="darkgrey" stroke-width="3.32" d="M269.2,-288.43C291.38,-276.8 335.85,-253.46 359.71,-240.94"/>
</g>
<!-- politique&#45;&#45;nature -->
<g id="edge95" class="edge">
<title>politique&#45;&#45;nature</title>
<path fill="none" stroke="darkgrey" stroke-width="1.66" d="M268.06,-304.2C294.07,-323.06 354.92,-367.21 380.73,-385.94"/>
</g>
<!-- politique&#45;&#45;société néo&#45;calédonienne -->
<g id="edge96" class="edge">
<title>politique&#45;&#45;société néo&#45;calédonienne</title>
<path fill="none" stroke="darkgrey" stroke-width="1.49" d="M265.49,-306.59C298.29,-345 405.14,-470.11 422.45,-490.37"/>
</g>
<!-- politique&#45;&#45;exploitation minière -->
<g id="edge97" class="edge">
<title>politique&#45;&#45;exploitation minière</title>
<path fill="none" stroke="darkgrey" stroke-width="1.91" d="M262.05,-282.04C271.64,-261.15 290.09,-220.94 299.71,-199.97"/>
</g>
<!-- politique&#45;&#45;alternative au développement -->
<g id="edge98" class="edge">
<title>politique&#45;&#45;alternative au développement</title>
<path fill="none" stroke="darkgrey" stroke-width="1.54" d="M270,-299.95C319.07,-315.86 481.07,-368.35 507.31,-376.85"/>
</g>
<!-- politique&#45;&#45;matériel -->
<g id="edge99" class="edge">
<title>politique&#45;&#45;matériel</title>
<path fill="none" stroke="darkgrey" stroke-width="1.48" d="M244.79,-305.36C228.95,-319.54 200.07,-345.38 184.32,-359.48"/>
</g>
<!-- politique&#45;&#45;foncier -->
<g id="edge100" class="edge">
<title>politique&#45;&#45;foncier</title>
<path fill="none" stroke="darkgrey" stroke-width="1.23" d="M253.97,-309.8C248.49,-350.23 233.1,-463.74 229.1,-493.17"/>
</g>
<!-- politique&#45;&#45;industrie -->
<g id="edge102" class="edge">
<title>politique&#45;&#45;industrie</title>
<path fill="none" stroke="darkgrey" stroke-width="2.81" d="M253.42,-309.82C249.69,-331.29 242.68,-371.63 238.62,-395.01"/>
</g>
<!-- politique&#45;&#45;échange commercial -->
<g id="edge103" class="edge">
<title>politique&#45;&#45;échange commercial</title>
<path fill="none" stroke="darkgrey" stroke-width="1.56" d="M250.65,-281.5C242.61,-260.33 227.6,-220.83 221.63,-205.11"/>
</g>
<!-- politique&#45;&#45;relation politique -->
<g id="edge101" class="edge">
<title>politique&#45;&#45;relation politique</title>
<path fill="none" stroke="darkgrey" stroke-width="1.7" d="M251.88,-281.42C240.76,-242.99 210.12,-137.17 204.25,-116.88"/>
</g>
<!-- secteur nickel&#45;&#45;nature -->
<g id="edge104" class="edge">
<title>secteur nickel&#45;&#45;nature</title>
<path fill="none" stroke="darkgrey" stroke-width="2.23" d="M377.59,-250.51C380.96,-282.81 387.99,-350.1 391.1,-379.87"/>
</g>
<!-- secteur nickel&#45;&#45;amélioration environnementale -->
<g id="edge105" class="edge">
<title>secteur nickel&#45;&#45;amélioration environnementale</title>
<path fill="none" stroke="darkgrey" stroke-width="1.04" d="M384.72,-216.96C413.86,-166.56 503.98,-10.67 509.59,-0.97"/>
</g>
<!-- secteur nickel&#45;&#45;société néo&#45;calédonienne -->
<g id="edge106" class="edge">
<title>secteur nickel&#45;&#45;société néo&#45;calédonienne</title>
<path fill="none" stroke="darkgrey" stroke-width="1.44" d="M379.09,-250.46C389.27,-304.51 419.31,-463.84 424.17,-489.62"/>
</g>
<!-- secteur nickel&#45;&#45;exploitation minière -->
<g id="edge107" class="edge">
<title>secteur nickel&#45;&#45;exploitation minière</title>
<path fill="none" stroke="darkgrey" stroke-width="2.46" d="M360.56,-222.56C347.88,-214.2 330.03,-202.43 318.21,-194.64"/>
</g>
<!-- secteur nickel&#45;&#45;alternative au développement -->
<g id="edge108" class="edge">
<title>secteur nickel&#45;&#45;alternative au développement</title>
<path fill="none" stroke="darkgrey" stroke-width="1.2" d="M388.19,-245.97C418.26,-278.33 493.36,-359.13 508.31,-375.21"/>
</g>
<!-- secteur nickel&#45;&#45;matériel -->
<g id="edge109" class="edge">
<title>secteur nickel&#45;&#45;matériel</title>
<path fill="none" stroke="darkgrey" stroke-width="2.9" d="M360.5,-242.83C321.9,-268.91 220.7,-337.3 185.58,-361.03"/>
</g>
<!-- secteur nickel&#45;&#45;foncier -->
<g id="edge110" class="edge">
<title>secteur nickel&#45;&#45;foncier</title>
<path fill="none" stroke="darkgrey" stroke-width="1.9" d="M366.92,-248.49C338.63,-299.81 250.66,-459.39 231.75,-493.69"/>
</g>
<!-- secteur nickel&#45;&#45;industrie -->
<g id="edge112" class="edge">
<title>secteur nickel&#45;&#45;industrie</title>
<path fill="none" stroke="darkgrey" stroke-width="5.09" d="M364.47,-247.01C338.22,-280.8 273.09,-364.63 246.78,-398.48"/>
</g>
<!-- secteur nickel&#45;&#45;échange commercial -->
<g id="edge113" class="edge">
<title>secteur nickel&#45;&#45;échange commercial</title>
<path fill="none" stroke="darkgrey" stroke-width="2.11" d="M358.05,-228.7C323.64,-221.2 249.01,-204.92 225.98,-199.9"/>
</g>
<!-- secteur nickel&#45;&#45;relation politique -->
<g id="edge111" class="edge">
<title>secteur nickel&#45;&#45;relation politique</title>
<path fill="none" stroke="darkgrey" stroke-width="1.06" d="M360.71,-222.19C322.69,-195.94 224.27,-127.99 206.16,-115.48"/>
</g>
<!-- nature&#45;&#45;société néo&#45;calédonienne -->
<g id="edge114" class="edge">
<title>nature&#45;&#45;société néo&#45;calédonienne</title>
<path fill="none" stroke="darkgrey" stroke-width="1.54" d="M397.25,-408.7C404.83,-431.91 419.5,-476.84 423.69,-489.66"/>
</g>
<!-- nature&#45;&#45;exploitation minière -->
<g id="edge115" class="edge">
<title>nature&#45;&#45;exploitation minière</title>
<path fill="none" stroke="darkgrey" stroke-width="1.76" d="M386.94,-380.92C371.19,-343.13 327.13,-237.47 311.48,-199.94"/>
</g>
<!-- nature&#45;&#45;alternative au développement -->
<g id="edge116" class="edge">
<title>nature&#45;&#45;alternative au développement</title>
<path fill="none" stroke="darkgrey" stroke-width="1.01" d="M407.14,-392.55C434.53,-388.71 492.46,-380.6 507.36,-378.52"/>
</g>
<!-- nature&#45;&#45;matériel -->
<g id="edge117" class="edge">
<title>nature&#45;&#45;matériel</title>
<path fill="none" stroke="darkgrey" stroke-width="3.26" d="M377.91,-392.88C337.96,-388.27 227.9,-375.58 188.02,-370.98"/>
</g>
<!-- nature&#45;&#45;foncier -->
<g id="edge118" class="edge">
<title>nature&#45;&#45;foncier</title>
<path fill="none" stroke="darkgrey" stroke-width="1.51" d="M380.27,-402.52C347.25,-423.73 257.87,-481.13 234.05,-496.43"/>
</g>
<!-- nature&#45;&#45;industrie -->
<g id="edge119" class="edge">
<title>nature&#45;&#45;industrie</title>
<path fill="none" stroke="darkgrey" stroke-width="2.58" d="M378.13,-396.28C349.41,-399.65 285.35,-407.17 253.79,-410.87"/>
</g>
<!-- nature&#45;&#45;échange commercial -->
<g id="edge120" class="edge">
<title>nature&#45;&#45;échange commercial</title>
<path fill="none" stroke="darkgrey" stroke-width="1.3" d="M382.81,-383.47C350.4,-346.83 247.61,-230.65 223.96,-203.92"/>
</g>
<!-- société néo&#45;calédonienne&#45;&#45;matériel -->
<g id="edge121" class="edge">
<title>société néo&#45;calédonienne&#45;&#45;matériel</title>
<path fill="none" stroke="darkgrey" stroke-width="1.47" d="M421.65,-491.59C396.86,-479.38 234.24,-399.28 186.51,-375.76"/>
</g>
<!-- exploitation minière&#45;&#45;matériel -->
<g id="edge122" class="edge">
<title>exploitation minière&#45;&#45;matériel</title>
<path fill="none" stroke="darkgrey" stroke-width="2.67" d="M297.19,-198.5C273.12,-231.7 205.82,-324.52 181.92,-357.49"/>
</g>
<!-- exploitation minière&#45;&#45;industrie -->
<g id="edge123" class="edge">
<title>exploitation minière&#45;&#45;industrie</title>
<path fill="none" stroke="darkgrey" stroke-width="3.08" d="M301.48,-200.68C289.14,-240.39 254.25,-352.66 240.84,-395.82"/>
</g>
<!-- exploitation minière&#45;&#45;échange commercial -->
<g id="edge124" class="edge">
<title>exploitation minière&#45;&#45;échange commercial</title>
<path fill="none" stroke="darkgrey" stroke-width="1.83" d="M291.16,-188.53C272.39,-191.1 240.67,-195.44 226.41,-197.39"/>
</g>
<!-- alternative au développement&#45;&#45;industrie -->
<g id="edge125" class="edge">
<title>alternative au développement&#45;&#45;industrie</title>
<path fill="none" stroke="darkgrey" stroke-width="1.22" d="M507.44,-378.46C480.91,-381.83 310.26,-403.52 253.69,-410.71"/>
</g>
<!-- matériel&#45;&#45;foncier -->
<g id="edge126" class="edge">
<title>matériel&#45;&#45;foncier</title>
<path fill="none" stroke="darkgrey" stroke-width="1.61" d="M179.02,-382.8C190.66,-410.64 216.94,-473.44 225.44,-493.75"/>
</g>
<!-- matériel&#45;&#45;industrie -->
<g id="edge127" class="edge">
<title>matériel&#45;&#45;industrie</title>
<path fill="none" stroke="darkgrey" stroke-width="4.01" d="M185.34,-377.72C195.35,-384.77 209.69,-394.86 220.47,-402.44"/>
</g>
<!-- matériel&#45;&#45;échange commercial -->
<g id="edge128" class="edge">
<title>matériel&#45;&#45;échange commercial</title>
<path fill="none" stroke="darkgrey" stroke-width="1.74" d="M177.18,-355.01C186.54,-320.04 210.34,-231.06 217.2,-205.41"/>
</g>
<!-- foncier&#45;&#45;industrie -->
<g id="edge129" class="edge">
<title>foncier&#45;&#45;industrie</title>
<path fill="none" stroke="darkgrey" stroke-width="1.98" d="M228.75,-493.08C229.88,-479.66 232.35,-450.28 233.97,-431.09"/>
</g>
<!-- industrie&#45;&#45;échange commercial -->
<g id="edge131" class="edge">
<title>industrie&#45;&#45;échange commercial</title>
<path fill="none" stroke="darkgrey" stroke-width="1.85" d="M234.09,-394.72C230.65,-349.71 221.89,-235.13 219.62,-205.49"/>
</g>
<!-- relation politique&#45;&#45;échange commercial -->
<g id="edge130" class="edge">
<title>relation politique&#45;&#45;échange commercial</title>
<path fill="none" stroke="darkgrey" stroke-width="1.17" d="M203.95,-117.13C206.36,-130.08 214.53,-174 217.76,-191.3"/>
</g>
<!-- pollution -->
<g id="node1" class="node">
<title>pollution</title>
<ellipse fill="#ab2f5e" stroke="white" stroke-width="0" cx="337.51" cy="-271.64" rx="18" ry="18"/>
<text text-anchor="middle" x="276.51" y="-259.64" font-family="Helvetica,sans-Serif" font-size="20.00" fill="#4d4d4d">pollution</text>
</g>
<!-- dégradation environnementale -->
<g id="node2" class="node">
<title>dégradation environnementale</title>
<ellipse fill="#f1ef75" stroke="white" stroke-width="0" cx="453.19" cy="-283.49" rx="36" ry="36"/>
<text text-anchor="middle" x="635.19" y="-328.09" font-family="Helvetica,sans-Serif" font-size="28.00" fill="#4d4d4d">dégradation environnementale</text>
</g>
<!-- nouvelle&#45;calédonie -->
<g id="node3" class="node">
<title>nouvelle&#45;calédonie</title>
<ellipse fill="#1c0c43" stroke="white" stroke-width="0" cx="315.2" cy="-478" rx="3.5" ry="3.5"/>
<text text-anchor="middle" x="247.7" y="-478.62" font-family="Helvetica,sans-Serif" font-size="13.60" fill="#4d4d4d">nouvelle&#45;calédonie</text>
</g>
<!-- travail -->
<g id="node4" class="node">
<title>travail</title>
<ellipse fill="#e65d2f" stroke="white" stroke-width="0" cx="336.82" cy="-387.13" rx="21.5" ry="21.5"/>
<text text-anchor="middle" x="350.32" y="-415.35" font-family="Helvetica,sans-Serif" font-size="21.60" fill="#4d4d4d">travail</text>
</g>
<!-- économie -->
<g id="node5" class="node">
<title>économie</title>
<ellipse fill="#b3325a" stroke="white" stroke-width="0" cx="268.41" cy="-355.11" rx="18" ry="18"/>
<text text-anchor="middle" x="201.91" y="-321.11" font-family="Helvetica,sans-Serif" font-size="20.00" fill="#4d4d4d">économie</text>
</g>
<!-- nickel -->
<g id="node6" class="node">
<title>nickel</title>
<ellipse fill="#fcffa4" stroke="white" stroke-width="0" cx="379.43" cy="-329.06" rx="36" ry="36"/>
<text text-anchor="middle" x="456.43" y="-373.66" font-family="Helvetica,sans-Serif" font-size="28.00" fill="#4d4d4d">nickel</text>
</g>
<!-- ressource minière -->
<g id="node7" class="node">
<title>ressource minière</title>
<ellipse fill="#64156e" stroke="white" stroke-width="0" cx="163" cy="-283.09" rx="11" ry="11"/>
<text text-anchor="middle" x="76" y="-298.65" font-family="Helvetica,sans-Serif" font-size="16.80" fill="#4d4d4d">ressource minière</text>
</g>
<!-- politique -->
<g id="node8" class="node">
<title>politique</title>
<ellipse fill="#9b2964" stroke="white" stroke-width="0" cx="255.93" cy="-295.39" rx="14.5" ry="14.5"/>
<text text-anchor="middle" x="282.43" y="-315.17" font-family="Helvetica,sans-Serif" font-size="18.40" fill="#4d4d4d">politique</text>
</g>
<!-- secteur nickel -->
<g id="node9" class="node">
<title>secteur nickel</title>
<ellipse fill="#b43359" stroke="white" stroke-width="0" cx="375.71" cy="-232.55" rx="18" ry="18"/>
<text text-anchor="middle" x="288.21" y="-220.55" font-family="Helvetica,sans-Serif" font-size="20.00" fill="#4d4d4d">secteur nickel</text>
</g>
<!-- nature -->
<g id="node10" class="node">
<title>nature</title>
<ellipse fill="#85216b" stroke="white" stroke-width="0" cx="392.64" cy="-394.58" rx="14.5" ry="14.5"/>
<text text-anchor="middle" x="438.14" y="-414.36" font-family="Helvetica,sans-Serif" font-size="18.40" fill="#4d4d4d">nature</text>
</g>
<!-- amélioration environnementale -->
<g id="node11" class="node">
<title>amélioration environnementale</title>
<ellipse fill="#030210" stroke="white" stroke-width="0" cx="509.86" cy="-0.5" rx="0.5" ry="0.5"/>
<text text-anchor="middle" x="414.86" y="-4.4" font-family="Helvetica,sans-Serif" font-size="12.00" fill="#4d4d4d">amélioration environnementale</text>
</g>
<!-- société néo&#45;calédonienne -->
<g id="node12" class="node">
<title>société néo&#45;calédonienne</title>
<ellipse fill="#180c3c" stroke="white" stroke-width="0" cx="424.83" cy="-493.16" rx="3.5" ry="3.5"/>
<text text-anchor="middle" x="334.83" y="-500.78" font-family="Helvetica,sans-Serif" font-size="13.60" fill="#4d4d4d">société néo&#45;calédonienne</text>
</g>
<!-- exploitation minière -->
<g id="node13" class="node">
<title>exploitation minière</title>
<ellipse fill="#7a1d6d" stroke="white" stroke-width="0" cx="305.88" cy="-186.51" rx="14.5" ry="14.5"/>
<text text-anchor="middle" x="197.88" y="-157.29" font-family="Helvetica,sans-Serif" font-size="18.40" fill="#4d4d4d">exploitation minière</text>
</g>
<!-- alternative au développement -->
<g id="node14" class="node">
<title>alternative au développement</title>
<ellipse fill="#120a32" stroke="white" stroke-width="0" cx="510.92" cy="-378.02" rx="3.5" ry="3.5"/>
<text text-anchor="middle" x="610.42" y="-385.64" font-family="Helvetica,sans-Serif" font-size="13.60" fill="#4d4d4d">alternative au développement</text>
</g>
<!-- matériel -->
<g id="node15" class="node">
<title>matériel</title>
<ellipse fill="#932667" stroke="white" stroke-width="0" cx="173.36" cy="-369.29" rx="14.5" ry="14.5"/>
<text text-anchor="middle" x="119.86" y="-389.07" font-family="Helvetica,sans-Serif" font-size="18.40" fill="#4d4d4d">matériel</text>
</g>
<!-- foncier -->
<g id="node16" class="node">
<title>foncier</title>
<ellipse fill="#240c4f" stroke="white" stroke-width="0" cx="228.15" cy="-500.22" rx="7" ry="7"/>
<text text-anchor="middle" x="195.15" y="-512.06" font-family="Helvetica,sans-Serif" font-size="15.20" fill="#4d4d4d">foncier</text>
</g>
<!-- industrie -->
<g id="node17" class="node">
<title>industrie</title>
<ellipse fill="#b3325a" stroke="white" stroke-width="0" cx="235.49" cy="-413.02" rx="18" ry="18"/>
<text text-anchor="middle" x="173.49" y="-437.02" font-family="Helvetica,sans-Serif" font-size="20.00" fill="#4d4d4d">industrie</text>
</g>
<!-- échange commercial -->
<g id="node18" class="node">
<title>échange commercial</title>
<ellipse fill="#380962" stroke="white" stroke-width="0" cx="219.08" cy="-198.4" rx="7" ry="7"/>
<text text-anchor="middle" x="133.08" y="-210.24" font-family="Helvetica,sans-Serif" font-size="15.20" fill="#4d4d4d">échange commercial</text>
</g>
<!-- relation politique -->
<g id="node19" class="node">
<title>relation politique</title>
<ellipse fill="#0b0724" stroke="white" stroke-width="0" cx="203.27" cy="-113.48" rx="3.5" ry="3.5"/>
<text text-anchor="middle" x="142.27" y="-121.1" font-family="Helvetica,sans-Serif" font-size="13.60" fill="#4d4d4d">relation politique</text>
</g>
<!-- risque -->
<g id="node20" class="node">
<title>risque</title>
<ellipse fill="#050417" stroke="white" stroke-width="0" cx="656.31" cy="-468.13" rx="3.5" ry="3.5"/>
<text text-anchor="middle" x="631.81" y="-475.75" font-family="Helvetica,sans-Serif" font-size="13.60" fill="#4d4d4d">risque</text>
</g>
<!-- avenir sans nickel -->
<g id="node21" class="node">
<title>avenir sans nickel</title>
<ellipse fill="#000004" stroke="white" stroke-width="0" cx="894.12" cy="-272.92" rx="0.5" ry="0.5"/>
<text text-anchor="middle" x="840.12" y="-276.82" font-family="Helvetica,sans-Serif" font-size="12.00" fill="#4d4d4d">avenir sans nickel</text>
</g>
</g>
</svg>
