<?xml version="1.0" encoding="UTF-8" standalone="no"?>
<!DOCTYPE svg PUBLIC "-//W3C//DTD SVG 1.1//EN"
 "http://www.w3.org/Graphics/SVG/1.1/DTD/svg11.dtd">
<!-- Generated by graphviz version 2.43.0 (0)
 -->
<!-- Pages: 1 -->
<svg width="425pt" height="313pt"
 viewBox="0.00 0.00 424.84 312.83" xmlns="http://www.w3.org/2000/svg" xmlns:xlink="http://www.w3.org/1999/xlink">
<g id="graph0" class="graph" transform="scale(1 1) rotate(0) translate(4 308.83)">
<polygon fill="white" stroke="transparent" points="-4,4 -4,-308.83 420.84,-308.83 420.84,4 -4,4"/>
<!-- pollution&#45;&#45;épuisement -->
<g id="edge1" class="edge">
<title>pollution&#45;&#45;épuisement</title>
<path fill="none" stroke="darkgrey" stroke-width="4.73" d="M297.74,-112.8C310.25,-96.13 324.86,-76.66 331.91,-67.27"/>
</g>
<!-- pollution&#45;&#45;environnement -->
<g id="edge2" class="edge">
<title>pollution&#45;&#45;environnement</title>
<path fill="none" stroke="darkgrey" stroke-width="4.29" d="M240.04,-145.05C210.06,-147.83 169.27,-151.6 149.98,-153.39"/>
</g>
<!-- pollution&#45;&#45;ressource -->
<g id="edge3" class="edge">
<title>pollution&#45;&#45;ressource</title>
<path fill="none" stroke="darkgrey" stroke-width="2.49" d="M248.55,-165.77C230.5,-181.56 208.09,-201.16 196.11,-211.63"/>
</g>
<!-- pollution&#45;&#45;destruction -->
<g id="edge4" class="edge">
<title>pollution&#45;&#45;destruction</title>
<path fill="none" stroke="darkgrey" stroke-width="7.32" d="M305.92,-162.03C315.63,-168.63 325.13,-175.09 329.92,-178.35"/>
</g>
<!-- pollution&#45;&#45;économie -->
<g id="edge5" class="edge">
<title>pollution&#45;&#45;économie</title>
<path fill="none" stroke="darkgrey" stroke-width="10" d="M244.98,-123.5C232.39,-116.12 218.56,-108.01 208.87,-102.32"/>
</g>
<!-- pollution&#45;&#45;argent -->
<g id="edge6" class="edge">
<title>pollution&#45;&#45;argent</title>
<path fill="none" stroke="darkgrey" d="M309.65,-128.8C348.56,-113.84 408.29,-90.88 415.6,-88.07"/>
</g>
<!-- pollution&#45;&#45;emploi -->
<g id="edge7" class="edge">
<title>pollution&#45;&#45;emploi</title>
<path fill="none" stroke="darkgrey" stroke-width="9.5" d="M261.54,-108.63C250.05,-82.42 234.6,-47.15 226.24,-28.09"/>
</g>
<!-- pollution&#45;&#45;technologie -->
<g id="edge8" class="edge">
<title>pollution&#45;&#45;technologie</title>
<path fill="none" stroke="darkgrey" stroke-width="1.19" d="M310.71,-152.21C343.33,-162.09 389.06,-175.93 401.91,-179.83"/>
</g>
<!-- pollution&#45;&#45;richesse -->
<g id="edge9" class="edge">
<title>pollution&#45;&#45;richesse</title>
<path fill="none" stroke="darkgrey" stroke-width="1.54" d="M280.96,-177.47C286.03,-214.27 293.46,-268.21 295.44,-282.66"/>
</g>
<!-- environnement&#45;&#45;ressource -->
<g id="edge10" class="edge">
<title>environnement&#45;&#45;ressource</title>
<path fill="none" stroke="darkgrey" stroke-width="1.84" d="M145.76,-163.4C155.05,-175.75 171.65,-197.84 180.91,-210.15"/>
</g>
<!-- environnement&#45;&#45;économie -->
<g id="edge11" class="edge">
<title>environnement&#45;&#45;économie</title>
<path fill="none" stroke="darkgrey" stroke-width="1.36" d="M146.97,-146.14C157.18,-135.55 174.89,-117.17 186.08,-105.56"/>
</g>
<!-- économie&#45;&#45;emploi -->
<g id="edge12" class="edge">
<title>économie&#45;&#45;emploi</title>
<path fill="none" stroke="darkgrey" stroke-width="1.44" d="M200.48,-80.94C204.85,-66.26 211.69,-43.34 216.08,-28.62"/>
</g>
<!-- pollution -->
<g id="node1" class="node">
<title>pollution</title>
<ellipse fill="#fcffa4" stroke="white" stroke-width="0" cx="276.04" cy="-141.72" rx="36" ry="36"/>
<text text-anchor="middle" x="178.54" y="-186.32" font-family="Helvetica,sans-Serif" font-size="28.00" fill="#4d4d4d">pollution</text>
</g>
<!-- épuisement -->
<g id="node2" class="node">
<title>épuisement</title>
<ellipse fill="#290b55" stroke="white" stroke-width="0" cx="336.15" cy="-61.62" rx="7" ry="7"/>
<text text-anchor="middle" x="283.65" y="-73.46" font-family="Helvetica,sans-Serif" font-size="15.20" fill="#4d4d4d">épuisement</text>
</g>
<!-- environnement -->
<g id="node3" class="node">
<title>environnement</title>
<ellipse fill="#71196e" stroke="white" stroke-width="0" cx="139" cy="-154.41" rx="11" ry="11"/>
<text text-anchor="middle" x="64" y="-147.97" font-family="Helvetica,sans-Serif" font-size="16.80" fill="#4d4d4d">environnement</text>
</g>
<!-- ressource -->
<g id="node4" class="node">
<title>ressource</title>
<ellipse fill="#5c126e" stroke="white" stroke-width="0" cx="187.61" cy="-219.07" rx="11" ry="11"/>
<text text-anchor="middle" x="135.11" y="-234.63" font-family="Helvetica,sans-Serif" font-size="16.80" fill="#4d4d4d">ressource</text>
</g>
<!-- destruction -->
<g id="node5" class="node">
<title>destruction</title>
<ellipse fill="#210c4a" stroke="white" stroke-width="0" cx="333.12" cy="-180.52" rx="3.5" ry="3.5"/>
<text text-anchor="middle" x="291.62" y="-188.14" font-family="Helvetica,sans-Serif" font-size="13.60" fill="#4d4d4d">destruction</text>
</g>
<!-- économie -->
<g id="node6" class="node">
<title>économie</title>
<ellipse fill="#8f2469" stroke="white" stroke-width="0" cx="196.3" cy="-94.95" rx="14.5" ry="14.5"/>
<text text-anchor="middle" x="136.3" y="-114.73" font-family="Helvetica,sans-Serif" font-size="18.40" fill="#4d4d4d">économie</text>
</g>
<!-- argent -->
<g id="node7" class="node">
<title>argent</title>
<ellipse fill="#000004" stroke="white" stroke-width="0" cx="416.34" cy="-87.78" rx="0.5" ry="0.5"/>
<text text-anchor="middle" x="395.84" y="-91.68" font-family="Helvetica,sans-Serif" font-size="12.00" fill="#4d4d4d">argent</text>
</g>
<!-- emploi -->
<g id="node8" class="node">
<title>emploi</title>
<ellipse fill="#7a1d6d" stroke="white" stroke-width="0" cx="220.29" cy="-14.5" rx="14.5" ry="14.5"/>
<text text-anchor="middle" x="173.79" y="-34.28" font-family="Helvetica,sans-Serif" font-size="18.40" fill="#4d4d4d">emploi</text>
</g>
<!-- technologie -->
<g id="node9" class="node">
<title>technologie</title>
<ellipse fill="#0d0829" stroke="white" stroke-width="0" cx="405.39" cy="-180.88" rx="3.5" ry="3.5"/>
<text text-anchor="middle" x="362.39" y="-166.5" font-family="Helvetica,sans-Serif" font-size="13.60" fill="#4d4d4d">technologie</text>
</g>
<!-- richesse -->
<g id="node10" class="node">
<title>richesse</title>
<ellipse fill="#0d0829" stroke="white" stroke-width="0" cx="295.95" cy="-286.33" rx="3.5" ry="3.5"/>
<text text-anchor="middle" x="264.95" y="-293.95" font-family="Helvetica,sans-Serif" font-size="13.60" fill="#4d4d4d">richesse</text>
</g>
</g>
</svg>
