<?xml version="1.0" encoding="UTF-8" standalone="no"?>
<!DOCTYPE svg PUBLIC "-//W3C//DTD SVG 1.1//EN"
 "http://www.w3.org/Graphics/SVG/1.1/DTD/svg11.dtd">
<!-- Generated by graphviz version 2.43.0 (0)
 -->
<!-- Pages: 1 -->
<svg width="744pt" height="470pt"
 viewBox="0.00 0.00 744.35 469.68" xmlns="http://www.w3.org/2000/svg" xmlns:xlink="http://www.w3.org/1999/xlink">
<g id="graph0" class="graph" transform="scale(1 1) rotate(0) translate(4 465.68)">
<polygon fill="white" stroke="transparent" points="-4,4 -4,-465.68 740.35,-465.68 740.35,4 -4,4"/>
<!-- pollution&#45;&#45;travail -->
<g id="edge1" class="edge">
<title>pollution&#45;&#45;travail</title>
<path fill="none" stroke="darkgrey" stroke-width="6.53" d="M431.81,-229.78C404.28,-243 364.34,-262.17 343.8,-272.03"/>
</g>
<!-- pollution&#45;&#45;richesse -->
<g id="edge2" class="edge">
<title>pollution&#45;&#45;richesse</title>
<path fill="none" stroke="darkgrey" stroke-width="3.56" d="M448.82,-246.21C431.02,-290.32 398.97,-369.72 387.58,-397.94"/>
</g>
<!-- pollution&#45;&#45;destruction -->
<g id="edge3" class="edge">
<title>pollution&#45;&#45;destruction</title>
<path fill="none" stroke="darkgrey" stroke-width="4.1" d="M437.33,-237.99C399.84,-273.09 329.24,-339.19 309.62,-357.56"/>
</g>
<!-- pollution&#45;&#45;argent -->
<g id="edge4" class="edge">
<title>pollution&#45;&#45;argent</title>
<path fill="none" stroke="darkgrey" stroke-width="3.16" d="M465.31,-247.98C472.15,-300.89 485.36,-402.96 488.94,-430.62"/>
</g>
<!-- pollution&#45;&#45;nickel -->
<g id="edge5" class="edge">
<title>pollution&#45;&#45;nickel</title>
<path fill="none" stroke="darkgrey" stroke-width="10" d="M428.57,-217.32C410.87,-218.2 388.93,-219.28 370.71,-220.19"/>
</g>
<!-- pollution&#45;&#45;montagne -->
<g id="edge6" class="edge">
<title>pollution&#45;&#45;montagne</title>
<path fill="none" stroke="darkgrey" stroke-width="2.16" d="M441.88,-189.07C410.33,-145.41 349.46,-61.19 332.97,-38.37"/>
</g>
<!-- pollution&#45;&#45;camion -->
<g id="edge7" class="edge">
<title>pollution&#45;&#45;camion</title>
<path fill="none" stroke="darkgrey" stroke-width="3.7" d="M435.91,-195.17C420.7,-182.79 402.26,-167.78 391.59,-159.1"/>
</g>
<!-- pollution&#45;&#45;économie -->
<g id="edge8" class="edge">
<title>pollution&#45;&#45;économie</title>
<path fill="none" stroke="darkgrey" stroke-width="8.38" d="M442.8,-242.65C440.54,-245.98 438.27,-249.32 436.13,-252.46"/>
</g>
<!-- pollution&#45;&#45;environnement -->
<g id="edge9" class="edge">
<title>pollution&#45;&#45;environnement</title>
<path fill="none" stroke="darkgrey" stroke-width="5.72" d="M442.03,-242.26C423.34,-268.24 395.58,-306.84 380.56,-327.72"/>
</g>
<!-- pollution&#45;&#45;emploi -->
<g id="edge10" class="edge">
<title>pollution&#45;&#45;emploi</title>
<path fill="none" stroke="darkgrey" stroke-width="8.76" d="M462.5,-248.38C463.66,-276.06 465.28,-314.71 466.22,-337.1"/>
</g>
<!-- pollution&#45;&#45;terre -->
<g id="edge11" class="edge">
<title>pollution&#45;&#45;terre</title>
<path fill="none" stroke="darkgrey" stroke-width="1.54" d="M432.01,-200.6C388.59,-178.07 309.49,-137.04 286.39,-125.06"/>
</g>
<!-- pollution&#45;&#45;usine -->
<g id="edge12" class="edge">
<title>pollution&#45;&#45;usine</title>
<path fill="none" stroke="darkgrey" stroke-width="3.03" d="M451.41,-184.35C441.12,-151.13 425.42,-100.5 418.63,-78.59"/>
</g>
<!-- pollution&#45;&#45;exploitation -->
<g id="edge13" class="edge">
<title>pollution&#45;&#45;exploitation</title>
<path fill="none" stroke="darkgrey" stroke-width="1.98" d="M483.16,-239.66C489.54,-246.59 496.08,-253.71 500.93,-258.97"/>
</g>
<!-- pollution&#45;&#45;sln -->
<g id="edge14" class="edge">
<title>pollution&#45;&#45;sln</title>
<path fill="none" stroke="darkgrey" stroke-width="1.15" d="M492.02,-205.41C502.2,-202.02 512.57,-198.57 519.13,-196.38"/>
</g>
<!-- pollution&#45;&#45;ressource -->
<g id="edge15" class="edge">
<title>pollution&#45;&#45;ressource</title>
<path fill="none" stroke="darkgrey" stroke-width="1.62" d="M487.63,-235.09C522.89,-260.89 582.96,-304.83 601.72,-318.56"/>
</g>
<!-- pollution&#45;&#45;conflit -->
<g id="edge16" class="edge">
<title>pollution&#45;&#45;conflit</title>
<path fill="none" stroke="darkgrey" stroke-width="2.94" d="M491.21,-228.4C518.24,-239.82 555.96,-255.74 571.17,-262.16"/>
</g>
<!-- pollution&#45;&#45;développement -->
<g id="edge17" class="edge">
<title>pollution&#45;&#45;développement</title>
<path fill="none" stroke="darkgrey" stroke-width="2.52" d="M490.47,-201.41C554.97,-170 705.3,-96.76 729.53,-84.96"/>
</g>
<!-- pollution&#45;&#45;minerai -->
<g id="edge18" class="edge">
<title>pollution&#45;&#45;minerai</title>
<path fill="none" stroke="darkgrey" stroke-width="2.93" d="M467.08,-183.52C472.14,-156.19 479.09,-118.59 482.47,-100.3"/>
</g>
<!-- pollution&#45;&#45;déforestation -->
<g id="edge19" class="edge">
<title>pollution&#45;&#45;déforestation</title>
<path fill="none" stroke="darkgrey" stroke-width="1.69" d="M479.14,-188.39C503.89,-150.86 546.46,-86.3 556.1,-71.68"/>
</g>
<!-- travail&#45;&#45;richesse -->
<g id="edge20" class="edge">
<title>travail&#45;&#45;richesse</title>
<path fill="none" stroke="darkgrey" stroke-width="2.07" d="M336.16,-292.31C346.83,-318.48 369.68,-374.52 379.16,-397.79"/>
</g>
<!-- travail&#45;&#45;destruction -->
<g id="edge21" class="edge">
<title>travail&#45;&#45;destruction</title>
<path fill="none" stroke="darkgrey" stroke-width="1.08" d="M326.2,-292.29C320.53,-310.55 310.79,-341.95 306.54,-355.67"/>
</g>
<!-- travail&#45;&#45;nickel -->
<g id="edge22" class="edge">
<title>travail&#45;&#45;nickel</title>
<path fill="none" stroke="darkgrey" stroke-width="4.04" d="M331.58,-263.88C331.72,-262.05 331.86,-260.12 332.01,-258.14"/>
</g>
<!-- travail&#45;&#45;camion -->
<g id="edge23" class="edge">
<title>travail&#45;&#45;camion</title>
<path fill="none" stroke="darkgrey" stroke-width="1.25" d="M336.09,-264.88C346.63,-239.39 369.2,-184.78 378.57,-162.12"/>
</g>
<!-- travail&#45;&#45;économie -->
<g id="edge24" class="edge">
<title>travail&#45;&#45;économie</title>
<path fill="none" stroke="darkgrey" stroke-width="3.05" d="M345.11,-277.14C360.53,-275.79 384.98,-273.66 402.58,-272.12"/>
</g>
<!-- travail&#45;&#45;environnement -->
<g id="edge25" class="edge">
<title>travail&#45;&#45;environnement</title>
<path fill="none" stroke="darkgrey" stroke-width="2.91" d="M338.3,-291.06C344.69,-301.4 353.75,-316.06 360.54,-327.07"/>
</g>
<!-- travail&#45;&#45;terre -->
<g id="edge26" class="edge">
<title>travail&#45;&#45;terre</title>
<path fill="none" stroke="darkgrey" stroke-width="1.43" d="M326.01,-264.51C315.51,-232 289.68,-151.98 282.06,-128.36"/>
</g>
<!-- travail&#45;&#45;exploitation -->
<g id="edge27" class="edge">
<title>travail&#45;&#45;exploitation</title>
<path fill="none" stroke="darkgrey" stroke-width="1.28" d="M345.07,-277.5C379.78,-275.32 466.76,-269.85 497.53,-267.92"/>
</g>
<!-- richesse&#45;&#45;nickel -->
<g id="edge28" class="edge">
<title>richesse&#45;&#45;nickel</title>
<path fill="none" stroke="darkgrey" stroke-width="2.91" d="M380.6,-397.42C373.57,-370.56 355.08,-299.88 343.83,-256.87"/>
</g>
<!-- richesse&#45;&#45;économie -->
<g id="edge29" class="edge">
<title>richesse&#45;&#45;économie</title>
<path fill="none" stroke="darkgrey" stroke-width="1.91" d="M386.61,-397.42C393.35,-374.54 409.11,-320.96 417.88,-291.17"/>
</g>
<!-- richesse&#45;&#45;environnement -->
<g id="edge30" class="edge">
<title>richesse&#45;&#45;environnement</title>
<path fill="none" stroke="darkgrey" stroke-width="2.42" d="M381.21,-397.37C379.16,-387.29 376.06,-372.1 373.64,-360.24"/>
</g>
<!-- richesse&#45;&#45;emploi -->
<g id="edge31" class="edge">
<title>richesse&#45;&#45;emploi</title>
<path fill="none" stroke="darkgrey" stroke-width="1.68" d="M393.01,-402.15C407.33,-393.04 434.44,-375.79 451.56,-364.89"/>
</g>
<!-- destruction&#45;&#45;nickel -->
<g id="edge32" class="edge">
<title>destruction&#45;&#45;nickel</title>
<path fill="none" stroke="darkgrey" stroke-width="1.76" d="M305.99,-355.25C309.82,-337.48 319.97,-290.37 327.11,-257.22"/>
</g>
<!-- destruction&#45;&#45;économie -->
<g id="edge33" class="edge">
<title>destruction&#45;&#45;économie</title>
<path fill="none" stroke="darkgrey" stroke-width="1.02" d="M310.21,-357.96C327.48,-344.66 379.23,-304.77 406.61,-283.67"/>
</g>
<!-- destruction&#45;&#45;emploi -->
<g id="edge34" class="edge">
<title>destruction&#45;&#45;emploi</title>
<path fill="none" stroke="darkgrey" stroke-width="1.58" d="M311.85,-362.07C336.07,-360.98 413.4,-357.5 448.87,-355.9"/>
</g>
<!-- argent&#45;&#45;nickel -->
<g id="edge35" class="edge">
<title>argent&#45;&#45;nickel</title>
<path fill="none" stroke="darkgrey" stroke-width="3.61" d="M485.7,-431.91C467.39,-406.45 393.08,-303.14 355.99,-251.56"/>
</g>
<!-- argent&#45;&#45;emploi -->
<g id="edge36" class="edge">
<title>argent&#45;&#45;emploi</title>
<path fill="none" stroke="darkgrey" stroke-width="1.92" d="M487.98,-430.92C484.48,-418.28 476.84,-390.71 471.8,-372.53"/>
</g>
<!-- nickel&#45;&#45;montagne -->
<g id="edge38" class="edge">
<title>nickel&#45;&#45;montagne</title>
<path fill="none" stroke="darkgrey" stroke-width="3.76" d="M333.57,-185.9C332.13,-139.95 329.74,-63.66 328.99,-39.86"/>
</g>
<!-- nickel&#45;&#45;camion -->
<g id="edge39" class="edge">
<title>nickel&#45;&#45;camion</title>
<path fill="none" stroke="darkgrey" stroke-width="6.28" d="M355.09,-192.27C362.77,-181.08 370.96,-169.15 376.42,-161.19"/>
</g>
<!-- nickel&#45;&#45;économie -->
<g id="edge40" class="edge">
<title>nickel&#45;&#45;économie</title>
<path fill="none" stroke="darkgrey" stroke-width="7.55" d="M366.45,-239.13C379.29,-246.06 393.69,-253.84 404.87,-259.89"/>
</g>
<!-- nickel&#45;&#45;environnement -->
<g id="edge41" class="edge">
<title>nickel&#45;&#45;environnement</title>
<path fill="none" stroke="darkgrey" stroke-width="5.45" d="M344.91,-256.8C351.47,-279.17 359.71,-307.26 364.91,-325.02"/>
</g>
<!-- nickel&#45;&#45;emploi -->
<g id="edge44" class="edge">
<title>nickel&#45;&#45;emploi</title>
<path fill="none" stroke="darkgrey" stroke-width="6.66" d="M360.21,-247.64C388.28,-275.89 432.31,-320.2 454,-342.03"/>
</g>
<!-- nickel&#45;&#45;terre -->
<g id="edge45" class="edge">
<title>nickel&#45;&#45;terre</title>
<path fill="none" stroke="darkgrey" stroke-width="2.44" d="M317.36,-190.24C305.2,-167.98 289.96,-140.09 283.29,-127.88"/>
</g>
<!-- nickel&#45;&#45;usine -->
<g id="edge46" class="edge">
<title>nickel&#45;&#45;usine</title>
<path fill="none" stroke="darkgrey" stroke-width="4.95" d="M351.41,-190.04C369.85,-154.78 398.48,-100.05 410.12,-77.79"/>
</g>
<!-- nickel&#45;&#45;exploitation -->
<g id="edge47" class="edge">
<title>nickel&#45;&#45;exploitation</title>
<path fill="none" stroke="darkgrey" stroke-width="2.62" d="M369.88,-231.13C409.76,-241.51 472.48,-257.84 497.59,-264.38"/>
</g>
<!-- nickel&#45;&#45;sln -->
<g id="edge48" class="edge">
<title>nickel&#45;&#45;sln</title>
<path fill="none" stroke="darkgrey" stroke-width="5.18" d="M370.68,-216.73C417.21,-209.95 495.1,-198.6 518.86,-195.14"/>
</g>
<!-- nickel&#45;&#45;ressource -->
<g id="edge49" class="edge">
<title>nickel&#45;&#45;ressource</title>
<path fill="none" stroke="darkgrey" stroke-width="2.03" d="M368.7,-234.54C432.97,-258.29 568.73,-308.45 600.67,-320.26"/>
</g>
<!-- nickel&#45;&#45;conflit -->
<g id="edge50" class="edge">
<title>nickel&#45;&#45;conflit</title>
<path fill="none" stroke="darkgrey" stroke-width="1.25" d="M370.33,-228.28C428.91,-238.64 542,-258.66 571.01,-263.79"/>
</g>
<!-- nickel&#45;&#45;minerai -->
<g id="edge51" class="edge">
<title>nickel&#45;&#45;minerai</title>
<path fill="none" stroke="darkgrey" stroke-width="5.12" d="M361.83,-197.97C396.39,-167.39 454.25,-116.19 475.94,-97"/>
</g>
<!-- nickel&#45;&#45;déforestation -->
<g id="edge52" class="edge">
<title>nickel&#45;&#45;déforestation</title>
<path fill="none" stroke="darkgrey" stroke-width="1.62" d="M364.83,-201.3C420.08,-163.38 533.9,-85.27 554.76,-70.96"/>
</g>
<!-- nickel&#45;&#45;extraction -->
<g id="edge37" class="edge">
<title>nickel&#45;&#45;extraction</title>
<path fill="none" stroke="darkgrey" stroke-width="1.43" d="M303.97,-241.67C248.76,-277.06 137.51,-348.36 127.2,-354.97"/>
</g>
<!-- nickel&#45;&#45;caillou -->
<g id="edge42" class="edge">
<title>nickel&#45;&#45;caillou</title>
<path fill="none" stroke="darkgrey" stroke-width="1.53" d="M300.63,-234.23C230.79,-259.34 75.87,-315.06 50.92,-324.03"/>
</g>
<!-- nickel&#45;&#45;terre rouge -->
<g id="edge43" class="edge">
<title>nickel&#45;&#45;terre rouge</title>
<path fill="none" stroke="darkgrey" stroke-width="2.31" d="M301.25,-208.38C240.73,-183.78 117.29,-133.62 95.6,-124.8"/>
</g>
<!-- nickel&#45;&#45;goro -->
<g id="edge53" class="edge">
<title>nickel&#45;&#45;goro</title>
<path fill="none" stroke="darkgrey" stroke-width="1.81" d="M298.53,-220.04C222.21,-215.96 50.84,-206.79 40.2,-206.22"/>
</g>
<!-- nickel&#45;&#45;exportation -->
<g id="edge54" class="edge">
<title>nickel&#45;&#45;exportation</title>
<path fill="none" stroke="darkgrey" stroke-width="1.76" d="M309.82,-195.18C260.28,-141.86 152.53,-25.86 134.38,-6.32"/>
</g>
<!-- montagne&#45;&#45;camion -->
<g id="edge55" class="edge">
<title>montagne&#45;&#45;camion</title>
<path fill="none" stroke="darkgrey" stroke-width="1.44" d="M331.66,-38.96C340.52,-58.53 367.23,-117.55 378.1,-141.58"/>
</g>
<!-- montagne&#45;&#45;terre -->
<g id="edge56" class="edge">
<title>montagne&#45;&#45;terre</title>
<path fill="none" stroke="darkgrey" stroke-width="1.01" d="M325.25,-38.95C316.23,-55.4 292.36,-98.95 283.38,-115.33"/>
</g>
<!-- camion&#45;&#45;économie -->
<g id="edge57" class="edge">
<title>camion&#45;&#45;économie</title>
<path fill="none" stroke="darkgrey" stroke-width="1.1" d="M386.45,-162.42C393.27,-181.99 408.04,-224.35 416.9,-249.76"/>
</g>
<!-- camion&#45;&#45;environnement -->
<g id="edge58" class="edge">
<title>camion&#45;&#45;environnement</title>
<path fill="none" stroke="darkgrey" stroke-width="1.28" d="M382.04,-162.99C379.92,-194.59 373.82,-285.47 371.21,-324.37"/>
</g>
<!-- camion&#45;&#45;terre -->
<g id="edge59" class="edge">
<title>camion&#45;&#45;terre</title>
<path fill="none" stroke="darkgrey" d="M372.16,-148.8C351.01,-142.59 304.16,-128.82 286.66,-123.67"/>
</g>
<!-- camion&#45;&#45;usine -->
<g id="edge60" class="edge">
<title>camion&#45;&#45;usine</title>
<path fill="none" stroke="darkgrey" stroke-width="2.34" d="M386.77,-141.62C393.02,-125.49 405.03,-94.45 411.29,-78.26"/>
</g>
<!-- camion&#45;&#45;sln -->
<g id="edge61" class="edge">
<title>camion&#45;&#45;sln</title>
<path fill="none" stroke="darkgrey" stroke-width="1.12" d="M393.55,-155.1C421.51,-163.33 495.9,-185.25 519.01,-192.06"/>
</g>
<!-- camion&#45;&#45;minerai -->
<g id="edge62" class="edge">
<title>camion&#45;&#45;minerai</title>
<path fill="none" stroke="darkgrey" stroke-width="1.77" d="M392.17,-146.16C411.45,-134.31 455.32,-107.36 474.82,-95.37"/>
</g>
<!-- économie&#45;&#45;environnement -->
<g id="edge63" class="edge">
<title>économie&#45;&#45;environnement</title>
<path fill="none" stroke="darkgrey" stroke-width="7.11" d="M410.96,-287.71C401.84,-299.89 389.8,-315.96 381.14,-327.53"/>
</g>
<!-- économie&#45;&#45;emploi -->
<g id="edge64" class="edge">
<title>économie&#45;&#45;emploi</title>
<path fill="none" stroke="darkgrey" stroke-width="6.13" d="M433.78,-289.5C441.3,-304.36 451.59,-324.69 458.71,-338.76"/>
</g>
<!-- économie&#45;&#45;usine -->
<g id="edge65" class="edge">
<title>économie&#45;&#45;usine</title>
<path fill="none" stroke="darkgrey" stroke-width="1.28" d="M423.11,-248.59C421.26,-205.76 417.2,-111.59 415.8,-79.13"/>
</g>
<!-- économie&#45;&#45;exploitation -->
<g id="edge66" class="edge">
<title>économie&#45;&#45;exploitation</title>
<path fill="none" stroke="darkgrey" stroke-width="1.61" d="M445.8,-269.47C462.22,-268.88 484.1,-268.1 497.2,-267.63"/>
</g>
<!-- économie&#45;&#45;sln -->
<g id="edge67" class="edge">
<title>économie&#45;&#45;sln</title>
<path fill="none" stroke="darkgrey" stroke-width="1.87" d="M441.33,-257.33C464.73,-239.85 505.27,-209.56 520.21,-198.4"/>
</g>
<!-- économie&#45;&#45;conflit -->
<g id="edge68" class="edge">
<title>économie&#45;&#45;conflit</title>
<path fill="none" stroke="darkgrey" stroke-width="2.07" d="M445.76,-269.51C480.89,-268.31 548.47,-266.01 570.67,-265.26"/>
</g>
<!-- environnement&#45;&#45;emploi -->
<g id="edge69" class="edge">
<title>environnement&#45;&#45;emploi</title>
<path fill="none" stroke="darkgrey" stroke-width="3.94" d="M388.24,-344.78C405.58,-347.05 431.51,-350.44 448.81,-352.71"/>
</g>
<!-- emploi&#45;&#45;sln -->
<g id="edge70" class="edge">
<title>emploi&#45;&#45;sln</title>
<path fill="none" stroke="darkgrey" stroke-width="1.04" d="M473.17,-338.16C485.95,-303.29 514.74,-224.71 523.43,-201.01"/>
</g>
<!-- emploi&#45;&#45;conflit -->
<g id="edge71" class="edge">
<title>emploi&#45;&#45;conflit</title>
<path fill="none" stroke="darkgrey" stroke-width="2.44" d="M481.02,-343.68C505.51,-323.79 555.03,-283.6 572.03,-269.79"/>
</g>
<!-- usine&#45;&#45;minerai -->
<g id="edge72" class="edge">
<title>usine&#45;&#45;minerai</title>
<path fill="none" stroke="darkgrey" stroke-width="2.72" d="M425.82,-71.15C438.82,-75.2 460.83,-82.06 473.88,-86.13"/>
</g>
<!-- exploitation&#45;&#45;ressource -->
<g id="edge73" class="edge">
<title>exploitation&#45;&#45;ressource</title>
<path fill="none" stroke="darkgrey" stroke-width="1.31" d="M518.37,-272.76C538.62,-284.12 584.39,-309.81 601.17,-319.23"/>
</g>
<!-- exploitation&#45;&#45;minerai -->
<g id="edge74" class="edge">
<title>exploitation&#45;&#45;minerai</title>
<path fill="none" stroke="darkgrey" stroke-width="1.82" d="M507.02,-256.11C502.7,-224.18 490.3,-132.48 485.99,-100.55"/>
</g>
<!-- pollution -->
<g id="node1" class="node">
<title>pollution</title>
<ellipse fill="#fac026" stroke="white" stroke-width="0" cx="461.13" cy="-215.7" rx="32.5" ry="32.5"/>
<text text-anchor="middle" x="486.63" y="-162.08" font-family="Helvetica,sans-Serif" font-size="26.40" fill="#4d4d4d">pollution</text>
</g>
<!-- travail -->
<g id="node2" class="node">
<title>travail</title>
<ellipse fill="#9f2a63" stroke="white" stroke-width="0" cx="330.5" cy="-278.42" rx="14.5" ry="14.5"/>
<text text-anchor="middle" x="286" y="-298.2" font-family="Helvetica,sans-Serif" font-size="18.40" fill="#4d4d4d">travail</text>
</g>
<!-- richesse -->
<g id="node3" class="node">
<title>richesse</title>
<ellipse fill="#69166e" stroke="white" stroke-width="0" cx="383.43" cy="-408.24" rx="11" ry="11"/>
<text text-anchor="middle" x="337.43" y="-423.8" font-family="Helvetica,sans-Serif" font-size="16.80" fill="#4d4d4d">richesse</text>
</g>
<!-- destruction -->
<g id="node4" class="node">
<title>destruction</title>
<ellipse fill="#380962" stroke="white" stroke-width="0" cx="304.45" cy="-362.41" rx="7" ry="7"/>
<text text-anchor="middle" x="253.95" y="-374.25" font-family="Helvetica,sans-Serif" font-size="15.20" fill="#4d4d4d">destruction</text>
</g>
<!-- argent -->
<g id="node5" class="node">
<title>argent</title>
<ellipse fill="#4f0d6c" stroke="white" stroke-width="0" cx="489.85" cy="-437.68" rx="7" ry="7"/>
<text text-anchor="middle" x="457.85" y="-449.52" font-family="Helvetica,sans-Serif" font-size="15.20" fill="#4d4d4d">argent</text>
</g>
<!-- nickel -->
<g id="node6" class="node">
<title>nickel</title>
<ellipse fill="#fcffa4" stroke="white" stroke-width="0" cx="334.7" cy="-221.97" rx="36" ry="36"/>
<text text-anchor="middle" x="257.7" y="-266.57" font-family="Helvetica,sans-Serif" font-size="28.00" fill="#4d4d4d">nickel</text>
</g>
<!-- montagne -->
<g id="node7" class="node">
<title>montagne</title>
<ellipse fill="#3e0966" stroke="white" stroke-width="0" cx="328.76" cy="-32.54" rx="7" ry="7"/>
<text text-anchor="middle" x="282.76" y="-44.38" font-family="Helvetica,sans-Serif" font-size="15.20" fill="#4d4d4d">montagne</text>
</g>
<!-- camion -->
<g id="node8" class="node">
<title>camion</title>
<ellipse fill="#6d186e" stroke="white" stroke-width="0" cx="382.78" cy="-151.92" rx="11" ry="11"/>
<text text-anchor="middle" x="340.78" y="-167.48" font-family="Helvetica,sans-Serif" font-size="16.80" fill="#4d4d4d">camion</text>
</g>
<!-- économie -->
<g id="node9" class="node">
<title>économie</title>
<ellipse fill="#d84c3e" stroke="white" stroke-width="0" cx="424.04" cy="-270.24" rx="21.5" ry="21.5"/>
<text text-anchor="middle" x="456.04" y="-298.46" font-family="Helvetica,sans-Serif" font-size="21.60" fill="#4d4d4d">économie</text>
</g>
<!-- environnement -->
<g id="node10" class="node">
<title>environnement</title>
<ellipse fill="#b0315b" stroke="white" stroke-width="0" cx="370.01" cy="-342.39" rx="18" ry="18"/>
<text text-anchor="middle" x="276.01" y="-330.39" font-family="Helvetica,sans-Serif" font-size="20.00" fill="#4d4d4d">environnement</text>
</g>
<!-- emploi -->
<g id="node11" class="node">
<title>emploi</title>
<ellipse fill="#b3325a" stroke="white" stroke-width="0" cx="466.97" cy="-355.08" rx="18" ry="18"/>
<text text-anchor="middle" x="415.47" y="-379.08" font-family="Helvetica,sans-Serif" font-size="20.00" fill="#4d4d4d">emploi</text>
</g>
<!-- terre -->
<g id="node12" class="node">
<title>terre</title>
<ellipse fill="#380962" stroke="white" stroke-width="0" cx="279.9" cy="-121.69" rx="7" ry="7"/>
<text text-anchor="middle" x="254.4" y="-133.53" font-family="Helvetica,sans-Serif" font-size="15.20" fill="#4d4d4d">terre</text>
</g>
<!-- usine -->
<g id="node13" class="node">
<title>usine</title>
<ellipse fill="#540f6d" stroke="white" stroke-width="0" cx="415.31" cy="-67.87" rx="11" ry="11"/>
<text text-anchor="middle" x="381.31" y="-83.43" font-family="Helvetica,sans-Serif" font-size="16.80" fill="#4d4d4d">usine</text>
</g>
<!-- exploitation -->
<g id="node14" class="node">
<title>exploitation</title>
<ellipse fill="#5a116e" stroke="white" stroke-width="0" cx="508.52" cy="-267.23" rx="11" ry="11"/>
<text text-anchor="middle" x="547.52" y="-242.79" font-family="Helvetica,sans-Serif" font-size="16.80" fill="#4d4d4d">exploitation</text>
</g>
<!-- sln -->
<g id="node15" class="node">
<title>sln</title>
<ellipse fill="#3e0966" stroke="white" stroke-width="0" cx="525.96" cy="-194.11" rx="7" ry="7"/>
<text text-anchor="middle" x="507.46" y="-205.95" font-family="Helvetica,sans-Serif" font-size="15.20" fill="#4d4d4d">sln</text>
</g>
<!-- ressource -->
<g id="node16" class="node">
<title>ressource</title>
<ellipse fill="#470b6a" stroke="white" stroke-width="0" cx="607.5" cy="-322.78" rx="7" ry="7"/>
<text text-anchor="middle" x="563.5" y="-334.62" font-family="Helvetica,sans-Serif" font-size="15.20" fill="#4d4d4d">ressource</text>
</g>
<!-- conflit -->
<g id="node17" class="node">
<title>conflit</title>
<ellipse fill="#380962" stroke="white" stroke-width="0" cx="577.92" cy="-265.01" rx="7" ry="7"/>
<text text-anchor="middle" x="546.92" y="-276.85" font-family="Helvetica,sans-Serif" font-size="15.20" fill="#4d4d4d">conflit</text>
</g>
<!-- développement -->
<g id="node18" class="node">
<title>développement</title>
<ellipse fill="#060419" stroke="white" stroke-width="0" cx="732.85" cy="-83.34" rx="3.5" ry="3.5"/>
<text text-anchor="middle" x="675.35" y="-90.96" font-family="Helvetica,sans-Serif" font-size="13.60" fill="#4d4d4d">développement</text>
</g>
<!-- minerai -->
<g id="node19" class="node">
<title>minerai</title>
<ellipse fill="#540f6d" stroke="white" stroke-width="0" cx="484.48" cy="-89.44" rx="11" ry="11"/>
<text text-anchor="middle" x="441.48" y="-105" font-family="Helvetica,sans-Serif" font-size="16.80" fill="#4d4d4d">minerai</text>
</g>
<!-- déforestation -->
<g id="node20" class="node">
<title>déforestation</title>
<ellipse fill="#10092d" stroke="white" stroke-width="0" cx="558.08" cy="-68.68" rx="3.5" ry="3.5"/>
<text text-anchor="middle" x="509.58" y="-54.3" font-family="Helvetica,sans-Serif" font-size="13.60" fill="#4d4d4d">déforestation</text>
</g>
<!-- extraction -->
<g id="node21" class="node">
<title>extraction</title>
<ellipse fill="#010005" stroke="white" stroke-width="0" cx="126.44" cy="-355.46" rx="0.5" ry="0.5"/>
<text text-anchor="middle" x="95.44" y="-359.36" font-family="Helvetica,sans-Serif" font-size="12.00" fill="#4d4d4d">extraction</text>
</g>
<!-- caillou -->
<g id="node22" class="node">
<title>caillou</title>
<ellipse fill="#0b0724" stroke="white" stroke-width="0" cx="47.5" cy="-325.26" rx="3.5" ry="3.5"/>
<text text-anchor="middle" x="22" y="-332.88" font-family="Helvetica,sans-Serif" font-size="13.60" fill="#4d4d4d">caillou</text>
</g>
<!-- terre rouge -->
<g id="node23" class="node">
<title>terre rouge</title>
<ellipse fill="#040312" stroke="white" stroke-width="0" cx="92.31" cy="-123.46" rx="3.5" ry="3.5"/>
<text text-anchor="middle" x="50.81" y="-131.08" font-family="Helvetica,sans-Serif" font-size="13.60" fill="#4d4d4d">terre rouge</text>
</g>
<!-- goro -->
<g id="node24" class="node">
<title>goro</title>
<ellipse fill="#000004" stroke="white" stroke-width="0" cx="39.68" cy="-206.19" rx="0.5" ry="0.5"/>
<text text-anchor="middle" x="25.18" y="-210.09" font-family="Helvetica,sans-Serif" font-size="12.00" fill="#4d4d4d">goro</text>
</g>
<!-- exportation -->
<g id="node25" class="node">
<title>exportation</title>
<ellipse fill="#07051b" stroke="white" stroke-width="0" cx="131.75" cy="-3.5" rx="3.5" ry="3.5"/>
<text text-anchor="middle" x="88.75" y="-11.12" font-family="Helvetica,sans-Serif" font-size="13.60" fill="#4d4d4d">exportation</text>
</g>
</g>
</svg>
