<?xml version="1.0" encoding="UTF-8" standalone="no"?>
<!DOCTYPE svg PUBLIC "-//W3C//DTD SVG 1.1//EN"
 "http://www.w3.org/Graphics/SVG/1.1/DTD/svg11.dtd">
<!-- Generated by graphviz version 2.43.0 (0)
 -->
<!-- Pages: 1 -->
<svg width="606pt" height="280pt"
 viewBox="0.00 0.00 606.07 280.48" xmlns="http://www.w3.org/2000/svg" xmlns:xlink="http://www.w3.org/1999/xlink">
<g id="graph0" class="graph" transform="scale(1 1) rotate(0) translate(4 276.48)">
<polygon fill="white" stroke="transparent" points="-4,4 -4,-276.48 602.07,-276.48 602.07,4 -4,4"/>
<!-- emploi&#45;&#45;pollution -->
<g id="edge1" class="edge">
<title>emploi&#45;&#45;pollution</title>
<path fill="none" stroke="darkgrey" stroke-width="10" d="M344.6,-179.25C363.34,-168.29 392.65,-151.15 415.03,-138.06"/>
</g>
<!-- emploi&#45;&#45;impact environnemental -->
<g id="edge2" class="edge">
<title>emploi&#45;&#45;impact environnemental</title>
<path fill="none" stroke="darkgrey" stroke-width="4.3" d="M311.5,-173.96C300.29,-161.5 284.94,-144.44 274.32,-132.64"/>
</g>
<!-- emploi&#45;&#45;économie -->
<g id="edge3" class="edge">
<title>emploi&#45;&#45;économie</title>
<path fill="none" stroke="darkgrey" d="M326.32,-168.36C326.71,-137.88 327.42,-83.58 327.72,-60.17"/>
</g>
<!-- pollution&#45;&#45;impact environnemental -->
<g id="edge5" class="edge">
<title>pollution&#45;&#45;impact environnemental</title>
<path fill="none" stroke="darkgrey" stroke-width="4.98" d="M410.5,-119.51C371.27,-119.36 310.12,-119.14 280,-119.02"/>
</g>
<!-- pollution&#45;&#45;économie -->
<g id="edge7" class="edge">
<title>pollution&#45;&#45;économie</title>
<path fill="none" stroke="darkgrey" stroke-width="6.71" d="M415.34,-101.06C389.39,-85.59 354.08,-64.54 337.37,-54.59"/>
</g>
<!-- pollution&#45;&#45;épuisable -->
<g id="edge4" class="edge">
<title>pollution&#45;&#45;épuisable</title>
<path fill="none" stroke="darkgrey" stroke-width="7.63" d="M473.92,-143.31C504.07,-169.34 551.08,-209.93 572.4,-228.33"/>
</g>
<!-- pollution&#45;&#45;démolition -->
<g id="edge6" class="edge">
<title>pollution&#45;&#45;démolition</title>
<path fill="none" stroke="darkgrey" stroke-width="3.86" d="M473.71,-95.82C511.53,-62.68 576.09,-6.12 582.06,-0.89"/>
</g>
<!-- impact environnemental&#45;&#45;économie -->
<g id="edge8" class="edge">
<title>impact environnemental&#45;&#45;économie</title>
<path fill="none" stroke="darkgrey" stroke-width="1.85" d="M274.39,-105.78C287.8,-91.52 308.79,-69.2 320.07,-57.21"/>
</g>
<!-- emploi -->
<g id="node1" class="node">
<title>emploi</title>
<ellipse fill="#d34743" stroke="white" stroke-width="0" cx="326.03" cy="-190.11" rx="21.5" ry="21.5"/>
<text text-anchor="middle" x="267.53" y="-218.33" font-family="Helvetica,sans-Serif" font-size="21.60" fill="#4d4d4d">emploi</text>
</g>
<!-- pollution -->
<g id="node2" class="node">
<title>pollution</title>
<ellipse fill="#fcffa4" stroke="white" stroke-width="0" cx="446.51" cy="-119.65" rx="36" ry="36"/>
<text text-anchor="middle" x="349.01" y="-92.25" font-family="Helvetica,sans-Serif" font-size="28.00" fill="#4d4d4d">pollution</text>
</g>
<!-- impact environnemental -->
<g id="node3" class="node">
<title>impact environnemental</title>
<ellipse fill="#ab2f5e" stroke="white" stroke-width="0" cx="262" cy="-118.96" rx="18" ry="18"/>
<text text-anchor="middle" x="122" y="-142.96" font-family="Helvetica,sans-Serif" font-size="20.00" fill="#4d4d4d">impact environnemental</text>
</g>
<!-- économie -->
<g id="node4" class="node">
<title>économie</title>
<ellipse fill="#64156e" stroke="white" stroke-width="0" cx="327.87" cy="-48.92" rx="11" ry="11"/>
<text text-anchor="middle" x="275.37" y="-64.48" font-family="Helvetica,sans-Serif" font-size="16.80" fill="#4d4d4d">économie</text>
</g>
<!-- épuisable -->
<g id="node5" class="node">
<title>épuisable</title>
<ellipse fill="#7c1d6d" stroke="white" stroke-width="0" cx="583.57" cy="-237.98" rx="14.5" ry="14.5"/>
<text text-anchor="middle" x="523.57" y="-257.76" font-family="Helvetica,sans-Serif" font-size="18.40" fill="#4d4d4d">épuisable</text>
</g>
<!-- démolition -->
<g id="node6" class="node">
<title>démolition</title>
<ellipse fill="#000004" stroke="white" stroke-width="0" cx="582.51" cy="-0.5" rx="0.5" ry="0.5"/>
<text text-anchor="middle" x="550.01" y="-4.4" font-family="Helvetica,sans-Serif" font-size="12.00" fill="#4d4d4d">démolition</text>
</g>
</g>
</svg>
