<?xml version="1.0" encoding="UTF-8" standalone="no"?>
<!DOCTYPE svg PUBLIC "-//W3C//DTD SVG 1.1//EN"
 "http://www.w3.org/Graphics/SVG/1.1/DTD/svg11.dtd">
<!-- Generated by graphviz version 2.43.0 (0)
 -->
<!-- Pages: 1 -->
<svg width="792pt" height="497pt"
 viewBox="0.00 0.00 791.52 497.28" xmlns="http://www.w3.org/2000/svg" xmlns:xlink="http://www.w3.org/1999/xlink">
<g id="graph0" class="graph" transform="scale(1 1) rotate(0) translate(4 493.28)">
<polygon fill="white" stroke="transparent" points="-4,4 -4,-493.28 787.52,-493.28 787.52,4 -4,4"/>
<!-- pollution&#45;&#45;dégradation environnementale -->
<g id="edge1" class="edge">
<title>pollution&#45;&#45;dégradation environnementale</title>
<path fill="none" stroke="darkgrey" stroke-width="9.02" d="M349.15,-276.01C357.7,-269.68 368.74,-261.5 378.76,-254.08"/>
</g>
<!-- pollution&#45;&#45;nouvelle&#45;calédonie -->
<g id="edge2" class="edge">
<title>pollution&#45;&#45;nouvelle&#45;calédonie</title>
<path fill="none" stroke="darkgrey" stroke-width="1.25" d="M349.06,-298.22C371,-315.43 411.22,-346.98 422.1,-355.51"/>
</g>
<!-- pollution&#45;&#45;travail -->
<g id="edge3" class="edge">
<title>pollution&#45;&#45;travail</title>
<path fill="none" stroke="darkgrey" stroke-width="6.4" d="M338.42,-269.2C342.51,-250.61 348.95,-221.3 353.32,-201.42"/>
</g>
<!-- pollution&#45;&#45;économie -->
<g id="edge4" class="edge">
<title>pollution&#45;&#45;économie</title>
<path fill="none" stroke="darkgrey" stroke-width="5.24" d="M318.33,-278.58C295.38,-266.9 253.66,-245.67 230.64,-233.95"/>
</g>
<!-- pollution&#45;&#45;nickel -->
<g id="edge5" class="edge">
<title>pollution&#45;&#45;nickel</title>
<path fill="none" stroke="darkgrey" stroke-width="5.15" d="M316.39,-289.4C308.2,-290.56 298.22,-291.97 288.62,-293.33"/>
</g>
<!-- pollution&#45;&#45;ressource minière -->
<g id="edge6" class="edge">
<title>pollution&#45;&#45;ressource minière</title>
<path fill="none" stroke="darkgrey" stroke-width="1.87" d="M322.24,-300.15C299.88,-324.34 253.23,-374.81 234.87,-394.67"/>
</g>
<!-- pollution&#45;&#45;politique -->
<g id="edge7" class="edge">
<title>pollution&#45;&#45;politique</title>
<path fill="none" stroke="darkgrey" stroke-width="3.01" d="M325.14,-271.25C316.44,-256.84 303.67,-235.69 295.61,-222.35"/>
</g>
<!-- pollution&#45;&#45;secteur nickel -->
<g id="edge8" class="edge">
<title>pollution&#45;&#45;secteur nickel</title>
<path fill="none" stroke="darkgrey" stroke-width="3.12" d="M316.36,-287.65C283.64,-289.13 215.25,-292.22 182.62,-293.69"/>
</g>
<!-- pollution&#45;&#45;nature -->
<g id="edge9" class="edge">
<title>pollution&#45;&#45;nature</title>
<path fill="none" stroke="darkgrey" stroke-width="3.39" d="M324.28,-271.74C305.8,-244.59 267.32,-188.03 250.29,-163.01"/>
</g>
<!-- pollution&#45;&#45;société néo&#45;calédonienne -->
<g id="edge10" class="edge">
<title>pollution&#45;&#45;société néo&#45;calédonienne</title>
<path fill="none" stroke="darkgrey" stroke-width="1.38" d="M327.94,-269.96C306.6,-215.53 240.39,-46.6 230.17,-20.53"/>
</g>
<!-- pollution&#45;&#45;exploitation minière -->
<g id="edge11" class="edge">
<title>pollution&#45;&#45;exploitation minière</title>
<path fill="none" stroke="darkgrey" stroke-width="2.06" d="M328.48,-304.21C322.25,-322.04 312.76,-349.21 307.56,-364.1"/>
</g>
<!-- pollution&#45;&#45;alternative au développement -->
<g id="edge12" class="edge">
<title>pollution&#45;&#45;alternative au développement</title>
<path fill="none" stroke="darkgrey" stroke-width="1.74" d="M335.16,-305.14C336.56,-346.76 339.91,-446.47 340.6,-467.03"/>
</g>
<!-- pollution&#45;&#45;matériel -->
<g id="edge13" class="edge">
<title>pollution&#45;&#45;matériel</title>
<path fill="none" stroke="darkgrey" stroke-width="2.67" d="M317.53,-279.91C275.09,-262.64 165.16,-217.93 126.63,-202.25"/>
</g>
<!-- pollution&#45;&#45;industrie -->
<g id="edge14" class="edge">
<title>pollution&#45;&#45;industrie</title>
<path fill="none" stroke="darkgrey" stroke-width="2.7" d="M318.29,-294.97C285.35,-311.46 211.08,-348.64 178.07,-365.16"/>
</g>
<!-- pollution&#45;&#45;échange commercial -->
<g id="edge15" class="edge">
<title>pollution&#45;&#45;échange commercial</title>
<path fill="none" stroke="darkgrey" d="M321.46,-274.07C287.71,-241.15 198.79,-154.43 176.43,-132.62"/>
</g>
<!-- dégradation environnementale&#45;&#45;nouvelle&#45;calédonie -->
<g id="edge16" class="edge">
<title>dégradation environnementale&#45;&#45;nouvelle&#45;calédonie</title>
<path fill="none" stroke="darkgrey" stroke-width="1.49" d="M410.24,-266.95C415.2,-297.72 422.21,-341.16 424.28,-353.98"/>
</g>
<!-- dégradation environnementale&#45;&#45;travail -->
<g id="edge17" class="edge">
<title>dégradation environnementale&#45;&#45;travail</title>
<path fill="none" stroke="darkgrey" stroke-width="8.06" d="M383.71,-209.9C379.83,-205.4 375.86,-200.79 372.24,-196.59"/>
</g>
<!-- dégradation environnementale&#45;&#45;économie -->
<g id="edge18" class="edge">
<title>dégradation environnementale&#45;&#45;économie</title>
<path fill="none" stroke="darkgrey" stroke-width="7.42" d="M372.23,-233.08C331.76,-231.17 264.36,-227.99 232.3,-226.48"/>
</g>
<!-- dégradation environnementale&#45;&#45;nickel -->
<g id="edge19" class="edge">
<title>dégradation environnementale&#45;&#45;nickel</title>
<path fill="none" stroke="darkgrey" stroke-width="10" d="M374.93,-247.22C349.36,-257.93 312.69,-273.29 286.2,-284.39"/>
</g>
<!-- dégradation environnementale&#45;&#45;ressource minière -->
<g id="edge20" class="edge">
<title>dégradation environnementale&#45;&#45;ressource minière</title>
<path fill="none" stroke="darkgrey" stroke-width="4.22" d="M381.41,-256.97C341.17,-295.07 261.14,-370.83 235.4,-395.21"/>
</g>
<!-- dégradation environnementale&#45;&#45;politique -->
<g id="edge21" class="edge">
<title>dégradation environnementale&#45;&#45;politique</title>
<path fill="none" stroke="darkgrey" stroke-width="4.49" d="M373.06,-227.85C349.93,-222.95 319.77,-216.56 302.3,-212.86"/>
</g>
<!-- dégradation environnementale&#45;&#45;secteur nickel -->
<g id="edge22" class="edge">
<title>dégradation environnementale&#45;&#45;secteur nickel</title>
<path fill="none" stroke="darkgrey" stroke-width="4.58" d="M373.09,-242.57C321.73,-255.36 222.47,-280.09 182.19,-290.12"/>
</g>
<!-- dégradation environnementale&#45;&#45;nature -->
<g id="edge23" class="edge">
<title>dégradation environnementale&#45;&#45;nature</title>
<path fill="none" stroke="darkgrey" stroke-width="5.2" d="M375.85,-219.61C340.11,-201.21 281.09,-170.83 254.99,-157.39"/>
</g>
<!-- dégradation environnementale&#45;&#45;société néo&#45;calédonienne -->
<g id="edge25" class="edge">
<title>dégradation environnementale&#45;&#45;société néo&#45;calédonienne</title>
<path fill="none" stroke="darkgrey" stroke-width="1.88" d="M384.46,-209.25C341.98,-156.81 247.14,-39.73 231.15,-19.99"/>
</g>
<!-- dégradation environnementale&#45;&#45;exploitation minière -->
<g id="edge26" class="edge">
<title>dégradation environnementale&#45;&#45;exploitation minière</title>
<path fill="none" stroke="darkgrey" stroke-width="3.93" d="M385.98,-260.99C362.97,-292.87 325.44,-344.85 310.38,-365.72"/>
</g>
<!-- dégradation environnementale&#45;&#45;alternative au développement -->
<g id="edge27" class="edge">
<title>dégradation environnementale&#45;&#45;alternative au développement</title>
<path fill="none" stroke="darkgrey" stroke-width="2.11" d="M396.48,-265.98C380.63,-324.2 347.72,-445.1 341.69,-467.26"/>
</g>
<!-- dégradation environnementale&#45;&#45;matériel -->
<g id="edge28" class="edge">
<title>dégradation environnementale&#45;&#45;matériel</title>
<path fill="none" stroke="darkgrey" stroke-width="4.37" d="M372.66,-230.42C309.55,-222.23 172.33,-204.42 127.51,-198.6"/>
</g>
<!-- dégradation environnementale&#45;&#45;industrie -->
<g id="edge31" class="edge">
<title>dégradation environnementale&#45;&#45;industrie</title>
<path fill="none" stroke="darkgrey" stroke-width="3.9" d="M376.63,-250.81C325.12,-280.18 217.83,-341.35 177.5,-364.34"/>
</g>
<!-- dégradation environnementale&#45;&#45;échange commercial -->
<g id="edge33" class="edge">
<title>dégradation environnementale&#45;&#45;échange commercial</title>
<path fill="none" stroke="darkgrey" stroke-width="2.18" d="M375.41,-221.07C320.62,-195.98 206.38,-143.66 177.83,-130.59"/>
</g>
<!-- dégradation environnementale&#45;&#45;amélioration environnementale -->
<g id="edge24" class="edge">
<title>dégradation environnementale&#45;&#45;amélioration environnementale</title>
<path fill="none" stroke="darkgrey" stroke-width="1.19" d="M435.85,-245.22C518.2,-273.54 738.06,-349.13 751.72,-353.82"/>
</g>
<!-- dégradation environnementale&#45;&#45;foncier -->
<g id="edge29" class="edge">
<title>dégradation environnementale&#45;&#45;foncier</title>
<path fill="none" stroke="darkgrey" stroke-width="2.18" d="M372.53,-237.96C291.28,-246.3 83.61,-267.63 53.23,-270.75"/>
</g>
<!-- dégradation environnementale&#45;&#45;relation politique -->
<g id="edge30" class="edge">
<title>dégradation environnementale&#45;&#45;relation politique</title>
<path fill="none" stroke="darkgrey" stroke-width="1.22" d="M401.31,-202C394.78,-144.51 381.66,-29.15 379.16,-7.16"/>
</g>
<!-- dégradation environnementale&#45;&#45;risque -->
<g id="edge32" class="edge">
<title>dégradation environnementale&#45;&#45;risque</title>
<path fill="none" stroke="darkgrey" stroke-width="1.58" d="M435.99,-223.89C514.85,-196.56 717.91,-126.19 730.52,-121.81"/>
</g>
<!-- nouvelle&#45;calédonie&#45;&#45;travail -->
<g id="edge34" class="edge">
<title>nouvelle&#45;calédonie&#45;&#45;travail</title>
<path fill="none" stroke="darkgrey" stroke-width="1.59" d="M423.6,-354.3C416.47,-335.35 381.3,-241.95 365.6,-200.25"/>
</g>
<!-- nouvelle&#45;calédonie&#45;&#45;économie -->
<g id="edge35" class="edge">
<title>nouvelle&#45;calédonie&#45;&#45;économie</title>
<path fill="none" stroke="darkgrey" stroke-width="1.36" d="M421.9,-355.82C400.85,-342.62 274.05,-263.1 229.64,-235.26"/>
</g>
<!-- nouvelle&#45;calédonie&#45;&#45;nickel -->
<g id="edge36" class="edge">
<title>nouvelle&#45;calédonie&#45;&#45;nickel</title>
<path fill="none" stroke="darkgrey" stroke-width="2.62" d="M421.28,-356.45C404.28,-350.59 330.99,-325.35 286.84,-310.15"/>
</g>
<!-- nouvelle&#45;calédonie&#45;&#45;ressource minière -->
<g id="edge37" class="edge">
<title>nouvelle&#45;calédonie&#45;&#45;ressource minière</title>
<path fill="none" stroke="darkgrey" stroke-width="1.25" d="M421.44,-358.47C399.25,-363.55 275.68,-391.85 238.07,-400.47"/>
</g>
<!-- nouvelle&#45;calédonie&#45;&#45;politique -->
<g id="edge38" class="edge">
<title>nouvelle&#45;calédonie&#45;&#45;politique</title>
<path fill="none" stroke="darkgrey" stroke-width="1.83" d="M422.26,-354.86C406.75,-338.1 326.38,-251.25 298,-220.58"/>
</g>
<!-- nouvelle&#45;calédonie&#45;&#45;secteur nickel -->
<g id="edge39" class="edge">
<title>nouvelle&#45;calédonie&#45;&#45;secteur nickel</title>
<path fill="none" stroke="darkgrey" stroke-width="1.54" d="M421.19,-356.79C394.99,-350.43 236.19,-311.89 182.38,-298.83"/>
</g>
<!-- nouvelle&#45;calédonie&#45;&#45;nature -->
<g id="edge40" class="edge">
<title>nouvelle&#45;calédonie&#45;&#45;nature</title>
<path fill="none" stroke="darkgrey" stroke-width="1.02" d="M422.29,-354.76C403.39,-333.38 286.38,-200.99 251.61,-161.66"/>
</g>
<!-- nouvelle&#45;calédonie&#45;&#45;exploitation minière -->
<g id="edge41" class="edge">
<title>nouvelle&#45;calédonie&#45;&#45;exploitation minière</title>
<path fill="none" stroke="darkgrey" stroke-width="1.02" d="M421.38,-358.18C405.64,-360.4 340.94,-369.56 314.82,-373.25"/>
</g>
<!-- nouvelle&#45;calédonie&#45;&#45;industrie -->
<g id="edge42" class="edge">
<title>nouvelle&#45;calédonie&#45;&#45;industrie</title>
<path fill="none" stroke="darkgrey" stroke-width="1.29" d="M421.15,-357.91C394.67,-359.48 234.14,-369.03 179.74,-372.27"/>
</g>
<!-- travail&#45;&#45;économie -->
<g id="edge43" class="edge">
<title>travail&#45;&#45;économie</title>
<path fill="none" stroke="darkgrey" stroke-width="6.95" d="M337.42,-186.61C309.01,-195.61 258.3,-211.68 231.69,-220.12"/>
</g>
<!-- travail&#45;&#45;nickel -->
<g id="edge44" class="edge">
<title>travail&#45;&#45;nickel</title>
<path fill="none" stroke="darkgrey" stroke-width="8.16" d="M343.37,-196.53C326.19,-215.84 297.46,-248.13 276.95,-271.18"/>
</g>
<!-- travail&#45;&#45;ressource minière -->
<g id="edge45" class="edge">
<title>travail&#45;&#45;ressource minière</title>
<path fill="none" stroke="darkgrey" stroke-width="3.29" d="M347.08,-198.7C320.44,-244.1 252.84,-359.29 232.86,-393.34"/>
</g>
<!-- travail&#45;&#45;politique -->
<g id="edge46" class="edge">
<title>travail&#45;&#45;politique</title>
<path fill="none" stroke="darkgrey" stroke-width="4.15" d="M338.15,-188.53C326.52,-193.48 312.12,-199.6 301.75,-204.02"/>
</g>
<!-- travail&#45;&#45;secteur nickel -->
<g id="edge47" class="edge">
<title>travail&#45;&#45;secteur nickel</title>
<path fill="none" stroke="darkgrey" stroke-width="4.83" d="M339.46,-191.05C301.54,-213.48 215.74,-264.24 180.31,-285.19"/>
</g>
<!-- travail&#45;&#45;nature -->
<g id="edge48" class="edge">
<title>travail&#45;&#45;nature</title>
<path fill="none" stroke="darkgrey" stroke-width="3.53" d="M336.98,-174.75C313.58,-168.82 276.41,-159.4 256.16,-154.27"/>
</g>
<!-- travail&#45;&#45;société néo&#45;calédonienne -->
<g id="edge49" class="edge">
<title>travail&#45;&#45;société néo&#45;calédonienne</title>
<path fill="none" stroke="darkgrey" stroke-width="1.72" d="M344.43,-162.95C314.63,-125.37 245.07,-37.62 231.25,-20.19"/>
</g>
<!-- travail&#45;&#45;exploitation minière -->
<g id="edge50" class="edge">
<title>travail&#45;&#45;exploitation minière</title>
<path fill="none" stroke="darkgrey" stroke-width="3.29" d="M352.21,-200.92C340.74,-242.13 315.52,-332.74 306.83,-363.97"/>
</g>
<!-- travail&#45;&#45;alternative au développement -->
<g id="edge51" class="edge">
<title>travail&#45;&#45;alternative au développement</title>
<path fill="none" stroke="darkgrey" stroke-width="1.27" d="M356.71,-201.93C353,-264.26 342.55,-440.15 340.94,-467.26"/>
</g>
<!-- travail&#45;&#45;matériel -->
<g id="edge52" class="edge">
<title>travail&#45;&#45;matériel</title>
<path fill="none" stroke="darkgrey" stroke-width="3.62" d="M336.27,-181.56C287.21,-184.89 168.95,-192.93 127.6,-195.73"/>
</g>
<!-- travail&#45;&#45;industrie -->
<g id="edge55" class="edge">
<title>travail&#45;&#45;industrie</title>
<path fill="none" stroke="darkgrey" stroke-width="3.94" d="M342.61,-195.25C305.1,-232.17 209.56,-326.24 174.71,-360.56"/>
</g>
<!-- travail&#45;&#45;échange commercial -->
<g id="edge57" class="edge">
<title>travail&#45;&#45;échange commercial</title>
<path fill="none" stroke="darkgrey" stroke-width="1.84" d="M337.31,-174.26C295.72,-162.57 203.77,-136.72 178.06,-129.5"/>
</g>
<!-- travail&#45;&#45;foncier -->
<g id="edge53" class="edge">
<title>travail&#45;&#45;foncier</title>
<path fill="none" stroke="darkgrey" stroke-width="1.45" d="M337.29,-186.2C273.25,-205.1 81.13,-261.8 52.96,-270.11"/>
</g>
<!-- travail&#45;&#45;relation politique -->
<g id="edge54" class="edge">
<title>travail&#45;&#45;relation politique</title>
<path fill="none" stroke="darkgrey" stroke-width="1.12" d="M360.55,-158.43C365.48,-116.43 376.06,-26.35 378.32,-7.15"/>
</g>
<!-- travail&#45;&#45;risque -->
<g id="edge56" class="edge">
<title>travail&#45;&#45;risque</title>
<path fill="none" stroke="darkgrey" stroke-width="1.72" d="M379.41,-176.73C456.22,-164.69 714.3,-124.24 730.35,-121.72"/>
</g>
<!-- économie&#45;&#45;nickel -->
<g id="edge58" class="edge">
<title>économie&#45;&#45;nickel</title>
<path fill="none" stroke="darkgrey" stroke-width="6.32" d="M222.82,-241.78C226.67,-249.07 231.36,-257.94 235.87,-266.48"/>
</g>
<!-- économie&#45;&#45;ressource minière -->
<g id="edge59" class="edge">
<title>économie&#45;&#45;ressource minière</title>
<path fill="none" stroke="darkgrey" stroke-width="2.22" d="M215.6,-243.61C218.26,-280.06 224.21,-361.75 226.39,-391.68"/>
</g>
<!-- économie&#45;&#45;politique -->
<g id="edge60" class="edge">
<title>économie&#45;&#45;politique</title>
<path fill="none" stroke="darkgrey" stroke-width="4.65" d="M232.15,-221.81C244.94,-219.07 261.94,-215.43 273.82,-212.89"/>
</g>
<!-- économie&#45;&#45;secteur nickel -->
<g id="edge61" class="edge">
<title>économie&#45;&#45;secteur nickel</title>
<path fill="none" stroke="darkgrey" stroke-width="3.6" d="M203.75,-240.24C195.42,-251.77 183.85,-267.8 175.44,-279.45"/>
</g>
<!-- économie&#45;&#45;nature -->
<g id="edge62" class="edge">
<title>économie&#45;&#45;nature</title>
<path fill="none" stroke="darkgrey" stroke-width="2.7" d="M220.55,-208.62C225.45,-195.31 232.17,-177.03 236.75,-164.58"/>
</g>
<!-- économie&#45;&#45;société néo&#45;calédonienne -->
<g id="edge63" class="edge">
<title>économie&#45;&#45;société néo&#45;calédonienne</title>
<path fill="none" stroke="darkgrey" stroke-width="1.35" d="M215.56,-207.49C218.77,-161.52 227.07,-42.54 228.6,-20.64"/>
</g>
<!-- économie&#45;&#45;exploitation minière -->
<g id="edge64" class="edge">
<title>économie&#45;&#45;exploitation minière</title>
<path fill="none" stroke="darkgrey" stroke-width="1.93" d="M223.71,-241.31C242.2,-272.13 282.81,-339.79 297.96,-365.05"/>
</g>
<!-- économie&#45;&#45;alternative au développement -->
<g id="edge65" class="edge">
<title>économie&#45;&#45;alternative au développement</title>
<path fill="none" stroke="darkgrey" stroke-width="1.36" d="M222.59,-241.72C248.41,-291.78 326.38,-442.96 339,-467.42"/>
</g>
<!-- économie&#45;&#45;matériel -->
<g id="edge66" class="edge">
<title>économie&#45;&#45;matériel</title>
<path fill="none" stroke="darkgrey" stroke-width="2.13" d="M196.66,-220.6C176.94,-214.97 145.4,-205.96 127.21,-200.77"/>
</g>
<!-- économie&#45;&#45;industrie -->
<g id="edge69" class="edge">
<title>économie&#45;&#45;industrie</title>
<path fill="none" stroke="darkgrey" stroke-width="2.55" d="M208.16,-242.86C198.03,-271.33 177.93,-327.83 167.82,-356.22"/>
</g>
<!-- économie&#45;&#45;échange commercial -->
<g id="edge70" class="edge">
<title>économie&#45;&#45;échange commercial</title>
<path fill="none" stroke="darkgrey" stroke-width="1.54" d="M206.99,-209C197.4,-187.15 180.99,-149.75 174.27,-134.43"/>
</g>
<!-- économie&#45;&#45;foncier -->
<g id="edge67" class="edge">
<title>économie&#45;&#45;foncier</title>
<path fill="none" stroke="darkgrey" stroke-width="1.06" d="M196.66,-230.5C158.8,-240.95 71.65,-265.01 53.04,-270.15"/>
</g>
<!-- économie&#45;&#45;relation politique -->
<g id="edge68" class="edge">
<title>économie&#45;&#45;relation politique</title>
<path fill="none" stroke="darkgrey" stroke-width="1.22" d="M225.08,-211.06C258.67,-165.69 360.08,-28.71 376.49,-6.55"/>
</g>
<!-- nickel&#45;&#45;ressource minière -->
<g id="edge71" class="edge">
<title>nickel&#45;&#45;ressource minière</title>
<path fill="none" stroke="darkgrey" stroke-width="5.19" d="M244.16,-333.51C239.18,-353.91 233.24,-378.25 229.88,-392.02"/>
</g>
<!-- nickel&#45;&#45;politique -->
<g id="edge72" class="edge">
<title>nickel&#45;&#45;politique</title>
<path fill="none" stroke="darkgrey" stroke-width="3.29" d="M266.09,-264.92C271.79,-250.62 278.14,-234.72 282.54,-223.69"/>
</g>
<!-- nickel&#45;&#45;secteur nickel -->
<g id="edge73" class="edge">
<title>nickel&#45;&#45;secteur nickel</title>
<path fill="none" stroke="darkgrey" stroke-width="6.39" d="M216.62,-296.81C205.01,-296.3 192.65,-295.75 182.88,-295.32"/>
</g>
<!-- nickel&#45;&#45;nature -->
<g id="edge74" class="edge">
<title>nickel&#45;&#45;nature</title>
<path fill="none" stroke="darkgrey" stroke-width="5.53" d="M250.08,-262.26C247.79,-231.16 244.61,-187.87 242.97,-165.44"/>
</g>
<!-- nickel&#45;&#45;exploitation minière -->
<g id="edge75" class="edge">
<title>nickel&#45;&#45;exploitation minière</title>
<path fill="none" stroke="darkgrey" stroke-width="7.07" d="M272.92,-328.6C281.74,-341.78 291.44,-356.29 297.58,-365.47"/>
</g>
<!-- nickel&#45;&#45;alternative au développement -->
<g id="edge76" class="edge">
<title>nickel&#45;&#45;alternative au développement</title>
<path fill="none" stroke="darkgrey" stroke-width="1.61" d="M269.28,-330.83C291.79,-374.91 330.24,-450.24 338.94,-467.28"/>
</g>
<!-- nickel&#45;&#45;matériel -->
<g id="edge77" class="edge">
<title>nickel&#45;&#45;matériel</title>
<path fill="none" stroke="darkgrey" stroke-width="5.61" d="M223.45,-277.09C192.89,-254.84 146.47,-221.06 124.87,-205.33"/>
</g>
<!-- nickel&#45;&#45;industrie -->
<g id="edge80" class="edge">
<title>nickel&#45;&#45;industrie</title>
<path fill="none" stroke="darkgrey" stroke-width="7.99" d="M224.93,-321.29C208.63,-334.72 188.72,-351.11 175.66,-361.87"/>
</g>
<!-- nickel&#45;&#45;échange commercial -->
<g id="edge81" class="edge">
<title>nickel&#45;&#45;échange commercial</title>
<path fill="none" stroke="darkgrey" stroke-width="3.01" d="M237.22,-265.87C217.46,-224.44 184.65,-155.64 174.41,-134.19"/>
</g>
<!-- nickel&#45;&#45;foncier -->
<g id="edge78" class="edge">
<title>nickel&#45;&#45;foncier</title>
<path fill="none" stroke="darkgrey" stroke-width="2.25" d="M216.87,-293.59C164.9,-286.62 72.74,-274.25 53.2,-271.63"/>
</g>
<!-- nickel&#45;&#45;relation politique -->
<g id="edge79" class="edge">
<title>nickel&#45;&#45;relation politique</title>
<path fill="none" stroke="darkgrey" stroke-width="1.22" d="M266.94,-265.15C297.32,-194.05 366.71,-31.68 377.36,-6.74"/>
</g>
<!-- ressource minière&#45;&#45;politique -->
<g id="edge82" class="edge">
<title>ressource minière&#45;&#45;politique</title>
<path fill="none" stroke="darkgrey" stroke-width="2.8" d="M230.57,-392.3C240.89,-359.56 272.11,-260.47 283.68,-223.74"/>
</g>
<!-- ressource minière&#45;&#45;secteur nickel -->
<g id="edge83" class="edge">
<title>ressource minière&#45;&#45;secteur nickel</title>
<path fill="none" stroke="darkgrey" stroke-width="2.01" d="M221.66,-393.33C210.81,-374.56 186.76,-332.93 173.6,-310.15"/>
</g>
<!-- ressource minière&#45;&#45;nature -->
<g id="edge84" class="edge">
<title>ressource minière&#45;&#45;nature</title>
<path fill="none" stroke="darkgrey" stroke-width="1.79" d="M227.86,-391.79C230.23,-351.16 238.36,-211.2 241.03,-165.33"/>
</g>
<!-- ressource minière&#45;&#45;exploitation minière -->
<g id="edge85" class="edge">
<title>ressource minière&#45;&#45;exploitation minière</title>
<path fill="none" stroke="darkgrey" stroke-width="2.31" d="M237.55,-399.16C252.08,-393.81 278.45,-384.13 293.16,-378.72"/>
</g>
<!-- ressource minière&#45;&#45;matériel -->
<g id="edge86" class="edge">
<title>ressource minière&#45;&#45;matériel</title>
<path fill="none" stroke="darkgrey" stroke-width="1.81" d="M221.86,-393.28C203.21,-359.6 141.1,-247.41 120.07,-209.42"/>
</g>
<!-- ressource minière&#45;&#45;industrie -->
<g id="edge87" class="edge">
<title>ressource minière&#45;&#45;industrie</title>
<path fill="none" stroke="darkgrey" stroke-width="2.41" d="M216.98,-398.33C206.62,-393.64 190.44,-386.32 178.25,-380.81"/>
</g>
<!-- ressource minière&#45;&#45;échange commercial -->
<g id="edge88" class="edge">
<title>ressource minière&#45;&#45;échange commercial</title>
<path fill="none" stroke="darkgrey" stroke-width="1.5" d="M225.02,-392.16C215.81,-346.82 180.36,-172.38 172.72,-134.76"/>
</g>
<!-- politique&#45;&#45;secteur nickel -->
<g id="edge89" class="edge">
<title>politique&#45;&#45;secteur nickel</title>
<path fill="none" stroke="darkgrey" stroke-width="3.22" d="M275.77,-218.27C252.95,-233.91 204.13,-267.38 179.47,-284.29"/>
</g>
<!-- politique&#45;&#45;nature -->
<g id="edge90" class="edge">
<title>politique&#45;&#45;nature</title>
<path fill="none" stroke="darkgrey" stroke-width="1.53" d="M278.94,-198.15C270.84,-187.77 259.07,-172.69 250.98,-162.32"/>
</g>
<!-- politique&#45;&#45;société néo&#45;calédonienne -->
<g id="edge91" class="edge">
<title>politique&#45;&#45;société néo&#45;calédonienne</title>
<path fill="none" stroke="darkgrey" stroke-width="1.36" d="M283.71,-195.67C271.31,-155.34 236.32,-41.49 229.87,-20.49"/>
</g>
<!-- politique&#45;&#45;exploitation minière -->
<g id="edge92" class="edge">
<title>politique&#45;&#45;exploitation minière</title>
<path fill="none" stroke="darkgrey" stroke-width="1.79" d="M289.46,-224.48C292.56,-256.97 299.97,-334.51 302.74,-363.56"/>
</g>
<!-- politique&#45;&#45;alternative au développement -->
<g id="edge93" class="edge">
<title>politique&#45;&#45;alternative au développement</title>
<path fill="none" stroke="darkgrey" stroke-width="1.41" d="M290.97,-224.24C301.1,-274.46 334.56,-440.23 339.98,-467.09"/>
</g>
<!-- politique&#45;&#45;matériel -->
<g id="edge94" class="edge">
<title>politique&#45;&#45;matériel</title>
<path fill="none" stroke="darkgrey" stroke-width="1.35" d="M273.44,-208.75C240.58,-206.28 161.16,-200.33 127.99,-197.84"/>
</g>
<!-- politique&#45;&#45;industrie -->
<g id="edge97" class="edge">
<title>politique&#45;&#45;industrie</title>
<path fill="none" stroke="darkgrey" stroke-width="2.7" d="M279.18,-221.34C256.71,-250.41 197.66,-326.83 172.91,-358.87"/>
</g>
<!-- politique&#45;&#45;échange commercial -->
<g id="edge98" class="edge">
<title>politique&#45;&#45;échange commercial</title>
<path fill="none" stroke="darkgrey" stroke-width="1.43" d="M276,-201.35C251.17,-183.86 195.15,-144.41 177.03,-131.65"/>
</g>
<!-- politique&#45;&#45;foncier -->
<g id="edge95" class="edge">
<title>politique&#45;&#45;foncier</title>
<path fill="none" stroke="darkgrey" stroke-width="1.09" d="M273.85,-213.49C226.91,-225.55 78.34,-263.72 53.15,-270.19"/>
</g>
<!-- politique&#45;&#45;relation politique -->
<g id="edge96" class="edge">
<title>politique&#45;&#45;relation politique</title>
<path fill="none" stroke="darkgrey" stroke-width="1.57" d="M294.01,-196.3C312.37,-154.52 367.51,-29.08 377.26,-6.88"/>
</g>
<!-- secteur nickel&#45;&#45;nature -->
<g id="edge99" class="edge">
<title>secteur nickel&#45;&#45;nature</title>
<path fill="none" stroke="darkgrey" stroke-width="2.11" d="M173.13,-278.56C188.55,-249.89 220.66,-190.14 234.86,-163.71"/>
</g>
<!-- secteur nickel&#45;&#45;société néo&#45;calédonienne -->
<g id="edge100" class="edge">
<title>secteur nickel&#45;&#45;société néo&#45;calédonienne</title>
<path fill="none" stroke="darkgrey" stroke-width="1.31" d="M168.68,-276.74C181.76,-220.3 221.85,-47.3 228.03,-20.61"/>
</g>
<!-- secteur nickel&#45;&#45;exploitation minière -->
<g id="edge101" class="edge">
<title>secteur nickel&#45;&#45;exploitation minière</title>
<path fill="none" stroke="darkgrey" stroke-width="2.34" d="M180.27,-303.56C209.29,-320.3 270.51,-355.6 294.19,-369.25"/>
</g>
<!-- secteur nickel&#45;&#45;alternative au développement -->
<g id="edge102" class="edge">
<title>secteur nickel&#45;&#45;alternative au développement</title>
<path fill="none" stroke="darkgrey" stroke-width="1.07" d="M177.52,-307.47C214.7,-344.68 320.27,-450.32 338.14,-468.2"/>
</g>
<!-- secteur nickel&#45;&#45;matériel -->
<g id="edge103" class="edge">
<title>secteur nickel&#45;&#45;matériel</title>
<path fill="none" stroke="darkgrey" stroke-width="2.79" d="M156.06,-278.36C145.94,-259.16 129.25,-227.48 119.91,-209.76"/>
</g>
<!-- secteur nickel&#45;&#45;industrie -->
<g id="edge105" class="edge">
<title>secteur nickel&#45;&#45;industrie</title>
<path fill="none" stroke="darkgrey" stroke-width="5.01" d="M163.91,-312.79C163.45,-325.53 162.84,-342.44 162.38,-355.16"/>
</g>
<!-- secteur nickel&#45;&#45;échange commercial -->
<g id="edge106" class="edge">
<title>secteur nickel&#45;&#45;échange commercial</title>
<path fill="none" stroke="darkgrey" stroke-width="1.99" d="M165.29,-276.33C166.76,-239.82 170,-159.03 170.98,-134.67"/>
</g>
<!-- secteur nickel&#45;&#45;foncier -->
<g id="edge104" class="edge">
<title>secteur nickel&#45;&#45;foncier</title>
<path fill="none" stroke="darkgrey" stroke-width="1.78" d="M146.59,-290.86C118.77,-285.21 67.06,-274.7 53.07,-271.86"/>
</g>
<!-- nature&#45;&#45;société néo&#45;calédonienne -->
<g id="edge107" class="edge">
<title>nature&#45;&#45;société néo&#45;calédonienne</title>
<path fill="none" stroke="darkgrey" stroke-width="1.41" d="M240.46,-136.11C237.5,-105.83 230.82,-37.46 229.2,-20.83"/>
</g>
<!-- nature&#45;&#45;exploitation minière -->
<g id="edge108" class="edge">
<title>nature&#45;&#45;exploitation minière</title>
<path fill="none" stroke="darkgrey" stroke-width="1.63" d="M245.75,-164.67C257.2,-206.08 290.67,-327.21 300.85,-364.05"/>
</g>
<!-- nature&#45;&#45;matériel -->
<g id="edge109" class="edge">
<title>nature&#45;&#45;matériel</title>
<path fill="none" stroke="darkgrey" stroke-width="3.16" d="M228.09,-155.58C203.29,-164.45 151.45,-182.99 126.73,-191.83"/>
</g>
<!-- nature&#45;&#45;industrie -->
<g id="edge111" class="edge">
<title>nature&#45;&#45;industrie</title>
<path fill="none" stroke="darkgrey" stroke-width="2.46" d="M236.87,-164.58C222.85,-203.52 183.28,-313.46 167.93,-356.12"/>
</g>
<!-- nature&#45;&#45;échange commercial -->
<g id="edge112" class="edge">
<title>nature&#45;&#45;échange commercial</title>
<path fill="none" stroke="darkgrey" stroke-width="1.17" d="M227.93,-146.09C212.81,-141.16 189.34,-133.49 177.93,-129.76"/>
</g>
<!-- nature&#45;&#45;foncier -->
<g id="edge110" class="edge">
<title>nature&#45;&#45;foncier</title>
<path fill="none" stroke="darkgrey" stroke-width="1.38" d="M229.55,-158.37C191.07,-182.47 74.46,-255.5 52.94,-268.98"/>
</g>
<!-- société néo&#45;calédonienne&#45;&#45;matériel -->
<g id="edge113" class="edge">
<title>société néo&#45;calédonienne&#45;&#45;matériel</title>
<path fill="none" stroke="darkgrey" stroke-width="1.34" d="M226.83,-20.26C214.13,-39.96 144.75,-147.56 121.01,-184.37"/>
</g>
<!-- exploitation minière&#45;&#45;matériel -->
<g id="edge114" class="edge">
<title>exploitation minière&#45;&#45;matériel</title>
<path fill="none" stroke="darkgrey" stroke-width="2.55" d="M295.62,-367.15C265.1,-338.66 158.02,-238.71 123.71,-206.68"/>
</g>
<!-- exploitation minière&#45;&#45;industrie -->
<g id="edge115" class="edge">
<title>exploitation minière&#45;&#45;industrie</title>
<path fill="none" stroke="darkgrey" stroke-width="2.97" d="M292.67,-374.69C268.2,-374.44 209.61,-373.83 179.81,-373.53"/>
</g>
<!-- exploitation minière&#45;&#45;échange commercial -->
<g id="edge116" class="edge">
<title>exploitation minière&#45;&#45;échange commercial</title>
<path fill="none" stroke="darkgrey" stroke-width="1.7" d="M298.46,-364.81C276.37,-323.62 192.73,-167.63 174.7,-134"/>
</g>
<!-- alternative au développement&#45;&#45;industrie -->
<g id="edge117" class="edge">
<title>alternative au développement&#45;&#45;industrie</title>
<path fill="none" stroke="darkgrey" stroke-width="1.09" d="M337.62,-469.09C318.59,-458.73 217.25,-403.56 177.62,-381.99"/>
</g>
<!-- matériel&#45;&#45;industrie -->
<g id="edge119" class="edge">
<title>matériel&#45;&#45;industrie</title>
<path fill="none" stroke="darkgrey" stroke-width="3.92" d="M116.94,-210.88C125.77,-242.88 147.23,-320.75 156.89,-355.77"/>
</g>
<!-- matériel&#45;&#45;échange commercial -->
<g id="edge120" class="edge">
<title>matériel&#45;&#45;échange commercial</title>
<path fill="none" stroke="darkgrey" stroke-width="1.61" d="M122.39,-185.62C135,-170.65 156.95,-144.59 166.55,-133.19"/>
</g>
<!-- matériel&#45;&#45;foncier -->
<g id="edge118" class="edge">
<title>matériel&#45;&#45;foncier</title>
<path fill="none" stroke="darkgrey" stroke-width="1.48" d="M103.39,-208.02C88.39,-225.59 60.34,-258.44 51.94,-268.28"/>
</g>
<!-- industrie&#45;&#45;échange commercial -->
<g id="edge123" class="edge">
<title>industrie&#45;&#45;échange commercial</title>
<path fill="none" stroke="darkgrey" stroke-width="1.72" d="M162.43,-355.27C164.37,-305.39 169.72,-167.31 170.99,-134.6"/>
</g>
<!-- foncier&#45;&#45;industrie -->
<g id="edge121" class="edge">
<title>foncier&#45;&#45;industrie</title>
<path fill="none" stroke="darkgrey" stroke-width="1.86" d="M52.27,-273.66C65.44,-285.65 122.06,-337.21 148.29,-361.1"/>
</g>
<!-- relation politique&#45;&#45;échange commercial -->
<g id="edge122" class="edge">
<title>relation politique&#45;&#45;échange commercial</title>
<path fill="none" stroke="darkgrey" stroke-width="1.03" d="M375.49,-5.45C352.08,-19.45 209.61,-104.65 177.63,-123.78"/>
</g>
<!-- pollution -->
<g id="node1" class="node">
<title>pollution</title>
<ellipse fill="#a52c60" stroke="white" stroke-width="0" cx="334.55" cy="-286.83" rx="18" ry="18"/>
<text text-anchor="middle" x="359.55" y="-310.83" font-family="Helvetica,sans-Serif" font-size="20.00" fill="#4d4d4d">pollution</text>
</g>
<!-- dégradation environnementale -->
<g id="node2" class="node">
<title>dégradation environnementale</title>
<ellipse fill="#f1ed71" stroke="white" stroke-width="0" cx="405.02" cy="-234.62" rx="32.5" ry="32.5"/>
<text text-anchor="middle" x="578.02" y="-275" font-family="Helvetica,sans-Serif" font-size="26.40" fill="#4d4d4d">dégradation environnementale</text>
</g>
<!-- nouvelle&#45;calédonie -->
<g id="node3" class="node">
<title>nouvelle&#45;calédonie</title>
<ellipse fill="#120a32" stroke="white" stroke-width="0" cx="424.87" cy="-357.68" rx="3.5" ry="3.5"/>
<text text-anchor="middle" x="357.37" y="-343.3" font-family="Helvetica,sans-Serif" font-size="13.60" fill="#4d4d4d">nouvelle&#45;calédonie</text>
</g>
<!-- travail -->
<g id="node4" class="node">
<title>travail</title>
<ellipse fill="#e35933" stroke="white" stroke-width="0" cx="358.01" cy="-180.08" rx="21.5" ry="21.5"/>
<text text-anchor="middle" x="301.51" y="-165.3" font-family="Helvetica,sans-Serif" font-size="21.60" fill="#4d4d4d">travail</text>
</g>
<!-- économie -->
<g id="node5" class="node">
<title>économie</title>
<ellipse fill="#ab2f5e" stroke="white" stroke-width="0" cx="214.29" cy="-225.63" rx="18" ry="18"/>
<text text-anchor="middle" x="147.79" y="-249.63" font-family="Helvetica,sans-Serif" font-size="20.00" fill="#4d4d4d">économie</text>
</g>
<!-- nickel -->
<g id="node6" class="node">
<title>nickel</title>
<ellipse fill="#fcffa4" stroke="white" stroke-width="0" cx="252.73" cy="-298.4" rx="36" ry="36"/>
<text text-anchor="middle" x="329.73" y="-240" font-family="Helvetica,sans-Serif" font-size="28.00" fill="#4d4d4d">nickel</text>
</g>
<!-- ressource minière -->
<g id="node7" class="node">
<title>ressource minière</title>
<ellipse fill="#5c126e" stroke="white" stroke-width="0" cx="227.21" cy="-402.95" rx="11" ry="11"/>
<text text-anchor="middle" x="140.21" y="-418.51" font-family="Helvetica,sans-Serif" font-size="16.80" fill="#4d4d4d">ressource minière</text>
</g>
<!-- politique -->
<g id="node8" class="node">
<title>politique</title>
<ellipse fill="#952667" stroke="white" stroke-width="0" cx="288.06" cy="-209.84" rx="14.5" ry="14.5"/>
<text text-anchor="middle" x="232.56" y="-180.62" font-family="Helvetica,sans-Serif" font-size="18.40" fill="#4d4d4d">politique</text>
</g>
<!-- secteur nickel -->
<g id="node9" class="node">
<title>secteur nickel</title>
<ellipse fill="#ae305c" stroke="white" stroke-width="0" cx="164.56" cy="-294.51" rx="18" ry="18"/>
<text text-anchor="middle" x="77.06" y="-318.51" font-family="Helvetica,sans-Serif" font-size="20.00" fill="#4d4d4d">secteur nickel</text>
</g>
<!-- nature -->
<g id="node10" class="node">
<title>nature</title>
<ellipse fill="#7d1e6d" stroke="white" stroke-width="0" cx="241.88" cy="-150.65" rx="14.5" ry="14.5"/>
<text text-anchor="middle" x="196.38" y="-141.43" font-family="Helvetica,sans-Serif" font-size="18.40" fill="#4d4d4d">nature</text>
</g>
<!-- société néo&#45;calédonienne -->
<g id="node11" class="node">
<title>société néo&#45;calédonienne</title>
<ellipse fill="#0e092b" stroke="white" stroke-width="0" cx="228.84" cy="-17.14" rx="3.5" ry="3.5"/>
<text text-anchor="middle" x="138.84" y="-24.76" font-family="Helvetica,sans-Serif" font-size="13.60" fill="#4d4d4d">société néo&#45;calédonienne</text>
</g>
<!-- exploitation minière -->
<g id="node12" class="node">
<title>exploitation minière</title>
<ellipse fill="#721a6e" stroke="white" stroke-width="0" cx="303.82" cy="-374.81" rx="11" ry="11"/>
<text text-anchor="middle" x="377.32" y="-390.37" font-family="Helvetica,sans-Serif" font-size="16.80" fill="#4d4d4d">exploitation minière</text>
</g>
<!-- alternative au développement -->
<g id="node13" class="node">
<title>alternative au développement</title>
<ellipse fill="#0a0722" stroke="white" stroke-width="0" cx="340.73" cy="-470.78" rx="3.5" ry="3.5"/>
<text text-anchor="middle" x="234.23" y="-478.4" font-family="Helvetica,sans-Serif" font-size="13.60" fill="#4d4d4d">alternative au développement</text>
</g>
<!-- matériel -->
<g id="node14" class="node">
<title>matériel</title>
<ellipse fill="#8c2369" stroke="white" stroke-width="0" cx="113.04" cy="-196.72" rx="14.5" ry="14.5"/>
<text text-anchor="middle" x="59.54" y="-216.5" font-family="Helvetica,sans-Serif" font-size="18.40" fill="#4d4d4d">matériel</text>
</g>
<!-- industrie -->
<g id="node15" class="node">
<title>industrie</title>
<ellipse fill="#ad305d" stroke="white" stroke-width="0" cx="161.73" cy="-373.34" rx="18" ry="18"/>
<text text-anchor="middle" x="99.73" y="-397.34" font-family="Helvetica,sans-Serif" font-size="20.00" fill="#4d4d4d">industrie</text>
</g>
<!-- échange commercial -->
<g id="node16" class="node">
<title>échange commercial</title>
<ellipse fill="#2d0b59" stroke="white" stroke-width="0" cx="171.26" cy="-127.59" rx="7" ry="7"/>
<text text-anchor="middle" x="85.26" y="-139.43" font-family="Helvetica,sans-Serif" font-size="15.20" fill="#4d4d4d">échange commercial</text>
</g>
<!-- amélioration environnementale -->
<g id="node17" class="node">
<title>amélioration environnementale</title>
<ellipse fill="#000004" stroke="white" stroke-width="0" cx="752.39" cy="-354.05" rx="0.5" ry="0.5"/>
<text text-anchor="middle" x="657.39" y="-357.95" font-family="Helvetica,sans-Serif" font-size="12.00" fill="#4d4d4d">amélioration environnementale</text>
</g>
<!-- foncier -->
<g id="node18" class="node">
<title>foncier</title>
<ellipse fill="#1b0c41" stroke="white" stroke-width="0" cx="49.5" cy="-271.13" rx="3.5" ry="3.5"/>
<text text-anchor="middle" x="23" y="-278.75" font-family="Helvetica,sans-Serif" font-size="13.60" fill="#4d4d4d">foncier</text>
</g>
<!-- relation politique -->
<g id="node19" class="node">
<title>relation politique</title>
<ellipse fill="#040314" stroke="white" stroke-width="0" cx="378.75" cy="-3.5" rx="3.5" ry="3.5"/>
<text text-anchor="middle" x="317.75" y="-11.12" font-family="Helvetica,sans-Serif" font-size="13.60" fill="#4d4d4d">relation politique</text>
</g>
<!-- risque -->
<g id="node20" class="node">
<title>risque</title>
<ellipse fill="#010106" stroke="white" stroke-width="0" cx="731.14" cy="-121.6" rx="0.5" ry="0.5"/>
<text text-anchor="middle" x="712.14" y="-125.5" font-family="Helvetica,sans-Serif" font-size="12.00" fill="#4d4d4d">risque</text>
</g>
</g>
</svg>
