<?xml version="1.0" encoding="UTF-8" standalone="no"?>
<!DOCTYPE svg PUBLIC "-//W3C//DTD SVG 1.1//EN"
 "http://www.w3.org/Graphics/SVG/1.1/DTD/svg11.dtd">
<!-- Generated by graphviz version 2.43.0 (0)
 -->
<!-- Pages: 1 -->
<svg width="627pt" height="287pt"
 viewBox="0.00 0.00 627.42 286.81" xmlns="http://www.w3.org/2000/svg" xmlns:xlink="http://www.w3.org/1999/xlink">
<g id="graph0" class="graph" transform="scale(1 1) rotate(0) translate(4 282.81)">
<polygon fill="white" stroke="transparent" points="-4,4 -4,-282.81 623.42,-282.81 623.42,4 -4,4"/>
<!-- pollution&#45;&#45;travail -->
<g id="edge1" class="edge">
<title>pollution&#45;&#45;travail</title>
<path fill="none" stroke="darkgrey" stroke-width="6.44" d="M242.73,-126.3C244.51,-125.7 246.26,-125.11 247.92,-124.55"/>
</g>
<!-- pollution&#45;&#45;richesse -->
<g id="edge2" class="edge">
<title>pollution&#45;&#45;richesse</title>
<path fill="none" stroke="darkgrey" stroke-width="1.44" d="M238.49,-155.61C252.22,-165.25 268.05,-176.37 277.83,-183.23"/>
</g>
<!-- pollution&#45;&#45;destruction -->
<g id="edge3" class="edge">
<title>pollution&#45;&#45;destruction</title>
<path fill="none" stroke="darkgrey" stroke-width="4.75" d="M192.53,-163.69C181.74,-178.86 169.18,-196.52 162.82,-205.47"/>
</g>
<!-- pollution&#45;&#45;argent -->
<g id="edge4" class="edge">
<title>pollution&#45;&#45;argent</title>
<path fill="none" stroke="darkgrey" stroke-width="1.65" d="M239.39,-119.56C264.57,-103.92 299.88,-81.99 314.12,-73.14"/>
</g>
<!-- pollution&#45;&#45;nickel -->
<g id="edge5" class="edge">
<title>pollution&#45;&#45;nickel</title>
<path fill="none" stroke="darkgrey" stroke-width="8.05" d="M244.31,-134.98C257.47,-134.25 272.7,-133.4 286.2,-132.65"/>
</g>
<!-- pollution&#45;&#45;camion -->
<g id="edge6" class="edge">
<title>pollution&#45;&#45;camion</title>
<path fill="none" stroke="darkgrey" stroke-width="1.92" d="M222.64,-167.55C228.94,-185.18 236.44,-206.21 240.86,-218.58"/>
</g>
<!-- pollution&#45;&#45;économie -->
<g id="edge7" class="edge">
<title>pollution&#45;&#45;économie</title>
<path fill="none" stroke="darkgrey" stroke-width="7.9" d="M214.15,-104.12C214.16,-104.02 214.16,-103.93 214.17,-103.84"/>
</g>
<!-- pollution&#45;&#45;environnement -->
<g id="edge8" class="edge">
<title>pollution&#45;&#45;environnement</title>
<path fill="none" stroke="darkgrey" stroke-width="6.25" d="M216.92,-104.69C219.49,-88.99 222.49,-70.68 224.65,-57.49"/>
</g>
<!-- pollution&#45;&#45;emploi -->
<g id="edge9" class="edge">
<title>pollution&#45;&#45;emploi</title>
<path fill="none" stroke="darkgrey" stroke-width="10" d="M229.63,-109.57C241.23,-92.01 255.88,-69.82 265.48,-55.29"/>
</g>
<!-- pollution&#45;&#45;développement -->
<g id="edge10" class="edge">
<title>pollution&#45;&#45;développement</title>
<path fill="none" stroke="darkgrey" stroke-width="1.42" d="M180.99,-125.49C154.3,-115.66 119.06,-102.68 113.72,-100.71"/>
</g>
<!-- pollution&#45;&#45;déforestation -->
<g id="edge11" class="edge">
<title>pollution&#45;&#45;déforestation</title>
<path fill="none" stroke="darkgrey" stroke-width="1.54" d="M181.23,-148.82C151.69,-160.5 109.54,-177.17 97.09,-182.1"/>
</g>
<!-- travail&#45;&#45;richesse -->
<g id="edge12" class="edge">
<title>travail&#45;&#45;richesse</title>
<path fill="none" stroke="darkgrey" d="M267.03,-133.6C271.83,-146.98 278.99,-166.99 283.35,-179.16"/>
</g>
<!-- travail&#45;&#45;nickel -->
<g id="edge13" class="edge">
<title>travail&#45;&#45;nickel</title>
<path fill="none" stroke="darkgrey" stroke-width="2.17" d="M276.4,-122.34C279.61,-122.92 283.15,-123.56 286.81,-124.22"/>
</g>
<!-- travail&#45;&#45;économie -->
<g id="edge14" class="edge">
<title>travail&#45;&#45;économie</title>
<path fill="none" stroke="darkgrey" stroke-width="2.28" d="M250.4,-110.3C245.05,-105.96 238.6,-100.73 232.73,-95.96"/>
</g>
<!-- travail&#45;&#45;environnement -->
<g id="edge15" class="edge">
<title>travail&#45;&#45;environnement</title>
<path fill="none" stroke="darkgrey" stroke-width="2.04" d="M256.23,-106.17C250.31,-92.41 241.14,-71.11 234.78,-56.33"/>
</g>
<!-- richesse&#45;&#45;nickel -->
<g id="edge16" class="edge">
<title>richesse&#45;&#45;nickel</title>
<path fill="none" stroke="darkgrey" stroke-width="1.14" d="M292.83,-180.27C295.91,-175.11 299.92,-168.41 303.98,-161.61"/>
</g>
<!-- argent&#45;&#45;nickel -->
<g id="edge17" class="edge">
<title>argent&#45;&#45;nickel</title>
<path fill="none" stroke="darkgrey" stroke-width="3.15" d="M320.68,-76.26C320.83,-80.99 321.06,-87.61 321.29,-94.62"/>
</g>
<!-- argent&#45;&#45;emploi -->
<g id="edge18" class="edge">
<title>argent&#45;&#45;emploi</title>
<path fill="none" stroke="darkgrey" stroke-width="1.43" d="M314.2,-65.15C308.23,-61.26 298.98,-55.24 291.03,-50.06"/>
</g>
<!-- nickel&#45;&#45;camion -->
<g id="edge20" class="edge">
<title>nickel&#45;&#45;camion</title>
<path fill="none" stroke="darkgrey" stroke-width="3.87" d="M299.98,-159.14C283.63,-179.82 262.56,-206.49 251.74,-220.18"/>
</g>
<!-- nickel&#45;&#45;économie -->
<g id="edge21" class="edge">
<title>nickel&#45;&#45;économie</title>
<path fill="none" stroke="darkgrey" stroke-width="4.26" d="M289.62,-115.73C271.86,-107.67 250.54,-98 235.39,-91.13"/>
</g>
<!-- nickel&#45;&#45;environnement -->
<g id="edge22" class="edge">
<title>nickel&#45;&#45;environnement</title>
<path fill="none" stroke="darkgrey" stroke-width="1.22" d="M296.31,-105.52C278.2,-88.15 254.88,-65.79 240.6,-52.08"/>
</g>
<!-- nickel&#45;&#45;emploi -->
<g id="edge23" class="edge">
<title>nickel&#45;&#45;emploi</title>
<path fill="none" stroke="darkgrey" stroke-width="4.34" d="M305.82,-98.43C298.45,-84.18 290.09,-68.04 284.04,-56.34"/>
</g>
<!-- nickel&#45;&#45;montagne -->
<g id="edge19" class="edge">
<title>nickel&#45;&#45;montagne</title>
<path fill="none" stroke="darkgrey" stroke-width="1.37" d="M352.13,-151.13C373.12,-165.65 399.53,-183.91 411.09,-191.91"/>
</g>
<!-- nickel&#45;&#45;usine -->
<g id="edge24" class="edge">
<title>nickel&#45;&#45;usine</title>
<path fill="none" stroke="darkgrey" stroke-width="3.96" d="M347.95,-104.7C367.66,-84.62 393.33,-58.46 403.96,-47.63"/>
</g>
<!-- nickel&#45;&#45;sln -->
<g id="edge25" class="edge">
<title>nickel&#45;&#45;sln</title>
<path fill="none" stroke="darkgrey" stroke-width="5.88" d="M332.99,-165.23C341.7,-193.93 353.39,-232.46 358.09,-247.94"/>
</g>
<!-- nickel&#45;&#45;minerai -->
<g id="edge26" class="edge">
<title>nickel&#45;&#45;minerai</title>
<path fill="none" stroke="darkgrey" stroke-width="2.83" d="M357.58,-122.06C386.41,-115 424.93,-105.58 440.4,-101.79"/>
</g>
<!-- économie&#45;&#45;environnement -->
<g id="edge27" class="edge">
<title>économie&#45;&#45;environnement</title>
<path fill="none" stroke="darkgrey" stroke-width="8.76" d="M221.56,-61.42C221.93,-60.07 222.31,-58.71 222.68,-57.38"/>
</g>
<!-- économie&#45;&#45;emploi -->
<g id="edge28" class="edge">
<title>économie&#45;&#45;emploi</title>
<path fill="none" stroke="darkgrey" stroke-width="8.12" d="M233.42,-69.8C242.1,-63.67 252.45,-56.35 260.72,-50.5"/>
</g>
<!-- environnement&#45;&#45;emploi -->
<g id="edge29" class="edge">
<title>environnement&#45;&#45;emploi</title>
<path fill="none" stroke="darkgrey" stroke-width="2.27" d="M245.73,-39.75C249.55,-39.78 253.58,-39.82 257.41,-39.85"/>
</g>
<!-- usine&#45;&#45;minerai -->
<g id="edge30" class="edge">
<title>usine&#45;&#45;minerai</title>
<path fill="none" stroke="darkgrey" stroke-width="1.67" d="M412.99,-48.76C420.42,-59.89 435.98,-83.21 443.3,-94.18"/>
</g>
<!-- exploitation&#45;&#45;minerai -->
<g id="edge32" class="edge">
<title>exploitation&#45;&#45;minerai</title>
<path fill="none" stroke="darkgrey" stroke-width="1.16" d="M528.21,-112.49C511.59,-109.95 470.8,-103.71 454.33,-101.2"/>
</g>
<!-- exploitation&#45;&#45;ressource -->
<g id="edge31" class="edge">
<title>exploitation&#45;&#45;ressource</title>
<path fill="none" stroke="darkgrey" stroke-width="1.4" d="M538.36,-120.23C544.45,-133.99 558.41,-165.5 564.41,-179.07"/>
</g>
<!-- pollution -->
<g id="node1" class="node">
<title>pollution</title>
<ellipse fill="#fbbe23" stroke="white" stroke-width="0" cx="211.66" cy="-136.79" rx="32.5" ry="32.5"/>
<text text-anchor="middle" x="121.16" y="-112.17" font-family="Helvetica,sans-Serif" font-size="26.40" fill="#4d4d4d">pollution</text>
</g>
<!-- travail -->
<g id="node2" class="node">
<title>travail</title>
<ellipse fill="#932667" stroke="white" stroke-width="0" cx="262.08" cy="-119.77" rx="14.5" ry="14.5"/>
<text text-anchor="middle" x="277.58" y="-90.55" font-family="Helvetica,sans-Serif" font-size="18.40" fill="#4d4d4d">travail</text>
</g>
<!-- richesse -->
<g id="node3" class="node">
<title>richesse</title>
<ellipse fill="#5c126e" stroke="white" stroke-width="0" cx="287.15" cy="-189.76" rx="11" ry="11"/>
<text text-anchor="middle" x="241.15" y="-183.32" font-family="Helvetica,sans-Serif" font-size="16.80" fill="#4d4d4d">richesse</text>
</g>
<!-- destruction -->
<g id="node4" class="node">
<title>destruction</title>
<ellipse fill="#260c51" stroke="white" stroke-width="0" cx="158.68" cy="-211.3" rx="7" ry="7"/>
<text text-anchor="middle" x="108.18" y="-223.14" font-family="Helvetica,sans-Serif" font-size="15.20" fill="#4d4d4d">destruction</text>
</g>
<!-- argent -->
<g id="node5" class="node">
<title>argent</title>
<ellipse fill="#400a67" stroke="white" stroke-width="0" cx="320.44" cy="-69.21" rx="7" ry="7"/>
<text text-anchor="middle" x="288.44" y="-67.05" font-family="Helvetica,sans-Serif" font-size="15.20" fill="#4d4d4d">argent</text>
</g>
<!-- nickel -->
<g id="node6" class="node">
<title>nickel</title>
<ellipse fill="#fcffa4" stroke="white" stroke-width="0" cx="322.5" cy="-130.64" rx="36" ry="36"/>
<text text-anchor="middle" x="399.5" y="-103.24" font-family="Helvetica,sans-Serif" font-size="28.00" fill="#4d4d4d">nickel</text>
</g>
<!-- camion -->
<g id="node7" class="node">
<title>camion</title>
<ellipse fill="#61136e" stroke="white" stroke-width="0" cx="244.64" cy="-229.16" rx="11" ry="11"/>
<text text-anchor="middle" x="202.64" y="-244.72" font-family="Helvetica,sans-Serif" font-size="16.80" fill="#4d4d4d">camion</text>
</g>
<!-- économie -->
<g id="node8" class="node">
<title>économie</title>
<ellipse fill="#ce4347" stroke="white" stroke-width="0" cx="215.81" cy="-82.25" rx="21.5" ry="21.5"/>
<text text-anchor="middle" x="140.81" y="-67.47" font-family="Helvetica,sans-Serif" font-size="21.60" fill="#4d4d4d">économie</text>
</g>
<!-- environnement -->
<g id="node9" class="node">
<title>environnement</title>
<ellipse fill="#a62d60" stroke="white" stroke-width="0" cx="227.58" cy="-39.6" rx="18" ry="18"/>
<text text-anchor="middle" x="133.58" y="-27.6" font-family="Helvetica,sans-Serif" font-size="20.00" fill="#4d4d4d">environnement</text>
</g>
<!-- emploi -->
<g id="node10" class="node">
<title>emploi</title>
<ellipse fill="#a92e5e" stroke="white" stroke-width="0" cx="275.58" cy="-40" rx="18" ry="18"/>
<text text-anchor="middle" x="224.08" y="-6" font-family="Helvetica,sans-Serif" font-size="20.00" fill="#4d4d4d">emploi</text>
</g>
<!-- développement -->
<g id="node11" class="node">
<title>développement</title>
<ellipse fill="#000004" stroke="white" stroke-width="0" cx="113.03" cy="-100.46" rx="0.5" ry="0.5"/>
<text text-anchor="middle" x="65.53" y="-90.36" font-family="Helvetica,sans-Serif" font-size="12.00" fill="#4d4d4d">développement</text>
</g>
<!-- déforestation -->
<g id="node12" class="node">
<title>déforestation</title>
<ellipse fill="#050417" stroke="white" stroke-width="0" cx="93.5" cy="-183.52" rx="3.5" ry="3.5"/>
<text text-anchor="middle" x="45" y="-191.14" font-family="Helvetica,sans-Serif" font-size="13.60" fill="#4d4d4d">déforestation</text>
</g>
<!-- montagne -->
<g id="node13" class="node">
<title>montagne</title>
<ellipse fill="#2f0a5b" stroke="white" stroke-width="0" cx="416.96" cy="-195.97" rx="7" ry="7"/>
<text text-anchor="middle" x="370.96" y="-207.81" font-family="Helvetica,sans-Serif" font-size="15.20" fill="#4d4d4d">montagne</text>
</g>
<!-- usine -->
<g id="node14" class="node">
<title>usine</title>
<ellipse fill="#450a69" stroke="white" stroke-width="0" cx="408.89" cy="-42.61" rx="7" ry="7"/>
<text text-anchor="middle" x="380.89" y="-54.45" font-family="Helvetica,sans-Serif" font-size="15.20" fill="#4d4d4d">usine</text>
</g>
<!-- sln -->
<g id="node15" class="node">
<title>sln</title>
<ellipse fill="#2f0a5b" stroke="white" stroke-width="0" cx="360.17" cy="-254.81" rx="7" ry="7"/>
<text text-anchor="middle" x="341.67" y="-266.65" font-family="Helvetica,sans-Serif" font-size="15.20" fill="#4d4d4d">sln</text>
</g>
<!-- minerai -->
<g id="node16" class="node">
<title>minerai</title>
<ellipse fill="#450a69" stroke="white" stroke-width="0" cx="447.26" cy="-100.12" rx="7" ry="7"/>
<text text-anchor="middle" x="411.26" y="-80.96" font-family="Helvetica,sans-Serif" font-size="15.20" fill="#4d4d4d">minerai</text>
</g>
<!-- exploitation -->
<g id="node17" class="node">
<title>exploitation</title>
<ellipse fill="#4c0c6b" stroke="white" stroke-width="0" cx="535.42" cy="-113.59" rx="7" ry="7"/>
<text text-anchor="middle" x="573.92" y="-125.43" font-family="Helvetica,sans-Serif" font-size="15.20" fill="#4d4d4d">exploitation</text>
</g>
<!-- ressource -->
<g id="node18" class="node">
<title>ressource</title>
<ellipse fill="#380962" stroke="white" stroke-width="0" cx="567.25" cy="-185.48" rx="7" ry="7"/>
<text text-anchor="middle" x="523.25" y="-197.32" font-family="Helvetica,sans-Serif" font-size="15.20" fill="#4d4d4d">ressource</text>
</g>
</g>
</svg>
