<?xml version="1.0" encoding="UTF-8" standalone="no"?>
<!DOCTYPE svg PUBLIC "-//W3C//DTD SVG 1.1//EN"
 "http://www.w3.org/Graphics/SVG/1.1/DTD/svg11.dtd">
<!-- Generated by graphviz version 2.43.0 (0)
 -->
<!-- Pages: 1 -->
<svg width="720pt" height="254pt"
 viewBox="0.00 0.00 720.21 253.62" xmlns="http://www.w3.org/2000/svg" xmlns:xlink="http://www.w3.org/1999/xlink">
<g id="graph0" class="graph" transform="scale(1 1) rotate(0) translate(4 249.62)">
<polygon fill="white" stroke="transparent" points="-4,4 -4,-249.62 716.21,-249.62 716.21,4 -4,4"/>
<!-- emploi&#45;&#45;pollution -->
<g id="edge1" class="edge">
<title>emploi&#45;&#45;pollution</title>
<path fill="none" stroke="darkgrey" stroke-width="3.72" d="M211.03,-82.82C208.21,-98.35 203.68,-123.31 200.43,-141.18"/>
</g>
<!-- emploi&#45;&#45;impact environnemental -->
<g id="edge2" class="edge">
<title>emploi&#45;&#45;impact environnemental</title>
<path fill="none" stroke="darkgrey" stroke-width="3.31" d="M227.11,-74.74C244.36,-82.68 274.83,-96.69 298.36,-107.52"/>
</g>
<!-- emploi&#45;&#45;économie du pays -->
<g id="edge3" class="edge">
<title>emploi&#45;&#45;économie du pays</title>
<path fill="none" stroke="darkgrey" stroke-width="1.89" d="M221.78,-80.95C233.25,-98.41 253.46,-129.16 259.78,-138.78"/>
</g>
<!-- emploi&#45;&#45;amélioration environnementale -->
<g id="edge4" class="edge">
<title>emploi&#45;&#45;amélioration environnementale</title>
<path fill="none" stroke="darkgrey" stroke-width="1.82" d="M224.49,-58.51C236.77,-47.18 256.51,-28.97 267.65,-18.7"/>
</g>
<!-- pollution&#45;&#45;impact environnemental -->
<g id="edge6" class="edge">
<title>pollution&#45;&#45;impact environnemental</title>
<path fill="none" stroke="darkgrey" stroke-width="10" d="M217.29,-156.45C238.39,-150.19 271.47,-140.37 296.55,-132.92"/>
</g>
<!-- pollution&#45;&#45;économie du pays -->
<g id="edge7" class="edge">
<title>pollution&#45;&#45;économie du pays</title>
<path fill="none" stroke="darkgrey" stroke-width="1.49" d="M217.17,-156C231.79,-151.32 250.14,-145.45 257.94,-142.95"/>
</g>
<!-- pollution&#45;&#45;épuisement de la ressource -->
<g id="edge5" class="edge">
<title>pollution&#45;&#45;épuisement de la ressource</title>
<path fill="none" stroke="darkgrey" stroke-width="2.72" d="M211.78,-177.9C227.23,-193.4 249.96,-216.21 257.94,-224.21"/>
</g>
<!-- impact environnemental&#45;&#45;économie du pays -->
<g id="edge11" class="edge">
<title>impact environnemental&#45;&#45;économie du pays</title>
<path fill="none" stroke="darkgrey" stroke-width="2.6" d="M296.47,-132.19C283.98,-135.62 271.5,-139.05 265.46,-140.71"/>
</g>
<!-- impact environnemental&#45;&#45;amélioration environnementale -->
<g id="edge12" class="edge">
<title>impact environnemental&#45;&#45;amélioration environnementale</title>
<path fill="none" stroke="darkgrey" stroke-width="1.61" d="M315.24,-90.35C303.59,-66.78 288.54,-36.36 280.91,-20.93"/>
</g>
<!-- impact environnemental&#45;&#45;conflit -->
<g id="edge9" class="edge">
<title>impact environnemental&#45;&#45;conflit</title>
<path fill="none" stroke="darkgrey" stroke-width="2.35" d="M364.94,-109.65C397.55,-97.1 442.82,-79.68 448.36,-77.55"/>
</g>
<!-- impact environnemental&#45;&#45;développement -->
<g id="edge10" class="edge">
<title>impact environnemental&#45;&#45;développement</title>
<path fill="none" stroke="darkgrey" d="M365.59,-133.42C403.55,-145.34 461.27,-163.45 475.93,-168.05"/>
</g>
<!-- épuisement de la ressource&#45;&#45;impact environnemental -->
<g id="edge8" class="edge">
<title>épuisement de la ressource&#45;&#45;impact environnemental</title>
<path fill="none" stroke="darkgrey" stroke-width="3.2" d="M262.87,-224.11C269.86,-213.74 293.44,-178.72 310.96,-152.71"/>
</g>
<!-- emploi -->
<g id="node1" class="node">
<title>emploi</title>
<ellipse fill="#7d1e6d" stroke="white" stroke-width="0" cx="213.62" cy="-68.54" rx="14.5" ry="14.5"/>
<text text-anchor="middle" x="167.12" y="-88.32" font-family="Helvetica,sans-Serif" font-size="18.40" fill="#4d4d4d">emploi</text>
</g>
<!-- pollution -->
<g id="node2" class="node">
<title>pollution</title>
<ellipse fill="#d94d3d" stroke="white" stroke-width="0" cx="196.54" cy="-162.61" rx="21.5" ry="21.5"/>
<text text-anchor="middle" x="128.04" y="-190.83" font-family="Helvetica,sans-Serif" font-size="21.60" fill="#4d4d4d">pollution</text>
</g>
<!-- impact environnemental -->
<g id="node3" class="node">
<title>impact environnemental</title>
<ellipse fill="#fcffa4" stroke="white" stroke-width="0" cx="331.21" cy="-122.64" rx="36" ry="36"/>
<text text-anchor="middle" x="539.71" y="-95.24" font-family="Helvetica,sans-Serif" font-size="28.00" fill="#4d4d4d">impact environnemental</text>
</g>
<!-- économie du pays -->
<g id="node4" class="node">
<title>économie du pays</title>
<ellipse fill="#0e092b" stroke="white" stroke-width="0" cx="261.73" cy="-141.74" rx="3.5" ry="3.5"/>
<text text-anchor="middle" x="195.73" y="-127.36" font-family="Helvetica,sans-Serif" font-size="13.60" fill="#4d4d4d">économie du pays</text>
</g>
<!-- amélioration environnementale -->
<g id="node5" class="node">
<title>amélioration environnementale</title>
<ellipse fill="#751b6e" stroke="white" stroke-width="0" cx="276" cy="-11" rx="11" ry="11"/>
<text text-anchor="middle" x="132.5" y="-26.56" font-family="Helvetica,sans-Serif" font-size="16.80" fill="#4d4d4d">amélioration environnementale</text>
</g>
<!-- épuisement de la ressource -->
<g id="node6" class="node">
<title>épuisement de la ressource</title>
<ellipse fill="#140b34" stroke="white" stroke-width="0" cx="260.84" cy="-227.12" rx="3.5" ry="3.5"/>
<text text-anchor="middle" x="163.84" y="-234.74" font-family="Helvetica,sans-Serif" font-size="13.60" fill="#4d4d4d">épuisement de la ressource</text>
</g>
<!-- conflit -->
<g id="node7" class="node">
<title>conflit</title>
<ellipse fill="#000004" stroke="white" stroke-width="0" cx="448.92" cy="-77.33" rx="0.5" ry="0.5"/>
<text text-anchor="middle" x="429.92" y="-67.23" font-family="Helvetica,sans-Serif" font-size="12.00" fill="#4d4d4d">conflit</text>
</g>
<!-- développement -->
<g id="node8" class="node">
<title>développement</title>
<ellipse fill="#0a0722" stroke="white" stroke-width="0" cx="479.41" cy="-169.14" rx="3.5" ry="3.5"/>
<text text-anchor="middle" x="421.91" y="-176.76" font-family="Helvetica,sans-Serif" font-size="13.60" fill="#4d4d4d">développement</text>
</g>
</g>
</svg>
