<?xml version="1.0" encoding="UTF-8" standalone="no"?>
<!DOCTYPE svg PUBLIC "-//W3C//DTD SVG 1.1//EN"
 "http://www.w3.org/Graphics/SVG/1.1/DTD/svg11.dtd">
<!-- Generated by graphviz version 2.43.0 (0)
 -->
<!-- Pages: 1 -->
<svg width="844pt" height="315pt"
 viewBox="0.00 0.00 844.10 315.36" xmlns="http://www.w3.org/2000/svg" xmlns:xlink="http://www.w3.org/1999/xlink">
<g id="graph0" class="graph" transform="scale(1 1) rotate(0) translate(4 311.36)">
<polygon fill="white" stroke="transparent" points="-4,4 -4,-311.36 840.1,-311.36 840.1,4 -4,4"/>
<!-- fin&#45;&#45;pollution -->
<g id="edge1" class="edge">
<title>fin&#45;&#45;pollution</title>
<path fill="none" stroke="darkgrey" stroke-width="1.28" d="M361.17,-250.76C351.67,-234.5 332.5,-201.65 319.69,-179.73"/>
</g>
<!-- fin&#45;&#45;épuisement de la ressource -->
<g id="edge2" class="edge">
<title>fin&#45;&#45;épuisement de la ressource</title>
<path fill="none" stroke="darkgrey" stroke-width="1.24" d="M375.78,-253.81C385.66,-246.24 401.57,-234.06 411.53,-226.43"/>
</g>
<!-- fin&#45;&#45;impact environnemental -->
<g id="edge3" class="edge">
<title>fin&#45;&#45;impact environnemental</title>
<path fill="none" stroke="darkgrey" stroke-width="1.71" d="M374.13,-252.23C386.47,-237.93 412.15,-208.16 431.3,-185.96"/>
</g>
<!-- pollution&#45;&#45;épuisement de la ressource -->
<g id="edge8" class="edge">
<title>pollution&#45;&#45;épuisement de la ressource</title>
<path fill="none" stroke="darkgrey" stroke-width="3.48" d="M329.15,-169.97C353.82,-183.33 392.57,-204.32 410.66,-214.12"/>
</g>
<!-- pollution&#45;&#45;impact environnemental -->
<g id="edge11" class="edge">
<title>pollution&#45;&#45;impact environnemental</title>
<path fill="none" stroke="darkgrey" stroke-width="10" d="M332.11,-158.02C355.96,-158.09 392.07,-158.19 419.01,-158.26"/>
</g>
<!-- pollution&#45;&#45;économie du pays -->
<g id="edge13" class="edge">
<title>pollution&#45;&#45;économie du pays</title>
<path fill="none" stroke="darkgrey" stroke-width="2.37" d="M330.1,-148.32C354.49,-138.15 391.81,-122.6 409.68,-115.15"/>
</g>
<!-- pollution&#45;&#45;amélioration environnementale -->
<g id="edge14" class="edge">
<title>pollution&#45;&#45;amélioration environnementale</title>
<path fill="none" stroke="darkgrey" stroke-width="1.58" d="M313.59,-133.69C317.01,-121.12 321.11,-106.07 324.22,-94.64"/>
</g>
<!-- pollution&#45;&#45;montagne -->
<g id="edge9" class="edge">
<title>pollution&#45;&#45;montagne</title>
<path fill="none" stroke="darkgrey" stroke-width="1.04" d="M297.39,-181.32C282.19,-218.35 253.99,-287.03 251.38,-293.39"/>
</g>
<!-- pollution&#45;&#45;biodiversité -->
<g id="edge10" class="edge">
<title>pollution&#45;&#45;biodiversité</title>
<path fill="none" stroke="darkgrey" stroke-width="1.29" d="M284.28,-169.15C248.94,-186.6 183.16,-219.06 167.26,-226.91"/>
</g>
<!-- pollution&#45;&#45;développement -->
<g id="edge12" class="edge">
<title>pollution&#45;&#45;développement</title>
<path fill="none" stroke="darkgrey" stroke-width="1.2" d="M332.19,-157.8C342.67,-157.74 354.28,-157.67 362.55,-157.62"/>
</g>
<!-- pollution&#45;&#45;déclin -->
<g id="edge15" class="edge">
<title>pollution&#45;&#45;déclin</title>
<path fill="none" stroke="darkgrey" d="M281.88,-160.39C256.48,-162.85 219.38,-166.45 207.89,-167.56"/>
</g>
<!-- pollution&#45;&#45;développement durable -->
<g id="edge16" class="edge">
<title>pollution&#45;&#45;développement durable</title>
<path fill="none" stroke="darkgrey" stroke-width="1.14" d="M288.49,-140.48C268.92,-121.98 239.21,-93.91 227.15,-82.51"/>
</g>
<!-- pollution&#45;&#45;innovation -->
<g id="edge17" class="edge">
<title>pollution&#45;&#45;innovation</title>
<path fill="none" stroke="darkgrey" stroke-width="1.05" d="M300.65,-133.69C292.18,-101.24 277.53,-45.1 271.42,-21.71"/>
</g>
<!-- épuisement de la ressource&#45;&#45;impact environnemental -->
<g id="edge18" class="edge">
<title>épuisement de la ressource&#45;&#45;impact environnemental</title>
<path fill="none" stroke="darkgrey" stroke-width="3.91" d="M426.13,-209.67C429.22,-204.21 433.25,-197.06 437.32,-189.85"/>
</g>
<!-- épuisement de la ressource&#45;&#45;économie du pays -->
<g id="edge21" class="edge">
<title>épuisement de la ressource&#45;&#45;économie du pays</title>
<path fill="none" stroke="darkgrey" stroke-width="1.27" d="M420.51,-208.28C420.38,-187.47 420.1,-143.1 419.97,-122.21"/>
</g>
<!-- épuisement de la ressource&#45;&#45;développement -->
<g id="edge20" class="edge">
<title>épuisement de la ressource&#45;&#45;développement</title>
<path fill="none" stroke="darkgrey" stroke-width="1.02" d="M413.86,-210.62C404.94,-198.85 389.29,-178.18 380.38,-166.41"/>
</g>
<!-- épuisement de la ressource&#45;&#45;conflit -->
<g id="edge19" class="edge">
<title>épuisement de la ressource&#45;&#45;conflit</title>
<path fill="none" stroke="darkgrey" stroke-width="1.54" d="M429.52,-226.22C445.11,-237.94 476.87,-261.81 490.01,-271.7"/>
</g>
<!-- impact environnemental&#45;&#45;économie du pays -->
<g id="edge24" class="edge">
<title>impact environnemental&#45;&#45;économie du pays</title>
<path fill="none" stroke="darkgrey" stroke-width="3.37" d="M433.61,-129.38C431.09,-125.99 428.68,-122.74 426.61,-119.94"/>
</g>
<!-- impact environnemental&#45;&#45;amélioration environnementale -->
<g id="edge25" class="edge">
<title>impact environnemental&#45;&#45;amélioration environnementale</title>
<path fill="none" stroke="darkgrey" stroke-width="2.48" d="M424.58,-138.69C399.21,-122.33 364.17,-99.75 344.33,-86.95"/>
</g>
<!-- impact environnemental&#45;&#45;développement -->
<g id="edge23" class="edge">
<title>impact environnemental&#45;&#45;développement</title>
<path fill="none" stroke="darkgrey" stroke-width="1.93" d="M418.67,-158C406.48,-157.88 393.76,-157.75 384.97,-157.66"/>
</g>
<!-- impact environnemental&#45;&#45;conflit -->
<g id="edge22" class="edge">
<title>impact environnemental&#45;&#45;conflit</title>
<path fill="none" stroke="darkgrey" stroke-width="3.14" d="M466.91,-192.43C476.23,-219.33 488.49,-254.69 493.56,-269.34"/>
</g>
<!-- impact environnemental&#45;&#45;richesse -->
<g id="edge26" class="edge">
<title>impact environnemental&#45;&#45;richesse</title>
<path fill="none" stroke="darkgrey" stroke-width="1.49" d="M483.24,-135.37C512.11,-111.77 553.5,-77.94 558.56,-73.8"/>
</g>
<!-- impact environnemental&#45;&#45;automatisation -->
<g id="edge27" class="edge">
<title>impact environnemental&#45;&#45;automatisation</title>
<path fill="none" stroke="darkgrey" stroke-width="1.08" d="M490.47,-165.33C525.79,-172.29 576.74,-182.32 590.38,-185.01"/>
</g>
<!-- emploi&#45;&#45;pollution -->
<g id="edge4" class="edge">
<title>emploi&#45;&#45;pollution</title>
<path fill="none" stroke="darkgrey" stroke-width="4.37" d="M387.74,-62.4C371.41,-81.72 341.74,-116.84 323.26,-138.69"/>
</g>
<!-- emploi&#45;&#45;impact environnemental -->
<g id="edge5" class="edge">
<title>emploi&#45;&#45;impact environnemental</title>
<path fill="none" stroke="darkgrey" stroke-width="4.01" d="M407.67,-64.75C415.83,-80.86 428.58,-106.01 438.8,-126.19"/>
</g>
<!-- emploi&#45;&#45;économie du pays -->
<g id="edge6" class="edge">
<title>emploi&#45;&#45;économie du pays</title>
<path fill="none" stroke="darkgrey" stroke-width="2.73" d="M405.15,-65.91C408.74,-76.87 413.27,-90.67 416.35,-100.08"/>
</g>
<!-- emploi&#45;&#45;amélioration environnementale -->
<g id="edge7" class="edge">
<title>emploi&#45;&#45;amélioration environnementale</title>
<path fill="none" stroke="darkgrey" stroke-width="2.67" d="M382.76,-55.31C371.69,-59.79 357.21,-65.65 346.07,-70.16"/>
</g>
<!-- amélioration environnementale&#45;&#45;développement durable -->
<g id="edge30" class="edge">
<title>amélioration environnementale&#45;&#45;développement durable</title>
<path fill="none" stroke="darkgrey" stroke-width="1.19" d="M310.81,-77.13C286.91,-77.21 246.01,-77.35 229.26,-77.41"/>
</g>
<!-- amélioration environnementale&#45;&#45;innovation -->
<g id="edge31" class="edge">
<title>amélioration environnementale&#45;&#45;innovation</title>
<path fill="none" stroke="darkgrey" stroke-width="1.04" d="M316.78,-63.7C304.65,-50.43 286.44,-30.5 276.24,-19.33"/>
</g>
<!-- développement&#45;&#45;économie du pays -->
<g id="edge28" class="edge">
<title>développement&#45;&#45;économie du pays</title>
<path fill="none" stroke="darkgrey" stroke-width="1.4" d="M381.72,-149.42C390.21,-140.86 403.49,-127.46 411.94,-118.93"/>
</g>
<!-- développement&#45;&#45;amélioration environnementale -->
<g id="edge29" class="edge">
<title>développement&#45;&#45;amélioration environnementale</title>
<path fill="none" stroke="darkgrey" stroke-width="1.07" d="M368.19,-147.68C360.6,-134 346.79,-109.11 337.75,-92.84"/>
</g>
<!-- fin -->
<g id="node1" class="node">
<title>fin</title>
<ellipse fill="#741a6e" stroke="white" stroke-width="0" cx="366.91" cy="-260.6" rx="11" ry="11"/>
<text text-anchor="middle" x="344.91" y="-276.16" font-family="Helvetica,sans-Serif" font-size="16.80" fill="#4d4d4d">fin</text>
</g>
<!-- pollution -->
<g id="node2" class="node">
<title>pollution</title>
<ellipse fill="#ef6c23" stroke="white" stroke-width="0" cx="306.98" cy="-157.95" rx="25" ry="25"/>
<text text-anchor="middle" x="230.48" y="-190.39" font-family="Helvetica,sans-Serif" font-size="23.20" fill="#4d4d4d">pollution</text>
</g>
<!-- épuisement de la ressource -->
<g id="node3" class="node">
<title>épuisement de la ressource</title>
<ellipse fill="#62146e" stroke="white" stroke-width="0" cx="420.58" cy="-219.5" rx="11" ry="11"/>
<text text-anchor="middle" x="292.08" y="-235.06" font-family="Helvetica,sans-Serif" font-size="16.80" fill="#4d4d4d">épuisement de la ressource</text>
</g>
<!-- impact environnemental -->
<g id="node4" class="node">
<title>impact environnemental</title>
<ellipse fill="#fcffa4" stroke="white" stroke-width="0" cx="455.1" cy="-158.36" rx="36" ry="36"/>
<text text-anchor="middle" x="663.6" y="-202.96" font-family="Helvetica,sans-Serif" font-size="28.00" fill="#4d4d4d">impact environnemental</text>
</g>
<!-- emploi -->
<g id="node5" class="node">
<title>emploi</title>
<ellipse fill="#b3325a" stroke="white" stroke-width="0" cx="399.46" cy="-48.55" rx="18" ry="18"/>
<text text-anchor="middle" x="347.96" y="-36.55" font-family="Helvetica,sans-Serif" font-size="20.00" fill="#4d4d4d">emploi</text>
</g>
<!-- économie du pays -->
<g id="node6" class="node">
<title>économie du pays</title>
<ellipse fill="#5d126e" stroke="white" stroke-width="0" cx="419.9" cy="-110.89" rx="11" ry="11"/>
<text text-anchor="middle" x="331.9" y="-104.45" font-family="Helvetica,sans-Serif" font-size="16.80" fill="#4d4d4d">économie du pays</text>
</g>
<!-- amélioration environnementale -->
<g id="node7" class="node">
<title>amélioration environnementale</title>
<ellipse fill="#ae305c" stroke="white" stroke-width="0" cx="329" cy="-77.07" rx="18" ry="18"/>
<text text-anchor="middle" x="155.5" y="-43.07" font-family="Helvetica,sans-Serif" font-size="20.00" fill="#4d4d4d">amélioration environnementale</text>
</g>
<!-- montagne -->
<g id="node8" class="node">
<title>montagne</title>
<ellipse fill="#010106" stroke="white" stroke-width="0" cx="251.19" cy="-293.86" rx="0.5" ry="0.5"/>
<text text-anchor="middle" x="219.69" y="-297.76" font-family="Helvetica,sans-Serif" font-size="12.00" fill="#4d4d4d">montagne</text>
</g>
<!-- biodiversité -->
<g id="node9" class="node">
<title>biodiversité</title>
<ellipse fill="#0b0724" stroke="white" stroke-width="0" cx="163.74" cy="-228.65" rx="3.5" ry="3.5"/>
<text text-anchor="middle" x="120.24" y="-236.27" font-family="Helvetica,sans-Serif" font-size="13.60" fill="#4d4d4d">biodiversité</text>
</g>
<!-- développement -->
<g id="node10" class="node">
<title>développement</title>
<ellipse fill="#59106e" stroke="white" stroke-width="0" cx="373.67" cy="-157.55" rx="11" ry="11"/>
<text text-anchor="middle" x="296.17" y="-133.11" font-family="Helvetica,sans-Serif" font-size="16.80" fill="#4d4d4d">développement</text>
</g>
<!-- déclin -->
<g id="node11" class="node">
<title>déclin</title>
<ellipse fill="#0e092b" stroke="white" stroke-width="0" cx="204.36" cy="-167.91" rx="3.5" ry="3.5"/>
<text text-anchor="middle" x="180.36" y="-168.53" font-family="Helvetica,sans-Serif" font-size="13.60" fill="#4d4d4d">déclin</text>
</g>
<!-- développement durable -->
<g id="node12" class="node">
<title>développement durable</title>
<ellipse fill="#470b6a" stroke="white" stroke-width="0" cx="221.78" cy="-77.43" rx="7" ry="7"/>
<text text-anchor="middle" x="124.28" y="-89.27" font-family="Helvetica,sans-Serif" font-size="15.20" fill="#4d4d4d">développement durable</text>
</g>
<!-- innovation -->
<g id="node13" class="node">
<title>innovation</title>
<ellipse fill="#64156e" stroke="white" stroke-width="0" cx="268.62" cy="-11" rx="11" ry="11"/>
<text text-anchor="middle" x="213.12" y="-4.56" font-family="Helvetica,sans-Serif" font-size="16.80" fill="#4d4d4d">innovation</text>
</g>
<!-- conflit -->
<g id="node14" class="node">
<title>conflit</title>
<ellipse fill="#450a69" stroke="white" stroke-width="0" cx="495.92" cy="-276.14" rx="7" ry="7"/>
<text text-anchor="middle" x="464.92" y="-287.98" font-family="Helvetica,sans-Serif" font-size="15.20" fill="#4d4d4d">conflit</text>
</g>
<!-- richesse -->
<g id="node15" class="node">
<title>richesse</title>
<ellipse fill="#000004" stroke="white" stroke-width="0" cx="559.08" cy="-73.38" rx="0.5" ry="0.5"/>
<text text-anchor="middle" x="533.58" y="-77.28" font-family="Helvetica,sans-Serif" font-size="12.00" fill="#4d4d4d">richesse</text>
</g>
<!-- automatisation -->
<g id="node16" class="node">
<title>automatisation</title>
<ellipse fill="#0d0829" stroke="white" stroke-width="0" cx="593.84" cy="-185.69" rx="3.5" ry="3.5"/>
<text text-anchor="middle" x="641.34" y="-171.31" font-family="Helvetica,sans-Serif" font-size="13.60" fill="#4d4d4d">automatisation</text>
</g>
</g>
</svg>
