<?xml version="1.0" encoding="UTF-8" standalone="no"?>
<!DOCTYPE svg PUBLIC "-//W3C//DTD SVG 1.1//EN"
 "http://www.w3.org/Graphics/SVG/1.1/DTD/svg11.dtd">
<!-- Generated by graphviz version 2.43.0 (0)
 -->
<!-- Pages: 1 -->
<svg width="915pt" height="474pt"
 viewBox="0.00 0.00 915.13 474.04" xmlns="http://www.w3.org/2000/svg" xmlns:xlink="http://www.w3.org/1999/xlink">
<g id="graph0" class="graph" transform="scale(1 1) rotate(0) translate(4 470.04)">
<polygon fill="white" stroke="transparent" points="-4,4 -4,-470.04 911.13,-470.04 911.13,4 -4,4"/>
<!-- avenir sans nickel&#45;&#45;travail -->
<g id="edge1" class="edge">
<title>avenir sans nickel&#45;&#45;travail</title>
<path fill="none" stroke="darkgrey" stroke-width="2.25" d="M509,-222.88C526.24,-223.39 548.53,-224.03 562.94,-224.45"/>
</g>
<!-- avenir sans nickel&#45;&#45;politique -->
<g id="edge2" class="edge">
<title>avenir sans nickel&#45;&#45;politique</title>
<path fill="none" stroke="darkgrey" stroke-width="2.62" d="M491.6,-198.34C505.11,-156.68 532.7,-71.58 544.51,-35.16"/>
</g>
<!-- avenir sans nickel&#45;&#45;secteur nickel -->
<g id="edge3" class="edge">
<title>avenir sans nickel&#45;&#45;secteur nickel</title>
<path fill="none" stroke="darkgrey" stroke-width="1.87" d="M508.68,-217.83C546.32,-211.27 616.97,-198.95 649.95,-193.2"/>
</g>
<!-- avenir sans nickel&#45;&#45;avenir avec nickel -->
<g id="edge4" class="edge">
<title>avenir sans nickel&#45;&#45;avenir avec nickel</title>
<path fill="none" stroke="darkgrey" stroke-width="2.37" d="M481.36,-247.14C476.01,-300.32 463.78,-421.7 461.53,-443.99"/>
</g>
<!-- avenir sans nickel&#45;&#45;pollution -->
<g id="edge5" class="edge">
<title>avenir sans nickel&#45;&#45;pollution</title>
<path fill="none" stroke="darkgrey" stroke-width="4.26" d="M500.75,-203.56C520.47,-181.81 552.79,-146.19 571.46,-125.6"/>
</g>
<!-- avenir sans nickel&#45;&#45;ressource minière -->
<g id="edge6" class="edge">
<title>avenir sans nickel&#45;&#45;ressource minière</title>
<path fill="none" stroke="darkgrey" stroke-width="5.26" d="M507.47,-213.51C553.95,-196.48 656.65,-158.84 700.44,-142.79"/>
</g>
<!-- avenir sans nickel&#45;&#45;dégradation environnementale -->
<g id="edge7" class="edge">
<title>avenir sans nickel&#45;&#45;dégradation environnementale</title>
<path fill="none" stroke="darkgrey" stroke-width="4.79" d="M479.12,-246.86C479.04,-247.26 478.96,-247.67 478.88,-248.07"/>
</g>
<!-- avenir sans nickel&#45;&#45;société néo&#45;calédonienne -->
<g id="edge8" class="edge">
<title>avenir sans nickel&#45;&#45;société néo&#45;calédonienne</title>
<path fill="none" stroke="darkgrey" stroke-width="1.91" d="M458.62,-221.23C422.92,-219.93 359.19,-217.6 333.45,-216.66"/>
</g>
<!-- avenir sans nickel&#45;&#45;alternative au développement -->
<g id="edge9" class="edge">
<title>avenir sans nickel&#45;&#45;alternative au développement</title>
<path fill="none" stroke="darkgrey" stroke-width="3.31" d="M504.27,-237.15C523.33,-251.16 551.62,-271.96 570.65,-285.95"/>
</g>
<!-- avenir sans nickel&#45;&#45;économie -->
<g id="edge10" class="edge">
<title>avenir sans nickel&#45;&#45;économie</title>
<path fill="none" stroke="darkgrey" stroke-width="1.38" d="M473.44,-198.99C467.62,-186.1 460.59,-170.51 455.7,-159.66"/>
</g>
<!-- avenir sans nickel&#45;&#45;amélioration environnementale -->
<g id="edge11" class="edge">
<title>avenir sans nickel&#45;&#45;amélioration environnementale</title>
<path fill="none" stroke="darkgrey" stroke-width="1.32" d="M494.61,-245.25C518.15,-295.91 573.31,-414.61 586.73,-443.49"/>
</g>
<!-- travail&#45;&#45;politique -->
<g id="edge12" class="edge">
<title>travail&#45;&#45;politique</title>
<path fill="none" stroke="darkgrey" stroke-width="2.57" d="M575.67,-210.33C570.76,-173.45 557.84,-76.36 552.47,-36"/>
</g>
<!-- travail&#45;&#45;secteur nickel -->
<g id="edge13" class="edge">
<title>travail&#45;&#45;secteur nickel</title>
<path fill="none" stroke="darkgrey" stroke-width="2.48" d="M591.29,-219.59C607.25,-213.44 633.63,-203.26 650.84,-196.62"/>
</g>
<!-- travail&#45;&#45;pollution -->
<g id="edge14" class="edge">
<title>travail&#45;&#45;pollution</title>
<path fill="none" stroke="darkgrey" stroke-width="4.09" d="M578.67,-210.27C580.13,-190.26 582.77,-154.2 584.46,-131.08"/>
</g>
<!-- travail&#45;&#45;ressource minière -->
<g id="edge15" class="edge">
<title>travail&#45;&#45;ressource minière</title>
<path fill="none" stroke="darkgrey" stroke-width="1.71" d="M590.32,-216.93C615.79,-201 673.17,-165.13 702.64,-146.7"/>
</g>
<!-- travail&#45;&#45;dégradation environnementale -->
<g id="edge16" class="edge">
<title>travail&#45;&#45;dégradation environnementale</title>
<path fill="none" stroke="darkgrey" stroke-width="5.34" d="M564.65,-232.1C549.56,-240.51 524.09,-254.72 503.67,-266.11"/>
</g>
<!-- travail&#45;&#45;société néo&#45;calédonienne -->
<g id="edge17" class="edge">
<title>travail&#45;&#45;société néo&#45;calédonienne</title>
<path fill="none" stroke="darkgrey" stroke-width="2.47" d="M562.77,-224.37C516.35,-222.81 374.54,-218.02 333.47,-216.63"/>
</g>
<!-- travail&#45;&#45;alternative au développement -->
<g id="edge18" class="edge">
<title>travail&#45;&#45;alternative au développement</title>
<path fill="none" stroke="darkgrey" stroke-width="2.72" d="M580.12,-239.17C581.94,-249.58 584.47,-263.94 586.62,-276.19"/>
</g>
<!-- travail&#45;&#45;économie -->
<g id="edge19" class="edge">
<title>travail&#45;&#45;économie</title>
<path fill="none" stroke="darkgrey" stroke-width="2.95" d="M564.87,-217.06C540.35,-202 486.84,-169.15 462.37,-154.12"/>
</g>
<!-- travail&#45;&#45;amélioration environnementale -->
<g id="edge20" class="edge">
<title>travail&#45;&#45;amélioration environnementale</title>
<path fill="none" stroke="darkgrey" stroke-width="1.69" d="M578.4,-239.64C580.74,-283.25 587.59,-410.44 589.31,-442.5"/>
</g>
<!-- travail&#45;&#45;essor technologique -->
<g id="edge21" class="edge">
<title>travail&#45;&#45;essor technologique</title>
<path fill="none" stroke="darkgrey" stroke-width="2.13" d="M589.51,-233.2C618.3,-253.31 691.42,-304.41 720.47,-324.71"/>
</g>
<!-- politique&#45;&#45;secteur nickel -->
<g id="edge22" class="edge">
<title>politique&#45;&#45;secteur nickel</title>
<path fill="none" stroke="darkgrey" stroke-width="2.83" d="M560.31,-32.97C582.56,-65.52 635.14,-142.41 657.45,-175.04"/>
</g>
<!-- politique&#45;&#45;pollution -->
<g id="edge23" class="edge">
<title>politique&#45;&#45;pollution</title>
<path fill="none" stroke="darkgrey" stroke-width="2.23" d="M556.67,-34.79C562.71,-50.17 571.67,-72.96 578.1,-89.33"/>
</g>
<!-- politique&#45;&#45;ressource minière -->
<g id="edge24" class="edge">
<title>politique&#45;&#45;ressource minière</title>
<path fill="none" stroke="darkgrey" stroke-width="3.12" d="M564.93,-28.2C596.34,-49.78 669.36,-99.93 703.14,-123.13"/>
</g>
<!-- politique&#45;&#45;dégradation environnementale -->
<g id="edge25" class="edge">
<title>politique&#45;&#45;dégradation environnementale</title>
<path fill="none" stroke="darkgrey" stroke-width="3.8" d="M544.95,-35.44C532.26,-78.63 499.19,-191.22 482.28,-248.78"/>
</g>
<!-- politique&#45;&#45;alternative au développement -->
<g id="edge26" class="edge">
<title>politique&#45;&#45;alternative au développement</title>
<path fill="none" stroke="darkgrey" stroke-width="2" d="M552.7,-36.13C559.76,-85.03 579.23,-219.74 587.34,-275.85"/>
</g>
<!-- politique&#45;&#45;économie -->
<g id="edge27" class="edge">
<title>politique&#45;&#45;économie</title>
<path fill="none" stroke="darkgrey" stroke-width="2.88" d="M538.95,-32.22C518.94,-57.8 477.24,-111.1 458.8,-134.68"/>
</g>
<!-- secteur nickel&#45;&#45;pollution -->
<g id="edge28" class="edge">
<title>secteur nickel&#45;&#45;pollution</title>
<path fill="none" stroke="darkgrey" stroke-width="2.69" d="M654.62,-177.15C640.09,-162.83 616.71,-139.78 601.36,-124.64"/>
</g>
<!-- secteur nickel&#45;&#45;ressource minière -->
<g id="edge29" class="edge">
<title>secteur nickel&#45;&#45;ressource minière</title>
<path fill="none" stroke="darkgrey" stroke-width="1.41" d="M680.33,-177.11C687.94,-169.27 697.69,-159.21 705.72,-150.93"/>
</g>
<!-- secteur nickel&#45;&#45;dégradation environnementale -->
<g id="edge30" class="edge">
<title>secteur nickel&#45;&#45;dégradation environnementale</title>
<path fill="none" stroke="darkgrey" stroke-width="2.42" d="M651.39,-197.92C619.14,-213.36 546.8,-247.97 504.49,-268.22"/>
</g>
<!-- secteur nickel&#45;&#45;alternative au développement -->
<g id="edge31" class="edge">
<title>secteur nickel&#45;&#45;alternative au développement</title>
<path fill="none" stroke="darkgrey" stroke-width="4.28" d="M657.39,-205.04C643.96,-224.41 620.48,-258.3 605.33,-280.16"/>
</g>
<!-- secteur nickel&#45;&#45;économie -->
<g id="edge32" class="edge">
<title>secteur nickel&#45;&#45;économie</title>
<path fill="none" stroke="darkgrey" stroke-width="1.41" d="M649.9,-186.52C607.69,-178.04 502.37,-156.9 463.98,-149.2"/>
</g>
<!-- secteur nickel&#45;&#45;amélioration environnementale -->
<g id="edge33" class="edge">
<title>secteur nickel&#45;&#45;amélioration environnementale</title>
<path fill="none" stroke="darkgrey" stroke-width="2.09" d="M662.5,-207.55C647.06,-258.98 602.15,-408.49 591.84,-442.82"/>
</g>
<!-- avenir avec nickel&#45;&#45;dégradation environnementale -->
<g id="edge34" class="edge">
<title>avenir avec nickel&#45;&#45;dégradation environnementale</title>
<path fill="none" stroke="darkgrey" stroke-width="1.73" d="M461.42,-443.81C462.49,-427.58 466.83,-361.98 469.61,-319.97"/>
</g>
<!-- avenir avec nickel&#45;&#45;alternative au développement -->
<g id="edge35" class="edge">
<title>avenir avec nickel&#45;&#45;alternative au développement</title>
<path fill="none" stroke="darkgrey" stroke-width="1.15" d="M463.65,-444.74C477.21,-429.42 543.01,-355.07 574.33,-319.69"/>
</g>
<!-- avenir avec nickel&#45;&#45;économie -->
<g id="edge36" class="edge">
<title>avenir avec nickel&#45;&#45;économie</title>
<path fill="none" stroke="darkgrey" stroke-width="1.44" d="M461.03,-443.73C459.89,-413.84 452.36,-216.56 450.24,-160.92"/>
</g>
<!-- avenir avec nickel&#45;&#45;amélioration environnementale -->
<g id="edge37" class="edge">
<title>avenir avec nickel&#45;&#45;amélioration environnementale</title>
<path fill="none" stroke="darkgrey" stroke-width="2.1" d="M464.88,-447.61C482.58,-447.94 558.6,-449.34 582.49,-449.78"/>
</g>
<!-- avenir avec nickel&#45;&#45;essor technologique -->
<g id="edge38" class="edge">
<title>avenir avec nickel&#45;&#45;essor technologique</title>
<path fill="none" stroke="darkgrey" stroke-width="1.28" d="M464.61,-446.1C491.49,-434.77 668.52,-360.21 719.14,-338.89"/>
</g>
<!-- pollution&#45;&#45;ressource minière -->
<g id="edge39" class="edge">
<title>pollution&#45;&#45;ressource minière</title>
<path fill="none" stroke="darkgrey" stroke-width="3.73" d="M607.4,-113.61C632.65,-118.44 674.4,-126.42 699.61,-131.24"/>
</g>
<!-- pollution&#45;&#45;dégradation environnementale -->
<g id="edge40" class="edge">
<title>pollution&#45;&#45;dégradation environnementale</title>
<path fill="none" stroke="darkgrey" stroke-width="10" d="M574.27,-127.52C554.8,-157.25 515.71,-216.98 491.9,-253.36"/>
</g>
<!-- pollution&#45;&#45;société néo&#45;calédonienne -->
<g id="edge42" class="edge">
<title>pollution&#45;&#45;société néo&#45;calédonienne</title>
<path fill="none" stroke="darkgrey" stroke-width="2.18" d="M565.78,-117.72C512.8,-139.15 371.61,-196.27 332.42,-212.12"/>
</g>
<!-- pollution&#45;&#45;alternative au développement -->
<g id="edge43" class="edge">
<title>pollution&#45;&#45;alternative au développement</title>
<path fill="none" stroke="darkgrey" stroke-width="3.72" d="M586.6,-131.11C587.51,-166.79 589.34,-237.88 590.32,-275.76"/>
</g>
<!-- pollution&#45;&#45;économie -->
<g id="edge44" class="edge">
<title>pollution&#45;&#45;économie</title>
<path fill="none" stroke="darkgrey" stroke-width="3.49" d="M565.03,-115.2C536.94,-122.78 487.9,-136.01 463.83,-142.51"/>
</g>
<!-- pollution&#45;&#45;essor technologique -->
<g id="edge45" class="edge">
<title>pollution&#45;&#45;essor technologique</title>
<path fill="none" stroke="darkgrey" stroke-width="1.72" d="M598.04,-127.83C627.03,-172.07 700.3,-283.88 724.64,-321.01"/>
</g>
<!-- pollution&#45;&#45;nature -->
<g id="edge41" class="edge">
<title>pollution&#45;&#45;nature</title>
<path fill="none" stroke="darkgrey" stroke-width="1.61" d="M568.04,-97.37C541.2,-79.25 492.48,-46.35 480.01,-37.93"/>
</g>
<!-- ressource minière&#45;&#45;dégradation environnementale -->
<g id="edge46" class="edge">
<title>ressource minière&#45;&#45;dégradation environnementale</title>
<path fill="none" stroke="darkgrey" stroke-width="6.02" d="M702.17,-146.46C659.66,-171.82 555.46,-233.98 503.09,-265.22"/>
</g>
<!-- ressource minière&#45;&#45;alternative au développement -->
<g id="edge47" class="edge">
<title>ressource minière&#45;&#45;alternative au développement</title>
<path fill="none" stroke="darkgrey" stroke-width="3.82" d="M707.46,-152.4C683.21,-183.31 632.23,-248.29 606.51,-281.08"/>
</g>
<!-- ressource minière&#45;&#45;économie -->
<g id="edge48" class="edge">
<title>ressource minière&#45;&#45;économie</title>
<path fill="none" stroke="darkgrey" stroke-width="2.74" d="M699.14,-136.19C645.72,-138.36 509.1,-143.91 464.22,-145.74"/>
</g>
<!-- ressource minière&#45;&#45;essor technologique -->
<g id="edge49" class="edge">
<title>ressource minière&#45;&#45;essor technologique</title>
<path fill="none" stroke="darkgrey" stroke-width="3.24" d="M722.15,-156.86C724.56,-197.43 729.71,-284.16 731.76,-318.64"/>
</g>
<!-- dégradation environnementale&#45;&#45;société néo&#45;calédonienne -->
<g id="edge51" class="edge">
<title>dégradation environnementale&#45;&#45;société néo&#45;calédonienne</title>
<path fill="none" stroke="darkgrey" stroke-width="1.7" d="M439.13,-268.95C405.02,-253.58 353.73,-230.46 332.24,-220.77"/>
</g>
<!-- dégradation environnementale&#45;&#45;alternative au développement -->
<g id="edge52" class="edge">
<title>dégradation environnementale&#45;&#45;alternative au développement</title>
<path fill="none" stroke="darkgrey" stroke-width="3.63" d="M507.69,-288.9C526.45,-291.6 548.98,-294.85 565.87,-297.28"/>
</g>
<!-- dégradation environnementale&#45;&#45;économie -->
<g id="edge54" class="edge">
<title>dégradation environnementale&#45;&#45;économie</title>
<path fill="none" stroke="darkgrey" stroke-width="5.72" d="M466.2,-248.01C461.57,-219.54 455.34,-181.17 452.01,-160.66"/>
</g>
<!-- dégradation environnementale&#45;&#45;amélioration environnementale -->
<g id="edge55" class="edge">
<title>dégradation environnementale&#45;&#45;amélioration environnementale</title>
<path fill="none" stroke="darkgrey" stroke-width="2.21" d="M493.04,-313.47C521.74,-353.98 571.25,-423.85 585.66,-444.2"/>
</g>
<!-- dégradation environnementale&#45;&#45;essor technologique -->
<g id="edge56" class="edge">
<title>dégradation environnementale&#45;&#45;essor technologique</title>
<path fill="none" stroke="darkgrey" stroke-width="2.63" d="M507.42,-290.49C565.46,-301.5 678.35,-322.91 718.24,-330.48"/>
</g>
<!-- dégradation environnementale&#45;&#45;nature -->
<g id="edge50" class="edge">
<title>dégradation environnementale&#45;&#45;nature</title>
<path fill="none" stroke="darkgrey" stroke-width="2.56" d="M472.73,-247.73C474,-185.43 476.51,-62.1 476.97,-39.52"/>
</g>
<!-- dégradation environnementale&#45;&#45;nickel -->
<g id="edge53" class="edge">
<title>dégradation environnementale&#45;&#45;nickel</title>
<path fill="none" stroke="darkgrey" stroke-width="1.28" d="M436.64,-290.55C361.1,-305.05 189.98,-337.88 179.36,-339.92"/>
</g>
<!-- société néo&#45;calédonienne&#45;&#45;alternative au développement -->
<g id="edge57" class="edge">
<title>société néo&#45;calédonienne&#45;&#45;alternative au développement</title>
<path fill="none" stroke="darkgrey" stroke-width="2.04" d="M332.74,-219.57C372.05,-231.95 510.74,-275.63 566.99,-293.34"/>
</g>
<!-- société néo&#45;calédonienne&#45;&#45;économie -->
<g id="edge59" class="edge">
<title>société néo&#45;calédonienne&#45;&#45;économie</title>
<path fill="none" stroke="darkgrey" stroke-width="1.78" d="M332.21,-210.76C355.1,-198.21 411.28,-167.39 436.75,-153.42"/>
</g>
<!-- société néo&#45;calédonienne&#45;&#45;nickel -->
<g id="edge58" class="edge">
<title>société néo&#45;calédonienne&#45;&#45;nickel</title>
<path fill="none" stroke="darkgrey" stroke-width="1.02" d="M313.67,-223.62C284.25,-249.02 188.43,-331.74 179.51,-339.44"/>
</g>
<!-- alternative au développement&#45;&#45;économie -->
<g id="edge61" class="edge">
<title>alternative au développement&#45;&#45;économie</title>
<path fill="none" stroke="darkgrey" stroke-width="4.64" d="M573.92,-282.25C544.13,-249.65 483.46,-183.28 459.62,-157.2"/>
</g>
<!-- alternative au développement&#45;&#45;amélioration environnementale -->
<g id="edge62" class="edge">
<title>alternative au développement&#45;&#45;amélioration environnementale</title>
<path fill="none" stroke="darkgrey" stroke-width="3.15" d="M590.75,-326.17C590.46,-361.05 589.95,-421.97 589.77,-442.74"/>
</g>
<!-- alternative au développement&#45;&#45;essor technologique -->
<g id="edge63" class="edge">
<title>alternative au développement&#45;&#45;essor technologique</title>
<path fill="none" stroke="darkgrey" stroke-width="3.18" d="M615.64,-306.52C645.29,-313.28 694.05,-324.41 718.18,-329.91"/>
</g>
<!-- amélioration environnementale&#45;&#45;essor technologique -->
<g id="edge64" class="edge">
<title>amélioration environnementale&#45;&#45;essor technologique</title>
<path fill="none" stroke="darkgrey" d="M595.14,-445.48C616.15,-428.32 692.37,-366.08 721.35,-342.42"/>
</g>
<!-- nouvelle&#45;calédonie&#45;&#45;alternative au développement -->
<g id="edge60" class="edge">
<title>nouvelle&#45;calédonie&#45;&#45;alternative au développement</title>
<path fill="none" stroke="darkgrey" stroke-width="1.17" d="M698.25,-430.32C691.4,-422.07 635.34,-354.43 607.1,-320.35"/>
</g>
<!-- avenir sans nickel -->
<g id="node1" class="node">
<title>avenir sans nickel</title>
<ellipse fill="#f3761b" stroke="white" stroke-width="0" cx="483.88" cy="-222.16" rx="25" ry="25"/>
<text text-anchor="middle" x="353.88" y="-178.6" font-family="Helvetica,sans-Serif" font-size="23.20" fill="#4d4d4d">avenir sans nickel</text>
</g>
<!-- travail -->
<g id="node2" class="node">
<title>travail</title>
<ellipse fill="#982766" stroke="white" stroke-width="0" cx="577.6" cy="-224.88" rx="14.5" ry="14.5"/>
<text text-anchor="middle" x="593.1" y="-244.66" font-family="Helvetica,sans-Serif" font-size="18.40" fill="#4d4d4d">travail</text>
</g>
<!-- politique -->
<g id="node3" class="node">
<title>politique</title>
<ellipse fill="#ab2f5e" stroke="white" stroke-width="0" cx="550.08" cy="-18" rx="18" ry="18"/>
<text text-anchor="middle" x="489.08" y="-6" font-family="Helvetica,sans-Serif" font-size="20.00" fill="#4d4d4d">politique</text>
</g>
<!-- secteur nickel -->
<g id="node4" class="node">
<title>secteur nickel</title>
<ellipse fill="#a92e5e" stroke="white" stroke-width="0" cx="667.74" cy="-190.1" rx="18" ry="18"/>
<text text-anchor="middle" x="580.24" y="-178.1" font-family="Helvetica,sans-Serif" font-size="20.00" fill="#4d4d4d">secteur nickel</text>
</g>
<!-- avenir avec nickel -->
<g id="node5" class="node">
<title>avenir avec nickel</title>
<ellipse fill="#190c3e" stroke="white" stroke-width="0" cx="461.18" cy="-447.54" rx="3.5" ry="3.5"/>
<text text-anchor="middle" x="396.18" y="-455.16" font-family="Helvetica,sans-Serif" font-size="13.60" fill="#4d4d4d">avenir avec nickel</text>
</g>
<!-- pollution -->
<g id="node6" class="node">
<title>pollution</title>
<ellipse fill="#da4e3c" stroke="white" stroke-width="0" cx="586.04" cy="-109.53" rx="21.5" ry="21.5"/>
<text text-anchor="middle" x="517.54" y="-137.75" font-family="Helvetica,sans-Serif" font-size="21.60" fill="#4d4d4d">pollution</text>
</g>
<!-- ressource minière -->
<g id="node7" class="node">
<title>ressource minière</title>
<ellipse fill="#e75e2e" stroke="white" stroke-width="0" cx="720.87" cy="-135.3" rx="21.5" ry="21.5"/>
<text text-anchor="middle" x="796.87" y="-163.52" font-family="Helvetica,sans-Serif" font-size="21.60" fill="#4d4d4d">ressource minière</text>
</g>
<!-- dégradation environnementale -->
<g id="node8" class="node">
<title>dégradation environnementale</title>
<ellipse fill="#fcffa4" stroke="white" stroke-width="0" cx="472" cy="-283.77" rx="36" ry="36"/>
<text text-anchor="middle" x="218" y="-256.37" font-family="Helvetica,sans-Serif" font-size="28.00" fill="#4d4d4d">dégradation environnementale</text>
</g>
<!-- société néo&#45;calédonienne -->
<g id="node9" class="node">
<title>société néo&#45;calédonienne</title>
<ellipse fill="#61136e" stroke="white" stroke-width="0" cx="322.21" cy="-216.25" rx="11" ry="11"/>
<text text-anchor="middle" x="202.71" y="-231.81" font-family="Helvetica,sans-Serif" font-size="16.80" fill="#4d4d4d">société néo&#45;calédonienne</text>
</g>
<!-- alternative au développement -->
<g id="node10" class="node">
<title>alternative au développement</title>
<ellipse fill="#f3761b" stroke="white" stroke-width="0" cx="590.96" cy="-300.89" rx="25" ry="25"/>
<text text-anchor="middle" x="389.46" y="-333.33" font-family="Helvetica,sans-Serif" font-size="23.20" fill="#4d4d4d">alternative au développement</text>
</g>
<!-- économie -->
<g id="node11" class="node">
<title>économie</title>
<ellipse fill="#88226a" stroke="white" stroke-width="0" cx="449.68" cy="-146.33" rx="14.5" ry="14.5"/>
<text text-anchor="middle" x="389.68" y="-137.11" font-family="Helvetica,sans-Serif" font-size="18.40" fill="#4d4d4d">économie</text>
</g>
<!-- amélioration environnementale -->
<g id="node12" class="node">
<title>amélioration environnementale</title>
<ellipse fill="#440a68" stroke="white" stroke-width="0" cx="589.71" cy="-449.91" rx="7" ry="7"/>
<text text-anchor="middle" x="463.71" y="-430.75" font-family="Helvetica,sans-Serif" font-size="15.20" fill="#4d4d4d">amélioration environnementale</text>
</g>
<!-- essor technologique -->
<g id="node13" class="node">
<title>essor technologique</title>
<ellipse fill="#84206b" stroke="white" stroke-width="0" cx="732.63" cy="-333.21" rx="14.5" ry="14.5"/>
<text text-anchor="middle" x="812.63" y="-352.99" font-family="Helvetica,sans-Serif" font-size="18.40" fill="#4d4d4d">essor technologique</text>
</g>
<!-- nature -->
<g id="node14" class="node">
<title>nature</title>
<ellipse fill="#10092d" stroke="white" stroke-width="0" cx="477.05" cy="-35.93" rx="3.5" ry="3.5"/>
<text text-anchor="middle" x="451.55" y="-43.55" font-family="Helvetica,sans-Serif" font-size="13.60" fill="#4d4d4d">nature</text>
</g>
<!-- nickel -->
<g id="node15" class="node">
<title>nickel</title>
<ellipse fill="#000004" stroke="white" stroke-width="0" cx="178.84" cy="-340.02" rx="0.5" ry="0.5"/>
<text text-anchor="middle" x="160.84" y="-343.92" font-family="Helvetica,sans-Serif" font-size="12.00" fill="#4d4d4d">nickel</text>
</g>
<!-- nouvelle&#45;calédonie -->
<g id="node16" class="node">
<title>nouvelle&#45;calédonie</title>
<ellipse fill="#010005" stroke="white" stroke-width="0" cx="698.94" cy="-431.16" rx="0.5" ry="0.5"/>
<text text-anchor="middle" x="641.94" y="-421.06" font-family="Helvetica,sans-Serif" font-size="12.00" fill="#4d4d4d">nouvelle&#45;calédonie</text>
</g>
</g>
</svg>
