<?xml version="1.0" encoding="UTF-8" standalone="no"?>
<!DOCTYPE svg PUBLIC "-//W3C//DTD SVG 1.1//EN"
 "http://www.w3.org/Graphics/SVG/1.1/DTD/svg11.dtd">
<!-- Generated by graphviz version 2.43.0 (0)
 -->
<!-- Pages: 1 -->
<svg width="533pt" height="363pt"
 viewBox="0.00 0.00 533.33 363.43" xmlns="http://www.w3.org/2000/svg" xmlns:xlink="http://www.w3.org/1999/xlink">
<g id="graph0" class="graph" transform="scale(1 1) rotate(0) translate(4 359.43)">
<polygon fill="white" stroke="transparent" points="-4,4 -4,-359.43 529.33,-359.43 529.33,4 -4,4"/>
<!-- pollution&#45;&#45;travail -->
<g id="edge1" class="edge">
<title>pollution&#45;&#45;travail</title>
<path fill="none" stroke="darkgrey" stroke-width="6.63" d="M284.08,-136.5C287.77,-132.34 291.42,-128.21 294.59,-124.63"/>
</g>
<!-- pollution&#45;&#45;richesse -->
<g id="edge2" class="edge">
<title>pollution&#45;&#45;richesse</title>
<path fill="none" stroke="darkgrey" stroke-width="1.9" d="M230.02,-155.83C220,-154.21 209.63,-152.53 202.11,-151.31"/>
</g>
<!-- pollution&#45;&#45;destruction -->
<g id="edge3" class="edge">
<title>pollution&#45;&#45;destruction</title>
<path fill="none" stroke="darkgrey" stroke-width="4.28" d="M237.01,-181.68C213.56,-200.77 180.42,-227.76 167.48,-238.29"/>
</g>
<!-- pollution&#45;&#45;argent -->
<g id="edge4" class="edge">
<title>pollution&#45;&#45;argent</title>
<path fill="none" stroke="darkgrey" stroke-width="1.84" d="M291.34,-146.11C329.95,-126.22 395.72,-92.32 416.26,-81.73"/>
</g>
<!-- pollution&#45;&#45;nickel -->
<g id="edge5" class="edge">
<title>pollution&#45;&#45;nickel</title>
<path fill="none" stroke="darkgrey" stroke-width="9.45" d="M294.28,-167.72C303.75,-169.69 314.17,-171.86 323.83,-173.87"/>
</g>
<!-- pollution&#45;&#45;camion -->
<g id="edge6" class="edge">
<title>pollution&#45;&#45;camion</title>
<path fill="none" stroke="darkgrey" stroke-width="2.33" d="M248.07,-131.66C238.93,-112.78 227.63,-89.45 221.32,-76.44"/>
</g>
<!-- pollution&#45;&#45;économie -->
<g id="edge7" class="edge">
<title>pollution&#45;&#45;économie</title>
<path fill="none" stroke="darkgrey" stroke-width="8.48" d="M292.89,-149.58C311.98,-142.4 336.03,-133.36 352.8,-127.06"/>
</g>
<!-- pollution&#45;&#45;environnement -->
<g id="edge8" class="edge">
<title>pollution&#45;&#45;environnement</title>
<path fill="none" stroke="darkgrey" stroke-width="6.06" d="M272.43,-129.86C279.39,-108.39 288.37,-80.66 294.08,-63.03"/>
</g>
<!-- pollution&#45;&#45;emploi -->
<g id="edge9" class="edge">
<title>pollution&#45;&#45;emploi</title>
<path fill="none" stroke="darkgrey" stroke-width="10" d="M283.44,-136.28C304.66,-111.37 336.59,-73.89 353.67,-53.83"/>
</g>
<!-- pollution&#45;&#45;développement -->
<g id="edge10" class="edge">
<title>pollution&#45;&#45;développement</title>
<path fill="none" stroke="darkgrey" stroke-width="1.36" d="M249.77,-191.41C232.31,-233.61 202.5,-305.64 199.75,-312.3"/>
</g>
<!-- pollution&#45;&#45;déforestation -->
<g id="edge11" class="edge">
<title>pollution&#45;&#45;déforestation</title>
<path fill="none" stroke="darkgrey" d="M230.57,-168.18C187.39,-177.84 113.62,-194.35 96.93,-198.09"/>
</g>
<!-- travail&#45;&#45;nickel -->
<g id="edge12" class="edge">
<title>travail&#45;&#45;nickel</title>
<path fill="none" stroke="darkgrey" stroke-width="2.64" d="M313.65,-125.07C319.87,-132.75 328.35,-143.22 336.3,-153.04"/>
</g>
<!-- travail&#45;&#45;économie -->
<g id="edge13" class="edge">
<title>travail&#45;&#45;économie</title>
<path fill="none" stroke="darkgrey" stroke-width="2.2" d="M318.94,-114.83C328.41,-115.63 340.9,-116.69 351.51,-117.59"/>
</g>
<!-- travail&#45;&#45;environnement -->
<g id="edge14" class="edge">
<title>travail&#45;&#45;environnement</title>
<path fill="none" stroke="darkgrey" stroke-width="1.97" d="M303.34,-98.88C302.63,-88.59 301.68,-74.79 300.92,-63.83"/>
</g>
<!-- richesse&#45;&#45;nickel -->
<g id="edge15" class="edge">
<title>richesse&#45;&#45;nickel</title>
<path fill="none" stroke="darkgrey" stroke-width="1.41" d="M202.08,-151.6C226.32,-156.17 285.14,-167.26 323.51,-174.49"/>
</g>
<!-- argent&#45;&#45;nickel -->
<g id="edge16" class="edge">
<title>argent&#45;&#45;nickel</title>
<path fill="none" stroke="darkgrey" stroke-width="3.03" d="M418.8,-84.59C410.95,-97.29 392.43,-127.26 378.08,-150.48"/>
</g>
<!-- argent&#45;&#45;emploi -->
<g id="edge17" class="edge">
<title>argent&#45;&#45;emploi</title>
<path fill="none" stroke="darkgrey" stroke-width="1.05" d="M416.47,-74.36C407.95,-68.62 392.23,-58.03 380.49,-50.12"/>
</g>
<!-- nickel&#45;&#45;camion -->
<g id="edge19" class="edge">
<title>nickel&#45;&#45;camion</title>
<path fill="none" stroke="darkgrey" stroke-width="4.88" d="M330.92,-158.53C298.13,-132.15 245.84,-90.08 225.24,-73.51"/>
</g>
<!-- nickel&#45;&#45;économie -->
<g id="edge20" class="edge">
<title>nickel&#45;&#45;économie</title>
<path fill="none" stroke="darkgrey" stroke-width="5.79" d="M367.1,-145.97C367.51,-144.13 367.93,-142.31 368.33,-140.54"/>
</g>
<!-- nickel&#45;&#45;environnement -->
<g id="edge21" class="edge">
<title>nickel&#45;&#45;environnement</title>
<path fill="none" stroke="darkgrey" stroke-width="2.77" d="M344.56,-148.07C332.67,-120.97 316.35,-83.77 307.02,-62.5"/>
</g>
<!-- nickel&#45;&#45;emploi -->
<g id="edge22" class="edge">
<title>nickel&#45;&#45;emploi</title>
<path fill="none" stroke="darkgrey" stroke-width="5.36" d="M360.72,-145.2C361.97,-117.42 363.65,-80.15 364.64,-58.24"/>
</g>
<!-- nickel&#45;&#45;montagne -->
<g id="edge18" class="edge">
<title>nickel&#45;&#45;montagne</title>
<path fill="none" stroke="darkgrey" stroke-width="1.97" d="M390.55,-199.26C424.12,-218.54 474.9,-247.7 492.76,-257.95"/>
</g>
<!-- nickel&#45;&#45;usine -->
<g id="edge23" class="edge">
<title>nickel&#45;&#45;usine</title>
<path fill="none" stroke="darkgrey" stroke-width="4.25" d="M373.44,-214.45C388.44,-249.22 410.88,-301.21 418.76,-319.49"/>
</g>
<!-- nickel&#45;&#45;sln -->
<g id="edge24" class="edge">
<title>nickel&#45;&#45;sln</title>
<path fill="none" stroke="darkgrey" stroke-width="5.55" d="M395.23,-177.32C433.58,-173.21 491.36,-167.01 511.28,-164.88"/>
</g>
<!-- nickel&#45;&#45;minerai -->
<g id="edge25" class="edge">
<title>nickel&#45;&#45;minerai</title>
<path fill="none" stroke="darkgrey" stroke-width="3.61" d="M355.61,-217.18C352.14,-253.12 347.06,-305.64 345.25,-324.42"/>
</g>
<!-- économie&#45;&#45;environnement -->
<g id="edge26" class="edge">
<title>économie&#45;&#45;environnement</title>
<path fill="none" stroke="darkgrey" stroke-width="8.39" d="M357.91,-104.15C344.46,-90.67 325.08,-71.23 312.43,-58.54"/>
</g>
<!-- économie&#45;&#45;emploi -->
<g id="edge27" class="edge">
<title>économie&#45;&#45;emploi</title>
<path fill="none" stroke="darkgrey" stroke-width="7.43" d="M371.03,-97.71C369.83,-85.22 368.33,-69.71 367.19,-57.92"/>
</g>
<!-- environnement&#45;&#45;emploi -->
<g id="edge28" class="edge">
<title>environnement&#45;&#45;emploi</title>
<path fill="none" stroke="darkgrey" stroke-width="2.64" d="M317.65,-44.18C326.93,-43.37 338.23,-42.38 347.5,-41.57"/>
</g>
<!-- usine&#45;&#45;minerai -->
<g id="edge29" class="edge">
<title>usine&#45;&#45;minerai</title>
<path fill="none" stroke="darkgrey" stroke-width="1.61" d="M414.52,-326.62C399.91,-327.62 366.67,-329.91 351.89,-330.92"/>
</g>
<!-- pollution -->
<g id="node1" class="node">
<title>pollution</title>
<ellipse fill="#fbbe23" stroke="white" stroke-width="0" cx="262.32" cy="-161.07" rx="32.5" ry="32.5"/>
<text text-anchor="middle" x="171.82" y="-201.45" font-family="Helvetica,sans-Serif" font-size="26.40" fill="#4d4d4d">pollution</text>
</g>
<!-- travail -->
<g id="node2" class="node">
<title>travail</title>
<ellipse fill="#932667" stroke="white" stroke-width="0" cx="304.36" cy="-113.6" rx="14.5" ry="14.5"/>
<text text-anchor="middle" x="259.86" y="-104.38" font-family="Helvetica,sans-Serif" font-size="18.40" fill="#4d4d4d">travail</text>
</g>
<!-- richesse -->
<g id="node3" class="node">
<title>richesse</title>
<ellipse fill="#5c126e" stroke="white" stroke-width="0" cx="191.05" cy="-149.52" rx="11" ry="11"/>
<text text-anchor="middle" x="145.05" y="-165.08" font-family="Helvetica,sans-Serif" font-size="16.80" fill="#4d4d4d">richesse</text>
</g>
<!-- destruction -->
<g id="node4" class="node">
<title>destruction</title>
<ellipse fill="#260c51" stroke="white" stroke-width="0" cx="162.01" cy="-242.75" rx="7" ry="7"/>
<text text-anchor="middle" x="111.51" y="-254.59" font-family="Helvetica,sans-Serif" font-size="15.20" fill="#4d4d4d">destruction</text>
</g>
<!-- argent -->
<g id="node5" class="node">
<title>argent</title>
<ellipse fill="#400a67" stroke="white" stroke-width="0" cx="422.58" cy="-78.48" rx="7" ry="7"/>
<text text-anchor="middle" x="390.58" y="-76.32" font-family="Helvetica,sans-Serif" font-size="15.20" fill="#4d4d4d">argent</text>
</g>
<!-- nickel -->
<g id="node6" class="node">
<title>nickel</title>
<ellipse fill="#fcffa4" stroke="white" stroke-width="0" cx="359.09" cy="-181.2" rx="36" ry="36"/>
<text text-anchor="middle" x="282.09" y="-225.8" font-family="Helvetica,sans-Serif" font-size="28.00" fill="#4d4d4d">nickel</text>
</g>
<!-- camion -->
<g id="node7" class="node">
<title>camion</title>
<ellipse fill="#61136e" stroke="white" stroke-width="0" cx="216.49" cy="-66.47" rx="11" ry="11"/>
<text text-anchor="middle" x="174.49" y="-82.03" font-family="Helvetica,sans-Serif" font-size="16.80" fill="#4d4d4d">camion</text>
</g>
<!-- économie -->
<g id="node8" class="node">
<title>économie</title>
<ellipse fill="#cf4446" stroke="white" stroke-width="0" cx="373.13" cy="-119.41" rx="21.5" ry="21.5"/>
<text text-anchor="middle" x="298.13" y="-80.63" font-family="Helvetica,sans-Serif" font-size="21.60" fill="#4d4d4d">économie</text>
</g>
<!-- environnement -->
<g id="node9" class="node">
<title>environnement</title>
<ellipse fill="#a62d60" stroke="white" stroke-width="0" cx="299.67" cy="-45.76" rx="18" ry="18"/>
<text text-anchor="middle" x="205.67" y="-33.76" font-family="Helvetica,sans-Serif" font-size="20.00" fill="#4d4d4d">environnement</text>
</g>
<!-- emploi -->
<g id="node10" class="node">
<title>emploi</title>
<ellipse fill="#a92e5e" stroke="white" stroke-width="0" cx="365.46" cy="-40" rx="18" ry="18"/>
<text text-anchor="middle" x="313.96" y="-6" font-family="Helvetica,sans-Serif" font-size="20.00" fill="#4d4d4d">emploi</text>
</g>
<!-- développement -->
<g id="node11" class="node">
<title>développement</title>
<ellipse fill="#000004" stroke="white" stroke-width="0" cx="199.54" cy="-312.8" rx="0.5" ry="0.5"/>
<text text-anchor="middle" x="152.04" y="-316.7" font-family="Helvetica,sans-Serif" font-size="12.00" fill="#4d4d4d">développement</text>
</g>
<!-- déforestation -->
<g id="node12" class="node">
<title>déforestation</title>
<ellipse fill="#050417" stroke="white" stroke-width="0" cx="93.5" cy="-198.85" rx="3.5" ry="3.5"/>
<text text-anchor="middle" x="45" y="-206.47" font-family="Helvetica,sans-Serif" font-size="13.60" fill="#4d4d4d">déforestation</text>
</g>
<!-- montagne -->
<g id="node13" class="node">
<title>montagne</title>
<ellipse fill="#2f0a5b" stroke="white" stroke-width="0" cx="499.25" cy="-261.68" rx="7" ry="7"/>
<text text-anchor="middle" x="453.25" y="-273.52" font-family="Helvetica,sans-Serif" font-size="15.20" fill="#4d4d4d">montagne</text>
</g>
<!-- usine -->
<g id="node14" class="node">
<title>usine</title>
<ellipse fill="#450a69" stroke="white" stroke-width="0" cx="421.63" cy="-326.13" rx="7" ry="7"/>
<text text-anchor="middle" x="393.63" y="-337.97" font-family="Helvetica,sans-Serif" font-size="15.20" fill="#4d4d4d">usine</text>
</g>
<!-- sln -->
<g id="node15" class="node">
<title>sln</title>
<ellipse fill="#2f0a5b" stroke="white" stroke-width="0" cx="518.33" cy="-164.12" rx="7" ry="7"/>
<text text-anchor="middle" x="499.83" y="-175.96" font-family="Helvetica,sans-Serif" font-size="15.20" fill="#4d4d4d">sln</text>
</g>
<!-- minerai -->
<g id="node16" class="node">
<title>minerai</title>
<ellipse fill="#450a69" stroke="white" stroke-width="0" cx="344.57" cy="-331.43" rx="7" ry="7"/>
<text text-anchor="middle" x="308.57" y="-343.27" font-family="Helvetica,sans-Serif" font-size="15.20" fill="#4d4d4d">minerai</text>
</g>
</g>
</svg>
