<?xml version="1.0" encoding="UTF-8" standalone="no"?>
<!DOCTYPE svg PUBLIC "-//W3C//DTD SVG 1.1//EN"
 "http://www.w3.org/Graphics/SVG/1.1/DTD/svg11.dtd">
<!-- Generated by graphviz version 2.43.0 (0)
 -->
<!-- Pages: 1 -->
<svg width="986pt" height="624pt"
 viewBox="0.00 0.00 986.40 623.63" xmlns="http://www.w3.org/2000/svg" xmlns:xlink="http://www.w3.org/1999/xlink">
<g id="graph0" class="graph" transform="scale(1 1) rotate(0) translate(4 619.63)">
<polygon fill="white" stroke="transparent" points="-4,4 -4,-619.63 982.4,-619.63 982.4,4 -4,4"/>
<!-- avenir sans nickel&#45;&#45;industrie -->
<g id="edge1" class="edge">
<title>avenir sans nickel&#45;&#45;industrie</title>
<path fill="none" stroke="darkgrey" stroke-width="1.25" d="M278.79,-302.66C273.76,-350.52 264.1,-442.36 262.05,-461.87"/>
</g>
<!-- avenir sans nickel&#45;&#45;travail -->
<g id="edge2" class="edge">
<title>avenir sans nickel&#45;&#45;travail</title>
<path fill="none" stroke="darkgrey" stroke-width="3.55" d="M306.11,-289.43C348.1,-317.02 433.14,-372.91 467.75,-395.65"/>
</g>
<!-- avenir sans nickel&#45;&#45;politique -->
<g id="edge3" class="edge">
<title>avenir sans nickel&#45;&#45;politique</title>
<path fill="none" stroke="darkgrey" stroke-width="3.99" d="M310.56,-268.96C316.08,-268.09 321.77,-267.19 327.01,-266.36"/>
</g>
<!-- avenir sans nickel&#45;&#45;secteur nickel -->
<g id="edge4" class="edge">
<title>avenir sans nickel&#45;&#45;secteur nickel</title>
<path fill="none" stroke="darkgrey" stroke-width="3.37" d="M310.34,-268.01C368.66,-256.79 500.49,-231.42 552.11,-221.49"/>
</g>
<!-- avenir sans nickel&#45;&#45;relation politique -->
<g id="edge5" class="edge">
<title>avenir sans nickel&#45;&#45;relation politique</title>
<path fill="none" stroke="darkgrey" stroke-width="1.47" d="M286.82,-244.81C293.16,-208.13 303.65,-147.49 306.33,-132.02"/>
</g>
<!-- avenir sans nickel&#45;&#45;avenir avec nickel -->
<g id="edge6" class="edge">
<title>avenir sans nickel&#45;&#45;avenir avec nickel</title>
<path fill="none" stroke="darkgrey" stroke-width="3.32" d="M292.75,-300.52C303.65,-327.58 319.85,-367.78 327.37,-386.46"/>
</g>
<!-- avenir sans nickel&#45;&#45;pollution -->
<g id="edge7" class="edge">
<title>avenir sans nickel&#45;&#45;pollution</title>
<path fill="none" stroke="darkgrey" stroke-width="5.68" d="M309.69,-265.29C329.29,-259.52 355.27,-251.87 373.98,-246.36"/>
</g>
<!-- avenir sans nickel&#45;&#45;ressource minière -->
<g id="edge8" class="edge">
<title>avenir sans nickel&#45;&#45;ressource minière</title>
<path fill="none" stroke="darkgrey" stroke-width="5.76" d="M310.53,-267.17C346.94,-259.14 409.13,-245.43 443.44,-237.87"/>
</g>
<!-- avenir sans nickel&#45;&#45;dégradation environnementale -->
<g id="edge9" class="edge">
<title>avenir sans nickel&#45;&#45;dégradation environnementale</title>
<path fill="none" stroke="darkgrey" stroke-width="6.33" d="M309.81,-281.45C344.69,-291.38 404.32,-308.37 442.13,-319.14"/>
</g>
<!-- avenir sans nickel&#45;&#45;nature -->
<g id="edge10" class="edge">
<title>avenir sans nickel&#45;&#45;nature</title>
<path fill="none" stroke="darkgrey" stroke-width="1.42" d="M301.2,-251.54C334.82,-213.41 402.57,-136.54 424.87,-111.25"/>
</g>
<!-- avenir sans nickel&#45;&#45;société néo&#45;calédonienne -->
<g id="edge11" class="edge">
<title>avenir sans nickel&#45;&#45;société néo&#45;calédonienne</title>
<path fill="none" stroke="darkgrey" stroke-width="3.28" d="M308.82,-262.18C358.35,-241.41 462.16,-197.88 499.34,-182.28"/>
</g>
<!-- avenir sans nickel&#45;&#45;alternative au développement -->
<g id="edge12" class="edge">
<title>avenir sans nickel&#45;&#45;alternative au développement</title>
<path fill="none" stroke="darkgrey" stroke-width="4.77" d="M310.98,-275.09C367.05,-278.17 489.42,-284.91 545.4,-287.98"/>
</g>
<!-- avenir sans nickel&#45;&#45;nickel -->
<g id="edge13" class="edge">
<title>avenir sans nickel&#45;&#45;nickel</title>
<path fill="none" stroke="darkgrey" stroke-width="1.07" d="M305.29,-290.84C338.99,-315.78 399.14,-360.31 417.97,-374.25"/>
</g>
<!-- avenir sans nickel&#45;&#45;économie -->
<g id="edge14" class="edge">
<title>avenir sans nickel&#45;&#45;économie</title>
<path fill="none" stroke="darkgrey" stroke-width="2.92" d="M306.38,-289.15C322.79,-299.63 343.89,-313.1 357.98,-322.1"/>
</g>
<!-- avenir sans nickel&#45;&#45;amélioration environnementale -->
<g id="edge15" class="edge">
<title>avenir sans nickel&#45;&#45;amélioration environnementale</title>
<path fill="none" stroke="darkgrey" stroke-width="2.38" d="M301.95,-252.23C322.8,-230.16 354.35,-196.77 368.82,-181.45"/>
</g>
<!-- avenir sans nickel&#45;&#45;essor technologique -->
<g id="edge16" class="edge">
<title>avenir sans nickel&#45;&#45;essor technologique</title>
<path fill="none" stroke="darkgrey" stroke-width="1.66" d="M310.42,-280.53C364.03,-293.75 478.22,-321.92 522,-332.71"/>
</g>
<!-- avenir sans nickel&#45;&#45;risque -->
<g id="edge17" class="edge">
<title>avenir sans nickel&#45;&#45;risque</title>
<path fill="none" stroke="darkgrey" stroke-width="1.12" d="M253.35,-267.25C191.41,-253.69 49.19,-222.57 38.18,-220.16"/>
</g>
<!-- industrie&#45;&#45;politique -->
<g id="edge18" class="edge">
<title>industrie&#45;&#45;politique</title>
<path fill="none" stroke="darkgrey" stroke-width="1.09" d="M263.17,-462.06C272.28,-440.83 320.22,-329.13 340.04,-282.95"/>
</g>
<!-- industrie&#45;&#45;ressource minière -->
<g id="edge19" class="edge">
<title>industrie&#45;&#45;ressource minière</title>
<path fill="none" stroke="darkgrey" stroke-width="1.2" d="M264.27,-462.63C283.67,-440.7 406.03,-302.46 451.23,-251.39"/>
</g>
<!-- industrie&#45;&#45;dégradation environnementale -->
<g id="edge20" class="edge">
<title>industrie&#45;&#45;dégradation environnementale</title>
<path fill="none" stroke="darkgrey" stroke-width="1.01" d="M264.7,-463.65C284.17,-451.3 392.2,-382.8 446.2,-348.55"/>
</g>
<!-- industrie&#45;&#45;alternative au développement -->
<g id="edge21" class="edge">
<title>industrie&#45;&#45;alternative au développement</title>
<path fill="none" stroke="darkgrey" stroke-width="1.27" d="M264.75,-463.83C291.21,-448.95 479.97,-342.72 549.11,-303.81"/>
</g>
<!-- industrie&#45;&#45;nickel -->
<g id="edge22" class="edge">
<title>industrie&#45;&#45;nickel</title>
<path fill="none" stroke="darkgrey" stroke-width="1.25" d="M264.75,-463.91C284.27,-453.43 390.45,-396.44 417.5,-381.92"/>
</g>
<!-- industrie&#45;&#45;économie -->
<g id="edge23" class="edge">
<title>industrie&#45;&#45;économie</title>
<path fill="none" stroke="darkgrey" stroke-width="1.28" d="M263.99,-462.78C276.52,-447.79 336.23,-376.36 361.76,-345.82"/>
</g>
<!-- travail&#45;&#45;politique -->
<g id="edge24" class="edge">
<title>travail&#45;&#45;politique</title>
<path fill="none" stroke="darkgrey" stroke-width="3.74" d="M470.52,-392.45C445.72,-366.1 390.08,-306.98 363.42,-278.66"/>
</g>
<!-- travail&#45;&#45;secteur nickel -->
<g id="edge25" class="edge">
<title>travail&#45;&#45;secteur nickel</title>
<path fill="none" stroke="darkgrey" stroke-width="3.9" d="M490.78,-389.24C507.42,-354.63 546.11,-274.16 564.01,-236.93"/>
</g>
<!-- travail&#45;&#45;relation politique -->
<g id="edge26" class="edge">
<title>travail&#45;&#45;relation politique</title>
<path fill="none" stroke="darkgrey" stroke-width="1.15" d="M473.2,-390.32C439.05,-336.5 325.65,-157.8 309.01,-131.57"/>
</g>
<!-- travail&#45;&#45;avenir avec nickel -->
<g id="edge27" class="edge">
<title>travail&#45;&#45;avenir avec nickel</title>
<path fill="none" stroke="darkgrey" stroke-width="1.9" d="M464.65,-404.54C432.87,-402.66 368.33,-398.85 342.52,-397.32"/>
</g>
<!-- travail&#45;&#45;pollution -->
<g id="edge28" class="edge">
<title>travail&#45;&#45;pollution</title>
<path fill="none" stroke="darkgrey" stroke-width="5.4" d="M474.62,-389.37C459.35,-359.45 426.78,-295.61 409.45,-261.63"/>
</g>
<!-- travail&#45;&#45;ressource minière -->
<g id="edge29" class="edge">
<title>travail&#45;&#45;ressource minière</title>
<path fill="none" stroke="darkgrey" stroke-width="3.08" d="M481.34,-387.42C478.66,-356.33 473.2,-292.96 470.16,-257.64"/>
</g>
<!-- travail&#45;&#45;dégradation environnementale -->
<g id="edge30" class="edge">
<title>travail&#45;&#45;dégradation environnementale</title>
<path fill="none" stroke="darkgrey" stroke-width="6.49" d="M481.5,-387.47C480.98,-380.75 480.36,-372.87 479.76,-365.12"/>
</g>
<!-- travail&#45;&#45;nature -->
<g id="edge31" class="edge">
<title>travail&#45;&#45;nature</title>
<path fill="none" stroke="darkgrey" stroke-width="1.35" d="M479.89,-387.59C470.44,-331.22 441.62,-159.32 434.02,-114.01"/>
</g>
<!-- travail&#45;&#45;société néo&#45;calédonienne -->
<g id="edge32" class="edge">
<title>travail&#45;&#45;société néo&#45;calédonienne</title>
<path fill="none" stroke="darkgrey" stroke-width="3.72" d="M485.27,-387.65C491.04,-343.67 505.78,-231.31 511.05,-191.13"/>
</g>
<!-- travail&#45;&#45;alternative au développement -->
<g id="edge34" class="edge">
<title>travail&#45;&#45;alternative au développement</title>
<path fill="none" stroke="darkgrey" stroke-width="4.04" d="M494.13,-391.39C509.59,-371.78 537.63,-336.22 556.13,-312.75"/>
</g>
<!-- travail&#45;&#45;nickel -->
<g id="edge35" class="edge">
<title>travail&#45;&#45;nickel</title>
<path fill="none" stroke="darkgrey" stroke-width="1.72" d="M466.44,-398.08C454.4,-392.57 438.75,-385.41 430.14,-381.46"/>
</g>
<!-- travail&#45;&#45;économie -->
<g id="edge36" class="edge">
<title>travail&#45;&#45;économie</title>
<path fill="none" stroke="darkgrey" stroke-width="4.15" d="M467.68,-395.37C446.75,-381.3 409.33,-356.12 388.47,-342.09"/>
</g>
<!-- travail&#45;&#45;amélioration environnementale -->
<g id="edge37" class="edge">
<title>travail&#45;&#45;amélioration environnementale</title>
<path fill="none" stroke="darkgrey" stroke-width="3" d="M475.26,-388.91C454.55,-343.64 397.79,-219.62 381.19,-183.34"/>
</g>
<!-- travail&#45;&#45;essor technologique -->
<g id="edge38" class="edge">
<title>travail&#45;&#45;essor technologique</title>
<path fill="none" stroke="darkgrey" stroke-width="3.25" d="M494.38,-391.74C504.08,-380 517.93,-363.24 527.74,-351.38"/>
</g>
<!-- travail&#45;&#45;nouvelle&#45;calédonie -->
<g id="edge33" class="edge">
<title>travail&#45;&#45;nouvelle&#45;calédonie</title>
<path fill="none" stroke="darkgrey" stroke-width="1.17" d="M500.95,-404.69C531.62,-403.1 592.67,-399.95 613.62,-398.87"/>
</g>
<!-- travail&#45;&#45;matériel -->
<g id="edge39" class="edge">
<title>travail&#45;&#45;matériel</title>
<path fill="none" stroke="darkgrey" stroke-width="1.39" d="M495.79,-418.51C538.08,-460.86 670.5,-593.48 678.74,-601.72"/>
</g>
<!-- politique&#45;&#45;secteur nickel -->
<g id="edge47" class="edge">
<title>politique&#45;&#45;secteur nickel</title>
<path fill="none" stroke="darkgrey" stroke-width="4.1" d="M369.78,-258.66C412.62,-249.98 509.22,-230.4 552.15,-221.7"/>
</g>
<!-- politique&#45;&#45;relation politique -->
<g id="edge48" class="edge">
<title>politique&#45;&#45;relation politique</title>
<path fill="none" stroke="darkgrey" stroke-width="2.03" d="M342.21,-242.21C331.98,-209.17 312.67,-146.78 308,-131.69"/>
</g>
<!-- politique&#45;&#45;avenir avec nickel -->
<g id="edge49" class="edge">
<title>politique&#45;&#45;avenir avec nickel</title>
<path fill="none" stroke="darkgrey" stroke-width="1.81" d="M345.88,-284.43C342.18,-313.23 335.77,-363.28 332.92,-385.5"/>
</g>
<!-- politique&#45;&#45;pollution -->
<g id="edge50" class="edge">
<title>politique&#45;&#45;pollution</title>
<path fill="none" stroke="darkgrey" stroke-width="3.73" d="M368.16,-253.59C370.54,-252.46 372.98,-251.29 375.39,-250.13"/>
</g>
<!-- politique&#45;&#45;ressource minière -->
<g id="edge51" class="edge">
<title>politique&#45;&#45;ressource minière</title>
<path fill="none" stroke="darkgrey" stroke-width="4.17" d="M369.7,-257.57C390.31,-252.3 421.69,-244.28 443.43,-238.73"/>
</g>
<!-- politique&#45;&#45;dégradation environnementale -->
<g id="edge52" class="edge">
<title>politique&#45;&#45;dégradation environnementale</title>
<path fill="none" stroke="darkgrey" stroke-width="5.3" d="M367.84,-272.84C388.12,-283.29 420.43,-299.94 444.64,-312.41"/>
</g>
<!-- politique&#45;&#45;nature -->
<g id="edge53" class="edge">
<title>politique&#45;&#45;nature</title>
<path fill="none" stroke="darkgrey" stroke-width="1.13" d="M358.71,-243.65C376.59,-209.41 413.26,-139.18 426.9,-113.06"/>
</g>
<!-- politique&#45;&#45;société néo&#45;calédonienne -->
<g id="edge54" class="edge">
<title>politique&#45;&#45;société néo&#45;calédonienne</title>
<path fill="none" stroke="darkgrey" stroke-width="2.61" d="M367.8,-252.87C401.67,-235.07 471.22,-198.51 500.02,-183.37"/>
</g>
<!-- politique&#45;&#45;alternative au développement -->
<g id="edge56" class="edge">
<title>politique&#45;&#45;alternative au développement</title>
<path fill="none" stroke="darkgrey" stroke-width="3.35" d="M370.28,-265.5C411.12,-270.32 499.53,-280.75 545.43,-286.16"/>
</g>
<!-- politique&#45;&#45;nickel -->
<g id="edge57" class="edge">
<title>politique&#45;&#45;nickel</title>
<path fill="none" stroke="darkgrey" stroke-width="1.39" d="M360.37,-281.01C377.54,-307.43 408.66,-355.31 419.73,-372.33"/>
</g>
<!-- politique&#45;&#45;économie -->
<g id="edge58" class="edge">
<title>politique&#45;&#45;économie</title>
<path fill="none" stroke="darkgrey" stroke-width="3.91" d="M355.92,-283.27C359.51,-293.29 363.8,-305.23 367.22,-314.78"/>
</g>
<!-- politique&#45;&#45;amélioration environnementale -->
<g id="edge59" class="edge">
<title>politique&#45;&#45;amélioration environnementale</title>
<path fill="none" stroke="darkgrey" stroke-width="1.25" d="M355.11,-242.14C360.79,-223.93 368.8,-198.19 373.26,-183.89"/>
</g>
<!-- politique&#45;&#45;essor technologique -->
<g id="edge60" class="edge">
<title>politique&#45;&#45;essor technologique</title>
<path fill="none" stroke="darkgrey" stroke-width="1.22" d="M368.71,-270.74C406.43,-285.38 487.29,-316.75 522.55,-330.44"/>
</g>
<!-- politique&#45;&#45;risque -->
<g id="edge61" class="edge">
<title>politique&#45;&#45;risque</title>
<path fill="none" stroke="darkgrey" stroke-width="1.29" d="M327.25,-260C259.15,-250.6 51.07,-221.88 38.13,-220.1"/>
</g>
<!-- politique&#45;&#45;nouvelle&#45;calédonie -->
<g id="edge55" class="edge">
<title>politique&#45;&#45;nouvelle&#45;calédonie</title>
<path fill="none" stroke="darkgrey" stroke-width="1.86" d="M368.21,-272.7C423.81,-300.38 580.79,-378.53 614.46,-395.3"/>
</g>
<!-- secteur nickel&#45;&#45;relation politique -->
<g id="edge62" class="edge">
<title>secteur nickel&#45;&#45;relation politique</title>
<path fill="none" stroke="darkgrey" stroke-width="1.7" d="M552.94,-210.56C495.67,-191.42 336.27,-138.14 310.5,-129.53"/>
</g>
<!-- secteur nickel&#45;&#45;avenir avec nickel -->
<g id="edge63" class="edge">
<title>secteur nickel&#45;&#45;avenir avec nickel</title>
<path fill="none" stroke="darkgrey" stroke-width="2" d="M556,-230.29C508.34,-265.61 376.78,-363.1 340.73,-389.82"/>
</g>
<!-- secteur nickel&#45;&#45;pollution -->
<g id="edge64" class="edge">
<title>secteur nickel&#45;&#45;pollution</title>
<path fill="none" stroke="darkgrey" stroke-width="4.1" d="M551.9,-220.08C519.34,-224.14 457.68,-231.84 423.12,-236.15"/>
</g>
<!-- secteur nickel&#45;&#45;ressource minière -->
<g id="edge65" class="edge">
<title>secteur nickel&#45;&#45;ressource minière</title>
<path fill="none" stroke="darkgrey" stroke-width="2.67" d="M552.07,-220.44C534.98,-222.89 510.98,-226.32 492.99,-228.89"/>
</g>
<!-- secteur nickel&#45;&#45;dégradation environnementale -->
<g id="edge66" class="edge">
<title>secteur nickel&#45;&#45;dégradation environnementale</title>
<path fill="none" stroke="darkgrey" stroke-width="3.79" d="M559.17,-233.87C543.77,-251.71 518.94,-280.44 500.6,-301.68"/>
</g>
<!-- secteur nickel&#45;&#45;société néo&#45;calédonienne -->
<g id="edge67" class="edge">
<title>secteur nickel&#45;&#45;société néo&#45;calédonienne</title>
<path fill="none" stroke="darkgrey" stroke-width="2.25" d="M555.27,-205.15C545.53,-198.57 533.79,-190.64 525.15,-184.81"/>
</g>
<!-- secteur nickel&#45;&#45;alternative au développement -->
<g id="edge69" class="edge">
<title>secteur nickel&#45;&#45;alternative au développement</title>
<path fill="none" stroke="darkgrey" stroke-width="5.77" d="M573.7,-239.05C573.79,-245.78 573.9,-253.31 574,-260.46"/>
</g>
<!-- secteur nickel&#45;&#45;nickel -->
<g id="edge70" class="edge">
<title>secteur nickel&#45;&#45;nickel</title>
<path fill="none" stroke="darkgrey" stroke-width="2.37" d="M558.51,-233.44C525.83,-268.63 449.16,-351.2 428.8,-373.13"/>
</g>
<!-- secteur nickel&#45;&#45;économie -->
<g id="edge71" class="edge">
<title>secteur nickel&#45;&#45;économie</title>
<path fill="none" stroke="darkgrey" stroke-width="2.83" d="M554.58,-228.17C515.39,-250.61 425.63,-302.01 389.18,-322.88"/>
</g>
<!-- secteur nickel&#45;&#45;amélioration environnementale -->
<g id="edge72" class="edge">
<title>secteur nickel&#45;&#45;amélioration environnementale</title>
<path fill="none" stroke="darkgrey" stroke-width="3.38" d="M552.34,-212.67C510.69,-203.33 419.1,-182.79 387.52,-175.71"/>
</g>
<!-- secteur nickel&#45;&#45;essor technologique -->
<g id="edge74" class="edge">
<title>secteur nickel&#45;&#45;essor technologique</title>
<path fill="none" stroke="darkgrey" stroke-width="2.37" d="M567.51,-238.24C561,-261.27 550.63,-297.96 544.53,-319.56"/>
</g>
<!-- secteur nickel&#45;&#45;nouvelle&#45;calédonie -->
<g id="edge68" class="edge">
<title>secteur nickel&#45;&#45;nouvelle&#45;calédonie</title>
<path fill="none" stroke="darkgrey" stroke-width="1.4" d="M578.94,-238.52C589.6,-279.2 612.51,-366.6 619.08,-391.65"/>
</g>
<!-- secteur nickel&#45;&#45;foncier -->
<g id="edge73" class="edge">
<title>secteur nickel&#45;&#45;foncier</title>
<path fill="none" stroke="darkgrey" stroke-width="1.16" d="M595.04,-216.96C669.6,-215.48 912.05,-210.64 927.13,-210.33"/>
</g>
<!-- secteur nickel&#45;&#45;échange commercial -->
<g id="edge75" class="edge">
<title>secteur nickel&#45;&#45;échange commercial</title>
<path fill="none" stroke="darkgrey" stroke-width="1.31" d="M573.13,-195.81C572.48,-143.52 570.86,-13.48 570.71,-1.4"/>
</g>
<!-- relation politique&#45;&#45;avenir avec nickel -->
<g id="edge76" class="edge">
<title>relation politique&#45;&#45;avenir avec nickel</title>
<path fill="none" stroke="darkgrey" d="M307.31,-132.14C309.89,-160.42 326.18,-338.58 330.45,-385.41"/>
</g>
<!-- relation politique&#45;&#45;pollution -->
<g id="edge77" class="edge">
<title>relation politique&#45;&#45;pollution</title>
<path fill="none" stroke="darkgrey" stroke-width="1.35" d="M309.21,-131.09C319.08,-143.1 358.99,-191.71 381.81,-219.51"/>
</g>
<!-- relation politique&#45;&#45;ressource minière -->
<g id="edge78" class="edge">
<title>relation politique&#45;&#45;ressource minière</title>
<path fill="none" stroke="darkgrey" stroke-width="1.25" d="M310.03,-130.34C326.77,-141.16 407.65,-193.45 446.74,-218.72"/>
</g>
<!-- relation politique&#45;&#45;dégradation environnementale -->
<g id="edge79" class="edge">
<title>relation politique&#45;&#45;dégradation environnementale</title>
<path fill="none" stroke="darkgrey" stroke-width="1.61" d="M309.36,-131.19C324.86,-149.48 411.38,-251.64 453.67,-301.57"/>
</g>
<!-- relation politique&#45;&#45;économie -->
<g id="edge80" class="edge">
<title>relation politique&#45;&#45;économie</title>
<path fill="none" stroke="darkgrey" stroke-width="1.85" d="M308.11,-131.88C315.21,-153.64 353.14,-269.92 367.69,-314.51"/>
</g>
<!-- relation politique&#45;&#45;échange commercial -->
<g id="edge81" class="edge">
<title>relation politique&#45;&#45;échange commercial</title>
<path fill="none" stroke="darkgrey" stroke-width="1.12" d="M310.3,-126.73C339.87,-112.39 556.52,-7.37 570.04,-0.82"/>
</g>
<!-- avenir avec nickel&#45;&#45;pollution -->
<g id="edge82" class="edge">
<title>avenir avec nickel&#45;&#45;pollution</title>
<path fill="none" stroke="darkgrey" stroke-width="1.32" d="M335.85,-386.34C346.41,-361.38 373.52,-297.27 388.22,-262.51"/>
</g>
<!-- avenir avec nickel&#45;&#45;ressource minière -->
<g id="edge83" class="edge">
<title>avenir avec nickel&#45;&#45;ressource minière</title>
<path fill="none" stroke="darkgrey" stroke-width="1.82" d="M338.82,-387.84C360.09,-362.26 422.11,-287.65 451.79,-251.94"/>
</g>
<!-- avenir avec nickel&#45;&#45;dégradation environnementale -->
<g id="edge84" class="edge">
<title>avenir avec nickel&#45;&#45;dégradation environnementale</title>
<path fill="none" stroke="darkgrey" stroke-width="2.95" d="M341.48,-392.02C362.34,-382.33 411.31,-359.57 444.29,-344.24"/>
</g>
<!-- avenir avec nickel&#45;&#45;alternative au développement -->
<g id="edge85" class="edge">
<title>avenir avec nickel&#45;&#45;alternative au développement</title>
<path fill="none" stroke="darkgrey" stroke-width="2.55" d="M341.61,-392.21C376.81,-376.69 494.57,-324.77 547.83,-301.29"/>
</g>
<!-- avenir avec nickel&#45;&#45;économie -->
<g id="edge86" class="edge">
<title>avenir avec nickel&#45;&#45;économie</title>
<path fill="none" stroke="darkgrey" stroke-width="2.38" d="M337.49,-387.4C344.27,-376.91 355.43,-359.67 363.5,-347.19"/>
</g>
<!-- avenir avec nickel&#45;&#45;amélioration environnementale -->
<g id="edge87" class="edge">
<title>avenir avec nickel&#45;&#45;amélioration environnementale</title>
<path fill="none" stroke="darkgrey" stroke-width="3.04" d="M333.72,-385.59C341.41,-347.47 366.74,-221.96 374.38,-184.13"/>
</g>
<!-- avenir avec nickel&#45;&#45;essor technologique -->
<g id="edge88" class="edge">
<title>avenir avec nickel&#45;&#45;essor technologique</title>
<path fill="none" stroke="darkgrey" stroke-width="2.45" d="M342.09,-393.63C375.72,-384 480.2,-354.06 522.02,-342.08"/>
</g>
<!-- pollution&#45;&#45;ressource minière -->
<g id="edge89" class="edge">
<title>pollution&#45;&#45;ressource minière</title>
<path fill="none" stroke="darkgrey" stroke-width="4.67" d="M423.3,-236.82C429.71,-236.19 436.61,-235.52 443.01,-234.89"/>
</g>
<!-- pollution&#45;&#45;dégradation environnementale -->
<g id="edge90" class="edge">
<title>pollution&#45;&#45;dégradation environnementale</title>
<path fill="none" stroke="darkgrey" stroke-width="10" d="M414.78,-258.32C425.91,-270.98 440.7,-287.81 453.06,-301.87"/>
</g>
<!-- pollution&#45;&#45;nature -->
<g id="edge91" class="edge">
<title>pollution&#45;&#45;nature</title>
<path fill="none" stroke="darkgrey" stroke-width="2.84" d="M404.15,-214.91C411.62,-185.05 423.97,-135.73 429.43,-113.92"/>
</g>
<!-- pollution&#45;&#45;société néo&#45;calédonienne -->
<g id="edge92" class="edge">
<title>pollution&#45;&#45;société néo&#45;calédonienne</title>
<path fill="none" stroke="darkgrey" stroke-width="3.81" d="M420.2,-227.19C443.94,-214.23 480.81,-194.12 500.14,-183.57"/>
</g>
<!-- pollution&#45;&#45;alternative au développement -->
<g id="edge94" class="edge">
<title>pollution&#45;&#45;alternative au développement</title>
<path fill="none" stroke="darkgrey" stroke-width="4.92" d="M422.2,-246.17C454.65,-255.42 512.2,-271.84 546.47,-281.62"/>
</g>
<!-- pollution&#45;&#45;nickel -->
<g id="edge95" class="edge">
<title>pollution&#45;&#45;nickel</title>
<path fill="none" stroke="darkgrey" stroke-width="2.35" d="M402.64,-264.18C408.66,-296.73 418.84,-351.89 422.45,-371.43"/>
</g>
<!-- pollution&#45;&#45;économie -->
<g id="edge96" class="edge">
<title>pollution&#45;&#45;économie</title>
<path fill="none" stroke="darkgrey" stroke-width="4.64" d="M391.56,-263.62C387.31,-279.6 381.84,-300.12 378.02,-314.48"/>
</g>
<!-- pollution&#45;&#45;amélioration environnementale -->
<g id="edge97" class="edge">
<title>pollution&#45;&#45;amélioration environnementale</title>
<path fill="none" stroke="darkgrey" stroke-width="1.95" d="M390.29,-215.44C386.79,-204.66 382.82,-192.45 380.05,-183.95"/>
</g>
<!-- pollution&#45;&#45;essor technologique -->
<g id="edge98" class="edge">
<title>pollution&#45;&#45;essor technologique</title>
<path fill="none" stroke="darkgrey" stroke-width="3.07" d="M418.63,-253.5C447.46,-273.41 499.18,-309.14 524.62,-326.71"/>
</g>
<!-- pollution&#45;&#45;risque -->
<g id="edge99" class="edge">
<title>pollution&#45;&#45;risque</title>
<path fill="none" stroke="darkgrey" stroke-width="1.13" d="M372.98,-237.94C293.77,-233.71 53.19,-220.85 38.23,-220.05"/>
</g>
<!-- pollution&#45;&#45;nouvelle&#45;calédonie -->
<g id="edge93" class="edge">
<title>pollution&#45;&#45;nouvelle&#45;calédonie</title>
<path fill="none" stroke="darkgrey" stroke-width="1.44" d="M418.61,-253.97C467.09,-288.61 586.59,-374 614.82,-394.17"/>
</g>
<!-- ressource minière&#45;&#45;dégradation environnementale -->
<g id="edge100" class="edge">
<title>ressource minière&#45;&#45;dégradation environnementale</title>
<path fill="none" stroke="darkgrey" stroke-width="6.69" d="M470.32,-257.59C471.33,-268.43 472.52,-281.32 473.62,-293.14"/>
</g>
<!-- ressource minière&#45;&#45;nature -->
<g id="edge101" class="edge">
<title>ressource minière&#45;&#45;nature</title>
<path fill="none" stroke="darkgrey" stroke-width="1.13" d="M461.25,-208.1C453.43,-179.82 440.87,-134.43 435.16,-113.8"/>
</g>
<!-- ressource minière&#45;&#45;société néo&#45;calédonienne -->
<g id="edge102" class="edge">
<title>ressource minière&#45;&#45;société néo&#45;calédonienne</title>
<path fill="none" stroke="darkgrey" stroke-width="1.38" d="M483.72,-212.91C490.4,-204.6 497.97,-195.2 503.73,-188.04"/>
</g>
<!-- ressource minière&#45;&#45;alternative au développement -->
<g id="edge104" class="edge">
<title>ressource minière&#45;&#45;alternative au développement</title>
<path fill="none" stroke="darkgrey" stroke-width="5.19" d="M490.04,-244.29C507.08,-253.44 530.71,-266.13 548.63,-275.75"/>
</g>
<!-- ressource minière&#45;&#45;nickel -->
<g id="edge105" class="edge">
<title>ressource minière&#45;&#45;nickel</title>
<path fill="none" stroke="darkgrey" stroke-width="1.51" d="M460.69,-256.58C450.33,-290.78 431.97,-351.46 425.83,-371.74"/>
</g>
<!-- ressource minière&#45;&#45;économie -->
<g id="edge106" class="edge">
<title>ressource minière&#45;&#45;économie</title>
<path fill="none" stroke="darkgrey" stroke-width="3.9" d="M450.63,-250.7C431.85,-270.45 402.38,-301.44 385.79,-318.88"/>
</g>
<!-- ressource minière&#45;&#45;amélioration environnementale -->
<g id="edge107" class="edge">
<title>ressource minière&#45;&#45;amélioration environnementale</title>
<path fill="none" stroke="darkgrey" stroke-width="2.01" d="M446.79,-218.73C427.59,-206.29 400.2,-188.55 385.97,-179.34"/>
</g>
<!-- ressource minière&#45;&#45;essor technologique -->
<g id="edge108" class="edge">
<title>ressource minière&#45;&#45;essor technologique</title>
<path fill="none" stroke="darkgrey" stroke-width="4.26" d="M482.13,-253.12C496.07,-273.48 517.02,-304.09 529.4,-322.17"/>
</g>
<!-- ressource minière&#45;&#45;nouvelle&#45;calédonie -->
<g id="edge103" class="edge">
<title>ressource minière&#45;&#45;nouvelle&#45;calédonie</title>
<path fill="none" stroke="darkgrey" stroke-width="1.68" d="M484.93,-250.86C519.3,-288.18 595.64,-371.09 615.87,-393.06"/>
</g>
<!-- ressource minière&#45;&#45;échange commercial -->
<g id="edge109" class="edge">
<title>ressource minière&#45;&#45;échange commercial</title>
<path fill="none" stroke="darkgrey" stroke-width="1.06" d="M478.21,-209.37C503.18,-152.99 565.56,-12.09 570.4,-1.17"/>
</g>
<!-- dégradation environnementale&#45;&#45;nature -->
<g id="edge110" class="edge">
<title>dégradation environnementale&#45;&#45;nature</title>
<path fill="none" stroke="darkgrey" stroke-width="3.9" d="M469.96,-293.73C459.62,-241.57 440.81,-146.62 434.39,-114.18"/>
</g>
<!-- dégradation environnementale&#45;&#45;société néo&#45;calédonienne -->
<g id="edge111" class="edge">
<title>dégradation environnementale&#45;&#45;société néo&#45;calédonienne</title>
<path fill="none" stroke="darkgrey" stroke-width="3.06" d="M485.3,-293.69C493.03,-260.96 504.13,-213.97 509.62,-190.71"/>
</g>
<!-- dégradation environnementale&#45;&#45;alternative au développement -->
<g id="edge113" class="edge">
<title>dégradation environnementale&#45;&#45;alternative au développement</title>
<path fill="none" stroke="darkgrey" stroke-width="5.28" d="M510.49,-315.47C522.49,-310.61 535.86,-305.19 547.25,-300.58"/>
</g>
<!-- dégradation environnementale&#45;&#45;nickel -->
<g id="edge114" class="edge">
<title>dégradation environnementale&#45;&#45;nickel</title>
<path fill="none" stroke="darkgrey" stroke-width="2.49" d="M450.36,-353.8C442.26,-361.34 434.16,-368.88 429.06,-373.62"/>
</g>
<!-- dégradation environnementale&#45;&#45;économie -->
<g id="edge115" class="edge">
<title>dégradation environnementale&#45;&#45;économie</title>
<path fill="none" stroke="darkgrey" stroke-width="6.54" d="M440.72,-330.06C424.04,-330.53 404.98,-331.05 391.4,-331.43"/>
</g>
<!-- dégradation environnementale&#45;&#45;amélioration environnementale -->
<g id="edge116" class="edge">
<title>dégradation environnementale&#45;&#45;amélioration environnementale</title>
<path fill="none" stroke="darkgrey" stroke-width="2.98" d="M457.36,-298.65C434.2,-262.69 396.97,-204.91 382.55,-182.53"/>
</g>
<!-- dégradation environnementale&#45;&#45;essor technologique -->
<g id="edge117" class="edge">
<title>dégradation environnementale&#45;&#45;essor technologique</title>
<path fill="none" stroke="darkgrey" stroke-width="3.7" d="M513.02,-333.66C515.96,-334.03 518.84,-334.4 521.56,-334.75"/>
</g>
<!-- dégradation environnementale&#45;&#45;nouvelle&#45;calédonie -->
<g id="edge112" class="edge">
<title>dégradation environnementale&#45;&#45;nouvelle&#45;calédonie</title>
<path fill="none" stroke="darkgrey" stroke-width="1.58" d="M509.61,-344.81C544.11,-361.46 596,-386.49 614.24,-395.29"/>
</g>
<!-- dégradation environnementale&#45;&#45;matériel -->
<g id="edge118" class="edge">
<title>dégradation environnementale&#45;&#45;matériel</title>
<path fill="none" stroke="darkgrey" stroke-width="1.16" d="M498.4,-358.02C548.81,-426.1 671.17,-591.36 678.77,-601.63"/>
</g>
<!-- nature&#45;&#45;société néo&#45;calédonienne -->
<g id="edge119" class="edge">
<title>nature&#45;&#45;société néo&#45;calédonienne</title>
<path fill="none" stroke="darkgrey" stroke-width="1.92" d="M440.51,-110.57C455.19,-123.94 485.61,-151.66 501.98,-166.57"/>
</g>
<!-- nature&#45;&#45;alternative au développement -->
<g id="edge120" class="edge">
<title>nature&#45;&#45;alternative au développement</title>
<path fill="none" stroke="darkgrey" stroke-width="1.6" d="M439.03,-111.97C460.23,-139.78 525.15,-224.96 556.75,-266.42"/>
</g>
<!-- nature&#45;&#45;économie -->
<g id="edge121" class="edge">
<title>nature&#45;&#45;économie</title>
<path fill="none" stroke="darkgrey" stroke-width="1.04" d="M429.41,-113.71C420.06,-150.13 389.47,-269.24 377.88,-314.38"/>
</g>
<!-- nature&#45;&#45;amélioration environnementale -->
<g id="edge122" class="edge">
<title>nature&#45;&#45;amélioration environnementale</title>
<path fill="none" stroke="darkgrey" stroke-width="1.19" d="M425.13,-111.87C414.49,-125.32 394.44,-150.67 383.73,-164.2"/>
</g>
<!-- nature&#45;&#45;essor technologique -->
<g id="edge123" class="edge">
<title>nature&#45;&#45;essor technologique</title>
<path fill="none" stroke="darkgrey" stroke-width="1.22" d="M436.78,-113.03C453.53,-149.52 511.19,-275.17 532.01,-320.54"/>
</g>
<!-- société néo&#45;calédonienne&#45;&#45;alternative au développement -->
<g id="edge125" class="edge">
<title>société néo&#45;calédonienne&#45;&#45;alternative au développement</title>
<path fill="none" stroke="darkgrey" stroke-width="3.29" d="M520.01,-189.54C529.84,-207.62 547.89,-240.82 560.49,-263.99"/>
</g>
<!-- société néo&#45;calédonienne&#45;&#45;nickel -->
<g id="edge126" class="edge">
<title>société néo&#45;calédonienne&#45;&#45;nickel</title>
<path fill="none" stroke="darkgrey" stroke-width="2.22" d="M506.97,-190.14C489.55,-229.59 439.34,-343.27 426.69,-371.93"/>
</g>
<!-- société néo&#45;calédonienne&#45;&#45;économie -->
<g id="edge127" class="edge">
<title>société néo&#45;calédonienne&#45;&#45;économie</title>
<path fill="none" stroke="darkgrey" stroke-width="3.08" d="M502.92,-187.75C477.92,-215.58 412.91,-287.93 385.67,-318.25"/>
</g>
<!-- société néo&#45;calédonienne&#45;&#45;amélioration environnementale -->
<g id="edge128" class="edge">
<title>société néo&#45;calédonienne&#45;&#45;amélioration environnementale</title>
<path fill="none" stroke="darkgrey" stroke-width="1.03" d="M498.36,-176.22C471.01,-175.55 412.59,-174.13 387.93,-173.53"/>
</g>
<!-- société néo&#45;calédonienne&#45;&#45;nouvelle&#45;calédonie -->
<g id="edge124" class="edge">
<title>société néo&#45;calédonienne&#45;&#45;nouvelle&#45;calédonie</title>
<path fill="none" stroke="darkgrey" stroke-width="1.79" d="M519.39,-189.79C539.81,-231.78 602.73,-361.18 617.66,-391.9"/>
</g>
<!-- alternative au développement&#45;&#45;nickel -->
<g id="edge132" class="edge">
<title>alternative au développement&#45;&#45;nickel</title>
<path fill="none" stroke="darkgrey" stroke-width="2.25" d="M549.19,-304.47C513.34,-325.64 449.78,-363.18 429.89,-374.93"/>
</g>
<!-- alternative au développement&#45;&#45;économie -->
<g id="edge133" class="edge">
<title>alternative au développement&#45;&#45;économie</title>
<path fill="none" stroke="darkgrey" stroke-width="5.62" d="M545.6,-295.65C503.36,-304.55 425.89,-320.87 391.1,-328.2"/>
</g>
<!-- alternative au développement&#45;&#45;amélioration environnementale -->
<g id="edge134" class="edge">
<title>alternative au développement&#45;&#45;amélioration environnementale</title>
<path fill="none" stroke="darkgrey" stroke-width="4.58" d="M549.35,-274.85C505.26,-248.92 415.71,-196.26 386.22,-178.92"/>
</g>
<!-- alternative au développement&#45;&#45;essor technologique -->
<g id="edge136" class="edge">
<title>alternative au développement&#45;&#45;essor technologique</title>
<path fill="none" stroke="darkgrey" stroke-width="4.43" d="M557.2,-313.04C554.87,-316.21 552.53,-319.4 550.36,-322.36"/>
</g>
<!-- alternative au développement&#45;&#45;foncier -->
<g id="edge135" class="edge">
<title>alternative au développement&#45;&#45;foncier</title>
<path fill="none" stroke="darkgrey" stroke-width="1" d="M602.73,-283.23C683.98,-265.01 912.95,-213.67 927.18,-210.48"/>
</g>
<!-- nickel&#45;&#45;économie -->
<g id="edge137" class="edge">
<title>nickel&#45;&#45;économie</title>
<path fill="none" stroke="darkgrey" stroke-width="1.61" d="M418.37,-373.56C410.86,-366.61 396.99,-353.78 386.63,-344.2"/>
</g>
<!-- nickel&#45;&#45;amélioration environnementale -->
<g id="edge138" class="edge">
<title>nickel&#45;&#45;amélioration environnementale</title>
<path fill="none" stroke="darkgrey" stroke-width="1.37" d="M422.2,-371.72C415.29,-341.66 387.56,-221.03 379.06,-184.07"/>
</g>
<!-- nickel&#45;&#45;essor technologique -->
<g id="edge139" class="edge">
<title>nickel&#45;&#45;essor technologique</title>
<path fill="none" stroke="darkgrey" stroke-width="1.23" d="M430.67,-376.08C448.49,-369.69 496.49,-352.49 522.41,-343.2"/>
</g>
<!-- nickel&#45;&#45;échange commercial -->
<g id="edge140" class="edge">
<title>nickel&#45;&#45;échange commercial</title>
<path fill="none" stroke="darkgrey" stroke-width="1.02" d="M426.32,-371.99C445.37,-322.96 564.9,-15.41 570.49,-1.02"/>
</g>
<!-- économie&#45;&#45;amélioration environnementale -->
<g id="edge141" class="edge">
<title>économie&#45;&#45;amélioration environnementale</title>
<path fill="none" stroke="darkgrey" stroke-width="1.8" d="M373.74,-313.73C374.4,-280.68 375.8,-211.71 376.35,-184.57"/>
</g>
<!-- économie&#45;&#45;essor technologique -->
<g id="edge142" class="edge">
<title>économie&#45;&#45;essor technologique</title>
<path fill="none" stroke="darkgrey" stroke-width="1.55" d="M391.47,-332.49C423.45,-333.47 489.55,-335.51 521.5,-336.49"/>
</g>
<!-- amélioration environnementale&#45;&#45;essor technologique -->
<g id="edge143" class="edge">
<title>amélioration environnementale&#45;&#45;essor technologique</title>
<path fill="none" stroke="darkgrey" stroke-width="2.15" d="M384.44,-181.15C410.51,-207.35 494.31,-291.56 526.67,-324.07"/>
</g>
<!-- essor technologique&#45;&#45;matériel -->
<g id="edge144" class="edge">
<title>essor technologique&#45;&#45;matériel</title>
<path fill="none" stroke="darkgrey" stroke-width="1.15" d="M548.1,-353.23C577.46,-408.99 672.91,-590.3 678.85,-601.58"/>
</g>
<!-- nouvelle&#45;calédonie&#45;&#45;alternative au développement -->
<g id="edge129" class="edge">
<title>nouvelle&#45;calédonie&#45;&#45;alternative au développement</title>
<path fill="none" stroke="darkgrey" stroke-width="2.3" d="M618.1,-392.01C611.89,-377.44 596.54,-341.46 585.79,-316.28"/>
</g>
<!-- nouvelle&#45;calédonie&#45;&#45;économie -->
<g id="edge130" class="edge">
<title>nouvelle&#45;calédonie&#45;&#45;économie</title>
<path fill="none" stroke="darkgrey" stroke-width="1.9" d="M613.99,-396.64C581.28,-387.85 440.96,-350.11 391.06,-336.69"/>
</g>
<!-- nouvelle&#45;calédonie&#45;&#45;essor technologique -->
<g id="edge131" class="edge">
<title>nouvelle&#45;calédonie&#45;&#45;essor technologique</title>
<path fill="none" stroke="darkgrey" stroke-width="1.14" d="M615.28,-394.27C602.8,-384.83 572.32,-361.79 554.07,-348"/>
</g>
<!-- exploitation minière&#45;&#45;politique -->
<g id="edge40" class="edge">
<title>exploitation minière&#45;&#45;politique</title>
<path fill="none" stroke="darkgrey" stroke-width="1.29" d="M647.91,-119.29C620.17,-132.6 430.54,-223.63 368.35,-253.48"/>
</g>
<!-- exploitation minière&#45;&#45;secteur nickel -->
<g id="edge41" class="edge">
<title>exploitation minière&#45;&#45;secteur nickel</title>
<path fill="none" stroke="darkgrey" stroke-width="1.52" d="M649.06,-120.53C640.03,-132.09 605.95,-175.73 586.75,-200.3"/>
</g>
<!-- exploitation minière&#45;&#45;pollution -->
<g id="edge42" class="edge">
<title>exploitation minière&#45;&#45;pollution</title>
<path fill="none" stroke="darkgrey" stroke-width="1.3" d="M648.1,-119.19C624.57,-130.49 477.69,-201.03 420.65,-228.42"/>
</g>
<!-- exploitation minière&#45;&#45;ressource minière -->
<g id="edge43" class="edge">
<title>exploitation minière&#45;&#45;ressource minière</title>
<path fill="none" stroke="darkgrey" stroke-width="1.54" d="M648.12,-119.65C629.39,-131.38 532.82,-191.86 489.3,-219.11"/>
</g>
<!-- exploitation minière&#45;&#45;dégradation environnementale -->
<g id="edge44" class="edge">
<title>exploitation minière&#45;&#45;dégradation environnementale</title>
<path fill="none" stroke="darkgrey" stroke-width="1.15" d="M648.84,-120.64C632.86,-140.01 543.28,-248.63 500.16,-300.92"/>
</g>
<!-- exploitation minière&#45;&#45;société néo&#45;calédonienne -->
<g id="edge45" class="edge">
<title>exploitation minière&#45;&#45;société néo&#45;calédonienne</title>
<path fill="none" stroke="darkgrey" stroke-width="1.18" d="M647.89,-119.11C631.16,-126.23 557.52,-157.59 526.65,-170.74"/>
</g>
<!-- exploitation minière&#45;&#45;alternative au développement -->
<g id="edge46" class="edge">
<title>exploitation minière&#45;&#45;alternative au développement</title>
<path fill="none" stroke="darkgrey" stroke-width="1.66" d="M649.84,-120.94C642.09,-138.25 605.59,-219.84 586.35,-262.87"/>
</g>
<!-- avenir sans nickel -->
<g id="node1" class="node">
<title>avenir sans nickel</title>
<ellipse fill="#f98e09" stroke="white" stroke-width="0" cx="281.86" cy="-273.49" rx="29" ry="29"/>
<text text-anchor="middle" x="141.36" y="-309.65" font-family="Helvetica,sans-Serif" font-size="24.80" fill="#4d4d4d">avenir sans nickel</text>
</g>
<!-- industrie -->
<g id="node2" class="node">
<title>industrie</title>
<ellipse fill="#08051d" stroke="white" stroke-width="0" cx="261.66" cy="-465.58" rx="3.5" ry="3.5"/>
<text text-anchor="middle" x="228.66" y="-473.2" font-family="Helvetica,sans-Serif" font-size="13.60" fill="#4d4d4d">industrie</text>
</g>
<!-- travail -->
<g id="node3" class="node">
<title>travail</title>
<ellipse fill="#bf3952" stroke="white" stroke-width="0" cx="482.91" cy="-405.62" rx="18" ry="18"/>
<text text-anchor="middle" x="433.41" y="-429.62" font-family="Helvetica,sans-Serif" font-size="20.00" fill="#4d4d4d">travail</text>
</g>
<!-- politique -->
<g id="node4" class="node">
<title>politique</title>
<ellipse fill="#cf4446" stroke="white" stroke-width="0" cx="348.63" cy="-262.95" rx="21.5" ry="21.5"/>
<text text-anchor="middle" x="280.13" y="-224.17" font-family="Helvetica,sans-Serif" font-size="21.60" fill="#4d4d4d">politique</text>
</g>
<!-- secteur nickel -->
<g id="node5" class="node">
<title>secteur nickel</title>
<ellipse fill="#cc4248" stroke="white" stroke-width="0" cx="573.4" cy="-217.4" rx="21.5" ry="21.5"/>
<text text-anchor="middle" x="627.4" y="-178.62" font-family="Helvetica,sans-Serif" font-size="21.60" fill="#4d4d4d">secteur nickel</text>
</g>
<!-- relation politique -->
<g id="node6" class="node">
<title>relation politique</title>
<ellipse fill="#160b39" stroke="white" stroke-width="0" cx="306.96" cy="-128.35" rx="3.5" ry="3.5"/>
<text text-anchor="middle" x="245.96" y="-135.97" font-family="Helvetica,sans-Serif" font-size="13.60" fill="#4d4d4d">relation politique</text>
</g>
<!-- avenir avec nickel -->
<g id="node7" class="node">
<title>avenir avec nickel</title>
<ellipse fill="#550f6d" stroke="white" stroke-width="0" cx="331.48" cy="-396.67" rx="11" ry="11"/>
<text text-anchor="middle" x="244.98" y="-412.23" font-family="Helvetica,sans-Serif" font-size="16.80" fill="#4d4d4d">avenir avec nickel</text>
</g>
<!-- pollution -->
<g id="node8" class="node">
<title>pollution</title>
<ellipse fill="#eb6628" stroke="white" stroke-width="0" cx="398.05" cy="-239.28" rx="25" ry="25"/>
<text text-anchor="middle" x="321.55" y="-195.72" font-family="Helvetica,sans-Serif" font-size="23.20" fill="#4d4d4d">pollution</text>
</g>
<!-- ressource minière -->
<g id="node9" class="node">
<title>ressource minière</title>
<ellipse fill="#f1731d" stroke="white" stroke-width="0" cx="467.99" cy="-232.46" rx="25" ry="25"/>
<text text-anchor="middle" x="597.49" y="-214.9" font-family="Helvetica,sans-Serif" font-size="23.20" fill="#4d4d4d">ressource minière</text>
</g>
<!-- dégradation environnementale -->
<g id="node10" class="node">
<title>dégradation environnementale</title>
<ellipse fill="#fcffa4" stroke="white" stroke-width="0" cx="476.95" cy="-329.06" rx="36" ry="36"/>
<text text-anchor="middle" x="730.95" y="-373.66" font-family="Helvetica,sans-Serif" font-size="28.00" fill="#4d4d4d">dégradation environnementale</text>
</g>
<!-- nature -->
<g id="node11" class="node">
<title>nature</title>
<ellipse fill="#520e6d" stroke="white" stroke-width="0" cx="432.17" cy="-102.97" rx="11" ry="11"/>
<text text-anchor="middle" x="393.17" y="-118.53" font-family="Helvetica,sans-Serif" font-size="16.80" fill="#4d4d4d">nature</text>
</g>
<!-- société néo&#45;calédonienne -->
<g id="node12" class="node">
<title>société néo&#45;calédonienne</title>
<ellipse fill="#902568" stroke="white" stroke-width="0" cx="512.96" cy="-176.57" rx="14.5" ry="14.5"/>
<text text-anchor="middle" x="617.46" y="-147.35" font-family="Helvetica,sans-Serif" font-size="18.40" fill="#4d4d4d">société néo&#45;calédonienne</text>
</g>
<!-- alternative au développement -->
<g id="node13" class="node">
<title>alternative au développement</title>
<ellipse fill="#fa9008" stroke="white" stroke-width="0" cx="574.4" cy="-289.58" rx="29" ry="29"/>
<text text-anchor="middle" x="790.9" y="-325.74" font-family="Helvetica,sans-Serif" font-size="24.80" fill="#4d4d4d">alternative au développement</text>
</g>
<!-- nickel -->
<g id="node14" class="node">
<title>nickel</title>
<ellipse fill="#310a5c" stroke="white" stroke-width="0" cx="423.77" cy="-378.55" rx="7" ry="7"/>
<text text-anchor="middle" x="394.27" y="-390.39" font-family="Helvetica,sans-Serif" font-size="15.20" fill="#4d4d4d">nickel</text>
</g>
<!-- économie -->
<g id="node15" class="node">
<title>économie</title>
<ellipse fill="#ae305c" stroke="white" stroke-width="0" cx="373.37" cy="-331.93" rx="18" ry="18"/>
<text text-anchor="middle" x="306.87" y="-355.93" font-family="Helvetica,sans-Serif" font-size="20.00" fill="#4d4d4d">économie</text>
</g>
<!-- amélioration environnementale -->
<g id="node16" class="node">
<title>amélioration environnementale</title>
<ellipse fill="#771c6d" stroke="white" stroke-width="0" cx="376.57" cy="-173.25" rx="11" ry="11"/>
<text text-anchor="middle" x="233.07" y="-166.81" font-family="Helvetica,sans-Serif" font-size="16.80" fill="#4d4d4d">amélioration environnementale</text>
</g>
<!-- essor technologique -->
<g id="node17" class="node">
<title>essor technologique</title>
<ellipse fill="#ad305d" stroke="white" stroke-width="0" cx="539.58" cy="-337.05" rx="18" ry="18"/>
<text text-anchor="middle" x="658.08" y="-303.05" font-family="Helvetica,sans-Serif" font-size="20.00" fill="#4d4d4d">essor technologique</text>
</g>
<!-- risque -->
<g id="node18" class="node">
<title>risque</title>
<ellipse fill="#000004" stroke="white" stroke-width="0" cx="37.5" cy="-220.01" rx="0.5" ry="0.5"/>
<text text-anchor="middle" x="18.5" y="-223.91" font-family="Helvetica,sans-Serif" font-size="12.00" fill="#4d4d4d">risque</text>
</g>
<!-- nouvelle&#45;calédonie -->
<g id="node19" class="node">
<title>nouvelle&#45;calédonie</title>
<ellipse fill="#310a5c" stroke="white" stroke-width="0" cx="620.87" cy="-398.49" rx="7" ry="7"/>
<text text-anchor="middle" x="685.37" y="-410.33" font-family="Helvetica,sans-Serif" font-size="15.20" fill="#4d4d4d">nouvelle&#45;calédonie</text>
</g>
<!-- matériel -->
<g id="node20" class="node">
<title>matériel</title>
<ellipse fill="#010005" stroke="white" stroke-width="0" cx="679.14" cy="-602.13" rx="0.5" ry="0.5"/>
<text text-anchor="middle" x="653.14" y="-606.03" font-family="Helvetica,sans-Serif" font-size="12.00" fill="#4d4d4d">matériel</text>
</g>
<!-- exploitation minière -->
<g id="node21" class="node">
<title>exploitation minière</title>
<ellipse fill="#0e092b" stroke="white" stroke-width="0" cx="651.31" cy="-117.65" rx="3.5" ry="3.5"/>
<text text-anchor="middle" x="579.81" y="-125.27" font-family="Helvetica,sans-Serif" font-size="13.60" fill="#4d4d4d">exploitation minière</text>
</g>
<!-- foncier -->
<g id="node22" class="node">
<title>foncier</title>
<ellipse fill="#010005" stroke="white" stroke-width="0" cx="927.87" cy="-210.32" rx="0.5" ry="0.5"/>
<text text-anchor="middle" x="905.87" y="-214.22" font-family="Helvetica,sans-Serif" font-size="12.00" fill="#4d4d4d">foncier</text>
</g>
<!-- échange commercial -->
<g id="node23" class="node">
<title>échange commercial</title>
<ellipse fill="#02020c" stroke="white" stroke-width="0" cx="570.7" cy="-0.5" rx="0.5" ry="0.5"/>
<text text-anchor="middle" x="506.7" y="-4.4" font-family="Helvetica,sans-Serif" font-size="12.00" fill="#4d4d4d">échange commercial</text>
</g>
</g>
</svg>
