<?xml version="1.0" encoding="UTF-8" standalone="no"?>
<!DOCTYPE svg PUBLIC "-//W3C//DTD SVG 1.1//EN"
 "http://www.w3.org/Graphics/SVG/1.1/DTD/svg11.dtd">
<!-- Generated by graphviz version 2.43.0 (0)
 -->
<!-- Pages: 1 -->
<svg width="565pt" height="322pt"
 viewBox="0.00 0.00 565.30 321.73" xmlns="http://www.w3.org/2000/svg" xmlns:xlink="http://www.w3.org/1999/xlink">
<g id="graph0" class="graph" transform="scale(1 1) rotate(0) translate(4 317.73)">
<polygon fill="white" stroke="transparent" points="-4,4 -4,-317.73 561.3,-317.73 561.3,4 -4,4"/>
<!-- pollution&#45;&#45;emploi -->
<g id="edge1" class="edge">
<title>pollution&#45;&#45;emploi</title>
<path fill="none" stroke="darkgrey" stroke-width="10" d="M252.21,-171.75C252.57,-173.72 252.93,-175.73 253.3,-177.74"/>
</g>
<!-- pollution&#45;&#45;richesse -->
<g id="edge2" class="edge">
<title>pollution&#45;&#45;richesse</title>
<path fill="none" stroke="darkgrey" stroke-width="1.69" d="M268.72,-163.06C283.79,-176.87 303.02,-194.51 313.79,-204.39"/>
</g>
<!-- pollution&#45;&#45;démolition -->
<g id="edge3" class="edge">
<title>pollution&#45;&#45;démolition</title>
<path fill="none" stroke="darkgrey" stroke-width="3.2" d="M228.97,-120.36C203.31,-87.96 157.82,-30.51 143.58,-12.54"/>
</g>
<!-- pollution&#45;&#45;argent -->
<g id="edge4" class="edge">
<title>pollution&#45;&#45;argent</title>
<path fill="none" stroke="darkgrey" stroke-width="1.77" d="M267.89,-122.97C273.38,-117.67 278.82,-112.41 282.62,-108.73"/>
</g>
<!-- pollution&#45;&#45;nickel -->
<g id="edge5" class="edge">
<title>pollution&#45;&#45;nickel</title>
<path fill="none" stroke="darkgrey" stroke-width="4.55" d="M276.11,-144.08C303.47,-144.96 344.4,-146.27 372.9,-147.19"/>
</g>
<!-- pollution&#45;&#45;exploitation -->
<g id="edge6" class="edge">
<title>pollution&#45;&#45;exploitation</title>
<path fill="none" stroke="darkgrey" stroke-width="1.69" d="M271.38,-159.18C301.44,-178.96 351.4,-211.82 374.5,-227.01"/>
</g>
<!-- pollution&#45;&#45;montagne -->
<g id="edge7" class="edge">
<title>pollution&#45;&#45;montagne</title>
<path fill="none" stroke="darkgrey" stroke-width="1.14" d="M270.42,-125.78C296.77,-106.22 337.86,-75.72 352.9,-64.55"/>
</g>
<!-- pollution&#45;&#45;camion -->
<g id="edge8" class="edge">
<title>pollution&#45;&#45;camion</title>
<path fill="none" stroke="darkgrey" stroke-width="1.89" d="M262.98,-118.58C280.09,-92.25 306.36,-51.83 318.08,-33.79"/>
</g>
<!-- pollution&#45;&#45;économie -->
<g id="edge9" class="edge">
<title>pollution&#45;&#45;économie</title>
<path fill="none" stroke="darkgrey" stroke-width="4.51" d="M274.2,-154C282.46,-157.3 291.31,-160.83 298.71,-163.78"/>
</g>
<!-- pollution&#45;&#45;impact environnemental -->
<g id="edge10" class="edge">
<title>pollution&#45;&#45;impact environnemental</title>
<path fill="none" stroke="darkgrey" stroke-width="4.36" d="M262.62,-167.79C275.6,-188.27 293.65,-216.76 304.63,-234.09"/>
</g>
<!-- pollution&#45;&#45;terre -->
<g id="edge11" class="edge">
<title>pollution&#45;&#45;terre</title>
<path fill="none" stroke="darkgrey" stroke-width="1.22" d="M218.09,-146.7C198.64,-149.08 174.47,-152.05 162.71,-153.49"/>
</g>
<!-- pollution&#45;&#45;conflit -->
<g id="edge12" class="edge">
<title>pollution&#45;&#45;conflit</title>
<path fill="none" stroke="darkgrey" stroke-width="1.06" d="M222.94,-159.69C196.3,-178 155.58,-205.98 144.07,-213.89"/>
</g>
<!-- pollution&#45;&#45;développement -->
<g id="edge13" class="edge">
<title>pollution&#45;&#45;développement</title>
<path fill="none" stroke="darkgrey" stroke-width="1.67" d="M220.1,-131.47C178.37,-113.36 102.09,-80.25 95.03,-77.18"/>
</g>
<!-- pollution&#45;&#45;déforestation -->
<g id="edge14" class="edge">
<title>pollution&#45;&#45;déforestation</title>
<path fill="none" stroke="darkgrey" stroke-width="2.06" d="M232.93,-168.55C214.92,-201.05 185.13,-254.77 177.54,-268.47"/>
</g>
<!-- emploi&#45;&#45;richesse -->
<g id="edge15" class="edge">
<title>emploi&#45;&#45;richesse</title>
<path fill="none" stroke="darkgrey" stroke-width="3.4" d="M296.02,-212.6C301.48,-212.47 306.72,-212.34 311.06,-212.24"/>
</g>
<!-- emploi&#45;&#45;argent -->
<g id="edge16" class="edge">
<title>emploi&#45;&#45;argent</title>
<path fill="none" stroke="darkgrey" stroke-width="2.98" d="M268.73,-178.43C274.88,-154.35 282.54,-124.36 285.98,-110.88"/>
</g>
<!-- emploi&#45;&#45;nickel -->
<g id="edge17" class="edge">
<title>emploi&#45;&#45;nickel</title>
<path fill="none" stroke="darkgrey" stroke-width="5.73" d="M292.89,-198.66C317.76,-187.53 351.56,-172.42 375.65,-161.64"/>
</g>
<!-- emploi&#45;&#45;économie -->
<g id="edge18" class="edge">
<title>emploi&#45;&#45;économie</title>
<path fill="none" stroke="darkgrey" stroke-width="7.54" d="M288.45,-191.53C292.98,-188.07 297.48,-184.63 301.48,-181.57"/>
</g>
<!-- emploi&#45;&#45;impact environnemental -->
<g id="edge19" class="edge">
<title>emploi&#45;&#45;impact environnemental</title>
<path fill="none" stroke="darkgrey" stroke-width="5.24" d="M289.93,-233.32C293.09,-235.4 296.19,-237.44 299.07,-239.34"/>
</g>
<!-- emploi&#45;&#45;terre -->
<g id="edge20" class="edge">
<title>emploi&#45;&#45;terre</title>
<path fill="none" stroke="darkgrey" d="M228.25,-195.56C204.78,-182.25 174.67,-165.17 161.85,-157.89"/>
</g>
<!-- emploi&#45;&#45;conflit -->
<g id="edge22" class="edge">
<title>emploi&#45;&#45;conflit</title>
<path fill="none" stroke="darkgrey" stroke-width="2.16" d="M223.49,-214.24C194.27,-214.88 156.23,-215.7 144.53,-215.95"/>
</g>
<!-- emploi&#45;&#45;déforestation -->
<g id="edge23" class="edge">
<title>emploi&#45;&#45;déforestation</title>
<path fill="none" stroke="darkgrey" stroke-width="1.03" d="M229.92,-234.16C210.29,-247.77 186.79,-264.07 178.67,-269.7"/>
</g>
<!-- emploi&#45;&#45;ressource -->
<g id="edge21" class="edge">
<title>emploi&#45;&#45;ressource</title>
<path fill="none" stroke="darkgrey" stroke-width="1.18" d="M291.12,-231.34C323.06,-249.57 370.24,-276.5 387.14,-286.14"/>
</g>
<!-- richesse&#45;&#45;nickel -->
<g id="edge24" class="edge">
<title>richesse&#45;&#45;nickel</title>
<path fill="none" stroke="darkgrey" stroke-width="1.79" d="M331.01,-205.16C342.55,-196.36 363.11,-180.67 379.73,-167.99"/>
</g>
<!-- richesse&#45;&#45;économie -->
<g id="edge25" class="edge">
<title>richesse&#45;&#45;économie</title>
<path fill="none" stroke="darkgrey" stroke-width="1.39" d="M320.36,-200.67C319.79,-196.94 319.15,-192.69 318.53,-188.59"/>
</g>
<!-- richesse&#45;&#45;impact environnemental -->
<g id="edge26" class="edge">
<title>richesse&#45;&#45;impact environnemental</title>
<path fill="none" stroke="darkgrey" stroke-width="1.12" d="M319.79,-223C319.24,-225.68 318.63,-228.6 318.03,-231.5"/>
</g>
<!-- argent&#45;&#45;nickel -->
<g id="edge27" class="edge">
<title>argent&#45;&#45;nickel</title>
<path fill="none" stroke="darkgrey" stroke-width="2.44" d="M294.48,-106.24C309.72,-112 347.87,-126.41 375.22,-136.74"/>
</g>
<!-- nickel&#45;&#45;exploitation -->
<g id="edge28" class="edge">
<title>nickel&#45;&#45;exploitation</title>
<path fill="none" stroke="darkgrey" stroke-width="2.34" d="M398.77,-180.12C395.76,-194.07 392.39,-209.75 390.01,-220.8"/>
</g>
<!-- nickel&#45;&#45;montagne -->
<g id="edge29" class="edge">
<title>nickel&#45;&#45;montagne</title>
<path fill="none" stroke="darkgrey" stroke-width="1.65" d="M390.26,-119.43C380.2,-100.59 367.88,-77.52 362.05,-66.59"/>
</g>
<!-- nickel&#45;&#45;camion -->
<g id="edge30" class="edge">
<title>nickel&#45;&#45;camion</title>
<path fill="none" stroke="darkgrey" stroke-width="2.73" d="M387.74,-121.09C369.55,-93.5 342.37,-52.29 330.27,-33.94"/>
</g>
<!-- nickel&#45;&#45;économie -->
<g id="edge31" class="edge">
<title>nickel&#45;&#45;économie</title>
<path fill="none" stroke="darkgrey" stroke-width="2.9" d="M373.97,-156.12C360.33,-159.52 344.9,-163.36 333.36,-166.23"/>
</g>
<!-- nickel&#45;&#45;impact environnemental -->
<g id="edge32" class="edge">
<title>nickel&#45;&#45;impact environnemental</title>
<path fill="none" stroke="darkgrey" stroke-width="1.72" d="M383.77,-172.47C365.83,-192.34 341.09,-219.75 326.5,-235.92"/>
</g>
<!-- nickel&#45;&#45;ressource -->
<g id="edge37" class="edge">
<title>nickel&#45;&#45;ressource</title>
<path fill="none" stroke="darkgrey" stroke-width="1.04" d="M402.84,-180.7C399.94,-214.31 395.62,-264.43 394.04,-282.73"/>
</g>
<!-- nickel&#45;&#45;roche -->
<g id="edge33" class="edge">
<title>nickel&#45;&#45;roche</title>
<path fill="none" stroke="darkgrey" stroke-width="1.46" d="M407.2,-115.6C408.66,-85.07 410.74,-41.69 411.55,-24.75"/>
</g>
<!-- nickel&#45;&#45;terre rouge -->
<g id="edge34" class="edge">
<title>nickel&#45;&#45;terre rouge</title>
<path fill="none" stroke="darkgrey" stroke-width="1.72" d="M433.07,-130.33C468.11,-107.46 525.88,-69.76 539.77,-60.69"/>
</g>
<!-- nickel&#45;&#45;usine -->
<g id="edge35" class="edge">
<title>nickel&#45;&#45;usine</title>
<path fill="none" stroke="darkgrey" stroke-width="2.77" d="M433.53,-165.28C468.34,-186.55 525.58,-221.52 544.22,-232.91"/>
</g>
<!-- nickel&#45;&#45;sln -->
<g id="edge36" class="edge">
<title>nickel&#45;&#45;sln</title>
<path fill="none" stroke="darkgrey" stroke-width="3.6" d="M423.83,-120.91C445.16,-88.88 479.05,-37.99 490.54,-20.73"/>
</g>
<!-- nickel&#45;&#45;usine du sud -->
<g id="edge38" class="edge">
<title>nickel&#45;&#45;usine du sud</title>
<path fill="none" stroke="darkgrey" stroke-width="1.03" d="M438.07,-143.86C477.61,-138.54 540.14,-130.11 547.8,-129.08"/>
</g>
<!-- nickel&#45;&#45;minerai -->
<g id="edge39" class="edge">
<title>nickel&#45;&#45;minerai</title>
<path fill="none" stroke="darkgrey" stroke-width="2.28" d="M422.56,-175.99C440.27,-205.04 466.81,-248.58 476.51,-264.48"/>
</g>
<!-- exploitation&#45;&#45;impact environnemental -->
<g id="edge40" class="edge">
<title>exploitation&#45;&#45;impact environnemental</title>
<path fill="none" stroke="darkgrey" stroke-width="1.59" d="M372.57,-237.99C361,-240.25 344.67,-243.46 332.24,-245.89"/>
</g>
<!-- exploitation&#45;&#45;ressource -->
<g id="edge41" class="edge">
<title>exploitation&#45;&#45;ressource</title>
<path fill="none" stroke="darkgrey" stroke-width="1.72" d="M388.66,-249.8C389.93,-260.4 391.59,-274.29 392.58,-282.58"/>
</g>
<!-- exploitation&#45;&#45;minerai -->
<g id="edge42" class="edge">
<title>exploitation&#45;&#45;minerai</title>
<path fill="none" stroke="darkgrey" stroke-width="2.15" d="M400.68,-240.4C420.96,-248.09 458.1,-262.18 473.38,-267.98"/>
</g>
<!-- montagne&#45;&#45;roche -->
<g id="edge43" class="edge">
<title>montagne&#45;&#45;roche</title>
<path fill="none" stroke="darkgrey" stroke-width="1.15" d="M364.37,-55.7C374.66,-47.44 396.25,-30.13 406.4,-21.99"/>
</g>
<!-- camion&#45;&#45;roche -->
<g id="edge44" class="edge">
<title>camion&#45;&#45;roche</title>
<path fill="none" stroke="darkgrey" stroke-width="1.08" d="M335.2,-23.67C353.48,-22.22 389.36,-19.37 404.68,-18.16"/>
</g>
<!-- économie&#45;&#45;impact environnemental -->
<g id="edge45" class="edge">
<title>économie&#45;&#45;impact environnemental</title>
<path fill="none" stroke="darkgrey" stroke-width="5.99" d="M315.46,-188.88C315.23,-201.61 314.91,-218.52 314.67,-231.23"/>
</g>
<!-- ressource&#45;&#45;minerai -->
<g id="edge47" class="edge">
<title>ressource&#45;&#45;minerai</title>
<path fill="none" stroke="darkgrey" stroke-width="1.5" d="M400.54,-288.17C416.89,-284.55 457.05,-275.69 473.26,-272.11"/>
</g>
<!-- usine&#45;&#45;minerai -->
<g id="edge46" class="edge">
<title>usine&#45;&#45;minerai</title>
<path fill="none" stroke="darkgrey" stroke-width="1.78" d="M543.83,-239.76C530.55,-246.19 500.32,-260.84 486.88,-267.35"/>
</g>
<!-- pollution -->
<g id="node1" class="node">
<title>pollution</title>
<ellipse fill="#fc9f07" stroke="white" stroke-width="0" cx="247.01" cy="-143.15" rx="29" ry="29"/>
<text text-anchor="middle" x="164.01" y="-179.31" font-family="Helvetica,sans-Serif" font-size="24.80" fill="#4d4d4d">pollution</text>
</g>
<!-- emploi -->
<g id="node2" class="node">
<title>emploi</title>
<ellipse fill="#fcffa4" stroke="white" stroke-width="0" cx="259.79" cy="-213.46" rx="36" ry="36"/>
<text text-anchor="middle" x="176.29" y="-258.06" font-family="Helvetica,sans-Serif" font-size="28.00" fill="#4d4d4d">emploi</text>
</g>
<!-- richesse -->
<g id="node3" class="node">
<title>richesse</title>
<ellipse fill="#5c126e" stroke="white" stroke-width="0" cx="322.07" cy="-211.98" rx="11" ry="11"/>
<text text-anchor="middle" x="368.07" y="-205.54" font-family="Helvetica,sans-Serif" font-size="16.80" fill="#4d4d4d">richesse</text>
</g>
<!-- démolition -->
<g id="node4" class="node">
<title>démolition</title>
<ellipse fill="#260c51" stroke="white" stroke-width="0" cx="139.2" cy="-7" rx="7" ry="7"/>
<text text-anchor="middle" x="91.2" y="-18.84" font-family="Helvetica,sans-Serif" font-size="15.20" fill="#4d4d4d">démolition</text>
</g>
<!-- argent -->
<g id="node5" class="node">
<title>argent</title>
<ellipse fill="#3e0966" stroke="white" stroke-width="0" cx="287.81" cy="-103.72" rx="7" ry="7"/>
<text text-anchor="middle" x="255.81" y="-101.56" font-family="Helvetica,sans-Serif" font-size="15.20" fill="#4d4d4d">argent</text>
</g>
<!-- nickel -->
<g id="node6" class="node">
<title>nickel</title>
<ellipse fill="#f7d340" stroke="white" stroke-width="0" cx="405.64" cy="-148.23" rx="32.5" ry="32.5"/>
<text text-anchor="middle" x="334.64" y="-123.61" font-family="Helvetica,sans-Serif" font-size="26.40" fill="#4d4d4d">nickel</text>
</g>
<!-- exploitation -->
<g id="node7" class="node">
<title>exploitation</title>
<ellipse fill="#85216b" stroke="white" stroke-width="0" cx="386.91" cy="-235.18" rx="14.5" ry="14.5"/>
<text text-anchor="middle" x="456.91" y="-225.96" font-family="Helvetica,sans-Serif" font-size="18.40" fill="#4d4d4d">exploitation</text>
</g>
<!-- montagne -->
<g id="node8" class="node">
<title>montagne</title>
<ellipse fill="#290b55" stroke="white" stroke-width="0" cx="358.67" cy="-60.27" rx="7" ry="7"/>
<text text-anchor="middle" x="312.67" y="-72.11" font-family="Helvetica,sans-Serif" font-size="15.20" fill="#4d4d4d">montagne</text>
</g>
<!-- camion -->
<g id="node9" class="node">
<title>camion</title>
<ellipse fill="#57106e" stroke="white" stroke-width="0" cx="324.08" cy="-24.55" rx="11" ry="11"/>
<text text-anchor="middle" x="282.08" y="-40.11" font-family="Helvetica,sans-Serif" font-size="16.80" fill="#4d4d4d">camion</text>
</g>
<!-- économie -->
<g id="node10" class="node">
<title>économie</title>
<ellipse fill="#b93556" stroke="white" stroke-width="0" cx="315.81" cy="-170.61" rx="18" ry="18"/>
<text text-anchor="middle" x="382.31" y="-194.61" font-family="Helvetica,sans-Serif" font-size="20.00" fill="#4d4d4d">économie</text>
</g>
<!-- impact environnemental -->
<g id="node11" class="node">
<title>impact environnemental</title>
<ellipse fill="#ca404a" stroke="white" stroke-width="0" cx="314.33" cy="-249.4" rx="18" ry="18"/>
<text text-anchor="middle" x="418.33" y="-273.4" font-family="Helvetica,sans-Serif" font-size="20.00" fill="#4d4d4d">impact environnemental</text>
</g>
<!-- terre -->
<g id="node12" class="node">
<title>terre</title>
<ellipse fill="#260c51" stroke="white" stroke-width="0" cx="155.62" cy="-154.36" rx="7" ry="7"/>
<text text-anchor="middle" x="130.12" y="-152.2" font-family="Helvetica,sans-Serif" font-size="15.20" fill="#4d4d4d">terre</text>
</g>
<!-- conflit -->
<g id="node13" class="node">
<title>conflit</title>
<ellipse fill="#210c4a" stroke="white" stroke-width="0" cx="140.95" cy="-216.03" rx="3.5" ry="3.5"/>
<text text-anchor="middle" x="116.45" y="-223.65" font-family="Helvetica,sans-Serif" font-size="13.60" fill="#4d4d4d">conflit</text>
</g>
<!-- développement -->
<g id="node14" class="node">
<title>développement</title>
<ellipse fill="#010005" stroke="white" stroke-width="0" cx="94.5" cy="-76.95" rx="0.5" ry="0.5"/>
<text text-anchor="middle" x="47" y="-80.85" font-family="Helvetica,sans-Serif" font-size="12.00" fill="#4d4d4d">développement</text>
</g>
<!-- déforestation -->
<g id="node15" class="node">
<title>déforestation</title>
<ellipse fill="#0b0724" stroke="white" stroke-width="0" cx="175.74" cy="-271.73" rx="3.5" ry="3.5"/>
<text text-anchor="middle" x="127.24" y="-279.35" font-family="Helvetica,sans-Serif" font-size="13.60" fill="#4d4d4d">déforestation</text>
</g>
<!-- ressource -->
<g id="node16" class="node">
<title>ressource</title>
<ellipse fill="#310a5c" stroke="white" stroke-width="0" cx="393.43" cy="-289.73" rx="7" ry="7"/>
<text text-anchor="middle" x="349.43" y="-301.57" font-family="Helvetica,sans-Serif" font-size="15.20" fill="#4d4d4d">ressource</text>
</g>
<!-- roche -->
<g id="node17" class="node">
<title>roche</title>
<ellipse fill="#3b0964" stroke="white" stroke-width="0" cx="411.89" cy="-17.58" rx="7" ry="7"/>
<text text-anchor="middle" x="383.39" y="-29.42" font-family="Helvetica,sans-Serif" font-size="15.20" fill="#4d4d4d">roche</text>
</g>
<!-- terre rouge -->
<g id="node18" class="node">
<title>terre rouge</title>
<ellipse fill="#0c0826" stroke="white" stroke-width="0" cx="542.85" cy="-58.69" rx="3.5" ry="3.5"/>
<text text-anchor="middle" x="501.35" y="-66.31" font-family="Helvetica,sans-Serif" font-size="13.60" fill="#4d4d4d">terre rouge</text>
</g>
<!-- usine -->
<g id="node19" class="node">
<title>usine</title>
<ellipse fill="#3e0966" stroke="white" stroke-width="0" cx="550.3" cy="-236.63" rx="7" ry="7"/>
<text text-anchor="middle" x="522.3" y="-248.47" font-family="Helvetica,sans-Serif" font-size="15.20" fill="#4d4d4d">usine</text>
</g>
<!-- sln -->
<g id="node20" class="node">
<title>sln</title>
<ellipse fill="#290b55" stroke="white" stroke-width="0" cx="494.5" cy="-14.78" rx="7" ry="7"/>
<text text-anchor="middle" x="476" y="-26.62" font-family="Helvetica,sans-Serif" font-size="15.20" fill="#4d4d4d">sln</text>
</g>
<!-- usine du sud -->
<g id="node21" class="node">
<title>usine du sud</title>
<ellipse fill="#000004" stroke="white" stroke-width="0" cx="548.58" cy="-128.97" rx="0.5" ry="0.5"/>
<text text-anchor="middle" x="510.08" y="-132.87" font-family="Helvetica,sans-Serif" font-size="12.00" fill="#4d4d4d">usine du sud</text>
</g>
<!-- minerai -->
<g id="node22" class="node">
<title>minerai</title>
<ellipse fill="#400a67" stroke="white" stroke-width="0" cx="480.22" cy="-270.57" rx="7" ry="7"/>
<text text-anchor="middle" x="444.22" y="-251.41" font-family="Helvetica,sans-Serif" font-size="15.20" fill="#4d4d4d">minerai</text>
</g>
</g>
</svg>
