<?xml version="1.0" encoding="UTF-8" standalone="no"?>
<!DOCTYPE svg PUBLIC "-//W3C//DTD SVG 1.1//EN"
 "http://www.w3.org/Graphics/SVG/1.1/DTD/svg11.dtd">
<!-- Generated by graphviz version 2.43.0 (0)
 -->
<!-- Pages: 1 -->
<svg width="421pt" height="271pt"
 viewBox="0.00 0.00 421.29 271.33" xmlns="http://www.w3.org/2000/svg" xmlns:xlink="http://www.w3.org/1999/xlink">
<g id="graph0" class="graph" transform="scale(1 1) rotate(0) translate(4 267.33)">
<polygon fill="white" stroke="transparent" points="-4,4 -4,-267.33 417.29,-267.33 417.29,4 -4,4"/>
<!-- emploi&#45;&#45;pollution -->
<g id="edge1" class="edge">
<title>emploi&#45;&#45;pollution</title>
<path fill="none" stroke="darkgrey" stroke-width="7.15" d="M391.28,-131.83C371.45,-131.49 328.91,-130.76 298.02,-130.23"/>
</g>
<!-- pollution&#45;&#45;épuisable -->
<g id="edge2" class="edge">
<title>pollution&#45;&#45;épuisable</title>
<path fill="none" stroke="darkgrey" stroke-width="10" d="M243.39,-160.57C223.35,-193.97 193.81,-243.19 190.2,-249.22"/>
</g>
<!-- pollution&#45;&#45;impact environnemental -->
<g id="edge3" class="edge">
<title>pollution&#45;&#45;impact environnemental</title>
<path fill="none" stroke="darkgrey" d="M244.46,-98.04C228.42,-69.09 205.9,-28.47 197.41,-13.16"/>
</g>
<!-- emploi -->
<g id="node1" class="node">
<title>emploi</title>
<ellipse fill="#5f136e" stroke="white" stroke-width="0" cx="402.29" cy="-132.02" rx="11" ry="11"/>
<text text-anchor="middle" x="362.29" y="-147.58" font-family="Helvetica,sans-Serif" font-size="16.80" fill="#4d4d4d">emploi</text>
</g>
<!-- pollution -->
<g id="node2" class="node">
<title>pollution</title>
<ellipse fill="#fcffa4" stroke="white" stroke-width="0" cx="261.97" cy="-129.62" rx="36" ry="36"/>
<text text-anchor="middle" x="164.47" y="-174.22" font-family="Helvetica,sans-Serif" font-size="28.00" fill="#4d4d4d">pollution</text>
</g>
<!-- épuisable -->
<g id="node3" class="node">
<title>épuisable</title>
<ellipse fill="#000004" stroke="white" stroke-width="0" cx="189.83" cy="-249.83" rx="0.5" ry="0.5"/>
<text text-anchor="middle" x="160.33" y="-253.73" font-family="Helvetica,sans-Serif" font-size="12.00" fill="#4d4d4d">épuisable</text>
</g>
<!-- impact environnemental -->
<g id="node4" class="node">
<title>impact environnemental</title>
<ellipse fill="#380962" stroke="white" stroke-width="0" cx="194" cy="-7" rx="7" ry="7"/>
<text text-anchor="middle" x="93.5" y="-18.84" font-family="Helvetica,sans-Serif" font-size="15.20" fill="#4d4d4d">impact environnemental</text>
</g>
</g>
</svg>
