<?xml version="1.0" encoding="UTF-8" standalone="no"?>
<!DOCTYPE svg PUBLIC "-//W3C//DTD SVG 1.1//EN"
 "http://www.w3.org/Graphics/SVG/1.1/DTD/svg11.dtd">
<!-- Generated by graphviz version 2.43.0 (0)
 -->
<!-- Pages: 1 -->
<svg width="903pt" height="457pt"
 viewBox="0.00 0.00 902.64 456.89" xmlns="http://www.w3.org/2000/svg" xmlns:xlink="http://www.w3.org/1999/xlink">
<g id="graph0" class="graph" transform="scale(1 1) rotate(0) translate(4 452.89)">
<polygon fill="white" stroke="transparent" points="-4,4 -4,-452.89 898.64,-452.89 898.64,4 -4,4"/>
<!-- pollution&#45;&#45;dégradation environnementale -->
<g id="edge1" class="edge">
<title>pollution&#45;&#45;dégradation environnementale</title>
<path fill="none" stroke="darkgrey" stroke-width="10" d="M410.86,-251C417.55,-241.1 426.46,-227.9 434.34,-216.25"/>
</g>
<!-- pollution&#45;&#45;nouvelle&#45;calédonie -->
<g id="edge2" class="edge">
<title>pollution&#45;&#45;nouvelle&#45;calédonie</title>
<path fill="none" stroke="darkgrey" stroke-width="1.37" d="M392.43,-282.5C373.98,-319.37 329.91,-407.47 320.49,-426.3"/>
</g>
<!-- pollution&#45;&#45;travail -->
<g id="edge3" class="edge">
<title>pollution&#45;&#45;travail</title>
<path fill="none" stroke="darkgrey" stroke-width="6.72" d="M388.6,-252.77C372.48,-234.71 343.75,-202.5 325.55,-182.09"/>
</g>
<!-- pollution&#45;&#45;économie -->
<g id="edge4" class="edge">
<title>pollution&#45;&#45;économie</title>
<path fill="none" stroke="darkgrey" stroke-width="5.5" d="M384.57,-257.84C358.27,-244.08 306.2,-216.84 279.69,-202.97"/>
</g>
<!-- pollution&#45;&#45;nickel -->
<g id="edge5" class="edge">
<title>pollution&#45;&#45;nickel</title>
<path fill="none" stroke="darkgrey" stroke-width="4.88" d="M382.48,-266.29C358.85,-266.4 316.97,-266.59 286.71,-266.73"/>
</g>
<!-- pollution&#45;&#45;ressource minière -->
<g id="edge6" class="edge">
<title>pollution&#45;&#45;ressource minière</title>
<path fill="none" stroke="darkgrey" stroke-width="1.92" d="M386.45,-277.57C359.03,-299.59 299.37,-347.52 277.12,-365.4"/>
</g>
<!-- pollution&#45;&#45;politique -->
<g id="edge7" class="edge">
<title>pollution&#45;&#45;politique</title>
<path fill="none" stroke="darkgrey" stroke-width="2.93" d="M394.75,-248.83C389.5,-233.19 381.89,-210.51 377.05,-196.1"/>
</g>
<!-- pollution&#45;&#45;secteur nickel -->
<g id="edge8" class="edge">
<title>pollution&#45;&#45;secteur nickel</title>
<path fill="none" stroke="darkgrey" stroke-width="2.69" d="M417.59,-259.58C436.68,-252.13 467.46,-240.12 486.56,-232.67"/>
</g>
<!-- pollution&#45;&#45;nature -->
<g id="edge9" class="edge">
<title>pollution&#45;&#45;nature</title>
<path fill="none" stroke="darkgrey" stroke-width="3.64" d="M410.53,-281.27C419.13,-294.29 431.41,-312.88 439.42,-324.99"/>
</g>
<!-- pollution&#45;&#45;société néo&#45;calédonienne -->
<g id="edge10" class="edge">
<title>pollution&#45;&#45;société néo&#45;calédonienne</title>
<path fill="none" stroke="darkgrey" stroke-width="1.15" d="M406.02,-248.71C420.9,-200.86 461.62,-69.87 468.82,-46.72"/>
</g>
<!-- pollution&#45;&#45;exploitation minière -->
<g id="edge11" class="edge">
<title>pollution&#45;&#45;exploitation minière</title>
<path fill="none" stroke="darkgrey" stroke-width="2.02" d="M401.2,-284.38C402.2,-314.06 404.18,-372.35 405.1,-399.64"/>
</g>
<!-- pollution&#45;&#45;alternative au développement -->
<g id="edge12" class="edge">
<title>pollution&#45;&#45;alternative au développement</title>
<path fill="none" stroke="darkgrey" stroke-width="1.82" d="M395.42,-248.85C381.11,-200.66 341.49,-67.29 334.48,-43.72"/>
</g>
<!-- pollution&#45;&#45;matériel -->
<g id="edge13" class="edge">
<title>pollution&#45;&#45;matériel</title>
<path fill="none" stroke="darkgrey" stroke-width="2.77" d="M418.14,-271.68C437.76,-277.79 469.16,-287.56 487.26,-293.19"/>
</g>
<!-- pollution&#45;&#45;industrie -->
<g id="edge14" class="edge">
<title>pollution&#45;&#45;industrie</title>
<path fill="none" stroke="darkgrey" stroke-width="2.52" d="M389.38,-280.39C381.95,-289.79 372.23,-302.09 364.76,-311.56"/>
</g>
<!-- pollution&#45;&#45;échange commercial -->
<g id="edge15" class="edge">
<title>pollution&#45;&#45;échange commercial</title>
<path fill="none" stroke="darkgrey" stroke-width="1.04" d="M382.61,-264.32C361.87,-262.13 328.79,-258.65 314.42,-257.14"/>
</g>
<!-- dégradation environnementale&#45;&#45;nouvelle&#45;calédonie -->
<g id="edge16" class="edge">
<title>dégradation environnementale&#45;&#45;nouvelle&#45;calédonie</title>
<path fill="none" stroke="darkgrey" stroke-width="1.51" d="M436.7,-217.78C404.28,-276.05 332.53,-405.01 320.44,-426.74"/>
</g>
<!-- dégradation environnementale&#45;&#45;travail -->
<g id="edge17" class="edge">
<title>dégradation environnementale&#45;&#45;travail</title>
<path fill="none" stroke="darkgrey" stroke-width="7.77" d="M420.34,-183.44C394.19,-178.74 357.87,-172.22 333.89,-167.91"/>
</g>
<!-- dégradation environnementale&#45;&#45;économie -->
<g id="edge18" class="edge">
<title>dégradation environnementale&#45;&#45;économie</title>
<path fill="none" stroke="darkgrey" stroke-width="7.79" d="M420.06,-190.12C380.01,-191.22 313.38,-193.05 281.47,-193.93"/>
</g>
<!-- dégradation environnementale&#45;&#45;nickel -->
<g id="edge19" class="edge">
<title>dégradation environnementale&#45;&#45;nickel</title>
<path fill="none" stroke="darkgrey" stroke-width="9.21" d="M421.9,-201.02C384.79,-215.28 322.57,-239.19 284.18,-253.95"/>
</g>
<!-- dégradation environnementale&#45;&#45;ressource minière -->
<g id="edge20" class="edge">
<title>dégradation environnementale&#45;&#45;ressource minière</title>
<path fill="none" stroke="darkgrey" stroke-width="4.13" d="M429.28,-212.42C387.68,-253.79 302.56,-338.45 276.36,-364.51"/>
</g>
<!-- dégradation environnementale&#45;&#45;politique -->
<g id="edge21" class="edge">
<title>dégradation environnementale&#45;&#45;politique</title>
<path fill="none" stroke="darkgrey" stroke-width="4.16" d="M419.99,-186.43C408.54,-185.44 396.26,-184.39 387.04,-183.59"/>
</g>
<!-- dégradation environnementale&#45;&#45;secteur nickel -->
<g id="edge22" class="edge">
<title>dégradation environnementale&#45;&#45;secteur nickel</title>
<path fill="none" stroke="darkgrey" stroke-width="3.96" d="M478.99,-208.28C482.39,-210.73 485.77,-213.17 488.89,-215.42"/>
</g>
<!-- dégradation environnementale&#45;&#45;nature -->
<g id="edge23" class="edge">
<title>dégradation environnementale&#45;&#45;nature</title>
<path fill="none" stroke="darkgrey" stroke-width="5.45" d="M451.45,-222.07C450.37,-253.4 448.79,-299.17 447.99,-322.43"/>
</g>
<!-- dégradation environnementale&#45;&#45;société néo&#45;calédonienne -->
<g id="edge25" class="edge">
<title>dégradation environnementale&#45;&#45;société néo&#45;calédonienne</title>
<path fill="none" stroke="darkgrey" stroke-width="1.88" d="M456.43,-156.82C460.86,-119.51 467.74,-61.47 469.5,-46.71"/>
</g>
<!-- dégradation environnementale&#45;&#45;exploitation minière -->
<g id="edge26" class="edge">
<title>dégradation environnementale&#45;&#45;exploitation minière</title>
<path fill="none" stroke="darkgrey" stroke-width="3.8" d="M445.86,-221.49C435.48,-271.22 415.99,-364.59 408.57,-400.15"/>
</g>
<!-- dégradation environnementale&#45;&#45;alternative au développement -->
<g id="edge27" class="edge">
<title>dégradation environnementale&#45;&#45;alternative au développement</title>
<path fill="none" stroke="darkgrey" stroke-width="2.14" d="M432.1,-163.6C401.76,-125.63 347.19,-57.36 335.61,-42.88"/>
</g>
<!-- dégradation environnementale&#45;&#45;matériel -->
<g id="edge28" class="edge">
<title>dégradation environnementale&#45;&#45;matériel</title>
<path fill="none" stroke="darkgrey" stroke-width="4.43" d="M466.05,-219.12C475.63,-240.42 488.06,-268.03 495.33,-284.18"/>
</g>
<!-- dégradation environnementale&#45;&#45;industrie -->
<g id="edge31" class="edge">
<title>dégradation environnementale&#45;&#45;industrie</title>
<path fill="none" stroke="darkgrey" stroke-width="3.32" d="M433.45,-215.61C412.82,-244.03 380.73,-288.25 364.11,-311.16"/>
</g>
<!-- dégradation environnementale&#45;&#45;échange commercial -->
<g id="edge33" class="edge">
<title>dégradation environnementale&#45;&#45;échange commercial</title>
<path fill="none" stroke="darkgrey" stroke-width="2.05" d="M422.85,-202.98C388,-219.1 332.62,-244.72 313.84,-253.4"/>
</g>
<!-- dégradation environnementale&#45;&#45;amélioration environnementale -->
<g id="edge24" class="edge">
<title>dégradation environnementale&#45;&#45;amélioration environnementale</title>
<path fill="none" stroke="darkgrey" stroke-width="1.18" d="M483.17,-177.67C558.59,-149.15 749.43,-76.99 777.35,-66.43"/>
</g>
<!-- dégradation environnementale&#45;&#45;foncier -->
<g id="edge29" class="edge">
<title>dégradation environnementale&#45;&#45;foncier</title>
<path fill="none" stroke="darkgrey" stroke-width="2.23" d="M464.28,-158.89C469.47,-145.44 475.11,-130.8 478.31,-122.48"/>
</g>
<!-- dégradation environnementale&#45;&#45;relation politique -->
<g id="edge30" class="edge">
<title>dégradation environnementale&#45;&#45;relation politique</title>
<path fill="none" stroke="darkgrey" stroke-width="1.09" d="M426.36,-169.64C371.48,-128.65 247.83,-36.32 226.99,-20.75"/>
</g>
<!-- dégradation environnementale&#45;&#45;risque -->
<g id="edge32" class="edge">
<title>dégradation environnementale&#45;&#45;risque</title>
<path fill="none" stroke="darkgrey" stroke-width="1.77" d="M420.31,-185.29C330.41,-174.32 81.69,-143.98 49.05,-140"/>
</g>
<!-- dégradation environnementale&#45;&#45;avenir sans nickel -->
<g id="edge34" class="edge">
<title>dégradation environnementale&#45;&#45;avenir sans nickel</title>
<path fill="none" stroke="darkgrey" stroke-width="1.06" d="M484.34,-196.24C583.21,-218.08 879.79,-283.59 893.63,-286.65"/>
</g>
<!-- nouvelle&#45;calédonie&#45;&#45;travail -->
<g id="edge35" class="edge">
<title>nouvelle&#45;calédonie&#45;&#45;travail</title>
<path fill="none" stroke="darkgrey" stroke-width="1.58" d="M318.56,-426.12C317.61,-400.37 312.06,-249.56 309.83,-188.78"/>
</g>
<!-- nouvelle&#45;calédonie&#45;&#45;économie -->
<g id="edge36" class="edge">
<title>nouvelle&#45;calédonie&#45;&#45;économie</title>
<path fill="none" stroke="darkgrey" stroke-width="1.28" d="M317.82,-426.19C312.06,-401.67 279.25,-262.07 267.52,-212.16"/>
</g>
<!-- nouvelle&#45;calédonie&#45;&#45;nickel -->
<g id="edge37" class="edge">
<title>nouvelle&#45;calédonie&#45;&#45;nickel</title>
<path fill="none" stroke="darkgrey" stroke-width="2.81" d="M317.27,-426.48C310.59,-410.53 281.99,-342.17 264.46,-300.27"/>
</g>
<!-- nouvelle&#45;calédonie&#45;&#45;ressource minière -->
<g id="edge38" class="edge">
<title>nouvelle&#45;calédonie&#45;&#45;ressource minière</title>
<path fill="none" stroke="darkgrey" stroke-width="1.32" d="M316.27,-427.11C309.07,-418.84 287.55,-394.15 276.01,-380.92"/>
</g>
<!-- nouvelle&#45;calédonie&#45;&#45;politique -->
<g id="edge39" class="edge">
<title>nouvelle&#45;calédonie&#45;&#45;politique</title>
<path fill="none" stroke="darkgrey" stroke-width="2.06" d="M319.45,-426.38C324.95,-401.06 358.74,-245.43 369.29,-196.83"/>
</g>
<!-- nouvelle&#45;calédonie&#45;&#45;secteur nickel -->
<g id="edge40" class="edge">
<title>nouvelle&#45;calédonie&#45;&#45;secteur nickel</title>
<path fill="none" stroke="darkgrey" stroke-width="1.62" d="M321.31,-427C340.01,-406.39 453.78,-280.95 491.48,-239.39"/>
</g>
<!-- nouvelle&#45;calédonie&#45;&#45;nature -->
<g id="edge41" class="edge">
<title>nouvelle&#45;calédonie&#45;&#45;nature</title>
<path fill="none" stroke="darkgrey" stroke-width="1.09" d="M321.88,-427.59C337.6,-416.27 407.37,-366.06 435.58,-345.76"/>
</g>
<!-- nouvelle&#45;calédonie&#45;&#45;exploitation minière -->
<g id="edge42" class="edge">
<title>nouvelle&#45;calédonie&#45;&#45;exploitation minière</title>
<path fill="none" stroke="darkgrey" stroke-width="1.13" d="M322.43,-429.22C334.12,-427.13 370.49,-420.65 391.05,-416.98"/>
</g>
<!-- nouvelle&#45;calédonie&#45;&#45;industrie -->
<g id="edge43" class="edge">
<title>nouvelle&#45;calédonie&#45;&#45;industrie</title>
<path fill="none" stroke="darkgrey" stroke-width="1.48" d="M319.85,-426.43C324.12,-413.62 339.22,-368.29 347.6,-343.15"/>
</g>
<!-- travail&#45;&#45;économie -->
<g id="edge44" class="edge">
<title>travail&#45;&#45;économie</title>
<path fill="none" stroke="darkgrey" stroke-width="7.78" d="M287.99,-177.65C284.72,-179.88 281.39,-182.15 278.29,-184.26"/>
</g>
<!-- travail&#45;&#45;nickel -->
<g id="edge45" class="edge">
<title>travail&#45;&#45;nickel</title>
<path fill="none" stroke="darkgrey" stroke-width="8.16" d="M296.51,-185.36C288.34,-199.84 277.51,-219.03 268.4,-235.16"/>
</g>
<!-- travail&#45;&#45;ressource minière -->
<g id="edge46" class="edge">
<title>travail&#45;&#45;ressource minière</title>
<path fill="none" stroke="darkgrey" stroke-width="3.32" d="M304.11,-188.2C295.29,-233.81 276.83,-329.31 270.61,-361.47"/>
</g>
<!-- travail&#45;&#45;politique -->
<g id="edge47" class="edge">
<title>travail&#45;&#45;politique</title>
<path fill="none" stroke="darkgrey" stroke-width="4.09" d="M332.92,-170.57C341.49,-173.13 350.87,-175.92 358.34,-178.14"/>
</g>
<!-- travail&#45;&#45;secteur nickel -->
<g id="edge48" class="edge">
<title>travail&#45;&#45;secteur nickel</title>
<path fill="none" stroke="darkgrey" stroke-width="5.04" d="M332.77,-171.1C372.58,-183.9 451.56,-209.3 486.4,-220.5"/>
</g>
<!-- travail&#45;&#45;nature -->
<g id="edge49" class="edge">
<title>travail&#45;&#45;nature</title>
<path fill="none" stroke="darkgrey" stroke-width="3.26" d="M324.53,-183.02C353.55,-219.41 414.93,-296.38 438.24,-325.61"/>
</g>
<!-- travail&#45;&#45;société néo&#45;calédonienne -->
<g id="edge50" class="edge">
<title>travail&#45;&#45;société néo&#45;calédonienne</title>
<path fill="none" stroke="darkgrey" stroke-width="1.77" d="M328.96,-148.44C367.74,-119.48 450.61,-57.61 467.05,-45.34"/>
</g>
<!-- travail&#45;&#45;exploitation minière -->
<g id="edge51" class="edge">
<title>travail&#45;&#45;exploitation minière</title>
<path fill="none" stroke="darkgrey" stroke-width="3.07" d="M318,-187.03C337.88,-238.65 384.71,-360.16 400.38,-400.85"/>
</g>
<!-- travail&#45;&#45;alternative au développement -->
<g id="edge52" class="edge">
<title>travail&#45;&#45;alternative au développement</title>
<path fill="none" stroke="darkgrey" stroke-width="1.23" d="M313.8,-138.77C319.95,-107.85 330.02,-57.23 332.73,-43.6"/>
</g>
<!-- travail&#45;&#45;matériel -->
<g id="edge53" class="edge">
<title>travail&#45;&#45;matériel</title>
<path fill="none" stroke="darkgrey" stroke-width="3.68" d="M329.5,-177.78C369.64,-205.76 457.24,-266.82 489.3,-289.17"/>
</g>
<!-- travail&#45;&#45;industrie -->
<g id="edge56" class="edge">
<title>travail&#45;&#45;industrie</title>
<path fill="none" stroke="darkgrey" stroke-width="3.79" d="M315.55,-187.77C324.59,-220.91 340.57,-279.42 348.52,-308.55"/>
</g>
<!-- travail&#45;&#45;échange commercial -->
<g id="edge58" class="edge">
<title>travail&#45;&#45;échange commercial</title>
<path fill="none" stroke="darkgrey" stroke-width="1.86" d="M308.48,-188.83C308.15,-209.26 307.7,-236.58 307.49,-249.31"/>
</g>
<!-- travail&#45;&#45;foncier -->
<g id="edge54" class="edge">
<title>travail&#45;&#45;foncier</title>
<path fill="none" stroke="darkgrey" stroke-width="1.35" d="M333.18,-156.68C373.19,-145.58 450.87,-124.03 474.17,-117.56"/>
</g>
<!-- travail&#45;&#45;relation politique -->
<g id="edge55" class="edge">
<title>travail&#45;&#45;relation politique</title>
<path fill="none" stroke="darkgrey" stroke-width="1.19" d="M296.18,-141.72C275.27,-106.03 235.01,-37.32 225.86,-21.71"/>
</g>
<!-- travail&#45;&#45;risque -->
<g id="edge57" class="edge">
<title>travail&#45;&#45;risque</title>
<path fill="none" stroke="darkgrey" stroke-width="1.82" d="M283.64,-161.13C223.38,-155.68 74.31,-142.18 49.14,-139.9"/>
</g>
<!-- économie&#45;&#45;nickel -->
<g id="edge59" class="edge">
<title>économie&#45;&#45;nickel</title>
<path fill="none" stroke="darkgrey" stroke-width="6.16" d="M260.17,-212.34C259.15,-218.12 257.97,-224.75 256.8,-231.35"/>
</g>
<!-- économie&#45;&#45;ressource minière -->
<g id="edge60" class="edge">
<title>économie&#45;&#45;ressource minière</title>
<path fill="none" stroke="darkgrey" stroke-width="2.21" d="M263.88,-212.46C264.94,-249.03 267.31,-330.98 268.19,-361.01"/>
</g>
<!-- économie&#45;&#45;politique -->
<g id="edge61" class="edge">
<title>économie&#45;&#45;politique</title>
<path fill="none" stroke="darkgrey" stroke-width="4.61" d="M281.37,-192.43C302.79,-190.06 338.12,-186.14 357.89,-183.95"/>
</g>
<!-- économie&#45;&#45;secteur nickel -->
<g id="edge62" class="edge">
<title>économie&#45;&#45;secteur nickel</title>
<path fill="none" stroke="darkgrey" stroke-width="3.32" d="M281.41,-196.8C326.04,-202.67 441.15,-217.81 485.66,-223.67"/>
</g>
<!-- économie&#45;&#45;nature -->
<g id="edge63" class="edge">
<title>économie&#45;&#45;nature</title>
<path fill="none" stroke="darkgrey" stroke-width="2.58" d="M277.8,-205.63C313.24,-233.11 403.91,-303.41 436,-328.3"/>
</g>
<!-- économie&#45;&#45;société néo&#45;calédonienne -->
<g id="edge64" class="edge">
<title>économie&#45;&#45;société néo&#45;calédonienne</title>
<path fill="none" stroke="darkgrey" stroke-width="1.25" d="M277.88,-183.79C320.85,-152.33 445.71,-60.92 466.85,-45.44"/>
</g>
<!-- économie&#45;&#45;exploitation minière -->
<g id="edge65" class="edge">
<title>économie&#45;&#45;exploitation minière</title>
<path fill="none" stroke="darkgrey" stroke-width="1.78" d="M273.13,-209.54C299.74,-250.7 373.13,-364.17 397.56,-401.96"/>
</g>
<!-- économie&#45;&#45;alternative au développement -->
<g id="edge66" class="edge">
<title>économie&#45;&#45;alternative au développement</title>
<path fill="none" stroke="darkgrey" stroke-width="1.39" d="M270.85,-177.91C286.95,-142.46 324,-60.87 331.91,-43.44"/>
</g>
<!-- économie&#45;&#45;matériel -->
<g id="edge67" class="edge">
<title>économie&#45;&#45;matériel</title>
<path fill="none" stroke="darkgrey" stroke-width="2.12" d="M280.09,-201.68C324.95,-221.12 447.26,-274.13 487.98,-291.78"/>
</g>
<!-- économie&#45;&#45;industrie -->
<g id="edge70" class="edge">
<title>économie&#45;&#45;industrie</title>
<path fill="none" stroke="darkgrey" stroke-width="2.5" d="M273.67,-209.52C291.02,-234.91 325.83,-285.86 343.1,-311.13"/>
</g>
<!-- économie&#45;&#45;échange commercial -->
<g id="edge72" class="edge">
<title>économie&#45;&#45;échange commercial</title>
<path fill="none" stroke="darkgrey" stroke-width="1.57" d="M273.78,-209.11C283.14,-222.28 296.4,-240.95 303.12,-250.4"/>
</g>
<!-- économie&#45;&#45;foncier -->
<g id="edge68" class="edge">
<title>économie&#45;&#45;foncier</title>
<path fill="none" stroke="darkgrey" stroke-width="1.01" d="M280.43,-188.25C325.11,-172.08 444.09,-129.02 474.02,-118.19"/>
</g>
<!-- économie&#45;&#45;relation politique -->
<g id="edge69" class="edge">
<title>économie&#45;&#45;relation politique</title>
<path fill="none" stroke="darkgrey" stroke-width="1.22" d="M259.36,-176.59C250.41,-136.58 229.16,-41.65 224.78,-22.07"/>
</g>
<!-- économie&#45;&#45;risque -->
<g id="edge71" class="edge">
<title>économie&#45;&#45;risque</title>
<path fill="none" stroke="darkgrey" d="M245.89,-190.03C198.84,-178.18 71.44,-146.1 48.92,-140.43"/>
</g>
<!-- nickel&#45;&#45;ressource minière -->
<g id="edge73" class="edge">
<title>nickel&#45;&#45;ressource minière</title>
<path fill="none" stroke="darkgrey" stroke-width="5.39" d="M256.59,-302.58C260.11,-323.13 264.28,-347.55 266.64,-361.35"/>
</g>
<!-- nickel&#45;&#45;politique -->
<g id="edge74" class="edge">
<title>nickel&#45;&#45;politique</title>
<path fill="none" stroke="darkgrey" stroke-width="2.61" d="M280.32,-246.21C305.99,-228.41 341.72,-203.64 360.23,-190.8"/>
</g>
<!-- nickel&#45;&#45;secteur nickel -->
<g id="edge75" class="edge">
<title>nickel&#45;&#45;secteur nickel</title>
<path fill="none" stroke="darkgrey" stroke-width="6.21" d="M286.22,-261.13C341.13,-252.26 444.27,-235.61 485.7,-228.92"/>
</g>
<!-- nickel&#45;&#45;nature -->
<g id="edge76" class="edge">
<title>nickel&#45;&#45;nature</title>
<path fill="none" stroke="darkgrey" stroke-width="5.63" d="M284.81,-279.14C328.68,-294.8 402.64,-321.19 433.4,-332.17"/>
</g>
<!-- nickel&#45;&#45;exploitation minière -->
<g id="edge77" class="edge">
<title>nickel&#45;&#45;exploitation minière</title>
<path fill="none" stroke="darkgrey" stroke-width="7.4" d="M276.81,-291.91C311.38,-324.79 370.54,-381.05 394.77,-404.09"/>
</g>
<!-- nickel&#45;&#45;alternative au développement -->
<g id="edge78" class="edge">
<title>nickel&#45;&#45;alternative au développement</title>
<path fill="none" stroke="darkgrey" stroke-width="1.56" d="M262.91,-232.95C283.78,-175.86 324.4,-64.8 332.13,-43.65"/>
</g>
<!-- nickel&#45;&#45;matériel -->
<g id="edge79" class="edge">
<title>nickel&#45;&#45;matériel</title>
<path fill="none" stroke="darkgrey" stroke-width="5.44" d="M286.44,-271.29C342.53,-278.15 448.44,-291.11 486.92,-295.82"/>
</g>
<!-- nickel&#45;&#45;industrie -->
<g id="edge82" class="edge">
<title>nickel&#45;&#45;industrie</title>
<path fill="none" stroke="darkgrey" stroke-width="8.03" d="M281.9,-284.96C300.32,-295.57 322.81,-308.5 337.56,-316.99"/>
</g>
<!-- nickel&#45;&#45;échange commercial -->
<g id="edge83" class="edge">
<title>nickel&#45;&#45;échange commercial</title>
<path fill="none" stroke="darkgrey" stroke-width="2.58" d="M286.19,-260.3C291.55,-259.31 296.54,-258.39 300.33,-257.69"/>
</g>
<!-- nickel&#45;&#45;foncier -->
<g id="edge80" class="edge">
<title>nickel&#45;&#45;foncier</title>
<path fill="none" stroke="darkgrey" stroke-width="2.08" d="M280.62,-247.13C335.28,-211.26 447.65,-137.53 474.89,-119.65"/>
</g>
<!-- nickel&#45;&#45;relation politique -->
<g id="edge81" class="edge">
<title>nickel&#45;&#45;relation politique</title>
<path fill="none" stroke="darkgrey" stroke-width="1.14" d="M246.67,-231.04C240.01,-168.7 226.78,-44.79 224.36,-22.11"/>
</g>
<!-- ressource minière&#45;&#45;politique -->
<g id="edge84" class="edge">
<title>ressource minière&#45;&#45;politique</title>
<path fill="none" stroke="darkgrey" stroke-width="3.01" d="M273.81,-362.63C291.1,-331.03 345.89,-230.86 365.43,-195.14"/>
</g>
<!-- ressource minière&#45;&#45;secteur nickel -->
<g id="edge85" class="edge">
<title>ressource minière&#45;&#45;secteur nickel</title>
<path fill="none" stroke="darkgrey" stroke-width="1.89" d="M278.02,-366.4C314.18,-343.89 443.39,-263.49 488.18,-235.62"/>
</g>
<!-- ressource minière&#45;&#45;nature -->
<g id="edge86" class="edge">
<title>ressource minière&#45;&#45;nature</title>
<path fill="none" stroke="darkgrey" stroke-width="1.85" d="M279.44,-370.17C310.33,-364.11 398.29,-346.85 433.07,-340.02"/>
</g>
<!-- ressource minière&#45;&#45;exploitation minière -->
<g id="edge87" class="edge">
<title>ressource minière&#45;&#45;exploitation minière</title>
<path fill="none" stroke="darkgrey" stroke-width="2.47" d="M279.27,-375.61C303.89,-383.17 364.3,-401.71 391.69,-410.12"/>
</g>
<!-- ressource minière&#45;&#45;matériel -->
<g id="edge88" class="edge">
<title>ressource minière&#45;&#45;matériel</title>
<path fill="none" stroke="darkgrey" stroke-width="1.9" d="M279.12,-368.91C316.85,-356.8 444.5,-315.83 487.27,-302.11"/>
</g>
<!-- ressource minière&#45;&#45;industrie -->
<g id="edge89" class="edge">
<title>ressource minière&#45;&#45;industrie</title>
<path fill="none" stroke="darkgrey" stroke-width="2.46" d="M278.24,-367.01C292.68,-359.13 319.96,-344.25 337.35,-334.76"/>
</g>
<!-- ressource minière&#45;&#45;échange commercial -->
<g id="edge90" class="edge">
<title>ressource minière&#45;&#45;échange commercial</title>
<path fill="none" stroke="darkgrey" stroke-width="1.5" d="M272.1,-361.62C279.99,-338.08 298.67,-282.35 305.13,-263.08"/>
</g>
<!-- politique&#45;&#45;secteur nickel -->
<g id="edge91" class="edge">
<title>politique&#45;&#45;secteur nickel</title>
<path fill="none" stroke="darkgrey" stroke-width="3.1" d="M386.47,-187.01C410.66,-195.07 460.12,-211.55 486.35,-220.29"/>
</g>
<!-- politique&#45;&#45;nature -->
<g id="edge92" class="edge">
<title>politique&#45;&#45;nature</title>
<path fill="none" stroke="darkgrey" stroke-width="1.4" d="M378.83,-195.54C393.01,-224.8 426.93,-294.8 441.1,-324.03"/>
</g>
<!-- politique&#45;&#45;société néo&#45;calédonienne -->
<g id="edge93" class="edge">
<title>politique&#45;&#45;société néo&#45;calédonienne</title>
<path fill="none" stroke="darkgrey" stroke-width="1.45" d="M381.08,-169.99C402.33,-139.66 456.19,-62.78 467.72,-46.33"/>
</g>
<!-- politique&#45;&#45;exploitation minière -->
<g id="edge94" class="edge">
<title>politique&#45;&#45;exploitation minière</title>
<path fill="none" stroke="darkgrey" stroke-width="1.76" d="M374.51,-196.85C380.47,-238.53 397.57,-358.21 403.53,-399.88"/>
</g>
<!-- politique&#45;&#45;alternative au développement -->
<g id="edge95" class="edge">
<title>politique&#45;&#45;alternative au développement</title>
<path fill="none" stroke="darkgrey" stroke-width="1.45" d="M368.55,-168.18C359.84,-136.43 339.13,-60.94 334.39,-43.69"/>
</g>
<!-- politique&#45;&#45;matériel -->
<g id="edge96" class="edge">
<title>politique&#45;&#45;matériel</title>
<path fill="none" stroke="darkgrey" stroke-width="1.29" d="M383.43,-192.16C407.79,-213.94 466.07,-266.03 490.4,-287.78"/>
</g>
<!-- politique&#45;&#45;industrie -->
<g id="edge99" class="edge">
<title>politique&#45;&#45;industrie</title>
<path fill="none" stroke="darkgrey" stroke-width="2.69" d="M370.49,-196.91C366.98,-223.31 359.57,-279 355.73,-307.85"/>
</g>
<!-- politique&#45;&#45;échange commercial -->
<g id="edge100" class="edge">
<title>politique&#45;&#45;échange commercial</title>
<path fill="none" stroke="darkgrey" stroke-width="1.53" d="M362.83,-193.27C348.69,-209.36 322.8,-238.84 312.14,-250.96"/>
</g>
<!-- politique&#45;&#45;foncier -->
<g id="edge97" class="edge">
<title>politique&#45;&#45;foncier</title>
<path fill="none" stroke="darkgrey" stroke-width="1.16" d="M384.88,-174.69C408.04,-160.47 456.97,-130.41 474.51,-119.63"/>
</g>
<!-- politique&#45;&#45;relation politique -->
<g id="edge98" class="edge">
<title>politique&#45;&#45;relation politique</title>
<path fill="none" stroke="darkgrey" stroke-width="1.77" d="M362.69,-171.59C332.76,-138.56 243.15,-39.67 226.62,-21.41"/>
</g>
<!-- secteur nickel&#45;&#45;nature -->
<g id="edge101" class="edge">
<title>secteur nickel&#45;&#45;nature</title>
<path fill="none" stroke="darkgrey" stroke-width="1.88" d="M495.31,-242.43C484.09,-264.66 464.29,-303.89 454.04,-324.2"/>
</g>
<!-- secteur nickel&#45;&#45;société néo&#45;calédonienne -->
<g id="edge103" class="edge">
<title>secteur nickel&#45;&#45;société néo&#45;calédonienne</title>
<path fill="none" stroke="darkgrey" stroke-width="1.31" d="M500.3,-208.17C492.69,-166.83 474.22,-66.61 470.55,-46.68"/>
</g>
<!-- secteur nickel&#45;&#45;exploitation minière -->
<g id="edge104" class="edge">
<title>secteur nickel&#45;&#45;exploitation minière</title>
<path fill="none" stroke="darkgrey" stroke-width="2.11" d="M495.24,-242.09C476.17,-278.74 429.75,-367.97 412.34,-401.43"/>
</g>
<!-- secteur nickel&#45;&#45;alternative au développement -->
<g id="edge105" class="edge">
<title>secteur nickel&#45;&#45;alternative au développement</title>
<path fill="none" stroke="darkgrey" stroke-width="1.18" d="M491.36,-212.66C455.69,-173.7 353.27,-61.81 335.93,-42.87"/>
</g>
<!-- secteur nickel&#45;&#45;matériel -->
<g id="edge106" class="edge">
<title>secteur nickel&#45;&#45;matériel</title>
<path fill="none" stroke="darkgrey" stroke-width="2.45" d="M503.03,-244.09C502.66,-256.01 502.18,-271.45 501.83,-282.67"/>
</g>
<!-- secteur nickel&#45;&#45;industrie -->
<g id="edge108" class="edge">
<title>secteur nickel&#45;&#45;industrie</title>
<path fill="none" stroke="darkgrey" stroke-width="5.17" d="M488.36,-236.17C459.55,-255.34 397.42,-296.69 368.58,-315.88"/>
</g>
<!-- secteur nickel&#45;&#45;échange commercial -->
<g id="edge109" class="edge">
<title>secteur nickel&#45;&#45;échange commercial</title>
<path fill="none" stroke="darkgrey" stroke-width="2.02" d="M485.49,-228.83C443.74,-235.29 342.2,-251 314.47,-255.29"/>
</g>
<!-- secteur nickel&#45;&#45;amélioration environnementale -->
<g id="edge102" class="edge">
<title>secteur nickel&#45;&#45;amélioration environnementale</title>
<path fill="none" stroke="darkgrey" stroke-width="1.06" d="M519.29,-216.92C573.57,-185.41 751.46,-82.16 777.56,-67"/>
</g>
<!-- secteur nickel&#45;&#45;foncier -->
<g id="edge107" class="edge">
<title>secteur nickel&#45;&#45;foncier</title>
<path fill="none" stroke="darkgrey" stroke-width="1.85" d="M499.95,-208.3C494.87,-183.57 485.89,-139.82 482.39,-122.77"/>
</g>
<!-- nature&#45;&#45;société néo&#45;calédonienne -->
<g id="edge110" class="edge">
<title>nature&#45;&#45;société néo&#45;calédonienne</title>
<path fill="none" stroke="darkgrey" stroke-width="1.35" d="M448.59,-322.62C452.76,-267.93 467.36,-76.61 469.62,-47.05"/>
</g>
<!-- nature&#45;&#45;exploitation minière -->
<g id="edge111" class="edge">
<title>nature&#45;&#45;exploitation minière</title>
<path fill="none" stroke="darkgrey" stroke-width="1.51" d="M440.56,-349.94C432.8,-364.24 420.29,-387.31 412.53,-401.62"/>
</g>
<!-- nature&#45;&#45;matériel -->
<g id="edge112" class="edge">
<title>nature&#45;&#45;matériel</title>
<path fill="none" stroke="darkgrey" stroke-width="3.18" d="M459.17,-328.6C468.09,-322.05 480.32,-313.05 489.32,-306.44"/>
</g>
<!-- nature&#45;&#45;industrie -->
<g id="edge114" class="edge">
<title>nature&#45;&#45;industrie</title>
<path fill="none" stroke="darkgrey" stroke-width="2.49" d="M432.76,-335.45C416.21,-333.5 389.31,-330.31 371.46,-328.2"/>
</g>
<!-- nature&#45;&#45;échange commercial -->
<g id="edge115" class="edge">
<title>nature&#45;&#45;échange commercial</title>
<path fill="none" stroke="darkgrey" stroke-width="1.21" d="M434.55,-329.74C405.28,-312.86 334.86,-272.25 313.57,-259.97"/>
</g>
<!-- nature&#45;&#45;foncier -->
<g id="edge113" class="edge">
<title>nature&#45;&#45;foncier</title>
<path fill="none" stroke="darkgrey" stroke-width="1.47" d="M449.67,-322.66C456.16,-279.73 475.07,-154.54 479.83,-122.98"/>
</g>
<!-- société néo&#45;calédonienne&#45;&#45;matériel -->
<g id="edge116" class="edge">
<title>société néo&#45;calédonienne&#45;&#45;matériel</title>
<path fill="none" stroke="darkgrey" stroke-width="1.51" d="M470.36,-46.8C473.58,-72.88 493.44,-233.49 499.57,-283.04"/>
</g>
<!-- société néo&#45;calédonienne&#45;&#45;relation politique -->
<g id="edge117" class="edge">
<title>société néo&#45;calédonienne&#45;&#45;relation politique</title>
<path fill="none" stroke="darkgrey" stroke-width="1.04" d="M466.05,-42.81C437.2,-39.92 255.82,-21.7 227.65,-18.87"/>
</g>
<!-- exploitation minière&#45;&#45;matériel -->
<g id="edge118" class="edge">
<title>exploitation minière&#45;&#45;matériel</title>
<path fill="none" stroke="darkgrey" stroke-width="2.68" d="M415.13,-402.76C433.58,-380.26 473.96,-331.01 492.15,-308.82"/>
</g>
<!-- exploitation minière&#45;&#45;industrie -->
<g id="edge119" class="edge">
<title>exploitation minière&#45;&#45;industrie</title>
<path fill="none" stroke="darkgrey" stroke-width="2.92" d="M398.11,-401.73C388.73,-385.89 372.68,-358.77 362.55,-341.66"/>
</g>
<!-- exploitation minière&#45;&#45;échange commercial -->
<g id="edge120" class="edge">
<title>exploitation minière&#45;&#45;échange commercial</title>
<path fill="none" stroke="darkgrey" stroke-width="1.83" d="M397.89,-401.99C378.08,-370.13 325.92,-286.23 311.26,-262.64"/>
</g>
<!-- alternative au développement&#45;&#45;industrie -->
<g id="edge121" class="edge">
<title>alternative au développement&#45;&#45;industrie</title>
<path fill="none" stroke="darkgrey" stroke-width="1.07" d="M333.67,-43.75C335.59,-71.41 348.02,-250.1 352.05,-307.98"/>
</g>
<!-- matériel&#45;&#45;industrie -->
<g id="edge123" class="edge">
<title>matériel&#45;&#45;industrie</title>
<path fill="none" stroke="darkgrey" stroke-width="4.07" d="M486.9,-300.37C459.69,-305.6 400.94,-316.89 371.26,-322.6"/>
</g>
<!-- matériel&#45;&#45;échange commercial -->
<g id="edge124" class="edge">
<title>matériel&#45;&#45;échange commercial</title>
<path fill="none" stroke="darkgrey" stroke-width="1.71" d="M487.1,-294.56C448.43,-286.34 342.58,-263.87 314.36,-257.88"/>
</g>
<!-- matériel&#45;&#45;foncier -->
<g id="edge122" class="edge">
<title>matériel&#45;&#45;foncier</title>
<path fill="none" stroke="darkgrey" stroke-width="1.33" d="M499.73,-283.01C495.58,-246.08 484.78,-149.88 481.74,-122.85"/>
</g>
<!-- industrie&#45;&#45;échange commercial -->
<g id="edge127" class="edge">
<title>industrie&#45;&#45;échange commercial</title>
<path fill="none" stroke="darkgrey" stroke-width="1.62" d="M343.34,-310.94C333.31,-295.73 318.36,-273.05 311.31,-262.37"/>
</g>
<!-- foncier&#45;&#45;industrie -->
<g id="edge125" class="edge">
<title>foncier&#45;&#45;industrie</title>
<path fill="none" stroke="darkgrey" stroke-width="2.1" d="M477.25,-121.76C460.21,-149.85 388.71,-267.7 362.76,-310.46"/>
</g>
<!-- relation politique&#45;&#45;échange commercial -->
<g id="edge126" class="edge">
<title>relation politique&#45;&#45;échange commercial</title>
<path fill="none" stroke="darkgrey" stroke-width="1.21" d="M225.16,-21.86C234.18,-47.62 292.34,-213.53 304.96,-249.51"/>
</g>
<!-- pollution -->
<g id="node1" class="node">
<title>pollution</title>
<ellipse fill="#ae305c" stroke="white" stroke-width="0" cx="400.58" cy="-266.21" rx="18" ry="18"/>
<text text-anchor="middle" x="339.58" y="-290.21" font-family="Helvetica,sans-Serif" font-size="20.00" fill="#4d4d4d">pollution</text>
</g>
<!-- dégradation environnementale -->
<g id="node2" class="node">
<title>dégradation environnementale</title>
<ellipse fill="#f1ed71" stroke="white" stroke-width="0" cx="452.59" cy="-189.23" rx="32.5" ry="32.5"/>
<text text-anchor="middle" x="625.59" y="-135.61" font-family="Helvetica,sans-Serif" font-size="26.40" fill="#4d4d4d">dégradation environnementale</text>
</g>
<!-- nouvelle&#45;calédonie -->
<g id="node3" class="node">
<title>nouvelle&#45;calédonie</title>
<ellipse fill="#1e0c45" stroke="white" stroke-width="0" cx="318.69" cy="-429.88" rx="3.5" ry="3.5"/>
<text text-anchor="middle" x="251.19" y="-437.5" font-family="Helvetica,sans-Serif" font-size="13.60" fill="#4d4d4d">nouvelle&#45;calédonie</text>
</g>
<!-- travail -->
<g id="node4" class="node">
<title>travail</title>
<ellipse fill="#eb6429" stroke="white" stroke-width="0" cx="308.9" cy="-163.42" rx="25" ry="25"/>
<text text-anchor="middle" x="246.4" y="-145.86" font-family="Helvetica,sans-Serif" font-size="23.20" fill="#4d4d4d">travail</text>
</g>
<!-- économie -->
<g id="node5" class="node">
<title>économie</title>
<ellipse fill="#ba3655" stroke="white" stroke-width="0" cx="263.35" cy="-194.43" rx="18" ry="18"/>
<text text-anchor="middle" x="196.85" y="-182.43" font-family="Helvetica,sans-Serif" font-size="20.00" fill="#4d4d4d">économie</text>
</g>
<!-- nickel -->
<g id="node6" class="node">
<title>nickel</title>
<ellipse fill="#fcffa4" stroke="white" stroke-width="0" cx="250.49" cy="-266.89" rx="36" ry="36"/>
<text text-anchor="middle" x="173.49" y="-311.49" font-family="Helvetica,sans-Serif" font-size="28.00" fill="#4d4d4d">nickel</text>
</g>
<!-- ressource minière -->
<g id="node7" class="node">
<title>ressource minière</title>
<ellipse fill="#6a176e" stroke="white" stroke-width="0" cx="268.51" cy="-372.31" rx="11" ry="11"/>
<text text-anchor="middle" x="181.51" y="-387.87" font-family="Helvetica,sans-Serif" font-size="16.80" fill="#4d4d4d">ressource minière</text>
</g>
<!-- politique -->
<g id="node8" class="node">
<title>politique</title>
<ellipse fill="#9d2964" stroke="white" stroke-width="0" cx="372.43" cy="-182.34" rx="14.5" ry="14.5"/>
<text text-anchor="middle" x="379.68" y="-153.12" font-family="Helvetica,sans-Serif" font-size="18.40" fill="#4d4d4d">politique</text>
</g>
<!-- secteur nickel -->
<g id="node9" class="node">
<title>secteur nickel</title>
<ellipse fill="#b63458" stroke="white" stroke-width="0" cx="503.59" cy="-226.03" rx="18" ry="18"/>
<text text-anchor="middle" x="555.09" y="-250.03" font-family="Helvetica,sans-Serif" font-size="20.00" fill="#4d4d4d">secteur nickel</text>
</g>
<!-- nature -->
<g id="node10" class="node">
<title>nature</title>
<ellipse fill="#88226a" stroke="white" stroke-width="0" cx="447.48" cy="-337.2" rx="14.5" ry="14.5"/>
<text text-anchor="middle" x="401.98" y="-356.98" font-family="Helvetica,sans-Serif" font-size="18.40" fill="#4d4d4d">nature</text>
</g>
<!-- société néo&#45;calédonienne -->
<g id="node11" class="node">
<title>société néo&#45;calédonienne</title>
<ellipse fill="#190c3e" stroke="white" stroke-width="0" cx="469.91" cy="-43.2" rx="3.5" ry="3.5"/>
<text text-anchor="middle" x="379.91" y="-50.82" font-family="Helvetica,sans-Serif" font-size="13.60" fill="#4d4d4d">société néo&#45;calédonienne</text>
</g>
<!-- exploitation minière -->
<g id="node12" class="node">
<title>exploitation minière</title>
<ellipse fill="#7d1e6d" stroke="white" stroke-width="0" cx="405.6" cy="-414.39" rx="14.5" ry="14.5"/>
<text text-anchor="middle" x="484.6" y="-434.17" font-family="Helvetica,sans-Serif" font-size="18.40" fill="#4d4d4d">exploitation minière</text>
</g>
<!-- alternative au développement -->
<g id="node13" class="node">
<title>alternative au développement</title>
<ellipse fill="#140b34" stroke="white" stroke-width="0" cx="333.42" cy="-40.13" rx="3.5" ry="3.5"/>
<text text-anchor="middle" x="226.92" y="-25.75" font-family="Helvetica,sans-Serif" font-size="13.60" fill="#4d4d4d">alternative au développement</text>
</g>
<!-- matériel -->
<g id="node14" class="node">
<title>matériel</title>
<ellipse fill="#932667" stroke="white" stroke-width="0" cx="501.37" cy="-297.58" rx="14.5" ry="14.5"/>
<text text-anchor="middle" x="525.87" y="-317.36" font-family="Helvetica,sans-Serif" font-size="18.40" fill="#4d4d4d">matériel</text>
</g>
<!-- industrie -->
<g id="node15" class="node">
<title>industrie</title>
<ellipse fill="#b43359" stroke="white" stroke-width="0" cx="353.3" cy="-326.05" rx="18" ry="18"/>
<text text-anchor="middle" x="291.3" y="-314.05" font-family="Helvetica,sans-Serif" font-size="20.00" fill="#4d4d4d">industrie</text>
</g>
<!-- échange commercial -->
<g id="node16" class="node">
<title>échange commercial</title>
<ellipse fill="#390963" stroke="white" stroke-width="0" cx="307.37" cy="-256.39" rx="7" ry="7"/>
<text text-anchor="middle" x="379.37" y="-237.23" font-family="Helvetica,sans-Serif" font-size="15.20" fill="#4d4d4d">échange commercial</text>
</g>
<!-- amélioration environnementale -->
<g id="node17" class="node">
<title>amélioration environnementale</title>
<ellipse fill="#040312" stroke="white" stroke-width="0" cx="780.77" cy="-65.14" rx="3.5" ry="3.5"/>
<text text-anchor="middle" x="671.27" y="-72.76" font-family="Helvetica,sans-Serif" font-size="13.60" fill="#4d4d4d">amélioration environnementale</text>
</g>
<!-- foncier -->
<g id="node18" class="node">
<title>foncier</title>
<ellipse fill="#260c51" stroke="white" stroke-width="0" cx="480.93" cy="-115.69" rx="7" ry="7"/>
<text text-anchor="middle" x="447.93" y="-113.53" font-family="Helvetica,sans-Serif" font-size="15.20" fill="#4d4d4d">foncier</text>
</g>
<!-- relation politique -->
<g id="node19" class="node">
<title>relation politique</title>
<ellipse fill="#0c0826" stroke="white" stroke-width="0" cx="223.98" cy="-18.5" rx="3.5" ry="3.5"/>
<text text-anchor="middle" x="162.98" y="-4.12" font-family="Helvetica,sans-Serif" font-size="13.60" fill="#4d4d4d">relation politique</text>
</g>
<!-- risque -->
<g id="node20" class="node">
<title>risque</title>
<ellipse fill="#050417" stroke="white" stroke-width="0" cx="45.5" cy="-139.57" rx="3.5" ry="3.5"/>
<text text-anchor="middle" x="21" y="-147.19" font-family="Helvetica,sans-Serif" font-size="13.60" fill="#4d4d4d">risque</text>
</g>
<!-- avenir sans nickel -->
<g id="node21" class="node">
<title>avenir sans nickel</title>
<ellipse fill="#000004" stroke="white" stroke-width="0" cx="894.14" cy="-286.76" rx="0.5" ry="0.5"/>
<text text-anchor="middle" x="840.14" y="-290.66" font-family="Helvetica,sans-Serif" font-size="12.00" fill="#4d4d4d">avenir sans nickel</text>
</g>
</g>
</svg>
