<?xml version="1.0" encoding="UTF-8" standalone="no"?>
<!DOCTYPE svg PUBLIC "-//W3C//DTD SVG 1.1//EN"
 "http://www.w3.org/Graphics/SVG/1.1/DTD/svg11.dtd">
<!-- Generated by graphviz version 2.43.0 (0)
 -->
<!-- Pages: 1 -->
<svg width="583pt" height="346pt"
 viewBox="0.00 0.00 583.09 345.67" xmlns="http://www.w3.org/2000/svg" xmlns:xlink="http://www.w3.org/1999/xlink">
<g id="graph0" class="graph" transform="scale(1 1) rotate(0) translate(4 341.67)">
<polygon fill="white" stroke="transparent" points="-4,4 -4,-341.67 579.09,-341.67 579.09,4 -4,4"/>
<!-- emploi&#45;&#45;pollution -->
<g id="edge1" class="edge">
<title>emploi&#45;&#45;pollution</title>
<path fill="none" stroke="darkgrey" stroke-width="9.27" d="M538.91,-150.35C514.09,-150.41 469.08,-150.51 437.28,-150.59"/>
</g>
<!-- pollution&#45;&#45;épuisable -->
<g id="edge2" class="edge">
<title>pollution&#45;&#45;épuisable</title>
<path fill="none" stroke="darkgrey" stroke-width="10" d="M409.97,-185.66C418.16,-218.37 429.97,-265.58 435.82,-288.95"/>
</g>
<!-- pollution&#45;&#45;impact environnemental -->
<g id="edge3" class="edge">
<title>pollution&#45;&#45;impact environnemental</title>
<path fill="none" stroke="darkgrey" stroke-width="7.68" d="M367.51,-164.12C339.51,-175.29 300.83,-190.73 278.92,-199.47"/>
</g>
<!-- pollution&#45;&#45;démolition -->
<g id="edge4" class="edge">
<title>pollution&#45;&#45;démolition</title>
<path fill="none" stroke="darkgrey" stroke-width="5.62" d="M410.56,-115.84C421.71,-74.25 439.15,-9.27 441.28,-1.31"/>
</g>
<!-- pollution&#45;&#45;économie -->
<g id="edge5" class="edge">
<title>pollution&#45;&#45;économie</title>
<path fill="none" stroke="darkgrey" stroke-width="3.9" d="M367.89,-136.56C337.18,-123.55 293.48,-105.04 273.84,-96.71"/>
</g>
<!-- impact environnemental&#45;&#45;économie -->
<g id="edge6" class="edge">
<title>impact environnemental&#45;&#45;économie</title>
<path fill="none" stroke="darkgrey" d="M262.25,-188.19C262.58,-164.36 263.15,-123.12 263.42,-103.44"/>
</g>
<!-- emploi -->
<g id="node1" class="node">
<title>emploi</title>
<ellipse fill="#c13a50" stroke="white" stroke-width="0" cx="557.09" cy="-150.31" rx="18" ry="18"/>
<text text-anchor="middle" x="505.59" y="-174.31" font-family="Helvetica,sans-Serif" font-size="20.00" fill="#4d4d4d">emploi</text>
</g>
<!-- pollution -->
<g id="node2" class="node">
<title>pollution</title>
<ellipse fill="#fcffa4" stroke="white" stroke-width="0" cx="401.21" cy="-150.67" rx="36" ry="36"/>
<text text-anchor="middle" x="303.71" y="-123.27" font-family="Helvetica,sans-Serif" font-size="28.00" fill="#4d4d4d">pollution</text>
</g>
<!-- épuisable -->
<g id="node3" class="node">
<title>épuisable</title>
<ellipse fill="#7c1d6d" stroke="white" stroke-width="0" cx="439.38" cy="-303.17" rx="14.5" ry="14.5"/>
<text text-anchor="middle" x="379.38" y="-322.95" font-family="Helvetica,sans-Serif" font-size="18.40" fill="#4d4d4d">épuisable</text>
</g>
<!-- impact environnemental -->
<g id="node4" class="node">
<title>impact environnemental</title>
<ellipse fill="#ab2f5e" stroke="white" stroke-width="0" cx="262" cy="-206.23" rx="18" ry="18"/>
<text text-anchor="middle" x="122" y="-230.23" font-family="Helvetica,sans-Serif" font-size="20.00" fill="#4d4d4d">impact environnemental</text>
</g>
<!-- démolition -->
<g id="node5" class="node">
<title>démolition</title>
<ellipse fill="#000004" stroke="white" stroke-width="0" cx="441.5" cy="-0.5" rx="0.5" ry="0.5"/>
<text text-anchor="middle" x="409" y="-4.4" font-family="Helvetica,sans-Serif" font-size="12.00" fill="#4d4d4d">démolition</text>
</g>
<!-- économie -->
<g id="node6" class="node">
<title>économie</title>
<ellipse fill="#64156e" stroke="white" stroke-width="0" cx="263.57" cy="-92.36" rx="11" ry="11"/>
<text text-anchor="middle" x="211.07" y="-85.92" font-family="Helvetica,sans-Serif" font-size="16.80" fill="#4d4d4d">économie</text>
</g>
</g>
</svg>
