<?xml version="1.0" encoding="UTF-8" standalone="no"?>
<!DOCTYPE svg PUBLIC "-//W3C//DTD SVG 1.1//EN"
 "http://www.w3.org/Graphics/SVG/1.1/DTD/svg11.dtd">
<!-- Generated by graphviz version 2.43.0 (0)
 -->
<!-- Pages: 1 -->
<svg width="860pt" height="597pt"
 viewBox="0.00 0.00 860.28 596.94" xmlns="http://www.w3.org/2000/svg" xmlns:xlink="http://www.w3.org/1999/xlink">
<g id="graph0" class="graph" transform="scale(1 1) rotate(0) translate(4 592.94)">
<polygon fill="white" stroke="transparent" points="-4,4 -4,-592.94 856.28,-592.94 856.28,4 -4,4"/>
<!-- pollution&#45;&#45;emploi -->
<g id="edge1" class="edge">
<title>pollution&#45;&#45;emploi</title>
<path fill="none" stroke="darkgrey" stroke-width="10" d="M560.35,-341.58C561.33,-341.86 562.32,-342.15 563.3,-342.44"/>
</g>
<!-- pollution&#45;&#45;richesse -->
<g id="edge2" class="edge">
<title>pollution&#45;&#45;richesse</title>
<path fill="none" stroke="darkgrey" stroke-width="1.9" d="M524.78,-361.73C521.27,-374.55 517.33,-388.96 514.71,-398.55"/>
</g>
<!-- pollution&#45;&#45;démolition -->
<g id="edge3" class="edge">
<title>pollution&#45;&#45;démolition</title>
<path fill="none" stroke="darkgrey" stroke-width="3.37" d="M534.29,-362.75C537.54,-416.53 544.3,-528.14 546.08,-557.65"/>
</g>
<!-- pollution&#45;&#45;argent -->
<g id="edge4" class="edge">
<title>pollution&#45;&#45;argent</title>
<path fill="none" stroke="darkgrey" stroke-width="1.98" d="M550.9,-310.57C569.39,-287.59 596.62,-253.72 607.29,-240.46"/>
</g>
<!-- pollution&#45;&#45;nickel -->
<g id="edge5" class="edge">
<title>pollution&#45;&#45;nickel</title>
<path fill="none" stroke="darkgrey" stroke-width="4.69" d="M503.71,-329.48C476.13,-325.69 434.6,-319.98 405.88,-316.04"/>
</g>
<!-- pollution&#45;&#45;exploitation -->
<g id="edge6" class="edge">
<title>pollution&#45;&#45;exploitation</title>
<path fill="none" stroke="darkgrey" stroke-width="1.9" d="M513.42,-355.37C488.13,-384.43 444.44,-434.62 425.06,-456.89"/>
</g>
<!-- pollution&#45;&#45;montagne -->
<g id="edge7" class="edge">
<title>pollution&#45;&#45;montagne</title>
<path fill="none" stroke="darkgrey" stroke-width="1.36" d="M517.98,-308.17C491.66,-262.39 437.47,-168.16 423.15,-143.25"/>
</g>
<!-- pollution&#45;&#45;camion -->
<g id="edge8" class="edge">
<title>pollution&#45;&#45;camion</title>
<path fill="none" stroke="darkgrey" stroke-width="2.09" d="M510.33,-314.06C471.31,-279.98 392.03,-210.75 365.93,-187.96"/>
</g>
<!-- pollution&#45;&#45;économie -->
<g id="edge9" class="edge">
<title>pollution&#45;&#45;économie</title>
<path fill="none" stroke="darkgrey" stroke-width="4.65" d="M544.22,-360.28C555.35,-385.8 571.75,-423.38 581.11,-444.84"/>
</g>
<!-- pollution&#45;&#45;impact environnemental -->
<g id="edge10" class="edge">
<title>pollution&#45;&#45;impact environnemental</title>
<path fill="none" stroke="darkgrey" stroke-width="4.5" d="M525.91,-361.7C519.96,-387.19 511.35,-424.09 505.97,-447.11"/>
</g>
<!-- pollution&#45;&#45;terre -->
<g id="edge11" class="edge">
<title>pollution&#45;&#45;terre</title>
<path fill="none" stroke="darkgrey" stroke-width="1.44" d="M511.45,-312.87C499,-300.72 484.22,-286.28 476.54,-278.78"/>
</g>
<!-- pollution&#45;&#45;usine -->
<g id="edge12" class="edge">
<title>pollution&#45;&#45;usine</title>
<path fill="none" stroke="darkgrey" d="M504.18,-325.96C447.66,-311.05 323.69,-278.35 292.67,-270.17"/>
</g>
<!-- pollution&#45;&#45;ressource -->
<g id="edge13" class="edge">
<title>pollution&#45;&#45;ressource</title>
<path fill="none" stroke="darkgrey" stroke-width="1.03" d="M507.09,-347.91C480.48,-363.07 440.5,-385.84 425.35,-394.46"/>
</g>
<!-- pollution&#45;&#45;conflit -->
<g id="edge14" class="edge">
<title>pollution&#45;&#45;conflit</title>
<path fill="none" stroke="darkgrey" stroke-width="1.29" d="M561.88,-334.76C615.73,-337.2 727.51,-342.27 757.06,-343.61"/>
</g>
<!-- pollution&#45;&#45;développement -->
<g id="edge15" class="edge">
<title>pollution&#45;&#45;développement</title>
<path fill="none" stroke="darkgrey" stroke-width="1.88" d="M559.76,-343.79C625.77,-368.9 790.71,-431.62 816.08,-441.26"/>
</g>
<!-- pollution&#45;&#45;déforestation -->
<g id="edge16" class="edge">
<title>pollution&#45;&#45;déforestation</title>
<path fill="none" stroke="darkgrey" stroke-width="2.26" d="M537.21,-304.62C544.34,-260.86 557.38,-180.82 560.34,-162.66"/>
</g>
<!-- emploi&#45;&#45;richesse -->
<g id="edge17" class="edge">
<title>emploi&#45;&#45;richesse</title>
<path fill="none" stroke="darkgrey" stroke-width="3.56" d="M567.94,-372.5C551.58,-383.24 532.49,-395.79 521.3,-403.14"/>
</g>
<!-- emploi&#45;&#45;démolition -->
<g id="edge18" class="edge">
<title>emploi&#45;&#45;démolition</title>
<path fill="none" stroke="darkgrey" stroke-width="1.21" d="M589.63,-387.7C577.09,-439.28 554.46,-532.32 548.18,-558.13"/>
</g>
<!-- emploi&#45;&#45;argent -->
<g id="edge19" class="edge">
<title>emploi&#45;&#45;argent</title>
<path fill="none" stroke="darkgrey" stroke-width="3.15" d="M602.33,-316.66C605.4,-290.13 609.32,-256.27 610.99,-241.85"/>
</g>
<!-- emploi&#45;&#45;nickel -->
<g id="edge20" class="edge">
<title>emploi&#45;&#45;nickel</title>
<path fill="none" stroke="darkgrey" stroke-width="5.84" d="M562.56,-346.13C519.37,-338.24 447.19,-325.06 405.62,-317.46"/>
</g>
<!-- emploi&#45;&#45;exploitation -->
<g id="edge21" class="edge">
<title>emploi&#45;&#45;exploitation</title>
<path fill="none" stroke="darkgrey" stroke-width="1.14" d="M567.56,-371.96C526.69,-397.77 456.14,-442.31 427.72,-460.25"/>
</g>
<!-- emploi&#45;&#45;économie -->
<g id="edge22" class="edge">
<title>emploi&#45;&#45;économie</title>
<path fill="none" stroke="darkgrey" stroke-width="7.6" d="M594.93,-388.58C593.28,-406.91 591.34,-428.42 590,-443.3"/>
</g>
<!-- emploi&#45;&#45;impact environnemental -->
<g id="edge23" class="edge">
<title>emploi&#45;&#45;impact environnemental</title>
<path fill="none" stroke="darkgrey" stroke-width="5.36" d="M574.9,-380.34C556.26,-402.52 530.74,-432.91 515.09,-451.54"/>
</g>
<!-- emploi&#45;&#45;terre -->
<g id="edge24" class="edge">
<title>emploi&#45;&#45;terre</title>
<path fill="none" stroke="darkgrey" stroke-width="1.23" d="M567.46,-333.53C537.25,-314.72 493.4,-287.43 477.43,-277.49"/>
</g>
<!-- emploi&#45;&#45;ressource -->
<g id="edge25" class="edge">
<title>emploi&#45;&#45;ressource</title>
<path fill="none" stroke="darkgrey" stroke-width="1.4" d="M563.24,-361.48C519.71,-372.5 448.33,-390.57 426.08,-396.21"/>
</g>
<!-- emploi&#45;&#45;conflit -->
<g id="edge27" class="edge">
<title>emploi&#45;&#45;conflit</title>
<path fill="none" stroke="darkgrey" stroke-width="2.36" d="M634.22,-350.75C674.32,-348.65 736.21,-345.41 757.15,-344.31"/>
</g>
<!-- emploi&#45;&#45;déforestation -->
<g id="edge28" class="edge">
<title>emploi&#45;&#45;déforestation</title>
<path fill="none" stroke="darkgrey" stroke-width="1.26" d="M591.34,-317.11C581.77,-267.31 565.14,-180.75 561.62,-162.41"/>
</g>
<!-- emploi&#45;&#45;main d’oeuvre -->
<g id="edge26" class="edge">
<title>emploi&#45;&#45;main d’oeuvre</title>
<path fill="none" stroke="darkgrey" stroke-width="1.03" d="M628.89,-333.82C690.06,-296.37 823.13,-214.91 845.55,-201.18"/>
</g>
<!-- richesse&#45;&#45;nickel -->
<g id="edge29" class="edge">
<title>richesse&#45;&#45;nickel</title>
<path fill="none" stroke="darkgrey" stroke-width="2" d="M502.67,-403C482.18,-388.5 431.67,-352.77 400.21,-330.51"/>
</g>
<!-- richesse&#45;&#45;exploitation -->
<g id="edge30" class="edge">
<title>richesse&#45;&#45;exploitation</title>
<path fill="none" stroke="darkgrey" stroke-width="1.08" d="M502.15,-415.26C484.62,-425.92 447.43,-448.55 427.9,-460.43"/>
</g>
<!-- richesse&#45;&#45;économie -->
<g id="edge31" class="edge">
<title>richesse&#45;&#45;économie</title>
<path fill="none" stroke="darkgrey" stroke-width="1.61" d="M521.14,-415.8C534.17,-424.66 557.86,-440.76 573.35,-451.29"/>
</g>
<!-- richesse&#45;&#45;impact environnemental -->
<g id="edge32" class="edge">
<title>richesse&#45;&#45;impact environnemental</title>
<path fill="none" stroke="darkgrey" stroke-width="1.35" d="M509.73,-420.49C508.37,-427.95 506.54,-438.03 504.9,-447.01"/>
</g>
<!-- richesse&#45;&#45;terre -->
<g id="edge33" class="edge">
<title>richesse&#45;&#45;terre</title>
<path fill="none" stroke="darkgrey" stroke-width="1.22" d="M508.57,-398.77C500.6,-372.02 479.92,-302.58 473.35,-280.52"/>
</g>
<!-- démolition&#45;&#45;impact environnemental -->
<g id="edge34" class="edge">
<title>démolition&#45;&#45;impact environnemental</title>
<path fill="none" stroke="darkgrey" stroke-width="1.19" d="M543.54,-558.6C536.9,-544.48 520.67,-510 510.29,-487.95"/>
</g>
<!-- argent&#45;&#45;nickel -->
<g id="edge35" class="edge">
<title>argent&#45;&#45;nickel</title>
<path fill="none" stroke="darkgrey" stroke-width="2.63" d="M604.93,-237.06C575.69,-246.47 460.67,-283.5 404.57,-301.57"/>
</g>
<!-- nickel&#45;&#45;exploitation -->
<g id="edge36" class="edge">
<title>nickel&#45;&#45;exploitation</title>
<path fill="none" stroke="darkgrey" stroke-width="2.53" d="M381.93,-343.26C390.96,-377.02 404.85,-428.97 411.51,-453.85"/>
</g>
<!-- nickel&#45;&#45;montagne -->
<g id="edge37" class="edge">
<title>nickel&#45;&#45;montagne</title>
<path fill="none" stroke="darkgrey" stroke-width="1.86" d="M381.81,-279.99C392.93,-237.96 411.87,-166.35 417.79,-143.98"/>
</g>
<!-- nickel&#45;&#45;camion -->
<g id="edge38" class="edge">
<title>nickel&#45;&#45;camion</title>
<path fill="none" stroke="darkgrey" stroke-width="2.92" d="M369.48,-279.18C365.99,-250.67 361.1,-210.81 358.75,-191.65"/>
</g>
<!-- nickel&#45;&#45;économie -->
<g id="edge39" class="edge">
<title>nickel&#45;&#45;économie</title>
<path fill="none" stroke="darkgrey" stroke-width="3.08" d="M400.24,-330.27C445.92,-362.13 537.45,-425.97 573.39,-451.04"/>
</g>
<!-- nickel&#45;&#45;impact environnemental -->
<g id="edge40" class="edge">
<title>nickel&#45;&#45;impact environnemental</title>
<path fill="none" stroke="darkgrey" stroke-width="1.93" d="M394.24,-337.11C420.5,-369.37 464.98,-423.99 487.34,-451.45"/>
</g>
<!-- nickel&#45;&#45;terre -->
<g id="edge43" class="edge">
<title>nickel&#45;&#45;terre</title>
<path fill="none" stroke="darkgrey" stroke-width="1.1" d="M403.88,-299.8C425.2,-291.54 452.02,-281.16 464.43,-276.35"/>
</g>
<!-- nickel&#45;&#45;usine -->
<g id="edge44" class="edge">
<title>nickel&#45;&#45;usine</title>
<path fill="none" stroke="darkgrey" stroke-width="2.95" d="M344.17,-297.17C325.59,-288.02 303.05,-276.92 292.11,-271.53"/>
</g>
<!-- nickel&#45;&#45;ressource -->
<g id="edge46" class="edge">
<title>nickel&#45;&#45;ressource</title>
<path fill="none" stroke="darkgrey" stroke-width="1.26" d="M388.7,-340.34C398.38,-358.59 410.12,-380.73 415.81,-391.47"/>
</g>
<!-- nickel&#45;&#45;déforestation -->
<g id="edge49" class="edge">
<title>nickel&#45;&#45;déforestation</title>
<path fill="none" stroke="darkgrey" stroke-width="1.1" d="M398.74,-291C445.12,-253.24 540.66,-175.45 558.17,-161.2"/>
</g>
<!-- nickel&#45;&#45;roche -->
<g id="edge41" class="edge">
<title>nickel&#45;&#45;roche</title>
<path fill="none" stroke="darkgrey" stroke-width="1.67" d="M362.76,-280.51C343.22,-223.68 302.8,-106.18 292.7,-76.83"/>
</g>
<!-- nickel&#45;&#45;terre rouge -->
<g id="edge42" class="edge">
<title>nickel&#45;&#45;terre rouge</title>
<path fill="none" stroke="darkgrey" stroke-width="1.93" d="M342.48,-300.99C278.47,-279.09 135.55,-230.2 111.45,-221.96"/>
</g>
<!-- nickel&#45;&#45;sln -->
<g id="edge45" class="edge">
<title>nickel&#45;&#45;sln</title>
<path fill="none" stroke="darkgrey" stroke-width="3.76" d="M345.79,-329.49C289.13,-366.15 162.84,-447.87 134.01,-466.52"/>
</g>
<!-- nickel&#45;&#45;usine du sud -->
<g id="edge47" class="edge">
<title>nickel&#45;&#45;usine du sud</title>
<path fill="none" stroke="darkgrey" stroke-width="1.25" d="M341.71,-318.93C273.69,-334.67 118.02,-370.68 92.94,-376.48"/>
</g>
<!-- nickel&#45;&#45;minerai -->
<g id="edge48" class="edge">
<title>nickel&#45;&#45;minerai</title>
<path fill="none" stroke="darkgrey" stroke-width="2.48" d="M348.57,-332.85C327.71,-350.68 299.53,-374.77 287.83,-384.77"/>
</g>
<!-- exploitation&#45;&#45;impact environnemental -->
<g id="edge50" class="edge">
<title>exploitation&#45;&#45;impact environnemental</title>
<path fill="none" stroke="darkgrey" stroke-width="1.8" d="M429.86,-468.12C443.42,-468.15 463.84,-468.19 479.33,-468.23"/>
</g>
<!-- exploitation&#45;&#45;ressource -->
<g id="edge51" class="edge">
<title>exploitation&#45;&#45;ressource</title>
<path fill="none" stroke="darkgrey" stroke-width="1.93" d="M416.13,-453.55C416.96,-438.78 418.2,-416.52 418.84,-405.16"/>
</g>
<!-- exploitation&#45;&#45;minerai -->
<g id="edge52" class="edge">
<title>exploitation&#45;&#45;minerai</title>
<path fill="none" stroke="darkgrey" stroke-width="2.35" d="M402.57,-460.54C374.63,-444 308.85,-405.08 288.49,-393.03"/>
</g>
<!-- montagne&#45;&#45;camion -->
<g id="edge53" class="edge">
<title>montagne&#45;&#45;camion</title>
<path fill="none" stroke="darkgrey" stroke-width="1.06" d="M413.87,-141.11C403.04,-148.66 379.51,-165.06 366.5,-174.14"/>
</g>
<!-- montagne&#45;&#45;terre -->
<g id="edge55" class="edge">
<title>montagne&#45;&#45;terre</title>
<path fill="none" stroke="darkgrey" stroke-width="1.15" d="M422.1,-143.69C430.82,-166.71 459.86,-243.43 468.72,-266.84"/>
</g>
<!-- montagne&#45;&#45;roche -->
<g id="edge54" class="edge">
<title>montagne&#45;&#45;roche</title>
<path fill="none" stroke="darkgrey" stroke-width="1.37" d="M413.38,-133.87C391.6,-122.57 319,-84.92 296.85,-73.43"/>
</g>
<!-- camion&#45;&#45;terre -->
<g id="edge57" class="edge">
<title>camion&#45;&#45;terre</title>
<path fill="none" stroke="darkgrey" stroke-width="1.02" d="M365.95,-187.5C388.2,-205.7 447.39,-254.12 465.79,-269.16"/>
</g>
<!-- camion&#45;&#45;usine -->
<g id="edge58" class="edge">
<title>camion&#45;&#45;usine</title>
<path fill="none" stroke="darkgrey" stroke-width="1.2" d="M350.23,-189.23C335.6,-207.1 302.62,-247.4 290.29,-262.46"/>
</g>
<!-- camion&#45;&#45;roche -->
<g id="edge56" class="edge">
<title>camion&#45;&#45;roche</title>
<path fill="none" stroke="darkgrey" stroke-width="1.31" d="M351.67,-171.08C338.31,-149.07 305.33,-94.72 294.15,-76.3"/>
</g>
<!-- économie&#45;&#45;impact environnemental -->
<g id="edge59" class="edge">
<title>économie&#45;&#45;impact environnemental</title>
<path fill="none" stroke="darkgrey" stroke-width="6.09" d="M570.27,-462.9C556.38,-463.97 537.16,-465.47 522.5,-466.61"/>
</g>
<!-- impact environnemental&#45;&#45;terre -->
<g id="edge60" class="edge">
<title>impact environnemental&#45;&#45;terre</title>
<path fill="none" stroke="darkgrey" stroke-width="1.07" d="M497.74,-446.71C491.12,-403.37 476.49,-307.56 472.4,-280.77"/>
</g>
<!-- usine&#45;&#45;minerai -->
<g id="edge61" class="edge">
<title>usine&#45;&#45;minerai</title>
<path fill="none" stroke="darkgrey" stroke-width="1.99" d="M285.33,-275.5C284.77,-297.1 283.12,-361.05 282.57,-382.39"/>
</g>
<!-- ressource&#45;&#45;minerai -->
<g id="edge64" class="edge">
<title>ressource&#45;&#45;minerai</title>
<path fill="none" stroke="darkgrey" stroke-width="1.72" d="M411.88,-397.48C388.01,-396 312.9,-391.32 289.45,-389.86"/>
</g>
<!-- sln&#45;&#45;usine du sud -->
<g id="edge63" class="edge">
<title>sln&#45;&#45;usine du sud</title>
<path fill="none" stroke="darkgrey" stroke-width="1.19" d="M125.3,-463.67C117.7,-445.32 96.72,-394.71 90.97,-380.84"/>
</g>
<!-- érosion&#45;&#45;déforestation -->
<g id="edge62" class="edge">
<title>érosion&#45;&#45;déforestation</title>
<path fill="none" stroke="darkgrey" stroke-width="1.09" d="M604.56,-1.21C601.7,-11.56 568.21,-132.69 561.95,-155.31"/>
</g>
<!-- pollution -->
<g id="node1" class="node">
<title>pollution</title>
<ellipse fill="#fca309" stroke="white" stroke-width="0" cx="532.51" cy="-333.43" rx="29" ry="29"/>
<text text-anchor="middle" x="449.51" y="-369.59" font-family="Helvetica,sans-Serif" font-size="24.80" fill="#4d4d4d">pollution</text>
</g>
<!-- emploi -->
<g id="node2" class="node">
<title>emploi</title>
<ellipse fill="#fcffa4" stroke="white" stroke-width="0" cx="598.16" cy="-352.64" rx="36" ry="36"/>
<text text-anchor="middle" x="609.66" y="-397.24" font-family="Helvetica,sans-Serif" font-size="28.00" fill="#4d4d4d">emploi</text>
</g>
<!-- richesse -->
<g id="node3" class="node">
<title>richesse</title>
<ellipse fill="#67166e" stroke="white" stroke-width="0" cx="511.74" cy="-409.42" rx="11" ry="11"/>
<text text-anchor="middle" x="465.74" y="-424.98" font-family="Helvetica,sans-Serif" font-size="16.80" fill="#4d4d4d">richesse</text>
</g>
<!-- démolition -->
<g id="node4" class="node">
<title>démolition</title>
<ellipse fill="#360961" stroke="white" stroke-width="0" cx="546.52" cy="-564.94" rx="7" ry="7"/>
<text text-anchor="middle" x="498.52" y="-576.78" font-family="Helvetica,sans-Serif" font-size="15.20" fill="#4d4d4d">démolition</text>
</g>
<!-- argent -->
<g id="node5" class="node">
<title>argent</title>
<ellipse fill="#4c0c6b" stroke="white" stroke-width="0" cx="611.8" cy="-234.84" rx="7" ry="7"/>
<text text-anchor="middle" x="579.8" y="-246.68" font-family="Helvetica,sans-Serif" font-size="15.20" fill="#4d4d4d">argent</text>
</g>
<!-- nickel -->
<g id="node6" class="node">
<title>nickel</title>
<ellipse fill="#f6d543" stroke="white" stroke-width="0" cx="373.46" cy="-311.59" rx="32.5" ry="32.5"/>
<text text-anchor="middle" x="302.46" y="-351.97" font-family="Helvetica,sans-Serif" font-size="26.40" fill="#4d4d4d">nickel</text>
</g>
<!-- exploitation -->
<g id="node7" class="node">
<title>exploitation</title>
<ellipse fill="#8f2469" stroke="white" stroke-width="0" cx="415.32" cy="-468.08" rx="14.5" ry="14.5"/>
<text text-anchor="middle" x="345.32" y="-487.86" font-family="Helvetica,sans-Serif" font-size="18.40" fill="#4d4d4d">exploitation</text>
</g>
<!-- montagne -->
<g id="node8" class="node">
<title>montagne</title>
<ellipse fill="#380962" stroke="white" stroke-width="0" cx="419.61" cy="-137.1" rx="7" ry="7"/>
<text text-anchor="middle" x="373.61" y="-148.94" font-family="Helvetica,sans-Serif" font-size="15.20" fill="#4d4d4d">montagne</text>
</g>
<!-- camion -->
<g id="node9" class="node">
<title>camion</title>
<ellipse fill="#62146e" stroke="white" stroke-width="0" cx="357.38" cy="-180.5" rx="11" ry="11"/>
<text text-anchor="middle" x="315.38" y="-196.06" font-family="Helvetica,sans-Serif" font-size="16.80" fill="#4d4d4d">camion</text>
</g>
<!-- économie -->
<g id="node10" class="node">
<title>économie</title>
<ellipse fill="#c03a51" stroke="white" stroke-width="0" cx="588.37" cy="-461.49" rx="18" ry="18"/>
<text text-anchor="middle" x="618.87" y="-485.49" font-family="Helvetica,sans-Serif" font-size="20.00" fill="#4d4d4d">économie</text>
</g>
<!-- impact environnemental -->
<g id="node11" class="node">
<title>impact environnemental</title>
<ellipse fill="#cf4446" stroke="white" stroke-width="0" cx="501.03" cy="-468.28" rx="21.5" ry="21.5"/>
<text text-anchor="middle" x="655.03" y="-429.5" font-family="Helvetica,sans-Serif" font-size="21.60" fill="#4d4d4d">impact environnemental</text>
</g>
<!-- terre -->
<g id="node12" class="node">
<title>terre</title>
<ellipse fill="#360961" stroke="white" stroke-width="0" cx="471.32" cy="-273.69" rx="7" ry="7"/>
<text text-anchor="middle" x="445.82" y="-285.53" font-family="Helvetica,sans-Serif" font-size="15.20" fill="#4d4d4d">terre</text>
</g>
<!-- usine -->
<g id="node13" class="node">
<title>usine</title>
<ellipse fill="#4c0c6b" stroke="white" stroke-width="0" cx="285.52" cy="-268.29" rx="7" ry="7"/>
<text text-anchor="middle" x="257.52" y="-280.13" font-family="Helvetica,sans-Serif" font-size="15.20" fill="#4d4d4d">usine</text>
</g>
<!-- ressource -->
<g id="node14" class="node">
<title>ressource</title>
<ellipse fill="#400a67" stroke="white" stroke-width="0" cx="419.24" cy="-397.94" rx="7" ry="7"/>
<text text-anchor="middle" x="375.24" y="-409.78" font-family="Helvetica,sans-Serif" font-size="15.20" fill="#4d4d4d">ressource</text>
</g>
<!-- conflit -->
<g id="node15" class="node">
<title>conflit</title>
<ellipse fill="#310a5c" stroke="white" stroke-width="0" cx="764.36" cy="-343.94" rx="7" ry="7"/>
<text text-anchor="middle" x="733.36" y="-355.78" font-family="Helvetica,sans-Serif" font-size="15.20" fill="#4d4d4d">conflit</text>
</g>
<!-- développement -->
<g id="node16" class="node">
<title>développement</title>
<ellipse fill="#060419" stroke="white" stroke-width="0" cx="819.38" cy="-442.52" rx="3.5" ry="3.5"/>
<text text-anchor="middle" x="761.88" y="-450.14" font-family="Helvetica,sans-Serif" font-size="13.60" fill="#4d4d4d">développement</text>
</g>
<!-- déforestation -->
<g id="node17" class="node">
<title>déforestation</title>
<ellipse fill="#160b39" stroke="white" stroke-width="0" cx="560.95" cy="-158.93" rx="3.5" ry="3.5"/>
<text text-anchor="middle" x="512.45" y="-166.55" font-family="Helvetica,sans-Serif" font-size="13.60" fill="#4d4d4d">déforestation</text>
</g>
<!-- main d’oeuvre -->
<g id="node18" class="node">
<title>main d’oeuvre</title>
<ellipse fill="#150b37" stroke="white" stroke-width="0" cx="848.78" cy="-199.2" rx="3.5" ry="3.5"/>
<text text-anchor="middle" x="795.78" y="-206.82" font-family="Helvetica,sans-Serif" font-size="13.60" fill="#4d4d4d">main d’oeuvre</text>
</g>
<!-- roche -->
<g id="node19" class="node">
<title>roche</title>
<ellipse fill="#490b6a" stroke="white" stroke-width="0" cx="290.37" cy="-70.07" rx="7" ry="7"/>
<text text-anchor="middle" x="261.87" y="-81.91" font-family="Helvetica,sans-Serif" font-size="15.20" fill="#4d4d4d">roche</text>
</g>
<!-- terre rouge -->
<g id="node20" class="node">
<title>terre rouge</title>
<ellipse fill="#190c3e" stroke="white" stroke-width="0" cx="107.97" cy="-220.77" rx="3.5" ry="3.5"/>
<text text-anchor="middle" x="66.47" y="-228.39" font-family="Helvetica,sans-Serif" font-size="13.60" fill="#4d4d4d">terre rouge</text>
</g>
<!-- sln -->
<g id="node21" class="node">
<title>sln</title>
<ellipse fill="#380962" stroke="white" stroke-width="0" cx="128.08" cy="-470.36" rx="7" ry="7"/>
<text text-anchor="middle" x="109.58" y="-482.2" font-family="Helvetica,sans-Serif" font-size="15.20" fill="#4d4d4d">sln</text>
</g>
<!-- usine du sud -->
<g id="node22" class="node">
<title>usine du sud</title>
<ellipse fill="#050417" stroke="white" stroke-width="0" cx="89.5" cy="-377.28" rx="3.5" ry="3.5"/>
<text text-anchor="middle" x="43" y="-384.9" font-family="Helvetica,sans-Serif" font-size="13.60" fill="#4d4d4d">usine du sud</text>
</g>
<!-- minerai -->
<g id="node23" class="node">
<title>minerai</title>
<ellipse fill="#4d0d6c" stroke="white" stroke-width="0" cx="282.38" cy="-389.42" rx="7" ry="7"/>
<text text-anchor="middle" x="246.38" y="-401.26" font-family="Helvetica,sans-Serif" font-size="15.20" fill="#4d4d4d">minerai</text>
</g>
<!-- érosion -->
<g id="node24" class="node">
<title>érosion</title>
<ellipse fill="#000004" stroke="white" stroke-width="0" cx="604.75" cy="-0.5" rx="0.5" ry="0.5"/>
<text text-anchor="middle" x="582.25" y="-4.4" font-family="Helvetica,sans-Serif" font-size="12.00" fill="#4d4d4d">érosion</text>
</g>
</g>
</svg>
