<?xml version="1.0" encoding="UTF-8" standalone="no"?>
<!DOCTYPE svg PUBLIC "-//W3C//DTD SVG 1.1//EN"
 "http://www.w3.org/Graphics/SVG/1.1/DTD/svg11.dtd">
<!-- Generated by graphviz version 2.43.0 (0)
 -->
<!-- Pages: 1 -->
<svg width="531pt" height="391pt"
 viewBox="0.00 0.00 531.36 391.00" xmlns="http://www.w3.org/2000/svg" xmlns:xlink="http://www.w3.org/1999/xlink">
<g id="graph0" class="graph" transform="scale(1 1) rotate(0) translate(4 387)">
<polygon fill="white" stroke="transparent" points="-4,4 -4,-387 527.36,-387 527.36,4 -4,4"/>
<!-- pollution&#45;&#45;travail -->
<g id="edge1" class="edge">
<title>pollution&#45;&#45;travail</title>
<path fill="none" stroke="darkgrey" stroke-width="7" d="M266.12,-148.98C288.24,-139.85 317.19,-127.89 333.98,-120.96"/>
</g>
<!-- pollution&#45;&#45;richesse -->
<g id="edge2" class="edge">
<title>pollution&#45;&#45;richesse</title>
<path fill="none" stroke="darkgrey" stroke-width="2.78" d="M260.86,-140.53C281.75,-123.02 310.33,-99.08 324.39,-87.29"/>
</g>
<!-- pollution&#45;&#45;destruction -->
<g id="edge3" class="edge">
<title>pollution&#45;&#45;destruction</title>
<path fill="none" stroke="darkgrey" stroke-width="5.57" d="M205.74,-149.16C180.5,-138.84 146.38,-124.89 132.21,-119.1"/>
</g>
<!-- pollution&#45;&#45;argent -->
<g id="edge4" class="edge">
<title>pollution&#45;&#45;argent</title>
<path fill="none" stroke="darkgrey" stroke-width="2.96" d="M227.91,-129.79C225.8,-121.39 223.71,-113.09 222.29,-107.45"/>
</g>
<!-- pollution&#45;&#45;nickel -->
<g id="edge5" class="edge">
<title>pollution&#45;&#45;nickel</title>
<path fill="none" stroke="darkgrey" stroke-width="8.36" d="M266.75,-172.94C271.19,-174.58 275.78,-176.28 280.26,-177.95"/>
</g>
<!-- pollution&#45;&#45;montagne -->
<g id="edge6" class="edge">
<title>pollution&#45;&#45;montagne</title>
<path fill="none" stroke="darkgrey" stroke-width="1.25" d="M226,-192.67C222.04,-205.18 217.85,-218.45 215.38,-226.23"/>
</g>
<!-- pollution&#45;&#45;camion -->
<g id="edge7" class="edge">
<title>pollution&#45;&#45;camion</title>
<path fill="none" stroke="darkgrey" stroke-width="3.19" d="M226.55,-192.91C218.84,-218.92 208.35,-254.32 203.19,-271.74"/>
</g>
<!-- pollution&#45;&#45;économie -->
<g id="edge8" class="edge">
<title>pollution&#45;&#45;économie</title>
<path fill="none" stroke="darkgrey" stroke-width="8.23" d="M261.55,-141.5C268.65,-135.98 276.18,-130.12 282.67,-125.07"/>
</g>
<!-- pollution&#45;&#45;environnement -->
<g id="edge9" class="edge">
<title>pollution&#45;&#45;environnement</title>
<path fill="none" stroke="darkgrey" stroke-width="6.83" d="M255.05,-134.59C266.61,-118.4 280.88,-98.4 290.43,-85.03"/>
</g>
<!-- pollution&#45;&#45;emploi -->
<g id="edge10" class="edge">
<title>pollution&#45;&#45;emploi</title>
<path fill="none" stroke="darkgrey" stroke-width="10" d="M244.51,-130.1C248.3,-116.36 252.61,-100.75 255.81,-89.14"/>
</g>
<!-- pollution&#45;&#45;terre -->
<g id="edge11" class="edge">
<title>pollution&#45;&#45;terre</title>
<path fill="none" stroke="darkgrey" stroke-width="1.54" d="M208.12,-178.93C204.81,-181.01 201.73,-182.95 199.24,-184.52"/>
</g>
<!-- pollution&#45;&#45;usine -->
<g id="edge12" class="edge">
<title>pollution&#45;&#45;usine</title>
<path fill="none" stroke="darkgrey" d="M241.42,-193.51C245.8,-218.83 251.67,-252.67 254.66,-269.91"/>
</g>
<!-- pollution&#45;&#45;exploitation -->
<g id="edge13" class="edge">
<title>pollution&#45;&#45;exploitation</title>
<path fill="none" stroke="darkgrey" stroke-width="1.51" d="M258.56,-184.85C279.8,-206.73 310.34,-238.18 324.68,-252.94"/>
</g>
<!-- pollution&#45;&#45;ressource -->
<g id="edge14" class="edge">
<title>pollution&#45;&#45;ressource</title>
<path fill="none" stroke="darkgrey" stroke-width="1.05" d="M255.1,-187.76C269.26,-207.12 287.42,-231.94 295.61,-243.14"/>
</g>
<!-- pollution&#45;&#45;conflit -->
<g id="edge15" class="edge">
<title>pollution&#45;&#45;conflit</title>
<path fill="none" stroke="darkgrey" stroke-width="1.58" d="M227.95,-129.94C219.75,-97.28 207.54,-48.58 203.08,-30.81"/>
</g>
<!-- pollution&#45;&#45;développement -->
<g id="edge16" class="edge">
<title>pollution&#45;&#45;développement</title>
<path fill="none" stroke="darkgrey" stroke-width="2.76" d="M206.39,-175.58C174.79,-190.71 127.42,-213.37 114.73,-219.45"/>
</g>
<!-- pollution&#45;&#45;déforestation -->
<g id="edge17" class="edge">
<title>pollution&#45;&#45;déforestation</title>
<path fill="none" stroke="darkgrey" stroke-width="2.87" d="M203.21,-161.79C167.47,-162.13 113.3,-162.65 98.78,-162.78"/>
</g>
<!-- travail&#45;&#45;richesse -->
<g id="edge18" class="edge">
<title>travail&#45;&#45;richesse</title>
<path fill="none" stroke="darkgrey" stroke-width="2.41" d="M342.01,-101.81C340.45,-98.09 338.78,-94.12 337.31,-90.6"/>
</g>
<!-- travail&#45;&#45;nickel -->
<g id="edge19" class="edge">
<title>travail&#45;&#45;nickel</title>
<path fill="none" stroke="darkgrey" stroke-width="3.4" d="M341.65,-128.74C338.06,-136.77 333.33,-147.34 328.8,-157.46"/>
</g>
<!-- travail&#45;&#45;économie -->
<g id="edge20" class="edge">
<title>travail&#45;&#45;économie</title>
<path fill="none" stroke="darkgrey" stroke-width="3.49" d="M333.08,-114.19C329.46,-113.92 325.5,-113.61 321.62,-113.32"/>
</g>
<!-- travail&#45;&#45;environnement -->
<g id="edge21" class="edge">
<title>travail&#45;&#45;environnement</title>
<path fill="none" stroke="darkgrey" stroke-width="3.29" d="M336.84,-104.85C330.05,-98.3 321.26,-89.8 314.08,-82.87"/>
</g>
<!-- richesse&#45;&#45;nickel -->
<g id="edge22" class="edge">
<title>richesse&#45;&#45;nickel</title>
<path fill="none" stroke="darkgrey" stroke-width="2.53" d="M331.04,-91.12C328.52,-105.84 323.92,-132.66 320.14,-154.73"/>
</g>
<!-- richesse&#45;&#45;économie -->
<g id="edge23" class="edge">
<title>richesse&#45;&#45;économie</title>
<path fill="none" stroke="darkgrey" stroke-width="2.21" d="M324.93,-87.77C322.11,-90.47 318.83,-93.6 315.59,-96.69"/>
</g>
<!-- richesse&#45;&#45;emploi -->
<g id="edge24" class="edge">
<title>richesse&#45;&#45;emploi</title>
<path fill="none" stroke="darkgrey" stroke-width="1.88" d="M321.94,-78.87C310.48,-77.54 292.32,-75.44 278.73,-73.86"/>
</g>
<!-- argent&#45;&#45;nickel -->
<g id="edge25" class="edge">
<title>argent&#45;&#45;nickel</title>
<path fill="none" stroke="darkgrey" stroke-width="4.22" d="M225.79,-105.37C237.53,-116.7 266.44,-144.58 287.98,-165.36"/>
</g>
<!-- argent&#45;&#45;emploi -->
<g id="edge26" class="edge">
<title>argent&#45;&#45;emploi</title>
<path fill="none" stroke="darkgrey" stroke-width="2.77" d="M226.41,-96.05C231.46,-92.46 238.96,-87.14 245.64,-82.39"/>
</g>
<!-- nickel&#45;&#45;montagne -->
<g id="edge28" class="edge">
<title>nickel&#45;&#45;montagne</title>
<path fill="none" stroke="darkgrey" stroke-width="2.72" d="M280.74,-204.54C258.95,-213.74 232.31,-225 220.03,-230.19"/>
</g>
<!-- nickel&#45;&#45;camion -->
<g id="edge29" class="edge">
<title>nickel&#45;&#45;camion</title>
<path fill="none" stroke="darkgrey" stroke-width="4.83" d="M285.85,-213.17C260.54,-233.57 224.93,-262.25 208.71,-275.32"/>
</g>
<!-- nickel&#45;&#45;économie -->
<g id="edge30" class="edge">
<title>nickel&#45;&#45;économie</title>
<path fill="none" stroke="darkgrey" stroke-width="5.16" d="M307.63,-154.76C306.29,-147.26 304.92,-139.59 303.71,-132.83"/>
</g>
<!-- nickel&#45;&#45;environnement -->
<g id="edge31" class="edge">
<title>nickel&#45;&#45;environnement</title>
<path fill="none" stroke="darkgrey" stroke-width="2.59" d="M310.11,-154.39C307.74,-132.53 304.82,-105.6 302.93,-88.17"/>
</g>
<!-- nickel&#45;&#45;emploi -->
<g id="edge33" class="edge">
<title>nickel&#45;&#45;emploi</title>
<path fill="none" stroke="darkgrey" stroke-width="5.23" d="M299.14,-157.41C289.01,-134.9 276.05,-106.08 268.03,-88.28"/>
</g>
<!-- nickel&#45;&#45;terre -->
<g id="edge34" class="edge">
<title>nickel&#45;&#45;terre</title>
<path fill="none" stroke="darkgrey" stroke-width="1.2" d="M277.77,-189.83C250.53,-189.34 215.43,-188.72 200.47,-188.45"/>
</g>
<!-- nickel&#45;&#45;usine -->
<g id="edge35" class="edge">
<title>nickel&#45;&#45;usine</title>
<path fill="none" stroke="darkgrey" stroke-width="4.9" d="M294.74,-220.88C283.53,-238.55 270.16,-259.63 262.59,-271.56"/>
</g>
<!-- nickel&#45;&#45;exploitation -->
<g id="edge36" class="edge">
<title>nickel&#45;&#45;exploitation</title>
<path fill="none" stroke="darkgrey" stroke-width="1.17" d="M323.24,-225.41C325.63,-234.46 328.03,-243.54 329.81,-250.29"/>
</g>
<!-- nickel&#45;&#45;ressource -->
<g id="edge38" class="edge">
<title>nickel&#45;&#45;ressource</title>
<path fill="none" stroke="darkgrey" stroke-width="1.53" d="M305.6,-225.59C304.11,-231.83 302.7,-237.7 301.66,-242.02"/>
</g>
<!-- nickel&#45;&#45;extraction -->
<g id="edge27" class="edge">
<title>nickel&#45;&#45;extraction</title>
<path fill="none" stroke="darkgrey" stroke-width="1.06" d="M340.04,-215.86C368.97,-244.09 412.35,-286.41 417.66,-291.59"/>
</g>
<!-- nickel&#45;&#45;terre rouge -->
<g id="edge32" class="edge">
<title>nickel&#45;&#45;terre rouge</title>
<path fill="none" stroke="darkgrey" stroke-width="2.15" d="M348.55,-201.76C383.39,-213.15 433.9,-229.67 447.42,-234.09"/>
</g>
<!-- nickel&#45;&#45;sln -->
<g id="edge37" class="edge">
<title>nickel&#45;&#45;sln</title>
<path fill="none" stroke="darkgrey" stroke-width="6.53" d="M349.47,-182.82C381.48,-175.92 426.11,-166.28 443.22,-162.59"/>
</g>
<!-- nickel&#45;&#45;minerai -->
<g id="edge39" class="edge">
<title>nickel&#45;&#45;minerai</title>
<path fill="none" stroke="darkgrey" stroke-width="3.95" d="M313.16,-226.54C312.5,-253.95 311.64,-289.88 311.21,-307.7"/>
</g>
<!-- nickel&#45;&#45;goro -->
<g id="edge40" class="edge">
<title>nickel&#45;&#45;goro</title>
<path fill="none" stroke="darkgrey" stroke-width="1.16" d="M349.33,-182.83C373.52,-177.59 402.15,-171.39 407.3,-170.28"/>
</g>
<!-- montagne&#45;&#45;camion -->
<g id="edge41" class="edge">
<title>montagne&#45;&#45;camion</title>
<path fill="none" stroke="darkgrey" stroke-width="1.12" d="M211.39,-239.91C209.22,-248.05 205.56,-261.73 202.98,-271.35"/>
</g>
<!-- montagne&#45;&#45;terre -->
<g id="edge42" class="edge">
<title>montagne&#45;&#45;terre</title>
<path fill="none" stroke="darkgrey" stroke-width="1.3" d="M210.27,-226.46C206.49,-218 199.96,-203.42 196.17,-194.95"/>
</g>
<!-- camion&#45;&#45;usine -->
<g id="edge44" class="edge">
<title>camion&#45;&#45;usine</title>
<path fill="none" stroke="darkgrey" stroke-width="1.39" d="M211.22,-282.05C221.14,-281.83 235.54,-281.5 245.44,-281.28"/>
</g>
<!-- camion&#45;&#45;caillou -->
<g id="edge43" class="edge">
<title>camion&#45;&#45;caillou</title>
<path fill="none" stroke="darkgrey" stroke-width="1.42" d="M192.16,-290.18C174.3,-308.02 131.45,-350.81 120.39,-361.86"/>
</g>
<!-- économie&#45;&#45;environnement -->
<g id="edge45" class="edge">
<title>économie&#45;&#45;environnement</title>
<path fill="none" stroke="darkgrey" stroke-width="8.96" d="M300.48,-89.97C300.49,-89.5 300.5,-89.03 300.51,-88.56"/>
</g>
<!-- économie&#45;&#45;emploi -->
<g id="edge46" class="edge">
<title>économie&#45;&#45;emploi</title>
<path fill="none" stroke="darkgrey" stroke-width="8.42" d="M284.38,-95.89C280.69,-92.14 276.79,-88.19 273.25,-84.6"/>
</g>
<!-- environnement&#45;&#45;emploi -->
<g id="edge47" class="edge">
<title>environnement&#45;&#45;emploi</title>
<path fill="none" stroke="darkgrey" stroke-width="3.48" d="M282.69,-70.92C281.35,-70.97 280,-71.02 278.67,-71.07"/>
</g>
<!-- emploi&#45;&#45;conflit -->
<g id="edge48" class="edge">
<title>emploi&#45;&#45;conflit</title>
<path fill="none" stroke="darkgrey" stroke-width="2.03" d="M246.56,-60.44C233.98,-50.29 216.14,-35.91 207.1,-28.62"/>
</g>
<!-- usine&#45;&#45;minerai -->
<g id="edge49" class="edge">
<title>usine&#45;&#45;minerai</title>
<path fill="none" stroke="darkgrey" stroke-width="2.97" d="M266.06,-287.59C276.03,-294.51 291.65,-305.33 301.58,-312.22"/>
</g>
<!-- exploitation&#45;&#45;ressource -->
<g id="edge50" class="edge">
<title>exploitation&#45;&#45;ressource</title>
<path fill="none" stroke="darkgrey" stroke-width="2.75" d="M322.33,-257.36C317.24,-255.47 311.25,-253.26 306.75,-251.59"/>
</g>
<!-- exploitation&#45;&#45;minerai -->
<g id="edge51" class="edge">
<title>exploitation&#45;&#45;minerai</title>
<path fill="none" stroke="darkgrey" stroke-width="2.54" d="M328.7,-271.73C324.78,-282.11 318.82,-297.87 314.91,-308.23"/>
</g>
<!-- ressource&#45;&#45;minerai -->
<g id="edge53" class="edge">
<title>ressource&#45;&#45;minerai</title>
<path fill="none" stroke="darkgrey" stroke-width="2.26" d="M301.06,-256.02C302.97,-268.13 306.92,-293.22 309.21,-307.72"/>
</g>
<!-- sln&#45;&#45;goro -->
<g id="edge52" class="edge">
<title>sln&#45;&#45;goro</title>
<path fill="none" stroke="darkgrey" stroke-width="1.37" d="M443.32,-162.56C432.46,-164.88 412.37,-169.19 408.7,-169.97"/>
</g>
<!-- pollution -->
<g id="node1" class="node">
<title>pollution</title>
<ellipse fill="#fac026" stroke="white" stroke-width="0" cx="235.86" cy="-161.48" rx="32.5" ry="32.5"/>
<text text-anchor="middle" x="145.36" y="-136.86" font-family="Helvetica,sans-Serif" font-size="26.40" fill="#4d4d4d">pollution</text>
</g>
<!-- travail -->
<g id="node2" class="node">
<title>travail</title>
<ellipse fill="#9f2a63" stroke="white" stroke-width="0" cx="347.67" cy="-115.31" rx="14.5" ry="14.5"/>
<text text-anchor="middle" x="363.17" y="-135.09" font-family="Helvetica,sans-Serif" font-size="18.40" fill="#4d4d4d">travail</text>
</g>
<!-- richesse -->
<g id="node3" class="node">
<title>richesse</title>
<ellipse fill="#69166e" stroke="white" stroke-width="0" cx="332.92" cy="-80.14" rx="11" ry="11"/>
<text text-anchor="middle" x="356.92" y="-55.7" font-family="Helvetica,sans-Serif" font-size="16.80" fill="#4d4d4d">richesse</text>
</g>
<!-- destruction -->
<g id="node4" class="node">
<title>destruction</title>
<ellipse fill="#380962" stroke="white" stroke-width="0" cx="125.63" cy="-116.41" rx="7" ry="7"/>
<text text-anchor="middle" x="75.13" y="-114.25" font-family="Helvetica,sans-Serif" font-size="15.20" fill="#4d4d4d">destruction</text>
</g>
<!-- argent -->
<g id="node5" class="node">
<title>argent</title>
<ellipse fill="#4f0d6c" stroke="white" stroke-width="0" cx="220.49" cy="-100.26" rx="7" ry="7"/>
<text text-anchor="middle" x="188.49" y="-112.1" font-family="Helvetica,sans-Serif" font-size="15.20" fill="#4d4d4d">argent</text>
</g>
<!-- nickel -->
<g id="node6" class="node">
<title>nickel</title>
<ellipse fill="#fcffa4" stroke="white" stroke-width="0" cx="314.02" cy="-190.47" rx="36" ry="36"/>
<text text-anchor="middle" x="391.02" y="-235.07" font-family="Helvetica,sans-Serif" font-size="28.00" fill="#4d4d4d">nickel</text>
</g>
<!-- montagne -->
<g id="node7" class="node">
<title>montagne</title>
<ellipse fill="#3e0966" stroke="white" stroke-width="0" cx="213.23" cy="-233.06" rx="7" ry="7"/>
<text text-anchor="middle" x="167.23" y="-244.9" font-family="Helvetica,sans-Serif" font-size="15.20" fill="#4d4d4d">montagne</text>
</g>
<!-- camion -->
<g id="node8" class="node">
<title>camion</title>
<ellipse fill="#6d186e" stroke="white" stroke-width="0" cx="200.06" cy="-282.3" rx="11" ry="11"/>
<text text-anchor="middle" x="158.06" y="-297.86" font-family="Helvetica,sans-Serif" font-size="16.80" fill="#4d4d4d">camion</text>
</g>
<!-- économie -->
<g id="node9" class="node">
<title>économie</title>
<ellipse fill="#d44842" stroke="white" stroke-width="0" cx="299.92" cy="-111.66" rx="21.5" ry="21.5"/>
<text text-anchor="middle" x="224.92" y="-96.88" font-family="Helvetica,sans-Serif" font-size="21.60" fill="#4d4d4d">économie</text>
</g>
<!-- environnement -->
<g id="node10" class="node">
<title>environnement</title>
<ellipse fill="#b0315b" stroke="white" stroke-width="0" cx="300.99" cy="-70.22" rx="18" ry="18"/>
<text text-anchor="middle" x="206.99" y="-36.22" font-family="Helvetica,sans-Serif" font-size="20.00" fill="#4d4d4d">environnement</text>
</g>
<!-- emploi -->
<g id="node11" class="node">
<title>emploi</title>
<ellipse fill="#b3325a" stroke="white" stroke-width="0" cx="260.6" cy="-71.76" rx="18" ry="18"/>
<text text-anchor="middle" x="209.1" y="-59.76" font-family="Helvetica,sans-Serif" font-size="20.00" fill="#4d4d4d">emploi</text>
</g>
<!-- terre -->
<g id="node12" class="node">
<title>terre</title>
<ellipse fill="#380962" stroke="white" stroke-width="0" cx="193.2" cy="-188.32" rx="7" ry="7"/>
<text text-anchor="middle" x="167.7" y="-200.16" font-family="Helvetica,sans-Serif" font-size="15.20" fill="#4d4d4d">terre</text>
</g>
<!-- usine -->
<g id="node13" class="node">
<title>usine</title>
<ellipse fill="#540f6d" stroke="white" stroke-width="0" cx="256.59" cy="-281.03" rx="11" ry="11"/>
<text text-anchor="middle" x="268.59" y="-296.59" font-family="Helvetica,sans-Serif" font-size="16.80" fill="#4d4d4d">usine</text>
</g>
<!-- exploitation -->
<g id="node14" class="node">
<title>exploitation</title>
<ellipse fill="#5a116e" stroke="white" stroke-width="0" cx="332.69" cy="-261.18" rx="11" ry="11"/>
<text text-anchor="middle" x="371.69" y="-276.74" font-family="Helvetica,sans-Serif" font-size="16.80" fill="#4d4d4d">exploitation</text>
</g>
<!-- ressource -->
<g id="node15" class="node">
<title>ressource</title>
<ellipse fill="#470b6a" stroke="white" stroke-width="0" cx="299.97" cy="-249.09" rx="7" ry="7"/>
<text text-anchor="middle" x="255.97" y="-246.93" font-family="Helvetica,sans-Serif" font-size="15.20" fill="#4d4d4d">ressource</text>
</g>
<!-- conflit -->
<g id="node16" class="node">
<title>conflit</title>
<ellipse fill="#380962" stroke="white" stroke-width="0" cx="201.37" cy="-24" rx="7" ry="7"/>
<text text-anchor="middle" x="170.37" y="-4.84" font-family="Helvetica,sans-Serif" font-size="15.20" fill="#4d4d4d">conflit</text>
</g>
<!-- développement -->
<g id="node17" class="node">
<title>développement</title>
<ellipse fill="#060419" stroke="white" stroke-width="0" cx="111.5" cy="-220.99" rx="3.5" ry="3.5"/>
<text text-anchor="middle" x="54" y="-228.61" font-family="Helvetica,sans-Serif" font-size="13.60" fill="#4d4d4d">développement</text>
</g>
<!-- déforestation -->
<g id="node18" class="node">
<title>déforestation</title>
<ellipse fill="#10092d" stroke="white" stroke-width="0" cx="95.08" cy="-162.82" rx="3.5" ry="3.5"/>
<text text-anchor="middle" x="46.58" y="-170.44" font-family="Helvetica,sans-Serif" font-size="13.60" fill="#4d4d4d">déforestation</text>
</g>
<!-- extraction -->
<g id="node19" class="node">
<title>extraction</title>
<ellipse fill="#010005" stroke="white" stroke-width="0" cx="418.19" cy="-292.12" rx="0.5" ry="0.5"/>
<text text-anchor="middle" x="387.19" y="-296.02" font-family="Helvetica,sans-Serif" font-size="12.00" fill="#4d4d4d">extraction</text>
</g>
<!-- terre rouge -->
<g id="node20" class="node">
<title>terre rouge</title>
<ellipse fill="#040312" stroke="white" stroke-width="0" cx="450.86" cy="-235.22" rx="3.5" ry="3.5"/>
<text text-anchor="middle" x="485.36" y="-242.84" font-family="Helvetica,sans-Serif" font-size="13.60" fill="#4d4d4d">terre rouge</text>
</g>
<!-- sln -->
<g id="node21" class="node">
<title>sln</title>
<ellipse fill="#3e0966" stroke="white" stroke-width="0" cx="450.28" cy="-161.07" rx="7" ry="7"/>
<text text-anchor="middle" x="431.78" y="-172.91" font-family="Helvetica,sans-Serif" font-size="15.20" fill="#4d4d4d">sln</text>
</g>
<!-- minerai -->
<g id="node22" class="node">
<title>minerai</title>
<ellipse fill="#540f6d" stroke="white" stroke-width="0" cx="310.94" cy="-318.71" rx="11" ry="11"/>
<text text-anchor="middle" x="267.94" y="-334.27" font-family="Helvetica,sans-Serif" font-size="16.80" fill="#4d4d4d">minerai</text>
</g>
<!-- goro -->
<g id="node23" class="node">
<title>goro</title>
<ellipse fill="#000004" stroke="white" stroke-width="0" cx="408.12" cy="-170.1" rx="0.5" ry="0.5"/>
<text text-anchor="middle" x="393.62" y="-174" font-family="Helvetica,sans-Serif" font-size="12.00" fill="#4d4d4d">goro</text>
</g>
<!-- caillou -->
<g id="node24" class="node">
<title>caillou</title>
<ellipse fill="#0b0724" stroke="white" stroke-width="0" cx="117.74" cy="-364.5" rx="3.5" ry="3.5"/>
<text text-anchor="middle" x="92.24" y="-372.12" font-family="Helvetica,sans-Serif" font-size="13.60" fill="#4d4d4d">caillou</text>
</g>
</g>
</svg>
