<?xml version="1.0" encoding="UTF-8" standalone="no"?>
<!DOCTYPE svg PUBLIC "-//W3C//DTD SVG 1.1//EN"
 "http://www.w3.org/Graphics/SVG/1.1/DTD/svg11.dtd">
<!-- Generated by graphviz version 2.43.0 (0)
 -->
<!-- Pages: 1 -->
<svg width="968pt" height="461pt"
 viewBox="0.00 0.00 968.12 461.41" xmlns="http://www.w3.org/2000/svg" xmlns:xlink="http://www.w3.org/1999/xlink">
<g id="graph0" class="graph" transform="scale(1 1) rotate(0) translate(4 457.41)">
<polygon fill="white" stroke="transparent" points="-4,4 -4,-457.41 964.12,-457.41 964.12,4 -4,4"/>
<!-- avenir sans nickel&#45;&#45;travail -->
<g id="edge1" class="edge">
<title>avenir sans nickel&#45;&#45;travail</title>
<path fill="none" stroke="darkgrey" stroke-width="3.09" d="M547.7,-120.42C536.26,-119.59 522.99,-118.63 512.58,-117.88"/>
</g>
<!-- avenir sans nickel&#45;&#45;politique -->
<g id="edge2" class="edge">
<title>avenir sans nickel&#45;&#45;politique</title>
<path fill="none" stroke="darkgrey" stroke-width="3.56" d="M576.84,-147.21C582.38,-182.18 592.31,-244.92 597.19,-275.78"/>
</g>
<!-- avenir sans nickel&#45;&#45;secteur nickel -->
<g id="edge3" class="edge">
<title>avenir sans nickel&#45;&#45;secteur nickel</title>
<path fill="none" stroke="darkgrey" stroke-width="2.9" d="M560.27,-144.23C554.33,-154.56 547.39,-166.65 541.99,-176.04"/>
</g>
<!-- avenir sans nickel&#45;&#45;avenir avec nickel -->
<g id="edge4" class="edge">
<title>avenir sans nickel&#45;&#45;avenir avec nickel</title>
<path fill="none" stroke="darkgrey" stroke-width="2.83" d="M596.24,-112.78C614.45,-105.4 638.53,-95.65 650.03,-90.98"/>
</g>
<!-- avenir sans nickel&#45;&#45;pollution -->
<g id="edge5" class="edge">
<title>avenir sans nickel&#45;&#45;pollution</title>
<path fill="none" stroke="darkgrey" stroke-width="5.37" d="M548.55,-129.2C522.26,-136.72 480.8,-148.57 455.91,-155.68"/>
</g>
<!-- avenir sans nickel&#45;&#45;ressource minière -->
<g id="edge6" class="edge">
<title>avenir sans nickel&#45;&#45;ressource minière</title>
<path fill="none" stroke="darkgrey" stroke-width="5.46" d="M595.52,-133.28C606.29,-138.53 619.14,-144.79 629.92,-150.05"/>
</g>
<!-- avenir sans nickel&#45;&#45;dégradation environnementale -->
<g id="edge7" class="edge">
<title>avenir sans nickel&#45;&#45;dégradation environnementale</title>
<path fill="none" stroke="darkgrey" stroke-width="6.07" d="M554.85,-139.68C539.1,-154.9 516.02,-177.2 498.23,-194.4"/>
</g>
<!-- avenir sans nickel&#45;&#45;société néo&#45;calédonienne -->
<g id="edge8" class="edge">
<title>avenir sans nickel&#45;&#45;société néo&#45;calédonienne</title>
<path fill="none" stroke="darkgrey" stroke-width="2.79" d="M559.7,-143.88C535.52,-183.55 484.81,-266.76 465.57,-298.33"/>
</g>
<!-- avenir sans nickel&#45;&#45;alternative au développement -->
<g id="edge9" class="edge">
<title>avenir sans nickel&#45;&#45;alternative au développement</title>
<path fill="none" stroke="darkgrey" stroke-width="4.4" d="M586.33,-143.66C596.02,-159.1 609.05,-179.85 618.73,-195.27"/>
</g>
<!-- avenir sans nickel&#45;&#45;économie -->
<g id="edge10" class="edge">
<title>avenir sans nickel&#45;&#45;économie</title>
<path fill="none" stroke="darkgrey" stroke-width="2.41" d="M567.22,-146.8C560.53,-175.81 549.61,-223.13 544.14,-246.85"/>
</g>
<!-- avenir sans nickel&#45;&#45;amélioration environnementale -->
<g id="edge11" class="edge">
<title>avenir sans nickel&#45;&#45;amélioration environnementale</title>
<path fill="none" stroke="darkgrey" stroke-width="1.83" d="M558.23,-101.62C546.39,-84.97 530.3,-62.32 521.39,-49.79"/>
</g>
<!-- avenir sans nickel&#45;&#45;essor technologique -->
<g id="edge12" class="edge">
<title>avenir sans nickel&#45;&#45;essor technologique</title>
<path fill="none" stroke="darkgrey" stroke-width="1.06" d="M575.68,-97.26C578.04,-76.12 581.34,-46.56 583.29,-29.09"/>
</g>
<!-- travail&#45;&#45;politique -->
<g id="edge13" class="edge">
<title>travail&#45;&#45;politique</title>
<path fill="none" stroke="darkgrey" stroke-width="3.29" d="M503.98,-132.32C523.99,-165.97 570.74,-244.6 590.73,-278.23"/>
</g>
<!-- travail&#45;&#45;secteur nickel -->
<g id="edge14" class="edge">
<title>travail&#45;&#45;secteur nickel</title>
<path fill="none" stroke="darkgrey" stroke-width="3.46" d="M502.95,-132.88C509.39,-145.48 518.25,-162.85 524.68,-175.44"/>
</g>
<!-- travail&#45;&#45;avenir avec nickel -->
<g id="edge15" class="edge">
<title>travail&#45;&#45;avenir avec nickel</title>
<path fill="none" stroke="darkgrey" stroke-width="1.31" d="M512.59,-113.44C548.03,-107.25 625.6,-93.71 649.53,-89.53"/>
</g>
<!-- travail&#45;&#45;pollution -->
<g id="edge16" class="edge">
<title>travail&#45;&#45;pollution</title>
<path fill="none" stroke="darkgrey" stroke-width="5.07" d="M480.19,-127.49C471.77,-133.85 461.11,-141.91 452.25,-148.6"/>
</g>
<!-- travail&#45;&#45;ressource minière -->
<g id="edge17" class="edge">
<title>travail&#45;&#45;ressource minière</title>
<path fill="none" stroke="darkgrey" stroke-width="2.58" d="M512.14,-121.51C540.42,-129.49 596.21,-145.21 628.31,-154.26"/>
</g>
<!-- travail&#45;&#45;dégradation environnementale -->
<g id="edge18" class="edge">
<title>travail&#45;&#45;dégradation environnementale</title>
<path fill="none" stroke="darkgrey" stroke-width="6.24" d="M490.69,-134.55C487.67,-148.29 483.42,-167.66 479.74,-184.46"/>
</g>
<!-- travail&#45;&#45;société néo&#45;calédonienne -->
<g id="edge19" class="edge">
<title>travail&#45;&#45;société néo&#45;calédonienne</title>
<path fill="none" stroke="darkgrey" stroke-width="3.26" d="M491.24,-134.51C484.02,-172.74 467.24,-261.62 460.65,-296.46"/>
</g>
<!-- travail&#45;&#45;alternative au développement -->
<g id="edge20" class="edge">
<title>travail&#45;&#45;alternative au développement</title>
<path fill="none" stroke="darkgrey" stroke-width="3.61" d="M509.34,-127.28C534,-145.22 583.73,-181.4 611.74,-201.77"/>
</g>
<!-- travail&#45;&#45;économie -->
<g id="edge22" class="edge">
<title>travail&#45;&#45;économie</title>
<path fill="none" stroke="darkgrey" stroke-width="3.73" d="M500.1,-133.75C509.32,-162.67 527.77,-220.51 536.28,-247.22"/>
</g>
<!-- travail&#45;&#45;amélioration environnementale -->
<g id="edge23" class="edge">
<title>travail&#45;&#45;amélioration environnementale</title>
<path fill="none" stroke="darkgrey" stroke-width="2.5" d="M499.3,-98.93C503.21,-84.18 508.66,-63.63 511.94,-51.24"/>
</g>
<!-- travail&#45;&#45;essor technologique -->
<g id="edge24" class="edge">
<title>travail&#45;&#45;essor technologique</title>
<path fill="none" stroke="darkgrey" stroke-width="2.77" d="M506.81,-102.81C524.91,-82.35 558.55,-44.31 575.15,-25.55"/>
</g>
<!-- travail&#45;&#45;nickel -->
<g id="edge21" class="edge">
<title>travail&#45;&#45;nickel</title>
<path fill="none" stroke="darkgrey" stroke-width="1.12" d="M478.96,-125.55C446.88,-143.92 375.36,-184.87 359.04,-194.22"/>
</g>
<!-- politique&#45;&#45;secteur nickel -->
<g id="edge26" class="edge">
<title>politique&#45;&#45;secteur nickel</title>
<path fill="none" stroke="darkgrey" stroke-width="3.67" d="M590.17,-278.85C577.49,-259.52 555.63,-226.21 542.93,-206.86"/>
</g>
<!-- politique&#45;&#45;avenir avec nickel -->
<g id="edge28" class="edge">
<title>politique&#45;&#45;avenir avec nickel</title>
<path fill="none" stroke="darkgrey" stroke-width="1.22" d="M604.9,-276.4C616.78,-233.27 647.02,-123.47 654.84,-95.07"/>
</g>
<!-- politique&#45;&#45;pollution -->
<g id="edge29" class="edge">
<title>politique&#45;&#45;pollution</title>
<path fill="none" stroke="darkgrey" stroke-width="3.27" d="M585.99,-282.66C555.74,-258.42 484.61,-201.43 451.93,-175.25"/>
</g>
<!-- politique&#45;&#45;ressource minière -->
<g id="edge30" class="edge">
<title>politique&#45;&#45;ressource minière</title>
<path fill="none" stroke="darkgrey" stroke-width="3.75" d="M606.72,-277.11C616,-253.66 632.86,-211.03 643.36,-184.49"/>
</g>
<!-- politique&#45;&#45;dégradation environnementale -->
<g id="edge31" class="edge">
<title>politique&#45;&#45;dégradation environnementale</title>
<path fill="none" stroke="darkgrey" stroke-width="4.96" d="M584.36,-284.83C564.26,-273.19 528.96,-252.74 503.28,-237.86"/>
</g>
<!-- politique&#45;&#45;société néo&#45;calédonienne -->
<g id="edge32" class="edge">
<title>politique&#45;&#45;société néo&#45;calédonienne</title>
<path fill="none" stroke="darkgrey" stroke-width="2.08" d="M582.07,-296.07C553.53,-299.47 498.48,-306.02 472.36,-309.13"/>
</g>
<!-- politique&#45;&#45;alternative au développement -->
<g id="edge34" class="edge">
<title>politique&#45;&#45;alternative au développement</title>
<path fill="none" stroke="darkgrey" stroke-width="2.87" d="M607.02,-277.15C611.55,-266.22 617.52,-251.82 622.51,-239.8"/>
</g>
<!-- politique&#45;&#45;économie -->
<g id="edge35" class="edge">
<title>politique&#45;&#45;économie</title>
<path fill="none" stroke="darkgrey" stroke-width="3.47" d="M584.18,-285.2C574.58,-279.92 562.5,-273.28 553.53,-268.35"/>
</g>
<!-- politique&#45;&#45;relation politique -->
<g id="edge27" class="edge">
<title>politique&#45;&#45;relation politique</title>
<path fill="none" stroke="darkgrey" stroke-width="1.45" d="M589.93,-309C566.02,-344.55 507.69,-431.26 502.28,-439.31"/>
</g>
<!-- politique&#45;&#45;nouvelle&#45;calédonie -->
<g id="edge33" class="edge">
<title>politique&#45;&#45;nouvelle&#45;calédonie</title>
<path fill="none" stroke="darkgrey" stroke-width="1.27" d="M612.46,-307.35C632.72,-329.28 671.68,-371.47 681.67,-382.29"/>
</g>
<!-- secteur nickel&#45;&#45;avenir avec nickel -->
<g id="edge37" class="edge">
<title>secteur nickel&#45;&#45;avenir avec nickel</title>
<path fill="none" stroke="darkgrey" stroke-width="1.42" d="M547.18,-179.85C574.48,-157.03 633.18,-107.95 651.28,-92.81"/>
</g>
<!-- secteur nickel&#45;&#45;pollution -->
<g id="edge38" class="edge">
<title>secteur nickel&#45;&#45;pollution</title>
<path fill="none" stroke="darkgrey" stroke-width="3.68" d="M515.47,-186.34C498.73,-181.21 473.49,-173.47 455.74,-168.03"/>
</g>
<!-- secteur nickel&#45;&#45;ressource minière -->
<g id="edge39" class="edge">
<title>secteur nickel&#45;&#45;ressource minière</title>
<path fill="none" stroke="darkgrey" stroke-width="2.14" d="M550.64,-187.2C571.18,-181.94 605.21,-173.24 628.25,-167.34"/>
</g>
<!-- secteur nickel&#45;&#45;dégradation environnementale -->
<g id="edge40" class="edge">
<title>secteur nickel&#45;&#45;dégradation environnementale</title>
<path fill="none" stroke="darkgrey" stroke-width="3.34" d="M516.33,-199.37C512.8,-200.99 508.96,-202.76 505.06,-204.55"/>
</g>
<!-- secteur nickel&#45;&#45;société néo&#45;calédonienne -->
<g id="edge41" class="edge">
<title>secteur nickel&#45;&#45;société néo&#45;calédonienne</title>
<path fill="none" stroke="darkgrey" stroke-width="1.69" d="M523.18,-207.29C508.08,-231.26 479.46,-276.69 465.7,-298.53"/>
</g>
<!-- secteur nickel&#45;&#45;alternative au développement -->
<g id="edge42" class="edge">
<title>secteur nickel&#45;&#45;alternative au développement</title>
<path fill="none" stroke="darkgrey" stroke-width="5.46" d="M550.71,-196.16C566.64,-200.16 590.18,-206.07 607.85,-210.51"/>
</g>
<!-- secteur nickel&#45;&#45;économie -->
<g id="edge44" class="edge">
<title>secteur nickel&#45;&#45;économie</title>
<path fill="none" stroke="darkgrey" stroke-width="2.32" d="M535,-209.65C536.28,-221.09 537.92,-235.75 539.13,-246.53"/>
</g>
<!-- secteur nickel&#45;&#45;amélioration environnementale -->
<g id="edge45" class="edge">
<title>secteur nickel&#45;&#45;amélioration environnementale</title>
<path fill="none" stroke="darkgrey" stroke-width="2.9" d="M530.83,-173.77C527.03,-142.17 519.23,-77.46 516.12,-51.57"/>
</g>
<!-- secteur nickel&#45;&#45;essor technologique -->
<g id="edge46" class="edge">
<title>secteur nickel&#45;&#45;essor technologique</title>
<path fill="none" stroke="darkgrey" stroke-width="1.82" d="M538.07,-174.4C548.33,-139.39 571.36,-60.78 580.79,-28.62"/>
</g>
<!-- secteur nickel&#45;&#45;nickel -->
<g id="edge43" class="edge">
<title>secteur nickel&#45;&#45;nickel</title>
<path fill="none" stroke="darkgrey" stroke-width="1.82" d="M514.68,-192.17C474.16,-193.18 378.91,-195.56 359.26,-196.06"/>
</g>
<!-- secteur nickel&#45;&#45;relation politique -->
<g id="edge36" class="edge">
<title>secteur nickel&#45;&#45;relation politique</title>
<path fill="none" stroke="darkgrey" stroke-width="1.1" d="M530.7,-209.96C523.74,-265.49 503.21,-429.23 501.93,-439.41"/>
</g>
<!-- avenir avec nickel&#45;&#45;ressource minière -->
<g id="edge49" class="edge">
<title>avenir avec nickel&#45;&#45;ressource minière</title>
<path fill="none" stroke="darkgrey" stroke-width="1.23" d="M656.3,-95.53C655.78,-104.88 654.83,-121.65 654.03,-135.88"/>
</g>
<!-- avenir avec nickel&#45;&#45;dégradation environnementale -->
<g id="edge50" class="edge">
<title>avenir avec nickel&#45;&#45;dégradation environnementale</title>
<path fill="none" stroke="darkgrey" stroke-width="2.44" d="M650.98,-92.35C628.63,-108.26 546.36,-166.81 501.56,-198.7"/>
</g>
<!-- avenir avec nickel&#45;&#45;alternative au développement -->
<g id="edge51" class="edge">
<title>avenir avec nickel&#45;&#45;alternative au développement</title>
<path fill="none" stroke="darkgrey" stroke-width="2.01" d="M655.39,-95.18C651.95,-113.14 642.58,-162.02 636.84,-192"/>
</g>
<!-- avenir avec nickel&#45;&#45;économie -->
<g id="edge52" class="edge">
<title>avenir avec nickel&#45;&#45;économie</title>
<path fill="none" stroke="darkgrey" stroke-width="1.83" d="M652.59,-94.44C635.73,-119.61 571.88,-214.93 549,-249.08"/>
</g>
<!-- avenir avec nickel&#45;&#45;amélioration environnementale -->
<g id="edge53" class="edge">
<title>avenir avec nickel&#45;&#45;amélioration environnementale</title>
<path fill="none" stroke="darkgrey" stroke-width="2.54" d="M649.87,-85.97C626.94,-78.25 552.77,-53.28 525.22,-44.01"/>
</g>
<!-- avenir avec nickel&#45;&#45;essor technologique -->
<g id="edge54" class="edge">
<title>avenir avec nickel&#45;&#45;essor technologique</title>
<path fill="none" stroke="darkgrey" stroke-width="1.9" d="M651.55,-82.97C639.78,-70.88 610.79,-41.09 595.22,-25.08"/>
</g>
<!-- pollution&#45;&#45;ressource minière -->
<g id="edge55" class="edge">
<title>pollution&#45;&#45;ressource minière</title>
<path fill="none" stroke="darkgrey" stroke-width="4.29" d="M456.63,-161.61C497.17,-161.51 584.26,-161.28 627.37,-161.17"/>
</g>
<!-- pollution&#45;&#45;dégradation environnementale -->
<g id="edge56" class="edge">
<title>pollution&#45;&#45;dégradation environnementale</title>
<path fill="none" stroke="darkgrey" stroke-width="10" d="M446.69,-180.04C448.55,-182.96 450.52,-186.06 452.51,-189.17"/>
</g>
<!-- pollution&#45;&#45;société néo&#45;calédonienne -->
<g id="edge58" class="edge">
<title>pollution&#45;&#45;société néo&#45;calédonienne</title>
<path fill="none" stroke="darkgrey" stroke-width="3.36" d="M438.26,-183.04C443,-213.82 451.62,-269.81 455.69,-296.27"/>
</g>
<!-- pollution&#45;&#45;alternative au développement -->
<g id="edge59" class="edge">
<title>pollution&#45;&#45;alternative au développement</title>
<path fill="none" stroke="darkgrey" stroke-width="4.55" d="M455.69,-167.44C492.47,-177.69 568.94,-198.99 608.01,-209.88"/>
</g>
<!-- pollution&#45;&#45;économie -->
<g id="edge61" class="edge">
<title>pollution&#45;&#45;économie</title>
<path fill="none" stroke="darkgrey" stroke-width="4.25" d="M451.04,-176.8C472.9,-197.39 511.4,-233.66 530.05,-251.24"/>
</g>
<!-- pollution&#45;&#45;amélioration environnementale -->
<g id="edge62" class="edge">
<title>pollution&#45;&#45;amélioration environnementale</title>
<path fill="none" stroke="darkgrey" stroke-width="1.37" d="M446.92,-143.52C464.14,-117.38 495.32,-70.05 508.56,-49.94"/>
</g>
<!-- pollution&#45;&#45;essor technologique -->
<g id="edge63" class="edge">
<title>pollution&#45;&#45;essor technologique</title>
<path fill="none" stroke="darkgrey" stroke-width="2.57" d="M450.45,-146.47C480.98,-116.51 548.25,-50.5 574.31,-24.91"/>
</g>
<!-- pollution&#45;&#45;nickel -->
<g id="edge60" class="edge">
<title>pollution&#45;&#45;nickel</title>
<path fill="none" stroke="darkgrey" stroke-width="1.8" d="M414.96,-170.36C395.88,-178.66 368.67,-190.5 359.14,-194.64"/>
</g>
<!-- pollution&#45;&#45;nature -->
<g id="edge57" class="edge">
<title>pollution&#45;&#45;nature</title>
<path fill="none" stroke="darkgrey" stroke-width="2.33" d="M420.26,-177.79C384.78,-216.71 295.8,-314.32 274.1,-338.11"/>
</g>
<!-- ressource minière&#45;&#45;dégradation environnementale -->
<g id="edge64" class="edge">
<title>ressource minière&#45;&#45;dégradation environnementale</title>
<path fill="none" stroke="darkgrey" stroke-width="6.45" d="M628.62,-168.89C597.25,-179.08 542.06,-196.99 506.28,-208.61"/>
</g>
<!-- ressource minière&#45;&#45;alternative au développement -->
<g id="edge66" class="edge">
<title>ressource minière&#45;&#45;alternative au développement</title>
<path fill="none" stroke="darkgrey" stroke-width="4.85" d="M643.92,-184.64C642.92,-187.36 641.89,-190.13 640.89,-192.85"/>
</g>
<!-- ressource minière&#45;&#45;économie -->
<g id="edge67" class="edge">
<title>ressource minière&#45;&#45;économie</title>
<path fill="none" stroke="darkgrey" stroke-width="3.46" d="M633.89,-177.89C610.39,-198.95 570.84,-234.41 551.75,-251.52"/>
</g>
<!-- ressource minière&#45;&#45;amélioration environnementale -->
<g id="edge68" class="edge">
<title>ressource minière&#45;&#45;amélioration environnementale</title>
<path fill="none" stroke="darkgrey" stroke-width="1.43" d="M633.73,-144.59C603.36,-118.01 544.85,-66.8 523.15,-47.82"/>
</g>
<!-- ressource minière&#45;&#45;essor technologique -->
<g id="edge69" class="edge">
<title>ressource minière&#45;&#45;essor technologique</title>
<path fill="none" stroke="darkgrey" stroke-width="3.85" d="M642.03,-138.2C627.76,-107.28 602.77,-53.16 591.17,-28.03"/>
</g>
<!-- ressource minière&#45;&#45;nouvelle&#45;calédonie -->
<g id="edge65" class="edge">
<title>ressource minière&#45;&#45;nouvelle&#45;calédonie</title>
<path fill="none" stroke="darkgrey" stroke-width="1.08" d="M656.09,-185.91C663.51,-238.71 680.45,-359.21 683.56,-381.34"/>
</g>
<!-- dégradation environnementale&#45;&#45;société néo&#45;calédonienne -->
<g id="edge71" class="edge">
<title>dégradation environnementale&#45;&#45;société néo&#45;calédonienne</title>
<path fill="none" stroke="darkgrey" stroke-width="2.56" d="M466.48,-255.49C464.3,-269.64 461.91,-285.13 460.21,-296.11"/>
</g>
<!-- dégradation environnementale&#45;&#45;alternative au développement -->
<g id="edge72" class="edge">
<title>dégradation environnementale&#45;&#45;alternative au développement</title>
<path fill="none" stroke="darkgrey" stroke-width="4.94" d="M508.33,-219.03C538.41,-218.44 580.37,-217.61 606.89,-217.09"/>
</g>
<!-- dégradation environnementale&#45;&#45;économie -->
<g id="edge74" class="edge">
<title>dégradation environnementale&#45;&#45;économie</title>
<path fill="none" stroke="darkgrey" stroke-width="6.3" d="M503.17,-238.6C511.99,-243.93 521.09,-249.43 528.13,-253.69"/>
</g>
<!-- dégradation environnementale&#45;&#45;amélioration environnementale -->
<g id="edge75" class="edge">
<title>dégradation environnementale&#45;&#45;amélioration environnementale</title>
<path fill="none" stroke="darkgrey" stroke-width="2.48" d="M480.45,-184.33C490.29,-143.11 505.98,-77.39 512.16,-51.49"/>
</g>
<!-- dégradation environnementale&#45;&#45;essor technologique -->
<g id="edge76" class="edge">
<title>dégradation environnementale&#45;&#45;essor technologique</title>
<path fill="none" stroke="darkgrey" stroke-width="3.25" d="M489.4,-188.12C514.64,-142.24 560.31,-59.23 577.82,-27.4"/>
</g>
<!-- dégradation environnementale&#45;&#45;nickel -->
<g id="edge73" class="edge">
<title>dégradation environnementale&#45;&#45;nickel</title>
<path fill="none" stroke="darkgrey" stroke-width="1.95" d="M436.47,-212.53C407.87,-206.73 370.63,-199.18 359.18,-196.86"/>
</g>
<!-- dégradation environnementale&#45;&#45;nature -->
<g id="edge70" class="edge">
<title>dégradation environnementale&#45;&#45;nature</title>
<path fill="none" stroke="darkgrey" stroke-width="3.46" d="M441.21,-238.52C392.25,-268.38 299.69,-324.85 275.3,-339.73"/>
</g>
<!-- société néo&#45;calédonienne&#45;&#45;alternative au développement -->
<g id="edge79" class="edge">
<title>société néo&#45;calédonienne&#45;&#45;alternative au développement</title>
<path fill="none" stroke="darkgrey" stroke-width="2.81" d="M470.75,-303.92C500.21,-287.98 573.08,-248.55 609.97,-228.58"/>
</g>
<!-- société néo&#45;calédonienne&#45;&#45;économie -->
<g id="edge81" class="edge">
<title>société néo&#45;calédonienne&#45;&#45;économie</title>
<path fill="none" stroke="darkgrey" stroke-width="2.58" d="M470.52,-303.33C486.09,-294.03 512.46,-278.27 528.09,-268.94"/>
</g>
<!-- société néo&#45;calédonienne&#45;&#45;nickel -->
<g id="edge80" class="edge">
<title>société néo&#45;calédonienne&#45;&#45;nickel</title>
<path fill="none" stroke="darkgrey" stroke-width="1.66" d="M448.13,-299.85C425.54,-274.5 370.79,-213.09 358.26,-199.04"/>
</g>
<!-- société néo&#45;calédonienne&#45;&#45;nouvelle&#45;calédonie -->
<g id="edge78" class="edge">
<title>société néo&#45;calédonienne&#45;&#45;nouvelle&#45;calédonie</title>
<path fill="none" stroke="darkgrey" stroke-width="1.2" d="M471.74,-315.37C516.62,-330.06 656.85,-375.96 680.62,-383.74"/>
</g>
<!-- alternative au développement&#45;&#45;économie -->
<g id="edge85" class="edge">
<title>alternative au développement&#45;&#45;économie</title>
<path fill="none" stroke="darkgrey" stroke-width="5.3" d="M609.55,-227.66C592.11,-236.2 568.59,-247.73 554.07,-254.84"/>
</g>
<!-- alternative au développement&#45;&#45;amélioration environnementale -->
<g id="edge86" class="edge">
<title>alternative au développement&#45;&#45;amélioration environnementale</title>
<path fill="none" stroke="darkgrey" stroke-width="4.19" d="M618.2,-195.71C592.7,-157.44 539.45,-77.51 521.13,-50.02"/>
</g>
<!-- alternative au développement&#45;&#45;essor technologique -->
<g id="edge87" class="edge">
<title>alternative au développement&#45;&#45;essor technologique</title>
<path fill="none" stroke="darkgrey" stroke-width="4.03" d="M626.43,-192.22C616.47,-149.6 596.21,-62.82 588.24,-28.72"/>
</g>
<!-- alternative au développement&#45;&#45;nickel -->
<g id="edge84" class="edge">
<title>alternative au développement&#45;&#45;nickel</title>
<path fill="none" stroke="darkgrey" stroke-width="1.69" d="M607.1,-214.75C544.64,-210.13 384.99,-198.31 359.22,-196.41"/>
</g>
<!-- économie&#45;&#45;amélioration environnementale -->
<g id="edge89" class="edge">
<title>économie&#45;&#45;amélioration environnementale</title>
<path fill="none" stroke="darkgrey" stroke-width="1.21" d="M539.08,-246.86C534.22,-205.59 520.39,-88.09 516.08,-51.51"/>
</g>
<!-- amélioration environnementale&#45;&#45;essor technologique -->
<g id="edge90" class="edge">
<title>amélioration environnementale&#45;&#45;essor technologique</title>
<path fill="none" stroke="darkgrey" stroke-width="1.58" d="M525.13,-36.66C537.33,-32.14 557.63,-24.61 571.15,-19.61"/>
</g>
<!-- nickel&#45;&#45;économie -->
<g id="edge88" class="edge">
<title>nickel&#45;&#45;économie</title>
<path fill="none" stroke="darkgrey" d="M359.22,-197.39C380.16,-204.77 488.42,-242.9 527.07,-256.52"/>
</g>
<!-- exploitation minière&#45;&#45;alternative au développement -->
<g id="edge25" class="edge">
<title>exploitation minière&#45;&#45;alternative au développement</title>
<path fill="none" stroke="darkgrey" stroke-width="1.06" d="M947.59,-305.34C935.92,-302.06 728.21,-243.63 656.35,-223.41"/>
</g>
<!-- relation politique&#45;&#45;dégradation environnementale -->
<g id="edge47" class="edge">
<title>relation politique&#45;&#45;dégradation environnementale</title>
<path fill="none" stroke="darkgrey" stroke-width="1.01" d="M501.79,-439.28C500.5,-429.77 484.96,-315.23 476.85,-255.5"/>
</g>
<!-- relation politique&#45;&#45;économie -->
<g id="edge48" class="edge">
<title>relation politique&#45;&#45;économie</title>
<path fill="none" stroke="darkgrey" stroke-width="1.26" d="M501.98,-439.4C503.86,-430.8 528.77,-316.5 537.66,-275.7"/>
</g>
<!-- nouvelle&#45;calédonie&#45;&#45;alternative au développement -->
<g id="edge82" class="edge">
<title>nouvelle&#45;calédonie&#45;&#45;alternative au développement</title>
<path fill="none" stroke="darkgrey" stroke-width="1.74" d="M682.97,-381.35C677.45,-363.46 652.24,-281.78 639.52,-240.55"/>
</g>
<!-- nouvelle&#45;calédonie&#45;&#45;économie -->
<g id="edge83" class="edge">
<title>nouvelle&#45;calédonie&#45;&#45;économie</title>
<path fill="none" stroke="darkgrey" stroke-width="1.31" d="M681.32,-382.51C665.23,-368.63 582.51,-297.32 552.06,-271.07"/>
</g>
<!-- nature&#45;&#45;société néo&#45;calédonienne -->
<g id="edge77" class="edge">
<title>nature&#45;&#45;société néo&#45;calédonienne</title>
<path fill="none" stroke="darkgrey" stroke-width="1.33" d="M276.44,-342.16C304.31,-337.36 405.78,-319.85 443.6,-313.32"/>
</g>
<!-- avenir sans nickel -->
<g id="node1" class="node">
<title>avenir sans nickel</title>
<ellipse fill="#f8850f" stroke="white" stroke-width="0" cx="572.89" cy="-122.25" rx="25" ry="25"/>
<text text-anchor="middle" x="442.89" y="-78.69" font-family="Helvetica,sans-Serif" font-size="23.20" fill="#4d4d4d">avenir sans nickel</text>
</g>
<!-- travail -->
<g id="node2" class="node">
<title>travail</title>
<ellipse fill="#ae305c" stroke="white" stroke-width="0" cx="494.63" cy="-116.58" rx="18" ry="18"/>
<text text-anchor="middle" x="445.13" y="-104.58" font-family="Helvetica,sans-Serif" font-size="20.00" fill="#4d4d4d">travail</text>
</g>
<!-- politique -->
<g id="node3" class="node">
<title>politique</title>
<ellipse fill="#c13a50" stroke="white" stroke-width="0" cx="600.07" cy="-293.93" rx="18" ry="18"/>
<text text-anchor="middle" x="539.07" y="-317.93" font-family="Helvetica,sans-Serif" font-size="20.00" fill="#4d4d4d">politique</text>
</g>
<!-- secteur nickel -->
<g id="node4" class="node">
<title>secteur nickel</title>
<ellipse fill="#c03a51" stroke="white" stroke-width="0" cx="532.99" cy="-191.71" rx="18" ry="18"/>
<text text-anchor="middle" x="541.99" y="-157.71" font-family="Helvetica,sans-Serif" font-size="20.00" fill="#4d4d4d">secteur nickel</text>
</g>
<!-- avenir avec nickel -->
<g id="node5" class="node">
<title>avenir avec nickel</title>
<ellipse fill="#3b0964" stroke="white" stroke-width="0" cx="656.71" cy="-88.28" rx="7" ry="7"/>
<text text-anchor="middle" x="717.71" y="-100.12" font-family="Helvetica,sans-Serif" font-size="15.20" fill="#4d4d4d">avenir avec nickel</text>
</g>
<!-- pollution -->
<g id="node6" class="node">
<title>pollution</title>
<ellipse fill="#e55c30" stroke="white" stroke-width="0" cx="434.97" cy="-161.66" rx="21.5" ry="21.5"/>
<text text-anchor="middle" x="366.47" y="-146.88" font-family="Helvetica,sans-Serif" font-size="21.60" fill="#4d4d4d">pollution</text>
</g>
<!-- ressource minière -->
<g id="node7" class="node">
<title>ressource minière</title>
<ellipse fill="#ec6726" stroke="white" stroke-width="0" cx="652.61" cy="-161.11" rx="25" ry="25"/>
<text text-anchor="middle" x="782.11" y="-193.55" font-family="Helvetica,sans-Serif" font-size="23.20" fill="#4d4d4d">ressource minière</text>
</g>
<!-- dégradation environnementale -->
<g id="node8" class="node">
<title>dégradation environnementale</title>
<ellipse fill="#fcffa4" stroke="white" stroke-width="0" cx="472" cy="-219.74" rx="36" ry="36"/>
<text text-anchor="middle" x="218" y="-264.34" font-family="Helvetica,sans-Serif" font-size="28.00" fill="#4d4d4d">dégradation environnementale</text>
</g>
<!-- société néo&#45;calédonienne -->
<g id="node9" class="node">
<title>société néo&#45;calédonienne</title>
<ellipse fill="#7c1d6d" stroke="white" stroke-width="0" cx="457.94" cy="-310.85" rx="14.5" ry="14.5"/>
<text text-anchor="middle" x="324.44" y="-301.63" font-family="Helvetica,sans-Serif" font-size="18.40" fill="#4d4d4d">société néo&#45;calédonienne</text>
</g>
<!-- alternative au développement -->
<g id="node10" class="node">
<title>alternative au développement</title>
<ellipse fill="#f8850f" stroke="white" stroke-width="0" cx="632.12" cy="-216.6" rx="25" ry="25"/>
<text text-anchor="middle" x="783.62" y="-249.04" font-family="Helvetica,sans-Serif" font-size="23.20" fill="#4d4d4d">alternative au développement</text>
</g>
<!-- économie -->
<g id="node11" class="node">
<title>économie</title>
<ellipse fill="#9d2964" stroke="white" stroke-width="0" cx="540.79" cy="-261.35" rx="14.5" ry="14.5"/>
<text text-anchor="middle" x="480.79" y="-281.13" font-family="Helvetica,sans-Serif" font-size="18.40" fill="#4d4d4d">économie</text>
</g>
<!-- amélioration environnementale -->
<g id="node12" class="node">
<title>amélioration environnementale</title>
<ellipse fill="#61136e" stroke="white" stroke-width="0" cx="514.78" cy="-40.5" rx="11" ry="11"/>
<text text-anchor="middle" x="371.28" y="-56.06" font-family="Helvetica,sans-Serif" font-size="16.80" fill="#4d4d4d">amélioration environnementale</text>
</g>
<!-- essor technologique -->
<g id="node13" class="node">
<title>essor technologique</title>
<ellipse fill="#9b2964" stroke="white" stroke-width="0" cx="584.92" cy="-14.5" rx="14.5" ry="14.5"/>
<text text-anchor="middle" x="475.92" y="-5.28" font-family="Helvetica,sans-Serif" font-size="18.40" fill="#4d4d4d">essor technologique</text>
</g>
<!-- nickel -->
<g id="node14" class="node">
<title>nickel</title>
<ellipse fill="#140b34" stroke="white" stroke-width="0" cx="355.68" cy="-196.15" rx="3.5" ry="3.5"/>
<text text-anchor="middle" x="332.18" y="-203.77" font-family="Helvetica,sans-Serif" font-size="13.60" fill="#4d4d4d">nickel</text>
</g>
<!-- exploitation minière -->
<g id="node15" class="node">
<title>exploitation minière</title>
<ellipse fill="#000004" stroke="white" stroke-width="0" cx="948.1" cy="-305.48" rx="0.5" ry="0.5"/>
<text text-anchor="middle" x="888.1" y="-309.38" font-family="Helvetica,sans-Serif" font-size="12.00" fill="#4d4d4d">exploitation minière</text>
</g>
<!-- relation politique -->
<g id="node16" class="node">
<title>relation politique</title>
<ellipse fill="#02020e" stroke="white" stroke-width="0" cx="501.87" cy="-439.91" rx="0.5" ry="0.5"/>
<text text-anchor="middle" x="451.37" y="-443.81" font-family="Helvetica,sans-Serif" font-size="12.00" fill="#4d4d4d">relation politique</text>
</g>
<!-- nouvelle&#45;calédonie -->
<g id="node17" class="node">
<title>nouvelle&#45;calédonie</title>
<ellipse fill="#150b37" stroke="white" stroke-width="0" cx="684.06" cy="-384.86" rx="3.5" ry="3.5"/>
<text text-anchor="middle" x="616.56" y="-392.48" font-family="Helvetica,sans-Serif" font-size="13.60" fill="#4d4d4d">nouvelle&#45;calédonie</text>
</g>
<!-- nature -->
<g id="node18" class="node">
<title>nature</title>
<ellipse fill="#380962" stroke="white" stroke-width="0" cx="269.28" cy="-343.4" rx="7" ry="7"/>
<text text-anchor="middle" x="237.28" y="-355.24" font-family="Helvetica,sans-Serif" font-size="15.20" fill="#4d4d4d">nature</text>
</g>
</g>
</svg>
