<?xml version="1.0" encoding="UTF-8" standalone="no"?>
<!DOCTYPE svg PUBLIC "-//W3C//DTD SVG 1.1//EN"
 "http://www.w3.org/Graphics/SVG/1.1/DTD/svg11.dtd">
<!-- Generated by graphviz version 2.43.0 (0)
 -->
<!-- Pages: 1 -->
<svg width="959pt" height="452pt"
 viewBox="0.00 0.00 959.21 452.32" xmlns="http://www.w3.org/2000/svg" xmlns:xlink="http://www.w3.org/1999/xlink">
<g id="graph0" class="graph" transform="scale(1 1) rotate(0) translate(4 448.32)">
<polygon fill="white" stroke="transparent" points="-4,4 -4,-448.32 955.21,-448.32 955.21,4 -4,4"/>
<!-- avenir sans nickel&#45;&#45;industrie -->
<g id="edge1" class="edge">
<title>avenir sans nickel&#45;&#45;industrie</title>
<path fill="none" stroke="darkgrey" stroke-width="1.08" d="M298.42,-291.94C314.91,-332.35 344.85,-405.75 351.64,-422.4"/>
</g>
<!-- avenir sans nickel&#45;&#45;travail -->
<g id="edge2" class="edge">
<title>avenir sans nickel&#45;&#45;travail</title>
<path fill="none" stroke="darkgrey" stroke-width="4.12" d="M316.34,-269.76C319,-270.19 321.64,-270.63 324.15,-271.04"/>
</g>
<!-- avenir sans nickel&#45;&#45;politique -->
<g id="edge3" class="edge">
<title>avenir sans nickel&#45;&#45;politique</title>
<path fill="none" stroke="darkgrey" stroke-width="4.64" d="M314.56,-254.25C328.87,-248.56 346.14,-241.69 359.26,-236.47"/>
</g>
<!-- avenir sans nickel&#45;&#45;secteur nickel -->
<g id="edge4" class="edge">
<title>avenir sans nickel&#45;&#45;secteur nickel</title>
<path fill="none" stroke="darkgrey" stroke-width="4.24" d="M316.03,-258.76C376.05,-245.61 514.01,-215.37 567.09,-203.74"/>
</g>
<!-- avenir sans nickel&#45;&#45;relation politique -->
<g id="edge5" class="edge">
<title>avenir sans nickel&#45;&#45;relation politique</title>
<path fill="none" stroke="darkgrey" stroke-width="1.4" d="M310.54,-247.42C375.02,-198.22 553.97,-61.72 578.82,-42.77"/>
</g>
<!-- avenir sans nickel&#45;&#45;avenir avec nickel -->
<g id="edge6" class="edge">
<title>avenir sans nickel&#45;&#45;avenir avec nickel</title>
<path fill="none" stroke="darkgrey" stroke-width="3.21" d="M297.9,-237.66C315.77,-190.9 351.41,-97.62 363.38,-66.27"/>
</g>
<!-- avenir sans nickel&#45;&#45;pollution -->
<g id="edge7" class="edge">
<title>avenir sans nickel&#45;&#45;pollution</title>
<path fill="none" stroke="darkgrey" stroke-width="6.97" d="M305.35,-242.12C318.62,-225.14 336.53,-202.23 349.18,-186.05"/>
</g>
<!-- avenir sans nickel&#45;&#45;ressource minière -->
<g id="edge8" class="edge">
<title>avenir sans nickel&#45;&#45;ressource minière</title>
<path fill="none" stroke="darkgrey" stroke-width="5.52" d="M316.32,-259.8C354.15,-252.96 419.85,-241.07 455.53,-234.61"/>
</g>
<!-- avenir sans nickel&#45;&#45;dégradation environnementale -->
<g id="edge9" class="edge">
<title>avenir sans nickel&#45;&#45;dégradation environnementale</title>
<path fill="none" stroke="darkgrey" stroke-width="7.93" d="M313.31,-251.71C347.97,-233.86 409.46,-202.19 447.06,-182.82"/>
</g>
<!-- avenir sans nickel&#45;&#45;nature -->
<g id="edge10" class="edge">
<title>avenir sans nickel&#45;&#45;nature</title>
<path fill="none" stroke="darkgrey" stroke-width="2.45" d="M282.35,-236.44C274.66,-193.37 260.47,-113.8 255.32,-84.92"/>
</g>
<!-- avenir sans nickel&#45;&#45;société néo&#45;calédonienne -->
<g id="edge11" class="edge">
<title>avenir sans nickel&#45;&#45;société néo&#45;calédonienne</title>
<path fill="none" stroke="darkgrey" stroke-width="3.88" d="M315.67,-271.94C345.12,-279.15 390.11,-290.17 412.8,-295.73"/>
</g>
<!-- avenir sans nickel&#45;&#45;alternative au développement -->
<g id="edge12" class="edge">
<title>avenir sans nickel&#45;&#45;alternative au développement</title>
<path fill="none" stroke="darkgrey" stroke-width="5.88" d="M316.42,-263.34C365.77,-260.47 465.58,-254.65 515.13,-251.77"/>
</g>
<!-- avenir sans nickel&#45;&#45;nickel -->
<g id="edge13" class="edge">
<title>avenir sans nickel&#45;&#45;nickel</title>
<path fill="none" stroke="darkgrey" stroke-width="1" d="M309.3,-284.57C344.22,-315.8 410.64,-375.2 430.07,-392.58"/>
</g>
<!-- avenir sans nickel&#45;&#45;économie -->
<g id="edge14" class="edge">
<title>avenir sans nickel&#45;&#45;économie</title>
<path fill="none" stroke="darkgrey" stroke-width="3.71" d="M315.72,-272.17C361.05,-283.63 448.7,-305.78 486.09,-315.23"/>
</g>
<!-- avenir sans nickel&#45;&#45;amélioration environnementale -->
<g id="edge15" class="edge">
<title>avenir sans nickel&#45;&#45;amélioration environnementale</title>
<path fill="none" stroke="darkgrey" stroke-width="2.24" d="M307.85,-243.98C342.71,-208.02 412.26,-136.28 435.63,-112.17"/>
</g>
<!-- avenir sans nickel&#45;&#45;essor technologique -->
<g id="edge16" class="edge">
<title>avenir sans nickel&#45;&#45;essor technologique</title>
<path fill="none" stroke="darkgrey" stroke-width="2.21" d="M284.39,-236.16C283.17,-224.67 281.8,-211.8 280.73,-201.7"/>
</g>
<!-- avenir sans nickel&#45;&#45;risque -->
<g id="edge17" class="edge">
<title>avenir sans nickel&#45;&#45;risque</title>
<path fill="none" stroke="darkgrey" stroke-width="1.25" d="M258.77,-271.91C195.69,-287.07 49.52,-322.17 38.2,-324.89"/>
</g>
<!-- industrie&#45;&#45;politique -->
<g id="edge18" class="edge">
<title>industrie&#45;&#45;politique</title>
<path fill="none" stroke="darkgrey" stroke-width="1.35" d="M353.54,-422.05C356.38,-400.84 370.47,-295.62 376.6,-249.81"/>
</g>
<!-- industrie&#45;&#45;secteur nickel -->
<g id="edge19" class="edge">
<title>industrie&#45;&#45;secteur nickel</title>
<path fill="none" stroke="darkgrey" stroke-width="1.22" d="M355.68,-423.27C377.2,-402.54 524.04,-261.09 572.76,-214.15"/>
</g>
<!-- industrie&#45;&#45;ressource minière -->
<g id="edge20" class="edge">
<title>industrie&#45;&#45;ressource minière</title>
<path fill="none" stroke="darkgrey" stroke-width="1.63" d="M355.03,-422.75C367.65,-403.35 436.68,-297.21 466.54,-251.3"/>
</g>
<!-- industrie&#45;&#45;dégradation environnementale -->
<g id="edge21" class="edge">
<title>industrie&#45;&#45;dégradation environnementale</title>
<path fill="none" stroke="darkgrey" stroke-width="1.07" d="M354.63,-422.54C365.76,-399.65 432.22,-262.94 463.26,-199.08"/>
</g>
<!-- industrie&#45;&#45;alternative au développement -->
<g id="edge22" class="edge">
<title>industrie&#45;&#45;alternative au développement</title>
<path fill="none" stroke="darkgrey" stroke-width="1.35" d="M355.74,-423.34C373.77,-406.77 477.27,-311.72 522.85,-269.85"/>
</g>
<!-- industrie&#45;&#45;nickel -->
<g id="edge23" class="edge">
<title>industrie&#45;&#45;nickel</title>
<path fill="none" stroke="darkgrey" stroke-width="1" d="M356.58,-424.6C369.16,-420.28 411.83,-405.61 428.65,-399.83"/>
</g>
<!-- industrie&#45;&#45;économie -->
<g id="edge24" class="edge">
<title>industrie&#45;&#45;économie</title>
<path fill="none" stroke="darkgrey" stroke-width="1.37" d="M355.91,-423.79C372.34,-412.22 454.85,-354.08 488.93,-330.07"/>
</g>
<!-- travail&#45;&#45;politique -->
<g id="edge26" class="edge">
<title>travail&#45;&#45;politique</title>
<path fill="none" stroke="darkgrey" stroke-width="4.07" d="M353.47,-260.06C357.34,-255.35 361.7,-250.05 365.73,-245.15"/>
</g>
<!-- travail&#45;&#45;secteur nickel -->
<g id="edge27" class="edge">
<title>travail&#45;&#45;secteur nickel</title>
<path fill="none" stroke="darkgrey" stroke-width="4.7" d="M359.36,-268.7C403.51,-255.28 520.08,-219.84 567.71,-205.36"/>
</g>
<!-- travail&#45;&#45;avenir avec nickel -->
<g id="edge28" class="edge">
<title>travail&#45;&#45;avenir avec nickel</title>
<path fill="none" stroke="darkgrey" stroke-width="2.04" d="M344.15,-255.73C349.23,-212.09 361.96,-102.6 366.1,-67.05"/>
</g>
<!-- travail&#45;&#45;pollution -->
<g id="edge29" class="edge">
<title>travail&#45;&#45;pollution</title>
<path fill="none" stroke="darkgrey" stroke-width="6.45" d="M345.77,-256.18C349.5,-238.38 355.28,-210.84 359.46,-190.93"/>
</g>
<!-- travail&#45;&#45;ressource minière -->
<g id="edge30" class="edge">
<title>travail&#45;&#45;ressource minière</title>
<path fill="none" stroke="darkgrey" stroke-width="3.6" d="M359.27,-268.5C383.74,-260.75 428.65,-246.51 456.35,-237.73"/>
</g>
<!-- travail&#45;&#45;dégradation environnementale -->
<g id="edge31" class="edge">
<title>travail&#45;&#45;dégradation environnementale</title>
<path fill="none" stroke="darkgrey" stroke-width="7.52" d="M356.2,-262.85C378.45,-245.38 422.01,-211.17 450.87,-188.51"/>
</g>
<!-- travail&#45;&#45;nature -->
<g id="edge32" class="edge">
<title>travail&#45;&#45;nature</title>
<path fill="none" stroke="darkgrey" stroke-width="1.34" d="M334.63,-257.27C316.9,-217.3 272.43,-117.03 257.99,-84.47"/>
</g>
<!-- travail&#45;&#45;société néo&#45;calédonienne -->
<g id="edge33" class="edge">
<title>travail&#45;&#45;société néo&#45;calédonienne</title>
<path fill="none" stroke="darkgrey" stroke-width="4.17" d="M359.62,-279.19C375.46,-283.9 398.41,-290.72 413,-295.05"/>
</g>
<!-- travail&#45;&#45;alternative au développement -->
<g id="edge35" class="edge">
<title>travail&#45;&#45;alternative au développement</title>
<path fill="none" stroke="darkgrey" stroke-width="4.75" d="M359.99,-271.84C395.1,-267.7 473.12,-258.48 515.55,-253.47"/>
</g>
<!-- travail&#45;&#45;nickel -->
<g id="edge36" class="edge">
<title>travail&#45;&#45;nickel</title>
<path fill="none" stroke="darkgrey" stroke-width="1.64" d="M353.13,-288.62C373.83,-315.96 417.51,-373.65 431.28,-391.85"/>
</g>
<!-- travail&#45;&#45;économie -->
<g id="edge37" class="edge">
<title>travail&#45;&#45;économie</title>
<path fill="none" stroke="darkgrey" stroke-width="4.72" d="M359.64,-278.94C390.74,-287.74 455.02,-305.91 486.1,-314.7"/>
</g>
<!-- travail&#45;&#45;amélioration environnementale -->
<g id="edge38" class="edge">
<title>travail&#45;&#45;amélioration environnementale</title>
<path fill="none" stroke="darkgrey" stroke-width="3.42" d="M351.4,-258.29C372,-223.78 420.78,-142.1 437.64,-113.86"/>
</g>
<!-- travail&#45;&#45;essor technologique -->
<g id="edge39" class="edge">
<title>travail&#45;&#45;essor technologique</title>
<path fill="none" stroke="darkgrey" stroke-width="3.39" d="M331.6,-259.08C319.89,-242.37 301,-215.42 289.29,-198.7"/>
</g>
<!-- travail&#45;&#45;exploitation minière -->
<g id="edge25" class="edge">
<title>travail&#45;&#45;exploitation minière</title>
<path fill="none" stroke="darkgrey" stroke-width="1.3" d="M347.91,-256.64C366.56,-201.6 423.74,-32.91 432.56,-6.89"/>
</g>
<!-- travail&#45;&#45;nouvelle&#45;calédonie -->
<g id="edge34" class="edge">
<title>travail&#45;&#45;nouvelle&#45;calédonie</title>
<path fill="none" stroke="darkgrey" d="M358.52,-281.74C408.1,-305.1 554.39,-374.04 586.89,-389.36"/>
</g>
<!-- travail&#45;&#45;matériel -->
<g id="edge40" class="edge">
<title>travail&#45;&#45;matériel</title>
<path fill="none" stroke="darkgrey" stroke-width="1" d="M328.21,-262.18C279.8,-220.93 120.31,-85.02 110.39,-76.56"/>
</g>
<!-- politique&#45;&#45;secteur nickel -->
<g id="edge50" class="edge">
<title>politique&#45;&#45;secteur nickel</title>
<path fill="none" stroke="darkgrey" stroke-width="4.76" d="M401.04,-225.41C441.19,-219.76 526.92,-207.71 566.98,-202.07"/>
</g>
<!-- politique&#45;&#45;relation politique -->
<g id="edge51" class="edge">
<title>politique&#45;&#45;relation politique</title>
<path fill="none" stroke="darkgrey" stroke-width="2.27" d="M395.33,-213.7C438.91,-173.22 558.53,-62.1 578.76,-43.29"/>
</g>
<!-- politique&#45;&#45;avenir avec nickel -->
<g id="edge52" class="edge">
<title>politique&#45;&#45;avenir avec nickel</title>
<path fill="none" stroke="darkgrey" stroke-width="1.8" d="M377.96,-206.92C375.38,-169.84 370.17,-95.18 368.2,-66.91"/>
</g>
<!-- politique&#45;&#45;pollution -->
<g id="edge53" class="edge">
<title>politique&#45;&#45;pollution</title>
<path fill="none" stroke="darkgrey" stroke-width="4.65" d="M374.44,-207.39C373.16,-202.04 371.78,-196.24 370.47,-190.73"/>
</g>
<!-- politique&#45;&#45;ressource minière -->
<g id="edge54" class="edge">
<title>politique&#45;&#45;ressource minière</title>
<path fill="none" stroke="darkgrey" stroke-width="4.42" d="M401.34,-228.81C417.22,-229.07 438.71,-229.43 455.27,-229.71"/>
</g>
<!-- politique&#45;&#45;dégradation environnementale -->
<g id="edge55" class="edge">
<title>politique&#45;&#45;dégradation environnementale</title>
<path fill="none" stroke="darkgrey" stroke-width="6.57" d="M397.76,-217.04C411.93,-208.2 431.89,-195.76 448.5,-185.41"/>
</g>
<!-- politique&#45;&#45;nature -->
<g id="edge56" class="edge">
<title>politique&#45;&#45;nature</title>
<path fill="none" stroke="darkgrey" stroke-width="1.52" d="M365.73,-211.63C338.93,-178.81 280.5,-107.28 260.37,-82.63"/>
</g>
<!-- politique&#45;&#45;société néo&#45;calédonienne -->
<g id="edge57" class="edge">
<title>politique&#45;&#45;société néo&#45;calédonienne</title>
<path fill="none" stroke="darkgrey" stroke-width="3.55" d="M391.69,-246.66C400.14,-259.27 411.18,-275.72 418.63,-286.82"/>
</g>
<!-- politique&#45;&#45;alternative au développement -->
<g id="edge59" class="edge">
<title>politique&#45;&#45;alternative au développement</title>
<path fill="none" stroke="darkgrey" stroke-width="3.93" d="M401.02,-231.27C430.36,-235.11 482.94,-242.01 515.62,-246.29"/>
</g>
<!-- politique&#45;&#45;nickel -->
<g id="edge60" class="edge">
<title>politique&#45;&#45;nickel</title>
<path fill="none" stroke="darkgrey" stroke-width="1.68" d="M386.34,-249.17C398.97,-287.25 425.31,-366.64 433.24,-390.52"/>
</g>
<!-- politique&#45;&#45;économie -->
<g id="edge61" class="edge">
<title>politique&#45;&#45;économie</title>
<path fill="none" stroke="darkgrey" stroke-width="4.08" d="M397,-241.32C421.61,-259.4 465.96,-291.97 488.95,-308.86"/>
</g>
<!-- politique&#45;&#45;amélioration environnementale -->
<g id="edge62" class="edge">
<title>politique&#45;&#45;amélioration environnementale</title>
<path fill="none" stroke="darkgrey" stroke-width="1.35" d="M389.33,-209.28C403.15,-182.43 427.78,-134.59 438.39,-113.96"/>
</g>
<!-- politique&#45;&#45;essor technologique -->
<g id="edge63" class="edge">
<title>politique&#45;&#45;essor technologique</title>
<path fill="none" stroke="darkgrey" stroke-width="1.22" d="M359.58,-219.62C340.79,-211.28 312.94,-198.92 295.35,-191.12"/>
</g>
<!-- politique&#45;&#45;risque -->
<g id="edge64" class="edge">
<title>politique&#45;&#45;risque</title>
<path fill="none" stroke="darkgrey" stroke-width="1.53" d="M358.59,-234.34C286.66,-254.66 52.76,-320.75 38.21,-324.86"/>
</g>
<!-- politique&#45;&#45;nouvelle&#45;calédonie -->
<g id="edge58" class="edge">
<title>politique&#45;&#45;nouvelle&#45;calédonie</title>
<path fill="none" stroke="darkgrey" stroke-width="2.14" d="M396.6,-241.58C441.41,-275.93 560.43,-367.17 587.71,-388.08"/>
</g>
<!-- secteur nickel&#45;&#45;relation politique -->
<g id="edge65" class="edge">
<title>secteur nickel&#45;&#45;relation politique</title>
<path fill="none" stroke="darkgrey" stroke-width="1.95" d="M587.51,-177.35C585.88,-139.03 582.59,-61.77 581.85,-44.19"/>
</g>
<!-- secteur nickel&#45;&#45;avenir avec nickel -->
<g id="edge66" class="edge">
<title>secteur nickel&#45;&#45;avenir avec nickel</title>
<path fill="none" stroke="darkgrey" stroke-width="2.1" d="M570.35,-187.33C525.61,-158.31 410.9,-83.92 377,-61.93"/>
</g>
<!-- secteur nickel&#45;&#45;pollution -->
<g id="edge67" class="edge">
<title>secteur nickel&#45;&#45;pollution</title>
<path fill="none" stroke="darkgrey" stroke-width="4.94" d="M566.98,-195.91C525.29,-189.81 433.6,-176.37 389.41,-169.9"/>
</g>
<!-- secteur nickel&#45;&#45;ressource minière -->
<g id="edge68" class="edge">
<title>secteur nickel&#45;&#45;ressource minière</title>
<path fill="none" stroke="darkgrey" stroke-width="2.97" d="M567.59,-205.05C549.54,-210.23 523.44,-217.73 504.49,-223.18"/>
</g>
<!-- secteur nickel&#45;&#45;dégradation environnementale -->
<g id="edge69" class="edge">
<title>secteur nickel&#45;&#45;dégradation environnementale</title>
<path fill="none" stroke="darkgrey" stroke-width="4.49" d="M567.64,-192.81C552.53,-188.28 531.74,-182.03 514.12,-176.74"/>
</g>
<!-- secteur nickel&#45;&#45;société néo&#45;calédonienne -->
<g id="edge70" class="edge">
<title>secteur nickel&#45;&#45;société néo&#45;calédonienne</title>
<path fill="none" stroke="darkgrey" stroke-width="2.88" d="M569.91,-210.54C536.6,-231.19 467.45,-274.06 439.28,-291.53"/>
</g>
<!-- secteur nickel&#45;&#45;alternative au développement -->
<g id="edge72" class="edge">
<title>secteur nickel&#45;&#45;alternative au développement</title>
<path fill="none" stroke="darkgrey" stroke-width="7.27" d="M574.26,-215.47C570.84,-219.44 567.13,-223.73 563.52,-227.91"/>
</g>
<!-- secteur nickel&#45;&#45;nickel -->
<g id="edge73" class="edge">
<title>secteur nickel&#45;&#45;nickel</title>
<path fill="none" stroke="darkgrey" stroke-width="2.85" d="M575.14,-216.32C542.59,-258.55 460.12,-365.57 440.01,-391.66"/>
</g>
<!-- secteur nickel&#45;&#45;économie -->
<g id="edge74" class="edge">
<title>secteur nickel&#45;&#45;économie</title>
<path fill="none" stroke="darkgrey" stroke-width="3.41" d="M575.93,-216.85C559.17,-240.71 529.73,-282.61 514.1,-304.85"/>
</g>
<!-- secteur nickel&#45;&#45;amélioration environnementale -->
<g id="edge75" class="edge">
<title>secteur nickel&#45;&#45;amélioration environnementale</title>
<path fill="none" stroke="darkgrey" stroke-width="3.81" d="M570.37,-187.22C539.26,-166.82 476.62,-125.76 452.89,-110.21"/>
</g>
<!-- secteur nickel&#45;&#45;essor technologique -->
<g id="edge77" class="edge">
<title>secteur nickel&#45;&#45;essor technologique</title>
<path fill="none" stroke="darkgrey" stroke-width="3.42" d="M566.67,-197.98C508.58,-195.12 350.71,-187.33 297,-184.69"/>
</g>
<!-- secteur nickel&#45;&#45;nouvelle&#45;calédonie -->
<g id="edge71" class="edge">
<title>secteur nickel&#45;&#45;nouvelle&#45;calédonie</title>
<path fill="none" stroke="darkgrey" stroke-width="1.18" d="M588.99,-220.86C590.09,-264.11 592.49,-358.9 593.16,-385.39"/>
</g>
<!-- secteur nickel&#45;&#45;foncier -->
<g id="edge76" class="edge">
<title>secteur nickel&#45;&#45;foncier</title>
<path fill="none" stroke="darkgrey" stroke-width="1.23" d="M609.11,-206.57C679.22,-232.06 904.31,-313.88 918.31,-318.97"/>
</g>
<!-- secteur nickel&#45;&#45;échange commercial -->
<g id="edge78" class="edge">
<title>secteur nickel&#45;&#45;échange commercial</title>
<path fill="none" stroke="darkgrey" stroke-width="1.1" d="M606.7,-187.55C663.96,-151.47 836.86,-42.52 847.61,-35.75"/>
</g>
<!-- relation politique&#45;&#45;pollution -->
<g id="edge79" class="edge">
<title>relation politique&#45;&#45;pollution</title>
<path fill="none" stroke="darkgrey" stroke-width="1.2" d="M578.62,-42.35C557.81,-54.41 436.61,-124.59 386.4,-153.66"/>
</g>
<!-- relation politique&#45;&#45;ressource minière -->
<g id="edge80" class="edge">
<title>relation politique&#45;&#45;ressource minière</title>
<path fill="none" stroke="darkgrey" stroke-width="1.07" d="M579.93,-43.87C569.6,-63.19 516.43,-162.59 492.27,-207.75"/>
</g>
<!-- relation politique&#45;&#45;dégradation environnementale -->
<g id="edge81" class="edge">
<title>relation politique&#45;&#45;dégradation environnementale</title>
<path fill="none" stroke="darkgrey" stroke-width="1.77" d="M579.16,-43.68C568.71,-56.5 528.28,-106.08 502.15,-138.12"/>
</g>
<!-- relation politique&#45;&#45;économie -->
<g id="edge82" class="edge">
<title>relation politique&#45;&#45;économie</title>
<path fill="none" stroke="darkgrey" stroke-width="1.88" d="M580.71,-44.1C573.16,-71.11 524.41,-245.53 508.61,-302.04"/>
</g>
<!-- avenir avec nickel&#45;&#45;pollution -->
<g id="edge83" class="edge">
<title>avenir avec nickel&#45;&#45;pollution</title>
<path fill="none" stroke="darkgrey" stroke-width="1.7" d="M367.14,-66.72C366.7,-83.98 365.85,-117.85 365.26,-141.26"/>
</g>
<!-- avenir avec nickel&#45;&#45;ressource minière -->
<g id="edge84" class="edge">
<title>avenir avec nickel&#45;&#45;ressource minière</title>
<path fill="none" stroke="darkgrey" stroke-width="1.83" d="M373.49,-65.09C391.03,-92.19 442.1,-171.1 466.72,-209.14"/>
</g>
<!-- avenir avec nickel&#45;&#45;dégradation environnementale -->
<g id="edge85" class="edge">
<title>avenir avec nickel&#45;&#45;dégradation environnementale</title>
<path fill="none" stroke="darkgrey" stroke-width="3.23" d="M375.46,-63.66C391.58,-79.61 428.46,-116.08 453.61,-140.95"/>
</g>
<!-- avenir avec nickel&#45;&#45;alternative au développement -->
<g id="edge86" class="edge">
<title>avenir avec nickel&#45;&#45;alternative au développement</title>
<path fill="none" stroke="darkgrey" stroke-width="2.96" d="M375.02,-64.07C400.89,-92.47 486.02,-185.96 524.82,-228.57"/>
</g>
<!-- avenir avec nickel&#45;&#45;économie -->
<g id="edge87" class="edge">
<title>avenir avec nickel&#45;&#45;économie</title>
<path fill="none" stroke="darkgrey" stroke-width="2.03" d="M372.59,-65.74C393.25,-105.76 469.94,-254.31 495.4,-303.64"/>
</g>
<!-- avenir avec nickel&#45;&#45;amélioration environnementale -->
<g id="edge88" class="edge">
<title>avenir avec nickel&#45;&#45;amélioration environnementale</title>
<path fill="none" stroke="darkgrey" stroke-width="2.85" d="M376.75,-61.64C391.35,-70.92 419.44,-88.77 434.09,-98.08"/>
</g>
<!-- avenir avec nickel&#45;&#45;essor technologique -->
<g id="edge89" class="edge">
<title>avenir avec nickel&#45;&#45;essor technologique</title>
<path fill="none" stroke="darkgrey" stroke-width="2.5" d="M361.05,-64.93C345.89,-86.84 307.59,-142.22 289.11,-168.93"/>
</g>
<!-- pollution&#45;&#45;ressource minière -->
<g id="edge90" class="edge">
<title>pollution&#45;&#45;ressource minière</title>
<path fill="none" stroke="darkgrey" stroke-width="4.93" d="M386.66,-178.43C407.24,-189.8 437.8,-206.67 458.36,-218.01"/>
</g>
<!-- pollution&#45;&#45;dégradation environnementale -->
<g id="edge91" class="edge">
<title>pollution&#45;&#45;dégradation environnementale</title>
<path fill="none" stroke="darkgrey" stroke-width="10" d="M389.78,-166.27C405.32,-166.27 425.54,-166.27 442.82,-166.26"/>
</g>
<!-- pollution&#45;&#45;nature -->
<g id="edge92" class="edge">
<title>pollution&#45;&#45;nature</title>
<path fill="none" stroke="darkgrey" stroke-width="3.07" d="M345.26,-150.21C320.73,-129.89 279.55,-95.76 261.87,-81.11"/>
</g>
<!-- pollution&#45;&#45;société néo&#45;calédonienne -->
<g id="edge93" class="edge">
<title>pollution&#45;&#45;société néo&#45;calédonienne</title>
<path fill="none" stroke="darkgrey" stroke-width="4.99" d="M375.34,-189.12C388.42,-217.03 410.11,-263.3 420.71,-285.92"/>
</g>
<!-- pollution&#45;&#45;alternative au développement -->
<g id="edge95" class="edge">
<title>pollution&#45;&#45;alternative au développement</title>
<path fill="none" stroke="darkgrey" stroke-width="5.65" d="M387.4,-176.88C420.75,-192.43 482.74,-221.32 518.02,-237.77"/>
</g>
<!-- pollution&#45;&#45;nickel -->
<g id="edge96" class="edge">
<title>pollution&#45;&#45;nickel</title>
<path fill="none" stroke="darkgrey" stroke-width="2.76" d="M372.09,-190.57C387.95,-242.28 424.32,-360.9 433.44,-390.62"/>
</g>
<!-- pollution&#45;&#45;économie -->
<g id="edge97" class="edge">
<title>pollution&#45;&#45;économie</title>
<path fill="none" stroke="darkgrey" stroke-width="5.22" d="M381.68,-185.08C410.11,-216.44 466.52,-278.68 491.41,-306.13"/>
</g>
<!-- pollution&#45;&#45;amélioration environnementale -->
<g id="edge98" class="edge">
<title>pollution&#45;&#45;amélioration environnementale</title>
<path fill="none" stroke="darkgrey" stroke-width="2.02" d="M384.53,-150.57C400.6,-137.9 422.44,-120.66 434.53,-111.13"/>
</g>
<!-- pollution&#45;&#45;essor technologique -->
<g id="edge99" class="edge">
<title>pollution&#45;&#45;essor technologique</title>
<path fill="none" stroke="darkgrey" stroke-width="3.55" d="M339.82,-171.34C325.96,-174.17 309.02,-177.63 296.51,-180.18"/>
</g>
<!-- pollution&#45;&#45;risque -->
<g id="edge100" class="edge">
<title>pollution&#45;&#45;risque</title>
<path fill="none" stroke="darkgrey" stroke-width="1.42" d="M341.89,-177.31C270.02,-212.19 51.74,-318.15 38.16,-324.73"/>
</g>
<!-- pollution&#45;&#45;nouvelle&#45;calédonie -->
<g id="edge94" class="edge">
<title>pollution&#45;&#45;nouvelle&#45;calédonie</title>
<path fill="none" stroke="darkgrey" stroke-width="1.33" d="M382.58,-184.01C430.6,-231.49 560.26,-359.69 588.05,-387.17"/>
</g>
<!-- ressource minière&#45;&#45;dégradation environnementale -->
<g id="edge101" class="edge">
<title>ressource minière&#45;&#45;dégradation environnementale</title>
<path fill="none" stroke="darkgrey" stroke-width="6.99" d="M479.87,-204.89C479.86,-204.05 479.84,-203.21 479.83,-202.36"/>
</g>
<!-- ressource minière&#45;&#45;société néo&#45;calédonienne -->
<g id="edge102" class="edge">
<title>ressource minière&#45;&#45;société néo&#45;calédonienne</title>
<path fill="none" stroke="darkgrey" stroke-width="1.68" d="M464.86,-250.1C455.5,-262.21 443.88,-277.25 435.99,-287.46"/>
</g>
<!-- ressource minière&#45;&#45;alternative au développement -->
<g id="edge104" class="edge">
<title>ressource minière&#45;&#45;alternative au développement</title>
<path fill="none" stroke="darkgrey" stroke-width="6.27" d="M504.53,-237.67C508.5,-238.9 512.64,-240.19 516.69,-241.45"/>
</g>
<!-- ressource minière&#45;&#45;nickel -->
<g id="edge105" class="edge">
<title>ressource minière&#45;&#45;nickel</title>
<path fill="none" stroke="darkgrey" stroke-width="1.47" d="M473.79,-254.46C463.37,-293.44 443.47,-367.81 437.37,-390.64"/>
</g>
<!-- ressource minière&#45;&#45;économie -->
<g id="edge106" class="edge">
<title>ressource minière&#45;&#45;économie</title>
<path fill="none" stroke="darkgrey" stroke-width="4.31" d="M486.69,-254.6C490.61,-269.62 495.54,-288.5 499.08,-302.05"/>
</g>
<!-- ressource minière&#45;&#45;amélioration environnementale -->
<g id="edge107" class="edge">
<title>ressource minière&#45;&#45;amélioration environnementale</title>
<path fill="none" stroke="darkgrey" stroke-width="2.36" d="M473.29,-206.12C465.28,-178.68 452.53,-134.99 446.65,-114.86"/>
</g>
<!-- ressource minière&#45;&#45;essor technologique -->
<g id="edge108" class="edge">
<title>ressource minière&#45;&#45;essor technologique</title>
<path fill="none" stroke="darkgrey" stroke-width="4.45" d="M455.6,-224.45C414.41,-214.97 332.68,-196.17 296.63,-187.88"/>
</g>
<!-- ressource minière&#45;&#45;nouvelle&#45;calédonie -->
<g id="edge103" class="edge">
<title>ressource minière&#45;&#45;nouvelle&#45;calédonie</title>
<path fill="none" stroke="darkgrey" stroke-width="1.62" d="M494.62,-250.68C520.52,-287.86 573.9,-364.49 589.17,-386.41"/>
</g>
<!-- dégradation environnementale&#45;&#45;nature -->
<g id="edge109" class="edge">
<title>dégradation environnementale&#45;&#45;nature</title>
<path fill="none" stroke="darkgrey" stroke-width="4.62" d="M445.4,-152.46C393.23,-131.17 295.79,-91.39 263.83,-78.35"/>
</g>
<!-- dégradation environnementale&#45;&#45;société néo&#45;calédonienne -->
<g id="edge110" class="edge">
<title>dégradation environnementale&#45;&#45;société néo&#45;calédonienne</title>
<path fill="none" stroke="darkgrey" stroke-width="3.59" d="M466.02,-199.81C455.13,-227.49 440.22,-265.38 432.34,-285.43"/>
</g>
<!-- dégradation environnementale&#45;&#45;alternative au développement -->
<g id="edge112" class="edge">
<title>dégradation environnementale&#45;&#45;alternative au développement</title>
<path fill="none" stroke="darkgrey" stroke-width="6.79" d="M501.64,-195.1C509.75,-205.52 518.78,-217.13 526.44,-226.99"/>
</g>
<!-- dégradation environnementale&#45;&#45;nickel -->
<g id="edge113" class="edge">
<title>dégradation environnementale&#45;&#45;nickel</title>
<path fill="none" stroke="darkgrey" stroke-width="2.58" d="M472.48,-201.88C461.96,-257.62 442.24,-362 436.9,-390.26"/>
</g>
<!-- dégradation environnementale&#45;&#45;économie -->
<g id="edge114" class="edge">
<title>dégradation environnementale&#45;&#45;économie</title>
<path fill="none" stroke="darkgrey" stroke-width="7.02" d="M484.89,-201.84C489.89,-233.18 496.96,-277.51 500.85,-301.89"/>
</g>
<!-- dégradation environnementale&#45;&#45;amélioration environnementale -->
<g id="edge115" class="edge">
<title>dégradation environnementale&#45;&#45;amélioration environnementale</title>
<path fill="none" stroke="darkgrey" stroke-width="2.48" d="M461.15,-134.79C456.72,-127.08 452.3,-119.39 449,-113.64"/>
</g>
<!-- dégradation environnementale&#45;&#45;essor technologique -->
<g id="edge116" class="edge">
<title>dégradation environnementale&#45;&#45;essor technologique</title>
<path fill="none" stroke="darkgrey" stroke-width="3.93" d="M442.93,-169.44C399.84,-173.21 329.71,-179.34 296.87,-182.21"/>
</g>
<!-- dégradation environnementale&#45;&#45;nouvelle&#45;calédonie -->
<g id="edge111" class="edge">
<title>dégradation environnementale&#45;&#45;nouvelle&#45;calédonie</title>
<path fill="none" stroke="darkgrey" stroke-width="1.82" d="M495.56,-198.66C522.93,-252.89 576.36,-358.76 590.07,-385.92"/>
</g>
<!-- nature&#45;&#45;société néo&#45;calédonienne -->
<g id="edge117" class="edge">
<title>nature&#45;&#45;société néo&#45;calédonienne</title>
<path fill="none" stroke="darkgrey" stroke-width="2.54" d="M260.19,-82.91C287.26,-118.02 387.35,-247.85 417.97,-287.57"/>
</g>
<!-- nature&#45;&#45;alternative au développement -->
<g id="edge118" class="edge">
<title>nature&#45;&#45;alternative au développement</title>
<path fill="none" stroke="darkgrey" stroke-width="1.32" d="M263.07,-79.94C303.31,-104.27 458.06,-197.85 519.27,-234.87"/>
</g>
<!-- nature&#45;&#45;amélioration environnementale -->
<g id="edge119" class="edge">
<title>nature&#45;&#45;amélioration environnementale</title>
<path fill="none" stroke="darkgrey" stroke-width="1.06" d="M264.43,-75.82C298.03,-81.12 398.78,-97 432.42,-102.31"/>
</g>
<!-- nature&#45;&#45;essor technologique -->
<g id="edge120" class="edge">
<title>nature&#45;&#45;essor technologique</title>
<path fill="none" stroke="darkgrey" stroke-width="1.46" d="M255.92,-85C260.32,-103.97 269.41,-143.17 274.73,-166.08"/>
</g>
<!-- société néo&#45;calédonienne&#45;&#45;alternative au développement -->
<g id="edge122" class="edge">
<title>société néo&#45;calédonienne&#45;&#45;alternative au développement</title>
<path fill="none" stroke="darkgrey" stroke-width="3.71" d="M440.4,-293.55C459.08,-285.74 493.26,-271.44 517.33,-261.38"/>
</g>
<!-- société néo&#45;calédonienne&#45;&#45;nickel -->
<g id="edge123" class="edge">
<title>société néo&#45;calédonienne&#45;&#45;nickel</title>
<path fill="none" stroke="darkgrey" stroke-width="2.28" d="M428.2,-313.69C430.07,-335.05 433.5,-374.17 434.91,-390.26"/>
</g>
<!-- société néo&#45;calédonienne&#45;&#45;économie -->
<g id="edge124" class="edge">
<title>société néo&#45;calédonienne&#45;&#45;économie</title>
<path fill="none" stroke="darkgrey" stroke-width="3.48" d="M441,-302.94C453.73,-306.34 472.51,-311.35 486.19,-315.01"/>
</g>
<!-- société néo&#45;calédonienne&#45;&#45;amélioration environnementale -->
<g id="edge125" class="edge">
<title>société néo&#45;calédonienne&#45;&#45;amélioration environnementale</title>
<path fill="none" stroke="darkgrey" stroke-width="1.05" d="M428.17,-284.52C431.35,-247.12 439.7,-148.77 442.54,-115.35"/>
</g>
<!-- société néo&#45;calédonienne&#45;&#45;essor technologique -->
<g id="edge126" class="edge">
<title>société néo&#45;calédonienne&#45;&#45;essor technologique</title>
<path fill="none" stroke="darkgrey" stroke-width="1.41" d="M415.3,-290.13C388.58,-269.3 322.78,-218.03 293.41,-195.14"/>
</g>
<!-- société néo&#45;calédonienne&#45;&#45;nouvelle&#45;calédonie -->
<g id="edge121" class="edge">
<title>société néo&#45;calédonienne&#45;&#45;nouvelle&#45;calédonie</title>
<path fill="none" stroke="darkgrey" stroke-width="1.79" d="M439.71,-306.35C473.2,-325.1 562.59,-375.17 587.07,-388.88"/>
</g>
<!-- alternative au développement&#45;&#45;nickel -->
<g id="edge129" class="edge">
<title>alternative au développement&#45;&#45;nickel</title>
<path fill="none" stroke="darkgrey" stroke-width="2.54" d="M527.14,-273.42C501.37,-308.32 454.27,-372.09 439.85,-391.63"/>
</g>
<!-- alternative au développement&#45;&#45;économie -->
<g id="edge130" class="edge">
<title>alternative au développement&#45;&#45;économie</title>
<path fill="none" stroke="darkgrey" stroke-width="6.15" d="M529.7,-275.19C524.05,-284.85 517.77,-295.59 512.79,-304.1"/>
</g>
<!-- alternative au développement&#45;&#45;amélioration environnementale -->
<g id="edge131" class="edge">
<title>alternative au développement&#45;&#45;amélioration environnementale</title>
<path fill="none" stroke="darkgrey" stroke-width="5.6" d="M527.73,-225.95C505.01,-193.07 465.36,-135.68 449.91,-113.33"/>
</g>
<!-- alternative au développement&#45;&#45;essor technologique -->
<g id="edge133" class="edge">
<title>alternative au développement&#45;&#45;essor technologique</title>
<path fill="none" stroke="darkgrey" stroke-width="5.09" d="M515.97,-242.97C460.98,-229.24 341.47,-199.42 296.46,-188.19"/>
</g>
<!-- alternative au développement&#45;&#45;foncier -->
<g id="edge132" class="edge">
<title>alternative au développement&#45;&#45;foncier</title>
<path fill="none" stroke="darkgrey" stroke-width="1.1" d="M573.17,-255.37C658.14,-271.06 903.03,-316.27 918.25,-319.08"/>
</g>
<!-- nickel&#45;&#45;économie -->
<g id="edge134" class="edge">
<title>nickel&#45;&#45;économie</title>
<path fill="none" stroke="darkgrey" stroke-width="1.72" d="M440.22,-392.12C450.75,-380.1 476.54,-350.66 491.81,-333.24"/>
</g>
<!-- nickel&#45;&#45;amélioration environnementale -->
<g id="edge135" class="edge">
<title>nickel&#45;&#45;amélioration environnementale</title>
<path fill="none" stroke="darkgrey" stroke-width="1.44" d="M435.74,-390.21C436.8,-350.85 441.9,-162.93 443.2,-115.13"/>
</g>
<!-- nickel&#45;&#45;essor technologique -->
<g id="edge136" class="edge">
<title>nickel&#45;&#45;essor technologique</title>
<path fill="none" stroke="darkgrey" stroke-width="1.31" d="M431.35,-391.75C410.86,-363.81 320.95,-241.21 289.63,-198.51"/>
</g>
<!-- économie&#45;&#45;amélioration environnementale -->
<g id="edge137" class="edge">
<title>économie&#45;&#45;amélioration environnementale</title>
<path fill="none" stroke="darkgrey" stroke-width="1.7" d="M498.76,-302.03C486.74,-258.98 456.2,-149.56 446.5,-114.81"/>
</g>
<!-- économie&#45;&#45;essor technologique -->
<g id="edge138" class="edge">
<title>économie&#45;&#45;essor technologique</title>
<path fill="none" stroke="darkgrey" stroke-width="1.72" d="M488.23,-310.34C447.15,-285.51 335.6,-218.09 294.4,-193.19"/>
</g>
<!-- amélioration environnementale&#45;&#45;essor technologique -->
<g id="edge139" class="edge">
<title>amélioration environnementale&#45;&#45;essor technologique</title>
<path fill="none" stroke="darkgrey" stroke-width="2.08" d="M433.2,-109.04C405.46,-122.47 329,-159.5 295.23,-175.85"/>
</g>
<!-- essor technologique&#45;&#45;matériel -->
<g id="edge140" class="edge">
<title>essor technologique&#45;&#45;matériel</title>
<path fill="none" stroke="darkgrey" stroke-width="1.2" d="M263.55,-174.05C223.91,-148.79 120.26,-82.75 110.63,-76.61"/>
</g>
<!-- exploitation minière&#45;&#45;politique -->
<g id="edge41" class="edge">
<title>exploitation minière&#45;&#45;politique</title>
<path fill="none" stroke="darkgrey" stroke-width="1.23" d="M432.86,-7.03C427.37,-29.78 396.87,-156.27 384.59,-207.2"/>
</g>
<!-- exploitation minière&#45;&#45;secteur nickel -->
<g id="edge42" class="edge">
<title>exploitation minière&#45;&#45;secteur nickel</title>
<path fill="none" stroke="darkgrey" stroke-width="1.67" d="M435.9,-6.26C451.03,-25.39 540.58,-138.57 574.98,-182.05"/>
</g>
<!-- exploitation minière&#45;&#45;pollution -->
<g id="edge43" class="edge">
<title>exploitation minière&#45;&#45;pollution</title>
<path fill="none" stroke="darkgrey" stroke-width="1.53" d="M432.27,-6.9C424.92,-24.2 391.39,-103.21 374.47,-143.1"/>
</g>
<!-- exploitation minière&#45;&#45;ressource minière -->
<g id="edge44" class="edge">
<title>exploitation minière&#45;&#45;ressource minière</title>
<path fill="none" stroke="darkgrey" stroke-width="1.28" d="M434.44,-7.06C439.06,-29.53 464.33,-152.45 475.26,-205.61"/>
</g>
<!-- exploitation minière&#45;&#45;dégradation environnementale -->
<g id="edge45" class="edge">
<title>exploitation minière&#45;&#45;dégradation environnementale</title>
<path fill="none" stroke="darkgrey" stroke-width="1.21" d="M434.66,-6.9C439.06,-22.65 457.76,-89.53 469.49,-131.49"/>
</g>
<!-- exploitation minière&#45;&#45;société néo&#45;calédonienne -->
<g id="edge46" class="edge">
<title>exploitation minière&#45;&#45;société néo&#45;calédonienne</title>
<path fill="none" stroke="darkgrey" stroke-width="1.2" d="M433.62,-7.24C432.95,-36.52 428.53,-229.36 427.26,-284.49"/>
</g>
<!-- exploitation minière&#45;&#45;alternative au développement -->
<g id="edge47" class="edge">
<title>exploitation minière&#45;&#45;alternative au développement</title>
<path fill="none" stroke="darkgrey" stroke-width="1.96" d="M435.28,-6.99C445.76,-30.34 506.17,-164.91 532.33,-223.18"/>
</g>
<!-- exploitation minière&#45;&#45;amélioration environnementale -->
<g id="edge48" class="edge">
<title>exploitation minière&#45;&#45;amélioration environnementale</title>
<path fill="none" stroke="darkgrey" stroke-width="1.01" d="M434.08,-7.32C435.45,-21.38 440.24,-70.61 442.41,-92.92"/>
</g>
<!-- exploitation minière&#45;&#45;matériel -->
<g id="edge49" class="edge">
<title>exploitation minière&#45;&#45;matériel</title>
<path fill="none" stroke="darkgrey" stroke-width="1.02" d="M430.07,-4.32C395.61,-12.05 127.45,-72.21 110.73,-75.97"/>
</g>
<!-- nouvelle&#45;calédonie&#45;&#45;alternative au développement -->
<g id="edge127" class="edge">
<title>nouvelle&#45;calédonie&#45;&#45;alternative au développement</title>
<path fill="none" stroke="darkgrey" stroke-width="2.21" d="M590.98,-385.53C584.37,-366.32 565.42,-311.21 553.83,-277.49"/>
</g>
<!-- nouvelle&#45;calédonie&#45;&#45;économie -->
<g id="edge128" class="edge">
<title>nouvelle&#45;calédonie&#45;&#45;économie</title>
<path fill="none" stroke="darkgrey" stroke-width="2" d="M587.73,-387.85C573.93,-376.65 537.99,-347.5 517.86,-331.17"/>
</g>
<!-- avenir sans nickel -->
<g id="node1" class="node">
<title>avenir sans nickel</title>
<ellipse fill="#fa9407" stroke="white" stroke-width="0" cx="287.45" cy="-265.03" rx="29" ry="29"/>
<text text-anchor="middle" x="146.95" y="-301.19" font-family="Helvetica,sans-Serif" font-size="24.80" fill="#4d4d4d">avenir sans nickel</text>
</g>
<!-- industrie -->
<g id="node2" class="node">
<title>industrie</title>
<ellipse fill="#07051b" stroke="white" stroke-width="0" cx="353.03" cy="-425.82" rx="3.5" ry="3.5"/>
<text text-anchor="middle" x="320.03" y="-433.44" font-family="Helvetica,sans-Serif" font-size="13.60" fill="#4d4d4d">industrie</text>
</g>
<!-- travail -->
<g id="node3" class="node">
<title>travail</title>
<ellipse fill="#bf3952" stroke="white" stroke-width="0" cx="342.03" cy="-273.97" rx="18" ry="18"/>
<text text-anchor="middle" x="355.53" y="-297.97" font-family="Helvetica,sans-Serif" font-size="20.00" fill="#4d4d4d">travail</text>
</g>
<!-- politique -->
<g id="node4" class="node">
<title>politique</title>
<ellipse fill="#d74b3f" stroke="white" stroke-width="0" cx="379.46" cy="-228.44" rx="21.5" ry="21.5"/>
<text text-anchor="middle" x="310.96" y="-213.66" font-family="Helvetica,sans-Serif" font-size="21.60" fill="#4d4d4d">politique</text>
</g>
<!-- secteur nickel -->
<g id="node5" class="node">
<title>secteur nickel</title>
<ellipse fill="#d24644" stroke="white" stroke-width="0" cx="588.44" cy="-199.06" rx="21.5" ry="21.5"/>
<text text-anchor="middle" x="642.44" y="-160.28" font-family="Helvetica,sans-Serif" font-size="21.60" fill="#4d4d4d">secteur nickel</text>
</g>
<!-- relation politique -->
<g id="node6" class="node">
<title>relation politique</title>
<ellipse fill="#120a32" stroke="white" stroke-width="0" cx="581.69" cy="-40.58" rx="3.5" ry="3.5"/>
<text text-anchor="middle" x="520.69" y="-48.2" font-family="Helvetica,sans-Serif" font-size="13.60" fill="#4d4d4d">relation politique</text>
</g>
<!-- avenir avec nickel -->
<g id="node7" class="node">
<title>avenir avec nickel</title>
<ellipse fill="#510e6c" stroke="white" stroke-width="0" cx="367.42" cy="-55.71" rx="11" ry="11"/>
<text text-anchor="middle" x="280.92" y="-49.27" font-family="Helvetica,sans-Serif" font-size="16.80" fill="#4d4d4d">avenir avec nickel</text>
</g>
<!-- pollution -->
<g id="node8" class="node">
<title>pollution</title>
<ellipse fill="#eb6628" stroke="white" stroke-width="0" cx="364.63" cy="-166.27" rx="25" ry="25"/>
<text text-anchor="middle" x="288.13" y="-122.71" font-family="Helvetica,sans-Serif" font-size="23.20" fill="#4d4d4d">pollution</text>
</g>
<!-- ressource minière -->
<g id="node9" class="node">
<title>ressource minière</title>
<ellipse fill="#ec6726" stroke="white" stroke-width="0" cx="480.3" cy="-230.13" rx="25" ry="25"/>
<text text-anchor="middle" x="609.8" y="-212.57" font-family="Helvetica,sans-Serif" font-size="23.20" fill="#4d4d4d">ressource minière</text>
</g>
<!-- dégradation environnementale -->
<g id="node10" class="node">
<title>dégradation environnementale</title>
<ellipse fill="#fcffa4" stroke="white" stroke-width="0" cx="479.21" cy="-166.26" rx="36" ry="36"/>
<text text-anchor="middle" x="733.21" y="-107.86" font-family="Helvetica,sans-Serif" font-size="28.00" fill="#4d4d4d">dégradation environnementale</text>
</g>
<!-- nature -->
<g id="node11" class="node">
<title>nature</title>
<ellipse fill="#5c126e" stroke="white" stroke-width="0" cx="253.39" cy="-74.08" rx="11" ry="11"/>
<text text-anchor="middle" x="214.39" y="-89.64" font-family="Helvetica,sans-Serif" font-size="16.80" fill="#4d4d4d">nature</text>
</g>
<!-- société néo&#45;calédonienne -->
<g id="node12" class="node">
<title>société néo&#45;calédonienne</title>
<ellipse fill="#8d2369" stroke="white" stroke-width="0" cx="426.93" cy="-299.19" rx="14.5" ry="14.5"/>
<text text-anchor="middle" x="560.43" y="-289.97" font-family="Helvetica,sans-Serif" font-size="18.40" fill="#4d4d4d">société néo&#45;calédonienne</text>
</g>
<!-- alternative au développement -->
<g id="node13" class="node">
<title>alternative au développement</title>
<ellipse fill="#fb9b06" stroke="white" stroke-width="0" cx="544.39" cy="-250.06" rx="29" ry="29"/>
<text text-anchor="middle" x="760.89" y="-228.22" font-family="Helvetica,sans-Serif" font-size="24.80" fill="#4d4d4d">alternative au développement</text>
</g>
<!-- nickel -->
<g id="node14" class="node">
<title>nickel</title>
<ellipse fill="#2f0a5b" stroke="white" stroke-width="0" cx="435.54" cy="-397.47" rx="7" ry="7"/>
<text text-anchor="middle" x="406.04" y="-409.31" font-family="Helvetica,sans-Serif" font-size="15.20" fill="#4d4d4d">nickel</text>
</g>
<!-- économie -->
<g id="node15" class="node">
<title>économie</title>
<ellipse fill="#a82e5f" stroke="white" stroke-width="0" cx="503.68" cy="-319.68" rx="18" ry="18"/>
<text text-anchor="middle" x="437.18" y="-343.68" font-family="Helvetica,sans-Serif" font-size="20.00" fill="#4d4d4d">économie</text>
</g>
<!-- amélioration environnementale -->
<g id="node16" class="node">
<title>amélioration environnementale</title>
<ellipse fill="#721a6e" stroke="white" stroke-width="0" cx="443.5" cy="-104.05" rx="11" ry="11"/>
<text text-anchor="middle" x="565" y="-79.61" font-family="Helvetica,sans-Serif" font-size="16.80" fill="#4d4d4d">amélioration environnementale</text>
</g>
<!-- essor technologique -->
<g id="node17" class="node">
<title>essor technologique</title>
<ellipse fill="#a92e5e" stroke="white" stroke-width="0" cx="278.83" cy="-183.79" rx="18" ry="18"/>
<text text-anchor="middle" x="160.33" y="-207.79" font-family="Helvetica,sans-Serif" font-size="20.00" fill="#4d4d4d">essor technologique</text>
</g>
<!-- risque -->
<g id="node18" class="node">
<title>risque</title>
<ellipse fill="#000004" stroke="white" stroke-width="0" cx="37.5" cy="-325.06" rx="0.5" ry="0.5"/>
<text text-anchor="middle" x="18.5" y="-328.96" font-family="Helvetica,sans-Serif" font-size="12.00" fill="#4d4d4d">risque</text>
</g>
<!-- exploitation minière -->
<g id="node19" class="node">
<title>exploitation minière</title>
<ellipse fill="#110a30" stroke="white" stroke-width="0" cx="433.71" cy="-3.5" rx="3.5" ry="3.5"/>
<text text-anchor="middle" x="362.21" y="-11.12" font-family="Helvetica,sans-Serif" font-size="13.60" fill="#4d4d4d">exploitation minière</text>
</g>
<!-- nouvelle&#45;calédonie -->
<g id="node20" class="node">
<title>nouvelle&#45;calédonie</title>
<ellipse fill="#2b0b57" stroke="white" stroke-width="0" cx="593.34" cy="-392.4" rx="7" ry="7"/>
<text text-anchor="middle" x="514.84" y="-404.24" font-family="Helvetica,sans-Serif" font-size="15.20" fill="#4d4d4d">nouvelle&#45;calédonie</text>
</g>
<!-- matériel -->
<g id="node21" class="node">
<title>matériel</title>
<ellipse fill="#010005" stroke="white" stroke-width="0" cx="109.91" cy="-76.15" rx="0.5" ry="0.5"/>
<text text-anchor="middle" x="83.91" y="-80.05" font-family="Helvetica,sans-Serif" font-size="12.00" fill="#4d4d4d">matériel</text>
</g>
<!-- foncier -->
<g id="node22" class="node">
<title>foncier</title>
<ellipse fill="#000004" stroke="white" stroke-width="0" cx="919" cy="-319.21" rx="0.5" ry="0.5"/>
<text text-anchor="middle" x="897" y="-323.11" font-family="Helvetica,sans-Serif" font-size="12.00" fill="#4d4d4d">foncier</text>
</g>
<!-- échange commercial -->
<g id="node23" class="node">
<title>échange commercial</title>
<ellipse fill="#010108" stroke="white" stroke-width="0" cx="848.13" cy="-35.42" rx="0.5" ry="0.5"/>
<text text-anchor="middle" x="784.13" y="-39.32" font-family="Helvetica,sans-Serif" font-size="12.00" fill="#4d4d4d">échange commercial</text>
</g>
</g>
</svg>
