<?xml version="1.0" encoding="UTF-8" standalone="no"?>
<!DOCTYPE svg PUBLIC "-//W3C//DTD SVG 1.1//EN"
 "http://www.w3.org/Graphics/SVG/1.1/DTD/svg11.dtd">
<!-- Generated by graphviz version 2.43.0 (0)
 -->
<!-- Pages: 1 -->
<svg width="1104pt" height="507pt"
 viewBox="0.00 0.00 1103.96 507.09" xmlns="http://www.w3.org/2000/svg" xmlns:xlink="http://www.w3.org/1999/xlink">
<g id="graph0" class="graph" transform="scale(1 1) rotate(0) translate(4 503.09)">
<polygon fill="white" stroke="transparent" points="-4,4 -4,-503.09 1099.96,-503.09 1099.96,4 -4,4"/>
<!-- pollution&#45;&#45;dégradation environnementale -->
<g id="edge1" class="edge">
<title>pollution&#45;&#45;dégradation environnementale</title>
<path fill="none" stroke="darkgrey" stroke-width="9.04" d="M451.33,-276.49C483.45,-263 554.48,-233.18 596.7,-215.46"/>
</g>
<!-- pollution&#45;&#45;nouvelle&#45;calédonie -->
<g id="edge2" class="edge">
<title>pollution&#45;&#45;nouvelle&#45;calédonie</title>
<path fill="none" stroke="darkgrey" stroke-width="1.43" d="M433.23,-265.11C428.72,-207.69 415.09,-33.81 412.99,-6.99"/>
</g>
<!-- pollution&#45;&#45;travail -->
<g id="edge3" class="edge">
<title>pollution&#45;&#45;travail</title>
<path fill="none" stroke="darkgrey" stroke-width="6.47" d="M447.34,-269.98C468.63,-247.3 511.45,-201.69 534.13,-177.52"/>
</g>
<!-- pollution&#45;&#45;économie -->
<g id="edge4" class="edge">
<title>pollution&#45;&#45;économie</title>
<path fill="none" stroke="darkgrey" stroke-width="5.34" d="M451.68,-277.36C468.3,-271.37 493.49,-262.31 510.19,-256.3"/>
</g>
<!-- pollution&#45;&#45;nickel -->
<g id="edge5" class="edge">
<title>pollution&#45;&#45;nickel</title>
<path fill="none" stroke="darkgrey" stroke-width="5.25" d="M452.84,-282.61C484.5,-281.08 550.3,-277.9 591.59,-275.91"/>
</g>
<!-- pollution&#45;&#45;ressource minière -->
<g id="edge6" class="edge">
<title>pollution&#45;&#45;ressource minière</title>
<path fill="none" stroke="darkgrey" stroke-width="2.04" d="M427.51,-266.91C411.96,-230.93 375.51,-146.58 362.91,-117.43"/>
</g>
<!-- pollution&#45;&#45;politique -->
<g id="edge7" class="edge">
<title>pollution&#45;&#45;politique</title>
<path fill="none" stroke="darkgrey" stroke-width="3.16" d="M439.29,-266.07C445.94,-241.07 458.05,-195.49 464.18,-172.43"/>
</g>
<!-- pollution&#45;&#45;secteur nickel -->
<g id="edge8" class="edge">
<title>pollution&#45;&#45;secteur nickel</title>
<path fill="none" stroke="darkgrey" stroke-width="3.27" d="M423.98,-268.75C417.04,-259.18 408.04,-246.76 401.12,-237.22"/>
</g>
<!-- pollution&#45;&#45;nature -->
<g id="edge9" class="edge">
<title>pollution&#45;&#45;nature</title>
<path fill="none" stroke="darkgrey" stroke-width="3.52" d="M434.9,-301.84C435.12,-318.36 435.43,-342.32 435.62,-357.55"/>
</g>
<!-- pollution&#45;&#45;amélioration environnementale -->
<g id="edge10" class="edge">
<title>pollution&#45;&#45;amélioration environnementale</title>
<path fill="none" stroke="darkgrey" stroke-width="1.05" d="M416.64,-279.85C361.79,-268.8 200.05,-236.2 189.99,-234.18"/>
</g>
<!-- pollution&#45;&#45;société néo&#45;calédonienne -->
<g id="edge11" class="edge">
<title>pollution&#45;&#45;société néo&#45;calédonienne</title>
<path fill="none" stroke="darkgrey" stroke-width="1.56" d="M451.46,-290.67C503.74,-313.05 661.61,-380.63 687.15,-391.57"/>
</g>
<!-- pollution&#45;&#45;exploitation minière -->
<g id="edge12" class="edge">
<title>pollution&#45;&#45;exploitation minière</title>
<path fill="none" stroke="darkgrey" stroke-width="2.22" d="M419.81,-272.77C391.24,-252.17 329.14,-207.4 302.9,-188.48"/>
</g>
<!-- pollution&#45;&#45;alternative au développement -->
<g id="edge13" class="edge">
<title>pollution&#45;&#45;alternative au développement</title>
<path fill="none" stroke="darkgrey" stroke-width="1.91" d="M443.45,-299.61C466.68,-342.27 528.73,-456.25 540.16,-477.24"/>
</g>
<!-- pollution&#45;&#45;matériel -->
<g id="edge14" class="edge">
<title>pollution&#45;&#45;matériel</title>
<path fill="none" stroke="darkgrey" stroke-width="2.82" d="M418.74,-292.41C397.88,-304.11 361.71,-324.38 342.55,-335.13"/>
</g>
<!-- pollution&#45;&#45;foncier -->
<g id="edge15" class="edge">
<title>pollution&#45;&#45;foncier</title>
<path fill="none" stroke="darkgrey" stroke-width="1.13" d="M429.01,-300.74C415.97,-340.53 384.25,-437.31 375.58,-463.74"/>
</g>
<!-- pollution&#45;&#45;relation politique -->
<g id="edge16" class="edge">
<title>pollution&#45;&#45;relation politique</title>
<path fill="none" stroke="darkgrey" stroke-width="1" d="M449.36,-272.37C503.98,-231.04 693.52,-87.64 719.91,-67.68"/>
</g>
<!-- pollution&#45;&#45;industrie -->
<g id="edge17" class="edge">
<title>pollution&#45;&#45;industrie</title>
<path fill="none" stroke="darkgrey" stroke-width="2.85" d="M451.12,-291.86C473.73,-303.38 514.16,-323.97 536.7,-335.44"/>
</g>
<!-- pollution&#45;&#45;échange commercial -->
<g id="edge18" class="edge">
<title>pollution&#45;&#45;échange commercial</title>
<path fill="none" stroke="darkgrey" stroke-width="1.19" d="M440.8,-266.21C458.58,-216.07 509.67,-72.03 521.4,-38.96"/>
</g>
<!-- dégradation environnementale&#45;&#45;nouvelle&#45;calédonie -->
<g id="edge19" class="edge">
<title>dégradation environnementale&#45;&#45;nouvelle&#45;calédonie</title>
<path fill="none" stroke="darkgrey" stroke-width="1.67" d="M603.43,-177.17C550.37,-128.86 434.96,-23.76 415.52,-6.06"/>
</g>
<!-- dégradation environnementale&#45;&#45;travail -->
<g id="edge20" class="edge">
<title>dégradation environnementale&#45;&#45;travail</title>
<path fill="none" stroke="darkgrey" stroke-width="8.1" d="M597.58,-185.48C587.72,-180.64 577.19,-175.47 568.47,-171.19"/>
</g>
<!-- dégradation environnementale&#45;&#45;économie -->
<g id="edge21" class="edge">
<title>dégradation environnementale&#45;&#45;économie</title>
<path fill="none" stroke="darkgrey" stroke-width="7.47" d="M597.31,-216.97C579.47,-225.42 558.17,-235.52 543.81,-242.33"/>
</g>
<!-- dégradation environnementale&#45;&#45;nickel -->
<g id="edge22" class="edge">
<title>dégradation environnementale&#45;&#45;nickel</title>
<path fill="none" stroke="darkgrey" stroke-width="10" d="M628.97,-237.8C628.96,-237.94 628.96,-238.08 628.96,-238.23"/>
</g>
<!-- dégradation environnementale&#45;&#45;ressource minière -->
<g id="edge23" class="edge">
<title>dégradation environnementale&#45;&#45;ressource minière</title>
<path fill="none" stroke="darkgrey" stroke-width="4.34" d="M595.97,-189.61C534.14,-168.18 406.53,-123.95 369.09,-110.97"/>
</g>
<!-- dégradation environnementale&#45;&#45;politique -->
<g id="edge24" class="edge">
<title>dégradation environnementale&#45;&#45;politique</title>
<path fill="none" stroke="darkgrey" stroke-width="4.6" d="M594.9,-192.07C559.69,-182.7 507.27,-168.74 482.24,-162.08"/>
</g>
<!-- dégradation environnementale&#45;&#45;secteur nickel -->
<g id="edge25" class="edge">
<title>dégradation environnementale&#45;&#45;secteur nickel</title>
<path fill="none" stroke="darkgrey" stroke-width="4.69" d="M594.22,-204.61C542.27,-209.2 448,-217.54 408.6,-221.02"/>
</g>
<!-- dégradation environnementale&#45;&#45;nature -->
<g id="edge26" class="edge">
<title>dégradation environnementale&#45;&#45;nature</title>
<path fill="none" stroke="darkgrey" stroke-width="5.3" d="M602.66,-225.53C559.36,-263.56 476.99,-335.91 447.05,-362.21"/>
</g>
<!-- dégradation environnementale&#45;&#45;amélioration environnementale -->
<g id="edge27" class="edge">
<title>dégradation environnementale&#45;&#45;amélioration environnementale</title>
<path fill="none" stroke="darkgrey" stroke-width="1.37" d="M594.03,-204.11C492.09,-211.66 208.02,-232.71 190.36,-234.01"/>
</g>
<!-- dégradation environnementale&#45;&#45;société néo&#45;calédonienne -->
<g id="edge28" class="edge">
<title>dégradation environnementale&#45;&#45;société néo&#45;calédonienne</title>
<path fill="none" stroke="darkgrey" stroke-width="2.05" d="M641.05,-236.14C656.6,-285.33 683.81,-371.38 689.57,-389.62"/>
</g>
<!-- dégradation environnementale&#45;&#45;exploitation minière -->
<g id="edge29" class="edge">
<title>dégradation environnementale&#45;&#45;exploitation minière</title>
<path fill="none" stroke="darkgrey" stroke-width="4.06" d="M594.09,-199.14C520.42,-194.43 355.16,-183.88 305.32,-180.69"/>
</g>
<!-- dégradation environnementale&#45;&#45;alternative au développement -->
<g id="edge30" class="edge">
<title>dégradation environnementale&#45;&#45;alternative au développement</title>
<path fill="none" stroke="darkgrey" stroke-width="2.27" d="M619.19,-235.95C597.64,-304.22 550.98,-452.08 543.12,-477"/>
</g>
<!-- dégradation environnementale&#45;&#45;matériel -->
<g id="edge31" class="edge">
<title>dégradation environnementale&#45;&#45;matériel</title>
<path fill="none" stroke="darkgrey" stroke-width="4.48" d="M597.37,-216.78C532,-247.44 387.69,-315.13 343.14,-336.02"/>
</g>
<!-- dégradation environnementale&#45;&#45;foncier -->
<g id="edge32" class="edge">
<title>dégradation environnementale&#45;&#45;foncier</title>
<path fill="none" stroke="darkgrey" stroke-width="2.34" d="M605,-227.73C546.96,-288.56 406.24,-436.05 378.25,-465.38"/>
</g>
<!-- dégradation environnementale&#45;&#45;relation politique -->
<g id="edge33" class="edge">
<title>dégradation environnementale&#45;&#45;relation politique</title>
<path fill="none" stroke="darkgrey" stroke-width="1.4" d="M650.46,-171.58C674.39,-136.53 711.95,-81.5 720.97,-68.29"/>
</g>
<!-- dégradation environnementale&#45;&#45;industrie -->
<g id="edge34" class="edge">
<title>dégradation environnementale&#45;&#45;industrie</title>
<path fill="none" stroke="darkgrey" stroke-width="4.02" d="M612.79,-233.38C596.9,-262.72 574.01,-304.99 561.67,-327.77"/>
</g>
<!-- dégradation environnementale&#45;&#45;échange commercial -->
<g id="edge36" class="edge">
<title>dégradation environnementale&#45;&#45;échange commercial</title>
<path fill="none" stroke="darkgrey" stroke-width="2.34" d="M610.84,-170.78C585,-129.61 540.81,-59.21 527.63,-38.21"/>
</g>
<!-- dégradation environnementale&#45;&#45;risque -->
<g id="edge35" class="edge">
<title>dégradation environnementale&#45;&#45;risque</title>
<path fill="none" stroke="darkgrey" stroke-width="1.76" d="M666.32,-201.47C730.44,-201.53 859.41,-201.64 883.02,-201.66"/>
</g>
<!-- dégradation environnementale&#45;&#45;avenir sans nickel -->
<g id="edge37" class="edge">
<title>dégradation environnementale&#45;&#45;avenir sans nickel</title>
<path fill="none" stroke="darkgrey" stroke-width="1.12" d="M665.83,-206.71C772.25,-222.4 1080.55,-267.84 1094.94,-269.96"/>
</g>
<!-- nouvelle&#45;calédonie&#45;&#45;travail -->
<g id="edge38" class="edge">
<title>nouvelle&#45;calédonie&#45;&#45;travail</title>
<path fill="none" stroke="darkgrey" stroke-width="1.76" d="M415.08,-6.24C429.26,-22.69 503.39,-108.7 534.87,-145.22"/>
</g>
<!-- nouvelle&#45;calédonie&#45;&#45;économie -->
<g id="edge39" class="edge">
<title>nouvelle&#45;calédonie&#45;&#45;économie</title>
<path fill="none" stroke="darkgrey" stroke-width="1.54" d="M414.33,-6.99C425.9,-31.87 496.17,-182.95 519.72,-233.58"/>
</g>
<!-- nouvelle&#45;calédonie&#45;&#45;nickel -->
<g id="edge40" class="edge">
<title>nouvelle&#45;calédonie&#45;&#45;nickel</title>
<path fill="none" stroke="darkgrey" stroke-width="2.77" d="M415.13,-6.54C433.69,-29.89 554.24,-181.55 605.19,-245.64"/>
</g>
<!-- nouvelle&#45;calédonie&#45;&#45;ressource minière -->
<g id="edge41" class="edge">
<title>nouvelle&#45;calédonie&#45;&#45;ressource minière</title>
<path fill="none" stroke="darkgrey" stroke-width="1.43" d="M410.91,-6.95C403.53,-21.1 375.45,-74.9 363.73,-97.36"/>
</g>
<!-- nouvelle&#45;calédonie&#45;&#45;politique -->
<g id="edge42" class="edge">
<title>nouvelle&#45;calédonie&#45;&#45;politique</title>
<path fill="none" stroke="darkgrey" stroke-width="2" d="M413.97,-7.02C420.52,-25.38 450.9,-110.52 462.97,-144.35"/>
</g>
<!-- nouvelle&#45;calédonie&#45;&#45;secteur nickel -->
<g id="edge43" class="edge">
<title>nouvelle&#45;calédonie&#45;&#45;secteur nickel</title>
<path fill="none" stroke="darkgrey" stroke-width="1.71" d="M412.33,-7.3C409.95,-30.83 397.16,-157.09 392.36,-204.56"/>
</g>
<!-- nouvelle&#45;calédonie&#45;&#45;nature -->
<g id="edge44" class="edge">
<title>nouvelle&#45;calédonie&#45;&#45;nature</title>
<path fill="none" stroke="darkgrey" stroke-width="1.2" d="M412.94,-7.15C415.04,-40.57 430.9,-293.79 434.9,-357.55"/>
</g>
<!-- nouvelle&#45;calédonie&#45;&#45;exploitation minière -->
<g id="edge45" class="edge">
<title>nouvelle&#45;calédonie&#45;&#45;exploitation minière</title>
<path fill="none" stroke="darkgrey" stroke-width="1.21" d="M410.6,-6.56C397.22,-25.9 324.19,-131.51 299.2,-167.64"/>
</g>
<!-- nouvelle&#45;calédonie&#45;&#45;industrie -->
<g id="edge46" class="edge">
<title>nouvelle&#45;calédonie&#45;&#45;industrie</title>
<path fill="none" stroke="darkgrey" stroke-width="1.47" d="M414.1,-6.87C426.59,-37.17 519.79,-263.18 546.11,-327.01"/>
</g>
<!-- travail&#45;&#45;économie -->
<g id="edge47" class="edge">
<title>travail&#45;&#45;économie</title>
<path fill="none" stroke="darkgrey" stroke-width="7.01" d="M543.91,-182.61C540.18,-197.83 535.2,-218.2 531.69,-232.56"/>
</g>
<!-- travail&#45;&#45;nickel -->
<g id="edge48" class="edge">
<title>travail&#45;&#45;nickel</title>
<path fill="none" stroke="darkgrey" stroke-width="8.2" d="M561.52,-179.47C573.76,-196.95 592.64,-223.9 607.14,-244.58"/>
</g>
<!-- travail&#45;&#45;ressource minière -->
<g id="edge49" class="edge">
<title>travail&#45;&#45;ressource minière</title>
<path fill="none" stroke="darkgrey" stroke-width="3.43" d="M528.28,-155.73C487.98,-144.23 400.35,-119.23 369.53,-110.44"/>
</g>
<!-- travail&#45;&#45;politique -->
<g id="edge50" class="edge">
<title>travail&#45;&#45;politique</title>
<path fill="none" stroke="darkgrey" stroke-width="4.28" d="M527.3,-160.74C513.13,-160.15 495.03,-159.4 482.56,-158.88"/>
</g>
<!-- travail&#45;&#45;secteur nickel -->
<g id="edge51" class="edge">
<title>travail&#45;&#45;secteur nickel</title>
<path fill="none" stroke="darkgrey" stroke-width="4.93" d="M528.96,-169.37C497.47,-181.48 437.02,-204.73 407.54,-216.08"/>
</g>
<!-- travail&#45;&#45;nature -->
<g id="edge52" class="edge">
<title>travail&#45;&#45;nature</title>
<path fill="none" stroke="darkgrey" stroke-width="3.66" d="M538.79,-180.69C516.09,-222.88 462.05,-323.3 442.79,-359.12"/>
</g>
<!-- travail&#45;&#45;amélioration environnementale -->
<g id="edge53" class="edge">
<title>travail&#45;&#45;amélioration environnementale</title>
<path fill="none" stroke="darkgrey" stroke-width="1.02" d="M527.88,-165.91C453.23,-180.95 205.65,-230.82 190.25,-233.93"/>
</g>
<!-- travail&#45;&#45;société néo&#45;calédonienne -->
<g id="edge54" class="edge">
<title>travail&#45;&#45;société néo&#45;calédonienne</title>
<path fill="none" stroke="darkgrey" stroke-width="1.89" d="M560.38,-180.19C591.24,-230.6 675.23,-367.85 688.8,-390.03"/>
</g>
<!-- travail&#45;&#45;exploitation minière -->
<g id="edge55" class="edge">
<title>travail&#45;&#45;exploitation minière</title>
<path fill="none" stroke="darkgrey" stroke-width="3.43" d="M527.46,-163.16C476.31,-166.75 348.72,-175.7 305.44,-178.74"/>
</g>
<!-- travail&#45;&#45;alternative au développement -->
<g id="edge56" class="edge">
<title>travail&#45;&#45;alternative au développement</title>
<path fill="none" stroke="darkgrey" stroke-width="1.45" d="M548.55,-183.32C547.08,-249.78 542.7,-447.97 542.06,-477.02"/>
</g>
<!-- travail&#45;&#45;matériel -->
<g id="edge57" class="edge">
<title>travail&#45;&#45;matériel</title>
<path fill="none" stroke="darkgrey" stroke-width="3.75" d="M532.19,-175.52C489.37,-210.8 377.19,-303.23 341.12,-332.94"/>
</g>
<!-- travail&#45;&#45;foncier -->
<g id="edge58" class="edge">
<title>travail&#45;&#45;foncier</title>
<path fill="none" stroke="darkgrey" stroke-width="1.63" d="M538.31,-180.5C504.04,-240.75 398.21,-426.83 377.06,-464"/>
</g>
<!-- travail&#45;&#45;relation politique -->
<g id="edge59" class="edge">
<title>travail&#45;&#45;relation politique</title>
<path fill="none" stroke="darkgrey" stroke-width="1.31" d="M567.98,-151.16C608.48,-128.74 701.31,-77.36 719.75,-67.15"/>
</g>
<!-- travail&#45;&#45;industrie -->
<g id="edge60" class="edge">
<title>travail&#45;&#45;industrie</title>
<path fill="none" stroke="darkgrey" stroke-width="4.06" d="M549.51,-183.25C550.3,-219.52 551.88,-292 552.62,-325.72"/>
</g>
<!-- travail&#45;&#45;échange commercial -->
<g id="edge62" class="edge">
<title>travail&#45;&#45;échange commercial</title>
<path fill="none" stroke="darkgrey" stroke-width="2.01" d="M544.87,-140.26C539.08,-110.51 528.89,-58.18 525.2,-39.23"/>
</g>
<!-- travail&#45;&#45;risque -->
<g id="edge61" class="edge">
<title>travail&#45;&#45;risque</title>
<path fill="none" stroke="darkgrey" stroke-width="1.89" d="M570.42,-164.18C639.15,-172.32 851.77,-197.52 882.95,-201.21"/>
</g>
<!-- économie&#45;&#45;nickel -->
<g id="edge63" class="edge">
<title>économie&#45;&#45;nickel</title>
<path fill="none" stroke="darkgrey" stroke-width="6.4" d="M545.36,-254.4C558.45,-257.54 576.62,-261.89 592.57,-265.71"/>
</g>
<!-- économie&#45;&#45;ressource minière -->
<g id="edge64" class="edge">
<title>économie&#45;&#45;ressource minière</title>
<path fill="none" stroke="darkgrey" stroke-width="2.38" d="M513.58,-238.41C479.87,-209.91 394.18,-137.45 366.97,-114.44"/>
</g>
<!-- économie&#45;&#45;politique -->
<g id="edge65" class="edge">
<title>économie&#45;&#45;politique</title>
<path fill="none" stroke="darkgrey" stroke-width="4.76" d="M517.58,-234.94C505.9,-216.9 486.64,-187.15 475.87,-170.51"/>
</g>
<!-- économie&#45;&#45;secteur nickel -->
<g id="edge66" class="edge">
<title>économie&#45;&#45;secteur nickel</title>
<path fill="none" stroke="darkgrey" stroke-width="3.74" d="M509.51,-246.51C483.28,-241.24 434.66,-231.48 408.43,-226.21"/>
</g>
<!-- économie&#45;&#45;nature -->
<g id="edge67" class="edge">
<title>économie&#45;&#45;nature</title>
<path fill="none" stroke="darkgrey" stroke-width="2.85" d="M516.53,-264.57C498.24,-288.93 461.65,-337.67 444.75,-360.18"/>
</g>
<!-- économie&#45;&#45;amélioration environnementale -->
<g id="edge68" class="edge">
<title>économie&#45;&#45;amélioration environnementale</title>
<path fill="none" stroke="darkgrey" stroke-width="1.03" d="M509.23,-249.24C441.24,-246.01 204.92,-234.81 190.22,-234.11"/>
</g>
<!-- économie&#45;&#45;société néo&#45;calédonienne -->
<g id="edge69" class="edge">
<title>économie&#45;&#45;société néo&#45;calédonienne</title>
<path fill="none" stroke="darkgrey" stroke-width="1.53" d="M541.04,-262.04C576.6,-293.18 670.59,-375.49 687.9,-390.65"/>
</g>
<!-- économie&#45;&#45;exploitation minière -->
<g id="edge70" class="edge">
<title>économie&#45;&#45;exploitation minière</title>
<path fill="none" stroke="darkgrey" stroke-width="2.1" d="M510,-244.93C465.08,-231.57 345.84,-196.12 304.87,-183.94"/>
</g>
<!-- économie&#45;&#45;alternative au développement -->
<g id="edge71" class="edge">
<title>économie&#45;&#45;alternative au développement</title>
<path fill="none" stroke="darkgrey" stroke-width="1.54" d="M528.54,-268.19C531.67,-317.64 540.24,-453.03 541.75,-476.95"/>
</g>
<!-- économie&#45;&#45;matériel -->
<g id="edge72" class="edge">
<title>économie&#45;&#45;matériel</title>
<path fill="none" stroke="darkgrey" stroke-width="2.3" d="M510.89,-257.8C472.48,-275.72 377.77,-319.9 342.92,-336.16"/>
</g>
<!-- économie&#45;&#45;foncier -->
<g id="edge73" class="edge">
<title>économie&#45;&#45;foncier</title>
<path fill="none" stroke="darkgrey" stroke-width="1.25" d="M517.05,-264.9C486.57,-308.53 397.92,-435.36 377.57,-464.49"/>
</g>
<!-- économie&#45;&#45;relation politique -->
<g id="edge74" class="edge">
<title>économie&#45;&#45;relation politique</title>
<path fill="none" stroke="darkgrey" stroke-width="1.4" d="M540.54,-237.69C580.62,-199.83 699.85,-87.21 720.04,-68.13"/>
</g>
<!-- économie&#45;&#45;industrie -->
<g id="edge75" class="edge">
<title>économie&#45;&#45;industrie</title>
<path fill="none" stroke="darkgrey" stroke-width="2.7" d="M532.22,-267.71C536.8,-284.46 543.65,-309.5 548.22,-326.22"/>
</g>
<!-- économie&#45;&#45;échange commercial -->
<g id="edge77" class="edge">
<title>économie&#45;&#45;échange commercial</title>
<path fill="none" stroke="darkgrey" stroke-width="1.71" d="M527.1,-231.89C526.35,-186.46 524.43,-69.6 523.94,-39.36"/>
</g>
<!-- économie&#45;&#45;risque -->
<g id="edge76" class="edge">
<title>économie&#45;&#45;risque</title>
<path fill="none" stroke="darkgrey" stroke-width="1.03" d="M545.72,-247.63C613.8,-238.45 850.08,-206.61 882.97,-202.18"/>
</g>
<!-- nickel&#45;&#45;ressource minière -->
<g id="edge78" class="edge">
<title>nickel&#45;&#45;ressource minière</title>
<path fill="none" stroke="darkgrey" stroke-width="5.29" d="M597.22,-255.18C536.7,-217.69 404.49,-135.78 368.02,-113.18"/>
</g>
<!-- nickel&#45;&#45;politique -->
<g id="edge79" class="edge">
<title>nickel&#45;&#45;politique</title>
<path fill="none" stroke="darkgrey" stroke-width="3.43" d="M598.53,-252.9C563,-227.16 504.82,-184.99 479.89,-166.93"/>
</g>
<!-- nickel&#45;&#45;secteur nickel -->
<g id="edge80" class="edge">
<title>nickel&#45;&#45;secteur nickel</title>
<path fill="none" stroke="darkgrey" stroke-width="6.47" d="M592.58,-266.5C541.06,-255.31 447.13,-234.91 408.18,-226.45"/>
</g>
<!-- nickel&#45;&#45;nature -->
<g id="edge81" class="edge">
<title>nickel&#45;&#45;nature</title>
<path fill="none" stroke="darkgrey" stroke-width="5.62" d="M595.71,-290.55C552.79,-312.44 478.69,-350.22 448.84,-365.44"/>
</g>
<!-- nickel&#45;&#45;amélioration environnementale -->
<g id="edge82" class="edge">
<title>nickel&#45;&#45;amélioration environnementale</title>
<path fill="none" stroke="darkgrey" stroke-width="1.04" d="M591.98,-270.88C490.56,-261.61 207.92,-235.76 190.36,-234.16"/>
</g>
<!-- nickel&#45;&#45;société néo&#45;calédonienne -->
<g id="edge83" class="edge">
<title>nickel&#45;&#45;société néo&#45;calédonienne</title>
<path fill="none" stroke="darkgrey" stroke-width="1.15" d="M644.69,-306.03C660.53,-336.02 682.73,-378.05 688.97,-389.87"/>
</g>
<!-- nickel&#45;&#45;exploitation minière -->
<g id="edge84" class="edge">
<title>nickel&#45;&#45;exploitation minière</title>
<path fill="none" stroke="darkgrey" stroke-width="7.13" d="M593.06,-264.41C520.23,-244.02 354.42,-197.58 304.98,-183.73"/>
</g>
<!-- nickel&#45;&#45;alternative au développement -->
<g id="edge85" class="edge">
<title>nickel&#45;&#45;alternative au développement</title>
<path fill="none" stroke="darkgrey" stroke-width="1.78" d="M613.87,-307.79C592.01,-360.34 551.4,-457.95 543.38,-477.23"/>
</g>
<!-- nickel&#45;&#45;matériel -->
<g id="edge86" class="edge">
<title>nickel&#45;&#45;matériel</title>
<path fill="none" stroke="darkgrey" stroke-width="5.7" d="M592.49,-282.24C526.8,-297.26 388.55,-328.85 343.96,-339.05"/>
</g>
<!-- nickel&#45;&#45;foncier -->
<g id="edge87" class="edge">
<title>nickel&#45;&#45;foncier</title>
<path fill="none" stroke="darkgrey" stroke-width="2.41" d="M599.16,-296.3C540.14,-341.83 408.25,-443.59 379.13,-466.06"/>
</g>
<!-- nickel&#45;&#45;relation politique -->
<g id="edge88" class="edge">
<title>nickel&#45;&#45;relation politique</title>
<path fill="none" stroke="darkgrey" stroke-width="1.4" d="M642.93,-241.08C667.02,-188.18 712.43,-88.5 721.4,-68.8"/>
</g>
<!-- nickel&#45;&#45;industrie -->
<g id="edge89" class="edge">
<title>nickel&#45;&#45;industrie</title>
<path fill="none" stroke="darkgrey" stroke-width="8.04" d="M601.26,-298.89C589.5,-309.83 576.17,-322.22 566.51,-331.21"/>
</g>
<!-- nickel&#45;&#45;échange commercial -->
<g id="edge91" class="edge">
<title>nickel&#45;&#45;échange commercial</title>
<path fill="none" stroke="darkgrey" stroke-width="3.15" d="M613.61,-241.01C588.79,-183.27 539.08,-67.63 526.67,-38.77"/>
</g>
<!-- nickel&#45;&#45;risque -->
<g id="edge90" class="edge">
<title>nickel&#45;&#45;risque</title>
<path fill="none" stroke="darkgrey" stroke-width="1.12" d="M662.78,-264.38C727.1,-246.37 859.9,-209.19 883.24,-202.66"/>
</g>
<!-- nickel&#45;&#45;avenir sans nickel -->
<g id="edge92" class="edge">
<title>nickel&#45;&#45;avenir sans nickel</title>
<path fill="none" stroke="darkgrey" d="M664.16,-273.84C771.45,-272.89 1080.51,-270.17 1094.94,-270.04"/>
</g>
<!-- ressource minière&#45;&#45;politique -->
<g id="edge93" class="edge">
<title>ressource minière&#45;&#45;politique</title>
<path fill="none" stroke="darkgrey" stroke-width="2.95" d="M368.63,-112.01C388.42,-121.23 432.29,-141.66 454.5,-152.01"/>
</g>
<!-- ressource minière&#45;&#45;secteur nickel -->
<g id="edge94" class="edge">
<title>ressource minière&#45;&#45;secteur nickel</title>
<path fill="none" stroke="darkgrey" stroke-width="2.17" d="M361.49,-117.95C367,-137.8 378.89,-180.65 385.62,-204.92"/>
</g>
<!-- ressource minière&#45;&#45;nature -->
<g id="edge95" class="edge">
<title>ressource minière&#45;&#45;nature</title>
<path fill="none" stroke="darkgrey" stroke-width="1.96" d="M361.66,-118.02C373.83,-159.72 418.06,-311.25 431.74,-358.15"/>
</g>
<!-- ressource minière&#45;&#45;exploitation minière -->
<g id="edge96" class="edge">
<title>ressource minière&#45;&#45;exploitation minière</title>
<path fill="none" stroke="darkgrey" stroke-width="2.47" d="M350.77,-115.62C338.54,-128.71 314.79,-154.12 301.14,-168.72"/>
</g>
<!-- ressource minière&#45;&#45;alternative au développement -->
<g id="edge97" class="edge">
<title>ressource minière&#45;&#45;alternative au développement</title>
<path fill="none" stroke="darkgrey" stroke-width="1.01" d="M363.45,-117.29C390.8,-172.95 523.78,-443.56 540.3,-477.16"/>
</g>
<!-- ressource minière&#45;&#45;matériel -->
<g id="edge98" class="edge">
<title>ressource minière&#45;&#45;matériel</title>
<path fill="none" stroke="darkgrey" stroke-width="1.98" d="M357.19,-118.33C352.49,-156.71 336.84,-284.54 331.55,-327.82"/>
</g>
<!-- ressource minière&#45;&#45;industrie -->
<g id="edge99" class="edge">
<title>ressource minière&#45;&#45;industrie</title>
<path fill="none" stroke="darkgrey" stroke-width="2.56" d="M365.69,-116C394.88,-151.5 505.18,-285.59 541.41,-329.64"/>
</g>
<!-- ressource minière&#45;&#45;échange commercial -->
<g id="edge100" class="edge">
<title>ressource minière&#45;&#45;échange commercial</title>
<path fill="none" stroke="darkgrey" stroke-width="1.67" d="M368.88,-102.61C399.97,-88.46 492.05,-46.58 517.33,-35.08"/>
</g>
<!-- politique&#45;&#45;secteur nickel -->
<g id="edge101" class="edge">
<title>politique&#45;&#45;secteur nickel</title>
<path fill="none" stroke="darkgrey" stroke-width="3.36" d="M456.52,-167.76C442.72,-179.23 419.52,-198.52 404.63,-210.9"/>
</g>
<!-- politique&#45;&#45;nature -->
<g id="edge102" class="edge">
<title>politique&#45;&#45;nature</title>
<path fill="none" stroke="darkgrey" stroke-width="1.7" d="M465.78,-172.63C459.94,-211.49 443.88,-318.39 438,-357.5"/>
</g>
<!-- politique&#45;&#45;société néo&#45;calédonienne -->
<g id="edge103" class="edge">
<title>politique&#45;&#45;société néo&#45;calédonienne</title>
<path fill="none" stroke="darkgrey" stroke-width="1.54" d="M478.09,-168.97C518.43,-211.49 666.27,-367.35 687.99,-390.26"/>
</g>
<!-- politique&#45;&#45;exploitation minière -->
<g id="edge104" class="edge">
<title>politique&#45;&#45;exploitation minière</title>
<path fill="none" stroke="darkgrey" stroke-width="1.96" d="M453.44,-160.03C420.23,-164.06 338.92,-173.93 305.51,-177.98"/>
</g>
<!-- politique&#45;&#45;alternative au développement -->
<g id="edge105" class="edge">
<title>politique&#45;&#45;alternative au développement</title>
<path fill="none" stroke="darkgrey" stroke-width="1.59" d="M471.22,-172.53C484.54,-230.53 534.25,-446.95 541.18,-477.1"/>
</g>
<!-- politique&#45;&#45;matériel -->
<g id="edge106" class="edge">
<title>politique&#45;&#45;matériel</title>
<path fill="none" stroke="darkgrey" stroke-width="1.52" d="M459.09,-170.06C434.19,-203.22 363.76,-297.03 338.73,-330.36"/>
</g>
<!-- politique&#45;&#45;foncier -->
<g id="edge107" class="edge">
<title>politique&#45;&#45;foncier</title>
<path fill="none" stroke="darkgrey" stroke-width="1.28" d="M463.63,-172.5C447.01,-227.37 387.39,-424.19 375.45,-463.6"/>
</g>
<!-- politique&#45;&#45;relation politique -->
<g id="edge108" class="edge">
<title>politique&#45;&#45;relation politique</title>
<path fill="none" stroke="darkgrey" stroke-width="1.74" d="M481.65,-153.27C530.48,-135.48 694.36,-75.79 719.67,-66.57"/>
</g>
<!-- politique&#45;&#45;industrie -->
<g id="edge109" class="edge">
<title>politique&#45;&#45;industrie</title>
<path fill="none" stroke="darkgrey" stroke-width="2.85" d="M474.06,-171.61C489.26,-204.75 528.72,-290.78 545.4,-327.14"/>
</g>
<!-- politique&#45;&#45;échange commercial -->
<g id="edge110" class="edge">
<title>politique&#45;&#45;échange commercial</title>
<path fill="none" stroke="darkgrey" stroke-width="1.6" d="M473.92,-144.77C485.86,-117.82 512.24,-58.26 520.96,-38.58"/>
</g>
<!-- secteur nickel&#45;&#45;nature -->
<g id="edge111" class="edge">
<title>secteur nickel&#45;&#45;nature</title>
<path fill="none" stroke="darkgrey" stroke-width="2.27" d="M395.81,-240.06C404.86,-269.94 423.17,-330.35 431.5,-357.86"/>
</g>
<!-- secteur nickel&#45;&#45;amélioration environnementale -->
<g id="edge112" class="edge">
<title>secteur nickel&#45;&#45;amélioration environnementale</title>
<path fill="none" stroke="darkgrey" stroke-width="1.09" d="M372.33,-223.66C325.17,-226.35 201.82,-233.38 190.36,-234.03"/>
</g>
<!-- secteur nickel&#45;&#45;société néo&#45;calédonienne -->
<g id="edge113" class="edge">
<title>secteur nickel&#45;&#45;société néo&#45;calédonienne</title>
<path fill="none" stroke="darkgrey" stroke-width="1.49" d="M406.24,-231.55C463.66,-264.15 660.15,-375.74 687.49,-391.27"/>
</g>
<!-- secteur nickel&#45;&#45;exploitation minière -->
<g id="edge114" class="edge">
<title>secteur nickel&#45;&#45;exploitation minière</title>
<path fill="none" stroke="darkgrey" stroke-width="2.5" d="M373.61,-215.35C354.06,-206.94 322.25,-193.28 304.29,-185.56"/>
</g>
<!-- secteur nickel&#45;&#45;alternative au développement -->
<g id="edge115" class="edge">
<title>secteur nickel&#45;&#45;alternative au développement</title>
<path fill="none" stroke="darkgrey" stroke-width="1.25" d="M399.77,-238.37C430.09,-290 525.37,-452.29 540.07,-477.33"/>
</g>
<!-- secteur nickel&#45;&#45;matériel -->
<g id="edge116" class="edge">
<title>secteur nickel&#45;&#45;matériel</title>
<path fill="none" stroke="darkgrey" stroke-width="2.94" d="M382.34,-238.76C370.16,-262.75 347.52,-307.34 336.35,-329.33"/>
</g>
<!-- secteur nickel&#45;&#45;foncier -->
<g id="edge117" class="edge">
<title>secteur nickel&#45;&#45;foncier</title>
<path fill="none" stroke="darkgrey" stroke-width="1.95" d="M389.27,-240.85C385.78,-291.16 376.14,-430.44 373.85,-463.43"/>
</g>
<!-- secteur nickel&#45;&#45;relation politique -->
<g id="edge118" class="edge">
<title>secteur nickel&#45;&#45;relation politique</title>
<path fill="none" stroke="darkgrey" stroke-width="1.11" d="M407.01,-214.82C469.64,-185.2 690.71,-80.63 719.8,-66.87"/>
</g>
<!-- secteur nickel&#45;&#45;industrie -->
<g id="edge119" class="edge">
<title>secteur nickel&#45;&#45;industrie</title>
<path fill="none" stroke="darkgrey" stroke-width="5.12" d="M405.23,-233.58C436.17,-256.65 507.66,-309.94 538.46,-332.9"/>
</g>
<!-- secteur nickel&#45;&#45;échange commercial -->
<g id="edge120" class="edge">
<title>secteur nickel&#45;&#45;échange commercial</title>
<path fill="none" stroke="darkgrey" stroke-width="2.15" d="M400.99,-207.67C428.36,-168.56 501.25,-64.39 519.58,-38.18"/>
</g>
<!-- nature&#45;&#45;société néo&#45;calédonienne -->
<g id="edge121" class="edge">
<title>nature&#45;&#45;société néo&#45;calédonienne</title>
<path fill="none" stroke="darkgrey" stroke-width="1.59" d="M450.61,-373.3C500.54,-377.41 661.09,-390.64 687.09,-392.78"/>
</g>
<!-- nature&#45;&#45;exploitation minière -->
<g id="edge122" class="edge">
<title>nature&#45;&#45;exploitation minière</title>
<path fill="none" stroke="darkgrey" stroke-width="1.8" d="M426.96,-360.34C401.01,-325.93 325.35,-225.57 299.55,-191.35"/>
</g>
<!-- nature&#45;&#45;alternative au développement -->
<g id="edge123" class="edge">
<title>nature&#45;&#45;alternative au développement</title>
<path fill="none" stroke="darkgrey" stroke-width="1.06" d="M445.99,-382.49C469.45,-406.46 526.3,-464.57 539.3,-477.85"/>
</g>
<!-- nature&#45;&#45;matériel -->
<g id="edge124" class="edge">
<title>nature&#45;&#45;matériel</title>
<path fill="none" stroke="darkgrey" stroke-width="3.3" d="M421.51,-368.06C401.16,-362.35 364.07,-351.93 343.85,-346.24"/>
</g>
<!-- nature&#45;&#45;foncier -->
<g id="edge125" class="edge">
<title>nature&#45;&#45;foncier</title>
<path fill="none" stroke="darkgrey" stroke-width="1.56" d="M427.9,-384.55C414.38,-405.86 387.31,-448.53 377.25,-464.39"/>
</g>
<!-- nature&#45;&#45;industrie -->
<g id="edge126" class="edge">
<title>nature&#45;&#45;industrie</title>
<path fill="none" stroke="darkgrey" stroke-width="2.62" d="M450.18,-368.61C471.7,-363.41 512.23,-353.61 535.47,-347.99"/>
</g>
<!-- nature&#45;&#45;échange commercial -->
<g id="edge127" class="edge">
<title>nature&#45;&#45;échange commercial</title>
<path fill="none" stroke="darkgrey" stroke-width="1.35" d="M439.48,-357.91C454.54,-299.73 511.33,-80.37 522.06,-38.91"/>
</g>
<!-- société néo&#45;calédonienne&#45;&#45;matériel -->
<g id="edge128" class="edge">
<title>société néo&#45;calédonienne&#45;&#45;matériel</title>
<path fill="none" stroke="darkgrey" stroke-width="1.52" d="M687.09,-392.57C654.44,-387.98 407.54,-353.23 344.43,-344.35"/>
</g>
<!-- société néo&#45;calédonienne&#45;&#45;relation politique -->
<g id="edge129" class="edge">
<title>société néo&#45;calédonienne&#45;&#45;relation politique</title>
<path fill="none" stroke="darkgrey" stroke-width="1" d="M691.03,-389.39C694.34,-355.78 719.3,-102.51 722.61,-69.02"/>
</g>
<!-- exploitation minière&#45;&#45;matériel -->
<g id="edge130" class="edge">
<title>exploitation minière&#45;&#45;matériel</title>
<path fill="none" stroke="darkgrey" stroke-width="2.71" d="M294.2,-193.9C301.57,-224.64 318.98,-297.25 326.37,-328.07"/>
</g>
<!-- exploitation minière&#45;&#45;foncier -->
<g id="edge131" class="edge">
<title>exploitation minière&#45;&#45;foncier</title>
<path fill="none" stroke="darkgrey" stroke-width="1.03" d="M294.8,-193.79C309.55,-245.74 360.78,-426.17 371.42,-463.65"/>
</g>
<!-- exploitation minière&#45;&#45;industrie -->
<g id="edge132" class="edge">
<title>exploitation minière&#45;&#45;industrie</title>
<path fill="none" stroke="darkgrey" stroke-width="3.12" d="M303.11,-187.45C346.14,-214.37 489.92,-304.3 537.55,-334.08"/>
</g>
<!-- exploitation minière&#45;&#45;échange commercial -->
<g id="edge133" class="edge">
<title>exploitation minière&#45;&#45;échange commercial</title>
<path fill="none" stroke="darkgrey" stroke-width="1.87" d="M303.34,-171.83C346.26,-144.64 486.42,-55.83 517.62,-36.06"/>
</g>
<!-- alternative au développement&#45;&#45;industrie -->
<g id="edge134" class="edge">
<title>alternative au développement&#45;&#45;industrie</title>
<path fill="none" stroke="darkgrey" stroke-width="1.27" d="M542.28,-476.93C543.59,-460.65 548.95,-394.21 551.56,-361.76"/>
</g>
<!-- matériel&#45;&#45;foncier -->
<g id="edge135" class="edge">
<title>matériel&#45;&#45;foncier</title>
<path fill="none" stroke="darkgrey" stroke-width="1.65" d="M334.61,-356.5C343.96,-384.01 364.22,-443.62 371.06,-463.72"/>
</g>
<!-- matériel&#45;&#45;industrie -->
<g id="edge136" class="edge">
<title>matériel&#45;&#45;industrie</title>
<path fill="none" stroke="darkgrey" stroke-width="4.04" d="M344.42,-342.38C383.8,-342.64 491.89,-343.35 534.96,-343.64"/>
</g>
<!-- matériel&#45;&#45;échange commercial -->
<g id="edge137" class="edge">
<title>matériel&#45;&#45;échange commercial</title>
<path fill="none" stroke="darkgrey" stroke-width="1.79" d="M337.62,-329.75C370.52,-277.16 496.71,-75.46 520.08,-38.1"/>
</g>
<!-- foncier&#45;&#45;industrie -->
<g id="edge138" class="edge">
<title>foncier&#45;&#45;industrie</title>
<path fill="none" stroke="darkgrey" stroke-width="2.02" d="M379.34,-466.29C404.3,-448.67 500.66,-380.7 538.05,-354.31"/>
</g>
<!-- relation politique&#45;&#45;échange commercial -->
<g id="edge139" class="edge">
<title>relation politique&#45;&#45;échange commercial</title>
<path fill="none" stroke="darkgrey" stroke-width="1.22" d="M719.51,-64.79C696.37,-60.93 563.9,-38.82 531.14,-33.35"/>
</g>
<!-- industrie&#45;&#45;échange commercial -->
<g id="edge141" class="edge">
<title>industrie&#45;&#45;échange commercial</title>
<path fill="none" stroke="darkgrey" stroke-width="1.89" d="M551.32,-325.65C545.74,-266.16 528.14,-78.23 524.48,-39.25"/>
</g>
<!-- industrie&#45;&#45;risque -->
<g id="edge140" class="edge">
<title>industrie&#45;&#45;risque</title>
<path fill="none" stroke="darkgrey" stroke-width="1.03" d="M570.02,-336.51C633.26,-309.59 852.7,-216.18 883.24,-203.17"/>
</g>
<!-- pollution -->
<g id="node1" class="node">
<title>pollution</title>
<ellipse fill="#ab2f5e" stroke="white" stroke-width="0" cx="434.67" cy="-283.48" rx="18" ry="18"/>
<text text-anchor="middle" x="373.67" y="-307.48" font-family="Helvetica,sans-Serif" font-size="20.00" fill="#4d4d4d">pollution</text>
</g>
<!-- dégradation environnementale -->
<g id="node2" class="node">
<title>dégradation environnementale</title>
<ellipse fill="#f1ef75" stroke="white" stroke-width="0" cx="630.08" cy="-201.44" rx="36" ry="36"/>
<text text-anchor="middle" x="812.08" y="-143.04" font-family="Helvetica,sans-Serif" font-size="28.00" fill="#4d4d4d">dégradation environnementale</text>
</g>
<!-- nouvelle&#45;calédonie -->
<g id="node3" class="node">
<title>nouvelle&#45;calédonie</title>
<ellipse fill="#1c0c43" stroke="white" stroke-width="0" cx="412.71" cy="-3.5" rx="3.5" ry="3.5"/>
<text text-anchor="middle" x="345.21" y="-11.12" font-family="Helvetica,sans-Serif" font-size="13.60" fill="#4d4d4d">nouvelle&#45;calédonie</text>
</g>
<!-- travail -->
<g id="node4" class="node">
<title>travail</title>
<ellipse fill="#e65d2f" stroke="white" stroke-width="0" cx="549.03" cy="-161.65" rx="21.5" ry="21.5"/>
<text text-anchor="middle" x="492.53" y="-189.87" font-family="Helvetica,sans-Serif" font-size="21.60" fill="#4d4d4d">travail</text>
</g>
<!-- économie -->
<g id="node5" class="node">
<title>économie</title>
<ellipse fill="#b3325a" stroke="white" stroke-width="0" cx="527.4" cy="-250.1" rx="18" ry="18"/>
<text text-anchor="middle" x="460.9" y="-238.1" font-family="Helvetica,sans-Serif" font-size="20.00" fill="#4d4d4d">économie</text>
</g>
<!-- nickel -->
<g id="node6" class="node">
<title>nickel</title>
<ellipse fill="#fcffa4" stroke="white" stroke-width="0" cx="627.86" cy="-274.16" rx="36" ry="36"/>
<text text-anchor="middle" x="632.86" y="-318.76" font-family="Helvetica,sans-Serif" font-size="28.00" fill="#4d4d4d">nickel</text>
</g>
<!-- ressource minière -->
<g id="node7" class="node">
<title>ressource minière</title>
<ellipse fill="#64156e" stroke="white" stroke-width="0" cx="358.54" cy="-107.31" rx="11" ry="11"/>
<text text-anchor="middle" x="271.54" y="-122.87" font-family="Helvetica,sans-Serif" font-size="16.80" fill="#4d4d4d">ressource minière</text>
</g>
<!-- politique -->
<g id="node8" class="node">
<title>politique</title>
<ellipse fill="#9b2964" stroke="white" stroke-width="0" cx="467.94" cy="-158.27" rx="14.5" ry="14.5"/>
<text text-anchor="middle" x="412.44" y="-178.05" font-family="Helvetica,sans-Serif" font-size="18.40" fill="#4d4d4d">politique</text>
</g>
<!-- secteur nickel -->
<g id="node9" class="node">
<title>secteur nickel</title>
<ellipse fill="#b43359" stroke="white" stroke-width="0" cx="390.53" cy="-222.62" rx="18" ry="18"/>
<text text-anchor="middle" x="303.03" y="-246.62" font-family="Helvetica,sans-Serif" font-size="20.00" fill="#4d4d4d">secteur nickel</text>
</g>
<!-- nature -->
<g id="node10" class="node">
<title>nature</title>
<ellipse fill="#85216b" stroke="white" stroke-width="0" cx="435.81" cy="-372.08" rx="14.5" ry="14.5"/>
<text text-anchor="middle" x="390.31" y="-391.86" font-family="Helvetica,sans-Serif" font-size="18.40" fill="#4d4d4d">nature</text>
</g>
<!-- amélioration environnementale -->
<g id="node11" class="node">
<title>amélioration environnementale</title>
<ellipse fill="#030210" stroke="white" stroke-width="0" cx="189.5" cy="-234.08" rx="0.5" ry="0.5"/>
<text text-anchor="middle" x="94.5" y="-237.98" font-family="Helvetica,sans-Serif" font-size="12.00" fill="#4d4d4d">amélioration environnementale</text>
</g>
<!-- société néo&#45;calédonienne -->
<g id="node12" class="node">
<title>société néo&#45;calédonienne</title>
<ellipse fill="#180c3c" stroke="white" stroke-width="0" cx="690.66" cy="-393.07" rx="3.5" ry="3.5"/>
<text text-anchor="middle" x="600.66" y="-400.69" font-family="Helvetica,sans-Serif" font-size="13.60" fill="#4d4d4d">société néo&#45;calédonienne</text>
</g>
<!-- exploitation minière -->
<g id="node13" class="node">
<title>exploitation minière</title>
<ellipse fill="#7a1d6d" stroke="white" stroke-width="0" cx="290.82" cy="-179.77" rx="14.5" ry="14.5"/>
<text text-anchor="middle" x="182.82" y="-199.55" font-family="Helvetica,sans-Serif" font-size="18.40" fill="#4d4d4d">exploitation minière</text>
</g>
<!-- alternative au développement -->
<g id="node14" class="node">
<title>alternative au développement</title>
<ellipse fill="#120a32" stroke="white" stroke-width="0" cx="541.98" cy="-480.59" rx="3.5" ry="3.5"/>
<text text-anchor="middle" x="435.48" y="-488.21" font-family="Helvetica,sans-Serif" font-size="13.60" fill="#4d4d4d">alternative au développement</text>
</g>
<!-- matériel -->
<g id="node15" class="node">
<title>matériel</title>
<ellipse fill="#932667" stroke="white" stroke-width="0" cx="329.77" cy="-342.29" rx="14.5" ry="14.5"/>
<text text-anchor="middle" x="276.27" y="-362.07" font-family="Helvetica,sans-Serif" font-size="18.40" fill="#4d4d4d">matériel</text>
</g>
<!-- foncier -->
<g id="node16" class="node">
<title>foncier</title>
<ellipse fill="#240c4f" stroke="white" stroke-width="0" cx="373.36" cy="-470.5" rx="7" ry="7"/>
<text text-anchor="middle" x="340.36" y="-468.34" font-family="Helvetica,sans-Serif" font-size="15.20" fill="#4d4d4d">foncier</text>
</g>
<!-- relation politique -->
<g id="node17" class="node">
<title>relation politique</title>
<ellipse fill="#0b0724" stroke="white" stroke-width="0" cx="722.97" cy="-65.37" rx="3.5" ry="3.5"/>
<text text-anchor="middle" x="661.97" y="-72.99" font-family="Helvetica,sans-Serif" font-size="13.60" fill="#4d4d4d">relation politique</text>
</g>
<!-- industrie -->
<g id="node18" class="node">
<title>industrie</title>
<ellipse fill="#b3325a" stroke="white" stroke-width="0" cx="553.01" cy="-343.75" rx="18" ry="18"/>
<text text-anchor="middle" x="491.01" y="-331.75" font-family="Helvetica,sans-Serif" font-size="20.00" fill="#4d4d4d">industrie</text>
</g>
<!-- échange commercial -->
<g id="node19" class="node">
<title>échange commercial</title>
<ellipse fill="#380962" stroke="white" stroke-width="0" cx="523.82" cy="-32.13" rx="7" ry="7"/>
<text text-anchor="middle" x="437.82" y="-43.97" font-family="Helvetica,sans-Serif" font-size="15.20" fill="#4d4d4d">échange commercial</text>
</g>
<!-- risque -->
<g id="node20" class="node">
<title>risque</title>
<ellipse fill="#050417" stroke="white" stroke-width="0" cx="886.78" cy="-201.67" rx="3.5" ry="3.5"/>
<text text-anchor="middle" x="862.28" y="-209.29" font-family="Helvetica,sans-Serif" font-size="13.60" fill="#4d4d4d">risque</text>
</g>
<!-- avenir sans nickel -->
<g id="node21" class="node">
<title>avenir sans nickel</title>
<ellipse fill="#000004" stroke="white" stroke-width="0" cx="1095.46" cy="-270.04" rx="0.5" ry="0.5"/>
<text text-anchor="middle" x="1041.46" y="-273.94" font-family="Helvetica,sans-Serif" font-size="12.00" fill="#4d4d4d">avenir sans nickel</text>
</g>
</g>
</svg>
