<?xml version="1.0" encoding="UTF-8" standalone="no"?>
<!DOCTYPE svg PUBLIC "-//W3C//DTD SVG 1.1//EN"
 "http://www.w3.org/Graphics/SVG/1.1/DTD/svg11.dtd">
<!-- Generated by graphviz version 2.43.0 (0)
 -->
<!-- Pages: 1 -->
<svg width="726pt" height="183pt"
 viewBox="0.00 0.00 725.52 182.92" xmlns="http://www.w3.org/2000/svg" xmlns:xlink="http://www.w3.org/1999/xlink">
<g id="graph0" class="graph" transform="scale(1 1) rotate(0) translate(4 178.92)">
<polygon fill="white" stroke="transparent" points="-4,4 -4,-178.92 721.52,-178.92 721.52,4 -4,4"/>
<!-- emploi&#45;&#45;pollution -->
<g id="edge1" class="edge">
<title>emploi&#45;&#45;pollution</title>
<path fill="none" stroke="darkgrey" stroke-width="3.36" d="M331.74,-72.15C346.95,-62.11 372.86,-45 390.32,-33.48"/>
</g>
<!-- emploi&#45;&#45;impact environnemental -->
<g id="edge2" class="edge">
<title>emploi&#45;&#45;impact environnemental</title>
<path fill="none" stroke="darkgrey" stroke-width="2.93" d="M334.08,-80.77C344.46,-81.09 358.85,-81.52 372.22,-81.93"/>
</g>
<!-- emploi&#45;&#45;économie du pays -->
<g id="edge3" class="edge">
<title>emploi&#45;&#45;économie du pays</title>
<path fill="none" stroke="darkgrey" stroke-width="1.42" d="M326.18,-93.38C334.54,-109.36 348.19,-135.44 353.01,-144.66"/>
</g>
<!-- emploi&#45;&#45;amélioration environnementale -->
<g id="edge4" class="edge">
<title>emploi&#45;&#45;amélioration environnementale</title>
<path fill="none" stroke="darkgrey" stroke-width="1.35" d="M308.41,-70C300.89,-62.89 291.05,-53.61 284.2,-47.14"/>
</g>
<!-- pollution&#45;&#45;impact environnemental -->
<g id="edge6" class="edge">
<title>pollution&#45;&#45;impact environnemental</title>
<path fill="none" stroke="darkgrey" stroke-width="10" d="M408.48,-43.02C408.49,-44.27 408.49,-45.54 408.49,-46.82"/>
</g>
<!-- pollution&#45;&#45;économie du pays -->
<g id="edge7" class="edge">
<title>pollution&#45;&#45;économie du pays</title>
<path fill="none" stroke="darkgrey" d="M399.96,-41.55C386.83,-72.48 362.49,-129.83 356.25,-144.52"/>
</g>
<!-- pollution&#45;&#45;épuisement de la ressource -->
<g id="edge5" class="edge">
<title>pollution&#45;&#45;épuisement de la ressource</title>
<path fill="none" stroke="darkgrey" stroke-width="2.3" d="M430.15,-20.1C456.86,-18.38 500.27,-15.59 513.18,-14.75"/>
</g>
<!-- impact environnemental&#45;&#45;économie du pays -->
<g id="edge10" class="edge">
<title>impact environnemental&#45;&#45;économie du pays</title>
<path fill="none" stroke="darkgrey" stroke-width="2.17" d="M385.41,-110.96C374.26,-124.45 362.22,-139 357.19,-145.09"/>
</g>
<!-- impact environnemental&#45;&#45;amélioration environnementale -->
<g id="edge11" class="edge">
<title>impact environnemental&#45;&#45;amélioration environnementale</title>
<path fill="none" stroke="darkgrey" stroke-width="1.13" d="M374.05,-71.67C345.06,-62.13 305.43,-49.08 286.68,-42.91"/>
</g>
<!-- impact environnemental&#45;&#45;conflit -->
<g id="edge9" class="edge">
<title>impact environnemental&#45;&#45;conflit</title>
<path fill="none" stroke="darkgrey" stroke-width="1.91" d="M432.43,-110.44C450.3,-130.93 472.29,-156.15 476.26,-160.7"/>
</g>
<!-- épuisement de la ressource&#45;&#45;impact environnemental -->
<g id="edge8" class="edge">
<title>épuisement de la ressource&#45;&#45;impact environnemental</title>
<path fill="none" stroke="darkgrey" stroke-width="2.81" d="M513.79,-16.49C502.96,-23.33 466.24,-46.54 439.2,-63.63"/>
</g>
<!-- emploi -->
<g id="node1" class="node">
<title>emploi</title>
<ellipse fill="#7d1e6d" stroke="white" stroke-width="0" cx="319.35" cy="-80.33" rx="14.5" ry="14.5"/>
<text text-anchor="middle" x="272.85" y="-100.11" font-family="Helvetica,sans-Serif" font-size="18.40" fill="#4d4d4d">emploi</text>
</g>
<!-- pollution -->
<g id="node2" class="node">
<title>pollution</title>
<ellipse fill="#d94d3d" stroke="white" stroke-width="0" cx="408.46" cy="-21.5" rx="21.5" ry="21.5"/>
<text text-anchor="middle" x="339.96" y="-6.72" font-family="Helvetica,sans-Serif" font-size="21.60" fill="#4d4d4d">pollution</text>
</g>
<!-- impact environnemental -->
<g id="node3" class="node">
<title>impact environnemental</title>
<ellipse fill="#fcffa4" stroke="white" stroke-width="0" cx="408.52" cy="-83.02" rx="36" ry="36"/>
<text text-anchor="middle" x="545.02" y="-127.62" font-family="Helvetica,sans-Serif" font-size="28.00" fill="#4d4d4d">impact environnemental</text>
</g>
<!-- économie du pays -->
<g id="node4" class="node">
<title>économie du pays</title>
<ellipse fill="#0e092b" stroke="white" stroke-width="0" cx="354.77" cy="-148.02" rx="3.5" ry="3.5"/>
<text text-anchor="middle" x="288.77" y="-155.64" font-family="Helvetica,sans-Serif" font-size="13.60" fill="#4d4d4d">économie du pays</text>
</g>
<!-- amélioration environnementale -->
<g id="node5" class="node">
<title>amélioration environnementale</title>
<ellipse fill="#751b6e" stroke="white" stroke-width="0" cx="276" cy="-39.39" rx="11" ry="11"/>
<text text-anchor="middle" x="132.5" y="-54.95" font-family="Helvetica,sans-Serif" font-size="16.80" fill="#4d4d4d">amélioration environnementale</text>
</g>
<!-- épuisement de la ressource -->
<g id="node6" class="node">
<title>épuisement de la ressource</title>
<ellipse fill="#140b34" stroke="white" stroke-width="0" cx="516.92" cy="-14.51" rx="3.5" ry="3.5"/>
<text text-anchor="middle" x="606.92" y="-22.13" font-family="Helvetica,sans-Serif" font-size="13.60" fill="#4d4d4d">épuisement de la ressource</text>
</g>
<!-- conflit -->
<g id="node7" class="node">
<title>conflit</title>
<ellipse fill="#000004" stroke="white" stroke-width="0" cx="476.89" cy="-161.42" rx="0.5" ry="0.5"/>
<text text-anchor="middle" x="457.89" y="-165.32" font-family="Helvetica,sans-Serif" font-size="12.00" fill="#4d4d4d">conflit</text>
</g>
</g>
</svg>
