<?xml version="1.0" encoding="UTF-8" standalone="no"?>
<!DOCTYPE svg PUBLIC "-//W3C//DTD SVG 1.1//EN"
 "http://www.w3.org/Graphics/SVG/1.1/DTD/svg11.dtd">
<!-- Generated by graphviz version 2.43.0 (0)
 -->
<!-- Pages: 1 -->
<svg width="607pt" height="316pt"
 viewBox="0.00 0.00 606.84 316.02" xmlns="http://www.w3.org/2000/svg" xmlns:xlink="http://www.w3.org/1999/xlink">
<g id="graph0" class="graph" transform="scale(1 1) rotate(0) translate(4 312.02)">
<polygon fill="white" stroke="transparent" points="-4,4 -4,-312.02 602.84,-312.02 602.84,4 -4,4"/>
<!-- emploi&#45;&#45;pollution -->
<g id="edge1" class="edge">
<title>emploi&#45;&#45;pollution</title>
<path fill="none" stroke="darkgrey" stroke-width="10" d="M260.82,-210.92C260.37,-197.39 259.77,-179.64 259.25,-164.04"/>
</g>
<!-- emploi&#45;&#45;impact environnemental -->
<g id="edge2" class="edge">
<title>emploi&#45;&#45;impact environnemental</title>
<path fill="none" stroke="darkgrey" stroke-width="5.58" d="M282.22,-226.67C303.21,-220.64 335.38,-211.41 355.21,-205.73"/>
</g>
<!-- emploi&#45;&#45;ressource -->
<g id="edge3" class="edge">
<title>emploi&#45;&#45;ressource</title>
<path fill="none" stroke="darkgrey" stroke-width="2.24" d="M279.05,-245.28C291.2,-254.09 306.89,-265.46 316.6,-272.49"/>
</g>
<!-- emploi&#45;&#45;économie -->
<g id="edge4" class="edge">
<title>emploi&#45;&#45;économie</title>
<path fill="none" stroke="darkgrey" stroke-width="3.02" d="M275.8,-216.09C289.63,-200.08 310.24,-176.21 322.28,-162.28"/>
</g>
<!-- emploi&#45;&#45;végétalisation -->
<g id="edge5" class="edge">
<title>emploi&#45;&#45;végétalisation</title>
<path fill="none" stroke="darkgrey" stroke-width="2.5" d="M243.29,-244.04C229.07,-252.96 210.2,-264.78 200.72,-270.73"/>
</g>
<!-- emploi&#45;&#45;automatisation -->
<g id="edge6" class="edge">
<title>emploi&#45;&#45;automatisation</title>
<path fill="none" stroke="darkgrey" stroke-width="1.29" d="M240.05,-235.83C207.94,-240.66 149.07,-249.52 128.95,-252.54"/>
</g>
<!-- pollution&#45;&#45;impact environnemental -->
<g id="edge8" class="edge">
<title>pollution&#45;&#45;impact environnemental</title>
<path fill="none" stroke="darkgrey" stroke-width="6.11" d="M288.5,-147.26C310.69,-161.31 339.82,-179.76 357.39,-190.88"/>
</g>
<!-- pollution&#45;&#45;ressource -->
<g id="edge9" class="edge">
<title>pollution&#45;&#45;ressource</title>
<path fill="none" stroke="darkgrey" stroke-width="2.22" d="M272.87,-161.12C288.25,-195.51 311.38,-247.23 321.08,-268.9"/>
</g>
<!-- pollution&#45;&#45;économie -->
<g id="edge11" class="edge">
<title>pollution&#45;&#45;économie</title>
<path fill="none" stroke="darkgrey" stroke-width="7.45" d="M292.42,-138.69C301.47,-141.51 310.73,-144.4 318.02,-146.67"/>
</g>
<!-- pollution&#45;&#45;épuisable -->
<g id="edge7" class="edge">
<title>pollution&#45;&#45;épuisable</title>
<path fill="none" stroke="darkgrey" stroke-width="8.16" d="M292.76,-117.76C318.22,-110.28 351.45,-100.51 369.93,-95.07"/>
</g>
<!-- pollution&#45;&#45;démolition -->
<g id="edge10" class="edge">
<title>pollution&#45;&#45;démolition</title>
<path fill="none" stroke="darkgrey" stroke-width="5.24" d="M222.14,-132.52C188.9,-136.73 142.02,-142.66 124.35,-144.9"/>
</g>
<!-- pollution&#45;&#45;argent -->
<g id="edge12" class="edge">
<title>pollution&#45;&#45;argent</title>
<path fill="none" stroke="darkgrey" stroke-width="1.29" d="M223.45,-138.08C206.17,-143.12 188.26,-148.36 185.06,-149.29"/>
</g>
<!-- pollution&#45;&#45;technologie -->
<g id="edge13" class="edge">
<title>pollution&#45;&#45;technologie</title>
<path fill="none" stroke="darkgrey" stroke-width="1.41" d="M225.34,-112.46C189.59,-95.5 135.55,-69.87 121.82,-63.36"/>
</g>
<!-- pollution&#45;&#45;richesse -->
<g id="edge14" class="edge">
<title>pollution&#45;&#45;richesse</title>
<path fill="none" stroke="darkgrey" stroke-width="1.63" d="M237.12,-98.66C222.55,-78.26 204.67,-53.22 198.48,-44.54"/>
</g>
<!-- pollution&#45;&#45;écologie -->
<g id="edge15" class="edge">
<title>pollution&#45;&#45;écologie</title>
<path fill="none" stroke="darkgrey" d="M263.8,-92.12C269.47,-56.78 277.44,-7.18 278.41,-1.11"/>
</g>
<!-- impact environnemental&#45;&#45;ressource -->
<g id="edge19" class="edge">
<title>impact environnemental&#45;&#45;ressource</title>
<path fill="none" stroke="darkgrey" stroke-width="2.31" d="M363.51,-216.15C353.94,-232.02 339.35,-256.22 331.35,-269.49"/>
</g>
<!-- impact environnemental&#45;&#45;économie -->
<g id="edge20" class="edge">
<title>impact environnemental&#45;&#45;économie</title>
<path fill="none" stroke="darkgrey" stroke-width="3.69" d="M361.25,-186.58C354.92,-178.89 347.21,-169.52 341.29,-162.32"/>
</g>
<!-- impact environnemental&#45;&#45;conflit -->
<g id="edge21" class="edge">
<title>impact environnemental&#45;&#45;conflit</title>
<path fill="none" stroke="darkgrey" d="M386.78,-189C404.72,-173.97 434.71,-148.87 444.06,-141.04"/>
</g>
<!-- épuisable&#45;&#45;impact environnemental -->
<g id="edge16" class="edge">
<title>épuisable&#45;&#45;impact environnemental</title>
<path fill="none" stroke="darkgrey" stroke-width="1.16" d="M382.39,-105.77C380.39,-125.65 376.83,-160.97 374.67,-182.46"/>
</g>
<!-- épuisable&#45;&#45;économie -->
<g id="edge17" class="edge">
<title>épuisable&#45;&#45;économie</title>
<path fill="none" stroke="darkgrey" stroke-width="1.94" d="M374.36,-101.99C365.11,-112.69 351.14,-128.86 341.8,-139.68"/>
</g>
<!-- épuisable&#45;&#45;conflit -->
<g id="edge18" class="edge">
<title>épuisable&#45;&#45;conflit</title>
<path fill="none" stroke="darkgrey" stroke-width="1.25" d="M395.74,-99.94C410.58,-111.15 435.11,-129.68 443.78,-136.24"/>
</g>
<!-- emploi -->
<g id="node1" class="node">
<title>emploi</title>
<ellipse fill="#e45a31" stroke="white" stroke-width="0" cx="261.54" cy="-232.6" rx="21.5" ry="21.5"/>
<text text-anchor="middle" x="203.04" y="-217.82" font-family="Helvetica,sans-Serif" font-size="21.60" fill="#4d4d4d">emploi</text>
</g>
<!-- pollution -->
<g id="node2" class="node">
<title>pollution</title>
<ellipse fill="#fcffa4" stroke="white" stroke-width="0" cx="258.04" cy="-127.97" rx="36" ry="36"/>
<text text-anchor="middle" x="160.54" y="-172.57" font-family="Helvetica,sans-Serif" font-size="28.00" fill="#4d4d4d">pollution</text>
</g>
<!-- impact environnemental -->
<g id="node3" class="node">
<title>impact environnemental</title>
<ellipse fill="#c63d4d" stroke="white" stroke-width="0" cx="372.84" cy="-200.67" rx="18" ry="18"/>
<text text-anchor="middle" x="476.84" y="-224.67" font-family="Helvetica,sans-Serif" font-size="20.00" fill="#4d4d4d">impact environnemental</text>
</g>
<!-- ressource -->
<g id="node4" class="node">
<title>ressource</title>
<ellipse fill="#59106e" stroke="white" stroke-width="0" cx="325.6" cy="-279.02" rx="11" ry="11"/>
<text text-anchor="middle" x="273.1" y="-294.58" font-family="Helvetica,sans-Serif" font-size="16.80" fill="#4d4d4d">ressource</text>
</g>
<!-- économie -->
<g id="node5" class="node">
<title>économie</title>
<ellipse fill="#8a226a" stroke="white" stroke-width="0" cx="331.99" cy="-151.03" rx="14.5" ry="14.5"/>
<text text-anchor="middle" x="271.99" y="-170.81" font-family="Helvetica,sans-Serif" font-size="18.40" fill="#4d4d4d">économie</text>
</g>
<!-- végétalisation -->
<g id="node6" class="node">
<title>végétalisation</title>
<ellipse fill="#510e6c" stroke="white" stroke-width="0" cx="194.73" cy="-274.48" rx="7" ry="7"/>
<text text-anchor="middle" x="133.73" y="-286.32" font-family="Helvetica,sans-Serif" font-size="15.20" fill="#4d4d4d">végétalisation</text>
</g>
<!-- automatisation -->
<g id="node7" class="node">
<title>automatisation</title>
<ellipse fill="#2d0b59" stroke="white" stroke-width="0" cx="122" cy="-253.59" rx="7" ry="7"/>
<text text-anchor="middle" x="57.5" y="-265.43" font-family="Helvetica,sans-Serif" font-size="15.20" fill="#4d4d4d">automatisation</text>
</g>
<!-- épuisable -->
<g id="node8" class="node">
<title>épuisable</title>
<ellipse fill="#9f2a63" stroke="white" stroke-width="0" cx="383.87" cy="-90.97" rx="14.5" ry="14.5"/>
<text text-anchor="middle" x="323.87" y="-61.75" font-family="Helvetica,sans-Serif" font-size="18.40" fill="#4d4d4d">épuisable</text>
</g>
<!-- démolition -->
<g id="node9" class="node">
<title>démolition</title>
<ellipse fill="#230c4c" stroke="white" stroke-width="0" cx="117.23" cy="-145.8" rx="7" ry="7"/>
<text text-anchor="middle" x="69.23" y="-143.64" font-family="Helvetica,sans-Serif" font-size="15.20" fill="#4d4d4d">démolition</text>
</g>
<!-- argent -->
<g id="node10" class="node">
<title>argent</title>
<ellipse fill="#000004" stroke="white" stroke-width="0" cx="184.55" cy="-149.44" rx="0.5" ry="0.5"/>
<text text-anchor="middle" x="164.05" y="-153.34" font-family="Helvetica,sans-Serif" font-size="12.00" fill="#4d4d4d">argent</text>
</g>
<!-- technologie -->
<g id="node11" class="node">
<title>technologie</title>
<ellipse fill="#0d0829" stroke="white" stroke-width="0" cx="118.56" cy="-61.81" rx="3.5" ry="3.5"/>
<text text-anchor="middle" x="75.56" y="-69.43" font-family="Helvetica,sans-Serif" font-size="13.60" fill="#4d4d4d">technologie</text>
</g>
<!-- richesse -->
<g id="node12" class="node">
<title>richesse</title>
<ellipse fill="#0d0829" stroke="white" stroke-width="0" cx="196.25" cy="-41.41" rx="3.5" ry="3.5"/>
<text text-anchor="middle" x="165.25" y="-49.03" font-family="Helvetica,sans-Serif" font-size="13.60" fill="#4d4d4d">richesse</text>
</g>
<!-- écologie -->
<g id="node13" class="node">
<title>écologie</title>
<ellipse fill="#030210" stroke="white" stroke-width="0" cx="278.51" cy="-0.5" rx="0.5" ry="0.5"/>
<text text-anchor="middle" x="252.51" y="-4.4" font-family="Helvetica,sans-Serif" font-size="12.00" fill="#4d4d4d">écologie</text>
</g>
<!-- conflit -->
<g id="node14" class="node">
<title>conflit</title>
<ellipse fill="#180c3c" stroke="white" stroke-width="0" cx="446.94" cy="-138.63" rx="3.5" ry="3.5"/>
<text text-anchor="middle" x="422.44" y="-146.25" font-family="Helvetica,sans-Serif" font-size="13.60" fill="#4d4d4d">conflit</text>
</g>
</g>
</svg>
