<?xml version="1.0" encoding="UTF-8" standalone="no"?>
<!DOCTYPE svg PUBLIC "-//W3C//DTD SVG 1.1//EN"
 "http://www.w3.org/Graphics/SVG/1.1/DTD/svg11.dtd">
<!-- Generated by graphviz version 2.43.0 (0)
 -->
<!-- Pages: 1 -->
<svg width="391pt" height="374pt"
 viewBox="0.00 0.00 390.66 373.98" xmlns="http://www.w3.org/2000/svg" xmlns:xlink="http://www.w3.org/1999/xlink">
<g id="graph0" class="graph" transform="scale(1 1) rotate(0) translate(4 369.98)">
<polygon fill="white" stroke="transparent" points="-4,4 -4,-369.98 386.66,-369.98 386.66,4 -4,4"/>
<!-- pollution&#45;&#45;épuisement -->
<g id="edge1" class="edge">
<title>pollution&#45;&#45;épuisement</title>
<path fill="none" stroke="darkgrey" stroke-width="4.54" d="M222.35,-213.4C223.9,-253.18 226.27,-314.22 227.08,-334.87"/>
</g>
<!-- pollution&#45;&#45;environnement -->
<g id="edge2" class="edge">
<title>pollution&#45;&#45;environnement</title>
<path fill="none" stroke="darkgrey" stroke-width="5.82" d="M254.73,-190.05C288.01,-202.67 336.84,-221.18 357.9,-229.17"/>
</g>
<!-- pollution&#45;&#45;destruction -->
<g id="edge3" class="edge">
<title>pollution&#45;&#45;destruction</title>
<path fill="none" stroke="darkgrey" stroke-width="10" d="M189.56,-195.24C153.42,-215.95 97.19,-248.18 82.9,-256.38"/>
</g>
<!-- pollution&#45;&#45;économie -->
<g id="edge4" class="edge">
<title>pollution&#45;&#45;économie</title>
<path fill="none" stroke="darkgrey" stroke-width="8.48" d="M254.72,-164.71C286.3,-152.99 331.87,-136.07 354.43,-127.69"/>
</g>
<!-- pollution&#45;&#45;argent -->
<g id="edge5" class="edge">
<title>pollution&#45;&#45;argent</title>
<path fill="none" stroke="darkgrey" d="M190.24,-158.29C151.39,-134.31 88.8,-95.68 83.02,-92.11"/>
</g>
<!-- pollution&#45;&#45;emploi -->
<g id="edge6" class="edge">
<title>pollution&#45;&#45;emploi</title>
<path fill="none" stroke="darkgrey" stroke-width="8.63" d="M223.11,-141.13C225.21,-105.92 228.3,-54.13 229.8,-29.1"/>
</g>
<!-- environnement&#45;&#45;économie -->
<g id="edge7" class="edge">
<title>environnement&#45;&#45;économie</title>
<path fill="none" stroke="darkgrey" stroke-width="1.23" d="M368.19,-221.66C368.18,-201.48 368.17,-159.53 368.16,-137.25"/>
</g>
<!-- pollution -->
<g id="node1" class="node">
<title>pollution</title>
<ellipse fill="#fcffa4" stroke="white" stroke-width="0" cx="220.95" cy="-177.25" rx="36" ry="36"/>
<text text-anchor="middle" x="123.45" y="-221.85" font-family="Helvetica,sans-Serif" font-size="28.00" fill="#4d4d4d">pollution</text>
</g>
<!-- épuisement -->
<g id="node2" class="node">
<title>épuisement</title>
<ellipse fill="#290b55" stroke="white" stroke-width="0" cx="227.35" cy="-341.98" rx="7" ry="7"/>
<text text-anchor="middle" x="174.85" y="-353.82" font-family="Helvetica,sans-Serif" font-size="15.20" fill="#4d4d4d">épuisement</text>
</g>
<!-- environnement -->
<g id="node3" class="node">
<title>environnement</title>
<ellipse fill="#71196e" stroke="white" stroke-width="0" cx="368.19" cy="-233.07" rx="11" ry="11"/>
<text text-anchor="middle" x="293.19" y="-248.63" font-family="Helvetica,sans-Serif" font-size="16.80" fill="#4d4d4d">environnement</text>
</g>
<!-- destruction -->
<g id="node4" class="node">
<title>destruction</title>
<ellipse fill="#210c4a" stroke="white" stroke-width="0" cx="79.5" cy="-258.32" rx="3.5" ry="3.5"/>
<text text-anchor="middle" x="38" y="-265.94" font-family="Helvetica,sans-Serif" font-size="13.60" fill="#4d4d4d">destruction</text>
</g>
<!-- économie -->
<g id="node5" class="node">
<title>économie</title>
<ellipse fill="#8f2469" stroke="white" stroke-width="0" cx="368.16" cy="-122.6" rx="14.5" ry="14.5"/>
<text text-anchor="middle" x="308.16" y="-142.38" font-family="Helvetica,sans-Serif" font-size="18.40" fill="#4d4d4d">économie</text>
</g>
<!-- argent -->
<g id="node6" class="node">
<title>argent</title>
<ellipse fill="#000004" stroke="white" stroke-width="0" cx="82.59" cy="-91.84" rx="0.5" ry="0.5"/>
<text text-anchor="middle" x="62.09" y="-95.74" font-family="Helvetica,sans-Serif" font-size="12.00" fill="#4d4d4d">argent</text>
</g>
<!-- emploi -->
<g id="node7" class="node">
<title>emploi</title>
<ellipse fill="#7a1d6d" stroke="white" stroke-width="0" cx="230.67" cy="-14.5" rx="14.5" ry="14.5"/>
<text text-anchor="middle" x="184.17" y="-34.28" font-family="Helvetica,sans-Serif" font-size="18.40" fill="#4d4d4d">emploi</text>
</g>
</g>
</svg>
