<?xml version="1.0" encoding="UTF-8" standalone="no"?>
<!DOCTYPE svg PUBLIC "-//W3C//DTD SVG 1.1//EN"
 "http://www.w3.org/Graphics/SVG/1.1/DTD/svg11.dtd">
<!-- Generated by graphviz version 2.43.0 (0)
 -->
<!-- Pages: 1 -->
<svg width="1039pt" height="514pt"
 viewBox="0.00 0.00 1039.04 513.54" xmlns="http://www.w3.org/2000/svg" xmlns:xlink="http://www.w3.org/1999/xlink">
<g id="graph0" class="graph" transform="scale(1 1) rotate(0) translate(4 509.54)">
<polygon fill="white" stroke="transparent" points="-4,4 -4,-509.54 1035.04,-509.54 1035.04,4 -4,4"/>
<!-- avenir sans nickel&#45;&#45;travail -->
<g id="edge1" class="edge">
<title>avenir sans nickel&#45;&#45;travail</title>
<path fill="none" stroke="darkgrey" stroke-width="2.73" d="M681.01,-109.95C683.25,-132.35 686.5,-164.69 688.51,-184.67"/>
</g>
<!-- avenir sans nickel&#45;&#45;politique -->
<g id="edge2" class="edge">
<title>avenir sans nickel&#45;&#45;politique</title>
<path fill="none" stroke="darkgrey" stroke-width="3.08" d="M656.87,-97.54C626.04,-115.41 570.22,-147.79 543.12,-163.51"/>
</g>
<!-- avenir sans nickel&#45;&#45;secteur nickel -->
<g id="edge3" class="edge">
<title>avenir sans nickel&#45;&#45;secteur nickel</title>
<path fill="none" stroke="darkgrey" stroke-width="2.37" d="M678.65,-110.29C678.89,-151.23 679.35,-231.02 679.56,-266.73"/>
</g>
<!-- avenir sans nickel&#45;&#45;avenir avec nickel -->
<g id="edge4" class="edge">
<title>avenir sans nickel&#45;&#45;avenir avec nickel</title>
<path fill="none" stroke="darkgrey" stroke-width="2.84" d="M695.5,-103.6C715.47,-125.49 747.45,-160.51 759.61,-173.83"/>
</g>
<!-- avenir sans nickel&#45;&#45;pollution -->
<g id="edge5" class="edge">
<title>avenir sans nickel&#45;&#45;pollution</title>
<path fill="none" stroke="darkgrey" stroke-width="4.62" d="M666.65,-107.01C647.2,-143.16 608.86,-214.43 590.5,-248.54"/>
</g>
<!-- avenir sans nickel&#45;&#45;ressource minière -->
<g id="edge6" class="edge">
<title>avenir sans nickel&#45;&#45;ressource minière</title>
<path fill="none" stroke="darkgrey" stroke-width="5.56" d="M656.71,-97.29C616.89,-119.76 532.83,-167.21 492.99,-189.69"/>
</g>
<!-- avenir sans nickel&#45;&#45;dégradation environnementale -->
<g id="edge7" class="edge">
<title>avenir sans nickel&#45;&#45;dégradation environnementale</title>
<path fill="none" stroke="darkgrey" stroke-width="5.11" d="M667.72,-108.07C647.67,-151.01 604.55,-243.32 581.45,-292.78"/>
</g>
<!-- avenir sans nickel&#45;&#45;société néo&#45;calédonienne -->
<g id="edge8" class="edge">
<title>avenir sans nickel&#45;&#45;société néo&#45;calédonienne</title>
<path fill="none" stroke="darkgrey" stroke-width="2.41" d="M653.52,-84.03C626.89,-83 585.63,-81.42 563.73,-80.58"/>
</g>
<!-- avenir sans nickel&#45;&#45;alternative au développement -->
<g id="edge9" class="edge">
<title>avenir sans nickel&#45;&#45;alternative au développement</title>
<path fill="none" stroke="darkgrey" stroke-width="3.72" d="M660.75,-103.34C647.85,-116.67 630.49,-134.61 617.68,-147.86"/>
</g>
<!-- avenir sans nickel&#45;&#45;économie -->
<g id="edge10" class="edge">
<title>avenir sans nickel&#45;&#45;économie</title>
<path fill="none" stroke="darkgrey" stroke-width="1.92" d="M660.62,-102.52C624.01,-138.4 541.53,-219.25 512.48,-247.73"/>
</g>
<!-- avenir sans nickel&#45;&#45;amélioration environnementale -->
<g id="edge11" class="edge">
<title>avenir sans nickel&#45;&#45;amélioration environnementale</title>
<path fill="none" stroke="darkgrey" stroke-width="1.86" d="M690.39,-107.41C711.89,-147.96 756.42,-231.97 771.73,-260.85"/>
</g>
<!-- travail&#45;&#45;politique -->
<g id="edge12" class="edge">
<title>travail&#45;&#45;politique</title>
<path fill="none" stroke="darkgrey" stroke-width="3.03" d="M672.58,-199.41C641.26,-193.61 576.52,-181.63 545.22,-175.84"/>
</g>
<!-- travail&#45;&#45;secteur nickel -->
<g id="edge13" class="edge">
<title>travail&#45;&#45;secteur nickel</title>
<path fill="none" stroke="darkgrey" stroke-width="2.94" d="M687.95,-220.9C686.17,-234.59 683.75,-253.26 681.98,-266.87"/>
</g>
<!-- travail&#45;&#45;avenir avec nickel -->
<g id="edge14" class="edge">
<title>travail&#45;&#45;avenir avec nickel</title>
<path fill="none" stroke="darkgrey" stroke-width="1.15" d="M707.53,-197.24C723.45,-192.2 746.33,-184.97 757.64,-181.39"/>
</g>
<!-- travail&#45;&#45;pollution -->
<g id="edge15" class="edge">
<title>travail&#45;&#45;pollution</title>
<path fill="none" stroke="darkgrey" stroke-width="4.45" d="M674.54,-211.99C654.57,-223.77 620.2,-244.04 598.94,-256.58"/>
</g>
<!-- travail&#45;&#45;ressource minière -->
<g id="edge16" class="edge">
<title>travail&#45;&#45;ressource minière</title>
<path fill="none" stroke="darkgrey" stroke-width="2.22" d="M672.01,-202.63C632.82,-202.51 540.75,-202.22 496.2,-202.08"/>
</g>
<!-- travail&#45;&#45;dégradation environnementale -->
<g id="edge17" class="edge">
<title>travail&#45;&#45;dégradation environnementale</title>
<path fill="none" stroke="darkgrey" stroke-width="5.63" d="M677.49,-215.38C657.4,-235.27 618.13,-274.15 592,-300.03"/>
</g>
<!-- travail&#45;&#45;société néo&#45;calédonienne -->
<g id="edge18" class="edge">
<title>travail&#45;&#45;société néo&#45;calédonienne</title>
<path fill="none" stroke="darkgrey" stroke-width="2.94" d="M676.5,-190.7C648.56,-166.46 585.84,-112.05 560.18,-89.78"/>
</g>
<!-- travail&#45;&#45;alternative au développement -->
<g id="edge19" class="edge">
<title>travail&#45;&#45;alternative au développement</title>
<path fill="none" stroke="darkgrey" stroke-width="3.17" d="M673.38,-195.76C659.31,-190.01 639.17,-181.77 623.58,-175.39"/>
</g>
<!-- travail&#45;&#45;économie -->
<g id="edge21" class="edge">
<title>travail&#45;&#45;économie</title>
<path fill="none" stroke="darkgrey" stroke-width="3.39" d="M672.95,-207.78C635.91,-218.64 549.81,-243.9 516.05,-253.8"/>
</g>
<!-- travail&#45;&#45;amélioration environnementale -->
<g id="edge22" class="edge">
<title>travail&#45;&#45;amélioration environnementale</title>
<path fill="none" stroke="darkgrey" stroke-width="2.21" d="M704.63,-213.94C722.72,-228.16 753.29,-252.19 768.26,-263.95"/>
</g>
<!-- travail&#45;&#45;nickel -->
<g id="edge20" class="edge">
<title>travail&#45;&#45;nickel</title>
<path fill="none" stroke="darkgrey" stroke-width="1.1" d="M686.17,-220.36C674.85,-268.7 643.85,-401.04 638.37,-424.43"/>
</g>
<!-- travail&#45;&#45;essor technologique -->
<g id="edge23" class="edge">
<title>travail&#45;&#45;essor technologique</title>
<path fill="none" stroke="darkgrey" stroke-width="2.62" d="M695.42,-220.04C705.75,-255.14 728.93,-333.94 738.42,-366.18"/>
</g>
<!-- politique&#45;&#45;secteur nickel -->
<g id="edge25" class="edge">
<title>politique&#45;&#45;secteur nickel</title>
<path fill="none" stroke="darkgrey" stroke-width="3.27" d="M542.1,-183.32C571.1,-204.71 635.74,-252.36 664.89,-273.86"/>
</g>
<!-- politique&#45;&#45;avenir avec nickel -->
<g id="edge27" class="edge">
<title>politique&#45;&#45;avenir avec nickel</title>
<path fill="none" stroke="darkgrey" stroke-width="1.15" d="M545.71,-173.08C594.28,-174.44 725.38,-178.12 757.4,-179.01"/>
</g>
<!-- politique&#45;&#45;pollution -->
<g id="edge28" class="edge">
<title>politique&#45;&#45;pollution</title>
<path fill="none" stroke="darkgrey" stroke-width="2.71" d="M536.45,-188.69C545.68,-205.32 560.06,-231.23 569.81,-248.78"/>
</g>
<!-- politique&#45;&#45;ressource minière -->
<g id="edge29" class="edge">
<title>politique&#45;&#45;ressource minière</title>
<path fill="none" stroke="darkgrey" stroke-width="3.55" d="M511.52,-180.92C505.92,-183.85 499.54,-187.18 493.52,-190.33"/>
</g>
<!-- politique&#45;&#45;dégradation environnementale -->
<g id="edge30" class="edge">
<title>politique&#45;&#45;dégradation environnementale</title>
<path fill="none" stroke="darkgrey" stroke-width="4.19" d="M531.93,-190.13C538.09,-214.56 549.37,-259.32 557.28,-290.7"/>
</g>
<!-- politique&#45;&#45;société néo&#45;calédonienne -->
<g id="edge31" class="edge">
<title>politique&#45;&#45;société néo&#45;calédonienne</title>
<path fill="none" stroke="darkgrey" stroke-width="1.47" d="M531.64,-154.72C535.72,-137.07 541.88,-110.41 545.64,-94.17"/>
</g>
<!-- politique&#45;&#45;alternative au développement -->
<g id="edge33" class="edge">
<title>politique&#45;&#45;alternative au développement</title>
<path fill="none" stroke="darkgrey" stroke-width="2.5" d="M545.49,-170.91C554.5,-170.08 565.54,-169.06 575.35,-168.15"/>
</g>
<!-- politique&#45;&#45;économie -->
<g id="edge34" class="edge">
<title>politique&#45;&#45;économie</title>
<path fill="none" stroke="darkgrey" stroke-width="3.32" d="M522.37,-189.83C517.65,-205.71 510.73,-228.95 506.32,-243.75"/>
</g>
<!-- politique&#45;&#45;relation politique -->
<g id="edge26" class="edge">
<title>politique&#45;&#45;relation politique</title>
<path fill="none" stroke="darkgrey" stroke-width="1.25" d="M521.18,-189.92C498.83,-251.21 424.41,-455.35 414.06,-483.75"/>
</g>
<!-- politique&#45;&#45;nouvelle&#45;calédonie -->
<g id="edge32" class="edge">
<title>politique&#45;&#45;nouvelle&#45;calédonie</title>
<path fill="none" stroke="darkgrey" stroke-width="1.04" d="M515.73,-158.73C484.59,-122.14 401.39,-24.38 386.06,-6.37"/>
</g>
<!-- secteur nickel&#45;&#45;avenir avec nickel -->
<g id="edge35" class="edge">
<title>secteur nickel&#45;&#45;avenir avec nickel</title>
<path fill="none" stroke="darkgrey" stroke-width="1.28" d="M691.11,-270.51C710.11,-246.88 747.34,-200.58 760.11,-184.71"/>
</g>
<!-- secteur nickel&#45;&#45;pollution -->
<g id="edge36" class="edge">
<title>secteur nickel&#45;&#45;pollution</title>
<path fill="none" stroke="darkgrey" stroke-width="3.14" d="M661.89,-281.68C645.02,-278.77 619.65,-274.4 601.67,-271.3"/>
</g>
<!-- secteur nickel&#45;&#45;ressource minière -->
<g id="edge37" class="edge">
<title>secteur nickel&#45;&#45;ressource minière</title>
<path fill="none" stroke="darkgrey" stroke-width="1.94" d="M662.6,-277.98C625.35,-263.19 536.72,-228.01 494.42,-211.22"/>
</g>
<!-- secteur nickel&#45;&#45;dégradation environnementale -->
<g id="edge38" class="edge">
<title>secteur nickel&#45;&#45;dégradation environnementale</title>
<path fill="none" stroke="darkgrey" stroke-width="2.89" d="M662.41,-290.96C645.91,-296.91 620.55,-306.05 600,-313.45"/>
</g>
<!-- secteur nickel&#45;&#45;société néo&#45;calédonienne -->
<g id="edge39" class="edge">
<title>secteur nickel&#45;&#45;société néo&#45;calédonienne</title>
<path fill="none" stroke="darkgrey" stroke-width="1.26" d="M669.83,-269.36C644.89,-230.3 579.5,-127.9 556.81,-92.37"/>
</g>
<!-- secteur nickel&#45;&#45;alternative au développement -->
<g id="edge40" class="edge">
<title>secteur nickel&#45;&#45;alternative au développement</title>
<path fill="none" stroke="darkgrey" stroke-width="4.63" d="M669.61,-269.69C655.58,-248.69 630.1,-210.54 614.24,-186.79"/>
</g>
<!-- secteur nickel&#45;&#45;économie -->
<g id="edge42" class="edge">
<title>secteur nickel&#45;&#45;économie</title>
<path fill="none" stroke="darkgrey" stroke-width="1.94" d="M661.66,-282.02C626.4,-276.69 548.85,-264.96 516.62,-260.08"/>
</g>
<!-- secteur nickel&#45;&#45;amélioration environnementale -->
<g id="edge43" class="edge">
<title>secteur nickel&#45;&#45;amélioration environnementale</title>
<path fill="none" stroke="darkgrey" stroke-width="2.58" d="M697.52,-282.2C717.51,-279.35 749.27,-274.82 765.96,-272.43"/>
</g>
<!-- secteur nickel&#45;&#45;nickel -->
<g id="edge41" class="edge">
<title>secteur nickel&#45;&#45;nickel</title>
<path fill="none" stroke="darkgrey" stroke-width="1.49" d="M674.58,-302.02C664.69,-335.66 643.39,-408.07 638.54,-424.58"/>
</g>
<!-- secteur nickel&#45;&#45;essor technologique -->
<g id="edge44" class="edge">
<title>secteur nickel&#45;&#45;essor technologique</title>
<path fill="none" stroke="darkgrey" stroke-width="1.15" d="M689.77,-300.11C702.21,-319 723.07,-350.7 734.5,-368.06"/>
</g>
<!-- avenir avec nickel&#45;&#45;ressource minière -->
<g id="edge46" class="edge">
<title>avenir avec nickel&#45;&#45;ressource minière</title>
<path fill="none" stroke="darkgrey" stroke-width="1.17" d="M757.27,-179.78C721.1,-182.59 559.4,-195.15 496.41,-200.04"/>
</g>
<!-- avenir avec nickel&#45;&#45;dégradation environnementale -->
<g id="edge47" class="edge">
<title>avenir avec nickel&#45;&#45;dégradation environnementale</title>
<path fill="none" stroke="darkgrey" stroke-width="2.24" d="M758.8,-183.44C735.03,-200.98 643.16,-268.79 595.36,-304.07"/>
</g>
<!-- avenir avec nickel&#45;&#45;alternative au développement -->
<g id="edge48" class="edge">
<title>avenir avec nickel&#45;&#45;alternative au développement</title>
<path fill="none" stroke="darkgrey" stroke-width="1.7" d="M757.47,-178.64C734.87,-176.8 663.54,-171 625.21,-167.88"/>
</g>
<!-- avenir avec nickel&#45;&#45;économie -->
<g id="edge49" class="edge">
<title>avenir avec nickel&#45;&#45;économie</title>
<path fill="none" stroke="darkgrey" stroke-width="1.96" d="M757.77,-181.24C723.04,-191.65 564.21,-239.27 516.02,-253.72"/>
</g>
<!-- avenir avec nickel&#45;&#45;amélioration environnementale -->
<g id="edge50" class="edge">
<title>avenir avec nickel&#45;&#45;amélioration environnementale</title>
<path fill="none" stroke="darkgrey" stroke-width="2.59" d="M765.51,-186.4C767.68,-202.35 772.93,-240.78 775.53,-259.81"/>
</g>
<!-- avenir avec nickel&#45;&#45;essor technologique -->
<g id="edge51" class="edge">
<title>avenir avec nickel&#45;&#45;essor technologique</title>
<path fill="none" stroke="darkgrey" stroke-width="1.82" d="M763.74,-186.37C760.56,-215.55 748.53,-325.87 744.17,-365.8"/>
</g>
<!-- pollution&#45;&#45;ressource minière -->
<g id="edge52" class="edge">
<title>pollution&#45;&#45;ressource minière</title>
<path fill="none" stroke="darkgrey" stroke-width="4.12" d="M561.75,-256.47C542.66,-244.99 512.92,-227.11 492.78,-214.99"/>
</g>
<!-- pollution&#45;&#45;dégradation environnementale -->
<g id="edge53" class="edge">
<title>pollution&#45;&#45;dégradation environnementale</title>
<path fill="none" stroke="darkgrey" stroke-width="10" d="M575.14,-288.57C574.98,-289.22 574.82,-289.87 574.66,-290.53"/>
</g>
<!-- pollution&#45;&#45;société néo&#45;calédonienne -->
<g id="edge55" class="edge">
<title>pollution&#45;&#45;société néo&#45;calédonienne</title>
<path fill="none" stroke="darkgrey" stroke-width="2.66" d="M576.66,-246.08C570.19,-207.39 556.78,-127.08 551.31,-94.35"/>
</g>
<!-- pollution&#45;&#45;alternative au développement -->
<g id="edge56" class="edge">
<title>pollution&#45;&#45;alternative au développement</title>
<path fill="none" stroke="darkgrey" stroke-width="4.11" d="M584.49,-246.02C587.68,-229.81 592.06,-207.57 595.39,-190.62"/>
</g>
<!-- pollution&#45;&#45;économie -->
<g id="edge58" class="edge">
<title>pollution&#45;&#45;économie</title>
<path fill="none" stroke="darkgrey" stroke-width="3.89" d="M558.9,-264.95C545.53,-263.28 528.64,-261.18 516.77,-259.71"/>
</g>
<!-- pollution&#45;&#45;amélioration environnementale -->
<g id="edge59" class="edge">
<title>pollution&#45;&#45;amélioration environnementale</title>
<path fill="none" stroke="darkgrey" stroke-width="1.26" d="M602.06,-267.96C643.89,-268.65 734.05,-270.14 765.74,-270.67"/>
</g>
<!-- pollution&#45;&#45;nickel -->
<g id="edge57" class="edge">
<title>pollution&#45;&#45;nickel</title>
<path fill="none" stroke="darkgrey" stroke-width="1.51" d="M587.51,-287.91C601.11,-326.01 629.69,-406.01 636.2,-424.23"/>
</g>
<!-- pollution&#45;&#45;essor technologique -->
<g id="edge60" class="edge">
<title>pollution&#45;&#45;essor technologique</title>
<path fill="none" stroke="darkgrey" stroke-width="2.23" d="M597.93,-279.88C631.13,-302.94 702,-352.16 730.42,-371.9"/>
</g>
<!-- pollution&#45;&#45;nature -->
<g id="edge54" class="edge">
<title>pollution&#45;&#45;nature</title>
<path fill="none" stroke="darkgrey" stroke-width="2.13" d="M558.65,-263.96C500.25,-254.12 341.26,-227.34 305.99,-221.39"/>
</g>
<!-- ressource minière&#45;&#45;dégradation environnementale -->
<g id="edge61" class="edge">
<title>ressource minière&#45;&#45;dégradation environnementale</title>
<path fill="none" stroke="darkgrey" stroke-width="6.27" d="M486.43,-221.87C502.04,-242.22 526.47,-274.04 544.16,-297.09"/>
</g>
<!-- ressource minière&#45;&#45;alternative au développement -->
<g id="edge63" class="edge">
<title>ressource minière&#45;&#45;alternative au développement</title>
<path fill="none" stroke="darkgrey" stroke-width="4.2" d="M495.46,-195.2C518.54,-188.74 553.05,-179.08 576.09,-172.62"/>
</g>
<!-- ressource minière&#45;&#45;économie -->
<g id="edge64" class="edge">
<title>ressource minière&#45;&#45;économie</title>
<path fill="none" stroke="darkgrey" stroke-width="3.19" d="M483.41,-224.09C487.33,-231.16 491.53,-238.77 494.97,-244.97"/>
</g>
<!-- ressource minière&#45;&#45;amélioration environnementale -->
<g id="edge65" class="edge">
<title>ressource minière&#45;&#45;amélioration environnementale</title>
<path fill="none" stroke="darkgrey" stroke-width="1.18" d="M495.69,-207.52C558.35,-221.62 722.5,-258.58 766.21,-268.42"/>
</g>
<!-- ressource minière&#45;&#45;essor technologique -->
<g id="edge66" class="edge">
<title>ressource minière&#45;&#45;essor technologique</title>
<path fill="none" stroke="darkgrey" stroke-width="3.66" d="M492.48,-215.99C546.59,-251.55 688.06,-344.51 730.42,-372.35"/>
</g>
<!-- ressource minière&#45;&#45;nouvelle&#45;calédonie -->
<g id="edge62" class="edge">
<title>ressource minière&#45;&#45;nouvelle&#45;calédonie</title>
<path fill="none" stroke="darkgrey" stroke-width="1.04" d="M460.96,-178.84C440.12,-131.59 393.92,-26.85 385.09,-6.84"/>
</g>
<!-- dégradation environnementale&#45;&#45;société néo&#45;calédonienne -->
<g id="edge68" class="edge">
<title>dégradation environnementale&#45;&#45;société néo&#45;calédonienne</title>
<path fill="none" stroke="darkgrey" stroke-width="2.21" d="M563.58,-289.69C559.74,-234.78 552.58,-132.47 549.94,-94.6"/>
</g>
<!-- dégradation environnementale&#45;&#45;alternative au développement -->
<g id="edge69" class="edge">
<title>dégradation environnementale&#45;&#45;alternative au développement</title>
<path fill="none" stroke="darkgrey" stroke-width="4.02" d="M573.67,-290.21C580.16,-259.86 589.33,-216.97 595.03,-190.32"/>
</g>
<!-- dégradation environnementale&#45;&#45;économie -->
<g id="edge71" class="edge">
<title>dégradation environnementale&#45;&#45;économie</title>
<path fill="none" stroke="darkgrey" stroke-width="5.99" d="M541.17,-299.27C531.07,-288.56 519.97,-276.81 512.2,-268.57"/>
</g>
<!-- dégradation environnementale&#45;&#45;amélioration environnementale -->
<g id="edge72" class="edge">
<title>dégradation environnementale&#45;&#45;amélioration environnementale</title>
<path fill="none" stroke="darkgrey" stroke-width="2.69" d="M601.4,-316.5C650.19,-303.82 735.65,-281.61 765.98,-273.73"/>
</g>
<!-- dégradation environnementale&#45;&#45;nickel -->
<g id="edge70" class="edge">
<title>dégradation environnementale&#45;&#45;nickel</title>
<path fill="none" stroke="darkgrey" stroke-width="1.82" d="M586.76,-355.27C604.56,-380.76 628.47,-415 635.51,-425.08"/>
</g>
<!-- dégradation environnementale&#45;&#45;essor technologique -->
<g id="edge73" class="edge">
<title>dégradation environnementale&#45;&#45;essor technologique</title>
<path fill="none" stroke="darkgrey" stroke-width="3.08" d="M600.54,-336.34C639.46,-348.4 700.97,-367.45 728.47,-375.97"/>
</g>
<!-- dégradation environnementale&#45;&#45;nature -->
<g id="edge67" class="edge">
<title>dégradation environnementale&#45;&#45;nature</title>
<path fill="none" stroke="darkgrey" stroke-width="3.02" d="M532.53,-312.42C469.48,-287.53 336.86,-235.17 305.67,-222.85"/>
</g>
<!-- société néo&#45;calédonienne&#45;&#45;alternative au développement -->
<g id="edge76" class="edge">
<title>société néo&#45;calédonienne&#45;&#45;alternative au développement</title>
<path fill="none" stroke="darkgrey" stroke-width="2.53" d="M556.49,-92.67C564.58,-106.2 577.55,-127.88 587.27,-144.14"/>
</g>
<!-- société néo&#45;calédonienne&#45;&#45;économie -->
<g id="edge78" class="edge">
<title>société néo&#45;calédonienne&#45;&#45;économie</title>
<path fill="none" stroke="darkgrey" stroke-width="2.28" d="M545.17,-94.26C536.4,-127.57 514.67,-210.19 505.88,-243.56"/>
</g>
<!-- société néo&#45;calédonienne&#45;&#45;nickel -->
<g id="edge77" class="edge">
<title>société néo&#45;calédonienne&#45;&#45;nickel</title>
<path fill="none" stroke="darkgrey" stroke-width="1.57" d="M552.5,-94.08C567.98,-154.86 628.68,-393.18 636.67,-424.56"/>
</g>
<!-- société néo&#45;calédonienne&#45;&#45;nouvelle&#45;calédonie -->
<g id="edge75" class="edge">
<title>société néo&#45;calédonienne&#45;&#45;nouvelle&#45;calédonie</title>
<path fill="none" stroke="darkgrey" stroke-width="1.13" d="M535.67,-73.88C500.43,-57.56 405.78,-13.76 386.91,-5.03"/>
</g>
<!-- alternative au développement&#45;&#45;économie -->
<g id="edge82" class="edge">
<title>alternative au développement&#45;&#45;économie</title>
<path fill="none" stroke="darkgrey" stroke-width="4.97" d="M581.8,-183.17C561.48,-202.22 529.49,-232.22 512.9,-247.77"/>
</g>
<!-- alternative au développement&#45;&#45;amélioration environnementale -->
<g id="edge83" class="edge">
<title>alternative au développement&#45;&#45;amélioration environnementale</title>
<path fill="none" stroke="darkgrey" stroke-width="3.57" d="M621.94,-178.73C660.66,-201.73 740.22,-248.99 767.57,-265.23"/>
</g>
<!-- alternative au développement&#45;&#45;nickel -->
<g id="edge81" class="edge">
<title>alternative au développement&#45;&#45;nickel</title>
<path fill="none" stroke="darkgrey" stroke-width="1.44" d="M603.84,-190.99C612.37,-250.96 633.46,-399.31 637.02,-424.36"/>
</g>
<!-- alternative au développement&#45;&#45;essor technologique -->
<g id="edge84" class="edge">
<title>alternative au développement&#45;&#45;essor technologique</title>
<path fill="none" stroke="darkgrey" stroke-width="3.6" d="M614.17,-186.81C643.54,-231.08 711.14,-332.95 734.48,-368.13"/>
</g>
<!-- économie&#45;&#45;amélioration environnementale -->
<g id="edge85" class="edge">
<title>économie&#45;&#45;amélioration environnementale</title>
<path fill="none" stroke="darkgrey" stroke-width="1.2" d="M516.9,-258.58C565.97,-260.9 722.82,-268.3 765.96,-270.33"/>
</g>
<!-- amélioration environnementale&#45;&#45;essor technologique -->
<g id="edge86" class="edge">
<title>amélioration environnementale&#45;&#45;essor technologique</title>
<path fill="none" stroke="darkgrey" stroke-width="1.56" d="M773.74,-281.35C767.5,-301.16 754.01,-344.03 747.01,-366.29"/>
</g>
<!-- exploitation minière&#45;&#45;ressource minière -->
<g id="edge24" class="edge">
<title>exploitation minière&#45;&#45;ressource minière</title>
<path fill="none" stroke="darkgrey" d="M120.07,-311.42C133.23,-307.32 370.29,-233.44 447.26,-209.45"/>
</g>
<!-- relation politique&#45;&#45;économie -->
<g id="edge45" class="edge">
<title>relation politique&#45;&#45;économie</title>
<path fill="none" stroke="darkgrey" stroke-width="1.17" d="M414.26,-483.44C423.8,-458.96 479.28,-316.51 496.81,-271.5"/>
</g>
<!-- nouvelle&#45;calédonie&#45;&#45;alternative au développement -->
<g id="edge79" class="edge">
<title>nouvelle&#45;calédonie&#45;&#45;alternative au développement</title>
<path fill="none" stroke="darkgrey" stroke-width="1.71" d="M386.68,-5.8C407.66,-21.52 530.83,-113.82 580,-150.67"/>
</g>
<!-- nouvelle&#45;calédonie&#45;&#45;économie -->
<g id="edge80" class="edge">
<title>nouvelle&#45;calédonie&#45;&#45;économie</title>
<path fill="none" stroke="darkgrey" stroke-width="1.19" d="M385.12,-6.72C396.8,-31.79 473.43,-196.3 495.92,-244.58"/>
</g>
<!-- nature&#45;&#45;alternative au développement -->
<g id="edge74" class="edge">
<title>nature&#45;&#45;alternative au développement</title>
<path fill="none" stroke="darkgrey" stroke-width="1.06" d="M306.14,-218.92C342.95,-212.28 511.75,-181.83 575.65,-170.3"/>
</g>
<!-- avenir sans nickel -->
<g id="node1" class="node">
<title>avenir sans nickel</title>
<ellipse fill="#f78410" stroke="white" stroke-width="0" cx="678.5" cy="-84.99" rx="25" ry="25"/>
<text text-anchor="middle" x="548.5" y="-117.43" font-family="Helvetica,sans-Serif" font-size="23.20" fill="#4d4d4d">avenir sans nickel</text>
</g>
<!-- travail -->
<g id="node2" class="node">
<title>travail</title>
<ellipse fill="#ae305c" stroke="white" stroke-width="0" cx="690.31" cy="-202.69" rx="18" ry="18"/>
<text text-anchor="middle" x="640.81" y="-226.69" font-family="Helvetica,sans-Serif" font-size="20.00" fill="#4d4d4d">travail</text>
</g>
<!-- politique -->
<g id="node3" class="node">
<title>politique</title>
<ellipse fill="#bf3952" stroke="white" stroke-width="0" cx="527.51" cy="-172.57" rx="18" ry="18"/>
<text text-anchor="middle" x="466.51" y="-160.57" font-family="Helvetica,sans-Serif" font-size="20.00" fill="#4d4d4d">politique</text>
</g>
<!-- secteur nickel -->
<g id="node4" class="node">
<title>secteur nickel</title>
<ellipse fill="#bd3853" stroke="white" stroke-width="0" cx="679.66" cy="-284.75" rx="18" ry="18"/>
<text text-anchor="middle" x="731.16" y="-308.75" font-family="Helvetica,sans-Serif" font-size="20.00" fill="#4d4d4d">secteur nickel</text>
</g>
<!-- avenir avec nickel -->
<g id="node5" class="node">
<title>avenir avec nickel</title>
<ellipse fill="#3e0966" stroke="white" stroke-width="0" cx="764.52" cy="-179.21" rx="7" ry="7"/>
<text text-anchor="middle" x="825.52" y="-191.05" font-family="Helvetica,sans-Serif" font-size="15.20" fill="#4d4d4d">avenir avec nickel</text>
</g>
<!-- pollution -->
<g id="node6" class="node">
<title>pollution</title>
<ellipse fill="#e55c30" stroke="white" stroke-width="0" cx="580.25" cy="-267.6" rx="21.5" ry="21.5"/>
<text text-anchor="middle" x="562.12" y="-228.82" font-family="Helvetica,sans-Serif" font-size="21.60" fill="#4d4d4d">pollution</text>
</g>
<!-- ressource minière -->
<g id="node7" class="node">
<title>ressource minière</title>
<ellipse fill="#ef6c23" stroke="white" stroke-width="0" cx="471.18" cy="-202" rx="25" ry="25"/>
<text text-anchor="middle" x="341.68" y="-184.44" font-family="Helvetica,sans-Serif" font-size="23.20" fill="#4d4d4d">ressource minière</text>
</g>
<!-- dégradation environnementale -->
<g id="node8" class="node">
<title>dégradation environnementale</title>
<ellipse fill="#fcffa4" stroke="white" stroke-width="0" cx="566.09" cy="-325.67" rx="36" ry="36"/>
<text text-anchor="middle" x="312.09" y="-370.27" font-family="Helvetica,sans-Serif" font-size="28.00" fill="#4d4d4d">dégradation environnementale</text>
</g>
<!-- société néo&#45;calédonienne -->
<g id="node9" class="node">
<title>société néo&#45;calédonienne</title>
<ellipse fill="#7d1e6d" stroke="white" stroke-width="0" cx="548.92" cy="-80.01" rx="14.5" ry="14.5"/>
<text text-anchor="middle" x="415.42" y="-70.79" font-family="Helvetica,sans-Serif" font-size="18.40" fill="#4d4d4d">société néo&#45;calédonienne</text>
</g>
<!-- alternative au développement -->
<g id="node10" class="node">
<title>alternative au développement</title>
<ellipse fill="#f78212" stroke="white" stroke-width="0" cx="600.26" cy="-165.86" rx="25" ry="25"/>
<text text-anchor="middle" x="801.76" y="-148.3" font-family="Helvetica,sans-Serif" font-size="23.20" fill="#4d4d4d">alternative au développement</text>
</g>
<!-- économie -->
<g id="node11" class="node">
<title>économie</title>
<ellipse fill="#a02a63" stroke="white" stroke-width="0" cx="502.12" cy="-257.88" rx="14.5" ry="14.5"/>
<text text-anchor="middle" x="442.12" y="-277.66" font-family="Helvetica,sans-Serif" font-size="18.40" fill="#4d4d4d">économie</text>
</g>
<!-- amélioration environnementale -->
<g id="node12" class="node">
<title>amélioration environnementale</title>
<ellipse fill="#64156e" stroke="white" stroke-width="0" cx="777.04" cy="-270.85" rx="11" ry="11"/>
<text text-anchor="middle" x="898.54" y="-286.41" font-family="Helvetica,sans-Serif" font-size="16.80" fill="#4d4d4d">amélioration environnementale</text>
</g>
<!-- nickel -->
<g id="node13" class="node">
<title>nickel</title>
<ellipse fill="#150b37" stroke="white" stroke-width="0" cx="637.54" cy="-427.98" rx="3.5" ry="3.5"/>
<text text-anchor="middle" x="614.04" y="-435.6" font-family="Helvetica,sans-Serif" font-size="13.60" fill="#4d4d4d">nickel</text>
</g>
<!-- essor technologique -->
<g id="node14" class="node">
<title>essor technologique</title>
<ellipse fill="#9d2964" stroke="white" stroke-width="0" cx="742.58" cy="-380.34" rx="14.5" ry="14.5"/>
<text text-anchor="middle" x="633.58" y="-400.12" font-family="Helvetica,sans-Serif" font-size="18.40" fill="#4d4d4d">essor technologique</text>
</g>
<!-- exploitation minière -->
<g id="node15" class="node">
<title>exploitation minière</title>
<ellipse fill="#000004" stroke="white" stroke-width="0" cx="119.5" cy="-311.6" rx="0.5" ry="0.5"/>
<text text-anchor="middle" x="59.5" y="-315.5" font-family="Helvetica,sans-Serif" font-size="12.00" fill="#4d4d4d">exploitation minière</text>
</g>
<!-- relation politique -->
<g id="node16" class="node">
<title>relation politique</title>
<ellipse fill="#040312" stroke="white" stroke-width="0" cx="412.86" cy="-487.04" rx="3.5" ry="3.5"/>
<text text-anchor="middle" x="351.86" y="-494.66" font-family="Helvetica,sans-Serif" font-size="13.60" fill="#4d4d4d">relation politique</text>
</g>
<!-- nouvelle&#45;calédonie -->
<g id="node17" class="node">
<title>nouvelle&#45;calédonie</title>
<ellipse fill="#180c3c" stroke="white" stroke-width="0" cx="383.62" cy="-3.5" rx="3.5" ry="3.5"/>
<text text-anchor="middle" x="316.12" y="-11.12" font-family="Helvetica,sans-Serif" font-size="13.60" fill="#4d4d4d">nouvelle&#45;calédonie</text>
</g>
<!-- nature -->
<g id="node18" class="node">
<title>nature</title>
<ellipse fill="#340a5f" stroke="white" stroke-width="0" cx="298.99" cy="-220.21" rx="7" ry="7"/>
<text text-anchor="middle" x="266.99" y="-232.05" font-family="Helvetica,sans-Serif" font-size="15.20" fill="#4d4d4d">nature</text>
</g>
</g>
</svg>
