<?xml version="1.0" encoding="UTF-8" standalone="no"?>
<!DOCTYPE svg PUBLIC "-//W3C//DTD SVG 1.1//EN"
 "http://www.w3.org/Graphics/SVG/1.1/DTD/svg11.dtd">
<!-- Generated by graphviz version 2.43.0 (0)
 -->
<!-- Pages: 1 -->
<svg width="859pt" height="597pt"
 viewBox="0.00 0.00 859.39 597.04" xmlns="http://www.w3.org/2000/svg" xmlns:xlink="http://www.w3.org/1999/xlink">
<g id="graph0" class="graph" transform="scale(1 1) rotate(0) translate(4 593.04)">
<polygon fill="white" stroke="transparent" points="-4,4 -4,-593.04 855.39,-593.04 855.39,4 -4,4"/>
<!-- pollution&#45;&#45;emploi -->
<g id="edge1" class="edge">
<title>pollution&#45;&#45;emploi</title>
<path fill="none" stroke="darkgrey" stroke-width="6.48" d="M405.68,-347.32C415.3,-347.96 426.58,-348.71 436.18,-349.35"/>
</g>
<!-- pollution&#45;&#45;économie du pays -->
<g id="edge2" class="edge">
<title>pollution&#45;&#45;économie du pays</title>
<path fill="none" stroke="darkgrey" stroke-width="3.61" d="M397.86,-329.08C418.63,-304.05 457.16,-257.64 474.86,-236.31"/>
</g>
<!-- pollution&#45;&#45;richesse -->
<g id="edge3" class="edge">
<title>pollution&#45;&#45;richesse</title>
<path fill="none" stroke="darkgrey" stroke-width="1.15" d="M384.8,-324.37C385.94,-296.8 387.86,-250.44 388.59,-232.74"/>
</g>
<!-- pollution&#45;&#45;impact environnemental -->
<g id="edge4" class="edge">
<title>pollution&#45;&#45;impact environnemental</title>
<path fill="none" stroke="darkgrey" stroke-width="10" d="M402.93,-335.12C415.37,-328.08 431.92,-318.71 446.31,-310.57"/>
</g>
<!-- pollution&#45;&#45;conflit -->
<g id="edge5" class="edge">
<title>pollution&#45;&#45;conflit</title>
<path fill="none" stroke="darkgrey" stroke-width="1.58" d="M372.5,-327.48C354.03,-297.73 318.52,-240.49 306.85,-221.69"/>
</g>
<!-- pollution&#45;&#45;revenu -->
<g id="edge6" class="edge">
<title>pollution&#45;&#45;revenu</title>
<path fill="none" stroke="darkgrey" stroke-width="1.34" d="M364.37,-336.63C348.36,-329.05 326.67,-318.78 316,-313.74"/>
</g>
<!-- pollution&#45;&#45;nickel -->
<g id="edge7" class="edge">
<title>pollution&#45;&#45;nickel</title>
<path fill="none" stroke="darkgrey" stroke-width="3.04" d="M402.97,-356.21C424.35,-367.81 458.84,-386.51 480.24,-398.12"/>
</g>
<!-- pollution&#45;&#45;exploitation -->
<g id="edge8" class="edge">
<title>pollution&#45;&#45;exploitation</title>
<path fill="none" stroke="darkgrey" stroke-width="1.35" d="M386.69,-367.57C389.06,-386.07 392.37,-411.92 394.23,-426.42"/>
</g>
<!-- pollution&#45;&#45;montagne -->
<g id="edge9" class="edge">
<title>pollution&#45;&#45;montagne</title>
<path fill="none" stroke="darkgrey" stroke-width="1.71" d="M391.68,-366.12C408.27,-409.37 446.49,-508.99 456.63,-535.42"/>
</g>
<!-- pollution&#45;&#45;biodiversité -->
<g id="edge10" class="edge">
<title>pollution&#45;&#45;biodiversité</title>
<path fill="none" stroke="darkgrey" stroke-width="1.07" d="M362.31,-342.45C298.81,-332.4 115.44,-303.36 87.18,-298.88"/>
</g>
<!-- pollution&#45;&#45;développement -->
<g id="edge11" class="edge">
<title>pollution&#45;&#45;développement</title>
<path fill="none" stroke="darkgrey" stroke-width="1.7" d="M389.1,-324.7C400.19,-279.42 425.61,-175.66 430.66,-155.05"/>
</g>
<!-- pollution&#45;&#45;engin -->
<g id="edge12" class="edge">
<title>pollution&#45;&#45;engin</title>
<path fill="none" stroke="darkgrey" stroke-width="1.86" d="M396.12,-363.84C413.52,-389.44 444.8,-435.46 458.08,-455"/>
</g>
<!-- pollution&#45;&#45;minerai -->
<g id="edge13" class="edge">
<title>pollution&#45;&#45;minerai</title>
<path fill="none" stroke="darkgrey" stroke-width="1.14" d="M402.58,-357.05C434.97,-376.45 501.01,-415.99 531.09,-434"/>
</g>
<!-- pollution&#45;&#45;terre -->
<g id="edge14" class="edge">
<title>pollution&#45;&#45;terre</title>
<path fill="none" stroke="darkgrey" stroke-width="1.41" d="M399.34,-361.33C430.41,-392.43 499.51,-461.63 522.84,-484.99"/>
</g>
<!-- pollution&#45;&#45;usine -->
<g id="edge15" class="edge">
<title>pollution&#45;&#45;usine</title>
<path fill="none" stroke="darkgrey" stroke-width="1.4" d="M405.45,-347.38C450.18,-350.5 551.76,-357.59 585.35,-359.93"/>
</g>
<!-- emploi&#45;&#45;économie du pays -->
<g id="edge16" class="edge">
<title>emploi&#45;&#45;économie du pays</title>
<path fill="none" stroke="darkgrey" stroke-width="5.44" d="M462.21,-329.74C467.59,-304.16 476.52,-261.66 481.17,-239.5"/>
</g>
<!-- emploi&#45;&#45;richesse -->
<g id="edge17" class="edge">
<title>emploi&#45;&#45;richesse</title>
<path fill="none" stroke="darkgrey" stroke-width="2.18" d="M447.33,-331.77C431.51,-303.04 402.32,-249.99 392.34,-231.86"/>
</g>
<!-- emploi&#45;&#45;impact environnemental -->
<g id="edge18" class="edge">
<title>emploi&#45;&#45;impact environnemental</title>
<path fill="none" stroke="darkgrey" stroke-width="6.62" d="M464.93,-330.15C465.29,-329.1 465.66,-328.04 466.03,-326.97"/>
</g>
<!-- emploi&#45;&#45;conflit -->
<g id="edge19" class="edge">
<title>emploi&#45;&#45;conflit</title>
<path fill="none" stroke="darkgrey" stroke-width="2.65" d="M441.52,-336.57C407.38,-306.73 329.65,-238.8 308.46,-220.28"/>
</g>
<!-- emploi&#45;&#45;revenu -->
<g id="edge20" class="edge">
<title>emploi&#45;&#45;revenu</title>
<path fill="none" stroke="darkgrey" stroke-width="2.68" d="M436.87,-345.12C403.02,-335.97 337.91,-318.35 316.53,-312.57"/>
</g>
<!-- emploi&#45;&#45;nickel -->
<g id="edge21" class="edge">
<title>emploi&#45;&#45;nickel</title>
<path fill="none" stroke="darkgrey" stroke-width="4.36" d="M470.48,-368.4C475.63,-375.56 481.57,-383.81 486.72,-390.96"/>
</g>
<!-- emploi&#45;&#45;exploitation -->
<g id="edge22" class="edge">
<title>emploi&#45;&#45;exploitation</title>
<path fill="none" stroke="darkgrey" stroke-width="1.68" d="M445.21,-368.32C432.16,-386.51 412.26,-414.25 402.1,-428.41"/>
</g>
<!-- emploi&#45;&#45;engin -->
<g id="edge23" class="edge">
<title>emploi&#45;&#45;engin</title>
<path fill="none" stroke="darkgrey" stroke-width="1.2" d="M459.04,-372.38C460.42,-396.41 462.6,-434.31 463.67,-453"/>
</g>
<!-- emploi&#45;&#45;minerai -->
<g id="edge24" class="edge">
<title>emploi&#45;&#45;minerai</title>
<path fill="none" stroke="darkgrey" stroke-width="1.21" d="M472.87,-366.48C490.1,-384.42 517.99,-413.47 534.09,-430.24"/>
</g>
<!-- emploi&#45;&#45;terre -->
<g id="edge25" class="edge">
<title>emploi&#45;&#45;terre</title>
<path fill="none" stroke="darkgrey" stroke-width="1.4" d="M467.63,-369.95C483.33,-400.55 513.53,-459.39 525.57,-482.86"/>
</g>
<!-- emploi&#45;&#45;usine -->
<g id="edge26" class="edge">
<title>emploi&#45;&#45;usine</title>
<path fill="none" stroke="darkgrey" stroke-width="1.23" d="M479.45,-352.33C509.44,-354.48 562.51,-358.28 585.38,-359.91"/>
</g>
<!-- emploi&#45;&#45;opérateur minier -->
<g id="edge27" class="edge">
<title>emploi&#45;&#45;opérateur minier</title>
<path fill="none" stroke="darkgrey" stroke-width="1.18" d="M479.39,-352.69C525.67,-356.76 633.02,-366.22 667.78,-369.28"/>
</g>
<!-- emploi&#45;&#45;vision positive de la ressource -->
<g id="edge28" class="edge">
<title>emploi&#45;&#45;vision positive de la ressource</title>
<path fill="none" stroke="darkgrey" stroke-width="1.3" d="M447.08,-369.58C427.23,-404.41 385.89,-476.93 376.47,-493.45"/>
</g>
<!-- économie du pays&#45;&#45;richesse -->
<g id="edge29" class="edge">
<title>économie du pays&#45;&#45;richesse</title>
<path fill="none" stroke="darkgrey" stroke-width="1.05" d="M469.31,-225.15C448.58,-225.26 411.8,-225.46 396.21,-225.55"/>
</g>
<!-- économie du pays&#45;&#45;impact environnemental -->
<g id="edge30" class="edge">
<title>économie du pays&#45;&#45;impact environnemental</title>
<path fill="none" stroke="darkgrey" stroke-width="6.33" d="M482.83,-239.74C482.36,-244.79 481.8,-250.69 481.24,-256.69"/>
</g>
<!-- économie du pays&#45;&#45;conflit -->
<g id="edge31" class="edge">
<title>économie du pays&#45;&#45;conflit</title>
<path fill="none" stroke="darkgrey" stroke-width="1.6" d="M469.68,-224.3C432.91,-222.37 337.1,-217.33 310.17,-215.92"/>
</g>
<!-- économie du pays&#45;&#45;nickel -->
<g id="edge32" class="edge">
<title>économie du pays&#45;&#45;nickel</title>
<path fill="none" stroke="darkgrey" stroke-width="1.91" d="M485.42,-239.76C488.07,-271.98 494.42,-348.94 497.54,-386.75"/>
</g>
<!-- économie du pays&#45;&#45;usine -->
<g id="edge33" class="edge">
<title>économie du pays&#45;&#45;usine</title>
<path fill="none" stroke="darkgrey" stroke-width="1.09" d="M493.77,-236.63C515.8,-263.28 569.76,-328.53 589.22,-352.06"/>
</g>
<!-- richesse&#45;&#45;impact environnemental -->
<g id="edge34" class="edge">
<title>richesse&#45;&#45;impact environnemental</title>
<path fill="none" stroke="darkgrey" stroke-width="2.15" d="M394.72,-229.99C405.55,-238.16 429.4,-256.15 448.8,-270.78"/>
</g>
<!-- richesse&#45;&#45;nickel -->
<g id="edge35" class="edge">
<title>richesse&#45;&#45;nickel</title>
<path fill="none" stroke="darkgrey" stroke-width="1.27" d="M392.56,-231.67C407.49,-256.4 463.99,-349.96 488.2,-390.05"/>
</g>
<!-- impact environnemental&#45;&#45;conflit -->
<g id="edge36" class="edge">
<title>impact environnemental&#45;&#45;conflit</title>
<path fill="none" stroke="darkgrey" stroke-width="1.89" d="M444.58,-278.01C401.97,-259.21 331.1,-227.93 309.49,-218.39"/>
</g>
<!-- impact environnemental&#45;&#45;revenu -->
<g id="edge37" class="edge">
<title>impact environnemental&#45;&#45;revenu</title>
<path fill="none" stroke="darkgrey" stroke-width="1.58" d="M441.76,-296.56C400.99,-300.92 337.6,-307.68 316.58,-309.93"/>
</g>
<!-- impact environnemental&#45;&#45;nickel -->
<g id="edge38" class="edge">
<title>impact environnemental&#45;&#45;nickel</title>
<path fill="none" stroke="darkgrey" stroke-width="4.12" d="M484.49,-328.39C488.06,-347.65 492.34,-370.78 495.39,-387.22"/>
</g>
<!-- impact environnemental&#45;&#45;exploitation -->
<g id="edge40" class="edge">
<title>impact environnemental&#45;&#45;exploitation</title>
<path fill="none" stroke="darkgrey" stroke-width="3.8" d="M460.03,-324.11C441.32,-357.03 413.03,-406.81 401.17,-427.67"/>
</g>
<!-- impact environnemental&#45;&#45;montagne -->
<g id="edge41" class="edge">
<title>impact environnemental&#45;&#45;montagne</title>
<path fill="none" stroke="darkgrey" stroke-width="2.15" d="M475.17,-328.69C470.67,-388.54 461.92,-504.97 459.67,-534.84"/>
</g>
<!-- impact environnemental&#45;&#45;développement -->
<g id="edge42" class="edge">
<title>impact environnemental&#45;&#45;développement</title>
<path fill="none" stroke="darkgrey" stroke-width="1.84" d="M466.54,-258.15C454.75,-222.22 437.38,-169.24 432.72,-155.06"/>
</g>
<!-- impact environnemental&#45;&#45;engin -->
<g id="edge43" class="edge">
<title>impact environnemental&#45;&#45;engin</title>
<path fill="none" stroke="darkgrey" stroke-width="2.55" d="M475.03,-328.65C471.93,-367.93 467.13,-428.55 465.18,-453.2"/>
</g>
<!-- impact environnemental&#45;&#45;minerai -->
<g id="edge44" class="edge">
<title>impact environnemental&#45;&#45;minerai</title>
<path fill="none" stroke="darkgrey" stroke-width="1.72" d="M492.97,-325.76C507.2,-356.93 527.96,-402.39 539.03,-426.63"/>
</g>
<!-- impact environnemental&#45;&#45;terre -->
<g id="edge45" class="edge">
<title>impact environnemental&#45;&#45;terre</title>
<path fill="none" stroke="darkgrey" stroke-width="1.52" d="M487.08,-327.58C499.32,-373.95 520.29,-453.4 527.88,-482.12"/>
</g>
<!-- impact environnemental&#45;&#45;usine -->
<g id="edge46" class="edge">
<title>impact environnemental&#45;&#45;usine</title>
<path fill="none" stroke="darkgrey" stroke-width="1.09" d="M509.32,-310.75C535.1,-325.54 569.96,-345.55 586.66,-355.13"/>
</g>
<!-- impact environnemental&#45;&#45;vision positive de la ressource -->
<g id="edge47" class="edge">
<title>impact environnemental&#45;&#45;vision positive de la ressource</title>
<path fill="none" stroke="darkgrey" stroke-width="1.69" d="M461.5,-325.06C435.32,-376.77 385.98,-474.23 376.23,-493.49"/>
</g>
<!-- impact environnemental&#45;&#45;milieu -->
<g id="edge39" class="edge">
<title>impact environnemental&#45;&#45;milieu</title>
<path fill="none" stroke="darkgrey" stroke-width="1.49" d="M500,-264.26C544.05,-207.63 639.87,-84.44 656.02,-63.68"/>
</g>
<!-- impact environnemental&#45;&#45;danger -->
<g id="edge48" class="edge">
<title>impact environnemental&#45;&#45;danger</title>
<path fill="none" stroke="darkgrey" stroke-width="1.18" d="M482.72,-256.88C492.94,-181.29 515.89,-11.55 517.31,-1.01"/>
</g>
<!-- revenu&#45;&#45;nickel -->
<g id="edge49" class="edge">
<title>revenu&#45;&#45;nickel</title>
<path fill="none" stroke="darkgrey" stroke-width="1.89" d="M315.85,-313.93C341.51,-327.15 438.6,-377.18 480.21,-398.62"/>
</g>
<!-- nickel&#45;&#45;exploitation -->
<g id="edge50" class="edge">
<title>nickel&#45;&#45;exploitation</title>
<path fill="none" stroke="darkgrey" stroke-width="2.03" d="M478.34,-414.33C456.57,-420.41 423.37,-429.67 406.41,-434.41"/>
</g>
<!-- nickel&#45;&#45;montagne -->
<g id="edge51" class="edge">
<title>nickel&#45;&#45;montagne</title>
<path fill="none" stroke="darkgrey" stroke-width="1.37" d="M493.05,-429.33C483.82,-459.98 467.06,-515.65 461.21,-535.06"/>
</g>
<!-- nickel&#45;&#45;engin -->
<g id="edge53" class="edge">
<title>nickel&#45;&#45;engin</title>
<path fill="none" stroke="darkgrey" stroke-width="2.71" d="M487.86,-426.71C481.96,-436.1 475.01,-447.15 470.2,-454.81"/>
</g>
<!-- nickel&#45;&#45;minerai -->
<g id="edge54" class="edge">
<title>nickel&#45;&#45;minerai</title>
<path fill="none" stroke="darkgrey" stroke-width="3.81" d="M516.68,-421.25C521.74,-424.98 527.23,-429.01 532.1,-432.6"/>
</g>
<!-- nickel&#45;&#45;terre -->
<g id="edge55" class="edge">
<title>nickel&#45;&#45;terre</title>
<path fill="none" stroke="darkgrey" stroke-width="2.4" d="M506.92,-428.9C513.17,-445.68 521.76,-468.79 526.73,-482.15"/>
</g>
<!-- nickel&#45;&#45;usine -->
<g id="edge56" class="edge">
<title>nickel&#45;&#45;usine</title>
<path fill="none" stroke="darkgrey" stroke-width="3.82" d="M518.96,-398.8C539.34,-388.77 570.41,-373.48 586.28,-365.67"/>
</g>
<!-- nickel&#45;&#45;opérateur minier -->
<g id="edge57" class="edge">
<title>nickel&#45;&#45;opérateur minier</title>
<path fill="none" stroke="darkgrey" stroke-width="2.86" d="M520.62,-403.93C559.08,-395.75 638.8,-378.78 667.91,-372.59"/>
</g>
<!-- nickel&#45;&#45;vision positive de la ressource -->
<g id="edge58" class="edge">
<title>nickel&#45;&#45;vision positive de la ressource</title>
<path fill="none" stroke="darkgrey" stroke-width="1.27" d="M481.71,-420.94C451.61,-442.26 392.13,-484.39 377.73,-494.58"/>
</g>
<!-- nickel&#45;&#45;main d’oeuvre -->
<g id="edge52" class="edge">
<title>nickel&#45;&#45;main d’oeuvre</title>
<path fill="none" stroke="darkgrey" stroke-width="1.02" d="M520.33,-414.13C577.42,-429.53 732.84,-471.44 757.95,-478.21"/>
</g>
<!-- nickel&#45;&#45;commerce -->
<g id="edge59" class="edge">
<title>nickel&#45;&#45;commerce</title>
<path fill="none" stroke="darkgrey" d="M482.15,-421.82C439.33,-455.09 329.42,-540.51 303.43,-560.71"/>
</g>
<!-- nickel&#45;&#45;ressource non&#45;renouvelable -->
<g id="edge60" class="edge">
<title>nickel&#45;&#45;ressource non&#45;renouvelable</title>
<path fill="none" stroke="darkgrey" stroke-width="1.82" d="M516.53,-421.69C553.31,-449.97 637.62,-514.78 654.36,-527.65"/>
</g>
<!-- exploitation&#45;&#45;engin -->
<g id="edge61" class="edge">
<title>exploitation&#45;&#45;engin</title>
<path fill="none" stroke="darkgrey" stroke-width="1.37" d="M406.07,-441.48C418.97,-446.51 440.83,-455.02 453.79,-460.07"/>
</g>
<!-- exploitation&#45;&#45;minerai -->
<g id="edge62" class="edge">
<title>exploitation&#45;&#45;minerai</title>
<path fill="none" stroke="darkgrey" stroke-width="2.89" d="M406.99,-437.86C432.91,-438.87 496.68,-441.36 528.29,-442.6"/>
</g>
<!-- exploitation&#45;&#45;usine -->
<g id="edge63" class="edge">
<title>exploitation&#45;&#45;usine</title>
<path fill="none" stroke="darkgrey" stroke-width="1.48" d="M406.15,-433.4C440.83,-420.14 551.43,-377.88 585.96,-364.68"/>
</g>
<!-- exploitation&#45;&#45;vision positive de la ressource -->
<g id="edge64" class="edge">
<title>exploitation&#45;&#45;vision positive de la ressource</title>
<path fill="none" stroke="darkgrey" stroke-width="1.32" d="M391.86,-448.04C387.03,-461.66 378.89,-484.57 375.79,-493.31"/>
</g>
<!-- exploitation&#45;&#45;commerce -->
<g id="edge65" class="edge">
<title>exploitation&#45;&#45;commerce</title>
<path fill="none" stroke="darkgrey" stroke-width="1.26" d="M388.91,-446.19C370.19,-470.63 317.78,-539.03 302.25,-559.3"/>
</g>
<!-- montagne&#45;&#45;engin -->
<g id="edge66" class="edge">
<title>montagne&#45;&#45;engin</title>
<path fill="none" stroke="darkgrey" stroke-width="1.16" d="M459.62,-534.78C460.52,-521.17 462.5,-491.51 463.57,-475.3"/>
</g>
<!-- montagne&#45;&#45;minerai -->
<g id="edge67" class="edge">
<title>montagne&#45;&#45;minerai</title>
<path fill="none" stroke="darkgrey" stroke-width="1.48" d="M463.84,-536.66C477.05,-521.77 514.78,-479.24 534.42,-457.1"/>
</g>
<!-- montagne&#45;&#45;terre -->
<g id="edge68" class="edge">
<title>montagne&#45;&#45;terre</title>
<path fill="none" stroke="darkgrey" stroke-width="1.15" d="M465.24,-537.78C477.82,-529.15 506.68,-509.35 521.53,-499.17"/>
</g>
<!-- engin&#45;&#45;minerai -->
<g id="edge70" class="edge">
<title>engin&#45;&#45;minerai</title>
<path fill="none" stroke="darkgrey" stroke-width="2.1" d="M475.08,-461.45C488.77,-457.98 512.58,-451.95 528.96,-447.8"/>
</g>
<!-- engin&#45;&#45;terre -->
<g id="edge71" class="edge">
<title>engin&#45;&#45;terre</title>
<path fill="none" stroke="darkgrey" stroke-width="1.75" d="M474.69,-468.66C487.09,-474.02 507.73,-482.94 520.19,-488.32"/>
</g>
<!-- engin&#45;&#45;usine -->
<g id="edge72" class="edge">
<title>engin&#45;&#45;usine</title>
<path fill="none" stroke="darkgrey" stroke-width="1.67" d="M472.98,-457.38C496.85,-438.68 563.39,-386.54 587.5,-367.65"/>
</g>
<!-- minerai&#45;&#45;terre -->
<g id="edge73" class="edge">
<title>minerai&#45;&#45;terre</title>
<path fill="none" stroke="darkgrey" stroke-width="1.31" d="M541.08,-460.65C538.78,-467.79 536.19,-475.85 534.17,-482.12"/>
</g>
<!-- minerai&#45;&#45;usine -->
<g id="edge74" class="edge">
<title>minerai&#45;&#45;usine</title>
<path fill="none" stroke="darkgrey" stroke-width="2.41" d="M556,-427.78C566.13,-410.95 581.97,-384.62 590.48,-370.48"/>
</g>
<!-- minerai&#45;&#45;opérateur minier -->
<g id="edge75" class="edge">
<title>minerai&#45;&#45;opérateur minier</title>
<path fill="none" stroke="darkgrey" stroke-width="1.29" d="M562.6,-434.5C590.34,-419.17 646.68,-388.03 669.22,-375.58"/>
</g>
<!-- minerai&#45;&#45;vision positive de la ressource -->
<g id="edge76" class="edge">
<title>minerai&#45;&#45;vision positive de la ressource</title>
<path fill="none" stroke="darkgrey" stroke-width="1.15" d="M529.2,-448.74C490.06,-460.92 397.18,-489.8 378.02,-495.76"/>
</g>
<!-- minerai&#45;&#45;ressource non&#45;renouvelable -->
<g id="edge77" class="edge">
<title>minerai&#45;&#45;ressource non&#45;renouvelable</title>
<path fill="none" stroke="darkgrey" stroke-width="1.43" d="M561.11,-454.64C587.35,-475.17 641.31,-517.39 654.38,-527.63"/>
</g>
<!-- terre&#45;&#45;usine -->
<g id="edge78" class="edge">
<title>terre&#45;&#45;usine</title>
<path fill="none" stroke="darkgrey" stroke-width="1.15" d="M535.65,-482.94C547.82,-458.44 579.15,-395.37 591.38,-370.75"/>
</g>
<!-- usine&#45;&#45;opérateur minier -->
<g id="edge79" class="edge">
<title>usine&#45;&#45;opérateur minier</title>
<path fill="none" stroke="darkgrey" stroke-width="3.17" d="M607.49,-361.99C623.32,-363.82 652.17,-367.16 667.9,-368.99"/>
</g>
<!-- usine&#45;&#45;localité -->
<g id="edge80" class="edge">
<title>usine&#45;&#45;localité</title>
<path fill="none" stroke="darkgrey" stroke-width="1.57" d="M606.85,-357.11C650.74,-342.08 818.56,-284.61 844.51,-275.72"/>
</g>
<!-- main d’oeuvre&#45;&#45;usine -->
<g id="edge69" class="edge">
<title>main d’oeuvre&#45;&#45;usine</title>
<path fill="none" stroke="darkgrey" stroke-width="1.19" d="M758.54,-477.08C740.05,-463.81 637.31,-390.08 605.65,-367.36"/>
</g>
<!-- pollution -->
<g id="node1" class="node">
<title>pollution</title>
<ellipse fill="#cf4446" stroke="white" stroke-width="0" cx="383.91" cy="-345.87" rx="21.5" ry="21.5"/>
<text text-anchor="middle" x="315.41" y="-374.09" font-family="Helvetica,sans-Serif" font-size="21.60" fill="#4d4d4d">pollution</text>
</g>
<!-- emploi -->
<g id="node2" class="node">
<title>emploi</title>
<ellipse fill="#e65d2f" stroke="white" stroke-width="0" cx="457.79" cy="-350.78" rx="21.5" ry="21.5"/>
<text text-anchor="middle" x="399.29" y="-379" font-family="Helvetica,sans-Serif" font-size="21.60" fill="#4d4d4d">emploi</text>
</g>
<!-- économie du pays -->
<g id="node3" class="node">
<title>économie du pays</title>
<ellipse fill="#7f1e6c" stroke="white" stroke-width="0" cx="484.2" cy="-225.06" rx="14.5" ry="14.5"/>
<text text-anchor="middle" x="555.2" y="-195.84" font-family="Helvetica,sans-Serif" font-size="18.40" fill="#4d4d4d">économie du pays</text>
</g>
<!-- richesse -->
<g id="node4" class="node">
<title>richesse</title>
<ellipse fill="#2f0a5b" stroke="white" stroke-width="0" cx="388.89" cy="-225.59" rx="7" ry="7"/>
<text text-anchor="middle" x="349.89" y="-237.43" font-family="Helvetica,sans-Serif" font-size="15.20" fill="#4d4d4d">richesse</text>
</g>
<!-- impact environnemental -->
<g id="node5" class="node">
<title>impact environnemental</title>
<ellipse fill="#fcffa4" stroke="white" stroke-width="0" cx="477.87" cy="-292.71" rx="36" ry="36"/>
<text text-anchor="middle" x="269.37" y="-265.31" font-family="Helvetica,sans-Serif" font-size="28.00" fill="#4d4d4d">impact environnemental</text>
</g>
<!-- conflit -->
<g id="node6" class="node">
<title>conflit</title>
<ellipse fill="#4d0d6c" stroke="white" stroke-width="0" cx="303.04" cy="-215.54" rx="7" ry="7"/>
<text text-anchor="middle" x="272.04" y="-227.38" font-family="Helvetica,sans-Serif" font-size="15.20" fill="#4d4d4d">conflit</text>
</g>
<!-- revenu -->
<g id="node7" class="node">
<title>revenu</title>
<ellipse fill="#380962" stroke="white" stroke-width="0" cx="309.54" cy="-310.68" rx="7" ry="7"/>
<text text-anchor="middle" x="276.04" y="-322.52" font-family="Helvetica,sans-Serif" font-size="15.20" fill="#4d4d4d">revenu</text>
</g>
<!-- nickel -->
<g id="node8" class="node">
<title>nickel</title>
<ellipse fill="#db503b" stroke="white" stroke-width="0" cx="499.33" cy="-408.47" rx="21.5" ry="21.5"/>
<text text-anchor="middle" x="446.33" y="-436.69" font-family="Helvetica,sans-Serif" font-size="21.60" fill="#4d4d4d">nickel</text>
</g>
<!-- exploitation -->
<g id="node9" class="node">
<title>exploitation</title>
<ellipse fill="#721a6e" stroke="white" stroke-width="0" cx="395.64" cy="-437.42" rx="11" ry="11"/>
<text text-anchor="middle" x="334.64" y="-452.98" font-family="Helvetica,sans-Serif" font-size="16.80" fill="#4d4d4d">exploitation</text>
</g>
<!-- montagne -->
<g id="node10" class="node">
<title>montagne</title>
<ellipse fill="#280b53" stroke="white" stroke-width="0" cx="459.14" cy="-541.96" rx="7" ry="7"/>
<text text-anchor="middle" x="413.14" y="-553.8" font-family="Helvetica,sans-Serif" font-size="15.20" fill="#4d4d4d">montagne</text>
</g>
<!-- biodiversité -->
<g id="node11" class="node">
<title>biodiversité</title>
<ellipse fill="#050417" stroke="white" stroke-width="0" cx="83.5" cy="-298.3" rx="3.5" ry="3.5"/>
<text text-anchor="middle" x="40" y="-305.92" font-family="Helvetica,sans-Serif" font-size="13.60" fill="#4d4d4d">biodiversité</text>
</g>
<!-- développement -->
<g id="node12" class="node">
<title>développement</title>
<ellipse fill="#110a30" stroke="white" stroke-width="0" cx="431.54" cy="-151.45" rx="3.5" ry="3.5"/>
<text text-anchor="middle" x="374.04" y="-159.07" font-family="Helvetica,sans-Serif" font-size="13.60" fill="#4d4d4d">développement</text>
</g>
<!-- engin -->
<g id="node13" class="node">
<title>engin</title>
<ellipse fill="#67166e" stroke="white" stroke-width="0" cx="464.31" cy="-464.17" rx="11" ry="11"/>
<text text-anchor="middle" x="429.81" y="-479.73" font-family="Helvetica,sans-Serif" font-size="16.80" fill="#4d4d4d">engin</text>
</g>
<!-- minerai -->
<g id="node14" class="node">
<title>minerai</title>
<ellipse fill="#a82e5f" stroke="white" stroke-width="0" cx="546.65" cy="-443.32" rx="18" ry="18"/>
<text text-anchor="middle" x="566.65" y="-409.32" font-family="Helvetica,sans-Serif" font-size="20.00" fill="#4d4d4d">minerai</text>
</g>
<!-- terre -->
<g id="node15" class="node">
<title>terre</title>
<ellipse fill="#520e6d" stroke="white" stroke-width="0" cx="530.71" cy="-492.87" rx="11" ry="11"/>
<text text-anchor="middle" x="498.71" y="-508.43" font-family="Helvetica,sans-Serif" font-size="16.80" fill="#4d4d4d">terre</text>
</g>
<!-- usine -->
<g id="node16" class="node">
<title>usine</title>
<ellipse fill="#771c6d" stroke="white" stroke-width="0" cx="596.37" cy="-360.7" rx="11" ry="11"/>
<text text-anchor="middle" x="562.37" y="-376.26" font-family="Helvetica,sans-Serif" font-size="16.80" fill="#4d4d4d">usine</text>
</g>
<!-- opérateur minier -->
<g id="node17" class="node">
<title>opérateur minier</title>
<ellipse fill="#69166e" stroke="white" stroke-width="0" cx="678.85" cy="-370.26" rx="11" ry="11"/>
<text text-anchor="middle" x="738.85" y="-385.82" font-family="Helvetica,sans-Serif" font-size="16.80" fill="#4d4d4d">opérateur minier</text>
</g>
<!-- vision positive de la ressource -->
<g id="node18" class="node">
<title>vision positive de la ressource</title>
<ellipse fill="#210c4a" stroke="white" stroke-width="0" cx="374.53" cy="-496.85" rx="3.5" ry="3.5"/>
<text text-anchor="middle" x="268.53" y="-504.47" font-family="Helvetica,sans-Serif" font-size="13.60" fill="#4d4d4d">vision positive de la ressource</text>
</g>
<!-- milieu -->
<g id="node19" class="node">
<title>milieu</title>
<ellipse fill="#0a0722" stroke="white" stroke-width="0" cx="658.35" cy="-60.69" rx="3.5" ry="3.5"/>
<text text-anchor="middle" x="633.85" y="-68.31" font-family="Helvetica,sans-Serif" font-size="13.60" fill="#4d4d4d">milieu</text>
</g>
<!-- danger -->
<g id="node20" class="node">
<title>danger</title>
<ellipse fill="#000004" stroke="white" stroke-width="0" cx="517.38" cy="-0.5" rx="0.5" ry="0.5"/>
<text text-anchor="middle" x="495.38" y="-4.4" font-family="Helvetica,sans-Serif" font-size="12.00" fill="#4d4d4d">danger</text>
</g>
<!-- main d’oeuvre -->
<g id="node21" class="node">
<title>main d’oeuvre</title>
<ellipse fill="#190c3e" stroke="white" stroke-width="0" cx="761.4" cy="-479.14" rx="3.5" ry="3.5"/>
<text text-anchor="middle" x="708.4" y="-486.76" font-family="Helvetica,sans-Serif" font-size="13.60" fill="#4d4d4d">main d’oeuvre</text>
</g>
<!-- commerce -->
<g id="node22" class="node">
<title>commerce</title>
<ellipse fill="#280b53" stroke="white" stroke-width="0" cx="297.86" cy="-565.04" rx="7" ry="7"/>
<text text-anchor="middle" x="250.86" y="-576.88" font-family="Helvetica,sans-Serif" font-size="15.20" fill="#4d4d4d">commerce</text>
</g>
<!-- ressource non&#45;renouvelable -->
<g id="node23" class="node">
<title>ressource non&#45;renouvelable</title>
<ellipse fill="#190c3e" stroke="white" stroke-width="0" cx="657.29" cy="-529.9" rx="3.5" ry="3.5"/>
<text text-anchor="middle" x="560.29" y="-537.52" font-family="Helvetica,sans-Serif" font-size="13.60" fill="#4d4d4d">ressource non&#45;renouvelable</text>
</g>
<!-- localité -->
<g id="node24" class="node">
<title>localité</title>
<ellipse fill="#09061f" stroke="white" stroke-width="0" cx="847.89" cy="-274.56" rx="3.5" ry="3.5"/>
<text text-anchor="middle" x="819.89" y="-282.18" font-family="Helvetica,sans-Serif" font-size="13.60" fill="#4d4d4d">localité</text>
</g>
</g>
</svg>
