<?xml version="1.0" encoding="UTF-8" standalone="no"?>
<!DOCTYPE svg PUBLIC "-//W3C//DTD SVG 1.1//EN"
 "http://www.w3.org/Graphics/SVG/1.1/DTD/svg11.dtd">
<!-- Generated by graphviz version 2.49.0 (20210828.1703)
 -->
<!-- Pages: 1 -->
<svg width="902pt" height="596pt"
 viewBox="0.00 0.00 901.90 595.64" xmlns="http://www.w3.org/2000/svg" xmlns:xlink="http://www.w3.org/1999/xlink">
<g id="graph0" class="graph" transform="scale(1 1) rotate(0) translate(4 591.64)">
<polygon fill="white" stroke="transparent" points="-4,4 -4,-591.64 897.9,-591.64 897.9,4 -4,4"/>
<!-- pollution&#45;&#45;emploi -->
<g id="edge1" class="edge">
<title>pollution&#45;&#45;emploi</title>
<path fill="none" stroke="darkgrey" stroke-width="6.48" d="M396.06,-320.22C405.37,-304.99 418.53,-283.46 427.84,-268.25"/>
</g>
<!-- pollution&#45;&#45;économie du pays -->
<g id="edge2" class="edge">
<title>pollution&#45;&#45;économie du pays</title>
<path fill="none" stroke="darkgrey" stroke-width="3.61" d="M380.23,-317.31C374.46,-290.55 364.7,-245.35 359.73,-222.33"/>
</g>
<!-- pollution&#45;&#45;richesse -->
<g id="edge3" class="edge">
<title>pollution&#45;&#45;richesse</title>
<path fill="none" stroke="darkgrey" stroke-width="1.15" d="M382.64,-316.88C377.97,-270.49 367.22,-163.64 364.37,-135.28"/>
</g>
<!-- pollution&#45;&#45;impact environnemental -->
<g id="edge4" class="edge">
<title>pollution&#45;&#45;impact environnemental</title>
<path fill="none" stroke="darkgrey" stroke-width="10" d="M370.24,-322.73C365.8,-317.89 360.79,-312.44 355.88,-307.1"/>
</g>
<!-- pollution&#45;&#45;conflit -->
<g id="edge5" class="edge">
<title>pollution&#45;&#45;conflit</title>
<path fill="none" stroke="darkgrey" stroke-width="1.58" d="M366.69,-326.8C330.87,-303.51 252.58,-252.61 230.12,-238.01"/>
</g>
<!-- pollution&#45;&#45;revenu -->
<g id="edge6" class="edge">
<title>pollution&#45;&#45;revenu</title>
<path fill="none" stroke="darkgrey" stroke-width="1.34" d="M370.24,-354.45C357.27,-368.55 339.09,-388.31 330.58,-397.57"/>
</g>
<!-- pollution&#45;&#45;nickel -->
<g id="edge7" class="edge">
<title>pollution&#45;&#45;nickel</title>
<path fill="none" stroke="darkgrey" stroke-width="3.04" d="M401.31,-324.66C423.84,-305.62 464.02,-271.65 486.67,-252.5"/>
</g>
<!-- pollution&#45;&#45;exploitation -->
<g id="edge8" class="edge">
<title>pollution&#45;&#45;exploitation</title>
<path fill="none" stroke="darkgrey" stroke-width="1.35" d="M393.56,-318.73C409.82,-281.78 444.17,-203.67 456.48,-175.68"/>
</g>
<!-- pollution&#45;&#45;montagne -->
<g id="edge9" class="edge">
<title>pollution&#45;&#45;montagne</title>
<path fill="none" stroke="darkgrey" stroke-width="1.71" d="M398.83,-354.95C417.18,-376.39 448.43,-412.91 460.37,-426.86"/>
</g>
<!-- pollution&#45;&#45;biodiversité -->
<g id="edge10" class="edge">
<title>pollution&#45;&#45;biodiversité</title>
<path fill="none" stroke="darkgrey" stroke-width="1.07" d="M380.1,-359.59C368.23,-412.28 337.76,-547.62 332.37,-571.51"/>
</g>
<!-- pollution&#45;&#45;développement -->
<g id="edge11" class="edge">
<title>pollution&#45;&#45;développement</title>
<path fill="none" stroke="darkgrey" stroke-width="1.7" d="M365.76,-348.75C319.42,-373.45 203.07,-435.43 181.66,-446.84"/>
</g>
<!-- pollution&#45;&#45;engin -->
<g id="edge12" class="edge">
<title>pollution&#45;&#45;engin</title>
<path fill="none" stroke="darkgrey" stroke-width="1.86" d="M406.34,-337.42C426.2,-336.33 454.91,-334.76 470.56,-333.9"/>
</g>
<!-- pollution&#45;&#45;minerai -->
<g id="edge13" class="edge">
<title>pollution&#45;&#45;minerai</title>
<path fill="none" stroke="darkgrey" stroke-width="1.14" d="M403.99,-328.29C437.67,-310.16 506.9,-272.92 538.46,-255.94"/>
</g>
<!-- pollution&#45;&#45;terre -->
<g id="edge14" class="edge">
<title>pollution&#45;&#45;terre</title>
<path fill="none" stroke="darkgrey" stroke-width="1.41" d="M405.21,-345.99C434.59,-356.64 487.77,-375.93 510.37,-384.12"/>
</g>
<!-- pollution&#45;&#45;usine -->
<g id="edge15" class="edge">
<title>pollution&#45;&#45;usine</title>
<path fill="none" stroke="darkgrey" stroke-width="1.4" d="M406.38,-335.64C449.01,-329.79 542.74,-316.92 575.05,-312.49"/>
</g>
<!-- emploi&#45;&#45;économie du pays -->
<g id="edge16" class="edge">
<title>emploi&#45;&#45;économie du pays</title>
<path fill="none" stroke="darkgrey" stroke-width="5.44" d="M419.52,-239.94C404.1,-232.09 383,-221.36 369.6,-214.53"/>
</g>
<!-- emploi&#45;&#45;richesse -->
<g id="edge17" class="edge">
<title>emploi&#45;&#45;richesse</title>
<path fill="none" stroke="darkgrey" stroke-width="2.18" d="M427.61,-231.42C410.3,-203.51 378.36,-151.98 367.44,-134.36"/>
</g>
<!-- emploi&#45;&#45;impact environnemental -->
<g id="edge18" class="edge">
<title>emploi&#45;&#45;impact environnemental</title>
<path fill="none" stroke="darkgrey" stroke-width="6.62" d="M418.31,-255.8C403.53,-260 383.32,-265.76 366.12,-270.66"/>
</g>
<!-- emploi&#45;&#45;conflit -->
<g id="edge19" class="edge">
<title>emploi&#45;&#45;conflit</title>
<path fill="none" stroke="darkgrey" stroke-width="2.65" d="M417.25,-248.28C370.05,-244.8 260.32,-236.7 231.19,-234.55"/>
</g>
<!-- emploi&#45;&#45;revenu -->
<g id="edge20" class="edge">
<title>emploi&#45;&#45;revenu</title>
<path fill="none" stroke="darkgrey" stroke-width="2.68" d="M426.07,-267.42C400.74,-301.61 345.86,-375.69 330.12,-396.93"/>
</g>
<!-- emploi&#45;&#45;nickel -->
<g id="edge21" class="edge">
<title>emploi&#45;&#45;nickel</title>
<path fill="none" stroke="darkgrey" stroke-width="4.36" d="M460.48,-246.05C467.36,-244.82 474.97,-243.46 481.85,-242.22"/>
</g>
<!-- emploi&#45;&#45;exploitation -->
<g id="edge22" class="edge">
<title>emploi&#45;&#45;exploitation</title>
<path fill="none" stroke="darkgrey" stroke-width="1.68" d="M444.48,-229.01C448.79,-212.4 454.66,-189.82 458.11,-176.52"/>
</g>
<!-- emploi&#45;&#45;engin -->
<g id="edge23" class="edge">
<title>emploi&#45;&#45;engin</title>
<path fill="none" stroke="darkgrey" stroke-width="1.2" d="M448.97,-269.23C457.64,-286.17 469.89,-310.09 476.71,-323.39"/>
</g>
<!-- emploi&#45;&#45;minerai -->
<g id="edge24" class="edge">
<title>emploi&#45;&#45;minerai</title>
<path fill="none" stroke="darkgrey" stroke-width="1.21" d="M460.55,-249.38C482.38,-248.87 515.83,-248.08 536.45,-247.59"/>
</g>
<!-- emploi&#45;&#45;terre -->
<g id="edge25" class="edge">
<title>emploi&#45;&#45;terre</title>
<path fill="none" stroke="darkgrey" stroke-width="1.4" d="M450.11,-268.51C467.75,-298.25 501.68,-355.43 515.2,-378.23"/>
</g>
<!-- emploi&#45;&#45;usine -->
<g id="edge26" class="edge">
<title>emploi&#45;&#45;usine</title>
<path fill="none" stroke="darkgrey" stroke-width="1.23" d="M459.22,-258.25C491.03,-271.45 551.73,-296.63 575.93,-306.67"/>
</g>
<!-- emploi&#45;&#45;opérateur minier -->
<g id="edge27" class="edge">
<title>emploi&#45;&#45;opérateur minier</title>
<path fill="none" stroke="darkgrey" stroke-width="1.18" d="M460.65,-247.24C509.19,-241.27 625.52,-226.98 661.96,-222.5"/>
</g>
<!-- emploi&#45;&#45;vision positive de la ressource -->
<g id="edge28" class="edge">
<title>emploi&#45;&#45;vision positive de la ressource</title>
<path fill="none" stroke="darkgrey" stroke-width="1.3" d="M446.46,-229.43C460.17,-191.52 488.72,-112.58 495.23,-94.6"/>
</g>
<!-- économie du pays&#45;&#45;richesse -->
<g id="edge29" class="edge">
<title>économie du pays&#45;&#45;richesse</title>
<path fill="none" stroke="darkgrey" stroke-width="1.05" d="M357.91,-193.32C359.42,-176.25 361.86,-148.69 363.01,-135.61"/>
</g>
<!-- économie du pays&#45;&#45;impact environnemental -->
<g id="edge30" class="edge">
<title>économie du pays&#45;&#45;impact environnemental</title>
<path fill="none" stroke="darkgrey" stroke-width="6.33" d="M351.77,-221.92C349.34,-228.93 346.29,-237.74 343.29,-246.39"/>
</g>
<!-- économie du pays&#45;&#45;conflit -->
<g id="edge31" class="edge">
<title>économie du pays&#45;&#45;conflit</title>
<path fill="none" stroke="darkgrey" stroke-width="1.6" d="M342.18,-210.77C313.84,-216.34 251.93,-228.52 231.04,-232.64"/>
</g>
<!-- économie du pays&#45;&#45;nickel -->
<g id="edge32" class="edge">
<title>économie du pays&#45;&#45;nickel</title>
<path fill="none" stroke="darkgrey" stroke-width="1.91" d="M370.96,-210.9C396.93,-216.29 451.86,-227.67 482.18,-233.96"/>
</g>
<!-- économie du pays&#45;&#45;usine -->
<g id="edge33" class="edge">
<title>économie du pays&#45;&#45;usine</title>
<path fill="none" stroke="darkgrey" stroke-width="1.09" d="M369.96,-213.91C411.7,-232.64 539.2,-289.84 576.13,-306.41"/>
</g>
<!-- richesse&#45;&#45;impact environnemental -->
<g id="edge34" class="edge">
<title>richesse&#45;&#45;impact environnemental</title>
<path fill="none" stroke="darkgrey" stroke-width="2.15" d="M362.19,-135.21C358.16,-154.29 346.68,-208.56 338.95,-245.1"/>
</g>
<!-- richesse&#45;&#45;nickel -->
<g id="edge35" class="edge">
<title>richesse&#45;&#45;nickel</title>
<path fill="none" stroke="darkgrey" stroke-width="1.27" d="M369.31,-132.73C388.92,-148.17 454.54,-199.87 486.13,-224.75"/>
</g>
<!-- impact environnemental&#45;&#45;conflit -->
<g id="edge36" class="edge">
<title>impact environnemental&#45;&#45;conflit</title>
<path fill="none" stroke="darkgrey" stroke-width="1.89" d="M298.34,-266.19C274.41,-255.84 244.05,-242.7 230.75,-236.95"/>
</g>
<!-- impact environnemental&#45;&#45;revenu -->
<g id="edge37" class="edge">
<title>impact environnemental&#45;&#45;revenu</title>
<path fill="none" stroke="darkgrey" stroke-width="1.58" d="M329.8,-316.53C328.53,-344.13 326.88,-380 326.17,-395.29"/>
</g>
<!-- impact environnemental&#45;&#45;nickel -->
<g id="edge38" class="edge">
<title>impact environnemental&#45;&#45;nickel</title>
<path fill="none" stroke="darkgrey" stroke-width="4.12" d="M366.67,-271.89C401.45,-263.36 453.5,-250.6 482.31,-243.53"/>
</g>
<!-- impact environnemental&#45;&#45;exploitation -->
<g id="edge40" class="edge">
<title>impact environnemental&#45;&#45;exploitation</title>
<path fill="none" stroke="darkgrey" stroke-width="3.8" d="M358.61,-256.4C388.29,-230.03 434.08,-189.34 452.7,-172.8"/>
</g>
<!-- impact environnemental&#45;&#45;montagne -->
<g id="edge41" class="edge">
<title>impact environnemental&#45;&#45;montagne</title>
<path fill="none" stroke="darkgrey" stroke-width="2.15" d="M355.37,-307.69C387.83,-344.58 443.71,-408.07 460.38,-427.02"/>
</g>
<!-- impact environnemental&#45;&#45;développement -->
<g id="edge42" class="edge">
<title>impact environnemental&#45;&#45;développement</title>
<path fill="none" stroke="darkgrey" stroke-width="1.84" d="M307.18,-307.16C268.37,-349.76 195.22,-430.03 180.77,-445.89"/>
</g>
<!-- impact environnemental&#45;&#45;engin -->
<g id="edge43" class="edge">
<title>impact environnemental&#45;&#45;engin</title>
<path fill="none" stroke="darkgrey" stroke-width="2.55" d="M365.57,-292.49C399.52,-304.41 449.6,-321.99 471.21,-329.58"/>
</g>
<!-- impact environnemental&#45;&#45;minerai -->
<g id="edge44" class="edge">
<title>impact environnemental&#45;&#45;minerai</title>
<path fill="none" stroke="darkgrey" stroke-width="1.72" d="M367.34,-275.16C415.8,-267.92 500.3,-255.3 536.96,-249.82"/>
</g>
<!-- impact environnemental&#45;&#45;terre -->
<g id="edge45" class="edge">
<title>impact environnemental&#45;&#45;terre</title>
<path fill="none" stroke="darkgrey" stroke-width="1.52" d="M363.18,-298.51C407.02,-323.36 483.79,-366.88 511.04,-382.33"/>
</g>
<!-- impact environnemental&#45;&#45;usine -->
<g id="edge46" class="edge">
<title>impact environnemental&#45;&#45;usine</title>
<path fill="none" stroke="darkgrey" stroke-width="1.09" d="M367.43,-284.82C426.14,-291.83 539.61,-305.38 575.26,-309.64"/>
</g>
<!-- impact environnemental&#45;&#45;vision positive de la ressource -->
<g id="edge47" class="edge">
<title>impact environnemental&#45;&#45;vision positive de la ressource</title>
<path fill="none" stroke="darkgrey" stroke-width="1.69" d="M355.12,-253.35C396.49,-205.84 479.04,-111.02 494.16,-93.66"/>
</g>
<!-- impact environnemental&#45;&#45;milieu -->
<g id="edge39" class="edge">
<title>impact environnemental&#45;&#45;milieu</title>
<path fill="none" stroke="darkgrey" stroke-width="1.49" d="M298.02,-266.6C228.6,-237.69 73.25,-173 48.23,-162.58"/>
</g>
<!-- impact environnemental&#45;&#45;danger -->
<g id="edge48" class="edge">
<title>impact environnemental&#45;&#45;danger</title>
<path fill="none" stroke="darkgrey" stroke-width="1.18" d="M295.88,-287.67C217.95,-303.33 38.2,-339.45 27.04,-341.69"/>
</g>
<!-- revenu&#45;&#45;nickel -->
<g id="edge49" class="edge">
<title>revenu&#45;&#45;nickel</title>
<path fill="none" stroke="darkgrey" stroke-width="1.89" d="M331.34,-397.63C355.1,-375.63 449.37,-288.37 487.39,-253.19"/>
</g>
<!-- nickel&#45;&#45;exploitation -->
<g id="edge50" class="edge">
<title>nickel&#45;&#45;exploitation</title>
<path fill="none" stroke="darkgrey" stroke-width="2.03" d="M492.48,-219.58C484.23,-205.4 473.25,-186.51 466.67,-175.2"/>
</g>
<!-- nickel&#45;&#45;montagne -->
<g id="edge51" class="edge">
<title>nickel&#45;&#45;montagne</title>
<path fill="none" stroke="darkgrey" stroke-width="1.37" d="M499.24,-259.51C490.77,-302.55 471.89,-398.55 466.6,-425.4"/>
</g>
<!-- nickel&#45;&#45;engin -->
<g id="edge53" class="edge">
<title>nickel&#45;&#45;engin</title>
<path fill="none" stroke="darkgrey" stroke-width="2.71" d="M498.6,-259.43C494.17,-278.87 487.77,-306.98 484.27,-322.31"/>
</g>
<!-- nickel&#45;&#45;minerai -->
<g id="edge54" class="edge">
<title>nickel&#45;&#45;minerai</title>
<path fill="none" stroke="darkgrey" stroke-width="3.81" d="M524.6,-241.99C528.69,-242.69 532.94,-243.42 536.91,-244.1"/>
</g>
<!-- nickel&#45;&#45;terre -->
<g id="edge55" class="edge">
<title>nickel&#45;&#45;terre</title>
<path fill="none" stroke="darkgrey" stroke-width="2.4" d="M505.92,-259.8C509.72,-292.11 516.77,-352.16 519.68,-376.89"/>
</g>
<!-- nickel&#45;&#45;usine -->
<g id="edge56" class="edge">
<title>nickel&#45;&#45;usine</title>
<path fill="none" stroke="darkgrey" stroke-width="3.82" d="M519.77,-252.7C537.13,-267.91 563.88,-291.35 577.56,-303.33"/>
</g>
<!-- nickel&#45;&#45;opérateur minier -->
<g id="edge57" class="edge">
<title>nickel&#45;&#45;opérateur minier</title>
<path fill="none" stroke="darkgrey" stroke-width="2.86" d="M524.89,-236.18C561.45,-232.47 634.48,-225.06 662.12,-222.25"/>
</g>
<!-- nickel&#45;&#45;vision positive de la ressource -->
<g id="edge58" class="edge">
<title>nickel&#45;&#45;vision positive de la ressource</title>
<path fill="none" stroke="darkgrey" stroke-width="1.27" d="M502.39,-216.6C500.73,-180.71 497.51,-111.39 496.74,-94.62"/>
</g>
<!-- nickel&#45;&#45;main d’oeuvre -->
<g id="edge52" class="edge">
<title>nickel&#45;&#45;main d’oeuvre</title>
<path fill="none" stroke="darkgrey" stroke-width="1.02" d="M521.54,-250.49C571.57,-283.92 709.28,-375.96 731.53,-390.83"/>
</g>
<!-- nickel&#45;&#45;commerce -->
<g id="edge59" class="edge">
<title>nickel&#45;&#45;commerce</title>
<path fill="none" stroke="darkgrey" d="M491.59,-220.21C460.25,-172.06 376.1,-42.76 356.81,-13.11"/>
</g>
<!-- nickel&#45;&#45;ressource non&#45;renouvelable -->
<g id="edge60" class="edge">
<title>nickel&#45;&#45;ressource non&#45;renouvelable</title>
<path fill="none" stroke="darkgrey" stroke-width="1.82" d="M522.79,-228.47C570.79,-203.99 692.82,-141.73 714.37,-130.75"/>
</g>
<!-- exploitation&#45;&#45;engin -->
<g id="edge61" class="edge">
<title>exploitation&#45;&#45;engin</title>
<path fill="none" stroke="darkgrey" stroke-width="1.37" d="M462.36,-176.45C466.11,-206.79 476.58,-291.36 480.38,-322.01"/>
</g>
<!-- exploitation&#45;&#45;minerai -->
<g id="edge62" class="edge">
<title>exploitation&#45;&#45;minerai</title>
<path fill="none" stroke="darkgrey" stroke-width="2.89" d="M469.31,-172.69C485.45,-186.75 521.15,-217.86 540.92,-235.08"/>
</g>
<!-- exploitation&#45;&#45;usine -->
<g id="edge63" class="edge">
<title>exploitation&#45;&#45;usine</title>
<path fill="none" stroke="darkgrey" stroke-width="1.48" d="M468.45,-174.1C490.78,-200.04 556.92,-276.87 578.99,-302.51"/>
</g>
<!-- exploitation&#45;&#45;vision positive de la ressource -->
<g id="edge64" class="edge">
<title>exploitation&#45;&#45;vision positive de la ressource</title>
<path fill="none" stroke="darkgrey" stroke-width="1.32" d="M465.79,-155.38C473.91,-138.38 489.96,-104.74 495.01,-94.16"/>
</g>
<!-- exploitation&#45;&#45;commerce -->
<g id="edge65" class="edge">
<title>exploitation&#45;&#45;commerce</title>
<path fill="none" stroke="darkgrey" stroke-width="1.26" d="M454.55,-156C434.45,-126.55 373.25,-36.91 356.89,-12.94"/>
</g>
<!-- montagne&#45;&#45;engin -->
<g id="edge66" class="edge">
<title>montagne&#45;&#45;engin</title>
<path fill="none" stroke="darkgrey" stroke-width="1.16" d="M466.4,-425.37C469.26,-408.22 476.55,-364.59 479.96,-344.15"/>
</g>
<!-- montagne&#45;&#45;minerai -->
<g id="edge67" class="edge">
<title>montagne&#45;&#45;minerai</title>
<path fill="none" stroke="darkgrey" stroke-width="1.48" d="M468.39,-425.91C481.05,-399.73 527.95,-302.67 546.83,-263.61"/>
</g>
<!-- montagne&#45;&#45;terre -->
<g id="edge68" class="edge">
<title>montagne&#45;&#45;terre</title>
<path fill="none" stroke="darkgrey" stroke-width="1.15" d="M470.76,-428.07C480.46,-420.33 500.56,-404.27 512.17,-395"/>
</g>
<!-- engin&#45;&#45;minerai -->
<g id="edge70" class="edge">
<title>engin&#45;&#45;minerai</title>
<path fill="none" stroke="darkgrey" stroke-width="2.1" d="M489.04,-324.71C501.66,-309.82 527.75,-279.05 542.99,-261.07"/>
</g>
<!-- engin&#45;&#45;terre -->
<g id="edge71" class="edge">
<title>engin&#45;&#45;terre</title>
<path fill="none" stroke="darkgrey" stroke-width="1.75" d="M488.25,-342.31C495.47,-352.38 507.09,-368.59 514.36,-378.74"/>
</g>
<!-- engin&#45;&#45;usine -->
<g id="edge72" class="edge">
<title>engin&#45;&#45;usine</title>
<path fill="none" stroke="darkgrey" stroke-width="1.67" d="M492.56,-330.98C512.58,-326.7 555.28,-317.57 575.37,-313.28"/>
</g>
<!-- minerai&#45;&#45;terre -->
<g id="edge73" class="edge">
<title>minerai&#45;&#45;terre</title>
<path fill="none" stroke="darkgrey" stroke-width="1.31" d="M550.57,-264.71C543.49,-294.2 529.41,-352.84 523.59,-377.09"/>
</g>
<!-- minerai&#45;&#45;usine -->
<g id="edge74" class="edge">
<title>minerai&#45;&#45;usine</title>
<path fill="none" stroke="darkgrey" stroke-width="2.41" d="M562.89,-263.59C568.72,-275.4 576.39,-290.95 581.32,-300.95"/>
</g>
<!-- minerai&#45;&#45;opérateur minier -->
<g id="edge75" class="edge">
<title>minerai&#45;&#45;opérateur minier</title>
<path fill="none" stroke="darkgrey" stroke-width="1.29" d="M572.49,-243.26C597.37,-237.79 641.9,-227.99 662.31,-223.5"/>
</g>
<!-- minerai&#45;&#45;vision positive de la ressource -->
<g id="edge76" class="edge">
<title>minerai&#45;&#45;vision positive de la ressource</title>
<path fill="none" stroke="darkgrey" stroke-width="1.15" d="M548.44,-230.14C535,-194.07 504.35,-111.8 497.81,-94.24"/>
</g>
<!-- minerai&#45;&#45;ressource non&#45;renouvelable -->
<g id="edge77" class="edge">
<title>minerai&#45;&#45;ressource non&#45;renouvelable</title>
<path fill="none" stroke="darkgrey" stroke-width="1.43" d="M569.52,-236.47C605.54,-210.36 696.4,-144.48 714.48,-131.37"/>
</g>
<!-- terre&#45;&#45;usine -->
<g id="edge78" class="edge">
<title>terre&#45;&#45;usine</title>
<path fill="none" stroke="darkgrey" stroke-width="1.15" d="M528.21,-379.43C540.7,-364.7 566.15,-334.68 578.79,-319.76"/>
</g>
<!-- usine&#45;&#45;opérateur minier -->
<g id="edge79" class="edge">
<title>usine&#45;&#45;opérateur minier</title>
<path fill="none" stroke="darkgrey" stroke-width="3.17" d="M593.96,-302.98C610.39,-285.98 648.73,-246.32 665.26,-229.22"/>
</g>
<!-- usine&#45;&#45;localité -->
<g id="edge80" class="edge">
<title>usine&#45;&#45;localité</title>
<path fill="none" stroke="darkgrey" stroke-width="1.57" d="M597.08,-313.27C647.24,-324.03 855.92,-368.79 886.62,-375.38"/>
</g>
<!-- main d’oeuvre&#45;&#45;usine -->
<g id="edge69" class="edge">
<title>main d’oeuvre&#45;&#45;usine</title>
<path fill="none" stroke="darkgrey" stroke-width="1.19" d="M731.49,-391.16C713.85,-381.42 625.83,-332.81 596.09,-316.38"/>
</g>
<!-- pollution -->
<g id="node1" class="node">
<title>pollution</title>
<ellipse fill="#cf4446" stroke="white" stroke-width="0" cx="384.82" cy="-338.6" rx="21.5" ry="21.5"/>
<text text-anchor="middle" x="348.32" y="-362.7" font-family="Helvetica,sans-Serif" font-size="8.00" fill="#4d4d4d">pollution</text>
</g>
<!-- emploi -->
<g id="node2" class="node">
<title>emploi</title>
<ellipse fill="#e65d2f" stroke="white" stroke-width="0" cx="439.06" cy="-249.89" rx="21.5" ry="21.5"/>
<text text-anchor="middle" x="406.06" y="-273.99" font-family="Helvetica,sans-Serif" font-size="8.00" fill="#4d4d4d">emploi</text>
</g>
<!-- économie du pays -->
<g id="node3" class="node">
<title>économie du pays</title>
<ellipse fill="#7f1e6c" stroke="white" stroke-width="0" cx="356.62" cy="-207.93" rx="14.5" ry="14.5"/>
<text text-anchor="middle" x="308.62" y="-225.03" font-family="Helvetica,sans-Serif" font-size="8.00" fill="#4d4d4d">économie du pays</text>
</g>
<!-- richesse -->
<g id="node4" class="node">
<title>richesse</title>
<ellipse fill="#2f0a5b" stroke="white" stroke-width="0" cx="363.66" cy="-128.27" rx="7" ry="7"/>
<text text-anchor="middle" x="340.66" y="-137.87" font-family="Helvetica,sans-Serif" font-size="8.00" fill="#4d4d4d">richesse</text>
</g>
<!-- impact environnemental -->
<g id="node5" class="node">
<title>impact environnemental</title>
<ellipse fill="#fcffa4" stroke="white" stroke-width="0" cx="331.46" cy="-280.52" rx="36" ry="36"/>
<text text-anchor="middle" x="252.96" y="-319.12" font-family="Helvetica,sans-Serif" font-size="8.00" fill="#4d4d4d">impact environnemental</text>
</g>
<!-- conflit -->
<g id="node6" class="node">
<title>conflit</title>
<ellipse fill="#4d0d6c" stroke="white" stroke-width="0" cx="223.99" cy="-234.02" rx="7" ry="7"/>
<text text-anchor="middle" x="205.99" y="-243.62" font-family="Helvetica,sans-Serif" font-size="8.00" fill="#4d4d4d">conflit</text>
</g>
<!-- revenu -->
<g id="node7" class="node">
<title>revenu</title>
<ellipse fill="#380962" stroke="white" stroke-width="0" cx="325.83" cy="-402.73" rx="7" ry="7"/>
<text text-anchor="middle" x="305.83" y="-412.33" font-family="Helvetica,sans-Serif" font-size="8.00" fill="#4d4d4d">revenu</text>
</g>
<!-- nickel -->
<g id="node8" class="node">
<title>nickel</title>
<ellipse fill="#db503b" stroke="white" stroke-width="0" cx="503.4" cy="-238.36" rx="21.5" ry="21.5"/>
<text text-anchor="middle" x="471.4" y="-262.46" font-family="Helvetica,sans-Serif" font-size="8.00" fill="#4d4d4d">nickel</text>
</g>
<!-- exploitation -->
<g id="node9" class="node">
<title>exploitation</title>
<ellipse fill="#721a6e" stroke="white" stroke-width="0" cx="460.99" cy="-165.43" rx="11" ry="11"/>
<text text-anchor="middle" x="429.49" y="-179.03" font-family="Helvetica,sans-Serif" font-size="8.00" fill="#4d4d4d">exploitation</text>
</g>
<!-- montagne -->
<g id="node10" class="node">
<title>montagne</title>
<ellipse fill="#280b53" stroke="white" stroke-width="0" cx="465.21" cy="-432.5" rx="7" ry="7"/>
<text text-anchor="middle" x="440.21" y="-442.1" font-family="Helvetica,sans-Serif" font-size="8.00" fill="#4d4d4d">montagne</text>
</g>
<!-- biodiversité -->
<g id="node11" class="node">
<title>biodiversité</title>
<ellipse fill="#050417" stroke="white" stroke-width="0" cx="331.56" cy="-575.14" rx="3.5" ry="3.5"/>
<text text-anchor="middle" x="307.06" y="-581.24" font-family="Helvetica,sans-Serif" font-size="8.00" fill="#4d4d4d">biodiversité</text>
</g>
<!-- développement -->
<g id="node12" class="node">
<title>développement</title>
<ellipse fill="#110a30" stroke="white" stroke-width="0" cx="178.25" cy="-448.66" rx="3.5" ry="3.5"/>
<text text-anchor="middle" x="147.25" y="-454.76" font-family="Helvetica,sans-Serif" font-size="8.00" fill="#4d4d4d">développement</text>
</g>
<!-- engin -->
<g id="node13" class="node">
<title>engin</title>
<ellipse fill="#67166e" stroke="white" stroke-width="0" cx="481.77" cy="-333.28" rx="11" ry="11"/>
<text text-anchor="middle" x="460.77" y="-346.88" font-family="Helvetica,sans-Serif" font-size="8.00" fill="#4d4d4d">engin</text>
</g>
<!-- minerai -->
<g id="node14" class="node">
<title>minerai</title>
<ellipse fill="#a82e5f" stroke="white" stroke-width="0" cx="554.78" cy="-247.16" rx="18" ry="18"/>
<text text-anchor="middle" x="523.78" y="-267.76" font-family="Helvetica,sans-Serif" font-size="8.00" fill="#4d4d4d">minerai</text>
</g>
<!-- terre -->
<g id="node15" class="node">
<title>terre</title>
<ellipse fill="#520e6d" stroke="white" stroke-width="0" cx="520.98" cy="-387.97" rx="11" ry="11"/>
<text text-anchor="middle" x="500.98" y="-401.57" font-family="Helvetica,sans-Serif" font-size="8.00" fill="#4d4d4d">terre</text>
</g>
<!-- usine -->
<g id="node16" class="node">
<title>usine</title>
<ellipse fill="#771c6d" stroke="white" stroke-width="0" cx="586.26" cy="-310.95" rx="11" ry="11"/>
<text text-anchor="middle" x="565.26" y="-324.55" font-family="Helvetica,sans-Serif" font-size="8.00" fill="#4d4d4d">usine</text>
</g>
<!-- opérateur minier -->
<g id="node17" class="node">
<title>opérateur minier</title>
<ellipse fill="#69166e" stroke="white" stroke-width="0" cx="673.07" cy="-221.14" rx="11" ry="11"/>
<text text-anchor="middle" x="632.57" y="-234.74" font-family="Helvetica,sans-Serif" font-size="8.00" fill="#4d4d4d">opérateur minier</text>
</g>
<!-- vision positive de la ressource -->
<g id="node18" class="node">
<title>vision positive de la ressource</title>
<ellipse fill="#210c4a" stroke="white" stroke-width="0" cx="496.56" cy="-90.9" rx="3.5" ry="3.5"/>
<text text-anchor="middle" x="437.56" y="-97" font-family="Helvetica,sans-Serif" font-size="8.00" fill="#4d4d4d">vision positive de la ressource</text>
</g>
<!-- milieu -->
<g id="node19" class="node">
<title>milieu</title>
<ellipse fill="#0a0722" stroke="white" stroke-width="0" cx="44.8" cy="-161.15" rx="3.5" ry="3.5"/>
<text text-anchor="middle" x="31.3" y="-167.25" font-family="Helvetica,sans-Serif" font-size="8.00" fill="#4d4d4d">milieu</text>
</g>
<!-- danger -->
<g id="node20" class="node">
<title>danger</title>
<ellipse fill="#000004" stroke="white" stroke-width="0" cx="26.5" cy="-341.8" rx="0.5" ry="0.5"/>
<text text-anchor="middle" x="13" y="-344.9" font-family="Helvetica,sans-Serif" font-size="8.00" fill="#4d4d4d">danger</text>
</g>
<!-- main d’oeuvre -->
<g id="node21" class="node">
<title>main d’oeuvre</title>
<ellipse fill="#190c3e" stroke="white" stroke-width="0" cx="734.59" cy="-392.88" rx="3.5" ry="3.5"/>
<text text-anchor="middle" x="705.59" y="-398.98" font-family="Helvetica,sans-Serif" font-size="8.00" fill="#4d4d4d">main d’oeuvre</text>
</g>
<!-- commerce -->
<g id="node22" class="node">
<title>commerce</title>
<ellipse fill="#280b53" stroke="white" stroke-width="0" cx="352.83" cy="-7" rx="7" ry="7"/>
<text text-anchor="middle" x="326.83" y="-16.6" font-family="Helvetica,sans-Serif" font-size="8.00" fill="#4d4d4d">commerce</text>
</g>
<!-- ressource non&#45;renouvelable -->
<g id="node23" class="node">
<title>ressource non&#45;renouvelable</title>
<ellipse fill="#190c3e" stroke="white" stroke-width="0" cx="717.64" cy="-129.08" rx="3.5" ry="3.5"/>
<text text-anchor="middle" x="662.64" y="-135.18" font-family="Helvetica,sans-Serif" font-size="8.00" fill="#4d4d4d">ressource non&#45;renouvelable</text>
</g>
<!-- localité -->
<g id="node24" class="node">
<title>localité</title>
<ellipse fill="#09061f" stroke="white" stroke-width="0" cx="890.4" cy="-376.19" rx="3.5" ry="3.5"/>
<text text-anchor="middle" x="874.4" y="-382.29" font-family="Helvetica,sans-Serif" font-size="8.00" fill="#4d4d4d">localité</text>
</g>
</g>
</svg>
