<?xml version="1.0" encoding="UTF-8" standalone="no"?>
<!DOCTYPE svg PUBLIC "-//W3C//DTD SVG 1.1//EN"
 "http://www.w3.org/Graphics/SVG/1.1/DTD/svg11.dtd">
<!-- Generated by graphviz version 2.43.0 (0)
 -->
<!-- Pages: 1 -->
<svg width="684pt" height="309pt"
 viewBox="0.00 0.00 683.56 309.33" xmlns="http://www.w3.org/2000/svg" xmlns:xlink="http://www.w3.org/1999/xlink">
<g id="graph0" class="graph" transform="scale(1 1) rotate(0) translate(4 305.33)">
<polygon fill="white" stroke="transparent" points="-4,4 -4,-305.33 679.56,-305.33 679.56,4 -4,4"/>
<!-- emploi&#45;&#45;pollution -->
<g id="edge1" class="edge">
<title>emploi&#45;&#45;pollution</title>
<path fill="none" stroke="darkgrey" stroke-width="10" d="M457.32,-142.08C428.18,-146.13 375.55,-153.44 340.35,-158.33"/>
</g>
<!-- emploi&#45;&#45;exploitation -->
<g id="edge2" class="edge">
<title>emploi&#45;&#45;exploitation</title>
<path fill="none" stroke="darkgrey" stroke-width="1.24" d="M487.73,-119.58C500.41,-92.26 522.55,-44.57 528.53,-31.69"/>
</g>
<!-- emploi&#45;&#45;impact environnemental -->
<g id="edge3" class="edge">
<title>emploi&#45;&#45;impact environnemental</title>
<path fill="none" stroke="darkgrey" stroke-width="5.81" d="M457.02,-139.85C434.28,-140.62 398.91,-141.82 377.5,-142.55"/>
</g>
<!-- emploi&#45;&#45;ressource -->
<g id="edge4" class="edge">
<title>emploi&#45;&#45;ressource</title>
<path fill="none" stroke="darkgrey" stroke-width="2.65" d="M470.92,-118.71C462.62,-96.85 449.78,-63.02 443.38,-46.15"/>
</g>
<!-- emploi&#45;&#45;démolition -->
<g id="edge5" class="edge">
<title>emploi&#45;&#45;démolition</title>
<path fill="none" stroke="darkgrey" stroke-width="1.09" d="M465.14,-156.23C444.71,-182.08 406.99,-229.82 394.1,-246.14"/>
</g>
<!-- emploi&#45;&#45;économie -->
<g id="edge6" class="edge">
<title>emploi&#45;&#45;économie</title>
<path fill="none" stroke="darkgrey" stroke-width="3.39" d="M463.13,-123.83C436.97,-98.1 384.81,-46.77 362.51,-24.83"/>
</g>
<!-- emploi&#45;&#45;végétalisation -->
<g id="edge7" class="edge">
<title>emploi&#45;&#45;végétalisation</title>
<path fill="none" stroke="darkgrey" stroke-width="2.89" d="M500.07,-141.51C542.37,-146.24 634.81,-156.59 661.32,-159.56"/>
</g>
<!-- emploi&#45;&#45;écologie -->
<g id="edge8" class="edge">
<title>emploi&#45;&#45;écologie</title>
<path fill="none" stroke="darkgrey" stroke-width="1.03" d="M475.57,-160.43C469.96,-199.18 458.56,-277.86 457.5,-285.15"/>
</g>
<!-- emploi&#45;&#45;automatisation -->
<g id="edge9" class="edge">
<title>emploi&#45;&#45;automatisation</title>
<path fill="none" stroke="darkgrey" stroke-width="1.74" d="M484.87,-159.72C489.56,-175.28 495.71,-195.68 498.87,-206.18"/>
</g>
<!-- pollution&#45;&#45;impact environnemental -->
<g id="edge12" class="edge">
<title>pollution&#45;&#45;impact environnemental</title>
<path fill="none" stroke="darkgrey" stroke-width="6.31" d="M338.53,-150.78C339.75,-150.33 340.94,-149.89 342.11,-149.46"/>
</g>
<!-- pollution&#45;&#45;ressource -->
<g id="edge13" class="edge">
<title>pollution&#45;&#45;ressource</title>
<path fill="none" stroke="darkgrey" stroke-width="2.62" d="M330.94,-138.42C362.06,-109.01 412.07,-61.76 431.45,-43.45"/>
</g>
<!-- pollution&#45;&#45;démolition -->
<g id="edge14" class="edge">
<title>pollution&#45;&#45;démolition</title>
<path fill="none" stroke="darkgrey" stroke-width="5.48" d="M329.66,-189.36C349.06,-209.55 374.33,-235.85 384.79,-246.73"/>
</g>
<!-- pollution&#45;&#45;économie -->
<g id="edge15" class="edge">
<title>pollution&#45;&#45;économie</title>
<path fill="none" stroke="darkgrey" stroke-width="7.58" d="M315.61,-128.78C325.72,-97.02 340.23,-51.48 347.5,-28.67"/>
</g>
<!-- pollution&#45;&#45;écologie -->
<g id="edge19" class="edge">
<title>pollution&#45;&#45;écologie</title>
<path fill="none" stroke="darkgrey" stroke-width="1.47" d="M333,-186.03C375.12,-219.77 449.98,-279.73 456.91,-285.28"/>
</g>
<!-- pollution&#45;&#45;automatisation -->
<g id="edge20" class="edge">
<title>pollution&#45;&#45;automatisation</title>
<path fill="none" stroke="darkgrey" stroke-width="1.09" d="M339.71,-172.19C387.36,-184.28 469.39,-205.08 493.86,-211.28"/>
</g>
<!-- pollution&#45;&#45;épuisable -->
<g id="edge10" class="edge">
<title>pollution&#45;&#45;épuisable</title>
<path fill="none" stroke="darkgrey" stroke-width="8.26" d="M275.13,-142.11C263.94,-134.07 251.82,-125.36 243.13,-119.11"/>
</g>
<!-- pollution&#45;&#45;montagne -->
<g id="edge11" class="edge">
<title>pollution&#45;&#45;montagne</title>
<path fill="none" stroke="darkgrey" stroke-width="1.24" d="M271.96,-178.7C227.97,-199.45 154.35,-234.18 147.54,-237.39"/>
</g>
<!-- pollution&#45;&#45;argent -->
<g id="edge16" class="edge">
<title>pollution&#45;&#45;argent</title>
<path fill="none" stroke="darkgrey" stroke-width="1.74" d="M270.23,-151.75C215.71,-133.46 114.63,-99.54 105.28,-96.4"/>
</g>
<!-- pollution&#45;&#45;technologie -->
<g id="edge17" class="edge">
<title>pollution&#45;&#45;technologie</title>
<path fill="none" stroke="darkgrey" stroke-width="1.85" d="M268.43,-165.83C211.89,-169.79 106.86,-177.14 86.11,-178.6"/>
</g>
<!-- pollution&#45;&#45;richesse -->
<g id="edge18" class="edge">
<title>pollution&#45;&#45;richesse</title>
<path fill="none" stroke="darkgrey" stroke-width="2.06" d="M315.66,-128.93C323.89,-103.34 334.25,-71.12 337.57,-60.8"/>
</g>
<!-- exploitation&#45;&#45;ressource -->
<g id="edge25" class="edge">
<title>exploitation&#45;&#45;ressource</title>
<path fill="none" stroke="darkgrey" d="M526.16,-28.73C513.16,-29.8 470.9,-33.28 450.58,-34.95"/>
</g>
<!-- impact environnemental&#45;&#45;ressource -->
<g id="edge26" class="edge">
<title>impact environnemental&#45;&#45;ressource</title>
<path fill="none" stroke="darkgrey" stroke-width="2.71" d="M369.99,-128.7C386.86,-106.16 418.91,-63.33 432.79,-44.79"/>
</g>
<!-- impact environnemental&#45;&#45;démolition -->
<g id="edge27" class="edge">
<title>impact environnemental&#45;&#45;démolition</title>
<path fill="none" stroke="darkgrey" stroke-width="1.09" d="M364.05,-160.62C370.85,-184.85 382.85,-227.6 387.61,-244.56"/>
</g>
<!-- impact environnemental&#45;&#45;économie -->
<g id="edge28" class="edge">
<title>impact environnemental&#45;&#45;économie</title>
<path fill="none" stroke="darkgrey" stroke-width="4.01" d="M358.14,-125.01C356.71,-99.24 354.13,-52.58 352.82,-28.99"/>
</g>
<!-- impact environnemental&#45;&#45;richesse -->
<g id="edge30" class="edge">
<title>impact environnemental&#45;&#45;richesse</title>
<path fill="none" stroke="darkgrey" stroke-width="1.27" d="M354.9,-125.41C349.93,-104.62 342.04,-71.66 339.48,-60.95"/>
</g>
<!-- impact environnemental&#45;&#45;conflit -->
<g id="edge29" class="edge">
<title>impact environnemental&#45;&#45;conflit</title>
<path fill="none" stroke="darkgrey" stroke-width="1.47" d="M347.5,-157.07C321.14,-188.53 258.14,-263.7 244.67,-279.77"/>
</g>
<!-- ressource&#45;&#45;économie -->
<g id="edge31" class="edge">
<title>ressource&#45;&#45;économie</title>
<path fill="none" stroke="darkgrey" stroke-width="1.35" d="M428.75,-33.24C413.06,-29.41 383.81,-22.27 366.31,-17.99"/>
</g>
<!-- épuisable&#45;&#45;impact environnemental -->
<g id="edge21" class="edge">
<title>épuisable&#45;&#45;impact environnemental</title>
<path fill="none" stroke="darkgrey" stroke-width="1.62" d="M245.28,-114.09C268.86,-120.11 316.02,-132.15 341.63,-138.7"/>
</g>
<!-- épuisable&#45;&#45;économie -->
<g id="edge22" class="edge">
<title>épuisable&#45;&#45;économie</title>
<path fill="none" stroke="darkgrey" stroke-width="2.36" d="M242.68,-101.26C265.86,-82.87 317.63,-41.78 340.63,-23.53"/>
</g>
<!-- épuisable&#45;&#45;conflit -->
<g id="edge23" class="edge">
<title>épuisable&#45;&#45;conflit</title>
<path fill="none" stroke="darkgrey" stroke-width="1.71" d="M232.03,-125.16C234.41,-162.44 240.6,-259.19 241.88,-279.18"/>
</g>
<!-- épuisable&#45;&#45;développement -->
<g id="edge24" class="edge">
<title>épuisable&#45;&#45;développement</title>
<path fill="none" stroke="darkgrey" stroke-width="1.09" d="M221.11,-99.89C202.28,-79.94 162.43,-37.74 152.18,-26.88"/>
</g>
<!-- emploi -->
<g id="node1" class="node">
<title>emploi</title>
<ellipse fill="#e45a31" stroke="white" stroke-width="0" cx="478.66" cy="-139.11" rx="21.5" ry="21.5"/>
<text text-anchor="middle" x="420.16" y="-167.33" font-family="Helvetica,sans-Serif" font-size="21.60" fill="#4d4d4d">emploi</text>
</g>
<!-- pollution -->
<g id="node2" class="node">
<title>pollution</title>
<ellipse fill="#fcffa4" stroke="white" stroke-width="0" cx="304.61" cy="-163.29" rx="36" ry="36"/>
<text text-anchor="middle" x="207.11" y="-207.89" font-family="Helvetica,sans-Serif" font-size="28.00" fill="#4d4d4d">pollution</text>
</g>
<!-- exploitation -->
<g id="node3" class="node">
<title>exploitation</title>
<ellipse fill="#0c0826" stroke="white" stroke-width="0" cx="530.05" cy="-28.41" rx="3.5" ry="3.5"/>
<text text-anchor="middle" x="486.05" y="-14.03" font-family="Helvetica,sans-Serif" font-size="13.60" fill="#4d4d4d">exploitation</text>
</g>
<!-- impact environnemental -->
<g id="node4" class="node">
<title>impact environnemental</title>
<ellipse fill="#c63d4d" stroke="white" stroke-width="0" cx="359.15" cy="-143.17" rx="18" ry="18"/>
<text text-anchor="middle" x="368.15" y="-109.17" font-family="Helvetica,sans-Serif" font-size="20.00" fill="#4d4d4d">impact environnemental</text>
</g>
<!-- ressource -->
<g id="node5" class="node">
<title>ressource</title>
<ellipse fill="#59106e" stroke="white" stroke-width="0" cx="439.47" cy="-35.86" rx="11" ry="11"/>
<text text-anchor="middle" x="386.97" y="-51.42" font-family="Helvetica,sans-Serif" font-size="16.80" fill="#4d4d4d">ressource</text>
</g>
<!-- démolition -->
<g id="node6" class="node">
<title>démolition</title>
<ellipse fill="#230c4c" stroke="white" stroke-width="0" cx="389.64" cy="-251.78" rx="7" ry="7"/>
<text text-anchor="middle" x="341.64" y="-263.62" font-family="Helvetica,sans-Serif" font-size="15.20" fill="#4d4d4d">démolition</text>
</g>
<!-- économie -->
<g id="node7" class="node">
<title>économie</title>
<ellipse fill="#8a226a" stroke="white" stroke-width="0" cx="352.01" cy="-14.5" rx="14.5" ry="14.5"/>
<text text-anchor="middle" x="292.01" y="-34.28" font-family="Helvetica,sans-Serif" font-size="18.40" fill="#4d4d4d">économie</text>
</g>
<!-- végétalisation -->
<g id="node8" class="node">
<title>végétalisation</title>
<ellipse fill="#510e6c" stroke="white" stroke-width="0" cx="668.56" cy="-160.37" rx="7" ry="7"/>
<text text-anchor="middle" x="607.56" y="-172.21" font-family="Helvetica,sans-Serif" font-size="15.20" fill="#4d4d4d">végétalisation</text>
</g>
<!-- écologie -->
<g id="node9" class="node">
<title>écologie</title>
<ellipse fill="#030210" stroke="white" stroke-width="0" cx="457.42" cy="-285.69" rx="0.5" ry="0.5"/>
<text text-anchor="middle" x="431.42" y="-289.59" font-family="Helvetica,sans-Serif" font-size="12.00" fill="#4d4d4d">écologie</text>
</g>
<!-- automatisation -->
<g id="node10" class="node">
<title>automatisation</title>
<ellipse fill="#2d0b59" stroke="white" stroke-width="0" cx="500.95" cy="-213.08" rx="7" ry="7"/>
<text text-anchor="middle" x="436.45" y="-224.92" font-family="Helvetica,sans-Serif" font-size="15.20" fill="#4d4d4d">automatisation</text>
</g>
<!-- épuisable -->
<g id="node11" class="node">
<title>épuisable</title>
<ellipse fill="#9f2a63" stroke="white" stroke-width="0" cx="231.09" cy="-110.46" rx="14.5" ry="14.5"/>
<text text-anchor="middle" x="171.09" y="-130.24" font-family="Helvetica,sans-Serif" font-size="18.40" fill="#4d4d4d">épuisable</text>
</g>
<!-- montagne -->
<g id="node12" class="node">
<title>montagne</title>
<ellipse fill="#010106" stroke="white" stroke-width="0" cx="147.03" cy="-237.63" rx="0.5" ry="0.5"/>
<text text-anchor="middle" x="115.53" y="-241.53" font-family="Helvetica,sans-Serif" font-size="12.00" fill="#4d4d4d">montagne</text>
</g>
<!-- argent -->
<g id="node13" class="node">
<title>argent</title>
<ellipse fill="#000004" stroke="white" stroke-width="0" cx="104.58" cy="-96.16" rx="0.5" ry="0.5"/>
<text text-anchor="middle" x="84.08" y="-100.06" font-family="Helvetica,sans-Serif" font-size="12.00" fill="#4d4d4d">argent</text>
</g>
<!-- technologie -->
<g id="node14" class="node">
<title>technologie</title>
<ellipse fill="#0d0829" stroke="white" stroke-width="0" cx="82.5" cy="-178.85" rx="3.5" ry="3.5"/>
<text text-anchor="middle" x="39.5" y="-186.47" font-family="Helvetica,sans-Serif" font-size="13.60" fill="#4d4d4d">technologie</text>
</g>
<!-- richesse -->
<g id="node15" class="node">
<title>richesse</title>
<ellipse fill="#0d0829" stroke="white" stroke-width="0" cx="338.64" cy="-57.46" rx="3.5" ry="3.5"/>
<text text-anchor="middle" x="307.64" y="-65.08" font-family="Helvetica,sans-Serif" font-size="13.60" fill="#4d4d4d">richesse</text>
</g>
<!-- conflit -->
<g id="node16" class="node">
<title>conflit</title>
<ellipse fill="#180c3c" stroke="white" stroke-width="0" cx="242.11" cy="-282.83" rx="3.5" ry="3.5"/>
<text text-anchor="middle" x="217.61" y="-290.45" font-family="Helvetica,sans-Serif" font-size="13.60" fill="#4d4d4d">conflit</text>
</g>
<!-- développement -->
<g id="node17" class="node">
<title>développement</title>
<ellipse fill="#0d0829" stroke="white" stroke-width="0" cx="149.74" cy="-24.29" rx="3.5" ry="3.5"/>
<text text-anchor="middle" x="92.24" y="-31.91" font-family="Helvetica,sans-Serif" font-size="13.60" fill="#4d4d4d">développement</text>
</g>
</g>
</svg>
