<?xml version="1.0" encoding="UTF-8" standalone="no"?>
<!DOCTYPE svg PUBLIC "-//W3C//DTD SVG 1.1//EN"
 "http://www.w3.org/Graphics/SVG/1.1/DTD/svg11.dtd">
<!-- Generated by graphviz version 2.43.0 (0)
 -->
<!-- Pages: 1 -->
<svg width="1242pt" height="1096pt"
 viewBox="0.00 0.00 1242.07 1096.18" xmlns="http://www.w3.org/2000/svg" xmlns:xlink="http://www.w3.org/1999/xlink">
<g id="graph0" class="graph" transform="scale(1 1) rotate(0) translate(4 1092.18)">
<polygon fill="white" stroke="transparent" points="-4,4 -4,-1092.18 1238.07,-1092.18 1238.07,4 -4,4"/>
<!-- pollution&#45;&#45;emploi -->
<g id="edge1" class="edge">
<title>pollution&#45;&#45;emploi</title>
<path fill="none" stroke="darkgrey" stroke-width="10" d="M595.33,-579.98C567.08,-570.96 523.36,-556.99 493.01,-547.29"/>
</g>
<!-- pollution&#45;&#45;richesse -->
<g id="edge2" class="edge">
<title>pollution&#45;&#45;richesse</title>
<path fill="none" stroke="darkgrey" stroke-width="2.34" d="M595.6,-579.55C521.7,-554.54 321.92,-486.94 273.87,-470.68"/>
</g>
<!-- pollution&#45;&#45;démolition -->
<g id="edge3" class="edge">
<title>pollution&#45;&#45;démolition</title>
<path fill="none" stroke="darkgrey" stroke-width="3.36" d="M615.98,-560.81C596.34,-484.84 542.94,-278.28 532.5,-237.88"/>
</g>
<!-- pollution&#45;&#45;argent -->
<g id="edge4" class="edge">
<title>pollution&#45;&#45;argent</title>
<path fill="none" stroke="darkgrey" stroke-width="2.28" d="M601.82,-608.79C538.98,-667.13 357.43,-835.69 323.94,-866.78"/>
</g>
<!-- pollution&#45;&#45;nickel -->
<g id="edge5" class="edge">
<title>pollution&#45;&#45;nickel</title>
<path fill="none" stroke="darkgrey" stroke-width="5.39" d="M595.14,-581.48C583.93,-578.52 570.97,-575.1 559.44,-572.05"/>
</g>
<!-- pollution&#45;&#45;nature -->
<g id="edge6" class="edge">
<title>pollution&#45;&#45;nature</title>
<path fill="none" stroke="darkgrey" stroke-width="1.06" d="M650.72,-598.49C763.83,-638 1188.55,-786.32 1208.39,-793.25"/>
</g>
<!-- pollution&#45;&#45;exploitation -->
<g id="edge7" class="edge">
<title>pollution&#45;&#45;exploitation</title>
<path fill="none" stroke="darkgrey" stroke-width="2.18" d="M621.97,-559.92C620.78,-533.03 619.07,-494.08 618.15,-473.08"/>
</g>
<!-- pollution&#45;&#45;montagne -->
<g id="edge8" class="edge">
<title>pollution&#45;&#45;montagne</title>
<path fill="none" stroke="darkgrey" stroke-width="1.74" d="M607.62,-564.3C561.8,-492.13 429.41,-283.63 404.99,-245.17"/>
</g>
<!-- pollution&#45;&#45;camion -->
<g id="edge9" class="edge">
<title>pollution&#45;&#45;camion</title>
<path fill="none" stroke="darkgrey" stroke-width="2.47" d="M612.63,-561.56C595,-516.17 560.47,-427.24 548.63,-396.75"/>
</g>
<!-- pollution&#45;&#45;économie -->
<g id="edge10" class="edge">
<title>pollution&#45;&#45;économie</title>
<path fill="none" stroke="darkgrey" stroke-width="5.03" d="M597.07,-601.63C561.5,-618.93 498.99,-649.34 469.54,-663.66"/>
</g>
<!-- pollution&#45;&#45;impact environnemental -->
<g id="edge11" class="edge">
<title>pollution&#45;&#45;impact environnemental</title>
<path fill="none" stroke="darkgrey" stroke-width="4.58" d="M600.52,-570.71C552.38,-532.17 441.04,-443.04 398.58,-409.06"/>
</g>
<!-- pollution&#45;&#45;terre -->
<g id="edge12" class="edge">
<title>pollution&#45;&#45;terre</title>
<path fill="none" stroke="darkgrey" stroke-width="1.69" d="M599.77,-571.27C522.68,-513.37 279.88,-331.01 239.64,-300.79"/>
</g>
<!-- pollution&#45;&#45;usine -->
<g id="edge13" class="edge">
<title>pollution&#45;&#45;usine</title>
<path fill="none" stroke="darkgrey" stroke-width="1.69" d="M629.02,-617.72C637.55,-660.3 653.03,-737.54 657.77,-761.19"/>
</g>
<!-- pollution&#45;&#45;érosion -->
<g id="edge14" class="edge">
<title>pollution&#45;&#45;érosion</title>
<path fill="none" stroke="darkgrey" stroke-width="1.02" d="M651.86,-582.78C769.7,-557.57 1212.15,-462.91 1232.82,-458.48"/>
</g>
<!-- pollution&#45;&#45;sln -->
<g id="edge15" class="edge">
<title>pollution&#45;&#45;sln</title>
<path fill="none" stroke="darkgrey" stroke-width="1.07" d="M598.63,-604.25C517.13,-655.06 258.82,-816.12 216.01,-842.81"/>
</g>
<!-- pollution&#45;&#45;ressource -->
<g id="edge16" class="edge">
<title>pollution&#45;&#45;ressource</title>
<path fill="none" stroke="darkgrey" stroke-width="1.4" d="M595.89,-598.66C530.54,-621.99 368.19,-679.93 333.45,-692.33"/>
</g>
<!-- pollution&#45;&#45;conflit -->
<g id="edge17" class="edge">
<title>pollution&#45;&#45;conflit</title>
<path fill="none" stroke="darkgrey" stroke-width="1.82" d="M645.45,-608.36C701.79,-657.73 847.97,-785.82 878.18,-812.29"/>
</g>
<!-- pollution&#45;&#45;développement -->
<g id="edge18" class="edge">
<title>pollution&#45;&#45;développement</title>
<path fill="none" stroke="darkgrey" stroke-width="2.08" d="M594.2,-587.7C486.3,-583.24 112.62,-567.78 72.08,-566.1"/>
</g>
<!-- pollution&#45;&#45;minerai -->
<g id="edge19" class="edge">
<title>pollution&#45;&#45;minerai</title>
<path fill="none" stroke="darkgrey" stroke-width="1.52" d="M613.02,-616.16C593.46,-668.28 551.76,-779.44 541.03,-808.05"/>
</g>
<!-- pollution&#45;&#45;déforestation -->
<g id="edge20" class="edge">
<title>pollution&#45;&#45;déforestation</title>
<path fill="none" stroke="darkgrey" stroke-width="2.21" d="M651.32,-581.18C725.03,-560.91 920.4,-507.2 949,-499.34"/>
</g>
<!-- emploi&#45;&#45;richesse -->
<g id="edge21" class="edge">
<title>emploi&#45;&#45;richesse</title>
<path fill="none" stroke="darkgrey" stroke-width="3.67" d="M424.65,-524.27C379.41,-508.24 301.89,-480.77 273.87,-470.85"/>
</g>
<!-- emploi&#45;&#45;démolition -->
<g id="edge22" class="edge">
<title>emploi&#45;&#45;démolition</title>
<path fill="none" stroke="darkgrey" stroke-width="2.07" d="M467,-501C483.82,-429.73 520.9,-272.54 529.09,-237.85"/>
</g>
<!-- emploi&#45;&#45;argent -->
<g id="edge23" class="edge">
<title>emploi&#45;&#45;argent</title>
<path fill="none" stroke="darkgrey" stroke-width="3.22" d="M444.73,-569.71C413.03,-645.6 337.12,-827.4 321.46,-864.9"/>
</g>
<!-- emploi&#45;&#45;nickel -->
<g id="edge24" class="edge">
<title>emploi&#45;&#45;nickel</title>
<path fill="none" stroke="darkgrey" stroke-width="6.64" d="M492.45,-549.7C494.1,-550.35 495.75,-551 497.38,-551.65"/>
</g>
<!-- emploi&#45;&#45;exploitation -->
<g id="edge25" class="edge">
<title>emploi&#45;&#45;exploitation</title>
<path fill="none" stroke="darkgrey" stroke-width="2.03" d="M491.19,-520.35C526.04,-503.24 579.66,-476.91 604.3,-464.82"/>
</g>
<!-- emploi&#45;&#45;montagne -->
<g id="edge26" class="edge">
<title>emploi&#45;&#45;montagne</title>
<path fill="none" stroke="darkgrey" stroke-width="1.19" d="M451.78,-500.76C438.29,-431.1 409.11,-280.46 402.46,-246.11"/>
</g>
<!-- emploi&#45;&#45;camion -->
<g id="edge27" class="edge">
<title>emploi&#45;&#45;camion</title>
<path fill="none" stroke="darkgrey" stroke-width="1.6" d="M476.67,-504.85C496.34,-470.46 526.69,-417.38 539.03,-395.81"/>
</g>
<!-- emploi&#45;&#45;économie -->
<g id="edge28" class="edge">
<title>emploi&#45;&#45;économie</title>
<path fill="none" stroke="darkgrey" stroke-width="7.26" d="M457.24,-572.56C456.2,-598.69 454.85,-632.85 454.04,-653.45"/>
</g>
<!-- emploi&#45;&#45;impact environnemental -->
<g id="edge29" class="edge">
<title>emploi&#45;&#45;impact environnemental</title>
<path fill="none" stroke="darkgrey" stroke-width="5.8" d="M441.4,-504.73C426.25,-477.01 404.71,-437.61 392.08,-414.51"/>
</g>
<!-- emploi&#45;&#45;terre -->
<g id="edge31" class="edge">
<title>emploi&#45;&#45;terre</title>
<path fill="none" stroke="darkgrey" stroke-width="1.67" d="M433.76,-509.74C381.89,-454.38 264.92,-329.55 239.08,-301.98"/>
</g>
<!-- emploi&#45;&#45;usine -->
<g id="edge32" class="edge">
<title>emploi&#45;&#45;usine</title>
<path fill="none" stroke="darkgrey" stroke-width="1.44" d="M482.46,-563.84C529.35,-618.08 631.18,-735.87 654.41,-762.73"/>
</g>
<!-- emploi&#45;&#45;sln -->
<g id="edge33" class="edge">
<title>emploi&#45;&#45;sln</title>
<path fill="none" stroke="darkgrey" stroke-width="1.41" d="M435.94,-564.68C380.54,-633.79 241.13,-807.7 214.43,-841.01"/>
</g>
<!-- emploi&#45;&#45;ressource -->
<g id="edge34" class="edge">
<title>emploi&#45;&#45;ressource</title>
<path fill="none" stroke="darkgrey" stroke-width="1.82" d="M435.41,-564.27C403.33,-602.81 347.63,-669.72 331.4,-689.21"/>
</g>
<!-- emploi&#45;&#45;conflit -->
<g id="edge36" class="edge">
<title>emploi&#45;&#45;conflit</title>
<path fill="none" stroke="darkgrey" stroke-width="2.83" d="M488.9,-556.29C577.84,-615.06 835.11,-785.02 877.69,-813.16"/>
</g>
<!-- emploi&#45;&#45;développement -->
<g id="edge37" class="edge">
<title>emploi&#45;&#45;développement</title>
<path fill="none" stroke="darkgrey" stroke-width="1.01" d="M422.66,-539.06C332.86,-545.88 103.93,-563.27 72.17,-565.68"/>
</g>
<!-- emploi&#45;&#45;minerai -->
<g id="edge38" class="edge">
<title>emploi&#45;&#45;minerai</title>
<path fill="none" stroke="darkgrey" stroke-width="1.25" d="M468.61,-571.04C487.41,-636.67 527.13,-775.29 536.47,-807.9"/>
</g>
<!-- emploi&#45;&#45;déforestation -->
<g id="edge39" class="edge">
<title>emploi&#45;&#45;déforestation</title>
<path fill="none" stroke="darkgrey" stroke-width="1.71" d="M494.58,-533.56C601.12,-525.38 910.38,-501.61 948.62,-498.67"/>
</g>
<!-- emploi&#45;&#45;terre rouge -->
<g id="edge30" class="edge">
<title>emploi&#45;&#45;terre rouge</title>
<path fill="none" stroke="darkgrey" stroke-width="1.06" d="M487.76,-557.85C562.36,-613.03 756.49,-756.64 783.42,-776.56"/>
</g>
<!-- emploi&#45;&#45;main d’oeuvre -->
<g id="edge35" class="edge">
<title>emploi&#45;&#45;main d’oeuvre</title>
<path fill="none" stroke="darkgrey" stroke-width="1.16" d="M459.48,-500.12C462.02,-387.22 469.67,-46.76 470.55,-7.25"/>
</g>
<!-- richesse&#45;&#45;démolition -->
<g id="edge40" class="edge">
<title>richesse&#45;&#45;démolition</title>
<path fill="none" stroke="darkgrey" stroke-width="1.13" d="M271.67,-459.8C312.56,-423.68 492.08,-265.1 525.39,-235.68"/>
</g>
<!-- richesse&#45;&#45;nickel -->
<g id="edge41" class="edge">
<title>richesse&#45;&#45;nickel</title>
<path fill="none" stroke="darkgrey" stroke-width="2.31" d="M273.74,-470.91C310.8,-484.45 437.62,-530.76 496.88,-552.4"/>
</g>
<!-- richesse&#45;&#45;exploitation -->
<g id="edge42" class="edge">
<title>richesse&#45;&#45;exploitation</title>
<path fill="none" stroke="darkgrey" stroke-width="1.31" d="M274.76,-466.85C327.08,-465.55 544.49,-460.15 602.96,-458.7"/>
</g>
<!-- richesse&#45;&#45;économie -->
<g id="edge43" class="edge">
<title>richesse&#45;&#45;économie</title>
<path fill="none" stroke="darkgrey" stroke-width="1.83" d="M271.06,-475.4C300.28,-506.84 404.68,-619.2 440.87,-658.14"/>
</g>
<!-- richesse&#45;&#45;impact environnemental -->
<g id="edge44" class="edge">
<title>richesse&#45;&#45;impact environnemental</title>
<path fill="none" stroke="darkgrey" stroke-width="2" d="M273.06,-461.27C292.71,-449.39 337.57,-422.26 363.08,-406.83"/>
</g>
<!-- richesse&#45;&#45;terre -->
<g id="edge45" class="edge">
<title>richesse&#45;&#45;terre</title>
<path fill="none" stroke="darkgrey" stroke-width="1.37" d="M261.49,-456.2C255.94,-423.99 239.74,-330.03 235.18,-303.55"/>
</g>
<!-- richesse&#45;&#45;ressource -->
<g id="edge46" class="edge">
<title>richesse&#45;&#45;ressource</title>
<path fill="none" stroke="darkgrey" stroke-width="1.04" d="M266.35,-477.8C277.38,-517.34 315.75,-654.91 324.88,-687.65"/>
</g>
<!-- démolition&#45;&#45;nickel -->
<g id="edge47" class="edge">
<title>démolition&#45;&#45;nickel</title>
<path fill="none" stroke="darkgrey" stroke-width="1.11" d="M530.65,-238.24C530.32,-276.54 528.78,-456.19 528.14,-530.95"/>
</g>
<!-- démolition&#45;&#45;exploitation -->
<g id="edge48" class="edge">
<title>démolition&#45;&#45;exploitation</title>
<path fill="none" stroke="darkgrey" stroke-width="1.05" d="M533.21,-237.54C545.08,-268.63 595.78,-401.43 612.28,-444.67"/>
</g>
<!-- démolition&#45;&#45;impact environnemental -->
<g id="edge49" class="edge">
<title>démolition&#45;&#45;impact environnemental</title>
<path fill="none" stroke="darkgrey" stroke-width="1.39" d="M525.75,-236.46C505.51,-258.82 428.63,-343.75 396.24,-379.52"/>
</g>
<!-- argent&#45;&#45;nickel -->
<g id="edge50" class="edge">
<title>argent&#45;&#45;nickel</title>
<path fill="none" stroke="darkgrey" stroke-width="2.84" d="M322.59,-865.86C345.76,-831.76 463.45,-658.52 509.42,-590.85"/>
</g>
<!-- argent&#45;&#45;économie -->
<g id="edge51" class="edge">
<title>argent&#45;&#45;économie</title>
<path fill="none" stroke="darkgrey" stroke-width="1.01" d="M322.78,-865.53C341.26,-838.08 415.89,-727.18 443.23,-686.55"/>
</g>
<!-- nickel&#45;&#45;exploitation -->
<g id="edge52" class="edge">
<title>nickel&#45;&#45;exploitation</title>
<path fill="none" stroke="darkgrey" stroke-width="3.08" d="M549.1,-538.74C567.74,-516.83 593.98,-485.98 607.92,-469.6"/>
</g>
<!-- nickel&#45;&#45;montagne -->
<g id="edge53" class="edge">
<title>nickel&#45;&#45;montagne</title>
<path fill="none" stroke="darkgrey" stroke-width="2.33" d="M515.93,-533.17C487.7,-460.87 418.08,-282.56 403.71,-245.75"/>
</g>
<!-- nickel&#45;&#45;camion -->
<g id="edge54" class="edge">
<title>nickel&#45;&#45;camion</title>
<path fill="none" stroke="darkgrey" stroke-width="3.51" d="M530.91,-531.15C534.71,-490.72 540.99,-423.84 543.47,-397.43"/>
</g>
<!-- nickel&#45;&#45;économie -->
<g id="edge55" class="edge">
<title>nickel&#45;&#45;économie</title>
<path fill="none" stroke="darkgrey" stroke-width="3.88" d="M509.24,-590.65C494.84,-611.48 475.43,-639.56 463.68,-656.57"/>
</g>
<!-- nickel&#45;&#45;impact environnemental -->
<g id="edge56" class="edge">
<title>nickel&#45;&#45;impact environnemental</title>
<path fill="none" stroke="darkgrey" stroke-width="2.97" d="M506.29,-538.9C475.96,-504 421.55,-441.39 395.87,-411.84"/>
</g>
<!-- nickel&#45;&#45;terre -->
<g id="edge59" class="edge">
<title>nickel&#45;&#45;terre</title>
<path fill="none" stroke="darkgrey" stroke-width="1.61" d="M503.8,-541.85C440.47,-484.27 271.73,-330.85 239.37,-301.44"/>
</g>
<!-- nickel&#45;&#45;usine -->
<g id="edge60" class="edge">
<title>nickel&#45;&#45;usine</title>
<path fill="none" stroke="darkgrey" stroke-width="3.25" d="M545.57,-591.3C576.65,-639.72 639.27,-737.24 655.35,-762.29"/>
</g>
<!-- nickel&#45;&#45;sln -->
<g id="edge61" class="edge">
<title>nickel&#45;&#45;sln</title>
<path fill="none" stroke="darkgrey" stroke-width="3.78" d="M503.44,-585.44C435.98,-645.47 249.77,-811.16 215.45,-841.7"/>
</g>
<!-- nickel&#45;&#45;ressource -->
<g id="edge62" class="edge">
<title>nickel&#45;&#45;ressource</title>
<path fill="none" stroke="darkgrey" stroke-width="1.61" d="M500.33,-581.65C452.8,-612.61 358.04,-674.36 333.02,-690.66"/>
</g>
<!-- nickel&#45;&#45;minerai -->
<g id="edge64" class="edge">
<title>nickel&#45;&#45;minerai</title>
<path fill="none" stroke="darkgrey" stroke-width="2.99" d="M529.23,-596.29C531.73,-655.49 536.88,-777.42 538.17,-807.87"/>
</g>
<!-- nickel&#45;&#45;déforestation -->
<g id="edge65" class="edge">
<title>nickel&#45;&#45;déforestation</title>
<path fill="none" stroke="darkgrey" stroke-width="1.55" d="M560.12,-558.75C652.64,-544.51 914.42,-504.24 948.77,-498.95"/>
</g>
<!-- nickel&#45;&#45;terre rouge -->
<g id="edge58" class="edge">
<title>nickel&#45;&#45;terre rouge</title>
<path fill="none" stroke="darkgrey" stroke-width="2.22" d="M553.13,-584.73C613.13,-634.64 760.87,-757.52 783.58,-776.41"/>
</g>
<!-- nickel&#45;&#45;roche -->
<g id="edge57" class="edge">
<title>nickel&#45;&#45;roche</title>
<path fill="none" stroke="darkgrey" stroke-width="2.03" d="M537.98,-532.45C569.45,-435.35 664.32,-142.56 680.03,-94.07"/>
</g>
<!-- nickel&#45;&#45;usine du sud -->
<g id="edge63" class="edge">
<title>nickel&#45;&#45;usine du sud</title>
<path fill="none" stroke="darkgrey" stroke-width="1.63" d="M517.61,-594.97C483.31,-699.61 373.95,-1033.26 361.25,-1072"/>
</g>
<!-- nickel&#45;&#45;exportation -->
<g id="edge66" class="edge">
<title>nickel&#45;&#45;exportation</title>
<path fill="none" stroke="darkgrey" stroke-width="1.03" d="M552.06,-541.64C620.46,-479.27 811.81,-304.77 836.93,-281.86"/>
</g>
<!-- exploitation&#45;&#45;camion -->
<g id="edge67" class="edge">
<title>exploitation&#45;&#45;camion</title>
<path fill="none" stroke="darkgrey" stroke-width="1.13" d="M607.04,-448C592.38,-433.51 566.02,-407.45 552.71,-394.28"/>
</g>
<!-- exploitation&#45;&#45;économie -->
<g id="edge68" class="edge">
<title>exploitation&#45;&#45;économie</title>
<path fill="none" stroke="darkgrey" stroke-width="1.1" d="M608.44,-470.11C580.41,-506.51 495.14,-617.24 464.47,-657.08"/>
</g>
<!-- exploitation&#45;&#45;impact environnemental -->
<g id="edge69" class="edge">
<title>exploitation&#45;&#45;impact environnemental</title>
<path fill="none" stroke="darkgrey" stroke-width="2.21" d="M603.45,-454.6C563.6,-443.99 449.64,-413.64 402.51,-401.1"/>
</g>
<!-- exploitation&#45;&#45;usine -->
<g id="edge71" class="edge">
<title>exploitation&#45;&#45;usine</title>
<path fill="none" stroke="darkgrey" stroke-width="1.4" d="M619.45,-472.87C626.84,-527.8 652.92,-721.64 658.24,-761.18"/>
</g>
<!-- exploitation&#45;&#45;ressource -->
<g id="edge72" class="edge">
<title>exploitation&#45;&#45;ressource</title>
<path fill="none" stroke="darkgrey" stroke-width="2" d="M606.1,-467.6C557.4,-507.2 367.62,-661.53 332.46,-690.11"/>
</g>
<!-- exploitation&#45;&#45;minerai -->
<g id="edge73" class="edge">
<title>exploitation&#45;&#45;minerai</title>
<path fill="none" stroke="darkgrey" stroke-width="2.53" d="M614.3,-472.76C600.9,-533.21 549.51,-765.07 539.99,-808.01"/>
</g>
<!-- exploitation&#45;&#45;roche -->
<g id="edge70" class="edge">
<title>exploitation&#45;&#45;roche</title>
<path fill="none" stroke="darkgrey" stroke-width="1.04" d="M620.04,-443.79C630.88,-381.61 673.16,-139.29 680.99,-94.4"/>
</g>
<!-- montagne&#45;&#45;camion -->
<g id="edge74" class="edge">
<title>montagne&#45;&#45;camion</title>
<path fill="none" stroke="darkgrey" stroke-width="1.35" d="M406.19,-244.27C427.65,-266.29 510.64,-351.43 536.67,-378.13"/>
</g>
<!-- montagne&#45;&#45;économie -->
<g id="edge75" class="edge">
<title>montagne&#45;&#45;économie</title>
<path fill="none" stroke="darkgrey" d="M401.95,-246.18C407.84,-294.95 442.15,-579.02 451.16,-653.61"/>
</g>
<!-- montagne&#45;&#45;terre -->
<g id="edge77" class="edge">
<title>montagne&#45;&#45;terre</title>
<path fill="none" stroke="darkgrey" stroke-width="1.32" d="M394.33,-241.36C367.34,-250.65 267.44,-285.01 240.63,-294.24"/>
</g>
<!-- montagne&#45;&#45;roche -->
<g id="edge76" class="edge">
<title>montagne&#45;&#45;roche</title>
<path fill="none" stroke="darkgrey" stroke-width="1.43" d="M407.49,-235.58C445.25,-215.19 638.58,-110.81 675.98,-90.61"/>
</g>
<!-- camion&#45;&#45;économie -->
<g id="edge78" class="edge">
<title>camion&#45;&#45;économie</title>
<path fill="none" stroke="darkgrey" stroke-width="1.06" d="M541.17,-396.69C527.52,-439.42 476,-600.6 458.89,-654.14"/>
</g>
<!-- camion&#45;&#45;impact environnemental -->
<g id="edge79" class="edge">
<title>camion&#45;&#45;impact environnemental</title>
<path fill="none" stroke="darkgrey" stroke-width="1.09" d="M533.34,-386.84C506.54,-388.38 438.32,-392.31 403.26,-394.32"/>
</g>
<!-- camion&#45;&#45;terre -->
<g id="edge81" class="edge">
<title>camion&#45;&#45;terre</title>
<path fill="none" stroke="darkgrey" stroke-width="1.28" d="M533.84,-383.11C484.67,-368.91 280.94,-310.09 240.84,-298.51"/>
</g>
<!-- camion&#45;&#45;usine -->
<g id="edge82" class="edge">
<title>camion&#45;&#45;usine</title>
<path fill="none" stroke="darkgrey" stroke-width="1.63" d="M547.71,-396.81C564.61,-453.1 643.42,-715.73 657.15,-761.46"/>
</g>
<!-- camion&#45;&#45;minerai -->
<g id="edge83" class="edge">
<title>camion&#45;&#45;minerai</title>
<path fill="none" stroke="darkgrey" stroke-width="1.39" d="M544.37,-397.22C543.5,-458.69 539.27,-757.99 538.57,-807.84"/>
</g>
<!-- camion&#45;&#45;roche -->
<g id="edge80" class="edge">
<title>camion&#45;&#45;roche</title>
<path fill="none" stroke="darkgrey" stroke-width="1.51" d="M549.27,-375.9C571.12,-328.47 661.81,-131.59 679.31,-93.59"/>
</g>
<!-- économie&#45;&#45;impact environnemental -->
<g id="edge84" class="edge">
<title>économie&#45;&#45;impact environnemental</title>
<path fill="none" stroke="darkgrey" stroke-width="5.85" d="M448.74,-653.86C436.08,-605.09 400.72,-468.79 387.14,-416.42"/>
</g>
<!-- économie&#45;&#45;usine -->
<g id="edge85" class="edge">
<title>économie&#45;&#45;usine</title>
<path fill="none" stroke="darkgrey" stroke-width="1.28" d="M469.82,-679.3C512.38,-699.29 624.49,-751.96 652.68,-765.2"/>
</g>
<!-- économie&#45;&#45;sln -->
<g id="edge86" class="edge">
<title>économie&#45;&#45;sln</title>
<path fill="none" stroke="darkgrey" stroke-width="1.05" d="M438.47,-682.23C391.41,-716.08 246.93,-819.99 215.89,-842.32"/>
</g>
<!-- économie&#45;&#45;conflit -->
<g id="edge87" class="edge">
<title>économie&#45;&#45;conflit</title>
<path fill="none" stroke="darkgrey" stroke-width="1.33" d="M470.46,-677.35C543.78,-702.15 829.51,-798.8 876.99,-814.86"/>
</g>
<!-- impact environnemental&#45;&#45;terre -->
<g id="edge88" class="edge">
<title>impact environnemental&#45;&#45;terre</title>
<path fill="none" stroke="darkgrey" stroke-width="1.23" d="M363.61,-383.42C330.32,-361.1 260.91,-314.59 240.03,-300.59"/>
</g>
<!-- impact environnemental&#45;&#45;ressource -->
<g id="edge89" class="edge">
<title>impact environnemental&#45;&#45;ressource</title>
<path fill="none" stroke="darkgrey" stroke-width="1.2" d="M377.78,-417.07C366.57,-478.16 334.93,-650.64 328.14,-687.64"/>
</g>
<!-- impact environnemental&#45;&#45;développement -->
<g id="edge90" class="edge">
<title>impact environnemental&#45;&#45;développement</title>
<path fill="none" stroke="darkgrey" stroke-width="1.22" d="M362.6,-405.96C299.38,-440.36 99.51,-549.09 71.72,-564.2"/>
</g>
<!-- impact environnemental&#45;&#45;exportation -->
<g id="edge91" class="edge">
<title>impact environnemental&#45;&#45;exportation</title>
<path fill="none" stroke="darkgrey" stroke-width="1.19" d="M402.59,-390.27C486.93,-368.87 799.82,-289.48 836.2,-280.25"/>
</g>
<!-- usine&#45;&#45;minerai -->
<g id="edge92" class="edge">
<title>usine&#45;&#45;minerai</title>
<path fill="none" stroke="darkgrey" stroke-width="2.18" d="M652.35,-770.9C631.1,-779.1 566.37,-804.1 545.23,-812.27"/>
</g>
<!-- érosion&#45;&#45;déforestation -->
<g id="edge93" class="edge">
<title>érosion&#45;&#45;déforestation</title>
<path fill="none" stroke="darkgrey" stroke-width="1.17" d="M1232.76,-458.44C1217.44,-460.62 988.38,-493.26 956.25,-497.84"/>
</g>
<!-- sln&#45;&#45;usine du sud -->
<g id="edge94" class="edge">
<title>sln&#45;&#45;usine du sud</title>
<path fill="none" stroke="darkgrey" stroke-width="1.28" d="M213.99,-852.7C236.08,-886.43 342.45,-1048.82 358.11,-1072.74"/>
</g>
<!-- ressource&#45;&#45;minerai -->
<g id="edge95" class="edge">
<title>ressource&#45;&#45;minerai</title>
<path fill="none" stroke="darkgrey" stroke-width="1.67" d="M332.95,-698.15C363.72,-715.63 501.51,-793.89 532.34,-811.4"/>
</g>
<!-- pollution -->
<g id="node1" class="node">
<title>pollution</title>
<ellipse fill="#fc9f07" stroke="white" stroke-width="0" cx="623.24" cy="-588.9" rx="29" ry="29"/>
<text text-anchor="middle" x="575.74" y="-620.5" font-family="Helvetica,sans-Serif" font-size="8.00" fill="#4d4d4d">pollution</text>
</g>
<!-- emploi -->
<g id="node2" class="node">
<title>emploi</title>
<ellipse fill="#fcffa4" stroke="white" stroke-width="0" cx="458.67" cy="-536.32" rx="36" ry="36"/>
<text text-anchor="middle" x="408.67" y="-574.92" font-family="Helvetica,sans-Serif" font-size="8.00" fill="#4d4d4d">emploi</text>
</g>
<!-- richesse -->
<g id="node3" class="node">
<title>richesse</title>
<ellipse fill="#65156e" stroke="white" stroke-width="0" cx="263.38" cy="-467.13" rx="11" ry="11"/>
<text text-anchor="middle" x="234.88" y="-480.73" font-family="Helvetica,sans-Serif" font-size="8.00" fill="#4d4d4d">richesse</text>
</g>
<!-- démolition -->
<g id="node4" class="node">
<title>démolition</title>
<ellipse fill="#340a5f" stroke="white" stroke-width="0" cx="530.71" cy="-230.98" rx="7" ry="7"/>
<text text-anchor="middle" x="501.71" y="-240.58" font-family="Helvetica,sans-Serif" font-size="8.00" fill="#4d4d4d">démolition</text>
</g>
<!-- argent -->
<g id="node5" class="node">
<title>argent</title>
<ellipse fill="#4c0c6b" stroke="white" stroke-width="0" cx="318.6" cy="-871.74" rx="7" ry="7"/>
<text text-anchor="middle" x="297.6" y="-881.34" font-family="Helvetica,sans-Serif" font-size="8.00" fill="#4d4d4d">argent</text>
</g>
<!-- nickel -->
<g id="node6" class="node">
<title>nickel</title>
<ellipse fill="#f8cf3a" stroke="white" stroke-width="0" cx="527.85" cy="-563.71" rx="32.5" ry="32.5"/>
<text text-anchor="middle" x="483.35" y="-598.81" font-family="Helvetica,sans-Serif" font-size="8.00" fill="#4d4d4d">nickel</text>
</g>
<!-- nature -->
<g id="node7" class="node">
<title>nature</title>
<ellipse fill="#010005" stroke="white" stroke-width="0" cx="1209.11" cy="-793.5" rx="0.5" ry="0.5"/>
<text text-anchor="middle" x="1195.11" y="-796.6" font-family="Helvetica,sans-Serif" font-size="8.00" fill="#4d4d4d">nature</text>
</g>
<!-- exploitation -->
<g id="node8" class="node">
<title>exploitation</title>
<ellipse fill="#902568" stroke="white" stroke-width="0" cx="617.5" cy="-458.34" rx="14.5" ry="14.5"/>
<text text-anchor="middle" x="578.5" y="-475.44" font-family="Helvetica,sans-Serif" font-size="8.00" fill="#4d4d4d">exploitation</text>
</g>
<!-- montagne -->
<g id="node9" class="node">
<title>montagne</title>
<ellipse fill="#380962" stroke="white" stroke-width="0" cx="401.09" cy="-239.04" rx="7" ry="7"/>
<text text-anchor="middle" x="372.59" y="-248.64" font-family="Helvetica,sans-Serif" font-size="8.00" fill="#4d4d4d">montagne</text>
</g>
<!-- camion -->
<g id="node10" class="node">
<title>camion</title>
<ellipse fill="#61136e" stroke="white" stroke-width="0" cx="544.53" cy="-386.2" rx="11" ry="11"/>
<text text-anchor="middle" x="518.03" y="-399.8" font-family="Helvetica,sans-Serif" font-size="8.00" fill="#4d4d4d">camion</text>
</g>
<!-- économie -->
<g id="node11" class="node">
<title>économie</title>
<ellipse fill="#c03a51" stroke="white" stroke-width="0" cx="453.32" cy="-671.55" rx="18" ry="18"/>
<text text-anchor="middle" x="414.82" y="-692.15" font-family="Helvetica,sans-Serif" font-size="8.00" fill="#4d4d4d">économie</text>
</g>
<!-- impact environnemental -->
<g id="node12" class="node">
<title>impact environnemental</title>
<ellipse fill="#cf4446" stroke="white" stroke-width="0" cx="381.73" cy="-395.56" rx="21.5" ry="21.5"/>
<text text-anchor="middle" x="310.23" y="-419.66" font-family="Helvetica,sans-Serif" font-size="8.00" fill="#4d4d4d">impact environnemental</text>
</g>
<!-- terre -->
<g id="node13" class="node">
<title>terre</title>
<ellipse fill="#340a5f" stroke="white" stroke-width="0" cx="233.97" cy="-296.53" rx="7" ry="7"/>
<text text-anchor="middle" x="217.47" y="-306.13" font-family="Helvetica,sans-Serif" font-size="8.00" fill="#4d4d4d">terre</text>
</g>
<!-- usine -->
<g id="node14" class="node">
<title>usine</title>
<ellipse fill="#4a0c6b" stroke="white" stroke-width="0" cx="659.19" cy="-768.26" rx="7" ry="7"/>
<text text-anchor="middle" x="640.69" y="-777.86" font-family="Helvetica,sans-Serif" font-size="8.00" fill="#4d4d4d">usine</text>
</g>
<!-- érosion -->
<g id="node15" class="node">
<title>érosion</title>
<ellipse fill="#000004" stroke="white" stroke-width="0" cx="1233.57" cy="-458.32" rx="0.5" ry="0.5"/>
<text text-anchor="middle" x="1217.57" y="-461.42" font-family="Helvetica,sans-Serif" font-size="8.00" fill="#4d4d4d">érosion</text>
</g>
<!-- sln -->
<g id="node16" class="node">
<title>sln</title>
<ellipse fill="#380962" stroke="white" stroke-width="0" cx="209.97" cy="-846.57" rx="7" ry="7"/>
<text text-anchor="middle" x="196.47" y="-856.17" font-family="Helvetica,sans-Serif" font-size="8.00" fill="#4d4d4d">sln</text>
</g>
<!-- ressource -->
<g id="node17" class="node">
<title>ressource</title>
<ellipse fill="#3e0966" stroke="white" stroke-width="0" cx="326.85" cy="-694.68" rx="7" ry="7"/>
<text text-anchor="middle" x="299.85" y="-704.28" font-family="Helvetica,sans-Serif" font-size="8.00" fill="#4d4d4d">ressource</text>
</g>
<!-- conflit -->
<g id="node18" class="node">
<title>conflit</title>
<ellipse fill="#310a5c" stroke="white" stroke-width="0" cx="883.69" cy="-817.12" rx="7" ry="7"/>
<text text-anchor="middle" x="863.69" y="-826.72" font-family="Helvetica,sans-Serif" font-size="8.00" fill="#4d4d4d">conflit</text>
</g>
<!-- développement -->
<g id="node19" class="node">
<title>développement</title>
<ellipse fill="#060419" stroke="white" stroke-width="0" cx="68.5" cy="-565.96" rx="3.5" ry="3.5"/>
<text text-anchor="middle" x="32.5" y="-572.06" font-family="Helvetica,sans-Serif" font-size="8.00" fill="#4d4d4d">développement</text>
</g>
<!-- minerai -->
<g id="node20" class="node">
<title>minerai</title>
<ellipse fill="#4d0d6c" stroke="white" stroke-width="0" cx="538.47" cy="-814.88" rx="7" ry="7"/>
<text text-anchor="middle" x="515.97" y="-824.48" font-family="Helvetica,sans-Serif" font-size="8.00" fill="#4d4d4d">minerai</text>
</g>
<!-- déforestation -->
<g id="node21" class="node">
<title>déforestation</title>
<ellipse fill="#160b39" stroke="white" stroke-width="0" cx="952.51" cy="-498.38" rx="3.5" ry="3.5"/>
<text text-anchor="middle" x="921.51" y="-504.48" font-family="Helvetica,sans-Serif" font-size="8.00" fill="#4d4d4d">déforestation</text>
</g>
<!-- terre rouge -->
<g id="node22" class="node">
<title>terre rouge</title>
<ellipse fill="#180c3c" stroke="white" stroke-width="0" cx="786.54" cy="-778.87" rx="3.5" ry="3.5"/>
<text text-anchor="middle" x="760.54" y="-784.97" font-family="Helvetica,sans-Serif" font-size="8.00" fill="#4d4d4d">terre rouge</text>
</g>
<!-- main d’oeuvre -->
<g id="node23" class="node">
<title>main d’oeuvre</title>
<ellipse fill="#150b37" stroke="white" stroke-width="0" cx="470.64" cy="-3.5" rx="3.5" ry="3.5"/>
<text text-anchor="middle" x="438.14" y="-9.6" font-family="Helvetica,sans-Serif" font-size="8.00" fill="#4d4d4d">main d’oeuvre</text>
</g>
<!-- roche -->
<g id="node24" class="node">
<title>roche</title>
<ellipse fill="#490b6a" stroke="white" stroke-width="0" cx="682.24" cy="-87.23" rx="7" ry="7"/>
<text text-anchor="middle" x="663.74" y="-96.83" font-family="Helvetica,sans-Serif" font-size="8.00" fill="#4d4d4d">roche</text>
</g>
<!-- usine du sud -->
<g id="node25" class="node">
<title>usine du sud</title>
<ellipse fill="#040314" stroke="white" stroke-width="0" cx="360.04" cy="-1075.68" rx="3.5" ry="3.5"/>
<text text-anchor="middle" x="330.04" y="-1081.78" font-family="Helvetica,sans-Serif" font-size="8.00" fill="#4d4d4d">usine du sud</text>
</g>
<!-- exportation -->
<g id="node26" class="node">
<title>exportation</title>
<ellipse fill="#07051b" stroke="white" stroke-width="0" cx="839.66" cy="-279.37" rx="3.5" ry="3.5"/>
<text text-anchor="middle" x="812.66" y="-285.47" font-family="Helvetica,sans-Serif" font-size="8.00" fill="#4d4d4d">exportation</text>
</g>
</g>
</svg>
