<?xml version="1.0" encoding="UTF-8" standalone="no"?>
<!DOCTYPE svg PUBLIC "-//W3C//DTD SVG 1.1//EN"
 "http://www.w3.org/Graphics/SVG/1.1/DTD/svg11.dtd">
<!-- Generated by graphviz version 2.43.0 (0)
 -->
<!-- Pages: 1 -->
<svg width="793pt" height="569pt"
 viewBox="0.00 0.00 793.05 569.43" xmlns="http://www.w3.org/2000/svg" xmlns:xlink="http://www.w3.org/1999/xlink">
<g id="graph0" class="graph" transform="scale(1 1) rotate(0) translate(4 565.43)">
<polygon fill="white" stroke="transparent" points="-4,4 -4,-565.43 789.05,-565.43 789.05,4 -4,4"/>
<!-- fin&#45;&#45;emploi -->
<g id="edge1" class="edge">
<title>fin&#45;&#45;emploi</title>
<path fill="none" stroke="darkgrey" stroke-width="1.34" d="M391.1,-462.18C370.91,-435.27 321.21,-369.04 299.03,-339.47"/>
</g>
<!-- fin&#45;&#45;pollution -->
<g id="edge2" class="edge">
<title>fin&#45;&#45;pollution</title>
<path fill="none" stroke="darkgrey" stroke-width="2.14" d="M405.4,-460.22C416.93,-431.72 443.67,-365.65 457.98,-330.29"/>
</g>
<!-- fin&#45;&#45;épuisement de la ressource -->
<g id="edge3" class="edge">
<title>fin&#45;&#45;épuisement de la ressource</title>
<path fill="none" stroke="darkgrey" stroke-width="1.46" d="M413.25,-467.75C434.68,-457.94 476.23,-438.91 495.39,-430.14"/>
</g>
<!-- fin&#45;&#45;impact environnemental -->
<g id="edge4" class="edge">
<title>fin&#45;&#45;impact environnemental</title>
<path fill="none" stroke="darkgrey" stroke-width="2.4" d="M406.69,-460.94C425.13,-425.91 476.44,-328.45 503.3,-277.43"/>
</g>
<!-- emploi&#45;&#45;pollution -->
<g id="edge5" class="edge">
<title>emploi&#45;&#45;pollution</title>
<path fill="none" stroke="darkgrey" stroke-width="4.94" d="M306.21,-323C338.46,-319.79 405.7,-313.1 442.33,-309.46"/>
</g>
<!-- emploi&#45;&#45;impact environnemental -->
<g id="edge6" class="edge">
<title>emploi&#45;&#45;impact environnemental</title>
<path fill="none" stroke="darkgrey" stroke-width="4.88" d="M305.1,-318.96C343.11,-305.95 435.33,-274.39 485.79,-257.12"/>
</g>
<!-- emploi&#45;&#45;conflit -->
<g id="edge7" class="edge">
<title>emploi&#45;&#45;conflit</title>
<path fill="none" stroke="darkgrey" stroke-width="1.18" d="M306.24,-325.85C355.6,-328.7 490.8,-336.49 530.36,-338.76"/>
</g>
<!-- emploi&#45;&#45;économie du pays -->
<g id="edge8" class="edge">
<title>emploi&#45;&#45;économie du pays</title>
<path fill="none" stroke="darkgrey" stroke-width="3.12" d="M304.91,-331.26C330.04,-340.87 376.51,-358.65 397.23,-366.57"/>
</g>
<!-- emploi&#45;&#45;amélioration environnementale -->
<g id="edge9" class="edge">
<title>emploi&#45;&#45;amélioration environnementale</title>
<path fill="none" stroke="darkgrey" stroke-width="3.42" d="M292.63,-307.22C302.3,-270.32 324.62,-185.18 334.31,-148.2"/>
</g>
<!-- emploi&#45;&#45;famille -->
<g id="edge10" class="edge">
<title>emploi&#45;&#45;famille</title>
<path fill="none" stroke="darkgrey" stroke-width="1.09" d="M271.12,-331.39C226.05,-348.93 105.71,-395.79 94.52,-400.14"/>
</g>
<!-- emploi&#45;&#45;développement durable -->
<g id="edge11" class="edge">
<title>emploi&#45;&#45;développement durable</title>
<path fill="none" stroke="darkgrey" stroke-width="1.02" d="M284.16,-306.92C279.12,-283.57 270.45,-243.42 266.32,-224.27"/>
</g>
<!-- emploi&#45;&#45;formation -->
<g id="edge12" class="edge">
<title>emploi&#45;&#45;formation</title>
<path fill="none" stroke="darkgrey" stroke-width="1.2" d="M270.22,-320.28C215.24,-306.3 51.2,-264.58 41,-261.98"/>
</g>
<!-- emploi&#45;&#45;automatisation -->
<g id="edge13" class="edge">
<title>emploi&#45;&#45;automatisation</title>
<path fill="none" stroke="darkgrey" d="M288,-342.91C287.97,-366.22 287.91,-405.17 287.89,-417.33"/>
</g>
<!-- pollution&#45;&#45;épuisement de la ressource -->
<g id="edge14" class="edge">
<title>pollution&#45;&#45;épuisement de la ressource</title>
<path fill="none" stroke="darkgrey" stroke-width="3.73" d="M475.13,-330.95C483.39,-356.66 496.12,-396.3 502.13,-415.02"/>
</g>
<!-- pollution&#45;&#45;impact environnemental -->
<g id="edge17" class="edge">
<title>pollution&#45;&#45;impact environnemental</title>
<path fill="none" stroke="darkgrey" stroke-width="10" d="M483.83,-287.81C487.82,-283.15 492.17,-278.07 496.43,-273.09"/>
</g>
<!-- pollution&#45;&#45;conflit -->
<g id="edge18" class="edge">
<title>pollution&#45;&#45;conflit</title>
<path fill="none" stroke="darkgrey" stroke-width="1.4" d="M490.41,-317.05C503.98,-323 520.49,-330.24 530.96,-334.84"/>
</g>
<!-- pollution&#45;&#45;économie du pays -->
<g id="edge20" class="edge">
<title>pollution&#45;&#45;économie du pays</title>
<path fill="none" stroke="darkgrey" stroke-width="2.95" d="M450.14,-325.36C438.7,-337.54 424.24,-352.93 415.48,-362.25"/>
</g>
<!-- pollution&#45;&#45;amélioration environnementale -->
<g id="edge21" class="edge">
<title>pollution&#45;&#45;amélioration environnementale</title>
<path fill="none" stroke="darkgrey" stroke-width="2.13" d="M452.69,-286.72C426.59,-250.88 372.82,-177.03 349.8,-145.41"/>
</g>
<!-- pollution&#45;&#45;développement durable -->
<g id="edge24" class="edge">
<title>pollution&#45;&#45;développement durable</title>
<path fill="none" stroke="darkgrey" stroke-width="1.44" d="M444.48,-296.43C400.43,-276.18 305.56,-232.6 274.25,-218.21"/>
</g>
<!-- pollution&#45;&#45;montagne -->
<g id="edge15" class="edge">
<title>pollution&#45;&#45;montagne</title>
<path fill="none" stroke="darkgrey" stroke-width="1.32" d="M489.23,-319.23C539.67,-347.59 661.73,-416.23 683.25,-428.33"/>
</g>
<!-- pollution&#45;&#45;biodiversité -->
<g id="edge16" class="edge">
<title>pollution&#45;&#45;biodiversité</title>
<path fill="none" stroke="darkgrey" stroke-width="1.8" d="M480.25,-328.97C510.61,-381.09 585.66,-509.89 602.83,-539.36"/>
</g>
<!-- pollution&#45;&#45;développement -->
<g id="edge19" class="edge">
<title>pollution&#45;&#45;développement</title>
<path fill="none" stroke="darkgrey" stroke-width="2.17" d="M457.05,-283.8C447.9,-263.35 434.99,-234.53 428.21,-219.39"/>
</g>
<!-- pollution&#45;&#45;revenu -->
<g id="edge22" class="edge">
<title>pollution&#45;&#45;revenu</title>
<path fill="none" stroke="darkgrey" stroke-width="1.04" d="M472.15,-282.35C482.64,-227.64 507.32,-98.95 511.67,-76.27"/>
</g>
<!-- pollution&#45;&#45;déclin -->
<g id="edge23" class="edge">
<title>pollution&#45;&#45;déclin</title>
<path fill="none" stroke="darkgrey" stroke-width="1.32" d="M490.13,-296.4C534.56,-275.71 630.3,-231.15 649.29,-222.31"/>
</g>
<!-- pollution&#45;&#45;innovation -->
<g id="edge25" class="edge">
<title>pollution&#45;&#45;innovation</title>
<path fill="none" stroke="darkgrey" stroke-width="1.75" d="M444.57,-296.28C417.6,-283.68 373.97,-263.29 354.42,-254.15"/>
</g>
<!-- épuisement de la ressource&#45;&#45;impact environnemental -->
<g id="edge26" class="edge">
<title>épuisement de la ressource&#45;&#45;impact environnemental</title>
<path fill="none" stroke="darkgrey" stroke-width="4.15" d="M506.4,-414.51C508.51,-388.61 513.87,-322.85 517.25,-281.37"/>
</g>
<!-- épuisement de la ressource&#45;&#45;conflit -->
<g id="edge27" class="edge">
<title>épuisement de la ressource&#45;&#45;conflit</title>
<path fill="none" stroke="darkgrey" stroke-width="1.8" d="M509.76,-415.29C516.66,-398.72 530.22,-366.17 537.11,-349.6"/>
</g>
<!-- épuisement de la ressource&#45;&#45;économie du pays -->
<g id="edge29" class="edge">
<title>épuisement de la ressource&#45;&#45;économie du pays</title>
<path fill="none" stroke="darkgrey" stroke-width="1.56" d="M495.77,-420.04C477.01,-409.51 436.09,-386.53 417.37,-376.01"/>
</g>
<!-- épuisement de la ressource&#45;&#45;développement -->
<g id="edge28" class="edge">
<title>épuisement de la ressource&#45;&#45;développement</title>
<path fill="none" stroke="darkgrey" stroke-width="1.63" d="M501.56,-415.08C487.7,-378.45 441.36,-255.99 427.56,-219.53"/>
</g>
<!-- impact environnemental&#45;&#45;conflit -->
<g id="edge31" class="edge">
<title>impact environnemental&#45;&#45;conflit</title>
<path fill="none" stroke="darkgrey" stroke-width="3.82" d="M528.13,-280.64C531.93,-297.53 536.22,-316.57 538.86,-328.28"/>
</g>
<!-- impact environnemental&#45;&#45;économie du pays -->
<g id="edge34" class="edge">
<title>impact environnemental&#45;&#45;économie du pays</title>
<path fill="none" stroke="darkgrey" stroke-width="3.9" d="M496.05,-272.22C470.35,-300.82 431.2,-344.38 415.04,-362.37"/>
</g>
<!-- impact environnemental&#45;&#45;amélioration environnementale -->
<g id="edge35" class="edge">
<title>impact environnemental&#45;&#45;amélioration environnementale</title>
<path fill="none" stroke="darkgrey" stroke-width="2.76" d="M489.44,-225.87C450.25,-201.04 384.04,-159.08 354.26,-140.21"/>
</g>
<!-- impact environnemental&#45;&#45;automatisation -->
<g id="edge40" class="edge">
<title>impact environnemental&#45;&#45;automatisation</title>
<path fill="none" stroke="darkgrey" stroke-width="1.34" d="M491.23,-267.25C434.31,-310.31 311.55,-403.16 290.87,-418.81"/>
</g>
<!-- impact environnemental&#45;&#45;développement -->
<g id="edge33" class="edge">
<title>impact environnemental&#45;&#45;développement</title>
<path fill="none" stroke="darkgrey" stroke-width="3.18" d="M486.42,-232.71C468.15,-225.87 446.83,-217.88 434.33,-213.2"/>
</g>
<!-- impact environnemental&#45;&#45;revenu -->
<g id="edge36" class="edge">
<title>impact environnemental&#45;&#45;revenu</title>
<path fill="none" stroke="darkgrey" stroke-width="1.19" d="M518.54,-209.19C516.52,-164.92 513.29,-93.72 512.51,-76.61"/>
</g>
<!-- impact environnemental&#45;&#45;déclin -->
<g id="edge37" class="edge">
<title>impact environnemental&#45;&#45;déclin</title>
<path fill="none" stroke="darkgrey" stroke-width="1.03" d="M555.67,-238.77C589.07,-232.56 635.87,-223.87 649.03,-221.43"/>
</g>
<!-- impact environnemental&#45;&#45;innovation -->
<g id="edge38" class="edge">
<title>impact environnemental&#45;&#45;innovation</title>
<path fill="none" stroke="darkgrey" stroke-width="1.42" d="M484.18,-246.2C444,-247.13 381.27,-248.6 355.75,-249.19"/>
</g>
<!-- impact environnemental&#45;&#45;croissance minière -->
<g id="edge30" class="edge">
<title>impact environnemental&#45;&#45;croissance minière</title>
<path fill="none" stroke="darkgrey" stroke-width="1.13" d="M553.55,-231.38C617.96,-204.39 755.11,-146.93 778.21,-137.25"/>
</g>
<!-- impact environnemental&#45;&#45;vision positive de la ressource -->
<g id="edge32" class="edge">
<title>impact environnemental&#45;&#45;vision positive de la ressource</title>
<path fill="none" stroke="darkgrey" stroke-width="1.4" d="M543.5,-217.45C578.21,-175.92 641.24,-100.49 658.74,-79.56"/>
</g>
<!-- impact environnemental&#45;&#45;richesse -->
<g id="edge39" class="edge">
<title>impact environnemental&#45;&#45;richesse</title>
<path fill="none" stroke="darkgrey" stroke-width="1.79" d="M555.81,-252.14C618.11,-264 742.44,-287.66 765.2,-291.99"/>
</g>
<!-- conflit&#45;&#45;économie du pays -->
<g id="edge41" class="edge">
<title>conflit&#45;&#45;économie du pays</title>
<path fill="none" stroke="darkgrey" stroke-width="1.26" d="M530.42,-341.95C505.23,-347.82 443.37,-362.25 418.39,-368.07"/>
</g>
<!-- amélioration environnementale&#45;&#45;développement durable -->
<g id="edge47" class="edge">
<title>amélioration environnementale&#45;&#45;développement durable</title>
<path fill="none" stroke="darkgrey" stroke-width="2.17" d="M326.57,-144.21C310.94,-161.52 284.51,-190.77 271.58,-205.09"/>
</g>
<!-- amélioration environnementale&#45;&#45;innovation -->
<g id="edge48" class="edge">
<title>amélioration environnementale&#45;&#45;innovation</title>
<path fill="none" stroke="darkgrey" stroke-width="1.38" d="M339.77,-148.58C340.91,-173.53 342.93,-217.8 343.87,-238.37"/>
</g>
<!-- amélioration environnementale&#45;&#45;maintien de l’exploitation -->
<g id="edge46" class="edge">
<title>amélioration environnementale&#45;&#45;maintien de l’exploitation</title>
<path fill="none" stroke="darkgrey" stroke-width="1.44" d="M325.6,-118.33C294.28,-89.77 217.61,-19.84 202.36,-5.93"/>
</g>
<!-- développement durable&#45;&#45;innovation -->
<g id="edge49" class="edge">
<title>développement durable&#45;&#45;innovation</title>
<path fill="none" stroke="darkgrey" stroke-width="1.31" d="M274.17,-218.05C289.64,-224.97 318.87,-238.04 334.28,-244.94"/>
</g>
<!-- développement&#45;&#45;économie du pays -->
<g id="edge42" class="edge">
<title>développement&#45;&#45;économie du pays</title>
<path fill="none" stroke="darkgrey" stroke-width="1.82" d="M422.55,-220.29C419.63,-249.77 411.7,-329.83 408.78,-359.4"/>
</g>
<!-- développement&#45;&#45;amélioration environnementale -->
<g id="edge43" class="edge">
<title>développement&#45;&#45;amélioration environnementale</title>
<path fill="none" stroke="darkgrey" stroke-width="1.69" d="M415.53,-201.65C400.87,-188.04 369.87,-159.24 352.14,-142.76"/>
</g>
<!-- développement&#45;&#45;développement durable -->
<g id="edge44" class="edge">
<title>développement&#45;&#45;développement durable</title>
<path fill="none" stroke="darkgrey" stroke-width="1.16" d="M412.42,-209.5C383.04,-210.29 304.12,-212.42 274.99,-213.2"/>
</g>
<!-- développement&#45;&#45;innovation -->
<g id="edge45" class="edge">
<title>développement&#45;&#45;innovation</title>
<path fill="none" stroke="darkgrey" stroke-width="1.17" d="M413.61,-214.3C398.36,-222.04 369.54,-236.68 354.34,-244.4"/>
</g>
<!-- innovation&#45;&#45;automatisation -->
<g id="edge50" class="edge">
<title>innovation&#45;&#45;automatisation</title>
<path fill="none" stroke="darkgrey" stroke-width="1.05" d="M340.93,-259.93C329.86,-293.55 295.58,-397.7 288.99,-417.72"/>
</g>
<!-- fin -->
<g id="node1" class="node">
<title>fin</title>
<ellipse fill="#82206c" stroke="white" stroke-width="0" cx="399.87" cy="-473.88" rx="14.5" ry="14.5"/>
<text text-anchor="middle" x="379.87" y="-490.98" font-family="Helvetica,sans-Serif" font-size="8.00" fill="#4d4d4d">fin</text>
</g>
<!-- emploi -->
<g id="node2" class="node">
<title>emploi</title>
<ellipse fill="#bd3853" stroke="white" stroke-width="0" cx="288.02" cy="-324.8" rx="18" ry="18"/>
<text text-anchor="middle" x="256.02" y="-345.4" font-family="Helvetica,sans-Serif" font-size="8.00" fill="#4d4d4d">emploi</text>
</g>
<!-- pollution -->
<g id="node3" class="node">
<title>pollution</title>
<ellipse fill="#f06f20" stroke="white" stroke-width="0" cx="467.43" cy="-306.97" rx="25" ry="25"/>
<text text-anchor="middle" x="423.93" y="-334.57" font-family="Helvetica,sans-Serif" font-size="8.00" fill="#4d4d4d">pollution</text>
</g>
<!-- épuisement de la ressource -->
<g id="node4" class="node">
<title>épuisement de la ressource</title>
<ellipse fill="#71196e" stroke="white" stroke-width="0" cx="505.5" cy="-425.51" rx="11" ry="11"/>
<text text-anchor="middle" x="437.5" y="-439.11" font-family="Helvetica,sans-Serif" font-size="8.00" fill="#4d4d4d">épuisement de la ressource</text>
</g>
<!-- impact environnemental -->
<g id="node5" class="node">
<title>impact environnemental</title>
<ellipse fill="#fcffa4" stroke="white" stroke-width="0" cx="520.18" cy="-245.36" rx="36" ry="36"/>
<text text-anchor="middle" x="534.18" y="-202.96" font-family="Helvetica,sans-Serif" font-size="8.00" fill="#4d4d4d">impact environnemental</text>
</g>
<!-- conflit -->
<g id="node6" class="node">
<title>conflit</title>
<ellipse fill="#57106e" stroke="white" stroke-width="0" cx="541.36" cy="-339.4" rx="11" ry="11"/>
<text text-anchor="middle" x="517.36" y="-353" font-family="Helvetica,sans-Serif" font-size="8.00" fill="#4d4d4d">conflit</text>
</g>
<!-- économie du pays -->
<g id="node7" class="node">
<title>économie du pays</title>
<ellipse fill="#6c186e" stroke="white" stroke-width="0" cx="407.67" cy="-370.57" rx="11" ry="11"/>
<text text-anchor="middle" x="358.67" y="-384.17" font-family="Helvetica,sans-Serif" font-size="8.00" fill="#4d4d4d">économie du pays</text>
</g>
<!-- amélioration environnementale -->
<g id="node8" class="node">
<title>amélioration environnementale</title>
<ellipse fill="#ba3655" stroke="white" stroke-width="0" cx="338.95" cy="-130.51" rx="18" ry="18"/>
<text text-anchor="middle" x="256.45" y="-151.11" font-family="Helvetica,sans-Serif" font-size="8.00" fill="#4d4d4d">amélioration environnementale</text>
</g>
<!-- famille -->
<g id="node9" class="node">
<title>famille</title>
<ellipse fill="#030210" stroke="white" stroke-width="0" cx="93.69" cy="-400.47" rx="0.5" ry="0.5"/>
<text text-anchor="middle" x="79.19" y="-403.57" font-family="Helvetica,sans-Serif" font-size="8.00" fill="#4d4d4d">famille</text>
</g>
<!-- développement durable -->
<g id="node10" class="node">
<title>développement durable</title>
<ellipse fill="#5c126e" stroke="white" stroke-width="0" cx="263.99" cy="-213.5" rx="11" ry="11"/>
<text text-anchor="middle" x="203.49" y="-227.1" font-family="Helvetica,sans-Serif" font-size="8.00" fill="#4d4d4d">développement durable</text>
</g>
<!-- formation -->
<g id="node11" class="node">
<title>formation</title>
<ellipse fill="#000004" stroke="white" stroke-width="0" cx="40.5" cy="-261.86" rx="0.5" ry="0.5"/>
<text text-anchor="middle" x="20" y="-264.96" font-family="Helvetica,sans-Serif" font-size="8.00" fill="#4d4d4d">formation</text>
</g>
<!-- automatisation -->
<g id="node12" class="node">
<title>automatisation</title>
<ellipse fill="#210c4a" stroke="white" stroke-width="0" cx="287.89" cy="-421.07" rx="3.5" ry="3.5"/>
<text text-anchor="middle" x="252.89" y="-427.17" font-family="Helvetica,sans-Serif" font-size="8.00" fill="#4d4d4d">automatisation</text>
</g>
<!-- montagne -->
<g id="node13" class="node">
<title>montagne</title>
<ellipse fill="#0c0826" stroke="white" stroke-width="0" cx="686.52" cy="-430.17" rx="3.5" ry="3.5"/>
<text text-anchor="middle" x="661.52" y="-436.27" font-family="Helvetica,sans-Serif" font-size="8.00" fill="#4d4d4d">montagne</text>
</g>
<!-- biodiversité -->
<g id="node14" class="node">
<title>biodiversité</title>
<ellipse fill="#240c4f" stroke="white" stroke-width="0" cx="606.37" cy="-545.43" rx="7" ry="7"/>
<text text-anchor="middle" x="574.87" y="-555.03" font-family="Helvetica,sans-Serif" font-size="8.00" fill="#4d4d4d">biodiversité</text>
</g>
<!-- développement -->
<g id="node15" class="node">
<title>développement</title>
<ellipse fill="#69166e" stroke="white" stroke-width="0" cx="423.65" cy="-209.2" rx="11" ry="11"/>
<text text-anchor="middle" x="380.15" y="-222.8" font-family="Helvetica,sans-Serif" font-size="8.00" fill="#4d4d4d">développement</text>
</g>
<!-- revenu -->
<g id="node16" class="node">
<title>revenu</title>
<ellipse fill="#08051d" stroke="white" stroke-width="0" cx="512.34" cy="-72.83" rx="3.5" ry="3.5"/>
<text text-anchor="middle" x="494.84" y="-78.93" font-family="Helvetica,sans-Serif" font-size="8.00" fill="#4d4d4d">revenu</text>
</g>
<!-- déclin -->
<g id="node17" class="node">
<title>déclin</title>
<ellipse fill="#230c4c" stroke="white" stroke-width="0" cx="652.6" cy="-220.76" rx="3.5" ry="3.5"/>
<text text-anchor="middle" x="636.6" y="-226.86" font-family="Helvetica,sans-Serif" font-size="8.00" fill="#4d4d4d">déclin</text>
</g>
<!-- innovation -->
<g id="node18" class="node">
<title>innovation</title>
<ellipse fill="#771c6d" stroke="white" stroke-width="0" cx="344.38" cy="-249.46" rx="11" ry="11"/>
<text text-anchor="middle" x="311.38" y="-263.06" font-family="Helvetica,sans-Serif" font-size="8.00" fill="#4d4d4d">innovation</text>
</g>
<!-- croissance minière -->
<g id="node19" class="node">
<title>croissance minière</title>
<ellipse fill="#040314" stroke="white" stroke-width="0" cx="781.55" cy="-135.86" rx="3.5" ry="3.5"/>
<text text-anchor="middle" x="740.05" y="-141.96" font-family="Helvetica,sans-Serif" font-size="8.00" fill="#4d4d4d">croissance minière</text>
</g>
<!-- vision positive de la ressource -->
<g id="node20" class="node">
<title>vision positive de la ressource</title>
<ellipse fill="#320a5e" stroke="white" stroke-width="0" cx="663.35" cy="-74.04" rx="7" ry="7"/>
<text text-anchor="middle" x="594.35" y="-83.64" font-family="Helvetica,sans-Serif" font-size="8.00" fill="#4d4d4d">vision positive de la ressource</text>
</g>
<!-- richesse -->
<g id="node21" class="node">
<title>richesse</title>
<ellipse fill="#0a0722" stroke="white" stroke-width="0" cx="768.83" cy="-292.68" rx="3.5" ry="3.5"/>
<text text-anchor="middle" x="747.83" y="-298.78" font-family="Helvetica,sans-Serif" font-size="8.00" fill="#4d4d4d">richesse</text>
</g>
<!-- maintien de l’exploitation -->
<g id="node22" class="node">
<title>maintien de l’exploitation</title>
<ellipse fill="#150b37" stroke="white" stroke-width="0" cx="199.7" cy="-3.5" rx="3.5" ry="3.5"/>
<text text-anchor="middle" x="144.2" y="-9.6" font-family="Helvetica,sans-Serif" font-size="8.00" fill="#4d4d4d">maintien de l’exploitation</text>
</g>
</g>
</svg>
