<?xml version="1.0" encoding="UTF-8" standalone="no"?>
<!DOCTYPE svg PUBLIC "-//W3C//DTD SVG 1.1//EN"
 "http://www.w3.org/Graphics/SVG/1.1/DTD/svg11.dtd">
<!-- Generated by graphviz version 2.43.0 (0)
 -->
<!-- Pages: 1 -->
<svg width="525pt" height="466pt"
 viewBox="0.00 0.00 525.46 465.90" xmlns="http://www.w3.org/2000/svg" xmlns:xlink="http://www.w3.org/1999/xlink">
<g id="graph0" class="graph" transform="scale(1 1) rotate(0) translate(4 461.9)">
<polygon fill="white" stroke="transparent" points="-4,4 -4,-461.9 521.46,-461.9 521.46,4 -4,4"/>
<!-- avenir sans nickel&#45;&#45;travail -->
<g id="edge1" class="edge">
<title>avenir sans nickel&#45;&#45;travail</title>
<path fill="none" stroke="darkgrey" stroke-width="3.2" d="M454.59,-162.19C462.26,-174.07 471.65,-188.59 478.57,-199.31"/>
</g>
<!-- avenir sans nickel&#45;&#45;politique -->
<g id="edge2" class="edge">
<title>avenir sans nickel&#45;&#45;politique</title>
<path fill="none" stroke="darkgrey" stroke-width="3.67" d="M415.69,-140.27C381.46,-139.38 321.02,-137.82 290.93,-137.05"/>
</g>
<!-- avenir sans nickel&#45;&#45;secteur nickel -->
<g id="edge3" class="edge">
<title>avenir sans nickel&#45;&#45;secteur nickel</title>
<path fill="none" stroke="darkgrey" stroke-width="3.01" d="M416.82,-148.76C396.53,-155.39 367.94,-164.73 349.86,-170.64"/>
</g>
<!-- avenir sans nickel&#45;&#45;relation politique -->
<g id="edge4" class="edge">
<title>avenir sans nickel&#45;&#45;relation politique</title>
<path fill="none" stroke="darkgrey" d="M433.83,-116.78C422.71,-78.51 402.09,-7.56 400.18,-0.99"/>
</g>
<!-- avenir sans nickel&#45;&#45;avenir avec nickel -->
<g id="edge5" class="edge">
<title>avenir sans nickel&#45;&#45;avenir avec nickel</title>
<path fill="none" stroke="darkgrey" stroke-width="2.95" d="M440.39,-166.1C440.1,-182 439.75,-201.43 439.56,-211.79"/>
</g>
<!-- avenir sans nickel&#45;&#45;pollution -->
<g id="edge6" class="edge">
<title>avenir sans nickel&#45;&#45;pollution</title>
<path fill="none" stroke="darkgrey" stroke-width="5.45" d="M429.44,-163.2C414.07,-193.26 386.94,-246.28 372.37,-274.78"/>
</g>
<!-- avenir sans nickel&#45;&#45;ressource minière -->
<g id="edge7" class="edge">
<title>avenir sans nickel&#45;&#45;ressource minière</title>
<path fill="none" stroke="darkgrey" stroke-width="5.53" d="M416.48,-134.62C398.9,-130.08 375.29,-123.97 357.74,-119.44"/>
</g>
<!-- avenir sans nickel&#45;&#45;dégradation environnementale -->
<g id="edge8" class="edge">
<title>avenir sans nickel&#45;&#45;dégradation environnementale</title>
<path fill="none" stroke="darkgrey" stroke-width="6.13" d="M423.36,-159.11C410.74,-172.24 393.51,-190.16 379.44,-204.8"/>
</g>
<!-- avenir sans nickel&#45;&#45;société néo&#45;calédonienne -->
<g id="edge9" class="edge">
<title>avenir sans nickel&#45;&#45;société néo&#45;calédonienne</title>
<path fill="none" stroke="darkgrey" stroke-width="2.91" d="M425.61,-161.24C397.33,-198.97 337.52,-278.78 314.81,-309.08"/>
</g>
<!-- avenir sans nickel&#45;&#45;alternative au développement -->
<g id="edge10" class="edge">
<title>avenir sans nickel&#45;&#45;alternative au développement</title>
<path fill="none" stroke="darkgrey" stroke-width="4.49" d="M419.72,-154.34C389.84,-173.34 335.52,-207.87 305.55,-226.92"/>
</g>
<!-- avenir sans nickel&#45;&#45;économie -->
<g id="edge11" class="edge">
<title>avenir sans nickel&#45;&#45;économie</title>
<path fill="none" stroke="darkgrey" stroke-width="2.53" d="M416.04,-137.05C411.83,-136.39 407.58,-135.72 403.76,-135.13"/>
</g>
<!-- avenir sans nickel&#45;&#45;amélioration environnementale -->
<g id="edge12" class="edge">
<title>avenir sans nickel&#45;&#45;amélioration environnementale</title>
<path fill="none" stroke="darkgrey" stroke-width="1.96" d="M465.25,-134.85C475.05,-132.41 485.85,-129.72 493.63,-127.78"/>
</g>
<!-- avenir sans nickel&#45;&#45;essor technologique -->
<g id="edge13" class="edge">
<title>avenir sans nickel&#45;&#45;essor technologique</title>
<path fill="none" stroke="darkgrey" stroke-width="1.2" d="M441.57,-165.92C442.6,-201.21 444.44,-264.55 445.28,-293.15"/>
</g>
<!-- travail&#45;&#45;politique -->
<g id="edge14" class="edge">
<title>travail&#45;&#45;politique</title>
<path fill="none" stroke="darkgrey" stroke-width="3.4" d="M471.1,-208.22C430.64,-193.6 330.14,-157.28 289.91,-142.74"/>
</g>
<!-- travail&#45;&#45;secteur nickel -->
<g id="edge15" class="edge">
<title>travail&#45;&#45;secteur nickel</title>
<path fill="none" stroke="darkgrey" stroke-width="3.56" d="M470.81,-210.16C440.89,-202.82 380.4,-187.98 350.37,-180.61"/>
</g>
<!-- travail&#45;&#45;avenir avec nickel -->
<g id="edge16" class="edge">
<title>travail&#45;&#45;avenir avec nickel</title>
<path fill="none" stroke="darkgrey" stroke-width="1.46" d="M470.42,-216.18C462.13,-216.97 452.76,-217.86 446.51,-218.46"/>
</g>
<!-- travail&#45;&#45;pollution -->
<g id="edge17" class="edge">
<title>travail&#45;&#45;pollution</title>
<path fill="none" stroke="darkgrey" stroke-width="5.15" d="M472.93,-224.24C449.68,-238.96 405.76,-266.75 380.88,-282.51"/>
</g>
<!-- travail&#45;&#45;ressource minière -->
<g id="edge18" class="edge">
<title>travail&#45;&#45;ressource minière</title>
<path fill="none" stroke="darkgrey" stroke-width="2.7" d="M473.23,-204.57C445.45,-186.4 386.25,-147.68 354.55,-126.95"/>
</g>
<!-- travail&#45;&#45;dégradation environnementale -->
<g id="edge19" class="edge">
<title>travail&#45;&#45;dégradation environnementale</title>
<path fill="none" stroke="darkgrey" stroke-width="6.3" d="M470.31,-216.67C449.89,-219.16 416.14,-223.28 390.31,-226.43"/>
</g>
<!-- travail&#45;&#45;société néo&#45;calédonienne -->
<g id="edge20" class="edge">
<title>travail&#45;&#45;société néo&#45;calédonienne</title>
<path fill="none" stroke="darkgrey" stroke-width="3.38" d="M472.8,-223.56C437.28,-244.31 350.79,-294.82 318.36,-313.76"/>
</g>
<!-- travail&#45;&#45;alternative au développement -->
<g id="edge21" class="edge">
<title>travail&#45;&#45;alternative au développement</title>
<path fill="none" stroke="darkgrey" stroke-width="3.71" d="M470.25,-216.77C433.67,-221.43 350.9,-231.97 309.23,-237.27"/>
</g>
<!-- travail&#45;&#45;économie -->
<g id="edge23" class="edge">
<title>travail&#45;&#45;économie</title>
<path fill="none" stroke="darkgrey" stroke-width="3.84" d="M474.19,-202.78C454.42,-186.48 418.96,-157.24 400.81,-142.27"/>
</g>
<!-- travail&#45;&#45;amélioration environnementale -->
<g id="edge24" class="edge">
<title>travail&#45;&#45;amélioration environnementale</title>
<path fill="none" stroke="darkgrey" stroke-width="2.62" d="M491.62,-196.38C494.87,-178.32 499.75,-151.16 502.46,-136.11"/>
</g>
<!-- travail&#45;&#45;essor technologique -->
<g id="edge25" class="edge">
<title>travail&#45;&#45;essor technologique</title>
<path fill="none" stroke="darkgrey" stroke-width="2.89" d="M480.74,-231.17C472.45,-249.33 459.36,-277.98 451.75,-294.65"/>
</g>
<!-- travail&#45;&#45;nickel -->
<g id="edge22" class="edge">
<title>travail&#45;&#45;nickel</title>
<path fill="none" stroke="darkgrey" stroke-width="1.27" d="M491.39,-232.43C494.51,-251.02 499.15,-278.68 500.79,-288.39"/>
</g>
<!-- politique&#45;&#45;secteur nickel -->
<g id="edge29" class="edge">
<title>politique&#45;&#45;secteur nickel</title>
<path fill="none" stroke="darkgrey" stroke-width="3.78" d="M287.94,-146.59C296.93,-152.56 308.31,-160.12 317.34,-166.11"/>
</g>
<!-- politique&#45;&#45;relation politique -->
<g id="edge30" class="edge">
<title>politique&#45;&#45;relation politique</title>
<path fill="none" stroke="darkgrey" stroke-width="1.59" d="M285.51,-123.03C316.17,-90.23 392.43,-8.64 399.51,-1.07"/>
</g>
<!-- politique&#45;&#45;avenir avec nickel -->
<g id="edge31" class="edge">
<title>politique&#45;&#45;avenir avec nickel</title>
<path fill="none" stroke="darkgrey" stroke-width="1.36" d="M289.13,-144.64C324.82,-162.33 408.72,-203.91 432.84,-215.87"/>
</g>
<!-- politique&#45;&#45;pollution -->
<g id="edge32" class="edge">
<title>politique&#45;&#45;pollution</title>
<path fill="none" stroke="darkgrey" stroke-width="3.38" d="M281.77,-152.27C298.37,-181.46 333.93,-244.02 351.77,-275.4"/>
</g>
<!-- politique&#45;&#45;ressource minière -->
<g id="edge33" class="edge">
<title>politique&#45;&#45;ressource minière</title>
<path fill="none" stroke="darkgrey" stroke-width="3.85" d="M289.74,-130.06C296.04,-127.62 303.32,-124.81 310.11,-122.19"/>
</g>
<!-- politique&#45;&#45;dégradation environnementale -->
<g id="edge34" class="edge">
<title>politique&#45;&#45;dégradation environnementale</title>
<path fill="none" stroke="darkgrey" stroke-width="5.04" d="M284.89,-150.48C296.95,-164.41 315.83,-186.2 330.88,-203.58"/>
</g>
<!-- politique&#45;&#45;société néo&#45;calédonienne -->
<g id="edge35" class="edge">
<title>politique&#45;&#45;société néo&#45;calédonienne</title>
<path fill="none" stroke="darkgrey" stroke-width="2.21" d="M276.07,-154.61C282.58,-191.06 297.2,-272.91 303.18,-306.39"/>
</g>
<!-- politique&#45;&#45;alternative au développement -->
<g id="edge37" class="edge">
<title>politique&#45;&#45;alternative au développement</title>
<path fill="none" stroke="darkgrey" stroke-width="2.99" d="M274.84,-154.67C276.69,-171.53 279.47,-196.81 281.53,-215.56"/>
</g>
<!-- politique&#45;&#45;économie -->
<g id="edge38" class="edge">
<title>politique&#45;&#45;économie</title>
<path fill="none" stroke="darkgrey" stroke-width="3.58" d="M291.07,-136C314.12,-135.27 353.38,-134.03 374.66,-133.36"/>
</g>
<!-- politique&#45;&#45;nouvelle&#45;calédonie -->
<g id="edge36" class="edge">
<title>politique&#45;&#45;nouvelle&#45;calédonie</title>
<path fill="none" stroke="darkgrey" stroke-width="1.42" d="M255.12,-131.56C233.26,-125.38 197.62,-115.3 186.52,-112.15"/>
</g>
<!-- secteur nickel&#45;&#45;relation politique -->
<g id="edge39" class="edge">
<title>secteur nickel&#45;&#45;relation politique</title>
<path fill="none" stroke="darkgrey" stroke-width="1.25" d="M339.09,-159.41C355.18,-117.48 395.97,-11.12 399.76,-1.24"/>
</g>
<!-- secteur nickel&#45;&#45;avenir avec nickel -->
<g id="edge40" class="edge">
<title>secteur nickel&#45;&#45;avenir avec nickel</title>
<path fill="none" stroke="darkgrey" stroke-width="1.56" d="M349.79,-183.15C373.85,-192.81 416.49,-209.92 432.82,-216.48"/>
</g>
<!-- secteur nickel&#45;&#45;pollution -->
<g id="edge41" class="edge">
<title>secteur nickel&#45;&#45;pollution</title>
<path fill="none" stroke="darkgrey" stroke-width="3.78" d="M337.09,-193.92C342.46,-215.12 351.44,-250.64 357.15,-273.21"/>
</g>
<!-- secteur nickel&#45;&#45;ressource minière -->
<g id="edge42" class="edge">
<title>secteur nickel&#45;&#45;ressource minière</title>
<path fill="none" stroke="darkgrey" stroke-width="2.27" d="M332.87,-158.01C332.96,-151.9 333.05,-144.97 333.14,-138.41"/>
</g>
<!-- secteur nickel&#45;&#45;dégradation environnementale -->
<g id="edge43" class="edge">
<title>secteur nickel&#45;&#45;dégradation environnementale</title>
<path fill="none" stroke="darkgrey" stroke-width="3.45" d="M339.42,-193.22C339.92,-194.47 340.43,-195.76 340.96,-197.06"/>
</g>
<!-- secteur nickel&#45;&#45;société néo&#45;calédonienne -->
<g id="edge44" class="edge">
<title>secteur nickel&#45;&#45;société néo&#45;calédonienne</title>
<path fill="none" stroke="darkgrey" stroke-width="1.83" d="M329.34,-194.02C323.97,-223.03 313.42,-280 308.48,-306.68"/>
</g>
<!-- secteur nickel&#45;&#45;alternative au développement -->
<g id="edge45" class="edge">
<title>secteur nickel&#45;&#45;alternative au développement</title>
<path fill="none" stroke="darkgrey" stroke-width="5.54" d="M321.66,-190.83C315.08,-199.56 306.62,-210.78 299.41,-220.35"/>
</g>
<!-- secteur nickel&#45;&#45;économie -->
<g id="edge47" class="edge">
<title>secteur nickel&#45;&#45;économie</title>
<path fill="none" stroke="darkgrey" stroke-width="2.44" d="M346.96,-165.32C356.43,-158.09 368.68,-148.73 377.59,-141.93"/>
</g>
<!-- secteur nickel&#45;&#45;amélioration environnementale -->
<g id="edge48" class="edge">
<title>secteur nickel&#45;&#45;amélioration environnementale</title>
<path fill="none" stroke="darkgrey" stroke-width="3.02" d="M350.05,-171.08C385.37,-160.56 464.51,-136.99 493.51,-128.35"/>
</g>
<!-- secteur nickel&#45;&#45;essor technologique -->
<g id="edge49" class="edge">
<title>secteur nickel&#45;&#45;essor technologique</title>
<path fill="none" stroke="darkgrey" stroke-width="1.95" d="M344.73,-190.35C367.29,-216.61 415.36,-272.56 435.98,-296.57"/>
</g>
<!-- secteur nickel&#45;&#45;nickel -->
<g id="edge46" class="edge">
<title>secteur nickel&#45;&#45;nickel</title>
<path fill="none" stroke="darkgrey" stroke-width="1.95" d="M347.61,-186.53C384.87,-212.07 480.09,-277.33 498.33,-289.83"/>
</g>
<!-- relation politique&#45;&#45;dégradation environnementale -->
<g id="edge50" class="edge">
<title>relation politique&#45;&#45;dégradation environnementale</title>
<path fill="none" stroke="darkgrey" stroke-width="1.16" d="M399.91,-1.16C397.92,-11.21 373.72,-133.47 361.47,-195.37"/>
</g>
<!-- relation politique&#45;&#45;économie -->
<g id="edge51" class="edge">
<title>relation politique&#45;&#45;économie</title>
<path fill="none" stroke="darkgrey" stroke-width="1.4" d="M399.97,-1.35C399.27,-10.15 393.23,-85.49 390.62,-118.02"/>
</g>
<!-- avenir avec nickel&#45;&#45;ressource minière -->
<g id="edge52" class="edge">
<title>avenir avec nickel&#45;&#45;ressource minière</title>
<path fill="none" stroke="darkgrey" stroke-width="1.38" d="M434.32,-214.02C419.52,-199.22 376.11,-155.81 351.34,-131.03"/>
</g>
<!-- avenir avec nickel&#45;&#45;dégradation environnementale -->
<g id="edge53" class="edge">
<title>avenir avec nickel&#45;&#45;dégradation environnementale</title>
<path fill="none" stroke="darkgrey" stroke-width="2.57" d="M432.48,-220.09C423.2,-221.36 406.11,-223.71 390.28,-225.88"/>
</g>
<!-- avenir avec nickel&#45;&#45;alternative au développement -->
<g id="edge54" class="edge">
<title>avenir avec nickel&#45;&#45;alternative au développement</title>
<path fill="none" stroke="darkgrey" stroke-width="2.14" d="M432.36,-220.11C410.84,-223.06 345.39,-232.05 309.12,-237.04"/>
</g>
<!-- avenir avec nickel&#45;&#45;économie -->
<g id="edge55" class="edge">
<title>avenir avec nickel&#45;&#45;économie</title>
<path fill="none" stroke="darkgrey" stroke-width="1.96" d="M435.83,-212.93C427.68,-198.87 407.67,-164.35 396.78,-145.56"/>
</g>
<!-- avenir avec nickel&#45;&#45;amélioration environnementale -->
<g id="edge56" class="edge">
<title>avenir avec nickel&#45;&#45;amélioration environnementale</title>
<path fill="none" stroke="darkgrey" stroke-width="2.66" d="M443.5,-213.25C454.5,-197.33 484.94,-153.3 498.16,-134.17"/>
</g>
<!-- avenir avec nickel&#45;&#45;essor technologique -->
<g id="edge57" class="edge">
<title>avenir avec nickel&#45;&#45;essor technologique</title>
<path fill="none" stroke="darkgrey" stroke-width="2.04" d="M439.94,-226.4C440.98,-240.97 443.31,-274.02 444.67,-293.26"/>
</g>
<!-- pollution&#45;&#45;ressource minière -->
<g id="edge58" class="edge">
<title>pollution&#45;&#45;ressource minière</title>
<path fill="none" stroke="darkgrey" stroke-width="4.38" d="M359.01,-272.7C353.61,-238.99 343.18,-173.81 337.46,-138.08"/>
</g>
<!-- pollution&#45;&#45;dégradation environnementale -->
<g id="edge59" class="edge">
<title>pollution&#45;&#45;dégradation environnementale</title>
<path fill="none" stroke="darkgrey" stroke-width="10" d="M359.74,-272.72C359.49,-270.71 359.23,-268.64 358.96,-266.54"/>
</g>
<!-- pollution&#45;&#45;société néo&#45;calédonienne -->
<g id="edge61" class="edge">
<title>pollution&#45;&#45;société néo&#45;calédonienne</title>
<path fill="none" stroke="darkgrey" stroke-width="3.47" d="M342.96,-303.44C335.02,-307.21 326.06,-311.47 318.92,-314.86"/>
</g>
<!-- pollution&#45;&#45;alternative au développement -->
<g id="edge62" class="edge">
<title>pollution&#45;&#45;alternative au développement</title>
<path fill="none" stroke="darkgrey" stroke-width="4.64" d="M344.71,-281.98C332.9,-273.87 317.35,-263.19 304.98,-254.69"/>
</g>
<!-- pollution&#45;&#45;économie -->
<g id="edge64" class="edge">
<title>pollution&#45;&#45;économie</title>
<path fill="none" stroke="darkgrey" stroke-width="4.35" d="M366.03,-272.76C371.62,-239.34 382.27,-175.68 387.03,-147.24"/>
</g>
<!-- pollution&#45;&#45;amélioration environnementale -->
<g id="edge65" class="edge">
<title>pollution&#45;&#45;amélioration environnementale</title>
<path fill="none" stroke="darkgrey" stroke-width="1.51" d="M376.32,-277.66C406.05,-242.26 475,-160.15 497.32,-133.57"/>
</g>
<!-- pollution&#45;&#45;essor technologique -->
<g id="edge66" class="edge">
<title>pollution&#45;&#45;essor technologique</title>
<path fill="none" stroke="darkgrey" stroke-width="2.69" d="M383.89,-297.71C398.73,-300.15 418.09,-303.34 431.15,-305.49"/>
</g>
<!-- pollution&#45;&#45;nickel -->
<g id="edge63" class="edge">
<title>pollution&#45;&#45;nickel</title>
<path fill="none" stroke="darkgrey" stroke-width="1.93" d="M384.16,-293.82C418.04,-293.27 481.31,-292.25 497.52,-291.98"/>
</g>
<!-- pollution&#45;&#45;nature -->
<g id="edge60" class="edge">
<title>pollution&#45;&#45;nature</title>
<path fill="none" stroke="darkgrey" stroke-width="2.45" d="M347.38,-309.7C315.76,-342.3 243.76,-416.5 224.14,-436.73"/>
</g>
<!-- ressource minière&#45;&#45;dégradation environnementale -->
<g id="edge67" class="edge">
<title>ressource minière&#45;&#45;dégradation environnementale</title>
<path fill="none" stroke="darkgrey" stroke-width="6.51" d="M337.87,-137.82C340.83,-154.4 344.77,-176.51 348.07,-195.01"/>
</g>
<!-- ressource minière&#45;&#45;alternative au développement -->
<g id="edge69" class="edge">
<title>ressource minière&#45;&#45;alternative au développement</title>
<path fill="none" stroke="darkgrey" stroke-width="4.93" d="M324.45,-136.51C315.62,-159.33 302.26,-193.9 293.4,-216.82"/>
</g>
<!-- ressource minière&#45;&#45;économie -->
<g id="edge71" class="edge">
<title>ressource minière&#45;&#45;économie</title>
<path fill="none" stroke="darkgrey" stroke-width="3.57" d="M357.2,-121.53C363.52,-123.76 370.13,-126.09 375.71,-128.05"/>
</g>
<!-- ressource minière&#45;&#45;amélioration environnementale -->
<g id="edge72" class="edge">
<title>ressource minière&#45;&#45;amélioration environnementale</title>
<path fill="none" stroke="darkgrey" stroke-width="1.57" d="M358.7,-114.92C396.41,-117.56 465.95,-122.41 493.13,-124.31"/>
</g>
<!-- ressource minière&#45;&#45;essor technologique -->
<g id="edge73" class="edge">
<title>ressource minière&#45;&#45;essor technologique</title>
<path fill="none" stroke="darkgrey" stroke-width="3.95" d="M346.13,-135.12C369.63,-175.9 419.35,-262.16 438.22,-294.91"/>
</g>
<!-- ressource minière&#45;&#45;nickel -->
<g id="edge70" class="edge">
<title>ressource minière&#45;&#45;nickel</title>
<path fill="none" stroke="darkgrey" stroke-width="1.05" d="M350.81,-131.62C389.69,-173.01 481.76,-271.03 498.68,-289.05"/>
</g>
<!-- ressource minière&#45;&#45;nouvelle&#45;calédonie -->
<g id="edge68" class="edge">
<title>ressource minière&#45;&#45;nouvelle&#45;calédonie</title>
<path fill="none" stroke="darkgrey" stroke-width="1.23" d="M308.3,-112.83C270.85,-112.34 203.09,-111.45 186.73,-111.24"/>
</g>
<!-- dégradation environnementale&#45;&#45;société néo&#45;calédonienne -->
<g id="edge75" class="edge">
<title>dégradation environnementale&#45;&#45;société néo&#45;calédonienne</title>
<path fill="none" stroke="darkgrey" stroke-width="2.69" d="M337.31,-262.64C328.88,-278.28 319.19,-296.25 312.81,-308.1"/>
</g>
<!-- dégradation environnementale&#45;&#45;alternative au développement -->
<g id="edge77" class="edge">
<title>dégradation environnementale&#45;&#45;alternative au développement</title>
<path fill="none" stroke="darkgrey" stroke-width="5.03" d="M318.54,-235.74C315.44,-236.17 312.34,-236.59 309.35,-237"/>
</g>
<!-- dégradation environnementale&#45;&#45;économie -->
<g id="edge79" class="edge">
<title>dégradation environnementale&#45;&#45;économie</title>
<path fill="none" stroke="darkgrey" stroke-width="6.36" d="M366.59,-196.83C372.75,-179.6 379.88,-159.62 384.51,-146.65"/>
</g>
<!-- dégradation environnementale&#45;&#45;amélioration environnementale -->
<g id="edge80" class="edge">
<title>dégradation environnementale&#45;&#45;amélioration environnementale</title>
<path fill="none" stroke="darkgrey" stroke-width="2.6" d="M384.09,-209.92C418.58,-185.61 473.57,-146.85 495.23,-131.58"/>
</g>
<!-- dégradation environnementale&#45;&#45;essor technologique -->
<g id="edge81" class="edge">
<title>dégradation environnementale&#45;&#45;essor technologique</title>
<path fill="none" stroke="darkgrey" stroke-width="3.36" d="M382.33,-254.35C399.73,-269.05 421.21,-287.2 434.17,-298.14"/>
</g>
<!-- dégradation environnementale&#45;&#45;nickel -->
<g id="edge78" class="edge">
<title>dégradation environnementale&#45;&#45;nickel</title>
<path fill="none" stroke="darkgrey" stroke-width="2.08" d="M387.8,-244.67C425.39,-260.31 483.2,-284.36 497.89,-290.47"/>
</g>
<!-- dégradation environnementale&#45;&#45;nouvelle&#45;calédonie -->
<g id="edge76" class="edge">
<title>dégradation environnementale&#45;&#45;nouvelle&#45;calédonie</title>
<path fill="none" stroke="darkgrey" stroke-width="1.13" d="M324.61,-209.97C280.89,-179.45 202.8,-124.94 186.24,-113.38"/>
</g>
<!-- dégradation environnementale&#45;&#45;nature -->
<g id="edge74" class="edge">
<title>dégradation environnementale&#45;&#45;nature</title>
<path fill="none" stroke="darkgrey" stroke-width="3.56" d="M334.78,-261.5C302.23,-312.27 239.16,-410.65 222.98,-435.89"/>
</g>
<!-- société néo&#45;calédonienne&#45;&#45;alternative au développement -->
<g id="edge85" class="edge">
<title>société néo&#45;calédonienne&#45;&#45;alternative au développement</title>
<path fill="none" stroke="darkgrey" stroke-width="2.92" d="M302.06,-307.05C298.95,-295.41 294.45,-278.59 290.76,-264.77"/>
</g>
<!-- société néo&#45;calédonienne&#45;&#45;économie -->
<g id="edge87" class="edge">
<title>société néo&#45;calédonienne&#45;&#45;économie</title>
<path fill="none" stroke="darkgrey" stroke-width="2.7" d="M311.82,-307.56C327.25,-272.84 368.1,-180.89 383.47,-146.3"/>
</g>
<!-- société néo&#45;calédonienne&#45;&#45;nickel -->
<g id="edge86" class="edge">
<title>société néo&#45;calédonienne&#45;&#45;nickel</title>
<path fill="none" stroke="darkgrey" stroke-width="1.8" d="M320.19,-318.95C360.94,-312.87 475.68,-295.76 497.7,-292.47"/>
</g>
<!-- société néo&#45;calédonienne&#45;&#45;nouvelle&#45;calédonie -->
<g id="edge84" class="edge">
<title>société néo&#45;calédonienne&#45;&#45;nouvelle&#45;calédonie</title>
<path fill="none" stroke="darkgrey" stroke-width="1.34" d="M298.32,-308.28C273.97,-266.62 197.87,-136.45 184.97,-114.38"/>
</g>
<!-- alternative au développement&#45;&#45;économie -->
<g id="edge91" class="edge">
<title>alternative au développement&#45;&#45;économie</title>
<path fill="none" stroke="darkgrey" stroke-width="5.38" d="M302.11,-222.21C324.26,-199.55 361.3,-161.66 379.17,-143.39"/>
</g>
<!-- alternative au développement&#45;&#45;amélioration environnementale -->
<g id="edge92" class="edge">
<title>alternative au développement&#45;&#45;amélioration environnementale</title>
<path fill="none" stroke="darkgrey" stroke-width="4.29" d="M306.59,-228.76C353.6,-204.13 461.2,-147.75 494.45,-130.33"/>
</g>
<!-- alternative au développement&#45;&#45;essor technologique -->
<g id="edge93" class="edge">
<title>alternative au développement&#45;&#45;essor technologique</title>
<path fill="none" stroke="darkgrey" stroke-width="4.13" d="M307.4,-250.12C341.57,-264.39 404.49,-290.67 432.11,-302.21"/>
</g>
<!-- alternative au développement&#45;&#45;nickel -->
<g id="edge90" class="edge">
<title>alternative au développement&#45;&#45;nickel</title>
<path fill="none" stroke="darkgrey" stroke-width="1.83" d="M308.75,-246.26C359.99,-258.4 475.6,-285.81 497.69,-291.05"/>
</g>
<!-- économie&#45;&#45;amélioration environnementale -->
<g id="edge95" class="edge">
<title>économie&#45;&#45;amélioration environnementale</title>
<path fill="none" stroke="darkgrey" stroke-width="1.35" d="M403.99,-131.9C427.33,-130.32 472.57,-127.26 493.42,-125.84"/>
</g>
<!-- économie&#45;&#45;essor technologique -->
<g id="edge96" class="edge">
<title>économie&#45;&#45;essor technologique</title>
<path fill="none" stroke="darkgrey" stroke-width="1.08" d="M393.94,-146.91C404.48,-179.68 430.62,-260.96 441.18,-293.8"/>
</g>
<!-- amélioration environnementale&#45;&#45;essor technologique -->
<g id="edge97" class="edge">
<title>amélioration environnementale&#45;&#45;essor technologique</title>
<path fill="none" stroke="darkgrey" stroke-width="1.72" d="M501.02,-135.71C490.99,-166.95 461.55,-258.57 450.22,-293.83"/>
</g>
<!-- nickel&#45;&#45;économie -->
<g id="edge94" class="edge">
<title>nickel&#45;&#45;économie</title>
<path fill="none" stroke="darkgrey" stroke-width="1.15" d="M499.24,-288.89C486.61,-270.94 421.41,-178.32 397.9,-144.92"/>
</g>
<!-- exploitation minière&#45;&#45;secteur nickel -->
<g id="edge26" class="edge">
<title>exploitation minière&#45;&#45;secteur nickel</title>
<path fill="none" stroke="darkgrey" stroke-width="1.06" d="M82.22,-131.33C94.48,-133.53 259.69,-163.17 314.85,-173.07"/>
</g>
<!-- exploitation minière&#45;&#45;ressource minière -->
<g id="edge27" class="edge">
<title>exploitation minière&#45;&#45;ressource minière</title>
<path fill="none" stroke="darkgrey" stroke-width="1.08" d="M82.22,-131.15C94.03,-130.3 247.3,-119.33 308.49,-114.95"/>
</g>
<!-- exploitation minière&#45;&#45;alternative au développement -->
<g id="edge28" class="edge">
<title>exploitation minière&#45;&#45;alternative au développement</title>
<path fill="none" stroke="darkgrey" stroke-width="1.21" d="M82.08,-131.51C91.44,-136.56 211.33,-201.15 261.95,-228.43"/>
</g>
<!-- nouvelle&#45;calédonie&#45;&#45;alternative au développement -->
<g id="edge88" class="edge">
<title>nouvelle&#45;calédonie&#45;&#45;alternative au développement</title>
<path fill="none" stroke="darkgrey" stroke-width="1.88" d="M185.61,-114.38C196.92,-128.85 243.88,-188.84 268.71,-220.57"/>
</g>
<!-- nouvelle&#45;calédonie&#45;&#45;économie -->
<g id="edge89" class="edge">
<title>nouvelle&#45;calédonie&#45;&#45;économie</title>
<path fill="none" stroke="darkgrey" stroke-width="1.46" d="M186.69,-111.56C209.27,-113.94 332.36,-126.89 374.93,-131.36"/>
</g>
<!-- nature&#45;&#45;société néo&#45;calédonienne -->
<g id="edge82" class="edge">
<title>nature&#45;&#45;société néo&#45;calédonienne</title>
<path fill="none" stroke="darkgrey" stroke-width="1.47" d="M223.3,-436.07C236.7,-417.41 278.73,-358.84 297.08,-333.25"/>
</g>
<!-- nature&#45;&#45;alternative au développement -->
<g id="edge83" class="edge">
<title>nature&#45;&#45;alternative au développement</title>
<path fill="none" stroke="darkgrey" stroke-width="1.14" d="M221.29,-435.2C229.86,-408.71 261.6,-310.53 276.48,-264.53"/>
</g>
<!-- avenir sans nickel -->
<g id="node1" class="node">
<title>avenir sans nickel</title>
<ellipse fill="#f8850f" stroke="white" stroke-width="0" cx="440.84" cy="-140.92" rx="25" ry="25"/>
<text text-anchor="middle" x="452.34" y="-168.52" font-family="Helvetica,sans-Serif" font-size="8.00" fill="#4d4d4d">avenir sans nickel</text>
</g>
<!-- travail -->
<g id="node2" class="node">
<title>travail</title>
<ellipse fill="#ae305c" stroke="white" stroke-width="0" cx="488.37" cy="-214.46" rx="18" ry="18"/>
<text text-anchor="middle" x="457.37" y="-235.06" font-family="Helvetica,sans-Serif" font-size="8.00" fill="#4d4d4d">travail</text>
</g>
<!-- politique -->
<g id="node3" class="node">
<title>politique</title>
<ellipse fill="#c13a50" stroke="white" stroke-width="0" cx="272.85" cy="-136.58" rx="18" ry="18"/>
<text text-anchor="middle" x="236.35" y="-157.18" font-family="Helvetica,sans-Serif" font-size="8.00" fill="#4d4d4d">politique</text>
</g>
<!-- secteur nickel -->
<g id="node4" class="node">
<title>secteur nickel</title>
<ellipse fill="#c03a51" stroke="white" stroke-width="0" cx="332.63" cy="-176.26" rx="18" ry="18"/>
<text text-anchor="middle" x="286.13" y="-196.86" font-family="Helvetica,sans-Serif" font-size="8.00" fill="#4d4d4d">secteur nickel</text>
</g>
<!-- relation politique -->
<g id="node5" class="node">
<title>relation politique</title>
<ellipse fill="#02020e" stroke="white" stroke-width="0" cx="400.04" cy="-0.5" rx="0.5" ry="0.5"/>
<text text-anchor="middle" x="364.54" y="-3.6" font-family="Helvetica,sans-Serif" font-size="8.00" fill="#4d4d4d">relation politique</text>
</g>
<!-- avenir avec nickel -->
<g id="node6" class="node">
<title>avenir avec nickel</title>
<ellipse fill="#3b0964" stroke="white" stroke-width="0" cx="439.43" cy="-219.13" rx="7" ry="7"/>
<text text-anchor="middle" x="422.93" y="-205.73" font-family="Helvetica,sans-Serif" font-size="8.00" fill="#4d4d4d">avenir avec nickel</text>
</g>
<!-- pollution -->
<g id="node7" class="node">
<title>pollution</title>
<ellipse fill="#e55c30" stroke="white" stroke-width="0" cx="362.45" cy="-294.17" rx="21.5" ry="21.5"/>
<text text-anchor="middle" x="322.45" y="-275.27" font-family="Helvetica,sans-Serif" font-size="8.00" fill="#4d4d4d">pollution</text>
</g>
<!-- ressource minière -->
<g id="node8" class="node">
<title>ressource minière</title>
<ellipse fill="#ec6726" stroke="white" stroke-width="0" cx="333.47" cy="-113.16" rx="25" ry="25"/>
<text text-anchor="middle" x="271.97" y="-90.76" font-family="Helvetica,sans-Serif" font-size="8.00" fill="#4d4d4d">ressource minière</text>
</g>
<!-- dégradation environnementale -->
<g id="node9" class="node">
<title>dégradation environnementale</title>
<ellipse fill="#fcffa4" stroke="white" stroke-width="0" cx="354.46" cy="-230.8" rx="36" ry="36"/>
<text text-anchor="middle" x="453.96" y="-269.4" font-family="Helvetica,sans-Serif" font-size="8.00" fill="#4d4d4d">dégradation environnementale</text>
</g>
<!-- société néo&#45;calédonienne -->
<g id="node10" class="node">
<title>société néo&#45;calédonienne</title>
<ellipse fill="#7c1d6d" stroke="white" stroke-width="0" cx="305.81" cy="-321.1" rx="14.5" ry="14.5"/>
<text text-anchor="middle" x="237.31" y="-338.2" font-family="Helvetica,sans-Serif" font-size="8.00" fill="#4d4d4d">société néo&#45;calédonienne</text>
</g>
<!-- alternative au développement -->
<g id="node11" class="node">
<title>alternative au développement</title>
<ellipse fill="#f8850f" stroke="white" stroke-width="0" cx="284.27" cy="-240.45" rx="25" ry="25"/>
<text text-anchor="middle" x="197.27" y="-268.05" font-family="Helvetica,sans-Serif" font-size="8.00" fill="#4d4d4d">alternative au développement</text>
</g>
<!-- économie -->
<g id="node12" class="node">
<title>économie</title>
<ellipse fill="#9d2964" stroke="white" stroke-width="0" cx="389.43" cy="-132.89" rx="14.5" ry="14.5"/>
<text text-anchor="middle" x="354.43" y="-149.99" font-family="Helvetica,sans-Serif" font-size="8.00" fill="#4d4d4d">économie</text>
</g>
<!-- amélioration environnementale -->
<g id="node13" class="node">
<title>amélioration environnementale</title>
<ellipse fill="#61136e" stroke="white" stroke-width="0" cx="504.44" cy="-125.1" rx="11" ry="11"/>
<text text-anchor="middle" x="428.94" y="-107.7" font-family="Helvetica,sans-Serif" font-size="8.00" fill="#4d4d4d">amélioration environnementale</text>
</g>
<!-- essor technologique -->
<g id="node14" class="node">
<title>essor technologique</title>
<ellipse fill="#9b2964" stroke="white" stroke-width="0" cx="445.71" cy="-307.89" rx="14.5" ry="14.5"/>
<text text-anchor="middle" x="388.71" y="-324.99" font-family="Helvetica,sans-Serif" font-size="8.00" fill="#4d4d4d">essor technologique</text>
</g>
<!-- nickel -->
<g id="node15" class="node">
<title>nickel</title>
<ellipse fill="#140b34" stroke="white" stroke-width="0" cx="501.38" cy="-291.92" rx="3.5" ry="3.5"/>
<text text-anchor="middle" x="485.88" y="-298.02" font-family="Helvetica,sans-Serif" font-size="8.00" fill="#4d4d4d">nickel</text>
</g>
<!-- exploitation minière -->
<g id="node16" class="node">
<title>exploitation minière</title>
<ellipse fill="#000004" stroke="white" stroke-width="0" cx="81.5" cy="-131.2" rx="0.5" ry="0.5"/>
<text text-anchor="middle" x="40.5" y="-134.3" font-family="Helvetica,sans-Serif" font-size="8.00" fill="#4d4d4d">exploitation minière</text>
</g>
<!-- nouvelle&#45;calédonie -->
<g id="node17" class="node">
<title>nouvelle&#45;calédonie</title>
<ellipse fill="#150b37" stroke="white" stroke-width="0" cx="183.11" cy="-111.19" rx="3.5" ry="3.5"/>
<text text-anchor="middle" x="140.11" y="-117.29" font-family="Helvetica,sans-Serif" font-size="8.00" fill="#4d4d4d">nouvelle&#45;calédonie</text>
</g>
<!-- nature -->
<g id="node18" class="node">
<title>nature</title>
<ellipse fill="#380962" stroke="white" stroke-width="0" cx="219.12" cy="-441.9" rx="7" ry="7"/>
<text text-anchor="middle" x="198.62" y="-451.5" font-family="Helvetica,sans-Serif" font-size="8.00" fill="#4d4d4d">nature</text>
</g>
</g>
</svg>
