<?xml version="1.0" encoding="UTF-8" standalone="no"?>
<!DOCTYPE svg PUBLIC "-//W3C//DTD SVG 1.1//EN"
 "http://www.w3.org/Graphics/SVG/1.1/DTD/svg11.dtd">
<!-- Generated by graphviz version 2.43.0 (0)
 -->
<!-- Pages: 1 -->
<svg width="1165pt" height="929pt"
 viewBox="0.00 0.00 1164.54 929.34" xmlns="http://www.w3.org/2000/svg" xmlns:xlink="http://www.w3.org/1999/xlink">
<g id="graph0" class="graph" transform="scale(1 1) rotate(0) translate(4 925.34)">
<polygon fill="white" stroke="transparent" points="-4,4 -4,-925.34 1160.54,-925.34 1160.54,4 -4,4"/>
<!-- pollution&#45;&#45;emploi -->
<g id="edge1" class="edge">
<title>pollution&#45;&#45;emploi</title>
<path fill="none" stroke="darkgrey" stroke-width="10" d="M479.36,-499.73C484.48,-490.38 490.32,-479.7 495.69,-469.9"/>
</g>
<!-- pollution&#45;&#45;richesse -->
<g id="edge2" class="edge">
<title>pollution&#45;&#45;richesse</title>
<path fill="none" stroke="darkgrey" stroke-width="2.55" d="M492.49,-536.43C533.96,-553.21 611.13,-584.44 639.16,-595.77"/>
</g>
<!-- pollution&#45;&#45;démolition -->
<g id="edge3" class="edge">
<title>pollution&#45;&#45;démolition</title>
<path fill="none" stroke="darkgrey" stroke-width="2.87" d="M482,-501.44C527.13,-436.68 649.67,-260.87 674.1,-225.83"/>
</g>
<!-- pollution&#45;&#45;argent -->
<g id="edge4" class="edge">
<title>pollution&#45;&#45;argent</title>
<path fill="none" stroke="darkgrey" stroke-width="2.23" d="M494.05,-521.42C582.84,-509.05 849.42,-471.93 896.6,-465.36"/>
</g>
<!-- pollution&#45;&#45;nickel -->
<g id="edge5" class="edge">
<title>pollution&#45;&#45;nickel</title>
<path fill="none" stroke="darkgrey" stroke-width="6.22" d="M494.09,-520.64C508.67,-518.22 526.42,-515.27 541.47,-512.77"/>
</g>
<!-- pollution&#45;&#45;exploitation -->
<g id="edge6" class="edge">
<title>pollution&#45;&#45;exploitation</title>
<path fill="none" stroke="darkgrey" stroke-width="2.15" d="M436.14,-526.2C396.88,-527.25 328.5,-529.08 298.6,-529.88"/>
</g>
<!-- pollution&#45;&#45;montagne -->
<g id="edge7" class="edge">
<title>pollution&#45;&#45;montagne</title>
<path fill="none" stroke="darkgrey" stroke-width="1.78" d="M459.16,-553.99C442.32,-632.58 395.97,-848.9 387.08,-890.41"/>
</g>
<!-- pollution&#45;&#45;camion -->
<g id="edge8" class="edge">
<title>pollution&#45;&#45;camion</title>
<path fill="none" stroke="darkgrey" stroke-width="2.53" d="M440.79,-541.69C404.49,-565.79 338.05,-609.9 313.48,-626.21"/>
</g>
<!-- pollution&#45;&#45;économie -->
<g id="edge9" class="edge">
<title>pollution&#45;&#45;économie</title>
<path fill="none" stroke="darkgrey" stroke-width="5.31" d="M454.21,-498.39C444.61,-474.94 431.01,-441.73 422.88,-421.87"/>
</g>
<!-- pollution&#45;&#45;impact environnemental -->
<g id="edge10" class="edge">
<title>pollution&#45;&#45;impact environnemental</title>
<path fill="none" stroke="darkgrey" stroke-width="4.37" d="M462.86,-496.35C458.39,-442.79 448.97,-329.67 445.02,-282.35"/>
</g>
<!-- pollution&#45;&#45;terre -->
<g id="edge11" class="edge">
<title>pollution&#45;&#45;terre</title>
<path fill="none" stroke="darkgrey" stroke-width="1.53" d="M466.11,-554.43C467.87,-616.27 471.91,-758.21 472.86,-791.68"/>
</g>
<!-- pollution&#45;&#45;usine -->
<g id="edge12" class="edge">
<title>pollution&#45;&#45;usine</title>
<path fill="none" stroke="darkgrey" stroke-width="2.22" d="M437.43,-516.85C372.96,-497 216.34,-448.78 181.69,-438.11"/>
</g>
<!-- pollution&#45;&#45;sln -->
<g id="edge13" class="edge">
<title>pollution&#45;&#45;sln</title>
<path fill="none" stroke="darkgrey" stroke-width="1.08" d="M451.87,-499.47C418.31,-434.52 332.14,-267.76 314.33,-233.3"/>
</g>
<!-- pollution&#45;&#45;ressource -->
<g id="edge14" class="edge">
<title>pollution&#45;&#45;ressource</title>
<path fill="none" stroke="darkgrey" stroke-width="1.44" d="M441.51,-508.72C377.36,-463.64 203.19,-341.24 168.47,-316.84"/>
</g>
<!-- pollution&#45;&#45;conflit -->
<g id="edge15" class="edge">
<title>pollution&#45;&#45;conflit</title>
<path fill="none" stroke="darkgrey" stroke-width="2.1" d="M482.72,-549.3C526.45,-609.16 638.49,-762.55 655.73,-786.15"/>
</g>
<!-- pollution&#45;&#45;développement -->
<g id="edge16" class="edge">
<title>pollution&#45;&#45;développement</title>
<path fill="none" stroke="darkgrey" stroke-width="1.87" d="M460.52,-496.46C442.88,-388.99 382.05,-18.44 379.21,-1.13"/>
</g>
<!-- pollution&#45;&#45;minerai -->
<g id="edge17" class="edge">
<title>pollution&#45;&#45;minerai</title>
<path fill="none" stroke="darkgrey" stroke-width="2.18" d="M438.09,-535.91C372.24,-561.3 207,-625.01 171.64,-638.64"/>
</g>
<!-- pollution&#45;&#45;déforestation -->
<g id="edge18" class="edge">
<title>pollution&#45;&#45;déforestation</title>
<path fill="none" stroke="darkgrey" stroke-width="1.62" d="M490.74,-539.84C571.02,-585.32 815.41,-723.75 845.65,-740.87"/>
</g>
<!-- emploi&#45;&#45;richesse -->
<g id="edge19" class="edge">
<title>emploi&#45;&#45;richesse</title>
<path fill="none" stroke="darkgrey" stroke-width="3.41" d="M536.54,-466.02C568.13,-503.43 622.6,-567.96 642.3,-591.29"/>
</g>
<!-- emploi&#45;&#45;démolition -->
<g id="edge20" class="edge">
<title>emploi&#45;&#45;démolition</title>
<path fill="none" stroke="darkgrey" stroke-width="2.89" d="M535.01,-409.18C574.35,-357.18 654.6,-251.11 674.05,-225.41"/>
</g>
<!-- emploi&#45;&#45;argent -->
<g id="edge21" class="edge">
<title>emploi&#45;&#45;argent</title>
<path fill="none" stroke="darkgrey" stroke-width="2.87" d="M549.12,-440.61C636.4,-446.46 854.94,-461.09 896.79,-463.89"/>
</g>
<!-- emploi&#45;&#45;nickel -->
<g id="edge22" class="edge">
<title>emploi&#45;&#45;nickel</title>
<path fill="none" stroke="darkgrey" stroke-width="7.69" d="M537.09,-465.54C542.14,-471.28 547.43,-477.3 552.38,-482.93"/>
</g>
<!-- emploi&#45;&#45;exploitation -->
<g id="edge23" class="edge">
<title>emploi&#45;&#45;exploitation</title>
<path fill="none" stroke="darkgrey" stroke-width="2.92" d="M479.24,-451.78C427.95,-472.39 332.72,-510.66 297.47,-524.82"/>
</g>
<!-- emploi&#45;&#45;montagne -->
<g id="edge24" class="edge">
<title>emploi&#45;&#45;montagne</title>
<path fill="none" stroke="darkgrey" stroke-width="1.25" d="M503.37,-473.09C476.24,-570.82 400.62,-843.22 387.53,-890.35"/>
</g>
<!-- emploi&#45;&#45;camion -->
<g id="edge25" class="edge">
<title>emploi&#45;&#45;camion</title>
<path fill="none" stroke="darkgrey" stroke-width="2.11" d="M486.58,-462.8C438.9,-507.12 340.88,-598.23 312.12,-624.96"/>
</g>
<!-- emploi&#45;&#45;économie -->
<g id="edge26" class="edge">
<title>emploi&#45;&#45;économie</title>
<path fill="none" stroke="darkgrey" stroke-width="6.53" d="M478.82,-426.48C463.32,-421.17 445.67,-415.13 433.03,-410.8"/>
</g>
<!-- emploi&#45;&#45;impact environnemental -->
<g id="edge27" class="edge">
<title>emploi&#45;&#45;impact environnemental</title>
<path fill="none" stroke="darkgrey" stroke-width="6.17" d="M499.76,-404.42C485.43,-368.03 463.11,-311.32 451.25,-281.21"/>
</g>
<!-- emploi&#45;&#45;terre -->
<g id="edge30" class="edge">
<title>emploi&#45;&#45;terre</title>
<path fill="none" stroke="darkgrey" stroke-width="1.85" d="M509.08,-474.1C500.01,-555.87 478.26,-752.02 473.85,-791.75"/>
</g>
<!-- emploi&#45;&#45;usine -->
<g id="edge31" class="edge">
<title>emploi&#45;&#45;usine</title>
<path fill="none" stroke="darkgrey" stroke-width="1.69" d="M476.86,-437.96C399.15,-437.46 220.28,-436.29 182.08,-436.04"/>
</g>
<!-- emploi&#45;&#45;sln -->
<g id="edge32" class="edge">
<title>emploi&#45;&#45;sln</title>
<path fill="none" stroke="darkgrey" stroke-width="1.71" d="M487.89,-411.88C440.3,-362.12 339.79,-257.03 316.14,-232.31"/>
</g>
<!-- emploi&#45;&#45;ressource -->
<g id="edge33" class="edge">
<title>emploi&#45;&#45;ressource</title>
<path fill="none" stroke="darkgrey" stroke-width="1.94" d="M479.12,-426.04C400.05,-397.71 207.41,-328.7 169.09,-314.97"/>
</g>
<!-- emploi&#45;&#45;conflit -->
<g id="edge34" class="edge">
<title>emploi&#45;&#45;conflit</title>
<path fill="none" stroke="darkgrey" stroke-width="3.1" d="M526.82,-471.54C560.45,-553 644.9,-757.57 656.61,-785.94"/>
</g>
<!-- emploi&#45;&#45;développement -->
<g id="edge35" class="edge">
<title>emploi&#45;&#45;développement</title>
<path fill="none" stroke="darkgrey" stroke-width="1.46" d="M502.44,-403.49C471.5,-302.39 383.37,-14.43 379.26,-0.99"/>
</g>
<!-- emploi&#45;&#45;minerai -->
<g id="edge36" class="edge">
<title>emploi&#45;&#45;minerai</title>
<path fill="none" stroke="darkgrey" stroke-width="1.64" d="M481.86,-456.39C404.75,-501.36 208.73,-615.68 171.18,-637.58"/>
</g>
<!-- emploi&#45;&#45;déforestation -->
<g id="edge37" class="edge">
<title>emploi&#45;&#45;déforestation</title>
<path fill="none" stroke="darkgrey" stroke-width="1.84" d="M539.96,-462.6C614.32,-530.04 818.96,-715.62 845.8,-739.97"/>
</g>
<!-- emploi&#45;&#45;roche -->
<g id="edge28" class="edge">
<title>emploi&#45;&#45;roche</title>
<path fill="none" stroke="darkgrey" stroke-width="1.14" d="M480.5,-453.89C383.95,-500.44 103.06,-635.85 56.56,-658.26"/>
</g>
<!-- emploi&#45;&#45;terre rouge -->
<g id="edge29" class="edge">
<title>emploi&#45;&#45;terre rouge</title>
<path fill="none" stroke="darkgrey" stroke-width="1.56" d="M545.9,-422.96C645.24,-376.86 937.77,-241.13 971.71,-225.38"/>
</g>
<!-- emploi&#45;&#45;exportation -->
<g id="edge38" class="edge">
<title>emploi&#45;&#45;exportation</title>
<path fill="none" stroke="darkgrey" stroke-width="1.05" d="M526.4,-404.67C564.39,-309.18 670.86,-41.61 677.48,-24.98"/>
</g>
<!-- richesse&#45;&#45;nickel -->
<g id="edge39" class="edge">
<title>richesse&#45;&#45;nickel</title>
<path fill="none" stroke="darkgrey" stroke-width="2.26" d="M642.68,-591.48C631.83,-578.22 610.53,-552.18 594.48,-532.58"/>
</g>
<!-- richesse&#45;&#45;exploitation -->
<g id="edge40" class="edge">
<title>richesse&#45;&#45;exploitation</title>
<path fill="none" stroke="darkgrey" stroke-width="1.11" d="M638.72,-597.94C585.95,-587.88 357.87,-544.38 298.22,-533"/>
</g>
<!-- richesse&#45;&#45;économie -->
<g id="edge41" class="edge">
<title>richesse&#45;&#45;économie</title>
<path fill="none" stroke="darkgrey" stroke-width="1.61" d="M641.08,-592.85C605.99,-563.57 473.44,-452.94 429.91,-416.6"/>
</g>
<!-- richesse&#45;&#45;impact environnemental -->
<g id="edge42" class="edge">
<title>richesse&#45;&#45;impact environnemental</title>
<path fill="none" stroke="darkgrey" stroke-width="2.46" d="M643.93,-590.6C615.87,-544.49 492.83,-342.33 454.6,-279.51"/>
</g>
<!-- richesse&#45;&#45;terre -->
<g id="edge43" class="edge">
<title>richesse&#45;&#45;terre</title>
<path fill="none" stroke="darkgrey" stroke-width="1" d="M642.08,-608.57C612.11,-642.31 502.4,-765.82 477.93,-793.37"/>
</g>
<!-- démolition&#45;&#45;nickel -->
<g id="edge44" class="edge">
<title>démolition&#45;&#45;nickel</title>
<path fill="none" stroke="darkgrey" stroke-width="1.43" d="M675.88,-226.53C663.61,-260.31 609.04,-410.56 585.14,-476.35"/>
</g>
<!-- démolition&#45;&#45;économie -->
<g id="edge45" class="edge">
<title>démolition&#45;&#45;économie</title>
<path fill="none" stroke="darkgrey" stroke-width="1.1" d="M672.39,-223.92C639.51,-247.13 480.27,-359.55 430.71,-394.54"/>
</g>
<!-- démolition&#45;&#45;impact environnemental -->
<g id="edge46" class="edge">
<title>démolition&#45;&#45;impact environnemental</title>
<path fill="none" stroke="darkgrey" stroke-width="1.15" d="M671.33,-220.93C640.3,-226.36 515.05,-248.27 464.52,-257.1"/>
</g>
<!-- argent&#45;&#45;nickel -->
<g id="edge47" class="edge">
<title>argent&#45;&#45;nickel</title>
<path fill="none" stroke="darkgrey" stroke-width="2.68" d="M896.58,-465.3C858.61,-470.25 680.48,-493.48 606.36,-503.15"/>
</g>
<!-- nickel&#45;&#45;exploitation -->
<g id="edge48" class="edge">
<title>nickel&#45;&#45;exploitation</title>
<path fill="none" stroke="darkgrey" stroke-width="3.49" d="M541.45,-509.94C478.79,-514.89 343.28,-525.59 298.55,-529.12"/>
</g>
<!-- nickel&#45;&#45;montagne -->
<g id="edge49" class="edge">
<title>nickel&#45;&#45;montagne</title>
<path fill="none" stroke="darkgrey" stroke-width="2.57" d="M559.72,-536.69C519.95,-619.06 408.79,-849.29 388.72,-890.87"/>
</g>
<!-- nickel&#45;&#45;camion -->
<g id="edge50" class="edge">
<title>nickel&#45;&#45;camion</title>
<path fill="none" stroke="darkgrey" stroke-width="4.01" d="M544.22,-521.13C484.39,-548.87 351.71,-610.38 314.13,-627.81"/>
</g>
<!-- nickel&#45;&#45;économie -->
<g id="edge51" class="edge">
<title>nickel&#45;&#45;économie</title>
<path fill="none" stroke="darkgrey" stroke-width="4.73" d="M546.36,-489.54C512.96,-467.88 457.8,-432.1 431.21,-414.85"/>
</g>
<!-- nickel&#45;&#45;impact environnemental -->
<g id="edge52" class="edge">
<title>nickel&#45;&#45;impact environnemental</title>
<path fill="none" stroke="darkgrey" stroke-width="4.18" d="M558.63,-478.62C531.64,-427.68 476.14,-322.94 453.34,-279.92"/>
</g>
<!-- nickel&#45;&#45;terre -->
<g id="edge55" class="edge">
<title>nickel&#45;&#45;terre</title>
<path fill="none" stroke="darkgrey" stroke-width="1.9" d="M563.18,-538.3C540.17,-604.81 487.11,-758.23 475.39,-792.13"/>
</g>
<!-- nickel&#45;&#45;usine -->
<g id="edge56" class="edge">
<title>nickel&#45;&#45;usine</title>
<path fill="none" stroke="darkgrey" stroke-width="3.25" d="M541.55,-501.6C455.64,-486.23 225.21,-445.01 181.89,-437.26"/>
</g>
<!-- nickel&#45;&#45;sln -->
<g id="edge57" class="edge">
<title>nickel&#45;&#45;sln</title>
<path fill="none" stroke="darkgrey" stroke-width="3.38" d="M551.46,-483.48C494.12,-422.3 344.54,-262.71 315.88,-232.13"/>
</g>
<!-- nickel&#45;&#45;ressource -->
<g id="edge58" class="edge">
<title>nickel&#45;&#45;ressource</title>
<path fill="none" stroke="darkgrey" stroke-width="1.59" d="M544.28,-493.37C458.22,-452.63 211.45,-335.8 168.74,-315.57"/>
</g>
<!-- nickel&#45;&#45;conflit -->
<g id="edge60" class="edge">
<title>nickel&#45;&#45;conflit</title>
<path fill="none" stroke="darkgrey" stroke-width="1.14" d="M583.19,-538.62C603.29,-605.98 649.5,-760.84 656.95,-785.8"/>
</g>
<!-- nickel&#45;&#45;minerai -->
<g id="edge61" class="edge">
<title>nickel&#45;&#45;minerai</title>
<path fill="none" stroke="darkgrey" stroke-width="3.35" d="M542.8,-517.55C456.12,-545.92 215.19,-624.78 171.69,-639.02"/>
</g>
<!-- nickel&#45;&#45;déforestation -->
<g id="edge62" class="edge">
<title>nickel&#45;&#45;déforestation</title>
<path fill="none" stroke="darkgrey" stroke-width="1.68" d="M598.75,-528.67C661.38,-582.28 822.29,-719.99 845.83,-740.14"/>
</g>
<!-- nickel&#45;&#45;roche -->
<g id="edge53" class="edge">
<title>nickel&#45;&#45;roche</title>
<path fill="none" stroke="darkgrey" stroke-width="2.06" d="M542.67,-516.56C438.92,-547.06 109.13,-644.04 56.98,-659.37"/>
</g>
<!-- nickel&#45;&#45;terre rouge -->
<g id="edge54" class="edge">
<title>nickel&#45;&#45;terre rouge</title>
<path fill="none" stroke="darkgrey" stroke-width="2.18" d="M600.49,-488.56C684.47,-429.2 940.08,-248.51 971.71,-226.16"/>
</g>
<!-- nickel&#45;&#45;exportation -->
<g id="edge63" class="edge">
<title>nickel&#45;&#45;exportation</title>
<path fill="none" stroke="darkgrey" stroke-width="1.43" d="M580.77,-475.3C603.44,-369.91 674.37,-40.13 677.68,-24.72"/>
</g>
<!-- nickel&#45;&#45;usine du sud -->
<g id="edge59" class="edge">
<title>nickel&#45;&#45;usine du sud</title>
<path fill="none" stroke="darkgrey" stroke-width="1.69" d="M605.17,-516.93C723.26,-552.94 1136.05,-678.83 1155.34,-684.71"/>
</g>
<!-- exploitation&#45;&#45;camion -->
<g id="edge64" class="edge">
<title>exploitation&#45;&#45;camion</title>
<path fill="none" stroke="darkgrey" stroke-width="1.16" d="M286.78,-544.92C290.87,-565.67 298.25,-603.17 301.89,-621.63"/>
</g>
<!-- exploitation&#45;&#45;économie -->
<g id="edge65" class="edge">
<title>exploitation&#45;&#45;économie</title>
<path fill="none" stroke="darkgrey" stroke-width="1.45" d="M294.7,-520.02C318.73,-497.22 376.5,-442.39 402.67,-417.56"/>
</g>
<!-- exploitation&#45;&#45;impact environnemental -->
<g id="edge66" class="edge">
<title>exploitation&#45;&#45;impact environnemental</title>
<path fill="none" stroke="darkgrey" stroke-width="2.36" d="M291.37,-517.64C317.02,-474.25 401.62,-331.19 432.13,-279.59"/>
</g>
<!-- exploitation&#45;&#45;terre -->
<g id="edge68" class="edge">
<title>exploitation&#45;&#45;terre</title>
<path fill="none" stroke="darkgrey" d="M292.27,-542.16C325.16,-588.86 444.89,-758.84 468.87,-792.88"/>
</g>
<!-- exploitation&#45;&#45;usine -->
<g id="edge69" class="edge">
<title>exploitation&#45;&#45;usine</title>
<path fill="none" stroke="darkgrey" stroke-width="1.59" d="M272.63,-520.54C249.56,-500.59 197.62,-455.7 180.45,-440.86"/>
</g>
<!-- exploitation&#45;&#45;ressource -->
<g id="edge70" class="edge">
<title>exploitation&#45;&#45;ressource</title>
<path fill="none" stroke="darkgrey" stroke-width="1.55" d="M276.66,-517.31C253.67,-476.12 182.83,-349.18 166.01,-319.04"/>
</g>
<!-- exploitation&#45;&#45;minerai -->
<g id="edge71" class="edge">
<title>exploitation&#45;&#45;minerai</title>
<path fill="none" stroke="darkgrey" stroke-width="2.32" d="M272.92,-540.51C248.06,-563.69 188.26,-619.46 170.18,-636.32"/>
</g>
<!-- exploitation&#45;&#45;roche -->
<g id="edge67" class="edge">
<title>exploitation&#45;&#45;roche</title>
<path fill="none" stroke="darkgrey" stroke-width="1.29" d="M270.99,-537.51C227.51,-561.89 87.38,-640.46 56.19,-657.95"/>
</g>
<!-- montagne&#45;&#45;camion -->
<g id="edge72" class="edge">
<title>montagne&#45;&#45;camion</title>
<path fill="none" stroke="darkgrey" stroke-width="1.25" d="M383.49,-890.53C372.42,-854.58 320.79,-686.93 307.27,-643.03"/>
</g>
<!-- montagne&#45;&#45;terre -->
<g id="edge73" class="edge">
<title>montagne&#45;&#45;terre</title>
<path fill="none" stroke="darkgrey" stroke-width="1.01" d="M390.29,-892.05C405.48,-874.94 453.12,-821.3 468.34,-804.16"/>
</g>
<!-- camion&#45;&#45;économie -->
<g id="edge74" class="edge">
<title>camion&#45;&#45;économie</title>
<path fill="none" stroke="darkgrey" stroke-width="1.06" d="M308.98,-622.42C326.58,-586.64 386.2,-465.44 407.94,-421.25"/>
</g>
<!-- camion&#45;&#45;impact environnemental -->
<g id="edge75" class="edge">
<title>camion&#45;&#45;impact environnemental</title>
<path fill="none" stroke="darkgrey" stroke-width="1.36" d="M307.89,-622.16C326.82,-571.63 409.78,-350.12 435.56,-281.3"/>
</g>
<!-- camion&#45;&#45;terre -->
<g id="edge77" class="edge">
<title>camion&#45;&#45;terre</title>
<path fill="none" stroke="darkgrey" stroke-width="1.1" d="M312.18,-640.51C341.86,-669.72 443.65,-769.89 467.87,-793.72"/>
</g>
<!-- camion&#45;&#45;usine -->
<g id="edge78" class="edge">
<title>camion&#45;&#45;usine</title>
<path fill="none" stroke="darkgrey" stroke-width="1.76" d="M297.97,-623.27C275.52,-589.13 197.4,-470.34 178.81,-442.07"/>
</g>
<!-- camion&#45;&#45;sln -->
<g id="edge79" class="edge">
<title>camion&#45;&#45;sln</title>
<path fill="none" stroke="darkgrey" stroke-width="1.07" d="M304.22,-621.22C305.26,-561.49 310.12,-282.77 310.96,-234.24"/>
</g>
<!-- camion&#45;&#45;minerai -->
<g id="edge80" class="edge">
<title>camion&#45;&#45;minerai</title>
<path fill="none" stroke="darkgrey" stroke-width="1.44" d="M292.64,-633.2C265,-634.94 194.93,-639.35 172.17,-640.78"/>
</g>
<!-- camion&#45;&#45;roche -->
<g id="edge76" class="edge">
<title>camion&#45;&#45;roche</title>
<path fill="none" stroke="darkgrey" stroke-width="1.27" d="M292.78,-633.77C249.19,-638.73 92.01,-656.64 56.96,-660.63"/>
</g>
<!-- économie&#45;&#45;impact environnemental -->
<g id="edge81" class="edge">
<title>économie&#45;&#45;impact environnemental</title>
<path fill="none" stroke="darkgrey" stroke-width="5.18" d="M419.35,-386.99C424.38,-360.43 433.78,-310.76 439.16,-282.31"/>
</g>
<!-- économie&#45;&#45;usine -->
<g id="edge82" class="edge">
<title>économie&#45;&#45;usine</title>
<path fill="none" stroke="darkgrey" stroke-width="1.16" d="M397.83,-407.29C348.76,-413.61 214.82,-430.85 182.1,-435.06"/>
</g>
<!-- économie&#45;&#45;sln -->
<g id="edge83" class="edge">
<title>économie&#45;&#45;sln</title>
<path fill="none" stroke="darkgrey" stroke-width="1.5" d="M406.65,-389.17C384.49,-351.57 329.37,-258.05 314.71,-233.17"/>
</g>
<!-- économie&#45;&#45;conflit -->
<g id="edge84" class="edge">
<title>économie&#45;&#45;conflit</title>
<path fill="none" stroke="darkgrey" stroke-width="1.61" d="M425.74,-420.5C468.19,-487.89 635.15,-752.99 655.86,-785.87"/>
</g>
<!-- impact environnemental&#45;&#45;usine -->
<g id="edge85" class="edge">
<title>impact environnemental&#45;&#45;usine</title>
<path fill="none" stroke="darkgrey" stroke-width="1.3" d="M425.2,-272.59C371.37,-307.73 213.49,-410.75 180.79,-432.1"/>
</g>
<!-- impact environnemental&#45;&#45;sln -->
<g id="edge86" class="edge">
<title>impact environnemental&#45;&#45;sln</title>
<path fill="none" stroke="darkgrey" stroke-width="1.02" d="M422.29,-255.47C391.87,-247.69 337,-233.65 317.88,-228.76"/>
</g>
<!-- impact environnemental&#45;&#45;ressource -->
<g id="edge87" class="edge">
<title>impact environnemental&#45;&#45;ressource</title>
<path fill="none" stroke="darkgrey" stroke-width="1.02" d="M421.66,-264.8C363.35,-275.55 204.6,-304.8 169.38,-311.29"/>
</g>
<!-- impact environnemental&#45;&#45;développement -->
<g id="edge88" class="edge">
<title>impact environnemental&#45;&#45;développement</title>
<path fill="none" stroke="darkgrey" stroke-width="1.11" d="M437.98,-239.52C423.15,-179.29 381.8,-11.44 379.23,-1.01"/>
</g>
<!-- impact environnemental&#45;&#45;exportation -->
<g id="edge89" class="edge">
<title>impact environnemental&#45;&#45;exportation</title>
<path fill="none" stroke="darkgrey" stroke-width="1.15" d="M458.62,-245.3C509.17,-194.29 667.48,-34.58 677.32,-24.65"/>
</g>
<!-- usine&#45;&#45;minerai -->
<g id="edge90" class="edge">
<title>usine&#45;&#45;minerai</title>
<path fill="none" stroke="darkgrey" stroke-width="1.98" d="M174.47,-443.3C172.92,-475.29 166.77,-602.84 165.25,-634.23"/>
</g>
<!-- ressource&#45;&#45;minerai -->
<g id="edge91" class="edge">
<title>ressource&#45;&#45;minerai</title>
<path fill="none" stroke="darkgrey" stroke-width="1.04" d="M162.46,-319.74C162.79,-363.21 164.53,-590.96 164.86,-634.16"/>
</g>
<!-- pollution -->
<g id="node1" class="node">
<title>pollution</title>
<ellipse fill="#f98e09" stroke="white" stroke-width="0" cx="465.28" cy="-525.43" rx="29" ry="29"/>
<text text-anchor="middle" x="382.28" y="-561.59" font-family="Helvetica,sans-Serif" font-size="24.80" fill="#4d4d4d">pollution</text>
</g>
<!-- emploi -->
<g id="node2" class="node">
<title>emploi</title>
<ellipse fill="#fcffa4" stroke="white" stroke-width="0" cx="513.06" cy="-438.2" rx="36" ry="36"/>
<text text-anchor="middle" x="524.56" y="-379.8" font-family="Helvetica,sans-Serif" font-size="28.00" fill="#4d4d4d">emploi</text>
</g>
<!-- richesse -->
<g id="node3" class="node">
<title>richesse</title>
<ellipse fill="#57106e" stroke="white" stroke-width="0" cx="649.67" cy="-600.03" rx="11" ry="11"/>
<text text-anchor="middle" x="603.67" y="-615.59" font-family="Helvetica,sans-Serif" font-size="16.80" fill="#4d4d4d">richesse</text>
</g>
<!-- démolition -->
<g id="node4" class="node">
<title>démolition</title>
<ellipse fill="#240c4f" stroke="white" stroke-width="0" cx="678.36" cy="-219.7" rx="7" ry="7"/>
<text text-anchor="middle" x="630.36" y="-231.54" font-family="Helvetica,sans-Serif" font-size="15.20" fill="#4d4d4d">démolition</text>
</g>
<!-- argent -->
<g id="node5" class="node">
<title>argent</title>
<ellipse fill="#3e0966" stroke="white" stroke-width="0" cx="903.78" cy="-464.36" rx="7" ry="7"/>
<text text-anchor="middle" x="871.78" y="-476.2" font-family="Helvetica,sans-Serif" font-size="15.20" fill="#4d4d4d">argent</text>
</g>
<!-- nickel -->
<g id="node6" class="node">
<title>nickel</title>
<ellipse fill="#fac026" stroke="white" stroke-width="0" cx="573.87" cy="-507.38" rx="32.5" ry="32.5"/>
<text text-anchor="middle" x="579.87" y="-547.76" font-family="Helvetica,sans-Serif" font-size="26.40" fill="#4d4d4d">nickel</text>
</g>
<!-- exploitation -->
<g id="node7" class="node">
<title>exploitation</title>
<ellipse fill="#8a226a" stroke="white" stroke-width="0" cx="283.9" cy="-530.27" rx="14.5" ry="14.5"/>
<text text-anchor="middle" x="213.9" y="-550.05" font-family="Helvetica,sans-Serif" font-size="18.40" fill="#4d4d4d">exploitation</text>
</g>
<!-- montagne -->
<g id="node8" class="node">
<title>montagne</title>
<ellipse fill="#260c51" stroke="white" stroke-width="0" cx="385.59" cy="-897.34" rx="7" ry="7"/>
<text text-anchor="middle" x="339.59" y="-909.18" font-family="Helvetica,sans-Serif" font-size="15.20" fill="#4d4d4d">montagne</text>
</g>
<!-- camion -->
<g id="node9" class="node">
<title>camion</title>
<ellipse fill="#520e6d" stroke="white" stroke-width="0" cx="304.02" cy="-632.49" rx="11" ry="11"/>
<text text-anchor="middle" x="262.02" y="-648.05" font-family="Helvetica,sans-Serif" font-size="16.80" fill="#4d4d4d">camion</text>
</g>
<!-- économie -->
<g id="node10" class="node">
<title>économie</title>
<ellipse fill="#b43359" stroke="white" stroke-width="0" cx="415.96" cy="-404.96" rx="18" ry="18"/>
<text text-anchor="middle" x="349.46" y="-428.96" font-family="Helvetica,sans-Serif" font-size="20.00" fill="#4d4d4d">économie</text>
</g>
<!-- impact environnemental -->
<g id="node11" class="node">
<title>impact environnemental</title>
<ellipse fill="#ca404a" stroke="white" stroke-width="0" cx="443.23" cy="-260.83" rx="21.5" ry="21.5"/>
<text text-anchor="middle" x="289.23" y="-246.05" font-family="Helvetica,sans-Serif" font-size="21.60" fill="#4d4d4d">impact environnemental</text>
</g>
<!-- terre -->
<g id="node12" class="node">
<title>terre</title>
<ellipse fill="#240c4f" stroke="white" stroke-width="0" cx="473.07" cy="-798.84" rx="7" ry="7"/>
<text text-anchor="middle" x="447.57" y="-810.68" font-family="Helvetica,sans-Serif" font-size="15.20" fill="#4d4d4d">terre</text>
</g>
<!-- usine -->
<g id="node13" class="node">
<title>usine</title>
<ellipse fill="#3b0964" stroke="white" stroke-width="0" cx="174.82" cy="-435.99" rx="7" ry="7"/>
<text text-anchor="middle" x="146.82" y="-447.83" font-family="Helvetica,sans-Serif" font-size="15.20" fill="#4d4d4d">usine</text>
</g>
<!-- sln -->
<g id="node14" class="node">
<title>sln</title>
<ellipse fill="#260c51" stroke="white" stroke-width="0" cx="311.09" cy="-227.02" rx="7" ry="7"/>
<text text-anchor="middle" x="292.59" y="-224.86" font-family="Helvetica,sans-Serif" font-size="15.20" fill="#4d4d4d">sln</text>
</g>
<!-- ressource -->
<g id="node15" class="node">
<title>ressource</title>
<ellipse fill="#2d0b59" stroke="white" stroke-width="0" cx="162.4" cy="-312.57" rx="7" ry="7"/>
<text text-anchor="middle" x="118.4" y="-324.41" font-family="Helvetica,sans-Serif" font-size="15.20" fill="#4d4d4d">ressource</text>
</g>
<!-- conflit -->
<g id="node16" class="node">
<title>conflit</title>
<ellipse fill="#1f0c48" stroke="white" stroke-width="0" cx="657.97" cy="-789.22" rx="3.5" ry="3.5"/>
<text text-anchor="middle" x="633.47" y="-796.84" font-family="Helvetica,sans-Serif" font-size="13.60" fill="#4d4d4d">conflit</text>
</g>
<!-- développement -->
<g id="node17" class="node">
<title>développement</title>
<ellipse fill="#010005" stroke="white" stroke-width="0" cx="379.11" cy="-0.5" rx="0.5" ry="0.5"/>
<text text-anchor="middle" x="331.61" y="-4.4" font-family="Helvetica,sans-Serif" font-size="12.00" fill="#4d4d4d">développement</text>
</g>
<!-- minerai -->
<g id="node18" class="node">
<title>minerai</title>
<ellipse fill="#3d0965" stroke="white" stroke-width="0" cx="164.91" cy="-641.23" rx="7" ry="7"/>
<text text-anchor="middle" x="128.91" y="-653.07" font-family="Helvetica,sans-Serif" font-size="15.20" fill="#4d4d4d">minerai</text>
</g>
<!-- déforestation -->
<g id="node19" class="node">
<title>déforestation</title>
<ellipse fill="#0a0722" stroke="white" stroke-width="0" cx="848.73" cy="-742.62" rx="3.5" ry="3.5"/>
<text text-anchor="middle" x="800.23" y="-750.24" font-family="Helvetica,sans-Serif" font-size="13.60" fill="#4d4d4d">déforestation</text>
</g>
<!-- roche -->
<g id="node20" class="node">
<title>roche</title>
<ellipse fill="#3e0966" stroke="white" stroke-width="0" cx="50" cy="-661.42" rx="7" ry="7"/>
<text text-anchor="middle" x="21.5" y="-673.26" font-family="Helvetica,sans-Serif" font-size="15.20" fill="#4d4d4d">roche</text>
</g>
<!-- terre rouge -->
<g id="node21" class="node">
<title>terre rouge</title>
<ellipse fill="#0c0826" stroke="white" stroke-width="0" cx="974.93" cy="-223.88" rx="3.5" ry="3.5"/>
<text text-anchor="middle" x="933.43" y="-231.5" font-family="Helvetica,sans-Serif" font-size="13.60" fill="#4d4d4d">terre rouge</text>
</g>
<!-- exportation -->
<g id="node22" class="node">
<title>exportation</title>
<ellipse fill="#010106" stroke="white" stroke-width="0" cx="677.8" cy="-24.17" rx="0.5" ry="0.5"/>
<text text-anchor="middle" x="642.3" y="-28.07" font-family="Helvetica,sans-Serif" font-size="12.00" fill="#4d4d4d">exportation</text>
</g>
<!-- usine du sud -->
<g id="node23" class="node">
<title>usine du sud</title>
<ellipse fill="#000004" stroke="white" stroke-width="0" cx="1156.04" cy="-684.92" rx="0.5" ry="0.5"/>
<text text-anchor="middle" x="1117.54" y="-688.82" font-family="Helvetica,sans-Serif" font-size="12.00" fill="#4d4d4d">usine du sud</text>
</g>
</g>
</svg>
