<?xml version="1.0" encoding="UTF-8" standalone="no"?>
<!DOCTYPE svg PUBLIC "-//W3C//DTD SVG 1.1//EN"
 "http://www.w3.org/Graphics/SVG/1.1/DTD/svg11.dtd">
<!-- Generated by graphviz version 2.43.0 (0)
 -->
<!-- Pages: 1 -->
<svg width="476pt" height="211pt"
 viewBox="0.00 0.00 476.44 211.04" xmlns="http://www.w3.org/2000/svg" xmlns:xlink="http://www.w3.org/1999/xlink">
<g id="graph0" class="graph" transform="scale(1 1) rotate(0) translate(4 207.04)">
<polygon fill="white" stroke="transparent" points="-4,4 -4,-207.04 472.44,-207.04 472.44,4 -4,4"/>
<!-- emploi&#45;&#45;pollution -->
<g id="edge1" class="edge">
<title>emploi&#45;&#45;pollution</title>
<path fill="none" stroke="darkgrey" stroke-width="10" d="M230.95,-106.62C252.23,-106.66 285.05,-106.71 310.24,-106.75"/>
</g>
<!-- emploi&#45;&#45;impact environnemental -->
<g id="edge2" class="edge">
<title>emploi&#45;&#45;impact environnemental</title>
<path fill="none" stroke="darkgrey" stroke-width="4.89" d="M229.49,-99.22C238.44,-95.96 248.86,-92.17 257.4,-89.06"/>
</g>
<!-- emploi&#45;&#45;ressource -->
<g id="edge3" class="edge">
<title>emploi&#45;&#45;ressource</title>
<path fill="none" stroke="darkgrey" stroke-width="1.03" d="M216.74,-126.77C222.4,-142.01 229.83,-162 233.65,-172.28"/>
</g>
<!-- emploi&#45;&#45;économie -->
<g id="edge4" class="edge">
<title>emploi&#45;&#45;économie</title>
<path fill="none" stroke="darkgrey" stroke-width="1.93" d="M227.02,-119.08C247.68,-133.59 280.97,-156.99 296.98,-168.24"/>
</g>
<!-- emploi&#45;&#45;végétalisation -->
<g id="edge5" class="edge">
<title>emploi&#45;&#45;végétalisation</title>
<path fill="none" stroke="darkgrey" stroke-width="1.32" d="M189.12,-98.37C162.14,-87.36 116.12,-68.58 103.05,-63.25"/>
</g>
<!-- pollution&#45;&#45;impact environnemental -->
<g id="edge7" class="edge">
<title>pollution&#45;&#45;impact environnemental</title>
<path fill="none" stroke="darkgrey" stroke-width="5.5" d="M311.99,-95.41C304.9,-93.05 297.72,-90.66 291.56,-88.61"/>
</g>
<!-- pollution&#45;&#45;ressource -->
<g id="edge8" class="edge">
<title>pollution&#45;&#45;ressource</title>
<path fill="none" stroke="darkgrey" d="M315.88,-126.73C290.42,-143.44 256.08,-165.97 242.28,-175.03"/>
</g>
<!-- pollution&#45;&#45;économie -->
<g id="edge10" class="edge">
<title>pollution&#45;&#45;économie</title>
<path fill="none" stroke="darkgrey" stroke-width="7.05" d="M327.85,-137.96C322.01,-147.86 315.97,-158.08 311.76,-165.21"/>
</g>
<!-- pollution&#45;&#45;épuisable -->
<g id="edge6" class="edge">
<title>pollution&#45;&#45;épuisable</title>
<path fill="none" stroke="darkgrey" stroke-width="7.87" d="M376.25,-86.66C397.91,-72.12 426.02,-53.25 441.8,-42.65"/>
</g>
<!-- pollution&#45;&#45;démolition -->
<g id="edge9" class="edge">
<title>pollution&#45;&#45;démolition</title>
<path fill="none" stroke="darkgrey" stroke-width="4.49" d="M380.28,-119.25C407.68,-129.28 442.48,-142.01 447.75,-143.94"/>
</g>
<!-- impact environnemental&#45;&#45;ressource -->
<g id="edge11" class="edge">
<title>impact environnemental&#45;&#45;ressource</title>
<path fill="none" stroke="darkgrey" stroke-width="1.1" d="M267.69,-99.64C259.15,-121.16 244.71,-157.52 238.8,-172.39"/>
</g>
<!-- impact environnemental&#45;&#45;économie -->
<g id="edge12" class="edge">
<title>impact environnemental&#45;&#45;économie</title>
<path fill="none" stroke="darkgrey" stroke-width="2.7" d="M280.33,-100.16C286.85,-118.96 297.06,-148.43 302.49,-164.09"/>
</g>
<!-- emploi -->
<g id="node1" class="node">
<title>emploi</title>
<ellipse fill="#d34743" stroke="white" stroke-width="0" cx="209.24" cy="-106.59" rx="21.5" ry="21.5"/>
<text text-anchor="middle" x="150.74" y="-134.81" font-family="Helvetica,sans-Serif" font-size="21.60" fill="#4d4d4d">emploi</text>
</g>
<!-- pollution -->
<g id="node2" class="node">
<title>pollution</title>
<ellipse fill="#fcffa4" stroke="white" stroke-width="0" cx="346.25" cy="-106.8" rx="36" ry="36"/>
<text text-anchor="middle" x="371.75" y="-48.4" font-family="Helvetica,sans-Serif" font-size="28.00" fill="#4d4d4d">pollution</text>
</g>
<!-- impact environnemental -->
<g id="node3" class="node">
<title>impact environnemental</title>
<ellipse fill="#ab2f5e" stroke="white" stroke-width="0" cx="274.35" cy="-82.89" rx="18" ry="18"/>
<text text-anchor="middle" x="134.35" y="-48.89" font-family="Helvetica,sans-Serif" font-size="20.00" fill="#4d4d4d">impact environnemental</text>
</g>
<!-- ressource -->
<g id="node4" class="node">
<title>ressource</title>
<ellipse fill="#280b53" stroke="white" stroke-width="0" cx="236.16" cy="-179.04" rx="7" ry="7"/>
<text text-anchor="middle" x="192.16" y="-190.88" font-family="Helvetica,sans-Serif" font-size="15.20" fill="#4d4d4d">ressource</text>
</g>
<!-- économie -->
<g id="node5" class="node">
<title>économie</title>
<ellipse fill="#64156e" stroke="white" stroke-width="0" cx="306.16" cy="-174.69" rx="11" ry="11"/>
<text text-anchor="middle" x="253.66" y="-150.25" font-family="Helvetica,sans-Serif" font-size="16.80" fill="#4d4d4d">économie</text>
</g>
<!-- végétalisation -->
<g id="node6" class="node">
<title>végétalisation</title>
<ellipse fill="#1e0c45" stroke="white" stroke-width="0" cx="99.5" cy="-61.8" rx="3.5" ry="3.5"/>
<text text-anchor="middle" x="48" y="-69.42" font-family="Helvetica,sans-Serif" font-size="13.60" fill="#4d4d4d">végétalisation</text>
</g>
<!-- épuisable -->
<g id="node7" class="node">
<title>épuisable</title>
<ellipse fill="#7c1d6d" stroke="white" stroke-width="0" cx="453.94" cy="-34.5" rx="14.5" ry="14.5"/>
<text text-anchor="middle" x="393.94" y="-5.28" font-family="Helvetica,sans-Serif" font-size="18.40" fill="#4d4d4d">épuisable</text>
</g>
<!-- démolition -->
<g id="node8" class="node">
<title>démolition</title>
<ellipse fill="#000004" stroke="white" stroke-width="0" cx="448.43" cy="-144.19" rx="0.5" ry="0.5"/>
<text text-anchor="middle" x="415.93" y="-148.09" font-family="Helvetica,sans-Serif" font-size="12.00" fill="#4d4d4d">démolition</text>
</g>
</g>
</svg>
