<?xml version="1.0" encoding="UTF-8" standalone="no"?>
<!DOCTYPE svg PUBLIC "-//W3C//DTD SVG 1.1//EN"
 "http://www.w3.org/Graphics/SVG/1.1/DTD/svg11.dtd">
<!-- Generated by graphviz version 2.43.0 (0)
 -->
<!-- Pages: 1 -->
<svg width="824pt" height="524pt"
 viewBox="0.00 0.00 823.62 524.22" xmlns="http://www.w3.org/2000/svg" xmlns:xlink="http://www.w3.org/1999/xlink">
<g id="graph0" class="graph" transform="scale(1 1) rotate(0) translate(4 520.22)">
<polygon fill="white" stroke="transparent" points="-4,4 -4,-520.22 819.62,-520.22 819.62,4 -4,4"/>
<!-- pollution&#45;&#45;dégradation environnementale -->
<g id="edge1" class="edge">
<title>pollution&#45;&#45;dégradation environnementale</title>
<path fill="none" stroke="darkgrey" stroke-width="9.04" d="M276.58,-273.49C292.98,-275.17 317.63,-277.7 338.06,-279.79"/>
</g>
<!-- pollution&#45;&#45;nouvelle&#45;calédonie -->
<g id="edge2" class="edge">
<title>pollution&#45;&#45;nouvelle&#45;calédonie</title>
<path fill="none" stroke="darkgrey" stroke-width="1.38" d="M256.57,-289.6C251.67,-334.9 239.03,-451.85 236.61,-474.26"/>
</g>
<!-- pollution&#45;&#45;travail -->
<g id="edge3" class="edge">
<title>pollution&#45;&#45;travail</title>
<path fill="none" stroke="darkgrey" stroke-width="6.45" d="M258.4,-289.69C258.28,-310.12 258.08,-343.39 257.95,-365.27"/>
</g>
<!-- pollution&#45;&#45;économie -->
<g id="edge4" class="edge">
<title>pollution&#45;&#45;économie</title>
<path fill="none" stroke="darkgrey" stroke-width="5.31" d="M246.79,-285.8C234,-301.25 213.67,-325.8 200.96,-341.16"/>
</g>
<!-- pollution&#45;&#45;nickel -->
<g id="edge5" class="edge">
<title>pollution&#45;&#45;nickel</title>
<path fill="none" stroke="darkgrey" stroke-width="5.22" d="M269.3,-286.43C272.31,-290.55 275.69,-295.17 279.08,-299.82"/>
</g>
<!-- pollution&#45;&#45;ressource minière -->
<g id="edge6" class="edge">
<title>pollution&#45;&#45;ressource minière</title>
<path fill="none" stroke="darkgrey" stroke-width="2" d="M240.49,-272.83C204.44,-275.19 124.37,-280.44 95.04,-282.37"/>
</g>
<!-- pollution&#45;&#45;politique -->
<g id="edge7" class="edge">
<title>pollution&#45;&#45;politique</title>
<path fill="none" stroke="darkgrey" stroke-width="3.12" d="M241.21,-276.68C226.24,-281.04 204.87,-287.26 190.95,-291.31"/>
</g>
<!-- pollution&#45;&#45;secteur nickel -->
<g id="edge8" class="edge">
<title>pollution&#45;&#45;secteur nickel</title>
<path fill="none" stroke="darkgrey" stroke-width="3.23" d="M271.44,-258.41C275.51,-254.24 280,-249.65 284.05,-245.51"/>
</g>
<!-- pollution&#45;&#45;nature -->
<g id="edge9" class="edge">
<title>pollution&#45;&#45;nature</title>
<path fill="none" stroke="darkgrey" stroke-width="3.49" d="M265.94,-288.22C276.99,-312.86 297.53,-358.67 307.67,-381.27"/>
</g>
<!-- pollution&#45;&#45;amélioration environnementale -->
<g id="edge10" class="edge">
<title>pollution&#45;&#45;amélioration environnementale</title>
<path fill="none" stroke="darkgrey" d="M268.27,-256.29C303.59,-200.72 423.07,-12.76 430.5,-1.07"/>
</g>
<!-- pollution&#45;&#45;société néo&#45;calédonienne -->
<g id="edge11" class="edge">
<title>pollution&#45;&#45;société néo&#45;calédonienne</title>
<path fill="none" stroke="darkgrey" stroke-width="1.51" d="M265.21,-288.66C283.83,-335.87 335.34,-466.55 344.45,-489.65"/>
</g>
<!-- pollution&#45;&#45;exploitation minière -->
<g id="edge12" class="edge">
<title>pollution&#45;&#45;exploitation minière</title>
<path fill="none" stroke="darkgrey" stroke-width="2.18" d="M252.11,-254.42C246.19,-238.48 237.5,-215.09 232.02,-200.34"/>
</g>
<!-- pollution&#45;&#45;alternative au développement -->
<g id="edge13" class="edge">
<title>pollution&#45;&#45;alternative au développement</title>
<path fill="none" stroke="darkgrey" stroke-width="1.87" d="M273.9,-281.08C312.19,-304.58 410.04,-364.6 428.79,-376.1"/>
</g>
<!-- pollution&#45;&#45;matériel -->
<g id="edge14" class="edge">
<title>pollution&#45;&#45;matériel</title>
<path fill="none" stroke="darkgrey" stroke-width="2.78" d="M242.77,-281.01C210.35,-300.29 136.69,-344.11 107.06,-361.73"/>
</g>
<!-- pollution&#45;&#45;foncier -->
<g id="edge15" class="edge">
<title>pollution&#45;&#45;foncier</title>
<path fill="none" stroke="darkgrey" stroke-width="1.08" d="M250.64,-288.08C228.6,-334.15 166.9,-463.11 152.28,-493.67"/>
</g>
<!-- pollution&#45;&#45;industrie -->
<g id="edge16" class="edge">
<title>pollution&#45;&#45;industrie</title>
<path fill="none" stroke="darkgrey" stroke-width="2.81" d="M247.97,-286.24C228.42,-313.33 186.74,-371.1 167.12,-398.29"/>
</g>
<!-- pollution&#45;&#45;échange commercial -->
<g id="edge17" class="edge">
<title>pollution&#45;&#45;échange commercial</title>
<path fill="none" stroke="darkgrey" stroke-width="1.14" d="M243.02,-262.07C216.57,-245.7 163.79,-213.06 146.05,-202.09"/>
</g>
<!-- dégradation environnementale&#45;&#45;nouvelle&#45;calédonie -->
<g id="edge18" class="edge">
<title>dégradation environnementale&#45;&#45;nouvelle&#45;calédonie</title>
<path fill="none" stroke="darkgrey" stroke-width="1.62" d="M353.23,-313.03C318.4,-362.13 251.14,-456.94 238.34,-474.99"/>
</g>
<!-- dégradation environnementale&#45;&#45;travail -->
<g id="edge19" class="edge">
<title>dégradation environnementale&#45;&#45;travail</title>
<path fill="none" stroke="darkgrey" stroke-width="8.09" d="M347.2,-307.53C324.51,-327.74 292.82,-355.96 273.91,-372.8"/>
</g>
<!-- dégradation environnementale&#45;&#45;économie -->
<g id="edge20" class="edge">
<title>dégradation environnementale&#45;&#45;économie</title>
<path fill="none" stroke="darkgrey" stroke-width="7.46" d="M340.3,-296.62C300.71,-311.97 236.77,-336.76 206.43,-348.52"/>
</g>
<!-- dégradation environnementale&#45;&#45;nickel -->
<g id="edge21" class="edge">
<title>dégradation environnementale&#45;&#45;nickel</title>
<path fill="none" stroke="darkgrey" stroke-width="10" d="M343.33,-302.55C339.39,-304.99 335.34,-307.49 331.4,-309.93"/>
</g>
<!-- dégradation environnementale&#45;&#45;ressource minière -->
<g id="edge22" class="edge">
<title>dégradation environnementale&#45;&#45;ressource minière</title>
<path fill="none" stroke="darkgrey" stroke-width="4.3" d="M338.02,-283.44C271.93,-283.35 134.78,-283.16 95.02,-283.11"/>
</g>
<!-- dégradation environnementale&#45;&#45;politique -->
<g id="edge23" class="edge">
<title>dégradation environnementale&#45;&#45;politique</title>
<path fill="none" stroke="darkgrey" stroke-width="4.57" d="M338.01,-285.67C294.18,-288.32 222.42,-292.65 191.67,-294.5"/>
</g>
<!-- dégradation environnementale&#45;&#45;secteur nickel -->
<g id="edge24" class="edge">
<title>dégradation environnementale&#45;&#45;secteur nickel</title>
<path fill="none" stroke="darkgrey" stroke-width="4.66" d="M344.01,-263.65C332.96,-256.38 320.94,-248.48 311.78,-242.45"/>
</g>
<!-- dégradation environnementale&#45;&#45;nature -->
<g id="edge25" class="edge">
<title>dégradation environnementale&#45;&#45;nature</title>
<path fill="none" stroke="darkgrey" stroke-width="5.28" d="M356.84,-315.32C344.81,-337.38 329.45,-365.57 320.65,-381.7"/>
</g>
<!-- dégradation environnementale&#45;&#45;amélioration environnementale -->
<g id="edge26" class="edge">
<title>dégradation environnementale&#45;&#45;amélioration environnementale</title>
<path fill="none" stroke="darkgrey" stroke-width="1.32" d="M381.31,-247.93C396.05,-174.3 428.73,-11.12 430.76,-0.99"/>
</g>
<!-- dégradation environnementale&#45;&#45;société néo&#45;calédonienne -->
<g id="edge27" class="edge">
<title>dégradation environnementale&#45;&#45;société néo&#45;calédonienne</title>
<path fill="none" stroke="darkgrey" stroke-width="2.01" d="M369.31,-319.53C362.06,-373.16 348.99,-469.78 346.32,-489.56"/>
</g>
<!-- dégradation environnementale&#45;&#45;exploitation minière -->
<g id="edge28" class="edge">
<title>dégradation environnementale&#45;&#45;exploitation minière</title>
<path fill="none" stroke="darkgrey" stroke-width="4.02" d="M344.02,-263.63C311.7,-242.35 261.97,-209.61 239.13,-194.57"/>
</g>
<!-- dégradation environnementale&#45;&#45;alternative au développement -->
<g id="edge29" class="edge">
<title>dégradation environnementale&#45;&#45;alternative au développement</title>
<path fill="none" stroke="darkgrey" stroke-width="2.23" d="M393.09,-314.44C406.77,-336.84 423.85,-364.81 429.78,-374.52"/>
</g>
<!-- dégradation environnementale&#45;&#45;matériel -->
<g id="edge30" class="edge">
<title>dégradation environnementale&#45;&#45;matériel</title>
<path fill="none" stroke="darkgrey" stroke-width="4.45" d="M339.59,-294.09C277.74,-313.06 150.7,-352.01 108.41,-364.98"/>
</g>
<!-- dégradation environnementale&#45;&#45;foncier -->
<g id="edge31" class="edge">
<title>dégradation environnementale&#45;&#45;foncier</title>
<path fill="none" stroke="darkgrey" stroke-width="2.3" d="M347.93,-308.77C295.29,-359.47 179.71,-470.79 154.2,-495.36"/>
</g>
<!-- dégradation environnementale&#45;&#45;industrie -->
<g id="edge33" class="edge">
<title>dégradation environnementale&#45;&#45;industrie</title>
<path fill="none" stroke="darkgrey" stroke-width="3.99" d="M343,-302.05C295.73,-330.17 207.71,-382.54 172.07,-403.75"/>
</g>
<!-- dégradation environnementale&#45;&#45;échange commercial -->
<g id="edge35" class="edge">
<title>dégradation environnementale&#45;&#45;échange commercial</title>
<path fill="none" stroke="darkgrey" stroke-width="2.3" d="M340.15,-271.11C283.84,-250.65 174.74,-210.99 146.75,-200.82"/>
</g>
<!-- dégradation environnementale&#45;&#45;relation politique -->
<g id="edge32" class="edge">
<title>dégradation environnementale&#45;&#45;relation politique</title>
<path fill="none" stroke="darkgrey" stroke-width="1.35" d="M344.04,-262.98C283.02,-221.47 148.83,-130.19 127.23,-115.5"/>
</g>
<!-- dégradation environnementale&#45;&#45;risque -->
<g id="edge34" class="edge">
<title>dégradation environnementale&#45;&#45;risque</title>
<path fill="none" stroke="darkgrey" stroke-width="1.71" d="M401.16,-308.01C451.23,-353.52 555.22,-448.04 574.28,-465.37"/>
</g>
<!-- dégradation environnementale&#45;&#45;avenir sans nickel -->
<g id="edge36" class="edge">
<title>dégradation environnementale&#45;&#45;avenir sans nickel</title>
<path fill="none" stroke="darkgrey" stroke-width="1.07" d="M410.27,-282.62C512.29,-280.18 796.58,-273.37 814.25,-272.94"/>
</g>
<!-- nouvelle&#45;calédonie&#45;&#45;travail -->
<g id="edge37" class="edge">
<title>nouvelle&#45;calédonie&#45;&#45;travail</title>
<path fill="none" stroke="darkgrey" stroke-width="1.72" d="M237.03,-474.55C239.57,-463.85 247.47,-430.63 252.77,-408.36"/>
</g>
<!-- nouvelle&#45;calédonie&#45;&#45;économie -->
<g id="edge38" class="edge">
<title>nouvelle&#45;calédonie&#45;&#45;économie</title>
<path fill="none" stroke="darkgrey" stroke-width="1.49" d="M234.95,-474.71C229.43,-460.21 207.02,-401.35 195.83,-371.97"/>
</g>
<!-- nouvelle&#45;calédonie&#45;&#45;nickel -->
<g id="edge39" class="edge">
<title>nouvelle&#45;calédonie&#45;&#45;nickel</title>
<path fill="none" stroke="darkgrey" stroke-width="2.73" d="M237.67,-474.61C244.02,-459.89 269.61,-400.53 286.09,-362.32"/>
</g>
<!-- nouvelle&#45;calédonie&#45;&#45;ressource minière -->
<g id="edge40" class="edge">
<title>nouvelle&#45;calédonie&#45;&#45;ressource minière</title>
<path fill="none" stroke="darkgrey" stroke-width="1.38" d="M233.81,-474.94C217.17,-453.63 118.49,-327.26 91.07,-292.14"/>
</g>
<!-- nouvelle&#45;calédonie&#45;&#45;politique -->
<g id="edge41" class="edge">
<title>nouvelle&#45;calédonie&#45;&#45;politique</title>
<path fill="none" stroke="darkgrey" stroke-width="1.95" d="M235.07,-474.52C228.38,-453.91 193.86,-347.56 181.41,-309.21"/>
</g>
<!-- nouvelle&#45;calédonie&#45;&#45;secteur nickel -->
<g id="edge42" class="edge">
<title>nouvelle&#45;calédonie&#45;&#45;secteur nickel</title>
<path fill="none" stroke="darkgrey" stroke-width="1.67" d="M237.06,-474.53C243.12,-449.94 279.71,-301.5 292.39,-250.07"/>
</g>
<!-- nouvelle&#45;calédonie&#45;&#45;nature -->
<g id="edge43" class="edge">
<title>nouvelle&#45;calédonie&#45;&#45;nature</title>
<path fill="none" stroke="darkgrey" stroke-width="1.15" d="M238.78,-475.23C248.81,-464.43 285.54,-424.85 303.55,-405.44"/>
</g>
<!-- nouvelle&#45;calédonie&#45;&#45;exploitation minière -->
<g id="edge44" class="edge">
<title>nouvelle&#45;calédonie&#45;&#45;exploitation minière</title>
<path fill="none" stroke="darkgrey" stroke-width="1.16" d="M236.09,-474.32C235.17,-445.52 229.11,-256.22 227.36,-201.37"/>
</g>
<!-- nouvelle&#45;calédonie&#45;&#45;industrie -->
<g id="edge45" class="edge">
<title>nouvelle&#45;calédonie&#45;&#45;industrie</title>
<path fill="none" stroke="darkgrey" stroke-width="1.43" d="M233.18,-475.53C223.05,-467.28 189.93,-440.28 170.69,-424.59"/>
</g>
<!-- travail&#45;&#45;économie -->
<g id="edge46" class="edge">
<title>travail&#45;&#45;économie</title>
<path fill="none" stroke="darkgrey" stroke-width="6.99" d="M238.04,-377.87C227.93,-373.14 215.78,-367.45 206.15,-362.95"/>
</g>
<!-- travail&#45;&#45;nickel -->
<g id="edge47" class="edge">
<title>travail&#45;&#45;nickel</title>
<path fill="none" stroke="darkgrey" stroke-width="8.19" d="M270.61,-369.71C273.25,-366.1 276.11,-362.2 278.97,-358.3"/>
</g>
<!-- travail&#45;&#45;ressource minière -->
<g id="edge48" class="edge">
<title>travail&#45;&#45;ressource minière</title>
<path fill="none" stroke="darkgrey" stroke-width="3.39" d="M239.22,-376C202.44,-353.98 121.55,-305.57 93.67,-288.88"/>
</g>
<!-- travail&#45;&#45;politique -->
<g id="edge49" class="edge">
<title>travail&#45;&#45;politique</title>
<path fill="none" stroke="darkgrey" stroke-width="4.24" d="M243.36,-370.73C227,-352.18 200.8,-322.47 186.69,-306.47"/>
</g>
<!-- travail&#45;&#45;secteur nickel -->
<g id="edge50" class="edge">
<title>travail&#45;&#45;secteur nickel</title>
<path fill="none" stroke="darkgrey" stroke-width="4.91" d="M263.15,-365.96C270.89,-335.2 285.1,-278.71 292.29,-250.12"/>
</g>
<!-- travail&#45;&#45;nature -->
<g id="edge51" class="edge">
<title>travail&#45;&#45;nature</title>
<path fill="none" stroke="darkgrey" stroke-width="3.62" d="M279.24,-389.99C285.88,-390.87 293.04,-391.83 299.1,-392.64"/>
</g>
<!-- travail&#45;&#45;société néo&#45;calédonienne -->
<g id="edge52" class="edge">
<title>travail&#45;&#45;société néo&#45;calédonienne</title>
<path fill="none" stroke="darkgrey" stroke-width="1.84" d="M271.57,-403.7C293.04,-429.56 333.12,-477.84 343.39,-490.21"/>
</g>
<!-- travail&#45;&#45;exploitation minière -->
<g id="edge53" class="edge">
<title>travail&#45;&#45;exploitation minière</title>
<path fill="none" stroke="darkgrey" stroke-width="3.39" d="M254.51,-365.66C248.18,-324.62 234.52,-236.02 229.13,-201.09"/>
</g>
<!-- travail&#45;&#45;alternative au développement -->
<g id="edge54" class="edge">
<title>travail&#45;&#45;alternative au développement</title>
<path fill="none" stroke="darkgrey" stroke-width="1.4" d="M279.52,-386C321.09,-383.82 409.5,-379.19 428.34,-378.21"/>
</g>
<!-- travail&#45;&#45;matériel -->
<g id="edge55" class="edge">
<title>travail&#45;&#45;matériel</title>
<path fill="none" stroke="darkgrey" stroke-width="3.71" d="M236.12,-384.76C202.25,-381.06 137.73,-374.02 108.9,-370.87"/>
</g>
<!-- travail&#45;&#45;foncier -->
<g id="edge56" class="edge">
<title>travail&#45;&#45;foncier</title>
<path fill="none" stroke="darkgrey" stroke-width="1.58" d="M242.71,-402.86C217.98,-428.59 170.05,-478.47 154.3,-494.86"/>
</g>
<!-- travail&#45;&#45;industrie -->
<g id="edge58" class="edge">
<title>travail&#45;&#45;industrie</title>
<path fill="none" stroke="darkgrey" stroke-width="4.03" d="M236.83,-392.5C218.28,-397.23 191.53,-404.07 174.08,-408.52"/>
</g>
<!-- travail&#45;&#45;échange commercial -->
<g id="edge60" class="edge">
<title>travail&#45;&#45;échange commercial</title>
<path fill="none" stroke="darkgrey" stroke-width="1.96" d="M246.32,-368.69C220.63,-327.51 159.6,-229.69 143.84,-204.43"/>
</g>
<!-- travail&#45;&#45;relation politique -->
<g id="edge57" class="edge">
<title>travail&#45;&#45;relation politique</title>
<path fill="none" stroke="darkgrey" stroke-width="1.26" d="M248.22,-367.45C219.99,-309.61 138.47,-142.58 125.9,-116.83"/>
</g>
<!-- travail&#45;&#45;risque -->
<g id="edge59" class="edge">
<title>travail&#45;&#45;risque</title>
<path fill="none" stroke="darkgrey" stroke-width="1.84" d="M278.79,-392.45C344.59,-409.13 544.41,-459.78 573.71,-467.21"/>
</g>
<!-- économie&#45;&#45;nickel -->
<g id="edge61" class="edge">
<title>économie&#45;&#45;nickel</title>
<path fill="none" stroke="darkgrey" stroke-width="6.38" d="M207.25,-350.93C222.82,-347.27 245.87,-341.86 265.15,-337.34"/>
</g>
<!-- économie&#45;&#45;ressource minière -->
<g id="edge62" class="edge">
<title>économie&#45;&#45;ressource minière</title>
<path fill="none" stroke="darkgrey" stroke-width="2.33" d="M174.31,-344.8C152.11,-329.63 111.33,-301.77 93.16,-289.35"/>
</g>
<!-- économie&#45;&#45;politique -->
<g id="edge63" class="edge">
<title>économie&#45;&#45;politique</title>
<path fill="none" stroke="darkgrey" stroke-width="4.73" d="M185.67,-337.2C183.83,-328.4 181.64,-317.95 179.92,-309.7"/>
</g>
<!-- économie&#45;&#45;secteur nickel -->
<g id="edge64" class="edge">
<title>économie&#45;&#45;secteur nickel</title>
<path fill="none" stroke="darkgrey" stroke-width="3.7" d="M201.3,-341.53C221.93,-317.97 264.1,-269.8 284.76,-246.19"/>
</g>
<!-- économie&#45;&#45;nature -->
<g id="edge65" class="edge">
<title>économie&#45;&#45;nature</title>
<path fill="none" stroke="darkgrey" stroke-width="2.81" d="M206.69,-360.6C231.49,-368.48 276.71,-382.84 299.58,-390.11"/>
</g>
<!-- économie&#45;&#45;société néo&#45;calédonienne -->
<g id="edge66" class="edge">
<title>économie&#45;&#45;société néo&#45;calédonienne</title>
<path fill="none" stroke="darkgrey" stroke-width="1.48" d="M203.02,-367.12C237.21,-397.3 325.24,-474.99 342.77,-490.46"/>
</g>
<!-- économie&#45;&#45;exploitation minière -->
<g id="edge67" class="edge">
<title>économie&#45;&#45;exploitation minière</title>
<path fill="none" stroke="darkgrey" stroke-width="2.05" d="M193.35,-337.39C200.79,-303.91 216.78,-231.96 223.65,-201.08"/>
</g>
<!-- économie&#45;&#45;alternative au développement -->
<g id="edge68" class="edge">
<title>économie&#45;&#45;alternative au développement</title>
<path fill="none" stroke="darkgrey" stroke-width="1.49" d="M207.64,-356.84C259.19,-361.71 403.89,-375.37 428.38,-377.69"/>
</g>
<!-- économie&#45;&#45;matériel -->
<g id="edge69" class="edge">
<title>économie&#45;&#45;matériel</title>
<path fill="none" stroke="darkgrey" stroke-width="2.25" d="M171.53,-357.78C153.36,-360.49 125.55,-364.64 108.74,-367.14"/>
</g>
<!-- économie&#45;&#45;foncier -->
<g id="edge70" class="edge">
<title>économie&#45;&#45;foncier</title>
<path fill="none" stroke="darkgrey" stroke-width="1.2" d="M184.56,-372.62C175.65,-404.73 157.05,-471.74 151.06,-493.35"/>
</g>
<!-- économie&#45;&#45;industrie -->
<g id="edge72" class="edge">
<title>économie&#45;&#45;industrie</title>
<path fill="none" stroke="darkgrey" stroke-width="2.66" d="M180.42,-370.94C175.77,-379.11 170.12,-389.05 165.48,-397.21"/>
</g>
<!-- économie&#45;&#45;échange commercial -->
<g id="edge73" class="edge">
<title>économie&#45;&#45;échange commercial</title>
<path fill="none" stroke="darkgrey" stroke-width="1.66" d="M183.94,-337.74C173.16,-303.48 149.55,-228.48 142.26,-205.34"/>
</g>
<!-- économie&#45;&#45;relation politique -->
<g id="edge71" class="edge">
<title>économie&#45;&#45;relation politique</title>
<path fill="none" stroke="darkgrey" stroke-width="1.35" d="M184.62,-337.35C170.87,-286.34 131.83,-141.54 125.22,-117.03"/>
</g>
<!-- nickel&#45;&#45;ressource minière -->
<g id="edge74" class="edge">
<title>nickel&#45;&#45;ressource minière</title>
<path fill="none" stroke="darkgrey" stroke-width="5.26" d="M265.17,-321.57C215.11,-310.94 126.03,-292.02 95.02,-285.43"/>
</g>
<!-- nickel&#45;&#45;politique -->
<g id="edge75" class="edge">
<title>nickel&#45;&#45;politique</title>
<path fill="none" stroke="darkgrey" stroke-width="3.39" d="M265.37,-319.5C240.69,-312.78 208.98,-304.13 191.01,-299.23"/>
</g>
<!-- nickel&#45;&#45;secteur nickel -->
<g id="edge76" class="edge">
<title>nickel&#45;&#45;secteur nickel</title>
<path fill="none" stroke="darkgrey" stroke-width="6.45" d="M299.03,-292.85C298.48,-278.41 297.86,-262.43 297.4,-250.55"/>
</g>
<!-- nickel&#45;&#45;nature -->
<g id="edge77" class="edge">
<title>nickel&#45;&#45;nature</title>
<path fill="none" stroke="darkgrey" stroke-width="5.59" d="M307.57,-364.5C308.69,-370.05 309.79,-375.49 310.74,-380.19"/>
</g>
<!-- nickel&#45;&#45;société néo&#45;calédonienne -->
<g id="edge78" class="edge">
<title>nickel&#45;&#45;société néo&#45;calédonienne</title>
<path fill="none" stroke="darkgrey" stroke-width="1.1" d="M310.06,-363.86C321.72,-406.01 340.36,-473.39 344.84,-489.58"/>
</g>
<!-- nickel&#45;&#45;exploitation minière -->
<g id="edge79" class="edge">
<title>nickel&#45;&#45;exploitation minière</title>
<path fill="none" stroke="darkgrey" stroke-width="7.11" d="M283.74,-296.71C267.89,-265.99 244.86,-221.35 233.59,-199.52"/>
</g>
<!-- nickel&#45;&#45;alternative au développement -->
<g id="edge80" class="edge">
<title>nickel&#45;&#45;alternative au développement</title>
<path fill="none" stroke="darkgrey" stroke-width="1.73" d="M334.29,-341.67C367.47,-354.02 414.94,-371.7 428.3,-376.67"/>
</g>
<!-- nickel&#45;&#45;matériel -->
<g id="edge81" class="edge">
<title>nickel&#45;&#45;matériel</title>
<path fill="none" stroke="darkgrey" stroke-width="5.68" d="M265,-335.97C218.97,-344.96 140.71,-360.24 108.68,-366.49"/>
</g>
<!-- nickel&#45;&#45;foncier -->
<g id="edge82" class="edge">
<title>nickel&#45;&#45;foncier</title>
<path fill="none" stroke="darkgrey" stroke-width="2.37" d="M276.46,-356.18C239.8,-397.65 172.13,-474.22 153.82,-494.94"/>
</g>
<!-- nickel&#45;&#45;industrie -->
<g id="edge84" class="edge">
<title>nickel&#45;&#45;industrie</title>
<path fill="none" stroke="darkgrey" stroke-width="8.02" d="M269.2,-347.28C239.27,-364.73 195.32,-390.37 172.14,-403.89"/>
</g>
<!-- nickel&#45;&#45;échange commercial -->
<g id="edge86" class="edge">
<title>nickel&#45;&#45;échange commercial</title>
<path fill="none" stroke="darkgrey" stroke-width="3.11" d="M272.5,-306.3C233.56,-274.57 165.49,-219.1 145.65,-202.94"/>
</g>
<!-- nickel&#45;&#45;relation politique -->
<g id="edge83" class="edge">
<title>nickel&#45;&#45;relation politique</title>
<path fill="none" stroke="darkgrey" stroke-width="1.35" d="M277.4,-300.87C233.75,-247.46 141.95,-135.13 126.5,-116.21"/>
</g>
<!-- nickel&#45;&#45;risque -->
<g id="edge85" class="edge">
<title>nickel&#45;&#45;risque</title>
<path fill="none" stroke="darkgrey" stroke-width="1.07" d="M332.73,-345.28C399.78,-378.96 549.83,-454.32 574,-466.46"/>
</g>
<!-- ressource minière&#45;&#45;politique -->
<g id="edge87" class="edge">
<title>ressource minière&#45;&#45;politique</title>
<path fill="none" stroke="darkgrey" stroke-width="2.91" d="M95.02,-284.55C111.76,-286.77 143.58,-290.98 162.25,-293.45"/>
</g>
<!-- ressource minière&#45;&#45;secteur nickel -->
<g id="edge88" class="edge">
<title>ressource minière&#45;&#45;secteur nickel</title>
<path fill="none" stroke="darkgrey" stroke-width="2.13" d="M94.84,-280.52C129.3,-272.33 236.53,-246.85 279.07,-236.74"/>
</g>
<!-- ressource minière&#45;&#45;nature -->
<g id="edge89" class="edge">
<title>ressource minière&#45;&#45;nature</title>
<path fill="none" stroke="darkgrey" stroke-width="1.91" d="M94.16,-288.03C131.23,-306.02 259.12,-368.11 300.56,-388.23"/>
</g>
<!-- ressource minière&#45;&#45;exploitation minière -->
<g id="edge90" class="edge">
<title>ressource minière&#45;&#45;exploitation minière</title>
<path fill="none" stroke="darkgrey" stroke-width="2.42" d="M93.38,-276.76C118.33,-259.89 186.4,-213.87 214.5,-194.88"/>
</g>
<!-- ressource minière&#45;&#45;matériel -->
<g id="edge91" class="edge">
<title>ressource minière&#45;&#45;matériel</title>
<path fill="none" stroke="darkgrey" stroke-width="1.94" d="M85.35,-294.36C87.22,-309.88 90.58,-337.83 92.63,-354.85"/>
</g>
<!-- ressource minière&#45;&#45;industrie -->
<g id="edge92" class="edge">
<title>ressource minière&#45;&#45;industrie</title>
<path fill="none" stroke="darkgrey" stroke-width="2.52" d="M89.45,-292.86C101.9,-315.17 132.51,-370.03 147.68,-397.22"/>
</g>
<!-- ressource minière&#45;&#45;échange commercial -->
<g id="edge93" class="edge">
<title>ressource minière&#45;&#45;échange commercial</title>
<path fill="none" stroke="darkgrey" stroke-width="1.62" d="M90.22,-273.71C101.85,-256.13 126.61,-218.75 136.18,-204.28"/>
</g>
<!-- politique&#45;&#45;secteur nickel -->
<g id="edge94" class="edge">
<title>politique&#45;&#45;secteur nickel</title>
<path fill="none" stroke="darkgrey" stroke-width="3.32" d="M190.2,-288.43C212.38,-276.8 256.85,-253.46 280.71,-240.94"/>
</g>
<!-- politique&#45;&#45;nature -->
<g id="edge95" class="edge">
<title>politique&#45;&#45;nature</title>
<path fill="none" stroke="darkgrey" stroke-width="1.66" d="M189.06,-304.2C215.07,-323.06 275.92,-367.21 301.73,-385.94"/>
</g>
<!-- politique&#45;&#45;société néo&#45;calédonienne -->
<g id="edge96" class="edge">
<title>politique&#45;&#45;société néo&#45;calédonienne</title>
<path fill="none" stroke="darkgrey" stroke-width="1.49" d="M186.49,-306.59C219.29,-345 326.14,-470.11 343.45,-490.37"/>
</g>
<!-- politique&#45;&#45;exploitation minière -->
<g id="edge97" class="edge">
<title>politique&#45;&#45;exploitation minière</title>
<path fill="none" stroke="darkgrey" stroke-width="1.91" d="M183.05,-282.04C192.64,-261.15 211.09,-220.94 220.71,-199.97"/>
</g>
<!-- politique&#45;&#45;alternative au développement -->
<g id="edge98" class="edge">
<title>politique&#45;&#45;alternative au développement</title>
<path fill="none" stroke="darkgrey" stroke-width="1.54" d="M191,-299.95C240.07,-315.86 402.07,-368.35 428.31,-376.85"/>
</g>
<!-- politique&#45;&#45;matériel -->
<g id="edge99" class="edge">
<title>politique&#45;&#45;matériel</title>
<path fill="none" stroke="darkgrey" stroke-width="1.48" d="M165.79,-305.36C149.95,-319.54 121.07,-345.38 105.32,-359.48"/>
</g>
<!-- politique&#45;&#45;foncier -->
<g id="edge100" class="edge">
<title>politique&#45;&#45;foncier</title>
<path fill="none" stroke="darkgrey" stroke-width="1.23" d="M174.97,-309.8C169.49,-350.23 154.1,-463.74 150.1,-493.17"/>
</g>
<!-- politique&#45;&#45;industrie -->
<g id="edge102" class="edge">
<title>politique&#45;&#45;industrie</title>
<path fill="none" stroke="darkgrey" stroke-width="2.81" d="M174.42,-309.82C170.69,-331.29 163.68,-371.63 159.62,-395.01"/>
</g>
<!-- politique&#45;&#45;échange commercial -->
<g id="edge103" class="edge">
<title>politique&#45;&#45;échange commercial</title>
<path fill="none" stroke="darkgrey" stroke-width="1.56" d="M171.65,-281.5C163.61,-260.33 148.6,-220.83 142.63,-205.11"/>
</g>
<!-- politique&#45;&#45;relation politique -->
<g id="edge101" class="edge">
<title>politique&#45;&#45;relation politique</title>
<path fill="none" stroke="darkgrey" stroke-width="1.7" d="M172.88,-281.42C161.76,-242.99 131.12,-137.17 125.25,-116.88"/>
</g>
<!-- secteur nickel&#45;&#45;nature -->
<g id="edge104" class="edge">
<title>secteur nickel&#45;&#45;nature</title>
<path fill="none" stroke="darkgrey" stroke-width="2.23" d="M298.59,-250.51C301.96,-282.81 308.99,-350.1 312.1,-379.87"/>
</g>
<!-- secteur nickel&#45;&#45;amélioration environnementale -->
<g id="edge105" class="edge">
<title>secteur nickel&#45;&#45;amélioration environnementale</title>
<path fill="none" stroke="darkgrey" stroke-width="1.04" d="M305.72,-216.96C334.86,-166.56 424.98,-10.67 430.59,-0.97"/>
</g>
<!-- secteur nickel&#45;&#45;société néo&#45;calédonienne -->
<g id="edge106" class="edge">
<title>secteur nickel&#45;&#45;société néo&#45;calédonienne</title>
<path fill="none" stroke="darkgrey" stroke-width="1.44" d="M300.09,-250.46C310.27,-304.51 340.31,-463.84 345.17,-489.62"/>
</g>
<!-- secteur nickel&#45;&#45;exploitation minière -->
<g id="edge107" class="edge">
<title>secteur nickel&#45;&#45;exploitation minière</title>
<path fill="none" stroke="darkgrey" stroke-width="2.46" d="M281.56,-222.56C268.88,-214.2 251.03,-202.43 239.21,-194.64"/>
</g>
<!-- secteur nickel&#45;&#45;alternative au développement -->
<g id="edge108" class="edge">
<title>secteur nickel&#45;&#45;alternative au développement</title>
<path fill="none" stroke="darkgrey" stroke-width="1.2" d="M309.19,-245.97C339.26,-278.33 414.36,-359.13 429.31,-375.21"/>
</g>
<!-- secteur nickel&#45;&#45;matériel -->
<g id="edge109" class="edge">
<title>secteur nickel&#45;&#45;matériel</title>
<path fill="none" stroke="darkgrey" stroke-width="2.9" d="M281.5,-242.83C242.9,-268.91 141.7,-337.3 106.58,-361.03"/>
</g>
<!-- secteur nickel&#45;&#45;foncier -->
<g id="edge110" class="edge">
<title>secteur nickel&#45;&#45;foncier</title>
<path fill="none" stroke="darkgrey" stroke-width="1.9" d="M287.92,-248.49C259.63,-299.81 171.66,-459.39 152.75,-493.69"/>
</g>
<!-- secteur nickel&#45;&#45;industrie -->
<g id="edge112" class="edge">
<title>secteur nickel&#45;&#45;industrie</title>
<path fill="none" stroke="darkgrey" stroke-width="5.09" d="M285.47,-247.01C259.22,-280.8 194.09,-364.63 167.78,-398.48"/>
</g>
<!-- secteur nickel&#45;&#45;échange commercial -->
<g id="edge113" class="edge">
<title>secteur nickel&#45;&#45;échange commercial</title>
<path fill="none" stroke="darkgrey" stroke-width="2.11" d="M279.05,-228.7C244.64,-221.2 170.01,-204.92 146.98,-199.9"/>
</g>
<!-- secteur nickel&#45;&#45;relation politique -->
<g id="edge111" class="edge">
<title>secteur nickel&#45;&#45;relation politique</title>
<path fill="none" stroke="darkgrey" stroke-width="1.06" d="M281.71,-222.19C243.69,-195.94 145.27,-127.99 127.16,-115.48"/>
</g>
<!-- nature&#45;&#45;société néo&#45;calédonienne -->
<g id="edge114" class="edge">
<title>nature&#45;&#45;société néo&#45;calédonienne</title>
<path fill="none" stroke="darkgrey" stroke-width="1.54" d="M318.25,-408.7C325.83,-431.91 340.5,-476.84 344.69,-489.66"/>
</g>
<!-- nature&#45;&#45;exploitation minière -->
<g id="edge115" class="edge">
<title>nature&#45;&#45;exploitation minière</title>
<path fill="none" stroke="darkgrey" stroke-width="1.76" d="M307.94,-380.92C292.19,-343.13 248.13,-237.47 232.48,-199.94"/>
</g>
<!-- nature&#45;&#45;alternative au développement -->
<g id="edge116" class="edge">
<title>nature&#45;&#45;alternative au développement</title>
<path fill="none" stroke="darkgrey" stroke-width="1.01" d="M328.14,-392.55C355.53,-388.71 413.46,-380.6 428.36,-378.52"/>
</g>
<!-- nature&#45;&#45;matériel -->
<g id="edge117" class="edge">
<title>nature&#45;&#45;matériel</title>
<path fill="none" stroke="darkgrey" stroke-width="3.26" d="M298.91,-392.88C258.96,-388.27 148.9,-375.58 109.02,-370.98"/>
</g>
<!-- nature&#45;&#45;foncier -->
<g id="edge118" class="edge">
<title>nature&#45;&#45;foncier</title>
<path fill="none" stroke="darkgrey" stroke-width="1.51" d="M301.27,-402.52C268.25,-423.73 178.87,-481.13 155.05,-496.43"/>
</g>
<!-- nature&#45;&#45;industrie -->
<g id="edge119" class="edge">
<title>nature&#45;&#45;industrie</title>
<path fill="none" stroke="darkgrey" stroke-width="2.58" d="M299.13,-396.28C270.41,-399.65 206.35,-407.17 174.79,-410.87"/>
</g>
<!-- nature&#45;&#45;échange commercial -->
<g id="edge120" class="edge">
<title>nature&#45;&#45;échange commercial</title>
<path fill="none" stroke="darkgrey" stroke-width="1.3" d="M303.81,-383.47C271.4,-346.83 168.61,-230.65 144.96,-203.92"/>
</g>
<!-- société néo&#45;calédonienne&#45;&#45;matériel -->
<g id="edge121" class="edge">
<title>société néo&#45;calédonienne&#45;&#45;matériel</title>
<path fill="none" stroke="darkgrey" stroke-width="1.47" d="M342.65,-491.59C317.86,-479.38 155.24,-399.28 107.51,-375.76"/>
</g>
<!-- exploitation minière&#45;&#45;matériel -->
<g id="edge122" class="edge">
<title>exploitation minière&#45;&#45;matériel</title>
<path fill="none" stroke="darkgrey" stroke-width="2.67" d="M218.19,-198.5C194.12,-231.7 126.82,-324.52 102.92,-357.49"/>
</g>
<!-- exploitation minière&#45;&#45;industrie -->
<g id="edge123" class="edge">
<title>exploitation minière&#45;&#45;industrie</title>
<path fill="none" stroke="darkgrey" stroke-width="3.08" d="M222.48,-200.68C210.14,-240.39 175.25,-352.66 161.84,-395.82"/>
</g>
<!-- exploitation minière&#45;&#45;échange commercial -->
<g id="edge124" class="edge">
<title>exploitation minière&#45;&#45;échange commercial</title>
<path fill="none" stroke="darkgrey" stroke-width="1.83" d="M212.16,-188.53C193.39,-191.1 161.67,-195.44 147.41,-197.39"/>
</g>
<!-- alternative au développement&#45;&#45;industrie -->
<g id="edge125" class="edge">
<title>alternative au développement&#45;&#45;industrie</title>
<path fill="none" stroke="darkgrey" stroke-width="1.22" d="M428.44,-378.46C401.91,-381.83 231.26,-403.52 174.69,-410.71"/>
</g>
<!-- matériel&#45;&#45;foncier -->
<g id="edge126" class="edge">
<title>matériel&#45;&#45;foncier</title>
<path fill="none" stroke="darkgrey" stroke-width="1.61" d="M100.02,-382.8C111.66,-410.64 137.94,-473.44 146.44,-493.75"/>
</g>
<!-- matériel&#45;&#45;industrie -->
<g id="edge127" class="edge">
<title>matériel&#45;&#45;industrie</title>
<path fill="none" stroke="darkgrey" stroke-width="4.01" d="M106.34,-377.72C116.35,-384.77 130.69,-394.86 141.47,-402.44"/>
</g>
<!-- matériel&#45;&#45;échange commercial -->
<g id="edge128" class="edge">
<title>matériel&#45;&#45;échange commercial</title>
<path fill="none" stroke="darkgrey" stroke-width="1.74" d="M98.18,-355.01C107.54,-320.04 131.34,-231.06 138.2,-205.41"/>
</g>
<!-- foncier&#45;&#45;industrie -->
<g id="edge129" class="edge">
<title>foncier&#45;&#45;industrie</title>
<path fill="none" stroke="darkgrey" stroke-width="1.98" d="M149.75,-493.08C150.88,-479.66 153.35,-450.28 154.97,-431.09"/>
</g>
<!-- industrie&#45;&#45;échange commercial -->
<g id="edge131" class="edge">
<title>industrie&#45;&#45;échange commercial</title>
<path fill="none" stroke="darkgrey" stroke-width="1.85" d="M155.09,-394.72C151.65,-349.71 142.89,-235.13 140.62,-205.49"/>
</g>
<!-- relation politique&#45;&#45;échange commercial -->
<g id="edge130" class="edge">
<title>relation politique&#45;&#45;échange commercial</title>
<path fill="none" stroke="darkgrey" stroke-width="1.17" d="M124.95,-117.13C127.36,-130.08 135.53,-174 138.76,-191.3"/>
</g>
<!-- pollution -->
<g id="node1" class="node">
<title>pollution</title>
<ellipse fill="#ab2f5e" stroke="white" stroke-width="0" cx="258.51" cy="-271.64" rx="18" ry="18"/>
<text text-anchor="middle" x="222.01" y="-292.24" font-family="Helvetica,sans-Serif" font-size="8.00" fill="#4d4d4d">pollution</text>
</g>
<!-- dégradation environnementale -->
<g id="node2" class="node">
<title>dégradation environnementale</title>
<ellipse fill="#f1ef75" stroke="white" stroke-width="0" cx="374.19" cy="-283.49" rx="36" ry="36"/>
<text text-anchor="middle" x="401.69" y="-322.09" font-family="Helvetica,sans-Serif" font-size="8.00" fill="#4d4d4d">dégradation environnementale</text>
</g>
<!-- nouvelle&#45;calédonie -->
<g id="node3" class="node">
<title>nouvelle&#45;calédonie</title>
<ellipse fill="#1c0c43" stroke="white" stroke-width="0" cx="236.2" cy="-478" rx="3.5" ry="3.5"/>
<text text-anchor="middle" x="193.2" y="-484.1" font-family="Helvetica,sans-Serif" font-size="8.00" fill="#4d4d4d">nouvelle&#45;calédonie</text>
</g>
<!-- travail -->
<g id="node4" class="node">
<title>travail</title>
<ellipse fill="#e65d2f" stroke="white" stroke-width="0" cx="257.82" cy="-387.13" rx="21.5" ry="21.5"/>
<text text-anchor="middle" x="223.32" y="-411.23" font-family="Helvetica,sans-Serif" font-size="8.00" fill="#4d4d4d">travail</text>
</g>
<!-- économie -->
<g id="node5" class="node">
<title>économie</title>
<ellipse fill="#b3325a" stroke="white" stroke-width="0" cx="189.41" cy="-355.11" rx="18" ry="18"/>
<text text-anchor="middle" x="150.91" y="-375.71" font-family="Helvetica,sans-Serif" font-size="8.00" fill="#4d4d4d">économie</text>
</g>
<!-- nickel -->
<g id="node6" class="node">
<title>nickel</title>
<ellipse fill="#fcffa4" stroke="white" stroke-width="0" cx="300.43" cy="-329.06" rx="36" ry="36"/>
<text text-anchor="middle" x="252.43" y="-295.66" font-family="Helvetica,sans-Serif" font-size="8.00" fill="#4d4d4d">nickel</text>
</g>
<!-- ressource minière -->
<g id="node7" class="node">
<title>ressource minière</title>
<ellipse fill="#64156e" stroke="white" stroke-width="0" cx="84" cy="-283.09" rx="11" ry="11"/>
<text text-anchor="middle" x="36.5" y="-296.69" font-family="Helvetica,sans-Serif" font-size="8.00" fill="#4d4d4d">ressource minière</text>
</g>
<!-- politique -->
<g id="node8" class="node">
<title>politique</title>
<ellipse fill="#9b2964" stroke="white" stroke-width="0" cx="176.93" cy="-295.39" rx="14.5" ry="14.5"/>
<text text-anchor="middle" x="143.93" y="-312.49" font-family="Helvetica,sans-Serif" font-size="8.00" fill="#4d4d4d">politique</text>
</g>
<!-- secteur nickel -->
<g id="node9" class="node">
<title>secteur nickel</title>
<ellipse fill="#b43359" stroke="white" stroke-width="0" cx="296.71" cy="-232.55" rx="18" ry="18"/>
<text text-anchor="middle" x="250.21" y="-217.15" font-family="Helvetica,sans-Serif" font-size="8.00" fill="#4d4d4d">secteur nickel</text>
</g>
<!-- nature -->
<g id="node10" class="node">
<title>nature</title>
<ellipse fill="#85216b" stroke="white" stroke-width="0" cx="313.64" cy="-394.58" rx="14.5" ry="14.5"/>
<text text-anchor="middle" x="285.64" y="-411.68" font-family="Helvetica,sans-Serif" font-size="8.00" fill="#4d4d4d">nature</text>
</g>
<!-- amélioration environnementale -->
<g id="node11" class="node">
<title>amélioration environnementale</title>
<ellipse fill="#030210" stroke="white" stroke-width="0" cx="430.86" cy="-0.5" rx="0.5" ry="0.5"/>
<text text-anchor="middle" x="365.86" y="-3.6" font-family="Helvetica,sans-Serif" font-size="8.00" fill="#4d4d4d">amélioration environnementale</text>
</g>
<!-- société néo&#45;calédonienne -->
<g id="node12" class="node">
<title>société néo&#45;calédonienne</title>
<ellipse fill="#180c3c" stroke="white" stroke-width="0" cx="345.83" cy="-493.16" rx="3.5" ry="3.5"/>
<text text-anchor="middle" x="288.33" y="-499.26" font-family="Helvetica,sans-Serif" font-size="8.00" fill="#4d4d4d">société néo&#45;calédonienne</text>
</g>
<!-- exploitation minière -->
<g id="node13" class="node">
<title>exploitation minière</title>
<ellipse fill="#7a1d6d" stroke="white" stroke-width="0" cx="226.88" cy="-186.51" rx="14.5" ry="14.5"/>
<text text-anchor="middle" x="171.88" y="-174.61" font-family="Helvetica,sans-Serif" font-size="8.00" fill="#4d4d4d">exploitation minière</text>
</g>
<!-- alternative au développement -->
<g id="node14" class="node">
<title>alternative au développement</title>
<ellipse fill="#120a32" stroke="white" stroke-width="0" cx="431.92" cy="-378.02" rx="3.5" ry="3.5"/>
<text text-anchor="middle" x="366.42" y="-368.12" font-family="Helvetica,sans-Serif" font-size="8.00" fill="#4d4d4d">alternative au développement</text>
</g>
<!-- matériel -->
<g id="node15" class="node">
<title>matériel</title>
<ellipse fill="#932667" stroke="white" stroke-width="0" cx="94.36" cy="-369.29" rx="14.5" ry="14.5"/>
<text text-anchor="middle" x="62.86" y="-386.39" font-family="Helvetica,sans-Serif" font-size="8.00" fill="#4d4d4d">matériel</text>
</g>
<!-- foncier -->
<g id="node16" class="node">
<title>foncier</title>
<ellipse fill="#240c4f" stroke="white" stroke-width="0" cx="149.15" cy="-500.22" rx="7" ry="7"/>
<text text-anchor="middle" x="127.65" y="-509.82" font-family="Helvetica,sans-Serif" font-size="8.00" fill="#4d4d4d">foncier</text>
</g>
<!-- industrie -->
<g id="node17" class="node">
<title>industrie</title>
<ellipse fill="#b3325a" stroke="white" stroke-width="0" cx="156.49" cy="-413.02" rx="18" ry="18"/>
<text text-anchor="middle" x="119.99" y="-433.62" font-family="Helvetica,sans-Serif" font-size="8.00" fill="#4d4d4d">industrie</text>
</g>
<!-- échange commercial -->
<g id="node18" class="node">
<title>échange commercial</title>
<ellipse fill="#380962" stroke="white" stroke-width="0" cx="140.08" cy="-198.4" rx="7" ry="7"/>
<text text-anchor="middle" x="90.08" y="-208" font-family="Helvetica,sans-Serif" font-size="8.00" fill="#4d4d4d">échange commercial</text>
</g>
<!-- relation politique -->
<g id="node19" class="node">
<title>relation politique</title>
<ellipse fill="#0b0724" stroke="white" stroke-width="0" cx="124.27" cy="-113.48" rx="3.5" ry="3.5"/>
<text text-anchor="middle" x="85.77" y="-119.58" font-family="Helvetica,sans-Serif" font-size="8.00" fill="#4d4d4d">relation politique</text>
</g>
<!-- risque -->
<g id="node20" class="node">
<title>risque</title>
<ellipse fill="#050417" stroke="white" stroke-width="0" cx="577.31" cy="-468.13" rx="3.5" ry="3.5"/>
<text text-anchor="middle" x="560.81" y="-474.23" font-family="Helvetica,sans-Serif" font-size="8.00" fill="#4d4d4d">risque</text>
</g>
<!-- avenir sans nickel -->
<g id="node21" class="node">
<title>avenir sans nickel</title>
<ellipse fill="#000004" stroke="white" stroke-width="0" cx="815.12" cy="-272.92" rx="0.5" ry="0.5"/>
<text text-anchor="middle" x="778.12" y="-276.02" font-family="Helvetica,sans-Serif" font-size="8.00" fill="#4d4d4d">avenir sans nickel</text>
</g>
</g>
</svg>
