<?xml version="1.0" encoding="UTF-8" standalone="no"?>
<!DOCTYPE svg PUBLIC "-//W3C//DTD SVG 1.1//EN"
 "http://www.w3.org/Graphics/SVG/1.1/DTD/svg11.dtd">
<!-- Generated by graphviz version 2.43.0 (0)
 -->
<!-- Pages: 1 -->
<svg width="431pt" height="324pt"
 viewBox="0.00 0.00 431.39 324.03" xmlns="http://www.w3.org/2000/svg" xmlns:xlink="http://www.w3.org/1999/xlink">
<g id="graph0" class="graph" transform="scale(1 1) rotate(0) translate(4 320.03)">
<polygon fill="white" stroke="transparent" points="-4,4 -4,-320.03 427.39,-320.03 427.39,4 -4,4"/>
<!-- fin&#45;&#45;pollution -->
<g id="edge1" class="edge">
<title>fin&#45;&#45;pollution</title>
<path fill="none" stroke="darkgrey" stroke-width="1.02" d="M241.28,-285.55C233.01,-263.33 213.53,-210.97 202.09,-180.25"/>
</g>
<!-- fin&#45;&#45;impact environnemental -->
<g id="edge2" class="edge">
<title>fin&#45;&#45;impact environnemental</title>
<path fill="none" stroke="darkgrey" stroke-width="1.46" d="M245.88,-284.8C247.27,-262.34 250.47,-211.05 252.66,-175.91"/>
</g>
<!-- pollution&#45;&#45;impact environnemental -->
<g id="edge9" class="edge">
<title>pollution&#45;&#45;impact environnemental</title>
<path fill="none" stroke="darkgrey" stroke-width="10" d="M217.65,-149.97C218.46,-149.75 219.27,-149.53 220.09,-149.3"/>
</g>
<!-- pollution&#45;&#45;économie du pays -->
<g id="edge10" class="edge">
<title>pollution&#45;&#45;économie du pays</title>
<path fill="none" stroke="darkgrey" stroke-width="2.14" d="M211.66,-139.28C230.13,-121.85 257.77,-95.76 271.51,-82.79"/>
</g>
<!-- pollution&#45;&#45;amélioration environnementale -->
<g id="edge11" class="edge">
<title>pollution&#45;&#45;amélioration environnementale</title>
<path fill="none" stroke="darkgrey" stroke-width="1.33" d="M184.95,-132.96C175.82,-107.09 161.41,-66.25 153.29,-43.25"/>
</g>
<!-- pollution&#45;&#45;épuisement de la ressource -->
<g id="edge7" class="edge">
<title>pollution&#45;&#45;épuisement de la ressource</title>
<path fill="none" stroke="darkgrey" stroke-width="3.28" d="M168.25,-158.16C157.29,-158.84 144.97,-159.6 136.3,-160.13"/>
</g>
<!-- pollution&#45;&#45;biodiversité -->
<g id="edge8" class="edge">
<title>pollution&#45;&#45;biodiversité</title>
<path fill="none" stroke="darkgrey" stroke-width="1.03" d="M178,-176.54C158.18,-202.36 125.12,-245.43 116.21,-257.03"/>
</g>
<!-- impact environnemental&#45;&#45;économie du pays -->
<g id="edge17" class="edge">
<title>impact environnemental&#45;&#45;économie du pays</title>
<path fill="none" stroke="darkgrey" stroke-width="3.16" d="M267.84,-106.21C270.79,-98.54 273.71,-90.95 275.93,-85.17"/>
</g>
<!-- impact environnemental&#45;&#45;amélioration environnementale -->
<g id="edge18" class="edge">
<title>impact environnemental&#45;&#45;amélioration environnementale</title>
<path fill="none" stroke="darkgrey" stroke-width="2.26" d="M229.93,-113.42C207.93,-90.18 176.81,-57.3 159.69,-39.22"/>
</g>
<!-- impact environnemental&#45;&#45;conflit -->
<g id="edge15" class="edge">
<title>impact environnemental&#45;&#45;conflit</title>
<path fill="none" stroke="darkgrey" stroke-width="2.93" d="M218.92,-134.67C170.6,-127.77 87.96,-115.97 63.32,-112.45"/>
</g>
<!-- impact environnemental&#45;&#45;développement -->
<g id="edge16" class="edge">
<title>impact environnemental&#45;&#45;développement</title>
<path fill="none" stroke="darkgrey" stroke-width="1.69" d="M285.41,-120.18C317.88,-99.28 367.35,-67.43 387.77,-54.29"/>
</g>
<!-- impact environnemental&#45;&#45;richesse -->
<g id="edge19" class="edge">
<title>impact environnemental&#45;&#45;richesse</title>
<path fill="none" stroke="darkgrey" stroke-width="1.23" d="M286.5,-157.24C332.88,-182.82 414.75,-227.98 422.32,-232.16"/>
</g>
<!-- emploi&#45;&#45;pollution -->
<g id="edge3" class="edge">
<title>emploi&#45;&#45;pollution</title>
<path fill="none" stroke="darkgrey" stroke-width="4.2" d="M219.62,-35.84C214.3,-60.26 204.72,-104.21 198.7,-131.82"/>
</g>
<!-- emploi&#45;&#45;impact environnemental -->
<g id="edge4" class="edge">
<title>emploi&#45;&#45;impact environnemental</title>
<path fill="none" stroke="darkgrey" stroke-width="3.83" d="M228.01,-35.45C232.65,-53.48 240.03,-82.1 245.89,-104.81"/>
</g>
<!-- emploi&#45;&#45;économie du pays -->
<g id="edge5" class="edge">
<title>emploi&#45;&#45;économie du pays</title>
<path fill="none" stroke="darkgrey" stroke-width="2.51" d="M236.3,-30.91C247.22,-41.93 262.58,-57.42 271.84,-66.78"/>
</g>
<!-- emploi&#45;&#45;amélioration environnementale -->
<g id="edge6" class="edge">
<title>emploi&#45;&#45;amélioration environnementale</title>
<path fill="none" stroke="darkgrey" stroke-width="2.45" d="M205.43,-19.9C193.26,-21.18 177.3,-22.86 165.16,-24.14"/>
</g>
<!-- épuisement de la ressource&#45;&#45;impact environnemental -->
<g id="edge12" class="edge">
<title>épuisement de la ressource&#45;&#45;impact environnemental</title>
<path fill="none" stroke="darkgrey" stroke-width="3.72" d="M136.08,-159.04C154.3,-156.09 191.37,-150.09 219.28,-145.58"/>
</g>
<!-- épuisement de la ressource&#45;&#45;économie du pays -->
<g id="edge14" class="edge">
<title>épuisement de la ressource&#45;&#45;économie du pays</title>
<path fill="none" stroke="darkgrey" d="M134.69,-155.46C162.5,-140.02 242.39,-95.7 270.2,-80.27"/>
</g>
<!-- épuisement de la ressource&#45;&#45;conflit -->
<g id="edge13" class="edge">
<title>épuisement de la ressource&#45;&#45;conflit</title>
<path fill="none" stroke="darkgrey" stroke-width="1.28" d="M116,-154.37C101.72,-144.12 74.24,-124.4 62.14,-115.72"/>
</g>
<!-- développement&#45;&#45;économie du pays -->
<g id="edge20" class="edge">
<title>développement&#45;&#45;économie du pays</title>
<path fill="none" stroke="darkgrey" stroke-width="1.14" d="M386.27,-50.75C363.94,-55.82 312.98,-67.38 290.67,-72.44"/>
</g>
<!-- fin -->
<g id="node1" class="node">
<title>fin</title>
<ellipse fill="#741a6e" stroke="white" stroke-width="0" cx="245.18" cy="-296.03" rx="11" ry="11"/>
<text text-anchor="middle" x="228.68" y="-309.63" font-family="Helvetica,sans-Serif" font-size="8.00" fill="#4d4d4d">fin</text>
</g>
<!-- pollution -->
<g id="node2" class="node">
<title>pollution</title>
<ellipse fill="#ef6c23" stroke="white" stroke-width="0" cx="193.3" cy="-156.61" rx="25" ry="25"/>
<text text-anchor="middle" x="149.8" y="-184.21" font-family="Helvetica,sans-Serif" font-size="8.00" fill="#4d4d4d">pollution</text>
</g>
<!-- impact environnemental -->
<g id="node3" class="node">
<title>impact environnemental</title>
<ellipse fill="#fcffa4" stroke="white" stroke-width="0" cx="254.91" cy="-139.81" rx="36" ry="36"/>
<text text-anchor="middle" x="168.91" y="-106.41" font-family="Helvetica,sans-Serif" font-size="8.00" fill="#4d4d4d">impact environnemental</text>
</g>
<!-- emploi -->
<g id="node4" class="node">
<title>emploi</title>
<ellipse fill="#b3325a" stroke="white" stroke-width="0" cx="223.51" cy="-18" rx="18" ry="18"/>
<text text-anchor="middle" x="191.51" y="-38.6" font-family="Helvetica,sans-Serif" font-size="8.00" fill="#4d4d4d">emploi</text>
</g>
<!-- économie du pays -->
<g id="node5" class="node">
<title>économie du pays</title>
<ellipse fill="#5d126e" stroke="white" stroke-width="0" cx="279.88" cy="-74.89" rx="11" ry="11"/>
<text text-anchor="middle" x="230.88" y="-88.49" font-family="Helvetica,sans-Serif" font-size="8.00" fill="#4d4d4d">économie du pays</text>
</g>
<!-- amélioration environnementale -->
<g id="node6" class="node">
<title>amélioration environnementale</title>
<ellipse fill="#ae305c" stroke="white" stroke-width="0" cx="147.21" cy="-26.03" rx="18" ry="18"/>
<text text-anchor="middle" x="64.71" y="-46.63" font-family="Helvetica,sans-Serif" font-size="8.00" fill="#4d4d4d">amélioration environnementale</text>
</g>
<!-- épuisement de la ressource -->
<g id="node7" class="node">
<title>épuisement de la ressource</title>
<ellipse fill="#62146e" stroke="white" stroke-width="0" cx="125" cy="-160.83" rx="11" ry="11"/>
<text text-anchor="middle" x="57" y="-174.43" font-family="Helvetica,sans-Serif" font-size="8.00" fill="#4d4d4d">épuisement de la ressource</text>
</g>
<!-- biodiversité -->
<g id="node8" class="node">
<title>biodiversité</title>
<ellipse fill="#0b0724" stroke="white" stroke-width="0" cx="113.94" cy="-259.99" rx="3.5" ry="3.5"/>
<text text-anchor="middle" x="85.94" y="-266.09" font-family="Helvetica,sans-Serif" font-size="8.00" fill="#4d4d4d">biodiversité</text>
</g>
<!-- conflit -->
<g id="node9" class="node">
<title>conflit</title>
<ellipse fill="#450a69" stroke="white" stroke-width="0" cx="56.18" cy="-111.44" rx="7" ry="7"/>
<text text-anchor="middle" x="36.18" y="-121.04" font-family="Helvetica,sans-Serif" font-size="8.00" fill="#4d4d4d">conflit</text>
</g>
<!-- développement -->
<g id="node10" class="node">
<title>développement</title>
<ellipse fill="#59106e" stroke="white" stroke-width="0" cx="397.08" cy="-48.3" rx="11" ry="11"/>
<text text-anchor="middle" x="353.58" y="-61.9" font-family="Helvetica,sans-Serif" font-size="8.00" fill="#4d4d4d">développement</text>
</g>
<!-- richesse -->
<g id="node11" class="node">
<title>richesse</title>
<ellipse fill="#000004" stroke="white" stroke-width="0" cx="422.89" cy="-232.47" rx="0.5" ry="0.5"/>
<text text-anchor="middle" x="404.89" y="-235.57" font-family="Helvetica,sans-Serif" font-size="8.00" fill="#4d4d4d">richesse</text>
</g>
</g>
</svg>
