<?xml version="1.0" encoding="UTF-8" standalone="no"?>
<!DOCTYPE svg PUBLIC "-//W3C//DTD SVG 1.1//EN"
 "http://www.w3.org/Graphics/SVG/1.1/DTD/svg11.dtd">
<!-- Generated by graphviz version 2.43.0 (0)
 -->
<!-- Pages: 1 -->
<svg width="360pt" height="329pt"
 viewBox="0.00 0.00 360.14 329.49" xmlns="http://www.w3.org/2000/svg" xmlns:xlink="http://www.w3.org/1999/xlink">
<g id="graph0" class="graph" transform="scale(1 1) rotate(0) translate(4 325.49)">
<polygon fill="white" stroke="transparent" points="-4,4 -4,-325.49 356.14,-325.49 356.14,4 -4,4"/>
<!-- emploi&#45;&#45;pollution -->
<g id="edge1" class="edge">
<title>emploi&#45;&#45;pollution</title>
<path fill="none" stroke="darkgrey" stroke-width="8.92" d="M62.42,-217.12C84.83,-206.26 125.48,-186.56 154.19,-172.64"/>
</g>
<!-- pollution&#45;&#45;épuisable -->
<g id="edge2" class="edge">
<title>pollution&#45;&#45;épuisable</title>
<path fill="none" stroke="darkgrey" stroke-width="10" d="M161.47,-131.04C138.18,-107.28 104.8,-73.22 88.07,-56.15"/>
</g>
<!-- pollution&#45;&#45;impact environnemental -->
<g id="edge3" class="edge">
<title>pollution&#45;&#45;impact environnemental</title>
<path fill="none" stroke="darkgrey" stroke-width="6.58" d="M203.44,-124.65C218.12,-96.29 238.9,-56.16 250.33,-34.1"/>
</g>
<!-- pollution&#45;&#45;démolition -->
<g id="edge4" class="edge">
<title>pollution&#45;&#45;démolition</title>
<path fill="none" stroke="darkgrey" stroke-width="3.54" d="M192.02,-192.83C198.3,-235.8 208.1,-302.93 209.31,-311.15"/>
</g>
<!-- pollution&#45;&#45;économie -->
<g id="edge5" class="edge">
<title>pollution&#45;&#45;économie</title>
<path fill="none" stroke="darkgrey" d="M222.57,-162.76C257.31,-168.49 307.92,-176.84 330.07,-180.49"/>
</g>
<!-- emploi -->
<g id="node1" class="node">
<title>emploi</title>
<ellipse fill="#c13a50" stroke="white" stroke-width="0" cx="46" cy="-225.08" rx="18" ry="18"/>
<text text-anchor="middle" x="14" y="-245.68" font-family="Helvetica,sans-Serif" font-size="8.00" fill="#4d4d4d">emploi</text>
</g>
<!-- pollution -->
<g id="node2" class="node">
<title>pollution</title>
<ellipse fill="#fcffa4" stroke="white" stroke-width="0" cx="186.76" cy="-156.85" rx="36" ry="36"/>
<text text-anchor="middle" x="132.26" y="-195.45" font-family="Helvetica,sans-Serif" font-size="8.00" fill="#4d4d4d">pollution</text>
</g>
<!-- épuisable -->
<g id="node3" class="node">
<title>épuisable</title>
<ellipse fill="#7c1d6d" stroke="white" stroke-width="0" cx="77.69" cy="-45.55" rx="14.5" ry="14.5"/>
<text text-anchor="middle" x="42.69" y="-62.65" font-family="Helvetica,sans-Serif" font-size="8.00" fill="#4d4d4d">épuisable</text>
</g>
<!-- impact environnemental -->
<g id="node4" class="node">
<title>impact environnemental</title>
<ellipse fill="#ab2f5e" stroke="white" stroke-width="0" cx="258.66" cy="-18" rx="18" ry="18"/>
<text text-anchor="middle" x="190.66" y="-38.6" font-family="Helvetica,sans-Serif" font-size="8.00" fill="#4d4d4d">impact environnemental</text>
</g>
<!-- démolition -->
<g id="node5" class="node">
<title>démolition</title>
<ellipse fill="#000004" stroke="white" stroke-width="0" cx="209.43" cy="-311.99" rx="0.5" ry="0.5"/>
<text text-anchor="middle" x="186.93" y="-315.09" font-family="Helvetica,sans-Serif" font-size="8.00" fill="#4d4d4d">démolition</text>
</g>
<!-- économie -->
<g id="node6" class="node">
<title>économie</title>
<ellipse fill="#64156e" stroke="white" stroke-width="0" cx="341.14" cy="-182.32" rx="11" ry="11"/>
<text text-anchor="middle" x="309.64" y="-195.92" font-family="Helvetica,sans-Serif" font-size="8.00" fill="#4d4d4d">économie</text>
</g>
</g>
</svg>
