<?xml version="1.0" encoding="UTF-8" standalone="no"?>
<!DOCTYPE svg PUBLIC "-//W3C//DTD SVG 1.1//EN"
 "http://www.w3.org/Graphics/SVG/1.1/DTD/svg11.dtd">
<!-- Generated by graphviz version 2.43.0 (0)
 -->
<!-- Pages: 1 -->
<svg width="630pt" height="387pt"
 viewBox="0.00 0.00 629.66 387.11" xmlns="http://www.w3.org/2000/svg" xmlns:xlink="http://www.w3.org/1999/xlink">
<g id="graph0" class="graph" transform="scale(1 1) rotate(0) translate(4 383.11)">
<polygon fill="white" stroke="transparent" points="-4,4 -4,-383.11 625.66,-383.11 625.66,4 -4,4"/>
<!-- pollution&#45;&#45;emploi -->
<g id="edge1" class="edge">
<title>pollution&#45;&#45;emploi</title>
<path fill="none" stroke="darkgrey" stroke-width="10" d="M290.4,-160.88C303.25,-149.94 319.47,-136.12 333.08,-124.53"/>
</g>
<!-- pollution&#45;&#45;richesse -->
<g id="edge2" class="edge">
<title>pollution&#45;&#45;richesse</title>
<path fill="none" stroke="darkgrey" stroke-width="1.19" d="M277.96,-152.63C289.65,-120.57 308.45,-69.02 316.5,-46.96"/>
</g>
<!-- pollution&#45;&#45;démolition -->
<g id="edge3" class="edge">
<title>pollution&#45;&#45;démolition</title>
<path fill="none" stroke="darkgrey" stroke-width="2.8" d="M241.44,-167.88C217.08,-156.79 182.69,-141.13 168.36,-134.6"/>
</g>
<!-- pollution&#45;&#45;argent -->
<g id="edge4" class="edge">
<title>pollution&#45;&#45;argent</title>
<path fill="none" stroke="darkgrey" stroke-width="1.29" d="M269.11,-150.64C269.83,-131.86 270.7,-108.95 271.14,-97.55"/>
</g>
<!-- pollution&#45;&#45;nickel -->
<g id="edge5" class="edge">
<title>pollution&#45;&#45;nickel</title>
<path fill="none" stroke="darkgrey" stroke-width="4.22" d="M296.91,-177.49C325.08,-175.07 367.84,-171.4 397.19,-168.88"/>
</g>
<!-- pollution&#45;&#45;exploitation -->
<g id="edge6" class="edge">
<title>pollution&#45;&#45;exploitation</title>
<path fill="none" stroke="darkgrey" stroke-width="1.19" d="M293.66,-194.31C328.23,-213.62 388.45,-247.25 414.79,-261.96"/>
</g>
<!-- pollution&#45;&#45;camion -->
<g id="edge7" class="edge">
<title>pollution&#45;&#45;camion</title>
<path fill="none" stroke="darkgrey" stroke-width="1.41" d="M274.08,-208.37C276.93,-221.66 280.16,-236.7 282.28,-246.58"/>
</g>
<!-- pollution&#45;&#45;économie -->
<g id="edge8" class="edge">
<title>pollution&#45;&#45;économie</title>
<path fill="none" stroke="darkgrey" stroke-width="4.19" d="M297.17,-176.62C307.99,-175.38 319.95,-174 329.49,-172.91"/>
</g>
<!-- pollution&#45;&#45;impact environnemental -->
<g id="edge9" class="edge">
<title>pollution&#45;&#45;impact environnemental</title>
<path fill="none" stroke="darkgrey" stroke-width="4.02" d="M292.56,-195.95C309.11,-206.7 330.4,-220.55 344.52,-229.72"/>
</g>
<!-- pollution&#45;&#45;développement -->
<g id="edge10" class="edge">
<title>pollution&#45;&#45;développement</title>
<path fill="none" stroke="darkgrey" stroke-width="1.18" d="M247.33,-200.39C218.45,-228.94 168.84,-277.96 162.75,-283.98"/>
</g>
<!-- pollution&#45;&#45;déforestation -->
<g id="edge11" class="edge">
<title>pollution&#45;&#45;déforestation</title>
<path fill="none" stroke="darkgrey" stroke-width="1.58" d="M238.78,-181.45C194.93,-183.66 115.28,-187.68 97.21,-188.59"/>
</g>
<!-- emploi&#45;&#45;richesse -->
<g id="edge12" class="edge">
<title>emploi&#45;&#45;richesse</title>
<path fill="none" stroke="darkgrey" stroke-width="3" d="M341.4,-70.27C335.9,-61.41 330.3,-52.4 326.27,-45.9"/>
</g>
<!-- emploi&#45;&#45;argent -->
<g id="edge13" class="edge">
<title>emploi&#45;&#45;argent</title>
<path fill="none" stroke="darkgrey" stroke-width="2.56" d="M324.82,-96.81C307.57,-94.74 288.49,-92.44 278.46,-91.24"/>
</g>
<!-- emploi&#45;&#45;nickel -->
<g id="edge14" class="edge">
<title>emploi&#45;&#45;nickel</title>
<path fill="none" stroke="darkgrey" stroke-width="5.47" d="M387.12,-126.04C393.22,-131.77 399.67,-137.83 405.66,-143.45"/>
</g>
<!-- emploi&#45;&#45;économie -->
<g id="edge15" class="edge">
<title>emploi&#45;&#45;économie</title>
<path fill="none" stroke="darkgrey" stroke-width="7.39" d="M353.92,-136.78C352.87,-142.41 351.82,-148.01 350.89,-153"/>
</g>
<!-- emploi&#45;&#45;impact environnemental -->
<g id="edge16" class="edge">
<title>emploi&#45;&#45;impact environnemental</title>
<path fill="none" stroke="darkgrey" stroke-width="4.96" d="M360.34,-137.13C360.16,-164.21 359.92,-200.18 359.78,-221.5"/>
</g>
<!-- emploi&#45;&#45;conflit -->
<g id="edge17" class="edge">
<title>emploi&#45;&#45;conflit</title>
<path fill="none" stroke="darkgrey" stroke-width="1.69" d="M375.58,-68.06C386.13,-44.83 399.1,-16.27 403.42,-6.75"/>
</g>
<!-- richesse&#45;&#45;nickel -->
<g id="edge18" class="edge">
<title>richesse&#45;&#45;nickel</title>
<path fill="none" stroke="darkgrey" stroke-width="1.31" d="M327.53,-44.9C343.74,-64.12 383.7,-111.49 408.59,-140.99"/>
</g>
<!-- argent&#45;&#45;nickel -->
<g id="edge19" class="edge">
<title>argent&#45;&#45;nickel</title>
<path fill="none" stroke="darkgrey" stroke-width="1.99" d="M277.81,-93.45C298.12,-103.16 362,-133.69 400.16,-151.94"/>
</g>
<!-- nickel&#45;&#45;exploitation -->
<g id="edge20" class="edge">
<title>nickel&#45;&#45;exploitation</title>
<path fill="none" stroke="darkgrey" stroke-width="1.88" d="M429.12,-198.71C428.75,-217.47 428.3,-240.11 428.02,-254.58"/>
</g>
<!-- nickel&#45;&#45;camion -->
<g id="edge22" class="edge">
<title>nickel&#45;&#45;camion</title>
<path fill="none" stroke="darkgrey" stroke-width="2.3" d="M402.11,-183.48C369.05,-204.28 315.46,-237.99 293.96,-251.51"/>
</g>
<!-- nickel&#45;&#45;économie -->
<g id="edge23" class="edge">
<title>nickel&#45;&#45;économie</title>
<path fill="none" stroke="darkgrey" stroke-width="2.48" d="M397.27,-167.96C386.5,-168.58 374.91,-169.25 365.63,-169.79"/>
</g>
<!-- nickel&#45;&#45;impact environnemental -->
<g id="edge24" class="edge">
<title>nickel&#45;&#45;impact environnemental</title>
<path fill="none" stroke="darkgrey" stroke-width="1.23" d="M407.19,-189.74C395.67,-201.82 382.07,-216.08 372.38,-226.24"/>
</g>
<!-- nickel&#45;&#45;montagne -->
<g id="edge21" class="edge">
<title>nickel&#45;&#45;montagne</title>
<path fill="none" stroke="darkgrey" stroke-width="1.15" d="M446.69,-137.99C464.78,-107.98 492.2,-62.48 502.22,-45.85"/>
</g>
<!-- nickel&#45;&#45;terre rouge -->
<g id="edge25" class="edge">
<title>nickel&#45;&#45;terre rouge</title>
<path fill="none" stroke="darkgrey" stroke-width="1.23" d="M462.5,-165.65C502.21,-165.11 565.87,-164.26 582.08,-164.04"/>
</g>
<!-- nickel&#45;&#45;usine -->
<g id="edge26" class="edge">
<title>nickel&#45;&#45;usine</title>
<path fill="none" stroke="darkgrey" stroke-width="2.34" d="M435.4,-198.15C443.4,-243.66 457.55,-324.11 461.78,-348.15"/>
</g>
<!-- nickel&#45;&#45;sln -->
<g id="edge27" class="edge">
<title>nickel&#45;&#45;sln</title>
<path fill="none" stroke="darkgrey" stroke-width="3.22" d="M457.92,-149.82C497.27,-127.09 566.23,-87.25 587.31,-75.08"/>
</g>
<!-- nickel&#45;&#45;minerai -->
<g id="edge28" class="edge">
<title>nickel&#45;&#45;minerai</title>
<path fill="none" stroke="darkgrey" stroke-width="1.83" d="M454.08,-187.88C478.77,-210 515.25,-242.69 529.06,-255.06"/>
</g>
<!-- exploitation&#45;&#45;impact environnemental -->
<g id="edge29" class="edge">
<title>exploitation&#45;&#45;impact environnemental</title>
<path fill="none" stroke="darkgrey" stroke-width="1.09" d="M414.28,-263.34C403.44,-258.61 388.12,-251.95 376.46,-246.88"/>
</g>
<!-- exploitation&#45;&#45;minerai -->
<g id="edge31" class="edge">
<title>exploitation&#45;&#45;minerai</title>
<path fill="none" stroke="darkgrey" stroke-width="1.68" d="M442.59,-267.92C465.88,-265.92 510.11,-262.14 527.42,-260.66"/>
</g>
<!-- exploitation&#45;&#45;ressource -->
<g id="edge30" class="edge">
<title>exploitation&#45;&#45;ressource</title>
<path fill="none" stroke="darkgrey" stroke-width="1.23" d="M440.47,-276.53C462.24,-289.08 505.84,-314.21 522.04,-323.55"/>
</g>
<!-- économie&#45;&#45;impact environnemental -->
<g id="edge32" class="edge">
<title>économie&#45;&#45;impact environnemental</title>
<path fill="none" stroke="darkgrey" stroke-width="5.75" d="M350.75,-188.89C352.51,-198.91 354.7,-211.35 356.47,-221.39"/>
</g>
<!-- usine&#45;&#45;minerai -->
<g id="edge33" class="edge">
<title>usine&#45;&#45;minerai</title>
<path fill="none" stroke="darkgrey" stroke-width="1.29" d="M467.27,-349.45C479.92,-332.66 517.14,-283.25 530.11,-266.04"/>
</g>
<!-- ressource&#45;&#45;minerai -->
<g id="edge34" class="edge">
<title>ressource&#45;&#45;minerai</title>
<path fill="none" stroke="darkgrey" d="M528.97,-319.97C530.18,-307.12 532.71,-280.33 533.93,-267.38"/>
</g>
<!-- pollution -->
<g id="node1" class="node">
<title>pollution</title>
<ellipse fill="#fb9d07" stroke="white" stroke-width="0" cx="267.99" cy="-179.98" rx="29" ry="29"/>
<text text-anchor="middle" x="184.99" y="-216.14" font-family="Helvetica,sans-Serif" font-size="24.80" fill="#4d4d4d">pollution</text>
</g>
<!-- emploi -->
<g id="node2" class="node">
<title>emploi</title>
<ellipse fill="#fcffa4" stroke="white" stroke-width="0" cx="360.57" cy="-101.11" rx="36" ry="36"/>
<text text-anchor="middle" x="444.07" y="-73.71" font-family="Helvetica,sans-Serif" font-size="28.00" fill="#4d4d4d">emploi</text>
</g>
<!-- richesse -->
<g id="node3" class="node">
<title>richesse</title>
<ellipse fill="#59106e" stroke="white" stroke-width="0" cx="320.35" cy="-36.39" rx="11" ry="11"/>
<text text-anchor="middle" x="274.35" y="-51.95" font-family="Helvetica,sans-Serif" font-size="16.80" fill="#4d4d4d">richesse</text>
</g>
<!-- démolition -->
<g id="node4" class="node">
<title>démolition</title>
<ellipse fill="#240c4f" stroke="white" stroke-width="0" cx="161.68" cy="-131.56" rx="7" ry="7"/>
<text text-anchor="middle" x="113.68" y="-143.4" font-family="Helvetica,sans-Serif" font-size="15.20" fill="#4d4d4d">démolition</text>
</g>
<!-- argent -->
<g id="node5" class="node">
<title>argent</title>
<ellipse fill="#3d0965" stroke="white" stroke-width="0" cx="271.41" cy="-90.39" rx="7" ry="7"/>
<text text-anchor="middle" x="239.41" y="-102.23" font-family="Helvetica,sans-Serif" font-size="15.20" fill="#4d4d4d">argent</text>
</g>
<!-- nickel -->
<g id="node6" class="node">
<title>nickel</title>
<ellipse fill="#f7d13d" stroke="white" stroke-width="0" cx="429.76" cy="-166.09" rx="32.5" ry="32.5"/>
<text text-anchor="middle" x="435.76" y="-206.47" font-family="Helvetica,sans-Serif" font-size="26.40" fill="#4d4d4d">nickel</text>
</g>
<!-- exploitation -->
<g id="node7" class="node">
<title>exploitation</title>
<ellipse fill="#84206b" stroke="white" stroke-width="0" cx="427.73" cy="-269.19" rx="14.5" ry="14.5"/>
<text text-anchor="middle" x="357.73" y="-288.97" font-family="Helvetica,sans-Serif" font-size="18.40" fill="#4d4d4d">exploitation</text>
</g>
<!-- camion -->
<g id="node8" class="node">
<title>camion</title>
<ellipse fill="#540f6d" stroke="white" stroke-width="0" cx="284.6" cy="-257.4" rx="11" ry="11"/>
<text text-anchor="middle" x="242.6" y="-272.96" font-family="Helvetica,sans-Serif" font-size="16.80" fill="#4d4d4d">camion</text>
</g>
<!-- économie -->
<g id="node9" class="node">
<title>économie</title>
<ellipse fill="#b93556" stroke="white" stroke-width="0" cx="347.57" cy="-170.83" rx="18" ry="18"/>
<text text-anchor="middle" x="281.07" y="-136.83" font-family="Helvetica,sans-Serif" font-size="20.00" fill="#4d4d4d">économie</text>
</g>
<!-- impact environnemental -->
<g id="node10" class="node">
<title>impact environnemental</title>
<ellipse fill="#c83f4b" stroke="white" stroke-width="0" cx="359.66" cy="-239.57" rx="18" ry="18"/>
<text text-anchor="middle" x="499.66" y="-227.57" font-family="Helvetica,sans-Serif" font-size="20.00" fill="#4d4d4d">impact environnemental</text>
</g>
<!-- développement -->
<g id="node11" class="node">
<title>développement</title>
<ellipse fill="#000004" stroke="white" stroke-width="0" cx="162.13" cy="-284.59" rx="0.5" ry="0.5"/>
<text text-anchor="middle" x="114.63" y="-288.49" font-family="Helvetica,sans-Serif" font-size="12.00" fill="#4d4d4d">développement</text>
</g>
<!-- déforestation -->
<g id="node12" class="node">
<title>déforestation</title>
<ellipse fill="#09061f" stroke="white" stroke-width="0" cx="93.5" cy="-188.78" rx="3.5" ry="3.5"/>
<text text-anchor="middle" x="45" y="-196.4" font-family="Helvetica,sans-Serif" font-size="13.60" fill="#4d4d4d">déforestation</text>
</g>
<!-- conflit -->
<g id="node13" class="node">
<title>conflit</title>
<ellipse fill="#1f0c48" stroke="white" stroke-width="0" cx="404.89" cy="-3.5" rx="3.5" ry="3.5"/>
<text text-anchor="middle" x="380.39" y="-11.12" font-family="Helvetica,sans-Serif" font-size="13.60" fill="#4d4d4d">conflit</text>
</g>
<!-- montagne -->
<g id="node14" class="node">
<title>montagne</title>
<ellipse fill="#260c51" stroke="white" stroke-width="0" cx="506.05" cy="-39.48" rx="7" ry="7"/>
<text text-anchor="middle" x="460.05" y="-51.32" font-family="Helvetica,sans-Serif" font-size="15.20" fill="#4d4d4d">montagne</text>
</g>
<!-- terre rouge -->
<g id="node15" class="node">
<title>terre rouge</title>
<ellipse fill="#0b0724" stroke="white" stroke-width="0" cx="585.94" cy="-163.99" rx="3.5" ry="3.5"/>
<text text-anchor="middle" x="544.44" y="-171.61" font-family="Helvetica,sans-Serif" font-size="13.60" fill="#4d4d4d">terre rouge</text>
</g>
<!-- usine -->
<g id="node16" class="node">
<title>usine</title>
<ellipse fill="#3b0964" stroke="white" stroke-width="0" cx="463" cy="-355.11" rx="7" ry="7"/>
<text text-anchor="middle" x="435" y="-366.95" font-family="Helvetica,sans-Serif" font-size="15.20" fill="#4d4d4d">usine</text>
</g>
<!-- sln -->
<g id="node17" class="node">
<title>sln</title>
<ellipse fill="#260c51" stroke="white" stroke-width="0" cx="593.61" cy="-71.44" rx="7" ry="7"/>
<text text-anchor="middle" x="575.11" y="-83.28" font-family="Helvetica,sans-Serif" font-size="15.20" fill="#4d4d4d">sln</text>
</g>
<!-- minerai -->
<g id="node18" class="node">
<title>minerai</title>
<ellipse fill="#3e0966" stroke="white" stroke-width="0" cx="534.62" cy="-260.04" rx="7" ry="7"/>
<text text-anchor="middle" x="498.62" y="-271.88" font-family="Helvetica,sans-Serif" font-size="15.20" fill="#4d4d4d">minerai</text>
</g>
<!-- ressource -->
<g id="node19" class="node">
<title>ressource</title>
<ellipse fill="#2f0a5b" stroke="white" stroke-width="0" cx="528.29" cy="-327.16" rx="7" ry="7"/>
<text text-anchor="middle" x="484.29" y="-325" font-family="Helvetica,sans-Serif" font-size="15.20" fill="#4d4d4d">ressource</text>
</g>
</g>
</svg>
