<?xml version="1.0" encoding="UTF-8" standalone="no"?>
<!DOCTYPE svg PUBLIC "-//W3C//DTD SVG 1.1//EN"
 "http://www.w3.org/Graphics/SVG/1.1/DTD/svg11.dtd">
<!-- Generated by graphviz version 2.43.0 (0)
 -->
<!-- Pages: 1 -->
<svg width="473pt" height="359pt"
 viewBox="0.00 0.00 473.24 359.46" xmlns="http://www.w3.org/2000/svg" xmlns:xlink="http://www.w3.org/1999/xlink">
<g id="graph0" class="graph" transform="scale(1 1) rotate(0) translate(4 355.46)">
<polygon fill="white" stroke="transparent" points="-4,4 -4,-355.46 469.24,-355.46 469.24,4 -4,4"/>
<!-- pollution&#45;&#45;travail -->
<g id="edge1" class="edge">
<title>pollution&#45;&#45;travail</title>
<path fill="none" stroke="darkgrey" stroke-width="7.08" d="M255.35,-150.21C283.89,-127.77 328.73,-92.52 349.66,-76.06"/>
</g>
<!-- pollution&#45;&#45;richesse -->
<g id="edge2" class="edge">
<title>pollution&#45;&#45;richesse</title>
<path fill="none" stroke="darkgrey" stroke-width="2.99" d="M241.53,-140.03C255.69,-103.72 278.62,-44.88 287.83,-21.28"/>
</g>
<!-- pollution&#45;&#45;destruction -->
<g id="edge3" class="edge">
<title>pollution&#45;&#45;destruction</title>
<path fill="none" stroke="darkgrey" stroke-width="5.04" d="M197.2,-171.18C156.2,-172.19 88.38,-173.86 66.27,-174.4"/>
</g>
<!-- pollution&#45;&#45;argent -->
<g id="edge4" class="edge">
<title>pollution&#45;&#45;argent</title>
<path fill="none" stroke="darkgrey" stroke-width="2.93" d="M261.28,-162C298.3,-152.17 357.12,-136.56 377.07,-131.26"/>
</g>
<!-- pollution&#45;&#45;nickel -->
<g id="edge5" class="edge">
<title>pollution&#45;&#45;nickel</title>
<path fill="none" stroke="darkgrey" stroke-width="9.52" d="M262.19,-174.94C263.55,-175.13 264.92,-175.32 266.28,-175.51"/>
</g>
<!-- pollution&#45;&#45;montagne -->
<g id="edge6" class="edge">
<title>pollution&#45;&#45;montagne</title>
<path fill="none" stroke="darkgrey" stroke-width="1.4" d="M207.65,-146.33C187.22,-124.06 158.36,-92.58 147.09,-80.29"/>
</g>
<!-- pollution&#45;&#45;camion -->
<g id="edge7" class="edge">
<title>pollution&#45;&#45;camion</title>
<path fill="none" stroke="darkgrey" stroke-width="3.36" d="M245.04,-199.37C263.39,-234.04 293.12,-290.22 305.05,-312.76"/>
</g>
<!-- pollution&#45;&#45;économie -->
<g id="edge8" class="edge">
<title>pollution&#45;&#45;économie</title>
<path fill="none" stroke="darkgrey" stroke-width="8.68" d="M238.73,-139.02C245.35,-116.06 254.14,-85.55 259.9,-65.55"/>
</g>
<!-- pollution&#45;&#45;environnement -->
<g id="edge9" class="edge">
<title>pollution&#45;&#45;environnement</title>
<path fill="none" stroke="darkgrey" stroke-width="6.59" d="M249.94,-144.69C272.84,-115.62 309.3,-69.33 327.53,-46.18"/>
</g>
<!-- pollution&#45;&#45;emploi -->
<g id="edge10" class="edge">
<title>pollution&#45;&#45;emploi</title>
<path fill="none" stroke="darkgrey" stroke-width="10" d="M249.36,-144.21C260.46,-129.44 273.9,-111.55 283.13,-99.26"/>
</g>
<!-- pollution&#45;&#45;terre -->
<g id="edge11" class="edge">
<title>pollution&#45;&#45;terre</title>
<path fill="none" stroke="darkgrey" stroke-width="1.28" d="M198.56,-160.26C178.99,-153.9 155.35,-146.21 143.88,-142.49"/>
</g>
<!-- pollution&#45;&#45;usine -->
<g id="edge12" class="edge">
<title>pollution&#45;&#45;usine</title>
<path fill="none" stroke="darkgrey" stroke-width="1.62" d="M253.37,-192.68C276.45,-214.43 310.27,-246.3 325.74,-260.87"/>
</g>
<!-- pollution&#45;&#45;exploitation -->
<g id="edge13" class="edge">
<title>pollution&#45;&#45;exploitation</title>
<path fill="none" stroke="darkgrey" stroke-width="1.45" d="M228.95,-202.98C228.12,-239.38 226.83,-296.33 226.28,-320.27"/>
</g>
<!-- pollution&#45;&#45;ressource -->
<g id="edge14" class="edge">
<title>pollution&#45;&#45;ressource</title>
<path fill="none" stroke="darkgrey" d="M219.76,-201.38C210.92,-228.96 198.65,-267.25 193.7,-282.69"/>
</g>
<!-- pollution&#45;&#45;conflit -->
<g id="edge15" class="edge">
<title>pollution&#45;&#45;conflit</title>
<path fill="none" stroke="darkgrey" stroke-width="1.96" d="M220.93,-138.76C213.28,-111.18 202.76,-73.26 198.52,-57.98"/>
</g>
<!-- pollution&#45;&#45;développement -->
<g id="edge16" class="edge">
<title>pollution&#45;&#45;développement</title>
<path fill="none" stroke="darkgrey" stroke-width="2.51" d="M205.91,-192.9C175.53,-221.65 125.45,-269.05 113.4,-280.45"/>
</g>
<!-- pollution&#45;&#45;minerai -->
<g id="edge17" class="edge">
<title>pollution&#45;&#45;minerai</title>
<path fill="none" stroke="darkgrey" stroke-width="1.26" d="M238.36,-201.98C245.14,-226.71 254.16,-259.61 258.75,-276.36"/>
</g>
<!-- pollution&#45;&#45;déforestation -->
<g id="edge18" class="edge">
<title>pollution&#45;&#45;déforestation</title>
<path fill="none" stroke="darkgrey" stroke-width="2.21" d="M199.88,-183.83C156.58,-203.36 79.54,-238.11 62.09,-245.98"/>
</g>
<!-- travail&#45;&#45;richesse -->
<g id="edge19" class="edge">
<title>travail&#45;&#45;richesse</title>
<path fill="none" stroke="darkgrey" stroke-width="2.07" d="M349.69,-57.78C335.85,-46.59 312.87,-28.01 300.45,-17.96"/>
</g>
<!-- travail&#45;&#45;nickel -->
<g id="edge20" class="edge">
<title>travail&#45;&#45;nickel</title>
<path fill="none" stroke="darkgrey" stroke-width="3.63" d="M354.39,-80.06C345.82,-96.6 330.74,-125.72 319.01,-148.37"/>
</g>
<!-- travail&#45;&#45;économie -->
<g id="edge21" class="edge">
<title>travail&#45;&#45;économie</title>
<path fill="none" stroke="darkgrey" stroke-width="3.24" d="M346.67,-63.66C330.74,-59.94 305,-53.93 286.86,-49.69"/>
</g>
<!-- travail&#45;&#45;environnement -->
<g id="edge22" class="edge">
<title>travail&#45;&#45;environnement</title>
<path fill="none" stroke="darkgrey" stroke-width="3.05" d="M353.28,-54.8C351.76,-52.43 350.15,-49.93 348.58,-47.47"/>
</g>
<!-- richesse&#45;&#45;nickel -->
<g id="edge23" class="edge">
<title>richesse&#45;&#45;nickel</title>
<path fill="none" stroke="darkgrey" stroke-width="2.56" d="M292.52,-22.13C294.03,-46.51 297.69,-105.59 300.09,-144.31"/>
</g>
<!-- richesse&#45;&#45;économie -->
<g id="edge24" class="edge">
<title>richesse&#45;&#45;économie</title>
<path fill="none" stroke="darkgrey" stroke-width="1.89" d="M285.02,-19.88C283.15,-22.3 281.07,-25.02 278.98,-27.73"/>
</g>
<!-- richesse&#45;&#45;emploi -->
<g id="edge25" class="edge">
<title>richesse&#45;&#45;emploi</title>
<path fill="none" stroke="darkgrey" stroke-width="1.58" d="M292.18,-22.19C292.53,-33.95 293.1,-52.62 293.52,-66.5"/>
</g>
<!-- argent&#45;&#45;nickel -->
<g id="edge26" class="edge">
<title>argent&#45;&#45;nickel</title>
<path fill="none" stroke="darkgrey" stroke-width="3.96" d="M377.8,-133.28C368.31,-139.23 349.45,-151.05 332.95,-161.39"/>
</g>
<!-- argent&#45;&#45;emploi -->
<g id="edge27" class="edge">
<title>argent&#45;&#45;emploi</title>
<path fill="none" stroke="darkgrey" stroke-width="2.25" d="M377.48,-126.22C363.55,-119.29 330.36,-102.76 310.3,-92.77"/>
</g>
<!-- nickel&#45;&#45;montagne -->
<g id="edge28" class="edge">
<title>nickel&#45;&#45;montagne</title>
<path fill="none" stroke="darkgrey" stroke-width="3.04" d="M272.23,-160.73C233.31,-135.07 168.13,-92.1 148.25,-79"/>
</g>
<!-- nickel&#45;&#45;camion -->
<g id="edge29" class="edge">
<title>nickel&#45;&#45;camion</title>
<path fill="none" stroke="darkgrey" stroke-width="5.57" d="M304.35,-216.77C306.09,-248 308.5,-291.15 309.62,-311.33"/>
</g>
<!-- nickel&#45;&#45;économie -->
<g id="edge30" class="edge">
<title>nickel&#45;&#45;économie</title>
<path fill="none" stroke="darkgrey" stroke-width="6.35" d="M292.94,-145.61C286.15,-120.31 277.2,-86.96 271.49,-65.69"/>
</g>
<!-- nickel&#45;&#45;environnement -->
<g id="edge31" class="edge">
<title>nickel&#45;&#45;environnement</title>
<path fill="none" stroke="darkgrey" stroke-width="3.74" d="M310.94,-145.37C318.29,-115.35 328.55,-73.41 334.31,-49.88"/>
</g>
<!-- nickel&#45;&#45;emploi -->
<g id="edge33" class="edge">
<title>nickel&#45;&#45;emploi</title>
<path fill="none" stroke="darkgrey" stroke-width="5.98" d="M299.23,-144.6C298.01,-130.36 296.65,-114.61 295.64,-102.84"/>
</g>
<!-- nickel&#45;&#45;terre -->
<g id="edge34" class="edge">
<title>nickel&#45;&#45;terre</title>
<path fill="none" stroke="darkgrey" stroke-width="1.45" d="M267.26,-172.02C227.26,-162.26 164.69,-147 143.93,-141.94"/>
</g>
<!-- nickel&#45;&#45;usine -->
<g id="edge35" class="edge">
<title>nickel&#45;&#45;usine</title>
<path fill="none" stroke="darkgrey" stroke-width="5.02" d="M314.58,-214.63C320.15,-230.12 326.35,-247.36 330.21,-258.1"/>
</g>
<!-- nickel&#45;&#45;exploitation -->
<g id="edge36" class="edge">
<title>nickel&#45;&#45;exploitation</title>
<path fill="none" stroke="darkgrey" stroke-width="1.54" d="M285.96,-212.94C268.53,-247.4 241.98,-299.9 231.02,-321.57"/>
</g>
<!-- nickel&#45;&#45;ressource -->
<g id="edge38" class="edge">
<title>nickel&#45;&#45;ressource</title>
<path fill="none" stroke="darkgrey" stroke-width="1.51" d="M276.63,-205.84C250.03,-232 210.46,-270.9 196.56,-284.57"/>
</g>
<!-- nickel&#45;&#45;minerai -->
<g id="edge39" class="edge">
<title>nickel&#45;&#45;minerai</title>
<path fill="none" stroke="darkgrey" stroke-width="4.46" d="M289.48,-214.3C281.3,-235.77 271.24,-262.15 265.75,-276.55"/>
</g>
<!-- nickel&#45;&#45;terre rouge -->
<g id="edge32" class="edge">
<title>nickel&#45;&#45;terre rouge</title>
<path fill="none" stroke="darkgrey" stroke-width="2.02" d="M338.3,-183.96C374.95,-187.41 428.4,-192.44 442.71,-193.79"/>
</g>
<!-- nickel&#45;&#45;sln -->
<g id="edge37" class="edge">
<title>nickel&#45;&#45;sln</title>
<path fill="none" stroke="darkgrey" stroke-width="6.15" d="M325.35,-208.54C351.77,-240.63 393.25,-291.02 407.31,-308.09"/>
</g>
<!-- nickel&#45;&#45;goro -->
<g id="edge40" class="edge">
<title>nickel&#45;&#45;goro</title>
<path fill="none" stroke="darkgrey" stroke-width="1.16" d="M334.81,-196.74C379.98,-219.22 457.08,-257.59 464.21,-261.14"/>
</g>
<!-- camion&#45;&#45;usine -->
<g id="edge41" class="edge">
<title>camion&#45;&#45;usine</title>
<path fill="none" stroke="darkgrey" stroke-width="1.55" d="M314.83,-312.18C319.04,-302.63 325.24,-288.56 329.44,-279.03"/>
</g>
<!-- camion&#45;&#45;minerai -->
<g id="edge42" class="edge">
<title>camion&#45;&#45;minerai</title>
<path fill="none" stroke="darkgrey" stroke-width="1.04" d="M301.34,-316.08C292.7,-309.77 279.62,-300.23 270.88,-293.85"/>
</g>
<!-- économie&#45;&#45;environnement -->
<g id="edge43" class="edge">
<title>économie&#45;&#45;environnement</title>
<path fill="none" stroke="darkgrey" stroke-width="8.61" d="M287.33,-41.04C297.89,-39.19 310.5,-36.98 320.57,-35.21"/>
</g>
<!-- économie&#45;&#45;emploi -->
<g id="edge44" class="edge">
<title>économie&#45;&#45;emploi</title>
<path fill="none" stroke="darkgrey" stroke-width="7.77" d="M278.33,-62.41C280.1,-64.92 281.91,-67.47 283.63,-69.91"/>
</g>
<!-- environnement&#45;&#45;emploi -->
<g id="edge45" class="edge">
<title>environnement&#45;&#45;emploi</title>
<path fill="none" stroke="darkgrey" stroke-width="3.62" d="M326.95,-45.88C320.45,-53.55 312.38,-63.08 305.87,-70.77"/>
</g>
<!-- emploi&#45;&#45;conflit -->
<g id="edge46" class="edge">
<title>emploi&#45;&#45;conflit</title>
<path fill="none" stroke="darkgrey" stroke-width="2.01" d="M276.66,-78.71C254.76,-71.18 218.24,-58.63 203.31,-53.5"/>
</g>
<!-- usine&#45;&#45;minerai -->
<g id="edge47" class="edge">
<title>usine&#45;&#45;minerai</title>
<path fill="none" stroke="darkgrey" stroke-width="2.73" d="M323.34,-271.39C309.67,-274.89 286.11,-280.92 272.42,-284.42"/>
</g>
<!-- exploitation&#45;&#45;ressource -->
<g id="edge48" class="edge">
<title>exploitation&#45;&#45;ressource</title>
<path fill="none" stroke="darkgrey" stroke-width="1.97" d="M218.71,-322.57C211.9,-314.3 201.96,-302.23 196.17,-295.2"/>
</g>
<!-- exploitation&#45;&#45;minerai -->
<g id="edge49" class="edge">
<title>exploitation&#45;&#45;minerai</title>
<path fill="none" stroke="darkgrey" stroke-width="2.06" d="M233.25,-322.49C239.52,-314.71 248.54,-303.5 254.74,-295.81"/>
</g>
<!-- ressource&#45;&#45;minerai -->
<g id="edge50" class="edge">
<title>ressource&#45;&#45;minerai</title>
<path fill="none" stroke="darkgrey" stroke-width="1.44" d="M198.75,-289.29C211.02,-288.88 235.93,-288.03 250.47,-287.54"/>
</g>
<!-- pollution -->
<g id="node1" class="node">
<title>pollution</title>
<ellipse fill="#fac026" stroke="white" stroke-width="0" cx="229.7" cy="-170.38" rx="32.5" ry="32.5"/>
<text text-anchor="middle" x="178.7" y="-205.48" font-family="Helvetica,sans-Serif" font-size="8.00" fill="#4d4d4d">pollution</text>
</g>
<!-- travail -->
<g id="node2" class="node">
<title>travail</title>
<ellipse fill="#9f2a63" stroke="white" stroke-width="0" cx="361.13" cy="-67.04" rx="14.5" ry="14.5"/>
<text text-anchor="middle" x="333.63" y="-84.14" font-family="Helvetica,sans-Serif" font-size="8.00" fill="#4d4d4d">travail</text>
</g>
<!-- richesse -->
<g id="node3" class="node">
<title>richesse</title>
<ellipse fill="#69166e" stroke="white" stroke-width="0" cx="291.83" cy="-11" rx="11" ry="11"/>
<text text-anchor="middle" x="263.33" y="-2.6" font-family="Helvetica,sans-Serif" font-size="8.00" fill="#4d4d4d">richesse</text>
</g>
<!-- destruction -->
<g id="node4" class="node">
<title>destruction</title>
<ellipse fill="#380962" stroke="white" stroke-width="0" cx="59.07" cy="-174.58" rx="7" ry="7"/>
<text text-anchor="middle" x="28.57" y="-184.18" font-family="Helvetica,sans-Serif" font-size="8.00" fill="#4d4d4d">destruction</text>
</g>
<!-- argent -->
<g id="node5" class="node">
<title>argent</title>
<ellipse fill="#4f0d6c" stroke="white" stroke-width="0" cx="383.94" cy="-129.44" rx="7" ry="7"/>
<text text-anchor="middle" x="362.94" y="-139.04" font-family="Helvetica,sans-Serif" font-size="8.00" fill="#4d4d4d">argent</text>
</g>
<!-- nickel -->
<g id="node6" class="node">
<title>nickel</title>
<ellipse fill="#fcffa4" stroke="white" stroke-width="0" cx="302.33" cy="-180.57" rx="36" ry="36"/>
<text text-anchor="middle" x="254.33" y="-219.17" font-family="Helvetica,sans-Serif" font-size="8.00" fill="#4d4d4d">nickel</text>
</g>
<!-- montagne -->
<g id="node7" class="node">
<title>montagne</title>
<ellipse fill="#3e0966" stroke="white" stroke-width="0" cx="142.32" cy="-75.09" rx="7" ry="7"/>
<text text-anchor="middle" x="113.82" y="-84.69" font-family="Helvetica,sans-Serif" font-size="8.00" fill="#4d4d4d">montagne</text>
</g>
<!-- camion -->
<g id="node8" class="node">
<title>camion</title>
<ellipse fill="#6d186e" stroke="white" stroke-width="0" cx="310.25" cy="-322.57" rx="11" ry="11"/>
<text text-anchor="middle" x="283.75" y="-336.17" font-family="Helvetica,sans-Serif" font-size="8.00" fill="#4d4d4d">camion</text>
</g>
<!-- économie -->
<g id="node9" class="node">
<title>économie</title>
<ellipse fill="#d54a41" stroke="white" stroke-width="0" cx="265.88" cy="-44.8" rx="21.5" ry="21.5"/>
<text text-anchor="middle" x="223.88" y="-68.9" font-family="Helvetica,sans-Serif" font-size="8.00" fill="#4d4d4d">économie</text>
</g>
<!-- environnement -->
<g id="node10" class="node">
<title>environnement</title>
<ellipse fill="#b0315b" stroke="white" stroke-width="0" cx="338.67" cy="-32.04" rx="18" ry="18"/>
<text text-anchor="middle" x="351.67" y="-7.64" font-family="Helvetica,sans-Serif" font-size="8.00" fill="#4d4d4d">environnement</text>
</g>
<!-- emploi -->
<g id="node11" class="node">
<title>emploi</title>
<ellipse fill="#b3325a" stroke="white" stroke-width="0" cx="294.08" cy="-84.69" rx="18" ry="18"/>
<text text-anchor="middle" x="262.08" y="-105.29" font-family="Helvetica,sans-Serif" font-size="8.00" fill="#4d4d4d">emploi</text>
</g>
<!-- terre -->
<g id="node12" class="node">
<title>terre</title>
<ellipse fill="#380962" stroke="white" stroke-width="0" cx="136.97" cy="-140.24" rx="7" ry="7"/>
<text text-anchor="middle" x="120.47" y="-149.84" font-family="Helvetica,sans-Serif" font-size="8.00" fill="#4d4d4d">terre</text>
</g>
<!-- usine -->
<g id="node13" class="node">
<title>usine</title>
<ellipse fill="#540f6d" stroke="white" stroke-width="0" cx="334.01" cy="-268.66" rx="11" ry="11"/>
<text text-anchor="middle" x="311.51" y="-282.26" font-family="Helvetica,sans-Serif" font-size="8.00" fill="#4d4d4d">usine</text>
</g>
<!-- exploitation -->
<g id="node14" class="node">
<title>exploitation</title>
<ellipse fill="#5a116e" stroke="white" stroke-width="0" cx="226.03" cy="-331.46" rx="11" ry="11"/>
<text text-anchor="middle" x="190.53" y="-345.06" font-family="Helvetica,sans-Serif" font-size="8.00" fill="#4d4d4d">exploitation</text>
</g>
<!-- ressource -->
<g id="node15" class="node">
<title>ressource</title>
<ellipse fill="#470b6a" stroke="white" stroke-width="0" cx="191.51" cy="-289.54" rx="7" ry="7"/>
<text text-anchor="middle" x="164.51" y="-299.14" font-family="Helvetica,sans-Serif" font-size="8.00" fill="#4d4d4d">ressource</text>
</g>
<!-- conflit -->
<g id="node16" class="node">
<title>conflit</title>
<ellipse fill="#380962" stroke="white" stroke-width="0" cx="196.64" cy="-51.21" rx="7" ry="7"/>
<text text-anchor="middle" x="176.64" y="-60.81" font-family="Helvetica,sans-Serif" font-size="8.00" fill="#4d4d4d">conflit</text>
</g>
<!-- développement -->
<g id="node17" class="node">
<title>développement</title>
<ellipse fill="#060419" stroke="white" stroke-width="0" cx="110.74" cy="-282.97" rx="3.5" ry="3.5"/>
<text text-anchor="middle" x="74.74" y="-289.07" font-family="Helvetica,sans-Serif" font-size="8.00" fill="#4d4d4d">développement</text>
</g>
<!-- minerai -->
<g id="node18" class="node">
<title>minerai</title>
<ellipse fill="#540f6d" stroke="white" stroke-width="0" cx="261.71" cy="-287.16" rx="11" ry="11"/>
<text text-anchor="middle" x="235.21" y="-300.76" font-family="Helvetica,sans-Serif" font-size="8.00" fill="#4d4d4d">minerai</text>
</g>
<!-- déforestation -->
<g id="node19" class="node">
<title>déforestation</title>
<ellipse fill="#10092d" stroke="white" stroke-width="0" cx="58.5" cy="-247.6" rx="3.5" ry="3.5"/>
<text text-anchor="middle" x="27.5" y="-253.7" font-family="Helvetica,sans-Serif" font-size="8.00" fill="#4d4d4d">déforestation</text>
</g>
<!-- terre rouge -->
<g id="node20" class="node">
<title>terre rouge</title>
<ellipse fill="#040312" stroke="white" stroke-width="0" cx="446.34" cy="-194.13" rx="3.5" ry="3.5"/>
<text text-anchor="middle" x="420.34" y="-200.23" font-family="Helvetica,sans-Serif" font-size="8.00" fill="#4d4d4d">terre rouge</text>
</g>
<!-- sln -->
<g id="node21" class="node">
<title>sln</title>
<ellipse fill="#3e0966" stroke="white" stroke-width="0" cx="412.15" cy="-313.97" rx="7" ry="7"/>
<text text-anchor="middle" x="398.65" y="-323.57" font-family="Helvetica,sans-Serif" font-size="8.00" fill="#4d4d4d">sln</text>
</g>
<!-- goro -->
<g id="node22" class="node">
<title>goro</title>
<ellipse fill="#000004" stroke="white" stroke-width="0" cx="464.74" cy="-261.41" rx="0.5" ry="0.5"/>
<text text-anchor="middle" x="454.74" y="-264.51" font-family="Helvetica,sans-Serif" font-size="8.00" fill="#4d4d4d">goro</text>
</g>
</g>
</svg>
