<?xml version="1.0" encoding="UTF-8" standalone="no"?>
<!DOCTYPE svg PUBLIC "-//W3C//DTD SVG 1.1//EN"
 "http://www.w3.org/Graphics/SVG/1.1/DTD/svg11.dtd">
<!-- Generated by graphviz version 2.43.0 (0)
 -->
<!-- Pages: 1 -->
<svg width="350pt" height="332pt"
 viewBox="0.00 0.00 350.05 332.18" xmlns="http://www.w3.org/2000/svg" xmlns:xlink="http://www.w3.org/1999/xlink">
<g id="graph0" class="graph" transform="scale(1 1) rotate(0) translate(4 328.18)">
<polygon fill="white" stroke="transparent" points="-4,4 -4,-328.18 346.05,-328.18 346.05,4 -4,4"/>
<!-- pollution&#45;&#45;épuisement -->
<g id="edge1" class="edge">
<title>pollution&#45;&#45;épuisement</title>
<path fill="none" stroke="darkgrey" d="M169.48,-155.76C126.22,-155.24 58.62,-154.44 50.34,-154.34"/>
</g>
<!-- pollution&#45;&#45;environnement -->
<g id="edge2" class="edge">
<title>pollution&#45;&#45;environnement</title>
<path fill="none" stroke="darkgrey" stroke-width="3.1" d="M194.89,-121.59C183.7,-85.78 167.04,-32.51 161.19,-13.8"/>
</g>
<!-- pollution&#45;&#45;destruction -->
<g id="edge3" class="edge">
<title>pollution&#45;&#45;destruction</title>
<path fill="none" stroke="darkgrey" stroke-width="10" d="M235.31,-135.23C270.64,-110.2 325.86,-71.08 332.62,-66.29"/>
</g>
<!-- pollution&#45;&#45;économie -->
<g id="edge4" class="edge">
<title>pollution&#45;&#45;économie</title>
<path fill="none" stroke="darkgrey" stroke-width="7.5" d="M194.07,-190.51C182.77,-223.82 166.31,-272.34 159.11,-293.57"/>
</g>
<!-- pollution&#45;&#45;emploi -->
<g id="edge5" class="edge">
<title>pollution&#45;&#45;emploi</title>
<path fill="none" stroke="darkgrey" stroke-width="7.74" d="M234.78,-177.86C262.99,-198.89 304.08,-229.52 322.06,-242.93"/>
</g>
<!-- pollution -->
<g id="node1" class="node">
<title>pollution</title>
<ellipse fill="#fcffa4" stroke="white" stroke-width="0" cx="205.71" cy="-156.19" rx="36" ry="36"/>
<text text-anchor="middle" x="151.21" y="-194.79" font-family="Helvetica,sans-Serif" font-size="8.00" fill="#4d4d4d">pollution</text>
</g>
<!-- épuisement -->
<g id="node2" class="node">
<title>épuisement</title>
<ellipse fill="#02020e" stroke="white" stroke-width="0" cx="49.5" cy="-154.33" rx="0.5" ry="0.5"/>
<text text-anchor="middle" x="24.5" y="-157.43" font-family="Helvetica,sans-Serif" font-size="8.00" fill="#4d4d4d">épuisement</text>
</g>
<!-- environnement -->
<g id="node3" class="node">
<title>environnement</title>
<ellipse fill="#490b6a" stroke="white" stroke-width="0" cx="159.06" cy="-7" rx="7" ry="7"/>
<text text-anchor="middle" x="121.06" y="-16.6" font-family="Helvetica,sans-Serif" font-size="8.00" fill="#4d4d4d">environnement</text>
</g>
<!-- destruction -->
<g id="node4" class="node">
<title>destruction</title>
<ellipse fill="#000004" stroke="white" stroke-width="0" cx="333.31" cy="-65.81" rx="0.5" ry="0.5"/>
<text text-anchor="middle" x="309.31" y="-68.91" font-family="Helvetica,sans-Serif" font-size="8.00" fill="#4d4d4d">destruction</text>
</g>
<!-- économie -->
<g id="node5" class="node">
<title>économie</title>
<ellipse fill="#6c186e" stroke="white" stroke-width="0" cx="155.51" cy="-304.18" rx="11" ry="11"/>
<text text-anchor="middle" x="124.01" y="-317.78" font-family="Helvetica,sans-Serif" font-size="8.00" fill="#4d4d4d">économie</text>
</g>
<!-- emploi -->
<g id="node6" class="node">
<title>emploi</title>
<ellipse fill="#520e6d" stroke="white" stroke-width="0" cx="331.05" cy="-249.63" rx="11" ry="11"/>
<text text-anchor="middle" x="306.05" y="-263.23" font-family="Helvetica,sans-Serif" font-size="8.00" fill="#4d4d4d">emploi</text>
</g>
</g>
</svg>
