<?xml version="1.0" encoding="UTF-8" standalone="no"?>
<!DOCTYPE svg PUBLIC "-//W3C//DTD SVG 1.1//EN"
 "http://www.w3.org/Graphics/SVG/1.1/DTD/svg11.dtd">
<!-- Generated by graphviz version 2.43.0 (0)
 -->
<!-- Pages: 1 -->
<svg width="718pt" height="482pt"
 viewBox="0.00 0.00 718.29 482.47" xmlns="http://www.w3.org/2000/svg" xmlns:xlink="http://www.w3.org/1999/xlink">
<g id="graph0" class="graph" transform="scale(1 1) rotate(0) translate(4 478.47)">
<polygon fill="white" stroke="transparent" points="-4,4 -4,-478.47 714.29,-478.47 714.29,4 -4,4"/>
<!-- pollution&#45;&#45;travail -->
<g id="edge1" class="edge">
<title>pollution&#45;&#45;travail</title>
<path fill="none" stroke="darkgrey" stroke-width="7.32" d="M446.15,-275.28C430.89,-305.92 407.58,-352.72 396.28,-375.42"/>
</g>
<!-- pollution&#45;&#45;richesse -->
<g id="edge2" class="edge">
<title>pollution&#45;&#45;richesse</title>
<path fill="none" stroke="darkgrey" stroke-width="3.56" d="M470.01,-277.36C471.59,-282.68 473.13,-287.86 474.41,-292.13"/>
</g>
<!-- pollution&#45;&#45;destruction -->
<g id="edge3" class="edge">
<title>pollution&#45;&#45;destruction</title>
<path fill="none" stroke="darkgrey" stroke-width="5.45" d="M490.28,-259.76C516.34,-271.82 552.35,-288.49 566.85,-295.2"/>
</g>
<!-- pollution&#45;&#45;argent -->
<g id="edge4" class="edge">
<title>pollution&#45;&#45;argent</title>
<path fill="none" stroke="darkgrey" stroke-width="3.51" d="M431.85,-261.34C397.89,-279.31 343.3,-308.2 321.04,-319.98"/>
</g>
<!-- pollution&#45;&#45;nickel -->
<g id="edge5" class="edge">
<title>pollution&#45;&#45;nickel</title>
<path fill="none" stroke="darkgrey" stroke-width="9.56" d="M428.43,-241.45C413.29,-239.28 395.19,-236.68 379.62,-234.45"/>
</g>
<!-- pollution&#45;&#45;nature -->
<g id="edge6" class="edge">
<title>pollution&#45;&#45;nature</title>
<path fill="none" stroke="darkgrey" stroke-width="1.03" d="M488.82,-229.38C543.07,-197.17 657.79,-129.06 668.42,-122.74"/>
</g>
<!-- pollution&#45;&#45;montagne -->
<g id="edge7" class="edge">
<title>pollution&#45;&#45;montagne</title>
<path fill="none" stroke="darkgrey" stroke-width="2.1" d="M429.4,-255.12C382.72,-268.6 297.69,-293.17 272.87,-300.34"/>
</g>
<!-- pollution&#45;&#45;camion -->
<g id="edge8" class="edge">
<title>pollution&#45;&#45;camion</title>
<path fill="none" stroke="darkgrey" stroke-width="3.9" d="M430.6,-233.54C393.64,-218.13 332.88,-192.81 308.89,-182.82"/>
</g>
<!-- pollution&#45;&#45;économie -->
<g id="edge9" class="edge">
<title>pollution&#45;&#45;économie</title>
<path fill="none" stroke="darkgrey" stroke-width="8.79" d="M429.6,-255.74C428.64,-256.04 427.69,-256.34 426.75,-256.63"/>
</g>
<!-- pollution&#45;&#45;environnement -->
<g id="edge10" class="edge">
<title>pollution&#45;&#45;environnement</title>
<path fill="none" stroke="darkgrey" stroke-width="6.87" d="M473.68,-276.16C481.98,-295.38 492.42,-319.57 499.25,-335.41"/>
</g>
<!-- pollution&#45;&#45;emploi -->
<g id="edge11" class="edge">
<title>pollution&#45;&#45;emploi</title>
<path fill="none" stroke="darkgrey" stroke-width="10" d="M455.83,-278.22C452.58,-299.64 448.44,-326.99 445.77,-344.65"/>
</g>
<!-- pollution&#45;&#45;terre -->
<g id="edge12" class="edge">
<title>pollution&#45;&#45;terre</title>
<path fill="none" stroke="darkgrey" stroke-width="1.99" d="M436.21,-267.49C413.53,-287.32 381.47,-315.35 368.96,-326.29"/>
</g>
<!-- pollution&#45;&#45;usine -->
<g id="edge13" class="edge">
<title>pollution&#45;&#45;usine</title>
<path fill="none" stroke="darkgrey" stroke-width="2.31" d="M439.77,-221.07C413.36,-189.52 369.32,-136.9 352.21,-116.47"/>
</g>
<!-- pollution&#45;&#45;érosion -->
<g id="edge14" class="edge">
<title>pollution&#45;&#45;érosion</title>
<path fill="none" stroke="darkgrey" stroke-width="1.04" d="M493.26,-242.72C558.14,-236.02 698.27,-221.57 709.12,-220.45"/>
</g>
<!-- pollution&#45;&#45;exploitation -->
<g id="edge15" class="edge">
<title>pollution&#45;&#45;exploitation</title>
<path fill="none" stroke="darkgrey" stroke-width="2.15" d="M466.12,-213.9C468.55,-199.5 471.25,-183.47 472.99,-173.14"/>
</g>
<!-- pollution&#45;&#45;sln -->
<g id="edge16" class="edge">
<title>pollution&#45;&#45;sln</title>
<path fill="none" stroke="darkgrey" stroke-width="1.14" d="M463.93,-213.57C467.63,-176.46 473.43,-118.27 475.44,-98.16"/>
</g>
<!-- pollution&#45;&#45;ressource -->
<g id="edge17" class="edge">
<title>pollution&#45;&#45;ressource</title>
<path fill="none" stroke="darkgrey" stroke-width="1.73" d="M491.13,-234.38C499.2,-231.28 507.17,-228.22 512.6,-226.14"/>
</g>
<!-- pollution&#45;&#45;conflit -->
<g id="edge18" class="edge">
<title>pollution&#45;&#45;conflit</title>
<path fill="none" stroke="darkgrey" stroke-width="2.61" d="M464.42,-278.46C470.06,-327.54 480.43,-417.76 483.39,-443.46"/>
</g>
<!-- pollution&#45;&#45;développement -->
<g id="edge19" class="edge">
<title>pollution&#45;&#45;développement</title>
<path fill="none" stroke="darkgrey" stroke-width="3.12" d="M486.05,-266.45C533.12,-304.26 630.87,-382.8 648.78,-397.19"/>
</g>
<!-- pollution&#45;&#45;minerai -->
<g id="edge20" class="edge">
<title>pollution&#45;&#45;minerai</title>
<path fill="none" stroke="darkgrey" stroke-width="1.97" d="M449.36,-215.31C438.14,-184.84 421.58,-139.88 414.11,-119.6"/>
</g>
<!-- pollution&#45;&#45;déforestation -->
<g id="edge21" class="edge">
<title>pollution&#45;&#45;déforestation</title>
<path fill="none" stroke="darkgrey" stroke-width="2.84" d="M431.71,-230.35C377.91,-201.15 266.19,-140.52 245.71,-129.41"/>
</g>
<!-- travail&#45;&#45;richesse -->
<g id="edge22" class="edge">
<title>travail&#45;&#45;richesse</title>
<path fill="none" stroke="darkgrey" stroke-width="2.72" d="M400.1,-378.49C417.74,-361.23 453.12,-326.6 469.22,-310.84"/>
</g>
<!-- travail&#45;&#45;argent -->
<g id="edge23" class="edge">
<title>travail&#45;&#45;argent</title>
<path fill="none" stroke="darkgrey" stroke-width="1.11" d="M378.08,-379.33C362.2,-366.51 334.04,-343.76 319.83,-332.28"/>
</g>
<!-- travail&#45;&#45;nickel -->
<g id="edge24" class="edge">
<title>travail&#45;&#45;nickel</title>
<path fill="none" stroke="darkgrey" stroke-width="4.15" d="M385.6,-374.55C378.51,-349.94 363.72,-298.58 353.76,-264.01"/>
</g>
<!-- travail&#45;&#45;économie -->
<g id="edge25" class="edge">
<title>travail&#45;&#45;économie</title>
<path fill="none" stroke="darkgrey" stroke-width="3.79" d="M391.56,-374.28C394.45,-352.23 399.99,-310 403.35,-284.39"/>
</g>
<!-- travail&#45;&#45;environnement -->
<g id="edge26" class="edge">
<title>travail&#45;&#45;environnement</title>
<path fill="none" stroke="darkgrey" stroke-width="3.61" d="M403.52,-384.35C424.91,-377.64 465.92,-364.77 489.2,-357.47"/>
</g>
<!-- travail&#45;&#45;terre -->
<g id="edge27" class="edge">
<title>travail&#45;&#45;terre</title>
<path fill="none" stroke="darkgrey" stroke-width="1.4" d="M383.64,-375.29C378.3,-363.43 370.73,-346.61 366.61,-337.47"/>
</g>
<!-- richesse&#45;&#45;destruction -->
<g id="edge28" class="edge">
<title>richesse&#45;&#45;destruction</title>
<path fill="none" stroke="darkgrey" stroke-width="1.16" d="M488.91,-302.16C508.92,-301.21 549.89,-299.28 566.28,-298.51"/>
</g>
<!-- richesse&#45;&#45;nickel -->
<g id="edge29" class="edge">
<title>richesse&#45;&#45;nickel</title>
<path fill="none" stroke="darkgrey" stroke-width="3.17" d="M467.49,-297.18C448.23,-286.61 405.39,-263.11 375.56,-246.74"/>
</g>
<!-- richesse&#45;&#45;économie -->
<g id="edge30" class="edge">
<title>richesse&#45;&#45;économie</title>
<path fill="none" stroke="darkgrey" stroke-width="2.55" d="M467.92,-297.34C456.96,-291.25 438.79,-281.16 424.98,-273.49"/>
</g>
<!-- richesse&#45;&#45;environnement -->
<g id="edge31" class="edge">
<title>richesse&#45;&#45;environnement</title>
<path fill="none" stroke="darkgrey" stroke-width="1.53" d="M483.12,-312.21C487.12,-319.05 492.6,-328.42 497.25,-336.35"/>
</g>
<!-- richesse&#45;&#45;emploi -->
<g id="edge32" class="edge">
<title>richesse&#45;&#45;emploi</title>
<path fill="none" stroke="darkgrey" stroke-width="2.27" d="M472.01,-312.31C466.67,-321.57 458.51,-335.74 452.21,-346.68"/>
</g>
<!-- richesse&#45;&#45;terre -->
<g id="edge33" class="edge">
<title>richesse&#45;&#45;terre</title>
<path fill="none" stroke="darkgrey" stroke-width="1.36" d="M466.63,-305.4C443.47,-311.14 389.97,-324.4 370.72,-329.17"/>
</g>
<!-- richesse&#45;&#45;exploitation -->
<g id="edge34" class="edge">
<title>richesse&#45;&#45;exploitation</title>
<path fill="none" stroke="darkgrey" stroke-width="1.31" d="M477.33,-291.67C476.83,-265.55 475.56,-200.07 475.05,-173.6"/>
</g>
<!-- richesse&#45;&#45;ressource -->
<g id="edge35" class="edge">
<title>richesse&#45;&#45;ressource</title>
<path fill="none" stroke="darkgrey" stroke-width="1.08" d="M482.86,-292.66C491.59,-276.18 508.74,-243.81 516.06,-229.99"/>
</g>
<!-- destruction&#45;&#45;nickel -->
<g id="edge36" class="edge">
<title>destruction&#45;&#45;nickel</title>
<path fill="none" stroke="darkgrey" stroke-width="1.23" d="M566.17,-296.04C538.1,-287.62 433.93,-256.36 378.69,-239.78"/>
</g>
<!-- destruction&#45;&#45;environnement -->
<g id="edge37" class="edge">
<title>destruction&#45;&#45;environnement</title>
<path fill="none" stroke="darkgrey" stroke-width="1.01" d="M567.59,-302.77C557.3,-311.07 535.32,-328.78 520.71,-340.56"/>
</g>
<!-- argent&#45;&#45;nickel -->
<g id="edge38" class="edge">
<title>argent&#45;&#45;nickel</title>
<path fill="none" stroke="darkgrey" stroke-width="4.45" d="M314.73,-314.6C318.91,-302.31 326.01,-281.45 332.15,-263.44"/>
</g>
<!-- argent&#45;&#45;emploi -->
<g id="edge39" class="edge">
<title>argent&#45;&#45;emploi</title>
<path fill="none" stroke="darkgrey" stroke-width="2.88" d="M321.9,-328.29C344.68,-334.74 397.8,-349.78 425.52,-357.62"/>
</g>
<!-- nickel&#45;&#45;montagne -->
<g id="edge41" class="edge">
<title>nickel&#45;&#45;montagne</title>
<path fill="none" stroke="darkgrey" stroke-width="3.61" d="M317.4,-254.03C300.64,-269.76 280.38,-288.76 271.06,-297.51"/>
</g>
<!-- nickel&#45;&#45;camion -->
<g id="edge42" class="edge">
<title>nickel&#45;&#45;camion</title>
<path fill="none" stroke="darkgrey" stroke-width="5.93" d="M319.65,-202.15C314.79,-196.69 310.03,-191.33 306.28,-187.11"/>
</g>
<!-- nickel&#45;&#45;économie -->
<g id="edge43" class="edge">
<title>nickel&#45;&#45;économie</title>
<path fill="none" stroke="darkgrey" stroke-width="6.65" d="M375.69,-246.56C379.53,-248.64 383.35,-250.7 386.93,-252.64"/>
</g>
<!-- nickel&#45;&#45;environnement -->
<g id="edge44" class="edge">
<title>nickel&#45;&#45;environnement</title>
<path fill="none" stroke="darkgrey" stroke-width="4.25" d="M372.85,-251.25C407.76,-277.59 464.94,-320.74 491.73,-340.96"/>
</g>
<!-- nickel&#45;&#45;emploi -->
<g id="edge47" class="edge">
<title>nickel&#45;&#45;emploi</title>
<path fill="none" stroke="darkgrey" stroke-width="6.31" d="M365.31,-258.22C385.96,-285.94 416.27,-326.63 432.26,-348.1"/>
</g>
<!-- nickel&#45;&#45;terre -->
<g id="edge48" class="edge">
<title>nickel&#45;&#45;terre</title>
<path fill="none" stroke="darkgrey" stroke-width="2.15" d="M350.73,-264.84C354.94,-286.36 359.94,-311.91 362.3,-323.97"/>
</g>
<!-- nickel&#45;&#45;usine -->
<g id="edge49" class="edge">
<title>nickel&#45;&#45;usine</title>
<path fill="none" stroke="darkgrey" stroke-width="5.43" d="M344.17,-193.24C344.45,-167.95 344.81,-135.81 345,-119.15"/>
</g>
<!-- nickel&#45;&#45;exploitation -->
<g id="edge50" class="edge">
<title>nickel&#45;&#45;exploitation</title>
<path fill="none" stroke="darkgrey" stroke-width="2.23" d="M375.83,-212.9C404.93,-198.01 446.07,-176.96 464.82,-167.37"/>
</g>
<!-- nickel&#45;&#45;sln -->
<g id="edge51" class="edge">
<title>nickel&#45;&#45;sln</title>
<path fill="none" stroke="darkgrey" stroke-width="6.46" d="M368.67,-203.3C400.72,-169.81 454.29,-113.86 471.01,-96.41"/>
</g>
<!-- nickel&#45;&#45;ressource -->
<g id="edge52" class="edge">
<title>nickel&#45;&#45;ressource</title>
<path fill="none" stroke="darkgrey" stroke-width="2.21" d="M379.75,-228.11C422.33,-226.7 490.23,-224.45 512.31,-223.72"/>
</g>
<!-- nickel&#45;&#45;minerai -->
<g id="edge53" class="edge">
<title>nickel&#45;&#45;minerai</title>
<path fill="none" stroke="darkgrey" stroke-width="4.91" d="M361.22,-197.69C375.75,-171.37 395.53,-135.56 404.88,-118.62"/>
</g>
<!-- nickel&#45;&#45;déforestation -->
<g id="edge54" class="edge">
<title>nickel&#45;&#45;déforestation</title>
<path fill="none" stroke="darkgrey" stroke-width="1.47" d="M318.2,-203.65C292.41,-177.77 255,-140.24 245,-130.19"/>
</g>
<!-- nickel&#45;&#45;extraction -->
<g id="edge40" class="edge">
<title>nickel&#45;&#45;extraction</title>
<path fill="none" stroke="darkgrey" stroke-width="1.68" d="M316.78,-253.61C266.54,-298.86 162.87,-392.23 153.26,-400.88"/>
</g>
<!-- nickel&#45;&#45;caillou -->
<g id="edge45" class="edge">
<title>nickel&#45;&#45;caillou</title>
<path fill="none" stroke="darkgrey" stroke-width="1.47" d="M320.13,-201.62C281.47,-156.32 207.53,-69.69 192.91,-52.56"/>
</g>
<!-- nickel&#45;&#45;terre rouge -->
<g id="edge46" class="edge">
<title>nickel&#45;&#45;terre rouge</title>
<path fill="none" stroke="darkgrey" stroke-width="2.67" d="M307.7,-231.29C250.37,-234.46 142.71,-240.4 121.44,-241.58"/>
</g>
<!-- nickel&#45;&#45;goro -->
<g id="edge55" class="edge">
<title>nickel&#45;&#45;goro</title>
<path fill="none" stroke="darkgrey" stroke-width="1.88" d="M362.01,-197.97C396.79,-138.24 469.73,-12.98 476.49,-1.37"/>
</g>
<!-- nickel&#45;&#45;exportation -->
<g id="edge56" class="edge">
<title>nickel&#45;&#45;exportation</title>
<path fill="none" stroke="darkgrey" stroke-width="1.06" d="M309.34,-240.7C244.77,-262.08 109.83,-306.75 86.1,-314.61"/>
</g>
<!-- montagne&#45;&#45;camion -->
<g id="edge57" class="edge">
<title>montagne&#45;&#45;camion</title>
<path fill="none" stroke="darkgrey" stroke-width="1.69" d="M267.75,-295.34C273.23,-274.68 289.33,-213.92 295.88,-189.2"/>
</g>
<!-- montagne&#45;&#45;économie -->
<g id="edge58" class="edge">
<title>montagne&#45;&#45;économie</title>
<path fill="none" stroke="darkgrey" d="M272.66,-300.46C292.8,-294.81 352.95,-277.95 385.19,-268.91"/>
</g>
<!-- montagne&#45;&#45;terre -->
<g id="edge59" class="edge">
<title>montagne&#45;&#45;terre</title>
<path fill="none" stroke="darkgrey" stroke-width="1.63" d="M272.61,-304.32C290.47,-309.54 338.98,-323.71 356.9,-328.95"/>
</g>
<!-- camion&#45;&#45;économie -->
<g id="edge60" class="edge">
<title>camion&#45;&#45;économie</title>
<path fill="none" stroke="darkgrey" stroke-width="1.13" d="M307.49,-185.48C325.33,-199.51 366.06,-231.52 389.23,-249.73"/>
</g>
<!-- camion&#45;&#45;terre -->
<g id="edge62" class="edge">
<title>camion&#45;&#45;terre</title>
<path fill="none" stroke="darkgrey" stroke-width="1.43" d="M303.16,-189.04C315.66,-218.35 350.75,-300.63 360.89,-324.41"/>
</g>
<!-- camion&#45;&#45;usine -->
<g id="edge63" class="edge">
<title>camion&#45;&#45;usine</title>
<path fill="none" stroke="darkgrey" stroke-width="2.24" d="M304.76,-169.34C313.61,-155.89 329.97,-131.03 338.9,-117.45"/>
</g>
<!-- camion&#45;&#45;minerai -->
<g id="edge64" class="edge">
<title>camion&#45;&#45;minerai</title>
<path fill="none" stroke="darkgrey" stroke-width="1.77" d="M308.2,-172.63C329.27,-159.49 379.67,-128.03 400.72,-114.9"/>
</g>
<!-- camion&#45;&#45;caillou -->
<g id="edge61" class="edge">
<title>camion&#45;&#45;caillou</title>
<path fill="none" stroke="darkgrey" stroke-width="1.63" d="M291.59,-170.1C270.12,-144.55 206.6,-68.91 192.96,-52.67"/>
</g>
<!-- économie&#45;&#45;environnement -->
<g id="edge65" class="edge">
<title>économie&#45;&#45;environnement</title>
<path fill="none" stroke="darkgrey" stroke-width="8.72" d="M422.27,-277.34C441.87,-294.74 474.6,-323.8 492.94,-340.07"/>
</g>
<!-- économie&#45;&#45;emploi -->
<g id="edge66" class="edge">
<title>économie&#45;&#45;emploi</title>
<path fill="none" stroke="darkgrey" stroke-width="7.95" d="M413.8,-283.66C420.6,-302 430.42,-328.49 436.77,-345.62"/>
</g>
<!-- économie&#45;&#45;usine -->
<g id="edge67" class="edge">
<title>économie&#45;&#45;usine</title>
<path fill="none" stroke="darkgrey" stroke-width="1.55" d="M398.18,-242.76C384.99,-209.28 359.13,-143.58 349.17,-118.27"/>
</g>
<!-- économie&#45;&#45;exploitation -->
<g id="edge68" class="edge">
<title>économie&#45;&#45;exploitation</title>
<path fill="none" stroke="darkgrey" stroke-width="1.08" d="M418.43,-245.01C433.17,-223.38 457.31,-187.96 468.62,-171.36"/>
</g>
<!-- économie&#45;&#45;sln -->
<g id="edge69" class="edge">
<title>économie&#45;&#45;sln</title>
<path fill="none" stroke="darkgrey" stroke-width="1.09" d="M414.32,-242.97C430.04,-204.33 463.82,-121.32 473.51,-97.53"/>
</g>
<!-- économie&#45;&#45;conflit -->
<g id="edge70" class="edge">
<title>économie&#45;&#45;conflit</title>
<path fill="none" stroke="darkgrey" stroke-width="1.65" d="M414.51,-283.09C431.81,-324.64 470.84,-418.39 481.47,-443.93"/>
</g>
<!-- environnement&#45;&#45;emploi -->
<g id="edge71" class="edge">
<title>environnement&#45;&#45;emploi</title>
<path fill="none" stroke="darkgrey" stroke-width="4.14" d="M488.45,-355.05C479.81,-356.48 469.49,-358.19 460.87,-359.62"/>
</g>
<!-- environnement&#45;&#45;terre -->
<g id="edge72" class="edge">
<title>environnement&#45;&#45;terre</title>
<path fill="none" stroke="darkgrey" stroke-width="1.1" d="M488.36,-349.38C456.54,-344.67 391.91,-335.1 370.63,-331.95"/>
</g>
<!-- environnement&#45;&#45;ressource -->
<g id="edge73" class="edge">
<title>environnement&#45;&#45;ressource</title>
<path fill="none" stroke="darkgrey" stroke-width="1.22" d="M508.29,-333.91C511.21,-305.11 516.79,-250.21 518.78,-230.64"/>
</g>
<!-- environnement&#45;&#45;développement -->
<g id="edge74" class="edge">
<title>environnement&#45;&#45;développement</title>
<path fill="none" stroke="darkgrey" stroke-width="1.06" d="M523.67,-357.68C557.62,-368.77 631.36,-392.86 648.17,-398.35"/>
</g>
<!-- emploi&#45;&#45;ressource -->
<g id="edge75" class="edge">
<title>emploi&#45;&#45;ressource</title>
<path fill="none" stroke="darkgrey" stroke-width="1.01" d="M451.82,-346.63C468.61,-316.08 504.63,-250.56 515.99,-229.88"/>
</g>
<!-- emploi&#45;&#45;conflit -->
<g id="edge76" class="edge">
<title>emploi&#45;&#45;conflit</title>
<path fill="none" stroke="darkgrey" stroke-width="2.66" d="M450.79,-379.11C459.91,-398.6 474.65,-430.07 481.05,-443.76"/>
</g>
<!-- usine&#45;&#45;minerai -->
<g id="edge77" class="edge">
<title>usine&#45;&#45;minerai</title>
<path fill="none" stroke="darkgrey" stroke-width="3.32" d="M356.16,-108.16C368.06,-108.34 386.89,-108.63 398.89,-108.81"/>
</g>
<!-- exploitation&#45;&#45;ressource -->
<g id="edge78" class="edge">
<title>exploitation&#45;&#45;ressource</title>
<path fill="none" stroke="darkgrey" stroke-width="2.63" d="M481.42,-171.28C490.74,-184.06 507.5,-207.03 515.3,-217.72"/>
</g>
<!-- exploitation&#45;&#45;minerai -->
<g id="edge79" class="edge">
<title>exploitation&#45;&#45;minerai</title>
<path fill="none" stroke="darkgrey" stroke-width="2.7" d="M466.12,-155.06C453.71,-144.84 431.11,-126.21 418.78,-116.05"/>
</g>
<!-- sln&#45;&#45;goro -->
<g id="edge80" class="edge">
<title>sln&#45;&#45;goro</title>
<path fill="none" stroke="darkgrey" stroke-width="1.54" d="M476.22,-83.93C476.4,-63.92 476.92,-8.1 476.99,-1.2"/>
</g>
<!-- ressource&#45;&#45;minerai -->
<g id="edge81" class="edge">
<title>ressource&#45;&#45;minerai</title>
<path fill="none" stroke="darkgrey" stroke-width="2.14" d="M514.52,-218.27C497.15,-200.07 439.14,-139.3 418,-117.15"/>
</g>
<!-- pollution -->
<g id="node1" class="node">
<title>pollution</title>
<ellipse fill="#fac228" stroke="white" stroke-width="0" cx="460.7" cy="-246.08" rx="32.5" ry="32.5"/>
<text text-anchor="middle" x="486.2" y="-192.46" font-family="Helvetica,sans-Serif" font-size="26.40" fill="#4d4d4d">pollution</text>
</g>
<!-- travail -->
<g id="node2" class="node">
<title>travail</title>
<ellipse fill="#a02a63" stroke="white" stroke-width="0" cx="389.67" cy="-388.69" rx="14.5" ry="14.5"/>
<text text-anchor="middle" x="345.17" y="-408.47" font-family="Helvetica,sans-Serif" font-size="18.40" fill="#4d4d4d">travail</text>
</g>
<!-- richesse -->
<g id="node3" class="node">
<title>richesse</title>
<ellipse fill="#6a176e" stroke="white" stroke-width="0" cx="477.55" cy="-302.69" rx="11" ry="11"/>
<text text-anchor="middle" x="431.55" y="-318.25" font-family="Helvetica,sans-Serif" font-size="16.80" fill="#4d4d4d">richesse</text>
</g>
<!-- destruction -->
<g id="node4" class="node">
<title>destruction</title>
<ellipse fill="#390963" stroke="white" stroke-width="0" cx="573.29" cy="-298.18" rx="7" ry="7"/>
<text text-anchor="middle" x="609.79" y="-310.02" font-family="Helvetica,sans-Serif" font-size="15.20" fill="#4d4d4d">destruction</text>
</g>
<!-- argent -->
<g id="node5" class="node">
<title>argent</title>
<ellipse fill="#510e6c" stroke="white" stroke-width="0" cx="311.11" cy="-325.24" rx="11" ry="11"/>
<text text-anchor="middle" x="272.11" y="-340.8" font-family="Helvetica,sans-Serif" font-size="16.80" fill="#4d4d4d">argent</text>
</g>
<!-- nickel -->
<g id="node6" class="node">
<title>nickel</title>
<ellipse fill="#fcffa4" stroke="white" stroke-width="0" cx="343.77" cy="-229.3" rx="36" ry="36"/>
<text text-anchor="middle" x="266.77" y="-201.9" font-family="Helvetica,sans-Serif" font-size="28.00" fill="#4d4d4d">nickel</text>
</g>
<!-- nature -->
<g id="node7" class="node">
<title>nature</title>
<ellipse fill="#000004" stroke="white" stroke-width="0" cx="669.22" cy="-122.27" rx="0.5" ry="0.5"/>
<text text-anchor="middle" x="648.72" y="-126.17" font-family="Helvetica,sans-Serif" font-size="12.00" fill="#4d4d4d">nature</text>
</g>
<!-- montagne -->
<g id="node8" class="node">
<title>montagne</title>
<ellipse fill="#420a68" stroke="white" stroke-width="0" cx="265.89" cy="-302.35" rx="7" ry="7"/>
<text text-anchor="middle" x="219.89" y="-314.19" font-family="Helvetica,sans-Serif" font-size="15.20" fill="#4d4d4d">montagne</text>
</g>
<!-- camion -->
<g id="node9" class="node">
<title>camion</title>
<ellipse fill="#71196e" stroke="white" stroke-width="0" cx="298.7" cy="-178.57" rx="11" ry="11"/>
<text text-anchor="middle" x="256.7" y="-172.13" font-family="Helvetica,sans-Serif" font-size="16.80" fill="#4d4d4d">camion</text>
</g>
<!-- économie -->
<g id="node10" class="node">
<title>économie</title>
<ellipse fill="#d74b3f" stroke="white" stroke-width="0" cx="406.16" cy="-263.03" rx="21.5" ry="21.5"/>
<text text-anchor="middle" x="331.16" y="-291.25" font-family="Helvetica,sans-Serif" font-size="21.60" fill="#4d4d4d">économie</text>
</g>
<!-- environnement -->
<g id="node11" class="node">
<title>environnement</title>
<ellipse fill="#b1325a" stroke="white" stroke-width="0" cx="506.44" cy="-352.06" rx="18" ry="18"/>
<text text-anchor="middle" x="564.44" y="-376.06" font-family="Helvetica,sans-Serif" font-size="20.00" fill="#4d4d4d">environnement</text>
</g>
<!-- emploi -->
<g id="node12" class="node">
<title>emploi</title>
<ellipse fill="#b43359" stroke="white" stroke-width="0" cx="443.05" cy="-362.58" rx="18" ry="18"/>
<text text-anchor="middle" x="391.55" y="-350.58" font-family="Helvetica,sans-Serif" font-size="20.00" fill="#4d4d4d">emploi</text>
</g>
<!-- terre -->
<g id="node13" class="node">
<title>terre</title>
<ellipse fill="#390963" stroke="white" stroke-width="0" cx="363.66" cy="-330.92" rx="7" ry="7"/>
<text text-anchor="middle" x="338.16" y="-342.76" font-family="Helvetica,sans-Serif" font-size="15.20" fill="#4d4d4d">terre</text>
</g>
<!-- usine -->
<g id="node14" class="node">
<title>usine</title>
<ellipse fill="#57106e" stroke="white" stroke-width="0" cx="345.12" cy="-108" rx="11" ry="11"/>
<text text-anchor="middle" x="311.12" y="-123.56" font-family="Helvetica,sans-Serif" font-size="16.80" fill="#4d4d4d">usine</text>
</g>
<!-- érosion -->
<g id="node15" class="node">
<title>érosion</title>
<ellipse fill="#000004" stroke="white" stroke-width="0" cx="709.79" cy="-220.38" rx="0.5" ry="0.5"/>
<text text-anchor="middle" x="687.29" y="-224.28" font-family="Helvetica,sans-Serif" font-size="12.00" fill="#4d4d4d">érosion</text>
</g>
<!-- exploitation -->
<g id="node16" class="node">
<title>exploitation</title>
<ellipse fill="#5c126e" stroke="white" stroke-width="0" cx="474.83" cy="-162.24" rx="11" ry="11"/>
<text text-anchor="middle" x="413.83" y="-155.8" font-family="Helvetica,sans-Serif" font-size="16.80" fill="#4d4d4d">exploitation</text>
</g>
<!-- sln -->
<g id="node17" class="node">
<title>sln</title>
<ellipse fill="#420a68" stroke="white" stroke-width="0" cx="476.15" cy="-91.04" rx="7" ry="7"/>
<text text-anchor="middle" x="457.65" y="-102.88" font-family="Helvetica,sans-Serif" font-size="15.20" fill="#4d4d4d">sln</text>
</g>
<!-- ressource -->
<g id="node18" class="node">
<title>ressource</title>
<ellipse fill="#4a0c6b" stroke="white" stroke-width="0" cx="519.5" cy="-223.49" rx="7" ry="7"/>
<text text-anchor="middle" x="549.5" y="-235.33" font-family="Helvetica,sans-Serif" font-size="15.20" fill="#4d4d4d">ressource</text>
</g>
<!-- conflit -->
<g id="node19" class="node">
<title>conflit</title>
<ellipse fill="#390963" stroke="white" stroke-width="0" cx="484.19" cy="-450.47" rx="7" ry="7"/>
<text text-anchor="middle" x="453.19" y="-462.31" font-family="Helvetica,sans-Serif" font-size="15.20" fill="#4d4d4d">conflit</text>
</g>
<!-- développement -->
<g id="node20" class="node">
<title>développement</title>
<ellipse fill="#07051b" stroke="white" stroke-width="0" cx="651.63" cy="-399.48" rx="3.5" ry="3.5"/>
<text text-anchor="middle" x="594.13" y="-407.1" font-family="Helvetica,sans-Serif" font-size="13.60" fill="#4d4d4d">développement</text>
</g>
<!-- minerai -->
<g id="node21" class="node">
<title>minerai</title>
<ellipse fill="#57106e" stroke="white" stroke-width="0" cx="410.2" cy="-108.98" rx="11" ry="11"/>
<text text-anchor="middle" x="367.2" y="-124.54" font-family="Helvetica,sans-Serif" font-size="16.80" fill="#4d4d4d">minerai</text>
</g>
<!-- déforestation -->
<g id="node22" class="node">
<title>déforestation</title>
<ellipse fill="#120a32" stroke="white" stroke-width="0" cx="242.45" cy="-127.64" rx="3.5" ry="3.5"/>
<text text-anchor="middle" x="193.95" y="-135.26" font-family="Helvetica,sans-Serif" font-size="13.60" fill="#4d4d4d">déforestation</text>
</g>
<!-- extraction -->
<g id="node23" class="node">
<title>extraction</title>
<ellipse fill="#010108" stroke="white" stroke-width="0" cx="152.55" cy="-401.53" rx="0.5" ry="0.5"/>
<text text-anchor="middle" x="121.55" y="-405.43" font-family="Helvetica,sans-Serif" font-size="12.00" fill="#4d4d4d">extraction</text>
</g>
<!-- caillou -->
<g id="node24" class="node">
<title>caillou</title>
<ellipse fill="#0c0826" stroke="white" stroke-width="0" cx="190.36" cy="-49.58" rx="3.5" ry="3.5"/>
<text text-anchor="middle" x="164.86" y="-57.2" font-family="Helvetica,sans-Serif" font-size="13.60" fill="#4d4d4d">caillou</text>
</g>
<!-- terre rouge -->
<g id="node25" class="node">
<title>terre rouge</title>
<ellipse fill="#040314" stroke="white" stroke-width="0" cx="117.73" cy="-241.78" rx="3.5" ry="3.5"/>
<text text-anchor="middle" x="76.23" y="-249.4" font-family="Helvetica,sans-Serif" font-size="13.60" fill="#4d4d4d">terre rouge</text>
</g>
<!-- goro -->
<g id="node26" class="node">
<title>goro</title>
<ellipse fill="#010005" stroke="white" stroke-width="0" cx="476.99" cy="-0.5" rx="0.5" ry="0.5"/>
<text text-anchor="middle" x="462.49" y="-4.4" font-family="Helvetica,sans-Serif" font-size="12.00" fill="#4d4d4d">goro</text>
</g>
<!-- exportation -->
<g id="node27" class="node">
<title>exportation</title>
<ellipse fill="#09061f" stroke="white" stroke-width="0" cx="82.5" cy="-315.8" rx="3.5" ry="3.5"/>
<text text-anchor="middle" x="39.5" y="-323.42" font-family="Helvetica,sans-Serif" font-size="13.60" fill="#4d4d4d">exportation</text>
</g>
</g>
</svg>
