<?xml version="1.0" encoding="UTF-8" standalone="no"?>
<!DOCTYPE svg PUBLIC "-//W3C//DTD SVG 1.1//EN"
 "http://www.w3.org/Graphics/SVG/1.1/DTD/svg11.dtd">
<!-- Generated by graphviz version 2.43.0 (0)
 -->
<!-- Pages: 1 -->
<svg width="547pt" height="266pt"
 viewBox="0.00 0.00 547.25 265.81" xmlns="http://www.w3.org/2000/svg" xmlns:xlink="http://www.w3.org/1999/xlink">
<g id="graph0" class="graph" transform="scale(1 1) rotate(0) translate(4 261.81)">
<polygon fill="white" stroke="transparent" points="-4,4 -4,-261.81 543.25,-261.81 543.25,4 -4,4"/>
<!-- pollution&#45;&#45;travail -->
<g id="edge1" class="edge">
<title>pollution&#45;&#45;travail</title>
<path fill="none" stroke="darkgrey" stroke-width="6.44" d="M207.73,-113.3C209.51,-112.7 211.26,-112.11 212.92,-111.55"/>
</g>
<!-- pollution&#45;&#45;richesse -->
<g id="edge2" class="edge">
<title>pollution&#45;&#45;richesse</title>
<path fill="none" stroke="darkgrey" stroke-width="1.44" d="M203.49,-142.61C217.22,-152.25 233.05,-163.37 242.83,-170.23"/>
</g>
<!-- pollution&#45;&#45;destruction -->
<g id="edge3" class="edge">
<title>pollution&#45;&#45;destruction</title>
<path fill="none" stroke="darkgrey" stroke-width="4.75" d="M157.53,-150.69C146.74,-165.86 134.18,-183.52 127.82,-192.47"/>
</g>
<!-- pollution&#45;&#45;argent -->
<g id="edge4" class="edge">
<title>pollution&#45;&#45;argent</title>
<path fill="none" stroke="darkgrey" stroke-width="1.65" d="M204.39,-106.56C229.57,-90.92 264.88,-68.99 279.12,-60.14"/>
</g>
<!-- pollution&#45;&#45;nickel -->
<g id="edge5" class="edge">
<title>pollution&#45;&#45;nickel</title>
<path fill="none" stroke="darkgrey" stroke-width="8.05" d="M209.31,-121.98C222.47,-121.25 237.7,-120.4 251.2,-119.65"/>
</g>
<!-- pollution&#45;&#45;camion -->
<g id="edge6" class="edge">
<title>pollution&#45;&#45;camion</title>
<path fill="none" stroke="darkgrey" stroke-width="1.92" d="M187.64,-154.55C193.94,-172.18 201.44,-193.21 205.86,-205.58"/>
</g>
<!-- pollution&#45;&#45;économie -->
<g id="edge7" class="edge">
<title>pollution&#45;&#45;économie</title>
<path fill="none" stroke="darkgrey" stroke-width="7.9" d="M179.15,-91.12C179.16,-91.02 179.16,-90.93 179.17,-90.84"/>
</g>
<!-- pollution&#45;&#45;environnement -->
<g id="edge8" class="edge">
<title>pollution&#45;&#45;environnement</title>
<path fill="none" stroke="darkgrey" stroke-width="6.25" d="M181.92,-91.69C184.49,-75.99 187.49,-57.68 189.65,-44.49"/>
</g>
<!-- pollution&#45;&#45;emploi -->
<g id="edge9" class="edge">
<title>pollution&#45;&#45;emploi</title>
<path fill="none" stroke="darkgrey" stroke-width="10" d="M194.63,-96.57C206.23,-79.01 220.88,-56.82 230.48,-42.29"/>
</g>
<!-- pollution&#45;&#45;développement -->
<g id="edge10" class="edge">
<title>pollution&#45;&#45;développement</title>
<path fill="none" stroke="darkgrey" stroke-width="1.42" d="M145.99,-112.49C119.3,-102.66 84.06,-89.68 78.72,-87.71"/>
</g>
<!-- pollution&#45;&#45;déforestation -->
<g id="edge11" class="edge">
<title>pollution&#45;&#45;déforestation</title>
<path fill="none" stroke="darkgrey" stroke-width="1.54" d="M146.23,-135.82C116.69,-147.5 74.54,-164.17 62.09,-169.1"/>
</g>
<!-- travail&#45;&#45;richesse -->
<g id="edge12" class="edge">
<title>travail&#45;&#45;richesse</title>
<path fill="none" stroke="darkgrey" d="M232.03,-120.6C236.83,-133.98 243.99,-153.99 248.35,-166.16"/>
</g>
<!-- travail&#45;&#45;nickel -->
<g id="edge13" class="edge">
<title>travail&#45;&#45;nickel</title>
<path fill="none" stroke="darkgrey" stroke-width="2.17" d="M241.4,-109.34C244.61,-109.92 248.15,-110.56 251.81,-111.22"/>
</g>
<!-- travail&#45;&#45;économie -->
<g id="edge14" class="edge">
<title>travail&#45;&#45;économie</title>
<path fill="none" stroke="darkgrey" stroke-width="2.28" d="M215.4,-97.3C210.05,-92.96 203.6,-87.73 197.73,-82.96"/>
</g>
<!-- travail&#45;&#45;environnement -->
<g id="edge15" class="edge">
<title>travail&#45;&#45;environnement</title>
<path fill="none" stroke="darkgrey" stroke-width="2.04" d="M221.23,-93.17C215.31,-79.41 206.14,-58.11 199.78,-43.33"/>
</g>
<!-- richesse&#45;&#45;nickel -->
<g id="edge16" class="edge">
<title>richesse&#45;&#45;nickel</title>
<path fill="none" stroke="darkgrey" stroke-width="1.14" d="M257.83,-167.27C260.91,-162.11 264.92,-155.41 268.98,-148.61"/>
</g>
<!-- argent&#45;&#45;nickel -->
<g id="edge17" class="edge">
<title>argent&#45;&#45;nickel</title>
<path fill="none" stroke="darkgrey" stroke-width="3.15" d="M285.68,-63.26C285.83,-67.99 286.06,-74.61 286.29,-81.62"/>
</g>
<!-- argent&#45;&#45;emploi -->
<g id="edge18" class="edge">
<title>argent&#45;&#45;emploi</title>
<path fill="none" stroke="darkgrey" stroke-width="1.43" d="M279.2,-52.15C273.23,-48.26 263.98,-42.24 256.03,-37.06"/>
</g>
<!-- nickel&#45;&#45;camion -->
<g id="edge20" class="edge">
<title>nickel&#45;&#45;camion</title>
<path fill="none" stroke="darkgrey" stroke-width="3.87" d="M264.98,-146.14C248.63,-166.82 227.56,-193.49 216.74,-207.18"/>
</g>
<!-- nickel&#45;&#45;économie -->
<g id="edge21" class="edge">
<title>nickel&#45;&#45;économie</title>
<path fill="none" stroke="darkgrey" stroke-width="4.26" d="M254.62,-102.73C236.86,-94.67 215.54,-85 200.39,-78.13"/>
</g>
<!-- nickel&#45;&#45;environnement -->
<g id="edge22" class="edge">
<title>nickel&#45;&#45;environnement</title>
<path fill="none" stroke="darkgrey" stroke-width="1.22" d="M261.31,-92.52C243.2,-75.15 219.88,-52.79 205.6,-39.08"/>
</g>
<!-- nickel&#45;&#45;emploi -->
<g id="edge23" class="edge">
<title>nickel&#45;&#45;emploi</title>
<path fill="none" stroke="darkgrey" stroke-width="4.34" d="M270.82,-85.43C263.45,-71.18 255.09,-55.04 249.04,-43.34"/>
</g>
<!-- nickel&#45;&#45;montagne -->
<g id="edge19" class="edge">
<title>nickel&#45;&#45;montagne</title>
<path fill="none" stroke="darkgrey" stroke-width="1.37" d="M317.13,-138.13C338.12,-152.65 364.53,-170.91 376.09,-178.91"/>
</g>
<!-- nickel&#45;&#45;usine -->
<g id="edge24" class="edge">
<title>nickel&#45;&#45;usine</title>
<path fill="none" stroke="darkgrey" stroke-width="3.96" d="M312.95,-91.7C332.66,-71.62 358.33,-45.46 368.96,-34.63"/>
</g>
<!-- nickel&#45;&#45;sln -->
<g id="edge25" class="edge">
<title>nickel&#45;&#45;sln</title>
<path fill="none" stroke="darkgrey" stroke-width="5.88" d="M297.99,-152.23C306.7,-180.93 318.39,-219.46 323.09,-234.94"/>
</g>
<!-- nickel&#45;&#45;minerai -->
<g id="edge26" class="edge">
<title>nickel&#45;&#45;minerai</title>
<path fill="none" stroke="darkgrey" stroke-width="2.83" d="M322.58,-109.06C351.41,-102 389.93,-92.58 405.4,-88.79"/>
</g>
<!-- économie&#45;&#45;environnement -->
<g id="edge27" class="edge">
<title>économie&#45;&#45;environnement</title>
<path fill="none" stroke="darkgrey" stroke-width="8.76" d="M186.56,-48.42C186.93,-47.07 187.31,-45.71 187.68,-44.38"/>
</g>
<!-- économie&#45;&#45;emploi -->
<g id="edge28" class="edge">
<title>économie&#45;&#45;emploi</title>
<path fill="none" stroke="darkgrey" stroke-width="8.12" d="M198.42,-56.8C207.1,-50.67 217.45,-43.35 225.72,-37.5"/>
</g>
<!-- environnement&#45;&#45;emploi -->
<g id="edge29" class="edge">
<title>environnement&#45;&#45;emploi</title>
<path fill="none" stroke="darkgrey" stroke-width="2.27" d="M210.73,-26.75C214.55,-26.78 218.58,-26.82 222.41,-26.85"/>
</g>
<!-- usine&#45;&#45;minerai -->
<g id="edge30" class="edge">
<title>usine&#45;&#45;minerai</title>
<path fill="none" stroke="darkgrey" stroke-width="1.67" d="M377.99,-35.76C385.42,-46.89 400.98,-70.21 408.3,-81.18"/>
</g>
<!-- exploitation&#45;&#45;minerai -->
<g id="edge32" class="edge">
<title>exploitation&#45;&#45;minerai</title>
<path fill="none" stroke="darkgrey" stroke-width="1.16" d="M493.21,-99.49C476.59,-96.95 435.8,-90.71 419.33,-88.2"/>
</g>
<!-- exploitation&#45;&#45;ressource -->
<g id="edge31" class="edge">
<title>exploitation&#45;&#45;ressource</title>
<path fill="none" stroke="darkgrey" stroke-width="1.4" d="M503.36,-107.23C509.45,-120.99 523.41,-152.5 529.41,-166.07"/>
</g>
<!-- pollution -->
<g id="node1" class="node">
<title>pollution</title>
<ellipse fill="#fbbe23" stroke="white" stroke-width="0" cx="176.66" cy="-123.79" rx="32.5" ry="32.5"/>
<text text-anchor="middle" x="125.66" y="-158.89" font-family="Helvetica,sans-Serif" font-size="8.00" fill="#4d4d4d">pollution</text>
</g>
<!-- travail -->
<g id="node2" class="node">
<title>travail</title>
<ellipse fill="#932667" stroke="white" stroke-width="0" cx="227.08" cy="-106.77" rx="14.5" ry="14.5"/>
<text text-anchor="middle" x="225.58" y="-123.87" font-family="Helvetica,sans-Serif" font-size="8.00" fill="#4d4d4d">travail</text>
</g>
<!-- richesse -->
<g id="node3" class="node">
<title>richesse</title>
<ellipse fill="#5c126e" stroke="white" stroke-width="0" cx="252.15" cy="-176.76" rx="11" ry="11"/>
<text text-anchor="middle" x="223.65" y="-190.36" font-family="Helvetica,sans-Serif" font-size="8.00" fill="#4d4d4d">richesse</text>
</g>
<!-- destruction -->
<g id="node4" class="node">
<title>destruction</title>
<ellipse fill="#260c51" stroke="white" stroke-width="0" cx="123.68" cy="-198.3" rx="7" ry="7"/>
<text text-anchor="middle" x="93.18" y="-207.9" font-family="Helvetica,sans-Serif" font-size="8.00" fill="#4d4d4d">destruction</text>
</g>
<!-- argent -->
<g id="node5" class="node">
<title>argent</title>
<ellipse fill="#400a67" stroke="white" stroke-width="0" cx="285.44" cy="-56.21" rx="7" ry="7"/>
<text text-anchor="middle" x="264.44" y="-65.81" font-family="Helvetica,sans-Serif" font-size="8.00" fill="#4d4d4d">argent</text>
</g>
<!-- nickel -->
<g id="node6" class="node">
<title>nickel</title>
<ellipse fill="#fcffa4" stroke="white" stroke-width="0" cx="287.5" cy="-117.64" rx="36" ry="36"/>
<text text-anchor="middle" x="239.5" y="-156.24" font-family="Helvetica,sans-Serif" font-size="8.00" fill="#4d4d4d">nickel</text>
</g>
<!-- camion -->
<g id="node7" class="node">
<title>camion</title>
<ellipse fill="#61136e" stroke="white" stroke-width="0" cx="209.64" cy="-216.16" rx="11" ry="11"/>
<text text-anchor="middle" x="183.14" y="-229.76" font-family="Helvetica,sans-Serif" font-size="8.00" fill="#4d4d4d">camion</text>
</g>
<!-- économie -->
<g id="node8" class="node">
<title>économie</title>
<ellipse fill="#ce4347" stroke="white" stroke-width="0" cx="180.81" cy="-69.25" rx="21.5" ry="21.5"/>
<text text-anchor="middle" x="138.81" y="-50.35" font-family="Helvetica,sans-Serif" font-size="8.00" fill="#4d4d4d">économie</text>
</g>
<!-- environnement -->
<g id="node9" class="node">
<title>environnement</title>
<ellipse fill="#a62d60" stroke="white" stroke-width="0" cx="192.58" cy="-26.6" rx="18" ry="18"/>
<text text-anchor="middle" x="143.58" y="-11.2" font-family="Helvetica,sans-Serif" font-size="8.00" fill="#4d4d4d">environnement</text>
</g>
<!-- emploi -->
<g id="node10" class="node">
<title>emploi</title>
<ellipse fill="#a92e5e" stroke="white" stroke-width="0" cx="240.58" cy="-27" rx="18" ry="18"/>
<text text-anchor="middle" x="208.58" y="-2.6" font-family="Helvetica,sans-Serif" font-size="8.00" fill="#4d4d4d">emploi</text>
</g>
<!-- développement -->
<g id="node11" class="node">
<title>développement</title>
<ellipse fill="#000004" stroke="white" stroke-width="0" cx="78.03" cy="-87.46" rx="0.5" ry="0.5"/>
<text text-anchor="middle" x="45.03" y="-90.56" font-family="Helvetica,sans-Serif" font-size="8.00" fill="#4d4d4d">développement</text>
</g>
<!-- déforestation -->
<g id="node12" class="node">
<title>déforestation</title>
<ellipse fill="#050417" stroke="white" stroke-width="0" cx="58.5" cy="-170.52" rx="3.5" ry="3.5"/>
<text text-anchor="middle" x="27.5" y="-176.62" font-family="Helvetica,sans-Serif" font-size="8.00" fill="#4d4d4d">déforestation</text>
</g>
<!-- montagne -->
<g id="node13" class="node">
<title>montagne</title>
<ellipse fill="#2f0a5b" stroke="white" stroke-width="0" cx="381.96" cy="-182.97" rx="7" ry="7"/>
<text text-anchor="middle" x="353.46" y="-192.57" font-family="Helvetica,sans-Serif" font-size="8.00" fill="#4d4d4d">montagne</text>
</g>
<!-- usine -->
<g id="node14" class="node">
<title>usine</title>
<ellipse fill="#450a69" stroke="white" stroke-width="0" cx="373.89" cy="-29.61" rx="7" ry="7"/>
<text text-anchor="middle" x="355.39" y="-39.21" font-family="Helvetica,sans-Serif" font-size="8.00" fill="#4d4d4d">usine</text>
</g>
<!-- sln -->
<g id="node15" class="node">
<title>sln</title>
<ellipse fill="#2f0a5b" stroke="white" stroke-width="0" cx="325.17" cy="-241.81" rx="7" ry="7"/>
<text text-anchor="middle" x="311.67" y="-251.41" font-family="Helvetica,sans-Serif" font-size="8.00" fill="#4d4d4d">sln</text>
</g>
<!-- minerai -->
<g id="node16" class="node">
<title>minerai</title>
<ellipse fill="#450a69" stroke="white" stroke-width="0" cx="412.26" cy="-87.12" rx="7" ry="7"/>
<text text-anchor="middle" x="389.76" y="-96.72" font-family="Helvetica,sans-Serif" font-size="8.00" fill="#4d4d4d">minerai</text>
</g>
<!-- exploitation -->
<g id="node17" class="node">
<title>exploitation</title>
<ellipse fill="#4c0c6b" stroke="white" stroke-width="0" cx="500.42" cy="-100.59" rx="7" ry="7"/>
<text text-anchor="middle" x="468.92" y="-110.19" font-family="Helvetica,sans-Serif" font-size="8.00" fill="#4d4d4d">exploitation</text>
</g>
<!-- ressource -->
<g id="node18" class="node">
<title>ressource</title>
<ellipse fill="#380962" stroke="white" stroke-width="0" cx="532.25" cy="-172.48" rx="7" ry="7"/>
<text text-anchor="middle" x="505.25" y="-182.08" font-family="Helvetica,sans-Serif" font-size="8.00" fill="#4d4d4d">ressource</text>
</g>
</g>
</svg>
