<?xml version="1.0" encoding="UTF-8" standalone="no"?>
<!DOCTYPE svg PUBLIC "-//W3C//DTD SVG 1.1//EN"
 "http://www.w3.org/Graphics/SVG/1.1/DTD/svg11.dtd">
<!-- Generated by graphviz version 2.43.0 (0)
 -->
<!-- Pages: 1 -->
<svg width="1375pt" height="943pt"
 viewBox="0.00 0.00 1375.21 942.71" xmlns="http://www.w3.org/2000/svg" xmlns:xlink="http://www.w3.org/1999/xlink">
<g id="graph0" class="graph" transform="scale(1 1) rotate(0) translate(4 938.71)">
<polygon fill="white" stroke="transparent" points="-4,4 -4,-938.71 1371.21,-938.71 1371.21,4 -4,4"/>
<!-- pollution&#45;&#45;emploi -->
<g id="edge1" class="edge">
<title>pollution&#45;&#45;emploi</title>
<path fill="none" stroke="darkgrey" stroke-width="10" d="M615.2,-548.47C612.16,-546.69 609.04,-544.84 605.93,-543.01"/>
</g>
<!-- pollution&#45;&#45;richesse -->
<g id="edge2" class="edge">
<title>pollution&#45;&#45;richesse</title>
<path fill="none" stroke="darkgrey" stroke-width="2.84" d="M619.22,-583.39C574,-626.27 469.68,-725.2 439.71,-753.62"/>
</g>
<!-- pollution&#45;&#45;démolition -->
<g id="edge3" class="edge">
<title>pollution&#45;&#45;démolition</title>
<path fill="none" stroke="darkgrey" stroke-width="3.16" d="M614.7,-549.33C564.74,-522.16 456.99,-463.56 430.05,-448.91"/>
</g>
<!-- pollution&#45;&#45;argent -->
<g id="edge4" class="edge">
<title>pollution&#45;&#45;argent</title>
<path fill="none" stroke="darkgrey" stroke-width="2.54" d="M648.49,-591.47C669.42,-664.27 724.63,-856.33 738.32,-903.92"/>
</g>
<!-- pollution&#45;&#45;nickel -->
<g id="edge5" class="edge">
<title>pollution&#45;&#45;nickel</title>
<path fill="none" stroke="darkgrey" stroke-width="6.36" d="M669.55,-563.75C689.4,-564.06 715.68,-564.46 736.23,-564.77"/>
</g>
<!-- pollution&#45;&#45;nature -->
<g id="edge6" class="edge">
<title>pollution&#45;&#45;nature</title>
<path fill="none" stroke="darkgrey" stroke-width="1.21" d="M662.61,-544.06C726.5,-488.71 907.82,-331.65 933,-309.83"/>
</g>
<!-- pollution&#45;&#45;exploitation -->
<g id="edge7" class="edge">
<title>pollution&#45;&#45;exploitation</title>
<path fill="none" stroke="darkgrey" stroke-width="2.46" d="M622.63,-586.46C595.72,-621.54 545.59,-686.88 525.3,-713.33"/>
</g>
<!-- pollution&#45;&#45;montagne -->
<g id="edge8" class="edge">
<title>pollution&#45;&#45;montagne</title>
<path fill="none" stroke="darkgrey" stroke-width="2.11" d="M669.2,-568.95C714.7,-577.86 800.62,-594.69 825.74,-599.61"/>
</g>
<!-- pollution&#45;&#45;camion -->
<g id="edge9" class="edge">
<title>pollution&#45;&#45;camion</title>
<path fill="none" stroke="darkgrey" stroke-width="2.83" d="M654.7,-588.68C670.6,-616.89 695.47,-661.03 706.43,-680.46"/>
</g>
<!-- pollution&#45;&#45;économie -->
<g id="edge10" class="edge">
<title>pollution&#45;&#45;économie</title>
<path fill="none" stroke="darkgrey" stroke-width="5.49" d="M622.53,-586.46C613.48,-598.19 602.79,-612.06 594.95,-622.22"/>
</g>
<!-- pollution&#45;&#45;impact environnemental -->
<g id="edge11" class="edge">
<title>pollution&#45;&#45;impact environnemental</title>
<path fill="none" stroke="darkgrey" stroke-width="4.59" d="M613.34,-574.01C566.26,-592.64 470.33,-630.59 428.61,-647.1"/>
</g>
<!-- pollution&#45;&#45;terre rouge -->
<g id="edge12" class="edge">
<title>pollution&#45;&#45;terre rouge</title>
<path fill="none" stroke="darkgrey" stroke-width="1.19" d="M664.42,-579.7C733.84,-627.08 932.06,-762.38 968.62,-787.34"/>
</g>
<!-- pollution&#45;&#45;industrie -->
<g id="edge13" class="edge">
<title>pollution&#45;&#45;industrie</title>
<path fill="none" stroke="darkgrey" stroke-width="1.05" d="M653.42,-537.2C691.91,-460.08 803.32,-236.82 817.95,-207.51"/>
</g>
<!-- pollution&#45;&#45;terre -->
<g id="edge14" class="edge">
<title>pollution&#45;&#45;terre</title>
<path fill="none" stroke="darkgrey" stroke-width="1.87" d="M640.27,-592.38C640,-654.38 639.39,-796.67 639.24,-830.23"/>
</g>
<!-- pollution&#45;&#45;usine -->
<g id="edge15" class="edge">
<title>pollution&#45;&#45;usine</title>
<path fill="none" stroke="darkgrey" stroke-width="2.53" d="M611.15,-565.06C578.11,-567.05 526.02,-570.19 503.42,-571.55"/>
</g>
<!-- pollution&#45;&#45;érosion -->
<g id="edge16" class="edge">
<title>pollution&#45;&#45;érosion</title>
<path fill="none" stroke="darkgrey" stroke-width="1.32" d="M629.34,-536.18C599.88,-463.94 520.99,-270.43 509.44,-242.1"/>
</g>
<!-- pollution&#45;&#45;sln -->
<g id="edge17" class="edge">
<title>pollution&#45;&#45;sln</title>
<path fill="none" stroke="darkgrey" stroke-width="1.44" d="M666.12,-577.13C716.8,-604.37 827,-663.6 854.57,-678.41"/>
</g>
<!-- pollution&#45;&#45;ressource -->
<g id="edge18" class="edge">
<title>pollution&#45;&#45;ressource</title>
<path fill="none" stroke="darkgrey" stroke-width="1.77" d="M632.01,-591.26C611.98,-658.06 562.22,-824.02 551.57,-859.52"/>
</g>
<!-- pollution&#45;&#45;main d’oeuvre -->
<g id="edge19" class="edge">
<title>pollution&#45;&#45;main d’oeuvre</title>
<path fill="none" stroke="darkgrey" d="M642.79,-534.2C649.73,-449.85 669.53,-209.11 672.28,-175.67"/>
</g>
<!-- pollution&#45;&#45;conflit -->
<g id="edge20" class="edge">
<title>pollution&#45;&#45;conflit</title>
<path fill="none" stroke="darkgrey" stroke-width="2.42" d="M625.89,-588.74C587.59,-655.91 485.28,-835.35 464.89,-871.11"/>
</g>
<!-- pollution&#45;&#45;développement -->
<g id="edge21" class="edge">
<title>pollution&#45;&#45;développement</title>
<path fill="none" stroke="darkgrey" stroke-width="2.19" d="M613.48,-574.24C525.15,-610.12 247.86,-722.77 213.55,-736.71"/>
</g>
<!-- pollution&#45;&#45;minerai -->
<g id="edge22" class="edge">
<title>pollution&#45;&#45;minerai</title>
<path fill="none" stroke="darkgrey" stroke-width="2.48" d="M645.27,-592.26C652.69,-636.4 666.5,-718.52 671.52,-748.35"/>
</g>
<!-- pollution&#45;&#45;déforestation -->
<g id="edge23" class="edge">
<title>pollution&#45;&#45;déforestation</title>
<path fill="none" stroke="darkgrey" stroke-width="1.95" d="M652.38,-536.65C672.89,-491.04 713.59,-400.52 724.93,-375.31"/>
</g>
<!-- pollution&#45;&#45;exportation -->
<g id="edge24" class="edge">
<title>pollution&#45;&#45;exportation</title>
<path fill="none" stroke="darkgrey" stroke-width="1.03" d="M611.61,-558.47C543.57,-547.04 376.47,-518.97 349.52,-514.44"/>
</g>
<!-- emploi&#45;&#45;richesse -->
<g id="edge25" class="edge">
<title>emploi&#45;&#45;richesse</title>
<path fill="none" stroke="darkgrey" stroke-width="3.66" d="M556.02,-555.61C523.26,-609.75 457.15,-719.02 437.28,-751.85"/>
</g>
<!-- emploi&#45;&#45;démolition -->
<g id="edge26" class="edge">
<title>emploi&#45;&#45;démolition</title>
<path fill="none" stroke="darkgrey" stroke-width="3.17" d="M542.74,-507.88C506.23,-488.73 449.13,-458.79 430.19,-448.86"/>
</g>
<!-- emploi&#45;&#45;argent -->
<g id="edge27" class="edge">
<title>emploi&#45;&#45;argent</title>
<path fill="none" stroke="darkgrey" stroke-width="3.15" d="M588.96,-557.91C624.54,-641.19 716.12,-855.5 737.09,-904.59"/>
</g>
<!-- emploi&#45;&#45;nickel -->
<g id="edge28" class="edge">
<title>emploi&#45;&#45;nickel</title>
<path fill="none" stroke="darkgrey" stroke-width="7.78" d="M610.35,-532.11C646.59,-539.69 702.23,-551.33 737.04,-558.61"/>
</g>
<!-- emploi&#45;&#45;nature -->
<g id="edge29" class="edge">
<title>emploi&#45;&#45;nature</title>
<path fill="none" stroke="darkgrey" stroke-width="1.2" d="M605.85,-505.94C687.64,-456.72 904.39,-326.28 932.82,-309.17"/>
</g>
<!-- emploi&#45;&#45;exploitation -->
<g id="edge30" class="edge">
<title>emploi&#45;&#45;exploitation</title>
<path fill="none" stroke="darkgrey" stroke-width="3.2" d="M564.59,-559.54C551.6,-604.14 529.7,-679.32 520.59,-710.59"/>
</g>
<!-- emploi&#45;&#45;montagne -->
<g id="edge31" class="edge">
<title>emploi&#45;&#45;montagne</title>
<path fill="none" stroke="darkgrey" stroke-width="1.59" d="M609.28,-534.88C670.81,-553.08 795.8,-590.05 826.09,-599.01"/>
</g>
<!-- emploi&#45;&#45;camion -->
<g id="edge32" class="edge">
<title>emploi&#45;&#45;camion</title>
<path fill="none" stroke="darkgrey" stroke-width="2.42" d="M598.02,-552.74C629.81,-591.12 685.13,-657.88 704.76,-681.57"/>
</g>
<!-- emploi&#45;&#45;économie -->
<g id="edge33" class="edge">
<title>emploi&#45;&#45;économie</title>
<path fill="none" stroke="darkgrey" stroke-width="6.66" d="M577.7,-560.66C579.29,-579.95 581.17,-602.87 582.44,-618.43"/>
</g>
<!-- emploi&#45;&#45;impact environnemental -->
<g id="edge34" class="edge">
<title>emploi&#45;&#45;impact environnemental</title>
<path fill="none" stroke="darkgrey" stroke-width="6.32" d="M546.16,-547.08C511.44,-574.31 453.98,-619.38 425.53,-641.69"/>
</g>
<!-- emploi&#45;&#45;terre rouge -->
<g id="edge37" class="edge">
<title>emploi&#45;&#45;terre rouge</title>
<path fill="none" stroke="darkgrey" stroke-width="1.89" d="M604.79,-544.7C689.76,-601.39 928.25,-760.49 968.61,-787.42"/>
</g>
<!-- emploi&#45;&#45;industrie -->
<g id="edge38" class="edge">
<title>emploi&#45;&#45;industrie</title>
<path fill="none" stroke="darkgrey" stroke-width="1.3" d="M596.69,-495.95C652.55,-422.85 797.16,-233.61 817.22,-207.36"/>
</g>
<!-- emploi&#45;&#45;terre -->
<g id="edge39" class="edge">
<title>emploi&#45;&#45;terre</title>
<path fill="none" stroke="darkgrey" stroke-width="2.17" d="M582.02,-559.93C596.97,-632.45 630.37,-794.53 637.75,-830.32"/>
</g>
<!-- emploi&#45;&#45;usine -->
<g id="edge40" class="edge">
<title>emploi&#45;&#45;usine</title>
<path fill="none" stroke="darkgrey" stroke-width="2.01" d="M543.12,-542.91C528.42,-551.4 511.99,-560.88 501.91,-566.69"/>
</g>
<!-- emploi&#45;&#45;érosion -->
<g id="edge41" class="edge">
<title>emploi&#45;&#45;érosion</title>
<path fill="none" stroke="darkgrey" stroke-width="1.27" d="M566.56,-489.59C550.28,-419.77 514.85,-267.9 508.88,-242.31"/>
</g>
<!-- emploi&#45;&#45;sln -->
<g id="edge42" class="edge">
<title>emploi&#45;&#45;sln</title>
<path fill="none" stroke="darkgrey" stroke-width="2.04" d="M606.46,-542.08C672.53,-578.36 821.5,-660.18 854.4,-678.25"/>
</g>
<!-- emploi&#45;&#45;ressource -->
<g id="edge43" class="edge">
<title>emploi&#45;&#45;ressource</title>
<path fill="none" stroke="darkgrey" stroke-width="2.26" d="M572.1,-560.57C566.34,-638.69 552.95,-820.15 550.09,-858.91"/>
</g>
<!-- emploi&#45;&#45;main d’oeuvre -->
<g id="edge44" class="edge">
<title>emploi&#45;&#45;main d’oeuvre</title>
<path fill="none" stroke="darkgrey" stroke-width="1.13" d="M584.4,-489.86C607.25,-407.45 663.38,-205.03 671.59,-175.44"/>
</g>
<!-- emploi&#45;&#45;conflit -->
<g id="edge46" class="edge">
<title>emploi&#45;&#45;conflit</title>
<path fill="none" stroke="darkgrey" stroke-width="3.38" d="M563.67,-559.12C538.03,-638.85 475.85,-832.19 463.49,-870.64"/>
</g>
<!-- emploi&#45;&#45;développement -->
<g id="edge47" class="edge">
<title>emploi&#45;&#45;développement</title>
<path fill="none" stroke="darkgrey" stroke-width="1.8" d="M543.65,-542.86C461.32,-591.05 241.95,-719.46 213.18,-736.3"/>
</g>
<!-- emploi&#45;&#45;minerai -->
<g id="edge48" class="edge">
<title>emploi&#45;&#45;minerai</title>
<path fill="none" stroke="darkgrey" stroke-width="1.97" d="M588.88,-558.31C611.58,-612.35 655.02,-715.77 668.97,-748.99"/>
</g>
<!-- emploi&#45;&#45;déforestation -->
<g id="edge50" class="edge">
<title>emploi&#45;&#45;déforestation</title>
<path fill="none" stroke="darkgrey" stroke-width="2.16" d="M600.04,-498.9C637.26,-460.99 704.39,-392.62 723.02,-373.65"/>
</g>
<!-- emploi&#45;&#45;exportation -->
<g id="edge52" class="edge">
<title>emploi&#45;&#45;exportation</title>
<path fill="none" stroke="darkgrey" stroke-width="1.4" d="M538.72,-522.95C480.8,-520.21 371.25,-515.02 349.59,-514"/>
</g>
<!-- emploi&#45;&#45;revenu -->
<g id="edge35" class="edge">
<title>emploi&#45;&#45;revenu</title>
<path fill="none" stroke="darkgrey" stroke-width="1.01" d="M556.8,-493.44C493.44,-383.24 283.53,-18.17 273.72,-1.12"/>
</g>
<!-- emploi&#45;&#45;roche -->
<g id="edge36" class="edge">
<title>emploi&#45;&#45;roche</title>
<path fill="none" stroke="darkgrey" stroke-width="1.49" d="M595.19,-554.63C642.84,-624.51 759.41,-795.43 787.81,-837.07"/>
</g>
<!-- emploi&#45;&#45;usine du sud -->
<g id="edge45" class="edge">
<title>emploi&#45;&#45;usine du sud</title>
<path fill="none" stroke="darkgrey" stroke-width="1.03" d="M610.83,-524.3C718.69,-523.24 1033.59,-520.15 1072.53,-519.77"/>
</g>
<!-- emploi&#45;&#45;épuisable -->
<g id="edge49" class="edge">
<title>emploi&#45;&#45;épuisable</title>
<path fill="none" stroke="darkgrey" stroke-width="1.07" d="M540.13,-514.68C432.36,-483.6 109.1,-390.39 94,-386.04"/>
</g>
<!-- emploi&#45;&#45;politique -->
<g id="edge51" class="edge">
<title>emploi&#45;&#45;politique</title>
<path fill="none" stroke="darkgrey" stroke-width="1.05" d="M539.08,-529.88C421.9,-547.03 55.24,-600.71 38.12,-603.21"/>
</g>
<!-- richesse&#45;&#45;démolition -->
<g id="edge53" class="edge">
<title>richesse&#45;&#45;démolition</title>
<path fill="none" stroke="darkgrey" stroke-width="1.32" d="M431.24,-750.15C430.01,-699.59 425.02,-494 424.02,-452.76"/>
</g>
<!-- richesse&#45;&#45;nickel -->
<g id="edge54" class="edge">
<title>richesse&#45;&#45;nickel</title>
<path fill="none" stroke="darkgrey" stroke-width="2.57" d="M441.25,-755.73C485.6,-729.95 669.44,-623.08 740.59,-581.72"/>
</g>
<!-- richesse&#45;&#45;exploitation -->
<g id="edge55" class="edge">
<title>richesse&#45;&#45;exploitation</title>
<path fill="none" stroke="darkgrey" stroke-width="1.46" d="M441.93,-756.91C457.25,-750.33 485.88,-738.03 502.84,-730.74"/>
</g>
<!-- richesse&#45;&#45;économie -->
<g id="edge56" class="edge">
<title>richesse&#45;&#45;économie</title>
<path fill="none" stroke="darkgrey" stroke-width="1.94" d="M440.15,-754.32C465.33,-733.68 538.92,-673.38 569.91,-647.99"/>
</g>
<!-- richesse&#45;&#45;impact environnemental -->
<g id="edge57" class="edge">
<title>richesse&#45;&#45;impact environnemental</title>
<path fill="none" stroke="darkgrey" stroke-width="2.76" d="M429.14,-750.41C425.37,-733.01 417.95,-698.77 413.11,-676.41"/>
</g>
<!-- richesse&#45;&#45;terre -->
<g id="edge59" class="edge">
<title>richesse&#45;&#45;terre</title>
<path fill="none" stroke="darkgrey" stroke-width="1.36" d="M442.1,-765.26C479.13,-778.82 602.27,-823.89 632.48,-834.94"/>
</g>
<!-- richesse&#45;&#45;usine -->
<g id="edge60" class="edge">
<title>richesse&#45;&#45;usine</title>
<path fill="none" stroke="darkgrey" stroke-width="1.18" d="M434.96,-750.67C445.67,-717.38 478.28,-615.94 488.93,-582.81"/>
</g>
<!-- richesse&#45;&#45;ressource -->
<g id="edge61" class="edge">
<title>richesse&#45;&#45;ressource</title>
<path fill="none" stroke="darkgrey" stroke-width="1.03" d="M440,-768.93C462.84,-789.22 525.13,-844.57 544.03,-861.38"/>
</g>
<!-- richesse&#45;&#45;conflit -->
<g id="edge62" class="edge">
<title>richesse&#45;&#45;conflit</title>
<path fill="none" stroke="darkgrey" stroke-width="1.17" d="M434.27,-772.09C440.29,-795.53 454.52,-850.86 459.54,-870.39"/>
</g>
<!-- richesse&#45;&#45;développement -->
<g id="edge63" class="edge">
<title>richesse&#45;&#45;développement</title>
<path fill="none" stroke="darkgrey" stroke-width="1.09" d="M420.53,-760.23C379.69,-755.94 237.65,-741.03 213.54,-738.5"/>
</g>
<!-- richesse&#45;&#45;roche -->
<g id="edge58" class="edge">
<title>richesse&#45;&#45;roche</title>
<path fill="none" stroke="darkgrey" stroke-width="1.01" d="M442.37,-763.93C495.75,-776.43 730.03,-831.31 783.31,-843.8"/>
</g>
<!-- démolition&#45;&#45;nickel -->
<g id="edge64" class="edge">
<title>démolition&#45;&#45;nickel</title>
<path fill="none" stroke="darkgrey" stroke-width="1.77" d="M430.73,-447.92C469.58,-461.41 662.15,-528.23 738.05,-554.57"/>
</g>
<!-- démolition&#45;&#45;exploitation -->
<g id="edge65" class="edge">
<title>démolition&#45;&#45;exploitation</title>
<path fill="none" stroke="darkgrey" stroke-width="1.1" d="M426.13,-452.44C438.27,-489.07 495.21,-660.89 511.85,-711.1"/>
</g>
<!-- démolition&#45;&#45;économie -->
<g id="edge66" class="edge">
<title>démolition&#45;&#45;économie</title>
<path fill="none" stroke="darkgrey" stroke-width="1.45" d="M428.46,-451.04C449.89,-476.6 539.95,-584.04 572.3,-622.63"/>
</g>
<!-- démolition&#45;&#45;impact environnemental -->
<g id="edge67" class="edge">
<title>démolition&#45;&#45;impact environnemental</title>
<path fill="none" stroke="darkgrey" stroke-width="1.5" d="M423.31,-452.74C421.22,-481.31 413.46,-587.22 410.07,-633.35"/>
</g>
<!-- argent&#45;&#45;nickel -->
<g id="edge68" class="edge">
<title>argent&#45;&#45;nickel</title>
<path fill="none" stroke="darkgrey" stroke-width="2.96" d="M742.3,-903.48C746.01,-856.28 760.42,-673 766.33,-597.77"/>
</g>
<!-- argent&#45;&#45;camion -->
<g id="edge69" class="edge">
<title>argent&#45;&#45;camion</title>
<path fill="none" stroke="darkgrey" stroke-width="1.14" d="M739.95,-903.58C734.92,-865.27 718.35,-739.15 713.35,-701.14"/>
</g>
<!-- argent&#45;&#45;économie -->
<g id="edge70" class="edge">
<title>argent&#45;&#45;économie</title>
<path fill="none" stroke="darkgrey" stroke-width="1.06" d="M736,-905.13C712.85,-864.24 622.14,-704 592.99,-652.52"/>
</g>
<!-- argent&#45;&#45;terre rouge -->
<g id="edge71" class="edge">
<title>argent&#45;&#45;terre rouge</title>
<path fill="none" stroke="darkgrey" stroke-width="1.05" d="M751.43,-909.41C790.98,-888.47 935.74,-811.81 968.03,-794.71"/>
</g>
<!-- argent&#45;&#45;conflit -->
<g id="edge72" class="edge">
<title>argent&#45;&#45;conflit</title>
<path fill="none" stroke="darkgrey" stroke-width="1.03" d="M730.44,-913.25C684.32,-907.1 506.89,-883.43 468.63,-878.33"/>
</g>
<!-- nickel&#45;&#45;nature -->
<g id="edge73" class="edge">
<title>nickel&#45;&#45;nature</title>
<path fill="none" stroke="darkgrey" stroke-width="1.04" d="M786.76,-537.67C826.31,-476.58 918.94,-333.53 933.87,-310.47"/>
</g>
<!-- nickel&#45;&#45;exploitation -->
<g id="edge74" class="edge">
<title>nickel&#45;&#45;exploitation</title>
<path fill="none" stroke="darkgrey" stroke-width="3.74" d="M741.39,-582.66C686.95,-617.08 567.36,-692.69 528.73,-717.12"/>
</g>
<!-- nickel&#45;&#45;montagne -->
<g id="edge75" class="edge">
<title>nickel&#45;&#45;montagne</title>
<path fill="none" stroke="darkgrey" stroke-width="2.87" d="M797.48,-581.26C808.38,-587.35 819.82,-593.74 826.62,-597.54"/>
</g>
<!-- nickel&#45;&#45;camion -->
<g id="edge76" class="edge">
<title>nickel&#45;&#45;camion</title>
<path fill="none" stroke="darkgrey" stroke-width="4.24" d="M755.39,-594.88C742.88,-622.3 724.99,-661.53 716.6,-679.93"/>
</g>
<!-- nickel&#45;&#45;économie -->
<g id="edge77" class="edge">
<title>nickel&#45;&#45;économie</title>
<path fill="none" stroke="darkgrey" stroke-width="4.94" d="M738.34,-577.04C699.15,-592.13 632.48,-617.8 601.16,-629.87"/>
</g>
<!-- nickel&#45;&#45;impact environnemental -->
<g id="edge78" class="edge">
<title>nickel&#45;&#45;impact environnemental</title>
<path fill="none" stroke="darkgrey" stroke-width="4.41" d="M737.22,-573.16C665.08,-591.14 490.08,-634.73 429.52,-649.82"/>
</g>
<!-- nickel&#45;&#45;terre rouge -->
<g id="edge80" class="edge">
<title>nickel&#45;&#45;terre rouge</title>
<path fill="none" stroke="darkgrey" stroke-width="2.49" d="M790.89,-589.46C837.91,-641.17 945.87,-759.89 969.73,-786.12"/>
</g>
<!-- nickel&#45;&#45;industrie -->
<g id="edge81" class="edge">
<title>nickel&#45;&#45;industrie</title>
<path fill="none" stroke="darkgrey" stroke-width="1.08" d="M773.43,-532.92C784.94,-450.9 814.66,-239.11 819.01,-208.13"/>
</g>
<!-- nickel&#45;&#45;terre -->
<g id="edge82" class="edge">
<title>nickel&#45;&#45;terre</title>
<path fill="none" stroke="darkgrey" stroke-width="2.22" d="M754.89,-594.66C725.28,-656.78 657.8,-798.41 642.38,-830.75"/>
</g>
<!-- nickel&#45;&#45;usine -->
<g id="edge83" class="edge">
<title>nickel&#45;&#45;usine</title>
<path fill="none" stroke="darkgrey" stroke-width="3.52" d="M736.35,-566.09C674.53,-567.64 542.75,-570.95 503.56,-571.93"/>
</g>
<!-- nickel&#45;&#45;sln -->
<g id="edge84" class="edge">
<title>nickel&#45;&#45;sln</title>
<path fill="none" stroke="darkgrey" stroke-width="3.64" d="M789.08,-590.85C810.88,-618.46 844.11,-660.54 856.26,-675.93"/>
</g>
<!-- nickel&#45;&#45;ressource -->
<g id="edge85" class="edge">
<title>nickel&#45;&#45;ressource</title>
<path fill="none" stroke="darkgrey" stroke-width="1.92" d="M749.61,-591.72C701.53,-657.71 578.36,-826.74 553.83,-860.4"/>
</g>
<!-- nickel&#45;&#45;main d’oeuvre -->
<g id="edge86" class="edge">
<title>nickel&#45;&#45;main d’oeuvre</title>
<path fill="none" stroke="darkgrey" stroke-width="1.29" d="M761.09,-533.41C739.69,-445.96 681.12,-206.62 673.43,-175.22"/>
</g>
<!-- nickel&#45;&#45;conflit -->
<g id="edge88" class="edge">
<title>nickel&#45;&#45;conflit</title>
<path fill="none" stroke="darkgrey" stroke-width="1.49" d="M746.02,-588.48C681.43,-654.02 500.1,-838.02 466.67,-871.95"/>
</g>
<!-- nickel&#45;&#45;minerai -->
<g id="edge89" class="edge">
<title>nickel&#45;&#45;minerai</title>
<path fill="none" stroke="darkgrey" stroke-width="3.61" d="M754.38,-594.78C732.58,-639.14 692.4,-720.88 678.38,-749.4"/>
</g>
<!-- nickel&#45;&#45;déforestation -->
<g id="edge91" class="edge">
<title>nickel&#45;&#45;déforestation</title>
<path fill="none" stroke="darkgrey" stroke-width="2.01" d="M762.21,-533.25C752.38,-486.02 734.58,-400.59 729.38,-375.66"/>
</g>
<!-- nickel&#45;&#45;exportation -->
<g id="edge92" class="edge">
<title>nickel&#45;&#45;exportation</title>
<path fill="none" stroke="darkgrey" stroke-width="1.77" d="M736.39,-561.32C643.9,-550.07 383.69,-518.42 349.53,-514.27"/>
</g>
<!-- nickel&#45;&#45;roche -->
<g id="edge79" class="edge">
<title>nickel&#45;&#45;roche</title>
<path fill="none" stroke="darkgrey" stroke-width="2.37" d="M771.81,-597.79C777.44,-660.5 789.55,-795.48 793.12,-835.15"/>
</g>
<!-- nickel&#45;&#45;usine du sud -->
<g id="edge87" class="edge">
<title>nickel&#45;&#45;usine du sud</title>
<path fill="none" stroke="darkgrey" stroke-width="2.01" d="M801.22,-560.49C873.72,-549.75 1045.08,-524.38 1072.7,-520.29"/>
</g>
<!-- nickel&#45;&#45;engin -->
<g id="edge90" class="edge">
<title>nickel&#45;&#45;engin</title>
<path fill="none" stroke="darkgrey" stroke-width="1.07" d="M797.8,-550.09C902.51,-495.13 1257.73,-308.66 1296.27,-288.42"/>
</g>
<!-- nickel&#45;&#45;or -->
<g id="edge93" class="edge">
<title>nickel&#45;&#45;or</title>
<path fill="none" stroke="darkgrey" stroke-width="1.02" d="M801.45,-568.81C923.28,-582.06 1346.24,-628.04 1365.99,-630.19"/>
</g>
<!-- exploitation&#45;&#45;camion -->
<g id="edge94" class="edge">
<title>exploitation&#45;&#45;camion</title>
<path fill="none" stroke="darkgrey" stroke-width="1.51" d="M530.8,-722.35C568.19,-715.71 667.86,-698.02 701.02,-692.14"/>
</g>
<!-- exploitation&#45;&#45;économie -->
<g id="edge95" class="edge">
<title>exploitation&#45;&#45;économie</title>
<path fill="none" stroke="darkgrey" stroke-width="1.79" d="M525.25,-713.35C537.47,-697.34 559.55,-668.43 572.86,-651"/>
</g>
<!-- exploitation&#45;&#45;impact environnemental -->
<g id="edge96" class="edge">
<title>exploitation&#45;&#45;impact environnemental</title>
<path fill="none" stroke="darkgrey" stroke-width="2.66" d="M504.04,-716.89C485.1,-704.64 448.83,-681.17 426.83,-666.93"/>
</g>
<!-- exploitation&#45;&#45;terre -->
<g id="edge98" class="edge">
<title>exploitation&#45;&#45;terre</title>
<path fill="none" stroke="darkgrey" stroke-width="1.35" d="M527.32,-734.89C552.68,-758.12 614.9,-815.13 633.73,-832.38"/>
</g>
<!-- exploitation&#45;&#45;usine -->
<g id="edge99" class="edge">
<title>exploitation&#45;&#45;usine</title>
<path fill="none" stroke="darkgrey" stroke-width="1.92" d="M514.16,-710.54C509.38,-680.25 498.36,-610.4 494.08,-583.27"/>
</g>
<!-- exploitation&#45;&#45;ressource -->
<g id="edge100" class="edge">
<title>exploitation&#45;&#45;ressource</title>
<path fill="none" stroke="darkgrey" stroke-width="1.89" d="M519.78,-739.24C526.79,-769.14 542.74,-837.23 547.91,-859.26"/>
</g>
<!-- exploitation&#45;&#45;conflit -->
<g id="edge101" class="edge">
<title>exploitation&#45;&#45;conflit</title>
<path fill="none" stroke="darkgrey" stroke-width="1.21" d="M511.44,-738.7C500,-770.36 472.19,-847.31 463.78,-870.58"/>
</g>
<!-- exploitation&#45;&#45;minerai -->
<g id="edge102" class="edge">
<title>exploitation&#45;&#45;minerai</title>
<path fill="none" stroke="darkgrey" stroke-width="2.62" d="M530.63,-728.04C561.58,-734.86 634.51,-750.96 662.34,-757.1"/>
</g>
<!-- exploitation&#45;&#45;exportation -->
<g id="edge103" class="edge">
<title>exploitation&#45;&#45;exportation</title>
<path fill="none" stroke="darkgrey" stroke-width="1.19" d="M507.25,-713.55C474.58,-673.13 364.95,-537.49 348.02,-516.55"/>
</g>
<!-- exploitation&#45;&#45;roche -->
<g id="edge97" class="edge">
<title>exploitation&#45;&#45;roche</title>
<path fill="none" stroke="darkgrey" stroke-width="1.63" d="M529.82,-730.76C577.92,-751.79 741.36,-823.26 783.92,-841.87"/>
</g>
<!-- montagne&#45;&#45;camion -->
<g id="edge104" class="edge">
<title>montagne&#45;&#45;camion</title>
<path fill="none" stroke="darkgrey" stroke-width="1.6" d="M826.98,-605.3C807.45,-619.71 744.27,-666.33 720.8,-683.65"/>
</g>
<!-- montagne&#45;&#45;économie -->
<g id="edge105" class="edge">
<title>montagne&#45;&#45;économie</title>
<path fill="none" stroke="darkgrey" stroke-width="1.23" d="M825.63,-602.02C792.31,-606.78 652.3,-626.75 602.01,-633.92"/>
</g>
<!-- montagne&#45;&#45;terre -->
<g id="edge107" class="edge">
<title>montagne&#45;&#45;terre</title>
<path fill="none" stroke="darkgrey" stroke-width="1.36" d="M828.02,-606.84C801.24,-639.55 670.17,-799.6 643.83,-831.77"/>
</g>
<!-- montagne&#45;&#45;usine -->
<g id="edge108" class="edge">
<title>montagne&#45;&#45;usine</title>
<path fill="none" stroke="darkgrey" stroke-width="1.17" d="M825.7,-600.4C782.63,-596.76 556.78,-577.66 503.58,-573.16"/>
</g>
<!-- montagne&#45;&#45;sln -->
<g id="edge109" class="edge">
<title>montagne&#45;&#45;sln</title>
<path fill="none" stroke="darkgrey" stroke-width="1.02" d="M835.11,-607.61C840.35,-622.69 853.15,-659.51 858.5,-674.89"/>
</g>
<!-- montagne&#45;&#45;minerai -->
<g id="edge110" class="edge">
<title>montagne&#45;&#45;minerai</title>
<path fill="none" stroke="darkgrey" stroke-width="1.14" d="M827.5,-606.27C804.06,-629.59 709.63,-723.5 681.41,-751.57"/>
</g>
<!-- montagne&#45;&#45;déforestation -->
<g id="edge111" class="edge">
<title>montagne&#45;&#45;déforestation</title>
<path fill="none" stroke="darkgrey" stroke-width="1.05" d="M829.78,-594.3C814.53,-560.52 746.24,-409.22 730.96,-375.38"/>
</g>
<!-- montagne&#45;&#45;roche -->
<g id="edge106" class="edge">
<title>montagne&#45;&#45;roche</title>
<path fill="none" stroke="darkgrey" stroke-width="1.3" d="M831.69,-608.08C826.25,-642.57 802.52,-793.07 795.86,-835.28"/>
</g>
<!-- camion&#45;&#45;économie -->
<g id="edge112" class="edge">
<title>camion&#45;&#45;économie</title>
<path fill="none" stroke="darkgrey" stroke-width="1.41" d="M701.44,-685.81C679.35,-676.54 627.82,-654.92 600.93,-643.64"/>
</g>
<!-- camion&#45;&#45;impact environnemental -->
<g id="edge113" class="edge">
<title>camion&#45;&#45;impact environnemental</title>
<path fill="none" stroke="darkgrey" stroke-width="1.7" d="M700.76,-688.91C656.06,-683.74 489.54,-664.45 429.9,-657.54"/>
</g>
<!-- camion&#45;&#45;terre -->
<g id="edge115" class="edge">
<title>camion&#45;&#45;terre</title>
<path fill="none" stroke="darkgrey" stroke-width="1.45" d="M706.92,-700.32C692.93,-728.64 653.67,-808.14 642.32,-831.11"/>
</g>
<!-- camion&#45;&#45;usine -->
<g id="edge116" class="edge">
<title>camion&#45;&#45;usine</title>
<path fill="none" stroke="darkgrey" stroke-width="2.09" d="M702.2,-684.98C665.93,-665.49 538.69,-597.12 502.2,-577.51"/>
</g>
<!-- camion&#45;&#45;sln -->
<g id="edge117" class="edge">
<title>camion&#45;&#45;sln</title>
<path fill="none" stroke="darkgrey" stroke-width="1.42" d="M723.12,-689.57C752.22,-687.94 829.63,-683.58 853.68,-682.23"/>
</g>
<!-- camion&#45;&#45;ressource -->
<g id="edge118" class="edge">
<title>camion&#45;&#45;ressource</title>
<path fill="none" stroke="darkgrey" stroke-width="1.11" d="M704.09,-698.7C675.58,-729.61 577.81,-835.64 554.55,-860.86"/>
</g>
<!-- camion&#45;&#45;minerai -->
<g id="edge119" class="edge">
<title>camion&#45;&#45;minerai</title>
<path fill="none" stroke="darkgrey" stroke-width="1.78" d="M706.56,-699.84C699.29,-712.94 686.34,-736.24 678.96,-749.53"/>
</g>
<!-- camion&#45;&#45;déforestation -->
<g id="edge120" class="edge">
<title>camion&#45;&#45;déforestation</title>
<path fill="none" stroke="darkgrey" stroke-width="1.02" d="M712.47,-679.14C715,-628.23 725.5,-417.28 727.57,-375.76"/>
</g>
<!-- camion&#45;&#45;roche -->
<g id="edge114" class="edge">
<title>camion&#45;&#45;roche</title>
<path fill="none" stroke="darkgrey" stroke-width="1.62" d="M717.06,-699.97C731.82,-728.01 774.22,-808.53 788.98,-836.57"/>
</g>
<!-- économie&#45;&#45;impact environnemental -->
<g id="edge121" class="edge">
<title>économie&#45;&#45;impact environnemental</title>
<path fill="none" stroke="darkgrey" stroke-width="5.37" d="M565.81,-638.42C533.24,-641.86 464.95,-649.09 430.03,-652.78"/>
</g>
<!-- économie&#45;&#45;terre -->
<g id="edge122" class="edge">
<title>économie&#45;&#45;terre</title>
<path fill="none" stroke="darkgrey" stroke-width="1.32" d="M588.74,-653.98C600.35,-696.18 629.53,-802.22 637.29,-830.42"/>
</g>
<!-- économie&#45;&#45;usine -->
<g id="edge123" class="edge">
<title>économie&#45;&#45;usine</title>
<path fill="none" stroke="darkgrey" stroke-width="1.51" d="M568.8,-625.89C549.7,-612.48 517.42,-589.82 501.62,-578.72"/>
</g>
<!-- économie&#45;&#45;érosion -->
<g id="edge124" class="edge">
<title>économie&#45;&#45;érosion</title>
<path fill="none" stroke="darkgrey" stroke-width="1.1" d="M580.52,-618.63C566.73,-546.35 515.5,-277.81 508.76,-242.47"/>
</g>
<!-- économie&#45;&#45;sln -->
<g id="edge125" class="edge">
<title>économie&#45;&#45;sln</title>
<path fill="none" stroke="darkgrey" stroke-width="1.83" d="M602.1,-639.48C656.74,-648.42 817.98,-674.8 853.81,-680.66"/>
</g>
<!-- économie&#45;&#45;ressource -->
<g id="edge126" class="edge">
<title>économie&#45;&#45;ressource</title>
<path fill="none" stroke="darkgrey" stroke-width="1.27" d="M581.23,-654.53C574.17,-701.72 555.37,-827.37 550.64,-858.98"/>
</g>
<!-- économie&#45;&#45;conflit -->
<g id="edge127" class="edge">
<title>économie&#45;&#45;conflit</title>
<path fill="none" stroke="darkgrey" stroke-width="1.94" d="M575.69,-652.68C551.43,-700.35 480.88,-838.96 464.68,-870.79"/>
</g>
<!-- économie&#45;&#45;minerai -->
<g id="edge128" class="edge">
<title>économie&#45;&#45;minerai</title>
<path fill="none" stroke="darkgrey" stroke-width="1.3" d="M594.54,-651.1C613.24,-676.82 651.53,-729.46 666.85,-750.53"/>
</g>
<!-- économie&#45;&#45;déforestation -->
<g id="edge129" class="edge">
<title>économie&#45;&#45;déforestation</title>
<path fill="none" stroke="darkgrey" stroke-width="1.14" d="M592.5,-620.55C620.11,-569.19 705.96,-409.51 724.41,-375.19"/>
</g>
<!-- économie&#45;&#45;exportation -->
<g id="edge130" class="edge">
<title>économie&#45;&#45;exportation</title>
<path fill="none" stroke="darkgrey" stroke-width="1.07" d="M567.56,-628.07C518.18,-602.63 372.61,-527.62 349.05,-515.49"/>
</g>
<!-- impact environnemental&#45;&#45;terre -->
<g id="edge131" class="edge">
<title>impact environnemental&#45;&#45;terre</title>
<path fill="none" stroke="darkgrey" stroke-width="1.26" d="M425.45,-668.47C472.7,-705.81 604.23,-809.76 633.42,-832.83"/>
</g>
<!-- impact environnemental&#45;&#45;usine -->
<g id="edge132" class="edge">
<title>impact environnemental&#45;&#45;usine</title>
<path fill="none" stroke="darkgrey" stroke-width="1.64" d="M423.86,-639.87C441.64,-622.3 470.24,-594.05 484.18,-580.28"/>
</g>
<!-- impact environnemental&#45;&#45;sln -->
<g id="edge133" class="edge">
<title>impact environnemental&#45;&#45;sln</title>
<path fill="none" stroke="darkgrey" stroke-width="1.38" d="M430,-656.34C512.19,-661.2 804.16,-678.47 853.74,-681.4"/>
</g>
<!-- impact environnemental&#45;&#45;ressource -->
<g id="edge134" class="edge">
<title>impact environnemental&#45;&#45;ressource</title>
<path fill="none" stroke="darkgrey" stroke-width="1.37" d="M420.51,-673.07C450.49,-717.96 527.45,-833.19 545.65,-860.44"/>
</g>
<!-- impact environnemental&#45;&#45;conflit -->
<g id="edge135" class="edge">
<title>impact environnemental&#45;&#45;conflit</title>
<path fill="none" stroke="darkgrey" stroke-width="1.3" d="M413.55,-676.38C425.02,-724.63 452.53,-840.33 459.63,-870.22"/>
</g>
<!-- impact environnemental&#45;&#45;développement -->
<g id="edge136" class="edge">
<title>impact environnemental&#45;&#45;développement</title>
<path fill="none" stroke="darkgrey" stroke-width="1.46" d="M388.36,-663.49C342.84,-682.54 234.29,-727.98 213.52,-736.68"/>
</g>
<!-- impact environnemental&#45;&#45;minerai -->
<g id="edge137" class="edge">
<title>impact environnemental&#45;&#45;minerai</title>
<path fill="none" stroke="darkgrey" stroke-width="1.12" d="M428.83,-663.09C482.02,-684.06 623.8,-739.98 663.15,-755.49"/>
</g>
<!-- impact environnemental&#45;&#45;exportation -->
<g id="edge140" class="edge">
<title>impact environnemental&#45;&#45;exportation</title>
<path fill="none" stroke="darkgrey" stroke-width="1.5" d="M399.64,-635.13C384.52,-601.06 354.65,-533.73 347.42,-517.43"/>
</g>
<!-- impact environnemental&#45;&#45;épuisable -->
<g id="edge138" class="edge">
<title>impact environnemental&#45;&#45;épuisable</title>
<path fill="none" stroke="darkgrey" stroke-width="1.29" d="M391.99,-640.97C329.2,-587.31 107.9,-398.22 94.13,-386.45"/>
</g>
<!-- impact environnemental&#45;&#45;politique -->
<g id="edge139" class="edge">
<title>impact environnemental&#45;&#45;politique</title>
<path fill="none" stroke="darkgrey" stroke-width="1.11" d="M386.93,-652.06C310.23,-641.36 54.2,-605.63 38.28,-603.41"/>
</g>
<!-- usine&#45;&#45;minerai -->
<g id="edge143" class="edge">
<title>usine&#45;&#45;minerai</title>
<path fill="none" stroke="darkgrey" stroke-width="2.3" d="M500.12,-580.26C529.77,-610.93 635.5,-720.33 665.45,-751.31"/>
</g>
<!-- usine&#45;&#45;exportation -->
<g id="edge144" class="edge">
<title>usine&#45;&#45;exportation</title>
<path fill="none" stroke="darkgrey" stroke-width="1.03" d="M481.8,-568.01C451.88,-556.09 367.39,-522.42 349.27,-515.19"/>
</g>
<!-- érosion&#45;&#45;déforestation -->
<g id="edge145" class="edge">
<title>érosion&#45;&#45;déforestation</title>
<path fill="none" stroke="darkgrey" stroke-width="1.05" d="M511.13,-240.46C534.93,-254.53 688.3,-345.22 721.57,-364.89"/>
</g>
<!-- sln&#45;&#45;minerai -->
<g id="edge147" class="edge">
<title>sln&#45;&#45;minerai</title>
<path fill="none" stroke="darkgrey" stroke-width="1.05" d="M854.24,-684.59C826.19,-696.22 717.7,-741.18 683.67,-755.28"/>
</g>
<!-- sln&#45;&#45;usine du sud -->
<g id="edge146" class="edge">
<title>sln&#45;&#45;usine du sud</title>
<path fill="none" stroke="darkgrey" stroke-width="1.17" d="M866.68,-677.49C898.29,-653.73 1049.93,-539.7 1073.43,-522.03"/>
</g>
<!-- ressource&#45;&#45;minerai -->
<g id="edge148" class="edge">
<title>ressource&#45;&#45;minerai</title>
<path fill="none" stroke="darkgrey" stroke-width="1.4" d="M554.87,-861.69C574.23,-845.01 640.98,-787.48 664.84,-766.91"/>
</g>
<!-- roche&#45;&#45;terre -->
<g id="edge141" class="edge">
<title>roche&#45;&#45;terre</title>
<path fill="none" stroke="darkgrey" stroke-width="1.12" d="M782.98,-845.69C753.01,-843.96 671.26,-839.25 646.45,-837.82"/>
</g>
<!-- roche&#45;&#45;minerai -->
<g id="edge142" class="edge">
<title>roche&#45;&#45;minerai</title>
<path fill="none" stroke="darkgrey" stroke-width="1.19" d="M785.05,-839.81C762.68,-823.72 705.06,-782.3 682.58,-766.14"/>
</g>
<!-- pollution -->
<g id="node1" class="node">
<title>pollution</title>
<ellipse fill="#fb9706" stroke="white" stroke-width="0" cx="640.4" cy="-563.3" rx="29" ry="29"/>
<text text-anchor="middle" x="592.9" y="-594.9" font-family="Helvetica,sans-Serif" font-size="8.00" fill="#4d4d4d">pollution</text>
</g>
<!-- emploi -->
<g id="node2" class="node">
<title>emploi</title>
<ellipse fill="#fcffa4" stroke="white" stroke-width="0" cx="574.75" cy="-524.66" rx="36" ry="36"/>
<text text-anchor="middle" x="524.75" y="-563.26" font-family="Helvetica,sans-Serif" font-size="8.00" fill="#4d4d4d">emploi</text>
</g>
<!-- richesse -->
<g id="node3" class="node">
<title>richesse</title>
<ellipse fill="#6d186e" stroke="white" stroke-width="0" cx="431.51" cy="-761.39" rx="11" ry="11"/>
<text text-anchor="middle" x="403.01" y="-774.99" font-family="Helvetica,sans-Serif" font-size="8.00" fill="#4d4d4d">richesse</text>
</g>
<!-- démolition -->
<g id="node4" class="node">
<title>démolition</title>
<ellipse fill="#420a68" stroke="white" stroke-width="0" cx="423.84" cy="-445.53" rx="7" ry="7"/>
<text text-anchor="middle" x="394.84" y="-455.13" font-family="Helvetica,sans-Serif" font-size="8.00" fill="#4d4d4d">démolition</text>
</g>
<!-- argent -->
<g id="node5" class="node">
<title>argent</title>
<ellipse fill="#59106e" stroke="white" stroke-width="0" cx="741.42" cy="-914.71" rx="11" ry="11"/>
<text text-anchor="middle" x="716.42" y="-928.31" font-family="Helvetica,sans-Serif" font-size="8.00" fill="#4d4d4d">argent</text>
</g>
<!-- nickel -->
<g id="node6" class="node">
<title>nickel</title>
<ellipse fill="#fac42a" stroke="white" stroke-width="0" cx="768.89" cy="-565.27" rx="32.5" ry="32.5"/>
<text text-anchor="middle" x="724.39" y="-600.37" font-family="Helvetica,sans-Serif" font-size="8.00" fill="#4d4d4d">nickel</text>
</g>
<!-- nature -->
<g id="node7" class="node">
<title>nature</title>
<ellipse fill="#060419" stroke="white" stroke-width="0" cx="935.91" cy="-307.31" rx="3.5" ry="3.5"/>
<text text-anchor="middle" x="918.91" y="-313.41" font-family="Helvetica,sans-Serif" font-size="8.00" fill="#4d4d4d">nature</text>
</g>
<!-- exploitation -->
<g id="node8" class="node">
<title>exploitation</title>
<ellipse fill="#9f2a63" stroke="white" stroke-width="0" cx="516.43" cy="-724.9" rx="14.5" ry="14.5"/>
<text text-anchor="middle" x="477.43" y="-742" font-family="Helvetica,sans-Serif" font-size="8.00" fill="#4d4d4d">exploitation</text>
</g>
<!-- montagne -->
<g id="node9" class="node">
<title>montagne</title>
<ellipse fill="#440a68" stroke="white" stroke-width="0" cx="832.81" cy="-601" rx="7" ry="7"/>
<text text-anchor="middle" x="804.31" y="-610.6" font-family="Helvetica,sans-Serif" font-size="8.00" fill="#4d4d4d">montagne</text>
</g>
<!-- camion -->
<g id="node10" class="node">
<title>camion</title>
<ellipse fill="#6a176e" stroke="white" stroke-width="0" cx="711.92" cy="-690.2" rx="11" ry="11"/>
<text text-anchor="middle" x="685.42" y="-703.8" font-family="Helvetica,sans-Serif" font-size="8.00" fill="#4d4d4d">camion</text>
</g>
<!-- économie -->
<g id="node11" class="node">
<title>économie</title>
<ellipse fill="#c33b4f" stroke="white" stroke-width="0" cx="583.93" cy="-636.5" rx="18" ry="18"/>
<text text-anchor="middle" x="545.43" y="-657.1" font-family="Helvetica,sans-Serif" font-size="8.00" fill="#4d4d4d">économie</text>
</g>
<!-- impact environnemental -->
<g id="node12" class="node">
<title>impact environnemental</title>
<ellipse fill="#d74b3f" stroke="white" stroke-width="0" cx="408.48" cy="-655.06" rx="21.5" ry="21.5"/>
<text text-anchor="middle" x="336.98" y="-679.16" font-family="Helvetica,sans-Serif" font-size="8.00" fill="#4d4d4d">impact environnemental</text>
</g>
<!-- terre rouge -->
<g id="node13" class="node">
<title>terre rouge</title>
<ellipse fill="#260c51" stroke="white" stroke-width="0" cx="974.45" cy="-791.32" rx="7" ry="7"/>
<text text-anchor="middle" x="944.95" y="-800.92" font-family="Helvetica,sans-Serif" font-size="8.00" fill="#4d4d4d">terre rouge</text>
</g>
<!-- industrie -->
<g id="node14" class="node">
<title>industrie</title>
<ellipse fill="#060419" stroke="white" stroke-width="0" cx="819.54" cy="-204.32" rx="3.5" ry="3.5"/>
<text text-anchor="middle" x="797.54" y="-210.42" font-family="Helvetica,sans-Serif" font-size="8.00" fill="#4d4d4d">industrie</text>
</g>
<!-- terre -->
<g id="node15" class="node">
<title>terre</title>
<ellipse fill="#420a68" stroke="white" stroke-width="0" cx="639.21" cy="-837.41" rx="7" ry="7"/>
<text text-anchor="middle" x="622.71" y="-847.01" font-family="Helvetica,sans-Serif" font-size="8.00" fill="#4d4d4d">terre</text>
</g>
<!-- usine -->
<g id="node16" class="node">
<title>usine</title>
<ellipse fill="#550f6d" stroke="white" stroke-width="0" cx="492.34" cy="-572.21" rx="11" ry="11"/>
<text text-anchor="middle" x="469.84" y="-585.81" font-family="Helvetica,sans-Serif" font-size="8.00" fill="#4d4d4d">usine</text>
</g>
<!-- érosion -->
<g id="node17" class="node">
<title>érosion</title>
<ellipse fill="#050417" stroke="white" stroke-width="0" cx="508.02" cy="-238.62" rx="3.5" ry="3.5"/>
<text text-anchor="middle" x="489.02" y="-244.72" font-family="Helvetica,sans-Serif" font-size="8.00" fill="#4d4d4d">érosion</text>
</g>
<!-- sln -->
<g id="node18" class="node">
<title>sln</title>
<ellipse fill="#440a68" stroke="white" stroke-width="0" cx="860.92" cy="-681.83" rx="7" ry="7"/>
<text text-anchor="middle" x="847.42" y="-691.43" font-family="Helvetica,sans-Serif" font-size="8.00" fill="#4d4d4d">sln</text>
</g>
<!-- ressource -->
<g id="node19" class="node">
<title>ressource</title>
<ellipse fill="#4a0c6b" stroke="white" stroke-width="0" cx="549.55" cy="-866.28" rx="7" ry="7"/>
<text text-anchor="middle" x="522.55" y="-875.88" font-family="Helvetica,sans-Serif" font-size="8.00" fill="#4d4d4d">ressource</text>
</g>
<!-- main d’oeuvre -->
<g id="node20" class="node">
<title>main d’oeuvre</title>
<ellipse fill="#210c4a" stroke="white" stroke-width="0" cx="672.59" cy="-171.8" rx="3.5" ry="3.5"/>
<text text-anchor="middle" x="640.09" y="-177.9" font-family="Helvetica,sans-Serif" font-size="8.00" fill="#4d4d4d">main d’oeuvre</text>
</g>
<!-- conflit -->
<g id="node21" class="node">
<title>conflit</title>
<ellipse fill="#3d0965" stroke="white" stroke-width="0" cx="461.33" cy="-877.36" rx="7" ry="7"/>
<text text-anchor="middle" x="441.33" y="-886.96" font-family="Helvetica,sans-Serif" font-size="8.00" fill="#4d4d4d">conflit</text>
</g>
<!-- développement -->
<g id="node22" class="node">
<title>développement</title>
<ellipse fill="#110a30" stroke="white" stroke-width="0" cx="210.05" cy="-738.13" rx="3.5" ry="3.5"/>
<text text-anchor="middle" x="174.05" y="-744.23" font-family="Helvetica,sans-Serif" font-size="8.00" fill="#4d4d4d">développement</text>
</g>
<!-- minerai -->
<g id="node23" class="node">
<title>minerai</title>
<ellipse fill="#57106e" stroke="white" stroke-width="0" cx="673.4" cy="-759.54" rx="11" ry="11"/>
<text text-anchor="middle" x="646.9" y="-773.14" font-family="Helvetica,sans-Serif" font-size="8.00" fill="#4d4d4d">minerai</text>
</g>
<!-- déforestation -->
<g id="node24" class="node">
<title>déforestation</title>
<ellipse fill="#240c4f" stroke="white" stroke-width="0" cx="727.92" cy="-368.65" rx="7" ry="7"/>
<text text-anchor="middle" x="693.42" y="-378.25" font-family="Helvetica,sans-Serif" font-size="8.00" fill="#4d4d4d">déforestation</text>
</g>
<!-- exportation -->
<g id="node25" class="node">
<title>exportation</title>
<ellipse fill="#120a32" stroke="white" stroke-width="0" cx="345.82" cy="-513.82" rx="3.5" ry="3.5"/>
<text text-anchor="middle" x="318.82" y="-519.92" font-family="Helvetica,sans-Serif" font-size="8.00" fill="#4d4d4d">exportation</text>
</g>
<!-- revenu -->
<g id="node26" class="node">
<title>revenu</title>
<ellipse fill="#02020c" stroke="white" stroke-width="0" cx="273.37" cy="-0.5" rx="0.5" ry="0.5"/>
<text text-anchor="middle" x="258.87" y="-3.6" font-family="Helvetica,sans-Serif" font-size="8.00" fill="#4d4d4d">revenu</text>
</g>
<!-- roche -->
<g id="node27" class="node">
<title>roche</title>
<ellipse fill="#57106e" stroke="white" stroke-width="0" cx="794.12" cy="-846.33" rx="11" ry="11"/>
<text text-anchor="middle" x="771.62" y="-859.93" font-family="Helvetica,sans-Serif" font-size="8.00" fill="#4d4d4d">roche</text>
</g>
<!-- usine du sud -->
<g id="node28" class="node">
<title>usine du sud</title>
<ellipse fill="#0e092b" stroke="white" stroke-width="0" cx="1076.49" cy="-519.73" rx="3.5" ry="3.5"/>
<text text-anchor="middle" x="1046.49" y="-525.83" font-family="Helvetica,sans-Serif" font-size="8.00" fill="#4d4d4d">usine du sud</text>
</g>
<!-- épuisable -->
<g id="node29" class="node">
<title>épuisable</title>
<ellipse fill="#02020c" stroke="white" stroke-width="0" cx="93.45" cy="-385.88" rx="0.5" ry="0.5"/>
<text text-anchor="middle" x="72.45" y="-388.98" font-family="Helvetica,sans-Serif" font-size="8.00" fill="#4d4d4d">épuisable</text>
</g>
<!-- politique -->
<g id="node30" class="node">
<title>politique</title>
<ellipse fill="#02020c" stroke="white" stroke-width="0" cx="37.5" cy="-603.3" rx="0.5" ry="0.5"/>
<text text-anchor="middle" x="18.5" y="-606.4" font-family="Helvetica,sans-Serif" font-size="8.00" fill="#4d4d4d">politique</text>
</g>
<!-- engin -->
<g id="node31" class="node">
<title>engin</title>
<ellipse fill="#060419" stroke="white" stroke-width="0" cx="1299.67" cy="-286.64" rx="3.5" ry="3.5"/>
<text text-anchor="middle" x="1284.17" y="-292.74" font-family="Helvetica,sans-Serif" font-size="8.00" fill="#4d4d4d">engin</text>
</g>
<!-- or -->
<g id="node32" class="node">
<title>or</title>
<ellipse fill="#000004" stroke="white" stroke-width="0" cx="1366.71" cy="-630.27" rx="0.5" ry="0.5"/>
<text text-anchor="middle" x="1361.71" y="-633.37" font-family="Helvetica,sans-Serif" font-size="8.00" fill="#4d4d4d">or</text>
</g>
</g>
</svg>
