<?xml version="1.0" encoding="UTF-8" standalone="no"?>
<!DOCTYPE svg PUBLIC "-//W3C//DTD SVG 1.1//EN"
 "http://www.w3.org/Graphics/SVG/1.1/DTD/svg11.dtd">
<!-- Generated by graphviz version 2.43.0 (0)
 -->
<!-- Pages: 1 -->
<svg width="374pt" height="297pt"
 viewBox="0.00 0.00 374.07 297.14" xmlns="http://www.w3.org/2000/svg" xmlns:xlink="http://www.w3.org/1999/xlink">
<g id="graph0" class="graph" transform="scale(1 1) rotate(0) translate(4 293.14)">
<polygon fill="white" stroke="transparent" points="-4,4 -4,-293.14 370.07,-293.14 370.07,4 -4,4"/>
<!-- pollution&#45;&#45;environnement -->
<g id="edge1" class="edge">
<title>pollution&#45;&#45;environnement</title>
<path fill="none" stroke="darkgrey" d="M258.37,-158.62C290.13,-174.11 335.98,-196.48 352.68,-204.62"/>
</g>
<!-- pollution&#45;&#45;destruction -->
<g id="edge2" class="edge">
<title>pollution&#45;&#45;destruction</title>
<path fill="none" stroke="darkgrey" stroke-width="10" d="M209.37,-174.9C190.59,-211.78 161.93,-268.05 158.42,-274.95"/>
</g>
<!-- pollution&#45;&#45;économie -->
<g id="edge3" class="edge">
<title>pollution&#45;&#45;économie</title>
<path fill="none" stroke="darkgrey" stroke-width="1.24" d="M193.87,-125.9C164.47,-110.4 122.63,-88.35 103.83,-78.43"/>
</g>
<!-- pollution&#45;&#45;emploi -->
<g id="edge4" class="edge">
<title>pollution&#45;&#45;emploi</title>
<path fill="none" stroke="darkgrey" stroke-width="2.38" d="M242.15,-110.5C257.02,-81.25 278.04,-39.91 287.63,-21.06"/>
</g>
<!-- pollution -->
<g id="node1" class="node">
<title>pollution</title>
<ellipse fill="#fcffa4" stroke="white" stroke-width="0" cx="225.76" cy="-142.72" rx="36" ry="36"/>
<text text-anchor="middle" x="128.26" y="-187.32" font-family="Helvetica,sans-Serif" font-size="28.00" fill="#4d4d4d">pollution</text>
</g>
<!-- environnement -->
<g id="node2" class="node">
<title>environnement</title>
<ellipse fill="#490b6a" stroke="white" stroke-width="0" cx="359.07" cy="-207.74" rx="7" ry="7"/>
<text text-anchor="middle" x="294.07" y="-219.58" font-family="Helvetica,sans-Serif" font-size="15.20" fill="#4d4d4d">environnement</text>
</g>
<!-- destruction -->
<g id="node3" class="node">
<title>destruction</title>
<ellipse fill="#000004" stroke="white" stroke-width="0" cx="158.06" cy="-275.64" rx="0.5" ry="0.5"/>
<text text-anchor="middle" x="123.56" y="-279.54" font-family="Helvetica,sans-Serif" font-size="12.00" fill="#4d4d4d">destruction</text>
</g>
<!-- économie -->
<g id="node4" class="node">
<title>économie</title>
<ellipse fill="#6c186e" stroke="white" stroke-width="0" cx="94" cy="-73.25" rx="11" ry="11"/>
<text text-anchor="middle" x="41.5" y="-88.81" font-family="Helvetica,sans-Serif" font-size="16.80" fill="#4d4d4d">économie</text>
</g>
<!-- emploi -->
<g id="node5" class="node">
<title>emploi</title>
<ellipse fill="#520e6d" stroke="white" stroke-width="0" cx="292.74" cy="-11" rx="11" ry="11"/>
<text text-anchor="middle" x="252.74" y="-26.56" font-family="Helvetica,sans-Serif" font-size="16.80" fill="#4d4d4d">emploi</text>
</g>
</g>
</svg>
