<?xml version="1.0" encoding="UTF-8" standalone="no"?>
<!DOCTYPE svg PUBLIC "-//W3C//DTD SVG 1.1//EN"
 "http://www.w3.org/Graphics/SVG/1.1/DTD/svg11.dtd">
<!-- Generated by graphviz version 2.43.0 (0)
 -->
<!-- Pages: 1 -->
<svg width="925pt" height="620pt"
 viewBox="0.00 0.00 925.37 619.63" xmlns="http://www.w3.org/2000/svg" xmlns:xlink="http://www.w3.org/1999/xlink">
<g id="graph0" class="graph" transform="scale(1 1) rotate(0) translate(4 615.63)">
<polygon fill="white" stroke="transparent" points="-4,4 -4,-615.63 921.37,-615.63 921.37,4 -4,4"/>
<!-- avenir sans nickel&#45;&#45;industrie -->
<g id="edge1" class="edge">
<title>avenir sans nickel&#45;&#45;industrie</title>
<path fill="none" stroke="darkgrey" stroke-width="1.25" d="M267.79,-302.66C262.76,-350.52 253.1,-442.36 251.05,-461.87"/>
</g>
<!-- avenir sans nickel&#45;&#45;travail -->
<g id="edge2" class="edge">
<title>avenir sans nickel&#45;&#45;travail</title>
<path fill="none" stroke="darkgrey" stroke-width="3.55" d="M295.11,-289.43C337.1,-317.02 422.14,-372.91 456.75,-395.65"/>
</g>
<!-- avenir sans nickel&#45;&#45;politique -->
<g id="edge3" class="edge">
<title>avenir sans nickel&#45;&#45;politique</title>
<path fill="none" stroke="darkgrey" stroke-width="3.99" d="M299.56,-268.96C305.08,-268.09 310.77,-267.19 316.01,-266.36"/>
</g>
<!-- avenir sans nickel&#45;&#45;secteur nickel -->
<g id="edge4" class="edge">
<title>avenir sans nickel&#45;&#45;secteur nickel</title>
<path fill="none" stroke="darkgrey" stroke-width="3.37" d="M299.34,-268.01C357.66,-256.79 489.49,-231.42 541.11,-221.49"/>
</g>
<!-- avenir sans nickel&#45;&#45;relation politique -->
<g id="edge5" class="edge">
<title>avenir sans nickel&#45;&#45;relation politique</title>
<path fill="none" stroke="darkgrey" stroke-width="1.47" d="M275.82,-244.81C282.16,-208.13 292.65,-147.49 295.33,-132.02"/>
</g>
<!-- avenir sans nickel&#45;&#45;avenir avec nickel -->
<g id="edge6" class="edge">
<title>avenir sans nickel&#45;&#45;avenir avec nickel</title>
<path fill="none" stroke="darkgrey" stroke-width="3.32" d="M281.75,-300.52C292.65,-327.58 308.85,-367.78 316.37,-386.46"/>
</g>
<!-- avenir sans nickel&#45;&#45;pollution -->
<g id="edge7" class="edge">
<title>avenir sans nickel&#45;&#45;pollution</title>
<path fill="none" stroke="darkgrey" stroke-width="5.68" d="M298.69,-265.29C318.29,-259.52 344.27,-251.87 362.98,-246.36"/>
</g>
<!-- avenir sans nickel&#45;&#45;ressource minière -->
<g id="edge8" class="edge">
<title>avenir sans nickel&#45;&#45;ressource minière</title>
<path fill="none" stroke="darkgrey" stroke-width="5.76" d="M299.53,-267.17C335.94,-259.14 398.13,-245.43 432.44,-237.87"/>
</g>
<!-- avenir sans nickel&#45;&#45;dégradation environnementale -->
<g id="edge9" class="edge">
<title>avenir sans nickel&#45;&#45;dégradation environnementale</title>
<path fill="none" stroke="darkgrey" stroke-width="6.33" d="M298.81,-281.45C333.69,-291.38 393.32,-308.37 431.13,-319.14"/>
</g>
<!-- avenir sans nickel&#45;&#45;nature -->
<g id="edge10" class="edge">
<title>avenir sans nickel&#45;&#45;nature</title>
<path fill="none" stroke="darkgrey" stroke-width="1.42" d="M290.2,-251.54C323.82,-213.41 391.57,-136.54 413.87,-111.25"/>
</g>
<!-- avenir sans nickel&#45;&#45;société néo&#45;calédonienne -->
<g id="edge11" class="edge">
<title>avenir sans nickel&#45;&#45;société néo&#45;calédonienne</title>
<path fill="none" stroke="darkgrey" stroke-width="3.28" d="M297.82,-262.18C347.35,-241.41 451.16,-197.88 488.34,-182.28"/>
</g>
<!-- avenir sans nickel&#45;&#45;alternative au développement -->
<g id="edge12" class="edge">
<title>avenir sans nickel&#45;&#45;alternative au développement</title>
<path fill="none" stroke="darkgrey" stroke-width="4.77" d="M299.98,-275.09C356.05,-278.17 478.42,-284.91 534.4,-287.98"/>
</g>
<!-- avenir sans nickel&#45;&#45;nickel -->
<g id="edge13" class="edge">
<title>avenir sans nickel&#45;&#45;nickel</title>
<path fill="none" stroke="darkgrey" stroke-width="1.07" d="M294.29,-290.84C327.99,-315.78 388.14,-360.31 406.97,-374.25"/>
</g>
<!-- avenir sans nickel&#45;&#45;économie -->
<g id="edge14" class="edge">
<title>avenir sans nickel&#45;&#45;économie</title>
<path fill="none" stroke="darkgrey" stroke-width="2.92" d="M295.38,-289.15C311.79,-299.63 332.89,-313.1 346.98,-322.1"/>
</g>
<!-- avenir sans nickel&#45;&#45;amélioration environnementale -->
<g id="edge15" class="edge">
<title>avenir sans nickel&#45;&#45;amélioration environnementale</title>
<path fill="none" stroke="darkgrey" stroke-width="2.38" d="M290.95,-252.23C311.8,-230.16 343.35,-196.77 357.82,-181.45"/>
</g>
<!-- avenir sans nickel&#45;&#45;essor technologique -->
<g id="edge16" class="edge">
<title>avenir sans nickel&#45;&#45;essor technologique</title>
<path fill="none" stroke="darkgrey" stroke-width="1.66" d="M299.42,-280.53C353.03,-293.75 467.22,-321.92 511,-332.71"/>
</g>
<!-- avenir sans nickel&#45;&#45;risque -->
<g id="edge17" class="edge">
<title>avenir sans nickel&#45;&#45;risque</title>
<path fill="none" stroke="darkgrey" stroke-width="1.12" d="M242.35,-267.25C180.41,-253.69 38.19,-222.57 27.18,-220.16"/>
</g>
<!-- industrie&#45;&#45;politique -->
<g id="edge18" class="edge">
<title>industrie&#45;&#45;politique</title>
<path fill="none" stroke="darkgrey" stroke-width="1.09" d="M252.17,-462.06C261.28,-440.83 309.22,-329.13 329.04,-282.95"/>
</g>
<!-- industrie&#45;&#45;ressource minière -->
<g id="edge19" class="edge">
<title>industrie&#45;&#45;ressource minière</title>
<path fill="none" stroke="darkgrey" stroke-width="1.2" d="M253.27,-462.63C272.67,-440.7 395.03,-302.46 440.23,-251.39"/>
</g>
<!-- industrie&#45;&#45;dégradation environnementale -->
<g id="edge20" class="edge">
<title>industrie&#45;&#45;dégradation environnementale</title>
<path fill="none" stroke="darkgrey" stroke-width="1.01" d="M253.7,-463.65C273.17,-451.3 381.2,-382.8 435.2,-348.55"/>
</g>
<!-- industrie&#45;&#45;alternative au développement -->
<g id="edge21" class="edge">
<title>industrie&#45;&#45;alternative au développement</title>
<path fill="none" stroke="darkgrey" stroke-width="1.27" d="M253.75,-463.83C280.21,-448.95 468.97,-342.72 538.11,-303.81"/>
</g>
<!-- industrie&#45;&#45;nickel -->
<g id="edge22" class="edge">
<title>industrie&#45;&#45;nickel</title>
<path fill="none" stroke="darkgrey" stroke-width="1.25" d="M253.75,-463.91C273.27,-453.43 379.45,-396.44 406.5,-381.92"/>
</g>
<!-- industrie&#45;&#45;économie -->
<g id="edge23" class="edge">
<title>industrie&#45;&#45;économie</title>
<path fill="none" stroke="darkgrey" stroke-width="1.28" d="M252.99,-462.78C265.52,-447.79 325.23,-376.36 350.76,-345.82"/>
</g>
<!-- travail&#45;&#45;politique -->
<g id="edge24" class="edge">
<title>travail&#45;&#45;politique</title>
<path fill="none" stroke="darkgrey" stroke-width="3.74" d="M459.52,-392.45C434.72,-366.1 379.08,-306.98 352.42,-278.66"/>
</g>
<!-- travail&#45;&#45;secteur nickel -->
<g id="edge25" class="edge">
<title>travail&#45;&#45;secteur nickel</title>
<path fill="none" stroke="darkgrey" stroke-width="3.9" d="M479.78,-389.24C496.42,-354.63 535.11,-274.16 553.01,-236.93"/>
</g>
<!-- travail&#45;&#45;relation politique -->
<g id="edge26" class="edge">
<title>travail&#45;&#45;relation politique</title>
<path fill="none" stroke="darkgrey" stroke-width="1.15" d="M462.2,-390.32C428.05,-336.5 314.65,-157.8 298.01,-131.57"/>
</g>
<!-- travail&#45;&#45;avenir avec nickel -->
<g id="edge27" class="edge">
<title>travail&#45;&#45;avenir avec nickel</title>
<path fill="none" stroke="darkgrey" stroke-width="1.9" d="M453.65,-404.54C421.87,-402.66 357.33,-398.85 331.52,-397.32"/>
</g>
<!-- travail&#45;&#45;pollution -->
<g id="edge28" class="edge">
<title>travail&#45;&#45;pollution</title>
<path fill="none" stroke="darkgrey" stroke-width="5.4" d="M463.62,-389.37C448.35,-359.45 415.78,-295.61 398.45,-261.63"/>
</g>
<!-- travail&#45;&#45;ressource minière -->
<g id="edge29" class="edge">
<title>travail&#45;&#45;ressource minière</title>
<path fill="none" stroke="darkgrey" stroke-width="3.08" d="M470.34,-387.42C467.66,-356.33 462.2,-292.96 459.16,-257.64"/>
</g>
<!-- travail&#45;&#45;dégradation environnementale -->
<g id="edge30" class="edge">
<title>travail&#45;&#45;dégradation environnementale</title>
<path fill="none" stroke="darkgrey" stroke-width="6.49" d="M470.5,-387.47C469.98,-380.75 469.36,-372.87 468.76,-365.12"/>
</g>
<!-- travail&#45;&#45;nature -->
<g id="edge31" class="edge">
<title>travail&#45;&#45;nature</title>
<path fill="none" stroke="darkgrey" stroke-width="1.35" d="M468.89,-387.59C459.44,-331.22 430.62,-159.32 423.02,-114.01"/>
</g>
<!-- travail&#45;&#45;société néo&#45;calédonienne -->
<g id="edge32" class="edge">
<title>travail&#45;&#45;société néo&#45;calédonienne</title>
<path fill="none" stroke="darkgrey" stroke-width="3.72" d="M474.27,-387.65C480.04,-343.67 494.78,-231.31 500.05,-191.13"/>
</g>
<!-- travail&#45;&#45;alternative au développement -->
<g id="edge34" class="edge">
<title>travail&#45;&#45;alternative au développement</title>
<path fill="none" stroke="darkgrey" stroke-width="4.04" d="M483.13,-391.39C498.59,-371.78 526.63,-336.22 545.13,-312.75"/>
</g>
<!-- travail&#45;&#45;nickel -->
<g id="edge35" class="edge">
<title>travail&#45;&#45;nickel</title>
<path fill="none" stroke="darkgrey" stroke-width="1.72" d="M455.44,-398.08C443.4,-392.57 427.75,-385.41 419.14,-381.46"/>
</g>
<!-- travail&#45;&#45;économie -->
<g id="edge36" class="edge">
<title>travail&#45;&#45;économie</title>
<path fill="none" stroke="darkgrey" stroke-width="4.15" d="M456.68,-395.37C435.75,-381.3 398.33,-356.12 377.47,-342.09"/>
</g>
<!-- travail&#45;&#45;amélioration environnementale -->
<g id="edge37" class="edge">
<title>travail&#45;&#45;amélioration environnementale</title>
<path fill="none" stroke="darkgrey" stroke-width="3" d="M464.26,-388.91C443.55,-343.64 386.79,-219.62 370.19,-183.34"/>
</g>
<!-- travail&#45;&#45;essor technologique -->
<g id="edge38" class="edge">
<title>travail&#45;&#45;essor technologique</title>
<path fill="none" stroke="darkgrey" stroke-width="3.25" d="M483.38,-391.74C493.08,-380 506.93,-363.24 516.74,-351.38"/>
</g>
<!-- travail&#45;&#45;nouvelle&#45;calédonie -->
<g id="edge33" class="edge">
<title>travail&#45;&#45;nouvelle&#45;calédonie</title>
<path fill="none" stroke="darkgrey" stroke-width="1.17" d="M489.95,-404.69C520.62,-403.1 581.67,-399.95 602.62,-398.87"/>
</g>
<!-- travail&#45;&#45;matériel -->
<g id="edge39" class="edge">
<title>travail&#45;&#45;matériel</title>
<path fill="none" stroke="darkgrey" stroke-width="1.39" d="M484.79,-418.51C527.08,-460.86 659.5,-593.48 667.74,-601.72"/>
</g>
<!-- politique&#45;&#45;secteur nickel -->
<g id="edge47" class="edge">
<title>politique&#45;&#45;secteur nickel</title>
<path fill="none" stroke="darkgrey" stroke-width="4.1" d="M358.78,-258.66C401.62,-249.98 498.22,-230.4 541.15,-221.7"/>
</g>
<!-- politique&#45;&#45;relation politique -->
<g id="edge48" class="edge">
<title>politique&#45;&#45;relation politique</title>
<path fill="none" stroke="darkgrey" stroke-width="2.03" d="M331.21,-242.21C320.98,-209.17 301.67,-146.78 297,-131.69"/>
</g>
<!-- politique&#45;&#45;avenir avec nickel -->
<g id="edge49" class="edge">
<title>politique&#45;&#45;avenir avec nickel</title>
<path fill="none" stroke="darkgrey" stroke-width="1.81" d="M334.88,-284.43C331.18,-313.23 324.77,-363.28 321.92,-385.5"/>
</g>
<!-- politique&#45;&#45;pollution -->
<g id="edge50" class="edge">
<title>politique&#45;&#45;pollution</title>
<path fill="none" stroke="darkgrey" stroke-width="3.73" d="M357.16,-253.59C359.54,-252.46 361.98,-251.29 364.39,-250.13"/>
</g>
<!-- politique&#45;&#45;ressource minière -->
<g id="edge51" class="edge">
<title>politique&#45;&#45;ressource minière</title>
<path fill="none" stroke="darkgrey" stroke-width="4.17" d="M358.7,-257.57C379.31,-252.3 410.69,-244.28 432.43,-238.73"/>
</g>
<!-- politique&#45;&#45;dégradation environnementale -->
<g id="edge52" class="edge">
<title>politique&#45;&#45;dégradation environnementale</title>
<path fill="none" stroke="darkgrey" stroke-width="5.3" d="M356.84,-272.84C377.12,-283.29 409.43,-299.94 433.64,-312.41"/>
</g>
<!-- politique&#45;&#45;nature -->
<g id="edge53" class="edge">
<title>politique&#45;&#45;nature</title>
<path fill="none" stroke="darkgrey" stroke-width="1.13" d="M347.71,-243.65C365.59,-209.41 402.26,-139.18 415.9,-113.06"/>
</g>
<!-- politique&#45;&#45;société néo&#45;calédonienne -->
<g id="edge54" class="edge">
<title>politique&#45;&#45;société néo&#45;calédonienne</title>
<path fill="none" stroke="darkgrey" stroke-width="2.61" d="M356.8,-252.87C390.67,-235.07 460.22,-198.51 489.02,-183.37"/>
</g>
<!-- politique&#45;&#45;alternative au développement -->
<g id="edge56" class="edge">
<title>politique&#45;&#45;alternative au développement</title>
<path fill="none" stroke="darkgrey" stroke-width="3.35" d="M359.28,-265.5C400.12,-270.32 488.53,-280.75 534.43,-286.16"/>
</g>
<!-- politique&#45;&#45;nickel -->
<g id="edge57" class="edge">
<title>politique&#45;&#45;nickel</title>
<path fill="none" stroke="darkgrey" stroke-width="1.39" d="M349.37,-281.01C366.54,-307.43 397.66,-355.31 408.73,-372.33"/>
</g>
<!-- politique&#45;&#45;économie -->
<g id="edge58" class="edge">
<title>politique&#45;&#45;économie</title>
<path fill="none" stroke="darkgrey" stroke-width="3.91" d="M344.92,-283.27C348.51,-293.29 352.8,-305.23 356.22,-314.78"/>
</g>
<!-- politique&#45;&#45;amélioration environnementale -->
<g id="edge59" class="edge">
<title>politique&#45;&#45;amélioration environnementale</title>
<path fill="none" stroke="darkgrey" stroke-width="1.25" d="M344.11,-242.14C349.79,-223.93 357.8,-198.19 362.26,-183.89"/>
</g>
<!-- politique&#45;&#45;essor technologique -->
<g id="edge60" class="edge">
<title>politique&#45;&#45;essor technologique</title>
<path fill="none" stroke="darkgrey" stroke-width="1.22" d="M357.71,-270.74C395.43,-285.38 476.29,-316.75 511.55,-330.44"/>
</g>
<!-- politique&#45;&#45;risque -->
<g id="edge61" class="edge">
<title>politique&#45;&#45;risque</title>
<path fill="none" stroke="darkgrey" stroke-width="1.29" d="M316.25,-260C248.15,-250.6 40.07,-221.88 27.13,-220.1"/>
</g>
<!-- politique&#45;&#45;nouvelle&#45;calédonie -->
<g id="edge55" class="edge">
<title>politique&#45;&#45;nouvelle&#45;calédonie</title>
<path fill="none" stroke="darkgrey" stroke-width="1.86" d="M357.21,-272.7C412.81,-300.38 569.79,-378.53 603.46,-395.3"/>
</g>
<!-- secteur nickel&#45;&#45;relation politique -->
<g id="edge62" class="edge">
<title>secteur nickel&#45;&#45;relation politique</title>
<path fill="none" stroke="darkgrey" stroke-width="1.7" d="M541.94,-210.56C484.67,-191.42 325.27,-138.14 299.5,-129.53"/>
</g>
<!-- secteur nickel&#45;&#45;avenir avec nickel -->
<g id="edge63" class="edge">
<title>secteur nickel&#45;&#45;avenir avec nickel</title>
<path fill="none" stroke="darkgrey" stroke-width="2" d="M545,-230.29C497.34,-265.61 365.78,-363.1 329.73,-389.82"/>
</g>
<!-- secteur nickel&#45;&#45;pollution -->
<g id="edge64" class="edge">
<title>secteur nickel&#45;&#45;pollution</title>
<path fill="none" stroke="darkgrey" stroke-width="4.1" d="M540.9,-220.08C508.34,-224.14 446.68,-231.84 412.12,-236.15"/>
</g>
<!-- secteur nickel&#45;&#45;ressource minière -->
<g id="edge65" class="edge">
<title>secteur nickel&#45;&#45;ressource minière</title>
<path fill="none" stroke="darkgrey" stroke-width="2.67" d="M541.07,-220.44C523.98,-222.89 499.98,-226.32 481.99,-228.89"/>
</g>
<!-- secteur nickel&#45;&#45;dégradation environnementale -->
<g id="edge66" class="edge">
<title>secteur nickel&#45;&#45;dégradation environnementale</title>
<path fill="none" stroke="darkgrey" stroke-width="3.79" d="M548.17,-233.87C532.77,-251.71 507.94,-280.44 489.6,-301.68"/>
</g>
<!-- secteur nickel&#45;&#45;société néo&#45;calédonienne -->
<g id="edge67" class="edge">
<title>secteur nickel&#45;&#45;société néo&#45;calédonienne</title>
<path fill="none" stroke="darkgrey" stroke-width="2.25" d="M544.27,-205.15C534.53,-198.57 522.79,-190.64 514.15,-184.81"/>
</g>
<!-- secteur nickel&#45;&#45;alternative au développement -->
<g id="edge69" class="edge">
<title>secteur nickel&#45;&#45;alternative au développement</title>
<path fill="none" stroke="darkgrey" stroke-width="5.77" d="M562.7,-239.05C562.79,-245.78 562.9,-253.31 563,-260.46"/>
</g>
<!-- secteur nickel&#45;&#45;nickel -->
<g id="edge70" class="edge">
<title>secteur nickel&#45;&#45;nickel</title>
<path fill="none" stroke="darkgrey" stroke-width="2.37" d="M547.51,-233.44C514.83,-268.63 438.16,-351.2 417.8,-373.13"/>
</g>
<!-- secteur nickel&#45;&#45;économie -->
<g id="edge71" class="edge">
<title>secteur nickel&#45;&#45;économie</title>
<path fill="none" stroke="darkgrey" stroke-width="2.83" d="M543.58,-228.17C504.39,-250.61 414.63,-302.01 378.18,-322.88"/>
</g>
<!-- secteur nickel&#45;&#45;amélioration environnementale -->
<g id="edge72" class="edge">
<title>secteur nickel&#45;&#45;amélioration environnementale</title>
<path fill="none" stroke="darkgrey" stroke-width="3.38" d="M541.34,-212.67C499.69,-203.33 408.1,-182.79 376.52,-175.71"/>
</g>
<!-- secteur nickel&#45;&#45;essor technologique -->
<g id="edge74" class="edge">
<title>secteur nickel&#45;&#45;essor technologique</title>
<path fill="none" stroke="darkgrey" stroke-width="2.37" d="M556.51,-238.24C550,-261.27 539.63,-297.96 533.53,-319.56"/>
</g>
<!-- secteur nickel&#45;&#45;nouvelle&#45;calédonie -->
<g id="edge68" class="edge">
<title>secteur nickel&#45;&#45;nouvelle&#45;calédonie</title>
<path fill="none" stroke="darkgrey" stroke-width="1.4" d="M567.94,-238.52C578.6,-279.2 601.51,-366.6 608.08,-391.65"/>
</g>
<!-- secteur nickel&#45;&#45;foncier -->
<g id="edge73" class="edge">
<title>secteur nickel&#45;&#45;foncier</title>
<path fill="none" stroke="darkgrey" stroke-width="1.16" d="M584.04,-216.96C658.6,-215.48 901.05,-210.64 916.13,-210.33"/>
</g>
<!-- secteur nickel&#45;&#45;échange commercial -->
<g id="edge75" class="edge">
<title>secteur nickel&#45;&#45;échange commercial</title>
<path fill="none" stroke="darkgrey" stroke-width="1.31" d="M562.13,-195.81C561.48,-143.52 559.86,-13.48 559.71,-1.4"/>
</g>
<!-- relation politique&#45;&#45;avenir avec nickel -->
<g id="edge76" class="edge">
<title>relation politique&#45;&#45;avenir avec nickel</title>
<path fill="none" stroke="darkgrey" d="M296.31,-132.14C298.89,-160.42 315.18,-338.58 319.45,-385.41"/>
</g>
<!-- relation politique&#45;&#45;pollution -->
<g id="edge77" class="edge">
<title>relation politique&#45;&#45;pollution</title>
<path fill="none" stroke="darkgrey" stroke-width="1.35" d="M298.21,-131.09C308.08,-143.1 347.99,-191.71 370.81,-219.51"/>
</g>
<!-- relation politique&#45;&#45;ressource minière -->
<g id="edge78" class="edge">
<title>relation politique&#45;&#45;ressource minière</title>
<path fill="none" stroke="darkgrey" stroke-width="1.25" d="M299.03,-130.34C315.77,-141.16 396.65,-193.45 435.74,-218.72"/>
</g>
<!-- relation politique&#45;&#45;dégradation environnementale -->
<g id="edge79" class="edge">
<title>relation politique&#45;&#45;dégradation environnementale</title>
<path fill="none" stroke="darkgrey" stroke-width="1.61" d="M298.36,-131.19C313.86,-149.48 400.38,-251.64 442.67,-301.57"/>
</g>
<!-- relation politique&#45;&#45;économie -->
<g id="edge80" class="edge">
<title>relation politique&#45;&#45;économie</title>
<path fill="none" stroke="darkgrey" stroke-width="1.85" d="M297.11,-131.88C304.21,-153.64 342.14,-269.92 356.69,-314.51"/>
</g>
<!-- relation politique&#45;&#45;échange commercial -->
<g id="edge81" class="edge">
<title>relation politique&#45;&#45;échange commercial</title>
<path fill="none" stroke="darkgrey" stroke-width="1.12" d="M299.3,-126.73C328.87,-112.39 545.52,-7.37 559.04,-0.82"/>
</g>
<!-- avenir avec nickel&#45;&#45;pollution -->
<g id="edge82" class="edge">
<title>avenir avec nickel&#45;&#45;pollution</title>
<path fill="none" stroke="darkgrey" stroke-width="1.32" d="M324.85,-386.34C335.41,-361.38 362.52,-297.27 377.22,-262.51"/>
</g>
<!-- avenir avec nickel&#45;&#45;ressource minière -->
<g id="edge83" class="edge">
<title>avenir avec nickel&#45;&#45;ressource minière</title>
<path fill="none" stroke="darkgrey" stroke-width="1.82" d="M327.82,-387.84C349.09,-362.26 411.11,-287.65 440.79,-251.94"/>
</g>
<!-- avenir avec nickel&#45;&#45;dégradation environnementale -->
<g id="edge84" class="edge">
<title>avenir avec nickel&#45;&#45;dégradation environnementale</title>
<path fill="none" stroke="darkgrey" stroke-width="2.95" d="M330.48,-392.02C351.34,-382.33 400.31,-359.57 433.29,-344.24"/>
</g>
<!-- avenir avec nickel&#45;&#45;alternative au développement -->
<g id="edge85" class="edge">
<title>avenir avec nickel&#45;&#45;alternative au développement</title>
<path fill="none" stroke="darkgrey" stroke-width="2.55" d="M330.61,-392.21C365.81,-376.69 483.57,-324.77 536.83,-301.29"/>
</g>
<!-- avenir avec nickel&#45;&#45;économie -->
<g id="edge86" class="edge">
<title>avenir avec nickel&#45;&#45;économie</title>
<path fill="none" stroke="darkgrey" stroke-width="2.38" d="M326.49,-387.4C333.27,-376.91 344.43,-359.67 352.5,-347.19"/>
</g>
<!-- avenir avec nickel&#45;&#45;amélioration environnementale -->
<g id="edge87" class="edge">
<title>avenir avec nickel&#45;&#45;amélioration environnementale</title>
<path fill="none" stroke="darkgrey" stroke-width="3.04" d="M322.72,-385.59C330.41,-347.47 355.74,-221.96 363.38,-184.13"/>
</g>
<!-- avenir avec nickel&#45;&#45;essor technologique -->
<g id="edge88" class="edge">
<title>avenir avec nickel&#45;&#45;essor technologique</title>
<path fill="none" stroke="darkgrey" stroke-width="2.45" d="M331.09,-393.63C364.72,-384 469.2,-354.06 511.02,-342.08"/>
</g>
<!-- pollution&#45;&#45;ressource minière -->
<g id="edge89" class="edge">
<title>pollution&#45;&#45;ressource minière</title>
<path fill="none" stroke="darkgrey" stroke-width="4.67" d="M412.3,-236.82C418.71,-236.19 425.61,-235.52 432.01,-234.89"/>
</g>
<!-- pollution&#45;&#45;dégradation environnementale -->
<g id="edge90" class="edge">
<title>pollution&#45;&#45;dégradation environnementale</title>
<path fill="none" stroke="darkgrey" stroke-width="10" d="M403.78,-258.32C414.91,-270.98 429.7,-287.81 442.06,-301.87"/>
</g>
<!-- pollution&#45;&#45;nature -->
<g id="edge91" class="edge">
<title>pollution&#45;&#45;nature</title>
<path fill="none" stroke="darkgrey" stroke-width="2.84" d="M393.15,-214.91C400.62,-185.05 412.97,-135.73 418.43,-113.92"/>
</g>
<!-- pollution&#45;&#45;société néo&#45;calédonienne -->
<g id="edge92" class="edge">
<title>pollution&#45;&#45;société néo&#45;calédonienne</title>
<path fill="none" stroke="darkgrey" stroke-width="3.81" d="M409.2,-227.19C432.94,-214.23 469.81,-194.12 489.14,-183.57"/>
</g>
<!-- pollution&#45;&#45;alternative au développement -->
<g id="edge94" class="edge">
<title>pollution&#45;&#45;alternative au développement</title>
<path fill="none" stroke="darkgrey" stroke-width="4.92" d="M411.2,-246.17C443.65,-255.42 501.2,-271.84 535.47,-281.62"/>
</g>
<!-- pollution&#45;&#45;nickel -->
<g id="edge95" class="edge">
<title>pollution&#45;&#45;nickel</title>
<path fill="none" stroke="darkgrey" stroke-width="2.35" d="M391.64,-264.18C397.66,-296.73 407.84,-351.89 411.45,-371.43"/>
</g>
<!-- pollution&#45;&#45;économie -->
<g id="edge96" class="edge">
<title>pollution&#45;&#45;économie</title>
<path fill="none" stroke="darkgrey" stroke-width="4.64" d="M380.56,-263.62C376.31,-279.6 370.84,-300.12 367.02,-314.48"/>
</g>
<!-- pollution&#45;&#45;amélioration environnementale -->
<g id="edge97" class="edge">
<title>pollution&#45;&#45;amélioration environnementale</title>
<path fill="none" stroke="darkgrey" stroke-width="1.95" d="M379.29,-215.44C375.79,-204.66 371.82,-192.45 369.05,-183.95"/>
</g>
<!-- pollution&#45;&#45;essor technologique -->
<g id="edge98" class="edge">
<title>pollution&#45;&#45;essor technologique</title>
<path fill="none" stroke="darkgrey" stroke-width="3.07" d="M407.63,-253.5C436.46,-273.41 488.18,-309.14 513.62,-326.71"/>
</g>
<!-- pollution&#45;&#45;risque -->
<g id="edge99" class="edge">
<title>pollution&#45;&#45;risque</title>
<path fill="none" stroke="darkgrey" stroke-width="1.13" d="M361.98,-237.94C282.77,-233.71 42.19,-220.85 27.23,-220.05"/>
</g>
<!-- pollution&#45;&#45;nouvelle&#45;calédonie -->
<g id="edge93" class="edge">
<title>pollution&#45;&#45;nouvelle&#45;calédonie</title>
<path fill="none" stroke="darkgrey" stroke-width="1.44" d="M407.61,-253.97C456.09,-288.61 575.59,-374 603.82,-394.17"/>
</g>
<!-- ressource minière&#45;&#45;dégradation environnementale -->
<g id="edge100" class="edge">
<title>ressource minière&#45;&#45;dégradation environnementale</title>
<path fill="none" stroke="darkgrey" stroke-width="6.69" d="M459.32,-257.59C460.33,-268.43 461.52,-281.32 462.62,-293.14"/>
</g>
<!-- ressource minière&#45;&#45;nature -->
<g id="edge101" class="edge">
<title>ressource minière&#45;&#45;nature</title>
<path fill="none" stroke="darkgrey" stroke-width="1.13" d="M450.25,-208.1C442.43,-179.82 429.87,-134.43 424.16,-113.8"/>
</g>
<!-- ressource minière&#45;&#45;société néo&#45;calédonienne -->
<g id="edge102" class="edge">
<title>ressource minière&#45;&#45;société néo&#45;calédonienne</title>
<path fill="none" stroke="darkgrey" stroke-width="1.38" d="M472.72,-212.91C479.4,-204.6 486.97,-195.2 492.73,-188.04"/>
</g>
<!-- ressource minière&#45;&#45;alternative au développement -->
<g id="edge104" class="edge">
<title>ressource minière&#45;&#45;alternative au développement</title>
<path fill="none" stroke="darkgrey" stroke-width="5.19" d="M479.04,-244.29C496.08,-253.44 519.71,-266.13 537.63,-275.75"/>
</g>
<!-- ressource minière&#45;&#45;nickel -->
<g id="edge105" class="edge">
<title>ressource minière&#45;&#45;nickel</title>
<path fill="none" stroke="darkgrey" stroke-width="1.51" d="M449.69,-256.58C439.33,-290.78 420.97,-351.46 414.83,-371.74"/>
</g>
<!-- ressource minière&#45;&#45;économie -->
<g id="edge106" class="edge">
<title>ressource minière&#45;&#45;économie</title>
<path fill="none" stroke="darkgrey" stroke-width="3.9" d="M439.63,-250.7C420.85,-270.45 391.38,-301.44 374.79,-318.88"/>
</g>
<!-- ressource minière&#45;&#45;amélioration environnementale -->
<g id="edge107" class="edge">
<title>ressource minière&#45;&#45;amélioration environnementale</title>
<path fill="none" stroke="darkgrey" stroke-width="2.01" d="M435.79,-218.73C416.59,-206.29 389.2,-188.55 374.97,-179.34"/>
</g>
<!-- ressource minière&#45;&#45;essor technologique -->
<g id="edge108" class="edge">
<title>ressource minière&#45;&#45;essor technologique</title>
<path fill="none" stroke="darkgrey" stroke-width="4.26" d="M471.13,-253.12C485.07,-273.48 506.02,-304.09 518.4,-322.17"/>
</g>
<!-- ressource minière&#45;&#45;nouvelle&#45;calédonie -->
<g id="edge103" class="edge">
<title>ressource minière&#45;&#45;nouvelle&#45;calédonie</title>
<path fill="none" stroke="darkgrey" stroke-width="1.68" d="M473.93,-250.86C508.3,-288.18 584.64,-371.09 604.87,-393.06"/>
</g>
<!-- ressource minière&#45;&#45;échange commercial -->
<g id="edge109" class="edge">
<title>ressource minière&#45;&#45;échange commercial</title>
<path fill="none" stroke="darkgrey" stroke-width="1.06" d="M467.21,-209.37C492.18,-152.99 554.56,-12.09 559.4,-1.17"/>
</g>
<!-- dégradation environnementale&#45;&#45;nature -->
<g id="edge110" class="edge">
<title>dégradation environnementale&#45;&#45;nature</title>
<path fill="none" stroke="darkgrey" stroke-width="3.9" d="M458.96,-293.73C448.62,-241.57 429.81,-146.62 423.39,-114.18"/>
</g>
<!-- dégradation environnementale&#45;&#45;société néo&#45;calédonienne -->
<g id="edge111" class="edge">
<title>dégradation environnementale&#45;&#45;société néo&#45;calédonienne</title>
<path fill="none" stroke="darkgrey" stroke-width="3.06" d="M474.3,-293.69C482.03,-260.96 493.13,-213.97 498.62,-190.71"/>
</g>
<!-- dégradation environnementale&#45;&#45;alternative au développement -->
<g id="edge113" class="edge">
<title>dégradation environnementale&#45;&#45;alternative au développement</title>
<path fill="none" stroke="darkgrey" stroke-width="5.28" d="M499.49,-315.47C511.49,-310.61 524.86,-305.19 536.25,-300.58"/>
</g>
<!-- dégradation environnementale&#45;&#45;nickel -->
<g id="edge114" class="edge">
<title>dégradation environnementale&#45;&#45;nickel</title>
<path fill="none" stroke="darkgrey" stroke-width="2.49" d="M439.36,-353.8C431.26,-361.34 423.16,-368.88 418.06,-373.62"/>
</g>
<!-- dégradation environnementale&#45;&#45;économie -->
<g id="edge115" class="edge">
<title>dégradation environnementale&#45;&#45;économie</title>
<path fill="none" stroke="darkgrey" stroke-width="6.54" d="M429.72,-330.06C413.04,-330.53 393.98,-331.05 380.4,-331.43"/>
</g>
<!-- dégradation environnementale&#45;&#45;amélioration environnementale -->
<g id="edge116" class="edge">
<title>dégradation environnementale&#45;&#45;amélioration environnementale</title>
<path fill="none" stroke="darkgrey" stroke-width="2.98" d="M446.36,-298.65C423.2,-262.69 385.97,-204.91 371.55,-182.53"/>
</g>
<!-- dégradation environnementale&#45;&#45;essor technologique -->
<g id="edge117" class="edge">
<title>dégradation environnementale&#45;&#45;essor technologique</title>
<path fill="none" stroke="darkgrey" stroke-width="3.7" d="M502.02,-333.66C504.96,-334.03 507.84,-334.4 510.56,-334.75"/>
</g>
<!-- dégradation environnementale&#45;&#45;nouvelle&#45;calédonie -->
<g id="edge112" class="edge">
<title>dégradation environnementale&#45;&#45;nouvelle&#45;calédonie</title>
<path fill="none" stroke="darkgrey" stroke-width="1.58" d="M498.61,-344.81C533.11,-361.46 585,-386.49 603.24,-395.29"/>
</g>
<!-- dégradation environnementale&#45;&#45;matériel -->
<g id="edge118" class="edge">
<title>dégradation environnementale&#45;&#45;matériel</title>
<path fill="none" stroke="darkgrey" stroke-width="1.16" d="M487.4,-358.02C537.81,-426.1 660.17,-591.36 667.77,-601.63"/>
</g>
<!-- nature&#45;&#45;société néo&#45;calédonienne -->
<g id="edge119" class="edge">
<title>nature&#45;&#45;société néo&#45;calédonienne</title>
<path fill="none" stroke="darkgrey" stroke-width="1.92" d="M429.51,-110.57C444.19,-123.94 474.61,-151.66 490.98,-166.57"/>
</g>
<!-- nature&#45;&#45;alternative au développement -->
<g id="edge120" class="edge">
<title>nature&#45;&#45;alternative au développement</title>
<path fill="none" stroke="darkgrey" stroke-width="1.6" d="M428.03,-111.97C449.23,-139.78 514.15,-224.96 545.75,-266.42"/>
</g>
<!-- nature&#45;&#45;économie -->
<g id="edge121" class="edge">
<title>nature&#45;&#45;économie</title>
<path fill="none" stroke="darkgrey" stroke-width="1.04" d="M418.41,-113.71C409.06,-150.13 378.47,-269.24 366.88,-314.38"/>
</g>
<!-- nature&#45;&#45;amélioration environnementale -->
<g id="edge122" class="edge">
<title>nature&#45;&#45;amélioration environnementale</title>
<path fill="none" stroke="darkgrey" stroke-width="1.19" d="M414.13,-111.87C403.49,-125.32 383.44,-150.67 372.73,-164.2"/>
</g>
<!-- nature&#45;&#45;essor technologique -->
<g id="edge123" class="edge">
<title>nature&#45;&#45;essor technologique</title>
<path fill="none" stroke="darkgrey" stroke-width="1.22" d="M425.78,-113.03C442.53,-149.52 500.19,-275.17 521.01,-320.54"/>
</g>
<!-- société néo&#45;calédonienne&#45;&#45;alternative au développement -->
<g id="edge125" class="edge">
<title>société néo&#45;calédonienne&#45;&#45;alternative au développement</title>
<path fill="none" stroke="darkgrey" stroke-width="3.29" d="M509.01,-189.54C518.84,-207.62 536.89,-240.82 549.49,-263.99"/>
</g>
<!-- société néo&#45;calédonienne&#45;&#45;nickel -->
<g id="edge126" class="edge">
<title>société néo&#45;calédonienne&#45;&#45;nickel</title>
<path fill="none" stroke="darkgrey" stroke-width="2.22" d="M495.97,-190.14C478.55,-229.59 428.34,-343.27 415.69,-371.93"/>
</g>
<!-- société néo&#45;calédonienne&#45;&#45;économie -->
<g id="edge127" class="edge">
<title>société néo&#45;calédonienne&#45;&#45;économie</title>
<path fill="none" stroke="darkgrey" stroke-width="3.08" d="M491.92,-187.75C466.92,-215.58 401.91,-287.93 374.67,-318.25"/>
</g>
<!-- société néo&#45;calédonienne&#45;&#45;amélioration environnementale -->
<g id="edge128" class="edge">
<title>société néo&#45;calédonienne&#45;&#45;amélioration environnementale</title>
<path fill="none" stroke="darkgrey" stroke-width="1.03" d="M487.36,-176.22C460.01,-175.55 401.59,-174.13 376.93,-173.53"/>
</g>
<!-- société néo&#45;calédonienne&#45;&#45;nouvelle&#45;calédonie -->
<g id="edge124" class="edge">
<title>société néo&#45;calédonienne&#45;&#45;nouvelle&#45;calédonie</title>
<path fill="none" stroke="darkgrey" stroke-width="1.79" d="M508.39,-189.79C528.81,-231.78 591.73,-361.18 606.66,-391.9"/>
</g>
<!-- alternative au développement&#45;&#45;nickel -->
<g id="edge132" class="edge">
<title>alternative au développement&#45;&#45;nickel</title>
<path fill="none" stroke="darkgrey" stroke-width="2.25" d="M538.19,-304.47C502.34,-325.64 438.78,-363.18 418.89,-374.93"/>
</g>
<!-- alternative au développement&#45;&#45;économie -->
<g id="edge133" class="edge">
<title>alternative au développement&#45;&#45;économie</title>
<path fill="none" stroke="darkgrey" stroke-width="5.62" d="M534.6,-295.65C492.36,-304.55 414.89,-320.87 380.1,-328.2"/>
</g>
<!-- alternative au développement&#45;&#45;amélioration environnementale -->
<g id="edge134" class="edge">
<title>alternative au développement&#45;&#45;amélioration environnementale</title>
<path fill="none" stroke="darkgrey" stroke-width="4.58" d="M538.35,-274.85C494.26,-248.92 404.71,-196.26 375.22,-178.92"/>
</g>
<!-- alternative au développement&#45;&#45;essor technologique -->
<g id="edge136" class="edge">
<title>alternative au développement&#45;&#45;essor technologique</title>
<path fill="none" stroke="darkgrey" stroke-width="4.43" d="M546.2,-313.04C543.87,-316.21 541.53,-319.4 539.36,-322.36"/>
</g>
<!-- alternative au développement&#45;&#45;foncier -->
<g id="edge135" class="edge">
<title>alternative au développement&#45;&#45;foncier</title>
<path fill="none" stroke="darkgrey" stroke-width="1" d="M591.73,-283.23C672.98,-265.01 901.95,-213.67 916.18,-210.48"/>
</g>
<!-- nickel&#45;&#45;économie -->
<g id="edge137" class="edge">
<title>nickel&#45;&#45;économie</title>
<path fill="none" stroke="darkgrey" stroke-width="1.61" d="M407.37,-373.56C399.86,-366.61 385.99,-353.78 375.63,-344.2"/>
</g>
<!-- nickel&#45;&#45;amélioration environnementale -->
<g id="edge138" class="edge">
<title>nickel&#45;&#45;amélioration environnementale</title>
<path fill="none" stroke="darkgrey" stroke-width="1.37" d="M411.2,-371.72C404.29,-341.66 376.56,-221.03 368.06,-184.07"/>
</g>
<!-- nickel&#45;&#45;essor technologique -->
<g id="edge139" class="edge">
<title>nickel&#45;&#45;essor technologique</title>
<path fill="none" stroke="darkgrey" stroke-width="1.23" d="M419.67,-376.08C437.49,-369.69 485.49,-352.49 511.41,-343.2"/>
</g>
<!-- nickel&#45;&#45;échange commercial -->
<g id="edge140" class="edge">
<title>nickel&#45;&#45;échange commercial</title>
<path fill="none" stroke="darkgrey" stroke-width="1.02" d="M415.32,-371.99C434.37,-322.96 553.9,-15.41 559.49,-1.02"/>
</g>
<!-- économie&#45;&#45;amélioration environnementale -->
<g id="edge141" class="edge">
<title>économie&#45;&#45;amélioration environnementale</title>
<path fill="none" stroke="darkgrey" stroke-width="1.8" d="M362.74,-313.73C363.4,-280.68 364.8,-211.71 365.35,-184.57"/>
</g>
<!-- économie&#45;&#45;essor technologique -->
<g id="edge142" class="edge">
<title>économie&#45;&#45;essor technologique</title>
<path fill="none" stroke="darkgrey" stroke-width="1.55" d="M380.47,-332.49C412.45,-333.47 478.55,-335.51 510.5,-336.49"/>
</g>
<!-- amélioration environnementale&#45;&#45;essor technologique -->
<g id="edge143" class="edge">
<title>amélioration environnementale&#45;&#45;essor technologique</title>
<path fill="none" stroke="darkgrey" stroke-width="2.15" d="M373.44,-181.15C399.51,-207.35 483.31,-291.56 515.67,-324.07"/>
</g>
<!-- essor technologique&#45;&#45;matériel -->
<g id="edge144" class="edge">
<title>essor technologique&#45;&#45;matériel</title>
<path fill="none" stroke="darkgrey" stroke-width="1.15" d="M537.1,-353.23C566.46,-408.99 661.91,-590.3 667.85,-601.58"/>
</g>
<!-- nouvelle&#45;calédonie&#45;&#45;alternative au développement -->
<g id="edge129" class="edge">
<title>nouvelle&#45;calédonie&#45;&#45;alternative au développement</title>
<path fill="none" stroke="darkgrey" stroke-width="2.3" d="M607.1,-392.01C600.89,-377.44 585.54,-341.46 574.79,-316.28"/>
</g>
<!-- nouvelle&#45;calédonie&#45;&#45;économie -->
<g id="edge130" class="edge">
<title>nouvelle&#45;calédonie&#45;&#45;économie</title>
<path fill="none" stroke="darkgrey" stroke-width="1.9" d="M602.99,-396.64C570.28,-387.85 429.96,-350.11 380.06,-336.69"/>
</g>
<!-- nouvelle&#45;calédonie&#45;&#45;essor technologique -->
<g id="edge131" class="edge">
<title>nouvelle&#45;calédonie&#45;&#45;essor technologique</title>
<path fill="none" stroke="darkgrey" stroke-width="1.14" d="M604.28,-394.27C591.8,-384.83 561.32,-361.79 543.07,-348"/>
</g>
<!-- exploitation minière&#45;&#45;politique -->
<g id="edge40" class="edge">
<title>exploitation minière&#45;&#45;politique</title>
<path fill="none" stroke="darkgrey" stroke-width="1.29" d="M636.91,-119.29C609.17,-132.6 419.54,-223.63 357.35,-253.48"/>
</g>
<!-- exploitation minière&#45;&#45;secteur nickel -->
<g id="edge41" class="edge">
<title>exploitation minière&#45;&#45;secteur nickel</title>
<path fill="none" stroke="darkgrey" stroke-width="1.52" d="M638.06,-120.53C629.03,-132.09 594.95,-175.73 575.75,-200.3"/>
</g>
<!-- exploitation minière&#45;&#45;pollution -->
<g id="edge42" class="edge">
<title>exploitation minière&#45;&#45;pollution</title>
<path fill="none" stroke="darkgrey" stroke-width="1.3" d="M637.1,-119.19C613.57,-130.49 466.69,-201.03 409.65,-228.42"/>
</g>
<!-- exploitation minière&#45;&#45;ressource minière -->
<g id="edge43" class="edge">
<title>exploitation minière&#45;&#45;ressource minière</title>
<path fill="none" stroke="darkgrey" stroke-width="1.54" d="M637.12,-119.65C618.39,-131.38 521.82,-191.86 478.3,-219.11"/>
</g>
<!-- exploitation minière&#45;&#45;dégradation environnementale -->
<g id="edge44" class="edge">
<title>exploitation minière&#45;&#45;dégradation environnementale</title>
<path fill="none" stroke="darkgrey" stroke-width="1.15" d="M637.84,-120.64C621.86,-140.01 532.28,-248.63 489.16,-300.92"/>
</g>
<!-- exploitation minière&#45;&#45;société néo&#45;calédonienne -->
<g id="edge45" class="edge">
<title>exploitation minière&#45;&#45;société néo&#45;calédonienne</title>
<path fill="none" stroke="darkgrey" stroke-width="1.18" d="M636.89,-119.11C620.16,-126.23 546.52,-157.59 515.65,-170.74"/>
</g>
<!-- exploitation minière&#45;&#45;alternative au développement -->
<g id="edge46" class="edge">
<title>exploitation minière&#45;&#45;alternative au développement</title>
<path fill="none" stroke="darkgrey" stroke-width="1.66" d="M638.84,-120.94C631.09,-138.25 594.59,-219.84 575.35,-262.87"/>
</g>
<!-- avenir sans nickel -->
<g id="node1" class="node">
<title>avenir sans nickel</title>
<ellipse fill="#f98e09" stroke="white" stroke-width="0" cx="270.86" cy="-273.49" rx="29" ry="29"/>
<text text-anchor="middle" x="205.36" y="-305.09" font-family="Helvetica,sans-Serif" font-size="8.00" fill="#4d4d4d">avenir sans nickel</text>
</g>
<!-- industrie -->
<g id="node2" class="node">
<title>industrie</title>
<ellipse fill="#08051d" stroke="white" stroke-width="0" cx="250.66" cy="-465.58" rx="3.5" ry="3.5"/>
<text text-anchor="middle" x="228.66" y="-471.68" font-family="Helvetica,sans-Serif" font-size="8.00" fill="#4d4d4d">industrie</text>
</g>
<!-- travail -->
<g id="node3" class="node">
<title>travail</title>
<ellipse fill="#bf3952" stroke="white" stroke-width="0" cx="471.91" cy="-405.62" rx="18" ry="18"/>
<text text-anchor="middle" x="440.91" y="-426.22" font-family="Helvetica,sans-Serif" font-size="8.00" fill="#4d4d4d">travail</text>
</g>
<!-- politique -->
<g id="node4" class="node">
<title>politique</title>
<ellipse fill="#cf4446" stroke="white" stroke-width="0" cx="337.63" cy="-262.95" rx="21.5" ry="21.5"/>
<text text-anchor="middle" x="297.63" y="-235.05" font-family="Helvetica,sans-Serif" font-size="8.00" fill="#4d4d4d">politique</text>
</g>
<!-- secteur nickel -->
<g id="node5" class="node">
<title>secteur nickel</title>
<ellipse fill="#cc4248" stroke="white" stroke-width="0" cx="562.4" cy="-217.4" rx="21.5" ry="21.5"/>
<text text-anchor="middle" x="512.4" y="-241.5" font-family="Helvetica,sans-Serif" font-size="8.00" fill="#4d4d4d">secteur nickel</text>
</g>
<!-- relation politique -->
<g id="node6" class="node">
<title>relation politique</title>
<ellipse fill="#160b39" stroke="white" stroke-width="0" cx="295.96" cy="-128.35" rx="3.5" ry="3.5"/>
<text text-anchor="middle" x="257.46" y="-134.45" font-family="Helvetica,sans-Serif" font-size="8.00" fill="#4d4d4d">relation politique</text>
</g>
<!-- avenir avec nickel -->
<g id="node7" class="node">
<title>avenir avec nickel</title>
<ellipse fill="#550f6d" stroke="white" stroke-width="0" cx="320.48" cy="-396.67" rx="11" ry="11"/>
<text text-anchor="middle" x="272.98" y="-410.27" font-family="Helvetica,sans-Serif" font-size="8.00" fill="#4d4d4d">avenir avec nickel</text>
</g>
<!-- pollution -->
<g id="node8" class="node">
<title>pollution</title>
<ellipse fill="#eb6628" stroke="white" stroke-width="0" cx="387.05" cy="-239.28" rx="25" ry="25"/>
<text text-anchor="middle" x="343.55" y="-216.88" font-family="Helvetica,sans-Serif" font-size="8.00" fill="#4d4d4d">pollution</text>
</g>
<!-- ressource minière -->
<g id="node9" class="node">
<title>ressource minière</title>
<ellipse fill="#f1731d" stroke="white" stroke-width="0" cx="456.99" cy="-232.46" rx="25" ry="25"/>
<text text-anchor="middle" x="395.49" y="-201.06" font-family="Helvetica,sans-Serif" font-size="8.00" fill="#4d4d4d">ressource minière</text>
</g>
<!-- dégradation environnementale -->
<g id="node10" class="node">
<title>dégradation environnementale</title>
<ellipse fill="#fcffa4" stroke="white" stroke-width="0" cx="465.95" cy="-329.06" rx="36" ry="36"/>
<text text-anchor="middle" x="366.45" y="-295.66" font-family="Helvetica,sans-Serif" font-size="8.00" fill="#4d4d4d">dégradation environnementale</text>
</g>
<!-- nature -->
<g id="node11" class="node">
<title>nature</title>
<ellipse fill="#520e6d" stroke="white" stroke-width="0" cx="421.17" cy="-102.97" rx="11" ry="11"/>
<text text-anchor="middle" x="396.67" y="-116.57" font-family="Helvetica,sans-Serif" font-size="8.00" fill="#4d4d4d">nature</text>
</g>
<!-- société néo&#45;calédonienne -->
<g id="node12" class="node">
<title>société néo&#45;calédonienne</title>
<ellipse fill="#902568" stroke="white" stroke-width="0" cx="501.96" cy="-176.57" rx="14.5" ry="14.5"/>
<text text-anchor="middle" x="433.46" y="-164.67" font-family="Helvetica,sans-Serif" font-size="8.00" fill="#4d4d4d">société néo&#45;calédonienne</text>
</g>
<!-- alternative au développement -->
<g id="node13" class="node">
<title>alternative au développement</title>
<ellipse fill="#fa9008" stroke="white" stroke-width="0" cx="563.4" cy="-289.58" rx="29" ry="29"/>
<text text-anchor="middle" x="596.4" y="-254.18" font-family="Helvetica,sans-Serif" font-size="8.00" fill="#4d4d4d">alternative au développement</text>
</g>
<!-- nickel -->
<g id="node14" class="node">
<title>nickel</title>
<ellipse fill="#310a5c" stroke="white" stroke-width="0" cx="412.77" cy="-378.55" rx="7" ry="7"/>
<text text-anchor="middle" x="393.77" y="-388.15" font-family="Helvetica,sans-Serif" font-size="8.00" fill="#4d4d4d">nickel</text>
</g>
<!-- économie -->
<g id="node15" class="node">
<title>économie</title>
<ellipse fill="#ae305c" stroke="white" stroke-width="0" cx="362.37" cy="-331.93" rx="18" ry="18"/>
<text text-anchor="middle" x="323.87" y="-352.53" font-family="Helvetica,sans-Serif" font-size="8.00" fill="#4d4d4d">économie</text>
</g>
<!-- amélioration environnementale -->
<g id="node16" class="node">
<title>amélioration environnementale</title>
<ellipse fill="#771c6d" stroke="white" stroke-width="0" cx="365.57" cy="-173.25" rx="11" ry="11"/>
<text text-anchor="middle" x="290.07" y="-186.85" font-family="Helvetica,sans-Serif" font-size="8.00" fill="#4d4d4d">amélioration environnementale</text>
</g>
<!-- essor technologique -->
<g id="node17" class="node">
<title>essor technologique</title>
<ellipse fill="#ad305d" stroke="white" stroke-width="0" cx="528.58" cy="-337.05" rx="18" ry="18"/>
<text text-anchor="middle" x="553.08" y="-357.65" font-family="Helvetica,sans-Serif" font-size="8.00" fill="#4d4d4d">essor technologique</text>
</g>
<!-- risque -->
<g id="node18" class="node">
<title>risque</title>
<ellipse fill="#000004" stroke="white" stroke-width="0" cx="26.5" cy="-220.01" rx="0.5" ry="0.5"/>
<text text-anchor="middle" x="13" y="-223.11" font-family="Helvetica,sans-Serif" font-size="8.00" fill="#4d4d4d">risque</text>
</g>
<!-- nouvelle&#45;calédonie -->
<g id="node19" class="node">
<title>nouvelle&#45;calédonie</title>
<ellipse fill="#310a5c" stroke="white" stroke-width="0" cx="609.87" cy="-398.49" rx="7" ry="7"/>
<text text-anchor="middle" x="563.37" y="-408.09" font-family="Helvetica,sans-Serif" font-size="8.00" fill="#4d4d4d">nouvelle&#45;calédonie</text>
</g>
<!-- matériel -->
<g id="node20" class="node">
<title>matériel</title>
<ellipse fill="#010005" stroke="white" stroke-width="0" cx="668.14" cy="-602.13" rx="0.5" ry="0.5"/>
<text text-anchor="middle" x="650.64" y="-605.23" font-family="Helvetica,sans-Serif" font-size="8.00" fill="#4d4d4d">matériel</text>
</g>
<!-- exploitation minière -->
<g id="node21" class="node">
<title>exploitation minière</title>
<ellipse fill="#0e092b" stroke="white" stroke-width="0" cx="640.31" cy="-117.65" rx="3.5" ry="3.5"/>
<text text-anchor="middle" x="596.31" y="-123.75" font-family="Helvetica,sans-Serif" font-size="8.00" fill="#4d4d4d">exploitation minière</text>
</g>
<!-- foncier -->
<g id="node22" class="node">
<title>foncier</title>
<ellipse fill="#010005" stroke="white" stroke-width="0" cx="916.87" cy="-210.32" rx="0.5" ry="0.5"/>
<text text-anchor="middle" x="901.87" y="-213.42" font-family="Helvetica,sans-Serif" font-size="8.00" fill="#4d4d4d">foncier</text>
</g>
<!-- échange commercial -->
<g id="node23" class="node">
<title>échange commercial</title>
<ellipse fill="#02020c" stroke="white" stroke-width="0" cx="559.7" cy="-0.5" rx="0.5" ry="0.5"/>
<text text-anchor="middle" x="516.2" y="-3.6" font-family="Helvetica,sans-Serif" font-size="8.00" fill="#4d4d4d">échange commercial</text>
</g>
</g>
</svg>
