<?xml version="1.0" encoding="UTF-8" standalone="no"?>
<!DOCTYPE svg PUBLIC "-//W3C//DTD SVG 1.1//EN"
 "http://www.w3.org/Graphics/SVG/1.1/DTD/svg11.dtd">
<!-- Generated by graphviz version 2.43.0 (0)
 -->
<!-- Pages: 1 -->
<svg width="864pt" height="462pt"
 viewBox="0.00 0.00 864.32 461.97" xmlns="http://www.w3.org/2000/svg" xmlns:xlink="http://www.w3.org/1999/xlink">
<g id="graph0" class="graph" transform="scale(1 1) rotate(0) translate(4 457.97)">
<polygon fill="white" stroke="transparent" points="-4,4 -4,-457.97 860.32,-457.97 860.32,4 -4,4"/>
<!-- pollution&#45;&#45;dégradation environnementale -->
<g id="edge1" class="edge">
<title>pollution&#45;&#45;dégradation environnementale</title>
<path fill="none" stroke="darkgrey" stroke-width="10" d="M523.93,-143.73C494.06,-147.2 433.93,-154.19 396.51,-158.54"/>
</g>
<!-- pollution&#45;&#45;nouvelle&#45;calédonie -->
<g id="edge2" class="edge">
<title>pollution&#45;&#45;nouvelle&#45;calédonie</title>
<path fill="none" stroke="darkgrey" stroke-width="1.1" d="M531.45,-126.85C508.88,-95.11 456.91,-22.06 445.81,-6.46"/>
</g>
<!-- pollution&#45;&#45;travail -->
<g id="edge3" class="edge">
<title>pollution&#45;&#45;travail</title>
<path fill="none" stroke="darkgrey" stroke-width="6.61" d="M524.85,-147.53C480.46,-162.83 361.74,-203.75 313.63,-220.33"/>
</g>
<!-- pollution&#45;&#45;économie -->
<g id="edge4" class="edge">
<title>pollution&#45;&#45;économie</title>
<path fill="none" stroke="darkgrey" stroke-width="5.35" d="M527.2,-130.91C516.18,-122.91 501.17,-112.02 490.16,-104.03"/>
</g>
<!-- pollution&#45;&#45;nickel -->
<g id="edge5" class="edge">
<title>pollution&#45;&#45;nickel</title>
<path fill="none" stroke="darkgrey" stroke-width="4.72" d="M524.36,-146.14C514.52,-148.67 501.91,-151.9 490.14,-154.92"/>
</g>
<!-- pollution&#45;&#45;ressource minière -->
<g id="edge6" class="edge">
<title>pollution&#45;&#45;ressource minière</title>
<path fill="none" stroke="darkgrey" stroke-width="1.66" d="M524.94,-135.79C492.08,-124.51 420.74,-100.05 393.63,-90.75"/>
</g>
<!-- pollution&#45;&#45;politique -->
<g id="edge7" class="edge">
<title>pollution&#45;&#45;politique</title>
<path fill="none" stroke="darkgrey" stroke-width="2.71" d="M544.09,-159.58C545.58,-172.26 547.56,-189.06 548.97,-200.98"/>
</g>
<!-- pollution&#45;&#45;secteur nickel -->
<g id="edge8" class="edge">
<title>pollution&#45;&#45;secteur nickel</title>
<path fill="none" stroke="darkgrey" stroke-width="2.46" d="M528.25,-153.76C507.42,-172.2 468.04,-207.04 447.27,-225.42"/>
</g>
<!-- pollution&#45;&#45;nature -->
<g id="edge9" class="edge">
<title>pollution&#45;&#45;nature</title>
<path fill="none" stroke="darkgrey" stroke-width="3.44" d="M533.14,-157.57C511.9,-195.91 458.27,-292.73 438.9,-327.68"/>
</g>
<!-- pollution&#45;&#45;exploitation minière -->
<g id="edge10" class="edge">
<title>pollution&#45;&#45;exploitation minière</title>
<path fill="none" stroke="darkgrey" stroke-width="1.76" d="M528.31,-153.89C495.6,-183.26 413.56,-256.92 386.92,-280.84"/>
</g>
<!-- pollution&#45;&#45;alternative au développement -->
<g id="edge11" class="edge">
<title>pollution&#45;&#45;alternative au développement</title>
<path fill="none" stroke="darkgrey" stroke-width="1.56" d="M553.79,-127.81C577.67,-99.89 630.45,-38.19 642.49,-24.11"/>
</g>
<!-- pollution&#45;&#45;matériel -->
<g id="edge12" class="edge">
<title>pollution&#45;&#45;matériel</title>
<path fill="none" stroke="darkgrey" stroke-width="2.54" d="M534.98,-158.42C522.56,-188.23 496.9,-249.82 485.56,-277.05"/>
</g>
<!-- pollution&#45;&#45;industrie -->
<g id="edge13" class="edge">
<title>pollution&#45;&#45;industrie</title>
<path fill="none" stroke="darkgrey" stroke-width="2.28" d="M525.07,-147.86C488.31,-161.43 401.49,-193.46 364.65,-207.05"/>
</g>
<!-- dégradation environnementale&#45;&#45;nouvelle&#45;calédonie -->
<g id="edge14" class="edge">
<title>dégradation environnementale&#45;&#45;nouvelle&#45;calédonie</title>
<path fill="none" stroke="darkgrey" stroke-width="1.24" d="M378.62,-133.19C398.94,-92.71 434.1,-22.63 442.07,-6.76"/>
</g>
<!-- dégradation environnementale&#45;&#45;travail -->
<g id="edge15" class="edge">
<title>dégradation environnementale&#45;&#45;travail</title>
<path fill="none" stroke="darkgrey" stroke-width="7.7" d="M339.95,-184.37C329.8,-193.67 318.26,-204.25 309.15,-212.6"/>
</g>
<!-- dégradation environnementale&#45;&#45;économie -->
<g id="edge16" class="edge">
<title>dégradation environnementale&#45;&#45;économie</title>
<path fill="none" stroke="darkgrey" stroke-width="7.72" d="M391.84,-145.09C413.36,-131.77 442.38,-113.8 459.95,-102.93"/>
</g>
<!-- dégradation environnementale&#45;&#45;nickel -->
<g id="edge17" class="edge">
<title>dégradation environnementale&#45;&#45;nickel</title>
<path fill="none" stroke="darkgrey" stroke-width="9.18" d="M396.58,-162.91C403.81,-163.03 411.52,-163.17 418.89,-163.3"/>
</g>
<!-- dégradation environnementale&#45;&#45;ressource minière -->
<g id="edge18" class="edge">
<title>dégradation environnementale&#45;&#45;ressource minière</title>
<path fill="none" stroke="darkgrey" stroke-width="3.94" d="M372.01,-130.4C374.9,-118.87 377.97,-106.59 380.11,-98.06"/>
</g>
<!-- dégradation environnementale&#45;&#45;politique -->
<g id="edge19" class="edge">
<title>dégradation environnementale&#45;&#45;politique</title>
<path fill="none" stroke="darkgrey" stroke-width="3.98" d="M395.26,-171.27C436.37,-183.04 506.88,-203.22 536.72,-211.77"/>
</g>
<!-- dégradation environnementale&#45;&#45;secteur nickel -->
<g id="edge20" class="edge">
<title>dégradation environnementale&#45;&#45;secteur nickel</title>
<path fill="none" stroke="darkgrey" stroke-width="3.77" d="M386.43,-186.51C397.88,-198.86 411.4,-213.44 421.03,-223.83"/>
</g>
<!-- dégradation environnementale&#45;&#45;nature -->
<g id="edge21" class="edge">
<title>dégradation environnementale&#45;&#45;nature</title>
<path fill="none" stroke="darkgrey" stroke-width="5.31" d="M375.66,-192.96C390.57,-232.16 415.77,-298.41 426.59,-326.87"/>
</g>
<!-- dégradation environnementale&#45;&#45;exploitation minière -->
<g id="edge23" class="edge">
<title>dégradation environnementale&#45;&#45;exploitation minière</title>
<path fill="none" stroke="darkgrey" stroke-width="3.6" d="M367.72,-194.81C370.82,-221.96 375.07,-259.1 377.16,-277.38"/>
</g>
<!-- dégradation environnementale&#45;&#45;alternative au développement -->
<g id="edge24" class="edge">
<title>dégradation environnementale&#45;&#45;alternative au développement</title>
<path fill="none" stroke="darkgrey" stroke-width="1.89" d="M393.28,-147.62C459.62,-114.3 617.54,-34.99 641.82,-22.8"/>
</g>
<!-- dégradation environnementale&#45;&#45;matériel -->
<g id="edge25" class="edge">
<title>dégradation environnementale&#45;&#45;matériel</title>
<path fill="none" stroke="darkgrey" stroke-width="4.26" d="M385.81,-186.43C411,-214.28 451.36,-258.9 469.97,-279.47"/>
</g>
<!-- dégradation environnementale&#45;&#45;industrie -->
<g id="edge27" class="edge">
<title>dégradation environnementale&#45;&#45;industrie</title>
<path fill="none" stroke="darkgrey" stroke-width="3.11" d="M354.02,-193.46C353.75,-194.29 353.49,-195.11 353.23,-195.92"/>
</g>
<!-- dégradation environnementale&#45;&#45;société néo&#45;calédonienne -->
<g id="edge22" class="edge">
<title>dégradation environnementale&#45;&#45;société néo&#45;calédonienne</title>
<path fill="none" stroke="darkgrey" stroke-width="1.62" d="M376.46,-192.46C403.86,-258.72 467.7,-413.16 477.99,-438.05"/>
</g>
<!-- dégradation environnementale&#45;&#45;foncier -->
<g id="edge26" class="edge">
<title>dégradation environnementale&#45;&#45;foncier</title>
<path fill="none" stroke="darkgrey" stroke-width="1.99" d="M351.84,-192.81C330.41,-246.52 287.39,-354.31 279.19,-374.85"/>
</g>
<!-- dégradation environnementale&#45;&#45;risque -->
<g id="edge28" class="edge">
<title>dégradation environnementale&#45;&#45;risque</title>
<path fill="none" stroke="darkgrey" stroke-width="1.51" d="M331.34,-160.03C249.28,-154.26 40.13,-139.56 27.13,-138.65"/>
</g>
<!-- dégradation environnementale&#45;&#45;échange commercial -->
<g id="edge29" class="edge">
<title>dégradation environnementale&#45;&#45;échange commercial</title>
<path fill="none" stroke="darkgrey" stroke-width="1.8" d="M337.44,-143.01C321.39,-131.34 302.26,-117.43 292.77,-110.53"/>
</g>
<!-- nouvelle&#45;calédonie&#45;&#45;travail -->
<g id="edge30" class="edge">
<title>nouvelle&#45;calédonie&#45;&#45;travail</title>
<path fill="none" stroke="darkgrey" stroke-width="1.32" d="M441.57,-6.67C426.68,-28.78 337.87,-160.71 305.09,-209.41"/>
</g>
<!-- nouvelle&#45;calédonie&#45;&#45;économie -->
<g id="edge31" class="edge">
<title>nouvelle&#45;calédonie&#45;&#45;économie</title>
<path fill="none" stroke="darkgrey" d="M444.91,-6.91C448.87,-18.13 461.68,-54.4 469.39,-76.23"/>
</g>
<!-- nouvelle&#45;calédonie&#45;&#45;nickel -->
<g id="edge32" class="edge">
<title>nouvelle&#45;calédonie&#45;&#45;nickel</title>
<path fill="none" stroke="darkgrey" stroke-width="2.58" d="M443.96,-7.15C445.07,-22.97 449.52,-86.58 452.4,-127.76"/>
</g>
<!-- nouvelle&#45;calédonie&#45;&#45;ressource minière -->
<g id="edge33" class="edge">
<title>nouvelle&#45;calédonie&#45;&#45;ressource minière</title>
<path fill="none" stroke="darkgrey" stroke-width="1.05" d="M441.39,-6.67C432.84,-18.42 402.8,-59.69 389.4,-78.09"/>
</g>
<!-- nouvelle&#45;calédonie&#45;&#45;politique -->
<g id="edge34" class="edge">
<title>nouvelle&#45;calédonie&#45;&#45;politique</title>
<path fill="none" stroke="darkgrey" stroke-width="1.8" d="M445.38,-6.83C456.76,-29.41 522.72,-160.24 544.06,-202.57"/>
</g>
<!-- nouvelle&#45;calédonie&#45;&#45;secteur nickel -->
<g id="edge35" class="edge">
<title>nouvelle&#45;calédonie&#45;&#45;secteur nickel</title>
<path fill="none" stroke="darkgrey" stroke-width="1.35" d="M443.55,-7.17C442.51,-31.42 436.61,-168.92 434.45,-219.12"/>
</g>
<!-- nouvelle&#45;calédonie&#45;&#45;industrie -->
<g id="edge36" class="edge">
<title>nouvelle&#45;calédonie&#45;&#45;industrie</title>
<path fill="none" stroke="darkgrey" stroke-width="1.21" d="M442.19,-6.8C432.24,-28.54 375.78,-151.86 355.17,-196.88"/>
</g>
<!-- travail&#45;&#45;économie -->
<g id="edge37" class="edge">
<title>travail&#45;&#45;économie</title>
<path fill="none" stroke="darkgrey" stroke-width="7.71" d="M310.45,-214.59C346.31,-188.24 427.56,-128.52 460.82,-104.08"/>
</g>
<!-- travail&#45;&#45;nickel -->
<g id="edge38" class="edge">
<title>travail&#45;&#45;nickel</title>
<path fill="none" stroke="darkgrey" stroke-width="8.1" d="M313.14,-219.54C340.19,-208.93 388.58,-189.96 421.21,-177.17"/>
</g>
<!-- travail&#45;&#45;ressource minière -->
<g id="edge39" class="edge">
<title>travail&#45;&#45;ressource minière</title>
<path fill="none" stroke="darkgrey" stroke-width="3.11" d="M304.7,-209.1C324.13,-178.77 362.23,-119.28 376.91,-96.37"/>
</g>
<!-- travail&#45;&#45;politique -->
<g id="edge40" class="edge">
<title>travail&#45;&#45;politique</title>
<path fill="none" stroke="darkgrey" stroke-width="3.9" d="M314.48,-226.48C365.54,-224.16 492.91,-218.39 536.12,-216.43"/>
</g>
<!-- travail&#45;&#45;secteur nickel -->
<g id="edge41" class="edge">
<title>travail&#45;&#45;secteur nickel</title>
<path fill="none" stroke="darkgrey" stroke-width="4.88" d="M314.63,-228.99C342.23,-230.96 389.43,-234.31 415.33,-236.15"/>
</g>
<!-- travail&#45;&#45;nature -->
<g id="edge42" class="edge">
<title>travail&#45;&#45;nature</title>
<path fill="none" stroke="darkgrey" stroke-width="3.04" d="M309.7,-241.09C338.26,-264.35 395.67,-311.11 420.22,-331.1"/>
</g>
<!-- travail&#45;&#45;exploitation minière -->
<g id="edge44" class="edge">
<title>travail&#45;&#45;exploitation minière</title>
<path fill="none" stroke="darkgrey" stroke-width="2.85" d="M310.66,-240.1C328.46,-252.8 355.2,-271.89 369.18,-281.86"/>
</g>
<!-- travail&#45;&#45;matériel -->
<g id="edge45" class="edge">
<title>travail&#45;&#45;matériel</title>
<path fill="none" stroke="darkgrey" stroke-width="3.48" d="M313.68,-234.44C352.09,-247.4 433.41,-274.81 466.01,-285.8"/>
</g>
<!-- travail&#45;&#45;industrie -->
<g id="edge47" class="edge">
<title>travail&#45;&#45;industrie</title>
<path fill="none" stroke="darkgrey" stroke-width="3.59" d="M313.94,-222.03C319.24,-220.66 324.88,-219.21 330,-217.89"/>
</g>
<!-- travail&#45;&#45;société néo&#45;calédonienne -->
<g id="edge43" class="edge">
<title>travail&#45;&#45;société néo&#45;calédonienne</title>
<path fill="none" stroke="darkgrey" stroke-width="1.51" d="M307.27,-243.89C347.35,-289.89 458.89,-417.93 476.93,-438.62"/>
</g>
<!-- travail&#45;&#45;foncier -->
<g id="edge46" class="edge">
<title>travail&#45;&#45;foncier</title>
<path fill="none" stroke="darkgrey" stroke-width="1.07" d="M290.78,-249.06C287.12,-285.55 279.95,-357.11 278.21,-374.43"/>
</g>
<!-- travail&#45;&#45;risque -->
<g id="edge48" class="edge">
<title>travail&#45;&#45;risque</title>
<path fill="none" stroke="darkgrey" stroke-width="1.56" d="M272.48,-220.63C212.04,-200.47 37.86,-142.39 27.03,-138.78"/>
</g>
<!-- travail&#45;&#45;échange commercial -->
<g id="edge49" class="edge">
<title>travail&#45;&#45;échange commercial</title>
<path fill="none" stroke="darkgrey" stroke-width="1.6" d="M291.85,-205.78C290.45,-177.98 288.08,-131.26 287.18,-113.42"/>
</g>
<!-- économie&#45;&#45;nickel -->
<g id="edge50" class="edge">
<title>économie&#45;&#45;nickel</title>
<path fill="none" stroke="darkgrey" stroke-width="6.04" d="M470.36,-110.8C468.73,-116.43 466.85,-122.89 464.99,-129.32"/>
</g>
<!-- économie&#45;&#45;ressource minière -->
<g id="edge51" class="edge">
<title>économie&#45;&#45;ressource minière</title>
<path fill="none" stroke="darkgrey" stroke-width="1.96" d="M457.14,-92.1C438.28,-90.82 409.48,-88.87 393.87,-87.81"/>
</g>
<!-- économie&#45;&#45;politique -->
<g id="edge52" class="edge">
<title>économie&#45;&#45;politique</title>
<path fill="none" stroke="darkgrey" stroke-width="4.43" d="M484.96,-108.85C500.08,-133.43 529.24,-180.85 543.07,-203.35"/>
</g>
<!-- économie&#45;&#45;secteur nickel -->
<g id="edge53" class="edge">
<title>économie&#45;&#45;secteur nickel</title>
<path fill="none" stroke="darkgrey" stroke-width="3.1" d="M470.39,-110.73C462.36,-138.42 446.76,-192.27 438.72,-220.01"/>
</g>
<!-- économie&#45;&#45;nature -->
<g id="edge54" class="edge">
<title>économie&#45;&#45;nature</title>
<path fill="none" stroke="darkgrey" stroke-width="2.35" d="M472.29,-111.12C464.04,-157.83 441.88,-283.38 434.34,-326.08"/>
</g>
<!-- économie&#45;&#45;exploitation minière -->
<g id="edge55" class="edge">
<title>économie&#45;&#45;exploitation minière</title>
<path fill="none" stroke="darkgrey" stroke-width="1.51" d="M467.33,-109.64C447.93,-148.66 399.27,-246.55 383.47,-278.33"/>
</g>
<!-- économie&#45;&#45;alternative au développement -->
<g id="edge56" class="edge">
<title>économie&#45;&#45;alternative au développement</title>
<path fill="none" stroke="darkgrey" stroke-width="1.11" d="M491.99,-86.3C530.32,-69.99 623.26,-30.45 641.74,-22.59"/>
</g>
<!-- économie&#45;&#45;matériel -->
<g id="edge57" class="edge">
<title>économie&#45;&#45;matériel</title>
<path fill="none" stroke="darkgrey" stroke-width="1.87" d="M475.85,-111.54C476.74,-150.34 478.81,-240.54 479.62,-275.91"/>
</g>
<!-- économie&#45;&#45;industrie -->
<g id="edge58" class="edge">
<title>économie&#45;&#45;industrie</title>
<path fill="none" stroke="darkgrey" stroke-width="2.26" d="M462.24,-105.73C437.75,-128.72 385.53,-177.75 360.96,-200.83"/>
</g>
<!-- économie&#45;&#45;échange commercial -->
<g id="edge59" class="edge">
<title>économie&#45;&#45;échange commercial</title>
<path fill="none" stroke="darkgrey" stroke-width="1.3" d="M457.34,-94.58C416.96,-97.33 320.87,-103.88 293.94,-105.72"/>
</g>
<!-- nickel&#45;&#45;ressource minière -->
<g id="edge60" class="edge">
<title>nickel&#45;&#45;ressource minière</title>
<path fill="none" stroke="darkgrey" stroke-width="5.25" d="M430.13,-137.49C416.29,-122.72 399.99,-105.33 390.6,-95.31"/>
</g>
<!-- nickel&#45;&#45;politique -->
<g id="edge61" class="edge">
<title>nickel&#45;&#45;politique</title>
<path fill="none" stroke="darkgrey" stroke-width="2.38" d="M486.83,-181.2C504.24,-190.63 524.84,-201.77 537.85,-208.81"/>
</g>
<!-- nickel&#45;&#45;secteur nickel -->
<g id="edge62" class="edge">
<title>nickel&#45;&#45;secteur nickel</title>
<path fill="none" stroke="darkgrey" stroke-width="6.09" d="M444.92,-198.55C442.77,-206 440.58,-213.56 438.71,-220.02"/>
</g>
<!-- nickel&#45;&#45;nature -->
<g id="edge63" class="edge">
<title>nickel&#45;&#45;nature</title>
<path fill="none" stroke="darkgrey" stroke-width="5.49" d="M450.25,-199.68C445.18,-238.38 437.33,-298.25 433.72,-325.77"/>
</g>
<!-- nickel&#45;&#45;exploitation minière -->
<g id="edge64" class="edge">
<title>nickel&#45;&#45;exploitation minière</title>
<path fill="none" stroke="darkgrey" stroke-width="7.31" d="M436.02,-194.73C419.03,-222.38 395.13,-261.28 384.24,-279"/>
</g>
<!-- nickel&#45;&#45;alternative au développement -->
<g id="edge65" class="edge">
<title>nickel&#45;&#45;alternative au développement</title>
<path fill="none" stroke="darkgrey" stroke-width="1.3" d="M483.8,-142.27C531.56,-106.4 623.6,-37.27 641.8,-23.6"/>
</g>
<!-- nickel&#45;&#45;matériel -->
<g id="edge66" class="edge">
<title>nickel&#45;&#45;matériel</title>
<path fill="none" stroke="darkgrey" stroke-width="5.3" d="M461.97,-199.54C466.97,-224.83 473.42,-257.49 477.08,-276"/>
</g>
<!-- nickel&#45;&#45;industrie -->
<g id="edge68" class="edge">
<title>nickel&#45;&#45;industrie</title>
<path fill="none" stroke="darkgrey" stroke-width="7.97" d="M422.16,-179.03C402.93,-187.88 379.47,-198.68 364.07,-205.77"/>
</g>
<!-- nickel&#45;&#45;foncier -->
<g id="edge67" class="edge">
<title>nickel&#45;&#45;foncier</title>
<path fill="none" stroke="darkgrey" stroke-width="1.83" d="M431.78,-191.97C387.9,-245.07 295.61,-356.76 280.07,-375.56"/>
</g>
<!-- nickel&#45;&#45;échange commercial -->
<g id="edge69" class="edge">
<title>nickel&#45;&#45;échange commercial</title>
<path fill="none" stroke="darkgrey" stroke-width="2.35" d="M420.51,-152.12C379.78,-138.13 314.82,-115.82 293.7,-108.57"/>
</g>
<!-- ressource minière&#45;&#45;politique -->
<g id="edge70" class="edge">
<title>ressource minière&#45;&#45;politique</title>
<path fill="none" stroke="darkgrey" stroke-width="2.79" d="M391.89,-93.98C420.22,-115.7 507.36,-182.53 539.04,-206.82"/>
</g>
<!-- ressource minière&#45;&#45;secteur nickel -->
<g id="edge71" class="edge">
<title>ressource minière&#45;&#45;secteur nickel</title>
<path fill="none" stroke="darkgrey" stroke-width="1.63" d="M386.52,-97.88C395.21,-123.6 417.18,-188.64 427.77,-220"/>
</g>
<!-- ressource minière&#45;&#45;nature -->
<g id="edge72" class="edge">
<title>ressource minière&#45;&#45;nature</title>
<path fill="none" stroke="darkgrey" stroke-width="1.6" d="M384.97,-97.95C392.78,-138.41 420.13,-280.1 428.99,-326.03"/>
</g>
<!-- ressource minière&#45;&#45;exploitation minière -->
<g id="edge73" class="edge">
<title>ressource minière&#45;&#45;exploitation minière</title>
<path fill="none" stroke="darkgrey" stroke-width="2.23" d="M382.62,-98.17C381.85,-133.3 379.46,-241.71 378.68,-277.14"/>
</g>
<!-- ressource minière&#45;&#45;matériel -->
<g id="edge74" class="edge">
<title>ressource minière&#45;&#45;matériel</title>
<path fill="none" stroke="darkgrey" stroke-width="1.65" d="M387.68,-97.15C403.75,-130.82 455.55,-239.36 473.64,-277.28"/>
</g>
<!-- ressource minière&#45;&#45;industrie -->
<g id="edge75" class="edge">
<title>ressource minière&#45;&#45;industrie</title>
<path fill="none" stroke="darkgrey" stroke-width="2.22" d="M379.87,-97.82C373.78,-119.65 359.93,-169.3 352.52,-195.83"/>
</g>
<!-- ressource minière&#45;&#45;échange commercial -->
<g id="edge76" class="edge">
<title>ressource minière&#45;&#45;échange commercial</title>
<path fill="none" stroke="darkgrey" stroke-width="1.23" d="M371.85,-89.26C351.94,-93.22 310.51,-101.48 293.91,-104.79"/>
</g>
<!-- politique&#45;&#45;secteur nickel -->
<g id="edge77" class="edge">
<title>politique&#45;&#45;secteur nickel</title>
<path fill="none" stroke="darkgrey" stroke-width="2.88" d="M536.36,-218.43C515,-222.39 474.85,-229.82 451.59,-234.13"/>
</g>
<!-- politique&#45;&#45;nature -->
<g id="edge78" class="edge">
<title>politique&#45;&#45;nature</title>
<path fill="none" stroke="darkgrey" stroke-width="1.13" d="M540.57,-226.41C518.11,-249.98 464.35,-306.37 441.9,-329.91"/>
</g>
<!-- politique&#45;&#45;exploitation minière -->
<g id="edge80" class="edge">
<title>politique&#45;&#45;exploitation minière</title>
<path fill="none" stroke="darkgrey" stroke-width="1.5" d="M537.19,-221.48C503.88,-235.53 418.38,-271.61 388.74,-284.12"/>
</g>
<!-- politique&#45;&#45;alternative au développement -->
<g id="edge81" class="edge">
<title>politique&#45;&#45;alternative au développement</title>
<path fill="none" stroke="darkgrey" stroke-width="1.18" d="M557.04,-202.7C576.2,-163.17 632.85,-46.24 643.3,-24.66"/>
</g>
<!-- politique&#45;&#45;matériel -->
<g id="edge82" class="edge">
<title>politique&#45;&#45;matériel</title>
<path fill="none" stroke="darkgrey" stroke-width="1.01" d="M540.58,-226.48C527.12,-240.69 503.51,-265.62 490.07,-279.82"/>
</g>
<!-- politique&#45;&#45;industrie -->
<g id="edge84" class="edge">
<title>politique&#45;&#45;industrie</title>
<path fill="none" stroke="darkgrey" stroke-width="2.46" d="M536.11,-215.6C499.82,-215.16 405.64,-214.03 365.83,-213.55"/>
</g>
<!-- politique&#45;&#45;société néo&#45;calédonienne -->
<g id="edge79" class="edge">
<title>politique&#45;&#45;société néo&#45;calédonienne</title>
<path fill="none" stroke="darkgrey" stroke-width="1.18" d="M546.25,-229.89C531.98,-275.05 487.95,-414.43 480.48,-438.05"/>
</g>
<!-- politique&#45;&#45;échange commercial -->
<g id="edge85" class="edge">
<title>politique&#45;&#45;échange commercial</title>
<path fill="none" stroke="darkgrey" stroke-width="1.26" d="M537.26,-210.19C489.37,-190.3 328.13,-123.36 293.43,-108.95"/>
</g>
<!-- politique&#45;&#45;relation politique -->
<g id="edge83" class="edge">
<title>politique&#45;&#45;relation politique</title>
<path fill="none" stroke="darkgrey" stroke-width="1.51" d="M565.43,-217.86C624.47,-226.26 841.65,-257.15 855.16,-259.07"/>
</g>
<!-- secteur nickel&#45;&#45;nature -->
<g id="edge86" class="edge">
<title>secteur nickel&#45;&#45;nature</title>
<path fill="none" stroke="darkgrey" stroke-width="1.62" d="M433.33,-255.88C432.96,-275.91 432.39,-307.53 432.05,-325.92"/>
</g>
<!-- secteur nickel&#45;&#45;exploitation minière -->
<g id="edge88" class="edge">
<title>secteur nickel&#45;&#45;exploitation minière</title>
<path fill="none" stroke="darkgrey" stroke-width="1.86" d="M420.29,-249.8C409.82,-259.47 395.58,-272.62 386.7,-280.82"/>
</g>
<!-- secteur nickel&#45;&#45;matériel -->
<g id="edge89" class="edge">
<title>secteur nickel&#45;&#45;matériel</title>
<path fill="none" stroke="darkgrey" stroke-width="2.21" d="M445.59,-251.12C453.3,-259.96 463.21,-271.32 470.4,-279.56"/>
</g>
<!-- secteur nickel&#45;&#45;industrie -->
<g id="edge91" class="edge">
<title>secteur nickel&#45;&#45;industrie</title>
<path fill="none" stroke="darkgrey" stroke-width="5.02" d="M416.26,-232.57C401.33,-228.39 379.94,-222.39 365.03,-218.2"/>
</g>
<!-- secteur nickel&#45;&#45;société néo&#45;calédonienne -->
<g id="edge87" class="edge">
<title>secteur nickel&#45;&#45;société néo&#45;calédonienne</title>
<path fill="none" stroke="darkgrey" stroke-width="1.03" d="M437.64,-255.2C447.73,-300.18 473.83,-416.61 478.64,-438.05"/>
</g>
<!-- secteur nickel&#45;&#45;foncier -->
<g id="edge90" class="edge">
<title>secteur nickel&#45;&#45;foncier</title>
<path fill="none" stroke="darkgrey" stroke-width="1.59" d="M420.11,-249.7C385.75,-280.75 296.81,-361.12 280.44,-375.92"/>
</g>
<!-- secteur nickel&#45;&#45;échange commercial -->
<g id="edge92" class="edge">
<title>secteur nickel&#45;&#45;échange commercial</title>
<path fill="none" stroke="darkgrey" stroke-width="1.77" d="M420.11,-225.34C388.87,-197.42 312.88,-129.5 292.13,-110.95"/>
</g>
<!-- nature&#45;&#45;exploitation minière -->
<g id="edge94" class="edge">
<title>nature&#45;&#45;exploitation minière</title>
<path fill="none" stroke="darkgrey" stroke-width="1.24" d="M421.25,-330.24C411.04,-320.28 395.79,-305.4 386.51,-296.35"/>
</g>
<!-- nature&#45;&#45;matériel -->
<g id="edge95" class="edge">
<title>nature&#45;&#45;matériel</title>
<path fill="none" stroke="darkgrey" stroke-width="2.96" d="M442,-329.91C450.18,-321.43 461.58,-309.58 469.75,-301.1"/>
</g>
<!-- nature&#45;&#45;industrie -->
<g id="edge97" class="edge">
<title>nature&#45;&#45;industrie</title>
<path fill="none" stroke="darkgrey" stroke-width="2.25" d="M423.72,-328.33C408.25,-304.95 374.47,-253.89 357.62,-228.41"/>
</g>
<!-- nature&#45;&#45;société néo&#45;calédonienne -->
<g id="edge93" class="edge">
<title>nature&#45;&#45;société néo&#45;calédonienne</title>
<path fill="none" stroke="darkgrey" stroke-width="1.07" d="M438.01,-353.72C449.1,-377.23 471.7,-425.14 477.83,-438.14"/>
</g>
<!-- nature&#45;&#45;foncier -->
<g id="edge96" class="edge">
<title>nature&#45;&#45;foncier</title>
<path fill="none" stroke="darkgrey" stroke-width="1.19" d="M417.58,-344.01C383.63,-352.33 299.3,-373.01 281.26,-377.43"/>
</g>
<!-- exploitation minière&#45;&#45;matériel -->
<g id="edge99" class="edge">
<title>exploitation minière&#45;&#45;matériel</title>
<path fill="none" stroke="darkgrey" stroke-width="2.44" d="M389.68,-288.69C408.16,-289.06 444.93,-289.8 465.38,-290.21"/>
</g>
<!-- exploitation minière&#45;&#45;industrie -->
<g id="edge100" class="edge">
<title>exploitation minière&#45;&#45;industrie</title>
<path fill="none" stroke="darkgrey" stroke-width="2.69" d="M374.15,-278.02C369.06,-265.6 360.5,-244.71 354.49,-230.04"/>
</g>
<!-- exploitation minière&#45;&#45;échange commercial -->
<g id="edge101" class="edge">
<title>exploitation minière&#45;&#45;échange commercial</title>
<path fill="none" stroke="darkgrey" stroke-width="1.57" d="M373.37,-278.41C356.72,-245.27 303.86,-140.11 290.11,-112.75"/>
</g>
<!-- matériel&#45;&#45;industrie -->
<g id="edge103" class="edge">
<title>matériel&#45;&#45;industrie</title>
<path fill="none" stroke="darkgrey" stroke-width="3.89" d="M467.26,-283.11C442.95,-268.92 389.83,-237.94 363.33,-222.48"/>
</g>
<!-- matériel&#45;&#45;foncier -->
<g id="edge102" class="edge">
<title>matériel&#45;&#45;foncier</title>
<path fill="none" stroke="darkgrey" stroke-width="1.05" d="M466.38,-296.4C425.13,-314.31 302.77,-367.44 281.12,-376.84"/>
</g>
<!-- matériel&#45;&#45;échange commercial -->
<g id="edge104" class="edge">
<title>matériel&#45;&#45;échange commercial</title>
<path fill="none" stroke="darkgrey" stroke-width="1.44" d="M469.29,-280.34C433.39,-246.07 317.68,-135.66 291.93,-111.08"/>
</g>
<!-- industrie&#45;&#45;échange commercial -->
<g id="edge106" class="edge">
<title>industrie&#45;&#45;échange commercial</title>
<path fill="none" stroke="darkgrey" stroke-width="1.36" d="M338.67,-197.52C325.05,-173.54 299.77,-129.02 290.42,-112.55"/>
</g>
<!-- société néo&#45;calédonienne&#45;&#45;matériel -->
<g id="edge98" class="edge">
<title>société néo&#45;calédonienne&#45;&#45;matériel</title>
<path fill="none" stroke="darkgrey" stroke-width="1.24" d="M479.42,-437.73C479.48,-419.48 479.77,-339.13 479.9,-305.45"/>
</g>
<!-- foncier&#45;&#45;industrie -->
<g id="edge105" class="edge">
<title>foncier&#45;&#45;industrie</title>
<path fill="none" stroke="darkgrey" stroke-width="1.84" d="M279.28,-374.83C287.16,-356.23 324.81,-267.28 340.62,-229.91"/>
</g>
<!-- pollution -->
<g id="node1" class="node">
<title>pollution</title>
<ellipse fill="#a52c60" stroke="white" stroke-width="0" cx="541.97" cy="-141.63" rx="18" ry="18"/>
<text text-anchor="middle" x="505.47" y="-117.23" font-family="Helvetica,sans-Serif" font-size="8.00" fill="#4d4d4d">pollution</text>
</g>
<!-- dégradation environnementale -->
<g id="node2" class="node">
<title>dégradation environnementale</title>
<ellipse fill="#f1ec6d" stroke="white" stroke-width="0" cx="364.01" cy="-162.32" rx="32.5" ry="32.5"/>
<text text-anchor="middle" x="268.01" y="-132.42" font-family="Helvetica,sans-Serif" font-size="8.00" fill="#4d4d4d">dégradation environnementale</text>
</g>
<!-- nouvelle&#45;calédonie -->
<g id="node3" class="node">
<title>nouvelle&#45;calédonie</title>
<ellipse fill="#10092d" stroke="white" stroke-width="0" cx="443.7" cy="-3.5" rx="3.5" ry="3.5"/>
<text text-anchor="middle" x="400.7" y="-9.6" font-family="Helvetica,sans-Serif" font-size="8.00" fill="#4d4d4d">nouvelle&#45;calédonie</text>
</g>
<!-- travail -->
<g id="node4" class="node">
<title>travail</title>
<ellipse fill="#e8602d" stroke="white" stroke-width="0" cx="292.95" cy="-227.45" rx="21.5" ry="21.5"/>
<text text-anchor="middle" x="258.45" y="-251.55" font-family="Helvetica,sans-Serif" font-size="8.00" fill="#4d4d4d">travail</text>
</g>
<!-- économie -->
<g id="node5" class="node">
<title>économie</title>
<ellipse fill="#b1325a" stroke="white" stroke-width="0" cx="475.43" cy="-93.34" rx="18" ry="18"/>
<text text-anchor="middle" x="436.93" y="-113.94" font-family="Helvetica,sans-Serif" font-size="8.00" fill="#4d4d4d">économie</text>
</g>
<!-- nickel -->
<g id="node6" class="node">
<title>nickel</title>
<ellipse fill="#fcffa4" stroke="white" stroke-width="0" cx="454.93" cy="-163.95" rx="36" ry="36"/>
<text text-anchor="middle" x="406.93" y="-202.55" font-family="Helvetica,sans-Serif" font-size="8.00" fill="#4d4d4d">nickel</text>
</g>
<!-- ressource minière -->
<g id="node7" class="node">
<title>ressource minière</title>
<ellipse fill="#5d126e" stroke="white" stroke-width="0" cx="382.87" cy="-87.06" rx="11" ry="11"/>
<text text-anchor="middle" x="335.37" y="-100.66" font-family="Helvetica,sans-Serif" font-size="8.00" fill="#4d4d4d">ressource minière</text>
</g>
<!-- politique -->
<g id="node8" class="node">
<title>politique</title>
<ellipse fill="#932667" stroke="white" stroke-width="0" cx="550.71" cy="-215.77" rx="14.5" ry="14.5"/>
<text text-anchor="middle" x="517.71" y="-232.87" font-family="Helvetica,sans-Serif" font-size="8.00" fill="#4d4d4d">politique</text>
</g>
<!-- secteur nickel -->
<g id="node9" class="node">
<title>secteur nickel</title>
<ellipse fill="#ad305d" stroke="white" stroke-width="0" cx="433.67" cy="-237.45" rx="18" ry="18"/>
<text text-anchor="middle" x="387.17" y="-258.05" font-family="Helvetica,sans-Serif" font-size="8.00" fill="#4d4d4d">secteur nickel</text>
</g>
<!-- nature -->
<g id="node10" class="node">
<title>nature</title>
<ellipse fill="#7d1e6d" stroke="white" stroke-width="0" cx="431.79" cy="-340.52" rx="14.5" ry="14.5"/>
<text text-anchor="middle" x="403.79" y="-357.62" font-family="Helvetica,sans-Serif" font-size="8.00" fill="#4d4d4d">nature</text>
</g>
<!-- exploitation minière -->
<g id="node11" class="node">
<title>exploitation minière</title>
<ellipse fill="#71196e" stroke="white" stroke-width="0" cx="378.43" cy="-288.47" rx="11" ry="11"/>
<text text-anchor="middle" x="326.93" y="-302.07" font-family="Helvetica,sans-Serif" font-size="8.00" fill="#4d4d4d">exploitation minière</text>
</g>
<!-- alternative au développement -->
<g id="node12" class="node">
<title>alternative au développement</title>
<ellipse fill="#08051d" stroke="white" stroke-width="0" cx="644.97" cy="-21.22" rx="3.5" ry="3.5"/>
<text text-anchor="middle" x="579.47" y="-27.32" font-family="Helvetica,sans-Serif" font-size="8.00" fill="#4d4d4d">alternative au développement</text>
</g>
<!-- matériel -->
<g id="node13" class="node">
<title>matériel</title>
<ellipse fill="#88226a" stroke="white" stroke-width="0" cx="479.95" cy="-290.51" rx="14.5" ry="14.5"/>
<text text-anchor="middle" x="448.45" y="-307.61" font-family="Helvetica,sans-Serif" font-size="8.00" fill="#4d4d4d">matériel</text>
</g>
<!-- industrie -->
<g id="node14" class="node">
<title>industrie</title>
<ellipse fill="#ab2f5e" stroke="white" stroke-width="0" cx="347.64" cy="-213.33" rx="18" ry="18"/>
<text text-anchor="middle" x="311.14" y="-197.93" font-family="Helvetica,sans-Serif" font-size="8.00" fill="#4d4d4d">industrie</text>
</g>
<!-- société néo&#45;calédonienne -->
<g id="node15" class="node">
<title>société néo&#45;calédonienne</title>
<ellipse fill="#0c0826" stroke="white" stroke-width="0" cx="479.4" cy="-441.47" rx="3.5" ry="3.5"/>
<text text-anchor="middle" x="421.9" y="-447.57" font-family="Helvetica,sans-Serif" font-size="8.00" fill="#4d4d4d">société néo&#45;calédonienne</text>
</g>
<!-- foncier -->
<g id="node16" class="node">
<title>foncier</title>
<ellipse fill="#160b39" stroke="white" stroke-width="0" cx="277.83" cy="-378.27" rx="3.5" ry="3.5"/>
<text text-anchor="middle" x="259.83" y="-384.37" font-family="Helvetica,sans-Serif" font-size="8.00" fill="#4d4d4d">foncier</text>
</g>
<!-- risque -->
<g id="node17" class="node">
<title>risque</title>
<ellipse fill="#000004" stroke="white" stroke-width="0" cx="26.5" cy="-138.61" rx="0.5" ry="0.5"/>
<text text-anchor="middle" x="13" y="-141.71" font-family="Helvetica,sans-Serif" font-size="8.00" fill="#4d4d4d">risque</text>
</g>
<!-- échange commercial -->
<g id="node18" class="node">
<title>échange commercial</title>
<ellipse fill="#290b55" stroke="white" stroke-width="0" cx="286.81" cy="-106.2" rx="7" ry="7"/>
<text text-anchor="middle" x="236.81" y="-115.8" font-family="Helvetica,sans-Serif" font-size="8.00" fill="#4d4d4d">échange commercial</text>
</g>
<!-- relation politique -->
<g id="node19" class="node">
<title>relation politique</title>
<ellipse fill="#030210" stroke="white" stroke-width="0" cx="855.82" cy="-259.16" rx="0.5" ry="0.5"/>
<text text-anchor="middle" x="820.32" y="-262.26" font-family="Helvetica,sans-Serif" font-size="8.00" fill="#4d4d4d">relation politique</text>
</g>
</g>
</svg>
