<?xml version="1.0" encoding="UTF-8" standalone="no"?>
<!DOCTYPE svg PUBLIC "-//W3C//DTD SVG 1.1//EN"
 "http://www.w3.org/Graphics/SVG/1.1/DTD/svg11.dtd">
<!-- Generated by graphviz version 2.43.0 (0)
 -->
<!-- Pages: 1 -->
<svg width="516pt" height="376pt"
 viewBox="0.00 0.00 515.67 376.41" xmlns="http://www.w3.org/2000/svg" xmlns:xlink="http://www.w3.org/1999/xlink">
<g id="graph0" class="graph" transform="scale(1 1) rotate(0) translate(4 372.41)">
<polygon fill="white" stroke="transparent" points="-4,4 -4,-372.41 511.67,-372.41 511.67,4 -4,4"/>
<!-- pollution&#45;&#45;travail -->
<g id="edge1" class="edge">
<title>pollution&#45;&#45;travail</title>
<path fill="none" stroke="darkgrey" stroke-width="7.08" d="M290.35,-158.17C318.89,-135.73 363.73,-100.47 384.66,-84.01"/>
</g>
<!-- pollution&#45;&#45;richesse -->
<g id="edge2" class="edge">
<title>pollution&#45;&#45;richesse</title>
<path fill="none" stroke="darkgrey" stroke-width="2.99" d="M276.53,-147.98C290.69,-111.68 313.62,-52.84 322.83,-29.24"/>
</g>
<!-- pollution&#45;&#45;destruction -->
<g id="edge3" class="edge">
<title>pollution&#45;&#45;destruction</title>
<path fill="none" stroke="darkgrey" stroke-width="5.04" d="M232.2,-179.14C191.2,-180.14 123.38,-181.81 101.27,-182.35"/>
</g>
<!-- pollution&#45;&#45;argent -->
<g id="edge4" class="edge">
<title>pollution&#45;&#45;argent</title>
<path fill="none" stroke="darkgrey" stroke-width="2.93" d="M296.28,-169.95C333.3,-160.13 392.12,-144.51 412.07,-139.22"/>
</g>
<!-- pollution&#45;&#45;nickel -->
<g id="edge5" class="edge">
<title>pollution&#45;&#45;nickel</title>
<path fill="none" stroke="darkgrey" stroke-width="9.52" d="M297.19,-182.9C298.55,-183.09 299.92,-183.28 301.28,-183.47"/>
</g>
<!-- pollution&#45;&#45;montagne -->
<g id="edge6" class="edge">
<title>pollution&#45;&#45;montagne</title>
<path fill="none" stroke="darkgrey" stroke-width="1.4" d="M242.65,-154.29C222.22,-132.01 193.36,-100.53 182.09,-88.24"/>
</g>
<!-- pollution&#45;&#45;camion -->
<g id="edge7" class="edge">
<title>pollution&#45;&#45;camion</title>
<path fill="none" stroke="darkgrey" stroke-width="3.36" d="M280.04,-207.32C298.39,-241.99 328.12,-298.17 340.05,-320.71"/>
</g>
<!-- pollution&#45;&#45;économie -->
<g id="edge8" class="edge">
<title>pollution&#45;&#45;économie</title>
<path fill="none" stroke="darkgrey" stroke-width="8.68" d="M273.73,-146.97C280.35,-124.01 289.14,-93.5 294.9,-73.51"/>
</g>
<!-- pollution&#45;&#45;environnement -->
<g id="edge9" class="edge">
<title>pollution&#45;&#45;environnement</title>
<path fill="none" stroke="darkgrey" stroke-width="6.59" d="M284.94,-152.64C307.84,-123.57 344.3,-77.28 362.53,-54.14"/>
</g>
<!-- pollution&#45;&#45;emploi -->
<g id="edge10" class="edge">
<title>pollution&#45;&#45;emploi</title>
<path fill="none" stroke="darkgrey" stroke-width="10" d="M284.36,-152.16C295.46,-137.4 308.9,-119.5 318.13,-107.21"/>
</g>
<!-- pollution&#45;&#45;terre -->
<g id="edge11" class="edge">
<title>pollution&#45;&#45;terre</title>
<path fill="none" stroke="darkgrey" stroke-width="1.28" d="M233.56,-168.22C213.99,-161.86 190.35,-154.17 178.88,-150.44"/>
</g>
<!-- pollution&#45;&#45;usine -->
<g id="edge12" class="edge">
<title>pollution&#45;&#45;usine</title>
<path fill="none" stroke="darkgrey" stroke-width="1.62" d="M288.37,-200.64C311.45,-222.39 345.27,-254.25 360.74,-268.83"/>
</g>
<!-- pollution&#45;&#45;exploitation -->
<g id="edge13" class="edge">
<title>pollution&#45;&#45;exploitation</title>
<path fill="none" stroke="darkgrey" stroke-width="1.45" d="M263.95,-210.93C263.12,-247.34 261.83,-304.29 261.28,-328.22"/>
</g>
<!-- pollution&#45;&#45;ressource -->
<g id="edge14" class="edge">
<title>pollution&#45;&#45;ressource</title>
<path fill="none" stroke="darkgrey" d="M254.76,-209.33C245.92,-236.92 233.65,-275.21 228.7,-290.64"/>
</g>
<!-- pollution&#45;&#45;conflit -->
<g id="edge15" class="edge">
<title>pollution&#45;&#45;conflit</title>
<path fill="none" stroke="darkgrey" stroke-width="1.96" d="M255.93,-146.71C248.28,-119.13 237.76,-81.21 233.52,-65.94"/>
</g>
<!-- pollution&#45;&#45;développement -->
<g id="edge16" class="edge">
<title>pollution&#45;&#45;développement</title>
<path fill="none" stroke="darkgrey" stroke-width="2.51" d="M240.91,-200.85C210.53,-229.6 160.45,-277 148.4,-288.41"/>
</g>
<!-- pollution&#45;&#45;minerai -->
<g id="edge17" class="edge">
<title>pollution&#45;&#45;minerai</title>
<path fill="none" stroke="darkgrey" stroke-width="1.26" d="M273.36,-209.94C280.14,-234.66 289.16,-267.56 293.75,-284.32"/>
</g>
<!-- pollution&#45;&#45;déforestation -->
<g id="edge18" class="edge">
<title>pollution&#45;&#45;déforestation</title>
<path fill="none" stroke="darkgrey" stroke-width="2.21" d="M234.88,-191.79C191.58,-211.32 114.54,-246.06 97.09,-253.94"/>
</g>
<!-- travail&#45;&#45;richesse -->
<g id="edge19" class="edge">
<title>travail&#45;&#45;richesse</title>
<path fill="none" stroke="darkgrey" stroke-width="2.07" d="M384.69,-65.74C370.85,-54.55 347.87,-35.97 335.45,-25.92"/>
</g>
<!-- travail&#45;&#45;nickel -->
<g id="edge20" class="edge">
<title>travail&#45;&#45;nickel</title>
<path fill="none" stroke="darkgrey" stroke-width="3.63" d="M389.39,-88.02C380.82,-104.56 365.74,-133.67 354.01,-156.32"/>
</g>
<!-- travail&#45;&#45;économie -->
<g id="edge21" class="edge">
<title>travail&#45;&#45;économie</title>
<path fill="none" stroke="darkgrey" stroke-width="3.24" d="M381.67,-71.61C365.74,-67.9 340,-61.88 321.86,-57.65"/>
</g>
<!-- travail&#45;&#45;environnement -->
<g id="edge22" class="edge">
<title>travail&#45;&#45;environnement</title>
<path fill="none" stroke="darkgrey" stroke-width="3.05" d="M388.28,-62.75C386.76,-60.39 385.15,-57.88 383.58,-55.43"/>
</g>
<!-- richesse&#45;&#45;nickel -->
<g id="edge23" class="edge">
<title>richesse&#45;&#45;nickel</title>
<path fill="none" stroke="darkgrey" stroke-width="2.56" d="M327.52,-30.08C329.03,-54.47 332.69,-113.55 335.09,-152.27"/>
</g>
<!-- richesse&#45;&#45;économie -->
<g id="edge24" class="edge">
<title>richesse&#45;&#45;économie</title>
<path fill="none" stroke="darkgrey" stroke-width="1.89" d="M320.02,-27.84C318.15,-30.26 316.07,-32.97 313.98,-35.69"/>
</g>
<!-- richesse&#45;&#45;emploi -->
<g id="edge25" class="edge">
<title>richesse&#45;&#45;emploi</title>
<path fill="none" stroke="darkgrey" stroke-width="1.58" d="M327.18,-30.15C327.53,-41.91 328.1,-60.58 328.52,-74.46"/>
</g>
<!-- argent&#45;&#45;nickel -->
<g id="edge26" class="edge">
<title>argent&#45;&#45;nickel</title>
<path fill="none" stroke="darkgrey" stroke-width="3.96" d="M412.8,-141.24C403.31,-147.18 384.45,-159.01 367.95,-169.34"/>
</g>
<!-- argent&#45;&#45;emploi -->
<g id="edge27" class="edge">
<title>argent&#45;&#45;emploi</title>
<path fill="none" stroke="darkgrey" stroke-width="2.25" d="M412.48,-134.18C398.55,-127.24 365.36,-110.72 345.3,-100.73"/>
</g>
<!-- nickel&#45;&#45;montagne -->
<g id="edge28" class="edge">
<title>nickel&#45;&#45;montagne</title>
<path fill="none" stroke="darkgrey" stroke-width="3.04" d="M307.23,-168.69C268.31,-143.02 203.13,-100.06 183.25,-86.95"/>
</g>
<!-- nickel&#45;&#45;camion -->
<g id="edge29" class="edge">
<title>nickel&#45;&#45;camion</title>
<path fill="none" stroke="darkgrey" stroke-width="5.57" d="M339.35,-224.73C341.09,-255.95 343.5,-299.11 344.62,-319.28"/>
</g>
<!-- nickel&#45;&#45;économie -->
<g id="edge30" class="edge">
<title>nickel&#45;&#45;économie</title>
<path fill="none" stroke="darkgrey" stroke-width="6.35" d="M327.94,-153.56C321.15,-128.26 312.2,-94.91 306.49,-73.64"/>
</g>
<!-- nickel&#45;&#45;environnement -->
<g id="edge31" class="edge">
<title>nickel&#45;&#45;environnement</title>
<path fill="none" stroke="darkgrey" stroke-width="3.74" d="M345.94,-153.33C353.29,-123.3 363.55,-81.37 369.31,-57.84"/>
</g>
<!-- nickel&#45;&#45;emploi -->
<g id="edge33" class="edge">
<title>nickel&#45;&#45;emploi</title>
<path fill="none" stroke="darkgrey" stroke-width="5.98" d="M334.23,-152.55C333.01,-138.31 331.65,-122.57 330.64,-110.79"/>
</g>
<!-- nickel&#45;&#45;terre -->
<g id="edge34" class="edge">
<title>nickel&#45;&#45;terre</title>
<path fill="none" stroke="darkgrey" stroke-width="1.45" d="M302.26,-179.98C262.26,-170.22 199.69,-154.96 178.93,-149.89"/>
</g>
<!-- nickel&#45;&#45;usine -->
<g id="edge35" class="edge">
<title>nickel&#45;&#45;usine</title>
<path fill="none" stroke="darkgrey" stroke-width="5.02" d="M349.58,-222.59C355.15,-238.08 361.35,-255.31 365.21,-266.06"/>
</g>
<!-- nickel&#45;&#45;exploitation -->
<g id="edge36" class="edge">
<title>nickel&#45;&#45;exploitation</title>
<path fill="none" stroke="darkgrey" stroke-width="1.54" d="M320.96,-220.9C303.53,-255.36 276.98,-307.86 266.02,-329.53"/>
</g>
<!-- nickel&#45;&#45;ressource -->
<g id="edge38" class="edge">
<title>nickel&#45;&#45;ressource</title>
<path fill="none" stroke="darkgrey" stroke-width="1.51" d="M311.63,-213.8C285.03,-239.95 245.46,-278.86 231.56,-292.53"/>
</g>
<!-- nickel&#45;&#45;minerai -->
<g id="edge39" class="edge">
<title>nickel&#45;&#45;minerai</title>
<path fill="none" stroke="darkgrey" stroke-width="4.46" d="M324.48,-222.25C316.3,-243.72 306.24,-270.11 300.75,-284.51"/>
</g>
<!-- nickel&#45;&#45;terre rouge -->
<g id="edge32" class="edge">
<title>nickel&#45;&#45;terre rouge</title>
<path fill="none" stroke="darkgrey" stroke-width="2.02" d="M373.3,-191.91C409.95,-195.36 463.4,-200.39 477.71,-201.74"/>
</g>
<!-- nickel&#45;&#45;sln -->
<g id="edge37" class="edge">
<title>nickel&#45;&#45;sln</title>
<path fill="none" stroke="darkgrey" stroke-width="6.15" d="M360.35,-216.49C386.77,-248.58 428.25,-298.97 442.31,-316.05"/>
</g>
<!-- nickel&#45;&#45;goro -->
<g id="edge40" class="edge">
<title>nickel&#45;&#45;goro</title>
<path fill="none" stroke="darkgrey" stroke-width="1.16" d="M369.81,-204.69C414.98,-227.18 492.08,-265.55 499.21,-269.1"/>
</g>
<!-- camion&#45;&#45;usine -->
<g id="edge41" class="edge">
<title>camion&#45;&#45;usine</title>
<path fill="none" stroke="darkgrey" stroke-width="1.55" d="M349.83,-320.13C354.04,-310.59 360.24,-296.52 364.44,-286.98"/>
</g>
<!-- camion&#45;&#45;minerai -->
<g id="edge42" class="edge">
<title>camion&#45;&#45;minerai</title>
<path fill="none" stroke="darkgrey" stroke-width="1.04" d="M336.34,-324.03C327.7,-317.72 314.62,-308.19 305.88,-301.81"/>
</g>
<!-- économie&#45;&#45;environnement -->
<g id="edge43" class="edge">
<title>économie&#45;&#45;environnement</title>
<path fill="none" stroke="darkgrey" stroke-width="8.61" d="M322.33,-48.99C332.89,-47.14 345.5,-44.94 355.57,-43.17"/>
</g>
<!-- économie&#45;&#45;emploi -->
<g id="edge44" class="edge">
<title>économie&#45;&#45;emploi</title>
<path fill="none" stroke="darkgrey" stroke-width="7.77" d="M313.33,-70.37C315.1,-72.87 316.91,-75.43 318.63,-77.87"/>
</g>
<!-- environnement&#45;&#45;emploi -->
<g id="edge45" class="edge">
<title>environnement&#45;&#45;emploi</title>
<path fill="none" stroke="darkgrey" stroke-width="3.62" d="M361.95,-53.83C355.45,-61.51 347.38,-71.03 340.87,-78.72"/>
</g>
<!-- emploi&#45;&#45;conflit -->
<g id="edge46" class="edge">
<title>emploi&#45;&#45;conflit</title>
<path fill="none" stroke="darkgrey" stroke-width="2.01" d="M311.66,-86.66C289.76,-79.14 253.24,-66.59 238.31,-61.46"/>
</g>
<!-- usine&#45;&#45;minerai -->
<g id="edge47" class="edge">
<title>usine&#45;&#45;minerai</title>
<path fill="none" stroke="darkgrey" stroke-width="2.73" d="M358.34,-279.35C344.67,-282.85 321.11,-288.87 307.42,-292.38"/>
</g>
<!-- exploitation&#45;&#45;ressource -->
<g id="edge48" class="edge">
<title>exploitation&#45;&#45;ressource</title>
<path fill="none" stroke="darkgrey" stroke-width="1.97" d="M253.71,-330.52C246.9,-322.26 236.96,-310.19 231.17,-303.16"/>
</g>
<!-- exploitation&#45;&#45;minerai -->
<g id="edge49" class="edge">
<title>exploitation&#45;&#45;minerai</title>
<path fill="none" stroke="darkgrey" stroke-width="2.06" d="M268.25,-330.45C274.52,-322.66 283.54,-311.46 289.74,-303.77"/>
</g>
<!-- ressource&#45;&#45;minerai -->
<g id="edge50" class="edge">
<title>ressource&#45;&#45;minerai</title>
<path fill="none" stroke="darkgrey" stroke-width="1.44" d="M233.75,-297.25C246.02,-296.83 270.93,-295.99 285.47,-295.5"/>
</g>
<!-- pollution -->
<g id="node1" class="node">
<title>pollution</title>
<ellipse fill="#fac026" stroke="white" stroke-width="0" cx="264.7" cy="-178.34" rx="32.5" ry="32.5"/>
<text text-anchor="middle" x="174.2" y="-218.72" font-family="Helvetica,sans-Serif" font-size="26.40" fill="#4d4d4d">pollution</text>
</g>
<!-- travail -->
<g id="node2" class="node">
<title>travail</title>
<ellipse fill="#9f2a63" stroke="white" stroke-width="0" cx="396.13" cy="-74.99" rx="14.5" ry="14.5"/>
<text text-anchor="middle" x="411.63" y="-94.77" font-family="Helvetica,sans-Serif" font-size="18.40" fill="#4d4d4d">travail</text>
</g>
<!-- richesse -->
<g id="node3" class="node">
<title>richesse</title>
<ellipse fill="#69166e" stroke="white" stroke-width="0" cx="326.83" cy="-18.96" rx="11" ry="11"/>
<text text-anchor="middle" x="280.83" y="-12.52" font-family="Helvetica,sans-Serif" font-size="16.80" fill="#4d4d4d">richesse</text>
</g>
<!-- destruction -->
<g id="node4" class="node">
<title>destruction</title>
<ellipse fill="#380962" stroke="white" stroke-width="0" cx="94.07" cy="-182.53" rx="7" ry="7"/>
<text text-anchor="middle" x="43.57" y="-194.37" font-family="Helvetica,sans-Serif" font-size="15.20" fill="#4d4d4d">destruction</text>
</g>
<!-- argent -->
<g id="node5" class="node">
<title>argent</title>
<ellipse fill="#4f0d6c" stroke="white" stroke-width="0" cx="418.94" cy="-137.4" rx="7" ry="7"/>
<text text-anchor="middle" x="386.94" y="-135.24" font-family="Helvetica,sans-Serif" font-size="15.20" fill="#4d4d4d">argent</text>
</g>
<!-- nickel -->
<g id="node6" class="node">
<title>nickel</title>
<ellipse fill="#fcffa4" stroke="white" stroke-width="0" cx="337.33" cy="-188.53" rx="36" ry="36"/>
<text text-anchor="middle" x="342.33" y="-233.13" font-family="Helvetica,sans-Serif" font-size="28.00" fill="#4d4d4d">nickel</text>
</g>
<!-- montagne -->
<g id="node7" class="node">
<title>montagne</title>
<ellipse fill="#3e0966" stroke="white" stroke-width="0" cx="177.32" cy="-83.04" rx="7" ry="7"/>
<text text-anchor="middle" x="131.32" y="-94.88" font-family="Helvetica,sans-Serif" font-size="15.20" fill="#4d4d4d">montagne</text>
</g>
<!-- camion -->
<g id="node8" class="node">
<title>camion</title>
<ellipse fill="#6d186e" stroke="white" stroke-width="0" cx="345.25" cy="-330.53" rx="11" ry="11"/>
<text text-anchor="middle" x="303.25" y="-346.09" font-family="Helvetica,sans-Serif" font-size="16.80" fill="#4d4d4d">camion</text>
</g>
<!-- économie -->
<g id="node9" class="node">
<title>économie</title>
<ellipse fill="#d54a41" stroke="white" stroke-width="0" cx="300.88" cy="-52.75" rx="21.5" ry="21.5"/>
<text text-anchor="middle" x="225.88" y="-37.97" font-family="Helvetica,sans-Serif" font-size="21.60" fill="#4d4d4d">économie</text>
</g>
<!-- environnement -->
<g id="node10" class="node">
<title>environnement</title>
<ellipse fill="#b0315b" stroke="white" stroke-width="0" cx="373.67" cy="-40" rx="18" ry="18"/>
<text text-anchor="middle" x="431.67" y="-6" font-family="Helvetica,sans-Serif" font-size="20.00" fill="#4d4d4d">environnement</text>
</g>
<!-- emploi -->
<g id="node11" class="node">
<title>emploi</title>
<ellipse fill="#b3325a" stroke="white" stroke-width="0" cx="329.08" cy="-92.65" rx="18" ry="18"/>
<text text-anchor="middle" x="277.58" y="-116.65" font-family="Helvetica,sans-Serif" font-size="20.00" fill="#4d4d4d">emploi</text>
</g>
<!-- terre -->
<g id="node12" class="node">
<title>terre</title>
<ellipse fill="#380962" stroke="white" stroke-width="0" cx="171.97" cy="-148.2" rx="7" ry="7"/>
<text text-anchor="middle" x="146.47" y="-160.04" font-family="Helvetica,sans-Serif" font-size="15.20" fill="#4d4d4d">terre</text>
</g>
<!-- usine -->
<g id="node13" class="node">
<title>usine</title>
<ellipse fill="#540f6d" stroke="white" stroke-width="0" cx="369.01" cy="-276.62" rx="11" ry="11"/>
<text text-anchor="middle" x="335.01" y="-292.18" font-family="Helvetica,sans-Serif" font-size="16.80" fill="#4d4d4d">usine</text>
</g>
<!-- exploitation -->
<g id="node14" class="node">
<title>exploitation</title>
<ellipse fill="#5a116e" stroke="white" stroke-width="0" cx="261.03" cy="-339.41" rx="11" ry="11"/>
<text text-anchor="middle" x="200.03" y="-354.97" font-family="Helvetica,sans-Serif" font-size="16.80" fill="#4d4d4d">exploitation</text>
</g>
<!-- ressource -->
<g id="node15" class="node">
<title>ressource</title>
<ellipse fill="#470b6a" stroke="white" stroke-width="0" cx="226.51" cy="-297.49" rx="7" ry="7"/>
<text text-anchor="middle" x="182.51" y="-309.33" font-family="Helvetica,sans-Serif" font-size="15.20" fill="#4d4d4d">ressource</text>
</g>
<!-- conflit -->
<g id="node16" class="node">
<title>conflit</title>
<ellipse fill="#380962" stroke="white" stroke-width="0" cx="231.64" cy="-59.17" rx="7" ry="7"/>
<text text-anchor="middle" x="248.64" y="-71.01" font-family="Helvetica,sans-Serif" font-size="15.20" fill="#4d4d4d">conflit</text>
</g>
<!-- développement -->
<g id="node17" class="node">
<title>développement</title>
<ellipse fill="#060419" stroke="white" stroke-width="0" cx="145.74" cy="-290.93" rx="3.5" ry="3.5"/>
<text text-anchor="middle" x="88.24" y="-298.55" font-family="Helvetica,sans-Serif" font-size="13.60" fill="#4d4d4d">développement</text>
</g>
<!-- minerai -->
<g id="node18" class="node">
<title>minerai</title>
<ellipse fill="#540f6d" stroke="white" stroke-width="0" cx="296.71" cy="-295.12" rx="11" ry="11"/>
<text text-anchor="middle" x="253.71" y="-310.68" font-family="Helvetica,sans-Serif" font-size="16.80" fill="#4d4d4d">minerai</text>
</g>
<!-- déforestation -->
<g id="node19" class="node">
<title>déforestation</title>
<ellipse fill="#10092d" stroke="white" stroke-width="0" cx="93.5" cy="-255.55" rx="3.5" ry="3.5"/>
<text text-anchor="middle" x="45" y="-263.17" font-family="Helvetica,sans-Serif" font-size="13.60" fill="#4d4d4d">déforestation</text>
</g>
<!-- terre rouge -->
<g id="node20" class="node">
<title>terre rouge</title>
<ellipse fill="#040312" stroke="white" stroke-width="0" cx="481.34" cy="-202.08" rx="3.5" ry="3.5"/>
<text text-anchor="middle" x="439.84" y="-209.7" font-family="Helvetica,sans-Serif" font-size="13.60" fill="#4d4d4d">terre rouge</text>
</g>
<!-- sln -->
<g id="node21" class="node">
<title>sln</title>
<ellipse fill="#3e0966" stroke="white" stroke-width="0" cx="447.15" cy="-321.93" rx="7" ry="7"/>
<text text-anchor="middle" x="428.65" y="-333.77" font-family="Helvetica,sans-Serif" font-size="15.20" fill="#4d4d4d">sln</text>
</g>
<!-- goro -->
<g id="node22" class="node">
<title>goro</title>
<ellipse fill="#000004" stroke="white" stroke-width="0" cx="499.74" cy="-269.36" rx="0.5" ry="0.5"/>
<text text-anchor="middle" x="485.24" y="-273.26" font-family="Helvetica,sans-Serif" font-size="12.00" fill="#4d4d4d">goro</text>
</g>
</g>
</svg>
