<?xml version="1.0" encoding="UTF-8" standalone="no"?>
<!DOCTYPE svg PUBLIC "-//W3C//DTD SVG 1.1//EN"
 "http://www.w3.org/Graphics/SVG/1.1/DTD/svg11.dtd">
<!-- Generated by graphviz version 2.43.0 (0)
 -->
<!-- Pages: 1 -->
<svg width="916pt" height="446pt"
 viewBox="0.00 0.00 916.50 446.32" xmlns="http://www.w3.org/2000/svg" xmlns:xlink="http://www.w3.org/1999/xlink">
<g id="graph0" class="graph" transform="scale(1 1) rotate(0) translate(4 442.32)">
<polygon fill="white" stroke="transparent" points="-4,4 -4,-442.32 912.5,-442.32 912.5,4 -4,4"/>
<!-- avenir sans nickel&#45;&#45;industrie -->
<g id="edge1" class="edge">
<title>avenir sans nickel&#45;&#45;industrie</title>
<path fill="none" stroke="darkgrey" stroke-width="1.08" d="M287.42,-291.94C303.91,-332.35 333.85,-405.75 340.64,-422.4"/>
</g>
<!-- avenir sans nickel&#45;&#45;travail -->
<g id="edge2" class="edge">
<title>avenir sans nickel&#45;&#45;travail</title>
<path fill="none" stroke="darkgrey" stroke-width="4.12" d="M305.34,-269.76C308,-270.19 310.64,-270.63 313.15,-271.04"/>
</g>
<!-- avenir sans nickel&#45;&#45;politique -->
<g id="edge3" class="edge">
<title>avenir sans nickel&#45;&#45;politique</title>
<path fill="none" stroke="darkgrey" stroke-width="4.64" d="M303.56,-254.25C317.87,-248.56 335.14,-241.69 348.26,-236.47"/>
</g>
<!-- avenir sans nickel&#45;&#45;secteur nickel -->
<g id="edge4" class="edge">
<title>avenir sans nickel&#45;&#45;secteur nickel</title>
<path fill="none" stroke="darkgrey" stroke-width="4.24" d="M305.03,-258.76C365.05,-245.61 503.01,-215.37 556.09,-203.74"/>
</g>
<!-- avenir sans nickel&#45;&#45;relation politique -->
<g id="edge5" class="edge">
<title>avenir sans nickel&#45;&#45;relation politique</title>
<path fill="none" stroke="darkgrey" stroke-width="1.4" d="M299.54,-247.42C364.02,-198.22 542.97,-61.72 567.82,-42.77"/>
</g>
<!-- avenir sans nickel&#45;&#45;avenir avec nickel -->
<g id="edge6" class="edge">
<title>avenir sans nickel&#45;&#45;avenir avec nickel</title>
<path fill="none" stroke="darkgrey" stroke-width="3.21" d="M286.9,-237.66C304.77,-190.9 340.41,-97.62 352.38,-66.27"/>
</g>
<!-- avenir sans nickel&#45;&#45;pollution -->
<g id="edge7" class="edge">
<title>avenir sans nickel&#45;&#45;pollution</title>
<path fill="none" stroke="darkgrey" stroke-width="6.97" d="M294.35,-242.12C307.62,-225.14 325.53,-202.23 338.18,-186.05"/>
</g>
<!-- avenir sans nickel&#45;&#45;ressource minière -->
<g id="edge8" class="edge">
<title>avenir sans nickel&#45;&#45;ressource minière</title>
<path fill="none" stroke="darkgrey" stroke-width="5.52" d="M305.32,-259.8C343.15,-252.96 408.85,-241.07 444.53,-234.61"/>
</g>
<!-- avenir sans nickel&#45;&#45;dégradation environnementale -->
<g id="edge9" class="edge">
<title>avenir sans nickel&#45;&#45;dégradation environnementale</title>
<path fill="none" stroke="darkgrey" stroke-width="7.93" d="M302.31,-251.71C336.97,-233.86 398.46,-202.19 436.06,-182.82"/>
</g>
<!-- avenir sans nickel&#45;&#45;nature -->
<g id="edge10" class="edge">
<title>avenir sans nickel&#45;&#45;nature</title>
<path fill="none" stroke="darkgrey" stroke-width="2.45" d="M271.35,-236.44C263.66,-193.37 249.47,-113.8 244.32,-84.92"/>
</g>
<!-- avenir sans nickel&#45;&#45;société néo&#45;calédonienne -->
<g id="edge11" class="edge">
<title>avenir sans nickel&#45;&#45;société néo&#45;calédonienne</title>
<path fill="none" stroke="darkgrey" stroke-width="3.88" d="M304.67,-271.94C334.12,-279.15 379.11,-290.17 401.8,-295.73"/>
</g>
<!-- avenir sans nickel&#45;&#45;alternative au développement -->
<g id="edge12" class="edge">
<title>avenir sans nickel&#45;&#45;alternative au développement</title>
<path fill="none" stroke="darkgrey" stroke-width="5.88" d="M305.42,-263.34C354.77,-260.47 454.58,-254.65 504.13,-251.77"/>
</g>
<!-- avenir sans nickel&#45;&#45;nickel -->
<g id="edge13" class="edge">
<title>avenir sans nickel&#45;&#45;nickel</title>
<path fill="none" stroke="darkgrey" stroke-width="1" d="M298.3,-284.57C333.22,-315.8 399.64,-375.2 419.07,-392.58"/>
</g>
<!-- avenir sans nickel&#45;&#45;économie -->
<g id="edge14" class="edge">
<title>avenir sans nickel&#45;&#45;économie</title>
<path fill="none" stroke="darkgrey" stroke-width="3.71" d="M304.72,-272.17C350.05,-283.63 437.7,-305.78 475.09,-315.23"/>
</g>
<!-- avenir sans nickel&#45;&#45;amélioration environnementale -->
<g id="edge15" class="edge">
<title>avenir sans nickel&#45;&#45;amélioration environnementale</title>
<path fill="none" stroke="darkgrey" stroke-width="2.24" d="M296.85,-243.98C331.71,-208.02 401.26,-136.28 424.63,-112.17"/>
</g>
<!-- avenir sans nickel&#45;&#45;essor technologique -->
<g id="edge16" class="edge">
<title>avenir sans nickel&#45;&#45;essor technologique</title>
<path fill="none" stroke="darkgrey" stroke-width="2.21" d="M273.39,-236.16C272.17,-224.67 270.8,-211.8 269.73,-201.7"/>
</g>
<!-- avenir sans nickel&#45;&#45;risque -->
<g id="edge17" class="edge">
<title>avenir sans nickel&#45;&#45;risque</title>
<path fill="none" stroke="darkgrey" stroke-width="1.25" d="M247.77,-271.91C184.69,-287.07 38.52,-322.17 27.2,-324.89"/>
</g>
<!-- industrie&#45;&#45;politique -->
<g id="edge18" class="edge">
<title>industrie&#45;&#45;politique</title>
<path fill="none" stroke="darkgrey" stroke-width="1.35" d="M342.54,-422.05C345.38,-400.84 359.47,-295.62 365.6,-249.81"/>
</g>
<!-- industrie&#45;&#45;secteur nickel -->
<g id="edge19" class="edge">
<title>industrie&#45;&#45;secteur nickel</title>
<path fill="none" stroke="darkgrey" stroke-width="1.22" d="M344.68,-423.27C366.2,-402.54 513.04,-261.09 561.76,-214.15"/>
</g>
<!-- industrie&#45;&#45;ressource minière -->
<g id="edge20" class="edge">
<title>industrie&#45;&#45;ressource minière</title>
<path fill="none" stroke="darkgrey" stroke-width="1.63" d="M344.03,-422.75C356.65,-403.35 425.68,-297.21 455.54,-251.3"/>
</g>
<!-- industrie&#45;&#45;dégradation environnementale -->
<g id="edge21" class="edge">
<title>industrie&#45;&#45;dégradation environnementale</title>
<path fill="none" stroke="darkgrey" stroke-width="1.07" d="M343.63,-422.54C354.76,-399.65 421.22,-262.94 452.26,-199.08"/>
</g>
<!-- industrie&#45;&#45;alternative au développement -->
<g id="edge22" class="edge">
<title>industrie&#45;&#45;alternative au développement</title>
<path fill="none" stroke="darkgrey" stroke-width="1.35" d="M344.74,-423.34C362.77,-406.77 466.27,-311.72 511.85,-269.85"/>
</g>
<!-- industrie&#45;&#45;nickel -->
<g id="edge23" class="edge">
<title>industrie&#45;&#45;nickel</title>
<path fill="none" stroke="darkgrey" stroke-width="1" d="M345.58,-424.6C358.16,-420.28 400.83,-405.61 417.65,-399.83"/>
</g>
<!-- industrie&#45;&#45;économie -->
<g id="edge24" class="edge">
<title>industrie&#45;&#45;économie</title>
<path fill="none" stroke="darkgrey" stroke-width="1.37" d="M344.91,-423.79C361.34,-412.22 443.85,-354.08 477.93,-330.07"/>
</g>
<!-- travail&#45;&#45;politique -->
<g id="edge26" class="edge">
<title>travail&#45;&#45;politique</title>
<path fill="none" stroke="darkgrey" stroke-width="4.07" d="M342.47,-260.06C346.34,-255.35 350.7,-250.05 354.73,-245.15"/>
</g>
<!-- travail&#45;&#45;secteur nickel -->
<g id="edge27" class="edge">
<title>travail&#45;&#45;secteur nickel</title>
<path fill="none" stroke="darkgrey" stroke-width="4.7" d="M348.36,-268.7C392.51,-255.28 509.08,-219.84 556.71,-205.36"/>
</g>
<!-- travail&#45;&#45;avenir avec nickel -->
<g id="edge28" class="edge">
<title>travail&#45;&#45;avenir avec nickel</title>
<path fill="none" stroke="darkgrey" stroke-width="2.04" d="M333.15,-255.73C338.23,-212.09 350.96,-102.6 355.1,-67.05"/>
</g>
<!-- travail&#45;&#45;pollution -->
<g id="edge29" class="edge">
<title>travail&#45;&#45;pollution</title>
<path fill="none" stroke="darkgrey" stroke-width="6.45" d="M334.77,-256.18C338.5,-238.38 344.28,-210.84 348.46,-190.93"/>
</g>
<!-- travail&#45;&#45;ressource minière -->
<g id="edge30" class="edge">
<title>travail&#45;&#45;ressource minière</title>
<path fill="none" stroke="darkgrey" stroke-width="3.6" d="M348.27,-268.5C372.74,-260.75 417.65,-246.51 445.35,-237.73"/>
</g>
<!-- travail&#45;&#45;dégradation environnementale -->
<g id="edge31" class="edge">
<title>travail&#45;&#45;dégradation environnementale</title>
<path fill="none" stroke="darkgrey" stroke-width="7.52" d="M345.2,-262.85C367.45,-245.38 411.01,-211.17 439.87,-188.51"/>
</g>
<!-- travail&#45;&#45;nature -->
<g id="edge32" class="edge">
<title>travail&#45;&#45;nature</title>
<path fill="none" stroke="darkgrey" stroke-width="1.34" d="M323.63,-257.27C305.9,-217.3 261.43,-117.03 246.99,-84.47"/>
</g>
<!-- travail&#45;&#45;société néo&#45;calédonienne -->
<g id="edge33" class="edge">
<title>travail&#45;&#45;société néo&#45;calédonienne</title>
<path fill="none" stroke="darkgrey" stroke-width="4.17" d="M348.62,-279.19C364.46,-283.9 387.41,-290.72 402,-295.05"/>
</g>
<!-- travail&#45;&#45;alternative au développement -->
<g id="edge35" class="edge">
<title>travail&#45;&#45;alternative au développement</title>
<path fill="none" stroke="darkgrey" stroke-width="4.75" d="M348.99,-271.84C384.1,-267.7 462.12,-258.48 504.55,-253.47"/>
</g>
<!-- travail&#45;&#45;nickel -->
<g id="edge36" class="edge">
<title>travail&#45;&#45;nickel</title>
<path fill="none" stroke="darkgrey" stroke-width="1.64" d="M342.13,-288.62C362.83,-315.96 406.51,-373.65 420.28,-391.85"/>
</g>
<!-- travail&#45;&#45;économie -->
<g id="edge37" class="edge">
<title>travail&#45;&#45;économie</title>
<path fill="none" stroke="darkgrey" stroke-width="4.72" d="M348.64,-278.94C379.74,-287.74 444.02,-305.91 475.1,-314.7"/>
</g>
<!-- travail&#45;&#45;amélioration environnementale -->
<g id="edge38" class="edge">
<title>travail&#45;&#45;amélioration environnementale</title>
<path fill="none" stroke="darkgrey" stroke-width="3.42" d="M340.4,-258.29C361,-223.78 409.78,-142.1 426.64,-113.86"/>
</g>
<!-- travail&#45;&#45;essor technologique -->
<g id="edge39" class="edge">
<title>travail&#45;&#45;essor technologique</title>
<path fill="none" stroke="darkgrey" stroke-width="3.39" d="M320.6,-259.08C308.89,-242.37 290,-215.42 278.29,-198.7"/>
</g>
<!-- travail&#45;&#45;exploitation minière -->
<g id="edge25" class="edge">
<title>travail&#45;&#45;exploitation minière</title>
<path fill="none" stroke="darkgrey" stroke-width="1.3" d="M336.91,-256.64C355.56,-201.6 412.74,-32.91 421.56,-6.89"/>
</g>
<!-- travail&#45;&#45;nouvelle&#45;calédonie -->
<g id="edge34" class="edge">
<title>travail&#45;&#45;nouvelle&#45;calédonie</title>
<path fill="none" stroke="darkgrey" d="M347.52,-281.74C397.1,-305.1 543.39,-374.04 575.89,-389.36"/>
</g>
<!-- travail&#45;&#45;matériel -->
<g id="edge40" class="edge">
<title>travail&#45;&#45;matériel</title>
<path fill="none" stroke="darkgrey" stroke-width="1" d="M317.21,-262.18C268.8,-220.93 109.31,-85.02 99.39,-76.56"/>
</g>
<!-- politique&#45;&#45;secteur nickel -->
<g id="edge50" class="edge">
<title>politique&#45;&#45;secteur nickel</title>
<path fill="none" stroke="darkgrey" stroke-width="4.76" d="M390.04,-225.41C430.19,-219.76 515.92,-207.71 555.98,-202.07"/>
</g>
<!-- politique&#45;&#45;relation politique -->
<g id="edge51" class="edge">
<title>politique&#45;&#45;relation politique</title>
<path fill="none" stroke="darkgrey" stroke-width="2.27" d="M384.33,-213.7C427.91,-173.22 547.53,-62.1 567.76,-43.29"/>
</g>
<!-- politique&#45;&#45;avenir avec nickel -->
<g id="edge52" class="edge">
<title>politique&#45;&#45;avenir avec nickel</title>
<path fill="none" stroke="darkgrey" stroke-width="1.8" d="M366.96,-206.92C364.38,-169.84 359.17,-95.18 357.2,-66.91"/>
</g>
<!-- politique&#45;&#45;pollution -->
<g id="edge53" class="edge">
<title>politique&#45;&#45;pollution</title>
<path fill="none" stroke="darkgrey" stroke-width="4.65" d="M363.44,-207.39C362.16,-202.04 360.78,-196.24 359.47,-190.73"/>
</g>
<!-- politique&#45;&#45;ressource minière -->
<g id="edge54" class="edge">
<title>politique&#45;&#45;ressource minière</title>
<path fill="none" stroke="darkgrey" stroke-width="4.42" d="M390.34,-228.81C406.22,-229.07 427.71,-229.43 444.27,-229.71"/>
</g>
<!-- politique&#45;&#45;dégradation environnementale -->
<g id="edge55" class="edge">
<title>politique&#45;&#45;dégradation environnementale</title>
<path fill="none" stroke="darkgrey" stroke-width="6.57" d="M386.76,-217.04C400.93,-208.2 420.89,-195.76 437.5,-185.41"/>
</g>
<!-- politique&#45;&#45;nature -->
<g id="edge56" class="edge">
<title>politique&#45;&#45;nature</title>
<path fill="none" stroke="darkgrey" stroke-width="1.52" d="M354.73,-211.63C327.93,-178.81 269.5,-107.28 249.37,-82.63"/>
</g>
<!-- politique&#45;&#45;société néo&#45;calédonienne -->
<g id="edge57" class="edge">
<title>politique&#45;&#45;société néo&#45;calédonienne</title>
<path fill="none" stroke="darkgrey" stroke-width="3.55" d="M380.69,-246.66C389.14,-259.27 400.18,-275.72 407.63,-286.82"/>
</g>
<!-- politique&#45;&#45;alternative au développement -->
<g id="edge59" class="edge">
<title>politique&#45;&#45;alternative au développement</title>
<path fill="none" stroke="darkgrey" stroke-width="3.93" d="M390.02,-231.27C419.36,-235.11 471.94,-242.01 504.62,-246.29"/>
</g>
<!-- politique&#45;&#45;nickel -->
<g id="edge60" class="edge">
<title>politique&#45;&#45;nickel</title>
<path fill="none" stroke="darkgrey" stroke-width="1.68" d="M375.34,-249.17C387.97,-287.25 414.31,-366.64 422.24,-390.52"/>
</g>
<!-- politique&#45;&#45;économie -->
<g id="edge61" class="edge">
<title>politique&#45;&#45;économie</title>
<path fill="none" stroke="darkgrey" stroke-width="4.08" d="M386,-241.32C410.61,-259.4 454.96,-291.97 477.95,-308.86"/>
</g>
<!-- politique&#45;&#45;amélioration environnementale -->
<g id="edge62" class="edge">
<title>politique&#45;&#45;amélioration environnementale</title>
<path fill="none" stroke="darkgrey" stroke-width="1.35" d="M378.33,-209.28C392.15,-182.43 416.78,-134.59 427.39,-113.96"/>
</g>
<!-- politique&#45;&#45;essor technologique -->
<g id="edge63" class="edge">
<title>politique&#45;&#45;essor technologique</title>
<path fill="none" stroke="darkgrey" stroke-width="1.22" d="M348.58,-219.62C329.79,-211.28 301.94,-198.92 284.35,-191.12"/>
</g>
<!-- politique&#45;&#45;risque -->
<g id="edge64" class="edge">
<title>politique&#45;&#45;risque</title>
<path fill="none" stroke="darkgrey" stroke-width="1.53" d="M347.59,-234.34C275.66,-254.66 41.76,-320.75 27.21,-324.86"/>
</g>
<!-- politique&#45;&#45;nouvelle&#45;calédonie -->
<g id="edge58" class="edge">
<title>politique&#45;&#45;nouvelle&#45;calédonie</title>
<path fill="none" stroke="darkgrey" stroke-width="2.14" d="M385.6,-241.58C430.41,-275.93 549.43,-367.17 576.71,-388.08"/>
</g>
<!-- secteur nickel&#45;&#45;relation politique -->
<g id="edge65" class="edge">
<title>secteur nickel&#45;&#45;relation politique</title>
<path fill="none" stroke="darkgrey" stroke-width="1.95" d="M576.51,-177.35C574.88,-139.03 571.59,-61.77 570.85,-44.19"/>
</g>
<!-- secteur nickel&#45;&#45;avenir avec nickel -->
<g id="edge66" class="edge">
<title>secteur nickel&#45;&#45;avenir avec nickel</title>
<path fill="none" stroke="darkgrey" stroke-width="2.1" d="M559.35,-187.33C514.61,-158.31 399.9,-83.92 366,-61.93"/>
</g>
<!-- secteur nickel&#45;&#45;pollution -->
<g id="edge67" class="edge">
<title>secteur nickel&#45;&#45;pollution</title>
<path fill="none" stroke="darkgrey" stroke-width="4.94" d="M555.98,-195.91C514.29,-189.81 422.6,-176.37 378.41,-169.9"/>
</g>
<!-- secteur nickel&#45;&#45;ressource minière -->
<g id="edge68" class="edge">
<title>secteur nickel&#45;&#45;ressource minière</title>
<path fill="none" stroke="darkgrey" stroke-width="2.97" d="M556.59,-205.05C538.54,-210.23 512.44,-217.73 493.49,-223.18"/>
</g>
<!-- secteur nickel&#45;&#45;dégradation environnementale -->
<g id="edge69" class="edge">
<title>secteur nickel&#45;&#45;dégradation environnementale</title>
<path fill="none" stroke="darkgrey" stroke-width="4.49" d="M556.64,-192.81C541.53,-188.28 520.74,-182.03 503.12,-176.74"/>
</g>
<!-- secteur nickel&#45;&#45;société néo&#45;calédonienne -->
<g id="edge70" class="edge">
<title>secteur nickel&#45;&#45;société néo&#45;calédonienne</title>
<path fill="none" stroke="darkgrey" stroke-width="2.88" d="M558.91,-210.54C525.6,-231.19 456.45,-274.06 428.28,-291.53"/>
</g>
<!-- secteur nickel&#45;&#45;alternative au développement -->
<g id="edge72" class="edge">
<title>secteur nickel&#45;&#45;alternative au développement</title>
<path fill="none" stroke="darkgrey" stroke-width="7.27" d="M563.26,-215.47C559.84,-219.44 556.13,-223.73 552.52,-227.91"/>
</g>
<!-- secteur nickel&#45;&#45;nickel -->
<g id="edge73" class="edge">
<title>secteur nickel&#45;&#45;nickel</title>
<path fill="none" stroke="darkgrey" stroke-width="2.85" d="M564.14,-216.32C531.59,-258.55 449.12,-365.57 429.01,-391.66"/>
</g>
<!-- secteur nickel&#45;&#45;économie -->
<g id="edge74" class="edge">
<title>secteur nickel&#45;&#45;économie</title>
<path fill="none" stroke="darkgrey" stroke-width="3.41" d="M564.93,-216.85C548.17,-240.71 518.73,-282.61 503.1,-304.85"/>
</g>
<!-- secteur nickel&#45;&#45;amélioration environnementale -->
<g id="edge75" class="edge">
<title>secteur nickel&#45;&#45;amélioration environnementale</title>
<path fill="none" stroke="darkgrey" stroke-width="3.81" d="M559.37,-187.22C528.26,-166.82 465.62,-125.76 441.89,-110.21"/>
</g>
<!-- secteur nickel&#45;&#45;essor technologique -->
<g id="edge77" class="edge">
<title>secteur nickel&#45;&#45;essor technologique</title>
<path fill="none" stroke="darkgrey" stroke-width="3.42" d="M555.67,-197.98C497.58,-195.12 339.71,-187.33 286,-184.69"/>
</g>
<!-- secteur nickel&#45;&#45;nouvelle&#45;calédonie -->
<g id="edge71" class="edge">
<title>secteur nickel&#45;&#45;nouvelle&#45;calédonie</title>
<path fill="none" stroke="darkgrey" stroke-width="1.18" d="M577.99,-220.86C579.09,-264.11 581.49,-358.9 582.16,-385.39"/>
</g>
<!-- secteur nickel&#45;&#45;foncier -->
<g id="edge76" class="edge">
<title>secteur nickel&#45;&#45;foncier</title>
<path fill="none" stroke="darkgrey" stroke-width="1.23" d="M598.11,-206.57C668.22,-232.06 893.31,-313.88 907.31,-318.97"/>
</g>
<!-- secteur nickel&#45;&#45;échange commercial -->
<g id="edge78" class="edge">
<title>secteur nickel&#45;&#45;échange commercial</title>
<path fill="none" stroke="darkgrey" stroke-width="1.1" d="M595.7,-187.55C652.96,-151.47 825.86,-42.52 836.61,-35.75"/>
</g>
<!-- relation politique&#45;&#45;pollution -->
<g id="edge79" class="edge">
<title>relation politique&#45;&#45;pollution</title>
<path fill="none" stroke="darkgrey" stroke-width="1.2" d="M567.62,-42.35C546.81,-54.41 425.61,-124.59 375.4,-153.66"/>
</g>
<!-- relation politique&#45;&#45;ressource minière -->
<g id="edge80" class="edge">
<title>relation politique&#45;&#45;ressource minière</title>
<path fill="none" stroke="darkgrey" stroke-width="1.07" d="M568.93,-43.87C558.6,-63.19 505.43,-162.59 481.27,-207.75"/>
</g>
<!-- relation politique&#45;&#45;dégradation environnementale -->
<g id="edge81" class="edge">
<title>relation politique&#45;&#45;dégradation environnementale</title>
<path fill="none" stroke="darkgrey" stroke-width="1.77" d="M568.16,-43.68C557.71,-56.5 517.28,-106.08 491.15,-138.12"/>
</g>
<!-- relation politique&#45;&#45;économie -->
<g id="edge82" class="edge">
<title>relation politique&#45;&#45;économie</title>
<path fill="none" stroke="darkgrey" stroke-width="1.88" d="M569.71,-44.1C562.16,-71.11 513.41,-245.53 497.61,-302.04"/>
</g>
<!-- avenir avec nickel&#45;&#45;pollution -->
<g id="edge83" class="edge">
<title>avenir avec nickel&#45;&#45;pollution</title>
<path fill="none" stroke="darkgrey" stroke-width="1.7" d="M356.14,-66.72C355.7,-83.98 354.85,-117.85 354.26,-141.26"/>
</g>
<!-- avenir avec nickel&#45;&#45;ressource minière -->
<g id="edge84" class="edge">
<title>avenir avec nickel&#45;&#45;ressource minière</title>
<path fill="none" stroke="darkgrey" stroke-width="1.83" d="M362.49,-65.09C380.03,-92.19 431.1,-171.1 455.72,-209.14"/>
</g>
<!-- avenir avec nickel&#45;&#45;dégradation environnementale -->
<g id="edge85" class="edge">
<title>avenir avec nickel&#45;&#45;dégradation environnementale</title>
<path fill="none" stroke="darkgrey" stroke-width="3.23" d="M364.46,-63.66C380.58,-79.61 417.46,-116.08 442.61,-140.95"/>
</g>
<!-- avenir avec nickel&#45;&#45;alternative au développement -->
<g id="edge86" class="edge">
<title>avenir avec nickel&#45;&#45;alternative au développement</title>
<path fill="none" stroke="darkgrey" stroke-width="2.96" d="M364.02,-64.07C389.89,-92.47 475.02,-185.96 513.82,-228.57"/>
</g>
<!-- avenir avec nickel&#45;&#45;économie -->
<g id="edge87" class="edge">
<title>avenir avec nickel&#45;&#45;économie</title>
<path fill="none" stroke="darkgrey" stroke-width="2.03" d="M361.59,-65.74C382.25,-105.76 458.94,-254.31 484.4,-303.64"/>
</g>
<!-- avenir avec nickel&#45;&#45;amélioration environnementale -->
<g id="edge88" class="edge">
<title>avenir avec nickel&#45;&#45;amélioration environnementale</title>
<path fill="none" stroke="darkgrey" stroke-width="2.85" d="M365.75,-61.64C380.35,-70.92 408.44,-88.77 423.09,-98.08"/>
</g>
<!-- avenir avec nickel&#45;&#45;essor technologique -->
<g id="edge89" class="edge">
<title>avenir avec nickel&#45;&#45;essor technologique</title>
<path fill="none" stroke="darkgrey" stroke-width="2.5" d="M350.05,-64.93C334.89,-86.84 296.59,-142.22 278.11,-168.93"/>
</g>
<!-- pollution&#45;&#45;ressource minière -->
<g id="edge90" class="edge">
<title>pollution&#45;&#45;ressource minière</title>
<path fill="none" stroke="darkgrey" stroke-width="4.93" d="M375.66,-178.43C396.24,-189.8 426.8,-206.67 447.36,-218.01"/>
</g>
<!-- pollution&#45;&#45;dégradation environnementale -->
<g id="edge91" class="edge">
<title>pollution&#45;&#45;dégradation environnementale</title>
<path fill="none" stroke="darkgrey" stroke-width="10" d="M378.78,-166.27C394.32,-166.27 414.54,-166.27 431.82,-166.26"/>
</g>
<!-- pollution&#45;&#45;nature -->
<g id="edge92" class="edge">
<title>pollution&#45;&#45;nature</title>
<path fill="none" stroke="darkgrey" stroke-width="3.07" d="M334.26,-150.21C309.73,-129.89 268.55,-95.76 250.87,-81.11"/>
</g>
<!-- pollution&#45;&#45;société néo&#45;calédonienne -->
<g id="edge93" class="edge">
<title>pollution&#45;&#45;société néo&#45;calédonienne</title>
<path fill="none" stroke="darkgrey" stroke-width="4.99" d="M364.34,-189.12C377.42,-217.03 399.11,-263.3 409.71,-285.92"/>
</g>
<!-- pollution&#45;&#45;alternative au développement -->
<g id="edge95" class="edge">
<title>pollution&#45;&#45;alternative au développement</title>
<path fill="none" stroke="darkgrey" stroke-width="5.65" d="M376.4,-176.88C409.75,-192.43 471.74,-221.32 507.02,-237.77"/>
</g>
<!-- pollution&#45;&#45;nickel -->
<g id="edge96" class="edge">
<title>pollution&#45;&#45;nickel</title>
<path fill="none" stroke="darkgrey" stroke-width="2.76" d="M361.09,-190.57C376.95,-242.28 413.32,-360.9 422.44,-390.62"/>
</g>
<!-- pollution&#45;&#45;économie -->
<g id="edge97" class="edge">
<title>pollution&#45;&#45;économie</title>
<path fill="none" stroke="darkgrey" stroke-width="5.22" d="M370.68,-185.08C399.11,-216.44 455.52,-278.68 480.41,-306.13"/>
</g>
<!-- pollution&#45;&#45;amélioration environnementale -->
<g id="edge98" class="edge">
<title>pollution&#45;&#45;amélioration environnementale</title>
<path fill="none" stroke="darkgrey" stroke-width="2.02" d="M373.53,-150.57C389.6,-137.9 411.44,-120.66 423.53,-111.13"/>
</g>
<!-- pollution&#45;&#45;essor technologique -->
<g id="edge99" class="edge">
<title>pollution&#45;&#45;essor technologique</title>
<path fill="none" stroke="darkgrey" stroke-width="3.55" d="M328.82,-171.34C314.96,-174.17 298.02,-177.63 285.51,-180.18"/>
</g>
<!-- pollution&#45;&#45;risque -->
<g id="edge100" class="edge">
<title>pollution&#45;&#45;risque</title>
<path fill="none" stroke="darkgrey" stroke-width="1.42" d="M330.89,-177.31C259.02,-212.19 40.74,-318.15 27.16,-324.73"/>
</g>
<!-- pollution&#45;&#45;nouvelle&#45;calédonie -->
<g id="edge94" class="edge">
<title>pollution&#45;&#45;nouvelle&#45;calédonie</title>
<path fill="none" stroke="darkgrey" stroke-width="1.33" d="M371.58,-184.01C419.6,-231.49 549.26,-359.69 577.05,-387.17"/>
</g>
<!-- ressource minière&#45;&#45;dégradation environnementale -->
<g id="edge101" class="edge">
<title>ressource minière&#45;&#45;dégradation environnementale</title>
<path fill="none" stroke="darkgrey" stroke-width="6.99" d="M468.87,-204.89C468.86,-204.05 468.84,-203.21 468.83,-202.36"/>
</g>
<!-- ressource minière&#45;&#45;société néo&#45;calédonienne -->
<g id="edge102" class="edge">
<title>ressource minière&#45;&#45;société néo&#45;calédonienne</title>
<path fill="none" stroke="darkgrey" stroke-width="1.68" d="M453.86,-250.1C444.5,-262.21 432.88,-277.25 424.99,-287.46"/>
</g>
<!-- ressource minière&#45;&#45;alternative au développement -->
<g id="edge104" class="edge">
<title>ressource minière&#45;&#45;alternative au développement</title>
<path fill="none" stroke="darkgrey" stroke-width="6.27" d="M493.53,-237.67C497.5,-238.9 501.64,-240.19 505.69,-241.45"/>
</g>
<!-- ressource minière&#45;&#45;nickel -->
<g id="edge105" class="edge">
<title>ressource minière&#45;&#45;nickel</title>
<path fill="none" stroke="darkgrey" stroke-width="1.47" d="M462.79,-254.46C452.37,-293.44 432.47,-367.81 426.37,-390.64"/>
</g>
<!-- ressource minière&#45;&#45;économie -->
<g id="edge106" class="edge">
<title>ressource minière&#45;&#45;économie</title>
<path fill="none" stroke="darkgrey" stroke-width="4.31" d="M475.69,-254.6C479.61,-269.62 484.54,-288.5 488.08,-302.05"/>
</g>
<!-- ressource minière&#45;&#45;amélioration environnementale -->
<g id="edge107" class="edge">
<title>ressource minière&#45;&#45;amélioration environnementale</title>
<path fill="none" stroke="darkgrey" stroke-width="2.36" d="M462.29,-206.12C454.28,-178.68 441.53,-134.99 435.65,-114.86"/>
</g>
<!-- ressource minière&#45;&#45;essor technologique -->
<g id="edge108" class="edge">
<title>ressource minière&#45;&#45;essor technologique</title>
<path fill="none" stroke="darkgrey" stroke-width="4.45" d="M444.6,-224.45C403.41,-214.97 321.68,-196.17 285.63,-187.88"/>
</g>
<!-- ressource minière&#45;&#45;nouvelle&#45;calédonie -->
<g id="edge103" class="edge">
<title>ressource minière&#45;&#45;nouvelle&#45;calédonie</title>
<path fill="none" stroke="darkgrey" stroke-width="1.62" d="M483.62,-250.68C509.52,-287.86 562.9,-364.49 578.17,-386.41"/>
</g>
<!-- dégradation environnementale&#45;&#45;nature -->
<g id="edge109" class="edge">
<title>dégradation environnementale&#45;&#45;nature</title>
<path fill="none" stroke="darkgrey" stroke-width="4.62" d="M434.4,-152.46C382.23,-131.17 284.79,-91.39 252.83,-78.35"/>
</g>
<!-- dégradation environnementale&#45;&#45;société néo&#45;calédonienne -->
<g id="edge110" class="edge">
<title>dégradation environnementale&#45;&#45;société néo&#45;calédonienne</title>
<path fill="none" stroke="darkgrey" stroke-width="3.59" d="M455.02,-199.81C444.13,-227.49 429.22,-265.38 421.34,-285.43"/>
</g>
<!-- dégradation environnementale&#45;&#45;alternative au développement -->
<g id="edge112" class="edge">
<title>dégradation environnementale&#45;&#45;alternative au développement</title>
<path fill="none" stroke="darkgrey" stroke-width="6.79" d="M490.64,-195.1C498.75,-205.52 507.78,-217.13 515.44,-226.99"/>
</g>
<!-- dégradation environnementale&#45;&#45;nickel -->
<g id="edge113" class="edge">
<title>dégradation environnementale&#45;&#45;nickel</title>
<path fill="none" stroke="darkgrey" stroke-width="2.58" d="M461.48,-201.88C450.96,-257.62 431.24,-362 425.9,-390.26"/>
</g>
<!-- dégradation environnementale&#45;&#45;économie -->
<g id="edge114" class="edge">
<title>dégradation environnementale&#45;&#45;économie</title>
<path fill="none" stroke="darkgrey" stroke-width="7.02" d="M473.89,-201.84C478.89,-233.18 485.96,-277.51 489.85,-301.89"/>
</g>
<!-- dégradation environnementale&#45;&#45;amélioration environnementale -->
<g id="edge115" class="edge">
<title>dégradation environnementale&#45;&#45;amélioration environnementale</title>
<path fill="none" stroke="darkgrey" stroke-width="2.48" d="M450.15,-134.79C445.72,-127.08 441.3,-119.39 438,-113.64"/>
</g>
<!-- dégradation environnementale&#45;&#45;essor technologique -->
<g id="edge116" class="edge">
<title>dégradation environnementale&#45;&#45;essor technologique</title>
<path fill="none" stroke="darkgrey" stroke-width="3.93" d="M431.93,-169.44C388.84,-173.21 318.71,-179.34 285.87,-182.21"/>
</g>
<!-- dégradation environnementale&#45;&#45;nouvelle&#45;calédonie -->
<g id="edge111" class="edge">
<title>dégradation environnementale&#45;&#45;nouvelle&#45;calédonie</title>
<path fill="none" stroke="darkgrey" stroke-width="1.82" d="M484.56,-198.66C511.93,-252.89 565.36,-358.76 579.07,-385.92"/>
</g>
<!-- nature&#45;&#45;société néo&#45;calédonienne -->
<g id="edge117" class="edge">
<title>nature&#45;&#45;société néo&#45;calédonienne</title>
<path fill="none" stroke="darkgrey" stroke-width="2.54" d="M249.19,-82.91C276.26,-118.02 376.35,-247.85 406.97,-287.57"/>
</g>
<!-- nature&#45;&#45;alternative au développement -->
<g id="edge118" class="edge">
<title>nature&#45;&#45;alternative au développement</title>
<path fill="none" stroke="darkgrey" stroke-width="1.32" d="M252.07,-79.94C292.31,-104.27 447.06,-197.85 508.27,-234.87"/>
</g>
<!-- nature&#45;&#45;amélioration environnementale -->
<g id="edge119" class="edge">
<title>nature&#45;&#45;amélioration environnementale</title>
<path fill="none" stroke="darkgrey" stroke-width="1.06" d="M253.43,-75.82C287.03,-81.12 387.78,-97 421.42,-102.31"/>
</g>
<!-- nature&#45;&#45;essor technologique -->
<g id="edge120" class="edge">
<title>nature&#45;&#45;essor technologique</title>
<path fill="none" stroke="darkgrey" stroke-width="1.46" d="M244.92,-85C249.32,-103.97 258.41,-143.17 263.73,-166.08"/>
</g>
<!-- société néo&#45;calédonienne&#45;&#45;alternative au développement -->
<g id="edge122" class="edge">
<title>société néo&#45;calédonienne&#45;&#45;alternative au développement</title>
<path fill="none" stroke="darkgrey" stroke-width="3.71" d="M429.4,-293.55C448.08,-285.74 482.26,-271.44 506.33,-261.38"/>
</g>
<!-- société néo&#45;calédonienne&#45;&#45;nickel -->
<g id="edge123" class="edge">
<title>société néo&#45;calédonienne&#45;&#45;nickel</title>
<path fill="none" stroke="darkgrey" stroke-width="2.28" d="M417.2,-313.69C419.07,-335.05 422.5,-374.17 423.91,-390.26"/>
</g>
<!-- société néo&#45;calédonienne&#45;&#45;économie -->
<g id="edge124" class="edge">
<title>société néo&#45;calédonienne&#45;&#45;économie</title>
<path fill="none" stroke="darkgrey" stroke-width="3.48" d="M430,-302.94C442.73,-306.34 461.51,-311.35 475.19,-315.01"/>
</g>
<!-- société néo&#45;calédonienne&#45;&#45;amélioration environnementale -->
<g id="edge125" class="edge">
<title>société néo&#45;calédonienne&#45;&#45;amélioration environnementale</title>
<path fill="none" stroke="darkgrey" stroke-width="1.05" d="M417.17,-284.52C420.35,-247.12 428.7,-148.77 431.54,-115.35"/>
</g>
<!-- société néo&#45;calédonienne&#45;&#45;essor technologique -->
<g id="edge126" class="edge">
<title>société néo&#45;calédonienne&#45;&#45;essor technologique</title>
<path fill="none" stroke="darkgrey" stroke-width="1.41" d="M404.3,-290.13C377.58,-269.3 311.78,-218.03 282.41,-195.14"/>
</g>
<!-- société néo&#45;calédonienne&#45;&#45;nouvelle&#45;calédonie -->
<g id="edge121" class="edge">
<title>société néo&#45;calédonienne&#45;&#45;nouvelle&#45;calédonie</title>
<path fill="none" stroke="darkgrey" stroke-width="1.79" d="M428.71,-306.35C462.2,-325.1 551.59,-375.17 576.07,-388.88"/>
</g>
<!-- alternative au développement&#45;&#45;nickel -->
<g id="edge129" class="edge">
<title>alternative au développement&#45;&#45;nickel</title>
<path fill="none" stroke="darkgrey" stroke-width="2.54" d="M516.14,-273.42C490.37,-308.32 443.27,-372.09 428.85,-391.63"/>
</g>
<!-- alternative au développement&#45;&#45;économie -->
<g id="edge130" class="edge">
<title>alternative au développement&#45;&#45;économie</title>
<path fill="none" stroke="darkgrey" stroke-width="6.15" d="M518.7,-275.19C513.05,-284.85 506.77,-295.59 501.79,-304.1"/>
</g>
<!-- alternative au développement&#45;&#45;amélioration environnementale -->
<g id="edge131" class="edge">
<title>alternative au développement&#45;&#45;amélioration environnementale</title>
<path fill="none" stroke="darkgrey" stroke-width="5.6" d="M516.73,-225.95C494.01,-193.07 454.36,-135.68 438.91,-113.33"/>
</g>
<!-- alternative au développement&#45;&#45;essor technologique -->
<g id="edge133" class="edge">
<title>alternative au développement&#45;&#45;essor technologique</title>
<path fill="none" stroke="darkgrey" stroke-width="5.09" d="M504.97,-242.97C449.98,-229.24 330.47,-199.42 285.46,-188.19"/>
</g>
<!-- alternative au développement&#45;&#45;foncier -->
<g id="edge132" class="edge">
<title>alternative au développement&#45;&#45;foncier</title>
<path fill="none" stroke="darkgrey" stroke-width="1.1" d="M562.17,-255.37C647.14,-271.06 892.03,-316.27 907.25,-319.08"/>
</g>
<!-- nickel&#45;&#45;économie -->
<g id="edge134" class="edge">
<title>nickel&#45;&#45;économie</title>
<path fill="none" stroke="darkgrey" stroke-width="1.72" d="M429.22,-392.12C439.75,-380.1 465.54,-350.66 480.81,-333.24"/>
</g>
<!-- nickel&#45;&#45;amélioration environnementale -->
<g id="edge135" class="edge">
<title>nickel&#45;&#45;amélioration environnementale</title>
<path fill="none" stroke="darkgrey" stroke-width="1.44" d="M424.74,-390.21C425.8,-350.85 430.9,-162.93 432.2,-115.13"/>
</g>
<!-- nickel&#45;&#45;essor technologique -->
<g id="edge136" class="edge">
<title>nickel&#45;&#45;essor technologique</title>
<path fill="none" stroke="darkgrey" stroke-width="1.31" d="M420.35,-391.75C399.86,-363.81 309.95,-241.21 278.63,-198.51"/>
</g>
<!-- économie&#45;&#45;amélioration environnementale -->
<g id="edge137" class="edge">
<title>économie&#45;&#45;amélioration environnementale</title>
<path fill="none" stroke="darkgrey" stroke-width="1.7" d="M487.76,-302.03C475.74,-258.98 445.2,-149.56 435.5,-114.81"/>
</g>
<!-- économie&#45;&#45;essor technologique -->
<g id="edge138" class="edge">
<title>économie&#45;&#45;essor technologique</title>
<path fill="none" stroke="darkgrey" stroke-width="1.72" d="M477.23,-310.34C436.15,-285.51 324.6,-218.09 283.4,-193.19"/>
</g>
<!-- amélioration environnementale&#45;&#45;essor technologique -->
<g id="edge139" class="edge">
<title>amélioration environnementale&#45;&#45;essor technologique</title>
<path fill="none" stroke="darkgrey" stroke-width="2.08" d="M422.2,-109.04C394.46,-122.47 318,-159.5 284.23,-175.85"/>
</g>
<!-- essor technologique&#45;&#45;matériel -->
<g id="edge140" class="edge">
<title>essor technologique&#45;&#45;matériel</title>
<path fill="none" stroke="darkgrey" stroke-width="1.2" d="M252.55,-174.05C212.91,-148.79 109.26,-82.75 99.63,-76.61"/>
</g>
<!-- exploitation minière&#45;&#45;politique -->
<g id="edge41" class="edge">
<title>exploitation minière&#45;&#45;politique</title>
<path fill="none" stroke="darkgrey" stroke-width="1.23" d="M421.86,-7.03C416.37,-29.78 385.87,-156.27 373.59,-207.2"/>
</g>
<!-- exploitation minière&#45;&#45;secteur nickel -->
<g id="edge42" class="edge">
<title>exploitation minière&#45;&#45;secteur nickel</title>
<path fill="none" stroke="darkgrey" stroke-width="1.67" d="M424.9,-6.26C440.03,-25.39 529.58,-138.57 563.98,-182.05"/>
</g>
<!-- exploitation minière&#45;&#45;pollution -->
<g id="edge43" class="edge">
<title>exploitation minière&#45;&#45;pollution</title>
<path fill="none" stroke="darkgrey" stroke-width="1.53" d="M421.27,-6.9C413.92,-24.2 380.39,-103.21 363.47,-143.1"/>
</g>
<!-- exploitation minière&#45;&#45;ressource minière -->
<g id="edge44" class="edge">
<title>exploitation minière&#45;&#45;ressource minière</title>
<path fill="none" stroke="darkgrey" stroke-width="1.28" d="M423.44,-7.06C428.06,-29.53 453.33,-152.45 464.26,-205.61"/>
</g>
<!-- exploitation minière&#45;&#45;dégradation environnementale -->
<g id="edge45" class="edge">
<title>exploitation minière&#45;&#45;dégradation environnementale</title>
<path fill="none" stroke="darkgrey" stroke-width="1.21" d="M423.66,-6.9C428.06,-22.65 446.76,-89.53 458.49,-131.49"/>
</g>
<!-- exploitation minière&#45;&#45;société néo&#45;calédonienne -->
<g id="edge46" class="edge">
<title>exploitation minière&#45;&#45;société néo&#45;calédonienne</title>
<path fill="none" stroke="darkgrey" stroke-width="1.2" d="M422.62,-7.24C421.95,-36.52 417.53,-229.36 416.26,-284.49"/>
</g>
<!-- exploitation minière&#45;&#45;alternative au développement -->
<g id="edge47" class="edge">
<title>exploitation minière&#45;&#45;alternative au développement</title>
<path fill="none" stroke="darkgrey" stroke-width="1.96" d="M424.28,-6.99C434.76,-30.34 495.17,-164.91 521.33,-223.18"/>
</g>
<!-- exploitation minière&#45;&#45;amélioration environnementale -->
<g id="edge48" class="edge">
<title>exploitation minière&#45;&#45;amélioration environnementale</title>
<path fill="none" stroke="darkgrey" stroke-width="1.01" d="M423.08,-7.32C424.45,-21.38 429.24,-70.61 431.41,-92.92"/>
</g>
<!-- exploitation minière&#45;&#45;matériel -->
<g id="edge49" class="edge">
<title>exploitation minière&#45;&#45;matériel</title>
<path fill="none" stroke="darkgrey" stroke-width="1.02" d="M419.07,-4.32C384.61,-12.05 116.45,-72.21 99.73,-75.97"/>
</g>
<!-- nouvelle&#45;calédonie&#45;&#45;alternative au développement -->
<g id="edge127" class="edge">
<title>nouvelle&#45;calédonie&#45;&#45;alternative au développement</title>
<path fill="none" stroke="darkgrey" stroke-width="2.21" d="M579.98,-385.53C573.37,-366.32 554.42,-311.21 542.83,-277.49"/>
</g>
<!-- nouvelle&#45;calédonie&#45;&#45;économie -->
<g id="edge128" class="edge">
<title>nouvelle&#45;calédonie&#45;&#45;économie</title>
<path fill="none" stroke="darkgrey" stroke-width="2" d="M576.73,-387.85C562.93,-376.65 526.99,-347.5 506.86,-331.17"/>
</g>
<!-- avenir sans nickel -->
<g id="node1" class="node">
<title>avenir sans nickel</title>
<ellipse fill="#fa9407" stroke="white" stroke-width="0" cx="276.45" cy="-265.03" rx="29" ry="29"/>
<text text-anchor="middle" x="210.95" y="-296.63" font-family="Helvetica,sans-Serif" font-size="8.00" fill="#4d4d4d">avenir sans nickel</text>
</g>
<!-- industrie -->
<g id="node2" class="node">
<title>industrie</title>
<ellipse fill="#07051b" stroke="white" stroke-width="0" cx="342.03" cy="-425.82" rx="3.5" ry="3.5"/>
<text text-anchor="middle" x="320.03" y="-431.92" font-family="Helvetica,sans-Serif" font-size="8.00" fill="#4d4d4d">industrie</text>
</g>
<!-- travail -->
<g id="node3" class="node">
<title>travail</title>
<ellipse fill="#bf3952" stroke="white" stroke-width="0" cx="331.03" cy="-273.97" rx="18" ry="18"/>
<text text-anchor="middle" x="326.03" y="-294.57" font-family="Helvetica,sans-Serif" font-size="8.00" fill="#4d4d4d">travail</text>
</g>
<!-- politique -->
<g id="node4" class="node">
<title>politique</title>
<ellipse fill="#d74b3f" stroke="white" stroke-width="0" cx="368.46" cy="-228.44" rx="21.5" ry="21.5"/>
<text text-anchor="middle" x="328.46" y="-209.54" font-family="Helvetica,sans-Serif" font-size="8.00" fill="#4d4d4d">politique</text>
</g>
<!-- secteur nickel -->
<g id="node5" class="node">
<title>secteur nickel</title>
<ellipse fill="#d24644" stroke="white" stroke-width="0" cx="577.44" cy="-199.06" rx="21.5" ry="21.5"/>
<text text-anchor="middle" x="584.44" y="-171.16" font-family="Helvetica,sans-Serif" font-size="8.00" fill="#4d4d4d">secteur nickel</text>
</g>
<!-- relation politique -->
<g id="node6" class="node">
<title>relation politique</title>
<ellipse fill="#120a32" stroke="white" stroke-width="0" cx="570.69" cy="-40.58" rx="3.5" ry="3.5"/>
<text text-anchor="middle" x="532.19" y="-46.68" font-family="Helvetica,sans-Serif" font-size="8.00" fill="#4d4d4d">relation politique</text>
</g>
<!-- avenir avec nickel -->
<g id="node7" class="node">
<title>avenir avec nickel</title>
<ellipse fill="#510e6c" stroke="white" stroke-width="0" cx="356.42" cy="-55.71" rx="11" ry="11"/>
<text text-anchor="middle" x="308.92" y="-69.31" font-family="Helvetica,sans-Serif" font-size="8.00" fill="#4d4d4d">avenir avec nickel</text>
</g>
<!-- pollution -->
<g id="node8" class="node">
<title>pollution</title>
<ellipse fill="#eb6628" stroke="white" stroke-width="0" cx="353.63" cy="-166.27" rx="25" ry="25"/>
<text text-anchor="middle" x="310.13" y="-193.87" font-family="Helvetica,sans-Serif" font-size="8.00" fill="#4d4d4d">pollution</text>
</g>
<!-- ressource minière -->
<g id="node9" class="node">
<title>ressource minière</title>
<ellipse fill="#ec6726" stroke="white" stroke-width="0" cx="469.3" cy="-230.13" rx="25" ry="25"/>
<text text-anchor="middle" x="407.8" y="-257.73" font-family="Helvetica,sans-Serif" font-size="8.00" fill="#4d4d4d">ressource minière</text>
</g>
<!-- dégradation environnementale -->
<g id="node10" class="node">
<title>dégradation environnementale</title>
<ellipse fill="#fcffa4" stroke="white" stroke-width="0" cx="468.21" cy="-166.26" rx="36" ry="36"/>
<text text-anchor="middle" x="368.71" y="-132.86" font-family="Helvetica,sans-Serif" font-size="8.00" fill="#4d4d4d">dégradation environnementale</text>
</g>
<!-- nature -->
<g id="node11" class="node">
<title>nature</title>
<ellipse fill="#5c126e" stroke="white" stroke-width="0" cx="242.39" cy="-74.08" rx="11" ry="11"/>
<text text-anchor="middle" x="217.89" y="-87.68" font-family="Helvetica,sans-Serif" font-size="8.00" fill="#4d4d4d">nature</text>
</g>
<!-- société néo&#45;calédonienne -->
<g id="node12" class="node">
<title>société néo&#45;calédonienne</title>
<ellipse fill="#8d2369" stroke="white" stroke-width="0" cx="415.93" cy="-299.19" rx="14.5" ry="14.5"/>
<text text-anchor="middle" x="347.43" y="-316.29" font-family="Helvetica,sans-Serif" font-size="8.00" fill="#4d4d4d">société néo&#45;calédonienne</text>
</g>
<!-- alternative au développement -->
<g id="node13" class="node">
<title>alternative au développement</title>
<ellipse fill="#fb9b06" stroke="white" stroke-width="0" cx="533.39" cy="-250.06" rx="29" ry="29"/>
<text text-anchor="middle" x="566.39" y="-281.66" font-family="Helvetica,sans-Serif" font-size="8.00" fill="#4d4d4d">alternative au développement</text>
</g>
<!-- nickel -->
<g id="node14" class="node">
<title>nickel</title>
<ellipse fill="#2f0a5b" stroke="white" stroke-width="0" cx="424.54" cy="-397.47" rx="7" ry="7"/>
<text text-anchor="middle" x="405.54" y="-407.07" font-family="Helvetica,sans-Serif" font-size="8.00" fill="#4d4d4d">nickel</text>
</g>
<!-- économie -->
<g id="node15" class="node">
<title>économie</title>
<ellipse fill="#a82e5f" stroke="white" stroke-width="0" cx="492.68" cy="-319.68" rx="18" ry="18"/>
<text text-anchor="middle" x="454.18" y="-340.28" font-family="Helvetica,sans-Serif" font-size="8.00" fill="#4d4d4d">économie</text>
</g>
<!-- amélioration environnementale -->
<g id="node16" class="node">
<title>amélioration environnementale</title>
<ellipse fill="#721a6e" stroke="white" stroke-width="0" cx="432.5" cy="-104.05" rx="11" ry="11"/>
<text text-anchor="middle" x="357" y="-117.65" font-family="Helvetica,sans-Serif" font-size="8.00" fill="#4d4d4d">amélioration environnementale</text>
</g>
<!-- essor technologique -->
<g id="node17" class="node">
<title>essor technologique</title>
<ellipse fill="#a92e5e" stroke="white" stroke-width="0" cx="267.83" cy="-183.79" rx="18" ry="18"/>
<text text-anchor="middle" x="207.33" y="-204.39" font-family="Helvetica,sans-Serif" font-size="8.00" fill="#4d4d4d">essor technologique</text>
</g>
<!-- risque -->
<g id="node18" class="node">
<title>risque</title>
<ellipse fill="#000004" stroke="white" stroke-width="0" cx="26.5" cy="-325.06" rx="0.5" ry="0.5"/>
<text text-anchor="middle" x="13" y="-328.16" font-family="Helvetica,sans-Serif" font-size="8.00" fill="#4d4d4d">risque</text>
</g>
<!-- exploitation minière -->
<g id="node19" class="node">
<title>exploitation minière</title>
<ellipse fill="#110a30" stroke="white" stroke-width="0" cx="422.71" cy="-3.5" rx="3.5" ry="3.5"/>
<text text-anchor="middle" x="378.71" y="-9.6" font-family="Helvetica,sans-Serif" font-size="8.00" fill="#4d4d4d">exploitation minière</text>
</g>
<!-- nouvelle&#45;calédonie -->
<g id="node20" class="node">
<title>nouvelle&#45;calédonie</title>
<ellipse fill="#2b0b57" stroke="white" stroke-width="0" cx="582.34" cy="-392.4" rx="7" ry="7"/>
<text text-anchor="middle" x="535.84" y="-402" font-family="Helvetica,sans-Serif" font-size="8.00" fill="#4d4d4d">nouvelle&#45;calédonie</text>
</g>
<!-- matériel -->
<g id="node21" class="node">
<title>matériel</title>
<ellipse fill="#010005" stroke="white" stroke-width="0" cx="98.91" cy="-76.15" rx="0.5" ry="0.5"/>
<text text-anchor="middle" x="81.41" y="-79.25" font-family="Helvetica,sans-Serif" font-size="8.00" fill="#4d4d4d">matériel</text>
</g>
<!-- foncier -->
<g id="node22" class="node">
<title>foncier</title>
<ellipse fill="#000004" stroke="white" stroke-width="0" cx="908" cy="-319.21" rx="0.5" ry="0.5"/>
<text text-anchor="middle" x="893" y="-322.31" font-family="Helvetica,sans-Serif" font-size="8.00" fill="#4d4d4d">foncier</text>
</g>
<!-- échange commercial -->
<g id="node23" class="node">
<title>échange commercial</title>
<ellipse fill="#010108" stroke="white" stroke-width="0" cx="837.13" cy="-35.42" rx="0.5" ry="0.5"/>
<text text-anchor="middle" x="793.63" y="-38.52" font-family="Helvetica,sans-Serif" font-size="8.00" fill="#4d4d4d">échange commercial</text>
</g>
</g>
</svg>
