<?xml version="1.0" encoding="UTF-8" standalone="no"?>
<!DOCTYPE svg PUBLIC "-//W3C//DTD SVG 1.1//EN"
 "http://www.w3.org/Graphics/SVG/1.1/DTD/svg11.dtd">
<!-- Generated by graphviz version 2.43.0 (0)
 -->
<!-- Pages: 1 -->
<svg width="1141pt" height="563pt"
 viewBox="0.00 0.00 1141.07 562.62" xmlns="http://www.w3.org/2000/svg" xmlns:xlink="http://www.w3.org/1999/xlink">
<g id="graph0" class="graph" transform="scale(1 1) rotate(0) translate(4 558.62)">
<polygon fill="white" stroke="transparent" points="-4,4 -4,-558.62 1137.07,-558.62 1137.07,4 -4,4"/>
<!-- avenir sans nickel&#45;&#45;industrie -->
<g id="edge1" class="edge">
<title>avenir sans nickel&#45;&#45;industrie</title>
<path fill="none" stroke="darkgrey" stroke-width="1.29" d="M409.38,-383.36C410.62,-428.33 412.91,-511.18 413.43,-529.98"/>
</g>
<!-- avenir sans nickel&#45;&#45;travail -->
<g id="edge2" class="edge">
<title>avenir sans nickel&#45;&#45;travail</title>
<path fill="none" stroke="darkgrey" stroke-width="4.26" d="M407.97,-324.94C407.35,-295.21 406.42,-250 405.9,-224.93"/>
</g>
<!-- avenir sans nickel&#45;&#45;politique -->
<g id="edge3" class="edge">
<title>avenir sans nickel&#45;&#45;politique</title>
<path fill="none" stroke="darkgrey" stroke-width="4.77" d="M392.95,-329.55C390.93,-326.38 388.89,-323.18 386.96,-320.14"/>
</g>
<!-- avenir sans nickel&#45;&#45;secteur nickel -->
<g id="edge4" class="edge">
<title>avenir sans nickel&#45;&#45;secteur nickel</title>
<path fill="none" stroke="darkgrey" stroke-width="4.38" d="M435.03,-342.2C490.07,-317.49 615.84,-261.04 664.66,-239.13"/>
</g>
<!-- avenir sans nickel&#45;&#45;relation politique -->
<g id="edge5" class="edge">
<title>avenir sans nickel&#45;&#45;relation politique</title>
<path fill="none" stroke="darkgrey" stroke-width="1.61" d="M425.8,-377.9C458.98,-423.75 529.6,-521.37 542.55,-539.27"/>
</g>
<!-- avenir sans nickel&#45;&#45;avenir avec nickel -->
<g id="edge6" class="edge">
<title>avenir sans nickel&#45;&#45;avenir avec nickel</title>
<path fill="none" stroke="darkgrey" stroke-width="3.37" d="M417.63,-326.3C440.9,-254.99 501.95,-67.87 517.07,-21.51"/>
</g>
<!-- avenir sans nickel&#45;&#45;pollution -->
<g id="edge7" class="edge">
<title>avenir sans nickel&#45;&#45;pollution</title>
<path fill="none" stroke="darkgrey" stroke-width="7.04" d="M394.91,-328.3C385.12,-309.83 372.07,-285.2 362.74,-267.57"/>
</g>
<!-- avenir sans nickel&#45;&#45;ressource minière -->
<g id="edge8" class="edge">
<title>avenir sans nickel&#45;&#45;ressource minière</title>
<path fill="none" stroke="darkgrey" stroke-width="5.62" d="M437.56,-352.55C477.34,-350.45 548.18,-346.71 585.81,-344.72"/>
</g>
<!-- avenir sans nickel&#45;&#45;dégradation environnementale -->
<g id="edge9" class="edge">
<title>avenir sans nickel&#45;&#45;dégradation environnementale</title>
<path fill="none" stroke="darkgrey" stroke-width="7.98" d="M430.69,-334.97C448.98,-319.17 475.04,-296.65 494.63,-279.73"/>
</g>
<!-- avenir sans nickel&#45;&#45;nature -->
<g id="edge10" class="edge">
<title>avenir sans nickel&#45;&#45;nature</title>
<path fill="none" stroke="darkgrey" stroke-width="2.63" d="M424.7,-329.79C465.4,-268.49 570.96,-109.53 597.49,-69.57"/>
</g>
<!-- avenir sans nickel&#45;&#45;société néo&#45;calédonienne -->
<g id="edge11" class="edge">
<title>avenir sans nickel&#45;&#45;société néo&#45;calédonienne</title>
<path fill="none" stroke="darkgrey" stroke-width="4.03" d="M414.22,-325.45C425.36,-269.06 449.77,-145.44 458.09,-103.28"/>
</g>
<!-- avenir sans nickel&#45;&#45;nouvelle&#45;calédonie -->
<g id="edge12" class="edge">
<title>avenir sans nickel&#45;&#45;nouvelle&#45;calédonie</title>
<path fill="none" stroke="darkgrey" stroke-width="1.2" d="M435.84,-363.98C450.71,-369.38 467.95,-375.63 477.27,-379.02"/>
</g>
<!-- avenir sans nickel&#45;&#45;alternative au développement -->
<g id="edge13" class="edge">
<title>avenir sans nickel&#45;&#45;alternative au développement</title>
<path fill="none" stroke="darkgrey" stroke-width="5.98" d="M436.92,-347.13C487.78,-334.65 593.94,-308.59 644.94,-296.08"/>
</g>
<!-- avenir sans nickel&#45;&#45;nickel -->
<g id="edge14" class="edge">
<title>avenir sans nickel&#45;&#45;nickel</title>
<path fill="none" stroke="darkgrey" stroke-width="1.21" d="M435.14,-366.17C479.53,-386.37 566.29,-425.84 590.44,-436.82"/>
</g>
<!-- avenir sans nickel&#45;&#45;économie -->
<g id="edge15" class="edge">
<title>avenir sans nickel&#45;&#45;économie</title>
<path fill="none" stroke="darkgrey" stroke-width="3.85" d="M436.61,-346.43C469.4,-337.48 522.66,-322.94 550.02,-315.48"/>
</g>
<!-- avenir sans nickel&#45;&#45;amélioration environnementale -->
<g id="edge16" class="edge">
<title>avenir sans nickel&#45;&#45;amélioration environnementale</title>
<path fill="none" stroke="darkgrey" stroke-width="2.42" d="M428.98,-333.31C473.15,-288.36 576,-183.7 605.56,-153.61"/>
</g>
<!-- avenir sans nickel&#45;&#45;essor technologique -->
<g id="edge17" class="edge">
<title>avenir sans nickel&#45;&#45;essor technologique</title>
<path fill="none" stroke="darkgrey" stroke-width="2.39" d="M419.75,-327.08C437.41,-284.4 471.27,-202.6 485.82,-167.45"/>
</g>
<!-- avenir sans nickel&#45;&#45;risque -->
<g id="edge18" class="edge">
<title>avenir sans nickel&#45;&#45;risque</title>
<path fill="none" stroke="darkgrey" stroke-width="1.45" d="M380.16,-346.92C294.39,-325.29 42.9,-261.87 27.26,-257.93"/>
</g>
<!-- industrie&#45;&#45;politique -->
<g id="edge19" class="edge">
<title>industrie&#45;&#45;politique</title>
<path fill="none" stroke="darkgrey" stroke-width="1.56" d="M412.93,-530.2C409.07,-506.7 387.51,-375.71 378.92,-323.47"/>
</g>
<!-- industrie&#45;&#45;secteur nickel -->
<g id="edge20" class="edge">
<title>industrie&#45;&#45;secteur nickel</title>
<path fill="none" stroke="darkgrey" stroke-width="1.43" d="M415.88,-531.22C438.43,-505.95 617.4,-305.43 670.03,-246.46"/>
</g>
<!-- industrie&#45;&#45;pollution -->
<g id="edge21" class="edge">
<title>industrie&#45;&#45;pollution</title>
<path fill="none" stroke="darkgrey" stroke-width="1.05" d="M412.74,-530.2C406.9,-503.25 370.26,-334.4 356.32,-270.1"/>
</g>
<!-- industrie&#45;&#45;ressource minière -->
<g id="edge22" class="edge">
<title>industrie&#45;&#45;ressource minière</title>
<path fill="none" stroke="darkgrey" stroke-width="1.83" d="M416.32,-531.15C435.49,-512.66 548.21,-403.9 592.79,-360.89"/>
</g>
<!-- industrie&#45;&#45;dégradation environnementale -->
<g id="edge23" class="edge">
<title>industrie&#45;&#45;dégradation environnementale</title>
<path fill="none" stroke="darkgrey" stroke-width="1.28" d="M414.9,-530.34C424.53,-505.66 482.42,-357.34 508.8,-289.72"/>
</g>
<!-- industrie&#45;&#45;alternative au développement -->
<g id="edge24" class="edge">
<title>industrie&#45;&#45;alternative au développement</title>
<path fill="none" stroke="darkgrey" stroke-width="1.56" d="M416.11,-531.42C438.04,-510.77 594.24,-363.69 652.05,-309.26"/>
</g>
<!-- industrie&#45;&#45;nickel -->
<g id="edge25" class="edge">
<title>industrie&#45;&#45;nickel</title>
<path fill="none" stroke="darkgrey" stroke-width="1.21" d="M416.71,-532.21C438.11,-521.23 561.02,-458.11 590.47,-442.98"/>
</g>
<!-- industrie&#45;&#45;économie -->
<g id="edge26" class="edge">
<title>industrie&#45;&#45;économie</title>
<path fill="none" stroke="darkgrey" stroke-width="1.57" d="M415.71,-530.69C431.24,-508.18 525.55,-371.47 557.16,-325.66"/>
</g>
<!-- travail&#45;&#45;politique -->
<g id="edge28" class="edge">
<title>travail&#45;&#45;politique</title>
<path fill="none" stroke="darkgrey" stroke-width="4.21" d="M400,-224.06C394.9,-240.19 387.32,-264.16 381.92,-281.25"/>
</g>
<!-- travail&#45;&#45;secteur nickel -->
<g id="edge29" class="edge">
<title>travail&#45;&#45;secteur nickel</title>
<path fill="none" stroke="darkgrey" stroke-width="4.83" d="M423.83,-208.11C473.3,-212.3 609.48,-223.84 662.77,-228.35"/>
</g>
<!-- travail&#45;&#45;relation politique -->
<g id="edge30" class="edge">
<title>travail&#45;&#45;relation politique</title>
<path fill="none" stroke="darkgrey" stroke-width="1.1" d="M412.42,-223.2C438.51,-286.15 530.35,-507.7 543.13,-538.54"/>
</g>
<!-- travail&#45;&#45;avenir avec nickel -->
<g id="edge31" class="edge">
<title>travail&#45;&#45;avenir avec nickel</title>
<path fill="none" stroke="darkgrey" stroke-width="2.23" d="M414.74,-190.89C437.55,-152.1 496.13,-52.45 514.74,-20.8"/>
</g>
<!-- travail&#45;&#45;pollution -->
<g id="edge32" class="edge">
<title>travail&#45;&#45;pollution</title>
<path fill="none" stroke="darkgrey" stroke-width="6.53" d="M390.61,-217.14C384.67,-221.35 377.75,-226.27 371.36,-230.8"/>
</g>
<!-- travail&#45;&#45;ressource minière -->
<g id="edge33" class="edge">
<title>travail&#45;&#45;ressource minière</title>
<path fill="none" stroke="darkgrey" stroke-width="3.76" d="M420.63,-216.62C456.76,-240.69 548.25,-301.65 589.81,-329.33"/>
</g>
<!-- travail&#45;&#45;dégradation environnementale -->
<g id="edge34" class="edge">
<title>travail&#45;&#45;dégradation environnementale</title>
<path fill="none" stroke="darkgrey" stroke-width="7.58" d="M422.2,-213.67C439.42,-221.01 466.76,-232.67 488.46,-241.92"/>
</g>
<!-- travail&#45;&#45;nature -->
<g id="edge35" class="edge">
<title>travail&#45;&#45;nature</title>
<path fill="none" stroke="darkgrey" stroke-width="1.55" d="M420.09,-195.81C458.69,-167.32 562.81,-90.47 594.4,-67.15"/>
</g>
<!-- travail&#45;&#45;société néo&#45;calédonienne -->
<g id="edge36" class="edge">
<title>travail&#45;&#45;société néo&#45;calédonienne</title>
<path fill="none" stroke="darkgrey" stroke-width="4.31" d="M413.23,-190.2C424.29,-166.7 444.46,-123.85 454.67,-102.18"/>
</g>
<!-- travail&#45;&#45;nouvelle&#45;calédonie -->
<g id="edge37" class="edge">
<title>travail&#45;&#45;nouvelle&#45;calédonie</title>
<path fill="none" stroke="darkgrey" stroke-width="1.21" d="M412.92,-223.02C429.65,-260.27 469.85,-349.77 481.12,-374.86"/>
</g>
<!-- travail&#45;&#45;alternative au développement -->
<g id="edge38" class="edge">
<title>travail&#45;&#45;alternative au développement</title>
<path fill="none" stroke="darkgrey" stroke-width="4.88" d="M423.11,-211.97C468.52,-225.96 590.02,-263.37 645.35,-280.41"/>
</g>
<!-- travail&#45;&#45;nickel -->
<g id="edge39" class="edge">
<title>travail&#45;&#45;nickel</title>
<path fill="none" stroke="darkgrey" stroke-width="1.84" d="M417.2,-220.8C454.19,-265.88 567.76,-404.31 592.16,-434.06"/>
</g>
<!-- travail&#45;&#45;économie -->
<g id="edge40" class="edge">
<title>travail&#45;&#45;économie</title>
<path fill="none" stroke="darkgrey" stroke-width="4.85" d="M420.76,-216.36C451.63,-236.21 521.23,-280.97 552.16,-300.86"/>
</g>
<!-- travail&#45;&#45;amélioration environnementale -->
<g id="edge41" class="edge">
<title>travail&#45;&#45;amélioration environnementale</title>
<path fill="none" stroke="darkgrey" stroke-width="3.57" d="M422.91,-201.45C464.53,-189.22 568.92,-158.53 602.82,-148.57"/>
</g>
<!-- travail&#45;&#45;essor technologique -->
<g id="edge42" class="edge">
<title>travail&#45;&#45;essor technologique</title>
<path fill="none" stroke="darkgrey" stroke-width="3.55" d="M420.72,-196.83C436.63,-186.64 461.48,-170.73 477.44,-160.52"/>
</g>
<!-- travail&#45;&#45;risque -->
<g id="edge43" class="edge">
<title>travail&#45;&#45;risque</title>
<path fill="none" stroke="darkgrey" stroke-width="1.03" d="M387.5,-208.99C314.53,-218.85 44.15,-255.36 27.32,-257.63"/>
</g>
<!-- travail&#45;&#45;exploitation minière -->
<g id="edge27" class="edge">
<title>travail&#45;&#45;exploitation minière</title>
<path fill="none" stroke="darkgrey" stroke-width="1.51" d="M396.33,-191.01C380.57,-164.35 349.33,-111.5 341.31,-97.93"/>
</g>
<!-- travail&#45;&#45;matériel -->
<g id="edge44" class="edge">
<title>travail&#45;&#45;matériel</title>
<path fill="none" stroke="darkgrey" stroke-width="1.21" d="M389.78,-215.52C342.26,-242.54 202.89,-321.81 192.07,-327.96"/>
</g>
<!-- politique&#45;&#45;secteur nickel -->
<g id="edge56" class="edge">
<title>politique&#45;&#45;secteur nickel</title>
<path fill="none" stroke="darkgrey" stroke-width="4.88" d="M396.63,-297.02C453.24,-283.88 607.24,-248.14 663.55,-235.07"/>
</g>
<!-- politique&#45;&#45;relation politique -->
<g id="edge57" class="edge">
<title>politique&#45;&#45;relation politique</title>
<path fill="none" stroke="darkgrey" stroke-width="2.45" d="M387.82,-319.61C423.85,-370.74 526.7,-516.7 542.55,-539.19"/>
</g>
<!-- politique&#45;&#45;avenir avec nickel -->
<g id="edge58" class="edge">
<title>politique&#45;&#45;avenir avec nickel</title>
<path fill="none" stroke="darkgrey" stroke-width="2" d="M385.13,-282.41C413.34,-225.84 494.43,-63.28 515.47,-21.1"/>
</g>
<!-- politique&#45;&#45;pollution -->
<g id="edge59" class="edge">
<title>politique&#45;&#45;pollution</title>
<path fill="none" stroke="darkgrey" stroke-width="4.78" d="M366.83,-282.14C364.9,-277.67 362.84,-272.89 360.86,-268.3"/>
</g>
<!-- politique&#45;&#45;ressource minière -->
<g id="edge60" class="edge">
<title>politique&#45;&#45;ressource minière</title>
<path fill="none" stroke="darkgrey" stroke-width="4.55" d="M396.7,-305.71C440.29,-313.38 539.45,-330.82 585.96,-339.01"/>
</g>
<!-- politique&#45;&#45;dégradation environnementale -->
<g id="edge61" class="edge">
<title>politique&#45;&#45;dégradation environnementale</title>
<path fill="none" stroke="darkgrey" stroke-width="6.65" d="M396.06,-295.49C419.8,-288.07 459.12,-275.79 487.49,-266.92"/>
</g>
<!-- politique&#45;&#45;nature -->
<g id="edge62" class="edge">
<title>politique&#45;&#45;nature</title>
<path fill="none" stroke="darkgrey" stroke-width="1.72" d="M390.35,-286.1C434.39,-239.49 562.43,-103.95 595.66,-68.77"/>
</g>
<!-- politique&#45;&#45;société néo&#45;calédonienne -->
<g id="edge63" class="edge">
<title>politique&#45;&#45;société néo&#45;calédonienne</title>
<path fill="none" stroke="darkgrey" stroke-width="3.71" d="M383.43,-281.91C400.69,-238.91 440.89,-138.79 455.51,-102.4"/>
</g>
<!-- politique&#45;&#45;nouvelle&#45;calédonie -->
<g id="edge64" class="edge">
<title>politique&#45;&#45;nouvelle&#45;calédonie</title>
<path fill="none" stroke="darkgrey" stroke-width="2.33" d="M392.85,-314.74C417.82,-333 462.45,-365.66 478.31,-377.26"/>
</g>
<!-- politique&#45;&#45;alternative au développement -->
<g id="edge65" class="edge">
<title>politique&#45;&#45;alternative au développement</title>
<path fill="none" stroke="darkgrey" stroke-width="4.07" d="M397.3,-301.01C450.14,-298.72 584.59,-292.91 644.23,-290.34"/>
</g>
<!-- politique&#45;&#45;nickel -->
<g id="edge66" class="edge">
<title>politique&#45;&#45;nickel</title>
<path fill="none" stroke="darkgrey" stroke-width="1.88" d="M393.88,-313.46C440.65,-342.57 561.97,-418.04 590.66,-435.9"/>
</g>
<!-- politique&#45;&#45;économie -->
<g id="edge67" class="edge">
<title>politique&#45;&#45;économie</title>
<path fill="none" stroke="darkgrey" stroke-width="4.22" d="M397.04,-302.94C435.21,-304.68 513.76,-308.26 549.3,-309.88"/>
</g>
<!-- politique&#45;&#45;amélioration environnementale -->
<g id="edge68" class="edge">
<title>politique&#45;&#45;amélioration environnementale</title>
<path fill="none" stroke="darkgrey" stroke-width="1.55" d="M393.68,-289.93C441.41,-258.57 568.44,-175.09 604.17,-151.61"/>
</g>
<!-- politique&#45;&#45;essor technologique -->
<g id="edge69" class="edge">
<title>politique&#45;&#45;essor technologique</title>
<path fill="none" stroke="darkgrey" stroke-width="1.43" d="M388.61,-284.9C411.88,-254.93 459.68,-193.32 481.48,-165.24"/>
</g>
<!-- politique&#45;&#45;risque -->
<g id="edge70" class="edge">
<title>politique&#45;&#45;risque</title>
<path fill="none" stroke="darkgrey" stroke-width="1.73" d="M353.82,-299.22C280.13,-289.88 42.03,-259.71 27.22,-257.83"/>
</g>
<!-- secteur nickel&#45;&#45;relation politique -->
<g id="edge71" class="edge">
<title>secteur nickel&#45;&#45;relation politique</title>
<path fill="none" stroke="darkgrey" stroke-width="2.14" d="M675.58,-250.18C646.99,-313.92 559.09,-509.85 546.2,-538.59"/>
</g>
<!-- secteur nickel&#45;&#45;avenir avec nickel -->
<g id="edge72" class="edge">
<title>secteur nickel&#45;&#45;avenir avec nickel</title>
<path fill="none" stroke="darkgrey" stroke-width="2.29" d="M671.4,-212.63C638.25,-168.34 552.13,-53.27 527.3,-20.08"/>
</g>
<!-- secteur nickel&#45;&#45;pollution -->
<g id="edge73" class="edge">
<title>secteur nickel&#45;&#45;pollution</title>
<path fill="none" stroke="darkgrey" stroke-width="5.06" d="M662.91,-231.18C603.71,-233.85 439.27,-241.29 376.1,-244.15"/>
</g>
<!-- secteur nickel&#45;&#45;ressource minière -->
<g id="edge74" class="edge">
<title>secteur nickel&#45;&#45;ressource minière</title>
<path fill="none" stroke="darkgrey" stroke-width="3.13" d="M672.71,-248.38C659.63,-268.51 638.56,-300.9 624.72,-322.17"/>
</g>
<!-- secteur nickel&#45;&#45;dégradation environnementale -->
<g id="edge75" class="edge">
<title>secteur nickel&#45;&#45;dégradation environnementale</title>
<path fill="none" stroke="darkgrey" stroke-width="4.62" d="M663.28,-233.59C636.41,-237.88 589.79,-245.33 557.46,-250.49"/>
</g>
<!-- secteur nickel&#45;&#45;société néo&#45;calédonienne -->
<g id="edge76" class="edge">
<title>secteur nickel&#45;&#45;société néo&#45;calédonienne</title>
<path fill="none" stroke="darkgrey" stroke-width="3.05" d="M666.25,-218.63C622.13,-190.74 510.77,-120.36 473.39,-96.74"/>
</g>
<!-- secteur nickel&#45;&#45;nouvelle&#45;calédonie -->
<g id="edge77" class="edge">
<title>secteur nickel&#45;&#45;nouvelle&#45;calédonie</title>
<path fill="none" stroke="darkgrey" stroke-width="1.39" d="M667.11,-243.36C624.44,-275.57 516.33,-357.17 489.97,-377.07"/>
</g>
<!-- secteur nickel&#45;&#45;alternative au développement -->
<g id="edge78" class="edge">
<title>secteur nickel&#45;&#45;alternative au développement</title>
<path fill="none" stroke="darkgrey" stroke-width="7.34" d="M680.55,-251.45C680.01,-254.35 679.44,-257.36 678.88,-260.37"/>
</g>
<!-- secteur nickel&#45;&#45;nickel -->
<g id="edge79" class="edge">
<title>secteur nickel&#45;&#45;nickel</title>
<path fill="none" stroke="darkgrey" stroke-width="3.02" d="M676.13,-250.29C657.09,-295.76 611.42,-404.83 599.63,-432.99"/>
</g>
<!-- secteur nickel&#45;&#45;économie -->
<g id="edge80" class="edge">
<title>secteur nickel&#45;&#45;économie</title>
<path fill="none" stroke="darkgrey" stroke-width="3.57" d="M666.76,-242.43C643.73,-258.26 604,-285.59 582.44,-300.42"/>
</g>
<!-- secteur nickel&#45;&#45;amélioration environnementale -->
<g id="edge81" class="edge">
<title>secteur nickel&#45;&#45;amélioration environnementale</title>
<path fill="none" stroke="darkgrey" stroke-width="3.96" d="M670.53,-213.44C655.52,-195.49 632.29,-167.7 620.7,-153.85"/>
</g>
<!-- secteur nickel&#45;&#45;essor technologique -->
<g id="edge83" class="edge">
<title>secteur nickel&#45;&#45;essor technologique</title>
<path fill="none" stroke="darkgrey" stroke-width="3.57" d="M664.38,-221.84C626.39,-206.1 544.87,-172.31 509.59,-157.69"/>
</g>
<!-- secteur nickel&#45;&#45;foncier -->
<g id="edge82" class="edge">
<title>secteur nickel&#45;&#45;foncier</title>
<path fill="none" stroke="darkgrey" stroke-width="1.43" d="M706.15,-230.47C793.55,-231.57 1116.91,-235.65 1132.02,-235.84"/>
</g>
<!-- secteur nickel&#45;&#45;échange commercial -->
<g id="edge84" class="edge">
<title>secteur nickel&#45;&#45;échange commercial</title>
<path fill="none" stroke="darkgrey" stroke-width="1.31" d="M704.36,-239.3C759.58,-264.66 911.79,-334.56 921.25,-338.9"/>
</g>
<!-- relation politique&#45;&#45;pollution -->
<g id="edge85" class="edge">
<title>relation politique&#45;&#45;pollution</title>
<path fill="none" stroke="darkgrey" stroke-width="1.41" d="M542.7,-539.18C526.08,-513.71 406.03,-329.73 364.79,-266.53"/>
</g>
<!-- relation politique&#45;&#45;ressource minière -->
<g id="edge86" class="edge">
<title>relation politique&#45;&#45;ressource minière</title>
<path fill="none" stroke="darkgrey" stroke-width="1.28" d="M545.76,-538.67C552.5,-518.47 587.11,-414.73 602.97,-367.22"/>
</g>
<!-- relation politique&#45;&#45;dégradation environnementale -->
<g id="edge87" class="edge">
<title>relation politique&#45;&#45;dégradation environnementale</title>
<path fill="none" stroke="darkgrey" stroke-width="1.97" d="M544.33,-538.5C542.32,-513.29 530.36,-362.67 524.77,-292.33"/>
</g>
<!-- relation politique&#45;&#45;alternative au développement -->
<g id="edge88" class="edge">
<title>relation politique&#45;&#45;alternative au développement</title>
<path fill="none" stroke="darkgrey" stroke-width="1.13" d="M546.24,-538.92C557.99,-515.86 630.08,-374.31 660.24,-315.09"/>
</g>
<!-- relation politique&#45;&#45;économie -->
<g id="edge89" class="edge">
<title>relation politique&#45;&#45;économie</title>
<path fill="none" stroke="darkgrey" stroke-width="2.07" d="M544.97,-538.48C547.34,-514.51 560.77,-378.5 565.68,-328.85"/>
</g>
<!-- avenir avec nickel&#45;&#45;pollution -->
<g id="edge90" class="edge">
<title>avenir avec nickel&#45;&#45;pollution</title>
<path fill="none" stroke="darkgrey" stroke-width="1.89" d="M513.85,-20.18C488.99,-54.53 401.12,-175.95 365.79,-224.76"/>
</g>
<!-- avenir avec nickel&#45;&#45;ressource minière -->
<g id="edge91" class="edge">
<title>avenir avec nickel&#45;&#45;ressource minière</title>
<path fill="none" stroke="darkgrey" stroke-width="2.02" d="M523.41,-21.68C536.01,-68.02 586.13,-252.28 604.3,-319.06"/>
</g>
<!-- avenir avec nickel&#45;&#45;dégradation environnementale -->
<g id="edge92" class="edge">
<title>avenir avec nickel&#45;&#45;dégradation environnementale</title>
<path fill="none" stroke="darkgrey" stroke-width="3.39" d="M520.57,-22.17C520.76,-56.83 521.37,-163.6 521.69,-220.16"/>
</g>
<!-- avenir avec nickel&#45;&#45;société néo&#45;calédonienne -->
<g id="edge93" class="edge">
<title>avenir avec nickel&#45;&#45;société néo&#45;calédonienne</title>
<path fill="none" stroke="darkgrey" stroke-width="1.15" d="M513.67,-19.93C502.85,-34.07 481.79,-61.61 469.81,-77.26"/>
</g>
<!-- avenir avec nickel&#45;&#45;alternative au développement -->
<g id="edge94" class="edge">
<title>avenir avec nickel&#45;&#45;alternative au développement</title>
<path fill="none" stroke="darkgrey" stroke-width="3.13" d="M525.95,-20.9C547.45,-59.98 626.88,-204.36 659.43,-263.53"/>
</g>
<!-- avenir avec nickel&#45;&#45;économie -->
<g id="edge95" class="edge">
<title>avenir avec nickel&#45;&#45;économie</title>
<path fill="none" stroke="darkgrey" stroke-width="2.22" d="M522.23,-22.02C529.28,-67.01 555.92,-236.99 564.67,-292.82"/>
</g>
<!-- avenir avec nickel&#45;&#45;amélioration environnementale -->
<g id="edge96" class="edge">
<title>avenir avec nickel&#45;&#45;amélioration environnementale</title>
<path fill="none" stroke="darkgrey" stroke-width="3.02" d="M526.9,-20.24C543.92,-44.79 590.12,-111.47 607.19,-136.09"/>
</g>
<!-- avenir avec nickel&#45;&#45;essor technologique -->
<g id="edge97" class="edge">
<title>avenir avec nickel&#45;&#45;essor technologique</title>
<path fill="none" stroke="darkgrey" stroke-width="2.67" d="M518.32,-21.96C513.55,-46.02 502.1,-103.63 496.28,-132.94"/>
</g>
<!-- pollution&#45;&#45;ressource minière -->
<g id="edge98" class="edge">
<title>pollution&#45;&#45;ressource minière</title>
<path fill="none" stroke="darkgrey" stroke-width="5.05" d="M374.46,-254.17C423.83,-272.8 537.76,-315.79 587.25,-334.47"/>
</g>
<!-- pollution&#45;&#45;dégradation environnementale -->
<g id="edge99" class="edge">
<title>pollution&#45;&#45;dégradation environnementale</title>
<path fill="none" stroke="darkgrey" stroke-width="10" d="M376.16,-246.9C405.14,-248.74 452.92,-251.78 485.82,-253.88"/>
</g>
<!-- pollution&#45;&#45;nature -->
<g id="edge100" class="edge">
<title>pollution&#45;&#45;nature</title>
<path fill="none" stroke="darkgrey" stroke-width="3.24" d="M371.18,-230.47C422.95,-192.58 558.56,-93.32 594.67,-66.89"/>
</g>
<!-- pollution&#45;&#45;société néo&#45;calédonienne -->
<g id="edge101" class="edge">
<title>pollution&#45;&#45;société néo&#45;calédonienne</title>
<path fill="none" stroke="darkgrey" stroke-width="5.11" d="M365.31,-224.84C388.61,-191.71 433.87,-127.35 452.56,-100.78"/>
</g>
<!-- pollution&#45;&#45;nouvelle&#45;calédonie -->
<g id="edge102" class="edge">
<title>pollution&#45;&#45;nouvelle&#45;calédonie</title>
<path fill="none" stroke="darkgrey" stroke-width="1.53" d="M368.62,-263.38C399.18,-294.64 460.38,-357.24 478.76,-376.04"/>
</g>
<!-- pollution&#45;&#45;alternative au développement -->
<g id="edge103" class="edge">
<title>pollution&#45;&#45;alternative au développement</title>
<path fill="none" stroke="darkgrey" stroke-width="5.75" d="M375.71,-248.65C434.42,-256.62 581.79,-276.63 644.51,-285.14"/>
</g>
<!-- pollution&#45;&#45;nickel -->
<g id="edge104" class="edge">
<title>pollution&#45;&#45;nickel</title>
<path fill="none" stroke="darkgrey" stroke-width="2.93" d="M370.64,-260.87C422.6,-301.96 561.41,-411.73 591.15,-435.25"/>
</g>
<!-- pollution&#45;&#45;économie -->
<g id="edge105" class="edge">
<title>pollution&#45;&#45;économie</title>
<path fill="none" stroke="darkgrey" stroke-width="5.33" d="M374.93,-252.54C418.98,-265.85 511.72,-293.87 550.18,-305.49"/>
</g>
<!-- pollution&#45;&#45;amélioration environnementale -->
<g id="edge106" class="edge">
<title>pollution&#45;&#45;amélioration environnementale</title>
<path fill="none" stroke="darkgrey" stroke-width="2.21" d="M374.71,-236.25C429.9,-215.26 564.93,-163.91 603.31,-149.32"/>
</g>
<!-- pollution&#45;&#45;essor technologique -->
<g id="edge107" class="edge">
<title>pollution&#45;&#45;essor technologique</title>
<path fill="none" stroke="darkgrey" stroke-width="3.7" d="M371.86,-231.33C400.67,-212.12 451.9,-177.96 477.42,-160.94"/>
</g>
<!-- pollution&#45;&#45;risque -->
<g id="edge108" class="edge">
<title>pollution&#45;&#45;risque</title>
<path fill="none" stroke="darkgrey" stroke-width="1.62" d="M325.74,-246.26C251.9,-249.09 40.3,-257.21 27.14,-257.71"/>
</g>
<!-- ressource minière&#45;&#45;dégradation environnementale -->
<g id="edge109" class="edge">
<title>ressource minière&#45;&#45;dégradation environnementale</title>
<path fill="none" stroke="darkgrey" stroke-width="7.06" d="M592.9,-325.74C579.9,-313 562.14,-295.61 547.64,-281.4"/>
</g>
<!-- ressource minière&#45;&#45;nature -->
<g id="edge110" class="edge">
<title>ressource minière&#45;&#45;nature</title>
<path fill="none" stroke="darkgrey" d="M610.27,-318.28C608.74,-259.15 604.98,-113.05 603.91,-71.52"/>
</g>
<!-- ressource minière&#45;&#45;société néo&#45;calédonienne -->
<g id="edge111" class="edge">
<title>ressource minière&#45;&#45;société néo&#45;calédonienne</title>
<path fill="none" stroke="darkgrey" stroke-width="1.88" d="M598.13,-321.69C567.81,-270.24 492.31,-142.11 468.36,-101.45"/>
</g>
<!-- ressource minière&#45;&#45;nouvelle&#45;calédonie -->
<g id="edge112" class="edge">
<title>ressource minière&#45;&#45;nouvelle&#45;calédonie</title>
<path fill="none" stroke="darkgrey" stroke-width="1.81" d="M586.76,-350.65C557.16,-359.55 508.72,-374.1 490.93,-379.45"/>
</g>
<!-- ressource minière&#45;&#45;alternative au développement -->
<g id="edge113" class="edge">
<title>ressource minière&#45;&#45;alternative au développement</title>
<path fill="none" stroke="darkgrey" stroke-width="6.36" d="M630.03,-326.8C636.79,-320.94 644.44,-314.29 651.42,-308.23"/>
</g>
<!-- ressource minière&#45;&#45;nickel -->
<g id="edge114" class="edge">
<title>ressource minière&#45;&#45;nickel</title>
<path fill="none" stroke="darkgrey" stroke-width="1.67" d="M607.28,-368.2C604.15,-389.61 599.83,-419.14 597.86,-432.56"/>
</g>
<!-- ressource minière&#45;&#45;économie -->
<g id="edge115" class="edge">
<title>ressource minière&#45;&#45;économie</title>
<path fill="none" stroke="darkgrey" stroke-width="4.44" d="M590.72,-328.2C587.79,-326 584.83,-323.77 582.05,-321.68"/>
</g>
<!-- ressource minière&#45;&#45;amélioration environnementale -->
<g id="edge116" class="edge">
<title>ressource minière&#45;&#45;amélioration environnementale</title>
<path fill="none" stroke="darkgrey" stroke-width="2.55" d="M611.26,-318.32C611.85,-275.03 613.05,-187.93 613.48,-156.79"/>
</g>
<!-- ressource minière&#45;&#45;essor technologique -->
<g id="edge117" class="edge">
<title>ressource minière&#45;&#45;essor technologique</title>
<path fill="none" stroke="darkgrey" stroke-width="4.59" d="M597.82,-322.04C573.78,-282.85 523.17,-200.32 502.18,-166.09"/>
</g>
<!-- ressource minière&#45;&#45;échange commercial -->
<g id="edge118" class="edge">
<title>ressource minière&#45;&#45;échange commercial</title>
<path fill="none" stroke="darkgrey" stroke-width="1.06" d="M636.09,-343.05C707.76,-342.06 908.61,-339.3 921.1,-339.12"/>
</g>
<!-- dégradation environnementale&#45;&#45;nature -->
<g id="edge119" class="edge">
<title>dégradation environnementale&#45;&#45;nature</title>
<path fill="none" stroke="darkgrey" stroke-width="4.75" d="M535.94,-222.51C554.93,-177.02 587.74,-98.4 599.38,-70.51"/>
</g>
<!-- dégradation environnementale&#45;&#45;société néo&#45;calédonienne -->
<g id="edge120" class="edge">
<title>dégradation environnementale&#45;&#45;société néo&#45;calédonienne</title>
<path fill="none" stroke="darkgrey" stroke-width="3.74" d="M509.56,-222.32C496.2,-185.65 475.53,-128.92 466.03,-102.84"/>
</g>
<!-- dégradation environnementale&#45;&#45;nouvelle&#45;calédonie -->
<g id="edge121" class="edge">
<title>dégradation environnementale&#45;&#45;nouvelle&#45;calédonie</title>
<path fill="none" stroke="darkgrey" stroke-width="2.01" d="M511.47,-290.75C502.73,-319.73 490.94,-358.82 486.2,-374.53"/>
</g>
<!-- dégradation environnementale&#45;&#45;alternative au développement -->
<g id="edge122" class="edge">
<title>dégradation environnementale&#45;&#45;alternative au développement</title>
<path fill="none" stroke="darkgrey" stroke-width="6.86" d="M557.44,-263.89C584.04,-269.66 619.97,-277.46 644.76,-282.84"/>
</g>
<!-- dégradation environnementale&#45;&#45;nickel -->
<g id="edge123" class="edge">
<title>dégradation environnementale&#45;&#45;nickel</title>
<path fill="none" stroke="darkgrey" stroke-width="2.75" d="M535.64,-289.84C553.89,-334.55 584.89,-410.52 594.14,-433.16"/>
</g>
<!-- dégradation environnementale&#45;&#45;économie -->
<g id="edge124" class="edge">
<title>dégradation environnementale&#45;&#45;économie</title>
<path fill="none" stroke="darkgrey" stroke-width="7.09" d="M545.22,-284.08C548.9,-288.48 552.56,-292.87 555.81,-296.76"/>
</g>
<!-- dégradation environnementale&#45;&#45;amélioration environnementale -->
<g id="edge125" class="edge">
<title>dégradation environnementale&#45;&#45;amélioration environnementale</title>
<path fill="none" stroke="darkgrey" stroke-width="2.65" d="M545.05,-228.22C565.32,-203.73 593.52,-169.68 606.53,-153.96"/>
</g>
<!-- dégradation environnementale&#45;&#45;essor technologique -->
<g id="edge126" class="edge">
<title>dégradation environnementale&#45;&#45;essor technologique</title>
<path fill="none" stroke="darkgrey" stroke-width="4.07" d="M512.27,-221.35C507.36,-203.59 501.61,-182.76 497.62,-168.34"/>
</g>
<!-- dégradation environnementale&#45;&#45;matériel -->
<g id="edge128" class="edge">
<title>dégradation environnementale&#45;&#45;matériel</title>
<path fill="none" stroke="darkgrey" stroke-width="1.1" d="M486.53,-263.9C403.93,-281.93 204.4,-325.5 192.01,-328.21"/>
</g>
<!-- dégradation environnementale&#45;&#45;échange commercial -->
<g id="edge127" class="edge">
<title>dégradation environnementale&#45;&#45;échange commercial</title>
<path fill="none" stroke="darkgrey" stroke-width="1.05" d="M557.38,-263.53C652.17,-283.2 905.22,-335.7 920.94,-338.96"/>
</g>
<!-- nature&#45;&#45;société néo&#45;calédonienne -->
<g id="edge129" class="edge">
<title>nature&#45;&#45;société néo&#45;calédonienne</title>
<path fill="none" stroke="darkgrey" stroke-width="2.71" d="M592.42,-62.58C566.8,-67.7 503.92,-80.27 475.41,-85.97"/>
</g>
<!-- nature&#45;&#45;nouvelle&#45;calédonie -->
<g id="edge130" class="edge">
<title>nature&#45;&#45;nouvelle&#45;calédonie</title>
<path fill="none" stroke="darkgrey" stroke-width="1.04" d="M599.78,-70.67C581.28,-120.38 501.64,-334.37 486.57,-374.87"/>
</g>
<!-- nature&#45;&#45;alternative au développement -->
<g id="edge131" class="edge">
<title>nature&#45;&#45;alternative au développement</title>
<path fill="none" stroke="darkgrey" stroke-width="1.53" d="M606.89,-71.07C617.23,-104.9 649.37,-210.1 664.9,-260.97"/>
</g>
<!-- nature&#45;&#45;économie -->
<g id="edge132" class="edge">
<title>nature&#45;&#45;économie</title>
<path fill="none" stroke="darkgrey" stroke-width="1.16" d="M602.02,-71.43C596.33,-110.79 577.08,-244.16 570.06,-292.78"/>
</g>
<!-- nature&#45;&#45;amélioration environnementale -->
<g id="edge133" class="edge">
<title>nature&#45;&#45;amélioration environnementale</title>
<path fill="none" stroke="darkgrey" stroke-width="1.27" d="M604.93,-71.46C606.85,-87.76 610.4,-117.97 612.32,-134.27"/>
</g>
<!-- nature&#45;&#45;essor technologique -->
<g id="edge134" class="edge">
<title>nature&#45;&#45;essor technologique</title>
<path fill="none" stroke="darkgrey" stroke-width="1.67" d="M594.92,-67.44C575.83,-83 530.11,-120.26 506.85,-139.22"/>
</g>
<!-- société néo&#45;calédonienne&#45;&#45;nouvelle&#45;calédonie -->
<g id="edge135" class="edge">
<title>société néo&#45;calédonienne&#45;&#45;nouvelle&#45;calédonie</title>
<path fill="none" stroke="darkgrey" stroke-width="1.99" d="M462.09,-103.38C466.25,-155.97 480.46,-335.49 483.52,-374.13"/>
</g>
<!-- société néo&#45;calédonienne&#45;&#45;alternative au développement -->
<g id="edge136" class="edge">
<title>société néo&#45;calédonienne&#45;&#45;alternative au développement</title>
<path fill="none" stroke="darkgrey" stroke-width="3.86" d="M471.77,-99.07C505.27,-130.62 607.62,-227.03 652.28,-269.09"/>
</g>
<!-- société néo&#45;calédonienne&#45;&#45;nickel -->
<g id="edge137" class="edge">
<title>société néo&#45;calédonienne&#45;&#45;nickel</title>
<path fill="none" stroke="darkgrey" stroke-width="2.46" d="M466.27,-102.62C489.03,-161.41 577.75,-390.5 594.19,-432.94"/>
</g>
<!-- société néo&#45;calédonienne&#45;&#45;économie -->
<g id="edge138" class="edge">
<title>société néo&#45;calédonienne&#45;&#45;économie</title>
<path fill="none" stroke="darkgrey" stroke-width="3.64" d="M467.28,-102.08C485.74,-140.51 539.37,-252.19 559.61,-294.34"/>
</g>
<!-- société néo&#45;calédonienne&#45;&#45;amélioration environnementale -->
<g id="edge139" class="edge">
<title>société néo&#45;calédonienne&#45;&#45;amélioration environnementale</title>
<path fill="none" stroke="darkgrey" stroke-width="1.26" d="M474.76,-93.98C505,-105.18 576.5,-131.64 603.27,-141.56"/>
</g>
<!-- société néo&#45;calédonienne&#45;&#45;essor technologique -->
<g id="edge140" class="edge">
<title>société néo&#45;calédonienne&#45;&#45;essor technologique</title>
<path fill="none" stroke="darkgrey" stroke-width="1.61" d="M467.69,-101.98C472.57,-111.48 479.21,-124.39 484.43,-134.53"/>
</g>
<!-- nouvelle&#45;calédonie&#45;&#45;alternative au développement -->
<g id="edge141" class="edge">
<title>nouvelle&#45;calédonie&#45;&#45;alternative au développement</title>
<path fill="none" stroke="darkgrey" stroke-width="2.39" d="M490.4,-378.42C514.66,-366.58 602.9,-323.52 647.42,-301.8"/>
</g>
<!-- nouvelle&#45;calédonie&#45;&#45;économie -->
<g id="edge142" class="edge">
<title>nouvelle&#45;calédonie&#45;&#45;économie</title>
<path fill="none" stroke="darkgrey" stroke-width="2.19" d="M489.57,-376.85C502.4,-365.97 534.73,-338.52 553.46,-322.61"/>
</g>
<!-- nouvelle&#45;calédonie&#45;&#45;amélioration environnementale -->
<g id="edge143" class="edge">
<title>nouvelle&#45;calédonie&#45;&#45;amélioration environnementale</title>
<path fill="none" stroke="darkgrey" stroke-width="1.2" d="M487.57,-375.18C505.35,-342.77 586.38,-195.07 608.21,-155.29"/>
</g>
<!-- alternative au développement&#45;&#45;nickel -->
<g id="edge144" class="edge">
<title>alternative au développement&#45;&#45;nickel</title>
<path fill="none" stroke="darkgrey" stroke-width="2.72" d="M660.31,-314.97C642.07,-350.81 610.22,-413.37 600.04,-433.38"/>
</g>
<!-- alternative au développement&#45;&#45;économie -->
<g id="edge145" class="edge">
<title>alternative au développement&#45;&#45;économie</title>
<path fill="none" stroke="darkgrey" stroke-width="6.24" d="M644.8,-294.93C625.79,-298.81 601.45,-303.78 585.2,-307.09"/>
</g>
<!-- alternative au développement&#45;&#45;amélioration environnementale -->
<g id="edge146" class="edge">
<title>alternative au développement&#45;&#45;amélioration environnementale</title>
<path fill="none" stroke="darkgrey" stroke-width="5.7" d="M662.23,-262.05C648.82,-229.86 627.08,-177.68 617.92,-155.69"/>
</g>
<!-- alternative au développement&#45;&#45;essor technologique -->
<g id="edge148" class="edge">
<title>alternative au développement&#45;&#45;essor technologique</title>
<path fill="none" stroke="darkgrey" stroke-width="5.21" d="M650.23,-271.27C612.28,-242.22 538.17,-185.49 507.05,-161.66"/>
</g>
<!-- alternative au développement&#45;&#45;foncier -->
<g id="edge147" class="edge">
<title>alternative au développement&#45;&#45;foncier</title>
<path fill="none" stroke="darkgrey" stroke-width="1.31" d="M702.55,-285.7C801.1,-274.28 1117.27,-237.62 1132.03,-235.91"/>
</g>
<!-- nickel&#45;&#45;économie -->
<g id="edge149" class="edge">
<title>nickel&#45;&#45;économie</title>
<path fill="none" stroke="darkgrey" stroke-width="1.92" d="M595.24,-432.79C590.78,-413.21 578.02,-357.1 571.46,-328.27"/>
</g>
<!-- nickel&#45;&#45;amélioration environnementale -->
<g id="edge150" class="edge">
<title>nickel&#45;&#45;amélioration environnementale</title>
<path fill="none" stroke="darkgrey" stroke-width="1.64" d="M597.23,-432.45C599.49,-392.97 610.26,-204.45 613,-156.5"/>
</g>
<!-- nickel&#45;&#45;essor technologique -->
<g id="edge151" class="edge">
<title>nickel&#45;&#45;essor technologique</title>
<path fill="none" stroke="darkgrey" stroke-width="1.52" d="M594.34,-432.86C581.14,-396.19 518.74,-222.89 498.85,-167.66"/>
</g>
<!-- économie&#45;&#45;amélioration environnementale -->
<g id="edge152" class="edge">
<title>économie&#45;&#45;amélioration environnementale</title>
<path fill="none" stroke="darkgrey" stroke-width="1.89" d="M572.32,-293.33C581.86,-259.18 602.8,-184.2 610.61,-156.21"/>
</g>
<!-- économie&#45;&#45;essor technologique -->
<g id="edge153" class="edge">
<title>économie&#45;&#45;essor technologique</title>
<path fill="none" stroke="darkgrey" stroke-width="1.92" d="M559.75,-294.19C545.44,-263.53 514.91,-198.16 500.53,-167.38"/>
</g>
<!-- économie&#45;&#45;échange commercial -->
<g id="edge154" class="edge">
<title>économie&#45;&#45;échange commercial</title>
<path fill="none" stroke="darkgrey" stroke-width="1.15" d="M585.52,-312.16C655.45,-317.77 905.39,-337.81 920.95,-339.06"/>
</g>
<!-- amélioration environnementale&#45;&#45;essor technologique -->
<g id="edge155" class="edge">
<title>amélioration environnementale&#45;&#45;essor technologique</title>
<path fill="none" stroke="darkgrey" stroke-width="2.27" d="M602.48,-145.88C581.55,-146.8 536.24,-148.8 510.88,-149.92"/>
</g>
<!-- essor technologique&#45;&#45;matériel -->
<g id="edge156" class="edge">
<title>essor technologique&#45;&#45;matériel</title>
<path fill="none" stroke="darkgrey" stroke-width="1.41" d="M476.97,-160.01C416.91,-195.42 205.22,-320.2 192.05,-327.96"/>
</g>
<!-- exploitation minière&#45;&#45;politique -->
<g id="edge45" class="edge">
<title>exploitation minière&#45;&#45;politique</title>
<path fill="none" stroke="darkgrey" stroke-width="1.43" d="M340.02,-98.29C343.77,-119.85 363.33,-232.57 371.64,-280.43"/>
</g>
<!-- exploitation minière&#45;&#45;secteur nickel -->
<g id="edge46" class="edge">
<title>exploitation minière&#45;&#45;secteur nickel</title>
<path fill="none" stroke="darkgrey" stroke-width="1.87" d="M342.82,-96.04C373.06,-107.91 595.55,-195.26 664.34,-222.26"/>
</g>
<!-- exploitation minière&#45;&#45;pollution -->
<g id="edge47" class="edge">
<title>exploitation minière&#45;&#45;pollution</title>
<path fill="none" stroke="darkgrey" stroke-width="1.74" d="M339.68,-98.42C340.95,-114.99 346.16,-182.92 349.02,-220.32"/>
</g>
<!-- exploitation minière&#45;&#45;ressource minière -->
<g id="edge48" class="edge">
<title>exploitation minière&#45;&#45;ressource minière</title>
<path fill="none" stroke="darkgrey" stroke-width="1.49" d="M342.09,-97.16C365.49,-118.6 535.27,-274.11 592.29,-326.34"/>
</g>
<!-- exploitation minière&#45;&#45;dégradation environnementale -->
<g id="edge49" class="edge">
<title>exploitation minière&#45;&#45;dégradation environnementale</title>
<path fill="none" stroke="darkgrey" stroke-width="1.42" d="M342.27,-97.23C359.36,-112.36 448.67,-191.38 494.58,-232"/>
</g>
<!-- exploitation minière&#45;&#45;société néo&#45;calédonienne -->
<g id="edge50" class="edge">
<title>exploitation minière&#45;&#45;société néo&#45;calédonienne</title>
<path fill="none" stroke="darkgrey" stroke-width="1.41" d="M342.91,-94.53C358.01,-93.8 418,-90.92 446.18,-89.57"/>
</g>
<!-- exploitation minière&#45;&#45;nouvelle&#45;calédonie -->
<g id="edge51" class="edge">
<title>exploitation minière&#45;&#45;nouvelle&#45;calédonie</title>
<path fill="none" stroke="darkgrey" stroke-width="1.02" d="M341.02,-97.92C355.43,-126.47 461.23,-336.17 480.95,-375.24"/>
</g>
<!-- exploitation minière&#45;&#45;alternative au développement -->
<g id="edge52" class="edge">
<title>exploitation minière&#45;&#45;alternative au développement</title>
<path fill="none" stroke="darkgrey" stroke-width="2.15" d="M342.71,-96.62C371.2,-113.2 576.01,-232.36 648.3,-274.42"/>
</g>
<!-- exploitation minière&#45;&#45;amélioration environnementale -->
<g id="edge53" class="edge">
<title>exploitation minière&#45;&#45;amélioration environnementale</title>
<path fill="none" stroke="darkgrey" stroke-width="1.22" d="M342.87,-95.34C370.52,-100.45 555.45,-134.64 602.67,-143.37"/>
</g>
<!-- exploitation minière&#45;&#45;essor technologique -->
<g id="edge54" class="edge">
<title>exploitation minière&#45;&#45;essor technologique</title>
<path fill="none" stroke="darkgrey" stroke-width="1.09" d="M342.89,-95.97C360.5,-102.4 440.13,-131.49 475.61,-144.45"/>
</g>
<!-- exploitation minière&#45;&#45;matériel -->
<g id="edge55" class="edge">
<title>exploitation minière&#45;&#45;matériel</title>
<path fill="none" stroke="darkgrey" stroke-width="1.23" d="M337.31,-98C319.88,-125.51 199.29,-315.89 191.77,-327.76"/>
</g>
<!-- avenir sans nickel -->
<g id="node1" class="node">
<title>avenir sans nickel</title>
<ellipse fill="#fa9407" stroke="white" stroke-width="0" cx="408.57" cy="-354.08" rx="29" ry="29"/>
<text text-anchor="middle" x="343.07" y="-385.68" font-family="Helvetica,sans-Serif" font-size="8.00" fill="#4d4d4d">avenir sans nickel</text>
</g>
<!-- industrie -->
<g id="node2" class="node">
<title>industrie</title>
<ellipse fill="#07051b" stroke="white" stroke-width="0" cx="413.53" cy="-533.85" rx="3.5" ry="3.5"/>
<text text-anchor="middle" x="391.53" y="-539.95" font-family="Helvetica,sans-Serif" font-size="8.00" fill="#4d4d4d">industrie</text>
</g>
<!-- travail -->
<g id="node3" class="node">
<title>travail</title>
<ellipse fill="#bf3952" stroke="white" stroke-width="0" cx="405.52" cy="-206.56" rx="18" ry="18"/>
<text text-anchor="middle" x="374.52" y="-191.16" font-family="Helvetica,sans-Serif" font-size="8.00" fill="#4d4d4d">travail</text>
</g>
<!-- politique -->
<g id="node4" class="node">
<title>politique</title>
<ellipse fill="#d74b3f" stroke="white" stroke-width="0" cx="375.38" cy="-301.96" rx="21.5" ry="21.5"/>
<text text-anchor="middle" x="335.38" y="-326.06" font-family="Helvetica,sans-Serif" font-size="8.00" fill="#4d4d4d">politique</text>
</g>
<!-- secteur nickel -->
<g id="node5" class="node">
<title>secteur nickel</title>
<ellipse fill="#d24644" stroke="white" stroke-width="0" cx="684.54" cy="-230.2" rx="21.5" ry="21.5"/>
<text text-anchor="middle" x="634.54" y="-254.3" font-family="Helvetica,sans-Serif" font-size="8.00" fill="#4d4d4d">secteur nickel</text>
</g>
<!-- relation politique -->
<g id="node6" class="node">
<title>relation politique</title>
<ellipse fill="#120a32" stroke="white" stroke-width="0" cx="544.61" cy="-542.12" rx="3.5" ry="3.5"/>
<text text-anchor="middle" x="506.11" y="-548.22" font-family="Helvetica,sans-Serif" font-size="8.00" fill="#4d4d4d">relation politique</text>
</g>
<!-- avenir avec nickel -->
<g id="node7" class="node">
<title>avenir avec nickel</title>
<ellipse fill="#510e6c" stroke="white" stroke-width="0" cx="520.5" cy="-11" rx="11" ry="11"/>
<text text-anchor="middle" x="473" y="-24.6" font-family="Helvetica,sans-Serif" font-size="8.00" fill="#4d4d4d">avenir avec nickel</text>
</g>
<!-- pollution -->
<g id="node8" class="node">
<title>pollution</title>
<ellipse fill="#eb6628" stroke="white" stroke-width="0" cx="350.93" cy="-245.29" rx="25" ry="25"/>
<text text-anchor="middle" x="307.43" y="-272.89" font-family="Helvetica,sans-Serif" font-size="8.00" fill="#4d4d4d">pollution</text>
</g>
<!-- ressource minière -->
<g id="node9" class="node">
<title>ressource minière</title>
<ellipse fill="#ec6726" stroke="white" stroke-width="0" cx="610.92" cy="-343.4" rx="25" ry="25"/>
<text text-anchor="middle" x="549.42" y="-371" font-family="Helvetica,sans-Serif" font-size="8.00" fill="#4d4d4d">ressource minière</text>
</g>
<!-- dégradation environnementale -->
<g id="node10" class="node">
<title>dégradation environnementale</title>
<ellipse fill="#fcffa4" stroke="white" stroke-width="0" cx="521.9" cy="-256.17" rx="36" ry="36"/>
<text text-anchor="middle" x="549.4" y="-213.77" font-family="Helvetica,sans-Serif" font-size="8.00" fill="#4d4d4d">dégradation environnementale</text>
</g>
<!-- nature -->
<g id="node11" class="node">
<title>nature</title>
<ellipse fill="#5c126e" stroke="white" stroke-width="0" cx="603.62" cy="-60.35" rx="11" ry="11"/>
<text text-anchor="middle" x="579.12" y="-73.95" font-family="Helvetica,sans-Serif" font-size="8.00" fill="#4d4d4d">nature</text>
</g>
<!-- société néo&#45;calédonienne -->
<g id="node12" class="node">
<title>société néo&#45;calédonienne</title>
<ellipse fill="#8d2369" stroke="white" stroke-width="0" cx="460.94" cy="-88.86" rx="14.5" ry="14.5"/>
<text text-anchor="middle" x="392.44" y="-105.96" font-family="Helvetica,sans-Serif" font-size="8.00" fill="#4d4d4d">société néo&#45;calédonienne</text>
</g>
<!-- nouvelle&#45;calédonie -->
<g id="node13" class="node">
<title>nouvelle&#45;calédonie</title>
<ellipse fill="#2b0b57" stroke="white" stroke-width="0" cx="484.1" cy="-381.5" rx="7" ry="7"/>
<text text-anchor="middle" x="437.6" y="-391.1" font-family="Helvetica,sans-Serif" font-size="8.00" fill="#4d4d4d">nouvelle&#45;calédonie</text>
</g>
<!-- alternative au développement -->
<g id="node14" class="node">
<title>alternative au développement</title>
<ellipse fill="#fb9b06" stroke="white" stroke-width="0" cx="673.49" cy="-289.07" rx="29" ry="29"/>
<text text-anchor="middle" x="706.49" y="-320.67" font-family="Helvetica,sans-Serif" font-size="8.00" fill="#4d4d4d">alternative au développement</text>
</g>
<!-- nickel -->
<g id="node15" class="node">
<title>nickel</title>
<ellipse fill="#2f0a5b" stroke="white" stroke-width="0" cx="596.81" cy="-439.72" rx="7" ry="7"/>
<text text-anchor="middle" x="577.81" y="-449.32" font-family="Helvetica,sans-Serif" font-size="8.00" fill="#4d4d4d">nickel</text>
</g>
<!-- économie -->
<g id="node16" class="node">
<title>économie</title>
<ellipse fill="#a82e5f" stroke="white" stroke-width="0" cx="567.47" cy="-310.71" rx="18" ry="18"/>
<text text-anchor="middle" x="528.97" y="-331.31" font-family="Helvetica,sans-Serif" font-size="8.00" fill="#4d4d4d">économie</text>
</g>
<!-- amélioration environnementale -->
<g id="node17" class="node">
<title>amélioration environnementale</title>
<ellipse fill="#721a6e" stroke="white" stroke-width="0" cx="613.63" cy="-145.39" rx="11" ry="11"/>
<text text-anchor="middle" x="667.13" y="-158.99" font-family="Helvetica,sans-Serif" font-size="8.00" fill="#4d4d4d">amélioration environnementale</text>
</g>
<!-- essor technologique -->
<g id="node18" class="node">
<title>essor technologique</title>
<ellipse fill="#a92e5e" stroke="white" stroke-width="0" cx="492.75" cy="-150.71" rx="18" ry="18"/>
<text text-anchor="middle" x="432.25" y="-171.31" font-family="Helvetica,sans-Serif" font-size="8.00" fill="#4d4d4d">essor technologique</text>
</g>
<!-- risque -->
<g id="node19" class="node">
<title>risque</title>
<ellipse fill="#000004" stroke="white" stroke-width="0" cx="26.5" cy="-257.74" rx="0.5" ry="0.5"/>
<text text-anchor="middle" x="13" y="-260.84" font-family="Helvetica,sans-Serif" font-size="8.00" fill="#4d4d4d">risque</text>
</g>
<!-- exploitation minière -->
<g id="node20" class="node">
<title>exploitation minière</title>
<ellipse fill="#110a30" stroke="white" stroke-width="0" cx="339.4" cy="-94.69" rx="3.5" ry="3.5"/>
<text text-anchor="middle" x="295.4" y="-100.79" font-family="Helvetica,sans-Serif" font-size="8.00" fill="#4d4d4d">exploitation minière</text>
</g>
<!-- matériel -->
<g id="node21" class="node">
<title>matériel</title>
<ellipse fill="#010005" stroke="white" stroke-width="0" cx="191.41" cy="-328.34" rx="0.5" ry="0.5"/>
<text text-anchor="middle" x="173.91" y="-331.44" font-family="Helvetica,sans-Serif" font-size="8.00" fill="#4d4d4d">matériel</text>
</g>
<!-- foncier -->
<g id="node22" class="node">
<title>foncier</title>
<ellipse fill="#000004" stroke="white" stroke-width="0" cx="1132.57" cy="-235.85" rx="0.5" ry="0.5"/>
<text text-anchor="middle" x="1117.57" y="-238.95" font-family="Helvetica,sans-Serif" font-size="8.00" fill="#4d4d4d">foncier</text>
</g>
<!-- échange commercial -->
<g id="node23" class="node">
<title>échange commercial</title>
<ellipse fill="#010108" stroke="white" stroke-width="0" cx="921.71" cy="-339.12" rx="0.5" ry="0.5"/>
<text text-anchor="middle" x="878.21" y="-342.22" font-family="Helvetica,sans-Serif" font-size="8.00" fill="#4d4d4d">échange commercial</text>
</g>
</g>
</svg>
