<?xml version="1.0" encoding="UTF-8" standalone="no"?>
<!DOCTYPE svg PUBLIC "-//W3C//DTD SVG 1.1//EN"
 "http://www.w3.org/Graphics/SVG/1.1/DTD/svg11.dtd">
<!-- Generated by graphviz version 2.43.0 (0)
 -->
<!-- Pages: 1 -->
<svg width="449pt" height="254pt"
 viewBox="0.00 0.00 449.46 253.86" xmlns="http://www.w3.org/2000/svg" xmlns:xlink="http://www.w3.org/1999/xlink">
<g id="graph0" class="graph" transform="scale(1 1) rotate(0) translate(4 249.86)">
<polygon fill="white" stroke="transparent" points="-4,4 -4,-249.86 445.46,-249.86 445.46,4 -4,4"/>
<!-- emploi&#45;&#45;pollution -->
<g id="edge1" class="edge">
<title>emploi&#45;&#45;pollution</title>
<path fill="none" stroke="darkgrey" stroke-width="10" d="M329.65,-78.52C314.96,-85.37 292.93,-95.65 274.57,-104.21"/>
</g>
<!-- emploi&#45;&#45;impact environnemental -->
<g id="edge2" class="edge">
<title>emploi&#45;&#45;impact environnemental</title>
<path fill="none" stroke="darkgrey" stroke-width="2.89" d="M330.57,-61.21C315.42,-51.66 292.42,-37.17 277.3,-27.64"/>
</g>
<!-- emploi&#45;&#45;végétalisation -->
<g id="edge3" class="edge">
<title>emploi&#45;&#45;végétalisation</title>
<path fill="none" stroke="darkgrey" d="M361.99,-79.89C384.23,-92.36 423.02,-114.1 434.6,-120.59"/>
</g>
<!-- pollution&#45;&#45;impact environnemental -->
<g id="edge5" class="edge">
<title>pollution&#45;&#45;impact environnemental</title>
<path fill="none" stroke="darkgrey" stroke-width="7.22" d="M248.68,-84.08C251.98,-67.71 255.75,-49.01 258.44,-35.69"/>
</g>
<!-- pollution&#45;&#45;épuisable -->
<g id="edge4" class="edge">
<title>pollution&#45;&#45;épuisable</title>
<path fill="none" stroke="darkgrey" stroke-width="9.51" d="M260.03,-150.68C269.82,-167.11 281.31,-186.37 288.66,-198.71"/>
</g>
<!-- pollution&#45;&#45;démolition -->
<g id="edge6" class="edge">
<title>pollution&#45;&#45;démolition</title>
<path fill="none" stroke="darkgrey" stroke-width="5.64" d="M224.85,-151.81C209.8,-180.87 189.65,-219.77 187.19,-224.52"/>
</g>
<!-- pollution&#45;&#45;économie -->
<g id="edge7" class="edge">
<title>pollution&#45;&#45;économie</title>
<path fill="none" stroke="darkgrey" stroke-width="5.71" d="M218.58,-91.42C204.69,-74.35 187.92,-53.72 178.59,-42.26"/>
</g>
<!-- impact environnemental&#45;&#45;économie -->
<g id="edge8" class="edge">
<title>impact environnemental&#45;&#45;économie</title>
<path fill="none" stroke="darkgrey" stroke-width="2.2" d="M244.11,-21.06C225.77,-24.2 197.81,-28.98 182.48,-31.61"/>
</g>
<!-- emploi -->
<g id="node1" class="node">
<title>emploi</title>
<ellipse fill="#c73e4c" stroke="white" stroke-width="0" cx="345.97" cy="-70.91" rx="18" ry="18"/>
<text text-anchor="middle" x="294.47" y="-58.91" font-family="Helvetica,sans-Serif" font-size="20.00" fill="#4d4d4d">emploi</text>
</g>
<!-- pollution -->
<g id="node2" class="node">
<title>pollution</title>
<ellipse fill="#fcffa4" stroke="white" stroke-width="0" cx="241.52" cy="-119.63" rx="36" ry="36"/>
<text text-anchor="middle" x="144.02" y="-164.23" font-family="Helvetica,sans-Serif" font-size="28.00" fill="#4d4d4d">pollution</text>
</g>
<!-- impact environnemental -->
<g id="node3" class="node">
<title>impact environnemental</title>
<ellipse fill="#ab2f5e" stroke="white" stroke-width="0" cx="262" cy="-18" rx="18" ry="18"/>
<text text-anchor="middle" x="122" y="-6" font-family="Helvetica,sans-Serif" font-size="20.00" fill="#4d4d4d">impact environnemental</text>
</g>
<!-- végétalisation -->
<g id="node4" class="node">
<title>végétalisation</title>
<ellipse fill="#1e0c45" stroke="white" stroke-width="0" cx="437.96" cy="-122.47" rx="3.5" ry="3.5"/>
<text text-anchor="middle" x="386.46" y="-130.09" font-family="Helvetica,sans-Serif" font-size="13.60" fill="#4d4d4d">végétalisation</text>
</g>
<!-- épuisable -->
<g id="node5" class="node">
<title>épuisable</title>
<ellipse fill="#7c1d6d" stroke="white" stroke-width="0" cx="296.2" cy="-211.36" rx="14.5" ry="14.5"/>
<text text-anchor="middle" x="236.2" y="-231.14" font-family="Helvetica,sans-Serif" font-size="18.40" fill="#4d4d4d">épuisable</text>
</g>
<!-- démolition -->
<g id="node6" class="node">
<title>démolition</title>
<ellipse fill="#000004" stroke="white" stroke-width="0" cx="186.94" cy="-225" rx="0.5" ry="0.5"/>
<text text-anchor="middle" x="154.44" y="-228.9" font-family="Helvetica,sans-Serif" font-size="12.00" fill="#4d4d4d">démolition</text>
</g>
<!-- économie -->
<g id="node7" class="node">
<title>économie</title>
<ellipse fill="#64156e" stroke="white" stroke-width="0" cx="171.46" cy="-33.49" rx="11" ry="11"/>
<text text-anchor="middle" x="118.96" y="-49.05" font-family="Helvetica,sans-Serif" font-size="16.80" fill="#4d4d4d">économie</text>
</g>
</g>
</svg>
