<?xml version="1.0" encoding="UTF-8" standalone="no"?>
<!DOCTYPE svg PUBLIC "-//W3C//DTD SVG 1.1//EN"
 "http://www.w3.org/Graphics/SVG/1.1/DTD/svg11.dtd">
<!-- Generated by graphviz version 2.43.0 (0)
 -->
<!-- Pages: 1 -->
<svg width="1242pt" height="646pt"
 viewBox="0.00 0.00 1242.11 646.05" xmlns="http://www.w3.org/2000/svg" xmlns:xlink="http://www.w3.org/1999/xlink">
<g id="graph0" class="graph" transform="scale(1 1) rotate(0) translate(4 642.05)">
<polygon fill="white" stroke="transparent" points="-4,4 -4,-642.05 1238.11,-642.05 1238.11,4 -4,4"/>
<!-- fin&#45;&#45;emploi -->
<g id="edge1" class="edge">
<title>fin&#45;&#45;emploi</title>
<path fill="none" stroke="darkgrey" stroke-width="2.52" d="M396.93,-246.94C390.57,-242.54 382.72,-237.13 375.97,-232.47"/>
</g>
<!-- fin&#45;&#45;pollution -->
<g id="edge2" class="edge">
<title>fin&#45;&#45;pollution</title>
<path fill="none" stroke="darkgrey" stroke-width="3.67" d="M414.96,-268.93C424.24,-290.43 442.4,-332.57 453.8,-358.99"/>
</g>
<!-- fin&#45;&#45;épuisement de la ressource -->
<g id="edge3" class="edge">
<title>fin&#45;&#45;épuisement de la ressource</title>
<path fill="none" stroke="darkgrey" stroke-width="1.8" d="M423.73,-256.08C436.98,-256.75 456.23,-257.72 468.35,-258.34"/>
</g>
<!-- fin&#45;&#45;impact environnemental -->
<g id="edge4" class="edge">
<title>fin&#45;&#45;impact environnemental</title>
<path fill="none" stroke="darkgrey" stroke-width="3.64" d="M423.59,-258.23C448.29,-263.16 499.24,-273.33 533.82,-280.23"/>
</g>
<!-- fin&#45;&#45;développement -->
<g id="edge5" class="edge">
<title>fin&#45;&#45;développement</title>
<path fill="none" stroke="darkgrey" stroke-width="1.44" d="M416.89,-267.82C423.93,-279.13 434.17,-295.56 440.62,-305.9"/>
</g>
<!-- fin&#45;&#45;économie du pays -->
<g id="edge6" class="edge">
<title>fin&#45;&#45;économie du pays</title>
<path fill="none" stroke="darkgrey" stroke-width="1.36" d="M413.63,-241.37C416.45,-232.69 420.01,-221.71 422.59,-213.76"/>
</g>
<!-- fin&#45;&#45;amélioration environnementale -->
<g id="edge7" class="edge">
<title>fin&#45;&#45;amélioration environnementale</title>
<path fill="none" stroke="darkgrey" stroke-width="1.61" d="M397.69,-264.45C382.44,-276.64 355.41,-298.23 338.81,-311.5"/>
</g>
<!-- fin&#45;&#45;maintien de l’exploitation -->
<g id="edge8" class="edge">
<title>fin&#45;&#45;maintien de l’exploitation</title>
<path fill="none" stroke="darkgrey" stroke-width="1.24" d="M399.95,-243.67C384.3,-223.72 352.95,-183.79 341.31,-168.95"/>
</g>
<!-- fin&#45;&#45;déclin -->
<g id="edge9" class="edge">
<title>fin&#45;&#45;déclin</title>
<path fill="none" stroke="darkgrey" stroke-width="1.18" d="M421.83,-262.84C448.85,-278.78 511.13,-315.5 530.84,-327.12"/>
</g>
<!-- emploi&#45;&#45;pollution -->
<g id="edge12" class="edge">
<title>emploi&#45;&#45;pollution</title>
<path fill="none" stroke="darkgrey" stroke-width="5.97" d="M370.74,-237.42C389.27,-266.26 429.28,-328.52 450.31,-361.26"/>
</g>
<!-- emploi&#45;&#45;épuisement de la ressource -->
<g id="edge13" class="edge">
<title>emploi&#45;&#45;épuisement de la ressource</title>
<path fill="none" stroke="darkgrey" stroke-width="1.7" d="M378.15,-227.41C403.12,-235.16 448.57,-249.25 469.12,-255.63"/>
</g>
<!-- emploi&#45;&#45;impact environnemental -->
<g id="edge14" class="edge">
<title>emploi&#45;&#45;impact environnemental</title>
<path fill="none" stroke="darkgrey" stroke-width="6.56" d="M378.27,-227.5C412.59,-238.25 489.57,-262.36 534.59,-276.46"/>
</g>
<!-- emploi&#45;&#45;développement -->
<g id="edge18" class="edge">
<title>emploi&#45;&#45;développement</title>
<path fill="none" stroke="darkgrey" stroke-width="1.43" d="M373.16,-235.45C391.14,-255.05 424.08,-290.97 438.98,-307.22"/>
</g>
<!-- emploi&#45;&#45;économie du pays -->
<g id="edge19" class="edge">
<title>emploi&#45;&#45;économie du pays</title>
<path fill="none" stroke="darkgrey" stroke-width="3.79" d="M378.32,-217.01C390.08,-213.61 405.22,-209.24 415.25,-206.34"/>
</g>
<!-- emploi&#45;&#45;amélioration environnementale -->
<g id="edge20" class="edge">
<title>emploi&#45;&#45;amélioration environnementale</title>
<path fill="none" stroke="darkgrey" stroke-width="4.78" d="M354.69,-239.17C348,-257.72 337.38,-287.17 330.67,-305.76"/>
</g>
<!-- emploi&#45;&#45;maintien de l’exploitation -->
<g id="edge21" class="edge">
<title>emploi&#45;&#45;maintien de l’exploitation</title>
<path fill="none" stroke="darkgrey" stroke-width="1.14" d="M354.04,-205.35C349.2,-193.53 342.99,-178.31 339.5,-169.78"/>
</g>
<!-- emploi&#45;&#45;exploitation -->
<g id="edge10" class="edge">
<title>emploi&#45;&#45;exploitation</title>
<path fill="none" stroke="darkgrey" stroke-width="1.29" d="M371.95,-207.3C390.51,-182.62 426.74,-134.44 436.04,-122.07"/>
</g>
<!-- emploi&#45;&#45;procédé industriel -->
<g id="edge11" class="edge">
<title>emploi&#45;&#45;procédé industriel</title>
<path fill="none" stroke="darkgrey" stroke-width="1.08" d="M362.04,-240.05C364.35,-275.53 369.38,-352.59 370.53,-370.16"/>
</g>
<!-- emploi&#45;&#45;conflit -->
<g id="edge15" class="edge">
<title>emploi&#45;&#45;conflit</title>
<path fill="none" stroke="darkgrey" stroke-width="2.01" d="M377.65,-215.11C409.08,-202.13 475.94,-174.5 501.8,-163.81"/>
</g>
<!-- emploi&#45;&#45;développement alternatif -->
<g id="edge16" class="edge">
<title>emploi&#45;&#45;développement alternatif</title>
<path fill="none" stroke="darkgrey" stroke-width="1.35" d="M347.2,-210.16C310.54,-178.26 211.55,-92.13 193.31,-76.25"/>
</g>
<!-- emploi&#45;&#45;vision positive de la ressource -->
<g id="edge17" class="edge">
<title>emploi&#45;&#45;vision positive de la ressource</title>
<path fill="none" stroke="darkgrey" stroke-width="1.63" d="M378.91,-220.29C408.38,-217.41 465.54,-211.82 485.53,-209.87"/>
</g>
<!-- emploi&#45;&#45;famille -->
<g id="edge22" class="edge">
<title>emploi&#45;&#45;famille</title>
<path fill="none" stroke="darkgrey" stroke-width="1.87" d="M354.87,-204.97C338.48,-158.25 293.61,-30.38 285.68,-7.78"/>
</g>
<!-- emploi&#45;&#45;développement durable -->
<g id="edge23" class="edge">
<title>emploi&#45;&#45;développement durable</title>
<path fill="none" stroke="darkgrey" stroke-width="2.02" d="M369.49,-238.21C378.06,-254.25 390.93,-278.34 398.13,-291.83"/>
</g>
<!-- emploi&#45;&#45;innovation -->
<g id="edge24" class="edge">
<title>emploi&#45;&#45;innovation</title>
<path fill="none" stroke="darkgrey" stroke-width="1.79" d="M374.63,-233.86C400.31,-255.88 455,-302.78 478.47,-322.91"/>
</g>
<!-- emploi&#45;&#45;formation -->
<g id="edge25" class="edge">
<title>emploi&#45;&#45;formation</title>
<path fill="none" stroke="darkgrey" stroke-width="1.7" d="M345.62,-231.92C320.93,-247.91 273.66,-278.52 260.85,-286.82"/>
</g>
<!-- emploi&#45;&#45;santé -->
<g id="edge26" class="edge">
<title>emploi&#45;&#45;santé</title>
<path fill="none" stroke="darkgrey" stroke-width="1.14" d="M347.93,-235.06C318.66,-264.5 248.73,-334.86 233.78,-349.9"/>
</g>
<!-- emploi&#45;&#45;automatisation -->
<g id="edge27" class="edge">
<title>emploi&#45;&#45;automatisation</title>
<path fill="none" stroke="darkgrey" stroke-width="1.46" d="M357.34,-239.83C355.23,-250.5 352.66,-263.48 351.12,-271.29"/>
</g>
<!-- pollution&#45;&#45;épuisement de la ressource -->
<g id="edge40" class="edge">
<title>pollution&#45;&#45;épuisement de la ressource</title>
<path fill="none" stroke="darkgrey" stroke-width="4.18" d="M467.08,-357.38C470.51,-330.61 475.81,-289.34 478.31,-269.83"/>
</g>
<!-- pollution&#45;&#45;impact environnemental -->
<g id="edge43" class="edge">
<title>pollution&#45;&#45;impact environnemental</title>
<path fill="none" stroke="darkgrey" stroke-width="10" d="M482.7,-365.36C499.26,-350.41 523.57,-328.46 542.2,-311.64"/>
</g>
<!-- pollution&#45;&#45;développement -->
<g id="edge49" class="edge">
<title>pollution&#45;&#45;développement</title>
<path fill="none" stroke="darkgrey" stroke-width="3.93" d="M457.56,-357.88C454.76,-347.01 451.61,-334.79 449.42,-326.29"/>
</g>
<!-- pollution&#45;&#45;économie du pays -->
<g id="edge50" class="edge">
<title>pollution&#45;&#45;économie du pays</title>
<path fill="none" stroke="darkgrey" stroke-width="3.96" d="M458.69,-357.83C450.34,-318.35 434.27,-242.31 428.31,-214.1"/>
</g>
<!-- pollution&#45;&#45;amélioration environnementale -->
<g id="edge51" class="edge">
<title>pollution&#45;&#45;amélioration environnementale</title>
<path fill="none" stroke="darkgrey" stroke-width="3.06" d="M440.85,-372.55C412.86,-360.62 366.27,-340.77 341.37,-330.16"/>
</g>
<!-- pollution&#45;&#45;déclin -->
<g id="edge53" class="edge">
<title>pollution&#45;&#45;déclin</title>
<path fill="none" stroke="darkgrey" stroke-width="1.88" d="M484.61,-367.7C500.48,-356.49 521.26,-341.8 531.18,-334.78"/>
</g>
<!-- pollution&#45;&#45;conflit -->
<g id="edge44" class="edge">
<title>pollution&#45;&#45;conflit</title>
<path fill="none" stroke="darkgrey" stroke-width="2.42" d="M469.24,-357.66C479.74,-309.37 502.59,-204.23 509.97,-170.27"/>
</g>
<!-- pollution&#45;&#45;vision positive de la ressource -->
<g id="edge47" class="edge">
<title>pollution&#45;&#45;vision positive de la ressource</title>
<path fill="none" stroke="darkgrey" stroke-width="1.84" d="M468,-357.55C474.68,-317.33 487.52,-240.01 491.47,-216.28"/>
</g>
<!-- pollution&#45;&#45;développement durable -->
<g id="edge54" class="edge">
<title>pollution&#45;&#45;développement durable</title>
<path fill="none" stroke="darkgrey" stroke-width="1.97" d="M448.64,-362.06C436.35,-345.67 419.63,-323.38 410.38,-311.05"/>
</g>
<!-- pollution&#45;&#45;innovation -->
<g id="edge55" class="edge">
<title>pollution&#45;&#45;innovation</title>
<path fill="none" stroke="darkgrey" stroke-width="3.01" d="M475.35,-360.01C477.92,-355.02 480.55,-349.89 482.84,-345.43"/>
</g>
<!-- pollution&#45;&#45;formation -->
<g id="edge59" class="edge">
<title>pollution&#45;&#45;formation</title>
<path fill="none" stroke="darkgrey" stroke-width="1.1" d="M441.01,-372.01C392.33,-349.96 281.23,-299.65 260.83,-290.41"/>
</g>
<!-- pollution&#45;&#45;santé -->
<g id="edge60" class="edge">
<title>pollution&#45;&#45;santé</title>
<path fill="none" stroke="darkgrey" stroke-width="1.3" d="M438.95,-379.19C384.49,-372.27 257.9,-356.18 234.65,-353.23"/>
</g>
<!-- pollution&#45;&#45;automatisation -->
<g id="edge61" class="edge">
<title>pollution&#45;&#45;automatisation</title>
<path fill="none" stroke="darkgrey" stroke-width="1.57" d="M445.28,-365.4C418.75,-341.2 371.46,-298.05 355.32,-283.32"/>
</g>
<!-- pollution&#45;&#45;montagne -->
<g id="edge41" class="edge">
<title>pollution&#45;&#45;montagne</title>
<path fill="none" stroke="darkgrey" stroke-width="1.78" d="M487.39,-391.09C538.11,-409.92 654.92,-453.29 676.37,-461.26"/>
</g>
<!-- pollution&#45;&#45;biodiversité -->
<g id="edge42" class="edge">
<title>pollution&#45;&#45;biodiversité</title>
<path fill="none" stroke="darkgrey" stroke-width="2.71" d="M488.98,-381.86C538.6,-380.86 646.93,-378.68 675.62,-378.1"/>
</g>
<!-- pollution&#45;&#45;inégalité -->
<g id="edge45" class="edge">
<title>pollution&#45;&#45;inégalité</title>
<path fill="none" stroke="darkgrey" stroke-width="1.11" d="M460.97,-407.32C453.99,-467.47 436.69,-616.31 435.35,-627.84"/>
</g>
<!-- pollution&#45;&#45;milieu -->
<g id="edge46" class="edge">
<title>pollution&#45;&#45;milieu</title>
<path fill="none" stroke="darkgrey" stroke-width="1.22" d="M486.93,-372.21C529.5,-353.46 617.84,-314.56 636.65,-306.28"/>
</g>
<!-- pollution&#45;&#45;avenir -->
<g id="edge48" class="edge">
<title>pollution&#45;&#45;avenir</title>
<path fill="none" stroke="darkgrey" stroke-width="1.47" d="M488.08,-389.48C527.43,-401.04 602.64,-423.14 619.72,-428.16"/>
</g>
<!-- pollution&#45;&#45;revenu -->
<g id="edge52" class="edge">
<title>pollution&#45;&#45;revenu</title>
<path fill="none" stroke="darkgrey" stroke-width="1.68" d="M474.79,-404.95C493.38,-443.43 530,-519.22 538.33,-536.45"/>
</g>
<!-- pollution&#45;&#45;crise -->
<g id="edge56" class="edge">
<title>pollution&#45;&#45;crise</title>
<path fill="none" stroke="darkgrey" stroke-width="1.12" d="M483.02,-398.98C520.03,-431.1 599.11,-499.73 614.79,-513.34"/>
</g>
<!-- pollution&#45;&#45;nuisance -->
<g id="edge57" class="edge">
<title>pollution&#45;&#45;nuisance</title>
<path fill="none" stroke="darkgrey" stroke-width="1.06" d="M449.1,-402.69C414.25,-450.65 329.26,-567.61 321.37,-578.47"/>
</g>
<!-- pollution&#45;&#45;richesse -->
<g id="edge58" class="edge">
<title>pollution&#45;&#45;richesse</title>
<path fill="none" stroke="darkgrey" stroke-width="1.87" d="M487.94,-390.76C509.33,-398.23 538.7,-408.48 548.56,-411.92"/>
</g>
<!-- épuisement de la ressource&#45;&#45;impact environnemental -->
<g id="edge62" class="edge">
<title>épuisement de la ressource&#45;&#45;impact environnemental</title>
<path fill="none" stroke="darkgrey" stroke-width="4.61" d="M490.32,-262.28C501.24,-265.74 518.85,-271.33 534.66,-276.34"/>
</g>
<!-- épuisement de la ressource&#45;&#45;développement -->
<g id="edge65" class="edge">
<title>épuisement de la ressource&#45;&#45;développement</title>
<path fill="none" stroke="darkgrey" stroke-width="2.74" d="M474.1,-268.53C468.07,-278.89 458.5,-295.29 452.41,-305.75"/>
</g>
<!-- épuisement de la ressource&#45;&#45;économie du pays -->
<g id="edge66" class="edge">
<title>épuisement de la ressource&#45;&#45;économie du pays</title>
<path fill="none" stroke="darkgrey" stroke-width="2.05" d="M471.79,-250.7C461.63,-240.17 444.13,-222.03 433.96,-211.48"/>
</g>
<!-- épuisement de la ressource&#45;&#45;amélioration environnementale -->
<g id="edge67" class="edge">
<title>épuisement de la ressource&#45;&#45;amélioration environnementale</title>
<path fill="none" stroke="darkgrey" stroke-width="1.47" d="M469.52,-263.12C443.35,-273.91 373.54,-302.71 341.27,-316.03"/>
</g>
<!-- épuisement de la ressource&#45;&#45;conflit -->
<g id="edge63" class="edge">
<title>épuisement de la ressource&#45;&#45;conflit</title>
<path fill="none" stroke="darkgrey" stroke-width="2.24" d="M483.2,-248.27C489.48,-229.13 502.6,-189.12 508.86,-170.03"/>
</g>
<!-- épuisement de la ressource&#45;&#45;vision positive de la ressource -->
<g id="edge64" class="edge">
<title>épuisement de la ressource&#45;&#45;vision positive de la ressource</title>
<path fill="none" stroke="darkgrey" stroke-width="1.26" d="M482.58,-247.88C485.11,-238.14 488.72,-224.27 490.86,-216.05"/>
</g>
<!-- épuisement de la ressource&#45;&#45;innovation -->
<g id="edge68" class="edge">
<title>épuisement de la ressource&#45;&#45;innovation</title>
<path fill="none" stroke="darkgrey" stroke-width="1.52" d="M481.2,-270.07C482.91,-282.84 485.71,-303.79 487.59,-317.83"/>
</g>
<!-- impact environnemental&#45;&#45;développement -->
<g id="edge78" class="edge">
<title>impact environnemental&#45;&#45;développement</title>
<path fill="none" stroke="darkgrey" stroke-width="5.41" d="M534.06,-295.4C508.19,-301.38 474.65,-309.13 457.62,-313.07"/>
</g>
<!-- impact environnemental&#45;&#45;économie du pays -->
<g id="edge79" class="edge">
<title>impact environnemental&#45;&#45;économie du pays</title>
<path fill="none" stroke="darkgrey" stroke-width="4.88" d="M538.1,-269.05C505.54,-249.93 456.29,-221.01 435.65,-208.89"/>
</g>
<!-- impact environnemental&#45;&#45;amélioration environnementale -->
<g id="edge80" class="edge">
<title>impact environnemental&#45;&#45;amélioration environnementale</title>
<path fill="none" stroke="darkgrey" stroke-width="3.21" d="M533.32,-292.51C480.22,-300.25 382.62,-314.48 342.45,-320.34"/>
</g>
<!-- impact environnemental&#45;&#45;maintien de l’exploitation -->
<g id="edge81" class="edge">
<title>impact environnemental&#45;&#45;maintien de l’exploitation</title>
<path fill="none" stroke="darkgrey" stroke-width="1.37" d="M537.35,-270.29C481.91,-240.7 370.89,-181.42 343.19,-166.63"/>
</g>
<!-- impact environnemental&#45;&#45;déclin -->
<g id="edge83" class="edge">
<title>impact environnemental&#45;&#45;déclin</title>
<path fill="none" stroke="darkgrey" stroke-width="2.28" d="M547.49,-316.49C545.12,-319.69 542.93,-322.63 541.17,-325"/>
</g>
<!-- impact environnemental&#45;&#45;conflit -->
<g id="edge74" class="edge">
<title>impact environnemental&#45;&#45;conflit</title>
<path fill="none" stroke="darkgrey" stroke-width="5.06" d="M554.53,-254.37C542.03,-226.26 524.83,-187.6 516.8,-169.53"/>
</g>
<!-- impact environnemental&#45;&#45;vision positive de la ressource -->
<g id="edge76" class="edge">
<title>impact environnemental&#45;&#45;vision positive de la ressource</title>
<path fill="none" stroke="darkgrey" stroke-width="2.35" d="M543.69,-261.28C527.16,-244.41 507.05,-223.88 497.78,-214.42"/>
</g>
<!-- impact environnemental&#45;&#45;développement durable -->
<g id="edge84" class="edge">
<title>impact environnemental&#45;&#45;développement durable</title>
<path fill="none" stroke="darkgrey" stroke-width="1.71" d="M533.22,-290.46C495.54,-293.78 438.55,-298.81 414.67,-300.92"/>
</g>
<!-- impact environnemental&#45;&#45;innovation -->
<g id="edge85" class="edge">
<title>impact environnemental&#45;&#45;innovation</title>
<path fill="none" stroke="darkgrey" stroke-width="2.82" d="M537.69,-305.11C525.35,-312.11 511.88,-319.74 502.34,-325.15"/>
</g>
<!-- impact environnemental&#45;&#45;automatisation -->
<g id="edge94" class="edge">
<title>impact environnemental&#45;&#45;automatisation</title>
<path fill="none" stroke="darkgrey" stroke-width="1.8" d="M532.93,-285.79C479.62,-283.59 383.46,-279.62 356.77,-278.52"/>
</g>
<!-- impact environnemental&#45;&#45;milieu -->
<g id="edge75" class="edge">
<title>impact environnemental&#45;&#45;milieu</title>
<path fill="none" stroke="darkgrey" stroke-width="1.63" d="M604.28,-295.89C617.42,-299.11 630.65,-302.36 636.74,-303.85"/>
</g>
<!-- impact environnemental&#45;&#45;avenir -->
<g id="edge77" class="edge">
<title>impact environnemental&#45;&#45;avenir</title>
<path fill="none" stroke="darkgrey" stroke-width="1.89" d="M582.12,-321.27C595.99,-357.68 616.72,-412.1 621.99,-425.91"/>
</g>
<!-- impact environnemental&#45;&#45;revenu -->
<g id="edge82" class="edge">
<title>impact environnemental&#45;&#45;revenu</title>
<path fill="none" stroke="darkgrey" stroke-width="2.19" d="M565.02,-323.22C557.74,-386.45 543.14,-513.11 540.46,-536.31"/>
</g>
<!-- impact environnemental&#45;&#45;crise -->
<g id="edge86" class="edge">
<title>impact environnemental&#45;&#45;crise</title>
<path fill="none" stroke="darkgrey" stroke-width="1.17" d="M576.72,-322.98C588.99,-380.95 612.34,-491.23 616.78,-512.22"/>
</g>
<!-- impact environnemental&#45;&#45;richesse -->
<g id="edge87" class="edge">
<title>impact environnemental&#45;&#45;richesse</title>
<path fill="none" stroke="darkgrey" stroke-width="2.3" d="M564.28,-323C559.98,-354.39 554.16,-396.95 552.44,-409.49"/>
</g>
<!-- impact environnemental&#45;&#45;croissance minière -->
<g id="edge72" class="edge">
<title>impact environnemental&#45;&#45;croissance minière</title>
<path fill="none" stroke="darkgrey" stroke-width="2.08" d="M558.9,-322.04C544.5,-370.77 519.49,-455.46 514.19,-473.4"/>
</g>
<!-- impact environnemental&#45;&#45;coutume -->
<g id="edge73" class="edge">
<title>impact environnemental&#45;&#45;coutume</title>
<path fill="none" stroke="darkgrey" stroke-width="1.13" d="M575.2,-251.75C585.76,-189.59 606.82,-65.56 610.67,-42.85"/>
</g>
<!-- impact environnemental&#45;&#45;production -->
<g id="edge88" class="edge">
<title>impact environnemental&#45;&#45;production</title>
<path fill="none" stroke="darkgrey" stroke-width="1.34" d="M605.12,-291.65C680.22,-300.76 849.03,-321.24 876.22,-324.54"/>
</g>
<!-- impact environnemental&#45;&#45;sentiment négatif -->
<g id="edge89" class="edge">
<title>impact environnemental&#45;&#45;sentiment négatif</title>
<path fill="none" stroke="darkgrey" stroke-width="1.24" d="M596.57,-263.21C646.24,-219.59 747.72,-130.44 766.31,-114.11"/>
</g>
<!-- impact environnemental&#45;&#45;main d’oeuvre -->
<g id="edge90" class="edge">
<title>impact environnemental&#45;&#45;main d’oeuvre</title>
<path fill="none" stroke="darkgrey" stroke-width="1.53" d="M605.58,-285.62C657.75,-283.24 749.67,-279.04 769.15,-278.15"/>
</g>
<!-- impact environnemental&#45;&#45;investissement -->
<g id="edge91" class="edge">
<title>impact environnemental&#45;&#45;investissement</title>
<path fill="none" stroke="darkgrey" stroke-width="1.58" d="M546.57,-315.43C509.6,-361.47 438.9,-449.52 424.92,-466.93"/>
</g>
<!-- impact environnemental&#45;&#45;danger -->
<g id="edge92" class="edge">
<title>impact environnemental&#45;&#45;danger</title>
<path fill="none" stroke="darkgrey" stroke-width="1.06" d="M603.06,-274.81C662.33,-253.01 780.61,-209.49 802.27,-201.52"/>
</g>
<!-- impact environnemental&#45;&#45;transition -->
<g id="edge93" class="edge">
<title>impact environnemental&#45;&#45;transition</title>
<path fill="none" stroke="darkgrey" stroke-width="1.01" d="M602.34,-301.44C657.34,-324.9 762.36,-369.71 772.09,-373.86"/>
</g>
<!-- développement&#45;&#45;économie du pays -->
<g id="edge103" class="edge">
<title>développement&#45;&#45;économie du pays</title>
<path fill="none" stroke="darkgrey" stroke-width="2.58" d="M444.61,-304.41C440.65,-282.88 432.01,-235.88 428.06,-214.37"/>
</g>
<!-- développement&#45;&#45;amélioration environnementale -->
<g id="edge104" class="edge">
<title>développement&#45;&#45;amélioration environnementale</title>
<path fill="none" stroke="darkgrey" stroke-width="2.77" d="M435.39,-316.28C414.24,-317.55 368.43,-320.31 342.79,-321.85"/>
</g>
<!-- développement&#45;&#45;déclin -->
<g id="edge105" class="edge">
<title>développement&#45;&#45;déclin</title>
<path fill="none" stroke="darkgrey" stroke-width="1.21" d="M457.74,-317.45C476.57,-320.61 514.31,-326.93 529.92,-329.54"/>
</g>
<!-- développement&#45;&#45;développement durable -->
<g id="edge106" class="edge">
<title>développement&#45;&#45;développement durable</title>
<path fill="none" stroke="darkgrey" stroke-width="1.59" d="M435.78,-312.14C429.19,-310.05 420.81,-307.39 414.25,-305.31"/>
</g>
<!-- développement&#45;&#45;innovation -->
<g id="edge107" class="edge">
<title>développement&#45;&#45;innovation</title>
<path fill="none" stroke="darkgrey" stroke-width="1.87" d="M457.04,-319.67C462.69,-321.88 469.76,-324.65 475.85,-327.03"/>
</g>
<!-- développement&#45;&#45;richesse -->
<g id="edge108" class="edge">
<title>développement&#45;&#45;richesse</title>
<path fill="none" stroke="darkgrey" stroke-width="1.44" d="M454.93,-323.25C476.84,-343.54 535.67,-398.03 549.16,-410.52"/>
</g>
<!-- développement&#45;&#45;investissement -->
<g id="edge109" class="edge">
<title>développement&#45;&#45;investissement</title>
<path fill="none" stroke="darkgrey" stroke-width="1.1" d="M444.93,-326.7C439.99,-358.22 426.04,-447.24 423.05,-466.33"/>
</g>
<!-- économie du pays&#45;&#45;amélioration environnementale -->
<g id="edge111" class="edge">
<title>économie du pays&#45;&#45;amélioration environnementale</title>
<path fill="none" stroke="darkgrey" stroke-width="1.33" d="M418.71,-211.84C401.33,-232.33 357.43,-284.1 336.25,-309.07"/>
</g>
<!-- économie du pays&#45;&#45;développement durable -->
<g id="edge112" class="edge">
<title>économie du pays&#45;&#45;développement durable</title>
<path fill="none" stroke="darkgrey" stroke-width="1.34" d="M423.51,-214.17C419.19,-233.14 410.35,-271.92 406.02,-290.92"/>
</g>
<!-- économie du pays&#45;&#45;indépendance -->
<g id="edge110" class="edge">
<title>économie du pays&#45;&#45;indépendance</title>
<path fill="none" stroke="darkgrey" stroke-width="1.3" d="M427.8,-192.21C433.98,-154.26 454.17,-30.11 457.91,-7.16"/>
</g>
<!-- amélioration environnementale&#45;&#45;maintien de l’exploitation -->
<g id="edge114" class="edge">
<title>amélioration environnementale&#45;&#45;maintien de l’exploitation</title>
<path fill="none" stroke="darkgrey" stroke-width="2.34" d="M325.86,-304.94C328.57,-269.86 334.46,-193.74 336.27,-170.26"/>
</g>
<!-- amélioration environnementale&#45;&#45;développement durable -->
<g id="edge115" class="edge">
<title>amélioration environnementale&#45;&#45;développement durable</title>
<path fill="none" stroke="darkgrey" stroke-width="3.93" d="M342.01,-318.29C357.47,-314.17 379.52,-308.29 392.59,-304.81"/>
</g>
<!-- amélioration environnementale&#45;&#45;innovation -->
<g id="edge116" class="edge">
<title>amélioration environnementale&#45;&#45;innovation</title>
<path fill="none" stroke="darkgrey" stroke-width="1.99" d="M342.45,-323.99C375.37,-325.87 444.72,-329.83 474.94,-331.56"/>
</g>
<!-- amélioration environnementale&#45;&#45;formation -->
<g id="edge117" class="edge">
<title>amélioration environnementale&#45;&#45;formation</title>
<path fill="none" stroke="darkgrey" stroke-width="1.47" d="M308.28,-314.72C292.35,-306.62 269.23,-294.86 260.8,-290.58"/>
</g>
<!-- amélioration environnementale&#45;&#45;développement culturel -->
<g id="edge113" class="edge">
<title>amélioration environnementale&#45;&#45;développement culturel</title>
<path fill="none" stroke="darkgrey" stroke-width="1.19" d="M309.12,-332.78C267.92,-359.14 156.69,-430.31 136.19,-443.43"/>
</g>
<!-- exploitation&#45;&#45;impact environnemental -->
<g id="edge28" class="edge">
<title>exploitation&#45;&#45;impact environnemental</title>
<path fill="none" stroke="darkgrey" stroke-width="1.34" d="M440.53,-122.05C452.95,-138.01 513.35,-215.59 546.78,-258.53"/>
</g>
<!-- exploitation&#45;&#45;vision positive de la ressource -->
<g id="edge29" class="edge">
<title>exploitation&#45;&#45;vision positive de la ressource</title>
<path fill="none" stroke="darkgrey" stroke-width="1.01" d="M440.06,-122.12C447.81,-134.94 478.23,-185.31 488.91,-203"/>
</g>
<!-- exploitation&#45;&#45;développement durable -->
<g id="edge30" class="edge">
<title>exploitation&#45;&#45;développement durable</title>
<path fill="none" stroke="darkgrey" stroke-width="1.15" d="M437.59,-122.61C433.58,-143.74 412.46,-254.83 405.64,-290.71"/>
</g>
<!-- procédé industriel&#45;&#45;pollution -->
<g id="edge31" class="edge">
<title>procédé industriel&#45;&#45;pollution</title>
<path fill="none" stroke="darkgrey" stroke-width="1.54" d="M374.3,-374.1C384.73,-375.07 416.06,-377.95 438.73,-380.04"/>
</g>
<!-- procédé industriel&#45;&#45;impact environnemental -->
<g id="edge32" class="edge">
<title>procédé industriel&#45;&#45;impact environnemental</title>
<path fill="none" stroke="darkgrey" stroke-width="1.37" d="M374.21,-372.28C393.14,-364.02 485.57,-323.73 536.07,-301.71"/>
</g>
<!-- procédé industriel&#45;&#45;développement -->
<g id="edge33" class="edge">
<title>procédé industriel&#45;&#45;développement</title>
<path fill="none" stroke="darkgrey" stroke-width="1.15" d="M373.65,-371.57C384.15,-363.51 420.67,-335.53 437.74,-322.44"/>
</g>
<!-- procédé industriel&#45;&#45;économie du pays -->
<g id="edge34" class="edge">
<title>procédé industriel&#45;&#45;économie du pays</title>
<path fill="none" stroke="darkgrey" stroke-width="1.15" d="M371.92,-370.22C378.52,-349.84 411.58,-247.77 422.5,-214.06"/>
</g>
<!-- procédé industriel&#45;&#45;amélioration environnementale -->
<g id="edge35" class="edge">
<title>procédé industriel&#45;&#45;amélioration environnementale</title>
<path fill="none" stroke="darkgrey" stroke-width="1.8" d="M368.27,-371.05C362.41,-364.61 347.43,-348.16 336.62,-336.29"/>
</g>
<!-- procédé industriel&#45;&#45;développement durable -->
<g id="edge36" class="edge">
<title>procédé industriel&#45;&#45;développement durable</title>
<path fill="none" stroke="darkgrey" stroke-width="1.2" d="M372.34,-370.31C377.1,-359.88 391.4,-328.49 398.86,-312.11"/>
</g>
<!-- conflit&#45;&#45;développement -->
<g id="edge96" class="edge">
<title>conflit&#45;&#45;développement</title>
<path fill="none" stroke="darkgrey" stroke-width="1.5" d="M508.02,-169.71C496.15,-197.93 463.07,-276.6 451.08,-305.11"/>
</g>
<!-- conflit&#45;&#45;économie du pays -->
<g id="edge97" class="edge">
<title>conflit&#45;&#45;économie du pays</title>
<path fill="none" stroke="darkgrey" stroke-width="1.97" d="M502.42,-164.49C485.86,-172.88 452.72,-189.69 436.06,-198.14"/>
</g>
<!-- conflit&#45;&#45;indépendance -->
<g id="edge98" class="edge">
<title>conflit&#45;&#45;indépendance</title>
<path fill="none" stroke="darkgrey" stroke-width="1.03" d="M508.62,-148.75C497.8,-117.36 466.5,-26.67 459.78,-7.21"/>
</g>
<!-- vision positive de la ressource&#45;&#45;développement -->
<g id="edge100" class="edge">
<title>vision positive de la ressource&#45;&#45;développement</title>
<path fill="none" stroke="darkgrey" stroke-width="1.06" d="M489.77,-215.83C481.98,-233.85 460.46,-283.68 451.1,-305.33"/>
</g>
<!-- vision positive de la ressource&#45;&#45;économie du pays -->
<g id="edge101" class="edge">
<title>vision positive de la ressource&#45;&#45;économie du pays</title>
<path fill="none" stroke="darkgrey" stroke-width="2.01" d="M485.51,-208.54C473.96,-207.51 451.07,-205.47 437.29,-204.24"/>
</g>
<!-- vision positive de la ressource&#45;&#45;innovation -->
<g id="edge102" class="edge">
<title>vision positive de la ressource&#45;&#45;innovation</title>
<path fill="none" stroke="darkgrey" stroke-width="1.73" d="M492.46,-216.52C491.96,-236.31 490.58,-291.07 489.91,-317.61"/>
</g>
<!-- développement durable&#45;&#45;innovation -->
<g id="edge118" class="edge">
<title>développement durable&#45;&#45;innovation</title>
<path fill="none" stroke="darkgrey" stroke-width="2.33" d="M414.06,-305.64C429.58,-311.14 458.59,-321.43 475.77,-327.52"/>
</g>
<!-- innovation&#45;&#45;automatisation -->
<g id="edge119" class="edge">
<title>innovation&#45;&#45;automatisation</title>
<path fill="none" stroke="darkgrey" stroke-width="1.6" d="M475.88,-327.1C446.47,-315.71 378.09,-289.22 356.44,-280.83"/>
</g>
<!-- enjeu&#45;&#45;impact environnemental -->
<g id="edge37" class="edge">
<title>enjeu&#45;&#45;impact environnemental</title>
<path fill="none" stroke="darkgrey" d="M680.97,-99C676.14,-107.14 618.11,-204.86 587.62,-256.21"/>
</g>
<!-- relation internationale&#45;&#45;impact environnemental -->
<g id="edge38" class="edge">
<title>relation internationale&#45;&#45;impact environnemental</title>
<path fill="none" stroke="darkgrey" stroke-width="1.1" d="M703.86,-180.06C690.39,-190.78 632.7,-236.7 597.33,-264.86"/>
</g>
<!-- exploitation raisonnée&#45;&#45;amélioration environnementale -->
<g id="edge39" class="edge">
<title>exploitation raisonnée&#45;&#45;amélioration environnementale</title>
<path fill="none" stroke="darkgrey" stroke-width="1.22" d="M99.1,-310.58C122.76,-311.88 256.75,-319.24 306.17,-321.95"/>
</g>
<!-- montagne&#45;&#45;impact environnemental -->
<g id="edge70" class="edge">
<title>montagne&#45;&#45;impact environnemental</title>
<path fill="none" stroke="darkgrey" stroke-width="1.02" d="M677.87,-459.49C667.43,-442.94 616.89,-362.89 588.55,-317.99"/>
</g>
<!-- montagne&#45;&#45;biodiversité -->
<g id="edge69" class="edge">
<title>montagne&#45;&#45;biodiversité</title>
<path fill="none" stroke="darkgrey" stroke-width="1.33" d="M679.92,-458.9C680.36,-446 681.87,-402.26 682.47,-385.03"/>
</g>
<!-- biodiversité&#45;&#45;impact environnemental -->
<g id="edge71" class="edge">
<title>biodiversité&#45;&#45;impact environnemental</title>
<path fill="none" stroke="darkgrey" stroke-width="1.56" d="M677.23,-373.59C663.06,-362.27 624.39,-331.39 597.38,-309.82"/>
</g>
<!-- milieu&#45;&#45;innovation -->
<g id="edge99" class="edge">
<title>milieu&#45;&#45;innovation</title>
<path fill="none" stroke="darkgrey" stroke-width="1.13" d="M636.5,-305.39C618.19,-308.75 537.27,-323.62 503.95,-329.75"/>
</g>
<!-- croissance minière&#45;&#45;innovation -->
<g id="edge95" class="edge">
<title>croissance minière&#45;&#45;innovation</title>
<path fill="none" stroke="darkgrey" stroke-width="1.48" d="M512.6,-473.23C509.75,-455.86 497.28,-379.67 491.96,-347.17"/>
</g>
<!-- production&#45;&#45;minerai -->
<g id="edge120" class="edge">
<title>production&#45;&#45;minerai</title>
<path fill="none" stroke="darkgrey" stroke-width="1.1" d="M883.54,-324.92C908.65,-324.37 1057.72,-321.14 1083.16,-320.59"/>
</g>
<!-- métallurgie&#45;&#45;minerai -->
<g id="edge121" class="edge">
<title>métallurgie&#45;&#45;minerai</title>
<path fill="none" stroke="darkgrey" stroke-width="1.13" d="M1232.96,-297.33C1223.4,-298.85 1112.12,-316.5 1090.48,-319.93"/>
</g>
<!-- condition de travail&#45;&#45;bien de consommation -->
<g id="edge122" class="edge">
<title>condition de travail&#45;&#45;bien de consommation</title>
<path fill="none" stroke="darkgrey" stroke-width="1.02" d="M1008.97,-135.5C999.69,-135.5 910.59,-135.5 891.21,-135.5"/>
</g>
<!-- fin -->
<g id="node1" class="node">
<title>fin</title>
<ellipse fill="#88226a" stroke="white" stroke-width="0" cx="409.1" cy="-255.33" rx="14.5" ry="14.5"/>
<text text-anchor="middle" x="389.1" y="-272.43" font-family="Helvetica,sans-Serif" font-size="8.00" fill="#4d4d4d">fin</text>
</g>
<!-- emploi -->
<g id="node2" class="node">
<title>emploi</title>
<ellipse fill="#c03a51" stroke="white" stroke-width="0" cx="360.86" cy="-222.05" rx="18" ry="18"/>
<text text-anchor="middle" x="328.86" y="-242.65" font-family="Helvetica,sans-Serif" font-size="8.00" fill="#4d4d4d">emploi</text>
</g>
<!-- pollution -->
<g id="node3" class="node">
<title>pollution</title>
<ellipse fill="#ec6726" stroke="white" stroke-width="0" cx="463.87" cy="-382.36" rx="25" ry="25"/>
<text text-anchor="middle" x="420.37" y="-409.96" font-family="Helvetica,sans-Serif" font-size="8.00" fill="#4d4d4d">pollution</text>
</g>
<!-- épuisement de la ressource -->
<g id="node4" class="node">
<title>épuisement de la ressource</title>
<ellipse fill="#71196e" stroke="white" stroke-width="0" cx="479.71" cy="-258.91" rx="11" ry="11"/>
<text text-anchor="middle" x="525.71" y="-241.51" font-family="Helvetica,sans-Serif" font-size="8.00" fill="#4d4d4d">épuisement de la ressource</text>
</g>
<!-- impact environnemental -->
<g id="node5" class="node">
<title>impact environnemental</title>
<ellipse fill="#fcffa4" stroke="white" stroke-width="0" cx="569.17" cy="-287.28" rx="36" ry="36"/>
<text text-anchor="middle" x="655.17" y="-325.88" font-family="Helvetica,sans-Serif" font-size="8.00" fill="#4d4d4d">impact environnemental</text>
</g>
<!-- développement -->
<g id="node6" class="node">
<title>développement</title>
<ellipse fill="#6d186e" stroke="white" stroke-width="0" cx="446.67" cy="-315.6" rx="11" ry="11"/>
<text text-anchor="middle" x="403.17" y="-329.2" font-family="Helvetica,sans-Serif" font-size="8.00" fill="#4d4d4d">développement</text>
</g>
<!-- économie du pays -->
<g id="node7" class="node">
<title>économie du pays</title>
<ellipse fill="#6d186e" stroke="white" stroke-width="0" cx="426.01" cy="-203.23" rx="11" ry="11"/>
<text text-anchor="middle" x="377.01" y="-194.83" font-family="Helvetica,sans-Serif" font-size="8.00" fill="#4d4d4d">économie du pays</text>
</g>
<!-- amélioration environnementale -->
<g id="node8" class="node">
<title>amélioration environnementale</title>
<ellipse fill="#c13a50" stroke="white" stroke-width="0" cx="324.47" cy="-322.96" rx="18" ry="18"/>
<text text-anchor="middle" x="241.97" y="-343.56" font-family="Helvetica,sans-Serif" font-size="8.00" fill="#4d4d4d">amélioration environnementale</text>
</g>
<!-- maintien de l’exploitation -->
<g id="node9" class="node">
<title>maintien de l’exploitation</title>
<ellipse fill="#240c4f" stroke="white" stroke-width="0" cx="336.82" cy="-163.22" rx="7" ry="7"/>
<text text-anchor="middle" x="277.82" y="-172.82" font-family="Helvetica,sans-Serif" font-size="8.00" fill="#4d4d4d">maintien de l’exploitation</text>
</g>
<!-- déclin -->
<g id="node10" class="node">
<title>déclin</title>
<ellipse fill="#320a5e" stroke="white" stroke-width="0" cx="536.93" cy="-330.71" rx="7" ry="7"/>
<text text-anchor="middle" x="517.43" y="-340.31" font-family="Helvetica,sans-Serif" font-size="8.00" fill="#4d4d4d">déclin</text>
</g>
<!-- exploitation -->
<g id="node11" class="node">
<title>exploitation</title>
<ellipse fill="#190c3e" stroke="white" stroke-width="0" cx="438.26" cy="-119.13" rx="3.5" ry="3.5"/>
<text text-anchor="middle" x="410.26" y="-125.23" font-family="Helvetica,sans-Serif" font-size="8.00" fill="#4d4d4d">exploitation</text>
</g>
<!-- procédé industriel -->
<g id="node12" class="node">
<title>procédé industriel</title>
<ellipse fill="#180c3c" stroke="white" stroke-width="0" cx="370.76" cy="-373.78" rx="3.5" ry="3.5"/>
<text text-anchor="middle" x="330.26" y="-379.88" font-family="Helvetica,sans-Serif" font-size="8.00" fill="#4d4d4d">procédé industriel</text>
</g>
<!-- conflit -->
<g id="node13" class="node">
<title>conflit</title>
<ellipse fill="#5f136e" stroke="white" stroke-width="0" cx="512.32" cy="-159.47" rx="11" ry="11"/>
<text text-anchor="middle" x="488.32" y="-173.07" font-family="Helvetica,sans-Serif" font-size="8.00" fill="#4d4d4d">conflit</text>
</g>
<!-- développement alternatif -->
<g id="node14" class="node">
<title>développement alternatif</title>
<ellipse fill="#0c0826" stroke="white" stroke-width="0" cx="190.4" cy="-73.72" rx="3.5" ry="3.5"/>
<text text-anchor="middle" x="134.4" y="-79.82" font-family="Helvetica,sans-Serif" font-size="8.00" fill="#4d4d4d">développement alternatif</text>
</g>
<!-- vision positive de la ressource -->
<g id="node15" class="node">
<title>vision positive de la ressource</title>
<ellipse fill="#3e0966" stroke="white" stroke-width="0" cx="492.65" cy="-209.18" rx="7" ry="7"/>
<text text-anchor="middle" x="547.65" y="-218.78" font-family="Helvetica,sans-Serif" font-size="8.00" fill="#4d4d4d">vision positive de la ressource</text>
</g>
<!-- famille -->
<g id="node16" class="node">
<title>famille</title>
<ellipse fill="#10092d" stroke="white" stroke-width="0" cx="284.47" cy="-4.34" rx="3.5" ry="3.5"/>
<text text-anchor="middle" x="266.97" y="-10.44" font-family="Helvetica,sans-Serif" font-size="8.00" fill="#4d4d4d">famille</text>
</g>
<!-- développement durable -->
<g id="node17" class="node">
<title>développement durable</title>
<ellipse fill="#6c186e" stroke="white" stroke-width="0" cx="403.51" cy="-301.9" rx="11" ry="11"/>
<text text-anchor="middle" x="343.01" y="-293.5" font-family="Helvetica,sans-Serif" font-size="8.00" fill="#4d4d4d">développement durable</text>
</g>
<!-- innovation -->
<g id="node18" class="node">
<title>innovation</title>
<ellipse fill="#85216b" stroke="white" stroke-width="0" cx="489.54" cy="-332.4" rx="14.5" ry="14.5"/>
<text text-anchor="middle" x="453.04" y="-349.5" font-family="Helvetica,sans-Serif" font-size="8.00" fill="#4d4d4d">innovation</text>
</g>
<!-- formation -->
<g id="node19" class="node">
<title>formation</title>
<ellipse fill="#050417" stroke="white" stroke-width="0" cx="257.58" cy="-288.94" rx="3.5" ry="3.5"/>
<text text-anchor="middle" x="234.08" y="-295.04" font-family="Helvetica,sans-Serif" font-size="8.00" fill="#4d4d4d">formation</text>
</g>
<!-- santé -->
<g id="node20" class="node">
<title>santé</title>
<ellipse fill="#040314" stroke="white" stroke-width="0" cx="230.94" cy="-352.76" rx="3.5" ry="3.5"/>
<text text-anchor="middle" x="215.44" y="-358.86" font-family="Helvetica,sans-Serif" font-size="8.00" fill="#4d4d4d">santé</text>
</g>
<!-- automatisation -->
<g id="node21" class="node">
<title>automatisation</title>
<ellipse fill="#2f0a5b" stroke="white" stroke-width="0" cx="349.74" cy="-278.23" rx="7" ry="7"/>
<text text-anchor="middle" x="311.24" y="-273.83" font-family="Helvetica,sans-Serif" font-size="8.00" fill="#4d4d4d">automatisation</text>
</g>
<!-- enjeu -->
<g id="node22" class="node">
<title>enjeu</title>
<ellipse fill="#010005" stroke="white" stroke-width="0" cx="681.29" cy="-98.46" rx="0.5" ry="0.5"/>
<text text-anchor="middle" x="668.79" y="-101.56" font-family="Helvetica,sans-Serif" font-size="8.00" fill="#4d4d4d">enjeu</text>
</g>
<!-- relation internationale -->
<g id="node23" class="node">
<title>relation internationale</title>
<ellipse fill="#150b37" stroke="white" stroke-width="0" cx="706.73" cy="-177.77" rx="3.5" ry="3.5"/>
<text text-anchor="middle" x="657.73" y="-183.87" font-family="Helvetica,sans-Serif" font-size="8.00" fill="#4d4d4d">relation internationale</text>
</g>
<!-- exploitation raisonnée -->
<g id="node24" class="node">
<title>exploitation raisonnée</title>
<ellipse fill="#08051d" stroke="white" stroke-width="0" cx="95.5" cy="-310.38" rx="3.5" ry="3.5"/>
<text text-anchor="middle" x="46" y="-316.48" font-family="Helvetica,sans-Serif" font-size="8.00" fill="#4d4d4d">exploitation raisonnée</text>
</g>
<!-- montagne -->
<g id="node25" class="node">
<title>montagne</title>
<ellipse fill="#180c3c" stroke="white" stroke-width="0" cx="679.79" cy="-462.53" rx="3.5" ry="3.5"/>
<text text-anchor="middle" x="654.79" y="-468.63" font-family="Helvetica,sans-Serif" font-size="8.00" fill="#4d4d4d">montagne</text>
</g>
<!-- biodiversité -->
<g id="node26" class="node">
<title>biodiversité</title>
<ellipse fill="#440a68" stroke="white" stroke-width="0" cx="682.71" cy="-377.96" rx="7" ry="7"/>
<text text-anchor="middle" x="651.21" y="-387.56" font-family="Helvetica,sans-Serif" font-size="8.00" fill="#4d4d4d">biodiversité</text>
</g>
<!-- inégalité -->
<g id="node27" class="node">
<title>inégalité</title>
<ellipse fill="#02020c" stroke="white" stroke-width="0" cx="435.27" cy="-628.55" rx="0.5" ry="0.5"/>
<text text-anchor="middle" x="416.27" y="-631.65" font-family="Helvetica,sans-Serif" font-size="8.00" fill="#4d4d4d">inégalité</text>
</g>
<!-- milieu -->
<g id="node28" class="node">
<title>milieu</title>
<ellipse fill="#180c3c" stroke="white" stroke-width="0" cx="640.22" cy="-304.7" rx="3.5" ry="3.5"/>
<text text-anchor="middle" x="624.22" y="-310.8" font-family="Helvetica,sans-Serif" font-size="8.00" fill="#4d4d4d">milieu</text>
</g>
<!-- avenir -->
<g id="node29" class="node">
<title>avenir</title>
<ellipse fill="#0c0826" stroke="white" stroke-width="0" cx="623.23" cy="-429.19" rx="3.5" ry="3.5"/>
<text text-anchor="middle" x="606.73" y="-435.29" font-family="Helvetica,sans-Serif" font-size="8.00" fill="#4d4d4d">avenir</text>
</g>
<!-- revenu -->
<g id="node30" class="node">
<title>revenu</title>
<ellipse fill="#140b34" stroke="white" stroke-width="0" cx="540.04" cy="-540" rx="3.5" ry="3.5"/>
<text text-anchor="middle" x="522.54" y="-546.1" font-family="Helvetica,sans-Serif" font-size="8.00" fill="#4d4d4d">revenu</text>
</g>
<!-- crise -->
<g id="node31" class="node">
<title>crise</title>
<ellipse fill="#0e092b" stroke="white" stroke-width="0" cx="617.53" cy="-515.72" rx="3.5" ry="3.5"/>
<text text-anchor="middle" x="604.03" y="-521.82" font-family="Helvetica,sans-Serif" font-size="8.00" fill="#4d4d4d">crise</text>
</g>
<!-- nuisance -->
<g id="node32" class="node">
<title>nuisance</title>
<ellipse fill="#02020c" stroke="white" stroke-width="0" cx="320.78" cy="-579.28" rx="0.5" ry="0.5"/>
<text text-anchor="middle" x="301.28" y="-582.38" font-family="Helvetica,sans-Serif" font-size="8.00" fill="#4d4d4d">nuisance</text>
</g>
<!-- richesse -->
<g id="node33" class="node">
<title>richesse</title>
<ellipse fill="#160b39" stroke="white" stroke-width="0" cx="551.94" cy="-413.1" rx="3.5" ry="3.5"/>
<text text-anchor="middle" x="530.94" y="-419.2" font-family="Helvetica,sans-Serif" font-size="8.00" fill="#4d4d4d">richesse</text>
</g>
<!-- croissance minière -->
<g id="node34" class="node">
<title>croissance minière</title>
<ellipse fill="#10092d" stroke="white" stroke-width="0" cx="513.18" cy="-476.8" rx="3.5" ry="3.5"/>
<text text-anchor="middle" x="471.68" y="-482.9" font-family="Helvetica,sans-Serif" font-size="8.00" fill="#4d4d4d">croissance minière</text>
</g>
<!-- coutume -->
<g id="node35" class="node">
<title>coutume</title>
<ellipse fill="#09061f" stroke="white" stroke-width="0" cx="611.29" cy="-39.24" rx="3.5" ry="3.5"/>
<text text-anchor="middle" x="589.29" y="-45.34" font-family="Helvetica,sans-Serif" font-size="8.00" fill="#4d4d4d">coutume</text>
</g>
<!-- production -->
<g id="node36" class="node">
<title>production</title>
<ellipse fill="#150b37" stroke="white" stroke-width="0" cx="879.95" cy="-325" rx="3.5" ry="3.5"/>
<text text-anchor="middle" x="854.45" y="-331.1" font-family="Helvetica,sans-Serif" font-size="8.00" fill="#4d4d4d">production</text>
</g>
<!-- sentiment négatif -->
<g id="node37" class="node">
<title>sentiment négatif</title>
<ellipse fill="#060419" stroke="white" stroke-width="0" cx="769.27" cy="-111.51" rx="3.5" ry="3.5"/>
<text text-anchor="middle" x="729.27" y="-117.61" font-family="Helvetica,sans-Serif" font-size="8.00" fill="#4d4d4d">sentiment négatif</text>
</g>
<!-- main d’oeuvre -->
<g id="node38" class="node">
<title>main d’oeuvre</title>
<ellipse fill="#040314" stroke="white" stroke-width="0" cx="772.84" cy="-277.98" rx="3.5" ry="3.5"/>
<text text-anchor="middle" x="740.34" y="-284.08" font-family="Helvetica,sans-Serif" font-size="8.00" fill="#4d4d4d">main d’oeuvre</text>
</g>
<!-- investissement -->
<g id="node39" class="node">
<title>investissement</title>
<ellipse fill="#040314" stroke="white" stroke-width="0" cx="422.48" cy="-469.97" rx="3.5" ry="3.5"/>
<text text-anchor="middle" x="387.48" y="-476.07" font-family="Helvetica,sans-Serif" font-size="8.00" fill="#4d4d4d">investissement</text>
</g>
<!-- danger -->
<g id="node40" class="node">
<title>danger</title>
<ellipse fill="#040312" stroke="white" stroke-width="0" cx="805.71" cy="-200.25" rx="3.5" ry="3.5"/>
<text text-anchor="middle" x="787.21" y="-206.35" font-family="Helvetica,sans-Serif" font-size="8.00" fill="#4d4d4d">danger</text>
</g>
<!-- transition -->
<g id="node41" class="node">
<title>transition</title>
<ellipse fill="#030210" stroke="white" stroke-width="0" cx="772.81" cy="-374.17" rx="0.5" ry="0.5"/>
<text text-anchor="middle" x="752.31" y="-377.27" font-family="Helvetica,sans-Serif" font-size="8.00" fill="#4d4d4d">transition</text>
</g>
<!-- indépendance -->
<g id="node42" class="node">
<title>indépendance</title>
<ellipse fill="#10092d" stroke="white" stroke-width="0" cx="458.5" cy="-3.5" rx="3.5" ry="3.5"/>
<text text-anchor="middle" x="425" y="-9.6" font-family="Helvetica,sans-Serif" font-size="8.00" fill="#4d4d4d">indépendance</text>
</g>
<!-- développement culturel -->
<g id="node43" class="node">
<title>développement culturel</title>
<ellipse fill="#040312" stroke="white" stroke-width="0" cx="132.92" cy="-445.52" rx="3.5" ry="3.5"/>
<text text-anchor="middle" x="80.92" y="-451.62" font-family="Helvetica,sans-Serif" font-size="8.00" fill="#4d4d4d">développement culturel</text>
</g>
<!-- minerai -->
<g id="node44" class="node">
<title>minerai</title>
<ellipse fill="#08051d" stroke="white" stroke-width="0" cx="1086.85" cy="-320.51" rx="3.5" ry="3.5"/>
<text text-anchor="middle" x="1067.85" y="-326.61" font-family="Helvetica,sans-Serif" font-size="8.00" fill="#4d4d4d">minerai</text>
</g>
<!-- métallurgie -->
<g id="node45" class="node">
<title>métallurgie</title>
<ellipse fill="#000004" stroke="white" stroke-width="0" cx="1233.61" cy="-297.23" rx="0.5" ry="0.5"/>
<text text-anchor="middle" x="1209.61" y="-300.33" font-family="Helvetica,sans-Serif" font-size="8.00" fill="#4d4d4d">métallurgie</text>
</g>
<!-- condition de travail -->
<g id="node46" class="node">
<title>condition de travail</title>
<ellipse fill="#02010a" stroke="white" stroke-width="0" cx="1009.75" cy="-135.5" rx="0.5" ry="0.5"/>
<text text-anchor="middle" x="969.75" y="-138.6" font-family="Helvetica,sans-Serif" font-size="8.00" fill="#4d4d4d">condition de travail</text>
</g>
<!-- bien de consommation -->
<g id="node47" class="node">
<title>bien de consommation</title>
<ellipse fill="#060419" stroke="white" stroke-width="0" cx="887.5" cy="-135.5" rx="3.5" ry="3.5"/>
<text text-anchor="middle" x="837" y="-141.6" font-family="Helvetica,sans-Serif" font-size="8.00" fill="#4d4d4d">bien de consommation</text>
</g>
</g>
</svg>
