<?xml version="1.0" encoding="UTF-8" standalone="no"?>
<!DOCTYPE svg PUBLIC "-//W3C//DTD SVG 1.1//EN"
 "http://www.w3.org/Graphics/SVG/1.1/DTD/svg11.dtd">
<!-- Generated by graphviz version 2.43.0 (0)
 -->
<!-- Pages: 1 -->
<svg width="842pt" height="235pt"
 viewBox="0.00 0.00 842.20 235.14" xmlns="http://www.w3.org/2000/svg" xmlns:xlink="http://www.w3.org/1999/xlink">
<g id="graph0" class="graph" transform="scale(1 1) rotate(0) translate(4 231.14)">
<polygon fill="white" stroke="transparent" points="-4,4 -4,-231.14 838.2,-231.14 838.2,4 -4,4"/>
<!-- fin&#45;&#45;pollution -->
<g id="edge1" class="edge">
<title>fin&#45;&#45;pollution</title>
<path fill="none" stroke="darkgrey" stroke-width="1.38" d="M387.46,-29.33C387.37,-38.85 387.24,-52.83 387.12,-65"/>
</g>
<!-- fin&#45;&#45;impact environnemental -->
<g id="edge2" class="edge">
<title>fin&#45;&#45;impact environnemental</title>
<path fill="none" stroke="darkgrey" stroke-width="1.66" d="M394.1,-27.26C402.92,-39.7 419.05,-62.44 432.23,-81.03"/>
</g>
<!-- pollution&#45;&#45;impact environnemental -->
<g id="edge9" class="edge">
<title>pollution&#45;&#45;impact environnemental</title>
<path fill="none" stroke="darkgrey" stroke-width="10" d="M410.82,-97.6C413.34,-98.37 415.94,-99.17 418.56,-99.97"/>
</g>
<!-- pollution&#45;&#45;économie du pays -->
<g id="edge11" class="edge">
<title>pollution&#45;&#45;économie du pays</title>
<path fill="none" stroke="darkgrey" stroke-width="2.27" d="M390.47,-115.01C393.77,-137.65 398.49,-170.11 400.94,-186.99"/>
</g>
<!-- pollution&#45;&#45;amélioration environnementale -->
<g id="edge12" class="edge">
<title>pollution&#45;&#45;amélioration environnementale</title>
<path fill="none" stroke="darkgrey" stroke-width="1.37" d="M366.31,-105.05C358.9,-110.38 350.69,-116.29 343.86,-121.2"/>
</g>
<!-- pollution&#45;&#45;épuisement de la ressource -->
<g id="edge7" class="edge">
<title>pollution&#45;&#45;épuisement de la ressource</title>
<path fill="none" stroke="darkgrey" stroke-width="3.12" d="M409.14,-78.03C429.3,-66.95 458.06,-51.16 473,-42.95"/>
</g>
<!-- pollution&#45;&#45;biodiversité -->
<g id="edge8" class="edge">
<title>pollution&#45;&#45;biodiversité</title>
<path fill="none" stroke="darkgrey" stroke-width="1.01" d="M367.32,-73.94C341.2,-52.15 296.9,-15.18 285.6,-5.74"/>
</g>
<!-- pollution&#45;&#45;développement -->
<g id="edge10" class="edge">
<title>pollution&#45;&#45;développement</title>
<path fill="none" stroke="darkgrey" stroke-width="1.42" d="M399.72,-111.84C411.6,-131.79 428.71,-160.55 437.6,-175.5"/>
</g>
<!-- impact environnemental&#45;&#45;économie du pays -->
<g id="edge17" class="edge">
<title>impact environnemental&#45;&#45;économie du pays</title>
<path fill="none" stroke="darkgrey" stroke-width="3.31" d="M434.91,-142.2C425.51,-158.46 414.7,-177.15 408.26,-188.29"/>
</g>
<!-- impact environnemental&#45;&#45;amélioration environnementale -->
<g id="edge18" class="edge">
<title>impact environnemental&#45;&#45;amélioration environnementale</title>
<path fill="none" stroke="darkgrey" stroke-width="2.06" d="M417.61,-116.7C394.53,-120.65 365.43,-125.65 347.01,-128.8"/>
</g>
<!-- impact environnemental&#45;&#45;développement -->
<g id="edge16" class="edge">
<title>impact environnemental&#45;&#45;développement</title>
<path fill="none" stroke="darkgrey" stroke-width="2.52" d="M448.51,-146.67C447.21,-156.68 445.89,-166.82 444.94,-174.21"/>
</g>
<!-- impact environnemental&#45;&#45;conflit -->
<g id="edge15" class="edge">
<title>impact environnemental&#45;&#45;conflit</title>
<path fill="none" stroke="darkgrey" stroke-width="3.22" d="M482.68,-89.59C505.51,-73.34 535.26,-52.16 547.56,-43.39"/>
</g>
<!-- impact environnemental&#45;&#45;richesse -->
<g id="edge19" class="edge">
<title>impact environnemental&#45;&#45;richesse</title>
<path fill="none" stroke="darkgrey" d="M486.42,-124.92C518.22,-138.64 562.14,-157.59 567.5,-159.9"/>
</g>
<!-- emploi&#45;&#45;pollution -->
<g id="edge3" class="edge">
<title>emploi&#45;&#45;pollution</title>
<path fill="none" stroke="darkgrey" stroke-width="4.45" d="M380.29,-137.2C381.24,-130.43 382.34,-122.62 383.36,-115.34"/>
</g>
<!-- emploi&#45;&#45;impact environnemental -->
<g id="edge4" class="edge">
<title>emploi&#45;&#45;impact environnemental</title>
<path fill="none" stroke="darkgrey" stroke-width="4.39" d="M393.38,-146.06C401.67,-141.15 412.15,-134.93 422.02,-129.08"/>
</g>
<!-- emploi&#45;&#45;économie du pays -->
<g id="edge5" class="edge">
<title>emploi&#45;&#45;économie du pays</title>
<path fill="none" stroke="darkgrey" stroke-width="2.46" d="M386.99,-171.27C390.3,-176.97 393.92,-183.23 396.84,-188.28"/>
</g>
<!-- emploi&#45;&#45;amélioration environnementale -->
<g id="edge6" class="edge">
<title>emploi&#45;&#45;amélioration environnementale</title>
<path fill="none" stroke="darkgrey" stroke-width="2.78" d="M361.52,-147.53C356.31,-145.02 350.54,-142.25 345.33,-139.74"/>
</g>
<!-- amélioration environnementale&#45;&#45;développement durable -->
<g id="edge21" class="edge">
<title>amélioration environnementale&#45;&#45;développement durable</title>
<path fill="none" stroke="darkgrey" stroke-width="1.41" d="M311.85,-138.15C296.79,-143.64 275.64,-151.35 264.94,-155.25"/>
</g>
<!-- épuisement de la ressource&#45;&#45;impact environnemental -->
<g id="edge13" class="edge">
<title>épuisement de la ressource&#45;&#45;impact environnemental</title>
<path fill="none" stroke="darkgrey" stroke-width="3.59" d="M478.62,-48C475.51,-55.65 471.11,-66.49 466.84,-77.01"/>
</g>
<!-- épuisement de la ressource&#45;&#45;conflit -->
<g id="edge14" class="edge">
<title>épuisement de la ressource&#45;&#45;conflit</title>
<path fill="none" stroke="darkgrey" stroke-width="1.01" d="M493.87,-37.81C508.41,-38.18 533.63,-38.82 546.01,-39.14"/>
</g>
<!-- développement&#45;&#45;économie du pays -->
<g id="edge20" class="edge">
<title>développement&#45;&#45;économie du pays</title>
<path fill="none" stroke="darkgrey" stroke-width="1.03" d="M432.73,-188.73C426.67,-190.62 419.13,-192.97 413.1,-194.85"/>
</g>
<!-- fin -->
<g id="node1" class="node">
<title>fin</title>
<ellipse fill="#71196e" stroke="white" stroke-width="0" cx="387.57" cy="-18.05" rx="11" ry="11"/>
<text text-anchor="middle" x="365.57" y="-33.61" font-family="Helvetica,sans-Serif" font-size="16.80" fill="#4d4d4d">fin</text>
</g>
<!-- pollution -->
<g id="node2" class="node">
<title>pollution</title>
<ellipse fill="#eb6628" stroke="white" stroke-width="0" cx="386.88" cy="-90.26" rx="25" ry="25"/>
<text text-anchor="middle" x="310.38" y="-72.7" font-family="Helvetica,sans-Serif" font-size="23.20" fill="#4d4d4d">pollution</text>
</g>
<!-- impact environnemental -->
<g id="node3" class="node">
<title>impact environnemental</title>
<ellipse fill="#fcffa4" stroke="white" stroke-width="0" cx="453.2" cy="-110.59" rx="36" ry="36"/>
<text text-anchor="middle" x="661.7" y="-83.19" font-family="Helvetica,sans-Serif" font-size="28.00" fill="#4d4d4d">impact environnemental</text>
</g>
<!-- emploi -->
<g id="node4" class="node">
<title>emploi</title>
<ellipse fill="#b1325a" stroke="white" stroke-width="0" cx="377.75" cy="-155.33" rx="18" ry="18"/>
<text text-anchor="middle" x="326.25" y="-179.33" font-family="Helvetica,sans-Serif" font-size="20.00" fill="#4d4d4d">emploi</text>
</g>
<!-- économie du pays -->
<g id="node5" class="node">
<title>économie du pays</title>
<ellipse fill="#59106e" stroke="white" stroke-width="0" cx="402.56" cy="-198.14" rx="11" ry="11"/>
<text text-anchor="middle" x="314.56" y="-213.7" font-family="Helvetica,sans-Serif" font-size="16.80" fill="#4d4d4d">économie du pays</text>
</g>
<!-- amélioration environnementale -->
<g id="node6" class="node">
<title>amélioration environnementale</title>
<ellipse fill="#ae305c" stroke="white" stroke-width="0" cx="329" cy="-131.89" rx="18" ry="18"/>
<text text-anchor="middle" x="155.5" y="-119.89" font-family="Helvetica,sans-Serif" font-size="20.00" fill="#4d4d4d">amélioration environnementale</text>
</g>
<!-- épuisement de la ressource -->
<g id="node7" class="node">
<title>épuisement de la ressource</title>
<ellipse fill="#5d126e" stroke="white" stroke-width="0" cx="482.87" cy="-37.53" rx="11" ry="11"/>
<text text-anchor="middle" x="589.37" y="-53.09" font-family="Helvetica,sans-Serif" font-size="16.80" fill="#4d4d4d">épuisement de la ressource</text>
</g>
<!-- biodiversité -->
<g id="node8" class="node">
<title>biodiversité</title>
<ellipse fill="#0e092b" stroke="white" stroke-width="0" cx="282.91" cy="-3.5" rx="3.5" ry="3.5"/>
<text text-anchor="middle" x="239.41" y="-11.12" font-family="Helvetica,sans-Serif" font-size="13.60" fill="#4d4d4d">biodiversité</text>
</g>
<!-- développement -->
<g id="node9" class="node">
<title>développement</title>
<ellipse fill="#550f6d" stroke="white" stroke-width="0" cx="443.48" cy="-185.38" rx="11" ry="11"/>
<text text-anchor="middle" x="498.98" y="-200.94" font-family="Helvetica,sans-Serif" font-size="16.80" fill="#4d4d4d">développement</text>
</g>
<!-- conflit -->
<g id="node10" class="node">
<title>conflit</title>
<ellipse fill="#420a68" stroke="white" stroke-width="0" cx="553.28" cy="-39.32" rx="7" ry="7"/>
<text text-anchor="middle" x="522.28" y="-20.16" font-family="Helvetica,sans-Serif" font-size="15.20" fill="#4d4d4d">conflit</text>
</g>
<!-- richesse -->
<g id="node11" class="node">
<title>richesse</title>
<ellipse fill="#000004" stroke="white" stroke-width="0" cx="568.05" cy="-160.14" rx="0.5" ry="0.5"/>
<text text-anchor="middle" x="542.55" y="-164.04" font-family="Helvetica,sans-Serif" font-size="12.00" fill="#4d4d4d">richesse</text>
</g>
<!-- développement durable -->
<g id="node12" class="node">
<title>développement durable</title>
<ellipse fill="#490b6a" stroke="white" stroke-width="0" cx="258.17" cy="-157.72" rx="7" ry="7"/>
<text text-anchor="middle" x="160.67" y="-169.56" font-family="Helvetica,sans-Serif" font-size="15.20" fill="#4d4d4d">développement durable</text>
</g>
</g>
</svg>
