<?xml version="1.0" encoding="UTF-8" standalone="no"?>
<!DOCTYPE svg PUBLIC "-//W3C//DTD SVG 1.1//EN"
 "http://www.w3.org/Graphics/SVG/1.1/DTD/svg11.dtd">
<!-- Generated by graphviz version 2.43.0 (0)
 -->
<!-- Pages: 1 -->
<svg width="946pt" height="766pt"
 viewBox="0.00 0.00 946.42 765.87" xmlns="http://www.w3.org/2000/svg" xmlns:xlink="http://www.w3.org/1999/xlink">
<g id="graph0" class="graph" transform="scale(1 1) rotate(0) translate(4 761.87)">
<polygon fill="white" stroke="transparent" points="-4,4 -4,-761.87 942.42,-761.87 942.42,4 -4,4"/>
<!-- pollution&#45;&#45;emploi -->
<g id="edge1" class="edge">
<title>pollution&#45;&#45;emploi</title>
<path fill="none" stroke="darkgrey" stroke-width="10" d="M437.01,-448.88C437,-448.74 437,-448.6 437,-448.47"/>
</g>
<!-- pollution&#45;&#45;richesse -->
<g id="edge2" class="edge">
<title>pollution&#45;&#45;richesse</title>
<path fill="none" stroke="darkgrey" stroke-width="2.75" d="M422.96,-503.99C401.44,-543.24 361.39,-616.28 346.85,-642.8"/>
</g>
<!-- pollution&#45;&#45;démolition -->
<g id="edge3" class="edge">
<title>pollution&#45;&#45;démolition</title>
<path fill="none" stroke="darkgrey" stroke-width="3.06" d="M442.87,-507.02C453.96,-562.05 477.6,-679.4 483.68,-709.61"/>
</g>
<!-- pollution&#45;&#45;argent -->
<g id="edge4" class="edge">
<title>pollution&#45;&#45;argent</title>
<path fill="none" stroke="darkgrey" stroke-width="2.44" d="M416.77,-457.38C366.1,-405.32 235.76,-271.42 202.03,-236.77"/>
</g>
<!-- pollution&#45;&#45;nickel -->
<g id="edge5" class="edge">
<title>pollution&#45;&#45;nickel</title>
<path fill="none" stroke="darkgrey" stroke-width="6.32" d="M411.07,-465.17C398.16,-458.68 382.52,-450.82 369.2,-444.12"/>
</g>
<!-- pollution&#45;&#45;nature -->
<g id="edge6" class="edge">
<title>pollution&#45;&#45;nature</title>
<path fill="none" stroke="darkgrey" stroke-width="1.09" d="M460.52,-460.95C529.75,-409.89 729.26,-262.72 741.67,-253.57"/>
</g>
<!-- pollution&#45;&#45;exploitation -->
<g id="edge7" class="edge">
<title>pollution&#45;&#45;exploitation</title>
<path fill="none" stroke="darkgrey" stroke-width="2.36" d="M410.83,-490.99C378.45,-506.72 324.65,-532.85 299.77,-544.94"/>
</g>
<!-- pollution&#45;&#45;montagne -->
<g id="edge8" class="edge">
<title>pollution&#45;&#45;montagne</title>
<path fill="none" stroke="darkgrey" stroke-width="2" d="M408.42,-483.88C337.55,-497.83 156.98,-533.38 118.32,-540.98"/>
</g>
<!-- pollution&#45;&#45;camion -->
<g id="edge9" class="edge">
<title>pollution&#45;&#45;camion</title>
<path fill="none" stroke="darkgrey" stroke-width="2.73" d="M408.58,-471.52C356.95,-459.33 250.08,-434.1 215.63,-425.97"/>
</g>
<!-- pollution&#45;&#45;économie -->
<g id="edge10" class="edge">
<title>pollution&#45;&#45;économie</title>
<path fill="none" stroke="darkgrey" stroke-width="5.43" d="M416.48,-498.9C400.35,-515.08 378.42,-537.08 364.74,-550.8"/>
</g>
<!-- pollution&#45;&#45;impact environnemental -->
<g id="edge11" class="edge">
<title>pollution&#45;&#45;impact environnemental</title>
<path fill="none" stroke="darkgrey" stroke-width="4.52" d="M448,-505.49C452.67,-517.15 458.03,-530.52 462.34,-541.27"/>
</g>
<!-- pollution&#45;&#45;terre rouge -->
<g id="edge12" class="edge">
<title>pollution&#45;&#45;terre rouge</title>
<path fill="none" stroke="darkgrey" stroke-width="1.07" d="M448.02,-451.11C473.72,-387.38 536.52,-231.64 546.65,-206.52"/>
</g>
<!-- pollution&#45;&#45;terre -->
<g id="edge13" class="edge">
<title>pollution&#45;&#45;terre</title>
<path fill="none" stroke="darkgrey" stroke-width="1.76" d="M408.29,-482.3C353.25,-490.05 235.85,-506.58 205.64,-510.84"/>
</g>
<!-- pollution&#45;&#45;usine -->
<g id="edge14" class="edge">
<title>pollution&#45;&#45;usine</title>
<path fill="none" stroke="darkgrey" stroke-width="2.43" d="M416.28,-498.6C372.22,-541.72 271.57,-640.23 247.84,-663.46"/>
</g>
<!-- pollution&#45;&#45;érosion -->
<g id="edge15" class="edge">
<title>pollution&#45;&#45;érosion</title>
<path fill="none" stroke="darkgrey" stroke-width="1.2" d="M465.88,-482.22C548.51,-493.62 781.34,-525.73 795.81,-527.73"/>
</g>
<!-- pollution&#45;&#45;sln -->
<g id="edge16" class="edge">
<title>pollution&#45;&#45;sln</title>
<path fill="none" stroke="darkgrey" stroke-width="1.32" d="M426.23,-451.29C406.1,-401.24 363.97,-296.51 352.83,-268.81"/>
</g>
<!-- pollution&#45;&#45;ressource -->
<g id="edge17" class="edge">
<title>pollution&#45;&#45;ressource</title>
<path fill="none" stroke="darkgrey" stroke-width="1.66" d="M428.84,-506.09C411.7,-564.06 372.98,-694.98 363.57,-726.8"/>
</g>
<!-- pollution&#45;&#45;conflit -->
<g id="edge18" class="edge">
<title>pollution&#45;&#45;conflit</title>
<path fill="none" stroke="darkgrey" stroke-width="2.31" d="M413.52,-460.89C379.66,-435.93 319.19,-391.37 300.27,-377.42"/>
</g>
<!-- pollution&#45;&#45;développement -->
<g id="edge19" class="edge">
<title>pollution&#45;&#45;développement</title>
<path fill="none" stroke="darkgrey" stroke-width="2.08" d="M465.36,-471.73C530.89,-456.64 689.5,-420.1 715.08,-414.21"/>
</g>
<!-- pollution&#45;&#45;minerai -->
<g id="edge20" class="edge">
<title>pollution&#45;&#45;minerai</title>
<path fill="none" stroke="darkgrey" stroke-width="2.38" d="M411.46,-491.98C358.44,-520.4 238.66,-584.61 203.4,-603.52"/>
</g>
<!-- pollution&#45;&#45;déforestation -->
<g id="edge21" class="edge">
<title>pollution&#45;&#45;déforestation</title>
<path fill="none" stroke="darkgrey" stroke-width="1.84" d="M455.33,-501.31C491.35,-546.84 569.34,-645.4 583.65,-663.48"/>
</g>
<!-- emploi&#45;&#45;richesse -->
<g id="edge22" class="edge">
<title>emploi&#45;&#45;richesse</title>
<path fill="none" stroke="darkgrey" stroke-width="3.58" d="M423.53,-446.24C401.56,-501.49 358.93,-608.67 345.53,-642.36"/>
</g>
<!-- emploi&#45;&#45;démolition -->
<g id="edge23" class="edge">
<title>emploi&#45;&#45;démolition</title>
<path fill="none" stroke="darkgrey" stroke-width="3.08" d="M442.59,-448.39C453.84,-519.38 478.38,-674.23 483.98,-709.54"/>
</g>
<!-- emploi&#45;&#45;argent -->
<g id="edge24" class="edge">
<title>emploi&#45;&#45;argent</title>
<path fill="none" stroke="darkgrey" stroke-width="3.05" d="M408.09,-390.75C353.29,-349.22 236.55,-260.75 203.1,-235.4"/>
</g>
<!-- emploi&#45;&#45;nickel -->
<g id="edge25" class="edge">
<title>emploi&#45;&#45;nickel</title>
<path fill="none" stroke="darkgrey" stroke-width="7.75" d="M401.4,-418.78C391.89,-420.44 381.67,-422.22 372.36,-423.84"/>
</g>
<!-- emploi&#45;&#45;nature -->
<g id="edge26" class="edge">
<title>emploi&#45;&#45;nature</title>
<path fill="none" stroke="darkgrey" stroke-width="1.08" d="M469.02,-395.83C544.97,-356.16 730.21,-259.42 741.71,-253.41"/>
</g>
<!-- emploi&#45;&#45;exploitation -->
<g id="edge27" class="edge">
<title>emploi&#45;&#45;exploitation</title>
<path fill="none" stroke="darkgrey" stroke-width="3.11" d="M410.35,-437.1C376.77,-468.08 320.5,-519.98 297.1,-541.56"/>
</g>
<!-- emploi&#45;&#45;montagne -->
<g id="edge28" class="edge">
<title>emploi&#45;&#45;montagne</title>
<path fill="none" stroke="darkgrey" stroke-width="1.48" d="M403.26,-426C328.77,-455.67 153.66,-525.43 117.55,-539.81"/>
</g>
<!-- emploi&#45;&#45;camion -->
<g id="edge29" class="edge">
<title>emploi&#45;&#45;camion</title>
<path fill="none" stroke="darkgrey" stroke-width="2.31" d="M400.88,-414.27C347.12,-416.77 248.69,-421.34 215.75,-422.87"/>
</g>
<!-- emploi&#45;&#45;économie -->
<g id="edge30" class="edge">
<title>emploi&#45;&#45;économie</title>
<path fill="none" stroke="darkgrey" stroke-width="6.62" d="M419.11,-444.25C401.31,-475.9 374.66,-523.28 360.91,-547.73"/>
</g>
<!-- emploi&#45;&#45;impact environnemental -->
<g id="edge31" class="edge">
<title>emploi&#45;&#45;impact environnemental</title>
<path fill="none" stroke="darkgrey" stroke-width="6.27" d="M444.86,-447.87C451.32,-476.59 460.23,-516.17 465.65,-540.22"/>
</g>
<!-- emploi&#45;&#45;terre rouge -->
<g id="edge33" class="edge">
<title>emploi&#45;&#45;terre rouge</title>
<path fill="none" stroke="darkgrey" stroke-width="1.78" d="M453.8,-380.77C481.85,-327.88 536.01,-225.75 546.33,-206.31"/>
</g>
<!-- emploi&#45;&#45;terre -->
<g id="edge35" class="edge">
<title>emploi&#45;&#45;terre</title>
<path fill="none" stroke="darkgrey" stroke-width="2.06" d="M403.51,-426.5C346.33,-450.3 233.15,-497.4 204.92,-509.15"/>
</g>
<!-- emploi&#45;&#45;usine -->
<g id="edge36" class="edge">
<title>emploi&#45;&#45;usine</title>
<path fill="none" stroke="darkgrey" stroke-width="1.91" d="M415.02,-441.44C370,-500.77 269.38,-633.35 247.16,-662.63"/>
</g>
<!-- emploi&#45;&#45;érosion -->
<g id="edge37" class="edge">
<title>emploi&#45;&#45;érosion</title>
<path fill="none" stroke="darkgrey" stroke-width="1.15" d="M471.4,-423.64C558.59,-451.58 781.97,-523.16 795.84,-527.61"/>
</g>
<!-- emploi&#45;&#45;sln -->
<g id="edge38" class="edge">
<title>emploi&#45;&#45;sln</title>
<path fill="none" stroke="darkgrey" stroke-width="1.93" d="M418.92,-381.39C397.86,-344.85 364.47,-286.93 353.61,-268.1"/>
</g>
<!-- emploi&#45;&#45;ressource -->
<g id="edge39" class="edge">
<title>emploi&#45;&#45;ressource</title>
<path fill="none" stroke="darkgrey" stroke-width="2.16" d="M428.63,-447.9C411.17,-522.23 371.55,-691 363.08,-727.03"/>
</g>
<!-- emploi&#45;&#45;conflit -->
<g id="edge41" class="edge">
<title>emploi&#45;&#45;conflit</title>
<path fill="none" stroke="darkgrey" stroke-width="3.29" d="M402.06,-402.94C368.12,-393.53 319.11,-379.96 301.26,-375.01"/>
</g>
<!-- emploi&#45;&#45;développement -->
<g id="edge42" class="edge">
<title>emploi&#45;&#45;développement</title>
<path fill="none" stroke="darkgrey" stroke-width="1.69" d="M473.16,-412.7C542.7,-412.9 690.17,-413.32 715,-413.39"/>
</g>
<!-- emploi&#45;&#45;minerai -->
<g id="edge43" class="edge">
<title>emploi&#45;&#45;minerai</title>
<path fill="none" stroke="darkgrey" stroke-width="1.86" d="M408.51,-435.49C353.57,-479.78 235.24,-575.16 202.19,-601.81"/>
</g>
<!-- emploi&#45;&#45;déforestation -->
<g id="edge44" class="edge">
<title>emploi&#45;&#45;déforestation</title>
<path fill="none" stroke="darkgrey" stroke-width="2.06" d="M455.19,-443.71C491.56,-505.65 570.67,-640.39 584,-663.09"/>
</g>
<!-- emploi&#45;&#45;roche -->
<g id="edge32" class="edge">
<title>emploi&#45;&#45;roche</title>
<path fill="none" stroke="darkgrey" stroke-width="1.38" d="M400.93,-414.86C318.35,-420.06 118.58,-432.63 69.18,-435.73"/>
</g>
<!-- emploi&#45;&#45;industrie -->
<g id="edge34" class="edge">
<title>emploi&#45;&#45;industrie</title>
<path fill="none" stroke="darkgrey" stroke-width="1.18" d="M456.99,-382.29C518.53,-289.35 701,-13.83 709.52,-0.97"/>
</g>
<!-- emploi&#45;&#45;main d’oeuvre -->
<g id="edge40" class="edge">
<title>emploi&#45;&#45;main d’oeuvre</title>
<path fill="none" stroke="darkgrey" stroke-width="1.01" d="M434.18,-376.46C427.85,-293.14 412.62,-92.39 410.4,-63.06"/>
</g>
<!-- emploi&#45;&#45;exportation -->
<g id="edge45" class="edge">
<title>emploi&#45;&#45;exportation</title>
<path fill="none" stroke="darkgrey" stroke-width="1.29" d="M465.97,-434.6C509.49,-467.56 588.3,-527.26 605.02,-539.92"/>
</g>
<!-- richesse&#45;&#45;démolition -->
<g id="edge46" class="edge">
<title>richesse&#45;&#45;démolition</title>
<path fill="none" stroke="darkgrey" stroke-width="1.2" d="M351.73,-657.35C379.67,-669.81 456.09,-703.87 478.73,-713.96"/>
</g>
<!-- richesse&#45;&#45;nickel -->
<g id="edge47" class="edge">
<title>richesse&#45;&#45;nickel</title>
<path fill="none" stroke="darkgrey" stroke-width="2.47" d="M341.33,-641.67C341.13,-609.2 340.55,-513.31 340.25,-462.28"/>
</g>
<!-- richesse&#45;&#45;exploitation -->
<g id="edge48" class="edge">
<title>richesse&#45;&#45;exploitation</title>
<path fill="none" stroke="darkgrey" stroke-width="1.34" d="M336.12,-643.03C326.18,-624.71 304.64,-585.03 293.46,-564.43"/>
</g>
<!-- richesse&#45;&#45;économie -->
<g id="edge49" class="edge">
<title>richesse&#45;&#45;économie</title>
<path fill="none" stroke="darkgrey" stroke-width="1.83" d="M342.69,-641.81C344.47,-626.84 347.69,-599.76 349.83,-581.72"/>
</g>
<!-- richesse&#45;&#45;impact environnemental -->
<g id="edge50" class="edge">
<title>richesse&#45;&#45;impact environnemental</title>
<path fill="none" stroke="darkgrey" stroke-width="2.66" d="M350.68,-646.18C372.06,-631.05 425.07,-593.54 452.83,-573.9"/>
</g>
<!-- richesse&#45;&#45;terre -->
<g id="edge51" class="edge">
<title>richesse&#45;&#45;terre</title>
<path fill="none" stroke="darkgrey" stroke-width="1.24" d="M333.3,-644.77C307.07,-618.92 224.91,-537.95 203.55,-516.9"/>
</g>
<!-- richesse&#45;&#45;usine -->
<g id="edge52" class="edge">
<title>richesse&#45;&#45;usine</title>
<path fill="none" stroke="darkgrey" stroke-width="1.06" d="M330.46,-654.48C310.1,-657.72 266.88,-664.59 249.86,-667.3"/>
</g>
<!-- richesse&#45;&#45;conflit -->
<g id="edge53" class="edge">
<title>richesse&#45;&#45;conflit</title>
<path fill="none" stroke="darkgrey" stroke-width="1.05" d="M339.56,-641.78C331.82,-595.74 302.07,-418.6 295.66,-380.41"/>
</g>
<!-- démolition&#45;&#45;nickel -->
<g id="edge54" class="edge">
<title>démolition&#45;&#45;nickel</title>
<path fill="none" stroke="darkgrey" stroke-width="1.66" d="M481.97,-710.54C465.35,-677.63 387.71,-523.86 354.82,-458.73"/>
</g>
<!-- démolition&#45;&#45;économie -->
<g id="edge55" class="edge">
<title>démolition&#45;&#45;économie</title>
<path fill="none" stroke="darkgrey" stroke-width="1.34" d="M480.39,-711.36C461.59,-689.71 391.86,-609.48 363.8,-577.18"/>
</g>
<!-- démolition&#45;&#45;impact environnemental -->
<g id="edge56" class="edge">
<title>démolition&#45;&#45;impact environnemental</title>
<path fill="none" stroke="darkgrey" stroke-width="1.38" d="M484.46,-709.73C482.36,-687.53 475.84,-618.64 472.48,-583.12"/>
</g>
<!-- argent&#45;&#45;nickel -->
<g id="edge57" class="edge">
<title>argent&#45;&#45;nickel</title>
<path fill="none" stroke="darkgrey" stroke-width="2.87" d="M200.63,-237.64C221.72,-266.67 287.66,-357.39 320.73,-402.89"/>
</g>
<!-- argent&#45;&#45;camion -->
<g id="edge58" class="edge">
<title>argent&#45;&#45;camion</title>
<path fill="none" stroke="darkgrey" stroke-width="1.02" d="M194.58,-239.52C196.45,-273.66 202.15,-377.35 204.05,-411.99"/>
</g>
<!-- nickel&#45;&#45;exploitation -->
<g id="edge59" class="edge">
<title>nickel&#45;&#45;exploitation</title>
<path fill="none" stroke="darkgrey" stroke-width="3.66" d="M326.93,-459.3C315.88,-484.41 300.6,-519.14 292.32,-537.98"/>
</g>
<!-- nickel&#45;&#45;montagne -->
<g id="edge60" class="edge">
<title>nickel&#45;&#45;montagne</title>
<path fill="none" stroke="darkgrey" stroke-width="2.77" d="M310.57,-444C256.68,-470.58 145.22,-525.54 117.38,-539.27"/>
</g>
<!-- nickel&#45;&#45;camion -->
<g id="edge61" class="edge">
<title>nickel&#45;&#45;camion</title>
<path fill="none" stroke="darkgrey" stroke-width="4.17" d="M307.28,-428C277.54,-426.66 235.43,-424.77 215.69,-423.88"/>
</g>
<!-- nickel&#45;&#45;économie -->
<g id="edge62" class="edge">
<title>nickel&#45;&#45;économie</title>
<path fill="none" stroke="darkgrey" stroke-width="4.87" d="M342.94,-461.93C345.27,-488.14 348.47,-524.05 350.37,-545.43"/>
</g>
<!-- nickel&#45;&#45;impact environnemental -->
<g id="edge63" class="edge">
<title>nickel&#45;&#45;impact environnemental</title>
<path fill="none" stroke="darkgrey" stroke-width="4.33" d="M363.06,-452.76C389.52,-479.55 432.24,-522.79 454.99,-545.83"/>
</g>
<!-- nickel&#45;&#45;terre rouge -->
<g id="edge65" class="edge">
<title>nickel&#45;&#45;terre rouge</title>
<path fill="none" stroke="darkgrey" stroke-width="2.39" d="M362.31,-405.24C411.56,-351.63 526.9,-226.08 545.49,-205.85"/>
</g>
<!-- nickel&#45;&#45;terre -->
<g id="edge66" class="edge">
<title>nickel&#45;&#45;terre</title>
<path fill="none" stroke="darkgrey" stroke-width="2.11" d="M311.73,-445.94C277.67,-465.76 222.79,-497.69 204.54,-508.3"/>
</g>
<!-- nickel&#45;&#45;usine -->
<g id="edge67" class="edge">
<title>nickel&#45;&#45;usine</title>
<path fill="none" stroke="darkgrey" stroke-width="3.43" d="M327.73,-459.73C304.92,-515.74 257.37,-632.53 245.49,-661.71"/>
</g>
<!-- nickel&#45;&#45;sln -->
<g id="edge68" class="edge">
<title>nickel&#45;&#45;sln</title>
<path fill="none" stroke="darkgrey" stroke-width="3.56" d="M342.01,-396.77C344.42,-356.41 348.37,-290.45 349.66,-268.97"/>
</g>
<!-- nickel&#45;&#45;ressource -->
<g id="edge69" class="edge">
<title>nickel&#45;&#45;ressource</title>
<path fill="none" stroke="darkgrey" stroke-width="1.81" d="M342.34,-462.04C347.24,-531.68 358.5,-691.55 360.98,-726.88"/>
</g>
<!-- nickel&#45;&#45;conflit -->
<g id="edge72" class="edge">
<title>nickel&#45;&#45;conflit</title>
<path fill="none" stroke="darkgrey" stroke-width="1.38" d="M319.38,-403.93C311.84,-394.61 303.98,-384.91 299.15,-378.94"/>
</g>
<!-- nickel&#45;&#45;minerai -->
<g id="edge73" class="edge">
<title>nickel&#45;&#45;minerai</title>
<path fill="none" stroke="darkgrey" stroke-width="3.52" d="M319.36,-454.79C286.05,-495.54 222.11,-573.78 200.67,-600.02"/>
</g>
<!-- nickel&#45;&#45;déforestation -->
<g id="edge74" class="edge">
<title>nickel&#45;&#45;déforestation</title>
<path fill="none" stroke="darkgrey" stroke-width="1.9" d="M363.62,-452.18C420.6,-507.07 562.61,-643.9 583.38,-663.91"/>
</g>
<!-- nickel&#45;&#45;roche -->
<g id="edge64" class="edge">
<title>nickel&#45;&#45;roche</title>
<path fill="none" stroke="darkgrey" stroke-width="2.27" d="M307.42,-430.27C244.49,-431.83 109.03,-435.18 69.22,-436.16"/>
</g>
<!-- nickel&#45;&#45;main d’oeuvre -->
<g id="edge70" class="edge">
<title>nickel&#45;&#45;main d’oeuvre</title>
<path fill="none" stroke="darkgrey" stroke-width="1.18" d="M346.15,-397.28C362,-313.59 403.67,-93.52 409.45,-62.99"/>
</g>
<!-- nickel&#45;&#45;exportation -->
<g id="edge75" class="edge">
<title>nickel&#45;&#45;exportation</title>
<path fill="none" stroke="darkgrey" stroke-width="1.66" d="M370.03,-442.08C434.26,-469.12 581.26,-530.99 604.95,-540.96"/>
</g>
<!-- nickel&#45;&#45;usine du sud -->
<g id="edge71" class="edge">
<title>nickel&#45;&#45;usine du sud</title>
<path fill="none" stroke="darkgrey" stroke-width="1.91" d="M330.86,-398.16C304.71,-309.06 231.14,-58.37 221.49,-25.47"/>
</g>
<!-- exploitation&#45;&#45;camion -->
<g id="edge76" class="edge">
<title>exploitation&#45;&#45;camion</title>
<path fill="none" stroke="darkgrey" stroke-width="1.4" d="M278.57,-539.15C262.34,-513.74 225.39,-455.84 210.78,-432.95"/>
</g>
<!-- exploitation&#45;&#45;économie -->
<g id="edge77" class="edge">
<title>exploitation&#45;&#45;économie</title>
<path fill="none" stroke="darkgrey" stroke-width="1.68" d="M300.96,-554.13C310.77,-555.95 323.78,-558.36 334.2,-560.29"/>
</g>
<!-- exploitation&#45;&#45;impact environnemental -->
<g id="edge78" class="edge">
<title>exploitation&#45;&#45;impact environnemental</title>
<path fill="none" stroke="darkgrey" stroke-width="2.56" d="M301.15,-552.23C333.56,-554 411.11,-558.22 448.94,-560.28"/>
</g>
<!-- exploitation&#45;&#45;terre -->
<g id="edge80" class="edge">
<title>exploitation&#45;&#45;terre</title>
<path fill="none" stroke="darkgrey" stroke-width="1.24" d="M273.04,-545.42C253.81,-536.77 219.09,-521.15 204.82,-514.73"/>
</g>
<!-- exploitation&#45;&#45;usine -->
<g id="edge81" class="edge">
<title>exploitation&#45;&#45;usine</title>
<path fill="none" stroke="darkgrey" stroke-width="1.81" d="M281.22,-565.31C271.79,-590.61 252.12,-643.33 245.22,-661.83"/>
</g>
<!-- exploitation&#45;&#45;ressource -->
<g id="edge82" class="edge">
<title>exploitation&#45;&#45;ressource</title>
<path fill="none" stroke="darkgrey" stroke-width="1.78" d="M291.92,-564.85C306.89,-601.22 347.85,-700.76 358.77,-727.3"/>
</g>
<!-- exploitation&#45;&#45;conflit -->
<g id="edge83" class="edge">
<title>exploitation&#45;&#45;conflit</title>
<path fill="none" stroke="darkgrey" stroke-width="1.09" d="M287.06,-536.84C288.69,-500.57 292.89,-407.35 294.1,-380.47"/>
</g>
<!-- exploitation&#45;&#45;minerai -->
<g id="edge84" class="edge">
<title>exploitation&#45;&#45;minerai</title>
<path fill="none" stroke="darkgrey" stroke-width="2.52" d="M273.87,-559.18C255.03,-570.81 219.86,-592.54 202.97,-602.97"/>
</g>
<!-- exploitation&#45;&#45;roche -->
<g id="edge79" class="edge">
<title>exploitation&#45;&#45;roche</title>
<path fill="none" stroke="darkgrey" stroke-width="1.52" d="M273.13,-544.75C231.62,-523.85 104.8,-460 68.07,-441.51"/>
</g>
<!-- exploitation&#45;&#45;exportation -->
<g id="edge85" class="edge">
<title>exploitation&#45;&#45;exportation</title>
<path fill="none" stroke="darkgrey" stroke-width="1.07" d="M301.06,-551.02C359.34,-549.37 572.95,-543.32 604.33,-542.43"/>
</g>
<!-- montagne&#45;&#45;camion -->
<g id="edge86" class="edge">
<title>montagne&#45;&#45;camion</title>
<path fill="none" stroke="darkgrey" stroke-width="1.48" d="M115.49,-536.69C130.63,-517.46 179.6,-455.25 197.79,-432.14"/>
</g>
<!-- montagne&#45;&#45;économie -->
<g id="edge87" class="edge">
<title>montagne&#45;&#45;économie</title>
<path fill="none" stroke="darkgrey" stroke-width="1.12" d="M118.18,-543.06C150.77,-545.92 284.75,-557.69 333.85,-562"/>
</g>
<!-- montagne&#45;&#45;terre -->
<g id="edge89" class="edge">
<title>montagne&#45;&#45;terre</title>
<path fill="none" stroke="darkgrey" stroke-width="1.25" d="M117.83,-540.03C134.1,-534.34 174.88,-520.09 191.36,-514.33"/>
</g>
<!-- montagne&#45;&#45;usine -->
<g id="edge90" class="edge">
<title>montagne&#45;&#45;usine</title>
<path fill="none" stroke="darkgrey" stroke-width="1.05" d="M116.3,-547.53C137.58,-567.88 216.36,-643.19 237.51,-663.41"/>
</g>
<!-- montagne&#45;&#45;minerai -->
<g id="edge91" class="edge">
<title>montagne&#45;&#45;minerai</title>
<path fill="none" stroke="darkgrey" stroke-width="1.02" d="M116.64,-547C130.83,-558.43 167.97,-588.33 184.86,-601.94"/>
</g>
<!-- montagne&#45;&#45;roche -->
<g id="edge88" class="edge">
<title>montagne&#45;&#45;roche</title>
<path fill="none" stroke="darkgrey" stroke-width="1.18" d="M107.82,-536.12C98.95,-518.38 73.77,-467.99 62.99,-446.42"/>
</g>
<!-- camion&#45;&#45;économie -->
<g id="edge92" class="edge">
<title>camion&#45;&#45;économie</title>
<path fill="none" stroke="darkgrey" stroke-width="1.29" d="M213.02,-431.33C237.49,-454.61 309.2,-522.87 338.89,-551.12"/>
</g>
<!-- camion&#45;&#45;impact environnemental -->
<g id="edge93" class="edge">
<title>camion&#45;&#45;impact environnemental</title>
<path fill="none" stroke="darkgrey" stroke-width="1.58" d="M214.45,-428.46C253.5,-448.75 398.74,-524.21 451.29,-551.51"/>
</g>
<!-- camion&#45;&#45;terre -->
<g id="edge95" class="edge">
<title>camion&#45;&#45;terre</title>
<path fill="none" stroke="darkgrey" stroke-width="1.34" d="M203.88,-434.59C202.58,-453 200.03,-489.15 198.94,-504.59"/>
</g>
<!-- camion&#45;&#45;usine -->
<g id="edge96" class="edge">
<title>camion&#45;&#45;usine</title>
<path fill="none" stroke="darkgrey" stroke-width="1.98" d="M206.41,-434.55C212.99,-476.87 236.28,-626.74 241.65,-661.29"/>
</g>
<!-- camion&#45;&#45;sln -->
<g id="edge97" class="edge">
<title>camion&#45;&#45;sln</title>
<path fill="none" stroke="darkgrey" stroke-width="1.3" d="M212.09,-415.16C238.01,-386.38 324.22,-290.68 345.36,-267.2"/>
</g>
<!-- camion&#45;&#45;minerai -->
<g id="edge98" class="edge">
<title>camion&#45;&#45;minerai</title>
<path fill="none" stroke="darkgrey" stroke-width="1.67" d="M204.01,-434.43C202.01,-467.34 196.13,-564.49 194.13,-597.63"/>
</g>
<!-- camion&#45;&#45;roche -->
<g id="edge94" class="edge">
<title>camion&#45;&#45;roche</title>
<path fill="none" stroke="darkgrey" stroke-width="1.5" d="M193.65,-424.37C166.47,-426.79 96.47,-433.01 69.15,-435.44"/>
</g>
<!-- économie&#45;&#45;impact environnemental -->
<g id="edge99" class="edge">
<title>économie&#45;&#45;impact environnemental</title>
<path fill="none" stroke="darkgrey" stroke-width="5.31" d="M370.23,-563.26C391.39,-562.88 426.22,-562.25 448.74,-561.84"/>
</g>
<!-- économie&#45;&#45;terre -->
<g id="edge100" class="edge">
<title>économie&#45;&#45;terre</title>
<path fill="none" stroke="darkgrey" stroke-width="1.2" d="M334.67,-557.75C300.94,-546.39 227.77,-521.74 205.2,-514.13"/>
</g>
<!-- économie&#45;&#45;usine -->
<g id="edge101" class="edge">
<title>économie&#45;&#45;usine</title>
<path fill="none" stroke="darkgrey" stroke-width="1.39" d="M338.59,-576.44C314.44,-599.63 264.57,-647.49 248.14,-663.26"/>
</g>
<!-- économie&#45;&#45;sln -->
<g id="edge102" class="edge">
<title>économie&#45;&#45;sln</title>
<path fill="none" stroke="darkgrey" stroke-width="1.72" d="M351.87,-545.17C351.5,-486.85 350.37,-307.77 350.12,-269.3"/>
</g>
<!-- économie&#45;&#45;ressource -->
<g id="edge103" class="edge">
<title>économie&#45;&#45;ressource</title>
<path fill="none" stroke="darkgrey" stroke-width="1.16" d="M353,-581.81C355.07,-618.88 359.68,-701.65 361.07,-726.61"/>
</g>
<!-- économie&#45;&#45;conflit -->
<g id="edge104" class="edge">
<title>économie&#45;&#45;conflit</title>
<path fill="none" stroke="darkgrey" stroke-width="1.83" d="M346.78,-546.35C334.6,-506.06 304.7,-407.08 296.53,-380.04"/>
</g>
<!-- économie&#45;&#45;minerai -->
<g id="edge105" class="edge">
<title>économie&#45;&#45;minerai</title>
<path fill="none" stroke="darkgrey" stroke-width="1.18" d="M334.42,-568.6C301.36,-578.04 230.85,-598.17 204.07,-605.82"/>
</g>
<!-- économie&#45;&#45;déforestation -->
<g id="edge106" class="edge">
<title>économie&#45;&#45;déforestation</title>
<path fill="none" stroke="darkgrey" stroke-width="1.02" d="M368.81,-570.98C417.84,-592.52 558.64,-654.38 582.48,-664.85"/>
</g>
<!-- impact environnemental&#45;&#45;terre -->
<g id="edge107" class="edge">
<title>impact environnemental&#45;&#45;terre</title>
<path fill="none" stroke="darkgrey" stroke-width="1.14" d="M449.08,-557.56C392.48,-547.24 240.47,-519.52 205.62,-513.17"/>
</g>
<!-- impact environnemental&#45;&#45;usine -->
<g id="edge108" class="edge">
<title>impact environnemental&#45;&#45;usine</title>
<path fill="none" stroke="darkgrey" stroke-width="1.53" d="M450.62,-570.76C402.15,-593.53 279.36,-651.23 249.42,-665.3"/>
</g>
<!-- impact environnemental&#45;&#45;sln -->
<g id="edge109" class="edge">
<title>impact environnemental&#45;&#45;sln</title>
<path fill="none" stroke="darkgrey" stroke-width="1.26" d="M462.34,-541.34C438.2,-481.27 367.42,-305.12 352.75,-268.63"/>
</g>
<!-- impact environnemental&#45;&#45;ressource -->
<g id="edge110" class="edge">
<title>impact environnemental&#45;&#45;ressource</title>
<path fill="none" stroke="darkgrey" stroke-width="1.26" d="M458.77,-579.9C434.61,-618.13 380.12,-704.36 365.27,-727.86"/>
</g>
<!-- impact environnemental&#45;&#45;conflit -->
<g id="edge111" class="edge">
<title>impact environnemental&#45;&#45;conflit</title>
<path fill="none" stroke="darkgrey" stroke-width="1.18" d="M455.72,-545.72C418.55,-505.94 322.13,-402.75 299.32,-378.35"/>
</g>
<!-- impact environnemental&#45;&#45;développement -->
<g id="edge112" class="edge">
<title>impact environnemental&#45;&#45;développement</title>
<path fill="none" stroke="darkgrey" stroke-width="1.34" d="M489.08,-550.32C542.28,-518.58 692.44,-429 715.58,-415.2"/>
</g>
<!-- impact environnemental&#45;&#45;minerai -->
<g id="edge113" class="edge">
<title>impact environnemental&#45;&#45;minerai</title>
<path fill="none" stroke="darkgrey" d="M449.15,-565.09C393.67,-574.59 245.98,-599.86 204.45,-606.97"/>
</g>
<!-- impact environnemental&#45;&#45;exportation -->
<g id="edge115" class="edge">
<title>impact environnemental&#45;&#45;exportation</title>
<path fill="none" stroke="darkgrey" stroke-width="1.39" d="M491.95,-558.46C525.55,-553.8 588.29,-545.09 604.37,-542.85"/>
</g>
<!-- impact environnemental&#45;&#45;épuisable -->
<g id="edge114" class="edge">
<title>impact environnemental&#45;&#45;épuisable</title>
<path fill="none" stroke="darkgrey" stroke-width="1.18" d="M491.12,-567.41C579.47,-592.86 921.36,-691.35 937.34,-695.96"/>
</g>
<!-- usine&#45;&#45;minerai -->
<g id="edge118" class="edge">
<title>usine&#45;&#45;minerai</title>
<path fill="none" stroke="darkgrey" stroke-width="2.19" d="M238.21,-662.93C229.63,-652.56 210.98,-630.04 200.67,-617.58"/>
</g>
<!-- sln&#45;&#45;usine du sud -->
<g id="edge119" class="edge">
<title>sln&#45;&#45;usine du sud</title>
<path fill="none" stroke="darkgrey" stroke-width="1.05" d="M346.74,-255.79C327.96,-221 235.7,-50.16 222.11,-24.99"/>
</g>
<!-- ressource&#45;&#45;minerai -->
<g id="edge120" class="edge">
<title>ressource&#45;&#45;minerai</title>
<path fill="none" stroke="darkgrey" stroke-width="1.28" d="M355.5,-729.42C330.36,-710.72 233.15,-638.39 202.65,-615.7"/>
</g>
<!-- roche&#45;&#45;terre -->
<g id="edge116" class="edge">
<title>roche&#45;&#45;terre</title>
<path fill="none" stroke="darkgrey" stroke-width="1" d="M68.1,-441.86C95.39,-456.52 170.06,-496.62 192.18,-508.5"/>
</g>
<!-- roche&#45;&#45;minerai -->
<g id="edge117" class="edge">
<title>roche&#45;&#45;minerai</title>
<path fill="none" stroke="darkgrey" stroke-width="1.07" d="M64.9,-445.22C88.08,-474.73 163,-570.09 186.4,-599.88"/>
</g>
<!-- pollution -->
<g id="node1" class="node">
<title>pollution</title>
<ellipse fill="#fb9606" stroke="white" stroke-width="0" cx="437.08" cy="-478.24" rx="29" ry="29"/>
<text text-anchor="middle" x="354.08" y="-514.4" font-family="Helvetica,sans-Serif" font-size="24.80" fill="#4d4d4d">pollution</text>
</g>
<!-- emploi -->
<g id="node2" class="node">
<title>emploi</title>
<ellipse fill="#fcffa4" stroke="white" stroke-width="0" cx="436.92" cy="-412.59" rx="36" ry="36"/>
<text text-anchor="middle" x="353.42" y="-354.19" font-family="Helvetica,sans-Serif" font-size="28.00" fill="#4d4d4d">emploi</text>
</g>
<!-- richesse -->
<g id="node3" class="node">
<title>richesse</title>
<ellipse fill="#69166e" stroke="white" stroke-width="0" cx="341.4" cy="-652.75" rx="11" ry="11"/>
<text text-anchor="middle" x="295.4" y="-668.31" font-family="Helvetica,sans-Serif" font-size="16.80" fill="#4d4d4d">richesse</text>
</g>
<!-- démolition -->
<g id="node4" class="node">
<title>démolition</title>
<ellipse fill="#3b0964" stroke="white" stroke-width="0" cx="485.13" cy="-716.81" rx="7" ry="7"/>
<text text-anchor="middle" x="437.13" y="-728.65" font-family="Helvetica,sans-Serif" font-size="15.20" fill="#4d4d4d">démolition</text>
</g>
<!-- argent -->
<g id="node5" class="node">
<title>argent</title>
<ellipse fill="#520e6d" stroke="white" stroke-width="0" cx="193.97" cy="-228.48" rx="11" ry="11"/>
<text text-anchor="middle" x="154.97" y="-244.04" font-family="Helvetica,sans-Serif" font-size="16.80" fill="#4d4d4d">argent</text>
</g>
<!-- nickel -->
<g id="node6" class="node">
<title>nickel</title>
<ellipse fill="#fac42a" stroke="white" stroke-width="0" cx="340.05" cy="-429.47" rx="32.5" ry="32.5"/>
<text text-anchor="middle" x="269.05" y="-469.85" font-family="Helvetica,sans-Serif" font-size="26.40" fill="#4d4d4d">nickel</text>
</g>
<!-- nature -->
<g id="node7" class="node">
<title>nature</title>
<ellipse fill="#02020e" stroke="white" stroke-width="0" cx="742.27" cy="-253.12" rx="0.5" ry="0.5"/>
<text text-anchor="middle" x="721.77" y="-257.02" font-family="Helvetica,sans-Serif" font-size="12.00" fill="#4d4d4d">nature</text>
</g>
<!-- exploitation -->
<g id="node8" class="node">
<title>exploitation</title>
<ellipse fill="#9a2865" stroke="white" stroke-width="0" cx="286.4" cy="-551.43" rx="14.5" ry="14.5"/>
<text text-anchor="middle" x="216.4" y="-571.21" font-family="Helvetica,sans-Serif" font-size="18.40" fill="#4d4d4d">exploitation</text>
</g>
<!-- montagne -->
<g id="node9" class="node">
<title>montagne</title>
<ellipse fill="#3d0965" stroke="white" stroke-width="0" cx="110.97" cy="-542.43" rx="7" ry="7"/>
<text text-anchor="middle" x="64.97" y="-554.27" font-family="Helvetica,sans-Serif" font-size="15.20" fill="#4d4d4d">montagne</text>
</g>
<!-- camion -->
<g id="node10" class="node">
<title>camion</title>
<ellipse fill="#64156e" stroke="white" stroke-width="0" cx="204.67" cy="-423.39" rx="11" ry="11"/>
<text text-anchor="middle" x="162.67" y="-438.95" font-family="Helvetica,sans-Serif" font-size="16.80" fill="#4d4d4d">camion</text>
</g>
<!-- économie -->
<g id="node11" class="node">
<title>économie</title>
<ellipse fill="#c03a51" stroke="white" stroke-width="0" cx="351.99" cy="-563.59" rx="18" ry="18"/>
<text text-anchor="middle" x="382.49" y="-587.59" font-family="Helvetica,sans-Serif" font-size="20.00" fill="#4d4d4d">économie</text>
</g>
<!-- impact environnemental -->
<g id="node12" class="node">
<title>impact environnemental</title>
<ellipse fill="#d34743" stroke="white" stroke-width="0" cx="470.43" cy="-561.45" rx="21.5" ry="21.5"/>
<text text-anchor="middle" x="581.43" y="-589.67" font-family="Helvetica,sans-Serif" font-size="21.60" fill="#4d4d4d">impact environnemental</text>
</g>
<!-- terre rouge -->
<g id="node13" class="node">
<title>terre rouge</title>
<ellipse fill="#1e0c45" stroke="white" stroke-width="0" cx="548.04" cy="-203.07" rx="3.5" ry="3.5"/>
<text text-anchor="middle" x="506.54" y="-210.69" font-family="Helvetica,sans-Serif" font-size="13.60" fill="#4d4d4d">terre rouge</text>
</g>
<!-- terre -->
<g id="node14" class="node">
<title>terre</title>
<ellipse fill="#3b0964" stroke="white" stroke-width="0" cx="198.43" cy="-511.85" rx="7" ry="7"/>
<text text-anchor="middle" x="172.93" y="-523.69" font-family="Helvetica,sans-Serif" font-size="15.20" fill="#4d4d4d">terre</text>
</g>
<!-- usine -->
<g id="node15" class="node">
<title>usine</title>
<ellipse fill="#4f0d6c" stroke="white" stroke-width="0" cx="242.76" cy="-668.43" rx="7" ry="7"/>
<text text-anchor="middle" x="214.76" y="-680.27" font-family="Helvetica,sans-Serif" font-size="15.20" fill="#4d4d4d">usine</text>
</g>
<!-- érosion -->
<g id="node16" class="node">
<title>érosion</title>
<ellipse fill="#02020c" stroke="white" stroke-width="0" cx="796.52" cy="-527.83" rx="0.5" ry="0.5"/>
<text text-anchor="middle" x="774.02" y="-531.73" font-family="Helvetica,sans-Serif" font-size="12.00" fill="#4d4d4d">érosion</text>
</g>
<!-- sln -->
<g id="node17" class="node">
<title>sln</title>
<ellipse fill="#3d0965" stroke="white" stroke-width="0" cx="350.08" cy="-261.97" rx="7" ry="7"/>
<text text-anchor="middle" x="331.58" y="-273.81" font-family="Helvetica,sans-Serif" font-size="15.20" fill="#4d4d4d">sln</text>
</g>
<!-- ressource -->
<g id="node18" class="node">
<title>ressource</title>
<ellipse fill="#440a68" stroke="white" stroke-width="0" cx="361.48" cy="-733.87" rx="7" ry="7"/>
<text text-anchor="middle" x="317.48" y="-745.71" font-family="Helvetica,sans-Serif" font-size="15.20" fill="#4d4d4d">ressource</text>
</g>
<!-- conflit -->
<g id="node19" class="node">
<title>conflit</title>
<ellipse fill="#360961" stroke="white" stroke-width="0" cx="294.44" cy="-373.12" rx="7" ry="7"/>
<text text-anchor="middle" x="263.44" y="-384.96" font-family="Helvetica,sans-Serif" font-size="15.20" fill="#4d4d4d">conflit</text>
</g>
<!-- développement -->
<g id="node20" class="node">
<title>développement</title>
<ellipse fill="#0b0724" stroke="white" stroke-width="0" cx="718.59" cy="-413.4" rx="3.5" ry="3.5"/>
<text text-anchor="middle" x="661.09" y="-421.02" font-family="Helvetica,sans-Serif" font-size="13.60" fill="#4d4d4d">développement</text>
</g>
<!-- minerai -->
<g id="node21" class="node">
<title>minerai</title>
<ellipse fill="#510e6c" stroke="white" stroke-width="0" cx="193.45" cy="-608.85" rx="11" ry="11"/>
<text text-anchor="middle" x="150.45" y="-624.41" font-family="Helvetica,sans-Serif" font-size="16.80" fill="#4d4d4d">minerai</text>
</g>
<!-- déforestation -->
<g id="node22" class="node">
<title>déforestation</title>
<ellipse fill="#1c0c43" stroke="white" stroke-width="0" cx="585.93" cy="-666.36" rx="3.5" ry="3.5"/>
<text text-anchor="middle" x="537.43" y="-673.98" font-family="Helvetica,sans-Serif" font-size="13.60" fill="#4d4d4d">déforestation</text>
</g>
<!-- roche -->
<g id="node23" class="node">
<title>roche</title>
<ellipse fill="#510e6c" stroke="white" stroke-width="0" cx="58" cy="-436.44" rx="11" ry="11"/>
<text text-anchor="middle" x="23.5" y="-452" font-family="Helvetica,sans-Serif" font-size="16.80" fill="#4d4d4d">roche</text>
</g>
<!-- industrie -->
<g id="node24" class="node">
<title>industrie</title>
<ellipse fill="#02020e" stroke="white" stroke-width="0" cx="709.83" cy="-0.5" rx="0.5" ry="0.5"/>
<text text-anchor="middle" x="683.33" y="-4.4" font-family="Helvetica,sans-Serif" font-size="12.00" fill="#4d4d4d">industrie</text>
</g>
<!-- main d’oeuvre -->
<g id="node25" class="node">
<title>main d’oeuvre</title>
<ellipse fill="#1b0c41" stroke="white" stroke-width="0" cx="410.12" cy="-59.45" rx="3.5" ry="3.5"/>
<text text-anchor="middle" x="357.12" y="-67.07" font-family="Helvetica,sans-Serif" font-size="13.60" fill="#4d4d4d">main d’oeuvre</text>
</g>
<!-- exportation -->
<g id="node26" class="node">
<title>exportation</title>
<ellipse fill="#0c0826" stroke="white" stroke-width="0" cx="608.19" cy="-542.32" rx="3.5" ry="3.5"/>
<text text-anchor="middle" x="565.19" y="-549.94" font-family="Helvetica,sans-Serif" font-size="13.60" fill="#4d4d4d">exportation</text>
</g>
<!-- usine du sud -->
<g id="node27" class="node">
<title>usine du sud</title>
<ellipse fill="#09061f" stroke="white" stroke-width="0" cx="220.44" cy="-21.89" rx="3.5" ry="3.5"/>
<text text-anchor="middle" x="173.94" y="-29.51" font-family="Helvetica,sans-Serif" font-size="13.60" fill="#4d4d4d">usine du sud</text>
</g>
<!-- épuisable -->
<g id="node28" class="node">
<title>épuisable</title>
<ellipse fill="#000004" stroke="white" stroke-width="0" cx="937.92" cy="-696.12" rx="0.5" ry="0.5"/>
<text text-anchor="middle" x="908.42" y="-700.02" font-family="Helvetica,sans-Serif" font-size="12.00" fill="#4d4d4d">épuisable</text>
</g>
</g>
</svg>
