<?xml version="1.0" encoding="UTF-8" standalone="no"?>
<!DOCTYPE svg PUBLIC "-//W3C//DTD SVG 1.1//EN"
 "http://www.w3.org/Graphics/SVG/1.1/DTD/svg11.dtd">
<!-- Generated by graphviz version 2.43.0 (0)
 -->
<!-- Pages: 1 -->
<svg width="601pt" height="468pt"
 viewBox="0.00 0.00 600.79 468.04" xmlns="http://www.w3.org/2000/svg" xmlns:xlink="http://www.w3.org/1999/xlink">
<g id="graph0" class="graph" transform="scale(1 1) rotate(0) translate(4 464.04)">
<polygon fill="white" stroke="transparent" points="-4,4 -4,-464.04 596.79,-464.04 596.79,4 -4,4"/>
<!-- avenir sans nickel&#45;&#45;travail -->
<g id="edge1" class="edge">
<title>avenir sans nickel&#45;&#45;travail</title>
<path fill="none" stroke="darkgrey" stroke-width="2.25" d="M354.66,-222.88C371.9,-223.39 394.19,-224.03 408.6,-224.45"/>
</g>
<!-- avenir sans nickel&#45;&#45;politique -->
<g id="edge2" class="edge">
<title>avenir sans nickel&#45;&#45;politique</title>
<path fill="none" stroke="darkgrey" stroke-width="2.62" d="M337.26,-198.34C350.77,-156.68 378.36,-71.58 390.17,-35.16"/>
</g>
<!-- avenir sans nickel&#45;&#45;secteur nickel -->
<g id="edge3" class="edge">
<title>avenir sans nickel&#45;&#45;secteur nickel</title>
<path fill="none" stroke="darkgrey" stroke-width="1.87" d="M354.34,-217.83C391.98,-211.27 462.63,-198.95 495.61,-193.2"/>
</g>
<!-- avenir sans nickel&#45;&#45;avenir avec nickel -->
<g id="edge4" class="edge">
<title>avenir sans nickel&#45;&#45;avenir avec nickel</title>
<path fill="none" stroke="darkgrey" stroke-width="2.37" d="M327.03,-247.14C321.67,-300.32 309.44,-421.7 307.19,-443.99"/>
</g>
<!-- avenir sans nickel&#45;&#45;pollution -->
<g id="edge5" class="edge">
<title>avenir sans nickel&#45;&#45;pollution</title>
<path fill="none" stroke="darkgrey" stroke-width="4.26" d="M346.41,-203.56C366.13,-181.81 398.45,-146.19 417.13,-125.6"/>
</g>
<!-- avenir sans nickel&#45;&#45;ressource minière -->
<g id="edge6" class="edge">
<title>avenir sans nickel&#45;&#45;ressource minière</title>
<path fill="none" stroke="darkgrey" stroke-width="5.26" d="M353.13,-213.51C399.61,-196.48 502.31,-158.84 546.11,-142.79"/>
</g>
<!-- avenir sans nickel&#45;&#45;dégradation environnementale -->
<g id="edge7" class="edge">
<title>avenir sans nickel&#45;&#45;dégradation environnementale</title>
<path fill="none" stroke="darkgrey" stroke-width="4.79" d="M324.78,-246.86C324.7,-247.26 324.62,-247.67 324.54,-248.07"/>
</g>
<!-- avenir sans nickel&#45;&#45;société néo&#45;calédonienne -->
<g id="edge8" class="edge">
<title>avenir sans nickel&#45;&#45;société néo&#45;calédonienne</title>
<path fill="none" stroke="darkgrey" stroke-width="1.91" d="M304.28,-221.23C268.58,-219.93 204.85,-217.6 179.11,-216.66"/>
</g>
<!-- avenir sans nickel&#45;&#45;alternative au développement -->
<g id="edge9" class="edge">
<title>avenir sans nickel&#45;&#45;alternative au développement</title>
<path fill="none" stroke="darkgrey" stroke-width="3.31" d="M349.94,-237.15C368.99,-251.16 397.28,-271.96 416.31,-285.95"/>
</g>
<!-- avenir sans nickel&#45;&#45;économie -->
<g id="edge10" class="edge">
<title>avenir sans nickel&#45;&#45;économie</title>
<path fill="none" stroke="darkgrey" stroke-width="1.38" d="M319.1,-198.99C313.28,-186.1 306.25,-170.51 301.36,-159.66"/>
</g>
<!-- avenir sans nickel&#45;&#45;amélioration environnementale -->
<g id="edge11" class="edge">
<title>avenir sans nickel&#45;&#45;amélioration environnementale</title>
<path fill="none" stroke="darkgrey" stroke-width="1.32" d="M340.27,-245.25C363.81,-295.91 418.97,-414.61 432.39,-443.49"/>
</g>
<!-- travail&#45;&#45;politique -->
<g id="edge12" class="edge">
<title>travail&#45;&#45;politique</title>
<path fill="none" stroke="darkgrey" stroke-width="2.57" d="M421.33,-210.33C416.42,-173.45 403.5,-76.36 398.13,-36"/>
</g>
<!-- travail&#45;&#45;secteur nickel -->
<g id="edge13" class="edge">
<title>travail&#45;&#45;secteur nickel</title>
<path fill="none" stroke="darkgrey" stroke-width="2.48" d="M436.95,-219.59C452.91,-213.44 479.29,-203.26 496.5,-196.62"/>
</g>
<!-- travail&#45;&#45;pollution -->
<g id="edge14" class="edge">
<title>travail&#45;&#45;pollution</title>
<path fill="none" stroke="darkgrey" stroke-width="4.09" d="M424.33,-210.27C425.8,-190.26 428.43,-154.2 430.12,-131.08"/>
</g>
<!-- travail&#45;&#45;ressource minière -->
<g id="edge15" class="edge">
<title>travail&#45;&#45;ressource minière</title>
<path fill="none" stroke="darkgrey" stroke-width="1.71" d="M435.98,-216.93C461.45,-201 518.83,-165.13 548.3,-146.7"/>
</g>
<!-- travail&#45;&#45;dégradation environnementale -->
<g id="edge16" class="edge">
<title>travail&#45;&#45;dégradation environnementale</title>
<path fill="none" stroke="darkgrey" stroke-width="5.34" d="M410.31,-232.1C395.22,-240.51 369.75,-254.72 349.33,-266.11"/>
</g>
<!-- travail&#45;&#45;société néo&#45;calédonienne -->
<g id="edge17" class="edge">
<title>travail&#45;&#45;société néo&#45;calédonienne</title>
<path fill="none" stroke="darkgrey" stroke-width="2.47" d="M408.43,-224.37C362.01,-222.81 220.2,-218.02 179.13,-216.63"/>
</g>
<!-- travail&#45;&#45;alternative au développement -->
<g id="edge18" class="edge">
<title>travail&#45;&#45;alternative au développement</title>
<path fill="none" stroke="darkgrey" stroke-width="2.72" d="M425.78,-239.17C427.61,-249.58 430.13,-263.94 432.28,-276.19"/>
</g>
<!-- travail&#45;&#45;économie -->
<g id="edge19" class="edge">
<title>travail&#45;&#45;économie</title>
<path fill="none" stroke="darkgrey" stroke-width="2.95" d="M410.53,-217.06C386.01,-202 332.51,-169.15 308.03,-154.12"/>
</g>
<!-- travail&#45;&#45;amélioration environnementale -->
<g id="edge20" class="edge">
<title>travail&#45;&#45;amélioration environnementale</title>
<path fill="none" stroke="darkgrey" stroke-width="1.69" d="M424.06,-239.64C426.4,-283.25 433.25,-410.44 434.97,-442.5"/>
</g>
<!-- travail&#45;&#45;essor technologique -->
<g id="edge21" class="edge">
<title>travail&#45;&#45;essor technologique</title>
<path fill="none" stroke="darkgrey" stroke-width="2.13" d="M435.17,-233.2C463.96,-253.31 537.08,-304.41 566.13,-324.71"/>
</g>
<!-- politique&#45;&#45;secteur nickel -->
<g id="edge22" class="edge">
<title>politique&#45;&#45;secteur nickel</title>
<path fill="none" stroke="darkgrey" stroke-width="2.83" d="M405.97,-32.97C428.23,-65.52 480.8,-142.41 503.11,-175.04"/>
</g>
<!-- politique&#45;&#45;pollution -->
<g id="edge23" class="edge">
<title>politique&#45;&#45;pollution</title>
<path fill="none" stroke="darkgrey" stroke-width="2.23" d="M402.33,-34.79C408.38,-50.17 417.33,-72.96 423.77,-89.33"/>
</g>
<!-- politique&#45;&#45;ressource minière -->
<g id="edge24" class="edge">
<title>politique&#45;&#45;ressource minière</title>
<path fill="none" stroke="darkgrey" stroke-width="3.12" d="M410.59,-28.2C442,-49.78 515.02,-99.93 548.8,-123.13"/>
</g>
<!-- politique&#45;&#45;dégradation environnementale -->
<g id="edge25" class="edge">
<title>politique&#45;&#45;dégradation environnementale</title>
<path fill="none" stroke="darkgrey" stroke-width="3.8" d="M390.61,-35.44C377.93,-78.63 344.85,-191.22 327.94,-248.78"/>
</g>
<!-- politique&#45;&#45;alternative au développement -->
<g id="edge26" class="edge">
<title>politique&#45;&#45;alternative au développement</title>
<path fill="none" stroke="darkgrey" stroke-width="2" d="M398.36,-36.13C405.42,-85.03 424.9,-219.74 433.01,-275.85"/>
</g>
<!-- politique&#45;&#45;économie -->
<g id="edge27" class="edge">
<title>politique&#45;&#45;économie</title>
<path fill="none" stroke="darkgrey" stroke-width="2.88" d="M384.61,-32.22C364.6,-57.8 322.9,-111.1 304.46,-134.68"/>
</g>
<!-- secteur nickel&#45;&#45;pollution -->
<g id="edge28" class="edge">
<title>secteur nickel&#45;&#45;pollution</title>
<path fill="none" stroke="darkgrey" stroke-width="2.69" d="M500.28,-177.15C485.75,-162.83 462.37,-139.78 447.02,-124.64"/>
</g>
<!-- secteur nickel&#45;&#45;ressource minière -->
<g id="edge29" class="edge">
<title>secteur nickel&#45;&#45;ressource minière</title>
<path fill="none" stroke="darkgrey" stroke-width="1.41" d="M525.99,-177.11C533.6,-169.27 543.35,-159.21 551.38,-150.93"/>
</g>
<!-- secteur nickel&#45;&#45;dégradation environnementale -->
<g id="edge30" class="edge">
<title>secteur nickel&#45;&#45;dégradation environnementale</title>
<path fill="none" stroke="darkgrey" stroke-width="2.42" d="M497.05,-197.92C464.8,-213.36 392.46,-247.97 350.15,-268.22"/>
</g>
<!-- secteur nickel&#45;&#45;alternative au développement -->
<g id="edge31" class="edge">
<title>secteur nickel&#45;&#45;alternative au développement</title>
<path fill="none" stroke="darkgrey" stroke-width="4.28" d="M503.05,-205.04C489.62,-224.41 466.14,-258.3 450.99,-280.16"/>
</g>
<!-- secteur nickel&#45;&#45;économie -->
<g id="edge32" class="edge">
<title>secteur nickel&#45;&#45;économie</title>
<path fill="none" stroke="darkgrey" stroke-width="1.41" d="M495.56,-186.52C453.35,-178.04 348.03,-156.9 309.64,-149.2"/>
</g>
<!-- secteur nickel&#45;&#45;amélioration environnementale -->
<g id="edge33" class="edge">
<title>secteur nickel&#45;&#45;amélioration environnementale</title>
<path fill="none" stroke="darkgrey" stroke-width="2.09" d="M508.16,-207.55C492.72,-258.98 447.81,-408.49 437.5,-442.82"/>
</g>
<!-- avenir avec nickel&#45;&#45;dégradation environnementale -->
<g id="edge34" class="edge">
<title>avenir avec nickel&#45;&#45;dégradation environnementale</title>
<path fill="none" stroke="darkgrey" stroke-width="1.73" d="M307.08,-443.81C308.16,-427.58 312.49,-361.98 315.27,-319.97"/>
</g>
<!-- avenir avec nickel&#45;&#45;alternative au développement -->
<g id="edge35" class="edge">
<title>avenir avec nickel&#45;&#45;alternative au développement</title>
<path fill="none" stroke="darkgrey" stroke-width="1.15" d="M309.31,-444.74C322.88,-429.42 388.67,-355.07 419.99,-319.69"/>
</g>
<!-- avenir avec nickel&#45;&#45;économie -->
<g id="edge36" class="edge">
<title>avenir avec nickel&#45;&#45;économie</title>
<path fill="none" stroke="darkgrey" stroke-width="1.44" d="M306.69,-443.73C305.55,-413.84 298.03,-216.56 295.9,-160.92"/>
</g>
<!-- avenir avec nickel&#45;&#45;amélioration environnementale -->
<g id="edge37" class="edge">
<title>avenir avec nickel&#45;&#45;amélioration environnementale</title>
<path fill="none" stroke="darkgrey" stroke-width="2.1" d="M310.54,-447.61C328.24,-447.94 404.26,-449.34 428.16,-449.78"/>
</g>
<!-- avenir avec nickel&#45;&#45;essor technologique -->
<g id="edge38" class="edge">
<title>avenir avec nickel&#45;&#45;essor technologique</title>
<path fill="none" stroke="darkgrey" stroke-width="1.28" d="M310.27,-446.1C337.15,-434.77 514.18,-360.21 564.8,-338.89"/>
</g>
<!-- pollution&#45;&#45;ressource minière -->
<g id="edge39" class="edge">
<title>pollution&#45;&#45;ressource minière</title>
<path fill="none" stroke="darkgrey" stroke-width="3.73" d="M453.07,-113.61C478.31,-118.44 520.06,-126.42 545.27,-131.24"/>
</g>
<!-- pollution&#45;&#45;dégradation environnementale -->
<g id="edge40" class="edge">
<title>pollution&#45;&#45;dégradation environnementale</title>
<path fill="none" stroke="darkgrey" stroke-width="10" d="M419.93,-127.52C400.46,-157.25 361.37,-216.98 337.56,-253.36"/>
</g>
<!-- pollution&#45;&#45;société néo&#45;calédonienne -->
<g id="edge42" class="edge">
<title>pollution&#45;&#45;société néo&#45;calédonienne</title>
<path fill="none" stroke="darkgrey" stroke-width="2.18" d="M411.44,-117.72C358.47,-139.15 217.27,-196.27 178.08,-212.12"/>
</g>
<!-- pollution&#45;&#45;alternative au développement -->
<g id="edge43" class="edge">
<title>pollution&#45;&#45;alternative au développement</title>
<path fill="none" stroke="darkgrey" stroke-width="3.72" d="M432.26,-131.11C433.17,-166.79 435,-237.88 435.98,-275.76"/>
</g>
<!-- pollution&#45;&#45;économie -->
<g id="edge44" class="edge">
<title>pollution&#45;&#45;économie</title>
<path fill="none" stroke="darkgrey" stroke-width="3.49" d="M410.69,-115.2C382.61,-122.78 333.56,-136.01 309.49,-142.51"/>
</g>
<!-- pollution&#45;&#45;essor technologique -->
<g id="edge45" class="edge">
<title>pollution&#45;&#45;essor technologique</title>
<path fill="none" stroke="darkgrey" stroke-width="1.72" d="M443.7,-127.83C472.69,-172.07 545.97,-283.88 570.3,-321.01"/>
</g>
<!-- pollution&#45;&#45;nature -->
<g id="edge41" class="edge">
<title>pollution&#45;&#45;nature</title>
<path fill="none" stroke="darkgrey" stroke-width="1.61" d="M413.7,-97.37C386.86,-79.25 338.14,-46.35 325.68,-37.93"/>
</g>
<!-- ressource minière&#45;&#45;dégradation environnementale -->
<g id="edge46" class="edge">
<title>ressource minière&#45;&#45;dégradation environnementale</title>
<path fill="none" stroke="darkgrey" stroke-width="6.02" d="M547.83,-146.46C505.32,-171.82 401.12,-233.98 348.76,-265.22"/>
</g>
<!-- ressource minière&#45;&#45;alternative au développement -->
<g id="edge47" class="edge">
<title>ressource minière&#45;&#45;alternative au développement</title>
<path fill="none" stroke="darkgrey" stroke-width="3.82" d="M553.12,-152.4C528.87,-183.31 477.89,-248.29 452.17,-281.08"/>
</g>
<!-- ressource minière&#45;&#45;économie -->
<g id="edge48" class="edge">
<title>ressource minière&#45;&#45;économie</title>
<path fill="none" stroke="darkgrey" stroke-width="2.74" d="M544.8,-136.19C491.38,-138.36 354.77,-143.91 309.88,-145.74"/>
</g>
<!-- ressource minière&#45;&#45;essor technologique -->
<g id="edge49" class="edge">
<title>ressource minière&#45;&#45;essor technologique</title>
<path fill="none" stroke="darkgrey" stroke-width="3.24" d="M567.81,-156.86C570.22,-197.43 575.38,-284.16 577.42,-318.64"/>
</g>
<!-- dégradation environnementale&#45;&#45;société néo&#45;calédonienne -->
<g id="edge51" class="edge">
<title>dégradation environnementale&#45;&#45;société néo&#45;calédonienne</title>
<path fill="none" stroke="darkgrey" stroke-width="1.7" d="M284.79,-268.95C250.68,-253.58 199.39,-230.46 177.9,-220.77"/>
</g>
<!-- dégradation environnementale&#45;&#45;alternative au développement -->
<g id="edge52" class="edge">
<title>dégradation environnementale&#45;&#45;alternative au développement</title>
<path fill="none" stroke="darkgrey" stroke-width="3.63" d="M353.35,-288.9C372.11,-291.6 394.64,-294.85 411.53,-297.28"/>
</g>
<!-- dégradation environnementale&#45;&#45;économie -->
<g id="edge54" class="edge">
<title>dégradation environnementale&#45;&#45;économie</title>
<path fill="none" stroke="darkgrey" stroke-width="5.72" d="M311.86,-248.01C307.23,-219.54 301,-181.17 297.67,-160.66"/>
</g>
<!-- dégradation environnementale&#45;&#45;amélioration environnementale -->
<g id="edge55" class="edge">
<title>dégradation environnementale&#45;&#45;amélioration environnementale</title>
<path fill="none" stroke="darkgrey" stroke-width="2.21" d="M338.71,-313.47C367.41,-353.98 416.91,-423.85 431.32,-444.2"/>
</g>
<!-- dégradation environnementale&#45;&#45;essor technologique -->
<g id="edge56" class="edge">
<title>dégradation environnementale&#45;&#45;essor technologique</title>
<path fill="none" stroke="darkgrey" stroke-width="2.63" d="M353.08,-290.49C411.12,-301.5 524.01,-322.91 563.9,-330.48"/>
</g>
<!-- dégradation environnementale&#45;&#45;nature -->
<g id="edge50" class="edge">
<title>dégradation environnementale&#45;&#45;nature</title>
<path fill="none" stroke="darkgrey" stroke-width="2.56" d="M318.39,-247.73C319.66,-185.43 322.17,-62.1 322.63,-39.52"/>
</g>
<!-- dégradation environnementale&#45;&#45;nickel -->
<g id="edge53" class="edge">
<title>dégradation environnementale&#45;&#45;nickel</title>
<path fill="none" stroke="darkgrey" stroke-width="1.28" d="M282.3,-290.55C206.76,-305.05 35.64,-337.88 25.02,-339.92"/>
</g>
<!-- société néo&#45;calédonienne&#45;&#45;alternative au développement -->
<g id="edge57" class="edge">
<title>société néo&#45;calédonienne&#45;&#45;alternative au développement</title>
<path fill="none" stroke="darkgrey" stroke-width="2.04" d="M178.4,-219.57C217.71,-231.95 356.4,-275.63 412.66,-293.34"/>
</g>
<!-- société néo&#45;calédonienne&#45;&#45;économie -->
<g id="edge59" class="edge">
<title>société néo&#45;calédonienne&#45;&#45;économie</title>
<path fill="none" stroke="darkgrey" stroke-width="1.78" d="M177.87,-210.76C200.76,-198.21 256.94,-167.39 282.41,-153.42"/>
</g>
<!-- société néo&#45;calédonienne&#45;&#45;nickel -->
<g id="edge58" class="edge">
<title>société néo&#45;calédonienne&#45;&#45;nickel</title>
<path fill="none" stroke="darkgrey" stroke-width="1.02" d="M159.33,-223.62C129.91,-249.02 34.09,-331.74 25.17,-339.44"/>
</g>
<!-- alternative au développement&#45;&#45;économie -->
<g id="edge61" class="edge">
<title>alternative au développement&#45;&#45;économie</title>
<path fill="none" stroke="darkgrey" stroke-width="4.64" d="M419.58,-282.25C389.79,-249.65 329.13,-183.28 305.28,-157.2"/>
</g>
<!-- alternative au développement&#45;&#45;amélioration environnementale -->
<g id="edge62" class="edge">
<title>alternative au développement&#45;&#45;amélioration environnementale</title>
<path fill="none" stroke="darkgrey" stroke-width="3.15" d="M436.41,-326.17C436.12,-361.05 435.61,-421.97 435.43,-442.74"/>
</g>
<!-- alternative au développement&#45;&#45;essor technologique -->
<g id="edge63" class="edge">
<title>alternative au développement&#45;&#45;essor technologique</title>
<path fill="none" stroke="darkgrey" stroke-width="3.18" d="M461.3,-306.52C490.95,-313.28 539.71,-324.41 563.84,-329.91"/>
</g>
<!-- amélioration environnementale&#45;&#45;essor technologique -->
<g id="edge64" class="edge">
<title>amélioration environnementale&#45;&#45;essor technologique</title>
<path fill="none" stroke="darkgrey" d="M440.8,-445.48C461.81,-428.32 538.03,-366.08 567.01,-342.42"/>
</g>
<!-- nouvelle&#45;calédonie&#45;&#45;alternative au développement -->
<g id="edge60" class="edge">
<title>nouvelle&#45;calédonie&#45;&#45;alternative au développement</title>
<path fill="none" stroke="darkgrey" stroke-width="1.17" d="M543.91,-430.32C537.07,-422.07 481,-354.43 452.76,-320.35"/>
</g>
<!-- avenir sans nickel -->
<g id="node1" class="node">
<title>avenir sans nickel</title>
<ellipse fill="#f3761b" stroke="white" stroke-width="0" cx="329.54" cy="-222.16" rx="25" ry="25"/>
<text text-anchor="middle" x="268.04" y="-199.76" font-family="Helvetica,sans-Serif" font-size="8.00" fill="#4d4d4d">avenir sans nickel</text>
</g>
<!-- travail -->
<g id="node2" class="node">
<title>travail</title>
<ellipse fill="#982766" stroke="white" stroke-width="0" cx="423.26" cy="-224.88" rx="14.5" ry="14.5"/>
<text text-anchor="middle" x="395.76" y="-241.98" font-family="Helvetica,sans-Serif" font-size="8.00" fill="#4d4d4d">travail</text>
</g>
<!-- politique -->
<g id="node3" class="node">
<title>politique</title>
<ellipse fill="#ab2f5e" stroke="white" stroke-width="0" cx="395.74" cy="-18" rx="18" ry="18"/>
<text text-anchor="middle" x="359.24" y="-38.6" font-family="Helvetica,sans-Serif" font-size="8.00" fill="#4d4d4d">politique</text>
</g>
<!-- secteur nickel -->
<g id="node4" class="node">
<title>secteur nickel</title>
<ellipse fill="#a92e5e" stroke="white" stroke-width="0" cx="513.4" cy="-190.1" rx="18" ry="18"/>
<text text-anchor="middle" x="466.9" y="-210.7" font-family="Helvetica,sans-Serif" font-size="8.00" fill="#4d4d4d">secteur nickel</text>
</g>
<!-- avenir avec nickel -->
<g id="node5" class="node">
<title>avenir avec nickel</title>
<ellipse fill="#190c3e" stroke="white" stroke-width="0" cx="306.84" cy="-447.54" rx="3.5" ry="3.5"/>
<text text-anchor="middle" x="266.84" y="-453.64" font-family="Helvetica,sans-Serif" font-size="8.00" fill="#4d4d4d">avenir avec nickel</text>
</g>
<!-- pollution -->
<g id="node6" class="node">
<title>pollution</title>
<ellipse fill="#da4e3c" stroke="white" stroke-width="0" cx="431.7" cy="-109.53" rx="21.5" ry="21.5"/>
<text text-anchor="middle" x="391.7" y="-133.63" font-family="Helvetica,sans-Serif" font-size="8.00" fill="#4d4d4d">pollution</text>
</g>
<!-- ressource minière -->
<g id="node7" class="node">
<title>ressource minière</title>
<ellipse fill="#e75e2e" stroke="white" stroke-width="0" cx="566.53" cy="-135.3" rx="21.5" ry="21.5"/>
<text text-anchor="middle" x="508.53" y="-159.4" font-family="Helvetica,sans-Serif" font-size="8.00" fill="#4d4d4d">ressource minière</text>
</g>
<!-- dégradation environnementale -->
<g id="node8" class="node">
<title>dégradation environnementale</title>
<ellipse fill="#fcffa4" stroke="white" stroke-width="0" cx="317.66" cy="-283.77" rx="36" ry="36"/>
<text text-anchor="middle" x="218.16" y="-322.37" font-family="Helvetica,sans-Serif" font-size="8.00" fill="#4d4d4d">dégradation environnementale</text>
</g>
<!-- société néo&#45;calédonienne -->
<g id="node9" class="node">
<title>société néo&#45;calédonienne</title>
<ellipse fill="#61136e" stroke="white" stroke-width="0" cx="167.87" cy="-216.25" rx="11" ry="11"/>
<text text-anchor="middle" x="102.87" y="-229.85" font-family="Helvetica,sans-Serif" font-size="8.00" fill="#4d4d4d">société néo&#45;calédonienne</text>
</g>
<!-- alternative au développement -->
<g id="node10" class="node">
<title>alternative au développement</title>
<ellipse fill="#f3761b" stroke="white" stroke-width="0" cx="436.62" cy="-300.89" rx="25" ry="25"/>
<text text-anchor="middle" x="349.62" y="-328.49" font-family="Helvetica,sans-Serif" font-size="8.00" fill="#4d4d4d">alternative au développement</text>
</g>
<!-- économie -->
<g id="node11" class="node">
<title>économie</title>
<ellipse fill="#88226a" stroke="white" stroke-width="0" cx="295.35" cy="-146.33" rx="14.5" ry="14.5"/>
<text text-anchor="middle" x="260.35" y="-163.43" font-family="Helvetica,sans-Serif" font-size="8.00" fill="#4d4d4d">économie</text>
</g>
<!-- amélioration environnementale -->
<g id="node12" class="node">
<title>amélioration environnementale</title>
<ellipse fill="#440a68" stroke="white" stroke-width="0" cx="435.37" cy="-449.91" rx="7" ry="7"/>
<text text-anchor="middle" x="363.87" y="-436.51" font-family="Helvetica,sans-Serif" font-size="8.00" fill="#4d4d4d">amélioration environnementale</text>
</g>
<!-- essor technologique -->
<g id="node13" class="node">
<title>essor technologique</title>
<ellipse fill="#84206b" stroke="white" stroke-width="0" cx="578.29" cy="-333.21" rx="14.5" ry="14.5"/>
<text text-anchor="middle" x="521.29" y="-350.31" font-family="Helvetica,sans-Serif" font-size="8.00" fill="#4d4d4d">essor technologique</text>
</g>
<!-- nature -->
<g id="node14" class="node">
<title>nature</title>
<ellipse fill="#10092d" stroke="white" stroke-width="0" cx="322.71" cy="-35.93" rx="3.5" ry="3.5"/>
<text text-anchor="middle" x="305.71" y="-42.03" font-family="Helvetica,sans-Serif" font-size="8.00" fill="#4d4d4d">nature</text>
</g>
<!-- nickel -->
<g id="node15" class="node">
<title>nickel</title>
<ellipse fill="#000004" stroke="white" stroke-width="0" cx="24.5" cy="-340.02" rx="0.5" ry="0.5"/>
<text text-anchor="middle" x="12" y="-343.12" font-family="Helvetica,sans-Serif" font-size="8.00" fill="#4d4d4d">nickel</text>
</g>
<!-- nouvelle&#45;calédonie -->
<g id="node16" class="node">
<title>nouvelle&#45;calédonie</title>
<ellipse fill="#010005" stroke="white" stroke-width="0" cx="544.6" cy="-431.16" rx="0.5" ry="0.5"/>
<text text-anchor="middle" x="504.6" y="-434.26" font-family="Helvetica,sans-Serif" font-size="8.00" fill="#4d4d4d">nouvelle&#45;calédonie</text>
</g>
</g>
</svg>
