<?xml version="1.0" encoding="UTF-8" standalone="no"?>
<!DOCTYPE svg PUBLIC "-//W3C//DTD SVG 1.1//EN"
 "http://www.w3.org/Graphics/SVG/1.1/DTD/svg11.dtd">
<!-- Generated by graphviz version 2.43.0 (0)
 -->
<!-- Pages: 1 -->
<svg width="721pt" height="457pt"
 viewBox="0.00 0.00 721.32 457.41" xmlns="http://www.w3.org/2000/svg" xmlns:xlink="http://www.w3.org/1999/xlink">
<g id="graph0" class="graph" transform="scale(1 1) rotate(0) translate(4 453.41)">
<polygon fill="white" stroke="transparent" points="-4,4 -4,-453.41 717.32,-453.41 717.32,4 -4,4"/>
<!-- avenir sans nickel&#45;&#45;travail -->
<g id="edge1" class="edge">
<title>avenir sans nickel&#45;&#45;travail</title>
<path fill="none" stroke="darkgrey" stroke-width="3.09" d="M312.42,-120.42C300.98,-119.59 287.71,-118.63 277.3,-117.88"/>
</g>
<!-- avenir sans nickel&#45;&#45;politique -->
<g id="edge2" class="edge">
<title>avenir sans nickel&#45;&#45;politique</title>
<path fill="none" stroke="darkgrey" stroke-width="3.56" d="M341.56,-147.21C347.1,-182.18 357.03,-244.92 361.92,-275.78"/>
</g>
<!-- avenir sans nickel&#45;&#45;secteur nickel -->
<g id="edge3" class="edge">
<title>avenir sans nickel&#45;&#45;secteur nickel</title>
<path fill="none" stroke="darkgrey" stroke-width="2.9" d="M324.99,-144.23C319.05,-154.56 312.11,-166.65 306.72,-176.04"/>
</g>
<!-- avenir sans nickel&#45;&#45;avenir avec nickel -->
<g id="edge4" class="edge">
<title>avenir sans nickel&#45;&#45;avenir avec nickel</title>
<path fill="none" stroke="darkgrey" stroke-width="2.83" d="M360.96,-112.78C379.17,-105.4 403.25,-95.65 414.75,-90.98"/>
</g>
<!-- avenir sans nickel&#45;&#45;pollution -->
<g id="edge5" class="edge">
<title>avenir sans nickel&#45;&#45;pollution</title>
<path fill="none" stroke="darkgrey" stroke-width="5.37" d="M313.27,-129.2C286.98,-136.72 245.52,-148.57 220.63,-155.68"/>
</g>
<!-- avenir sans nickel&#45;&#45;ressource minière -->
<g id="edge6" class="edge">
<title>avenir sans nickel&#45;&#45;ressource minière</title>
<path fill="none" stroke="darkgrey" stroke-width="5.46" d="M360.24,-133.28C371.01,-138.53 383.86,-144.79 394.64,-150.05"/>
</g>
<!-- avenir sans nickel&#45;&#45;dégradation environnementale -->
<g id="edge7" class="edge">
<title>avenir sans nickel&#45;&#45;dégradation environnementale</title>
<path fill="none" stroke="darkgrey" stroke-width="6.07" d="M319.57,-139.68C303.82,-154.9 280.75,-177.2 262.95,-194.4"/>
</g>
<!-- avenir sans nickel&#45;&#45;société néo&#45;calédonienne -->
<g id="edge8" class="edge">
<title>avenir sans nickel&#45;&#45;société néo&#45;calédonienne</title>
<path fill="none" stroke="darkgrey" stroke-width="2.79" d="M324.42,-143.88C300.25,-183.55 249.53,-266.76 230.29,-298.33"/>
</g>
<!-- avenir sans nickel&#45;&#45;alternative au développement -->
<g id="edge9" class="edge">
<title>avenir sans nickel&#45;&#45;alternative au développement</title>
<path fill="none" stroke="darkgrey" stroke-width="4.4" d="M351.05,-143.66C360.75,-159.1 373.77,-179.85 383.46,-195.27"/>
</g>
<!-- avenir sans nickel&#45;&#45;économie -->
<g id="edge10" class="edge">
<title>avenir sans nickel&#45;&#45;économie</title>
<path fill="none" stroke="darkgrey" stroke-width="2.41" d="M331.95,-146.8C325.25,-175.81 314.33,-223.13 308.86,-246.85"/>
</g>
<!-- avenir sans nickel&#45;&#45;amélioration environnementale -->
<g id="edge11" class="edge">
<title>avenir sans nickel&#45;&#45;amélioration environnementale</title>
<path fill="none" stroke="darkgrey" stroke-width="1.83" d="M322.95,-101.62C311.11,-84.97 295.02,-62.32 286.11,-49.79"/>
</g>
<!-- avenir sans nickel&#45;&#45;essor technologique -->
<g id="edge12" class="edge">
<title>avenir sans nickel&#45;&#45;essor technologique</title>
<path fill="none" stroke="darkgrey" stroke-width="1.06" d="M340.4,-97.26C342.76,-76.12 346.06,-46.56 348.02,-29.09"/>
</g>
<!-- travail&#45;&#45;politique -->
<g id="edge13" class="edge">
<title>travail&#45;&#45;politique</title>
<path fill="none" stroke="darkgrey" stroke-width="3.29" d="M268.71,-132.32C288.72,-165.97 335.46,-244.6 355.45,-278.23"/>
</g>
<!-- travail&#45;&#45;secteur nickel -->
<g id="edge14" class="edge">
<title>travail&#45;&#45;secteur nickel</title>
<path fill="none" stroke="darkgrey" stroke-width="3.46" d="M267.67,-132.88C274.11,-145.48 282.97,-162.85 289.4,-175.44"/>
</g>
<!-- travail&#45;&#45;avenir avec nickel -->
<g id="edge15" class="edge">
<title>travail&#45;&#45;avenir avec nickel</title>
<path fill="none" stroke="darkgrey" stroke-width="1.31" d="M277.31,-113.44C312.76,-107.25 390.32,-93.71 414.25,-89.53"/>
</g>
<!-- travail&#45;&#45;pollution -->
<g id="edge16" class="edge">
<title>travail&#45;&#45;pollution</title>
<path fill="none" stroke="darkgrey" stroke-width="5.07" d="M244.91,-127.49C236.49,-133.85 225.83,-141.91 216.97,-148.6"/>
</g>
<!-- travail&#45;&#45;ressource minière -->
<g id="edge17" class="edge">
<title>travail&#45;&#45;ressource minière</title>
<path fill="none" stroke="darkgrey" stroke-width="2.58" d="M276.86,-121.51C305.14,-129.49 360.93,-145.21 393.03,-154.26"/>
</g>
<!-- travail&#45;&#45;dégradation environnementale -->
<g id="edge18" class="edge">
<title>travail&#45;&#45;dégradation environnementale</title>
<path fill="none" stroke="darkgrey" stroke-width="6.24" d="M255.41,-134.55C252.39,-148.29 248.14,-167.66 244.46,-184.46"/>
</g>
<!-- travail&#45;&#45;société néo&#45;calédonienne -->
<g id="edge19" class="edge">
<title>travail&#45;&#45;société néo&#45;calédonienne</title>
<path fill="none" stroke="darkgrey" stroke-width="3.26" d="M255.96,-134.51C248.74,-172.74 231.96,-261.62 225.38,-296.46"/>
</g>
<!-- travail&#45;&#45;alternative au développement -->
<g id="edge20" class="edge">
<title>travail&#45;&#45;alternative au développement</title>
<path fill="none" stroke="darkgrey" stroke-width="3.61" d="M274.06,-127.28C298.73,-145.22 348.45,-181.4 376.46,-201.77"/>
</g>
<!-- travail&#45;&#45;économie -->
<g id="edge22" class="edge">
<title>travail&#45;&#45;économie</title>
<path fill="none" stroke="darkgrey" stroke-width="3.73" d="M264.83,-133.75C274.04,-162.67 292.49,-220.51 301.01,-247.22"/>
</g>
<!-- travail&#45;&#45;amélioration environnementale -->
<g id="edge23" class="edge">
<title>travail&#45;&#45;amélioration environnementale</title>
<path fill="none" stroke="darkgrey" stroke-width="2.5" d="M264.02,-98.93C267.93,-84.18 273.38,-63.63 276.66,-51.24"/>
</g>
<!-- travail&#45;&#45;essor technologique -->
<g id="edge24" class="edge">
<title>travail&#45;&#45;essor technologique</title>
<path fill="none" stroke="darkgrey" stroke-width="2.77" d="M271.53,-102.81C289.63,-82.35 323.27,-44.31 339.87,-25.55"/>
</g>
<!-- travail&#45;&#45;nickel -->
<g id="edge21" class="edge">
<title>travail&#45;&#45;nickel</title>
<path fill="none" stroke="darkgrey" stroke-width="1.12" d="M243.68,-125.55C211.6,-143.92 140.09,-184.87 123.76,-194.22"/>
</g>
<!-- politique&#45;&#45;secteur nickel -->
<g id="edge26" class="edge">
<title>politique&#45;&#45;secteur nickel</title>
<path fill="none" stroke="darkgrey" stroke-width="3.67" d="M354.89,-278.85C342.21,-259.52 320.35,-226.21 307.65,-206.86"/>
</g>
<!-- politique&#45;&#45;avenir avec nickel -->
<g id="edge28" class="edge">
<title>politique&#45;&#45;avenir avec nickel</title>
<path fill="none" stroke="darkgrey" stroke-width="1.22" d="M369.62,-276.4C381.5,-233.27 411.74,-123.47 419.56,-95.07"/>
</g>
<!-- politique&#45;&#45;pollution -->
<g id="edge29" class="edge">
<title>politique&#45;&#45;pollution</title>
<path fill="none" stroke="darkgrey" stroke-width="3.27" d="M350.71,-282.66C320.46,-258.42 249.33,-201.43 216.65,-175.25"/>
</g>
<!-- politique&#45;&#45;ressource minière -->
<g id="edge30" class="edge">
<title>politique&#45;&#45;ressource minière</title>
<path fill="none" stroke="darkgrey" stroke-width="3.75" d="M371.44,-277.11C380.72,-253.66 397.58,-211.03 408.08,-184.49"/>
</g>
<!-- politique&#45;&#45;dégradation environnementale -->
<g id="edge31" class="edge">
<title>politique&#45;&#45;dégradation environnementale</title>
<path fill="none" stroke="darkgrey" stroke-width="4.96" d="M349.09,-284.83C328.98,-273.19 293.68,-252.74 268,-237.86"/>
</g>
<!-- politique&#45;&#45;société néo&#45;calédonienne -->
<g id="edge32" class="edge">
<title>politique&#45;&#45;société néo&#45;calédonienne</title>
<path fill="none" stroke="darkgrey" stroke-width="2.08" d="M346.79,-296.07C318.25,-299.47 263.2,-306.02 237.08,-309.13"/>
</g>
<!-- politique&#45;&#45;alternative au développement -->
<g id="edge34" class="edge">
<title>politique&#45;&#45;alternative au développement</title>
<path fill="none" stroke="darkgrey" stroke-width="2.87" d="M371.75,-277.15C376.27,-266.22 382.25,-251.82 387.23,-239.8"/>
</g>
<!-- politique&#45;&#45;économie -->
<g id="edge35" class="edge">
<title>politique&#45;&#45;économie</title>
<path fill="none" stroke="darkgrey" stroke-width="3.47" d="M348.9,-285.2C339.3,-279.92 327.22,-273.28 318.25,-268.35"/>
</g>
<!-- politique&#45;&#45;relation politique -->
<g id="edge27" class="edge">
<title>politique&#45;&#45;relation politique</title>
<path fill="none" stroke="darkgrey" stroke-width="1.45" d="M354.65,-309C330.74,-344.55 272.41,-431.26 267,-439.31"/>
</g>
<!-- politique&#45;&#45;nouvelle&#45;calédonie -->
<g id="edge33" class="edge">
<title>politique&#45;&#45;nouvelle&#45;calédonie</title>
<path fill="none" stroke="darkgrey" stroke-width="1.27" d="M377.18,-307.35C397.44,-329.28 436.4,-371.47 446.4,-382.29"/>
</g>
<!-- secteur nickel&#45;&#45;avenir avec nickel -->
<g id="edge37" class="edge">
<title>secteur nickel&#45;&#45;avenir avec nickel</title>
<path fill="none" stroke="darkgrey" stroke-width="1.42" d="M311.9,-179.85C339.2,-157.03 397.9,-107.95 416,-92.81"/>
</g>
<!-- secteur nickel&#45;&#45;pollution -->
<g id="edge38" class="edge">
<title>secteur nickel&#45;&#45;pollution</title>
<path fill="none" stroke="darkgrey" stroke-width="3.68" d="M280.19,-186.34C263.45,-181.21 238.21,-173.47 220.46,-168.03"/>
</g>
<!-- secteur nickel&#45;&#45;ressource minière -->
<g id="edge39" class="edge">
<title>secteur nickel&#45;&#45;ressource minière</title>
<path fill="none" stroke="darkgrey" stroke-width="2.14" d="M315.36,-187.2C335.9,-181.94 369.93,-173.24 392.97,-167.34"/>
</g>
<!-- secteur nickel&#45;&#45;dégradation environnementale -->
<g id="edge40" class="edge">
<title>secteur nickel&#45;&#45;dégradation environnementale</title>
<path fill="none" stroke="darkgrey" stroke-width="3.34" d="M281.05,-199.37C277.52,-200.99 273.68,-202.76 269.78,-204.55"/>
</g>
<!-- secteur nickel&#45;&#45;société néo&#45;calédonienne -->
<g id="edge41" class="edge">
<title>secteur nickel&#45;&#45;société néo&#45;calédonienne</title>
<path fill="none" stroke="darkgrey" stroke-width="1.69" d="M287.9,-207.29C272.8,-231.26 244.18,-276.69 230.42,-298.53"/>
</g>
<!-- secteur nickel&#45;&#45;alternative au développement -->
<g id="edge42" class="edge">
<title>secteur nickel&#45;&#45;alternative au développement</title>
<path fill="none" stroke="darkgrey" stroke-width="5.46" d="M315.44,-196.16C331.36,-200.16 354.9,-206.07 372.57,-210.51"/>
</g>
<!-- secteur nickel&#45;&#45;économie -->
<g id="edge44" class="edge">
<title>secteur nickel&#45;&#45;économie</title>
<path fill="none" stroke="darkgrey" stroke-width="2.32" d="M299.72,-209.65C301,-221.09 302.64,-235.75 303.85,-246.53"/>
</g>
<!-- secteur nickel&#45;&#45;amélioration environnementale -->
<g id="edge45" class="edge">
<title>secteur nickel&#45;&#45;amélioration environnementale</title>
<path fill="none" stroke="darkgrey" stroke-width="2.9" d="M295.55,-173.77C291.75,-142.17 283.96,-77.46 280.84,-51.57"/>
</g>
<!-- secteur nickel&#45;&#45;essor technologique -->
<g id="edge46" class="edge">
<title>secteur nickel&#45;&#45;essor technologique</title>
<path fill="none" stroke="darkgrey" stroke-width="1.82" d="M302.79,-174.4C313.05,-139.39 336.08,-60.78 345.51,-28.62"/>
</g>
<!-- secteur nickel&#45;&#45;nickel -->
<g id="edge43" class="edge">
<title>secteur nickel&#45;&#45;nickel</title>
<path fill="none" stroke="darkgrey" stroke-width="1.82" d="M279.41,-192.17C238.88,-193.18 143.63,-195.56 123.98,-196.06"/>
</g>
<!-- secteur nickel&#45;&#45;relation politique -->
<g id="edge36" class="edge">
<title>secteur nickel&#45;&#45;relation politique</title>
<path fill="none" stroke="darkgrey" stroke-width="1.1" d="M295.42,-209.96C288.46,-265.49 267.93,-429.23 266.66,-439.41"/>
</g>
<!-- avenir avec nickel&#45;&#45;ressource minière -->
<g id="edge49" class="edge">
<title>avenir avec nickel&#45;&#45;ressource minière</title>
<path fill="none" stroke="darkgrey" stroke-width="1.23" d="M421.02,-95.53C420.5,-104.88 419.55,-121.65 418.75,-135.88"/>
</g>
<!-- avenir avec nickel&#45;&#45;dégradation environnementale -->
<g id="edge50" class="edge">
<title>avenir avec nickel&#45;&#45;dégradation environnementale</title>
<path fill="none" stroke="darkgrey" stroke-width="2.44" d="M415.7,-92.35C393.35,-108.26 311.08,-166.81 266.28,-198.7"/>
</g>
<!-- avenir avec nickel&#45;&#45;alternative au développement -->
<g id="edge51" class="edge">
<title>avenir avec nickel&#45;&#45;alternative au développement</title>
<path fill="none" stroke="darkgrey" stroke-width="2.01" d="M420.11,-95.18C416.67,-113.14 407.3,-162.02 401.56,-192"/>
</g>
<!-- avenir avec nickel&#45;&#45;économie -->
<g id="edge52" class="edge">
<title>avenir avec nickel&#45;&#45;économie</title>
<path fill="none" stroke="darkgrey" stroke-width="1.83" d="M417.31,-94.44C400.45,-119.61 336.6,-214.93 313.73,-249.08"/>
</g>
<!-- avenir avec nickel&#45;&#45;amélioration environnementale -->
<g id="edge53" class="edge">
<title>avenir avec nickel&#45;&#45;amélioration environnementale</title>
<path fill="none" stroke="darkgrey" stroke-width="2.54" d="M414.59,-85.97C391.66,-78.25 317.49,-53.28 289.94,-44.01"/>
</g>
<!-- avenir avec nickel&#45;&#45;essor technologique -->
<g id="edge54" class="edge">
<title>avenir avec nickel&#45;&#45;essor technologique</title>
<path fill="none" stroke="darkgrey" stroke-width="1.9" d="M416.27,-82.97C404.5,-70.88 375.51,-41.09 359.94,-25.08"/>
</g>
<!-- pollution&#45;&#45;ressource minière -->
<g id="edge55" class="edge">
<title>pollution&#45;&#45;ressource minière</title>
<path fill="none" stroke="darkgrey" stroke-width="4.29" d="M221.35,-161.61C261.89,-161.51 348.98,-161.28 392.09,-161.17"/>
</g>
<!-- pollution&#45;&#45;dégradation environnementale -->
<g id="edge56" class="edge">
<title>pollution&#45;&#45;dégradation environnementale</title>
<path fill="none" stroke="darkgrey" stroke-width="10" d="M211.41,-180.04C213.27,-182.96 215.24,-186.06 217.23,-189.17"/>
</g>
<!-- pollution&#45;&#45;société néo&#45;calédonienne -->
<g id="edge58" class="edge">
<title>pollution&#45;&#45;société néo&#45;calédonienne</title>
<path fill="none" stroke="darkgrey" stroke-width="3.36" d="M202.98,-183.04C207.72,-213.82 216.34,-269.81 220.41,-296.27"/>
</g>
<!-- pollution&#45;&#45;alternative au développement -->
<g id="edge59" class="edge">
<title>pollution&#45;&#45;alternative au développement</title>
<path fill="none" stroke="darkgrey" stroke-width="4.55" d="M220.42,-167.44C257.19,-177.69 333.66,-198.99 372.73,-209.88"/>
</g>
<!-- pollution&#45;&#45;économie -->
<g id="edge61" class="edge">
<title>pollution&#45;&#45;économie</title>
<path fill="none" stroke="darkgrey" stroke-width="4.25" d="M215.76,-176.8C237.62,-197.39 276.12,-233.66 294.78,-251.24"/>
</g>
<!-- pollution&#45;&#45;amélioration environnementale -->
<g id="edge62" class="edge">
<title>pollution&#45;&#45;amélioration environnementale</title>
<path fill="none" stroke="darkgrey" stroke-width="1.37" d="M211.64,-143.52C228.86,-117.38 260.04,-70.05 273.28,-49.94"/>
</g>
<!-- pollution&#45;&#45;essor technologique -->
<g id="edge63" class="edge">
<title>pollution&#45;&#45;essor technologique</title>
<path fill="none" stroke="darkgrey" stroke-width="2.57" d="M215.17,-146.47C245.7,-116.51 312.97,-50.5 339.03,-24.91"/>
</g>
<!-- pollution&#45;&#45;nickel -->
<g id="edge60" class="edge">
<title>pollution&#45;&#45;nickel</title>
<path fill="none" stroke="darkgrey" stroke-width="1.8" d="M179.68,-170.36C160.6,-178.66 133.39,-190.5 123.86,-194.64"/>
</g>
<!-- pollution&#45;&#45;nature -->
<g id="edge57" class="edge">
<title>pollution&#45;&#45;nature</title>
<path fill="none" stroke="darkgrey" stroke-width="2.33" d="M184.99,-177.79C149.5,-216.71 60.52,-314.32 38.82,-338.11"/>
</g>
<!-- ressource minière&#45;&#45;dégradation environnementale -->
<g id="edge64" class="edge">
<title>ressource minière&#45;&#45;dégradation environnementale</title>
<path fill="none" stroke="darkgrey" stroke-width="6.45" d="M393.35,-168.89C361.97,-179.08 306.78,-196.99 271,-208.61"/>
</g>
<!-- ressource minière&#45;&#45;alternative au développement -->
<g id="edge66" class="edge">
<title>ressource minière&#45;&#45;alternative au développement</title>
<path fill="none" stroke="darkgrey" stroke-width="4.85" d="M408.64,-184.64C407.64,-187.36 406.61,-190.13 405.61,-192.85"/>
</g>
<!-- ressource minière&#45;&#45;économie -->
<g id="edge67" class="edge">
<title>ressource minière&#45;&#45;économie</title>
<path fill="none" stroke="darkgrey" stroke-width="3.46" d="M398.61,-177.89C375.11,-198.95 335.56,-234.41 316.47,-251.52"/>
</g>
<!-- ressource minière&#45;&#45;amélioration environnementale -->
<g id="edge68" class="edge">
<title>ressource minière&#45;&#45;amélioration environnementale</title>
<path fill="none" stroke="darkgrey" stroke-width="1.43" d="M398.45,-144.59C368.08,-118.01 309.57,-66.8 287.87,-47.82"/>
</g>
<!-- ressource minière&#45;&#45;essor technologique -->
<g id="edge69" class="edge">
<title>ressource minière&#45;&#45;essor technologique</title>
<path fill="none" stroke="darkgrey" stroke-width="3.85" d="M406.75,-138.2C392.48,-107.28 367.49,-53.16 355.89,-28.03"/>
</g>
<!-- ressource minière&#45;&#45;nouvelle&#45;calédonie -->
<g id="edge65" class="edge">
<title>ressource minière&#45;&#45;nouvelle&#45;calédonie</title>
<path fill="none" stroke="darkgrey" stroke-width="1.08" d="M420.81,-185.91C428.24,-238.71 445.17,-359.21 448.28,-381.34"/>
</g>
<!-- dégradation environnementale&#45;&#45;société néo&#45;calédonienne -->
<g id="edge71" class="edge">
<title>dégradation environnementale&#45;&#45;société néo&#45;calédonienne</title>
<path fill="none" stroke="darkgrey" stroke-width="2.56" d="M231.2,-255.49C229.02,-269.64 226.63,-285.13 224.93,-296.11"/>
</g>
<!-- dégradation environnementale&#45;&#45;alternative au développement -->
<g id="edge72" class="edge">
<title>dégradation environnementale&#45;&#45;alternative au développement</title>
<path fill="none" stroke="darkgrey" stroke-width="4.94" d="M273.06,-219.03C303.14,-218.44 345.1,-217.61 371.61,-217.09"/>
</g>
<!-- dégradation environnementale&#45;&#45;économie -->
<g id="edge74" class="edge">
<title>dégradation environnementale&#45;&#45;économie</title>
<path fill="none" stroke="darkgrey" stroke-width="6.3" d="M267.9,-238.6C276.71,-243.93 285.81,-249.43 292.85,-253.69"/>
</g>
<!-- dégradation environnementale&#45;&#45;amélioration environnementale -->
<g id="edge75" class="edge">
<title>dégradation environnementale&#45;&#45;amélioration environnementale</title>
<path fill="none" stroke="darkgrey" stroke-width="2.48" d="M245.17,-184.33C255.01,-143.11 270.7,-77.39 276.88,-51.49"/>
</g>
<!-- dégradation environnementale&#45;&#45;essor technologique -->
<g id="edge76" class="edge">
<title>dégradation environnementale&#45;&#45;essor technologique</title>
<path fill="none" stroke="darkgrey" stroke-width="3.25" d="M254.12,-188.12C279.36,-142.24 325.03,-59.23 342.55,-27.4"/>
</g>
<!-- dégradation environnementale&#45;&#45;nickel -->
<g id="edge73" class="edge">
<title>dégradation environnementale&#45;&#45;nickel</title>
<path fill="none" stroke="darkgrey" stroke-width="1.95" d="M201.19,-212.53C172.6,-206.73 135.35,-199.18 123.9,-196.86"/>
</g>
<!-- dégradation environnementale&#45;&#45;nature -->
<g id="edge70" class="edge">
<title>dégradation environnementale&#45;&#45;nature</title>
<path fill="none" stroke="darkgrey" stroke-width="3.46" d="M205.93,-238.52C156.98,-268.38 64.41,-324.85 40.02,-339.73"/>
</g>
<!-- société néo&#45;calédonienne&#45;&#45;alternative au développement -->
<g id="edge79" class="edge">
<title>société néo&#45;calédonienne&#45;&#45;alternative au développement</title>
<path fill="none" stroke="darkgrey" stroke-width="2.81" d="M235.47,-303.92C264.93,-287.98 337.8,-248.55 374.69,-228.58"/>
</g>
<!-- société néo&#45;calédonienne&#45;&#45;économie -->
<g id="edge81" class="edge">
<title>société néo&#45;calédonienne&#45;&#45;économie</title>
<path fill="none" stroke="darkgrey" stroke-width="2.58" d="M235.24,-303.33C250.81,-294.03 277.18,-278.27 292.81,-268.94"/>
</g>
<!-- société néo&#45;calédonienne&#45;&#45;nickel -->
<g id="edge80" class="edge">
<title>société néo&#45;calédonienne&#45;&#45;nickel</title>
<path fill="none" stroke="darkgrey" stroke-width="1.66" d="M212.85,-299.85C190.26,-274.5 135.51,-213.09 122.98,-199.04"/>
</g>
<!-- société néo&#45;calédonienne&#45;&#45;nouvelle&#45;calédonie -->
<g id="edge78" class="edge">
<title>société néo&#45;calédonienne&#45;&#45;nouvelle&#45;calédonie</title>
<path fill="none" stroke="darkgrey" stroke-width="1.2" d="M236.46,-315.37C281.34,-330.06 421.57,-375.96 445.34,-383.74"/>
</g>
<!-- alternative au développement&#45;&#45;économie -->
<g id="edge85" class="edge">
<title>alternative au développement&#45;&#45;économie</title>
<path fill="none" stroke="darkgrey" stroke-width="5.3" d="M374.27,-227.66C356.83,-236.2 333.31,-247.73 318.79,-254.84"/>
</g>
<!-- alternative au développement&#45;&#45;amélioration environnementale -->
<g id="edge86" class="edge">
<title>alternative au développement&#45;&#45;amélioration environnementale</title>
<path fill="none" stroke="darkgrey" stroke-width="4.19" d="M382.92,-195.71C357.43,-157.44 304.17,-77.51 285.85,-50.02"/>
</g>
<!-- alternative au développement&#45;&#45;essor technologique -->
<g id="edge87" class="edge">
<title>alternative au développement&#45;&#45;essor technologique</title>
<path fill="none" stroke="darkgrey" stroke-width="4.03" d="M391.15,-192.22C381.2,-149.6 360.93,-62.82 352.97,-28.72"/>
</g>
<!-- alternative au développement&#45;&#45;nickel -->
<g id="edge84" class="edge">
<title>alternative au développement&#45;&#45;nickel</title>
<path fill="none" stroke="darkgrey" stroke-width="1.69" d="M371.82,-214.75C309.36,-210.13 149.71,-198.31 123.94,-196.41"/>
</g>
<!-- économie&#45;&#45;amélioration environnementale -->
<g id="edge89" class="edge">
<title>économie&#45;&#45;amélioration environnementale</title>
<path fill="none" stroke="darkgrey" stroke-width="1.21" d="M303.8,-246.86C298.94,-205.59 285.11,-88.09 280.8,-51.51"/>
</g>
<!-- amélioration environnementale&#45;&#45;essor technologique -->
<g id="edge90" class="edge">
<title>amélioration environnementale&#45;&#45;essor technologique</title>
<path fill="none" stroke="darkgrey" stroke-width="1.58" d="M289.85,-36.66C302.05,-32.14 322.36,-24.61 335.87,-19.61"/>
</g>
<!-- nickel&#45;&#45;économie -->
<g id="edge88" class="edge">
<title>nickel&#45;&#45;économie</title>
<path fill="none" stroke="darkgrey" d="M123.94,-197.39C144.88,-204.77 253.15,-242.9 291.79,-256.52"/>
</g>
<!-- exploitation minière&#45;&#45;alternative au développement -->
<g id="edge25" class="edge">
<title>exploitation minière&#45;&#45;alternative au développement</title>
<path fill="none" stroke="darkgrey" stroke-width="1.06" d="M712.31,-305.34C700.64,-302.06 492.93,-243.63 421.07,-223.41"/>
</g>
<!-- relation politique&#45;&#45;dégradation environnementale -->
<g id="edge47" class="edge">
<title>relation politique&#45;&#45;dégradation environnementale</title>
<path fill="none" stroke="darkgrey" stroke-width="1.01" d="M266.51,-439.28C265.22,-429.77 249.68,-315.23 241.57,-255.5"/>
</g>
<!-- relation politique&#45;&#45;économie -->
<g id="edge48" class="edge">
<title>relation politique&#45;&#45;économie</title>
<path fill="none" stroke="darkgrey" stroke-width="1.26" d="M266.7,-439.4C268.58,-430.8 293.49,-316.5 302.38,-275.7"/>
</g>
<!-- nouvelle&#45;calédonie&#45;&#45;alternative au développement -->
<g id="edge82" class="edge">
<title>nouvelle&#45;calédonie&#45;&#45;alternative au développement</title>
<path fill="none" stroke="darkgrey" stroke-width="1.74" d="M447.69,-381.35C442.17,-363.46 416.96,-281.78 404.24,-240.55"/>
</g>
<!-- nouvelle&#45;calédonie&#45;&#45;économie -->
<g id="edge83" class="edge">
<title>nouvelle&#45;calédonie&#45;&#45;économie</title>
<path fill="none" stroke="darkgrey" stroke-width="1.31" d="M446.04,-382.51C429.95,-368.63 347.23,-297.32 316.78,-271.07"/>
</g>
<!-- nature&#45;&#45;société néo&#45;calédonienne -->
<g id="edge77" class="edge">
<title>nature&#45;&#45;société néo&#45;calédonienne</title>
<path fill="none" stroke="darkgrey" stroke-width="1.33" d="M41.17,-342.16C69.03,-337.36 170.5,-319.85 208.32,-313.32"/>
</g>
<!-- avenir sans nickel -->
<g id="node1" class="node">
<title>avenir sans nickel</title>
<ellipse fill="#f8850f" stroke="white" stroke-width="0" cx="337.61" cy="-122.25" rx="25" ry="25"/>
<text text-anchor="middle" x="276.11" y="-149.85" font-family="Helvetica,sans-Serif" font-size="8.00" fill="#4d4d4d">avenir sans nickel</text>
</g>
<!-- travail -->
<g id="node2" class="node">
<title>travail</title>
<ellipse fill="#ae305c" stroke="white" stroke-width="0" cx="259.35" cy="-116.58" rx="18" ry="18"/>
<text text-anchor="middle" x="228.35" y="-101.18" font-family="Helvetica,sans-Serif" font-size="8.00" fill="#4d4d4d">travail</text>
</g>
<!-- politique -->
<g id="node3" class="node">
<title>politique</title>
<ellipse fill="#c13a50" stroke="white" stroke-width="0" cx="364.79" cy="-293.93" rx="18" ry="18"/>
<text text-anchor="middle" x="328.29" y="-314.53" font-family="Helvetica,sans-Serif" font-size="8.00" fill="#4d4d4d">politique</text>
</g>
<!-- secteur nickel -->
<g id="node4" class="node">
<title>secteur nickel</title>
<ellipse fill="#c03a51" stroke="white" stroke-width="0" cx="297.71" cy="-191.71" rx="18" ry="18"/>
<text text-anchor="middle" x="251.21" y="-176.31" font-family="Helvetica,sans-Serif" font-size="8.00" fill="#4d4d4d">secteur nickel</text>
</g>
<!-- avenir avec nickel -->
<g id="node5" class="node">
<title>avenir avec nickel</title>
<ellipse fill="#3b0964" stroke="white" stroke-width="0" cx="421.43" cy="-88.28" rx="7" ry="7"/>
<text text-anchor="middle" x="377.93" y="-83.88" font-family="Helvetica,sans-Serif" font-size="8.00" fill="#4d4d4d">avenir avec nickel</text>
</g>
<!-- pollution -->
<g id="node6" class="node">
<title>pollution</title>
<ellipse fill="#e55c30" stroke="white" stroke-width="0" cx="199.69" cy="-161.66" rx="21.5" ry="21.5"/>
<text text-anchor="middle" x="159.69" y="-185.76" font-family="Helvetica,sans-Serif" font-size="8.00" fill="#4d4d4d">pollution</text>
</g>
<!-- ressource minière -->
<g id="node7" class="node">
<title>ressource minière</title>
<ellipse fill="#ec6726" stroke="white" stroke-width="0" cx="417.33" cy="-161.11" rx="25" ry="25"/>
<text text-anchor="middle" x="428.83" y="-129.71" font-family="Helvetica,sans-Serif" font-size="8.00" fill="#4d4d4d">ressource minière</text>
</g>
<!-- dégradation environnementale -->
<g id="node8" class="node">
<title>dégradation environnementale</title>
<ellipse fill="#fcffa4" stroke="white" stroke-width="0" cx="236.72" cy="-219.74" rx="36" ry="36"/>
<text text-anchor="middle" x="137.22" y="-258.34" font-family="Helvetica,sans-Serif" font-size="8.00" fill="#4d4d4d">dégradation environnementale</text>
</g>
<!-- société néo&#45;calédonienne -->
<g id="node9" class="node">
<title>société néo&#45;calédonienne</title>
<ellipse fill="#7c1d6d" stroke="white" stroke-width="0" cx="222.66" cy="-310.85" rx="14.5" ry="14.5"/>
<text text-anchor="middle" x="154.16" y="-327.95" font-family="Helvetica,sans-Serif" font-size="8.00" fill="#4d4d4d">société néo&#45;calédonienne</text>
</g>
<!-- alternative au développement -->
<g id="node10" class="node">
<title>alternative au développement</title>
<ellipse fill="#f8850f" stroke="white" stroke-width="0" cx="396.84" cy="-216.6" rx="25" ry="25"/>
<text text-anchor="middle" x="433.84" y="-244.2" font-family="Helvetica,sans-Serif" font-size="8.00" fill="#4d4d4d">alternative au développement</text>
</g>
<!-- économie -->
<g id="node11" class="node">
<title>économie</title>
<ellipse fill="#9d2964" stroke="white" stroke-width="0" cx="305.51" cy="-261.35" rx="14.5" ry="14.5"/>
<text text-anchor="middle" x="270.51" y="-278.45" font-family="Helvetica,sans-Serif" font-size="8.00" fill="#4d4d4d">économie</text>
</g>
<!-- amélioration environnementale -->
<g id="node12" class="node">
<title>amélioration environnementale</title>
<ellipse fill="#61136e" stroke="white" stroke-width="0" cx="279.5" cy="-40.5" rx="11" ry="11"/>
<text text-anchor="middle" x="204" y="-54.1" font-family="Helvetica,sans-Serif" font-size="8.00" fill="#4d4d4d">amélioration environnementale</text>
</g>
<!-- essor technologique -->
<g id="node13" class="node">
<title>essor technologique</title>
<ellipse fill="#9b2964" stroke="white" stroke-width="0" cx="349.64" cy="-14.5" rx="14.5" ry="14.5"/>
<text text-anchor="middle" x="292.64" y="-2.6" font-family="Helvetica,sans-Serif" font-size="8.00" fill="#4d4d4d">essor technologique</text>
</g>
<!-- nickel -->
<g id="node14" class="node">
<title>nickel</title>
<ellipse fill="#140b34" stroke="white" stroke-width="0" cx="120.4" cy="-196.15" rx="3.5" ry="3.5"/>
<text text-anchor="middle" x="104.9" y="-202.25" font-family="Helvetica,sans-Serif" font-size="8.00" fill="#4d4d4d">nickel</text>
</g>
<!-- exploitation minière -->
<g id="node15" class="node">
<title>exploitation minière</title>
<ellipse fill="#000004" stroke="white" stroke-width="0" cx="712.82" cy="-305.48" rx="0.5" ry="0.5"/>
<text text-anchor="middle" x="671.82" y="-308.58" font-family="Helvetica,sans-Serif" font-size="8.00" fill="#4d4d4d">exploitation minière</text>
</g>
<!-- relation politique -->
<g id="node16" class="node">
<title>relation politique</title>
<ellipse fill="#02020e" stroke="white" stroke-width="0" cx="266.59" cy="-439.91" rx="0.5" ry="0.5"/>
<text text-anchor="middle" x="231.09" y="-443.01" font-family="Helvetica,sans-Serif" font-size="8.00" fill="#4d4d4d">relation politique</text>
</g>
<!-- nouvelle&#45;calédonie -->
<g id="node17" class="node">
<title>nouvelle&#45;calédonie</title>
<ellipse fill="#150b37" stroke="white" stroke-width="0" cx="448.78" cy="-384.86" rx="3.5" ry="3.5"/>
<text text-anchor="middle" x="405.78" y="-390.96" font-family="Helvetica,sans-Serif" font-size="8.00" fill="#4d4d4d">nouvelle&#45;calédonie</text>
</g>
<!-- nature -->
<g id="node18" class="node">
<title>nature</title>
<ellipse fill="#380962" stroke="white" stroke-width="0" cx="34" cy="-343.4" rx="7" ry="7"/>
<text text-anchor="middle" x="13.5" y="-353" font-family="Helvetica,sans-Serif" font-size="8.00" fill="#4d4d4d">nature</text>
</g>
</g>
</svg>
