<?xml version="1.0" encoding="UTF-8" standalone="no"?>
<!DOCTYPE svg PUBLIC "-//W3C//DTD SVG 1.1//EN"
 "http://www.w3.org/Graphics/SVG/1.1/DTD/svg11.dtd">
<!-- Generated by graphviz version 2.43.0 (0)
 -->
<!-- Pages: 1 -->
<svg width="878pt" height="505pt"
 viewBox="0.00 0.00 878.20 504.62" xmlns="http://www.w3.org/2000/svg" xmlns:xlink="http://www.w3.org/1999/xlink">
<g id="graph0" class="graph" transform="scale(1 1) rotate(0) translate(4 500.62)">
<polygon fill="white" stroke="transparent" points="-4,4 -4,-500.62 874.2,-500.62 874.2,4 -4,4"/>
<!-- pollution&#45;&#45;dégradation environnementale -->
<g id="edge1" class="edge">
<title>pollution&#45;&#45;dégradation environnementale</title>
<path fill="none" stroke="darkgrey" stroke-width="9.06" d="M369.48,-168.23C381.22,-192.18 403.46,-237.53 418.63,-268.45"/>
</g>
<!-- pollution&#45;&#45;nouvelle&#45;calédonie -->
<g id="edge2" class="edge">
<title>pollution&#45;&#45;nouvelle&#45;calédonie</title>
<path fill="none" stroke="darkgrey" stroke-width="1.57" d="M343.22,-151.58C286.24,-150.22 114.17,-146.11 86.33,-145.44"/>
</g>
<!-- pollution&#45;&#45;travail -->
<g id="edge3" class="edge">
<title>pollution&#45;&#45;travail</title>
<path fill="none" stroke="darkgrey" stroke-width="6.53" d="M344.26,-145.6C330.43,-140.47 311,-133.25 296.44,-127.84"/>
</g>
<!-- pollution&#45;&#45;économie -->
<g id="edge4" class="edge">
<title>pollution&#45;&#45;économie</title>
<path fill="none" stroke="darkgrey" stroke-width="5.41" d="M358.61,-169.84C355.76,-187.25 351.44,-213.64 348.58,-231.13"/>
</g>
<!-- pollution&#45;&#45;nickel -->
<g id="edge5" class="edge">
<title>pollution&#45;&#45;nickel</title>
<path fill="none" stroke="darkgrey" stroke-width="5.32" d="M374.47,-164.58C385.18,-174.96 400.7,-190.03 413.95,-202.89"/>
</g>
<!-- pollution&#45;&#45;ressource minière -->
<g id="edge6" class="edge">
<title>pollution&#45;&#45;ressource minière</title>
<path fill="none" stroke="darkgrey" stroke-width="2.17" d="M345.93,-161.71C295.28,-193.16 136.37,-291.86 95.65,-317.15"/>
</g>
<!-- pollution&#45;&#45;politique -->
<g id="edge7" class="edge">
<title>pollution&#45;&#45;politique</title>
<path fill="none" stroke="darkgrey" stroke-width="3.26" d="M343.69,-155.12C308.75,-161.19 231.91,-174.54 199.96,-180.09"/>
</g>
<!-- pollution&#45;&#45;secteur nickel -->
<g id="edge8" class="edge">
<title>pollution&#45;&#45;secteur nickel</title>
<path fill="none" stroke="darkgrey" stroke-width="3.37" d="M346.04,-161.69C331.82,-170.57 310.85,-183.66 296.65,-192.53"/>
</g>
<!-- pollution&#45;&#45;nature -->
<g id="edge9" class="edge">
<title>pollution&#45;&#45;nature</title>
<path fill="none" stroke="darkgrey" stroke-width="3.63" d="M344.49,-158.03C297.19,-174.74 164.84,-221.49 121.72,-236.72"/>
</g>
<!-- pollution&#45;&#45;amélioration environnementale -->
<g id="edge10" class="edge">
<title>pollution&#45;&#45;amélioration environnementale</title>
<path fill="none" stroke="darkgrey" stroke-width="1.19" d="M379.48,-148.34C439.39,-136.06 629.32,-97.14 641.14,-94.72"/>
</g>
<!-- pollution&#45;&#45;société néo&#45;calédonienne -->
<g id="edge11" class="edge">
<title>pollution&#45;&#45;société néo&#45;calédonienne</title>
<path fill="none" stroke="darkgrey" stroke-width="1.69" d="M345.17,-144.08C299.77,-122.05 174.13,-61.07 151.92,-50.29"/>
</g>
<!-- pollution&#45;&#45;exploitation minière -->
<g id="edge12" class="edge">
<title>pollution&#45;&#45;exploitation minière</title>
<path fill="none" stroke="darkgrey" stroke-width="2.34" d="M355.26,-168.96C341.67,-205.67 309.74,-291.96 297.33,-325.51"/>
</g>
<!-- pollution&#45;&#45;alternative au développement -->
<g id="edge13" class="edge">
<title>pollution&#45;&#45;alternative au développement</title>
<path fill="none" stroke="darkgrey" stroke-width="2.04" d="M353.33,-168.49C322.18,-231.05 212.24,-451.9 197.78,-480.96"/>
</g>
<!-- pollution&#45;&#45;matériel -->
<g id="edge14" class="edge">
<title>pollution&#45;&#45;matériel</title>
<path fill="none" stroke="darkgrey" stroke-width="2.93" d="M363.21,-170.18C367.34,-214.64 377.89,-328.21 381.67,-368.82"/>
</g>
<!-- pollution&#45;&#45;foncier -->
<g id="edge15" class="edge">
<title>pollution&#45;&#45;foncier</title>
<path fill="none" stroke="darkgrey" stroke-width="1.27" d="M354.87,-135.1C342.28,-103.12 315.51,-35.09 307.06,-13.63"/>
</g>
<!-- pollution&#45;&#45;relation politique -->
<g id="edge16" class="edge">
<title>pollution&#45;&#45;relation politique</title>
<path fill="none" stroke="darkgrey" stroke-width="1.14" d="M348.44,-165.01C301.45,-211.69 142.8,-369.28 120.73,-391.21"/>
</g>
<!-- pollution&#45;&#45;industrie -->
<g id="edge17" class="edge">
<title>pollution&#45;&#45;industrie</title>
<path fill="none" stroke="darkgrey" stroke-width="2.96" d="M348.67,-164.65C320.72,-192.13 254.69,-257.03 226.67,-284.57"/>
</g>
<!-- pollution&#45;&#45;risque -->
<g id="edge18" class="edge">
<title>pollution&#45;&#45;risque</title>
<path fill="none" stroke="darkgrey" stroke-width="1.1" d="M373.83,-138.85C400.24,-110.58 461.04,-45.51 474.02,-31.62"/>
</g>
<!-- pollution&#45;&#45;échange commercial -->
<g id="edge19" class="edge">
<title>pollution&#45;&#45;échange commercial</title>
<path fill="none" stroke="darkgrey" stroke-width="1.32" d="M356.88,-169.48C341.6,-226.89 293.33,-408.24 283.32,-445.85"/>
</g>
<!-- dégradation environnementale&#45;&#45;nouvelle&#45;calédonie -->
<g id="edge20" class="edge">
<title>dégradation environnementale&#45;&#45;nouvelle&#45;calédonie</title>
<path fill="none" stroke="darkgrey" stroke-width="1.8" d="M401.39,-286.2C319.92,-250.21 114.31,-159.4 85.8,-146.81"/>
</g>
<!-- dégradation environnementale&#45;&#45;travail -->
<g id="edge21" class="edge">
<title>dégradation environnementale&#45;&#45;travail</title>
<path fill="none" stroke="darkgrey" stroke-width="8.13" d="M410.46,-273.41C377.07,-235.34 317.72,-167.66 290.53,-136.66"/>
</g>
<!-- dégradation environnementale&#45;&#45;économie -->
<g id="edge22" class="edge">
<title>dégradation environnementale&#45;&#45;économie</title>
<path fill="none" stroke="darkgrey" stroke-width="7.51" d="M403.17,-282.61C388.98,-274.36 372.83,-264.97 361.26,-258.24"/>
</g>
<!-- dégradation environnementale&#45;&#45;nickel -->
<g id="edge23" class="edge">
<title>dégradation environnementale&#45;&#45;nickel</title>
<path fill="none" stroke="darkgrey" stroke-width="10" d="M437.19,-264.89C437.21,-264.6 437.23,-264.32 437.25,-264.03"/>
</g>
<!-- dégradation environnementale&#45;&#45;ressource minière -->
<g id="edge24" class="edge">
<title>dégradation environnementale&#45;&#45;ressource minière</title>
<path fill="none" stroke="darkgrey" stroke-width="4.43" d="M398.53,-303.12C321.32,-308.06 143.04,-319.46 97.05,-322.4"/>
</g>
<!-- dégradation environnementale&#45;&#45;politique -->
<g id="edge25" class="edge">
<title>dégradation environnementale&#45;&#45;politique</title>
<path fill="none" stroke="darkgrey" stroke-width="4.69" d="M401.96,-285.36C346.75,-259.14 237,-207 198.95,-188.93"/>
</g>
<!-- dégradation environnementale&#45;&#45;secteur nickel -->
<g id="edge26" class="edge">
<title>dégradation environnementale&#45;&#45;secteur nickel</title>
<path fill="none" stroke="darkgrey" stroke-width="4.78" d="M404.22,-281.33C371.76,-260.44 321.53,-228.12 296.49,-212.01"/>
</g>
<!-- dégradation environnementale&#45;&#45;nature -->
<g id="edge27" class="edge">
<title>dégradation environnementale&#45;&#45;nature</title>
<path fill="none" stroke="darkgrey" stroke-width="5.38" d="M398.93,-294.37C327.85,-281.48 170.92,-253.01 122.47,-244.22"/>
</g>
<!-- dégradation environnementale&#45;&#45;amélioration environnementale -->
<g id="edge28" class="edge">
<title>dégradation environnementale&#45;&#45;amélioration environnementale</title>
<path fill="none" stroke="darkgrey" stroke-width="1.5" d="M460.33,-275.12C514.14,-221.57 633.92,-102.36 641.35,-94.96"/>
</g>
<!-- dégradation environnementale&#45;&#45;société néo&#45;calédonienne -->
<g id="edge29" class="edge">
<title>dégradation environnementale&#45;&#45;société néo&#45;calédonienne</title>
<path fill="none" stroke="darkgrey" stroke-width="2.18" d="M407.34,-276.87C340.98,-218.35 174.32,-71.39 151.21,-51.01"/>
</g>
<!-- dégradation environnementale&#45;&#45;exploitation minière -->
<g id="edge30" class="edge">
<title>dégradation environnementale&#45;&#45;exploitation minière</title>
<path fill="none" stroke="darkgrey" stroke-width="4.15" d="M399.71,-310.2C369.77,-318.28 328.1,-329.52 306.51,-335.34"/>
</g>
<!-- dégradation environnementale&#45;&#45;alternative au développement -->
<g id="edge31" class="edge">
<title>dégradation environnementale&#45;&#45;alternative au développement</title>
<path fill="none" stroke="darkgrey" stroke-width="2.39" d="M405.76,-322.93C347.58,-367.69 219.63,-466.1 199.03,-481.95"/>
</g>
<!-- dégradation environnementale&#45;&#45;matériel -->
<g id="edge32" class="edge">
<title>dégradation environnementale&#45;&#45;matériel</title>
<path fill="none" stroke="darkgrey" stroke-width="4.57" d="M415.34,-331.62C406.88,-345.22 397.4,-360.45 390.91,-370.88"/>
</g>
<!-- dégradation environnementale&#45;&#45;foncier -->
<g id="edge33" class="edge">
<title>dégradation environnementale&#45;&#45;foncier</title>
<path fill="none" stroke="darkgrey" stroke-width="2.46" d="M419.84,-267.69C389.68,-199.55 322.28,-47.28 307.4,-13.65"/>
</g>
<!-- dégradation environnementale&#45;&#45;relation politique -->
<g id="edge34" class="edge">
<title>dégradation environnementale&#45;&#45;relation politique</title>
<path fill="none" stroke="darkgrey" stroke-width="1.54" d="M399.75,-311.03C323.99,-333.29 148.61,-384.81 121.67,-392.72"/>
</g>
<!-- dégradation environnementale&#45;&#45;industrie -->
<g id="edge35" class="edge">
<title>dégradation environnementale&#45;&#45;industrie</title>
<path fill="none" stroke="darkgrey" stroke-width="4.12" d="M398.05,-300.24C350.29,-299.47 268.35,-298.16 232.01,-297.58"/>
</g>
<!-- dégradation environnementale&#45;&#45;risque -->
<g id="edge36" class="edge">
<title>dégradation environnementale&#45;&#45;risque</title>
<path fill="none" stroke="darkgrey" stroke-width="1.88" d="M440.04,-265C450.41,-197.82 472.1,-57.41 475.91,-32.72"/>
</g>
<!-- dégradation environnementale&#45;&#45;échange commercial -->
<g id="edge37" class="edge">
<title>dégradation environnementale&#45;&#45;échange commercial</title>
<path fill="none" stroke="darkgrey" stroke-width="2.46" d="M408.89,-326.25C371.8,-363.07 305.5,-428.9 286.63,-447.63"/>
</g>
<!-- dégradation environnementale&#45;&#45;avenir sans nickel -->
<g id="edge38" class="edge">
<title>dégradation environnementale&#45;&#45;avenir sans nickel</title>
<path fill="none" stroke="darkgrey" stroke-width="1.26" d="M469.75,-309.59C570.12,-334.56 851.37,-404.54 868.85,-408.88"/>
</g>
<!-- nouvelle&#45;calédonie&#45;&#45;travail -->
<g id="edge39" class="edge">
<title>nouvelle&#45;calédonie&#45;&#45;travail</title>
<path fill="none" stroke="darkgrey" stroke-width="1.89" d="M86.2,-144.87C106.91,-142.2 209.24,-128.97 254.55,-123.12"/>
</g>
<!-- nouvelle&#45;calédonie&#45;&#45;économie -->
<g id="edge40" class="edge">
<title>nouvelle&#45;calédonie&#45;&#45;économie</title>
<path fill="none" stroke="darkgrey" stroke-width="1.67" d="M85.83,-146.66C111.23,-156.69 274.96,-221.28 328.63,-242.45"/>
</g>
<!-- nouvelle&#45;calédonie&#45;&#45;nickel -->
<g id="edge41" class="edge">
<title>nouvelle&#45;calédonie&#45;&#45;nickel</title>
<path fill="none" stroke="darkgrey" stroke-width="2.89" d="M86.04,-146.17C115.51,-152.99 321.26,-200.63 404.8,-219.97"/>
</g>
<!-- nouvelle&#45;calédonie&#45;&#45;ressource minière -->
<g id="edge42" class="edge">
<title>nouvelle&#45;calédonie&#45;&#45;ressource minière</title>
<path fill="none" stroke="darkgrey" stroke-width="1.57" d="M82.57,-149.07C83,-170.3 85.13,-276.68 85.84,-311.82"/>
</g>
<!-- nouvelle&#45;calédonie&#45;&#45;politique -->
<g id="edge43" class="edge">
<title>nouvelle&#45;calédonie&#45;&#45;politique</title>
<path fill="none" stroke="darkgrey" stroke-width="2.12" d="M85.93,-146.59C99.21,-151.39 147.67,-168.89 171.78,-177.6"/>
</g>
<!-- nouvelle&#45;calédonie&#45;&#45;secteur nickel -->
<g id="edge44" class="edge">
<title>nouvelle&#45;calédonie&#45;&#45;secteur nickel</title>
<path fill="none" stroke="darkgrey" stroke-width="1.84" d="M85.95,-146.34C107.13,-152.4 220.13,-184.71 263.88,-197.22"/>
</g>
<!-- nouvelle&#45;calédonie&#45;&#45;nature -->
<g id="edge45" class="edge">
<title>nouvelle&#45;calédonie&#45;&#45;nature</title>
<path fill="none" stroke="darkgrey" stroke-width="1.34" d="M83.47,-149.01C86.84,-161.78 98.23,-204.86 104.21,-227.47"/>
</g>
<!-- nouvelle&#45;calédonie&#45;&#45;société néo&#45;calédonienne -->
<g id="edge46" class="edge">
<title>nouvelle&#45;calédonie&#45;&#45;société néo&#45;calédonienne</title>
<path fill="none" stroke="darkgrey" stroke-width="1.09" d="M84.7,-142.14C94.81,-127.32 136.82,-65.81 146.53,-51.6"/>
</g>
<!-- nouvelle&#45;calédonie&#45;&#45;exploitation minière -->
<g id="edge47" class="edge">
<title>nouvelle&#45;calédonie&#45;&#45;exploitation minière</title>
<path fill="none" stroke="darkgrey" stroke-width="1.34" d="M85.15,-147.8C105.88,-166.95 242.11,-292.83 281.57,-329.29"/>
</g>
<!-- nouvelle&#45;calédonie&#45;&#45;foncier -->
<g id="edge48" class="edge">
<title>nouvelle&#45;calédonie&#45;&#45;foncier</title>
<path fill="none" stroke="darkgrey" stroke-width="1.06" d="M85.64,-143.4C109.77,-128.35 265.82,-31.08 298.47,-10.73"/>
</g>
<!-- nouvelle&#45;calédonie&#45;&#45;relation politique -->
<g id="edge49" class="edge">
<title>nouvelle&#45;calédonie&#45;&#45;relation politique</title>
<path fill="none" stroke="darkgrey" stroke-width="1.1" d="M83,-148.86C87,-176.7 113.51,-361.33 117.63,-390.01"/>
</g>
<!-- nouvelle&#45;calédonie&#45;&#45;industrie -->
<g id="edge50" class="edge">
<title>nouvelle&#45;calédonie&#45;&#45;industrie</title>
<path fill="none" stroke="darkgrey" stroke-width="1.61" d="M85,-148.25C99.46,-164.99 172.62,-249.69 201.75,-283.41"/>
</g>
<!-- nouvelle&#45;calédonie&#45;&#45;échange commercial -->
<g id="edge51" class="edge">
<title>nouvelle&#45;calédonie&#45;&#45;échange commercial</title>
<path fill="none" stroke="darkgrey" stroke-width="1.06" d="M84.47,-148.39C103.32,-177.51 251.69,-406.7 277.63,-446.76"/>
</g>
<!-- travail&#45;&#45;économie -->
<g id="edge52" class="edge">
<title>travail&#45;&#45;économie</title>
<path fill="none" stroke="darkgrey" stroke-width="7.06" d="M286.45,-139.33C300.1,-164.67 324.03,-209.08 336.88,-232.93"/>
</g>
<!-- travail&#45;&#45;nickel -->
<g id="edge53" class="edge">
<title>travail&#45;&#45;nickel</title>
<path fill="none" stroke="darkgrey" stroke-width="8.23" d="M294.35,-132.27C322.24,-150.63 375.96,-185.99 409.77,-208.24"/>
</g>
<!-- travail&#45;&#45;ressource minière -->
<g id="edge54" class="edge">
<title>travail&#45;&#45;ressource minière</title>
<path fill="none" stroke="darkgrey" stroke-width="3.53" d="M261.28,-136.23C223.11,-176.94 122.89,-283.83 93.98,-314.67"/>
</g>
<!-- travail&#45;&#45;politique -->
<g id="edge55" class="edge">
<title>travail&#45;&#45;politique</title>
<path fill="none" stroke="darkgrey" stroke-width="4.36" d="M258.3,-132.62C240.35,-144.96 213.21,-163.6 197.67,-174.28"/>
</g>
<!-- travail&#45;&#45;secteur nickel -->
<g id="edge56" class="edge">
<title>travail&#45;&#45;secteur nickel</title>
<path fill="none" stroke="darkgrey" stroke-width="5.01" d="M277.52,-141.83C278.32,-155 279.34,-171.66 280.1,-184.13"/>
</g>
<!-- travail&#45;&#45;nature -->
<g id="edge57" class="edge">
<title>travail&#45;&#45;nature</title>
<path fill="none" stroke="darkgrey" stroke-width="3.76" d="M258.51,-133.07C224.09,-157.88 148.91,-212.06 119.79,-233.04"/>
</g>
<!-- travail&#45;&#45;amélioration environnementale -->
<g id="edge58" class="edge">
<title>travail&#45;&#45;amélioration environnementale</title>
<path fill="none" stroke="darkgrey" stroke-width="1.16" d="M297.7,-118.81C373.6,-113.47 625.29,-95.75 640.95,-94.65"/>
</g>
<!-- travail&#45;&#45;société néo&#45;calédonienne -->
<g id="edge59" class="edge">
<title>travail&#45;&#45;société néo&#45;calédonienne</title>
<path fill="none" stroke="darkgrey" stroke-width="2.02" d="M257.37,-109.75C226.29,-92.3 166.28,-58.61 151.76,-50.46"/>
</g>
<!-- travail&#45;&#45;exploitation minière -->
<g id="edge60" class="edge">
<title>travail&#45;&#45;exploitation minière</title>
<path fill="none" stroke="darkgrey" stroke-width="3.53" d="M277.8,-142.11C281.07,-186.65 288.45,-287.12 291.2,-324.66"/>
</g>
<!-- travail&#45;&#45;alternative au développement -->
<g id="edge61" class="edge">
<title>travail&#45;&#45;alternative au développement</title>
<path fill="none" stroke="darkgrey" stroke-width="1.58" d="M271.56,-141.45C255.68,-213.64 204.19,-447.78 197.03,-480.35"/>
</g>
<!-- travail&#45;&#45;matériel -->
<g id="edge62" class="edge">
<title>travail&#45;&#45;matériel</title>
<path fill="none" stroke="darkgrey" stroke-width="3.85" d="M284.41,-140.54C305.27,-191.94 359.93,-326.62 377.51,-369.92"/>
</g>
<!-- travail&#45;&#45;foncier -->
<g id="edge63" class="edge">
<title>travail&#45;&#45;foncier</title>
<path fill="none" stroke="darkgrey" stroke-width="1.76" d="M281.45,-99.27C287.9,-73.41 298.49,-30.91 302.67,-14.13"/>
</g>
<!-- travail&#45;&#45;relation politique -->
<g id="edge64" class="edge">
<title>travail&#45;&#45;relation politique</title>
<path fill="none" stroke="darkgrey" stroke-width="1.44" d="M265.34,-139.12C232.29,-196.31 134.3,-365.84 119.93,-390.7"/>
</g>
<!-- travail&#45;&#45;industrie -->
<g id="edge65" class="edge">
<title>travail&#45;&#45;industrie</title>
<path fill="none" stroke="darkgrey" stroke-width="4.16" d="M269.04,-140.62C256.63,-175.76 231.39,-247.28 219.8,-280.11"/>
</g>
<!-- travail&#45;&#45;risque -->
<g id="edge66" class="edge">
<title>travail&#45;&#45;risque</title>
<path fill="none" stroke="darkgrey" stroke-width="2.02" d="M295.77,-111.4C341.44,-90.57 452.76,-39.8 473.23,-30.47"/>
</g>
<!-- travail&#45;&#45;échange commercial -->
<g id="edge67" class="edge">
<title>travail&#45;&#45;échange commercial</title>
<path fill="none" stroke="darkgrey" stroke-width="2.13" d="M276.55,-141.88C277.6,-207.91 280.74,-405.37 281.38,-445.54"/>
</g>
<!-- économie&#45;&#45;nickel -->
<g id="edge68" class="edge">
<title>économie&#45;&#45;nickel</title>
<path fill="none" stroke="darkgrey" stroke-width="6.45" d="M363.37,-245.2C375,-242.6 390.61,-239.12 404.7,-235.97"/>
</g>
<!-- économie&#45;&#45;ressource minière -->
<g id="edge69" class="edge">
<title>économie&#45;&#45;ressource minière</title>
<path fill="none" stroke="darkgrey" stroke-width="2.5" d="M328.2,-254.13C278.41,-268.31 136.61,-308.71 96.66,-320.09"/>
</g>
<!-- économie&#45;&#45;politique -->
<g id="edge70" class="edge">
<title>économie&#45;&#45;politique</title>
<path fill="none" stroke="darkgrey" stroke-width="4.84" d="M328.81,-242.16C296.87,-228.87 228.04,-200.24 198.98,-188.15"/>
</g>
<!-- économie&#45;&#45;secteur nickel -->
<g id="edge71" class="edge">
<title>économie&#45;&#45;secteur nickel</title>
<path fill="none" stroke="darkgrey" stroke-width="3.83" d="M331.01,-238.5C320.47,-230.81 306.3,-220.47 295.77,-212.79"/>
</g>
<!-- économie&#45;&#45;nature -->
<g id="edge72" class="edge">
<title>économie&#45;&#45;nature</title>
<path fill="none" stroke="darkgrey" stroke-width="2.96" d="M327.37,-248.58C281.83,-247.13 163.87,-243.37 122.52,-242.05"/>
</g>
<!-- économie&#45;&#45;amélioration environnementale -->
<g id="edge73" class="edge">
<title>économie&#45;&#45;amélioration environnementale</title>
<path fill="none" stroke="darkgrey" stroke-width="1.17" d="M361.97,-240.63C422.1,-209.24 628.26,-101.62 641.09,-94.92"/>
</g>
<!-- économie&#45;&#45;société néo&#45;calédonienne -->
<g id="edge74" class="edge">
<title>économie&#45;&#45;société néo&#45;calédonienne</title>
<path fill="none" stroke="darkgrey" stroke-width="1.66" d="M333,-236.31C292.9,-195.52 169.97,-70.46 151.01,-51.17"/>
</g>
<!-- économie&#45;&#45;exploitation minière -->
<g id="edge75" class="edge">
<title>économie&#45;&#45;exploitation minière</title>
<path fill="none" stroke="darkgrey" stroke-width="2.22" d="M336.34,-264.84C325.94,-282.37 309.32,-310.41 299.74,-326.58"/>
</g>
<!-- économie&#45;&#45;alternative au développement -->
<g id="edge76" class="edge">
<title>économie&#45;&#45;alternative au développement</title>
<path fill="none" stroke="darkgrey" stroke-width="1.67" d="M335.83,-264.58C305.31,-312.56 213.16,-457.45 198.25,-480.9"/>
</g>
<!-- économie&#45;&#45;matériel -->
<g id="edge77" class="edge">
<title>économie&#45;&#45;matériel</title>
<path fill="none" stroke="darkgrey" stroke-width="2.42" d="M350.52,-266.73C358.01,-293.62 372.16,-344.47 379.06,-369.25"/>
</g>
<!-- économie&#45;&#45;foncier -->
<g id="edge78" class="edge">
<title>économie&#45;&#45;foncier</title>
<path fill="none" stroke="darkgrey" stroke-width="1.38" d="M342.6,-231.36C334.24,-182.2 311.11,-46.14 305.63,-13.91"/>
</g>
<!-- économie&#45;&#45;relation politique -->
<g id="edge79" class="edge">
<title>économie&#45;&#45;relation politique</title>
<path fill="none" stroke="darkgrey" stroke-width="1.54" d="M330.35,-258.87C283.54,-288.63 143.87,-377.41 121.27,-391.78"/>
</g>
<!-- économie&#45;&#45;industrie -->
<g id="edge80" class="edge">
<title>économie&#45;&#45;industrie</title>
<path fill="none" stroke="darkgrey" stroke-width="2.82" d="M328.66,-255.35C303.47,-264.54 256.45,-281.7 231.06,-290.96"/>
</g>
<!-- économie&#45;&#45;risque -->
<g id="edge81" class="edge">
<title>économie&#45;&#45;risque</title>
<path fill="none" stroke="darkgrey" stroke-width="1.18" d="M354.83,-233.68C382.06,-187.87 461.16,-54.78 474.55,-32.24"/>
</g>
<!-- économie&#45;&#45;échange commercial -->
<g id="edge82" class="edge">
<title>économie&#45;&#45;échange commercial</title>
<path fill="none" stroke="darkgrey" stroke-width="1.84" d="M340.16,-266.52C326.71,-309.21 292.47,-417.89 283.61,-446"/>
</g>
<!-- nickel&#45;&#45;ressource minière -->
<g id="edge83" class="edge">
<title>nickel&#45;&#45;ressource minière</title>
<path fill="none" stroke="darkgrey" stroke-width="5.36" d="M405.04,-237.47C327.27,-258.35 142.95,-307.83 96.72,-320.24"/>
</g>
<!-- nickel&#45;&#45;politique -->
<g id="edge84" class="edge">
<title>nickel&#45;&#45;politique</title>
<path fill="none" stroke="darkgrey" stroke-width="3.53" d="M404.3,-221.72C347.57,-211.57 239.11,-192.16 200.06,-185.17"/>
</g>
<!-- nickel&#45;&#45;secteur nickel -->
<g id="edge85" class="edge">
<title>nickel&#45;&#45;secteur nickel</title>
<path fill="none" stroke="darkgrey" stroke-width="6.52" d="M404.31,-222.28C371.59,-216.94 324.44,-209.24 299.04,-205.09"/>
</g>
<!-- nickel&#45;&#45;nature -->
<g id="edge86" class="edge">
<title>nickel&#45;&#45;nature</title>
<path fill="none" stroke="darkgrey" stroke-width="5.69" d="M403.77,-229.57C331.51,-232.51 171.96,-238.98 122.71,-240.98"/>
</g>
<!-- nickel&#45;&#45;amélioration environnementale -->
<g id="edge87" class="edge">
<title>nickel&#45;&#45;amélioration environnementale</title>
<path fill="none" stroke="darkgrey" stroke-width="1.18" d="M470.14,-208.11C523.8,-172.62 631.04,-101.66 640.97,-95.09"/>
</g>
<!-- nickel&#45;&#45;société néo&#45;calédonienne -->
<g id="edge88" class="edge">
<title>nickel&#45;&#45;société néo&#45;calédonienne</title>
<path fill="none" stroke="darkgrey" stroke-width="1.29" d="M409.03,-209.07C339.89,-166.49 176.85,-66.09 151.79,-50.66"/>
</g>
<!-- nickel&#45;&#45;exploitation minière -->
<g id="edge89" class="edge">
<title>nickel&#45;&#45;exploitation minière</title>
<path fill="none" stroke="darkgrey" stroke-width="7.17" d="M411.11,-249.78C378.55,-274.28 327.09,-312.99 304.07,-330.3"/>
</g>
<!-- nickel&#45;&#45;alternative au développement -->
<g id="edge90" class="edge">
<title>nickel&#45;&#45;alternative au développement</title>
<path fill="none" stroke="darkgrey" stroke-width="1.91" d="M414.77,-254.54C357.12,-315.09 218.88,-460.3 198.68,-481.52"/>
</g>
<!-- nickel&#45;&#45;matériel -->
<g id="edge91" class="edge">
<title>nickel&#45;&#45;matériel</title>
<path fill="none" stroke="darkgrey" stroke-width="5.77" d="M427.45,-262.21C415.08,-295.99 396.77,-346.03 388.03,-369.9"/>
</g>
<!-- nickel&#45;&#45;foncier -->
<g id="edge92" class="edge">
<title>nickel&#45;&#45;foncier</title>
<path fill="none" stroke="darkgrey" stroke-width="2.53" d="M421.1,-197.36C388.67,-144.44 324.23,-39.27 308.15,-13.04"/>
</g>
<!-- nickel&#45;&#45;relation politique -->
<g id="edge93" class="edge">
<title>nickel&#45;&#45;relation politique</title>
<path fill="none" stroke="darkgrey" stroke-width="1.53" d="M407.91,-244.59C332.56,-283.38 148.4,-378.19 121.48,-392.05"/>
</g>
<!-- nickel&#45;&#45;industrie -->
<g id="edge94" class="edge">
<title>nickel&#45;&#45;industrie</title>
<path fill="none" stroke="darkgrey" stroke-width="8.07" d="M405.09,-238.76C356.01,-253.77 268.38,-280.57 231.19,-291.94"/>
</g>
<!-- nickel&#45;&#45;risque -->
<g id="edge95" class="edge">
<title>nickel&#45;&#45;risque</title>
<path fill="none" stroke="darkgrey" stroke-width="1.25" d="M446.47,-192.5C455.84,-141.49 472.33,-51.63 475.83,-32.59"/>
</g>
<!-- nickel&#45;&#45;échange commercial -->
<g id="edge96" class="edge">
<title>nickel&#45;&#45;échange commercial</title>
<path fill="none" stroke="darkgrey" stroke-width="3.26" d="M418.9,-257.93C381.18,-311.39 304.27,-420.44 285.63,-446.86"/>
</g>
<!-- nickel&#45;&#45;avenir sans nickel -->
<g id="edge97" class="edge">
<title>nickel&#45;&#45;avenir sans nickel</title>
<path fill="none" stroke="darkgrey" stroke-width="1.14" d="M473.3,-242.15C571.91,-283.68 855.96,-403.31 869.22,-408.89"/>
</g>
<!-- ressource minière&#45;&#45;politique -->
<g id="edge98" class="edge">
<title>ressource minière&#45;&#45;politique</title>
<path fill="none" stroke="darkgrey" stroke-width="3.06" d="M92.59,-313.88C109.98,-289.34 157.39,-222.39 176.97,-194.76"/>
</g>
<!-- ressource minière&#45;&#45;secteur nickel -->
<g id="edge99" class="edge">
<title>ressource minière&#45;&#45;secteur nickel</title>
<path fill="none" stroke="darkgrey" stroke-width="2.3" d="M95.48,-317.27C126.69,-297.93 227.01,-235.76 265.75,-211.75"/>
</g>
<!-- ressource minière&#45;&#45;nature -->
<g id="edge100" class="edge">
<title>ressource minière&#45;&#45;nature</title>
<path fill="none" stroke="darkgrey" stroke-width="2.08" d="M88.92,-312.45C92.82,-297.95 99.79,-271.96 104.12,-255.81"/>
</g>
<!-- ressource minière&#45;&#45;société néo&#45;calédonienne -->
<g id="edge101" class="edge">
<title>ressource minière&#45;&#45;société néo&#45;calédonienne</title>
<path fill="none" stroke="darkgrey" stroke-width="1.06" d="M88.51,-312.35C99.16,-265.57 141.19,-80.94 147.69,-52.38"/>
</g>
<!-- ressource minière&#45;&#45;exploitation minière -->
<g id="edge102" class="edge">
<title>ressource minière&#45;&#45;exploitation minière</title>
<path fill="none" stroke="darkgrey" stroke-width="2.58" d="M97.15,-323.97C131.87,-326.68 238.49,-334.99 277.65,-338.04"/>
</g>
<!-- ressource minière&#45;&#45;alternative au développement -->
<g id="edge103" class="edge">
<title>ressource minière&#45;&#45;alternative au développement</title>
<path fill="none" stroke="darkgrey" stroke-width="1.15" d="M92.3,-332.22C113.42,-363.09 181.59,-462.76 194.19,-481.18"/>
</g>
<!-- ressource minière&#45;&#45;matériel -->
<g id="edge104" class="edge">
<title>ressource minière&#45;&#45;matériel</title>
<path fill="none" stroke="darkgrey" stroke-width="2.11" d="M96.99,-325.33C142.5,-334.59 317.16,-370.13 368.66,-380.62"/>
</g>
<!-- ressource minière&#45;&#45;relation politique -->
<g id="edge105" class="edge">
<title>ressource minière&#45;&#45;relation politique</title>
<path fill="none" stroke="darkgrey" stroke-width="1.11" d="M90.66,-333.23C98.02,-349.4 112.05,-380.29 116.66,-390.43"/>
</g>
<!-- ressource minière&#45;&#45;industrie -->
<g id="edge106" class="edge">
<title>ressource minière&#45;&#45;industrie</title>
<path fill="none" stroke="darkgrey" stroke-width="2.68" d="M96.95,-320.9C119.02,-316.44 169.21,-306.29 196.05,-300.86"/>
</g>
<!-- ressource minière&#45;&#45;échange commercial -->
<g id="edge107" class="edge">
<title>ressource minière&#45;&#45;échange commercial</title>
<path fill="none" stroke="darkgrey" stroke-width="1.8" d="M95.49,-329.36C129.8,-352.11 247.48,-430.17 275.48,-448.74"/>
</g>
<!-- politique&#45;&#45;secteur nickel -->
<g id="edge108" class="edge">
<title>politique&#45;&#45;secteur nickel</title>
<path fill="none" stroke="darkgrey" stroke-width="3.46" d="M200.11,-185.56C217.04,-189.03 245.02,-194.76 263.28,-198.5"/>
</g>
<!-- politique&#45;&#45;nature -->
<g id="edge109" class="edge">
<title>politique&#45;&#45;nature</title>
<path fill="none" stroke="darkgrey" stroke-width="1.83" d="M173.8,-191.54C159.12,-202.7 134.2,-221.63 119.59,-232.73"/>
</g>
<!-- politique&#45;&#45;société néo&#45;calédonienne -->
<g id="edge110" class="edge">
<title>politique&#45;&#45;société néo&#45;calédonienne</title>
<path fill="none" stroke="darkgrey" stroke-width="1.67" d="M181.63,-168.25C173.26,-138.02 154.2,-69.13 149.57,-52.38"/>
</g>
<!-- politique&#45;&#45;exploitation minière -->
<g id="edge111" class="edge">
<title>politique&#45;&#45;exploitation minière</title>
<path fill="none" stroke="darkgrey" stroke-width="2.08" d="M193.79,-194.61C213.59,-223.69 263.91,-297.55 283.9,-326.89"/>
</g>
<!-- politique&#45;&#45;alternative au développement -->
<g id="edge112" class="edge">
<title>politique&#45;&#45;alternative au développement</title>
<path fill="none" stroke="darkgrey" stroke-width="1.72" d="M186.1,-197.13C188.07,-252.89 195.05,-451.38 196.08,-480.54"/>
</g>
<!-- politique&#45;&#45;matériel -->
<g id="edge113" class="edge">
<title>politique&#45;&#45;matériel</title>
<path fill="none" stroke="darkgrey" stroke-width="1.66" d="M195.93,-193.1C230.05,-227.83 338.83,-338.55 372.8,-373.12"/>
</g>
<!-- politique&#45;&#45;foncier -->
<g id="edge114" class="edge">
<title>politique&#45;&#45;foncier</title>
<path fill="none" stroke="darkgrey" stroke-width="1.41" d="M193.76,-170.51C217.05,-136.11 283.19,-38.41 300.35,-13.07"/>
</g>
<!-- politique&#45;&#45;relation politique -->
<g id="edge115" class="edge">
<title>politique&#45;&#45;relation politique</title>
<path fill="none" stroke="darkgrey" stroke-width="1.87" d="M181.17,-196.44C167.52,-239.2 126.53,-367.57 119.27,-390.29"/>
</g>
<!-- politique&#45;&#45;industrie -->
<g id="edge116" class="edge">
<title>politique&#45;&#45;industrie</title>
<path fill="none" stroke="darkgrey" stroke-width="2.97" d="M189.16,-197.11C194.3,-218.09 203.81,-256.83 209.37,-279.49"/>
</g>
<!-- politique&#45;&#45;risque -->
<g id="edge117" class="edge">
<title>politique&#45;&#45;risque</title>
<path fill="none" stroke="darkgrey" stroke-width="1.11" d="M198.47,-175.78C250.81,-148.15 446.13,-45.01 473.34,-30.64"/>
</g>
<!-- politique&#45;&#45;échange commercial -->
<g id="edge118" class="edge">
<title>politique&#45;&#45;échange commercial</title>
<path fill="none" stroke="darkgrey" stroke-width="1.73" d="M190.48,-196.35C207.89,-245.38 266.48,-410.44 279.09,-445.95"/>
</g>
<!-- secteur nickel&#45;&#45;nature -->
<g id="edge119" class="edge">
<title>secteur nickel&#45;&#45;nature</title>
<path fill="none" stroke="darkgrey" stroke-width="2.39" d="M263.64,-206.17C229.23,-214 153.55,-231.21 122.09,-238.37"/>
</g>
<!-- secteur nickel&#45;&#45;amélioration environnementale -->
<g id="edge120" class="edge">
<title>secteur nickel&#45;&#45;amélioration environnementale</title>
<path fill="none" stroke="darkgrey" stroke-width="1.23" d="M298.6,-196.99C368.36,-176.17 624.96,-99.6 640.93,-94.83"/>
</g>
<!-- secteur nickel&#45;&#45;société néo&#45;calédonienne -->
<g id="edge121" class="edge">
<title>secteur nickel&#45;&#45;société néo&#45;calédonienne</title>
<path fill="none" stroke="darkgrey" stroke-width="1.62" d="M269.43,-188.55C240.26,-154.79 165.92,-68.77 151.12,-51.65"/>
</g>
<!-- secteur nickel&#45;&#45;exploitation minière -->
<g id="edge122" class="edge">
<title>secteur nickel&#45;&#45;exploitation minière</title>
<path fill="none" stroke="darkgrey" stroke-width="2.62" d="M282.68,-220.37C284.9,-247.88 289.07,-299.53 291.1,-324.68"/>
</g>
<!-- secteur nickel&#45;&#45;alternative au développement -->
<g id="edge123" class="edge">
<title>secteur nickel&#45;&#45;alternative au développement</title>
<path fill="none" stroke="darkgrey" stroke-width="1.39" d="M275.89,-219.81C258.73,-276.71 205.49,-453.33 197.27,-480.58"/>
</g>
<!-- secteur nickel&#45;&#45;matériel -->
<g id="edge124" class="edge">
<title>secteur nickel&#45;&#45;matériel</title>
<path fill="none" stroke="darkgrey" stroke-width="3.05" d="M290.07,-217.95C309.9,-253.29 357.59,-338.21 375.8,-370.65"/>
</g>
<!-- secteur nickel&#45;&#45;foncier -->
<g id="edge125" class="edge">
<title>secteur nickel&#45;&#45;foncier</title>
<path fill="none" stroke="darkgrey" stroke-width="2.08" d="M283.35,-184.16C288.3,-142.64 300.33,-41.65 303.61,-14.06"/>
</g>
<!-- secteur nickel&#45;&#45;relation politique -->
<g id="edge126" class="edge">
<title>secteur nickel&#45;&#45;relation politique</title>
<path fill="none" stroke="darkgrey" stroke-width="1.25" d="M269.48,-215.95C235.31,-256.1 137.19,-371.41 120.57,-390.93"/>
</g>
<!-- secteur nickel&#45;&#45;industrie -->
<g id="edge127" class="edge">
<title>secteur nickel&#45;&#45;industrie</title>
<path fill="none" stroke="darkgrey" stroke-width="5.19" d="M270.67,-217.03C257.99,-234.9 236.85,-264.71 224.2,-282.53"/>
</g>
<!-- secteur nickel&#45;&#45;risque -->
<g id="edge128" class="edge">
<title>secteur nickel&#45;&#45;risque</title>
<path fill="none" stroke="darkgrey" stroke-width="1.04" d="M294.94,-190C335.57,-153.96 453.61,-49.27 473.6,-31.54"/>
</g>
<!-- secteur nickel&#45;&#45;échange commercial -->
<g id="edge129" class="edge">
<title>secteur nickel&#45;&#45;échange commercial</title>
<path fill="none" stroke="darkgrey" stroke-width="2.28" d="M281.23,-220.19C281.29,-270.69 281.45,-412.05 281.48,-445.54"/>
</g>
<!-- nature&#45;&#45;société néo&#45;calédonienne -->
<g id="edge130" class="edge">
<title>nature&#45;&#45;société néo&#45;calédonienne</title>
<path fill="none" stroke="darkgrey" stroke-width="1.72" d="M110.99,-227.08C119.51,-186.6 143.23,-73.9 147.78,-52.27"/>
</g>
<!-- nature&#45;&#45;exploitation minière -->
<g id="edge131" class="edge">
<title>nature&#45;&#45;exploitation minière</title>
<path fill="none" stroke="darkgrey" stroke-width="1.93" d="M120.9,-248.45C154.66,-266.32 245.05,-314.18 279.07,-332.19"/>
</g>
<!-- nature&#45;&#45;alternative au développement -->
<g id="edge132" class="edge">
<title>nature&#45;&#45;alternative au développement</title>
<path fill="none" stroke="darkgrey" stroke-width="1.2" d="M112.94,-255.32C130.08,-302.42 185.91,-455.85 194.96,-480.71"/>
</g>
<!-- nature&#45;&#45;matériel -->
<g id="edge133" class="edge">
<title>nature&#45;&#45;matériel</title>
<path fill="none" stroke="darkgrey" stroke-width="3.41" d="M120.84,-248.24C166.94,-272.03 323.28,-352.7 369.84,-376.73"/>
</g>
<!-- nature&#45;&#45;foncier -->
<g id="edge134" class="edge">
<title>nature&#45;&#45;foncier</title>
<path fill="none" stroke="darkgrey" stroke-width="1.69" d="M117.42,-230.27C152.53,-188.35 274.49,-42.77 299.82,-12.53"/>
</g>
<!-- nature&#45;&#45;industrie -->
<g id="edge135" class="edge">
<title>nature&#45;&#45;industrie</title>
<path fill="none" stroke="darkgrey" stroke-width="2.73" d="M120.91,-248.41C140.22,-258.58 176.51,-277.68 197.54,-288.76"/>
</g>
<!-- nature&#45;&#45;échange commercial -->
<g id="edge136" class="edge">
<title>nature&#45;&#45;échange commercial</title>
<path fill="none" stroke="darkgrey" stroke-width="1.49" d="M117.27,-252.94C149.24,-291.82 253.64,-418.84 276.88,-447.11"/>
</g>
<!-- société néo&#45;calédonienne&#45;&#45;matériel -->
<g id="edge137" class="edge">
<title>société néo&#45;calédonienne&#45;&#45;matériel</title>
<path fill="none" stroke="darkgrey" stroke-width="1.65" d="M150.57,-51.55C170.71,-80.32 335.02,-314.97 374.52,-371.38"/>
</g>
<!-- société néo&#45;calédonienne&#45;&#45;relation politique -->
<g id="edge138" class="edge">
<title>société néo&#45;calédonienne&#45;&#45;relation politique</title>
<path fill="none" stroke="darkgrey" stroke-width="1.14" d="M148.2,-52.53C145.08,-87.93 121.61,-354.64 118.51,-389.9"/>
</g>
<!-- exploitation minière&#45;&#45;matériel -->
<g id="edge139" class="edge">
<title>exploitation minière&#45;&#45;matériel</title>
<path fill="none" stroke="darkgrey" stroke-width="2.82" d="M305.66,-345.72C322.92,-354.16 352.74,-368.73 369.88,-377.11"/>
</g>
<!-- exploitation minière&#45;&#45;foncier -->
<g id="edge140" class="edge">
<title>exploitation minière&#45;&#45;foncier</title>
<path fill="none" stroke="darkgrey" stroke-width="1.17" d="M292.81,-324.48C294.93,-266.59 302.67,-55.57 304.19,-14.1"/>
</g>
<!-- exploitation minière&#45;&#45;relation politique -->
<g id="edge141" class="edge">
<title>exploitation minière&#45;&#45;relation politique</title>
<path fill="none" stroke="darkgrey" stroke-width="1.08" d="M278.31,-343.55C241.2,-355.19 141.51,-386.43 121.64,-392.66"/>
</g>
<!-- exploitation minière&#45;&#45;industrie -->
<g id="edge142" class="edge">
<title>exploitation minière&#45;&#45;industrie</title>
<path fill="none" stroke="darkgrey" stroke-width="3.22" d="M279.3,-332.26C265.71,-325.01 244.33,-313.61 229.71,-305.81"/>
</g>
<!-- exploitation minière&#45;&#45;risque -->
<g id="edge143" class="edge">
<title>exploitation minière&#45;&#45;risque</title>
<path fill="none" stroke="darkgrey" d="M299.72,-326.63C331.89,-272.45 458.06,-60 474.68,-32.02"/>
</g>
<!-- exploitation minière&#45;&#45;échange commercial -->
<g id="edge144" class="edge">
<title>exploitation minière&#45;&#45;échange commercial</title>
<path fill="none" stroke="darkgrey" stroke-width="2" d="M290.86,-354.02C288.51,-378.79 283.88,-427.61 282.16,-445.73"/>
</g>
<!-- alternative au développement&#45;&#45;industrie -->
<g id="edge145" class="edge">
<title>alternative au développement&#45;&#45;industrie</title>
<path fill="none" stroke="darkgrey" stroke-width="1.41" d="M196.54,-480.56C198.45,-460.12 208.1,-357.34 212.05,-315.27"/>
</g>
<!-- matériel&#45;&#45;foncier -->
<g id="edge146" class="edge">
<title>matériel&#45;&#45;foncier</title>
<path fill="none" stroke="darkgrey" stroke-width="1.78" d="M380.05,-369.24C367.01,-306.77 315.3,-58.98 305.92,-14.02"/>
</g>
<!-- matériel&#45;&#45;industrie -->
<g id="edge147" class="edge">
<title>matériel&#45;&#45;industrie</title>
<path fill="none" stroke="darkgrey" stroke-width="4.14" d="M370.03,-376.92C339.52,-361.37 263.41,-322.59 229.95,-305.55"/>
</g>
<!-- matériel&#45;&#45;échange commercial -->
<g id="edge148" class="edge">
<title>matériel&#45;&#45;échange commercial</title>
<path fill="none" stroke="darkgrey" stroke-width="1.92" d="M370.99,-391.75C349.13,-406.64 303.71,-437.59 287.45,-448.67"/>
</g>
<!-- foncier&#45;&#45;industrie -->
<g id="edge149" class="edge">
<title>foncier&#45;&#45;industrie</title>
<path fill="none" stroke="darkgrey" stroke-width="2.15" d="M302.3,-13.89C290.82,-50.64 236.64,-223.98 219.18,-279.87"/>
</g>
<!-- relation politique&#45;&#45;échange commercial -->
<g id="edge150" class="edge">
<title>relation politique&#45;&#45;échange commercial</title>
<path fill="none" stroke="darkgrey" stroke-width="1.36" d="M121.58,-394.98C141.92,-402.33 247.24,-440.36 274.86,-450.33"/>
</g>
<!-- industrie&#45;&#45;risque -->
<g id="edge151" class="edge">
<title>industrie&#45;&#45;risque</title>
<path fill="none" stroke="darkgrey" stroke-width="1.17" d="M226.41,-284.34C275.41,-234.31 450.89,-55.12 473.98,-31.55"/>
</g>
<!-- industrie&#45;&#45;échange commercial -->
<g id="edge152" class="edge">
<title>industrie&#45;&#45;échange commercial</title>
<path fill="none" stroke="darkgrey" stroke-width="2.02" d="M220.99,-313.92C235.74,-347.75 268.67,-423.31 278.6,-446.1"/>
</g>
<!-- pollution -->
<g id="node1" class="node">
<title>pollution</title>
<ellipse fill="#ab2f5e" stroke="white" stroke-width="0" cx="361.53" cy="-152.02" rx="18" ry="18"/>
<text text-anchor="middle" x="325.03" y="-172.62" font-family="Helvetica,sans-Serif" font-size="8.00" fill="#4d4d4d">pollution</text>
</g>
<!-- dégradation environnementale -->
<g id="node2" class="node">
<title>dégradation environnementale</title>
<ellipse fill="#f1ef75" stroke="white" stroke-width="0" cx="434.5" cy="-300.82" rx="36" ry="36"/>
<text text-anchor="middle" x="462" y="-339.42" font-family="Helvetica,sans-Serif" font-size="8.00" fill="#4d4d4d">dégradation environnementale</text>
</g>
<!-- nouvelle&#45;calédonie -->
<g id="node3" class="node">
<title>nouvelle&#45;calédonie</title>
<ellipse fill="#1c0c43" stroke="white" stroke-width="0" cx="82.5" cy="-145.35" rx="3.5" ry="3.5"/>
<text text-anchor="middle" x="39.5" y="-151.45" font-family="Helvetica,sans-Serif" font-size="8.00" fill="#4d4d4d">nouvelle&#45;calédonie</text>
</g>
<!-- travail -->
<g id="node4" class="node">
<title>travail</title>
<ellipse fill="#e65d2f" stroke="white" stroke-width="0" cx="276.2" cy="-120.32" rx="21.5" ry="21.5"/>
<text text-anchor="middle" x="241.7" y="-144.42" font-family="Helvetica,sans-Serif" font-size="8.00" fill="#4d4d4d">travail</text>
</g>
<!-- économie -->
<g id="node5" class="node">
<title>économie</title>
<ellipse fill="#b3325a" stroke="white" stroke-width="0" cx="345.63" cy="-249.16" rx="18" ry="18"/>
<text text-anchor="middle" x="307.13" y="-269.76" font-family="Helvetica,sans-Serif" font-size="8.00" fill="#4d4d4d">économie</text>
</g>
<!-- nickel -->
<g id="node6" class="node">
<title>nickel</title>
<ellipse fill="#fcffa4" stroke="white" stroke-width="0" cx="439.94" cy="-228.1" rx="36" ry="36"/>
<text text-anchor="middle" x="391.94" y="-194.7" font-family="Helvetica,sans-Serif" font-size="8.00" fill="#4d4d4d">nickel</text>
</g>
<!-- ressource minière -->
<g id="node7" class="node">
<title>ressource minière</title>
<ellipse fill="#64156e" stroke="white" stroke-width="0" cx="86.06" cy="-323.1" rx="11" ry="11"/>
<text text-anchor="middle" x="38.56" y="-336.7" font-family="Helvetica,sans-Serif" font-size="8.00" fill="#4d4d4d">ressource minière</text>
</g>
<!-- politique -->
<g id="node8" class="node">
<title>politique</title>
<ellipse fill="#9b2964" stroke="white" stroke-width="0" cx="185.59" cy="-182.58" rx="14.5" ry="14.5"/>
<text text-anchor="middle" x="152.59" y="-199.68" font-family="Helvetica,sans-Serif" font-size="8.00" fill="#4d4d4d">politique</text>
</g>
<!-- secteur nickel -->
<g id="node9" class="node">
<title>secteur nickel</title>
<ellipse fill="#b43359" stroke="white" stroke-width="0" cx="281.21" cy="-202.17" rx="18" ry="18"/>
<text text-anchor="middle" x="234.71" y="-222.77" font-family="Helvetica,sans-Serif" font-size="8.00" fill="#4d4d4d">secteur nickel</text>
</g>
<!-- nature -->
<g id="node10" class="node">
<title>nature</title>
<ellipse fill="#85216b" stroke="white" stroke-width="0" cx="107.94" cy="-241.58" rx="14.5" ry="14.5"/>
<text text-anchor="middle" x="79.94" y="-258.68" font-family="Helvetica,sans-Serif" font-size="8.00" fill="#4d4d4d">nature</text>
</g>
<!-- amélioration environnementale -->
<g id="node11" class="node">
<title>amélioration environnementale</title>
<ellipse fill="#030210" stroke="white" stroke-width="0" cx="641.71" cy="-94.6" rx="0.5" ry="0.5"/>
<text text-anchor="middle" x="576.71" y="-97.7" font-family="Helvetica,sans-Serif" font-size="8.00" fill="#4d4d4d">amélioration environnementale</text>
</g>
<!-- société néo&#45;calédonienne -->
<g id="node12" class="node">
<title>société néo&#45;calédonienne</title>
<ellipse fill="#180c3c" stroke="white" stroke-width="0" cx="148.54" cy="-48.66" rx="3.5" ry="3.5"/>
<text text-anchor="middle" x="91.04" y="-54.76" font-family="Helvetica,sans-Serif" font-size="8.00" fill="#4d4d4d">société néo&#45;calédonienne</text>
</g>
<!-- exploitation minière -->
<g id="node13" class="node">
<title>exploitation minière</title>
<ellipse fill="#7a1d6d" stroke="white" stroke-width="0" cx="292.27" cy="-339.18" rx="14.5" ry="14.5"/>
<text text-anchor="middle" x="237.27" y="-356.28" font-family="Helvetica,sans-Serif" font-size="8.00" fill="#4d4d4d">exploitation minière</text>
</g>
<!-- alternative au développement -->
<g id="node14" class="node">
<title>alternative au développement</title>
<ellipse fill="#120a32" stroke="white" stroke-width="0" cx="196.2" cy="-484.12" rx="3.5" ry="3.5"/>
<text text-anchor="middle" x="130.7" y="-490.22" font-family="Helvetica,sans-Serif" font-size="8.00" fill="#4d4d4d">alternative au développement</text>
</g>
<!-- matériel -->
<g id="node15" class="node">
<title>matériel</title>
<ellipse fill="#932667" stroke="white" stroke-width="0" cx="383.03" cy="-383.54" rx="14.5" ry="14.5"/>
<text text-anchor="middle" x="351.53" y="-400.64" font-family="Helvetica,sans-Serif" font-size="8.00" fill="#4d4d4d">matériel</text>
</g>
<!-- foncier -->
<g id="node16" class="node">
<title>foncier</title>
<ellipse fill="#240c4f" stroke="white" stroke-width="0" cx="304.45" cy="-7" rx="7" ry="7"/>
<text text-anchor="middle" x="282.95" y="-16.6" font-family="Helvetica,sans-Serif" font-size="8.00" fill="#4d4d4d">foncier</text>
</g>
<!-- relation politique -->
<g id="node17" class="node">
<title>relation politique</title>
<ellipse fill="#0b0724" stroke="white" stroke-width="0" cx="118.17" cy="-393.75" rx="3.5" ry="3.5"/>
<text text-anchor="middle" x="79.67" y="-399.85" font-family="Helvetica,sans-Serif" font-size="8.00" fill="#4d4d4d">relation politique</text>
</g>
<!-- industrie -->
<g id="node18" class="node">
<title>industrie</title>
<ellipse fill="#b3325a" stroke="white" stroke-width="0" cx="213.74" cy="-297.28" rx="18" ry="18"/>
<text text-anchor="middle" x="177.24" y="-317.88" font-family="Helvetica,sans-Serif" font-size="8.00" fill="#4d4d4d">industrie</text>
</g>
<!-- risque -->
<g id="node19" class="node">
<title>risque</title>
<ellipse fill="#050417" stroke="white" stroke-width="0" cx="476.49" cy="-28.98" rx="3.5" ry="3.5"/>
<text text-anchor="middle" x="459.99" y="-35.08" font-family="Helvetica,sans-Serif" font-size="8.00" fill="#4d4d4d">risque</text>
</g>
<!-- échange commercial -->
<g id="node20" class="node">
<title>échange commercial</title>
<ellipse fill="#380962" stroke="white" stroke-width="0" cx="281.49" cy="-452.73" rx="7" ry="7"/>
<text text-anchor="middle" x="231.49" y="-462.33" font-family="Helvetica,sans-Serif" font-size="8.00" fill="#4d4d4d">échange commercial</text>
</g>
<!-- avenir sans nickel -->
<g id="node21" class="node">
<title>avenir sans nickel</title>
<ellipse fill="#000004" stroke="white" stroke-width="0" cx="869.7" cy="-409.1" rx="0.5" ry="0.5"/>
<text text-anchor="middle" x="832.7" y="-412.2" font-family="Helvetica,sans-Serif" font-size="8.00" fill="#4d4d4d">avenir sans nickel</text>
</g>
</g>
</svg>
