<?xml version="1.0" encoding="UTF-8" standalone="no"?>
<!DOCTYPE svg PUBLIC "-//W3C//DTD SVG 1.1//EN"
 "http://www.w3.org/Graphics/SVG/1.1/DTD/svg11.dtd">
<!-- Generated by graphviz version 2.43.0 (0)
 -->
<!-- Pages: 1 -->
<svg width="887pt" height="435pt"
 viewBox="0.00 0.00 886.64 435.38" xmlns="http://www.w3.org/2000/svg" xmlns:xlink="http://www.w3.org/1999/xlink">
<g id="graph0" class="graph" transform="scale(1 1) rotate(0) translate(4 431.38)">
<polygon fill="white" stroke="transparent" points="-4,4 -4,-431.38 882.64,-431.38 882.64,4 -4,4"/>
<!-- pollution&#45;&#45;dégradation environnementale -->
<g id="edge1" class="edge">
<title>pollution&#45;&#45;dégradation environnementale</title>
<path fill="none" stroke="darkgrey" stroke-width="10" d="M394.86,-236C401.55,-226.1 410.46,-212.9 418.34,-201.25"/>
</g>
<!-- pollution&#45;&#45;nouvelle&#45;calédonie -->
<g id="edge2" class="edge">
<title>pollution&#45;&#45;nouvelle&#45;calédonie</title>
<path fill="none" stroke="darkgrey" stroke-width="1.37" d="M376.43,-267.5C357.98,-304.37 313.91,-392.47 304.49,-411.3"/>
</g>
<!-- pollution&#45;&#45;travail -->
<g id="edge3" class="edge">
<title>pollution&#45;&#45;travail</title>
<path fill="none" stroke="darkgrey" stroke-width="6.72" d="M372.6,-237.77C356.48,-219.71 327.75,-187.5 309.55,-167.09"/>
</g>
<!-- pollution&#45;&#45;économie -->
<g id="edge4" class="edge">
<title>pollution&#45;&#45;économie</title>
<path fill="none" stroke="darkgrey" stroke-width="5.5" d="M368.57,-242.84C342.27,-229.08 290.2,-201.84 263.69,-187.97"/>
</g>
<!-- pollution&#45;&#45;nickel -->
<g id="edge5" class="edge">
<title>pollution&#45;&#45;nickel</title>
<path fill="none" stroke="darkgrey" stroke-width="4.88" d="M366.48,-251.29C342.85,-251.4 300.97,-251.59 270.71,-251.73"/>
</g>
<!-- pollution&#45;&#45;ressource minière -->
<g id="edge6" class="edge">
<title>pollution&#45;&#45;ressource minière</title>
<path fill="none" stroke="darkgrey" stroke-width="1.92" d="M370.45,-262.57C343.03,-284.59 283.37,-332.52 261.12,-350.4"/>
</g>
<!-- pollution&#45;&#45;politique -->
<g id="edge7" class="edge">
<title>pollution&#45;&#45;politique</title>
<path fill="none" stroke="darkgrey" stroke-width="2.93" d="M378.75,-233.83C373.5,-218.19 365.89,-195.51 361.05,-181.1"/>
</g>
<!-- pollution&#45;&#45;secteur nickel -->
<g id="edge8" class="edge">
<title>pollution&#45;&#45;secteur nickel</title>
<path fill="none" stroke="darkgrey" stroke-width="2.69" d="M401.59,-244.58C420.68,-237.13 451.46,-225.12 470.56,-217.67"/>
</g>
<!-- pollution&#45;&#45;nature -->
<g id="edge9" class="edge">
<title>pollution&#45;&#45;nature</title>
<path fill="none" stroke="darkgrey" stroke-width="3.64" d="M394.53,-266.27C403.13,-279.29 415.41,-297.88 423.42,-309.99"/>
</g>
<!-- pollution&#45;&#45;société néo&#45;calédonienne -->
<g id="edge10" class="edge">
<title>pollution&#45;&#45;société néo&#45;calédonienne</title>
<path fill="none" stroke="darkgrey" stroke-width="1.15" d="M390.02,-233.71C404.9,-185.86 445.62,-54.87 452.82,-31.72"/>
</g>
<!-- pollution&#45;&#45;exploitation minière -->
<g id="edge11" class="edge">
<title>pollution&#45;&#45;exploitation minière</title>
<path fill="none" stroke="darkgrey" stroke-width="2.02" d="M385.2,-269.38C386.2,-299.06 388.18,-357.35 389.1,-384.64"/>
</g>
<!-- pollution&#45;&#45;alternative au développement -->
<g id="edge12" class="edge">
<title>pollution&#45;&#45;alternative au développement</title>
<path fill="none" stroke="darkgrey" stroke-width="1.82" d="M379.42,-233.85C365.11,-185.66 325.49,-52.29 318.48,-28.72"/>
</g>
<!-- pollution&#45;&#45;matériel -->
<g id="edge13" class="edge">
<title>pollution&#45;&#45;matériel</title>
<path fill="none" stroke="darkgrey" stroke-width="2.77" d="M402.14,-256.68C421.76,-262.79 453.16,-272.56 471.26,-278.19"/>
</g>
<!-- pollution&#45;&#45;industrie -->
<g id="edge14" class="edge">
<title>pollution&#45;&#45;industrie</title>
<path fill="none" stroke="darkgrey" stroke-width="2.52" d="M373.38,-265.39C365.95,-274.79 356.23,-287.09 348.76,-296.56"/>
</g>
<!-- pollution&#45;&#45;échange commercial -->
<g id="edge15" class="edge">
<title>pollution&#45;&#45;échange commercial</title>
<path fill="none" stroke="darkgrey" stroke-width="1.04" d="M366.61,-249.32C345.87,-247.13 312.79,-243.65 298.42,-242.14"/>
</g>
<!-- dégradation environnementale&#45;&#45;nouvelle&#45;calédonie -->
<g id="edge16" class="edge">
<title>dégradation environnementale&#45;&#45;nouvelle&#45;calédonie</title>
<path fill="none" stroke="darkgrey" stroke-width="1.51" d="M420.7,-202.78C388.28,-261.05 316.53,-390.01 304.44,-411.74"/>
</g>
<!-- dégradation environnementale&#45;&#45;travail -->
<g id="edge17" class="edge">
<title>dégradation environnementale&#45;&#45;travail</title>
<path fill="none" stroke="darkgrey" stroke-width="7.77" d="M404.34,-168.44C378.19,-163.74 341.87,-157.22 317.89,-152.91"/>
</g>
<!-- dégradation environnementale&#45;&#45;économie -->
<g id="edge18" class="edge">
<title>dégradation environnementale&#45;&#45;économie</title>
<path fill="none" stroke="darkgrey" stroke-width="7.79" d="M404.06,-175.12C364.01,-176.22 297.38,-178.05 265.47,-178.93"/>
</g>
<!-- dégradation environnementale&#45;&#45;nickel -->
<g id="edge19" class="edge">
<title>dégradation environnementale&#45;&#45;nickel</title>
<path fill="none" stroke="darkgrey" stroke-width="9.21" d="M405.9,-186.02C368.79,-200.28 306.57,-224.19 268.18,-238.95"/>
</g>
<!-- dégradation environnementale&#45;&#45;ressource minière -->
<g id="edge20" class="edge">
<title>dégradation environnementale&#45;&#45;ressource minière</title>
<path fill="none" stroke="darkgrey" stroke-width="4.13" d="M413.28,-197.42C371.68,-238.79 286.56,-323.45 260.36,-349.51"/>
</g>
<!-- dégradation environnementale&#45;&#45;politique -->
<g id="edge21" class="edge">
<title>dégradation environnementale&#45;&#45;politique</title>
<path fill="none" stroke="darkgrey" stroke-width="4.16" d="M403.99,-171.43C392.54,-170.44 380.26,-169.39 371.04,-168.59"/>
</g>
<!-- dégradation environnementale&#45;&#45;secteur nickel -->
<g id="edge22" class="edge">
<title>dégradation environnementale&#45;&#45;secteur nickel</title>
<path fill="none" stroke="darkgrey" stroke-width="3.96" d="M462.99,-193.28C466.39,-195.73 469.77,-198.17 472.89,-200.42"/>
</g>
<!-- dégradation environnementale&#45;&#45;nature -->
<g id="edge23" class="edge">
<title>dégradation environnementale&#45;&#45;nature</title>
<path fill="none" stroke="darkgrey" stroke-width="5.45" d="M435.45,-207.07C434.37,-238.4 432.79,-284.17 431.99,-307.43"/>
</g>
<!-- dégradation environnementale&#45;&#45;société néo&#45;calédonienne -->
<g id="edge25" class="edge">
<title>dégradation environnementale&#45;&#45;société néo&#45;calédonienne</title>
<path fill="none" stroke="darkgrey" stroke-width="1.88" d="M440.43,-141.82C444.86,-104.51 451.74,-46.47 453.5,-31.71"/>
</g>
<!-- dégradation environnementale&#45;&#45;exploitation minière -->
<g id="edge26" class="edge">
<title>dégradation environnementale&#45;&#45;exploitation minière</title>
<path fill="none" stroke="darkgrey" stroke-width="3.8" d="M429.86,-206.49C419.48,-256.22 399.99,-349.59 392.57,-385.15"/>
</g>
<!-- dégradation environnementale&#45;&#45;alternative au développement -->
<g id="edge27" class="edge">
<title>dégradation environnementale&#45;&#45;alternative au développement</title>
<path fill="none" stroke="darkgrey" stroke-width="2.14" d="M416.1,-148.6C385.76,-110.63 331.19,-42.36 319.61,-27.88"/>
</g>
<!-- dégradation environnementale&#45;&#45;matériel -->
<g id="edge28" class="edge">
<title>dégradation environnementale&#45;&#45;matériel</title>
<path fill="none" stroke="darkgrey" stroke-width="4.43" d="M450.05,-204.12C459.63,-225.42 472.06,-253.03 479.33,-269.18"/>
</g>
<!-- dégradation environnementale&#45;&#45;industrie -->
<g id="edge31" class="edge">
<title>dégradation environnementale&#45;&#45;industrie</title>
<path fill="none" stroke="darkgrey" stroke-width="3.32" d="M417.45,-200.61C396.82,-229.03 364.73,-273.25 348.11,-296.16"/>
</g>
<!-- dégradation environnementale&#45;&#45;échange commercial -->
<g id="edge33" class="edge">
<title>dégradation environnementale&#45;&#45;échange commercial</title>
<path fill="none" stroke="darkgrey" stroke-width="2.05" d="M406.85,-187.98C372,-204.1 316.62,-229.72 297.84,-238.4"/>
</g>
<!-- dégradation environnementale&#45;&#45;amélioration environnementale -->
<g id="edge24" class="edge">
<title>dégradation environnementale&#45;&#45;amélioration environnementale</title>
<path fill="none" stroke="darkgrey" stroke-width="1.18" d="M467.17,-162.67C542.59,-134.15 733.43,-61.99 761.35,-51.43"/>
</g>
<!-- dégradation environnementale&#45;&#45;foncier -->
<g id="edge29" class="edge">
<title>dégradation environnementale&#45;&#45;foncier</title>
<path fill="none" stroke="darkgrey" stroke-width="2.23" d="M448.28,-143.89C453.47,-130.44 459.11,-115.8 462.31,-107.48"/>
</g>
<!-- dégradation environnementale&#45;&#45;relation politique -->
<g id="edge30" class="edge">
<title>dégradation environnementale&#45;&#45;relation politique</title>
<path fill="none" stroke="darkgrey" stroke-width="1.09" d="M410.36,-154.64C355.48,-113.65 231.83,-21.32 210.99,-5.75"/>
</g>
<!-- dégradation environnementale&#45;&#45;risque -->
<g id="edge32" class="edge">
<title>dégradation environnementale&#45;&#45;risque</title>
<path fill="none" stroke="darkgrey" stroke-width="1.77" d="M404.31,-170.29C314.41,-159.32 65.69,-128.98 33.05,-125"/>
</g>
<!-- dégradation environnementale&#45;&#45;avenir sans nickel -->
<g id="edge34" class="edge">
<title>dégradation environnementale&#45;&#45;avenir sans nickel</title>
<path fill="none" stroke="darkgrey" stroke-width="1.06" d="M468.34,-181.24C567.21,-203.08 863.79,-268.59 877.63,-271.65"/>
</g>
<!-- nouvelle&#45;calédonie&#45;&#45;travail -->
<g id="edge35" class="edge">
<title>nouvelle&#45;calédonie&#45;&#45;travail</title>
<path fill="none" stroke="darkgrey" stroke-width="1.58" d="M302.56,-411.12C301.61,-385.37 296.06,-234.56 293.83,-173.78"/>
</g>
<!-- nouvelle&#45;calédonie&#45;&#45;économie -->
<g id="edge36" class="edge">
<title>nouvelle&#45;calédonie&#45;&#45;économie</title>
<path fill="none" stroke="darkgrey" stroke-width="1.28" d="M301.82,-411.19C296.06,-386.67 263.25,-247.07 251.52,-197.16"/>
</g>
<!-- nouvelle&#45;calédonie&#45;&#45;nickel -->
<g id="edge37" class="edge">
<title>nouvelle&#45;calédonie&#45;&#45;nickel</title>
<path fill="none" stroke="darkgrey" stroke-width="2.81" d="M301.27,-411.48C294.59,-395.53 265.99,-327.17 248.46,-285.27"/>
</g>
<!-- nouvelle&#45;calédonie&#45;&#45;ressource minière -->
<g id="edge38" class="edge">
<title>nouvelle&#45;calédonie&#45;&#45;ressource minière</title>
<path fill="none" stroke="darkgrey" stroke-width="1.32" d="M300.27,-412.11C293.07,-403.84 271.55,-379.15 260.01,-365.92"/>
</g>
<!-- nouvelle&#45;calédonie&#45;&#45;politique -->
<g id="edge39" class="edge">
<title>nouvelle&#45;calédonie&#45;&#45;politique</title>
<path fill="none" stroke="darkgrey" stroke-width="2.06" d="M303.45,-411.38C308.95,-386.06 342.74,-230.43 353.29,-181.83"/>
</g>
<!-- nouvelle&#45;calédonie&#45;&#45;secteur nickel -->
<g id="edge40" class="edge">
<title>nouvelle&#45;calédonie&#45;&#45;secteur nickel</title>
<path fill="none" stroke="darkgrey" stroke-width="1.62" d="M305.31,-412C324.01,-391.39 437.78,-265.95 475.48,-224.39"/>
</g>
<!-- nouvelle&#45;calédonie&#45;&#45;nature -->
<g id="edge41" class="edge">
<title>nouvelle&#45;calédonie&#45;&#45;nature</title>
<path fill="none" stroke="darkgrey" stroke-width="1.09" d="M305.88,-412.59C321.6,-401.27 391.37,-351.06 419.58,-330.76"/>
</g>
<!-- nouvelle&#45;calédonie&#45;&#45;exploitation minière -->
<g id="edge42" class="edge">
<title>nouvelle&#45;calédonie&#45;&#45;exploitation minière</title>
<path fill="none" stroke="darkgrey" stroke-width="1.13" d="M306.43,-414.22C318.12,-412.13 354.49,-405.65 375.05,-401.98"/>
</g>
<!-- nouvelle&#45;calédonie&#45;&#45;industrie -->
<g id="edge43" class="edge">
<title>nouvelle&#45;calédonie&#45;&#45;industrie</title>
<path fill="none" stroke="darkgrey" stroke-width="1.48" d="M303.85,-411.43C308.12,-398.62 323.22,-353.29 331.6,-328.15"/>
</g>
<!-- travail&#45;&#45;économie -->
<g id="edge44" class="edge">
<title>travail&#45;&#45;économie</title>
<path fill="none" stroke="darkgrey" stroke-width="7.78" d="M271.99,-162.65C268.72,-164.88 265.39,-167.15 262.29,-169.26"/>
</g>
<!-- travail&#45;&#45;nickel -->
<g id="edge45" class="edge">
<title>travail&#45;&#45;nickel</title>
<path fill="none" stroke="darkgrey" stroke-width="8.16" d="M280.51,-170.36C272.34,-184.84 261.51,-204.03 252.4,-220.16"/>
</g>
<!-- travail&#45;&#45;ressource minière -->
<g id="edge46" class="edge">
<title>travail&#45;&#45;ressource minière</title>
<path fill="none" stroke="darkgrey" stroke-width="3.32" d="M288.11,-173.2C279.29,-218.81 260.83,-314.31 254.61,-346.47"/>
</g>
<!-- travail&#45;&#45;politique -->
<g id="edge47" class="edge">
<title>travail&#45;&#45;politique</title>
<path fill="none" stroke="darkgrey" stroke-width="4.09" d="M316.92,-155.57C325.49,-158.13 334.87,-160.92 342.34,-163.14"/>
</g>
<!-- travail&#45;&#45;secteur nickel -->
<g id="edge48" class="edge">
<title>travail&#45;&#45;secteur nickel</title>
<path fill="none" stroke="darkgrey" stroke-width="5.04" d="M316.77,-156.1C356.58,-168.9 435.56,-194.3 470.4,-205.5"/>
</g>
<!-- travail&#45;&#45;nature -->
<g id="edge49" class="edge">
<title>travail&#45;&#45;nature</title>
<path fill="none" stroke="darkgrey" stroke-width="3.26" d="M308.53,-168.02C337.55,-204.41 398.93,-281.38 422.24,-310.61"/>
</g>
<!-- travail&#45;&#45;société néo&#45;calédonienne -->
<g id="edge50" class="edge">
<title>travail&#45;&#45;société néo&#45;calédonienne</title>
<path fill="none" stroke="darkgrey" stroke-width="1.77" d="M312.96,-133.44C351.74,-104.48 434.61,-42.61 451.05,-30.34"/>
</g>
<!-- travail&#45;&#45;exploitation minière -->
<g id="edge51" class="edge">
<title>travail&#45;&#45;exploitation minière</title>
<path fill="none" stroke="darkgrey" stroke-width="3.07" d="M302,-172.03C321.88,-223.65 368.71,-345.16 384.38,-385.85"/>
</g>
<!-- travail&#45;&#45;alternative au développement -->
<g id="edge52" class="edge">
<title>travail&#45;&#45;alternative au développement</title>
<path fill="none" stroke="darkgrey" stroke-width="1.23" d="M297.8,-123.77C303.95,-92.85 314.02,-42.23 316.73,-28.6"/>
</g>
<!-- travail&#45;&#45;matériel -->
<g id="edge53" class="edge">
<title>travail&#45;&#45;matériel</title>
<path fill="none" stroke="darkgrey" stroke-width="3.68" d="M313.5,-162.78C353.64,-190.76 441.24,-251.82 473.3,-274.17"/>
</g>
<!-- travail&#45;&#45;industrie -->
<g id="edge56" class="edge">
<title>travail&#45;&#45;industrie</title>
<path fill="none" stroke="darkgrey" stroke-width="3.79" d="M299.55,-172.77C308.59,-205.91 324.57,-264.42 332.52,-293.55"/>
</g>
<!-- travail&#45;&#45;échange commercial -->
<g id="edge58" class="edge">
<title>travail&#45;&#45;échange commercial</title>
<path fill="none" stroke="darkgrey" stroke-width="1.86" d="M292.48,-173.83C292.15,-194.26 291.7,-221.58 291.49,-234.31"/>
</g>
<!-- travail&#45;&#45;foncier -->
<g id="edge54" class="edge">
<title>travail&#45;&#45;foncier</title>
<path fill="none" stroke="darkgrey" stroke-width="1.35" d="M317.18,-141.68C357.19,-130.58 434.87,-109.03 458.17,-102.56"/>
</g>
<!-- travail&#45;&#45;relation politique -->
<g id="edge55" class="edge">
<title>travail&#45;&#45;relation politique</title>
<path fill="none" stroke="darkgrey" stroke-width="1.19" d="M280.18,-126.72C259.27,-91.03 219.01,-22.32 209.86,-6.71"/>
</g>
<!-- travail&#45;&#45;risque -->
<g id="edge57" class="edge">
<title>travail&#45;&#45;risque</title>
<path fill="none" stroke="darkgrey" stroke-width="1.82" d="M267.64,-146.13C207.38,-140.68 58.31,-127.18 33.14,-124.9"/>
</g>
<!-- économie&#45;&#45;nickel -->
<g id="edge59" class="edge">
<title>économie&#45;&#45;nickel</title>
<path fill="none" stroke="darkgrey" stroke-width="6.16" d="M244.17,-197.34C243.15,-203.12 241.97,-209.75 240.8,-216.35"/>
</g>
<!-- économie&#45;&#45;ressource minière -->
<g id="edge60" class="edge">
<title>économie&#45;&#45;ressource minière</title>
<path fill="none" stroke="darkgrey" stroke-width="2.21" d="M247.88,-197.46C248.94,-234.03 251.31,-315.98 252.19,-346.01"/>
</g>
<!-- économie&#45;&#45;politique -->
<g id="edge61" class="edge">
<title>économie&#45;&#45;politique</title>
<path fill="none" stroke="darkgrey" stroke-width="4.61" d="M265.37,-177.43C286.79,-175.06 322.12,-171.14 341.89,-168.95"/>
</g>
<!-- économie&#45;&#45;secteur nickel -->
<g id="edge62" class="edge">
<title>économie&#45;&#45;secteur nickel</title>
<path fill="none" stroke="darkgrey" stroke-width="3.32" d="M265.41,-181.8C310.04,-187.67 425.15,-202.81 469.66,-208.67"/>
</g>
<!-- économie&#45;&#45;nature -->
<g id="edge63" class="edge">
<title>économie&#45;&#45;nature</title>
<path fill="none" stroke="darkgrey" stroke-width="2.58" d="M261.8,-190.63C297.24,-218.11 387.91,-288.41 420,-313.3"/>
</g>
<!-- économie&#45;&#45;société néo&#45;calédonienne -->
<g id="edge64" class="edge">
<title>économie&#45;&#45;société néo&#45;calédonienne</title>
<path fill="none" stroke="darkgrey" stroke-width="1.25" d="M261.88,-168.79C304.85,-137.33 429.71,-45.92 450.85,-30.44"/>
</g>
<!-- économie&#45;&#45;exploitation minière -->
<g id="edge65" class="edge">
<title>économie&#45;&#45;exploitation minière</title>
<path fill="none" stroke="darkgrey" stroke-width="1.78" d="M257.13,-194.54C283.74,-235.7 357.13,-349.17 381.56,-386.96"/>
</g>
<!-- économie&#45;&#45;alternative au développement -->
<g id="edge66" class="edge">
<title>économie&#45;&#45;alternative au développement</title>
<path fill="none" stroke="darkgrey" stroke-width="1.39" d="M254.85,-162.91C270.95,-127.46 308,-45.87 315.91,-28.44"/>
</g>
<!-- économie&#45;&#45;matériel -->
<g id="edge67" class="edge">
<title>économie&#45;&#45;matériel</title>
<path fill="none" stroke="darkgrey" stroke-width="2.12" d="M264.09,-186.68C308.95,-206.12 431.26,-259.13 471.98,-276.78"/>
</g>
<!-- économie&#45;&#45;industrie -->
<g id="edge70" class="edge">
<title>économie&#45;&#45;industrie</title>
<path fill="none" stroke="darkgrey" stroke-width="2.5" d="M257.67,-194.52C275.02,-219.91 309.83,-270.86 327.1,-296.13"/>
</g>
<!-- économie&#45;&#45;échange commercial -->
<g id="edge72" class="edge">
<title>économie&#45;&#45;échange commercial</title>
<path fill="none" stroke="darkgrey" stroke-width="1.57" d="M257.78,-194.11C267.14,-207.28 280.4,-225.95 287.12,-235.4"/>
</g>
<!-- économie&#45;&#45;foncier -->
<g id="edge68" class="edge">
<title>économie&#45;&#45;foncier</title>
<path fill="none" stroke="darkgrey" stroke-width="1.01" d="M264.43,-173.25C309.11,-157.08 428.09,-114.02 458.02,-103.19"/>
</g>
<!-- économie&#45;&#45;relation politique -->
<g id="edge69" class="edge">
<title>économie&#45;&#45;relation politique</title>
<path fill="none" stroke="darkgrey" stroke-width="1.22" d="M243.36,-161.59C234.41,-121.58 213.16,-26.65 208.78,-7.07"/>
</g>
<!-- économie&#45;&#45;risque -->
<g id="edge71" class="edge">
<title>économie&#45;&#45;risque</title>
<path fill="none" stroke="darkgrey" d="M229.89,-175.03C182.84,-163.18 55.44,-131.1 32.92,-125.43"/>
</g>
<!-- nickel&#45;&#45;ressource minière -->
<g id="edge73" class="edge">
<title>nickel&#45;&#45;ressource minière</title>
<path fill="none" stroke="darkgrey" stroke-width="5.39" d="M240.59,-287.58C244.11,-308.13 248.28,-332.55 250.64,-346.35"/>
</g>
<!-- nickel&#45;&#45;politique -->
<g id="edge74" class="edge">
<title>nickel&#45;&#45;politique</title>
<path fill="none" stroke="darkgrey" stroke-width="2.61" d="M264.32,-231.21C289.99,-213.41 325.72,-188.64 344.23,-175.8"/>
</g>
<!-- nickel&#45;&#45;secteur nickel -->
<g id="edge75" class="edge">
<title>nickel&#45;&#45;secteur nickel</title>
<path fill="none" stroke="darkgrey" stroke-width="6.21" d="M270.22,-246.13C325.13,-237.26 428.27,-220.61 469.7,-213.92"/>
</g>
<!-- nickel&#45;&#45;nature -->
<g id="edge76" class="edge">
<title>nickel&#45;&#45;nature</title>
<path fill="none" stroke="darkgrey" stroke-width="5.63" d="M268.81,-264.14C312.68,-279.8 386.64,-306.19 417.4,-317.17"/>
</g>
<!-- nickel&#45;&#45;exploitation minière -->
<g id="edge77" class="edge">
<title>nickel&#45;&#45;exploitation minière</title>
<path fill="none" stroke="darkgrey" stroke-width="7.4" d="M260.81,-276.91C295.38,-309.79 354.54,-366.05 378.77,-389.09"/>
</g>
<!-- nickel&#45;&#45;alternative au développement -->
<g id="edge78" class="edge">
<title>nickel&#45;&#45;alternative au développement</title>
<path fill="none" stroke="darkgrey" stroke-width="1.56" d="M246.91,-217.95C267.78,-160.86 308.4,-49.8 316.13,-28.65"/>
</g>
<!-- nickel&#45;&#45;matériel -->
<g id="edge79" class="edge">
<title>nickel&#45;&#45;matériel</title>
<path fill="none" stroke="darkgrey" stroke-width="5.44" d="M270.44,-256.29C326.53,-263.15 432.44,-276.11 470.92,-280.82"/>
</g>
<!-- nickel&#45;&#45;industrie -->
<g id="edge82" class="edge">
<title>nickel&#45;&#45;industrie</title>
<path fill="none" stroke="darkgrey" stroke-width="8.03" d="M265.9,-269.96C284.32,-280.57 306.81,-293.5 321.56,-301.99"/>
</g>
<!-- nickel&#45;&#45;échange commercial -->
<g id="edge83" class="edge">
<title>nickel&#45;&#45;échange commercial</title>
<path fill="none" stroke="darkgrey" stroke-width="2.58" d="M270.19,-245.3C275.55,-244.31 280.54,-243.39 284.33,-242.69"/>
</g>
<!-- nickel&#45;&#45;foncier -->
<g id="edge80" class="edge">
<title>nickel&#45;&#45;foncier</title>
<path fill="none" stroke="darkgrey" stroke-width="2.08" d="M264.62,-232.13C319.28,-196.26 431.65,-122.53 458.89,-104.65"/>
</g>
<!-- nickel&#45;&#45;relation politique -->
<g id="edge81" class="edge">
<title>nickel&#45;&#45;relation politique</title>
<path fill="none" stroke="darkgrey" stroke-width="1.14" d="M230.67,-216.04C224.01,-153.7 210.78,-29.79 208.36,-7.11"/>
</g>
<!-- ressource minière&#45;&#45;politique -->
<g id="edge84" class="edge">
<title>ressource minière&#45;&#45;politique</title>
<path fill="none" stroke="darkgrey" stroke-width="3.01" d="M257.81,-347.63C275.1,-316.03 329.89,-215.86 349.43,-180.14"/>
</g>
<!-- ressource minière&#45;&#45;secteur nickel -->
<g id="edge85" class="edge">
<title>ressource minière&#45;&#45;secteur nickel</title>
<path fill="none" stroke="darkgrey" stroke-width="1.89" d="M262.02,-351.4C298.18,-328.89 427.39,-248.49 472.18,-220.62"/>
</g>
<!-- ressource minière&#45;&#45;nature -->
<g id="edge86" class="edge">
<title>ressource minière&#45;&#45;nature</title>
<path fill="none" stroke="darkgrey" stroke-width="1.85" d="M263.44,-355.17C294.33,-349.11 382.29,-331.85 417.07,-325.02"/>
</g>
<!-- ressource minière&#45;&#45;exploitation minière -->
<g id="edge87" class="edge">
<title>ressource minière&#45;&#45;exploitation minière</title>
<path fill="none" stroke="darkgrey" stroke-width="2.47" d="M263.27,-360.61C287.89,-368.17 348.3,-386.71 375.69,-395.12"/>
</g>
<!-- ressource minière&#45;&#45;matériel -->
<g id="edge88" class="edge">
<title>ressource minière&#45;&#45;matériel</title>
<path fill="none" stroke="darkgrey" stroke-width="1.9" d="M263.12,-353.91C300.85,-341.8 428.5,-300.83 471.27,-287.11"/>
</g>
<!-- ressource minière&#45;&#45;industrie -->
<g id="edge89" class="edge">
<title>ressource minière&#45;&#45;industrie</title>
<path fill="none" stroke="darkgrey" stroke-width="2.46" d="M262.24,-352.01C276.68,-344.13 303.96,-329.25 321.35,-319.76"/>
</g>
<!-- ressource minière&#45;&#45;échange commercial -->
<g id="edge90" class="edge">
<title>ressource minière&#45;&#45;échange commercial</title>
<path fill="none" stroke="darkgrey" stroke-width="1.5" d="M256.1,-346.62C263.99,-323.08 282.67,-267.35 289.13,-248.08"/>
</g>
<!-- politique&#45;&#45;secteur nickel -->
<g id="edge91" class="edge">
<title>politique&#45;&#45;secteur nickel</title>
<path fill="none" stroke="darkgrey" stroke-width="3.1" d="M370.47,-172.01C394.66,-180.07 444.12,-196.55 470.35,-205.29"/>
</g>
<!-- politique&#45;&#45;nature -->
<g id="edge92" class="edge">
<title>politique&#45;&#45;nature</title>
<path fill="none" stroke="darkgrey" stroke-width="1.4" d="M362.83,-180.54C377.01,-209.8 410.93,-279.8 425.1,-309.03"/>
</g>
<!-- politique&#45;&#45;société néo&#45;calédonienne -->
<g id="edge93" class="edge">
<title>politique&#45;&#45;société néo&#45;calédonienne</title>
<path fill="none" stroke="darkgrey" stroke-width="1.45" d="M365.08,-154.99C386.33,-124.66 440.19,-47.78 451.72,-31.33"/>
</g>
<!-- politique&#45;&#45;exploitation minière -->
<g id="edge94" class="edge">
<title>politique&#45;&#45;exploitation minière</title>
<path fill="none" stroke="darkgrey" stroke-width="1.76" d="M358.51,-181.85C364.47,-223.53 381.57,-343.21 387.53,-384.88"/>
</g>
<!-- politique&#45;&#45;alternative au développement -->
<g id="edge95" class="edge">
<title>politique&#45;&#45;alternative au développement</title>
<path fill="none" stroke="darkgrey" stroke-width="1.45" d="M352.55,-153.18C343.84,-121.43 323.13,-45.94 318.39,-28.69"/>
</g>
<!-- politique&#45;&#45;matériel -->
<g id="edge96" class="edge">
<title>politique&#45;&#45;matériel</title>
<path fill="none" stroke="darkgrey" stroke-width="1.29" d="M367.43,-177.16C391.79,-198.94 450.07,-251.03 474.4,-272.78"/>
</g>
<!-- politique&#45;&#45;industrie -->
<g id="edge99" class="edge">
<title>politique&#45;&#45;industrie</title>
<path fill="none" stroke="darkgrey" stroke-width="2.69" d="M354.49,-181.91C350.98,-208.31 343.57,-264 339.73,-292.85"/>
</g>
<!-- politique&#45;&#45;échange commercial -->
<g id="edge100" class="edge">
<title>politique&#45;&#45;échange commercial</title>
<path fill="none" stroke="darkgrey" stroke-width="1.53" d="M346.83,-178.27C332.69,-194.36 306.8,-223.84 296.14,-235.96"/>
</g>
<!-- politique&#45;&#45;foncier -->
<g id="edge97" class="edge">
<title>politique&#45;&#45;foncier</title>
<path fill="none" stroke="darkgrey" stroke-width="1.16" d="M368.88,-159.69C392.04,-145.47 440.97,-115.41 458.51,-104.63"/>
</g>
<!-- politique&#45;&#45;relation politique -->
<g id="edge98" class="edge">
<title>politique&#45;&#45;relation politique</title>
<path fill="none" stroke="darkgrey" stroke-width="1.77" d="M346.69,-156.59C316.76,-123.56 227.15,-24.67 210.62,-6.41"/>
</g>
<!-- secteur nickel&#45;&#45;nature -->
<g id="edge101" class="edge">
<title>secteur nickel&#45;&#45;nature</title>
<path fill="none" stroke="darkgrey" stroke-width="1.88" d="M479.31,-227.43C468.09,-249.66 448.29,-288.89 438.04,-309.2"/>
</g>
<!-- secteur nickel&#45;&#45;société néo&#45;calédonienne -->
<g id="edge103" class="edge">
<title>secteur nickel&#45;&#45;société néo&#45;calédonienne</title>
<path fill="none" stroke="darkgrey" stroke-width="1.31" d="M484.3,-193.17C476.69,-151.83 458.22,-51.61 454.55,-31.68"/>
</g>
<!-- secteur nickel&#45;&#45;exploitation minière -->
<g id="edge104" class="edge">
<title>secteur nickel&#45;&#45;exploitation minière</title>
<path fill="none" stroke="darkgrey" stroke-width="2.11" d="M479.24,-227.09C460.17,-263.74 413.75,-352.97 396.34,-386.43"/>
</g>
<!-- secteur nickel&#45;&#45;alternative au développement -->
<g id="edge105" class="edge">
<title>secteur nickel&#45;&#45;alternative au développement</title>
<path fill="none" stroke="darkgrey" stroke-width="1.18" d="M475.36,-197.66C439.69,-158.7 337.27,-46.81 319.93,-27.87"/>
</g>
<!-- secteur nickel&#45;&#45;matériel -->
<g id="edge106" class="edge">
<title>secteur nickel&#45;&#45;matériel</title>
<path fill="none" stroke="darkgrey" stroke-width="2.45" d="M487.03,-229.09C486.66,-241.01 486.18,-256.45 485.83,-267.67"/>
</g>
<!-- secteur nickel&#45;&#45;industrie -->
<g id="edge108" class="edge">
<title>secteur nickel&#45;&#45;industrie</title>
<path fill="none" stroke="darkgrey" stroke-width="5.17" d="M472.36,-221.17C443.55,-240.34 381.42,-281.69 352.58,-300.88"/>
</g>
<!-- secteur nickel&#45;&#45;échange commercial -->
<g id="edge109" class="edge">
<title>secteur nickel&#45;&#45;échange commercial</title>
<path fill="none" stroke="darkgrey" stroke-width="2.02" d="M469.49,-213.83C427.74,-220.29 326.2,-236 298.47,-240.29"/>
</g>
<!-- secteur nickel&#45;&#45;amélioration environnementale -->
<g id="edge102" class="edge">
<title>secteur nickel&#45;&#45;amélioration environnementale</title>
<path fill="none" stroke="darkgrey" stroke-width="1.06" d="M503.29,-201.92C557.57,-170.41 735.46,-67.16 761.56,-52"/>
</g>
<!-- secteur nickel&#45;&#45;foncier -->
<g id="edge107" class="edge">
<title>secteur nickel&#45;&#45;foncier</title>
<path fill="none" stroke="darkgrey" stroke-width="1.85" d="M483.95,-193.3C478.87,-168.57 469.89,-124.82 466.39,-107.77"/>
</g>
<!-- nature&#45;&#45;société néo&#45;calédonienne -->
<g id="edge110" class="edge">
<title>nature&#45;&#45;société néo&#45;calédonienne</title>
<path fill="none" stroke="darkgrey" stroke-width="1.35" d="M432.59,-307.62C436.76,-252.93 451.36,-61.61 453.62,-32.05"/>
</g>
<!-- nature&#45;&#45;exploitation minière -->
<g id="edge111" class="edge">
<title>nature&#45;&#45;exploitation minière</title>
<path fill="none" stroke="darkgrey" stroke-width="1.51" d="M424.56,-334.94C416.8,-349.24 404.29,-372.31 396.53,-386.62"/>
</g>
<!-- nature&#45;&#45;matériel -->
<g id="edge112" class="edge">
<title>nature&#45;&#45;matériel</title>
<path fill="none" stroke="darkgrey" stroke-width="3.18" d="M443.17,-313.6C452.09,-307.05 464.32,-298.05 473.32,-291.44"/>
</g>
<!-- nature&#45;&#45;industrie -->
<g id="edge114" class="edge">
<title>nature&#45;&#45;industrie</title>
<path fill="none" stroke="darkgrey" stroke-width="2.49" d="M416.76,-320.45C400.21,-318.5 373.31,-315.31 355.46,-313.2"/>
</g>
<!-- nature&#45;&#45;échange commercial -->
<g id="edge115" class="edge">
<title>nature&#45;&#45;échange commercial</title>
<path fill="none" stroke="darkgrey" stroke-width="1.21" d="M418.55,-314.74C389.28,-297.86 318.86,-257.25 297.57,-244.97"/>
</g>
<!-- nature&#45;&#45;foncier -->
<g id="edge113" class="edge">
<title>nature&#45;&#45;foncier</title>
<path fill="none" stroke="darkgrey" stroke-width="1.47" d="M433.67,-307.66C440.16,-264.73 459.07,-139.54 463.83,-107.98"/>
</g>
<!-- société néo&#45;calédonienne&#45;&#45;matériel -->
<g id="edge116" class="edge">
<title>société néo&#45;calédonienne&#45;&#45;matériel</title>
<path fill="none" stroke="darkgrey" stroke-width="1.51" d="M454.36,-31.8C457.58,-57.88 477.44,-218.49 483.57,-268.04"/>
</g>
<!-- société néo&#45;calédonienne&#45;&#45;relation politique -->
<g id="edge117" class="edge">
<title>société néo&#45;calédonienne&#45;&#45;relation politique</title>
<path fill="none" stroke="darkgrey" stroke-width="1.04" d="M450.05,-27.81C421.2,-24.92 239.82,-6.7 211.65,-3.87"/>
</g>
<!-- exploitation minière&#45;&#45;matériel -->
<g id="edge118" class="edge">
<title>exploitation minière&#45;&#45;matériel</title>
<path fill="none" stroke="darkgrey" stroke-width="2.68" d="M399.13,-387.76C417.58,-365.26 457.96,-316.01 476.15,-293.82"/>
</g>
<!-- exploitation minière&#45;&#45;industrie -->
<g id="edge119" class="edge">
<title>exploitation minière&#45;&#45;industrie</title>
<path fill="none" stroke="darkgrey" stroke-width="2.92" d="M382.11,-386.73C372.73,-370.89 356.68,-343.77 346.55,-326.66"/>
</g>
<!-- exploitation minière&#45;&#45;échange commercial -->
<g id="edge120" class="edge">
<title>exploitation minière&#45;&#45;échange commercial</title>
<path fill="none" stroke="darkgrey" stroke-width="1.83" d="M381.89,-386.99C362.08,-355.13 309.92,-271.23 295.26,-247.64"/>
</g>
<!-- alternative au développement&#45;&#45;industrie -->
<g id="edge121" class="edge">
<title>alternative au développement&#45;&#45;industrie</title>
<path fill="none" stroke="darkgrey" stroke-width="1.07" d="M317.67,-28.75C319.59,-56.41 332.02,-235.1 336.05,-292.98"/>
</g>
<!-- matériel&#45;&#45;industrie -->
<g id="edge123" class="edge">
<title>matériel&#45;&#45;industrie</title>
<path fill="none" stroke="darkgrey" stroke-width="4.07" d="M470.9,-285.37C443.69,-290.6 384.94,-301.89 355.26,-307.6"/>
</g>
<!-- matériel&#45;&#45;échange commercial -->
<g id="edge124" class="edge">
<title>matériel&#45;&#45;échange commercial</title>
<path fill="none" stroke="darkgrey" stroke-width="1.71" d="M471.1,-279.56C432.43,-271.34 326.58,-248.87 298.36,-242.88"/>
</g>
<!-- matériel&#45;&#45;foncier -->
<g id="edge122" class="edge">
<title>matériel&#45;&#45;foncier</title>
<path fill="none" stroke="darkgrey" stroke-width="1.33" d="M483.73,-268.01C479.58,-231.08 468.78,-134.88 465.74,-107.85"/>
</g>
<!-- industrie&#45;&#45;échange commercial -->
<g id="edge127" class="edge">
<title>industrie&#45;&#45;échange commercial</title>
<path fill="none" stroke="darkgrey" stroke-width="1.62" d="M327.34,-295.94C317.31,-280.73 302.36,-258.05 295.31,-247.37"/>
</g>
<!-- foncier&#45;&#45;industrie -->
<g id="edge125" class="edge">
<title>foncier&#45;&#45;industrie</title>
<path fill="none" stroke="darkgrey" stroke-width="2.1" d="M461.25,-106.76C444.21,-134.85 372.71,-252.7 346.76,-295.46"/>
</g>
<!-- relation politique&#45;&#45;échange commercial -->
<g id="edge126" class="edge">
<title>relation politique&#45;&#45;échange commercial</title>
<path fill="none" stroke="darkgrey" stroke-width="1.21" d="M209.16,-6.86C218.18,-32.62 276.34,-198.53 288.96,-234.51"/>
</g>
<!-- pollution -->
<g id="node1" class="node">
<title>pollution</title>
<ellipse fill="#ae305c" stroke="white" stroke-width="0" cx="384.58" cy="-251.21" rx="18" ry="18"/>
<text text-anchor="middle" x="348.08" y="-271.81" font-family="Helvetica,sans-Serif" font-size="8.00" fill="#4d4d4d">pollution</text>
</g>
<!-- dégradation environnementale -->
<g id="node2" class="node">
<title>dégradation environnementale</title>
<ellipse fill="#f1ed71" stroke="white" stroke-width="0" cx="436.59" cy="-174.23" rx="32.5" ry="32.5"/>
<text text-anchor="middle" x="340.59" y="-209.33" font-family="Helvetica,sans-Serif" font-size="8.00" fill="#4d4d4d">dégradation environnementale</text>
</g>
<!-- nouvelle&#45;calédonie -->
<g id="node3" class="node">
<title>nouvelle&#45;calédonie</title>
<ellipse fill="#1e0c45" stroke="white" stroke-width="0" cx="302.69" cy="-414.88" rx="3.5" ry="3.5"/>
<text text-anchor="middle" x="259.69" y="-420.98" font-family="Helvetica,sans-Serif" font-size="8.00" fill="#4d4d4d">nouvelle&#45;calédonie</text>
</g>
<!-- travail -->
<g id="node4" class="node">
<title>travail</title>
<ellipse fill="#eb6429" stroke="white" stroke-width="0" cx="292.9" cy="-148.42" rx="25" ry="25"/>
<text text-anchor="middle" x="254.9" y="-126.02" font-family="Helvetica,sans-Serif" font-size="8.00" fill="#4d4d4d">travail</text>
</g>
<!-- économie -->
<g id="node5" class="node">
<title>économie</title>
<ellipse fill="#ba3655" stroke="white" stroke-width="0" cx="247.35" cy="-179.43" rx="18" ry="18"/>
<text text-anchor="middle" x="208.85" y="-200.03" font-family="Helvetica,sans-Serif" font-size="8.00" fill="#4d4d4d">économie</text>
</g>
<!-- nickel -->
<g id="node6" class="node">
<title>nickel</title>
<ellipse fill="#fcffa4" stroke="white" stroke-width="0" cx="234.49" cy="-251.89" rx="36" ry="36"/>
<text text-anchor="middle" x="186.49" y="-290.49" font-family="Helvetica,sans-Serif" font-size="8.00" fill="#4d4d4d">nickel</text>
</g>
<!-- ressource minière -->
<g id="node7" class="node">
<title>ressource minière</title>
<ellipse fill="#6a176e" stroke="white" stroke-width="0" cx="252.51" cy="-357.31" rx="11" ry="11"/>
<text text-anchor="middle" x="205.01" y="-370.91" font-family="Helvetica,sans-Serif" font-size="8.00" fill="#4d4d4d">ressource minière</text>
</g>
<!-- politique -->
<g id="node8" class="node">
<title>politique</title>
<ellipse fill="#9d2964" stroke="white" stroke-width="0" cx="356.43" cy="-167.34" rx="14.5" ry="14.5"/>
<text text-anchor="middle" x="323.43" y="-184.44" font-family="Helvetica,sans-Serif" font-size="8.00" fill="#4d4d4d">politique</text>
</g>
<!-- secteur nickel -->
<g id="node9" class="node">
<title>secteur nickel</title>
<ellipse fill="#b63458" stroke="white" stroke-width="0" cx="487.59" cy="-211.03" rx="18" ry="18"/>
<text text-anchor="middle" x="441.09" y="-231.63" font-family="Helvetica,sans-Serif" font-size="8.00" fill="#4d4d4d">secteur nickel</text>
</g>
<!-- nature -->
<g id="node10" class="node">
<title>nature</title>
<ellipse fill="#88226a" stroke="white" stroke-width="0" cx="431.48" cy="-322.2" rx="14.5" ry="14.5"/>
<text text-anchor="middle" x="403.48" y="-339.3" font-family="Helvetica,sans-Serif" font-size="8.00" fill="#4d4d4d">nature</text>
</g>
<!-- société néo&#45;calédonienne -->
<g id="node11" class="node">
<title>société néo&#45;calédonienne</title>
<ellipse fill="#190c3e" stroke="white" stroke-width="0" cx="453.91" cy="-28.2" rx="3.5" ry="3.5"/>
<text text-anchor="middle" x="396.41" y="-34.3" font-family="Helvetica,sans-Serif" font-size="8.00" fill="#4d4d4d">société néo&#45;calédonienne</text>
</g>
<!-- exploitation minière -->
<g id="node12" class="node">
<title>exploitation minière</title>
<ellipse fill="#7d1e6d" stroke="white" stroke-width="0" cx="389.6" cy="-399.39" rx="14.5" ry="14.5"/>
<text text-anchor="middle" x="334.6" y="-387.49" font-family="Helvetica,sans-Serif" font-size="8.00" fill="#4d4d4d">exploitation minière</text>
</g>
<!-- alternative au développement -->
<g id="node13" class="node">
<title>alternative au développement</title>
<ellipse fill="#140b34" stroke="white" stroke-width="0" cx="317.42" cy="-25.13" rx="3.5" ry="3.5"/>
<text text-anchor="middle" x="251.92" y="-31.23" font-family="Helvetica,sans-Serif" font-size="8.00" fill="#4d4d4d">alternative au développement</text>
</g>
<!-- matériel -->
<g id="node14" class="node">
<title>matériel</title>
<ellipse fill="#932667" stroke="white" stroke-width="0" cx="485.37" cy="-282.58" rx="14.5" ry="14.5"/>
<text text-anchor="middle" x="453.87" y="-299.68" font-family="Helvetica,sans-Serif" font-size="8.00" fill="#4d4d4d">matériel</text>
</g>
<!-- industrie -->
<g id="node15" class="node">
<title>industrie</title>
<ellipse fill="#b43359" stroke="white" stroke-width="0" cx="337.3" cy="-311.05" rx="18" ry="18"/>
<text text-anchor="middle" x="300.8" y="-331.65" font-family="Helvetica,sans-Serif" font-size="8.00" fill="#4d4d4d">industrie</text>
</g>
<!-- échange commercial -->
<g id="node16" class="node">
<title>échange commercial</title>
<ellipse fill="#390963" stroke="white" stroke-width="0" cx="291.37" cy="-241.39" rx="7" ry="7"/>
<text text-anchor="middle" x="318.12" y="-227.99" font-family="Helvetica,sans-Serif" font-size="8.00" fill="#4d4d4d">échange commercial</text>
</g>
<!-- amélioration environnementale -->
<g id="node17" class="node">
<title>amélioration environnementale</title>
<ellipse fill="#040312" stroke="white" stroke-width="0" cx="764.77" cy="-50.14" rx="3.5" ry="3.5"/>
<text text-anchor="middle" x="696.77" y="-56.24" font-family="Helvetica,sans-Serif" font-size="8.00" fill="#4d4d4d">amélioration environnementale</text>
</g>
<!-- foncier -->
<g id="node18" class="node">
<title>foncier</title>
<ellipse fill="#260c51" stroke="white" stroke-width="0" cx="464.93" cy="-100.69" rx="7" ry="7"/>
<text text-anchor="middle" x="443.43" y="-110.29" font-family="Helvetica,sans-Serif" font-size="8.00" fill="#4d4d4d">foncier</text>
</g>
<!-- relation politique -->
<g id="node19" class="node">
<title>relation politique</title>
<ellipse fill="#0c0826" stroke="white" stroke-width="0" cx="207.98" cy="-3.5" rx="3.5" ry="3.5"/>
<text text-anchor="middle" x="169.48" y="-9.6" font-family="Helvetica,sans-Serif" font-size="8.00" fill="#4d4d4d">relation politique</text>
</g>
<!-- risque -->
<g id="node20" class="node">
<title>risque</title>
<ellipse fill="#050417" stroke="white" stroke-width="0" cx="29.5" cy="-124.57" rx="3.5" ry="3.5"/>
<text text-anchor="middle" x="13" y="-130.67" font-family="Helvetica,sans-Serif" font-size="8.00" fill="#4d4d4d">risque</text>
</g>
<!-- avenir sans nickel -->
<g id="node21" class="node">
<title>avenir sans nickel</title>
<ellipse fill="#000004" stroke="white" stroke-width="0" cx="878.14" cy="-271.76" rx="0.5" ry="0.5"/>
<text text-anchor="middle" x="841.14" y="-274.86" font-family="Helvetica,sans-Serif" font-size="8.00" fill="#4d4d4d">avenir sans nickel</text>
</g>
</g>
</svg>
