<?xml version="1.0" encoding="UTF-8" standalone="no"?>
<!DOCTYPE svg PUBLIC "-//W3C//DTD SVG 1.1//EN"
 "http://www.w3.org/Graphics/SVG/1.1/DTD/svg11.dtd">
<!-- Generated by graphviz version 2.43.0 (0)
 -->
<!-- Pages: 1 -->
<svg width="813pt" height="377pt"
 viewBox="0.00 0.00 812.74 377.17" xmlns="http://www.w3.org/2000/svg" xmlns:xlink="http://www.w3.org/1999/xlink">
<g id="graph0" class="graph" transform="scale(1 1) rotate(0) translate(4 373.17)">
<polygon fill="white" stroke="transparent" points="-4,4 -4,-373.17 808.74,-373.17 808.74,4 -4,4"/>
<!-- fin&#45;&#45;pollution -->
<g id="edge1" class="edge">
<title>fin&#45;&#45;pollution</title>
<path fill="none" stroke="darkgrey" stroke-width="1.62" d="M449.51,-21.61C455.4,-43.09 468.87,-92.2 477.03,-121.96"/>
</g>
<!-- fin&#45;&#45;impact environnemental -->
<g id="edge2" class="edge">
<title>fin&#45;&#45;impact environnemental</title>
<path fill="none" stroke="darkgrey" stroke-width="1.89" d="M442.3,-21.46C432.81,-44.53 409.73,-100.6 394.76,-136.98"/>
</g>
<!-- pollution&#45;&#45;impact environnemental -->
<g id="edge9" class="edge">
<title>pollution&#45;&#45;impact environnemental</title>
<path fill="none" stroke="darkgrey" stroke-width="10" d="M459.35,-151.96C446.42,-155 430.3,-158.8 416.05,-162.16"/>
</g>
<!-- pollution&#45;&#45;économie du pays -->
<g id="edge11" class="edge">
<title>pollution&#45;&#45;économie du pays</title>
<path fill="none" stroke="darkgrey" stroke-width="2.48" d="M460.71,-157.03C422.65,-174.93 348.02,-210.02 320.85,-222.8"/>
</g>
<!-- pollution&#45;&#45;amélioration environnementale -->
<g id="edge12" class="edge">
<title>pollution&#45;&#45;amélioration environnementale</title>
<path fill="none" stroke="darkgrey" stroke-width="1.61" d="M491.35,-170.08C496.06,-184.73 501.97,-203.14 506.22,-216.35"/>
</g>
<!-- pollution&#45;&#45;épuisement de la ressource -->
<g id="edge7" class="edge">
<title>pollution&#45;&#45;épuisement de la ressource</title>
<path fill="none" stroke="darkgrey" stroke-width="3.32" d="M471.42,-168.14C450.23,-205.96 407.61,-282.06 392.37,-309.27"/>
</g>
<!-- pollution&#45;&#45;biodiversité -->
<g id="edge8" class="edge">
<title>pollution&#45;&#45;biodiversité</title>
<path fill="none" stroke="darkgrey" stroke-width="1.26" d="M508.3,-150.61C553.96,-158.75 648.9,-175.68 668.42,-179.16"/>
</g>
<!-- pollution&#45;&#45;développement -->
<g id="edge10" class="edge">
<title>pollution&#45;&#45;développement</title>
<path fill="none" stroke="darkgrey" stroke-width="1.66" d="M472.07,-168.69C460.14,-191.77 442.11,-226.64 433.38,-243.53"/>
</g>
<!-- pollution&#45;&#45;innovation -->
<g id="edge13" class="edge">
<title>pollution&#45;&#45;innovation</title>
<path fill="none" stroke="darkgrey" stroke-width="1.21" d="M505.48,-133.88C541.58,-113.44 612.35,-73.35 638.12,-58.76"/>
</g>
<!-- impact environnemental&#45;&#45;économie du pays -->
<g id="edge20" class="edge">
<title>impact environnemental&#45;&#45;économie du pays</title>
<path fill="none" stroke="darkgrey" stroke-width="3.5" d="M352.79,-193.34C340.86,-203.04 327.82,-213.64 319.45,-220.44"/>
</g>
<!-- impact environnemental&#45;&#45;amélioration environnementale -->
<g id="edge21" class="edge">
<title>impact environnemental&#45;&#45;amélioration environnementale</title>
<path fill="none" stroke="darkgrey" stroke-width="2.28" d="M413.65,-186.18C439.67,-198.74 475,-215.8 495.39,-225.64"/>
</g>
<!-- impact environnemental&#45;&#45;développement -->
<g id="edge19" class="edge">
<title>impact environnemental&#45;&#45;développement</title>
<path fill="none" stroke="darkgrey" stroke-width="2.73" d="M398.87,-201.79C407.34,-216.66 416.87,-233.38 422.72,-243.65"/>
</g>
<!-- impact environnemental&#45;&#45;conflit -->
<g id="edge18" class="edge">
<title>impact environnemental&#45;&#45;conflit</title>
<path fill="none" stroke="darkgrey" stroke-width="3.41" d="M364.34,-202.47C342.22,-245.04 304.62,-317.36 293.42,-338.92"/>
</g>
<!-- impact environnemental&#45;&#45;richesse -->
<g id="edge22" class="edge">
<title>impact environnemental&#45;&#45;richesse</title>
<path fill="none" stroke="darkgrey" stroke-width="1.25" d="M358.27,-142.38C324.18,-100.33 263.16,-25.08 257.51,-18.11"/>
</g>
<!-- emploi&#45;&#45;pollution -->
<g id="edge3" class="edge">
<title>emploi&#45;&#45;pollution</title>
<path fill="none" stroke="darkgrey" stroke-width="4.6" d="M344.5,-128.45C372.57,-132.03 426.78,-138.96 458.63,-143.03"/>
</g>
<!-- emploi&#45;&#45;impact environnemental -->
<g id="edge4" class="edge">
<title>emploi&#45;&#45;impact environnemental</title>
<path fill="none" stroke="darkgrey" stroke-width="4.54" d="M340.51,-137.55C344.29,-140.62 348.53,-144.06 352.8,-147.52"/>
</g>
<!-- emploi&#45;&#45;économie du pays -->
<g id="edge5" class="edge">
<title>emploi&#45;&#45;économie du pays</title>
<path fill="none" stroke="darkgrey" stroke-width="2.67" d="M323.63,-144.28C320.36,-165.26 315.08,-199.12 312.37,-216.51"/>
</g>
<!-- emploi&#45;&#45;amélioration environnementale -->
<g id="edge6" class="edge">
<title>emploi&#45;&#45;amélioration environnementale</title>
<path fill="none" stroke="darkgrey" stroke-width="2.98" d="M342.26,-135.3C377.26,-155.59 461.01,-204.13 495.98,-224.4"/>
</g>
<!-- amélioration environnementale&#45;&#45;développement durable -->
<g id="edge25" class="edge">
<title>amélioration environnementale&#45;&#45;développement durable</title>
<path fill="none" stroke="darkgrey" stroke-width="1.65" d="M524.55,-246.57C547.66,-270.07 595.37,-318.6 611.09,-334.59"/>
</g>
<!-- épuisement de la ressource&#45;&#45;impact environnemental -->
<g id="edge14" class="edge">
<title>épuisement de la ressource&#45;&#45;impact environnemental</title>
<path fill="none" stroke="darkgrey" stroke-width="3.77" d="M386.36,-308.04C385.53,-286.75 383.69,-239.56 382.4,-206.4"/>
</g>
<!-- épuisement de la ressource&#45;&#45;économie du pays -->
<g id="edge17" class="edge">
<title>épuisement de la ressource&#45;&#45;économie du pays</title>
<path fill="none" stroke="darkgrey" d="M379.49,-310.44C364.9,-292.88 332.29,-253.65 317.81,-236.22"/>
</g>
<!-- épuisement de la ressource&#45;&#45;développement -->
<g id="edge16" class="edge">
<title>épuisement de la ressource&#45;&#45;développement</title>
<path fill="none" stroke="darkgrey" stroke-width="1.08" d="M392.74,-309.8C400.62,-297.28 414.46,-275.32 422.34,-262.81"/>
</g>
<!-- épuisement de la ressource&#45;&#45;conflit -->
<g id="edge15" class="edge">
<title>épuisement de la ressource&#45;&#45;conflit</title>
<path fill="none" stroke="darkgrey" stroke-width="1.26" d="M376.08,-322.1C356.23,-327.43 314.22,-338.71 297.37,-343.24"/>
</g>
<!-- développement&#45;&#45;économie du pays -->
<g id="edge23" class="edge">
<title>développement&#45;&#45;économie du pays</title>
<path fill="none" stroke="darkgrey" stroke-width="1.28" d="M417.42,-251.02C395.01,-246.1 343.86,-234.88 321.47,-229.97"/>
</g>
<!-- développement&#45;&#45;amélioration environnementale -->
<g id="edge24" class="edge">
<title>développement&#45;&#45;amélioration environnementale</title>
<path fill="none" stroke="darkgrey" stroke-width="1.14" d="M439.19,-250.8C453.15,-247.48 477.51,-241.68 494.12,-237.73"/>
</g>
<!-- fin -->
<g id="node1" class="node">
<title>fin</title>
<ellipse fill="#71196e" stroke="white" stroke-width="0" cx="446.6" cy="-11" rx="11" ry="11"/>
<text text-anchor="middle" x="424.6" y="-26.56" font-family="Helvetica,sans-Serif" font-size="16.80" fill="#4d4d4d">fin</text>
</g>
<!-- pollution -->
<g id="node2" class="node">
<title>pollution</title>
<ellipse fill="#eb6628" stroke="white" stroke-width="0" cx="483.69" cy="-146.23" rx="25" ry="25"/>
<text text-anchor="middle" x="407.19" y="-102.67" font-family="Helvetica,sans-Serif" font-size="23.20" fill="#4d4d4d">pollution</text>
</g>
<!-- impact environnemental -->
<g id="node3" class="node">
<title>impact environnemental</title>
<ellipse fill="#fcffa4" stroke="white" stroke-width="0" cx="381" cy="-170.41" rx="36" ry="36"/>
<text text-anchor="middle" x="172.5" y="-143.01" font-family="Helvetica,sans-Serif" font-size="28.00" fill="#4d4d4d">impact environnemental</text>
</g>
<!-- emploi -->
<g id="node4" class="node">
<title>emploi</title>
<ellipse fill="#b1325a" stroke="white" stroke-width="0" cx="326.46" cy="-126.14" rx="18" ry="18"/>
<text text-anchor="middle" x="274.96" y="-114.14" font-family="Helvetica,sans-Serif" font-size="20.00" fill="#4d4d4d">emploi</text>
</g>
<!-- économie du pays -->
<g id="node5" class="node">
<title>économie du pays</title>
<ellipse fill="#59106e" stroke="white" stroke-width="0" cx="310.64" cy="-227.6" rx="11" ry="11"/>
<text text-anchor="middle" x="222.64" y="-243.16" font-family="Helvetica,sans-Serif" font-size="16.80" fill="#4d4d4d">économie du pays</text>
</g>
<!-- amélioration environnementale -->
<g id="node6" class="node">
<title>amélioration environnementale</title>
<ellipse fill="#ae305c" stroke="white" stroke-width="0" cx="511.74" cy="-233.53" rx="18" ry="18"/>
<text text-anchor="middle" x="649.24" y="-257.53" font-family="Helvetica,sans-Serif" font-size="20.00" fill="#4d4d4d">amélioration environnementale</text>
</g>
<!-- épuisement de la ressource -->
<g id="node7" class="node">
<title>épuisement de la ressource</title>
<ellipse fill="#5d126e" stroke="white" stroke-width="0" cx="386.79" cy="-319.23" rx="11" ry="11"/>
<text text-anchor="middle" x="258.29" y="-312.79" font-family="Helvetica,sans-Serif" font-size="16.80" fill="#4d4d4d">épuisement de la ressource</text>
</g>
<!-- biodiversité -->
<g id="node8" class="node">
<title>biodiversité</title>
<ellipse fill="#0e092b" stroke="white" stroke-width="0" cx="671.97" cy="-179.79" rx="3.5" ry="3.5"/>
<text text-anchor="middle" x="628.47" y="-187.41" font-family="Helvetica,sans-Serif" font-size="13.60" fill="#4d4d4d">biodiversité</text>
</g>
<!-- développement -->
<g id="node9" class="node">
<title>développement</title>
<ellipse fill="#550f6d" stroke="white" stroke-width="0" cx="428.28" cy="-253.4" rx="11" ry="11"/>
<text text-anchor="middle" x="350.78" y="-268.96" font-family="Helvetica,sans-Serif" font-size="16.80" fill="#4d4d4d">développement</text>
</g>
<!-- innovation -->
<g id="node10" class="node">
<title>innovation</title>
<ellipse fill="#65156e" stroke="white" stroke-width="0" cx="647.8" cy="-53.27" rx="11" ry="11"/>
<text text-anchor="middle" x="592.3" y="-68.83" font-family="Helvetica,sans-Serif" font-size="16.80" fill="#4d4d4d">innovation</text>
</g>
<!-- conflit -->
<g id="node11" class="node">
<title>conflit</title>
<ellipse fill="#420a68" stroke="white" stroke-width="0" cx="290.17" cy="-345.17" rx="7" ry="7"/>
<text text-anchor="middle" x="259.17" y="-357.01" font-family="Helvetica,sans-Serif" font-size="15.20" fill="#4d4d4d">conflit</text>
</g>
<!-- richesse -->
<g id="node12" class="node">
<title>richesse</title>
<ellipse fill="#000004" stroke="white" stroke-width="0" cx="257.09" cy="-17.59" rx="0.5" ry="0.5"/>
<text text-anchor="middle" x="231.59" y="-21.49" font-family="Helvetica,sans-Serif" font-size="12.00" fill="#4d4d4d">richesse</text>
</g>
<!-- développement durable -->
<g id="node13" class="node">
<title>développement durable</title>
<ellipse fill="#490b6a" stroke="white" stroke-width="0" cx="616.23" cy="-339.82" rx="7" ry="7"/>
<text text-anchor="middle" x="518.73" y="-351.66" font-family="Helvetica,sans-Serif" font-size="15.20" fill="#4d4d4d">développement durable</text>
</g>
</g>
</svg>
