<?xml version="1.0" encoding="UTF-8" standalone="no"?>
<!DOCTYPE svg PUBLIC "-//W3C//DTD SVG 1.1//EN"
 "http://www.w3.org/Graphics/SVG/1.1/DTD/svg11.dtd">
<!-- Generated by graphviz version 2.43.0 (0)
 -->
<!-- Pages: 1 -->
<svg width="351pt" height="297pt"
 viewBox="0.00 0.00 351.42 296.76" xmlns="http://www.w3.org/2000/svg" xmlns:xlink="http://www.w3.org/1999/xlink">
<g id="graph0" class="graph" transform="scale(1 1) rotate(0) translate(4 292.76)">
<polygon fill="white" stroke="transparent" points="-4,4 -4,-292.76 347.42,-292.76 347.42,4 -4,4"/>
<!-- emploi&#45;&#45;pollution -->
<g id="edge1" class="edge">
<title>emploi&#45;&#45;pollution</title>
<path fill="none" stroke="darkgrey" stroke-width="10" d="M173.89,-151.43C176.41,-152.89 179.05,-154.43 181.71,-155.97"/>
</g>
<!-- emploi&#45;&#45;impact environnemental -->
<g id="edge2" class="edge">
<title>emploi&#45;&#45;impact environnemental</title>
<path fill="none" stroke="darkgrey" stroke-width="5.25" d="M148.2,-161.17C141.17,-181.86 130.46,-213.38 123.86,-232.79"/>
</g>
<!-- emploi&#45;&#45;ressource -->
<g id="edge3" class="edge">
<title>emploi&#45;&#45;ressource</title>
<path fill="none" stroke="darkgrey" stroke-width="1.67" d="M162.12,-160.95C172.41,-191.22 191.24,-246.59 197.81,-265.9"/>
</g>
<!-- emploi&#45;&#45;économie -->
<g id="edge4" class="edge">
<title>emploi&#45;&#45;économie</title>
<path fill="none" stroke="darkgrey" stroke-width="2.5" d="M135.01,-148.89C117.89,-155.94 94.02,-165.77 80.49,-171.34"/>
</g>
<!-- emploi&#45;&#45;végétalisation -->
<g id="edge5" class="edge">
<title>emploi&#45;&#45;végétalisation</title>
<path fill="none" stroke="darkgrey" stroke-width="1.94" d="M163.15,-120.59C175.31,-90.02 197.94,-33.17 205.67,-13.72"/>
</g>
<!-- pollution&#45;&#45;impact environnemental -->
<g id="edge7" class="edge">
<title>pollution&#45;&#45;impact environnemental</title>
<path fill="none" stroke="darkgrey" stroke-width="5.82" d="M184.94,-196.81C167.61,-210.59 146.17,-227.64 132.3,-238.67"/>
</g>
<!-- pollution&#45;&#45;ressource -->
<g id="edge8" class="edge">
<title>pollution&#45;&#45;ressource</title>
<path fill="none" stroke="darkgrey" stroke-width="1.64" d="M208.49,-210.11C205.79,-230.35 202.66,-253.86 201.11,-265.49"/>
</g>
<!-- pollution&#45;&#45;économie -->
<g id="edge10" class="edge">
<title>pollution&#45;&#45;économie</title>
<path fill="none" stroke="darkgrey" stroke-width="7.26" d="M177.12,-174.63C145.46,-174.93 101.43,-175.35 81.11,-175.54"/>
</g>
<!-- pollution&#45;&#45;épuisable -->
<g id="edge6" class="edge">
<title>pollution&#45;&#45;épuisable</title>
<path fill="none" stroke="darkgrey" stroke-width="8.02" d="M183.34,-153.84C154.16,-133.91 111.26,-104.61 90.52,-90.44"/>
</g>
<!-- pollution&#45;&#45;démolition -->
<g id="edge9" class="edge">
<title>pollution&#45;&#45;démolition</title>
<path fill="none" stroke="darkgrey" stroke-width="4.88" d="M246.91,-187.81C277.06,-199.93 318.35,-216.53 330.52,-221.42"/>
</g>
<!-- pollution&#45;&#45;richesse -->
<g id="edge11" class="edge">
<title>pollution&#45;&#45;richesse</title>
<path fill="none" stroke="darkgrey" d="M244.98,-156.82C280.97,-137.01 335.56,-106.96 342.24,-103.28"/>
</g>
<!-- impact environnemental&#45;&#45;ressource -->
<g id="edge13" class="edge">
<title>impact environnemental&#45;&#45;ressource</title>
<path fill="none" stroke="darkgrey" stroke-width="1.73" d="M135.42,-254.86C153.32,-259.81 180.3,-267.27 193.02,-270.79"/>
</g>
<!-- impact environnemental&#45;&#45;économie -->
<g id="edge14" class="edge">
<title>impact environnemental&#45;&#45;économie</title>
<path fill="none" stroke="darkgrey" stroke-width="3.21" d="M108.06,-234.63C98.4,-219.65 84.04,-197.39 76.01,-184.94"/>
</g>
<!-- épuisable&#45;&#45;économie -->
<g id="edge12" class="edge">
<title>épuisable&#45;&#45;économie</title>
<path fill="none" stroke="darkgrey" stroke-width="1.34" d="M77.11,-96.78C75.42,-115.57 72.52,-147.8 71.01,-164.65"/>
</g>
<!-- emploi -->
<g id="node1" class="node">
<title>emploi</title>
<ellipse fill="#db503b" stroke="white" stroke-width="0" cx="155.19" cy="-140.58" rx="21.5" ry="21.5"/>
<text text-anchor="middle" x="119.69" y="-164.68" font-family="Helvetica,sans-Serif" font-size="8.00" fill="#4d4d4d">emploi</text>
</g>
<!-- pollution -->
<g id="node2" class="node">
<title>pollution</title>
<ellipse fill="#fcffa4" stroke="white" stroke-width="0" cx="213.27" cy="-174.28" rx="36" ry="36"/>
<text text-anchor="middle" x="158.77" y="-212.88" font-family="Helvetica,sans-Serif" font-size="8.00" fill="#4d4d4d">pollution</text>
</g>
<!-- impact environnemental -->
<g id="node3" class="node">
<title>impact environnemental</title>
<ellipse fill="#b93556" stroke="white" stroke-width="0" cx="118" cy="-250.05" rx="18" ry="18"/>
<text text-anchor="middle" x="50" y="-270.65" font-family="Helvetica,sans-Serif" font-size="8.00" fill="#4d4d4d">impact environnemental</text>
</g>
<!-- ressource -->
<g id="node4" class="node">
<title>ressource</title>
<ellipse fill="#400a67" stroke="white" stroke-width="0" cx="200.14" cy="-272.76" rx="7" ry="7"/>
<text text-anchor="middle" x="173.14" y="-282.36" font-family="Helvetica,sans-Serif" font-size="8.00" fill="#4d4d4d">ressource</text>
</g>
<!-- économie -->
<g id="node5" class="node">
<title>économie</title>
<ellipse fill="#771c6d" stroke="white" stroke-width="0" cx="70.02" cy="-175.65" rx="11" ry="11"/>
<text text-anchor="middle" x="38.52" y="-189.25" font-family="Helvetica,sans-Serif" font-size="8.00" fill="#4d4d4d">économie</text>
</g>
<!-- végétalisation -->
<g id="node6" class="node">
<title>végétalisation</title>
<ellipse fill="#380962" stroke="white" stroke-width="0" cx="208.35" cy="-7" rx="7" ry="7"/>
<text text-anchor="middle" x="171.85" y="-16.6" font-family="Helvetica,sans-Serif" font-size="8.00" fill="#4d4d4d">végétalisation</text>
</g>
<!-- épuisable -->
<g id="node7" class="node">
<title>épuisable</title>
<ellipse fill="#8d2369" stroke="white" stroke-width="0" cx="78.42" cy="-82.18" rx="14.5" ry="14.5"/>
<text text-anchor="middle" x="43.42" y="-99.28" font-family="Helvetica,sans-Serif" font-size="8.00" fill="#4d4d4d">épuisable</text>
</g>
<!-- démolition -->
<g id="node8" class="node">
<title>démolition</title>
<ellipse fill="#0b0724" stroke="white" stroke-width="0" cx="334.03" cy="-222.83" rx="3.5" ry="3.5"/>
<text text-anchor="middle" x="308.53" y="-228.93" font-family="Helvetica,sans-Serif" font-size="8.00" fill="#4d4d4d">démolition</text>
</g>
<!-- richesse -->
<g id="node9" class="node">
<title>richesse</title>
<ellipse fill="#000004" stroke="white" stroke-width="0" cx="342.92" cy="-102.91" rx="0.5" ry="0.5"/>
<text text-anchor="middle" x="324.92" y="-106.01" font-family="Helvetica,sans-Serif" font-size="8.00" fill="#4d4d4d">richesse</text>
</g>
</g>
</svg>
