<?xml version="1.0" encoding="UTF-8" standalone="no"?>
<!DOCTYPE svg PUBLIC "-//W3C//DTD SVG 1.1//EN"
 "http://www.w3.org/Graphics/SVG/1.1/DTD/svg11.dtd">
<!-- Generated by graphviz version 2.43.0 (0)
 -->
<!-- Pages: 1 -->
<svg width="336pt" height="284pt"
 viewBox="0.00 0.00 335.64 284.48" xmlns="http://www.w3.org/2000/svg" xmlns:xlink="http://www.w3.org/1999/xlink">
<g id="graph0" class="graph" transform="scale(1 1) rotate(0) translate(4 280.48)">
<polygon fill="white" stroke="transparent" points="-4,4 -4,-280.48 331.64,-280.48 331.64,4 -4,4"/>
<!-- emploi&#45;&#45;pollution -->
<g id="edge1" class="edge">
<title>emploi&#45;&#45;pollution</title>
<path fill="none" stroke="darkgrey" stroke-width="10" d="M193.11,-137.83C191.63,-145.62 189.9,-154.67 188.24,-163.38"/>
</g>
<!-- emploi&#45;&#45;impact environnemental -->
<g id="edge2" class="edge">
<title>emploi&#45;&#45;impact environnemental</title>
<path fill="none" stroke="darkgrey" stroke-width="3.76" d="M185.97,-135.44C170.29,-161.75 142.04,-209.15 127.38,-233.74"/>
</g>
<!-- emploi&#45;&#45;ressource -->
<g id="edge3" class="edge">
<title>emploi&#45;&#45;ressource</title>
<path fill="none" stroke="darkgrey" stroke-width="1.22" d="M215.03,-104.72C240.81,-87.46 287.49,-56.21 307.32,-42.94"/>
</g>
<!-- emploi&#45;&#45;économie -->
<g id="edge4" class="edge">
<title>emploi&#45;&#45;économie</title>
<path fill="none" stroke="darkgrey" stroke-width="1.76" d="M178.56,-128.03C156.23,-141.66 119.35,-164.17 100.14,-175.9"/>
</g>
<!-- emploi&#45;&#45;végétalisation -->
<g id="edge5" class="edge">
<title>emploi&#45;&#45;végétalisation</title>
<path fill="none" stroke="darkgrey" stroke-width="2.11" d="M218.91,-116.18C238.66,-115.72 266.64,-115.07 279.75,-114.76"/>
</g>
<!-- emploi&#45;&#45;automatisation -->
<g id="edge6" class="edge">
<title>emploi&#45;&#45;automatisation</title>
<path fill="none" stroke="darkgrey" stroke-width="1.31" d="M202.09,-95.54C207.91,-70.64 217.28,-30.61 221.1,-14.28"/>
</g>
<!-- pollution&#45;&#45;impact environnemental -->
<g id="edge8" class="edge">
<title>pollution&#45;&#45;impact environnemental</title>
<path fill="none" stroke="darkgrey" stroke-width="7.56" d="M153.09,-221.46C145.82,-227.26 138.32,-233.25 132.13,-238.2"/>
</g>
<!-- pollution&#45;&#45;économie -->
<g id="edge10" class="edge">
<title>pollution&#45;&#45;économie</title>
<path fill="none" stroke="darkgrey" stroke-width="6.23" d="M145.73,-192.97C130.6,-190.51 113.83,-187.79 102.21,-185.9"/>
</g>
<!-- pollution&#45;&#45;épuisable -->
<g id="edge7" class="edge">
<title>pollution&#45;&#45;épuisable</title>
<path fill="none" stroke="darkgrey" stroke-width="9.57" d="M154.72,-174.6C135.39,-157.14 110.3,-134.49 96.21,-121.77"/>
</g>
<!-- pollution&#45;&#45;démolition -->
<g id="edge9" class="edge">
<title>pollution&#45;&#45;démolition</title>
<path fill="none" stroke="darkgrey" stroke-width="6.18" d="M208.27,-223.47C217.72,-232.19 227.42,-241.14 233.17,-246.44"/>
</g>
<!-- pollution&#45;&#45;argent -->
<g id="edge11" class="edge">
<title>pollution&#45;&#45;argent</title>
<path fill="none" stroke="darkgrey" d="M216.44,-207.77C254.15,-217.47 309.73,-231.78 316.53,-233.53"/>
</g>
<!-- impact environnemental&#45;&#45;économie -->
<g id="edge14" class="edge">
<title>impact environnemental&#45;&#45;économie</title>
<path fill="none" stroke="darkgrey" stroke-width="3.16" d="M110.33,-232.84C105.2,-221.7 98.53,-207.23 93.75,-196.85"/>
</g>
<!-- épuisable&#45;&#45;économie -->
<g id="edge12" class="edge">
<title>épuisable&#45;&#45;économie</title>
<path fill="none" stroke="darkgrey" stroke-width="1.49" d="M85.84,-126.81C86.22,-139.09 86.77,-156.45 87.15,-168.73"/>
</g>
<!-- épuisable&#45;&#45;conflit -->
<g id="edge13" class="edge">
<title>épuisable&#45;&#45;conflit</title>
<path fill="none" stroke="darkgrey" stroke-width="1.15" d="M74.77,-101.7C62.07,-89.38 41.59,-69.52 34.36,-62.51"/>
</g>
<!-- emploi -->
<g id="node1" class="node">
<title>emploi</title>
<ellipse fill="#da4e3c" stroke="white" stroke-width="0" cx="197.14" cy="-116.69" rx="21.5" ry="21.5"/>
<text text-anchor="middle" x="161.64" y="-140.79" font-family="Helvetica,sans-Serif" font-size="8.00" fill="#4d4d4d">emploi</text>
</g>
<!-- pollution -->
<g id="node2" class="node">
<title>pollution</title>
<ellipse fill="#fcffa4" stroke="white" stroke-width="0" cx="181.49" cy="-198.77" rx="36" ry="36"/>
<text text-anchor="middle" x="126.99" y="-165.37" font-family="Helvetica,sans-Serif" font-size="8.00" fill="#4d4d4d">pollution</text>
</g>
<!-- impact environnemental -->
<g id="node3" class="node">
<title>impact environnemental</title>
<ellipse fill="#c63d4d" stroke="white" stroke-width="0" cx="118" cy="-249.48" rx="18" ry="18"/>
<text text-anchor="middle" x="50" y="-270.08" font-family="Helvetica,sans-Serif" font-size="8.00" fill="#4d4d4d">impact environnemental</text>
</g>
<!-- ressource -->
<g id="node4" class="node">
<title>ressource</title>
<ellipse fill="#59106e" stroke="white" stroke-width="0" cx="316.64" cy="-36.7" rx="11" ry="11"/>
<text text-anchor="middle" x="285.64" y="-50.3" font-family="Helvetica,sans-Serif" font-size="8.00" fill="#4d4d4d">ressource</text>
</g>
<!-- économie -->
<g id="node5" class="node">
<title>économie</title>
<ellipse fill="#8a226a" stroke="white" stroke-width="0" cx="87.62" cy="-183.54" rx="14.5" ry="14.5"/>
<text text-anchor="middle" x="52.62" y="-200.64" font-family="Helvetica,sans-Serif" font-size="8.00" fill="#4d4d4d">économie</text>
</g>
<!-- végétalisation -->
<g id="node6" class="node">
<title>végétalisation</title>
<ellipse fill="#510e6c" stroke="white" stroke-width="0" cx="287.07" cy="-114.59" rx="7" ry="7"/>
<text text-anchor="middle" x="250.57" y="-124.19" font-family="Helvetica,sans-Serif" font-size="8.00" fill="#4d4d4d">végétalisation</text>
</g>
<!-- automatisation -->
<g id="node7" class="node">
<title>automatisation</title>
<ellipse fill="#2d0b59" stroke="white" stroke-width="0" cx="222.8" cy="-7" rx="7" ry="7"/>
<text text-anchor="middle" x="184.3" y="-16.6" font-family="Helvetica,sans-Serif" font-size="8.00" fill="#4d4d4d">automatisation</text>
</g>
<!-- épuisable -->
<g id="node8" class="node">
<title>épuisable</title>
<ellipse fill="#9f2a63" stroke="white" stroke-width="0" cx="85.37" cy="-111.98" rx="14.5" ry="14.5"/>
<text text-anchor="middle" x="50.37" y="-129.08" font-family="Helvetica,sans-Serif" font-size="8.00" fill="#4d4d4d">épuisable</text>
</g>
<!-- démolition -->
<g id="node9" class="node">
<title>démolition</title>
<ellipse fill="#230c4c" stroke="white" stroke-width="0" cx="238.38" cy="-251.24" rx="7" ry="7"/>
<text text-anchor="middle" x="209.38" y="-260.84" font-family="Helvetica,sans-Serif" font-size="8.00" fill="#4d4d4d">démolition</text>
</g>
<!-- argent -->
<g id="node10" class="node">
<title>argent</title>
<ellipse fill="#000004" stroke="white" stroke-width="0" cx="317.22" cy="-233.7" rx="0.5" ry="0.5"/>
<text text-anchor="middle" x="302.72" y="-236.8" font-family="Helvetica,sans-Serif" font-size="8.00" fill="#4d4d4d">argent</text>
</g>
<!-- conflit -->
<g id="node11" class="node">
<title>conflit</title>
<ellipse fill="#180c3c" stroke="white" stroke-width="0" cx="31.73" cy="-59.96" rx="3.5" ry="3.5"/>
<text text-anchor="middle" x="15.23" y="-66.06" font-family="Helvetica,sans-Serif" font-size="8.00" fill="#4d4d4d">conflit</text>
</g>
</g>
</svg>
