<?xml version="1.0" encoding="UTF-8" standalone="no"?>
<!DOCTYPE svg PUBLIC "-//W3C//DTD SVG 1.1//EN"
 "http://www.w3.org/Graphics/SVG/1.1/DTD/svg11.dtd">
<!-- Generated by graphviz version 2.43.0 (0)
 -->
<!-- Pages: 1 -->
<svg width="1038pt" height="588pt"
 viewBox="0.00 0.00 1037.55 588.18" xmlns="http://www.w3.org/2000/svg" xmlns:xlink="http://www.w3.org/1999/xlink">
<g id="graph0" class="graph" transform="scale(1 1) rotate(0) translate(4 584.18)">
<polygon fill="white" stroke="transparent" points="-4,4 -4,-584.18 1033.55,-584.18 1033.55,4 -4,4"/>
<!-- pollution&#45;&#45;dégradation environnementale -->
<g id="edge1" class="edge">
<title>pollution&#45;&#45;dégradation environnementale</title>
<path fill="none" stroke="darkgrey" stroke-width="7.29" d="M491.38,-358.43C505.61,-366.55 529.11,-379.97 548.29,-390.91"/>
</g>
<!-- pollution&#45;&#45;nouvelle&#45;calédonie -->
<g id="edge2" class="edge">
<title>pollution&#45;&#45;nouvelle&#45;calédonie</title>
<path fill="none" stroke="darkgrey" stroke-width="1.48" d="M482.16,-365.38C490.19,-397.35 509.28,-473.36 513.65,-490.73"/>
</g>
<!-- pollution&#45;&#45;travail -->
<g id="edge3" class="edge">
<title>pollution&#45;&#45;travail</title>
<path fill="none" stroke="darkgrey" stroke-width="5.7" d="M470.61,-338.86C452.12,-310.39 406.21,-239.72 384.41,-206.16"/>
</g>
<!-- pollution&#45;&#45;économie -->
<g id="edge4" class="edge">
<title>pollution&#45;&#45;économie</title>
<path fill="none" stroke="darkgrey" stroke-width="4.8" d="M483.38,-337.18C488.76,-321.54 497.45,-296.31 502.83,-280.66"/>
</g>
<!-- pollution&#45;&#45;nickel -->
<g id="edge5" class="edge">
<title>pollution&#45;&#45;nickel</title>
<path fill="none" stroke="darkgrey" stroke-width="5.27" d="M493.2,-349.22C509.45,-347.1 536.31,-343.59 558.21,-340.74"/>
</g>
<!-- pollution&#45;&#45;ressource minière -->
<g id="edge6" class="edge">
<title>pollution&#45;&#45;ressource minière</title>
<path fill="none" stroke="darkgrey" stroke-width="2.11" d="M464.3,-347.59C420.47,-336.76 288.42,-304.12 249.7,-294.54"/>
</g>
<!-- pollution&#45;&#45;politique -->
<g id="edge7" class="edge">
<title>pollution&#45;&#45;politique</title>
<path fill="none" stroke="darkgrey" stroke-width="3.2" d="M466.64,-342.79C431.82,-318.46 330.58,-247.76 295.32,-223.14"/>
</g>
<!-- pollution&#45;&#45;secteur nickel -->
<g id="edge8" class="edge">
<title>pollution&#45;&#45;secteur nickel</title>
<path fill="none" stroke="darkgrey" stroke-width="3.69" d="M469.93,-339.14C458.31,-323.04 437.67,-294.44 425.11,-277.04"/>
</g>
<!-- pollution&#45;&#45;nature -->
<g id="edge9" class="edge">
<title>pollution&#45;&#45;nature</title>
<path fill="none" stroke="darkgrey" stroke-width="3.17" d="M463.87,-351.79C441.53,-352.79 399.29,-354.7 377.02,-355.71"/>
</g>
<!-- pollution&#45;&#45;amélioration environnementale -->
<g id="edge10" class="edge">
<title>pollution&#45;&#45;amélioration environnementale</title>
<path fill="none" stroke="darkgrey" stroke-width="1.21" d="M490.97,-343.15C546.5,-307.44 770.37,-163.48 784.31,-154.52"/>
</g>
<!-- pollution&#45;&#45;société néo&#45;calédonienne -->
<g id="edge11" class="edge">
<title>pollution&#45;&#45;société néo&#45;calédonienne</title>
<path fill="none" stroke="darkgrey" stroke-width="1.97" d="M486.37,-338.7C509.58,-301.71 577.42,-193.57 589.94,-173.62"/>
</g>
<!-- pollution&#45;&#45;exploitation minière -->
<g id="edge12" class="edge">
<title>pollution&#45;&#45;exploitation minière</title>
<path fill="none" stroke="darkgrey" stroke-width="2.37" d="M477.68,-336.47C475.41,-299.66 469.5,-203.9 467.5,-171.38"/>
</g>
<!-- pollution&#45;&#45;alternative au développement -->
<g id="edge13" class="edge">
<title>pollution&#45;&#45;alternative au développement</title>
<path fill="none" stroke="darkgrey" stroke-width="1.94" d="M465.6,-358.03C415.84,-384.51 238.72,-478.78 212.7,-492.63"/>
</g>
<!-- pollution&#45;&#45;matériel -->
<g id="edge14" class="edge">
<title>pollution&#45;&#45;matériel</title>
<path fill="none" stroke="darkgrey" stroke-width="2.72" d="M472.26,-364.47C462,-386.12 441.86,-428.65 431.61,-450.29"/>
</g>
<!-- pollution&#45;&#45;foncier -->
<g id="edge15" class="edge">
<title>pollution&#45;&#45;foncier</title>
<path fill="none" stroke="darkgrey" stroke-width="1.37" d="M467.84,-361.84C435.97,-393.64 342.76,-486.65 319.96,-509.41"/>
</g>
<!-- pollution&#45;&#45;relation politique -->
<g id="edge16" class="edge">
<title>pollution&#45;&#45;relation politique</title>
<path fill="none" stroke="darkgrey" stroke-width="1.12" d="M463.85,-352.8C407.36,-359.24 206.31,-382.17 176.78,-385.53"/>
</g>
<!-- pollution&#45;&#45;industrie -->
<g id="edge17" class="edge">
<title>pollution&#45;&#45;industrie</title>
<path fill="none" stroke="darkgrey" stroke-width="3.06" d="M464.09,-352.26C430.76,-354.88 348.7,-361.32 312.07,-364.2"/>
</g>
<!-- pollution&#45;&#45;risque -->
<g id="edge18" class="edge">
<title>pollution&#45;&#45;risque</title>
<path fill="none" stroke="darkgrey" stroke-width="1.15" d="M478.12,-336.63C476.19,-275.46 468.76,-40.1 467.73,-7.3"/>
</g>
<!-- pollution&#45;&#45;échange commercial -->
<g id="edge19" class="edge">
<title>pollution&#45;&#45;échange commercial</title>
<path fill="none" stroke="darkgrey" stroke-width="1.34" d="M473.28,-364.89C457.86,-404.94 413.43,-520.37 402.23,-549.46"/>
</g>
<!-- dégradation environnementale&#45;&#45;nouvelle&#45;calédonie -->
<g id="edge20" class="edge">
<title>dégradation environnementale&#45;&#45;nouvelle&#45;calédonie</title>
<path fill="none" stroke="darkgrey" stroke-width="1.8" d="M557.58,-437.75C542.25,-457.9 523.42,-482.65 516.9,-491.22"/>
</g>
<!-- dégradation environnementale&#45;&#45;travail -->
<g id="edge21" class="edge">
<title>dégradation environnementale&#45;&#45;travail</title>
<path fill="none" stroke="darkgrey" stroke-width="7.78" d="M554.64,-382.15C511.07,-335.68 422.5,-241.19 387.38,-203.73"/>
</g>
<!-- dégradation environnementale&#45;&#45;économie -->
<g id="edge22" class="edge">
<title>dégradation environnementale&#45;&#45;économie</title>
<path fill="none" stroke="darkgrey" stroke-width="6.53" d="M563.28,-376.55C547.77,-345.92 525.23,-301.43 514.21,-279.66"/>
</g>
<!-- dégradation environnementale&#45;&#45;nickel -->
<g id="edge23" class="edge">
<title>dégradation environnementale&#45;&#45;nickel</title>
<path fill="none" stroke="darkgrey" stroke-width="10" d="M586.63,-373.28C586.75,-372.71 586.86,-372.13 586.97,-371.55"/>
</g>
<!-- dégradation environnementale&#45;&#45;ressource minière -->
<g id="edge24" class="edge">
<title>dégradation environnementale&#45;&#45;ressource minière</title>
<path fill="none" stroke="darkgrey" stroke-width="4.23" d="M545.38,-397.05C470.29,-371.28 294.22,-310.86 249.42,-295.48"/>
</g>
<!-- dégradation environnementale&#45;&#45;politique -->
<g id="edge25" class="edge">
<title>dégradation environnementale&#45;&#45;politique</title>
<path fill="none" stroke="darkgrey" stroke-width="4.75" d="M549.27,-388.92C485.19,-346.96 338.45,-250.86 295.23,-222.55"/>
</g>
<!-- dégradation environnementale&#45;&#45;secteur nickel -->
<g id="edge26" class="edge">
<title>dégradation environnementale&#45;&#45;secteur nickel</title>
<path fill="none" stroke="darkgrey" stroke-width="5.17" d="M552.34,-384.6C516.61,-352.91 455.32,-298.54 428.14,-274.43"/>
</g>
<!-- dégradation environnementale&#45;&#45;nature -->
<g id="edge27" class="edge">
<title>dégradation environnementale&#45;&#45;nature</title>
<path fill="none" stroke="darkgrey" stroke-width="4.72" d="M544.23,-400.25C495.67,-388.53 410.55,-367.98 376.8,-359.83"/>
</g>
<!-- dégradation environnementale&#45;&#45;amélioration environnementale -->
<g id="edge28" class="edge">
<title>dégradation environnementale&#45;&#45;amélioration environnementale</title>
<path fill="none" stroke="darkgrey" stroke-width="1.58" d="M602.38,-380.56C654.18,-316.32 776.99,-164 784.62,-154.54"/>
</g>
<!-- dégradation environnementale&#45;&#45;société néo&#45;calédonienne -->
<g id="edge29" class="edge">
<title>dégradation environnementale&#45;&#45;société néo&#45;calédonienne</title>
<path fill="none" stroke="darkgrey" stroke-width="2.15" d="M581.48,-372.59C584.59,-312.42 590.6,-196.24 591.75,-174.13"/>
</g>
<!-- dégradation environnementale&#45;&#45;exploitation minière -->
<g id="edge30" class="edge">
<title>dégradation environnementale&#45;&#45;exploitation minière</title>
<path fill="none" stroke="darkgrey" stroke-width="4.08" d="M564.63,-375.8C538.87,-319.05 487.39,-205.68 471.56,-170.82"/>
</g>
<!-- dégradation environnementale&#45;&#45;alternative au développement -->
<g id="edge31" class="edge">
<title>dégradation environnementale&#45;&#45;alternative au développement</title>
<path fill="none" stroke="darkgrey" stroke-width="2.34" d="M544.46,-416.92C458.57,-436.77 242.87,-486.62 212.96,-493.54"/>
</g>
<!-- dégradation environnementale&#45;&#45;matériel -->
<g id="edge32" class="edge">
<title>dégradation environnementale&#45;&#45;matériel</title>
<path fill="none" stroke="darkgrey" stroke-width="4.24" d="M545.36,-420.96C511.98,-432.82 462.87,-450.27 439.14,-458.7"/>
</g>
<!-- dégradation environnementale&#45;&#45;foncier -->
<g id="edge33" class="edge">
<title>dégradation environnementale&#45;&#45;foncier</title>
<path fill="none" stroke="darkgrey" stroke-width="2.35" d="M546.08,-422.18C483.47,-447.17 352.32,-499.53 321.48,-511.84"/>
</g>
<!-- dégradation environnementale&#45;&#45;relation politique -->
<g id="edge34" class="edge">
<title>dégradation environnementale&#45;&#45;relation politique</title>
<path fill="none" stroke="darkgrey" stroke-width="1.74" d="M543.54,-406.76C451.06,-401.57 210.39,-388.04 177.01,-386.16"/>
</g>
<!-- dégradation environnementale&#45;&#45;industrie -->
<g id="edge35" class="edge">
<title>dégradation environnementale&#45;&#45;industrie</title>
<path fill="none" stroke="darkgrey" stroke-width="4.5" d="M544,-403.41C482.37,-394.1 357.98,-375.31 311.74,-368.32"/>
</g>
<!-- dégradation environnementale&#45;&#45;risque -->
<g id="edge36" class="edge">
<title>dégradation environnementale&#45;&#45;risque</title>
<path fill="none" stroke="darkgrey" stroke-width="1.7" d="M569.96,-373.89C544.6,-282.1 477.38,-38.87 468.56,-6.97"/>
</g>
<!-- dégradation environnementale&#45;&#45;échange commercial -->
<g id="edge37" class="edge">
<title>dégradation environnementale&#45;&#45;échange commercial</title>
<path fill="none" stroke="darkgrey" stroke-width="2.54" d="M551.49,-431.82C507.99,-467.44 427.11,-533.68 405.22,-551.61"/>
</g>
<!-- dégradation environnementale&#45;&#45;avenir sans nickel -->
<g id="edge38" class="edge">
<title>dégradation environnementale&#45;&#45;avenir sans nickel</title>
<path fill="none" stroke="darkgrey" stroke-width="1.2" d="M613.76,-420.32C716.19,-454.89 1014.61,-555.63 1028.54,-560.34"/>
</g>
<!-- nouvelle&#45;calédonie&#45;&#45;travail -->
<g id="edge39" class="edge">
<title>nouvelle&#45;calédonie&#45;&#45;travail</title>
<path fill="none" stroke="darkgrey" stroke-width="1.91" d="M512.95,-490.87C499.91,-462.73 410.57,-269.94 381.6,-207.43"/>
</g>
<!-- nouvelle&#45;calédonie&#45;&#45;économie -->
<g id="edge40" class="edge">
<title>nouvelle&#45;calédonie&#45;&#45;économie</title>
<path fill="none" stroke="darkgrey" stroke-width="1.78" d="M514.44,-490.74C513.71,-466.64 509.49,-327.55 508.09,-281.5"/>
</g>
<!-- nouvelle&#45;calédonie&#45;&#45;nickel -->
<g id="edge41" class="edge">
<title>nouvelle&#45;calédonie&#45;&#45;nickel</title>
<path fill="none" stroke="darkgrey" stroke-width="2.59" d="M516.21,-491.01C523.98,-475.52 557.3,-409.16 577.72,-368.47"/>
</g>
<!-- nouvelle&#45;calédonie&#45;&#45;ressource minière -->
<g id="edge42" class="edge">
<title>nouvelle&#45;calédonie&#45;&#45;ressource minière</title>
<path fill="none" stroke="darkgrey" stroke-width="1.54" d="M511.45,-492.04C484.66,-472.36 291.93,-330.81 247.87,-298.45"/>
</g>
<!-- nouvelle&#45;calédonie&#45;&#45;politique -->
<g id="edge43" class="edge">
<title>nouvelle&#45;calédonie&#45;&#45;politique</title>
<path fill="none" stroke="darkgrey" stroke-width="1.86" d="M512.26,-491.54C491.31,-466.24 332.92,-274.85 292.44,-225.92"/>
</g>
<!-- nouvelle&#45;calédonie&#45;&#45;secteur nickel -->
<g id="edge44" class="edge">
<title>nouvelle&#45;calédonie&#45;&#45;secteur nickel</title>
<path fill="none" stroke="darkgrey" stroke-width="1.77" d="M513.13,-491.03C503.11,-467.79 442.58,-327.48 421.62,-278.87"/>
</g>
<!-- nouvelle&#45;calédonie&#45;&#45;nature -->
<g id="edge45" class="edge">
<title>nouvelle&#45;calédonie&#45;&#45;nature</title>
<path fill="none" stroke="darkgrey" stroke-width="1.33" d="M511.91,-491.92C495.34,-476.89 405.36,-395.3 373.57,-366.47"/>
</g>
<!-- nouvelle&#45;calédonie&#45;&#45;société néo&#45;calédonienne -->
<g id="edge46" class="edge">
<title>nouvelle&#45;calédonie&#45;&#45;société néo&#45;calédonienne</title>
<path fill="none" stroke="darkgrey" stroke-width="1.07" d="M515.42,-490.68C523.35,-457.46 583.16,-207.15 591.07,-174.05"/>
</g>
<!-- nouvelle&#45;calédonie&#45;&#45;exploitation minière -->
<g id="edge47" class="edge">
<title>nouvelle&#45;calédonie&#45;&#45;exploitation minière</title>
<path fill="none" stroke="darkgrey" stroke-width="1.29" d="M514.01,-490.56C509.38,-458.18 476.15,-225.64 468.42,-171.59"/>
</g>
<!-- nouvelle&#45;calédonie&#45;&#45;foncier -->
<g id="edge48" class="edge">
<title>nouvelle&#45;calédonie&#45;&#45;foncier</title>
<path fill="none" stroke="darkgrey" stroke-width="1.04" d="M510.74,-494.7C486.58,-497.14 354.75,-510.45 322.17,-513.74"/>
</g>
<!-- nouvelle&#45;calédonie&#45;&#45;relation politique -->
<g id="edge49" class="edge">
<title>nouvelle&#45;calédonie&#45;&#45;relation politique</title>
<path fill="none" stroke="darkgrey" stroke-width="1.17" d="M511.17,-493.24C477.93,-482.69 209.92,-397.62 176.55,-387.03"/>
</g>
<!-- nouvelle&#45;calédonie&#45;&#45;industrie -->
<g id="edge50" class="edge">
<title>nouvelle&#45;calédonie&#45;&#45;industrie</title>
<path fill="none" stroke="darkgrey" stroke-width="1.44" d="M511.43,-492.49C489.32,-479.6 355.88,-401.78 309.65,-374.81"/>
</g>
<!-- nouvelle&#45;calédonie&#45;&#45;échange commercial -->
<g id="edge51" class="edge">
<title>nouvelle&#45;calédonie&#45;&#45;échange commercial</title>
<path fill="none" stroke="darkgrey" stroke-width="1.13" d="M511.23,-496.1C495.41,-504.62 427.45,-541.2 406.09,-552.7"/>
</g>
<!-- travail&#45;&#45;économie -->
<g id="edge52" class="edge">
<title>travail&#45;&#45;économie</title>
<path fill="none" stroke="darkgrey" stroke-width="5.64" d="M391.34,-198.87C419.32,-215.19 471.21,-245.45 495.06,-259.36"/>
</g>
<!-- travail&#45;&#45;nickel -->
<g id="edge53" class="edge">
<title>travail&#45;&#45;nickel</title>
<path fill="none" stroke="darkgrey" stroke-width="7.57" d="M390.68,-200.04C428.69,-225.47 517.09,-284.62 563.81,-315.88"/>
</g>
<!-- travail&#45;&#45;ressource minière -->
<g id="edge54" class="edge">
<title>travail&#45;&#45;ressource minière</title>
<path fill="none" stroke="darkgrey" stroke-width="3.31" d="M355.36,-201.29C326.6,-223.67 269.73,-267.9 247.81,-284.95"/>
</g>
<!-- travail&#45;&#45;politique -->
<g id="edge55" class="edge">
<title>travail&#45;&#45;politique</title>
<path fill="none" stroke="darkgrey" stroke-width="4.17" d="M351.8,-194.1C334.96,-199.11 311.69,-206.04 297,-210.41"/>
</g>
<!-- travail&#45;&#45;secteur nickel -->
<g id="edge56" class="edge">
<title>travail&#45;&#45;secteur nickel</title>
<path fill="none" stroke="darkgrey" stroke-width="4.47" d="M383.13,-206.69C390.02,-218.91 398.91,-234.69 405.46,-246.31"/>
</g>
<!-- travail&#45;&#45;nature -->
<g id="edge57" class="edge">
<title>travail&#45;&#45;nature</title>
<path fill="none" stroke="darkgrey" stroke-width="3.88" d="M371.25,-209.59C369.16,-244.43 365.1,-311.96 363.31,-341.7"/>
</g>
<!-- travail&#45;&#45;amélioration environnementale -->
<g id="edge58" class="edge">
<title>travail&#45;&#45;amélioration environnementale</title>
<path fill="none" stroke="darkgrey" stroke-width="1.24" d="M394.15,-186.15C476.36,-179.4 766.08,-155.63 784.11,-154.16"/>
</g>
<!-- travail&#45;&#45;société néo&#45;calédonienne -->
<g id="edge59" class="edge">
<title>travail&#45;&#45;société néo&#45;calédonienne</title>
<path fill="none" stroke="darkgrey" stroke-width="1.96" d="M393.99,-186.21C444.02,-182.22 565.94,-172.51 588.36,-170.73"/>
</g>
<!-- travail&#45;&#45;exploitation minière -->
<g id="edge60" class="edge">
<title>travail&#45;&#45;exploitation minière</title>
<path fill="none" stroke="darkgrey" stroke-width="3.6" d="M393.48,-181.81C412.9,-176.13 441.02,-167.92 456.18,-163.49"/>
</g>
<!-- travail&#45;&#45;alternative au développement -->
<g id="edge61" class="edge">
<title>travail&#45;&#45;alternative au développement</title>
<path fill="none" stroke="darkgrey" stroke-width="1.67" d="M362.36,-207.08C329.17,-269.45 225.57,-464.13 211.17,-491.2"/>
</g>
<!-- travail&#45;&#45;matériel -->
<g id="edge62" class="edge">
<title>travail&#45;&#45;matériel</title>
<path fill="none" stroke="darkgrey" stroke-width="3.58" d="M376.61,-209.09C386.91,-262.93 413.89,-404 422.56,-449.35"/>
</g>
<!-- travail&#45;&#45;foncier -->
<g id="edge63" class="edge">
<title>travail&#45;&#45;foncier</title>
<path fill="none" stroke="darkgrey" stroke-width="1.88" d="M368.77,-209.34C357.27,-274.47 323.08,-468.06 316.13,-507.44"/>
</g>
<!-- travail&#45;&#45;relation politique -->
<g id="edge64" class="edge">
<title>travail&#45;&#45;relation politique</title>
<path fill="none" stroke="darkgrey" stroke-width="1.43" d="M357.24,-203.13C314.56,-245.51 196.09,-363.16 176.04,-383.07"/>
</g>
<!-- travail&#45;&#45;industrie -->
<g id="edge65" class="edge">
<title>travail&#45;&#45;industrie</title>
<path fill="none" stroke="darkgrey" stroke-width="4.12" d="M363.84,-207.61C348.24,-242.86 315.82,-316.09 301.26,-348.99"/>
</g>
<!-- travail&#45;&#45;risque -->
<g id="edge66" class="edge">
<title>travail&#45;&#45;risque</title>
<path fill="none" stroke="darkgrey" stroke-width="1.9" d="M382.55,-168.53C404.57,-125.8 456.11,-25.81 465.96,-6.69"/>
</g>
<!-- travail&#45;&#45;échange commercial -->
<g id="edge67" class="edge">
<title>travail&#45;&#45;échange commercial</title>
<path fill="none" stroke="darkgrey" stroke-width="2.11" d="M374.15,-209.58C379.39,-280.81 395.93,-505.7 399.11,-548.95"/>
</g>
<!-- économie&#45;&#45;nickel -->
<g id="edge68" class="edge">
<title>économie&#45;&#45;nickel</title>
<path fill="none" stroke="darkgrey" stroke-width="6.14" d="M519.29,-276.05C531.16,-285.6 550.04,-300.76 565.84,-313.46"/>
</g>
<!-- économie&#45;&#45;ressource minière -->
<g id="edge69" class="edge">
<title>économie&#45;&#45;ressource minière</title>
<path fill="none" stroke="darkgrey" stroke-width="2.43" d="M493.19,-268.05C445.33,-272.54 292.6,-286.85 250.03,-290.84"/>
</g>
<!-- économie&#45;&#45;politique -->
<g id="edge70" class="edge">
<title>économie&#45;&#45;politique</title>
<path fill="none" stroke="darkgrey" stroke-width="4.53" d="M493.25,-263.36C452.68,-253.94 337.73,-227.26 297.31,-217.88"/>
</g>
<!-- économie&#45;&#45;secteur nickel -->
<g id="edge71" class="edge">
<title>économie&#45;&#45;secteur nickel</title>
<path fill="none" stroke="darkgrey" stroke-width="3.96" d="M493.08,-266.01C476.81,-265.24 450.43,-264 432.77,-263.17"/>
</g>
<!-- économie&#45;&#45;nature -->
<g id="edge72" class="edge">
<title>économie&#45;&#45;nature</title>
<path fill="none" stroke="darkgrey" stroke-width="2.99" d="M495.26,-274.34C467.82,-291.28 402.18,-331.82 374.78,-348.74"/>
</g>
<!-- économie&#45;&#45;amélioration environnementale -->
<g id="edge73" class="edge">
<title>économie&#45;&#45;amélioration environnementale</title>
<path fill="none" stroke="darkgrey" stroke-width="1.19" d="M521.39,-261.11C575.61,-239.1 772.16,-159.29 784.4,-154.33"/>
</g>
<!-- économie&#45;&#45;société néo&#45;calédonienne -->
<g id="edge74" class="edge">
<title>économie&#45;&#45;société néo&#45;calédonienne</title>
<path fill="none" stroke="darkgrey" stroke-width="1.81" d="M517.31,-255.66C536.51,-233.73 578.53,-185.75 589.35,-173.39"/>
</g>
<!-- économie&#45;&#45;exploitation minière -->
<g id="edge75" class="edge">
<title>économie&#45;&#45;exploitation minière</title>
<path fill="none" stroke="darkgrey" stroke-width="2.36" d="M502.3,-252.8C494,-231.18 478.19,-190.01 470.81,-170.77"/>
</g>
<!-- économie&#45;&#45;alternative au développement -->
<g id="edge76" class="edge">
<title>économie&#45;&#45;alternative au développement</title>
<path fill="none" stroke="darkgrey" stroke-width="1.68" d="M495.95,-275.62C444.49,-314.91 239.45,-471.47 212.44,-492.09"/>
</g>
<!-- économie&#45;&#45;matériel -->
<g id="edge77" class="edge">
<title>économie&#45;&#45;matériel</title>
<path fill="none" stroke="darkgrey" stroke-width="2.39" d="M501.98,-280.23C486.94,-316.21 446.08,-413.91 430.99,-449.99"/>
</g>
<!-- économie&#45;&#45;foncier -->
<g id="edge78" class="edge">
<title>économie&#45;&#45;foncier</title>
<path fill="none" stroke="darkgrey" stroke-width="1.52" d="M498.6,-278.32C464.51,-322.14 344.4,-476.53 319.44,-508.61"/>
</g>
<!-- économie&#45;&#45;relation politique -->
<g id="edge79" class="edge">
<title>économie&#45;&#45;relation politique</title>
<path fill="none" stroke="darkgrey" stroke-width="1.58" d="M493.69,-271.67C434.84,-292.65 208.36,-373.39 176.8,-384.64"/>
</g>
<!-- économie&#45;&#45;industrie -->
<g id="edge80" class="edge">
<title>économie&#45;&#45;industrie</title>
<path fill="none" stroke="darkgrey" stroke-width="2.77" d="M494.27,-272.89C456.89,-290.19 351.37,-339.03 310.43,-357.98"/>
</g>
<!-- économie&#45;&#45;risque -->
<g id="edge81" class="edge">
<title>économie&#45;&#45;risque</title>
<path fill="none" stroke="darkgrey" stroke-width="1.1" d="M505.43,-252.17C497.73,-201.52 472.29,-34.31 468.17,-7.22"/>
</g>
<!-- économie&#45;&#45;échange commercial -->
<g id="edge82" class="edge">
<title>économie&#45;&#45;échange commercial</title>
<path fill="none" stroke="darkgrey" stroke-width="1.82" d="M502.43,-280.66C483.13,-332.39 416.11,-512.04 402.19,-549.36"/>
</g>
<!-- nickel&#45;&#45;ressource minière -->
<g id="edge83" class="edge">
<title>nickel&#45;&#45;ressource minière</title>
<path fill="none" stroke="darkgrey" stroke-width="4.8" d="M557.99,-331.59C479.53,-321.83 296.42,-299.03 249.84,-293.24"/>
</g>
<!-- nickel&#45;&#45;politique -->
<g id="edge84" class="edge">
<title>nickel&#45;&#45;politique</title>
<path fill="none" stroke="darkgrey" stroke-width="4.14" d="M560.42,-322.95C492.73,-296.5 342.44,-237.78 296.59,-219.86"/>
</g>
<!-- nickel&#45;&#45;secteur nickel -->
<g id="edge85" class="edge">
<title>nickel&#45;&#45;secteur nickel</title>
<path fill="none" stroke="darkgrey" stroke-width="6.25" d="M560.64,-322.37C522.32,-306.62 460.91,-281.39 431.39,-269.26"/>
</g>
<!-- nickel&#45;&#45;nature -->
<g id="edge86" class="edge">
<title>nickel&#45;&#45;nature</title>
<path fill="none" stroke="darkgrey" stroke-width="5.2" d="M558.06,-339.22C506.23,-343.76 412.78,-351.95 376.95,-355.09"/>
</g>
<!-- nickel&#45;&#45;amélioration environnementale -->
<g id="edge87" class="edge">
<title>nickel&#45;&#45;amélioration environnementale</title>
<path fill="none" stroke="darkgrey" stroke-width="1.24" d="M620.15,-311.15C670.01,-263.64 774.57,-164.01 784.27,-154.77"/>
</g>
<!-- nickel&#45;&#45;société néo&#45;calédonienne -->
<g id="edge88" class="edge">
<title>nickel&#45;&#45;société néo&#45;calédonienne</title>
<path fill="none" stroke="darkgrey" stroke-width="1.64" d="M593.54,-299.72C593.01,-257.06 592.18,-190.08 591.98,-174"/>
</g>
<!-- nickel&#45;&#45;exploitation minière -->
<g id="edge89" class="edge">
<title>nickel&#45;&#45;exploitation minière</title>
<path fill="none" stroke="darkgrey" stroke-width="6.27" d="M572.7,-306.66C543.29,-266.03 491.77,-194.85 473.49,-169.59"/>
</g>
<!-- nickel&#45;&#45;alternative au développement -->
<g id="edge90" class="edge">
<title>nickel&#45;&#45;alternative au développement</title>
<path fill="none" stroke="darkgrey" stroke-width="1.97" d="M560.54,-349.84C473.21,-385.79 242.98,-480.56 212.78,-492.98"/>
</g>
<!-- nickel&#45;&#45;matériel -->
<g id="edge91" class="edge">
<title>nickel&#45;&#45;matériel</title>
<path fill="none" stroke="darkgrey" stroke-width="5.51" d="M564.99,-358C527.31,-386.49 463.24,-434.93 437.01,-454.76"/>
</g>
<!-- nickel&#45;&#45;foncier -->
<g id="edge92" class="edge">
<title>nickel&#45;&#45;foncier</title>
<path fill="none" stroke="darkgrey" stroke-width="2.67" d="M563.59,-355.5C499.16,-396.68 352.22,-490.61 320.84,-510.66"/>
</g>
<!-- nickel&#45;&#45;relation politique -->
<g id="edge93" class="edge">
<title>nickel&#45;&#45;relation politique</title>
<path fill="none" stroke="darkgrey" stroke-width="1.66" d="M558.11,-340.32C463.09,-351.58 209.96,-381.58 176.75,-385.52"/>
</g>
<!-- nickel&#45;&#45;industrie -->
<g id="edge94" class="edge">
<title>nickel&#45;&#45;industrie</title>
<path fill="none" stroke="darkgrey" stroke-width="7.38" d="M558.09,-339.61C493.68,-345.95 360.7,-359.05 312.15,-363.83"/>
</g>
<!-- nickel&#45;&#45;risque -->
<g id="edge95" class="edge">
<title>nickel&#45;&#45;risque</title>
<path fill="none" stroke="darkgrey" stroke-width="1.43" d="M581.18,-302.35C551.43,-224.08 479.42,-34.6 468.9,-6.9"/>
</g>
<!-- nickel&#45;&#45;échange commercial -->
<g id="edge96" class="edge">
<title>nickel&#45;&#45;échange commercial</title>
<path fill="none" stroke="darkgrey" stroke-width="3.54" d="M570.16,-363.06C524.55,-414.72 427.39,-524.75 404.53,-550.64"/>
</g>
<!-- nickel&#45;&#45;avenir sans nickel -->
<g id="edge97" class="edge">
<title>nickel&#45;&#45;avenir sans nickel</title>
<path fill="none" stroke="darkgrey" stroke-width="1.09" d="M626.33,-352.76C724.8,-403.55 1015.01,-553.27 1028.56,-560.25"/>
</g>
<!-- ressource minière&#45;&#45;politique -->
<g id="edge98" class="edge">
<title>ressource minière&#45;&#45;politique</title>
<path fill="none" stroke="darkgrey" stroke-width="2.72" d="M244.5,-282.08C252.43,-268.19 266.96,-242.73 275.74,-227.36"/>
</g>
<!-- ressource minière&#45;&#45;secteur nickel -->
<g id="edge99" class="edge">
<title>ressource minière&#45;&#45;secteur nickel</title>
<path fill="none" stroke="darkgrey" stroke-width="2.39" d="M249.89,-290.03C279.4,-285.06 360.57,-271.38 396.71,-265.29"/>
</g>
<!-- ressource minière&#45;&#45;nature -->
<g id="edge100" class="edge">
<title>ressource minière&#45;&#45;nature</title>
<path fill="none" stroke="darkgrey" stroke-width="2" d="M249.02,-297.15C271.26,-308.77 324.42,-336.52 349.24,-349.48"/>
</g>
<!-- ressource minière&#45;&#45;société néo&#45;calédonienne -->
<g id="edge101" class="edge">
<title>ressource minière&#45;&#45;société néo&#45;calédonienne</title>
<path fill="none" stroke="darkgrey" stroke-width="1.14" d="M249.48,-288.24C304.32,-269.38 555.25,-183.06 588.33,-171.68"/>
</g>
<!-- ressource minière&#45;&#45;exploitation minière -->
<g id="edge102" class="edge">
<title>ressource minière&#45;&#45;exploitation minière</title>
<path fill="none" stroke="darkgrey" stroke-width="2.34" d="M248.7,-286.23C286.11,-264.65 419.72,-187.55 457.06,-166.01"/>
</g>
<!-- ressource minière&#45;&#45;alternative au développement -->
<g id="edge103" class="edge">
<title>ressource minière&#45;&#45;alternative au développement</title>
<path fill="none" stroke="darkgrey" stroke-width="1.14" d="M237.29,-303.05C231.7,-341.51 213.42,-467.36 210.04,-490.62"/>
</g>
<!-- ressource minière&#45;&#45;matériel -->
<g id="edge104" class="edge">
<title>ressource minière&#45;&#45;matériel</title>
<path fill="none" stroke="darkgrey" stroke-width="1.98" d="M247.4,-299.7C277.74,-327.66 380.74,-422.57 414.49,-453.66"/>
</g>
<!-- ressource minière&#45;&#45;foncier -->
<g id="edge105" class="edge">
<title>ressource minière&#45;&#45;foncier</title>
<path fill="none" stroke="darkgrey" stroke-width="1.1" d="M242.47,-302.31C255.67,-340.99 301.6,-475.57 312.53,-507.6"/>
</g>
<!-- ressource minière&#45;&#45;relation politique -->
<g id="edge106" class="edge">
<title>ressource minière&#45;&#45;relation politique</title>
<path fill="none" stroke="darkgrey" stroke-width="1.08" d="M232.61,-300.9C218.33,-321.31 184.1,-370.28 175.26,-382.93"/>
</g>
<!-- ressource minière&#45;&#45;industrie -->
<g id="edge107" class="edge">
<title>ressource minière&#45;&#45;industrie</title>
<path fill="none" stroke="darkgrey" stroke-width="2.53" d="M245.65,-300.92C255,-313.46 272.01,-336.26 283.13,-351.18"/>
</g>
<!-- ressource minière&#45;&#45;échange commercial -->
<g id="edge108" class="edge">
<title>ressource minière&#45;&#45;échange commercial</title>
<path fill="none" stroke="darkgrey" stroke-width="1.82" d="M244.63,-301.28C270.36,-343.58 374.98,-515.62 395.97,-550.13"/>
</g>
<!-- politique&#45;&#45;secteur nickel -->
<g id="edge109" class="edge">
<title>politique&#45;&#45;secteur nickel</title>
<path fill="none" stroke="darkgrey" stroke-width="3.41" d="M297.1,-219.67C321.34,-228.48 370.9,-246.48 397.2,-256.03"/>
</g>
<!-- politique&#45;&#45;nature -->
<g id="edge110" class="edge">
<title>politique&#45;&#45;nature</title>
<path fill="none" stroke="darkgrey" stroke-width="2.01" d="M290.36,-227.65C305.49,-254.66 340.01,-316.32 355.12,-343.31"/>
</g>
<!-- politique&#45;&#45;société néo&#45;calédonienne -->
<g id="edge111" class="edge">
<title>politique&#45;&#45;société néo&#45;calédonienne</title>
<path fill="none" stroke="darkgrey" stroke-width="1.59" d="M297.52,-212.49C354.06,-204.42 558.25,-175.25 588.25,-170.97"/>
</g>
<!-- politique&#45;&#45;exploitation minière -->
<g id="edge112" class="edge">
<title>politique&#45;&#45;exploitation minière</title>
<path fill="none" stroke="darkgrey" stroke-width="2.11" d="M297.15,-210.4C332.62,-199.94 424.88,-172.74 456.22,-163.5"/>
</g>
<!-- politique&#45;&#45;alternative au développement -->
<g id="edge113" class="edge">
<title>politique&#45;&#45;alternative au développement</title>
<path fill="none" stroke="darkgrey" stroke-width="1.71" d="M279.29,-228.82C265.48,-281.38 217.82,-462.68 210.46,-490.69"/>
</g>
<!-- politique&#45;&#45;matériel -->
<g id="edge114" class="edge">
<title>politique&#45;&#45;matériel</title>
<path fill="none" stroke="darkgrey" stroke-width="1.75" d="M290.29,-227.26C314.69,-269.98 393.68,-408.27 418.06,-450.95"/>
</g>
<!-- politique&#45;&#45;foncier -->
<g id="edge115" class="edge">
<title>politique&#45;&#45;foncier</title>
<path fill="none" stroke="darkgrey" stroke-width="1.42" d="M284.57,-229.03C290.26,-282.62 310.03,-468.74 314.13,-507.41"/>
</g>
<!-- politique&#45;&#45;relation politique -->
<g id="edge116" class="edge">
<title>politique&#45;&#45;relation politique</title>
<path fill="none" stroke="darkgrey" stroke-width="1.67" d="M275.13,-226.89C252.3,-262.5 187.09,-364.2 175.06,-382.95"/>
</g>
<!-- politique&#45;&#45;industrie -->
<g id="edge117" class="edge">
<title>politique&#45;&#45;industrie</title>
<path fill="none" stroke="darkgrey" stroke-width="2.89" d="M284.08,-229.05C286.06,-256.67 290.39,-316.81 292.58,-347.23"/>
</g>
<!-- politique&#45;&#45;risque -->
<g id="edge118" class="edge">
<title>politique&#45;&#45;risque</title>
<path fill="none" stroke="darkgrey" stroke-width="1.06" d="M292.7,-203.51C327.71,-163.48 446.81,-27.28 465.21,-6.24"/>
</g>
<!-- politique&#45;&#45;échange commercial -->
<g id="edge119" class="edge">
<title>politique&#45;&#45;échange commercial</title>
<path fill="none" stroke="darkgrey" stroke-width="1.65" d="M287.75,-228.38C307.48,-286.17 383.03,-507.5 397.31,-549.33"/>
</g>
<!-- secteur nickel&#45;&#45;nature -->
<g id="edge120" class="edge">
<title>secteur nickel&#45;&#45;nature</title>
<path fill="none" stroke="darkgrey" stroke-width="2.61" d="M405.64,-278.26C395.44,-296.71 378.84,-326.71 369.46,-343.65"/>
</g>
<!-- secteur nickel&#45;&#45;amélioration environnementale -->
<g id="edge121" class="edge">
<title>secteur nickel&#45;&#45;amélioration environnementale</title>
<path fill="none" stroke="darkgrey" stroke-width="1.15" d="M431.85,-257.23C502.81,-236.5 767.7,-159.13 784.19,-154.32"/>
</g>
<!-- secteur nickel&#45;&#45;société néo&#45;calédonienne -->
<g id="edge122" class="edge">
<title>secteur nickel&#45;&#45;société néo&#45;calédonienne</title>
<path fill="none" stroke="darkgrey" stroke-width="1.65" d="M430.53,-253.99C469.95,-233.58 569.65,-181.98 588.75,-172.09"/>
</g>
<!-- secteur nickel&#45;&#45;exploitation minière -->
<g id="edge123" class="edge">
<title>secteur nickel&#45;&#45;exploitation minière</title>
<path fill="none" stroke="darkgrey" stroke-width="2.79" d="M422.88,-245.93C433.87,-224.54 452.75,-187.78 461.75,-170.24"/>
</g>
<!-- secteur nickel&#45;&#45;alternative au développement -->
<g id="edge124" class="edge">
<title>secteur nickel&#45;&#45;alternative au développement</title>
<path fill="none" stroke="darkgrey" stroke-width="1.34" d="M402.26,-276.12C361.41,-322.37 230.99,-470.01 211.85,-491.67"/>
</g>
<!-- secteur nickel&#45;&#45;matériel -->
<g id="edge125" class="edge">
<title>secteur nickel&#45;&#45;matériel</title>
<path fill="none" stroke="darkgrey" stroke-width="3.29" d="M415.45,-280.52C417.57,-320.01 422.56,-412.83 424.5,-448.91"/>
</g>
<!-- secteur nickel&#45;&#45;foncier -->
<g id="edge126" class="edge">
<title>secteur nickel&#45;&#45;foncier</title>
<path fill="none" stroke="darkgrey" stroke-width="1.99" d="M407.78,-279.24C388.07,-329.15 330.76,-474.27 317.6,-507.6"/>
</g>
<!-- secteur nickel&#45;&#45;relation politique -->
<g id="edge127" class="edge">
<title>secteur nickel&#45;&#45;relation politique</title>
<path fill="none" stroke="darkgrey" stroke-width="1.29" d="M398.26,-270.61C348.59,-296.06 200.41,-371.98 176.44,-384.26"/>
</g>
<!-- secteur nickel&#45;&#45;industrie -->
<g id="edge128" class="edge">
<title>secteur nickel&#45;&#45;industrie</title>
<path fill="none" stroke="darkgrey" stroke-width="4.72" d="M400.64,-274.16C377.38,-294.09 330.72,-334.08 307.57,-353.91"/>
</g>
<!-- secteur nickel&#45;&#45;risque -->
<g id="edge129" class="edge">
<title>secteur nickel&#45;&#45;risque</title>
<path fill="none" stroke="darkgrey" stroke-width="1.02" d="M418.12,-244.51C429.14,-190.84 461.63,-32.61 466.88,-7.02"/>
</g>
<!-- secteur nickel&#45;&#45;échange commercial -->
<g id="edge130" class="edge">
<title>secteur nickel&#45;&#45;échange commercial</title>
<path fill="none" stroke="darkgrey" stroke-width="2.23" d="M413.55,-280.69C410.65,-337.99 401.88,-511.74 400,-549.07"/>
</g>
<!-- nature&#45;&#45;société néo&#45;calédonienne -->
<g id="edge131" class="edge">
<title>nature&#45;&#45;société néo&#45;calédonienne</title>
<path fill="none" stroke="darkgrey" stroke-width="1.84" d="M373.81,-347.14C416.5,-312.56 565.86,-191.57 588.93,-172.87"/>
</g>
<!-- nature&#45;&#45;exploitation minière -->
<g id="edge132" class="edge">
<title>nature&#45;&#45;exploitation minière</title>
<path fill="none" stroke="darkgrey" stroke-width="2.07" d="M369.28,-343.51C388.78,-306.89 444.33,-202.61 461.62,-170.15"/>
</g>
<!-- nature&#45;&#45;alternative au développement -->
<g id="edge133" class="edge">
<title>nature&#45;&#45;alternative au développement</title>
<path fill="none" stroke="darkgrey" stroke-width="1.25" d="M351.43,-366.29C319.65,-394.96 228.91,-476.83 212.17,-491.93"/>
</g>
<!-- nature&#45;&#45;matériel -->
<g id="edge134" class="edge">
<title>nature&#45;&#45;matériel</title>
<path fill="none" stroke="darkgrey" stroke-width="3.24" d="M369.88,-369.09C381.98,-389.73 405.75,-430.28 417.84,-450.91"/>
</g>
<!-- nature&#45;&#45;foncier -->
<g id="edge135" class="edge">
<title>nature&#45;&#45;foncier</title>
<path fill="none" stroke="darkgrey" stroke-width="1.64" d="M358.21,-370.4C348.34,-403.2 324.07,-483.91 316.91,-507.74"/>
</g>
<!-- nature&#45;&#45;relation politique -->
<g id="edge136" class="edge">
<title>nature&#45;&#45;relation politique</title>
<path fill="none" stroke="darkgrey" stroke-width="1.04" d="M347.89,-358.64C307.89,-364.89 197.8,-382.09 176.67,-385.4"/>
</g>
<!-- nature&#45;&#45;industrie -->
<g id="edge137" class="edge">
<title>nature&#45;&#45;industrie</title>
<path fill="none" stroke="darkgrey" stroke-width="2.62" d="M347.89,-358.33C337.36,-359.75 323.06,-361.69 311.83,-363.2"/>
</g>
<!-- nature&#45;&#45;échange commercial -->
<g id="edge138" class="edge">
<title>nature&#45;&#45;échange commercial</title>
<path fill="none" stroke="darkgrey" stroke-width="1.49" d="M365.1,-370.73C372.47,-410.29 392.86,-519.75 398.29,-548.94"/>
</g>
<!-- société néo&#45;calédonienne&#45;&#45;exploitation minière -->
<g id="edge139" class="edge">
<title>société néo&#45;calédonienne&#45;&#45;exploitation minière</title>
<path fill="none" stroke="darkgrey" stroke-width="1.09" d="M588.33,-170.15C571.98,-168.84 504.53,-163.41 477.8,-161.26"/>
</g>
<!-- société néo&#45;calédonienne&#45;&#45;matériel -->
<g id="edge140" class="edge">
<title>société néo&#45;calédonienne&#45;&#45;matériel</title>
<path fill="none" stroke="darkgrey" stroke-width="1.52" d="M590.06,-173.73C574.22,-201.6 462.44,-398.26 432.6,-450.76"/>
</g>
<!-- société néo&#45;calédonienne&#45;&#45;industrie -->
<g id="edge141" class="edge">
<title>société néo&#45;calédonienne&#45;&#45;industrie</title>
<path fill="none" stroke="darkgrey" d="M588.99,-172.37C562.57,-189.67 366.28,-318.23 309.34,-355.52"/>
</g>
<!-- exploitation minière&#45;&#45;matériel -->
<g id="edge142" class="edge">
<title>exploitation minière&#45;&#45;matériel</title>
<path fill="none" stroke="darkgrey" stroke-width="2.61" d="M465.29,-171.53C458.93,-218.01 434.5,-396.35 427.3,-448.94"/>
</g>
<!-- exploitation minière&#45;&#45;foncier -->
<g id="edge143" class="edge">
<title>exploitation minière&#45;&#45;foncier</title>
<path fill="none" stroke="darkgrey" stroke-width="1.21" d="M462.44,-170.6C439.76,-223.44 336.13,-464.95 317.69,-507.92"/>
</g>
<!-- exploitation minière&#45;&#45;industrie -->
<g id="edge144" class="edge">
<title>exploitation minière&#45;&#45;industrie</title>
<path fill="none" stroke="darkgrey" stroke-width="3.17" d="M459.61,-168.94C432.83,-200.73 338.9,-312.21 305.66,-351.66"/>
</g>
<!-- exploitation minière&#45;&#45;risque -->
<g id="edge145" class="edge">
<title>exploitation minière&#45;&#45;risque</title>
<path fill="none" stroke="darkgrey" stroke-width="1.07" d="M466.88,-149.1C467.04,-117.06 467.49,-26.6 467.59,-7.19"/>
</g>
<!-- exploitation minière&#45;&#45;échange commercial -->
<g id="edge146" class="edge">
<title>exploitation minière&#45;&#45;échange commercial</title>
<path fill="none" stroke="darkgrey" stroke-width="1.88" d="M464.95,-171.38C455.06,-229.69 408.88,-501.76 400.84,-549.13"/>
</g>
<!-- alternative au développement&#45;&#45;matériel -->
<g id="edge147" class="edge">
<title>alternative au développement&#45;&#45;matériel</title>
<path fill="none" stroke="darkgrey" stroke-width="1.01" d="M213.25,-493.8C236.98,-490.42 366.82,-471.94 410.76,-465.69"/>
</g>
<!-- alternative au développement&#45;&#45;industrie -->
<g id="edge148" class="edge">
<title>alternative au développement&#45;&#45;industrie</title>
<path fill="none" stroke="darkgrey" stroke-width="1.49" d="M211.59,-491.15C221.49,-476.06 264.06,-411.13 283.79,-381.04"/>
</g>
<!-- matériel&#45;&#45;foncier -->
<g id="edge149" class="edge">
<title>matériel&#45;&#45;foncier</title>
<path fill="none" stroke="darkgrey" stroke-width="1.96" d="M411.75,-469.85C387.8,-480.89 338.82,-503.45 321.3,-511.52"/>
</g>
<!-- matériel&#45;&#45;industrie -->
<g id="edge150" class="edge">
<title>matériel&#45;&#45;industrie</title>
<path fill="none" stroke="darkgrey" stroke-width="3.73" d="M413.63,-454.92C389.64,-437.03 334.8,-396.13 308.5,-376.51"/>
</g>
<!-- matériel&#45;&#45;échange commercial -->
<g id="edge151" class="edge">
<title>matériel&#45;&#45;échange commercial</title>
<path fill="none" stroke="darkgrey" stroke-width="1.82" d="M421.4,-477.68C415.85,-497.7 405.87,-533.71 401.63,-549"/>
</g>
<!-- foncier&#45;&#45;industrie -->
<g id="edge152" class="edge">
<title>foncier&#45;&#45;industrie</title>
<path fill="none" stroke="darkgrey" stroke-width="1.88" d="M313.87,-507.29C310.73,-485 301.06,-416.46 296.43,-383.58"/>
</g>
<!-- foncier&#45;&#45;échange commercial -->
<g id="edge153" class="edge">
<title>foncier&#45;&#45;échange commercial</title>
<path fill="none" stroke="darkgrey" stroke-width="1.07" d="M321.25,-517.61C336.96,-525.34 377.41,-545.24 393.2,-553.01"/>
</g>
<!-- relation politique&#45;&#45;industrie -->
<g id="edge154" class="edge">
<title>relation politique&#45;&#45;industrie</title>
<path fill="none" stroke="darkgrey" stroke-width="1.01" d="M176.63,-385.36C191.09,-382.93 247,-373.52 276.09,-368.63"/>
</g>
<!-- relation politique&#45;&#45;échange commercial -->
<g id="edge155" class="edge">
<title>relation politique&#45;&#45;échange commercial</title>
<path fill="none" stroke="darkgrey" stroke-width="1.23" d="M176.01,-388.1C199.56,-405.8 361.31,-527.37 393.92,-551.88"/>
</g>
<!-- industrie&#45;&#45;risque -->
<g id="edge156" class="edge">
<title>industrie&#45;&#45;risque</title>
<path fill="none" stroke="darkgrey" stroke-width="1.11" d="M301.81,-349.13C333.54,-282.99 450.53,-39.1 465.93,-7"/>
</g>
<!-- industrie&#45;&#45;échange commercial -->
<g id="edge157" class="edge">
<title>industrie&#45;&#45;échange commercial</title>
<path fill="none" stroke="darkgrey" stroke-width="2.13" d="M302.73,-381.55C324.77,-421.26 381.46,-523.42 396.13,-549.86"/>
</g>
<!-- pollution -->
<g id="node1" class="node">
<title>pollution</title>
<ellipse fill="#a22b62" stroke="white" stroke-width="0" cx="478.58" cy="-351.12" rx="14.5" ry="14.5"/>
<text text-anchor="middle" x="423.08" y="-370.9" font-family="Helvetica,sans-Serif" font-size="18.40" fill="#4d4d4d">pollution</text>
</g>
<!-- dégradation environnementale -->
<g id="node2" class="node">
<title>dégradation environnementale</title>
<ellipse fill="#f2f27d" stroke="white" stroke-width="0" cx="579.61" cy="-408.79" rx="36" ry="36"/>
<text text-anchor="middle" x="761.61" y="-453.39" font-family="Helvetica,sans-Serif" font-size="28.00" fill="#4d4d4d">dégradation environnementale</text>
</g>
<!-- nouvelle&#45;calédonie -->
<g id="node3" class="node">
<title>nouvelle&#45;calédonie</title>
<ellipse fill="#1c0c43" stroke="white" stroke-width="0" cx="514.55" cy="-494.31" rx="3.5" ry="3.5"/>
<text text-anchor="middle" x="447.05" y="-501.93" font-family="Helvetica,sans-Serif" font-size="13.60" fill="#4d4d4d">nouvelle&#45;calédonie</text>
</g>
<!-- travail -->
<g id="node4" class="node">
<title>travail</title>
<ellipse fill="#d84c3e" stroke="white" stroke-width="0" cx="372.56" cy="-187.92" rx="21.5" ry="21.5"/>
<text text-anchor="middle" x="316.06" y="-173.14" font-family="Helvetica,sans-Serif" font-size="21.60" fill="#4d4d4d">travail</text>
</g>
<!-- économie -->
<g id="node5" class="node">
<title>économie</title>
<ellipse fill="#9f2a63" stroke="white" stroke-width="0" cx="507.64" cy="-266.7" rx="14.5" ry="14.5"/>
<text text-anchor="middle" x="447.64" y="-286.48" font-family="Helvetica,sans-Serif" font-size="18.40" fill="#4d4d4d">économie</text>
</g>
<!-- nickel -->
<g id="node6" class="node">
<title>nickel</title>
<ellipse fill="#fcffa4" stroke="white" stroke-width="0" cx="593.99" cy="-336.07" rx="36" ry="36"/>
<text text-anchor="middle" x="598.99" y="-277.67" font-family="Helvetica,sans-Serif" font-size="28.00" fill="#4d4d4d">nickel</text>
</g>
<!-- ressource minière -->
<g id="node7" class="node">
<title>ressource minière</title>
<ellipse fill="#57106e" stroke="white" stroke-width="0" cx="238.91" cy="-291.88" rx="11" ry="11"/>
<text text-anchor="middle" x="151.91" y="-307.44" font-family="Helvetica,sans-Serif" font-size="16.80" fill="#4d4d4d">ressource minière</text>
</g>
<!-- politique -->
<g id="node8" class="node">
<title>politique</title>
<ellipse fill="#972766" stroke="white" stroke-width="0" cx="283.04" cy="-214.56" rx="14.5" ry="14.5"/>
<text text-anchor="middle" x="227.54" y="-234.34" font-family="Helvetica,sans-Serif" font-size="18.40" fill="#4d4d4d">politique</text>
</g>
<!-- secteur nickel -->
<g id="node9" class="node">
<title>secteur nickel</title>
<ellipse fill="#ae305c" stroke="white" stroke-width="0" cx="414.47" cy="-262.3" rx="18" ry="18"/>
<text text-anchor="middle" x="326.97" y="-286.3" font-family="Helvetica,sans-Serif" font-size="20.00" fill="#4d4d4d">secteur nickel</text>
</g>
<!-- nature -->
<g id="node10" class="node">
<title>nature</title>
<ellipse fill="#7f1e6c" stroke="white" stroke-width="0" cx="362.43" cy="-356.36" rx="14.5" ry="14.5"/>
<text text-anchor="middle" x="316.93" y="-327.14" font-family="Helvetica,sans-Serif" font-size="18.40" fill="#4d4d4d">nature</text>
</g>
<!-- amélioration environnementale -->
<g id="node11" class="node">
<title>amélioration environnementale</title>
<ellipse fill="#02020e" stroke="white" stroke-width="0" cx="784.99" cy="-154.08" rx="0.5" ry="0.5"/>
<text text-anchor="middle" x="689.99" y="-157.98" font-family="Helvetica,sans-Serif" font-size="12.00" fill="#4d4d4d">amélioration environnementale</text>
</g>
<!-- société néo&#45;calédonienne -->
<g id="node12" class="node">
<title>société néo&#45;calédonienne</title>
<ellipse fill="#160b39" stroke="white" stroke-width="0" cx="591.94" cy="-170.44" rx="3.5" ry="3.5"/>
<text text-anchor="middle" x="501.94" y="-178.06" font-family="Helvetica,sans-Serif" font-size="13.60" fill="#4d4d4d">société néo&#45;calédonienne</text>
</g>
<!-- exploitation minière -->
<g id="node13" class="node">
<title>exploitation minière</title>
<ellipse fill="#741a6e" stroke="white" stroke-width="0" cx="466.82" cy="-160.38" rx="11" ry="11"/>
<text text-anchor="middle" x="371.32" y="-135.94" font-family="Helvetica,sans-Serif" font-size="16.80" fill="#4d4d4d">exploitation minière</text>
</g>
<!-- alternative au développement -->
<g id="node14" class="node">
<title>alternative au développement</title>
<ellipse fill="#10092d" stroke="white" stroke-width="0" cx="209.5" cy="-494.34" rx="3.5" ry="3.5"/>
<text text-anchor="middle" x="103" y="-501.96" font-family="Helvetica,sans-Serif" font-size="13.60" fill="#4d4d4d">alternative au développement</text>
</g>
<!-- matériel -->
<g id="node15" class="node">
<title>matériel</title>
<ellipse fill="#932667" stroke="white" stroke-width="0" cx="425.29" cy="-463.62" rx="14.5" ry="14.5"/>
<text text-anchor="middle" x="371.79" y="-454.4" font-family="Helvetica,sans-Serif" font-size="18.40" fill="#4d4d4d">matériel</text>
</g>
<!-- foncier -->
<g id="node16" class="node">
<title>foncier</title>
<ellipse fill="#240c4f" stroke="white" stroke-width="0" cx="314.88" cy="-514.47" rx="7" ry="7"/>
<text text-anchor="middle" x="281.88" y="-526.31" font-family="Helvetica,sans-Serif" font-size="15.20" fill="#4d4d4d">foncier</text>
</g>
<!-- relation politique -->
<g id="node17" class="node">
<title>relation politique</title>
<ellipse fill="#09061f" stroke="white" stroke-width="0" cx="173.14" cy="-385.95" rx="3.5" ry="3.5"/>
<text text-anchor="middle" x="112.14" y="-393.57" font-family="Helvetica,sans-Serif" font-size="13.60" fill="#4d4d4d">relation politique</text>
</g>
<!-- industrie -->
<g id="node18" class="node">
<title>industrie</title>
<ellipse fill="#b0315b" stroke="white" stroke-width="0" cx="293.9" cy="-365.63" rx="18" ry="18"/>
<text text-anchor="middle" x="231.9" y="-389.63" font-family="Helvetica,sans-Serif" font-size="20.00" fill="#4d4d4d">industrie</text>
</g>
<!-- risque -->
<g id="node19" class="node">
<title>risque</title>
<ellipse fill="#040312" stroke="white" stroke-width="0" cx="467.61" cy="-3.5" rx="3.5" ry="3.5"/>
<text text-anchor="middle" x="443.11" y="-11.12" font-family="Helvetica,sans-Serif" font-size="13.60" fill="#4d4d4d">risque</text>
</g>
<!-- échange commercial -->
<g id="node20" class="node">
<title>échange commercial</title>
<ellipse fill="#340a5f" stroke="white" stroke-width="0" cx="399.64" cy="-556.18" rx="7" ry="7"/>
<text text-anchor="middle" x="313.64" y="-568.02" font-family="Helvetica,sans-Serif" font-size="15.20" fill="#4d4d4d">échange commercial</text>
</g>
<!-- avenir sans nickel -->
<g id="node21" class="node">
<title>avenir sans nickel</title>
<ellipse fill="#000004" stroke="white" stroke-width="0" cx="1029.05" cy="-560.51" rx="0.5" ry="0.5"/>
<text text-anchor="middle" x="975.05" y="-564.41" font-family="Helvetica,sans-Serif" font-size="12.00" fill="#4d4d4d">avenir sans nickel</text>
</g>
</g>
</svg>
