<?xml version="1.0" encoding="UTF-8" standalone="no"?>
<!DOCTYPE svg PUBLIC "-//W3C//DTD SVG 1.1//EN"
 "http://www.w3.org/Graphics/SVG/1.1/DTD/svg11.dtd">
<!-- Generated by graphviz version 2.43.0 (0)
 -->
<!-- Pages: 1 -->
<svg width="1044pt" height="501pt"
 viewBox="0.00 0.00 1043.96 501.09" xmlns="http://www.w3.org/2000/svg" xmlns:xlink="http://www.w3.org/1999/xlink">
<g id="graph0" class="graph" transform="scale(1 1) rotate(0) translate(4 497.09)">
<polygon fill="white" stroke="transparent" points="-4,4 -4,-497.09 1039.96,-497.09 1039.96,4 -4,4"/>
<!-- pollution&#45;&#45;dégradation environnementale -->
<g id="edge1" class="edge">
<title>pollution&#45;&#45;dégradation environnementale</title>
<path fill="none" stroke="darkgrey" stroke-width="9.04" d="M391.33,-276.49C423.45,-263 494.48,-233.18 536.7,-215.46"/>
</g>
<!-- pollution&#45;&#45;nouvelle&#45;calédonie -->
<g id="edge2" class="edge">
<title>pollution&#45;&#45;nouvelle&#45;calédonie</title>
<path fill="none" stroke="darkgrey" stroke-width="1.43" d="M373.23,-265.11C368.72,-207.69 355.09,-33.81 352.99,-6.99"/>
</g>
<!-- pollution&#45;&#45;travail -->
<g id="edge3" class="edge">
<title>pollution&#45;&#45;travail</title>
<path fill="none" stroke="darkgrey" stroke-width="6.47" d="M387.34,-269.98C408.63,-247.3 451.45,-201.69 474.13,-177.52"/>
</g>
<!-- pollution&#45;&#45;économie -->
<g id="edge4" class="edge">
<title>pollution&#45;&#45;économie</title>
<path fill="none" stroke="darkgrey" stroke-width="5.34" d="M391.68,-277.36C408.3,-271.37 433.49,-262.31 450.19,-256.3"/>
</g>
<!-- pollution&#45;&#45;nickel -->
<g id="edge5" class="edge">
<title>pollution&#45;&#45;nickel</title>
<path fill="none" stroke="darkgrey" stroke-width="5.25" d="M392.84,-282.61C424.5,-281.08 490.3,-277.9 531.59,-275.91"/>
</g>
<!-- pollution&#45;&#45;ressource minière -->
<g id="edge6" class="edge">
<title>pollution&#45;&#45;ressource minière</title>
<path fill="none" stroke="darkgrey" stroke-width="2.04" d="M367.51,-266.91C351.96,-230.93 315.51,-146.58 302.91,-117.43"/>
</g>
<!-- pollution&#45;&#45;politique -->
<g id="edge7" class="edge">
<title>pollution&#45;&#45;politique</title>
<path fill="none" stroke="darkgrey" stroke-width="3.16" d="M379.29,-266.07C385.94,-241.07 398.05,-195.49 404.18,-172.43"/>
</g>
<!-- pollution&#45;&#45;secteur nickel -->
<g id="edge8" class="edge">
<title>pollution&#45;&#45;secteur nickel</title>
<path fill="none" stroke="darkgrey" stroke-width="3.27" d="M363.98,-268.75C357.04,-259.18 348.04,-246.76 341.12,-237.22"/>
</g>
<!-- pollution&#45;&#45;nature -->
<g id="edge9" class="edge">
<title>pollution&#45;&#45;nature</title>
<path fill="none" stroke="darkgrey" stroke-width="3.52" d="M374.9,-301.84C375.12,-318.36 375.43,-342.32 375.62,-357.55"/>
</g>
<!-- pollution&#45;&#45;amélioration environnementale -->
<g id="edge10" class="edge">
<title>pollution&#45;&#45;amélioration environnementale</title>
<path fill="none" stroke="darkgrey" stroke-width="1.05" d="M356.64,-279.85C301.79,-268.8 140.05,-236.2 129.99,-234.18"/>
</g>
<!-- pollution&#45;&#45;société néo&#45;calédonienne -->
<g id="edge11" class="edge">
<title>pollution&#45;&#45;société néo&#45;calédonienne</title>
<path fill="none" stroke="darkgrey" stroke-width="1.56" d="M391.46,-290.67C443.74,-313.05 601.61,-380.63 627.15,-391.57"/>
</g>
<!-- pollution&#45;&#45;exploitation minière -->
<g id="edge12" class="edge">
<title>pollution&#45;&#45;exploitation minière</title>
<path fill="none" stroke="darkgrey" stroke-width="2.22" d="M359.81,-272.77C331.24,-252.17 269.14,-207.4 242.9,-188.48"/>
</g>
<!-- pollution&#45;&#45;alternative au développement -->
<g id="edge13" class="edge">
<title>pollution&#45;&#45;alternative au développement</title>
<path fill="none" stroke="darkgrey" stroke-width="1.91" d="M383.45,-299.61C406.68,-342.27 468.73,-456.25 480.16,-477.24"/>
</g>
<!-- pollution&#45;&#45;matériel -->
<g id="edge14" class="edge">
<title>pollution&#45;&#45;matériel</title>
<path fill="none" stroke="darkgrey" stroke-width="2.82" d="M358.74,-292.41C337.88,-304.11 301.71,-324.38 282.55,-335.13"/>
</g>
<!-- pollution&#45;&#45;foncier -->
<g id="edge15" class="edge">
<title>pollution&#45;&#45;foncier</title>
<path fill="none" stroke="darkgrey" stroke-width="1.13" d="M369.01,-300.74C355.97,-340.53 324.25,-437.31 315.58,-463.74"/>
</g>
<!-- pollution&#45;&#45;relation politique -->
<g id="edge16" class="edge">
<title>pollution&#45;&#45;relation politique</title>
<path fill="none" stroke="darkgrey" stroke-width="1" d="M389.36,-272.37C443.98,-231.04 633.52,-87.64 659.91,-67.68"/>
</g>
<!-- pollution&#45;&#45;industrie -->
<g id="edge17" class="edge">
<title>pollution&#45;&#45;industrie</title>
<path fill="none" stroke="darkgrey" stroke-width="2.85" d="M391.12,-291.86C413.73,-303.38 454.16,-323.97 476.7,-335.44"/>
</g>
<!-- pollution&#45;&#45;échange commercial -->
<g id="edge18" class="edge">
<title>pollution&#45;&#45;échange commercial</title>
<path fill="none" stroke="darkgrey" stroke-width="1.19" d="M380.8,-266.21C398.58,-216.07 449.67,-72.03 461.4,-38.96"/>
</g>
<!-- dégradation environnementale&#45;&#45;nouvelle&#45;calédonie -->
<g id="edge19" class="edge">
<title>dégradation environnementale&#45;&#45;nouvelle&#45;calédonie</title>
<path fill="none" stroke="darkgrey" stroke-width="1.67" d="M543.43,-177.17C490.37,-128.86 374.96,-23.76 355.52,-6.06"/>
</g>
<!-- dégradation environnementale&#45;&#45;travail -->
<g id="edge20" class="edge">
<title>dégradation environnementale&#45;&#45;travail</title>
<path fill="none" stroke="darkgrey" stroke-width="8.1" d="M537.58,-185.48C527.72,-180.64 517.19,-175.47 508.47,-171.19"/>
</g>
<!-- dégradation environnementale&#45;&#45;économie -->
<g id="edge21" class="edge">
<title>dégradation environnementale&#45;&#45;économie</title>
<path fill="none" stroke="darkgrey" stroke-width="7.47" d="M537.31,-216.97C519.47,-225.42 498.17,-235.52 483.81,-242.33"/>
</g>
<!-- dégradation environnementale&#45;&#45;nickel -->
<g id="edge22" class="edge">
<title>dégradation environnementale&#45;&#45;nickel</title>
<path fill="none" stroke="darkgrey" stroke-width="10" d="M568.97,-237.8C568.96,-237.94 568.96,-238.08 568.96,-238.23"/>
</g>
<!-- dégradation environnementale&#45;&#45;ressource minière -->
<g id="edge23" class="edge">
<title>dégradation environnementale&#45;&#45;ressource minière</title>
<path fill="none" stroke="darkgrey" stroke-width="4.34" d="M535.97,-189.61C474.14,-168.18 346.53,-123.95 309.09,-110.97"/>
</g>
<!-- dégradation environnementale&#45;&#45;politique -->
<g id="edge24" class="edge">
<title>dégradation environnementale&#45;&#45;politique</title>
<path fill="none" stroke="darkgrey" stroke-width="4.6" d="M534.9,-192.07C499.69,-182.7 447.27,-168.74 422.24,-162.08"/>
</g>
<!-- dégradation environnementale&#45;&#45;secteur nickel -->
<g id="edge25" class="edge">
<title>dégradation environnementale&#45;&#45;secteur nickel</title>
<path fill="none" stroke="darkgrey" stroke-width="4.69" d="M534.22,-204.61C482.27,-209.2 388,-217.54 348.6,-221.02"/>
</g>
<!-- dégradation environnementale&#45;&#45;nature -->
<g id="edge26" class="edge">
<title>dégradation environnementale&#45;&#45;nature</title>
<path fill="none" stroke="darkgrey" stroke-width="5.3" d="M542.66,-225.53C499.36,-263.56 416.99,-335.91 387.05,-362.21"/>
</g>
<!-- dégradation environnementale&#45;&#45;amélioration environnementale -->
<g id="edge27" class="edge">
<title>dégradation environnementale&#45;&#45;amélioration environnementale</title>
<path fill="none" stroke="darkgrey" stroke-width="1.37" d="M534.03,-204.11C432.09,-211.66 148.02,-232.71 130.36,-234.01"/>
</g>
<!-- dégradation environnementale&#45;&#45;société néo&#45;calédonienne -->
<g id="edge28" class="edge">
<title>dégradation environnementale&#45;&#45;société néo&#45;calédonienne</title>
<path fill="none" stroke="darkgrey" stroke-width="2.05" d="M581.05,-236.14C596.6,-285.33 623.81,-371.38 629.57,-389.62"/>
</g>
<!-- dégradation environnementale&#45;&#45;exploitation minière -->
<g id="edge29" class="edge">
<title>dégradation environnementale&#45;&#45;exploitation minière</title>
<path fill="none" stroke="darkgrey" stroke-width="4.06" d="M534.09,-199.14C460.42,-194.43 295.16,-183.88 245.32,-180.69"/>
</g>
<!-- dégradation environnementale&#45;&#45;alternative au développement -->
<g id="edge30" class="edge">
<title>dégradation environnementale&#45;&#45;alternative au développement</title>
<path fill="none" stroke="darkgrey" stroke-width="2.27" d="M559.19,-235.95C537.64,-304.22 490.98,-452.08 483.12,-477"/>
</g>
<!-- dégradation environnementale&#45;&#45;matériel -->
<g id="edge31" class="edge">
<title>dégradation environnementale&#45;&#45;matériel</title>
<path fill="none" stroke="darkgrey" stroke-width="4.48" d="M537.37,-216.78C472,-247.44 327.69,-315.13 283.14,-336.02"/>
</g>
<!-- dégradation environnementale&#45;&#45;foncier -->
<g id="edge32" class="edge">
<title>dégradation environnementale&#45;&#45;foncier</title>
<path fill="none" stroke="darkgrey" stroke-width="2.34" d="M545,-227.73C486.96,-288.56 346.24,-436.05 318.25,-465.38"/>
</g>
<!-- dégradation environnementale&#45;&#45;relation politique -->
<g id="edge33" class="edge">
<title>dégradation environnementale&#45;&#45;relation politique</title>
<path fill="none" stroke="darkgrey" stroke-width="1.4" d="M590.46,-171.58C614.39,-136.53 651.95,-81.5 660.97,-68.29"/>
</g>
<!-- dégradation environnementale&#45;&#45;industrie -->
<g id="edge34" class="edge">
<title>dégradation environnementale&#45;&#45;industrie</title>
<path fill="none" stroke="darkgrey" stroke-width="4.02" d="M552.79,-233.38C536.9,-262.72 514.01,-304.99 501.67,-327.77"/>
</g>
<!-- dégradation environnementale&#45;&#45;échange commercial -->
<g id="edge36" class="edge">
<title>dégradation environnementale&#45;&#45;échange commercial</title>
<path fill="none" stroke="darkgrey" stroke-width="2.34" d="M550.84,-170.78C525,-129.61 480.81,-59.21 467.63,-38.21"/>
</g>
<!-- dégradation environnementale&#45;&#45;risque -->
<g id="edge35" class="edge">
<title>dégradation environnementale&#45;&#45;risque</title>
<path fill="none" stroke="darkgrey" stroke-width="1.76" d="M606.32,-201.47C670.44,-201.53 799.41,-201.64 823.02,-201.66"/>
</g>
<!-- dégradation environnementale&#45;&#45;avenir sans nickel -->
<g id="edge37" class="edge">
<title>dégradation environnementale&#45;&#45;avenir sans nickel</title>
<path fill="none" stroke="darkgrey" stroke-width="1.12" d="M605.83,-206.71C712.25,-222.4 1020.55,-267.84 1034.94,-269.96"/>
</g>
<!-- nouvelle&#45;calédonie&#45;&#45;travail -->
<g id="edge38" class="edge">
<title>nouvelle&#45;calédonie&#45;&#45;travail</title>
<path fill="none" stroke="darkgrey" stroke-width="1.76" d="M355.08,-6.24C369.26,-22.69 443.39,-108.7 474.87,-145.22"/>
</g>
<!-- nouvelle&#45;calédonie&#45;&#45;économie -->
<g id="edge39" class="edge">
<title>nouvelle&#45;calédonie&#45;&#45;économie</title>
<path fill="none" stroke="darkgrey" stroke-width="1.54" d="M354.33,-6.99C365.9,-31.87 436.17,-182.95 459.72,-233.58"/>
</g>
<!-- nouvelle&#45;calédonie&#45;&#45;nickel -->
<g id="edge40" class="edge">
<title>nouvelle&#45;calédonie&#45;&#45;nickel</title>
<path fill="none" stroke="darkgrey" stroke-width="2.77" d="M355.13,-6.54C373.69,-29.89 494.24,-181.55 545.19,-245.64"/>
</g>
<!-- nouvelle&#45;calédonie&#45;&#45;ressource minière -->
<g id="edge41" class="edge">
<title>nouvelle&#45;calédonie&#45;&#45;ressource minière</title>
<path fill="none" stroke="darkgrey" stroke-width="1.43" d="M350.91,-6.95C343.53,-21.1 315.45,-74.9 303.73,-97.36"/>
</g>
<!-- nouvelle&#45;calédonie&#45;&#45;politique -->
<g id="edge42" class="edge">
<title>nouvelle&#45;calédonie&#45;&#45;politique</title>
<path fill="none" stroke="darkgrey" stroke-width="2" d="M353.97,-7.02C360.52,-25.38 390.9,-110.52 402.97,-144.35"/>
</g>
<!-- nouvelle&#45;calédonie&#45;&#45;secteur nickel -->
<g id="edge43" class="edge">
<title>nouvelle&#45;calédonie&#45;&#45;secteur nickel</title>
<path fill="none" stroke="darkgrey" stroke-width="1.71" d="M352.33,-7.3C349.95,-30.83 337.16,-157.09 332.36,-204.56"/>
</g>
<!-- nouvelle&#45;calédonie&#45;&#45;nature -->
<g id="edge44" class="edge">
<title>nouvelle&#45;calédonie&#45;&#45;nature</title>
<path fill="none" stroke="darkgrey" stroke-width="1.2" d="M352.94,-7.15C355.04,-40.57 370.9,-293.79 374.9,-357.55"/>
</g>
<!-- nouvelle&#45;calédonie&#45;&#45;exploitation minière -->
<g id="edge45" class="edge">
<title>nouvelle&#45;calédonie&#45;&#45;exploitation minière</title>
<path fill="none" stroke="darkgrey" stroke-width="1.21" d="M350.6,-6.56C337.22,-25.9 264.19,-131.51 239.2,-167.64"/>
</g>
<!-- nouvelle&#45;calédonie&#45;&#45;industrie -->
<g id="edge46" class="edge">
<title>nouvelle&#45;calédonie&#45;&#45;industrie</title>
<path fill="none" stroke="darkgrey" stroke-width="1.47" d="M354.1,-6.87C366.59,-37.17 459.79,-263.18 486.11,-327.01"/>
</g>
<!-- travail&#45;&#45;économie -->
<g id="edge47" class="edge">
<title>travail&#45;&#45;économie</title>
<path fill="none" stroke="darkgrey" stroke-width="7.01" d="M483.91,-182.61C480.18,-197.83 475.2,-218.2 471.69,-232.56"/>
</g>
<!-- travail&#45;&#45;nickel -->
<g id="edge48" class="edge">
<title>travail&#45;&#45;nickel</title>
<path fill="none" stroke="darkgrey" stroke-width="8.2" d="M501.52,-179.47C513.76,-196.95 532.64,-223.9 547.14,-244.58"/>
</g>
<!-- travail&#45;&#45;ressource minière -->
<g id="edge49" class="edge">
<title>travail&#45;&#45;ressource minière</title>
<path fill="none" stroke="darkgrey" stroke-width="3.43" d="M468.28,-155.73C427.98,-144.23 340.35,-119.23 309.53,-110.44"/>
</g>
<!-- travail&#45;&#45;politique -->
<g id="edge50" class="edge">
<title>travail&#45;&#45;politique</title>
<path fill="none" stroke="darkgrey" stroke-width="4.28" d="M467.3,-160.74C453.13,-160.15 435.03,-159.4 422.56,-158.88"/>
</g>
<!-- travail&#45;&#45;secteur nickel -->
<g id="edge51" class="edge">
<title>travail&#45;&#45;secteur nickel</title>
<path fill="none" stroke="darkgrey" stroke-width="4.93" d="M468.96,-169.37C437.47,-181.48 377.02,-204.73 347.54,-216.08"/>
</g>
<!-- travail&#45;&#45;nature -->
<g id="edge52" class="edge">
<title>travail&#45;&#45;nature</title>
<path fill="none" stroke="darkgrey" stroke-width="3.66" d="M478.79,-180.69C456.09,-222.88 402.05,-323.3 382.79,-359.12"/>
</g>
<!-- travail&#45;&#45;amélioration environnementale -->
<g id="edge53" class="edge">
<title>travail&#45;&#45;amélioration environnementale</title>
<path fill="none" stroke="darkgrey" stroke-width="1.02" d="M467.88,-165.91C393.23,-180.95 145.65,-230.82 130.25,-233.93"/>
</g>
<!-- travail&#45;&#45;société néo&#45;calédonienne -->
<g id="edge54" class="edge">
<title>travail&#45;&#45;société néo&#45;calédonienne</title>
<path fill="none" stroke="darkgrey" stroke-width="1.89" d="M500.38,-180.19C531.24,-230.6 615.23,-367.85 628.8,-390.03"/>
</g>
<!-- travail&#45;&#45;exploitation minière -->
<g id="edge55" class="edge">
<title>travail&#45;&#45;exploitation minière</title>
<path fill="none" stroke="darkgrey" stroke-width="3.43" d="M467.46,-163.16C416.31,-166.75 288.72,-175.7 245.44,-178.74"/>
</g>
<!-- travail&#45;&#45;alternative au développement -->
<g id="edge56" class="edge">
<title>travail&#45;&#45;alternative au développement</title>
<path fill="none" stroke="darkgrey" stroke-width="1.45" d="M488.55,-183.32C487.08,-249.78 482.7,-447.97 482.06,-477.02"/>
</g>
<!-- travail&#45;&#45;matériel -->
<g id="edge57" class="edge">
<title>travail&#45;&#45;matériel</title>
<path fill="none" stroke="darkgrey" stroke-width="3.75" d="M472.19,-175.52C429.37,-210.8 317.19,-303.23 281.12,-332.94"/>
</g>
<!-- travail&#45;&#45;foncier -->
<g id="edge58" class="edge">
<title>travail&#45;&#45;foncier</title>
<path fill="none" stroke="darkgrey" stroke-width="1.63" d="M478.31,-180.5C444.04,-240.75 338.21,-426.83 317.06,-464"/>
</g>
<!-- travail&#45;&#45;relation politique -->
<g id="edge59" class="edge">
<title>travail&#45;&#45;relation politique</title>
<path fill="none" stroke="darkgrey" stroke-width="1.31" d="M507.98,-151.16C548.48,-128.74 641.31,-77.36 659.75,-67.15"/>
</g>
<!-- travail&#45;&#45;industrie -->
<g id="edge60" class="edge">
<title>travail&#45;&#45;industrie</title>
<path fill="none" stroke="darkgrey" stroke-width="4.06" d="M489.51,-183.25C490.3,-219.52 491.88,-292 492.62,-325.72"/>
</g>
<!-- travail&#45;&#45;échange commercial -->
<g id="edge62" class="edge">
<title>travail&#45;&#45;échange commercial</title>
<path fill="none" stroke="darkgrey" stroke-width="2.01" d="M484.87,-140.26C479.08,-110.51 468.89,-58.18 465.2,-39.23"/>
</g>
<!-- travail&#45;&#45;risque -->
<g id="edge61" class="edge">
<title>travail&#45;&#45;risque</title>
<path fill="none" stroke="darkgrey" stroke-width="1.89" d="M510.42,-164.18C579.15,-172.32 791.77,-197.52 822.95,-201.21"/>
</g>
<!-- économie&#45;&#45;nickel -->
<g id="edge63" class="edge">
<title>économie&#45;&#45;nickel</title>
<path fill="none" stroke="darkgrey" stroke-width="6.4" d="M485.36,-254.4C498.45,-257.54 516.62,-261.89 532.57,-265.71"/>
</g>
<!-- économie&#45;&#45;ressource minière -->
<g id="edge64" class="edge">
<title>économie&#45;&#45;ressource minière</title>
<path fill="none" stroke="darkgrey" stroke-width="2.38" d="M453.58,-238.41C419.87,-209.91 334.18,-137.45 306.97,-114.44"/>
</g>
<!-- économie&#45;&#45;politique -->
<g id="edge65" class="edge">
<title>économie&#45;&#45;politique</title>
<path fill="none" stroke="darkgrey" stroke-width="4.76" d="M457.58,-234.94C445.9,-216.9 426.64,-187.15 415.87,-170.51"/>
</g>
<!-- économie&#45;&#45;secteur nickel -->
<g id="edge66" class="edge">
<title>économie&#45;&#45;secteur nickel</title>
<path fill="none" stroke="darkgrey" stroke-width="3.74" d="M449.51,-246.51C423.28,-241.24 374.66,-231.48 348.43,-226.21"/>
</g>
<!-- économie&#45;&#45;nature -->
<g id="edge67" class="edge">
<title>économie&#45;&#45;nature</title>
<path fill="none" stroke="darkgrey" stroke-width="2.85" d="M456.53,-264.57C438.24,-288.93 401.65,-337.67 384.75,-360.18"/>
</g>
<!-- économie&#45;&#45;amélioration environnementale -->
<g id="edge68" class="edge">
<title>économie&#45;&#45;amélioration environnementale</title>
<path fill="none" stroke="darkgrey" stroke-width="1.03" d="M449.23,-249.24C381.24,-246.01 144.92,-234.81 130.22,-234.11"/>
</g>
<!-- économie&#45;&#45;société néo&#45;calédonienne -->
<g id="edge69" class="edge">
<title>économie&#45;&#45;société néo&#45;calédonienne</title>
<path fill="none" stroke="darkgrey" stroke-width="1.53" d="M481.04,-262.04C516.6,-293.18 610.59,-375.49 627.9,-390.65"/>
</g>
<!-- économie&#45;&#45;exploitation minière -->
<g id="edge70" class="edge">
<title>économie&#45;&#45;exploitation minière</title>
<path fill="none" stroke="darkgrey" stroke-width="2.1" d="M450,-244.93C405.08,-231.57 285.84,-196.12 244.87,-183.94"/>
</g>
<!-- économie&#45;&#45;alternative au développement -->
<g id="edge71" class="edge">
<title>économie&#45;&#45;alternative au développement</title>
<path fill="none" stroke="darkgrey" stroke-width="1.54" d="M468.54,-268.19C471.67,-317.64 480.24,-453.03 481.75,-476.95"/>
</g>
<!-- économie&#45;&#45;matériel -->
<g id="edge72" class="edge">
<title>économie&#45;&#45;matériel</title>
<path fill="none" stroke="darkgrey" stroke-width="2.3" d="M450.89,-257.8C412.48,-275.72 317.77,-319.9 282.92,-336.16"/>
</g>
<!-- économie&#45;&#45;foncier -->
<g id="edge73" class="edge">
<title>économie&#45;&#45;foncier</title>
<path fill="none" stroke="darkgrey" stroke-width="1.25" d="M457.05,-264.9C426.57,-308.53 337.92,-435.36 317.57,-464.49"/>
</g>
<!-- économie&#45;&#45;relation politique -->
<g id="edge74" class="edge">
<title>économie&#45;&#45;relation politique</title>
<path fill="none" stroke="darkgrey" stroke-width="1.4" d="M480.54,-237.69C520.62,-199.83 639.85,-87.21 660.04,-68.13"/>
</g>
<!-- économie&#45;&#45;industrie -->
<g id="edge75" class="edge">
<title>économie&#45;&#45;industrie</title>
<path fill="none" stroke="darkgrey" stroke-width="2.7" d="M472.22,-267.71C476.8,-284.46 483.65,-309.5 488.22,-326.22"/>
</g>
<!-- économie&#45;&#45;échange commercial -->
<g id="edge77" class="edge">
<title>économie&#45;&#45;échange commercial</title>
<path fill="none" stroke="darkgrey" stroke-width="1.71" d="M467.1,-231.89C466.35,-186.46 464.43,-69.6 463.94,-39.36"/>
</g>
<!-- économie&#45;&#45;risque -->
<g id="edge76" class="edge">
<title>économie&#45;&#45;risque</title>
<path fill="none" stroke="darkgrey" stroke-width="1.03" d="M485.72,-247.63C553.8,-238.45 790.08,-206.61 822.97,-202.18"/>
</g>
<!-- nickel&#45;&#45;ressource minière -->
<g id="edge78" class="edge">
<title>nickel&#45;&#45;ressource minière</title>
<path fill="none" stroke="darkgrey" stroke-width="5.29" d="M537.22,-255.18C476.7,-217.69 344.49,-135.78 308.02,-113.18"/>
</g>
<!-- nickel&#45;&#45;politique -->
<g id="edge79" class="edge">
<title>nickel&#45;&#45;politique</title>
<path fill="none" stroke="darkgrey" stroke-width="3.43" d="M538.53,-252.9C503,-227.16 444.82,-184.99 419.89,-166.93"/>
</g>
<!-- nickel&#45;&#45;secteur nickel -->
<g id="edge80" class="edge">
<title>nickel&#45;&#45;secteur nickel</title>
<path fill="none" stroke="darkgrey" stroke-width="6.47" d="M532.58,-266.5C481.06,-255.31 387.13,-234.91 348.18,-226.45"/>
</g>
<!-- nickel&#45;&#45;nature -->
<g id="edge81" class="edge">
<title>nickel&#45;&#45;nature</title>
<path fill="none" stroke="darkgrey" stroke-width="5.62" d="M535.71,-290.55C492.79,-312.44 418.69,-350.22 388.84,-365.44"/>
</g>
<!-- nickel&#45;&#45;amélioration environnementale -->
<g id="edge82" class="edge">
<title>nickel&#45;&#45;amélioration environnementale</title>
<path fill="none" stroke="darkgrey" stroke-width="1.04" d="M531.98,-270.88C430.56,-261.61 147.92,-235.76 130.36,-234.16"/>
</g>
<!-- nickel&#45;&#45;société néo&#45;calédonienne -->
<g id="edge83" class="edge">
<title>nickel&#45;&#45;société néo&#45;calédonienne</title>
<path fill="none" stroke="darkgrey" stroke-width="1.15" d="M584.69,-306.03C600.53,-336.02 622.73,-378.05 628.97,-389.87"/>
</g>
<!-- nickel&#45;&#45;exploitation minière -->
<g id="edge84" class="edge">
<title>nickel&#45;&#45;exploitation minière</title>
<path fill="none" stroke="darkgrey" stroke-width="7.13" d="M533.06,-264.41C460.23,-244.02 294.42,-197.58 244.98,-183.73"/>
</g>
<!-- nickel&#45;&#45;alternative au développement -->
<g id="edge85" class="edge">
<title>nickel&#45;&#45;alternative au développement</title>
<path fill="none" stroke="darkgrey" stroke-width="1.78" d="M553.87,-307.79C532.01,-360.34 491.4,-457.95 483.38,-477.23"/>
</g>
<!-- nickel&#45;&#45;matériel -->
<g id="edge86" class="edge">
<title>nickel&#45;&#45;matériel</title>
<path fill="none" stroke="darkgrey" stroke-width="5.7" d="M532.49,-282.24C466.8,-297.26 328.55,-328.85 283.96,-339.05"/>
</g>
<!-- nickel&#45;&#45;foncier -->
<g id="edge87" class="edge">
<title>nickel&#45;&#45;foncier</title>
<path fill="none" stroke="darkgrey" stroke-width="2.41" d="M539.16,-296.3C480.14,-341.83 348.25,-443.59 319.13,-466.06"/>
</g>
<!-- nickel&#45;&#45;relation politique -->
<g id="edge88" class="edge">
<title>nickel&#45;&#45;relation politique</title>
<path fill="none" stroke="darkgrey" stroke-width="1.4" d="M582.93,-241.08C607.02,-188.18 652.43,-88.5 661.4,-68.8"/>
</g>
<!-- nickel&#45;&#45;industrie -->
<g id="edge89" class="edge">
<title>nickel&#45;&#45;industrie</title>
<path fill="none" stroke="darkgrey" stroke-width="8.04" d="M541.26,-298.89C529.5,-309.83 516.17,-322.22 506.51,-331.21"/>
</g>
<!-- nickel&#45;&#45;échange commercial -->
<g id="edge91" class="edge">
<title>nickel&#45;&#45;échange commercial</title>
<path fill="none" stroke="darkgrey" stroke-width="3.15" d="M553.61,-241.01C528.79,-183.27 479.08,-67.63 466.67,-38.77"/>
</g>
<!-- nickel&#45;&#45;risque -->
<g id="edge90" class="edge">
<title>nickel&#45;&#45;risque</title>
<path fill="none" stroke="darkgrey" stroke-width="1.12" d="M602.78,-264.38C667.1,-246.37 799.9,-209.19 823.24,-202.66"/>
</g>
<!-- nickel&#45;&#45;avenir sans nickel -->
<g id="edge92" class="edge">
<title>nickel&#45;&#45;avenir sans nickel</title>
<path fill="none" stroke="darkgrey" d="M604.16,-273.84C711.45,-272.89 1020.51,-270.17 1034.94,-270.04"/>
</g>
<!-- ressource minière&#45;&#45;politique -->
<g id="edge93" class="edge">
<title>ressource minière&#45;&#45;politique</title>
<path fill="none" stroke="darkgrey" stroke-width="2.95" d="M308.63,-112.01C328.42,-121.23 372.29,-141.66 394.5,-152.01"/>
</g>
<!-- ressource minière&#45;&#45;secteur nickel -->
<g id="edge94" class="edge">
<title>ressource minière&#45;&#45;secteur nickel</title>
<path fill="none" stroke="darkgrey" stroke-width="2.17" d="M301.49,-117.95C307,-137.8 318.89,-180.65 325.62,-204.92"/>
</g>
<!-- ressource minière&#45;&#45;nature -->
<g id="edge95" class="edge">
<title>ressource minière&#45;&#45;nature</title>
<path fill="none" stroke="darkgrey" stroke-width="1.96" d="M301.66,-118.02C313.83,-159.72 358.06,-311.25 371.74,-358.15"/>
</g>
<!-- ressource minière&#45;&#45;exploitation minière -->
<g id="edge96" class="edge">
<title>ressource minière&#45;&#45;exploitation minière</title>
<path fill="none" stroke="darkgrey" stroke-width="2.47" d="M290.77,-115.62C278.54,-128.71 254.79,-154.12 241.14,-168.72"/>
</g>
<!-- ressource minière&#45;&#45;alternative au développement -->
<g id="edge97" class="edge">
<title>ressource minière&#45;&#45;alternative au développement</title>
<path fill="none" stroke="darkgrey" stroke-width="1.01" d="M303.45,-117.29C330.8,-172.95 463.78,-443.56 480.3,-477.16"/>
</g>
<!-- ressource minière&#45;&#45;matériel -->
<g id="edge98" class="edge">
<title>ressource minière&#45;&#45;matériel</title>
<path fill="none" stroke="darkgrey" stroke-width="1.98" d="M297.19,-118.33C292.49,-156.71 276.84,-284.54 271.55,-327.82"/>
</g>
<!-- ressource minière&#45;&#45;industrie -->
<g id="edge99" class="edge">
<title>ressource minière&#45;&#45;industrie</title>
<path fill="none" stroke="darkgrey" stroke-width="2.56" d="M305.69,-116C334.88,-151.5 445.18,-285.59 481.41,-329.64"/>
</g>
<!-- ressource minière&#45;&#45;échange commercial -->
<g id="edge100" class="edge">
<title>ressource minière&#45;&#45;échange commercial</title>
<path fill="none" stroke="darkgrey" stroke-width="1.67" d="M308.88,-102.61C339.97,-88.46 432.05,-46.58 457.33,-35.08"/>
</g>
<!-- politique&#45;&#45;secteur nickel -->
<g id="edge101" class="edge">
<title>politique&#45;&#45;secteur nickel</title>
<path fill="none" stroke="darkgrey" stroke-width="3.36" d="M396.52,-167.76C382.72,-179.23 359.52,-198.52 344.63,-210.9"/>
</g>
<!-- politique&#45;&#45;nature -->
<g id="edge102" class="edge">
<title>politique&#45;&#45;nature</title>
<path fill="none" stroke="darkgrey" stroke-width="1.7" d="M405.78,-172.63C399.94,-211.49 383.88,-318.39 378,-357.5"/>
</g>
<!-- politique&#45;&#45;société néo&#45;calédonienne -->
<g id="edge103" class="edge">
<title>politique&#45;&#45;société néo&#45;calédonienne</title>
<path fill="none" stroke="darkgrey" stroke-width="1.54" d="M418.09,-168.97C458.43,-211.49 606.27,-367.35 627.99,-390.26"/>
</g>
<!-- politique&#45;&#45;exploitation minière -->
<g id="edge104" class="edge">
<title>politique&#45;&#45;exploitation minière</title>
<path fill="none" stroke="darkgrey" stroke-width="1.96" d="M393.44,-160.03C360.23,-164.06 278.92,-173.93 245.51,-177.98"/>
</g>
<!-- politique&#45;&#45;alternative au développement -->
<g id="edge105" class="edge">
<title>politique&#45;&#45;alternative au développement</title>
<path fill="none" stroke="darkgrey" stroke-width="1.59" d="M411.22,-172.53C424.54,-230.53 474.25,-446.95 481.18,-477.1"/>
</g>
<!-- politique&#45;&#45;matériel -->
<g id="edge106" class="edge">
<title>politique&#45;&#45;matériel</title>
<path fill="none" stroke="darkgrey" stroke-width="1.52" d="M399.09,-170.06C374.19,-203.22 303.76,-297.03 278.73,-330.36"/>
</g>
<!-- politique&#45;&#45;foncier -->
<g id="edge107" class="edge">
<title>politique&#45;&#45;foncier</title>
<path fill="none" stroke="darkgrey" stroke-width="1.28" d="M403.63,-172.5C387.01,-227.37 327.39,-424.19 315.45,-463.6"/>
</g>
<!-- politique&#45;&#45;relation politique -->
<g id="edge108" class="edge">
<title>politique&#45;&#45;relation politique</title>
<path fill="none" stroke="darkgrey" stroke-width="1.74" d="M421.65,-153.27C470.48,-135.48 634.36,-75.79 659.67,-66.57"/>
</g>
<!-- politique&#45;&#45;industrie -->
<g id="edge109" class="edge">
<title>politique&#45;&#45;industrie</title>
<path fill="none" stroke="darkgrey" stroke-width="2.85" d="M414.06,-171.61C429.26,-204.75 468.72,-290.78 485.4,-327.14"/>
</g>
<!-- politique&#45;&#45;échange commercial -->
<g id="edge110" class="edge">
<title>politique&#45;&#45;échange commercial</title>
<path fill="none" stroke="darkgrey" stroke-width="1.6" d="M413.92,-144.77C425.86,-117.82 452.24,-58.26 460.96,-38.58"/>
</g>
<!-- secteur nickel&#45;&#45;nature -->
<g id="edge111" class="edge">
<title>secteur nickel&#45;&#45;nature</title>
<path fill="none" stroke="darkgrey" stroke-width="2.27" d="M335.81,-240.06C344.86,-269.94 363.17,-330.35 371.5,-357.86"/>
</g>
<!-- secteur nickel&#45;&#45;amélioration environnementale -->
<g id="edge112" class="edge">
<title>secteur nickel&#45;&#45;amélioration environnementale</title>
<path fill="none" stroke="darkgrey" stroke-width="1.09" d="M312.33,-223.66C265.17,-226.35 141.82,-233.38 130.36,-234.03"/>
</g>
<!-- secteur nickel&#45;&#45;société néo&#45;calédonienne -->
<g id="edge113" class="edge">
<title>secteur nickel&#45;&#45;société néo&#45;calédonienne</title>
<path fill="none" stroke="darkgrey" stroke-width="1.49" d="M346.24,-231.55C403.66,-264.15 600.15,-375.74 627.49,-391.27"/>
</g>
<!-- secteur nickel&#45;&#45;exploitation minière -->
<g id="edge114" class="edge">
<title>secteur nickel&#45;&#45;exploitation minière</title>
<path fill="none" stroke="darkgrey" stroke-width="2.5" d="M313.61,-215.35C294.06,-206.94 262.25,-193.28 244.29,-185.56"/>
</g>
<!-- secteur nickel&#45;&#45;alternative au développement -->
<g id="edge115" class="edge">
<title>secteur nickel&#45;&#45;alternative au développement</title>
<path fill="none" stroke="darkgrey" stroke-width="1.25" d="M339.77,-238.37C370.09,-290 465.37,-452.29 480.07,-477.33"/>
</g>
<!-- secteur nickel&#45;&#45;matériel -->
<g id="edge116" class="edge">
<title>secteur nickel&#45;&#45;matériel</title>
<path fill="none" stroke="darkgrey" stroke-width="2.94" d="M322.34,-238.76C310.16,-262.75 287.52,-307.34 276.35,-329.33"/>
</g>
<!-- secteur nickel&#45;&#45;foncier -->
<g id="edge117" class="edge">
<title>secteur nickel&#45;&#45;foncier</title>
<path fill="none" stroke="darkgrey" stroke-width="1.95" d="M329.27,-240.85C325.78,-291.16 316.14,-430.44 313.85,-463.43"/>
</g>
<!-- secteur nickel&#45;&#45;relation politique -->
<g id="edge118" class="edge">
<title>secteur nickel&#45;&#45;relation politique</title>
<path fill="none" stroke="darkgrey" stroke-width="1.11" d="M347.01,-214.82C409.64,-185.2 630.71,-80.63 659.8,-66.87"/>
</g>
<!-- secteur nickel&#45;&#45;industrie -->
<g id="edge119" class="edge">
<title>secteur nickel&#45;&#45;industrie</title>
<path fill="none" stroke="darkgrey" stroke-width="5.12" d="M345.23,-233.58C376.17,-256.65 447.66,-309.94 478.46,-332.9"/>
</g>
<!-- secteur nickel&#45;&#45;échange commercial -->
<g id="edge120" class="edge">
<title>secteur nickel&#45;&#45;échange commercial</title>
<path fill="none" stroke="darkgrey" stroke-width="2.15" d="M340.99,-207.67C368.36,-168.56 441.25,-64.39 459.58,-38.18"/>
</g>
<!-- nature&#45;&#45;société néo&#45;calédonienne -->
<g id="edge121" class="edge">
<title>nature&#45;&#45;société néo&#45;calédonienne</title>
<path fill="none" stroke="darkgrey" stroke-width="1.59" d="M390.61,-373.3C440.54,-377.41 601.09,-390.64 627.09,-392.78"/>
</g>
<!-- nature&#45;&#45;exploitation minière -->
<g id="edge122" class="edge">
<title>nature&#45;&#45;exploitation minière</title>
<path fill="none" stroke="darkgrey" stroke-width="1.8" d="M366.96,-360.34C341.01,-325.93 265.35,-225.57 239.55,-191.35"/>
</g>
<!-- nature&#45;&#45;alternative au développement -->
<g id="edge123" class="edge">
<title>nature&#45;&#45;alternative au développement</title>
<path fill="none" stroke="darkgrey" stroke-width="1.06" d="M385.99,-382.49C409.45,-406.46 466.3,-464.57 479.3,-477.85"/>
</g>
<!-- nature&#45;&#45;matériel -->
<g id="edge124" class="edge">
<title>nature&#45;&#45;matériel</title>
<path fill="none" stroke="darkgrey" stroke-width="3.3" d="M361.51,-368.06C341.16,-362.35 304.07,-351.93 283.85,-346.24"/>
</g>
<!-- nature&#45;&#45;foncier -->
<g id="edge125" class="edge">
<title>nature&#45;&#45;foncier</title>
<path fill="none" stroke="darkgrey" stroke-width="1.56" d="M367.9,-384.55C354.38,-405.86 327.31,-448.53 317.25,-464.39"/>
</g>
<!-- nature&#45;&#45;industrie -->
<g id="edge126" class="edge">
<title>nature&#45;&#45;industrie</title>
<path fill="none" stroke="darkgrey" stroke-width="2.62" d="M390.18,-368.61C411.7,-363.41 452.23,-353.61 475.47,-347.99"/>
</g>
<!-- nature&#45;&#45;échange commercial -->
<g id="edge127" class="edge">
<title>nature&#45;&#45;échange commercial</title>
<path fill="none" stroke="darkgrey" stroke-width="1.35" d="M379.48,-357.91C394.54,-299.73 451.33,-80.37 462.06,-38.91"/>
</g>
<!-- société néo&#45;calédonienne&#45;&#45;matériel -->
<g id="edge128" class="edge">
<title>société néo&#45;calédonienne&#45;&#45;matériel</title>
<path fill="none" stroke="darkgrey" stroke-width="1.52" d="M627.09,-392.57C594.44,-387.98 347.54,-353.23 284.43,-344.35"/>
</g>
<!-- société néo&#45;calédonienne&#45;&#45;relation politique -->
<g id="edge129" class="edge">
<title>société néo&#45;calédonienne&#45;&#45;relation politique</title>
<path fill="none" stroke="darkgrey" stroke-width="1" d="M631.03,-389.39C634.34,-355.78 659.3,-102.51 662.61,-69.02"/>
</g>
<!-- exploitation minière&#45;&#45;matériel -->
<g id="edge130" class="edge">
<title>exploitation minière&#45;&#45;matériel</title>
<path fill="none" stroke="darkgrey" stroke-width="2.71" d="M234.2,-193.9C241.57,-224.64 258.98,-297.25 266.37,-328.07"/>
</g>
<!-- exploitation minière&#45;&#45;foncier -->
<g id="edge131" class="edge">
<title>exploitation minière&#45;&#45;foncier</title>
<path fill="none" stroke="darkgrey" stroke-width="1.03" d="M234.8,-193.79C249.55,-245.74 300.78,-426.17 311.42,-463.65"/>
</g>
<!-- exploitation minière&#45;&#45;industrie -->
<g id="edge132" class="edge">
<title>exploitation minière&#45;&#45;industrie</title>
<path fill="none" stroke="darkgrey" stroke-width="3.12" d="M243.11,-187.45C286.14,-214.37 429.92,-304.3 477.55,-334.08"/>
</g>
<!-- exploitation minière&#45;&#45;échange commercial -->
<g id="edge133" class="edge">
<title>exploitation minière&#45;&#45;échange commercial</title>
<path fill="none" stroke="darkgrey" stroke-width="1.87" d="M243.34,-171.83C286.26,-144.64 426.42,-55.83 457.62,-36.06"/>
</g>
<!-- alternative au développement&#45;&#45;industrie -->
<g id="edge134" class="edge">
<title>alternative au développement&#45;&#45;industrie</title>
<path fill="none" stroke="darkgrey" stroke-width="1.27" d="M482.28,-476.93C483.59,-460.65 488.95,-394.21 491.56,-361.76"/>
</g>
<!-- matériel&#45;&#45;foncier -->
<g id="edge135" class="edge">
<title>matériel&#45;&#45;foncier</title>
<path fill="none" stroke="darkgrey" stroke-width="1.65" d="M274.61,-356.5C283.96,-384.01 304.22,-443.62 311.06,-463.72"/>
</g>
<!-- matériel&#45;&#45;industrie -->
<g id="edge136" class="edge">
<title>matériel&#45;&#45;industrie</title>
<path fill="none" stroke="darkgrey" stroke-width="4.04" d="M284.42,-342.38C323.8,-342.64 431.89,-343.35 474.96,-343.64"/>
</g>
<!-- matériel&#45;&#45;échange commercial -->
<g id="edge137" class="edge">
<title>matériel&#45;&#45;échange commercial</title>
<path fill="none" stroke="darkgrey" stroke-width="1.79" d="M277.62,-329.75C310.52,-277.16 436.71,-75.46 460.08,-38.1"/>
</g>
<!-- foncier&#45;&#45;industrie -->
<g id="edge138" class="edge">
<title>foncier&#45;&#45;industrie</title>
<path fill="none" stroke="darkgrey" stroke-width="2.02" d="M319.34,-466.29C344.3,-448.67 440.66,-380.7 478.05,-354.31"/>
</g>
<!-- relation politique&#45;&#45;échange commercial -->
<g id="edge139" class="edge">
<title>relation politique&#45;&#45;échange commercial</title>
<path fill="none" stroke="darkgrey" stroke-width="1.22" d="M659.51,-64.79C636.37,-60.93 503.9,-38.82 471.14,-33.35"/>
</g>
<!-- industrie&#45;&#45;échange commercial -->
<g id="edge141" class="edge">
<title>industrie&#45;&#45;échange commercial</title>
<path fill="none" stroke="darkgrey" stroke-width="1.89" d="M491.32,-325.65C485.74,-266.16 468.14,-78.23 464.48,-39.25"/>
</g>
<!-- industrie&#45;&#45;risque -->
<g id="edge140" class="edge">
<title>industrie&#45;&#45;risque</title>
<path fill="none" stroke="darkgrey" stroke-width="1.03" d="M510.02,-336.51C573.26,-309.59 792.7,-216.18 823.24,-203.17"/>
</g>
<!-- pollution -->
<g id="node1" class="node">
<title>pollution</title>
<ellipse fill="#ab2f5e" stroke="white" stroke-width="0" cx="374.67" cy="-283.48" rx="18" ry="18"/>
<text text-anchor="middle" x="338.17" y="-304.08" font-family="Helvetica,sans-Serif" font-size="8.00" fill="#4d4d4d">pollution</text>
</g>
<!-- dégradation environnementale -->
<g id="node2" class="node">
<title>dégradation environnementale</title>
<ellipse fill="#f1ef75" stroke="white" stroke-width="0" cx="570.08" cy="-201.44" rx="36" ry="36"/>
<text text-anchor="middle" x="597.58" y="-159.04" font-family="Helvetica,sans-Serif" font-size="8.00" fill="#4d4d4d">dégradation environnementale</text>
</g>
<!-- nouvelle&#45;calédonie -->
<g id="node3" class="node">
<title>nouvelle&#45;calédonie</title>
<ellipse fill="#1c0c43" stroke="white" stroke-width="0" cx="352.71" cy="-3.5" rx="3.5" ry="3.5"/>
<text text-anchor="middle" x="309.71" y="-9.6" font-family="Helvetica,sans-Serif" font-size="8.00" fill="#4d4d4d">nouvelle&#45;calédonie</text>
</g>
<!-- travail -->
<g id="node4" class="node">
<title>travail</title>
<ellipse fill="#e65d2f" stroke="white" stroke-width="0" cx="489.03" cy="-161.65" rx="21.5" ry="21.5"/>
<text text-anchor="middle" x="454.53" y="-185.75" font-family="Helvetica,sans-Serif" font-size="8.00" fill="#4d4d4d">travail</text>
</g>
<!-- économie -->
<g id="node5" class="node">
<title>économie</title>
<ellipse fill="#b3325a" stroke="white" stroke-width="0" cx="467.4" cy="-250.1" rx="18" ry="18"/>
<text text-anchor="middle" x="428.9" y="-270.7" font-family="Helvetica,sans-Serif" font-size="8.00" fill="#4d4d4d">économie</text>
</g>
<!-- nickel -->
<g id="node6" class="node">
<title>nickel</title>
<ellipse fill="#fcffa4" stroke="white" stroke-width="0" cx="567.86" cy="-274.16" rx="36" ry="36"/>
<text text-anchor="middle" x="519.86" y="-312.76" font-family="Helvetica,sans-Serif" font-size="8.00" fill="#4d4d4d">nickel</text>
</g>
<!-- ressource minière -->
<g id="node7" class="node">
<title>ressource minière</title>
<ellipse fill="#64156e" stroke="white" stroke-width="0" cx="298.54" cy="-107.31" rx="11" ry="11"/>
<text text-anchor="middle" x="251.04" y="-120.91" font-family="Helvetica,sans-Serif" font-size="8.00" fill="#4d4d4d">ressource minière</text>
</g>
<!-- politique -->
<g id="node8" class="node">
<title>politique</title>
<ellipse fill="#9b2964" stroke="white" stroke-width="0" cx="407.94" cy="-158.27" rx="14.5" ry="14.5"/>
<text text-anchor="middle" x="374.94" y="-175.37" font-family="Helvetica,sans-Serif" font-size="8.00" fill="#4d4d4d">politique</text>
</g>
<!-- secteur nickel -->
<g id="node9" class="node">
<title>secteur nickel</title>
<ellipse fill="#b43359" stroke="white" stroke-width="0" cx="330.53" cy="-222.62" rx="18" ry="18"/>
<text text-anchor="middle" x="284.03" y="-243.22" font-family="Helvetica,sans-Serif" font-size="8.00" fill="#4d4d4d">secteur nickel</text>
</g>
<!-- nature -->
<g id="node10" class="node">
<title>nature</title>
<ellipse fill="#85216b" stroke="white" stroke-width="0" cx="375.81" cy="-372.08" rx="14.5" ry="14.5"/>
<text text-anchor="middle" x="347.81" y="-389.18" font-family="Helvetica,sans-Serif" font-size="8.00" fill="#4d4d4d">nature</text>
</g>
<!-- amélioration environnementale -->
<g id="node11" class="node">
<title>amélioration environnementale</title>
<ellipse fill="#030210" stroke="white" stroke-width="0" cx="129.5" cy="-234.08" rx="0.5" ry="0.5"/>
<text text-anchor="middle" x="64.5" y="-237.18" font-family="Helvetica,sans-Serif" font-size="8.00" fill="#4d4d4d">amélioration environnementale</text>
</g>
<!-- société néo&#45;calédonienne -->
<g id="node12" class="node">
<title>société néo&#45;calédonienne</title>
<ellipse fill="#180c3c" stroke="white" stroke-width="0" cx="630.66" cy="-393.07" rx="3.5" ry="3.5"/>
<text text-anchor="middle" x="573.16" y="-399.17" font-family="Helvetica,sans-Serif" font-size="8.00" fill="#4d4d4d">société néo&#45;calédonienne</text>
</g>
<!-- exploitation minière -->
<g id="node13" class="node">
<title>exploitation minière</title>
<ellipse fill="#7a1d6d" stroke="white" stroke-width="0" cx="230.82" cy="-179.77" rx="14.5" ry="14.5"/>
<text text-anchor="middle" x="175.82" y="-196.87" font-family="Helvetica,sans-Serif" font-size="8.00" fill="#4d4d4d">exploitation minière</text>
</g>
<!-- alternative au développement -->
<g id="node14" class="node">
<title>alternative au développement</title>
<ellipse fill="#120a32" stroke="white" stroke-width="0" cx="481.98" cy="-480.59" rx="3.5" ry="3.5"/>
<text text-anchor="middle" x="416.48" y="-486.69" font-family="Helvetica,sans-Serif" font-size="8.00" fill="#4d4d4d">alternative au développement</text>
</g>
<!-- matériel -->
<g id="node15" class="node">
<title>matériel</title>
<ellipse fill="#932667" stroke="white" stroke-width="0" cx="269.77" cy="-342.29" rx="14.5" ry="14.5"/>
<text text-anchor="middle" x="238.27" y="-359.39" font-family="Helvetica,sans-Serif" font-size="8.00" fill="#4d4d4d">matériel</text>
</g>
<!-- foncier -->
<g id="node16" class="node">
<title>foncier</title>
<ellipse fill="#240c4f" stroke="white" stroke-width="0" cx="313.36" cy="-470.5" rx="7" ry="7"/>
<text text-anchor="middle" x="291.86" y="-480.1" font-family="Helvetica,sans-Serif" font-size="8.00" fill="#4d4d4d">foncier</text>
</g>
<!-- relation politique -->
<g id="node17" class="node">
<title>relation politique</title>
<ellipse fill="#0b0724" stroke="white" stroke-width="0" cx="662.97" cy="-65.37" rx="3.5" ry="3.5"/>
<text text-anchor="middle" x="624.47" y="-71.47" font-family="Helvetica,sans-Serif" font-size="8.00" fill="#4d4d4d">relation politique</text>
</g>
<!-- industrie -->
<g id="node18" class="node">
<title>industrie</title>
<ellipse fill="#b3325a" stroke="white" stroke-width="0" cx="493.01" cy="-343.75" rx="18" ry="18"/>
<text text-anchor="middle" x="456.51" y="-364.35" font-family="Helvetica,sans-Serif" font-size="8.00" fill="#4d4d4d">industrie</text>
</g>
<!-- échange commercial -->
<g id="node19" class="node">
<title>échange commercial</title>
<ellipse fill="#380962" stroke="white" stroke-width="0" cx="463.82" cy="-32.13" rx="7" ry="7"/>
<text text-anchor="middle" x="413.82" y="-41.73" font-family="Helvetica,sans-Serif" font-size="8.00" fill="#4d4d4d">échange commercial</text>
</g>
<!-- risque -->
<g id="node20" class="node">
<title>risque</title>
<ellipse fill="#050417" stroke="white" stroke-width="0" cx="826.78" cy="-201.67" rx="3.5" ry="3.5"/>
<text text-anchor="middle" x="810.28" y="-207.77" font-family="Helvetica,sans-Serif" font-size="8.00" fill="#4d4d4d">risque</text>
</g>
<!-- avenir sans nickel -->
<g id="node21" class="node">
<title>avenir sans nickel</title>
<ellipse fill="#000004" stroke="white" stroke-width="0" cx="1035.46" cy="-270.04" rx="0.5" ry="0.5"/>
<text text-anchor="middle" x="998.46" y="-273.14" font-family="Helvetica,sans-Serif" font-size="8.00" fill="#4d4d4d">avenir sans nickel</text>
</g>
</g>
</svg>
