<?xml version="1.0" encoding="UTF-8" standalone="no"?>
<!DOCTYPE svg PUBLIC "-//W3C//DTD SVG 1.1//EN"
 "http://www.w3.org/Graphics/SVG/1.1/DTD/svg11.dtd">
<!-- Generated by graphviz version 2.43.0 (0)
 -->
<!-- Pages: 1 -->
<svg width="827pt" height="589pt"
 viewBox="0.00 0.00 827.28 588.94" xmlns="http://www.w3.org/2000/svg" xmlns:xlink="http://www.w3.org/1999/xlink">
<g id="graph0" class="graph" transform="scale(1 1) rotate(0) translate(4 584.94)">
<polygon fill="white" stroke="transparent" points="-4,4 -4,-584.94 823.28,-584.94 823.28,4 -4,4"/>
<!-- pollution&#45;&#45;emploi -->
<g id="edge1" class="edge">
<title>pollution&#45;&#45;emploi</title>
<path fill="none" stroke="darkgrey" stroke-width="10" d="M527.35,-341.58C528.33,-341.86 529.32,-342.15 530.3,-342.44"/>
</g>
<!-- pollution&#45;&#45;richesse -->
<g id="edge2" class="edge">
<title>pollution&#45;&#45;richesse</title>
<path fill="none" stroke="darkgrey" stroke-width="1.9" d="M491.78,-361.73C488.27,-374.55 484.33,-388.96 481.71,-398.55"/>
</g>
<!-- pollution&#45;&#45;démolition -->
<g id="edge3" class="edge">
<title>pollution&#45;&#45;démolition</title>
<path fill="none" stroke="darkgrey" stroke-width="3.37" d="M501.29,-362.75C504.54,-416.53 511.3,-528.14 513.08,-557.65"/>
</g>
<!-- pollution&#45;&#45;argent -->
<g id="edge4" class="edge">
<title>pollution&#45;&#45;argent</title>
<path fill="none" stroke="darkgrey" stroke-width="1.98" d="M517.9,-310.57C536.39,-287.59 563.62,-253.72 574.29,-240.46"/>
</g>
<!-- pollution&#45;&#45;nickel -->
<g id="edge5" class="edge">
<title>pollution&#45;&#45;nickel</title>
<path fill="none" stroke="darkgrey" stroke-width="4.69" d="M470.71,-329.48C443.13,-325.69 401.6,-319.98 372.88,-316.04"/>
</g>
<!-- pollution&#45;&#45;exploitation -->
<g id="edge6" class="edge">
<title>pollution&#45;&#45;exploitation</title>
<path fill="none" stroke="darkgrey" stroke-width="1.9" d="M480.42,-355.37C455.13,-384.43 411.44,-434.62 392.06,-456.89"/>
</g>
<!-- pollution&#45;&#45;montagne -->
<g id="edge7" class="edge">
<title>pollution&#45;&#45;montagne</title>
<path fill="none" stroke="darkgrey" stroke-width="1.36" d="M484.98,-308.17C458.66,-262.39 404.47,-168.16 390.15,-143.25"/>
</g>
<!-- pollution&#45;&#45;camion -->
<g id="edge8" class="edge">
<title>pollution&#45;&#45;camion</title>
<path fill="none" stroke="darkgrey" stroke-width="2.09" d="M477.33,-314.06C438.31,-279.98 359.03,-210.75 332.93,-187.96"/>
</g>
<!-- pollution&#45;&#45;économie -->
<g id="edge9" class="edge">
<title>pollution&#45;&#45;économie</title>
<path fill="none" stroke="darkgrey" stroke-width="4.65" d="M511.22,-360.28C522.35,-385.8 538.75,-423.38 548.11,-444.84"/>
</g>
<!-- pollution&#45;&#45;impact environnemental -->
<g id="edge10" class="edge">
<title>pollution&#45;&#45;impact environnemental</title>
<path fill="none" stroke="darkgrey" stroke-width="4.5" d="M492.91,-361.7C486.96,-387.19 478.35,-424.09 472.97,-447.11"/>
</g>
<!-- pollution&#45;&#45;terre -->
<g id="edge11" class="edge">
<title>pollution&#45;&#45;terre</title>
<path fill="none" stroke="darkgrey" stroke-width="1.44" d="M478.45,-312.87C466,-300.72 451.22,-286.28 443.54,-278.78"/>
</g>
<!-- pollution&#45;&#45;usine -->
<g id="edge12" class="edge">
<title>pollution&#45;&#45;usine</title>
<path fill="none" stroke="darkgrey" d="M471.18,-325.96C414.66,-311.05 290.69,-278.35 259.67,-270.17"/>
</g>
<!-- pollution&#45;&#45;ressource -->
<g id="edge13" class="edge">
<title>pollution&#45;&#45;ressource</title>
<path fill="none" stroke="darkgrey" stroke-width="1.03" d="M474.09,-347.91C447.48,-363.07 407.5,-385.84 392.35,-394.46"/>
</g>
<!-- pollution&#45;&#45;conflit -->
<g id="edge14" class="edge">
<title>pollution&#45;&#45;conflit</title>
<path fill="none" stroke="darkgrey" stroke-width="1.29" d="M528.88,-334.76C582.73,-337.2 694.51,-342.27 724.06,-343.61"/>
</g>
<!-- pollution&#45;&#45;développement -->
<g id="edge15" class="edge">
<title>pollution&#45;&#45;développement</title>
<path fill="none" stroke="darkgrey" stroke-width="1.88" d="M526.76,-343.79C592.77,-368.9 757.71,-431.62 783.08,-441.26"/>
</g>
<!-- pollution&#45;&#45;déforestation -->
<g id="edge16" class="edge">
<title>pollution&#45;&#45;déforestation</title>
<path fill="none" stroke="darkgrey" stroke-width="2.26" d="M504.21,-304.62C511.34,-260.86 524.38,-180.82 527.34,-162.66"/>
</g>
<!-- emploi&#45;&#45;richesse -->
<g id="edge17" class="edge">
<title>emploi&#45;&#45;richesse</title>
<path fill="none" stroke="darkgrey" stroke-width="3.56" d="M534.94,-372.5C518.58,-383.24 499.49,-395.79 488.3,-403.14"/>
</g>
<!-- emploi&#45;&#45;démolition -->
<g id="edge18" class="edge">
<title>emploi&#45;&#45;démolition</title>
<path fill="none" stroke="darkgrey" stroke-width="1.21" d="M556.63,-387.7C544.09,-439.28 521.46,-532.32 515.18,-558.13"/>
</g>
<!-- emploi&#45;&#45;argent -->
<g id="edge19" class="edge">
<title>emploi&#45;&#45;argent</title>
<path fill="none" stroke="darkgrey" stroke-width="3.15" d="M569.33,-316.66C572.4,-290.13 576.32,-256.27 577.99,-241.85"/>
</g>
<!-- emploi&#45;&#45;nickel -->
<g id="edge20" class="edge">
<title>emploi&#45;&#45;nickel</title>
<path fill="none" stroke="darkgrey" stroke-width="5.84" d="M529.56,-346.13C486.37,-338.24 414.19,-325.06 372.62,-317.46"/>
</g>
<!-- emploi&#45;&#45;exploitation -->
<g id="edge21" class="edge">
<title>emploi&#45;&#45;exploitation</title>
<path fill="none" stroke="darkgrey" stroke-width="1.14" d="M534.56,-371.96C493.69,-397.77 423.14,-442.31 394.72,-460.25"/>
</g>
<!-- emploi&#45;&#45;économie -->
<g id="edge22" class="edge">
<title>emploi&#45;&#45;économie</title>
<path fill="none" stroke="darkgrey" stroke-width="7.6" d="M561.93,-388.58C560.28,-406.91 558.34,-428.42 557,-443.3"/>
</g>
<!-- emploi&#45;&#45;impact environnemental -->
<g id="edge23" class="edge">
<title>emploi&#45;&#45;impact environnemental</title>
<path fill="none" stroke="darkgrey" stroke-width="5.36" d="M541.9,-380.34C523.26,-402.52 497.74,-432.91 482.09,-451.54"/>
</g>
<!-- emploi&#45;&#45;terre -->
<g id="edge24" class="edge">
<title>emploi&#45;&#45;terre</title>
<path fill="none" stroke="darkgrey" stroke-width="1.23" d="M534.46,-333.53C504.25,-314.72 460.4,-287.43 444.43,-277.49"/>
</g>
<!-- emploi&#45;&#45;ressource -->
<g id="edge25" class="edge">
<title>emploi&#45;&#45;ressource</title>
<path fill="none" stroke="darkgrey" stroke-width="1.4" d="M530.24,-361.48C486.71,-372.5 415.33,-390.57 393.08,-396.21"/>
</g>
<!-- emploi&#45;&#45;conflit -->
<g id="edge27" class="edge">
<title>emploi&#45;&#45;conflit</title>
<path fill="none" stroke="darkgrey" stroke-width="2.36" d="M601.22,-350.75C641.32,-348.65 703.21,-345.41 724.15,-344.31"/>
</g>
<!-- emploi&#45;&#45;déforestation -->
<g id="edge28" class="edge">
<title>emploi&#45;&#45;déforestation</title>
<path fill="none" stroke="darkgrey" stroke-width="1.26" d="M558.34,-317.11C548.77,-267.31 532.14,-180.75 528.62,-162.41"/>
</g>
<!-- emploi&#45;&#45;main d’oeuvre -->
<g id="edge26" class="edge">
<title>emploi&#45;&#45;main d’oeuvre</title>
<path fill="none" stroke="darkgrey" stroke-width="1.03" d="M595.89,-333.82C657.06,-296.37 790.13,-214.91 812.55,-201.18"/>
</g>
<!-- richesse&#45;&#45;nickel -->
<g id="edge29" class="edge">
<title>richesse&#45;&#45;nickel</title>
<path fill="none" stroke="darkgrey" stroke-width="2" d="M469.67,-403C449.18,-388.5 398.67,-352.77 367.21,-330.51"/>
</g>
<!-- richesse&#45;&#45;exploitation -->
<g id="edge30" class="edge">
<title>richesse&#45;&#45;exploitation</title>
<path fill="none" stroke="darkgrey" stroke-width="1.08" d="M469.15,-415.26C451.62,-425.92 414.43,-448.55 394.9,-460.43"/>
</g>
<!-- richesse&#45;&#45;économie -->
<g id="edge31" class="edge">
<title>richesse&#45;&#45;économie</title>
<path fill="none" stroke="darkgrey" stroke-width="1.61" d="M488.14,-415.8C501.17,-424.66 524.86,-440.76 540.35,-451.29"/>
</g>
<!-- richesse&#45;&#45;impact environnemental -->
<g id="edge32" class="edge">
<title>richesse&#45;&#45;impact environnemental</title>
<path fill="none" stroke="darkgrey" stroke-width="1.35" d="M476.73,-420.49C475.37,-427.95 473.54,-438.03 471.9,-447.01"/>
</g>
<!-- richesse&#45;&#45;terre -->
<g id="edge33" class="edge">
<title>richesse&#45;&#45;terre</title>
<path fill="none" stroke="darkgrey" stroke-width="1.22" d="M475.57,-398.77C467.6,-372.02 446.92,-302.58 440.35,-280.52"/>
</g>
<!-- démolition&#45;&#45;impact environnemental -->
<g id="edge34" class="edge">
<title>démolition&#45;&#45;impact environnemental</title>
<path fill="none" stroke="darkgrey" stroke-width="1.19" d="M510.54,-558.6C503.9,-544.48 487.67,-510 477.29,-487.95"/>
</g>
<!-- argent&#45;&#45;nickel -->
<g id="edge35" class="edge">
<title>argent&#45;&#45;nickel</title>
<path fill="none" stroke="darkgrey" stroke-width="2.63" d="M571.93,-237.06C542.69,-246.47 427.67,-283.5 371.57,-301.57"/>
</g>
<!-- nickel&#45;&#45;exploitation -->
<g id="edge36" class="edge">
<title>nickel&#45;&#45;exploitation</title>
<path fill="none" stroke="darkgrey" stroke-width="2.53" d="M348.93,-343.26C357.96,-377.02 371.85,-428.97 378.51,-453.85"/>
</g>
<!-- nickel&#45;&#45;montagne -->
<g id="edge37" class="edge">
<title>nickel&#45;&#45;montagne</title>
<path fill="none" stroke="darkgrey" stroke-width="1.86" d="M348.81,-279.99C359.93,-237.96 378.87,-166.35 384.79,-143.98"/>
</g>
<!-- nickel&#45;&#45;camion -->
<g id="edge38" class="edge">
<title>nickel&#45;&#45;camion</title>
<path fill="none" stroke="darkgrey" stroke-width="2.92" d="M336.48,-279.18C332.99,-250.67 328.1,-210.81 325.75,-191.65"/>
</g>
<!-- nickel&#45;&#45;économie -->
<g id="edge39" class="edge">
<title>nickel&#45;&#45;économie</title>
<path fill="none" stroke="darkgrey" stroke-width="3.08" d="M367.24,-330.27C412.92,-362.13 504.45,-425.97 540.39,-451.04"/>
</g>
<!-- nickel&#45;&#45;impact environnemental -->
<g id="edge40" class="edge">
<title>nickel&#45;&#45;impact environnemental</title>
<path fill="none" stroke="darkgrey" stroke-width="1.93" d="M361.24,-337.11C387.5,-369.37 431.98,-423.99 454.34,-451.45"/>
</g>
<!-- nickel&#45;&#45;terre -->
<g id="edge43" class="edge">
<title>nickel&#45;&#45;terre</title>
<path fill="none" stroke="darkgrey" stroke-width="1.1" d="M370.88,-299.8C392.2,-291.54 419.02,-281.16 431.43,-276.35"/>
</g>
<!-- nickel&#45;&#45;usine -->
<g id="edge44" class="edge">
<title>nickel&#45;&#45;usine</title>
<path fill="none" stroke="darkgrey" stroke-width="2.95" d="M311.17,-297.17C292.59,-288.02 270.05,-276.92 259.11,-271.53"/>
</g>
<!-- nickel&#45;&#45;ressource -->
<g id="edge46" class="edge">
<title>nickel&#45;&#45;ressource</title>
<path fill="none" stroke="darkgrey" stroke-width="1.26" d="M355.7,-340.34C365.38,-358.59 377.12,-380.73 382.81,-391.47"/>
</g>
<!-- nickel&#45;&#45;déforestation -->
<g id="edge49" class="edge">
<title>nickel&#45;&#45;déforestation</title>
<path fill="none" stroke="darkgrey" stroke-width="1.1" d="M365.74,-291C412.12,-253.24 507.66,-175.45 525.17,-161.2"/>
</g>
<!-- nickel&#45;&#45;roche -->
<g id="edge41" class="edge">
<title>nickel&#45;&#45;roche</title>
<path fill="none" stroke="darkgrey" stroke-width="1.67" d="M329.76,-280.51C310.22,-223.68 269.8,-106.18 259.7,-76.83"/>
</g>
<!-- nickel&#45;&#45;terre rouge -->
<g id="edge42" class="edge">
<title>nickel&#45;&#45;terre rouge</title>
<path fill="none" stroke="darkgrey" stroke-width="1.93" d="M309.48,-300.99C245.47,-279.09 102.55,-230.2 78.45,-221.96"/>
</g>
<!-- nickel&#45;&#45;sln -->
<g id="edge45" class="edge">
<title>nickel&#45;&#45;sln</title>
<path fill="none" stroke="darkgrey" stroke-width="3.76" d="M312.79,-329.49C256.13,-366.15 129.84,-447.87 101.01,-466.52"/>
</g>
<!-- nickel&#45;&#45;usine du sud -->
<g id="edge47" class="edge">
<title>nickel&#45;&#45;usine du sud</title>
<path fill="none" stroke="darkgrey" stroke-width="1.25" d="M308.71,-318.93C240.69,-334.67 85.02,-370.68 59.94,-376.48"/>
</g>
<!-- nickel&#45;&#45;minerai -->
<g id="edge48" class="edge">
<title>nickel&#45;&#45;minerai</title>
<path fill="none" stroke="darkgrey" stroke-width="2.48" d="M315.57,-332.85C294.71,-350.68 266.53,-374.77 254.83,-384.77"/>
</g>
<!-- exploitation&#45;&#45;impact environnemental -->
<g id="edge50" class="edge">
<title>exploitation&#45;&#45;impact environnemental</title>
<path fill="none" stroke="darkgrey" stroke-width="1.8" d="M396.86,-468.12C410.42,-468.15 430.84,-468.19 446.33,-468.23"/>
</g>
<!-- exploitation&#45;&#45;ressource -->
<g id="edge51" class="edge">
<title>exploitation&#45;&#45;ressource</title>
<path fill="none" stroke="darkgrey" stroke-width="1.93" d="M383.13,-453.55C383.96,-438.78 385.2,-416.52 385.84,-405.16"/>
</g>
<!-- exploitation&#45;&#45;minerai -->
<g id="edge52" class="edge">
<title>exploitation&#45;&#45;minerai</title>
<path fill="none" stroke="darkgrey" stroke-width="2.35" d="M369.57,-460.54C341.63,-444 275.85,-405.08 255.49,-393.03"/>
</g>
<!-- montagne&#45;&#45;camion -->
<g id="edge53" class="edge">
<title>montagne&#45;&#45;camion</title>
<path fill="none" stroke="darkgrey" stroke-width="1.06" d="M380.87,-141.11C370.04,-148.66 346.51,-165.06 333.5,-174.14"/>
</g>
<!-- montagne&#45;&#45;terre -->
<g id="edge55" class="edge">
<title>montagne&#45;&#45;terre</title>
<path fill="none" stroke="darkgrey" stroke-width="1.15" d="M389.1,-143.69C397.82,-166.71 426.86,-243.43 435.72,-266.84"/>
</g>
<!-- montagne&#45;&#45;roche -->
<g id="edge54" class="edge">
<title>montagne&#45;&#45;roche</title>
<path fill="none" stroke="darkgrey" stroke-width="1.37" d="M380.38,-133.87C358.6,-122.57 286,-84.92 263.85,-73.43"/>
</g>
<!-- camion&#45;&#45;terre -->
<g id="edge57" class="edge">
<title>camion&#45;&#45;terre</title>
<path fill="none" stroke="darkgrey" stroke-width="1.02" d="M332.95,-187.5C355.2,-205.7 414.39,-254.12 432.79,-269.16"/>
</g>
<!-- camion&#45;&#45;usine -->
<g id="edge58" class="edge">
<title>camion&#45;&#45;usine</title>
<path fill="none" stroke="darkgrey" stroke-width="1.2" d="M317.23,-189.23C302.6,-207.1 269.62,-247.4 257.29,-262.46"/>
</g>
<!-- camion&#45;&#45;roche -->
<g id="edge56" class="edge">
<title>camion&#45;&#45;roche</title>
<path fill="none" stroke="darkgrey" stroke-width="1.31" d="M318.67,-171.08C305.31,-149.07 272.33,-94.72 261.15,-76.3"/>
</g>
<!-- économie&#45;&#45;impact environnemental -->
<g id="edge59" class="edge">
<title>économie&#45;&#45;impact environnemental</title>
<path fill="none" stroke="darkgrey" stroke-width="6.09" d="M537.27,-462.9C523.38,-463.97 504.16,-465.47 489.5,-466.61"/>
</g>
<!-- impact environnemental&#45;&#45;terre -->
<g id="edge60" class="edge">
<title>impact environnemental&#45;&#45;terre</title>
<path fill="none" stroke="darkgrey" stroke-width="1.07" d="M464.74,-446.71C458.12,-403.37 443.49,-307.56 439.4,-280.77"/>
</g>
<!-- usine&#45;&#45;minerai -->
<g id="edge61" class="edge">
<title>usine&#45;&#45;minerai</title>
<path fill="none" stroke="darkgrey" stroke-width="1.99" d="M252.33,-275.5C251.77,-297.1 250.12,-361.05 249.57,-382.39"/>
</g>
<!-- ressource&#45;&#45;minerai -->
<g id="edge64" class="edge">
<title>ressource&#45;&#45;minerai</title>
<path fill="none" stroke="darkgrey" stroke-width="1.72" d="M378.88,-397.48C355.01,-396 279.9,-391.32 256.45,-389.86"/>
</g>
<!-- sln&#45;&#45;usine du sud -->
<g id="edge63" class="edge">
<title>sln&#45;&#45;usine du sud</title>
<path fill="none" stroke="darkgrey" stroke-width="1.19" d="M92.3,-463.67C84.7,-445.32 63.72,-394.71 57.97,-380.84"/>
</g>
<!-- érosion&#45;&#45;déforestation -->
<g id="edge62" class="edge">
<title>érosion&#45;&#45;déforestation</title>
<path fill="none" stroke="darkgrey" stroke-width="1.09" d="M571.56,-1.21C568.7,-11.56 535.21,-132.69 528.95,-155.31"/>
</g>
<!-- pollution -->
<g id="node1" class="node">
<title>pollution</title>
<ellipse fill="#fca309" stroke="white" stroke-width="0" cx="499.51" cy="-333.43" rx="29" ry="29"/>
<text text-anchor="middle" x="452.01" y="-365.03" font-family="Helvetica,sans-Serif" font-size="8.00" fill="#4d4d4d">pollution</text>
</g>
<!-- emploi -->
<g id="node2" class="node">
<title>emploi</title>
<ellipse fill="#fcffa4" stroke="white" stroke-width="0" cx="565.16" cy="-352.64" rx="36" ry="36"/>
<text text-anchor="middle" x="515.16" y="-391.24" font-family="Helvetica,sans-Serif" font-size="8.00" fill="#4d4d4d">emploi</text>
</g>
<!-- richesse -->
<g id="node3" class="node">
<title>richesse</title>
<ellipse fill="#67166e" stroke="white" stroke-width="0" cx="478.74" cy="-409.42" rx="11" ry="11"/>
<text text-anchor="middle" x="450.24" y="-423.02" font-family="Helvetica,sans-Serif" font-size="8.00" fill="#4d4d4d">richesse</text>
</g>
<!-- démolition -->
<g id="node4" class="node">
<title>démolition</title>
<ellipse fill="#360961" stroke="white" stroke-width="0" cx="513.52" cy="-564.94" rx="7" ry="7"/>
<text text-anchor="middle" x="484.52" y="-574.54" font-family="Helvetica,sans-Serif" font-size="8.00" fill="#4d4d4d">démolition</text>
</g>
<!-- argent -->
<g id="node5" class="node">
<title>argent</title>
<ellipse fill="#4c0c6b" stroke="white" stroke-width="0" cx="578.8" cy="-234.84" rx="7" ry="7"/>
<text text-anchor="middle" x="557.8" y="-244.44" font-family="Helvetica,sans-Serif" font-size="8.00" fill="#4d4d4d">argent</text>
</g>
<!-- nickel -->
<g id="node6" class="node">
<title>nickel</title>
<ellipse fill="#f6d543" stroke="white" stroke-width="0" cx="340.46" cy="-311.59" rx="32.5" ry="32.5"/>
<text text-anchor="middle" x="295.96" y="-346.69" font-family="Helvetica,sans-Serif" font-size="8.00" fill="#4d4d4d">nickel</text>
</g>
<!-- exploitation -->
<g id="node7" class="node">
<title>exploitation</title>
<ellipse fill="#8f2469" stroke="white" stroke-width="0" cx="382.32" cy="-468.08" rx="14.5" ry="14.5"/>
<text text-anchor="middle" x="343.32" y="-485.18" font-family="Helvetica,sans-Serif" font-size="8.00" fill="#4d4d4d">exploitation</text>
</g>
<!-- montagne -->
<g id="node8" class="node">
<title>montagne</title>
<ellipse fill="#380962" stroke="white" stroke-width="0" cx="386.61" cy="-137.1" rx="7" ry="7"/>
<text text-anchor="middle" x="358.11" y="-146.7" font-family="Helvetica,sans-Serif" font-size="8.00" fill="#4d4d4d">montagne</text>
</g>
<!-- camion -->
<g id="node9" class="node">
<title>camion</title>
<ellipse fill="#62146e" stroke="white" stroke-width="0" cx="324.38" cy="-180.5" rx="11" ry="11"/>
<text text-anchor="middle" x="297.88" y="-194.1" font-family="Helvetica,sans-Serif" font-size="8.00" fill="#4d4d4d">camion</text>
</g>
<!-- économie -->
<g id="node10" class="node">
<title>économie</title>
<ellipse fill="#c03a51" stroke="white" stroke-width="0" cx="555.37" cy="-461.49" rx="18" ry="18"/>
<text text-anchor="middle" x="516.87" y="-482.09" font-family="Helvetica,sans-Serif" font-size="8.00" fill="#4d4d4d">économie</text>
</g>
<!-- impact environnemental -->
<g id="node11" class="node">
<title>impact environnemental</title>
<ellipse fill="#cf4446" stroke="white" stroke-width="0" cx="468.03" cy="-468.28" rx="21.5" ry="21.5"/>
<text text-anchor="middle" x="396.53" y="-440.38" font-family="Helvetica,sans-Serif" font-size="8.00" fill="#4d4d4d">impact environnemental</text>
</g>
<!-- terre -->
<g id="node12" class="node">
<title>terre</title>
<ellipse fill="#360961" stroke="white" stroke-width="0" cx="438.32" cy="-273.69" rx="7" ry="7"/>
<text text-anchor="middle" x="421.82" y="-283.29" font-family="Helvetica,sans-Serif" font-size="8.00" fill="#4d4d4d">terre</text>
</g>
<!-- usine -->
<g id="node13" class="node">
<title>usine</title>
<ellipse fill="#4c0c6b" stroke="white" stroke-width="0" cx="252.52" cy="-268.29" rx="7" ry="7"/>
<text text-anchor="middle" x="234.02" y="-277.89" font-family="Helvetica,sans-Serif" font-size="8.00" fill="#4d4d4d">usine</text>
</g>
<!-- ressource -->
<g id="node14" class="node">
<title>ressource</title>
<ellipse fill="#400a67" stroke="white" stroke-width="0" cx="386.24" cy="-397.94" rx="7" ry="7"/>
<text text-anchor="middle" x="359.24" y="-407.54" font-family="Helvetica,sans-Serif" font-size="8.00" fill="#4d4d4d">ressource</text>
</g>
<!-- conflit -->
<g id="node15" class="node">
<title>conflit</title>
<ellipse fill="#310a5c" stroke="white" stroke-width="0" cx="731.36" cy="-343.94" rx="7" ry="7"/>
<text text-anchor="middle" x="711.36" y="-353.54" font-family="Helvetica,sans-Serif" font-size="8.00" fill="#4d4d4d">conflit</text>
</g>
<!-- développement -->
<g id="node16" class="node">
<title>développement</title>
<ellipse fill="#060419" stroke="white" stroke-width="0" cx="786.38" cy="-442.52" rx="3.5" ry="3.5"/>
<text text-anchor="middle" x="750.38" y="-448.62" font-family="Helvetica,sans-Serif" font-size="8.00" fill="#4d4d4d">développement</text>
</g>
<!-- déforestation -->
<g id="node17" class="node">
<title>déforestation</title>
<ellipse fill="#160b39" stroke="white" stroke-width="0" cx="527.95" cy="-158.93" rx="3.5" ry="3.5"/>
<text text-anchor="middle" x="496.95" y="-165.03" font-family="Helvetica,sans-Serif" font-size="8.00" fill="#4d4d4d">déforestation</text>
</g>
<!-- main d’oeuvre -->
<g id="node18" class="node">
<title>main d’oeuvre</title>
<ellipse fill="#150b37" stroke="white" stroke-width="0" cx="815.78" cy="-199.2" rx="3.5" ry="3.5"/>
<text text-anchor="middle" x="783.28" y="-205.3" font-family="Helvetica,sans-Serif" font-size="8.00" fill="#4d4d4d">main d’oeuvre</text>
</g>
<!-- roche -->
<g id="node19" class="node">
<title>roche</title>
<ellipse fill="#490b6a" stroke="white" stroke-width="0" cx="257.37" cy="-70.07" rx="7" ry="7"/>
<text text-anchor="middle" x="238.87" y="-79.67" font-family="Helvetica,sans-Serif" font-size="8.00" fill="#4d4d4d">roche</text>
</g>
<!-- terre rouge -->
<g id="node20" class="node">
<title>terre rouge</title>
<ellipse fill="#190c3e" stroke="white" stroke-width="0" cx="74.97" cy="-220.77" rx="3.5" ry="3.5"/>
<text text-anchor="middle" x="48.97" y="-226.87" font-family="Helvetica,sans-Serif" font-size="8.00" fill="#4d4d4d">terre rouge</text>
</g>
<!-- sln -->
<g id="node21" class="node">
<title>sln</title>
<ellipse fill="#380962" stroke="white" stroke-width="0" cx="95.08" cy="-470.36" rx="7" ry="7"/>
<text text-anchor="middle" x="81.58" y="-479.96" font-family="Helvetica,sans-Serif" font-size="8.00" fill="#4d4d4d">sln</text>
</g>
<!-- usine du sud -->
<g id="node22" class="node">
<title>usine du sud</title>
<ellipse fill="#050417" stroke="white" stroke-width="0" cx="56.5" cy="-377.28" rx="3.5" ry="3.5"/>
<text text-anchor="middle" x="26.5" y="-383.38" font-family="Helvetica,sans-Serif" font-size="8.00" fill="#4d4d4d">usine du sud</text>
</g>
<!-- minerai -->
<g id="node23" class="node">
<title>minerai</title>
<ellipse fill="#4d0d6c" stroke="white" stroke-width="0" cx="249.38" cy="-389.42" rx="7" ry="7"/>
<text text-anchor="middle" x="226.88" y="-399.02" font-family="Helvetica,sans-Serif" font-size="8.00" fill="#4d4d4d">minerai</text>
</g>
<!-- érosion -->
<g id="node24" class="node">
<title>érosion</title>
<ellipse fill="#000004" stroke="white" stroke-width="0" cx="571.75" cy="-0.5" rx="0.5" ry="0.5"/>
<text text-anchor="middle" x="555.75" y="-3.6" font-family="Helvetica,sans-Serif" font-size="8.00" fill="#4d4d4d">érosion</text>
</g>
</g>
</svg>
