<?xml version="1.0" encoding="UTF-8" standalone="no"?>
<!DOCTYPE svg PUBLIC "-//W3C//DTD SVG 1.1//EN"
 "http://www.w3.org/Graphics/SVG/1.1/DTD/svg11.dtd">
<!-- Generated by graphviz version 2.43.0 (0)
 -->
<!-- Pages: 1 -->
<svg width="810pt" height="708pt"
 viewBox="0.00 0.00 809.68 707.66" xmlns="http://www.w3.org/2000/svg" xmlns:xlink="http://www.w3.org/1999/xlink">
<g id="graph0" class="graph" transform="scale(1 1) rotate(0) translate(4 703.66)">
<polygon fill="white" stroke="transparent" points="-4,4 -4,-703.66 805.68,-703.66 805.68,4 -4,4"/>
<!-- pollution&#45;&#45;travail -->
<g id="edge1" class="edge">
<title>pollution&#45;&#45;travail</title>
<path fill="none" stroke="darkgrey" stroke-width="6.7" d="M336.65,-504.71C313.09,-511.66 281.89,-520.85 264.13,-526.08"/>
</g>
<!-- pollution&#45;&#45;richesse -->
<g id="edge2" class="edge">
<title>pollution&#45;&#45;richesse</title>
<path fill="none" stroke="darkgrey" stroke-width="3.86" d="M351.08,-523.61C333,-553.85 305.25,-600.27 293.42,-620.06"/>
</g>
<!-- pollution&#45;&#45;destruction -->
<g id="edge3" class="edge">
<title>pollution&#45;&#45;destruction</title>
<path fill="none" stroke="darkgrey" stroke-width="4.37" d="M351.17,-467.28C330.1,-431.65 295.23,-372.72 283.87,-353.51"/>
</g>
<!-- pollution&#45;&#45;argent -->
<g id="edge4" class="edge">
<title>pollution&#45;&#45;argent</title>
<path fill="none" stroke="darkgrey" stroke-width="3.48" d="M399.04,-485.25C432.58,-474.2 484.06,-457.23 506.02,-450"/>
</g>
<!-- pollution&#45;&#45;nickel -->
<g id="edge5" class="edge">
<title>pollution&#45;&#45;nickel</title>
<path fill="none" stroke="darkgrey" stroke-width="10" d="M357.49,-464.54C354.67,-456.14 351.61,-447 348.73,-438.42"/>
</g>
<!-- pollution&#45;&#45;nature -->
<g id="edge6" class="edge">
<title>pollution&#45;&#45;nature</title>
<path fill="none" stroke="darkgrey" d="M400.44,-495.64C498.06,-496.01 782.62,-497.1 800.31,-497.16"/>
</g>
<!-- pollution&#45;&#45;montagne -->
<g id="edge7" class="edge">
<title>pollution&#45;&#45;montagne</title>
<path fill="none" stroke="darkgrey" stroke-width="2.53" d="M339.53,-511.94C278.15,-547.51 135.92,-629.93 104.48,-648.15"/>
</g>
<!-- pollution&#45;&#45;camion -->
<g id="edge8" class="edge">
<title>pollution&#45;&#45;camion</title>
<path fill="none" stroke="darkgrey" stroke-width="3.99" d="M336.7,-486.08C307.37,-477.22 265.14,-464.45 245.58,-458.53"/>
</g>
<!-- pollution&#45;&#45;économie -->
<g id="edge9" class="edge">
<title>pollution&#45;&#45;économie</title>
<path fill="none" stroke="darkgrey" stroke-width="8.45" d="M337.81,-508.17C303.79,-522.48 249.32,-545.41 219.98,-557.76"/>
</g>
<!-- pollution&#45;&#45;environnement -->
<g id="edge10" class="edge">
<title>pollution&#45;&#45;environnement</title>
<path fill="none" stroke="darkgrey" stroke-width="5.92" d="M339.21,-479.9C301.8,-459.54 237.63,-424.6 207.88,-408.4"/>
</g>
<!-- pollution&#45;&#45;emploi -->
<g id="edge11" class="edge">
<title>pollution&#45;&#45;emploi</title>
<path fill="none" stroke="darkgrey" stroke-width="8.81" d="M337.03,-506.42C336.02,-506.78 335.03,-507.13 334.05,-507.48"/>
</g>
<!-- pollution&#45;&#45;terre -->
<g id="edge12" class="edge">
<title>pollution&#45;&#45;terre</title>
<path fill="none" stroke="darkgrey" stroke-width="1.94" d="M345.15,-518.81C305.26,-559.71 224.93,-642.09 204.29,-663.25"/>
</g>
<!-- pollution&#45;&#45;usine -->
<g id="edge13" class="edge">
<title>pollution&#45;&#45;usine</title>
<path fill="none" stroke="darkgrey" stroke-width="3.36" d="M335.42,-493.12C276.29,-488.77 153.68,-479.73 116.36,-476.98"/>
</g>
<!-- pollution&#45;&#45;érosion -->
<g id="edge14" class="edge">
<title>pollution&#45;&#45;érosion</title>
<path fill="none" stroke="darkgrey" stroke-width="1.36" d="M397.02,-509.98C485.01,-553.68 743,-681.8 759.04,-689.77"/>
</g>
<!-- pollution&#45;&#45;exploitation -->
<g id="edge15" class="edge">
<title>pollution&#45;&#45;exploitation</title>
<path fill="none" stroke="darkgrey" stroke-width="2.36" d="M336.54,-504.18C277.89,-520.41 154.07,-554.66 116.81,-564.97"/>
</g>
<!-- pollution&#45;&#45;sln -->
<g id="edge16" class="edge">
<title>pollution&#45;&#45;sln</title>
<path fill="none" stroke="darkgrey" stroke-width="1.56" d="M376.61,-526.88C383.64,-552.13 392.99,-585.71 396.99,-600.06"/>
</g>
<!-- pollution&#45;&#45;ressource -->
<g id="edge17" class="edge">
<title>pollution&#45;&#45;ressource</title>
<path fill="none" stroke="darkgrey" stroke-width="2.01" d="M337.44,-483.73C273.49,-459 128.37,-402.85 95.24,-390.03"/>
</g>
<!-- pollution&#45;&#45;conflit -->
<g id="edge18" class="edge">
<title>pollution&#45;&#45;conflit</title>
<path fill="none" stroke="darkgrey" stroke-width="3.27" d="M378.22,-526.51C392.5,-569.33 417.37,-643.88 424.97,-666.66"/>
</g>
<!-- pollution&#45;&#45;développement -->
<g id="edge19" class="edge">
<title>pollution&#45;&#45;développement</title>
<path fill="none" stroke="darkgrey" stroke-width="2.87" d="M346.71,-470.73C289.69,-403.96 135.73,-223.68 114.36,-198.65"/>
</g>
<!-- pollution&#45;&#45;minerai -->
<g id="edge20" class="edge">
<title>pollution&#45;&#45;minerai</title>
<path fill="none" stroke="darkgrey" stroke-width="3.26" d="M335.14,-497.07C263.96,-500.47 97.92,-508.4 53.24,-510.54"/>
</g>
<!-- pollution&#45;&#45;déforestation -->
<g id="edge21" class="edge">
<title>pollution&#45;&#45;déforestation</title>
<path fill="none" stroke="darkgrey" stroke-width="2.07" d="M395.82,-478.41C459.57,-439.4 612.06,-346.1 635.5,-331.76"/>
</g>
<!-- travail&#45;&#45;richesse -->
<g id="edge22" class="edge">
<title>travail&#45;&#45;richesse</title>
<path fill="none" stroke="darkgrey" stroke-width="2.44" d="M255.41,-544C263.04,-564.15 277.04,-601.17 283.84,-619.16"/>
</g>
<!-- travail&#45;&#45;destruction -->
<g id="edge23" class="edge">
<title>travail&#45;&#45;destruction</title>
<path fill="none" stroke="darkgrey" stroke-width="1.49" d="M252.54,-515.83C258.59,-478.94 274.5,-381.8 278.98,-354.49"/>
</g>
<!-- travail&#45;&#45;argent -->
<g id="edge24" class="edge">
<title>travail&#45;&#45;argent</title>
<path fill="none" stroke="darkgrey" stroke-width="1.27" d="M264.13,-525.81C311.23,-511.02 463.77,-463.11 505.74,-449.93"/>
</g>
<!-- travail&#45;&#45;nickel -->
<g id="edge25" class="edge">
<title>travail&#45;&#45;nickel</title>
<path fill="none" stroke="darkgrey" stroke-width="4.32" d="M258.53,-518.09C271.8,-498.85 298.11,-460.7 316.64,-433.83"/>
</g>
<!-- travail&#45;&#45;camion -->
<g id="edge26" class="edge">
<title>travail&#45;&#45;camion</title>
<path fill="none" stroke="darkgrey" stroke-width="1.65" d="M247.24,-515.75C244.29,-501.3 239.81,-479.39 237.14,-466.29"/>
</g>
<!-- travail&#45;&#45;économie -->
<g id="edge27" class="edge">
<title>travail&#45;&#45;économie</title>
<path fill="none" stroke="darkgrey" stroke-width="3.37" d="M238.22,-538.75C232.04,-543.17 224.37,-548.65 217.5,-553.56"/>
</g>
<!-- travail&#45;&#45;environnement -->
<g id="edge28" class="edge">
<title>travail&#45;&#45;environnement</title>
<path fill="none" stroke="darkgrey" stroke-width="3.24" d="M244.17,-516.72C233.4,-492.62 210.88,-442.23 199.22,-416.14"/>
</g>
<!-- travail&#45;&#45;terre -->
<g id="edge29" class="edge">
<title>travail&#45;&#45;terre</title>
<path fill="none" stroke="darkgrey" stroke-width="1.83" d="M245.13,-543.94C234.39,-573.14 209.63,-640.42 201.8,-661.71"/>
</g>
<!-- travail&#45;&#45;exploitation -->
<g id="edge30" class="edge">
<title>travail&#45;&#45;exploitation</title>
<path fill="none" stroke="darkgrey" stroke-width="1.69" d="M236.1,-533.88C207.32,-541.42 142.36,-558.44 116.7,-565.16"/>
</g>
<!-- travail&#45;&#45;conflit -->
<g id="edge31" class="edge">
<title>travail&#45;&#45;conflit</title>
<path fill="none" stroke="darkgrey" stroke-width="1.36" d="M261.53,-539.37C295.73,-567.04 396.95,-648.95 421.72,-669"/>
</g>
<!-- travail&#45;&#45;minerai -->
<g id="edge32" class="edge">
<title>travail&#45;&#45;minerai</title>
<path fill="none" stroke="darkgrey" stroke-width="1.01" d="M235.55,-528.85C196.12,-525.23 88.31,-515.33 53.21,-512.1"/>
</g>
<!-- richesse&#45;&#45;destruction -->
<g id="edge33" class="edge">
<title>richesse&#45;&#45;destruction</title>
<path fill="none" stroke="darkgrey" stroke-width="1.2" d="M287.47,-618.46C286.22,-571.98 281.4,-393.17 280.36,-354.61"/>
</g>
<!-- richesse&#45;&#45;nickel -->
<g id="edge34" class="edge">
<title>richesse&#45;&#45;nickel</title>
<path fill="none" stroke="darkgrey" stroke-width="3.24" d="M290.15,-618.65C297.17,-586.63 317.98,-491.66 329.43,-439.43"/>
</g>
<!-- richesse&#45;&#45;économie -->
<g id="edge35" class="edge">
<title>richesse&#45;&#45;économie</title>
<path fill="none" stroke="darkgrey" stroke-width="2.29" d="M278.67,-623C264.25,-612.65 235.89,-592.29 217.37,-578.99"/>
</g>
<!-- richesse&#45;&#45;environnement -->
<g id="edge36" class="edge">
<title>richesse&#45;&#45;environnement</title>
<path fill="none" stroke="darkgrey" stroke-width="2.77" d="M283.52,-619.36C268.48,-583.3 217.61,-461.37 198.87,-416.47"/>
</g>
<!-- richesse&#45;&#45;emploi -->
<g id="edge37" class="edge">
<title>richesse&#45;&#45;emploi</title>
<path fill="none" stroke="darkgrey" stroke-width="2.06" d="M290.45,-618.83C295.46,-598.86 306.28,-555.77 312.4,-531.36"/>
</g>
<!-- richesse&#45;&#45;terre -->
<g id="edge38" class="edge">
<title>richesse&#45;&#45;terre</title>
<path fill="none" stroke="darkgrey" stroke-width="1.22" d="M277.63,-633.98C259.3,-642.01 221.17,-658.74 205.9,-665.44"/>
</g>
<!-- richesse&#45;&#45;exploitation -->
<g id="edge39" class="edge">
<title>richesse&#45;&#45;exploitation</title>
<path fill="none" stroke="darkgrey" stroke-width="1.23" d="M277.21,-625.95C245.08,-615.07 148.73,-582.45 116.56,-571.55"/>
</g>
<!-- richesse&#45;&#45;conflit -->
<g id="edge40" class="edge">
<title>richesse&#45;&#45;conflit</title>
<path fill="none" stroke="darkgrey" stroke-width="1.1" d="M298.71,-632.98C326.32,-641.68 398.21,-664.32 420.53,-671.35"/>
</g>
<!-- destruction&#45;&#45;nickel -->
<g id="edge41" class="edge">
<title>destruction&#45;&#45;nickel</title>
<path fill="none" stroke="darkgrey" stroke-width="2.14" d="M285.43,-352.49C291.44,-358.47 301.72,-368.71 311.54,-378.48"/>
</g>
<!-- destruction&#45;&#45;économie -->
<g id="edge42" class="edge">
<title>destruction&#45;&#45;économie</title>
<path fill="none" stroke="darkgrey" stroke-width="1.44" d="M277.67,-354.05C266.95,-383.22 224.59,-498.51 207.2,-545.84"/>
</g>
<!-- destruction&#45;&#45;environnement -->
<g id="edge43" class="edge">
<title>destruction&#45;&#45;environnement</title>
<path fill="none" stroke="darkgrey" stroke-width="1.19" d="M274.1,-350.86C260.54,-358.91 227.42,-378.57 207.6,-390.34"/>
</g>
<!-- destruction&#45;&#45;emploi -->
<g id="edge44" class="edge">
<title>destruction&#45;&#45;emploi</title>
<path fill="none" stroke="darkgrey" stroke-width="1.98" d="M281.74,-354.4C287.14,-378.83 304.95,-459.53 312.93,-495.72"/>
</g>
<!-- argent&#45;&#45;nickel -->
<g id="edge45" class="edge">
<title>argent&#45;&#45;nickel</title>
<path fill="none" stroke="darkgrey" stroke-width="3.91" d="M505.57,-443.95C479.64,-437.8 413.56,-422.13 372.31,-412.35"/>
</g>
<!-- argent&#45;&#45;emploi -->
<g id="edge46" class="edge">
<title>argent&#45;&#45;emploi</title>
<path fill="none" stroke="darkgrey" stroke-width="2.3" d="M506.06,-450.05C473.57,-460.96 374.1,-494.34 333.95,-507.82"/>
</g>
<!-- nickel&#45;&#45;montagne -->
<g id="edge48" class="edge">
<title>nickel&#45;&#45;montagne</title>
<path fill="none" stroke="darkgrey" stroke-width="4.05" d="M312.07,-430.07C257.44,-486.72 130.52,-618.31 103.41,-646.42"/>
</g>
<!-- nickel&#45;&#45;camion -->
<g id="edge49" class="edge">
<title>nickel&#45;&#45;camion</title>
<path fill="none" stroke="darkgrey" stroke-width="6.45" d="M304.82,-420.25C284.22,-430.58 258.89,-443.27 245.08,-450.2"/>
</g>
<!-- nickel&#45;&#45;économie -->
<g id="edge50" class="edge">
<title>nickel&#45;&#45;économie</title>
<path fill="none" stroke="darkgrey" stroke-width="7.67" d="M313.87,-431.55C285.21,-465.37 237.49,-521.68 213.85,-549.58"/>
</g>
<!-- nickel&#45;&#45;environnement -->
<g id="edge51" class="edge">
<title>nickel&#45;&#45;environnement</title>
<path fill="none" stroke="darkgrey" stroke-width="5.66" d="M300.9,-402.94C271.98,-402.08 232.7,-400.9 210.04,-400.23"/>
</g>
<!-- nickel&#45;&#45;emploi -->
<g id="edge54" class="edge">
<title>nickel&#45;&#45;emploi</title>
<path fill="none" stroke="darkgrey" stroke-width="6.82" d="M330.59,-439.58C327.12,-458.32 323,-480.5 320.19,-495.65"/>
</g>
<!-- nickel&#45;&#45;terre -->
<g id="edge55" class="edge">
<title>nickel&#45;&#45;terre</title>
<path fill="none" stroke="darkgrey" stroke-width="2.79" d="M320.43,-436.16C288.01,-498.34 218.48,-631.65 202.63,-662.05"/>
</g>
<!-- nickel&#45;&#45;usine -->
<g id="edge56" class="edge">
<title>nickel&#45;&#45;usine</title>
<path fill="none" stroke="darkgrey" stroke-width="5.19" d="M302.73,-414.75C249.25,-431.39 148.98,-462.59 116.09,-472.83"/>
</g>
<!-- nickel&#45;&#45;exploitation -->
<g id="edge57" class="edge">
<title>nickel&#45;&#45;exploitation</title>
<path fill="none" stroke="darkgrey" stroke-width="2.96" d="M307.44,-425.12C254.75,-462.48 147.55,-538.49 115.34,-561.33"/>
</g>
<!-- nickel&#45;&#45;sln -->
<g id="edge58" class="edge">
<title>nickel&#45;&#45;sln</title>
<path fill="none" stroke="darkgrey" stroke-width="5.41" d="M347.81,-438.92C362.84,-488.35 389.35,-575.51 396.88,-600.3"/>
</g>
<!-- nickel&#45;&#45;ressource -->
<g id="edge59" class="edge">
<title>nickel&#45;&#45;ressource</title>
<path fill="none" stroke="darkgrey" stroke-width="2.4" d="M301.02,-401.6C241.18,-397.6 125.24,-389.85 95.5,-387.86"/>
</g>
<!-- nickel&#45;&#45;conflit -->
<g id="edge60" class="edge">
<title>nickel&#45;&#45;conflit</title>
<path fill="none" stroke="darkgrey" stroke-width="1.65" d="M348.69,-438.42C370.02,-502.26 414.53,-635.45 425,-666.77"/>
</g>
<!-- nickel&#45;&#45;minerai -->
<g id="edge61" class="edge">
<title>nickel&#45;&#45;minerai</title>
<path fill="none" stroke="darkgrey" stroke-width="5.35" d="M303.33,-416.3C236.85,-440.41 92.25,-492.85 52.37,-507.31"/>
</g>
<!-- nickel&#45;&#45;déforestation -->
<g id="edge62" class="edge">
<title>nickel&#45;&#45;déforestation</title>
<path fill="none" stroke="darkgrey" stroke-width="2.01" d="M372.35,-395.37C445.32,-377.42 608.63,-337.25 634.94,-330.78"/>
</g>
<!-- nickel&#45;&#45;extraction -->
<g id="edge47" class="edge">
<title>nickel&#45;&#45;extraction</title>
<path fill="none" stroke="darkgrey" stroke-width="1.83" d="M357.99,-374.27C412.42,-296.41 555.45,-91.8 564.33,-79.09"/>
</g>
<!-- nickel&#45;&#45;caillou -->
<g id="edge52" class="edge">
<title>nickel&#45;&#45;caillou</title>
<path fill="none" stroke="darkgrey" stroke-width="1.92" d="M360.04,-375.77C397.4,-329.56 468.87,-241.18 483,-223.7"/>
</g>
<!-- nickel&#45;&#45;terre rouge -->
<g id="edge53" class="edge">
<title>nickel&#45;&#45;terre rouge</title>
<path fill="none" stroke="darkgrey" stroke-width="2.66" d="M344.96,-368.83C365.02,-277.97 417.49,-40.29 424.77,-7.32"/>
</g>
<!-- nickel&#45;&#45;goro -->
<g id="edge63" class="edge">
<title>nickel&#45;&#45;goro</title>
<path fill="none" stroke="darkgrey" stroke-width="2.19" d="M363.47,-428.92C429.91,-491.89 600.12,-653.21 610.69,-663.23"/>
</g>
<!-- nickel&#45;&#45;exportation -->
<g id="edge64" class="edge">
<title>nickel&#45;&#45;exportation</title>
<path fill="none" stroke="darkgrey" stroke-width="2.14" d="M320.26,-372.17C281.2,-298.7 187.1,-121.7 173.35,-95.84"/>
</g>
<!-- montagne&#45;&#45;camion -->
<g id="edge65" class="edge">
<title>montagne&#45;&#45;camion</title>
<path fill="none" stroke="darkgrey" stroke-width="1.84" d="M102.5,-645.66C122.14,-617.43 204.34,-499.24 228.31,-464.78"/>
</g>
<!-- montagne&#45;&#45;économie -->
<g id="edge66" class="edge">
<title>montagne&#45;&#45;économie</title>
<path fill="none" stroke="darkgrey" stroke-width="1.21" d="M103.71,-647.16C118.44,-634.75 159.49,-600.16 182.86,-580.48"/>
</g>
<!-- montagne&#45;&#45;terre -->
<g id="edge67" class="edge">
<title>montagne&#45;&#45;terre</title>
<path fill="none" stroke="darkgrey" stroke-width="1.43" d="M105.21,-652.9C123.68,-655.92 173.85,-664.12 192.37,-667.16"/>
</g>
<!-- montagne&#45;&#45;usine -->
<g id="edge68" class="edge">
<title>montagne&#45;&#45;usine</title>
<path fill="none" stroke="darkgrey" stroke-width="1.1" d="M98.54,-644.66C99.64,-617.58 103.55,-520.68 104.89,-487.45"/>
</g>
<!-- montagne&#45;&#45;minerai -->
<g id="edge69" class="edge">
<title>montagne&#45;&#45;minerai</title>
<path fill="none" stroke="darkgrey" stroke-width="1.05" d="M95.54,-644.97C86.46,-622.25 57.06,-548.73 46.14,-521.41"/>
</g>
<!-- camion&#45;&#45;économie -->
<g id="edge70" class="edge">
<title>camion&#45;&#45;économie</title>
<path fill="none" stroke="darkgrey" stroke-width="1.51" d="M231.52,-465.95C225.7,-484.29 213.69,-522.15 206.2,-545.76"/>
</g>
<!-- camion&#45;&#45;environnement -->
<g id="edge71" class="edge">
<title>camion&#45;&#45;environnement</title>
<path fill="none" stroke="darkgrey" stroke-width="1.69" d="M227.98,-446.37C221.23,-437.65 210.86,-424.24 202.96,-414.02"/>
</g>
<!-- camion&#45;&#45;terre -->
<g id="edge73" class="edge">
<title>camion&#45;&#45;terre</title>
<path fill="none" stroke="darkgrey" stroke-width="1.42" d="M233.08,-466.16C226.75,-504.14 205.69,-630.42 200.52,-661.39"/>
</g>
<!-- camion&#45;&#45;usine -->
<g id="edge74" class="edge">
<title>camion&#45;&#45;usine</title>
<path fill="none" stroke="darkgrey" stroke-width="2.69" d="M223.85,-457.08C199.37,-461.03 140.81,-470.46 116.36,-474.4"/>
</g>
<!-- camion&#45;&#45;sln -->
<g id="edge75" class="edge">
<title>camion&#45;&#45;sln</title>
<path fill="none" stroke="darkgrey" stroke-width="1.53" d="M243.25,-463.04C272.5,-490.09 369.76,-580.06 393.62,-602.12"/>
</g>
<!-- camion&#45;&#45;minerai -->
<g id="edge76" class="edge">
<title>camion&#45;&#45;minerai</title>
<path fill="none" stroke="darkgrey" stroke-width="2.15" d="M224.25,-458.38C190.6,-468.11 86.78,-498.13 52.85,-507.94"/>
</g>
<!-- camion&#45;&#45;caillou -->
<g id="edge72" class="edge">
<title>camion&#45;&#45;caillou</title>
<path fill="none" stroke="darkgrey" stroke-width="1.26" d="M242.95,-447.76C282.82,-410.42 458.17,-246.22 482.63,-223.31"/>
</g>
<!-- économie&#45;&#45;environnement -->
<g id="edge77" class="edge">
<title>économie&#45;&#45;environnement</title>
<path fill="none" stroke="darkgrey" stroke-width="7.25" d="M198.66,-544.52C197.11,-511.35 194.17,-448.79 192.73,-417.89"/>
</g>
<!-- économie&#45;&#45;emploi -->
<g id="edge78" class="edge">
<title>économie&#45;&#45;emploi</title>
<path fill="none" stroke="darkgrey" stroke-width="6.31" d="M219.3,-557.47C241.97,-547.26 278.9,-530.64 300.23,-521.04"/>
</g>
<!-- économie&#45;&#45;terre -->
<g id="edge79" class="edge">
<title>économie&#45;&#45;terre</title>
<path fill="none" stroke="darkgrey" stroke-width="1.2" d="M199.62,-587.93C199.55,-610.85 199.44,-645.79 199.39,-660.9"/>
</g>
<!-- économie&#45;&#45;usine -->
<g id="edge80" class="edge">
<title>économie&#45;&#45;usine</title>
<path fill="none" stroke="darkgrey" stroke-width="1.69" d="M184.1,-551.42C163.8,-532.02 129.04,-498.81 113.39,-483.86"/>
</g>
<!-- économie&#45;&#45;exploitation -->
<g id="edge81" class="edge">
<title>économie&#45;&#45;exploitation</title>
<path fill="none" stroke="darkgrey" stroke-width="2" d="M177.95,-566.69C158.92,-567.02 132.04,-567.5 117.09,-567.77"/>
</g>
<!-- économie&#45;&#45;sln -->
<g id="edge82" class="edge">
<title>économie&#45;&#45;sln</title>
<path fill="none" stroke="darkgrey" stroke-width="2.25" d="M221.01,-570.66C265.18,-579.69 364.84,-600.07 391.99,-605.62"/>
</g>
<!-- économie&#45;&#45;ressource -->
<g id="edge83" class="edge">
<title>économie&#45;&#45;ressource</title>
<path fill="none" stroke="darkgrey" stroke-width="1.28" d="M188.19,-547.83C163.65,-508.36 107.12,-417.47 92.12,-393.35"/>
</g>
<!-- économie&#45;&#45;conflit -->
<g id="edge84" class="edge">
<title>économie&#45;&#45;conflit</title>
<path fill="none" stroke="darkgrey" stroke-width="2.44" d="M219.48,-575.62C267.92,-598.43 390.65,-656.24 420.58,-670.33"/>
</g>
<!-- économie&#45;&#45;minerai -->
<g id="edge85" class="edge">
<title>économie&#45;&#45;minerai</title>
<path fill="none" stroke="darkgrey" stroke-width="1.33" d="M179.07,-559.08C145.01,-547.15 78.19,-523.75 52.45,-514.73"/>
</g>
<!-- environnement&#45;&#45;emploi -->
<g id="edge86" class="edge">
<title>environnement&#45;&#45;emploi</title>
<path fill="none" stroke="darkgrey" stroke-width="4.22" d="M205.25,-411.87C229.18,-433.67 279.08,-479.12 303.21,-501.11"/>
</g>
<!-- environnement&#45;&#45;terre -->
<g id="edge87" class="edge">
<title>environnement&#45;&#45;terre</title>
<path fill="none" stroke="darkgrey" stroke-width="1.06" d="M192.38,-417.73C193.86,-470.9 198.18,-625.47 199.17,-660.97"/>
</g>
<!-- environnement&#45;&#45;usine -->
<g id="edge88" class="edge">
<title>environnement&#45;&#45;usine</title>
<path fill="none" stroke="darkgrey" stroke-width="1.36" d="M178.35,-411.64C160.29,-427.6 128.82,-455.42 113.8,-468.7"/>
</g>
<!-- environnement&#45;&#45;exploitation -->
<g id="edge89" class="edge">
<title>environnement&#45;&#45;exploitation</title>
<path fill="none" stroke="darkgrey" stroke-width="1.25" d="M183.64,-415.82C166.08,-450.21 125.43,-529.86 111.09,-557.94"/>
</g>
<!-- environnement&#45;&#45;sln -->
<g id="edge90" class="edge">
<title>environnement&#45;&#45;sln</title>
<path fill="none" stroke="darkgrey" stroke-width="1.09" d="M204.82,-412.66C245.2,-453.09 367.63,-575.69 393.93,-602.03"/>
</g>
<!-- environnement&#45;&#45;ressource -->
<g id="edge91" class="edge">
<title>environnement&#45;&#45;ressource</title>
<path fill="none" stroke="darkgrey" stroke-width="1.15" d="M173.85,-397.54C150.69,-394.79 111.57,-390.14 95.57,-388.24"/>
</g>
<!-- environnement&#45;&#45;développement -->
<g id="edge92" class="edge">
<title>environnement&#45;&#45;développement</title>
<path fill="none" stroke="darkgrey" stroke-width="1.4" d="M185.19,-382.65C167.77,-338.23 121.72,-220.83 113.24,-199.21"/>
</g>
<!-- environnement&#45;&#45;exportation -->
<g id="edge93" class="edge">
<title>environnement&#45;&#45;exportation</title>
<path fill="none" stroke="darkgrey" stroke-width="1.31" d="M190.67,-381.4C186.64,-320.21 173.78,-124.85 171.89,-96.18"/>
</g>
<!-- emploi&#45;&#45;usine -->
<g id="edge94" class="edge">
<title>emploi&#45;&#45;usine</title>
<path fill="none" stroke="darkgrey" stroke-width="1.26" d="M298.84,-510.37C256.28,-502.85 150.59,-484.17 116.29,-478.11"/>
</g>
<!-- emploi&#45;&#45;sln -->
<g id="edge95" class="edge">
<title>emploi&#45;&#45;sln</title>
<path fill="none" stroke="darkgrey" stroke-width="1.46" d="M328.98,-527.35C347.35,-548.27 381.45,-587.13 394.07,-601.5"/>
</g>
<!-- emploi&#45;&#45;ressource -->
<g id="edge96" class="edge">
<title>emploi&#45;&#45;ressource</title>
<path fill="none" stroke="darkgrey" stroke-width="1.12" d="M300.81,-504.68C254.9,-479.33 124.52,-407.33 94.59,-390.8"/>
</g>
<!-- emploi&#45;&#45;conflit -->
<g id="edge97" class="edge">
<title>emploi&#45;&#45;conflit</title>
<path fill="none" stroke="darkgrey" stroke-width="2.79" d="M327.25,-528.6C350.76,-562.65 407.22,-644.46 423.05,-667.39"/>
</g>
<!-- terre&#45;&#45;exploitation -->
<g id="edge98" class="edge">
<title>terre&#45;&#45;exploitation</title>
<path fill="none" stroke="darkgrey" stroke-width="1.22" d="M194.35,-662.91C178.89,-646.3 131.95,-595.87 113.52,-576.07"/>
</g>
<!-- usine&#45;&#45;exploitation -->
<g id="edge99" class="edge">
<title>usine&#45;&#45;exploitation</title>
<path fill="none" stroke="darkgrey" stroke-width="1.13" d="M105.42,-487.43C105.54,-505.14 105.78,-539.31 105.9,-556.91"/>
</g>
<!-- usine&#45;&#45;minerai -->
<g id="edge100" class="edge">
<title>usine&#45;&#45;minerai</title>
<path fill="none" stroke="darkgrey" stroke-width="3.06" d="M95.45,-481.63C83.62,-488.14 63.93,-498.99 52.04,-505.54"/>
</g>
<!-- exploitation&#45;&#45;ressource -->
<g id="edge101" class="edge">
<title>exploitation&#45;&#45;ressource</title>
<path fill="none" stroke="darkgrey" stroke-width="1.71" d="M104.9,-556.94C101.63,-523.25 91.8,-422.25 89.11,-394.51"/>
</g>
<!-- exploitation&#45;&#45;minerai -->
<g id="edge102" class="edge">
<title>exploitation&#45;&#45;minerai</title>
<path fill="none" stroke="darkgrey" stroke-width="2.2" d="M97.61,-560.53C85.42,-549.69 62.88,-529.64 50.57,-518.7"/>
</g>
<!-- sln&#45;&#45;goro -->
<g id="edge103" class="edge">
<title>sln&#45;&#45;goro</title>
<path fill="none" stroke="darkgrey" stroke-width="1.1" d="M406,-608.93C441.68,-618.46 600.81,-660.95 610.72,-663.59"/>
</g>
<!-- ressource&#45;&#45;minerai -->
<g id="edge104" class="edge">
<title>ressource&#45;&#45;minerai</title>
<path fill="none" stroke="darkgrey" stroke-width="1.3" d="M85.92,-394.04C78.27,-414.41 55.14,-476.07 45.88,-500.72"/>
</g>
<!-- pollution -->
<g id="node1" class="node">
<title>pollution</title>
<ellipse fill="#fac228" stroke="white" stroke-width="0" cx="367.88" cy="-495.51" rx="32.5" ry="32.5"/>
<text text-anchor="middle" x="316.88" y="-465.61" font-family="Helvetica,sans-Serif" font-size="8.00" fill="#4d4d4d">pollution</text>
</g>
<!-- travail -->
<g id="node2" class="node">
<title>travail</title>
<ellipse fill="#a02a63" stroke="white" stroke-width="0" cx="250.19" cy="-530.19" rx="14.5" ry="14.5"/>
<text text-anchor="middle" x="222.69" y="-518.29" font-family="Helvetica,sans-Serif" font-size="8.00" fill="#4d4d4d">travail</text>
</g>
<!-- richesse -->
<g id="node3" class="node">
<title>richesse</title>
<ellipse fill="#6a176e" stroke="white" stroke-width="0" cx="287.77" cy="-629.53" rx="11" ry="11"/>
<text text-anchor="middle" x="259.27" y="-643.13" font-family="Helvetica,sans-Serif" font-size="8.00" fill="#4d4d4d">richesse</text>
</g>
<!-- destruction -->
<g id="node4" class="node">
<title>destruction</title>
<ellipse fill="#390963" stroke="white" stroke-width="0" cx="280.17" cy="-347.25" rx="7" ry="7"/>
<text text-anchor="middle" x="249.67" y="-356.85" font-family="Helvetica,sans-Serif" font-size="8.00" fill="#4d4d4d">destruction</text>
</g>
<!-- argent -->
<g id="node5" class="node">
<title>argent</title>
<ellipse fill="#510e6c" stroke="white" stroke-width="0" cx="516.52" cy="-446.54" rx="11" ry="11"/>
<text text-anchor="middle" x="491.52" y="-460.14" font-family="Helvetica,sans-Serif" font-size="8.00" fill="#4d4d4d">argent</text>
</g>
<!-- nickel -->
<g id="node6" class="node">
<title>nickel</title>
<ellipse fill="#fcffa4" stroke="white" stroke-width="0" cx="337.19" cy="-404.02" rx="36" ry="36"/>
<text text-anchor="middle" x="289.19" y="-442.62" font-family="Helvetica,sans-Serif" font-size="8.00" fill="#4d4d4d">nickel</text>
</g>
<!-- nature -->
<g id="node7" class="node">
<title>nature</title>
<ellipse fill="#000004" stroke="white" stroke-width="0" cx="801.18" cy="-497.17" rx="0.5" ry="0.5"/>
<text text-anchor="middle" x="787.18" y="-500.27" font-family="Helvetica,sans-Serif" font-size="8.00" fill="#4d4d4d">nature</text>
</g>
<!-- montagne -->
<g id="node8" class="node">
<title>montagne</title>
<ellipse fill="#420a68" stroke="white" stroke-width="0" cx="98.26" cy="-651.76" rx="7" ry="7"/>
<text text-anchor="middle" x="69.76" y="-661.36" font-family="Helvetica,sans-Serif" font-size="8.00" fill="#4d4d4d">montagne</text>
</g>
<!-- camion -->
<g id="node9" class="node">
<title>camion</title>
<ellipse fill="#71196e" stroke="white" stroke-width="0" cx="234.89" cy="-455.3" rx="11" ry="11"/>
<text text-anchor="middle" x="208.39" y="-468.9" font-family="Helvetica,sans-Serif" font-size="8.00" fill="#4d4d4d">camion</text>
</g>
<!-- économie -->
<g id="node10" class="node">
<title>économie</title>
<ellipse fill="#d84c3e" stroke="white" stroke-width="0" cx="199.68" cy="-566.3" rx="21.5" ry="21.5"/>
<text text-anchor="middle" x="157.68" y="-590.4" font-family="Helvetica,sans-Serif" font-size="8.00" fill="#4d4d4d">économie</text>
</g>
<!-- environnement -->
<g id="node11" class="node">
<title>environnement</title>
<ellipse fill="#b1325a" stroke="white" stroke-width="0" cx="191.87" cy="-399.68" rx="18" ry="18"/>
<text text-anchor="middle" x="142.87" y="-420.28" font-family="Helvetica,sans-Serif" font-size="8.00" fill="#4d4d4d">environnement</text>
</g>
<!-- emploi -->
<g id="node12" class="node">
<title>emploi</title>
<ellipse fill="#b43359" stroke="white" stroke-width="0" cx="316.87" cy="-513.55" rx="18" ry="18"/>
<text text-anchor="middle" x="284.87" y="-534.15" font-family="Helvetica,sans-Serif" font-size="8.00" fill="#4d4d4d">emploi</text>
</g>
<!-- terre -->
<g id="node13" class="node">
<title>terre</title>
<ellipse fill="#390963" stroke="white" stroke-width="0" cx="199.37" cy="-668.3" rx="7" ry="7"/>
<text text-anchor="middle" x="182.87" y="-677.9" font-family="Helvetica,sans-Serif" font-size="8.00" fill="#4d4d4d">terre</text>
</g>
<!-- usine -->
<g id="node14" class="node">
<title>usine</title>
<ellipse fill="#57106e" stroke="white" stroke-width="0" cx="105.34" cy="-476.17" rx="11" ry="11"/>
<text text-anchor="middle" x="82.84" y="-489.77" font-family="Helvetica,sans-Serif" font-size="8.00" fill="#4d4d4d">usine</text>
</g>
<!-- érosion -->
<g id="node15" class="node">
<title>érosion</title>
<ellipse fill="#000004" stroke="white" stroke-width="0" cx="759.82" cy="-690.16" rx="0.5" ry="0.5"/>
<text text-anchor="middle" x="743.82" y="-693.26" font-family="Helvetica,sans-Serif" font-size="8.00" fill="#4d4d4d">érosion</text>
</g>
<!-- exploitation -->
<g id="node16" class="node">
<title>exploitation</title>
<ellipse fill="#5c126e" stroke="white" stroke-width="0" cx="105.98" cy="-567.97" rx="11" ry="11"/>
<text text-anchor="middle" x="70.48" y="-581.57" font-family="Helvetica,sans-Serif" font-size="8.00" fill="#4d4d4d">exploitation</text>
</g>
<!-- sln -->
<g id="node17" class="node">
<title>sln</title>
<ellipse fill="#420a68" stroke="white" stroke-width="0" cx="398.94" cy="-607.04" rx="7" ry="7"/>
<text text-anchor="middle" x="385.44" y="-616.64" font-family="Helvetica,sans-Serif" font-size="8.00" fill="#4d4d4d">sln</text>
</g>
<!-- ressource -->
<g id="node18" class="node">
<title>ressource</title>
<ellipse fill="#4a0c6b" stroke="white" stroke-width="0" cx="88.41" cy="-387.39" rx="7" ry="7"/>
<text text-anchor="middle" x="61.41" y="-396.99" font-family="Helvetica,sans-Serif" font-size="8.00" fill="#4d4d4d">ressource</text>
</g>
<!-- conflit -->
<g id="node19" class="node">
<title>conflit</title>
<ellipse fill="#390963" stroke="white" stroke-width="0" cx="427.24" cy="-673.46" rx="7" ry="7"/>
<text text-anchor="middle" x="407.24" y="-683.06" font-family="Helvetica,sans-Serif" font-size="8.00" fill="#4d4d4d">conflit</text>
</g>
<!-- développement -->
<g id="node20" class="node">
<title>développement</title>
<ellipse fill="#07051b" stroke="white" stroke-width="0" cx="111.88" cy="-195.76" rx="3.5" ry="3.5"/>
<text text-anchor="middle" x="75.88" y="-201.86" font-family="Helvetica,sans-Serif" font-size="8.00" fill="#4d4d4d">développement</text>
</g>
<!-- minerai -->
<g id="node21" class="node">
<title>minerai</title>
<ellipse fill="#57106e" stroke="white" stroke-width="0" cx="42" cy="-511.07" rx="11" ry="11"/>
<text text-anchor="middle" x="15.5" y="-524.67" font-family="Helvetica,sans-Serif" font-size="8.00" fill="#4d4d4d">minerai</text>
</g>
<!-- déforestation -->
<g id="node22" class="node">
<title>déforestation</title>
<ellipse fill="#120a32" stroke="white" stroke-width="0" cx="638.54" cy="-329.89" rx="3.5" ry="3.5"/>
<text text-anchor="middle" x="607.54" y="-335.99" font-family="Helvetica,sans-Serif" font-size="8.00" fill="#4d4d4d">déforestation</text>
</g>
<!-- extraction -->
<g id="node23" class="node">
<title>extraction</title>
<ellipse fill="#010108" stroke="white" stroke-width="0" cx="564.77" cy="-78.47" rx="0.5" ry="0.5"/>
<text text-anchor="middle" x="543.77" y="-81.57" font-family="Helvetica,sans-Serif" font-size="8.00" fill="#4d4d4d">extraction</text>
</g>
<!-- caillou -->
<g id="node24" class="node">
<title>caillou</title>
<ellipse fill="#0c0826" stroke="white" stroke-width="0" cx="485.46" cy="-220.66" rx="3.5" ry="3.5"/>
<text text-anchor="middle" x="467.96" y="-226.76" font-family="Helvetica,sans-Serif" font-size="8.00" fill="#4d4d4d">caillou</text>
</g>
<!-- terre rouge -->
<g id="node25" class="node">
<title>terre rouge</title>
<ellipse fill="#040314" stroke="white" stroke-width="0" cx="425.61" cy="-3.5" rx="3.5" ry="3.5"/>
<text text-anchor="middle" x="399.61" y="-9.6" font-family="Helvetica,sans-Serif" font-size="8.00" fill="#4d4d4d">terre rouge</text>
</g>
<!-- goro -->
<g id="node26" class="node">
<title>goro</title>
<ellipse fill="#010005" stroke="white" stroke-width="0" cx="611.2" cy="-663.72" rx="0.5" ry="0.5"/>
<text text-anchor="middle" x="601.2" y="-666.82" font-family="Helvetica,sans-Serif" font-size="8.00" fill="#4d4d4d">goro</text>
</g>
<!-- exportation -->
<g id="node27" class="node">
<title>exportation</title>
<ellipse fill="#09061f" stroke="white" stroke-width="0" cx="171.66" cy="-92.66" rx="3.5" ry="3.5"/>
<text text-anchor="middle" x="144.66" y="-98.76" font-family="Helvetica,sans-Serif" font-size="8.00" fill="#4d4d4d">exportation</text>
</g>
</g>
</svg>
