<?xml version="1.0" encoding="UTF-8" standalone="no"?>
<!DOCTYPE svg PUBLIC "-//W3C//DTD SVG 1.1//EN"
 "http://www.w3.org/Graphics/SVG/1.1/DTD/svg11.dtd">
<!-- Generated by graphviz version 2.43.0 (0)
 -->
<!-- Pages: 1 -->
<svg width="1029pt" height="526pt"
 viewBox="0.00 0.00 1029.31 525.55" xmlns="http://www.w3.org/2000/svg" xmlns:xlink="http://www.w3.org/1999/xlink">
<g id="graph0" class="graph" transform="scale(1 1) rotate(0) translate(4 521.55)">
<polygon fill="white" stroke="transparent" points="-4,4 -4,-521.55 1025.31,-521.55 1025.31,4 -4,4"/>
<!-- avenir sans nickel&#45;&#45;industrie -->
<g id="edge1" class="edge">
<title>avenir sans nickel&#45;&#45;industrie</title>
<path fill="none" stroke="darkgrey" stroke-width="1.05" d="M535.78,-159.98C471.28,-121.08 303.85,-20.09 279.35,-5.32"/>
</g>
<!-- avenir sans nickel&#45;&#45;travail -->
<g id="edge2" class="edge">
<title>avenir sans nickel&#45;&#45;travail</title>
<path fill="none" stroke="darkgrey" stroke-width="3.05" d="M538.88,-194.34C518.69,-211.74 489.51,-236.89 472.54,-251.52"/>
</g>
<!-- avenir sans nickel&#45;&#45;politique -->
<g id="edge3" class="edge">
<title>avenir sans nickel&#45;&#45;politique</title>
<path fill="none" stroke="darkgrey" stroke-width="3.38" d="M580.19,-197.17C608.61,-229.74 661.31,-290.14 686.59,-319.11"/>
</g>
<!-- avenir sans nickel&#45;&#45;secteur nickel -->
<g id="edge4" class="edge">
<title>avenir sans nickel&#45;&#45;secteur nickel</title>
<path fill="none" stroke="darkgrey" stroke-width="2.71" d="M586.55,-189.13C605.93,-199.71 632.18,-214.03 649.72,-223.6"/>
</g>
<!-- avenir sans nickel&#45;&#45;relation politique -->
<g id="edge5" class="edge">
<title>avenir sans nickel&#45;&#45;relation politique</title>
<path fill="none" stroke="darkgrey" stroke-width="1.21" d="M587.65,-187.08C639.5,-210.18 750.82,-259.78 771.24,-268.87"/>
</g>
<!-- avenir sans nickel&#45;&#45;avenir avec nickel -->
<g id="edge6" class="edge">
<title>avenir sans nickel&#45;&#45;avenir avec nickel</title>
<path fill="none" stroke="darkgrey" stroke-width="3.16" d="M575.13,-149.44C582.52,-135.89 591.16,-120.09 596.59,-110.13"/>
</g>
<!-- avenir sans nickel&#45;&#45;pollution -->
<g id="edge7" class="edge">
<title>avenir sans nickel&#45;&#45;pollution</title>
<path fill="none" stroke="darkgrey" stroke-width="4.86" d="M558.66,-204.39C555.22,-246.43 548.92,-323.35 545.67,-363.03"/>
</g>
<!-- avenir sans nickel&#45;&#45;ressource minière -->
<g id="edge8" class="edge">
<title>avenir sans nickel&#45;&#45;ressource minière</title>
<path fill="none" stroke="darkgrey" stroke-width="5.75" d="M571.96,-202.5C576.02,-212.65 580.59,-224.06 584.5,-233.82"/>
</g>
<!-- avenir sans nickel&#45;&#45;dégradation environnementale -->
<g id="edge9" class="edge">
<title>avenir sans nickel&#45;&#45;dégradation environnementale</title>
<path fill="none" stroke="darkgrey" stroke-width="5.33" d="M545.94,-200.37C530.66,-225.82 507.01,-265.2 490.58,-292.55"/>
</g>
<!-- avenir sans nickel&#45;&#45;société néo&#45;calédonienne -->
<g id="edge10" class="edge">
<title>avenir sans nickel&#45;&#45;société néo&#45;calédonienne</title>
<path fill="none" stroke="darkgrey" stroke-width="2.74" d="M556,-203.82C545.41,-263.75 521.24,-400.64 513.33,-445.43"/>
</g>
<!-- avenir sans nickel&#45;&#45;alternative au développement -->
<g id="edge11" class="edge">
<title>avenir sans nickel&#45;&#45;alternative au développement</title>
<path fill="none" stroke="darkgrey" stroke-width="4" d="M557.03,-204.15C553.94,-226.34 549.73,-256.64 546.8,-277.76"/>
</g>
<!-- avenir sans nickel&#45;&#45;économie -->
<g id="edge12" class="edge">
<title>avenir sans nickel&#45;&#45;économie</title>
<path fill="none" stroke="darkgrey" stroke-width="2.28" d="M569.44,-203.03C579.24,-235.54 595.17,-288.35 603.36,-315.49"/>
</g>
<!-- avenir sans nickel&#45;&#45;amélioration environnementale -->
<g id="edge13" class="edge">
<title>avenir sans nickel&#45;&#45;amélioration environnementale</title>
<path fill="none" stroke="darkgrey" stroke-width="2.22" d="M532,-174.96C501.37,-174.68 454.69,-174.26 433.56,-174.07"/>
</g>
<!-- avenir sans nickel&#45;&#45;essor technologique -->
<g id="edge14" class="edge">
<title>avenir sans nickel&#45;&#45;essor technologique</title>
<path fill="none" stroke="darkgrey" stroke-width="1.07" d="M532.47,-170.16C528.79,-169.51 525.11,-168.86 521.67,-168.25"/>
</g>
<!-- industrie&#45;&#45;nickel -->
<g id="edge15" class="edge">
<title>industrie&#45;&#45;nickel</title>
<path fill="none" stroke="darkgrey" stroke-width="1.09" d="M277.44,-7.07C286.47,-36.48 348.6,-238.82 360.89,-278.84"/>
</g>
<!-- travail&#45;&#45;politique -->
<g id="edge16" class="edge">
<title>travail&#45;&#45;politique</title>
<path fill="none" stroke="darkgrey" stroke-width="3.34" d="M476.27,-268.5C519.84,-281.48 633.43,-315.36 680.24,-329.31"/>
</g>
<!-- travail&#45;&#45;secteur nickel -->
<g id="edge17" class="edge">
<title>travail&#45;&#45;secteur nickel</title>
<path fill="none" stroke="darkgrey" stroke-width="3.25" d="M476.76,-260.8C515.2,-255.42 605.57,-242.75 647.09,-236.94"/>
</g>
<!-- travail&#45;&#45;relation politique -->
<g id="edge18" class="edge">
<title>travail&#45;&#45;relation politique</title>
<path fill="none" stroke="darkgrey" d="M477.2,-263.71C539.57,-265.1 741.26,-269.58 770.85,-270.24"/>
</g>
<!-- travail&#45;&#45;avenir avec nickel -->
<g id="edge19" class="edge">
<title>travail&#45;&#45;avenir avec nickel</title>
<path fill="none" stroke="darkgrey" stroke-width="1.54" d="M470.82,-249.69C499.44,-217.09 571.22,-135.32 594.53,-108.77"/>
</g>
<!-- travail&#45;&#45;pollution -->
<g id="edge20" class="edge">
<title>travail&#45;&#45;pollution</title>
<path fill="none" stroke="darkgrey" stroke-width="4.7" d="M469.26,-278.62C484.38,-300.9 512.47,-342.31 529.47,-367.35"/>
</g>
<!-- travail&#45;&#45;ressource minière -->
<g id="edge21" class="edge">
<title>travail&#45;&#45;ressource minière</title>
<path fill="none" stroke="darkgrey" stroke-width="2.57" d="M477.07,-262.48C500.67,-261.4 541.95,-259.51 568.57,-258.3"/>
</g>
<!-- travail&#45;&#45;dégradation environnementale -->
<g id="edge22" class="edge">
<title>travail&#45;&#45;dégradation environnementale</title>
<path fill="none" stroke="darkgrey" stroke-width="5.82" d="M462.74,-281.04C463.22,-283.26 463.73,-285.58 464.25,-287.96"/>
</g>
<!-- travail&#45;&#45;société néo&#45;calédonienne -->
<g id="edge24" class="edge">
<title>travail&#45;&#45;société néo&#45;calédonienne</title>
<path fill="none" stroke="darkgrey" stroke-width="3.25" d="M463.48,-280.75C473.62,-319.19 497.74,-410.54 507.03,-445.74"/>
</g>
<!-- travail&#45;&#45;alternative au développement -->
<g id="edge25" class="edge">
<title>travail&#45;&#45;alternative au développement</title>
<path fill="none" stroke="darkgrey" stroke-width="3.47" d="M475.56,-271.09C488.44,-277.1 506.41,-285.48 520.6,-292.1"/>
</g>
<!-- travail&#45;&#45;économie -->
<g id="edge27" class="edge">
<title>travail&#45;&#45;économie</title>
<path fill="none" stroke="darkgrey" stroke-width="3.68" d="M475.46,-271.01C504.24,-284.36 563.08,-311.68 591.91,-325.06"/>
</g>
<!-- travail&#45;&#45;amélioration environnementale -->
<g id="edge28" class="edge">
<title>travail&#45;&#45;amélioration environnementale</title>
<path fill="none" stroke="darkgrey" stroke-width="2.55" d="M452.03,-246.5C444.58,-228.21 432.9,-199.52 426.7,-184.29"/>
</g>
<!-- travail&#45;&#45;essor technologique -->
<g id="edge29" class="edge">
<title>travail&#45;&#45;essor technologique</title>
<path fill="none" stroke="darkgrey" stroke-width="2.95" d="M466.51,-246.65C474.84,-228.48 488.09,-199.58 496.37,-181.51"/>
</g>
<!-- travail&#45;&#45;nickel -->
<g id="edge26" class="edge">
<title>travail&#45;&#45;nickel</title>
<path fill="none" stroke="darkgrey" stroke-width="1.49" d="M441.29,-267.42C419.88,-272.42 384.75,-280.62 369.93,-284.09"/>
</g>
<!-- travail&#45;&#45;nature -->
<g id="edge23" class="edge">
<title>travail&#45;&#45;nature</title>
<path fill="none" stroke="darkgrey" stroke-width="1.08" d="M453.33,-280.61C438.35,-327.46 397.43,-455.35 387.44,-486.59"/>
</g>
<!-- travail&#45;&#45;matériel -->
<g id="edge30" class="edge">
<title>travail&#45;&#45;matériel</title>
<path fill="none" stroke="darkgrey" stroke-width="1.32" d="M441.67,-257.83C381.44,-238.65 183,-175.45 170.66,-171.52"/>
</g>
<!-- politique&#45;&#45;secteur nickel -->
<g id="edge35" class="edge">
<title>politique&#45;&#45;secteur nickel</title>
<path fill="none" stroke="darkgrey" stroke-width="3.57" d="M694.33,-314.91C688.74,-297.29 680.73,-272.04 675.15,-254.44"/>
</g>
<!-- politique&#45;&#45;relation politique -->
<g id="edge36" class="edge">
<title>politique&#45;&#45;relation politique</title>
<path fill="none" stroke="darkgrey" stroke-width="1.64" d="M717.19,-321C735.16,-305.11 762.66,-280.78 771.59,-272.89"/>
</g>
<!-- politique&#45;&#45;avenir avec nickel -->
<g id="edge37" class="edge">
<title>politique&#45;&#45;avenir avec nickel</title>
<path fill="none" stroke="darkgrey" stroke-width="1.54" d="M692.42,-315.41C672.24,-267.43 621.71,-147.28 606.42,-110.9"/>
</g>
<!-- politique&#45;&#45;pollution -->
<g id="edge38" class="edge">
<title>politique&#45;&#45;pollution</title>
<path fill="none" stroke="darkgrey" stroke-width="3.04" d="M680.29,-342.35C651.24,-352.1 598.29,-369.86 567.52,-380.18"/>
</g>
<!-- politique&#45;&#45;ressource minière -->
<g id="edge39" class="edge">
<title>politique&#45;&#45;ressource minière</title>
<path fill="none" stroke="darkgrey" stroke-width="3.83" d="M683.17,-322.52C664.18,-308.62 634.03,-286.56 614.08,-271.97"/>
</g>
<!-- politique&#45;&#45;dégradation environnementale -->
<g id="edge40" class="edge">
<title>politique&#45;&#45;dégradation environnementale</title>
<path fill="none" stroke="darkgrey" stroke-width="4.44" d="M679.32,-334.33C640.04,-332.28 556.38,-327.9 508.2,-325.38"/>
</g>
<!-- politique&#45;&#45;société néo&#45;calédonienne -->
<g id="edge41" class="edge">
<title>politique&#45;&#45;société néo&#45;calédonienne</title>
<path fill="none" stroke="darkgrey" stroke-width="1.85" d="M682.62,-347.39C644.15,-372.58 555.53,-430.6 523.02,-451.89"/>
</g>
<!-- politique&#45;&#45;alternative au développement -->
<g id="edge43" class="edge">
<title>politique&#45;&#45;alternative au développement</title>
<path fill="none" stroke="darkgrey" stroke-width="2.83" d="M679.6,-331.04C650.55,-325 598.53,-314.18 567.85,-307.8"/>
</g>
<!-- politique&#45;&#45;économie -->
<g id="edge44" class="edge">
<title>politique&#45;&#45;économie</title>
<path fill="none" stroke="darkgrey" stroke-width="3.62" d="M678.98,-334.82C662.99,-334.36 641.57,-333.74 626.57,-333.31"/>
</g>
<!-- politique&#45;&#45;nouvelle&#45;calédonie -->
<g id="edge42" class="edge">
<title>politique&#45;&#45;nouvelle&#45;calédonie</title>
<path fill="none" stroke="darkgrey" stroke-width="1.44" d="M693.53,-355.7C683.34,-383.86 665.43,-433.4 658.94,-451.34"/>
</g>
<!-- secteur nickel&#45;&#45;relation politique -->
<g id="edge45" class="edge">
<title>secteur nickel&#45;&#45;relation politique</title>
<path fill="none" stroke="darkgrey" stroke-width="1.28" d="M689.05,-240.94C715.24,-249.95 758.79,-264.92 771.14,-269.17"/>
</g>
<!-- secteur nickel&#45;&#45;avenir avec nickel -->
<g id="edge46" class="edge">
<title>secteur nickel&#45;&#45;avenir avec nickel</title>
<path fill="none" stroke="darkgrey" stroke-width="1.66" d="M658.95,-214.49C644.5,-185.54 617.84,-132.13 606.87,-110.15"/>
</g>
<!-- secteur nickel&#45;&#45;pollution -->
<g id="edge47" class="edge">
<title>secteur nickel&#45;&#45;pollution</title>
<path fill="none" stroke="darkgrey" stroke-width="3.45" d="M655.02,-250.72C631.73,-279.46 584.37,-337.91 559.57,-368.52"/>
</g>
<!-- secteur nickel&#45;&#45;ressource minière -->
<g id="edge48" class="edge">
<title>secteur nickel&#45;&#45;ressource minière</title>
<path fill="none" stroke="darkgrey" stroke-width="2.3" d="M647.8,-240.39C638.46,-243.29 627.4,-246.72 617.73,-249.73"/>
</g>
<!-- secteur nickel&#45;&#45;dégradation environnementale -->
<g id="edge49" class="edge">
<title>secteur nickel&#45;&#45;dégradation environnementale</title>
<path fill="none" stroke="darkgrey" stroke-width="3.21" d="M649.07,-242.83C615.36,-258.19 546.01,-289.78 504.81,-308.54"/>
</g>
<!-- secteur nickel&#45;&#45;société néo&#45;calédonienne -->
<g id="edge50" class="edge">
<title>secteur nickel&#45;&#45;société néo&#45;calédonienne</title>
<path fill="none" stroke="darkgrey" stroke-width="1.65" d="M656.25,-251.65C625.29,-295.98 545.14,-410.72 519.08,-448.01"/>
</g>
<!-- secteur nickel&#45;&#45;alternative au développement -->
<g id="edge52" class="edge">
<title>secteur nickel&#45;&#45;alternative au développement</title>
<path fill="none" stroke="darkgrey" stroke-width="4.87" d="M649.61,-244.37C627.02,-256.77 589.4,-277.42 565.5,-290.53"/>
</g>
<!-- secteur nickel&#45;&#45;économie -->
<g id="edge54" class="edge">
<title>secteur nickel&#45;&#45;économie</title>
<path fill="none" stroke="darkgrey" stroke-width="2.3" d="M657.34,-252.52C645.99,-271.2 628.7,-299.67 618.04,-317.21"/>
</g>
<!-- secteur nickel&#45;&#45;amélioration environnementale -->
<g id="edge55" class="edge">
<title>secteur nickel&#45;&#45;amélioration environnementale</title>
<path fill="none" stroke="darkgrey" stroke-width="2.91" d="M647.66,-228.81C597.32,-216.55 471.08,-185.8 433.33,-176.61"/>
</g>
<!-- secteur nickel&#45;&#45;essor technologique -->
<g id="edge56" class="edge">
<title>secteur nickel&#45;&#45;essor technologique</title>
<path fill="none" stroke="darkgrey" stroke-width="1.55" d="M648.77,-225.62C616.08,-211.96 551.53,-185 520.85,-172.18"/>
</g>
<!-- secteur nickel&#45;&#45;nickel -->
<g id="edge53" class="edge">
<title>secteur nickel&#45;&#45;nickel</title>
<path fill="none" stroke="darkgrey" stroke-width="1.87" d="M647.15,-237.56C585.19,-248.06 408.2,-278.05 370.23,-284.48"/>
</g>
<!-- secteur nickel&#45;&#45;nouvelle&#45;calédonie -->
<g id="edge51" class="edge">
<title>secteur nickel&#45;&#45;nouvelle&#45;calédonie</title>
<path fill="none" stroke="darkgrey" stroke-width="1.23" d="M667.48,-255.41C664.85,-304.06 658.53,-420.73 656.9,-450.86"/>
</g>
<!-- secteur nickel&#45;&#45;échange commercial -->
<g id="edge57" class="edge">
<title>secteur nickel&#45;&#45;échange commercial</title>
<path fill="none" stroke="darkgrey" stroke-width="1.13" d="M689.62,-228.42C763.06,-209.15 1005.02,-145.67 1020.07,-141.73"/>
</g>
<!-- relation politique&#45;&#45;pollution -->
<g id="edge58" class="edge">
<title>relation politique&#45;&#45;pollution</title>
<path fill="none" stroke="darkgrey" stroke-width="1.14" d="M771.23,-271.99C748.98,-283.35 618.89,-349.77 565.98,-376.78"/>
</g>
<!-- relation politique&#45;&#45;ressource minière -->
<g id="edge59" class="edge">
<title>relation politique&#45;&#45;ressource minière</title>
<path fill="none" stroke="darkgrey" stroke-width="1.06" d="M770.72,-270.05C751.41,-268.64 662.89,-262.18 618.85,-258.97"/>
</g>
<!-- relation politique&#45;&#45;dégradation environnementale -->
<g id="edge60" class="edge">
<title>relation politique&#45;&#45;dégradation environnementale</title>
<path fill="none" stroke="darkgrey" stroke-width="1.25" d="M770.67,-270.99C743.69,-275.74 580.97,-304.33 507.71,-317.21"/>
</g>
<!-- relation politique&#45;&#45;économie -->
<g id="edge61" class="edge">
<title>relation politique&#45;&#45;économie</title>
<path fill="none" stroke="darkgrey" stroke-width="1.56" d="M771.03,-271.63C752.37,-278.65 663.29,-312.19 625.54,-326.41"/>
</g>
<!-- relation politique&#45;&#45;échange commercial -->
<g id="edge62" class="edge">
<title>relation politique&#45;&#45;échange commercial</title>
<path fill="none" stroke="darkgrey" stroke-width="1.04" d="M777.61,-268.69C805.23,-254.25 1007.57,-148.45 1020.19,-141.86"/>
</g>
<!-- avenir avec nickel&#45;&#45;ressource minière -->
<g id="edge63" class="edge">
<title>avenir avec nickel&#45;&#45;ressource minière</title>
<path fill="none" stroke="darkgrey" stroke-width="1.56" d="M601.38,-111.58C600.08,-136.66 596.92,-197.54 595.13,-232.1"/>
</g>
<!-- avenir avec nickel&#45;&#45;dégradation environnementale -->
<g id="edge64" class="edge">
<title>avenir avec nickel&#45;&#45;dégradation environnementale</title>
<path fill="none" stroke="darkgrey" stroke-width="2.59" d="M596.38,-109.89C578.21,-141.1 520.22,-240.68 490.28,-292.1"/>
</g>
<!-- avenir avec nickel&#45;&#45;alternative au développement -->
<g id="edge65" class="edge">
<title>avenir avec nickel&#45;&#45;alternative au développement</title>
<path fill="none" stroke="darkgrey" stroke-width="2.06" d="M598.89,-110.9C589.84,-142.13 563.11,-234.41 550.31,-278.59"/>
</g>
<!-- avenir avec nickel&#45;&#45;économie -->
<g id="edge66" class="edge">
<title>avenir avec nickel&#45;&#45;économie</title>
<path fill="none" stroke="darkgrey" stroke-width="2.32" d="M602.28,-111.52C603.34,-148.79 606.76,-268.81 608.06,-314.71"/>
</g>
<!-- avenir avec nickel&#45;&#45;amélioration environnementale -->
<g id="edge67" class="edge">
<title>avenir avec nickel&#45;&#45;amélioration environnementale</title>
<path fill="none" stroke="darkgrey" stroke-width="2.92" d="M591.54,-104.58C559.82,-117.6 464.71,-156.64 432.95,-169.68"/>
</g>
<!-- avenir avec nickel&#45;&#45;essor technologique -->
<g id="edge68" class="edge">
<title>avenir avec nickel&#45;&#45;essor technologique</title>
<path fill="none" stroke="darkgrey" stroke-width="2.18" d="M592.56,-106.51C575.59,-117.73 539.7,-141.44 519.17,-155.01"/>
</g>
<!-- pollution&#45;&#45;ressource minière -->
<g id="edge69" class="edge">
<title>pollution&#45;&#45;ressource minière</title>
<path fill="none" stroke="darkgrey" stroke-width="4.38" d="M552.59,-364.77C561.68,-341.07 575.64,-304.61 584.76,-280.82"/>
</g>
<!-- pollution&#45;&#45;dégradation environnementale -->
<g id="edge70" class="edge">
<title>pollution&#45;&#45;dégradation environnementale</title>
<path fill="none" stroke="darkgrey" stroke-width="10" d="M524.8,-371.2C516.84,-364.01 507.43,-355.5 498.77,-347.68"/>
</g>
<!-- pollution&#45;&#45;société néo&#45;calédonienne -->
<g id="edge72" class="edge">
<title>pollution&#45;&#45;société néo&#45;calédonienne</title>
<path fill="none" stroke="darkgrey" stroke-width="2.99" d="M533.04,-411.29C527.71,-422.91 521.44,-436.6 516.92,-446.49"/>
</g>
<!-- pollution&#45;&#45;alternative au développement -->
<g id="edge74" class="edge">
<title>pollution&#45;&#45;alternative au développement</title>
<path fill="none" stroke="darkgrey" stroke-width="4.37" d="M543.53,-363.01C543.49,-351.88 543.45,-338.83 543.41,-327.71"/>
</g>
<!-- pollution&#45;&#45;économie -->
<g id="edge76" class="edge">
<title>pollution&#45;&#45;économie</title>
<path fill="none" stroke="darkgrey" stroke-width="4.16" d="M562.75,-371.88C572.93,-363.19 585.23,-352.71 594.52,-344.78"/>
</g>
<!-- pollution&#45;&#45;amélioration environnementale -->
<g id="edge77" class="edge">
<title>pollution&#45;&#45;amélioration environnementale</title>
<path fill="none" stroke="darkgrey" stroke-width="1.65" d="M531.11,-366.08C505.12,-320.11 446.18,-215.85 427.96,-183.64"/>
</g>
<!-- pollution&#45;&#45;essor technologique -->
<g id="edge78" class="edge">
<title>pollution&#45;&#45;essor technologique</title>
<path fill="none" stroke="darkgrey" stroke-width="2.57" d="M539.21,-363.47C531.13,-318.09 514.13,-222.54 507.07,-182.91"/>
</g>
<!-- pollution&#45;&#45;nickel -->
<g id="edge75" class="edge">
<title>pollution&#45;&#45;nickel</title>
<path fill="none" stroke="darkgrey" stroke-width="1.88" d="M521.83,-375.84C480.54,-352.41 392.91,-302.69 369.08,-289.16"/>
</g>
<!-- pollution&#45;&#45;nature -->
<g id="edge71" class="edge">
<title>pollution&#45;&#45;nature</title>
<path fill="none" stroke="darkgrey" stroke-width="2.48" d="M522.58,-402.19C486.06,-426.48 412.75,-475.23 391.26,-489.52"/>
</g>
<!-- pollution&#45;&#45;nouvelle&#45;calédonie -->
<g id="edge73" class="edge">
<title>pollution&#45;&#45;nouvelle&#45;calédonie</title>
<path fill="none" stroke="darkgrey" stroke-width="1.21" d="M565.12,-401.51C591.47,-417.82 634.59,-444.5 650.43,-454.3"/>
</g>
<!-- ressource minière&#45;&#45;dégradation environnementale -->
<g id="edge79" class="edge">
<title>ressource minière&#45;&#45;dégradation environnementale</title>
<path fill="none" stroke="darkgrey" stroke-width="6.43" d="M571.77,-269.16C552.84,-279.47 525.33,-294.45 503.99,-306.07"/>
</g>
<!-- ressource minière&#45;&#45;alternative au développement -->
<g id="edge82" class="edge">
<title>ressource minière&#45;&#45;alternative au développement</title>
<path fill="none" stroke="darkgrey" stroke-width="4.46" d="M575.02,-274.11C570.76,-277.96 566.24,-282.04 561.98,-285.88"/>
</g>
<!-- ressource minière&#45;&#45;économie -->
<g id="edge84" class="edge">
<title>ressource minière&#45;&#45;économie</title>
<path fill="none" stroke="darkgrey" stroke-width="3.49" d="M598.66,-281.92C600.74,-292.6 603.13,-304.87 605.05,-314.69"/>
</g>
<!-- ressource minière&#45;&#45;amélioration environnementale -->
<g id="edge85" class="edge">
<title>ressource minière&#45;&#45;amélioration environnementale</title>
<path fill="none" stroke="darkgrey" stroke-width="1.58" d="M571.08,-246.1C533.39,-227.81 459.51,-191.94 432.6,-178.88"/>
</g>
<!-- ressource minière&#45;&#45;essor technologique -->
<g id="edge86" class="edge">
<title>ressource minière&#45;&#45;essor technologique</title>
<path fill="none" stroke="darkgrey" stroke-width="3.94" d="M576.06,-238.96C558.56,-221.04 532.24,-194.11 516.69,-178.2"/>
</g>
<!-- ressource minière&#45;&#45;nickel -->
<g id="edge83" class="edge">
<title>ressource minière&#45;&#45;nickel</title>
<path fill="none" stroke="darkgrey" stroke-width="1.24" d="M568.69,-260.26C516.8,-266.68 400.22,-281.1 370.17,-284.82"/>
</g>
<!-- ressource minière&#45;&#45;nature -->
<g id="edge80" class="edge">
<title>ressource minière&#45;&#45;nature</title>
<path fill="none" stroke="darkgrey" stroke-width="1.03" d="M577.11,-276.09C533.02,-326.05 415.25,-459.51 390.02,-488.11"/>
</g>
<!-- ressource minière&#45;&#45;nouvelle&#45;calédonie -->
<g id="edge81" class="edge">
<title>ressource minière&#45;&#45;nouvelle&#45;calédonie</title>
<path fill="none" stroke="darkgrey" stroke-width="1.44" d="M601.39,-281.38C615.72,-327.3 646.13,-424.78 654.4,-451.28"/>
</g>
<!-- dégradation environnementale&#45;&#45;société néo&#45;calédonienne -->
<g id="edge88" class="edge">
<title>dégradation environnementale&#45;&#45;société néo&#45;calédonienne</title>
<path fill="none" stroke="darkgrey" stroke-width="2.56" d="M481.88,-358.27C489.96,-386.69 500.96,-425.39 506.78,-445.87"/>
</g>
<!-- dégradation environnementale&#45;&#45;alternative au développement -->
<g id="edge90" class="edge">
<title>dégradation environnementale&#45;&#45;alternative au développement</title>
<path fill="none" stroke="darkgrey" stroke-width="4.29" d="M506.83,-313.34C510.93,-312.14 515.05,-310.94 518.96,-309.8"/>
</g>
<!-- dégradation environnementale&#45;&#45;économie -->
<g id="edge92" class="edge">
<title>dégradation environnementale&#45;&#45;économie</title>
<path fill="none" stroke="darkgrey" stroke-width="6.16" d="M508.24,-325.96C534.79,-327.77 569.71,-330.14 590.57,-331.57"/>
</g>
<!-- dégradation environnementale&#45;&#45;amélioration environnementale -->
<g id="edge93" class="edge">
<title>dégradation environnementale&#45;&#45;amélioration environnementale</title>
<path fill="none" stroke="darkgrey" stroke-width="3.02" d="M460.64,-289.18C449.45,-255.39 433.04,-205.81 425.96,-184.42"/>
</g>
<!-- dégradation environnementale&#45;&#45;essor technologique -->
<g id="edge94" class="edge">
<title>dégradation environnementale&#45;&#45;essor technologique</title>
<path fill="none" stroke="darkgrey" stroke-width="3.39" d="M479.16,-287.94C485.74,-255.29 495.21,-208.24 500.32,-182.89"/>
</g>
<!-- dégradation environnementale&#45;&#45;nickel -->
<g id="edge91" class="edge">
<title>dégradation environnementale&#45;&#45;nickel</title>
<path fill="none" stroke="darkgrey" stroke-width="2.18" d="M437.81,-311.64C413.58,-303.24 383.11,-292.68 369.77,-288.06"/>
</g>
<!-- dégradation environnementale&#45;&#45;nature -->
<g id="edge87" class="edge">
<title>dégradation environnementale&#45;&#45;nature</title>
<path fill="none" stroke="darkgrey" stroke-width="3.33" d="M455.47,-355.87C434.32,-397.31 399.14,-466.25 388.42,-487.27"/>
</g>
<!-- dégradation environnementale&#45;&#45;matériel -->
<g id="edge95" class="edge">
<title>dégradation environnementale&#45;&#45;matériel</title>
<path fill="none" stroke="darkgrey" stroke-width="1.02" d="M439.69,-307.2C364.23,-269.18 181.93,-177.31 170.61,-171.61"/>
</g>
<!-- dégradation environnementale&#45;&#45;nouvelle&#45;calédonie -->
<g id="edge89" class="edge">
<title>dégradation environnementale&#45;&#45;nouvelle&#45;calédonie</title>
<path fill="none" stroke="darkgrey" stroke-width="1.18" d="M501.24,-344.81C545.95,-377.42 628.49,-437.62 650.82,-453.9"/>
</g>
<!-- société néo&#45;calédonienne&#45;&#45;alternative au développement -->
<g id="edge99" class="edge">
<title>société néo&#45;calédonienne&#45;&#45;alternative au développement</title>
<path fill="none" stroke="darkgrey" stroke-width="2.86" d="M513.72,-445.68C519.27,-418.85 531.36,-360.49 538.25,-327.22"/>
</g>
<!-- société néo&#45;calédonienne&#45;&#45;économie -->
<g id="edge101" class="edge">
<title>société néo&#45;calédonienne&#45;&#45;économie</title>
<path fill="none" stroke="darkgrey" stroke-width="2.63" d="M519.79,-448.18C537.77,-424.82 577.97,-372.58 597.5,-347.19"/>
</g>
<!-- société néo&#45;calédonienne&#45;&#45;nickel -->
<g id="edge100" class="edge">
<title>société néo&#45;calédonienne&#45;&#45;nickel</title>
<path fill="none" stroke="darkgrey" stroke-width="1.94" d="M501.3,-448.75C472.76,-415.11 388.28,-315.51 367.6,-291.14"/>
</g>
<!-- société néo&#45;calédonienne&#45;&#45;nouvelle&#45;calédonie -->
<g id="edge98" class="edge">
<title>société néo&#45;calédonienne&#45;&#45;nouvelle&#45;calédonie</title>
<path fill="none" stroke="darkgrey" stroke-width="1.52" d="M525.28,-459.73C555.95,-459.34 626.43,-458.44 649.25,-458.15"/>
</g>
<!-- alternative au développement&#45;&#45;économie -->
<g id="edge106" class="edge">
<title>alternative au développement&#45;&#45;économie</title>
<path fill="none" stroke="darkgrey" stroke-width="5.19" d="M566.15,-313.23C574.67,-317.16 584.19,-321.54 592.04,-325.17"/>
</g>
<!-- alternative au développement&#45;&#45;amélioration environnementale -->
<g id="edge107" class="edge">
<title>alternative au développement&#45;&#45;amélioration environnementale</title>
<path fill="none" stroke="darkgrey" stroke-width="3.85" d="M526.02,-284.26C499.39,-255.89 449.46,-202.7 430.28,-182.26"/>
</g>
<!-- alternative au développement&#45;&#45;essor technologique -->
<g id="edge108" class="edge">
<title>alternative au développement&#45;&#45;essor technologique</title>
<path fill="none" stroke="darkgrey" stroke-width="3.88" d="M536.37,-278.42C528.5,-250.95 515.88,-206.9 508.91,-182.6"/>
</g>
<!-- alternative au développement&#45;&#45;nickel -->
<g id="edge105" class="edge">
<title>alternative au développement&#45;&#45;nickel</title>
<path fill="none" stroke="darkgrey" stroke-width="1.82" d="M518.25,-300.34C476.45,-296.4 394.66,-288.69 370.12,-286.38"/>
</g>
<!-- économie&#45;&#45;amélioration environnementale -->
<g id="edge111" class="edge">
<title>économie&#45;&#45;amélioration environnementale</title>
<path fill="none" stroke="darkgrey" stroke-width="1.59" d="M594.59,-320.85C558.08,-289.69 460.66,-206.55 431.11,-181.32"/>
</g>
<!-- économie&#45;&#45;essor technologique -->
<g id="edge112" class="edge">
<title>économie&#45;&#45;essor technologique</title>
<path fill="none" stroke="darkgrey" stroke-width="1.2" d="M598.92,-317.32C578.97,-285.37 533.46,-212.45 513.54,-180.54"/>
</g>
<!-- amélioration environnementale&#45;&#45;essor technologique -->
<g id="edge113" class="edge">
<title>amélioration environnementale&#45;&#45;essor technologique</title>
<path fill="none" stroke="darkgrey" stroke-width="1.93" d="M433.48,-172.77C446.93,-171.31 469.91,-168.8 485.95,-167.06"/>
</g>
<!-- nickel&#45;&#45;économie -->
<g id="edge109" class="edge">
<title>nickel&#45;&#45;économie</title>
<path fill="none" stroke="darkgrey" stroke-width="1.26" d="M370.08,-287.07C402.95,-293.37 541.11,-319.86 590.73,-329.37"/>
</g>
<!-- nickel&#45;&#45;amélioration environnementale -->
<g id="edge110" class="edge">
<title>nickel&#45;&#45;amélioration environnementale</title>
<path fill="none" stroke="darkgrey" stroke-width="1.06" d="M366.36,-279.38C376.25,-260.82 405.21,-206.42 417.21,-183.91"/>
</g>
<!-- nature&#45;&#45;société néo&#45;calédonienne -->
<g id="edge96" class="edge">
<title>nature&#45;&#45;société néo&#45;calédonienne</title>
<path fill="none" stroke="darkgrey" stroke-width="1.31" d="M392.32,-491.64C412.35,-486.28 469.5,-470.97 496.42,-463.76"/>
</g>
<!-- nature&#45;&#45;alternative au développement -->
<g id="edge97" class="edge">
<title>nature&#45;&#45;alternative au développement</title>
<path fill="none" stroke="darkgrey" stroke-width="1.46" d="M389.78,-488.04C409.98,-463.66 491.95,-364.72 527.14,-322.24"/>
</g>
<!-- exploitation minière&#45;&#45;politique -->
<g id="edge31" class="edge">
<title>exploitation minière&#45;&#45;politique</title>
<path fill="none" stroke="darkgrey" stroke-width="1.03" d="M777.4,-120.9C769.54,-142.94 725.8,-265.52 708.19,-314.87"/>
</g>
<!-- exploitation minière&#45;&#45;secteur nickel -->
<g id="edge32" class="edge">
<title>exploitation minière&#45;&#45;secteur nickel</title>
<path fill="none" stroke="darkgrey" stroke-width="1.17" d="M775.91,-120.35C763.27,-133.73 709.78,-190.36 683.43,-218.26"/>
</g>
<!-- exploitation minière&#45;&#45;ressource minière -->
<g id="edge33" class="edge">
<title>exploitation minière&#45;&#45;ressource minière</title>
<path fill="none" stroke="darkgrey" stroke-width="1.4" d="M775.72,-119.67C757.4,-133.52 657.17,-209.27 613.82,-242.04"/>
</g>
<!-- exploitation minière&#45;&#45;alternative au développement -->
<g id="edge34" class="edge">
<title>exploitation minière&#45;&#45;alternative au développement</title>
<path fill="none" stroke="darkgrey" stroke-width="1.23" d="M775.65,-119.82C753.63,-137.15 615.32,-246.03 563.18,-287.07"/>
</g>
<!-- nouvelle&#45;calédonie&#45;&#45;alternative au développement -->
<g id="edge102" class="edge">
<title>nouvelle&#45;calédonie&#45;&#45;alternative au développement</title>
<path fill="none" stroke="darkgrey" stroke-width="2.08" d="M652.22,-452.16C636.87,-431.1 584.32,-358.97 558.25,-323.18"/>
</g>
<!-- nouvelle&#45;calédonie&#45;&#45;économie -->
<g id="edge103" class="edge">
<title>nouvelle&#45;calédonie&#45;&#45;économie</title>
<path fill="none" stroke="darkgrey" stroke-width="1.58" d="M653.94,-451.32C646.66,-432.32 625.81,-377.83 615.1,-349.84"/>
</g>
<!-- nouvelle&#45;calédonie&#45;&#45;essor technologique -->
<g id="edge104" class="edge">
<title>nouvelle&#45;calédonie&#45;&#45;essor technologique</title>
<path fill="none" stroke="darkgrey" stroke-width="1.09" d="M653.18,-451.67C634.35,-415.52 541.02,-236.36 512.32,-181.26"/>
</g>
<!-- avenir sans nickel -->
<g id="node1" class="node">
<title>avenir sans nickel</title>
<ellipse fill="#f98c0a" stroke="white" stroke-width="0" cx="561.05" cy="-175.22" rx="29" ry="29"/>
<text text-anchor="middle" x="420.55" y="-211.38" font-family="Helvetica,sans-Serif" font-size="24.80" fill="#4d4d4d">avenir sans nickel</text>
</g>
<!-- industrie -->
<g id="node2" class="node">
<title>industrie</title>
<ellipse fill="#08051d" stroke="white" stroke-width="0" cx="276.34" cy="-3.5" rx="3.5" ry="3.5"/>
<text text-anchor="middle" x="243.34" y="-11.12" font-family="Helvetica,sans-Serif" font-size="13.60" fill="#4d4d4d">industrie</text>
</g>
<!-- travail -->
<g id="node3" class="node">
<title>travail</title>
<ellipse fill="#bd3853" stroke="white" stroke-width="0" cx="458.87" cy="-263.31" rx="18" ry="18"/>
<text text-anchor="middle" x="409.37" y="-251.31" font-family="Helvetica,sans-Serif" font-size="20.00" fill="#4d4d4d">travail</text>
</g>
<!-- politique -->
<g id="node4" class="node">
<title>politique</title>
<ellipse fill="#cb4149" stroke="white" stroke-width="0" cx="700.85" cy="-335.46" rx="21.5" ry="21.5"/>
<text text-anchor="middle" x="632.35" y="-363.68" font-family="Helvetica,sans-Serif" font-size="21.60" fill="#4d4d4d">politique</text>
</g>
<!-- secteur nickel -->
<g id="node5" class="node">
<title>secteur nickel</title>
<ellipse fill="#ca404a" stroke="white" stroke-width="0" cx="668.64" cy="-233.92" rx="21.5" ry="21.5"/>
<text text-anchor="middle" x="722.64" y="-195.14" font-family="Helvetica,sans-Serif" font-size="21.60" fill="#4d4d4d">secteur nickel</text>
</g>
<!-- relation politique -->
<g id="node6" class="node">
<title>relation politique</title>
<ellipse fill="#160b39" stroke="white" stroke-width="0" cx="774.49" cy="-270.32" rx="3.5" ry="3.5"/>
<text text-anchor="middle" x="713.49" y="-277.94" font-family="Helvetica,sans-Serif" font-size="13.60" fill="#4d4d4d">relation politique</text>
</g>
<!-- avenir avec nickel -->
<g id="node7" class="node">
<title>avenir avec nickel</title>
<ellipse fill="#550f6d" stroke="white" stroke-width="0" cx="601.96" cy="-100.3" rx="11" ry="11"/>
<text text-anchor="middle" x="515.46" y="-115.86" font-family="Helvetica,sans-Serif" font-size="16.80" fill="#4d4d4d">avenir avec nickel</text>
</g>
<!-- pollution -->
<g id="node8" class="node">
<title>pollution</title>
<ellipse fill="#eb6628" stroke="white" stroke-width="0" cx="543.61" cy="-388.2" rx="25" ry="25"/>
<text text-anchor="middle" x="467.11" y="-420.64" font-family="Helvetica,sans-Serif" font-size="23.20" fill="#4d4d4d">pollution</text>
</g>
<!-- ressource minière -->
<g id="node9" class="node">
<title>ressource minière</title>
<ellipse fill="#f3761b" stroke="white" stroke-width="0" cx="593.83" cy="-257.15" rx="25" ry="25"/>
<text text-anchor="middle" x="673.33" y="-289.59" font-family="Helvetica,sans-Serif" font-size="23.20" fill="#4d4d4d">ressource minière</text>
</g>
<!-- dégradation environnementale -->
<g id="node10" class="node">
<title>dégradation environnementale</title>
<ellipse fill="#fcffa4" stroke="white" stroke-width="0" cx="472" cy="-323.49" rx="36" ry="36"/>
<text text-anchor="middle" x="218" y="-368.09" font-family="Helvetica,sans-Serif" font-size="28.00" fill="#4d4d4d">dégradation environnementale</text>
</g>
<!-- société néo&#45;calédonienne -->
<g id="node11" class="node">
<title>société néo&#45;calédonienne</title>
<ellipse fill="#902568" stroke="white" stroke-width="0" cx="510.77" cy="-459.91" rx="14.5" ry="14.5"/>
<text text-anchor="middle" x="377.27" y="-450.69" font-family="Helvetica,sans-Serif" font-size="18.40" fill="#4d4d4d">société néo&#45;calédonienne</text>
</g>
<!-- alternative au développement -->
<g id="node12" class="node">
<title>alternative au développement</title>
<ellipse fill="#f98b0b" stroke="white" stroke-width="0" cx="543.33" cy="-302.7" rx="25" ry="25"/>
<text text-anchor="middle" x="341.83" y="-335.14" font-family="Helvetica,sans-Serif" font-size="23.20" fill="#4d4d4d">alternative au développement</text>
</g>
<!-- économie -->
<g id="node13" class="node">
<title>économie</title>
<ellipse fill="#b0315b" stroke="white" stroke-width="0" cx="608.58" cy="-332.79" rx="18" ry="18"/>
<text text-anchor="middle" x="675.08" y="-320.79" font-family="Helvetica,sans-Serif" font-size="20.00" fill="#4d4d4d">économie</text>
</g>
<!-- amélioration environnementale -->
<g id="node14" class="node">
<title>amélioration environnementale</title>
<ellipse fill="#781c6d" stroke="white" stroke-width="0" cx="422.5" cy="-173.97" rx="11" ry="11"/>
<text text-anchor="middle" x="279" y="-189.53" font-family="Helvetica,sans-Serif" font-size="16.80" fill="#4d4d4d">amélioration environnementale</text>
</g>
<!-- essor technologique -->
<g id="node15" class="node">
<title>essor technologique</title>
<ellipse fill="#ad305d" stroke="white" stroke-width="0" cx="503.9" cy="-165.1" rx="18" ry="18"/>
<text text-anchor="middle" x="385.4" y="-153.1" font-family="Helvetica,sans-Serif" font-size="20.00" fill="#4d4d4d">essor technologique</text>
</g>
<!-- nickel -->
<g id="node16" class="node">
<title>nickel</title>
<ellipse fill="#2f0a5b" stroke="white" stroke-width="0" cx="362.99" cy="-285.71" rx="7" ry="7"/>
<text text-anchor="middle" x="333.49" y="-297.55" font-family="Helvetica,sans-Serif" font-size="15.20" fill="#4d4d4d">nickel</text>
</g>
<!-- nature -->
<g id="node17" class="node">
<title>nature</title>
<ellipse fill="#4d0d6c" stroke="white" stroke-width="0" cx="385.21" cy="-493.55" rx="7" ry="7"/>
<text text-anchor="middle" x="353.21" y="-505.39" font-family="Helvetica,sans-Serif" font-size="15.20" fill="#4d4d4d">nature</text>
</g>
<!-- matériel -->
<g id="node18" class="node">
<title>matériel</title>
<ellipse fill="#000004" stroke="white" stroke-width="0" cx="170.06" cy="-171.33" rx="0.5" ry="0.5"/>
<text text-anchor="middle" x="144.06" y="-175.23" font-family="Helvetica,sans-Serif" font-size="12.00" fill="#4d4d4d">matériel</text>
</g>
<!-- exploitation minière -->
<g id="node19" class="node">
<title>exploitation minière</title>
<ellipse fill="#0c0826" stroke="white" stroke-width="0" cx="778.63" cy="-117.48" rx="3.5" ry="3.5"/>
<text text-anchor="middle" x="707.13" y="-125.1" font-family="Helvetica,sans-Serif" font-size="13.60" fill="#4d4d4d">exploitation minière</text>
</g>
<!-- nouvelle&#45;calédonie -->
<g id="node20" class="node">
<title>nouvelle&#45;calédonie</title>
<ellipse fill="#320a5e" stroke="white" stroke-width="0" cx="656.51" cy="-458.06" rx="7" ry="7"/>
<text text-anchor="middle" x="721.01" y="-469.9" font-family="Helvetica,sans-Serif" font-size="15.20" fill="#4d4d4d">nouvelle&#45;calédonie</text>
</g>
<!-- échange commercial -->
<g id="node21" class="node">
<title>échange commercial</title>
<ellipse fill="#02020c" stroke="white" stroke-width="0" cx="1020.81" cy="-141.53" rx="0.5" ry="0.5"/>
<text text-anchor="middle" x="956.81" y="-145.43" font-family="Helvetica,sans-Serif" font-size="12.00" fill="#4d4d4d">échange commercial</text>
</g>
</g>
</svg>
