<?xml version="1.0" encoding="UTF-8" standalone="no"?>
<!DOCTYPE svg PUBLIC "-//W3C//DTD SVG 1.1//EN"
 "http://www.w3.org/Graphics/SVG/1.1/DTD/svg11.dtd">
<!-- Generated by graphviz version 2.43.0 (0)
 -->
<!-- Pages: 1 -->
<svg width="954pt" height="674pt"
 viewBox="0.00 0.00 954.43 674.09" xmlns="http://www.w3.org/2000/svg" xmlns:xlink="http://www.w3.org/1999/xlink">
<g id="graph0" class="graph" transform="scale(1 1) rotate(0) translate(4 670.09)">
<polygon fill="white" stroke="transparent" points="-4,4 -4,-670.09 950.43,-670.09 950.43,4 -4,4"/>
<!-- pollution&#45;&#45;emploi -->
<g id="edge1" class="edge">
<title>pollution&#45;&#45;emploi</title>
<path fill="none" stroke="darkgrey" stroke-width="10" d="M611.57,-282.3C606.66,-284.34 601.49,-286.49 596.41,-288.6"/>
</g>
<!-- pollution&#45;&#45;richesse -->
<g id="edge2" class="edge">
<title>pollution&#45;&#45;richesse</title>
<path fill="none" stroke="darkgrey" stroke-width="2.65" d="M645.81,-242.97C658.19,-196.17 682.44,-104.46 690.75,-73.02"/>
</g>
<!-- pollution&#45;&#45;démolition -->
<g id="edge3" class="edge">
<title>pollution&#45;&#45;démolition</title>
<path fill="none" stroke="darkgrey" stroke-width="2.97" d="M665.39,-260.22C701.81,-245.49 764.43,-220.15 784.88,-211.87"/>
</g>
<!-- pollution&#45;&#45;argent -->
<g id="edge4" class="edge">
<title>pollution&#45;&#45;argent</title>
<path fill="none" stroke="darkgrey" stroke-width="2.34" d="M650.44,-297.78C671.45,-344.04 713.78,-437.27 727.71,-467.95"/>
</g>
<!-- pollution&#45;&#45;nickel -->
<g id="edge5" class="edge">
<title>pollution&#45;&#45;nickel</title>
<path fill="none" stroke="darkgrey" stroke-width="6.27" d="M610.51,-263.05C587.48,-256.34 554.79,-246.82 530.77,-239.82"/>
</g>
<!-- pollution&#45;&#45;exploitation -->
<g id="edge6" class="edge">
<title>pollution&#45;&#45;exploitation</title>
<path fill="none" stroke="darkgrey" stroke-width="2.26" d="M636.32,-242.23C633.7,-204.93 629.23,-141.49 627.22,-112.95"/>
</g>
<!-- pollution&#45;&#45;montagne -->
<g id="edge7" class="edge">
<title>pollution&#45;&#45;montagne</title>
<path fill="none" stroke="darkgrey" stroke-width="1.89" d="M612.4,-257.32C558.11,-228.36 435.19,-162.79 406.22,-147.34"/>
</g>
<!-- pollution&#45;&#45;camion -->
<g id="edge8" class="edge">
<title>pollution&#45;&#45;camion</title>
<path fill="none" stroke="darkgrey" stroke-width="2.64" d="M623.6,-246.13C601.1,-207.98 559.24,-136.98 544.04,-111.2"/>
</g>
<!-- pollution&#45;&#45;économie -->
<g id="edge9" class="edge">
<title>pollution&#45;&#45;économie</title>
<path fill="none" stroke="darkgrey" stroke-width="5.37" d="M627.37,-244.18C619.39,-224.58 608.85,-198.68 602.06,-182.01"/>
</g>
<!-- pollution&#45;&#45;impact environnemental -->
<g id="edge10" class="edge">
<title>pollution&#45;&#45;impact environnemental</title>
<path fill="none" stroke="darkgrey" stroke-width="4.45" d="M635.43,-242.09C635.42,-242 635.41,-241.91 635.4,-241.82"/>
</g>
<!-- pollution&#45;&#45;terre -->
<g id="edge11" class="edge">
<title>pollution&#45;&#45;terre</title>
<path fill="none" stroke="darkgrey" stroke-width="1.65" d="M617.42,-250.69C584.87,-218.88 524,-159.37 505.77,-141.55"/>
</g>
<!-- pollution&#45;&#45;usine -->
<g id="edge12" class="edge">
<title>pollution&#45;&#45;usine</title>
<path fill="none" stroke="darkgrey" stroke-width="2.33" d="M667.14,-264.96C684.14,-261.29 704.35,-256.93 714.84,-254.67"/>
</g>
<!-- pollution&#45;&#45;érosion -->
<g id="edge13" class="edge">
<title>pollution&#45;&#45;érosion</title>
<path fill="none" stroke="darkgrey" stroke-width="1.09" d="M667.25,-275.76C732.45,-286.14 886.33,-310.62 898.25,-312.52"/>
</g>
<!-- pollution&#45;&#45;sln -->
<g id="edge14" class="edge">
<title>pollution&#45;&#45;sln</title>
<path fill="none" stroke="darkgrey" stroke-width="1.21" d="M609.32,-273.18C558.21,-276.73 454.91,-283.91 426.87,-285.86"/>
</g>
<!-- pollution&#45;&#45;ressource -->
<g id="edge15" class="edge">
<title>pollution&#45;&#45;ressource</title>
<path fill="none" stroke="darkgrey" stroke-width="1.55" d="M654.73,-295.41C664.22,-309.47 675.41,-326.04 681.22,-334.64"/>
</g>
<!-- pollution&#45;&#45;conflit -->
<g id="edge16" class="edge">
<title>pollution&#45;&#45;conflit</title>
<path fill="none" stroke="darkgrey" stroke-width="2.21" d="M628.91,-243.39C608.9,-184.54 563.18,-50.11 552.4,-18.41"/>
</g>
<!-- pollution&#45;&#45;développement -->
<g id="edge17" class="edge">
<title>pollution&#45;&#45;développement</title>
<path fill="none" stroke="darkgrey" stroke-width="1.98" d="M631.95,-299.85C618.76,-358.88 589.39,-490.37 584.22,-513.52"/>
</g>
<!-- pollution&#45;&#45;minerai -->
<g id="edge18" class="edge">
<title>pollution&#45;&#45;minerai</title>
<path fill="none" stroke="darkgrey" stroke-width="2.28" d="M655.42,-247.62C676.29,-218.81 710.6,-171.45 724.84,-151.79"/>
</g>
<!-- pollution&#45;&#45;déforestation -->
<g id="edge19" class="edge">
<title>pollution&#45;&#45;déforestation</title>
<path fill="none" stroke="darkgrey" stroke-width="1.74" d="M659.51,-291.03C698.43,-327.59 778.9,-403.17 794.85,-418.15"/>
</g>
<!-- emploi&#45;&#45;richesse -->
<g id="edge20" class="edge">
<title>emploi&#45;&#45;richesse</title>
<path fill="none" stroke="darkgrey" stroke-width="3.5" d="M580.33,-270.57C610.18,-215.66 669.81,-105.96 688.14,-72.23"/>
</g>
<!-- emploi&#45;&#45;démolition -->
<g id="edge21" class="edge">
<title>emploi&#45;&#45;démolition</title>
<path fill="none" stroke="darkgrey" stroke-width="2.99" d="M596.71,-288.72C651.6,-266.31 756.92,-223.31 784.7,-211.97"/>
</g>
<!-- emploi&#45;&#45;argent -->
<g id="edge22" class="edge">
<title>emploi&#45;&#45;argent</title>
<path fill="none" stroke="darkgrey" stroke-width="2.96" d="M588.33,-328.76C627.44,-369.31 700.48,-445.04 724.44,-469.87"/>
</g>
<!-- emploi&#45;&#45;nickel -->
<g id="edge23" class="edge">
<title>emploi&#45;&#45;nickel</title>
<path fill="none" stroke="darkgrey" stroke-width="7.72" d="M538.82,-275.3C532.89,-268.62 526.56,-261.51 520.75,-254.97"/>
</g>
<!-- emploi&#45;&#45;exploitation -->
<g id="edge24" class="edge">
<title>emploi&#45;&#45;exploitation</title>
<path fill="none" stroke="darkgrey" stroke-width="3.02" d="M573.71,-267.85C587.8,-222.33 611.9,-144.43 621.78,-112.53"/>
</g>
<!-- emploi&#45;&#45;montagne -->
<g id="edge25" class="edge">
<title>emploi&#45;&#45;montagne</title>
<path fill="none" stroke="darkgrey" stroke-width="1.37" d="M537.16,-277.38C497.67,-238.98 424.77,-168.1 405.05,-148.92"/>
</g>
<!-- emploi&#45;&#45;camion -->
<g id="edge26" class="edge">
<title>emploi&#45;&#45;camion</title>
<path fill="none" stroke="darkgrey" stroke-width="2.21" d="M558.58,-266.56C552.87,-220.05 543.24,-141.53 539.7,-112.63"/>
</g>
<!-- emploi&#45;&#45;économie -->
<g id="edge27" class="edge">
<title>emploi&#45;&#45;économie</title>
<path fill="none" stroke="darkgrey" stroke-width="6.58" d="M571.3,-267.17C577.65,-240.18 586.14,-204.12 591.12,-182.95"/>
</g>
<!-- emploi&#45;&#45;impact environnemental -->
<g id="edge28" class="edge">
<title>emploi&#45;&#45;impact environnemental</title>
<path fill="none" stroke="darkgrey" stroke-width="6.22" d="M586.37,-275.07C597.23,-262.35 609.77,-247.65 619.14,-236.66"/>
</g>
<!-- emploi&#45;&#45;terre -->
<g id="edge32" class="edge">
<title>emploi&#45;&#45;terre</title>
<path fill="none" stroke="darkgrey" stroke-width="1.96" d="M550.19,-268.47C535.04,-228.23 510.89,-164.05 503.04,-143.18"/>
</g>
<!-- emploi&#45;&#45;usine -->
<g id="edge33" class="edge">
<title>emploi&#45;&#45;usine</title>
<path fill="none" stroke="darkgrey" stroke-width="1.8" d="M597.49,-291.78C635.84,-279.87 695.04,-261.49 715.08,-255.27"/>
</g>
<!-- emploi&#45;&#45;érosion -->
<g id="edge34" class="edge">
<title>emploi&#45;&#45;érosion</title>
<path fill="none" stroke="darkgrey" stroke-width="1.03" d="M599.26,-303.58C683.43,-306.13 885.81,-312.24 898.37,-312.62"/>
</g>
<!-- emploi&#45;&#45;sln -->
<g id="edge35" class="edge">
<title>emploi&#45;&#45;sln</title>
<path fill="none" stroke="darkgrey" stroke-width="1.83" d="M527.2,-298.46C493.22,-294.63 444.73,-289.17 426.76,-287.15"/>
</g>
<!-- emploi&#45;&#45;ressource -->
<g id="edge36" class="edge">
<title>emploi&#45;&#45;ressource</title>
<path fill="none" stroke="darkgrey" stroke-width="2.05" d="M597.67,-313.28C625.61,-321.96 662.67,-333.49 678.03,-338.27"/>
</g>
<!-- emploi&#45;&#45;conflit -->
<g id="edge37" class="edge">
<title>emploi&#45;&#45;conflit</title>
<path fill="none" stroke="darkgrey" stroke-width="3.2" d="M561.38,-266.24C558.34,-197.71 551.93,-52.96 550.42,-18.91"/>
</g>
<!-- emploi&#45;&#45;développement -->
<g id="edge38" class="edge">
<title>emploi&#45;&#45;développement</title>
<path fill="none" stroke="darkgrey" stroke-width="1.58" d="M566.41,-338.4C571.62,-393.03 581.13,-492.86 583.08,-513.31"/>
</g>
<!-- emploi&#45;&#45;minerai -->
<g id="edge39" class="edge">
<title>emploi&#45;&#45;minerai</title>
<path fill="none" stroke="darkgrey" stroke-width="1.75" d="M589.29,-277.54C628.33,-240.52 699.53,-172.99 723.35,-150.39"/>
</g>
<!-- emploi&#45;&#45;déforestation -->
<g id="edge40" class="edge">
<title>emploi&#45;&#45;déforestation</title>
<path fill="none" stroke="darkgrey" stroke-width="1.96" d="M595.61,-318.93C654.04,-348.38 772.48,-408.08 794.18,-419.02"/>
</g>
<!-- emploi&#45;&#45;roche -->
<g id="edge29" class="edge">
<title>emploi&#45;&#45;roche</title>
<path fill="none" stroke="darkgrey" stroke-width="1.26" d="M545.07,-271.17C508.89,-207.94 428.73,-67.82 406.9,-29.66"/>
</g>
<!-- emploi&#45;&#45;terre rouge -->
<g id="edge30" class="edge">
<title>emploi&#45;&#45;terre rouge</title>
<path fill="none" stroke="darkgrey" stroke-width="1.67" d="M529.18,-315.08C456.92,-342 291.88,-403.48 266.53,-412.92"/>
</g>
<!-- emploi&#45;&#45;industrie -->
<g id="edge31" class="edge">
<title>emploi&#45;&#45;industrie</title>
<path fill="none" stroke="darkgrey" stroke-width="1.06" d="M543.58,-332.94C491,-415.46 349.14,-638.08 340.32,-651.91"/>
</g>
<!-- emploi&#45;&#45;exportation -->
<g id="edge41" class="edge">
<title>emploi&#45;&#45;exportation</title>
<path fill="none" stroke="darkgrey" stroke-width="1.17" d="M540.77,-330.94C509.29,-371.25 454.21,-441.79 442.54,-456.74"/>
</g>
<!-- richesse&#45;&#45;démolition -->
<g id="edge42" class="edge">
<title>richesse&#45;&#45;démolition</title>
<path fill="none" stroke="darkgrey" stroke-width="1.09" d="M699.76,-71.33C718.09,-98.87 772.23,-180.17 787.5,-203.09"/>
</g>
<!-- richesse&#45;&#45;nickel -->
<g id="edge43" class="edge">
<title>richesse&#45;&#45;nickel</title>
<path fill="none" stroke="darkgrey" stroke-width="2.37" d="M685.27,-69.37C657.56,-93.36 567.99,-170.92 523.96,-209.03"/>
</g>
<!-- richesse&#45;&#45;exploitation -->
<g id="edge44" class="edge">
<title>richesse&#45;&#45;exploitation</title>
<path fill="none" stroke="darkgrey" stroke-width="1.23" d="M683.68,-67.46C671.95,-73.75 652.43,-84.21 639.43,-91.17"/>
</g>
<!-- richesse&#45;&#45;économie -->
<g id="edge45" class="edge">
<title>richesse&#45;&#45;économie</title>
<path fill="none" stroke="darkgrey" stroke-width="1.72" d="M685.91,-70.23C668.97,-88 628.42,-130.55 607.78,-152.2"/>
</g>
<!-- richesse&#45;&#45;impact environnemental -->
<g id="edge46" class="edge">
<title>richesse&#45;&#45;impact environnemental</title>
<path fill="none" stroke="darkgrey" stroke-width="2.57" d="M689.67,-72.5C679.8,-98.32 653.98,-165.85 640.96,-199.9"/>
</g>
<!-- richesse&#45;&#45;terre -->
<g id="edge47" class="edge">
<title>richesse&#45;&#45;terre</title>
<path fill="none" stroke="darkgrey" stroke-width="1.12" d="M683.25,-66.12C648.3,-79.56 535.55,-122.9 507.07,-133.85"/>
</g>
<!-- démolition&#45;&#45;nickel -->
<g id="edge48" class="edge">
<title>démolition&#45;&#45;nickel</title>
<path fill="none" stroke="darkgrey" stroke-width="1.55" d="M784.32,-209.7C749.57,-212.25 598.67,-223.29 531.51,-228.21"/>
</g>
<!-- démolition&#45;&#45;économie -->
<g id="edge49" class="edge">
<title>démolition&#45;&#45;économie</title>
<path fill="none" stroke="darkgrey" stroke-width="1.23" d="M784.56,-207.61C756.91,-201.43 654.56,-178.57 612.99,-169.28"/>
</g>
<!-- démolition&#45;&#45;impact environnemental -->
<g id="edge50" class="edge">
<title>démolition&#45;&#45;impact environnemental</title>
<path fill="none" stroke="darkgrey" stroke-width="1.27" d="M784.33,-209.67C761.59,-211.25 690.75,-216.17 654.73,-218.67"/>
</g>
<!-- argent&#45;&#45;nickel -->
<g id="edge51" class="edge">
<title>argent&#45;&#45;nickel</title>
<path fill="none" stroke="darkgrey" stroke-width="2.78" d="M724.51,-469.76C692.74,-436.05 571.88,-307.83 521.42,-254.29"/>
</g>
<!-- nickel&#45;&#45;exploitation -->
<g id="edge52" class="edge">
<title>nickel&#45;&#45;exploitation</title>
<path fill="none" stroke="darkgrey" stroke-width="3.58" d="M521.8,-206.93C549.65,-177.94 595.64,-130.07 615.98,-108.9"/>
</g>
<!-- nickel&#45;&#45;montagne -->
<g id="edge53" class="edge">
<title>nickel&#45;&#45;montagne</title>
<path fill="none" stroke="darkgrey" stroke-width="2.68" d="M474.59,-209.19C451.44,-188.96 418.39,-160.09 405.48,-148.81"/>
</g>
<!-- nickel&#45;&#45;camion -->
<g id="edge54" class="edge">
<title>nickel&#45;&#45;camion</title>
<path fill="none" stroke="darkgrey" stroke-width="4.09" d="M508.58,-199.34C517.16,-171.14 529.29,-131.27 535.05,-112.33"/>
</g>
<!-- nickel&#45;&#45;économie -->
<g id="edge55" class="edge">
<title>nickel&#45;&#45;économie</title>
<path fill="none" stroke="darkgrey" stroke-width="4.8" d="M526.13,-212.23C543.69,-200.32 565.91,-185.24 580.35,-175.45"/>
</g>
<!-- nickel&#45;&#45;impact environnemental -->
<g id="edge56" class="edge">
<title>nickel&#45;&#45;impact environnemental</title>
<path fill="none" stroke="darkgrey" stroke-width="4.26" d="M531.55,-228.06C556.36,-226.13 589.87,-223.53 611.52,-221.85"/>
</g>
<!-- nickel&#45;&#45;terre -->
<g id="edge59" class="edge">
<title>nickel&#45;&#45;terre</title>
<path fill="none" stroke="darkgrey" stroke-width="2.01" d="M499.56,-197.9C499.85,-178.34 500.2,-155.12 500.37,-143.6"/>
</g>
<!-- nickel&#45;&#45;usine -->
<g id="edge60" class="edge">
<title>nickel&#45;&#45;usine</title>
<path fill="none" stroke="darkgrey" stroke-width="3.34" d="M531.49,-233.86C584.62,-239.23 687.11,-249.6 714.89,-252.41"/>
</g>
<!-- nickel&#45;&#45;sln -->
<g id="edge61" class="edge">
<title>nickel&#45;&#45;sln</title>
<path fill="none" stroke="darkgrey" stroke-width="3.47" d="M472.2,-249.46C455.47,-261.22 435.34,-275.37 425.58,-282.22"/>
</g>
<!-- nickel&#45;&#45;ressource -->
<g id="edge62" class="edge">
<title>nickel&#45;&#45;ressource</title>
<path fill="none" stroke="darkgrey" stroke-width="1.7" d="M527.34,-247.27C571.87,-273.57 655.72,-323.09 679.02,-336.86"/>
</g>
<!-- nickel&#45;&#45;conflit -->
<g id="edge65" class="edge">
<title>nickel&#45;&#45;conflit</title>
<path fill="none" stroke="darkgrey" stroke-width="1.26" d="M506.49,-198.74C518.65,-146.56 542.11,-45.88 548.47,-18.59"/>
</g>
<!-- nickel&#45;&#45;minerai -->
<g id="edge66" class="edge">
<title>nickel&#45;&#45;minerai</title>
<path fill="none" stroke="darkgrey" stroke-width="3.44" d="M529.92,-218.92C582.49,-199.06 687.03,-159.55 720.67,-146.84"/>
</g>
<!-- nickel&#45;&#45;déforestation -->
<g id="edge67" class="edge">
<title>nickel&#45;&#45;déforestation</title>
<path fill="none" stroke="darkgrey" stroke-width="1.79" d="M526.63,-248.13C595.05,-291.72 769.05,-402.56 794.5,-418.77"/>
</g>
<!-- nickel&#45;&#45;roche -->
<g id="edge57" class="edge">
<title>nickel&#45;&#45;roche</title>
<path fill="none" stroke="darkgrey" stroke-width="2.17" d="M485.28,-200.84C463.07,-152.98 420.43,-61.1 406.13,-30.28"/>
</g>
<!-- nickel&#45;&#45;terre rouge -->
<g id="edge58" class="edge">
<title>nickel&#45;&#45;terre rouge</title>
<path fill="none" stroke="darkgrey" stroke-width="2.29" d="M473.39,-250.57C417.28,-294.25 287.1,-395.58 266.12,-411.91"/>
</g>
<!-- nickel&#45;&#45;exportation -->
<g id="edge68" class="edge">
<title>nickel&#45;&#45;exportation</title>
<path fill="none" stroke="darkgrey" stroke-width="1.55" d="M490.91,-262.42C476.34,-319.2 446.88,-434.04 441.27,-455.92"/>
</g>
<!-- nickel&#45;&#45;main d’oeuvre -->
<g id="edge63" class="edge">
<title>nickel&#45;&#45;main d’oeuvre</title>
<path fill="none" stroke="darkgrey" stroke-width="1.06" d="M466.62,-226.61C378.57,-215.83 139.52,-186.58 106.34,-182.52"/>
</g>
<!-- nickel&#45;&#45;usine du sud -->
<g id="edge64" class="edge">
<title>nickel&#45;&#45;usine du sud</title>
<path fill="none" stroke="darkgrey" stroke-width="1.8" d="M471.73,-212.57C395.58,-162.43 184.87,-23.69 157.22,-5.48"/>
</g>
<!-- exploitation&#45;&#45;camion -->
<g id="edge69" class="edge">
<title>exploitation&#45;&#45;camion</title>
<path fill="none" stroke="darkgrey" stroke-width="1.28" d="M611.68,-98.81C594.24,-99.45 565.33,-100.53 549.52,-101.11"/>
</g>
<!-- exploitation&#45;&#45;économie -->
<g id="edge70" class="edge">
<title>exploitation&#45;&#45;économie</title>
<path fill="none" stroke="darkgrey" stroke-width="1.57" d="M620.08,-111.52C615.15,-122.2 608.19,-137.29 602.9,-148.78"/>
</g>
<!-- exploitation&#45;&#45;impact environnemental -->
<g id="edge71" class="edge">
<title>exploitation&#45;&#45;impact environnemental</title>
<path fill="none" stroke="darkgrey" stroke-width="2.46" d="M627.05,-113.21C628.28,-134.57 630.55,-173.96 631.97,-198.51"/>
</g>
<!-- exploitation&#45;&#45;terre -->
<g id="edge73" class="edge">
<title>exploitation&#45;&#45;terre</title>
<path fill="none" stroke="darkgrey" stroke-width="1.12" d="M612.26,-102.49C585.41,-110.63 527.39,-128.22 507.41,-134.28"/>
</g>
<!-- exploitation&#45;&#45;usine -->
<g id="edge74" class="edge">
<title>exploitation&#45;&#45;usine</title>
<path fill="none" stroke="darkgrey" stroke-width="1.7" d="M633.87,-110.68C653.31,-142.12 703.97,-224.01 718.21,-247.03"/>
</g>
<!-- exploitation&#45;&#45;ressource -->
<g id="edge75" class="edge">
<title>exploitation&#45;&#45;ressource</title>
<path fill="none" stroke="darkgrey" stroke-width="1.67" d="M629.7,-112.69C640.86,-158.53 675.25,-299.76 683.42,-333.29"/>
</g>
<!-- exploitation&#45;&#45;minerai -->
<g id="edge76" class="edge">
<title>exploitation&#45;&#45;minerai</title>
<path fill="none" stroke="darkgrey" stroke-width="2.42" d="M639.94,-104.09C661.32,-113.14 702.05,-130.39 721.08,-138.45"/>
</g>
<!-- exploitation&#45;&#45;roche -->
<g id="edge72" class="edge">
<title>exploitation&#45;&#45;roche</title>
<path fill="none" stroke="darkgrey" stroke-width="1.41" d="M612.46,-93.48C571.27,-79.13 449.27,-36.62 412.15,-23.68"/>
</g>
<!-- montagne&#45;&#45;camion -->
<g id="edge77" class="edge">
<title>montagne&#45;&#45;camion</title>
<path fill="none" stroke="darkgrey" stroke-width="1.37" d="M407.07,-141.86C429.64,-134.93 500.24,-113.24 527.47,-104.87"/>
</g>
<!-- montagne&#45;&#45;économie -->
<g id="edge78" class="edge">
<title>montagne&#45;&#45;économie</title>
<path fill="none" stroke="darkgrey" d="M407.43,-144.84C435.51,-147.9 535.76,-158.84 577.17,-163.35"/>
</g>
<!-- montagne&#45;&#45;terre -->
<g id="edge80" class="edge">
<title>montagne&#45;&#45;terre</title>
<path fill="none" stroke="darkgrey" stroke-width="1.13" d="M407.24,-143.48C425.78,-142.07 474.86,-138.33 493.32,-136.93"/>
</g>
<!-- montagne&#45;&#45;roche -->
<g id="edge79" class="edge">
<title>montagne&#45;&#45;roche</title>
<path fill="none" stroke="darkgrey" stroke-width="1.07" d="M400.09,-137C400.31,-116.38 400.94,-55.96 401.2,-30.94"/>
</g>
<!-- camion&#45;&#45;économie -->
<g id="edge81" class="edge">
<title>camion&#45;&#45;économie</title>
<path fill="none" stroke="darkgrey" stroke-width="1.18" d="M545.78,-109.87C555.31,-120.54 571.92,-139.17 583.25,-151.86"/>
</g>
<!-- camion&#45;&#45;impact environnemental -->
<g id="edge82" class="edge">
<title>camion&#45;&#45;impact environnemental</title>
<path fill="none" stroke="darkgrey" stroke-width="1.47" d="M545.47,-110.45C561.24,-130.17 599.3,-177.76 619.73,-203.29"/>
</g>
<!-- camion&#45;&#45;terre -->
<g id="edge84" class="edge">
<title>camion&#45;&#45;terre</title>
<path fill="none" stroke="darkgrey" stroke-width="1.23" d="M529.94,-109.26C522.62,-116 512.22,-125.57 505.93,-131.36"/>
</g>
<!-- camion&#45;&#45;usine -->
<g id="edge85" class="edge">
<title>camion&#45;&#45;usine</title>
<path fill="none" stroke="darkgrey" stroke-width="1.87" d="M547.2,-108.84C579.44,-135.46 690.02,-226.74 716.33,-248.46"/>
</g>
<!-- camion&#45;&#45;sln -->
<g id="edge86" class="edge">
<title>camion&#45;&#45;sln</title>
<path fill="none" stroke="darkgrey" stroke-width="1.19" d="M532.29,-110.95C511.14,-143.9 440.8,-253.48 423.55,-280.36"/>
</g>
<!-- camion&#45;&#45;minerai -->
<g id="edge87" class="edge">
<title>camion&#45;&#45;minerai</title>
<path fill="none" stroke="darkgrey" stroke-width="1.56" d="M549.27,-103.87C583.24,-111.13 686.74,-133.26 720.55,-140.49"/>
</g>
<!-- camion&#45;&#45;roche -->
<g id="edge83" class="edge">
<title>camion&#45;&#45;roche</title>
<path fill="none" stroke="darkgrey" stroke-width="1.39" d="M528.48,-95.66C503.2,-80.6 436.26,-40.72 411.08,-25.72"/>
</g>
<!-- économie&#45;&#45;impact environnemental -->
<g id="edge88" class="edge">
<title>économie&#45;&#45;impact environnemental</title>
<path fill="none" stroke="darkgrey" stroke-width="5.25" d="M605.64,-180.31C610.38,-187.16 616.03,-195.32 620.98,-202.47"/>
</g>
<!-- économie&#45;&#45;terre -->
<g id="edge89" class="edge">
<title>économie&#45;&#45;terre</title>
<path fill="none" stroke="darkgrey" stroke-width="1.09" d="M577.88,-160.02C556.72,-153.55 521.99,-142.95 507.34,-138.48"/>
</g>
<!-- économie&#45;&#45;usine -->
<g id="edge90" class="edge">
<title>économie&#45;&#45;usine</title>
<path fill="none" stroke="darkgrey" stroke-width="1.28" d="M610.3,-175.74C638.36,-195.18 697.55,-236.2 716.21,-249.13"/>
</g>
<!-- économie&#45;&#45;sln -->
<g id="edge91" class="edge">
<title>économie&#45;&#45;sln</title>
<path fill="none" stroke="darkgrey" stroke-width="1.61" d="M580.3,-175.64C543.48,-201.02 449.75,-265.64 425.5,-282.36"/>
</g>
<!-- économie&#45;&#45;ressource -->
<g id="edge92" class="edge">
<title>économie&#45;&#45;ressource</title>
<path fill="none" stroke="darkgrey" stroke-width="1.04" d="M603.57,-181.49C622.69,-218.76 669.21,-309.39 681.92,-334.15"/>
</g>
<!-- économie&#45;&#45;conflit -->
<g id="edge93" class="edge">
<title>économie&#45;&#45;conflit</title>
<path fill="none" stroke="darkgrey" stroke-width="1.72" d="M590.18,-147.99C580.25,-114.24 558.73,-41 552.09,-18.41"/>
</g>
<!-- économie&#45;&#45;minerai -->
<g id="edge94" class="edge">
<title>économie&#45;&#45;minerai</title>
<path fill="none" stroke="darkgrey" stroke-width="1.07" d="M613.06,-162.38C641.59,-157.66 696.76,-148.53 720.29,-144.63"/>
</g>
<!-- impact environnemental&#45;&#45;terre -->
<g id="edge95" class="edge">
<title>impact environnemental&#45;&#45;terre</title>
<path fill="none" stroke="darkgrey" stroke-width="1.03" d="M614.76,-208.51C584.41,-189.36 525.45,-152.14 506.5,-140.18"/>
</g>
<!-- impact environnemental&#45;&#45;usine -->
<g id="edge96" class="edge">
<title>impact environnemental&#45;&#45;usine</title>
<path fill="none" stroke="darkgrey" stroke-width="1.42" d="M653.8,-227.81C673.67,-235.19 702.58,-245.92 715.42,-250.69"/>
</g>
<!-- impact environnemental&#45;&#45;sln -->
<g id="edge97" class="edge">
<title>impact environnemental&#45;&#45;sln</title>
<path fill="none" stroke="darkgrey" stroke-width="1.15" d="M612.36,-226.63C565.77,-241.07 455.1,-275.38 426.53,-284.24"/>
</g>
<!-- impact environnemental&#45;&#45;ressource -->
<g id="edge98" class="edge">
<title>impact environnemental&#45;&#45;ressource</title>
<path fill="none" stroke="darkgrey" stroke-width="1.14" d="M641.8,-240.03C653.73,-267.66 674.72,-316.29 682.32,-333.89"/>
</g>
<!-- impact environnemental&#45;&#45;conflit -->
<g id="edge99" class="edge">
<title>impact environnemental&#45;&#45;conflit</title>
<path fill="none" stroke="darkgrey" stroke-width="1.07" d="M625.25,-200.16C607.21,-154.9 563.94,-46.36 552.77,-18.33"/>
</g>
<!-- impact environnemental&#45;&#45;développement -->
<g id="edge100" class="edge">
<title>impact environnemental&#45;&#45;développement</title>
<path fill="none" stroke="darkgrey" stroke-width="1.23" d="M629.64,-241.51C619.12,-304.26 588.73,-485.47 584.05,-513.4"/>
</g>
<!-- impact environnemental&#45;&#45;exportation -->
<g id="edge102" class="edge">
<title>impact environnemental&#45;&#45;exportation</title>
<path fill="none" stroke="darkgrey" stroke-width="1.28" d="M619.65,-236.99C579.18,-287.23 460.93,-434 442.7,-456.63"/>
</g>
<!-- impact environnemental&#45;&#45;épuisable -->
<g id="edge101" class="edge">
<title>impact environnemental&#45;&#45;épuisable</title>
<path fill="none" stroke="darkgrey" stroke-width="1.06" d="M651.84,-208.85C717.06,-169.26 931.91,-38.82 945.28,-30.71"/>
</g>
<!-- usine&#45;&#45;minerai -->
<g id="edge103" class="edge">
<title>usine&#45;&#45;minerai</title>
<path fill="none" stroke="darkgrey" stroke-width="2.09" d="M722.59,-245.89C724.19,-227.1 728.48,-176.65 730.4,-154.04"/>
</g>
<!-- ressource&#45;&#45;minerai -->
<g id="edge104" class="edge">
<title>ressource&#45;&#45;minerai</title>
<path fill="none" stroke="darkgrey" stroke-width="1.17" d="M686.81,-333.45C693.72,-303.87 720.45,-189.5 728.83,-153.63"/>
</g>
<!-- pollution -->
<g id="node1" class="node">
<title>pollution</title>
<ellipse fill="#fb9606" stroke="white" stroke-width="0" cx="638.36" cy="-271.16" rx="29" ry="29"/>
<text text-anchor="middle" x="663.36" y="-307.32" font-family="Helvetica,sans-Serif" font-size="24.80" fill="#4d4d4d">pollution</text>
</g>
<!-- emploi -->
<g id="node2" class="node">
<title>emploi</title>
<ellipse fill="#fcffa4" stroke="white" stroke-width="0" cx="562.99" cy="-302.49" rx="36" ry="36"/>
<text text-anchor="middle" x="479.49" y="-347.09" font-family="Helvetica,sans-Serif" font-size="28.00" fill="#4d4d4d">emploi</text>
</g>
<!-- richesse -->
<g id="node3" class="node">
<title>richesse</title>
<ellipse fill="#69166e" stroke="white" stroke-width="0" cx="693.63" cy="-62.13" rx="11" ry="11"/>
<text text-anchor="middle" x="647.63" y="-55.69" font-family="Helvetica,sans-Serif" font-size="16.80" fill="#4d4d4d">richesse</text>
</g>
<!-- démolition -->
<g id="node4" class="node">
<title>démolition</title>
<ellipse fill="#3b0964" stroke="white" stroke-width="0" cx="791.55" cy="-209.17" rx="7" ry="7"/>
<text text-anchor="middle" x="743.55" y="-221.01" font-family="Helvetica,sans-Serif" font-size="15.20" fill="#4d4d4d">démolition</text>
</g>
<!-- argent -->
<g id="node5" class="node">
<title>argent</title>
<ellipse fill="#520e6d" stroke="white" stroke-width="0" cx="732.26" cy="-477.99" rx="11" ry="11"/>
<text text-anchor="middle" x="693.26" y="-493.55" font-family="Helvetica,sans-Serif" font-size="16.80" fill="#4d4d4d">argent</text>
</g>
<!-- nickel -->
<g id="node6" class="node">
<title>nickel</title>
<ellipse fill="#fac42a" stroke="white" stroke-width="0" cx="499.08" cy="-230.58" rx="32.5" ry="32.5"/>
<text text-anchor="middle" x="428.08" y="-205.96" font-family="Helvetica,sans-Serif" font-size="26.40" fill="#4d4d4d">nickel</text>
</g>
<!-- exploitation -->
<g id="node7" class="node">
<title>exploitation</title>
<ellipse fill="#9a2865" stroke="white" stroke-width="0" cx="626.19" cy="-98.27" rx="14.5" ry="14.5"/>
<text text-anchor="middle" x="556.19" y="-69.05" font-family="Helvetica,sans-Serif" font-size="18.40" fill="#4d4d4d">exploitation</text>
</g>
<!-- montagne -->
<g id="node8" class="node">
<title>montagne</title>
<ellipse fill="#3d0965" stroke="white" stroke-width="0" cx="400.02" cy="-144.03" rx="7" ry="7"/>
<text text-anchor="middle" x="354.02" y="-155.87" font-family="Helvetica,sans-Serif" font-size="15.20" fill="#4d4d4d">montagne</text>
</g>
<!-- camion -->
<g id="node9" class="node">
<title>camion</title>
<ellipse fill="#64156e" stroke="white" stroke-width="0" cx="538.34" cy="-101.53" rx="11" ry="11"/>
<text text-anchor="middle" x="496.34" y="-95.09" font-family="Helvetica,sans-Serif" font-size="16.80" fill="#4d4d4d">camion</text>
</g>
<!-- économie -->
<g id="node10" class="node">
<title>économie</title>
<ellipse fill="#c03a51" stroke="white" stroke-width="0" cx="595.27" cy="-165.33" rx="18" ry="18"/>
<text text-anchor="middle" x="528.77" y="-153.33" font-family="Helvetica,sans-Serif" font-size="20.00" fill="#4d4d4d">économie</text>
</g>
<!-- impact environnemental -->
<g id="node11" class="node">
<title>impact environnemental</title>
<ellipse fill="#d34743" stroke="white" stroke-width="0" cx="633.22" cy="-220.16" rx="21.5" ry="21.5"/>
<text text-anchor="middle" x="787.22" y="-181.38" font-family="Helvetica,sans-Serif" font-size="21.60" fill="#4d4d4d">impact environnemental</text>
</g>
<!-- terre -->
<g id="node12" class="node">
<title>terre</title>
<ellipse fill="#3b0964" stroke="white" stroke-width="0" cx="500.48" cy="-136.38" rx="7" ry="7"/>
<text text-anchor="middle" x="474.98" y="-134.22" font-family="Helvetica,sans-Serif" font-size="15.20" fill="#4d4d4d">terre</text>
</g>
<!-- usine -->
<g id="node13" class="node">
<title>usine</title>
<ellipse fill="#4f0d6c" stroke="white" stroke-width="0" cx="721.98" cy="-253.13" rx="7" ry="7"/>
<text text-anchor="middle" x="693.98" y="-264.97" font-family="Helvetica,sans-Serif" font-size="15.20" fill="#4d4d4d">usine</text>
</g>
<!-- érosion -->
<g id="node14" class="node">
<title>érosion</title>
<ellipse fill="#02020c" stroke="white" stroke-width="0" cx="898.99" cy="-312.64" rx="0.5" ry="0.5"/>
<text text-anchor="middle" x="876.49" y="-316.54" font-family="Helvetica,sans-Serif" font-size="12.00" fill="#4d4d4d">érosion</text>
</g>
<!-- sln -->
<g id="node15" class="node">
<title>sln</title>
<ellipse fill="#3d0965" stroke="white" stroke-width="0" cx="419.71" cy="-286.35" rx="7" ry="7"/>
<text text-anchor="middle" x="401.21" y="-298.19" font-family="Helvetica,sans-Serif" font-size="15.20" fill="#4d4d4d">sln</text>
</g>
<!-- ressource -->
<g id="node16" class="node">
<title>ressource</title>
<ellipse fill="#440a68" stroke="white" stroke-width="0" cx="685.17" cy="-340.49" rx="7" ry="7"/>
<text text-anchor="middle" x="641.17" y="-352.33" font-family="Helvetica,sans-Serif" font-size="15.20" fill="#4d4d4d">ressource</text>
</g>
<!-- conflit -->
<g id="node17" class="node">
<title>conflit</title>
<ellipse fill="#360961" stroke="white" stroke-width="0" cx="550.09" cy="-11.63" rx="7" ry="7"/>
<text text-anchor="middle" x="519.09" y="-23.47" font-family="Helvetica,sans-Serif" font-size="15.20" fill="#4d4d4d">conflit</text>
</g>
<!-- développement -->
<g id="node18" class="node">
<title>développement</title>
<ellipse fill="#0b0724" stroke="white" stroke-width="0" cx="583.44" cy="-517.03" rx="3.5" ry="3.5"/>
<text text-anchor="middle" x="525.94" y="-524.65" font-family="Helvetica,sans-Serif" font-size="13.60" fill="#4d4d4d">développement</text>
</g>
<!-- minerai -->
<g id="node19" class="node">
<title>minerai</title>
<ellipse fill="#510e6c" stroke="white" stroke-width="0" cx="731.36" cy="-142.8" rx="11" ry="11"/>
<text text-anchor="middle" x="688.36" y="-158.36" font-family="Helvetica,sans-Serif" font-size="16.80" fill="#4d4d4d">minerai</text>
</g>
<!-- déforestation -->
<g id="node20" class="node">
<title>déforestation</title>
<ellipse fill="#1c0c43" stroke="white" stroke-width="0" cx="797.63" cy="-420.76" rx="3.5" ry="3.5"/>
<text text-anchor="middle" x="749.13" y="-428.38" font-family="Helvetica,sans-Serif" font-size="13.60" fill="#4d4d4d">déforestation</text>
</g>
<!-- roche -->
<g id="node21" class="node">
<title>roche</title>
<ellipse fill="#510e6c" stroke="white" stroke-width="0" cx="401.32" cy="-19.91" rx="11" ry="11"/>
<text text-anchor="middle" x="366.82" y="-35.47" font-family="Helvetica,sans-Serif" font-size="16.80" fill="#4d4d4d">roche</text>
</g>
<!-- terre rouge -->
<g id="node22" class="node">
<title>terre rouge</title>
<ellipse fill="#1e0c45" stroke="white" stroke-width="0" cx="263.24" cy="-414.15" rx="3.5" ry="3.5"/>
<text text-anchor="middle" x="221.74" y="-421.77" font-family="Helvetica,sans-Serif" font-size="13.60" fill="#4d4d4d">terre rouge</text>
</g>
<!-- industrie -->
<g id="node23" class="node">
<title>industrie</title>
<ellipse fill="#02020e" stroke="white" stroke-width="0" cx="339.89" cy="-652.59" rx="0.5" ry="0.5"/>
<text text-anchor="middle" x="313.39" y="-656.49" font-family="Helvetica,sans-Serif" font-size="12.00" fill="#4d4d4d">industrie</text>
</g>
<!-- exportation -->
<g id="node24" class="node">
<title>exportation</title>
<ellipse fill="#0c0826" stroke="white" stroke-width="0" cx="440.33" cy="-459.57" rx="3.5" ry="3.5"/>
<text text-anchor="middle" x="397.33" y="-467.19" font-family="Helvetica,sans-Serif" font-size="13.60" fill="#4d4d4d">exportation</text>
</g>
<!-- main d’oeuvre -->
<g id="node25" class="node">
<title>main d’oeuvre</title>
<ellipse fill="#1b0c41" stroke="white" stroke-width="0" cx="102.5" cy="-182.05" rx="3.5" ry="3.5"/>
<text text-anchor="middle" x="49.5" y="-189.67" font-family="Helvetica,sans-Serif" font-size="13.60" fill="#4d4d4d">main d’oeuvre</text>
</g>
<!-- usine du sud -->
<g id="node26" class="node">
<title>usine du sud</title>
<ellipse fill="#09061f" stroke="white" stroke-width="0" cx="154.21" cy="-3.5" rx="3.5" ry="3.5"/>
<text text-anchor="middle" x="107.71" y="-11.12" font-family="Helvetica,sans-Serif" font-size="13.60" fill="#4d4d4d">usine du sud</text>
</g>
<!-- épuisable -->
<g id="node27" class="node">
<title>épuisable</title>
<ellipse fill="#000004" stroke="white" stroke-width="0" cx="945.93" cy="-30.31" rx="0.5" ry="0.5"/>
<text text-anchor="middle" x="916.43" y="-34.21" font-family="Helvetica,sans-Serif" font-size="12.00" fill="#4d4d4d">épuisable</text>
</g>
</g>
</svg>
