<?xml version="1.0" encoding="UTF-8" standalone="no"?>
<!DOCTYPE svg PUBLIC "-//W3C//DTD SVG 1.1//EN"
 "http://www.w3.org/Graphics/SVG/1.1/DTD/svg11.dtd">
<!-- Generated by graphviz version 2.43.0 (0)
 -->
<!-- Pages: 1 -->
<svg width="922pt" height="467pt"
 viewBox="0.00 0.00 922.07 466.75" xmlns="http://www.w3.org/2000/svg" xmlns:xlink="http://www.w3.org/1999/xlink">
<g id="graph0" class="graph" transform="scale(1 1) rotate(0) translate(4 462.75)">
<polygon fill="white" stroke="transparent" points="-4,4 -4,-462.75 918.07,-462.75 918.07,4 -4,4"/>
<!-- avenir sans nickel&#45;&#45;travail -->
<g id="edge1" class="edge">
<title>avenir sans nickel&#45;&#45;travail</title>
<path fill="none" stroke="darkgrey" stroke-width="3.33" d="M328.83,-150.47C321.4,-177.26 310.47,-216.71 304.22,-239.24"/>
</g>
<!-- avenir sans nickel&#45;&#45;politique -->
<g id="edge2" class="edge">
<title>avenir sans nickel&#45;&#45;politique</title>
<path fill="none" stroke="darkgrey" stroke-width="3.79" d="M342.27,-151.15C349.79,-189.65 362.93,-256.95 369.59,-291.09"/>
</g>
<!-- avenir sans nickel&#45;&#45;secteur nickel -->
<g id="edge3" class="edge">
<title>avenir sans nickel&#45;&#45;secteur nickel</title>
<path fill="none" stroke="darkgrey" stroke-width="3.14" d="M363.5,-134.22C411.79,-155.68 512.23,-200.29 554.92,-219.26"/>
</g>
<!-- avenir sans nickel&#45;&#45;relation politique -->
<g id="edge4" class="edge">
<title>avenir sans nickel&#45;&#45;relation politique</title>
<path fill="none" stroke="darkgrey" stroke-width="1.17" d="M334.5,-93.23C332.32,-63.56 329.13,-20.08 328.18,-7.21"/>
</g>
<!-- avenir sans nickel&#45;&#45;avenir avec nickel -->
<g id="edge5" class="edge">
<title>avenir sans nickel&#45;&#45;avenir avec nickel</title>
<path fill="none" stroke="darkgrey" stroke-width="3.08" d="M362.81,-109.32C384.22,-98.71 413.33,-84.28 428.36,-76.83"/>
</g>
<!-- avenir sans nickel&#45;&#45;pollution -->
<g id="edge6" class="edge">
<title>avenir sans nickel&#45;&#45;pollution</title>
<path fill="none" stroke="darkgrey" stroke-width="5.53" d="M363.18,-134.24C381.56,-142.51 405.78,-153.41 423.33,-161.3"/>
</g>
<!-- avenir sans nickel&#45;&#45;ressource minière -->
<g id="edge7" class="edge">
<title>avenir sans nickel&#45;&#45;ressource minière</title>
<path fill="none" stroke="darkgrey" stroke-width="5.62" d="M363.93,-133.25C400.3,-147.85 464.05,-173.44 498.28,-187.18"/>
</g>
<!-- avenir sans nickel&#45;&#45;dégradation environnementale -->
<g id="edge8" class="edge">
<title>avenir sans nickel&#45;&#45;dégradation environnementale</title>
<path fill="none" stroke="darkgrey" stroke-width="6.21" d="M344.75,-150.59C345.73,-154 346.74,-157.51 347.74,-161.01"/>
</g>
<!-- avenir sans nickel&#45;&#45;nature -->
<g id="edge9" class="edge">
<title>avenir sans nickel&#45;&#45;nature</title>
<path fill="none" stroke="darkgrey" stroke-width="1.12" d="M309.38,-133.18C270.09,-148.86 199.33,-177.11 172.7,-187.74"/>
</g>
<!-- avenir sans nickel&#45;&#45;société néo&#45;calédonienne -->
<g id="edge10" class="edge">
<title>avenir sans nickel&#45;&#45;société néo&#45;calédonienne</title>
<path fill="none" stroke="darkgrey" stroke-width="3.04" d="M334.02,-151.48C329.36,-203.52 319.78,-310.52 316.28,-349.58"/>
</g>
<!-- avenir sans nickel&#45;&#45;alternative au développement -->
<g id="edge11" class="edge">
<title>avenir sans nickel&#45;&#45;alternative au développement</title>
<path fill="none" stroke="darkgrey" stroke-width="4.59" d="M356.61,-143.69C382.65,-171.59 427.93,-220.11 453.98,-248.02"/>
</g>
<!-- avenir sans nickel&#45;&#45;économie -->
<g id="edge12" class="edge">
<title>avenir sans nickel&#45;&#45;économie</title>
<path fill="none" stroke="darkgrey" stroke-width="2.67" d="M349.91,-148.25C363.09,-174.02 382.87,-212.71 393.95,-234.38"/>
</g>
<!-- avenir sans nickel&#45;&#45;amélioration environnementale -->
<g id="edge13" class="edge">
<title>avenir sans nickel&#45;&#45;amélioration environnementale</title>
<path fill="none" stroke="darkgrey" stroke-width="2.11" d="M360.46,-139.4C410.66,-175.44 525.4,-257.83 558.35,-281.5"/>
</g>
<!-- avenir sans nickel&#45;&#45;essor technologique -->
<g id="edge14" class="edge">
<title>avenir sans nickel&#45;&#45;essor technologique</title>
<path fill="none" stroke="darkgrey" stroke-width="1.37" d="M364.8,-113.98C406.09,-101.78 481.84,-79.41 515.85,-69.36"/>
</g>
<!-- travail&#45;&#45;politique -->
<g id="edge15" class="edge">
<title>travail&#45;&#45;politique</title>
<path fill="none" stroke="darkgrey" stroke-width="3.52" d="M314.07,-267.69C326.26,-276.79 343.61,-289.75 356.46,-299.36"/>
</g>
<!-- travail&#45;&#45;secteur nickel -->
<g id="edge16" class="edge">
<title>travail&#45;&#45;secteur nickel</title>
<path fill="none" stroke="darkgrey" stroke-width="3.68" d="M317.45,-254.83C366.28,-249.76 500.71,-235.79 553.3,-230.32"/>
</g>
<!-- travail&#45;&#45;avenir avec nickel -->
<g id="edge17" class="edge">
<title>travail&#45;&#45;avenir avec nickel</title>
<path fill="none" stroke="darkgrey" stroke-width="1.62" d="M310.28,-242.21C337.78,-205.63 409.36,-110.38 431.59,-80.81"/>
</g>
<!-- travail&#45;&#45;pollution -->
<g id="edge18" class="edge">
<title>travail&#45;&#45;pollution</title>
<path fill="none" stroke="darkgrey" stroke-width="5.24" d="M315.1,-247.61C341.45,-232.35 394.58,-201.58 424.51,-184.24"/>
</g>
<!-- travail&#45;&#45;ressource minière -->
<g id="edge19" class="edge">
<title>travail&#45;&#45;ressource minière</title>
<path fill="none" stroke="darkgrey" stroke-width="2.84" d="M316.82,-251.99C356.2,-241.32 452.13,-215.34 497.3,-203.11"/>
</g>
<!-- travail&#45;&#45;dégradation environnementale -->
<g id="edge20" class="edge">
<title>travail&#45;&#45;dégradation environnementale</title>
<path fill="none" stroke="darkgrey" stroke-width="6.37" d="M312.05,-243.54C318.09,-237.27 325.53,-229.53 332.65,-222.14"/>
</g>
<!-- travail&#45;&#45;nature -->
<g id="edge21" class="edge">
<title>travail&#45;&#45;nature</title>
<path fill="none" stroke="darkgrey" stroke-width="1.05" d="M283.1,-249.03C254.43,-235.49 195.72,-207.77 172.22,-196.68"/>
</g>
<!-- travail&#45;&#45;société néo&#45;calédonienne -->
<g id="edge22" class="edge">
<title>travail&#45;&#45;société néo&#45;calédonienne</title>
<path fill="none" stroke="darkgrey" stroke-width="3.5" d="M302.03,-274.96C305.08,-296.05 310.05,-330.35 312.86,-349.73"/>
</g>
<!-- travail&#45;&#45;alternative au développement -->
<g id="edge23" class="edge">
<title>travail&#45;&#45;alternative au développement</title>
<path fill="none" stroke="darkgrey" stroke-width="3.83" d="M317.41,-258.03C347.55,-260.22 408.46,-264.67 444.78,-267.32"/>
</g>
<!-- travail&#45;&#45;économie -->
<g id="edge25" class="edge">
<title>travail&#45;&#45;économie</title>
<path fill="none" stroke="darkgrey" stroke-width="3.95" d="M317.77,-255.61C336.49,-254.49 365.34,-252.77 384,-251.65"/>
</g>
<!-- travail&#45;&#45;amélioration environnementale -->
<g id="edge26" class="edge">
<title>travail&#45;&#45;amélioration environnementale</title>
<path fill="none" stroke="darkgrey" stroke-width="2.76" d="M317.38,-258.81C368.78,-264.8 515.18,-281.88 556.42,-286.69"/>
</g>
<!-- travail&#45;&#45;essor technologique -->
<g id="edge27" class="edge">
<title>travail&#45;&#45;essor technologique</title>
<path fill="none" stroke="darkgrey" stroke-width="3.02" d="M313.31,-245.25C354.79,-211.1 477.27,-110.28 519.04,-75.89"/>
</g>
<!-- travail&#45;&#45;nickel -->
<g id="edge24" class="edge">
<title>travail&#45;&#45;nickel</title>
<path fill="none" stroke="darkgrey" stroke-width="1.43" d="M314.41,-266.84C356.53,-295.23 474.43,-374.7 502.37,-393.53"/>
</g>
<!-- travail&#45;&#45;matériel -->
<g id="edge28" class="edge">
<title>travail&#45;&#45;matériel</title>
<path fill="none" stroke="darkgrey" stroke-width="1.09" d="M284.38,-266.71C230.1,-302.87 46.48,-425.22 35.06,-432.83"/>
</g>
<!-- politique&#45;&#45;secteur nickel -->
<g id="edge33" class="edge">
<title>politique&#45;&#45;secteur nickel</title>
<path fill="none" stroke="darkgrey" stroke-width="3.89" d="M393.74,-303.88C432.28,-287.74 516.39,-252.54 554.87,-236.43"/>
</g>
<!-- politique&#45;&#45;relation politique -->
<g id="edge34" class="edge">
<title>politique&#45;&#45;relation politique</title>
<path fill="none" stroke="darkgrey" stroke-width="1.75" d="M370.5,-290.54C360.89,-225.76 332.8,-36.48 328.47,-7.3"/>
</g>
<!-- politique&#45;&#45;avenir avec nickel -->
<g id="edge35" class="edge">
<title>politique&#45;&#45;avenir avec nickel</title>
<path fill="none" stroke="darkgrey" stroke-width="1.53" d="M379.34,-291.35C392.59,-242.01 425.43,-119.72 435.37,-82.7"/>
</g>
<!-- politique&#45;&#45;pollution -->
<g id="edge36" class="edge">
<title>politique&#45;&#45;pollution</title>
<path fill="none" stroke="darkgrey" stroke-width="3.51" d="M383.66,-293C397.01,-267.12 420.69,-221.23 434.8,-193.9"/>
</g>
<!-- politique&#45;&#45;ressource minière -->
<g id="edge37" class="edge">
<title>politique&#45;&#45;ressource minière</title>
<path fill="none" stroke="darkgrey" stroke-width="3.96" d="M390.69,-298.98C418.14,-277.49 472.2,-235.18 501.52,-212.23"/>
</g>
<!-- politique&#45;&#45;dégradation environnementale -->
<g id="edge38" class="edge">
<title>politique&#45;&#45;dégradation environnementale</title>
<path fill="none" stroke="darkgrey" stroke-width="5.13" d="M370.8,-290.94C368.53,-274.42 365.34,-251.17 362.69,-231.81"/>
</g>
<!-- politique&#45;&#45;société néo&#45;calédonienne -->
<g id="edge39" class="edge">
<title>politique&#45;&#45;société néo&#45;calédonienne</title>
<path fill="none" stroke="darkgrey" stroke-width="2.35" d="M357.36,-326.74C347.31,-335.64 334.71,-346.79 325.87,-354.61"/>
</g>
<!-- politique&#45;&#45;alternative au développement -->
<g id="edge41" class="edge">
<title>politique&#45;&#45;alternative au développement</title>
<path fill="none" stroke="darkgrey" stroke-width="3.12" d="M393.53,-303.8C408.82,-297.27 430.15,-288.16 447,-280.96"/>
</g>
<!-- politique&#45;&#45;économie -->
<g id="edge43" class="edge">
<title>politique&#45;&#45;économie</title>
<path fill="none" stroke="darkgrey" stroke-width="3.7" d="M382.74,-292.74C386.53,-284.55 390.88,-275.12 394.51,-267.26"/>
</g>
<!-- politique&#45;&#45;nickel -->
<g id="edge42" class="edge">
<title>politique&#45;&#45;nickel</title>
<path fill="none" stroke="darkgrey" stroke-width="1.09" d="M392.16,-323.94C422.84,-343.38 482.91,-381.44 502.23,-393.68"/>
</g>
<!-- politique&#45;&#45;nouvelle&#45;calédonie -->
<g id="edge40" class="edge">
<title>politique&#45;&#45;nouvelle&#45;calédonie</title>
<path fill="none" stroke="darkgrey" stroke-width="1.58" d="M382.83,-331.79C396.75,-361.65 422.63,-417.19 431.48,-436.18"/>
</g>
<!-- secteur nickel&#45;&#45;relation politique -->
<g id="edge44" class="edge">
<title>secteur nickel&#45;&#45;relation politique</title>
<path fill="none" stroke="darkgrey" stroke-width="1.41" d="M558.6,-213.35C507.75,-167.1 353.33,-26.63 330.69,-6.03"/>
</g>
<!-- secteur nickel&#45;&#45;avenir avec nickel -->
<g id="edge45" class="edge">
<title>secteur nickel&#45;&#45;avenir avec nickel</title>
<path fill="none" stroke="darkgrey" stroke-width="1.72" d="M560.45,-211.67C531.55,-178.62 467.29,-105.11 445.59,-80.29"/>
</g>
<!-- secteur nickel&#45;&#45;pollution -->
<g id="edge46" class="edge">
<title>secteur nickel&#45;&#45;pollution</title>
<path fill="none" stroke="darkgrey" stroke-width="3.9" d="M555,-219.39C531.91,-209.25 493.79,-192.5 469.37,-181.77"/>
</g>
<!-- secteur nickel&#45;&#45;ressource minière -->
<g id="edge47" class="edge">
<title>secteur nickel&#45;&#45;ressource minière</title>
<path fill="none" stroke="darkgrey" stroke-width="2.41" d="M556.18,-217.05C551.99,-214.56 547.5,-211.9 543.19,-209.35"/>
</g>
<!-- secteur nickel&#45;&#45;dégradation environnementale -->
<g id="edge48" class="edge">
<title>secteur nickel&#45;&#45;dégradation environnementale</title>
<path fill="none" stroke="darkgrey" stroke-width="3.57" d="M553.2,-224.9C515.89,-219.38 439.02,-208.03 393.6,-201.31"/>
</g>
<!-- secteur nickel&#45;&#45;société néo&#45;calédonienne -->
<g id="edge49" class="edge">
<title>secteur nickel&#45;&#45;société néo&#45;calédonienne</title>
<path fill="none" stroke="darkgrey" stroke-width="1.98" d="M555.69,-238.1C505.41,-264.45 370.39,-335.22 327.93,-357.47"/>
</g>
<!-- secteur nickel&#45;&#45;alternative au développement -->
<g id="edge51" class="edge">
<title>secteur nickel&#45;&#45;alternative au développement</title>
<path fill="none" stroke="darkgrey" stroke-width="5.62" d="M554.88,-236.26C539.5,-242.57 518.05,-251.36 501.11,-258.32"/>
</g>
<!-- secteur nickel&#45;&#45;économie -->
<g id="edge53" class="edge">
<title>secteur nickel&#45;&#45;économie</title>
<path fill="none" stroke="darkgrey" stroke-width="2.58" d="M553.29,-230.89C518.96,-235.36 452.37,-244.03 420.32,-248.2"/>
</g>
<!-- secteur nickel&#45;&#45;amélioration environnementale -->
<g id="edge54" class="edge">
<title>secteur nickel&#45;&#45;amélioration environnementale</title>
<path fill="none" stroke="darkgrey" stroke-width="3.15" d="M572.11,-249.7C570.96,-258.95 569.67,-269.34 568.72,-276.96"/>
</g>
<!-- secteur nickel&#45;&#45;essor technologique -->
<g id="edge55" class="edge">
<title>secteur nickel&#45;&#45;essor technologique</title>
<path fill="none" stroke="darkgrey" stroke-width="2.1" d="M569.44,-207C561.15,-174.33 545.34,-112.09 537.63,-81.75"/>
</g>
<!-- secteur nickel&#45;&#45;nickel -->
<g id="edge52" class="edge">
<title>secteur nickel&#45;&#45;nickel</title>
<path fill="none" stroke="darkgrey" stroke-width="2.1" d="M566.92,-248.19C552,-286.25 520.3,-367.12 510.99,-390.88"/>
</g>
<!-- secteur nickel&#45;&#45;nouvelle&#45;calédonie -->
<g id="edge50" class="edge">
<title>secteur nickel&#45;&#45;nouvelle&#45;calédonie</title>
<path fill="none" stroke="darkgrey" stroke-width="1.1" d="M562.84,-246.39C533.03,-292.02 456.51,-409.12 438.42,-436.82"/>
</g>
<!-- secteur nickel&#45;&#45;échange commercial -->
<g id="edge56" class="edge">
<title>secteur nickel&#45;&#45;échange commercial</title>
<path fill="none" stroke="darkgrey" stroke-width="1.01" d="M593.5,-239.03C662.3,-279.3 898.18,-417.38 912.85,-425.97"/>
</g>
<!-- relation politique&#45;&#45;pollution -->
<g id="edge57" class="edge">
<title>relation politique&#45;&#45;pollution</title>
<path fill="none" stroke="darkgrey" stroke-width="1.05" d="M329.96,-6.42C341.97,-23.47 403.48,-110.83 431.88,-151.17"/>
</g>
<!-- relation politique&#45;&#45;dégradation environnementale -->
<g id="edge58" class="edge">
<title>relation politique&#45;&#45;dégradation environnementale</title>
<path fill="none" stroke="darkgrey" stroke-width="1.32" d="M328.48,-7.17C331.36,-25.78 344.54,-110.7 352.2,-160.1"/>
</g>
<!-- relation politique&#45;&#45;économie -->
<g id="edge59" class="edge">
<title>relation politique&#45;&#45;économie</title>
<path fill="none" stroke="darkgrey" stroke-width="1.56" d="M328.96,-6.99C336.42,-31.8 381.56,-181.87 397.03,-233.29"/>
</g>
<!-- avenir avec nickel&#45;&#45;pollution -->
<g id="edge60" class="edge">
<title>avenir avec nickel&#45;&#45;pollution</title>
<path fill="none" stroke="darkgrey" stroke-width="1.02" d="M439.16,-82.97C440.38,-98.18 442.62,-126.01 444.26,-146.44"/>
</g>
<!-- avenir avec nickel&#45;&#45;ressource minière -->
<g id="edge61" class="edge">
<title>avenir avec nickel&#45;&#45;ressource minière</title>
<path fill="none" stroke="darkgrey" stroke-width="1.54" d="M444.53,-81.29C457.85,-101.21 489.27,-148.21 507.61,-175.64"/>
</g>
<!-- avenir avec nickel&#45;&#45;dégradation environnementale -->
<g id="edge62" class="edge">
<title>avenir avec nickel&#45;&#45;dégradation environnementale</title>
<path fill="none" stroke="darkgrey" stroke-width="2.71" d="M432.22,-81.25C420.74,-98.95 395.34,-138.11 377.41,-165.74"/>
</g>
<!-- avenir avec nickel&#45;&#45;alternative au développement -->
<g id="edge63" class="edge">
<title>avenir avec nickel&#45;&#45;alternative au développement</title>
<path fill="none" stroke="darkgrey" stroke-width="2.29" d="M440.24,-82.82C445.63,-112.66 460.77,-196.43 468.81,-240.89"/>
</g>
<!-- avenir avec nickel&#45;&#45;économie -->
<g id="edge64" class="edge">
<title>avenir avec nickel&#45;&#45;économie</title>
<path fill="none" stroke="darkgrey" stroke-width="2.11" d="M436.07,-82.83C430.05,-112.67 413.25,-195.91 405.83,-232.7"/>
</g>
<!-- avenir avec nickel&#45;&#45;amélioration environnementale -->
<g id="edge65" class="edge">
<title>avenir avec nickel&#45;&#45;amélioration environnementale</title>
<path fill="none" stroke="darkgrey" stroke-width="2.8" d="M443.98,-81.48C465.35,-117.25 540.45,-242.93 561.71,-278.51"/>
</g>
<!-- avenir avec nickel&#45;&#45;essor technologique -->
<g id="edge66" class="edge">
<title>avenir avec nickel&#45;&#45;essor technologique</title>
<path fill="none" stroke="darkgrey" stroke-width="2.19" d="M449.53,-71.01C465.73,-69.7 495.8,-67.27 515.13,-65.7"/>
</g>
<!-- pollution&#45;&#45;ressource minière -->
<g id="edge67" class="edge">
<title>pollution&#45;&#45;ressource minière</title>
<path fill="none" stroke="darkgrey" stroke-width="4.49" d="M470.11,-179.51C478.9,-182.42 488.85,-185.71 497.65,-188.62"/>
</g>
<!-- pollution&#45;&#45;dégradation environnementale -->
<g id="edge68" class="edge">
<title>pollution&#45;&#45;dégradation environnementale</title>
<path fill="none" stroke="darkgrey" stroke-width="10" d="M422.1,-178.3C412.99,-180.81 402.44,-183.72 392.55,-186.44"/>
</g>
<!-- pollution&#45;&#45;nature -->
<g id="edge69" class="edge">
<title>pollution&#45;&#45;nature</title>
<path fill="none" stroke="darkgrey" stroke-width="2.59" d="M421.07,-173.44C361.73,-177.68 215.08,-188.16 173.4,-191.14"/>
</g>
<!-- pollution&#45;&#45;société néo&#45;calédonienne -->
<g id="edge70" class="edge">
<title>pollution&#45;&#45;société néo&#45;calédonienne</title>
<path fill="none" stroke="darkgrey" stroke-width="3.6" d="M431.98,-192.62C404.46,-232.98 344.94,-320.3 323.16,-352.24"/>
</g>
<!-- pollution&#45;&#45;alternative au développement -->
<g id="edge72" class="edge">
<title>pollution&#45;&#45;alternative au développement</title>
<path fill="none" stroke="darkgrey" stroke-width="4.74" d="M453.13,-195.81C457.04,-209.62 461.95,-226.99 466.03,-241.39"/>
</g>
<!-- pollution&#45;&#45;économie -->
<g id="edge74" class="edge">
<title>pollution&#45;&#45;économie</title>
<path fill="none" stroke="darkgrey" stroke-width="4.45" d="M434.01,-193.62C426.73,-206.67 417.67,-222.9 411.08,-234.7"/>
</g>
<!-- pollution&#45;&#45;amélioration environnementale -->
<g id="edge75" class="edge">
<title>pollution&#45;&#45;amélioration environnementale</title>
<path fill="none" stroke="darkgrey" stroke-width="1.67" d="M464.41,-189.05C491.19,-214.78 540.23,-261.9 559.39,-280.31"/>
</g>
<!-- pollution&#45;&#45;essor technologique -->
<g id="edge76" class="edge">
<title>pollution&#45;&#45;essor technologique</title>
<path fill="none" stroke="darkgrey" stroke-width="2.83" d="M462.23,-151.94C479.47,-130.62 506.55,-97.17 521.78,-78.34"/>
</g>
<!-- pollution&#45;&#45;nickel -->
<g id="edge73" class="edge">
<title>pollution&#45;&#45;nickel</title>
<path fill="none" stroke="darkgrey" stroke-width="2.08" d="M452.93,-195.81C466.82,-246.36 498.3,-360.96 506.42,-390.52"/>
</g>
<!-- pollution&#45;&#45;nouvelle&#45;calédonie -->
<g id="edge71" class="edge">
<title>pollution&#45;&#45;nouvelle&#45;calédonie</title>
<path fill="none" stroke="darkgrey" stroke-width="1.14" d="M445.2,-196.65C442.65,-255.64 436.35,-401.05 434.86,-435.39"/>
</g>
<!-- ressource minière&#45;&#45;dégradation environnementale -->
<g id="edge77" class="edge">
<title>ressource minière&#45;&#45;dégradation environnementale</title>
<path fill="none" stroke="darkgrey" stroke-width="6.57" d="M496.34,-196.46C468.97,-196.37 425.04,-196.23 393.99,-196.14"/>
</g>
<!-- ressource minière&#45;&#45;société néo&#45;calédonienne -->
<g id="edge78" class="edge">
<title>ressource minière&#45;&#45;société néo&#45;calédonienne</title>
<path fill="none" stroke="darkgrey" stroke-width="1.08" d="M502.14,-212.31C459.75,-246.73 360.08,-327.64 326.35,-355.02"/>
</g>
<!-- ressource minière&#45;&#45;alternative au développement -->
<g id="edge80" class="edge">
<title>ressource minière&#45;&#45;alternative au développement</title>
<path fill="none" stroke="darkgrey" stroke-width="5.03" d="M507.81,-217.62C502.21,-226.2 495.7,-236.17 489.89,-245.06"/>
</g>
<!-- ressource minière&#45;&#45;économie -->
<g id="edge82" class="edge">
<title>ressource minière&#45;&#45;économie</title>
<path fill="none" stroke="darkgrey" stroke-width="3.69" d="M498.56,-206.95C475.13,-217.56 439.37,-233.75 418.65,-243.13"/>
</g>
<!-- ressource minière&#45;&#45;amélioration environnementale -->
<g id="edge83" class="edge">
<title>ressource minière&#45;&#45;amélioration environnementale</title>
<path fill="none" stroke="darkgrey" stroke-width="1.73" d="M532.89,-219.14C542.32,-237.96 555.3,-263.88 562.33,-277.93"/>
</g>
<!-- ressource minière&#45;&#45;essor technologique -->
<g id="edge84" class="edge">
<title>ressource minière&#45;&#45;essor technologique</title>
<path fill="none" stroke="darkgrey" stroke-width="4.06" d="M523.79,-171.34C526.06,-145.4 529.56,-105.61 531.58,-82.54"/>
</g>
<!-- ressource minière&#45;&#45;nickel -->
<g id="edge81" class="edge">
<title>ressource minière&#45;&#45;nickel</title>
<path fill="none" stroke="darkgrey" stroke-width="1.22" d="M519.93,-221.59C516.9,-267.69 510.59,-363.7 508.83,-390.5"/>
</g>
<!-- ressource minière&#45;&#45;nouvelle&#45;calédonie -->
<g id="edge79" class="edge">
<title>ressource minière&#45;&#45;nouvelle&#45;calédonie</title>
<path fill="none" stroke="darkgrey" stroke-width="1.39" d="M513.23,-220.14C494.08,-274.31 447.81,-405.22 436.88,-436.13"/>
</g>
<!-- dégradation environnementale&#45;&#45;nature -->
<g id="edge85" class="edge">
<title>dégradation environnementale&#45;&#45;nature</title>
<path fill="none" stroke="darkgrey" stroke-width="3.68" d="M321.45,-195.26C276.15,-194.32 201.27,-192.76 173.23,-192.17"/>
</g>
<!-- dégradation environnementale&#45;&#45;société néo&#45;calédonienne -->
<g id="edge86" class="edge">
<title>dégradation environnementale&#45;&#45;société néo&#45;calédonienne</title>
<path fill="none" stroke="darkgrey" stroke-width="2.82" d="M348.8,-231.29C339.44,-268.1 325.21,-324 318.59,-350.02"/>
</g>
<!-- dégradation environnementale&#45;&#45;alternative au développement -->
<g id="edge88" class="edge">
<title>dégradation environnementale&#45;&#45;alternative au développement</title>
<path fill="none" stroke="darkgrey" stroke-width="5.12" d="M388.31,-215.31C407.27,-227.29 431.33,-242.5 449.12,-253.74"/>
</g>
<!-- dégradation environnementale&#45;&#45;économie -->
<g id="edge90" class="edge">
<title>dégradation environnementale&#45;&#45;économie</title>
<path fill="none" stroke="darkgrey" stroke-width="6.42" d="M380.52,-223.93C384.03,-228.23 387.51,-232.51 390.63,-236.33"/>
</g>
<!-- dégradation environnementale&#45;&#45;amélioration environnementale -->
<g id="edge91" class="edge">
<title>dégradation environnementale&#45;&#45;amélioration environnementale</title>
<path fill="none" stroke="darkgrey" stroke-width="2.74" d="M390.99,-210.59C439.46,-231.86 527.09,-270.3 557.01,-283.43"/>
</g>
<!-- dégradation environnementale&#45;&#45;essor technologique -->
<g id="edge92" class="edge">
<title>dégradation environnementale&#45;&#45;essor technologique</title>
<path fill="none" stroke="darkgrey" stroke-width="3.48" d="M386.74,-174.26C424.69,-145.75 489.8,-96.84 518.67,-75.15"/>
</g>
<!-- dégradation environnementale&#45;&#45;nickel -->
<g id="edge89" class="edge">
<title>dégradation environnementale&#45;&#45;nickel</title>
<path fill="none" stroke="darkgrey" stroke-width="2.23" d="M379.35,-224.9C415.46,-273.23 485.96,-367.59 504.05,-391.8"/>
</g>
<!-- dégradation environnementale&#45;&#45;nouvelle&#45;calédonie -->
<g id="edge87" class="edge">
<title>dégradation environnementale&#45;&#45;nouvelle&#45;calédonie</title>
<path fill="none" stroke="darkgrey" stroke-width="1.29" d="M368.53,-230.59C386.93,-289.74 423.36,-406.83 432.45,-436.03"/>
</g>
<!-- nature&#45;&#45;société néo&#45;calédonienne -->
<g id="edge93" class="edge">
<title>nature&#45;&#45;société néo&#45;calédonienne</title>
<path fill="none" stroke="darkgrey" stroke-width="1.63" d="M169.55,-200.25C194.58,-228.49 276.4,-320.76 304.99,-353.01"/>
</g>
<!-- nature&#45;&#45;alternative au développement -->
<g id="edge94" class="edge">
<title>nature&#45;&#45;alternative au développement</title>
<path fill="none" stroke="darkgrey" stroke-width="1.31" d="M172.91,-194.61C216.28,-205.39 379.41,-245.94 445.71,-262.42"/>
</g>
<!-- société néo&#45;calédonienne&#45;&#45;alternative au développement -->
<g id="edge96" class="edge">
<title>société néo&#45;calédonienne&#45;&#45;alternative au développement</title>
<path fill="none" stroke="darkgrey" stroke-width="3.06" d="M327.44,-356.82C353.58,-341.24 414.51,-304.9 449,-284.34"/>
</g>
<!-- société néo&#45;calédonienne&#45;&#45;économie -->
<g id="edge98" class="edge">
<title>société néo&#45;calédonienne&#45;&#45;économie</title>
<path fill="none" stroke="darkgrey" stroke-width="2.84" d="M323.97,-352.52C340.09,-331.53 373.78,-287.63 391.23,-264.9"/>
</g>
<!-- société néo&#45;calédonienne&#45;&#45;nickel -->
<g id="edge97" class="edge">
<title>société néo&#45;calédonienne&#45;&#45;nickel</title>
<path fill="none" stroke="darkgrey" stroke-width="1.95" d="M329.5,-366.77C368.33,-373.45 473.42,-391.55 501.42,-396.38"/>
</g>
<!-- société néo&#45;calédonienne&#45;&#45;nouvelle&#45;calédonie -->
<g id="edge95" class="edge">
<title>société néo&#45;calédonienne&#45;&#45;nouvelle&#45;calédonie</title>
<path fill="none" stroke="darkgrey" stroke-width="1.51" d="M327.31,-372.37C352.73,-389.05 410.08,-426.7 428.63,-438.87"/>
</g>
<!-- alternative au développement&#45;&#45;économie -->
<g id="edge102" class="edge">
<title>alternative au développement&#45;&#45;économie</title>
<path fill="none" stroke="darkgrey" stroke-width="5.46" d="M445.62,-261.98C436.84,-259.67 427.44,-257.2 419.64,-255.14"/>
</g>
<!-- alternative au développement&#45;&#45;amélioration environnementale -->
<g id="edge103" class="edge">
<title>alternative au développement&#45;&#45;amélioration environnementale</title>
<path fill="none" stroke="darkgrey" stroke-width="4.39" d="M502.5,-275.1C520.74,-278.72 543.35,-283.2 556.49,-285.81"/>
</g>
<!-- alternative au développement&#45;&#45;essor technologique -->
<g id="edge104" class="edge">
<title>alternative au développement&#45;&#45;essor technologique</title>
<path fill="none" stroke="darkgrey" stroke-width="4.24" d="M482.08,-241.34C494.5,-198.32 517.86,-117.36 528.13,-81.78"/>
</g>
<!-- alternative au développement&#45;&#45;nickel -->
<g id="edge101" class="edge">
<title>alternative au développement&#45;&#45;nickel</title>
<path fill="none" stroke="darkgrey" stroke-width="1.98" d="M481.52,-297.56C489.59,-327.62 501.84,-373.28 506.49,-390.59"/>
</g>
<!-- économie&#45;&#45;amélioration environnementale -->
<g id="edge107" class="edge">
<title>économie&#45;&#45;amélioration environnementale</title>
<path fill="none" stroke="darkgrey" stroke-width="1.51" d="M419.9,-254.56C454.18,-262.33 528.77,-279.22 556.6,-285.53"/>
</g>
<!-- économie&#45;&#45;essor technologique -->
<g id="edge108" class="edge">
<title>économie&#45;&#45;essor technologique</title>
<path fill="none" stroke="darkgrey" stroke-width="1.25" d="M412.72,-235.63C437.3,-200.66 498.37,-113.77 522.82,-78.99"/>
</g>
<!-- amélioration environnementale&#45;&#45;essor technologique -->
<g id="edge109" class="edge">
<title>amélioration environnementale&#45;&#45;essor technologique</title>
<path fill="none" stroke="darkgrey" stroke-width="1.87" d="M565.66,-276.87C560.15,-240.81 542.72,-126.68 535.93,-82.22"/>
</g>
<!-- nickel&#45;&#45;économie -->
<g id="edge105" class="edge">
<title>nickel&#45;&#45;économie</title>
<path fill="none" stroke="darkgrey" stroke-width="1.31" d="M504.07,-391.63C488.64,-370.25 435.66,-296.87 412.83,-265.25"/>
</g>
<!-- nickel&#45;&#45;amélioration environnementale -->
<g id="edge106" class="edge">
<title>nickel&#45;&#45;amélioration environnementale</title>
<path fill="none" stroke="darkgrey" stroke-width="1.07" d="M511.7,-391.36C521.5,-373.16 550.22,-319.8 562.11,-297.71"/>
</g>
<!-- exploitation minière&#45;&#45;secteur nickel -->
<g id="edge29" class="edge">
<title>exploitation minière&#45;&#45;secteur nickel</title>
<path fill="none" stroke="darkgrey" stroke-width="1.23" d="M739.73,-117.69C722.36,-129.31 631.9,-189.87 592.82,-216.03"/>
</g>
<!-- exploitation minière&#45;&#45;pollution -->
<g id="edge30" class="edge">
<title>exploitation minière&#45;&#45;pollution</title>
<path fill="none" stroke="darkgrey" d="M738.89,-116.44C711.15,-121.68 536.96,-154.53 471.29,-166.92"/>
</g>
<!-- exploitation minière&#45;&#45;ressource minière -->
<g id="edge31" class="edge">
<title>exploitation minière&#45;&#45;ressource minière</title>
<path fill="none" stroke="darkgrey" stroke-width="1.25" d="M739.17,-117.01C717.2,-125.04 596.75,-169.06 545.1,-187.94"/>
</g>
<!-- exploitation minière&#45;&#45;alternative au développement -->
<g id="edge32" class="edge">
<title>exploitation minière&#45;&#45;alternative au développement</title>
<path fill="none" stroke="darkgrey" stroke-width="1.37" d="M739.24,-117.68C714.46,-131.86 560.73,-219.81 499.29,-254.96"/>
</g>
<!-- nouvelle&#45;calédonie&#45;&#45;alternative au développement -->
<g id="edge99" class="edge">
<title>nouvelle&#45;calédonie&#45;&#45;alternative au développement</title>
<path fill="none" stroke="darkgrey" stroke-width="2.03" d="M436.13,-435.74C441.35,-412.82 458.11,-339.18 467.48,-298"/>
</g>
<!-- nouvelle&#45;calédonie&#45;&#45;économie -->
<g id="edge100" class="edge">
<title>nouvelle&#45;calédonie&#45;&#45;économie</title>
<path fill="none" stroke="darkgrey" stroke-width="1.62" d="M433.31,-435.45C428.67,-407.82 412.07,-309.14 405.22,-268.38"/>
</g>
<!-- avenir sans nickel -->
<g id="node1" class="node">
<title>avenir sans nickel</title>
<ellipse fill="#f98e09" stroke="white" stroke-width="0" cx="336.64" cy="-122.29" rx="29" ry="29"/>
<text text-anchor="middle" x="271.14" y="-153.89" font-family="Helvetica,sans-Serif" font-size="8.00" fill="#4d4d4d">avenir sans nickel</text>
</g>
<!-- travail -->
<g id="node2" class="node">
<title>travail</title>
<ellipse fill="#bd3853" stroke="white" stroke-width="0" cx="299.38" cy="-256.71" rx="18" ry="18"/>
<text text-anchor="middle" x="268.38" y="-277.31" font-family="Helvetica,sans-Serif" font-size="8.00" fill="#4d4d4d">travail</text>
</g>
<!-- politique -->
<g id="node3" class="node">
<title>politique</title>
<ellipse fill="#ce4347" stroke="white" stroke-width="0" cx="373.73" cy="-312.26" rx="21.5" ry="21.5"/>
<text text-anchor="middle" x="333.73" y="-336.36" font-family="Helvetica,sans-Serif" font-size="8.00" fill="#4d4d4d">politique</text>
</g>
<!-- secteur nickel -->
<g id="node4" class="node">
<title>secteur nickel</title>
<ellipse fill="#cc4248" stroke="white" stroke-width="0" cx="574.8" cy="-228.09" rx="21.5" ry="21.5"/>
<text text-anchor="middle" x="581.8" y="-252.19" font-family="Helvetica,sans-Serif" font-size="8.00" fill="#4d4d4d">secteur nickel</text>
</g>
<!-- relation politique -->
<g id="node5" class="node">
<title>relation politique</title>
<ellipse fill="#150b37" stroke="white" stroke-width="0" cx="327.91" cy="-3.5" rx="3.5" ry="3.5"/>
<text text-anchor="middle" x="289.41" y="-9.6" font-family="Helvetica,sans-Serif" font-size="8.00" fill="#4d4d4d">relation politique</text>
</g>
<!-- avenir avec nickel -->
<g id="node6" class="node">
<title>avenir avec nickel</title>
<ellipse fill="#540f6d" stroke="white" stroke-width="0" cx="438.27" cy="-71.92" rx="11" ry="11"/>
<text text-anchor="middle" x="390.77" y="-85.52" font-family="Helvetica,sans-Serif" font-size="8.00" fill="#4d4d4d">avenir avec nickel</text>
</g>
<!-- pollution -->
<g id="node7" class="node">
<title>pollution</title>
<ellipse fill="#eb6628" stroke="white" stroke-width="0" cx="446.29" cy="-171.63" rx="25" ry="25"/>
<text text-anchor="middle" x="402.79" y="-149.23" font-family="Helvetica,sans-Serif" font-size="8.00" fill="#4d4d4d">pollution</text>
</g>
<!-- ressource minière -->
<g id="node8" class="node">
<title>ressource minière</title>
<ellipse fill="#f1731d" stroke="white" stroke-width="0" cx="521.57" cy="-196.53" rx="25" ry="25"/>
<text text-anchor="middle" x="460.07" y="-224.13" font-family="Helvetica,sans-Serif" font-size="8.00" fill="#4d4d4d">ressource minière</text>
</g>
<!-- dégradation environnementale -->
<g id="node9" class="node">
<title>dégradation environnementale</title>
<ellipse fill="#fcffa4" stroke="white" stroke-width="0" cx="357.78" cy="-196.02" rx="36" ry="36"/>
<text text-anchor="middle" x="258.28" y="-162.62" font-family="Helvetica,sans-Serif" font-size="8.00" fill="#4d4d4d">dégradation environnementale</text>
</g>
<!-- nature -->
<g id="node10" class="node">
<title>nature</title>
<ellipse fill="#510e6c" stroke="white" stroke-width="0" cx="162.18" cy="-191.94" rx="11" ry="11"/>
<text text-anchor="middle" x="137.68" y="-205.54" font-family="Helvetica,sans-Serif" font-size="8.00" fill="#4d4d4d">nature</text>
</g>
<!-- société néo&#45;calédonienne -->
<g id="node11" class="node">
<title>société néo&#45;calédonienne</title>
<ellipse fill="#8f2469" stroke="white" stroke-width="0" cx="314.96" cy="-364.26" rx="14.5" ry="14.5"/>
<text text-anchor="middle" x="246.46" y="-381.36" font-family="Helvetica,sans-Serif" font-size="8.00" fill="#4d4d4d">société néo&#45;calédonienne</text>
</g>
<!-- alternative au développement -->
<g id="node12" class="node">
<title>alternative au développement</title>
<ellipse fill="#f98e09" stroke="white" stroke-width="0" cx="473.97" cy="-269.44" rx="29" ry="29"/>
<text text-anchor="middle" x="506.97" y="-301.04" font-family="Helvetica,sans-Serif" font-size="8.00" fill="#4d4d4d">alternative au développement</text>
</g>
<!-- économie -->
<g id="node13" class="node">
<title>économie</title>
<ellipse fill="#ae305c" stroke="white" stroke-width="0" cx="402.23" cy="-250.56" rx="18" ry="18"/>
<text text-anchor="middle" x="363.73" y="-271.16" font-family="Helvetica,sans-Serif" font-size="8.00" fill="#4d4d4d">économie</text>
</g>
<!-- amélioration environnementale -->
<g id="node14" class="node">
<title>amélioration environnementale</title>
<ellipse fill="#751b6e" stroke="white" stroke-width="0" cx="567.36" cy="-287.96" rx="11" ry="11"/>
<text text-anchor="middle" x="620.86" y="-270.56" font-family="Helvetica,sans-Serif" font-size="8.00" fill="#4d4d4d">amélioration environnementale</text>
</g>
<!-- essor technologique -->
<g id="node15" class="node">
<title>essor technologique</title>
<ellipse fill="#ad305d" stroke="white" stroke-width="0" cx="533.19" cy="-64.24" rx="18" ry="18"/>
<text text-anchor="middle" x="472.69" y="-84.84" font-family="Helvetica,sans-Serif" font-size="8.00" fill="#4d4d4d">essor technologique</text>
</g>
<!-- nickel -->
<g id="node16" class="node">
<title>nickel</title>
<ellipse fill="#2f0a5b" stroke="white" stroke-width="0" cx="508.36" cy="-397.57" rx="7" ry="7"/>
<text text-anchor="middle" x="489.36" y="-407.17" font-family="Helvetica,sans-Serif" font-size="8.00" fill="#4d4d4d">nickel</text>
</g>
<!-- matériel -->
<g id="node17" class="node">
<title>matériel</title>
<ellipse fill="#000004" stroke="white" stroke-width="0" cx="34.5" cy="-433.2" rx="0.5" ry="0.5"/>
<text text-anchor="middle" x="17" y="-436.3" font-family="Helvetica,sans-Serif" font-size="8.00" fill="#4d4d4d">matériel</text>
</g>
<!-- exploitation minière -->
<g id="node18" class="node">
<title>exploitation minière</title>
<ellipse fill="#0d0829" stroke="white" stroke-width="0" cx="742.64" cy="-115.74" rx="3.5" ry="3.5"/>
<text text-anchor="middle" x="698.64" y="-121.84" font-family="Helvetica,sans-Serif" font-size="8.00" fill="#4d4d4d">exploitation minière</text>
</g>
<!-- nouvelle&#45;calédonie -->
<g id="node19" class="node">
<title>nouvelle&#45;calédonie</title>
<ellipse fill="#310a5c" stroke="white" stroke-width="0" cx="434.54" cy="-442.75" rx="7" ry="7"/>
<text text-anchor="middle" x="388.04" y="-452.35" font-family="Helvetica,sans-Serif" font-size="8.00" fill="#4d4d4d">nouvelle&#45;calédonie</text>
</g>
<!-- échange commercial -->
<g id="node20" class="node">
<title>échange commercial</title>
<ellipse fill="#02010a" stroke="white" stroke-width="0" cx="913.57" cy="-426.39" rx="0.5" ry="0.5"/>
<text text-anchor="middle" x="870.07" y="-429.49" font-family="Helvetica,sans-Serif" font-size="8.00" fill="#4d4d4d">échange commercial</text>
</g>
</g>
</svg>
