<?xml version="1.0" encoding="UTF-8" standalone="no"?>
<!DOCTYPE svg PUBLIC "-//W3C//DTD SVG 1.1//EN"
 "http://www.w3.org/Graphics/SVG/1.1/DTD/svg11.dtd">
<!-- Generated by graphviz version 2.43.0 (0)
 -->
<!-- Pages: 1 -->
<svg width="686pt" height="474pt"
 viewBox="0.00 0.00 686.29 474.47" xmlns="http://www.w3.org/2000/svg" xmlns:xlink="http://www.w3.org/1999/xlink">
<g id="graph0" class="graph" transform="scale(1 1) rotate(0) translate(4 470.47)">
<polygon fill="white" stroke="transparent" points="-4,4 -4,-470.47 682.29,-470.47 682.29,4 -4,4"/>
<!-- pollution&#45;&#45;travail -->
<g id="edge1" class="edge">
<title>pollution&#45;&#45;travail</title>
<path fill="none" stroke="darkgrey" stroke-width="7.32" d="M414.15,-275.28C398.89,-305.92 375.58,-352.72 364.28,-375.42"/>
</g>
<!-- pollution&#45;&#45;richesse -->
<g id="edge2" class="edge">
<title>pollution&#45;&#45;richesse</title>
<path fill="none" stroke="darkgrey" stroke-width="3.56" d="M438.01,-277.36C439.59,-282.68 441.13,-287.86 442.41,-292.13"/>
</g>
<!-- pollution&#45;&#45;destruction -->
<g id="edge3" class="edge">
<title>pollution&#45;&#45;destruction</title>
<path fill="none" stroke="darkgrey" stroke-width="5.45" d="M458.28,-259.76C484.34,-271.82 520.35,-288.49 534.85,-295.2"/>
</g>
<!-- pollution&#45;&#45;argent -->
<g id="edge4" class="edge">
<title>pollution&#45;&#45;argent</title>
<path fill="none" stroke="darkgrey" stroke-width="3.51" d="M399.85,-261.34C365.89,-279.31 311.3,-308.2 289.04,-319.98"/>
</g>
<!-- pollution&#45;&#45;nickel -->
<g id="edge5" class="edge">
<title>pollution&#45;&#45;nickel</title>
<path fill="none" stroke="darkgrey" stroke-width="9.56" d="M396.43,-241.45C381.29,-239.28 363.19,-236.68 347.62,-234.45"/>
</g>
<!-- pollution&#45;&#45;nature -->
<g id="edge6" class="edge">
<title>pollution&#45;&#45;nature</title>
<path fill="none" stroke="darkgrey" stroke-width="1.03" d="M456.82,-229.38C511.07,-197.17 625.79,-129.06 636.42,-122.74"/>
</g>
<!-- pollution&#45;&#45;montagne -->
<g id="edge7" class="edge">
<title>pollution&#45;&#45;montagne</title>
<path fill="none" stroke="darkgrey" stroke-width="2.1" d="M397.4,-255.12C350.72,-268.6 265.69,-293.17 240.87,-300.34"/>
</g>
<!-- pollution&#45;&#45;camion -->
<g id="edge8" class="edge">
<title>pollution&#45;&#45;camion</title>
<path fill="none" stroke="darkgrey" stroke-width="3.9" d="M398.6,-233.54C361.64,-218.13 300.88,-192.81 276.89,-182.82"/>
</g>
<!-- pollution&#45;&#45;économie -->
<g id="edge9" class="edge">
<title>pollution&#45;&#45;économie</title>
<path fill="none" stroke="darkgrey" stroke-width="8.79" d="M397.6,-255.74C396.64,-256.04 395.69,-256.34 394.75,-256.63"/>
</g>
<!-- pollution&#45;&#45;environnement -->
<g id="edge10" class="edge">
<title>pollution&#45;&#45;environnement</title>
<path fill="none" stroke="darkgrey" stroke-width="6.87" d="M441.68,-276.16C449.98,-295.38 460.42,-319.57 467.25,-335.41"/>
</g>
<!-- pollution&#45;&#45;emploi -->
<g id="edge11" class="edge">
<title>pollution&#45;&#45;emploi</title>
<path fill="none" stroke="darkgrey" stroke-width="10" d="M423.83,-278.22C420.58,-299.64 416.44,-326.99 413.77,-344.65"/>
</g>
<!-- pollution&#45;&#45;terre -->
<g id="edge12" class="edge">
<title>pollution&#45;&#45;terre</title>
<path fill="none" stroke="darkgrey" stroke-width="1.99" d="M404.21,-267.49C381.53,-287.32 349.47,-315.35 336.96,-326.29"/>
</g>
<!-- pollution&#45;&#45;usine -->
<g id="edge13" class="edge">
<title>pollution&#45;&#45;usine</title>
<path fill="none" stroke="darkgrey" stroke-width="2.31" d="M407.77,-221.07C381.36,-189.52 337.32,-136.9 320.21,-116.47"/>
</g>
<!-- pollution&#45;&#45;érosion -->
<g id="edge14" class="edge">
<title>pollution&#45;&#45;érosion</title>
<path fill="none" stroke="darkgrey" stroke-width="1.04" d="M461.26,-242.72C526.14,-236.02 666.27,-221.57 677.12,-220.45"/>
</g>
<!-- pollution&#45;&#45;exploitation -->
<g id="edge15" class="edge">
<title>pollution&#45;&#45;exploitation</title>
<path fill="none" stroke="darkgrey" stroke-width="2.15" d="M434.12,-213.9C436.55,-199.5 439.25,-183.47 440.99,-173.14"/>
</g>
<!-- pollution&#45;&#45;sln -->
<g id="edge16" class="edge">
<title>pollution&#45;&#45;sln</title>
<path fill="none" stroke="darkgrey" stroke-width="1.14" d="M431.93,-213.57C435.63,-176.46 441.43,-118.27 443.44,-98.16"/>
</g>
<!-- pollution&#45;&#45;ressource -->
<g id="edge17" class="edge">
<title>pollution&#45;&#45;ressource</title>
<path fill="none" stroke="darkgrey" stroke-width="1.73" d="M459.13,-234.38C467.2,-231.28 475.17,-228.22 480.6,-226.14"/>
</g>
<!-- pollution&#45;&#45;conflit -->
<g id="edge18" class="edge">
<title>pollution&#45;&#45;conflit</title>
<path fill="none" stroke="darkgrey" stroke-width="2.61" d="M432.42,-278.46C438.06,-327.54 448.43,-417.76 451.39,-443.46"/>
</g>
<!-- pollution&#45;&#45;développement -->
<g id="edge19" class="edge">
<title>pollution&#45;&#45;développement</title>
<path fill="none" stroke="darkgrey" stroke-width="3.12" d="M454.05,-266.45C501.12,-304.26 598.87,-382.8 616.78,-397.19"/>
</g>
<!-- pollution&#45;&#45;minerai -->
<g id="edge20" class="edge">
<title>pollution&#45;&#45;minerai</title>
<path fill="none" stroke="darkgrey" stroke-width="1.97" d="M417.36,-215.31C406.14,-184.84 389.58,-139.88 382.11,-119.6"/>
</g>
<!-- pollution&#45;&#45;déforestation -->
<g id="edge21" class="edge">
<title>pollution&#45;&#45;déforestation</title>
<path fill="none" stroke="darkgrey" stroke-width="2.84" d="M399.71,-230.35C345.91,-201.15 234.19,-140.52 213.71,-129.41"/>
</g>
<!-- travail&#45;&#45;richesse -->
<g id="edge22" class="edge">
<title>travail&#45;&#45;richesse</title>
<path fill="none" stroke="darkgrey" stroke-width="2.72" d="M368.1,-378.49C385.74,-361.23 421.12,-326.6 437.22,-310.84"/>
</g>
<!-- travail&#45;&#45;argent -->
<g id="edge23" class="edge">
<title>travail&#45;&#45;argent</title>
<path fill="none" stroke="darkgrey" stroke-width="1.11" d="M346.08,-379.33C330.2,-366.51 302.04,-343.76 287.83,-332.28"/>
</g>
<!-- travail&#45;&#45;nickel -->
<g id="edge24" class="edge">
<title>travail&#45;&#45;nickel</title>
<path fill="none" stroke="darkgrey" stroke-width="4.15" d="M353.6,-374.55C346.51,-349.94 331.72,-298.58 321.76,-264.01"/>
</g>
<!-- travail&#45;&#45;économie -->
<g id="edge25" class="edge">
<title>travail&#45;&#45;économie</title>
<path fill="none" stroke="darkgrey" stroke-width="3.79" d="M359.56,-374.28C362.45,-352.23 367.99,-310 371.35,-284.39"/>
</g>
<!-- travail&#45;&#45;environnement -->
<g id="edge26" class="edge">
<title>travail&#45;&#45;environnement</title>
<path fill="none" stroke="darkgrey" stroke-width="3.61" d="M371.52,-384.35C392.91,-377.64 433.92,-364.77 457.2,-357.47"/>
</g>
<!-- travail&#45;&#45;terre -->
<g id="edge27" class="edge">
<title>travail&#45;&#45;terre</title>
<path fill="none" stroke="darkgrey" stroke-width="1.4" d="M351.64,-375.29C346.3,-363.43 338.73,-346.61 334.61,-337.47"/>
</g>
<!-- richesse&#45;&#45;destruction -->
<g id="edge28" class="edge">
<title>richesse&#45;&#45;destruction</title>
<path fill="none" stroke="darkgrey" stroke-width="1.16" d="M456.91,-302.16C476.92,-301.21 517.89,-299.28 534.28,-298.51"/>
</g>
<!-- richesse&#45;&#45;nickel -->
<g id="edge29" class="edge">
<title>richesse&#45;&#45;nickel</title>
<path fill="none" stroke="darkgrey" stroke-width="3.17" d="M435.49,-297.18C416.23,-286.61 373.39,-263.11 343.56,-246.74"/>
</g>
<!-- richesse&#45;&#45;économie -->
<g id="edge30" class="edge">
<title>richesse&#45;&#45;économie</title>
<path fill="none" stroke="darkgrey" stroke-width="2.55" d="M435.92,-297.34C424.96,-291.25 406.79,-281.16 392.98,-273.49"/>
</g>
<!-- richesse&#45;&#45;environnement -->
<g id="edge31" class="edge">
<title>richesse&#45;&#45;environnement</title>
<path fill="none" stroke="darkgrey" stroke-width="1.53" d="M451.12,-312.21C455.12,-319.05 460.6,-328.42 465.25,-336.35"/>
</g>
<!-- richesse&#45;&#45;emploi -->
<g id="edge32" class="edge">
<title>richesse&#45;&#45;emploi</title>
<path fill="none" stroke="darkgrey" stroke-width="2.27" d="M440.01,-312.31C434.67,-321.57 426.51,-335.74 420.21,-346.68"/>
</g>
<!-- richesse&#45;&#45;terre -->
<g id="edge33" class="edge">
<title>richesse&#45;&#45;terre</title>
<path fill="none" stroke="darkgrey" stroke-width="1.36" d="M434.63,-305.4C411.47,-311.14 357.97,-324.4 338.72,-329.17"/>
</g>
<!-- richesse&#45;&#45;exploitation -->
<g id="edge34" class="edge">
<title>richesse&#45;&#45;exploitation</title>
<path fill="none" stroke="darkgrey" stroke-width="1.31" d="M445.33,-291.67C444.83,-265.55 443.56,-200.07 443.05,-173.6"/>
</g>
<!-- richesse&#45;&#45;ressource -->
<g id="edge35" class="edge">
<title>richesse&#45;&#45;ressource</title>
<path fill="none" stroke="darkgrey" stroke-width="1.08" d="M450.86,-292.66C459.59,-276.18 476.74,-243.81 484.06,-229.99"/>
</g>
<!-- destruction&#45;&#45;nickel -->
<g id="edge36" class="edge">
<title>destruction&#45;&#45;nickel</title>
<path fill="none" stroke="darkgrey" stroke-width="1.23" d="M534.17,-296.04C506.1,-287.62 401.93,-256.36 346.69,-239.78"/>
</g>
<!-- destruction&#45;&#45;environnement -->
<g id="edge37" class="edge">
<title>destruction&#45;&#45;environnement</title>
<path fill="none" stroke="darkgrey" stroke-width="1.01" d="M535.59,-302.77C525.3,-311.07 503.32,-328.78 488.71,-340.56"/>
</g>
<!-- argent&#45;&#45;nickel -->
<g id="edge38" class="edge">
<title>argent&#45;&#45;nickel</title>
<path fill="none" stroke="darkgrey" stroke-width="4.45" d="M282.73,-314.6C286.91,-302.31 294.01,-281.45 300.15,-263.44"/>
</g>
<!-- argent&#45;&#45;emploi -->
<g id="edge39" class="edge">
<title>argent&#45;&#45;emploi</title>
<path fill="none" stroke="darkgrey" stroke-width="2.88" d="M289.9,-328.29C312.68,-334.74 365.8,-349.78 393.52,-357.62"/>
</g>
<!-- nickel&#45;&#45;montagne -->
<g id="edge41" class="edge">
<title>nickel&#45;&#45;montagne</title>
<path fill="none" stroke="darkgrey" stroke-width="3.61" d="M285.4,-254.03C268.64,-269.76 248.38,-288.76 239.06,-297.51"/>
</g>
<!-- nickel&#45;&#45;camion -->
<g id="edge42" class="edge">
<title>nickel&#45;&#45;camion</title>
<path fill="none" stroke="darkgrey" stroke-width="5.93" d="M287.65,-202.15C282.79,-196.69 278.03,-191.33 274.28,-187.11"/>
</g>
<!-- nickel&#45;&#45;économie -->
<g id="edge43" class="edge">
<title>nickel&#45;&#45;économie</title>
<path fill="none" stroke="darkgrey" stroke-width="6.65" d="M343.69,-246.56C347.53,-248.64 351.35,-250.7 354.93,-252.64"/>
</g>
<!-- nickel&#45;&#45;environnement -->
<g id="edge44" class="edge">
<title>nickel&#45;&#45;environnement</title>
<path fill="none" stroke="darkgrey" stroke-width="4.25" d="M340.85,-251.25C375.76,-277.59 432.94,-320.74 459.73,-340.96"/>
</g>
<!-- nickel&#45;&#45;emploi -->
<g id="edge47" class="edge">
<title>nickel&#45;&#45;emploi</title>
<path fill="none" stroke="darkgrey" stroke-width="6.31" d="M333.31,-258.22C353.96,-285.94 384.27,-326.63 400.26,-348.1"/>
</g>
<!-- nickel&#45;&#45;terre -->
<g id="edge48" class="edge">
<title>nickel&#45;&#45;terre</title>
<path fill="none" stroke="darkgrey" stroke-width="2.15" d="M318.73,-264.84C322.94,-286.36 327.94,-311.91 330.3,-323.97"/>
</g>
<!-- nickel&#45;&#45;usine -->
<g id="edge49" class="edge">
<title>nickel&#45;&#45;usine</title>
<path fill="none" stroke="darkgrey" stroke-width="5.43" d="M312.17,-193.24C312.45,-167.95 312.81,-135.81 313,-119.15"/>
</g>
<!-- nickel&#45;&#45;exploitation -->
<g id="edge50" class="edge">
<title>nickel&#45;&#45;exploitation</title>
<path fill="none" stroke="darkgrey" stroke-width="2.23" d="M343.83,-212.9C372.93,-198.01 414.07,-176.96 432.82,-167.37"/>
</g>
<!-- nickel&#45;&#45;sln -->
<g id="edge51" class="edge">
<title>nickel&#45;&#45;sln</title>
<path fill="none" stroke="darkgrey" stroke-width="6.46" d="M336.67,-203.3C368.72,-169.81 422.29,-113.86 439.01,-96.41"/>
</g>
<!-- nickel&#45;&#45;ressource -->
<g id="edge52" class="edge">
<title>nickel&#45;&#45;ressource</title>
<path fill="none" stroke="darkgrey" stroke-width="2.21" d="M347.75,-228.11C390.33,-226.7 458.23,-224.45 480.31,-223.72"/>
</g>
<!-- nickel&#45;&#45;minerai -->
<g id="edge53" class="edge">
<title>nickel&#45;&#45;minerai</title>
<path fill="none" stroke="darkgrey" stroke-width="4.91" d="M329.22,-197.69C343.75,-171.37 363.53,-135.56 372.88,-118.62"/>
</g>
<!-- nickel&#45;&#45;déforestation -->
<g id="edge54" class="edge">
<title>nickel&#45;&#45;déforestation</title>
<path fill="none" stroke="darkgrey" stroke-width="1.47" d="M286.2,-203.65C260.41,-177.77 223,-140.24 213,-130.19"/>
</g>
<!-- nickel&#45;&#45;extraction -->
<g id="edge40" class="edge">
<title>nickel&#45;&#45;extraction</title>
<path fill="none" stroke="darkgrey" stroke-width="1.68" d="M284.78,-253.61C234.54,-298.86 130.87,-392.23 121.26,-400.88"/>
</g>
<!-- nickel&#45;&#45;caillou -->
<g id="edge45" class="edge">
<title>nickel&#45;&#45;caillou</title>
<path fill="none" stroke="darkgrey" stroke-width="1.47" d="M288.13,-201.62C249.47,-156.32 175.53,-69.69 160.91,-52.56"/>
</g>
<!-- nickel&#45;&#45;terre rouge -->
<g id="edge46" class="edge">
<title>nickel&#45;&#45;terre rouge</title>
<path fill="none" stroke="darkgrey" stroke-width="2.67" d="M275.7,-231.29C218.37,-234.46 110.71,-240.4 89.44,-241.58"/>
</g>
<!-- nickel&#45;&#45;goro -->
<g id="edge55" class="edge">
<title>nickel&#45;&#45;goro</title>
<path fill="none" stroke="darkgrey" stroke-width="1.88" d="M330.01,-197.97C364.79,-138.24 437.73,-12.98 444.49,-1.37"/>
</g>
<!-- nickel&#45;&#45;exportation -->
<g id="edge56" class="edge">
<title>nickel&#45;&#45;exportation</title>
<path fill="none" stroke="darkgrey" stroke-width="1.06" d="M277.34,-240.7C212.77,-262.08 77.83,-306.75 54.1,-314.61"/>
</g>
<!-- montagne&#45;&#45;camion -->
<g id="edge57" class="edge">
<title>montagne&#45;&#45;camion</title>
<path fill="none" stroke="darkgrey" stroke-width="1.69" d="M235.75,-295.34C241.23,-274.68 257.33,-213.92 263.88,-189.2"/>
</g>
<!-- montagne&#45;&#45;économie -->
<g id="edge58" class="edge">
<title>montagne&#45;&#45;économie</title>
<path fill="none" stroke="darkgrey" d="M240.66,-300.46C260.8,-294.81 320.95,-277.95 353.19,-268.91"/>
</g>
<!-- montagne&#45;&#45;terre -->
<g id="edge59" class="edge">
<title>montagne&#45;&#45;terre</title>
<path fill="none" stroke="darkgrey" stroke-width="1.63" d="M240.61,-304.32C258.47,-309.54 306.98,-323.71 324.9,-328.95"/>
</g>
<!-- camion&#45;&#45;économie -->
<g id="edge60" class="edge">
<title>camion&#45;&#45;économie</title>
<path fill="none" stroke="darkgrey" stroke-width="1.13" d="M275.49,-185.48C293.33,-199.51 334.06,-231.52 357.23,-249.73"/>
</g>
<!-- camion&#45;&#45;terre -->
<g id="edge62" class="edge">
<title>camion&#45;&#45;terre</title>
<path fill="none" stroke="darkgrey" stroke-width="1.43" d="M271.16,-189.04C283.66,-218.35 318.75,-300.63 328.89,-324.41"/>
</g>
<!-- camion&#45;&#45;usine -->
<g id="edge63" class="edge">
<title>camion&#45;&#45;usine</title>
<path fill="none" stroke="darkgrey" stroke-width="2.24" d="M272.76,-169.34C281.61,-155.89 297.97,-131.03 306.9,-117.45"/>
</g>
<!-- camion&#45;&#45;minerai -->
<g id="edge64" class="edge">
<title>camion&#45;&#45;minerai</title>
<path fill="none" stroke="darkgrey" stroke-width="1.77" d="M276.2,-172.63C297.27,-159.49 347.67,-128.03 368.72,-114.9"/>
</g>
<!-- camion&#45;&#45;caillou -->
<g id="edge61" class="edge">
<title>camion&#45;&#45;caillou</title>
<path fill="none" stroke="darkgrey" stroke-width="1.63" d="M259.59,-170.1C238.12,-144.55 174.6,-68.91 160.96,-52.67"/>
</g>
<!-- économie&#45;&#45;environnement -->
<g id="edge65" class="edge">
<title>économie&#45;&#45;environnement</title>
<path fill="none" stroke="darkgrey" stroke-width="8.72" d="M390.27,-277.34C409.87,-294.74 442.6,-323.8 460.94,-340.07"/>
</g>
<!-- économie&#45;&#45;emploi -->
<g id="edge66" class="edge">
<title>économie&#45;&#45;emploi</title>
<path fill="none" stroke="darkgrey" stroke-width="7.95" d="M381.8,-283.66C388.6,-302 398.42,-328.49 404.77,-345.62"/>
</g>
<!-- économie&#45;&#45;usine -->
<g id="edge67" class="edge">
<title>économie&#45;&#45;usine</title>
<path fill="none" stroke="darkgrey" stroke-width="1.55" d="M366.18,-242.76C352.99,-209.28 327.13,-143.58 317.17,-118.27"/>
</g>
<!-- économie&#45;&#45;exploitation -->
<g id="edge68" class="edge">
<title>économie&#45;&#45;exploitation</title>
<path fill="none" stroke="darkgrey" stroke-width="1.08" d="M386.43,-245.01C401.17,-223.38 425.31,-187.96 436.62,-171.36"/>
</g>
<!-- économie&#45;&#45;sln -->
<g id="edge69" class="edge">
<title>économie&#45;&#45;sln</title>
<path fill="none" stroke="darkgrey" stroke-width="1.09" d="M382.32,-242.97C398.04,-204.33 431.82,-121.32 441.51,-97.53"/>
</g>
<!-- économie&#45;&#45;conflit -->
<g id="edge70" class="edge">
<title>économie&#45;&#45;conflit</title>
<path fill="none" stroke="darkgrey" stroke-width="1.65" d="M382.51,-283.09C399.81,-324.64 438.84,-418.39 449.47,-443.93"/>
</g>
<!-- environnement&#45;&#45;emploi -->
<g id="edge71" class="edge">
<title>environnement&#45;&#45;emploi</title>
<path fill="none" stroke="darkgrey" stroke-width="4.14" d="M456.45,-355.05C447.81,-356.48 437.49,-358.19 428.87,-359.62"/>
</g>
<!-- environnement&#45;&#45;terre -->
<g id="edge72" class="edge">
<title>environnement&#45;&#45;terre</title>
<path fill="none" stroke="darkgrey" stroke-width="1.1" d="M456.36,-349.38C424.54,-344.67 359.91,-335.1 338.63,-331.95"/>
</g>
<!-- environnement&#45;&#45;ressource -->
<g id="edge73" class="edge">
<title>environnement&#45;&#45;ressource</title>
<path fill="none" stroke="darkgrey" stroke-width="1.22" d="M476.29,-333.91C479.21,-305.11 484.79,-250.21 486.78,-230.64"/>
</g>
<!-- environnement&#45;&#45;développement -->
<g id="edge74" class="edge">
<title>environnement&#45;&#45;développement</title>
<path fill="none" stroke="darkgrey" stroke-width="1.06" d="M491.67,-357.68C525.62,-368.77 599.36,-392.86 616.17,-398.35"/>
</g>
<!-- emploi&#45;&#45;ressource -->
<g id="edge75" class="edge">
<title>emploi&#45;&#45;ressource</title>
<path fill="none" stroke="darkgrey" stroke-width="1.01" d="M419.82,-346.63C436.61,-316.08 472.63,-250.56 483.99,-229.88"/>
</g>
<!-- emploi&#45;&#45;conflit -->
<g id="edge76" class="edge">
<title>emploi&#45;&#45;conflit</title>
<path fill="none" stroke="darkgrey" stroke-width="2.66" d="M418.79,-379.11C427.91,-398.6 442.65,-430.07 449.05,-443.76"/>
</g>
<!-- usine&#45;&#45;minerai -->
<g id="edge77" class="edge">
<title>usine&#45;&#45;minerai</title>
<path fill="none" stroke="darkgrey" stroke-width="3.32" d="M324.16,-108.16C336.06,-108.34 354.89,-108.63 366.89,-108.81"/>
</g>
<!-- exploitation&#45;&#45;ressource -->
<g id="edge78" class="edge">
<title>exploitation&#45;&#45;ressource</title>
<path fill="none" stroke="darkgrey" stroke-width="2.63" d="M449.42,-171.28C458.74,-184.06 475.5,-207.03 483.3,-217.72"/>
</g>
<!-- exploitation&#45;&#45;minerai -->
<g id="edge79" class="edge">
<title>exploitation&#45;&#45;minerai</title>
<path fill="none" stroke="darkgrey" stroke-width="2.7" d="M434.12,-155.06C421.71,-144.84 399.11,-126.21 386.78,-116.05"/>
</g>
<!-- sln&#45;&#45;goro -->
<g id="edge80" class="edge">
<title>sln&#45;&#45;goro</title>
<path fill="none" stroke="darkgrey" stroke-width="1.54" d="M444.22,-83.93C444.4,-63.92 444.92,-8.1 444.99,-1.2"/>
</g>
<!-- ressource&#45;&#45;minerai -->
<g id="edge81" class="edge">
<title>ressource&#45;&#45;minerai</title>
<path fill="none" stroke="darkgrey" stroke-width="2.14" d="M482.52,-218.27C465.15,-200.07 407.14,-139.3 386,-117.15"/>
</g>
<!-- pollution -->
<g id="node1" class="node">
<title>pollution</title>
<ellipse fill="#fac228" stroke="white" stroke-width="0" cx="428.7" cy="-246.08" rx="32.5" ry="32.5"/>
<text text-anchor="middle" x="377.7" y="-216.18" font-family="Helvetica,sans-Serif" font-size="8.00" fill="#4d4d4d">pollution</text>
</g>
<!-- travail -->
<g id="node2" class="node">
<title>travail</title>
<ellipse fill="#a02a63" stroke="white" stroke-width="0" cx="357.67" cy="-388.69" rx="14.5" ry="14.5"/>
<text text-anchor="middle" x="330.17" y="-405.79" font-family="Helvetica,sans-Serif" font-size="8.00" fill="#4d4d4d">travail</text>
</g>
<!-- richesse -->
<g id="node3" class="node">
<title>richesse</title>
<ellipse fill="#6a176e" stroke="white" stroke-width="0" cx="445.55" cy="-302.69" rx="11" ry="11"/>
<text text-anchor="middle" x="417.05" y="-316.29" font-family="Helvetica,sans-Serif" font-size="8.00" fill="#4d4d4d">richesse</text>
</g>
<!-- destruction -->
<g id="node4" class="node">
<title>destruction</title>
<ellipse fill="#390963" stroke="white" stroke-width="0" cx="541.29" cy="-298.18" rx="7" ry="7"/>
<text text-anchor="middle" x="510.79" y="-307.78" font-family="Helvetica,sans-Serif" font-size="8.00" fill="#4d4d4d">destruction</text>
</g>
<!-- argent -->
<g id="node5" class="node">
<title>argent</title>
<ellipse fill="#510e6c" stroke="white" stroke-width="0" cx="279.11" cy="-325.24" rx="11" ry="11"/>
<text text-anchor="middle" x="254.11" y="-338.84" font-family="Helvetica,sans-Serif" font-size="8.00" fill="#4d4d4d">argent</text>
</g>
<!-- nickel -->
<g id="node6" class="node">
<title>nickel</title>
<ellipse fill="#fcffa4" stroke="white" stroke-width="0" cx="311.77" cy="-229.3" rx="36" ry="36"/>
<text text-anchor="middle" x="263.77" y="-267.9" font-family="Helvetica,sans-Serif" font-size="8.00" fill="#4d4d4d">nickel</text>
</g>
<!-- nature -->
<g id="node7" class="node">
<title>nature</title>
<ellipse fill="#000004" stroke="white" stroke-width="0" cx="637.22" cy="-122.27" rx="0.5" ry="0.5"/>
<text text-anchor="middle" x="623.22" y="-125.37" font-family="Helvetica,sans-Serif" font-size="8.00" fill="#4d4d4d">nature</text>
</g>
<!-- montagne -->
<g id="node8" class="node">
<title>montagne</title>
<ellipse fill="#420a68" stroke="white" stroke-width="0" cx="233.89" cy="-302.35" rx="7" ry="7"/>
<text text-anchor="middle" x="205.39" y="-311.95" font-family="Helvetica,sans-Serif" font-size="8.00" fill="#4d4d4d">montagne</text>
</g>
<!-- camion -->
<g id="node9" class="node">
<title>camion</title>
<ellipse fill="#71196e" stroke="white" stroke-width="0" cx="266.7" cy="-178.57" rx="11" ry="11"/>
<text text-anchor="middle" x="240.2" y="-192.17" font-family="Helvetica,sans-Serif" font-size="8.00" fill="#4d4d4d">camion</text>
</g>
<!-- économie -->
<g id="node10" class="node">
<title>économie</title>
<ellipse fill="#d74b3f" stroke="white" stroke-width="0" cx="374.16" cy="-263.03" rx="21.5" ry="21.5"/>
<text text-anchor="middle" x="332.16" y="-287.13" font-family="Helvetica,sans-Serif" font-size="8.00" fill="#4d4d4d">économie</text>
</g>
<!-- environnement -->
<g id="node11" class="node">
<title>environnement</title>
<ellipse fill="#b1325a" stroke="white" stroke-width="0" cx="474.44" cy="-352.06" rx="18" ry="18"/>
<text text-anchor="middle" x="425.44" y="-336.66" font-family="Helvetica,sans-Serif" font-size="8.00" fill="#4d4d4d">environnement</text>
</g>
<!-- emploi -->
<g id="node12" class="node">
<title>emploi</title>
<ellipse fill="#b43359" stroke="white" stroke-width="0" cx="411.05" cy="-362.58" rx="18" ry="18"/>
<text text-anchor="middle" x="379.05" y="-347.18" font-family="Helvetica,sans-Serif" font-size="8.00" fill="#4d4d4d">emploi</text>
</g>
<!-- terre -->
<g id="node13" class="node">
<title>terre</title>
<ellipse fill="#390963" stroke="white" stroke-width="0" cx="331.66" cy="-330.92" rx="7" ry="7"/>
<text text-anchor="middle" x="315.16" y="-340.52" font-family="Helvetica,sans-Serif" font-size="8.00" fill="#4d4d4d">terre</text>
</g>
<!-- usine -->
<g id="node14" class="node">
<title>usine</title>
<ellipse fill="#57106e" stroke="white" stroke-width="0" cx="313.12" cy="-108" rx="11" ry="11"/>
<text text-anchor="middle" x="290.62" y="-121.6" font-family="Helvetica,sans-Serif" font-size="8.00" fill="#4d4d4d">usine</text>
</g>
<!-- érosion -->
<g id="node15" class="node">
<title>érosion</title>
<ellipse fill="#000004" stroke="white" stroke-width="0" cx="677.79" cy="-220.38" rx="0.5" ry="0.5"/>
<text text-anchor="middle" x="661.79" y="-223.48" font-family="Helvetica,sans-Serif" font-size="8.00" fill="#4d4d4d">érosion</text>
</g>
<!-- exploitation -->
<g id="node16" class="node">
<title>exploitation</title>
<ellipse fill="#5c126e" stroke="white" stroke-width="0" cx="442.83" cy="-162.24" rx="11" ry="11"/>
<text text-anchor="middle" x="407.33" y="-175.84" font-family="Helvetica,sans-Serif" font-size="8.00" fill="#4d4d4d">exploitation</text>
</g>
<!-- sln -->
<g id="node17" class="node">
<title>sln</title>
<ellipse fill="#420a68" stroke="white" stroke-width="0" cx="444.15" cy="-91.04" rx="7" ry="7"/>
<text text-anchor="middle" x="430.65" y="-100.64" font-family="Helvetica,sans-Serif" font-size="8.00" fill="#4d4d4d">sln</text>
</g>
<!-- ressource -->
<g id="node18" class="node">
<title>ressource</title>
<ellipse fill="#4a0c6b" stroke="white" stroke-width="0" cx="487.5" cy="-223.49" rx="7" ry="7"/>
<text text-anchor="middle" x="500.5" y="-233.09" font-family="Helvetica,sans-Serif" font-size="8.00" fill="#4d4d4d">ressource</text>
</g>
<!-- conflit -->
<g id="node19" class="node">
<title>conflit</title>
<ellipse fill="#390963" stroke="white" stroke-width="0" cx="452.19" cy="-450.47" rx="7" ry="7"/>
<text text-anchor="middle" x="432.19" y="-460.07" font-family="Helvetica,sans-Serif" font-size="8.00" fill="#4d4d4d">conflit</text>
</g>
<!-- développement -->
<g id="node20" class="node">
<title>développement</title>
<ellipse fill="#07051b" stroke="white" stroke-width="0" cx="619.63" cy="-399.48" rx="3.5" ry="3.5"/>
<text text-anchor="middle" x="583.63" y="-405.58" font-family="Helvetica,sans-Serif" font-size="8.00" fill="#4d4d4d">développement</text>
</g>
<!-- minerai -->
<g id="node21" class="node">
<title>minerai</title>
<ellipse fill="#57106e" stroke="white" stroke-width="0" cx="378.2" cy="-108.98" rx="11" ry="11"/>
<text text-anchor="middle" x="351.7" y="-122.58" font-family="Helvetica,sans-Serif" font-size="8.00" fill="#4d4d4d">minerai</text>
</g>
<!-- déforestation -->
<g id="node22" class="node">
<title>déforestation</title>
<ellipse fill="#120a32" stroke="white" stroke-width="0" cx="210.45" cy="-127.64" rx="3.5" ry="3.5"/>
<text text-anchor="middle" x="179.45" y="-133.74" font-family="Helvetica,sans-Serif" font-size="8.00" fill="#4d4d4d">déforestation</text>
</g>
<!-- extraction -->
<g id="node23" class="node">
<title>extraction</title>
<ellipse fill="#010108" stroke="white" stroke-width="0" cx="120.55" cy="-401.53" rx="0.5" ry="0.5"/>
<text text-anchor="middle" x="99.55" y="-404.63" font-family="Helvetica,sans-Serif" font-size="8.00" fill="#4d4d4d">extraction</text>
</g>
<!-- caillou -->
<g id="node24" class="node">
<title>caillou</title>
<ellipse fill="#0c0826" stroke="white" stroke-width="0" cx="158.36" cy="-49.58" rx="3.5" ry="3.5"/>
<text text-anchor="middle" x="140.86" y="-55.68" font-family="Helvetica,sans-Serif" font-size="8.00" fill="#4d4d4d">caillou</text>
</g>
<!-- terre rouge -->
<g id="node25" class="node">
<title>terre rouge</title>
<ellipse fill="#040314" stroke="white" stroke-width="0" cx="85.73" cy="-241.78" rx="3.5" ry="3.5"/>
<text text-anchor="middle" x="59.73" y="-247.88" font-family="Helvetica,sans-Serif" font-size="8.00" fill="#4d4d4d">terre rouge</text>
</g>
<!-- goro -->
<g id="node26" class="node">
<title>goro</title>
<ellipse fill="#010005" stroke="white" stroke-width="0" cx="444.99" cy="-0.5" rx="0.5" ry="0.5"/>
<text text-anchor="middle" x="434.99" y="-3.6" font-family="Helvetica,sans-Serif" font-size="8.00" fill="#4d4d4d">goro</text>
</g>
<!-- exportation -->
<g id="node27" class="node">
<title>exportation</title>
<ellipse fill="#09061f" stroke="white" stroke-width="0" cx="50.5" cy="-315.8" rx="3.5" ry="3.5"/>
<text text-anchor="middle" x="23.5" y="-321.9" font-family="Helvetica,sans-Serif" font-size="8.00" fill="#4d4d4d">exportation</text>
</g>
</g>
</svg>
