<?xml version="1.0" encoding="UTF-8" standalone="no"?>
<!DOCTYPE svg PUBLIC "-//W3C//DTD SVG 1.1//EN"
 "http://www.w3.org/Graphics/SVG/1.1/DTD/svg11.dtd">
<!-- Generated by graphviz version 2.43.0 (0)
 -->
<!-- Pages: 1 -->
<svg width="855pt" height="577pt"
 viewBox="0.00 0.00 855.18 577.43" xmlns="http://www.w3.org/2000/svg" xmlns:xlink="http://www.w3.org/1999/xlink">
<g id="graph0" class="graph" transform="scale(1 1) rotate(0) translate(4 573.43)">
<polygon fill="white" stroke="transparent" points="-4,4 -4,-573.43 851.18,-573.43 851.18,4 -4,4"/>
<!-- fin&#45;&#45;emploi -->
<g id="edge1" class="edge">
<title>fin&#45;&#45;emploi</title>
<path fill="none" stroke="darkgrey" stroke-width="1.34" d="M409.1,-462.18C388.91,-435.27 339.21,-369.04 317.03,-339.47"/>
</g>
<!-- fin&#45;&#45;pollution -->
<g id="edge2" class="edge">
<title>fin&#45;&#45;pollution</title>
<path fill="none" stroke="darkgrey" stroke-width="2.14" d="M423.4,-460.22C434.93,-431.72 461.67,-365.65 475.98,-330.29"/>
</g>
<!-- fin&#45;&#45;épuisement de la ressource -->
<g id="edge3" class="edge">
<title>fin&#45;&#45;épuisement de la ressource</title>
<path fill="none" stroke="darkgrey" stroke-width="1.46" d="M431.25,-467.75C452.68,-457.94 494.23,-438.91 513.39,-430.14"/>
</g>
<!-- fin&#45;&#45;impact environnemental -->
<g id="edge4" class="edge">
<title>fin&#45;&#45;impact environnemental</title>
<path fill="none" stroke="darkgrey" stroke-width="2.4" d="M424.69,-460.94C443.13,-425.91 494.44,-328.45 521.3,-277.43"/>
</g>
<!-- emploi&#45;&#45;pollution -->
<g id="edge5" class="edge">
<title>emploi&#45;&#45;pollution</title>
<path fill="none" stroke="darkgrey" stroke-width="4.94" d="M324.21,-323C356.46,-319.79 423.7,-313.1 460.33,-309.46"/>
</g>
<!-- emploi&#45;&#45;impact environnemental -->
<g id="edge6" class="edge">
<title>emploi&#45;&#45;impact environnemental</title>
<path fill="none" stroke="darkgrey" stroke-width="4.88" d="M323.1,-318.96C361.11,-305.95 453.33,-274.39 503.79,-257.12"/>
</g>
<!-- emploi&#45;&#45;conflit -->
<g id="edge7" class="edge">
<title>emploi&#45;&#45;conflit</title>
<path fill="none" stroke="darkgrey" stroke-width="1.18" d="M324.24,-325.85C373.6,-328.7 508.8,-336.49 548.36,-338.76"/>
</g>
<!-- emploi&#45;&#45;économie du pays -->
<g id="edge8" class="edge">
<title>emploi&#45;&#45;économie du pays</title>
<path fill="none" stroke="darkgrey" stroke-width="3.12" d="M322.91,-331.26C348.04,-340.87 394.51,-358.65 415.23,-366.57"/>
</g>
<!-- emploi&#45;&#45;amélioration environnementale -->
<g id="edge9" class="edge">
<title>emploi&#45;&#45;amélioration environnementale</title>
<path fill="none" stroke="darkgrey" stroke-width="3.42" d="M310.63,-307.22C320.3,-270.32 342.62,-185.18 352.31,-148.2"/>
</g>
<!-- emploi&#45;&#45;famille -->
<g id="edge10" class="edge">
<title>emploi&#45;&#45;famille</title>
<path fill="none" stroke="darkgrey" stroke-width="1.09" d="M289.12,-331.39C244.05,-348.93 123.71,-395.79 112.52,-400.14"/>
</g>
<!-- emploi&#45;&#45;développement durable -->
<g id="edge11" class="edge">
<title>emploi&#45;&#45;développement durable</title>
<path fill="none" stroke="darkgrey" stroke-width="1.02" d="M302.16,-306.92C297.12,-283.57 288.45,-243.42 284.32,-224.27"/>
</g>
<!-- emploi&#45;&#45;formation -->
<g id="edge12" class="edge">
<title>emploi&#45;&#45;formation</title>
<path fill="none" stroke="darkgrey" stroke-width="1.2" d="M288.22,-320.28C233.24,-306.3 69.2,-264.58 59,-261.98"/>
</g>
<!-- emploi&#45;&#45;automatisation -->
<g id="edge13" class="edge">
<title>emploi&#45;&#45;automatisation</title>
<path fill="none" stroke="darkgrey" d="M306,-342.91C305.97,-366.22 305.91,-405.17 305.89,-417.33"/>
</g>
<!-- pollution&#45;&#45;épuisement de la ressource -->
<g id="edge14" class="edge">
<title>pollution&#45;&#45;épuisement de la ressource</title>
<path fill="none" stroke="darkgrey" stroke-width="3.73" d="M493.13,-330.95C501.39,-356.66 514.12,-396.3 520.13,-415.02"/>
</g>
<!-- pollution&#45;&#45;impact environnemental -->
<g id="edge17" class="edge">
<title>pollution&#45;&#45;impact environnemental</title>
<path fill="none" stroke="darkgrey" stroke-width="10" d="M501.83,-287.81C505.82,-283.15 510.17,-278.07 514.43,-273.09"/>
</g>
<!-- pollution&#45;&#45;conflit -->
<g id="edge18" class="edge">
<title>pollution&#45;&#45;conflit</title>
<path fill="none" stroke="darkgrey" stroke-width="1.4" d="M508.41,-317.05C521.98,-323 538.49,-330.24 548.96,-334.84"/>
</g>
<!-- pollution&#45;&#45;économie du pays -->
<g id="edge20" class="edge">
<title>pollution&#45;&#45;économie du pays</title>
<path fill="none" stroke="darkgrey" stroke-width="2.95" d="M468.14,-325.36C456.7,-337.54 442.24,-352.93 433.48,-362.25"/>
</g>
<!-- pollution&#45;&#45;amélioration environnementale -->
<g id="edge21" class="edge">
<title>pollution&#45;&#45;amélioration environnementale</title>
<path fill="none" stroke="darkgrey" stroke-width="2.13" d="M470.69,-286.72C444.59,-250.88 390.82,-177.03 367.8,-145.41"/>
</g>
<!-- pollution&#45;&#45;développement durable -->
<g id="edge24" class="edge">
<title>pollution&#45;&#45;développement durable</title>
<path fill="none" stroke="darkgrey" stroke-width="1.44" d="M462.48,-296.43C418.43,-276.18 323.56,-232.6 292.25,-218.21"/>
</g>
<!-- pollution&#45;&#45;montagne -->
<g id="edge15" class="edge">
<title>pollution&#45;&#45;montagne</title>
<path fill="none" stroke="darkgrey" stroke-width="1.32" d="M507.23,-319.23C557.67,-347.59 679.73,-416.23 701.25,-428.33"/>
</g>
<!-- pollution&#45;&#45;biodiversité -->
<g id="edge16" class="edge">
<title>pollution&#45;&#45;biodiversité</title>
<path fill="none" stroke="darkgrey" stroke-width="1.8" d="M498.25,-328.97C528.61,-381.09 603.66,-509.89 620.83,-539.36"/>
</g>
<!-- pollution&#45;&#45;développement -->
<g id="edge19" class="edge">
<title>pollution&#45;&#45;développement</title>
<path fill="none" stroke="darkgrey" stroke-width="2.17" d="M475.05,-283.8C465.9,-263.35 452.99,-234.53 446.21,-219.39"/>
</g>
<!-- pollution&#45;&#45;revenu -->
<g id="edge22" class="edge">
<title>pollution&#45;&#45;revenu</title>
<path fill="none" stroke="darkgrey" stroke-width="1.04" d="M490.15,-282.35C500.64,-227.64 525.32,-98.95 529.67,-76.27"/>
</g>
<!-- pollution&#45;&#45;déclin -->
<g id="edge23" class="edge">
<title>pollution&#45;&#45;déclin</title>
<path fill="none" stroke="darkgrey" stroke-width="1.32" d="M508.13,-296.4C552.56,-275.71 648.3,-231.15 667.29,-222.31"/>
</g>
<!-- pollution&#45;&#45;innovation -->
<g id="edge25" class="edge">
<title>pollution&#45;&#45;innovation</title>
<path fill="none" stroke="darkgrey" stroke-width="1.75" d="M462.57,-296.28C435.6,-283.68 391.97,-263.29 372.42,-254.15"/>
</g>
<!-- épuisement de la ressource&#45;&#45;impact environnemental -->
<g id="edge26" class="edge">
<title>épuisement de la ressource&#45;&#45;impact environnemental</title>
<path fill="none" stroke="darkgrey" stroke-width="4.15" d="M524.4,-414.51C526.51,-388.61 531.87,-322.85 535.25,-281.37"/>
</g>
<!-- épuisement de la ressource&#45;&#45;conflit -->
<g id="edge27" class="edge">
<title>épuisement de la ressource&#45;&#45;conflit</title>
<path fill="none" stroke="darkgrey" stroke-width="1.8" d="M527.76,-415.29C534.66,-398.72 548.22,-366.17 555.11,-349.6"/>
</g>
<!-- épuisement de la ressource&#45;&#45;économie du pays -->
<g id="edge29" class="edge">
<title>épuisement de la ressource&#45;&#45;économie du pays</title>
<path fill="none" stroke="darkgrey" stroke-width="1.56" d="M513.77,-420.04C495.01,-409.51 454.09,-386.53 435.37,-376.01"/>
</g>
<!-- épuisement de la ressource&#45;&#45;développement -->
<g id="edge28" class="edge">
<title>épuisement de la ressource&#45;&#45;développement</title>
<path fill="none" stroke="darkgrey" stroke-width="1.63" d="M519.56,-415.08C505.7,-378.45 459.36,-255.99 445.56,-219.53"/>
</g>
<!-- impact environnemental&#45;&#45;conflit -->
<g id="edge31" class="edge">
<title>impact environnemental&#45;&#45;conflit</title>
<path fill="none" stroke="darkgrey" stroke-width="3.82" d="M546.13,-280.64C549.93,-297.53 554.22,-316.57 556.86,-328.28"/>
</g>
<!-- impact environnemental&#45;&#45;économie du pays -->
<g id="edge34" class="edge">
<title>impact environnemental&#45;&#45;économie du pays</title>
<path fill="none" stroke="darkgrey" stroke-width="3.9" d="M514.05,-272.22C488.35,-300.82 449.2,-344.38 433.04,-362.37"/>
</g>
<!-- impact environnemental&#45;&#45;amélioration environnementale -->
<g id="edge35" class="edge">
<title>impact environnemental&#45;&#45;amélioration environnementale</title>
<path fill="none" stroke="darkgrey" stroke-width="2.76" d="M507.44,-225.87C468.25,-201.04 402.04,-159.08 372.26,-140.21"/>
</g>
<!-- impact environnemental&#45;&#45;automatisation -->
<g id="edge40" class="edge">
<title>impact environnemental&#45;&#45;automatisation</title>
<path fill="none" stroke="darkgrey" stroke-width="1.34" d="M509.23,-267.25C452.31,-310.31 329.55,-403.16 308.87,-418.81"/>
</g>
<!-- impact environnemental&#45;&#45;développement -->
<g id="edge33" class="edge">
<title>impact environnemental&#45;&#45;développement</title>
<path fill="none" stroke="darkgrey" stroke-width="3.18" d="M504.42,-232.71C486.15,-225.87 464.83,-217.88 452.33,-213.2"/>
</g>
<!-- impact environnemental&#45;&#45;revenu -->
<g id="edge36" class="edge">
<title>impact environnemental&#45;&#45;revenu</title>
<path fill="none" stroke="darkgrey" stroke-width="1.19" d="M536.54,-209.19C534.52,-164.92 531.29,-93.72 530.51,-76.61"/>
</g>
<!-- impact environnemental&#45;&#45;déclin -->
<g id="edge37" class="edge">
<title>impact environnemental&#45;&#45;déclin</title>
<path fill="none" stroke="darkgrey" stroke-width="1.03" d="M573.67,-238.77C607.07,-232.56 653.87,-223.87 667.03,-221.43"/>
</g>
<!-- impact environnemental&#45;&#45;innovation -->
<g id="edge38" class="edge">
<title>impact environnemental&#45;&#45;innovation</title>
<path fill="none" stroke="darkgrey" stroke-width="1.42" d="M502.18,-246.2C462,-247.13 399.27,-248.6 373.75,-249.19"/>
</g>
<!-- impact environnemental&#45;&#45;croissance minière -->
<g id="edge30" class="edge">
<title>impact environnemental&#45;&#45;croissance minière</title>
<path fill="none" stroke="darkgrey" stroke-width="1.13" d="M571.55,-231.38C635.96,-204.39 773.11,-146.93 796.21,-137.25"/>
</g>
<!-- impact environnemental&#45;&#45;vision positive de la ressource -->
<g id="edge32" class="edge">
<title>impact environnemental&#45;&#45;vision positive de la ressource</title>
<path fill="none" stroke="darkgrey" stroke-width="1.4" d="M561.5,-217.45C596.21,-175.92 659.24,-100.49 676.74,-79.56"/>
</g>
<!-- impact environnemental&#45;&#45;richesse -->
<g id="edge39" class="edge">
<title>impact environnemental&#45;&#45;richesse</title>
<path fill="none" stroke="darkgrey" stroke-width="1.79" d="M573.81,-252.14C636.11,-264 760.44,-287.66 783.2,-291.99"/>
</g>
<!-- conflit&#45;&#45;économie du pays -->
<g id="edge41" class="edge">
<title>conflit&#45;&#45;économie du pays</title>
<path fill="none" stroke="darkgrey" stroke-width="1.26" d="M548.42,-341.95C523.23,-347.82 461.37,-362.25 436.39,-368.07"/>
</g>
<!-- amélioration environnementale&#45;&#45;développement durable -->
<g id="edge47" class="edge">
<title>amélioration environnementale&#45;&#45;développement durable</title>
<path fill="none" stroke="darkgrey" stroke-width="2.17" d="M344.57,-144.21C328.94,-161.52 302.51,-190.77 289.58,-205.09"/>
</g>
<!-- amélioration environnementale&#45;&#45;innovation -->
<g id="edge48" class="edge">
<title>amélioration environnementale&#45;&#45;innovation</title>
<path fill="none" stroke="darkgrey" stroke-width="1.38" d="M357.77,-148.58C358.91,-173.53 360.93,-217.8 361.87,-238.37"/>
</g>
<!-- amélioration environnementale&#45;&#45;maintien de l’exploitation -->
<g id="edge46" class="edge">
<title>amélioration environnementale&#45;&#45;maintien de l’exploitation</title>
<path fill="none" stroke="darkgrey" stroke-width="1.44" d="M343.6,-118.33C312.28,-89.77 235.61,-19.84 220.36,-5.93"/>
</g>
<!-- développement durable&#45;&#45;innovation -->
<g id="edge49" class="edge">
<title>développement durable&#45;&#45;innovation</title>
<path fill="none" stroke="darkgrey" stroke-width="1.31" d="M292.17,-218.05C307.64,-224.97 336.87,-238.04 352.28,-244.94"/>
</g>
<!-- développement&#45;&#45;économie du pays -->
<g id="edge42" class="edge">
<title>développement&#45;&#45;économie du pays</title>
<path fill="none" stroke="darkgrey" stroke-width="1.82" d="M440.55,-220.29C437.63,-249.77 429.7,-329.83 426.78,-359.4"/>
</g>
<!-- développement&#45;&#45;amélioration environnementale -->
<g id="edge43" class="edge">
<title>développement&#45;&#45;amélioration environnementale</title>
<path fill="none" stroke="darkgrey" stroke-width="1.69" d="M433.53,-201.65C418.87,-188.04 387.87,-159.24 370.14,-142.76"/>
</g>
<!-- développement&#45;&#45;développement durable -->
<g id="edge44" class="edge">
<title>développement&#45;&#45;développement durable</title>
<path fill="none" stroke="darkgrey" stroke-width="1.16" d="M430.42,-209.5C401.04,-210.29 322.12,-212.42 292.99,-213.2"/>
</g>
<!-- développement&#45;&#45;innovation -->
<g id="edge45" class="edge">
<title>développement&#45;&#45;innovation</title>
<path fill="none" stroke="darkgrey" stroke-width="1.17" d="M431.61,-214.3C416.36,-222.04 387.54,-236.68 372.34,-244.4"/>
</g>
<!-- innovation&#45;&#45;automatisation -->
<g id="edge50" class="edge">
<title>innovation&#45;&#45;automatisation</title>
<path fill="none" stroke="darkgrey" stroke-width="1.05" d="M358.93,-259.93C347.86,-293.55 313.58,-397.7 306.99,-417.72"/>
</g>
<!-- fin -->
<g id="node1" class="node">
<title>fin</title>
<ellipse fill="#82206c" stroke="white" stroke-width="0" cx="417.87" cy="-473.88" rx="14.5" ry="14.5"/>
<text text-anchor="middle" x="390.87" y="-493.66" font-family="Helvetica,sans-Serif" font-size="18.40" fill="#4d4d4d">fin</text>
</g>
<!-- emploi -->
<g id="node2" class="node">
<title>emploi</title>
<ellipse fill="#bd3853" stroke="white" stroke-width="0" cx="306.02" cy="-324.8" rx="18" ry="18"/>
<text text-anchor="middle" x="254.52" y="-348.8" font-family="Helvetica,sans-Serif" font-size="20.00" fill="#4d4d4d">emploi</text>
</g>
<!-- pollution -->
<g id="node3" class="node">
<title>pollution</title>
<ellipse fill="#f06f20" stroke="white" stroke-width="0" cx="485.43" cy="-306.97" rx="25" ry="25"/>
<text text-anchor="middle" x="408.93" y="-339.41" font-family="Helvetica,sans-Serif" font-size="23.20" fill="#4d4d4d">pollution</text>
</g>
<!-- épuisement de la ressource -->
<g id="node4" class="node">
<title>épuisement de la ressource</title>
<ellipse fill="#71196e" stroke="white" stroke-width="0" cx="523.5" cy="-425.51" rx="11" ry="11"/>
<text text-anchor="middle" x="395" y="-441.07" font-family="Helvetica,sans-Serif" font-size="16.80" fill="#4d4d4d">épuisement de la ressource</text>
</g>
<!-- impact environnemental -->
<g id="node5" class="node">
<title>impact environnemental</title>
<ellipse fill="#fcffa4" stroke="white" stroke-width="0" cx="538.18" cy="-245.36" rx="36" ry="36"/>
<text text-anchor="middle" x="674.68" y="-186.96" font-family="Helvetica,sans-Serif" font-size="28.00" fill="#4d4d4d">impact environnemental</text>
</g>
<!-- conflit -->
<g id="node6" class="node">
<title>conflit</title>
<ellipse fill="#57106e" stroke="white" stroke-width="0" cx="559.36" cy="-339.4" rx="11" ry="11"/>
<text text-anchor="middle" x="522.36" y="-354.96" font-family="Helvetica,sans-Serif" font-size="16.80" fill="#4d4d4d">conflit</text>
</g>
<!-- économie du pays -->
<g id="node7" class="node">
<title>économie du pays</title>
<ellipse fill="#6c186e" stroke="white" stroke-width="0" cx="425.67" cy="-370.57" rx="11" ry="11"/>
<text text-anchor="middle" x="337.67" y="-386.13" font-family="Helvetica,sans-Serif" font-size="16.80" fill="#4d4d4d">économie du pays</text>
</g>
<!-- amélioration environnementale -->
<g id="node8" class="node">
<title>amélioration environnementale</title>
<ellipse fill="#ba3655" stroke="white" stroke-width="0" cx="356.95" cy="-130.51" rx="18" ry="18"/>
<text text-anchor="middle" x="183.45" y="-154.51" font-family="Helvetica,sans-Serif" font-size="20.00" fill="#4d4d4d">amélioration environnementale</text>
</g>
<!-- famille -->
<g id="node9" class="node">
<title>famille</title>
<ellipse fill="#030210" stroke="white" stroke-width="0" cx="111.69" cy="-400.47" rx="0.5" ry="0.5"/>
<text text-anchor="middle" x="90.69" y="-404.37" font-family="Helvetica,sans-Serif" font-size="12.00" fill="#4d4d4d">famille</text>
</g>
<!-- développement durable -->
<g id="node10" class="node">
<title>développement durable</title>
<ellipse fill="#5c126e" stroke="white" stroke-width="0" cx="281.99" cy="-213.5" rx="11" ry="11"/>
<text text-anchor="middle" x="169.99" y="-229.06" font-family="Helvetica,sans-Serif" font-size="16.80" fill="#4d4d4d">développement durable</text>
</g>
<!-- formation -->
<g id="node11" class="node">
<title>formation</title>
<ellipse fill="#000004" stroke="white" stroke-width="0" cx="58.5" cy="-261.86" rx="0.5" ry="0.5"/>
<text text-anchor="middle" x="29" y="-265.76" font-family="Helvetica,sans-Serif" font-size="12.00" fill="#4d4d4d">formation</text>
</g>
<!-- automatisation -->
<g id="node12" class="node">
<title>automatisation</title>
<ellipse fill="#210c4a" stroke="white" stroke-width="0" cx="305.89" cy="-421.07" rx="3.5" ry="3.5"/>
<text text-anchor="middle" x="251.39" y="-421.69" font-family="Helvetica,sans-Serif" font-size="13.60" fill="#4d4d4d">automatisation</text>
</g>
<!-- montagne -->
<g id="node13" class="node">
<title>montagne</title>
<ellipse fill="#0c0826" stroke="white" stroke-width="0" cx="704.52" cy="-430.17" rx="3.5" ry="3.5"/>
<text text-anchor="middle" x="666.02" y="-437.79" font-family="Helvetica,sans-Serif" font-size="13.60" fill="#4d4d4d">montagne</text>
</g>
<!-- biodiversité -->
<g id="node14" class="node">
<title>biodiversité</title>
<ellipse fill="#240c4f" stroke="white" stroke-width="0" cx="624.37" cy="-545.43" rx="7" ry="7"/>
<text text-anchor="middle" x="572.37" y="-557.27" font-family="Helvetica,sans-Serif" font-size="15.20" fill="#4d4d4d">biodiversité</text>
</g>
<!-- développement -->
<g id="node15" class="node">
<title>développement</title>
<ellipse fill="#69166e" stroke="white" stroke-width="0" cx="441.65" cy="-209.2" rx="11" ry="11"/>
<text text-anchor="middle" x="364.15" y="-224.76" font-family="Helvetica,sans-Serif" font-size="16.80" fill="#4d4d4d">développement</text>
</g>
<!-- revenu -->
<g id="node16" class="node">
<title>revenu</title>
<ellipse fill="#08051d" stroke="white" stroke-width="0" cx="530.34" cy="-72.83" rx="3.5" ry="3.5"/>
<text text-anchor="middle" x="503.34" y="-80.45" font-family="Helvetica,sans-Serif" font-size="13.60" fill="#4d4d4d">revenu</text>
</g>
<!-- déclin -->
<g id="node17" class="node">
<title>déclin</title>
<ellipse fill="#230c4c" stroke="white" stroke-width="0" cx="670.6" cy="-220.76" rx="3.5" ry="3.5"/>
<text text-anchor="middle" x="646.6" y="-228.38" font-family="Helvetica,sans-Serif" font-size="13.60" fill="#4d4d4d">déclin</text>
</g>
<!-- innovation -->
<g id="node18" class="node">
<title>innovation</title>
<ellipse fill="#771c6d" stroke="white" stroke-width="0" cx="362.38" cy="-249.46" rx="11" ry="11"/>
<text text-anchor="middle" x="306.88" y="-265.02" font-family="Helvetica,sans-Serif" font-size="16.80" fill="#4d4d4d">innovation</text>
</g>
<!-- croissance minière -->
<g id="node19" class="node">
<title>croissance minière</title>
<ellipse fill="#040314" stroke="white" stroke-width="0" cx="799.55" cy="-135.86" rx="3.5" ry="3.5"/>
<text text-anchor="middle" x="732.55" y="-143.48" font-family="Helvetica,sans-Serif" font-size="13.60" fill="#4d4d4d">croissance minière</text>
</g>
<!-- vision positive de la ressource -->
<g id="node20" class="node">
<title>vision positive de la ressource</title>
<ellipse fill="#320a5e" stroke="white" stroke-width="0" cx="681.35" cy="-74.04" rx="7" ry="7"/>
<text text-anchor="middle" x="559.85" y="-54.88" font-family="Helvetica,sans-Serif" font-size="15.20" fill="#4d4d4d">vision positive de la ressource</text>
</g>
<!-- richesse -->
<g id="node21" class="node">
<title>richesse</title>
<ellipse fill="#0a0722" stroke="white" stroke-width="0" cx="786.83" cy="-292.68" rx="3.5" ry="3.5"/>
<text text-anchor="middle" x="755.83" y="-300.3" font-family="Helvetica,sans-Serif" font-size="13.60" fill="#4d4d4d">richesse</text>
</g>
<!-- maintien de l’exploitation -->
<g id="node22" class="node">
<title>maintien de l’exploitation</title>
<ellipse fill="#150b37" stroke="white" stroke-width="0" cx="217.7" cy="-3.5" rx="3.5" ry="3.5"/>
<text text-anchor="middle" x="126.7" y="-11.12" font-family="Helvetica,sans-Serif" font-size="13.60" fill="#4d4d4d">maintien de l’exploitation</text>
</g>
</g>
</svg>
