<?xml version="1.0" encoding="UTF-8" standalone="no"?>
<!DOCTYPE svg PUBLIC "-//W3C//DTD SVG 1.1//EN"
 "http://www.w3.org/Graphics/SVG/1.1/DTD/svg11.dtd">
<!-- Generated by graphviz version 2.43.0 (0)
 -->
<!-- Pages: 1 -->
<svg width="390pt" height="271pt"
 viewBox="0.00 0.00 390.26 271.39" xmlns="http://www.w3.org/2000/svg" xmlns:xlink="http://www.w3.org/1999/xlink">
<g id="graph0" class="graph" transform="scale(1 1) rotate(0) translate(4 267.39)">
<polygon fill="white" stroke="transparent" points="-4,4 -4,-267.39 386.26,-267.39 386.26,4 -4,4"/>
<!-- emploi&#45;&#45;pollution -->
<g id="edge1" class="edge">
<title>emploi&#45;&#45;pollution</title>
<path fill="none" stroke="darkgrey" stroke-width="10" d="M270.27,-218.68C264.7,-196.42 255,-157.71 247.9,-129.36"/>
</g>
<!-- emploi&#45;&#45;impact environnemental -->
<g id="edge2" class="edge">
<title>emploi&#45;&#45;impact environnemental</title>
<path fill="none" stroke="darkgrey" stroke-width="1.79" d="M258.92,-226.9C238.57,-214.66 203.4,-193.51 183.19,-181.36"/>
</g>
<!-- pollution&#45;&#45;impact environnemental -->
<g id="edge4" class="edge">
<title>pollution&#45;&#45;impact environnemental</title>
<path fill="none" stroke="darkgrey" stroke-width="6.8" d="M214.52,-121C202.9,-133.66 189.53,-148.22 180.06,-158.54"/>
</g>
<!-- pollution&#45;&#45;épuisable -->
<g id="edge3" class="edge">
<title>pollution&#45;&#45;épuisable</title>
<path fill="none" stroke="darkgrey" stroke-width="9.44" d="M202.82,-91.78C162.28,-89.06 98.58,-84.78 70.1,-82.86"/>
</g>
<!-- pollution&#45;&#45;démolition -->
<g id="edge5" class="edge">
<title>pollution&#45;&#45;démolition</title>
<path fill="none" stroke="darkgrey" stroke-width="4.97" d="M271.83,-79.19C311.32,-61.06 373.39,-32.55 380.99,-29.06"/>
</g>
<!-- pollution&#45;&#45;économie -->
<g id="edge6" class="edge">
<title>pollution&#45;&#45;économie</title>
<path fill="none" stroke="darkgrey" stroke-width="5.05" d="M215.09,-66.97C200.55,-50.48 182.99,-30.55 173.24,-19.47"/>
</g>
<!-- impact environnemental&#45;&#45;économie -->
<g id="edge7" class="edge">
<title>impact environnemental&#45;&#45;économie</title>
<path fill="none" stroke="darkgrey" d="M167.47,-153.87C167.07,-120.31 166.23,-49.51 165.91,-22.14"/>
</g>
<!-- emploi -->
<g id="node1" class="node">
<title>emploi</title>
<ellipse fill="#c73e4c" stroke="white" stroke-width="0" cx="274.71" cy="-236.39" rx="18" ry="18"/>
<text text-anchor="middle" x="242.71" y="-256.99" font-family="Helvetica,sans-Serif" font-size="8.00" fill="#4d4d4d">emploi</text>
</g>
<!-- pollution -->
<g id="node2" class="node">
<title>pollution</title>
<ellipse fill="#fcffa4" stroke="white" stroke-width="0" cx="239.1" cy="-94.22" rx="36" ry="36"/>
<text text-anchor="middle" x="184.6" y="-132.82" font-family="Helvetica,sans-Serif" font-size="8.00" fill="#4d4d4d">pollution</text>
</g>
<!-- impact environnemental -->
<g id="node3" class="node">
<title>impact environnemental</title>
<ellipse fill="#ab2f5e" stroke="white" stroke-width="0" cx="167.68" cy="-172.03" rx="18" ry="18"/>
<text text-anchor="middle" x="99.68" y="-192.63" font-family="Helvetica,sans-Serif" font-size="8.00" fill="#4d4d4d">impact environnemental</text>
</g>
<!-- épuisable -->
<g id="node4" class="node">
<title>épuisable</title>
<ellipse fill="#7c1d6d" stroke="white" stroke-width="0" cx="55.5" cy="-81.88" rx="14.5" ry="14.5"/>
<text text-anchor="middle" x="20.5" y="-98.98" font-family="Helvetica,sans-Serif" font-size="8.00" fill="#4d4d4d">épuisable</text>
</g>
<!-- démolition -->
<g id="node5" class="node">
<title>démolition</title>
<ellipse fill="#000004" stroke="white" stroke-width="0" cx="381.76" cy="-28.7" rx="0.5" ry="0.5"/>
<text text-anchor="middle" x="359.26" y="-31.8" font-family="Helvetica,sans-Serif" font-size="8.00" fill="#4d4d4d">démolition</text>
</g>
<!-- économie -->
<g id="node6" class="node">
<title>économie</title>
<ellipse fill="#64156e" stroke="white" stroke-width="0" cx="165.77" cy="-11" rx="11" ry="11"/>
<text text-anchor="middle" x="134.27" y="-24.6" font-family="Helvetica,sans-Serif" font-size="8.00" fill="#4d4d4d">économie</text>
</g>
</g>
</svg>
