<?xml version="1.0" encoding="UTF-8" standalone="no"?>
<!DOCTYPE svg PUBLIC "-//W3C//DTD SVG 1.1//EN"
 "http://www.w3.org/Graphics/SVG/1.1/DTD/svg11.dtd">
<!-- Generated by graphviz version 2.43.0 (0)
 -->
<!-- Pages: 1 -->
<svg width="406pt" height="307pt"
 viewBox="0.00 0.00 406.44 307.02" xmlns="http://www.w3.org/2000/svg" xmlns:xlink="http://www.w3.org/1999/xlink">
<g id="graph0" class="graph" transform="scale(1 1) rotate(0) translate(4 303.02)">
<polygon fill="white" stroke="transparent" points="-4,4 -4,-303.02 402.44,-303.02 402.44,4 -4,4"/>
<!-- emploi&#45;&#45;pollution -->
<g id="edge1" class="edge">
<title>emploi&#45;&#45;pollution</title>
<path fill="none" stroke="darkgrey" stroke-width="10" d="M208.82,-210.92C208.37,-197.39 207.77,-179.64 207.25,-164.04"/>
</g>
<!-- emploi&#45;&#45;impact environnemental -->
<g id="edge2" class="edge">
<title>emploi&#45;&#45;impact environnemental</title>
<path fill="none" stroke="darkgrey" stroke-width="5.58" d="M230.22,-226.67C251.21,-220.64 283.38,-211.41 303.21,-205.73"/>
</g>
<!-- emploi&#45;&#45;ressource -->
<g id="edge3" class="edge">
<title>emploi&#45;&#45;ressource</title>
<path fill="none" stroke="darkgrey" stroke-width="2.24" d="M227.05,-245.28C239.2,-254.09 254.89,-265.46 264.6,-272.49"/>
</g>
<!-- emploi&#45;&#45;économie -->
<g id="edge4" class="edge">
<title>emploi&#45;&#45;économie</title>
<path fill="none" stroke="darkgrey" stroke-width="3.02" d="M223.8,-216.09C237.63,-200.08 258.24,-176.21 270.28,-162.28"/>
</g>
<!-- emploi&#45;&#45;végétalisation -->
<g id="edge5" class="edge">
<title>emploi&#45;&#45;végétalisation</title>
<path fill="none" stroke="darkgrey" stroke-width="2.5" d="M191.29,-244.04C177.07,-252.96 158.2,-264.78 148.72,-270.73"/>
</g>
<!-- emploi&#45;&#45;automatisation -->
<g id="edge6" class="edge">
<title>emploi&#45;&#45;automatisation</title>
<path fill="none" stroke="darkgrey" stroke-width="1.29" d="M188.05,-235.83C155.94,-240.66 97.07,-249.52 76.95,-252.54"/>
</g>
<!-- pollution&#45;&#45;impact environnemental -->
<g id="edge8" class="edge">
<title>pollution&#45;&#45;impact environnemental</title>
<path fill="none" stroke="darkgrey" stroke-width="6.11" d="M236.5,-147.26C258.69,-161.31 287.82,-179.76 305.39,-190.88"/>
</g>
<!-- pollution&#45;&#45;ressource -->
<g id="edge9" class="edge">
<title>pollution&#45;&#45;ressource</title>
<path fill="none" stroke="darkgrey" stroke-width="2.22" d="M220.87,-161.12C236.25,-195.51 259.38,-247.23 269.08,-268.9"/>
</g>
<!-- pollution&#45;&#45;économie -->
<g id="edge11" class="edge">
<title>pollution&#45;&#45;économie</title>
<path fill="none" stroke="darkgrey" stroke-width="7.45" d="M240.42,-138.69C249.47,-141.51 258.73,-144.4 266.02,-146.67"/>
</g>
<!-- pollution&#45;&#45;épuisable -->
<g id="edge7" class="edge">
<title>pollution&#45;&#45;épuisable</title>
<path fill="none" stroke="darkgrey" stroke-width="8.16" d="M240.76,-117.76C266.22,-110.28 299.45,-100.51 317.93,-95.07"/>
</g>
<!-- pollution&#45;&#45;démolition -->
<g id="edge10" class="edge">
<title>pollution&#45;&#45;démolition</title>
<path fill="none" stroke="darkgrey" stroke-width="5.24" d="M170.14,-132.52C136.9,-136.73 90.02,-142.66 72.35,-144.9"/>
</g>
<!-- pollution&#45;&#45;argent -->
<g id="edge12" class="edge">
<title>pollution&#45;&#45;argent</title>
<path fill="none" stroke="darkgrey" stroke-width="1.29" d="M171.45,-138.08C154.17,-143.12 136.26,-148.36 133.06,-149.29"/>
</g>
<!-- pollution&#45;&#45;technologie -->
<g id="edge13" class="edge">
<title>pollution&#45;&#45;technologie</title>
<path fill="none" stroke="darkgrey" stroke-width="1.41" d="M173.34,-112.46C137.59,-95.5 83.55,-69.87 69.82,-63.36"/>
</g>
<!-- pollution&#45;&#45;richesse -->
<g id="edge14" class="edge">
<title>pollution&#45;&#45;richesse</title>
<path fill="none" stroke="darkgrey" stroke-width="1.63" d="M185.12,-98.66C170.55,-78.26 152.67,-53.22 146.48,-44.54"/>
</g>
<!-- pollution&#45;&#45;écologie -->
<g id="edge15" class="edge">
<title>pollution&#45;&#45;écologie</title>
<path fill="none" stroke="darkgrey" d="M211.8,-92.12C217.47,-56.78 225.44,-7.18 226.41,-1.11"/>
</g>
<!-- impact environnemental&#45;&#45;ressource -->
<g id="edge19" class="edge">
<title>impact environnemental&#45;&#45;ressource</title>
<path fill="none" stroke="darkgrey" stroke-width="2.31" d="M311.51,-216.15C301.94,-232.02 287.35,-256.22 279.35,-269.49"/>
</g>
<!-- impact environnemental&#45;&#45;économie -->
<g id="edge20" class="edge">
<title>impact environnemental&#45;&#45;économie</title>
<path fill="none" stroke="darkgrey" stroke-width="3.69" d="M309.25,-186.58C302.92,-178.89 295.21,-169.52 289.29,-162.32"/>
</g>
<!-- impact environnemental&#45;&#45;conflit -->
<g id="edge21" class="edge">
<title>impact environnemental&#45;&#45;conflit</title>
<path fill="none" stroke="darkgrey" d="M334.78,-189C352.72,-173.97 382.71,-148.87 392.06,-141.04"/>
</g>
<!-- épuisable&#45;&#45;impact environnemental -->
<g id="edge16" class="edge">
<title>épuisable&#45;&#45;impact environnemental</title>
<path fill="none" stroke="darkgrey" stroke-width="1.16" d="M330.39,-105.77C328.39,-125.65 324.83,-160.97 322.67,-182.46"/>
</g>
<!-- épuisable&#45;&#45;économie -->
<g id="edge17" class="edge">
<title>épuisable&#45;&#45;économie</title>
<path fill="none" stroke="darkgrey" stroke-width="1.94" d="M322.36,-101.99C313.11,-112.69 299.14,-128.86 289.8,-139.68"/>
</g>
<!-- épuisable&#45;&#45;conflit -->
<g id="edge18" class="edge">
<title>épuisable&#45;&#45;conflit</title>
<path fill="none" stroke="darkgrey" stroke-width="1.25" d="M343.74,-99.94C358.58,-111.15 383.11,-129.68 391.78,-136.24"/>
</g>
<!-- emploi -->
<g id="node1" class="node">
<title>emploi</title>
<ellipse fill="#e45a31" stroke="white" stroke-width="0" cx="209.54" cy="-232.6" rx="21.5" ry="21.5"/>
<text text-anchor="middle" x="174.04" y="-256.7" font-family="Helvetica,sans-Serif" font-size="8.00" fill="#4d4d4d">emploi</text>
</g>
<!-- pollution -->
<g id="node2" class="node">
<title>pollution</title>
<ellipse fill="#fcffa4" stroke="white" stroke-width="0" cx="206.04" cy="-127.97" rx="36" ry="36"/>
<text text-anchor="middle" x="151.54" y="-166.57" font-family="Helvetica,sans-Serif" font-size="8.00" fill="#4d4d4d">pollution</text>
</g>
<!-- impact environnemental -->
<g id="node3" class="node">
<title>impact environnemental</title>
<ellipse fill="#c63d4d" stroke="white" stroke-width="0" cx="320.84" cy="-200.67" rx="18" ry="18"/>
<text text-anchor="middle" x="252.84" y="-185.27" font-family="Helvetica,sans-Serif" font-size="8.00" fill="#4d4d4d">impact environnemental</text>
</g>
<!-- ressource -->
<g id="node4" class="node">
<title>ressource</title>
<ellipse fill="#59106e" stroke="white" stroke-width="0" cx="273.6" cy="-279.02" rx="11" ry="11"/>
<text text-anchor="middle" x="242.6" y="-292.62" font-family="Helvetica,sans-Serif" font-size="8.00" fill="#4d4d4d">ressource</text>
</g>
<!-- économie -->
<g id="node5" class="node">
<title>économie</title>
<ellipse fill="#8a226a" stroke="white" stroke-width="0" cx="279.99" cy="-151.03" rx="14.5" ry="14.5"/>
<text text-anchor="middle" x="244.99" y="-168.13" font-family="Helvetica,sans-Serif" font-size="8.00" fill="#4d4d4d">économie</text>
</g>
<!-- végétalisation -->
<g id="node6" class="node">
<title>végétalisation</title>
<ellipse fill="#510e6c" stroke="white" stroke-width="0" cx="142.73" cy="-274.48" rx="7" ry="7"/>
<text text-anchor="middle" x="106.23" y="-284.08" font-family="Helvetica,sans-Serif" font-size="8.00" fill="#4d4d4d">végétalisation</text>
</g>
<!-- automatisation -->
<g id="node7" class="node">
<title>automatisation</title>
<ellipse fill="#2d0b59" stroke="white" stroke-width="0" cx="70" cy="-253.59" rx="7" ry="7"/>
<text text-anchor="middle" x="31.5" y="-263.19" font-family="Helvetica,sans-Serif" font-size="8.00" fill="#4d4d4d">automatisation</text>
</g>
<!-- épuisable -->
<g id="node8" class="node">
<title>épuisable</title>
<ellipse fill="#9f2a63" stroke="white" stroke-width="0" cx="331.87" cy="-90.97" rx="14.5" ry="14.5"/>
<text text-anchor="middle" x="296.87" y="-108.07" font-family="Helvetica,sans-Serif" font-size="8.00" fill="#4d4d4d">épuisable</text>
</g>
<!-- démolition -->
<g id="node9" class="node">
<title>démolition</title>
<ellipse fill="#230c4c" stroke="white" stroke-width="0" cx="65.23" cy="-145.8" rx="7" ry="7"/>
<text text-anchor="middle" x="36.23" y="-155.4" font-family="Helvetica,sans-Serif" font-size="8.00" fill="#4d4d4d">démolition</text>
</g>
<!-- argent -->
<g id="node10" class="node">
<title>argent</title>
<ellipse fill="#000004" stroke="white" stroke-width="0" cx="132.55" cy="-149.44" rx="0.5" ry="0.5"/>
<text text-anchor="middle" x="118.05" y="-152.54" font-family="Helvetica,sans-Serif" font-size="8.00" fill="#4d4d4d">argent</text>
</g>
<!-- technologie -->
<g id="node11" class="node">
<title>technologie</title>
<ellipse fill="#0d0829" stroke="white" stroke-width="0" cx="66.56" cy="-61.81" rx="3.5" ry="3.5"/>
<text text-anchor="middle" x="38.56" y="-67.91" font-family="Helvetica,sans-Serif" font-size="8.00" fill="#4d4d4d">technologie</text>
</g>
<!-- richesse -->
<g id="node12" class="node">
<title>richesse</title>
<ellipse fill="#0d0829" stroke="white" stroke-width="0" cx="144.25" cy="-41.41" rx="3.5" ry="3.5"/>
<text text-anchor="middle" x="123.25" y="-47.51" font-family="Helvetica,sans-Serif" font-size="8.00" fill="#4d4d4d">richesse</text>
</g>
<!-- écologie -->
<g id="node13" class="node">
<title>écologie</title>
<ellipse fill="#030210" stroke="white" stroke-width="0" cx="226.51" cy="-0.5" rx="0.5" ry="0.5"/>
<text text-anchor="middle" x="208.01" y="-3.6" font-family="Helvetica,sans-Serif" font-size="8.00" fill="#4d4d4d">écologie</text>
</g>
<!-- conflit -->
<g id="node14" class="node">
<title>conflit</title>
<ellipse fill="#180c3c" stroke="white" stroke-width="0" cx="394.94" cy="-138.63" rx="3.5" ry="3.5"/>
<text text-anchor="middle" x="378.44" y="-144.73" font-family="Helvetica,sans-Serif" font-size="8.00" fill="#4d4d4d">conflit</text>
</g>
</g>
</svg>
