<?xml version="1.0" encoding="UTF-8" standalone="no"?>
<!DOCTYPE svg PUBLIC "-//W3C//DTD SVG 1.1//EN"
 "http://www.w3.org/Graphics/SVG/1.1/DTD/svg11.dtd">
<!-- Generated by graphviz version 2.43.0 (0)
 -->
<!-- Pages: 1 -->
<svg width="961pt" height="578pt"
 viewBox="0.00 0.00 960.86 577.74" xmlns="http://www.w3.org/2000/svg" xmlns:xlink="http://www.w3.org/1999/xlink">
<g id="graph0" class="graph" transform="scale(1 1) rotate(0) translate(4 573.74)">
<polygon fill="white" stroke="transparent" points="-4,4 -4,-573.74 956.86,-573.74 956.86,4 -4,4"/>
<!-- pollution&#45;&#45;dégradation environnementale -->
<g id="edge1" class="edge">
<title>pollution&#45;&#45;dégradation environnementale</title>
<path fill="none" stroke="darkgrey" stroke-width="9.05" d="M444.76,-204.67C455.23,-228.18 474.62,-271.71 488.11,-302"/>
</g>
<!-- pollution&#45;&#45;nouvelle&#45;calédonie -->
<g id="edge2" class="edge">
<title>pollution&#45;&#45;nouvelle&#45;calédonie</title>
<path fill="none" stroke="darkgrey" stroke-width="1.51" d="M419.04,-187.39C360.81,-185.19 182.33,-178.44 154.8,-177.4"/>
</g>
<!-- pollution&#45;&#45;travail -->
<g id="edge3" class="edge">
<title>pollution&#45;&#45;travail</title>
<path fill="none" stroke="darkgrey" stroke-width="6.51" d="M419.06,-189.73C407.4,-190.78 392.23,-192.15 379.99,-193.25"/>
</g>
<!-- pollution&#45;&#45;économie -->
<g id="edge4" class="edge">
<title>pollution&#45;&#45;économie</title>
<path fill="none" stroke="darkgrey" stroke-width="5.38" d="M431.72,-205.23C426.7,-220.45 419.41,-242.56 414.4,-257.76"/>
</g>
<!-- pollution&#45;&#45;nickel -->
<g id="edge5" class="edge">
<title>pollution&#45;&#45;nickel</title>
<path fill="none" stroke="darkgrey" stroke-width="5.29" d="M449.93,-201.04C459.38,-210.77 472.63,-224.43 484.23,-236.4"/>
</g>
<!-- pollution&#45;&#45;ressource minière -->
<g id="edge6" class="edge">
<title>pollution&#45;&#45;ressource minière</title>
<path fill="none" stroke="darkgrey" stroke-width="2.11" d="M422.86,-199.28C379.21,-232.92 249.94,-332.56 214.45,-359.92"/>
</g>
<!-- pollution&#45;&#45;politique -->
<g id="edge7" class="edge">
<title>pollution&#45;&#45;politique</title>
<path fill="none" stroke="darkgrey" stroke-width="3.22" d="M419.43,-189.56C384.29,-192.45 307.01,-198.81 274.89,-201.45"/>
</g>
<!-- pollution&#45;&#45;secteur nickel -->
<g id="edge8" class="edge">
<title>pollution&#45;&#45;secteur nickel</title>
<path fill="none" stroke="darkgrey" stroke-width="3.33" d="M431.32,-205.08C419.06,-239.5 391.41,-317.11 379.12,-351.6"/>
</g>
<!-- pollution&#45;&#45;nature -->
<g id="edge9" class="edge">
<title>pollution&#45;&#45;nature</title>
<path fill="none" stroke="darkgrey" stroke-width="3.58" d="M420.1,-194.09C372.12,-210.74 237.89,-257.34 194.15,-272.53"/>
</g>
<!-- pollution&#45;&#45;amélioration environnementale -->
<g id="edge10" class="edge">
<title>pollution&#45;&#45;amélioration environnementale</title>
<path fill="none" stroke="darkgrey" stroke-width="1.13" d="M455.55,-189.1C517.17,-192.54 715.04,-203.59 727.34,-204.28"/>
</g>
<!-- pollution&#45;&#45;société néo&#45;calédonienne -->
<g id="edge11" class="edge">
<title>pollution&#45;&#45;société néo&#45;calédonienne</title>
<path fill="none" stroke="darkgrey" stroke-width="1.64" d="M422.51,-177.35C383.75,-149.37 281.29,-75.39 262.42,-61.76"/>
</g>
<!-- pollution&#45;&#45;exploitation minière -->
<g id="edge12" class="edge">
<title>pollution&#45;&#45;exploitation minière</title>
<path fill="none" stroke="darkgrey" stroke-width="2.29" d="M426.27,-202.5C391.02,-248.25 282.12,-389.61 250.17,-431.09"/>
</g>
<!-- pollution&#45;&#45;alternative au développement -->
<g id="edge13" class="edge">
<title>pollution&#45;&#45;alternative au développement</title>
<path fill="none" stroke="darkgrey" stroke-width="1.99" d="M431.12,-205.12C406.49,-272.15 317,-515.7 305.23,-547.75"/>
</g>
<!-- pollution&#45;&#45;matériel -->
<g id="edge14" class="edge">
<title>pollution&#45;&#45;matériel</title>
<path fill="none" stroke="darkgrey" stroke-width="2.89" d="M439.61,-206.02C445.27,-251.54 460.13,-370.86 465.29,-412.27"/>
</g>
<!-- pollution&#45;&#45;foncier -->
<g id="edge15" class="edge">
<title>pollution&#45;&#45;foncier</title>
<path fill="none" stroke="darkgrey" stroke-width="1.21" d="M425.88,-173.69C406.34,-149.2 367.46,-100.47 354.11,-83.75"/>
</g>
<!-- pollution&#45;&#45;relation politique -->
<g id="edge16" class="edge">
<title>pollution&#45;&#45;relation politique</title>
<path fill="none" stroke="darkgrey" stroke-width="1.08" d="M421.56,-197.45C361.49,-233 149.44,-358.49 121.54,-375"/>
</g>
<!-- pollution&#45;&#45;industrie -->
<g id="edge17" class="edge">
<title>pollution&#45;&#45;industrie</title>
<path fill="none" stroke="darkgrey" stroke-width="2.92" d="M423.17,-199.9C397.63,-221.13 344.24,-265.53 318.77,-286.7"/>
</g>
<!-- pollution&#45;&#45;risque -->
<g id="edge18" class="edge">
<title>pollution&#45;&#45;risque</title>
<path fill="none" stroke="darkgrey" stroke-width="1.04" d="M447.32,-172.67C473.27,-132.46 541.84,-26.19 554.47,-6.62"/>
</g>
<!-- pollution&#45;&#45;échange commercial -->
<g id="edge19" class="edge">
<title>pollution&#45;&#45;échange commercial</title>
<path fill="none" stroke="darkgrey" stroke-width="1.27" d="M432.25,-205.62C415.75,-262.05 364.44,-437.5 353.41,-475.21"/>
</g>
<!-- dégradation environnementale&#45;&#45;nouvelle&#45;calédonie -->
<g id="edge20" class="edge">
<title>dégradation environnementale&#45;&#45;nouvelle&#45;calédonie</title>
<path fill="none" stroke="darkgrey" stroke-width="1.75" d="M469.79,-320.3C388.41,-283.76 183,-191.53 154.51,-178.75"/>
</g>
<!-- dégradation environnementale&#45;&#45;travail -->
<g id="edge21" class="edge">
<title>dégradation environnementale&#45;&#45;travail</title>
<path fill="none" stroke="darkgrey" stroke-width="8.12" d="M476.72,-309.81C446.79,-280.82 398.77,-234.29 374.12,-210.41"/>
</g>
<!-- dégradation environnementale&#45;&#45;économie -->
<g id="edge22" class="edge">
<title>dégradation environnementale&#45;&#45;économie</title>
<path fill="none" stroke="darkgrey" stroke-width="7.5" d="M472.32,-315.58C456.22,-305.27 437.16,-293.06 424.14,-284.73"/>
</g>
<!-- dégradation environnementale&#45;&#45;nickel -->
<g id="edge23" class="edge">
<title>dégradation environnementale&#45;&#45;nickel</title>
<path fill="none" stroke="darkgrey" stroke-width="10" d="M506.14,-299.22C506.17,-298.93 506.2,-298.65 506.22,-298.36"/>
</g>
<!-- dégradation environnementale&#45;&#45;ressource minière -->
<g id="edge24" class="edge">
<title>dégradation environnementale&#45;&#45;ressource minière</title>
<path fill="none" stroke="darkgrey" stroke-width="4.39" d="M466.99,-338.99C399.6,-346.19 257.25,-361.39 216.48,-365.75"/>
</g>
<!-- dégradation environnementale&#45;&#45;politique -->
<g id="edge25" class="edge">
<title>dégradation environnementale&#45;&#45;politique</title>
<path fill="none" stroke="darkgrey" stroke-width="4.65" d="M471.18,-317.83C417.27,-288.36 309.99,-229.73 273.18,-209.61"/>
</g>
<!-- dégradation environnementale&#45;&#45;secteur nickel -->
<g id="edge26" class="edge">
<title>dégradation environnementale&#45;&#45;secteur nickel</title>
<path fill="none" stroke="darkgrey" stroke-width="4.74" d="M467.74,-344.23C442.81,-350.66 410.39,-359.04 390.68,-364.13"/>
</g>
<!-- dégradation environnementale&#45;&#45;nature -->
<g id="edge27" class="edge">
<title>dégradation environnementale&#45;&#45;nature</title>
<path fill="none" stroke="darkgrey" stroke-width="5.35" d="M467.42,-328.8C397.02,-316.2 242.27,-288.49 194.51,-279.94"/>
</g>
<!-- dégradation environnementale&#45;&#45;amélioration environnementale -->
<g id="edge28" class="edge">
<title>dégradation environnementale&#45;&#45;amélioration environnementale</title>
<path fill="none" stroke="darkgrey" stroke-width="1.45" d="M534.17,-316.96C593.11,-282.69 715.73,-211.41 727.09,-204.81"/>
</g>
<!-- dégradation environnementale&#45;&#45;société néo&#45;calédonienne -->
<g id="edge29" class="edge">
<title>dégradation environnementale&#45;&#45;société néo&#45;calédonienne</title>
<path fill="none" stroke="darkgrey" stroke-width="2.12" d="M478.87,-307.98C422,-243.62 282.34,-85.54 261.92,-62.43"/>
</g>
<!-- dégradation environnementale&#45;&#45;exploitation minière -->
<g id="edge30" class="edge">
<title>dégradation environnementale&#45;&#45;exploitation minière</title>
<path fill="none" stroke="darkgrey" stroke-width="4.11" d="M469.48,-348.88C411.48,-372.7 294.56,-420.74 254.83,-437.07"/>
</g>
<!-- dégradation environnementale&#45;&#45;alternative au développement -->
<g id="edge31" class="edge">
<title>dégradation environnementale&#45;&#45;alternative au développement</title>
<path fill="none" stroke="darkgrey" stroke-width="2.34" d="M478.48,-361.65C429.93,-414.39 324.31,-529.12 306.51,-548.45"/>
</g>
<!-- dégradation environnementale&#45;&#45;matériel -->
<g id="edge32" class="edge">
<title>dégradation environnementale&#45;&#45;matériel</title>
<path fill="none" stroke="darkgrey" stroke-width="4.53" d="M489.75,-368.71C483.77,-384.02 477.01,-401.29 472.44,-412.96"/>
</g>
<!-- dégradation environnementale&#45;&#45;foncier -->
<g id="edge33" class="edge">
<title>dégradation environnementale&#45;&#45;foncier</title>
<path fill="none" stroke="darkgrey" stroke-width="2.41" d="M484.38,-304.13C448.36,-243.74 370.81,-113.71 353.13,-84.07"/>
</g>
<!-- dégradation environnementale&#45;&#45;relation politique -->
<g id="edge34" class="edge">
<title>dégradation environnementale&#45;&#45;relation politique</title>
<path fill="none" stroke="darkgrey" stroke-width="1.48" d="M467.06,-339.03C378.35,-348.65 153.32,-373.03 122.11,-376.41"/>
</g>
<!-- dégradation environnementale&#45;&#45;industrie -->
<g id="edge35" class="edge">
<title>dégradation environnementale&#45;&#45;industrie</title>
<path fill="none" stroke="darkgrey" stroke-width="4.08" d="M467.44,-328.59C424.9,-320.7 355.23,-307.8 322.59,-301.75"/>
</g>
<!-- dégradation environnementale&#45;&#45;risque -->
<g id="edge36" class="edge">
<title>dégradation environnementale&#45;&#45;risque</title>
<path fill="none" stroke="darkgrey" stroke-width="1.83" d="M508.67,-299.34C521.45,-220.29 551.31,-35.57 555.89,-7.19"/>
</g>
<!-- dégradation environnementale&#45;&#45;échange commercial -->
<g id="edge37" class="edge">
<title>dégradation environnementale&#45;&#45;échange commercial</title>
<path fill="none" stroke="darkgrey" stroke-width="2.41" d="M476.82,-360.46C439.92,-396.31 374.85,-459.52 356.35,-477.5"/>
</g>
<!-- dégradation environnementale&#45;&#45;avenir sans nickel -->
<g id="edge38" class="edge">
<title>dégradation environnementale&#45;&#45;avenir sans nickel</title>
<path fill="none" stroke="darkgrey" stroke-width="1.2" d="M538.15,-342.77C641.63,-365.14 938.02,-429.19 951.86,-432.18"/>
</g>
<!-- nouvelle&#45;calédonie&#45;&#45;travail -->
<g id="edge39" class="edge">
<title>nouvelle&#45;calédonie&#45;&#45;travail</title>
<path fill="none" stroke="darkgrey" stroke-width="1.84" d="M154.81,-177.58C176.36,-179.44 289.04,-189.19 336.89,-193.32"/>
</g>
<!-- nouvelle&#45;calédonie&#45;&#45;économie -->
<g id="edge40" class="edge">
<title>nouvelle&#45;calédonie&#45;&#45;économie</title>
<path fill="none" stroke="darkgrey" stroke-width="1.61" d="M154.86,-178.65C180.9,-188.52 339.38,-248.58 391.88,-268.47"/>
</g>
<!-- nouvelle&#45;calédonie&#45;&#45;nickel -->
<g id="edge41" class="edge">
<title>nouvelle&#45;calédonie&#45;&#45;nickel</title>
<path fill="none" stroke="darkgrey" stroke-width="2.84" d="M154.76,-178.11C184.3,-185.13 390.54,-234.16 474.27,-254.06"/>
</g>
<!-- nouvelle&#45;calédonie&#45;&#45;ressource minière -->
<g id="edge42" class="edge">
<title>nouvelle&#45;calédonie&#45;&#45;ressource minière</title>
<path fill="none" stroke="darkgrey" stroke-width="1.51" d="M152.25,-180.89C158.56,-203.01 192.02,-320.25 202.33,-356.35"/>
</g>
<!-- nouvelle&#45;calédonie&#45;&#45;politique -->
<g id="edge43" class="edge">
<title>nouvelle&#45;calédonie&#45;&#45;politique</title>
<path fill="none" stroke="darkgrey" stroke-width="2.07" d="M154.85,-178.11C168.99,-181.4 220.81,-193.43 246.21,-199.34"/>
</g>
<!-- nouvelle&#45;calédonie&#45;&#45;secteur nickel -->
<g id="edge44" class="edge">
<title>nouvelle&#45;calédonie&#45;&#45;secteur nickel</title>
<path fill="none" stroke="darkgrey" stroke-width="1.79" d="M154.02,-179.69C175.54,-198.25 314.76,-318.39 359.33,-356.85"/>
</g>
<!-- nouvelle&#45;calédonie&#45;&#45;nature -->
<g id="edge45" class="edge">
<title>nouvelle&#45;calédonie&#45;&#45;nature</title>
<path fill="none" stroke="darkgrey" stroke-width="1.28" d="M152.32,-181.07C156.2,-194.5 169.41,-240.14 176.15,-263.45"/>
</g>
<!-- nouvelle&#45;calédonie&#45;&#45;société néo&#45;calédonienne -->
<g id="edge46" class="edge">
<title>nouvelle&#45;calédonie&#45;&#45;société néo&#45;calédonienne</title>
<path fill="none" stroke="darkgrey" stroke-width="1.03" d="M153.89,-174.36C168.86,-158.08 242.11,-78.41 256.83,-62.4"/>
</g>
<!-- nouvelle&#45;calédonie&#45;&#45;exploitation minière -->
<g id="edge47" class="edge">
<title>nouvelle&#45;calédonie&#45;&#45;exploitation minière</title>
<path fill="none" stroke="darkgrey" stroke-width="1.29" d="M152.36,-180.62C161.23,-206.78 219.46,-378.4 236.55,-428.77"/>
</g>
<!-- nouvelle&#45;calédonie&#45;&#45;foncier -->
<g id="edge48" class="edge">
<title>nouvelle&#45;calédonie&#45;&#45;foncier</title>
<path fill="none" stroke="darkgrey" stroke-width="1" d="M154.66,-175.54C177.9,-163.9 311.95,-96.76 343.05,-81.19"/>
</g>
<!-- nouvelle&#45;calédonie&#45;&#45;relation politique -->
<g id="edge49" class="edge">
<title>nouvelle&#45;calédonie&#45;&#45;relation politique</title>
<path fill="none" stroke="darkgrey" stroke-width="1.04" d="M150.65,-180.73C146.68,-204.95 123.11,-348.71 119.08,-373.24"/>
</g>
<!-- nouvelle&#45;calédonie&#45;&#45;industrie -->
<g id="edge50" class="edge">
<title>nouvelle&#45;calédonie&#45;&#45;industrie</title>
<path fill="none" stroke="darkgrey" stroke-width="1.55" d="M154.15,-179.58C171.01,-192.89 256.18,-260.14 290.4,-287.16"/>
</g>
<!-- nouvelle&#45;calédonie&#45;&#45;échange commercial -->
<g id="edge51" class="edge">
<title>nouvelle&#45;calédonie&#45;&#45;échange commercial</title>
<path fill="none" stroke="darkgrey" d="M153.2,-180.29C172.15,-209.19 321.35,-436.7 347.43,-476.47"/>
</g>
<!-- travail&#45;&#45;économie -->
<g id="edge52" class="edge">
<title>travail&#45;&#45;économie</title>
<path fill="none" stroke="darkgrey" stroke-width="7.04" d="M370.09,-213.67C378.86,-227.55 390.74,-246.35 399.01,-259.44"/>
</g>
<!-- travail&#45;&#45;nickel -->
<g id="edge53" class="edge">
<title>travail&#45;&#45;nickel</title>
<path fill="none" stroke="darkgrey" stroke-width="8.21" d="M378.16,-203.98C403.11,-215.08 446.42,-234.36 476.45,-247.73"/>
</g>
<!-- travail&#45;&#45;ressource minière -->
<g id="edge54" class="edge">
<title>travail&#45;&#45;ressource minière</title>
<path fill="none" stroke="darkgrey" stroke-width="3.49" d="M344.01,-211.34C312.16,-247.08 236.66,-331.8 212.75,-358.63"/>
</g>
<!-- travail&#45;&#45;politique -->
<g id="edge55" class="edge">
<title>travail&#45;&#45;politique</title>
<path fill="none" stroke="darkgrey" stroke-width="4.33" d="M336.67,-196.84C317.95,-198.26 291.45,-200.28 275.14,-201.52"/>
</g>
<!-- travail&#45;&#45;secteur nickel -->
<g id="edge56" class="edge">
<title>travail&#45;&#45;secteur nickel</title>
<path fill="none" stroke="darkgrey" stroke-width="4.98" d="M360.23,-216.81C363.15,-251.42 368.82,-318.62 371.53,-350.74"/>
</g>
<!-- travail&#45;&#45;nature -->
<g id="edge57" class="edge">
<title>travail&#45;&#45;nature</title>
<path fill="none" stroke="darkgrey" stroke-width="3.72" d="M338.65,-204.3C302.04,-221.18 224.54,-256.92 193.47,-271.25"/>
</g>
<!-- travail&#45;&#45;amélioration environnementale -->
<g id="edge58" class="edge">
<title>travail&#45;&#45;amélioration environnementale</title>
<path fill="none" stroke="darkgrey" stroke-width="1.1" d="M380.15,-195.72C456.88,-197.62 711.34,-203.9 727.17,-204.29"/>
</g>
<!-- travail&#45;&#45;société néo&#45;calédonienne -->
<g id="edge59" class="edge">
<title>travail&#45;&#45;société néo&#45;calédonienne</title>
<path fill="none" stroke="darkgrey" stroke-width="1.96" d="M345.67,-177.74C322.06,-145.41 272.91,-78.08 261.71,-62.74"/>
</g>
<!-- travail&#45;&#45;exploitation minière -->
<g id="edge60" class="edge">
<title>travail&#45;&#45;exploitation minière</title>
<path fill="none" stroke="darkgrey" stroke-width="3.49" d="M349.02,-215.02C325.95,-263.76 266.93,-388.42 247.54,-429.38"/>
</g>
<!-- travail&#45;&#45;alternative au développement -->
<g id="edge61" class="edge">
<title>travail&#45;&#45;alternative au développement</title>
<path fill="none" stroke="darkgrey" stroke-width="1.53" d="M355.12,-216.66C344.18,-288.22 309.35,-515.91 304.51,-547.57"/>
</g>
<!-- travail&#45;&#45;matériel -->
<g id="edge62" class="edge">
<title>travail&#45;&#45;matériel</title>
<path fill="none" stroke="darkgrey" stroke-width="3.81" d="M367.67,-214.92C389.28,-260.95 442.57,-374.46 460.83,-413.35"/>
</g>
<!-- travail&#45;&#45;foncier -->
<g id="edge63" class="edge">
<title>travail&#45;&#45;foncier</title>
<path fill="none" stroke="darkgrey" stroke-width="1.7" d="M356.77,-173.69C354.73,-146.85 351.35,-102.38 350.04,-85.12"/>
</g>
<!-- travail&#45;&#45;relation politique -->
<g id="edge64" class="edge">
<title>travail&#45;&#45;relation politique</title>
<path fill="none" stroke="darkgrey" stroke-width="1.38" d="M341.16,-208.25C290.44,-246.64 144.01,-357.49 121.44,-374.58"/>
</g>
<!-- travail&#45;&#45;industrie -->
<g id="edge65" class="edge">
<title>travail&#45;&#45;industrie</title>
<path fill="none" stroke="darkgrey" stroke-width="4.12" d="M348.3,-214.6C338.15,-234.11 322.67,-263.84 313.14,-282.15"/>
</g>
<!-- travail&#45;&#45;risque -->
<g id="edge66" class="edge">
<title>travail&#45;&#45;risque</title>
<path fill="none" stroke="darkgrey" stroke-width="1.96" d="M373.95,-180.14C416.63,-138.84 533.8,-25.46 553.62,-6.27"/>
</g>
<!-- travail&#45;&#45;échange commercial -->
<g id="edge67" class="edge">
<title>travail&#45;&#45;échange commercial</title>
<path fill="none" stroke="darkgrey" stroke-width="2.08" d="M357.88,-216.77C356.41,-276 352.38,-439.04 351.49,-475.22"/>
</g>
<!-- économie&#45;&#45;nickel -->
<g id="edge68" class="edge">
<title>économie&#45;&#45;nickel</title>
<path fill="none" stroke="darkgrey" stroke-width="6.43" d="M426.77,-272.65C439.78,-271.04 457.8,-268.82 473.69,-266.85"/>
</g>
<!-- économie&#45;&#45;ressource minière -->
<g id="edge69" class="edge">
<title>économie&#45;&#45;ressource minière</title>
<path fill="none" stroke="darkgrey" stroke-width="2.45" d="M392.11,-282.41C351.5,-300.79 248.28,-347.51 215.5,-362.34"/>
</g>
<!-- économie&#45;&#45;politique -->
<g id="edge70" class="edge">
<title>économie&#45;&#45;politique</title>
<path fill="none" stroke="darkgrey" stroke-width="4.8" d="M392.32,-266.87C362.6,-252.39 300.52,-222.16 273.49,-209"/>
</g>
<!-- économie&#45;&#45;secteur nickel -->
<g id="edge71" class="edge">
<title>économie&#45;&#45;secteur nickel</title>
<path fill="none" stroke="darkgrey" stroke-width="3.79" d="M402.21,-292.08C395.76,-309 385.98,-334.7 379.55,-351.58"/>
</g>
<!-- économie&#45;&#45;nature -->
<g id="edge72" class="edge">
<title>économie&#45;&#45;nature</title>
<path fill="none" stroke="darkgrey" stroke-width="2.92" d="M390.44,-275.07C346.37,-275.56 235.11,-276.78 194.94,-277.22"/>
</g>
<!-- économie&#45;&#45;amélioration environnementale -->
<g id="edge73" class="edge">
<title>économie&#45;&#45;amélioration environnementale</title>
<path fill="none" stroke="darkgrey" stroke-width="1.11" d="M426.37,-270.98C491.2,-256.65 713.44,-207.52 727.27,-204.46"/>
</g>
<!-- économie&#45;&#45;société néo&#45;calédonienne -->
<g id="edge74" class="edge">
<title>économie&#45;&#45;société néo&#45;calédonienne</title>
<path fill="none" stroke="darkgrey" stroke-width="1.61" d="M398.49,-260.07C367.52,-215.43 276.21,-83.81 261.44,-62.51"/>
</g>
<!-- économie&#45;&#45;exploitation minière -->
<g id="edge75" class="edge">
<title>économie&#45;&#45;exploitation minière</title>
<path fill="none" stroke="darkgrey" stroke-width="2.17" d="M395.89,-287.76C363.87,-319.83 281.07,-402.77 251.75,-432.14"/>
</g>
<!-- économie&#45;&#45;alternative au développement -->
<g id="edge76" class="edge">
<title>économie&#45;&#45;alternative au développement</title>
<path fill="none" stroke="darkgrey" stroke-width="1.62" d="M402.36,-291.74C381.38,-347.06 315.44,-520.92 305.27,-547.75"/>
</g>
<!-- économie&#45;&#45;matériel -->
<g id="edge77" class="edge">
<title>économie&#45;&#45;matériel</title>
<path fill="none" stroke="darkgrey" stroke-width="2.37" d="M415.22,-291.7C426.85,-321.96 451.07,-385 461.79,-412.89"/>
</g>
<!-- économie&#45;&#45;foncier -->
<g id="edge78" class="edge">
<title>économie&#45;&#45;foncier</title>
<path fill="none" stroke="darkgrey" stroke-width="1.33" d="M403.5,-257.4C390.98,-215.8 359.83,-112.3 351.54,-84.78"/>
</g>
<!-- économie&#45;&#45;relation politique -->
<g id="edge79" class="edge">
<title>économie&#45;&#45;relation politique</title>
<path fill="none" stroke="darkgrey" stroke-width="1.48" d="M391.47,-280.94C333.62,-301.26 148.93,-366.12 121.83,-375.63"/>
</g>
<!-- économie&#45;&#45;industrie -->
<g id="edge80" class="edge">
<title>économie&#45;&#45;industrie</title>
<path fill="none" stroke="darkgrey" stroke-width="2.77" d="M391.1,-278.87C371.96,-283.2 341.59,-290.07 322.41,-294.41"/>
</g>
<!-- économie&#45;&#45;risque -->
<g id="edge81" class="edge">
<title>économie&#45;&#45;risque</title>
<path fill="none" stroke="darkgrey" stroke-width="1.12" d="M417.56,-258.71C447,-204.62 541,-31.95 554.79,-6.61"/>
</g>
<!-- économie&#45;&#45;échange commercial -->
<g id="edge82" class="edge">
<title>économie&#45;&#45;échange commercial</title>
<path fill="none" stroke="darkgrey" stroke-width="1.79" d="M403.86,-292.56C391.81,-336.08 361.14,-446.88 353.21,-475.54"/>
</g>
<!-- nickel&#45;&#45;ressource minière -->
<g id="edge83" class="edge">
<title>nickel&#45;&#45;ressource minière</title>
<path fill="none" stroke="darkgrey" stroke-width="5.33" d="M475.19,-274.22C406.83,-297.7 256.68,-349.3 215.8,-363.35"/>
</g>
<!-- nickel&#45;&#45;politique -->
<g id="edge84" class="edge">
<title>nickel&#45;&#45;politique</title>
<path fill="none" stroke="darkgrey" stroke-width="3.49" d="M474.33,-253.99C418.69,-240.63 312.72,-215.19 274.57,-206.03"/>
</g>
<!-- nickel&#45;&#45;secteur nickel -->
<g id="edge85" class="edge">
<title>nickel&#45;&#45;secteur nickel</title>
<path fill="none" stroke="darkgrey" stroke-width="6.5" d="M480.88,-284.71C452.28,-306.98 409.46,-340.32 387.37,-357.52"/>
</g>
<!-- nickel&#45;&#45;nature -->
<g id="edge86" class="edge">
<title>nickel&#45;&#45;nature</title>
<path fill="none" stroke="darkgrey" stroke-width="5.66" d="M473.3,-264.07C401.46,-267.34 243.54,-274.5 194.8,-276.72"/>
</g>
<!-- nickel&#45;&#45;amélioration environnementale -->
<g id="edge87" class="edge">
<title>nickel&#45;&#45;amélioration environnementale</title>
<path fill="none" stroke="darkgrey" stroke-width="1.12" d="M544.58,-253.09C603.44,-237.44 716.67,-207.31 727.16,-204.52"/>
</g>
<!-- nickel&#45;&#45;société néo&#45;calédonienne -->
<g id="edge88" class="edge">
<title>nickel&#45;&#45;société néo&#45;calédonienne</title>
<path fill="none" stroke="darkgrey" stroke-width="1.23" d="M481.29,-239.56C420.99,-190.65 283.3,-78.97 262.16,-61.82"/>
</g>
<!-- nickel&#45;&#45;exploitation minière -->
<g id="edge89" class="edge">
<title>nickel&#45;&#45;exploitation minière</title>
<path fill="none" stroke="darkgrey" stroke-width="7.16" d="M479.5,-282.58C420.85,-321.98 293.23,-407.73 253.39,-434.49"/>
</g>
<!-- nickel&#45;&#45;alternative au développement -->
<g id="edge90" class="edge">
<title>nickel&#45;&#45;alternative au développement</title>
<path fill="none" stroke="darkgrey" stroke-width="1.86" d="M488.46,-291.98C439.96,-360.13 323.12,-524.3 306.04,-548.29"/>
</g>
<!-- nickel&#45;&#45;matériel -->
<g id="edge91" class="edge">
<title>nickel&#45;&#45;matériel</title>
<path fill="none" stroke="darkgrey" stroke-width="5.74" d="M500.39,-297.67C491.14,-333.48 477.27,-387.2 470.74,-412.51"/>
</g>
<!-- nickel&#45;&#45;foncier -->
<g id="edge92" class="edge">
<title>nickel&#45;&#45;foncier</title>
<path fill="none" stroke="darkgrey" stroke-width="2.48" d="M485.88,-235.21C447.46,-190.92 373.73,-105.91 354.29,-83.49"/>
</g>
<!-- nickel&#45;&#45;relation politique -->
<g id="edge93" class="edge">
<title>nickel&#45;&#45;relation politique</title>
<path fill="none" stroke="darkgrey" stroke-width="1.47" d="M474.79,-272.58C385.83,-298.6 154.33,-366.32 122.22,-375.71"/>
</g>
<!-- nickel&#45;&#45;industrie -->
<g id="edge94" class="edge">
<title>nickel&#45;&#45;industrie</title>
<path fill="none" stroke="darkgrey" stroke-width="8.05" d="M473.81,-268.7C429.68,-276.46 356.28,-289.36 322.58,-295.28"/>
</g>
<!-- nickel&#45;&#45;risque -->
<g id="edge95" class="edge">
<title>nickel&#45;&#45;risque</title>
<path fill="none" stroke="darkgrey" stroke-width="1.2" d="M515.92,-226.97C527.64,-162.43 551.63,-30.25 555.85,-7.02"/>
</g>
<!-- nickel&#45;&#45;échange commercial -->
<g id="edge96" class="edge">
<title>nickel&#45;&#45;échange commercial</title>
<path fill="none" stroke="darkgrey" stroke-width="3.21" d="M488.15,-292.1C450.38,-344.63 373.94,-450.93 355.42,-476.68"/>
</g>
<!-- nickel&#45;&#45;avenir sans nickel -->
<g id="edge97" class="edge">
<title>nickel&#45;&#45;avenir sans nickel</title>
<path fill="none" stroke="darkgrey" stroke-width="1.08" d="M543.14,-275.34C644.07,-314.05 938.13,-426.84 951.86,-432.1"/>
</g>
<!-- ressource minière&#45;&#45;politique -->
<g id="edge98" class="edge">
<title>ressource minière&#45;&#45;politique</title>
<path fill="none" stroke="darkgrey" stroke-width="3.01" d="M208.96,-356.16C218.63,-327.32 245.09,-248.41 255.82,-216.4"/>
</g>
<!-- ressource minière&#45;&#45;secteur nickel -->
<g id="edge99" class="edge">
<title>ressource minière&#45;&#45;secteur nickel</title>
<path fill="none" stroke="darkgrey" stroke-width="2.25" d="M216.35,-367.05C244.62,-367.35 320.03,-368.13 354.89,-368.49"/>
</g>
<!-- ressource minière&#45;&#45;nature -->
<g id="edge100" class="edge">
<title>ressource minière&#45;&#45;nature</title>
<path fill="none" stroke="darkgrey" stroke-width="2.03" d="M202.36,-356.31C197.83,-340.19 189.21,-309.52 184.16,-291.52"/>
</g>
<!-- ressource minière&#45;&#45;société néo&#45;calédonienne -->
<g id="edge101" class="edge">
<title>ressource minière&#45;&#45;société néo&#45;calédonienne</title>
<path fill="none" stroke="darkgrey" stroke-width="1" d="M207.27,-356C216.19,-305.31 253.28,-94.43 258.74,-63.41"/>
</g>
<!-- ressource minière&#45;&#45;exploitation minière -->
<g id="edge102" class="edge">
<title>ressource minière&#45;&#45;exploitation minière</title>
<path fill="none" stroke="darkgrey" stroke-width="2.54" d="M210.19,-377.15C216.59,-390.63 227.86,-414.39 234.93,-429.29"/>
</g>
<!-- ressource minière&#45;&#45;alternative au développement -->
<g id="edge103" class="edge">
<title>ressource minière&#45;&#45;alternative au développement</title>
<path fill="none" stroke="darkgrey" stroke-width="1.09" d="M210.65,-376.85C229.21,-411.54 290.75,-526.58 302.13,-547.84"/>
</g>
<!-- ressource minière&#45;&#45;matériel -->
<g id="edge104" class="edge">
<title>ressource minière&#45;&#45;matériel</title>
<path fill="none" stroke="darkgrey" stroke-width="2.06" d="M216.26,-369.43C257.77,-378.9 405.81,-412.69 452.72,-423.4"/>
</g>
<!-- ressource minière&#45;&#45;relation politique -->
<g id="edge105" class="edge">
<title>ressource minière&#45;&#45;relation politique</title>
<path fill="none" stroke="darkgrey" stroke-width="1.05" d="M194.35,-368.19C174.63,-370.43 134.19,-375.02 122.03,-376.4"/>
</g>
<!-- ressource minière&#45;&#45;industrie -->
<g id="edge106" class="edge">
<title>ressource minière&#45;&#45;industrie</title>
<path fill="none" stroke="darkgrey" stroke-width="2.63" d="M214.51,-360.61C231.7,-348.76 268.93,-323.08 289.77,-308.7"/>
</g>
<!-- ressource minière&#45;&#45;échange commercial -->
<g id="edge107" class="edge">
<title>ressource minière&#45;&#45;échange commercial</title>
<path fill="none" stroke="darkgrey" stroke-width="1.75" d="M214.04,-373.81C241.04,-395.17 323.01,-460.01 345.53,-477.82"/>
</g>
<!-- politique&#45;&#45;secteur nickel -->
<g id="edge108" class="edge">
<title>politique&#45;&#45;secteur nickel</title>
<path fill="none" stroke="darkgrey" stroke-width="3.42" d="M268.72,-214.85C288.93,-244.66 340.76,-321.08 362.83,-353.63"/>
</g>
<!-- politique&#45;&#45;nature -->
<g id="edge109" class="edge">
<title>politique&#45;&#45;nature</title>
<path fill="none" stroke="darkgrey" stroke-width="1.78" d="M249.61,-212.72C234.21,-227.06 206.14,-253.2 190.83,-267.46"/>
</g>
<!-- politique&#45;&#45;société néo&#45;calédonienne -->
<g id="edge110" class="edge">
<title>politique&#45;&#45;société néo&#45;calédonienne</title>
<path fill="none" stroke="darkgrey" stroke-width="1.61" d="M260.33,-188.14C260.1,-156.03 259.56,-80.43 259.44,-63.15"/>
</g>
<!-- politique&#45;&#45;exploitation minière -->
<g id="edge111" class="edge">
<title>politique&#45;&#45;exploitation minière</title>
<path fill="none" stroke="darkgrey" stroke-width="2.03" d="M259.27,-217.29C255.83,-260.24 245.83,-385.48 242.42,-428.18"/>
</g>
<!-- politique&#45;&#45;alternative au développement -->
<g id="edge112" class="edge">
<title>politique&#45;&#45;alternative au développement</title>
<path fill="none" stroke="darkgrey" stroke-width="1.66" d="M262.25,-217.18C269.91,-278.51 299.36,-514.54 303.47,-547.43"/>
</g>
<!-- politique&#45;&#45;matériel -->
<g id="edge113" class="edge">
<title>politique&#45;&#45;matériel</title>
<path fill="none" stroke="darkgrey" stroke-width="1.6" d="M270.4,-213.45C305.39,-251.38 422.38,-378.21 457.21,-415.98"/>
</g>
<!-- politique&#45;&#45;foncier -->
<g id="edge114" class="edge">
<title>politique&#45;&#45;foncier</title>
<path fill="none" stroke="darkgrey" stroke-width="1.36" d="M268.97,-190.69C287.69,-164.48 331.76,-102.78 345.4,-83.69"/>
</g>
<!-- politique&#45;&#45;relation politique -->
<g id="edge115" class="edge">
<title>politique&#45;&#45;relation politique</title>
<path fill="none" stroke="darkgrey" stroke-width="1.82" d="M251.12,-214.07C222.51,-249.18 136.84,-354.3 121.02,-373.7"/>
</g>
<!-- politique&#45;&#45;industrie -->
<g id="edge116" class="edge">
<title>politique&#45;&#45;industrie</title>
<path fill="none" stroke="darkgrey" stroke-width="2.92" d="M266.59,-215.96C274.56,-233.23 288.47,-263.35 297.09,-282.01"/>
</g>
<!-- politique&#45;&#45;risque -->
<g id="edge117" class="edge">
<title>politique&#45;&#45;risque</title>
<path fill="none" stroke="darkgrey" stroke-width="1.05" d="M272.78,-194.34C324.87,-159.3 525.32,-24.47 553.25,-5.68"/>
</g>
<!-- politique&#45;&#45;échange commercial -->
<g id="edge118" class="edge">
<title>politique&#45;&#45;échange commercial</title>
<path fill="none" stroke="darkgrey" stroke-width="1.68" d="M264.94,-216.51C281.27,-266.79 337.02,-438.41 349.02,-475.35"/>
</g>
<!-- secteur nickel&#45;&#45;nature -->
<g id="edge119" class="edge">
<title>secteur nickel&#45;&#45;nature</title>
<path fill="none" stroke="darkgrey" stroke-width="2.34" d="M356.6,-360.9C319.07,-343.13 227.7,-299.88 193.45,-283.66"/>
</g>
<!-- secteur nickel&#45;&#45;amélioration environnementale -->
<g id="edge120" class="edge">
<title>secteur nickel&#45;&#45;amélioration environnementale</title>
<path fill="none" stroke="darkgrey" stroke-width="1.17" d="M389.68,-360.97C457.65,-329.49 711.38,-211.98 727.17,-204.67"/>
</g>
<!-- secteur nickel&#45;&#45;société néo&#45;calédonienne -->
<g id="edge121" class="edge">
<title>secteur nickel&#45;&#45;société néo&#45;calédonienne</title>
<path fill="none" stroke="darkgrey" stroke-width="1.57" d="M366.77,-351.62C344.72,-291.63 271.48,-92.42 260.73,-63.18"/>
</g>
<!-- secteur nickel&#45;&#45;exploitation minière -->
<g id="edge122" class="edge">
<title>secteur nickel&#45;&#45;exploitation minière</title>
<path fill="none" stroke="darkgrey" stroke-width="2.57" d="M357.14,-377.6C330.72,-392.43 278.27,-421.87 254.06,-435.46"/>
</g>
<!-- secteur nickel&#45;&#45;alternative au développement -->
<g id="edge123" class="edge">
<title>secteur nickel&#45;&#45;alternative au développement</title>
<path fill="none" stroke="darkgrey" stroke-width="1.33" d="M366.66,-385.53C351.29,-426.13 312.92,-527.54 305.28,-547.72"/>
</g>
<!-- secteur nickel&#45;&#45;matériel -->
<g id="edge124" class="edge">
<title>secteur nickel&#45;&#45;matériel</title>
<path fill="none" stroke="darkgrey" stroke-width="3" d="M388.57,-378.26C407.04,-389.65 437.5,-408.43 454.54,-418.94"/>
</g>
<!-- secteur nickel&#45;&#45;foncier -->
<g id="edge125" class="edge">
<title>secteur nickel&#45;&#45;foncier</title>
<path fill="none" stroke="darkgrey" stroke-width="2.02" d="M371.57,-350.5C366.97,-293.81 353.05,-121.92 350.06,-85"/>
</g>
<!-- secteur nickel&#45;&#45;relation politique -->
<g id="edge126" class="edge">
<title>secteur nickel&#45;&#45;relation politique</title>
<path fill="none" stroke="darkgrey" stroke-width="1.19" d="M354.73,-369.26C301.39,-370.97 148.19,-375.85 122.25,-376.68"/>
</g>
<!-- secteur nickel&#45;&#45;industrie -->
<g id="edge127" class="edge">
<title>secteur nickel&#45;&#45;industrie</title>
<path fill="none" stroke="darkgrey" stroke-width="5.16" d="M360.18,-355.47C347.96,-342.91 329.67,-324.12 317.47,-311.58"/>
</g>
<!-- secteur nickel&#45;&#45;échange commercial -->
<g id="edge128" class="edge">
<title>secteur nickel&#45;&#45;échange commercial</title>
<path fill="none" stroke="darkgrey" stroke-width="2.23" d="M369.64,-386.45C364.77,-411.93 356.02,-457.73 352.67,-475.28"/>
</g>
<!-- nature&#45;&#45;société néo&#45;calédonienne -->
<g id="edge129" class="edge">
<title>nature&#45;&#45;société néo&#45;calédonienne</title>
<path fill="none" stroke="darkgrey" stroke-width="1.67" d="M185.26,-263.42C201.17,-219.67 249.55,-86.71 258.11,-63.17"/>
</g>
<!-- nature&#45;&#45;exploitation minière -->
<g id="edge130" class="edge">
<title>nature&#45;&#45;exploitation minière</title>
<path fill="none" stroke="darkgrey" stroke-width="1.88" d="M185.29,-291.19C196.81,-322.37 224.75,-397.95 236.22,-428.99"/>
</g>
<!-- nature&#45;&#45;alternative au développement -->
<g id="edge131" class="edge">
<title>nature&#45;&#45;alternative au développement</title>
<path fill="none" stroke="darkgrey" stroke-width="1.14" d="M186.32,-290.96C209.44,-342.12 290.56,-521.63 302.48,-548"/>
</g>
<!-- nature&#45;&#45;matériel -->
<g id="edge132" class="edge">
<title>nature&#45;&#45;matériel</title>
<path fill="none" stroke="darkgrey" stroke-width="3.36" d="M193.26,-284.18C241.05,-309.05 406.01,-394.9 453.93,-419.83"/>
</g>
<!-- nature&#45;&#45;foncier -->
<g id="edge133" class="edge">
<title>nature&#45;&#45;foncier</title>
<path fill="none" stroke="darkgrey" stroke-width="1.64" d="M189.77,-266.09C221.39,-228.84 321.66,-110.74 344.73,-83.57"/>
</g>
<!-- nature&#45;&#45;industrie -->
<g id="edge134" class="edge">
<title>nature&#45;&#45;industrie</title>
<path fill="none" stroke="darkgrey" stroke-width="2.69" d="M194.95,-279.88C217.88,-283.75 261.97,-291.21 286.7,-295.39"/>
</g>
<!-- nature&#45;&#45;échange commercial -->
<g id="edge135" class="edge">
<title>nature&#45;&#45;échange commercial</title>
<path fill="none" stroke="darkgrey" stroke-width="1.43" d="M189.63,-288.69C221.44,-326.8 323.96,-449.63 346.78,-476.97"/>
</g>
<!-- société néo&#45;calédonienne&#45;&#45;matériel -->
<g id="edge136" class="edge">
<title>société néo&#45;calédonienne&#45;&#45;matériel</title>
<path fill="none" stroke="darkgrey" stroke-width="1.6" d="M261.21,-62.76C279.09,-94.37 425.21,-352.66 459.77,-413.76"/>
</g>
<!-- société néo&#45;calédonienne&#45;&#45;relation politique -->
<g id="edge137" class="edge">
<title>société néo&#45;calédonienne&#45;&#45;relation politique</title>
<path fill="none" stroke="darkgrey" stroke-width="1.08" d="M257.83,-63.15C243.38,-95.69 134.47,-340.85 120.07,-373.27"/>
</g>
<!-- exploitation minière&#45;&#45;matériel -->
<g id="edge138" class="edge">
<title>exploitation minière&#45;&#45;matériel</title>
<path fill="none" stroke="darkgrey" stroke-width="2.77" d="M255.73,-441.62C296.42,-438.74 411.54,-430.6 452.44,-427.71"/>
</g>
<!-- exploitation minière&#45;&#45;foncier -->
<g id="edge139" class="edge">
<title>exploitation minière&#45;&#45;foncier</title>
<path fill="none" stroke="darkgrey" stroke-width="1.11" d="M245.5,-428.35C263.68,-367.11 334.61,-128.1 347.48,-84.73"/>
</g>
<!-- exploitation minière&#45;&#45;relation politique -->
<g id="edge140" class="edge">
<title>exploitation minière&#45;&#45;relation politique</title>
<path fill="none" stroke="darkgrey" stroke-width="1.02" d="M228.12,-435.6C200.41,-420.73 137.27,-386.87 121.91,-378.63"/>
</g>
<!-- exploitation minière&#45;&#45;industrie -->
<g id="edge141" class="edge">
<title>exploitation minière&#45;&#45;industrie</title>
<path fill="none" stroke="darkgrey" stroke-width="3.18" d="M247.11,-429.33C258.7,-402.98 284.55,-344.18 297.29,-315.22"/>
</g>
<!-- exploitation minière&#45;&#45;échange commercial -->
<g id="edge142" class="edge">
<title>exploitation minière&#45;&#45;échange commercial</title>
<path fill="none" stroke="darkgrey" stroke-width="1.95" d="M255.2,-447.68C279.14,-456.33 327.21,-473.69 344.73,-480.01"/>
</g>
<!-- alternative au développement&#45;&#45;industrie -->
<g id="edge143" class="edge">
<title>alternative au développement&#45;&#45;industrie</title>
<path fill="none" stroke="darkgrey" stroke-width="1.35" d="M303.95,-547.67C304.03,-522.34 304.46,-369.44 304.62,-316.47"/>
</g>
<!-- matériel&#45;&#45;foncier -->
<g id="edge144" class="edge">
<title>matériel&#45;&#45;foncier</title>
<path fill="none" stroke="darkgrey" stroke-width="1.73" d="M462.33,-412.57C442.39,-353.45 365.92,-126.68 351.75,-84.68"/>
</g>
<!-- matériel&#45;&#45;industrie -->
<g id="edge145" class="edge">
<title>matériel&#45;&#45;industrie</title>
<path fill="none" stroke="darkgrey" stroke-width="4.1" d="M455.66,-417.66C426.78,-394.85 350.87,-334.91 319.04,-309.77"/>
</g>
<!-- matériel&#45;&#45;échange commercial -->
<g id="edge146" class="edge">
<title>matériel&#45;&#45;échange commercial</title>
<path fill="none" stroke="darkgrey" stroke-width="1.86" d="M453.8,-433.07C428.86,-445.07 375.87,-470.57 357.63,-479.35"/>
</g>
<!-- foncier&#45;&#45;industrie -->
<g id="edge147" class="edge">
<title>foncier&#45;&#45;industrie</title>
<path fill="none" stroke="darkgrey" stroke-width="2.1" d="M348,-85.3C341.74,-116.08 317.5,-235.33 308.26,-280.73"/>
</g>
<!-- relation politique&#45;&#45;échange commercial -->
<g id="edge148" class="edge">
<title>relation politique&#45;&#45;échange commercial</title>
<path fill="none" stroke="darkgrey" stroke-width="1.3" d="M121.79,-378.29C146.99,-389.72 309.36,-463.37 344.58,-479.34"/>
</g>
<!-- industrie&#45;&#45;risque -->
<g id="edge149" class="edge">
<title>industrie&#45;&#45;risque</title>
<path fill="none" stroke="darkgrey" stroke-width="1.11" d="M316.48,-284.6C362.96,-230.16 531.84,-32.36 554.07,-6.33"/>
</g>
<!-- industrie&#45;&#45;échange commercial -->
<g id="edge150" class="edge">
<title>industrie&#45;&#45;échange commercial</title>
<path fill="none" stroke="darkgrey" stroke-width="1.97" d="M309.14,-316.07C319.13,-355.46 342.89,-449.17 349.55,-475.44"/>
</g>
<!-- pollution -->
<g id="node1" class="node">
<title>pollution</title>
<ellipse fill="#ab2f5e" stroke="white" stroke-width="0" cx="437.37" cy="-188.09" rx="18" ry="18"/>
<text text-anchor="middle" x="376.37" y="-154.09" font-family="Helvetica,sans-Serif" font-size="20.00" fill="#4d4d4d">pollution</text>
</g>
<!-- dégradation environnementale -->
<g id="node2" class="node">
<title>dégradation environnementale</title>
<ellipse fill="#f1ef75" stroke="white" stroke-width="0" cx="502.88" cy="-335.15" rx="36" ry="36"/>
<text text-anchor="middle" x="684.88" y="-379.75" font-family="Helvetica,sans-Serif" font-size="28.00" fill="#4d4d4d">dégradation environnementale</text>
</g>
<!-- nouvelle&#45;calédonie -->
<g id="node3" class="node">
<title>nouvelle&#45;calédonie</title>
<ellipse fill="#1c0c43" stroke="white" stroke-width="0" cx="151.22" cy="-177.27" rx="3.5" ry="3.5"/>
<text text-anchor="middle" x="83.72" y="-184.89" font-family="Helvetica,sans-Serif" font-size="13.60" fill="#4d4d4d">nouvelle&#45;calédonie</text>
</g>
<!-- travail -->
<g id="node4" class="node">
<title>travail</title>
<ellipse fill="#e65d2f" stroke="white" stroke-width="0" cx="358.41" cy="-195.19" rx="21.5" ry="21.5"/>
<text text-anchor="middle" x="371.91" y="-223.41" font-family="Helvetica,sans-Serif" font-size="21.60" fill="#4d4d4d">travail</text>
</g>
<!-- économie -->
<g id="node5" class="node">
<title>économie</title>
<ellipse fill="#b3325a" stroke="white" stroke-width="0" cx="408.76" cy="-274.87" rx="18" ry="18"/>
<text text-anchor="middle" x="342.26" y="-262.87" font-family="Helvetica,sans-Serif" font-size="20.00" fill="#4d4d4d">économie</text>
</g>
<!-- nickel -->
<g id="node6" class="node">
<title>nickel</title>
<ellipse fill="#fcffa4" stroke="white" stroke-width="0" cx="509.49" cy="-262.43" rx="36" ry="36"/>
<text text-anchor="middle" x="514.49" y="-204.03" font-family="Helvetica,sans-Serif" font-size="28.00" fill="#4d4d4d">nickel</text>
</g>
<!-- ressource minière -->
<g id="node7" class="node">
<title>ressource minière</title>
<ellipse fill="#64156e" stroke="white" stroke-width="0" cx="205.35" cy="-366.94" rx="11" ry="11"/>
<text text-anchor="middle" x="118.35" y="-360.5" font-family="Helvetica,sans-Serif" font-size="16.80" fill="#4d4d4d">ressource minière</text>
</g>
<!-- politique -->
<g id="node8" class="node">
<title>politique</title>
<ellipse fill="#9b2964" stroke="white" stroke-width="0" cx="260.44" cy="-202.64" rx="14.5" ry="14.5"/>
<text text-anchor="middle" x="204.94" y="-222.42" font-family="Helvetica,sans-Serif" font-size="18.40" fill="#4d4d4d">politique</text>
</g>
<!-- secteur nickel -->
<g id="node9" class="node">
<title>secteur nickel</title>
<ellipse fill="#b43359" stroke="white" stroke-width="0" cx="373.04" cy="-368.68" rx="18" ry="18"/>
<text text-anchor="middle" x="285.54" y="-392.68" font-family="Helvetica,sans-Serif" font-size="20.00" fill="#4d4d4d">secteur nickel</text>
</g>
<!-- nature -->
<g id="node10" class="node">
<title>nature</title>
<ellipse fill="#85216b" stroke="white" stroke-width="0" cx="180.18" cy="-277.38" rx="14.5" ry="14.5"/>
<text text-anchor="middle" x="134.68" y="-297.16" font-family="Helvetica,sans-Serif" font-size="18.40" fill="#4d4d4d">nature</text>
</g>
<!-- amélioration environnementale -->
<g id="node11" class="node">
<title>amélioration environnementale</title>
<ellipse fill="#030210" stroke="white" stroke-width="0" cx="727.94" cy="-204.31" rx="0.5" ry="0.5"/>
<text text-anchor="middle" x="821.94" y="-208.21" font-family="Helvetica,sans-Serif" font-size="12.00" fill="#4d4d4d">amélioration environnementale</text>
</g>
<!-- société néo&#45;calédonienne -->
<g id="node12" class="node">
<title>société néo&#45;calédonienne</title>
<ellipse fill="#180c3c" stroke="white" stroke-width="0" cx="259.41" cy="-59.59" rx="3.5" ry="3.5"/>
<text text-anchor="middle" x="169.41" y="-67.21" font-family="Helvetica,sans-Serif" font-size="13.60" fill="#4d4d4d">société néo&#45;calédonienne</text>
</g>
<!-- exploitation minière -->
<g id="node13" class="node">
<title>exploitation minière</title>
<ellipse fill="#7a1d6d" stroke="white" stroke-width="0" cx="241.26" cy="-442.64" rx="14.5" ry="14.5"/>
<text text-anchor="middle" x="133.26" y="-462.42" font-family="Helvetica,sans-Serif" font-size="18.40" fill="#4d4d4d">exploitation minière</text>
</g>
<!-- alternative au développement -->
<g id="node14" class="node">
<title>alternative au développement</title>
<ellipse fill="#120a32" stroke="white" stroke-width="0" cx="303.94" cy="-551.24" rx="3.5" ry="3.5"/>
<text text-anchor="middle" x="197.44" y="-558.86" font-family="Helvetica,sans-Serif" font-size="13.60" fill="#4d4d4d">alternative au développement</text>
</g>
<!-- matériel -->
<g id="node15" class="node">
<title>matériel</title>
<ellipse fill="#932667" stroke="white" stroke-width="0" cx="467.08" cy="-426.68" rx="14.5" ry="14.5"/>
<text text-anchor="middle" x="413.58" y="-446.46" font-family="Helvetica,sans-Serif" font-size="18.40" fill="#4d4d4d">matériel</text>
</g>
<!-- foncier -->
<g id="node16" class="node">
<title>foncier</title>
<ellipse fill="#240c4f" stroke="white" stroke-width="0" cx="349.49" cy="-77.96" rx="7" ry="7"/>
<text text-anchor="middle" x="316.49" y="-89.8" font-family="Helvetica,sans-Serif" font-size="15.20" fill="#4d4d4d">foncier</text>
</g>
<!-- relation politique -->
<g id="node17" class="node">
<title>relation politique</title>
<ellipse fill="#0b0724" stroke="white" stroke-width="0" cx="118.5" cy="-376.8" rx="3.5" ry="3.5"/>
<text text-anchor="middle" x="57.5" y="-384.42" font-family="Helvetica,sans-Serif" font-size="13.60" fill="#4d4d4d">relation politique</text>
</g>
<!-- industrie -->
<g id="node18" class="node">
<title>industrie</title>
<ellipse fill="#b3325a" stroke="white" stroke-width="0" cx="304.67" cy="-298.43" rx="18" ry="18"/>
<text text-anchor="middle" x="242.67" y="-322.43" font-family="Helvetica,sans-Serif" font-size="20.00" fill="#4d4d4d">industrie</text>
</g>
<!-- risque -->
<g id="node19" class="node">
<title>risque</title>
<ellipse fill="#050417" stroke="white" stroke-width="0" cx="556.49" cy="-3.5" rx="3.5" ry="3.5"/>
<text text-anchor="middle" x="531.99" y="-11.12" font-family="Helvetica,sans-Serif" font-size="13.60" fill="#4d4d4d">risque</text>
</g>
<!-- échange commercial -->
<g id="node20" class="node">
<title>échange commercial</title>
<ellipse fill="#380962" stroke="white" stroke-width="0" cx="351.31" cy="-482.39" rx="7" ry="7"/>
<text text-anchor="middle" x="265.31" y="-494.23" font-family="Helvetica,sans-Serif" font-size="15.20" fill="#4d4d4d">échange commercial</text>
</g>
<!-- avenir sans nickel -->
<g id="node21" class="node">
<title>avenir sans nickel</title>
<ellipse fill="#000004" stroke="white" stroke-width="0" cx="952.36" cy="-432.29" rx="0.5" ry="0.5"/>
<text text-anchor="middle" x="898.36" y="-436.19" font-family="Helvetica,sans-Serif" font-size="12.00" fill="#4d4d4d">avenir sans nickel</text>
</g>
</g>
</svg>
