<?xml version="1.0" encoding="UTF-8" standalone="no"?>
<!DOCTYPE svg PUBLIC "-//W3C//DTD SVG 1.1//EN"
 "http://www.w3.org/Graphics/SVG/1.1/DTD/svg11.dtd">
<!-- Generated by graphviz version 2.43.0 (0)
 -->
<!-- Pages: 1 -->
<svg width="728pt" height="462pt"
 viewBox="0.00 0.00 728.35 461.68" xmlns="http://www.w3.org/2000/svg" xmlns:xlink="http://www.w3.org/1999/xlink">
<g id="graph0" class="graph" transform="scale(1 1) rotate(0) translate(4 457.68)">
<polygon fill="white" stroke="transparent" points="-4,4 -4,-457.68 724.35,-457.68 724.35,4 -4,4"/>
<!-- pollution&#45;&#45;travail -->
<g id="edge1" class="edge">
<title>pollution&#45;&#45;travail</title>
<path fill="none" stroke="darkgrey" stroke-width="6.53" d="M415.81,-229.78C388.28,-243 348.34,-262.17 327.8,-272.03"/>
</g>
<!-- pollution&#45;&#45;richesse -->
<g id="edge2" class="edge">
<title>pollution&#45;&#45;richesse</title>
<path fill="none" stroke="darkgrey" stroke-width="3.56" d="M432.82,-246.21C415.02,-290.32 382.97,-369.72 371.58,-397.94"/>
</g>
<!-- pollution&#45;&#45;destruction -->
<g id="edge3" class="edge">
<title>pollution&#45;&#45;destruction</title>
<path fill="none" stroke="darkgrey" stroke-width="4.1" d="M421.33,-237.99C383.84,-273.09 313.24,-339.19 293.62,-357.56"/>
</g>
<!-- pollution&#45;&#45;argent -->
<g id="edge4" class="edge">
<title>pollution&#45;&#45;argent</title>
<path fill="none" stroke="darkgrey" stroke-width="3.16" d="M449.31,-247.98C456.15,-300.89 469.36,-402.96 472.94,-430.62"/>
</g>
<!-- pollution&#45;&#45;nickel -->
<g id="edge5" class="edge">
<title>pollution&#45;&#45;nickel</title>
<path fill="none" stroke="darkgrey" stroke-width="10" d="M412.57,-217.32C394.87,-218.2 372.93,-219.28 354.71,-220.19"/>
</g>
<!-- pollution&#45;&#45;montagne -->
<g id="edge6" class="edge">
<title>pollution&#45;&#45;montagne</title>
<path fill="none" stroke="darkgrey" stroke-width="2.16" d="M425.88,-189.07C394.33,-145.41 333.46,-61.19 316.97,-38.37"/>
</g>
<!-- pollution&#45;&#45;camion -->
<g id="edge7" class="edge">
<title>pollution&#45;&#45;camion</title>
<path fill="none" stroke="darkgrey" stroke-width="3.7" d="M419.91,-195.17C404.7,-182.79 386.26,-167.78 375.59,-159.1"/>
</g>
<!-- pollution&#45;&#45;économie -->
<g id="edge8" class="edge">
<title>pollution&#45;&#45;économie</title>
<path fill="none" stroke="darkgrey" stroke-width="8.38" d="M426.8,-242.65C424.54,-245.98 422.27,-249.32 420.13,-252.46"/>
</g>
<!-- pollution&#45;&#45;environnement -->
<g id="edge9" class="edge">
<title>pollution&#45;&#45;environnement</title>
<path fill="none" stroke="darkgrey" stroke-width="5.72" d="M426.03,-242.26C407.34,-268.24 379.58,-306.84 364.56,-327.72"/>
</g>
<!-- pollution&#45;&#45;emploi -->
<g id="edge10" class="edge">
<title>pollution&#45;&#45;emploi</title>
<path fill="none" stroke="darkgrey" stroke-width="8.76" d="M446.5,-248.38C447.66,-276.06 449.28,-314.71 450.22,-337.1"/>
</g>
<!-- pollution&#45;&#45;terre -->
<g id="edge11" class="edge">
<title>pollution&#45;&#45;terre</title>
<path fill="none" stroke="darkgrey" stroke-width="1.54" d="M416.01,-200.6C372.59,-178.07 293.49,-137.04 270.39,-125.06"/>
</g>
<!-- pollution&#45;&#45;usine -->
<g id="edge12" class="edge">
<title>pollution&#45;&#45;usine</title>
<path fill="none" stroke="darkgrey" stroke-width="3.03" d="M435.41,-184.35C425.12,-151.13 409.42,-100.5 402.63,-78.59"/>
</g>
<!-- pollution&#45;&#45;exploitation -->
<g id="edge13" class="edge">
<title>pollution&#45;&#45;exploitation</title>
<path fill="none" stroke="darkgrey" stroke-width="1.98" d="M467.16,-239.66C473.54,-246.59 480.08,-253.71 484.93,-258.97"/>
</g>
<!-- pollution&#45;&#45;sln -->
<g id="edge14" class="edge">
<title>pollution&#45;&#45;sln</title>
<path fill="none" stroke="darkgrey" stroke-width="1.15" d="M476.02,-205.41C486.2,-202.02 496.57,-198.57 503.13,-196.38"/>
</g>
<!-- pollution&#45;&#45;ressource -->
<g id="edge15" class="edge">
<title>pollution&#45;&#45;ressource</title>
<path fill="none" stroke="darkgrey" stroke-width="1.62" d="M471.63,-235.09C506.89,-260.89 566.96,-304.83 585.72,-318.56"/>
</g>
<!-- pollution&#45;&#45;conflit -->
<g id="edge16" class="edge">
<title>pollution&#45;&#45;conflit</title>
<path fill="none" stroke="darkgrey" stroke-width="2.94" d="M475.21,-228.4C502.24,-239.82 539.96,-255.74 555.17,-262.16"/>
</g>
<!-- pollution&#45;&#45;développement -->
<g id="edge17" class="edge">
<title>pollution&#45;&#45;développement</title>
<path fill="none" stroke="darkgrey" stroke-width="2.52" d="M474.47,-201.41C538.97,-170 689.3,-96.76 713.53,-84.96"/>
</g>
<!-- pollution&#45;&#45;minerai -->
<g id="edge18" class="edge">
<title>pollution&#45;&#45;minerai</title>
<path fill="none" stroke="darkgrey" stroke-width="2.93" d="M451.08,-183.52C456.14,-156.19 463.09,-118.59 466.47,-100.3"/>
</g>
<!-- pollution&#45;&#45;déforestation -->
<g id="edge19" class="edge">
<title>pollution&#45;&#45;déforestation</title>
<path fill="none" stroke="darkgrey" stroke-width="1.69" d="M463.14,-188.39C487.89,-150.86 530.46,-86.3 540.1,-71.68"/>
</g>
<!-- travail&#45;&#45;richesse -->
<g id="edge20" class="edge">
<title>travail&#45;&#45;richesse</title>
<path fill="none" stroke="darkgrey" stroke-width="2.07" d="M320.16,-292.31C330.83,-318.48 353.68,-374.52 363.16,-397.79"/>
</g>
<!-- travail&#45;&#45;destruction -->
<g id="edge21" class="edge">
<title>travail&#45;&#45;destruction</title>
<path fill="none" stroke="darkgrey" stroke-width="1.08" d="M310.2,-292.29C304.53,-310.55 294.79,-341.95 290.54,-355.67"/>
</g>
<!-- travail&#45;&#45;nickel -->
<g id="edge22" class="edge">
<title>travail&#45;&#45;nickel</title>
<path fill="none" stroke="darkgrey" stroke-width="4.04" d="M315.58,-263.88C315.72,-262.05 315.86,-260.12 316.01,-258.14"/>
</g>
<!-- travail&#45;&#45;camion -->
<g id="edge23" class="edge">
<title>travail&#45;&#45;camion</title>
<path fill="none" stroke="darkgrey" stroke-width="1.25" d="M320.09,-264.88C330.63,-239.39 353.2,-184.78 362.57,-162.12"/>
</g>
<!-- travail&#45;&#45;économie -->
<g id="edge24" class="edge">
<title>travail&#45;&#45;économie</title>
<path fill="none" stroke="darkgrey" stroke-width="3.05" d="M329.11,-277.14C344.53,-275.79 368.98,-273.66 386.58,-272.12"/>
</g>
<!-- travail&#45;&#45;environnement -->
<g id="edge25" class="edge">
<title>travail&#45;&#45;environnement</title>
<path fill="none" stroke="darkgrey" stroke-width="2.91" d="M322.3,-291.06C328.69,-301.4 337.75,-316.06 344.54,-327.07"/>
</g>
<!-- travail&#45;&#45;terre -->
<g id="edge26" class="edge">
<title>travail&#45;&#45;terre</title>
<path fill="none" stroke="darkgrey" stroke-width="1.43" d="M310.01,-264.51C299.51,-232 273.68,-151.98 266.06,-128.36"/>
</g>
<!-- travail&#45;&#45;exploitation -->
<g id="edge27" class="edge">
<title>travail&#45;&#45;exploitation</title>
<path fill="none" stroke="darkgrey" stroke-width="1.28" d="M329.07,-277.5C363.78,-275.32 450.76,-269.85 481.53,-267.92"/>
</g>
<!-- richesse&#45;&#45;nickel -->
<g id="edge28" class="edge">
<title>richesse&#45;&#45;nickel</title>
<path fill="none" stroke="darkgrey" stroke-width="2.91" d="M364.6,-397.42C357.57,-370.56 339.08,-299.88 327.83,-256.87"/>
</g>
<!-- richesse&#45;&#45;économie -->
<g id="edge29" class="edge">
<title>richesse&#45;&#45;économie</title>
<path fill="none" stroke="darkgrey" stroke-width="1.91" d="M370.61,-397.42C377.35,-374.54 393.11,-320.96 401.88,-291.17"/>
</g>
<!-- richesse&#45;&#45;environnement -->
<g id="edge30" class="edge">
<title>richesse&#45;&#45;environnement</title>
<path fill="none" stroke="darkgrey" stroke-width="2.42" d="M365.21,-397.37C363.16,-387.29 360.06,-372.1 357.64,-360.24"/>
</g>
<!-- richesse&#45;&#45;emploi -->
<g id="edge31" class="edge">
<title>richesse&#45;&#45;emploi</title>
<path fill="none" stroke="darkgrey" stroke-width="1.68" d="M377.01,-402.15C391.33,-393.04 418.44,-375.79 435.56,-364.89"/>
</g>
<!-- destruction&#45;&#45;nickel -->
<g id="edge32" class="edge">
<title>destruction&#45;&#45;nickel</title>
<path fill="none" stroke="darkgrey" stroke-width="1.76" d="M289.99,-355.25C293.82,-337.48 303.97,-290.37 311.11,-257.22"/>
</g>
<!-- destruction&#45;&#45;économie -->
<g id="edge33" class="edge">
<title>destruction&#45;&#45;économie</title>
<path fill="none" stroke="darkgrey" stroke-width="1.02" d="M294.21,-357.96C311.48,-344.66 363.23,-304.77 390.61,-283.67"/>
</g>
<!-- destruction&#45;&#45;emploi -->
<g id="edge34" class="edge">
<title>destruction&#45;&#45;emploi</title>
<path fill="none" stroke="darkgrey" stroke-width="1.58" d="M295.85,-362.07C320.07,-360.98 397.4,-357.5 432.87,-355.9"/>
</g>
<!-- argent&#45;&#45;nickel -->
<g id="edge35" class="edge">
<title>argent&#45;&#45;nickel</title>
<path fill="none" stroke="darkgrey" stroke-width="3.61" d="M469.7,-431.91C451.39,-406.45 377.08,-303.14 339.99,-251.56"/>
</g>
<!-- argent&#45;&#45;emploi -->
<g id="edge36" class="edge">
<title>argent&#45;&#45;emploi</title>
<path fill="none" stroke="darkgrey" stroke-width="1.92" d="M471.98,-430.92C468.48,-418.28 460.84,-390.71 455.8,-372.53"/>
</g>
<!-- nickel&#45;&#45;montagne -->
<g id="edge38" class="edge">
<title>nickel&#45;&#45;montagne</title>
<path fill="none" stroke="darkgrey" stroke-width="3.76" d="M317.57,-185.9C316.13,-139.95 313.74,-63.66 312.99,-39.86"/>
</g>
<!-- nickel&#45;&#45;camion -->
<g id="edge39" class="edge">
<title>nickel&#45;&#45;camion</title>
<path fill="none" stroke="darkgrey" stroke-width="6.28" d="M339.09,-192.27C346.77,-181.08 354.96,-169.15 360.42,-161.19"/>
</g>
<!-- nickel&#45;&#45;économie -->
<g id="edge40" class="edge">
<title>nickel&#45;&#45;économie</title>
<path fill="none" stroke="darkgrey" stroke-width="7.55" d="M350.45,-239.13C363.29,-246.06 377.69,-253.84 388.87,-259.89"/>
</g>
<!-- nickel&#45;&#45;environnement -->
<g id="edge41" class="edge">
<title>nickel&#45;&#45;environnement</title>
<path fill="none" stroke="darkgrey" stroke-width="5.45" d="M328.91,-256.8C335.47,-279.17 343.71,-307.26 348.91,-325.02"/>
</g>
<!-- nickel&#45;&#45;emploi -->
<g id="edge44" class="edge">
<title>nickel&#45;&#45;emploi</title>
<path fill="none" stroke="darkgrey" stroke-width="6.66" d="M344.21,-247.64C372.28,-275.89 416.31,-320.2 438,-342.03"/>
</g>
<!-- nickel&#45;&#45;terre -->
<g id="edge45" class="edge">
<title>nickel&#45;&#45;terre</title>
<path fill="none" stroke="darkgrey" stroke-width="2.44" d="M301.36,-190.24C289.2,-167.98 273.96,-140.09 267.29,-127.88"/>
</g>
<!-- nickel&#45;&#45;usine -->
<g id="edge46" class="edge">
<title>nickel&#45;&#45;usine</title>
<path fill="none" stroke="darkgrey" stroke-width="4.95" d="M335.41,-190.04C353.85,-154.78 382.48,-100.05 394.12,-77.79"/>
</g>
<!-- nickel&#45;&#45;exploitation -->
<g id="edge47" class="edge">
<title>nickel&#45;&#45;exploitation</title>
<path fill="none" stroke="darkgrey" stroke-width="2.62" d="M353.88,-231.13C393.76,-241.51 456.48,-257.84 481.59,-264.38"/>
</g>
<!-- nickel&#45;&#45;sln -->
<g id="edge48" class="edge">
<title>nickel&#45;&#45;sln</title>
<path fill="none" stroke="darkgrey" stroke-width="5.18" d="M354.68,-216.73C401.21,-209.95 479.1,-198.6 502.86,-195.14"/>
</g>
<!-- nickel&#45;&#45;ressource -->
<g id="edge49" class="edge">
<title>nickel&#45;&#45;ressource</title>
<path fill="none" stroke="darkgrey" stroke-width="2.03" d="M352.7,-234.54C416.97,-258.29 552.73,-308.45 584.67,-320.26"/>
</g>
<!-- nickel&#45;&#45;conflit -->
<g id="edge50" class="edge">
<title>nickel&#45;&#45;conflit</title>
<path fill="none" stroke="darkgrey" stroke-width="1.25" d="M354.33,-228.28C412.91,-238.64 526,-258.66 555.01,-263.79"/>
</g>
<!-- nickel&#45;&#45;minerai -->
<g id="edge51" class="edge">
<title>nickel&#45;&#45;minerai</title>
<path fill="none" stroke="darkgrey" stroke-width="5.12" d="M345.83,-197.97C380.39,-167.39 438.25,-116.19 459.94,-97"/>
</g>
<!-- nickel&#45;&#45;déforestation -->
<g id="edge52" class="edge">
<title>nickel&#45;&#45;déforestation</title>
<path fill="none" stroke="darkgrey" stroke-width="1.62" d="M348.83,-201.3C404.08,-163.38 517.9,-85.27 538.76,-70.96"/>
</g>
<!-- nickel&#45;&#45;extraction -->
<g id="edge37" class="edge">
<title>nickel&#45;&#45;extraction</title>
<path fill="none" stroke="darkgrey" stroke-width="1.43" d="M287.97,-241.67C232.76,-277.06 121.51,-348.36 111.2,-354.97"/>
</g>
<!-- nickel&#45;&#45;caillou -->
<g id="edge42" class="edge">
<title>nickel&#45;&#45;caillou</title>
<path fill="none" stroke="darkgrey" stroke-width="1.53" d="M284.63,-234.23C214.79,-259.34 59.87,-315.06 34.92,-324.03"/>
</g>
<!-- nickel&#45;&#45;terre rouge -->
<g id="edge43" class="edge">
<title>nickel&#45;&#45;terre rouge</title>
<path fill="none" stroke="darkgrey" stroke-width="2.31" d="M285.25,-208.38C224.73,-183.78 101.29,-133.62 79.6,-124.8"/>
</g>
<!-- nickel&#45;&#45;goro -->
<g id="edge53" class="edge">
<title>nickel&#45;&#45;goro</title>
<path fill="none" stroke="darkgrey" stroke-width="1.81" d="M282.53,-220.04C206.21,-215.96 34.84,-206.79 24.2,-206.22"/>
</g>
<!-- nickel&#45;&#45;exportation -->
<g id="edge54" class="edge">
<title>nickel&#45;&#45;exportation</title>
<path fill="none" stroke="darkgrey" stroke-width="1.76" d="M293.82,-195.18C244.28,-141.86 136.53,-25.86 118.38,-6.32"/>
</g>
<!-- montagne&#45;&#45;camion -->
<g id="edge55" class="edge">
<title>montagne&#45;&#45;camion</title>
<path fill="none" stroke="darkgrey" stroke-width="1.44" d="M315.66,-38.96C324.52,-58.53 351.23,-117.55 362.1,-141.58"/>
</g>
<!-- montagne&#45;&#45;terre -->
<g id="edge56" class="edge">
<title>montagne&#45;&#45;terre</title>
<path fill="none" stroke="darkgrey" stroke-width="1.01" d="M309.25,-38.95C300.23,-55.4 276.36,-98.95 267.38,-115.33"/>
</g>
<!-- camion&#45;&#45;économie -->
<g id="edge57" class="edge">
<title>camion&#45;&#45;économie</title>
<path fill="none" stroke="darkgrey" stroke-width="1.1" d="M370.45,-162.42C377.27,-181.99 392.04,-224.35 400.9,-249.76"/>
</g>
<!-- camion&#45;&#45;environnement -->
<g id="edge58" class="edge">
<title>camion&#45;&#45;environnement</title>
<path fill="none" stroke="darkgrey" stroke-width="1.28" d="M366.04,-162.99C363.92,-194.59 357.82,-285.47 355.21,-324.37"/>
</g>
<!-- camion&#45;&#45;terre -->
<g id="edge59" class="edge">
<title>camion&#45;&#45;terre</title>
<path fill="none" stroke="darkgrey" d="M356.16,-148.8C335.01,-142.59 288.16,-128.82 270.66,-123.67"/>
</g>
<!-- camion&#45;&#45;usine -->
<g id="edge60" class="edge">
<title>camion&#45;&#45;usine</title>
<path fill="none" stroke="darkgrey" stroke-width="2.34" d="M370.77,-141.62C377.02,-125.49 389.03,-94.45 395.29,-78.26"/>
</g>
<!-- camion&#45;&#45;sln -->
<g id="edge61" class="edge">
<title>camion&#45;&#45;sln</title>
<path fill="none" stroke="darkgrey" stroke-width="1.12" d="M377.55,-155.1C405.51,-163.33 479.9,-185.25 503.01,-192.06"/>
</g>
<!-- camion&#45;&#45;minerai -->
<g id="edge62" class="edge">
<title>camion&#45;&#45;minerai</title>
<path fill="none" stroke="darkgrey" stroke-width="1.77" d="M376.17,-146.16C395.45,-134.31 439.32,-107.36 458.82,-95.37"/>
</g>
<!-- économie&#45;&#45;environnement -->
<g id="edge63" class="edge">
<title>économie&#45;&#45;environnement</title>
<path fill="none" stroke="darkgrey" stroke-width="7.11" d="M394.96,-287.71C385.84,-299.89 373.8,-315.96 365.14,-327.53"/>
</g>
<!-- économie&#45;&#45;emploi -->
<g id="edge64" class="edge">
<title>économie&#45;&#45;emploi</title>
<path fill="none" stroke="darkgrey" stroke-width="6.13" d="M417.78,-289.5C425.3,-304.36 435.59,-324.69 442.71,-338.76"/>
</g>
<!-- économie&#45;&#45;usine -->
<g id="edge65" class="edge">
<title>économie&#45;&#45;usine</title>
<path fill="none" stroke="darkgrey" stroke-width="1.28" d="M407.11,-248.59C405.26,-205.76 401.2,-111.59 399.8,-79.13"/>
</g>
<!-- économie&#45;&#45;exploitation -->
<g id="edge66" class="edge">
<title>économie&#45;&#45;exploitation</title>
<path fill="none" stroke="darkgrey" stroke-width="1.61" d="M429.8,-269.47C446.22,-268.88 468.1,-268.1 481.2,-267.63"/>
</g>
<!-- économie&#45;&#45;sln -->
<g id="edge67" class="edge">
<title>économie&#45;&#45;sln</title>
<path fill="none" stroke="darkgrey" stroke-width="1.87" d="M425.33,-257.33C448.73,-239.85 489.27,-209.56 504.21,-198.4"/>
</g>
<!-- économie&#45;&#45;conflit -->
<g id="edge68" class="edge">
<title>économie&#45;&#45;conflit</title>
<path fill="none" stroke="darkgrey" stroke-width="2.07" d="M429.76,-269.51C464.89,-268.31 532.47,-266.01 554.67,-265.26"/>
</g>
<!-- environnement&#45;&#45;emploi -->
<g id="edge69" class="edge">
<title>environnement&#45;&#45;emploi</title>
<path fill="none" stroke="darkgrey" stroke-width="3.94" d="M372.24,-344.78C389.58,-347.05 415.51,-350.44 432.81,-352.71"/>
</g>
<!-- emploi&#45;&#45;sln -->
<g id="edge70" class="edge">
<title>emploi&#45;&#45;sln</title>
<path fill="none" stroke="darkgrey" stroke-width="1.04" d="M457.17,-338.16C469.95,-303.29 498.74,-224.71 507.43,-201.01"/>
</g>
<!-- emploi&#45;&#45;conflit -->
<g id="edge71" class="edge">
<title>emploi&#45;&#45;conflit</title>
<path fill="none" stroke="darkgrey" stroke-width="2.44" d="M465.02,-343.68C489.51,-323.79 539.03,-283.6 556.03,-269.79"/>
</g>
<!-- usine&#45;&#45;minerai -->
<g id="edge72" class="edge">
<title>usine&#45;&#45;minerai</title>
<path fill="none" stroke="darkgrey" stroke-width="2.72" d="M409.82,-71.15C422.82,-75.2 444.83,-82.06 457.88,-86.13"/>
</g>
<!-- exploitation&#45;&#45;ressource -->
<g id="edge73" class="edge">
<title>exploitation&#45;&#45;ressource</title>
<path fill="none" stroke="darkgrey" stroke-width="1.31" d="M502.37,-272.76C522.62,-284.12 568.39,-309.81 585.17,-319.23"/>
</g>
<!-- exploitation&#45;&#45;minerai -->
<g id="edge74" class="edge">
<title>exploitation&#45;&#45;minerai</title>
<path fill="none" stroke="darkgrey" stroke-width="1.82" d="M491.02,-256.11C486.7,-224.18 474.3,-132.48 469.99,-100.55"/>
</g>
<!-- pollution -->
<g id="node1" class="node">
<title>pollution</title>
<ellipse fill="#fac026" stroke="white" stroke-width="0" cx="445.13" cy="-215.7" rx="32.5" ry="32.5"/>
<text text-anchor="middle" x="394.13" y="-185.8" font-family="Helvetica,sans-Serif" font-size="8.00" fill="#4d4d4d">pollution</text>
</g>
<!-- travail -->
<g id="node2" class="node">
<title>travail</title>
<ellipse fill="#9f2a63" stroke="white" stroke-width="0" cx="314.5" cy="-278.42" rx="14.5" ry="14.5"/>
<text text-anchor="middle" x="287" y="-295.52" font-family="Helvetica,sans-Serif" font-size="8.00" fill="#4d4d4d">travail</text>
</g>
<!-- richesse -->
<g id="node3" class="node">
<title>richesse</title>
<ellipse fill="#69166e" stroke="white" stroke-width="0" cx="367.43" cy="-408.24" rx="11" ry="11"/>
<text text-anchor="middle" x="338.93" y="-421.84" font-family="Helvetica,sans-Serif" font-size="8.00" fill="#4d4d4d">richesse</text>
</g>
<!-- destruction -->
<g id="node4" class="node">
<title>destruction</title>
<ellipse fill="#380962" stroke="white" stroke-width="0" cx="288.45" cy="-362.41" rx="7" ry="7"/>
<text text-anchor="middle" x="257.95" y="-372.01" font-family="Helvetica,sans-Serif" font-size="8.00" fill="#4d4d4d">destruction</text>
</g>
<!-- argent -->
<g id="node5" class="node">
<title>argent</title>
<ellipse fill="#4f0d6c" stroke="white" stroke-width="0" cx="473.85" cy="-437.68" rx="7" ry="7"/>
<text text-anchor="middle" x="452.85" y="-447.28" font-family="Helvetica,sans-Serif" font-size="8.00" fill="#4d4d4d">argent</text>
</g>
<!-- nickel -->
<g id="node6" class="node">
<title>nickel</title>
<ellipse fill="#fcffa4" stroke="white" stroke-width="0" cx="318.7" cy="-221.97" rx="36" ry="36"/>
<text text-anchor="middle" x="270.7" y="-260.57" font-family="Helvetica,sans-Serif" font-size="8.00" fill="#4d4d4d">nickel</text>
</g>
<!-- montagne -->
<g id="node7" class="node">
<title>montagne</title>
<ellipse fill="#3e0966" stroke="white" stroke-width="0" cx="312.76" cy="-32.54" rx="7" ry="7"/>
<text text-anchor="middle" x="284.26" y="-42.14" font-family="Helvetica,sans-Serif" font-size="8.00" fill="#4d4d4d">montagne</text>
</g>
<!-- camion -->
<g id="node8" class="node">
<title>camion</title>
<ellipse fill="#6d186e" stroke="white" stroke-width="0" cx="366.78" cy="-151.92" rx="11" ry="11"/>
<text text-anchor="middle" x="340.28" y="-165.52" font-family="Helvetica,sans-Serif" font-size="8.00" fill="#4d4d4d">camion</text>
</g>
<!-- économie -->
<g id="node9" class="node">
<title>économie</title>
<ellipse fill="#d84c3e" stroke="white" stroke-width="0" cx="408.04" cy="-270.24" rx="21.5" ry="21.5"/>
<text text-anchor="middle" x="366.04" y="-294.34" font-family="Helvetica,sans-Serif" font-size="8.00" fill="#4d4d4d">économie</text>
</g>
<!-- environnement -->
<g id="node10" class="node">
<title>environnement</title>
<ellipse fill="#b0315b" stroke="white" stroke-width="0" cx="354.01" cy="-342.39" rx="18" ry="18"/>
<text text-anchor="middle" x="305.01" y="-326.99" font-family="Helvetica,sans-Serif" font-size="8.00" fill="#4d4d4d">environnement</text>
</g>
<!-- emploi -->
<g id="node11" class="node">
<title>emploi</title>
<ellipse fill="#b3325a" stroke="white" stroke-width="0" cx="450.97" cy="-355.08" rx="18" ry="18"/>
<text text-anchor="middle" x="418.97" y="-375.68" font-family="Helvetica,sans-Serif" font-size="8.00" fill="#4d4d4d">emploi</text>
</g>
<!-- terre -->
<g id="node12" class="node">
<title>terre</title>
<ellipse fill="#380962" stroke="white" stroke-width="0" cx="263.9" cy="-121.69" rx="7" ry="7"/>
<text text-anchor="middle" x="247.4" y="-131.29" font-family="Helvetica,sans-Serif" font-size="8.00" fill="#4d4d4d">terre</text>
</g>
<!-- usine -->
<g id="node13" class="node">
<title>usine</title>
<ellipse fill="#540f6d" stroke="white" stroke-width="0" cx="399.31" cy="-67.87" rx="11" ry="11"/>
<text text-anchor="middle" x="376.81" y="-81.47" font-family="Helvetica,sans-Serif" font-size="8.00" fill="#4d4d4d">usine</text>
</g>
<!-- exploitation -->
<g id="node14" class="node">
<title>exploitation</title>
<ellipse fill="#5a116e" stroke="white" stroke-width="0" cx="492.52" cy="-267.23" rx="11" ry="11"/>
<text text-anchor="middle" x="457.02" y="-280.83" font-family="Helvetica,sans-Serif" font-size="8.00" fill="#4d4d4d">exploitation</text>
</g>
<!-- sln -->
<g id="node15" class="node">
<title>sln</title>
<ellipse fill="#3e0966" stroke="white" stroke-width="0" cx="509.96" cy="-194.11" rx="7" ry="7"/>
<text text-anchor="middle" x="496.46" y="-203.71" font-family="Helvetica,sans-Serif" font-size="8.00" fill="#4d4d4d">sln</text>
</g>
<!-- ressource -->
<g id="node16" class="node">
<title>ressource</title>
<ellipse fill="#470b6a" stroke="white" stroke-width="0" cx="591.5" cy="-322.78" rx="7" ry="7"/>
<text text-anchor="middle" x="564.5" y="-332.38" font-family="Helvetica,sans-Serif" font-size="8.00" fill="#4d4d4d">ressource</text>
</g>
<!-- conflit -->
<g id="node17" class="node">
<title>conflit</title>
<ellipse fill="#380962" stroke="white" stroke-width="0" cx="561.92" cy="-265.01" rx="7" ry="7"/>
<text text-anchor="middle" x="541.92" y="-274.61" font-family="Helvetica,sans-Serif" font-size="8.00" fill="#4d4d4d">conflit</text>
</g>
<!-- développement -->
<g id="node18" class="node">
<title>développement</title>
<ellipse fill="#060419" stroke="white" stroke-width="0" cx="716.85" cy="-83.34" rx="3.5" ry="3.5"/>
<text text-anchor="middle" x="680.85" y="-89.44" font-family="Helvetica,sans-Serif" font-size="8.00" fill="#4d4d4d">développement</text>
</g>
<!-- minerai -->
<g id="node19" class="node">
<title>minerai</title>
<ellipse fill="#540f6d" stroke="white" stroke-width="0" cx="468.48" cy="-89.44" rx="11" ry="11"/>
<text text-anchor="middle" x="441.98" y="-103.04" font-family="Helvetica,sans-Serif" font-size="8.00" fill="#4d4d4d">minerai</text>
</g>
<!-- déforestation -->
<g id="node20" class="node">
<title>déforestation</title>
<ellipse fill="#10092d" stroke="white" stroke-width="0" cx="542.08" cy="-68.68" rx="3.5" ry="3.5"/>
<text text-anchor="middle" x="511.08" y="-74.78" font-family="Helvetica,sans-Serif" font-size="8.00" fill="#4d4d4d">déforestation</text>
</g>
<!-- extraction -->
<g id="node21" class="node">
<title>extraction</title>
<ellipse fill="#010005" stroke="white" stroke-width="0" cx="110.44" cy="-355.46" rx="0.5" ry="0.5"/>
<text text-anchor="middle" x="89.44" y="-358.56" font-family="Helvetica,sans-Serif" font-size="8.00" fill="#4d4d4d">extraction</text>
</g>
<!-- caillou -->
<g id="node22" class="node">
<title>caillou</title>
<ellipse fill="#0b0724" stroke="white" stroke-width="0" cx="31.5" cy="-325.26" rx="3.5" ry="3.5"/>
<text text-anchor="middle" x="14" y="-331.36" font-family="Helvetica,sans-Serif" font-size="8.00" fill="#4d4d4d">caillou</text>
</g>
<!-- terre rouge -->
<g id="node23" class="node">
<title>terre rouge</title>
<ellipse fill="#040312" stroke="white" stroke-width="0" cx="76.31" cy="-123.46" rx="3.5" ry="3.5"/>
<text text-anchor="middle" x="50.31" y="-129.56" font-family="Helvetica,sans-Serif" font-size="8.00" fill="#4d4d4d">terre rouge</text>
</g>
<!-- goro -->
<g id="node24" class="node">
<title>goro</title>
<ellipse fill="#000004" stroke="white" stroke-width="0" cx="23.68" cy="-206.19" rx="0.5" ry="0.5"/>
<text text-anchor="middle" x="13.68" y="-209.29" font-family="Helvetica,sans-Serif" font-size="8.00" fill="#4d4d4d">goro</text>
</g>
<!-- exportation -->
<g id="node25" class="node">
<title>exportation</title>
<ellipse fill="#07051b" stroke="white" stroke-width="0" cx="115.75" cy="-3.5" rx="3.5" ry="3.5"/>
<text text-anchor="middle" x="88.75" y="-9.6" font-family="Helvetica,sans-Serif" font-size="8.00" fill="#4d4d4d">exportation</text>
</g>
</g>
</svg>
