<?xml version="1.0" encoding="UTF-8" standalone="no"?>
<!DOCTYPE svg PUBLIC "-//W3C//DTD SVG 1.1//EN"
 "http://www.w3.org/Graphics/SVG/1.1/DTD/svg11.dtd">
<!-- Generated by graphviz version 2.43.0 (0)
 -->
<!-- Pages: 1 -->
<svg width="676pt" height="438pt"
 viewBox="0.00 0.00 675.62 438.15" xmlns="http://www.w3.org/2000/svg" xmlns:xlink="http://www.w3.org/1999/xlink">
<g id="graph0" class="graph" transform="scale(1 1) rotate(0) translate(4 434.15)">
<polygon fill="white" stroke="transparent" points="-4,4 -4,-434.15 671.62,-434.15 671.62,4 -4,4"/>
<!-- pollution&#45;&#45;emploi -->
<g id="edge1" class="edge">
<title>pollution&#45;&#45;emploi</title>
<path fill="none" stroke="darkgrey" stroke-width="10" d="M271.59,-234.18C271.6,-234.04 271.61,-233.9 271.62,-233.77"/>
</g>
<!-- pollution&#45;&#45;richesse -->
<g id="edge2" class="edge">
<title>pollution&#45;&#45;richesse</title>
<path fill="none" stroke="darkgrey" stroke-width="1.65" d="M282.61,-237.02C294.31,-213.56 310.85,-180.37 319.03,-163.97"/>
</g>
<!-- pollution&#45;&#45;démolition -->
<g id="edge3" class="edge">
<title>pollution&#45;&#45;démolition</title>
<path fill="none" stroke="darkgrey" stroke-width="2.76" d="M240.31,-264.98C210.14,-266.86 165.14,-269.65 147.79,-270.73"/>
</g>
<!-- pollution&#45;&#45;argent -->
<g id="edge4" class="edge">
<title>pollution&#45;&#45;argent</title>
<path fill="none" stroke="darkgrey" stroke-width="1.58" d="M290.2,-283.59C303.41,-296.67 319.52,-312.63 327.54,-320.57"/>
</g>
<!-- pollution&#45;&#45;nickel -->
<g id="edge5" class="edge">
<title>pollution&#45;&#45;nickel</title>
<path fill="none" stroke="darkgrey" stroke-width="4.98" d="M298.77,-259.66C334.57,-255.37 395.08,-248.11 432.26,-243.66"/>
</g>
<!-- pollution&#45;&#45;exploitation -->
<g id="edge6" class="edge">
<title>pollution&#45;&#45;exploitation</title>
<path fill="none" stroke="darkgrey" stroke-width="1.48" d="M284.29,-237.93C305.61,-201.37 344.29,-135.03 360.47,-107.3"/>
</g>
<!-- pollution&#45;&#45;montagne -->
<g id="edge7" class="edge">
<title>pollution&#45;&#45;montagne</title>
<path fill="none" stroke="darkgrey" d="M293.84,-279.67C332.18,-305.74 404.58,-354.97 425.75,-369.36"/>
</g>
<!-- pollution&#45;&#45;camion -->
<g id="edge8" class="edge">
<title>pollution&#45;&#45;camion</title>
<path fill="none" stroke="darkgrey" stroke-width="1.8" d="M285.26,-287.77C306.42,-320.95 343.1,-378.46 357.38,-400.85"/>
</g>
<!-- pollution&#45;&#45;économie -->
<g id="edge9" class="edge">
<title>pollution&#45;&#45;économie</title>
<path fill="none" stroke="darkgrey" stroke-width="4.58" d="M297.43,-254.79C313.72,-249.89 333.76,-243.86 347.77,-239.65"/>
</g>
<!-- pollution&#45;&#45;impact environnemental -->
<g id="edge10" class="edge">
<title>pollution&#45;&#45;impact environnemental</title>
<path fill="none" stroke="darkgrey" stroke-width="4.09" d="M291.89,-244.42C315.02,-224.98 350.47,-195.2 369.93,-178.86"/>
</g>
<!-- pollution&#45;&#45;conflit -->
<g id="edge11" class="edge">
<title>pollution&#45;&#45;conflit</title>
<path fill="none" stroke="darkgrey" stroke-width="1.08" d="M248.32,-283.46C223.57,-307.09 184.72,-344.18 174.29,-354.14"/>
</g>
<!-- pollution&#45;&#45;développement -->
<g id="edge12" class="edge">
<title>pollution&#45;&#45;développement</title>
<path fill="none" stroke="darkgrey" stroke-width="1.37" d="M243.19,-250.21C194.08,-226.1 92.74,-176.35 83.35,-171.74"/>
</g>
<!-- pollution&#45;&#45;déforestation -->
<g id="edge13" class="edge">
<title>pollution&#45;&#45;déforestation</title>
<path fill="none" stroke="darkgrey" stroke-width="1.51" d="M240.67,-266.45C188.73,-272.35 83.07,-284.35 62.15,-286.73"/>
</g>
<!-- emploi&#45;&#45;richesse -->
<g id="edge14" class="edge">
<title>emploi&#45;&#45;richesse</title>
<path fill="none" stroke="darkgrey" stroke-width="3.1" d="M301.4,-173.73C306.49,-169.28 311.45,-164.95 315.42,-161.49"/>
</g>
<!-- emploi&#45;&#45;démolition -->
<g id="edge15" class="edge">
<title>emploi&#45;&#45;démolition</title>
<path fill="none" stroke="darkgrey" stroke-width="1.36" d="M242.5,-214.97C210.57,-232.58 163.67,-258.46 146.88,-267.72"/>
</g>
<!-- emploi&#45;&#45;argent -->
<g id="edge16" class="edge">
<title>emploi&#45;&#45;argent</title>
<path fill="none" stroke="darkgrey" stroke-width="2.6" d="M289.19,-230.49C302.99,-260.72 322.35,-303.14 329.64,-319.12"/>
</g>
<!-- emploi&#45;&#45;nickel -->
<g id="edge17" class="edge">
<title>emploi&#45;&#45;nickel</title>
<path fill="none" stroke="darkgrey" stroke-width="6.34" d="M309.51,-205.37C344.79,-213.2 398.51,-225.12 432.56,-232.68"/>
</g>
<!-- emploi&#45;&#45;exploitation -->
<g id="edge18" class="edge">
<title>emploi&#45;&#45;exploitation</title>
<path fill="none" stroke="darkgrey" stroke-width="1.31" d="M298.52,-170.74C317.94,-149.41 344.12,-120.67 358.1,-105.32"/>
</g>
<!-- emploi&#45;&#45;économie -->
<g id="edge19" class="edge">
<title>emploi&#45;&#45;économie</title>
<path fill="none" stroke="darkgrey" stroke-width="7.01" d="M307.72,-211.17C321.47,-216.76 336.78,-222.99 348.11,-227.59"/>
</g>
<!-- emploi&#45;&#45;impact environnemental -->
<g id="edge20" class="edge">
<title>emploi&#45;&#45;impact environnemental</title>
<path fill="none" stroke="darkgrey" stroke-width="5.42" d="M308.87,-187.9C327.96,-182.61 350.83,-176.27 366.27,-172"/>
</g>
<!-- emploi&#45;&#45;conflit -->
<g id="edge22" class="edge">
<title>emploi&#45;&#45;conflit</title>
<path fill="none" stroke="darkgrey" stroke-width="2.18" d="M254.61,-227.83C228.36,-268.59 183.79,-337.8 173.7,-353.46"/>
</g>
<!-- emploi&#45;&#45;ressource -->
<g id="edge21" class="edge">
<title>emploi&#45;&#45;ressource</title>
<path fill="none" stroke="darkgrey" stroke-width="1.08" d="M269.66,-161.68C263.86,-115.33 254.16,-37.73 251.21,-14.07"/>
</g>
<!-- richesse&#45;&#45;nickel -->
<g id="edge23" class="edge">
<title>richesse&#45;&#45;nickel</title>
<path fill="none" stroke="darkgrey" stroke-width="1.61" d="M333.66,-159.91C354.63,-172.7 404.97,-203.41 436.76,-222.81"/>
</g>
<!-- richesse&#45;&#45;économie -->
<g id="edge24" class="edge">
<title>richesse&#45;&#45;économie</title>
<path fill="none" stroke="darkgrey" stroke-width="1.09" d="M329.02,-163.88C335.95,-177.47 348.52,-202.13 356.82,-218.4"/>
</g>
<!-- richesse&#45;&#45;impact environnemental -->
<g id="edge25" class="edge">
<title>richesse&#45;&#45;impact environnemental</title>
<path fill="none" stroke="darkgrey" stroke-width="1.28" d="M334.98,-156.41C343.63,-158.31 355.86,-160.98 365.93,-163.18"/>
</g>
<!-- argent&#45;&#45;nickel -->
<g id="edge26" class="edge">
<title>argent&#45;&#45;nickel</title>
<path fill="none" stroke="darkgrey" stroke-width="2.19" d="M338.59,-321.65C355.74,-310.5 405.67,-278.06 437.29,-257.52"/>
</g>
<!-- nickel&#45;&#45;exploitation -->
<g id="edge27" class="edge">
<title>nickel&#45;&#45;exploitation</title>
<path fill="none" stroke="darkgrey" stroke-width="2.45" d="M446.39,-212.47C425.28,-180.76 391.38,-129.85 375.97,-106.72"/>
</g>
<!-- nickel&#45;&#45;montagne -->
<g id="edge28" class="edge">
<title>nickel&#45;&#45;montagne</title>
<path fill="none" stroke="darkgrey" stroke-width="1.64" d="M456.79,-271.45C449.04,-302.94 437.71,-348.99 433.43,-366.4"/>
</g>
<!-- nickel&#45;&#45;camion -->
<g id="edge29" class="edge">
<title>nickel&#45;&#45;camion</title>
<path fill="none" stroke="darkgrey" stroke-width="2.92" d="M447.86,-267.91C424.71,-306.85 384.07,-375.23 369.08,-400.45"/>
</g>
<!-- nickel&#45;&#45;économie -->
<g id="edge30" class="edge">
<title>nickel&#45;&#45;économie</title>
<path fill="none" stroke="darkgrey" stroke-width="3.32" d="M431.98,-238.04C415.76,-237.17 396.76,-236.16 383.15,-235.43"/>
</g>
<!-- nickel&#45;&#45;impact environnemental -->
<g id="edge31" class="edge">
<title>nickel&#45;&#45;impact environnemental</title>
<path fill="none" stroke="darkgrey" stroke-width="2.33" d="M440.38,-217.98C426.27,-205.27 409,-189.72 397.31,-179.19"/>
</g>
<!-- nickel&#45;&#45;roche -->
<g id="edge32" class="edge">
<title>nickel&#45;&#45;roche</title>
<path fill="none" stroke="darkgrey" stroke-width="1.31" d="M486.25,-264.23C519.84,-302.13 582.48,-372.82 600.34,-392.97"/>
</g>
<!-- nickel&#45;&#45;terre rouge -->
<g id="edge33" class="edge">
<title>nickel&#45;&#45;terre rouge</title>
<path fill="none" stroke="darkgrey" stroke-width="1.52" d="M495.76,-249.74C545.96,-265.76 641.07,-296.13 660.57,-302.36"/>
</g>
<!-- nickel&#45;&#45;usine -->
<g id="edge34" class="edge">
<title>nickel&#45;&#45;usine</title>
<path fill="none" stroke="darkgrey" stroke-width="2.64" d="M488.43,-217.37C525.4,-182.62 594.35,-117.82 614.01,-99.35"/>
</g>
<!-- nickel&#45;&#45;sln -->
<g id="edge35" class="edge">
<title>nickel&#45;&#45;sln</title>
<path fill="none" stroke="darkgrey" stroke-width="3.22" d="M497.14,-236.93C536.73,-233.47 600.91,-227.85 622.24,-225.98"/>
</g>
<!-- nickel&#45;&#45;minerai -->
<g id="edge36" class="edge">
<title>nickel&#45;&#45;minerai</title>
<path fill="none" stroke="darkgrey" stroke-width="2.36" d="M474.54,-208.64C488.14,-166.1 511.67,-92.53 518.86,-70.05"/>
</g>
<!-- exploitation&#45;&#45;impact environnemental -->
<g id="edge37" class="edge">
<title>exploitation&#45;&#45;impact environnemental</title>
<path fill="none" stroke="darkgrey" stroke-width="1.5" d="M371.05,-108.91C373.62,-120.55 377.26,-137.03 380.01,-149.48"/>
</g>
<!-- exploitation&#45;&#45;ressource -->
<g id="edge38" class="edge">
<title>exploitation&#45;&#45;ressource</title>
<path fill="none" stroke="darkgrey" stroke-width="1.28" d="M356.18,-85.86C331.44,-67.43 274.59,-25.08 256.19,-11.37"/>
</g>
<!-- exploitation&#45;&#45;minerai -->
<g id="edge39" class="edge">
<title>exploitation&#45;&#45;minerai</title>
<path fill="none" stroke="darkgrey" stroke-width="1.86" d="M382.29,-91.64C414.3,-85.11 490.39,-69.59 513.93,-64.78"/>
</g>
<!-- économie&#45;&#45;impact environnemental -->
<g id="edge40" class="edge">
<title>économie&#45;&#45;impact environnemental</title>
<path fill="none" stroke="darkgrey" stroke-width="5.48" d="M369.88,-217.12C372.68,-207.14 376.18,-194.64 378.99,-184.64"/>
</g>
<!-- usine&#45;&#45;minerai -->
<g id="edge41" class="edge">
<title>usine&#45;&#45;minerai</title>
<path fill="none" stroke="darkgrey" stroke-width="1.48" d="M612.6,-92.18C594.64,-86.53 545.84,-71.16 527.81,-65.48"/>
</g>
<!-- pollution -->
<g id="node1" class="node">
<title>pollution</title>
<ellipse fill="#fb9906" stroke="white" stroke-width="0" cx="269.57" cy="-263.16" rx="29" ry="29"/>
<text text-anchor="middle" x="222.07" y="-294.76" font-family="Helvetica,sans-Serif" font-size="8.00" fill="#4d4d4d">pollution</text>
</g>
<!-- emploi -->
<g id="node2" class="node">
<title>emploi</title>
<ellipse fill="#fcffa4" stroke="white" stroke-width="0" cx="274.14" cy="-197.51" rx="36" ry="36"/>
<text text-anchor="middle" x="224.14" y="-236.11" font-family="Helvetica,sans-Serif" font-size="8.00" fill="#4d4d4d">emploi</text>
</g>
<!-- richesse -->
<g id="node3" class="node">
<title>richesse</title>
<ellipse fill="#59106e" stroke="white" stroke-width="0" cx="323.99" cy="-154.01" rx="11" ry="11"/>
<text text-anchor="middle" x="295.49" y="-145.61" font-family="Helvetica,sans-Serif" font-size="8.00" fill="#4d4d4d">richesse</text>
</g>
<!-- démolition -->
<g id="node4" class="node">
<title>démolition</title>
<ellipse fill="#240c4f" stroke="white" stroke-width="0" cx="140.62" cy="-271.17" rx="7" ry="7"/>
<text text-anchor="middle" x="111.62" y="-280.77" font-family="Helvetica,sans-Serif" font-size="8.00" fill="#4d4d4d">démolition</text>
</g>
<!-- argent -->
<g id="node5" class="node">
<title>argent</title>
<ellipse fill="#3d0965" stroke="white" stroke-width="0" cx="332.58" cy="-325.55" rx="7" ry="7"/>
<text text-anchor="middle" x="311.58" y="-335.15" font-family="Helvetica,sans-Serif" font-size="8.00" fill="#4d4d4d">argent</text>
</g>
<!-- nickel -->
<g id="node6" class="node">
<title>nickel</title>
<ellipse fill="#f8cd37" stroke="white" stroke-width="0" cx="464.58" cy="-239.78" rx="32.5" ry="32.5"/>
<text text-anchor="middle" x="420.08" y="-274.88" font-family="Helvetica,sans-Serif" font-size="8.00" fill="#4d4d4d">nickel</text>
</g>
<!-- exploitation -->
<g id="node7" class="node">
<title>exploitation</title>
<ellipse fill="#85216b" stroke="white" stroke-width="0" cx="367.88" cy="-94.58" rx="14.5" ry="14.5"/>
<text text-anchor="middle" x="328.88" y="-111.68" font-family="Helvetica,sans-Serif" font-size="8.00" fill="#4d4d4d">exploitation</text>
</g>
<!-- montagne -->
<g id="node8" class="node">
<title>montagne</title>
<ellipse fill="#260c51" stroke="white" stroke-width="0" cx="431.7" cy="-373.41" rx="7" ry="7"/>
<text text-anchor="middle" x="403.2" y="-383.01" font-family="Helvetica,sans-Serif" font-size="8.00" fill="#4d4d4d">montagne</text>
</g>
<!-- camion -->
<g id="node9" class="node">
<title>camion</title>
<ellipse fill="#540f6d" stroke="white" stroke-width="0" cx="363.31" cy="-410.15" rx="11" ry="11"/>
<text text-anchor="middle" x="336.81" y="-423.75" font-family="Helvetica,sans-Serif" font-size="8.00" fill="#4d4d4d">camion</text>
</g>
<!-- économie -->
<g id="node10" class="node">
<title>économie</title>
<ellipse fill="#b73557" stroke="white" stroke-width="0" cx="365.01" cy="-234.47" rx="18" ry="18"/>
<text text-anchor="middle" x="326.51" y="-255.07" font-family="Helvetica,sans-Serif" font-size="8.00" fill="#4d4d4d">économie</text>
</g>
<!-- impact environnemental -->
<g id="node11" class="node">
<title>impact environnemental</title>
<ellipse fill="#c83f4b" stroke="white" stroke-width="0" cx="383.9" cy="-167.12" rx="18" ry="18"/>
<text text-anchor="middle" x="415.9" y="-187.72" font-family="Helvetica,sans-Serif" font-size="8.00" fill="#4d4d4d">impact environnemental</text>
</g>
<!-- conflit -->
<g id="node12" class="node">
<title>conflit</title>
<ellipse fill="#1f0c48" stroke="white" stroke-width="0" cx="171.63" cy="-356.68" rx="3.5" ry="3.5"/>
<text text-anchor="middle" x="155.13" y="-362.78" font-family="Helvetica,sans-Serif" font-size="8.00" fill="#4d4d4d">conflit</text>
</g>
<!-- développement -->
<g id="node13" class="node">
<title>développement</title>
<ellipse fill="#000004" stroke="white" stroke-width="0" cx="82.65" cy="-171.4" rx="0.5" ry="0.5"/>
<text text-anchor="middle" x="49.65" y="-174.5" font-family="Helvetica,sans-Serif" font-size="8.00" fill="#4d4d4d">développement</text>
</g>
<!-- déforestation -->
<g id="node14" class="node">
<title>déforestation</title>
<ellipse fill="#09061f" stroke="white" stroke-width="0" cx="58.5" cy="-287.15" rx="3.5" ry="3.5"/>
<text text-anchor="middle" x="27.5" y="-293.25" font-family="Helvetica,sans-Serif" font-size="8.00" fill="#4d4d4d">déforestation</text>
</g>
<!-- ressource -->
<g id="node15" class="node">
<title>ressource</title>
<ellipse fill="#2f0a5b" stroke="white" stroke-width="0" cx="250.32" cy="-7" rx="7" ry="7"/>
<text text-anchor="middle" x="223.32" y="-16.6" font-family="Helvetica,sans-Serif" font-size="8.00" fill="#4d4d4d">ressource</text>
</g>
<!-- roche -->
<g id="node16" class="node">
<title>roche</title>
<ellipse fill="#390963" stroke="white" stroke-width="0" cx="605.2" cy="-398.46" rx="7" ry="7"/>
<text text-anchor="middle" x="586.7" y="-408.06" font-family="Helvetica,sans-Serif" font-size="8.00" fill="#4d4d4d">roche</text>
</g>
<!-- terre rouge -->
<g id="node17" class="node">
<title>terre rouge</title>
<ellipse fill="#0b0724" stroke="white" stroke-width="0" cx="664.12" cy="-303.49" rx="3.5" ry="3.5"/>
<text text-anchor="middle" x="638.12" y="-309.59" font-family="Helvetica,sans-Serif" font-size="8.00" fill="#4d4d4d">terre rouge</text>
</g>
<!-- usine -->
<g id="node18" class="node">
<title>usine</title>
<ellipse fill="#3b0964" stroke="white" stroke-width="0" cx="619.36" cy="-94.31" rx="7" ry="7"/>
<text text-anchor="middle" x="600.86" y="-103.91" font-family="Helvetica,sans-Serif" font-size="8.00" fill="#4d4d4d">usine</text>
</g>
<!-- sln -->
<g id="node19" class="node">
<title>sln</title>
<ellipse fill="#260c51" stroke="white" stroke-width="0" cx="629.4" cy="-225.36" rx="7" ry="7"/>
<text text-anchor="middle" x="615.9" y="-234.96" font-family="Helvetica,sans-Serif" font-size="8.00" fill="#4d4d4d">sln</text>
</g>
<!-- minerai -->
<g id="node20" class="node">
<title>minerai</title>
<ellipse fill="#3d0965" stroke="white" stroke-width="0" cx="521.01" cy="-63.34" rx="7" ry="7"/>
<text text-anchor="middle" x="498.51" y="-72.94" font-family="Helvetica,sans-Serif" font-size="8.00" fill="#4d4d4d">minerai</text>
</g>
</g>
</svg>
