<?xml version="1.0" encoding="UTF-8" standalone="no"?>
<!DOCTYPE svg PUBLIC "-//W3C//DTD SVG 1.1//EN"
 "http://www.w3.org/Graphics/SVG/1.1/DTD/svg11.dtd">
<!-- Generated by graphviz version 2.43.0 (0)
 -->
<!-- Pages: 1 -->
<svg width="584pt" height="523pt"
 viewBox="0.00 0.00 583.68 523.42" xmlns="http://www.w3.org/2000/svg" xmlns:xlink="http://www.w3.org/1999/xlink">
<g id="graph0" class="graph" transform="scale(1 1) rotate(0) translate(4 519.42)">
<polygon fill="white" stroke="transparent" points="-4,4 -4,-519.42 579.68,-519.42 579.68,4 -4,4"/>
<!-- pollution&#45;&#45;travail -->
<g id="edge1" class="edge">
<title>pollution&#45;&#45;travail</title>
<path fill="none" stroke="darkgrey" stroke-width="6.82" d="M305.75,-244.4C286.07,-241.42 261.89,-237.75 246.78,-235.47"/>
</g>
<!-- pollution&#45;&#45;richesse -->
<g id="edge2" class="edge">
<title>pollution&#45;&#45;richesse</title>
<path fill="none" stroke="darkgrey" stroke-width="2.35" d="M306,-255.79C250.1,-267.12 137.35,-289.97 101.87,-297.16"/>
</g>
<!-- pollution&#45;&#45;destruction -->
<g id="edge3" class="edge">
<title>pollution&#45;&#45;destruction</title>
<path fill="none" stroke="darkgrey" stroke-width="5.31" d="M357.44,-222.66C386.82,-182.31 440.82,-108.13 456.21,-86.99"/>
</g>
<!-- pollution&#45;&#45;argent -->
<g id="edge4" class="edge">
<title>pollution&#45;&#45;argent</title>
<path fill="none" stroke="darkgrey" stroke-width="2.54" d="M319.51,-222.25C304.88,-200.9 285.6,-172.78 277.36,-160.78"/>
</g>
<!-- pollution&#45;&#45;nickel -->
<g id="edge5" class="edge">
<title>pollution&#45;&#45;nickel</title>
<path fill="none" stroke="darkgrey" stroke-width="8.26" d="M305.37,-250.58C277.5,-251.67 237.49,-253.25 208.7,-254.38"/>
</g>
<!-- pollution&#45;&#45;camion -->
<g id="edge6" class="edge">
<title>pollution&#45;&#45;camion</title>
<path fill="none" stroke="darkgrey" stroke-width="2.78" d="M332.76,-217.06C326.01,-175.95 314.68,-106.96 310.28,-80.15"/>
</g>
<!-- pollution&#45;&#45;économie -->
<g id="edge7" class="edge">
<title>pollution&#45;&#45;économie</title>
<path fill="none" stroke="darkgrey" stroke-width="8.13" d="M305.55,-244.41C259.19,-237.45 175.32,-224.85 136,-218.95"/>
</g>
<!-- pollution&#45;&#45;environnement -->
<g id="edge8" class="edge">
<title>pollution&#45;&#45;environnement</title>
<path fill="none" stroke="darkgrey" stroke-width="6.64" d="M309.83,-266.12C270.69,-289.47 201.27,-330.88 170.41,-349.29"/>
</g>
<!-- pollution&#45;&#45;emploi -->
<g id="edge9" class="edge">
<title>pollution&#45;&#45;emploi</title>
<path fill="none" stroke="darkgrey" stroke-width="10" d="M311.45,-268.26C290.87,-282.94 263.14,-302.72 246.34,-314.69"/>
</g>
<!-- pollution&#45;&#45;terre -->
<g id="edge10" class="edge">
<title>pollution&#45;&#45;terre</title>
<path fill="none" stroke="darkgrey" stroke-width="1.03" d="M370.83,-248.36C402.28,-247.47 447.48,-246.18 464.85,-245.69"/>
</g>
<!-- pollution&#45;&#45;exploitation -->
<g id="edge11" class="edge">
<title>pollution&#45;&#45;exploitation</title>
<path fill="none" stroke="darkgrey" d="M347.24,-280.76C362.3,-332.33 391.36,-431.84 399.23,-458.8"/>
</g>
<!-- pollution&#45;&#45;conflit -->
<g id="edge12" class="edge">
<title>pollution&#45;&#45;conflit</title>
<path fill="none" stroke="darkgrey" stroke-width="1.07" d="M338.97,-281.88C339.75,-309.74 340.82,-347.75 341.26,-363.55"/>
</g>
<!-- pollution&#45;&#45;développement -->
<g id="edge13" class="edge">
<title>pollution&#45;&#45;développement</title>
<path fill="none" stroke="darkgrey" stroke-width="2.33" d="M370.25,-255.96C426.12,-267.54 536.09,-290.34 546.28,-292.45"/>
</g>
<!-- pollution&#45;&#45;déforestation -->
<g id="edge14" class="edge">
<title>pollution&#45;&#45;déforestation</title>
<path fill="none" stroke="darkgrey" stroke-width="2.44" d="M368.18,-236.52C425.74,-212.13 547.51,-160.52 568.93,-151.45"/>
</g>
<!-- travail&#45;&#45;richesse -->
<g id="edge15" class="edge">
<title>travail&#45;&#45;richesse</title>
<path fill="none" stroke="darkgrey" stroke-width="1.96" d="M219,-239.49C190.95,-252.61 126.27,-282.85 101.15,-294.59"/>
</g>
<!-- travail&#45;&#45;nickel -->
<g id="edge16" class="edge">
<title>travail&#45;&#45;nickel</title>
<path fill="none" stroke="darkgrey" stroke-width="3" d="M218.47,-238.5C214.88,-239.85 210.87,-241.37 206.74,-242.93"/>
</g>
<!-- travail&#45;&#45;économie -->
<g id="edge17" class="edge">
<title>travail&#45;&#45;économie</title>
<path fill="none" stroke="darkgrey" stroke-width="3.1" d="M217.87,-231.12C197.36,-228.07 159.64,-222.45 135.9,-218.91"/>
</g>
<!-- travail&#45;&#45;environnement -->
<g id="edge18" class="edge">
<title>travail&#45;&#45;environnement</title>
<path fill="none" stroke="darkgrey" stroke-width="2.88" d="M224.6,-245.74C210.37,-268.77 180.01,-317.89 164.47,-343.03"/>
</g>
<!-- richesse&#45;&#45;nickel -->
<g id="edge19" class="edge">
<title>richesse&#45;&#45;nickel</title>
<path fill="none" stroke="darkgrey" stroke-width="2.09" d="M100.93,-294.04C110.82,-288.76 126.47,-280.42 140.63,-272.87"/>
</g>
<!-- richesse&#45;&#45;économie -->
<g id="edge20" class="edge">
<title>richesse&#45;&#45;économie</title>
<path fill="none" stroke="darkgrey" stroke-width="1.74" d="M93.91,-288.78C97.61,-275.68 104,-253.08 108.7,-236.48"/>
</g>
<!-- richesse&#45;&#45;emploi -->
<g id="edge21" class="edge">
<title>richesse&#45;&#45;emploi</title>
<path fill="none" stroke="darkgrey" stroke-width="1.39" d="M101.95,-301.41C126.16,-305.86 184.15,-316.53 213.65,-321.96"/>
</g>
<!-- argent&#45;&#45;nickel -->
<g id="edge22" class="edge">
<title>argent&#45;&#45;nickel</title>
<path fill="none" stroke="darkgrey" stroke-width="3.87" d="M268.22,-160.07C255.56,-172.76 222.11,-206.25 198.37,-230.04"/>
</g>
<!-- argent&#45;&#45;emploi -->
<g id="edge23" class="edge">
<title>argent&#45;&#45;emploi</title>
<path fill="none" stroke="darkgrey" stroke-width="2.34" d="M271.67,-161.82C265.62,-186.46 244.92,-270.75 235.86,-307.68"/>
</g>
<!-- nickel&#45;&#45;camion -->
<g id="edge25" class="edge">
<title>nickel&#45;&#45;camion</title>
<path fill="none" stroke="darkgrey" stroke-width="4.52" d="M193.86,-226.62C225.2,-183.53 282.24,-105.09 301.72,-78.29"/>
</g>
<!-- nickel&#45;&#45;économie -->
<g id="edge26" class="edge">
<title>nickel&#45;&#45;économie</title>
<path fill="none" stroke="darkgrey" stroke-width="4.87" d="M142.92,-235.3C139.35,-232.83 135.79,-230.38 132.46,-228.08"/>
</g>
<!-- nickel&#45;&#45;environnement -->
<g id="edge27" class="edge">
<title>nickel&#45;&#45;environnement</title>
<path fill="none" stroke="darkgrey" stroke-width="2.15" d="M166.48,-291.45C163.61,-308.03 160.33,-327.03 157.99,-340.57"/>
</g>
<!-- nickel&#45;&#45;emploi -->
<g id="edge29" class="edge">
<title>nickel&#45;&#45;emploi</title>
<path fill="none" stroke="darkgrey" stroke-width="4.94" d="M196.26,-283.65C204.32,-293.16 213,-303.38 219.73,-311.32"/>
</g>
<!-- nickel&#45;&#45;montagne -->
<g id="edge24" class="edge">
<title>nickel&#45;&#45;montagne</title>
<path fill="none" stroke="darkgrey" stroke-width="2.28" d="M159.71,-222.13C143.6,-180.16 117.17,-111.33 108.94,-89.87"/>
</g>
<!-- nickel&#45;&#45;terre rouge -->
<g id="edge28" class="edge">
<title>nickel&#45;&#45;terre rouge</title>
<path fill="none" stroke="darkgrey" stroke-width="1.67" d="M171.72,-219.77C170,-152.14 166.44,-12.01 166.16,-1.17"/>
</g>
<!-- nickel&#45;&#45;usine -->
<g id="edge30" class="edge">
<title>nickel&#45;&#45;usine</title>
<path fill="none" stroke="darkgrey" stroke-width="4.6" d="M159.65,-289.38C138.99,-342.77 99.94,-443.72 89.65,-470.32"/>
</g>
<!-- nickel&#45;&#45;sln -->
<g id="edge31" class="edge">
<title>nickel&#45;&#45;sln</title>
<path fill="none" stroke="darkgrey" stroke-width="6.32" d="M148.11,-229.28C111.2,-189.36 43.69,-116.33 24.94,-96.06"/>
</g>
<!-- nickel&#45;&#45;ressource -->
<g id="edge32" class="edge">
<title>nickel&#45;&#45;ressource</title>
<path fill="none" stroke="darkgrey" stroke-width="1.02" d="M188.91,-288.31C217.27,-344.94 274.06,-458.37 288.23,-486.67"/>
</g>
<!-- nickel&#45;&#45;minerai -->
<g id="edge33" class="edge">
<title>nickel&#45;&#45;minerai</title>
<path fill="none" stroke="darkgrey" stroke-width="3.59" d="M177.11,-291.75C184.38,-350.25 198.34,-462.52 202.02,-492.12"/>
</g>
<!-- économie&#45;&#45;environnement -->
<g id="edge34" class="edge">
<title>économie&#45;&#45;environnement</title>
<path fill="none" stroke="darkgrey" stroke-width="8.89" d="M120.43,-236.5C128.37,-264.66 142.43,-314.47 149.9,-340.92"/>
</g>
<!-- économie&#45;&#45;emploi -->
<g id="edge35" class="edge">
<title>économie&#45;&#45;emploi</title>
<path fill="none" stroke="darkgrey" stroke-width="8.32" d="M130.34,-230.5C153.54,-252.22 196.45,-292.39 218.18,-312.74"/>
</g>
<!-- environnement&#45;&#45;emploi -->
<g id="edge36" class="edge">
<title>environnement&#45;&#45;emploi</title>
<path fill="none" stroke="darkgrey" stroke-width="3.09" d="M171.51,-351.33C184.37,-345.74 202.09,-338.04 214.94,-332.46"/>
</g>
<!-- emploi&#45;&#45;conflit -->
<g id="edge37" class="edge">
<title>emploi&#45;&#45;conflit</title>
<path fill="none" stroke="darkgrey" stroke-width="1.56" d="M248.24,-332.18C272.74,-342.36 317.4,-360.9 334.53,-368.01"/>
</g>
<!-- exploitation&#45;&#45;ressource -->
<g id="edge39" class="edge">
<title>exploitation&#45;&#45;ressource</title>
<path fill="none" stroke="darkgrey" stroke-width="2.32" d="M394.38,-467.41C374.67,-472.34 318.06,-486.53 298.35,-491.46"/>
</g>
<!-- exploitation&#45;&#45;minerai -->
<g id="edge40" class="edge">
<title>exploitation&#45;&#45;minerai</title>
<path fill="none" stroke="darkgrey" stroke-width="2.1" d="M394.18,-466.89C363.41,-472.12 241.12,-492.93 210.11,-498.2"/>
</g>
<!-- usine&#45;&#45;minerai -->
<g id="edge38" class="edge">
<title>usine&#45;&#45;minerai</title>
<path fill="none" stroke="darkgrey" stroke-width="2.55" d="M94.01,-478.23C114.56,-482.23 175.22,-494.03 195.92,-498.06"/>
</g>
<!-- ressource&#45;&#45;minerai -->
<g id="edge41" class="edge">
<title>ressource&#45;&#45;minerai</title>
<path fill="none" stroke="darkgrey" stroke-width="1.8" d="M284.24,-493.69C267.55,-494.87 226.57,-497.76 210.02,-498.92"/>
</g>
<!-- pollution -->
<g id="node1" class="node">
<title>pollution</title>
<ellipse fill="#fbbe23" stroke="white" stroke-width="0" cx="338.05" cy="-249.29" rx="32.5" ry="32.5"/>
<text text-anchor="middle" x="287.05" y="-284.39" font-family="Helvetica,sans-Serif" font-size="8.00" fill="#4d4d4d">pollution</text>
</g>
<!-- travail -->
<g id="node2" class="node">
<title>travail</title>
<ellipse fill="#972766" stroke="white" stroke-width="0" cx="232.3" cy="-233.27" rx="14.5" ry="14.5"/>
<text text-anchor="middle" x="204.8" y="-212.37" font-family="Helvetica,sans-Serif" font-size="8.00" fill="#4d4d4d">travail</text>
</g>
<!-- richesse -->
<g id="node3" class="node">
<title>richesse</title>
<ellipse fill="#5f136e" stroke="white" stroke-width="0" cx="90.91" cy="-299.38" rx="11" ry="11"/>
<text text-anchor="middle" x="62.41" y="-312.98" font-family="Helvetica,sans-Serif" font-size="8.00" fill="#4d4d4d">richesse</text>
</g>
<!-- destruction -->
<g id="node4" class="node">
<title>destruction</title>
<ellipse fill="#2b0b57" stroke="white" stroke-width="0" cx="460.4" cy="-81.24" rx="7" ry="7"/>
<text text-anchor="middle" x="429.9" y="-90.84" font-family="Helvetica,sans-Serif" font-size="8.00" fill="#4d4d4d">destruction</text>
</g>
<!-- argent -->
<g id="node5" class="node">
<title>argent</title>
<ellipse fill="#450a69" stroke="white" stroke-width="0" cx="273.36" cy="-154.93" rx="7" ry="7"/>
<text text-anchor="middle" x="252.36" y="-164.53" font-family="Helvetica,sans-Serif" font-size="8.00" fill="#4d4d4d">argent</text>
</g>
<!-- nickel -->
<g id="node6" class="node">
<title>nickel</title>
<ellipse fill="#fcffa4" stroke="white" stroke-width="0" cx="172.64" cy="-255.8" rx="36" ry="36"/>
<text text-anchor="middle" x="124.64" y="-294.4" font-family="Helvetica,sans-Serif" font-size="8.00" fill="#4d4d4d">nickel</text>
</g>
<!-- camion -->
<g id="node7" class="node">
<title>camion</title>
<ellipse fill="#65156e" stroke="white" stroke-width="0" cx="308.46" cy="-69.03" rx="11" ry="11"/>
<text text-anchor="middle" x="281.96" y="-82.63" font-family="Helvetica,sans-Serif" font-size="8.00" fill="#4d4d4d">camion</text>
</g>
<!-- économie -->
<g id="node8" class="node">
<title>économie</title>
<ellipse fill="#d04545" stroke="white" stroke-width="0" cx="114.56" cy="-215.73" rx="21.5" ry="21.5"/>
<text text-anchor="middle" x="72.56" y="-239.83" font-family="Helvetica,sans-Serif" font-size="8.00" fill="#4d4d4d">économie</text>
</g>
<!-- environnement -->
<g id="node9" class="node">
<title>environnement</title>
<ellipse fill="#a92e5e" stroke="white" stroke-width="0" cx="154.88" cy="-358.56" rx="18" ry="18"/>
<text text-anchor="middle" x="105.88" y="-379.16" font-family="Helvetica,sans-Serif" font-size="8.00" fill="#4d4d4d">environnement</text>
</g>
<!-- emploi -->
<g id="node10" class="node">
<title>emploi</title>
<ellipse fill="#ad305d" stroke="white" stroke-width="0" cx="231.54" cy="-325.25" rx="18" ry="18"/>
<text text-anchor="middle" x="199.54" y="-345.85" font-family="Helvetica,sans-Serif" font-size="8.00" fill="#4d4d4d">emploi</text>
</g>
<!-- terre -->
<g id="node11" class="node">
<title>terre</title>
<ellipse fill="#2b0b57" stroke="white" stroke-width="0" cx="472.02" cy="-245.49" rx="7" ry="7"/>
<text text-anchor="middle" x="455.52" y="-255.09" font-family="Helvetica,sans-Serif" font-size="8.00" fill="#4d4d4d">terre</text>
</g>
<!-- exploitation -->
<g id="node12" class="node">
<title>exploitation</title>
<ellipse fill="#4f0d6c" stroke="white" stroke-width="0" cx="401.24" cy="-465.69" rx="7" ry="7"/>
<text text-anchor="middle" x="369.74" y="-475.29" font-family="Helvetica,sans-Serif" font-size="8.00" fill="#4d4d4d">exploitation</text>
</g>
<!-- conflit -->
<g id="node13" class="node">
<title>conflit</title>
<ellipse fill="#2b0b57" stroke="white" stroke-width="0" cx="341.47" cy="-370.9" rx="7" ry="7"/>
<text text-anchor="middle" x="321.47" y="-380.5" font-family="Helvetica,sans-Serif" font-size="8.00" fill="#4d4d4d">conflit</text>
</g>
<!-- développement -->
<g id="node14" class="node">
<title>développement</title>
<ellipse fill="#010108" stroke="white" stroke-width="0" cx="547.04" cy="-292.6" rx="0.5" ry="0.5"/>
<text text-anchor="middle" x="514.04" y="-295.7" font-family="Helvetica,sans-Serif" font-size="8.00" fill="#4d4d4d">développement</text>
</g>
<!-- déforestation -->
<g id="node15" class="node">
<title>déforestation</title>
<ellipse fill="#08051d" stroke="white" stroke-width="0" cx="572.18" cy="-150.07" rx="3.5" ry="3.5"/>
<text text-anchor="middle" x="541.18" y="-156.17" font-family="Helvetica,sans-Serif" font-size="8.00" fill="#4d4d4d">déforestation</text>
</g>
<!-- montagne -->
<g id="node16" class="node">
<title>montagne</title>
<ellipse fill="#340a5f" stroke="white" stroke-width="0" cx="106.4" cy="-83.28" rx="7" ry="7"/>
<text text-anchor="middle" x="77.9" y="-92.88" font-family="Helvetica,sans-Serif" font-size="8.00" fill="#4d4d4d">montagne</text>
</g>
<!-- terre rouge -->
<g id="node17" class="node">
<title>terre rouge</title>
<ellipse fill="#000004" stroke="white" stroke-width="0" cx="166.14" cy="-0.5" rx="0.5" ry="0.5"/>
<text text-anchor="middle" x="143.14" y="-3.6" font-family="Helvetica,sans-Serif" font-size="8.00" fill="#4d4d4d">terre rouge</text>
</g>
<!-- usine -->
<g id="node18" class="node">
<title>usine</title>
<ellipse fill="#4a0c6b" stroke="white" stroke-width="0" cx="87.11" cy="-476.88" rx="7" ry="7"/>
<text text-anchor="middle" x="68.61" y="-486.48" font-family="Helvetica,sans-Serif" font-size="8.00" fill="#4d4d4d">usine</text>
</g>
<!-- sln -->
<g id="node19" class="node">
<title>sln</title>
<ellipse fill="#340a5f" stroke="white" stroke-width="0" cx="20" cy="-90.71" rx="7" ry="7"/>
<text text-anchor="middle" x="6.5" y="-100.31" font-family="Helvetica,sans-Serif" font-size="8.00" fill="#4d4d4d">sln</text>
</g>
<!-- ressource -->
<g id="node20" class="node">
<title>ressource</title>
<ellipse fill="#3d0965" stroke="white" stroke-width="0" cx="291.49" cy="-493.18" rx="7" ry="7"/>
<text text-anchor="middle" x="264.49" y="-502.78" font-family="Helvetica,sans-Serif" font-size="8.00" fill="#4d4d4d">ressource</text>
</g>
<!-- minerai -->
<g id="node21" class="node">
<title>minerai</title>
<ellipse fill="#4a0c6b" stroke="white" stroke-width="0" cx="202.92" cy="-499.42" rx="7" ry="7"/>
<text text-anchor="middle" x="180.42" y="-509.02" font-family="Helvetica,sans-Serif" font-size="8.00" fill="#4d4d4d">minerai</text>
</g>
</g>
</svg>
