<?xml version="1.0" encoding="UTF-8" standalone="no"?>
<!DOCTYPE svg PUBLIC "-//W3C//DTD SVG 1.1//EN"
 "http://www.w3.org/Graphics/SVG/1.1/DTD/svg11.dtd">
<!-- Generated by graphviz version 2.43.0 (0)
 -->
<!-- Pages: 1 -->
<svg width="478pt" height="407pt"
 viewBox="0.00 0.00 477.75 407.38" xmlns="http://www.w3.org/2000/svg" xmlns:xlink="http://www.w3.org/1999/xlink">
<g id="graph0" class="graph" transform="scale(1 1) rotate(0) translate(4 403.38)">
<polygon fill="white" stroke="transparent" points="-4,4 -4,-403.38 473.75,-403.38 473.75,4 -4,4"/>
<!-- avenir sans nickel&#45;&#45;travail -->
<g id="edge1" class="edge">
<title>avenir sans nickel&#45;&#45;travail</title>
<path fill="none" stroke="darkgrey" stroke-width="2.93" d="M320.44,-334.12C326.69,-327.97 333.57,-321.21 339.33,-315.55"/>
</g>
<!-- avenir sans nickel&#45;&#45;politique -->
<g id="edge2" class="edge">
<title>avenir sans nickel&#45;&#45;politique</title>
<path fill="none" stroke="darkgrey" stroke-width="3.42" d="M284.56,-333.9C275.24,-324.56 264.05,-313.35 255.61,-304.89"/>
</g>
<!-- avenir sans nickel&#45;&#45;secteur nickel -->
<g id="edge3" class="edge">
<title>avenir sans nickel&#45;&#45;secteur nickel</title>
<path fill="none" stroke="darkgrey" stroke-width="2.74" d="M299.13,-327C293.87,-287.53 283.71,-211.38 279.1,-176.82"/>
</g>
<!-- avenir sans nickel&#45;&#45;avenir avec nickel -->
<g id="edge4" class="edge">
<title>avenir sans nickel&#45;&#45;avenir avec nickel</title>
<path fill="none" stroke="darkgrey" stroke-width="2.67" d="M326.1,-342.99C363.37,-329.08 433.82,-302.8 455.93,-294.55"/>
</g>
<!-- avenir sans nickel&#45;&#45;pollution -->
<g id="edge5" class="edge">
<title>avenir sans nickel&#45;&#45;pollution</title>
<path fill="none" stroke="darkgrey" stroke-width="5.27" d="M285.29,-333.24C261.35,-307.32 218.31,-260.71 195.71,-236.24"/>
</g>
<!-- avenir sans nickel&#45;&#45;ressource minière -->
<g id="edge6" class="edge">
<title>avenir sans nickel&#45;&#45;ressource minière</title>
<path fill="none" stroke="darkgrey" stroke-width="5.35" d="M317.91,-332.07C342.56,-300.6 390.48,-239.42 415.17,-207.91"/>
</g>
<!-- avenir sans nickel&#45;&#45;dégradation environnementale -->
<g id="edge7" class="edge">
<title>avenir sans nickel&#45;&#45;dégradation environnementale</title>
<path fill="none" stroke="darkgrey" stroke-width="5.98" d="M292.06,-328.98C281.83,-306.5 266.11,-271.93 254.54,-246.47"/>
</g>
<!-- avenir sans nickel&#45;&#45;société néo&#45;calédonienne -->
<g id="edge8" class="edge">
<title>avenir sans nickel&#45;&#45;société néo&#45;calédonienne</title>
<path fill="none" stroke="darkgrey" stroke-width="2.63" d="M288.58,-330.93C258.44,-285.55 187.99,-179.44 166.71,-147.39"/>
</g>
<!-- avenir sans nickel&#45;&#45;alternative au développement -->
<g id="edge9" class="edge">
<title>avenir sans nickel&#45;&#45;alternative au développement</title>
<path fill="none" stroke="darkgrey" stroke-width="4.27" d="M302.57,-326.77C302.81,-280.28 303.31,-181.16 303.55,-134.5"/>
</g>
<!-- avenir sans nickel&#45;&#45;économie -->
<g id="edge10" class="edge">
<title>avenir sans nickel&#45;&#45;économie</title>
<path fill="none" stroke="darkgrey" stroke-width="2.24" d="M304.35,-326.71C306.04,-304.56 308.44,-273.01 309.84,-254.7"/>
</g>
<!-- avenir sans nickel&#45;&#45;amélioration environnementale -->
<g id="edge11" class="edge">
<title>avenir sans nickel&#45;&#45;amélioration environnementale</title>
<path fill="none" stroke="darkgrey" stroke-width="1.64" d="M322.04,-335.82C346.44,-315.9 387.07,-282.73 404.78,-268.28"/>
</g>
<!-- travail&#45;&#45;politique -->
<g id="edge12" class="edge">
<title>travail&#45;&#45;politique</title>
<path fill="none" stroke="darkgrey" stroke-width="3.14" d="M334.23,-301.03C313.95,-299.05 281.24,-295.86 260.95,-293.88"/>
</g>
<!-- travail&#45;&#45;secteur nickel -->
<g id="edge13" class="edge">
<title>travail&#45;&#45;secteur nickel</title>
<path fill="none" stroke="darkgrey" stroke-width="3.31" d="M343.92,-286.85C329.39,-259.21 299.69,-202.68 285.14,-174.98"/>
</g>
<!-- travail&#45;&#45;avenir avec nickel -->
<g id="edge14" class="edge">
<title>travail&#45;&#45;avenir avec nickel</title>
<path fill="none" stroke="darkgrey" stroke-width="1.12" d="M370.54,-301.01C395.29,-298.59 438.39,-294.38 455.48,-292.72"/>
</g>
<!-- travail&#45;&#45;pollution -->
<g id="edge15" class="edge">
<title>travail&#45;&#45;pollution</title>
<path fill="none" stroke="darkgrey" stroke-width="4.96" d="M335.87,-294.88C304.12,-279.58 234.48,-246.04 200.44,-229.64"/>
</g>
<!-- travail&#45;&#45;ressource minière -->
<g id="edge16" class="edge">
<title>travail&#45;&#45;ressource minière</title>
<path fill="none" stroke="darkgrey" stroke-width="2.42" d="M362.55,-287.8C376.33,-267.64 400.89,-231.7 416.46,-208.92"/>
</g>
<!-- travail&#45;&#45;dégradation environnementale -->
<g id="edge17" class="edge">
<title>travail&#45;&#45;dégradation environnementale</title>
<path fill="none" stroke="darkgrey" stroke-width="6.15" d="M338.02,-291.49C320.48,-277.6 290.31,-253.7 267.97,-236.02"/>
</g>
<!-- travail&#45;&#45;société néo&#45;calédonienne -->
<g id="edge18" class="edge">
<title>travail&#45;&#45;société néo&#45;calédonienne</title>
<path fill="none" stroke="darkgrey" stroke-width="3.11" d="M338.51,-290.95C301.23,-258.93 199.26,-171.34 169.06,-145.39"/>
</g>
<!-- travail&#45;&#45;alternative au développement -->
<g id="edge19" class="edge">
<title>travail&#45;&#45;alternative au développement</title>
<path fill="none" stroke="darkgrey" stroke-width="3.46" d="M347.9,-285.27C339.2,-250.66 319.8,-173.41 309.84,-133.75"/>
</g>
<!-- travail&#45;&#45;économie -->
<g id="edge20" class="edge">
<title>travail&#45;&#45;économie</title>
<path fill="none" stroke="darkgrey" stroke-width="3.59" d="M342.29,-287.58C335.12,-276.69 325.6,-262.21 318.94,-252.09"/>
</g>
<!-- travail&#45;&#45;amélioration environnementale -->
<g id="edge21" class="edge">
<title>travail&#45;&#45;amélioration environnementale</title>
<path fill="none" stroke="darkgrey" stroke-width="2.33" d="M367.42,-292.51C378.88,-284.71 394.28,-274.24 404.04,-267.6"/>
</g>
<!-- travail&#45;&#45;essor technologique -->
<g id="edge22" class="edge">
<title>travail&#45;&#45;essor technologique</title>
<path fill="none" stroke="darkgrey" stroke-width="2.6" d="M352.77,-284.74C353.64,-251.69 355.47,-182.05 356.27,-151.71"/>
</g>
<!-- politique&#45;&#45;secteur nickel -->
<g id="edge23" class="edge">
<title>politique&#45;&#45;secteur nickel</title>
<path fill="none" stroke="darkgrey" stroke-width="3.53" d="M247.35,-274.43C253.83,-248.96 265.72,-202.23 272.21,-176.72"/>
</g>
<!-- politique&#45;&#45;avenir avec nickel -->
<g id="edge25" class="edge">
<title>politique&#45;&#45;avenir avec nickel</title>
<path fill="none" stroke="darkgrey" stroke-width="1.02" d="M261.22,-292.1C307.05,-292.08 424.95,-292.02 455.46,-292.01"/>
</g>
<!-- politique&#45;&#45;pollution -->
<g id="edge26" class="edge">
<title>politique&#45;&#45;pollution</title>
<path fill="none" stroke="darkgrey" stroke-width="3.12" d="M230.91,-278.25C220.65,-266.34 205.84,-249.15 195,-236.57"/>
</g>
<!-- politique&#45;&#45;ressource minière -->
<g id="edge27" class="edge">
<title>politique&#45;&#45;ressource minière</title>
<path fill="none" stroke="darkgrey" stroke-width="3.6" d="M258.87,-283.24C292.49,-264.62 370.49,-221.43 408.74,-200.25"/>
</g>
<!-- politique&#45;&#45;dégradation environnementale -->
<g id="edge28" class="edge">
<title>politique&#45;&#45;dégradation environnementale</title>
<path fill="none" stroke="darkgrey" stroke-width="4.84" d="M242.09,-273.88C241.78,-266.62 241.42,-258.01 241.06,-249.59"/>
</g>
<!-- politique&#45;&#45;société néo&#45;calédonienne -->
<g id="edge29" class="edge">
<title>politique&#45;&#45;société néo&#45;calédonienne</title>
<path fill="none" stroke="darkgrey" stroke-width="1.9" d="M234.35,-276.2C217.34,-244.38 179.56,-173.7 165.73,-147.81"/>
</g>
<!-- politique&#45;&#45;alternative au développement -->
<g id="edge31" class="edge">
<title>politique&#45;&#45;alternative au développement</title>
<path fill="none" stroke="darkgrey" stroke-width="2.71" d="M248.58,-274.91C259.49,-242.09 283.29,-170.52 295.74,-133.1"/>
</g>
<!-- politique&#45;&#45;économie -->
<g id="edge32" class="edge">
<title>politique&#45;&#45;économie</title>
<path fill="none" stroke="darkgrey" stroke-width="3.32" d="M257.3,-281.05C269.79,-271.48 287.63,-257.83 299.25,-248.93"/>
</g>
<!-- politique&#45;&#45;relation politique -->
<g id="edge24" class="edge">
<title>politique&#45;&#45;relation politique</title>
<path fill="none" stroke="darkgrey" stroke-width="1.26" d="M227.54,-301.66C189.95,-325.11 95.54,-384 86.77,-389.47"/>
</g>
<!-- politique&#45;&#45;nouvelle&#45;calédonie -->
<g id="edge30" class="edge">
<title>politique&#45;&#45;nouvelle&#45;calédonie</title>
<path fill="none" stroke="darkgrey" stroke-width="1.08" d="M248.65,-274.92C267.98,-217.64 329.52,-35.3 339.02,-7.16"/>
</g>
<!-- secteur nickel&#45;&#45;avenir avec nickel -->
<g id="edge33" class="edge">
<title>secteur nickel&#45;&#45;avenir avec nickel</title>
<path fill="none" stroke="darkgrey" stroke-width="1.23" d="M291.63,-169.63C330.09,-197.13 431.39,-269.58 456.87,-287.8"/>
</g>
<!-- secteur nickel&#45;&#45;pollution -->
<g id="edge34" class="edge">
<title>secteur nickel&#45;&#45;pollution</title>
<path fill="none" stroke="darkgrey" stroke-width="3.54" d="M261.33,-168.81C244.41,-179.64 217.23,-197.02 199.23,-208.54"/>
</g>
<!-- secteur nickel&#45;&#45;ressource minière -->
<g id="edge35" class="edge">
<title>secteur nickel&#45;&#45;ressource minière</title>
<path fill="none" stroke="darkgrey" stroke-width="1.96" d="M294.69,-162.37C322.21,-167.57 374.9,-177.54 406,-183.42"/>
</g>
<!-- secteur nickel&#45;&#45;dégradation environnementale -->
<g id="edge36" class="edge">
<title>secteur nickel&#45;&#45;dégradation environnementale</title>
<path fill="none" stroke="darkgrey" stroke-width="3.19" d="M266.56,-173.87C264.5,-176.9 262.26,-180.18 259.98,-183.53"/>
</g>
<!-- secteur nickel&#45;&#45;société néo&#45;calédonienne -->
<g id="edge37" class="edge">
<title>secteur nickel&#45;&#45;société néo&#45;calédonienne</title>
<path fill="none" stroke="darkgrey" stroke-width="1.5" d="M258.82,-155.75C234.5,-151.37 191.75,-143.68 171.61,-140.06"/>
</g>
<!-- secteur nickel&#45;&#45;alternative au développement -->
<g id="edge38" class="edge">
<title>secteur nickel&#45;&#45;alternative au développement</title>
<path fill="none" stroke="darkgrey" stroke-width="5.36" d="M285.4,-142.96C287.37,-139.32 289.5,-135.4 291.58,-131.55"/>
</g>
<!-- secteur nickel&#45;&#45;économie -->
<g id="edge40" class="edge">
<title>secteur nickel&#45;&#45;économie</title>
<path fill="none" stroke="darkgrey" stroke-width="2.14" d="M283.82,-175.75C290.16,-190.76 299.35,-212.49 305.24,-226.42"/>
</g>
<!-- secteur nickel&#45;&#45;amélioration environnementale -->
<g id="edge41" class="edge">
<title>secteur nickel&#45;&#45;amélioration environnementale</title>
<path fill="none" stroke="darkgrey" stroke-width="2.74" d="M291.36,-169.91C319.74,-191.13 381.52,-237.3 404.56,-254.53"/>
</g>
<!-- secteur nickel&#45;&#45;essor technologique -->
<g id="edge42" class="edge">
<title>secteur nickel&#45;&#45;essor technologique</title>
<path fill="none" stroke="darkgrey" stroke-width="1.63" d="M294.46,-154.11C308.91,-150.15 329.02,-144.63 342.43,-140.96"/>
</g>
<!-- secteur nickel&#45;&#45;nickel -->
<g id="edge39" class="edge">
<title>secteur nickel&#45;&#45;nickel</title>
<path fill="none" stroke="darkgrey" stroke-width="1.63" d="M262.3,-148.1C223.6,-118.93 119.07,-40.17 99.82,-25.66"/>
</g>
<!-- avenir avec nickel&#45;&#45;ressource minière -->
<g id="edge44" class="edge">
<title>avenir avec nickel&#45;&#45;ressource minière</title>
<path fill="none" stroke="darkgrey" stroke-width="1.04" d="M460.65,-285.19C456.16,-270.65 445.47,-235.99 438.15,-212.27"/>
</g>
<!-- avenir avec nickel&#45;&#45;dégradation environnementale -->
<g id="edge45" class="edge">
<title>avenir avec nickel&#45;&#45;dégradation environnementale</title>
<path fill="none" stroke="darkgrey" stroke-width="2.27" d="M455.83,-289.57C428.53,-279.97 327.23,-244.34 273.51,-225.45"/>
</g>
<!-- avenir avec nickel&#45;&#45;alternative au développement -->
<g id="edge46" class="edge">
<title>avenir avec nickel&#45;&#45;alternative au développement</title>
<path fill="none" stroke="darkgrey" stroke-width="1.83" d="M457.82,-286.33C436.94,-262.35 355.38,-168.64 320.09,-128.09"/>
</g>
<!-- avenir avec nickel&#45;&#45;économie -->
<g id="edge47" class="edge">
<title>avenir avec nickel&#45;&#45;économie</title>
<path fill="none" stroke="darkgrey" stroke-width="1.64" d="M455.83,-289.63C432.52,-281.64 356.51,-255.58 324.92,-244.75"/>
</g>
<!-- avenir avec nickel&#45;&#45;amélioration environnementale -->
<g id="edge48" class="edge">
<title>avenir avec nickel&#45;&#45;amélioration environnementale</title>
<path fill="none" stroke="darkgrey" stroke-width="2.37" d="M456.71,-288.23C448.28,-282.95 432.9,-273.34 422.94,-267.11"/>
</g>
<!-- avenir avec nickel&#45;&#45;essor technologique -->
<g id="edge49" class="edge">
<title>avenir avec nickel&#45;&#45;essor technologique</title>
<path fill="none" stroke="darkgrey" stroke-width="1.72" d="M458.72,-286.12C443.13,-263.35 386.54,-180.7 365.03,-149.29"/>
</g>
<!-- pollution&#45;&#45;ressource minière -->
<g id="edge50" class="edge">
<title>pollution&#45;&#45;ressource minière</title>
<path fill="none" stroke="darkgrey" stroke-width="4.16" d="M202.66,-217.44C248.83,-211.5 356.47,-197.64 405.53,-191.33"/>
</g>
<!-- pollution&#45;&#45;dégradation environnementale -->
<g id="edge51" class="edge">
<title>pollution&#45;&#45;dégradation environnementale</title>
<path fill="none" stroke="darkgrey" stroke-width="10" d="M202.42,-217.77C202.82,-217.73 203.21,-217.68 203.61,-217.64"/>
</g>
<!-- pollution&#45;&#45;société néo&#45;calédonienne -->
<g id="edge53" class="edge">
<title>pollution&#45;&#45;société néo&#45;calédonienne</title>
<path fill="none" stroke="darkgrey" stroke-width="3.21" d="M175.67,-199.08C171.71,-183.1 166.42,-161.81 163.25,-149.07"/>
</g>
<!-- pollution&#45;&#45;alternative au développement -->
<g id="edge54" class="edge">
<title>pollution&#45;&#45;alternative au développement</title>
<path fill="none" stroke="darkgrey" stroke-width="4.43" d="M196.98,-205.73C219.59,-185.28 260.76,-148.04 284.81,-126.29"/>
</g>
<!-- pollution&#45;&#45;économie -->
<g id="edge56" class="edge">
<title>pollution&#45;&#45;économie</title>
<path fill="none" stroke="darkgrey" stroke-width="4.12" d="M202.4,-223.5C228.95,-227.52 273.42,-234.27 296.33,-237.74"/>
</g>
<!-- pollution&#45;&#45;amélioration environnementale -->
<g id="edge57" class="edge">
<title>pollution&#45;&#45;amélioration environnementale</title>
<path fill="none" stroke="darkgrey" stroke-width="1.18" d="M202.39,-224.02C250.63,-232.51 366.22,-252.87 402.43,-259.24"/>
</g>
<!-- pollution&#45;&#45;essor technologique -->
<g id="edge58" class="edge">
<title>pollution&#45;&#45;essor technologique</title>
<path fill="none" stroke="darkgrey" stroke-width="2.4" d="M200.41,-211.02C236.33,-194.02 312.17,-158.12 343.09,-143.48"/>
</g>
<!-- pollution&#45;&#45;nickel -->
<g id="edge55" class="edge">
<title>pollution&#45;&#45;nickel</title>
<path fill="none" stroke="darkgrey" stroke-width="1.61" d="M172.4,-200.28C153.08,-155.11 107.03,-47.39 98.22,-26.79"/>
</g>
<!-- pollution&#45;&#45;nature -->
<g id="edge52" class="edge">
<title>pollution&#45;&#45;nature</title>
<path fill="none" stroke="darkgrey" stroke-width="2.15" d="M160.19,-226.22C126.65,-235.9 62.12,-254.51 40.93,-260.63"/>
</g>
<!-- ressource minière&#45;&#45;dégradation environnementale -->
<g id="edge59" class="edge">
<title>ressource minière&#45;&#45;dégradation environnementale</title>
<path fill="none" stroke="darkgrey" stroke-width="6.37" d="M405.7,-191.41C372.41,-195.84 313.3,-203.7 275.29,-208.75"/>
</g>
<!-- ressource minière&#45;&#45;alternative au développement -->
<g id="edge60" class="edge">
<title>ressource minière&#45;&#45;alternative au développement</title>
<path fill="none" stroke="darkgrey" stroke-width="4.73" d="M409.43,-174.89C385.99,-160.33 348.48,-137.05 325.01,-122.47"/>
</g>
<!-- ressource minière&#45;&#45;économie -->
<g id="edge61" class="edge">
<title>ressource minière&#45;&#45;économie</title>
<path fill="none" stroke="darkgrey" stroke-width="3.31" d="M407.61,-198.09C382.87,-208.81 344.46,-225.45 324.32,-234.18"/>
</g>
<!-- ressource minière&#45;&#45;amélioration environnementale -->
<g id="edge62" class="edge">
<title>ressource minière&#45;&#45;amélioration environnementale</title>
<path fill="none" stroke="darkgrey" stroke-width="1.24" d="M424.96,-212.43C421.94,-225.22 418.4,-240.27 416.05,-250.23"/>
</g>
<!-- ressource minière&#45;&#45;essor technologique -->
<g id="edge63" class="edge">
<title>ressource minière&#45;&#45;essor technologique</title>
<path fill="none" stroke="darkgrey" stroke-width="3.71" d="M410.07,-173.88C396.72,-164.67 379.81,-153.02 368.63,-145.31"/>
</g>
<!-- dégradation environnementale&#45;&#45;société néo&#45;calédonienne -->
<g id="edge65" class="edge">
<title>dégradation environnementale&#45;&#45;société néo&#45;calédonienne</title>
<path fill="none" stroke="darkgrey" stroke-width="2.4" d="M213.23,-188.38C197.78,-173.64 179.3,-155.99 168.83,-146"/>
</g>
<!-- dégradation environnementale&#45;&#45;alternative au développement -->
<g id="edge66" class="edge">
<title>dégradation environnementale&#45;&#45;alternative au développement</title>
<path fill="none" stroke="darkgrey" stroke-width="4.83" d="M258.44,-182.78C268.71,-166.08 281.17,-145.83 290.4,-130.81"/>
</g>
<!-- dégradation environnementale&#45;&#45;économie -->
<g id="edge68" class="edge">
<title>dégradation environnementale&#45;&#45;économie</title>
<path fill="none" stroke="darkgrey" stroke-width="6.21" d="M273.58,-226.12C281.91,-229.2 290.37,-232.34 297.13,-234.84"/>
</g>
<!-- dégradation environnementale&#45;&#45;amélioration environnementale -->
<g id="edge69" class="edge">
<title>dégradation environnementale&#45;&#45;amélioration environnementale</title>
<path fill="none" stroke="darkgrey" stroke-width="2.31" d="M274.32,-223.04C314.37,-234.02 377.86,-251.42 402.86,-258.28"/>
</g>
<!-- dégradation environnementale&#45;&#45;essor technologique -->
<g id="edge70" class="edge">
<title>dégradation environnementale&#45;&#45;essor technologique</title>
<path fill="none" stroke="darkgrey" stroke-width="3.1" d="M269.7,-193.82C293.97,-177.98 326.81,-156.54 344.37,-145.08"/>
</g>
<!-- dégradation environnementale&#45;&#45;nickel -->
<g id="edge67" class="edge">
<title>dégradation environnementale&#45;&#45;nickel</title>
<path fill="none" stroke="darkgrey" stroke-width="1.77" d="M217.86,-184.63C181.97,-136.83 112.81,-44.73 99.13,-26.52"/>
</g>
<!-- dégradation environnementale&#45;&#45;nature -->
<g id="edge64" class="edge">
<title>dégradation environnementale&#45;&#45;nature</title>
<path fill="none" stroke="darkgrey" stroke-width="3.31" d="M204.21,-221.95C154.17,-233.91 65.92,-255 40.83,-260.99"/>
</g>
<!-- société néo&#45;calédonienne&#45;&#45;alternative au développement -->
<g id="edge73" class="edge">
<title>société néo&#45;calédonienne&#45;&#45;alternative au développement</title>
<path fill="none" stroke="darkgrey" stroke-width="2.64" d="M171.75,-135.8C194.75,-131.16 247.69,-120.5 279.07,-114.18"/>
</g>
<!-- société néo&#45;calédonienne&#45;&#45;économie -->
<g id="edge75" class="edge">
<title>société néo&#45;calédonienne&#45;&#45;économie</title>
<path fill="none" stroke="darkgrey" stroke-width="2.41" d="M169.93,-144.43C196.04,-162.12 269.42,-211.83 298.69,-231.65"/>
</g>
<!-- société néo&#45;calédonienne&#45;&#45;nouvelle&#45;calédonie -->
<g id="edge72" class="edge">
<title>société néo&#45;calédonienne&#45;&#45;nouvelle&#45;calédonie</title>
<path fill="none" stroke="darkgrey" d="M169.68,-131.2C203.16,-106.14 317.95,-20.2 337.43,-5.61"/>
</g>
<!-- société néo&#45;calédonienne&#45;&#45;nickel -->
<g id="edge74" class="edge">
<title>société néo&#45;calédonienne&#45;&#45;nickel</title>
<path fill="none" stroke="darkgrey" stroke-width="1.47" d="M155.08,-128.28C141.59,-104.01 107.04,-41.87 98.62,-26.72"/>
</g>
<!-- alternative au développement&#45;&#45;économie -->
<g id="edge79" class="edge">
<title>alternative au développement&#45;&#45;économie</title>
<path fill="none" stroke="darkgrey" stroke-width="5.19" d="M305.08,-134.43C306.59,-161.44 308.92,-203.39 310.15,-225.38"/>
</g>
<!-- alternative au développement&#45;&#45;amélioration environnementale -->
<g id="edge80" class="edge">
<title>alternative au développement&#45;&#45;amélioration environnementale</title>
<path fill="none" stroke="darkgrey" stroke-width="4.06" d="M318.48,-129.72C342.72,-163.26 389.87,-228.52 407.03,-252.27"/>
</g>
<!-- alternative au développement&#45;&#45;essor technologique -->
<g id="edge81" class="edge">
<title>alternative au développement&#45;&#45;essor technologique</title>
<path fill="none" stroke="darkgrey" stroke-width="3.89" d="M325.84,-120.87C331.96,-124.09 338.4,-127.47 343.81,-130.31"/>
</g>
<!-- alternative au développement&#45;&#45;nickel -->
<g id="edge78" class="edge">
<title>alternative au développement&#45;&#45;nickel</title>
<path fill="none" stroke="darkgrey" stroke-width="1.5" d="M280.34,-99.54C231.3,-79.19 120.36,-33.15 99.99,-24.69"/>
</g>
<!-- économie&#45;&#45;amélioration environnementale -->
<g id="edge82" class="edge">
<title>économie&#45;&#45;amélioration environnementale</title>
<path fill="none" stroke="darkgrey" stroke-width="1.01" d="M325.21,-242.91C345.9,-247.2 383.8,-255.04 402.48,-258.91"/>
</g>
<!-- amélioration environnementale&#45;&#45;essor technologique -->
<g id="edge83" class="edge">
<title>amélioration environnementale&#45;&#45;essor technologique</title>
<path fill="none" stroke="darkgrey" stroke-width="1.39" d="M408.82,-251.03C398.59,-228.68 374.14,-175.25 362.72,-150.31"/>
</g>
<!-- relation politique&#45;&#45;économie -->
<g id="edge43" class="edge">
<title>relation politique&#45;&#45;économie</title>
<path fill="none" stroke="darkgrey" stroke-width="1.06" d="M86.76,-389.45C98.02,-381.94 253.39,-278.35 298.66,-248.16"/>
</g>
<!-- nouvelle&#45;calédonie&#45;&#45;alternative au développement -->
<g id="edge76" class="edge">
<title>nouvelle&#45;calédonie&#45;&#45;alternative au développement</title>
<path fill="none" stroke="darkgrey" stroke-width="1.56" d="M339.04,-7.02C334.87,-19.06 320.94,-59.31 311.86,-85.57"/>
</g>
<!-- nouvelle&#45;calédonie&#45;&#45;économie -->
<g id="edge77" class="edge">
<title>nouvelle&#45;calédonie&#45;&#45;économie</title>
<path fill="none" stroke="darkgrey" stroke-width="1.12" d="M339.79,-7.21C336.68,-32.36 318.62,-178.11 312.78,-225.25"/>
</g>
<!-- nature&#45;&#45;société néo&#45;calédonienne -->
<g id="edge71" class="edge">
<title>nature&#45;&#45;société néo&#45;calédonienne</title>
<path fill="none" stroke="darkgrey" stroke-width="1.14" d="M39.12,-257.59C58.62,-238.38 128.45,-169.64 152.39,-146.06"/>
</g>
<!-- avenir sans nickel -->
<g id="node1" class="node">
<title>avenir sans nickel</title>
<ellipse fill="#f78212" stroke="white" stroke-width="0" cx="302.44" cy="-351.82" rx="25" ry="25"/>
<text text-anchor="middle" x="240.94" y="-379.42" font-family="Helvetica,sans-Serif" font-size="8.00" fill="#4d4d4d">avenir sans nickel</text>
</g>
<!-- travail -->
<g id="node2" class="node">
<title>travail</title>
<ellipse fill="#a92e5e" stroke="white" stroke-width="0" cx="352.3" cy="-302.79" rx="18" ry="18"/>
<text text-anchor="middle" x="321.3" y="-287.39" font-family="Helvetica,sans-Serif" font-size="8.00" fill="#4d4d4d">travail</text>
</g>
<!-- politique -->
<g id="node3" class="node">
<title>politique</title>
<ellipse fill="#bd3853" stroke="white" stroke-width="0" cx="242.85" cy="-292.11" rx="18" ry="18"/>
<text text-anchor="middle" x="206.35" y="-312.71" font-family="Helvetica,sans-Serif" font-size="8.00" fill="#4d4d4d">politique</text>
</g>
<!-- secteur nickel -->
<g id="node4" class="node">
<title>secteur nickel</title>
<ellipse fill="#bc3754" stroke="white" stroke-width="0" cx="276.72" cy="-158.97" rx="18" ry="18"/>
<text text-anchor="middle" x="230.22" y="-143.57" font-family="Helvetica,sans-Serif" font-size="8.00" fill="#4d4d4d">secteur nickel</text>
</g>
<!-- avenir avec nickel -->
<g id="node5" class="node">
<title>avenir avec nickel</title>
<ellipse fill="#320a5e" stroke="white" stroke-width="0" cx="462.75" cy="-292.01" rx="7" ry="7"/>
<text text-anchor="middle" x="419.25" y="-301.61" font-family="Helvetica,sans-Serif" font-size="8.00" fill="#4d4d4d">avenir avec nickel</text>
</g>
<!-- pollution -->
<g id="node6" class="node">
<title>pollution</title>
<ellipse fill="#e35933" stroke="white" stroke-width="0" cx="180.93" cy="-220.24" rx="21.5" ry="21.5"/>
<text text-anchor="middle" x="140.93" y="-244.34" font-family="Helvetica,sans-Serif" font-size="8.00" fill="#4d4d4d">pollution</text>
</g>
<!-- ressource minière -->
<g id="node7" class="node">
<title>ressource minière</title>
<ellipse fill="#eb6429" stroke="white" stroke-width="0" cx="430.69" cy="-188.09" rx="25" ry="25"/>
<text text-anchor="middle" x="369.19" y="-215.69" font-family="Helvetica,sans-Serif" font-size="8.00" fill="#4d4d4d">ressource minière</text>
</g>
<!-- dégradation environnementale -->
<g id="node8" class="node">
<title>dégradation environnementale</title>
<ellipse fill="#fcffa4" stroke="white" stroke-width="0" cx="239.55" cy="-213.51" rx="36" ry="36"/>
<text text-anchor="middle" x="140.05" y="-180.11" font-family="Helvetica,sans-Serif" font-size="8.00" fill="#4d4d4d">dégradation environnementale</text>
</g>
<!-- société néo&#45;calédonienne -->
<g id="node9" class="node">
<title>société néo&#45;calédonienne</title>
<ellipse fill="#741a6e" stroke="white" stroke-width="0" cx="160.52" cy="-138.06" rx="11" ry="11"/>
<text text-anchor="middle" x="95.52" y="-151.66" font-family="Helvetica,sans-Serif" font-size="8.00" fill="#4d4d4d">société néo&#45;calédonienne</text>
</g>
<!-- alternative au développement -->
<g id="node10" class="node">
<title>alternative au développement</title>
<ellipse fill="#f78410" stroke="white" stroke-width="0" cx="303.68" cy="-109.23" rx="25" ry="25"/>
<text text-anchor="middle" x="216.68" y="-86.83" font-family="Helvetica,sans-Serif" font-size="8.00" fill="#4d4d4d">alternative au développement</text>
</g>
<!-- économie -->
<g id="node11" class="node">
<title>économie</title>
<ellipse fill="#972766" stroke="white" stroke-width="0" cx="310.96" cy="-239.96" rx="14.5" ry="14.5"/>
<text text-anchor="middle" x="275.96" y="-257.06" font-family="Helvetica,sans-Serif" font-size="8.00" fill="#4d4d4d">économie</text>
</g>
<!-- amélioration environnementale -->
<g id="node12" class="node">
<title>amélioration environnementale</title>
<ellipse fill="#59106e" stroke="white" stroke-width="0" cx="413.47" cy="-261.19" rx="11" ry="11"/>
<text text-anchor="middle" x="337.97" y="-274.79" font-family="Helvetica,sans-Serif" font-size="8.00" fill="#4d4d4d">amélioration environnementale</text>
</g>
<!-- essor technologique -->
<g id="node13" class="node">
<title>essor technologique</title>
<ellipse fill="#952667" stroke="white" stroke-width="0" cx="356.66" cy="-137.06" rx="14.5" ry="14.5"/>
<text text-anchor="middle" x="384.66" y="-154.16" font-family="Helvetica,sans-Serif" font-size="8.00" fill="#4d4d4d">essor technologique</text>
</g>
<!-- relation politique -->
<g id="node14" class="node">
<title>relation politique</title>
<ellipse fill="#000004" stroke="white" stroke-width="0" cx="86.11" cy="-389.88" rx="0.5" ry="0.5"/>
<text text-anchor="middle" x="50.61" y="-392.98" font-family="Helvetica,sans-Serif" font-size="8.00" fill="#4d4d4d">relation politique</text>
</g>
<!-- nouvelle&#45;calédonie -->
<g id="node15" class="node">
<title>nouvelle&#45;calédonie</title>
<ellipse fill="#0d0829" stroke="white" stroke-width="0" cx="340.25" cy="-3.5" rx="3.5" ry="3.5"/>
<text text-anchor="middle" x="297.25" y="-9.6" font-family="Helvetica,sans-Serif" font-size="8.00" fill="#4d4d4d">nouvelle&#45;calédonie</text>
</g>
<!-- nickel -->
<g id="node16" class="node">
<title>nickel</title>
<ellipse fill="#0c0826" stroke="white" stroke-width="0" cx="96.75" cy="-23.35" rx="3.5" ry="3.5"/>
<text text-anchor="middle" x="81.25" y="-29.45" font-family="Helvetica,sans-Serif" font-size="8.00" fill="#4d4d4d">nickel</text>
</g>
<!-- nature -->
<g id="node17" class="node">
<title>nature</title>
<ellipse fill="#2d0b59" stroke="white" stroke-width="0" cx="34" cy="-262.62" rx="7" ry="7"/>
<text text-anchor="middle" x="13.5" y="-272.22" font-family="Helvetica,sans-Serif" font-size="8.00" fill="#4d4d4d">nature</text>
</g>
</g>
</svg>
