<?xml version="1.0" encoding="UTF-8" standalone="no"?>
<!DOCTYPE svg PUBLIC "-//W3C//DTD SVG 1.1//EN"
 "http://www.w3.org/Graphics/SVG/1.1/DTD/svg11.dtd">
<!-- Generated by graphviz version 2.43.0 (0)
 -->
<!-- Pages: 1 -->
<svg width="879pt" height="532pt"
 viewBox="0.00 0.00 878.91 532.45" xmlns="http://www.w3.org/2000/svg" xmlns:xlink="http://www.w3.org/1999/xlink">
<g id="graph0" class="graph" transform="scale(1 1) rotate(0) translate(4 528.45)">
<polygon fill="white" stroke="transparent" points="-4,4 -4,-528.45 874.91,-528.45 874.91,4 -4,4"/>
<!-- pollution&#45;&#45;dégradation environnementale -->
<g id="edge1" class="edge">
<title>pollution&#45;&#45;dégradation environnementale</title>
<path fill="none" stroke="darkgrey" stroke-width="10" d="M489.13,-308.81C483.29,-313.12 476.36,-318.23 469.7,-323.14"/>
</g>
<!-- pollution&#45;&#45;nouvelle&#45;calédonie -->
<g id="edge2" class="edge">
<title>pollution&#45;&#45;nouvelle&#45;calédonie</title>
<path fill="none" stroke="darkgrey" d="M506.87,-280.2C513.33,-243.64 527.75,-162.12 531.04,-143.52"/>
</g>
<!-- pollution&#45;&#45;travail -->
<g id="edge3" class="edge">
<title>pollution&#45;&#45;travail</title>
<path fill="none" stroke="darkgrey" stroke-width="6.57" d="M501.4,-316.21C499.27,-332.95 496.11,-357.81 493.86,-375.53"/>
</g>
<!-- pollution&#45;&#45;économie -->
<g id="edge4" class="edge">
<title>pollution&#45;&#45;économie</title>
<path fill="none" stroke="darkgrey" stroke-width="5.3" d="M489.86,-310.31C468.06,-329.6 426.01,-366.79 404.36,-385.94"/>
</g>
<!-- pollution&#45;&#45;nickel -->
<g id="edge5" class="edge">
<title>pollution&#45;&#45;nickel</title>
<path fill="none" stroke="darkgrey" stroke-width="4.66" d="M486.51,-291.26C469.29,-284.46 442.33,-273.8 420.84,-265.3"/>
</g>
<!-- pollution&#45;&#45;ressource minière -->
<g id="edge6" class="edge">
<title>pollution&#45;&#45;ressource minière</title>
<path fill="none" stroke="darkgrey" stroke-width="1.56" d="M487.03,-290.49C449.64,-273.53 360.04,-232.87 329.69,-219.1"/>
</g>
<!-- pollution&#45;&#45;politique -->
<g id="edge7" class="edge">
<title>pollution&#45;&#45;politique</title>
<path fill="none" stroke="darkgrey" stroke-width="2.63" d="M494.93,-282.26C489.32,-272.17 482.15,-259.25 476.87,-249.75"/>
</g>
<!-- pollution&#45;&#45;secteur nickel -->
<g id="edge8" class="edge">
<title>pollution&#45;&#45;secteur nickel</title>
<path fill="none" stroke="darkgrey" stroke-width="2.38" d="M485.79,-295.73C444.64,-290.36 343.76,-277.2 302.66,-271.84"/>
</g>
<!-- pollution&#45;&#45;nature -->
<g id="edge9" class="edge">
<title>pollution&#45;&#45;nature</title>
<path fill="none" stroke="darkgrey" stroke-width="3.36" d="M485.81,-300.84C434.27,-308.86 286.22,-331.88 239.02,-339.22"/>
</g>
<!-- pollution&#45;&#45;exploitation minière -->
<g id="edge10" class="edge">
<title>pollution&#45;&#45;exploitation minière</title>
<path fill="none" stroke="darkgrey" stroke-width="1.67" d="M487.51,-306.42C442.08,-329.88 314.36,-395.82 277.91,-414.63"/>
</g>
<!-- pollution&#45;&#45;alternative au développement -->
<g id="edge11" class="edge">
<title>pollution&#45;&#45;alternative au développement</title>
<path fill="none" stroke="darkgrey" stroke-width="1.47" d="M521.02,-292.08C558.68,-279.08 646.17,-248.87 664.85,-242.42"/>
</g>
<!-- pollution&#45;&#45;matériel -->
<g id="edge12" class="edge">
<title>pollution&#45;&#45;matériel</title>
<path fill="none" stroke="darkgrey" stroke-width="2.45" d="M495.72,-314.42C477.48,-351.76 433.08,-442.67 416.44,-476.75"/>
</g>
<!-- pollution&#45;&#45;industrie -->
<g id="edge13" class="edge">
<title>pollution&#45;&#45;industrie</title>
<path fill="none" stroke="darkgrey" stroke-width="2.2" d="M485.78,-301.37C450.61,-307.85 372.97,-322.16 337.96,-328.61"/>
</g>
<!-- dégradation environnementale&#45;&#45;nouvelle&#45;calédonie -->
<g id="edge14" class="edge">
<title>dégradation environnementale&#45;&#45;nouvelle&#45;calédonie</title>
<path fill="none" stroke="darkgrey" stroke-width="1.14" d="M456.52,-312.55C478.56,-261.87 521.7,-162.72 530.23,-143.1"/>
</g>
<!-- dégradation environnementale&#45;&#45;travail -->
<g id="edge15" class="edge">
<title>dégradation environnementale&#45;&#45;travail</title>
<path fill="none" stroke="darkgrey" stroke-width="7.68" d="M465.08,-367.19C469.12,-371.81 473.24,-376.53 476.98,-380.81"/>
</g>
<!-- dégradation environnementale&#45;&#45;économie -->
<g id="edge16" class="edge">
<title>dégradation environnementale&#45;&#45;économie</title>
<path fill="none" stroke="darkgrey" stroke-width="7.69" d="M420.82,-366.34C414.79,-372.68 408.5,-379.31 403.24,-384.85"/>
</g>
<!-- dégradation environnementale&#45;&#45;nickel -->
<g id="edge17" class="edge">
<title>dégradation environnementale&#45;&#45;nickel</title>
<path fill="none" stroke="darkgrey" stroke-width="9.17" d="M426.29,-314.83C419.95,-304.65 412.73,-293.05 406.24,-282.62"/>
</g>
<!-- dégradation environnementale&#45;&#45;ressource minière -->
<g id="edge18" class="edge">
<title>dégradation environnementale&#45;&#45;ressource minière</title>
<path fill="none" stroke="darkgrey" stroke-width="3.88" d="M420.75,-318.99C392.49,-289.83 345.75,-241.6 327.29,-222.55"/>
</g>
<!-- dégradation environnementale&#45;&#45;politique -->
<g id="edge19" class="edge">
<title>dégradation environnementale&#45;&#45;politique</title>
<path fill="none" stroke="darkgrey" stroke-width="3.91" d="M451.34,-310.73C456.26,-290.77 462.38,-266 466.14,-250.77"/>
</g>
<!-- dégradation environnementale&#45;&#45;secteur nickel -->
<g id="edge20" class="edge">
<title>dégradation environnementale&#45;&#45;secteur nickel</title>
<path fill="none" stroke="darkgrey" stroke-width="3.7" d="M413.65,-328.75C380.43,-313.48 327.94,-289.34 301.38,-277.13"/>
</g>
<!-- dégradation environnementale&#45;&#45;nature -->
<g id="edge21" class="edge">
<title>dégradation environnementale&#45;&#45;nature</title>
<path fill="none" stroke="darkgrey" stroke-width="5.25" d="M410.7,-342.32C362.34,-342.11 273.91,-341.71 239.06,-341.56"/>
</g>
<!-- dégradation environnementale&#45;&#45;exploitation minière -->
<g id="edge23" class="edge">
<title>dégradation environnementale&#45;&#45;exploitation minière</title>
<path fill="none" stroke="darkgrey" stroke-width="3.53" d="M413.74,-355.57C373.67,-373.22 304.38,-403.73 278.36,-415.18"/>
</g>
<!-- dégradation environnementale&#45;&#45;alternative au développement -->
<g id="edge24" class="edge">
<title>dégradation environnementale&#45;&#45;alternative au développement</title>
<path fill="none" stroke="darkgrey" stroke-width="1.79" d="M473.37,-329.02C528.81,-304.05 643.95,-252.21 665.05,-242.7"/>
</g>
<!-- dégradation environnementale&#45;&#45;matériel -->
<g id="edge25" class="edge">
<title>dégradation environnementale&#45;&#45;matériel</title>
<path fill="none" stroke="darkgrey" stroke-width="4.19" d="M436.23,-374.47C429.11,-405.82 418.58,-452.17 413.28,-475.46"/>
</g>
<!-- dégradation environnementale&#45;&#45;industrie -->
<g id="edge27" class="edge">
<title>dégradation environnementale&#45;&#45;industrie</title>
<path fill="none" stroke="darkgrey" stroke-width="3.03" d="M411.11,-339.69C387.86,-337.69 357.38,-335.07 338.3,-333.43"/>
</g>
<!-- dégradation environnementale&#45;&#45;société néo&#45;calédonienne -->
<g id="edge22" class="edge">
<title>dégradation environnementale&#45;&#45;société néo&#45;calédonienne</title>
<path fill="none" stroke="darkgrey" stroke-width="1.53" d="M473.22,-355.79C535.43,-383.67 675.57,-446.46 699.19,-457.05"/>
</g>
<!-- dégradation environnementale&#45;&#45;foncier -->
<g id="edge26" class="edge">
<title>dégradation environnementale&#45;&#45;foncier</title>
<path fill="none" stroke="darkgrey" stroke-width="1.9" d="M414.72,-326.75C350.63,-291.75 199.85,-209.41 175.54,-196.13"/>
</g>
<!-- dégradation environnementale&#45;&#45;risque -->
<g id="edge28" class="edge">
<title>dégradation environnementale&#45;&#45;risque</title>
<path fill="none" stroke="darkgrey" stroke-width="1.41" d="M467.57,-364.97C510.81,-405.4 597.92,-486.84 606,-494.39"/>
</g>
<!-- dégradation environnementale&#45;&#45;échange commercial -->
<g id="edge29" class="edge">
<title>dégradation environnementale&#45;&#45;échange commercial</title>
<path fill="none" stroke="darkgrey" stroke-width="1.71" d="M420.42,-365.85C385.45,-401.28 321.15,-466.42 302.83,-484.98"/>
</g>
<!-- nouvelle&#45;calédonie&#45;&#45;travail -->
<g id="edge30" class="edge">
<title>nouvelle&#45;calédonie&#45;&#45;travail</title>
<path fill="none" stroke="darkgrey" stroke-width="1.22" d="M531.15,-143.32C527.16,-168.61 503.45,-318.87 494.53,-375.46"/>
</g>
<!-- nouvelle&#45;calédonie&#45;&#45;nickel -->
<g id="edge31" class="edge">
<title>nouvelle&#45;calédonie&#45;&#45;nickel</title>
<path fill="none" stroke="darkgrey" stroke-width="2.5" d="M528.7,-142.03C514.43,-153.12 452.89,-200.94 415.82,-229.74"/>
</g>
<!-- nouvelle&#45;calédonie&#45;&#45;politique -->
<g id="edge32" class="edge">
<title>nouvelle&#45;calédonie&#45;&#45;politique</title>
<path fill="none" stroke="darkgrey" stroke-width="1.71" d="M529.65,-142.91C521.57,-155.54 491.84,-201.97 477.48,-224.4"/>
</g>
<!-- nouvelle&#45;calédonie&#45;&#45;secteur nickel -->
<g id="edge33" class="edge">
<title>nouvelle&#45;calédonie&#45;&#45;secteur nickel</title>
<path fill="none" stroke="darkgrey" stroke-width="1.26" d="M528.6,-141.33C504.76,-153.86 351.12,-234.65 300.77,-261.13"/>
</g>
<!-- nouvelle&#45;calédonie&#45;&#45;industrie -->
<g id="edge34" class="edge">
<title>nouvelle&#45;calédonie&#45;&#45;industrie</title>
<path fill="none" stroke="darkgrey" stroke-width="1.11" d="M529.05,-142.12C508.58,-160.71 376.42,-280.82 333.6,-319.73"/>
</g>
<!-- travail&#45;&#45;économie -->
<g id="edge35" class="edge">
<title>travail&#45;&#45;économie</title>
<path fill="none" stroke="darkgrey" stroke-width="7.68" d="M469.35,-397.22C451.24,-397.4 425.79,-397.64 408.8,-397.81"/>
</g>
<!-- travail&#45;&#45;nickel -->
<g id="edge36" class="edge">
<title>travail&#45;&#45;nickel</title>
<path fill="none" stroke="darkgrey" stroke-width="8.08" d="M478.59,-379.52C461.15,-355.18 429.33,-310.8 408.21,-281.35"/>
</g>
<!-- travail&#45;&#45;ressource minière -->
<g id="edge37" class="edge">
<title>travail&#45;&#45;ressource minière</title>
<path fill="none" stroke="darkgrey" stroke-width="3.03" d="M476.19,-381.13C440.95,-343.65 353.59,-250.76 327.15,-222.65"/>
</g>
<!-- travail&#45;&#45;politique -->
<g id="edge38" class="edge">
<title>travail&#45;&#45;politique</title>
<path fill="none" stroke="darkgrey" stroke-width="3.83" d="M488.23,-375.39C483.78,-342.22 475.38,-279.67 471.58,-251.32"/>
</g>
<!-- travail&#45;&#45;secteur nickel -->
<g id="edge39" class="edge">
<title>travail&#45;&#45;secteur nickel</title>
<path fill="none" stroke="darkgrey" stroke-width="4.82" d="M472.82,-385.69C432.68,-360.89 337.55,-302.11 300.22,-279.04"/>
</g>
<!-- travail&#45;&#45;nature -->
<g id="edge40" class="edge">
<title>travail&#45;&#45;nature</title>
<path fill="none" stroke="darkgrey" stroke-width="2.96" d="M469.75,-392.56C417.21,-381.62 282.83,-353.66 238.68,-344.47"/>
</g>
<!-- travail&#45;&#45;exploitation minière -->
<g id="edge42" class="edge">
<title>travail&#45;&#45;exploitation minière</title>
<path fill="none" stroke="darkgrey" stroke-width="2.77" d="M469.34,-399.23C422.64,-403.98 314.33,-415 279.27,-418.57"/>
</g>
<!-- travail&#45;&#45;matériel -->
<g id="edge43" class="edge">
<title>travail&#45;&#45;matériel</title>
<path fill="none" stroke="darkgrey" stroke-width="3.41" d="M476.62,-413.63C460.12,-432.53 433.65,-462.85 419.55,-479"/>
</g>
<!-- travail&#45;&#45;industrie -->
<g id="edge44" class="edge">
<title>travail&#45;&#45;industrie</title>
<path fill="none" stroke="darkgrey" stroke-width="3.52" d="M470.85,-389.28C436.9,-376.34 369.16,-350.52 337.4,-338.42"/>
</g>
<!-- travail&#45;&#45;société néo&#45;calédonienne -->
<g id="edge41" class="edge">
<title>travail&#45;&#45;société néo&#45;calédonienne</title>
<path fill="none" stroke="darkgrey" stroke-width="1.41" d="M511.79,-403.02C560.02,-417.06 677.55,-451.28 699.16,-457.57"/>
</g>
<!-- travail&#45;&#45;risque -->
<g id="edge45" class="edge">
<title>travail&#45;&#45;risque</title>
<path fill="none" stroke="darkgrey" stroke-width="1.47" d="M507.67,-411.04C538.1,-436.86 600.39,-489.69 606.17,-494.59"/>
</g>
<!-- travail&#45;&#45;échange commercial -->
<g id="edge46" class="edge">
<title>travail&#45;&#45;échange commercial</title>
<path fill="none" stroke="darkgrey" stroke-width="1.51" d="M471.53,-406.44C429.11,-426.86 330.49,-474.32 304.32,-486.92"/>
</g>
<!-- économie&#45;&#45;nickel -->
<g id="edge47" class="edge">
<title>économie&#45;&#45;nickel</title>
<path fill="none" stroke="darkgrey" stroke-width="6" d="M390.31,-379.79C389.75,-356.94 388.77,-317.19 388.06,-288.08"/>
</g>
<!-- économie&#45;&#45;ressource minière -->
<g id="edge48" class="edge">
<title>économie&#45;&#45;ressource minière</title>
<path fill="none" stroke="darkgrey" stroke-width="1.87" d="M384.17,-381.05C369.69,-343.78 335.41,-255.55 323.56,-225.05"/>
</g>
<!-- économie&#45;&#45;politique -->
<g id="edge49" class="edge">
<title>économie&#45;&#45;politique</title>
<path fill="none" stroke="darkgrey" stroke-width="4.37" d="M398.75,-381.63C414.41,-349.6 448.85,-279.15 463.17,-249.86"/>
</g>
<!-- économie&#45;&#45;secteur nickel -->
<g id="edge50" class="edge">
<title>économie&#45;&#45;secteur nickel</title>
<path fill="none" stroke="darkgrey" stroke-width="3.03" d="M379.01,-383.75C358.54,-358.92 316.56,-308.02 296.28,-283.43"/>
</g>
<!-- économie&#45;&#45;nature -->
<g id="edge51" class="edge">
<title>économie&#45;&#45;nature</title>
<path fill="none" stroke="darkgrey" stroke-width="2.26" d="M373.58,-392.15C340.53,-380.93 268.71,-356.54 238.37,-346.24"/>
</g>
<!-- économie&#45;&#45;exploitation minière -->
<g id="edge52" class="edge">
<title>économie&#45;&#45;exploitation minière</title>
<path fill="none" stroke="darkgrey" stroke-width="1.42" d="M372.92,-401.14C347.14,-405.71 300.23,-414.01 279.02,-417.77"/>
</g>
<!-- économie&#45;&#45;alternative au développement -->
<g id="edge53" class="edge">
<title>économie&#45;&#45;alternative au développement</title>
<path fill="none" stroke="darkgrey" stroke-width="1.01" d="M406.48,-389.11C460.85,-358.4 639.04,-257.77 665.19,-243.01"/>
</g>
<!-- économie&#45;&#45;matériel -->
<g id="edge54" class="edge">
<title>économie&#45;&#45;matériel</title>
<path fill="none" stroke="darkgrey" stroke-width="1.78" d="M394.46,-415.72C398.11,-433.15 403.61,-459.43 406.99,-475.59"/>
</g>
<!-- économie&#45;&#45;industrie -->
<g id="edge55" class="edge">
<title>économie&#45;&#45;industrie</title>
<path fill="none" stroke="darkgrey" stroke-width="2.18" d="M377.49,-385.55C364.88,-373.73 346.03,-356.06 333.44,-344.25"/>
</g>
<!-- économie&#45;&#45;échange commercial -->
<g id="edge56" class="edge">
<title>économie&#45;&#45;échange commercial</title>
<path fill="none" stroke="darkgrey" stroke-width="1.2" d="M377.83,-410.78C357.09,-431.33 317.25,-470.81 303.04,-484.89"/>
</g>
<!-- nickel&#45;&#45;ressource minière -->
<g id="edge57" class="edge">
<title>nickel&#45;&#45;ressource minière</title>
<path fill="none" stroke="darkgrey" stroke-width="5.19" d="M355.29,-234.32C345.82,-229.07 336.14,-223.71 329.23,-219.88"/>
</g>
<!-- nickel&#45;&#45;politique -->
<g id="edge58" class="edge">
<title>nickel&#45;&#45;politique</title>
<path fill="none" stroke="darkgrey" stroke-width="2.29" d="M422.61,-245.41C434.13,-243.27 446.27,-241.02 455.32,-239.34"/>
</g>
<!-- nickel&#45;&#45;secteur nickel -->
<g id="edge59" class="edge">
<title>nickel&#45;&#45;secteur nickel</title>
<path fill="none" stroke="darkgrey" stroke-width="6.04" d="M351.66,-258.07C335.14,-260.9 316.22,-264.14 302.73,-266.45"/>
</g>
<!-- nickel&#45;&#45;nature -->
<g id="edge60" class="edge">
<title>nickel&#45;&#45;nature</title>
<path fill="none" stroke="darkgrey" stroke-width="5.44" d="M355.4,-269.46C319.5,-289.2 262.77,-320.39 237.4,-334.34"/>
</g>
<!-- nickel&#45;&#45;exploitation minière -->
<g id="edge61" class="edge">
<title>nickel&#45;&#45;exploitation minière</title>
<path fill="none" stroke="darkgrey" stroke-width="7.28" d="M366.16,-281.59C338.65,-320.33 291.91,-386.16 274.71,-410.39"/>
</g>
<!-- nickel&#45;&#45;alternative au développement -->
<g id="edge62" class="edge">
<title>nickel&#45;&#45;alternative au développement</title>
<path fill="none" stroke="darkgrey" stroke-width="1.2" d="M423.36,-250.6C492.79,-247.94 640.03,-242.28 664.83,-241.33"/>
</g>
<!-- nickel&#45;&#45;matériel -->
<g id="edge63" class="edge">
<title>nickel&#45;&#45;matériel</title>
<path fill="none" stroke="darkgrey" stroke-width="5.25" d="M390.61,-287.88C395.72,-341.11 405.07,-438.67 408.6,-475.42"/>
</g>
<!-- nickel&#45;&#45;industrie -->
<g id="edge65" class="edge">
<title>nickel&#45;&#45;industrie</title>
<path fill="none" stroke="darkgrey" stroke-width="7.95" d="M363.76,-279.93C353.05,-292.71 340.83,-307.29 332.07,-317.75"/>
</g>
<!-- nickel&#45;&#45;foncier -->
<g id="edge64" class="edge">
<title>nickel&#45;&#45;foncier</title>
<path fill="none" stroke="darkgrey" stroke-width="1.74" d="M352.15,-242.6C297.43,-227.91 195.79,-200.64 175.71,-195.25"/>
</g>
<!-- nickel&#45;&#45;échange commercial -->
<g id="edge66" class="edge">
<title>nickel&#45;&#45;échange commercial</title>
<path fill="none" stroke="darkgrey" stroke-width="2.26" d="M374.47,-285.85C353.08,-342.84 311.17,-454.53 300.41,-483.2"/>
</g>
<!-- ressource minière&#45;&#45;politique -->
<g id="edge67" class="edge">
<title>ressource minière&#45;&#45;politique</title>
<path fill="none" stroke="darkgrey" stroke-width="2.71" d="M330.73,-216.13C357.61,-220.1 425.36,-230.14 455.17,-234.55"/>
</g>
<!-- ressource minière&#45;&#45;secteur nickel -->
<g id="edge68" class="edge">
<title>ressource minière&#45;&#45;secteur nickel</title>
<path fill="none" stroke="darkgrey" stroke-width="1.54" d="M313.41,-224.04C308.22,-232.3 300.62,-244.37 294.57,-254"/>
</g>
<!-- ressource minière&#45;&#45;nature -->
<g id="edge69" class="edge">
<title>ressource minière&#45;&#45;nature</title>
<path fill="none" stroke="darkgrey" stroke-width="1.5" d="M312.61,-223.59C295.75,-246.12 252.19,-304.33 233.32,-329.55"/>
</g>
<!-- ressource minière&#45;&#45;exploitation minière -->
<g id="edge70" class="edge">
<title>ressource minière&#45;&#45;exploitation minière</title>
<path fill="none" stroke="darkgrey" stroke-width="2.14" d="M316.75,-225.2C307.92,-260.5 279.85,-372.7 270.88,-408.57"/>
</g>
<!-- ressource minière&#45;&#45;matériel -->
<g id="edge71" class="edge">
<title>ressource minière&#45;&#45;matériel</title>
<path fill="none" stroke="darkgrey" stroke-width="1.55" d="M322.88,-224.92C336.87,-267.48 389.5,-427.61 405.41,-476.01"/>
</g>
<!-- ressource minière&#45;&#45;industrie -->
<g id="edge72" class="edge">
<title>ressource minière&#45;&#45;industrie</title>
<path fill="none" stroke="darkgrey" stroke-width="2.13" d="M319.52,-225.71C319.66,-246.03 319.95,-289 320.11,-313.59"/>
</g>
<!-- ressource minière&#45;&#45;échange commercial -->
<g id="edge73" class="edge">
<title>ressource minière&#45;&#45;échange commercial</title>
<path fill="none" stroke="darkgrey" stroke-width="1.13" d="M318.57,-225.6C314.97,-271.52 301.34,-445.39 298.41,-482.88"/>
</g>
<!-- politique&#45;&#45;secteur nickel -->
<g id="edge74" class="edge">
<title>politique&#45;&#45;secteur nickel</title>
<path fill="none" stroke="darkgrey" stroke-width="2.81" d="M455.11,-239.26C421.67,-245.2 339.23,-259.85 302.71,-266.34"/>
</g>
<!-- politique&#45;&#45;nature -->
<g id="edge75" class="edge">
<title>politique&#45;&#45;nature</title>
<path fill="none" stroke="darkgrey" stroke-width="1.03" d="M456.08,-242.47C413.21,-260.8 280.69,-317.43 237.88,-335.73"/>
</g>
<!-- politique&#45;&#45;exploitation minière -->
<g id="edge77" class="edge">
<title>politique&#45;&#45;exploitation minière</title>
<path fill="none" stroke="darkgrey" stroke-width="1.41" d="M458.78,-246.53C422.97,-279.05 308.88,-382.66 276.65,-411.93"/>
</g>
<!-- politique&#45;&#45;alternative au développement -->
<g id="edge78" class="edge">
<title>politique&#45;&#45;alternative au développement</title>
<path fill="none" stroke="darkgrey" stroke-width="1.08" d="M484.23,-237.02C525.66,-237.96 642.28,-240.6 664.66,-241.11"/>
</g>
<!-- politique&#45;&#45;industrie -->
<g id="edge80" class="edge">
<title>politique&#45;&#45;industrie</title>
<path fill="none" stroke="darkgrey" stroke-width="2.37" d="M457.14,-244.64C429.93,-261.98 365.34,-303.14 335.65,-322.05"/>
</g>
<!-- politique&#45;&#45;société néo&#45;calédonienne -->
<g id="edge76" class="edge">
<title>politique&#45;&#45;société néo&#45;calédonienne</title>
<path fill="none" stroke="darkgrey" stroke-width="1.08" d="M480.23,-246.8C522.43,-286.99 677.09,-434.27 699.81,-455.92"/>
</g>
<!-- politique&#45;&#45;échange commercial -->
<g id="edge81" class="edge">
<title>politique&#45;&#45;échange commercial</title>
<path fill="none" stroke="darkgrey" stroke-width="1.17" d="M461.33,-248.91C430.64,-294.18 324.04,-451.4 301.89,-484.06"/>
</g>
<!-- politique&#45;&#45;relation politique -->
<g id="edge79" class="edge">
<title>politique&#45;&#45;relation politique</title>
<path fill="none" stroke="darkgrey" stroke-width="1.41" d="M473.71,-222.62C488.06,-173.36 535.34,-11.09 538.28,-0.99"/>
</g>
<!-- secteur nickel&#45;&#45;nature -->
<g id="edge82" class="edge">
<title>secteur nickel&#45;&#45;nature</title>
<path fill="none" stroke="darkgrey" stroke-width="1.53" d="M273.16,-283.39C261.77,-296.96 244.65,-317.36 234.01,-330.03"/>
</g>
<!-- secteur nickel&#45;&#45;exploitation minière -->
<g id="edge83" class="edge">
<title>secteur nickel&#45;&#45;exploitation minière</title>
<path fill="none" stroke="darkgrey" stroke-width="1.77" d="M282.79,-287.63C279.28,-319.15 272.16,-383.16 269.31,-408.76"/>
</g>
<!-- secteur nickel&#45;&#45;matériel -->
<g id="edge84" class="edge">
<title>secteur nickel&#45;&#45;matériel</title>
<path fill="none" stroke="darkgrey" stroke-width="2.12" d="M293.81,-285.37C317.53,-327.13 381.36,-439.53 402.83,-477.34"/>
</g>
<!-- secteur nickel&#45;&#45;industrie -->
<g id="edge86" class="edge">
<title>secteur nickel&#45;&#45;industrie</title>
<path fill="none" stroke="darkgrey" stroke-width="4.96" d="M293.75,-285.25C299.08,-294.63 305.83,-306.51 311.18,-315.93"/>
</g>
<!-- secteur nickel&#45;&#45;foncier -->
<g id="edge85" class="edge">
<title>secteur nickel&#45;&#45;foncier</title>
<path fill="none" stroke="darkgrey" stroke-width="1.5" d="M269.62,-259.37C242.73,-241.41 188.32,-205.07 175.13,-196.27"/>
</g>
<!-- secteur nickel&#45;&#45;échange commercial -->
<g id="edge87" class="edge">
<title>secteur nickel&#45;&#45;échange commercial</title>
<path fill="none" stroke="darkgrey" stroke-width="1.67" d="M285.88,-287.56C288.58,-333.23 295.59,-451.95 297.41,-482.68"/>
</g>
<!-- nature&#45;&#45;exploitation minière -->
<g id="edge88" class="edge">
<title>nature&#45;&#45;exploitation minière</title>
<path fill="none" stroke="darkgrey" stroke-width="1.14" d="M231.6,-354.41C240.33,-370.03 254.83,-395.96 262.66,-409.99"/>
</g>
<!-- nature&#45;&#45;matériel -->
<g id="edge89" class="edge">
<title>nature&#45;&#45;matériel</title>
<path fill="none" stroke="darkgrey" stroke-width="2.88" d="M235.72,-350.56C268.77,-377 364.87,-453.86 398.34,-480.63"/>
</g>
<!-- nature&#45;&#45;industrie -->
<g id="edge91" class="edge">
<title>nature&#45;&#45;industrie</title>
<path fill="none" stroke="darkgrey" stroke-width="2.17" d="M238.94,-340.03C255.91,-338.33 283.96,-335.52 302.27,-333.68"/>
</g>
<!-- nature&#45;&#45;foncier -->
<g id="edge90" class="edge">
<title>nature&#45;&#45;foncier</title>
<path fill="none" stroke="darkgrey" stroke-width="1.1" d="M219.48,-327.65C208.01,-295.3 179.95,-216.15 173.53,-198.04"/>
</g>
<!-- exploitation minière&#45;&#45;matériel -->
<g id="edge93" class="edge">
<title>exploitation minière&#45;&#45;matériel</title>
<path fill="none" stroke="darkgrey" stroke-width="2.36" d="M278.3,-424.76C303.46,-437.21 368.48,-469.4 396.65,-483.35"/>
</g>
<!-- exploitation minière&#45;&#45;industrie -->
<g id="edge94" class="edge">
<title>exploitation minière&#45;&#45;industrie</title>
<path fill="none" stroke="darkgrey" stroke-width="2.61" d="M273.87,-409.97C282.83,-394.87 300.17,-365.68 310.92,-347.57"/>
</g>
<!-- exploitation minière&#45;&#45;échange commercial -->
<g id="edge95" class="edge">
<title>exploitation minière&#45;&#45;échange commercial</title>
<path fill="none" stroke="darkgrey" stroke-width="1.47" d="M272.48,-430.08C278.69,-444.75 289.85,-471.14 295.05,-483.42"/>
</g>
<!-- matériel&#45;&#45;industrie -->
<g id="edge96" class="edge">
<title>matériel&#45;&#45;industrie</title>
<path fill="none" stroke="darkgrey" stroke-width="3.82" d="M402.8,-477.28C386.58,-448.71 347.16,-379.3 329.3,-347.84"/>
</g>
<!-- matériel&#45;&#45;échange commercial -->
<g id="edge97" class="edge">
<title>matériel&#45;&#45;échange commercial</title>
<path fill="none" stroke="darkgrey" stroke-width="1.35" d="M395.33,-489.96C370.99,-489.98 323.12,-490.01 305.01,-490.03"/>
</g>
<!-- industrie&#45;&#45;échange commercial -->
<g id="edge99" class="edge">
<title>industrie&#45;&#45;échange commercial</title>
<path fill="none" stroke="darkgrey" stroke-width="1.26" d="M317.71,-349.71C312.79,-384.45 302.12,-459.81 298.83,-483.06"/>
</g>
<!-- société néo&#45;calédonienne&#45;&#45;matériel -->
<g id="edge92" class="edge">
<title>société néo&#45;calédonienne&#45;&#45;matériel</title>
<path fill="none" stroke="darkgrey" stroke-width="1.14" d="M698.91,-458.97C669.93,-462.08 479.1,-482.54 424.54,-488.39"/>
</g>
<!-- foncier&#45;&#45;industrie -->
<g id="edge98" class="edge">
<title>foncier&#45;&#45;industrie</title>
<path fill="none" stroke="darkgrey" stroke-width="1.75" d="M174.78,-196.7C190.44,-211.26 273.51,-288.45 306.61,-319.21"/>
</g>
<!-- pollution -->
<g id="node1" class="node">
<title>pollution</title>
<ellipse fill="#a52c60" stroke="white" stroke-width="0" cx="503.71" cy="-298.06" rx="18" ry="18"/>
<text text-anchor="middle" x="528.71" y="-322.06" font-family="Helvetica,sans-Serif" font-size="20.00" fill="#4d4d4d">pollution</text>
</g>
<!-- dégradation environnementale -->
<g id="node2" class="node">
<title>dégradation environnementale</title>
<ellipse fill="#f1ec6d" stroke="white" stroke-width="0" cx="443.5" cy="-342.47" rx="32.5" ry="32.5"/>
<text text-anchor="middle" x="205.5" y="-288.85" font-family="Helvetica,sans-Serif" font-size="26.40" fill="#4d4d4d">dégradation environnementale</text>
</g>
<!-- nouvelle&#45;calédonie -->
<g id="node3" class="node">
<title>nouvelle&#45;calédonie</title>
<ellipse fill="#10092d" stroke="white" stroke-width="0" cx="531.72" cy="-139.69" rx="3.5" ry="3.5"/>
<text text-anchor="middle" x="464.22" y="-147.31" font-family="Helvetica,sans-Serif" font-size="13.60" fill="#4d4d4d">nouvelle&#45;calédonie</text>
</g>
<!-- travail -->
<g id="node4" class="node">
<title>travail</title>
<ellipse fill="#e8602d" stroke="white" stroke-width="0" cx="491.13" cy="-397.01" rx="21.5" ry="21.5"/>
<text text-anchor="middle" x="434.63" y="-425.23" font-family="Helvetica,sans-Serif" font-size="21.60" fill="#4d4d4d">travail</text>
</g>
<!-- économie -->
<g id="node5" class="node">
<title>économie</title>
<ellipse fill="#b1325a" stroke="white" stroke-width="0" cx="390.75" cy="-397.99" rx="18" ry="18"/>
<text text-anchor="middle" x="324.25" y="-385.99" font-family="Helvetica,sans-Serif" font-size="20.00" fill="#4d4d4d">économie</text>
</g>
<!-- nickel -->
<g id="node6" class="node">
<title>nickel</title>
<ellipse fill="#fcffa4" stroke="white" stroke-width="0" cx="387.17" cy="-251.99" rx="36" ry="36"/>
<text text-anchor="middle" x="392.17" y="-193.59" font-family="Helvetica,sans-Serif" font-size="28.00" fill="#4d4d4d">nickel</text>
</g>
<!-- ressource minière -->
<g id="node7" class="node">
<title>ressource minière</title>
<ellipse fill="#5d126e" stroke="white" stroke-width="0" cx="319.44" cy="-214.45" rx="11" ry="11"/>
<text text-anchor="middle" x="232.44" y="-230.01" font-family="Helvetica,sans-Serif" font-size="16.80" fill="#4d4d4d">ressource minière</text>
</g>
<!-- politique -->
<g id="node8" class="node">
<title>politique</title>
<ellipse fill="#932667" stroke="white" stroke-width="0" cx="469.61" cy="-236.69" rx="14.5" ry="14.5"/>
<text text-anchor="middle" x="496.11" y="-256.47" font-family="Helvetica,sans-Serif" font-size="18.40" fill="#4d4d4d">politique</text>
</g>
<!-- secteur nickel -->
<g id="node9" class="node">
<title>secteur nickel</title>
<ellipse fill="#ad305d" stroke="white" stroke-width="0" cx="284.81" cy="-269.52" rx="18" ry="18"/>
<text text-anchor="middle" x="197.31" y="-257.52" font-family="Helvetica,sans-Serif" font-size="20.00" fill="#4d4d4d">secteur nickel</text>
</g>
<!-- nature -->
<g id="node10" class="node">
<title>nature</title>
<ellipse fill="#7d1e6d" stroke="white" stroke-width="0" cx="224.38" cy="-341.49" rx="14.5" ry="14.5"/>
<text text-anchor="middle" x="178.88" y="-361.27" font-family="Helvetica,sans-Serif" font-size="18.40" fill="#4d4d4d">nature</text>
</g>
<!-- exploitation minière -->
<g id="node11" class="node">
<title>exploitation minière</title>
<ellipse fill="#71196e" stroke="white" stroke-width="0" cx="268.09" cy="-419.7" rx="11" ry="11"/>
<text text-anchor="middle" x="172.59" y="-435.26" font-family="Helvetica,sans-Serif" font-size="16.80" fill="#4d4d4d">exploitation minière</text>
</g>
<!-- alternative au développement -->
<g id="node12" class="node">
<title>alternative au développement</title>
<ellipse fill="#08051d" stroke="white" stroke-width="0" cx="668.41" cy="-241.19" rx="3.5" ry="3.5"/>
<text text-anchor="middle" x="767.91" y="-248.81" font-family="Helvetica,sans-Serif" font-size="13.60" fill="#4d4d4d">alternative au développement</text>
</g>
<!-- matériel -->
<g id="node13" class="node">
<title>matériel</title>
<ellipse fill="#88226a" stroke="white" stroke-width="0" cx="409.99" cy="-489.95" rx="14.5" ry="14.5"/>
<text text-anchor="middle" x="356.49" y="-509.73" font-family="Helvetica,sans-Serif" font-size="18.40" fill="#4d4d4d">matériel</text>
</g>
<!-- industrie -->
<g id="node14" class="node">
<title>industrie</title>
<ellipse fill="#ab2f5e" stroke="white" stroke-width="0" cx="320.24" cy="-331.88" rx="18" ry="18"/>
<text text-anchor="middle" x="346.24" y="-355.88" font-family="Helvetica,sans-Serif" font-size="20.00" fill="#4d4d4d">industrie</text>
</g>
<!-- société néo&#45;calédonienne -->
<g id="node15" class="node">
<title>société néo&#45;calédonienne</title>
<ellipse fill="#0c0826" stroke="white" stroke-width="0" cx="702.61" cy="-458.58" rx="3.5" ry="3.5"/>
<text text-anchor="middle" x="612.61" y="-466.2" font-family="Helvetica,sans-Serif" font-size="13.60" fill="#4d4d4d">société néo&#45;calédonienne</text>
</g>
<!-- foncier -->
<g id="node16" class="node">
<title>foncier</title>
<ellipse fill="#160b39" stroke="white" stroke-width="0" cx="172.21" cy="-194.31" rx="3.5" ry="3.5"/>
<text text-anchor="middle" x="145.71" y="-201.93" font-family="Helvetica,sans-Serif" font-size="13.60" fill="#4d4d4d">foncier</text>
</g>
<!-- risque -->
<g id="node17" class="node">
<title>risque</title>
<ellipse fill="#000004" stroke="white" stroke-width="0" cx="606.6" cy="-494.96" rx="0.5" ry="0.5"/>
<text text-anchor="middle" x="587.6" y="-498.86" font-family="Helvetica,sans-Serif" font-size="12.00" fill="#4d4d4d">risque</text>
</g>
<!-- échange commercial -->
<g id="node18" class="node">
<title>échange commercial</title>
<ellipse fill="#290b55" stroke="white" stroke-width="0" cx="297.85" cy="-490.03" rx="7" ry="7"/>
<text text-anchor="middle" x="211.85" y="-501.87" font-family="Helvetica,sans-Serif" font-size="15.20" fill="#4d4d4d">échange commercial</text>
</g>
<!-- relation politique -->
<g id="node19" class="node">
<title>relation politique</title>
<ellipse fill="#030210" stroke="white" stroke-width="0" cx="538.43" cy="-0.5" rx="0.5" ry="0.5"/>
<text text-anchor="middle" x="487.93" y="-4.4" font-family="Helvetica,sans-Serif" font-size="12.00" fill="#4d4d4d">relation politique</text>
</g>
</g>
</svg>
