<?xml version="1.0" encoding="UTF-8" standalone="no"?>
<!DOCTYPE svg PUBLIC "-//W3C//DTD SVG 1.1//EN"
 "http://www.w3.org/Graphics/SVG/1.1/DTD/svg11.dtd">
<!-- Generated by graphviz version 2.43.0 (0)
 -->
<!-- Pages: 1 -->
<svg width="420pt" height="284pt"
 viewBox="0.00 0.00 419.65 284.47" xmlns="http://www.w3.org/2000/svg" xmlns:xlink="http://www.w3.org/1999/xlink">
<g id="graph0" class="graph" transform="scale(1 1) rotate(0) translate(4 280.47)">
<polygon fill="white" stroke="transparent" points="-4,4 -4,-280.47 415.65,-280.47 415.65,4 -4,4"/>
<!-- fin&#45;&#45;pollution -->
<g id="edge1" class="edge">
<title>fin&#45;&#45;pollution</title>
<path fill="none" stroke="darkgrey" stroke-width="1.01" d="M329.79,-193.72C329.54,-183.85 329.07,-165.58 328.7,-151.04"/>
</g>
<!-- fin&#45;&#45;impact environnemental -->
<g id="edge2" class="edge">
<title>fin&#45;&#45;impact environnemental</title>
<path fill="none" stroke="darkgrey" stroke-width="1.31" d="M325.67,-194.96C318.58,-185.34 304.02,-165.55 291.58,-148.64"/>
</g>
<!-- pollution&#45;&#45;impact environnemental -->
<g id="edge8" class="edge">
<title>pollution&#45;&#45;impact environnemental</title>
<path fill="none" stroke="darkgrey" stroke-width="10" d="M306.85,-125.8C306.46,-125.74 306.07,-125.67 305.68,-125.6"/>
</g>
<!-- pollution&#45;&#45;économie du pays -->
<g id="edge10" class="edge">
<title>pollution&#45;&#45;économie du pays</title>
<path fill="none" stroke="darkgrey" stroke-width="1.94" d="M333.36,-108.55C340.27,-80.77 351.97,-33.7 355.3,-20.34"/>
</g>
<!-- pollution&#45;&#45;amélioration environnementale -->
<g id="edge11" class="edge">
<title>pollution&#45;&#45;amélioration environnementale</title>
<path fill="none" stroke="darkgrey" d="M307.46,-122.69C280.79,-113.9 235.44,-98.96 215.04,-92.24"/>
</g>
<!-- pollution&#45;&#45;épuisement de la ressource -->
<g id="edge7" class="edge">
<title>pollution&#45;&#45;épuisement de la ressource</title>
<path fill="none" stroke="darkgrey" stroke-width="2.83" d="M311.36,-143C281.01,-167.41 218.83,-217.42 204.67,-228.81"/>
</g>
<!-- pollution&#45;&#45;développement -->
<g id="edge9" class="edge">
<title>pollution&#45;&#45;développement</title>
<path fill="none" stroke="darkgrey" stroke-width="1.05" d="M323.02,-150.52C315.02,-183.31 300.09,-244.55 296.26,-260.23"/>
</g>
<!-- impact environnemental&#45;&#45;économie du pays -->
<g id="edge15" class="edge">
<title>impact environnemental&#45;&#45;économie du pays</title>
<path fill="none" stroke="darkgrey" stroke-width="3.03" d="M293.38,-91.61C315.1,-65.71 345.38,-29.6 353.89,-19.45"/>
</g>
<!-- impact environnemental&#45;&#45;amélioration environnementale -->
<g id="edge16" class="edge">
<title>impact environnemental&#45;&#45;amélioration environnementale</title>
<path fill="none" stroke="darkgrey" stroke-width="1.72" d="M237.31,-104.09C229.12,-100.27 220.93,-96.44 214.78,-93.57"/>
</g>
<!-- impact environnemental&#45;&#45;développement -->
<g id="edge14" class="edge">
<title>impact environnemental&#45;&#45;développement</title>
<path fill="none" stroke="darkgrey" stroke-width="2.2" d="M276.32,-155.14C282.76,-191.93 292.19,-245.86 294.71,-260.3"/>
</g>
<!-- impact environnemental&#45;&#45;conflit -->
<g id="edge13" class="edge">
<title>impact environnemental&#45;&#45;conflit</title>
<path fill="none" stroke="darkgrey" stroke-width="2.93" d="M250.57,-88.79C229.52,-55.76 198.5,-7.06 194.71,-1.1"/>
</g>
<!-- emploi&#45;&#45;pollution -->
<g id="edge3" class="edge">
<title>emploi&#45;&#45;pollution</title>
<path fill="none" stroke="darkgrey" stroke-width="4.21" d="M382.52,-133.97C373.02,-133.19 360.48,-132.16 349.84,-131.29"/>
</g>
<!-- emploi&#45;&#45;impact environnemental -->
<g id="edge4" class="edge">
<title>emploi&#45;&#45;impact environnemental</title>
<path fill="none" stroke="darkgrey" stroke-width="4.15" d="M382.57,-133.37C363.99,-131.06 331.24,-127 305.85,-123.85"/>
</g>
<!-- emploi&#45;&#45;économie du pays -->
<g id="edge5" class="edge">
<title>emploi&#45;&#45;économie du pays</title>
<path fill="none" stroke="darkgrey" stroke-width="2.14" d="M392.29,-121.12C382.88,-93.9 362.65,-35.37 357.44,-20.3"/>
</g>
<!-- emploi&#45;&#45;amélioration environnementale -->
<g id="edge6" class="edge">
<title>emploi&#45;&#45;amélioration environnementale</title>
<path fill="none" stroke="darkgrey" stroke-width="2.48" d="M382.99,-131.76C346.15,-122.89 247.95,-99.24 215.28,-91.37"/>
</g>
<!-- amélioration environnementale&#45;&#45;développement durable -->
<g id="edge17" class="edge">
<title>amélioration environnementale&#45;&#45;développement durable</title>
<path fill="none" stroke="darkgrey" stroke-width="1.05" d="M195.22,-94.62C170.72,-109.98 105.97,-150.55 99.95,-154.32"/>
</g>
<!-- épuisement de la ressource&#45;&#45;impact environnemental -->
<g id="edge12" class="edge">
<title>épuisement de la ressource&#45;&#45;impact environnemental</title>
<path fill="none" stroke="darkgrey" stroke-width="3.32" d="M203.73,-227.93C210.62,-216.65 234.14,-178.18 251.23,-150.23"/>
</g>
<!-- fin -->
<g id="node1" class="node">
<title>fin</title>
<ellipse fill="#280b53" stroke="white" stroke-width="0" cx="329.97" cy="-200.82" rx="7" ry="7"/>
<text text-anchor="middle" x="317.47" y="-210.42" font-family="Helvetica,sans-Serif" font-size="8.00" fill="#4d4d4d">fin</text>
</g>
<!-- pollution -->
<g id="node2" class="node">
<title>pollution</title>
<ellipse fill="#d44842" stroke="white" stroke-width="0" cx="328.15" cy="-129.51" rx="21.5" ry="21.5"/>
<text text-anchor="middle" x="325.15" y="-153.61" font-family="Helvetica,sans-Serif" font-size="8.00" fill="#4d4d4d">pollution</text>
</g>
<!-- impact environnemental -->
<g id="node3" class="node">
<title>impact environnemental</title>
<ellipse fill="#fcffa4" stroke="white" stroke-width="0" cx="270.07" cy="-119.41" rx="36" ry="36"/>
<text text-anchor="middle" x="184.07" y="-158.01" font-family="Helvetica,sans-Serif" font-size="8.00" fill="#4d4d4d">impact environnemental</text>
</g>
<!-- emploi -->
<g id="node4" class="node">
<title>emploi</title>
<ellipse fill="#7c1d6d" stroke="white" stroke-width="0" cx="397.15" cy="-135.17" rx="14.5" ry="14.5"/>
<text text-anchor="middle" x="368.65" y="-152.27" font-family="Helvetica,sans-Serif" font-size="8.00" fill="#4d4d4d">emploi</text>
</g>
<!-- économie du pays -->
<g id="node5" class="node">
<title>économie du pays</title>
<ellipse fill="#0c0826" stroke="white" stroke-width="0" cx="356.2" cy="-16.7" rx="3.5" ry="3.5"/>
<text text-anchor="middle" x="314.7" y="-22.8" font-family="Helvetica,sans-Serif" font-size="8.00" fill="#4d4d4d">économie du pays</text>
</g>
<!-- amélioration environnementale -->
<g id="node6" class="node">
<title>amélioration environnementale</title>
<ellipse fill="#771c6d" stroke="white" stroke-width="0" cx="204.54" cy="-88.78" rx="11" ry="11"/>
<text text-anchor="middle" x="129.04" y="-102.38" font-family="Helvetica,sans-Serif" font-size="8.00" fill="#4d4d4d">amélioration environnementale</text>
</g>
<!-- épuisement de la ressource -->
<g id="node7" class="node">
<title>épuisement de la ressource</title>
<ellipse fill="#110a30" stroke="white" stroke-width="0" cx="201.76" cy="-231.15" rx="3.5" ry="3.5"/>
<text text-anchor="middle" x="141.26" y="-237.25" font-family="Helvetica,sans-Serif" font-size="8.00" fill="#4d4d4d">épuisement de la ressource</text>
</g>
<!-- développement -->
<g id="node8" class="node">
<title>développement</title>
<ellipse fill="#09061f" stroke="white" stroke-width="0" cx="295.35" cy="-263.97" rx="3.5" ry="3.5"/>
<text text-anchor="middle" x="259.35" y="-270.07" font-family="Helvetica,sans-Serif" font-size="8.00" fill="#4d4d4d">développement</text>
</g>
<!-- conflit -->
<g id="node9" class="node">
<title>conflit</title>
<ellipse fill="#000004" stroke="white" stroke-width="0" cx="194.32" cy="-0.5" rx="0.5" ry="0.5"/>
<text text-anchor="middle" x="180.82" y="-3.6" font-family="Helvetica,sans-Serif" font-size="8.00" fill="#4d4d4d">conflit</text>
</g>
<!-- développement durable -->
<g id="node10" class="node">
<title>développement durable</title>
<ellipse fill="#02010a" stroke="white" stroke-width="0" cx="99.5" cy="-154.6" rx="0.5" ry="0.5"/>
<text text-anchor="middle" x="49.5" y="-157.7" font-family="Helvetica,sans-Serif" font-size="8.00" fill="#4d4d4d">développement durable</text>
</g>
</g>
</svg>
