<?xml version="1.0" encoding="UTF-8" standalone="no"?>
<!DOCTYPE svg PUBLIC "-//W3C//DTD SVG 1.1//EN"
 "http://www.w3.org/Graphics/SVG/1.1/DTD/svg11.dtd">
<!-- Generated by graphviz version 2.43.0 (0)
 -->
<!-- Pages: 1 -->
<svg width="980pt" height="905pt"
 viewBox="0.00 0.00 980.35 904.68" xmlns="http://www.w3.org/2000/svg" xmlns:xlink="http://www.w3.org/1999/xlink">
<g id="graph0" class="graph" transform="scale(1 1) rotate(0) translate(4 900.68)">
<polygon fill="white" stroke="transparent" points="-4,4 -4,-900.68 976.35,-900.68 976.35,4 -4,4"/>
<!-- pollution&#45;&#45;travail -->
<g id="edge1" class="edge">
<title>pollution&#45;&#45;travail</title>
<path fill="none" stroke="darkgrey" stroke-width="6.76" d="M670.54,-507.25C697.39,-542.25 744.17,-603.23 765.56,-631.12"/>
</g>
<!-- pollution&#45;&#45;richesse -->
<g id="edge2" class="edge">
<title>pollution&#45;&#45;richesse</title>
<path fill="none" stroke="darkgrey" stroke-width="3.98" d="M673.69,-504.19C719.43,-549.69 819.42,-649.13 848.09,-677.65"/>
</g>
<!-- pollution&#45;&#45;destruction -->
<g id="edge3" class="edge">
<title>pollution&#45;&#45;destruction</title>
<path fill="none" stroke="darkgrey" stroke-width="4.48" d="M659.18,-512.5C678.4,-582.2 723.78,-746.73 733.82,-783.11"/>
</g>
<!-- pollution&#45;&#45;argent -->
<g id="edge4" class="edge">
<title>pollution&#45;&#45;argent</title>
<path fill="none" stroke="darkgrey" stroke-width="3.6" d="M679.93,-466.68C733.03,-440.54 842.56,-386.6 876.28,-369.99"/>
</g>
<!-- pollution&#45;&#45;nickel -->
<g id="edge5" class="edge">
<title>pollution&#45;&#45;nickel</title>
<path fill="none" stroke="darkgrey" stroke-width="10" d="M620.36,-493.95C601.91,-501.77 578.29,-511.78 559.28,-519.84"/>
</g>
<!-- pollution&#45;&#45;nature -->
<g id="edge6" class="edge">
<title>pollution&#45;&#45;nature</title>
<path fill="none" stroke="darkgrey" stroke-width="1.17" d="M636.73,-451.64C590.9,-353.6 445.7,-42.99 428.84,-6.93"/>
</g>
<!-- pollution&#45;&#45;montagne -->
<g id="edge7" class="edge">
<title>pollution&#45;&#45;montagne</title>
<path fill="none" stroke="darkgrey" stroke-width="2.67" d="M628.44,-505.13C595.77,-540.59 536.13,-605.31 514.91,-628.33"/>
</g>
<!-- pollution&#45;&#45;camion -->
<g id="edge8" class="edge">
<title>pollution&#45;&#45;camion</title>
<path fill="none" stroke="darkgrey" stroke-width="4.1" d="M637.58,-451.09C637.01,-449.77 636.45,-448.47 635.91,-447.22"/>
</g>
<!-- pollution&#45;&#45;économie -->
<g id="edge9" class="edge">
<title>pollution&#45;&#45;économie</title>
<path fill="none" stroke="darkgrey" stroke-width="8.48" d="M683.12,-481.19C689.76,-481.19 696.59,-481.2 702.73,-481.2"/>
</g>
<!-- pollution&#45;&#45;environnement -->
<g id="edge10" class="edge">
<title>pollution&#45;&#45;environnement</title>
<path fill="none" stroke="darkgrey" stroke-width="6" d="M662.28,-511.51C672.77,-538.61 687.76,-577.33 696.28,-599.36"/>
</g>
<!-- pollution&#45;&#45;emploi -->
<g id="edge11" class="edge">
<title>pollution&#45;&#45;emploi</title>
<path fill="none" stroke="darkgrey" stroke-width="8.84" d="M680.24,-494.77C706.49,-506.79 743.82,-523.89 765.03,-533.61"/>
</g>
<!-- pollution&#45;&#45;industrie -->
<g id="edge12" class="edge">
<title>pollution&#45;&#45;industrie</title>
<path fill="none" stroke="darkgrey" stroke-width="1.05" d="M621.15,-467.1C542.55,-429.49 331.46,-328.5 302.17,-314.49"/>
</g>
<!-- pollution&#45;&#45;terre -->
<g id="edge13" class="edge">
<title>pollution&#45;&#45;terre</title>
<path fill="none" stroke="darkgrey" stroke-width="2.09" d="M649.46,-513.82C647.56,-571.83 643.69,-689.62 642.7,-719.89"/>
</g>
<!-- pollution&#45;&#45;usine -->
<g id="edge14" class="edge">
<title>pollution&#45;&#45;usine</title>
<path fill="none" stroke="darkgrey" stroke-width="3.48" d="M672.39,-456.54C688.4,-438.51 709.16,-415.13 720.08,-402.84"/>
</g>
<!-- pollution&#45;&#45;érosion -->
<g id="edge15" class="edge">
<title>pollution&#45;&#45;érosion</title>
<path fill="none" stroke="darkgrey" stroke-width="1.53" d="M655.25,-448.86C668.48,-358.28 705.3,-106.25 710.13,-73.18"/>
</g>
<!-- pollution&#45;&#45;exploitation -->
<g id="edge16" class="edge">
<title>pollution&#45;&#45;exploitation</title>
<path fill="none" stroke="darkgrey" stroke-width="2.5" d="M682.77,-485.35C725.71,-490.94 799.47,-500.55 827.16,-504.15"/>
</g>
<!-- pollution&#45;&#45;sln -->
<g id="edge17" class="edge">
<title>pollution&#45;&#45;sln</title>
<path fill="none" stroke="darkgrey" stroke-width="1.72" d="M618.31,-476.58C573.7,-470.24 495.39,-459.12 466.5,-455.01"/>
</g>
<!-- pollution&#45;&#45;ressource -->
<g id="edge18" class="edge">
<title>pollution&#45;&#45;ressource</title>
<path fill="none" stroke="darkgrey" stroke-width="2.16" d="M680.26,-494.62C732.42,-518.25 838.04,-566.09 871.29,-581.15"/>
</g>
<!-- pollution&#45;&#45;conflit -->
<g id="edge19" class="edge">
<title>pollution&#45;&#45;conflit</title>
<path fill="none" stroke="darkgrey" stroke-width="3.4" d="M683.04,-484.06C754.36,-490.44 921.17,-505.36 958.05,-508.66"/>
</g>
<!-- pollution&#45;&#45;développement -->
<g id="edge20" class="edge">
<title>pollution&#45;&#45;développement</title>
<path fill="none" stroke="darkgrey" stroke-width="3.01" d="M668.13,-508.58C722.35,-593.1 884.43,-845.76 904.48,-877.01"/>
</g>
<!-- pollution&#45;&#45;minerai -->
<g id="edge21" class="edge">
<title>pollution&#45;&#45;minerai</title>
<path fill="none" stroke="darkgrey" stroke-width="3.39" d="M641.37,-512.42C633.83,-538.16 623.58,-573.13 618.48,-590.56"/>
</g>
<!-- pollution&#45;&#45;déforestation -->
<g id="edge22" class="edge">
<title>pollution&#45;&#45;déforestation</title>
<path fill="none" stroke="darkgrey" stroke-width="2.23" d="M620.07,-493.03C547.24,-521.41 367.08,-591.62 339.37,-602.41"/>
</g>
<!-- pollution&#45;&#45;exportation -->
<g id="edge23" class="edge">
<title>pollution&#45;&#45;exportation</title>
<path fill="none" stroke="darkgrey" stroke-width="1.03" d="M641.65,-449.54C627.13,-397.81 599.35,-298.87 593.85,-279.31"/>
</g>
<!-- travail&#45;&#45;richesse -->
<g id="edge24" class="edge">
<title>travail&#45;&#45;richesse</title>
<path fill="none" stroke="darkgrey" stroke-width="2.58" d="M793.21,-654.02C809.14,-662 832.81,-673.86 846.04,-680.49"/>
</g>
<!-- travail&#45;&#45;destruction -->
<g id="edge25" class="edge">
<title>travail&#45;&#45;destruction</title>
<path fill="none" stroke="darkgrey" stroke-width="1.65" d="M771.88,-663.24C762.8,-695.22 743.85,-761.96 737.75,-783.47"/>
</g>
<!-- travail&#45;&#45;argent -->
<g id="edge26" class="edge">
<title>travail&#45;&#45;argent</title>
<path fill="none" stroke="darkgrey" stroke-width="1.44" d="M783.51,-628.67C804.05,-576.04 865.8,-417.79 882.3,-375.5"/>
</g>
<!-- travail&#45;&#45;nickel -->
<g id="edge27" class="edge">
<title>travail&#45;&#45;nickel</title>
<path fill="none" stroke="darkgrey" stroke-width="4.43" d="M760.36,-638.47C719.58,-620.3 613.26,-572.93 558.91,-548.72"/>
</g>
<!-- travail&#45;&#45;montagne -->
<g id="edge28" class="edge">
<title>travail&#45;&#45;montagne</title>
<path fill="none" stroke="darkgrey" stroke-width="1.07" d="M758.71,-645.2C706.99,-643.46 559.67,-638.51 518.17,-637.11"/>
</g>
<!-- travail&#45;&#45;camion -->
<g id="edge29" class="edge">
<title>travail&#45;&#45;camion</title>
<path fill="none" stroke="darkgrey" stroke-width="1.81" d="M766.51,-630.89C738.84,-590.91 663.44,-481.91 638.33,-445.62"/>
</g>
<!-- travail&#45;&#45;économie -->
<g id="edge30" class="edge">
<title>travail&#45;&#45;économie</title>
<path fill="none" stroke="darkgrey" stroke-width="3.5" d="M771.31,-628.51C761.57,-597.97 741.38,-534.65 730.92,-501.88"/>
</g>
<!-- travail&#45;&#45;environnement -->
<g id="edge31" class="edge">
<title>travail&#45;&#45;environnement</title>
<path fill="none" stroke="darkgrey" stroke-width="3.37" d="M760.05,-639.14C748.03,-634.36 731.91,-627.95 719.85,-623.16"/>
</g>
<!-- travail&#45;&#45;terre -->
<g id="edge32" class="edge">
<title>travail&#45;&#45;terre</title>
<path fill="none" stroke="darkgrey" stroke-width="1.98" d="M761.41,-655.13C731.91,-672.98 668.61,-711.28 648.63,-723.37"/>
</g>
<!-- travail&#45;&#45;exploitation -->
<g id="edge33" class="edge">
<title>travail&#45;&#45;exploitation</title>
<path fill="none" stroke="darkgrey" stroke-width="1.85" d="M784.09,-629.17C796.9,-599.86 823.11,-539.85 833.6,-515.84"/>
</g>
<!-- travail&#45;&#45;ressource -->
<g id="edge34" class="edge">
<title>travail&#45;&#45;ressource</title>
<path fill="none" stroke="darkgrey" stroke-width="1.08" d="M792.73,-636.69C814.71,-624.1 853.68,-601.77 871.8,-591.39"/>
</g>
<!-- travail&#45;&#45;conflit -->
<g id="edge35" class="edge">
<title>travail&#45;&#45;conflit</title>
<path fill="none" stroke="darkgrey" stroke-width="1.53" d="M791.62,-635.1C830.33,-607.07 933.43,-532.42 959.37,-513.64"/>
</g>
<!-- travail&#45;&#45;minerai -->
<g id="edge36" class="edge">
<title>travail&#45;&#45;minerai</title>
<path fill="none" stroke="darkgrey" stroke-width="1.18" d="M759.23,-640.96C725.71,-631.74 653.59,-611.88 626.18,-604.34"/>
</g>
<!-- richesse&#45;&#45;destruction -->
<g id="edge37" class="edge">
<title>richesse&#45;&#45;destruction</title>
<path fill="none" stroke="darkgrey" stroke-width="1.37" d="M847.28,-692.98C824.04,-713.27 760.66,-768.62 741.42,-785.42"/>
</g>
<!-- richesse&#45;&#45;nickel -->
<g id="edge38" class="edge">
<title>richesse&#45;&#45;nickel</title>
<path fill="none" stroke="darkgrey" stroke-width="3.37" d="M845.68,-680.74C802.16,-660.77 631.45,-582.44 558.84,-549.13"/>
</g>
<!-- richesse&#45;&#45;économie -->
<g id="edge39" class="edge">
<title>richesse&#45;&#45;économie</title>
<path fill="none" stroke="darkgrey" stroke-width="2.43" d="M849.93,-676.14C829.61,-644.61 763.16,-541.48 736.03,-499.37"/>
</g>
<!-- richesse&#45;&#45;environnement -->
<g id="edge40" class="edge">
<title>richesse&#45;&#45;environnement</title>
<path fill="none" stroke="darkgrey" stroke-width="2.91" d="M845.88,-680.91C820.08,-669.27 751.26,-638.23 719.44,-623.88"/>
</g>
<!-- richesse&#45;&#45;emploi -->
<g id="edge41" class="edge">
<title>richesse&#45;&#45;emploi</title>
<path fill="none" stroke="darkgrey" stroke-width="2.21" d="M850.8,-675.52C838.18,-651.07 805.48,-587.7 789.92,-557.54"/>
</g>
<!-- richesse&#45;&#45;terre -->
<g id="edge42" class="edge">
<title>richesse&#45;&#45;terre</title>
<path fill="none" stroke="darkgrey" stroke-width="1.39" d="M845.04,-687.56C806.98,-694.99 680.43,-719.69 649.38,-725.75"/>
</g>
<!-- richesse&#45;&#45;usine -->
<g id="edge43" class="edge">
<title>richesse&#45;&#45;usine</title>
<path fill="none" stroke="darkgrey" stroke-width="1.12" d="M851.35,-675.08C831.39,-629.82 751.91,-449.68 732.06,-404.66"/>
</g>
<!-- richesse&#45;&#45;exploitation -->
<g id="edge44" class="edge">
<title>richesse&#45;&#45;exploitation</title>
<path fill="none" stroke="darkgrey" stroke-width="1.4" d="M854.83,-674.46C851.66,-642.43 842.42,-549.3 839.2,-516.87"/>
</g>
<!-- richesse&#45;&#45;ressource -->
<g id="edge45" class="edge">
<title>richesse&#45;&#45;ressource</title>
<path fill="none" stroke="darkgrey" stroke-width="1.03" d="M858.67,-674.78C863.57,-655.7 873.81,-615.93 878.76,-596.69"/>
</g>
<!-- richesse&#45;&#45;conflit -->
<g id="edge46" class="edge">
<title>richesse&#45;&#45;conflit</title>
<path fill="none" stroke="darkgrey" stroke-width="1.27" d="M861.81,-675.97C881.61,-644.1 945.48,-541.29 961.62,-515.31"/>
</g>
<!-- richesse&#45;&#45;développement -->
<g id="edge47" class="edge">
<title>richesse&#45;&#45;développement</title>
<path fill="none" stroke="darkgrey" stroke-width="1.12" d="M858.71,-696.19C868.33,-733.19 899.78,-854.25 905.59,-876.62"/>
</g>
<!-- destruction&#45;&#45;nickel -->
<g id="edge48" class="edge">
<title>destruction&#45;&#45;nickel</title>
<path fill="none" stroke="darkgrey" stroke-width="2.29" d="M731.02,-784.48C706.86,-754.97 597.35,-621.27 548.97,-562.2"/>
</g>
<!-- destruction&#45;&#45;économie -->
<g id="edge49" class="edge">
<title>destruction&#45;&#45;économie</title>
<path fill="none" stroke="darkgrey" stroke-width="1.6" d="M735.54,-783.28C734.14,-745.45 727.47,-565.61 725.14,-502.87"/>
</g>
<!-- destruction&#45;&#45;environnement -->
<g id="edge50" class="edge">
<title>destruction&#45;&#45;environnement</title>
<path fill="none" stroke="darkgrey" stroke-width="1.35" d="M734.47,-783.29C729.71,-758.12 713.41,-672.06 706.28,-634.35"/>
</g>
<!-- destruction&#45;&#45;emploi -->
<g id="edge51" class="edge">
<title>destruction&#45;&#45;emploi</title>
<path fill="none" stroke="darkgrey" stroke-width="2.13" d="M737.07,-783.39C743.11,-750.46 768.99,-609.18 778.19,-558.94"/>
</g>
<!-- argent&#45;&#45;nickel -->
<g id="edge52" class="edge">
<title>argent&#45;&#45;nickel</title>
<path fill="none" stroke="darkgrey" stroke-width="4.03" d="M876.37,-369.71C830.14,-391.38 636.39,-482.2 558.5,-518.71"/>
</g>
<!-- argent&#45;&#45;camion -->
<g id="edge53" class="edge">
<title>argent&#45;&#45;camion</title>
<path fill="none" stroke="darkgrey" stroke-width="1.05" d="M875.7,-367.88C835.06,-378.77 690.08,-417.61 644.15,-429.92"/>
</g>
<!-- argent&#45;&#45;emploi -->
<g id="edge54" class="edge">
<title>argent&#45;&#45;emploi</title>
<path fill="none" stroke="darkgrey" stroke-width="2.44" d="M880.75,-374.49C863.59,-403.28 811.93,-489.99 790.71,-525.6"/>
</g>
<!-- argent&#45;&#45;conflit -->
<g id="edge55" class="edge">
<title>argent&#45;&#45;conflit</title>
<path fill="none" stroke="darkgrey" stroke-width="1.02" d="M891.82,-374.94C907.01,-402.7 949.65,-480.62 961.98,-503.14"/>
</g>
<!-- nickel&#45;&#45;montagne -->
<g id="edge57" class="edge">
<title>nickel&#45;&#45;montagne</title>
<path fill="none" stroke="darkgrey" stroke-width="4.17" d="M519.38,-569.64C515.8,-589.35 511.59,-612.47 509.16,-625.78"/>
</g>
<!-- nickel&#45;&#45;camion -->
<g id="edge58" class="edge">
<title>nickel&#45;&#45;camion</title>
<path fill="none" stroke="darkgrey" stroke-width="6.52" d="M551.9,-508.94C573.72,-487.94 603.77,-459.01 619.5,-443.87"/>
</g>
<!-- nickel&#45;&#45;économie -->
<g id="edge59" class="edge">
<title>nickel&#45;&#45;économie</title>
<path fill="none" stroke="darkgrey" stroke-width="7.71" d="M560.9,-524.68C602.18,-513.71 669.45,-495.82 703.37,-486.8"/>
</g>
<!-- nickel&#45;&#45;environnement -->
<g id="edge60" class="edge">
<title>nickel&#45;&#45;environnement</title>
<path fill="none" stroke="darkgrey" stroke-width="5.75" d="M558.75,-549.31C596.55,-566.9 657.09,-595.09 686.2,-608.64"/>
</g>
<!-- nickel&#45;&#45;emploi -->
<g id="edge63" class="edge">
<title>nickel&#45;&#45;emploi</title>
<path fill="none" stroke="darkgrey" stroke-width="6.88" d="M561.95,-535C617.4,-536.55 721.55,-539.46 763.38,-540.62"/>
</g>
<!-- nickel&#45;&#45;industrie -->
<g id="edge64" class="edge">
<title>nickel&#45;&#45;industrie</title>
<path fill="none" stroke="darkgrey" stroke-width="1.11" d="M499.82,-508.63C445.07,-455.31 321.42,-334.92 301.51,-315.52"/>
</g>
<!-- nickel&#45;&#45;terre -->
<g id="edge65" class="edge">
<title>nickel&#45;&#45;terre</title>
<path fill="none" stroke="darkgrey" stroke-width="2.93" d="M544.61,-565.02C572.8,-611.72 624.37,-697.14 638.69,-720.85"/>
</g>
<!-- nickel&#45;&#45;usine -->
<g id="edge66" class="edge">
<title>nickel&#45;&#45;usine</title>
<path fill="none" stroke="darkgrey" stroke-width="5.28" d="M555.63,-513.4C602.09,-481.25 689.5,-420.76 718.17,-400.92"/>
</g>
<!-- nickel&#45;&#45;exploitation -->
<g id="edge67" class="edge">
<title>nickel&#45;&#45;exploitation</title>
<path fill="none" stroke="darkgrey" stroke-width="3.1" d="M561.99,-530.71C632.3,-524.31 784.37,-510.46 826.85,-506.6"/>
</g>
<!-- nickel&#45;&#45;sln -->
<g id="edge68" class="edge">
<title>nickel&#45;&#45;sln</title>
<path fill="none" stroke="darkgrey" stroke-width="5.5" d="M502.01,-506.72C488.27,-491.02 471.94,-472.36 462.71,-461.81"/>
</g>
<!-- nickel&#45;&#45;ressource -->
<g id="edge69" class="edge">
<title>nickel&#45;&#45;ressource</title>
<path fill="none" stroke="darkgrey" stroke-width="2.55" d="M561.61,-539.2C640,-550.62 823.82,-577.39 870.58,-584.2"/>
</g>
<!-- nickel&#45;&#45;conflit -->
<g id="edge70" class="edge">
<title>nickel&#45;&#45;conflit</title>
<path fill="none" stroke="darkgrey" stroke-width="1.81" d="M561.84,-531.98C657.17,-526.62 912.17,-512.3 958.19,-509.71"/>
</g>
<!-- nickel&#45;&#45;minerai -->
<g id="edge71" class="edge">
<title>nickel&#45;&#45;minerai</title>
<path fill="none" stroke="darkgrey" stroke-width="5.44" d="M554.67,-555.68C572.64,-569.21 594.57,-585.72 606.51,-594.72"/>
</g>
<!-- nickel&#45;&#45;déforestation -->
<g id="edge72" class="edge">
<title>nickel&#45;&#45;déforestation</title>
<path fill="none" stroke="darkgrey" stroke-width="2.16" d="M491.89,-546.48C443.19,-564.37 357.4,-595.87 339.22,-602.55"/>
</g>
<!-- nickel&#45;&#45;exportation -->
<g id="edge74" class="edge">
<title>nickel&#45;&#45;exportation</title>
<path fill="none" stroke="darkgrey" stroke-width="2.29" d="M534.98,-498.92C551.66,-434.69 585.95,-302.63 591.98,-279.42"/>
</g>
<!-- nickel&#45;&#45;extraction -->
<g id="edge56" class="edge">
<title>nickel&#45;&#45;extraction</title>
<path fill="none" stroke="darkgrey" stroke-width="1.98" d="M492.6,-548.48C391.95,-592.28 95.57,-721.26 61.18,-736.22"/>
</g>
<!-- nickel&#45;&#45;caillou -->
<g id="edge61" class="edge">
<title>nickel&#45;&#45;caillou</title>
<path fill="none" stroke="darkgrey" stroke-width="2.07" d="M545.25,-503.34C599.42,-417.63 749.71,-179.84 768.28,-150.45"/>
</g>
<!-- nickel&#45;&#45;terre rouge -->
<g id="edge62" class="edge">
<title>nickel&#45;&#45;terre rouge</title>
<path fill="none" stroke="darkgrey" stroke-width="2.8" d="M500.22,-559.46C424.12,-635.01 203.23,-854.3 175.91,-881.42"/>
</g>
<!-- nickel&#45;&#45;goro -->
<g id="edge73" class="edge">
<title>nickel&#45;&#45;goro</title>
<path fill="none" stroke="darkgrey" stroke-width="2.34" d="M493.1,-518.31C406.92,-477.06 178.54,-367.74 148.59,-353.41"/>
</g>
<!-- nickel&#45;&#45;or -->
<g id="edge75" class="edge">
<title>nickel&#45;&#45;or</title>
<path fill="none" stroke="darkgrey" stroke-width="1.01" d="M489.56,-532.41C374.78,-527.37 26.36,-512.09 10.09,-511.38"/>
</g>
<!-- montagne&#45;&#45;camion -->
<g id="edge76" class="edge">
<title>montagne&#45;&#45;camion</title>
<path fill="none" stroke="darkgrey" stroke-width="2" d="M512.93,-627.22C533.01,-594.05 599.87,-483.59 622.51,-446.19"/>
</g>
<!-- montagne&#45;&#45;économie -->
<g id="edge77" class="edge">
<title>montagne&#45;&#45;économie</title>
<path fill="none" stroke="darkgrey" stroke-width="1.38" d="M516.22,-630.26C549.13,-606.69 662.79,-525.3 706.77,-493.8"/>
</g>
<!-- montagne&#45;&#45;terre -->
<g id="edge78" class="edge">
<title>montagne&#45;&#45;terre</title>
<path fill="none" stroke="darkgrey" stroke-width="1.6" d="M516.47,-642.95C542.38,-660.26 614.89,-708.69 636.38,-723.05"/>
</g>
<!-- montagne&#45;&#45;usine -->
<g id="edge79" class="edge">
<title>montagne&#45;&#45;usine</title>
<path fill="none" stroke="darkgrey" stroke-width="1.27" d="M514.75,-628.4C548.66,-591.12 686.15,-439.95 719.99,-402.74"/>
</g>
<!-- montagne&#45;&#45;sln -->
<g id="edge80" class="edge">
<title>montagne&#45;&#45;sln</title>
<path fill="none" stroke="darkgrey" stroke-width="1.01" d="M504.16,-626.09C495.01,-593.69 467.56,-496.55 458.4,-464.11"/>
</g>
<!-- montagne&#45;&#45;minerai -->
<g id="edge81" class="edge">
<title>montagne&#45;&#45;minerai</title>
<path fill="none" stroke="darkgrey" stroke-width="1.22" d="M517.93,-633.22C538.66,-626.43 583.9,-611.63 604.59,-604.85"/>
</g>
<!-- montagne&#45;&#45;déforestation -->
<g id="edge82" class="edge">
<title>montagne&#45;&#45;déforestation</title>
<path fill="none" stroke="darkgrey" stroke-width="1.05" d="M496.19,-634.63C462.2,-628.1 359.8,-608.43 339.35,-604.5"/>
</g>
<!-- camion&#45;&#45;économie -->
<g id="edge83" class="edge">
<title>camion&#45;&#45;économie</title>
<path fill="none" stroke="darkgrey" stroke-width="1.67" d="M643.18,-440.3C659.17,-448.36 686.34,-462.06 704.79,-471.37"/>
</g>
<!-- camion&#45;&#45;environnement -->
<g id="edge84" class="edge">
<title>camion&#45;&#45;environnement</title>
<path fill="none" stroke="darkgrey" stroke-width="1.85" d="M635.55,-447.42C648.68,-480.37 681.93,-563.82 696.2,-599.65"/>
</g>
<!-- camion&#45;&#45;emploi -->
<g id="edge86" class="edge">
<title>camion&#45;&#45;emploi</title>
<path fill="none" stroke="darkgrey" d="M641.96,-442.12C669.28,-461.51 736.53,-509.25 766.56,-530.56"/>
</g>
<!-- camion&#45;&#45;terre -->
<g id="edge87" class="edge">
<title>camion&#45;&#45;terre</title>
<path fill="none" stroke="darkgrey" stroke-width="1.58" d="M630.69,-448.24C632.92,-500.97 640.51,-680.97 642.15,-719.72"/>
</g>
<!-- camion&#45;&#45;usine -->
<g id="edge88" class="edge">
<title>camion&#45;&#45;usine</title>
<path fill="none" stroke="darkgrey" stroke-width="2.83" d="M643.63,-428.23C663.3,-420.31 699.33,-405.79 717.09,-398.64"/>
</g>
<!-- camion&#45;&#45;exploitation -->
<g id="edge89" class="edge">
<title>camion&#45;&#45;exploitation</title>
<path fill="none" stroke="darkgrey" stroke-width="1.04" d="M644.05,-438.51C683.04,-451.99 792.43,-489.8 827.28,-501.84"/>
</g>
<!-- camion&#45;&#45;sln -->
<g id="edge90" class="edge">
<title>camion&#45;&#45;sln</title>
<path fill="none" stroke="darkgrey" stroke-width="1.7" d="M615.48,-435.34C581.37,-439.19 497,-448.73 466.56,-452.17"/>
</g>
<!-- camion&#45;&#45;ressource -->
<g id="edge91" class="edge">
<title>camion&#45;&#45;ressource</title>
<path fill="none" stroke="darkgrey" stroke-width="1.17" d="M642.55,-441.23C686.45,-467.79 833.31,-556.62 872.1,-580.08"/>
</g>
<!-- camion&#45;&#45;minerai -->
<g id="edge92" class="edge">
<title>camion&#45;&#45;minerai</title>
<path fill="none" stroke="darkgrey" stroke-width="2.3" d="M628.79,-448.27C625.89,-481.25 618.87,-560.98 616.29,-590.29"/>
</g>
<!-- camion&#45;&#45;déforestation -->
<g id="edge93" class="edge">
<title>camion&#45;&#45;déforestation</title>
<path fill="none" stroke="darkgrey" stroke-width="1.01" d="M617.43,-441C565.06,-471.27 366.62,-585.98 338.98,-601.96"/>
</g>
<!-- camion&#45;&#45;caillou -->
<g id="edge85" class="edge">
<title>camion&#45;&#45;caillou</title>
<path fill="none" stroke="darkgrey" stroke-width="1.42" d="M636.46,-420.64C661.84,-368.81 754.83,-178.81 768.49,-150.89"/>
</g>
<!-- économie&#45;&#45;environnement -->
<g id="edge94" class="edge">
<title>économie&#45;&#45;environnement</title>
<path fill="none" stroke="darkgrey" stroke-width="7.3" d="M720.94,-502.64C716.73,-529.15 709.64,-573.8 705.72,-598.54"/>
</g>
<!-- économie&#45;&#45;emploi -->
<g id="edge95" class="edge">
<title>économie&#45;&#45;emploi</title>
<path fill="none" stroke="darkgrey" stroke-width="6.38" d="M739.34,-496.96C748.47,-506.53 759.99,-518.62 768.67,-527.73"/>
</g>
<!-- économie&#45;&#45;terre -->
<g id="edge96" class="edge">
<title>économie&#45;&#45;terre</title>
<path fill="none" stroke="darkgrey" stroke-width="1.36" d="M717.5,-501.76C700.2,-553.7 655.35,-688.41 644.74,-720.28"/>
</g>
<!-- économie&#45;&#45;usine -->
<g id="edge97" class="edge">
<title>économie&#45;&#45;usine</title>
<path fill="none" stroke="darkgrey" stroke-width="1.85" d="M725.15,-459.32C725.78,-442.25 726.63,-419.23 727.13,-405.7"/>
</g>
<!-- économie&#45;&#45;érosion -->
<g id="edge98" class="edge">
<title>économie&#45;&#45;érosion</title>
<path fill="none" stroke="darkgrey" stroke-width="1.15" d="M723.62,-459.67C720.99,-380.6 711.97,-109.17 710.78,-73.47"/>
</g>
<!-- économie&#45;&#45;exploitation -->
<g id="edge99" class="edge">
<title>économie&#45;&#45;exploitation</title>
<path fill="none" stroke="darkgrey" stroke-width="2.16" d="M745.46,-485.75C769.62,-490.92 808.25,-499.19 827.06,-503.22"/>
</g>
<!-- économie&#45;&#45;sln -->
<g id="edge100" class="edge">
<title>économie&#45;&#45;sln</title>
<path fill="none" stroke="darkgrey" stroke-width="2.4" d="M702.78,-478.99C648.43,-473.38 507.24,-458.79 466.53,-454.58"/>
</g>
<!-- économie&#45;&#45;ressource -->
<g id="edge101" class="edge">
<title>économie&#45;&#45;ressource</title>
<path fill="none" stroke="darkgrey" stroke-width="1.44" d="M742.37,-493.22C775.93,-515.54 846.84,-562.71 872.25,-579.61"/>
</g>
<!-- économie&#45;&#45;conflit -->
<g id="edge102" class="edge">
<title>économie&#45;&#45;conflit</title>
<path fill="none" stroke="darkgrey" stroke-width="2.58" d="M745.72,-483.71C797.34,-489.73 926.78,-504.81 958.34,-508.49"/>
</g>
<!-- économie&#45;&#45;minerai -->
<g id="edge103" class="edge">
<title>économie&#45;&#45;minerai</title>
<path fill="none" stroke="darkgrey" stroke-width="1.49" d="M709.63,-497.42C686.04,-523.42 640.55,-573.53 622.73,-593.17"/>
</g>
<!-- économie&#45;&#45;exportation -->
<g id="edge104" class="edge">
<title>économie&#45;&#45;exportation</title>
<path fill="none" stroke="darkgrey" stroke-width="1.09" d="M712.67,-463C683.52,-417.46 608.84,-300.8 595.09,-279.32"/>
</g>
<!-- environnement&#45;&#45;emploi -->
<g id="edge105" class="edge">
<title>environnement&#45;&#45;emploi</title>
<path fill="none" stroke="darkgrey" stroke-width="4.34" d="M716.21,-603.64C730.75,-589.71 753.86,-567.56 768.32,-553.71"/>
</g>
<!-- environnement&#45;&#45;terre -->
<g id="edge106" class="edge">
<title>environnement&#45;&#45;terre</title>
<path fill="none" stroke="darkgrey" stroke-width="1.23" d="M694.22,-632.27C680.72,-657.02 655.21,-703.75 645.94,-720.73"/>
</g>
<!-- environnement&#45;&#45;usine -->
<g id="edge107" class="edge">
<title>environnement&#45;&#45;usine</title>
<path fill="none" stroke="darkgrey" stroke-width="1.53" d="M704.9,-598.24C709.82,-553.93 722.34,-441.28 726.31,-405.51"/>
</g>
<!-- environnement&#45;&#45;exploitation -->
<g id="edge108" class="edge">
<title>environnement&#45;&#45;exploitation</title>
<path fill="none" stroke="darkgrey" stroke-width="1.42" d="M716.84,-604.96C744.77,-582.07 806.8,-531.22 829.53,-512.59"/>
</g>
<!-- environnement&#45;&#45;sln -->
<g id="edge109" class="edge">
<title>environnement&#45;&#45;sln</title>
<path fill="none" stroke="darkgrey" stroke-width="1.26" d="M687.77,-606.46C641.38,-575.91 501.9,-484.06 464.62,-459.52"/>
</g>
<!-- environnement&#45;&#45;ressource -->
<g id="edge110" class="edge">
<title>environnement&#45;&#45;ressource</title>
<path fill="none" stroke="darkgrey" stroke-width="1.32" d="M720.67,-613.36C757.39,-607.07 840.65,-592.81 870.58,-587.68"/>
</g>
<!-- environnement&#45;&#45;développement -->
<g id="edge111" class="edge">
<title>environnement&#45;&#45;développement</title>
<path fill="none" stroke="darkgrey" stroke-width="1.56" d="M714.12,-630.97C753.64,-682.16 884.88,-852.17 904.15,-877.12"/>
</g>
<!-- environnement&#45;&#45;exportation -->
<g id="edge112" class="edge">
<title>environnement&#45;&#45;exportation</title>
<path fill="none" stroke="darkgrey" stroke-width="1.48" d="M697.27,-599.05C676.44,-534.54 604.13,-310.67 594.06,-279.51"/>
</g>
<!-- emploi&#45;&#45;usine -->
<g id="edge113" class="edge">
<title>emploi&#45;&#45;usine</title>
<path fill="none" stroke="darkgrey" stroke-width="1.42" d="M775.16,-524.01C763.89,-493.33 740.55,-429.83 731.37,-404.85"/>
</g>
<!-- emploi&#45;&#45;exploitation -->
<g id="edge114" class="edge">
<title>emploi&#45;&#45;exploitation</title>
<path fill="none" stroke="darkgrey" stroke-width="1.09" d="M796.93,-531.41C807.01,-525.08 819.86,-517.02 828.49,-511.6"/>
</g>
<!-- emploi&#45;&#45;sln -->
<g id="edge115" class="edge">
<title>emploi&#45;&#45;sln</title>
<path fill="none" stroke="darkgrey" stroke-width="1.62" d="M763.92,-536.41C704.79,-520.51 513.74,-469.13 466.18,-456.34"/>
</g>
<!-- emploi&#45;&#45;ressource -->
<g id="edge116" class="edge">
<title>emploi&#45;&#45;ressource</title>
<path fill="none" stroke="darkgrey" stroke-width="1.29" d="M797.98,-548.51C818.86,-557.82 854.15,-573.57 871.42,-581.28"/>
</g>
<!-- emploi&#45;&#45;conflit -->
<g id="edge117" class="edge">
<title>emploi&#45;&#45;conflit</title>
<path fill="none" stroke="darkgrey" stroke-width="2.93" d="M799.42,-538.02C839.01,-531.17 932.3,-515.03 958.44,-510.51"/>
</g>
<!-- terre&#45;&#45;exploitation -->
<g id="edge118" class="edge">
<title>terre&#45;&#45;exploitation</title>
<path fill="none" stroke="darkgrey" stroke-width="1.39" d="M647.3,-721.63C673.54,-691.91 798.83,-550.02 830.7,-513.94"/>
</g>
<!-- usine&#45;&#45;exploitation -->
<g id="edge119" class="edge">
<title>usine&#45;&#45;exploitation</title>
<path fill="none" stroke="darkgrey" stroke-width="1.3" d="M735.49,-402.42C755.89,-422.93 809.89,-477.23 830.2,-497.65"/>
</g>
<!-- usine&#45;&#45;minerai -->
<g id="edge120" class="edge">
<title>usine&#45;&#45;minerai</title>
<path fill="none" stroke="darkgrey" stroke-width="3.19" d="M722.28,-404.13C703.47,-438.81 639.69,-556.4 620.7,-591.42"/>
</g>
<!-- usine&#45;&#45;exportation -->
<g id="edge121" class="edge">
<title>usine&#45;&#45;exportation</title>
<path fill="none" stroke="darkgrey" stroke-width="1.02" d="M719.12,-387.02C692.64,-363.7 611.85,-292.59 595.72,-278.38"/>
</g>
<!-- exploitation&#45;&#45;ressource -->
<g id="edge122" class="edge">
<title>exploitation&#45;&#45;ressource</title>
<path fill="none" stroke="darkgrey" stroke-width="1.87" d="M843.41,-515.41C851.76,-530.81 867.81,-560.44 876.18,-575.88"/>
</g>
<!-- exploitation&#45;&#45;minerai -->
<g id="edge123" class="edge">
<title>exploitation&#45;&#45;minerai</title>
<path fill="none" stroke="darkgrey" stroke-width="2.35" d="M827.93,-509.94C790.82,-525.89 662.73,-580.96 625.52,-596.95"/>
</g>
<!-- sln&#45;&#45;minerai -->
<g id="edge124" class="edge">
<title>sln&#45;&#45;minerai</title>
<path fill="none" stroke="darkgrey" stroke-width="1.07" d="M463.53,-460.97C490.9,-486.28 579.36,-568.09 606.99,-593.64"/>
</g>
<!-- sln&#45;&#45;goro -->
<g id="edge125" class="edge">
<title>sln&#45;&#45;goro</title>
<path fill="none" stroke="darkgrey" stroke-width="1.27" d="M444.71,-449.93C394.02,-433.33 178.82,-362.82 148.81,-352.99"/>
</g>
<!-- ressource&#45;&#45;minerai -->
<g id="edge126" class="edge">
<title>ressource&#45;&#45;minerai</title>
<path fill="none" stroke="darkgrey" stroke-width="1.47" d="M870.46,-586.45C827.15,-588.98 669.85,-598.16 626.46,-600.69"/>
</g>
<!-- pollution -->
<g id="node1" class="node">
<title>pollution</title>
<ellipse fill="#fac42a" stroke="white" stroke-width="0" cx="650.53" cy="-481.16" rx="32.5" ry="32.5"/>
<text text-anchor="middle" x="599.53" y="-516.26" font-family="Helvetica,sans-Serif" font-size="8.00" fill="#4d4d4d">pollution</text>
</g>
<!-- travail -->
<g id="node2" class="node">
<title>travail</title>
<ellipse fill="#ab2f5e" stroke="white" stroke-width="0" cx="776.82" cy="-645.81" rx="18" ry="18"/>
<text text-anchor="middle" x="745.82" y="-666.41" font-family="Helvetica,sans-Serif" font-size="8.00" fill="#4d4d4d">travail</text>
</g>
<!-- richesse -->
<g id="node3" class="node">
<title>richesse</title>
<ellipse fill="#781c6d" stroke="white" stroke-width="0" cx="855.92" cy="-685.44" rx="11" ry="11"/>
<text text-anchor="middle" x="827.42" y="-699.04" font-family="Helvetica,sans-Serif" font-size="8.00" fill="#4d4d4d">richesse</text>
</g>
<!-- destruction -->
<g id="node4" class="node">
<title>destruction</title>
<ellipse fill="#4a0c6b" stroke="white" stroke-width="0" cx="735.8" cy="-790.32" rx="7" ry="7"/>
<text text-anchor="middle" x="705.3" y="-799.92" font-family="Helvetica,sans-Serif" font-size="8.00" fill="#4d4d4d">destruction</text>
</g>
<!-- argent -->
<g id="node5" class="node">
<title>argent</title>
<ellipse fill="#61136e" stroke="white" stroke-width="0" cx="886.39" cy="-365.02" rx="11" ry="11"/>
<text text-anchor="middle" x="861.39" y="-378.62" font-family="Helvetica,sans-Serif" font-size="8.00" fill="#4d4d4d">argent</text>
</g>
<!-- nickel -->
<g id="node6" class="node">
<title>nickel</title>
<ellipse fill="#fcffa4" stroke="white" stroke-width="0" cx="525.88" cy="-534" rx="36" ry="36"/>
<text text-anchor="middle" x="477.88" y="-572.6" font-family="Helvetica,sans-Serif" font-size="8.00" fill="#4d4d4d">nickel</text>
</g>
<!-- nature -->
<g id="node7" class="node">
<title>nature</title>
<ellipse fill="#07051b" stroke="white" stroke-width="0" cx="427.24" cy="-3.5" rx="3.5" ry="3.5"/>
<text text-anchor="middle" x="410.24" y="-9.6" font-family="Helvetica,sans-Serif" font-size="8.00" fill="#4d4d4d">nature</text>
</g>
<!-- montagne -->
<g id="node8" class="node">
<title>montagne</title>
<ellipse fill="#510e6c" stroke="white" stroke-width="0" cx="507.17" cy="-636.74" rx="11" ry="11"/>
<text text-anchor="middle" x="474.67" y="-650.34" font-family="Helvetica,sans-Serif" font-size="8.00" fill="#4d4d4d">montagne</text>
</g>
<!-- camion -->
<g id="node9" class="node">
<title>camion</title>
<ellipse fill="#7d1e6d" stroke="white" stroke-width="0" cx="630.08" cy="-433.69" rx="14.5" ry="14.5"/>
<text text-anchor="middle" x="600.08" y="-450.79" font-family="Helvetica,sans-Serif" font-size="8.00" fill="#4d4d4d">camion</text>
</g>
<!-- économie -->
<g id="node10" class="node">
<title>économie</title>
<ellipse fill="#de5238" stroke="white" stroke-width="0" cx="724.34" cy="-481.22" rx="21.5" ry="21.5"/>
<text text-anchor="middle" x="723.34" y="-505.32" font-family="Helvetica,sans-Serif" font-size="8.00" fill="#4d4d4d">économie</text>
</g>
<!-- environnement -->
<g id="node11" class="node">
<title>environnement</title>
<ellipse fill="#bc3754" stroke="white" stroke-width="0" cx="702.88" cy="-616.41" rx="18" ry="18"/>
<text text-anchor="middle" x="653.88" y="-637.01" font-family="Helvetica,sans-Serif" font-size="8.00" fill="#4d4d4d">environnement</text>
</g>
<!-- emploi -->
<g id="node12" class="node">
<title>emploi</title>
<ellipse fill="#bd3853" stroke="white" stroke-width="0" cx="781.45" cy="-541.13" rx="18" ry="18"/>
<text text-anchor="middle" x="749.45" y="-561.73" font-family="Helvetica,sans-Serif" font-size="8.00" fill="#4d4d4d">emploi</text>
</g>
<!-- industrie -->
<g id="node13" class="node">
<title>industrie</title>
<ellipse fill="#08051d" stroke="white" stroke-width="0" cx="298.78" cy="-312.86" rx="3.5" ry="3.5"/>
<text text-anchor="middle" x="276.78" y="-318.96" font-family="Helvetica,sans-Serif" font-size="8.00" fill="#4d4d4d">industrie</text>
</g>
<!-- terre -->
<g id="node14" class="node">
<title>terre</title>
<ellipse fill="#4a0c6b" stroke="white" stroke-width="0" cx="642.46" cy="-727.1" rx="7" ry="7"/>
<text text-anchor="middle" x="625.96" y="-736.7" font-family="Helvetica,sans-Serif" font-size="8.00" fill="#4d4d4d">terre</text>
</g>
<!-- usine -->
<g id="node15" class="node">
<title>usine</title>
<ellipse fill="#65156e" stroke="white" stroke-width="0" cx="727.54" cy="-394.43" rx="11" ry="11"/>
<text text-anchor="middle" x="705.04" y="-408.03" font-family="Helvetica,sans-Serif" font-size="8.00" fill="#4d4d4d">usine</text>
</g>
<!-- érosion -->
<g id="node16" class="node">
<title>érosion</title>
<ellipse fill="#07051b" stroke="white" stroke-width="0" cx="710.65" cy="-69.58" rx="3.5" ry="3.5"/>
<text text-anchor="middle" x="691.65" y="-75.68" font-family="Helvetica,sans-Serif" font-size="8.00" fill="#4d4d4d">érosion</text>
</g>
<!-- exploitation -->
<g id="node17" class="node">
<title>exploitation</title>
<ellipse fill="#6a176e" stroke="white" stroke-width="0" cx="838.08" cy="-505.57" rx="11" ry="11"/>
<text text-anchor="middle" x="802.58" y="-497.17" font-family="Helvetica,sans-Serif" font-size="8.00" fill="#4d4d4d">exploitation</text>
</g>
<!-- sln -->
<g id="node18" class="node">
<title>sln</title>
<ellipse fill="#510e6c" stroke="white" stroke-width="0" cx="455.38" cy="-453.43" rx="11" ry="11"/>
<text text-anchor="middle" x="437.88" y="-467.03" font-family="Helvetica,sans-Serif" font-size="8.00" fill="#4d4d4d">sln</text>
</g>
<!-- ressource -->
<g id="node19" class="node">
<title>ressource</title>
<ellipse fill="#59106e" stroke="white" stroke-width="0" cx="881.56" cy="-585.8" rx="11" ry="11"/>
<text text-anchor="middle" x="850.56" y="-599.4" font-family="Helvetica,sans-Serif" font-size="8.00" fill="#4d4d4d">ressource</text>
</g>
<!-- conflit -->
<g id="node20" class="node">
<title>conflit</title>
<ellipse fill="#4a0c6b" stroke="white" stroke-width="0" cx="965.35" cy="-509.31" rx="7" ry="7"/>
<text text-anchor="middle" x="945.35" y="-518.91" font-family="Helvetica,sans-Serif" font-size="8.00" fill="#4d4d4d">conflit</text>
</g>
<!-- développement -->
<g id="node21" class="node">
<title>développement</title>
<ellipse fill="#150b37" stroke="white" stroke-width="0" cx="906.52" cy="-880.19" rx="3.5" ry="3.5"/>
<text text-anchor="middle" x="870.52" y="-886.29" font-family="Helvetica,sans-Serif" font-size="8.00" fill="#4d4d4d">développement</text>
</g>
<!-- minerai -->
<g id="node22" class="node">
<title>minerai</title>
<ellipse fill="#65156e" stroke="white" stroke-width="0" cx="615.31" cy="-601.34" rx="11" ry="11"/>
<text text-anchor="middle" x="588.81" y="-614.94" font-family="Helvetica,sans-Serif" font-size="8.00" fill="#4d4d4d">minerai</text>
</g>
<!-- déforestation -->
<g id="node23" class="node">
<title>déforestation</title>
<ellipse fill="#230c4c" stroke="white" stroke-width="0" cx="335.77" cy="-603.82" rx="3.5" ry="3.5"/>
<text text-anchor="middle" x="304.77" y="-609.92" font-family="Helvetica,sans-Serif" font-size="8.00" fill="#4d4d4d">déforestation</text>
</g>
<!-- exportation -->
<g id="node24" class="node">
<title>exportation</title>
<ellipse fill="#160b39" stroke="white" stroke-width="0" cx="592.9" cy="-275.9" rx="3.5" ry="3.5"/>
<text text-anchor="middle" x="565.9" y="-282" font-family="Helvetica,sans-Serif" font-size="8.00" fill="#4d4d4d">exportation</text>
</g>
<!-- extraction -->
<g id="node25" class="node">
<title>extraction</title>
<ellipse fill="#0a0722" stroke="white" stroke-width="0" cx="57.91" cy="-737.64" rx="3.5" ry="3.5"/>
<text text-anchor="middle" x="33.91" y="-743.74" font-family="Helvetica,sans-Serif" font-size="8.00" fill="#4d4d4d">extraction</text>
</g>
<!-- caillou -->
<g id="node26" class="node">
<title>caillou</title>
<ellipse fill="#1b0c41" stroke="white" stroke-width="0" cx="770.17" cy="-147.46" rx="3.5" ry="3.5"/>
<text text-anchor="middle" x="752.67" y="-153.56" font-family="Helvetica,sans-Serif" font-size="8.00" fill="#4d4d4d">caillou</text>
</g>
<!-- terre rouge -->
<g id="node27" class="node">
<title>terre rouge</title>
<ellipse fill="#110a30" stroke="white" stroke-width="0" cx="173.13" cy="-884.18" rx="3.5" ry="3.5"/>
<text text-anchor="middle" x="147.13" y="-890.28" font-family="Helvetica,sans-Serif" font-size="8.00" fill="#4d4d4d">terre rouge</text>
</g>
<!-- goro -->
<g id="node28" class="node">
<title>goro</title>
<ellipse fill="#08051d" stroke="white" stroke-width="0" cx="145.33" cy="-351.85" rx="3.5" ry="3.5"/>
<text text-anchor="middle" x="132.33" y="-357.95" font-family="Helvetica,sans-Serif" font-size="8.00" fill="#4d4d4d">goro</text>
</g>
<!-- or -->
<g id="node29" class="node">
<title>or</title>
<ellipse fill="#000004" stroke="white" stroke-width="0" cx="9.5" cy="-511.35" rx="0.5" ry="0.5"/>
<text text-anchor="middle" x="4.5" y="-514.45" font-family="Helvetica,sans-Serif" font-size="8.00" fill="#4d4d4d">or</text>
</g>
</g>
</svg>
