<?xml version="1.0" encoding="UTF-8" standalone="no"?>
<!DOCTYPE svg PUBLIC "-//W3C//DTD SVG 1.1//EN"
 "http://www.w3.org/Graphics/SVG/1.1/DTD/svg11.dtd">
<!-- Generated by graphviz version 2.43.0 (0)
 -->
<!-- Pages: 1 -->
<svg width="1243pt" height="991pt"
 viewBox="0.00 0.00 1243.10 991.06" xmlns="http://www.w3.org/2000/svg" xmlns:xlink="http://www.w3.org/1999/xlink">
<g id="graph0" class="graph" transform="scale(1 1) rotate(0) translate(4 987.06)">
<polygon fill="white" stroke="transparent" points="-4,4 -4,-987.06 1239.1,-987.06 1239.1,4 -4,4"/>
<!-- pollution&#45;&#45;emploi -->
<g id="edge1" class="edge">
<title>pollution&#45;&#45;emploi</title>
<path fill="none" stroke="darkgrey" stroke-width="6.59" d="M654.93,-547.67C652.5,-519.38 648.25,-469.84 645.8,-441.32"/>
</g>
<!-- pollution&#45;&#45;économie du pays -->
<g id="edge2" class="edge">
<title>pollution&#45;&#45;économie du pays</title>
<path fill="none" stroke="darkgrey" stroke-width="3.82" d="M637.15,-560.09C602.04,-543.93 529.34,-510.47 499.21,-496.61"/>
</g>
<!-- pollution&#45;&#45;richesse -->
<g id="edge3" class="edge">
<title>pollution&#45;&#45;richesse</title>
<path fill="none" stroke="darkgrey" stroke-width="1.43" d="M641.1,-553.88C622.06,-535.36 590.96,-505.11 578.68,-493.18"/>
</g>
<!-- pollution&#45;&#45;impact environnemental -->
<g id="edge4" class="edge">
<title>pollution&#45;&#45;impact environnemental</title>
<path fill="none" stroke="darkgrey" stroke-width="10" d="M667.84,-550.3C689.71,-513.09 738.7,-429.76 765.52,-384.13"/>
</g>
<!-- pollution&#45;&#45;conflit -->
<g id="edge5" class="edge">
<title>pollution&#45;&#45;conflit</title>
<path fill="none" stroke="darkgrey" stroke-width="1.85" d="M642.31,-585.16C626.47,-602.72 601.69,-630.21 589.32,-643.93"/>
</g>
<!-- pollution&#45;&#45;revenu -->
<g id="edge6" class="edge">
<title>pollution&#45;&#45;revenu</title>
<path fill="none" stroke="darkgrey" stroke-width="1.61" d="M635.03,-570.48C604.79,-572.37 551.58,-575.7 532.31,-576.91"/>
</g>
<!-- pollution&#45;&#45;nickel -->
<g id="edge7" class="edge">
<title>pollution&#45;&#45;nickel</title>
<path fill="none" stroke="darkgrey" stroke-width="3.26" d="M656.57,-547.54C656.17,-505.3 655.29,-412.19 654.89,-369.88"/>
</g>
<!-- pollution&#45;&#45;exploitation -->
<g id="edge8" class="edge">
<title>pollution&#45;&#45;exploitation</title>
<path fill="none" stroke="darkgrey" stroke-width="1.63" d="M657.05,-547.18C657.78,-490.79 659.69,-342.31 660.22,-300.57"/>
</g>
<!-- pollution&#45;&#45;montagne -->
<g id="edge9" class="edge">
<title>pollution&#45;&#45;montagne</title>
<path fill="none" stroke="darkgrey" stroke-width="1.98" d="M677.91,-563.63C718.6,-553.06 806.02,-530.35 831.08,-523.84"/>
</g>
<!-- pollution&#45;&#45;biodiversité -->
<g id="edge10" class="edge">
<title>pollution&#45;&#45;biodiversité</title>
<path fill="none" stroke="darkgrey" stroke-width="1.36" d="M652.91,-590.38C639,-667.06 591.87,-926.7 585.67,-960.84"/>
</g>
<!-- pollution&#45;&#45;développement -->
<g id="edge11" class="edge">
<title>pollution&#45;&#45;développement</title>
<path fill="none" stroke="darkgrey" stroke-width="1.97" d="M674.72,-581.03C710.86,-605.01 790.42,-657.8 807.39,-669.07"/>
</g>
<!-- pollution&#45;&#45;engin -->
<g id="edge12" class="edge">
<title>pollution&#45;&#45;engin</title>
<path fill="none" stroke="darkgrey" stroke-width="2.12" d="M667.73,-550.5C684.73,-521.6 716.85,-466.99 729.87,-444.86"/>
</g>
<!-- pollution&#45;&#45;minerai -->
<g id="edge13" class="edge">
<title>pollution&#45;&#45;minerai</title>
<path fill="none" stroke="darkgrey" stroke-width="1.42" d="M671.64,-553.46C706.57,-516.68 793.32,-425.3 825.88,-391.01"/>
</g>
<!-- pollution&#45;&#45;terre -->
<g id="edge14" class="edge">
<title>pollution&#45;&#45;terre</title>
<path fill="none" stroke="darkgrey" stroke-width="1.68" d="M671.5,-553.44C682.26,-541.98 696.44,-526.89 705.08,-517.69"/>
</g>
<!-- pollution&#45;&#45;usine -->
<g id="edge15" class="edge">
<title>pollution&#45;&#45;usine</title>
<path fill="none" stroke="darkgrey" stroke-width="1.67" d="M643.74,-551.74C609.43,-505.99 517.29,-383.12 488.32,-344.49"/>
</g>
<!-- emploi&#45;&#45;économie du pays -->
<g id="edge17" class="edge">
<title>emploi&#45;&#45;économie du pays</title>
<path fill="none" stroke="darkgrey" stroke-width="5.59" d="M624.2,-428.27C591.56,-442.91 527.12,-471.8 499.16,-484.33"/>
</g>
<!-- emploi&#45;&#45;richesse -->
<g id="edge18" class="edge">
<title>emploi&#45;&#45;richesse</title>
<path fill="none" stroke="darkgrey" stroke-width="2.43" d="M628.28,-434.67C612.55,-450 589.18,-472.78 578.78,-482.92"/>
</g>
<!-- emploi&#45;&#45;impact environnemental -->
<g id="edge19" class="edge">
<title>emploi&#45;&#45;impact environnemental</title>
<path fill="none" stroke="darkgrey" stroke-width="6.73" d="M663.39,-410.16C686.08,-399.36 723.95,-381.34 751.2,-368.37"/>
</g>
<!-- emploi&#45;&#45;conflit -->
<g id="edge20" class="edge">
<title>emploi&#45;&#45;conflit</title>
<path fill="none" stroke="darkgrey" stroke-width="2.88" d="M638.29,-440.51C625.44,-488.65 594.3,-605.32 584.66,-641.45"/>
</g>
<!-- emploi&#45;&#45;revenu -->
<g id="edge21" class="edge">
<title>emploi&#45;&#45;revenu</title>
<path fill="none" stroke="darkgrey" stroke-width="2.91" d="M630.98,-436.63C604.63,-471.65 545.88,-549.74 529.44,-571.58"/>
</g>
<!-- emploi&#45;&#45;nickel -->
<g id="edge22" class="edge">
<title>emploi&#45;&#45;nickel</title>
<path fill="none" stroke="darkgrey" stroke-width="4.53" d="M647.15,-398.06C648.51,-389.05 650.09,-378.58 651.46,-369.57"/>
</g>
<!-- emploi&#45;&#45;exploitation -->
<g id="edge23" class="edge">
<title>emploi&#45;&#45;exploitation</title>
<path fill="none" stroke="darkgrey" stroke-width="1.95" d="M646.63,-397.98C650.17,-370.01 656.23,-322.14 658.96,-300.59"/>
</g>
<!-- emploi&#45;&#45;montagne -->
<g id="edge24" class="edge">
<title>emploi&#45;&#45;montagne</title>
<path fill="none" stroke="darkgrey" stroke-width="1.17" d="M663.23,-429.65C705.59,-452.06 805,-504.65 831.39,-518.61"/>
</g>
<!-- emploi&#45;&#45;développement -->
<g id="edge26" class="edge">
<title>emploi&#45;&#45;développement</title>
<path fill="none" stroke="darkgrey" stroke-width="1.12" d="M655.91,-437.54C691.14,-490.76 792.89,-644.44 808.57,-668.12"/>
</g>
<!-- emploi&#45;&#45;engin -->
<g id="edge27" class="edge">
<title>emploi&#45;&#45;engin</title>
<path fill="none" stroke="darkgrey" stroke-width="1.48" d="M665.17,-423.08C683.79,-426.28 710.08,-430.8 724.69,-433.31"/>
</g>
<!-- emploi&#45;&#45;minerai -->
<g id="edge28" class="edge">
<title>emploi&#45;&#45;minerai</title>
<path fill="none" stroke="darkgrey" stroke-width="1.49" d="M665.11,-414.89C703.72,-406.61 784.84,-389.23 820.75,-381.53"/>
</g>
<!-- emploi&#45;&#45;terre -->
<g id="edge29" class="edge">
<title>emploi&#45;&#45;terre</title>
<path fill="none" stroke="darkgrey" stroke-width="1.68" d="M657.2,-436.79C671.75,-455.8 694.51,-485.54 705.88,-500.39"/>
</g>
<!-- emploi&#45;&#45;usine -->
<g id="edge30" class="edge">
<title>emploi&#45;&#45;usine</title>
<path fill="none" stroke="darkgrey" stroke-width="1.51" d="M624.73,-409.31C590.84,-391.44 521.24,-354.73 492.42,-339.52"/>
</g>
<!-- emploi&#45;&#45;main d’oeuvre -->
<g id="edge25" class="edge">
<title>emploi&#45;&#45;main d’oeuvre</title>
<path fill="none" stroke="darkgrey" stroke-width="1.08" d="M644.7,-397.84C646.71,-342.65 651.93,-199.03 652.81,-174.75"/>
</g>
<!-- emploi&#45;&#45;opérateur minier -->
<g id="edge31" class="edge">
<title>emploi&#45;&#45;opérateur minier</title>
<path fill="none" stroke="darkgrey" stroke-width="1.46" d="M630.05,-402.65C602.62,-369.47 542.31,-296.51 521.52,-271.36"/>
</g>
<!-- emploi&#45;&#45;vision positive de la ressource -->
<g id="edge32" class="edge">
<title>emploi&#45;&#45;vision positive de la ressource</title>
<path fill="none" stroke="darkgrey" stroke-width="1.58" d="M657.18,-402.29C691.2,-358.32 780.38,-243.08 801.48,-215.81"/>
</g>
<!-- emploi&#45;&#45;commerce -->
<g id="edge33" class="edge">
<title>emploi&#45;&#45;commerce</title>
<path fill="none" stroke="darkgrey" stroke-width="1.22" d="M636.61,-399.2C617.87,-347.31 568.74,-211.3 557.11,-179.12"/>
</g>
<!-- économie du pays&#45;&#45;richesse -->
<g id="edge34" class="edge">
<title>économie du pays&#45;&#45;richesse</title>
<path fill="none" stroke="darkgrey" stroke-width="1.34" d="M500.18,-490C519.27,-489.51 552.08,-488.66 566.42,-488.28"/>
</g>
<!-- économie du pays&#45;&#45;impact environnemental -->
<g id="edge35" class="edge">
<title>économie du pays&#45;&#45;impact environnemental</title>
<path fill="none" stroke="darkgrey" stroke-width="6.45" d="M498.88,-484.29C542.96,-463.95 685.97,-397.98 751.1,-367.94"/>
</g>
<!-- économie du pays&#45;&#45;conflit -->
<g id="edge36" class="edge">
<title>économie du pays&#45;&#45;conflit</title>
<path fill="none" stroke="darkgrey" stroke-width="1.87" d="M493.22,-503.08C511.8,-534.4 559.48,-614.75 576.01,-642.62"/>
</g>
<!-- économie du pays&#45;&#45;revenu -->
<g id="edge37" class="edge">
<title>économie du pays&#45;&#45;revenu</title>
<path fill="none" stroke="darkgrey" stroke-width="1.14" d="M491.67,-503.59C500.2,-522.41 515.53,-556.24 522.04,-570.61"/>
</g>
<!-- économie du pays&#45;&#45;nickel -->
<g id="edge38" class="edge">
<title>économie du pays&#45;&#45;nickel</title>
<path fill="none" stroke="darkgrey" stroke-width="2.17" d="M497.03,-480.83C526.19,-456.3 603.83,-390.99 638.07,-362.19"/>
</g>
<!-- économie du pays&#45;&#45;usine -->
<g id="edge39" class="edge">
<title>économie du pays&#45;&#45;usine</title>
<path fill="none" stroke="darkgrey" stroke-width="1.37" d="M485.11,-475.83C483.92,-445.79 481.22,-377.22 480.04,-347.21"/>
</g>
<!-- richesse&#45;&#45;impact environnemental -->
<g id="edge40" class="edge">
<title>richesse&#45;&#45;impact environnemental</title>
<path fill="none" stroke="darkgrey" stroke-width="2.4" d="M579.53,-484.2C604.81,-467.95 702.72,-405.01 753.3,-372.49"/>
</g>
<!-- richesse&#45;&#45;conflit -->
<g id="edge41" class="edge">
<title>richesse&#45;&#45;conflit</title>
<path fill="none" stroke="darkgrey" stroke-width="1.09" d="M573.82,-495.16C575.12,-520.82 579.59,-609.32 581.19,-640.96"/>
</g>
<!-- richesse&#45;&#45;nickel -->
<g id="edge42" class="edge">
<title>richesse&#45;&#45;nickel</title>
<path fill="none" stroke="darkgrey" stroke-width="1.54" d="M577.16,-481.73C588.86,-461.58 625.36,-398.71 643.8,-366.96"/>
</g>
<!-- richesse&#45;&#45;exploitation -->
<g id="edge43" class="edge">
<title>richesse&#45;&#45;exploitation</title>
<path fill="none" stroke="darkgrey" stroke-width="1.14" d="M576.35,-481.49C589.08,-452.42 640.14,-335.73 655.78,-299.98"/>
</g>
<!-- richesse&#45;&#45;terre -->
<g id="edge44" class="edge">
<title>richesse&#45;&#45;terre</title>
<path fill="none" stroke="darkgrey" stroke-width="1.04" d="M580.56,-489.19C603.3,-492.67 674.43,-503.57 701.87,-507.78"/>
</g>
<!-- impact environnemental&#45;&#45;conflit -->
<g id="edge45" class="edge">
<title>impact environnemental&#45;&#45;conflit</title>
<path fill="none" stroke="darkgrey" stroke-width="2.15" d="M763.64,-382.88C719.08,-448.89 614.58,-603.68 588,-643.06"/>
</g>
<!-- impact environnemental&#45;&#45;revenu -->
<g id="edge46" class="edge">
<title>impact environnemental&#45;&#45;revenu</title>
<path fill="none" stroke="darkgrey" stroke-width="1.85" d="M756.74,-376.39C697.55,-427.75 560.05,-547.03 530.68,-572.51"/>
</g>
<!-- impact environnemental&#45;&#45;nickel -->
<g id="edge47" class="edge">
<title>impact environnemental&#45;&#45;nickel</title>
<path fill="none" stroke="darkgrey" stroke-width="4.3" d="M747.94,-351.51C724.93,-350.7 695.86,-349.67 676.34,-348.98"/>
</g>
<!-- impact environnemental&#45;&#45;exploitation -->
<g id="edge49" class="edge">
<title>impact environnemental&#45;&#45;exploitation</title>
<path fill="none" stroke="darkgrey" stroke-width="4" d="M751.8,-336.32C724.77,-322.48 687.81,-303.56 670.32,-294.61"/>
</g>
<!-- impact environnemental&#45;&#45;montagne -->
<g id="edge50" class="edge">
<title>impact environnemental&#45;&#45;montagne</title>
<path fill="none" stroke="darkgrey" stroke-width="2.4" d="M795,-387.45C808.08,-428.46 828.93,-493.87 835.71,-515.14"/>
</g>
<!-- impact environnemental&#45;&#45;développement -->
<g id="edge51" class="edge">
<title>impact environnemental&#45;&#45;développement</title>
<path fill="none" stroke="darkgrey" stroke-width="2.1" d="M786.96,-388.69C793.38,-465.46 808.06,-640.78 810.32,-667.71"/>
</g>
<!-- impact environnemental&#45;&#45;engin -->
<g id="edge52" class="edge">
<title>impact environnemental&#45;&#45;engin</title>
<path fill="none" stroke="darkgrey" stroke-width="2.79" d="M765.66,-383.93C756.99,-398.7 747.24,-415.3 741.25,-425.5"/>
</g>
<!-- impact environnemental&#45;&#45;minerai -->
<g id="edge53" class="edge">
<title>impact environnemental&#45;&#45;minerai</title>
<path fill="none" stroke="darkgrey" stroke-width="1.98" d="M816.93,-367.87C818.64,-368.65 820.31,-369.42 821.93,-370.15"/>
</g>
<!-- impact environnemental&#45;&#45;terre -->
<g id="edge54" class="edge">
<title>impact environnemental&#45;&#45;terre</title>
<path fill="none" stroke="darkgrey" stroke-width="1.79" d="M769.04,-385.63C752.74,-421.52 727.59,-476.91 717.37,-499.43"/>
</g>
<!-- impact environnemental&#45;&#45;usine -->
<g id="edge55" class="edge">
<title>impact environnemental&#45;&#45;usine</title>
<path fill="none" stroke="darkgrey" stroke-width="1.37" d="M747.83,-350.4C680.72,-345.97 539.51,-336.66 493.96,-333.65"/>
</g>
<!-- impact environnemental&#45;&#45;opérateur minier -->
<g id="edge56" class="edge">
<title>impact environnemental&#45;&#45;opérateur minier</title>
<path fill="none" stroke="darkgrey" stroke-width="1.01" d="M749.8,-341.37C688.3,-320.8 561.85,-278.53 524.75,-266.13"/>
</g>
<!-- impact environnemental&#45;&#45;vision positive de la ressource -->
<g id="edge57" class="edge">
<title>impact environnemental&#45;&#45;vision positive de la ressource</title>
<path fill="none" stroke="darkgrey" stroke-width="1.96" d="M789.46,-317.11C794.69,-283.24 802.15,-234.91 804.91,-217"/>
</g>
<!-- impact environnemental&#45;&#45;commerce -->
<g id="edge60" class="edge">
<title>impact environnemental&#45;&#45;commerce</title>
<path fill="none" stroke="darkgrey" stroke-width="1.27" d="M755.37,-330.28C701.34,-287.74 587.21,-197.88 560.36,-176.74"/>
</g>
<!-- impact environnemental&#45;&#45;milieu -->
<g id="edge48" class="edge">
<title>impact environnemental&#45;&#45;milieu</title>
<path fill="none" stroke="darkgrey" stroke-width="1.76" d="M812.24,-330.02C884.77,-271.65 1073.51,-119.77 1099.7,-98.7"/>
</g>
<!-- impact environnemental&#45;&#45;danger -->
<g id="edge58" class="edge">
<title>impact environnemental&#45;&#45;danger</title>
<path fill="none" stroke="darkgrey" stroke-width="1.46" d="M818.16,-340.87C909.54,-309.03 1153.49,-224.03 1168.65,-218.75"/>
</g>
<!-- impact environnemental&#45;&#45;épuisement de la ressource -->
<g id="edge59" class="edge">
<title>impact environnemental&#45;&#45;épuisement de la ressource</title>
<path fill="none" stroke="darkgrey" stroke-width="1.14" d="M820.17,-353.45C913.02,-355.15 1153.32,-359.56 1168.24,-359.84"/>
</g>
<!-- conflit&#45;&#45;revenu -->
<g id="edge61" class="edge">
<title>conflit&#45;&#45;revenu</title>
<path fill="none" stroke="darkgrey" stroke-width="1.25" d="M575.04,-643.41C563.31,-627.9 539.43,-596.31 529.54,-583.23"/>
</g>
<!-- revenu&#45;&#45;nickel -->
<g id="edge62" class="edge">
<title>revenu&#45;&#45;nickel</title>
<path fill="none" stroke="darkgrey" stroke-width="2.15" d="M528.56,-571.23C545.15,-541.91 616.71,-415.37 644.03,-367.06"/>
</g>
<!-- nickel&#45;&#45;exploitation -->
<g id="edge63" class="edge">
<title>nickel&#45;&#45;exploitation</title>
<path fill="none" stroke="darkgrey" stroke-width="2.28" d="M656.77,-326.69C657.63,-317.79 658.59,-307.85 659.3,-300.49"/>
</g>
<!-- nickel&#45;&#45;montagne -->
<g id="edge64" class="edge">
<title>nickel&#45;&#45;montagne</title>
<path fill="none" stroke="darkgrey" stroke-width="1.65" d="M670.31,-363.04C709.08,-399.82 808.33,-493.99 832.54,-516.96"/>
</g>
<!-- nickel&#45;&#45;engin -->
<g id="edge66" class="edge">
<title>nickel&#45;&#45;engin</title>
<path fill="none" stroke="darkgrey" stroke-width="2.94" d="M669.52,-364.16C686.66,-382.6 714.24,-412.26 727.69,-426.71"/>
</g>
<!-- nickel&#45;&#45;minerai -->
<g id="edge67" class="edge">
<title>nickel&#45;&#45;minerai</title>
<path fill="none" stroke="darkgrey" stroke-width="4" d="M676.13,-351.66C712.68,-357.53 786.4,-369.37 820.47,-374.84"/>
</g>
<!-- nickel&#45;&#45;terre -->
<g id="edge68" class="edge">
<title>nickel&#45;&#45;terre</title>
<path fill="none" stroke="darkgrey" stroke-width="2.64" d="M662.05,-368.63C674.57,-403.38 699.59,-472.78 709.06,-499.05"/>
</g>
<!-- nickel&#45;&#45;usine -->
<g id="edge69" class="edge">
<title>nickel&#45;&#45;usine</title>
<path fill="none" stroke="darkgrey" stroke-width="4.01" d="M633.2,-346.31C597.01,-343.11 524.84,-336.71 494,-333.98"/>
</g>
<!-- nickel&#45;&#45;main d’oeuvre -->
<g id="edge65" class="edge">
<title>nickel&#45;&#45;main d’oeuvre</title>
<path fill="none" stroke="darkgrey" stroke-width="1.31" d="M654.47,-326.51C654.06,-284.42 653.17,-194.14 652.98,-174.9"/>
</g>
<!-- nickel&#45;&#45;opérateur minier -->
<g id="edge70" class="edge">
<title>nickel&#45;&#45;opérateur minier</title>
<path fill="none" stroke="darkgrey" stroke-width="3.09" d="M636.04,-336.85C605.76,-318.39 546.96,-282.54 523.9,-268.48"/>
</g>
<!-- nickel&#45;&#45;vision positive de la ressource -->
<g id="edge71" class="edge">
<title>nickel&#45;&#45;vision positive de la ressource</title>
<path fill="none" stroke="darkgrey" stroke-width="1.55" d="M670.59,-333.68C703.98,-303.18 779.98,-233.74 800.7,-214.81"/>
</g>
<!-- nickel&#45;&#45;commerce -->
<g id="edge72" class="edge">
<title>nickel&#45;&#45;commerce</title>
<path fill="none" stroke="darkgrey" stroke-width="1.29" d="M643.98,-329.38C621.79,-290.36 571.75,-202.34 558.11,-178.35"/>
</g>
<!-- nickel&#45;&#45;ressource non&#45;renouvelable -->
<g id="edge73" class="edge">
<title>nickel&#45;&#45;ressource non&#45;renouvelable</title>
<path fill="none" stroke="darkgrey" stroke-width="2.08" d="M665.67,-329.31C699.61,-270.89 801.44,-95.64 816.37,-69.94"/>
</g>
<!-- exploitation&#45;&#45;engin -->
<g id="edge75" class="edge">
<title>exploitation&#45;&#45;engin</title>
<path fill="none" stroke="darkgrey" stroke-width="1.64" d="M665.53,-299.52C679.27,-326.13 716.58,-398.4 730.36,-425.09"/>
</g>
<!-- exploitation&#45;&#45;minerai -->
<g id="edge76" class="edge">
<title>exploitation&#45;&#45;minerai</title>
<path fill="none" stroke="darkgrey" stroke-width="3.12" d="M670.45,-294.5C699.89,-309.08 785.89,-351.68 822.11,-369.62"/>
</g>
<!-- exploitation&#45;&#45;usine -->
<g id="edge77" class="edge">
<title>exploitation&#45;&#45;usine</title>
<path fill="none" stroke="darkgrey" stroke-width="1.76" d="M649.59,-292.08C618.48,-299.51 528.52,-320.99 493.58,-329.33"/>
</g>
<!-- exploitation&#45;&#45;main d’oeuvre -->
<g id="edge74" class="edge">
<title>exploitation&#45;&#45;main d’oeuvre</title>
<path fill="none" stroke="darkgrey" stroke-width="1.04" d="M659.65,-278.17C658.04,-252.5 654.18,-190.94 653.18,-175.04"/>
</g>
<!-- exploitation&#45;&#45;vision positive de la ressource -->
<g id="edge78" class="edge">
<title>exploitation&#45;&#45;vision positive de la ressource</title>
<path fill="none" stroke="darkgrey" stroke-width="1.59" d="M670.37,-284.04C698.39,-268.74 777.04,-225.78 799.77,-213.37"/>
</g>
<!-- exploitation&#45;&#45;commerce -->
<g id="edge79" class="edge">
<title>exploitation&#45;&#45;commerce</title>
<path fill="none" stroke="darkgrey" stroke-width="1.54" d="M652.76,-281.07C632.3,-258.38 576.5,-196.49 559.56,-177.7"/>
</g>
<!-- montagne&#45;&#45;engin -->
<g id="edge80" class="edge">
<title>montagne&#45;&#45;engin</title>
<path fill="none" stroke="darkgrey" stroke-width="1.44" d="M832.42,-517.4C815.56,-503.08 764.53,-459.77 744.13,-442.45"/>
</g>
<!-- montagne&#45;&#45;minerai -->
<g id="edge81" class="edge">
<title>montagne&#45;&#45;minerai</title>
<path fill="none" stroke="darkgrey" stroke-width="1.75" d="M837.95,-514.71C838.04,-492.82 838.29,-427.66 838.42,-395.74"/>
</g>
<!-- montagne&#45;&#45;terre -->
<g id="edge82" class="edge">
<title>montagne&#45;&#45;terre</title>
<path fill="none" stroke="darkgrey" stroke-width="1.43" d="M830.84,-521.35C810.06,-519.26 749.15,-513.12 723.94,-510.58"/>
</g>
<!-- engin&#45;&#45;minerai -->
<g id="edge85" class="edge">
<title>engin&#45;&#45;minerai</title>
<path fill="none" stroke="darkgrey" stroke-width="2.35" d="M745.43,-429.67C763.24,-419.73 800.91,-398.7 822.46,-386.68"/>
</g>
<!-- engin&#45;&#45;terre -->
<g id="edge86" class="edge">
<title>engin&#45;&#45;terre</title>
<path fill="none" stroke="darkgrey" stroke-width="2.01" d="M732.3,-445.82C727.98,-459.94 720.39,-484.72 716.07,-498.83"/>
</g>
<!-- engin&#45;&#45;usine -->
<g id="edge87" class="edge">
<title>engin&#45;&#45;usine</title>
<path fill="none" stroke="darkgrey" stroke-width="1.94" d="M725.21,-431.03C684.87,-414.89 538.31,-356.24 492.95,-338.09"/>
</g>
<!-- minerai&#45;&#45;terre -->
<g id="edge88" class="edge">
<title>minerai&#45;&#45;terre</title>
<path fill="none" stroke="darkgrey" stroke-width="1.59" d="M825.98,-390.84C800.15,-417.91 741.59,-479.3 720.53,-501.37"/>
</g>
<!-- minerai&#45;&#45;usine -->
<g id="edge90" class="edge">
<title>minerai&#45;&#45;usine</title>
<path fill="none" stroke="darkgrey" stroke-width="2.65" d="M820.19,-375.43C757.32,-367.55 550.88,-341.65 494.06,-334.53"/>
</g>
<!-- minerai&#45;&#45;opérateur minier -->
<g id="edge91" class="edge">
<title>minerai&#45;&#45;opérateur minier</title>
<path fill="none" stroke="darkgrey" stroke-width="1.57" d="M821.52,-371.7C763.15,-350.98 571.72,-283.02 524.77,-266.35"/>
</g>
<!-- minerai&#45;&#45;vision positive de la ressource -->
<g id="edge93" class="edge">
<title>minerai&#45;&#45;vision positive de la ressource</title>
<path fill="none" stroke="darkgrey" stroke-width="1.43" d="M835.01,-359.78C827.94,-323.26 812.15,-241.72 807.38,-217.12"/>
</g>
<!-- minerai&#45;&#45;ressource non&#45;renouvelable -->
<g id="edge94" class="edge">
<title>minerai&#45;&#45;ressource non&#45;renouvelable</title>
<path fill="none" stroke="darkgrey" stroke-width="1.7" d="M837.31,-359.67C833.3,-298.23 820.34,-99.53 818.44,-70.37"/>
</g>
<!-- minerai&#45;&#45;description minière -->
<g id="edge89" class="edge">
<title>minerai&#45;&#45;description minière</title>
<path fill="none" stroke="darkgrey" stroke-width="1.09" d="M852.38,-389.91C908.03,-438.74 1113.27,-618.8 1140.28,-642.5"/>
</g>
<!-- minerai&#45;&#45;nouvelle&#45;calédonie -->
<g id="edge92" class="edge">
<title>minerai&#45;&#45;nouvelle&#45;calédonie</title>
<path fill="none" stroke="darkgrey" stroke-width="1.24" d="M855.77,-382.94C930.22,-405.38 1220.54,-492.88 1234.11,-496.97"/>
</g>
<!-- terre&#45;&#45;usine -->
<g id="edge95" class="edge">
<title>terre&#45;&#45;usine</title>
<path fill="none" stroke="darkgrey" stroke-width="1.43" d="M703.95,-502.74C667.9,-475.44 532.28,-372.7 491.28,-341.64"/>
</g>
<!-- usine&#45;&#45;opérateur minier -->
<g id="edge96" class="edge">
<title>usine&#45;&#45;opérateur minier</title>
<path fill="none" stroke="darkgrey" stroke-width="3.39" d="M486.02,-319.52C492.8,-305.88 503.24,-284.89 509.36,-272.58"/>
</g>
<!-- usine&#45;&#45;commerce -->
<g id="edge99" class="edge">
<title>usine&#45;&#45;commerce</title>
<path fill="none" stroke="darkgrey" stroke-width="1.13" d="M485.62,-319.56C500.9,-286.93 540.19,-203.03 551.52,-178.84"/>
</g>
<!-- usine&#45;&#45;localité -->
<g id="edge97" class="edge">
<title>usine&#45;&#45;localité</title>
<path fill="none" stroke="darkgrey" stroke-width="1.84" d="M465.06,-329.22C415.66,-317.3 254.72,-278.46 228.65,-272.17"/>
</g>
<!-- usine&#45;&#45;production énergétique -->
<g id="edge98" class="edge">
<title>usine&#45;&#45;production énergétique</title>
<path fill="none" stroke="darkgrey" d="M467.31,-324.16C409.04,-283.27 160.77,-109.04 149.16,-100.89"/>
</g>
<!-- usine&#45;&#45;métallurgie -->
<g id="edge100" class="edge">
<title>usine&#45;&#45;métallurgie</title>
<path fill="none" stroke="darkgrey" stroke-width="1.09" d="M464.84,-332.17C393.35,-329.6 83.51,-318.47 69.03,-317.95"/>
</g>
<!-- changement climatique&#45;&#45;impact environnemental -->
<g id="edge16" class="edge">
<title>changement climatique&#45;&#45;impact environnemental</title>
<path fill="none" stroke="darkgrey" stroke-width="1.1" d="M1012.86,-1.07C1004.5,-13.91 857.57,-239.67 803.61,-322.58"/>
</g>
<!-- main d’oeuvre&#45;&#45;minerai -->
<g id="edge83" class="edge">
<title>main d’oeuvre&#45;&#45;minerai</title>
<path fill="none" stroke="darkgrey" stroke-width="1.15" d="M655.29,-173.85C673.16,-193.74 788.12,-321.67 826.23,-364.09"/>
</g>
<!-- main d’oeuvre&#45;&#45;usine -->
<g id="edge84" class="edge">
<title>main d’oeuvre&#45;&#45;usine</title>
<path fill="none" stroke="darkgrey" stroke-width="1.47" d="M650.22,-173.78C631.77,-190.95 524.85,-290.46 490.26,-322.65"/>
</g>
<!-- opérateur minier&#45;&#45;localité -->
<g id="edge101" class="edge">
<title>opérateur minier&#45;&#45;localité</title>
<path fill="none" stroke="darkgrey" stroke-width="1.12" d="M502.97,-262.97C453.46,-264.46 257.44,-270.33 228.61,-271.2"/>
</g>
<!-- pollution -->
<g id="node1" class="node">
<title>pollution</title>
<ellipse fill="#d24644" stroke="white" stroke-width="0" cx="656.77" cy="-569.12" rx="21.5" ry="21.5"/>
<text text-anchor="middle" x="588.27" y="-597.34" font-family="Helvetica,sans-Serif" font-size="21.60" fill="#4d4d4d">pollution</text>
</g>
<!-- emploi -->
<g id="node2" class="node">
<title>emploi</title>
<ellipse fill="#e8602d" stroke="white" stroke-width="0" cx="643.92" cy="-419.43" rx="21.5" ry="21.5"/>
<text text-anchor="middle" x="585.42" y="-447.65" font-family="Helvetica,sans-Serif" font-size="21.60" fill="#4d4d4d">emploi</text>
</g>
<!-- économie du pays -->
<g id="node3" class="node">
<title>économie du pays</title>
<ellipse fill="#85216b" stroke="white" stroke-width="0" cx="485.68" cy="-490.38" rx="14.5" ry="14.5"/>
<text text-anchor="middle" x="385.68" y="-510.16" font-family="Helvetica,sans-Serif" font-size="18.40" fill="#4d4d4d">économie du pays</text>
</g>
<!-- richesse -->
<g id="node4" class="node">
<title>richesse</title>
<ellipse fill="#380962" stroke="white" stroke-width="0" cx="573.46" cy="-488.1" rx="7" ry="7"/>
<text text-anchor="middle" x="534.46" y="-499.94" font-family="Helvetica,sans-Serif" font-size="15.20" fill="#4d4d4d">richesse</text>
</g>
<!-- impact environnemental -->
<g id="node5" class="node">
<title>impact environnemental</title>
<ellipse fill="#fcffa4" stroke="white" stroke-width="0" cx="783.95" cy="-352.78" rx="36" ry="36"/>
<text text-anchor="middle" x="920.45" y="-294.38" font-family="Helvetica,sans-Serif" font-size="28.00" fill="#4d4d4d">impact environnemental</text>
</g>
<!-- conflit -->
<g id="node6" class="node">
<title>conflit</title>
<ellipse fill="#540f6d" stroke="white" stroke-width="0" cx="581.76" cy="-652.31" rx="11" ry="11"/>
<text text-anchor="middle" x="544.76" y="-667.87" font-family="Helvetica,sans-Serif" font-size="16.80" fill="#4d4d4d">conflit</text>
</g>
<!-- revenu -->
<g id="node7" class="node">
<title>revenu</title>
<ellipse fill="#400a67" stroke="white" stroke-width="0" cx="525.1" cy="-577.36" rx="7" ry="7"/>
<text text-anchor="middle" x="491.6" y="-589.2" font-family="Helvetica,sans-Serif" font-size="15.20" fill="#4d4d4d">revenu</text>
</g>
<!-- nickel -->
<g id="node8" class="node">
<title>nickel</title>
<ellipse fill="#de5238" stroke="white" stroke-width="0" cx="654.68" cy="-348.21" rx="21.5" ry="21.5"/>
<text text-anchor="middle" x="601.68" y="-376.43" font-family="Helvetica,sans-Serif" font-size="21.60" fill="#4d4d4d">nickel</text>
</g>
<!-- exploitation -->
<g id="node9" class="node">
<title>exploitation</title>
<ellipse fill="#781c6d" stroke="white" stroke-width="0" cx="660.36" cy="-289.51" rx="11" ry="11"/>
<text text-anchor="middle" x="599.36" y="-305.07" font-family="Helvetica,sans-Serif" font-size="16.80" fill="#4d4d4d">exploitation</text>
</g>
<!-- montagne -->
<g id="node10" class="node">
<title>montagne</title>
<ellipse fill="#310a5c" stroke="white" stroke-width="0" cx="837.92" cy="-522.07" rx="7" ry="7"/>
<text text-anchor="middle" x="791.92" y="-533.91" font-family="Helvetica,sans-Serif" font-size="15.20" fill="#4d4d4d">montagne</text>
</g>
<!-- biodiversité -->
<g id="node11" class="node">
<title>biodiversité</title>
<ellipse fill="#0a0722" stroke="white" stroke-width="0" cx="585" cy="-964.56" rx="3.5" ry="3.5"/>
<text text-anchor="middle" x="541.5" y="-972.18" font-family="Helvetica,sans-Serif" font-size="13.60" fill="#4d4d4d">biodiversité</text>
</g>
<!-- développement -->
<g id="node12" class="node">
<title>développement</title>
<ellipse fill="#180c3c" stroke="white" stroke-width="0" cx="810.61" cy="-671.21" rx="3.5" ry="3.5"/>
<text text-anchor="middle" x="753.11" y="-678.83" font-family="Helvetica,sans-Serif" font-size="13.60" fill="#4d4d4d">développement</text>
</g>
<!-- engin -->
<g id="node13" class="node">
<title>engin</title>
<ellipse fill="#6d186e" stroke="white" stroke-width="0" cx="735.56" cy="-435.18" rx="11" ry="11"/>
<text text-anchor="middle" x="701.06" y="-450.74" font-family="Helvetica,sans-Serif" font-size="16.80" fill="#4d4d4d">engin</text>
</g>
<!-- minerai -->
<g id="node14" class="node">
<title>minerai</title>
<ellipse fill="#ad305d" stroke="white" stroke-width="0" cx="838.49" cy="-377.73" rx="18" ry="18"/>
<text text-anchor="middle" x="782.49" y="-401.73" font-family="Helvetica,sans-Serif" font-size="20.00" fill="#4d4d4d">minerai</text>
</g>
<!-- terre -->
<g id="node15" class="node">
<title>terre</title>
<ellipse fill="#59106e" stroke="white" stroke-width="0" cx="712.81" cy="-509.46" rx="11" ry="11"/>
<text text-anchor="middle" x="680.81" y="-525.02" font-family="Helvetica,sans-Serif" font-size="16.80" fill="#4d4d4d">terre</text>
</g>
<!-- usine -->
<g id="node16" class="node">
<title>usine</title>
<ellipse fill="#7d1e6d" stroke="white" stroke-width="0" cx="479.47" cy="-332.7" rx="14.5" ry="14.5"/>
<text text-anchor="middle" x="439.47" y="-352.48" font-family="Helvetica,sans-Serif" font-size="18.40" fill="#4d4d4d">usine</text>
</g>
<!-- changement climatique -->
<g id="node17" class="node">
<title>changement climatique</title>
<ellipse fill="#000004" stroke="white" stroke-width="0" cx="1013.23" cy="-0.5" rx="0.5" ry="0.5"/>
<text text-anchor="middle" x="941.73" y="-4.4" font-family="Helvetica,sans-Serif" font-size="12.00" fill="#4d4d4d">changement climatique</text>
</g>
<!-- main d’oeuvre -->
<g id="node18" class="node">
<title>main d’oeuvre</title>
<ellipse fill="#210c4a" stroke="white" stroke-width="0" cx="652.94" cy="-171.24" rx="3.5" ry="3.5"/>
<text text-anchor="middle" x="698.94" y="-178.86" font-family="Helvetica,sans-Serif" font-size="13.60" fill="#4d4d4d">main d’oeuvre</text>
</g>
<!-- opérateur minier -->
<g id="node19" class="node">
<title>opérateur minier</title>
<ellipse fill="#6f196e" stroke="white" stroke-width="0" cx="514.3" cy="-262.63" rx="11" ry="11"/>
<text text-anchor="middle" x="432.3" y="-278.19" font-family="Helvetica,sans-Serif" font-size="16.80" fill="#4d4d4d">opérateur minier</text>
</g>
<!-- vision positive de la ressource -->
<g id="node20" class="node">
<title>vision positive de la ressource</title>
<ellipse fill="#290b55" stroke="white" stroke-width="0" cx="806" cy="-209.97" rx="7" ry="7"/>
<text text-anchor="middle" x="684.5" y="-221.81" font-family="Helvetica,sans-Serif" font-size="15.20" fill="#4d4d4d">vision positive de la ressource</text>
</g>
<!-- commerce -->
<g id="node21" class="node">
<title>commerce</title>
<ellipse fill="#2f0a5b" stroke="white" stroke-width="0" cx="554.62" cy="-172.22" rx="7" ry="7"/>
<text text-anchor="middle" x="507.62" y="-184.06" font-family="Helvetica,sans-Serif" font-size="15.20" fill="#4d4d4d">commerce</text>
</g>
<!-- milieu -->
<g id="node22" class="node">
<title>milieu</title>
<ellipse fill="#110a30" stroke="white" stroke-width="0" cx="1102.73" cy="-96.26" rx="3.5" ry="3.5"/>
<text text-anchor="middle" x="1078.23" y="-103.88" font-family="Helvetica,sans-Serif" font-size="13.60" fill="#4d4d4d">milieu</text>
</g>
<!-- danger -->
<g id="node23" class="node">
<title>danger</title>
<ellipse fill="#02020c" stroke="white" stroke-width="0" cx="1169.39" cy="-218.49" rx="0.5" ry="0.5"/>
<text text-anchor="middle" x="1147.39" y="-222.39" font-family="Helvetica,sans-Serif" font-size="12.00" fill="#4d4d4d">danger</text>
</g>
<!-- épuisement de la ressource -->
<g id="node24" class="node">
<title>épuisement de la ressource</title>
<ellipse fill="#010108" stroke="white" stroke-width="0" cx="1168.97" cy="-359.85" rx="0.5" ry="0.5"/>
<text text-anchor="middle" x="1085.47" y="-363.75" font-family="Helvetica,sans-Serif" font-size="12.00" fill="#4d4d4d">épuisement de la ressource</text>
</g>
<!-- ressource non&#45;renouvelable -->
<g id="node25" class="node">
<title>ressource non&#45;renouvelable</title>
<ellipse fill="#210c4a" stroke="white" stroke-width="0" cx="818.21" cy="-66.79" rx="3.5" ry="3.5"/>
<text text-anchor="middle" x="721.21" y="-74.41" font-family="Helvetica,sans-Serif" font-size="13.60" fill="#4d4d4d">ressource non&#45;renouvelable</text>
</g>
<!-- description minière -->
<g id="node26" class="node">
<title>description minière</title>
<ellipse fill="#10092d" stroke="white" stroke-width="0" cx="1143.22" cy="-645.08" rx="3.5" ry="3.5"/>
<text text-anchor="middle" x="1074.22" y="-652.7" font-family="Helvetica,sans-Serif" font-size="13.60" fill="#4d4d4d">description minière</text>
</g>
<!-- nouvelle&#45;calédonie -->
<g id="node27" class="node">
<title>nouvelle&#45;calédonie</title>
<ellipse fill="#02020e" stroke="white" stroke-width="0" cx="1234.6" cy="-497.12" rx="0.5" ry="0.5"/>
<text text-anchor="middle" x="1177.6" y="-501.02" font-family="Helvetica,sans-Serif" font-size="12.00" fill="#4d4d4d">nouvelle&#45;calédonie</text>
</g>
<!-- localité -->
<g id="node28" class="node">
<title>localité</title>
<ellipse fill="#0e092b" stroke="white" stroke-width="0" cx="225.06" cy="-271.3" rx="3.5" ry="3.5"/>
<text text-anchor="middle" x="197.06" y="-278.92" font-family="Helvetica,sans-Serif" font-size="13.60" fill="#4d4d4d">localité</text>
</g>
<!-- production énergétique -->
<g id="node29" class="node">
<title>production énergétique</title>
<ellipse fill="#010005" stroke="white" stroke-width="0" cx="148.74" cy="-100.6" rx="0.5" ry="0.5"/>
<text text-anchor="middle" x="78.24" y="-104.5" font-family="Helvetica,sans-Serif" font-size="12.00" fill="#4d4d4d">production énergétique</text>
</g>
<!-- métallurgie -->
<g id="node30" class="node">
<title>métallurgie</title>
<ellipse fill="#02020e" stroke="white" stroke-width="0" cx="68.5" cy="-317.93" rx="0.5" ry="0.5"/>
<text text-anchor="middle" x="34" y="-321.83" font-family="Helvetica,sans-Serif" font-size="12.00" fill="#4d4d4d">métallurgie</text>
</g>
</g>
</svg>
