<?xml version="1.0" encoding="UTF-8" standalone="no"?>
<!DOCTYPE svg PUBLIC "-//W3C//DTD SVG 1.1//EN"
 "http://www.w3.org/Graphics/SVG/1.1/DTD/svg11.dtd">
<!-- Generated by graphviz version 2.43.0 (0)
 -->
<!-- Pages: 1 -->
<svg width="928pt" height="474pt"
 viewBox="0.00 0.00 928.19 473.90" xmlns="http://www.w3.org/2000/svg" xmlns:xlink="http://www.w3.org/1999/xlink">
<g id="graph0" class="graph" transform="scale(1 1) rotate(0) translate(4 469.9)">
<polygon fill="white" stroke="transparent" points="-4,4 -4,-469.9 924.19,-469.9 924.19,4 -4,4"/>
<!-- avenir sans nickel&#45;&#45;travail -->
<g id="edge1" class="edge">
<title>avenir sans nickel&#45;&#45;travail</title>
<path fill="none" stroke="darkgrey" stroke-width="3.2" d="M548.32,-162.19C556,-174.07 565.38,-188.59 572.31,-199.31"/>
</g>
<!-- avenir sans nickel&#45;&#45;politique -->
<g id="edge2" class="edge">
<title>avenir sans nickel&#45;&#45;politique</title>
<path fill="none" stroke="darkgrey" stroke-width="3.67" d="M509.42,-140.27C475.19,-139.38 414.75,-137.82 384.66,-137.05"/>
</g>
<!-- avenir sans nickel&#45;&#45;secteur nickel -->
<g id="edge3" class="edge">
<title>avenir sans nickel&#45;&#45;secteur nickel</title>
<path fill="none" stroke="darkgrey" stroke-width="3.01" d="M510.56,-148.76C490.26,-155.39 461.68,-164.73 443.59,-170.64"/>
</g>
<!-- avenir sans nickel&#45;&#45;relation politique -->
<g id="edge4" class="edge">
<title>avenir sans nickel&#45;&#45;relation politique</title>
<path fill="none" stroke="darkgrey" d="M527.56,-116.78C516.44,-78.51 495.83,-7.56 493.92,-0.99"/>
</g>
<!-- avenir sans nickel&#45;&#45;avenir avec nickel -->
<g id="edge5" class="edge">
<title>avenir sans nickel&#45;&#45;avenir avec nickel</title>
<path fill="none" stroke="darkgrey" stroke-width="2.95" d="M534.12,-166.1C533.83,-182 533.48,-201.43 533.3,-211.79"/>
</g>
<!-- avenir sans nickel&#45;&#45;pollution -->
<g id="edge6" class="edge">
<title>avenir sans nickel&#45;&#45;pollution</title>
<path fill="none" stroke="darkgrey" stroke-width="5.45" d="M523.17,-163.2C507.8,-193.26 480.68,-246.28 466.1,-274.78"/>
</g>
<!-- avenir sans nickel&#45;&#45;ressource minière -->
<g id="edge7" class="edge">
<title>avenir sans nickel&#45;&#45;ressource minière</title>
<path fill="none" stroke="darkgrey" stroke-width="5.53" d="M510.21,-134.62C492.64,-130.08 469.02,-123.97 451.47,-119.44"/>
</g>
<!-- avenir sans nickel&#45;&#45;dégradation environnementale -->
<g id="edge8" class="edge">
<title>avenir sans nickel&#45;&#45;dégradation environnementale</title>
<path fill="none" stroke="darkgrey" stroke-width="6.13" d="M517.09,-159.11C504.47,-172.24 487.25,-190.16 473.18,-204.8"/>
</g>
<!-- avenir sans nickel&#45;&#45;société néo&#45;calédonienne -->
<g id="edge9" class="edge">
<title>avenir sans nickel&#45;&#45;société néo&#45;calédonienne</title>
<path fill="none" stroke="darkgrey" stroke-width="2.91" d="M519.35,-161.24C491.07,-198.97 431.25,-278.78 408.54,-309.08"/>
</g>
<!-- avenir sans nickel&#45;&#45;alternative au développement -->
<g id="edge10" class="edge">
<title>avenir sans nickel&#45;&#45;alternative au développement</title>
<path fill="none" stroke="darkgrey" stroke-width="4.49" d="M513.46,-154.34C483.57,-173.34 429.25,-207.87 399.28,-226.92"/>
</g>
<!-- avenir sans nickel&#45;&#45;économie -->
<g id="edge11" class="edge">
<title>avenir sans nickel&#45;&#45;économie</title>
<path fill="none" stroke="darkgrey" stroke-width="2.53" d="M509.77,-137.05C505.56,-136.39 501.32,-135.72 497.49,-135.13"/>
</g>
<!-- avenir sans nickel&#45;&#45;amélioration environnementale -->
<g id="edge12" class="edge">
<title>avenir sans nickel&#45;&#45;amélioration environnementale</title>
<path fill="none" stroke="darkgrey" stroke-width="1.96" d="M558.98,-134.85C568.79,-132.41 579.59,-129.72 587.36,-127.78"/>
</g>
<!-- avenir sans nickel&#45;&#45;essor technologique -->
<g id="edge13" class="edge">
<title>avenir sans nickel&#45;&#45;essor technologique</title>
<path fill="none" stroke="darkgrey" stroke-width="1.2" d="M535.3,-165.92C536.33,-201.21 538.18,-264.55 539.01,-293.15"/>
</g>
<!-- travail&#45;&#45;politique -->
<g id="edge14" class="edge">
<title>travail&#45;&#45;politique</title>
<path fill="none" stroke="darkgrey" stroke-width="3.4" d="M564.83,-208.22C524.38,-193.6 423.88,-157.28 383.64,-142.74"/>
</g>
<!-- travail&#45;&#45;secteur nickel -->
<g id="edge15" class="edge">
<title>travail&#45;&#45;secteur nickel</title>
<path fill="none" stroke="darkgrey" stroke-width="3.56" d="M564.54,-210.16C534.63,-202.82 474.13,-187.98 444.1,-180.61"/>
</g>
<!-- travail&#45;&#45;avenir avec nickel -->
<g id="edge16" class="edge">
<title>travail&#45;&#45;avenir avec nickel</title>
<path fill="none" stroke="darkgrey" stroke-width="1.46" d="M564.16,-216.18C555.86,-216.97 546.49,-217.86 540.25,-218.46"/>
</g>
<!-- travail&#45;&#45;pollution -->
<g id="edge17" class="edge">
<title>travail&#45;&#45;pollution</title>
<path fill="none" stroke="darkgrey" stroke-width="5.15" d="M566.66,-224.24C543.41,-238.96 499.5,-266.75 474.61,-282.51"/>
</g>
<!-- travail&#45;&#45;ressource minière -->
<g id="edge18" class="edge">
<title>travail&#45;&#45;ressource minière</title>
<path fill="none" stroke="darkgrey" stroke-width="2.7" d="M566.97,-204.57C539.18,-186.4 479.98,-147.68 448.28,-126.95"/>
</g>
<!-- travail&#45;&#45;dégradation environnementale -->
<g id="edge19" class="edge">
<title>travail&#45;&#45;dégradation environnementale</title>
<path fill="none" stroke="darkgrey" stroke-width="6.3" d="M564.04,-216.67C543.63,-219.16 509.87,-223.28 484.05,-226.43"/>
</g>
<!-- travail&#45;&#45;société néo&#45;calédonienne -->
<g id="edge20" class="edge">
<title>travail&#45;&#45;société néo&#45;calédonienne</title>
<path fill="none" stroke="darkgrey" stroke-width="3.38" d="M566.54,-223.56C531.01,-244.31 444.53,-294.82 412.1,-313.76"/>
</g>
<!-- travail&#45;&#45;alternative au développement -->
<g id="edge21" class="edge">
<title>travail&#45;&#45;alternative au développement</title>
<path fill="none" stroke="darkgrey" stroke-width="3.71" d="M563.99,-216.77C527.4,-221.43 444.64,-231.97 402.96,-237.27"/>
</g>
<!-- travail&#45;&#45;économie -->
<g id="edge23" class="edge">
<title>travail&#45;&#45;économie</title>
<path fill="none" stroke="darkgrey" stroke-width="3.84" d="M567.93,-202.78C548.16,-186.48 512.69,-157.24 494.54,-142.27"/>
</g>
<!-- travail&#45;&#45;amélioration environnementale -->
<g id="edge24" class="edge">
<title>travail&#45;&#45;amélioration environnementale</title>
<path fill="none" stroke="darkgrey" stroke-width="2.62" d="M585.35,-196.38C588.6,-178.32 593.48,-151.16 596.19,-136.11"/>
</g>
<!-- travail&#45;&#45;essor technologique -->
<g id="edge25" class="edge">
<title>travail&#45;&#45;essor technologique</title>
<path fill="none" stroke="darkgrey" stroke-width="2.89" d="M574.47,-231.17C566.18,-249.33 553.1,-277.98 545.49,-294.65"/>
</g>
<!-- travail&#45;&#45;nickel -->
<g id="edge22" class="edge">
<title>travail&#45;&#45;nickel</title>
<path fill="none" stroke="darkgrey" stroke-width="1.27" d="M585.12,-232.43C588.24,-251.02 592.89,-278.68 594.52,-288.39"/>
</g>
<!-- politique&#45;&#45;secteur nickel -->
<g id="edge29" class="edge">
<title>politique&#45;&#45;secteur nickel</title>
<path fill="none" stroke="darkgrey" stroke-width="3.78" d="M381.67,-146.59C390.66,-152.56 402.05,-160.12 411.08,-166.11"/>
</g>
<!-- politique&#45;&#45;relation politique -->
<g id="edge30" class="edge">
<title>politique&#45;&#45;relation politique</title>
<path fill="none" stroke="darkgrey" stroke-width="1.59" d="M379.25,-123.03C409.91,-90.23 486.16,-8.64 493.25,-1.07"/>
</g>
<!-- politique&#45;&#45;avenir avec nickel -->
<g id="edge31" class="edge">
<title>politique&#45;&#45;avenir avec nickel</title>
<path fill="none" stroke="darkgrey" stroke-width="1.36" d="M382.86,-144.64C418.55,-162.33 502.45,-203.91 526.57,-215.87"/>
</g>
<!-- politique&#45;&#45;pollution -->
<g id="edge32" class="edge">
<title>politique&#45;&#45;pollution</title>
<path fill="none" stroke="darkgrey" stroke-width="3.38" d="M375.5,-152.27C392.1,-181.46 427.67,-244.02 445.51,-275.4"/>
</g>
<!-- politique&#45;&#45;ressource minière -->
<g id="edge33" class="edge">
<title>politique&#45;&#45;ressource minière</title>
<path fill="none" stroke="darkgrey" stroke-width="3.85" d="M383.47,-130.06C389.78,-127.62 397.05,-124.81 403.84,-122.19"/>
</g>
<!-- politique&#45;&#45;dégradation environnementale -->
<g id="edge34" class="edge">
<title>politique&#45;&#45;dégradation environnementale</title>
<path fill="none" stroke="darkgrey" stroke-width="5.04" d="M378.63,-150.48C390.69,-164.41 409.57,-186.2 424.62,-203.58"/>
</g>
<!-- politique&#45;&#45;société néo&#45;calédonienne -->
<g id="edge35" class="edge">
<title>politique&#45;&#45;société néo&#45;calédonienne</title>
<path fill="none" stroke="darkgrey" stroke-width="2.21" d="M369.81,-154.61C376.32,-191.06 390.93,-272.91 396.92,-306.39"/>
</g>
<!-- politique&#45;&#45;alternative au développement -->
<g id="edge37" class="edge">
<title>politique&#45;&#45;alternative au développement</title>
<path fill="none" stroke="darkgrey" stroke-width="2.99" d="M368.57,-154.67C370.43,-171.53 373.2,-196.81 375.26,-215.56"/>
</g>
<!-- politique&#45;&#45;économie -->
<g id="edge38" class="edge">
<title>politique&#45;&#45;économie</title>
<path fill="none" stroke="darkgrey" stroke-width="3.58" d="M384.8,-136C407.85,-135.27 447.12,-134.03 468.4,-133.36"/>
</g>
<!-- politique&#45;&#45;nouvelle&#45;calédonie -->
<g id="edge36" class="edge">
<title>politique&#45;&#45;nouvelle&#45;calédonie</title>
<path fill="none" stroke="darkgrey" stroke-width="1.42" d="M348.85,-131.56C326.99,-125.38 291.36,-115.3 280.25,-112.15"/>
</g>
<!-- secteur nickel&#45;&#45;relation politique -->
<g id="edge39" class="edge">
<title>secteur nickel&#45;&#45;relation politique</title>
<path fill="none" stroke="darkgrey" stroke-width="1.25" d="M432.83,-159.41C448.91,-117.48 489.7,-11.12 493.49,-1.24"/>
</g>
<!-- secteur nickel&#45;&#45;avenir avec nickel -->
<g id="edge40" class="edge">
<title>secteur nickel&#45;&#45;avenir avec nickel</title>
<path fill="none" stroke="darkgrey" stroke-width="1.56" d="M443.52,-183.15C467.58,-192.81 510.22,-209.92 526.55,-216.48"/>
</g>
<!-- secteur nickel&#45;&#45;pollution -->
<g id="edge41" class="edge">
<title>secteur nickel&#45;&#45;pollution</title>
<path fill="none" stroke="darkgrey" stroke-width="3.78" d="M430.83,-193.92C436.19,-215.12 445.17,-250.64 450.88,-273.21"/>
</g>
<!-- secteur nickel&#45;&#45;ressource minière -->
<g id="edge42" class="edge">
<title>secteur nickel&#45;&#45;ressource minière</title>
<path fill="none" stroke="darkgrey" stroke-width="2.27" d="M426.61,-158.01C426.69,-151.9 426.78,-144.97 426.87,-138.41"/>
</g>
<!-- secteur nickel&#45;&#45;dégradation environnementale -->
<g id="edge43" class="edge">
<title>secteur nickel&#45;&#45;dégradation environnementale</title>
<path fill="none" stroke="darkgrey" stroke-width="3.45" d="M433.15,-193.22C433.65,-194.47 434.17,-195.76 434.69,-197.06"/>
</g>
<!-- secteur nickel&#45;&#45;société néo&#45;calédonienne -->
<g id="edge44" class="edge">
<title>secteur nickel&#45;&#45;société néo&#45;calédonienne</title>
<path fill="none" stroke="darkgrey" stroke-width="1.83" d="M423.08,-194.02C417.7,-223.03 407.15,-280 402.21,-306.68"/>
</g>
<!-- secteur nickel&#45;&#45;alternative au développement -->
<g id="edge45" class="edge">
<title>secteur nickel&#45;&#45;alternative au développement</title>
<path fill="none" stroke="darkgrey" stroke-width="5.54" d="M415.39,-190.83C408.81,-199.56 400.35,-210.78 393.15,-220.35"/>
</g>
<!-- secteur nickel&#45;&#45;économie -->
<g id="edge47" class="edge">
<title>secteur nickel&#45;&#45;économie</title>
<path fill="none" stroke="darkgrey" stroke-width="2.44" d="M440.7,-165.32C450.16,-158.09 462.42,-148.73 471.33,-141.93"/>
</g>
<!-- secteur nickel&#45;&#45;amélioration environnementale -->
<g id="edge48" class="edge">
<title>secteur nickel&#45;&#45;amélioration environnementale</title>
<path fill="none" stroke="darkgrey" stroke-width="3.02" d="M443.78,-171.08C479.1,-160.56 558.25,-136.99 587.25,-128.35"/>
</g>
<!-- secteur nickel&#45;&#45;essor technologique -->
<g id="edge49" class="edge">
<title>secteur nickel&#45;&#45;essor technologique</title>
<path fill="none" stroke="darkgrey" stroke-width="1.95" d="M438.47,-190.35C461.03,-216.61 509.09,-272.56 529.72,-296.57"/>
</g>
<!-- secteur nickel&#45;&#45;nickel -->
<g id="edge46" class="edge">
<title>secteur nickel&#45;&#45;nickel</title>
<path fill="none" stroke="darkgrey" stroke-width="1.95" d="M441.34,-186.53C478.61,-212.07 573.82,-277.33 592.07,-289.83"/>
</g>
<!-- relation politique&#45;&#45;dégradation environnementale -->
<g id="edge50" class="edge">
<title>relation politique&#45;&#45;dégradation environnementale</title>
<path fill="none" stroke="darkgrey" stroke-width="1.16" d="M493.64,-1.16C491.65,-11.21 467.46,-133.47 455.21,-195.37"/>
</g>
<!-- relation politique&#45;&#45;économie -->
<g id="edge51" class="edge">
<title>relation politique&#45;&#45;économie</title>
<path fill="none" stroke="darkgrey" stroke-width="1.4" d="M493.71,-1.35C493,-10.15 486.96,-85.49 484.35,-118.02"/>
</g>
<!-- avenir avec nickel&#45;&#45;ressource minière -->
<g id="edge52" class="edge">
<title>avenir avec nickel&#45;&#45;ressource minière</title>
<path fill="none" stroke="darkgrey" stroke-width="1.38" d="M528.05,-214.02C513.26,-199.22 469.85,-155.81 445.07,-131.03"/>
</g>
<!-- avenir avec nickel&#45;&#45;dégradation environnementale -->
<g id="edge53" class="edge">
<title>avenir avec nickel&#45;&#45;dégradation environnementale</title>
<path fill="none" stroke="darkgrey" stroke-width="2.57" d="M526.21,-220.09C516.94,-221.36 499.84,-223.71 484.02,-225.88"/>
</g>
<!-- avenir avec nickel&#45;&#45;alternative au développement -->
<g id="edge54" class="edge">
<title>avenir avec nickel&#45;&#45;alternative au développement</title>
<path fill="none" stroke="darkgrey" stroke-width="2.14" d="M526.09,-220.11C504.57,-223.06 439.13,-232.05 402.86,-237.04"/>
</g>
<!-- avenir avec nickel&#45;&#45;économie -->
<g id="edge55" class="edge">
<title>avenir avec nickel&#45;&#45;économie</title>
<path fill="none" stroke="darkgrey" stroke-width="1.96" d="M529.57,-212.93C521.42,-198.87 501.4,-164.35 490.51,-145.56"/>
</g>
<!-- avenir avec nickel&#45;&#45;amélioration environnementale -->
<g id="edge56" class="edge">
<title>avenir avec nickel&#45;&#45;amélioration environnementale</title>
<path fill="none" stroke="darkgrey" stroke-width="2.66" d="M537.23,-213.25C548.24,-197.33 578.67,-153.3 591.9,-134.17"/>
</g>
<!-- avenir avec nickel&#45;&#45;essor technologique -->
<g id="edge57" class="edge">
<title>avenir avec nickel&#45;&#45;essor technologique</title>
<path fill="none" stroke="darkgrey" stroke-width="2.04" d="M533.68,-226.4C534.71,-240.97 537.05,-274.02 538.41,-293.26"/>
</g>
<!-- pollution&#45;&#45;ressource minière -->
<g id="edge58" class="edge">
<title>pollution&#45;&#45;ressource minière</title>
<path fill="none" stroke="darkgrey" stroke-width="4.38" d="M452.74,-272.7C447.35,-238.99 436.91,-173.81 431.19,-138.08"/>
</g>
<!-- pollution&#45;&#45;dégradation environnementale -->
<g id="edge59" class="edge">
<title>pollution&#45;&#45;dégradation environnementale</title>
<path fill="none" stroke="darkgrey" stroke-width="10" d="M453.48,-272.72C453.22,-270.71 452.96,-268.64 452.7,-266.54"/>
</g>
<!-- pollution&#45;&#45;société néo&#45;calédonienne -->
<g id="edge61" class="edge">
<title>pollution&#45;&#45;société néo&#45;calédonienne</title>
<path fill="none" stroke="darkgrey" stroke-width="3.47" d="M436.69,-303.44C428.75,-307.21 419.79,-311.47 412.66,-314.86"/>
</g>
<!-- pollution&#45;&#45;alternative au développement -->
<g id="edge62" class="edge">
<title>pollution&#45;&#45;alternative au développement</title>
<path fill="none" stroke="darkgrey" stroke-width="4.64" d="M438.44,-281.98C426.64,-273.87 411.09,-263.19 398.72,-254.69"/>
</g>
<!-- pollution&#45;&#45;économie -->
<g id="edge64" class="edge">
<title>pollution&#45;&#45;économie</title>
<path fill="none" stroke="darkgrey" stroke-width="4.35" d="M459.76,-272.76C465.36,-239.34 476,-175.68 480.76,-147.24"/>
</g>
<!-- pollution&#45;&#45;amélioration environnementale -->
<g id="edge65" class="edge">
<title>pollution&#45;&#45;amélioration environnementale</title>
<path fill="none" stroke="darkgrey" stroke-width="1.51" d="M470.05,-277.66C499.78,-242.26 568.73,-160.15 591.06,-133.57"/>
</g>
<!-- pollution&#45;&#45;essor technologique -->
<g id="edge66" class="edge">
<title>pollution&#45;&#45;essor technologique</title>
<path fill="none" stroke="darkgrey" stroke-width="2.69" d="M477.62,-297.71C492.46,-300.15 511.82,-303.34 524.89,-305.49"/>
</g>
<!-- pollution&#45;&#45;nickel -->
<g id="edge63" class="edge">
<title>pollution&#45;&#45;nickel</title>
<path fill="none" stroke="darkgrey" stroke-width="1.93" d="M477.89,-293.82C511.77,-293.27 575.04,-292.25 591.25,-291.98"/>
</g>
<!-- pollution&#45;&#45;nature -->
<g id="edge60" class="edge">
<title>pollution&#45;&#45;nature</title>
<path fill="none" stroke="darkgrey" stroke-width="2.45" d="M441.11,-309.7C409.49,-342.3 337.5,-416.5 317.88,-436.73"/>
</g>
<!-- ressource minière&#45;&#45;dégradation environnementale -->
<g id="edge67" class="edge">
<title>ressource minière&#45;&#45;dégradation environnementale</title>
<path fill="none" stroke="darkgrey" stroke-width="6.51" d="M431.61,-137.82C434.56,-154.4 438.51,-176.51 441.81,-195.01"/>
</g>
<!-- ressource minière&#45;&#45;alternative au développement -->
<g id="edge69" class="edge">
<title>ressource minière&#45;&#45;alternative au développement</title>
<path fill="none" stroke="darkgrey" stroke-width="4.93" d="M418.18,-136.51C409.36,-159.33 395.99,-193.9 387.13,-216.82"/>
</g>
<!-- ressource minière&#45;&#45;économie -->
<g id="edge71" class="edge">
<title>ressource minière&#45;&#45;économie</title>
<path fill="none" stroke="darkgrey" stroke-width="3.57" d="M450.94,-121.53C457.25,-123.76 463.86,-126.09 469.44,-128.05"/>
</g>
<!-- ressource minière&#45;&#45;amélioration environnementale -->
<g id="edge72" class="edge">
<title>ressource minière&#45;&#45;amélioration environnementale</title>
<path fill="none" stroke="darkgrey" stroke-width="1.57" d="M452.43,-114.92C490.14,-117.56 559.69,-122.41 586.87,-124.31"/>
</g>
<!-- ressource minière&#45;&#45;essor technologique -->
<g id="edge73" class="edge">
<title>ressource minière&#45;&#45;essor technologique</title>
<path fill="none" stroke="darkgrey" stroke-width="3.95" d="M439.86,-135.12C463.37,-175.9 513.08,-262.16 531.96,-294.91"/>
</g>
<!-- ressource minière&#45;&#45;nickel -->
<g id="edge70" class="edge">
<title>ressource minière&#45;&#45;nickel</title>
<path fill="none" stroke="darkgrey" stroke-width="1.05" d="M444.54,-131.62C483.42,-173.01 575.49,-271.03 592.42,-289.05"/>
</g>
<!-- ressource minière&#45;&#45;nouvelle&#45;calédonie -->
<g id="edge68" class="edge">
<title>ressource minière&#45;&#45;nouvelle&#45;calédonie</title>
<path fill="none" stroke="darkgrey" stroke-width="1.23" d="M402.04,-112.83C364.58,-112.34 296.82,-111.45 280.46,-111.24"/>
</g>
<!-- dégradation environnementale&#45;&#45;société néo&#45;calédonienne -->
<g id="edge75" class="edge">
<title>dégradation environnementale&#45;&#45;société néo&#45;calédonienne</title>
<path fill="none" stroke="darkgrey" stroke-width="2.69" d="M431.04,-262.64C422.62,-278.28 412.93,-296.25 406.55,-308.1"/>
</g>
<!-- dégradation environnementale&#45;&#45;alternative au développement -->
<g id="edge77" class="edge">
<title>dégradation environnementale&#45;&#45;alternative au développement</title>
<path fill="none" stroke="darkgrey" stroke-width="5.03" d="M412.27,-235.74C409.17,-236.17 406.08,-236.59 403.09,-237"/>
</g>
<!-- dégradation environnementale&#45;&#45;économie -->
<g id="edge79" class="edge">
<title>dégradation environnementale&#45;&#45;économie</title>
<path fill="none" stroke="darkgrey" stroke-width="6.36" d="M460.33,-196.83C466.48,-179.6 473.61,-159.62 478.25,-146.65"/>
</g>
<!-- dégradation environnementale&#45;&#45;amélioration environnementale -->
<g id="edge80" class="edge">
<title>dégradation environnementale&#45;&#45;amélioration environnementale</title>
<path fill="none" stroke="darkgrey" stroke-width="2.6" d="M477.82,-209.92C512.31,-185.61 567.3,-146.85 588.97,-131.58"/>
</g>
<!-- dégradation environnementale&#45;&#45;essor technologique -->
<g id="edge81" class="edge">
<title>dégradation environnementale&#45;&#45;essor technologique</title>
<path fill="none" stroke="darkgrey" stroke-width="3.36" d="M476.07,-254.35C493.47,-269.05 514.95,-287.2 527.9,-298.14"/>
</g>
<!-- dégradation environnementale&#45;&#45;nickel -->
<g id="edge78" class="edge">
<title>dégradation environnementale&#45;&#45;nickel</title>
<path fill="none" stroke="darkgrey" stroke-width="2.08" d="M481.53,-244.67C519.12,-260.31 576.93,-284.36 591.62,-290.47"/>
</g>
<!-- dégradation environnementale&#45;&#45;nouvelle&#45;calédonie -->
<g id="edge76" class="edge">
<title>dégradation environnementale&#45;&#45;nouvelle&#45;calédonie</title>
<path fill="none" stroke="darkgrey" stroke-width="1.13" d="M418.35,-209.97C374.62,-179.45 296.54,-124.94 279.98,-113.38"/>
</g>
<!-- dégradation environnementale&#45;&#45;nature -->
<g id="edge74" class="edge">
<title>dégradation environnementale&#45;&#45;nature</title>
<path fill="none" stroke="darkgrey" stroke-width="3.56" d="M428.51,-261.5C395.96,-312.27 332.89,-410.65 316.71,-435.89"/>
</g>
<!-- société néo&#45;calédonienne&#45;&#45;alternative au développement -->
<g id="edge85" class="edge">
<title>société néo&#45;calédonienne&#45;&#45;alternative au développement</title>
<path fill="none" stroke="darkgrey" stroke-width="2.92" d="M395.79,-307.05C392.68,-295.41 388.19,-278.59 384.49,-264.77"/>
</g>
<!-- société néo&#45;calédonienne&#45;&#45;économie -->
<g id="edge87" class="edge">
<title>société néo&#45;calédonienne&#45;&#45;économie</title>
<path fill="none" stroke="darkgrey" stroke-width="2.7" d="M405.56,-307.56C420.98,-272.84 461.83,-180.89 477.2,-146.3"/>
</g>
<!-- société néo&#45;calédonienne&#45;&#45;nickel -->
<g id="edge86" class="edge">
<title>société néo&#45;calédonienne&#45;&#45;nickel</title>
<path fill="none" stroke="darkgrey" stroke-width="1.8" d="M413.92,-318.95C454.68,-312.87 569.41,-295.76 591.43,-292.47"/>
</g>
<!-- société néo&#45;calédonienne&#45;&#45;nouvelle&#45;calédonie -->
<g id="edge84" class="edge">
<title>société néo&#45;calédonienne&#45;&#45;nouvelle&#45;calédonie</title>
<path fill="none" stroke="darkgrey" stroke-width="1.34" d="M392.05,-308.28C367.7,-266.62 291.61,-136.45 278.71,-114.38"/>
</g>
<!-- alternative au développement&#45;&#45;économie -->
<g id="edge91" class="edge">
<title>alternative au développement&#45;&#45;économie</title>
<path fill="none" stroke="darkgrey" stroke-width="5.38" d="M395.84,-222.21C417.99,-199.55 455.03,-161.66 472.9,-143.39"/>
</g>
<!-- alternative au développement&#45;&#45;amélioration environnementale -->
<g id="edge92" class="edge">
<title>alternative au développement&#45;&#45;amélioration environnementale</title>
<path fill="none" stroke="darkgrey" stroke-width="4.29" d="M400.32,-228.76C447.33,-204.13 554.93,-147.75 588.19,-130.33"/>
</g>
<!-- alternative au développement&#45;&#45;essor technologique -->
<g id="edge93" class="edge">
<title>alternative au développement&#45;&#45;essor technologique</title>
<path fill="none" stroke="darkgrey" stroke-width="4.13" d="M401.13,-250.12C435.31,-264.39 498.23,-290.67 525.84,-302.21"/>
</g>
<!-- alternative au développement&#45;&#45;nickel -->
<g id="edge90" class="edge">
<title>alternative au développement&#45;&#45;nickel</title>
<path fill="none" stroke="darkgrey" stroke-width="1.83" d="M402.48,-246.26C453.72,-258.4 569.33,-285.81 591.43,-291.05"/>
</g>
<!-- économie&#45;&#45;amélioration environnementale -->
<g id="edge95" class="edge">
<title>économie&#45;&#45;amélioration environnementale</title>
<path fill="none" stroke="darkgrey" stroke-width="1.35" d="M497.73,-131.9C521.06,-130.32 566.3,-127.26 587.15,-125.84"/>
</g>
<!-- économie&#45;&#45;essor technologique -->
<g id="edge96" class="edge">
<title>économie&#45;&#45;essor technologique</title>
<path fill="none" stroke="darkgrey" stroke-width="1.08" d="M487.67,-146.91C498.21,-179.68 524.35,-260.96 534.91,-293.8"/>
</g>
<!-- amélioration environnementale&#45;&#45;essor technologique -->
<g id="edge97" class="edge">
<title>amélioration environnementale&#45;&#45;essor technologique</title>
<path fill="none" stroke="darkgrey" stroke-width="1.72" d="M594.76,-135.71C584.72,-166.95 555.29,-258.57 543.96,-293.83"/>
</g>
<!-- nickel&#45;&#45;économie -->
<g id="edge94" class="edge">
<title>nickel&#45;&#45;économie</title>
<path fill="none" stroke="darkgrey" stroke-width="1.15" d="M592.98,-288.89C580.34,-270.94 515.14,-178.32 491.63,-144.92"/>
</g>
<!-- exploitation minière&#45;&#45;secteur nickel -->
<g id="edge26" class="edge">
<title>exploitation minière&#45;&#45;secteur nickel</title>
<path fill="none" stroke="darkgrey" stroke-width="1.06" d="M175.95,-131.33C188.21,-133.53 353.42,-163.17 408.58,-173.07"/>
</g>
<!-- exploitation minière&#45;&#45;ressource minière -->
<g id="edge27" class="edge">
<title>exploitation minière&#45;&#45;ressource minière</title>
<path fill="none" stroke="darkgrey" stroke-width="1.08" d="M175.96,-131.15C187.76,-130.3 341.04,-119.33 402.23,-114.95"/>
</g>
<!-- exploitation minière&#45;&#45;alternative au développement -->
<g id="edge28" class="edge">
<title>exploitation minière&#45;&#45;alternative au développement</title>
<path fill="none" stroke="darkgrey" stroke-width="1.21" d="M175.82,-131.51C185.18,-136.56 305.06,-201.15 355.68,-228.43"/>
</g>
<!-- nouvelle&#45;calédonie&#45;&#45;alternative au développement -->
<g id="edge88" class="edge">
<title>nouvelle&#45;calédonie&#45;&#45;alternative au développement</title>
<path fill="none" stroke="darkgrey" stroke-width="1.88" d="M279.34,-114.38C290.66,-128.85 337.61,-188.84 362.44,-220.57"/>
</g>
<!-- nouvelle&#45;calédonie&#45;&#45;économie -->
<g id="edge89" class="edge">
<title>nouvelle&#45;calédonie&#45;&#45;économie</title>
<path fill="none" stroke="darkgrey" stroke-width="1.46" d="M280.42,-111.56C303,-113.94 426.09,-126.89 468.66,-131.36"/>
</g>
<!-- nature&#45;&#45;société néo&#45;calédonienne -->
<g id="edge82" class="edge">
<title>nature&#45;&#45;société néo&#45;calédonienne</title>
<path fill="none" stroke="darkgrey" stroke-width="1.47" d="M317.04,-436.07C330.43,-417.41 372.46,-358.84 390.82,-333.25"/>
</g>
<!-- nature&#45;&#45;alternative au développement -->
<g id="edge83" class="edge">
<title>nature&#45;&#45;alternative au développement</title>
<path fill="none" stroke="darkgrey" stroke-width="1.14" d="M315.02,-435.2C323.59,-408.71 355.34,-310.53 370.21,-264.53"/>
</g>
<!-- avenir sans nickel -->
<g id="node1" class="node">
<title>avenir sans nickel</title>
<ellipse fill="#f8850f" stroke="white" stroke-width="0" cx="534.57" cy="-140.92" rx="25" ry="25"/>
<text text-anchor="middle" x="614.57" y="-173.36" font-family="Helvetica,sans-Serif" font-size="23.20" fill="#4d4d4d">avenir sans nickel</text>
</g>
<!-- travail -->
<g id="node2" class="node">
<title>travail</title>
<ellipse fill="#ae305c" stroke="white" stroke-width="0" cx="582.1" cy="-214.46" rx="18" ry="18"/>
<text text-anchor="middle" x="532.6" y="-238.46" font-family="Helvetica,sans-Serif" font-size="20.00" fill="#4d4d4d">travail</text>
</g>
<!-- politique -->
<g id="node3" class="node">
<title>politique</title>
<ellipse fill="#c13a50" stroke="white" stroke-width="0" cx="366.59" cy="-136.58" rx="18" ry="18"/>
<text text-anchor="middle" x="305.59" y="-160.58" font-family="Helvetica,sans-Serif" font-size="20.00" fill="#4d4d4d">politique</text>
</g>
<!-- secteur nickel -->
<g id="node4" class="node">
<title>secteur nickel</title>
<ellipse fill="#c03a51" stroke="white" stroke-width="0" cx="426.37" cy="-176.26" rx="18" ry="18"/>
<text text-anchor="middle" x="338.87" y="-200.26" font-family="Helvetica,sans-Serif" font-size="20.00" fill="#4d4d4d">secteur nickel</text>
</g>
<!-- relation politique -->
<g id="node5" class="node">
<title>relation politique</title>
<ellipse fill="#02020e" stroke="white" stroke-width="0" cx="493.77" cy="-0.5" rx="0.5" ry="0.5"/>
<text text-anchor="middle" x="443.27" y="-4.4" font-family="Helvetica,sans-Serif" font-size="12.00" fill="#4d4d4d">relation politique</text>
</g>
<!-- avenir avec nickel -->
<g id="node6" class="node">
<title>avenir avec nickel</title>
<ellipse fill="#3b0964" stroke="white" stroke-width="0" cx="533.17" cy="-219.13" rx="7" ry="7"/>
<text text-anchor="middle" x="608.17" y="-230.97" font-family="Helvetica,sans-Serif" font-size="15.20" fill="#4d4d4d">avenir avec nickel</text>
</g>
<!-- pollution -->
<g id="node7" class="node">
<title>pollution</title>
<ellipse fill="#e55c30" stroke="white" stroke-width="0" cx="456.18" cy="-294.17" rx="21.5" ry="21.5"/>
<text text-anchor="middle" x="387.68" y="-279.39" font-family="Helvetica,sans-Serif" font-size="21.60" fill="#4d4d4d">pollution</text>
</g>
<!-- ressource minière -->
<g id="node8" class="node">
<title>ressource minière</title>
<ellipse fill="#ec6726" stroke="white" stroke-width="0" cx="427.21" cy="-113.16" rx="25" ry="25"/>
<text text-anchor="middle" x="297.71" y="-69.6" font-family="Helvetica,sans-Serif" font-size="23.20" fill="#4d4d4d">ressource minière</text>
</g>
<!-- dégradation environnementale -->
<g id="node9" class="node">
<title>dégradation environnementale</title>
<ellipse fill="#fcffa4" stroke="white" stroke-width="0" cx="448.19" cy="-230.8" rx="36" ry="36"/>
<text text-anchor="middle" x="702.19" y="-275.4" font-family="Helvetica,sans-Serif" font-size="28.00" fill="#4d4d4d">dégradation environnementale</text>
</g>
<!-- société néo&#45;calédonienne -->
<g id="node10" class="node">
<title>société néo&#45;calédonienne</title>
<ellipse fill="#7c1d6d" stroke="white" stroke-width="0" cx="399.54" cy="-321.1" rx="14.5" ry="14.5"/>
<text text-anchor="middle" x="266.04" y="-340.88" font-family="Helvetica,sans-Serif" font-size="18.40" fill="#4d4d4d">société néo&#45;calédonienne</text>
</g>
<!-- alternative au développement -->
<g id="node11" class="node">
<title>alternative au développement</title>
<ellipse fill="#f8850f" stroke="white" stroke-width="0" cx="378" cy="-240.45" rx="25" ry="25"/>
<text text-anchor="middle" x="176.5" y="-222.89" font-family="Helvetica,sans-Serif" font-size="23.20" fill="#4d4d4d">alternative au développement</text>
</g>
<!-- économie -->
<g id="node12" class="node">
<title>économie</title>
<ellipse fill="#9d2964" stroke="white" stroke-width="0" cx="483.16" cy="-132.89" rx="14.5" ry="14.5"/>
<text text-anchor="middle" x="514.16" y="-103.67" font-family="Helvetica,sans-Serif" font-size="18.40" fill="#4d4d4d">économie</text>
</g>
<!-- amélioration environnementale -->
<g id="node13" class="node">
<title>amélioration environnementale</title>
<ellipse fill="#61136e" stroke="white" stroke-width="0" cx="598.17" cy="-125.1" rx="11" ry="11"/>
<text text-anchor="middle" x="719.67" y="-140.66" font-family="Helvetica,sans-Serif" font-size="16.80" fill="#4d4d4d">amélioration environnementale</text>
</g>
<!-- essor technologique -->
<g id="node14" class="node">
<title>essor technologique</title>
<ellipse fill="#9b2964" stroke="white" stroke-width="0" cx="539.44" cy="-307.89" rx="14.5" ry="14.5"/>
<text text-anchor="middle" x="619.44" y="-327.67" font-family="Helvetica,sans-Serif" font-size="18.40" fill="#4d4d4d">essor technologique</text>
</g>
<!-- nickel -->
<g id="node15" class="node">
<title>nickel</title>
<ellipse fill="#140b34" stroke="white" stroke-width="0" cx="595.11" cy="-291.92" rx="3.5" ry="3.5"/>
<text text-anchor="middle" x="611.61" y="-299.54" font-family="Helvetica,sans-Serif" font-size="13.60" fill="#4d4d4d">nickel</text>
</g>
<!-- exploitation minière -->
<g id="node16" class="node">
<title>exploitation minière</title>
<ellipse fill="#000004" stroke="white" stroke-width="0" cx="175.23" cy="-131.2" rx="0.5" ry="0.5"/>
<text text-anchor="middle" x="115.23" y="-135.1" font-family="Helvetica,sans-Serif" font-size="12.00" fill="#4d4d4d">exploitation minière</text>
</g>
<!-- nouvelle&#45;calédonie -->
<g id="node17" class="node">
<title>nouvelle&#45;calédonie</title>
<ellipse fill="#150b37" stroke="white" stroke-width="0" cx="276.84" cy="-111.19" rx="3.5" ry="3.5"/>
<text text-anchor="middle" x="209.34" y="-118.81" font-family="Helvetica,sans-Serif" font-size="13.60" fill="#4d4d4d">nouvelle&#45;calédonie</text>
</g>
<!-- nature -->
<g id="node18" class="node">
<title>nature</title>
<ellipse fill="#380962" stroke="white" stroke-width="0" cx="312.86" cy="-441.9" rx="7" ry="7"/>
<text text-anchor="middle" x="280.86" y="-453.74" font-family="Helvetica,sans-Serif" font-size="15.20" fill="#4d4d4d">nature</text>
</g>
</g>
</svg>
