<?xml version="1.0" encoding="UTF-8" standalone="no"?>
<!DOCTYPE svg PUBLIC "-//W3C//DTD SVG 1.1//EN"
 "http://www.w3.org/Graphics/SVG/1.1/DTD/svg11.dtd">
<!-- Generated by graphviz version 2.43.0 (0)
 -->
<!-- Pages: 1 -->
<svg width="954pt" height="507pt"
 viewBox="0.00 0.00 953.96 507.40" xmlns="http://www.w3.org/2000/svg" xmlns:xlink="http://www.w3.org/1999/xlink">
<g id="graph0" class="graph" transform="scale(1 1) rotate(0) translate(4 503.4)">
<polygon fill="white" stroke="transparent" points="-4,4 -4,-503.4 949.96,-503.4 949.96,4 -4,4"/>
<!-- fin&#45;&#45;emploi -->
<g id="edge1" class="edge">
<title>fin&#45;&#45;emploi</title>
<path fill="none" stroke="darkgrey" stroke-width="2.03" d="M503.04,-158.31C496.98,-187.44 483.27,-253.31 476.66,-285.1"/>
</g>
<!-- fin&#45;&#45;pollution -->
<g id="edge2" class="edge">
<title>fin&#45;&#45;pollution</title>
<path fill="none" stroke="darkgrey" stroke-width="3.25" d="M491.96,-148.49C484.51,-150.9 475.17,-153.94 466.62,-156.71"/>
</g>
<!-- fin&#45;&#45;épuisement de la ressource -->
<g id="edge3" class="edge">
<title>fin&#45;&#45;épuisement de la ressource</title>
<path fill="none" stroke="darkgrey" stroke-width="1.26" d="M497.05,-155.53C481.23,-175.97 448.73,-217.99 434.58,-236.27"/>
</g>
<!-- fin&#45;&#45;impact environnemental -->
<g id="edge4" class="edge">
<title>fin&#45;&#45;impact environnemental</title>
<path fill="none" stroke="darkgrey" stroke-width="3.22" d="M491.69,-147.49C473.34,-152.05 440.96,-160.11 415.94,-166.33"/>
</g>
<!-- fin&#45;&#45;amélioration environnementale -->
<g id="edge5" class="edge">
<title>fin&#45;&#45;amélioration environnementale</title>
<path fill="none" stroke="darkgrey" stroke-width="1.06" d="M519.48,-150.34C535.82,-158.14 563.36,-171.3 580.88,-179.66"/>
</g>
<!-- emploi&#45;&#45;pollution -->
<g id="edge6" class="edge">
<title>emploi&#45;&#45;pollution</title>
<path fill="none" stroke="darkgrey" stroke-width="5.71" d="M469.04,-285.13C463.7,-260.73 454.08,-216.83 448.03,-189.26"/>
</g>
<!-- emploi&#45;&#45;épuisement de la ressource -->
<g id="edge7" class="edge">
<title>emploi&#45;&#45;épuisement de la ressource</title>
<path fill="none" stroke="darkgrey" stroke-width="1.15" d="M461.78,-288.64C453.31,-277.8 441.94,-263.24 434.73,-254.01"/>
</g>
<!-- emploi&#45;&#45;impact environnemental -->
<g id="edge8" class="edge">
<title>emploi&#45;&#45;impact environnemental</title>
<path fill="none" stroke="darkgrey" stroke-width="6.34" d="M462.4,-288.27C447.78,-267.92 421.02,-230.7 402.18,-204.5"/>
</g>
<!-- emploi&#45;&#45;amélioration environnementale -->
<g id="edge12" class="edge">
<title>emploi&#45;&#45;amélioration environnementale</title>
<path fill="none" stroke="darkgrey" stroke-width="4.43" d="M486.24,-290.58C510.15,-268.35 560.12,-221.87 583.96,-199.7"/>
</g>
<!-- emploi&#45;&#45;conflit -->
<g id="edge9" class="edge">
<title>emploi&#45;&#45;conflit</title>
<path fill="none" stroke="darkgrey" stroke-width="1.48" d="M466.32,-319.68C463.49,-326.83 460.28,-334.95 457.8,-341.21"/>
</g>
<!-- emploi&#45;&#45;vision positive de la ressource -->
<g id="edge10" class="edge">
<title>emploi&#45;&#45;vision positive de la ressource</title>
<path fill="none" stroke="darkgrey" stroke-width="1.08" d="M455.26,-298.46C428.29,-291.63 378.11,-278.91 359.89,-274.3"/>
</g>
<!-- emploi&#45;&#45;économie du pays -->
<g id="edge11" class="edge">
<title>emploi&#45;&#45;économie du pays</title>
<path fill="none" stroke="darkgrey" stroke-width="3.38" d="M454.69,-304.89C441.12,-306.34 423.06,-308.27 411.63,-309.49"/>
</g>
<!-- emploi&#45;&#45;famille -->
<g id="edge13" class="edge">
<title>emploi&#45;&#45;famille</title>
<path fill="none" stroke="darkgrey" stroke-width="1.33" d="M463.82,-318.73C441.1,-358.03 383.06,-458.45 371.94,-477.69"/>
</g>
<!-- emploi&#45;&#45;développement durable -->
<g id="edge14" class="edge">
<title>emploi&#45;&#45;développement durable</title>
<path fill="none" stroke="darkgrey" stroke-width="1.49" d="M489.32,-295.16C509.43,-285.59 542.93,-269.67 559.52,-261.78"/>
</g>
<!-- emploi&#45;&#45;innovation -->
<g id="edge15" class="edge">
<title>emploi&#45;&#45;innovation</title>
<path fill="none" stroke="darkgrey" stroke-width="1.25" d="M477.29,-285C482.01,-265.5 489.45,-234.74 493.79,-216.83"/>
</g>
<!-- emploi&#45;&#45;formation -->
<g id="edge16" class="edge">
<title>emploi&#45;&#45;formation</title>
<path fill="none" stroke="darkgrey" stroke-width="1.15" d="M471.61,-320.99C468.61,-361.39 461.56,-456.3 460.91,-465.11"/>
</g>
<!-- pollution&#45;&#45;épuisement de la ressource -->
<g id="edge18" class="edge">
<title>pollution&#45;&#45;épuisement de la ressource</title>
<path fill="none" stroke="darkgrey" stroke-width="3.79" d="M438.07,-189.12C435.31,-204.12 431.91,-222.55 429.79,-234.06"/>
</g>
<!-- pollution&#45;&#45;impact environnemental -->
<g id="edge21" class="edge">
<title>pollution&#45;&#45;impact environnemental</title>
<path fill="none" stroke="darkgrey" stroke-width="10" d="M417.91,-168.72C417.5,-168.79 417.1,-168.86 416.7,-168.93"/>
</g>
<!-- pollution&#45;&#45;amélioration environnementale -->
<g id="edge26" class="edge">
<title>pollution&#45;&#45;amélioration environnementale</title>
<path fill="none" stroke="darkgrey" stroke-width="2.6" d="M467.44,-168.19C498.67,-172.82 551.54,-180.66 579.15,-184.76"/>
</g>
<!-- pollution&#45;&#45;conflit -->
<g id="edge22" class="edge">
<title>pollution&#45;&#45;conflit</title>
<path fill="none" stroke="darkgrey" stroke-width="1.92" d="M444.1,-189.73C446.55,-231.03 451.31,-311.37 453.04,-340.61"/>
</g>
<!-- pollution&#45;&#45;vision positive de la ressource -->
<g id="edge23" class="edge">
<title>pollution&#45;&#45;vision positive de la ressource</title>
<path fill="none" stroke="darkgrey" stroke-width="1.3" d="M426.6,-183.82C405.67,-209.08 370.2,-251.88 357.64,-267.04"/>
</g>
<!-- pollution&#45;&#45;économie du pays -->
<g id="edge25" class="edge">
<title>pollution&#45;&#45;économie du pays</title>
<path fill="none" stroke="darkgrey" stroke-width="3.56" d="M435.67,-188.64C426.39,-220.91 410.34,-276.75 403.65,-300.02"/>
</g>
<!-- pollution&#45;&#45;développement durable -->
<g id="edge29" class="edge">
<title>pollution&#45;&#45;développement durable</title>
<path fill="none" stroke="darkgrey" stroke-width="1.44" d="M462.99,-179.37C491.01,-199.81 540.23,-235.73 560.43,-250.47"/>
</g>
<!-- pollution&#45;&#45;innovation -->
<g id="edge30" class="edge">
<title>pollution&#45;&#45;innovation</title>
<path fill="none" stroke="darkgrey" stroke-width="2.55" d="M463.26,-178.91C470.63,-184.06 478.69,-189.68 485.11,-194.16"/>
</g>
<!-- pollution&#45;&#45;montagne -->
<g id="edge19" class="edge">
<title>pollution&#45;&#45;montagne</title>
<path fill="none" stroke="darkgrey" stroke-width="1.24" d="M465.32,-153.88C498.74,-138.24 558.78,-110.14 573.27,-103.36"/>
</g>
<!-- pollution&#45;&#45;biodiversité -->
<g id="edge20" class="edge">
<title>pollution&#45;&#45;biodiversité</title>
<path fill="none" stroke="darkgrey" stroke-width="2.23" d="M424.06,-147.74C398.47,-124.61 353.77,-84.2 338.53,-70.43"/>
</g>
<!-- pollution&#45;&#45;développement -->
<g id="edge24" class="edge">
<title>pollution&#45;&#45;développement</title>
<path fill="none" stroke="darkgrey" stroke-width="3.53" d="M457.41,-185C472.29,-205.62 494.58,-236.48 505.65,-251.82"/>
</g>
<!-- pollution&#45;&#45;revenu -->
<g id="edge27" class="edge">
<title>pollution&#45;&#45;revenu</title>
<path fill="none" stroke="darkgrey" stroke-width="1.13" d="M418.16,-159.23C380.52,-151.12 310.95,-136.13 294.15,-132.51"/>
</g>
<!-- pollution&#45;&#45;déclin -->
<g id="edge28" class="edge">
<title>pollution&#45;&#45;déclin</title>
<path fill="none" stroke="darkgrey" stroke-width="1.34" d="M442.43,-139.39C442.15,-100.27 441.64,-27.47 441.51,-9.88"/>
</g>
<!-- pollution&#45;&#45;richesse -->
<g id="edge31" class="edge">
<title>pollution&#45;&#45;richesse</title>
<path fill="none" stroke="darkgrey" stroke-width="1.33" d="M431.71,-141.78C412.75,-102.25 374.96,-23.45 366.92,-6.68"/>
</g>
<!-- pollution&#45;&#45;automatisation -->
<g id="edge32" class="edge">
<title>pollution&#45;&#45;automatisation</title>
<path fill="none" stroke="darkgrey" stroke-width="1.01" d="M453.94,-141.96C466.91,-116.17 487.11,-75.98 493.11,-64.05"/>
</g>
<!-- épuisement de la ressource&#45;&#45;impact environnemental -->
<g id="edge33" class="edge">
<title>épuisement de la ressource&#45;&#45;impact environnemental</title>
<path fill="none" stroke="darkgrey" stroke-width="4.25" d="M421.65,-235.93C416.4,-228.06 408.53,-216.27 401.11,-205.15"/>
</g>
<!-- épuisement de la ressource&#45;&#45;conflit -->
<g id="edge34" class="edge">
<title>épuisement de la ressource&#45;&#45;conflit</title>
<path fill="none" stroke="darkgrey" stroke-width="1.72" d="M430.44,-256.08C435.43,-276.6 446.11,-320.47 451.06,-340.81"/>
</g>
<!-- épuisement de la ressource&#45;&#45;économie du pays -->
<g id="edge36" class="edge">
<title>épuisement de la ressource&#45;&#45;économie du pays</title>
<path fill="none" stroke="darkgrey" stroke-width="1.53" d="M423.51,-255.34C418.44,-267.58 409.99,-287.97 404.89,-300.28"/>
</g>
<!-- épuisement de la ressource&#45;&#45;développement -->
<g id="edge35" class="edge">
<title>épuisement de la ressource&#45;&#45;développement</title>
<path fill="none" stroke="darkgrey" stroke-width="2.26" d="M438.82,-247.19C455.05,-250.27 485.11,-255.98 501.33,-259.06"/>
</g>
<!-- impact environnemental&#45;&#45;amélioration environnementale -->
<g id="edge45" class="edge">
<title>impact environnemental&#45;&#45;amélioration environnementale</title>
<path fill="none" stroke="darkgrey" stroke-width="2.76" d="M417.18,-177.1C463.93,-179.78 543.53,-184.35 579.08,-186.39"/>
</g>
<!-- impact environnemental&#45;&#45;conflit -->
<g id="edge39" class="edge">
<title>impact environnemental&#45;&#45;conflit</title>
<path fill="none" stroke="darkgrey" stroke-width="4.73" d="M394.84,-208.65C411.65,-249.47 439.04,-316 449.47,-341.35"/>
</g>
<!-- impact environnemental&#45;&#45;vision positive de la ressource -->
<g id="edge41" class="edge">
<title>impact environnemental&#45;&#45;vision positive de la ressource</title>
<path fill="none" stroke="darkgrey" stroke-width="1.85" d="M371.07,-209.69C365.24,-230.06 358.37,-254.02 355.05,-265.6"/>
</g>
<!-- impact environnemental&#45;&#45;économie du pays -->
<g id="edge44" class="edge">
<title>impact environnemental&#45;&#45;économie du pays</title>
<path fill="none" stroke="darkgrey" stroke-width="4.54" d="M386.15,-210.66C390.41,-240.18 396.2,-280.28 398.97,-299.5"/>
</g>
<!-- impact environnemental&#45;&#45;développement durable -->
<g id="edge48" class="edge">
<title>impact environnemental&#45;&#45;développement durable</title>
<path fill="none" stroke="darkgrey" stroke-width="1.16" d="M414.26,-189.5C457.8,-208.45 531.77,-240.65 559,-252.5"/>
</g>
<!-- impact environnemental&#45;&#45;innovation -->
<g id="edge49" class="edge">
<title>impact environnemental&#45;&#45;innovation</title>
<path fill="none" stroke="darkgrey" stroke-width="2.35" d="M416.19,-183.38C438.64,-188.71 466.52,-195.33 483.04,-199.25"/>
</g>
<!-- impact environnemental&#45;&#45;développement -->
<g id="edge43" class="edge">
<title>impact environnemental&#45;&#45;développement</title>
<path fill="none" stroke="darkgrey" stroke-width="5.11" d="M411.15,-194.79C440.7,-214.16 483.98,-242.53 502.92,-254.95"/>
</g>
<!-- impact environnemental&#45;&#45;revenu -->
<g id="edge46" class="edge">
<title>impact environnemental&#45;&#45;revenu</title>
<path fill="none" stroke="darkgrey" stroke-width="1.67" d="M348.3,-159.39C327.42,-149.4 302.67,-137.56 293.8,-133.32"/>
</g>
<!-- impact environnemental&#45;&#45;déclin -->
<g id="edge47" class="edge">
<title>impact environnemental&#45;&#45;déclin</title>
<path fill="none" stroke="darkgrey" stroke-width="1.78" d="M393.24,-140.82C408.84,-97.21 434.5,-25.51 440.3,-9.31"/>
</g>
<!-- impact environnemental&#45;&#45;richesse -->
<g id="edge50" class="edge">
<title>impact environnemental&#45;&#45;richesse</title>
<path fill="none" stroke="darkgrey" stroke-width="1.79" d="M377.73,-139.07C373.72,-95.06 367.28,-24.27 365.73,-7.26"/>
</g>
<!-- impact environnemental&#45;&#45;automatisation -->
<g id="edge52" class="edge">
<title>impact environnemental&#45;&#45;automatisation</title>
<path fill="none" stroke="darkgrey" stroke-width="1.25" d="M406.55,-149.35C435.66,-120.09 480.68,-74.84 492.13,-63.33"/>
</g>
<!-- impact environnemental&#45;&#45;croissance minière -->
<g id="edge38" class="edge">
<title>impact environnemental&#45;&#45;croissance minière</title>
<path fill="none" stroke="darkgrey" stroke-width="1.56" d="M352.24,-152.81C309.63,-119.91 233.02,-60.74 216.77,-48.19"/>
</g>
<!-- impact environnemental&#45;&#45;milieu -->
<g id="edge40" class="edge">
<title>impact environnemental&#45;&#45;milieu</title>
<path fill="none" stroke="darkgrey" stroke-width="1.08" d="M345.55,-183.13C309.04,-191.49 255.54,-203.73 241.21,-207"/>
</g>
<!-- impact environnemental&#45;&#45;avenir -->
<g id="edge42" class="edge">
<title>impact environnemental&#45;&#45;avenir</title>
<path fill="none" stroke="darkgrey" stroke-width="1.35" d="M349.5,-193.27C304.36,-219.41 224.84,-265.46 207.99,-275.22"/>
</g>
<!-- impact environnemental&#45;&#45;investissement -->
<g id="edge51" class="edge">
<title>impact environnemental&#45;&#45;investissement</title>
<path fill="none" stroke="darkgrey" stroke-width="1.02" d="M345.38,-169.69C286.32,-160.85 173.56,-143.96 163.11,-142.4"/>
</g>
<!-- amélioration environnementale&#45;&#45;développement durable -->
<g id="edge61" class="edge">
<title>amélioration environnementale&#45;&#45;développement durable</title>
<path fill="none" stroke="darkgrey" stroke-width="3.53" d="M590.45,-204.29C585.2,-217.49 578.07,-235.43 573.61,-246.62"/>
</g>
<!-- amélioration environnementale&#45;&#45;innovation -->
<g id="edge62" class="edge">
<title>amélioration environnementale&#45;&#45;innovation</title>
<path fill="none" stroke="darkgrey" stroke-width="1.46" d="M579.29,-190.15C559.98,-193.08 529.57,-197.7 511.7,-200.42"/>
</g>
<!-- amélioration environnementale&#45;&#45;maintien de l’exploitation -->
<g id="edge60" class="edge">
<title>amélioration environnementale&#45;&#45;maintien de l’exploitation</title>
<path fill="none" stroke="darkgrey" stroke-width="1.83" d="M615.13,-188.54C655.46,-191.02 751.13,-196.9 770.87,-198.12"/>
</g>
<!-- conflit&#45;&#45;économie du pays -->
<g id="edge53" class="edge">
<title>conflit&#45;&#45;économie du pays</title>
<path fill="none" stroke="darkgrey" stroke-width="1.43" d="M444.92,-344.84C435.14,-337.3 419.4,-325.17 409.55,-317.58"/>
</g>
<!-- vision positive de la ressource&#45;&#45;économie du pays -->
<g id="edge54" class="edge">
<title>vision positive de la ressource&#45;&#45;économie du pays</title>
<path fill="none" stroke="darkgrey" stroke-width="1.48" d="M358.89,-277.24C367.12,-283.84 382.21,-295.94 391.8,-303.63"/>
</g>
<!-- vision positive de la ressource&#45;&#45;innovation -->
<g id="edge55" class="edge">
<title>vision positive de la ressource&#45;&#45;innovation</title>
<path fill="none" stroke="darkgrey" stroke-width="1.18" d="M359.63,-269.38C381.77,-258.63 453.97,-223.61 483.97,-209.05"/>
</g>
<!-- développement durable&#45;&#45;innovation -->
<g id="edge63" class="edge">
<title>développement durable&#45;&#45;innovation</title>
<path fill="none" stroke="darkgrey" stroke-width="1.82" d="M560.61,-250.38C547.65,-240.62 523.49,-222.41 509.03,-211.52"/>
</g>
<!-- innovation&#45;&#45;automatisation -->
<g id="edge64" class="edge">
<title>innovation&#45;&#45;automatisation</title>
<path fill="none" stroke="darkgrey" stroke-width="1.04" d="M496.98,-187.95C496.44,-155.92 495.19,-81.19 494.9,-64.12"/>
</g>
<!-- procédé industriel&#45;&#45;amélioration environnementale -->
<g id="edge17" class="edge">
<title>procédé industriel&#45;&#45;amélioration environnementale</title>
<path fill="none" stroke="darkgrey" stroke-width="1.26" d="M742.55,-84.36C725.81,-96.23 645.73,-153 612.09,-176.85"/>
</g>
<!-- biodiversité&#45;&#45;impact environnemental -->
<g id="edge37" class="edge">
<title>biodiversité&#45;&#45;impact environnemental</title>
<path fill="none" stroke="darkgrey" d="M336.11,-72.18C341.97,-85.61 355.75,-117.17 366.51,-141.81"/>
</g>
<!-- développement&#45;&#45;amélioration environnementale -->
<g id="edge57" class="edge">
<title>développement&#45;&#45;amélioration environnementale</title>
<path fill="none" stroke="darkgrey" stroke-width="2.29" d="M520.84,-253.82C535.49,-241.08 565.77,-214.73 583.47,-199.34"/>
</g>
<!-- développement&#45;&#45;économie du pays -->
<g id="edge56" class="edge">
<title>développement&#45;&#45;économie du pays</title>
<path fill="none" stroke="darkgrey" stroke-width="2.09" d="M502.08,-265.73C480.78,-275.16 432.16,-296.69 410.88,-306.12"/>
</g>
<!-- développement&#45;&#45;développement durable -->
<g id="edge58" class="edge">
<title>développement&#45;&#45;développement durable</title>
<path fill="none" stroke="darkgrey" stroke-width="1.04" d="M523.4,-260.37C533.38,-259.65 548.02,-258.6 558.11,-257.88"/>
</g>
<!-- développement&#45;&#45;innovation -->
<g id="edge59" class="edge">
<title>développement&#45;&#45;innovation</title>
<path fill="none" stroke="darkgrey" stroke-width="1.33" d="M509.62,-250.43C507.19,-241.05 503.64,-227.37 500.96,-217.04"/>
</g>
<!-- fin -->
<g id="node1" class="node">
<title>fin</title>
<ellipse fill="#7d1e6d" stroke="white" stroke-width="0" cx="506.03" cy="-143.92" rx="14.5" ry="14.5"/>
<text text-anchor="middle" x="479.03" y="-114.7" font-family="Helvetica,sans-Serif" font-size="18.40" fill="#4d4d4d">fin</text>
</g>
<!-- emploi -->
<g id="node2" class="node">
<title>emploi</title>
<ellipse fill="#b93556" stroke="white" stroke-width="0" cx="472.95" cy="-302.94" rx="18" ry="18"/>
<text text-anchor="middle" x="421.45" y="-268.94" font-family="Helvetica,sans-Serif" font-size="20.00" fill="#4d4d4d">emploi</text>
</g>
<!-- pollution -->
<g id="node3" class="node">
<title>pollution</title>
<ellipse fill="#ea632a" stroke="white" stroke-width="0" cx="442.61" cy="-164.5" rx="25" ry="25"/>
<text text-anchor="middle" x="366.11" y="-120.94" font-family="Helvetica,sans-Serif" font-size="23.20" fill="#4d4d4d">pollution</text>
</g>
<!-- épuisement de la ressource -->
<g id="node4" class="node">
<title>épuisement de la ressource</title>
<ellipse fill="#65156e" stroke="white" stroke-width="0" cx="427.76" cy="-245.09" rx="11" ry="11"/>
<text text-anchor="middle" x="299.26" y="-238.65" font-family="Helvetica,sans-Serif" font-size="16.80" fill="#4d4d4d">épuisement de la ressource</text>
</g>
<!-- impact environnemental -->
<g id="node5" class="node">
<title>impact environnemental</title>
<ellipse fill="#fcffa4" stroke="white" stroke-width="0" cx="381" cy="-175.02" rx="36" ry="36"/>
<text text-anchor="middle" x="172.5" y="-147.62" font-family="Helvetica,sans-Serif" font-size="28.00" fill="#4d4d4d">impact environnemental</text>
</g>
<!-- amélioration environnementale -->
<g id="node6" class="node">
<title>amélioration environnementale</title>
<ellipse fill="#ba3655" stroke="white" stroke-width="0" cx="597.16" cy="-187.43" rx="18" ry="18"/>
<text text-anchor="middle" x="734.66" y="-211.43" font-family="Helvetica,sans-Serif" font-size="20.00" fill="#4d4d4d">amélioration environnementale</text>
</g>
<!-- conflit -->
<g id="node7" class="node">
<title>conflit</title>
<ellipse fill="#520e6d" stroke="white" stroke-width="0" cx="453.69" cy="-351.59" rx="11" ry="11"/>
<text text-anchor="middle" x="416.69" y="-367.15" font-family="Helvetica,sans-Serif" font-size="16.80" fill="#4d4d4d">conflit</text>
</g>
<!-- vision positive de la ressource -->
<g id="node8" class="node">
<title>vision positive de la ressource</title>
<ellipse fill="#2f0a5b" stroke="white" stroke-width="0" cx="353.06" cy="-272.57" rx="7" ry="7"/>
<text text-anchor="middle" x="231.56" y="-284.41" font-family="Helvetica,sans-Serif" font-size="15.20" fill="#4d4d4d">vision positive de la ressource</text>
</g>
<!-- économie du pays -->
<g id="node9" class="node">
<title>économie du pays</title>
<ellipse fill="#61136e" stroke="white" stroke-width="0" cx="400.59" cy="-310.67" rx="11" ry="11"/>
<text text-anchor="middle" x="312.59" y="-326.23" font-family="Helvetica,sans-Serif" font-size="16.80" fill="#4d4d4d">économie du pays</text>
</g>
<!-- famille -->
<g id="node10" class="node">
<title>famille</title>
<ellipse fill="#050417" stroke="white" stroke-width="0" cx="370.08" cy="-480.9" rx="3.5" ry="3.5"/>
<text text-anchor="middle" x="343.58" y="-488.52" font-family="Helvetica,sans-Serif" font-size="13.60" fill="#4d4d4d">famille</text>
</g>
<!-- développement durable -->
<g id="node11" class="node">
<title>développement durable</title>
<ellipse fill="#61136e" stroke="white" stroke-width="0" cx="569.47" cy="-257.06" rx="11" ry="11"/>
<text text-anchor="middle" x="659.47" y="-272.62" font-family="Helvetica,sans-Serif" font-size="16.80" fill="#4d4d4d">développement durable</text>
</g>
<!-- innovation -->
<g id="node12" class="node">
<title>innovation</title>
<ellipse fill="#7c1d6d" stroke="white" stroke-width="0" cx="497.23" cy="-202.62" rx="14.5" ry="14.5"/>
<text text-anchor="middle" x="532.73" y="-222.4" font-family="Helvetica,sans-Serif" font-size="18.40" fill="#4d4d4d">innovation</text>
</g>
<!-- formation -->
<g id="node13" class="node">
<title>formation</title>
<ellipse fill="#000004" stroke="white" stroke-width="0" cx="460.86" cy="-465.77" rx="0.5" ry="0.5"/>
<text text-anchor="middle" x="431.36" y="-469.67" font-family="Helvetica,sans-Serif" font-size="12.00" fill="#4d4d4d">formation</text>
</g>
<!-- procédé industriel -->
<g id="node14" class="node">
<title>procédé industriel</title>
<ellipse fill="#0c0826" stroke="white" stroke-width="0" cx="745.65" cy="-82.16" rx="3.5" ry="3.5"/>
<text text-anchor="middle" x="680.65" y="-89.78" font-family="Helvetica,sans-Serif" font-size="13.60" fill="#4d4d4d">procédé industriel</text>
</g>
<!-- montagne -->
<g id="node15" class="node">
<title>montagne</title>
<ellipse fill="#0b0724" stroke="white" stroke-width="0" cx="576.48" cy="-101.86" rx="3.5" ry="3.5"/>
<text text-anchor="middle" x="537.98" y="-109.48" font-family="Helvetica,sans-Serif" font-size="13.60" fill="#4d4d4d">montagne</text>
</g>
<!-- biodiversité -->
<g id="node16" class="node">
<title>biodiversité</title>
<ellipse fill="#360961" stroke="white" stroke-width="0" cx="333.27" cy="-65.67" rx="7" ry="7"/>
<text text-anchor="middle" x="281.27" y="-77.51" font-family="Helvetica,sans-Serif" font-size="15.20" fill="#4d4d4d">biodiversité</text>
</g>
<!-- développement -->
<g id="node17" class="node">
<title>développement</title>
<ellipse fill="#62146e" stroke="white" stroke-width="0" cx="512.4" cy="-261.16" rx="11" ry="11"/>
<text text-anchor="middle" x="589.9" y="-236.72" font-family="Helvetica,sans-Serif" font-size="16.80" fill="#4d4d4d">développement</text>
</g>
<!-- revenu -->
<g id="node18" class="node">
<title>revenu</title>
<ellipse fill="#08051d" stroke="white" stroke-width="0" cx="290.43" cy="-131.71" rx="3.5" ry="3.5"/>
<text text-anchor="middle" x="263.43" y="-117.33" font-family="Helvetica,sans-Serif" font-size="13.60" fill="#4d4d4d">revenu</text>
</g>
<!-- déclin -->
<g id="node19" class="node">
<title>déclin</title>
<ellipse fill="#230c4c" stroke="white" stroke-width="0" cx="441.49" cy="-5.98" rx="3.5" ry="3.5"/>
<text text-anchor="middle" x="417.49" y="-13.6" font-family="Helvetica,sans-Serif" font-size="13.60" fill="#4d4d4d">déclin</text>
</g>
<!-- richesse -->
<g id="node20" class="node">
<title>richesse</title>
<ellipse fill="#0b0724" stroke="white" stroke-width="0" cx="365.39" cy="-3.5" rx="3.5" ry="3.5"/>
<text text-anchor="middle" x="334.39" y="-11.12" font-family="Helvetica,sans-Serif" font-size="13.60" fill="#4d4d4d">richesse</text>
</g>
<!-- automatisation -->
<g id="node21" class="node">
<title>automatisation</title>
<ellipse fill="#1f0c48" stroke="white" stroke-width="0" cx="494.84" cy="-60.6" rx="3.5" ry="3.5"/>
<text text-anchor="middle" x="440.34" y="-68.22" font-family="Helvetica,sans-Serif" font-size="13.60" fill="#4d4d4d">automatisation</text>
</g>
<!-- croissance minière -->
<g id="node22" class="node">
<title>croissance minière</title>
<ellipse fill="#050417" stroke="white" stroke-width="0" cx="213.69" cy="-45.81" rx="3.5" ry="3.5"/>
<text text-anchor="middle" x="146.69" y="-53.43" font-family="Helvetica,sans-Serif" font-size="13.60" fill="#4d4d4d">croissance minière</text>
</g>
<!-- milieu -->
<g id="node23" class="node">
<title>milieu</title>
<ellipse fill="#0c0826" stroke="white" stroke-width="0" cx="237.57" cy="-207.84" rx="3.5" ry="3.5"/>
<text text-anchor="middle" x="213.07" y="-215.46" font-family="Helvetica,sans-Serif" font-size="13.60" fill="#4d4d4d">milieu</text>
</g>
<!-- avenir -->
<g id="node24" class="node">
<title>avenir</title>
<ellipse fill="#040312" stroke="white" stroke-width="0" cx="204.79" cy="-277.07" rx="3.5" ry="3.5"/>
<text text-anchor="middle" x="179.79" y="-262.69" font-family="Helvetica,sans-Serif" font-size="13.60" fill="#4d4d4d">avenir</text>
</g>
<!-- investissement -->
<g id="node25" class="node">
<title>investissement</title>
<ellipse fill="#000004" stroke="white" stroke-width="0" cx="162.33" cy="-142.28" rx="0.5" ry="0.5"/>
<text text-anchor="middle" x="206.83" y="-132.18" font-family="Helvetica,sans-Serif" font-size="12.00" fill="#4d4d4d">investissement</text>
</g>
<!-- maintien de l’exploitation -->
<g id="node26" class="node">
<title>maintien de l’exploitation</title>
<ellipse fill="#160b39" stroke="white" stroke-width="0" cx="774.46" cy="-198.34" rx="3.5" ry="3.5"/>
<text text-anchor="middle" x="858.46" y="-183.96" font-family="Helvetica,sans-Serif" font-size="13.60" fill="#4d4d4d">maintien de l’exploitation</text>
</g>
</g>
</svg>
