<?xml version="1.0" encoding="UTF-8" standalone="no"?>
<!DOCTYPE svg PUBLIC "-//W3C//DTD SVG 1.1//EN"
 "http://www.w3.org/Graphics/SVG/1.1/DTD/svg11.dtd">
<!-- Generated by graphviz version 2.43.0 (0)
 -->
<!-- Pages: 1 -->
<svg width="424pt" height="226pt"
 viewBox="0.00 0.00 424.38 226.14" xmlns="http://www.w3.org/2000/svg" xmlns:xlink="http://www.w3.org/1999/xlink">
<g id="graph0" class="graph" transform="scale(1 1) rotate(0) translate(4 222.14)">
<polygon fill="white" stroke="transparent" points="-4,4 -4,-222.14 420.38,-222.14 420.38,4 -4,4"/>
<!-- fin&#45;&#45;pollution -->
<g id="edge1" class="edge">
<title>fin&#45;&#45;pollution</title>
<path fill="none" stroke="darkgrey" stroke-width="1.38" d="M235.3,-29.33C235.21,-38.85 235.07,-52.83 234.95,-65"/>
</g>
<!-- fin&#45;&#45;impact environnemental -->
<g id="edge2" class="edge">
<title>fin&#45;&#45;impact environnemental</title>
<path fill="none" stroke="darkgrey" stroke-width="1.66" d="M241.94,-27.26C250.76,-39.7 266.88,-62.44 280.06,-81.03"/>
</g>
<!-- pollution&#45;&#45;impact environnemental -->
<g id="edge9" class="edge">
<title>pollution&#45;&#45;impact environnemental</title>
<path fill="none" stroke="darkgrey" stroke-width="10" d="M258.65,-97.6C261.18,-98.37 263.78,-99.17 266.39,-99.97"/>
</g>
<!-- pollution&#45;&#45;économie du pays -->
<g id="edge11" class="edge">
<title>pollution&#45;&#45;économie du pays</title>
<path fill="none" stroke="darkgrey" stroke-width="2.27" d="M238.31,-115.01C241.6,-137.65 246.32,-170.11 248.77,-186.99"/>
</g>
<!-- pollution&#45;&#45;amélioration environnementale -->
<g id="edge12" class="edge">
<title>pollution&#45;&#45;amélioration environnementale</title>
<path fill="none" stroke="darkgrey" stroke-width="1.37" d="M214.14,-105.05C206.73,-110.38 198.53,-116.29 191.7,-121.2"/>
</g>
<!-- pollution&#45;&#45;épuisement de la ressource -->
<g id="edge7" class="edge">
<title>pollution&#45;&#45;épuisement de la ressource</title>
<path fill="none" stroke="darkgrey" stroke-width="3.12" d="M256.97,-78.03C277.13,-66.95 305.89,-51.16 320.84,-42.95"/>
</g>
<!-- pollution&#45;&#45;biodiversité -->
<g id="edge8" class="edge">
<title>pollution&#45;&#45;biodiversité</title>
<path fill="none" stroke="darkgrey" stroke-width="1.01" d="M215.16,-73.94C189.04,-52.15 144.74,-15.18 133.43,-5.74"/>
</g>
<!-- pollution&#45;&#45;développement -->
<g id="edge10" class="edge">
<title>pollution&#45;&#45;développement</title>
<path fill="none" stroke="darkgrey" stroke-width="1.42" d="M247.56,-111.84C259.43,-131.79 276.54,-160.55 285.44,-175.5"/>
</g>
<!-- impact environnemental&#45;&#45;économie du pays -->
<g id="edge17" class="edge">
<title>impact environnemental&#45;&#45;économie du pays</title>
<path fill="none" stroke="darkgrey" stroke-width="3.31" d="M282.75,-142.2C273.34,-158.46 262.53,-177.15 256.09,-188.29"/>
</g>
<!-- impact environnemental&#45;&#45;amélioration environnementale -->
<g id="edge18" class="edge">
<title>impact environnemental&#45;&#45;amélioration environnementale</title>
<path fill="none" stroke="darkgrey" stroke-width="2.06" d="M265.44,-116.7C242.36,-120.65 213.26,-125.65 194.85,-128.8"/>
</g>
<!-- impact environnemental&#45;&#45;développement -->
<g id="edge16" class="edge">
<title>impact environnemental&#45;&#45;développement</title>
<path fill="none" stroke="darkgrey" stroke-width="2.52" d="M296.34,-146.67C295.04,-156.68 293.73,-166.82 292.77,-174.21"/>
</g>
<!-- impact environnemental&#45;&#45;conflit -->
<g id="edge15" class="edge">
<title>impact environnemental&#45;&#45;conflit</title>
<path fill="none" stroke="darkgrey" stroke-width="3.22" d="M330.52,-89.59C353.35,-73.34 383.09,-52.16 395.4,-43.39"/>
</g>
<!-- impact environnemental&#45;&#45;richesse -->
<g id="edge19" class="edge">
<title>impact environnemental&#45;&#45;richesse</title>
<path fill="none" stroke="darkgrey" d="M334.25,-124.92C366.05,-138.64 409.97,-157.59 415.34,-159.9"/>
</g>
<!-- emploi&#45;&#45;pollution -->
<g id="edge3" class="edge">
<title>emploi&#45;&#45;pollution</title>
<path fill="none" stroke="darkgrey" stroke-width="4.45" d="M228.13,-137.2C229.08,-130.43 230.17,-122.62 231.19,-115.34"/>
</g>
<!-- emploi&#45;&#45;impact environnemental -->
<g id="edge4" class="edge">
<title>emploi&#45;&#45;impact environnemental</title>
<path fill="none" stroke="darkgrey" stroke-width="4.39" d="M241.22,-146.06C249.5,-141.15 259.99,-134.93 269.85,-129.08"/>
</g>
<!-- emploi&#45;&#45;économie du pays -->
<g id="edge5" class="edge">
<title>emploi&#45;&#45;économie du pays</title>
<path fill="none" stroke="darkgrey" stroke-width="2.46" d="M234.82,-171.27C238.13,-176.97 241.76,-183.23 244.68,-188.28"/>
</g>
<!-- emploi&#45;&#45;amélioration environnementale -->
<g id="edge6" class="edge">
<title>emploi&#45;&#45;amélioration environnementale</title>
<path fill="none" stroke="darkgrey" stroke-width="2.78" d="M209.35,-147.53C204.14,-145.02 198.38,-142.25 193.16,-139.74"/>
</g>
<!-- amélioration environnementale&#45;&#45;développement durable -->
<g id="edge21" class="edge">
<title>amélioration environnementale&#45;&#45;développement durable</title>
<path fill="none" stroke="darkgrey" stroke-width="1.41" d="M159.69,-138.15C144.62,-143.64 123.48,-151.35 112.78,-155.25"/>
</g>
<!-- épuisement de la ressource&#45;&#45;impact environnemental -->
<g id="edge13" class="edge">
<title>épuisement de la ressource&#45;&#45;impact environnemental</title>
<path fill="none" stroke="darkgrey" stroke-width="3.59" d="M326.45,-48C323.34,-55.65 318.94,-66.49 314.67,-77.01"/>
</g>
<!-- épuisement de la ressource&#45;&#45;conflit -->
<g id="edge14" class="edge">
<title>épuisement de la ressource&#45;&#45;conflit</title>
<path fill="none" stroke="darkgrey" stroke-width="1.01" d="M341.7,-37.81C356.25,-38.18 381.47,-38.82 393.84,-39.14"/>
</g>
<!-- développement&#45;&#45;économie du pays -->
<g id="edge20" class="edge">
<title>développement&#45;&#45;économie du pays</title>
<path fill="none" stroke="darkgrey" stroke-width="1.03" d="M280.57,-188.73C274.5,-190.62 266.96,-192.97 260.93,-194.85"/>
</g>
<!-- fin -->
<g id="node1" class="node">
<title>fin</title>
<ellipse fill="#71196e" stroke="white" stroke-width="0" cx="235.41" cy="-18.05" rx="11" ry="11"/>
<text text-anchor="middle" x="218.91" y="-31.65" font-family="Helvetica,sans-Serif" font-size="8.00" fill="#4d4d4d">fin</text>
</g>
<!-- pollution -->
<g id="node2" class="node">
<title>pollution</title>
<ellipse fill="#eb6628" stroke="white" stroke-width="0" cx="234.71" cy="-90.26" rx="25" ry="25"/>
<text text-anchor="middle" x="191.21" y="-67.86" font-family="Helvetica,sans-Serif" font-size="8.00" fill="#4d4d4d">pollution</text>
</g>
<!-- impact environnemental -->
<g id="node3" class="node">
<title>impact environnemental</title>
<ellipse fill="#fcffa4" stroke="white" stroke-width="0" cx="301.03" cy="-110.59" rx="36" ry="36"/>
<text text-anchor="middle" x="315.03" y="-149.19" font-family="Helvetica,sans-Serif" font-size="8.00" fill="#4d4d4d">impact environnemental</text>
</g>
<!-- emploi -->
<g id="node4" class="node">
<title>emploi</title>
<ellipse fill="#b1325a" stroke="white" stroke-width="0" cx="225.58" cy="-155.33" rx="18" ry="18"/>
<text text-anchor="middle" x="193.58" y="-175.93" font-family="Helvetica,sans-Serif" font-size="8.00" fill="#4d4d4d">emploi</text>
</g>
<!-- économie du pays -->
<g id="node5" class="node">
<title>économie du pays</title>
<ellipse fill="#59106e" stroke="white" stroke-width="0" cx="250.39" cy="-198.14" rx="11" ry="11"/>
<text text-anchor="middle" x="201.39" y="-211.74" font-family="Helvetica,sans-Serif" font-size="8.00" fill="#4d4d4d">économie du pays</text>
</g>
<!-- amélioration environnementale -->
<g id="node6" class="node">
<title>amélioration environnementale</title>
<ellipse fill="#ae305c" stroke="white" stroke-width="0" cx="176.83" cy="-131.89" rx="18" ry="18"/>
<text text-anchor="middle" x="94.33" y="-116.49" font-family="Helvetica,sans-Serif" font-size="8.00" fill="#4d4d4d">amélioration environnementale</text>
</g>
<!-- épuisement de la ressource -->
<g id="node7" class="node">
<title>épuisement de la ressource</title>
<ellipse fill="#5d126e" stroke="white" stroke-width="0" cx="330.7" cy="-37.53" rx="11" ry="11"/>
<text text-anchor="middle" x="262.7" y="-51.13" font-family="Helvetica,sans-Serif" font-size="8.00" fill="#4d4d4d">épuisement de la ressource</text>
</g>
<!-- biodiversité -->
<g id="node8" class="node">
<title>biodiversité</title>
<ellipse fill="#0e092b" stroke="white" stroke-width="0" cx="130.74" cy="-3.5" rx="3.5" ry="3.5"/>
<text text-anchor="middle" x="102.74" y="-9.6" font-family="Helvetica,sans-Serif" font-size="8.00" fill="#4d4d4d">biodiversité</text>
</g>
<!-- développement -->
<g id="node9" class="node">
<title>développement</title>
<ellipse fill="#550f6d" stroke="white" stroke-width="0" cx="291.32" cy="-185.38" rx="11" ry="11"/>
<text text-anchor="middle" x="247.82" y="-176.98" font-family="Helvetica,sans-Serif" font-size="8.00" fill="#4d4d4d">développement</text>
</g>
<!-- conflit -->
<g id="node10" class="node">
<title>conflit</title>
<ellipse fill="#420a68" stroke="white" stroke-width="0" cx="401.11" cy="-39.32" rx="7" ry="7"/>
<text text-anchor="middle" x="381.11" y="-48.92" font-family="Helvetica,sans-Serif" font-size="8.00" fill="#4d4d4d">conflit</text>
</g>
<!-- richesse -->
<g id="node11" class="node">
<title>richesse</title>
<ellipse fill="#000004" stroke="white" stroke-width="0" cx="415.88" cy="-160.14" rx="0.5" ry="0.5"/>
<text text-anchor="middle" x="397.88" y="-163.24" font-family="Helvetica,sans-Serif" font-size="8.00" fill="#4d4d4d">richesse</text>
</g>
<!-- développement durable -->
<g id="node12" class="node">
<title>développement durable</title>
<ellipse fill="#490b6a" stroke="white" stroke-width="0" cx="106" cy="-157.72" rx="7" ry="7"/>
<text text-anchor="middle" x="49.5" y="-167.32" font-family="Helvetica,sans-Serif" font-size="8.00" fill="#4d4d4d">développement durable</text>
</g>
</g>
</svg>
