<?xml version="1.0" encoding="UTF-8" standalone="no"?>
<!DOCTYPE svg PUBLIC "-//W3C//DTD SVG 1.1//EN"
 "http://www.w3.org/Graphics/SVG/1.1/DTD/svg11.dtd">
<!-- Generated by graphviz version 2.43.0 (0)
 -->
<!-- Pages: 1 -->
<svg width="916pt" height="572pt"
 viewBox="0.00 0.00 915.86 571.74" xmlns="http://www.w3.org/2000/svg" xmlns:xlink="http://www.w3.org/1999/xlink">
<g id="graph0" class="graph" transform="scale(1 1) rotate(0) translate(4 567.74)">
<polygon fill="white" stroke="transparent" points="-4,4 -4,-567.74 911.86,-567.74 911.86,4 -4,4"/>
<!-- pollution&#45;&#45;dégradation environnementale -->
<g id="edge1" class="edge">
<title>pollution&#45;&#45;dégradation environnementale</title>
<path fill="none" stroke="darkgrey" stroke-width="9.05" d="M399.76,-204.67C410.23,-228.18 429.62,-271.71 443.11,-302"/>
</g>
<!-- pollution&#45;&#45;nouvelle&#45;calédonie -->
<g id="edge2" class="edge">
<title>pollution&#45;&#45;nouvelle&#45;calédonie</title>
<path fill="none" stroke="darkgrey" stroke-width="1.51" d="M374.04,-187.39C315.81,-185.19 137.33,-178.44 109.8,-177.4"/>
</g>
<!-- pollution&#45;&#45;travail -->
<g id="edge3" class="edge">
<title>pollution&#45;&#45;travail</title>
<path fill="none" stroke="darkgrey" stroke-width="6.51" d="M374.06,-189.73C362.4,-190.78 347.23,-192.15 334.99,-193.25"/>
</g>
<!-- pollution&#45;&#45;économie -->
<g id="edge4" class="edge">
<title>pollution&#45;&#45;économie</title>
<path fill="none" stroke="darkgrey" stroke-width="5.38" d="M386.72,-205.23C381.7,-220.45 374.41,-242.56 369.4,-257.76"/>
</g>
<!-- pollution&#45;&#45;nickel -->
<g id="edge5" class="edge">
<title>pollution&#45;&#45;nickel</title>
<path fill="none" stroke="darkgrey" stroke-width="5.29" d="M404.93,-201.04C414.38,-210.77 427.63,-224.43 439.23,-236.4"/>
</g>
<!-- pollution&#45;&#45;ressource minière -->
<g id="edge6" class="edge">
<title>pollution&#45;&#45;ressource minière</title>
<path fill="none" stroke="darkgrey" stroke-width="2.11" d="M377.86,-199.28C334.21,-232.92 204.94,-332.56 169.45,-359.92"/>
</g>
<!-- pollution&#45;&#45;politique -->
<g id="edge7" class="edge">
<title>pollution&#45;&#45;politique</title>
<path fill="none" stroke="darkgrey" stroke-width="3.22" d="M374.43,-189.56C339.29,-192.45 262.01,-198.81 229.89,-201.45"/>
</g>
<!-- pollution&#45;&#45;secteur nickel -->
<g id="edge8" class="edge">
<title>pollution&#45;&#45;secteur nickel</title>
<path fill="none" stroke="darkgrey" stroke-width="3.33" d="M386.32,-205.08C374.06,-239.5 346.41,-317.11 334.12,-351.6"/>
</g>
<!-- pollution&#45;&#45;nature -->
<g id="edge9" class="edge">
<title>pollution&#45;&#45;nature</title>
<path fill="none" stroke="darkgrey" stroke-width="3.58" d="M375.1,-194.09C327.12,-210.74 192.89,-257.34 149.15,-272.53"/>
</g>
<!-- pollution&#45;&#45;amélioration environnementale -->
<g id="edge10" class="edge">
<title>pollution&#45;&#45;amélioration environnementale</title>
<path fill="none" stroke="darkgrey" stroke-width="1.13" d="M410.55,-189.1C472.17,-192.54 670.04,-203.59 682.34,-204.28"/>
</g>
<!-- pollution&#45;&#45;société néo&#45;calédonienne -->
<g id="edge11" class="edge">
<title>pollution&#45;&#45;société néo&#45;calédonienne</title>
<path fill="none" stroke="darkgrey" stroke-width="1.64" d="M377.51,-177.35C338.75,-149.37 236.29,-75.39 217.42,-61.76"/>
</g>
<!-- pollution&#45;&#45;exploitation minière -->
<g id="edge12" class="edge">
<title>pollution&#45;&#45;exploitation minière</title>
<path fill="none" stroke="darkgrey" stroke-width="2.29" d="M381.27,-202.5C346.02,-248.25 237.12,-389.61 205.17,-431.09"/>
</g>
<!-- pollution&#45;&#45;alternative au développement -->
<g id="edge13" class="edge">
<title>pollution&#45;&#45;alternative au développement</title>
<path fill="none" stroke="darkgrey" stroke-width="1.99" d="M386.12,-205.12C361.49,-272.15 272,-515.7 260.23,-547.75"/>
</g>
<!-- pollution&#45;&#45;matériel -->
<g id="edge14" class="edge">
<title>pollution&#45;&#45;matériel</title>
<path fill="none" stroke="darkgrey" stroke-width="2.89" d="M394.61,-206.02C400.27,-251.54 415.13,-370.86 420.29,-412.27"/>
</g>
<!-- pollution&#45;&#45;foncier -->
<g id="edge15" class="edge">
<title>pollution&#45;&#45;foncier</title>
<path fill="none" stroke="darkgrey" stroke-width="1.21" d="M380.88,-173.69C361.34,-149.2 322.46,-100.47 309.11,-83.75"/>
</g>
<!-- pollution&#45;&#45;relation politique -->
<g id="edge16" class="edge">
<title>pollution&#45;&#45;relation politique</title>
<path fill="none" stroke="darkgrey" stroke-width="1.08" d="M376.56,-197.45C316.49,-233 104.44,-358.49 76.54,-375"/>
</g>
<!-- pollution&#45;&#45;industrie -->
<g id="edge17" class="edge">
<title>pollution&#45;&#45;industrie</title>
<path fill="none" stroke="darkgrey" stroke-width="2.92" d="M378.17,-199.9C352.63,-221.13 299.24,-265.53 273.77,-286.7"/>
</g>
<!-- pollution&#45;&#45;risque -->
<g id="edge18" class="edge">
<title>pollution&#45;&#45;risque</title>
<path fill="none" stroke="darkgrey" stroke-width="1.04" d="M402.32,-172.67C428.27,-132.46 496.84,-26.19 509.47,-6.62"/>
</g>
<!-- pollution&#45;&#45;échange commercial -->
<g id="edge19" class="edge">
<title>pollution&#45;&#45;échange commercial</title>
<path fill="none" stroke="darkgrey" stroke-width="1.27" d="M387.25,-205.62C370.75,-262.05 319.44,-437.5 308.41,-475.21"/>
</g>
<!-- dégradation environnementale&#45;&#45;nouvelle&#45;calédonie -->
<g id="edge20" class="edge">
<title>dégradation environnementale&#45;&#45;nouvelle&#45;calédonie</title>
<path fill="none" stroke="darkgrey" stroke-width="1.75" d="M424.79,-320.3C343.41,-283.76 138,-191.53 109.51,-178.75"/>
</g>
<!-- dégradation environnementale&#45;&#45;travail -->
<g id="edge21" class="edge">
<title>dégradation environnementale&#45;&#45;travail</title>
<path fill="none" stroke="darkgrey" stroke-width="8.12" d="M431.72,-309.81C401.79,-280.82 353.77,-234.29 329.12,-210.41"/>
</g>
<!-- dégradation environnementale&#45;&#45;économie -->
<g id="edge22" class="edge">
<title>dégradation environnementale&#45;&#45;économie</title>
<path fill="none" stroke="darkgrey" stroke-width="7.5" d="M427.32,-315.58C411.22,-305.27 392.16,-293.06 379.14,-284.73"/>
</g>
<!-- dégradation environnementale&#45;&#45;nickel -->
<g id="edge23" class="edge">
<title>dégradation environnementale&#45;&#45;nickel</title>
<path fill="none" stroke="darkgrey" stroke-width="10" d="M461.14,-299.22C461.17,-298.93 461.2,-298.65 461.22,-298.36"/>
</g>
<!-- dégradation environnementale&#45;&#45;ressource minière -->
<g id="edge24" class="edge">
<title>dégradation environnementale&#45;&#45;ressource minière</title>
<path fill="none" stroke="darkgrey" stroke-width="4.39" d="M421.99,-338.99C354.6,-346.19 212.25,-361.39 171.48,-365.75"/>
</g>
<!-- dégradation environnementale&#45;&#45;politique -->
<g id="edge25" class="edge">
<title>dégradation environnementale&#45;&#45;politique</title>
<path fill="none" stroke="darkgrey" stroke-width="4.65" d="M426.18,-317.83C372.27,-288.36 264.99,-229.73 228.18,-209.61"/>
</g>
<!-- dégradation environnementale&#45;&#45;secteur nickel -->
<g id="edge26" class="edge">
<title>dégradation environnementale&#45;&#45;secteur nickel</title>
<path fill="none" stroke="darkgrey" stroke-width="4.74" d="M422.74,-344.23C397.81,-350.66 365.39,-359.04 345.68,-364.13"/>
</g>
<!-- dégradation environnementale&#45;&#45;nature -->
<g id="edge27" class="edge">
<title>dégradation environnementale&#45;&#45;nature</title>
<path fill="none" stroke="darkgrey" stroke-width="5.35" d="M422.42,-328.8C352.02,-316.2 197.27,-288.49 149.51,-279.94"/>
</g>
<!-- dégradation environnementale&#45;&#45;amélioration environnementale -->
<g id="edge28" class="edge">
<title>dégradation environnementale&#45;&#45;amélioration environnementale</title>
<path fill="none" stroke="darkgrey" stroke-width="1.45" d="M489.17,-316.96C548.11,-282.69 670.73,-211.41 682.09,-204.81"/>
</g>
<!-- dégradation environnementale&#45;&#45;société néo&#45;calédonienne -->
<g id="edge29" class="edge">
<title>dégradation environnementale&#45;&#45;société néo&#45;calédonienne</title>
<path fill="none" stroke="darkgrey" stroke-width="2.12" d="M433.87,-307.98C377,-243.62 237.34,-85.54 216.92,-62.43"/>
</g>
<!-- dégradation environnementale&#45;&#45;exploitation minière -->
<g id="edge30" class="edge">
<title>dégradation environnementale&#45;&#45;exploitation minière</title>
<path fill="none" stroke="darkgrey" stroke-width="4.11" d="M424.48,-348.88C366.48,-372.7 249.56,-420.74 209.83,-437.07"/>
</g>
<!-- dégradation environnementale&#45;&#45;alternative au développement -->
<g id="edge31" class="edge">
<title>dégradation environnementale&#45;&#45;alternative au développement</title>
<path fill="none" stroke="darkgrey" stroke-width="2.34" d="M433.48,-361.65C384.93,-414.39 279.31,-529.12 261.51,-548.45"/>
</g>
<!-- dégradation environnementale&#45;&#45;matériel -->
<g id="edge32" class="edge">
<title>dégradation environnementale&#45;&#45;matériel</title>
<path fill="none" stroke="darkgrey" stroke-width="4.53" d="M444.75,-368.71C438.77,-384.02 432.01,-401.29 427.44,-412.96"/>
</g>
<!-- dégradation environnementale&#45;&#45;foncier -->
<g id="edge33" class="edge">
<title>dégradation environnementale&#45;&#45;foncier</title>
<path fill="none" stroke="darkgrey" stroke-width="2.41" d="M439.38,-304.13C403.36,-243.74 325.81,-113.71 308.13,-84.07"/>
</g>
<!-- dégradation environnementale&#45;&#45;relation politique -->
<g id="edge34" class="edge">
<title>dégradation environnementale&#45;&#45;relation politique</title>
<path fill="none" stroke="darkgrey" stroke-width="1.48" d="M422.06,-339.03C333.35,-348.65 108.32,-373.03 77.11,-376.41"/>
</g>
<!-- dégradation environnementale&#45;&#45;industrie -->
<g id="edge35" class="edge">
<title>dégradation environnementale&#45;&#45;industrie</title>
<path fill="none" stroke="darkgrey" stroke-width="4.08" d="M422.44,-328.59C379.9,-320.7 310.23,-307.8 277.59,-301.75"/>
</g>
<!-- dégradation environnementale&#45;&#45;risque -->
<g id="edge36" class="edge">
<title>dégradation environnementale&#45;&#45;risque</title>
<path fill="none" stroke="darkgrey" stroke-width="1.83" d="M463.67,-299.34C476.45,-220.29 506.31,-35.57 510.89,-7.19"/>
</g>
<!-- dégradation environnementale&#45;&#45;échange commercial -->
<g id="edge37" class="edge">
<title>dégradation environnementale&#45;&#45;échange commercial</title>
<path fill="none" stroke="darkgrey" stroke-width="2.41" d="M431.82,-360.46C394.92,-396.31 329.85,-459.52 311.35,-477.5"/>
</g>
<!-- dégradation environnementale&#45;&#45;avenir sans nickel -->
<g id="edge38" class="edge">
<title>dégradation environnementale&#45;&#45;avenir sans nickel</title>
<path fill="none" stroke="darkgrey" stroke-width="1.2" d="M493.15,-342.77C596.63,-365.14 893.02,-429.19 906.86,-432.18"/>
</g>
<!-- nouvelle&#45;calédonie&#45;&#45;travail -->
<g id="edge39" class="edge">
<title>nouvelle&#45;calédonie&#45;&#45;travail</title>
<path fill="none" stroke="darkgrey" stroke-width="1.84" d="M109.81,-177.58C131.36,-179.44 244.04,-189.19 291.89,-193.32"/>
</g>
<!-- nouvelle&#45;calédonie&#45;&#45;économie -->
<g id="edge40" class="edge">
<title>nouvelle&#45;calédonie&#45;&#45;économie</title>
<path fill="none" stroke="darkgrey" stroke-width="1.61" d="M109.86,-178.65C135.9,-188.52 294.38,-248.58 346.88,-268.47"/>
</g>
<!-- nouvelle&#45;calédonie&#45;&#45;nickel -->
<g id="edge41" class="edge">
<title>nouvelle&#45;calédonie&#45;&#45;nickel</title>
<path fill="none" stroke="darkgrey" stroke-width="2.84" d="M109.76,-178.11C139.3,-185.13 345.54,-234.16 429.27,-254.06"/>
</g>
<!-- nouvelle&#45;calédonie&#45;&#45;ressource minière -->
<g id="edge42" class="edge">
<title>nouvelle&#45;calédonie&#45;&#45;ressource minière</title>
<path fill="none" stroke="darkgrey" stroke-width="1.51" d="M107.25,-180.89C113.56,-203.01 147.02,-320.25 157.33,-356.35"/>
</g>
<!-- nouvelle&#45;calédonie&#45;&#45;politique -->
<g id="edge43" class="edge">
<title>nouvelle&#45;calédonie&#45;&#45;politique</title>
<path fill="none" stroke="darkgrey" stroke-width="2.07" d="M109.85,-178.11C123.99,-181.4 175.81,-193.43 201.21,-199.34"/>
</g>
<!-- nouvelle&#45;calédonie&#45;&#45;secteur nickel -->
<g id="edge44" class="edge">
<title>nouvelle&#45;calédonie&#45;&#45;secteur nickel</title>
<path fill="none" stroke="darkgrey" stroke-width="1.79" d="M109.02,-179.69C130.54,-198.25 269.76,-318.39 314.33,-356.85"/>
</g>
<!-- nouvelle&#45;calédonie&#45;&#45;nature -->
<g id="edge45" class="edge">
<title>nouvelle&#45;calédonie&#45;&#45;nature</title>
<path fill="none" stroke="darkgrey" stroke-width="1.28" d="M107.32,-181.07C111.2,-194.5 124.41,-240.14 131.15,-263.45"/>
</g>
<!-- nouvelle&#45;calédonie&#45;&#45;société néo&#45;calédonienne -->
<g id="edge46" class="edge">
<title>nouvelle&#45;calédonie&#45;&#45;société néo&#45;calédonienne</title>
<path fill="none" stroke="darkgrey" stroke-width="1.03" d="M108.89,-174.36C123.86,-158.08 197.11,-78.41 211.83,-62.4"/>
</g>
<!-- nouvelle&#45;calédonie&#45;&#45;exploitation minière -->
<g id="edge47" class="edge">
<title>nouvelle&#45;calédonie&#45;&#45;exploitation minière</title>
<path fill="none" stroke="darkgrey" stroke-width="1.29" d="M107.36,-180.62C116.23,-206.78 174.46,-378.4 191.55,-428.77"/>
</g>
<!-- nouvelle&#45;calédonie&#45;&#45;foncier -->
<g id="edge48" class="edge">
<title>nouvelle&#45;calédonie&#45;&#45;foncier</title>
<path fill="none" stroke="darkgrey" stroke-width="1" d="M109.66,-175.54C132.9,-163.9 266.95,-96.76 298.05,-81.19"/>
</g>
<!-- nouvelle&#45;calédonie&#45;&#45;relation politique -->
<g id="edge49" class="edge">
<title>nouvelle&#45;calédonie&#45;&#45;relation politique</title>
<path fill="none" stroke="darkgrey" stroke-width="1.04" d="M105.65,-180.73C101.68,-204.95 78.11,-348.71 74.08,-373.24"/>
</g>
<!-- nouvelle&#45;calédonie&#45;&#45;industrie -->
<g id="edge50" class="edge">
<title>nouvelle&#45;calédonie&#45;&#45;industrie</title>
<path fill="none" stroke="darkgrey" stroke-width="1.55" d="M109.15,-179.58C126.01,-192.89 211.18,-260.14 245.4,-287.16"/>
</g>
<!-- nouvelle&#45;calédonie&#45;&#45;échange commercial -->
<g id="edge51" class="edge">
<title>nouvelle&#45;calédonie&#45;&#45;échange commercial</title>
<path fill="none" stroke="darkgrey" d="M108.2,-180.29C127.15,-209.19 276.35,-436.7 302.43,-476.47"/>
</g>
<!-- travail&#45;&#45;économie -->
<g id="edge52" class="edge">
<title>travail&#45;&#45;économie</title>
<path fill="none" stroke="darkgrey" stroke-width="7.04" d="M325.09,-213.67C333.86,-227.55 345.74,-246.35 354.01,-259.44"/>
</g>
<!-- travail&#45;&#45;nickel -->
<g id="edge53" class="edge">
<title>travail&#45;&#45;nickel</title>
<path fill="none" stroke="darkgrey" stroke-width="8.21" d="M333.16,-203.98C358.11,-215.08 401.42,-234.36 431.45,-247.73"/>
</g>
<!-- travail&#45;&#45;ressource minière -->
<g id="edge54" class="edge">
<title>travail&#45;&#45;ressource minière</title>
<path fill="none" stroke="darkgrey" stroke-width="3.49" d="M299.01,-211.34C267.16,-247.08 191.66,-331.8 167.75,-358.63"/>
</g>
<!-- travail&#45;&#45;politique -->
<g id="edge55" class="edge">
<title>travail&#45;&#45;politique</title>
<path fill="none" stroke="darkgrey" stroke-width="4.33" d="M291.67,-196.84C272.95,-198.26 246.45,-200.28 230.14,-201.52"/>
</g>
<!-- travail&#45;&#45;secteur nickel -->
<g id="edge56" class="edge">
<title>travail&#45;&#45;secteur nickel</title>
<path fill="none" stroke="darkgrey" stroke-width="4.98" d="M315.23,-216.81C318.15,-251.42 323.82,-318.62 326.53,-350.74"/>
</g>
<!-- travail&#45;&#45;nature -->
<g id="edge57" class="edge">
<title>travail&#45;&#45;nature</title>
<path fill="none" stroke="darkgrey" stroke-width="3.72" d="M293.65,-204.3C257.04,-221.18 179.54,-256.92 148.47,-271.25"/>
</g>
<!-- travail&#45;&#45;amélioration environnementale -->
<g id="edge58" class="edge">
<title>travail&#45;&#45;amélioration environnementale</title>
<path fill="none" stroke="darkgrey" stroke-width="1.1" d="M335.15,-195.72C411.88,-197.62 666.34,-203.9 682.17,-204.29"/>
</g>
<!-- travail&#45;&#45;société néo&#45;calédonienne -->
<g id="edge59" class="edge">
<title>travail&#45;&#45;société néo&#45;calédonienne</title>
<path fill="none" stroke="darkgrey" stroke-width="1.96" d="M300.67,-177.74C277.06,-145.41 227.91,-78.08 216.71,-62.74"/>
</g>
<!-- travail&#45;&#45;exploitation minière -->
<g id="edge60" class="edge">
<title>travail&#45;&#45;exploitation minière</title>
<path fill="none" stroke="darkgrey" stroke-width="3.49" d="M304.02,-215.02C280.95,-263.76 221.93,-388.42 202.54,-429.38"/>
</g>
<!-- travail&#45;&#45;alternative au développement -->
<g id="edge61" class="edge">
<title>travail&#45;&#45;alternative au développement</title>
<path fill="none" stroke="darkgrey" stroke-width="1.53" d="M310.12,-216.66C299.18,-288.22 264.35,-515.91 259.51,-547.57"/>
</g>
<!-- travail&#45;&#45;matériel -->
<g id="edge62" class="edge">
<title>travail&#45;&#45;matériel</title>
<path fill="none" stroke="darkgrey" stroke-width="3.81" d="M322.67,-214.92C344.28,-260.95 397.57,-374.46 415.83,-413.35"/>
</g>
<!-- travail&#45;&#45;foncier -->
<g id="edge63" class="edge">
<title>travail&#45;&#45;foncier</title>
<path fill="none" stroke="darkgrey" stroke-width="1.7" d="M311.77,-173.69C309.73,-146.85 306.35,-102.38 305.04,-85.12"/>
</g>
<!-- travail&#45;&#45;relation politique -->
<g id="edge64" class="edge">
<title>travail&#45;&#45;relation politique</title>
<path fill="none" stroke="darkgrey" stroke-width="1.38" d="M296.16,-208.25C245.44,-246.64 99.01,-357.49 76.44,-374.58"/>
</g>
<!-- travail&#45;&#45;industrie -->
<g id="edge65" class="edge">
<title>travail&#45;&#45;industrie</title>
<path fill="none" stroke="darkgrey" stroke-width="4.12" d="M303.3,-214.6C293.15,-234.11 277.67,-263.84 268.14,-282.15"/>
</g>
<!-- travail&#45;&#45;risque -->
<g id="edge66" class="edge">
<title>travail&#45;&#45;risque</title>
<path fill="none" stroke="darkgrey" stroke-width="1.96" d="M328.95,-180.14C371.63,-138.84 488.8,-25.46 508.62,-6.27"/>
</g>
<!-- travail&#45;&#45;échange commercial -->
<g id="edge67" class="edge">
<title>travail&#45;&#45;échange commercial</title>
<path fill="none" stroke="darkgrey" stroke-width="2.08" d="M312.88,-216.77C311.41,-276 307.38,-439.04 306.49,-475.22"/>
</g>
<!-- économie&#45;&#45;nickel -->
<g id="edge68" class="edge">
<title>économie&#45;&#45;nickel</title>
<path fill="none" stroke="darkgrey" stroke-width="6.43" d="M381.77,-272.65C394.78,-271.04 412.8,-268.82 428.69,-266.85"/>
</g>
<!-- économie&#45;&#45;ressource minière -->
<g id="edge69" class="edge">
<title>économie&#45;&#45;ressource minière</title>
<path fill="none" stroke="darkgrey" stroke-width="2.45" d="M347.11,-282.41C306.5,-300.79 203.28,-347.51 170.5,-362.34"/>
</g>
<!-- économie&#45;&#45;politique -->
<g id="edge70" class="edge">
<title>économie&#45;&#45;politique</title>
<path fill="none" stroke="darkgrey" stroke-width="4.8" d="M347.32,-266.87C317.6,-252.39 255.52,-222.16 228.49,-209"/>
</g>
<!-- économie&#45;&#45;secteur nickel -->
<g id="edge71" class="edge">
<title>économie&#45;&#45;secteur nickel</title>
<path fill="none" stroke="darkgrey" stroke-width="3.79" d="M357.21,-292.08C350.76,-309 340.98,-334.7 334.55,-351.58"/>
</g>
<!-- économie&#45;&#45;nature -->
<g id="edge72" class="edge">
<title>économie&#45;&#45;nature</title>
<path fill="none" stroke="darkgrey" stroke-width="2.92" d="M345.44,-275.07C301.37,-275.56 190.11,-276.78 149.94,-277.22"/>
</g>
<!-- économie&#45;&#45;amélioration environnementale -->
<g id="edge73" class="edge">
<title>économie&#45;&#45;amélioration environnementale</title>
<path fill="none" stroke="darkgrey" stroke-width="1.11" d="M381.37,-270.98C446.2,-256.65 668.44,-207.52 682.27,-204.46"/>
</g>
<!-- économie&#45;&#45;société néo&#45;calédonienne -->
<g id="edge74" class="edge">
<title>économie&#45;&#45;société néo&#45;calédonienne</title>
<path fill="none" stroke="darkgrey" stroke-width="1.61" d="M353.49,-260.07C322.52,-215.43 231.21,-83.81 216.44,-62.51"/>
</g>
<!-- économie&#45;&#45;exploitation minière -->
<g id="edge75" class="edge">
<title>économie&#45;&#45;exploitation minière</title>
<path fill="none" stroke="darkgrey" stroke-width="2.17" d="M350.89,-287.76C318.87,-319.83 236.07,-402.77 206.75,-432.14"/>
</g>
<!-- économie&#45;&#45;alternative au développement -->
<g id="edge76" class="edge">
<title>économie&#45;&#45;alternative au développement</title>
<path fill="none" stroke="darkgrey" stroke-width="1.62" d="M357.36,-291.74C336.38,-347.06 270.44,-520.92 260.27,-547.75"/>
</g>
<!-- économie&#45;&#45;matériel -->
<g id="edge77" class="edge">
<title>économie&#45;&#45;matériel</title>
<path fill="none" stroke="darkgrey" stroke-width="2.37" d="M370.22,-291.7C381.85,-321.96 406.07,-385 416.79,-412.89"/>
</g>
<!-- économie&#45;&#45;foncier -->
<g id="edge78" class="edge">
<title>économie&#45;&#45;foncier</title>
<path fill="none" stroke="darkgrey" stroke-width="1.33" d="M358.5,-257.4C345.98,-215.8 314.83,-112.3 306.54,-84.78"/>
</g>
<!-- économie&#45;&#45;relation politique -->
<g id="edge79" class="edge">
<title>économie&#45;&#45;relation politique</title>
<path fill="none" stroke="darkgrey" stroke-width="1.48" d="M346.47,-280.94C288.62,-301.26 103.93,-366.12 76.83,-375.63"/>
</g>
<!-- économie&#45;&#45;industrie -->
<g id="edge80" class="edge">
<title>économie&#45;&#45;industrie</title>
<path fill="none" stroke="darkgrey" stroke-width="2.77" d="M346.1,-278.87C326.96,-283.2 296.59,-290.07 277.41,-294.41"/>
</g>
<!-- économie&#45;&#45;risque -->
<g id="edge81" class="edge">
<title>économie&#45;&#45;risque</title>
<path fill="none" stroke="darkgrey" stroke-width="1.12" d="M372.56,-258.71C402,-204.62 496,-31.95 509.79,-6.61"/>
</g>
<!-- économie&#45;&#45;échange commercial -->
<g id="edge82" class="edge">
<title>économie&#45;&#45;échange commercial</title>
<path fill="none" stroke="darkgrey" stroke-width="1.79" d="M358.86,-292.56C346.81,-336.08 316.14,-446.88 308.21,-475.54"/>
</g>
<!-- nickel&#45;&#45;ressource minière -->
<g id="edge83" class="edge">
<title>nickel&#45;&#45;ressource minière</title>
<path fill="none" stroke="darkgrey" stroke-width="5.33" d="M430.19,-274.22C361.83,-297.7 211.68,-349.3 170.8,-363.35"/>
</g>
<!-- nickel&#45;&#45;politique -->
<g id="edge84" class="edge">
<title>nickel&#45;&#45;politique</title>
<path fill="none" stroke="darkgrey" stroke-width="3.49" d="M429.33,-253.99C373.69,-240.63 267.72,-215.19 229.57,-206.03"/>
</g>
<!-- nickel&#45;&#45;secteur nickel -->
<g id="edge85" class="edge">
<title>nickel&#45;&#45;secteur nickel</title>
<path fill="none" stroke="darkgrey" stroke-width="6.5" d="M435.88,-284.71C407.28,-306.98 364.46,-340.32 342.37,-357.52"/>
</g>
<!-- nickel&#45;&#45;nature -->
<g id="edge86" class="edge">
<title>nickel&#45;&#45;nature</title>
<path fill="none" stroke="darkgrey" stroke-width="5.66" d="M428.3,-264.07C356.46,-267.34 198.54,-274.5 149.8,-276.72"/>
</g>
<!-- nickel&#45;&#45;amélioration environnementale -->
<g id="edge87" class="edge">
<title>nickel&#45;&#45;amélioration environnementale</title>
<path fill="none" stroke="darkgrey" stroke-width="1.12" d="M499.58,-253.09C558.44,-237.44 671.67,-207.31 682.16,-204.52"/>
</g>
<!-- nickel&#45;&#45;société néo&#45;calédonienne -->
<g id="edge88" class="edge">
<title>nickel&#45;&#45;société néo&#45;calédonienne</title>
<path fill="none" stroke="darkgrey" stroke-width="1.23" d="M436.29,-239.56C375.99,-190.65 238.3,-78.97 217.16,-61.82"/>
</g>
<!-- nickel&#45;&#45;exploitation minière -->
<g id="edge89" class="edge">
<title>nickel&#45;&#45;exploitation minière</title>
<path fill="none" stroke="darkgrey" stroke-width="7.16" d="M434.5,-282.58C375.85,-321.98 248.23,-407.73 208.39,-434.49"/>
</g>
<!-- nickel&#45;&#45;alternative au développement -->
<g id="edge90" class="edge">
<title>nickel&#45;&#45;alternative au développement</title>
<path fill="none" stroke="darkgrey" stroke-width="1.86" d="M443.46,-291.98C394.96,-360.13 278.12,-524.3 261.04,-548.29"/>
</g>
<!-- nickel&#45;&#45;matériel -->
<g id="edge91" class="edge">
<title>nickel&#45;&#45;matériel</title>
<path fill="none" stroke="darkgrey" stroke-width="5.74" d="M455.39,-297.67C446.14,-333.48 432.27,-387.2 425.74,-412.51"/>
</g>
<!-- nickel&#45;&#45;foncier -->
<g id="edge92" class="edge">
<title>nickel&#45;&#45;foncier</title>
<path fill="none" stroke="darkgrey" stroke-width="2.48" d="M440.88,-235.21C402.46,-190.92 328.73,-105.91 309.29,-83.49"/>
</g>
<!-- nickel&#45;&#45;relation politique -->
<g id="edge93" class="edge">
<title>nickel&#45;&#45;relation politique</title>
<path fill="none" stroke="darkgrey" stroke-width="1.47" d="M429.79,-272.58C340.83,-298.6 109.33,-366.32 77.22,-375.71"/>
</g>
<!-- nickel&#45;&#45;industrie -->
<g id="edge94" class="edge">
<title>nickel&#45;&#45;industrie</title>
<path fill="none" stroke="darkgrey" stroke-width="8.05" d="M428.81,-268.7C384.68,-276.46 311.28,-289.36 277.58,-295.28"/>
</g>
<!-- nickel&#45;&#45;risque -->
<g id="edge95" class="edge">
<title>nickel&#45;&#45;risque</title>
<path fill="none" stroke="darkgrey" stroke-width="1.2" d="M470.92,-226.97C482.64,-162.43 506.63,-30.25 510.85,-7.02"/>
</g>
<!-- nickel&#45;&#45;échange commercial -->
<g id="edge96" class="edge">
<title>nickel&#45;&#45;échange commercial</title>
<path fill="none" stroke="darkgrey" stroke-width="3.21" d="M443.15,-292.1C405.38,-344.63 328.94,-450.93 310.42,-476.68"/>
</g>
<!-- nickel&#45;&#45;avenir sans nickel -->
<g id="edge97" class="edge">
<title>nickel&#45;&#45;avenir sans nickel</title>
<path fill="none" stroke="darkgrey" stroke-width="1.08" d="M498.14,-275.34C599.07,-314.05 893.13,-426.84 906.86,-432.1"/>
</g>
<!-- ressource minière&#45;&#45;politique -->
<g id="edge98" class="edge">
<title>ressource minière&#45;&#45;politique</title>
<path fill="none" stroke="darkgrey" stroke-width="3.01" d="M163.96,-356.16C173.63,-327.32 200.09,-248.41 210.82,-216.4"/>
</g>
<!-- ressource minière&#45;&#45;secteur nickel -->
<g id="edge99" class="edge">
<title>ressource minière&#45;&#45;secteur nickel</title>
<path fill="none" stroke="darkgrey" stroke-width="2.25" d="M171.35,-367.05C199.62,-367.35 275.03,-368.13 309.89,-368.49"/>
</g>
<!-- ressource minière&#45;&#45;nature -->
<g id="edge100" class="edge">
<title>ressource minière&#45;&#45;nature</title>
<path fill="none" stroke="darkgrey" stroke-width="2.03" d="M157.36,-356.31C152.83,-340.19 144.21,-309.52 139.16,-291.52"/>
</g>
<!-- ressource minière&#45;&#45;société néo&#45;calédonienne -->
<g id="edge101" class="edge">
<title>ressource minière&#45;&#45;société néo&#45;calédonienne</title>
<path fill="none" stroke="darkgrey" stroke-width="1" d="M162.27,-356C171.19,-305.31 208.28,-94.43 213.74,-63.41"/>
</g>
<!-- ressource minière&#45;&#45;exploitation minière -->
<g id="edge102" class="edge">
<title>ressource minière&#45;&#45;exploitation minière</title>
<path fill="none" stroke="darkgrey" stroke-width="2.54" d="M165.19,-377.15C171.59,-390.63 182.86,-414.39 189.93,-429.29"/>
</g>
<!-- ressource minière&#45;&#45;alternative au développement -->
<g id="edge103" class="edge">
<title>ressource minière&#45;&#45;alternative au développement</title>
<path fill="none" stroke="darkgrey" stroke-width="1.09" d="M165.65,-376.85C184.21,-411.54 245.75,-526.58 257.13,-547.84"/>
</g>
<!-- ressource minière&#45;&#45;matériel -->
<g id="edge104" class="edge">
<title>ressource minière&#45;&#45;matériel</title>
<path fill="none" stroke="darkgrey" stroke-width="2.06" d="M171.26,-369.43C212.77,-378.9 360.81,-412.69 407.72,-423.4"/>
</g>
<!-- ressource minière&#45;&#45;relation politique -->
<g id="edge105" class="edge">
<title>ressource minière&#45;&#45;relation politique</title>
<path fill="none" stroke="darkgrey" stroke-width="1.05" d="M149.35,-368.19C129.63,-370.43 89.19,-375.02 77.03,-376.4"/>
</g>
<!-- ressource minière&#45;&#45;industrie -->
<g id="edge106" class="edge">
<title>ressource minière&#45;&#45;industrie</title>
<path fill="none" stroke="darkgrey" stroke-width="2.63" d="M169.51,-360.61C186.7,-348.76 223.93,-323.08 244.77,-308.7"/>
</g>
<!-- ressource minière&#45;&#45;échange commercial -->
<g id="edge107" class="edge">
<title>ressource minière&#45;&#45;échange commercial</title>
<path fill="none" stroke="darkgrey" stroke-width="1.75" d="M169.04,-373.81C196.04,-395.17 278.01,-460.01 300.53,-477.82"/>
</g>
<!-- politique&#45;&#45;secteur nickel -->
<g id="edge108" class="edge">
<title>politique&#45;&#45;secteur nickel</title>
<path fill="none" stroke="darkgrey" stroke-width="3.42" d="M223.72,-214.85C243.93,-244.66 295.76,-321.08 317.83,-353.63"/>
</g>
<!-- politique&#45;&#45;nature -->
<g id="edge109" class="edge">
<title>politique&#45;&#45;nature</title>
<path fill="none" stroke="darkgrey" stroke-width="1.78" d="M204.61,-212.72C189.21,-227.06 161.14,-253.2 145.83,-267.46"/>
</g>
<!-- politique&#45;&#45;société néo&#45;calédonienne -->
<g id="edge110" class="edge">
<title>politique&#45;&#45;société néo&#45;calédonienne</title>
<path fill="none" stroke="darkgrey" stroke-width="1.61" d="M215.33,-188.14C215.1,-156.03 214.56,-80.43 214.44,-63.15"/>
</g>
<!-- politique&#45;&#45;exploitation minière -->
<g id="edge111" class="edge">
<title>politique&#45;&#45;exploitation minière</title>
<path fill="none" stroke="darkgrey" stroke-width="2.03" d="M214.27,-217.29C210.83,-260.24 200.83,-385.48 197.42,-428.18"/>
</g>
<!-- politique&#45;&#45;alternative au développement -->
<g id="edge112" class="edge">
<title>politique&#45;&#45;alternative au développement</title>
<path fill="none" stroke="darkgrey" stroke-width="1.66" d="M217.25,-217.18C224.91,-278.51 254.36,-514.54 258.47,-547.43"/>
</g>
<!-- politique&#45;&#45;matériel -->
<g id="edge113" class="edge">
<title>politique&#45;&#45;matériel</title>
<path fill="none" stroke="darkgrey" stroke-width="1.6" d="M225.4,-213.45C260.39,-251.38 377.38,-378.21 412.21,-415.98"/>
</g>
<!-- politique&#45;&#45;foncier -->
<g id="edge114" class="edge">
<title>politique&#45;&#45;foncier</title>
<path fill="none" stroke="darkgrey" stroke-width="1.36" d="M223.97,-190.69C242.69,-164.48 286.76,-102.78 300.4,-83.69"/>
</g>
<!-- politique&#45;&#45;relation politique -->
<g id="edge115" class="edge">
<title>politique&#45;&#45;relation politique</title>
<path fill="none" stroke="darkgrey" stroke-width="1.82" d="M206.12,-214.07C177.51,-249.18 91.84,-354.3 76.02,-373.7"/>
</g>
<!-- politique&#45;&#45;industrie -->
<g id="edge116" class="edge">
<title>politique&#45;&#45;industrie</title>
<path fill="none" stroke="darkgrey" stroke-width="2.92" d="M221.59,-215.96C229.56,-233.23 243.47,-263.35 252.09,-282.01"/>
</g>
<!-- politique&#45;&#45;risque -->
<g id="edge117" class="edge">
<title>politique&#45;&#45;risque</title>
<path fill="none" stroke="darkgrey" stroke-width="1.05" d="M227.78,-194.34C279.87,-159.3 480.32,-24.47 508.25,-5.68"/>
</g>
<!-- politique&#45;&#45;échange commercial -->
<g id="edge118" class="edge">
<title>politique&#45;&#45;échange commercial</title>
<path fill="none" stroke="darkgrey" stroke-width="1.68" d="M219.94,-216.51C236.27,-266.79 292.02,-438.41 304.02,-475.35"/>
</g>
<!-- secteur nickel&#45;&#45;nature -->
<g id="edge119" class="edge">
<title>secteur nickel&#45;&#45;nature</title>
<path fill="none" stroke="darkgrey" stroke-width="2.34" d="M311.6,-360.9C274.07,-343.13 182.7,-299.88 148.45,-283.66"/>
</g>
<!-- secteur nickel&#45;&#45;amélioration environnementale -->
<g id="edge120" class="edge">
<title>secteur nickel&#45;&#45;amélioration environnementale</title>
<path fill="none" stroke="darkgrey" stroke-width="1.17" d="M344.68,-360.97C412.65,-329.49 666.38,-211.98 682.17,-204.67"/>
</g>
<!-- secteur nickel&#45;&#45;société néo&#45;calédonienne -->
<g id="edge121" class="edge">
<title>secteur nickel&#45;&#45;société néo&#45;calédonienne</title>
<path fill="none" stroke="darkgrey" stroke-width="1.57" d="M321.77,-351.62C299.72,-291.63 226.48,-92.42 215.73,-63.18"/>
</g>
<!-- secteur nickel&#45;&#45;exploitation minière -->
<g id="edge122" class="edge">
<title>secteur nickel&#45;&#45;exploitation minière</title>
<path fill="none" stroke="darkgrey" stroke-width="2.57" d="M312.14,-377.6C285.72,-392.43 233.27,-421.87 209.06,-435.46"/>
</g>
<!-- secteur nickel&#45;&#45;alternative au développement -->
<g id="edge123" class="edge">
<title>secteur nickel&#45;&#45;alternative au développement</title>
<path fill="none" stroke="darkgrey" stroke-width="1.33" d="M321.66,-385.53C306.29,-426.13 267.92,-527.54 260.28,-547.72"/>
</g>
<!-- secteur nickel&#45;&#45;matériel -->
<g id="edge124" class="edge">
<title>secteur nickel&#45;&#45;matériel</title>
<path fill="none" stroke="darkgrey" stroke-width="3" d="M343.57,-378.26C362.04,-389.65 392.5,-408.43 409.54,-418.94"/>
</g>
<!-- secteur nickel&#45;&#45;foncier -->
<g id="edge125" class="edge">
<title>secteur nickel&#45;&#45;foncier</title>
<path fill="none" stroke="darkgrey" stroke-width="2.02" d="M326.57,-350.5C321.97,-293.81 308.05,-121.92 305.06,-85"/>
</g>
<!-- secteur nickel&#45;&#45;relation politique -->
<g id="edge126" class="edge">
<title>secteur nickel&#45;&#45;relation politique</title>
<path fill="none" stroke="darkgrey" stroke-width="1.19" d="M309.73,-369.26C256.39,-370.97 103.19,-375.85 77.25,-376.68"/>
</g>
<!-- secteur nickel&#45;&#45;industrie -->
<g id="edge127" class="edge">
<title>secteur nickel&#45;&#45;industrie</title>
<path fill="none" stroke="darkgrey" stroke-width="5.16" d="M315.18,-355.47C302.96,-342.91 284.67,-324.12 272.47,-311.58"/>
</g>
<!-- secteur nickel&#45;&#45;échange commercial -->
<g id="edge128" class="edge">
<title>secteur nickel&#45;&#45;échange commercial</title>
<path fill="none" stroke="darkgrey" stroke-width="2.23" d="M324.64,-386.45C319.77,-411.93 311.02,-457.73 307.67,-475.28"/>
</g>
<!-- nature&#45;&#45;société néo&#45;calédonienne -->
<g id="edge129" class="edge">
<title>nature&#45;&#45;société néo&#45;calédonienne</title>
<path fill="none" stroke="darkgrey" stroke-width="1.67" d="M140.26,-263.42C156.17,-219.67 204.55,-86.71 213.11,-63.17"/>
</g>
<!-- nature&#45;&#45;exploitation minière -->
<g id="edge130" class="edge">
<title>nature&#45;&#45;exploitation minière</title>
<path fill="none" stroke="darkgrey" stroke-width="1.88" d="M140.29,-291.19C151.81,-322.37 179.75,-397.95 191.22,-428.99"/>
</g>
<!-- nature&#45;&#45;alternative au développement -->
<g id="edge131" class="edge">
<title>nature&#45;&#45;alternative au développement</title>
<path fill="none" stroke="darkgrey" stroke-width="1.14" d="M141.32,-290.96C164.44,-342.12 245.56,-521.63 257.48,-548"/>
</g>
<!-- nature&#45;&#45;matériel -->
<g id="edge132" class="edge">
<title>nature&#45;&#45;matériel</title>
<path fill="none" stroke="darkgrey" stroke-width="3.36" d="M148.26,-284.18C196.05,-309.05 361.01,-394.9 408.93,-419.83"/>
</g>
<!-- nature&#45;&#45;foncier -->
<g id="edge133" class="edge">
<title>nature&#45;&#45;foncier</title>
<path fill="none" stroke="darkgrey" stroke-width="1.64" d="M144.77,-266.09C176.39,-228.84 276.66,-110.74 299.73,-83.57"/>
</g>
<!-- nature&#45;&#45;industrie -->
<g id="edge134" class="edge">
<title>nature&#45;&#45;industrie</title>
<path fill="none" stroke="darkgrey" stroke-width="2.69" d="M149.95,-279.88C172.88,-283.75 216.97,-291.21 241.7,-295.39"/>
</g>
<!-- nature&#45;&#45;échange commercial -->
<g id="edge135" class="edge">
<title>nature&#45;&#45;échange commercial</title>
<path fill="none" stroke="darkgrey" stroke-width="1.43" d="M144.63,-288.69C176.44,-326.8 278.96,-449.63 301.78,-476.97"/>
</g>
<!-- société néo&#45;calédonienne&#45;&#45;matériel -->
<g id="edge136" class="edge">
<title>société néo&#45;calédonienne&#45;&#45;matériel</title>
<path fill="none" stroke="darkgrey" stroke-width="1.6" d="M216.21,-62.76C234.09,-94.37 380.21,-352.66 414.77,-413.76"/>
</g>
<!-- société néo&#45;calédonienne&#45;&#45;relation politique -->
<g id="edge137" class="edge">
<title>société néo&#45;calédonienne&#45;&#45;relation politique</title>
<path fill="none" stroke="darkgrey" stroke-width="1.08" d="M212.83,-63.15C198.38,-95.69 89.47,-340.85 75.07,-373.27"/>
</g>
<!-- exploitation minière&#45;&#45;matériel -->
<g id="edge138" class="edge">
<title>exploitation minière&#45;&#45;matériel</title>
<path fill="none" stroke="darkgrey" stroke-width="2.77" d="M210.73,-441.62C251.42,-438.74 366.54,-430.6 407.44,-427.71"/>
</g>
<!-- exploitation minière&#45;&#45;foncier -->
<g id="edge139" class="edge">
<title>exploitation minière&#45;&#45;foncier</title>
<path fill="none" stroke="darkgrey" stroke-width="1.11" d="M200.5,-428.35C218.68,-367.11 289.61,-128.1 302.48,-84.73"/>
</g>
<!-- exploitation minière&#45;&#45;relation politique -->
<g id="edge140" class="edge">
<title>exploitation minière&#45;&#45;relation politique</title>
<path fill="none" stroke="darkgrey" stroke-width="1.02" d="M183.12,-435.6C155.41,-420.73 92.27,-386.87 76.91,-378.63"/>
</g>
<!-- exploitation minière&#45;&#45;industrie -->
<g id="edge141" class="edge">
<title>exploitation minière&#45;&#45;industrie</title>
<path fill="none" stroke="darkgrey" stroke-width="3.18" d="M202.11,-429.33C213.7,-402.98 239.55,-344.18 252.29,-315.22"/>
</g>
<!-- exploitation minière&#45;&#45;échange commercial -->
<g id="edge142" class="edge">
<title>exploitation minière&#45;&#45;échange commercial</title>
<path fill="none" stroke="darkgrey" stroke-width="1.95" d="M210.2,-447.68C234.14,-456.33 282.21,-473.69 299.73,-480.01"/>
</g>
<!-- alternative au développement&#45;&#45;industrie -->
<g id="edge143" class="edge">
<title>alternative au développement&#45;&#45;industrie</title>
<path fill="none" stroke="darkgrey" stroke-width="1.35" d="M258.95,-547.67C259.03,-522.34 259.46,-369.44 259.62,-316.47"/>
</g>
<!-- matériel&#45;&#45;foncier -->
<g id="edge144" class="edge">
<title>matériel&#45;&#45;foncier</title>
<path fill="none" stroke="darkgrey" stroke-width="1.73" d="M417.33,-412.57C397.39,-353.45 320.92,-126.68 306.75,-84.68"/>
</g>
<!-- matériel&#45;&#45;industrie -->
<g id="edge145" class="edge">
<title>matériel&#45;&#45;industrie</title>
<path fill="none" stroke="darkgrey" stroke-width="4.1" d="M410.66,-417.66C381.78,-394.85 305.87,-334.91 274.04,-309.77"/>
</g>
<!-- matériel&#45;&#45;échange commercial -->
<g id="edge146" class="edge">
<title>matériel&#45;&#45;échange commercial</title>
<path fill="none" stroke="darkgrey" stroke-width="1.86" d="M408.8,-433.07C383.86,-445.07 330.87,-470.57 312.63,-479.35"/>
</g>
<!-- foncier&#45;&#45;industrie -->
<g id="edge147" class="edge">
<title>foncier&#45;&#45;industrie</title>
<path fill="none" stroke="darkgrey" stroke-width="2.1" d="M303,-85.3C296.74,-116.08 272.5,-235.33 263.26,-280.73"/>
</g>
<!-- relation politique&#45;&#45;échange commercial -->
<g id="edge148" class="edge">
<title>relation politique&#45;&#45;échange commercial</title>
<path fill="none" stroke="darkgrey" stroke-width="1.3" d="M76.79,-378.29C101.99,-389.72 264.36,-463.37 299.58,-479.34"/>
</g>
<!-- industrie&#45;&#45;risque -->
<g id="edge149" class="edge">
<title>industrie&#45;&#45;risque</title>
<path fill="none" stroke="darkgrey" stroke-width="1.11" d="M271.48,-284.6C317.96,-230.16 486.84,-32.36 509.07,-6.33"/>
</g>
<!-- industrie&#45;&#45;échange commercial -->
<g id="edge150" class="edge">
<title>industrie&#45;&#45;échange commercial</title>
<path fill="none" stroke="darkgrey" stroke-width="1.97" d="M264.14,-316.07C274.13,-355.46 297.89,-449.17 304.55,-475.44"/>
</g>
<!-- pollution -->
<g id="node1" class="node">
<title>pollution</title>
<ellipse fill="#ab2f5e" stroke="white" stroke-width="0" cx="392.37" cy="-188.09" rx="18" ry="18"/>
<text text-anchor="middle" x="355.87" y="-208.69" font-family="Helvetica,sans-Serif" font-size="8.00" fill="#4d4d4d">pollution</text>
</g>
<!-- dégradation environnementale -->
<g id="node2" class="node">
<title>dégradation environnementale</title>
<ellipse fill="#f1ef75" stroke="white" stroke-width="0" cx="457.88" cy="-335.15" rx="36" ry="36"/>
<text text-anchor="middle" x="358.38" y="-301.75" font-family="Helvetica,sans-Serif" font-size="8.00" fill="#4d4d4d">dégradation environnementale</text>
</g>
<!-- nouvelle&#45;calédonie -->
<g id="node3" class="node">
<title>nouvelle&#45;calédonie</title>
<ellipse fill="#1c0c43" stroke="white" stroke-width="0" cx="106.22" cy="-177.27" rx="3.5" ry="3.5"/>
<text text-anchor="middle" x="63.22" y="-183.37" font-family="Helvetica,sans-Serif" font-size="8.00" fill="#4d4d4d">nouvelle&#45;calédonie</text>
</g>
<!-- travail -->
<g id="node4" class="node">
<title>travail</title>
<ellipse fill="#e65d2f" stroke="white" stroke-width="0" cx="313.41" cy="-195.19" rx="21.5" ry="21.5"/>
<text text-anchor="middle" x="278.91" y="-219.29" font-family="Helvetica,sans-Serif" font-size="8.00" fill="#4d4d4d">travail</text>
</g>
<!-- économie -->
<g id="node5" class="node">
<title>économie</title>
<ellipse fill="#b3325a" stroke="white" stroke-width="0" cx="363.76" cy="-274.87" rx="18" ry="18"/>
<text text-anchor="middle" x="325.26" y="-259.47" font-family="Helvetica,sans-Serif" font-size="8.00" fill="#4d4d4d">économie</text>
</g>
<!-- nickel -->
<g id="node6" class="node">
<title>nickel</title>
<ellipse fill="#fcffa4" stroke="white" stroke-width="0" cx="464.49" cy="-262.43" rx="36" ry="36"/>
<text text-anchor="middle" x="416.49" y="-229.03" font-family="Helvetica,sans-Serif" font-size="8.00" fill="#4d4d4d">nickel</text>
</g>
<!-- ressource minière -->
<g id="node7" class="node">
<title>ressource minière</title>
<ellipse fill="#64156e" stroke="white" stroke-width="0" cx="160.35" cy="-366.94" rx="11" ry="11"/>
<text text-anchor="middle" x="112.85" y="-380.54" font-family="Helvetica,sans-Serif" font-size="8.00" fill="#4d4d4d">ressource minière</text>
</g>
<!-- politique -->
<g id="node8" class="node">
<title>politique</title>
<ellipse fill="#9b2964" stroke="white" stroke-width="0" cx="215.44" cy="-202.64" rx="14.5" ry="14.5"/>
<text text-anchor="middle" x="182.44" y="-219.74" font-family="Helvetica,sans-Serif" font-size="8.00" fill="#4d4d4d">politique</text>
</g>
<!-- secteur nickel -->
<g id="node9" class="node">
<title>secteur nickel</title>
<ellipse fill="#b43359" stroke="white" stroke-width="0" cx="328.04" cy="-368.68" rx="18" ry="18"/>
<text text-anchor="middle" x="281.54" y="-389.28" font-family="Helvetica,sans-Serif" font-size="8.00" fill="#4d4d4d">secteur nickel</text>
</g>
<!-- nature -->
<g id="node10" class="node">
<title>nature</title>
<ellipse fill="#85216b" stroke="white" stroke-width="0" cx="135.18" cy="-277.38" rx="14.5" ry="14.5"/>
<text text-anchor="middle" x="107.18" y="-294.48" font-family="Helvetica,sans-Serif" font-size="8.00" fill="#4d4d4d">nature</text>
</g>
<!-- amélioration environnementale -->
<g id="node11" class="node">
<title>amélioration environnementale</title>
<ellipse fill="#030210" stroke="white" stroke-width="0" cx="682.94" cy="-204.31" rx="0.5" ry="0.5"/>
<text text-anchor="middle" x="617.94" y="-207.41" font-family="Helvetica,sans-Serif" font-size="8.00" fill="#4d4d4d">amélioration environnementale</text>
</g>
<!-- société néo&#45;calédonienne -->
<g id="node12" class="node">
<title>société néo&#45;calédonienne</title>
<ellipse fill="#180c3c" stroke="white" stroke-width="0" cx="214.41" cy="-59.59" rx="3.5" ry="3.5"/>
<text text-anchor="middle" x="156.91" y="-65.69" font-family="Helvetica,sans-Serif" font-size="8.00" fill="#4d4d4d">société néo&#45;calédonienne</text>
</g>
<!-- exploitation minière -->
<g id="node13" class="node">
<title>exploitation minière</title>
<ellipse fill="#7a1d6d" stroke="white" stroke-width="0" cx="196.26" cy="-442.64" rx="14.5" ry="14.5"/>
<text text-anchor="middle" x="141.26" y="-459.74" font-family="Helvetica,sans-Serif" font-size="8.00" fill="#4d4d4d">exploitation minière</text>
</g>
<!-- alternative au développement -->
<g id="node14" class="node">
<title>alternative au développement</title>
<ellipse fill="#120a32" stroke="white" stroke-width="0" cx="258.94" cy="-551.24" rx="3.5" ry="3.5"/>
<text text-anchor="middle" x="193.44" y="-557.34" font-family="Helvetica,sans-Serif" font-size="8.00" fill="#4d4d4d">alternative au développement</text>
</g>
<!-- matériel -->
<g id="node15" class="node">
<title>matériel</title>
<ellipse fill="#932667" stroke="white" stroke-width="0" cx="422.08" cy="-426.68" rx="14.5" ry="14.5"/>
<text text-anchor="middle" x="390.58" y="-443.78" font-family="Helvetica,sans-Serif" font-size="8.00" fill="#4d4d4d">matériel</text>
</g>
<!-- foncier -->
<g id="node16" class="node">
<title>foncier</title>
<ellipse fill="#240c4f" stroke="white" stroke-width="0" cx="304.49" cy="-77.96" rx="7" ry="7"/>
<text text-anchor="middle" x="282.99" y="-87.56" font-family="Helvetica,sans-Serif" font-size="8.00" fill="#4d4d4d">foncier</text>
</g>
<!-- relation politique -->
<g id="node17" class="node">
<title>relation politique</title>
<ellipse fill="#0b0724" stroke="white" stroke-width="0" cx="73.5" cy="-376.8" rx="3.5" ry="3.5"/>
<text text-anchor="middle" x="35" y="-382.9" font-family="Helvetica,sans-Serif" font-size="8.00" fill="#4d4d4d">relation politique</text>
</g>
<!-- industrie -->
<g id="node18" class="node">
<title>industrie</title>
<ellipse fill="#b3325a" stroke="white" stroke-width="0" cx="259.67" cy="-298.43" rx="18" ry="18"/>
<text text-anchor="middle" x="223.17" y="-319.03" font-family="Helvetica,sans-Serif" font-size="8.00" fill="#4d4d4d">industrie</text>
</g>
<!-- risque -->
<g id="node19" class="node">
<title>risque</title>
<ellipse fill="#050417" stroke="white" stroke-width="0" cx="511.49" cy="-3.5" rx="3.5" ry="3.5"/>
<text text-anchor="middle" x="494.99" y="-9.6" font-family="Helvetica,sans-Serif" font-size="8.00" fill="#4d4d4d">risque</text>
</g>
<!-- échange commercial -->
<g id="node20" class="node">
<title>échange commercial</title>
<ellipse fill="#380962" stroke="white" stroke-width="0" cx="306.31" cy="-482.39" rx="7" ry="7"/>
<text text-anchor="middle" x="256.31" y="-491.99" font-family="Helvetica,sans-Serif" font-size="8.00" fill="#4d4d4d">échange commercial</text>
</g>
<!-- avenir sans nickel -->
<g id="node21" class="node">
<title>avenir sans nickel</title>
<ellipse fill="#000004" stroke="white" stroke-width="0" cx="907.36" cy="-432.29" rx="0.5" ry="0.5"/>
<text text-anchor="middle" x="870.36" y="-435.39" font-family="Helvetica,sans-Serif" font-size="8.00" fill="#4d4d4d">avenir sans nickel</text>
</g>
</g>
</svg>
