<?xml version="1.0" encoding="UTF-8" standalone="no"?>
<!DOCTYPE svg PUBLIC "-//W3C//DTD SVG 1.1//EN"
 "http://www.w3.org/Graphics/SVG/1.1/DTD/svg11.dtd">
<!-- Generated by graphviz version 2.43.0 (0)
 -->
<!-- Pages: 1 -->
<svg width="359pt" height="307pt"
 viewBox="0.00 0.00 358.84 306.83" xmlns="http://www.w3.org/2000/svg" xmlns:xlink="http://www.w3.org/1999/xlink">
<g id="graph0" class="graph" transform="scale(1 1) rotate(0) translate(4 302.83)">
<polygon fill="white" stroke="transparent" points="-4,4 -4,-302.83 354.84,-302.83 354.84,4 -4,4"/>
<!-- pollution&#45;&#45;épuisement -->
<g id="edge1" class="edge">
<title>pollution&#45;&#45;épuisement</title>
<path fill="none" stroke="darkgrey" stroke-width="4.73" d="M231.74,-112.8C244.25,-96.13 258.86,-76.66 265.91,-67.27"/>
</g>
<!-- pollution&#45;&#45;environnement -->
<g id="edge2" class="edge">
<title>pollution&#45;&#45;environnement</title>
<path fill="none" stroke="darkgrey" stroke-width="4.29" d="M174.04,-145.05C144.06,-147.83 103.27,-151.6 83.98,-153.39"/>
</g>
<!-- pollution&#45;&#45;ressource -->
<g id="edge3" class="edge">
<title>pollution&#45;&#45;ressource</title>
<path fill="none" stroke="darkgrey" stroke-width="2.49" d="M182.55,-165.77C164.5,-181.56 142.09,-201.16 130.11,-211.63"/>
</g>
<!-- pollution&#45;&#45;destruction -->
<g id="edge4" class="edge">
<title>pollution&#45;&#45;destruction</title>
<path fill="none" stroke="darkgrey" stroke-width="7.32" d="M239.92,-162.03C249.63,-168.63 259.13,-175.09 263.92,-178.35"/>
</g>
<!-- pollution&#45;&#45;économie -->
<g id="edge5" class="edge">
<title>pollution&#45;&#45;économie</title>
<path fill="none" stroke="darkgrey" stroke-width="10" d="M178.98,-123.5C166.39,-116.12 152.56,-108.01 142.87,-102.32"/>
</g>
<!-- pollution&#45;&#45;argent -->
<g id="edge6" class="edge">
<title>pollution&#45;&#45;argent</title>
<path fill="none" stroke="darkgrey" d="M243.65,-128.8C282.56,-113.84 342.29,-90.88 349.6,-88.07"/>
</g>
<!-- pollution&#45;&#45;emploi -->
<g id="edge7" class="edge">
<title>pollution&#45;&#45;emploi</title>
<path fill="none" stroke="darkgrey" stroke-width="9.5" d="M195.54,-108.63C184.05,-82.42 168.6,-47.15 160.24,-28.09"/>
</g>
<!-- pollution&#45;&#45;technologie -->
<g id="edge8" class="edge">
<title>pollution&#45;&#45;technologie</title>
<path fill="none" stroke="darkgrey" stroke-width="1.19" d="M244.71,-152.21C277.33,-162.09 323.06,-175.93 335.91,-179.83"/>
</g>
<!-- pollution&#45;&#45;richesse -->
<g id="edge9" class="edge">
<title>pollution&#45;&#45;richesse</title>
<path fill="none" stroke="darkgrey" stroke-width="1.54" d="M214.96,-177.47C220.03,-214.27 227.46,-268.21 229.44,-282.66"/>
</g>
<!-- environnement&#45;&#45;ressource -->
<g id="edge10" class="edge">
<title>environnement&#45;&#45;ressource</title>
<path fill="none" stroke="darkgrey" stroke-width="1.84" d="M79.76,-163.4C89.05,-175.75 105.65,-197.84 114.91,-210.15"/>
</g>
<!-- environnement&#45;&#45;économie -->
<g id="edge11" class="edge">
<title>environnement&#45;&#45;économie</title>
<path fill="none" stroke="darkgrey" stroke-width="1.36" d="M80.97,-146.14C91.18,-135.55 108.89,-117.17 120.08,-105.56"/>
</g>
<!-- économie&#45;&#45;emploi -->
<g id="edge12" class="edge">
<title>économie&#45;&#45;emploi</title>
<path fill="none" stroke="darkgrey" stroke-width="1.44" d="M134.48,-80.94C138.85,-66.26 145.69,-43.34 150.08,-28.62"/>
</g>
<!-- pollution -->
<g id="node1" class="node">
<title>pollution</title>
<ellipse fill="#fcffa4" stroke="white" stroke-width="0" cx="210.04" cy="-141.72" rx="36" ry="36"/>
<text text-anchor="middle" x="155.54" y="-180.32" font-family="Helvetica,sans-Serif" font-size="8.00" fill="#4d4d4d">pollution</text>
</g>
<!-- épuisement -->
<g id="node2" class="node">
<title>épuisement</title>
<ellipse fill="#290b55" stroke="white" stroke-width="0" cx="270.15" cy="-61.62" rx="7" ry="7"/>
<text text-anchor="middle" x="238.65" y="-71.22" font-family="Helvetica,sans-Serif" font-size="8.00" fill="#4d4d4d">épuisement</text>
</g>
<!-- environnement -->
<g id="node3" class="node">
<title>environnement</title>
<ellipse fill="#71196e" stroke="white" stroke-width="0" cx="73" cy="-154.41" rx="11" ry="11"/>
<text text-anchor="middle" x="31" y="-168.01" font-family="Helvetica,sans-Serif" font-size="8.00" fill="#4d4d4d">environnement</text>
</g>
<!-- ressource -->
<g id="node4" class="node">
<title>ressource</title>
<ellipse fill="#5c126e" stroke="white" stroke-width="0" cx="121.61" cy="-219.07" rx="11" ry="11"/>
<text text-anchor="middle" x="90.61" y="-232.67" font-family="Helvetica,sans-Serif" font-size="8.00" fill="#4d4d4d">ressource</text>
</g>
<!-- destruction -->
<g id="node5" class="node">
<title>destruction</title>
<ellipse fill="#210c4a" stroke="white" stroke-width="0" cx="267.12" cy="-180.52" rx="3.5" ry="3.5"/>
<text text-anchor="middle" x="240.12" y="-186.62" font-family="Helvetica,sans-Serif" font-size="8.00" fill="#4d4d4d">destruction</text>
</g>
<!-- économie -->
<g id="node6" class="node">
<title>économie</title>
<ellipse fill="#8f2469" stroke="white" stroke-width="0" cx="130.3" cy="-94.95" rx="14.5" ry="14.5"/>
<text text-anchor="middle" x="95.3" y="-112.05" font-family="Helvetica,sans-Serif" font-size="8.00" fill="#4d4d4d">économie</text>
</g>
<!-- argent -->
<g id="node7" class="node">
<title>argent</title>
<ellipse fill="#000004" stroke="white" stroke-width="0" cx="350.34" cy="-87.78" rx="0.5" ry="0.5"/>
<text text-anchor="middle" x="335.84" y="-90.88" font-family="Helvetica,sans-Serif" font-size="8.00" fill="#4d4d4d">argent</text>
</g>
<!-- emploi -->
<g id="node8" class="node">
<title>emploi</title>
<ellipse fill="#7a1d6d" stroke="white" stroke-width="0" cx="154.29" cy="-14.5" rx="14.5" ry="14.5"/>
<text text-anchor="middle" x="125.79" y="-31.6" font-family="Helvetica,sans-Serif" font-size="8.00" fill="#4d4d4d">emploi</text>
</g>
<!-- technologie -->
<g id="node9" class="node">
<title>technologie</title>
<ellipse fill="#0d0829" stroke="white" stroke-width="0" cx="339.39" cy="-180.88" rx="3.5" ry="3.5"/>
<text text-anchor="middle" x="311.39" y="-186.98" font-family="Helvetica,sans-Serif" font-size="8.00" fill="#4d4d4d">technologie</text>
</g>
<!-- richesse -->
<g id="node10" class="node">
<title>richesse</title>
<ellipse fill="#0d0829" stroke="white" stroke-width="0" cx="229.95" cy="-286.33" rx="3.5" ry="3.5"/>
<text text-anchor="middle" x="208.95" y="-292.43" font-family="Helvetica,sans-Serif" font-size="8.00" fill="#4d4d4d">richesse</text>
</g>
</g>
</svg>
