<?xml version="1.0" encoding="UTF-8" standalone="no"?>
<!DOCTYPE svg PUBLIC "-//W3C//DTD SVG 1.1//EN"
 "http://www.w3.org/Graphics/SVG/1.1/DTD/svg11.dtd">
<!-- Generated by graphviz version 2.43.0 (0)
 -->
<!-- Pages: 1 -->
<svg width="768pt" height="558pt"
 viewBox="0.00 0.00 767.96 558.10" xmlns="http://www.w3.org/2000/svg" xmlns:xlink="http://www.w3.org/1999/xlink">
<g id="graph0" class="graph" transform="scale(1 1) rotate(0) translate(4 554.1)">
<polygon fill="white" stroke="transparent" points="-4,4 -4,-554.1 763.96,-554.1 763.96,4 -4,4"/>
<!-- pollution&#45;&#45;emploi -->
<g id="edge1" class="edge">
<title>pollution&#45;&#45;emploi</title>
<path fill="none" stroke="darkgrey" stroke-width="10" d="M473.22,-284.48C475.65,-288.12 478.18,-291.92 480.68,-295.66"/>
</g>
<!-- pollution&#45;&#45;richesse -->
<g id="edge2" class="edge">
<title>pollution&#45;&#45;richesse</title>
<path fill="none" stroke="darkgrey" stroke-width="2.01" d="M459.92,-289.07C464.93,-337.28 474.74,-431.73 478.1,-464.12"/>
</g>
<!-- pollution&#45;&#45;démolition -->
<g id="edge3" class="edge">
<title>pollution&#45;&#45;démolition</title>
<path fill="none" stroke="darkgrey" stroke-width="3.07" d="M485.56,-265.93C551.44,-279.48 710.73,-312.24 745.98,-319.49"/>
</g>
<!-- pollution&#45;&#45;argent -->
<g id="edge4" class="edge">
<title>pollution&#45;&#45;argent</title>
<path fill="none" stroke="darkgrey" stroke-width="1.95" d="M436.99,-281.38C396.07,-325.27 304.48,-423.5 282.22,-447.37"/>
</g>
<!-- pollution&#45;&#45;nickel -->
<g id="edge5" class="edge">
<title>pollution&#45;&#45;nickel</title>
<path fill="none" stroke="darkgrey" stroke-width="5.2" d="M430.46,-272.59C414.13,-280.35 393.14,-290.31 376.23,-298.34"/>
</g>
<!-- pollution&#45;&#45;exploitation -->
<g id="edge6" class="edge">
<title>pollution&#45;&#45;exploitation</title>
<path fill="none" stroke="darkgrey" stroke-width="1.85" d="M476.1,-238.1C492.48,-219.4 515.35,-193.27 528.18,-178.61"/>
</g>
<!-- pollution&#45;&#45;montagne -->
<g id="edge7" class="edge">
<title>pollution&#45;&#45;montagne</title>
<path fill="none" stroke="darkgrey" stroke-width="1.39" d="M430.54,-247.8C367.54,-218.56 211.04,-145.92 177.56,-130.38"/>
</g>
<!-- pollution&#45;&#45;camion -->
<g id="edge8" class="edge">
<title>pollution&#45;&#45;camion</title>
<path fill="none" stroke="darkgrey" stroke-width="2.15" d="M429.66,-249.63C389.75,-234.4 317.21,-206.71 290.4,-196.47"/>
</g>
<!-- pollution&#45;&#45;économie -->
<g id="edge9" class="edge">
<title>pollution&#45;&#45;économie</title>
<path fill="none" stroke="darkgrey" stroke-width="4.81" d="M473.64,-283.99C498.53,-319.64 544.58,-385.57 565.11,-414.97"/>
</g>
<!-- pollution&#45;&#45;impact environnemental -->
<g id="edge10" class="edge">
<title>pollution&#45;&#45;impact environnemental</title>
<path fill="none" stroke="darkgrey" stroke-width="4.35" d="M483.44,-271.8C517.34,-286.83 575,-312.38 603.24,-324.9"/>
</g>
<!-- pollution&#45;&#45;terre -->
<g id="edge11" class="edge">
<title>pollution&#45;&#45;terre</title>
<path fill="none" stroke="darkgrey" stroke-width="1.34" d="M447.08,-287.55C432.4,-328.68 405.58,-403.82 397.36,-426.83"/>
</g>
<!-- pollution&#45;&#45;usine -->
<g id="edge12" class="edge">
<title>pollution&#45;&#45;usine</title>
<path fill="none" stroke="darkgrey" stroke-width="1.33" d="M438.99,-237.01C418.82,-211.1 387.38,-170.68 375.86,-155.89"/>
</g>
<!-- pollution&#45;&#45;ressource -->
<g id="edge13" class="edge">
<title>pollution&#45;&#45;ressource</title>
<path fill="none" stroke="darkgrey" stroke-width="1.04" d="M462.49,-231.3C469.82,-193.61 482.24,-129.77 486.37,-108.49"/>
</g>
<!-- pollution&#45;&#45;conflit -->
<g id="edge14" class="edge">
<title>pollution&#45;&#45;conflit</title>
<path fill="none" stroke="darkgrey" stroke-width="1.47" d="M483.47,-247.28C542.78,-218.81 682.63,-151.68 706.23,-140.35"/>
</g>
<!-- pollution&#45;&#45;développement -->
<g id="edge15" class="edge">
<title>pollution&#45;&#45;développement</title>
<path fill="none" stroke="darkgrey" stroke-width="1.74" d="M456.76,-231.02C456.44,-165.94 455.67,-13.07 455.61,-1.23"/>
</g>
<!-- pollution&#45;&#45;minerai -->
<g id="edge16" class="edge">
<title>pollution&#45;&#45;minerai</title>
<path fill="none" stroke="darkgrey" stroke-width="1.16" d="M444.32,-233.64C421.89,-186.62 376.2,-90.82 363.8,-64.8"/>
</g>
<!-- pollution&#45;&#45;déforestation -->
<g id="edge17" class="edge">
<title>pollution&#45;&#45;déforestation</title>
<path fill="none" stroke="darkgrey" stroke-width="1.88" d="M448.21,-287.92C428.05,-352.53 379.27,-508.92 371.4,-534.14"/>
</g>
<!-- emploi&#45;&#45;richesse -->
<g id="edge18" class="edge">
<title>emploi&#45;&#45;richesse</title>
<path fill="none" stroke="darkgrey" stroke-width="3.4" d="M495.57,-361.53C490.79,-394.9 483.95,-442.64 480.88,-464.11"/>
</g>
<!-- emploi&#45;&#45;démolition -->
<g id="edge19" class="edge">
<title>emploi&#45;&#45;démolition</title>
<path fill="none" stroke="darkgrey" stroke-width="1.73" d="M536.85,-325C597.34,-323.86 715.43,-321.63 745.73,-321.06"/>
</g>
<!-- emploi&#45;&#45;argent -->
<g id="edge20" class="edge">
<title>emploi&#45;&#45;argent</title>
<path fill="none" stroke="darkgrey" stroke-width="2.93" d="M469.17,-343.61C415.76,-373.96 310.68,-433.69 283.7,-449.02"/>
</g>
<!-- emploi&#45;&#45;nickel -->
<g id="edge21" class="edge">
<title>emploi&#45;&#45;nickel</title>
<path fill="none" stroke="darkgrey" stroke-width="6.5" d="M464.55,-322.58C438.65,-320.36 404.05,-317.4 379.01,-315.25"/>
</g>
<!-- emploi&#45;&#45;exploitation -->
<g id="edge22" class="edge">
<title>emploi&#45;&#45;exploitation</title>
<path fill="none" stroke="darkgrey" stroke-width="1.69" d="M508.97,-290.58C517.01,-256.35 528.85,-206.02 534.57,-181.69"/>
</g>
<!-- emploi&#45;&#45;camion -->
<g id="edge23" class="edge">
<title>emploi&#45;&#45;camion</title>
<path fill="none" stroke="darkgrey" stroke-width="1.24" d="M469.57,-306.89C418.73,-276.21 320.47,-216.91 289.6,-198.28"/>
</g>
<!-- emploi&#45;&#45;économie -->
<g id="edge24" class="edge">
<title>emploi&#45;&#45;économie</title>
<path fill="none" stroke="darkgrey" stroke-width="7.14" d="M521.73,-354.96C535.81,-374.56 553.74,-399.54 564.91,-415.1"/>
</g>
<!-- emploi&#45;&#45;impact environnemental -->
<g id="edge25" class="edge">
<title>emploi&#45;&#45;impact environnemental</title>
<path fill="none" stroke="darkgrey" stroke-width="5.62" d="M536.77,-327.67C558.27,-328.86 584.64,-330.31 601.81,-331.26"/>
</g>
<!-- emploi&#45;&#45;terre -->
<g id="edge26" class="edge">
<title>emploi&#45;&#45;terre</title>
<path fill="none" stroke="darkgrey" stroke-width="1.32" d="M475.37,-351.56C450.18,-377.28 413.43,-414.8 400.03,-428.48"/>
</g>
<!-- emploi&#45;&#45;usine -->
<g id="edge27" class="edge">
<title>emploi&#45;&#45;usine</title>
<path fill="none" stroke="darkgrey" stroke-width="1.07" d="M479.07,-296.31C447.74,-253.78 391.72,-177.74 375.79,-156.1"/>
</g>
<!-- emploi&#45;&#45;ressource -->
<g id="edge29" class="edge">
<title>emploi&#45;&#45;ressource</title>
<path fill="none" stroke="darkgrey" stroke-width="1.47" d="M498.63,-289.64C495.5,-235.39 489.77,-136.16 488.18,-108.61"/>
</g>
<!-- emploi&#45;&#45;conflit -->
<g id="edge30" class="edge">
<title>emploi&#45;&#45;conflit</title>
<path fill="none" stroke="darkgrey" stroke-width="2.52" d="M527.6,-301.62C579.17,-255.46 688.56,-157.57 706.98,-141.09"/>
</g>
<!-- emploi&#45;&#45;déforestation -->
<g id="edge31" class="edge">
<title>emploi&#45;&#45;déforestation</title>
<path fill="none" stroke="darkgrey" stroke-width="1.35" d="M481.75,-356.5C448.98,-409.76 384.09,-515.22 372.21,-534.53"/>
</g>
<!-- emploi&#45;&#45;sln -->
<g id="edge28" class="edge">
<title>emploi&#45;&#45;sln</title>
<path fill="none" stroke="darkgrey" stroke-width="1.04" d="M505.43,-361.5C511.94,-410.89 523.25,-496.64 526.54,-521.62"/>
</g>
<!-- richesse&#45;&#45;nickel -->
<g id="edge32" class="edge">
<title>richesse&#45;&#45;nickel</title>
<path fill="none" stroke="darkgrey" stroke-width="1.98" d="M472.13,-466.57C452.58,-442.59 397.6,-375.15 367.25,-337.93"/>
</g>
<!-- richesse&#45;&#45;économie -->
<g id="edge33" class="edge">
<title>richesse&#45;&#45;économie</title>
<path fill="none" stroke="darkgrey" stroke-width="1.48" d="M489.56,-470.46C506.23,-462.56 539.28,-446.92 559.17,-437.5"/>
</g>
<!-- richesse&#45;&#45;impact environnemental -->
<g id="edge34" class="edge">
<title>richesse&#45;&#45;impact environnemental</title>
<path fill="none" stroke="darkgrey" stroke-width="1.66" d="M487.23,-467.23C510.46,-443.58 578.32,-374.5 606.9,-345.41"/>
</g>
<!-- richesse&#45;&#45;terre -->
<g id="edge35" class="edge">
<title>richesse&#45;&#45;terre</title>
<path fill="none" stroke="darkgrey" d="M469.26,-470.39C451.8,-461.78 416.24,-444.24 401.52,-436.97"/>
</g>
<!-- démolition&#45;&#45;impact environnemental -->
<g id="edge36" class="edge">
<title>démolition&#45;&#45;impact environnemental</title>
<path fill="none" stroke="darkgrey" stroke-width="1.02" d="M745.8,-321.53C725.6,-323.25 667.69,-328.18 637.94,-330.71"/>
</g>
<!-- argent&#45;&#45;nickel -->
<g id="edge37" class="edge">
<title>argent&#45;&#45;nickel</title>
<path fill="none" stroke="darkgrey" stroke-width="2.54" d="M280.43,-446.28C289.39,-428.12 315.45,-375.34 332.03,-341.75"/>
</g>
<!-- nickel&#45;&#45;exploitation -->
<g id="edge38" class="edge">
<title>nickel&#45;&#45;exploitation</title>
<path fill="none" stroke="darkgrey" stroke-width="2.78" d="M372.71,-292.61C414.89,-260.66 496.16,-199.11 526.29,-176.29"/>
</g>
<!-- nickel&#45;&#45;montagne -->
<g id="edge39" class="edge">
<title>nickel&#45;&#45;montagne</title>
<path fill="none" stroke="darkgrey" stroke-width="2" d="M323.94,-288.65C282.69,-245.12 197.4,-155.09 176.09,-132.61"/>
</g>
<!-- nickel&#45;&#45;camion -->
<g id="edge40" class="edge">
<title>nickel&#45;&#45;camion</title>
<path fill="none" stroke="darkgrey" stroke-width="3.23" d="M330.59,-283.73C316,-257.4 295.25,-219.92 285.51,-202.34"/>
</g>
<!-- nickel&#45;&#45;économie -->
<g id="edge41" class="edge">
<title>nickel&#45;&#45;économie</title>
<path fill="none" stroke="darkgrey" stroke-width="3.61" d="M375.49,-327.32C424.23,-352.29 520.98,-401.87 559.29,-421.51"/>
</g>
<!-- nickel&#45;&#45;impact environnemental -->
<g id="edge42" class="edge">
<title>nickel&#45;&#45;impact environnemental</title>
<path fill="none" stroke="darkgrey" stroke-width="2.67" d="M378.92,-314.81C436.9,-319.01 556.5,-327.67 601.85,-330.95"/>
</g>
<!-- nickel&#45;&#45;terre -->
<g id="edge45" class="edge">
<title>nickel&#45;&#45;terre</title>
<path fill="none" stroke="darkgrey" stroke-width="1.25" d="M358.59,-342.75C369.9,-371.08 385.97,-411.34 392.25,-427.06"/>
</g>
<!-- nickel&#45;&#45;usine -->
<g id="edge46" class="edge">
<title>nickel&#45;&#45;usine</title>
<path fill="none" stroke="darkgrey" stroke-width="2.97" d="M351.48,-280.02C357.49,-240.99 367.16,-178.12 370.37,-157.22"/>
</g>
<!-- nickel&#45;&#45;ressource -->
<g id="edge48" class="edge">
<title>nickel&#45;&#45;ressource</title>
<path fill="none" stroke="darkgrey" stroke-width="1.26" d="M364.67,-285.29C397.91,-235.63 466.64,-132.91 483.81,-107.25"/>
</g>
<!-- nickel&#45;&#45;minerai -->
<g id="edge50" class="edge">
<title>nickel&#45;&#45;minerai</title>
<path fill="none" stroke="darkgrey" stroke-width="2.69" d="M348.3,-280C351.62,-220.28 358.51,-96.27 360.23,-65.29"/>
</g>
<!-- nickel&#45;&#45;déforestation -->
<g id="edge51" class="edge">
<title>nickel&#45;&#45;déforestation</title>
<path fill="none" stroke="darkgrey" stroke-width="1.19" d="M349.96,-345.2C355.92,-401.54 367.7,-512.86 369.94,-534.07"/>
</g>
<!-- nickel&#45;&#45;sln -->
<g id="edge47" class="edge">
<title>nickel&#45;&#45;sln</title>
<path fill="none" stroke="darkgrey" stroke-width="3.51" d="M367.61,-337.68C409.57,-387.8 501.26,-497.33 522.85,-523.12"/>
</g>
<!-- nickel&#45;&#45;roche -->
<g id="edge43" class="edge">
<title>nickel&#45;&#45;roche</title>
<path fill="none" stroke="darkgrey" stroke-width="1.69" d="M314.38,-305.75C264.6,-295.35 171.74,-275.94 145.27,-270.41"/>
</g>
<!-- nickel&#45;&#45;terre rouge -->
<g id="edge44" class="edge">
<title>nickel&#45;&#45;terre rouge</title>
<path fill="none" stroke="darkgrey" stroke-width="1.89" d="M314.03,-309.76C245.21,-304.03 88.8,-291.01 62.42,-288.81"/>
</g>
<!-- nickel&#45;&#45;usine du sud -->
<g id="edge49" class="edge">
<title>nickel&#45;&#45;usine du sud</title>
<path fill="none" stroke="darkgrey" stroke-width="1.28" d="M314.86,-320.83C241.47,-340.24 64.99,-386.9 54.03,-389.8"/>
</g>
<!-- exploitation&#45;&#45;impact environnemental -->
<g id="edge52" class="edge">
<title>exploitation&#45;&#45;impact environnemental</title>
<path fill="none" stroke="darkgrey" stroke-width="1.87" d="M544.47,-180.7C559.35,-210.63 595.62,-283.57 611.8,-316.11"/>
</g>
<!-- exploitation&#45;&#45;usine -->
<g id="edge53" class="edge">
<title>exploitation&#45;&#45;usine</title>
<path fill="none" stroke="darkgrey" stroke-width="1.03" d="M523.43,-165.99C489.1,-162.43 403.77,-153.57 378.56,-150.95"/>
</g>
<!-- exploitation&#45;&#45;ressource -->
<g id="edge54" class="edge">
<title>exploitation&#45;&#45;ressource</title>
<path fill="none" stroke="darkgrey" stroke-width="1.66" d="M528.94,-155.67C518.13,-141.4 500.37,-117.98 492.17,-107.16"/>
</g>
<!-- exploitation&#45;&#45;minerai -->
<g id="edge55" class="edge">
<title>exploitation&#45;&#45;minerai</title>
<path fill="none" stroke="darkgrey" stroke-width="2.22" d="M525.44,-159.81C490.45,-138.22 392.2,-77.63 366.73,-61.92"/>
</g>
<!-- montagne&#45;&#45;roche -->
<g id="edge56" class="edge">
<title>montagne&#45;&#45;roche</title>
<path fill="none" stroke="darkgrey" stroke-width="1.06" d="M169.59,-134.25C164.01,-158.1 145.4,-237.56 139.72,-261.81"/>
</g>
<!-- camion&#45;&#45;usine -->
<g id="edge58" class="edge">
<title>camion&#45;&#45;usine</title>
<path fill="none" stroke="darkgrey" stroke-width="1.27" d="M290.21,-187.84C308.98,-179.15 348.71,-160.74 364.63,-153.37"/>
</g>
<!-- camion&#45;&#45;minerai -->
<g id="edge59" class="edge">
<title>camion&#45;&#45;minerai</title>
<path fill="none" stroke="darkgrey" stroke-width="1.03" d="M285.87,-182.87C301.46,-156.87 343.96,-85.96 356.86,-64.44"/>
</g>
<!-- camion&#45;&#45;roche -->
<g id="edge57" class="edge">
<title>camion&#45;&#45;roche</title>
<path fill="none" stroke="darkgrey" stroke-width="1.15" d="M270.32,-197.78C243.12,-212.4 167,-253.34 144.44,-265.47"/>
</g>
<!-- économie&#45;&#45;impact environnemental -->
<g id="edge60" class="edge">
<title>économie&#45;&#45;impact environnemental</title>
<path fill="none" stroke="darkgrey" stroke-width="5.68" d="M582.98,-413.24C591.14,-395.31 604.09,-366.85 612.26,-348.88"/>
</g>
<!-- usine&#45;&#45;minerai -->
<g id="edge61" class="edge">
<title>usine&#45;&#45;minerai</title>
<path fill="none" stroke="darkgrey" stroke-width="1.85" d="M370.6,-142.99C368.58,-125.78 363.49,-82.52 361.47,-65.35"/>
</g>
<!-- ressource&#45;&#45;minerai -->
<g id="edge62" class="edge">
<title>ressource&#45;&#45;minerai</title>
<path fill="none" stroke="darkgrey" stroke-width="1.32" d="M480.93,-99.02C458.85,-91.53 389.62,-68.01 367.5,-60.49"/>
</g>
<!-- pollution -->
<g id="node1" class="node">
<title>pollution</title>
<ellipse fill="#fb9b06" stroke="white" stroke-width="0" cx="456.9" cy="-260.03" rx="29" ry="29"/>
<text text-anchor="middle" x="409.4" y="-291.63" font-family="Helvetica,sans-Serif" font-size="8.00" fill="#4d4d4d">pollution</text>
</g>
<!-- emploi -->
<g id="node2" class="node">
<title>emploi</title>
<ellipse fill="#fcffa4" stroke="white" stroke-width="0" cx="500.71" cy="-325.68" rx="36" ry="36"/>
<text text-anchor="middle" x="450.71" y="-364.28" font-family="Helvetica,sans-Serif" font-size="8.00" fill="#4d4d4d">emploi</text>
</g>
<!-- richesse -->
<g id="node3" class="node">
<title>richesse</title>
<ellipse fill="#5a116e" stroke="white" stroke-width="0" cx="479.27" cy="-475.33" rx="11" ry="11"/>
<text text-anchor="middle" x="450.77" y="-488.93" font-family="Helvetica,sans-Serif" font-size="8.00" fill="#4d4d4d">richesse</text>
</g>
<!-- démolition -->
<g id="node4" class="node">
<title>démolition</title>
<ellipse fill="#260c51" stroke="white" stroke-width="0" cx="752.96" cy="-320.92" rx="7" ry="7"/>
<text text-anchor="middle" x="723.96" y="-330.52" font-family="Helvetica,sans-Serif" font-size="8.00" fill="#4d4d4d">démolition</text>
</g>
<!-- argent -->
<g id="node5" class="node">
<title>argent</title>
<ellipse fill="#3e0966" stroke="white" stroke-width="0" cx="277.27" cy="-452.67" rx="7" ry="7"/>
<text text-anchor="middle" x="256.27" y="-462.27" font-family="Helvetica,sans-Serif" font-size="8.00" fill="#4d4d4d">argent</text>
</g>
<!-- nickel -->
<g id="node6" class="node">
<title>nickel</title>
<ellipse fill="#f8cd37" stroke="white" stroke-width="0" cx="346.49" cy="-312.46" rx="32.5" ry="32.5"/>
<text text-anchor="middle" x="301.99" y="-347.56" font-family="Helvetica,sans-Serif" font-size="8.00" fill="#4d4d4d">nickel</text>
</g>
<!-- exploitation -->
<g id="node7" class="node">
<title>exploitation</title>
<ellipse fill="#87216b" stroke="white" stroke-width="0" cx="537.91" cy="-167.49" rx="14.5" ry="14.5"/>
<text text-anchor="middle" x="498.91" y="-184.59" font-family="Helvetica,sans-Serif" font-size="8.00" fill="#4d4d4d">exploitation</text>
</g>
<!-- montagne -->
<g id="node8" class="node">
<title>montagne</title>
<ellipse fill="#280b53" stroke="white" stroke-width="0" cx="171.19" cy="-127.43" rx="7" ry="7"/>
<text text-anchor="middle" x="142.69" y="-137.03" font-family="Helvetica,sans-Serif" font-size="8.00" fill="#4d4d4d">montagne</text>
</g>
<!-- camion -->
<g id="node9" class="node">
<title>camion</title>
<ellipse fill="#550f6d" stroke="white" stroke-width="0" cx="280.08" cy="-192.53" rx="11" ry="11"/>
<text text-anchor="middle" x="253.58" y="-206.13" font-family="Helvetica,sans-Serif" font-size="8.00" fill="#4d4d4d">camion</text>
</g>
<!-- économie -->
<g id="node10" class="node">
<title>économie</title>
<ellipse fill="#b93556" stroke="white" stroke-width="0" cx="575.46" cy="-429.79" rx="18" ry="18"/>
<text text-anchor="middle" x="536.96" y="-450.39" font-family="Helvetica,sans-Serif" font-size="8.00" fill="#4d4d4d">économie</text>
</g>
<!-- impact environnemental -->
<g id="node11" class="node">
<title>impact environnemental</title>
<ellipse fill="#ca404a" stroke="white" stroke-width="0" cx="619.82" cy="-332.25" rx="18" ry="18"/>
<text text-anchor="middle" x="651.82" y="-352.85" font-family="Helvetica,sans-Serif" font-size="8.00" fill="#4d4d4d">impact environnemental</text>
</g>
<!-- terre -->
<g id="node12" class="node">
<title>terre</title>
<ellipse fill="#260c51" stroke="white" stroke-width="0" cx="394.91" cy="-433.71" rx="7" ry="7"/>
<text text-anchor="middle" x="378.41" y="-443.31" font-family="Helvetica,sans-Serif" font-size="8.00" fill="#4d4d4d">terre</text>
</g>
<!-- usine -->
<g id="node13" class="node">
<title>usine</title>
<ellipse fill="#3d0965" stroke="white" stroke-width="0" cx="371.45" cy="-150.21" rx="7" ry="7"/>
<text text-anchor="middle" x="352.95" y="-159.81" font-family="Helvetica,sans-Serif" font-size="8.00" fill="#4d4d4d">usine</text>
</g>
<!-- ressource -->
<g id="node14" class="node">
<title>ressource</title>
<ellipse fill="#310a5c" stroke="white" stroke-width="0" cx="487.76" cy="-101.35" rx="7" ry="7"/>
<text text-anchor="middle" x="460.76" y="-110.95" font-family="Helvetica,sans-Serif" font-size="8.00" fill="#4d4d4d">ressource</text>
</g>
<!-- conflit -->
<g id="node15" class="node">
<title>conflit</title>
<ellipse fill="#210c4a" stroke="white" stroke-width="0" cx="709.63" cy="-138.71" rx="3.5" ry="3.5"/>
<text text-anchor="middle" x="693.13" y="-144.81" font-family="Helvetica,sans-Serif" font-size="8.00" fill="#4d4d4d">conflit</text>
</g>
<!-- développement -->
<g id="node16" class="node">
<title>développement</title>
<ellipse fill="#010005" stroke="white" stroke-width="0" cx="455.61" cy="-0.5" rx="0.5" ry="0.5"/>
<text text-anchor="middle" x="422.61" y="-3.6" font-family="Helvetica,sans-Serif" font-size="8.00" fill="#4d4d4d">développement</text>
</g>
<!-- minerai -->
<g id="node17" class="node">
<title>minerai</title>
<ellipse fill="#400a67" stroke="white" stroke-width="0" cx="360.63" cy="-58.16" rx="7" ry="7"/>
<text text-anchor="middle" x="338.13" y="-67.76" font-family="Helvetica,sans-Serif" font-size="8.00" fill="#4d4d4d">minerai</text>
</g>
<!-- déforestation -->
<g id="node18" class="node">
<title>déforestation</title>
<ellipse fill="#0b0724" stroke="white" stroke-width="0" cx="370.32" cy="-537.6" rx="3.5" ry="3.5"/>
<text text-anchor="middle" x="339.32" y="-543.7" font-family="Helvetica,sans-Serif" font-size="8.00" fill="#4d4d4d">déforestation</text>
</g>
<!-- sln -->
<g id="node19" class="node">
<title>sln</title>
<ellipse fill="#280b53" stroke="white" stroke-width="0" cx="527.47" cy="-528.63" rx="7" ry="7"/>
<text text-anchor="middle" x="513.97" y="-538.23" font-family="Helvetica,sans-Serif" font-size="8.00" fill="#4d4d4d">sln</text>
</g>
<!-- roche -->
<g id="node20" class="node">
<title>roche</title>
<ellipse fill="#3b0964" stroke="white" stroke-width="0" cx="138.06" cy="-268.9" rx="7" ry="7"/>
<text text-anchor="middle" x="119.56" y="-278.5" font-family="Helvetica,sans-Serif" font-size="8.00" fill="#4d4d4d">roche</text>
</g>
<!-- terre rouge -->
<g id="node21" class="node">
<title>terre rouge</title>
<ellipse fill="#0c0826" stroke="white" stroke-width="0" cx="58.61" cy="-288.5" rx="3.5" ry="3.5"/>
<text text-anchor="middle" x="32.61" y="-294.6" font-family="Helvetica,sans-Serif" font-size="8.00" fill="#4d4d4d">terre rouge</text>
</g>
<!-- usine du sud -->
<g id="node22" class="node">
<title>usine du sud</title>
<ellipse fill="#000004" stroke="white" stroke-width="0" cx="53.5" cy="-389.94" rx="0.5" ry="0.5"/>
<text text-anchor="middle" x="26.5" y="-393.04" font-family="Helvetica,sans-Serif" font-size="8.00" fill="#4d4d4d">usine du sud</text>
</g>
</g>
</svg>
