<?xml version="1.0" encoding="UTF-8" standalone="no"?>
<!DOCTYPE svg PUBLIC "-//W3C//DTD SVG 1.1//EN"
 "http://www.w3.org/Graphics/SVG/1.1/DTD/svg11.dtd">
<!-- Generated by graphviz version 2.43.0 (0)
 -->
<!-- Pages: 1 -->
<svg width="590pt" height="411pt"
 viewBox="0.00 0.00 590.40 410.84" xmlns="http://www.w3.org/2000/svg" xmlns:xlink="http://www.w3.org/1999/xlink">
<g id="graph0" class="graph" transform="scale(1 1) rotate(0) translate(4 406.84)">
<polygon fill="white" stroke="transparent" points="-4,4 -4,-406.84 586.4,-406.84 586.4,4 -4,4"/>
<!-- fin&#45;&#45;emploi -->
<g id="edge1" class="edge">
<title>fin&#45;&#45;emploi</title>
<path fill="none" stroke="darkgrey" stroke-width="1.81" d="M303.72,-200.64C297.38,-195.49 288.65,-188.39 281.34,-182.44"/>
</g>
<!-- fin&#45;&#45;pollution -->
<g id="edge2" class="edge">
<title>fin&#45;&#45;pollution</title>
<path fill="none" stroke="darkgrey" stroke-width="3.07" d="M315.9,-196.77C317.39,-192.09 319.18,-186.47 320.9,-181.07"/>
</g>
<!-- fin&#45;&#45;épuisement de la ressource -->
<g id="edge3" class="edge">
<title>fin&#45;&#45;épuisement de la ressource</title>
<path fill="none" stroke="darkgrey" stroke-width="1.02" d="M323.5,-209.27C332.7,-210.58 345.69,-212.42 354.88,-213.72"/>
</g>
<!-- fin&#45;&#45;impact environnemental -->
<g id="edge4" class="edge">
<title>fin&#45;&#45;impact environnemental</title>
<path fill="none" stroke="darkgrey" stroke-width="3.04" d="M323.61,-209.45C336.55,-211.48 358.51,-214.91 377.48,-217.88"/>
</g>
<!-- emploi&#45;&#45;pollution -->
<g id="edge5" class="edge">
<title>emploi&#45;&#45;pollution</title>
<path fill="none" stroke="darkgrey" stroke-width="5.59" d="M285.39,-167.93C291.89,-166.79 299.28,-165.5 306.04,-164.32"/>
</g>
<!-- emploi&#45;&#45;impact environnemental -->
<g id="edge6" class="edge">
<title>emploi&#45;&#45;impact environnemental</title>
<path fill="none" stroke="darkgrey" stroke-width="6.24" d="M284.41,-177.2C307.58,-185.52 349.57,-200.58 379.35,-211.27"/>
</g>
<!-- emploi&#45;&#45;conflit -->
<g id="edge7" class="edge">
<title>emploi&#45;&#45;conflit</title>
<path fill="none" stroke="darkgrey" stroke-width="1.25" d="M285.31,-168.21C311.18,-164.08 357.76,-156.63 375.29,-153.83"/>
</g>
<!-- emploi&#45;&#45;économie du pays -->
<g id="edge8" class="edge">
<title>emploi&#45;&#45;économie du pays</title>
<path fill="none" stroke="darkgrey" stroke-width="3.2" d="M280.21,-183.7C298.99,-202.15 333.42,-235.95 348.99,-251.24"/>
</g>
<!-- emploi&#45;&#45;amélioration environnementale -->
<g id="edge9" class="edge">
<title>emploi&#45;&#45;amélioration environnementale</title>
<path fill="none" stroke="darkgrey" stroke-width="4.28" d="M262.47,-188.71C256.97,-208.49 248.11,-240.38 242.61,-260.17"/>
</g>
<!-- emploi&#45;&#45;famille -->
<g id="edge10" class="edge">
<title>emploi&#45;&#45;famille</title>
<path fill="none" stroke="darkgrey" stroke-width="1.09" d="M252.3,-160.76C222.52,-140.37 158.49,-96.51 152.56,-92.44"/>
</g>
<!-- emploi&#45;&#45;développement durable -->
<g id="edge11" class="edge">
<title>emploi&#45;&#45;développement durable</title>
<path fill="none" stroke="darkgrey" stroke-width="1.26" d="M250.33,-176.95C236.99,-181.55 218.85,-187.8 207.54,-191.7"/>
</g>
<!-- emploi&#45;&#45;innovation -->
<g id="edge12" class="edge">
<title>emploi&#45;&#45;innovation</title>
<path fill="none" stroke="darkgrey" stroke-width="1.01" d="M267.81,-189.16C268.1,-200.94 268.47,-215.95 268.72,-226.03"/>
</g>
<!-- pollution&#45;&#45;épuisement de la ressource -->
<g id="edge14" class="edge">
<title>pollution&#45;&#45;épuisement de la ressource</title>
<path fill="none" stroke="darkgrey" stroke-width="3.62" d="M339.84,-178.19C346.44,-187.56 354.28,-198.69 359.63,-206.3"/>
</g>
<!-- pollution&#45;&#45;impact environnemental -->
<g id="edge17" class="edge">
<title>pollution&#45;&#45;impact environnemental</title>
<path fill="none" stroke="darkgrey" stroke-width="10" d="M344.85,-173.31C356.13,-181.57 371.12,-192.54 384.21,-202.11"/>
</g>
<!-- pollution&#45;&#45;conflit -->
<g id="edge18" class="edge">
<title>pollution&#45;&#45;conflit</title>
<path fill="none" stroke="darkgrey" stroke-width="1.69" d="M348.78,-157.52C358.15,-156.17 368.52,-154.69 375.19,-153.73"/>
</g>
<!-- pollution&#45;&#45;économie du pays -->
<g id="edge21" class="edge">
<title>pollution&#45;&#45;économie du pays</title>
<path fill="none" stroke="darkgrey" stroke-width="3.39" d="M333.72,-181.47C339.89,-202.04 349.06,-232.61 353.85,-248.57"/>
</g>
<!-- pollution&#45;&#45;amélioration environnementale -->
<g id="edge22" class="edge">
<title>pollution&#45;&#45;amélioration environnementale</title>
<path fill="none" stroke="darkgrey" stroke-width="2.4" d="M314.2,-177.87C296.46,-201.06 265.28,-241.79 248.74,-263.41"/>
</g>
<!-- pollution&#45;&#45;développement durable -->
<g id="edge24" class="edge">
<title>pollution&#45;&#45;développement durable</title>
<path fill="none" stroke="darkgrey" stroke-width="1.2" d="M306.49,-166.16C278.4,-173.64 229.57,-186.65 207.9,-192.43"/>
</g>
<!-- pollution&#45;&#45;innovation -->
<g id="edge25" class="edge">
<title>pollution&#45;&#45;innovation</title>
<path fill="none" stroke="darkgrey" stroke-width="2.34" d="M314.18,-177.97C302.19,-193.7 285.03,-216.21 275.68,-228.46"/>
</g>
<!-- pollution&#45;&#45;montagne -->
<g id="edge15" class="edge">
<title>pollution&#45;&#45;montagne</title>
<path fill="none" stroke="darkgrey" d="M316.25,-142.01C297.8,-111.39 262.15,-52.24 253.53,-37.93"/>
</g>
<!-- pollution&#45;&#45;biodiversité -->
<g id="edge16" class="edge">
<title>pollution&#45;&#45;biodiversité</title>
<path fill="none" stroke="darkgrey" stroke-width="2.01" d="M329.05,-138.9C331.66,-103.84 336.67,-36.39 338.31,-14.24"/>
</g>
<!-- pollution&#45;&#45;vision positive de la ressource -->
<g id="edge19" class="edge">
<title>pollution&#45;&#45;vision positive de la ressource</title>
<path fill="none" stroke="darkgrey" stroke-width="1.06" d="M338.79,-179.09C359.06,-212.18 400.26,-279.42 409.64,-294.73"/>
</g>
<!-- pollution&#45;&#45;développement -->
<g id="edge20" class="edge">
<title>pollution&#45;&#45;développement</title>
<path fill="none" stroke="darkgrey" stroke-width="3.35" d="M325.76,-182.07C323.49,-210.89 319.56,-260.98 317.82,-283.21"/>
</g>
<!-- pollution&#45;&#45;déclin -->
<g id="edge23" class="edge">
<title>pollution&#45;&#45;déclin</title>
<path fill="none" stroke="darkgrey" stroke-width="1.11" d="M342.47,-145.14C361.75,-125.33 393.8,-92.4 402.89,-83.06"/>
</g>
<!-- pollution&#45;&#45;richesse -->
<g id="edge26" class="edge">
<title>pollution&#45;&#45;richesse</title>
<path fill="none" stroke="darkgrey" stroke-width="1.09" d="M348.13,-154.69C380.41,-145.5 440.69,-128.35 456.13,-123.95"/>
</g>
<!-- épuisement de la ressource&#45;&#45;impact environnemental -->
<g id="edge27" class="edge">
<title>épuisement de la ressource&#45;&#45;impact environnemental</title>
<path fill="none" stroke="darkgrey" stroke-width="4.09" d="M376.97,-217.2C377.19,-217.23 377.41,-217.27 377.64,-217.31"/>
</g>
<!-- épuisement de la ressource&#45;&#45;conflit -->
<g id="edge28" class="edge">
<title>épuisement de la ressource&#45;&#45;conflit</title>
<path fill="none" stroke="darkgrey" stroke-width="1.5" d="M368.8,-204.39C372.14,-191.51 377.61,-170.45 380.42,-159.63"/>
</g>
<!-- épuisement de la ressource&#45;&#45;économie du pays -->
<g id="edge30" class="edge">
<title>épuisement de la ressource&#45;&#45;économie du pays</title>
<path fill="none" stroke="darkgrey" stroke-width="1.29" d="M363.71,-226.35C362.34,-233.05 360.6,-241.55 359.24,-248.22"/>
</g>
<!-- épuisement de la ressource&#45;&#45;développement -->
<g id="edge29" class="edge">
<title>épuisement de la ressource&#45;&#45;développement</title>
<path fill="none" stroke="darkgrey" stroke-width="2.05" d="M360.15,-224.68C350.71,-239.9 332.18,-269.81 322.75,-285.02"/>
</g>
<!-- impact environnemental&#45;&#45;conflit -->
<g id="edge32" class="edge">
<title>impact environnemental&#45;&#45;conflit</title>
<path fill="none" stroke="darkgrey" stroke-width="4.59" d="M398.74,-190.19C393.55,-178.42 388.23,-166.36 385.08,-159.2"/>
</g>
<!-- impact environnemental&#45;&#45;économie du pays -->
<g id="edge36" class="edge">
<title>impact environnemental&#45;&#45;économie du pays</title>
<path fill="none" stroke="darkgrey" stroke-width="4.39" d="M382.91,-242.77C376.89,-246.58 371.01,-250.29 366.38,-253.22"/>
</g>
<!-- impact environnemental&#45;&#45;amélioration environnementale -->
<g id="edge37" class="edge">
<title>impact environnemental&#45;&#45;amélioration environnementale</title>
<path fill="none" stroke="darkgrey" stroke-width="2.56" d="M378.72,-234.23C341.51,-245.74 283.93,-263.53 255.23,-272.41"/>
</g>
<!-- impact environnemental&#45;&#45;innovation -->
<g id="edge40" class="edge">
<title>impact environnemental&#45;&#45;innovation</title>
<path fill="none" stroke="darkgrey" stroke-width="2.14" d="M377.36,-226.93C345.44,-229.97 300.83,-234.21 280.23,-236.17"/>
</g>
<!-- impact environnemental&#45;&#45;vision positive de la ressource -->
<g id="edge33" class="edge">
<title>impact environnemental&#45;&#45;vision positive de la ressource</title>
<path fill="none" stroke="darkgrey" stroke-width="1.62" d="M412.52,-259.82C412.17,-273.68 411.82,-287.71 411.66,-294.18"/>
</g>
<!-- impact environnemental&#45;&#45;développement -->
<g id="edge35" class="edge">
<title>impact environnemental&#45;&#45;développement</title>
<path fill="none" stroke="darkgrey" stroke-width="4.97" d="M384.22,-244.97C364.25,-259.64 339.1,-278.11 325.93,-287.79"/>
</g>
<!-- impact environnemental&#45;&#45;déclin -->
<g id="edge39" class="edge">
<title>impact environnemental&#45;&#45;déclin</title>
<path fill="none" stroke="darkgrey" stroke-width="1.55" d="M411.4,-187.42C409.34,-151.02 406.36,-98.24 405.57,-84.11"/>
</g>
<!-- impact environnemental&#45;&#45;richesse -->
<g id="edge41" class="edge">
<title>impact environnemental&#45;&#45;richesse</title>
<path fill="none" stroke="darkgrey" stroke-width="1.56" d="M428.62,-190.56C439.71,-166.5 453.6,-136.39 458.23,-126.35"/>
</g>
<!-- impact environnemental&#45;&#45;croissance minière -->
<g id="edge31" class="edge">
<title>impact environnemental&#45;&#45;croissance minière</title>
<path fill="none" stroke="darkgrey" stroke-width="1.33" d="M433.27,-253.82C455.55,-287.87 489.16,-339.23 493.27,-345.51"/>
</g>
<!-- impact environnemental&#45;&#45;avenir -->
<g id="edge34" class="edge">
<title>impact environnemental&#45;&#45;avenir</title>
<path fill="none" stroke="darkgrey" stroke-width="1.12" d="M446.86,-209.68C476.73,-197.33 516.53,-180.88 521.39,-178.87"/>
</g>
<!-- impact environnemental&#45;&#45;revenu -->
<g id="edge38" class="edge">
<title>impact environnemental&#45;&#45;revenu</title>
<path fill="none" stroke="darkgrey" stroke-width="1.45" d="M445.47,-240.06C482.56,-259.23 539.5,-288.66 546.47,-292.26"/>
</g>
<!-- impact environnemental&#45;&#45;automatisation -->
<g id="edge42" class="edge">
<title>impact environnemental&#45;&#45;automatisation</title>
<path fill="none" stroke="darkgrey" stroke-width="1.01" d="M449.75,-221.45C492.37,-219.04 559.29,-215.26 575.35,-214.35"/>
</g>
<!-- conflit&#45;&#45;économie du pays -->
<g id="edge43" class="edge">
<title>conflit&#45;&#45;économie du pays</title>
<path fill="none" stroke="darkgrey" stroke-width="1.2" d="M380.56,-159.7C376.27,-177.83 364.75,-226.48 359.58,-248.29"/>
</g>
<!-- amélioration environnementale&#45;&#45;développement durable -->
<g id="edge49" class="edge">
<title>amélioration environnementale&#45;&#45;développement durable</title>
<path fill="none" stroke="darkgrey" stroke-width="3.35" d="M229.67,-261.52C221.42,-244.81 208.85,-219.34 201.95,-205.37"/>
</g>
<!-- amélioration environnementale&#45;&#45;innovation -->
<g id="edge50" class="edge">
<title>amélioration environnementale&#45;&#45;innovation</title>
<path fill="none" stroke="darkgrey" stroke-width="1.23" d="M249,-263.17C253.34,-257.54 258.17,-251.28 261.99,-246.32"/>
</g>
<!-- amélioration environnementale&#45;&#45;maintien de l’exploitation -->
<g id="edge48" class="edge">
<title>amélioration environnementale&#45;&#45;maintien de l’exploitation</title>
<path fill="none" stroke="darkgrey" stroke-width="1.61" d="M220.42,-283.69C189.43,-294.2 126.22,-315.65 110.9,-320.84"/>
</g>
<!-- développement durable&#45;&#45;innovation -->
<g id="edge51" class="edge">
<title>développement durable&#45;&#45;innovation</title>
<path fill="none" stroke="darkgrey" stroke-width="1.6" d="M206.71,-200.98C220.53,-209.03 245.7,-223.68 259.44,-231.68"/>
</g>
<!-- procédé industriel&#45;&#45;amélioration environnementale -->
<g id="edge13" class="edge">
<title>procédé industriel&#45;&#45;amélioration environnementale</title>
<path fill="none" stroke="darkgrey" stroke-width="1.02" d="M191.12,-387.09C196.86,-373.62 219.08,-321.52 230.63,-294.42"/>
</g>
<!-- vision positive de la ressource&#45;&#45;économie du pays -->
<g id="edge44" class="edge">
<title>vision positive de la ressource&#45;&#45;économie du pays</title>
<path fill="none" stroke="darkgrey" stroke-width="1.24" d="M408.63,-295.79C400.76,-290.2 378.88,-274.65 366.28,-265.7"/>
</g>
<!-- développement&#45;&#45;économie du pays -->
<g id="edge45" class="edge">
<title>développement&#45;&#45;économie du pays</title>
<path fill="none" stroke="darkgrey" stroke-width="1.87" d="M325.44,-286.91C332.24,-280.93 341.73,-272.58 348.53,-266.59"/>
</g>
<!-- développement&#45;&#45;amélioration environnementale -->
<g id="edge46" class="edge">
<title>développement&#45;&#45;amélioration environnementale</title>
<path fill="none" stroke="darkgrey" stroke-width="2.08" d="M305.92,-292.09C292.83,-289.35 270.8,-284.74 255.33,-281.51"/>
</g>
<!-- développement&#45;&#45;innovation -->
<g id="edge47" class="edge">
<title>développement&#45;&#45;innovation</title>
<path fill="none" stroke="darkgrey" stroke-width="1.09" d="M309.87,-285.96C300.8,-275.15 285.18,-256.53 276.1,-245.71"/>
</g>
<!-- fin -->
<g id="node1" class="node">
<title>fin</title>
<ellipse fill="#751b6e" stroke="white" stroke-width="0" cx="312.41" cy="-207.7" rx="11" ry="11"/>
<text text-anchor="middle" x="295.91" y="-221.3" font-family="Helvetica,sans-Serif" font-size="8.00" fill="#4d4d4d">fin</text>
</g>
<!-- emploi -->
<g id="node2" class="node">
<title>emploi</title>
<ellipse fill="#b1325a" stroke="white" stroke-width="0" cx="267.36" cy="-171.08" rx="18" ry="18"/>
<text text-anchor="middle" x="235.36" y="-191.68" font-family="Helvetica,sans-Serif" font-size="8.00" fill="#4d4d4d">emploi</text>
</g>
<!-- pollution -->
<g id="node3" class="node">
<title>pollution</title>
<ellipse fill="#e75e2e" stroke="white" stroke-width="0" cx="327.44" cy="-160.57" rx="21.5" ry="21.5"/>
<text text-anchor="middle" x="287.44" y="-141.67" font-family="Helvetica,sans-Serif" font-size="8.00" fill="#4d4d4d">pollution</text>
</g>
<!-- épuisement de la ressource -->
<g id="node4" class="node">
<title>épuisement de la ressource</title>
<ellipse fill="#5c126e" stroke="white" stroke-width="0" cx="365.96" cy="-215.29" rx="11" ry="11"/>
<text text-anchor="middle" x="308.96" y="-197.89" font-family="Helvetica,sans-Serif" font-size="8.00" fill="#4d4d4d">épuisement de la ressource</text>
</g>
<!-- impact environnemental -->
<g id="node5" class="node">
<title>impact environnemental</title>
<ellipse fill="#fcffa4" stroke="white" stroke-width="0" cx="413.43" cy="-223.5" rx="36" ry="36"/>
<text text-anchor="middle" x="427.43" y="-262.1" font-family="Helvetica,sans-Serif" font-size="8.00" fill="#4d4d4d">impact environnemental</text>
</g>
<!-- conflit -->
<g id="node6" class="node">
<title>conflit</title>
<ellipse fill="#490b6a" stroke="white" stroke-width="0" cx="382.22" cy="-152.72" rx="7" ry="7"/>
<text text-anchor="middle" x="362.22" y="-162.32" font-family="Helvetica,sans-Serif" font-size="8.00" fill="#4d4d4d">conflit</text>
</g>
<!-- économie du pays -->
<g id="node7" class="node">
<title>économie du pays</title>
<ellipse fill="#57106e" stroke="white" stroke-width="0" cx="357.02" cy="-259.12" rx="11" ry="11"/>
<text text-anchor="middle" x="308.02" y="-272.72" font-family="Helvetica,sans-Serif" font-size="8.00" fill="#4d4d4d">économie du pays</text>
</g>
<!-- amélioration environnementale -->
<g id="node8" class="node">
<title>amélioration environnementale</title>
<ellipse fill="#b43359" stroke="white" stroke-width="0" cx="237.71" cy="-277.82" rx="18" ry="18"/>
<text text-anchor="middle" x="155.21" y="-298.42" font-family="Helvetica,sans-Serif" font-size="8.00" fill="#4d4d4d">amélioration environnementale</text>
</g>
<!-- famille -->
<g id="node9" class="node">
<title>famille</title>
<ellipse fill="#010106" stroke="white" stroke-width="0" cx="152.11" cy="-92.14" rx="0.5" ry="0.5"/>
<text text-anchor="middle" x="137.61" y="-95.24" font-family="Helvetica,sans-Serif" font-size="8.00" fill="#4d4d4d">famille</text>
</g>
<!-- développement durable -->
<g id="node10" class="node">
<title>développement durable</title>
<ellipse fill="#57106e" stroke="white" stroke-width="0" cx="197" cy="-195.33" rx="11" ry="11"/>
<text text-anchor="middle" x="136.5" y="-208.93" font-family="Helvetica,sans-Serif" font-size="8.00" fill="#4d4d4d">développement durable</text>
</g>
<!-- innovation -->
<g id="node11" class="node">
<title>innovation</title>
<ellipse fill="#721a6e" stroke="white" stroke-width="0" cx="268.99" cy="-237.24" rx="11" ry="11"/>
<text text-anchor="middle" x="235.99" y="-250.84" font-family="Helvetica,sans-Serif" font-size="8.00" fill="#4d4d4d">innovation</text>
</g>
<!-- procédé industriel -->
<g id="node12" class="node">
<title>procédé industriel</title>
<ellipse fill="#040314" stroke="white" stroke-width="0" cx="189.73" cy="-390.34" rx="3.5" ry="3.5"/>
<text text-anchor="middle" x="149.23" y="-396.44" font-family="Helvetica,sans-Serif" font-size="8.00" fill="#4d4d4d">procédé industriel</text>
</g>
<!-- montagne -->
<g id="node13" class="node">
<title>montagne</title>
<ellipse fill="#040312" stroke="white" stroke-width="0" cx="251.61" cy="-34.76" rx="3.5" ry="3.5"/>
<text text-anchor="middle" x="226.61" y="-40.86" font-family="Helvetica,sans-Serif" font-size="8.00" fill="#4d4d4d">montagne</text>
</g>
<!-- biodiversité -->
<g id="node14" class="node">
<title>biodiversité</title>
<ellipse fill="#290b55" stroke="white" stroke-width="0" cx="338.85" cy="-7" rx="7" ry="7"/>
<text text-anchor="middle" x="307.35" y="-16.6" font-family="Helvetica,sans-Serif" font-size="8.00" fill="#4d4d4d">biodiversité</text>
</g>
<!-- vision positive de la ressource -->
<g id="node15" class="node">
<title>vision positive de la ressource</title>
<ellipse fill="#230c4c" stroke="white" stroke-width="0" cx="411.57" cy="-297.88" rx="3.5" ry="3.5"/>
<text text-anchor="middle" x="470.07" y="-303.98" font-family="Helvetica,sans-Serif" font-size="8.00" fill="#4d4d4d">vision positive de la ressource</text>
</g>
<!-- développement -->
<g id="node16" class="node">
<title>développement</title>
<ellipse fill="#59106e" stroke="white" stroke-width="0" cx="316.94" cy="-294.39" rx="11" ry="11"/>
<text text-anchor="middle" x="273.44" y="-307.99" font-family="Helvetica,sans-Serif" font-size="8.00" fill="#4d4d4d">développement</text>
</g>
<!-- déclin -->
<g id="node17" class="node">
<title>déclin</title>
<ellipse fill="#180c3c" stroke="white" stroke-width="0" cx="405.36" cy="-80.52" rx="3.5" ry="3.5"/>
<text text-anchor="middle" x="389.36" y="-86.62" font-family="Helvetica,sans-Serif" font-size="8.00" fill="#4d4d4d">déclin</text>
</g>
<!-- richesse -->
<g id="node18" class="node">
<title>richesse</title>
<ellipse fill="#040312" stroke="white" stroke-width="0" cx="459.81" cy="-122.91" rx="3.5" ry="3.5"/>
<text text-anchor="middle" x="438.81" y="-129.01" font-family="Helvetica,sans-Serif" font-size="8.00" fill="#4d4d4d">richesse</text>
</g>
<!-- croissance minière -->
<g id="node19" class="node">
<title>croissance minière</title>
<ellipse fill="#010106" stroke="white" stroke-width="0" cx="493.69" cy="-346.15" rx="0.5" ry="0.5"/>
<text text-anchor="middle" x="455.19" y="-349.25" font-family="Helvetica,sans-Serif" font-size="8.00" fill="#4d4d4d">croissance minière</text>
</g>
<!-- avenir -->
<g id="node20" class="node">
<title>avenir</title>
<ellipse fill="#000004" stroke="white" stroke-width="0" cx="521.88" cy="-178.66" rx="0.5" ry="0.5"/>
<text text-anchor="middle" x="508.38" y="-181.76" font-family="Helvetica,sans-Serif" font-size="8.00" fill="#4d4d4d">avenir</text>
</g>
<!-- revenu -->
<g id="node21" class="node">
<title>revenu</title>
<ellipse fill="#02020c" stroke="white" stroke-width="0" cx="547.18" cy="-292.63" rx="0.5" ry="0.5"/>
<text text-anchor="middle" x="532.68" y="-294.73" font-family="Helvetica,sans-Serif" font-size="8.00" fill="#4d4d4d">revenu</text>
</g>
<!-- automatisation -->
<g id="node22" class="node">
<title>automatisation</title>
<ellipse fill="#140b34" stroke="white" stroke-width="0" cx="578.9" cy="-214.15" rx="3.5" ry="3.5"/>
<text text-anchor="middle" x="543.9" y="-220.25" font-family="Helvetica,sans-Serif" font-size="8.00" fill="#4d4d4d">automatisation</text>
</g>
<!-- maintien de l’exploitation -->
<g id="node23" class="node">
<title>maintien de l’exploitation</title>
<ellipse fill="#0d0829" stroke="white" stroke-width="0" cx="107.5" cy="-322" rx="3.5" ry="3.5"/>
<text text-anchor="middle" x="52" y="-328.1" font-family="Helvetica,sans-Serif" font-size="8.00" fill="#4d4d4d">maintien de l’exploitation</text>
</g>
</g>
</svg>
