<?xml version="1.0" encoding="UTF-8" standalone="no"?>
<!DOCTYPE svg PUBLIC "-//W3C//DTD SVG 1.1//EN"
 "http://www.w3.org/Graphics/SVG/1.1/DTD/svg11.dtd">
<!-- Generated by graphviz version 2.43.0 (0)
 -->
<!-- Pages: 1 -->
<svg width="928pt" height="762pt"
 viewBox="0.00 0.00 928.39 762.30" xmlns="http://www.w3.org/2000/svg" xmlns:xlink="http://www.w3.org/1999/xlink">
<g id="graph0" class="graph" transform="scale(1 1) rotate(0) translate(4 758.3)">
<polygon fill="white" stroke="transparent" points="-4,4 -4,-758.3 924.39,-758.3 924.39,4 -4,4"/>
<!-- pollution&#45;&#45;emploi -->
<g id="edge1" class="edge">
<title>pollution&#45;&#45;emploi</title>
<path fill="none" stroke="darkgrey" stroke-width="7" d="M616.81,-330.25C608.01,-335.19 597.58,-341.04 588.81,-345.96"/>
</g>
<!-- pollution&#45;&#45;économie du pays -->
<g id="edge2" class="edge">
<title>pollution&#45;&#45;économie du pays</title>
<path fill="none" stroke="darkgrey" stroke-width="4.1" d="M616.15,-310.44C593.26,-299.82 556.07,-282.58 536.25,-273.39"/>
</g>
<!-- pollution&#45;&#45;richesse -->
<g id="edge3" class="edge">
<title>pollution&#45;&#45;richesse</title>
<path fill="none" stroke="darkgrey" stroke-width="1.56" d="M625.59,-300.64C610.92,-273.59 584.72,-225.23 575.41,-208.04"/>
</g>
<!-- pollution&#45;&#45;impact environnemental -->
<g id="edge4" class="edge">
<title>pollution&#45;&#45;impact environnemental</title>
<path fill="none" stroke="darkgrey" stroke-width="10" d="M614.15,-318.61C575.23,-316.91 493.17,-313.3 445.68,-311.22"/>
</g>
<!-- pollution&#45;&#45;conflit -->
<g id="edge5" class="edge">
<title>pollution&#45;&#45;conflit</title>
<path fill="none" stroke="darkgrey" stroke-width="2.15" d="M631.53,-298.47C623.51,-259.23 606.55,-176.28 600.48,-146.56"/>
</g>
<!-- pollution&#45;&#45;revenu -->
<g id="edge6" class="edge">
<title>pollution&#45;&#45;revenu</title>
<path fill="none" stroke="darkgrey" stroke-width="1.83" d="M640.61,-298.58C645.81,-275.63 653.87,-240.15 657.25,-225.24"/>
</g>
<!-- pollution&#45;&#45;nickel -->
<g id="edge7" class="edge">
<title>pollution&#45;&#45;nickel</title>
<path fill="none" stroke="darkgrey" stroke-width="3.88" d="M615.81,-327.76C596.1,-335.81 566.19,-348.04 546.53,-356.08"/>
</g>
<!-- pollution&#45;&#45;milieu -->
<g id="edge8" class="edge">
<title>pollution&#45;&#45;milieu</title>
<path fill="none" stroke="darkgrey" stroke-width="1.07" d="M649.09,-336.87C670.44,-364.75 711.08,-417.8 720.9,-430.63"/>
</g>
<!-- pollution&#45;&#45;exploitation -->
<g id="edge9" class="edge">
<title>pollution&#45;&#45;exploitation</title>
<path fill="none" stroke="darkgrey" stroke-width="1.89" d="M614.23,-319.15C578.1,-318.46 506.65,-317.09 479.11,-316.57"/>
</g>
<!-- pollution&#45;&#45;montagne -->
<g id="edge10" class="edge">
<title>pollution&#45;&#45;montagne</title>
<path fill="none" stroke="darkgrey" stroke-width="2.04" d="M641.02,-340.65C645.4,-358.46 651.4,-382.89 654.28,-394.62"/>
</g>
<!-- pollution&#45;&#45;biodiversité -->
<g id="edge11" class="edge">
<title>pollution&#45;&#45;biodiversité</title>
<path fill="none" stroke="darkgrey" stroke-width="1.27" d="M657.43,-320.75C717.84,-324.05 885.98,-333.23 913.16,-334.72"/>
</g>
<!-- pollution&#45;&#45;développement -->
<g id="edge12" class="edge">
<title>pollution&#45;&#45;développement</title>
<path fill="none" stroke="darkgrey" stroke-width="2.08" d="M615.05,-325.5C560.37,-341.12 415.06,-382.61 390.48,-389.62"/>
</g>
<!-- pollution&#45;&#45;engin -->
<g id="edge13" class="edge">
<title>pollution&#45;&#45;engin</title>
<path fill="none" stroke="darkgrey" stroke-width="2.29" d="M620.79,-335.36C597.44,-359.87 553.3,-406.18 535.41,-424.95"/>
</g>
<!-- pollution&#45;&#45;minerai -->
<g id="edge14" class="edge">
<title>pollution&#45;&#45;minerai</title>
<path fill="none" stroke="darkgrey" stroke-width="1.92" d="M615.75,-311.65C609.4,-309.15 602.45,-306.41 596.33,-304"/>
</g>
<!-- pollution&#45;&#45;terre -->
<g id="edge15" class="edge">
<title>pollution&#45;&#45;terre</title>
<path fill="none" stroke="darkgrey" stroke-width="1.82" d="M629.18,-340.26C619.68,-369.75 602.61,-422.77 595.36,-445.28"/>
</g>
<!-- pollution&#45;&#45;usine -->
<g id="edge16" class="edge">
<title>pollution&#45;&#45;usine</title>
<path fill="none" stroke="darkgrey" stroke-width="2.07" d="M619.31,-333.52C584.42,-362.98 504.05,-430.84 474.56,-455.74"/>
</g>
<!-- pollution&#45;&#45;vision positive de la ressource -->
<g id="edge17" class="edge">
<title>pollution&#45;&#45;vision positive de la ressource</title>
<path fill="none" stroke="darkgrey" stroke-width="1.04" d="M619.04,-305.56C584.24,-276.55 505.74,-211.09 484.35,-193.26"/>
</g>
<!-- emploi&#45;&#45;économie du pays -->
<g id="edge19" class="edge">
<title>emploi&#45;&#45;économie du pays</title>
<path fill="none" stroke="darkgrey" stroke-width="5.45" d="M559.8,-337.11C550.68,-319.87 537.6,-295.13 529.68,-280.16"/>
</g>
<!-- emploi&#45;&#45;richesse -->
<g id="edge20" class="edge">
<title>emploi&#45;&#45;richesse</title>
<path fill="none" stroke="darkgrey" stroke-width="2.4" d="M570.32,-334.98C570.77,-299.61 571.64,-230.88 571.92,-208.79"/>
</g>
<!-- emploi&#45;&#45;impact environnemental -->
<g id="edge21" class="edge">
<title>emploi&#45;&#45;impact environnemental</title>
<path fill="none" stroke="darkgrey" stroke-width="8.05" d="M549.41,-350.46C522.84,-342.7 476.29,-329.11 444.27,-319.75"/>
</g>
<!-- emploi&#45;&#45;conflit -->
<g id="edge22" class="edge">
<title>emploi&#45;&#45;conflit</title>
<path fill="none" stroke="darkgrey" stroke-width="3.23" d="M572.81,-334.92C578.71,-288.69 592.41,-181.45 596.84,-146.73"/>
</g>
<!-- emploi&#45;&#45;revenu -->
<g id="edge23" class="edge">
<title>emploi&#45;&#45;revenu</title>
<path fill="none" stroke="darkgrey" stroke-width="2.88" d="M581.84,-338.14C602.03,-306.71 642.27,-244.07 654.93,-224.36"/>
</g>
<!-- emploi&#45;&#45;nickel -->
<g id="edge24" class="edge">
<title>emploi&#45;&#45;nickel</title>
<path fill="none" stroke="darkgrey" stroke-width="5.29" d="M548.84,-360.27C548.5,-360.33 548.16,-360.39 547.81,-360.45"/>
</g>
<!-- emploi&#45;&#45;exploitation -->
<g id="edge25" class="edge">
<title>emploi&#45;&#45;exploitation</title>
<path fill="none" stroke="darkgrey" stroke-width="2.4" d="M549.88,-348.56C528.37,-340.11 495.15,-327.05 478.38,-320.46"/>
</g>
<!-- emploi&#45;&#45;montagne -->
<g id="edge26" class="edge">
<title>emploi&#45;&#45;montagne</title>
<path fill="none" stroke="darkgrey" stroke-width="1.28" d="M589.12,-366.47C608.3,-376.5 636.79,-391.41 649.47,-398.04"/>
</g>
<!-- emploi&#45;&#45;développement -->
<g id="edge27" class="edge">
<title>emploi&#45;&#45;développement</title>
<path fill="none" stroke="darkgrey" stroke-width="1.34" d="M548.69,-360.48C505.48,-368.53 410.14,-386.31 390.51,-389.97"/>
</g>
<!-- emploi&#45;&#45;engin -->
<g id="edge28" class="edge">
<title>emploi&#45;&#45;engin</title>
<path fill="none" stroke="darkgrey" stroke-width="1.76" d="M559.55,-375.44C551.11,-390.7 539.58,-411.51 532.93,-423.52"/>
</g>
<!-- emploi&#45;&#45;minerai -->
<g id="edge29" class="edge">
<title>emploi&#45;&#45;minerai</title>
<path fill="none" stroke="darkgrey" stroke-width="1.95" d="M573.39,-335.12C574.4,-328.63 575.51,-321.56 576.48,-315.32"/>
</g>
<!-- emploi&#45;&#45;terre -->
<g id="edge30" class="edge">
<title>emploi&#45;&#45;terre</title>
<path fill="none" stroke="darkgrey" stroke-width="2.05" d="M574.7,-377.56C579.24,-398.18 585.99,-428.78 589.55,-444.94"/>
</g>
<!-- emploi&#45;&#45;usine -->
<g id="edge31" class="edge">
<title>emploi&#45;&#45;usine</title>
<path fill="none" stroke="darkgrey" stroke-width="1.97" d="M554.78,-372.06C532.79,-394.47 492.77,-435.24 473.87,-454.5"/>
</g>
<!-- emploi&#45;&#45;vision positive de la ressource -->
<g id="edge33" class="edge">
<title>emploi&#45;&#45;vision positive de la ressource</title>
<path fill="none" stroke="darkgrey" stroke-width="1.67" d="M559.77,-337.57C539.46,-300.2 495.08,-218.52 482.35,-195.09"/>
</g>
<!-- emploi&#45;&#45;opérateur minier -->
<g id="edge32" class="edge">
<title>emploi&#45;&#45;opérateur minier</title>
<path fill="none" stroke="darkgrey" stroke-width="1.71" d="M562.89,-376.97C549.96,-413.95 523.15,-490.6 513.36,-518.59"/>
</g>
<!-- emploi&#45;&#45;commerce -->
<g id="edge34" class="edge">
<title>emploi&#45;&#45;commerce</title>
<path fill="none" stroke="darkgrey" stroke-width="1.34" d="M550.99,-367.27C507.85,-391.65 404.4,-450.13 377.68,-465.24"/>
</g>
<!-- économie du pays&#45;&#45;richesse -->
<g id="edge35" class="edge">
<title>économie du pays&#45;&#45;richesse</title>
<path fill="none" stroke="darkgrey" stroke-width="1.3" d="M531.6,-255.47C542.22,-241.36 559.64,-218.21 567.68,-207.52"/>
</g>
<!-- économie du pays&#45;&#45;impact environnemental -->
<g id="edge36" class="edge">
<title>économie du pays&#45;&#45;impact environnemental</title>
<path fill="none" stroke="darkgrey" stroke-width="6.86" d="M508.93,-272.37C492.76,-278.44 465.46,-288.68 443.58,-296.9"/>
</g>
<!-- économie du pays&#45;&#45;conflit -->
<g id="edge37" class="edge">
<title>économie du pays&#45;&#45;conflit</title>
<path fill="none" stroke="darkgrey" stroke-width="2.16" d="M530.04,-254.55C545.01,-228.45 579.13,-168.99 592.62,-145.49"/>
</g>
<!-- économie du pays&#45;&#45;revenu -->
<g id="edge38" class="edge">
<title>économie du pays&#45;&#45;revenu</title>
<path fill="none" stroke="darkgrey" stroke-width="1.06" d="M536.6,-262.2C565.37,-251.86 630.88,-228.32 652.08,-220.71"/>
</g>
<!-- économie du pays&#45;&#45;nickel -->
<g id="edge39" class="edge">
<title>économie du pays&#45;&#45;nickel</title>
<path fill="none" stroke="darkgrey" stroke-width="2.72" d="M523.39,-281.9C524.02,-298.02 525.04,-324.02 525.77,-342.48"/>
</g>
<!-- économie du pays&#45;&#45;exploitation -->
<g id="edge40" class="edge">
<title>économie du pays&#45;&#45;exploitation</title>
<path fill="none" stroke="darkgrey" stroke-width="1.05" d="M511.96,-276.88C501.47,-286.29 485.79,-300.35 476.24,-308.9"/>
</g>
<!-- économie du pays&#45;&#45;engin -->
<g id="edge41" class="edge">
<title>économie du pays&#45;&#45;engin</title>
<path fill="none" stroke="darkgrey" stroke-width="1" d="M523.23,-281.89C524.17,-314.58 526.42,-392.61 527.26,-421.84"/>
</g>
<!-- économie du pays&#45;&#45;minerai -->
<g id="edge42" class="edge">
<title>économie du pays&#45;&#45;minerai</title>
<path fill="none" stroke="darkgrey" stroke-width="1.38" d="M535.62,-274C543.83,-278.37 554.54,-284.08 563.29,-288.76"/>
</g>
<!-- économie du pays&#45;&#45;terre -->
<g id="edge43" class="edge">
<title>économie du pays&#45;&#45;terre</title>
<path fill="none" stroke="darkgrey" stroke-width="1.08" d="M527.89,-281.03C541.12,-317.12 576.37,-413.32 588.1,-445.33"/>
</g>
<!-- économie du pays&#45;&#45;usine -->
<g id="edge44" class="edge">
<title>économie du pays&#45;&#45;usine</title>
<path fill="none" stroke="darkgrey" stroke-width="1.47" d="M518.63,-281.08C507.73,-317.42 478.51,-414.88 467.62,-451.21"/>
</g>
<!-- richesse&#45;&#45;impact environnemental -->
<g id="edge45" class="edge">
<title>richesse&#45;&#45;impact environnemental</title>
<path fill="none" stroke="darkgrey" stroke-width="2.89" d="M565.84,-205.87C545.45,-219.41 479.27,-263.38 439.9,-289.54"/>
</g>
<!-- richesse&#45;&#45;conflit -->
<g id="edge46" class="edge">
<title>richesse&#45;&#45;conflit</title>
<path fill="none" stroke="darkgrey" stroke-width="1.12" d="M574.62,-195.19C579.18,-183.7 588.64,-159.88 594.11,-146.11"/>
</g>
<!-- richesse&#45;&#45;nickel -->
<g id="edge47" class="edge">
<title>richesse&#45;&#45;nickel</title>
<path fill="none" stroke="darkgrey" stroke-width="1.66" d="M570.06,-208.75C563.59,-231.89 542.7,-306.68 532.43,-343.44"/>
</g>
<!-- richesse&#45;&#45;exploitation -->
<g id="edge48" class="edge">
<title>richesse&#45;&#45;exploitation</title>
<path fill="none" stroke="darkgrey" stroke-width="1.13" d="M567.27,-206.99C550.72,-225.21 495.49,-286.02 475.35,-308.18"/>
</g>
<!-- impact environnemental&#45;&#45;conflit -->
<g id="edge49" class="edge">
<title>impact environnemental&#45;&#45;conflit</title>
<path fill="none" stroke="darkgrey" stroke-width="2.6" d="M436.27,-285.08C479.73,-244.99 563.72,-167.52 590.11,-143.18"/>
</g>
<!-- impact environnemental&#45;&#45;revenu -->
<g id="edge50" class="edge">
<title>impact environnemental&#45;&#45;revenu</title>
<path fill="none" stroke="darkgrey" stroke-width="1.91" d="M443.51,-297.22C502.86,-275.46 622.2,-231.71 651.98,-220.79"/>
</g>
<!-- impact environnemental&#45;&#45;nickel -->
<g id="edge51" class="edge">
<title>impact environnemental&#45;&#45;nickel</title>
<path fill="none" stroke="darkgrey" stroke-width="5.59" d="M442.54,-324.99C463.36,-334.7 489.55,-346.92 507.13,-355.12"/>
</g>
<!-- impact environnemental&#45;&#45;milieu -->
<g id="edge52" class="edge">
<title>impact environnemental&#45;&#45;milieu</title>
<path fill="none" stroke="darkgrey" stroke-width="1.87" d="M443.19,-322.89C517.73,-352.34 692.7,-421.47 719.58,-432.09"/>
</g>
<!-- impact environnemental&#45;&#45;exploitation -->
<g id="edge54" class="edge">
<title>impact environnemental&#45;&#45;exploitation</title>
<path fill="none" stroke="darkgrey" stroke-width="4.46" d="M445.56,-313.78C449.69,-314.25 453.62,-314.7 457,-315.09"/>
</g>
<!-- impact environnemental&#45;&#45;montagne -->
<g id="edge55" class="edge">
<title>impact environnemental&#45;&#45;montagne</title>
<path fill="none" stroke="darkgrey" stroke-width="2.56" d="M443.64,-322.3C502.5,-344.24 619.92,-388 649.22,-398.92"/>
</g>
<!-- impact environnemental&#45;&#45;développement -->
<g id="edge56" class="edge">
<title>impact environnemental&#45;&#45;développement</title>
<path fill="none" stroke="darkgrey" stroke-width="2.2" d="M399.88,-344.46C395.17,-361.27 390.08,-379.41 387.96,-386.99"/>
</g>
<!-- impact environnemental&#45;&#45;engin -->
<g id="edge57" class="edge">
<title>impact environnemental&#45;&#45;engin</title>
<path fill="none" stroke="darkgrey" stroke-width="3.2" d="M434.66,-335.83C461.57,-364.02 502.8,-407.19 519.82,-425.02"/>
</g>
<!-- impact environnemental&#45;&#45;minerai -->
<g id="edge58" class="edge">
<title>impact environnemental&#45;&#45;minerai</title>
<path fill="none" stroke="darkgrey" stroke-width="2.64" d="M445.63,-307.02C481.03,-304.44 533.66,-300.61 561.12,-298.62"/>
</g>
<!-- impact environnemental&#45;&#45;terre -->
<g id="edge59" class="edge">
<title>impact environnemental&#45;&#45;terre</title>
<path fill="none" stroke="darkgrey" stroke-width="2.07" d="M437.74,-332.16C479.89,-365.97 557.32,-428.07 583.24,-448.86"/>
</g>
<!-- impact environnemental&#45;&#45;usine -->
<g id="edge61" class="edge">
<title>impact environnemental&#45;&#45;usine</title>
<path fill="none" stroke="darkgrey" stroke-width="2.21" d="M421.46,-343.76C433.09,-377.37 450.28,-427.06 458.6,-451.09"/>
</g>
<!-- impact environnemental&#45;&#45;vision positive de la ressource -->
<g id="edge63" class="edge">
<title>impact environnemental&#45;&#45;vision positive de la ressource</title>
<path fill="none" stroke="darkgrey" stroke-width="2.11" d="M427.66,-278.18C443.84,-249.9 466.37,-210.54 475.16,-195.19"/>
</g>
<!-- impact environnemental&#45;&#45;opérateur minier -->
<g id="edge62" class="edge">
<title>impact environnemental&#45;&#45;opérateur minier</title>
<path fill="none" stroke="darkgrey" stroke-width="1.39" d="M424.62,-342.5C447.73,-393.2 490.9,-487.91 505.05,-518.97"/>
</g>
<!-- impact environnemental&#45;&#45;commerce -->
<g id="edge68" class="edge">
<title>impact environnemental&#45;&#45;commerce</title>
<path fill="none" stroke="darkgrey" stroke-width="1.56" d="M401.14,-344.97C391.87,-383.45 377.73,-442.15 372.94,-462.01"/>
</g>
<!-- impact environnemental&#45;&#45;amélioration environnementale -->
<g id="edge53" class="edge">
<title>impact environnemental&#45;&#45;amélioration environnementale</title>
<path fill="none" stroke="darkgrey" stroke-width="1.17" d="M373.52,-306.25C319.76,-301.22 222.9,-292.15 203.06,-290.3"/>
</g>
<!-- impact environnemental&#45;&#45;industrie -->
<g id="edge60" class="edge">
<title>impact environnemental&#45;&#45;industrie</title>
<path fill="none" stroke="darkgrey" stroke-width="1.01" d="M383.57,-335.07C329.89,-387.4 211.43,-502.9 204.08,-510.07"/>
</g>
<!-- impact environnemental&#45;&#45;procédé industriel -->
<g id="edge64" class="edge">
<title>impact environnemental&#45;&#45;procédé industriel</title>
<path fill="none" stroke="darkgrey" stroke-width="1.09" d="M375.68,-321.72C308.9,-345.47 164.86,-396.71 140.6,-405.34"/>
</g>
<!-- impact environnemental&#45;&#45;danger -->
<g id="edge65" class="edge">
<title>impact environnemental&#45;&#45;danger</title>
<path fill="none" stroke="darkgrey" stroke-width="1.39" d="M379.47,-289.89C318.61,-250.06 186.04,-163.31 175.78,-156.6"/>
</g>
<!-- impact environnemental&#45;&#45;transition -->
<g id="edge66" class="edge">
<title>impact environnemental&#45;&#45;transition</title>
<path fill="none" stroke="darkgrey" stroke-width="1.04" d="M399.55,-274.92C381.2,-211.8 343.92,-83.63 340.47,-71.75"/>
</g>
<!-- impact environnemental&#45;&#45;épuisement de la ressource -->
<g id="edge67" class="edge">
<title>impact environnemental&#45;&#45;épuisement de la ressource</title>
<path fill="none" stroke="darkgrey" stroke-width="1.4" d="M389.2,-279.74C344.96,-215.07 243.85,-67.24 237.57,-58.07"/>
</g>
<!-- conflit&#45;&#45;revenu -->
<g id="edge69" class="edge">
<title>conflit&#45;&#45;revenu</title>
<path fill="none" stroke="darkgrey" stroke-width="1.29" d="M604.97,-144.83C617.54,-161.97 644.28,-198.43 654.62,-212.54"/>
</g>
<!-- revenu&#45;&#45;nickel -->
<g id="edge70" class="edge">
<title>revenu&#45;&#45;nickel</title>
<path fill="none" stroke="darkgrey" stroke-width="2.12" d="M654.13,-223.47C636.1,-243.38 570.93,-315.31 541.38,-347.93"/>
</g>
<!-- nickel&#45;&#45;milieu -->
<g id="edge71" class="edge">
<title>nickel&#45;&#45;milieu</title>
<path fill="none" stroke="darkgrey" stroke-width="1.09" d="M546.91,-371.37C592.2,-387.34 699.2,-425.05 719.66,-432.27"/>
</g>
<!-- nickel&#45;&#45;exploitation -->
<g id="edge72" class="edge">
<title>nickel&#45;&#45;exploitation</title>
<path fill="none" stroke="darkgrey" stroke-width="2.75" d="M509.96,-350.63C499.11,-341.79 485.41,-330.61 476.65,-323.47"/>
</g>
<!-- nickel&#45;&#45;montagne -->
<g id="edge73" class="edge">
<title>nickel&#45;&#45;montagne</title>
<path fill="none" stroke="darkgrey" stroke-width="1.92" d="M547.4,-370.2C577.11,-378.75 630.21,-394.02 649.07,-399.45"/>
</g>
<!-- nickel&#45;&#45;engin -->
<g id="edge75" class="edge">
<title>nickel&#45;&#45;engin</title>
<path fill="none" stroke="darkgrey" stroke-width="3.39" d="M526.93,-386.03C527.1,-398.02 527.3,-412.39 527.43,-422.08"/>
</g>
<!-- nickel&#45;&#45;minerai -->
<g id="edge76" class="edge">
<title>nickel&#45;&#45;minerai</title>
<path fill="none" stroke="darkgrey" stroke-width="4.42" d="M540.19,-346.99C548.84,-335.99 559.93,-321.9 568.09,-311.54"/>
</g>
<!-- nickel&#45;&#45;terre -->
<g id="edge77" class="edge">
<title>nickel&#45;&#45;terre</title>
<path fill="none" stroke="darkgrey" stroke-width="2.85" d="M539.22,-381.89C553.01,-401.23 574.6,-431.51 585.38,-446.62"/>
</g>
<!-- nickel&#45;&#45;usine -->
<g id="edge79" class="edge">
<title>nickel&#45;&#45;usine</title>
<path fill="none" stroke="darkgrey" stroke-width="4.44" d="M515.03,-382.73C502.28,-403.09 482.14,-435.26 471.18,-452.77"/>
</g>
<!-- nickel&#45;&#45;vision positive de la ressource -->
<g id="edge81" class="edge">
<title>nickel&#45;&#45;vision positive de la ressource</title>
<path fill="none" stroke="darkgrey" stroke-width="1.66" d="M520.96,-343.4C510.24,-303.99 487.45,-220.23 480.76,-195.63"/>
</g>
<!-- nickel&#45;&#45;opérateur minier -->
<g id="edge80" class="edge">
<title>nickel&#45;&#45;opérateur minier</title>
<path fill="none" stroke="darkgrey" stroke-width="3.26" d="M524.41,-385.78C520.76,-421.22 513.64,-490.59 510.84,-517.79"/>
</g>
<!-- nickel&#45;&#45;commerce -->
<g id="edge82" class="edge">
<title>nickel&#45;&#45;commerce</title>
<path fill="none" stroke="darkgrey" stroke-width="1.64" d="M508.5,-376.43C473.61,-399.93 398.65,-450.42 377.16,-464.89"/>
</g>
<!-- nickel&#45;&#45;main d’oeuvre -->
<g id="edge74" class="edge">
<title>nickel&#45;&#45;main d’oeuvre</title>
<path fill="none" stroke="darkgrey" stroke-width="1.38" d="M509.05,-351.46C471.96,-324.52 387.72,-263.34 371,-251.19"/>
</g>
<!-- nickel&#45;&#45;description minière -->
<g id="edge78" class="edge">
<title>nickel&#45;&#45;description minière</title>
<path fill="none" stroke="darkgrey" stroke-width="1.07" d="M546.79,-356.15C601.6,-334.23 750.82,-274.54 774.94,-264.89"/>
</g>
<!-- nickel&#45;&#45;ressource non&#45;renouvelable -->
<g id="edge83" class="edge">
<title>nickel&#45;&#45;ressource non&#45;renouvelable</title>
<path fill="none" stroke="darkgrey" stroke-width="2.05" d="M539.41,-381.82C567.09,-419.93 631.45,-508.52 648.53,-532.04"/>
</g>
<!-- exploitation&#45;&#45;engin -->
<g id="edge85" class="edge">
<title>exploitation&#45;&#45;engin</title>
<path fill="none" stroke="darkgrey" stroke-width="1.76" d="M473.02,-326.31C484.29,-348.38 511.26,-401.18 522.52,-423.22"/>
</g>
<!-- exploitation&#45;&#45;minerai -->
<g id="edge86" class="edge">
<title>exploitation&#45;&#45;minerai</title>
<path fill="none" stroke="darkgrey" stroke-width="3.53" d="M479.02,-314.46C498.27,-311.16 538.06,-304.35 561.31,-300.37"/>
</g>
<!-- exploitation&#45;&#45;usine -->
<g id="edge87" class="edge">
<title>exploitation&#45;&#45;usine</title>
<path fill="none" stroke="darkgrey" stroke-width="1.94" d="M467.59,-327.53C466.8,-354.02 464.79,-420.6 463.89,-450.35"/>
</g>
<!-- exploitation&#45;&#45;vision positive de la ressource -->
<g id="edge88" class="edge">
<title>exploitation&#45;&#45;vision positive de la ressource</title>
<path fill="none" stroke="darkgrey" stroke-width="1.53" d="M468.9,-305.02C471.11,-279.27 476.45,-216.95 478.26,-195.83"/>
</g>
<!-- exploitation&#45;&#45;commerce -->
<g id="edge89" class="edge">
<title>exploitation&#45;&#45;commerce</title>
<path fill="none" stroke="darkgrey" stroke-width="1.6" d="M461.89,-325.89C443.71,-354.58 389.87,-439.53 375.09,-462.86"/>
</g>
<!-- exploitation&#45;&#45;main d’oeuvre -->
<g id="edge84" class="edge">
<title>exploitation&#45;&#45;main d’oeuvre</title>
<path fill="none" stroke="darkgrey" stroke-width="1.14" d="M458.72,-310.14C437.28,-295.7 384.86,-260.38 371.31,-251.25"/>
</g>
<!-- montagne&#45;&#45;engin -->
<g id="edge90" class="edge">
<title>montagne&#45;&#45;engin</title>
<path fill="none" stroke="darkgrey" stroke-width="1.51" d="M649.06,-403.14C627.91,-408.36 563.92,-424.18 538.33,-430.5"/>
</g>
<!-- montagne&#45;&#45;minerai -->
<g id="edge91" class="edge">
<title>montagne&#45;&#45;minerai</title>
<path fill="none" stroke="darkgrey" stroke-width="1.75" d="M651.62,-395.54C639.9,-379.61 607.35,-335.4 590.19,-312.1"/>
</g>
<!-- montagne&#45;&#45;terre -->
<g id="edge92" class="edge">
<title>montagne&#45;&#45;terre</title>
<path fill="none" stroke="darkgrey" stroke-width="1.4" d="M650.5,-406.07C639.38,-415.53 614,-437.11 600.61,-448.49"/>
</g>
<!-- engin&#45;&#45;minerai -->
<g id="edge95" class="edge">
<title>engin&#45;&#45;minerai</title>
<path fill="none" stroke="darkgrey" stroke-width="2.73" d="M531.65,-422.49C540.6,-398.97 562.1,-342.48 572.89,-314.12"/>
</g>
<!-- engin&#45;&#45;terre -->
<g id="edge96" class="edge">
<title>engin&#45;&#45;terre</title>
<path fill="none" stroke="darkgrey" stroke-width="2.14" d="M538.22,-436.9C550.22,-441.13 569.61,-447.97 581.53,-452.17"/>
</g>
<!-- engin&#45;&#45;usine -->
<g id="edge97" class="edge">
<title>engin&#45;&#45;usine</title>
<path fill="none" stroke="darkgrey" stroke-width="2.29" d="M517.57,-438.15C506.58,-443.63 488.88,-452.44 476.74,-458.49"/>
</g>
<!-- engin&#45;&#45;opérateur minier -->
<g id="edge98" class="edge">
<title>engin&#45;&#45;opérateur minier</title>
<path fill="none" stroke="darkgrey" stroke-width="1.38" d="M525.54,-444.16C522.08,-462.67 515.15,-499.81 511.71,-518.24"/>
</g>
<!-- minerai&#45;&#45;terre -->
<g id="edge99" class="edge">
<title>minerai&#45;&#45;terre</title>
<path fill="none" stroke="darkgrey" stroke-width="1.81" d="M580.75,-315.48C583.39,-348.51 588.89,-417.42 591.05,-444.54"/>
</g>
<!-- minerai&#45;&#45;usine -->
<g id="edge101" class="edge">
<title>minerai&#45;&#45;usine</title>
<path fill="none" stroke="darkgrey" stroke-width="2.89" d="M569.02,-312.19C546.42,-344.92 492.8,-422.6 471.95,-452.8"/>
</g>
<!-- minerai&#45;&#45;vision positive de la ressource -->
<g id="edge104" class="edge">
<title>minerai&#45;&#45;vision positive de la ressource</title>
<path fill="none" stroke="darkgrey" stroke-width="1.3" d="M566.98,-283.98C544.78,-259.96 498.93,-210.38 483.82,-194.05"/>
</g>
<!-- minerai&#45;&#45;opérateur minier -->
<g id="edge102" class="edge">
<title>minerai&#45;&#45;opérateur minier</title>
<path fill="none" stroke="darkgrey" stroke-width="1.88" d="M574.06,-314.72C560.4,-360.21 523.96,-481.57 512.9,-518.38"/>
</g>
<!-- minerai&#45;&#45;description minière -->
<g id="edge100" class="edge">
<title>minerai&#45;&#45;description minière</title>
<path fill="none" stroke="darkgrey" stroke-width="1.1" d="M597.3,-294.24C641.49,-286.75 753.26,-267.8 774.67,-264.17"/>
</g>
<!-- minerai&#45;&#45;ressource non&#45;renouvelable -->
<g id="edge105" class="edge">
<title>minerai&#45;&#45;ressource non&#45;renouvelable</title>
<path fill="none" stroke="darkgrey" stroke-width="1.73" d="M584.58,-314.59C599.38,-363.07 640.83,-498.8 650.65,-530.96"/>
</g>
<!-- minerai&#45;&#45;nouvelle&#45;calédonie -->
<g id="edge103" class="edge">
<title>minerai&#45;&#45;nouvelle&#45;calédonie</title>
<path fill="none" stroke="darkgrey" stroke-width="1.12" d="M582.24,-279.17C592.39,-216.75 625.41,-13.74 627.46,-1.12"/>
</g>
<!-- terre&#45;&#45;usine -->
<g id="edge106" class="edge">
<title>terre&#45;&#45;usine</title>
<path fill="none" stroke="darkgrey" stroke-width="1.61" d="M580.55,-456.67C557.21,-458.35 504.01,-462.19 478.13,-464.06"/>
</g>
<!-- terre&#45;&#45;opérateur minier -->
<g id="edge107" class="edge">
<title>terre&#45;&#45;opérateur minier</title>
<path fill="none" stroke="darkgrey" d="M583.46,-463.41C567.7,-477.45 534.08,-507.39 518.25,-521.48"/>
</g>
<!-- usine&#45;&#45;opérateur minier -->
<g id="edge108" class="edge">
<title>usine&#45;&#45;opérateur minier</title>
<path fill="none" stroke="darkgrey" stroke-width="3.38" d="M472.14,-477.16C481.14,-489.61 494.99,-508.79 503.11,-520.03"/>
</g>
<!-- usine&#45;&#45;commerce -->
<g id="edge110" class="edge">
<title>usine&#45;&#45;commerce</title>
<path fill="none" stroke="darkgrey" stroke-width="1.29" d="M448.64,-465.72C428.5,-466.53 393.25,-467.96 378.31,-468.56"/>
</g>
<!-- usine&#45;&#45;ressource non&#45;renouvelable -->
<g id="edge112" class="edge">
<title>usine&#45;&#45;ressource non&#45;renouvelable</title>
<path fill="none" stroke="darkgrey" stroke-width="1.02" d="M477.06,-470.35C514.54,-484.75 618.25,-524.59 645.9,-535.22"/>
</g>
<!-- usine&#45;&#45;localité -->
<g id="edge109" class="edge">
<title>usine&#45;&#45;localité</title>
<path fill="none" stroke="darkgrey" stroke-width="1.75" d="M457.64,-478.56C441.41,-516.08 396.25,-620.54 387.58,-640.58"/>
</g>
<!-- usine&#45;&#45;métallurgie -->
<g id="edge111" class="edge">
<title>usine&#45;&#45;métallurgie</title>
<path fill="none" stroke="darkgrey" stroke-width="1.1" d="M458.66,-478.99C439.77,-533.66 371.28,-731.86 367.02,-744.2"/>
</g>
<!-- changement climatique&#45;&#45;impact environnemental -->
<g id="edge18" class="edge">
<title>changement climatique&#45;&#45;impact environnemental</title>
<path fill="none" stroke="darkgrey" stroke-width="1.19" d="M98.01,-268.4C108.95,-269.84 294.37,-294.38 373.9,-304.91"/>
</g>
<!-- opérateur minier&#45;&#45;localité -->
<g id="edge113" class="edge">
<title>opérateur minier&#45;&#45;localité</title>
<path fill="none" stroke="darkgrey" stroke-width="1.2" d="M501.57,-536.65C476.88,-559.6 403.37,-627.91 388.7,-641.55"/>
</g>
<!-- main d’oeuvre&#45;&#45;minerai -->
<g id="edge93" class="edge">
<title>main d’oeuvre&#45;&#45;minerai</title>
<path fill="none" stroke="darkgrey" stroke-width="1.29" d="M371.74,-249.9C394.37,-255.07 515.54,-282.74 561.55,-293.24"/>
</g>
<!-- main d’oeuvre&#45;&#45;usine -->
<g id="edge94" class="edge">
<title>main d’oeuvre&#45;&#45;usine</title>
<path fill="none" stroke="darkgrey" stroke-width="1.41" d="M369.58,-252.46C379.72,-275.44 438.5,-408.6 457.52,-451.68"/>
</g>
<!-- pollution -->
<g id="node1" class="node">
<title>pollution</title>
<ellipse fill="#cb4149" stroke="white" stroke-width="0" cx="635.84" cy="-319.57" rx="21.5" ry="21.5"/>
<text text-anchor="middle" x="632.84" y="-343.67" font-family="Helvetica,sans-Serif" font-size="8.00" fill="#4d4d4d">pollution</text>
</g>
<!-- emploi -->
<g id="node2" class="node">
<title>emploi</title>
<ellipse fill="#e35933" stroke="white" stroke-width="0" cx="570.05" cy="-356.49" rx="21.5" ry="21.5"/>
<text text-anchor="middle" x="534.55" y="-328.59" font-family="Helvetica,sans-Serif" font-size="8.00" fill="#4d4d4d">emploi</text>
</g>
<!-- économie du pays -->
<g id="node3" class="node">
<title>économie du pays</title>
<ellipse fill="#801f6c" stroke="white" stroke-width="0" cx="522.81" cy="-267.16" rx="14.5" ry="14.5"/>
<text text-anchor="middle" x="470.31" y="-255.26" font-family="Helvetica,sans-Serif" font-size="8.00" fill="#4d4d4d">économie du pays</text>
</g>
<!-- richesse -->
<g id="node4" class="node">
<title>richesse</title>
<ellipse fill="#360961" stroke="white" stroke-width="0" cx="572.01" cy="-201.77" rx="7" ry="7"/>
<text text-anchor="middle" x="547.51" y="-211.37" font-family="Helvetica,sans-Serif" font-size="8.00" fill="#4d4d4d">richesse</text>
</g>
<!-- impact environnemental -->
<g id="node5" class="node">
<title>impact environnemental</title>
<ellipse fill="#fcffa4" stroke="white" stroke-width="0" cx="409.65" cy="-309.64" rx="36" ry="36"/>
<text text-anchor="middle" x="323.65" y="-348.24" font-family="Helvetica,sans-Serif" font-size="8.00" fill="#4d4d4d">impact environnemental</text>
</g>
<!-- conflit -->
<g id="node6" class="node">
<title>conflit</title>
<ellipse fill="#520e6d" stroke="white" stroke-width="0" cx="598.25" cy="-135.67" rx="11" ry="11"/>
<text text-anchor="middle" x="574.25" y="-149.27" font-family="Helvetica,sans-Serif" font-size="8.00" fill="#4d4d4d">conflit</text>
</g>
<!-- revenu -->
<g id="node7" class="node">
<title>revenu</title>
<ellipse fill="#3e0966" stroke="white" stroke-width="0" cx="658.83" cy="-218.28" rx="7" ry="7"/>
<text text-anchor="middle" x="637.83" y="-227.88" font-family="Helvetica,sans-Serif" font-size="8.00" fill="#4d4d4d">revenu</text>
</g>
<!-- nickel -->
<g id="node8" class="node">
<title>nickel</title>
<ellipse fill="#d74b3f" stroke="white" stroke-width="0" cx="526.62" cy="-364.22" rx="21.5" ry="21.5"/>
<text text-anchor="middle" x="493.12" y="-388.32" font-family="Helvetica,sans-Serif" font-size="8.00" fill="#4d4d4d">nickel</text>
</g>
<!-- milieu -->
<g id="node9" class="node">
<title>milieu</title>
<ellipse fill="#120a32" stroke="white" stroke-width="0" cx="723.08" cy="-433.47" rx="3.5" ry="3.5"/>
<text text-anchor="middle" x="707.08" y="-439.57" font-family="Helvetica,sans-Serif" font-size="8.00" fill="#4d4d4d">milieu</text>
</g>
<!-- exploitation -->
<g id="node10" class="node">
<title>exploitation</title>
<ellipse fill="#771c6d" stroke="white" stroke-width="0" cx="467.93" cy="-316.35" rx="11" ry="11"/>
<text text-anchor="middle" x="481.43" y="-329.95" font-family="Helvetica,sans-Serif" font-size="8.00" fill="#4d4d4d">exploitation</text>
</g>
<!-- montagne -->
<g id="node11" class="node">
<title>montagne</title>
<ellipse fill="#2f0a5b" stroke="white" stroke-width="0" cx="655.96" cy="-401.43" rx="7" ry="7"/>
<text text-anchor="middle" x="627.46" y="-411.03" font-family="Helvetica,sans-Serif" font-size="8.00" fill="#4d4d4d">montagne</text>
</g>
<!-- biodiversité -->
<g id="node12" class="node">
<title>biodiversité</title>
<ellipse fill="#0b0724" stroke="white" stroke-width="0" cx="916.89" cy="-334.92" rx="3.5" ry="3.5"/>
<text text-anchor="middle" x="888.89" y="-341.02" font-family="Helvetica,sans-Serif" font-size="8.00" fill="#4d4d4d">biodiversité</text>
</g>
<!-- développement -->
<g id="node13" class="node">
<title>développement</title>
<ellipse fill="#190c3e" stroke="white" stroke-width="0" cx="386.93" cy="-390.64" rx="3.5" ry="3.5"/>
<text text-anchor="middle" x="350.93" y="-396.74" font-family="Helvetica,sans-Serif" font-size="8.00" fill="#4d4d4d">développement</text>
</g>
<!-- engin -->
<g id="node14" class="node">
<title>engin</title>
<ellipse fill="#6c186e" stroke="white" stroke-width="0" cx="527.59" cy="-433.16" rx="11" ry="11"/>
<text text-anchor="middle" x="504.59" y="-446.76" font-family="Helvetica,sans-Serif" font-size="8.00" fill="#4d4d4d">engin</text>
</g>
<!-- minerai -->
<g id="node15" class="node">
<title>minerai</title>
<ellipse fill="#ab2f5e" stroke="white" stroke-width="0" cx="579.3" cy="-297.29" rx="18" ry="18"/>
<text text-anchor="middle" x="545.8" y="-317.89" font-family="Helvetica,sans-Serif" font-size="8.00" fill="#4d4d4d">minerai</text>
</g>
<!-- terre -->
<g id="node16" class="node">
<title>terre</title>
<ellipse fill="#550f6d" stroke="white" stroke-width="0" cx="591.96" cy="-455.85" rx="11" ry="11"/>
<text text-anchor="middle" x="571.46" y="-469.45" font-family="Helvetica,sans-Serif" font-size="8.00" fill="#4d4d4d">terre</text>
</g>
<!-- usine -->
<g id="node17" class="node">
<title>usine</title>
<ellipse fill="#7d1e6d" stroke="white" stroke-width="0" cx="463.45" cy="-465.12" rx="14.5" ry="14.5"/>
<text text-anchor="middle" x="437.45" y="-482.22" font-family="Helvetica,sans-Serif" font-size="8.00" fill="#4d4d4d">usine</text>
</g>
<!-- vision positive de la ressource -->
<g id="node18" class="node">
<title>vision positive de la ressource</title>
<ellipse fill="#280b53" stroke="white" stroke-width="0" cx="478.87" cy="-188.7" rx="7" ry="7"/>
<text text-anchor="middle" x="409.87" y="-198.3" font-family="Helvetica,sans-Serif" font-size="8.00" fill="#4d4d4d">vision positive de la ressource</text>
</g>
<!-- changement climatique -->
<g id="node19" class="node">
<title>changement climatique</title>
<ellipse fill="#010005" stroke="white" stroke-width="0" cx="97.5" cy="-268.33" rx="0.5" ry="0.5"/>
<text text-anchor="middle" x="48.5" y="-271.43" font-family="Helvetica,sans-Serif" font-size="8.00" fill="#4d4d4d">changement climatique</text>
</g>
<!-- opérateur minier -->
<g id="node20" class="node">
<title>opérateur minier</title>
<ellipse fill="#71196e" stroke="white" stroke-width="0" cx="509.68" cy="-529.12" rx="11" ry="11"/>
<text text-anchor="middle" x="464.18" y="-542.72" font-family="Helvetica,sans-Serif" font-size="8.00" fill="#4d4d4d">opérateur minier</text>
</g>
<!-- commerce -->
<g id="node21" class="node">
<title>commerce</title>
<ellipse fill="#310a5c" stroke="white" stroke-width="0" cx="371.3" cy="-468.84" rx="7" ry="7"/>
<text text-anchor="middle" x="342.8" y="-478.44" font-family="Helvetica,sans-Serif" font-size="8.00" fill="#4d4d4d">commerce</text>
</g>
<!-- amélioration environnementale -->
<g id="node22" class="node">
<title>amélioration environnementale</title>
<ellipse fill="#050417" stroke="white" stroke-width="0" cx="199.46" cy="-289.96" rx="3.5" ry="3.5"/>
<text text-anchor="middle" x="131.46" y="-296.06" font-family="Helvetica,sans-Serif" font-size="8.00" fill="#4d4d4d">amélioration environnementale</text>
</g>
<!-- industrie -->
<g id="node23" class="node">
<title>industrie</title>
<ellipse fill="#02020c" stroke="white" stroke-width="0" cx="203.72" cy="-510.42" rx="0.5" ry="0.5"/>
<text text-anchor="middle" x="184.72" y="-513.52" font-family="Helvetica,sans-Serif" font-size="8.00" fill="#4d4d4d">industrie</text>
</g>
<!-- procédé industriel -->
<g id="node24" class="node">
<title>procédé industriel</title>
<ellipse fill="#040312" stroke="white" stroke-width="0" cx="137.1" cy="-406.58" rx="3.5" ry="3.5"/>
<text text-anchor="middle" x="96.6" y="-412.68" font-family="Helvetica,sans-Serif" font-size="8.00" fill="#4d4d4d">procédé industriel</text>
</g>
<!-- danger -->
<g id="node25" class="node">
<title>danger</title>
<ellipse fill="#02020e" stroke="white" stroke-width="0" cx="175.14" cy="-156.18" rx="0.5" ry="0.5"/>
<text text-anchor="middle" x="159.64" y="-159.28" font-family="Helvetica,sans-Serif" font-size="8.00" fill="#4d4d4d">danger</text>
</g>
<!-- transition -->
<g id="node26" class="node">
<title>transition</title>
<ellipse fill="#000004" stroke="white" stroke-width="0" cx="340.21" cy="-70.87" rx="0.5" ry="0.5"/>
<text text-anchor="middle" x="319.71" y="-73.97" font-family="Helvetica,sans-Serif" font-size="8.00" fill="#4d4d4d">transition</text>
</g>
<!-- épuisement de la ressource -->
<g id="node27" class="node">
<title>épuisement de la ressource</title>
<ellipse fill="#02010a" stroke="white" stroke-width="0" cx="237.26" cy="-57.62" rx="0.5" ry="0.5"/>
<text text-anchor="middle" x="179.76" y="-60.72" font-family="Helvetica,sans-Serif" font-size="8.00" fill="#4d4d4d">épuisement de la ressource</text>
</g>
<!-- main d’oeuvre -->
<g id="node28" class="node">
<title>main d’oeuvre</title>
<ellipse fill="#210c4a" stroke="white" stroke-width="0" cx="368.08" cy="-249.07" rx="3.5" ry="3.5"/>
<text text-anchor="middle" x="335.58" y="-255.17" font-family="Helvetica,sans-Serif" font-size="8.00" fill="#4d4d4d">main d’oeuvre</text>
</g>
<!-- description minière -->
<g id="node29" class="node">
<title>description minière</title>
<ellipse fill="#110a30" stroke="white" stroke-width="0" cx="778.25" cy="-263.57" rx="3.5" ry="3.5"/>
<text text-anchor="middle" x="735.25" y="-269.67" font-family="Helvetica,sans-Serif" font-size="8.00" fill="#4d4d4d">description minière</text>
</g>
<!-- ressource non&#45;renouvelable -->
<g id="node30" class="node">
<title>ressource non&#45;renouvelable</title>
<ellipse fill="#240c4f" stroke="white" stroke-width="0" cx="652.76" cy="-537.85" rx="7" ry="7"/>
<text text-anchor="middle" x="588.26" y="-547.45" font-family="Helvetica,sans-Serif" font-size="8.00" fill="#4d4d4d">ressource non&#45;renouvelable</text>
</g>
<!-- nouvelle&#45;calédonie -->
<g id="node31" class="node">
<title>nouvelle&#45;calédonie</title>
<ellipse fill="#030210" stroke="white" stroke-width="0" cx="627.56" cy="-0.5" rx="0.5" ry="0.5"/>
<text text-anchor="middle" x="587.56" y="-3.6" font-family="Helvetica,sans-Serif" font-size="8.00" fill="#4d4d4d">nouvelle&#45;calédonie</text>
</g>
<!-- localité -->
<g id="node32" class="node">
<title>localité</title>
<ellipse fill="#10092d" stroke="white" stroke-width="0" cx="386.13" cy="-643.93" rx="3.5" ry="3.5"/>
<text text-anchor="middle" x="367.13" y="-650.03" font-family="Helvetica,sans-Serif" font-size="8.00" fill="#4d4d4d">localité</text>
</g>
<!-- métallurgie -->
<g id="node33" class="node">
<title>métallurgie</title>
<ellipse fill="#030210" stroke="white" stroke-width="0" cx="366.81" cy="-744.8" rx="0.5" ry="0.5"/>
<text text-anchor="middle" x="342.81" y="-747.9" font-family="Helvetica,sans-Serif" font-size="8.00" fill="#4d4d4d">métallurgie</text>
</g>
</g>
</svg>
