<?xml version="1.0" encoding="UTF-8" standalone="no"?>
<!DOCTYPE svg PUBLIC "-//W3C//DTD SVG 1.1//EN"
 "http://www.w3.org/Graphics/SVG/1.1/DTD/svg11.dtd">
<!-- Generated by graphviz version 2.43.0 (0)
 -->
<!-- Pages: 1 -->
<svg width="1036pt" height="475pt"
 viewBox="0.00 0.00 1036.29 474.75" xmlns="http://www.w3.org/2000/svg" xmlns:xlink="http://www.w3.org/1999/xlink">
<g id="graph0" class="graph" transform="scale(1 1) rotate(0) translate(4 470.75)">
<polygon fill="white" stroke="transparent" points="-4,4 -4,-470.75 1032.29,-470.75 1032.29,4 -4,4"/>
<!-- avenir sans nickel&#45;&#45;travail -->
<g id="edge1" class="edge">
<title>avenir sans nickel&#45;&#45;travail</title>
<path fill="none" stroke="darkgrey" stroke-width="3.33" d="M443.05,-150.47C435.63,-177.26 424.69,-216.71 418.45,-239.24"/>
</g>
<!-- avenir sans nickel&#45;&#45;politique -->
<g id="edge2" class="edge">
<title>avenir sans nickel&#45;&#45;politique</title>
<path fill="none" stroke="darkgrey" stroke-width="3.79" d="M456.49,-151.15C464.01,-189.65 477.15,-256.95 483.82,-291.09"/>
</g>
<!-- avenir sans nickel&#45;&#45;secteur nickel -->
<g id="edge3" class="edge">
<title>avenir sans nickel&#45;&#45;secteur nickel</title>
<path fill="none" stroke="darkgrey" stroke-width="3.14" d="M477.72,-134.22C526.01,-155.68 626.46,-200.29 669.14,-219.26"/>
</g>
<!-- avenir sans nickel&#45;&#45;relation politique -->
<g id="edge4" class="edge">
<title>avenir sans nickel&#45;&#45;relation politique</title>
<path fill="none" stroke="darkgrey" stroke-width="1.17" d="M448.73,-93.23C446.54,-63.56 443.35,-20.08 442.4,-7.21"/>
</g>
<!-- avenir sans nickel&#45;&#45;avenir avec nickel -->
<g id="edge5" class="edge">
<title>avenir sans nickel&#45;&#45;avenir avec nickel</title>
<path fill="none" stroke="darkgrey" stroke-width="3.08" d="M477.03,-109.32C498.44,-98.71 527.55,-84.28 542.59,-76.83"/>
</g>
<!-- avenir sans nickel&#45;&#45;pollution -->
<g id="edge6" class="edge">
<title>avenir sans nickel&#45;&#45;pollution</title>
<path fill="none" stroke="darkgrey" stroke-width="5.53" d="M477.4,-134.24C495.78,-142.51 520,-153.41 537.55,-161.3"/>
</g>
<!-- avenir sans nickel&#45;&#45;ressource minière -->
<g id="edge7" class="edge">
<title>avenir sans nickel&#45;&#45;ressource minière</title>
<path fill="none" stroke="darkgrey" stroke-width="5.62" d="M478.15,-133.25C514.52,-147.85 578.27,-173.44 612.5,-187.18"/>
</g>
<!-- avenir sans nickel&#45;&#45;dégradation environnementale -->
<g id="edge8" class="edge">
<title>avenir sans nickel&#45;&#45;dégradation environnementale</title>
<path fill="none" stroke="darkgrey" stroke-width="6.21" d="M458.97,-150.59C459.95,-154 460.96,-157.51 461.96,-161.01"/>
</g>
<!-- avenir sans nickel&#45;&#45;nature -->
<g id="edge9" class="edge">
<title>avenir sans nickel&#45;&#45;nature</title>
<path fill="none" stroke="darkgrey" stroke-width="1.12" d="M423.6,-133.18C384.31,-148.86 313.55,-177.11 286.92,-187.74"/>
</g>
<!-- avenir sans nickel&#45;&#45;société néo&#45;calédonienne -->
<g id="edge10" class="edge">
<title>avenir sans nickel&#45;&#45;société néo&#45;calédonienne</title>
<path fill="none" stroke="darkgrey" stroke-width="3.04" d="M448.25,-151.48C443.59,-203.52 434,-310.52 430.5,-349.58"/>
</g>
<!-- avenir sans nickel&#45;&#45;alternative au développement -->
<g id="edge11" class="edge">
<title>avenir sans nickel&#45;&#45;alternative au développement</title>
<path fill="none" stroke="darkgrey" stroke-width="4.59" d="M470.83,-143.69C496.87,-171.59 542.15,-220.11 568.2,-248.02"/>
</g>
<!-- avenir sans nickel&#45;&#45;économie -->
<g id="edge12" class="edge">
<title>avenir sans nickel&#45;&#45;économie</title>
<path fill="none" stroke="darkgrey" stroke-width="2.67" d="M464.13,-148.25C477.31,-174.02 497.1,-212.71 508.17,-234.38"/>
</g>
<!-- avenir sans nickel&#45;&#45;amélioration environnementale -->
<g id="edge13" class="edge">
<title>avenir sans nickel&#45;&#45;amélioration environnementale</title>
<path fill="none" stroke="darkgrey" stroke-width="2.11" d="M474.68,-139.4C524.88,-175.44 639.62,-257.83 672.57,-281.5"/>
</g>
<!-- avenir sans nickel&#45;&#45;essor technologique -->
<g id="edge14" class="edge">
<title>avenir sans nickel&#45;&#45;essor technologique</title>
<path fill="none" stroke="darkgrey" stroke-width="1.37" d="M479.02,-113.98C520.31,-101.78 596.06,-79.41 630.07,-69.36"/>
</g>
<!-- travail&#45;&#45;politique -->
<g id="edge15" class="edge">
<title>travail&#45;&#45;politique</title>
<path fill="none" stroke="darkgrey" stroke-width="3.52" d="M428.29,-267.69C440.48,-276.79 457.83,-289.75 470.68,-299.36"/>
</g>
<!-- travail&#45;&#45;secteur nickel -->
<g id="edge16" class="edge">
<title>travail&#45;&#45;secteur nickel</title>
<path fill="none" stroke="darkgrey" stroke-width="3.68" d="M431.67,-254.83C480.5,-249.76 614.93,-235.79 667.52,-230.32"/>
</g>
<!-- travail&#45;&#45;avenir avec nickel -->
<g id="edge17" class="edge">
<title>travail&#45;&#45;avenir avec nickel</title>
<path fill="none" stroke="darkgrey" stroke-width="1.62" d="M424.5,-242.21C452,-205.63 523.58,-110.38 545.81,-80.81"/>
</g>
<!-- travail&#45;&#45;pollution -->
<g id="edge18" class="edge">
<title>travail&#45;&#45;pollution</title>
<path fill="none" stroke="darkgrey" stroke-width="5.24" d="M429.33,-247.61C455.68,-232.35 508.8,-201.58 538.73,-184.24"/>
</g>
<!-- travail&#45;&#45;ressource minière -->
<g id="edge19" class="edge">
<title>travail&#45;&#45;ressource minière</title>
<path fill="none" stroke="darkgrey" stroke-width="2.84" d="M431.04,-251.99C470.43,-241.32 566.36,-215.34 611.52,-203.11"/>
</g>
<!-- travail&#45;&#45;dégradation environnementale -->
<g id="edge20" class="edge">
<title>travail&#45;&#45;dégradation environnementale</title>
<path fill="none" stroke="darkgrey" stroke-width="6.37" d="M426.28,-243.54C432.31,-237.27 439.76,-229.53 446.87,-222.14"/>
</g>
<!-- travail&#45;&#45;nature -->
<g id="edge21" class="edge">
<title>travail&#45;&#45;nature</title>
<path fill="none" stroke="darkgrey" stroke-width="1.05" d="M397.33,-249.03C368.65,-235.49 309.94,-207.77 286.44,-196.68"/>
</g>
<!-- travail&#45;&#45;société néo&#45;calédonienne -->
<g id="edge22" class="edge">
<title>travail&#45;&#45;société néo&#45;calédonienne</title>
<path fill="none" stroke="darkgrey" stroke-width="3.5" d="M416.25,-274.96C419.3,-296.05 424.27,-330.35 427.08,-349.73"/>
</g>
<!-- travail&#45;&#45;alternative au développement -->
<g id="edge23" class="edge">
<title>travail&#45;&#45;alternative au développement</title>
<path fill="none" stroke="darkgrey" stroke-width="3.83" d="M431.63,-258.03C461.78,-260.22 522.68,-264.67 559,-267.32"/>
</g>
<!-- travail&#45;&#45;économie -->
<g id="edge25" class="edge">
<title>travail&#45;&#45;économie</title>
<path fill="none" stroke="darkgrey" stroke-width="3.95" d="M431.99,-255.61C450.71,-254.49 479.56,-252.77 498.22,-251.65"/>
</g>
<!-- travail&#45;&#45;amélioration environnementale -->
<g id="edge26" class="edge">
<title>travail&#45;&#45;amélioration environnementale</title>
<path fill="none" stroke="darkgrey" stroke-width="2.76" d="M431.6,-258.81C483,-264.8 629.4,-281.88 670.64,-286.69"/>
</g>
<!-- travail&#45;&#45;essor technologique -->
<g id="edge27" class="edge">
<title>travail&#45;&#45;essor technologique</title>
<path fill="none" stroke="darkgrey" stroke-width="3.02" d="M427.53,-245.25C469.02,-211.1 591.49,-110.28 633.26,-75.89"/>
</g>
<!-- travail&#45;&#45;nickel -->
<g id="edge24" class="edge">
<title>travail&#45;&#45;nickel</title>
<path fill="none" stroke="darkgrey" stroke-width="1.43" d="M428.63,-266.84C470.75,-295.23 588.66,-374.7 616.59,-393.53"/>
</g>
<!-- travail&#45;&#45;matériel -->
<g id="edge28" class="edge">
<title>travail&#45;&#45;matériel</title>
<path fill="none" stroke="darkgrey" stroke-width="1.09" d="M398.6,-266.71C344.32,-302.87 160.7,-425.22 149.28,-432.83"/>
</g>
<!-- politique&#45;&#45;secteur nickel -->
<g id="edge33" class="edge">
<title>politique&#45;&#45;secteur nickel</title>
<path fill="none" stroke="darkgrey" stroke-width="3.89" d="M507.96,-303.88C546.5,-287.74 630.61,-252.54 669.09,-236.43"/>
</g>
<!-- politique&#45;&#45;relation politique -->
<g id="edge34" class="edge">
<title>politique&#45;&#45;relation politique</title>
<path fill="none" stroke="darkgrey" stroke-width="1.75" d="M484.73,-290.54C475.11,-225.76 447.02,-36.48 442.69,-7.3"/>
</g>
<!-- politique&#45;&#45;avenir avec nickel -->
<g id="edge35" class="edge">
<title>politique&#45;&#45;avenir avec nickel</title>
<path fill="none" stroke="darkgrey" stroke-width="1.53" d="M493.56,-291.35C506.81,-242.01 539.65,-119.72 549.59,-82.7"/>
</g>
<!-- politique&#45;&#45;pollution -->
<g id="edge36" class="edge">
<title>politique&#45;&#45;pollution</title>
<path fill="none" stroke="darkgrey" stroke-width="3.51" d="M497.89,-293C511.24,-267.12 534.92,-221.23 549.02,-193.9"/>
</g>
<!-- politique&#45;&#45;ressource minière -->
<g id="edge37" class="edge">
<title>politique&#45;&#45;ressource minière</title>
<path fill="none" stroke="darkgrey" stroke-width="3.96" d="M504.91,-298.98C532.37,-277.49 586.43,-235.18 615.75,-212.23"/>
</g>
<!-- politique&#45;&#45;dégradation environnementale -->
<g id="edge38" class="edge">
<title>politique&#45;&#45;dégradation environnementale</title>
<path fill="none" stroke="darkgrey" stroke-width="5.13" d="M485.02,-290.94C482.76,-274.42 479.57,-251.17 476.91,-231.81"/>
</g>
<!-- politique&#45;&#45;société néo&#45;calédonienne -->
<g id="edge39" class="edge">
<title>politique&#45;&#45;société néo&#45;calédonienne</title>
<path fill="none" stroke="darkgrey" stroke-width="2.35" d="M471.58,-326.74C461.53,-335.64 448.93,-346.79 440.09,-354.61"/>
</g>
<!-- politique&#45;&#45;alternative au développement -->
<g id="edge41" class="edge">
<title>politique&#45;&#45;alternative au développement</title>
<path fill="none" stroke="darkgrey" stroke-width="3.12" d="M507.75,-303.8C523.05,-297.27 544.37,-288.16 561.22,-280.96"/>
</g>
<!-- politique&#45;&#45;économie -->
<g id="edge43" class="edge">
<title>politique&#45;&#45;économie</title>
<path fill="none" stroke="darkgrey" stroke-width="3.7" d="M496.97,-292.74C500.75,-284.55 505.1,-275.12 508.74,-267.26"/>
</g>
<!-- politique&#45;&#45;nickel -->
<g id="edge42" class="edge">
<title>politique&#45;&#45;nickel</title>
<path fill="none" stroke="darkgrey" stroke-width="1.09" d="M506.39,-323.94C537.07,-343.38 597.13,-381.44 616.45,-393.68"/>
</g>
<!-- politique&#45;&#45;nouvelle&#45;calédonie -->
<g id="edge40" class="edge">
<title>politique&#45;&#45;nouvelle&#45;calédonie</title>
<path fill="none" stroke="darkgrey" stroke-width="1.58" d="M497.05,-331.79C510.97,-361.65 536.85,-417.19 545.7,-436.18"/>
</g>
<!-- secteur nickel&#45;&#45;relation politique -->
<g id="edge44" class="edge">
<title>secteur nickel&#45;&#45;relation politique</title>
<path fill="none" stroke="darkgrey" stroke-width="1.41" d="M672.82,-213.35C621.97,-167.1 467.55,-26.63 444.91,-6.03"/>
</g>
<!-- secteur nickel&#45;&#45;avenir avec nickel -->
<g id="edge45" class="edge">
<title>secteur nickel&#45;&#45;avenir avec nickel</title>
<path fill="none" stroke="darkgrey" stroke-width="1.72" d="M674.67,-211.67C645.78,-178.62 581.51,-105.11 559.81,-80.29"/>
</g>
<!-- secteur nickel&#45;&#45;pollution -->
<g id="edge46" class="edge">
<title>secteur nickel&#45;&#45;pollution</title>
<path fill="none" stroke="darkgrey" stroke-width="3.9" d="M669.22,-219.39C646.13,-209.25 608.01,-192.5 583.59,-181.77"/>
</g>
<!-- secteur nickel&#45;&#45;ressource minière -->
<g id="edge47" class="edge">
<title>secteur nickel&#45;&#45;ressource minière</title>
<path fill="none" stroke="darkgrey" stroke-width="2.41" d="M670.41,-217.05C666.21,-214.56 661.72,-211.9 657.41,-209.35"/>
</g>
<!-- secteur nickel&#45;&#45;dégradation environnementale -->
<g id="edge48" class="edge">
<title>secteur nickel&#45;&#45;dégradation environnementale</title>
<path fill="none" stroke="darkgrey" stroke-width="3.57" d="M667.42,-224.9C630.11,-219.38 553.24,-208.03 507.82,-201.31"/>
</g>
<!-- secteur nickel&#45;&#45;société néo&#45;calédonienne -->
<g id="edge49" class="edge">
<title>secteur nickel&#45;&#45;société néo&#45;calédonienne</title>
<path fill="none" stroke="darkgrey" stroke-width="1.98" d="M669.92,-238.1C619.64,-264.45 484.61,-335.22 442.15,-357.47"/>
</g>
<!-- secteur nickel&#45;&#45;alternative au développement -->
<g id="edge51" class="edge">
<title>secteur nickel&#45;&#45;alternative au développement</title>
<path fill="none" stroke="darkgrey" stroke-width="5.62" d="M669.1,-236.26C653.72,-242.57 632.28,-251.36 615.33,-258.32"/>
</g>
<!-- secteur nickel&#45;&#45;économie -->
<g id="edge53" class="edge">
<title>secteur nickel&#45;&#45;économie</title>
<path fill="none" stroke="darkgrey" stroke-width="2.58" d="M667.51,-230.89C633.18,-235.36 566.6,-244.03 534.55,-248.2"/>
</g>
<!-- secteur nickel&#45;&#45;amélioration environnementale -->
<g id="edge54" class="edge">
<title>secteur nickel&#45;&#45;amélioration environnementale</title>
<path fill="none" stroke="darkgrey" stroke-width="3.15" d="M686.33,-249.7C685.19,-258.95 683.89,-269.34 682.95,-276.96"/>
</g>
<!-- secteur nickel&#45;&#45;essor technologique -->
<g id="edge55" class="edge">
<title>secteur nickel&#45;&#45;essor technologique</title>
<path fill="none" stroke="darkgrey" stroke-width="2.1" d="M683.67,-207C675.37,-174.33 659.56,-112.09 651.86,-81.75"/>
</g>
<!-- secteur nickel&#45;&#45;nickel -->
<g id="edge52" class="edge">
<title>secteur nickel&#45;&#45;nickel</title>
<path fill="none" stroke="darkgrey" stroke-width="2.1" d="M681.14,-248.19C666.22,-286.25 634.52,-367.12 625.21,-390.88"/>
</g>
<!-- secteur nickel&#45;&#45;nouvelle&#45;calédonie -->
<g id="edge50" class="edge">
<title>secteur nickel&#45;&#45;nouvelle&#45;calédonie</title>
<path fill="none" stroke="darkgrey" stroke-width="1.1" d="M677.06,-246.39C647.25,-292.02 570.73,-409.12 552.64,-436.82"/>
</g>
<!-- secteur nickel&#45;&#45;échange commercial -->
<g id="edge56" class="edge">
<title>secteur nickel&#45;&#45;échange commercial</title>
<path fill="none" stroke="darkgrey" stroke-width="1.01" d="M707.72,-239.03C776.52,-279.3 1012.4,-417.38 1027.08,-425.97"/>
</g>
<!-- relation politique&#45;&#45;pollution -->
<g id="edge57" class="edge">
<title>relation politique&#45;&#45;pollution</title>
<path fill="none" stroke="darkgrey" stroke-width="1.05" d="M444.18,-6.42C456.19,-23.47 517.7,-110.83 546.1,-151.17"/>
</g>
<!-- relation politique&#45;&#45;dégradation environnementale -->
<g id="edge58" class="edge">
<title>relation politique&#45;&#45;dégradation environnementale</title>
<path fill="none" stroke="darkgrey" stroke-width="1.32" d="M442.7,-7.17C445.59,-25.78 458.76,-110.7 466.43,-160.1"/>
</g>
<!-- relation politique&#45;&#45;économie -->
<g id="edge59" class="edge">
<title>relation politique&#45;&#45;économie</title>
<path fill="none" stroke="darkgrey" stroke-width="1.56" d="M443.18,-6.99C450.64,-31.8 495.78,-181.87 511.25,-233.29"/>
</g>
<!-- avenir avec nickel&#45;&#45;pollution -->
<g id="edge60" class="edge">
<title>avenir avec nickel&#45;&#45;pollution</title>
<path fill="none" stroke="darkgrey" stroke-width="1.02" d="M553.38,-82.97C554.6,-98.18 556.84,-126.01 558.48,-146.44"/>
</g>
<!-- avenir avec nickel&#45;&#45;ressource minière -->
<g id="edge61" class="edge">
<title>avenir avec nickel&#45;&#45;ressource minière</title>
<path fill="none" stroke="darkgrey" stroke-width="1.54" d="M558.75,-81.29C572.07,-101.21 603.49,-148.21 621.83,-175.64"/>
</g>
<!-- avenir avec nickel&#45;&#45;dégradation environnementale -->
<g id="edge62" class="edge">
<title>avenir avec nickel&#45;&#45;dégradation environnementale</title>
<path fill="none" stroke="darkgrey" stroke-width="2.71" d="M546.44,-81.25C534.96,-98.95 509.56,-138.11 491.64,-165.74"/>
</g>
<!-- avenir avec nickel&#45;&#45;alternative au développement -->
<g id="edge63" class="edge">
<title>avenir avec nickel&#45;&#45;alternative au développement</title>
<path fill="none" stroke="darkgrey" stroke-width="2.29" d="M554.46,-82.82C559.85,-112.66 575,-196.43 583.03,-240.89"/>
</g>
<!-- avenir avec nickel&#45;&#45;économie -->
<g id="edge64" class="edge">
<title>avenir avec nickel&#45;&#45;économie</title>
<path fill="none" stroke="darkgrey" stroke-width="2.11" d="M550.29,-82.83C544.27,-112.67 527.47,-195.91 520.05,-232.7"/>
</g>
<!-- avenir avec nickel&#45;&#45;amélioration environnementale -->
<g id="edge65" class="edge">
<title>avenir avec nickel&#45;&#45;amélioration environnementale</title>
<path fill="none" stroke="darkgrey" stroke-width="2.8" d="M558.2,-81.48C579.57,-117.25 654.67,-242.93 675.93,-278.51"/>
</g>
<!-- avenir avec nickel&#45;&#45;essor technologique -->
<g id="edge66" class="edge">
<title>avenir avec nickel&#45;&#45;essor technologique</title>
<path fill="none" stroke="darkgrey" stroke-width="2.19" d="M563.75,-71.01C579.96,-69.7 610.03,-67.27 629.36,-65.7"/>
</g>
<!-- pollution&#45;&#45;ressource minière -->
<g id="edge67" class="edge">
<title>pollution&#45;&#45;ressource minière</title>
<path fill="none" stroke="darkgrey" stroke-width="4.49" d="M584.33,-179.51C593.12,-182.42 603.07,-185.71 611.87,-188.62"/>
</g>
<!-- pollution&#45;&#45;dégradation environnementale -->
<g id="edge68" class="edge">
<title>pollution&#45;&#45;dégradation environnementale</title>
<path fill="none" stroke="darkgrey" stroke-width="10" d="M536.32,-178.3C527.21,-180.81 516.66,-183.72 506.77,-186.44"/>
</g>
<!-- pollution&#45;&#45;nature -->
<g id="edge69" class="edge">
<title>pollution&#45;&#45;nature</title>
<path fill="none" stroke="darkgrey" stroke-width="2.59" d="M535.3,-173.44C475.95,-177.68 329.31,-188.16 287.62,-191.14"/>
</g>
<!-- pollution&#45;&#45;société néo&#45;calédonienne -->
<g id="edge70" class="edge">
<title>pollution&#45;&#45;société néo&#45;calédonienne</title>
<path fill="none" stroke="darkgrey" stroke-width="3.6" d="M546.2,-192.62C518.68,-232.98 459.16,-320.3 437.38,-352.24"/>
</g>
<!-- pollution&#45;&#45;alternative au développement -->
<g id="edge72" class="edge">
<title>pollution&#45;&#45;alternative au développement</title>
<path fill="none" stroke="darkgrey" stroke-width="4.74" d="M567.35,-195.81C571.26,-209.62 576.18,-226.99 580.25,-241.39"/>
</g>
<!-- pollution&#45;&#45;économie -->
<g id="edge74" class="edge">
<title>pollution&#45;&#45;économie</title>
<path fill="none" stroke="darkgrey" stroke-width="4.45" d="M548.23,-193.62C540.95,-206.67 531.89,-222.9 525.3,-234.7"/>
</g>
<!-- pollution&#45;&#45;amélioration environnementale -->
<g id="edge75" class="edge">
<title>pollution&#45;&#45;amélioration environnementale</title>
<path fill="none" stroke="darkgrey" stroke-width="1.67" d="M578.63,-189.05C605.42,-214.78 654.45,-261.9 673.61,-280.31"/>
</g>
<!-- pollution&#45;&#45;essor technologique -->
<g id="edge76" class="edge">
<title>pollution&#45;&#45;essor technologique</title>
<path fill="none" stroke="darkgrey" stroke-width="2.83" d="M576.45,-151.94C593.7,-130.62 620.77,-97.17 636.01,-78.34"/>
</g>
<!-- pollution&#45;&#45;nickel -->
<g id="edge73" class="edge">
<title>pollution&#45;&#45;nickel</title>
<path fill="none" stroke="darkgrey" stroke-width="2.08" d="M567.15,-195.81C581.04,-246.36 612.53,-360.96 620.65,-390.52"/>
</g>
<!-- pollution&#45;&#45;nouvelle&#45;calédonie -->
<g id="edge71" class="edge">
<title>pollution&#45;&#45;nouvelle&#45;calédonie</title>
<path fill="none" stroke="darkgrey" stroke-width="1.14" d="M559.42,-196.65C556.87,-255.64 550.57,-401.05 549.08,-435.39"/>
</g>
<!-- ressource minière&#45;&#45;dégradation environnementale -->
<g id="edge77" class="edge">
<title>ressource minière&#45;&#45;dégradation environnementale</title>
<path fill="none" stroke="darkgrey" stroke-width="6.57" d="M610.56,-196.46C583.19,-196.37 539.26,-196.23 508.21,-196.14"/>
</g>
<!-- ressource minière&#45;&#45;société néo&#45;calédonienne -->
<g id="edge78" class="edge">
<title>ressource minière&#45;&#45;société néo&#45;calédonienne</title>
<path fill="none" stroke="darkgrey" stroke-width="1.08" d="M616.36,-212.31C573.97,-246.73 474.3,-327.64 440.57,-355.02"/>
</g>
<!-- ressource minière&#45;&#45;alternative au développement -->
<g id="edge80" class="edge">
<title>ressource minière&#45;&#45;alternative au développement</title>
<path fill="none" stroke="darkgrey" stroke-width="5.03" d="M622.03,-217.62C616.43,-226.2 609.92,-236.17 604.11,-245.06"/>
</g>
<!-- ressource minière&#45;&#45;économie -->
<g id="edge82" class="edge">
<title>ressource minière&#45;&#45;économie</title>
<path fill="none" stroke="darkgrey" stroke-width="3.69" d="M612.79,-206.95C589.35,-217.56 553.59,-233.75 532.87,-243.13"/>
</g>
<!-- ressource minière&#45;&#45;amélioration environnementale -->
<g id="edge83" class="edge">
<title>ressource minière&#45;&#45;amélioration environnementale</title>
<path fill="none" stroke="darkgrey" stroke-width="1.73" d="M647.11,-219.14C656.54,-237.96 669.52,-263.88 676.55,-277.93"/>
</g>
<!-- ressource minière&#45;&#45;essor technologique -->
<g id="edge84" class="edge">
<title>ressource minière&#45;&#45;essor technologique</title>
<path fill="none" stroke="darkgrey" stroke-width="4.06" d="M638.01,-171.34C640.29,-145.4 643.78,-105.61 645.8,-82.54"/>
</g>
<!-- ressource minière&#45;&#45;nickel -->
<g id="edge81" class="edge">
<title>ressource minière&#45;&#45;nickel</title>
<path fill="none" stroke="darkgrey" stroke-width="1.22" d="M634.15,-221.59C631.12,-267.69 624.81,-363.7 623.05,-390.5"/>
</g>
<!-- ressource minière&#45;&#45;nouvelle&#45;calédonie -->
<g id="edge79" class="edge">
<title>ressource minière&#45;&#45;nouvelle&#45;calédonie</title>
<path fill="none" stroke="darkgrey" stroke-width="1.39" d="M627.45,-220.14C608.31,-274.31 562.03,-405.22 551.1,-436.13"/>
</g>
<!-- dégradation environnementale&#45;&#45;nature -->
<g id="edge85" class="edge">
<title>dégradation environnementale&#45;&#45;nature</title>
<path fill="none" stroke="darkgrey" stroke-width="3.68" d="M435.67,-195.26C390.37,-194.32 315.49,-192.76 287.45,-192.17"/>
</g>
<!-- dégradation environnementale&#45;&#45;société néo&#45;calédonienne -->
<g id="edge86" class="edge">
<title>dégradation environnementale&#45;&#45;société néo&#45;calédonienne</title>
<path fill="none" stroke="darkgrey" stroke-width="2.82" d="M463.02,-231.29C453.66,-268.1 439.43,-324 432.81,-350.02"/>
</g>
<!-- dégradation environnementale&#45;&#45;alternative au développement -->
<g id="edge88" class="edge">
<title>dégradation environnementale&#45;&#45;alternative au développement</title>
<path fill="none" stroke="darkgrey" stroke-width="5.12" d="M502.53,-215.31C521.49,-227.29 545.55,-242.5 563.34,-253.74"/>
</g>
<!-- dégradation environnementale&#45;&#45;économie -->
<g id="edge90" class="edge">
<title>dégradation environnementale&#45;&#45;économie</title>
<path fill="none" stroke="darkgrey" stroke-width="6.42" d="M494.74,-223.93C498.25,-228.23 501.73,-232.51 504.85,-236.33"/>
</g>
<!-- dégradation environnementale&#45;&#45;amélioration environnementale -->
<g id="edge91" class="edge">
<title>dégradation environnementale&#45;&#45;amélioration environnementale</title>
<path fill="none" stroke="darkgrey" stroke-width="2.74" d="M505.21,-210.59C553.69,-231.86 641.31,-270.3 671.24,-283.43"/>
</g>
<!-- dégradation environnementale&#45;&#45;essor technologique -->
<g id="edge92" class="edge">
<title>dégradation environnementale&#45;&#45;essor technologique</title>
<path fill="none" stroke="darkgrey" stroke-width="3.48" d="M500.97,-174.26C538.92,-145.75 604.02,-96.84 632.89,-75.15"/>
</g>
<!-- dégradation environnementale&#45;&#45;nickel -->
<g id="edge89" class="edge">
<title>dégradation environnementale&#45;&#45;nickel</title>
<path fill="none" stroke="darkgrey" stroke-width="2.23" d="M493.58,-224.9C529.68,-273.23 600.18,-367.59 618.27,-391.8"/>
</g>
<!-- dégradation environnementale&#45;&#45;nouvelle&#45;calédonie -->
<g id="edge87" class="edge">
<title>dégradation environnementale&#45;&#45;nouvelle&#45;calédonie</title>
<path fill="none" stroke="darkgrey" stroke-width="1.29" d="M482.75,-230.59C501.16,-289.74 537.59,-406.83 546.67,-436.03"/>
</g>
<!-- nature&#45;&#45;société néo&#45;calédonienne -->
<g id="edge93" class="edge">
<title>nature&#45;&#45;société néo&#45;calédonienne</title>
<path fill="none" stroke="darkgrey" stroke-width="1.63" d="M283.77,-200.25C308.81,-228.49 390.62,-320.76 419.21,-353.01"/>
</g>
<!-- nature&#45;&#45;alternative au développement -->
<g id="edge94" class="edge">
<title>nature&#45;&#45;alternative au développement</title>
<path fill="none" stroke="darkgrey" stroke-width="1.31" d="M287.13,-194.61C330.5,-205.39 493.64,-245.94 559.93,-262.42"/>
</g>
<!-- société néo&#45;calédonienne&#45;&#45;alternative au développement -->
<g id="edge96" class="edge">
<title>société néo&#45;calédonienne&#45;&#45;alternative au développement</title>
<path fill="none" stroke="darkgrey" stroke-width="3.06" d="M441.66,-356.82C467.8,-341.24 528.73,-304.9 563.23,-284.34"/>
</g>
<!-- société néo&#45;calédonienne&#45;&#45;économie -->
<g id="edge98" class="edge">
<title>société néo&#45;calédonienne&#45;&#45;économie</title>
<path fill="none" stroke="darkgrey" stroke-width="2.84" d="M438.2,-352.52C454.31,-331.53 488,-287.63 505.45,-264.9"/>
</g>
<!-- société néo&#45;calédonienne&#45;&#45;nickel -->
<g id="edge97" class="edge">
<title>société néo&#45;calédonienne&#45;&#45;nickel</title>
<path fill="none" stroke="darkgrey" stroke-width="1.95" d="M443.72,-366.77C482.55,-373.45 587.64,-391.55 615.65,-396.38"/>
</g>
<!-- société néo&#45;calédonienne&#45;&#45;nouvelle&#45;calédonie -->
<g id="edge95" class="edge">
<title>société néo&#45;calédonienne&#45;&#45;nouvelle&#45;calédonie</title>
<path fill="none" stroke="darkgrey" stroke-width="1.51" d="M441.53,-372.37C466.95,-389.05 524.3,-426.7 542.85,-438.87"/>
</g>
<!-- alternative au développement&#45;&#45;économie -->
<g id="edge102" class="edge">
<title>alternative au développement&#45;&#45;économie</title>
<path fill="none" stroke="darkgrey" stroke-width="5.46" d="M559.84,-261.98C551.07,-259.67 541.66,-257.2 533.86,-255.14"/>
</g>
<!-- alternative au développement&#45;&#45;amélioration environnementale -->
<g id="edge103" class="edge">
<title>alternative au développement&#45;&#45;amélioration environnementale</title>
<path fill="none" stroke="darkgrey" stroke-width="4.39" d="M616.72,-275.1C634.96,-278.72 657.57,-283.2 670.71,-285.81"/>
</g>
<!-- alternative au développement&#45;&#45;essor technologique -->
<g id="edge104" class="edge">
<title>alternative au développement&#45;&#45;essor technologique</title>
<path fill="none" stroke="darkgrey" stroke-width="4.24" d="M596.31,-241.34C608.72,-198.32 632.08,-117.36 642.35,-81.78"/>
</g>
<!-- alternative au développement&#45;&#45;nickel -->
<g id="edge101" class="edge">
<title>alternative au développement&#45;&#45;nickel</title>
<path fill="none" stroke="darkgrey" stroke-width="1.98" d="M595.74,-297.56C603.81,-327.62 616.06,-373.28 620.71,-390.59"/>
</g>
<!-- économie&#45;&#45;amélioration environnementale -->
<g id="edge107" class="edge">
<title>économie&#45;&#45;amélioration environnementale</title>
<path fill="none" stroke="darkgrey" stroke-width="1.51" d="M534.12,-254.56C568.4,-262.33 642.99,-279.22 670.82,-285.53"/>
</g>
<!-- économie&#45;&#45;essor technologique -->
<g id="edge108" class="edge">
<title>économie&#45;&#45;essor technologique</title>
<path fill="none" stroke="darkgrey" stroke-width="1.25" d="M526.94,-235.63C551.53,-200.66 612.6,-113.77 637.05,-78.99"/>
</g>
<!-- amélioration environnementale&#45;&#45;essor technologique -->
<g id="edge109" class="edge">
<title>amélioration environnementale&#45;&#45;essor technologique</title>
<path fill="none" stroke="darkgrey" stroke-width="1.87" d="M679.88,-276.87C674.38,-240.81 656.95,-126.68 650.16,-82.22"/>
</g>
<!-- nickel&#45;&#45;économie -->
<g id="edge105" class="edge">
<title>nickel&#45;&#45;économie</title>
<path fill="none" stroke="darkgrey" stroke-width="1.31" d="M618.29,-391.63C602.86,-370.25 549.88,-296.87 527.05,-265.25"/>
</g>
<!-- nickel&#45;&#45;amélioration environnementale -->
<g id="edge106" class="edge">
<title>nickel&#45;&#45;amélioration environnementale</title>
<path fill="none" stroke="darkgrey" stroke-width="1.07" d="M625.93,-391.36C635.72,-373.16 664.44,-319.8 676.33,-297.71"/>
</g>
<!-- exploitation minière&#45;&#45;secteur nickel -->
<g id="edge29" class="edge">
<title>exploitation minière&#45;&#45;secteur nickel</title>
<path fill="none" stroke="darkgrey" stroke-width="1.23" d="M853.95,-117.69C836.58,-129.31 746.12,-189.87 707.04,-216.03"/>
</g>
<!-- exploitation minière&#45;&#45;pollution -->
<g id="edge30" class="edge">
<title>exploitation minière&#45;&#45;pollution</title>
<path fill="none" stroke="darkgrey" d="M853.11,-116.44C825.38,-121.68 651.18,-154.53 585.52,-166.92"/>
</g>
<!-- exploitation minière&#45;&#45;ressource minière -->
<g id="edge31" class="edge">
<title>exploitation minière&#45;&#45;ressource minière</title>
<path fill="none" stroke="darkgrey" stroke-width="1.25" d="M853.39,-117.01C831.42,-125.04 710.97,-169.06 659.32,-187.94"/>
</g>
<!-- exploitation minière&#45;&#45;alternative au développement -->
<g id="edge32" class="edge">
<title>exploitation minière&#45;&#45;alternative au développement</title>
<path fill="none" stroke="darkgrey" stroke-width="1.37" d="M853.46,-117.68C828.68,-131.86 674.95,-219.81 613.52,-254.96"/>
</g>
<!-- nouvelle&#45;calédonie&#45;&#45;alternative au développement -->
<g id="edge99" class="edge">
<title>nouvelle&#45;calédonie&#45;&#45;alternative au développement</title>
<path fill="none" stroke="darkgrey" stroke-width="2.03" d="M550.36,-435.74C555.57,-412.82 572.33,-339.18 581.7,-298"/>
</g>
<!-- nouvelle&#45;calédonie&#45;&#45;économie -->
<g id="edge100" class="edge">
<title>nouvelle&#45;calédonie&#45;&#45;économie</title>
<path fill="none" stroke="darkgrey" stroke-width="1.62" d="M547.53,-435.45C542.89,-407.82 526.3,-309.14 519.44,-268.38"/>
</g>
<!-- avenir sans nickel -->
<g id="node1" class="node">
<title>avenir sans nickel</title>
<ellipse fill="#f98e09" stroke="white" stroke-width="0" cx="450.86" cy="-122.29" rx="29" ry="29"/>
<text text-anchor="middle" x="310.36" y="-158.45" font-family="Helvetica,sans-Serif" font-size="24.80" fill="#4d4d4d">avenir sans nickel</text>
</g>
<!-- travail -->
<g id="node2" class="node">
<title>travail</title>
<ellipse fill="#bd3853" stroke="white" stroke-width="0" cx="413.6" cy="-256.71" rx="18" ry="18"/>
<text text-anchor="middle" x="364.1" y="-280.71" font-family="Helvetica,sans-Serif" font-size="20.00" fill="#4d4d4d">travail</text>
</g>
<!-- politique -->
<g id="node3" class="node">
<title>politique</title>
<ellipse fill="#ce4347" stroke="white" stroke-width="0" cx="487.95" cy="-312.26" rx="21.5" ry="21.5"/>
<text text-anchor="middle" x="513.45" y="-340.48" font-family="Helvetica,sans-Serif" font-size="21.60" fill="#4d4d4d">politique</text>
</g>
<!-- secteur nickel -->
<g id="node4" class="node">
<title>secteur nickel</title>
<ellipse fill="#cc4248" stroke="white" stroke-width="0" cx="689.02" cy="-228.09" rx="21.5" ry="21.5"/>
<text text-anchor="middle" x="743.02" y="-256.31" font-family="Helvetica,sans-Serif" font-size="21.60" fill="#4d4d4d">secteur nickel</text>
</g>
<!-- relation politique -->
<g id="node5" class="node">
<title>relation politique</title>
<ellipse fill="#150b37" stroke="white" stroke-width="0" cx="442.13" cy="-3.5" rx="3.5" ry="3.5"/>
<text text-anchor="middle" x="381.13" y="-11.12" font-family="Helvetica,sans-Serif" font-size="13.60" fill="#4d4d4d">relation politique</text>
</g>
<!-- avenir avec nickel -->
<g id="node6" class="node">
<title>avenir avec nickel</title>
<ellipse fill="#540f6d" stroke="white" stroke-width="0" cx="552.49" cy="-71.92" rx="11" ry="11"/>
<text text-anchor="middle" x="465.99" y="-65.48" font-family="Helvetica,sans-Serif" font-size="16.80" fill="#4d4d4d">avenir avec nickel</text>
</g>
<!-- pollution -->
<g id="node7" class="node">
<title>pollution</title>
<ellipse fill="#eb6628" stroke="white" stroke-width="0" cx="560.51" cy="-171.63" rx="25" ry="25"/>
<text text-anchor="middle" x="587.01" y="-128.07" font-family="Helvetica,sans-Serif" font-size="23.20" fill="#4d4d4d">pollution</text>
</g>
<!-- ressource minière -->
<g id="node8" class="node">
<title>ressource minière</title>
<ellipse fill="#f1731d" stroke="white" stroke-width="0" cx="635.8" cy="-196.53" rx="25" ry="25"/>
<text text-anchor="middle" x="765.3" y="-178.97" font-family="Helvetica,sans-Serif" font-size="23.20" fill="#4d4d4d">ressource minière</text>
</g>
<!-- dégradation environnementale -->
<g id="node9" class="node">
<title>dégradation environnementale</title>
<ellipse fill="#fcffa4" stroke="white" stroke-width="0" cx="472" cy="-196.02" rx="36" ry="36"/>
<text text-anchor="middle" x="218" y="-240.62" font-family="Helvetica,sans-Serif" font-size="28.00" fill="#4d4d4d">dégradation environnementale</text>
</g>
<!-- nature -->
<g id="node10" class="node">
<title>nature</title>
<ellipse fill="#510e6c" stroke="white" stroke-width="0" cx="276.4" cy="-191.94" rx="11" ry="11"/>
<text text-anchor="middle" x="237.4" y="-207.5" font-family="Helvetica,sans-Serif" font-size="16.80" fill="#4d4d4d">nature</text>
</g>
<!-- société néo&#45;calédonienne -->
<g id="node11" class="node">
<title>société néo&#45;calédonienne</title>
<ellipse fill="#8f2469" stroke="white" stroke-width="0" cx="429.19" cy="-364.26" rx="14.5" ry="14.5"/>
<text text-anchor="middle" x="295.69" y="-384.04" font-family="Helvetica,sans-Serif" font-size="18.40" fill="#4d4d4d">société néo&#45;calédonienne</text>
</g>
<!-- alternative au développement -->
<g id="node12" class="node">
<title>alternative au développement</title>
<ellipse fill="#f98e09" stroke="white" stroke-width="0" cx="588.2" cy="-269.44" rx="29" ry="29"/>
<text text-anchor="middle" x="746.7" y="-305.6" font-family="Helvetica,sans-Serif" font-size="24.80" fill="#4d4d4d">alternative au développement</text>
</g>
<!-- économie -->
<g id="node13" class="node">
<title>économie</title>
<ellipse fill="#ae305c" stroke="white" stroke-width="0" cx="516.45" cy="-250.56" rx="18" ry="18"/>
<text text-anchor="middle" x="554.2" y="-216.56" font-family="Helvetica,sans-Serif" font-size="20.00" fill="#4d4d4d">économie</text>
</g>
<!-- amélioration environnementale -->
<g id="node14" class="node">
<title>amélioration environnementale</title>
<ellipse fill="#751b6e" stroke="white" stroke-width="0" cx="681.58" cy="-287.96" rx="11" ry="11"/>
<text text-anchor="middle" x="825.08" y="-281.52" font-family="Helvetica,sans-Serif" font-size="16.80" fill="#4d4d4d">amélioration environnementale</text>
</g>
<!-- essor technologique -->
<g id="node15" class="node">
<title>essor technologique</title>
<ellipse fill="#ad305d" stroke="white" stroke-width="0" cx="647.41" cy="-64.24" rx="18" ry="18"/>
<text text-anchor="middle" x="528.91" y="-30.24" font-family="Helvetica,sans-Serif" font-size="20.00" fill="#4d4d4d">essor technologique</text>
</g>
<!-- nickel -->
<g id="node16" class="node">
<title>nickel</title>
<ellipse fill="#2f0a5b" stroke="white" stroke-width="0" cx="622.58" cy="-397.57" rx="7" ry="7"/>
<text text-anchor="middle" x="593.08" y="-409.41" font-family="Helvetica,sans-Serif" font-size="15.20" fill="#4d4d4d">nickel</text>
</g>
<!-- matériel -->
<g id="node17" class="node">
<title>matériel</title>
<ellipse fill="#000004" stroke="white" stroke-width="0" cx="148.72" cy="-433.2" rx="0.5" ry="0.5"/>
<text text-anchor="middle" x="122.72" y="-437.1" font-family="Helvetica,sans-Serif" font-size="12.00" fill="#4d4d4d">matériel</text>
</g>
<!-- exploitation minière -->
<g id="node18" class="node">
<title>exploitation minière</title>
<ellipse fill="#0d0829" stroke="white" stroke-width="0" cx="856.86" cy="-115.74" rx="3.5" ry="3.5"/>
<text text-anchor="middle" x="785.36" y="-123.36" font-family="Helvetica,sans-Serif" font-size="13.60" fill="#4d4d4d">exploitation minière</text>
</g>
<!-- nouvelle&#45;calédonie -->
<g id="node19" class="node">
<title>nouvelle&#45;calédonie</title>
<ellipse fill="#310a5c" stroke="white" stroke-width="0" cx="548.76" cy="-442.75" rx="7" ry="7"/>
<text text-anchor="middle" x="470.26" y="-454.59" font-family="Helvetica,sans-Serif" font-size="15.20" fill="#4d4d4d">nouvelle&#45;calédonie</text>
</g>
<!-- échange commercial -->
<g id="node20" class="node">
<title>échange commercial</title>
<ellipse fill="#02010a" stroke="white" stroke-width="0" cx="1027.79" cy="-426.39" rx="0.5" ry="0.5"/>
<text text-anchor="middle" x="963.79" y="-430.29" font-family="Helvetica,sans-Serif" font-size="12.00" fill="#4d4d4d">échange commercial</text>
</g>
</g>
</svg>
