<?xml version="1.0" encoding="UTF-8" standalone="no"?>
<!DOCTYPE svg PUBLIC "-//W3C//DTD SVG 1.1//EN"
 "http://www.w3.org/Graphics/SVG/1.1/DTD/svg11.dtd">
<!-- Generated by graphviz version 2.43.0 (0)
 -->
<!-- Pages: 1 -->
<svg width="1116pt" height="606pt"
 viewBox="0.00 0.00 1115.70 605.68" xmlns="http://www.w3.org/2000/svg" xmlns:xlink="http://www.w3.org/1999/xlink">
<g id="graph0" class="graph" transform="scale(1 1) rotate(0) translate(4 601.68)">
<polygon fill="white" stroke="transparent" points="-4,4 -4,-601.68 1111.7,-601.68 1111.7,4 -4,4"/>
<!-- avenir sans nickel&#45;&#45;industrie -->
<g id="edge1" class="edge">
<title>avenir sans nickel&#45;&#45;industrie</title>
<path fill="none" stroke="darkgrey" stroke-width="1.2" d="M387.54,-396.09C377.42,-438.86 359.04,-516.55 354.88,-534.17"/>
</g>
<!-- avenir sans nickel&#45;&#45;travail -->
<g id="edge2" class="edge">
<title>avenir sans nickel&#45;&#45;travail</title>
<path fill="none" stroke="darkgrey" stroke-width="4.19" d="M417.17,-349.42C444.68,-327.56 490.01,-291.55 513.04,-273.26"/>
</g>
<!-- avenir sans nickel&#45;&#45;politique -->
<g id="edge3" class="edge">
<title>avenir sans nickel&#45;&#45;politique</title>
<path fill="none" stroke="darkgrey" stroke-width="4.71" d="M377.5,-343.82C374.9,-340.13 372.25,-336.38 369.77,-332.85"/>
</g>
<!-- avenir sans nickel&#45;&#45;secteur nickel -->
<g id="edge4" class="edge">
<title>avenir sans nickel&#45;&#45;secteur nickel</title>
<path fill="none" stroke="darkgrey" stroke-width="4.32" d="M423.08,-362.57C481.66,-352.34 613.47,-329.31 665.07,-320.3"/>
</g>
<!-- avenir sans nickel&#45;&#45;relation politique -->
<g id="edge5" class="edge">
<title>avenir sans nickel&#45;&#45;relation politique</title>
<path fill="none" stroke="darkgrey" stroke-width="1.51" d="M410.81,-391.87C445.13,-442.24 522.07,-555.15 536.19,-575.88"/>
</g>
<!-- avenir sans nickel&#45;&#45;avenir avec nickel -->
<g id="edge6" class="edge">
<title>avenir sans nickel&#45;&#45;avenir avec nickel</title>
<path fill="none" stroke="darkgrey" stroke-width="3.29" d="M407.39,-341.43C435.47,-285.42 500.32,-156.04 518.71,-119.34"/>
</g>
<!-- avenir sans nickel&#45;&#45;pollution -->
<g id="edge7" class="edge">
<title>avenir sans nickel&#45;&#45;pollution</title>
<path fill="none" stroke="darkgrey" stroke-width="7.01" d="M393.93,-338.54C393.72,-320.38 393.44,-297.24 393.24,-279.87"/>
</g>
<!-- avenir sans nickel&#45;&#45;ressource minière -->
<g id="edge8" class="edge">
<title>avenir sans nickel&#45;&#45;ressource minière</title>
<path fill="none" stroke="darkgrey" stroke-width="5.57" d="M420.83,-379.72C435.26,-386.31 452.93,-394.38 466.75,-400.69"/>
</g>
<!-- avenir sans nickel&#45;&#45;dégradation environnementale -->
<g id="edge9" class="edge">
<title>avenir sans nickel&#45;&#45;dégradation environnementale</title>
<path fill="none" stroke="darkgrey" stroke-width="7.96" d="M418.76,-351.95C426.68,-346.89 435.56,-341.21 443.87,-335.91"/>
</g>
<!-- avenir sans nickel&#45;&#45;nature -->
<g id="edge10" class="edge">
<title>avenir sans nickel&#45;&#45;nature</title>
<path fill="none" stroke="darkgrey" stroke-width="2.55" d="M411.08,-343.88C454.51,-282.57 569.08,-120.81 597.48,-80.73"/>
</g>
<!-- avenir sans nickel&#45;&#45;société néo&#45;calédonienne -->
<g id="edge11" class="edge">
<title>avenir sans nickel&#45;&#45;société néo&#45;calédonienne</title>
<path fill="none" stroke="darkgrey" stroke-width="3.96" d="M406.56,-341.14C423.86,-303.89 454.75,-237.36 467.86,-209.13"/>
</g>
<!-- avenir sans nickel&#45;&#45;nouvelle&#45;calédonie -->
<g id="edge12" class="edge">
<title>avenir sans nickel&#45;&#45;nouvelle&#45;calédonie</title>
<path fill="none" stroke="darkgrey" stroke-width="1.1" d="M405.92,-394.45C419.87,-426.62 442.35,-478.49 450.3,-496.81"/>
</g>
<!-- avenir sans nickel&#45;&#45;alternative au développement -->
<g id="edge13" class="edge">
<title>avenir sans nickel&#45;&#45;alternative au développement</title>
<path fill="none" stroke="darkgrey" stroke-width="5.93" d="M423.5,-368.63C474.18,-370.4 577.8,-374.04 628.57,-375.82"/>
</g>
<!-- avenir sans nickel&#45;&#45;nickel -->
<g id="edge14" class="edge">
<title>avenir sans nickel&#45;&#45;nickel</title>
<path fill="none" stroke="darkgrey" stroke-width="1.12" d="M419.7,-381.61C466.33,-407.32 563.1,-460.67 588.69,-474.77"/>
</g>
<!-- avenir sans nickel&#45;&#45;économie -->
<g id="edge15" class="edge">
<title>avenir sans nickel&#45;&#45;économie</title>
<path fill="none" stroke="darkgrey" stroke-width="3.79" d="M423.39,-366.36C466.71,-364.51 546.83,-361.09 582.55,-359.56"/>
</g>
<!-- avenir sans nickel&#45;&#45;amélioration environnementale -->
<g id="edge16" class="edge">
<title>avenir sans nickel&#45;&#45;amélioration environnementale</title>
<path fill="none" stroke="darkgrey" stroke-width="2.34" d="M419.34,-352.23C465.53,-323.89 562.18,-264.6 592.64,-245.91"/>
</g>
<!-- avenir sans nickel&#45;&#45;essor technologique -->
<g id="edge17" class="edge">
<title>avenir sans nickel&#45;&#45;essor technologique</title>
<path fill="none" stroke="darkgrey" stroke-width="2.31" d="M417.42,-349.65C468.34,-310.16 588.88,-216.68 630.56,-184.36"/>
</g>
<!-- avenir sans nickel&#45;&#45;risque -->
<g id="edge18" class="edge">
<title>avenir sans nickel&#45;&#45;risque</title>
<path fill="none" stroke="darkgrey" stroke-width="1.36" d="M368.33,-354.01C288.8,-312.37 52.88,-188.83 38.22,-181.15"/>
</g>
<!-- industrie&#45;&#45;politique -->
<g id="edge19" class="edge">
<title>industrie&#45;&#45;politique</title>
<path fill="none" stroke="darkgrey" stroke-width="1.46" d="M354.08,-533.92C354.42,-510.54 356.21,-387.24 356.95,-336.73"/>
</g>
<!-- industrie&#45;&#45;secteur nickel -->
<g id="edge20" class="edge">
<title>industrie&#45;&#45;secteur nickel</title>
<path fill="none" stroke="darkgrey" stroke-width="1.33" d="M357.31,-535.6C386.63,-516.08 603.65,-371.63 668.26,-328.63"/>
</g>
<!-- industrie&#45;&#45;ressource minière -->
<g id="edge21" class="edge">
<title>industrie&#45;&#45;ressource minière</title>
<path fill="none" stroke="darkgrey" stroke-width="1.74" d="M356.85,-535.14C371.38,-521.57 438.12,-459.21 471.08,-428.42"/>
</g>
<!-- industrie&#45;&#45;dégradation environnementale -->
<g id="edge22" class="edge">
<title>industrie&#45;&#45;dégradation environnementale</title>
<path fill="none" stroke="darkgrey" stroke-width="1.19" d="M355.72,-534.66C366.59,-514.69 426.72,-404.12 457,-348.43"/>
</g>
<!-- industrie&#45;&#45;alternative au développement -->
<g id="edge23" class="edge">
<title>industrie&#45;&#45;alternative au développement</title>
<path fill="none" stroke="darkgrey" stroke-width="1.47" d="M357.43,-535.98C384.43,-521.68 564.23,-426.46 632.08,-390.53"/>
</g>
<!-- industrie&#45;&#45;nickel -->
<g id="edge24" class="edge">
<title>industrie&#45;&#45;nickel</title>
<path fill="none" stroke="darkgrey" stroke-width="1.12" d="M357.43,-536.95C383.51,-530.5 551.59,-488.98 588.04,-479.98"/>
</g>
<!-- industrie&#45;&#45;économie -->
<g id="edge25" class="edge">
<title>industrie&#45;&#45;économie</title>
<path fill="none" stroke="darkgrey" stroke-width="1.48" d="M357.14,-535.53C381.11,-518.12 536.51,-405.3 585.67,-369.6"/>
</g>
<!-- travail&#45;&#45;politique -->
<g id="edge27" class="edge">
<title>travail&#45;&#45;politique</title>
<path fill="none" stroke="darkgrey" stroke-width="4.15" d="M510.18,-267.23C478.66,-277.1 411.91,-298.01 377.99,-308.63"/>
</g>
<!-- travail&#45;&#45;secteur nickel -->
<g id="edge28" class="edge">
<title>travail&#45;&#45;secteur nickel</title>
<path fill="none" stroke="darkgrey" stroke-width="4.77" d="M544.75,-267.79C574.27,-277.96 634.23,-298.62 665.82,-309.51"/>
</g>
<!-- travail&#45;&#45;relation politique -->
<g id="edge29" class="edge">
<title>travail&#45;&#45;relation politique</title>
<path fill="none" stroke="darkgrey" d="M528.07,-280.26C530.25,-342.97 537.28,-545.76 538.32,-575.52"/>
</g>
<!-- travail&#45;&#45;avenir avec nickel -->
<g id="edge30" class="edge">
<title>travail&#45;&#45;avenir avec nickel</title>
<path fill="none" stroke="darkgrey" stroke-width="2.15" d="M526.99,-243.75C526.2,-211.91 524.58,-146.71 523.94,-120.62"/>
</g>
<!-- travail&#45;&#45;pollution -->
<g id="edge31" class="edge">
<title>travail&#45;&#45;pollution</title>
<path fill="none" stroke="darkgrey" stroke-width="6.49" d="M509.3,-260.87C485.78,-259.63 444.64,-257.47 418.11,-256.07"/>
</g>
<!-- travail&#45;&#45;ressource minière -->
<g id="edge32" class="edge">
<title>travail&#45;&#45;ressource minière</title>
<path fill="none" stroke="darkgrey" stroke-width="3.69" d="M522.95,-279.54C516.19,-306.19 503.4,-356.67 495.77,-386.76"/>
</g>
<!-- travail&#45;&#45;dégradation environnementale -->
<g id="edge33" class="edge">
<title>travail&#45;&#45;dégradation environnementale</title>
<path fill="none" stroke="darkgrey" stroke-width="7.55" d="M514.87,-274.75C510.34,-279.42 505.05,-284.86 499.82,-290.24"/>
</g>
<!-- travail&#45;&#45;nature -->
<g id="edge34" class="edge">
<title>travail&#45;&#45;nature</title>
<path fill="none" stroke="darkgrey" stroke-width="1.45" d="M534.22,-244.95C549.65,-206.59 586.99,-113.73 599.64,-82.27"/>
</g>
<!-- travail&#45;&#45;société néo&#45;calédonienne -->
<g id="edge35" class="edge">
<title>travail&#45;&#45;société néo&#45;calédonienne</title>
<path fill="none" stroke="darkgrey" stroke-width="4.25" d="M515.84,-247.52C506.15,-235.54 492.49,-218.68 483.45,-207.52"/>
</g>
<!-- travail&#45;&#45;nouvelle&#45;calédonie -->
<g id="edge36" class="edge">
<title>travail&#45;&#45;nouvelle&#45;calédonie</title>
<path fill="none" stroke="darkgrey" stroke-width="1.12" d="M522.1,-279.21C507.13,-327.91 465.24,-464.25 455.32,-496.55"/>
</g>
<!-- travail&#45;&#45;alternative au développement -->
<g id="edge37" class="edge">
<title>travail&#45;&#45;alternative au développement</title>
<path fill="none" stroke="darkgrey" stroke-width="4.82" d="M541.4,-274.14C564.02,-294.07 608.84,-333.59 635.82,-357.37"/>
</g>
<!-- travail&#45;&#45;nickel -->
<g id="edge38" class="edge">
<title>travail&#45;&#45;nickel</title>
<path fill="none" stroke="darkgrey" stroke-width="1.75" d="M532.85,-279.17C546.82,-323.91 583.62,-441.77 592.88,-471.41"/>
</g>
<!-- travail&#45;&#45;économie -->
<g id="edge39" class="edge">
<title>travail&#45;&#45;économie</title>
<path fill="none" stroke="darkgrey" stroke-width="4.79" d="M538.54,-276.56C552.36,-294.89 575.83,-326 589.59,-344.25"/>
</g>
<!-- travail&#45;&#45;amélioration environnementale -->
<g id="edge40" class="edge">
<title>travail&#45;&#45;amélioration environnementale</title>
<path fill="none" stroke="darkgrey" stroke-width="3.5" d="M544.74,-256.8C559.03,-252.64 578.89,-246.87 591.08,-243.33"/>
</g>
<!-- travail&#45;&#45;essor technologique -->
<g id="edge41" class="edge">
<title>travail&#45;&#45;essor technologique</title>
<path fill="none" stroke="darkgrey" stroke-width="3.48" d="M541.85,-250.95C564.43,-233.93 607.85,-201.18 630.5,-184.1"/>
</g>
<!-- travail&#45;&#45;exploitation minière -->
<g id="edge26" class="edge">
<title>travail&#45;&#45;exploitation minière</title>
<path fill="none" stroke="darkgrey" stroke-width="1.42" d="M512.73,-251.26C474.38,-223.7 373.01,-150.85 354.35,-137.43"/>
</g>
<!-- travail&#45;&#45;matériel -->
<g id="edge42" class="edge">
<title>travail&#45;&#45;matériel</title>
<path fill="none" stroke="darkgrey" stroke-width="1.12" d="M520.42,-245.08C497.03,-189.21 422.85,-12.06 418.24,-1.04"/>
</g>
<!-- politique&#45;&#45;secteur nickel -->
<g id="edge52" class="edge">
<title>politique&#45;&#45;secteur nickel</title>
<path fill="none" stroke="darkgrey" stroke-width="4.83" d="M378.85,-315.22C438.49,-315.48 604.96,-316.22 664.69,-316.49"/>
</g>
<!-- politique&#45;&#45;relation politique -->
<g id="edge53" class="edge">
<title>politique&#45;&#45;relation politique</title>
<path fill="none" stroke="darkgrey" stroke-width="2.37" d="M369.43,-332.86C407.04,-387.67 519.87,-552.11 536.41,-576.21"/>
</g>
<!-- politique&#45;&#45;avenir avec nickel -->
<g id="edge54" class="edge">
<title>politique&#45;&#45;avenir avec nickel</title>
<path fill="none" stroke="darkgrey" stroke-width="1.91" d="M370.88,-298.29C404.57,-256.66 490.92,-149.93 516.45,-118.38"/>
</g>
<!-- politique&#45;&#45;pollution -->
<g id="edge55" class="edge">
<title>politique&#45;&#45;pollution</title>
<path fill="none" stroke="darkgrey" stroke-width="4.72" d="M368.36,-296.35C372.04,-290.12 376.17,-283.12 379.98,-276.68"/>
</g>
<!-- politique&#45;&#45;ressource minière -->
<g id="edge56" class="edge">
<title>politique&#45;&#45;ressource minière</title>
<path fill="none" stroke="darkgrey" stroke-width="4.49" d="M374.84,-327.87C399.3,-345.62 443.53,-377.7 469.35,-396.43"/>
</g>
<!-- politique&#45;&#45;dégradation environnementale -->
<g id="edge57" class="edge">
<title>politique&#45;&#45;dégradation environnementale</title>
<path fill="none" stroke="darkgrey" stroke-width="6.61" d="M379.03,-315.35C395.57,-315.53 418.71,-315.78 438.05,-315.98"/>
</g>
<!-- politique&#45;&#45;nature -->
<g id="edge58" class="edge">
<title>politique&#45;&#45;nature</title>
<path fill="none" stroke="darkgrey" stroke-width="1.63" d="M372.69,-299.89C419.73,-253.46 560.27,-114.72 595.72,-79.73"/>
</g>
<!-- politique&#45;&#45;société néo&#45;calédonienne -->
<g id="edge59" class="edge">
<title>politique&#45;&#45;société néo&#45;calédonienne</title>
<path fill="none" stroke="darkgrey" stroke-width="3.64" d="M372.53,-299.53C396.63,-274.91 442.9,-227.65 463.58,-206.53"/>
</g>
<!-- politique&#45;&#45;nouvelle&#45;calédonie -->
<g id="edge60" class="edge">
<title>politique&#45;&#45;nouvelle&#45;calédonie</title>
<path fill="none" stroke="darkgrey" stroke-width="2.24" d="M367.17,-334.57C388.32,-376.12 437.06,-471.81 449.99,-497.2"/>
</g>
<!-- politique&#45;&#45;alternative au développement -->
<g id="edge61" class="edge">
<title>politique&#45;&#45;alternative au développement</title>
<path fill="none" stroke="darkgrey" stroke-width="4.01" d="M378.4,-319.46C431.2,-330.3 568.9,-358.57 629.07,-370.93"/>
</g>
<!-- politique&#45;&#45;nickel -->
<g id="edge62" class="edge">
<title>politique&#45;&#45;nickel</title>
<path fill="none" stroke="darkgrey" stroke-width="1.79" d="M375.13,-327.38C424.16,-361.02 559.12,-453.63 589.07,-474.18"/>
</g>
<!-- politique&#45;&#45;économie -->
<g id="edge63" class="edge">
<title>politique&#45;&#45;économie</title>
<path fill="none" stroke="darkgrey" stroke-width="4.16" d="M378.43,-318.92C425.6,-327.39 538.64,-347.68 582.62,-355.58"/>
</g>
<!-- politique&#45;&#45;amélioration environnementale -->
<g id="edge64" class="edge">
<title>politique&#45;&#45;amélioration environnementale</title>
<path fill="none" stroke="darkgrey" stroke-width="1.46" d="M378.13,-308.73C428.2,-293.39 553.73,-254.94 591.28,-243.44"/>
</g>
<!-- politique&#45;&#45;essor technologique -->
<g id="edge65" class="edge">
<title>politique&#45;&#45;essor technologique</title>
<path fill="none" stroke="darkgrey" stroke-width="1.33" d="M376.59,-305.58C430.02,-279.22 579.05,-205.69 628.7,-181.2"/>
</g>
<!-- politique&#45;&#45;risque -->
<g id="edge66" class="edge">
<title>politique&#45;&#45;risque</title>
<path fill="none" stroke="darkgrey" stroke-width="1.64" d="M337.26,-306.72C269.44,-278.23 51.7,-186.75 38.16,-181.06"/>
</g>
<!-- secteur nickel&#45;&#45;relation politique -->
<g id="edge67" class="edge">
<title>secteur nickel&#45;&#45;relation politique</title>
<path fill="none" stroke="darkgrey" stroke-width="2.05" d="M675.72,-335.47C644.46,-390.97 554.17,-551.26 540.25,-575.96"/>
</g>
<!-- secteur nickel&#45;&#45;avenir avec nickel -->
<g id="edge68" class="edge">
<title>secteur nickel&#45;&#45;avenir avec nickel</title>
<path fill="none" stroke="darkgrey" stroke-width="2.21" d="M673.05,-299.63C640.11,-257.7 555.67,-150.22 530.71,-118.45"/>
</g>
<!-- secteur nickel&#45;&#45;pollution -->
<g id="edge69" class="edge">
<title>secteur nickel&#45;&#45;pollution</title>
<path fill="none" stroke="darkgrey" stroke-width="5" d="M665.26,-312.13C612.3,-300.97 474,-271.83 417.51,-259.92"/>
</g>
<!-- secteur nickel&#45;&#45;ressource minière -->
<g id="edge70" class="edge">
<title>secteur nickel&#45;&#45;ressource minière</title>
<path fill="none" stroke="darkgrey" stroke-width="3.06" d="M666.77,-325.99C630.13,-343.6 551.39,-381.43 512.41,-400.16"/>
</g>
<!-- secteur nickel&#45;&#45;dégradation environnementale -->
<g id="edge71" class="edge">
<title>secteur nickel&#45;&#45;dégradation environnementale</title>
<path fill="none" stroke="darkgrey" stroke-width="4.56" d="M664.48,-316.56C628.1,-316.52 554.82,-316.45 510.64,-316.41"/>
</g>
<!-- secteur nickel&#45;&#45;société néo&#45;calédonienne -->
<g id="edge72" class="edge">
<title>secteur nickel&#45;&#45;société néo&#45;calédonienne</title>
<path fill="none" stroke="darkgrey" stroke-width="2.97" d="M667.52,-305.87C624.99,-281.69 522.48,-223.42 486.64,-203.05"/>
</g>
<!-- secteur nickel&#45;&#45;nouvelle&#45;calédonie -->
<g id="edge73" class="edge">
<title>secteur nickel&#45;&#45;nouvelle&#45;calédonie</title>
<path fill="none" stroke="darkgrey" stroke-width="1.3" d="M669.21,-330.33C621.26,-368.77 487.37,-476.08 458.66,-499.1"/>
</g>
<!-- secteur nickel&#45;&#45;alternative au développement -->
<g id="edge74" class="edge">
<title>secteur nickel&#45;&#45;alternative au développement</title>
<path fill="none" stroke="darkgrey" stroke-width="7.31" d="M677.05,-336.32C674.91,-340.85 672.6,-345.74 670.36,-350.5"/>
</g>
<!-- secteur nickel&#45;&#45;nickel -->
<g id="edge75" class="edge">
<title>secteur nickel&#45;&#45;nickel</title>
<path fill="none" stroke="darkgrey" stroke-width="2.94" d="M675.7,-335.44C655.18,-371.76 611.1,-449.79 598.46,-472.15"/>
</g>
<!-- secteur nickel&#45;&#45;économie -->
<g id="edge76" class="edge">
<title>secteur nickel&#45;&#45;économie</title>
<path fill="none" stroke="darkgrey" stroke-width="3.5" d="M666.89,-326.16C651.76,-333.6 631.02,-343.81 616.78,-350.81"/>
</g>
<!-- secteur nickel&#45;&#45;amélioration environnementale -->
<g id="edge77" class="edge">
<title>secteur nickel&#45;&#45;amélioration environnementale</title>
<path fill="none" stroke="darkgrey" stroke-width="3.89" d="M670.1,-301.84C652.3,-285.7 624.45,-260.44 610.54,-247.84"/>
</g>
<!-- secteur nickel&#45;&#45;essor technologique -->
<g id="edge79" class="edge">
<title>secteur nickel&#45;&#45;essor technologique</title>
<path fill="none" stroke="darkgrey" stroke-width="3.5" d="M680.35,-295.72C672.2,-267.44 657.79,-217.41 650.14,-190.86"/>
</g>
<!-- secteur nickel&#45;&#45;foncier -->
<g id="edge78" class="edge">
<title>secteur nickel&#45;&#45;foncier</title>
<path fill="none" stroke="darkgrey" stroke-width="1.34" d="M708.1,-315.19C792.26,-309.81 1092.65,-290.6 1106.69,-289.7"/>
</g>
<!-- secteur nickel&#45;&#45;échange commercial -->
<g id="edge80" class="edge">
<title>secteur nickel&#45;&#45;échange commercial</title>
<path fill="none" stroke="darkgrey" stroke-width="1.22" d="M706.51,-307.81C770.67,-279.9 966.72,-194.58 978.91,-189.28"/>
</g>
<!-- relation politique&#45;&#45;pollution -->
<g id="edge81" class="edge">
<title>relation politique&#45;&#45;pollution</title>
<path fill="none" stroke="darkgrey" stroke-width="1.31" d="M537,-575.97C524.52,-548.13 434.33,-347.03 403.36,-277.96"/>
</g>
<!-- relation politique&#45;&#45;ressource minière -->
<g id="edge82" class="edge">
<title>relation politique&#45;&#45;ressource minière</title>
<path fill="none" stroke="darkgrey" stroke-width="1.19" d="M537.42,-575.67C532.24,-557.85 508.65,-476.65 496.65,-435.37"/>
</g>
<!-- relation politique&#45;&#45;dégradation environnementale -->
<g id="edge83" class="edge">
<title>relation politique&#45;&#45;dégradation environnementale</title>
<path fill="none" stroke="darkgrey" stroke-width="1.88" d="M537.54,-575.46C531.68,-551.41 498.87,-416.7 483.02,-351.6"/>
</g>
<!-- relation politique&#45;&#45;alternative au développement -->
<g id="edge84" class="edge">
<title>relation politique&#45;&#45;alternative au développement</title>
<path fill="none" stroke="darkgrey" stroke-width="1.03" d="M540.32,-576C551.9,-556.39 614.07,-451.1 643.04,-402.04"/>
</g>
<!-- relation politique&#45;&#45;économie -->
<g id="edge85" class="edge">
<title>relation politique&#45;&#45;économie</title>
<path fill="none" stroke="darkgrey" stroke-width="1.99" d="M539.42,-575.72C545.84,-552.94 582.19,-423.97 595.59,-376.41"/>
</g>
<!-- avenir avec nickel&#45;&#45;pollution -->
<g id="edge86" class="edge">
<title>avenir avec nickel&#45;&#45;pollution</title>
<path fill="none" stroke="darkgrey" stroke-width="1.8" d="M516.26,-117.7C495.84,-140.38 438.36,-204.27 409.66,-236.16"/>
</g>
<!-- avenir avec nickel&#45;&#45;ressource minière -->
<g id="edge87" class="edge">
<title>avenir avec nickel&#45;&#45;ressource minière</title>
<path fill="none" stroke="darkgrey" stroke-width="1.94" d="M522.41,-120.56C517.5,-164.04 499.5,-323.47 492.45,-385.85"/>
</g>
<!-- avenir avec nickel&#45;&#45;dégradation environnementale -->
<g id="edge88" class="edge">
<title>avenir avec nickel&#45;&#45;dégradation environnementale</title>
<path fill="none" stroke="darkgrey" stroke-width="3.32" d="M521.08,-120.3C514.04,-149.9 494.24,-233.13 482.83,-281.1"/>
</g>
<!-- avenir avec nickel&#45;&#45;société néo&#45;calédonienne -->
<g id="edge89" class="edge">
<title>avenir avec nickel&#45;&#45;société néo&#45;calédonienne</title>
<path fill="none" stroke="darkgrey" stroke-width="1.05" d="M518.16,-119.05C509.17,-134.69 491.34,-165.72 481.31,-183.18"/>
</g>
<!-- avenir avec nickel&#45;&#45;alternative au développement -->
<g id="edge90" class="edge">
<title>avenir avec nickel&#45;&#45;alternative au développement</title>
<path fill="none" stroke="darkgrey" stroke-width="3.06" d="M528.6,-119.3C547.52,-156.99 615.81,-292.98 644.78,-350.68"/>
</g>
<!-- avenir avec nickel&#45;&#45;économie -->
<g id="edge91" class="edge">
<title>avenir avec nickel&#45;&#45;économie</title>
<path fill="none" stroke="darkgrey" stroke-width="2.14" d="M526.96,-120.18C538.98,-159.14 580.43,-293.53 595.24,-341.56"/>
</g>
<!-- avenir avec nickel&#45;&#45;amélioration environnementale -->
<g id="edge92" class="edge">
<title>avenir avec nickel&#45;&#45;amélioration environnementale</title>
<path fill="none" stroke="darkgrey" stroke-width="2.95" d="M529.55,-119.29C544.15,-143.62 581.86,-206.48 596.31,-230.56"/>
</g>
<!-- avenir avec nickel&#45;&#45;essor technologique -->
<g id="edge93" class="edge">
<title>avenir avec nickel&#45;&#45;essor technologique</title>
<path fill="none" stroke="darkgrey" stroke-width="2.59" d="M533.59,-114.68C554.54,-125.67 603.41,-151.3 628.91,-164.68"/>
</g>
<!-- pollution&#45;&#45;ressource minière -->
<g id="edge94" class="edge">
<title>pollution&#45;&#45;ressource minière</title>
<path fill="none" stroke="darkgrey" stroke-width="5" d="M406.18,-276.16C424.64,-306.02 457.91,-359.86 476.37,-389.71"/>
</g>
<!-- pollution&#45;&#45;dégradation environnementale -->
<g id="edge95" class="edge">
<title>pollution&#45;&#45;dégradation environnementale</title>
<path fill="none" stroke="darkgrey" stroke-width="10" d="M413.09,-269.98C422.89,-277.39 434.85,-286.44 445.6,-294.57"/>
</g>
<!-- pollution&#45;&#45;nature -->
<g id="edge96" class="edge">
<title>pollution&#45;&#45;nature</title>
<path fill="none" stroke="darkgrey" stroke-width="3.16" d="M412.04,-238.17C456.26,-199.79 564.3,-106.02 595.41,-79.02"/>
</g>
<!-- pollution&#45;&#45;société néo&#45;calédonienne -->
<g id="edge97" class="edge">
<title>pollution&#45;&#45;société néo&#45;calédonienne</title>
<path fill="none" stroke="darkgrey" stroke-width="5.06" d="M413.4,-239.89C428.79,-228.71 449.34,-213.79 462.12,-204.51"/>
</g>
<!-- pollution&#45;&#45;nouvelle&#45;calédonie -->
<g id="edge98" class="edge">
<title>pollution&#45;&#45;nouvelle&#45;calédonie</title>
<path fill="none" stroke="darkgrey" stroke-width="1.44" d="M398.83,-279.05C412.09,-333.81 443.76,-464.57 451.48,-496.4"/>
</g>
<!-- pollution&#45;&#45;alternative au développement -->
<g id="edge99" class="edge">
<title>pollution&#45;&#45;alternative au développement</title>
<path fill="none" stroke="darkgrey" stroke-width="5.7" d="M415.99,-265.36C464.97,-287.94 579.18,-340.56 631.22,-364.54"/>
</g>
<!-- pollution&#45;&#45;nickel -->
<g id="edge100" class="edge">
<title>pollution&#45;&#45;nickel</title>
<path fill="none" stroke="darkgrey" stroke-width="2.85" d="M409.82,-273.41C452.89,-321.05 565.19,-445.27 590.08,-472.8"/>
</g>
<!-- pollution&#45;&#45;économie -->
<g id="edge101" class="edge">
<title>pollution&#45;&#45;économie</title>
<path fill="none" stroke="darkgrey" stroke-width="5.28" d="M415.56,-266.08C457.8,-287.25 547.76,-332.33 584.46,-350.73"/>
</g>
<!-- pollution&#45;&#45;amélioration environnementale -->
<g id="edge102" class="edge">
<title>pollution&#45;&#45;amélioration environnementale</title>
<path fill="none" stroke="darkgrey" stroke-width="2.12" d="M418.17,-252.98C463.79,-249.79 558.3,-243.19 590.79,-240.92"/>
</g>
<!-- pollution&#45;&#45;essor technologique -->
<g id="edge103" class="edge">
<title>pollution&#45;&#45;essor technologique</title>
<path fill="none" stroke="darkgrey" stroke-width="3.63" d="M417.11,-246.92C467.76,-230.52 583.96,-192.91 627.84,-178.71"/>
</g>
<!-- pollution&#45;&#45;risque -->
<g id="edge104" class="edge">
<title>pollution&#45;&#45;risque</title>
<path fill="none" stroke="darkgrey" stroke-width="1.53" d="M368.23,-249.6C290.14,-233.35 52.97,-184 38.22,-180.93"/>
</g>
<!-- ressource minière&#45;&#45;dégradation environnementale -->
<g id="edge105" class="edge">
<title>ressource minière&#45;&#45;dégradation environnementale</title>
<path fill="none" stroke="darkgrey" stroke-width="7.02" d="M485.62,-386.23C483.95,-375.81 481.98,-363.5 480.16,-352.14"/>
</g>
<!-- ressource minière&#45;&#45;société néo&#45;calédonienne -->
<g id="edge106" class="edge">
<title>ressource minière&#45;&#45;société néo&#45;calédonienne</title>
<path fill="none" stroke="darkgrey" stroke-width="1.79" d="M487.78,-386.01C484.5,-340.65 477.68,-246.43 475.07,-210.35"/>
</g>
<!-- ressource minière&#45;&#45;nouvelle&#45;calédonie -->
<g id="edge107" class="edge">
<title>ressource minière&#45;&#45;nouvelle&#45;calédonie</title>
<path fill="none" stroke="darkgrey" stroke-width="1.72" d="M480.41,-434.43C472.24,-455.16 460.82,-484.13 455.77,-496.94"/>
</g>
<!-- ressource minière&#45;&#45;alternative au développement -->
<g id="edge108" class="edge">
<title>ressource minière&#45;&#45;alternative au développement</title>
<path fill="none" stroke="darkgrey" stroke-width="6.32" d="M514.44,-406.06C545.07,-399.83 597.04,-389.24 629.32,-382.67"/>
</g>
<!-- ressource minière&#45;&#45;nickel -->
<g id="edge109" class="edge">
<title>ressource minière&#45;&#45;nickel</title>
<path fill="none" stroke="darkgrey" stroke-width="1.58" d="M510.93,-424.71C535.48,-440.34 574.29,-465.06 589.05,-474.46"/>
</g>
<!-- ressource minière&#45;&#45;économie -->
<g id="edge110" class="edge">
<title>ressource minière&#45;&#45;économie</title>
<path fill="none" stroke="darkgrey" stroke-width="4.38" d="M512.32,-400.41C533.62,-390.36 564.97,-375.58 584,-366.6"/>
</g>
<!-- ressource minière&#45;&#45;amélioration environnementale -->
<g id="edge111" class="edge">
<title>ressource minière&#45;&#45;amélioration environnementale</title>
<path fill="none" stroke="darkgrey" stroke-width="2.46" d="M503.39,-390.16C527.9,-352.88 578.15,-276.48 595.78,-249.68"/>
</g>
<!-- ressource minière&#45;&#45;essor technologique -->
<g id="edge112" class="edge">
<title>ressource minière&#45;&#45;essor technologique</title>
<path fill="none" stroke="darkgrey" stroke-width="4.53" d="M503.39,-390C534.23,-342.79 608.13,-229.64 635.03,-188.46"/>
</g>
<!-- dégradation environnementale&#45;&#45;nature -->
<g id="edge113" class="edge">
<title>dégradation environnementale&#45;&#45;nature</title>
<path fill="none" stroke="darkgrey" stroke-width="4.69" d="M491.36,-284.38C520.97,-228.4 580.74,-115.44 598.69,-81.5"/>
</g>
<!-- dégradation environnementale&#45;&#45;société néo&#45;calédonienne -->
<g id="edge114" class="edge">
<title>dégradation environnementale&#45;&#45;société néo&#45;calédonienne</title>
<path fill="none" stroke="darkgrey" stroke-width="3.67" d="M474.31,-280.22C474.23,-256.92 474.13,-227.88 474.07,-210.66"/>
</g>
<!-- dégradation environnementale&#45;&#45;nouvelle&#45;calédonie -->
<g id="edge115" class="edge">
<title>dégradation environnementale&#45;&#45;nouvelle&#45;calédonie</title>
<path fill="none" stroke="darkgrey" stroke-width="1.92" d="M470.34,-352.45C465.18,-397.9 456.66,-472.9 454.01,-496.29"/>
</g>
<!-- dégradation environnementale&#45;&#45;alternative au développement -->
<g id="edge116" class="edge">
<title>dégradation environnementale&#45;&#45;alternative au développement</title>
<path fill="none" stroke="darkgrey" stroke-width="6.83" d="M508.95,-327.74C544.04,-339.31 597.72,-357 630.16,-367.7"/>
</g>
<!-- dégradation environnementale&#45;&#45;nickel -->
<g id="edge117" class="edge">
<title>dégradation environnementale&#45;&#45;nickel</title>
<path fill="none" stroke="darkgrey" stroke-width="2.67" d="M495.99,-345.31C525.26,-384.6 575.63,-452.23 590.66,-472.41"/>
</g>
<!-- dégradation environnementale&#45;&#45;économie -->
<g id="edge118" class="edge">
<title>dégradation environnementale&#45;&#45;économie</title>
<path fill="none" stroke="darkgrey" stroke-width="7.06" d="M508.57,-327.85C532.79,-336 564.27,-346.59 583.42,-353.03"/>
</g>
<!-- dégradation environnementale&#45;&#45;amélioration environnementale -->
<g id="edge119" class="edge">
<title>dégradation environnementale&#45;&#45;amélioration environnementale</title>
<path fill="none" stroke="darkgrey" stroke-width="2.57" d="M505.65,-297.72C534.14,-280.71 574.46,-256.62 592.59,-245.79"/>
</g>
<!-- dégradation environnementale&#45;&#45;essor technologique -->
<g id="edge120" class="edge">
<title>dégradation environnementale&#45;&#45;essor technologique</title>
<path fill="none" stroke="darkgrey" stroke-width="4.01" d="M502.22,-293.04C539.05,-262.12 602.63,-208.74 630.84,-185.05"/>
</g>
<!-- dégradation environnementale&#45;&#45;matériel -->
<g id="edge121" class="edge">
<title>dégradation environnementale&#45;&#45;matériel</title>
<path fill="none" stroke="darkgrey" stroke-width="1.01" d="M468.07,-280.75C453.78,-200.72 420.2,-12.74 418.12,-1.07"/>
</g>
<!-- nature&#45;&#45;société néo&#45;calédonienne -->
<g id="edge122" class="edge">
<title>nature&#45;&#45;société néo&#45;calédonienne</title>
<path fill="none" stroke="darkgrey" stroke-width="2.63" d="M595.78,-79.41C573.24,-100.98 509.88,-161.57 484.62,-185.74"/>
</g>
<!-- nature&#45;&#45;alternative au développement -->
<g id="edge123" class="edge">
<title>nature&#45;&#45;alternative au développement</title>
<path fill="none" stroke="darkgrey" stroke-width="1.43" d="M605.83,-82.5C613.39,-125.19 641.19,-282.3 652.79,-347.84"/>
</g>
<!-- nature&#45;&#45;économie -->
<g id="edge124" class="edge">
<title>nature&#45;&#45;économie</title>
<path fill="none" stroke="darkgrey" stroke-width="1.06" d="M603.78,-82.9C603.27,-126.76 601.4,-286.46 600.77,-340.66"/>
</g>
<!-- nature&#45;&#45;amélioration environnementale -->
<g id="edge125" class="edge">
<title>nature&#45;&#45;amélioration environnementale</title>
<path fill="none" stroke="darkgrey" stroke-width="1.17" d="M603.79,-82.7C603.45,-113.15 602.52,-198.05 602.18,-228.82"/>
</g>
<!-- nature&#45;&#45;essor technologique -->
<g id="edge126" class="edge">
<title>nature&#45;&#45;essor technologique</title>
<path fill="none" stroke="darkgrey" stroke-width="1.57" d="M608.16,-82.12C615.26,-99.65 629.6,-135.05 638.16,-156.17"/>
</g>
<!-- société néo&#45;calédonienne&#45;&#45;nouvelle&#45;calédonie -->
<g id="edge127" class="edge">
<title>société néo&#45;calédonienne&#45;&#45;nouvelle&#45;calédonie</title>
<path fill="none" stroke="darkgrey" stroke-width="1.9" d="M473.01,-210.71C469.28,-265.79 456.31,-457.41 453.66,-496.49"/>
</g>
<!-- société néo&#45;calédonienne&#45;&#45;alternative au développement -->
<g id="edge128" class="edge">
<title>société néo&#45;calédonienne&#45;&#45;alternative au développement</title>
<path fill="none" stroke="darkgrey" stroke-width="3.79" d="M484.43,-206.12C513.84,-235.06 597.91,-317.79 637.21,-356.46"/>
</g>
<!-- société néo&#45;calédonienne&#45;&#45;nickel -->
<g id="edge129" class="edge">
<title>société néo&#45;calédonienne&#45;&#45;nickel</title>
<path fill="none" stroke="darkgrey" stroke-width="2.38" d="M479.85,-209.49C501.47,-259.95 576.56,-435.2 592.16,-471.6"/>
</g>
<!-- société néo&#45;calédonienne&#45;&#45;économie -->
<g id="edge130" class="edge">
<title>société néo&#45;calédonienne&#45;&#45;économie</title>
<path fill="none" stroke="darkgrey" stroke-width="3.57" d="M482.92,-207.33C505.42,-236.3 564.56,-312.45 589.36,-344.38"/>
</g>
<!-- société néo&#45;calédonienne&#45;&#45;amélioration environnementale -->
<g id="edge131" class="edge">
<title>société néo&#45;calédonienne&#45;&#45;amélioration environnementale</title>
<path fill="none" stroke="darkgrey" stroke-width="1.17" d="M488.21,-200.78C514.12,-209.74 568.54,-228.55 591.49,-236.49"/>
</g>
<!-- société néo&#45;calédonienne&#45;&#45;essor technologique -->
<g id="edge132" class="edge">
<title>société néo&#45;calédonienne&#45;&#45;essor technologique</title>
<path fill="none" stroke="darkgrey" stroke-width="1.52" d="M488.6,-193.93C519.78,-189.79 592.86,-180.08 626.94,-175.55"/>
</g>
<!-- nouvelle&#45;calédonie&#45;&#45;alternative au développement -->
<g id="edge133" class="edge">
<title>nouvelle&#45;calédonie&#45;&#45;alternative au développement</title>
<path fill="none" stroke="darkgrey" stroke-width="2.31" d="M459.54,-499.55C485.73,-483.35 586.15,-421.24 633.26,-392.1"/>
</g>
<!-- nouvelle&#45;calédonie&#45;&#45;économie -->
<g id="edge134" class="edge">
<title>nouvelle&#45;calédonie&#45;&#45;économie</title>
<path fill="none" stroke="darkgrey" stroke-width="2.1" d="M458.43,-498.33C479.25,-477.89 556.42,-402.13 587.48,-371.63"/>
</g>
<!-- nouvelle&#45;calédonie&#45;&#45;amélioration environnementale -->
<g id="edge135" class="edge">
<title>nouvelle&#45;calédonie&#45;&#45;amélioration environnementale</title>
<path fill="none" stroke="darkgrey" stroke-width="1.1" d="M456.87,-496.97C476.88,-461.57 572.61,-292.22 596.59,-249.79"/>
</g>
<!-- alternative au développement&#45;&#45;nickel -->
<g id="edge136" class="edge">
<title>alternative au développement&#45;&#45;nickel</title>
<path fill="none" stroke="darkgrey" stroke-width="2.64" d="M642.53,-401.65C627.98,-425.11 607.16,-458.67 598.75,-472.23"/>
</g>
<!-- alternative au développement&#45;&#45;économie -->
<g id="edge137" class="edge">
<title>alternative au développement&#45;&#45;économie</title>
<path fill="none" stroke="darkgrey" stroke-width="6.2" d="M630.25,-368.14C626.01,-366.8 621.74,-365.46 617.81,-364.22"/>
</g>
<!-- alternative au développement&#45;&#45;amélioration environnementale -->
<g id="edge138" class="edge">
<title>alternative au développement&#45;&#45;amélioration environnementale</title>
<path fill="none" stroke="darkgrey" stroke-width="5.65" d="M646.88,-349.84C634.42,-319.33 614.76,-271.24 606.23,-250.36"/>
</g>
<!-- alternative au développement&#45;&#45;essor technologique -->
<g id="edge140" class="edge">
<title>alternative au développement&#45;&#45;essor technologique</title>
<path fill="none" stroke="darkgrey" stroke-width="5.16" d="M656.07,-347.66C653.37,-304.87 648.4,-226.36 646.17,-191.11"/>
</g>
<!-- alternative au développement&#45;&#45;foncier -->
<g id="edge139" class="edge">
<title>alternative au développement&#45;&#45;foncier</title>
<path fill="none" stroke="darkgrey" stroke-width="1.22" d="M686.71,-371.26C783.54,-352.47 1092.26,-292.57 1106.68,-289.77"/>
</g>
<!-- nickel&#45;&#45;économie -->
<g id="edge141" class="edge">
<title>nickel&#45;&#45;économie</title>
<path fill="none" stroke="darkgrey" stroke-width="1.83" d="M595.34,-471.14C596.19,-452.86 598.47,-403.79 599.71,-376.95"/>
</g>
<!-- nickel&#45;&#45;amélioration environnementale -->
<g id="edge142" class="edge">
<title>nickel&#45;&#45;amélioration environnementale</title>
<path fill="none" stroke="darkgrey" stroke-width="1.55" d="M595.22,-471.13C596.22,-437.31 600.49,-292.95 601.72,-251.38"/>
</g>
<!-- nickel&#45;&#45;essor technologique -->
<g id="edge143" class="edge">
<title>nickel&#45;&#45;essor technologique</title>
<path fill="none" stroke="darkgrey" stroke-width="1.43" d="M596.15,-471.31C602.39,-433.26 632.49,-249.64 642.09,-191.11"/>
</g>
<!-- économie&#45;&#45;amélioration environnementale -->
<g id="edge144" class="edge">
<title>économie&#45;&#45;amélioration environnementale</title>
<path fill="none" stroke="darkgrey" stroke-width="1.8" d="M600.78,-340.77C601.1,-315.88 601.65,-271.72 601.91,-251.19"/>
</g>
<!-- économie&#45;&#45;essor technologique -->
<g id="edge145" class="edge">
<title>économie&#45;&#45;essor technologique</title>
<path fill="none" stroke="darkgrey" stroke-width="1.83" d="M604.82,-340.99C613.32,-305.51 632.29,-226.33 640.78,-190.89"/>
</g>
<!-- économie&#45;&#45;échange commercial -->
<g id="edge146" class="edge">
<title>économie&#45;&#45;échange commercial</title>
<path fill="none" stroke="darkgrey" stroke-width="1.05" d="M617.33,-351.28C688.95,-319.19 966.09,-195.03 979.04,-189.23"/>
</g>
<!-- amélioration environnementale&#45;&#45;essor technologique -->
<g id="edge147" class="edge">
<title>amélioration environnementale&#45;&#45;essor technologique</title>
<path fill="none" stroke="darkgrey" stroke-width="2.18" d="M608.03,-230.82C615.09,-219.82 626.93,-201.37 635.31,-188.3"/>
</g>
<!-- essor technologique&#45;&#45;matériel -->
<g id="edge148" class="edge">
<title>essor technologique&#45;&#45;matériel</title>
<path fill="none" stroke="darkgrey" stroke-width="1.32" d="M630.49,-162.08C581.95,-125.17 428.05,-8.13 418.48,-0.86"/>
</g>
<!-- exploitation minière&#45;&#45;politique -->
<g id="edge43" class="edge">
<title>exploitation minière&#45;&#45;politique</title>
<path fill="none" stroke="darkgrey" stroke-width="1.34" d="M351.49,-139.05C352.14,-158.77 355.16,-251.05 356.56,-293.57"/>
</g>
<!-- exploitation minière&#45;&#45;secteur nickel -->
<g id="edge44" class="edge">
<title>exploitation minière&#45;&#45;secteur nickel</title>
<path fill="none" stroke="darkgrey" stroke-width="1.78" d="M354.68,-137.08C384.11,-153.01 600.98,-270.38 667.21,-306.22"/>
</g>
<!-- exploitation minière&#45;&#45;pollution -->
<g id="edge45" class="edge">
<title>exploitation minière&#45;&#45;pollution</title>
<path fill="none" stroke="darkgrey" stroke-width="1.64" d="M352.57,-138.74C357.21,-152.09 374.29,-201.14 384.68,-231.02"/>
</g>
<!-- exploitation minière&#45;&#45;ressource minière -->
<g id="edge46" class="edge">
<title>exploitation minière&#45;&#45;ressource minière</title>
<path fill="none" stroke="darkgrey" stroke-width="1.4" d="M353.12,-138.78C366.12,-164.72 448.09,-328.3 478.38,-388.72"/>
</g>
<!-- exploitation minière&#45;&#45;dégradation environnementale -->
<g id="edge47" class="edge">
<title>exploitation minière&#45;&#45;dégradation environnementale</title>
<path fill="none" stroke="darkgrey" stroke-width="1.33" d="M353.5,-138.43C365.28,-155.76 422.9,-240.54 454.16,-286.54"/>
</g>
<!-- exploitation minière&#45;&#45;société néo&#45;calédonienne -->
<g id="edge48" class="edge">
<title>exploitation minière&#45;&#45;société néo&#45;calédonienne</title>
<path fill="none" stroke="darkgrey" stroke-width="1.32" d="M354.65,-136.91C369.73,-144.36 432.89,-175.56 460.74,-189.31"/>
</g>
<!-- exploitation minière&#45;&#45;alternative au développement -->
<g id="edge49" class="edge">
<title>exploitation minière&#45;&#45;alternative au développement</title>
<path fill="none" stroke="darkgrey" stroke-width="2.06" d="M354.4,-137.68C380.58,-158.31 568.92,-306.72 635.05,-358.82"/>
</g>
<!-- exploitation minière&#45;&#45;amélioration environnementale -->
<g id="edge50" class="edge">
<title>exploitation minière&#45;&#45;amélioration environnementale</title>
<path fill="none" stroke="darkgrey" stroke-width="1.12" d="M354.91,-136.77C381.39,-147.85 548.53,-217.75 591.82,-235.86"/>
</g>
<!-- exploitation minière&#45;&#45;matériel -->
<g id="edge51" class="edge">
<title>exploitation minière&#45;&#45;matériel</title>
<path fill="none" stroke="darkgrey" stroke-width="1.14" d="M353.02,-131.96C362.8,-112.17 412.98,-10.68 417.66,-1.21"/>
</g>
<!-- avenir sans nickel -->
<g id="node1" class="node">
<title>avenir sans nickel</title>
<ellipse fill="#fa9407" stroke="white" stroke-width="0" cx="394.28" cy="-367.6" rx="29" ry="29"/>
<text text-anchor="middle" x="253.78" y="-403.76" font-family="Helvetica,sans-Serif" font-size="24.80" fill="#4d4d4d">avenir sans nickel</text>
</g>
<!-- industrie -->
<g id="node2" class="node">
<title>industrie</title>
<ellipse fill="#07051b" stroke="white" stroke-width="0" cx="354.02" cy="-537.79" rx="3.5" ry="3.5"/>
<text text-anchor="middle" x="321.02" y="-545.41" font-family="Helvetica,sans-Serif" font-size="13.60" fill="#4d4d4d">industrie</text>
</g>
<!-- travail -->
<g id="node3" class="node">
<title>travail</title>
<ellipse fill="#bf3952" stroke="white" stroke-width="0" cx="527.43" cy="-261.83" rx="18" ry="18"/>
<text text-anchor="middle" x="477.93" y="-249.83" font-family="Helvetica,sans-Serif" font-size="20.00" fill="#4d4d4d">travail</text>
</g>
<!-- politique -->
<g id="node4" class="node">
<title>politique</title>
<ellipse fill="#d74b3f" stroke="white" stroke-width="0" cx="357.26" cy="-315.12" rx="21.5" ry="21.5"/>
<text text-anchor="middle" x="288.76" y="-343.34" font-family="Helvetica,sans-Serif" font-size="21.60" fill="#4d4d4d">politique</text>
</g>
<!-- secteur nickel -->
<g id="node5" class="node">
<title>secteur nickel</title>
<ellipse fill="#d24644" stroke="white" stroke-width="0" cx="686.36" cy="-316.58" rx="21.5" ry="21.5"/>
<text text-anchor="middle" x="589.36" y="-301.8" font-family="Helvetica,sans-Serif" font-size="21.60" fill="#4d4d4d">secteur nickel</text>
</g>
<!-- relation politique -->
<g id="node6" class="node">
<title>relation politique</title>
<ellipse fill="#120a32" stroke="white" stroke-width="0" cx="538.44" cy="-579.18" rx="3.5" ry="3.5"/>
<text text-anchor="middle" x="477.44" y="-586.8" font-family="Helvetica,sans-Serif" font-size="13.60" fill="#4d4d4d">relation politique</text>
</g>
<!-- avenir avec nickel -->
<g id="node7" class="node">
<title>avenir avec nickel</title>
<ellipse fill="#510e6c" stroke="white" stroke-width="0" cx="523.66" cy="-109.47" rx="11" ry="11"/>
<text text-anchor="middle" x="437.16" y="-125.03" font-family="Helvetica,sans-Serif" font-size="16.80" fill="#4d4d4d">avenir avec nickel</text>
</g>
<!-- pollution -->
<g id="node8" class="node">
<title>pollution</title>
<ellipse fill="#eb6628" stroke="white" stroke-width="0" cx="392.94" cy="-254.74" rx="25" ry="25"/>
<text text-anchor="middle" x="316.44" y="-237.18" font-family="Helvetica,sans-Serif" font-size="23.20" fill="#4d4d4d">pollution</text>
</g>
<!-- ressource minière -->
<g id="node9" class="node">
<title>ressource minière</title>
<ellipse fill="#ec6726" stroke="white" stroke-width="0" cx="489.6" cy="-411.12" rx="25" ry="25"/>
<text text-anchor="middle" x="360.1" y="-443.56" font-family="Helvetica,sans-Serif" font-size="23.20" fill="#4d4d4d">ressource minière</text>
</g>
<!-- dégradation environnementale -->
<g id="node10" class="node">
<title>dégradation environnementale</title>
<ellipse fill="#fcffa4" stroke="white" stroke-width="0" cx="474.44" cy="-316.37" rx="36" ry="36"/>
<text text-anchor="middle" x="220.44" y="-288.97" font-family="Helvetica,sans-Serif" font-size="28.00" fill="#4d4d4d">dégradation environnementale</text>
</g>
<!-- nature -->
<g id="node11" class="node">
<title>nature</title>
<ellipse fill="#5c126e" stroke="white" stroke-width="0" cx="603.91" cy="-71.64" rx="11" ry="11"/>
<text text-anchor="middle" x="564.91" y="-87.2" font-family="Helvetica,sans-Serif" font-size="16.80" fill="#4d4d4d">nature</text>
</g>
<!-- société néo&#45;calédonienne -->
<g id="node12" class="node">
<title>société néo&#45;calédonienne</title>
<ellipse fill="#8d2369" stroke="white" stroke-width="0" cx="474.02" cy="-195.87" rx="14.5" ry="14.5"/>
<text text-anchor="middle" x="340.52" y="-186.65" font-family="Helvetica,sans-Serif" font-size="18.40" fill="#4d4d4d">société néo&#45;calédonienne</text>
</g>
<!-- nouvelle&#45;calédonie -->
<g id="node13" class="node">
<title>nouvelle&#45;calédonie</title>
<ellipse fill="#2b0b57" stroke="white" stroke-width="0" cx="453.19" cy="-503.48" rx="7" ry="7"/>
<text text-anchor="middle" x="374.69" y="-515.32" font-family="Helvetica,sans-Serif" font-size="15.20" fill="#4d4d4d">nouvelle&#45;calédonie</text>
</g>
<!-- alternative au développement -->
<g id="node14" class="node">
<title>alternative au développement</title>
<ellipse fill="#fb9b06" stroke="white" stroke-width="0" cx="657.92" cy="-376.85" rx="29" ry="29"/>
<text text-anchor="middle" x="816.42" y="-413.01" font-family="Helvetica,sans-Serif" font-size="24.80" fill="#4d4d4d">alternative au développement</text>
</g>
<!-- nickel -->
<g id="node15" class="node">
<title>nickel</title>
<ellipse fill="#2f0a5b" stroke="white" stroke-width="0" cx="595.01" cy="-478.26" rx="7" ry="7"/>
<text text-anchor="middle" x="565.51" y="-490.1" font-family="Helvetica,sans-Serif" font-size="15.20" fill="#4d4d4d">nickel</text>
</g>
<!-- économie -->
<g id="node16" class="node">
<title>économie</title>
<ellipse fill="#a82e5f" stroke="white" stroke-width="0" cx="600.56" cy="-358.79" rx="18" ry="18"/>
<text text-anchor="middle" x="609.56" y="-324.79" font-family="Helvetica,sans-Serif" font-size="20.00" fill="#4d4d4d">économie</text>
</g>
<!-- amélioration environnementale -->
<g id="node17" class="node">
<title>amélioration environnementale</title>
<ellipse fill="#721a6e" stroke="white" stroke-width="0" cx="602.05" cy="-240.14" rx="11" ry="11"/>
<text text-anchor="middle" x="458.55" y="-215.7" font-family="Helvetica,sans-Serif" font-size="16.80" fill="#4d4d4d">amélioration environnementale</text>
</g>
<!-- essor technologique -->
<g id="node18" class="node">
<title>essor technologique</title>
<ellipse fill="#a92e5e" stroke="white" stroke-width="0" cx="645.03" cy="-173.14" rx="18" ry="18"/>
<text text-anchor="middle" x="526.53" y="-161.14" font-family="Helvetica,sans-Serif" font-size="20.00" fill="#4d4d4d">essor technologique</text>
</g>
<!-- risque -->
<g id="node19" class="node">
<title>risque</title>
<ellipse fill="#000004" stroke="white" stroke-width="0" cx="37.5" cy="-180.78" rx="0.5" ry="0.5"/>
<text text-anchor="middle" x="18.5" y="-184.68" font-family="Helvetica,sans-Serif" font-size="12.00" fill="#4d4d4d">risque</text>
</g>
<!-- exploitation minière -->
<g id="node20" class="node">
<title>exploitation minière</title>
<ellipse fill="#110a30" stroke="white" stroke-width="0" cx="351.37" cy="-135.29" rx="3.5" ry="3.5"/>
<text text-anchor="middle" x="279.87" y="-142.91" font-family="Helvetica,sans-Serif" font-size="13.60" fill="#4d4d4d">exploitation minière</text>
</g>
<!-- matériel -->
<g id="node21" class="node">
<title>matériel</title>
<ellipse fill="#010005" stroke="white" stroke-width="0" cx="418.01" cy="-0.5" rx="0.5" ry="0.5"/>
<text text-anchor="middle" x="392.01" y="-4.4" font-family="Helvetica,sans-Serif" font-size="12.00" fill="#4d4d4d">matériel</text>
</g>
<!-- foncier -->
<g id="node22" class="node">
<title>foncier</title>
<ellipse fill="#000004" stroke="white" stroke-width="0" cx="1107.2" cy="-289.67" rx="0.5" ry="0.5"/>
<text text-anchor="middle" x="1085.2" y="-293.57" font-family="Helvetica,sans-Serif" font-size="12.00" fill="#4d4d4d">foncier</text>
</g>
<!-- échange commercial -->
<g id="node23" class="node">
<title>échange commercial</title>
<ellipse fill="#010108" stroke="white" stroke-width="0" cx="979.51" cy="-189.02" rx="0.5" ry="0.5"/>
<text text-anchor="middle" x="915.51" y="-192.92" font-family="Helvetica,sans-Serif" font-size="12.00" fill="#4d4d4d">échange commercial</text>
</g>
</g>
</svg>
