<?xml version="1.0" encoding="UTF-8" standalone="no"?>
<!DOCTYPE svg PUBLIC "-//W3C//DTD SVG 1.1//EN"
 "http://www.w3.org/Graphics/SVG/1.1/DTD/svg11.dtd">
<!-- Generated by graphviz version 2.43.0 (0)
 -->
<!-- Pages: 1 -->
<svg width="494pt" height="311pt"
 viewBox="0.00 0.00 494.10 311.36" xmlns="http://www.w3.org/2000/svg" xmlns:xlink="http://www.w3.org/1999/xlink">
<g id="graph0" class="graph" transform="scale(1 1) rotate(0) translate(4 307.36)">
<polygon fill="white" stroke="transparent" points="-4,4 -4,-307.36 490.1,-307.36 490.1,4 -4,4"/>
<!-- fin&#45;&#45;pollution -->
<g id="edge1" class="edge">
<title>fin&#45;&#45;pollution</title>
<path fill="none" stroke="darkgrey" stroke-width="1.28" d="M249.93,-250.76C240.44,-234.5 221.26,-201.65 208.46,-179.73"/>
</g>
<!-- fin&#45;&#45;épuisement de la ressource -->
<g id="edge2" class="edge">
<title>fin&#45;&#45;épuisement de la ressource</title>
<path fill="none" stroke="darkgrey" stroke-width="1.24" d="M264.54,-253.81C274.42,-246.24 290.33,-234.06 300.29,-226.43"/>
</g>
<!-- fin&#45;&#45;impact environnemental -->
<g id="edge3" class="edge">
<title>fin&#45;&#45;impact environnemental</title>
<path fill="none" stroke="darkgrey" stroke-width="1.71" d="M262.89,-252.23C275.23,-237.93 300.91,-208.16 320.06,-185.96"/>
</g>
<!-- pollution&#45;&#45;épuisement de la ressource -->
<g id="edge8" class="edge">
<title>pollution&#45;&#45;épuisement de la ressource</title>
<path fill="none" stroke="darkgrey" stroke-width="3.48" d="M217.92,-169.97C242.58,-183.33 281.34,-204.32 299.43,-214.12"/>
</g>
<!-- pollution&#45;&#45;impact environnemental -->
<g id="edge11" class="edge">
<title>pollution&#45;&#45;impact environnemental</title>
<path fill="none" stroke="darkgrey" stroke-width="10" d="M220.87,-158.02C244.72,-158.09 280.84,-158.19 307.77,-158.26"/>
</g>
<!-- pollution&#45;&#45;économie du pays -->
<g id="edge13" class="edge">
<title>pollution&#45;&#45;économie du pays</title>
<path fill="none" stroke="darkgrey" stroke-width="2.37" d="M218.87,-148.32C243.26,-138.15 280.58,-122.6 298.44,-115.15"/>
</g>
<!-- pollution&#45;&#45;amélioration environnementale -->
<g id="edge14" class="edge">
<title>pollution&#45;&#45;amélioration environnementale</title>
<path fill="none" stroke="darkgrey" stroke-width="1.58" d="M202.35,-133.69C205.77,-121.12 209.87,-106.07 212.98,-94.64"/>
</g>
<!-- pollution&#45;&#45;montagne -->
<g id="edge9" class="edge">
<title>pollution&#45;&#45;montagne</title>
<path fill="none" stroke="darkgrey" stroke-width="1.04" d="M186.15,-181.32C170.95,-218.35 142.76,-287.03 140.15,-293.39"/>
</g>
<!-- pollution&#45;&#45;biodiversité -->
<g id="edge10" class="edge">
<title>pollution&#45;&#45;biodiversité</title>
<path fill="none" stroke="darkgrey" stroke-width="1.29" d="M173.05,-169.15C137.7,-186.6 71.92,-219.06 56.02,-226.91"/>
</g>
<!-- pollution&#45;&#45;développement -->
<g id="edge12" class="edge">
<title>pollution&#45;&#45;développement</title>
<path fill="none" stroke="darkgrey" stroke-width="1.2" d="M220.96,-157.8C231.43,-157.74 243.05,-157.67 251.31,-157.62"/>
</g>
<!-- pollution&#45;&#45;déclin -->
<g id="edge15" class="edge">
<title>pollution&#45;&#45;déclin</title>
<path fill="none" stroke="darkgrey" d="M170.64,-160.39C145.24,-162.85 108.14,-166.45 96.65,-167.56"/>
</g>
<!-- pollution&#45;&#45;développement durable -->
<g id="edge16" class="edge">
<title>pollution&#45;&#45;développement durable</title>
<path fill="none" stroke="darkgrey" stroke-width="1.14" d="M177.26,-140.48C157.68,-121.98 127.97,-93.91 115.91,-82.51"/>
</g>
<!-- pollution&#45;&#45;innovation -->
<g id="edge17" class="edge">
<title>pollution&#45;&#45;innovation</title>
<path fill="none" stroke="darkgrey" stroke-width="1.05" d="M189.41,-133.69C180.94,-101.24 166.29,-45.1 160.18,-21.71"/>
</g>
<!-- épuisement de la ressource&#45;&#45;impact environnemental -->
<g id="edge18" class="edge">
<title>épuisement de la ressource&#45;&#45;impact environnemental</title>
<path fill="none" stroke="darkgrey" stroke-width="3.91" d="M314.89,-209.67C317.98,-204.21 322.01,-197.06 326.09,-189.85"/>
</g>
<!-- épuisement de la ressource&#45;&#45;économie du pays -->
<g id="edge21" class="edge">
<title>épuisement de la ressource&#45;&#45;économie du pays</title>
<path fill="none" stroke="darkgrey" stroke-width="1.27" d="M309.27,-208.28C309.14,-187.47 308.86,-143.1 308.73,-122.21"/>
</g>
<!-- épuisement de la ressource&#45;&#45;développement -->
<g id="edge20" class="edge">
<title>épuisement de la ressource&#45;&#45;développement</title>
<path fill="none" stroke="darkgrey" stroke-width="1.02" d="M302.62,-210.62C293.71,-198.85 278.05,-178.18 269.14,-166.41"/>
</g>
<!-- épuisement de la ressource&#45;&#45;conflit -->
<g id="edge19" class="edge">
<title>épuisement de la ressource&#45;&#45;conflit</title>
<path fill="none" stroke="darkgrey" stroke-width="1.54" d="M318.28,-226.22C333.87,-237.94 365.63,-261.81 378.78,-271.7"/>
</g>
<!-- impact environnemental&#45;&#45;économie du pays -->
<g id="edge24" class="edge">
<title>impact environnemental&#45;&#45;économie du pays</title>
<path fill="none" stroke="darkgrey" stroke-width="3.37" d="M322.37,-129.38C319.85,-125.99 317.45,-122.74 315.37,-119.94"/>
</g>
<!-- impact environnemental&#45;&#45;amélioration environnementale -->
<g id="edge25" class="edge">
<title>impact environnemental&#45;&#45;amélioration environnementale</title>
<path fill="none" stroke="darkgrey" stroke-width="2.48" d="M313.34,-138.69C287.97,-122.33 252.94,-99.75 233.09,-86.95"/>
</g>
<!-- impact environnemental&#45;&#45;développement -->
<g id="edge23" class="edge">
<title>impact environnemental&#45;&#45;développement</title>
<path fill="none" stroke="darkgrey" stroke-width="1.93" d="M307.44,-158C295.24,-157.88 282.53,-157.75 273.73,-157.66"/>
</g>
<!-- impact environnemental&#45;&#45;conflit -->
<g id="edge22" class="edge">
<title>impact environnemental&#45;&#45;conflit</title>
<path fill="none" stroke="darkgrey" stroke-width="3.14" d="M355.67,-192.43C364.99,-219.33 377.25,-254.69 382.32,-269.34"/>
</g>
<!-- impact environnemental&#45;&#45;richesse -->
<g id="edge26" class="edge">
<title>impact environnemental&#45;&#45;richesse</title>
<path fill="none" stroke="darkgrey" stroke-width="1.49" d="M372,-135.37C400.87,-111.77 442.26,-77.94 447.33,-73.8"/>
</g>
<!-- impact environnemental&#45;&#45;automatisation -->
<g id="edge27" class="edge">
<title>impact environnemental&#45;&#45;automatisation</title>
<path fill="none" stroke="darkgrey" stroke-width="1.08" d="M379.23,-165.33C414.56,-172.29 465.51,-182.32 479.14,-185.01"/>
</g>
<!-- emploi&#45;&#45;pollution -->
<g id="edge4" class="edge">
<title>emploi&#45;&#45;pollution</title>
<path fill="none" stroke="darkgrey" stroke-width="4.37" d="M276.51,-62.4C260.18,-81.72 230.5,-116.84 212.02,-138.69"/>
</g>
<!-- emploi&#45;&#45;impact environnemental -->
<g id="edge5" class="edge">
<title>emploi&#45;&#45;impact environnemental</title>
<path fill="none" stroke="darkgrey" stroke-width="4.01" d="M296.43,-64.75C304.59,-80.86 317.34,-106.01 327.56,-126.19"/>
</g>
<!-- emploi&#45;&#45;économie du pays -->
<g id="edge6" class="edge">
<title>emploi&#45;&#45;économie du pays</title>
<path fill="none" stroke="darkgrey" stroke-width="2.73" d="M293.91,-65.91C297.51,-76.87 302.03,-90.67 305.12,-100.08"/>
</g>
<!-- emploi&#45;&#45;amélioration environnementale -->
<g id="edge7" class="edge">
<title>emploi&#45;&#45;amélioration environnementale</title>
<path fill="none" stroke="darkgrey" stroke-width="2.67" d="M271.52,-55.31C260.45,-59.79 245.97,-65.65 234.83,-70.16"/>
</g>
<!-- amélioration environnementale&#45;&#45;développement durable -->
<g id="edge30" class="edge">
<title>amélioration environnementale&#45;&#45;développement durable</title>
<path fill="none" stroke="darkgrey" stroke-width="1.19" d="M199.57,-77.13C175.67,-77.21 134.78,-77.35 118.03,-77.41"/>
</g>
<!-- amélioration environnementale&#45;&#45;innovation -->
<g id="edge31" class="edge">
<title>amélioration environnementale&#45;&#45;innovation</title>
<path fill="none" stroke="darkgrey" stroke-width="1.04" d="M205.54,-63.7C193.42,-50.43 175.2,-30.5 165,-19.33"/>
</g>
<!-- développement&#45;&#45;économie du pays -->
<g id="edge28" class="edge">
<title>développement&#45;&#45;économie du pays</title>
<path fill="none" stroke="darkgrey" stroke-width="1.4" d="M270.48,-149.42C278.97,-140.86 292.25,-127.46 300.7,-118.93"/>
</g>
<!-- développement&#45;&#45;amélioration environnementale -->
<g id="edge29" class="edge">
<title>développement&#45;&#45;amélioration environnementale</title>
<path fill="none" stroke="darkgrey" stroke-width="1.07" d="M256.95,-147.68C249.36,-134 235.55,-109.11 226.51,-92.84"/>
</g>
<!-- fin -->
<g id="node1" class="node">
<title>fin</title>
<ellipse fill="#741a6e" stroke="white" stroke-width="0" cx="255.68" cy="-260.6" rx="11" ry="11"/>
<text text-anchor="middle" x="239.18" y="-274.2" font-family="Helvetica,sans-Serif" font-size="8.00" fill="#4d4d4d">fin</text>
</g>
<!-- pollution -->
<g id="node2" class="node">
<title>pollution</title>
<ellipse fill="#ef6c23" stroke="white" stroke-width="0" cx="195.74" cy="-157.95" rx="25" ry="25"/>
<text text-anchor="middle" x="152.24" y="-185.55" font-family="Helvetica,sans-Serif" font-size="8.00" fill="#4d4d4d">pollution</text>
</g>
<!-- épuisement de la ressource -->
<g id="node3" class="node">
<title>épuisement de la ressource</title>
<ellipse fill="#62146e" stroke="white" stroke-width="0" cx="309.35" cy="-219.5" rx="11" ry="11"/>
<text text-anchor="middle" x="241.35" y="-233.1" font-family="Helvetica,sans-Serif" font-size="8.00" fill="#4d4d4d">épuisement de la ressource</text>
</g>
<!-- impact environnemental -->
<g id="node4" class="node">
<title>impact environnemental</title>
<ellipse fill="#fcffa4" stroke="white" stroke-width="0" cx="343.87" cy="-158.36" rx="36" ry="36"/>
<text text-anchor="middle" x="257.87" y="-196.96" font-family="Helvetica,sans-Serif" font-size="8.00" fill="#4d4d4d">impact environnemental</text>
</g>
<!-- emploi -->
<g id="node5" class="node">
<title>emploi</title>
<ellipse fill="#b3325a" stroke="white" stroke-width="0" cx="288.22" cy="-48.55" rx="18" ry="18"/>
<text text-anchor="middle" x="256.22" y="-69.15" font-family="Helvetica,sans-Serif" font-size="8.00" fill="#4d4d4d">emploi</text>
</g>
<!-- économie du pays -->
<g id="node6" class="node">
<title>économie du pays</title>
<ellipse fill="#5d126e" stroke="white" stroke-width="0" cx="308.66" cy="-110.89" rx="11" ry="11"/>
<text text-anchor="middle" x="259.66" y="-124.49" font-family="Helvetica,sans-Serif" font-size="8.00" fill="#4d4d4d">économie du pays</text>
</g>
<!-- amélioration environnementale -->
<g id="node7" class="node">
<title>amélioration environnementale</title>
<ellipse fill="#ae305c" stroke="white" stroke-width="0" cx="217.76" cy="-77.07" rx="18" ry="18"/>
<text text-anchor="middle" x="135.26" y="-97.67" font-family="Helvetica,sans-Serif" font-size="8.00" fill="#4d4d4d">amélioration environnementale</text>
</g>
<!-- montagne -->
<g id="node8" class="node">
<title>montagne</title>
<ellipse fill="#010106" stroke="white" stroke-width="0" cx="139.95" cy="-293.86" rx="0.5" ry="0.5"/>
<text text-anchor="middle" x="117.95" y="-296.96" font-family="Helvetica,sans-Serif" font-size="8.00" fill="#4d4d4d">montagne</text>
</g>
<!-- biodiversité -->
<g id="node9" class="node">
<title>biodiversité</title>
<ellipse fill="#0b0724" stroke="white" stroke-width="0" cx="52.5" cy="-228.65" rx="3.5" ry="3.5"/>
<text text-anchor="middle" x="24.5" y="-234.75" font-family="Helvetica,sans-Serif" font-size="8.00" fill="#4d4d4d">biodiversité</text>
</g>
<!-- développement -->
<g id="node10" class="node">
<title>développement</title>
<ellipse fill="#59106e" stroke="white" stroke-width="0" cx="262.43" cy="-157.55" rx="11" ry="11"/>
<text text-anchor="middle" x="267.93" y="-140.15" font-family="Helvetica,sans-Serif" font-size="8.00" fill="#4d4d4d">développement</text>
</g>
<!-- déclin -->
<g id="node11" class="node">
<title>déclin</title>
<ellipse fill="#0e092b" stroke="white" stroke-width="0" cx="93.12" cy="-167.91" rx="3.5" ry="3.5"/>
<text text-anchor="middle" x="77.12" y="-174.01" font-family="Helvetica,sans-Serif" font-size="8.00" fill="#4d4d4d">déclin</text>
</g>
<!-- développement durable -->
<g id="node12" class="node">
<title>développement durable</title>
<ellipse fill="#470b6a" stroke="white" stroke-width="0" cx="110.54" cy="-77.43" rx="7" ry="7"/>
<text text-anchor="middle" x="54.04" y="-87.03" font-family="Helvetica,sans-Serif" font-size="8.00" fill="#4d4d4d">développement durable</text>
</g>
<!-- innovation -->
<g id="node13" class="node">
<title>innovation</title>
<ellipse fill="#64156e" stroke="white" stroke-width="0" cx="157.39" cy="-11" rx="11" ry="11"/>
<text text-anchor="middle" x="124.39" y="-24.6" font-family="Helvetica,sans-Serif" font-size="8.00" fill="#4d4d4d">innovation</text>
</g>
<!-- conflit -->
<g id="node14" class="node">
<title>conflit</title>
<ellipse fill="#450a69" stroke="white" stroke-width="0" cx="384.68" cy="-276.14" rx="7" ry="7"/>
<text text-anchor="middle" x="364.68" y="-285.74" font-family="Helvetica,sans-Serif" font-size="8.00" fill="#4d4d4d">conflit</text>
</g>
<!-- richesse -->
<g id="node15" class="node">
<title>richesse</title>
<ellipse fill="#000004" stroke="white" stroke-width="0" cx="447.84" cy="-73.38" rx="0.5" ry="0.5"/>
<text text-anchor="middle" x="429.84" y="-76.48" font-family="Helvetica,sans-Serif" font-size="8.00" fill="#4d4d4d">richesse</text>
</g>
<!-- automatisation -->
<g id="node16" class="node">
<title>automatisation</title>
<ellipse fill="#0d0829" stroke="white" stroke-width="0" cx="482.6" cy="-185.69" rx="3.5" ry="3.5"/>
<text text-anchor="middle" x="447.6" y="-191.79" font-family="Helvetica,sans-Serif" font-size="8.00" fill="#4d4d4d">automatisation</text>
</g>
</g>
</svg>
