<?xml version="1.0" encoding="UTF-8" standalone="no"?>
<!DOCTYPE svg PUBLIC "-//W3C//DTD SVG 1.1//EN"
 "http://www.w3.org/Graphics/SVG/1.1/DTD/svg11.dtd">
<!-- Generated by graphviz version 2.43.0 (0)
 -->
<!-- Pages: 1 -->
<svg width="439pt" height="183pt"
 viewBox="0.00 0.00 439.44 183.04" xmlns="http://www.w3.org/2000/svg" xmlns:xlink="http://www.w3.org/1999/xlink">
<g id="graph0" class="graph" transform="scale(1 1) rotate(0) translate(4 179.04)">
<polygon fill="white" stroke="transparent" points="-4,4 -4,-179.04 435.44,-179.04 435.44,4 -4,4"/>
<!-- emploi&#45;&#45;pollution -->
<g id="edge1" class="edge">
<title>emploi&#45;&#45;pollution</title>
<path fill="none" stroke="darkgrey" stroke-width="10" d="M193.95,-86.62C215.23,-86.66 248.05,-86.71 273.24,-86.75"/>
</g>
<!-- emploi&#45;&#45;impact environnemental -->
<g id="edge2" class="edge">
<title>emploi&#45;&#45;impact environnemental</title>
<path fill="none" stroke="darkgrey" stroke-width="4.89" d="M192.49,-79.22C201.44,-75.96 211.86,-72.17 220.4,-69.06"/>
</g>
<!-- emploi&#45;&#45;ressource -->
<g id="edge3" class="edge">
<title>emploi&#45;&#45;ressource</title>
<path fill="none" stroke="darkgrey" stroke-width="1.03" d="M179.74,-106.77C185.4,-122.01 192.83,-142 196.65,-152.28"/>
</g>
<!-- emploi&#45;&#45;économie -->
<g id="edge4" class="edge">
<title>emploi&#45;&#45;économie</title>
<path fill="none" stroke="darkgrey" stroke-width="1.93" d="M190.02,-99.08C210.68,-113.59 243.97,-136.99 259.98,-148.24"/>
</g>
<!-- emploi&#45;&#45;végétalisation -->
<g id="edge5" class="edge">
<title>emploi&#45;&#45;végétalisation</title>
<path fill="none" stroke="darkgrey" stroke-width="1.32" d="M152.12,-78.37C125.14,-67.36 79.12,-48.58 66.05,-43.25"/>
</g>
<!-- pollution&#45;&#45;impact environnemental -->
<g id="edge7" class="edge">
<title>pollution&#45;&#45;impact environnemental</title>
<path fill="none" stroke="darkgrey" stroke-width="5.5" d="M274.99,-75.41C267.9,-73.05 260.72,-70.66 254.56,-68.61"/>
</g>
<!-- pollution&#45;&#45;ressource -->
<g id="edge8" class="edge">
<title>pollution&#45;&#45;ressource</title>
<path fill="none" stroke="darkgrey" d="M278.88,-106.73C253.42,-123.44 219.08,-145.97 205.28,-155.03"/>
</g>
<!-- pollution&#45;&#45;économie -->
<g id="edge10" class="edge">
<title>pollution&#45;&#45;économie</title>
<path fill="none" stroke="darkgrey" stroke-width="7.05" d="M290.85,-117.96C285.01,-127.86 278.97,-138.08 274.76,-145.21"/>
</g>
<!-- pollution&#45;&#45;épuisable -->
<g id="edge6" class="edge">
<title>pollution&#45;&#45;épuisable</title>
<path fill="none" stroke="darkgrey" stroke-width="7.87" d="M339.25,-66.66C360.91,-52.12 389.02,-33.25 404.8,-22.65"/>
</g>
<!-- pollution&#45;&#45;démolition -->
<g id="edge9" class="edge">
<title>pollution&#45;&#45;démolition</title>
<path fill="none" stroke="darkgrey" stroke-width="4.49" d="M343.28,-99.25C370.68,-109.28 405.48,-122.01 410.75,-123.94"/>
</g>
<!-- impact environnemental&#45;&#45;ressource -->
<g id="edge11" class="edge">
<title>impact environnemental&#45;&#45;ressource</title>
<path fill="none" stroke="darkgrey" stroke-width="1.1" d="M230.69,-79.64C222.15,-101.16 207.71,-137.52 201.8,-152.39"/>
</g>
<!-- impact environnemental&#45;&#45;économie -->
<g id="edge12" class="edge">
<title>impact environnemental&#45;&#45;économie</title>
<path fill="none" stroke="darkgrey" stroke-width="2.7" d="M243.33,-80.16C249.85,-98.96 260.06,-128.43 265.49,-144.09"/>
</g>
<!-- emploi -->
<g id="node1" class="node">
<title>emploi</title>
<ellipse fill="#d34743" stroke="white" stroke-width="0" cx="172.24" cy="-86.59" rx="21.5" ry="21.5"/>
<text text-anchor="middle" x="136.74" y="-110.69" font-family="Helvetica,sans-Serif" font-size="8.00" fill="#4d4d4d">emploi</text>
</g>
<!-- pollution -->
<g id="node2" class="node">
<title>pollution</title>
<ellipse fill="#fcffa4" stroke="white" stroke-width="0" cx="309.25" cy="-86.8" rx="36" ry="36"/>
<text text-anchor="middle" x="254.75" y="-125.4" font-family="Helvetica,sans-Serif" font-size="8.00" fill="#4d4d4d">pollution</text>
</g>
<!-- impact environnemental -->
<g id="node3" class="node">
<title>impact environnemental</title>
<ellipse fill="#ab2f5e" stroke="white" stroke-width="0" cx="237.35" cy="-62.89" rx="18" ry="18"/>
<text text-anchor="middle" x="169.35" y="-47.49" font-family="Helvetica,sans-Serif" font-size="8.00" fill="#4d4d4d">impact environnemental</text>
</g>
<!-- ressource -->
<g id="node4" class="node">
<title>ressource</title>
<ellipse fill="#280b53" stroke="white" stroke-width="0" cx="199.16" cy="-159.04" rx="7" ry="7"/>
<text text-anchor="middle" x="172.16" y="-168.64" font-family="Helvetica,sans-Serif" font-size="8.00" fill="#4d4d4d">ressource</text>
</g>
<!-- économie -->
<g id="node5" class="node">
<title>économie</title>
<ellipse fill="#64156e" stroke="white" stroke-width="0" cx="269.16" cy="-154.69" rx="11" ry="11"/>
<text text-anchor="middle" x="237.66" y="-168.29" font-family="Helvetica,sans-Serif" font-size="8.00" fill="#4d4d4d">économie</text>
</g>
<!-- végétalisation -->
<g id="node6" class="node">
<title>végétalisation</title>
<ellipse fill="#1e0c45" stroke="white" stroke-width="0" cx="62.5" cy="-41.8" rx="3.5" ry="3.5"/>
<text text-anchor="middle" x="29.5" y="-47.9" font-family="Helvetica,sans-Serif" font-size="8.00" fill="#4d4d4d">végétalisation</text>
</g>
<!-- épuisable -->
<g id="node7" class="node">
<title>épuisable</title>
<ellipse fill="#7c1d6d" stroke="white" stroke-width="0" cx="416.94" cy="-14.5" rx="14.5" ry="14.5"/>
<text text-anchor="middle" x="381.94" y="-31.6" font-family="Helvetica,sans-Serif" font-size="8.00" fill="#4d4d4d">épuisable</text>
</g>
<!-- démolition -->
<g id="node8" class="node">
<title>démolition</title>
<ellipse fill="#000004" stroke="white" stroke-width="0" cx="411.43" cy="-124.19" rx="0.5" ry="0.5"/>
<text text-anchor="middle" x="388.93" y="-127.29" font-family="Helvetica,sans-Serif" font-size="8.00" fill="#4d4d4d">démolition</text>
</g>
</g>
</svg>
