<?xml version="1.0" encoding="UTF-8" standalone="no"?>
<!DOCTYPE svg PUBLIC "-//W3C//DTD SVG 1.1//EN"
 "http://www.w3.org/Graphics/SVG/1.1/DTD/svg11.dtd">
<!-- Generated by graphviz version 2.43.0 (0)
 -->
<!-- Pages: 1 -->
<svg width="1335pt" height="547pt"
 viewBox="0.00 0.00 1335.26 546.82" xmlns="http://www.w3.org/2000/svg" xmlns:xlink="http://www.w3.org/1999/xlink">
<g id="graph0" class="graph" transform="scale(1 1) rotate(0) translate(4 542.82)">
<polygon fill="white" stroke="transparent" points="-4,4 -4,-542.82 1331.26,-542.82 1331.26,4 -4,4"/>
<!-- pollution&#45;&#45;emploi -->
<g id="edge1" class="edge">
<title>pollution&#45;&#45;emploi</title>
<path fill="none" stroke="darkgrey" stroke-width="6.36" d="M554.07,-351.86C526.38,-330.72 465.72,-284.42 435.87,-261.63"/>
</g>
<!-- pollution&#45;&#45;économie du pays -->
<g id="edge2" class="edge">
<title>pollution&#45;&#45;économie du pays</title>
<path fill="none" stroke="darkgrey" stroke-width="3.39" d="M555.6,-375.55C529.9,-400.99 472.83,-457.48 451.93,-478.18"/>
</g>
<!-- pollution&#45;&#45;impact environnemental -->
<g id="edge3" class="edge">
<title>pollution&#45;&#45;impact environnemental</title>
<path fill="none" stroke="darkgrey" stroke-width="10" d="M552.2,-354.76C535.42,-346.43 508.77,-333.19 487.63,-322.69"/>
</g>
<!-- pollution&#45;&#45;conflit -->
<g id="edge4" class="edge">
<title>pollution&#45;&#45;conflit</title>
<path fill="none" stroke="darkgrey" stroke-width="1.28" d="M552.2,-370.89C501.57,-395.99 348.03,-472.12 315.05,-488.47"/>
</g>
<!-- pollution&#45;&#45;revenu -->
<g id="edge5" class="edge">
<title>pollution&#45;&#45;revenu</title>
<path fill="none" stroke="darkgrey" stroke-width="1.03" d="M566.51,-380.95C562.52,-418.53 553.52,-503.05 551.47,-522.35"/>
</g>
<!-- pollution&#45;&#45;nickel -->
<g id="edge6" class="edge">
<title>pollution&#45;&#45;nickel</title>
<path fill="none" stroke="darkgrey" stroke-width="2.79" d="M586.23,-359.51C616,-353.95 675.82,-342.79 707.72,-336.83"/>
</g>
<!-- pollution&#45;&#45;exploitation -->
<g id="edge7" class="edge">
<title>pollution&#45;&#45;exploitation</title>
<path fill="none" stroke="darkgrey" stroke-width="1.05" d="M573.35,-345.37C586.15,-299.77 620.31,-178.13 630.67,-141.23"/>
</g>
<!-- pollution&#45;&#45;montagne -->
<g id="edge8" class="edge">
<title>pollution&#45;&#45;montagne</title>
<path fill="none" stroke="darkgrey" stroke-width="1.43" d="M582.59,-374.35C617.63,-402.9 706.93,-475.65 724.71,-490.13"/>
</g>
<!-- pollution&#45;&#45;développement -->
<g id="edge9" class="edge">
<title>pollution&#45;&#45;développement</title>
<path fill="none" stroke="darkgrey" stroke-width="1.41" d="M550.02,-362.16C479.88,-359.6 232.69,-350.57 217.31,-350.01"/>
</g>
<!-- pollution&#45;&#45;engin -->
<g id="edge10" class="edge">
<title>pollution&#45;&#45;engin</title>
<path fill="none" stroke="darkgrey" stroke-width="1.58" d="M580.31,-348.85C612.4,-311.07 700.16,-207.7 726.16,-177.08"/>
</g>
<!-- pollution&#45;&#45;terre -->
<g id="edge11" class="edge">
<title>pollution&#45;&#45;terre</title>
<path fill="none" stroke="darkgrey" stroke-width="1.11" d="M571.86,-345.1C578.14,-312.57 591.23,-244.68 595.45,-222.79"/>
</g>
<!-- pollution&#45;&#45;usine -->
<g id="edge12" class="edge">
<title>pollution&#45;&#45;usine</title>
<path fill="none" stroke="darkgrey" stroke-width="1.1" d="M586.25,-359.94C651.2,-349.4 874.35,-313.2 926.6,-304.72"/>
</g>
<!-- emploi&#45;&#45;économie du pays -->
<g id="edge13" class="edge">
<title>emploi&#45;&#45;économie du pays</title>
<path fill="none" stroke="darkgrey" stroke-width="5.28" d="M420.88,-269.93C426.15,-319.04 438.92,-438.04 442.87,-474.9"/>
</g>
<!-- emploi&#45;&#45;impact environnemental -->
<g id="edge15" class="edge">
<title>emploi&#45;&#45;impact environnemental</title>
<path fill="none" stroke="darkgrey" stroke-width="6.5" d="M430.12,-266.8C431.95,-269.73 433.89,-272.82 435.85,-275.93"/>
</g>
<!-- emploi&#45;&#45;conflit -->
<g id="edge16" class="edge">
<title>emploi&#45;&#45;conflit</title>
<path fill="none" stroke="darkgrey" stroke-width="2.39" d="M409.59,-268.33C386.54,-319.37 326.12,-453.15 311.83,-484.8"/>
</g>
<!-- emploi&#45;&#45;revenu -->
<g id="edge17" class="edge">
<title>emploi&#45;&#45;revenu</title>
<path fill="none" stroke="darkgrey" stroke-width="2.42" d="M427.89,-267.97C455.69,-326.28 536.9,-496.64 549.42,-522.9"/>
</g>
<!-- emploi&#45;&#45;nickel -->
<g id="edge18" class="edge">
<title>emploi&#45;&#45;nickel</title>
<path fill="none" stroke="darkgrey" stroke-width="4.16" d="M439.42,-254.1C495.95,-269.49 651.71,-311.88 708.13,-327.23"/>
</g>
<!-- emploi&#45;&#45;exploitation -->
<g id="edge19" class="edge">
<title>emploi&#45;&#45;exploitation</title>
<path fill="none" stroke="darkgrey" stroke-width="1.39" d="M437.67,-237.96C481.88,-213.71 590.09,-154.37 623.62,-135.99"/>
</g>
<!-- emploi&#45;&#45;terre -->
<g id="edge20" class="edge">
<title>emploi&#45;&#45;terre</title>
<path fill="none" stroke="darkgrey" stroke-width="1.11" d="M440.07,-244.5C480.25,-237.15 564.93,-221.66 589.79,-217.11"/>
</g>
<!-- emploi&#45;&#45;richesse -->
<g id="edge14" class="edge">
<title>emploi&#45;&#45;richesse</title>
<path fill="none" stroke="darkgrey" stroke-width="1.91" d="M399.69,-237.35C347.62,-206.8 204.29,-122.7 181.12,-109.11"/>
</g>
<!-- emploi&#45;&#45;vision positive de la ressource -->
<g id="edge21" class="edge">
<title>emploi&#45;&#45;vision positive de la ressource</title>
<path fill="none" stroke="darkgrey" d="M417.49,-226.69C414.75,-172.13 407.73,-32 406.5,-7.26"/>
</g>
<!-- économie du pays&#45;&#45;impact environnemental -->
<g id="edge22" class="edge">
<title>économie du pays&#45;&#45;impact environnemental</title>
<path fill="none" stroke="darkgrey" stroke-width="6.21" d="M444.75,-474.75C446.33,-448.81 450.32,-383.79 452.84,-342.6"/>
</g>
<!-- économie du pays&#45;&#45;conflit -->
<g id="edge23" class="edge">
<title>économie du pays&#45;&#45;conflit</title>
<path fill="none" stroke="darkgrey" stroke-width="1.31" d="M432.99,-486.43C406.1,-487.55 337.96,-490.37 315.82,-491.29"/>
</g>
<!-- économie du pays&#45;&#45;nickel -->
<g id="edge24" class="edge">
<title>économie du pays&#45;&#45;nickel</title>
<path fill="none" stroke="darkgrey" stroke-width="1.63" d="M453.86,-480.7C495.04,-458.57 654.45,-372.89 709.81,-343.13"/>
</g>
<!-- impact environnemental&#45;&#45;conflit -->
<g id="edge26" class="edge">
<title>impact environnemental&#45;&#45;conflit</title>
<path fill="none" stroke="darkgrey" stroke-width="1.61" d="M432.51,-335.02C397.25,-379.63 331.2,-463.2 313.32,-485.82"/>
</g>
<!-- impact environnemental&#45;&#45;revenu -->
<g id="edge27" class="edge">
<title>impact environnemental&#45;&#45;revenu</title>
<path fill="none" stroke="darkgrey" stroke-width="1.29" d="M469.63,-339.89C493.86,-395.38 540.65,-502.52 549.56,-522.92"/>
</g>
<!-- impact environnemental&#45;&#45;nickel -->
<g id="edge28" class="edge">
<title>impact environnemental&#45;&#45;nickel</title>
<path fill="none" stroke="darkgrey" stroke-width="3.91" d="M491.13,-309.98C548.93,-315.55 660.53,-326.3 707.37,-330.81"/>
</g>
<!-- impact environnemental&#45;&#45;exploitation -->
<g id="edge30" class="edge">
<title>impact environnemental&#45;&#45;exploitation</title>
<path fill="none" stroke="darkgrey" stroke-width="3.58" d="M481.02,-280.91C522.25,-240.28 600.56,-163.11 625.71,-138.34"/>
</g>
<!-- impact environnemental&#45;&#45;montagne -->
<g id="edge31" class="edge">
<title>impact environnemental&#45;&#45;montagne</title>
<path fill="none" stroke="darkgrey" stroke-width="1.88" d="M485.02,-326.96C550.34,-371.54 701.57,-474.74 724.8,-490.6"/>
</g>
<!-- impact environnemental&#45;&#45;développement -->
<g id="edge32" class="edge">
<title>impact environnemental&#45;&#45;développement</title>
<path fill="none" stroke="darkgrey" stroke-width="1.56" d="M419.6,-312.96C356.28,-324.51 229.21,-347.67 217.43,-349.82"/>
</g>
<!-- impact environnemental&#45;&#45;engin -->
<g id="edge33" class="edge">
<title>impact environnemental&#45;&#45;engin</title>
<path fill="none" stroke="darkgrey" stroke-width="2.29" d="M487.54,-290.39C550.37,-259.23 685.71,-192.13 723.52,-173.38"/>
</g>
<!-- impact environnemental&#45;&#45;terre -->
<g id="edge35" class="edge">
<title>impact environnemental&#45;&#45;terre</title>
<path fill="none" stroke="darkgrey" stroke-width="1.23" d="M485.46,-287.05C519.79,-265.09 573.16,-230.95 590.87,-219.62"/>
</g>
<!-- impact environnemental&#45;&#45;vision positive de la ressource -->
<g id="edge36" class="edge">
<title>impact environnemental&#45;&#45;vision positive de la ressource</title>
<path fill="none" stroke="darkgrey" stroke-width="1.41" d="M449.31,-270.85C437.49,-197.33 411.13,-33.5 406.89,-7.12"/>
</g>
<!-- impact environnemental&#45;&#45;milieu -->
<g id="edge29" class="edge">
<title>impact environnemental&#45;&#45;milieu</title>
<path fill="none" stroke="darkgrey" stroke-width="1.19" d="M419.9,-314.5C320.51,-337.1 43.55,-400.1 26.34,-404.01"/>
</g>
<!-- impact environnemental&#45;&#45;minerai -->
<g id="edge34" class="edge">
<title>impact environnemental&#45;&#45;minerai</title>
<path fill="none" stroke="darkgrey" stroke-width="1.43" d="M490.38,-299.42C565.48,-284.36 738.27,-249.72 789.18,-239.52"/>
</g>
<!-- revenu&#45;&#45;nickel -->
<g id="edge37" class="edge">
<title>revenu&#45;&#45;nickel</title>
<path fill="none" stroke="darkgrey" stroke-width="1.61" d="M553.56,-523.58C571.08,-504.53 675.38,-391.07 714.27,-348.77"/>
</g>
<!-- nickel&#45;&#45;exploitation -->
<g id="edge38" class="edge">
<title>nickel&#45;&#45;exploitation</title>
<path fill="none" stroke="darkgrey" stroke-width="1.75" d="M719.58,-313.1C699.65,-270.73 653.43,-172.43 638.46,-140.61"/>
</g>
<!-- nickel&#45;&#45;montagne -->
<g id="edge39" class="edge">
<title>nickel&#45;&#45;montagne</title>
<path fill="none" stroke="darkgrey" stroke-width="1.07" d="M728.74,-354.43C728.48,-392.93 727.96,-471.18 727.84,-488.99"/>
</g>
<!-- nickel&#45;&#45;engin -->
<g id="edge40" class="edge">
<title>nickel&#45;&#45;engin</title>
<path fill="none" stroke="darkgrey" stroke-width="2.45" d="M729.49,-311.38C730.48,-276.03 732.43,-206.86 733.19,-179.73"/>
</g>
<!-- nickel&#45;&#45;terre -->
<g id="edge42" class="edge">
<title>nickel&#45;&#45;terre</title>
<path fill="none" stroke="darkgrey" stroke-width="2.13" d="M712.68,-318.53C682.93,-292.16 620.88,-237.18 602.22,-220.64"/>
</g>
<!-- nickel&#45;&#45;usine -->
<g id="edge43" class="edge">
<title>nickel&#45;&#45;usine</title>
<path fill="none" stroke="darkgrey" stroke-width="3.6" d="M750.43,-329.79C794.39,-323.48 893.04,-309.33 926.36,-304.55"/>
</g>
<!-- nickel&#45;&#45;minerai -->
<g id="edge41" class="edge">
<title>nickel&#45;&#45;minerai</title>
<path fill="none" stroke="darkgrey" stroke-width="3.59" d="M742.23,-315.67C757.33,-296.21 781.51,-265.04 794.53,-248.25"/>
</g>
<!-- nickel&#45;&#45;opérateur minier -->
<g id="edge44" class="edge">
<title>nickel&#45;&#45;opérateur minier</title>
<path fill="none" stroke="darkgrey" stroke-width="2.61" d="M750.15,-337.4C818.28,-351.88 1029.57,-396.79 1079.74,-407.45"/>
</g>
<!-- nickel&#45;&#45;ressource non&#45;renouvelable -->
<g id="edge45" class="edge">
<title>nickel&#45;&#45;ressource non&#45;renouvelable</title>
<path fill="none" stroke="darkgrey" stroke-width="1.54" d="M745.63,-318.76C801.9,-271.33 982.08,-119.43 1007.14,-98.31"/>
</g>
<!-- exploitation&#45;&#45;engin -->
<g id="edge46" class="edge">
<title>exploitation&#45;&#45;engin</title>
<path fill="none" stroke="darkgrey" stroke-width="1.07" d="M644,-134.39C663.13,-141.66 703.91,-157.17 723.11,-164.47"/>
</g>
<!-- exploitation&#45;&#45;usine -->
<g id="edge48" class="edge">
<title>exploitation&#45;&#45;usine</title>
<path fill="none" stroke="darkgrey" stroke-width="1.19" d="M643.46,-136.01C689.28,-162.01 882.61,-271.72 928.03,-297.5"/>
</g>
<!-- exploitation&#45;&#45;vision positive de la ressource -->
<g id="edge49" class="edge">
<title>exploitation&#45;&#45;vision positive de la ressource</title>
<path fill="none" stroke="darkgrey" stroke-width="1.01" d="M623.92,-125.01C583.97,-102.7 433.99,-18.96 409.65,-5.37"/>
</g>
<!-- exploitation&#45;&#45;minerai -->
<g id="edge47" class="edge">
<title>exploitation&#45;&#45;minerai</title>
<path fill="none" stroke="darkgrey" stroke-width="2.64" d="M643.31,-136.48C672.22,-154.55 758.36,-208.39 790.9,-228.74"/>
</g>
<!-- montagne&#45;&#45;minerai -->
<g id="edge50" class="edge">
<title>montagne&#45;&#45;minerai</title>
<path fill="none" stroke="darkgrey" stroke-width="1.18" d="M728.89,-489.04C736.69,-462.66 784.9,-299.65 799.41,-250.59"/>
</g>
<!-- engin&#45;&#45;terre -->
<g id="edge52" class="edge">
<title>engin&#45;&#45;terre</title>
<path fill="none" stroke="darkgrey" stroke-width="1.46" d="M722.78,-172.15C695.84,-181.49 625.9,-205.74 603.68,-213.44"/>
</g>
<!-- engin&#45;&#45;usine -->
<g id="edge53" class="edge">
<title>engin&#45;&#45;usine</title>
<path fill="none" stroke="darkgrey" stroke-width="1.38" d="M742.81,-174.56C776.81,-196.96 894.16,-274.3 928.25,-296.77"/>
</g>
<!-- engin&#45;&#45;minerai -->
<g id="edge51" class="edge">
<title>engin&#45;&#45;minerai</title>
<path fill="none" stroke="darkgrey" stroke-width="1.83" d="M741.54,-176.25C754.19,-188.57 778.75,-212.49 792.87,-226.24"/>
</g>
<!-- usine&#45;&#45;opérateur minier -->
<g id="edge57" class="edge">
<title>usine&#45;&#45;opérateur minier</title>
<path fill="none" stroke="darkgrey" stroke-width="2.93" d="M946.71,-309.3C973.84,-328.25 1053.94,-384.19 1081.25,-403.28"/>
</g>
<!-- usine&#45;&#45;localité -->
<g id="edge58" class="edge">
<title>usine&#45;&#45;localité</title>
<path fill="none" stroke="darkgrey" stroke-width="1.28" d="M948.42,-305.38C1009.8,-319.27 1312.11,-387.68 1326.25,-390.88"/>
</g>
<!-- richesse&#45;&#45;impact environnemental -->
<g id="edge25" class="edge">
<title>richesse&#45;&#45;impact environnemental</title>
<path fill="none" stroke="darkgrey" stroke-width="1.88" d="M181.06,-109.48C204.9,-126.63 359.46,-237.77 425.36,-285.15"/>
</g>
<!-- minerai&#45;&#45;terre -->
<g id="edge54" class="edge">
<title>minerai&#45;&#45;terre</title>
<path fill="none" stroke="darkgrey" stroke-width="1.01" d="M789,-235.17C748.19,-231.07 633.62,-219.54 603.91,-216.55"/>
</g>
<!-- minerai&#45;&#45;usine -->
<g id="edge55" class="edge">
<title>minerai&#45;&#45;usine</title>
<path fill="none" stroke="darkgrey" stroke-width="2.14" d="M816.89,-243.24C843.78,-256.53 903.93,-286.28 927.68,-298.03"/>
</g>
<!-- minerai&#45;&#45;ressource non&#45;renouvelable -->
<g id="edge56" class="edge">
<title>minerai&#45;&#45;ressource non&#45;renouvelable</title>
<path fill="none" stroke="darkgrey" stroke-width="1.13" d="M815.54,-228.46C855.99,-200.88 986.08,-112.2 1007.15,-97.83"/>
</g>
<!-- pollution -->
<g id="node1" class="node">
<title>pollution</title>
<ellipse fill="#c63d4d" stroke="white" stroke-width="0" cx="568.44" cy="-362.83" rx="18" ry="18"/>
<text text-anchor="middle" x="531.94" y="-383.43" font-family="Helvetica,sans-Serif" font-size="8.00" fill="#4d4d4d">pollution</text>
</g>
<!-- emploi -->
<g id="node2" class="node">
<title>emploi</title>
<ellipse fill="#e05536" stroke="white" stroke-width="0" cx="418.58" cy="-248.43" rx="21.5" ry="21.5"/>
<text text-anchor="middle" x="383.08" y="-272.53" font-family="Helvetica,sans-Serif" font-size="8.00" fill="#4d4d4d">emploi</text>
</g>
<!-- économie du pays -->
<g id="node3" class="node">
<title>économie du pays</title>
<ellipse fill="#6f196e" stroke="white" stroke-width="0" cx="444.06" cy="-485.97" rx="11" ry="11"/>
<text text-anchor="middle" x="395.06" y="-499.57" font-family="Helvetica,sans-Serif" font-size="8.00" fill="#4d4d4d">économie du pays</text>
</g>
<!-- impact environnemental -->
<g id="node4" class="node">
<title>impact environnemental</title>
<ellipse fill="#fcffa4" stroke="white" stroke-width="0" cx="455.05" cy="-306.5" rx="36" ry="36"/>
<text text-anchor="middle" x="369.05" y="-345.1" font-family="Helvetica,sans-Serif" font-size="8.00" fill="#4d4d4d">impact environnemental</text>
</g>
<!-- conflit -->
<g id="node5" class="node">
<title>conflit</title>
<ellipse fill="#390963" stroke="white" stroke-width="0" cx="308.76" cy="-491.59" rx="7" ry="7"/>
<text text-anchor="middle" x="288.76" y="-501.19" font-family="Helvetica,sans-Serif" font-size="8.00" fill="#4d4d4d">conflit</text>
</g>
<!-- revenu -->
<g id="node6" class="node">
<title>revenu</title>
<ellipse fill="#230c4c" stroke="white" stroke-width="0" cx="551.04" cy="-526.32" rx="3.5" ry="3.5"/>
<text text-anchor="middle" x="533.54" y="-532.42" font-family="Helvetica,sans-Serif" font-size="8.00" fill="#4d4d4d">revenu</text>
</g>
<!-- nickel -->
<g id="node7" class="node">
<title>nickel</title>
<ellipse fill="#d44842" stroke="white" stroke-width="0" cx="728.88" cy="-332.88" rx="21.5" ry="21.5"/>
<text text-anchor="middle" x="695.38" y="-356.98" font-family="Helvetica,sans-Serif" font-size="8.00" fill="#4d4d4d">nickel</text>
</g>
<!-- exploitation -->
<g id="node8" class="node">
<title>exploitation</title>
<ellipse fill="#62146e" stroke="white" stroke-width="0" cx="633.69" cy="-130.47" rx="11" ry="11"/>
<text text-anchor="middle" x="598.19" y="-144.07" font-family="Helvetica,sans-Serif" font-size="8.00" fill="#4d4d4d">exploitation</text>
</g>
<!-- montagne -->
<g id="node9" class="node">
<title>montagne</title>
<ellipse fill="#140b34" stroke="white" stroke-width="0" cx="727.82" cy="-492.66" rx="3.5" ry="3.5"/>
<text text-anchor="middle" x="702.82" y="-498.76" font-family="Helvetica,sans-Serif" font-size="8.00" fill="#4d4d4d">montagne</text>
</g>
<!-- développement -->
<g id="node10" class="node">
<title>développement</title>
<ellipse fill="#030210" stroke="white" stroke-width="0" cx="216.56" cy="-349.98" rx="0.5" ry="0.5"/>
<text text-anchor="middle" x="183.56" y="-353.08" font-family="Helvetica,sans-Serif" font-size="8.00" fill="#4d4d4d">développement</text>
</g>
<!-- engin -->
<g id="node11" class="node">
<title>engin</title>
<ellipse fill="#550f6d" stroke="white" stroke-width="0" cx="733.51" cy="-168.43" rx="11" ry="11"/>
<text text-anchor="middle" x="710.51" y="-182.03" font-family="Helvetica,sans-Serif" font-size="8.00" fill="#4d4d4d">engin</text>
</g>
<!-- terre -->
<g id="node12" class="node">
<title>terre</title>
<ellipse fill="#3e0966" stroke="white" stroke-width="0" cx="596.8" cy="-215.83" rx="7" ry="7"/>
<text text-anchor="middle" x="580.3" y="-225.43" font-family="Helvetica,sans-Serif" font-size="8.00" fill="#4d4d4d">terre</text>
</g>
<!-- usine -->
<g id="node13" class="node">
<title>usine</title>
<ellipse fill="#67166e" stroke="white" stroke-width="0" cx="937.61" cy="-302.93" rx="11" ry="11"/>
<text text-anchor="middle" x="915.11" y="-316.53" font-family="Helvetica,sans-Serif" font-size="8.00" fill="#4d4d4d">usine</text>
</g>
<!-- richesse -->
<g id="node14" class="node">
<title>richesse</title>
<ellipse fill="#1b0c41" stroke="white" stroke-width="0" cx="177.94" cy="-107.24" rx="3.5" ry="3.5"/>
<text text-anchor="middle" x="156.94" y="-113.34" font-family="Helvetica,sans-Serif" font-size="8.00" fill="#4d4d4d">richesse</text>
</g>
<!-- vision positive de la ressource -->
<g id="node15" class="node">
<title>vision positive de la ressource</title>
<ellipse fill="#0d0829" stroke="white" stroke-width="0" cx="406.31" cy="-3.5" rx="3.5" ry="3.5"/>
<text text-anchor="middle" x="340.81" y="-9.6" font-family="Helvetica,sans-Serif" font-size="8.00" fill="#4d4d4d">vision positive de la ressource</text>
</g>
<!-- milieu -->
<g id="node16" class="node">
<title>milieu</title>
<ellipse fill="#010005" stroke="white" stroke-width="0" cx="25.5" cy="-404.2" rx="0.5" ry="0.5"/>
<text text-anchor="middle" x="12.5" y="-407.3" font-family="Helvetica,sans-Serif" font-size="8.00" fill="#4d4d4d">milieu</text>
</g>
<!-- minerai -->
<g id="node17" class="node">
<title>minerai</title>
<ellipse fill="#9a2865" stroke="white" stroke-width="0" cx="803.54" cy="-236.64" rx="14.5" ry="14.5"/>
<text text-anchor="middle" x="773.54" y="-253.74" font-family="Helvetica,sans-Serif" font-size="8.00" fill="#4d4d4d">minerai</text>
</g>
<!-- opérateur minier -->
<g id="node18" class="node">
<title>opérateur minier</title>
<ellipse fill="#57106e" stroke="white" stroke-width="0" cx="1090.51" cy="-409.74" rx="11" ry="11"/>
<text text-anchor="middle" x="1045.01" y="-423.34" font-family="Helvetica,sans-Serif" font-size="8.00" fill="#4d4d4d">opérateur minier</text>
</g>
<!-- ressource non&#45;renouvelable -->
<g id="node19" class="node">
<title>ressource non&#45;renouvelable</title>
<ellipse fill="#08051d" stroke="white" stroke-width="0" cx="1010.05" cy="-95.86" rx="3.5" ry="3.5"/>
<text text-anchor="middle" x="949.05" y="-101.96" font-family="Helvetica,sans-Serif" font-size="8.00" fill="#4d4d4d">ressource non&#45;renouvelable</text>
</g>
<!-- localité -->
<g id="node20" class="node">
<title>localité</title>
<ellipse fill="#000004" stroke="white" stroke-width="0" cx="1326.76" cy="-390.99" rx="0.5" ry="0.5"/>
<text text-anchor="middle" x="1310.76" y="-394.09" font-family="Helvetica,sans-Serif" font-size="8.00" fill="#4d4d4d">localité</text>
</g>
</g>
</svg>
