<?xml version="1.0" encoding="UTF-8" standalone="no"?>
<!DOCTYPE svg PUBLIC "-//W3C//DTD SVG 1.1//EN"
 "http://www.w3.org/Graphics/SVG/1.1/DTD/svg11.dtd">
<!-- Generated by graphviz version 2.43.0 (0)
 -->
<!-- Pages: 1 -->
<svg width="877pt" height="564pt"
 viewBox="0.00 0.00 876.82 564.10" xmlns="http://www.w3.org/2000/svg" xmlns:xlink="http://www.w3.org/1999/xlink">
<g id="graph0" class="graph" transform="scale(1 1) rotate(0) translate(4 560.1)">
<polygon fill="white" stroke="transparent" points="-4,4 -4,-560.1 872.82,-560.1 872.82,4 -4,4"/>
<!-- pollution&#45;&#45;emploi -->
<g id="edge1" class="edge">
<title>pollution&#45;&#45;emploi</title>
<path fill="none" stroke="darkgrey" stroke-width="10" d="M496.22,-284.48C498.65,-288.12 501.18,-291.92 503.68,-295.66"/>
</g>
<!-- pollution&#45;&#45;richesse -->
<g id="edge2" class="edge">
<title>pollution&#45;&#45;richesse</title>
<path fill="none" stroke="darkgrey" stroke-width="2.01" d="M482.92,-289.07C487.93,-337.28 497.74,-431.73 501.1,-464.12"/>
</g>
<!-- pollution&#45;&#45;démolition -->
<g id="edge3" class="edge">
<title>pollution&#45;&#45;démolition</title>
<path fill="none" stroke="darkgrey" stroke-width="3.07" d="M508.56,-265.93C574.44,-279.48 733.73,-312.24 768.98,-319.49"/>
</g>
<!-- pollution&#45;&#45;argent -->
<g id="edge4" class="edge">
<title>pollution&#45;&#45;argent</title>
<path fill="none" stroke="darkgrey" stroke-width="1.95" d="M459.99,-281.38C419.07,-325.27 327.48,-423.5 305.22,-447.37"/>
</g>
<!-- pollution&#45;&#45;nickel -->
<g id="edge5" class="edge">
<title>pollution&#45;&#45;nickel</title>
<path fill="none" stroke="darkgrey" stroke-width="5.2" d="M453.46,-272.59C437.13,-280.35 416.14,-290.31 399.23,-298.34"/>
</g>
<!-- pollution&#45;&#45;exploitation -->
<g id="edge6" class="edge">
<title>pollution&#45;&#45;exploitation</title>
<path fill="none" stroke="darkgrey" stroke-width="1.85" d="M499.1,-238.1C515.48,-219.4 538.35,-193.27 551.18,-178.61"/>
</g>
<!-- pollution&#45;&#45;montagne -->
<g id="edge7" class="edge">
<title>pollution&#45;&#45;montagne</title>
<path fill="none" stroke="darkgrey" stroke-width="1.39" d="M453.54,-247.8C390.54,-218.56 234.04,-145.92 200.56,-130.38"/>
</g>
<!-- pollution&#45;&#45;camion -->
<g id="edge8" class="edge">
<title>pollution&#45;&#45;camion</title>
<path fill="none" stroke="darkgrey" stroke-width="2.15" d="M452.66,-249.63C412.75,-234.4 340.21,-206.71 313.4,-196.47"/>
</g>
<!-- pollution&#45;&#45;économie -->
<g id="edge9" class="edge">
<title>pollution&#45;&#45;économie</title>
<path fill="none" stroke="darkgrey" stroke-width="4.81" d="M496.64,-283.99C521.53,-319.64 567.58,-385.57 588.11,-414.97"/>
</g>
<!-- pollution&#45;&#45;impact environnemental -->
<g id="edge10" class="edge">
<title>pollution&#45;&#45;impact environnemental</title>
<path fill="none" stroke="darkgrey" stroke-width="4.35" d="M506.44,-271.8C540.34,-286.83 598,-312.38 626.24,-324.9"/>
</g>
<!-- pollution&#45;&#45;terre -->
<g id="edge11" class="edge">
<title>pollution&#45;&#45;terre</title>
<path fill="none" stroke="darkgrey" stroke-width="1.34" d="M470.08,-287.55C455.4,-328.68 428.58,-403.82 420.36,-426.83"/>
</g>
<!-- pollution&#45;&#45;usine -->
<g id="edge12" class="edge">
<title>pollution&#45;&#45;usine</title>
<path fill="none" stroke="darkgrey" stroke-width="1.33" d="M461.99,-237.01C441.82,-211.1 410.38,-170.68 398.86,-155.89"/>
</g>
<!-- pollution&#45;&#45;ressource -->
<g id="edge13" class="edge">
<title>pollution&#45;&#45;ressource</title>
<path fill="none" stroke="darkgrey" stroke-width="1.04" d="M485.49,-231.3C492.82,-193.61 505.24,-129.77 509.37,-108.49"/>
</g>
<!-- pollution&#45;&#45;conflit -->
<g id="edge14" class="edge">
<title>pollution&#45;&#45;conflit</title>
<path fill="none" stroke="darkgrey" stroke-width="1.47" d="M506.47,-247.28C565.78,-218.81 705.63,-151.68 729.23,-140.35"/>
</g>
<!-- pollution&#45;&#45;développement -->
<g id="edge15" class="edge">
<title>pollution&#45;&#45;développement</title>
<path fill="none" stroke="darkgrey" stroke-width="1.74" d="M479.76,-231.02C479.44,-165.94 478.67,-13.07 478.61,-1.23"/>
</g>
<!-- pollution&#45;&#45;minerai -->
<g id="edge16" class="edge">
<title>pollution&#45;&#45;minerai</title>
<path fill="none" stroke="darkgrey" stroke-width="1.16" d="M467.32,-233.64C444.89,-186.62 399.2,-90.82 386.8,-64.8"/>
</g>
<!-- pollution&#45;&#45;déforestation -->
<g id="edge17" class="edge">
<title>pollution&#45;&#45;déforestation</title>
<path fill="none" stroke="darkgrey" stroke-width="1.88" d="M471.21,-287.92C451.05,-352.53 402.27,-508.92 394.4,-534.14"/>
</g>
<!-- emploi&#45;&#45;richesse -->
<g id="edge18" class="edge">
<title>emploi&#45;&#45;richesse</title>
<path fill="none" stroke="darkgrey" stroke-width="3.4" d="M518.57,-361.53C513.79,-394.9 506.95,-442.64 503.88,-464.11"/>
</g>
<!-- emploi&#45;&#45;démolition -->
<g id="edge19" class="edge">
<title>emploi&#45;&#45;démolition</title>
<path fill="none" stroke="darkgrey" stroke-width="1.73" d="M559.85,-325C620.34,-323.86 738.43,-321.63 768.73,-321.06"/>
</g>
<!-- emploi&#45;&#45;argent -->
<g id="edge20" class="edge">
<title>emploi&#45;&#45;argent</title>
<path fill="none" stroke="darkgrey" stroke-width="2.93" d="M492.17,-343.61C438.76,-373.96 333.68,-433.69 306.7,-449.02"/>
</g>
<!-- emploi&#45;&#45;nickel -->
<g id="edge21" class="edge">
<title>emploi&#45;&#45;nickel</title>
<path fill="none" stroke="darkgrey" stroke-width="6.5" d="M487.55,-322.58C461.65,-320.36 427.05,-317.4 402.01,-315.25"/>
</g>
<!-- emploi&#45;&#45;exploitation -->
<g id="edge22" class="edge">
<title>emploi&#45;&#45;exploitation</title>
<path fill="none" stroke="darkgrey" stroke-width="1.69" d="M531.97,-290.58C540.01,-256.35 551.85,-206.02 557.57,-181.69"/>
</g>
<!-- emploi&#45;&#45;camion -->
<g id="edge23" class="edge">
<title>emploi&#45;&#45;camion</title>
<path fill="none" stroke="darkgrey" stroke-width="1.24" d="M492.57,-306.89C441.73,-276.21 343.47,-216.91 312.6,-198.28"/>
</g>
<!-- emploi&#45;&#45;économie -->
<g id="edge24" class="edge">
<title>emploi&#45;&#45;économie</title>
<path fill="none" stroke="darkgrey" stroke-width="7.14" d="M544.73,-354.96C558.81,-374.56 576.74,-399.54 587.91,-415.1"/>
</g>
<!-- emploi&#45;&#45;impact environnemental -->
<g id="edge25" class="edge">
<title>emploi&#45;&#45;impact environnemental</title>
<path fill="none" stroke="darkgrey" stroke-width="5.62" d="M559.77,-327.67C581.27,-328.86 607.64,-330.31 624.81,-331.26"/>
</g>
<!-- emploi&#45;&#45;terre -->
<g id="edge26" class="edge">
<title>emploi&#45;&#45;terre</title>
<path fill="none" stroke="darkgrey" stroke-width="1.32" d="M498.37,-351.56C473.18,-377.28 436.43,-414.8 423.03,-428.48"/>
</g>
<!-- emploi&#45;&#45;usine -->
<g id="edge27" class="edge">
<title>emploi&#45;&#45;usine</title>
<path fill="none" stroke="darkgrey" stroke-width="1.07" d="M502.07,-296.31C470.74,-253.78 414.72,-177.74 398.79,-156.1"/>
</g>
<!-- emploi&#45;&#45;ressource -->
<g id="edge29" class="edge">
<title>emploi&#45;&#45;ressource</title>
<path fill="none" stroke="darkgrey" stroke-width="1.47" d="M521.63,-289.64C518.5,-235.39 512.77,-136.16 511.18,-108.61"/>
</g>
<!-- emploi&#45;&#45;conflit -->
<g id="edge30" class="edge">
<title>emploi&#45;&#45;conflit</title>
<path fill="none" stroke="darkgrey" stroke-width="2.52" d="M550.6,-301.62C602.17,-255.46 711.56,-157.57 729.98,-141.09"/>
</g>
<!-- emploi&#45;&#45;déforestation -->
<g id="edge31" class="edge">
<title>emploi&#45;&#45;déforestation</title>
<path fill="none" stroke="darkgrey" stroke-width="1.35" d="M504.75,-356.5C471.98,-409.76 407.09,-515.22 395.21,-534.53"/>
</g>
<!-- emploi&#45;&#45;sln -->
<g id="edge28" class="edge">
<title>emploi&#45;&#45;sln</title>
<path fill="none" stroke="darkgrey" stroke-width="1.04" d="M528.43,-361.5C534.94,-410.89 546.25,-496.64 549.54,-521.62"/>
</g>
<!-- richesse&#45;&#45;nickel -->
<g id="edge32" class="edge">
<title>richesse&#45;&#45;nickel</title>
<path fill="none" stroke="darkgrey" stroke-width="1.98" d="M495.13,-466.57C475.58,-442.59 420.6,-375.15 390.25,-337.93"/>
</g>
<!-- richesse&#45;&#45;économie -->
<g id="edge33" class="edge">
<title>richesse&#45;&#45;économie</title>
<path fill="none" stroke="darkgrey" stroke-width="1.48" d="M512.56,-470.46C529.23,-462.56 562.28,-446.92 582.17,-437.5"/>
</g>
<!-- richesse&#45;&#45;impact environnemental -->
<g id="edge34" class="edge">
<title>richesse&#45;&#45;impact environnemental</title>
<path fill="none" stroke="darkgrey" stroke-width="1.66" d="M510.23,-467.23C533.46,-443.58 601.32,-374.5 629.9,-345.41"/>
</g>
<!-- richesse&#45;&#45;terre -->
<g id="edge35" class="edge">
<title>richesse&#45;&#45;terre</title>
<path fill="none" stroke="darkgrey" d="M492.26,-470.39C474.8,-461.78 439.24,-444.24 424.52,-436.97"/>
</g>
<!-- démolition&#45;&#45;impact environnemental -->
<g id="edge36" class="edge">
<title>démolition&#45;&#45;impact environnemental</title>
<path fill="none" stroke="darkgrey" stroke-width="1.02" d="M768.8,-321.53C748.6,-323.25 690.69,-328.18 660.94,-330.71"/>
</g>
<!-- argent&#45;&#45;nickel -->
<g id="edge37" class="edge">
<title>argent&#45;&#45;nickel</title>
<path fill="none" stroke="darkgrey" stroke-width="2.54" d="M303.43,-446.28C312.39,-428.12 338.45,-375.34 355.03,-341.75"/>
</g>
<!-- nickel&#45;&#45;exploitation -->
<g id="edge38" class="edge">
<title>nickel&#45;&#45;exploitation</title>
<path fill="none" stroke="darkgrey" stroke-width="2.78" d="M395.71,-292.61C437.89,-260.66 519.16,-199.11 549.29,-176.29"/>
</g>
<!-- nickel&#45;&#45;montagne -->
<g id="edge39" class="edge">
<title>nickel&#45;&#45;montagne</title>
<path fill="none" stroke="darkgrey" stroke-width="2" d="M346.94,-288.65C305.69,-245.12 220.4,-155.09 199.09,-132.61"/>
</g>
<!-- nickel&#45;&#45;camion -->
<g id="edge40" class="edge">
<title>nickel&#45;&#45;camion</title>
<path fill="none" stroke="darkgrey" stroke-width="3.23" d="M353.59,-283.73C339,-257.4 318.25,-219.92 308.51,-202.34"/>
</g>
<!-- nickel&#45;&#45;économie -->
<g id="edge41" class="edge">
<title>nickel&#45;&#45;économie</title>
<path fill="none" stroke="darkgrey" stroke-width="3.61" d="M398.49,-327.32C447.23,-352.29 543.98,-401.87 582.29,-421.51"/>
</g>
<!-- nickel&#45;&#45;impact environnemental -->
<g id="edge42" class="edge">
<title>nickel&#45;&#45;impact environnemental</title>
<path fill="none" stroke="darkgrey" stroke-width="2.67" d="M401.92,-314.81C459.9,-319.01 579.5,-327.67 624.85,-330.95"/>
</g>
<!-- nickel&#45;&#45;terre -->
<g id="edge45" class="edge">
<title>nickel&#45;&#45;terre</title>
<path fill="none" stroke="darkgrey" stroke-width="1.25" d="M381.59,-342.75C392.9,-371.08 408.97,-411.34 415.25,-427.06"/>
</g>
<!-- nickel&#45;&#45;usine -->
<g id="edge46" class="edge">
<title>nickel&#45;&#45;usine</title>
<path fill="none" stroke="darkgrey" stroke-width="2.97" d="M374.48,-280.02C380.49,-240.99 390.16,-178.12 393.37,-157.22"/>
</g>
<!-- nickel&#45;&#45;ressource -->
<g id="edge48" class="edge">
<title>nickel&#45;&#45;ressource</title>
<path fill="none" stroke="darkgrey" stroke-width="1.26" d="M387.67,-285.29C420.91,-235.63 489.64,-132.91 506.81,-107.25"/>
</g>
<!-- nickel&#45;&#45;minerai -->
<g id="edge50" class="edge">
<title>nickel&#45;&#45;minerai</title>
<path fill="none" stroke="darkgrey" stroke-width="2.69" d="M371.3,-280C374.62,-220.28 381.51,-96.27 383.23,-65.29"/>
</g>
<!-- nickel&#45;&#45;déforestation -->
<g id="edge51" class="edge">
<title>nickel&#45;&#45;déforestation</title>
<path fill="none" stroke="darkgrey" stroke-width="1.19" d="M372.96,-345.2C378.92,-401.54 390.7,-512.86 392.94,-534.07"/>
</g>
<!-- nickel&#45;&#45;sln -->
<g id="edge47" class="edge">
<title>nickel&#45;&#45;sln</title>
<path fill="none" stroke="darkgrey" stroke-width="3.51" d="M390.61,-337.68C432.57,-387.8 524.26,-497.33 545.85,-523.12"/>
</g>
<!-- nickel&#45;&#45;roche -->
<g id="edge43" class="edge">
<title>nickel&#45;&#45;roche</title>
<path fill="none" stroke="darkgrey" stroke-width="1.69" d="M337.38,-305.75C287.6,-295.35 194.74,-275.94 168.27,-270.41"/>
</g>
<!-- nickel&#45;&#45;terre rouge -->
<g id="edge44" class="edge">
<title>nickel&#45;&#45;terre rouge</title>
<path fill="none" stroke="darkgrey" stroke-width="1.89" d="M337.03,-309.76C268.21,-304.03 111.8,-291.01 85.42,-288.81"/>
</g>
<!-- nickel&#45;&#45;usine du sud -->
<g id="edge49" class="edge">
<title>nickel&#45;&#45;usine du sud</title>
<path fill="none" stroke="darkgrey" stroke-width="1.28" d="M337.86,-320.83C264.47,-340.24 87.99,-386.9 77.03,-389.8"/>
</g>
<!-- exploitation&#45;&#45;impact environnemental -->
<g id="edge52" class="edge">
<title>exploitation&#45;&#45;impact environnemental</title>
<path fill="none" stroke="darkgrey" stroke-width="1.87" d="M567.47,-180.7C582.35,-210.63 618.62,-283.57 634.8,-316.11"/>
</g>
<!-- exploitation&#45;&#45;usine -->
<g id="edge53" class="edge">
<title>exploitation&#45;&#45;usine</title>
<path fill="none" stroke="darkgrey" stroke-width="1.03" d="M546.43,-165.99C512.1,-162.43 426.77,-153.57 401.56,-150.95"/>
</g>
<!-- exploitation&#45;&#45;ressource -->
<g id="edge54" class="edge">
<title>exploitation&#45;&#45;ressource</title>
<path fill="none" stroke="darkgrey" stroke-width="1.66" d="M551.94,-155.67C541.13,-141.4 523.37,-117.98 515.17,-107.16"/>
</g>
<!-- exploitation&#45;&#45;minerai -->
<g id="edge55" class="edge">
<title>exploitation&#45;&#45;minerai</title>
<path fill="none" stroke="darkgrey" stroke-width="2.22" d="M548.44,-159.81C513.45,-138.22 415.2,-77.63 389.73,-61.92"/>
</g>
<!-- montagne&#45;&#45;roche -->
<g id="edge56" class="edge">
<title>montagne&#45;&#45;roche</title>
<path fill="none" stroke="darkgrey" stroke-width="1.06" d="M192.59,-134.25C187.01,-158.1 168.4,-237.56 162.72,-261.81"/>
</g>
<!-- camion&#45;&#45;usine -->
<g id="edge58" class="edge">
<title>camion&#45;&#45;usine</title>
<path fill="none" stroke="darkgrey" stroke-width="1.27" d="M313.21,-187.84C331.98,-179.15 371.71,-160.74 387.63,-153.37"/>
</g>
<!-- camion&#45;&#45;minerai -->
<g id="edge59" class="edge">
<title>camion&#45;&#45;minerai</title>
<path fill="none" stroke="darkgrey" stroke-width="1.03" d="M308.87,-182.87C324.46,-156.87 366.96,-85.96 379.86,-64.44"/>
</g>
<!-- camion&#45;&#45;roche -->
<g id="edge57" class="edge">
<title>camion&#45;&#45;roche</title>
<path fill="none" stroke="darkgrey" stroke-width="1.15" d="M293.32,-197.78C266.12,-212.4 190,-253.34 167.44,-265.47"/>
</g>
<!-- économie&#45;&#45;impact environnemental -->
<g id="edge60" class="edge">
<title>économie&#45;&#45;impact environnemental</title>
<path fill="none" stroke="darkgrey" stroke-width="5.68" d="M605.98,-413.24C614.14,-395.31 627.09,-366.85 635.26,-348.88"/>
</g>
<!-- usine&#45;&#45;minerai -->
<g id="edge61" class="edge">
<title>usine&#45;&#45;minerai</title>
<path fill="none" stroke="darkgrey" stroke-width="1.85" d="M393.6,-142.99C391.58,-125.78 386.49,-82.52 384.47,-65.35"/>
</g>
<!-- ressource&#45;&#45;minerai -->
<g id="edge62" class="edge">
<title>ressource&#45;&#45;minerai</title>
<path fill="none" stroke="darkgrey" stroke-width="1.32" d="M503.93,-99.02C481.85,-91.53 412.62,-68.01 390.5,-60.49"/>
</g>
<!-- pollution -->
<g id="node1" class="node">
<title>pollution</title>
<ellipse fill="#fb9b06" stroke="white" stroke-width="0" cx="479.9" cy="-260.03" rx="29" ry="29"/>
<text text-anchor="middle" x="396.9" y="-238.19" font-family="Helvetica,sans-Serif" font-size="24.80" fill="#4d4d4d">pollution</text>
</g>
<!-- emploi -->
<g id="node2" class="node">
<title>emploi</title>
<ellipse fill="#fcffa4" stroke="white" stroke-width="0" cx="523.71" cy="-325.68" rx="36" ry="36"/>
<text text-anchor="middle" x="440.21" y="-370.28" font-family="Helvetica,sans-Serif" font-size="28.00" fill="#4d4d4d">emploi</text>
</g>
<!-- richesse -->
<g id="node3" class="node">
<title>richesse</title>
<ellipse fill="#5a116e" stroke="white" stroke-width="0" cx="502.27" cy="-475.33" rx="11" ry="11"/>
<text text-anchor="middle" x="456.27" y="-490.89" font-family="Helvetica,sans-Serif" font-size="16.80" fill="#4d4d4d">richesse</text>
</g>
<!-- démolition -->
<g id="node4" class="node">
<title>démolition</title>
<ellipse fill="#260c51" stroke="white" stroke-width="0" cx="775.96" cy="-320.92" rx="7" ry="7"/>
<text text-anchor="middle" x="727.96" y="-332.76" font-family="Helvetica,sans-Serif" font-size="15.20" fill="#4d4d4d">démolition</text>
</g>
<!-- argent -->
<g id="node5" class="node">
<title>argent</title>
<ellipse fill="#3e0966" stroke="white" stroke-width="0" cx="300.27" cy="-452.67" rx="7" ry="7"/>
<text text-anchor="middle" x="268.27" y="-464.51" font-family="Helvetica,sans-Serif" font-size="15.20" fill="#4d4d4d">argent</text>
</g>
<!-- nickel -->
<g id="node6" class="node">
<title>nickel</title>
<ellipse fill="#f8cd37" stroke="white" stroke-width="0" cx="369.49" cy="-312.46" rx="32.5" ry="32.5"/>
<text text-anchor="middle" x="298.49" y="-352.84" font-family="Helvetica,sans-Serif" font-size="26.40" fill="#4d4d4d">nickel</text>
</g>
<!-- exploitation -->
<g id="node7" class="node">
<title>exploitation</title>
<ellipse fill="#87216b" stroke="white" stroke-width="0" cx="560.91" cy="-167.49" rx="14.5" ry="14.5"/>
<text text-anchor="middle" x="490.91" y="-187.27" font-family="Helvetica,sans-Serif" font-size="18.40" fill="#4d4d4d">exploitation</text>
</g>
<!-- montagne -->
<g id="node8" class="node">
<title>montagne</title>
<ellipse fill="#280b53" stroke="white" stroke-width="0" cx="194.19" cy="-127.43" rx="7" ry="7"/>
<text text-anchor="middle" x="148.19" y="-139.27" font-family="Helvetica,sans-Serif" font-size="15.20" fill="#4d4d4d">montagne</text>
</g>
<!-- camion -->
<g id="node9" class="node">
<title>camion</title>
<ellipse fill="#550f6d" stroke="white" stroke-width="0" cx="303.08" cy="-192.53" rx="11" ry="11"/>
<text text-anchor="middle" x="261.08" y="-208.09" font-family="Helvetica,sans-Serif" font-size="16.80" fill="#4d4d4d">camion</text>
</g>
<!-- économie -->
<g id="node10" class="node">
<title>économie</title>
<ellipse fill="#b93556" stroke="white" stroke-width="0" cx="598.46" cy="-429.79" rx="18" ry="18"/>
<text text-anchor="middle" x="531.96" y="-417.79" font-family="Helvetica,sans-Serif" font-size="20.00" fill="#4d4d4d">économie</text>
</g>
<!-- impact environnemental -->
<g id="node11" class="node">
<title>impact environnemental</title>
<ellipse fill="#ca404a" stroke="white" stroke-width="0" cx="642.82" cy="-332.25" rx="18" ry="18"/>
<text text-anchor="middle" x="746.82" y="-356.25" font-family="Helvetica,sans-Serif" font-size="20.00" fill="#4d4d4d">impact environnemental</text>
</g>
<!-- terre -->
<g id="node12" class="node">
<title>terre</title>
<ellipse fill="#260c51" stroke="white" stroke-width="0" cx="417.91" cy="-433.71" rx="7" ry="7"/>
<text text-anchor="middle" x="392.41" y="-445.55" font-family="Helvetica,sans-Serif" font-size="15.20" fill="#4d4d4d">terre</text>
</g>
<!-- usine -->
<g id="node13" class="node">
<title>usine</title>
<ellipse fill="#3d0965" stroke="white" stroke-width="0" cx="394.45" cy="-150.21" rx="7" ry="7"/>
<text text-anchor="middle" x="366.45" y="-162.05" font-family="Helvetica,sans-Serif" font-size="15.20" fill="#4d4d4d">usine</text>
</g>
<!-- ressource -->
<g id="node14" class="node">
<title>ressource</title>
<ellipse fill="#310a5c" stroke="white" stroke-width="0" cx="510.76" cy="-101.35" rx="7" ry="7"/>
<text text-anchor="middle" x="466.76" y="-113.19" font-family="Helvetica,sans-Serif" font-size="15.20" fill="#4d4d4d">ressource</text>
</g>
<!-- conflit -->
<g id="node15" class="node">
<title>conflit</title>
<ellipse fill="#210c4a" stroke="white" stroke-width="0" cx="732.63" cy="-138.71" rx="3.5" ry="3.5"/>
<text text-anchor="middle" x="708.13" y="-146.33" font-family="Helvetica,sans-Serif" font-size="13.60" fill="#4d4d4d">conflit</text>
</g>
<!-- développement -->
<g id="node16" class="node">
<title>développement</title>
<ellipse fill="#010005" stroke="white" stroke-width="0" cx="478.61" cy="-0.5" rx="0.5" ry="0.5"/>
<text text-anchor="middle" x="431.11" y="-4.4" font-family="Helvetica,sans-Serif" font-size="12.00" fill="#4d4d4d">développement</text>
</g>
<!-- minerai -->
<g id="node17" class="node">
<title>minerai</title>
<ellipse fill="#400a67" stroke="white" stroke-width="0" cx="383.63" cy="-58.16" rx="7" ry="7"/>
<text text-anchor="middle" x="347.63" y="-70" font-family="Helvetica,sans-Serif" font-size="15.20" fill="#4d4d4d">minerai</text>
</g>
<!-- déforestation -->
<g id="node18" class="node">
<title>déforestation</title>
<ellipse fill="#0b0724" stroke="white" stroke-width="0" cx="393.32" cy="-537.6" rx="3.5" ry="3.5"/>
<text text-anchor="middle" x="344.82" y="-545.22" font-family="Helvetica,sans-Serif" font-size="13.60" fill="#4d4d4d">déforestation</text>
</g>
<!-- sln -->
<g id="node19" class="node">
<title>sln</title>
<ellipse fill="#280b53" stroke="white" stroke-width="0" cx="550.47" cy="-528.63" rx="7" ry="7"/>
<text text-anchor="middle" x="531.97" y="-540.47" font-family="Helvetica,sans-Serif" font-size="15.20" fill="#4d4d4d">sln</text>
</g>
<!-- roche -->
<g id="node20" class="node">
<title>roche</title>
<ellipse fill="#3b0964" stroke="white" stroke-width="0" cx="161.06" cy="-268.9" rx="7" ry="7"/>
<text text-anchor="middle" x="132.56" y="-280.74" font-family="Helvetica,sans-Serif" font-size="15.20" fill="#4d4d4d">roche</text>
</g>
<!-- terre rouge -->
<g id="node21" class="node">
<title>terre rouge</title>
<ellipse fill="#0c0826" stroke="white" stroke-width="0" cx="81.61" cy="-288.5" rx="3.5" ry="3.5"/>
<text text-anchor="middle" x="40.11" y="-296.12" font-family="Helvetica,sans-Serif" font-size="13.60" fill="#4d4d4d">terre rouge</text>
</g>
<!-- usine du sud -->
<g id="node22" class="node">
<title>usine du sud</title>
<ellipse fill="#000004" stroke="white" stroke-width="0" cx="76.5" cy="-389.94" rx="0.5" ry="0.5"/>
<text text-anchor="middle" x="38" y="-393.84" font-family="Helvetica,sans-Serif" font-size="12.00" fill="#4d4d4d">usine du sud</text>
</g>
</g>
</svg>
