<?xml version="1.0" encoding="UTF-8" standalone="no"?>
<!DOCTYPE svg PUBLIC "-//W3C//DTD SVG 1.1//EN"
 "http://www.w3.org/Graphics/SVG/1.1/DTD/svg11.dtd">
<!-- Generated by graphviz version 2.43.0 (0)
 -->
<!-- Pages: 1 -->
<svg width="828pt" height="589pt"
 viewBox="0.00 0.00 828.39 589.04" xmlns="http://www.w3.org/2000/svg" xmlns:xlink="http://www.w3.org/1999/xlink">
<g id="graph0" class="graph" transform="scale(1 1) rotate(0) translate(4 585.04)">
<polygon fill="white" stroke="transparent" points="-4,4 -4,-585.04 824.39,-585.04 824.39,4 -4,4"/>
<!-- pollution&#45;&#45;emploi -->
<g id="edge1" class="edge">
<title>pollution&#45;&#45;emploi</title>
<path fill="none" stroke="darkgrey" stroke-width="6.48" d="M374.68,-347.32C384.3,-347.96 395.58,-348.71 405.18,-349.35"/>
</g>
<!-- pollution&#45;&#45;économie du pays -->
<g id="edge2" class="edge">
<title>pollution&#45;&#45;économie du pays</title>
<path fill="none" stroke="darkgrey" stroke-width="3.61" d="M366.86,-329.08C387.63,-304.05 426.16,-257.64 443.86,-236.31"/>
</g>
<!-- pollution&#45;&#45;richesse -->
<g id="edge3" class="edge">
<title>pollution&#45;&#45;richesse</title>
<path fill="none" stroke="darkgrey" stroke-width="1.15" d="M353.8,-324.37C354.94,-296.8 356.86,-250.44 357.59,-232.74"/>
</g>
<!-- pollution&#45;&#45;impact environnemental -->
<g id="edge4" class="edge">
<title>pollution&#45;&#45;impact environnemental</title>
<path fill="none" stroke="darkgrey" stroke-width="10" d="M371.93,-335.12C384.37,-328.08 400.92,-318.71 415.31,-310.57"/>
</g>
<!-- pollution&#45;&#45;conflit -->
<g id="edge5" class="edge">
<title>pollution&#45;&#45;conflit</title>
<path fill="none" stroke="darkgrey" stroke-width="1.58" d="M341.5,-327.48C323.03,-297.73 287.52,-240.49 275.85,-221.69"/>
</g>
<!-- pollution&#45;&#45;revenu -->
<g id="edge6" class="edge">
<title>pollution&#45;&#45;revenu</title>
<path fill="none" stroke="darkgrey" stroke-width="1.34" d="M333.37,-336.63C317.36,-329.05 295.67,-318.78 285,-313.74"/>
</g>
<!-- pollution&#45;&#45;nickel -->
<g id="edge7" class="edge">
<title>pollution&#45;&#45;nickel</title>
<path fill="none" stroke="darkgrey" stroke-width="3.04" d="M371.97,-356.21C393.35,-367.81 427.84,-386.51 449.24,-398.12"/>
</g>
<!-- pollution&#45;&#45;exploitation -->
<g id="edge8" class="edge">
<title>pollution&#45;&#45;exploitation</title>
<path fill="none" stroke="darkgrey" stroke-width="1.35" d="M355.69,-367.57C358.06,-386.07 361.37,-411.92 363.23,-426.42"/>
</g>
<!-- pollution&#45;&#45;montagne -->
<g id="edge9" class="edge">
<title>pollution&#45;&#45;montagne</title>
<path fill="none" stroke="darkgrey" stroke-width="1.71" d="M360.68,-366.12C377.27,-409.37 415.49,-508.99 425.63,-535.42"/>
</g>
<!-- pollution&#45;&#45;biodiversité -->
<g id="edge10" class="edge">
<title>pollution&#45;&#45;biodiversité</title>
<path fill="none" stroke="darkgrey" stroke-width="1.07" d="M331.31,-342.45C267.81,-332.4 84.44,-303.36 56.18,-298.88"/>
</g>
<!-- pollution&#45;&#45;développement -->
<g id="edge11" class="edge">
<title>pollution&#45;&#45;développement</title>
<path fill="none" stroke="darkgrey" stroke-width="1.7" d="M358.1,-324.7C369.19,-279.42 394.61,-175.66 399.66,-155.05"/>
</g>
<!-- pollution&#45;&#45;engin -->
<g id="edge12" class="edge">
<title>pollution&#45;&#45;engin</title>
<path fill="none" stroke="darkgrey" stroke-width="1.86" d="M365.12,-363.84C382.52,-389.44 413.8,-435.46 427.08,-455"/>
</g>
<!-- pollution&#45;&#45;minerai -->
<g id="edge13" class="edge">
<title>pollution&#45;&#45;minerai</title>
<path fill="none" stroke="darkgrey" stroke-width="1.14" d="M371.58,-357.05C403.97,-376.45 470.01,-415.99 500.09,-434"/>
</g>
<!-- pollution&#45;&#45;terre -->
<g id="edge14" class="edge">
<title>pollution&#45;&#45;terre</title>
<path fill="none" stroke="darkgrey" stroke-width="1.41" d="M368.34,-361.33C399.41,-392.43 468.51,-461.63 491.84,-484.99"/>
</g>
<!-- pollution&#45;&#45;usine -->
<g id="edge15" class="edge">
<title>pollution&#45;&#45;usine</title>
<path fill="none" stroke="darkgrey" stroke-width="1.4" d="M374.45,-347.38C419.18,-350.5 520.76,-357.59 554.35,-359.93"/>
</g>
<!-- emploi&#45;&#45;économie du pays -->
<g id="edge16" class="edge">
<title>emploi&#45;&#45;économie du pays</title>
<path fill="none" stroke="darkgrey" stroke-width="5.44" d="M431.21,-329.74C436.59,-304.16 445.52,-261.66 450.17,-239.5"/>
</g>
<!-- emploi&#45;&#45;richesse -->
<g id="edge17" class="edge">
<title>emploi&#45;&#45;richesse</title>
<path fill="none" stroke="darkgrey" stroke-width="2.18" d="M416.33,-331.77C400.51,-303.04 371.32,-249.99 361.34,-231.86"/>
</g>
<!-- emploi&#45;&#45;impact environnemental -->
<g id="edge18" class="edge">
<title>emploi&#45;&#45;impact environnemental</title>
<path fill="none" stroke="darkgrey" stroke-width="6.62" d="M433.93,-330.15C434.29,-329.1 434.66,-328.04 435.03,-326.97"/>
</g>
<!-- emploi&#45;&#45;conflit -->
<g id="edge19" class="edge">
<title>emploi&#45;&#45;conflit</title>
<path fill="none" stroke="darkgrey" stroke-width="2.65" d="M410.52,-336.57C376.38,-306.73 298.65,-238.8 277.46,-220.28"/>
</g>
<!-- emploi&#45;&#45;revenu -->
<g id="edge20" class="edge">
<title>emploi&#45;&#45;revenu</title>
<path fill="none" stroke="darkgrey" stroke-width="2.68" d="M405.87,-345.12C372.02,-335.97 306.91,-318.35 285.53,-312.57"/>
</g>
<!-- emploi&#45;&#45;nickel -->
<g id="edge21" class="edge">
<title>emploi&#45;&#45;nickel</title>
<path fill="none" stroke="darkgrey" stroke-width="4.36" d="M439.48,-368.4C444.63,-375.56 450.57,-383.81 455.72,-390.96"/>
</g>
<!-- emploi&#45;&#45;exploitation -->
<g id="edge22" class="edge">
<title>emploi&#45;&#45;exploitation</title>
<path fill="none" stroke="darkgrey" stroke-width="1.68" d="M414.21,-368.32C401.16,-386.51 381.26,-414.25 371.1,-428.41"/>
</g>
<!-- emploi&#45;&#45;engin -->
<g id="edge23" class="edge">
<title>emploi&#45;&#45;engin</title>
<path fill="none" stroke="darkgrey" stroke-width="1.2" d="M428.04,-372.38C429.42,-396.41 431.6,-434.31 432.67,-453"/>
</g>
<!-- emploi&#45;&#45;minerai -->
<g id="edge24" class="edge">
<title>emploi&#45;&#45;minerai</title>
<path fill="none" stroke="darkgrey" stroke-width="1.21" d="M441.87,-366.48C459.1,-384.42 486.99,-413.47 503.09,-430.24"/>
</g>
<!-- emploi&#45;&#45;terre -->
<g id="edge25" class="edge">
<title>emploi&#45;&#45;terre</title>
<path fill="none" stroke="darkgrey" stroke-width="1.4" d="M436.63,-369.95C452.33,-400.55 482.53,-459.39 494.57,-482.86"/>
</g>
<!-- emploi&#45;&#45;usine -->
<g id="edge26" class="edge">
<title>emploi&#45;&#45;usine</title>
<path fill="none" stroke="darkgrey" stroke-width="1.23" d="M448.45,-352.33C478.44,-354.48 531.51,-358.28 554.38,-359.91"/>
</g>
<!-- emploi&#45;&#45;opérateur minier -->
<g id="edge27" class="edge">
<title>emploi&#45;&#45;opérateur minier</title>
<path fill="none" stroke="darkgrey" stroke-width="1.18" d="M448.39,-352.69C494.67,-356.76 602.02,-366.22 636.78,-369.28"/>
</g>
<!-- emploi&#45;&#45;vision positive de la ressource -->
<g id="edge28" class="edge">
<title>emploi&#45;&#45;vision positive de la ressource</title>
<path fill="none" stroke="darkgrey" stroke-width="1.3" d="M416.08,-369.58C396.23,-404.41 354.89,-476.93 345.47,-493.45"/>
</g>
<!-- économie du pays&#45;&#45;richesse -->
<g id="edge29" class="edge">
<title>économie du pays&#45;&#45;richesse</title>
<path fill="none" stroke="darkgrey" stroke-width="1.05" d="M438.31,-225.15C417.58,-225.26 380.8,-225.46 365.21,-225.55"/>
</g>
<!-- économie du pays&#45;&#45;impact environnemental -->
<g id="edge30" class="edge">
<title>économie du pays&#45;&#45;impact environnemental</title>
<path fill="none" stroke="darkgrey" stroke-width="6.33" d="M451.83,-239.74C451.36,-244.79 450.8,-250.69 450.24,-256.69"/>
</g>
<!-- économie du pays&#45;&#45;conflit -->
<g id="edge31" class="edge">
<title>économie du pays&#45;&#45;conflit</title>
<path fill="none" stroke="darkgrey" stroke-width="1.6" d="M438.68,-224.3C401.91,-222.37 306.1,-217.33 279.17,-215.92"/>
</g>
<!-- économie du pays&#45;&#45;nickel -->
<g id="edge32" class="edge">
<title>économie du pays&#45;&#45;nickel</title>
<path fill="none" stroke="darkgrey" stroke-width="1.91" d="M454.42,-239.76C457.07,-271.98 463.42,-348.94 466.54,-386.75"/>
</g>
<!-- économie du pays&#45;&#45;usine -->
<g id="edge33" class="edge">
<title>économie du pays&#45;&#45;usine</title>
<path fill="none" stroke="darkgrey" stroke-width="1.09" d="M462.77,-236.63C484.8,-263.28 538.76,-328.53 558.22,-352.06"/>
</g>
<!-- richesse&#45;&#45;impact environnemental -->
<g id="edge34" class="edge">
<title>richesse&#45;&#45;impact environnemental</title>
<path fill="none" stroke="darkgrey" stroke-width="2.15" d="M363.72,-229.99C374.55,-238.16 398.4,-256.15 417.8,-270.78"/>
</g>
<!-- richesse&#45;&#45;nickel -->
<g id="edge35" class="edge">
<title>richesse&#45;&#45;nickel</title>
<path fill="none" stroke="darkgrey" stroke-width="1.27" d="M361.56,-231.67C376.49,-256.4 432.99,-349.96 457.2,-390.05"/>
</g>
<!-- impact environnemental&#45;&#45;conflit -->
<g id="edge36" class="edge">
<title>impact environnemental&#45;&#45;conflit</title>
<path fill="none" stroke="darkgrey" stroke-width="1.89" d="M413.58,-278.01C370.97,-259.21 300.1,-227.93 278.49,-218.39"/>
</g>
<!-- impact environnemental&#45;&#45;revenu -->
<g id="edge37" class="edge">
<title>impact environnemental&#45;&#45;revenu</title>
<path fill="none" stroke="darkgrey" stroke-width="1.58" d="M410.76,-296.56C369.99,-300.92 306.6,-307.68 285.58,-309.93"/>
</g>
<!-- impact environnemental&#45;&#45;nickel -->
<g id="edge38" class="edge">
<title>impact environnemental&#45;&#45;nickel</title>
<path fill="none" stroke="darkgrey" stroke-width="4.12" d="M453.49,-328.39C457.06,-347.65 461.34,-370.78 464.39,-387.22"/>
</g>
<!-- impact environnemental&#45;&#45;exploitation -->
<g id="edge40" class="edge">
<title>impact environnemental&#45;&#45;exploitation</title>
<path fill="none" stroke="darkgrey" stroke-width="3.8" d="M429.03,-324.11C410.32,-357.03 382.03,-406.81 370.17,-427.67"/>
</g>
<!-- impact environnemental&#45;&#45;montagne -->
<g id="edge41" class="edge">
<title>impact environnemental&#45;&#45;montagne</title>
<path fill="none" stroke="darkgrey" stroke-width="2.15" d="M444.17,-328.69C439.67,-388.54 430.92,-504.97 428.67,-534.84"/>
</g>
<!-- impact environnemental&#45;&#45;développement -->
<g id="edge42" class="edge">
<title>impact environnemental&#45;&#45;développement</title>
<path fill="none" stroke="darkgrey" stroke-width="1.84" d="M435.54,-258.15C423.75,-222.22 406.38,-169.24 401.72,-155.06"/>
</g>
<!-- impact environnemental&#45;&#45;engin -->
<g id="edge43" class="edge">
<title>impact environnemental&#45;&#45;engin</title>
<path fill="none" stroke="darkgrey" stroke-width="2.55" d="M444.03,-328.65C440.93,-367.93 436.13,-428.55 434.18,-453.2"/>
</g>
<!-- impact environnemental&#45;&#45;minerai -->
<g id="edge44" class="edge">
<title>impact environnemental&#45;&#45;minerai</title>
<path fill="none" stroke="darkgrey" stroke-width="1.72" d="M461.97,-325.76C476.2,-356.93 496.96,-402.39 508.03,-426.63"/>
</g>
<!-- impact environnemental&#45;&#45;terre -->
<g id="edge45" class="edge">
<title>impact environnemental&#45;&#45;terre</title>
<path fill="none" stroke="darkgrey" stroke-width="1.52" d="M456.08,-327.58C468.32,-373.95 489.29,-453.4 496.88,-482.12"/>
</g>
<!-- impact environnemental&#45;&#45;usine -->
<g id="edge46" class="edge">
<title>impact environnemental&#45;&#45;usine</title>
<path fill="none" stroke="darkgrey" stroke-width="1.09" d="M478.32,-310.75C504.1,-325.54 538.96,-345.55 555.66,-355.13"/>
</g>
<!-- impact environnemental&#45;&#45;vision positive de la ressource -->
<g id="edge47" class="edge">
<title>impact environnemental&#45;&#45;vision positive de la ressource</title>
<path fill="none" stroke="darkgrey" stroke-width="1.69" d="M430.5,-325.06C404.32,-376.77 354.98,-474.23 345.23,-493.49"/>
</g>
<!-- impact environnemental&#45;&#45;milieu -->
<g id="edge39" class="edge">
<title>impact environnemental&#45;&#45;milieu</title>
<path fill="none" stroke="darkgrey" stroke-width="1.49" d="M469,-264.26C513.05,-207.63 608.87,-84.44 625.02,-63.68"/>
</g>
<!-- impact environnemental&#45;&#45;danger -->
<g id="edge48" class="edge">
<title>impact environnemental&#45;&#45;danger</title>
<path fill="none" stroke="darkgrey" stroke-width="1.18" d="M451.72,-256.88C461.94,-181.29 484.89,-11.55 486.31,-1.01"/>
</g>
<!-- revenu&#45;&#45;nickel -->
<g id="edge49" class="edge">
<title>revenu&#45;&#45;nickel</title>
<path fill="none" stroke="darkgrey" stroke-width="1.89" d="M284.85,-313.93C310.51,-327.15 407.6,-377.18 449.21,-398.62"/>
</g>
<!-- nickel&#45;&#45;exploitation -->
<g id="edge50" class="edge">
<title>nickel&#45;&#45;exploitation</title>
<path fill="none" stroke="darkgrey" stroke-width="2.03" d="M447.34,-414.33C425.57,-420.41 392.37,-429.67 375.41,-434.41"/>
</g>
<!-- nickel&#45;&#45;montagne -->
<g id="edge51" class="edge">
<title>nickel&#45;&#45;montagne</title>
<path fill="none" stroke="darkgrey" stroke-width="1.37" d="M462.05,-429.33C452.82,-459.98 436.06,-515.65 430.21,-535.06"/>
</g>
<!-- nickel&#45;&#45;engin -->
<g id="edge53" class="edge">
<title>nickel&#45;&#45;engin</title>
<path fill="none" stroke="darkgrey" stroke-width="2.71" d="M456.86,-426.71C450.96,-436.1 444.01,-447.15 439.2,-454.81"/>
</g>
<!-- nickel&#45;&#45;minerai -->
<g id="edge54" class="edge">
<title>nickel&#45;&#45;minerai</title>
<path fill="none" stroke="darkgrey" stroke-width="3.81" d="M485.68,-421.25C490.74,-424.98 496.23,-429.01 501.1,-432.6"/>
</g>
<!-- nickel&#45;&#45;terre -->
<g id="edge55" class="edge">
<title>nickel&#45;&#45;terre</title>
<path fill="none" stroke="darkgrey" stroke-width="2.4" d="M475.92,-428.9C482.17,-445.68 490.76,-468.79 495.73,-482.15"/>
</g>
<!-- nickel&#45;&#45;usine -->
<g id="edge56" class="edge">
<title>nickel&#45;&#45;usine</title>
<path fill="none" stroke="darkgrey" stroke-width="3.82" d="M487.96,-398.8C508.34,-388.77 539.41,-373.48 555.28,-365.67"/>
</g>
<!-- nickel&#45;&#45;opérateur minier -->
<g id="edge57" class="edge">
<title>nickel&#45;&#45;opérateur minier</title>
<path fill="none" stroke="darkgrey" stroke-width="2.86" d="M489.62,-403.93C528.08,-395.75 607.8,-378.78 636.91,-372.59"/>
</g>
<!-- nickel&#45;&#45;vision positive de la ressource -->
<g id="edge58" class="edge">
<title>nickel&#45;&#45;vision positive de la ressource</title>
<path fill="none" stroke="darkgrey" stroke-width="1.27" d="M450.71,-420.94C420.61,-442.26 361.13,-484.39 346.73,-494.58"/>
</g>
<!-- nickel&#45;&#45;main d’oeuvre -->
<g id="edge52" class="edge">
<title>nickel&#45;&#45;main d’oeuvre</title>
<path fill="none" stroke="darkgrey" stroke-width="1.02" d="M489.33,-414.13C546.42,-429.53 701.84,-471.44 726.95,-478.21"/>
</g>
<!-- nickel&#45;&#45;commerce -->
<g id="edge59" class="edge">
<title>nickel&#45;&#45;commerce</title>
<path fill="none" stroke="darkgrey" d="M451.15,-421.82C408.33,-455.09 298.42,-540.51 272.43,-560.71"/>
</g>
<!-- nickel&#45;&#45;ressource non&#45;renouvelable -->
<g id="edge60" class="edge">
<title>nickel&#45;&#45;ressource non&#45;renouvelable</title>
<path fill="none" stroke="darkgrey" stroke-width="1.82" d="M485.53,-421.69C522.31,-449.97 606.62,-514.78 623.36,-527.65"/>
</g>
<!-- exploitation&#45;&#45;engin -->
<g id="edge61" class="edge">
<title>exploitation&#45;&#45;engin</title>
<path fill="none" stroke="darkgrey" stroke-width="1.37" d="M375.07,-441.48C387.97,-446.51 409.83,-455.02 422.79,-460.07"/>
</g>
<!-- exploitation&#45;&#45;minerai -->
<g id="edge62" class="edge">
<title>exploitation&#45;&#45;minerai</title>
<path fill="none" stroke="darkgrey" stroke-width="2.89" d="M375.99,-437.86C401.91,-438.87 465.68,-441.36 497.29,-442.6"/>
</g>
<!-- exploitation&#45;&#45;usine -->
<g id="edge63" class="edge">
<title>exploitation&#45;&#45;usine</title>
<path fill="none" stroke="darkgrey" stroke-width="1.48" d="M375.15,-433.4C409.83,-420.14 520.43,-377.88 554.96,-364.68"/>
</g>
<!-- exploitation&#45;&#45;vision positive de la ressource -->
<g id="edge64" class="edge">
<title>exploitation&#45;&#45;vision positive de la ressource</title>
<path fill="none" stroke="darkgrey" stroke-width="1.32" d="M360.86,-448.04C356.03,-461.66 347.89,-484.57 344.79,-493.31"/>
</g>
<!-- exploitation&#45;&#45;commerce -->
<g id="edge65" class="edge">
<title>exploitation&#45;&#45;commerce</title>
<path fill="none" stroke="darkgrey" stroke-width="1.26" d="M357.91,-446.19C339.19,-470.63 286.78,-539.03 271.25,-559.3"/>
</g>
<!-- montagne&#45;&#45;engin -->
<g id="edge66" class="edge">
<title>montagne&#45;&#45;engin</title>
<path fill="none" stroke="darkgrey" stroke-width="1.16" d="M428.62,-534.78C429.52,-521.17 431.5,-491.51 432.57,-475.3"/>
</g>
<!-- montagne&#45;&#45;minerai -->
<g id="edge67" class="edge">
<title>montagne&#45;&#45;minerai</title>
<path fill="none" stroke="darkgrey" stroke-width="1.48" d="M432.84,-536.66C446.05,-521.77 483.78,-479.24 503.42,-457.1"/>
</g>
<!-- montagne&#45;&#45;terre -->
<g id="edge68" class="edge">
<title>montagne&#45;&#45;terre</title>
<path fill="none" stroke="darkgrey" stroke-width="1.15" d="M434.24,-537.78C446.82,-529.15 475.68,-509.35 490.53,-499.17"/>
</g>
<!-- engin&#45;&#45;minerai -->
<g id="edge70" class="edge">
<title>engin&#45;&#45;minerai</title>
<path fill="none" stroke="darkgrey" stroke-width="2.1" d="M444.08,-461.45C457.77,-457.98 481.58,-451.95 497.96,-447.8"/>
</g>
<!-- engin&#45;&#45;terre -->
<g id="edge71" class="edge">
<title>engin&#45;&#45;terre</title>
<path fill="none" stroke="darkgrey" stroke-width="1.75" d="M443.69,-468.66C456.09,-474.02 476.73,-482.94 489.19,-488.32"/>
</g>
<!-- engin&#45;&#45;usine -->
<g id="edge72" class="edge">
<title>engin&#45;&#45;usine</title>
<path fill="none" stroke="darkgrey" stroke-width="1.67" d="M441.98,-457.38C465.85,-438.68 532.39,-386.54 556.5,-367.65"/>
</g>
<!-- minerai&#45;&#45;terre -->
<g id="edge73" class="edge">
<title>minerai&#45;&#45;terre</title>
<path fill="none" stroke="darkgrey" stroke-width="1.31" d="M510.08,-460.65C507.78,-467.79 505.19,-475.85 503.17,-482.12"/>
</g>
<!-- minerai&#45;&#45;usine -->
<g id="edge74" class="edge">
<title>minerai&#45;&#45;usine</title>
<path fill="none" stroke="darkgrey" stroke-width="2.41" d="M525,-427.78C535.13,-410.95 550.97,-384.62 559.48,-370.48"/>
</g>
<!-- minerai&#45;&#45;opérateur minier -->
<g id="edge75" class="edge">
<title>minerai&#45;&#45;opérateur minier</title>
<path fill="none" stroke="darkgrey" stroke-width="1.29" d="M531.6,-434.5C559.34,-419.17 615.68,-388.03 638.22,-375.58"/>
</g>
<!-- minerai&#45;&#45;vision positive de la ressource -->
<g id="edge76" class="edge">
<title>minerai&#45;&#45;vision positive de la ressource</title>
<path fill="none" stroke="darkgrey" stroke-width="1.15" d="M498.2,-448.74C459.06,-460.92 366.18,-489.8 347.02,-495.76"/>
</g>
<!-- minerai&#45;&#45;ressource non&#45;renouvelable -->
<g id="edge77" class="edge">
<title>minerai&#45;&#45;ressource non&#45;renouvelable</title>
<path fill="none" stroke="darkgrey" stroke-width="1.43" d="M530.11,-454.64C556.35,-475.17 610.31,-517.39 623.38,-527.63"/>
</g>
<!-- terre&#45;&#45;usine -->
<g id="edge78" class="edge">
<title>terre&#45;&#45;usine</title>
<path fill="none" stroke="darkgrey" stroke-width="1.15" d="M504.65,-482.94C516.82,-458.44 548.15,-395.37 560.38,-370.75"/>
</g>
<!-- usine&#45;&#45;opérateur minier -->
<g id="edge79" class="edge">
<title>usine&#45;&#45;opérateur minier</title>
<path fill="none" stroke="darkgrey" stroke-width="3.17" d="M576.49,-361.99C592.32,-363.82 621.17,-367.16 636.9,-368.99"/>
</g>
<!-- usine&#45;&#45;localité -->
<g id="edge80" class="edge">
<title>usine&#45;&#45;localité</title>
<path fill="none" stroke="darkgrey" stroke-width="1.57" d="M575.85,-357.11C619.74,-342.08 787.56,-284.61 813.51,-275.72"/>
</g>
<!-- main d’oeuvre&#45;&#45;usine -->
<g id="edge69" class="edge">
<title>main d’oeuvre&#45;&#45;usine</title>
<path fill="none" stroke="darkgrey" stroke-width="1.19" d="M727.54,-477.08C709.05,-463.81 606.31,-390.08 574.65,-367.36"/>
</g>
<!-- pollution -->
<g id="node1" class="node">
<title>pollution</title>
<ellipse fill="#cf4446" stroke="white" stroke-width="0" cx="352.91" cy="-345.87" rx="21.5" ry="21.5"/>
<text text-anchor="middle" x="312.91" y="-369.97" font-family="Helvetica,sans-Serif" font-size="8.00" fill="#4d4d4d">pollution</text>
</g>
<!-- emploi -->
<g id="node2" class="node">
<title>emploi</title>
<ellipse fill="#e65d2f" stroke="white" stroke-width="0" cx="426.79" cy="-350.78" rx="21.5" ry="21.5"/>
<text text-anchor="middle" x="391.29" y="-374.88" font-family="Helvetica,sans-Serif" font-size="8.00" fill="#4d4d4d">emploi</text>
</g>
<!-- économie du pays -->
<g id="node3" class="node">
<title>économie du pays</title>
<ellipse fill="#7f1e6c" stroke="white" stroke-width="0" cx="453.2" cy="-225.06" rx="14.5" ry="14.5"/>
<text text-anchor="middle" x="400.7" y="-242.16" font-family="Helvetica,sans-Serif" font-size="8.00" fill="#4d4d4d">économie du pays</text>
</g>
<!-- richesse -->
<g id="node4" class="node">
<title>richesse</title>
<ellipse fill="#2f0a5b" stroke="white" stroke-width="0" cx="357.89" cy="-225.59" rx="7" ry="7"/>
<text text-anchor="middle" x="333.39" y="-235.19" font-family="Helvetica,sans-Serif" font-size="8.00" fill="#4d4d4d">richesse</text>
</g>
<!-- impact environnemental -->
<g id="node5" class="node">
<title>impact environnemental</title>
<ellipse fill="#fcffa4" stroke="white" stroke-width="0" cx="446.87" cy="-292.71" rx="36" ry="36"/>
<text text-anchor="middle" x="360.87" y="-259.31" font-family="Helvetica,sans-Serif" font-size="8.00" fill="#4d4d4d">impact environnemental</text>
</g>
<!-- conflit -->
<g id="node6" class="node">
<title>conflit</title>
<ellipse fill="#4d0d6c" stroke="white" stroke-width="0" cx="272.04" cy="-215.54" rx="7" ry="7"/>
<text text-anchor="middle" x="252.04" y="-225.14" font-family="Helvetica,sans-Serif" font-size="8.00" fill="#4d4d4d">conflit</text>
</g>
<!-- revenu -->
<g id="node7" class="node">
<title>revenu</title>
<ellipse fill="#380962" stroke="white" stroke-width="0" cx="278.54" cy="-310.68" rx="7" ry="7"/>
<text text-anchor="middle" x="257.54" y="-320.28" font-family="Helvetica,sans-Serif" font-size="8.00" fill="#4d4d4d">revenu</text>
</g>
<!-- nickel -->
<g id="node8" class="node">
<title>nickel</title>
<ellipse fill="#db503b" stroke="white" stroke-width="0" cx="468.33" cy="-408.47" rx="21.5" ry="21.5"/>
<text text-anchor="middle" x="434.83" y="-432.57" font-family="Helvetica,sans-Serif" font-size="8.00" fill="#4d4d4d">nickel</text>
</g>
<!-- exploitation -->
<g id="node9" class="node">
<title>exploitation</title>
<ellipse fill="#721a6e" stroke="white" stroke-width="0" cx="364.64" cy="-437.42" rx="11" ry="11"/>
<text text-anchor="middle" x="329.14" y="-451.02" font-family="Helvetica,sans-Serif" font-size="8.00" fill="#4d4d4d">exploitation</text>
</g>
<!-- montagne -->
<g id="node10" class="node">
<title>montagne</title>
<ellipse fill="#280b53" stroke="white" stroke-width="0" cx="428.14" cy="-541.96" rx="7" ry="7"/>
<text text-anchor="middle" x="399.64" y="-551.56" font-family="Helvetica,sans-Serif" font-size="8.00" fill="#4d4d4d">montagne</text>
</g>
<!-- biodiversité -->
<g id="node11" class="node">
<title>biodiversité</title>
<ellipse fill="#050417" stroke="white" stroke-width="0" cx="52.5" cy="-298.3" rx="3.5" ry="3.5"/>
<text text-anchor="middle" x="24.5" y="-304.4" font-family="Helvetica,sans-Serif" font-size="8.00" fill="#4d4d4d">biodiversité</text>
</g>
<!-- développement -->
<g id="node12" class="node">
<title>développement</title>
<ellipse fill="#110a30" stroke="white" stroke-width="0" cx="400.54" cy="-151.45" rx="3.5" ry="3.5"/>
<text text-anchor="middle" x="364.54" y="-157.55" font-family="Helvetica,sans-Serif" font-size="8.00" fill="#4d4d4d">développement</text>
</g>
<!-- engin -->
<g id="node13" class="node">
<title>engin</title>
<ellipse fill="#67166e" stroke="white" stroke-width="0" cx="433.31" cy="-464.17" rx="11" ry="11"/>
<text text-anchor="middle" x="410.31" y="-477.77" font-family="Helvetica,sans-Serif" font-size="8.00" fill="#4d4d4d">engin</text>
</g>
<!-- minerai -->
<g id="node14" class="node">
<title>minerai</title>
<ellipse fill="#a82e5f" stroke="white" stroke-width="0" cx="515.65" cy="-443.32" rx="18" ry="18"/>
<text text-anchor="middle" x="482.15" y="-463.92" font-family="Helvetica,sans-Serif" font-size="8.00" fill="#4d4d4d">minerai</text>
</g>
<!-- terre -->
<g id="node15" class="node">
<title>terre</title>
<ellipse fill="#520e6d" stroke="white" stroke-width="0" cx="499.71" cy="-492.87" rx="11" ry="11"/>
<text text-anchor="middle" x="479.21" y="-506.47" font-family="Helvetica,sans-Serif" font-size="8.00" fill="#4d4d4d">terre</text>
</g>
<!-- usine -->
<g id="node16" class="node">
<title>usine</title>
<ellipse fill="#771c6d" stroke="white" stroke-width="0" cx="565.37" cy="-360.7" rx="11" ry="11"/>
<text text-anchor="middle" x="542.87" y="-374.3" font-family="Helvetica,sans-Serif" font-size="8.00" fill="#4d4d4d">usine</text>
</g>
<!-- opérateur minier -->
<g id="node17" class="node">
<title>opérateur minier</title>
<ellipse fill="#69166e" stroke="white" stroke-width="0" cx="647.85" cy="-370.26" rx="11" ry="11"/>
<text text-anchor="middle" x="602.35" y="-383.86" font-family="Helvetica,sans-Serif" font-size="8.00" fill="#4d4d4d">opérateur minier</text>
</g>
<!-- vision positive de la ressource -->
<g id="node18" class="node">
<title>vision positive de la ressource</title>
<ellipse fill="#210c4a" stroke="white" stroke-width="0" cx="343.53" cy="-496.85" rx="3.5" ry="3.5"/>
<text text-anchor="middle" x="278.03" y="-502.95" font-family="Helvetica,sans-Serif" font-size="8.00" fill="#4d4d4d">vision positive de la ressource</text>
</g>
<!-- milieu -->
<g id="node19" class="node">
<title>milieu</title>
<ellipse fill="#0a0722" stroke="white" stroke-width="0" cx="627.35" cy="-60.69" rx="3.5" ry="3.5"/>
<text text-anchor="middle" x="611.35" y="-66.79" font-family="Helvetica,sans-Serif" font-size="8.00" fill="#4d4d4d">milieu</text>
</g>
<!-- danger -->
<g id="node20" class="node">
<title>danger</title>
<ellipse fill="#000004" stroke="white" stroke-width="0" cx="486.38" cy="-0.5" rx="0.5" ry="0.5"/>
<text text-anchor="middle" x="470.88" y="-3.6" font-family="Helvetica,sans-Serif" font-size="8.00" fill="#4d4d4d">danger</text>
</g>
<!-- main d’oeuvre -->
<g id="node21" class="node">
<title>main d’oeuvre</title>
<ellipse fill="#190c3e" stroke="white" stroke-width="0" cx="730.4" cy="-479.14" rx="3.5" ry="3.5"/>
<text text-anchor="middle" x="697.9" y="-485.24" font-family="Helvetica,sans-Serif" font-size="8.00" fill="#4d4d4d">main d’oeuvre</text>
</g>
<!-- commerce -->
<g id="node22" class="node">
<title>commerce</title>
<ellipse fill="#280b53" stroke="white" stroke-width="0" cx="266.86" cy="-565.04" rx="7" ry="7"/>
<text text-anchor="middle" x="238.36" y="-574.64" font-family="Helvetica,sans-Serif" font-size="8.00" fill="#4d4d4d">commerce</text>
</g>
<!-- ressource non&#45;renouvelable -->
<g id="node23" class="node">
<title>ressource non&#45;renouvelable</title>
<ellipse fill="#190c3e" stroke="white" stroke-width="0" cx="626.29" cy="-529.9" rx="3.5" ry="3.5"/>
<text text-anchor="middle" x="565.29" y="-536" font-family="Helvetica,sans-Serif" font-size="8.00" fill="#4d4d4d">ressource non&#45;renouvelable</text>
</g>
<!-- localité -->
<g id="node24" class="node">
<title>localité</title>
<ellipse fill="#09061f" stroke="white" stroke-width="0" cx="816.89" cy="-274.56" rx="3.5" ry="3.5"/>
<text text-anchor="middle" x="797.89" y="-280.66" font-family="Helvetica,sans-Serif" font-size="8.00" fill="#4d4d4d">localité</text>
</g>
</g>
</svg>
