<?xml version="1.0" encoding="UTF-8" standalone="no"?>
<!DOCTYPE svg PUBLIC "-//W3C//DTD SVG 1.1//EN"
 "http://www.w3.org/Graphics/SVG/1.1/DTD/svg11.dtd">
<!-- Generated by graphviz version 2.43.0 (0)
 -->
<!-- Pages: 1 -->
<svg width="903pt" height="634pt"
 viewBox="0.00 0.00 902.66 633.98" xmlns="http://www.w3.org/2000/svg" xmlns:xlink="http://www.w3.org/1999/xlink">
<g id="graph0" class="graph" transform="scale(1 1) rotate(0) translate(4 629.98)">
<polygon fill="white" stroke="transparent" points="-4,4 -4,-629.98 898.66,-629.98 898.66,4 -4,4"/>
<!-- pollution&#45;&#45;emploi -->
<g id="edge1" class="edge">
<title>pollution&#45;&#45;emploi</title>
<path fill="none" stroke="darkgrey" stroke-width="6.9" d="M579.62,-161.56C564.31,-166.49 541.95,-173.7 525.67,-178.94"/>
</g>
<!-- pollution&#45;&#45;économie du pays -->
<g id="edge2" class="edge">
<title>pollution&#45;&#45;économie du pays</title>
<path fill="none" stroke="darkgrey" stroke-width="3.92" d="M596.73,-174.2C596.55,-189.54 596.3,-211.19 596.14,-225.4"/>
</g>
<!-- pollution&#45;&#45;richesse -->
<g id="edge3" class="edge">
<title>pollution&#45;&#45;richesse</title>
<path fill="none" stroke="darkgrey" stroke-width="1.3" d="M585.17,-169.89C553.34,-207.55 466.44,-310.35 445.21,-335.46"/>
</g>
<!-- pollution&#45;&#45;impact environnemental -->
<g id="edge4" class="edge">
<title>pollution&#45;&#45;impact environnemental</title>
<path fill="none" stroke="darkgrey" stroke-width="10" d="M579.01,-157.83C545.24,-161.32 471.59,-168.94 427.14,-173.53"/>
</g>
<!-- pollution&#45;&#45;conflit -->
<g id="edge5" class="edge">
<title>pollution&#45;&#45;conflit</title>
<path fill="none" stroke="darkgrey" stroke-width="1.9" d="M596.31,-137.93C595.3,-108.94 593.37,-53.27 592.68,-33.41"/>
</g>
<!-- pollution&#45;&#45;revenu -->
<g id="edge6" class="edge">
<title>pollution&#45;&#45;revenu</title>
<path fill="none" stroke="darkgrey" stroke-width="1.58" d="M586.23,-141.15C563.07,-109.06 509.13,-34.34 493.63,-12.87"/>
</g>
<!-- pollution&#45;&#45;nickel -->
<g id="edge7" class="edge">
<title>pollution&#45;&#45;nickel</title>
<path fill="none" stroke="darkgrey" stroke-width="3.69" d="M581.26,-164.99C552.72,-181.41 492.34,-216.13 461.45,-233.89"/>
</g>
<!-- pollution&#45;&#45;exploitation -->
<g id="edge8" class="edge">
<title>pollution&#45;&#45;exploitation</title>
<path fill="none" stroke="darkgrey" stroke-width="1.64" d="M578.76,-153.94C566.53,-152.57 550.77,-150.8 540.33,-149.63"/>
</g>
<!-- pollution&#45;&#45;montagne -->
<g id="edge9" class="edge">
<title>pollution&#45;&#45;montagne</title>
<path fill="none" stroke="darkgrey" stroke-width="1.79" d="M581.11,-146.52C555.69,-131.34 506.87,-102.18 489.46,-91.78"/>
</g>
<!-- pollution&#45;&#45;biodiversité -->
<g id="edge10" class="edge">
<title>pollution&#45;&#45;biodiversité</title>
<path fill="none" stroke="darkgrey" d="M614.46,-150.57C673.1,-132.49 860.31,-74.75 887.78,-66.27"/>
</g>
<!-- pollution&#45;&#45;développement -->
<g id="edge11" class="edge">
<title>pollution&#45;&#45;développement</title>
<path fill="none" stroke="darkgrey" stroke-width="1.84" d="M613.49,-164.18C637.74,-176.19 681.38,-197.81 693.81,-203.97"/>
</g>
<!-- pollution&#45;&#45;engin -->
<g id="edge12" class="edge">
<title>pollution&#45;&#45;engin</title>
<path fill="none" stroke="darkgrey" stroke-width="2.05" d="M578.75,-157.2C545.73,-159.42 476.84,-164.05 449.72,-165.88"/>
</g>
<!-- pollution&#45;&#45;minerai -->
<g id="edge13" class="edge">
<title>pollution&#45;&#45;minerai</title>
<path fill="none" stroke="darkgrey" stroke-width="1.67" d="M583.67,-168.64C556.8,-194.29 496.2,-252.13 469.27,-277.83"/>
</g>
<!-- pollution&#45;&#45;terre -->
<g id="edge14" class="edge">
<title>pollution&#45;&#45;terre</title>
<path fill="none" stroke="darkgrey" stroke-width="1.57" d="M586.33,-170.72C574.47,-187.21 555.61,-213.42 545.7,-227.2"/>
</g>
<!-- pollution&#45;&#45;usine -->
<g id="edge15" class="edge">
<title>pollution&#45;&#45;usine</title>
<path fill="none" stroke="darkgrey" stroke-width="1.83" d="M588.17,-172C569.5,-206.13 526.24,-285.2 510.99,-313.09"/>
</g>
<!-- emploi&#45;&#45;économie du pays -->
<g id="edge16" class="edge">
<title>emploi&#45;&#45;économie du pays</title>
<path fill="none" stroke="darkgrey" stroke-width="5.31" d="M523.77,-196.89C541.59,-207.52 567.82,-223.16 583.28,-232.38"/>
</g>
<!-- emploi&#45;&#45;richesse -->
<g id="edge17" class="edge">
<title>emploi&#45;&#45;richesse</title>
<path fill="none" stroke="darkgrey" stroke-width="2.17" d="M496.61,-205.64C482,-240.89 452.34,-312.44 443.22,-334.45"/>
</g>
<!-- emploi&#45;&#45;impact environnemental -->
<g id="edge18" class="edge">
<title>emploi&#45;&#45;impact environnemental</title>
<path fill="none" stroke="darkgrey" stroke-width="7.99" d="M483.19,-184.04C467.31,-182.88 445.39,-181.27 426.91,-179.91"/>
</g>
<!-- emploi&#45;&#45;conflit -->
<g id="edge19" class="edge">
<title>emploi&#45;&#45;conflit</title>
<path fill="none" stroke="darkgrey" stroke-width="3.02" d="M515.28,-166.71C534.93,-130.91 576.7,-54.81 588.97,-32.45"/>
</g>
<!-- emploi&#45;&#45;revenu -->
<g id="edge20" class="edge">
<title>emploi&#45;&#45;revenu</title>
<path fill="none" stroke="darkgrey" stroke-width="2.66" d="M503.03,-164.09C499.53,-123.81 492.16,-38.95 490,-14.02"/>
</g>
<!-- emploi&#45;&#45;nickel -->
<g id="edge21" class="edge">
<title>emploi&#45;&#45;nickel</title>
<path fill="none" stroke="darkgrey" stroke-width="5.14" d="M489.12,-200.58C479.72,-209.49 467.81,-220.77 458.37,-229.71"/>
</g>
<!-- emploi&#45;&#45;exploitation -->
<g id="edge22" class="edge">
<title>emploi&#45;&#45;exploitation</title>
<path fill="none" stroke="darkgrey" stroke-width="2.17" d="M516.73,-167.44C518.94,-164.04 521.16,-160.62 523.11,-157.64"/>
</g>
<!-- emploi&#45;&#45;montagne -->
<g id="edge23" class="edge">
<title>emploi&#45;&#45;montagne</title>
<path fill="none" stroke="darkgrey" stroke-width="1.01" d="M500.17,-164.45C495.26,-142.46 487.86,-109.32 484.66,-94.99"/>
</g>
<!-- emploi&#45;&#45;développement -->
<g id="edge24" class="edge">
<title>emploi&#45;&#45;développement</title>
<path fill="none" stroke="darkgrey" stroke-width="1.08" d="M526.58,-187.89C571.76,-192.59 673.47,-203.18 693.66,-205.28"/>
</g>
<!-- emploi&#45;&#45;engin -->
<g id="edge25" class="edge">
<title>emploi&#45;&#45;engin</title>
<path fill="none" stroke="darkgrey" stroke-width="1.51" d="M483.86,-179.62C472.3,-176.32 458.44,-172.36 449.1,-169.69"/>
</g>
<!-- emploi&#45;&#45;minerai -->
<g id="edge26" class="edge">
<title>emploi&#45;&#45;minerai</title>
<path fill="none" stroke="darkgrey" stroke-width="1.7" d="M495.69,-205.37C486.44,-225.2 472.34,-255.41 463.66,-274.02"/>
</g>
<!-- emploi&#45;&#45;terre -->
<g id="edge27" class="edge">
<title>emploi&#45;&#45;terre</title>
<path fill="none" stroke="darkgrey" stroke-width="1.81" d="M517.06,-203.66C522.44,-211.63 528.54,-220.66 532.95,-227.2"/>
</g>
<!-- emploi&#45;&#45;usine -->
<g id="edge28" class="edge">
<title>emploi&#45;&#45;usine</title>
<path fill="none" stroke="darkgrey" stroke-width="1.73" d="M505,-207.41C505.14,-237.07 505.38,-289.09 505.49,-311.85"/>
</g>
<!-- emploi&#45;&#45;opérateur minier -->
<g id="edge29" class="edge">
<title>emploi&#45;&#45;opérateur minier</title>
<path fill="none" stroke="darkgrey" stroke-width="1.45" d="M485.07,-194.04C447.06,-210.15 365.13,-244.88 336.33,-257.09"/>
</g>
<!-- emploi&#45;&#45;vision positive de la ressource -->
<g id="edge30" class="edge">
<title>emploi&#45;&#45;vision positive de la ressource</title>
<path fill="none" stroke="darkgrey" stroke-width="1.42" d="M515.28,-204.74C533.82,-238.87 571.52,-308.24 580.1,-324.03"/>
</g>
<!-- emploi&#45;&#45;commerce -->
<g id="edge31" class="edge">
<title>emploi&#45;&#45;commerce</title>
<path fill="none" stroke="darkgrey" stroke-width="1.07" d="M488.24,-171.92C460.99,-149.48 408.15,-105.97 390.8,-91.68"/>
</g>
<!-- économie du pays&#45;&#45;richesse -->
<g id="edge32" class="edge">
<title>économie du pays&#45;&#45;richesse</title>
<path fill="none" stroke="darkgrey" stroke-width="1.03" d="M583.78,-247.89C552.42,-268.28 469.85,-321.96 446.63,-337.05"/>
</g>
<!-- économie du pays&#45;&#45;impact environnemental -->
<g id="edge33" class="edge">
<title>économie du pays&#45;&#45;impact environnemental</title>
<path fill="none" stroke="darkgrey" stroke-width="6.77" d="M581.88,-235.65C549.95,-225.88 471.29,-201.84 425.51,-187.84"/>
</g>
<!-- économie du pays&#45;&#45;conflit -->
<g id="edge34" class="edge">
<title>économie du pays&#45;&#45;conflit</title>
<path fill="none" stroke="darkgrey" stroke-width="1.91" d="M595.73,-225.26C595.04,-183.37 593.06,-64.4 592.55,-33.54"/>
</g>
<!-- économie du pays&#45;&#45;nickel -->
<g id="edge35" class="edge">
<title>économie du pays&#45;&#45;nickel</title>
<path fill="none" stroke="darkgrey" stroke-width="2.49" d="M581.25,-240.43C553.99,-241.29 495.58,-243.16 463.89,-244.17"/>
</g>
<!-- économie du pays&#45;&#45;minerai -->
<g id="edge36" class="edge">
<title>économie du pays&#45;&#45;minerai</title>
<path fill="none" stroke="darkgrey" stroke-width="1.11" d="M582.29,-244.9C556.56,-254.2 501,-274.28 472.92,-284.42"/>
</g>
<!-- économie du pays&#45;&#45;usine -->
<g id="edge37" class="edge">
<title>économie du pays&#45;&#45;usine</title>
<path fill="none" stroke="darkgrey" stroke-width="1.21" d="M585.25,-249.81C567,-266.58 530.3,-300.29 513.85,-315.4"/>
</g>
<!-- richesse&#45;&#45;impact environnemental -->
<g id="edge38" class="edge">
<title>richesse&#45;&#45;impact environnemental</title>
<path fill="none" stroke="darkgrey" stroke-width="2.67" d="M438.35,-334.01C432.08,-313.26 413.33,-251.27 401.37,-211.76"/>
</g>
<!-- richesse&#45;&#45;nickel -->
<g id="edge39" class="edge">
<title>richesse&#45;&#45;nickel</title>
<path fill="none" stroke="darkgrey" stroke-width="1.41" d="M440.63,-333.82C440.9,-319.75 441.53,-288.19 441.95,-266.7"/>
</g>
<!-- impact environnemental&#45;&#45;conflit -->
<g id="edge40" class="edge">
<title>impact environnemental&#45;&#45;conflit</title>
<path fill="none" stroke="darkgrey" stroke-width="2.37" d="M419.81,-155.62C468.12,-119.39 562.45,-48.64 586.66,-30.48"/>
</g>
<!-- impact environnemental&#45;&#45;revenu -->
<g id="edge41" class="edge">
<title>impact environnemental&#45;&#45;revenu</title>
<path fill="none" stroke="darkgrey" stroke-width="1.65" d="M409,-146.04C432.98,-104.57 473.73,-34.1 485.87,-13.09"/>
</g>
<!-- impact environnemental&#45;&#45;nickel -->
<g id="edge42" class="edge">
<title>impact environnemental&#45;&#45;nickel</title>
<path fill="none" stroke="darkgrey" stroke-width="5.45" d="M412.76,-205.93C418.34,-213.27 424.18,-220.94 429.18,-227.51"/>
</g>
<!-- impact environnemental&#45;&#45;exploitation -->
<g id="edge44" class="edge">
<title>impact environnemental&#45;&#45;exploitation</title>
<path fill="none" stroke="darkgrey" stroke-width="4.29" d="M426.53,-169.83C456.92,-163.48 498.72,-154.73 518.25,-150.65"/>
</g>
<!-- impact environnemental&#45;&#45;montagne -->
<g id="edge45" class="edge">
<title>impact environnemental&#45;&#45;montagne</title>
<path fill="none" stroke="darkgrey" stroke-width="2.33" d="M417.1,-151.93C438.39,-131.3 466.69,-103.87 478.06,-92.86"/>
</g>
<!-- impact environnemental&#45;&#45;développement -->
<g id="edge46" class="edge">
<title>impact environnemental&#45;&#45;développement</title>
<path fill="none" stroke="darkgrey" stroke-width="1.96" d="M426.97,-180.61C501.29,-187.5 666.87,-202.83 693.53,-205.31"/>
</g>
<!-- impact environnemental&#45;&#45;engin -->
<g id="edge47" class="edge">
<title>impact environnemental&#45;&#45;engin</title>
<path fill="none" stroke="darkgrey" stroke-width="2.99" d="M426.44,-169.32C426.76,-169.25 427.08,-169.18 427.39,-169.11"/>
</g>
<!-- impact environnemental&#45;&#45;minerai -->
<g id="edge48" class="edge">
<title>impact environnemental&#45;&#45;minerai</title>
<path fill="none" stroke="darkgrey" stroke-width="2.41" d="M408.88,-208.53C421.2,-230.01 437.05,-257.63 446.85,-274.71"/>
</g>
<!-- impact environnemental&#45;&#45;terre -->
<g id="edge49" class="edge">
<title>impact environnemental&#45;&#45;terre</title>
<path fill="none" stroke="darkgrey" stroke-width="1.83" d="M424.57,-190.68C458.04,-204.02 507.41,-223.7 528.71,-232.19"/>
</g>
<!-- impact environnemental&#45;&#45;usine -->
<g id="edge50" class="edge">
<title>impact environnemental&#45;&#45;usine</title>
<path fill="none" stroke="darkgrey" stroke-width="1.97" d="M413.31,-205.73C439.76,-239.36 482.26,-293.42 498.72,-314.36"/>
</g>
<!-- impact environnemental&#45;&#45;opérateur minier -->
<g id="edge51" class="edge">
<title>impact environnemental&#45;&#45;opérateur minier</title>
<path fill="none" stroke="darkgrey" stroke-width="1.13" d="M368.61,-206.24C356.15,-222.41 341.47,-241.44 333.02,-252.41"/>
</g>
<!-- impact environnemental&#45;&#45;vision positive de la ressource -->
<g id="edge52" class="edge">
<title>impact environnemental&#45;&#45;vision positive de la ressource</title>
<path fill="none" stroke="darkgrey" stroke-width="1.87" d="M419.53,-199.73C467.38,-237.33 560.29,-310.32 578.67,-324.76"/>
</g>
<!-- impact environnemental&#45;&#45;commerce -->
<g id="edge55" class="edge">
<title>impact environnemental&#45;&#45;commerce</title>
<path fill="none" stroke="darkgrey" stroke-width="1.29" d="M388.63,-141.34C387.5,-123.84 386.24,-104.41 385.58,-94.19"/>
</g>
<!-- impact environnemental&#45;&#45;milieu -->
<g id="edge43" class="edge">
<title>impact environnemental&#45;&#45;milieu</title>
<path fill="none" stroke="darkgrey" stroke-width="1.62" d="M356.57,-188.97C285.24,-213.24 125.59,-267.56 99.88,-276.31"/>
</g>
<!-- impact environnemental&#45;&#45;danger -->
<g id="edge53" class="edge">
<title>impact environnemental&#45;&#45;danger</title>
<path fill="none" stroke="darkgrey" stroke-width="1.13" d="M354.9,-173.65C276.44,-165.77 96.28,-147.68 85.1,-146.55"/>
</g>
<!-- impact environnemental&#45;&#45;épuisement de la ressource -->
<g id="edge54" class="edge">
<title>impact environnemental&#45;&#45;épuisement de la ressource</title>
<path fill="none" stroke="darkgrey" stroke-width="1.14" d="M358.42,-161.22C287.63,-126.29 125.08,-46.07 114.99,-41.09"/>
</g>
<!-- conflit&#45;&#45;revenu -->
<g id="edge56" class="edge">
<title>conflit&#45;&#45;revenu</title>
<path fill="none" stroke="darkgrey" stroke-width="1.02" d="M585.35,-24.84C566.52,-21.34 515.4,-11.84 496.52,-8.33"/>
</g>
<!-- revenu&#45;&#45;nickel -->
<g id="edge57" class="edge">
<title>revenu&#45;&#45;nickel</title>
<path fill="none" stroke="darkgrey" stroke-width="1.88" d="M487.99,-14.12C481.77,-45.58 456.62,-172.83 446.56,-223.69"/>
</g>
<!-- nickel&#45;&#45;exploitation -->
<g id="edge58" class="edge">
<title>nickel&#45;&#45;exploitation</title>
<path fill="none" stroke="darkgrey" stroke-width="2.53" d="M457.1,-228.49C475.66,-207.84 506.9,-173.1 521.36,-157.02"/>
</g>
<!-- nickel&#45;&#45;montagne -->
<g id="edge59" class="edge">
<title>nickel&#45;&#45;montagne</title>
<path fill="none" stroke="darkgrey" stroke-width="1.67" d="M447.79,-224.02C457.05,-188.35 475.5,-117.25 481.3,-94.88"/>
</g>
<!-- nickel&#45;&#45;engin -->
<g id="edge61" class="edge">
<title>nickel&#45;&#45;engin</title>
<path fill="none" stroke="darkgrey" stroke-width="3.18" d="M441.28,-223.07C440.53,-208.42 439.58,-189.72 438.99,-177.95"/>
</g>
<!-- nickel&#45;&#45;minerai -->
<g id="edge62" class="edge">
<title>nickel&#45;&#45;minerai</title>
<path fill="none" stroke="darkgrey" stroke-width="4.25" d="M448.53,-265.57C449.28,-268.12 450.05,-270.7 450.79,-273.2"/>
</g>
<!-- nickel&#45;&#45;terre -->
<g id="edge63" class="edge">
<title>nickel&#45;&#45;terre</title>
<path fill="none" stroke="darkgrey" stroke-width="2.63" d="M463.85,-242.97C483.67,-241.22 512.32,-238.7 527.94,-237.33"/>
</g>
<!-- nickel&#45;&#45;usine -->
<g id="edge64" class="edge">
<title>nickel&#45;&#45;usine</title>
<path fill="none" stroke="darkgrey" stroke-width="4.27" d="M456.09,-261.82C469.15,-277.99 488.29,-301.69 498.51,-314.33"/>
</g>
<!-- nickel&#45;&#45;opérateur minier -->
<g id="edge65" class="edge">
<title>nickel&#45;&#45;opérateur minier</title>
<path fill="none" stroke="darkgrey" stroke-width="3.05" d="M421.05,-247.9C396.25,-251.43 356.3,-257.13 337.08,-259.87"/>
</g>
<!-- nickel&#45;&#45;vision positive de la ressource -->
<g id="edge66" class="edge">
<title>nickel&#45;&#45;vision positive de la ressource</title>
<path fill="none" stroke="darkgrey" stroke-width="1.4" d="M460.9,-255.8C494.4,-275.59 563.03,-316.15 578.65,-325.38"/>
</g>
<!-- nickel&#45;&#45;commerce -->
<g id="edge67" class="edge">
<title>nickel&#45;&#45;commerce</title>
<path fill="none" stroke="darkgrey" stroke-width="1.38" d="M435.01,-224.54C422.02,-188.74 395.66,-116.06 387.55,-93.7"/>
</g>
<!-- nickel&#45;&#45;main d’oeuvre -->
<g id="edge60" class="edge">
<title>nickel&#45;&#45;main d’oeuvre</title>
<path fill="none" stroke="darkgrey" stroke-width="1.11" d="M443.56,-266.44C446.48,-319.87 453.9,-455.72 455.21,-479.7"/>
</g>
<!-- nickel&#45;&#45;ressource non&#45;renouvelable -->
<g id="edge68" class="edge">
<title>nickel&#45;&#45;ressource non&#45;renouvelable</title>
<path fill="none" stroke="darkgrey" stroke-width="1.81" d="M429.64,-262.61C398.23,-306.36 318.59,-417.31 303.93,-437.73"/>
</g>
<!-- exploitation&#45;&#45;engin -->
<g id="edge69" class="edge">
<title>exploitation&#45;&#45;engin</title>
<path fill="none" stroke="darkgrey" stroke-width="1.5" d="M518.01,-150.61C500.5,-154.14 466.73,-160.94 449.35,-164.44"/>
</g>
<!-- exploitation&#45;&#45;minerai -->
<g id="edge70" class="edge">
<title>exploitation&#45;&#45;minerai</title>
<path fill="none" stroke="darkgrey" stroke-width="3.33" d="M523.87,-158.6C511.28,-183.05 479.37,-245.05 464.2,-274.52"/>
</g>
<!-- exploitation&#45;&#45;usine -->
<g id="edge71" class="edge">
<title>exploitation&#45;&#45;usine</title>
<path fill="none" stroke="darkgrey" stroke-width="1.69" d="M527.66,-159.3C523.42,-190.67 511.25,-280.75 507.02,-312.12"/>
</g>
<!-- exploitation&#45;&#45;vision positive de la ressource -->
<g id="edge72" class="edge">
<title>exploitation&#45;&#45;vision positive de la ressource</title>
<path fill="none" stroke="darkgrey" stroke-width="1.27" d="M532.27,-159.03C542.52,-193.78 574.66,-302.81 580.84,-323.77"/>
</g>
<!-- exploitation&#45;&#45;commerce -->
<g id="edge73" class="edge">
<title>exploitation&#45;&#45;commerce</title>
<path fill="none" stroke="darkgrey" stroke-width="1.34" d="M518.78,-143.96C490.91,-132.09 414.92,-99.7 391.85,-89.87"/>
</g>
<!-- montagne&#45;&#45;engin -->
<g id="edge74" class="edge">
<title>montagne&#45;&#45;engin</title>
<path fill="none" stroke="darkgrey" stroke-width="1.25" d="M479.59,-94.15C471.85,-107.77 453.27,-140.48 443.95,-156.89"/>
</g>
<!-- montagne&#45;&#45;minerai -->
<g id="edge75" class="edge">
<title>montagne&#45;&#45;minerai</title>
<path fill="none" stroke="darkgrey" stroke-width="1.49" d="M482.13,-95.19C478.29,-123.81 464.08,-229.89 458.35,-272.58"/>
</g>
<!-- montagne&#45;&#45;terre -->
<g id="edge76" class="edge">
<title>montagne&#45;&#45;terre</title>
<path fill="none" stroke="darkgrey" stroke-width="1.13" d="M485.65,-94.74C494.56,-118.32 524.29,-197.07 535.13,-225.76"/>
</g>
<!-- engin&#45;&#45;minerai -->
<g id="edge79" class="edge">
<title>engin&#45;&#45;minerai</title>
<path fill="none" stroke="darkgrey" stroke-width="2.51" d="M439.97,-177.64C443,-199.08 449.73,-246.65 453.41,-272.68"/>
</g>
<!-- engin&#45;&#45;terre -->
<g id="edge80" class="edge">
<title>engin&#45;&#45;terre</title>
<path fill="none" stroke="darkgrey" stroke-width="1.9" d="M447.71,-173.07C466.89,-186.35 510.69,-216.66 529.85,-229.93"/>
</g>
<!-- engin&#45;&#45;usine -->
<g id="edge81" class="edge">
<title>engin&#45;&#45;usine</title>
<path fill="none" stroke="darkgrey" stroke-width="2.05" d="M442.82,-176.9C454.95,-205.17 488.78,-283.98 501.03,-312.53"/>
</g>
<!-- engin&#45;&#45;opérateur minier -->
<g id="edge82" class="edge">
<title>engin&#45;&#45;opérateur minier</title>
<path fill="none" stroke="darkgrey" stroke-width="1.11" d="M429.97,-173.76C409.15,-191.33 355.53,-236.57 334.6,-254.23"/>
</g>
<!-- minerai&#45;&#45;terre -->
<g id="edge83" class="edge">
<title>minerai&#45;&#45;terre</title>
<path fill="none" stroke="darkgrey" stroke-width="1.55" d="M471.2,-280.61C488.27,-269.49 515.4,-251.81 529.66,-242.51"/>
</g>
<!-- minerai&#45;&#45;usine -->
<g id="edge84" class="edge">
<title>minerai&#45;&#45;usine</title>
<path fill="none" stroke="darkgrey" stroke-width="2.67" d="M471.09,-300.48C479.3,-305.85 489.17,-312.32 496.24,-316.95"/>
</g>
<!-- minerai&#45;&#45;opérateur minier -->
<g id="edge85" class="edge">
<title>minerai&#45;&#45;opérateur minier</title>
<path fill="none" stroke="darkgrey" stroke-width="1.63" d="M438.16,-286.57C410.78,-280.43 359.16,-268.86 336.82,-263.85"/>
</g>
<!-- minerai&#45;&#45;vision positive de la ressource -->
<g id="edge86" class="edge">
<title>minerai&#45;&#45;vision positive de la ressource</title>
<path fill="none" stroke="darkgrey" stroke-width="1.03" d="M473.45,-295.66C503.46,-304.41 562.95,-321.76 578.23,-326.22"/>
</g>
<!-- minerai&#45;&#45;ressource non&#45;renouvelable -->
<g id="edge87" class="edge">
<title>minerai&#45;&#45;ressource non&#45;renouvelable</title>
<path fill="none" stroke="darkgrey" stroke-width="1.48" d="M443.05,-303.12C409.43,-335.89 320.57,-422.49 304.2,-438.44"/>
</g>
<!-- terre&#45;&#45;usine -->
<g id="edge88" class="edge">
<title>terre&#45;&#45;usine</title>
<path fill="none" stroke="darkgrey" stroke-width="1.35" d="M535.14,-246.63C528.68,-263.32 515.98,-296.09 509.52,-312.77"/>
</g>
<!-- usine&#45;&#45;opérateur minier -->
<g id="edge89" class="edge">
<title>usine&#45;&#45;opérateur minier</title>
<path fill="none" stroke="darkgrey" stroke-width="3.18" d="M495.12,-319.46C463.39,-308.57 368.27,-275.93 336.51,-265.03"/>
</g>
<!-- usine&#45;&#45;commerce -->
<g id="edge91" class="edge">
<title>usine&#45;&#45;commerce</title>
<path fill="none" stroke="darkgrey" stroke-width="1.02" d="M500.52,-313.2C480.31,-273.59 405.2,-126.38 388.45,-93.53"/>
</g>
<!-- usine&#45;&#45;localité -->
<g id="edge90" class="edge">
<title>usine&#45;&#45;localité</title>
<path fill="none" stroke="darkgrey" stroke-width="1.49" d="M509.44,-333.38C527.49,-381.28 602.58,-580.56 613.63,-609.88"/>
</g>
<!-- main d’oeuvre&#45;&#45;minerai -->
<g id="edge77" class="edge">
<title>main d’oeuvre&#45;&#45;minerai</title>
<path fill="none" stroke="darkgrey" stroke-width="1.02" d="M455.42,-479.67C455.47,-458.53 455.77,-352 455.89,-308.8"/>
</g>
<!-- main d’oeuvre&#45;&#45;usine -->
<g id="edge78" class="edge">
<title>main d’oeuvre&#45;&#45;usine</title>
<path fill="none" stroke="darkgrey" stroke-width="1.14" d="M456.45,-480C462.42,-460.93 492.17,-365.8 502.22,-333.67"/>
</g>
<!-- pollution -->
<g id="node1" class="node">
<title>pollution</title>
<ellipse fill="#c83f4b" stroke="white" stroke-width="0" cx="596.93" cy="-155.98" rx="18" ry="18"/>
<text text-anchor="middle" x="560.43" y="-176.58" font-family="Helvetica,sans-Serif" font-size="8.00" fill="#4d4d4d">pollution</text>
</g>
<!-- emploi -->
<g id="node2" class="node">
<title>emploi</title>
<ellipse fill="#e15635" stroke="white" stroke-width="0" cx="504.9" cy="-185.64" rx="21.5" ry="21.5"/>
<text text-anchor="middle" x="469.4" y="-209.74" font-family="Helvetica,sans-Serif" font-size="8.00" fill="#4d4d4d">emploi</text>
</g>
<!-- économie du pays -->
<g id="node3" class="node">
<title>économie du pays</title>
<ellipse fill="#7c1d6d" stroke="white" stroke-width="0" cx="595.98" cy="-239.96" rx="14.5" ry="14.5"/>
<text text-anchor="middle" x="543.48" y="-257.06" font-family="Helvetica,sans-Serif" font-size="8.00" fill="#4d4d4d">économie du pays</text>
</g>
<!-- richesse -->
<g id="node4" class="node">
<title>richesse</title>
<ellipse fill="#310a5c" stroke="white" stroke-width="0" cx="440.48" cy="-341.05" rx="7" ry="7"/>
<text text-anchor="middle" x="415.98" y="-350.65" font-family="Helvetica,sans-Serif" font-size="8.00" fill="#4d4d4d">richesse</text>
</g>
<!-- impact environnemental -->
<g id="node5" class="node">
<title>impact environnemental</title>
<ellipse fill="#fcffa4" stroke="white" stroke-width="0" cx="390.94" cy="-177.27" rx="36" ry="36"/>
<text text-anchor="middle" x="304.94" y="-215.87" font-family="Helvetica,sans-Serif" font-size="8.00" fill="#4d4d4d">impact environnemental</text>
</g>
<!-- conflit -->
<g id="node6" class="node">
<title>conflit</title>
<ellipse fill="#4d0d6c" stroke="white" stroke-width="0" cx="592.43" cy="-26.15" rx="7" ry="7"/>
<text text-anchor="middle" x="572.43" y="-35.75" font-family="Helvetica,sans-Serif" font-size="8.00" fill="#4d4d4d">conflit</text>
</g>
<!-- revenu -->
<g id="node7" class="node">
<title>revenu</title>
<ellipse fill="#390963" stroke="white" stroke-width="0" cx="489.39" cy="-7" rx="7" ry="7"/>
<text text-anchor="middle" x="468.39" y="-16.6" font-family="Helvetica,sans-Serif" font-size="8.00" fill="#4d4d4d">revenu</text>
</g>
<!-- nickel -->
<g id="node8" class="node">
<title>nickel</title>
<ellipse fill="#d44842" stroke="white" stroke-width="0" cx="442.38" cy="-244.86" rx="21.5" ry="21.5"/>
<text text-anchor="middle" x="408.88" y="-268.96" font-family="Helvetica,sans-Serif" font-size="8.00" fill="#4d4d4d">nickel</text>
</g>
<!-- exploitation -->
<g id="node9" class="node">
<title>exploitation</title>
<ellipse fill="#721a6e" stroke="white" stroke-width="0" cx="529.13" cy="-148.37" rx="11" ry="11"/>
<text text-anchor="middle" x="493.63" y="-139.97" font-family="Helvetica,sans-Serif" font-size="8.00" fill="#4d4d4d">exploitation</text>
</g>
<!-- montagne -->
<g id="node10" class="node">
<title>montagne</title>
<ellipse fill="#290b55" stroke="white" stroke-width="0" cx="483.1" cy="-87.98" rx="7" ry="7"/>
<text text-anchor="middle" x="454.6" y="-97.58" font-family="Helvetica,sans-Serif" font-size="8.00" fill="#4d4d4d">montagne</text>
</g>
<!-- biodiversité -->
<g id="node11" class="node">
<title>biodiversité</title>
<ellipse fill="#07051b" stroke="white" stroke-width="0" cx="891.16" cy="-65.23" rx="3.5" ry="3.5"/>
<text text-anchor="middle" x="863.16" y="-71.33" font-family="Helvetica,sans-Serif" font-size="8.00" fill="#4d4d4d">biodiversité</text>
</g>
<!-- développement -->
<g id="node12" class="node">
<title>développement</title>
<ellipse fill="#140b34" stroke="white" stroke-width="0" cx="697.19" cy="-205.64" rx="3.5" ry="3.5"/>
<text text-anchor="middle" x="661.19" y="-211.74" font-family="Helvetica,sans-Serif" font-size="8.00" fill="#4d4d4d">développement</text>
</g>
<!-- engin -->
<g id="node13" class="node">
<title>engin</title>
<ellipse fill="#67166e" stroke="white" stroke-width="0" cx="438.41" cy="-166.64" rx="11" ry="11"/>
<text text-anchor="middle" x="439.41" y="-180.24" font-family="Helvetica,sans-Serif" font-size="8.00" fill="#4d4d4d">engin</text>
</g>
<!-- minerai -->
<g id="node14" class="node">
<title>minerai</title>
<ellipse fill="#a82e5f" stroke="white" stroke-width="0" cx="455.94" cy="-290.56" rx="18" ry="18"/>
<text text-anchor="middle" x="422.44" y="-311.16" font-family="Helvetica,sans-Serif" font-size="8.00" fill="#4d4d4d">minerai</text>
</g>
<!-- terre -->
<g id="node15" class="node">
<title>terre</title>
<ellipse fill="#510e6c" stroke="white" stroke-width="0" cx="539.13" cy="-236.35" rx="11" ry="11"/>
<text text-anchor="middle" x="518.63" y="-227.95" font-family="Helvetica,sans-Serif" font-size="8.00" fill="#4d4d4d">terre</text>
</g>
<!-- usine -->
<g id="node16" class="node">
<title>usine</title>
<ellipse fill="#781c6d" stroke="white" stroke-width="0" cx="505.54" cy="-323.04" rx="11" ry="11"/>
<text text-anchor="middle" x="483.04" y="-336.64" font-family="Helvetica,sans-Serif" font-size="8.00" fill="#4d4d4d">usine</text>
</g>
<!-- opérateur minier -->
<g id="node17" class="node">
<title>opérateur minier</title>
<ellipse fill="#6c186e" stroke="white" stroke-width="0" cx="326.06" cy="-261.44" rx="11" ry="11"/>
<text text-anchor="middle" x="280.56" y="-275.04" font-family="Helvetica,sans-Serif" font-size="8.00" fill="#4d4d4d">opérateur minier</text>
</g>
<!-- vision positive de la ressource -->
<g id="node18" class="node">
<title>vision positive de la ressource</title>
<ellipse fill="#230c4c" stroke="white" stroke-width="0" cx="581.87" cy="-327.28" rx="3.5" ry="3.5"/>
<text text-anchor="middle" x="640.37" y="-333.38" font-family="Helvetica,sans-Serif" font-size="8.00" fill="#4d4d4d">vision positive de la ressource</text>
</g>
<!-- commerce -->
<g id="node19" class="node">
<title>commerce</title>
<ellipse fill="#2b0b57" stroke="white" stroke-width="0" cx="385.12" cy="-87.01" rx="7" ry="7"/>
<text text-anchor="middle" x="356.62" y="-96.61" font-family="Helvetica,sans-Serif" font-size="8.00" fill="#4d4d4d">commerce</text>
</g>
<!-- milieu -->
<g id="node20" class="node">
<title>milieu</title>
<ellipse fill="#0d0829" stroke="white" stroke-width="0" cx="96.35" cy="-277.51" rx="3.5" ry="3.5"/>
<text text-anchor="middle" x="80.35" y="-283.61" font-family="Helvetica,sans-Serif" font-size="8.00" fill="#4d4d4d">milieu</text>
</g>
<!-- danger -->
<g id="node21" class="node">
<title>danger</title>
<ellipse fill="#010106" stroke="white" stroke-width="0" cx="84.55" cy="-146.5" rx="0.5" ry="0.5"/>
<text text-anchor="middle" x="69.05" y="-149.6" font-family="Helvetica,sans-Serif" font-size="8.00" fill="#4d4d4d">danger</text>
</g>
<!-- épuisement de la ressource -->
<g id="node22" class="node">
<title>épuisement de la ressource</title>
<ellipse fill="#000004" stroke="white" stroke-width="0" cx="114.5" cy="-40.84" rx="0.5" ry="0.5"/>
<text text-anchor="middle" x="57" y="-43.94" font-family="Helvetica,sans-Serif" font-size="8.00" fill="#4d4d4d">épuisement de la ressource</text>
</g>
<!-- main d’oeuvre -->
<g id="node23" class="node">
<title>main d’oeuvre</title>
<ellipse fill="#1c0c43" stroke="white" stroke-width="0" cx="455.41" cy="-483.34" rx="3.5" ry="3.5"/>
<text text-anchor="middle" x="422.91" y="-489.44" font-family="Helvetica,sans-Serif" font-size="8.00" fill="#4d4d4d">main d’oeuvre</text>
</g>
<!-- ressource non&#45;renouvelable -->
<g id="node24" class="node">
<title>ressource non&#45;renouvelable</title>
<ellipse fill="#1f0c48" stroke="white" stroke-width="0" cx="301.59" cy="-440.99" rx="3.5" ry="3.5"/>
<text text-anchor="middle" x="240.59" y="-447.09" font-family="Helvetica,sans-Serif" font-size="8.00" fill="#4d4d4d">ressource non&#45;renouvelable</text>
</g>
<!-- localité -->
<g id="node25" class="node">
<title>localité</title>
<ellipse fill="#0c0826" stroke="white" stroke-width="0" cx="614.99" cy="-613.48" rx="3.5" ry="3.5"/>
<text text-anchor="middle" x="595.99" y="-619.58" font-family="Helvetica,sans-Serif" font-size="8.00" fill="#4d4d4d">localité</text>
</g>
</g>
</svg>
