<?xml version="1.0" encoding="UTF-8" standalone="no"?>
<!DOCTYPE svg PUBLIC "-//W3C//DTD SVG 1.1//EN"
 "http://www.w3.org/Graphics/SVG/1.1/DTD/svg11.dtd">
<!-- Generated by graphviz version 2.43.0 (0)
 -->
<!-- Pages: 1 -->
<svg width="862pt" height="663pt"
 viewBox="0.00 0.00 862.36 663.32" xmlns="http://www.w3.org/2000/svg" xmlns:xlink="http://www.w3.org/1999/xlink">
<g id="graph0" class="graph" transform="scale(1 1) rotate(0) translate(4 659.32)">
<polygon fill="white" stroke="transparent" points="-4,4 -4,-659.32 858.36,-659.32 858.36,4 -4,4"/>
<!-- pollution&#45;&#45;emploi -->
<g id="edge1" class="edge">
<title>pollution&#45;&#45;emploi</title>
<path fill="none" stroke="darkgrey" stroke-width="10" d="M378.22,-403.25C383.28,-407.56 388.72,-412.2 393.97,-416.69"/>
</g>
<!-- pollution&#45;&#45;richesse -->
<g id="edge2" class="edge">
<title>pollution&#45;&#45;richesse</title>
<path fill="none" stroke="darkgrey" stroke-width="2.18" d="M342.11,-409.76C325.56,-440.11 298.74,-489.3 287.43,-510.04"/>
</g>
<!-- pollution&#45;&#45;démolition -->
<g id="edge3" class="edge">
<title>pollution&#45;&#45;démolition</title>
<path fill="none" stroke="darkgrey" stroke-width="3.21" d="M344.34,-357.3C322.61,-306.99 277.01,-201.45 265.29,-174.31"/>
</g>
<!-- pollution&#45;&#45;argent -->
<g id="edge4" class="edge">
<title>pollution&#45;&#45;argent</title>
<path fill="none" stroke="darkgrey" stroke-width="2.11" d="M380.54,-368.56C432.54,-335.26 551.34,-259.17 579.35,-241.24"/>
</g>
<!-- pollution&#45;&#45;nickel -->
<g id="edge5" class="edge">
<title>pollution&#45;&#45;nickel</title>
<path fill="none" stroke="darkgrey" stroke-width="5.3" d="M385.3,-383.09C407.63,-382.18 438.39,-380.92 461.51,-379.98"/>
</g>
<!-- pollution&#45;&#45;exploitation -->
<g id="edge6" class="edge">
<title>pollution&#45;&#45;exploitation</title>
<path fill="none" stroke="darkgrey" stroke-width="2.02" d="M365.11,-412.14C377.94,-451.39 400.86,-521.46 410.58,-551.2"/>
</g>
<!-- pollution&#45;&#45;montagne -->
<g id="edge7" class="edge">
<title>pollution&#45;&#45;montagne</title>
<path fill="none" stroke="darkgrey" stroke-width="1.57" d="M349.31,-355.82C341.98,-324.61 330.69,-276.57 326.49,-258.67"/>
</g>
<!-- pollution&#45;&#45;camion -->
<g id="edge8" class="edge">
<title>pollution&#45;&#45;camion</title>
<path fill="none" stroke="darkgrey" stroke-width="2.31" d="M355.61,-413.48C355.54,-418.97 355.47,-424.38 355.41,-428.88"/>
</g>
<!-- pollution&#45;&#45;économie -->
<g id="edge9" class="edge">
<title>pollution&#45;&#45;économie</title>
<path fill="none" stroke="darkgrey" stroke-width="4.92" d="M340.37,-409.12C315.74,-448.27 268.6,-523.23 248.17,-555.69"/>
</g>
<!-- pollution&#45;&#45;impact environnemental -->
<g id="edge10" class="edge">
<title>pollution&#45;&#45;impact environnemental</title>
<path fill="none" stroke="darkgrey" stroke-width="4.46" d="M328.27,-374.92C312.34,-369.54 292.82,-362.95 279.08,-358.31"/>
</g>
<!-- pollution&#45;&#45;terre -->
<g id="edge11" class="edge">
<title>pollution&#45;&#45;terre</title>
<path fill="none" stroke="darkgrey" stroke-width="1.51" d="M326.92,-387.83C292.08,-392.08 235.9,-398.94 216.06,-401.36"/>
</g>
<!-- pollution&#45;&#45;usine -->
<g id="edge12" class="edge">
<title>pollution&#45;&#45;usine</title>
<path fill="none" stroke="darkgrey" stroke-width="1.51" d="M358.48,-413.54C363.42,-471.89 374.27,-599.91 376.98,-631.94"/>
</g>
<!-- pollution&#45;&#45;ressource -->
<g id="edge13" class="edge">
<title>pollution&#45;&#45;ressource</title>
<path fill="none" stroke="darkgrey" stroke-width="1.22" d="M379.77,-401.06C420.45,-429.76 501.19,-486.74 523.68,-502.61"/>
</g>
<!-- pollution&#45;&#45;conflit -->
<g id="edge14" class="edge">
<title>pollution&#45;&#45;conflit</title>
<path fill="none" stroke="darkgrey" stroke-width="1.65" d="M332.43,-401.89C275.72,-444.28 134.73,-549.67 113.04,-565.88"/>
</g>
<!-- pollution&#45;&#45;développement -->
<g id="edge15" class="edge">
<title>pollution&#45;&#45;développement</title>
<path fill="none" stroke="darkgrey" stroke-width="1.91" d="M337.25,-361.84C285.02,-299.3 141.02,-126.89 132.07,-116.18"/>
</g>
<!-- pollution&#45;&#45;minerai -->
<g id="edge16" class="edge">
<title>pollution&#45;&#45;minerai</title>
<path fill="none" stroke="darkgrey" stroke-width="1.34" d="M372.6,-408.32C407.78,-459.24 488.14,-575.59 507.08,-603.02"/>
</g>
<!-- pollution&#45;&#45;déforestation -->
<g id="edge17" class="edge">
<title>pollution&#45;&#45;déforestation</title>
<path fill="none" stroke="darkgrey" stroke-width="2.05" d="M385.14,-382.31C452.66,-377.75 616.08,-366.72 642.43,-364.94"/>
</g>
<!-- emploi&#45;&#45;richesse -->
<g id="edge18" class="edge">
<title>emploi&#45;&#45;richesse</title>
<path fill="none" stroke="darkgrey" stroke-width="3.53" d="M390.34,-458.13C358.85,-476.06 312.15,-502.65 292,-514.13"/>
</g>
<!-- emploi&#45;&#45;démolition -->
<g id="edge19" class="edge">
<title>emploi&#45;&#45;démolition</title>
<path fill="none" stroke="darkgrey" stroke-width="1.9" d="M403.39,-409.05C366.32,-345.59 284.2,-205.01 266.08,-173.97"/>
</g>
<!-- emploi&#45;&#45;argent -->
<g id="edge20" class="edge">
<title>emploi&#45;&#45;argent</title>
<path fill="none" stroke="darkgrey" stroke-width="3.07" d="M444.41,-412.09C483.59,-363.53 561.45,-267.01 580.87,-242.94"/>
</g>
<!-- emploi&#45;&#45;nickel -->
<g id="edge21" class="edge">
<title>emploi&#45;&#45;nickel</title>
<path fill="none" stroke="darkgrey" stroke-width="6.57" d="M449.47,-416.65C456.02,-411.08 462.96,-405.18 469.36,-399.73"/>
</g>
<!-- emploi&#45;&#45;exploitation -->
<g id="edge22" class="edge">
<title>emploi&#45;&#45;exploitation</title>
<path fill="none" stroke="darkgrey" stroke-width="1.86" d="M419.77,-476.42C418.49,-501.05 416.86,-532.37 415.92,-550.45"/>
</g>
<!-- emploi&#45;&#45;montagne -->
<g id="edge23" class="edge">
<title>emploi&#45;&#45;montagne</title>
<path fill="none" stroke="darkgrey" d="M405.01,-407.87C381.43,-361.93 339.87,-280.93 328.05,-257.9"/>
</g>
<!-- emploi&#45;&#45;camion -->
<g id="edge24" class="edge">
<title>emploi&#45;&#45;camion</title>
<path fill="none" stroke="darkgrey" stroke-width="1.42" d="M385.35,-440.18C378.45,-440.15 371.73,-440.13 366.4,-440.11"/>
</g>
<!-- emploi&#45;&#45;économie -->
<g id="edge25" class="edge">
<title>emploi&#45;&#45;économie</title>
<path fill="none" stroke="darkgrey" stroke-width="7.2" d="M392.2,-461.36C352.52,-489.71 283.41,-539.11 253.19,-560.71"/>
</g>
<!-- emploi&#45;&#45;impact environnemental -->
<g id="edge26" class="edge">
<title>emploi&#45;&#45;impact environnemental</title>
<path fill="none" stroke="darkgrey" stroke-width="5.71" d="M390.09,-422.96C356.26,-404.37 303.92,-375.6 277.82,-361.26"/>
</g>
<!-- emploi&#45;&#45;terre -->
<g id="edge27" class="edge">
<title>emploi&#45;&#45;terre</title>
<path fill="none" stroke="darkgrey" stroke-width="1.5" d="M386.03,-433.94C334.44,-424.71 242.22,-408.21 215.98,-403.52"/>
</g>
<!-- emploi&#45;&#45;usine -->
<g id="edge28" class="edge">
<title>emploi&#45;&#45;usine</title>
<path fill="none" stroke="darkgrey" stroke-width="1.25" d="M413.77,-475.89C403.04,-524.41 384.51,-608.1 379.12,-632.47"/>
</g>
<!-- emploi&#45;&#45;ressource -->
<g id="edge30" class="edge">
<title>emploi&#45;&#45;ressource</title>
<path fill="none" stroke="darkgrey" stroke-width="1.65" d="M452.59,-459.36C477.26,-474.56 509.85,-494.62 523.34,-502.94"/>
</g>
<!-- emploi&#45;&#45;conflit -->
<g id="edge31" class="edge">
<title>emploi&#45;&#45;conflit</title>
<path fill="none" stroke="darkgrey" stroke-width="2.67" d="M388.32,-453.97C314.26,-484.34 140.41,-555.61 113.7,-566.56"/>
</g>
<!-- emploi&#45;&#45;minerai -->
<g id="edge32" class="edge">
<title>emploi&#45;&#45;minerai</title>
<path fill="none" stroke="darkgrey" stroke-width="1.06" d="M438.69,-472.41C460.5,-513.49 496.78,-581.83 507.84,-602.67"/>
</g>
<!-- emploi&#45;&#45;déforestation -->
<g id="edge33" class="edge">
<title>emploi&#45;&#45;déforestation</title>
<path fill="none" stroke="darkgrey" stroke-width="1.53" d="M456.22,-428.66C513.02,-409.52 621.88,-372.84 642.6,-365.85"/>
</g>
<!-- emploi&#45;&#45;sln -->
<g id="edge29" class="edge">
<title>emploi&#45;&#45;sln</title>
<path fill="none" stroke="darkgrey" stroke-width="1.22" d="M457.58,-445.45C533.74,-456.35 707.44,-481.21 744.53,-486.52"/>
</g>
<!-- richesse&#45;&#45;nickel -->
<g id="edge34" class="edge">
<title>richesse&#45;&#45;nickel</title>
<path fill="none" stroke="darkgrey" stroke-width="2.14" d="M291.52,-513.5C321.98,-493.23 418.84,-428.77 466.76,-396.88"/>
</g>
<!-- richesse&#45;&#45;exploitation -->
<g id="edge35" class="edge">
<title>richesse&#45;&#45;exploitation</title>
<path fill="none" stroke="darkgrey" stroke-width="1.13" d="M292.58,-523.3C316.34,-531.42 374.48,-551.27 401.25,-560.41"/>
</g>
<!-- richesse&#45;&#45;économie -->
<g id="edge36" class="edge">
<title>richesse&#45;&#45;économie</title>
<path fill="none" stroke="darkgrey" stroke-width="1.65" d="M274.91,-528.26C268.2,-536.16 258.1,-548.06 250.21,-557.35"/>
</g>
<!-- richesse&#45;&#45;impact environnemental -->
<g id="edge37" class="edge">
<title>richesse&#45;&#45;impact environnemental</title>
<path fill="none" stroke="darkgrey" stroke-width="1.83" d="M280.81,-508.77C277.4,-480.57 268.3,-405.37 264.09,-370.6"/>
</g>
<!-- richesse&#45;&#45;terre -->
<g id="edge38" class="edge">
<title>richesse&#45;&#45;terre</title>
<path fill="none" stroke="darkgrey" stroke-width="1.18" d="M276.14,-510.13C261.58,-486.78 224.65,-427.6 212.66,-408.38"/>
</g>
<!-- démolition&#45;&#45;impact environnemental -->
<g id="edge39" class="edge">
<title>démolition&#45;&#45;impact environnemental</title>
<path fill="none" stroke="darkgrey" stroke-width="1.21" d="M262.47,-174.84C262.38,-201.2 262.08,-294.81 261.96,-334.5"/>
</g>
<!-- argent&#45;&#45;nickel -->
<g id="edge40" class="edge">
<title>argent&#45;&#45;nickel</title>
<path fill="none" stroke="darkgrey" stroke-width="2.69" d="M581.43,-243.47C569.6,-261.79 533.71,-317.37 511.82,-351.29"/>
</g>
<!-- nickel&#45;&#45;exploitation -->
<g id="edge41" class="edge">
<title>nickel&#45;&#45;exploitation</title>
<path fill="none" stroke="darkgrey" stroke-width="2.93" d="M481.46,-408.62C464.1,-449.6 433.66,-521.46 420.97,-551.43"/>
</g>
<!-- nickel&#45;&#45;montagne -->
<g id="edge42" class="edge">
<title>nickel&#45;&#45;montagne</title>
<path fill="none" stroke="darkgrey" stroke-width="2.16" d="M468.07,-359.08C427.62,-328.74 352.19,-272.15 330.69,-256.02"/>
</g>
<!-- nickel&#45;&#45;camion -->
<g id="edge43" class="edge">
<title>nickel&#45;&#45;camion</title>
<path fill="none" stroke="darkgrey" stroke-width="3.37" d="M464.36,-391.83C433.27,-405.58 386.25,-426.37 365.6,-435.5"/>
</g>
<!-- nickel&#45;&#45;économie -->
<g id="edge44" class="edge">
<title>nickel&#45;&#45;économie</title>
<path fill="none" stroke="darkgrey" stroke-width="3.74" d="M467.74,-398.55C414.25,-438.84 294.67,-528.9 253,-560.29"/>
</g>
<!-- nickel&#45;&#45;impact environnemental -->
<g id="edge45" class="edge">
<title>nickel&#45;&#45;impact environnemental</title>
<path fill="none" stroke="darkgrey" stroke-width="2.82" d="M461.37,-374.96C411.73,-369.37 319.14,-358.95 280.05,-354.55"/>
</g>
<!-- nickel&#45;&#45;terre -->
<g id="edge48" class="edge">
<title>nickel&#45;&#45;terre</title>
<path fill="none" stroke="darkgrey" stroke-width="1.43" d="M461.7,-381.34C395.97,-386.77 250.45,-398.8 216.17,-401.64"/>
</g>
<!-- nickel&#45;&#45;usine -->
<g id="edge49" class="edge">
<title>nickel&#45;&#45;usine</title>
<path fill="none" stroke="darkgrey" stroke-width="3.11" d="M480.78,-408.56C453.88,-468.73 394.56,-601.39 380.59,-632.63"/>
</g>
<!-- nickel&#45;&#45;ressource -->
<g id="edge51" class="edge">
<title>nickel&#45;&#45;ressource</title>
<path fill="none" stroke="darkgrey" stroke-width="1.43" d="M502.83,-410C511.11,-439.94 523,-482.9 527.65,-499.69"/>
</g>
<!-- nickel&#45;&#45;minerai -->
<g id="edge53" class="edge">
<title>nickel&#45;&#45;minerai</title>
<path fill="none" stroke="darkgrey" stroke-width="2.84" d="M496.55,-411.15C500.59,-465.94 508.53,-573.5 510.62,-601.88"/>
</g>
<!-- nickel&#45;&#45;déforestation -->
<g id="edge54" class="edge">
<title>nickel&#45;&#45;déforestation</title>
<path fill="none" stroke="darkgrey" stroke-width="1.37" d="M526.74,-375.66C565.44,-372.1 626.74,-366.47 642.34,-365.03"/>
</g>
<!-- nickel&#45;&#45;sln -->
<g id="edge50" class="edge">
<title>nickel&#45;&#45;sln</title>
<path fill="none" stroke="darkgrey" stroke-width="3.65" d="M524.18,-391.36C583.87,-416.6 714.29,-471.76 745.01,-484.75"/>
</g>
<!-- nickel&#45;&#45;roche -->
<g id="edge46" class="edge">
<title>nickel&#45;&#45;roche</title>
<path fill="none" stroke="darkgrey" stroke-width="1.86" d="M487.82,-346.34C476.89,-290.56 455.1,-179.33 449.35,-149.96"/>
</g>
<!-- nickel&#45;&#45;terre rouge -->
<g id="edge47" class="edge">
<title>nickel&#45;&#45;terre rouge</title>
<path fill="none" stroke="darkgrey" stroke-width="2.06" d="M503.4,-347.31C528.15,-263.49 594.61,-38.36 603.84,-7.12"/>
</g>
<!-- nickel&#45;&#45;usine du sud -->
<g id="edge52" class="edge">
<title>nickel&#45;&#45;usine du sud</title>
<path fill="none" stroke="darkgrey" stroke-width="1.45" d="M526.71,-376.38C612.49,-370.39 839.1,-354.55 853.17,-353.57"/>
</g>
<!-- exploitation&#45;&#45;impact environnemental -->
<g id="edge55" class="edge">
<title>exploitation&#45;&#45;impact environnemental</title>
<path fill="none" stroke="darkgrey" stroke-width="2.04" d="M406.47,-553.12C380.13,-516.57 301.15,-406.98 272.46,-367.16"/>
</g>
<!-- exploitation&#45;&#45;usine -->
<g id="edge56" class="edge">
<title>exploitation&#45;&#45;usine</title>
<path fill="none" stroke="darkgrey" stroke-width="1.22" d="M408.44,-578.42C400.34,-594.42 387.04,-620.67 380.9,-632.8"/>
</g>
<!-- exploitation&#45;&#45;ressource -->
<g id="edge57" class="edge">
<title>exploitation&#45;&#45;ressource</title>
<path fill="none" stroke="darkgrey" stroke-width="1.83" d="M428.28,-558.46C452.94,-545.89 505.33,-519.18 523.36,-509.98"/>
</g>
<!-- exploitation&#45;&#45;minerai -->
<g id="edge58" class="edge">
<title>exploitation&#45;&#45;minerai</title>
<path fill="none" stroke="darkgrey" stroke-width="2.37" d="M428.5,-571.24C449.31,-580.72 488.73,-598.68 504.44,-605.83"/>
</g>
<!-- montagne&#45;&#45;camion -->
<g id="edge59" class="edge">
<title>montagne&#45;&#45;camion</title>
<path fill="none" stroke="darkgrey" stroke-width="1.16" d="M325.99,-258.79C330.62,-287.42 347.81,-393.91 353.46,-428.87"/>
</g>
<!-- montagne&#45;&#45;terre -->
<g id="edge61" class="edge">
<title>montagne&#45;&#45;terre</title>
<path fill="none" stroke="darkgrey" stroke-width="1.14" d="M320.43,-257.35C302.05,-281.21 231.63,-372.65 213.25,-396.52"/>
</g>
<!-- montagne&#45;&#45;roche -->
<g id="edge60" class="edge">
<title>montagne&#45;&#45;roche</title>
<path fill="none" stroke="darkgrey" stroke-width="1.25" d="M330.12,-246.95C350.28,-229.11 422.16,-165.51 442.52,-147.49"/>
</g>
<!-- camion&#45;&#45;terre -->
<g id="edge63" class="edge">
<title>camion&#45;&#45;terre</title>
<path fill="none" stroke="darkgrey" stroke-width="1.09" d="M344.26,-437.23C315.53,-429.8 238.87,-410 215.62,-404"/>
</g>
<!-- camion&#45;&#45;usine -->
<g id="edge64" class="edge">
<title>camion&#45;&#45;usine</title>
<path fill="none" stroke="darkgrey" stroke-width="1.45" d="M356.5,-451.07C360.56,-487.29 373.45,-602.26 376.8,-632.16"/>
</g>
<!-- camion&#45;&#45;minerai -->
<g id="edge65" class="edge">
<title>camion&#45;&#45;minerai</title>
<path fill="none" stroke="darkgrey" stroke-width="1.21" d="M362.78,-448.21C390.15,-477.85 484.01,-579.51 506.34,-603.69"/>
</g>
<!-- camion&#45;&#45;roche -->
<g id="edge62" class="edge">
<title>camion&#45;&#45;roche</title>
<path fill="none" stroke="darkgrey" stroke-width="1.33" d="M358.56,-429.49C373.39,-381.89 433.71,-188.33 445.81,-149.51"/>
</g>
<!-- économie&#45;&#45;impact environnemental -->
<g id="edge66" class="edge">
<title>économie&#45;&#45;impact environnemental</title>
<path fill="none" stroke="darkgrey" stroke-width="5.77" d="M240.26,-553.42C244.68,-512.39 255.5,-411.93 259.94,-370.66"/>
</g>
<!-- économie&#45;&#45;usine -->
<g id="edge67" class="edge">
<title>économie&#45;&#45;usine</title>
<path fill="none" stroke="darkgrey" stroke-width="1.09" d="M254.58,-579.26C285.29,-594.26 350.63,-626.15 371.24,-636.21"/>
</g>
<!-- économie&#45;&#45;conflit -->
<g id="edge68" class="edge">
<title>économie&#45;&#45;conflit</title>
<path fill="none" stroke="darkgrey" stroke-width="1.15" d="M220.25,-570.86C189.63,-570.06 129.38,-568.49 113.91,-568.08"/>
</g>
<!-- impact environnemental&#45;&#45;terre -->
<g id="edge69" class="edge">
<title>impact environnemental&#45;&#45;terre</title>
<path fill="none" stroke="darkgrey" stroke-width="1.05" d="M248.51,-365.06C237.33,-375.53 222,-389.91 214.06,-397.34"/>
</g>
<!-- impact environnemental&#45;&#45;ressource -->
<g id="edge70" class="edge">
<title>impact environnemental&#45;&#45;ressource</title>
<path fill="none" stroke="darkgrey" stroke-width="1.01" d="M277.84,-361.7C329.4,-391.41 490.18,-484.07 523.52,-503.29"/>
</g>
<!-- impact environnemental&#45;&#45;développement -->
<g id="edge71" class="edge">
<title>impact environnemental&#45;&#45;développement</title>
<path fill="none" stroke="darkgrey" stroke-width="1.03" d="M253.15,-336.6C224.85,-285.15 137.34,-126.04 131.9,-116.14"/>
</g>
<!-- impact environnemental&#45;&#45;exportation -->
<g id="edge72" class="edge">
<title>impact environnemental&#45;&#45;exportation</title>
<path fill="none" stroke="darkgrey" d="M245.78,-344.27C197.87,-319.78 58.95,-248.76 48.16,-243.25"/>
</g>
<!-- usine&#45;&#45;minerai -->
<g id="edge73" class="edge">
<title>usine&#45;&#45;minerai</title>
<path fill="none" stroke="darkgrey" stroke-width="2.02" d="M384.78,-637.68C408.08,-632.37 481.37,-615.67 504.25,-610.46"/>
</g>
<!-- ressource&#45;&#45;minerai -->
<g id="edge75" class="edge">
<title>ressource&#45;&#45;minerai</title>
<path fill="none" stroke="darkgrey" stroke-width="1.49" d="M528.34,-513.81C524.97,-532.46 515.8,-583.12 512.42,-601.82"/>
</g>
<!-- sln&#45;&#45;usine du sud -->
<g id="edge74" class="edge">
<title>sln&#45;&#45;usine du sud</title>
<path fill="none" stroke="darkgrey" stroke-width="1.09" d="M755.97,-481.77C774.63,-457.32 846.65,-362.97 853.36,-354.18"/>
</g>
<!-- pollution -->
<g id="node1" class="node">
<title>pollution</title>
<ellipse fill="#fb9b06" stroke="white" stroke-width="0" cx="356" cy="-384.28" rx="29" ry="29"/>
<text text-anchor="middle" x="308.5" y="-415.88" font-family="Helvetica,sans-Serif" font-size="8.00" fill="#4d4d4d">pollution</text>
</g>
<!-- emploi -->
<g id="node2" class="node">
<title>emploi</title>
<ellipse fill="#fcffa4" stroke="white" stroke-width="0" cx="421.65" cy="-440.31" rx="36" ry="36"/>
<text text-anchor="middle" x="371.65" y="-478.91" font-family="Helvetica,sans-Serif" font-size="8.00" fill="#4d4d4d">emploi</text>
</g>
<!-- richesse -->
<g id="node3" class="node">
<title>richesse</title>
<ellipse fill="#5a116e" stroke="white" stroke-width="0" cx="282.14" cy="-519.74" rx="11" ry="11"/>
<text text-anchor="middle" x="253.64" y="-533.34" font-family="Helvetica,sans-Serif" font-size="8.00" fill="#4d4d4d">richesse</text>
</g>
<!-- démolition -->
<g id="node4" class="node">
<title>démolition</title>
<ellipse fill="#260c51" stroke="white" stroke-width="0" cx="262.49" cy="-167.83" rx="7" ry="7"/>
<text text-anchor="middle" x="233.49" y="-177.43" font-family="Helvetica,sans-Serif" font-size="8.00" fill="#4d4d4d">démolition</text>
</g>
<!-- argent -->
<g id="node5" class="node">
<title>argent</title>
<ellipse fill="#3e0966" stroke="white" stroke-width="0" cx="585.34" cy="-237.4" rx="7" ry="7"/>
<text text-anchor="middle" x="564.34" y="-247" font-family="Helvetica,sans-Serif" font-size="8.00" fill="#4d4d4d">argent</text>
</g>
<!-- nickel -->
<g id="node6" class="node">
<title>nickel</title>
<ellipse fill="#f8cd37" stroke="white" stroke-width="0" cx="494.15" cy="-378.65" rx="32.5" ry="32.5"/>
<text text-anchor="middle" x="449.65" y="-348.75" font-family="Helvetica,sans-Serif" font-size="8.00" fill="#4d4d4d">nickel</text>
</g>
<!-- exploitation -->
<g id="node7" class="node">
<title>exploitation</title>
<ellipse fill="#87216b" stroke="white" stroke-width="0" cx="415.15" cy="-565.16" rx="14.5" ry="14.5"/>
<text text-anchor="middle" x="376.15" y="-582.26" font-family="Helvetica,sans-Serif" font-size="8.00" fill="#4d4d4d">exploitation</text>
</g>
<!-- montagne -->
<g id="node8" class="node">
<title>montagne</title>
<ellipse fill="#280b53" stroke="white" stroke-width="0" cx="324.83" cy="-251.63" rx="7" ry="7"/>
<text text-anchor="middle" x="296.33" y="-261.23" font-family="Helvetica,sans-Serif" font-size="8.00" fill="#4d4d4d">montagne</text>
</g>
<!-- camion -->
<g id="node9" class="node">
<title>camion</title>
<ellipse fill="#550f6d" stroke="white" stroke-width="0" cx="355.27" cy="-440.07" rx="11" ry="11"/>
<text text-anchor="middle" x="328.77" y="-453.67" font-family="Helvetica,sans-Serif" font-size="8.00" fill="#4d4d4d">camion</text>
</g>
<!-- économie -->
<g id="node10" class="node">
<title>économie</title>
<ellipse fill="#b93556" stroke="white" stroke-width="0" cx="238.34" cy="-571.33" rx="18" ry="18"/>
<text text-anchor="middle" x="199.84" y="-591.93" font-family="Helvetica,sans-Serif" font-size="8.00" fill="#4d4d4d">économie</text>
</g>
<!-- impact environnemental -->
<g id="node11" class="node">
<title>impact environnemental</title>
<ellipse fill="#ca404a" stroke="white" stroke-width="0" cx="261.9" cy="-352.51" rx="18" ry="18"/>
<text text-anchor="middle" x="193.9" y="-373.11" font-family="Helvetica,sans-Serif" font-size="8.00" fill="#4d4d4d">impact environnemental</text>
</g>
<!-- terre -->
<g id="node12" class="node">
<title>terre</title>
<ellipse fill="#260c51" stroke="white" stroke-width="0" cx="208.84" cy="-402.24" rx="7" ry="7"/>
<text text-anchor="middle" x="192.34" y="-411.84" font-family="Helvetica,sans-Serif" font-size="8.00" fill="#4d4d4d">terre</text>
</g>
<!-- usine -->
<g id="node13" class="node">
<title>usine</title>
<ellipse fill="#3d0965" stroke="white" stroke-width="0" cx="377.6" cy="-639.32" rx="7" ry="7"/>
<text text-anchor="middle" x="359.1" y="-648.92" font-family="Helvetica,sans-Serif" font-size="8.00" fill="#4d4d4d">usine</text>
</g>
<!-- ressource -->
<g id="node14" class="node">
<title>ressource</title>
<ellipse fill="#310a5c" stroke="white" stroke-width="0" cx="529.61" cy="-506.8" rx="7" ry="7"/>
<text text-anchor="middle" x="502.61" y="-516.4" font-family="Helvetica,sans-Serif" font-size="8.00" fill="#4d4d4d">ressource</text>
</g>
<!-- conflit -->
<g id="node15" class="node">
<title>conflit</title>
<ellipse fill="#210c4a" stroke="white" stroke-width="0" cx="110.23" cy="-567.99" rx="3.5" ry="3.5"/>
<text text-anchor="middle" x="93.73" y="-574.09" font-family="Helvetica,sans-Serif" font-size="8.00" fill="#4d4d4d">conflit</text>
</g>
<!-- développement -->
<g id="node16" class="node">
<title>développement</title>
<ellipse fill="#010005" stroke="white" stroke-width="0" cx="131.63" cy="-115.66" rx="0.5" ry="0.5"/>
<text text-anchor="middle" x="98.63" y="-118.76" font-family="Helvetica,sans-Serif" font-size="8.00" fill="#4d4d4d">développement</text>
</g>
<!-- minerai -->
<g id="node17" class="node">
<title>minerai</title>
<ellipse fill="#400a67" stroke="white" stroke-width="0" cx="511.14" cy="-608.89" rx="7" ry="7"/>
<text text-anchor="middle" x="488.64" y="-618.49" font-family="Helvetica,sans-Serif" font-size="8.00" fill="#4d4d4d">minerai</text>
</g>
<!-- déforestation -->
<g id="node18" class="node">
<title>déforestation</title>
<ellipse fill="#0b0724" stroke="white" stroke-width="0" cx="646.05" cy="-364.69" rx="3.5" ry="3.5"/>
<text text-anchor="middle" x="615.05" y="-370.79" font-family="Helvetica,sans-Serif" font-size="8.00" fill="#4d4d4d">déforestation</text>
</g>
<!-- sln -->
<g id="node19" class="node">
<title>sln</title>
<ellipse fill="#280b53" stroke="white" stroke-width="0" cx="751.58" cy="-487.52" rx="7" ry="7"/>
<text text-anchor="middle" x="738.08" y="-497.12" font-family="Helvetica,sans-Serif" font-size="8.00" fill="#4d4d4d">sln</text>
</g>
<!-- roche -->
<g id="node20" class="node">
<title>roche</title>
<ellipse fill="#3b0964" stroke="white" stroke-width="0" cx="447.93" cy="-142.71" rx="7" ry="7"/>
<text text-anchor="middle" x="429.43" y="-152.31" font-family="Helvetica,sans-Serif" font-size="8.00" fill="#4d4d4d">roche</text>
</g>
<!-- terre rouge -->
<g id="node21" class="node">
<title>terre rouge</title>
<ellipse fill="#0c0826" stroke="white" stroke-width="0" cx="604.9" cy="-3.5" rx="3.5" ry="3.5"/>
<text text-anchor="middle" x="578.9" y="-9.6" font-family="Helvetica,sans-Serif" font-size="8.00" fill="#4d4d4d">terre rouge</text>
</g>
<!-- usine du sud -->
<g id="node22" class="node">
<title>usine du sud</title>
<ellipse fill="#000004" stroke="white" stroke-width="0" cx="853.86" cy="-353.52" rx="0.5" ry="0.5"/>
<text text-anchor="middle" x="826.86" y="-356.62" font-family="Helvetica,sans-Serif" font-size="8.00" fill="#4d4d4d">usine du sud</text>
</g>
<!-- exportation -->
<g id="node23" class="node">
<title>exportation</title>
<ellipse fill="#010106" stroke="white" stroke-width="0" cx="47.5" cy="-242.91" rx="0.5" ry="0.5"/>
<text text-anchor="middle" x="23.5" y="-246.01" font-family="Helvetica,sans-Serif" font-size="8.00" fill="#4d4d4d">exportation</text>
</g>
</g>
</svg>
