<?xml version="1.0" encoding="UTF-8" standalone="no"?>
<!DOCTYPE svg PUBLIC "-//W3C//DTD SVG 1.1//EN"
 "http://www.w3.org/Graphics/SVG/1.1/DTD/svg11.dtd">
<!-- Generated by graphviz version 2.43.0 (0)
 -->
<!-- Pages: 1 -->
<svg width="894pt" height="518pt"
 viewBox="0.00 0.00 893.75 517.55" xmlns="http://www.w3.org/2000/svg" xmlns:xlink="http://www.w3.org/1999/xlink">
<g id="graph0" class="graph" transform="scale(1 1) rotate(0) translate(4 513.55)">
<polygon fill="white" stroke="transparent" points="-4,4 -4,-513.55 889.75,-513.55 889.75,4 -4,4"/>
<!-- avenir sans nickel&#45;&#45;industrie -->
<g id="edge1" class="edge">
<title>avenir sans nickel&#45;&#45;industrie</title>
<path fill="none" stroke="darkgrey" stroke-width="1.05" d="M400.23,-159.98C335.72,-121.08 168.29,-20.09 143.8,-5.32"/>
</g>
<!-- avenir sans nickel&#45;&#45;travail -->
<g id="edge2" class="edge">
<title>avenir sans nickel&#45;&#45;travail</title>
<path fill="none" stroke="darkgrey" stroke-width="3.05" d="M403.32,-194.34C383.13,-211.74 353.95,-236.89 336.98,-251.52"/>
</g>
<!-- avenir sans nickel&#45;&#45;politique -->
<g id="edge3" class="edge">
<title>avenir sans nickel&#45;&#45;politique</title>
<path fill="none" stroke="darkgrey" stroke-width="3.38" d="M444.64,-197.17C473.05,-229.74 525.75,-290.14 551.03,-319.11"/>
</g>
<!-- avenir sans nickel&#45;&#45;secteur nickel -->
<g id="edge4" class="edge">
<title>avenir sans nickel&#45;&#45;secteur nickel</title>
<path fill="none" stroke="darkgrey" stroke-width="2.71" d="M450.99,-189.13C470.38,-199.71 496.62,-214.03 514.17,-223.6"/>
</g>
<!-- avenir sans nickel&#45;&#45;relation politique -->
<g id="edge5" class="edge">
<title>avenir sans nickel&#45;&#45;relation politique</title>
<path fill="none" stroke="darkgrey" stroke-width="1.21" d="M452.09,-187.08C503.95,-210.18 615.27,-259.78 635.69,-268.87"/>
</g>
<!-- avenir sans nickel&#45;&#45;avenir avec nickel -->
<g id="edge6" class="edge">
<title>avenir sans nickel&#45;&#45;avenir avec nickel</title>
<path fill="none" stroke="darkgrey" stroke-width="3.16" d="M439.57,-149.44C446.97,-135.89 455.6,-120.09 461.03,-110.13"/>
</g>
<!-- avenir sans nickel&#45;&#45;pollution -->
<g id="edge7" class="edge">
<title>avenir sans nickel&#45;&#45;pollution</title>
<path fill="none" stroke="darkgrey" stroke-width="4.86" d="M423.1,-204.39C419.66,-246.43 413.37,-323.35 410.12,-363.03"/>
</g>
<!-- avenir sans nickel&#45;&#45;ressource minière -->
<g id="edge8" class="edge">
<title>avenir sans nickel&#45;&#45;ressource minière</title>
<path fill="none" stroke="darkgrey" stroke-width="5.75" d="M436.41,-202.5C440.47,-212.65 445.03,-224.06 448.94,-233.82"/>
</g>
<!-- avenir sans nickel&#45;&#45;dégradation environnementale -->
<g id="edge9" class="edge">
<title>avenir sans nickel&#45;&#45;dégradation environnementale</title>
<path fill="none" stroke="darkgrey" stroke-width="5.33" d="M410.39,-200.37C395.1,-225.82 371.45,-265.2 355.03,-292.55"/>
</g>
<!-- avenir sans nickel&#45;&#45;société néo&#45;calédonienne -->
<g id="edge10" class="edge">
<title>avenir sans nickel&#45;&#45;société néo&#45;calédonienne</title>
<path fill="none" stroke="darkgrey" stroke-width="2.74" d="M420.44,-203.82C409.86,-263.75 385.68,-400.64 377.77,-445.43"/>
</g>
<!-- avenir sans nickel&#45;&#45;alternative au développement -->
<g id="edge11" class="edge">
<title>avenir sans nickel&#45;&#45;alternative au développement</title>
<path fill="none" stroke="darkgrey" stroke-width="4" d="M421.47,-204.15C418.39,-226.34 414.18,-256.64 411.24,-277.76"/>
</g>
<!-- avenir sans nickel&#45;&#45;économie -->
<g id="edge12" class="edge">
<title>avenir sans nickel&#45;&#45;économie</title>
<path fill="none" stroke="darkgrey" stroke-width="2.28" d="M433.88,-203.03C443.69,-235.54 459.62,-288.35 467.8,-315.49"/>
</g>
<!-- avenir sans nickel&#45;&#45;amélioration environnementale -->
<g id="edge13" class="edge">
<title>avenir sans nickel&#45;&#45;amélioration environnementale</title>
<path fill="none" stroke="darkgrey" stroke-width="2.22" d="M396.45,-174.96C365.82,-174.68 319.13,-174.26 298.01,-174.07"/>
</g>
<!-- avenir sans nickel&#45;&#45;essor technologique -->
<g id="edge14" class="edge">
<title>avenir sans nickel&#45;&#45;essor technologique</title>
<path fill="none" stroke="darkgrey" stroke-width="1.07" d="M396.92,-170.16C393.23,-169.51 389.55,-168.86 386.11,-168.25"/>
</g>
<!-- industrie&#45;&#45;nickel -->
<g id="edge15" class="edge">
<title>industrie&#45;&#45;nickel</title>
<path fill="none" stroke="darkgrey" stroke-width="1.09" d="M141.88,-7.07C150.92,-36.48 213.04,-238.82 225.33,-278.84"/>
</g>
<!-- travail&#45;&#45;politique -->
<g id="edge16" class="edge">
<title>travail&#45;&#45;politique</title>
<path fill="none" stroke="darkgrey" stroke-width="3.34" d="M340.72,-268.5C384.28,-281.48 497.88,-315.36 544.68,-329.31"/>
</g>
<!-- travail&#45;&#45;secteur nickel -->
<g id="edge17" class="edge">
<title>travail&#45;&#45;secteur nickel</title>
<path fill="none" stroke="darkgrey" stroke-width="3.25" d="M341.2,-260.8C379.64,-255.42 470.02,-242.75 511.54,-236.94"/>
</g>
<!-- travail&#45;&#45;relation politique -->
<g id="edge18" class="edge">
<title>travail&#45;&#45;relation politique</title>
<path fill="none" stroke="darkgrey" d="M341.65,-263.71C404.01,-265.1 605.7,-269.58 635.3,-270.24"/>
</g>
<!-- travail&#45;&#45;avenir avec nickel -->
<g id="edge19" class="edge">
<title>travail&#45;&#45;avenir avec nickel</title>
<path fill="none" stroke="darkgrey" stroke-width="1.54" d="M335.27,-249.69C363.88,-217.09 435.66,-135.32 458.97,-108.77"/>
</g>
<!-- travail&#45;&#45;pollution -->
<g id="edge20" class="edge">
<title>travail&#45;&#45;pollution</title>
<path fill="none" stroke="darkgrey" stroke-width="4.7" d="M333.71,-278.62C348.82,-300.9 376.92,-342.31 393.91,-367.35"/>
</g>
<!-- travail&#45;&#45;ressource minière -->
<g id="edge21" class="edge">
<title>travail&#45;&#45;ressource minière</title>
<path fill="none" stroke="darkgrey" stroke-width="2.57" d="M341.52,-262.48C365.12,-261.4 406.39,-259.51 433.02,-258.3"/>
</g>
<!-- travail&#45;&#45;dégradation environnementale -->
<g id="edge22" class="edge">
<title>travail&#45;&#45;dégradation environnementale</title>
<path fill="none" stroke="darkgrey" stroke-width="5.82" d="M327.18,-281.04C327.67,-283.26 328.17,-285.58 328.69,-287.96"/>
</g>
<!-- travail&#45;&#45;société néo&#45;calédonienne -->
<g id="edge24" class="edge">
<title>travail&#45;&#45;société néo&#45;calédonienne</title>
<path fill="none" stroke="darkgrey" stroke-width="3.25" d="M327.92,-280.75C338.07,-319.19 362.18,-410.54 371.47,-445.74"/>
</g>
<!-- travail&#45;&#45;alternative au développement -->
<g id="edge25" class="edge">
<title>travail&#45;&#45;alternative au développement</title>
<path fill="none" stroke="darkgrey" stroke-width="3.47" d="M340,-271.09C352.88,-277.1 370.85,-285.48 385.05,-292.1"/>
</g>
<!-- travail&#45;&#45;économie -->
<g id="edge27" class="edge">
<title>travail&#45;&#45;économie</title>
<path fill="none" stroke="darkgrey" stroke-width="3.68" d="M339.91,-271.01C368.68,-284.36 427.52,-311.68 456.35,-325.06"/>
</g>
<!-- travail&#45;&#45;amélioration environnementale -->
<g id="edge28" class="edge">
<title>travail&#45;&#45;amélioration environnementale</title>
<path fill="none" stroke="darkgrey" stroke-width="2.55" d="M316.47,-246.5C309.02,-228.21 297.34,-199.52 291.14,-184.29"/>
</g>
<!-- travail&#45;&#45;essor technologique -->
<g id="edge29" class="edge">
<title>travail&#45;&#45;essor technologique</title>
<path fill="none" stroke="darkgrey" stroke-width="2.95" d="M330.95,-246.65C339.28,-228.48 352.53,-199.58 360.82,-181.51"/>
</g>
<!-- travail&#45;&#45;nickel -->
<g id="edge26" class="edge">
<title>travail&#45;&#45;nickel</title>
<path fill="none" stroke="darkgrey" stroke-width="1.49" d="M305.73,-267.42C284.32,-272.42 249.19,-280.62 234.38,-284.09"/>
</g>
<!-- travail&#45;&#45;nature -->
<g id="edge23" class="edge">
<title>travail&#45;&#45;nature</title>
<path fill="none" stroke="darkgrey" stroke-width="1.08" d="M317.78,-280.61C302.79,-327.46 261.88,-455.35 251.88,-486.59"/>
</g>
<!-- travail&#45;&#45;matériel -->
<g id="edge30" class="edge">
<title>travail&#45;&#45;matériel</title>
<path fill="none" stroke="darkgrey" stroke-width="1.32" d="M306.11,-257.83C245.88,-238.65 47.45,-175.45 35.1,-171.52"/>
</g>
<!-- politique&#45;&#45;secteur nickel -->
<g id="edge35" class="edge">
<title>politique&#45;&#45;secteur nickel</title>
<path fill="none" stroke="darkgrey" stroke-width="3.57" d="M558.77,-314.91C553.19,-297.29 545.18,-272.04 539.59,-254.44"/>
</g>
<!-- politique&#45;&#45;relation politique -->
<g id="edge36" class="edge">
<title>politique&#45;&#45;relation politique</title>
<path fill="none" stroke="darkgrey" stroke-width="1.64" d="M581.63,-321C599.6,-305.11 627.11,-280.78 636.03,-272.89"/>
</g>
<!-- politique&#45;&#45;avenir avec nickel -->
<g id="edge37" class="edge">
<title>politique&#45;&#45;avenir avec nickel</title>
<path fill="none" stroke="darkgrey" stroke-width="1.54" d="M556.86,-315.41C536.68,-267.43 486.16,-147.28 470.86,-110.9"/>
</g>
<!-- politique&#45;&#45;pollution -->
<g id="edge38" class="edge">
<title>politique&#45;&#45;pollution</title>
<path fill="none" stroke="darkgrey" stroke-width="3.04" d="M544.73,-342.35C515.68,-352.1 462.73,-369.86 431.96,-380.18"/>
</g>
<!-- politique&#45;&#45;ressource minière -->
<g id="edge39" class="edge">
<title>politique&#45;&#45;ressource minière</title>
<path fill="none" stroke="darkgrey" stroke-width="3.83" d="M547.62,-322.52C528.62,-308.62 498.47,-286.56 478.53,-271.97"/>
</g>
<!-- politique&#45;&#45;dégradation environnementale -->
<g id="edge40" class="edge">
<title>politique&#45;&#45;dégradation environnementale</title>
<path fill="none" stroke="darkgrey" stroke-width="4.44" d="M543.76,-334.33C504.48,-332.28 420.82,-327.9 372.64,-325.38"/>
</g>
<!-- politique&#45;&#45;société néo&#45;calédonienne -->
<g id="edge41" class="edge">
<title>politique&#45;&#45;société néo&#45;calédonienne</title>
<path fill="none" stroke="darkgrey" stroke-width="1.85" d="M547.06,-347.39C508.6,-372.58 419.98,-430.6 387.46,-451.89"/>
</g>
<!-- politique&#45;&#45;alternative au développement -->
<g id="edge43" class="edge">
<title>politique&#45;&#45;alternative au développement</title>
<path fill="none" stroke="darkgrey" stroke-width="2.83" d="M544.05,-331.04C514.99,-325 462.97,-314.18 432.3,-307.8"/>
</g>
<!-- politique&#45;&#45;économie -->
<g id="edge44" class="edge">
<title>politique&#45;&#45;économie</title>
<path fill="none" stroke="darkgrey" stroke-width="3.62" d="M543.42,-334.82C527.44,-334.36 506.01,-333.74 491.01,-333.31"/>
</g>
<!-- politique&#45;&#45;nouvelle&#45;calédonie -->
<g id="edge42" class="edge">
<title>politique&#45;&#45;nouvelle&#45;calédonie</title>
<path fill="none" stroke="darkgrey" stroke-width="1.44" d="M557.97,-355.7C547.79,-383.86 529.87,-433.4 523.39,-451.34"/>
</g>
<!-- secteur nickel&#45;&#45;relation politique -->
<g id="edge45" class="edge">
<title>secteur nickel&#45;&#45;relation politique</title>
<path fill="none" stroke="darkgrey" stroke-width="1.28" d="M553.5,-240.94C579.69,-249.95 623.23,-264.92 635.58,-269.17"/>
</g>
<!-- secteur nickel&#45;&#45;avenir avec nickel -->
<g id="edge46" class="edge">
<title>secteur nickel&#45;&#45;avenir avec nickel</title>
<path fill="none" stroke="darkgrey" stroke-width="1.66" d="M523.39,-214.49C508.94,-185.54 482.29,-132.13 471.32,-110.15"/>
</g>
<!-- secteur nickel&#45;&#45;pollution -->
<g id="edge47" class="edge">
<title>secteur nickel&#45;&#45;pollution</title>
<path fill="none" stroke="darkgrey" stroke-width="3.45" d="M519.47,-250.72C496.18,-279.46 448.81,-337.91 424.01,-368.52"/>
</g>
<!-- secteur nickel&#45;&#45;ressource minière -->
<g id="edge48" class="edge">
<title>secteur nickel&#45;&#45;ressource minière</title>
<path fill="none" stroke="darkgrey" stroke-width="2.3" d="M512.25,-240.39C502.91,-243.29 491.84,-246.72 482.17,-249.73"/>
</g>
<!-- secteur nickel&#45;&#45;dégradation environnementale -->
<g id="edge49" class="edge">
<title>secteur nickel&#45;&#45;dégradation environnementale</title>
<path fill="none" stroke="darkgrey" stroke-width="3.21" d="M513.51,-242.83C479.8,-258.19 410.45,-289.78 369.26,-308.54"/>
</g>
<!-- secteur nickel&#45;&#45;société néo&#45;calédonienne -->
<g id="edge50" class="edge">
<title>secteur nickel&#45;&#45;société néo&#45;calédonienne</title>
<path fill="none" stroke="darkgrey" stroke-width="1.65" d="M520.7,-251.65C489.73,-295.98 409.58,-410.72 383.53,-448.01"/>
</g>
<!-- secteur nickel&#45;&#45;alternative au développement -->
<g id="edge52" class="edge">
<title>secteur nickel&#45;&#45;alternative au développement</title>
<path fill="none" stroke="darkgrey" stroke-width="4.87" d="M514.05,-244.37C491.46,-256.77 453.84,-277.42 429.95,-290.53"/>
</g>
<!-- secteur nickel&#45;&#45;économie -->
<g id="edge54" class="edge">
<title>secteur nickel&#45;&#45;économie</title>
<path fill="none" stroke="darkgrey" stroke-width="2.3" d="M521.79,-252.52C510.44,-271.2 493.14,-299.67 482.49,-317.21"/>
</g>
<!-- secteur nickel&#45;&#45;amélioration environnementale -->
<g id="edge55" class="edge">
<title>secteur nickel&#45;&#45;amélioration environnementale</title>
<path fill="none" stroke="darkgrey" stroke-width="2.91" d="M512.1,-228.81C461.76,-216.55 335.53,-185.8 297.77,-176.61"/>
</g>
<!-- secteur nickel&#45;&#45;essor technologique -->
<g id="edge56" class="edge">
<title>secteur nickel&#45;&#45;essor technologique</title>
<path fill="none" stroke="darkgrey" stroke-width="1.55" d="M513.21,-225.62C480.52,-211.96 415.97,-185 385.3,-172.18"/>
</g>
<!-- secteur nickel&#45;&#45;nickel -->
<g id="edge53" class="edge">
<title>secteur nickel&#45;&#45;nickel</title>
<path fill="none" stroke="darkgrey" stroke-width="1.87" d="M511.59,-237.56C449.63,-248.06 272.64,-278.05 234.67,-284.48"/>
</g>
<!-- secteur nickel&#45;&#45;nouvelle&#45;calédonie -->
<g id="edge51" class="edge">
<title>secteur nickel&#45;&#45;nouvelle&#45;calédonie</title>
<path fill="none" stroke="darkgrey" stroke-width="1.23" d="M531.92,-255.41C529.29,-304.06 522.98,-420.73 521.35,-450.86"/>
</g>
<!-- secteur nickel&#45;&#45;échange commercial -->
<g id="edge57" class="edge">
<title>secteur nickel&#45;&#45;échange commercial</title>
<path fill="none" stroke="darkgrey" stroke-width="1.13" d="M554.06,-228.42C627.51,-209.15 869.46,-145.67 884.51,-141.73"/>
</g>
<!-- relation politique&#45;&#45;pollution -->
<g id="edge58" class="edge">
<title>relation politique&#45;&#45;pollution</title>
<path fill="none" stroke="darkgrey" stroke-width="1.14" d="M635.67,-271.99C613.42,-283.35 483.33,-349.77 430.42,-376.78"/>
</g>
<!-- relation politique&#45;&#45;ressource minière -->
<g id="edge59" class="edge">
<title>relation politique&#45;&#45;ressource minière</title>
<path fill="none" stroke="darkgrey" stroke-width="1.06" d="M635.16,-270.05C615.86,-268.64 527.33,-262.18 483.3,-258.97"/>
</g>
<!-- relation politique&#45;&#45;dégradation environnementale -->
<g id="edge60" class="edge">
<title>relation politique&#45;&#45;dégradation environnementale</title>
<path fill="none" stroke="darkgrey" stroke-width="1.25" d="M635.11,-270.99C608.13,-275.74 445.41,-304.33 372.15,-317.21"/>
</g>
<!-- relation politique&#45;&#45;économie -->
<g id="edge61" class="edge">
<title>relation politique&#45;&#45;économie</title>
<path fill="none" stroke="darkgrey" stroke-width="1.56" d="M635.47,-271.63C616.81,-278.65 527.73,-312.19 489.98,-326.41"/>
</g>
<!-- relation politique&#45;&#45;échange commercial -->
<g id="edge62" class="edge">
<title>relation politique&#45;&#45;échange commercial</title>
<path fill="none" stroke="darkgrey" stroke-width="1.04" d="M642.05,-268.69C669.67,-254.25 872.01,-148.45 884.63,-141.86"/>
</g>
<!-- avenir avec nickel&#45;&#45;ressource minière -->
<g id="edge63" class="edge">
<title>avenir avec nickel&#45;&#45;ressource minière</title>
<path fill="none" stroke="darkgrey" stroke-width="1.56" d="M465.82,-111.58C464.52,-136.66 461.36,-197.54 459.57,-232.1"/>
</g>
<!-- avenir avec nickel&#45;&#45;dégradation environnementale -->
<g id="edge64" class="edge">
<title>avenir avec nickel&#45;&#45;dégradation environnementale</title>
<path fill="none" stroke="darkgrey" stroke-width="2.59" d="M460.82,-109.89C442.65,-141.1 384.66,-240.68 354.72,-292.1"/>
</g>
<!-- avenir avec nickel&#45;&#45;alternative au développement -->
<g id="edge65" class="edge">
<title>avenir avec nickel&#45;&#45;alternative au développement</title>
<path fill="none" stroke="darkgrey" stroke-width="2.06" d="M463.33,-110.9C454.29,-142.13 427.56,-234.41 414.76,-278.59"/>
</g>
<!-- avenir avec nickel&#45;&#45;économie -->
<g id="edge66" class="edge">
<title>avenir avec nickel&#45;&#45;économie</title>
<path fill="none" stroke="darkgrey" stroke-width="2.32" d="M466.72,-111.52C467.78,-148.79 471.2,-268.81 472.51,-314.71"/>
</g>
<!-- avenir avec nickel&#45;&#45;amélioration environnementale -->
<g id="edge67" class="edge">
<title>avenir avec nickel&#45;&#45;amélioration environnementale</title>
<path fill="none" stroke="darkgrey" stroke-width="2.92" d="M455.98,-104.58C424.26,-117.6 329.15,-156.64 297.39,-169.68"/>
</g>
<!-- avenir avec nickel&#45;&#45;essor technologique -->
<g id="edge68" class="edge">
<title>avenir avec nickel&#45;&#45;essor technologique</title>
<path fill="none" stroke="darkgrey" stroke-width="2.18" d="M457,-106.51C440.03,-117.73 404.15,-141.44 383.61,-155.01"/>
</g>
<!-- pollution&#45;&#45;ressource minière -->
<g id="edge69" class="edge">
<title>pollution&#45;&#45;ressource minière</title>
<path fill="none" stroke="darkgrey" stroke-width="4.38" d="M417.04,-364.77C426.12,-341.07 440.09,-304.61 449.2,-280.82"/>
</g>
<!-- pollution&#45;&#45;dégradation environnementale -->
<g id="edge70" class="edge">
<title>pollution&#45;&#45;dégradation environnementale</title>
<path fill="none" stroke="darkgrey" stroke-width="10" d="M389.24,-371.2C381.29,-364.01 371.87,-355.5 363.21,-347.68"/>
</g>
<!-- pollution&#45;&#45;société néo&#45;calédonienne -->
<g id="edge72" class="edge">
<title>pollution&#45;&#45;société néo&#45;calédonienne</title>
<path fill="none" stroke="darkgrey" stroke-width="2.99" d="M397.48,-411.29C392.16,-422.91 385.89,-436.6 381.36,-446.49"/>
</g>
<!-- pollution&#45;&#45;alternative au développement -->
<g id="edge74" class="edge">
<title>pollution&#45;&#45;alternative au développement</title>
<path fill="none" stroke="darkgrey" stroke-width="4.37" d="M407.97,-363.01C407.94,-351.88 407.89,-338.83 407.86,-327.71"/>
</g>
<!-- pollution&#45;&#45;économie -->
<g id="edge76" class="edge">
<title>pollution&#45;&#45;économie</title>
<path fill="none" stroke="darkgrey" stroke-width="4.16" d="M427.2,-371.88C437.38,-363.19 449.67,-352.71 458.96,-344.78"/>
</g>
<!-- pollution&#45;&#45;amélioration environnementale -->
<g id="edge77" class="edge">
<title>pollution&#45;&#45;amélioration environnementale</title>
<path fill="none" stroke="darkgrey" stroke-width="1.65" d="M395.55,-366.08C369.56,-320.11 310.62,-215.85 292.41,-183.64"/>
</g>
<!-- pollution&#45;&#45;essor technologique -->
<g id="edge78" class="edge">
<title>pollution&#45;&#45;essor technologique</title>
<path fill="none" stroke="darkgrey" stroke-width="2.57" d="M403.66,-363.47C395.58,-318.09 378.57,-222.54 371.51,-182.91"/>
</g>
<!-- pollution&#45;&#45;nickel -->
<g id="edge75" class="edge">
<title>pollution&#45;&#45;nickel</title>
<path fill="none" stroke="darkgrey" stroke-width="1.88" d="M386.27,-375.84C344.99,-352.41 257.36,-302.69 233.53,-289.16"/>
</g>
<!-- pollution&#45;&#45;nature -->
<g id="edge71" class="edge">
<title>pollution&#45;&#45;nature</title>
<path fill="none" stroke="darkgrey" stroke-width="2.48" d="M387.02,-402.19C350.5,-426.48 277.2,-475.23 255.71,-489.52"/>
</g>
<!-- pollution&#45;&#45;nouvelle&#45;calédonie -->
<g id="edge73" class="edge">
<title>pollution&#45;&#45;nouvelle&#45;calédonie</title>
<path fill="none" stroke="darkgrey" stroke-width="1.21" d="M429.56,-401.51C455.92,-417.82 499.04,-444.5 514.88,-454.3"/>
</g>
<!-- ressource minière&#45;&#45;dégradation environnementale -->
<g id="edge79" class="edge">
<title>ressource minière&#45;&#45;dégradation environnementale</title>
<path fill="none" stroke="darkgrey" stroke-width="6.43" d="M436.21,-269.16C417.29,-279.47 389.77,-294.45 368.43,-306.07"/>
</g>
<!-- ressource minière&#45;&#45;alternative au développement -->
<g id="edge82" class="edge">
<title>ressource minière&#45;&#45;alternative au développement</title>
<path fill="none" stroke="darkgrey" stroke-width="4.46" d="M439.47,-274.11C435.21,-277.96 430.68,-282.04 426.42,-285.88"/>
</g>
<!-- ressource minière&#45;&#45;économie -->
<g id="edge84" class="edge">
<title>ressource minière&#45;&#45;économie</title>
<path fill="none" stroke="darkgrey" stroke-width="3.49" d="M463.1,-281.92C465.18,-292.6 467.58,-304.87 469.49,-314.69"/>
</g>
<!-- ressource minière&#45;&#45;amélioration environnementale -->
<g id="edge85" class="edge">
<title>ressource minière&#45;&#45;amélioration environnementale</title>
<path fill="none" stroke="darkgrey" stroke-width="1.58" d="M435.52,-246.1C397.84,-227.81 323.95,-191.94 297.05,-178.88"/>
</g>
<!-- ressource minière&#45;&#45;essor technologique -->
<g id="edge86" class="edge">
<title>ressource minière&#45;&#45;essor technologique</title>
<path fill="none" stroke="darkgrey" stroke-width="3.94" d="M440.51,-238.96C423,-221.04 396.68,-194.11 381.14,-178.2"/>
</g>
<!-- ressource minière&#45;&#45;nickel -->
<g id="edge83" class="edge">
<title>ressource minière&#45;&#45;nickel</title>
<path fill="none" stroke="darkgrey" stroke-width="1.24" d="M433.13,-260.26C381.25,-266.68 264.67,-281.1 234.61,-284.82"/>
</g>
<!-- ressource minière&#45;&#45;nature -->
<g id="edge80" class="edge">
<title>ressource minière&#45;&#45;nature</title>
<path fill="none" stroke="darkgrey" stroke-width="1.03" d="M441.55,-276.09C397.46,-326.05 279.7,-459.51 254.46,-488.11"/>
</g>
<!-- ressource minière&#45;&#45;nouvelle&#45;calédonie -->
<g id="edge81" class="edge">
<title>ressource minière&#45;&#45;nouvelle&#45;calédonie</title>
<path fill="none" stroke="darkgrey" stroke-width="1.44" d="M465.83,-281.38C480.16,-327.3 510.57,-424.78 518.84,-451.28"/>
</g>
<!-- dégradation environnementale&#45;&#45;société néo&#45;calédonienne -->
<g id="edge88" class="edge">
<title>dégradation environnementale&#45;&#45;société néo&#45;calédonienne</title>
<path fill="none" stroke="darkgrey" stroke-width="2.56" d="M346.33,-358.27C354.4,-386.69 365.4,-425.39 371.22,-445.87"/>
</g>
<!-- dégradation environnementale&#45;&#45;alternative au développement -->
<g id="edge90" class="edge">
<title>dégradation environnementale&#45;&#45;alternative au développement</title>
<path fill="none" stroke="darkgrey" stroke-width="4.29" d="M371.27,-313.34C375.37,-312.14 379.49,-310.94 383.41,-309.8"/>
</g>
<!-- dégradation environnementale&#45;&#45;économie -->
<g id="edge92" class="edge">
<title>dégradation environnementale&#45;&#45;économie</title>
<path fill="none" stroke="darkgrey" stroke-width="6.16" d="M372.68,-325.96C399.24,-327.77 434.15,-330.14 455.02,-331.57"/>
</g>
<!-- dégradation environnementale&#45;&#45;amélioration environnementale -->
<g id="edge93" class="edge">
<title>dégradation environnementale&#45;&#45;amélioration environnementale</title>
<path fill="none" stroke="darkgrey" stroke-width="3.02" d="M325.09,-289.18C313.9,-255.39 297.48,-205.81 290.4,-184.42"/>
</g>
<!-- dégradation environnementale&#45;&#45;essor technologique -->
<g id="edge94" class="edge">
<title>dégradation environnementale&#45;&#45;essor technologique</title>
<path fill="none" stroke="darkgrey" stroke-width="3.39" d="M343.6,-287.94C350.18,-255.29 359.65,-208.24 364.76,-182.89"/>
</g>
<!-- dégradation environnementale&#45;&#45;nickel -->
<g id="edge91" class="edge">
<title>dégradation environnementale&#45;&#45;nickel</title>
<path fill="none" stroke="darkgrey" stroke-width="2.18" d="M302.25,-311.64C278.03,-303.24 247.55,-292.68 234.21,-288.06"/>
</g>
<!-- dégradation environnementale&#45;&#45;nature -->
<g id="edge87" class="edge">
<title>dégradation environnementale&#45;&#45;nature</title>
<path fill="none" stroke="darkgrey" stroke-width="3.33" d="M319.92,-355.87C298.77,-397.31 263.59,-466.25 252.86,-487.27"/>
</g>
<!-- dégradation environnementale&#45;&#45;matériel -->
<g id="edge95" class="edge">
<title>dégradation environnementale&#45;&#45;matériel</title>
<path fill="none" stroke="darkgrey" stroke-width="1.02" d="M304.13,-307.2C228.67,-269.18 46.37,-177.31 35.05,-171.61"/>
</g>
<!-- dégradation environnementale&#45;&#45;nouvelle&#45;calédonie -->
<g id="edge89" class="edge">
<title>dégradation environnementale&#45;&#45;nouvelle&#45;calédonie</title>
<path fill="none" stroke="darkgrey" stroke-width="1.18" d="M365.68,-344.81C410.39,-377.42 492.93,-437.62 515.26,-453.9"/>
</g>
<!-- société néo&#45;calédonienne&#45;&#45;alternative au développement -->
<g id="edge99" class="edge">
<title>société néo&#45;calédonienne&#45;&#45;alternative au développement</title>
<path fill="none" stroke="darkgrey" stroke-width="2.86" d="M378.16,-445.68C383.72,-418.85 395.8,-360.49 402.69,-327.22"/>
</g>
<!-- société néo&#45;calédonienne&#45;&#45;économie -->
<g id="edge101" class="edge">
<title>société néo&#45;calédonienne&#45;&#45;économie</title>
<path fill="none" stroke="darkgrey" stroke-width="2.63" d="M384.24,-448.18C402.21,-424.82 442.41,-372.58 461.94,-347.19"/>
</g>
<!-- société néo&#45;calédonienne&#45;&#45;nickel -->
<g id="edge100" class="edge">
<title>société néo&#45;calédonienne&#45;&#45;nickel</title>
<path fill="none" stroke="darkgrey" stroke-width="1.94" d="M365.74,-448.75C337.21,-415.11 252.72,-315.51 232.04,-291.14"/>
</g>
<!-- société néo&#45;calédonienne&#45;&#45;nouvelle&#45;calédonie -->
<g id="edge98" class="edge">
<title>société néo&#45;calédonienne&#45;&#45;nouvelle&#45;calédonie</title>
<path fill="none" stroke="darkgrey" stroke-width="1.52" d="M389.72,-459.73C420.39,-459.34 490.88,-458.44 513.69,-458.15"/>
</g>
<!-- alternative au développement&#45;&#45;économie -->
<g id="edge106" class="edge">
<title>alternative au développement&#45;&#45;économie</title>
<path fill="none" stroke="darkgrey" stroke-width="5.19" d="M430.59,-313.23C439.12,-317.16 448.63,-321.54 456.48,-325.17"/>
</g>
<!-- alternative au développement&#45;&#45;amélioration environnementale -->
<g id="edge107" class="edge">
<title>alternative au développement&#45;&#45;amélioration environnementale</title>
<path fill="none" stroke="darkgrey" stroke-width="3.85" d="M390.46,-284.26C363.84,-255.89 313.91,-202.7 294.72,-182.26"/>
</g>
<!-- alternative au développement&#45;&#45;essor technologique -->
<g id="edge108" class="edge">
<title>alternative au développement&#45;&#45;essor technologique</title>
<path fill="none" stroke="darkgrey" stroke-width="3.88" d="M400.81,-278.42C392.94,-250.95 380.32,-206.9 373.36,-182.6"/>
</g>
<!-- alternative au développement&#45;&#45;nickel -->
<g id="edge105" class="edge">
<title>alternative au développement&#45;&#45;nickel</title>
<path fill="none" stroke="darkgrey" stroke-width="1.82" d="M382.7,-300.34C340.89,-296.4 259.1,-288.69 234.56,-286.38"/>
</g>
<!-- économie&#45;&#45;amélioration environnementale -->
<g id="edge111" class="edge">
<title>économie&#45;&#45;amélioration environnementale</title>
<path fill="none" stroke="darkgrey" stroke-width="1.59" d="M459.03,-320.85C422.52,-289.69 325.11,-206.55 295.56,-181.32"/>
</g>
<!-- économie&#45;&#45;essor technologique -->
<g id="edge112" class="edge">
<title>économie&#45;&#45;essor technologique</title>
<path fill="none" stroke="darkgrey" stroke-width="1.2" d="M463.36,-317.32C443.42,-285.37 397.9,-212.45 377.98,-180.54"/>
</g>
<!-- amélioration environnementale&#45;&#45;essor technologique -->
<g id="edge113" class="edge">
<title>amélioration environnementale&#45;&#45;essor technologique</title>
<path fill="none" stroke="darkgrey" stroke-width="1.93" d="M297.92,-172.77C311.37,-171.31 334.35,-168.8 350.39,-167.06"/>
</g>
<!-- nickel&#45;&#45;économie -->
<g id="edge109" class="edge">
<title>nickel&#45;&#45;économie</title>
<path fill="none" stroke="darkgrey" stroke-width="1.26" d="M234.52,-287.07C267.4,-293.37 405.56,-319.86 455.18,-329.37"/>
</g>
<!-- nickel&#45;&#45;amélioration environnementale -->
<g id="edge110" class="edge">
<title>nickel&#45;&#45;amélioration environnementale</title>
<path fill="none" stroke="darkgrey" stroke-width="1.06" d="M230.81,-279.38C240.69,-260.82 269.66,-206.42 281.65,-183.91"/>
</g>
<!-- nature&#45;&#45;société néo&#45;calédonienne -->
<g id="edge96" class="edge">
<title>nature&#45;&#45;société néo&#45;calédonienne</title>
<path fill="none" stroke="darkgrey" stroke-width="1.31" d="M256.77,-491.64C276.79,-486.28 333.94,-470.97 360.86,-463.76"/>
</g>
<!-- nature&#45;&#45;alternative au développement -->
<g id="edge97" class="edge">
<title>nature&#45;&#45;alternative au développement</title>
<path fill="none" stroke="darkgrey" stroke-width="1.46" d="M254.22,-488.04C274.42,-463.66 356.39,-364.72 391.59,-322.24"/>
</g>
<!-- exploitation minière&#45;&#45;politique -->
<g id="edge31" class="edge">
<title>exploitation minière&#45;&#45;politique</title>
<path fill="none" stroke="darkgrey" stroke-width="1.03" d="M641.85,-120.9C633.98,-142.94 590.24,-265.52 572.64,-314.87"/>
</g>
<!-- exploitation minière&#45;&#45;secteur nickel -->
<g id="edge32" class="edge">
<title>exploitation minière&#45;&#45;secteur nickel</title>
<path fill="none" stroke="darkgrey" stroke-width="1.17" d="M640.35,-120.35C627.72,-133.73 574.22,-190.36 547.88,-218.26"/>
</g>
<!-- exploitation minière&#45;&#45;ressource minière -->
<g id="edge33" class="edge">
<title>exploitation minière&#45;&#45;ressource minière</title>
<path fill="none" stroke="darkgrey" stroke-width="1.4" d="M640.17,-119.67C621.85,-133.52 521.61,-209.27 478.26,-242.04"/>
</g>
<!-- exploitation minière&#45;&#45;alternative au développement -->
<g id="edge34" class="edge">
<title>exploitation minière&#45;&#45;alternative au développement</title>
<path fill="none" stroke="darkgrey" stroke-width="1.23" d="M640.1,-119.82C618.07,-137.15 479.77,-246.03 427.63,-287.07"/>
</g>
<!-- nouvelle&#45;calédonie&#45;&#45;alternative au développement -->
<g id="edge102" class="edge">
<title>nouvelle&#45;calédonie&#45;&#45;alternative au développement</title>
<path fill="none" stroke="darkgrey" stroke-width="2.08" d="M516.66,-452.16C501.31,-431.1 448.77,-358.97 422.69,-323.18"/>
</g>
<!-- nouvelle&#45;calédonie&#45;&#45;économie -->
<g id="edge103" class="edge">
<title>nouvelle&#45;calédonie&#45;&#45;économie</title>
<path fill="none" stroke="darkgrey" stroke-width="1.58" d="M518.38,-451.32C511.11,-432.32 490.26,-377.83 479.54,-349.84"/>
</g>
<!-- nouvelle&#45;calédonie&#45;&#45;essor technologique -->
<g id="edge104" class="edge">
<title>nouvelle&#45;calédonie&#45;&#45;essor technologique</title>
<path fill="none" stroke="darkgrey" stroke-width="1.09" d="M517.63,-451.67C498.8,-415.52 405.47,-236.36 376.76,-181.26"/>
</g>
<!-- avenir sans nickel -->
<g id="node1" class="node">
<title>avenir sans nickel</title>
<ellipse fill="#f98c0a" stroke="white" stroke-width="0" cx="425.49" cy="-175.22" rx="29" ry="29"/>
<text text-anchor="middle" x="359.99" y="-206.82" font-family="Helvetica,sans-Serif" font-size="8.00" fill="#4d4d4d">avenir sans nickel</text>
</g>
<!-- industrie -->
<g id="node2" class="node">
<title>industrie</title>
<ellipse fill="#08051d" stroke="white" stroke-width="0" cx="140.79" cy="-3.5" rx="3.5" ry="3.5"/>
<text text-anchor="middle" x="118.79" y="-9.6" font-family="Helvetica,sans-Serif" font-size="8.00" fill="#4d4d4d">industrie</text>
</g>
<!-- travail -->
<g id="node3" class="node">
<title>travail</title>
<ellipse fill="#bd3853" stroke="white" stroke-width="0" cx="323.31" cy="-263.31" rx="18" ry="18"/>
<text text-anchor="middle" x="292.31" y="-247.91" font-family="Helvetica,sans-Serif" font-size="8.00" fill="#4d4d4d">travail</text>
</g>
<!-- politique -->
<g id="node4" class="node">
<title>politique</title>
<ellipse fill="#cb4149" stroke="white" stroke-width="0" cx="565.29" cy="-335.46" rx="21.5" ry="21.5"/>
<text text-anchor="middle" x="525.29" y="-359.56" font-family="Helvetica,sans-Serif" font-size="8.00" fill="#4d4d4d">politique</text>
</g>
<!-- secteur nickel -->
<g id="node5" class="node">
<title>secteur nickel</title>
<ellipse fill="#ca404a" stroke="white" stroke-width="0" cx="533.09" cy="-233.92" rx="21.5" ry="21.5"/>
<text text-anchor="middle" x="483.09" y="-215.02" font-family="Helvetica,sans-Serif" font-size="8.00" fill="#4d4d4d">secteur nickel</text>
</g>
<!-- relation politique -->
<g id="node6" class="node">
<title>relation politique</title>
<ellipse fill="#160b39" stroke="white" stroke-width="0" cx="638.94" cy="-270.32" rx="3.5" ry="3.5"/>
<text text-anchor="middle" x="600.44" y="-276.42" font-family="Helvetica,sans-Serif" font-size="8.00" fill="#4d4d4d">relation politique</text>
</g>
<!-- avenir avec nickel -->
<g id="node7" class="node">
<title>avenir avec nickel</title>
<ellipse fill="#550f6d" stroke="white" stroke-width="0" cx="466.4" cy="-100.3" rx="11" ry="11"/>
<text text-anchor="middle" x="418.9" y="-113.9" font-family="Helvetica,sans-Serif" font-size="8.00" fill="#4d4d4d">avenir avec nickel</text>
</g>
<!-- pollution -->
<g id="node8" class="node">
<title>pollution</title>
<ellipse fill="#eb6628" stroke="white" stroke-width="0" cx="408.06" cy="-388.2" rx="25" ry="25"/>
<text text-anchor="middle" x="364.56" y="-415.8" font-family="Helvetica,sans-Serif" font-size="8.00" fill="#4d4d4d">pollution</text>
</g>
<!-- ressource minière -->
<g id="node9" class="node">
<title>ressource minière</title>
<ellipse fill="#f3761b" stroke="white" stroke-width="0" cx="458.27" cy="-257.15" rx="25" ry="25"/>
<text text-anchor="middle" x="396.77" y="-234.75" font-family="Helvetica,sans-Serif" font-size="8.00" fill="#4d4d4d">ressource minière</text>
</g>
<!-- dégradation environnementale -->
<g id="node10" class="node">
<title>dégradation environnementale</title>
<ellipse fill="#fcffa4" stroke="white" stroke-width="0" cx="336.44" cy="-323.49" rx="36" ry="36"/>
<text text-anchor="middle" x="236.94" y="-362.09" font-family="Helvetica,sans-Serif" font-size="8.00" fill="#4d4d4d">dégradation environnementale</text>
</g>
<!-- société néo&#45;calédonienne -->
<g id="node11" class="node">
<title>société néo&#45;calédonienne</title>
<ellipse fill="#902568" stroke="white" stroke-width="0" cx="375.21" cy="-459.91" rx="14.5" ry="14.5"/>
<text text-anchor="middle" x="306.71" y="-477.01" font-family="Helvetica,sans-Serif" font-size="8.00" fill="#4d4d4d">société néo&#45;calédonienne</text>
</g>
<!-- alternative au développement -->
<g id="node12" class="node">
<title>alternative au développement</title>
<ellipse fill="#f98b0b" stroke="white" stroke-width="0" cx="407.77" cy="-302.7" rx="25" ry="25"/>
<text text-anchor="middle" x="320.77" y="-280.3" font-family="Helvetica,sans-Serif" font-size="8.00" fill="#4d4d4d">alternative au développement</text>
</g>
<!-- économie -->
<g id="node13" class="node">
<title>économie</title>
<ellipse fill="#b0315b" stroke="white" stroke-width="0" cx="473.02" cy="-332.79" rx="18" ry="18"/>
<text text-anchor="middle" x="434.52" y="-353.39" font-family="Helvetica,sans-Serif" font-size="8.00" fill="#4d4d4d">économie</text>
</g>
<!-- amélioration environnementale -->
<g id="node14" class="node">
<title>amélioration environnementale</title>
<ellipse fill="#781c6d" stroke="white" stroke-width="0" cx="286.94" cy="-173.97" rx="11" ry="11"/>
<text text-anchor="middle" x="211.44" y="-187.57" font-family="Helvetica,sans-Serif" font-size="8.00" fill="#4d4d4d">amélioration environnementale</text>
</g>
<!-- essor technologique -->
<g id="node15" class="node">
<title>essor technologique</title>
<ellipse fill="#ad305d" stroke="white" stroke-width="0" cx="368.34" cy="-165.1" rx="18" ry="18"/>
<text text-anchor="middle" x="307.84" y="-149.7" font-family="Helvetica,sans-Serif" font-size="8.00" fill="#4d4d4d">essor technologique</text>
</g>
<!-- nickel -->
<g id="node16" class="node">
<title>nickel</title>
<ellipse fill="#2f0a5b" stroke="white" stroke-width="0" cx="227.44" cy="-285.71" rx="7" ry="7"/>
<text text-anchor="middle" x="208.44" y="-295.31" font-family="Helvetica,sans-Serif" font-size="8.00" fill="#4d4d4d">nickel</text>
</g>
<!-- nature -->
<g id="node17" class="node">
<title>nature</title>
<ellipse fill="#4d0d6c" stroke="white" stroke-width="0" cx="249.66" cy="-493.55" rx="7" ry="7"/>
<text text-anchor="middle" x="229.16" y="-503.15" font-family="Helvetica,sans-Serif" font-size="8.00" fill="#4d4d4d">nature</text>
</g>
<!-- matériel -->
<g id="node18" class="node">
<title>matériel</title>
<ellipse fill="#000004" stroke="white" stroke-width="0" cx="34.5" cy="-171.33" rx="0.5" ry="0.5"/>
<text text-anchor="middle" x="17" y="-174.43" font-family="Helvetica,sans-Serif" font-size="8.00" fill="#4d4d4d">matériel</text>
</g>
<!-- exploitation minière -->
<g id="node19" class="node">
<title>exploitation minière</title>
<ellipse fill="#0c0826" stroke="white" stroke-width="0" cx="643.07" cy="-117.48" rx="3.5" ry="3.5"/>
<text text-anchor="middle" x="599.07" y="-123.58" font-family="Helvetica,sans-Serif" font-size="8.00" fill="#4d4d4d">exploitation minière</text>
</g>
<!-- nouvelle&#45;calédonie -->
<g id="node20" class="node">
<title>nouvelle&#45;calédonie</title>
<ellipse fill="#320a5e" stroke="white" stroke-width="0" cx="520.96" cy="-458.06" rx="7" ry="7"/>
<text text-anchor="middle" x="474.46" y="-467.66" font-family="Helvetica,sans-Serif" font-size="8.00" fill="#4d4d4d">nouvelle&#45;calédonie</text>
</g>
<!-- échange commercial -->
<g id="node21" class="node">
<title>échange commercial</title>
<ellipse fill="#02020c" stroke="white" stroke-width="0" cx="885.25" cy="-141.53" rx="0.5" ry="0.5"/>
<text text-anchor="middle" x="841.75" y="-144.63" font-family="Helvetica,sans-Serif" font-size="8.00" fill="#4d4d4d">échange commercial</text>
</g>
</g>
</svg>
