<?xml version="1.0" encoding="UTF-8" standalone="no"?>
<!DOCTYPE svg PUBLIC "-//W3C//DTD SVG 1.1//EN"
 "http://www.w3.org/Graphics/SVG/1.1/DTD/svg11.dtd">
<!-- Generated by graphviz version 2.43.0 (0)
 -->
<!-- Pages: 1 -->
<svg width="956pt" height="580pt"
 viewBox="0.00 0.00 955.55 580.18" xmlns="http://www.w3.org/2000/svg" xmlns:xlink="http://www.w3.org/1999/xlink">
<g id="graph0" class="graph" transform="scale(1 1) rotate(0) translate(4 576.18)">
<polygon fill="white" stroke="transparent" points="-4,4 -4,-576.18 951.55,-576.18 951.55,4 -4,4"/>
<!-- pollution&#45;&#45;dégradation environnementale -->
<g id="edge1" class="edge">
<title>pollution&#45;&#45;dégradation environnementale</title>
<path fill="none" stroke="darkgrey" stroke-width="7.29" d="M409.38,-358.43C423.61,-366.55 447.11,-379.97 466.29,-390.91"/>
</g>
<!-- pollution&#45;&#45;nouvelle&#45;calédonie -->
<g id="edge2" class="edge">
<title>pollution&#45;&#45;nouvelle&#45;calédonie</title>
<path fill="none" stroke="darkgrey" stroke-width="1.48" d="M400.16,-365.38C408.19,-397.35 427.28,-473.36 431.65,-490.73"/>
</g>
<!-- pollution&#45;&#45;travail -->
<g id="edge3" class="edge">
<title>pollution&#45;&#45;travail</title>
<path fill="none" stroke="darkgrey" stroke-width="5.7" d="M388.61,-338.86C370.12,-310.39 324.21,-239.72 302.41,-206.16"/>
</g>
<!-- pollution&#45;&#45;économie -->
<g id="edge4" class="edge">
<title>pollution&#45;&#45;économie</title>
<path fill="none" stroke="darkgrey" stroke-width="4.8" d="M401.38,-337.18C406.76,-321.54 415.45,-296.31 420.83,-280.66"/>
</g>
<!-- pollution&#45;&#45;nickel -->
<g id="edge5" class="edge">
<title>pollution&#45;&#45;nickel</title>
<path fill="none" stroke="darkgrey" stroke-width="5.27" d="M411.2,-349.22C427.45,-347.1 454.31,-343.59 476.21,-340.74"/>
</g>
<!-- pollution&#45;&#45;ressource minière -->
<g id="edge6" class="edge">
<title>pollution&#45;&#45;ressource minière</title>
<path fill="none" stroke="darkgrey" stroke-width="2.11" d="M382.3,-347.59C338.47,-336.76 206.42,-304.12 167.7,-294.54"/>
</g>
<!-- pollution&#45;&#45;politique -->
<g id="edge7" class="edge">
<title>pollution&#45;&#45;politique</title>
<path fill="none" stroke="darkgrey" stroke-width="3.2" d="M384.64,-342.79C349.82,-318.46 248.58,-247.76 213.32,-223.14"/>
</g>
<!-- pollution&#45;&#45;secteur nickel -->
<g id="edge8" class="edge">
<title>pollution&#45;&#45;secteur nickel</title>
<path fill="none" stroke="darkgrey" stroke-width="3.69" d="M387.93,-339.14C376.31,-323.04 355.67,-294.44 343.11,-277.04"/>
</g>
<!-- pollution&#45;&#45;nature -->
<g id="edge9" class="edge">
<title>pollution&#45;&#45;nature</title>
<path fill="none" stroke="darkgrey" stroke-width="3.17" d="M381.87,-351.79C359.53,-352.79 317.29,-354.7 295.02,-355.71"/>
</g>
<!-- pollution&#45;&#45;amélioration environnementale -->
<g id="edge10" class="edge">
<title>pollution&#45;&#45;amélioration environnementale</title>
<path fill="none" stroke="darkgrey" stroke-width="1.21" d="M408.97,-343.15C464.5,-307.44 688.37,-163.48 702.31,-154.52"/>
</g>
<!-- pollution&#45;&#45;société néo&#45;calédonienne -->
<g id="edge11" class="edge">
<title>pollution&#45;&#45;société néo&#45;calédonienne</title>
<path fill="none" stroke="darkgrey" stroke-width="1.97" d="M404.37,-338.7C427.58,-301.71 495.42,-193.57 507.94,-173.62"/>
</g>
<!-- pollution&#45;&#45;exploitation minière -->
<g id="edge12" class="edge">
<title>pollution&#45;&#45;exploitation minière</title>
<path fill="none" stroke="darkgrey" stroke-width="2.37" d="M395.68,-336.47C393.41,-299.66 387.5,-203.9 385.5,-171.38"/>
</g>
<!-- pollution&#45;&#45;alternative au développement -->
<g id="edge13" class="edge">
<title>pollution&#45;&#45;alternative au développement</title>
<path fill="none" stroke="darkgrey" stroke-width="1.94" d="M383.6,-358.03C333.84,-384.51 156.72,-478.78 130.7,-492.63"/>
</g>
<!-- pollution&#45;&#45;matériel -->
<g id="edge14" class="edge">
<title>pollution&#45;&#45;matériel</title>
<path fill="none" stroke="darkgrey" stroke-width="2.72" d="M390.26,-364.47C380,-386.12 359.86,-428.65 349.61,-450.29"/>
</g>
<!-- pollution&#45;&#45;foncier -->
<g id="edge15" class="edge">
<title>pollution&#45;&#45;foncier</title>
<path fill="none" stroke="darkgrey" stroke-width="1.37" d="M385.84,-361.84C353.97,-393.64 260.76,-486.65 237.96,-509.41"/>
</g>
<!-- pollution&#45;&#45;relation politique -->
<g id="edge16" class="edge">
<title>pollution&#45;&#45;relation politique</title>
<path fill="none" stroke="darkgrey" stroke-width="1.12" d="M381.85,-352.8C325.36,-359.24 124.31,-382.17 94.78,-385.53"/>
</g>
<!-- pollution&#45;&#45;industrie -->
<g id="edge17" class="edge">
<title>pollution&#45;&#45;industrie</title>
<path fill="none" stroke="darkgrey" stroke-width="3.06" d="M382.09,-352.26C348.76,-354.88 266.7,-361.32 230.07,-364.2"/>
</g>
<!-- pollution&#45;&#45;risque -->
<g id="edge18" class="edge">
<title>pollution&#45;&#45;risque</title>
<path fill="none" stroke="darkgrey" stroke-width="1.15" d="M396.12,-336.63C394.19,-275.46 386.76,-40.1 385.73,-7.3"/>
</g>
<!-- pollution&#45;&#45;échange commercial -->
<g id="edge19" class="edge">
<title>pollution&#45;&#45;échange commercial</title>
<path fill="none" stroke="darkgrey" stroke-width="1.34" d="M391.28,-364.89C375.86,-404.94 331.43,-520.37 320.23,-549.46"/>
</g>
<!-- dégradation environnementale&#45;&#45;nouvelle&#45;calédonie -->
<g id="edge20" class="edge">
<title>dégradation environnementale&#45;&#45;nouvelle&#45;calédonie</title>
<path fill="none" stroke="darkgrey" stroke-width="1.8" d="M475.58,-437.75C460.25,-457.9 441.42,-482.65 434.9,-491.22"/>
</g>
<!-- dégradation environnementale&#45;&#45;travail -->
<g id="edge21" class="edge">
<title>dégradation environnementale&#45;&#45;travail</title>
<path fill="none" stroke="darkgrey" stroke-width="7.78" d="M472.64,-382.15C429.07,-335.68 340.5,-241.19 305.38,-203.73"/>
</g>
<!-- dégradation environnementale&#45;&#45;économie -->
<g id="edge22" class="edge">
<title>dégradation environnementale&#45;&#45;économie</title>
<path fill="none" stroke="darkgrey" stroke-width="6.53" d="M481.28,-376.55C465.77,-345.92 443.23,-301.43 432.21,-279.66"/>
</g>
<!-- dégradation environnementale&#45;&#45;nickel -->
<g id="edge23" class="edge">
<title>dégradation environnementale&#45;&#45;nickel</title>
<path fill="none" stroke="darkgrey" stroke-width="10" d="M504.63,-373.28C504.75,-372.71 504.86,-372.13 504.97,-371.55"/>
</g>
<!-- dégradation environnementale&#45;&#45;ressource minière -->
<g id="edge24" class="edge">
<title>dégradation environnementale&#45;&#45;ressource minière</title>
<path fill="none" stroke="darkgrey" stroke-width="4.23" d="M463.38,-397.05C388.29,-371.28 212.22,-310.86 167.42,-295.48"/>
</g>
<!-- dégradation environnementale&#45;&#45;politique -->
<g id="edge25" class="edge">
<title>dégradation environnementale&#45;&#45;politique</title>
<path fill="none" stroke="darkgrey" stroke-width="4.75" d="M467.27,-388.92C403.19,-346.96 256.45,-250.86 213.23,-222.55"/>
</g>
<!-- dégradation environnementale&#45;&#45;secteur nickel -->
<g id="edge26" class="edge">
<title>dégradation environnementale&#45;&#45;secteur nickel</title>
<path fill="none" stroke="darkgrey" stroke-width="5.17" d="M470.34,-384.6C434.61,-352.91 373.32,-298.54 346.14,-274.43"/>
</g>
<!-- dégradation environnementale&#45;&#45;nature -->
<g id="edge27" class="edge">
<title>dégradation environnementale&#45;&#45;nature</title>
<path fill="none" stroke="darkgrey" stroke-width="4.72" d="M462.23,-400.25C413.67,-388.53 328.55,-367.98 294.8,-359.83"/>
</g>
<!-- dégradation environnementale&#45;&#45;amélioration environnementale -->
<g id="edge28" class="edge">
<title>dégradation environnementale&#45;&#45;amélioration environnementale</title>
<path fill="none" stroke="darkgrey" stroke-width="1.58" d="M520.38,-380.56C572.18,-316.32 694.99,-164 702.62,-154.54"/>
</g>
<!-- dégradation environnementale&#45;&#45;société néo&#45;calédonienne -->
<g id="edge29" class="edge">
<title>dégradation environnementale&#45;&#45;société néo&#45;calédonienne</title>
<path fill="none" stroke="darkgrey" stroke-width="2.15" d="M499.48,-372.59C502.59,-312.42 508.6,-196.24 509.75,-174.13"/>
</g>
<!-- dégradation environnementale&#45;&#45;exploitation minière -->
<g id="edge30" class="edge">
<title>dégradation environnementale&#45;&#45;exploitation minière</title>
<path fill="none" stroke="darkgrey" stroke-width="4.08" d="M482.63,-375.8C456.87,-319.05 405.39,-205.68 389.56,-170.82"/>
</g>
<!-- dégradation environnementale&#45;&#45;alternative au développement -->
<g id="edge31" class="edge">
<title>dégradation environnementale&#45;&#45;alternative au développement</title>
<path fill="none" stroke="darkgrey" stroke-width="2.34" d="M462.46,-416.92C376.57,-436.77 160.87,-486.62 130.96,-493.54"/>
</g>
<!-- dégradation environnementale&#45;&#45;matériel -->
<g id="edge32" class="edge">
<title>dégradation environnementale&#45;&#45;matériel</title>
<path fill="none" stroke="darkgrey" stroke-width="4.24" d="M463.36,-420.96C429.98,-432.82 380.87,-450.27 357.14,-458.7"/>
</g>
<!-- dégradation environnementale&#45;&#45;foncier -->
<g id="edge33" class="edge">
<title>dégradation environnementale&#45;&#45;foncier</title>
<path fill="none" stroke="darkgrey" stroke-width="2.35" d="M464.08,-422.18C401.47,-447.17 270.32,-499.53 239.48,-511.84"/>
</g>
<!-- dégradation environnementale&#45;&#45;relation politique -->
<g id="edge34" class="edge">
<title>dégradation environnementale&#45;&#45;relation politique</title>
<path fill="none" stroke="darkgrey" stroke-width="1.74" d="M461.54,-406.76C369.06,-401.57 128.39,-388.04 95.01,-386.16"/>
</g>
<!-- dégradation environnementale&#45;&#45;industrie -->
<g id="edge35" class="edge">
<title>dégradation environnementale&#45;&#45;industrie</title>
<path fill="none" stroke="darkgrey" stroke-width="4.5" d="M462,-403.41C400.37,-394.1 275.98,-375.31 229.74,-368.32"/>
</g>
<!-- dégradation environnementale&#45;&#45;risque -->
<g id="edge36" class="edge">
<title>dégradation environnementale&#45;&#45;risque</title>
<path fill="none" stroke="darkgrey" stroke-width="1.7" d="M487.96,-373.89C462.6,-282.1 395.38,-38.87 386.56,-6.97"/>
</g>
<!-- dégradation environnementale&#45;&#45;échange commercial -->
<g id="edge37" class="edge">
<title>dégradation environnementale&#45;&#45;échange commercial</title>
<path fill="none" stroke="darkgrey" stroke-width="2.54" d="M469.49,-431.82C425.99,-467.44 345.11,-533.68 323.22,-551.61"/>
</g>
<!-- dégradation environnementale&#45;&#45;avenir sans nickel -->
<g id="edge38" class="edge">
<title>dégradation environnementale&#45;&#45;avenir sans nickel</title>
<path fill="none" stroke="darkgrey" stroke-width="1.2" d="M531.76,-420.32C634.19,-454.89 932.61,-555.63 946.54,-560.34"/>
</g>
<!-- nouvelle&#45;calédonie&#45;&#45;travail -->
<g id="edge39" class="edge">
<title>nouvelle&#45;calédonie&#45;&#45;travail</title>
<path fill="none" stroke="darkgrey" stroke-width="1.91" d="M430.95,-490.87C417.91,-462.73 328.57,-269.94 299.6,-207.43"/>
</g>
<!-- nouvelle&#45;calédonie&#45;&#45;économie -->
<g id="edge40" class="edge">
<title>nouvelle&#45;calédonie&#45;&#45;économie</title>
<path fill="none" stroke="darkgrey" stroke-width="1.78" d="M432.44,-490.74C431.71,-466.64 427.49,-327.55 426.09,-281.5"/>
</g>
<!-- nouvelle&#45;calédonie&#45;&#45;nickel -->
<g id="edge41" class="edge">
<title>nouvelle&#45;calédonie&#45;&#45;nickel</title>
<path fill="none" stroke="darkgrey" stroke-width="2.59" d="M434.21,-491.01C441.98,-475.52 475.3,-409.16 495.72,-368.47"/>
</g>
<!-- nouvelle&#45;calédonie&#45;&#45;ressource minière -->
<g id="edge42" class="edge">
<title>nouvelle&#45;calédonie&#45;&#45;ressource minière</title>
<path fill="none" stroke="darkgrey" stroke-width="1.54" d="M429.45,-492.04C402.66,-472.36 209.93,-330.81 165.87,-298.45"/>
</g>
<!-- nouvelle&#45;calédonie&#45;&#45;politique -->
<g id="edge43" class="edge">
<title>nouvelle&#45;calédonie&#45;&#45;politique</title>
<path fill="none" stroke="darkgrey" stroke-width="1.86" d="M430.26,-491.54C409.31,-466.24 250.92,-274.85 210.44,-225.92"/>
</g>
<!-- nouvelle&#45;calédonie&#45;&#45;secteur nickel -->
<g id="edge44" class="edge">
<title>nouvelle&#45;calédonie&#45;&#45;secteur nickel</title>
<path fill="none" stroke="darkgrey" stroke-width="1.77" d="M431.13,-491.03C421.11,-467.79 360.58,-327.48 339.62,-278.87"/>
</g>
<!-- nouvelle&#45;calédonie&#45;&#45;nature -->
<g id="edge45" class="edge">
<title>nouvelle&#45;calédonie&#45;&#45;nature</title>
<path fill="none" stroke="darkgrey" stroke-width="1.33" d="M429.91,-491.92C413.34,-476.89 323.36,-395.3 291.57,-366.47"/>
</g>
<!-- nouvelle&#45;calédonie&#45;&#45;société néo&#45;calédonienne -->
<g id="edge46" class="edge">
<title>nouvelle&#45;calédonie&#45;&#45;société néo&#45;calédonienne</title>
<path fill="none" stroke="darkgrey" stroke-width="1.07" d="M433.42,-490.68C441.35,-457.46 501.16,-207.15 509.07,-174.05"/>
</g>
<!-- nouvelle&#45;calédonie&#45;&#45;exploitation minière -->
<g id="edge47" class="edge">
<title>nouvelle&#45;calédonie&#45;&#45;exploitation minière</title>
<path fill="none" stroke="darkgrey" stroke-width="1.29" d="M432.01,-490.56C427.38,-458.18 394.15,-225.64 386.42,-171.59"/>
</g>
<!-- nouvelle&#45;calédonie&#45;&#45;foncier -->
<g id="edge48" class="edge">
<title>nouvelle&#45;calédonie&#45;&#45;foncier</title>
<path fill="none" stroke="darkgrey" stroke-width="1.04" d="M428.74,-494.7C404.58,-497.14 272.75,-510.45 240.17,-513.74"/>
</g>
<!-- nouvelle&#45;calédonie&#45;&#45;relation politique -->
<g id="edge49" class="edge">
<title>nouvelle&#45;calédonie&#45;&#45;relation politique</title>
<path fill="none" stroke="darkgrey" stroke-width="1.17" d="M429.17,-493.24C395.93,-482.69 127.92,-397.62 94.55,-387.03"/>
</g>
<!-- nouvelle&#45;calédonie&#45;&#45;industrie -->
<g id="edge50" class="edge">
<title>nouvelle&#45;calédonie&#45;&#45;industrie</title>
<path fill="none" stroke="darkgrey" stroke-width="1.44" d="M429.43,-492.49C407.32,-479.6 273.88,-401.78 227.65,-374.81"/>
</g>
<!-- nouvelle&#45;calédonie&#45;&#45;échange commercial -->
<g id="edge51" class="edge">
<title>nouvelle&#45;calédonie&#45;&#45;échange commercial</title>
<path fill="none" stroke="darkgrey" stroke-width="1.13" d="M429.23,-496.1C413.41,-504.62 345.45,-541.2 324.09,-552.7"/>
</g>
<!-- travail&#45;&#45;économie -->
<g id="edge52" class="edge">
<title>travail&#45;&#45;économie</title>
<path fill="none" stroke="darkgrey" stroke-width="5.64" d="M309.34,-198.87C337.32,-215.19 389.21,-245.45 413.06,-259.36"/>
</g>
<!-- travail&#45;&#45;nickel -->
<g id="edge53" class="edge">
<title>travail&#45;&#45;nickel</title>
<path fill="none" stroke="darkgrey" stroke-width="7.57" d="M308.68,-200.04C346.69,-225.47 435.09,-284.62 481.81,-315.88"/>
</g>
<!-- travail&#45;&#45;ressource minière -->
<g id="edge54" class="edge">
<title>travail&#45;&#45;ressource minière</title>
<path fill="none" stroke="darkgrey" stroke-width="3.31" d="M273.36,-201.29C244.6,-223.67 187.73,-267.9 165.81,-284.95"/>
</g>
<!-- travail&#45;&#45;politique -->
<g id="edge55" class="edge">
<title>travail&#45;&#45;politique</title>
<path fill="none" stroke="darkgrey" stroke-width="4.17" d="M269.8,-194.1C252.96,-199.11 229.69,-206.04 215,-210.41"/>
</g>
<!-- travail&#45;&#45;secteur nickel -->
<g id="edge56" class="edge">
<title>travail&#45;&#45;secteur nickel</title>
<path fill="none" stroke="darkgrey" stroke-width="4.47" d="M301.13,-206.69C308.02,-218.91 316.91,-234.69 323.46,-246.31"/>
</g>
<!-- travail&#45;&#45;nature -->
<g id="edge57" class="edge">
<title>travail&#45;&#45;nature</title>
<path fill="none" stroke="darkgrey" stroke-width="3.88" d="M289.25,-209.59C287.16,-244.43 283.1,-311.96 281.31,-341.7"/>
</g>
<!-- travail&#45;&#45;amélioration environnementale -->
<g id="edge58" class="edge">
<title>travail&#45;&#45;amélioration environnementale</title>
<path fill="none" stroke="darkgrey" stroke-width="1.24" d="M312.15,-186.15C394.36,-179.4 684.08,-155.63 702.11,-154.16"/>
</g>
<!-- travail&#45;&#45;société néo&#45;calédonienne -->
<g id="edge59" class="edge">
<title>travail&#45;&#45;société néo&#45;calédonienne</title>
<path fill="none" stroke="darkgrey" stroke-width="1.96" d="M311.99,-186.21C362.02,-182.22 483.94,-172.51 506.36,-170.73"/>
</g>
<!-- travail&#45;&#45;exploitation minière -->
<g id="edge60" class="edge">
<title>travail&#45;&#45;exploitation minière</title>
<path fill="none" stroke="darkgrey" stroke-width="3.6" d="M311.48,-181.81C330.9,-176.13 359.02,-167.92 374.18,-163.49"/>
</g>
<!-- travail&#45;&#45;alternative au développement -->
<g id="edge61" class="edge">
<title>travail&#45;&#45;alternative au développement</title>
<path fill="none" stroke="darkgrey" stroke-width="1.67" d="M280.36,-207.08C247.17,-269.45 143.57,-464.13 129.17,-491.2"/>
</g>
<!-- travail&#45;&#45;matériel -->
<g id="edge62" class="edge">
<title>travail&#45;&#45;matériel</title>
<path fill="none" stroke="darkgrey" stroke-width="3.58" d="M294.61,-209.09C304.91,-262.93 331.89,-404 340.56,-449.35"/>
</g>
<!-- travail&#45;&#45;foncier -->
<g id="edge63" class="edge">
<title>travail&#45;&#45;foncier</title>
<path fill="none" stroke="darkgrey" stroke-width="1.88" d="M286.77,-209.34C275.27,-274.47 241.08,-468.06 234.13,-507.44"/>
</g>
<!-- travail&#45;&#45;relation politique -->
<g id="edge64" class="edge">
<title>travail&#45;&#45;relation politique</title>
<path fill="none" stroke="darkgrey" stroke-width="1.43" d="M275.24,-203.13C232.56,-245.51 114.09,-363.16 94.04,-383.07"/>
</g>
<!-- travail&#45;&#45;industrie -->
<g id="edge65" class="edge">
<title>travail&#45;&#45;industrie</title>
<path fill="none" stroke="darkgrey" stroke-width="4.12" d="M281.84,-207.61C266.24,-242.86 233.82,-316.09 219.26,-348.99"/>
</g>
<!-- travail&#45;&#45;risque -->
<g id="edge66" class="edge">
<title>travail&#45;&#45;risque</title>
<path fill="none" stroke="darkgrey" stroke-width="1.9" d="M300.55,-168.53C322.57,-125.8 374.11,-25.81 383.96,-6.69"/>
</g>
<!-- travail&#45;&#45;échange commercial -->
<g id="edge67" class="edge">
<title>travail&#45;&#45;échange commercial</title>
<path fill="none" stroke="darkgrey" stroke-width="2.11" d="M292.15,-209.58C297.39,-280.81 313.93,-505.7 317.11,-548.95"/>
</g>
<!-- économie&#45;&#45;nickel -->
<g id="edge68" class="edge">
<title>économie&#45;&#45;nickel</title>
<path fill="none" stroke="darkgrey" stroke-width="6.14" d="M437.29,-276.05C449.16,-285.6 468.04,-300.76 483.84,-313.46"/>
</g>
<!-- économie&#45;&#45;ressource minière -->
<g id="edge69" class="edge">
<title>économie&#45;&#45;ressource minière</title>
<path fill="none" stroke="darkgrey" stroke-width="2.43" d="M411.19,-268.05C363.33,-272.54 210.6,-286.85 168.03,-290.84"/>
</g>
<!-- économie&#45;&#45;politique -->
<g id="edge70" class="edge">
<title>économie&#45;&#45;politique</title>
<path fill="none" stroke="darkgrey" stroke-width="4.53" d="M411.25,-263.36C370.68,-253.94 255.73,-227.26 215.31,-217.88"/>
</g>
<!-- économie&#45;&#45;secteur nickel -->
<g id="edge71" class="edge">
<title>économie&#45;&#45;secteur nickel</title>
<path fill="none" stroke="darkgrey" stroke-width="3.96" d="M411.08,-266.01C394.81,-265.24 368.43,-264 350.77,-263.17"/>
</g>
<!-- économie&#45;&#45;nature -->
<g id="edge72" class="edge">
<title>économie&#45;&#45;nature</title>
<path fill="none" stroke="darkgrey" stroke-width="2.99" d="M413.26,-274.34C385.82,-291.28 320.18,-331.82 292.78,-348.74"/>
</g>
<!-- économie&#45;&#45;amélioration environnementale -->
<g id="edge73" class="edge">
<title>économie&#45;&#45;amélioration environnementale</title>
<path fill="none" stroke="darkgrey" stroke-width="1.19" d="M439.39,-261.11C493.61,-239.1 690.16,-159.29 702.4,-154.33"/>
</g>
<!-- économie&#45;&#45;société néo&#45;calédonienne -->
<g id="edge74" class="edge">
<title>économie&#45;&#45;société néo&#45;calédonienne</title>
<path fill="none" stroke="darkgrey" stroke-width="1.81" d="M435.31,-255.66C454.51,-233.73 496.53,-185.75 507.35,-173.39"/>
</g>
<!-- économie&#45;&#45;exploitation minière -->
<g id="edge75" class="edge">
<title>économie&#45;&#45;exploitation minière</title>
<path fill="none" stroke="darkgrey" stroke-width="2.36" d="M420.3,-252.8C412,-231.18 396.19,-190.01 388.81,-170.77"/>
</g>
<!-- économie&#45;&#45;alternative au développement -->
<g id="edge76" class="edge">
<title>économie&#45;&#45;alternative au développement</title>
<path fill="none" stroke="darkgrey" stroke-width="1.68" d="M413.95,-275.62C362.49,-314.91 157.45,-471.47 130.44,-492.09"/>
</g>
<!-- économie&#45;&#45;matériel -->
<g id="edge77" class="edge">
<title>économie&#45;&#45;matériel</title>
<path fill="none" stroke="darkgrey" stroke-width="2.39" d="M419.98,-280.23C404.94,-316.21 364.08,-413.91 348.99,-449.99"/>
</g>
<!-- économie&#45;&#45;foncier -->
<g id="edge78" class="edge">
<title>économie&#45;&#45;foncier</title>
<path fill="none" stroke="darkgrey" stroke-width="1.52" d="M416.6,-278.32C382.51,-322.14 262.4,-476.53 237.44,-508.61"/>
</g>
<!-- économie&#45;&#45;relation politique -->
<g id="edge79" class="edge">
<title>économie&#45;&#45;relation politique</title>
<path fill="none" stroke="darkgrey" stroke-width="1.58" d="M411.69,-271.67C352.84,-292.65 126.36,-373.39 94.8,-384.64"/>
</g>
<!-- économie&#45;&#45;industrie -->
<g id="edge80" class="edge">
<title>économie&#45;&#45;industrie</title>
<path fill="none" stroke="darkgrey" stroke-width="2.77" d="M412.27,-272.89C374.89,-290.19 269.37,-339.03 228.43,-357.98"/>
</g>
<!-- économie&#45;&#45;risque -->
<g id="edge81" class="edge">
<title>économie&#45;&#45;risque</title>
<path fill="none" stroke="darkgrey" stroke-width="1.1" d="M423.43,-252.17C415.73,-201.52 390.29,-34.31 386.17,-7.22"/>
</g>
<!-- économie&#45;&#45;échange commercial -->
<g id="edge82" class="edge">
<title>économie&#45;&#45;échange commercial</title>
<path fill="none" stroke="darkgrey" stroke-width="1.82" d="M420.43,-280.66C401.13,-332.39 334.11,-512.04 320.19,-549.36"/>
</g>
<!-- nickel&#45;&#45;ressource minière -->
<g id="edge83" class="edge">
<title>nickel&#45;&#45;ressource minière</title>
<path fill="none" stroke="darkgrey" stroke-width="4.8" d="M475.99,-331.59C397.53,-321.83 214.42,-299.03 167.84,-293.24"/>
</g>
<!-- nickel&#45;&#45;politique -->
<g id="edge84" class="edge">
<title>nickel&#45;&#45;politique</title>
<path fill="none" stroke="darkgrey" stroke-width="4.14" d="M478.42,-322.95C410.73,-296.5 260.44,-237.78 214.59,-219.86"/>
</g>
<!-- nickel&#45;&#45;secteur nickel -->
<g id="edge85" class="edge">
<title>nickel&#45;&#45;secteur nickel</title>
<path fill="none" stroke="darkgrey" stroke-width="6.25" d="M478.64,-322.37C440.32,-306.62 378.91,-281.39 349.39,-269.26"/>
</g>
<!-- nickel&#45;&#45;nature -->
<g id="edge86" class="edge">
<title>nickel&#45;&#45;nature</title>
<path fill="none" stroke="darkgrey" stroke-width="5.2" d="M476.06,-339.22C424.23,-343.76 330.78,-351.95 294.95,-355.09"/>
</g>
<!-- nickel&#45;&#45;amélioration environnementale -->
<g id="edge87" class="edge">
<title>nickel&#45;&#45;amélioration environnementale</title>
<path fill="none" stroke="darkgrey" stroke-width="1.24" d="M538.15,-311.15C588.01,-263.64 692.57,-164.01 702.27,-154.77"/>
</g>
<!-- nickel&#45;&#45;société néo&#45;calédonienne -->
<g id="edge88" class="edge">
<title>nickel&#45;&#45;société néo&#45;calédonienne</title>
<path fill="none" stroke="darkgrey" stroke-width="1.64" d="M511.54,-299.72C511.01,-257.06 510.18,-190.08 509.98,-174"/>
</g>
<!-- nickel&#45;&#45;exploitation minière -->
<g id="edge89" class="edge">
<title>nickel&#45;&#45;exploitation minière</title>
<path fill="none" stroke="darkgrey" stroke-width="6.27" d="M490.7,-306.66C461.29,-266.03 409.77,-194.85 391.49,-169.59"/>
</g>
<!-- nickel&#45;&#45;alternative au développement -->
<g id="edge90" class="edge">
<title>nickel&#45;&#45;alternative au développement</title>
<path fill="none" stroke="darkgrey" stroke-width="1.97" d="M478.54,-349.84C391.21,-385.79 160.98,-480.56 130.78,-492.98"/>
</g>
<!-- nickel&#45;&#45;matériel -->
<g id="edge91" class="edge">
<title>nickel&#45;&#45;matériel</title>
<path fill="none" stroke="darkgrey" stroke-width="5.51" d="M482.99,-358C445.31,-386.49 381.24,-434.93 355.01,-454.76"/>
</g>
<!-- nickel&#45;&#45;foncier -->
<g id="edge92" class="edge">
<title>nickel&#45;&#45;foncier</title>
<path fill="none" stroke="darkgrey" stroke-width="2.67" d="M481.59,-355.5C417.16,-396.68 270.22,-490.61 238.84,-510.66"/>
</g>
<!-- nickel&#45;&#45;relation politique -->
<g id="edge93" class="edge">
<title>nickel&#45;&#45;relation politique</title>
<path fill="none" stroke="darkgrey" stroke-width="1.66" d="M476.11,-340.32C381.09,-351.58 127.96,-381.58 94.75,-385.52"/>
</g>
<!-- nickel&#45;&#45;industrie -->
<g id="edge94" class="edge">
<title>nickel&#45;&#45;industrie</title>
<path fill="none" stroke="darkgrey" stroke-width="7.38" d="M476.09,-339.61C411.68,-345.95 278.7,-359.05 230.15,-363.83"/>
</g>
<!-- nickel&#45;&#45;risque -->
<g id="edge95" class="edge">
<title>nickel&#45;&#45;risque</title>
<path fill="none" stroke="darkgrey" stroke-width="1.43" d="M499.18,-302.35C469.43,-224.08 397.42,-34.6 386.9,-6.9"/>
</g>
<!-- nickel&#45;&#45;échange commercial -->
<g id="edge96" class="edge">
<title>nickel&#45;&#45;échange commercial</title>
<path fill="none" stroke="darkgrey" stroke-width="3.54" d="M488.16,-363.06C442.55,-414.72 345.39,-524.75 322.53,-550.64"/>
</g>
<!-- nickel&#45;&#45;avenir sans nickel -->
<g id="edge97" class="edge">
<title>nickel&#45;&#45;avenir sans nickel</title>
<path fill="none" stroke="darkgrey" stroke-width="1.09" d="M544.33,-352.76C642.8,-403.55 933.01,-553.27 946.56,-560.25"/>
</g>
<!-- ressource minière&#45;&#45;politique -->
<g id="edge98" class="edge">
<title>ressource minière&#45;&#45;politique</title>
<path fill="none" stroke="darkgrey" stroke-width="2.72" d="M162.5,-282.08C170.43,-268.19 184.96,-242.73 193.74,-227.36"/>
</g>
<!-- ressource minière&#45;&#45;secteur nickel -->
<g id="edge99" class="edge">
<title>ressource minière&#45;&#45;secteur nickel</title>
<path fill="none" stroke="darkgrey" stroke-width="2.39" d="M167.89,-290.03C197.4,-285.06 278.57,-271.38 314.71,-265.29"/>
</g>
<!-- ressource minière&#45;&#45;nature -->
<g id="edge100" class="edge">
<title>ressource minière&#45;&#45;nature</title>
<path fill="none" stroke="darkgrey" stroke-width="2" d="M167.02,-297.15C189.26,-308.77 242.42,-336.52 267.24,-349.48"/>
</g>
<!-- ressource minière&#45;&#45;société néo&#45;calédonienne -->
<g id="edge101" class="edge">
<title>ressource minière&#45;&#45;société néo&#45;calédonienne</title>
<path fill="none" stroke="darkgrey" stroke-width="1.14" d="M167.48,-288.24C222.32,-269.38 473.25,-183.06 506.33,-171.68"/>
</g>
<!-- ressource minière&#45;&#45;exploitation minière -->
<g id="edge102" class="edge">
<title>ressource minière&#45;&#45;exploitation minière</title>
<path fill="none" stroke="darkgrey" stroke-width="2.34" d="M166.7,-286.23C204.11,-264.65 337.72,-187.55 375.06,-166.01"/>
</g>
<!-- ressource minière&#45;&#45;alternative au développement -->
<g id="edge103" class="edge">
<title>ressource minière&#45;&#45;alternative au développement</title>
<path fill="none" stroke="darkgrey" stroke-width="1.14" d="M155.29,-303.05C149.7,-341.51 131.42,-467.36 128.04,-490.62"/>
</g>
<!-- ressource minière&#45;&#45;matériel -->
<g id="edge104" class="edge">
<title>ressource minière&#45;&#45;matériel</title>
<path fill="none" stroke="darkgrey" stroke-width="1.98" d="M165.4,-299.7C195.74,-327.66 298.74,-422.57 332.49,-453.66"/>
</g>
<!-- ressource minière&#45;&#45;foncier -->
<g id="edge105" class="edge">
<title>ressource minière&#45;&#45;foncier</title>
<path fill="none" stroke="darkgrey" stroke-width="1.1" d="M160.47,-302.31C173.67,-340.99 219.6,-475.57 230.53,-507.6"/>
</g>
<!-- ressource minière&#45;&#45;relation politique -->
<g id="edge106" class="edge">
<title>ressource minière&#45;&#45;relation politique</title>
<path fill="none" stroke="darkgrey" stroke-width="1.08" d="M150.61,-300.9C136.33,-321.31 102.1,-370.28 93.26,-382.93"/>
</g>
<!-- ressource minière&#45;&#45;industrie -->
<g id="edge107" class="edge">
<title>ressource minière&#45;&#45;industrie</title>
<path fill="none" stroke="darkgrey" stroke-width="2.53" d="M163.65,-300.92C173,-313.46 190.01,-336.26 201.13,-351.18"/>
</g>
<!-- ressource minière&#45;&#45;échange commercial -->
<g id="edge108" class="edge">
<title>ressource minière&#45;&#45;échange commercial</title>
<path fill="none" stroke="darkgrey" stroke-width="1.82" d="M162.63,-301.28C188.36,-343.58 292.98,-515.62 313.97,-550.13"/>
</g>
<!-- politique&#45;&#45;secteur nickel -->
<g id="edge109" class="edge">
<title>politique&#45;&#45;secteur nickel</title>
<path fill="none" stroke="darkgrey" stroke-width="3.41" d="M215.1,-219.67C239.34,-228.48 288.9,-246.48 315.2,-256.03"/>
</g>
<!-- politique&#45;&#45;nature -->
<g id="edge110" class="edge">
<title>politique&#45;&#45;nature</title>
<path fill="none" stroke="darkgrey" stroke-width="2.01" d="M208.36,-227.65C223.49,-254.66 258.01,-316.32 273.12,-343.31"/>
</g>
<!-- politique&#45;&#45;société néo&#45;calédonienne -->
<g id="edge111" class="edge">
<title>politique&#45;&#45;société néo&#45;calédonienne</title>
<path fill="none" stroke="darkgrey" stroke-width="1.59" d="M215.52,-212.49C272.06,-204.42 476.25,-175.25 506.25,-170.97"/>
</g>
<!-- politique&#45;&#45;exploitation minière -->
<g id="edge112" class="edge">
<title>politique&#45;&#45;exploitation minière</title>
<path fill="none" stroke="darkgrey" stroke-width="2.11" d="M215.15,-210.4C250.62,-199.94 342.88,-172.74 374.22,-163.5"/>
</g>
<!-- politique&#45;&#45;alternative au développement -->
<g id="edge113" class="edge">
<title>politique&#45;&#45;alternative au développement</title>
<path fill="none" stroke="darkgrey" stroke-width="1.71" d="M197.29,-228.82C183.48,-281.38 135.82,-462.68 128.46,-490.69"/>
</g>
<!-- politique&#45;&#45;matériel -->
<g id="edge114" class="edge">
<title>politique&#45;&#45;matériel</title>
<path fill="none" stroke="darkgrey" stroke-width="1.75" d="M208.29,-227.26C232.69,-269.98 311.68,-408.27 336.06,-450.95"/>
</g>
<!-- politique&#45;&#45;foncier -->
<g id="edge115" class="edge">
<title>politique&#45;&#45;foncier</title>
<path fill="none" stroke="darkgrey" stroke-width="1.42" d="M202.57,-229.03C208.26,-282.62 228.03,-468.74 232.13,-507.41"/>
</g>
<!-- politique&#45;&#45;relation politique -->
<g id="edge116" class="edge">
<title>politique&#45;&#45;relation politique</title>
<path fill="none" stroke="darkgrey" stroke-width="1.67" d="M193.13,-226.89C170.3,-262.5 105.09,-364.2 93.06,-382.95"/>
</g>
<!-- politique&#45;&#45;industrie -->
<g id="edge117" class="edge">
<title>politique&#45;&#45;industrie</title>
<path fill="none" stroke="darkgrey" stroke-width="2.89" d="M202.08,-229.05C204.06,-256.67 208.39,-316.81 210.58,-347.23"/>
</g>
<!-- politique&#45;&#45;risque -->
<g id="edge118" class="edge">
<title>politique&#45;&#45;risque</title>
<path fill="none" stroke="darkgrey" stroke-width="1.06" d="M210.7,-203.51C245.71,-163.48 364.81,-27.28 383.21,-6.24"/>
</g>
<!-- politique&#45;&#45;échange commercial -->
<g id="edge119" class="edge">
<title>politique&#45;&#45;échange commercial</title>
<path fill="none" stroke="darkgrey" stroke-width="1.65" d="M205.75,-228.38C225.48,-286.17 301.03,-507.5 315.31,-549.33"/>
</g>
<!-- secteur nickel&#45;&#45;nature -->
<g id="edge120" class="edge">
<title>secteur nickel&#45;&#45;nature</title>
<path fill="none" stroke="darkgrey" stroke-width="2.61" d="M323.64,-278.26C313.44,-296.71 296.84,-326.71 287.46,-343.65"/>
</g>
<!-- secteur nickel&#45;&#45;amélioration environnementale -->
<g id="edge121" class="edge">
<title>secteur nickel&#45;&#45;amélioration environnementale</title>
<path fill="none" stroke="darkgrey" stroke-width="1.15" d="M349.85,-257.23C420.81,-236.5 685.7,-159.13 702.19,-154.32"/>
</g>
<!-- secteur nickel&#45;&#45;société néo&#45;calédonienne -->
<g id="edge122" class="edge">
<title>secteur nickel&#45;&#45;société néo&#45;calédonienne</title>
<path fill="none" stroke="darkgrey" stroke-width="1.65" d="M348.53,-253.99C387.95,-233.58 487.65,-181.98 506.75,-172.09"/>
</g>
<!-- secteur nickel&#45;&#45;exploitation minière -->
<g id="edge123" class="edge">
<title>secteur nickel&#45;&#45;exploitation minière</title>
<path fill="none" stroke="darkgrey" stroke-width="2.79" d="M340.88,-245.93C351.87,-224.54 370.75,-187.78 379.75,-170.24"/>
</g>
<!-- secteur nickel&#45;&#45;alternative au développement -->
<g id="edge124" class="edge">
<title>secteur nickel&#45;&#45;alternative au développement</title>
<path fill="none" stroke="darkgrey" stroke-width="1.34" d="M320.26,-276.12C279.41,-322.37 148.99,-470.01 129.85,-491.67"/>
</g>
<!-- secteur nickel&#45;&#45;matériel -->
<g id="edge125" class="edge">
<title>secteur nickel&#45;&#45;matériel</title>
<path fill="none" stroke="darkgrey" stroke-width="3.29" d="M333.45,-280.52C335.57,-320.01 340.56,-412.83 342.5,-448.91"/>
</g>
<!-- secteur nickel&#45;&#45;foncier -->
<g id="edge126" class="edge">
<title>secteur nickel&#45;&#45;foncier</title>
<path fill="none" stroke="darkgrey" stroke-width="1.99" d="M325.78,-279.24C306.07,-329.15 248.76,-474.27 235.6,-507.6"/>
</g>
<!-- secteur nickel&#45;&#45;relation politique -->
<g id="edge127" class="edge">
<title>secteur nickel&#45;&#45;relation politique</title>
<path fill="none" stroke="darkgrey" stroke-width="1.29" d="M316.26,-270.61C266.59,-296.06 118.41,-371.98 94.44,-384.26"/>
</g>
<!-- secteur nickel&#45;&#45;industrie -->
<g id="edge128" class="edge">
<title>secteur nickel&#45;&#45;industrie</title>
<path fill="none" stroke="darkgrey" stroke-width="4.72" d="M318.64,-274.16C295.38,-294.09 248.72,-334.08 225.57,-353.91"/>
</g>
<!-- secteur nickel&#45;&#45;risque -->
<g id="edge129" class="edge">
<title>secteur nickel&#45;&#45;risque</title>
<path fill="none" stroke="darkgrey" stroke-width="1.02" d="M336.12,-244.51C347.14,-190.84 379.63,-32.61 384.88,-7.02"/>
</g>
<!-- secteur nickel&#45;&#45;échange commercial -->
<g id="edge130" class="edge">
<title>secteur nickel&#45;&#45;échange commercial</title>
<path fill="none" stroke="darkgrey" stroke-width="2.23" d="M331.55,-280.69C328.65,-337.99 319.88,-511.74 318,-549.07"/>
</g>
<!-- nature&#45;&#45;société néo&#45;calédonienne -->
<g id="edge131" class="edge">
<title>nature&#45;&#45;société néo&#45;calédonienne</title>
<path fill="none" stroke="darkgrey" stroke-width="1.84" d="M291.81,-347.14C334.5,-312.56 483.86,-191.57 506.93,-172.87"/>
</g>
<!-- nature&#45;&#45;exploitation minière -->
<g id="edge132" class="edge">
<title>nature&#45;&#45;exploitation minière</title>
<path fill="none" stroke="darkgrey" stroke-width="2.07" d="M287.28,-343.51C306.78,-306.89 362.33,-202.61 379.62,-170.15"/>
</g>
<!-- nature&#45;&#45;alternative au développement -->
<g id="edge133" class="edge">
<title>nature&#45;&#45;alternative au développement</title>
<path fill="none" stroke="darkgrey" stroke-width="1.25" d="M269.43,-366.29C237.65,-394.96 146.91,-476.83 130.17,-491.93"/>
</g>
<!-- nature&#45;&#45;matériel -->
<g id="edge134" class="edge">
<title>nature&#45;&#45;matériel</title>
<path fill="none" stroke="darkgrey" stroke-width="3.24" d="M287.88,-369.09C299.98,-389.73 323.75,-430.28 335.84,-450.91"/>
</g>
<!-- nature&#45;&#45;foncier -->
<g id="edge135" class="edge">
<title>nature&#45;&#45;foncier</title>
<path fill="none" stroke="darkgrey" stroke-width="1.64" d="M276.21,-370.4C266.34,-403.2 242.07,-483.91 234.91,-507.74"/>
</g>
<!-- nature&#45;&#45;relation politique -->
<g id="edge136" class="edge">
<title>nature&#45;&#45;relation politique</title>
<path fill="none" stroke="darkgrey" stroke-width="1.04" d="M265.89,-358.64C225.89,-364.89 115.8,-382.09 94.67,-385.4"/>
</g>
<!-- nature&#45;&#45;industrie -->
<g id="edge137" class="edge">
<title>nature&#45;&#45;industrie</title>
<path fill="none" stroke="darkgrey" stroke-width="2.62" d="M265.89,-358.33C255.36,-359.75 241.06,-361.69 229.83,-363.2"/>
</g>
<!-- nature&#45;&#45;échange commercial -->
<g id="edge138" class="edge">
<title>nature&#45;&#45;échange commercial</title>
<path fill="none" stroke="darkgrey" stroke-width="1.49" d="M283.1,-370.73C290.47,-410.29 310.86,-519.75 316.29,-548.94"/>
</g>
<!-- société néo&#45;calédonienne&#45;&#45;exploitation minière -->
<g id="edge139" class="edge">
<title>société néo&#45;calédonienne&#45;&#45;exploitation minière</title>
<path fill="none" stroke="darkgrey" stroke-width="1.09" d="M506.33,-170.15C489.98,-168.84 422.53,-163.41 395.8,-161.26"/>
</g>
<!-- société néo&#45;calédonienne&#45;&#45;matériel -->
<g id="edge140" class="edge">
<title>société néo&#45;calédonienne&#45;&#45;matériel</title>
<path fill="none" stroke="darkgrey" stroke-width="1.52" d="M508.06,-173.73C492.22,-201.6 380.44,-398.26 350.6,-450.76"/>
</g>
<!-- société néo&#45;calédonienne&#45;&#45;industrie -->
<g id="edge141" class="edge">
<title>société néo&#45;calédonienne&#45;&#45;industrie</title>
<path fill="none" stroke="darkgrey" d="M506.99,-172.37C480.57,-189.67 284.28,-318.23 227.34,-355.52"/>
</g>
<!-- exploitation minière&#45;&#45;matériel -->
<g id="edge142" class="edge">
<title>exploitation minière&#45;&#45;matériel</title>
<path fill="none" stroke="darkgrey" stroke-width="2.61" d="M383.29,-171.53C376.93,-218.01 352.5,-396.35 345.3,-448.94"/>
</g>
<!-- exploitation minière&#45;&#45;foncier -->
<g id="edge143" class="edge">
<title>exploitation minière&#45;&#45;foncier</title>
<path fill="none" stroke="darkgrey" stroke-width="1.21" d="M380.44,-170.6C357.76,-223.44 254.13,-464.95 235.69,-507.92"/>
</g>
<!-- exploitation minière&#45;&#45;industrie -->
<g id="edge144" class="edge">
<title>exploitation minière&#45;&#45;industrie</title>
<path fill="none" stroke="darkgrey" stroke-width="3.17" d="M377.61,-168.94C350.83,-200.73 256.9,-312.21 223.66,-351.66"/>
</g>
<!-- exploitation minière&#45;&#45;risque -->
<g id="edge145" class="edge">
<title>exploitation minière&#45;&#45;risque</title>
<path fill="none" stroke="darkgrey" stroke-width="1.07" d="M384.88,-149.1C385.04,-117.06 385.49,-26.6 385.59,-7.19"/>
</g>
<!-- exploitation minière&#45;&#45;échange commercial -->
<g id="edge146" class="edge">
<title>exploitation minière&#45;&#45;échange commercial</title>
<path fill="none" stroke="darkgrey" stroke-width="1.88" d="M382.95,-171.38C373.06,-229.69 326.88,-501.76 318.84,-549.13"/>
</g>
<!-- alternative au développement&#45;&#45;matériel -->
<g id="edge147" class="edge">
<title>alternative au développement&#45;&#45;matériel</title>
<path fill="none" stroke="darkgrey" stroke-width="1.01" d="M131.25,-493.8C154.98,-490.42 284.82,-471.94 328.76,-465.69"/>
</g>
<!-- alternative au développement&#45;&#45;industrie -->
<g id="edge148" class="edge">
<title>alternative au développement&#45;&#45;industrie</title>
<path fill="none" stroke="darkgrey" stroke-width="1.49" d="M129.59,-491.15C139.49,-476.06 182.06,-411.13 201.79,-381.04"/>
</g>
<!-- matériel&#45;&#45;foncier -->
<g id="edge149" class="edge">
<title>matériel&#45;&#45;foncier</title>
<path fill="none" stroke="darkgrey" stroke-width="1.96" d="M329.75,-469.85C305.8,-480.89 256.82,-503.45 239.3,-511.52"/>
</g>
<!-- matériel&#45;&#45;industrie -->
<g id="edge150" class="edge">
<title>matériel&#45;&#45;industrie</title>
<path fill="none" stroke="darkgrey" stroke-width="3.73" d="M331.63,-454.92C307.64,-437.03 252.8,-396.13 226.5,-376.51"/>
</g>
<!-- matériel&#45;&#45;échange commercial -->
<g id="edge151" class="edge">
<title>matériel&#45;&#45;échange commercial</title>
<path fill="none" stroke="darkgrey" stroke-width="1.82" d="M339.4,-477.68C333.85,-497.7 323.87,-533.71 319.63,-549"/>
</g>
<!-- foncier&#45;&#45;industrie -->
<g id="edge152" class="edge">
<title>foncier&#45;&#45;industrie</title>
<path fill="none" stroke="darkgrey" stroke-width="1.88" d="M231.87,-507.29C228.73,-485 219.06,-416.46 214.43,-383.58"/>
</g>
<!-- foncier&#45;&#45;échange commercial -->
<g id="edge153" class="edge">
<title>foncier&#45;&#45;échange commercial</title>
<path fill="none" stroke="darkgrey" stroke-width="1.07" d="M239.25,-517.61C254.96,-525.34 295.41,-545.24 311.2,-553.01"/>
</g>
<!-- relation politique&#45;&#45;industrie -->
<g id="edge154" class="edge">
<title>relation politique&#45;&#45;industrie</title>
<path fill="none" stroke="darkgrey" stroke-width="1.01" d="M94.63,-385.36C109.09,-382.93 165,-373.52 194.09,-368.63"/>
</g>
<!-- relation politique&#45;&#45;échange commercial -->
<g id="edge155" class="edge">
<title>relation politique&#45;&#45;échange commercial</title>
<path fill="none" stroke="darkgrey" stroke-width="1.23" d="M94.01,-388.1C117.56,-405.8 279.31,-527.37 311.92,-551.88"/>
</g>
<!-- industrie&#45;&#45;risque -->
<g id="edge156" class="edge">
<title>industrie&#45;&#45;risque</title>
<path fill="none" stroke="darkgrey" stroke-width="1.11" d="M219.81,-349.13C251.54,-282.99 368.53,-39.1 383.93,-7"/>
</g>
<!-- industrie&#45;&#45;échange commercial -->
<g id="edge157" class="edge">
<title>industrie&#45;&#45;échange commercial</title>
<path fill="none" stroke="darkgrey" stroke-width="2.13" d="M220.73,-381.55C242.77,-421.26 299.46,-523.42 314.13,-549.86"/>
</g>
<!-- pollution -->
<g id="node1" class="node">
<title>pollution</title>
<ellipse fill="#a22b62" stroke="white" stroke-width="0" cx="396.58" cy="-351.12" rx="14.5" ry="14.5"/>
<text text-anchor="middle" x="363.58" y="-368.22" font-family="Helvetica,sans-Serif" font-size="8.00" fill="#4d4d4d">pollution</text>
</g>
<!-- dégradation environnementale -->
<g id="node2" class="node">
<title>dégradation environnementale</title>
<ellipse fill="#f2f27d" stroke="white" stroke-width="0" cx="497.61" cy="-408.79" rx="36" ry="36"/>
<text text-anchor="middle" x="525.11" y="-447.39" font-family="Helvetica,sans-Serif" font-size="8.00" fill="#4d4d4d">dégradation environnementale</text>
</g>
<!-- nouvelle&#45;calédonie -->
<g id="node3" class="node">
<title>nouvelle&#45;calédonie</title>
<ellipse fill="#1c0c43" stroke="white" stroke-width="0" cx="432.55" cy="-494.31" rx="3.5" ry="3.5"/>
<text text-anchor="middle" x="389.55" y="-500.41" font-family="Helvetica,sans-Serif" font-size="8.00" fill="#4d4d4d">nouvelle&#45;calédonie</text>
</g>
<!-- travail -->
<g id="node4" class="node">
<title>travail</title>
<ellipse fill="#d84c3e" stroke="white" stroke-width="0" cx="290.56" cy="-187.92" rx="21.5" ry="21.5"/>
<text text-anchor="middle" x="256.06" y="-212.02" font-family="Helvetica,sans-Serif" font-size="8.00" fill="#4d4d4d">travail</text>
</g>
<!-- économie -->
<g id="node5" class="node">
<title>économie</title>
<ellipse fill="#9f2a63" stroke="white" stroke-width="0" cx="425.64" cy="-266.7" rx="14.5" ry="14.5"/>
<text text-anchor="middle" x="390.64" y="-283.8" font-family="Helvetica,sans-Serif" font-size="8.00" fill="#4d4d4d">économie</text>
</g>
<!-- nickel -->
<g id="node6" class="node">
<title>nickel</title>
<ellipse fill="#fcffa4" stroke="white" stroke-width="0" cx="511.99" cy="-336.07" rx="36" ry="36"/>
<text text-anchor="middle" x="463.99" y="-302.67" font-family="Helvetica,sans-Serif" font-size="8.00" fill="#4d4d4d">nickel</text>
</g>
<!-- ressource minière -->
<g id="node7" class="node">
<title>ressource minière</title>
<ellipse fill="#57106e" stroke="white" stroke-width="0" cx="156.91" cy="-291.88" rx="11" ry="11"/>
<text text-anchor="middle" x="109.41" y="-305.48" font-family="Helvetica,sans-Serif" font-size="8.00" fill="#4d4d4d">ressource minière</text>
</g>
<!-- politique -->
<g id="node8" class="node">
<title>politique</title>
<ellipse fill="#972766" stroke="white" stroke-width="0" cx="201.04" cy="-214.56" rx="14.5" ry="14.5"/>
<text text-anchor="middle" x="168.04" y="-231.66" font-family="Helvetica,sans-Serif" font-size="8.00" fill="#4d4d4d">politique</text>
</g>
<!-- secteur nickel -->
<g id="node9" class="node">
<title>secteur nickel</title>
<ellipse fill="#ae305c" stroke="white" stroke-width="0" cx="332.47" cy="-262.3" rx="18" ry="18"/>
<text text-anchor="middle" x="285.97" y="-282.9" font-family="Helvetica,sans-Serif" font-size="8.00" fill="#4d4d4d">secteur nickel</text>
</g>
<!-- nature -->
<g id="node10" class="node">
<title>nature</title>
<ellipse fill="#7f1e6c" stroke="white" stroke-width="0" cx="280.43" cy="-356.36" rx="14.5" ry="14.5"/>
<text text-anchor="middle" x="252.43" y="-373.46" font-family="Helvetica,sans-Serif" font-size="8.00" fill="#4d4d4d">nature</text>
</g>
<!-- amélioration environnementale -->
<g id="node11" class="node">
<title>amélioration environnementale</title>
<ellipse fill="#02020e" stroke="white" stroke-width="0" cx="702.99" cy="-154.08" rx="0.5" ry="0.5"/>
<text text-anchor="middle" x="637.99" y="-157.18" font-family="Helvetica,sans-Serif" font-size="8.00" fill="#4d4d4d">amélioration environnementale</text>
</g>
<!-- société néo&#45;calédonienne -->
<g id="node12" class="node">
<title>société néo&#45;calédonienne</title>
<ellipse fill="#160b39" stroke="white" stroke-width="0" cx="509.94" cy="-170.44" rx="3.5" ry="3.5"/>
<text text-anchor="middle" x="452.44" y="-176.54" font-family="Helvetica,sans-Serif" font-size="8.00" fill="#4d4d4d">société néo&#45;calédonienne</text>
</g>
<!-- exploitation minière -->
<g id="node13" class="node">
<title>exploitation minière</title>
<ellipse fill="#741a6e" stroke="white" stroke-width="0" cx="384.82" cy="-160.38" rx="11" ry="11"/>
<text text-anchor="middle" x="333.32" y="-151.98" font-family="Helvetica,sans-Serif" font-size="8.00" fill="#4d4d4d">exploitation minière</text>
</g>
<!-- alternative au développement -->
<g id="node14" class="node">
<title>alternative au développement</title>
<ellipse fill="#10092d" stroke="white" stroke-width="0" cx="127.5" cy="-494.34" rx="3.5" ry="3.5"/>
<text text-anchor="middle" x="62" y="-500.44" font-family="Helvetica,sans-Serif" font-size="8.00" fill="#4d4d4d">alternative au développement</text>
</g>
<!-- matériel -->
<g id="node15" class="node">
<title>matériel</title>
<ellipse fill="#932667" stroke="white" stroke-width="0" cx="343.29" cy="-463.62" rx="14.5" ry="14.5"/>
<text text-anchor="middle" x="311.79" y="-480.72" font-family="Helvetica,sans-Serif" font-size="8.00" fill="#4d4d4d">matériel</text>
</g>
<!-- foncier -->
<g id="node16" class="node">
<title>foncier</title>
<ellipse fill="#240c4f" stroke="white" stroke-width="0" cx="232.88" cy="-514.47" rx="7" ry="7"/>
<text text-anchor="middle" x="211.38" y="-524.07" font-family="Helvetica,sans-Serif" font-size="8.00" fill="#4d4d4d">foncier</text>
</g>
<!-- relation politique -->
<g id="node17" class="node">
<title>relation politique</title>
<ellipse fill="#09061f" stroke="white" stroke-width="0" cx="91.14" cy="-385.95" rx="3.5" ry="3.5"/>
<text text-anchor="middle" x="52.64" y="-392.05" font-family="Helvetica,sans-Serif" font-size="8.00" fill="#4d4d4d">relation politique</text>
</g>
<!-- industrie -->
<g id="node18" class="node">
<title>industrie</title>
<ellipse fill="#b0315b" stroke="white" stroke-width="0" cx="211.9" cy="-365.63" rx="18" ry="18"/>
<text text-anchor="middle" x="175.4" y="-386.23" font-family="Helvetica,sans-Serif" font-size="8.00" fill="#4d4d4d">industrie</text>
</g>
<!-- risque -->
<g id="node19" class="node">
<title>risque</title>
<ellipse fill="#040312" stroke="white" stroke-width="0" cx="385.61" cy="-3.5" rx="3.5" ry="3.5"/>
<text text-anchor="middle" x="369.11" y="-9.6" font-family="Helvetica,sans-Serif" font-size="8.00" fill="#4d4d4d">risque</text>
</g>
<!-- échange commercial -->
<g id="node20" class="node">
<title>échange commercial</title>
<ellipse fill="#340a5f" stroke="white" stroke-width="0" cx="317.64" cy="-556.18" rx="7" ry="7"/>
<text text-anchor="middle" x="267.64" y="-565.78" font-family="Helvetica,sans-Serif" font-size="8.00" fill="#4d4d4d">échange commercial</text>
</g>
<!-- avenir sans nickel -->
<g id="node21" class="node">
<title>avenir sans nickel</title>
<ellipse fill="#000004" stroke="white" stroke-width="0" cx="947.05" cy="-560.51" rx="0.5" ry="0.5"/>
<text text-anchor="middle" x="910.05" y="-563.61" font-family="Helvetica,sans-Serif" font-size="8.00" fill="#4d4d4d">avenir sans nickel</text>
</g>
</g>
</svg>
