<?xml version="1.0" encoding="UTF-8" standalone="no"?>
<!DOCTYPE svg PUBLIC "-//W3C//DTD SVG 1.1//EN"
 "http://www.w3.org/Graphics/SVG/1.1/DTD/svg11.dtd">
<!-- Generated by graphviz version 2.43.0 (0)
 -->
<!-- Pages: 1 -->
<svg width="452pt" height="347pt"
 viewBox="0.00 0.00 452.11 347.49" xmlns="http://www.w3.org/2000/svg" xmlns:xlink="http://www.w3.org/1999/xlink">
<g id="graph0" class="graph" transform="scale(1 1) rotate(0) translate(4 343.49)">
<polygon fill="white" stroke="transparent" points="-4,4 -4,-343.49 448.11,-343.49 448.11,4 -4,4"/>
<!-- pollution&#45;&#45;travail -->
<g id="edge1" class="edge">
<title>pollution&#45;&#45;travail</title>
<path fill="none" stroke="darkgrey" stroke-width="6.94" d="M232.4,-199.45C234.53,-200.36 236.6,-201.25 238.55,-202.09"/>
</g>
<!-- pollution&#45;&#45;richesse -->
<g id="edge2" class="edge">
<title>pollution&#45;&#45;richesse</title>
<path fill="none" stroke="darkgrey" stroke-width="2.66" d="M219.12,-214.88C225.79,-226.19 233.02,-238.44 237.86,-246.65"/>
</g>
<!-- pollution&#45;&#45;destruction -->
<g id="edge3" class="edge">
<title>pollution&#45;&#45;destruction</title>
<path fill="none" stroke="darkgrey" stroke-width="4.81" d="M173.29,-171.38C142.37,-155.29 95.69,-130.99 78.95,-122.27"/>
</g>
<!-- pollution&#45;&#45;argent -->
<g id="edge4" class="edge">
<title>pollution&#45;&#45;argent</title>
<path fill="none" stroke="darkgrey" stroke-width="2.6" d="M231.91,-200.8C260.1,-214.42 300.55,-233.98 316.36,-241.62"/>
</g>
<!-- pollution&#45;&#45;nickel -->
<g id="edge5" class="edge">
<title>pollution&#45;&#45;nickel</title>
<path fill="none" stroke="darkgrey" stroke-width="9.5" d="M233.29,-176.16C240.75,-173.66 248.77,-170.96 256.38,-168.41"/>
</g>
<!-- pollution&#45;&#45;montagne -->
<g id="edge6" class="edge">
<title>pollution&#45;&#45;montagne</title>
<path fill="none" stroke="darkgrey" d="M228.43,-166.58C254.59,-146.52 293.04,-117.05 307.58,-105.9"/>
</g>
<!-- pollution&#45;&#45;camion -->
<g id="edge7" class="edge">
<title>pollution&#45;&#45;camion</title>
<path fill="none" stroke="darkgrey" stroke-width="3.05" d="M217.31,-157.39C224.56,-143.21 232.8,-127.09 237.97,-116.99"/>
</g>
<!-- pollution&#45;&#45;économie -->
<g id="edge8" class="edge">
<title>pollution&#45;&#45;économie</title>
<path fill="none" stroke="darkgrey" stroke-width="8.62" d="M206.89,-218.77C207.14,-220.6 207.39,-222.41 207.64,-224.18"/>
</g>
<!-- pollution&#45;&#45;environnement -->
<g id="edge9" class="edge">
<title>pollution&#45;&#45;environnement</title>
<path fill="none" stroke="darkgrey" stroke-width="6.43" d="M228.74,-206.13C241.76,-215.81 256.98,-227.13 267.96,-235.3"/>
</g>
<!-- pollution&#45;&#45;emploi -->
<g id="edge10" class="edge">
<title>pollution&#45;&#45;emploi</title>
<path fill="none" stroke="darkgrey" stroke-width="10" d="M218.42,-214.96C228.65,-233.11 241.53,-255.97 249.97,-270.93"/>
</g>
<!-- pollution&#45;&#45;usine -->
<g id="edge11" class="edge">
<title>pollution&#45;&#45;usine</title>
<path fill="none" stroke="darkgrey" stroke-width="1.24" d="M196.69,-154.47C193.54,-136.76 189.89,-116.25 188,-105.63"/>
</g>
<!-- pollution&#45;&#45;exploitation -->
<g id="edge12" class="edge">
<title>pollution&#45;&#45;exploitation</title>
<path fill="none" stroke="darkgrey" stroke-width="1.06" d="M213.54,-155.69C223.97,-126.83 238.79,-85.83 244.57,-69.82"/>
</g>
<!-- pollution&#45;&#45;conflit -->
<g id="edge13" class="edge">
<title>pollution&#45;&#45;conflit</title>
<path fill="none" stroke="darkgrey" stroke-width="1.58" d="M199.02,-218.99C195.66,-251.26 190.74,-298.46 188.88,-316.3"/>
</g>
<!-- pollution&#45;&#45;développement -->
<g id="edge14" class="edge">
<title>pollution&#45;&#45;développement</title>
<path fill="none" stroke="darkgrey" stroke-width="2.17" d="M171.4,-196.92C142.87,-206.49 104.27,-219.43 99.56,-221.01"/>
</g>
<!-- pollution&#45;&#45;déforestation -->
<g id="edge15" class="edge">
<title>pollution&#45;&#45;déforestation</title>
<path fill="none" stroke="darkgrey" stroke-width="1.84" d="M169.74,-186.82C133.26,-187.15 77.33,-187.64 62.32,-187.78"/>
</g>
<!-- travail&#45;&#45;richesse -->
<g id="edge16" class="edge">
<title>travail&#45;&#45;richesse</title>
<path fill="none" stroke="darkgrey" stroke-width="1.7" d="M249.46,-222.39C248.17,-229.73 246.63,-238.5 245.44,-245.27"/>
</g>
<!-- travail&#45;&#45;nickel -->
<g id="edge17" class="edge">
<title>travail&#45;&#45;nickel</title>
<path fill="none" stroke="darkgrey" stroke-width="3.33" d="M260.8,-196.31C263.21,-193.14 265.93,-189.55 268.73,-185.86"/>
</g>
<!-- travail&#45;&#45;économie -->
<g id="edge18" class="edge">
<title>travail&#45;&#45;économie</title>
<path fill="none" stroke="darkgrey" stroke-width="2.93" d="M241.14,-217.76C236.73,-221.77 231.54,-226.48 226.71,-230.86"/>
</g>
<!-- travail&#45;&#45;environnement -->
<g id="edge19" class="edge">
<title>travail&#45;&#45;environnement</title>
<path fill="none" stroke="darkgrey" stroke-width="2.72" d="M261.1,-219.22C264.37,-223.31 268.1,-227.96 271.54,-232.25"/>
</g>
<!-- richesse&#45;&#45;nickel -->
<g id="edge20" class="edge">
<title>richesse&#45;&#45;nickel</title>
<path fill="none" stroke="darkgrey" stroke-width="2.22" d="M248.39,-245.98C254.65,-232.79 265.84,-209.25 275.14,-189.69"/>
</g>
<!-- richesse&#45;&#45;économie -->
<g id="edge21" class="edge">
<title>richesse&#45;&#45;économie</title>
<path fill="none" stroke="darkgrey" stroke-width="1.51" d="M232.74,-252.72C232.29,-252.57 231.83,-252.42 231.37,-252.27"/>
</g>
<!-- richesse&#45;&#45;emploi -->
<g id="edge22" class="edge">
<title>richesse&#45;&#45;emploi</title>
<path fill="none" stroke="darkgrey" stroke-width="1.19" d="M248.53,-266.2C249.23,-267.58 249.96,-269.04 250.7,-270.5"/>
</g>
<!-- argent&#45;&#45;nickel -->
<g id="edge23" class="edge">
<title>argent&#45;&#45;nickel</title>
<path fill="none" stroke="darkgrey" stroke-width="3.68" d="M320.62,-238.24C316.92,-228.17 309.62,-208.3 303.16,-190.72"/>
</g>
<!-- argent&#45;&#45;emploi -->
<g id="edge24" class="edge">
<title>argent&#45;&#45;emploi</title>
<path fill="none" stroke="darkgrey" stroke-width="1.89" d="M317.13,-248.71C307.44,-255.02 287.91,-267.73 274.14,-276.7"/>
</g>
<!-- nickel&#45;&#45;montagne -->
<g id="edge25" class="edge">
<title>nickel&#45;&#45;montagne</title>
<path fill="none" stroke="darkgrey" stroke-width="2.72" d="M304.46,-123.33C306.86,-117.49 309.1,-112.01 310.75,-107.99"/>
</g>
<!-- nickel&#45;&#45;camion -->
<g id="edge26" class="edge">
<title>nickel&#45;&#45;camion</title>
<path fill="none" stroke="darkgrey" stroke-width="5.36" d="M265.77,-130.79C260.37,-125.14 255.04,-119.57 250.9,-115.24"/>
</g>
<!-- nickel&#45;&#45;économie -->
<g id="edge27" class="edge">
<title>nickel&#45;&#45;économie</title>
<path fill="none" stroke="darkgrey" stroke-width="6.18" d="M266.25,-183.95C252.82,-198.81 236.61,-216.74 225.16,-229.4"/>
</g>
<!-- nickel&#45;&#45;environnement -->
<g id="edge28" class="edge">
<title>nickel&#45;&#45;environnement</title>
<path fill="none" stroke="darkgrey" stroke-width="3.44" d="M287.57,-192.77C286.49,-205.02 285.33,-218.2 284.44,-228.42"/>
</g>
<!-- nickel&#45;&#45;emploi -->
<g id="edge30" class="edge">
<title>nickel&#45;&#45;emploi</title>
<path fill="none" stroke="darkgrey" stroke-width="5.79" d="M282.1,-192C275.97,-216.92 268.01,-249.32 263.17,-269.03"/>
</g>
<!-- nickel&#45;&#45;usine -->
<g id="edge32" class="edge">
<title>nickel&#45;&#45;usine</title>
<path fill="none" stroke="darkgrey" stroke-width="4.79" d="M259.24,-139.18C235.8,-126.01 205.74,-109.12 192.94,-101.92"/>
</g>
<!-- nickel&#45;&#45;exploitation -->
<g id="edge33" class="edge">
<title>nickel&#45;&#45;exploitation</title>
<path fill="none" stroke="darkgrey" stroke-width="1.14" d="M275.44,-124.06C266.18,-104.19 255.2,-80.6 250.01,-69.47"/>
</g>
<!-- nickel&#45;&#45;terre rouge -->
<g id="edge29" class="edge">
<title>nickel&#45;&#45;terre rouge</title>
<path fill="none" stroke="darkgrey" stroke-width="1.65" d="M325.21,-145.92C356.33,-136.04 398.01,-122.8 403.09,-121.18"/>
</g>
<!-- nickel&#45;&#45;terre -->
<g id="edge31" class="edge">
<title>nickel&#45;&#45;terre</title>
<path fill="none" stroke="darkgrey" stroke-width="1.05" d="M321.51,-175.59C349.74,-192.74 389.34,-216.81 404.27,-225.88"/>
</g>
<!-- nickel&#45;&#45;sln -->
<g id="edge34" class="edge">
<title>nickel&#45;&#45;sln</title>
<path fill="none" stroke="darkgrey" stroke-width="5.97" d="M326.91,-160.43C361.79,-163.85 411.89,-168.77 430.13,-170.56"/>
</g>
<!-- nickel&#45;&#45;ressource -->
<g id="edge35" class="edge">
<title>nickel&#45;&#45;ressource</title>
<path fill="none" stroke="darkgrey" stroke-width="1.12" d="M284.63,-121.36C278.47,-85.52 269.43,-32.87 266.19,-14.03"/>
</g>
<!-- nickel&#45;&#45;minerai -->
<g id="edge36" class="edge">
<title>nickel&#45;&#45;minerai</title>
<path fill="none" stroke="darkgrey" stroke-width="4.21" d="M269.53,-127.48C248.46,-98.25 217.72,-55.62 206.51,-40.08"/>
</g>
<!-- camion&#45;&#45;usine -->
<g id="edge37" class="edge">
<title>camion&#45;&#45;usine</title>
<path fill="none" stroke="darkgrey" stroke-width="1.16" d="M231.93,-105.34C220.64,-103.61 203.5,-100.99 193.89,-99.52"/>
</g>
<!-- économie&#45;&#45;environnement -->
<g id="edge38" class="edge">
<title>économie&#45;&#45;environnement</title>
<path fill="none" stroke="darkgrey" stroke-width="8.54" d="M232.29,-245.76C242.59,-245.88 254.78,-246.03 264.61,-246.15"/>
</g>
<!-- économie&#45;&#45;emploi -->
<g id="edge39" class="edge">
<title>économie&#45;&#45;emploi</title>
<path fill="none" stroke="darkgrey" stroke-width="7.67" d="M227.21,-259.66C232.98,-264.59 239.4,-270.06 244.93,-274.79"/>
</g>
<!-- environnement&#45;&#45;emploi -->
<g id="edge40" class="edge">
<title>environnement&#45;&#45;emploi</title>
<path fill="none" stroke="darkgrey" stroke-width="3.33" d="M273.36,-262.3C271.63,-265.2 269.83,-268.22 268.1,-271.12"/>
</g>
<!-- emploi&#45;&#45;conflit -->
<g id="edge41" class="edge">
<title>emploi&#45;&#45;conflit</title>
<path fill="none" stroke="darkgrey" stroke-width="1.64" d="M242.79,-295.02C227.47,-303 205.18,-314.61 194.41,-320.22"/>
</g>
<!-- usine&#45;&#45;minerai -->
<g id="edge42" class="edge">
<title>usine&#45;&#45;minerai</title>
<path fill="none" stroke="darkgrey" stroke-width="2.39" d="M188.38,-91.54C191.34,-79.23 197.54,-53.57 200.53,-41.15"/>
</g>
<!-- exploitation&#45;&#45;ressource -->
<g id="edge43" class="edge">
<title>exploitation&#45;&#45;ressource</title>
<path fill="none" stroke="darkgrey" stroke-width="1.6" d="M249.22,-56.17C252.67,-45.42 259.3,-24.72 262.76,-13.93"/>
</g>
<!-- exploitation&#45;&#45;minerai -->
<g id="edge44" class="edge">
<title>exploitation&#45;&#45;minerai</title>
<path fill="none" stroke="darkgrey" stroke-width="1.69" d="M240.79,-59.03C232.14,-53.44 216.59,-43.4 208.12,-37.93"/>
</g>
<!-- ressource&#45;&#45;minerai -->
<g id="edge45" class="edge">
<title>ressource&#45;&#45;minerai</title>
<path fill="none" stroke="darkgrey" stroke-width="1.04" d="M258.27,-9.9C246.12,-15.15 220.67,-26.15 208.71,-31.33"/>
</g>
<!-- pollution -->
<g id="node1" class="node">
<title>pollution</title>
<ellipse fill="#fbbe23" stroke="white" stroke-width="0" cx="202.4" cy="-186.53" rx="32.5" ry="32.5"/>
<text text-anchor="middle" x="151.4" y="-221.63" font-family="Helvetica,sans-Serif" font-size="8.00" fill="#4d4d4d">pollution</text>
</g>
<!-- travail -->
<g id="node2" class="node">
<title>travail</title>
<ellipse fill="#972766" stroke="white" stroke-width="0" cx="252.01" cy="-207.88" rx="14.5" ry="14.5"/>
<text text-anchor="middle" x="250.51" y="-224.98" font-family="Helvetica,sans-Serif" font-size="8.00" fill="#4d4d4d">travail</text>
</g>
<!-- richesse -->
<g id="node3" class="node">
<title>richesse</title>
<ellipse fill="#5f136e" stroke="white" stroke-width="0" cx="243.51" cy="-256.23" rx="11" ry="11"/>
<text text-anchor="middle" x="215.01" y="-269.83" font-family="Helvetica,sans-Serif" font-size="8.00" fill="#4d4d4d">richesse</text>
</g>
<!-- destruction -->
<g id="node4" class="node">
<title>destruction</title>
<ellipse fill="#2b0b57" stroke="white" stroke-width="0" cx="72.7" cy="-119.02" rx="7" ry="7"/>
<text text-anchor="middle" x="42.2" y="-128.62" font-family="Helvetica,sans-Serif" font-size="8.00" fill="#4d4d4d">destruction</text>
</g>
<!-- argent -->
<g id="node5" class="node">
<title>argent</title>
<ellipse fill="#450a69" stroke="white" stroke-width="0" cx="323.05" cy="-244.85" rx="7" ry="7"/>
<text text-anchor="middle" x="330.05" y="-254.45" font-family="Helvetica,sans-Serif" font-size="8.00" fill="#4d4d4d">argent</text>
</g>
<!-- nickel -->
<g id="node6" class="node">
<title>nickel</title>
<ellipse fill="#fcffa4" stroke="white" stroke-width="0" cx="290.73" cy="-156.88" rx="36" ry="36"/>
<text text-anchor="middle" x="242.73" y="-123.48" font-family="Helvetica,sans-Serif" font-size="8.00" fill="#4d4d4d">nickel</text>
</g>
<!-- montagne -->
<g id="node7" class="node">
<title>montagne</title>
<ellipse fill="#340a5f" stroke="white" stroke-width="0" cx="313.44" cy="-101.41" rx="7" ry="7"/>
<text text-anchor="middle" x="284.94" y="-111.01" font-family="Helvetica,sans-Serif" font-size="8.00" fill="#4d4d4d">montagne</text>
</g>
<!-- camion -->
<g id="node8" class="node">
<title>camion</title>
<ellipse fill="#65156e" stroke="white" stroke-width="0" cx="243.06" cy="-107.04" rx="11" ry="11"/>
<text text-anchor="middle" x="216.56" y="-98.64" font-family="Helvetica,sans-Serif" font-size="8.00" fill="#4d4d4d">camion</text>
</g>
<!-- économie -->
<g id="node9" class="node">
<title>économie</title>
<ellipse fill="#d04545" stroke="white" stroke-width="0" cx="210.61" cy="-245.49" rx="21.5" ry="21.5"/>
<text text-anchor="middle" x="168.61" y="-269.59" font-family="Helvetica,sans-Serif" font-size="8.00" fill="#4d4d4d">économie</text>
</g>
<!-- environnement -->
<g id="node10" class="node">
<title>environnement</title>
<ellipse fill="#a92e5e" stroke="white" stroke-width="0" cx="282.86" cy="-246.38" rx="18" ry="18"/>
<text text-anchor="middle" x="331.86" y="-266.98" font-family="Helvetica,sans-Serif" font-size="8.00" fill="#4d4d4d">environnement</text>
</g>
<!-- emploi -->
<g id="node11" class="node">
<title>emploi</title>
<ellipse fill="#ad305d" stroke="white" stroke-width="0" cx="258.84" cy="-286.66" rx="18" ry="18"/>
<text text-anchor="middle" x="226.84" y="-307.26" font-family="Helvetica,sans-Serif" font-size="8.00" fill="#4d4d4d">emploi</text>
</g>
<!-- usine -->
<g id="node12" class="node">
<title>usine</title>
<ellipse fill="#4a0c6b" stroke="white" stroke-width="0" cx="186.72" cy="-98.42" rx="7" ry="7"/>
<text text-anchor="middle" x="168.22" y="-108.02" font-family="Helvetica,sans-Serif" font-size="8.00" fill="#4d4d4d">usine</text>
</g>
<!-- exploitation -->
<g id="node13" class="node">
<title>exploitation</title>
<ellipse fill="#4f0d6c" stroke="white" stroke-width="0" cx="247.02" cy="-63.05" rx="7" ry="7"/>
<text text-anchor="middle" x="215.52" y="-72.65" font-family="Helvetica,sans-Serif" font-size="8.00" fill="#4d4d4d">exploitation</text>
</g>
<!-- conflit -->
<g id="node14" class="node">
<title>conflit</title>
<ellipse fill="#2b0b57" stroke="white" stroke-width="0" cx="188.13" cy="-323.49" rx="7" ry="7"/>
<text text-anchor="middle" x="168.13" y="-333.09" font-family="Helvetica,sans-Serif" font-size="8.00" fill="#4d4d4d">conflit</text>
</g>
<!-- développement -->
<g id="node15" class="node">
<title>développement</title>
<ellipse fill="#010108" stroke="white" stroke-width="0" cx="99.08" cy="-221.17" rx="0.5" ry="0.5"/>
<text text-anchor="middle" x="66.08" y="-224.27" font-family="Helvetica,sans-Serif" font-size="8.00" fill="#4d4d4d">développement</text>
</g>
<!-- déforestation -->
<g id="node16" class="node">
<title>déforestation</title>
<ellipse fill="#08051d" stroke="white" stroke-width="0" cx="58.5" cy="-187.81" rx="3.5" ry="3.5"/>
<text text-anchor="middle" x="27.5" y="-193.91" font-family="Helvetica,sans-Serif" font-size="8.00" fill="#4d4d4d">déforestation</text>
</g>
<!-- terre rouge -->
<g id="node17" class="node">
<title>terre rouge</title>
<ellipse fill="#000004" stroke="white" stroke-width="0" cx="403.61" cy="-121.02" rx="0.5" ry="0.5"/>
<text text-anchor="middle" x="380.61" y="-124.12" font-family="Helvetica,sans-Serif" font-size="8.00" fill="#4d4d4d">terre rouge</text>
</g>
<!-- terre -->
<g id="node18" class="node">
<title>terre</title>
<ellipse fill="#2b0b57" stroke="white" stroke-width="0" cx="410.27" cy="-229.53" rx="7" ry="7"/>
<text text-anchor="middle" x="393.77" y="-239.13" font-family="Helvetica,sans-Serif" font-size="8.00" fill="#4d4d4d">terre</text>
</g>
<!-- sln -->
<g id="node19" class="node">
<title>sln</title>
<ellipse fill="#340a5f" stroke="white" stroke-width="0" cx="437.11" cy="-171.25" rx="7" ry="7"/>
<text text-anchor="middle" x="423.61" y="-180.85" font-family="Helvetica,sans-Serif" font-size="8.00" fill="#4d4d4d">sln</text>
</g>
<!-- ressource -->
<g id="node20" class="node">
<title>ressource</title>
<ellipse fill="#3d0965" stroke="white" stroke-width="0" cx="264.98" cy="-7" rx="7" ry="7"/>
<text text-anchor="middle" x="237.98" y="-16.6" font-family="Helvetica,sans-Serif" font-size="8.00" fill="#4d4d4d">ressource</text>
</g>
<!-- minerai -->
<g id="node21" class="node">
<title>minerai</title>
<ellipse fill="#4a0c6b" stroke="white" stroke-width="0" cx="202.23" cy="-34.13" rx="7" ry="7"/>
<text text-anchor="middle" x="179.73" y="-43.73" font-family="Helvetica,sans-Serif" font-size="8.00" fill="#4d4d4d">minerai</text>
</g>
</g>
</svg>
