<?xml version="1.0" encoding="UTF-8" standalone="no"?>
<!DOCTYPE svg PUBLIC "-//W3C//DTD SVG 1.1//EN"
 "http://www.w3.org/Graphics/SVG/1.1/DTD/svg11.dtd">
<!-- Generated by graphviz version 2.43.0 (0)
 -->
<!-- Pages: 1 -->
<svg width="1222pt" height="985pt"
 viewBox="0.00 0.00 1222.10 985.06" xmlns="http://www.w3.org/2000/svg" xmlns:xlink="http://www.w3.org/1999/xlink">
<g id="graph0" class="graph" transform="scale(1 1) rotate(0) translate(4 981.06)">
<polygon fill="white" stroke="transparent" points="-4,4 -4,-981.06 1218.1,-981.06 1218.1,4 -4,4"/>
<!-- pollution&#45;&#45;emploi -->
<g id="edge1" class="edge">
<title>pollution&#45;&#45;emploi</title>
<path fill="none" stroke="darkgrey" stroke-width="6.59" d="M633.93,-547.67C631.5,-519.38 627.25,-469.84 624.8,-441.32"/>
</g>
<!-- pollution&#45;&#45;économie du pays -->
<g id="edge2" class="edge">
<title>pollution&#45;&#45;économie du pays</title>
<path fill="none" stroke="darkgrey" stroke-width="3.82" d="M616.15,-560.09C581.04,-543.93 508.34,-510.47 478.21,-496.61"/>
</g>
<!-- pollution&#45;&#45;richesse -->
<g id="edge3" class="edge">
<title>pollution&#45;&#45;richesse</title>
<path fill="none" stroke="darkgrey" stroke-width="1.43" d="M620.1,-553.88C601.06,-535.36 569.96,-505.11 557.68,-493.18"/>
</g>
<!-- pollution&#45;&#45;impact environnemental -->
<g id="edge4" class="edge">
<title>pollution&#45;&#45;impact environnemental</title>
<path fill="none" stroke="darkgrey" stroke-width="10" d="M646.84,-550.3C668.71,-513.09 717.7,-429.76 744.52,-384.13"/>
</g>
<!-- pollution&#45;&#45;conflit -->
<g id="edge5" class="edge">
<title>pollution&#45;&#45;conflit</title>
<path fill="none" stroke="darkgrey" stroke-width="1.85" d="M621.31,-585.16C605.47,-602.72 580.69,-630.21 568.32,-643.93"/>
</g>
<!-- pollution&#45;&#45;revenu -->
<g id="edge6" class="edge">
<title>pollution&#45;&#45;revenu</title>
<path fill="none" stroke="darkgrey" stroke-width="1.61" d="M614.03,-570.48C583.79,-572.37 530.58,-575.7 511.31,-576.91"/>
</g>
<!-- pollution&#45;&#45;nickel -->
<g id="edge7" class="edge">
<title>pollution&#45;&#45;nickel</title>
<path fill="none" stroke="darkgrey" stroke-width="3.26" d="M635.57,-547.54C635.17,-505.3 634.29,-412.19 633.89,-369.88"/>
</g>
<!-- pollution&#45;&#45;exploitation -->
<g id="edge8" class="edge">
<title>pollution&#45;&#45;exploitation</title>
<path fill="none" stroke="darkgrey" stroke-width="1.63" d="M636.05,-547.18C636.78,-490.79 638.69,-342.31 639.22,-300.57"/>
</g>
<!-- pollution&#45;&#45;montagne -->
<g id="edge9" class="edge">
<title>pollution&#45;&#45;montagne</title>
<path fill="none" stroke="darkgrey" stroke-width="1.98" d="M656.91,-563.63C697.6,-553.06 785.02,-530.35 810.08,-523.84"/>
</g>
<!-- pollution&#45;&#45;biodiversité -->
<g id="edge10" class="edge">
<title>pollution&#45;&#45;biodiversité</title>
<path fill="none" stroke="darkgrey" stroke-width="1.36" d="M631.91,-590.38C618,-667.06 570.87,-926.7 564.67,-960.84"/>
</g>
<!-- pollution&#45;&#45;développement -->
<g id="edge11" class="edge">
<title>pollution&#45;&#45;développement</title>
<path fill="none" stroke="darkgrey" stroke-width="1.97" d="M653.72,-581.03C689.86,-605.01 769.42,-657.8 786.39,-669.07"/>
</g>
<!-- pollution&#45;&#45;engin -->
<g id="edge12" class="edge">
<title>pollution&#45;&#45;engin</title>
<path fill="none" stroke="darkgrey" stroke-width="2.12" d="M646.73,-550.5C663.73,-521.6 695.85,-466.99 708.87,-444.86"/>
</g>
<!-- pollution&#45;&#45;minerai -->
<g id="edge13" class="edge">
<title>pollution&#45;&#45;minerai</title>
<path fill="none" stroke="darkgrey" stroke-width="1.42" d="M650.64,-553.46C685.57,-516.68 772.32,-425.3 804.88,-391.01"/>
</g>
<!-- pollution&#45;&#45;terre -->
<g id="edge14" class="edge">
<title>pollution&#45;&#45;terre</title>
<path fill="none" stroke="darkgrey" stroke-width="1.68" d="M650.5,-553.44C661.26,-541.98 675.44,-526.89 684.08,-517.69"/>
</g>
<!-- pollution&#45;&#45;usine -->
<g id="edge15" class="edge">
<title>pollution&#45;&#45;usine</title>
<path fill="none" stroke="darkgrey" stroke-width="1.67" d="M622.74,-551.74C588.43,-505.99 496.29,-383.12 467.32,-344.49"/>
</g>
<!-- emploi&#45;&#45;économie du pays -->
<g id="edge17" class="edge">
<title>emploi&#45;&#45;économie du pays</title>
<path fill="none" stroke="darkgrey" stroke-width="5.59" d="M603.2,-428.27C570.56,-442.91 506.12,-471.8 478.16,-484.33"/>
</g>
<!-- emploi&#45;&#45;richesse -->
<g id="edge18" class="edge">
<title>emploi&#45;&#45;richesse</title>
<path fill="none" stroke="darkgrey" stroke-width="2.43" d="M607.28,-434.67C591.55,-450 568.18,-472.78 557.78,-482.92"/>
</g>
<!-- emploi&#45;&#45;impact environnemental -->
<g id="edge19" class="edge">
<title>emploi&#45;&#45;impact environnemental</title>
<path fill="none" stroke="darkgrey" stroke-width="6.73" d="M642.39,-410.16C665.08,-399.36 702.95,-381.34 730.2,-368.37"/>
</g>
<!-- emploi&#45;&#45;conflit -->
<g id="edge20" class="edge">
<title>emploi&#45;&#45;conflit</title>
<path fill="none" stroke="darkgrey" stroke-width="2.88" d="M617.29,-440.51C604.44,-488.65 573.3,-605.32 563.66,-641.45"/>
</g>
<!-- emploi&#45;&#45;revenu -->
<g id="edge21" class="edge">
<title>emploi&#45;&#45;revenu</title>
<path fill="none" stroke="darkgrey" stroke-width="2.91" d="M609.98,-436.63C583.63,-471.65 524.88,-549.74 508.44,-571.58"/>
</g>
<!-- emploi&#45;&#45;nickel -->
<g id="edge22" class="edge">
<title>emploi&#45;&#45;nickel</title>
<path fill="none" stroke="darkgrey" stroke-width="4.53" d="M626.15,-398.06C627.51,-389.05 629.09,-378.58 630.46,-369.57"/>
</g>
<!-- emploi&#45;&#45;exploitation -->
<g id="edge23" class="edge">
<title>emploi&#45;&#45;exploitation</title>
<path fill="none" stroke="darkgrey" stroke-width="1.95" d="M625.63,-397.98C629.17,-370.01 635.23,-322.14 637.96,-300.59"/>
</g>
<!-- emploi&#45;&#45;montagne -->
<g id="edge24" class="edge">
<title>emploi&#45;&#45;montagne</title>
<path fill="none" stroke="darkgrey" stroke-width="1.17" d="M642.23,-429.65C684.59,-452.06 784,-504.65 810.39,-518.61"/>
</g>
<!-- emploi&#45;&#45;développement -->
<g id="edge26" class="edge">
<title>emploi&#45;&#45;développement</title>
<path fill="none" stroke="darkgrey" stroke-width="1.12" d="M634.91,-437.54C670.14,-490.76 771.89,-644.44 787.57,-668.12"/>
</g>
<!-- emploi&#45;&#45;engin -->
<g id="edge27" class="edge">
<title>emploi&#45;&#45;engin</title>
<path fill="none" stroke="darkgrey" stroke-width="1.48" d="M644.17,-423.08C662.79,-426.28 689.08,-430.8 703.69,-433.31"/>
</g>
<!-- emploi&#45;&#45;minerai -->
<g id="edge28" class="edge">
<title>emploi&#45;&#45;minerai</title>
<path fill="none" stroke="darkgrey" stroke-width="1.49" d="M644.11,-414.89C682.72,-406.61 763.84,-389.23 799.75,-381.53"/>
</g>
<!-- emploi&#45;&#45;terre -->
<g id="edge29" class="edge">
<title>emploi&#45;&#45;terre</title>
<path fill="none" stroke="darkgrey" stroke-width="1.68" d="M636.2,-436.79C650.75,-455.8 673.51,-485.54 684.88,-500.39"/>
</g>
<!-- emploi&#45;&#45;usine -->
<g id="edge30" class="edge">
<title>emploi&#45;&#45;usine</title>
<path fill="none" stroke="darkgrey" stroke-width="1.51" d="M603.73,-409.31C569.84,-391.44 500.24,-354.73 471.42,-339.52"/>
</g>
<!-- emploi&#45;&#45;main d’oeuvre -->
<g id="edge25" class="edge">
<title>emploi&#45;&#45;main d’oeuvre</title>
<path fill="none" stroke="darkgrey" stroke-width="1.08" d="M623.7,-397.84C625.71,-342.65 630.93,-199.03 631.81,-174.75"/>
</g>
<!-- emploi&#45;&#45;opérateur minier -->
<g id="edge31" class="edge">
<title>emploi&#45;&#45;opérateur minier</title>
<path fill="none" stroke="darkgrey" stroke-width="1.46" d="M609.05,-402.65C581.62,-369.47 521.31,-296.51 500.52,-271.36"/>
</g>
<!-- emploi&#45;&#45;vision positive de la ressource -->
<g id="edge32" class="edge">
<title>emploi&#45;&#45;vision positive de la ressource</title>
<path fill="none" stroke="darkgrey" stroke-width="1.58" d="M636.18,-402.29C670.2,-358.32 759.38,-243.08 780.48,-215.81"/>
</g>
<!-- emploi&#45;&#45;commerce -->
<g id="edge33" class="edge">
<title>emploi&#45;&#45;commerce</title>
<path fill="none" stroke="darkgrey" stroke-width="1.22" d="M615.61,-399.2C596.87,-347.31 547.74,-211.3 536.11,-179.12"/>
</g>
<!-- économie du pays&#45;&#45;richesse -->
<g id="edge34" class="edge">
<title>économie du pays&#45;&#45;richesse</title>
<path fill="none" stroke="darkgrey" stroke-width="1.34" d="M479.18,-490C498.27,-489.51 531.08,-488.66 545.42,-488.28"/>
</g>
<!-- économie du pays&#45;&#45;impact environnemental -->
<g id="edge35" class="edge">
<title>économie du pays&#45;&#45;impact environnemental</title>
<path fill="none" stroke="darkgrey" stroke-width="6.45" d="M477.88,-484.29C521.96,-463.95 664.97,-397.98 730.1,-367.94"/>
</g>
<!-- économie du pays&#45;&#45;conflit -->
<g id="edge36" class="edge">
<title>économie du pays&#45;&#45;conflit</title>
<path fill="none" stroke="darkgrey" stroke-width="1.87" d="M472.22,-503.08C490.8,-534.4 538.48,-614.75 555.01,-642.62"/>
</g>
<!-- économie du pays&#45;&#45;revenu -->
<g id="edge37" class="edge">
<title>économie du pays&#45;&#45;revenu</title>
<path fill="none" stroke="darkgrey" stroke-width="1.14" d="M470.67,-503.59C479.2,-522.41 494.53,-556.24 501.04,-570.61"/>
</g>
<!-- économie du pays&#45;&#45;nickel -->
<g id="edge38" class="edge">
<title>économie du pays&#45;&#45;nickel</title>
<path fill="none" stroke="darkgrey" stroke-width="2.17" d="M476.03,-480.83C505.19,-456.3 582.83,-390.99 617.07,-362.19"/>
</g>
<!-- économie du pays&#45;&#45;usine -->
<g id="edge39" class="edge">
<title>économie du pays&#45;&#45;usine</title>
<path fill="none" stroke="darkgrey" stroke-width="1.37" d="M464.11,-475.83C462.92,-445.79 460.22,-377.22 459.04,-347.21"/>
</g>
<!-- richesse&#45;&#45;impact environnemental -->
<g id="edge40" class="edge">
<title>richesse&#45;&#45;impact environnemental</title>
<path fill="none" stroke="darkgrey" stroke-width="2.4" d="M558.53,-484.2C583.81,-467.95 681.72,-405.01 732.3,-372.49"/>
</g>
<!-- richesse&#45;&#45;conflit -->
<g id="edge41" class="edge">
<title>richesse&#45;&#45;conflit</title>
<path fill="none" stroke="darkgrey" stroke-width="1.09" d="M552.82,-495.16C554.12,-520.82 558.59,-609.32 560.19,-640.96"/>
</g>
<!-- richesse&#45;&#45;nickel -->
<g id="edge42" class="edge">
<title>richesse&#45;&#45;nickel</title>
<path fill="none" stroke="darkgrey" stroke-width="1.54" d="M556.16,-481.73C567.86,-461.58 604.36,-398.71 622.8,-366.96"/>
</g>
<!-- richesse&#45;&#45;exploitation -->
<g id="edge43" class="edge">
<title>richesse&#45;&#45;exploitation</title>
<path fill="none" stroke="darkgrey" stroke-width="1.14" d="M555.35,-481.49C568.08,-452.42 619.14,-335.73 634.78,-299.98"/>
</g>
<!-- richesse&#45;&#45;terre -->
<g id="edge44" class="edge">
<title>richesse&#45;&#45;terre</title>
<path fill="none" stroke="darkgrey" stroke-width="1.04" d="M559.56,-489.19C582.3,-492.67 653.43,-503.57 680.87,-507.78"/>
</g>
<!-- impact environnemental&#45;&#45;conflit -->
<g id="edge45" class="edge">
<title>impact environnemental&#45;&#45;conflit</title>
<path fill="none" stroke="darkgrey" stroke-width="2.15" d="M742.64,-382.88C698.08,-448.89 593.58,-603.68 567,-643.06"/>
</g>
<!-- impact environnemental&#45;&#45;revenu -->
<g id="edge46" class="edge">
<title>impact environnemental&#45;&#45;revenu</title>
<path fill="none" stroke="darkgrey" stroke-width="1.85" d="M735.74,-376.39C676.55,-427.75 539.05,-547.03 509.68,-572.51"/>
</g>
<!-- impact environnemental&#45;&#45;nickel -->
<g id="edge47" class="edge">
<title>impact environnemental&#45;&#45;nickel</title>
<path fill="none" stroke="darkgrey" stroke-width="4.3" d="M726.94,-351.51C703.93,-350.7 674.86,-349.67 655.34,-348.98"/>
</g>
<!-- impact environnemental&#45;&#45;exploitation -->
<g id="edge49" class="edge">
<title>impact environnemental&#45;&#45;exploitation</title>
<path fill="none" stroke="darkgrey" stroke-width="4" d="M730.8,-336.32C703.77,-322.48 666.81,-303.56 649.32,-294.61"/>
</g>
<!-- impact environnemental&#45;&#45;montagne -->
<g id="edge50" class="edge">
<title>impact environnemental&#45;&#45;montagne</title>
<path fill="none" stroke="darkgrey" stroke-width="2.4" d="M774,-387.45C787.08,-428.46 807.93,-493.87 814.71,-515.14"/>
</g>
<!-- impact environnemental&#45;&#45;développement -->
<g id="edge51" class="edge">
<title>impact environnemental&#45;&#45;développement</title>
<path fill="none" stroke="darkgrey" stroke-width="2.1" d="M765.96,-388.69C772.38,-465.46 787.06,-640.78 789.32,-667.71"/>
</g>
<!-- impact environnemental&#45;&#45;engin -->
<g id="edge52" class="edge">
<title>impact environnemental&#45;&#45;engin</title>
<path fill="none" stroke="darkgrey" stroke-width="2.79" d="M744.66,-383.93C735.99,-398.7 726.24,-415.3 720.25,-425.5"/>
</g>
<!-- impact environnemental&#45;&#45;minerai -->
<g id="edge53" class="edge">
<title>impact environnemental&#45;&#45;minerai</title>
<path fill="none" stroke="darkgrey" stroke-width="1.98" d="M795.93,-367.87C797.64,-368.65 799.31,-369.42 800.93,-370.15"/>
</g>
<!-- impact environnemental&#45;&#45;terre -->
<g id="edge54" class="edge">
<title>impact environnemental&#45;&#45;terre</title>
<path fill="none" stroke="darkgrey" stroke-width="1.79" d="M748.04,-385.63C731.74,-421.52 706.59,-476.91 696.37,-499.43"/>
</g>
<!-- impact environnemental&#45;&#45;usine -->
<g id="edge55" class="edge">
<title>impact environnemental&#45;&#45;usine</title>
<path fill="none" stroke="darkgrey" stroke-width="1.37" d="M726.83,-350.4C659.72,-345.97 518.51,-336.66 472.96,-333.65"/>
</g>
<!-- impact environnemental&#45;&#45;opérateur minier -->
<g id="edge56" class="edge">
<title>impact environnemental&#45;&#45;opérateur minier</title>
<path fill="none" stroke="darkgrey" stroke-width="1.01" d="M728.8,-341.37C667.3,-320.8 540.85,-278.53 503.75,-266.13"/>
</g>
<!-- impact environnemental&#45;&#45;vision positive de la ressource -->
<g id="edge57" class="edge">
<title>impact environnemental&#45;&#45;vision positive de la ressource</title>
<path fill="none" stroke="darkgrey" stroke-width="1.96" d="M768.46,-317.11C773.69,-283.24 781.15,-234.91 783.91,-217"/>
</g>
<!-- impact environnemental&#45;&#45;commerce -->
<g id="edge60" class="edge">
<title>impact environnemental&#45;&#45;commerce</title>
<path fill="none" stroke="darkgrey" stroke-width="1.27" d="M734.37,-330.28C680.34,-287.74 566.21,-197.88 539.36,-176.74"/>
</g>
<!-- impact environnemental&#45;&#45;milieu -->
<g id="edge48" class="edge">
<title>impact environnemental&#45;&#45;milieu</title>
<path fill="none" stroke="darkgrey" stroke-width="1.76" d="M791.24,-330.02C863.77,-271.65 1052.51,-119.77 1078.7,-98.7"/>
</g>
<!-- impact environnemental&#45;&#45;danger -->
<g id="edge58" class="edge">
<title>impact environnemental&#45;&#45;danger</title>
<path fill="none" stroke="darkgrey" stroke-width="1.46" d="M797.16,-340.87C888.54,-309.03 1132.49,-224.03 1147.65,-218.75"/>
</g>
<!-- impact environnemental&#45;&#45;épuisement de la ressource -->
<g id="edge59" class="edge">
<title>impact environnemental&#45;&#45;épuisement de la ressource</title>
<path fill="none" stroke="darkgrey" stroke-width="1.14" d="M799.17,-353.45C892.02,-355.15 1132.32,-359.56 1147.24,-359.84"/>
</g>
<!-- conflit&#45;&#45;revenu -->
<g id="edge61" class="edge">
<title>conflit&#45;&#45;revenu</title>
<path fill="none" stroke="darkgrey" stroke-width="1.25" d="M554.04,-643.41C542.31,-627.9 518.43,-596.31 508.54,-583.23"/>
</g>
<!-- revenu&#45;&#45;nickel -->
<g id="edge62" class="edge">
<title>revenu&#45;&#45;nickel</title>
<path fill="none" stroke="darkgrey" stroke-width="2.15" d="M507.56,-571.23C524.15,-541.91 595.71,-415.37 623.03,-367.06"/>
</g>
<!-- nickel&#45;&#45;exploitation -->
<g id="edge63" class="edge">
<title>nickel&#45;&#45;exploitation</title>
<path fill="none" stroke="darkgrey" stroke-width="2.28" d="M635.77,-326.69C636.63,-317.79 637.59,-307.85 638.3,-300.49"/>
</g>
<!-- nickel&#45;&#45;montagne -->
<g id="edge64" class="edge">
<title>nickel&#45;&#45;montagne</title>
<path fill="none" stroke="darkgrey" stroke-width="1.65" d="M649.31,-363.04C688.08,-399.82 787.33,-493.99 811.54,-516.96"/>
</g>
<!-- nickel&#45;&#45;engin -->
<g id="edge66" class="edge">
<title>nickel&#45;&#45;engin</title>
<path fill="none" stroke="darkgrey" stroke-width="2.94" d="M648.52,-364.16C665.66,-382.6 693.24,-412.26 706.69,-426.71"/>
</g>
<!-- nickel&#45;&#45;minerai -->
<g id="edge67" class="edge">
<title>nickel&#45;&#45;minerai</title>
<path fill="none" stroke="darkgrey" stroke-width="4" d="M655.13,-351.66C691.68,-357.53 765.4,-369.37 799.47,-374.84"/>
</g>
<!-- nickel&#45;&#45;terre -->
<g id="edge68" class="edge">
<title>nickel&#45;&#45;terre</title>
<path fill="none" stroke="darkgrey" stroke-width="2.64" d="M641.05,-368.63C653.57,-403.38 678.59,-472.78 688.06,-499.05"/>
</g>
<!-- nickel&#45;&#45;usine -->
<g id="edge69" class="edge">
<title>nickel&#45;&#45;usine</title>
<path fill="none" stroke="darkgrey" stroke-width="4.01" d="M612.2,-346.31C576.01,-343.11 503.84,-336.71 473,-333.98"/>
</g>
<!-- nickel&#45;&#45;main d’oeuvre -->
<g id="edge65" class="edge">
<title>nickel&#45;&#45;main d’oeuvre</title>
<path fill="none" stroke="darkgrey" stroke-width="1.31" d="M633.47,-326.51C633.06,-284.42 632.17,-194.14 631.98,-174.9"/>
</g>
<!-- nickel&#45;&#45;opérateur minier -->
<g id="edge70" class="edge">
<title>nickel&#45;&#45;opérateur minier</title>
<path fill="none" stroke="darkgrey" stroke-width="3.09" d="M615.04,-336.85C584.76,-318.39 525.96,-282.54 502.9,-268.48"/>
</g>
<!-- nickel&#45;&#45;vision positive de la ressource -->
<g id="edge71" class="edge">
<title>nickel&#45;&#45;vision positive de la ressource</title>
<path fill="none" stroke="darkgrey" stroke-width="1.55" d="M649.59,-333.68C682.98,-303.18 758.98,-233.74 779.7,-214.81"/>
</g>
<!-- nickel&#45;&#45;commerce -->
<g id="edge72" class="edge">
<title>nickel&#45;&#45;commerce</title>
<path fill="none" stroke="darkgrey" stroke-width="1.29" d="M622.98,-329.38C600.79,-290.36 550.75,-202.34 537.11,-178.35"/>
</g>
<!-- nickel&#45;&#45;ressource non&#45;renouvelable -->
<g id="edge73" class="edge">
<title>nickel&#45;&#45;ressource non&#45;renouvelable</title>
<path fill="none" stroke="darkgrey" stroke-width="2.08" d="M644.67,-329.31C678.61,-270.89 780.44,-95.64 795.37,-69.94"/>
</g>
<!-- exploitation&#45;&#45;engin -->
<g id="edge75" class="edge">
<title>exploitation&#45;&#45;engin</title>
<path fill="none" stroke="darkgrey" stroke-width="1.64" d="M644.53,-299.52C658.27,-326.13 695.58,-398.4 709.36,-425.09"/>
</g>
<!-- exploitation&#45;&#45;minerai -->
<g id="edge76" class="edge">
<title>exploitation&#45;&#45;minerai</title>
<path fill="none" stroke="darkgrey" stroke-width="3.12" d="M649.45,-294.5C678.89,-309.08 764.89,-351.68 801.11,-369.62"/>
</g>
<!-- exploitation&#45;&#45;usine -->
<g id="edge77" class="edge">
<title>exploitation&#45;&#45;usine</title>
<path fill="none" stroke="darkgrey" stroke-width="1.76" d="M628.59,-292.08C597.48,-299.51 507.52,-320.99 472.58,-329.33"/>
</g>
<!-- exploitation&#45;&#45;main d’oeuvre -->
<g id="edge74" class="edge">
<title>exploitation&#45;&#45;main d’oeuvre</title>
<path fill="none" stroke="darkgrey" stroke-width="1.04" d="M638.65,-278.17C637.04,-252.5 633.18,-190.94 632.18,-175.04"/>
</g>
<!-- exploitation&#45;&#45;vision positive de la ressource -->
<g id="edge78" class="edge">
<title>exploitation&#45;&#45;vision positive de la ressource</title>
<path fill="none" stroke="darkgrey" stroke-width="1.59" d="M649.37,-284.04C677.39,-268.74 756.04,-225.78 778.77,-213.37"/>
</g>
<!-- exploitation&#45;&#45;commerce -->
<g id="edge79" class="edge">
<title>exploitation&#45;&#45;commerce</title>
<path fill="none" stroke="darkgrey" stroke-width="1.54" d="M631.76,-281.07C611.3,-258.38 555.5,-196.49 538.56,-177.7"/>
</g>
<!-- montagne&#45;&#45;engin -->
<g id="edge80" class="edge">
<title>montagne&#45;&#45;engin</title>
<path fill="none" stroke="darkgrey" stroke-width="1.44" d="M811.42,-517.4C794.56,-503.08 743.53,-459.77 723.13,-442.45"/>
</g>
<!-- montagne&#45;&#45;minerai -->
<g id="edge81" class="edge">
<title>montagne&#45;&#45;minerai</title>
<path fill="none" stroke="darkgrey" stroke-width="1.75" d="M816.95,-514.71C817.04,-492.82 817.29,-427.66 817.42,-395.74"/>
</g>
<!-- montagne&#45;&#45;terre -->
<g id="edge82" class="edge">
<title>montagne&#45;&#45;terre</title>
<path fill="none" stroke="darkgrey" stroke-width="1.43" d="M809.84,-521.35C789.06,-519.26 728.15,-513.12 702.94,-510.58"/>
</g>
<!-- engin&#45;&#45;minerai -->
<g id="edge85" class="edge">
<title>engin&#45;&#45;minerai</title>
<path fill="none" stroke="darkgrey" stroke-width="2.35" d="M724.43,-429.67C742.24,-419.73 779.91,-398.7 801.46,-386.68"/>
</g>
<!-- engin&#45;&#45;terre -->
<g id="edge86" class="edge">
<title>engin&#45;&#45;terre</title>
<path fill="none" stroke="darkgrey" stroke-width="2.01" d="M711.3,-445.82C706.98,-459.94 699.39,-484.72 695.07,-498.83"/>
</g>
<!-- engin&#45;&#45;usine -->
<g id="edge87" class="edge">
<title>engin&#45;&#45;usine</title>
<path fill="none" stroke="darkgrey" stroke-width="1.94" d="M704.21,-431.03C663.87,-414.89 517.31,-356.24 471.95,-338.09"/>
</g>
<!-- minerai&#45;&#45;terre -->
<g id="edge88" class="edge">
<title>minerai&#45;&#45;terre</title>
<path fill="none" stroke="darkgrey" stroke-width="1.59" d="M804.98,-390.84C779.15,-417.91 720.59,-479.3 699.53,-501.37"/>
</g>
<!-- minerai&#45;&#45;usine -->
<g id="edge90" class="edge">
<title>minerai&#45;&#45;usine</title>
<path fill="none" stroke="darkgrey" stroke-width="2.65" d="M799.19,-375.43C736.32,-367.55 529.88,-341.65 473.06,-334.53"/>
</g>
<!-- minerai&#45;&#45;opérateur minier -->
<g id="edge91" class="edge">
<title>minerai&#45;&#45;opérateur minier</title>
<path fill="none" stroke="darkgrey" stroke-width="1.57" d="M800.52,-371.7C742.15,-350.98 550.72,-283.02 503.77,-266.35"/>
</g>
<!-- minerai&#45;&#45;vision positive de la ressource -->
<g id="edge93" class="edge">
<title>minerai&#45;&#45;vision positive de la ressource</title>
<path fill="none" stroke="darkgrey" stroke-width="1.43" d="M814.01,-359.78C806.94,-323.26 791.15,-241.72 786.38,-217.12"/>
</g>
<!-- minerai&#45;&#45;ressource non&#45;renouvelable -->
<g id="edge94" class="edge">
<title>minerai&#45;&#45;ressource non&#45;renouvelable</title>
<path fill="none" stroke="darkgrey" stroke-width="1.7" d="M816.31,-359.67C812.3,-298.23 799.34,-99.53 797.44,-70.37"/>
</g>
<!-- minerai&#45;&#45;description minière -->
<g id="edge89" class="edge">
<title>minerai&#45;&#45;description minière</title>
<path fill="none" stroke="darkgrey" stroke-width="1.09" d="M831.38,-389.91C887.03,-438.74 1092.27,-618.8 1119.28,-642.5"/>
</g>
<!-- minerai&#45;&#45;nouvelle&#45;calédonie -->
<g id="edge92" class="edge">
<title>minerai&#45;&#45;nouvelle&#45;calédonie</title>
<path fill="none" stroke="darkgrey" stroke-width="1.24" d="M834.77,-382.94C909.22,-405.38 1199.54,-492.88 1213.11,-496.97"/>
</g>
<!-- terre&#45;&#45;usine -->
<g id="edge95" class="edge">
<title>terre&#45;&#45;usine</title>
<path fill="none" stroke="darkgrey" stroke-width="1.43" d="M682.95,-502.74C646.9,-475.44 511.28,-372.7 470.28,-341.64"/>
</g>
<!-- usine&#45;&#45;opérateur minier -->
<g id="edge96" class="edge">
<title>usine&#45;&#45;opérateur minier</title>
<path fill="none" stroke="darkgrey" stroke-width="3.39" d="M465.02,-319.52C471.8,-305.88 482.24,-284.89 488.36,-272.58"/>
</g>
<!-- usine&#45;&#45;commerce -->
<g id="edge99" class="edge">
<title>usine&#45;&#45;commerce</title>
<path fill="none" stroke="darkgrey" stroke-width="1.13" d="M464.62,-319.56C479.9,-286.93 519.19,-203.03 530.52,-178.84"/>
</g>
<!-- usine&#45;&#45;localité -->
<g id="edge97" class="edge">
<title>usine&#45;&#45;localité</title>
<path fill="none" stroke="darkgrey" stroke-width="1.84" d="M444.06,-329.22C394.66,-317.3 233.72,-278.46 207.65,-272.17"/>
</g>
<!-- usine&#45;&#45;production énergétique -->
<g id="edge98" class="edge">
<title>usine&#45;&#45;production énergétique</title>
<path fill="none" stroke="darkgrey" d="M446.31,-324.16C388.04,-283.27 139.77,-109.04 128.16,-100.89"/>
</g>
<!-- usine&#45;&#45;métallurgie -->
<g id="edge100" class="edge">
<title>usine&#45;&#45;métallurgie</title>
<path fill="none" stroke="darkgrey" stroke-width="1.09" d="M443.84,-332.17C372.35,-329.6 62.51,-318.47 48.03,-317.95"/>
</g>
<!-- changement climatique&#45;&#45;impact environnemental -->
<g id="edge16" class="edge">
<title>changement climatique&#45;&#45;impact environnemental</title>
<path fill="none" stroke="darkgrey" stroke-width="1.1" d="M991.86,-1.07C983.5,-13.91 836.57,-239.67 782.61,-322.58"/>
</g>
<!-- main d’oeuvre&#45;&#45;minerai -->
<g id="edge83" class="edge">
<title>main d’oeuvre&#45;&#45;minerai</title>
<path fill="none" stroke="darkgrey" stroke-width="1.15" d="M634.29,-173.85C652.16,-193.74 767.12,-321.67 805.23,-364.09"/>
</g>
<!-- main d’oeuvre&#45;&#45;usine -->
<g id="edge84" class="edge">
<title>main d’oeuvre&#45;&#45;usine</title>
<path fill="none" stroke="darkgrey" stroke-width="1.47" d="M629.22,-173.78C610.77,-190.95 503.85,-290.46 469.26,-322.65"/>
</g>
<!-- opérateur minier&#45;&#45;localité -->
<g id="edge101" class="edge">
<title>opérateur minier&#45;&#45;localité</title>
<path fill="none" stroke="darkgrey" stroke-width="1.12" d="M481.97,-262.97C432.46,-264.46 236.44,-270.33 207.61,-271.2"/>
</g>
<!-- pollution -->
<g id="node1" class="node">
<title>pollution</title>
<ellipse fill="#d24644" stroke="white" stroke-width="0" cx="635.77" cy="-569.12" rx="21.5" ry="21.5"/>
<text text-anchor="middle" x="595.77" y="-593.22" font-family="Helvetica,sans-Serif" font-size="8.00" fill="#4d4d4d">pollution</text>
</g>
<!-- emploi -->
<g id="node2" class="node">
<title>emploi</title>
<ellipse fill="#e8602d" stroke="white" stroke-width="0" cx="622.92" cy="-419.43" rx="21.5" ry="21.5"/>
<text text-anchor="middle" x="587.42" y="-443.53" font-family="Helvetica,sans-Serif" font-size="8.00" fill="#4d4d4d">emploi</text>
</g>
<!-- économie du pays -->
<g id="node3" class="node">
<title>économie du pays</title>
<ellipse fill="#85216b" stroke="white" stroke-width="0" cx="464.68" cy="-490.38" rx="14.5" ry="14.5"/>
<text text-anchor="middle" x="412.18" y="-507.48" font-family="Helvetica,sans-Serif" font-size="8.00" fill="#4d4d4d">économie du pays</text>
</g>
<!-- richesse -->
<g id="node4" class="node">
<title>richesse</title>
<ellipse fill="#380962" stroke="white" stroke-width="0" cx="552.46" cy="-488.1" rx="7" ry="7"/>
<text text-anchor="middle" x="527.96" y="-497.7" font-family="Helvetica,sans-Serif" font-size="8.00" fill="#4d4d4d">richesse</text>
</g>
<!-- impact environnemental -->
<g id="node5" class="node">
<title>impact environnemental</title>
<ellipse fill="#fcffa4" stroke="white" stroke-width="0" cx="762.95" cy="-352.78" rx="36" ry="36"/>
<text text-anchor="middle" x="676.95" y="-391.38" font-family="Helvetica,sans-Serif" font-size="8.00" fill="#4d4d4d">impact environnemental</text>
</g>
<!-- conflit -->
<g id="node6" class="node">
<title>conflit</title>
<ellipse fill="#540f6d" stroke="white" stroke-width="0" cx="560.76" cy="-652.31" rx="11" ry="11"/>
<text text-anchor="middle" x="536.76" y="-665.91" font-family="Helvetica,sans-Serif" font-size="8.00" fill="#4d4d4d">conflit</text>
</g>
<!-- revenu -->
<g id="node7" class="node">
<title>revenu</title>
<ellipse fill="#400a67" stroke="white" stroke-width="0" cx="504.1" cy="-577.36" rx="7" ry="7"/>
<text text-anchor="middle" x="483.1" y="-586.96" font-family="Helvetica,sans-Serif" font-size="8.00" fill="#4d4d4d">revenu</text>
</g>
<!-- nickel -->
<g id="node8" class="node">
<title>nickel</title>
<ellipse fill="#de5238" stroke="white" stroke-width="0" cx="633.68" cy="-348.21" rx="21.5" ry="21.5"/>
<text text-anchor="middle" x="600.18" y="-372.31" font-family="Helvetica,sans-Serif" font-size="8.00" fill="#4d4d4d">nickel</text>
</g>
<!-- exploitation -->
<g id="node9" class="node">
<title>exploitation</title>
<ellipse fill="#781c6d" stroke="white" stroke-width="0" cx="639.36" cy="-289.51" rx="11" ry="11"/>
<text text-anchor="middle" x="603.86" y="-303.11" font-family="Helvetica,sans-Serif" font-size="8.00" fill="#4d4d4d">exploitation</text>
</g>
<!-- montagne -->
<g id="node10" class="node">
<title>montagne</title>
<ellipse fill="#310a5c" stroke="white" stroke-width="0" cx="816.92" cy="-522.07" rx="7" ry="7"/>
<text text-anchor="middle" x="788.42" y="-531.67" font-family="Helvetica,sans-Serif" font-size="8.00" fill="#4d4d4d">montagne</text>
</g>
<!-- biodiversité -->
<g id="node11" class="node">
<title>biodiversité</title>
<ellipse fill="#0a0722" stroke="white" stroke-width="0" cx="564" cy="-964.56" rx="3.5" ry="3.5"/>
<text text-anchor="middle" x="536" y="-970.66" font-family="Helvetica,sans-Serif" font-size="8.00" fill="#4d4d4d">biodiversité</text>
</g>
<!-- développement -->
<g id="node12" class="node">
<title>développement</title>
<ellipse fill="#180c3c" stroke="white" stroke-width="0" cx="789.61" cy="-671.21" rx="3.5" ry="3.5"/>
<text text-anchor="middle" x="753.61" y="-677.31" font-family="Helvetica,sans-Serif" font-size="8.00" fill="#4d4d4d">développement</text>
</g>
<!-- engin -->
<g id="node13" class="node">
<title>engin</title>
<ellipse fill="#6d186e" stroke="white" stroke-width="0" cx="714.56" cy="-435.18" rx="11" ry="11"/>
<text text-anchor="middle" x="691.56" y="-448.78" font-family="Helvetica,sans-Serif" font-size="8.00" fill="#4d4d4d">engin</text>
</g>
<!-- minerai -->
<g id="node14" class="node">
<title>minerai</title>
<ellipse fill="#ad305d" stroke="white" stroke-width="0" cx="817.49" cy="-377.73" rx="18" ry="18"/>
<text text-anchor="middle" x="783.99" y="-398.33" font-family="Helvetica,sans-Serif" font-size="8.00" fill="#4d4d4d">minerai</text>
</g>
<!-- terre -->
<g id="node15" class="node">
<title>terre</title>
<ellipse fill="#59106e" stroke="white" stroke-width="0" cx="691.81" cy="-509.46" rx="11" ry="11"/>
<text text-anchor="middle" x="671.31" y="-523.06" font-family="Helvetica,sans-Serif" font-size="8.00" fill="#4d4d4d">terre</text>
</g>
<!-- usine -->
<g id="node16" class="node">
<title>usine</title>
<ellipse fill="#7d1e6d" stroke="white" stroke-width="0" cx="458.47" cy="-332.7" rx="14.5" ry="14.5"/>
<text text-anchor="middle" x="432.47" y="-349.8" font-family="Helvetica,sans-Serif" font-size="8.00" fill="#4d4d4d">usine</text>
</g>
<!-- changement climatique -->
<g id="node17" class="node">
<title>changement climatique</title>
<ellipse fill="#000004" stroke="white" stroke-width="0" cx="992.23" cy="-0.5" rx="0.5" ry="0.5"/>
<text text-anchor="middle" x="943.23" y="-3.6" font-family="Helvetica,sans-Serif" font-size="8.00" fill="#4d4d4d">changement climatique</text>
</g>
<!-- main d’oeuvre -->
<g id="node18" class="node">
<title>main d’oeuvre</title>
<ellipse fill="#210c4a" stroke="white" stroke-width="0" cx="631.94" cy="-171.24" rx="3.5" ry="3.5"/>
<text text-anchor="middle" x="599.44" y="-177.34" font-family="Helvetica,sans-Serif" font-size="8.00" fill="#4d4d4d">main d’oeuvre</text>
</g>
<!-- opérateur minier -->
<g id="node19" class="node">
<title>opérateur minier</title>
<ellipse fill="#6f196e" stroke="white" stroke-width="0" cx="493.3" cy="-262.63" rx="11" ry="11"/>
<text text-anchor="middle" x="447.8" y="-276.23" font-family="Helvetica,sans-Serif" font-size="8.00" fill="#4d4d4d">opérateur minier</text>
</g>
<!-- vision positive de la ressource -->
<g id="node20" class="node">
<title>vision positive de la ressource</title>
<ellipse fill="#290b55" stroke="white" stroke-width="0" cx="785" cy="-209.97" rx="7" ry="7"/>
<text text-anchor="middle" x="716" y="-219.57" font-family="Helvetica,sans-Serif" font-size="8.00" fill="#4d4d4d">vision positive de la ressource</text>
</g>
<!-- commerce -->
<g id="node21" class="node">
<title>commerce</title>
<ellipse fill="#2f0a5b" stroke="white" stroke-width="0" cx="533.62" cy="-172.22" rx="7" ry="7"/>
<text text-anchor="middle" x="505.12" y="-181.82" font-family="Helvetica,sans-Serif" font-size="8.00" fill="#4d4d4d">commerce</text>
</g>
<!-- milieu -->
<g id="node22" class="node">
<title>milieu</title>
<ellipse fill="#110a30" stroke="white" stroke-width="0" cx="1081.73" cy="-96.26" rx="3.5" ry="3.5"/>
<text text-anchor="middle" x="1065.73" y="-102.36" font-family="Helvetica,sans-Serif" font-size="8.00" fill="#4d4d4d">milieu</text>
</g>
<!-- danger -->
<g id="node23" class="node">
<title>danger</title>
<ellipse fill="#02020c" stroke="white" stroke-width="0" cx="1148.39" cy="-218.49" rx="0.5" ry="0.5"/>
<text text-anchor="middle" x="1132.89" y="-221.59" font-family="Helvetica,sans-Serif" font-size="8.00" fill="#4d4d4d">danger</text>
</g>
<!-- épuisement de la ressource -->
<g id="node24" class="node">
<title>épuisement de la ressource</title>
<ellipse fill="#010108" stroke="white" stroke-width="0" cx="1147.97" cy="-359.85" rx="0.5" ry="0.5"/>
<text text-anchor="middle" x="1090.47" y="-362.95" font-family="Helvetica,sans-Serif" font-size="8.00" fill="#4d4d4d">épuisement de la ressource</text>
</g>
<!-- ressource non&#45;renouvelable -->
<g id="node25" class="node">
<title>ressource non&#45;renouvelable</title>
<ellipse fill="#210c4a" stroke="white" stroke-width="0" cx="797.21" cy="-66.79" rx="3.5" ry="3.5"/>
<text text-anchor="middle" x="736.21" y="-72.89" font-family="Helvetica,sans-Serif" font-size="8.00" fill="#4d4d4d">ressource non&#45;renouvelable</text>
</g>
<!-- description minière -->
<g id="node26" class="node">
<title>description minière</title>
<ellipse fill="#10092d" stroke="white" stroke-width="0" cx="1122.22" cy="-645.08" rx="3.5" ry="3.5"/>
<text text-anchor="middle" x="1079.22" y="-651.18" font-family="Helvetica,sans-Serif" font-size="8.00" fill="#4d4d4d">description minière</text>
</g>
<!-- nouvelle&#45;calédonie -->
<g id="node27" class="node">
<title>nouvelle&#45;calédonie</title>
<ellipse fill="#02020e" stroke="white" stroke-width="0" cx="1213.6" cy="-497.12" rx="0.5" ry="0.5"/>
<text text-anchor="middle" x="1173.6" y="-500.22" font-family="Helvetica,sans-Serif" font-size="8.00" fill="#4d4d4d">nouvelle&#45;calédonie</text>
</g>
<!-- localité -->
<g id="node28" class="node">
<title>localité</title>
<ellipse fill="#0e092b" stroke="white" stroke-width="0" cx="204.06" cy="-271.3" rx="3.5" ry="3.5"/>
<text text-anchor="middle" x="185.06" y="-277.4" font-family="Helvetica,sans-Serif" font-size="8.00" fill="#4d4d4d">localité</text>
</g>
<!-- production énergétique -->
<g id="node29" class="node">
<title>production énergétique</title>
<ellipse fill="#010005" stroke="white" stroke-width="0" cx="127.74" cy="-100.6" rx="0.5" ry="0.5"/>
<text text-anchor="middle" x="78.74" y="-103.7" font-family="Helvetica,sans-Serif" font-size="8.00" fill="#4d4d4d">production énergétique</text>
</g>
<!-- métallurgie -->
<g id="node30" class="node">
<title>métallurgie</title>
<ellipse fill="#02020e" stroke="white" stroke-width="0" cx="47.5" cy="-317.93" rx="0.5" ry="0.5"/>
<text text-anchor="middle" x="23.5" y="-321.03" font-family="Helvetica,sans-Serif" font-size="8.00" fill="#4d4d4d">métallurgie</text>
</g>
</g>
</svg>
