<?xml version="1.0" encoding="UTF-8" standalone="no"?>
<!DOCTYPE svg PUBLIC "-//W3C//DTD SVG 1.1//EN"
 "http://www.w3.org/Graphics/SVG/1.1/DTD/svg11.dtd">
<!-- Generated by graphviz version 2.43.0 (0)
 -->
<!-- Pages: 1 -->
<svg width="668pt" height="467pt"
 viewBox="0.00 0.00 668.05 466.72" xmlns="http://www.w3.org/2000/svg" xmlns:xlink="http://www.w3.org/1999/xlink">
<g id="graph0" class="graph" transform="scale(1 1) rotate(0) translate(4 462.72)">
<polygon fill="white" stroke="transparent" points="-4,4 -4,-462.72 664.05,-462.72 664.05,4 -4,4"/>
<!-- avenir sans nickel&#45;&#45;travail -->
<g id="edge1" class="edge">
<title>avenir sans nickel&#45;&#45;travail</title>
<path fill="none" stroke="darkgrey" stroke-width="2.61" d="M205.47,-352.7C205.37,-339.72 205.25,-324.17 205.15,-312.37"/>
</g>
<!-- avenir sans nickel&#45;&#45;politique -->
<g id="edge2" class="edge">
<title>avenir sans nickel&#45;&#45;politique</title>
<path fill="none" stroke="darkgrey" stroke-width="2.96" d="M217.38,-355.39C236.23,-319.36 272.87,-249.33 289.51,-217.53"/>
</g>
<!-- avenir sans nickel&#45;&#45;secteur nickel -->
<g id="edge3" class="edge">
<title>avenir sans nickel&#45;&#45;secteur nickel</title>
<path fill="none" stroke="darkgrey" stroke-width="2.25" d="M226.47,-363.54C254.78,-344.19 304.77,-310.02 329.65,-293.01"/>
</g>
<!-- avenir sans nickel&#45;&#45;avenir avec nickel -->
<g id="edge4" class="edge">
<title>avenir sans nickel&#45;&#45;avenir avec nickel</title>
<path fill="none" stroke="darkgrey" stroke-width="2.73" d="M209.38,-402.55C210.91,-412.77 212.56,-423.82 213.6,-430.78"/>
</g>
<!-- avenir sans nickel&#45;&#45;pollution -->
<g id="edge5" class="edge">
<title>avenir sans nickel&#45;&#45;pollution</title>
<path fill="none" stroke="darkgrey" stroke-width="4.53" d="M226.65,-363.42C266.71,-336.04 353.41,-276.77 390.95,-251.11"/>
</g>
<!-- avenir sans nickel&#45;&#45;ressource minière -->
<g id="edge6" class="edge">
<title>avenir sans nickel&#45;&#45;ressource minière</title>
<path fill="none" stroke="darkgrey" stroke-width="5.48" d="M228.38,-389.37C242.62,-396.65 260.9,-405.99 275.09,-413.24"/>
</g>
<!-- avenir sans nickel&#45;&#45;dégradation environnementale -->
<g id="edge7" class="edge">
<title>avenir sans nickel&#45;&#45;dégradation environnementale</title>
<path fill="none" stroke="darkgrey" stroke-width="5.03" d="M229.57,-369.95C265.76,-358.11 334.65,-335.57 376.18,-321.99"/>
</g>
<!-- avenir sans nickel&#45;&#45;société néo&#45;calédonienne -->
<g id="edge8" class="edge">
<title>avenir sans nickel&#45;&#45;société néo&#45;calédonienne</title>
<path fill="none" stroke="darkgrey" stroke-width="2.28" d="M231.04,-378.42C276.92,-379.6 371.97,-382.06 404.64,-382.9"/>
</g>
<!-- avenir sans nickel&#45;&#45;alternative au développement -->
<g id="edge9" class="edge">
<title>avenir sans nickel&#45;&#45;alternative au développement</title>
<path fill="none" stroke="darkgrey" stroke-width="3.61" d="M225.12,-361.76C239.64,-349.81 259.39,-333.55 273.9,-321.61"/>
</g>
<!-- avenir sans nickel&#45;&#45;économie -->
<g id="edge10" class="edge">
<title>avenir sans nickel&#45;&#45;économie</title>
<path fill="none" stroke="darkgrey" stroke-width="1.78" d="M209.29,-352.96C214.11,-319.86 222.5,-262.32 226.39,-235.62"/>
</g>
<!-- avenir sans nickel&#45;&#45;amélioration environnementale -->
<g id="edge11" class="edge">
<title>avenir sans nickel&#45;&#45;amélioration environnementale</title>
<path fill="none" stroke="darkgrey" stroke-width="1.72" d="M221.15,-357.88C223.22,-355.23 225.25,-352.62 227.06,-350.3"/>
</g>
<!-- travail&#45;&#45;politique -->
<g id="edge12" class="edge">
<title>travail&#45;&#45;politique</title>
<path fill="none" stroke="darkgrey" stroke-width="2.91" d="M217.95,-281.28C235.74,-263.49 267.54,-231.67 285.27,-213.94"/>
</g>
<!-- travail&#45;&#45;secteur nickel -->
<g id="edge13" class="edge">
<title>travail&#45;&#45;secteur nickel</title>
<path fill="none" stroke="darkgrey" stroke-width="2.82" d="M222.97,-292.76C249.63,-290.57 299.39,-286.49 326.27,-284.29"/>
</g>
<!-- travail&#45;&#45;avenir avec nickel -->
<g id="edge14" class="edge">
<title>travail&#45;&#45;avenir avec nickel</title>
<path fill="none" stroke="darkgrey" d="M206.23,-312.42C208.38,-344.42 212.75,-409.44 214.19,-430.85"/>
</g>
<!-- travail&#45;&#45;pollution -->
<g id="edge15" class="edge">
<title>travail&#45;&#45;pollution</title>
<path fill="none" stroke="darkgrey" stroke-width="4.36" d="M222.39,-289.51C259.75,-279.36 347.58,-255.51 387.93,-244.55"/>
</g>
<!-- travail&#45;&#45;ressource minière -->
<g id="edge16" class="edge">
<title>travail&#45;&#45;ressource minière</title>
<path fill="none" stroke="darkgrey" stroke-width="2.09" d="M215.44,-308.94C231.98,-332.27 264.27,-377.81 283.04,-404.29"/>
</g>
<!-- travail&#45;&#45;dégradation environnementale -->
<g id="edge17" class="edge">
<title>travail&#45;&#45;dégradation environnementale</title>
<path fill="none" stroke="darkgrey" stroke-width="5.56" d="M223.24,-295.7C257.12,-298.42 330.35,-304.32 374.52,-307.88"/>
</g>
<!-- travail&#45;&#45;société néo&#45;calédonienne -->
<g id="edge18" class="edge">
<title>travail&#45;&#45;société néo&#45;calédonienne</title>
<path fill="none" stroke="darkgrey" stroke-width="2.82" d="M221.91,-301.36C263.76,-319 371.25,-364.33 405.39,-378.73"/>
</g>
<!-- travail&#45;&#45;alternative au développement -->
<g id="edge19" class="edge">
<title>travail&#45;&#45;alternative au développement</title>
<path fill="none" stroke="darkgrey" stroke-width="3.06" d="M222.87,-296.54C235.97,-298.23 253.92,-300.56 268.42,-302.43"/>
</g>
<!-- travail&#45;&#45;économie -->
<g id="edge20" class="edge">
<title>travail&#45;&#45;économie</title>
<path fill="none" stroke="darkgrey" stroke-width="3.28" d="M210.57,-276.93C214.64,-264.29 220.09,-247.34 223.9,-235.48"/>
</g>
<!-- travail&#45;&#45;amélioration environnementale -->
<g id="edge21" class="edge">
<title>travail&#45;&#45;amélioration environnementale</title>
<path fill="none" stroke="darkgrey" stroke-width="2.08" d="M214.49,-309.67C218.98,-316.98 224.2,-325.48 228.11,-331.84"/>
</g>
<!-- travail&#45;&#45;essor technologique -->
<g id="edge22" class="edge">
<title>travail&#45;&#45;essor technologique</title>
<path fill="none" stroke="darkgrey" stroke-width="2.5" d="M220.3,-303.84C249.18,-321.99 311.24,-360.99 337.88,-377.73"/>
</g>
<!-- politique&#45;&#45;secteur nickel -->
<g id="edge23" class="edge">
<title>politique&#45;&#45;secteur nickel</title>
<path fill="none" stroke="darkgrey" stroke-width="3.16" d="M307.07,-216.85C315.3,-231.32 327.44,-252.64 335.67,-267.09"/>
</g>
<!-- politique&#45;&#45;avenir avec nickel -->
<g id="edge25" class="edge">
<title>politique&#45;&#45;avenir avec nickel</title>
<path fill="none" stroke="darkgrey" d="M292.1,-218.13C275.28,-265.84 228.21,-399.41 217.05,-431.07"/>
</g>
<!-- politique&#45;&#45;pollution -->
<g id="edge26" class="edge">
<title>politique&#45;&#45;pollution</title>
<path fill="none" stroke="darkgrey" stroke-width="2.59" d="M315.41,-207C335.12,-213.72 367.31,-224.69 388.29,-231.85"/>
</g>
<!-- politique&#45;&#45;ressource minière -->
<g id="edge27" class="edge">
<title>politique&#45;&#45;ressource minière</title>
<path fill="none" stroke="darkgrey" stroke-width="3.44" d="M298.05,-219.4C297.95,-259.24 297.71,-353.93 297.6,-399.44"/>
</g>
<!-- politique&#45;&#45;dégradation environnementale -->
<g id="edge28" class="edge">
<title>politique&#45;&#45;dégradation environnementale</title>
<path fill="none" stroke="darkgrey" stroke-width="4.09" d="M310.99,-213.68C328.86,-231.12 361.56,-263.04 384.58,-285.5"/>
</g>
<!-- politique&#45;&#45;société néo&#45;calédonienne -->
<g id="edge29" class="edge">
<title>politique&#45;&#45;société néo&#45;calédonienne</title>
<path fill="none" stroke="darkgrey" stroke-width="1.33" d="M307.95,-216.31C331.52,-252.72 390.64,-344.07 409.84,-373.73"/>
</g>
<!-- politique&#45;&#45;alternative au développement -->
<g id="edge30" class="edge">
<title>politique&#45;&#45;alternative au développement</title>
<path fill="none" stroke="darkgrey" stroke-width="2.37" d="M297.26,-219.31C296.48,-236.28 295.31,-261.72 294.44,-280.6"/>
</g>
<!-- politique&#45;&#45;économie -->
<g id="edge31" class="edge">
<title>politique&#45;&#45;économie</title>
<path fill="none" stroke="darkgrey" stroke-width="3.21" d="M280.53,-206.18C268.77,-209.59 253.49,-214.01 242.54,-217.18"/>
</g>
<!-- politique&#45;&#45;relation politique -->
<g id="edge24" class="edge">
<title>politique&#45;&#45;relation politique</title>
<path fill="none" stroke="darkgrey" stroke-width="1.1" d="M292.51,-183.65C277.62,-137.13 237.84,-12.91 234.14,-1.36"/>
</g>
<!-- secteur nickel&#45;&#45;avenir avec nickel -->
<g id="edge32" class="edge">
<title>secteur nickel&#45;&#45;avenir avec nickel</title>
<path fill="none" stroke="darkgrey" stroke-width="1.13" d="M332.84,-296.83C305.35,-329.63 237.83,-410.2 219.38,-432.22"/>
</g>
<!-- secteur nickel&#45;&#45;pollution -->
<g id="edge33" class="edge">
<title>secteur nickel&#45;&#45;pollution</title>
<path fill="none" stroke="darkgrey" stroke-width="3.03" d="M359.51,-272.6C368.85,-266.21 380.96,-257.94 390.84,-251.19"/>
</g>
<!-- secteur nickel&#45;&#45;ressource minière -->
<g id="edge34" class="edge">
<title>secteur nickel&#45;&#45;ressource minière</title>
<path fill="none" stroke="darkgrey" stroke-width="1.81" d="M338.93,-299.91C330.56,-325.13 314.9,-372.34 305.43,-400.92"/>
</g>
<!-- secteur nickel&#45;&#45;dégradation environnementale -->
<g id="edge35" class="edge">
<title>secteur nickel&#45;&#45;dégradation environnementale</title>
<path fill="none" stroke="darkgrey" stroke-width="2.77" d="M361.22,-289.85C366.1,-291.92 371.62,-294.27 377.15,-296.62"/>
</g>
<!-- secteur nickel&#45;&#45;société néo&#45;calédonienne -->
<g id="edge36" class="edge">
<title>secteur nickel&#45;&#45;société néo&#45;calédonienne</title>
<path fill="none" stroke="darkgrey" stroke-width="1.12" d="M355.13,-297.61C370.1,-318.66 397.07,-356.61 409.45,-374.02"/>
</g>
<!-- secteur nickel&#45;&#45;alternative au développement -->
<g id="edge37" class="edge">
<title>secteur nickel&#45;&#45;alternative au développement</title>
<path fill="none" stroke="darkgrey" stroke-width="4.54" d="M328.08,-290.15C324.33,-291.82 320.28,-293.62 316.32,-295.39"/>
</g>
<!-- secteur nickel&#45;&#45;économie -->
<g id="edge39" class="edge">
<title>secteur nickel&#45;&#45;économie</title>
<path fill="none" stroke="darkgrey" stroke-width="1.8" d="M328.46,-274.23C305.28,-261.95 263,-239.54 241.62,-228.21"/>
</g>
<!-- secteur nickel&#45;&#45;amélioration environnementale -->
<g id="edge40" class="edge">
<title>secteur nickel&#45;&#45;amélioration environnementale</title>
<path fill="none" stroke="darkgrey" stroke-width="2.46" d="M328.28,-291.44C304.96,-303.79 262.83,-326.12 243.79,-336.2"/>
</g>
<!-- secteur nickel&#45;&#45;essor technologique -->
<g id="edge41" class="edge">
<title>secteur nickel&#45;&#45;essor technologique</title>
<path fill="none" stroke="darkgrey" stroke-width="1.01" d="M345.65,-301.18C346.79,-321.17 348.58,-352.71 349.62,-371.06"/>
</g>
<!-- secteur nickel&#45;&#45;nickel -->
<g id="edge38" class="edge">
<title>secteur nickel&#45;&#45;nickel</title>
<path fill="none" stroke="darkgrey" stroke-width="1.35" d="M362.62,-283.21C406.04,-284.23 514.46,-286.76 536.04,-287.26"/>
</g>
<!-- avenir avec nickel&#45;&#45;ressource minière -->
<g id="edge43" class="edge">
<title>avenir avec nickel&#45;&#45;ressource minière</title>
<path fill="none" stroke="darkgrey" stroke-width="1.02" d="M221.73,-436.73C232.92,-434.96 255.26,-431.42 272.8,-428.64"/>
</g>
<!-- avenir avec nickel&#45;&#45;dégradation environnementale -->
<g id="edge44" class="edge">
<title>avenir avec nickel&#45;&#45;dégradation environnementale</title>
<path fill="none" stroke="darkgrey" stroke-width="2.11" d="M220.74,-433.91C244.55,-418.45 332.59,-361.32 379.91,-330.61"/>
</g>
<!-- avenir avec nickel&#45;&#45;alternative au développement -->
<g id="edge45" class="edge">
<title>avenir avec nickel&#45;&#45;alternative au développement</title>
<path fill="none" stroke="darkgrey" stroke-width="1.56" d="M218.24,-431.83C229.09,-413.59 261.95,-358.35 280.39,-327.34"/>
</g>
<!-- avenir avec nickel&#45;&#45;économie -->
<g id="edge46" class="edge">
<title>avenir avec nickel&#45;&#45;économie</title>
<path fill="none" stroke="darkgrey" stroke-width="1.83" d="M215.12,-430.65C217.09,-399.74 224.86,-278.08 227.55,-235.81"/>
</g>
<!-- avenir avec nickel&#45;&#45;amélioration environnementale -->
<g id="edge47" class="edge">
<title>avenir avec nickel&#45;&#45;amélioration environnementale</title>
<path fill="none" stroke="darkgrey" stroke-width="2.46" d="M216.05,-430.92C219.37,-414.33 227.8,-372.27 231.8,-352.28"/>
</g>
<!-- avenir avec nickel&#45;&#45;essor technologique -->
<g id="edge48" class="edge">
<title>avenir avec nickel&#45;&#45;essor technologique</title>
<path fill="none" stroke="darkgrey" stroke-width="1.69" d="M221.21,-435.33C242.19,-427.27 308.03,-401.95 336.79,-390.89"/>
</g>
<!-- pollution&#45;&#45;ressource minière -->
<g id="edge49" class="edge">
<title>pollution&#45;&#45;ressource minière</title>
<path fill="none" stroke="darkgrey" stroke-width="4.02" d="M397.79,-257.36C377.05,-291.98 332.5,-366.35 310.44,-403.17"/>
</g>
<!-- pollution&#45;&#45;dégradation environnementale -->
<g id="edge50" class="edge">
<title>pollution&#45;&#45;dégradation environnementale</title>
<path fill="none" stroke="darkgrey" stroke-width="10" d="M409.35,-260.44C409.45,-264.9 409.56,-269.73 409.66,-274.56"/>
</g>
<!-- pollution&#45;&#45;société néo&#45;calédonienne -->
<g id="edge52" class="edge">
<title>pollution&#45;&#45;société néo&#45;calédonienne</title>
<path fill="none" stroke="darkgrey" stroke-width="2.54" d="M409.93,-260.47C411.46,-291.61 414.24,-347.99 415.41,-371.94"/>
</g>
<!-- pollution&#45;&#45;alternative au développement -->
<g id="edge53" class="edge">
<title>pollution&#45;&#45;alternative au développement</title>
<path fill="none" stroke="darkgrey" stroke-width="4.01" d="M390.04,-249.74C369.57,-261.57 336.89,-280.45 315.26,-292.95"/>
</g>
<!-- pollution&#45;&#45;économie -->
<g id="edge55" class="edge">
<title>pollution&#45;&#45;économie</title>
<path fill="none" stroke="darkgrey" stroke-width="3.79" d="M387.47,-236.77C350.32,-233.14 274.86,-225.77 243.09,-222.67"/>
</g>
<!-- pollution&#45;&#45;amélioration environnementale -->
<g id="edge56" class="edge">
<title>pollution&#45;&#45;amélioration environnementale</title>
<path fill="none" stroke="darkgrey" stroke-width="1.11" d="M390.15,-249.83C353.14,-271.53 271.76,-319.25 243.71,-335.7"/>
</g>
<!-- pollution&#45;&#45;essor technologique -->
<g id="edge57" class="edge">
<title>pollution&#45;&#45;essor technologique</title>
<path fill="none" stroke="darkgrey" stroke-width="2.1" d="M400.87,-258.96C388.81,-289.27 366.28,-345.87 355.92,-371.9"/>
</g>
<!-- pollution&#45;&#45;nickel -->
<g id="edge54" class="edge">
<title>pollution&#45;&#45;nickel</title>
<path fill="none" stroke="darkgrey" stroke-width="1.37" d="M429.04,-246.33C460.89,-258.13 520.8,-280.31 536.15,-286"/>
</g>
<!-- pollution&#45;&#45;nature -->
<g id="edge51" class="edge">
<title>pollution&#45;&#45;nature</title>
<path fill="none" stroke="darkgrey" stroke-width="2" d="M429.69,-233.11C481.59,-218.79 614.8,-182.03 646.3,-173.33"/>
</g>
<!-- ressource minière&#45;&#45;dégradation environnementale -->
<g id="edge58" class="edge">
<title>ressource minière&#45;&#45;dégradation environnementale</title>
<path fill="none" stroke="darkgrey" stroke-width="6.21" d="M315.18,-406.91C333.91,-388.01 363.7,-357.96 384.98,-336.49"/>
</g>
<!-- ressource minière&#45;&#45;alternative au développement -->
<g id="edge59" class="edge">
<title>ressource minière&#45;&#45;alternative au développement</title>
<path fill="none" stroke="darkgrey" stroke-width="4.1" d="M296.63,-399.47C295.91,-379.26 294.91,-351.06 294.19,-330.86"/>
</g>
<!-- ressource minière&#45;&#45;économie -->
<g id="edge60" class="edge">
<title>ressource minière&#45;&#45;économie</title>
<path fill="none" stroke="darkgrey" stroke-width="3.08" d="M289.48,-400.98C274.96,-358.21 244.85,-269.47 233.21,-235.18"/>
</g>
<!-- ressource minière&#45;&#45;amélioration environnementale -->
<g id="edge61" class="edge">
<title>ressource minière&#45;&#45;amélioration environnementale</title>
<path fill="none" stroke="darkgrey" stroke-width="1.04" d="M282.15,-404.55C268.92,-387.21 250.48,-363.04 240.7,-350.21"/>
</g>
<!-- ressource minière&#45;&#45;essor technologique -->
<g id="edge62" class="edge">
<title>ressource minière&#45;&#45;essor technologique</title>
<path fill="none" stroke="darkgrey" stroke-width="3.55" d="M317.84,-409.72C324.84,-404.55 332.44,-398.94 338.54,-394.43"/>
</g>
<!-- dégradation environnementale&#45;&#45;société néo&#45;calédonienne -->
<g id="edge64" class="edge">
<title>dégradation environnementale&#45;&#45;société néo&#45;calédonienne</title>
<path fill="none" stroke="darkgrey" stroke-width="2.08" d="M413.22,-346.98C413.91,-356.18 414.61,-365.37 415.13,-372.19"/>
</g>
<!-- dégradation environnementale&#45;&#45;alternative au développement -->
<g id="edge65" class="edge">
<title>dégradation environnementale&#45;&#45;alternative au développement</title>
<path fill="none" stroke="darkgrey" stroke-width="3.92" d="M374.35,-309.19C356.2,-308.4 334.65,-307.46 318.33,-306.74"/>
</g>
<!-- dégradation environnementale&#45;&#45;économie -->
<g id="edge67" class="edge">
<title>dégradation environnementale&#45;&#45;économie</title>
<path fill="none" stroke="darkgrey" stroke-width="5.92" d="M377.93,-294.77C337.45,-274.85 270.18,-241.76 241.79,-227.79"/>
</g>
<!-- dégradation environnementale&#45;&#45;amélioration environnementale -->
<g id="edge68" class="edge">
<title>dégradation environnementale&#45;&#45;amélioration environnementale</title>
<path fill="none" stroke="darkgrey" stroke-width="2.57" d="M374.75,-316.97C334.26,-324 270.57,-335.05 245.08,-339.48"/>
</g>
<!-- dégradation environnementale&#45;&#45;essor technologique -->
<g id="edge69" class="edge">
<title>dégradation environnementale&#45;&#45;essor technologique</title>
<path fill="none" stroke="darkgrey" stroke-width="2.97" d="M387.78,-339.07C377.95,-351.33 367.01,-364.98 359.53,-374.31"/>
</g>
<!-- dégradation environnementale&#45;&#45;nickel -->
<g id="edge66" class="edge">
<title>dégradation environnementale&#45;&#45;nickel</title>
<path fill="none" stroke="darkgrey" stroke-width="1.68" d="M446.15,-304.31C478.46,-298.46 522.92,-290.41 536.03,-288.03"/>
</g>
<!-- dégradation environnementale&#45;&#45;nature -->
<g id="edge63" class="edge">
<title>dégradation environnementale&#45;&#45;nature</title>
<path fill="none" stroke="darkgrey" stroke-width="2.91" d="M442.18,-292.56C499.72,-259.52 618.01,-191.59 646.68,-175.13"/>
</g>
<!-- société néo&#45;calédonienne&#45;&#45;alternative au développement -->
<g id="edge70" class="edge">
<title>société néo&#45;calédonienne&#45;&#45;alternative au développement</title>
<path fill="none" stroke="darkgrey" stroke-width="2.4" d="M406.34,-377.11C386.68,-364.68 341.52,-336.14 314.6,-319.12"/>
</g>
<!-- société néo&#45;calédonienne&#45;&#45;économie -->
<g id="edge72" class="edge">
<title>société néo&#45;calédonienne&#45;&#45;économie</title>
<path fill="none" stroke="darkgrey" stroke-width="2.16" d="M407.42,-375.81C377.05,-349.58 274.27,-260.79 239.83,-231.05"/>
</g>
<!-- société néo&#45;calédonienne&#45;&#45;nickel -->
<g id="edge71" class="edge">
<title>société néo&#45;calédonienne&#45;&#45;nickel</title>
<path fill="none" stroke="darkgrey" stroke-width="1.43" d="M424.87,-376.3C450.16,-356.73 521.57,-301.46 536.89,-289.61"/>
</g>
<!-- alternative au développement&#45;&#45;économie -->
<g id="edge76" class="edge">
<title>alternative au développement&#45;&#45;économie</title>
<path fill="none" stroke="darkgrey" stroke-width="4.88" d="M277.93,-285.65C265.35,-269.27 247.99,-246.65 237.54,-233.04"/>
</g>
<!-- alternative au développement&#45;&#45;amélioration environnementale -->
<g id="edge77" class="edge">
<title>alternative au développement&#45;&#45;amélioration environnementale</title>
<path fill="none" stroke="darkgrey" stroke-width="3.46" d="M271.54,-318.76C261.89,-324.58 251.03,-331.12 243.48,-335.68"/>
</g>
<!-- alternative au développement&#45;&#45;essor technologique -->
<g id="edge78" class="edge">
<title>alternative au développement&#45;&#45;essor technologique</title>
<path fill="none" stroke="darkgrey" stroke-width="3.49" d="M308.01,-326.25C318.73,-341.24 332.88,-361.04 341.82,-373.56"/>
</g>
<!-- alternative au développement&#45;&#45;nickel -->
<g id="edge75" class="edge">
<title>alternative au développement&#45;&#45;nickel</title>
<path fill="none" stroke="darkgrey" stroke-width="1.3" d="M318.28,-303.79C375.32,-299.56 512.04,-289.41 536.15,-287.62"/>
</g>
<!-- économie&#45;&#45;amélioration environnementale -->
<g id="edge79" class="edge">
<title>économie&#45;&#45;amélioration environnementale</title>
<path fill="none" stroke="darkgrey" stroke-width="1.05" d="M229.16,-235.98C230.27,-260.29 232.47,-308.3 233.47,-330.12"/>
</g>
<!-- amélioration environnementale&#45;&#45;essor technologique -->
<g id="edge80" class="edge">
<title>amélioration environnementale&#45;&#45;essor technologique</title>
<path fill="none" stroke="darkgrey" stroke-width="1.42" d="M244.32,-345.33C265.36,-353.32 313.18,-371.48 336.77,-380.44"/>
</g>
<!-- relation politique&#45;&#45;économie -->
<g id="edge42" class="edge">
<title>relation politique&#45;&#45;économie</title>
<path fill="none" stroke="darkgrey" stroke-width="1.02" d="M233.85,-1.13C233.59,-11.98 230,-159.18 228.84,-206.62"/>
</g>
<!-- nouvelle&#45;calédonie&#45;&#45;alternative au développement -->
<g id="edge73" class="edge">
<title>nouvelle&#45;calédonie&#45;&#45;alternative au développement</title>
<path fill="none" stroke="darkgrey" stroke-width="1.58" d="M85.48,-157.45C105.8,-171.94 224.56,-256.64 272.87,-291.09"/>
</g>
<!-- nouvelle&#45;calédonie&#45;&#45;économie -->
<g id="edge74" class="edge">
<title>nouvelle&#45;calédonie&#45;&#45;économie</title>
<path fill="none" stroke="darkgrey" stroke-width="1.05" d="M85.82,-156.83C103.05,-164.61 182.66,-200.55 214.89,-215.1"/>
</g>
<!-- avenir sans nickel -->
<g id="node1" class="node">
<title>avenir sans nickel</title>
<ellipse fill="#f67e14" stroke="white" stroke-width="0" cx="205.67" cy="-377.76" rx="25" ry="25"/>
<text text-anchor="middle" x="144.17" y="-405.36" font-family="Helvetica,sans-Serif" font-size="8.00" fill="#4d4d4d">avenir sans nickel</text>
</g>
<!-- travail -->
<g id="node2" class="node">
<title>travail</title>
<ellipse fill="#a82e5f" stroke="white" stroke-width="0" cx="205.01" cy="-294.23" rx="18" ry="18"/>
<text text-anchor="middle" x="174.01" y="-314.83" font-family="Helvetica,sans-Serif" font-size="8.00" fill="#4d4d4d">travail</text>
</g>
<!-- politique -->
<g id="node3" class="node">
<title>politique</title>
<ellipse fill="#b93556" stroke="white" stroke-width="0" cx="298.1" cy="-201.1" rx="18" ry="18"/>
<text text-anchor="middle" x="261.6" y="-221.7" font-family="Helvetica,sans-Serif" font-size="8.00" fill="#4d4d4d">politique</text>
</g>
<!-- secteur nickel -->
<g id="node4" class="node">
<title>secteur nickel</title>
<ellipse fill="#b73557" stroke="white" stroke-width="0" cx="344.6" cy="-282.79" rx="18" ry="18"/>
<text text-anchor="middle" x="298.1" y="-267.39" font-family="Helvetica,sans-Serif" font-size="8.00" fill="#4d4d4d">secteur nickel</text>
</g>
<!-- avenir avec nickel -->
<g id="node5" class="node">
<title>avenir avec nickel</title>
<ellipse fill="#320a5e" stroke="white" stroke-width="0" cx="214.66" cy="-437.85" rx="7" ry="7"/>
<text text-anchor="middle" x="171.16" y="-447.45" font-family="Helvetica,sans-Serif" font-size="8.00" fill="#4d4d4d">avenir avec nickel</text>
</g>
<!-- pollution -->
<g id="node6" class="node">
<title>pollution</title>
<ellipse fill="#e25734" stroke="white" stroke-width="0" cx="408.87" cy="-238.86" rx="21.5" ry="21.5"/>
<text text-anchor="middle" x="368.87" y="-219.96" font-family="Helvetica,sans-Serif" font-size="8.00" fill="#4d4d4d">pollution</text>
</g>
<!-- ressource minière -->
<g id="node7" class="node">
<title>ressource minière</title>
<ellipse fill="#ec6726" stroke="white" stroke-width="0" cx="297.53" cy="-424.72" rx="25" ry="25"/>
<text text-anchor="middle" x="309.03" y="-452.32" font-family="Helvetica,sans-Serif" font-size="8.00" fill="#4d4d4d">ressource minière</text>
</g>
<!-- dégradation environnementale -->
<g id="node8" class="node">
<title>dégradation environnementale</title>
<ellipse fill="#fcffa4" stroke="white" stroke-width="0" cx="410.47" cy="-310.77" rx="36" ry="36"/>
<text text-anchor="middle" x="310.97" y="-349.37" font-family="Helvetica,sans-Serif" font-size="8.00" fill="#4d4d4d">dégradation environnementale</text>
</g>
<!-- société néo&#45;calédonienne -->
<g id="node9" class="node">
<title>société néo&#45;calédonienne</title>
<ellipse fill="#741a6e" stroke="white" stroke-width="0" cx="415.97" cy="-383.19" rx="11" ry="11"/>
<text text-anchor="middle" x="458.97" y="-396.79" font-family="Helvetica,sans-Serif" font-size="8.00" fill="#4d4d4d">société néo&#45;calédonienne</text>
</g>
<!-- alternative au développement -->
<g id="node10" class="node">
<title>alternative au développement</title>
<ellipse fill="#f67e14" stroke="white" stroke-width="0" cx="293.29" cy="-305.65" rx="25" ry="25"/>
<text text-anchor="middle" x="206.29" y="-274.25" font-family="Helvetica,sans-Serif" font-size="8.00" fill="#4d4d4d">alternative au développement</text>
</g>
<!-- économie -->
<g id="node11" class="node">
<title>économie</title>
<ellipse fill="#982766" stroke="white" stroke-width="0" cx="228.48" cy="-221.24" rx="14.5" ry="14.5"/>
<text text-anchor="middle" x="193.48" y="-238.34" font-family="Helvetica,sans-Serif" font-size="8.00" fill="#4d4d4d">économie</text>
</g>
<!-- amélioration environnementale -->
<g id="node12" class="node">
<title>amélioration environnementale</title>
<ellipse fill="#59106e" stroke="white" stroke-width="0" cx="233.98" cy="-341.4" rx="11" ry="11"/>
<text text-anchor="middle" x="158.48" y="-333" font-family="Helvetica,sans-Serif" font-size="8.00" fill="#4d4d4d">amélioration environnementale</text>
</g>
<!-- essor technologique -->
<g id="node13" class="node">
<title>essor technologique</title>
<ellipse fill="#952667" stroke="white" stroke-width="0" cx="350.45" cy="-385.63" rx="14.5" ry="14.5"/>
<text text-anchor="middle" x="293.45" y="-373.73" font-family="Helvetica,sans-Serif" font-size="8.00" fill="#4d4d4d">essor technologique</text>
</g>
<!-- relation politique -->
<g id="node14" class="node">
<title>relation politique</title>
<ellipse fill="#000004" stroke="white" stroke-width="0" cx="233.87" cy="-0.5" rx="0.5" ry="0.5"/>
<text text-anchor="middle" x="198.37" y="-3.6" font-family="Helvetica,sans-Serif" font-size="8.00" fill="#4d4d4d">relation politique</text>
</g>
<!-- nickel -->
<g id="node15" class="node">
<title>nickel</title>
<ellipse fill="#0b0724" stroke="white" stroke-width="0" cx="539.81" cy="-287.35" rx="3.5" ry="3.5"/>
<text text-anchor="middle" x="524.31" y="-293.45" font-family="Helvetica,sans-Serif" font-size="8.00" fill="#4d4d4d">nickel</text>
</g>
<!-- nature -->
<g id="node16" class="node">
<title>nature</title>
<ellipse fill="#260c51" stroke="white" stroke-width="0" cx="653.05" cy="-171.47" rx="7" ry="7"/>
<text text-anchor="middle" x="632.55" y="-181.07" font-family="Helvetica,sans-Serif" font-size="8.00" fill="#4d4d4d">nature</text>
</g>
<!-- nouvelle&#45;calédonie -->
<g id="node17" class="node">
<title>nouvelle&#45;calédonie</title>
<ellipse fill="#0d0829" stroke="white" stroke-width="0" cx="82.5" cy="-155.33" rx="3.5" ry="3.5"/>
<text text-anchor="middle" x="39.5" y="-161.43" font-family="Helvetica,sans-Serif" font-size="8.00" fill="#4d4d4d">nouvelle&#45;calédonie</text>
</g>
</g>
</svg>
