<?xml version="1.0" encoding="UTF-8" standalone="no"?>
<!DOCTYPE svg PUBLIC "-//W3C//DTD SVG 1.1//EN"
 "http://www.w3.org/Graphics/SVG/1.1/DTD/svg11.dtd">
<!-- Generated by graphviz version 2.43.0 (0)
 -->
<!-- Pages: 1 -->
<svg width="973pt" height="766pt"
 viewBox="0.00 0.00 973.39 766.30" xmlns="http://www.w3.org/2000/svg" xmlns:xlink="http://www.w3.org/1999/xlink">
<g id="graph0" class="graph" transform="scale(1 1) rotate(0) translate(4 762.3)">
<polygon fill="white" stroke="transparent" points="-4,4 -4,-762.3 969.39,-762.3 969.39,4 -4,4"/>
<!-- pollution&#45;&#45;emploi -->
<g id="edge1" class="edge">
<title>pollution&#45;&#45;emploi</title>
<path fill="none" stroke="darkgrey" stroke-width="7" d="M661.81,-330.25C653.01,-335.19 642.58,-341.04 633.81,-345.96"/>
</g>
<!-- pollution&#45;&#45;économie du pays -->
<g id="edge2" class="edge">
<title>pollution&#45;&#45;économie du pays</title>
<path fill="none" stroke="darkgrey" stroke-width="4.1" d="M661.15,-310.44C638.26,-299.82 601.07,-282.58 581.25,-273.39"/>
</g>
<!-- pollution&#45;&#45;richesse -->
<g id="edge3" class="edge">
<title>pollution&#45;&#45;richesse</title>
<path fill="none" stroke="darkgrey" stroke-width="1.56" d="M670.59,-300.64C655.92,-273.59 629.72,-225.23 620.41,-208.04"/>
</g>
<!-- pollution&#45;&#45;impact environnemental -->
<g id="edge4" class="edge">
<title>pollution&#45;&#45;impact environnemental</title>
<path fill="none" stroke="darkgrey" stroke-width="10" d="M659.15,-318.61C620.23,-316.91 538.17,-313.3 490.68,-311.22"/>
</g>
<!-- pollution&#45;&#45;conflit -->
<g id="edge5" class="edge">
<title>pollution&#45;&#45;conflit</title>
<path fill="none" stroke="darkgrey" stroke-width="2.15" d="M676.53,-298.47C668.51,-259.23 651.55,-176.28 645.48,-146.56"/>
</g>
<!-- pollution&#45;&#45;revenu -->
<g id="edge6" class="edge">
<title>pollution&#45;&#45;revenu</title>
<path fill="none" stroke="darkgrey" stroke-width="1.83" d="M685.61,-298.58C690.81,-275.63 698.87,-240.15 702.25,-225.24"/>
</g>
<!-- pollution&#45;&#45;nickel -->
<g id="edge7" class="edge">
<title>pollution&#45;&#45;nickel</title>
<path fill="none" stroke="darkgrey" stroke-width="3.88" d="M660.81,-327.76C641.1,-335.81 611.19,-348.04 591.53,-356.08"/>
</g>
<!-- pollution&#45;&#45;milieu -->
<g id="edge8" class="edge">
<title>pollution&#45;&#45;milieu</title>
<path fill="none" stroke="darkgrey" stroke-width="1.07" d="M694.09,-336.87C715.44,-364.75 756.08,-417.8 765.9,-430.63"/>
</g>
<!-- pollution&#45;&#45;exploitation -->
<g id="edge9" class="edge">
<title>pollution&#45;&#45;exploitation</title>
<path fill="none" stroke="darkgrey" stroke-width="1.89" d="M659.23,-319.15C623.1,-318.46 551.65,-317.09 524.11,-316.57"/>
</g>
<!-- pollution&#45;&#45;montagne -->
<g id="edge10" class="edge">
<title>pollution&#45;&#45;montagne</title>
<path fill="none" stroke="darkgrey" stroke-width="2.04" d="M686.02,-340.65C690.4,-358.46 696.4,-382.89 699.28,-394.62"/>
</g>
<!-- pollution&#45;&#45;biodiversité -->
<g id="edge11" class="edge">
<title>pollution&#45;&#45;biodiversité</title>
<path fill="none" stroke="darkgrey" stroke-width="1.27" d="M702.43,-320.75C762.84,-324.05 930.98,-333.23 958.16,-334.72"/>
</g>
<!-- pollution&#45;&#45;développement -->
<g id="edge12" class="edge">
<title>pollution&#45;&#45;développement</title>
<path fill="none" stroke="darkgrey" stroke-width="2.08" d="M660.05,-325.5C605.37,-341.12 460.06,-382.61 435.48,-389.62"/>
</g>
<!-- pollution&#45;&#45;engin -->
<g id="edge13" class="edge">
<title>pollution&#45;&#45;engin</title>
<path fill="none" stroke="darkgrey" stroke-width="2.29" d="M665.79,-335.36C642.44,-359.87 598.3,-406.18 580.41,-424.95"/>
</g>
<!-- pollution&#45;&#45;minerai -->
<g id="edge14" class="edge">
<title>pollution&#45;&#45;minerai</title>
<path fill="none" stroke="darkgrey" stroke-width="1.92" d="M660.75,-311.65C654.4,-309.15 647.45,-306.41 641.33,-304"/>
</g>
<!-- pollution&#45;&#45;terre -->
<g id="edge15" class="edge">
<title>pollution&#45;&#45;terre</title>
<path fill="none" stroke="darkgrey" stroke-width="1.82" d="M674.18,-340.26C664.68,-369.75 647.61,-422.77 640.36,-445.28"/>
</g>
<!-- pollution&#45;&#45;usine -->
<g id="edge16" class="edge">
<title>pollution&#45;&#45;usine</title>
<path fill="none" stroke="darkgrey" stroke-width="2.07" d="M664.31,-333.52C629.42,-362.98 549.05,-430.84 519.56,-455.74"/>
</g>
<!-- pollution&#45;&#45;vision positive de la ressource -->
<g id="edge17" class="edge">
<title>pollution&#45;&#45;vision positive de la ressource</title>
<path fill="none" stroke="darkgrey" stroke-width="1.04" d="M664.04,-305.56C629.24,-276.55 550.74,-211.09 529.35,-193.26"/>
</g>
<!-- emploi&#45;&#45;économie du pays -->
<g id="edge19" class="edge">
<title>emploi&#45;&#45;économie du pays</title>
<path fill="none" stroke="darkgrey" stroke-width="5.45" d="M604.8,-337.11C595.68,-319.87 582.6,-295.13 574.68,-280.16"/>
</g>
<!-- emploi&#45;&#45;richesse -->
<g id="edge20" class="edge">
<title>emploi&#45;&#45;richesse</title>
<path fill="none" stroke="darkgrey" stroke-width="2.4" d="M615.32,-334.98C615.77,-299.61 616.64,-230.88 616.92,-208.79"/>
</g>
<!-- emploi&#45;&#45;impact environnemental -->
<g id="edge21" class="edge">
<title>emploi&#45;&#45;impact environnemental</title>
<path fill="none" stroke="darkgrey" stroke-width="8.05" d="M594.41,-350.46C567.84,-342.7 521.29,-329.11 489.27,-319.75"/>
</g>
<!-- emploi&#45;&#45;conflit -->
<g id="edge22" class="edge">
<title>emploi&#45;&#45;conflit</title>
<path fill="none" stroke="darkgrey" stroke-width="3.23" d="M617.81,-334.92C623.71,-288.69 637.41,-181.45 641.84,-146.73"/>
</g>
<!-- emploi&#45;&#45;revenu -->
<g id="edge23" class="edge">
<title>emploi&#45;&#45;revenu</title>
<path fill="none" stroke="darkgrey" stroke-width="2.88" d="M626.84,-338.14C647.03,-306.71 687.27,-244.07 699.93,-224.36"/>
</g>
<!-- emploi&#45;&#45;nickel -->
<g id="edge24" class="edge">
<title>emploi&#45;&#45;nickel</title>
<path fill="none" stroke="darkgrey" stroke-width="5.29" d="M593.84,-360.27C593.5,-360.33 593.16,-360.39 592.81,-360.45"/>
</g>
<!-- emploi&#45;&#45;exploitation -->
<g id="edge25" class="edge">
<title>emploi&#45;&#45;exploitation</title>
<path fill="none" stroke="darkgrey" stroke-width="2.4" d="M594.88,-348.56C573.37,-340.11 540.15,-327.05 523.38,-320.46"/>
</g>
<!-- emploi&#45;&#45;montagne -->
<g id="edge26" class="edge">
<title>emploi&#45;&#45;montagne</title>
<path fill="none" stroke="darkgrey" stroke-width="1.28" d="M634.12,-366.47C653.3,-376.5 681.79,-391.41 694.47,-398.04"/>
</g>
<!-- emploi&#45;&#45;développement -->
<g id="edge27" class="edge">
<title>emploi&#45;&#45;développement</title>
<path fill="none" stroke="darkgrey" stroke-width="1.34" d="M593.69,-360.48C550.48,-368.53 455.14,-386.31 435.51,-389.97"/>
</g>
<!-- emploi&#45;&#45;engin -->
<g id="edge28" class="edge">
<title>emploi&#45;&#45;engin</title>
<path fill="none" stroke="darkgrey" stroke-width="1.76" d="M604.55,-375.44C596.11,-390.7 584.58,-411.51 577.93,-423.52"/>
</g>
<!-- emploi&#45;&#45;minerai -->
<g id="edge29" class="edge">
<title>emploi&#45;&#45;minerai</title>
<path fill="none" stroke="darkgrey" stroke-width="1.95" d="M618.39,-335.12C619.4,-328.63 620.51,-321.56 621.48,-315.32"/>
</g>
<!-- emploi&#45;&#45;terre -->
<g id="edge30" class="edge">
<title>emploi&#45;&#45;terre</title>
<path fill="none" stroke="darkgrey" stroke-width="2.05" d="M619.7,-377.56C624.24,-398.18 630.99,-428.78 634.55,-444.94"/>
</g>
<!-- emploi&#45;&#45;usine -->
<g id="edge31" class="edge">
<title>emploi&#45;&#45;usine</title>
<path fill="none" stroke="darkgrey" stroke-width="1.97" d="M599.78,-372.06C577.79,-394.47 537.77,-435.24 518.87,-454.5"/>
</g>
<!-- emploi&#45;&#45;vision positive de la ressource -->
<g id="edge33" class="edge">
<title>emploi&#45;&#45;vision positive de la ressource</title>
<path fill="none" stroke="darkgrey" stroke-width="1.67" d="M604.77,-337.57C584.46,-300.2 540.08,-218.52 527.35,-195.09"/>
</g>
<!-- emploi&#45;&#45;opérateur minier -->
<g id="edge32" class="edge">
<title>emploi&#45;&#45;opérateur minier</title>
<path fill="none" stroke="darkgrey" stroke-width="1.71" d="M607.89,-376.97C594.96,-413.95 568.15,-490.6 558.36,-518.59"/>
</g>
<!-- emploi&#45;&#45;commerce -->
<g id="edge34" class="edge">
<title>emploi&#45;&#45;commerce</title>
<path fill="none" stroke="darkgrey" stroke-width="1.34" d="M595.99,-367.27C552.85,-391.65 449.4,-450.13 422.68,-465.24"/>
</g>
<!-- économie du pays&#45;&#45;richesse -->
<g id="edge35" class="edge">
<title>économie du pays&#45;&#45;richesse</title>
<path fill="none" stroke="darkgrey" stroke-width="1.3" d="M576.6,-255.47C587.22,-241.36 604.64,-218.21 612.68,-207.52"/>
</g>
<!-- économie du pays&#45;&#45;impact environnemental -->
<g id="edge36" class="edge">
<title>économie du pays&#45;&#45;impact environnemental</title>
<path fill="none" stroke="darkgrey" stroke-width="6.86" d="M553.93,-272.37C537.76,-278.44 510.46,-288.68 488.58,-296.9"/>
</g>
<!-- économie du pays&#45;&#45;conflit -->
<g id="edge37" class="edge">
<title>économie du pays&#45;&#45;conflit</title>
<path fill="none" stroke="darkgrey" stroke-width="2.16" d="M575.04,-254.55C590.01,-228.45 624.13,-168.99 637.62,-145.49"/>
</g>
<!-- économie du pays&#45;&#45;revenu -->
<g id="edge38" class="edge">
<title>économie du pays&#45;&#45;revenu</title>
<path fill="none" stroke="darkgrey" stroke-width="1.06" d="M581.6,-262.2C610.37,-251.86 675.88,-228.32 697.08,-220.71"/>
</g>
<!-- économie du pays&#45;&#45;nickel -->
<g id="edge39" class="edge">
<title>économie du pays&#45;&#45;nickel</title>
<path fill="none" stroke="darkgrey" stroke-width="2.72" d="M568.39,-281.9C569.02,-298.02 570.04,-324.02 570.77,-342.48"/>
</g>
<!-- économie du pays&#45;&#45;exploitation -->
<g id="edge40" class="edge">
<title>économie du pays&#45;&#45;exploitation</title>
<path fill="none" stroke="darkgrey" stroke-width="1.05" d="M556.96,-276.88C546.47,-286.29 530.79,-300.35 521.24,-308.9"/>
</g>
<!-- économie du pays&#45;&#45;engin -->
<g id="edge41" class="edge">
<title>économie du pays&#45;&#45;engin</title>
<path fill="none" stroke="darkgrey" stroke-width="1" d="M568.23,-281.89C569.17,-314.58 571.42,-392.61 572.26,-421.84"/>
</g>
<!-- économie du pays&#45;&#45;minerai -->
<g id="edge42" class="edge">
<title>économie du pays&#45;&#45;minerai</title>
<path fill="none" stroke="darkgrey" stroke-width="1.38" d="M580.62,-274C588.83,-278.37 599.54,-284.08 608.29,-288.76"/>
</g>
<!-- économie du pays&#45;&#45;terre -->
<g id="edge43" class="edge">
<title>économie du pays&#45;&#45;terre</title>
<path fill="none" stroke="darkgrey" stroke-width="1.08" d="M572.89,-281.03C586.12,-317.12 621.37,-413.32 633.1,-445.33"/>
</g>
<!-- économie du pays&#45;&#45;usine -->
<g id="edge44" class="edge">
<title>économie du pays&#45;&#45;usine</title>
<path fill="none" stroke="darkgrey" stroke-width="1.47" d="M563.63,-281.08C552.73,-317.42 523.51,-414.88 512.62,-451.21"/>
</g>
<!-- richesse&#45;&#45;impact environnemental -->
<g id="edge45" class="edge">
<title>richesse&#45;&#45;impact environnemental</title>
<path fill="none" stroke="darkgrey" stroke-width="2.89" d="M610.84,-205.87C590.45,-219.41 524.27,-263.38 484.9,-289.54"/>
</g>
<!-- richesse&#45;&#45;conflit -->
<g id="edge46" class="edge">
<title>richesse&#45;&#45;conflit</title>
<path fill="none" stroke="darkgrey" stroke-width="1.12" d="M619.62,-195.19C624.18,-183.7 633.64,-159.88 639.11,-146.11"/>
</g>
<!-- richesse&#45;&#45;nickel -->
<g id="edge47" class="edge">
<title>richesse&#45;&#45;nickel</title>
<path fill="none" stroke="darkgrey" stroke-width="1.66" d="M615.06,-208.75C608.59,-231.89 587.7,-306.68 577.43,-343.44"/>
</g>
<!-- richesse&#45;&#45;exploitation -->
<g id="edge48" class="edge">
<title>richesse&#45;&#45;exploitation</title>
<path fill="none" stroke="darkgrey" stroke-width="1.13" d="M612.27,-206.99C595.72,-225.21 540.49,-286.02 520.35,-308.18"/>
</g>
<!-- impact environnemental&#45;&#45;conflit -->
<g id="edge49" class="edge">
<title>impact environnemental&#45;&#45;conflit</title>
<path fill="none" stroke="darkgrey" stroke-width="2.6" d="M481.27,-285.08C524.73,-244.99 608.72,-167.52 635.11,-143.18"/>
</g>
<!-- impact environnemental&#45;&#45;revenu -->
<g id="edge50" class="edge">
<title>impact environnemental&#45;&#45;revenu</title>
<path fill="none" stroke="darkgrey" stroke-width="1.91" d="M488.51,-297.22C547.86,-275.46 667.2,-231.71 696.98,-220.79"/>
</g>
<!-- impact environnemental&#45;&#45;nickel -->
<g id="edge51" class="edge">
<title>impact environnemental&#45;&#45;nickel</title>
<path fill="none" stroke="darkgrey" stroke-width="5.59" d="M487.54,-324.99C508.36,-334.7 534.55,-346.92 552.13,-355.12"/>
</g>
<!-- impact environnemental&#45;&#45;milieu -->
<g id="edge52" class="edge">
<title>impact environnemental&#45;&#45;milieu</title>
<path fill="none" stroke="darkgrey" stroke-width="1.87" d="M488.19,-322.89C562.73,-352.34 737.7,-421.47 764.58,-432.09"/>
</g>
<!-- impact environnemental&#45;&#45;exploitation -->
<g id="edge54" class="edge">
<title>impact environnemental&#45;&#45;exploitation</title>
<path fill="none" stroke="darkgrey" stroke-width="4.46" d="M490.56,-313.78C494.69,-314.25 498.62,-314.7 502,-315.09"/>
</g>
<!-- impact environnemental&#45;&#45;montagne -->
<g id="edge55" class="edge">
<title>impact environnemental&#45;&#45;montagne</title>
<path fill="none" stroke="darkgrey" stroke-width="2.56" d="M488.64,-322.3C547.5,-344.24 664.92,-388 694.22,-398.92"/>
</g>
<!-- impact environnemental&#45;&#45;développement -->
<g id="edge56" class="edge">
<title>impact environnemental&#45;&#45;développement</title>
<path fill="none" stroke="darkgrey" stroke-width="2.2" d="M444.88,-344.46C440.17,-361.27 435.08,-379.41 432.96,-386.99"/>
</g>
<!-- impact environnemental&#45;&#45;engin -->
<g id="edge57" class="edge">
<title>impact environnemental&#45;&#45;engin</title>
<path fill="none" stroke="darkgrey" stroke-width="3.2" d="M479.66,-335.83C506.57,-364.02 547.8,-407.19 564.82,-425.02"/>
</g>
<!-- impact environnemental&#45;&#45;minerai -->
<g id="edge58" class="edge">
<title>impact environnemental&#45;&#45;minerai</title>
<path fill="none" stroke="darkgrey" stroke-width="2.64" d="M490.63,-307.02C526.03,-304.44 578.66,-300.61 606.12,-298.62"/>
</g>
<!-- impact environnemental&#45;&#45;terre -->
<g id="edge59" class="edge">
<title>impact environnemental&#45;&#45;terre</title>
<path fill="none" stroke="darkgrey" stroke-width="2.07" d="M482.74,-332.16C524.89,-365.97 602.32,-428.07 628.24,-448.86"/>
</g>
<!-- impact environnemental&#45;&#45;usine -->
<g id="edge61" class="edge">
<title>impact environnemental&#45;&#45;usine</title>
<path fill="none" stroke="darkgrey" stroke-width="2.21" d="M466.46,-343.76C478.09,-377.37 495.28,-427.06 503.6,-451.09"/>
</g>
<!-- impact environnemental&#45;&#45;vision positive de la ressource -->
<g id="edge63" class="edge">
<title>impact environnemental&#45;&#45;vision positive de la ressource</title>
<path fill="none" stroke="darkgrey" stroke-width="2.11" d="M472.66,-278.18C488.84,-249.9 511.37,-210.54 520.16,-195.19"/>
</g>
<!-- impact environnemental&#45;&#45;opérateur minier -->
<g id="edge62" class="edge">
<title>impact environnemental&#45;&#45;opérateur minier</title>
<path fill="none" stroke="darkgrey" stroke-width="1.39" d="M469.62,-342.5C492.73,-393.2 535.9,-487.91 550.05,-518.97"/>
</g>
<!-- impact environnemental&#45;&#45;commerce -->
<g id="edge68" class="edge">
<title>impact environnemental&#45;&#45;commerce</title>
<path fill="none" stroke="darkgrey" stroke-width="1.56" d="M446.14,-344.97C436.87,-383.45 422.73,-442.15 417.94,-462.01"/>
</g>
<!-- impact environnemental&#45;&#45;amélioration environnementale -->
<g id="edge53" class="edge">
<title>impact environnemental&#45;&#45;amélioration environnementale</title>
<path fill="none" stroke="darkgrey" stroke-width="1.17" d="M418.52,-306.25C364.76,-301.22 267.9,-292.15 248.06,-290.3"/>
</g>
<!-- impact environnemental&#45;&#45;industrie -->
<g id="edge60" class="edge">
<title>impact environnemental&#45;&#45;industrie</title>
<path fill="none" stroke="darkgrey" stroke-width="1.01" d="M428.57,-335.07C374.89,-387.4 256.43,-502.9 249.08,-510.07"/>
</g>
<!-- impact environnemental&#45;&#45;procédé industriel -->
<g id="edge64" class="edge">
<title>impact environnemental&#45;&#45;procédé industriel</title>
<path fill="none" stroke="darkgrey" stroke-width="1.09" d="M420.68,-321.72C353.9,-345.47 209.86,-396.71 185.6,-405.34"/>
</g>
<!-- impact environnemental&#45;&#45;danger -->
<g id="edge65" class="edge">
<title>impact environnemental&#45;&#45;danger</title>
<path fill="none" stroke="darkgrey" stroke-width="1.39" d="M424.47,-289.89C363.61,-250.06 231.04,-163.31 220.78,-156.6"/>
</g>
<!-- impact environnemental&#45;&#45;transition -->
<g id="edge66" class="edge">
<title>impact environnemental&#45;&#45;transition</title>
<path fill="none" stroke="darkgrey" stroke-width="1.04" d="M444.55,-274.92C426.2,-211.8 388.92,-83.63 385.47,-71.75"/>
</g>
<!-- impact environnemental&#45;&#45;épuisement de la ressource -->
<g id="edge67" class="edge">
<title>impact environnemental&#45;&#45;épuisement de la ressource</title>
<path fill="none" stroke="darkgrey" stroke-width="1.4" d="M434.2,-279.74C389.96,-215.07 288.85,-67.24 282.57,-58.07"/>
</g>
<!-- conflit&#45;&#45;revenu -->
<g id="edge69" class="edge">
<title>conflit&#45;&#45;revenu</title>
<path fill="none" stroke="darkgrey" stroke-width="1.29" d="M649.97,-144.83C662.54,-161.97 689.28,-198.43 699.62,-212.54"/>
</g>
<!-- revenu&#45;&#45;nickel -->
<g id="edge70" class="edge">
<title>revenu&#45;&#45;nickel</title>
<path fill="none" stroke="darkgrey" stroke-width="2.12" d="M699.13,-223.47C681.1,-243.38 615.93,-315.31 586.38,-347.93"/>
</g>
<!-- nickel&#45;&#45;milieu -->
<g id="edge71" class="edge">
<title>nickel&#45;&#45;milieu</title>
<path fill="none" stroke="darkgrey" stroke-width="1.09" d="M591.91,-371.37C637.2,-387.34 744.2,-425.05 764.66,-432.27"/>
</g>
<!-- nickel&#45;&#45;exploitation -->
<g id="edge72" class="edge">
<title>nickel&#45;&#45;exploitation</title>
<path fill="none" stroke="darkgrey" stroke-width="2.75" d="M554.96,-350.63C544.11,-341.79 530.41,-330.61 521.65,-323.47"/>
</g>
<!-- nickel&#45;&#45;montagne -->
<g id="edge73" class="edge">
<title>nickel&#45;&#45;montagne</title>
<path fill="none" stroke="darkgrey" stroke-width="1.92" d="M592.4,-370.2C622.11,-378.75 675.21,-394.02 694.07,-399.45"/>
</g>
<!-- nickel&#45;&#45;engin -->
<g id="edge75" class="edge">
<title>nickel&#45;&#45;engin</title>
<path fill="none" stroke="darkgrey" stroke-width="3.39" d="M571.93,-386.03C572.1,-398.02 572.3,-412.39 572.43,-422.08"/>
</g>
<!-- nickel&#45;&#45;minerai -->
<g id="edge76" class="edge">
<title>nickel&#45;&#45;minerai</title>
<path fill="none" stroke="darkgrey" stroke-width="4.42" d="M585.19,-346.99C593.84,-335.99 604.93,-321.9 613.09,-311.54"/>
</g>
<!-- nickel&#45;&#45;terre -->
<g id="edge77" class="edge">
<title>nickel&#45;&#45;terre</title>
<path fill="none" stroke="darkgrey" stroke-width="2.85" d="M584.22,-381.89C598.01,-401.23 619.6,-431.51 630.38,-446.62"/>
</g>
<!-- nickel&#45;&#45;usine -->
<g id="edge79" class="edge">
<title>nickel&#45;&#45;usine</title>
<path fill="none" stroke="darkgrey" stroke-width="4.44" d="M560.03,-382.73C547.28,-403.09 527.14,-435.26 516.18,-452.77"/>
</g>
<!-- nickel&#45;&#45;vision positive de la ressource -->
<g id="edge81" class="edge">
<title>nickel&#45;&#45;vision positive de la ressource</title>
<path fill="none" stroke="darkgrey" stroke-width="1.66" d="M565.96,-343.4C555.24,-303.99 532.45,-220.23 525.76,-195.63"/>
</g>
<!-- nickel&#45;&#45;opérateur minier -->
<g id="edge80" class="edge">
<title>nickel&#45;&#45;opérateur minier</title>
<path fill="none" stroke="darkgrey" stroke-width="3.26" d="M569.41,-385.78C565.76,-421.22 558.64,-490.59 555.84,-517.79"/>
</g>
<!-- nickel&#45;&#45;commerce -->
<g id="edge82" class="edge">
<title>nickel&#45;&#45;commerce</title>
<path fill="none" stroke="darkgrey" stroke-width="1.64" d="M553.5,-376.43C518.61,-399.93 443.65,-450.42 422.16,-464.89"/>
</g>
<!-- nickel&#45;&#45;main d’oeuvre -->
<g id="edge74" class="edge">
<title>nickel&#45;&#45;main d’oeuvre</title>
<path fill="none" stroke="darkgrey" stroke-width="1.38" d="M554.05,-351.46C516.96,-324.52 432.72,-263.34 416,-251.19"/>
</g>
<!-- nickel&#45;&#45;description minière -->
<g id="edge78" class="edge">
<title>nickel&#45;&#45;description minière</title>
<path fill="none" stroke="darkgrey" stroke-width="1.07" d="M591.79,-356.15C646.6,-334.23 795.82,-274.54 819.94,-264.89"/>
</g>
<!-- nickel&#45;&#45;ressource non&#45;renouvelable -->
<g id="edge83" class="edge">
<title>nickel&#45;&#45;ressource non&#45;renouvelable</title>
<path fill="none" stroke="darkgrey" stroke-width="2.05" d="M584.41,-381.82C612.09,-419.93 676.45,-508.52 693.53,-532.04"/>
</g>
<!-- exploitation&#45;&#45;engin -->
<g id="edge85" class="edge">
<title>exploitation&#45;&#45;engin</title>
<path fill="none" stroke="darkgrey" stroke-width="1.76" d="M518.02,-326.31C529.29,-348.38 556.26,-401.18 567.52,-423.22"/>
</g>
<!-- exploitation&#45;&#45;minerai -->
<g id="edge86" class="edge">
<title>exploitation&#45;&#45;minerai</title>
<path fill="none" stroke="darkgrey" stroke-width="3.53" d="M524.02,-314.46C543.27,-311.16 583.06,-304.35 606.31,-300.37"/>
</g>
<!-- exploitation&#45;&#45;usine -->
<g id="edge87" class="edge">
<title>exploitation&#45;&#45;usine</title>
<path fill="none" stroke="darkgrey" stroke-width="1.94" d="M512.59,-327.53C511.8,-354.02 509.79,-420.6 508.89,-450.35"/>
</g>
<!-- exploitation&#45;&#45;vision positive de la ressource -->
<g id="edge88" class="edge">
<title>exploitation&#45;&#45;vision positive de la ressource</title>
<path fill="none" stroke="darkgrey" stroke-width="1.53" d="M513.9,-305.02C516.11,-279.27 521.45,-216.95 523.26,-195.83"/>
</g>
<!-- exploitation&#45;&#45;commerce -->
<g id="edge89" class="edge">
<title>exploitation&#45;&#45;commerce</title>
<path fill="none" stroke="darkgrey" stroke-width="1.6" d="M506.89,-325.89C488.71,-354.58 434.87,-439.53 420.09,-462.86"/>
</g>
<!-- exploitation&#45;&#45;main d’oeuvre -->
<g id="edge84" class="edge">
<title>exploitation&#45;&#45;main d’oeuvre</title>
<path fill="none" stroke="darkgrey" stroke-width="1.14" d="M503.72,-310.14C482.28,-295.7 429.86,-260.38 416.31,-251.25"/>
</g>
<!-- montagne&#45;&#45;engin -->
<g id="edge90" class="edge">
<title>montagne&#45;&#45;engin</title>
<path fill="none" stroke="darkgrey" stroke-width="1.51" d="M694.06,-403.14C672.91,-408.36 608.92,-424.18 583.33,-430.5"/>
</g>
<!-- montagne&#45;&#45;minerai -->
<g id="edge91" class="edge">
<title>montagne&#45;&#45;minerai</title>
<path fill="none" stroke="darkgrey" stroke-width="1.75" d="M696.62,-395.54C684.9,-379.61 652.35,-335.4 635.19,-312.1"/>
</g>
<!-- montagne&#45;&#45;terre -->
<g id="edge92" class="edge">
<title>montagne&#45;&#45;terre</title>
<path fill="none" stroke="darkgrey" stroke-width="1.4" d="M695.5,-406.07C684.38,-415.53 659,-437.11 645.61,-448.49"/>
</g>
<!-- engin&#45;&#45;minerai -->
<g id="edge95" class="edge">
<title>engin&#45;&#45;minerai</title>
<path fill="none" stroke="darkgrey" stroke-width="2.73" d="M576.65,-422.49C585.6,-398.97 607.1,-342.48 617.89,-314.12"/>
</g>
<!-- engin&#45;&#45;terre -->
<g id="edge96" class="edge">
<title>engin&#45;&#45;terre</title>
<path fill="none" stroke="darkgrey" stroke-width="2.14" d="M583.22,-436.9C595.22,-441.13 614.61,-447.97 626.53,-452.17"/>
</g>
<!-- engin&#45;&#45;usine -->
<g id="edge97" class="edge">
<title>engin&#45;&#45;usine</title>
<path fill="none" stroke="darkgrey" stroke-width="2.29" d="M562.57,-438.15C551.58,-443.63 533.88,-452.44 521.74,-458.49"/>
</g>
<!-- engin&#45;&#45;opérateur minier -->
<g id="edge98" class="edge">
<title>engin&#45;&#45;opérateur minier</title>
<path fill="none" stroke="darkgrey" stroke-width="1.38" d="M570.54,-444.16C567.08,-462.67 560.15,-499.81 556.71,-518.24"/>
</g>
<!-- minerai&#45;&#45;terre -->
<g id="edge99" class="edge">
<title>minerai&#45;&#45;terre</title>
<path fill="none" stroke="darkgrey" stroke-width="1.81" d="M625.75,-315.48C628.39,-348.51 633.89,-417.42 636.05,-444.54"/>
</g>
<!-- minerai&#45;&#45;usine -->
<g id="edge101" class="edge">
<title>minerai&#45;&#45;usine</title>
<path fill="none" stroke="darkgrey" stroke-width="2.89" d="M614.02,-312.19C591.42,-344.92 537.8,-422.6 516.95,-452.8"/>
</g>
<!-- minerai&#45;&#45;vision positive de la ressource -->
<g id="edge104" class="edge">
<title>minerai&#45;&#45;vision positive de la ressource</title>
<path fill="none" stroke="darkgrey" stroke-width="1.3" d="M611.98,-283.98C589.78,-259.96 543.93,-210.38 528.82,-194.05"/>
</g>
<!-- minerai&#45;&#45;opérateur minier -->
<g id="edge102" class="edge">
<title>minerai&#45;&#45;opérateur minier</title>
<path fill="none" stroke="darkgrey" stroke-width="1.88" d="M619.06,-314.72C605.4,-360.21 568.96,-481.57 557.9,-518.38"/>
</g>
<!-- minerai&#45;&#45;description minière -->
<g id="edge100" class="edge">
<title>minerai&#45;&#45;description minière</title>
<path fill="none" stroke="darkgrey" stroke-width="1.1" d="M642.3,-294.24C686.49,-286.75 798.26,-267.8 819.67,-264.17"/>
</g>
<!-- minerai&#45;&#45;ressource non&#45;renouvelable -->
<g id="edge105" class="edge">
<title>minerai&#45;&#45;ressource non&#45;renouvelable</title>
<path fill="none" stroke="darkgrey" stroke-width="1.73" d="M629.58,-314.59C644.38,-363.07 685.83,-498.8 695.65,-530.96"/>
</g>
<!-- minerai&#45;&#45;nouvelle&#45;calédonie -->
<g id="edge103" class="edge">
<title>minerai&#45;&#45;nouvelle&#45;calédonie</title>
<path fill="none" stroke="darkgrey" stroke-width="1.12" d="M627.24,-279.17C637.39,-216.75 670.41,-13.74 672.46,-1.12"/>
</g>
<!-- terre&#45;&#45;usine -->
<g id="edge106" class="edge">
<title>terre&#45;&#45;usine</title>
<path fill="none" stroke="darkgrey" stroke-width="1.61" d="M625.55,-456.67C602.21,-458.35 549.01,-462.19 523.13,-464.06"/>
</g>
<!-- terre&#45;&#45;opérateur minier -->
<g id="edge107" class="edge">
<title>terre&#45;&#45;opérateur minier</title>
<path fill="none" stroke="darkgrey" d="M628.46,-463.41C612.7,-477.45 579.08,-507.39 563.25,-521.48"/>
</g>
<!-- usine&#45;&#45;opérateur minier -->
<g id="edge108" class="edge">
<title>usine&#45;&#45;opérateur minier</title>
<path fill="none" stroke="darkgrey" stroke-width="3.38" d="M517.14,-477.16C526.14,-489.61 539.99,-508.79 548.11,-520.03"/>
</g>
<!-- usine&#45;&#45;commerce -->
<g id="edge110" class="edge">
<title>usine&#45;&#45;commerce</title>
<path fill="none" stroke="darkgrey" stroke-width="1.29" d="M493.64,-465.72C473.5,-466.53 438.25,-467.96 423.31,-468.56"/>
</g>
<!-- usine&#45;&#45;ressource non&#45;renouvelable -->
<g id="edge112" class="edge">
<title>usine&#45;&#45;ressource non&#45;renouvelable</title>
<path fill="none" stroke="darkgrey" stroke-width="1.02" d="M522.06,-470.35C559.54,-484.75 663.25,-524.59 690.9,-535.22"/>
</g>
<!-- usine&#45;&#45;localité -->
<g id="edge109" class="edge">
<title>usine&#45;&#45;localité</title>
<path fill="none" stroke="darkgrey" stroke-width="1.75" d="M502.64,-478.56C486.41,-516.08 441.25,-620.54 432.58,-640.58"/>
</g>
<!-- usine&#45;&#45;métallurgie -->
<g id="edge111" class="edge">
<title>usine&#45;&#45;métallurgie</title>
<path fill="none" stroke="darkgrey" stroke-width="1.1" d="M503.66,-478.99C484.77,-533.66 416.28,-731.86 412.02,-744.2"/>
</g>
<!-- changement climatique&#45;&#45;impact environnemental -->
<g id="edge18" class="edge">
<title>changement climatique&#45;&#45;impact environnemental</title>
<path fill="none" stroke="darkgrey" stroke-width="1.19" d="M143.01,-268.4C153.95,-269.84 339.37,-294.38 418.9,-304.91"/>
</g>
<!-- opérateur minier&#45;&#45;localité -->
<g id="edge113" class="edge">
<title>opérateur minier&#45;&#45;localité</title>
<path fill="none" stroke="darkgrey" stroke-width="1.2" d="M546.57,-536.65C521.88,-559.6 448.37,-627.91 433.7,-641.55"/>
</g>
<!-- main d’oeuvre&#45;&#45;minerai -->
<g id="edge93" class="edge">
<title>main d’oeuvre&#45;&#45;minerai</title>
<path fill="none" stroke="darkgrey" stroke-width="1.29" d="M416.74,-249.9C439.37,-255.07 560.54,-282.74 606.55,-293.24"/>
</g>
<!-- main d’oeuvre&#45;&#45;usine -->
<g id="edge94" class="edge">
<title>main d’oeuvre&#45;&#45;usine</title>
<path fill="none" stroke="darkgrey" stroke-width="1.41" d="M414.58,-252.46C424.72,-275.44 483.5,-408.6 502.52,-451.68"/>
</g>
<!-- pollution -->
<g id="node1" class="node">
<title>pollution</title>
<ellipse fill="#cb4149" stroke="white" stroke-width="0" cx="680.84" cy="-319.57" rx="21.5" ry="21.5"/>
<text text-anchor="middle" x="706.34" y="-347.79" font-family="Helvetica,sans-Serif" font-size="21.60" fill="#4d4d4d">pollution</text>
</g>
<!-- emploi -->
<g id="node2" class="node">
<title>emploi</title>
<ellipse fill="#e35933" stroke="white" stroke-width="0" cx="615.05" cy="-356.49" rx="21.5" ry="21.5"/>
<text text-anchor="middle" x="630.55" y="-384.71" font-family="Helvetica,sans-Serif" font-size="21.60" fill="#4d4d4d">emploi</text>
</g>
<!-- économie du pays -->
<g id="node3" class="node">
<title>économie du pays</title>
<ellipse fill="#801f6c" stroke="white" stroke-width="0" cx="567.81" cy="-267.16" rx="14.5" ry="14.5"/>
<text text-anchor="middle" x="467.81" y="-257.94" font-family="Helvetica,sans-Serif" font-size="18.40" fill="#4d4d4d">économie du pays</text>
</g>
<!-- richesse -->
<g id="node4" class="node">
<title>richesse</title>
<ellipse fill="#360961" stroke="white" stroke-width="0" cx="617.01" cy="-201.77" rx="7" ry="7"/>
<text text-anchor="middle" x="578.01" y="-213.61" font-family="Helvetica,sans-Serif" font-size="15.20" fill="#4d4d4d">richesse</text>
</g>
<!-- impact environnemental -->
<g id="node5" class="node">
<title>impact environnemental</title>
<ellipse fill="#fcffa4" stroke="white" stroke-width="0" cx="454.65" cy="-309.64" rx="36" ry="36"/>
<text text-anchor="middle" x="246.15" y="-354.24" font-family="Helvetica,sans-Serif" font-size="28.00" fill="#4d4d4d">impact environnemental</text>
</g>
<!-- conflit -->
<g id="node6" class="node">
<title>conflit</title>
<ellipse fill="#520e6d" stroke="white" stroke-width="0" cx="643.25" cy="-135.67" rx="11" ry="11"/>
<text text-anchor="middle" x="606.25" y="-151.23" font-family="Helvetica,sans-Serif" font-size="16.80" fill="#4d4d4d">conflit</text>
</g>
<!-- revenu -->
<g id="node7" class="node">
<title>revenu</title>
<ellipse fill="#3e0966" stroke="white" stroke-width="0" cx="703.83" cy="-218.28" rx="7" ry="7"/>
<text text-anchor="middle" x="670.33" y="-230.12" font-family="Helvetica,sans-Serif" font-size="15.20" fill="#4d4d4d">revenu</text>
</g>
<!-- nickel -->
<g id="node8" class="node">
<title>nickel</title>
<ellipse fill="#d74b3f" stroke="white" stroke-width="0" cx="571.62" cy="-364.22" rx="21.5" ry="21.5"/>
<text text-anchor="middle" x="518.62" y="-392.44" font-family="Helvetica,sans-Serif" font-size="21.60" fill="#4d4d4d">nickel</text>
</g>
<!-- milieu -->
<g id="node9" class="node">
<title>milieu</title>
<ellipse fill="#120a32" stroke="white" stroke-width="0" cx="768.08" cy="-433.47" rx="3.5" ry="3.5"/>
<text text-anchor="middle" x="743.58" y="-441.09" font-family="Helvetica,sans-Serif" font-size="13.60" fill="#4d4d4d">milieu</text>
</g>
<!-- exploitation -->
<g id="node10" class="node">
<title>exploitation</title>
<ellipse fill="#771c6d" stroke="white" stroke-width="0" cx="512.93" cy="-316.35" rx="11" ry="11"/>
<text text-anchor="middle" x="551.93" y="-291.91" font-family="Helvetica,sans-Serif" font-size="16.80" fill="#4d4d4d">exploitation</text>
</g>
<!-- montagne -->
<g id="node11" class="node">
<title>montagne</title>
<ellipse fill="#2f0a5b" stroke="white" stroke-width="0" cx="700.96" cy="-401.43" rx="7" ry="7"/>
<text text-anchor="middle" x="654.96" y="-413.27" font-family="Helvetica,sans-Serif" font-size="15.20" fill="#4d4d4d">montagne</text>
</g>
<!-- biodiversité -->
<g id="node12" class="node">
<title>biodiversité</title>
<ellipse fill="#0b0724" stroke="white" stroke-width="0" cx="961.89" cy="-334.92" rx="3.5" ry="3.5"/>
<text text-anchor="middle" x="918.39" y="-342.54" font-family="Helvetica,sans-Serif" font-size="13.60" fill="#4d4d4d">biodiversité</text>
</g>
<!-- développement -->
<g id="node13" class="node">
<title>développement</title>
<ellipse fill="#190c3e" stroke="white" stroke-width="0" cx="431.93" cy="-390.64" rx="3.5" ry="3.5"/>
<text text-anchor="middle" x="374.43" y="-398.26" font-family="Helvetica,sans-Serif" font-size="13.60" fill="#4d4d4d">développement</text>
</g>
<!-- engin -->
<g id="node14" class="node">
<title>engin</title>
<ellipse fill="#6c186e" stroke="white" stroke-width="0" cx="572.59" cy="-433.16" rx="11" ry="11"/>
<text text-anchor="middle" x="538.09" y="-426.72" font-family="Helvetica,sans-Serif" font-size="16.80" fill="#4d4d4d">engin</text>
</g>
<!-- minerai -->
<g id="node15" class="node">
<title>minerai</title>
<ellipse fill="#ab2f5e" stroke="white" stroke-width="0" cx="624.3" cy="-297.29" rx="18" ry="18"/>
<text text-anchor="middle" x="644.3" y="-263.29" font-family="Helvetica,sans-Serif" font-size="20.00" fill="#4d4d4d">minerai</text>
</g>
<!-- terre -->
<g id="node16" class="node">
<title>terre</title>
<ellipse fill="#550f6d" stroke="white" stroke-width="0" cx="636.96" cy="-455.85" rx="11" ry="11"/>
<text text-anchor="middle" x="604.96" y="-471.41" font-family="Helvetica,sans-Serif" font-size="16.80" fill="#4d4d4d">terre</text>
</g>
<!-- usine -->
<g id="node17" class="node">
<title>usine</title>
<ellipse fill="#7d1e6d" stroke="white" stroke-width="0" cx="508.45" cy="-465.12" rx="14.5" ry="14.5"/>
<text text-anchor="middle" x="468.45" y="-484.9" font-family="Helvetica,sans-Serif" font-size="18.40" fill="#4d4d4d">usine</text>
</g>
<!-- vision positive de la ressource -->
<g id="node18" class="node">
<title>vision positive de la ressource</title>
<ellipse fill="#280b53" stroke="white" stroke-width="0" cx="523.87" cy="-188.7" rx="7" ry="7"/>
<text text-anchor="middle" x="402.37" y="-200.54" font-family="Helvetica,sans-Serif" font-size="15.20" fill="#4d4d4d">vision positive de la ressource</text>
</g>
<!-- changement climatique -->
<g id="node19" class="node">
<title>changement climatique</title>
<ellipse fill="#010005" stroke="white" stroke-width="0" cx="142.5" cy="-268.33" rx="0.5" ry="0.5"/>
<text text-anchor="middle" x="71" y="-272.23" font-family="Helvetica,sans-Serif" font-size="12.00" fill="#4d4d4d">changement climatique</text>
</g>
<!-- opérateur minier -->
<g id="node20" class="node">
<title>opérateur minier</title>
<ellipse fill="#71196e" stroke="white" stroke-width="0" cx="554.68" cy="-529.12" rx="11" ry="11"/>
<text text-anchor="middle" x="472.68" y="-544.68" font-family="Helvetica,sans-Serif" font-size="16.80" fill="#4d4d4d">opérateur minier</text>
</g>
<!-- commerce -->
<g id="node21" class="node">
<title>commerce</title>
<ellipse fill="#310a5c" stroke="white" stroke-width="0" cx="416.3" cy="-468.84" rx="7" ry="7"/>
<text text-anchor="middle" x="369.3" y="-480.68" font-family="Helvetica,sans-Serif" font-size="15.20" fill="#4d4d4d">commerce</text>
</g>
<!-- amélioration environnementale -->
<g id="node22" class="node">
<title>amélioration environnementale</title>
<ellipse fill="#050417" stroke="white" stroke-width="0" cx="244.46" cy="-289.96" rx="3.5" ry="3.5"/>
<text text-anchor="middle" x="134.96" y="-297.58" font-family="Helvetica,sans-Serif" font-size="13.60" fill="#4d4d4d">amélioration environnementale</text>
</g>
<!-- industrie -->
<g id="node23" class="node">
<title>industrie</title>
<ellipse fill="#02020c" stroke="white" stroke-width="0" cx="248.72" cy="-510.42" rx="0.5" ry="0.5"/>
<text text-anchor="middle" x="222.22" y="-514.32" font-family="Helvetica,sans-Serif" font-size="12.00" fill="#4d4d4d">industrie</text>
</g>
<!-- procédé industriel -->
<g id="node24" class="node">
<title>procédé industriel</title>
<ellipse fill="#040312" stroke="white" stroke-width="0" cx="182.1" cy="-406.58" rx="3.5" ry="3.5"/>
<text text-anchor="middle" x="117.1" y="-414.2" font-family="Helvetica,sans-Serif" font-size="13.60" fill="#4d4d4d">procédé industriel</text>
</g>
<!-- danger -->
<g id="node25" class="node">
<title>danger</title>
<ellipse fill="#02020e" stroke="white" stroke-width="0" cx="220.14" cy="-156.18" rx="0.5" ry="0.5"/>
<text text-anchor="middle" x="198.14" y="-160.08" font-family="Helvetica,sans-Serif" font-size="12.00" fill="#4d4d4d">danger</text>
</g>
<!-- transition -->
<g id="node26" class="node">
<title>transition</title>
<ellipse fill="#000004" stroke="white" stroke-width="0" cx="385.21" cy="-70.87" rx="0.5" ry="0.5"/>
<text text-anchor="middle" x="356.21" y="-74.77" font-family="Helvetica,sans-Serif" font-size="12.00" fill="#4d4d4d">transition</text>
</g>
<!-- épuisement de la ressource -->
<g id="node27" class="node">
<title>épuisement de la ressource</title>
<ellipse fill="#02010a" stroke="white" stroke-width="0" cx="282.26" cy="-57.62" rx="0.5" ry="0.5"/>
<text text-anchor="middle" x="198.76" y="-61.52" font-family="Helvetica,sans-Serif" font-size="12.00" fill="#4d4d4d">épuisement de la ressource</text>
</g>
<!-- main d’oeuvre -->
<g id="node28" class="node">
<title>main d’oeuvre</title>
<ellipse fill="#210c4a" stroke="white" stroke-width="0" cx="413.08" cy="-249.07" rx="3.5" ry="3.5"/>
<text text-anchor="middle" x="360.08" y="-234.69" font-family="Helvetica,sans-Serif" font-size="13.60" fill="#4d4d4d">main d’oeuvre</text>
</g>
<!-- description minière -->
<g id="node29" class="node">
<title>description minière</title>
<ellipse fill="#110a30" stroke="white" stroke-width="0" cx="823.25" cy="-263.57" rx="3.5" ry="3.5"/>
<text text-anchor="middle" x="754.25" y="-271.19" font-family="Helvetica,sans-Serif" font-size="13.60" fill="#4d4d4d">description minière</text>
</g>
<!-- ressource non&#45;renouvelable -->
<g id="node30" class="node">
<title>ressource non&#45;renouvelable</title>
<ellipse fill="#240c4f" stroke="white" stroke-width="0" cx="697.76" cy="-537.85" rx="7" ry="7"/>
<text text-anchor="middle" x="796.26" y="-549.69" font-family="Helvetica,sans-Serif" font-size="15.20" fill="#4d4d4d">ressource non&#45;renouvelable</text>
</g>
<!-- nouvelle&#45;calédonie -->
<g id="node31" class="node">
<title>nouvelle&#45;calédonie</title>
<ellipse fill="#030210" stroke="white" stroke-width="0" cx="672.56" cy="-0.5" rx="0.5" ry="0.5"/>
<text text-anchor="middle" x="615.56" y="-4.4" font-family="Helvetica,sans-Serif" font-size="12.00" fill="#4d4d4d">nouvelle&#45;calédonie</text>
</g>
<!-- localité -->
<g id="node32" class="node">
<title>localité</title>
<ellipse fill="#10092d" stroke="white" stroke-width="0" cx="431.13" cy="-643.93" rx="3.5" ry="3.5"/>
<text text-anchor="middle" x="403.13" y="-651.55" font-family="Helvetica,sans-Serif" font-size="13.60" fill="#4d4d4d">localité</text>
</g>
<!-- métallurgie -->
<g id="node33" class="node">
<title>métallurgie</title>
<ellipse fill="#030210" stroke="white" stroke-width="0" cx="411.81" cy="-744.8" rx="0.5" ry="0.5"/>
<text text-anchor="middle" x="377.31" y="-748.7" font-family="Helvetica,sans-Serif" font-size="12.00" fill="#4d4d4d">métallurgie</text>
</g>
</g>
</svg>
