<?xml version="1.0" encoding="UTF-8" standalone="no"?>
<!DOCTYPE svg PUBLIC "-//W3C//DTD SVG 1.1//EN"
 "http://www.w3.org/Graphics/SVG/1.1/DTD/svg11.dtd">
<!-- Generated by graphviz version 2.43.0 (0)
 -->
<!-- Pages: 1 -->
<svg width="1012pt" height="664pt"
 viewBox="0.00 0.00 1012.15 663.68" xmlns="http://www.w3.org/2000/svg" xmlns:xlink="http://www.w3.org/1999/xlink">
<g id="graph0" class="graph" transform="scale(1 1) rotate(0) translate(4 659.68)">
<polygon fill="white" stroke="transparent" points="-4,4 -4,-659.68 1008.15,-659.68 1008.15,4 -4,4"/>
<!-- pollution&#45;&#45;emploi -->
<g id="edge1" class="edge">
<title>pollution&#45;&#45;emploi</title>
<path fill="none" stroke="darkgrey" stroke-width="10" d="M612.07,-329.23C607.17,-325.22 601.94,-320.93 596.87,-316.78"/>
</g>
<!-- pollution&#45;&#45;richesse -->
<g id="edge2" class="edge">
<title>pollution&#45;&#45;richesse</title>
<path fill="none" stroke="darkgrey" stroke-width="1.8" d="M607.54,-359.24C559.83,-379.48 462.9,-420.6 430.99,-434.13"/>
</g>
<!-- pollution&#45;&#45;démolition -->
<g id="edge3" class="edge">
<title>pollution&#45;&#45;démolition</title>
<path fill="none" stroke="darkgrey" stroke-width="2.89" d="M662.01,-337.37C708.8,-319.64 801.66,-284.45 827.53,-274.64"/>
</g>
<!-- pollution&#45;&#45;argent -->
<g id="edge4" class="edge">
<title>pollution&#45;&#45;argent</title>
<path fill="none" stroke="darkgrey" stroke-width="1.73" d="M616.09,-370.41C578.42,-416.43 494.84,-518.52 474.53,-543.33"/>
</g>
<!-- pollution&#45;&#45;nickel -->
<g id="edge5" class="edge">
<title>pollution&#45;&#45;nickel</title>
<path fill="none" stroke="darkgrey" stroke-width="5.07" d="M605.42,-347.36C551.78,-346.68 438.03,-345.24 381.77,-344.53"/>
</g>
<!-- pollution&#45;&#45;exploitation -->
<g id="edge6" class="edge">
<title>pollution&#45;&#45;exploitation</title>
<path fill="none" stroke="darkgrey" stroke-width="1.63" d="M612.65,-328.73C566.11,-288.55 459.17,-196.22 424.56,-166.34"/>
</g>
<!-- pollution&#45;&#45;montagne -->
<g id="edge7" class="edge">
<title>pollution&#45;&#45;montagne</title>
<path fill="none" stroke="darkgrey" stroke-width="1.16" d="M628.02,-375.99C612.74,-440.96 575.8,-598.04 567.63,-632.8"/>
</g>
<!-- pollution&#45;&#45;camion -->
<g id="edge8" class="edge">
<title>pollution&#45;&#45;camion</title>
<path fill="none" stroke="darkgrey" stroke-width="1.94" d="M628.33,-319.05C617.32,-269.2 595.13,-168.73 587.83,-135.67"/>
</g>
<!-- pollution&#45;&#45;économie -->
<g id="edge9" class="edge">
<title>pollution&#45;&#45;économie</title>
<path fill="none" stroke="darkgrey" stroke-width="4.67" d="M610.47,-363.8C587.84,-378.84 554.75,-400.82 535.67,-413.49"/>
</g>
<!-- pollution&#45;&#45;impact environnemental -->
<g id="edge10" class="edge">
<title>pollution&#45;&#45;impact environnemental</title>
<path fill="none" stroke="darkgrey" stroke-width="4.2" d="M607.17,-338.3C569.39,-325.35 502.52,-302.42 471.01,-291.62"/>
</g>
<!-- pollution&#45;&#45;terre -->
<g id="edge11" class="edge">
<title>pollution&#45;&#45;terre</title>
<path fill="none" stroke="darkgrey" stroke-width="1.1" d="M629.09,-376.34C621.39,-415.93 607.95,-485.04 603.65,-507.14"/>
</g>
<!-- pollution&#45;&#45;usine -->
<g id="edge12" class="edge">
<title>pollution&#45;&#45;usine</title>
<path fill="none" stroke="darkgrey" stroke-width="1.1" d="M620.72,-322.1C585.85,-257.99 496.32,-93.35 477.82,-59.34"/>
</g>
<!-- pollution&#45;&#45;conflit -->
<g id="edge13" class="edge">
<title>pollution&#45;&#45;conflit</title>
<path fill="none" stroke="darkgrey" stroke-width="1.24" d="M651.25,-323.87C683.57,-277.36 752.98,-177.5 765.71,-159.19"/>
</g>
<!-- pollution&#45;&#45;développement -->
<g id="edge14" class="edge">
<title>pollution&#45;&#45;développement</title>
<path fill="none" stroke="darkgrey" stroke-width="1.52" d="M662.09,-358.08C744.93,-389.32 987.81,-480.91 1002.91,-486.61"/>
</g>
<!-- pollution&#45;&#45;déforestation -->
<g id="edge15" class="edge">
<title>pollution&#45;&#45;déforestation</title>
<path fill="none" stroke="darkgrey" stroke-width="1.66" d="M661.76,-358.85C703.39,-375.93 780.08,-407.39 797.48,-414.53"/>
</g>
<!-- emploi&#45;&#45;richesse -->
<g id="edge16" class="edge">
<title>emploi&#45;&#45;richesse</title>
<path fill="none" stroke="darkgrey" stroke-width="3.22" d="M543.15,-319.15C508.75,-352.65 449.82,-410.05 428.52,-430.8"/>
</g>
<!-- emploi&#45;&#45;démolition -->
<g id="edge17" class="edge">
<title>emploi&#45;&#45;démolition</title>
<path fill="none" stroke="darkgrey" stroke-width="1.51" d="M605.07,-290.99C668.27,-285.77 795.35,-275.28 827.06,-272.66"/>
</g>
<!-- emploi&#45;&#45;argent -->
<g id="edge18" class="edge">
<title>emploi&#45;&#45;argent</title>
<path fill="none" stroke="darkgrey" stroke-width="2.74" d="M555.97,-327.55C532.45,-388.1 484.29,-512.11 472.61,-542.17"/>
</g>
<!-- emploi&#45;&#45;nickel -->
<g id="edge19" class="edge">
<title>emploi&#45;&#45;nickel</title>
<path fill="none" stroke="darkgrey" stroke-width="6.41" d="M533.64,-302.02C491.34,-311.66 421.17,-327.64 380.56,-336.89"/>
</g>
<!-- emploi&#45;&#45;exploitation -->
<g id="edge20" class="edge">
<title>emploi&#45;&#45;exploitation</title>
<path fill="none" stroke="darkgrey" stroke-width="1.47" d="M541.93,-270.07C507.3,-239.53 448.92,-188.04 424.64,-166.62"/>
</g>
<!-- emploi&#45;&#45;camion -->
<g id="edge21" class="edge">
<title>emploi&#45;&#45;camion</title>
<path fill="none" stroke="darkgrey" d="M572.5,-258.1C576.25,-219.51 581.99,-160.39 584.36,-135.98"/>
</g>
<!-- emploi&#45;&#45;économie -->
<g id="edge22" class="edge">
<title>emploi&#45;&#45;économie</title>
<path fill="none" stroke="darkgrey" stroke-width="7.06" d="M556.29,-328C546.87,-353.19 534.44,-386.45 527.01,-406.34"/>
</g>
<!-- emploi&#45;&#45;impact environnemental -->
<g id="edge23" class="edge">
<title>emploi&#45;&#45;impact environnemental</title>
<path fill="none" stroke="darkgrey" stroke-width="5.5" d="M532.83,-291.36C512.47,-289.9 487.95,-288.13 471.65,-286.96"/>
</g>
<!-- emploi&#45;&#45;terre -->
<g id="edge24" class="edge">
<title>emploi&#45;&#45;terre</title>
<path fill="none" stroke="darkgrey" stroke-width="1.09" d="M574.43,-329.83C582.5,-383.2 597.15,-480.15 601.21,-507.06"/>
</g>
<!-- emploi&#45;&#45;conflit -->
<g id="edge26" class="edge">
<title>emploi&#45;&#45;conflit</title>
<path fill="none" stroke="darkgrey" stroke-width="2.32" d="M598.76,-273.35C648.78,-238.69 746.11,-171.25 764.64,-158.41"/>
</g>
<!-- emploi&#45;&#45;déforestation -->
<g id="edge27" class="edge">
<title>emploi&#45;&#45;déforestation</title>
<path fill="none" stroke="darkgrey" stroke-width="1.12" d="M601.28,-310.93C659.06,-341.32 776.19,-402.92 797.64,-414.21"/>
</g>
<!-- emploi&#45;&#45;ressource -->
<g id="edge25" class="edge">
<title>emploi&#45;&#45;ressource</title>
<path fill="none" stroke="darkgrey" stroke-width="1.24" d="M537.71,-275.98C471.81,-238.13 322.18,-152.17 290.23,-133.82"/>
</g>
<!-- richesse&#45;&#45;nickel -->
<g id="edge28" class="edge">
<title>richesse&#45;&#45;nickel</title>
<path fill="none" stroke="darkgrey" stroke-width="1.76" d="M413.67,-429.51C403.44,-416.03 383.79,-390.15 368.8,-370.4"/>
</g>
<!-- richesse&#45;&#45;économie -->
<g id="edge29" class="edge">
<title>richesse&#45;&#45;économie</title>
<path fill="none" stroke="darkgrey" stroke-width="1.25" d="M431.63,-436.9C448.83,-434.31 482.09,-429.31 502.71,-426.2"/>
</g>
<!-- richesse&#45;&#45;impact environnemental -->
<g id="edge30" class="edge">
<title>richesse&#45;&#45;impact environnemental</title>
<path fill="none" stroke="darkgrey" stroke-width="1.43" d="M422.92,-427.57C428.59,-401.41 442.9,-335.29 449.81,-303.4"/>
</g>
<!-- argent&#45;&#45;nickel -->
<g id="edge31" class="edge">
<title>argent&#45;&#45;nickel</title>
<path fill="none" stroke="darkgrey" stroke-width="2.33" d="M466.26,-542.48C451.12,-516.91 394.06,-420.5 365.44,-372.14"/>
</g>
<!-- nickel&#45;&#45;exploitation -->
<g id="edge32" class="edge">
<title>nickel&#45;&#45;exploitation</title>
<path fill="none" stroke="darkgrey" stroke-width="2.59" d="M359.53,-313.19C373.74,-272.04 398.27,-201.01 408.66,-170.93"/>
</g>
<!-- nickel&#45;&#45;montagne -->
<g id="edge33" class="edge">
<title>nickel&#45;&#45;montagne</title>
<path fill="none" stroke="darkgrey" stroke-width="1.79" d="M368.12,-370.34C415.87,-435.33 537.55,-600.95 561.78,-633.92"/>
</g>
<!-- nickel&#45;&#45;camion -->
<g id="edge34" class="edge">
<title>nickel&#45;&#45;camion</title>
<path fill="none" stroke="darkgrey" stroke-width="3.05" d="M372.84,-321.88C424.53,-273.98 544.39,-162.89 577.08,-132.6"/>
</g>
<!-- nickel&#45;&#45;économie -->
<g id="edge35" class="edge">
<title>nickel&#45;&#45;économie</title>
<path fill="none" stroke="darkgrey" stroke-width="3.44" d="M378.37,-357.76C414.63,-374.52 474.87,-402.37 503.91,-415.8"/>
</g>
<!-- nickel&#45;&#45;impact environnemental -->
<g id="edge36" class="edge">
<title>nickel&#45;&#45;impact environnemental</title>
<path fill="none" stroke="darkgrey" stroke-width="2.47" d="M377.49,-328.14C396.88,-317.33 421.78,-303.44 437.73,-294.54"/>
</g>
<!-- nickel&#45;&#45;terre -->
<g id="edge39" class="edge">
<title>nickel&#45;&#45;terre</title>
<path fill="none" stroke="darkgrey" stroke-width="1.02" d="M375.97,-362.31C433.94,-401.21 567.05,-490.51 596.46,-510.24"/>
</g>
<!-- nickel&#45;&#45;usine -->
<g id="edge40" class="edge">
<title>nickel&#45;&#45;usine</title>
<path fill="none" stroke="darkgrey" stroke-width="2.78" d="M361.82,-314.07C390.27,-248.15 456.82,-93.97 471.53,-59.88"/>
</g>
<!-- nickel&#45;&#45;ressource -->
<g id="edge42" class="edge">
<title>nickel&#45;&#45;ressource</title>
<path fill="none" stroke="darkgrey" stroke-width="1.02" d="M339.31,-312.57C323.84,-261.46 294.23,-163.61 286.21,-137.1"/>
</g>
<!-- nickel&#45;&#45;roche -->
<g id="edge37" class="edge">
<title>nickel&#45;&#45;roche</title>
<path fill="none" stroke="darkgrey" stroke-width="1.47" d="M328.82,-370.29C289.52,-421.66 204.36,-532.97 184.31,-559.17"/>
</g>
<!-- nickel&#45;&#45;terre rouge -->
<g id="edge38" class="edge">
<title>nickel&#45;&#45;terre rouge</title>
<path fill="none" stroke="darkgrey" stroke-width="1.67" d="M317.15,-336.93C251.64,-322.09 105.38,-288.94 80.73,-283.36"/>
</g>
<!-- nickel&#45;&#45;sln -->
<g id="edge41" class="edge">
<title>nickel&#45;&#45;sln</title>
<path fill="none" stroke="darkgrey" stroke-width="3.34" d="M316.72,-350.29C243.02,-364.46 65.24,-398.64 27.23,-405.94"/>
</g>
<!-- nickel&#45;&#45;usine du sud -->
<g id="edge43" class="edge">
<title>nickel&#45;&#45;usine du sud</title>
<path fill="none" stroke="darkgrey" stroke-width="1.04" d="M323.06,-364.06C256.49,-415.56 83.32,-549.51 72.56,-557.83"/>
</g>
<!-- nickel&#45;&#45;minerai -->
<g id="edge44" class="edge">
<title>nickel&#45;&#45;minerai</title>
<path fill="none" stroke="darkgrey" stroke-width="2.5" d="M342.06,-312.09C326.09,-236.82 286.89,-52.08 278.8,-13.95"/>
</g>
<!-- exploitation&#45;&#45;impact environnemental -->
<g id="edge45" class="edge">
<title>exploitation&#45;&#45;impact environnemental</title>
<path fill="none" stroke="darkgrey" stroke-width="1.66" d="M417.98,-171.1C425.4,-194.95 440.3,-242.79 448.29,-268.46"/>
</g>
<!-- exploitation&#45;&#45;ressource -->
<g id="edge46" class="edge">
<title>exploitation&#45;&#45;ressource</title>
<path fill="none" stroke="darkgrey" stroke-width="1.44" d="M399.19,-153.89C371.56,-148.23 311.86,-136 291.29,-131.79"/>
</g>
<!-- exploitation&#45;&#45;minerai -->
<g id="edge47" class="edge">
<title>exploitation&#45;&#45;minerai</title>
<path fill="none" stroke="darkgrey" stroke-width="2.01" d="M403.74,-146.05C376.77,-116.39 302.15,-34.31 282.25,-12.42"/>
</g>
<!-- camion&#45;&#45;usine -->
<g id="edge48" class="edge">
<title>camion&#45;&#45;usine</title>
<path fill="none" stroke="darkgrey" stroke-width="1.04" d="M575.98,-118.73C553.75,-104.37 498.71,-68.81 480.44,-57.01"/>
</g>
<!-- économie&#45;&#45;impact environnemental -->
<g id="edge49" class="edge">
<title>économie&#45;&#45;impact environnemental</title>
<path fill="none" stroke="darkgrey" stroke-width="5.56" d="M512.65,-407.16C499.76,-380.63 474.46,-328.51 461.58,-302"/>
</g>
<!-- usine&#45;&#45;minerai -->
<g id="edge50" class="edge">
<title>usine&#45;&#45;minerai</title>
<path fill="none" stroke="darkgrey" stroke-width="1.63" d="M467.43,-51.49C436.84,-44.33 315.29,-15.89 284.46,-8.67"/>
</g>
<!-- ressource&#45;&#45;minerai -->
<g id="edge51" class="edge">
<title>ressource&#45;&#45;minerai</title>
<path fill="none" stroke="darkgrey" stroke-width="1.08" d="M283.75,-122.99C282.53,-101 278.92,-35.89 277.72,-14.15"/>
</g>
<!-- pollution -->
<g id="node1" class="node">
<title>pollution</title>
<ellipse fill="#fb9b06" stroke="white" stroke-width="0" cx="634.66" cy="-347.73" rx="29" ry="29"/>
<text text-anchor="middle" x="587.16" y="-379.33" font-family="Helvetica,sans-Serif" font-size="8.00" fill="#4d4d4d">pollution</text>
</g>
<!-- emploi -->
<g id="node2" class="node">
<title>emploi</title>
<ellipse fill="#fcffa4" stroke="white" stroke-width="0" cx="569.01" cy="-293.96" rx="36" ry="36"/>
<text text-anchor="middle" x="519.01" y="-332.56" font-family="Helvetica,sans-Serif" font-size="8.00" fill="#4d4d4d">emploi</text>
</g>
<!-- richesse -->
<g id="node3" class="node">
<title>richesse</title>
<ellipse fill="#5a116e" stroke="white" stroke-width="0" cx="420.54" cy="-438.56" rx="11" ry="11"/>
<text text-anchor="middle" x="392.04" y="-452.16" font-family="Helvetica,sans-Serif" font-size="8.00" fill="#4d4d4d">richesse</text>
</g>
<!-- démolition -->
<g id="node4" class="node">
<title>démolition</title>
<ellipse fill="#260c51" stroke="white" stroke-width="0" cx="834.36" cy="-272.06" rx="7" ry="7"/>
<text text-anchor="middle" x="805.36" y="-281.66" font-family="Helvetica,sans-Serif" font-size="8.00" fill="#4d4d4d">démolition</text>
</g>
<!-- argent -->
<g id="node5" class="node">
<title>argent</title>
<ellipse fill="#3e0966" stroke="white" stroke-width="0" cx="470.02" cy="-548.84" rx="7" ry="7"/>
<text text-anchor="middle" x="449.02" y="-558.44" font-family="Helvetica,sans-Serif" font-size="8.00" fill="#4d4d4d">argent</text>
</g>
<!-- nickel -->
<g id="node6" class="node">
<title>nickel</title>
<ellipse fill="#f8cd37" stroke="white" stroke-width="0" cx="348.85" cy="-344.11" rx="32.5" ry="32.5"/>
<text text-anchor="middle" x="304.35" y="-379.21" font-family="Helvetica,sans-Serif" font-size="8.00" fill="#4d4d4d">nickel</text>
</g>
<!-- exploitation -->
<g id="node7" class="node">
<title>exploitation</title>
<ellipse fill="#87216b" stroke="white" stroke-width="0" cx="413.53" cy="-156.82" rx="14.5" ry="14.5"/>
<text text-anchor="middle" x="374.53" y="-173.92" font-family="Helvetica,sans-Serif" font-size="8.00" fill="#4d4d4d">exploitation</text>
</g>
<!-- montagne -->
<g id="node8" class="node">
<title>montagne</title>
<ellipse fill="#280b53" stroke="white" stroke-width="0" cx="566.01" cy="-639.68" rx="7" ry="7"/>
<text text-anchor="middle" x="537.51" y="-649.28" font-family="Helvetica,sans-Serif" font-size="8.00" fill="#4d4d4d">montagne</text>
</g>
<!-- camion -->
<g id="node9" class="node">
<title>camion</title>
<ellipse fill="#550f6d" stroke="white" stroke-width="0" cx="585.44" cy="-124.84" rx="11" ry="11"/>
<text text-anchor="middle" x="558.94" y="-138.44" font-family="Helvetica,sans-Serif" font-size="8.00" fill="#4d4d4d">camion</text>
</g>
<!-- économie -->
<g id="node10" class="node">
<title>économie</title>
<ellipse fill="#b93556" stroke="white" stroke-width="0" cx="520.59" cy="-423.51" rx="18" ry="18"/>
<text text-anchor="middle" x="482.09" y="-444.11" font-family="Helvetica,sans-Serif" font-size="8.00" fill="#4d4d4d">économie</text>
</g>
<!-- impact environnemental -->
<g id="node11" class="node">
<title>impact environnemental</title>
<ellipse fill="#ca404a" stroke="white" stroke-width="0" cx="453.65" cy="-285.66" rx="18" ry="18"/>
<text text-anchor="middle" x="385.65" y="-270.26" font-family="Helvetica,sans-Serif" font-size="8.00" fill="#4d4d4d">impact environnemental</text>
</g>
<!-- terre -->
<g id="node12" class="node">
<title>terre</title>
<ellipse fill="#260c51" stroke="white" stroke-width="0" cx="602.28" cy="-514.15" rx="7" ry="7"/>
<text text-anchor="middle" x="585.78" y="-523.75" font-family="Helvetica,sans-Serif" font-size="8.00" fill="#4d4d4d">terre</text>
</g>
<!-- usine -->
<g id="node13" class="node">
<title>usine</title>
<ellipse fill="#3d0965" stroke="white" stroke-width="0" cx="474.45" cy="-53.13" rx="7" ry="7"/>
<text text-anchor="middle" x="455.95" y="-62.73" font-family="Helvetica,sans-Serif" font-size="8.00" fill="#4d4d4d">usine</text>
</g>
<!-- conflit -->
<g id="node14" class="node">
<title>conflit</title>
<ellipse fill="#210c4a" stroke="white" stroke-width="0" cx="767.73" cy="-156.27" rx="3.5" ry="3.5"/>
<text text-anchor="middle" x="751.23" y="-162.37" font-family="Helvetica,sans-Serif" font-size="8.00" fill="#4d4d4d">conflit</text>
</g>
<!-- développement -->
<g id="node15" class="node">
<title>développement</title>
<ellipse fill="#010005" stroke="white" stroke-width="0" cx="1003.65" cy="-486.89" rx="0.5" ry="0.5"/>
<text text-anchor="middle" x="970.65" y="-489.99" font-family="Helvetica,sans-Serif" font-size="8.00" fill="#4d4d4d">développement</text>
</g>
<!-- déforestation -->
<g id="node16" class="node">
<title>déforestation</title>
<ellipse fill="#0b0724" stroke="white" stroke-width="0" cx="801.05" cy="-416" rx="3.5" ry="3.5"/>
<text text-anchor="middle" x="770.05" y="-422.1" font-family="Helvetica,sans-Serif" font-size="8.00" fill="#4d4d4d">déforestation</text>
</g>
<!-- ressource -->
<g id="node17" class="node">
<title>ressource</title>
<ellipse fill="#310a5c" stroke="white" stroke-width="0" cx="284.16" cy="-130.33" rx="7" ry="7"/>
<text text-anchor="middle" x="257.16" y="-139.93" font-family="Helvetica,sans-Serif" font-size="8.00" fill="#4d4d4d">ressource</text>
</g>
<!-- roche -->
<g id="node18" class="node">
<title>roche</title>
<ellipse fill="#3b0964" stroke="white" stroke-width="0" cx="180.03" cy="-564.77" rx="7" ry="7"/>
<text text-anchor="middle" x="161.53" y="-574.37" font-family="Helvetica,sans-Serif" font-size="8.00" fill="#4d4d4d">roche</text>
</g>
<!-- terre rouge -->
<g id="node19" class="node">
<title>terre rouge</title>
<ellipse fill="#0c0826" stroke="white" stroke-width="0" cx="77.17" cy="-282.55" rx="3.5" ry="3.5"/>
<text text-anchor="middle" x="51.17" y="-288.65" font-family="Helvetica,sans-Serif" font-size="8.00" fill="#4d4d4d">terre rouge</text>
</g>
<!-- sln -->
<g id="node20" class="node">
<title>sln</title>
<ellipse fill="#280b53" stroke="white" stroke-width="0" cx="20" cy="-407.33" rx="7" ry="7"/>
<text text-anchor="middle" x="6.5" y="-416.93" font-family="Helvetica,sans-Serif" font-size="8.00" fill="#4d4d4d">sln</text>
</g>
<!-- usine du sud -->
<g id="node21" class="node">
<title>usine du sud</title>
<ellipse fill="#000004" stroke="white" stroke-width="0" cx="72.04" cy="-558.24" rx="0.5" ry="0.5"/>
<text text-anchor="middle" x="45.04" y="-561.34" font-family="Helvetica,sans-Serif" font-size="8.00" fill="#4d4d4d">usine du sud</text>
</g>
<!-- minerai -->
<g id="node22" class="node">
<title>minerai</title>
<ellipse fill="#400a67" stroke="white" stroke-width="0" cx="277.32" cy="-7" rx="7" ry="7"/>
<text text-anchor="middle" x="254.82" y="-16.6" font-family="Helvetica,sans-Serif" font-size="8.00" fill="#4d4d4d">minerai</text>
</g>
</g>
</svg>
