<?xml version="1.0" encoding="UTF-8" standalone="no"?>
<!DOCTYPE svg PUBLIC "-//W3C//DTD SVG 1.1//EN"
 "http://www.w3.org/Graphics/SVG/1.1/DTD/svg11.dtd">
<!-- Generated by graphviz version 2.43.0 (0)
 -->
<!-- Pages: 1 -->
<svg width="556pt" height="305pt"
 viewBox="0.00 0.00 555.53 304.76" xmlns="http://www.w3.org/2000/svg" xmlns:xlink="http://www.w3.org/1999/xlink">
<g id="graph0" class="graph" transform="scale(1 1) rotate(0) translate(4 300.76)">
<polygon fill="white" stroke="transparent" points="-4,4 -4,-300.76 551.53,-300.76 551.53,4 -4,4"/>
<!-- emploi&#45;&#45;pollution -->
<g id="edge1" class="edge">
<title>emploi&#45;&#45;pollution</title>
<path fill="none" stroke="darkgrey" stroke-width="10" d="M317.89,-151.43C320.41,-152.89 323.05,-154.43 325.71,-155.97"/>
</g>
<!-- emploi&#45;&#45;impact environnemental -->
<g id="edge2" class="edge">
<title>emploi&#45;&#45;impact environnemental</title>
<path fill="none" stroke="darkgrey" stroke-width="5.25" d="M292.2,-161.17C285.17,-181.86 274.46,-213.38 267.86,-232.79"/>
</g>
<!-- emploi&#45;&#45;ressource -->
<g id="edge3" class="edge">
<title>emploi&#45;&#45;ressource</title>
<path fill="none" stroke="darkgrey" stroke-width="1.67" d="M306.12,-160.95C316.41,-191.22 335.24,-246.59 341.81,-265.9"/>
</g>
<!-- emploi&#45;&#45;économie -->
<g id="edge4" class="edge">
<title>emploi&#45;&#45;économie</title>
<path fill="none" stroke="darkgrey" stroke-width="2.5" d="M279.01,-148.89C261.89,-155.94 238.02,-165.77 224.49,-171.34"/>
</g>
<!-- emploi&#45;&#45;végétalisation -->
<g id="edge5" class="edge">
<title>emploi&#45;&#45;végétalisation</title>
<path fill="none" stroke="darkgrey" stroke-width="1.94" d="M307.15,-120.59C319.31,-90.02 341.94,-33.17 349.67,-13.72"/>
</g>
<!-- pollution&#45;&#45;impact environnemental -->
<g id="edge7" class="edge">
<title>pollution&#45;&#45;impact environnemental</title>
<path fill="none" stroke="darkgrey" stroke-width="5.82" d="M328.94,-196.81C311.61,-210.59 290.17,-227.64 276.3,-238.67"/>
</g>
<!-- pollution&#45;&#45;ressource -->
<g id="edge8" class="edge">
<title>pollution&#45;&#45;ressource</title>
<path fill="none" stroke="darkgrey" stroke-width="1.64" d="M352.49,-210.11C349.79,-230.35 346.66,-253.86 345.11,-265.49"/>
</g>
<!-- pollution&#45;&#45;économie -->
<g id="edge10" class="edge">
<title>pollution&#45;&#45;économie</title>
<path fill="none" stroke="darkgrey" stroke-width="7.26" d="M321.12,-174.63C289.46,-174.93 245.43,-175.35 225.11,-175.54"/>
</g>
<!-- pollution&#45;&#45;épuisable -->
<g id="edge6" class="edge">
<title>pollution&#45;&#45;épuisable</title>
<path fill="none" stroke="darkgrey" stroke-width="8.02" d="M327.34,-153.84C298.16,-133.91 255.26,-104.61 234.52,-90.44"/>
</g>
<!-- pollution&#45;&#45;démolition -->
<g id="edge9" class="edge">
<title>pollution&#45;&#45;démolition</title>
<path fill="none" stroke="darkgrey" stroke-width="4.88" d="M390.91,-187.81C421.06,-199.93 462.35,-216.53 474.52,-221.42"/>
</g>
<!-- pollution&#45;&#45;richesse -->
<g id="edge11" class="edge">
<title>pollution&#45;&#45;richesse</title>
<path fill="none" stroke="darkgrey" d="M388.98,-156.82C424.97,-137.01 479.56,-106.96 486.24,-103.28"/>
</g>
<!-- impact environnemental&#45;&#45;ressource -->
<g id="edge13" class="edge">
<title>impact environnemental&#45;&#45;ressource</title>
<path fill="none" stroke="darkgrey" stroke-width="1.73" d="M279.42,-254.86C297.32,-259.81 324.3,-267.27 337.02,-270.79"/>
</g>
<!-- impact environnemental&#45;&#45;économie -->
<g id="edge14" class="edge">
<title>impact environnemental&#45;&#45;économie</title>
<path fill="none" stroke="darkgrey" stroke-width="3.21" d="M252.06,-234.63C242.4,-219.65 228.04,-197.39 220.01,-184.94"/>
</g>
<!-- épuisable&#45;&#45;économie -->
<g id="edge12" class="edge">
<title>épuisable&#45;&#45;économie</title>
<path fill="none" stroke="darkgrey" stroke-width="1.34" d="M221.11,-96.78C219.42,-115.57 216.52,-147.8 215.01,-164.65"/>
</g>
<!-- emploi -->
<g id="node1" class="node">
<title>emploi</title>
<ellipse fill="#db503b" stroke="white" stroke-width="0" cx="299.19" cy="-140.58" rx="21.5" ry="21.5"/>
<text text-anchor="middle" x="240.69" y="-125.8" font-family="Helvetica,sans-Serif" font-size="21.60" fill="#4d4d4d">emploi</text>
</g>
<!-- pollution -->
<g id="node2" class="node">
<title>pollution</title>
<ellipse fill="#fcffa4" stroke="white" stroke-width="0" cx="357.27" cy="-174.28" rx="36" ry="36"/>
<text text-anchor="middle" x="382.77" y="-218.88" font-family="Helvetica,sans-Serif" font-size="28.00" fill="#4d4d4d">pollution</text>
</g>
<!-- impact environnemental -->
<g id="node3" class="node">
<title>impact environnemental</title>
<ellipse fill="#b93556" stroke="white" stroke-width="0" cx="262" cy="-250.05" rx="18" ry="18"/>
<text text-anchor="middle" x="122" y="-274.05" font-family="Helvetica,sans-Serif" font-size="20.00" fill="#4d4d4d">impact environnemental</text>
</g>
<!-- ressource -->
<g id="node4" class="node">
<title>ressource</title>
<ellipse fill="#400a67" stroke="white" stroke-width="0" cx="344.14" cy="-272.76" rx="7" ry="7"/>
<text text-anchor="middle" x="300.14" y="-284.6" font-family="Helvetica,sans-Serif" font-size="15.20" fill="#4d4d4d">ressource</text>
</g>
<!-- économie -->
<g id="node5" class="node">
<title>économie</title>
<ellipse fill="#771c6d" stroke="white" stroke-width="0" cx="214.02" cy="-175.65" rx="11" ry="11"/>
<text text-anchor="middle" x="161.52" y="-191.21" font-family="Helvetica,sans-Serif" font-size="16.80" fill="#4d4d4d">économie</text>
</g>
<!-- végétalisation -->
<g id="node6" class="node">
<title>végétalisation</title>
<ellipse fill="#380962" stroke="white" stroke-width="0" cx="352.35" cy="-7" rx="7" ry="7"/>
<text text-anchor="middle" x="291.35" y="-18.84" font-family="Helvetica,sans-Serif" font-size="15.20" fill="#4d4d4d">végétalisation</text>
</g>
<!-- épuisable -->
<g id="node7" class="node">
<title>épuisable</title>
<ellipse fill="#8d2369" stroke="white" stroke-width="0" cx="222.42" cy="-82.18" rx="14.5" ry="14.5"/>
<text text-anchor="middle" x="162.42" y="-101.96" font-family="Helvetica,sans-Serif" font-size="18.40" fill="#4d4d4d">épuisable</text>
</g>
<!-- démolition -->
<g id="node8" class="node">
<title>démolition</title>
<ellipse fill="#0b0724" stroke="white" stroke-width="0" cx="478.03" cy="-222.83" rx="3.5" ry="3.5"/>
<text text-anchor="middle" x="511.03" y="-230.45" font-family="Helvetica,sans-Serif" font-size="13.60" fill="#4d4d4d">démolition</text>
</g>
<!-- richesse -->
<g id="node9" class="node">
<title>richesse</title>
<ellipse fill="#000004" stroke="white" stroke-width="0" cx="486.92" cy="-102.91" rx="0.5" ry="0.5"/>
<text text-anchor="middle" x="461.42" y="-106.81" font-family="Helvetica,sans-Serif" font-size="12.00" fill="#4d4d4d">richesse</text>
</g>
</g>
</svg>
