<?xml version="1.0" encoding="UTF-8" standalone="no"?>
<!DOCTYPE svg PUBLIC "-//W3C//DTD SVG 1.1//EN"
 "http://www.w3.org/Graphics/SVG/1.1/DTD/svg11.dtd">
<!-- Generated by graphviz version 2.43.0 (0)
 -->
<!-- Pages: 1 -->
<svg width="674pt" height="465pt"
 viewBox="0.00 0.00 674.10 465.23" xmlns="http://www.w3.org/2000/svg" xmlns:xlink="http://www.w3.org/1999/xlink">
<g id="graph0" class="graph" transform="scale(1 1) rotate(0) translate(4 461.23)">
<polygon fill="white" stroke="transparent" points="-4,4 -4,-461.23 670.1,-461.23 670.1,4 -4,4"/>
<!-- fin&#45;&#45;emploi -->
<g id="edge1" class="edge">
<title>fin&#45;&#45;emploi</title>
<path fill="none" stroke="darkgrey" stroke-width="1.6" d="M477.08,-313C477.98,-303.37 479.17,-290.66 480.14,-280.36"/>
</g>
<!-- fin&#45;&#45;pollution -->
<g id="edge2" class="edge">
<title>fin&#45;&#45;pollution</title>
<path fill="none" stroke="darkgrey" stroke-width="2.37" d="M463.25,-320.01C435.71,-303.45 369.39,-263.6 334.95,-242.91"/>
</g>
<!-- fin&#45;&#45;épuisement de la ressource -->
<g id="edge3" class="edge">
<title>fin&#45;&#45;épuisement de la ressource</title>
<path fill="none" stroke="darkgrey" stroke-width="1.72" d="M466.24,-316.43C456.75,-305.36 442.36,-288.57 433.76,-278.53"/>
</g>
<!-- fin&#45;&#45;impact environnemental -->
<g id="edge4" class="edge">
<title>fin&#45;&#45;impact environnemental</title>
<path fill="none" stroke="darkgrey" stroke-width="2.63" d="M467.97,-315.16C453.3,-291.81 421.09,-240.52 400.25,-207.35"/>
</g>
<!-- fin&#45;&#45;maintien de l’exploitation -->
<g id="edge5" class="edge">
<title>fin&#45;&#45;maintien de l’exploitation</title>
<path fill="none" stroke="darkgrey" stroke-width="1.11" d="M475.72,-342.04C475.74,-367.95 475.76,-420.73 475.76,-435.06"/>
</g>
<!-- emploi&#45;&#45;pollution -->
<g id="edge6" class="edge">
<title>emploi&#45;&#45;pollution</title>
<path fill="none" stroke="darkgrey" stroke-width="5.09" d="M464.13,-258.77C433.97,-253 372.58,-241.26 338.17,-234.68"/>
</g>
<!-- emploi&#45;&#45;épuisement de la ressource -->
<g id="edge7" class="edge">
<title>emploi&#45;&#45;épuisement de la ressource</title>
<path fill="none" stroke="darkgrey" stroke-width="1.13" d="M463.73,-264.76C455.17,-265.99 445.21,-267.43 437.75,-268.5"/>
</g>
<!-- emploi&#45;&#45;impact environnemental -->
<g id="edge8" class="edge">
<title>emploi&#45;&#45;impact environnemental</title>
<path fill="none" stroke="darkgrey" stroke-width="5.03" d="M467.82,-250.27C452.56,-237.34 427.77,-216.34 408.58,-200.08"/>
</g>
<!-- emploi&#45;&#45;conflit -->
<g id="edge9" class="edge">
<title>emploi&#45;&#45;conflit</title>
<path fill="none" stroke="darkgrey" stroke-width="1.45" d="M479.44,-244.24C478.42,-236.59 477.26,-227.91 476.36,-221.21"/>
</g>
<!-- emploi&#45;&#45;vision positive de la ressource -->
<g id="edge10" class="edge">
<title>emploi&#45;&#45;vision positive de la ressource</title>
<path fill="none" stroke="darkgrey" stroke-width="1.14" d="M477.78,-244.41C470.45,-212.4 455.33,-146.32 450.35,-124.55"/>
</g>
<!-- emploi&#45;&#45;économie du pays -->
<g id="edge11" class="edge">
<title>emploi&#45;&#45;économie du pays</title>
<path fill="none" stroke="darkgrey" stroke-width="3.33" d="M472.9,-246.37C462.9,-228.71 447.01,-200.64 438.66,-185.89"/>
</g>
<!-- emploi&#45;&#45;amélioration environnementale -->
<g id="edge12" class="edge">
<title>emploi&#45;&#45;amélioration environnementale</title>
<path fill="none" stroke="darkgrey" stroke-width="3.62" d="M465.63,-270.09C438.03,-283.59 382.2,-310.91 354.49,-324.47"/>
</g>
<!-- emploi&#45;&#45;famille -->
<g id="edge13" class="edge">
<title>emploi&#45;&#45;famille</title>
<path fill="none" stroke="darkgrey" stroke-width="1.36" d="M498.15,-254.25C541.01,-233.48 654.29,-178.58 664.82,-173.48"/>
</g>
<!-- emploi&#45;&#45;développement durable -->
<g id="edge14" class="edge">
<title>emploi&#45;&#45;développement durable</title>
<path fill="none" stroke="darkgrey" stroke-width="1.29" d="M467.5,-273.09C435.95,-297.14 361.25,-354.07 335.43,-373.75"/>
</g>
<!-- emploi&#45;&#45;innovation -->
<g id="edge15" class="edge">
<title>emploi&#45;&#45;innovation</title>
<path fill="none" stroke="darkgrey" stroke-width="1.09" d="M466.21,-271.18C444.63,-283.64 406.34,-305.75 388.54,-316.02"/>
</g>
<!-- emploi&#45;&#45;formation -->
<g id="edge16" class="edge">
<title>emploi&#45;&#45;formation</title>
<path fill="none" stroke="darkgrey" stroke-width="1.47" d="M500.11,-262.36C544.35,-262.86 654.36,-264.1 664.58,-264.21"/>
</g>
<!-- emploi&#45;&#45;automatisation -->
<g id="edge17" class="edge">
<title>emploi&#45;&#45;automatisation</title>
<path fill="none" stroke="darkgrey" stroke-width="1.27" d="M471.37,-277.13C456.05,-299.07 428.46,-338.55 420.6,-349.79"/>
</g>
<!-- pollution&#45;&#45;épuisement de la ressource -->
<g id="edge20" class="edge">
<title>pollution&#45;&#45;épuisement de la ressource</title>
<path fill="none" stroke="darkgrey" stroke-width="3.92" d="M337.11,-238.36C361.47,-247.01 398.29,-260.08 416.12,-266.41"/>
</g>
<!-- pollution&#45;&#45;impact environnemental -->
<g id="edge23" class="edge">
<title>pollution&#45;&#45;impact environnemental</title>
<path fill="none" stroke="darkgrey" stroke-width="10" d="M333.31,-214.26C339.38,-209.47 346.18,-204.12 352.7,-198.98"/>
</g>
<!-- pollution&#45;&#45;conflit -->
<g id="edge24" class="edge">
<title>pollution&#45;&#45;conflit</title>
<path fill="none" stroke="darkgrey" stroke-width="1.66" d="M338.26,-226.88C373.83,-222.51 437.76,-214.66 463.59,-211.48"/>
</g>
<!-- pollution&#45;&#45;vision positive de la ressource -->
<g id="edge25" class="edge">
<title>pollution&#45;&#45;vision positive de la ressource</title>
<path fill="none" stroke="darkgrey" d="M332.77,-213.82C364.2,-187.69 424.62,-137.46 443.17,-122.04"/>
</g>
<!-- pollution&#45;&#45;économie du pays -->
<g id="edge27" class="edge">
<title>pollution&#45;&#45;économie du pays</title>
<path fill="none" stroke="darkgrey" stroke-width="3.16" d="M336.19,-219.69C362.24,-207.97 403.73,-189.31 422.85,-180.72"/>
</g>
<!-- pollution&#45;&#45;amélioration environnementale -->
<g id="edge28" class="edge">
<title>pollution&#45;&#45;amélioration environnementale</title>
<path fill="none" stroke="darkgrey" stroke-width="2.36" d="M319.31,-254.5C323.8,-273.1 329.85,-298.22 333.87,-314.86"/>
</g>
<!-- pollution&#45;&#45;développement durable -->
<g id="edge31" class="edge">
<title>pollution&#45;&#45;développement durable</title>
<path fill="none" stroke="darkgrey" stroke-width="1.7" d="M315.57,-255.16C318.45,-288.33 323.39,-345.22 325.48,-369.3"/>
</g>
<!-- pollution&#45;&#45;innovation -->
<g id="edge32" class="edge">
<title>pollution&#45;&#45;innovation</title>
<path fill="none" stroke="darkgrey" stroke-width="2" d="M327.94,-250.27C341.82,-269.67 362.1,-298.01 372.41,-312.41"/>
</g>
<!-- pollution&#45;&#45;automatisation -->
<g id="edge34" class="edge">
<title>pollution&#45;&#45;automatisation</title>
<path fill="none" stroke="darkgrey" stroke-width="1.14" d="M329.8,-249.15C355.89,-279.66 405.02,-337.12 416.17,-350.17"/>
</g>
<!-- pollution&#45;&#45;montagne -->
<g id="edge21" class="edge">
<title>pollution&#45;&#45;montagne</title>
<path fill="none" stroke="darkgrey" stroke-width="1.58" d="M289.64,-237.8C239.09,-254.54 123.71,-292.74 102.53,-299.75"/>
</g>
<!-- pollution&#45;&#45;biodiversité -->
<g id="edge22" class="edge">
<title>pollution&#45;&#45;biodiversité</title>
<path fill="none" stroke="darkgrey" stroke-width="2.05" d="M288.64,-224.12C239.74,-212.6 132.98,-187.46 104.7,-180.8"/>
</g>
<!-- pollution&#45;&#45;développement -->
<g id="edge26" class="edge">
<title>pollution&#45;&#45;développement</title>
<path fill="none" stroke="darkgrey" stroke-width="2.41" d="M334.54,-243.91C336.53,-245.24 338.49,-246.52 340.29,-247.71"/>
</g>
<!-- pollution&#45;&#45;revenu -->
<g id="edge29" class="edge">
<title>pollution&#45;&#45;revenu</title>
<path fill="none" stroke="darkgrey" stroke-width="1.31" d="M310.29,-204.76C305.02,-161.86 294.64,-77.37 292.28,-58.15"/>
</g>
<!-- pollution&#45;&#45;déclin -->
<g id="edge30" class="edge">
<title>pollution&#45;&#45;déclin</title>
<path fill="none" stroke="darkgrey" stroke-width="1.58" d="M300.1,-208.62C278.76,-174.36 238.27,-109.37 229.07,-94.61"/>
</g>
<!-- pollution&#45;&#45;richesse -->
<g id="edge33" class="edge">
<title>pollution&#45;&#45;richesse</title>
<path fill="none" stroke="darkgrey" stroke-width="1.07" d="M292.66,-215.19C274.41,-202.2 249.42,-184.41 240.69,-178.2"/>
</g>
<!-- épuisement de la ressource&#45;&#45;impact environnemental -->
<g id="edge35" class="edge">
<title>épuisement de la ressource&#45;&#45;impact environnemental</title>
<path fill="none" stroke="darkgrey" stroke-width="4.33" d="M421.67,-260.11C415.8,-248.07 405.63,-227.21 396.93,-209.37"/>
</g>
<!-- épuisement de la ressource&#45;&#45;conflit -->
<g id="edge36" class="edge">
<title>épuisement de la ressource&#45;&#45;conflit</title>
<path fill="none" stroke="darkgrey" stroke-width="2.05" d="M433.47,-261.51C442.66,-250.1 458.78,-230.08 467.96,-218.68"/>
</g>
<!-- épuisement de la ressource&#45;&#45;économie du pays -->
<g id="edge38" class="edge">
<title>épuisement de la ressource&#45;&#45;économie du pays</title>
<path fill="none" stroke="darkgrey" stroke-width="1.81" d="M427.32,-258.96C428.59,-240.86 431.07,-205.32 432.33,-187.24"/>
</g>
<!-- épuisement de la ressource&#45;&#45;innovation -->
<g id="edge39" class="edge">
<title>épuisement de la ressource&#45;&#45;innovation</title>
<path fill="none" stroke="darkgrey" stroke-width="1.11" d="M418.69,-278.61C409.82,-288.19 395.48,-303.69 386.67,-313.22"/>
</g>
<!-- épuisement de la ressource&#45;&#45;développement -->
<g id="edge37" class="edge">
<title>épuisement de la ressource&#45;&#45;développement</title>
<path fill="none" stroke="darkgrey" stroke-width="1.88" d="M415.54,-267.8C400.94,-264.73 375.32,-259.34 360.73,-256.27"/>
</g>
<!-- impact environnemental&#45;&#45;conflit -->
<g id="edge41" class="edge">
<title>impact environnemental&#45;&#45;conflit</title>
<path fill="none" stroke="darkgrey" stroke-width="4.01" d="M415.16,-188.85C432.56,-195.05 452.5,-202.14 464.37,-206.36"/>
</g>
<!-- impact environnemental&#45;&#45;vision positive de la ressource -->
<g id="edge43" class="edge">
<title>impact environnemental&#45;&#45;vision positive de la ressource</title>
<path fill="none" stroke="darkgrey" stroke-width="1.66" d="M408.15,-152.93C421.11,-141.6 435.42,-129.06 443.11,-122.34"/>
</g>
<!-- impact environnemental&#45;&#45;économie du pays -->
<g id="edge45" class="edge">
<title>impact environnemental&#45;&#45;économie du pays</title>
<path fill="none" stroke="darkgrey" stroke-width="4.08" d="M417.19,-176.29C418.86,-176.27 420.46,-176.25 421.96,-176.23"/>
</g>
<!-- impact environnemental&#45;&#45;amélioration environnementale -->
<g id="edge46" class="edge">
<title>impact environnemental&#45;&#45;amélioration environnementale</title>
<path fill="none" stroke="darkgrey" stroke-width="2.98" d="M371.38,-211.66C362.54,-243.78 349.8,-290.05 342.94,-314.98"/>
</g>
<!-- impact environnemental&#45;&#45;innovation -->
<g id="edge49" class="edge">
<title>impact environnemental&#45;&#45;innovation</title>
<path fill="none" stroke="darkgrey" stroke-width="1.68" d="M380.49,-212.88C380.04,-244.89 379.41,-289.63 379.11,-310.29"/>
</g>
<!-- impact environnemental&#45;&#45;automatisation -->
<g id="edge51" class="edge">
<title>impact environnemental&#45;&#45;automatisation</title>
<path fill="none" stroke="darkgrey" stroke-width="1.6" d="M388.49,-211.93C398.14,-257.31 414.11,-332.39 417.72,-349.36"/>
</g>
<!-- impact environnemental&#45;&#45;développement -->
<g id="edge44" class="edge">
<title>impact environnemental&#45;&#45;développement</title>
<path fill="none" stroke="darkgrey" stroke-width="3.39" d="M367.38,-210.37C362.51,-222.4 357.38,-235.09 353.91,-243.66"/>
</g>
<!-- impact environnemental&#45;&#45;revenu -->
<g id="edge47" class="edge">
<title>impact environnemental&#45;&#45;revenu</title>
<path fill="none" stroke="darkgrey" stroke-width="1.45" d="M359.63,-147.36C336.75,-115.93 302.54,-68.96 293.85,-57.03"/>
</g>
<!-- impact environnemental&#45;&#45;déclin -->
<g id="edge48" class="edge">
<title>impact environnemental&#45;&#45;déclin</title>
<path fill="none" stroke="darkgrey" stroke-width="1.3" d="M349.5,-159.27C310.13,-137.48 246.01,-101.99 230.59,-93.46"/>
</g>
<!-- impact environnemental&#45;&#45;richesse -->
<g id="edge50" class="edge">
<title>impact environnemental&#45;&#45;richesse</title>
<path fill="none" stroke="darkgrey" stroke-width="2.04" d="M344.79,-176.51C308.27,-176.32 255.3,-176.04 241.12,-175.96"/>
</g>
<!-- impact environnemental&#45;&#45;croissance minière -->
<g id="edge40" class="edge">
<title>impact environnemental&#45;&#45;croissance minière</title>
<path fill="none" stroke="darkgrey" stroke-width="1.4" d="M387.64,-141.32C395.95,-97.08 409.47,-25.04 412.72,-7.73"/>
</g>
<!-- impact environnemental&#45;&#45;milieu -->
<g id="edge42" class="edge">
<title>impact environnemental&#45;&#45;milieu</title>
<path fill="none" stroke="darkgrey" stroke-width="1.03" d="M402.05,-146.93C433.24,-102.82 489.32,-23.51 501.21,-6.69"/>
</g>
<!-- conflit&#45;&#45;économie du pays -->
<g id="edge53" class="edge">
<title>conflit&#45;&#45;économie du pays</title>
<path fill="none" stroke="darkgrey" stroke-width="1.53" d="M466.02,-202.89C458.83,-197.04 448.77,-188.85 441.67,-183.07"/>
</g>
<!-- conflit&#45;&#45;développement -->
<g id="edge52" class="edge">
<title>conflit&#45;&#45;développement</title>
<path fill="none" stroke="darkgrey" stroke-width="1.09" d="M464.21,-213.84C440.56,-222.12 384,-241.95 360.39,-250.23"/>
</g>
<!-- vision positive de la ressource&#45;&#45;économie du pays -->
<g id="edge54" class="edge">
<title>vision positive de la ressource&#45;&#45;économie du pays</title>
<path fill="none" stroke="darkgrey" stroke-width="1.18" d="M446.81,-124.62C444.1,-134.78 439.15,-153.41 436,-165.25"/>
</g>
<!-- amélioration environnementale&#45;&#45;maintien de l’exploitation -->
<g id="edge60" class="edge">
<title>amélioration environnementale&#45;&#45;maintien de l’exploitation</title>
<path fill="none" stroke="darkgrey" stroke-width="1.7" d="M352.59,-343.65C384.06,-367.94 457.18,-424.38 472.8,-436.43"/>
</g>
<!-- amélioration environnementale&#45;&#45;développement durable -->
<g id="edge61" class="edge">
<title>amélioration environnementale&#45;&#45;développement durable</title>
<path fill="none" stroke="darkgrey" stroke-width="2.41" d="M333.84,-350.12C332.26,-356.66 330.51,-363.89 329.11,-369.66"/>
</g>
<!-- amélioration environnementale&#45;&#45;innovation -->
<g id="edge62" class="edge">
<title>amélioration environnementale&#45;&#45;innovation</title>
<path fill="none" stroke="darkgrey" stroke-width="1.64" d="M355.67,-327.78C359.82,-326.67 364.14,-325.52 367.9,-324.51"/>
</g>
<!-- développement durable&#45;&#45;innovation -->
<g id="edge63" class="edge">
<title>développement durable&#45;&#45;innovation</title>
<path fill="none" stroke="darkgrey" stroke-width="1.57" d="M333.98,-372.13C343.96,-360.91 361.48,-341.21 371.45,-330"/>
</g>
<!-- innovation&#45;&#45;automatisation -->
<g id="edge64" class="edge">
<title>innovation&#45;&#45;automatisation</title>
<path fill="none" stroke="darkgrey" stroke-width="1.32" d="M387.72,-328.5C396.63,-335.56 409.92,-346.08 415.66,-350.62"/>
</g>
<!-- procédé industriel&#45;&#45;pollution -->
<g id="edge18" class="edge">
<title>procédé industriel&#45;&#45;pollution</title>
<path fill="none" stroke="darkgrey" stroke-width="1.12" d="M222.3,-292.5C233.09,-285.09 269.33,-260.2 292.71,-244.14"/>
</g>
<!-- procédé industriel&#45;&#45;amélioration environnementale -->
<g id="edge19" class="edge">
<title>procédé industriel&#45;&#45;amélioration environnementale</title>
<path fill="none" stroke="darkgrey" stroke-width="1.18" d="M222.6,-295.75C236.84,-300.28 291.92,-317.79 320.57,-326.9"/>
</g>
<!-- développement&#45;&#45;économie du pays -->
<g id="edge55" class="edge">
<title>développement&#45;&#45;économie du pays</title>
<path fill="none" stroke="darkgrey" stroke-width="2.07" d="M358.04,-246.21C374.02,-231.29 408.89,-198.72 424.85,-183.82"/>
</g>
<!-- développement&#45;&#45;amélioration environnementale -->
<g id="edge56" class="edge">
<title>développement&#45;&#45;amélioration environnementale</title>
<path fill="none" stroke="darkgrey" stroke-width="1.94" d="M348.13,-264.88C346.23,-277.69 343.06,-299.12 340.79,-314.41"/>
</g>
<!-- développement&#45;&#45;développement durable -->
<g id="edge57" class="edge">
<title>développement&#45;&#45;développement durable</title>
<path fill="none" stroke="darkgrey" stroke-width="1.43" d="M347.68,-265.2C343.25,-289.29 332.89,-345.65 328.49,-369.56"/>
</g>
<!-- développement&#45;&#45;innovation -->
<g id="edge58" class="edge">
<title>développement&#45;&#45;innovation</title>
<path fill="none" stroke="darkgrey" stroke-width="1.43" d="M354.18,-264.23C359.67,-276.93 368.97,-298.44 374.48,-311.19"/>
</g>
<!-- développement&#45;&#45;richesse -->
<g id="edge59" class="edge">
<title>développement&#45;&#45;richesse</title>
<path fill="none" stroke="darkgrey" stroke-width="1.18" d="M340.56,-247.58C316.9,-231.13 254.71,-187.89 240.46,-177.99"/>
</g>
<!-- fin -->
<g id="node1" class="node">
<title>fin</title>
<ellipse fill="#82206c" stroke="white" stroke-width="0" cx="475.72" cy="-327.5" rx="14.5" ry="14.5"/>
<text text-anchor="middle" x="448.72" y="-347.28" font-family="Helvetica,sans-Serif" font-size="18.40" fill="#4d4d4d">fin</text>
</g>
<!-- emploi -->
<g id="node2" class="node">
<title>emploi</title>
<ellipse fill="#bd3853" stroke="white" stroke-width="0" cx="481.84" cy="-262.16" rx="18" ry="18"/>
<text text-anchor="middle" x="430.34" y="-228.16" font-family="Helvetica,sans-Serif" font-size="20.00" fill="#4d4d4d">emploi</text>
</g>
<!-- pollution -->
<g id="node3" class="node">
<title>pollution</title>
<ellipse fill="#f06f20" stroke="white" stroke-width="0" cx="313.38" cy="-229.94" rx="25" ry="25"/>
<text text-anchor="middle" x="236.88" y="-262.38" font-family="Helvetica,sans-Serif" font-size="23.20" fill="#4d4d4d">pollution</text>
</g>
<!-- épuisement de la ressource -->
<g id="node4" class="node">
<title>épuisement de la ressource</title>
<ellipse fill="#71196e" stroke="white" stroke-width="0" cx="426.55" cy="-270.11" rx="11" ry="11"/>
<text text-anchor="middle" x="533.05" y="-285.67" font-family="Helvetica,sans-Serif" font-size="16.80" fill="#4d4d4d">épuisement de la ressource</text>
</g>
<!-- impact environnemental -->
<g id="node5" class="node">
<title>impact environnemental</title>
<ellipse fill="#fcffa4" stroke="white" stroke-width="0" cx="381" cy="-176.71" rx="36" ry="36"/>
<text text-anchor="middle" x="172.5" y="-149.31" font-family="Helvetica,sans-Serif" font-size="28.00" fill="#4d4d4d">impact environnemental</text>
</g>
<!-- maintien de l’exploitation -->
<g id="node6" class="node">
<title>maintien de l’exploitation</title>
<ellipse fill="#150b37" stroke="white" stroke-width="0" cx="475.76" cy="-438.73" rx="3.5" ry="3.5"/>
<text text-anchor="middle" x="384.76" y="-446.35" font-family="Helvetica,sans-Serif" font-size="13.60" fill="#4d4d4d">maintien de l’exploitation</text>
</g>
<!-- conflit -->
<g id="node7" class="node">
<title>conflit</title>
<ellipse fill="#57106e" stroke="white" stroke-width="0" cx="474.87" cy="-210.1" rx="11" ry="11"/>
<text text-anchor="middle" x="489.87" y="-225.66" font-family="Helvetica,sans-Serif" font-size="16.80" fill="#4d4d4d">conflit</text>
</g>
<!-- vision positive de la ressource -->
<g id="node8" class="node">
<title>vision positive de la ressource</title>
<ellipse fill="#320a5e" stroke="white" stroke-width="0" cx="448.72" cy="-117.42" rx="7" ry="7"/>
<text text-anchor="middle" x="327.22" y="-115.26" font-family="Helvetica,sans-Serif" font-size="15.20" fill="#4d4d4d">vision positive de la ressource</text>
</g>
<!-- économie du pays -->
<g id="node9" class="node">
<title>économie du pays</title>
<ellipse fill="#6c186e" stroke="white" stroke-width="0" cx="433.11" cy="-176.1" rx="11" ry="11"/>
<text text-anchor="middle" x="499.11" y="-151.66" font-family="Helvetica,sans-Serif" font-size="16.80" fill="#4d4d4d">économie du pays</text>
</g>
<!-- amélioration environnementale -->
<g id="node10" class="node">
<title>amélioration environnementale</title>
<ellipse fill="#ba3655" stroke="white" stroke-width="0" cx="338.12" cy="-332.48" rx="18" ry="18"/>
<text text-anchor="middle" x="164.62" y="-320.48" font-family="Helvetica,sans-Serif" font-size="20.00" fill="#4d4d4d">amélioration environnementale</text>
</g>
<!-- famille -->
<g id="node11" class="node">
<title>famille</title>
<ellipse fill="#030210" stroke="white" stroke-width="0" cx="665.6" cy="-173.1" rx="0.5" ry="0.5"/>
<text text-anchor="middle" x="644.6" y="-177" font-family="Helvetica,sans-Serif" font-size="12.00" fill="#4d4d4d">famille</text>
</g>
<!-- développement durable -->
<g id="node12" class="node">
<title>développement durable</title>
<ellipse fill="#5c126e" stroke="white" stroke-width="0" cx="326.46" cy="-380.59" rx="11" ry="11"/>
<text text-anchor="middle" x="214.46" y="-396.15" font-family="Helvetica,sans-Serif" font-size="16.80" fill="#4d4d4d">développement durable</text>
</g>
<!-- innovation -->
<g id="node13" class="node">
<title>innovation</title>
<ellipse fill="#771c6d" stroke="white" stroke-width="0" cx="378.95" cy="-321.55" rx="11" ry="11"/>
<text text-anchor="middle" x="323.45" y="-297.11" font-family="Helvetica,sans-Serif" font-size="16.80" fill="#4d4d4d">innovation</text>
</g>
<!-- formation -->
<g id="node14" class="node">
<title>formation</title>
<ellipse fill="#000004" stroke="white" stroke-width="0" cx="665.34" cy="-264.22" rx="0.5" ry="0.5"/>
<text text-anchor="middle" x="635.84" y="-268.12" font-family="Helvetica,sans-Serif" font-size="12.00" fill="#4d4d4d">formation</text>
</g>
<!-- automatisation -->
<g id="node15" class="node">
<title>automatisation</title>
<ellipse fill="#210c4a" stroke="white" stroke-width="0" cx="418.46" cy="-352.85" rx="3.5" ry="3.5"/>
<text text-anchor="middle" x="363.96" y="-353.47" font-family="Helvetica,sans-Serif" font-size="13.60" fill="#4d4d4d">automatisation</text>
</g>
<!-- procédé industriel -->
<g id="node16" class="node">
<title>procédé industriel</title>
<ellipse fill="#0a0722" stroke="white" stroke-width="0" cx="219.16" cy="-294.66" rx="3.5" ry="3.5"/>
<text text-anchor="middle" x="154.16" y="-302.28" font-family="Helvetica,sans-Serif" font-size="13.60" fill="#4d4d4d">procédé industriel</text>
</g>
<!-- montagne -->
<g id="node17" class="node">
<title>montagne</title>
<ellipse fill="#0c0826" stroke="white" stroke-width="0" cx="99.15" cy="-300.87" rx="3.5" ry="3.5"/>
<text text-anchor="middle" x="60.65" y="-286.49" font-family="Helvetica,sans-Serif" font-size="13.60" fill="#4d4d4d">montagne</text>
</g>
<!-- biodiversité -->
<g id="node18" class="node">
<title>biodiversité</title>
<ellipse fill="#240c4f" stroke="white" stroke-width="0" cx="97.72" cy="-179.16" rx="7" ry="7"/>
<text text-anchor="middle" x="45.72" y="-191" font-family="Helvetica,sans-Serif" font-size="15.20" fill="#4d4d4d">biodiversité</text>
</g>
<!-- développement -->
<g id="node19" class="node">
<title>développement</title>
<ellipse fill="#69166e" stroke="white" stroke-width="0" cx="349.74" cy="-253.96" rx="11" ry="11"/>
<text text-anchor="middle" x="405.24" y="-269.52" font-family="Helvetica,sans-Serif" font-size="16.80" fill="#4d4d4d">développement</text>
</g>
<!-- revenu -->
<g id="node20" class="node">
<title>revenu</title>
<ellipse fill="#08051d" stroke="white" stroke-width="0" cx="291.79" cy="-54.2" rx="3.5" ry="3.5"/>
<text text-anchor="middle" x="264.79" y="-61.82" font-family="Helvetica,sans-Serif" font-size="13.60" fill="#4d4d4d">revenu</text>
</g>
<!-- déclin -->
<g id="node21" class="node">
<title>déclin</title>
<ellipse fill="#230c4c" stroke="white" stroke-width="0" cx="227.18" cy="-91.57" rx="3.5" ry="3.5"/>
<text text-anchor="middle" x="203.18" y="-99.19" font-family="Helvetica,sans-Serif" font-size="13.60" fill="#4d4d4d">déclin</text>
</g>
<!-- richesse -->
<g id="node22" class="node">
<title>richesse</title>
<ellipse fill="#0a0722" stroke="white" stroke-width="0" cx="237.52" cy="-175.94" rx="3.5" ry="3.5"/>
<text text-anchor="middle" x="206.52" y="-183.56" font-family="Helvetica,sans-Serif" font-size="13.60" fill="#4d4d4d">richesse</text>
</g>
<!-- croissance minière -->
<g id="node23" class="node">
<title>croissance minière</title>
<ellipse fill="#040314" stroke="white" stroke-width="0" cx="413.44" cy="-3.89" rx="3.5" ry="3.5"/>
<text text-anchor="middle" x="346.44" y="-11.51" font-family="Helvetica,sans-Serif" font-size="13.60" fill="#4d4d4d">croissance minière</text>
</g>
<!-- milieu -->
<g id="node24" class="node">
<title>milieu</title>
<ellipse fill="#09061f" stroke="white" stroke-width="0" cx="503.46" cy="-3.5" rx="3.5" ry="3.5"/>
<text text-anchor="middle" x="478.96" y="-11.12" font-family="Helvetica,sans-Serif" font-size="13.60" fill="#4d4d4d">milieu</text>
</g>
</g>
</svg>
