<?xml version="1.0" encoding="UTF-8" standalone="no"?>
<!DOCTYPE svg PUBLIC "-//W3C//DTD SVG 1.1//EN"
 "http://www.w3.org/Graphics/SVG/1.1/DTD/svg11.dtd">
<!-- Generated by graphviz version 2.43.0 (0)
 -->
<!-- Pages: 1 -->
<svg width="475pt" height="259pt"
 viewBox="0.00 0.00 475.04 258.85" xmlns="http://www.w3.org/2000/svg" xmlns:xlink="http://www.w3.org/1999/xlink">
<g id="graph0" class="graph" transform="scale(1 1) rotate(0) translate(4 254.85)">
<polygon fill="white" stroke="transparent" points="-4,4 -4,-254.85 471.04,-254.85 471.04,4 -4,4"/>
<!-- pollution&#45;&#45;travail -->
<g id="edge1" class="edge">
<title>pollution&#45;&#45;travail</title>
<path fill="none" stroke="darkgrey" stroke-width="5.91" d="M196.42,-77.57C206.69,-66.01 218.67,-52.51 226.21,-44.02"/>
</g>
<!-- pollution&#45;&#45;destruction -->
<g id="edge2" class="edge">
<title>pollution&#45;&#45;destruction</title>
<path fill="none" stroke="darkgrey" stroke-width="3.96" d="M154.07,-81.29C125.98,-58.76 81.28,-22.9 75.8,-18.51"/>
</g>
<!-- pollution&#45;&#45;nickel -->
<g id="edge3" class="edge">
<title>pollution&#45;&#45;nickel</title>
<path fill="none" stroke="darkgrey" stroke-width="7.76" d="M206.07,-101.04C230.21,-102.25 264.59,-103.97 290.43,-105.26"/>
</g>
<!-- pollution&#45;&#45;économie -->
<g id="edge4" class="edge">
<title>pollution&#45;&#45;économie</title>
<path fill="none" stroke="darkgrey" stroke-width="7.59" d="M202.75,-112.95C211.53,-117.49 221.09,-122.43 228.92,-126.47"/>
</g>
<!-- pollution&#45;&#45;environnement -->
<g id="edge5" class="edge">
<title>pollution&#45;&#45;environnement</title>
<path fill="none" stroke="darkgrey" stroke-width="5.68" d="M170.43,-128.33C167.17,-142.85 163.36,-159.83 160.72,-171.58"/>
</g>
<!-- pollution&#45;&#45;emploi -->
<g id="edge6" class="edge">
<title>pollution&#45;&#45;emploi</title>
<path fill="none" stroke="darkgrey" stroke-width="10" d="M191.46,-124.97C203.58,-146.07 220.32,-175.21 229.8,-191.72"/>
</g>
<!-- travail&#45;&#45;nickel -->
<g id="edge7" class="edge">
<title>travail&#45;&#45;nickel</title>
<path fill="none" stroke="darkgrey" d="M242.55,-42.47C255.16,-52.18 278.8,-70.39 297.77,-85"/>
</g>
<!-- travail&#45;&#45;économie -->
<g id="edge8" class="edge">
<title>travail&#45;&#45;économie</title>
<path fill="none" stroke="darkgrey" stroke-width="1.13" d="M234.95,-46.63C236.94,-63.6 240.78,-96.33 243.18,-116.83"/>
</g>
<!-- nickel&#45;&#45;économie -->
<g id="edge11" class="edge">
<title>nickel&#45;&#45;économie</title>
<path fill="none" stroke="darkgrey" stroke-width="3.4" d="M292.01,-118.89C281.82,-122.39 271.1,-126.07 262.51,-129.03"/>
</g>
<!-- nickel&#45;&#45;emploi -->
<g id="edge12" class="edge">
<title>nickel&#45;&#45;emploi</title>
<path fill="none" stroke="darkgrey" stroke-width="3.49" d="M302.01,-133.68C283.94,-153.39 260.25,-179.23 247.07,-193.61"/>
</g>
<!-- nickel&#45;&#45;camion -->
<g id="edge10" class="edge">
<title>nickel&#45;&#45;camion</title>
<path fill="none" stroke="darkgrey" stroke-width="2.95" d="M361.87,-99.2C393.11,-92.27 436.17,-82.72 452.95,-79"/>
</g>
<!-- nickel&#45;&#45;usine -->
<g id="edge13" class="edge">
<title>nickel&#45;&#45;usine</title>
<path fill="none" stroke="darkgrey" stroke-width="3.05" d="M361.67,-115.09C375.67,-118.28 389.99,-121.54 396.62,-123.05"/>
</g>
<!-- nickel&#45;&#45;sln -->
<g id="edge14" class="edge">
<title>nickel&#45;&#45;sln</title>
<path fill="none" stroke="darkgrey" stroke-width="5.26" d="M332.25,-71.41C336.32,-46.5 341.18,-16.77 342.06,-11.42"/>
</g>
<!-- nickel&#45;&#45;minerai -->
<g id="edge15" class="edge">
<title>nickel&#45;&#45;minerai</title>
<path fill="none" stroke="darkgrey" stroke-width="1.76" d="M345.82,-137.71C366.01,-169.59 395.76,-216.57 403.72,-229.15"/>
</g>
<!-- économie&#45;&#45;environnement -->
<g id="edge16" class="edge">
<title>économie&#45;&#45;environnement</title>
<path fill="none" stroke="darkgrey" stroke-width="8.58" d="M229.6,-144.06C212.64,-153.91 185.92,-169.42 170.21,-178.54"/>
</g>
<!-- économie&#45;&#45;emploi -->
<g id="edge17" class="edge">
<title>économie&#45;&#45;emploi</title>
<path fill="none" stroke="darkgrey" stroke-width="7.84" d="M243.19,-152.84C241.85,-164.27 240.13,-178.9 238.86,-189.67"/>
</g>
<!-- environnement&#45;&#45;emploi -->
<g id="edge18" class="edge">
<title>environnement&#45;&#45;emploi</title>
<path fill="none" stroke="darkgrey" stroke-width="1.11" d="M171.73,-189.24C186.14,-192.59 208.29,-197.75 222.74,-201.12"/>
</g>
<!-- argent&#45;&#45;nickel -->
<g id="edge9" class="edge">
<title>argent&#45;&#45;nickel</title>
<path fill="none" stroke="darkgrey" stroke-width="2.12" d="M416.94,-6.49C407.32,-17.17 374,-54.19 350.59,-80.2"/>
</g>
<!-- pollution -->
<g id="node1" class="node">
<title>pollution</title>
<ellipse fill="#fcb216" stroke="white" stroke-width="0" cx="176.88" cy="-99.59" rx="29" ry="29"/>
<text text-anchor="middle" x="93.88" y="-135.75" font-family="Helvetica,sans-Serif" font-size="24.80" fill="#4d4d4d">pollution</text>
</g>
<!-- travail -->
<g id="node2" class="node">
<title>travail</title>
<ellipse fill="#6d186e" stroke="white" stroke-width="0" cx="233.66" cy="-35.62" rx="11" ry="11"/>
<text text-anchor="middle" x="195.66" y="-51.18" font-family="Helvetica,sans-Serif" font-size="16.80" fill="#4d4d4d">travail</text>
</g>
<!-- destruction -->
<g id="node3" class="node">
<title>destruction</title>
<ellipse fill="#000004" stroke="white" stroke-width="0" cx="75.24" cy="-18.06" rx="0.5" ry="0.5"/>
<text text-anchor="middle" x="40.74" y="-21.96" font-family="Helvetica,sans-Serif" font-size="12.00" fill="#4d4d4d">destruction</text>
</g>
<!-- nickel -->
<g id="node4" class="node">
<title>nickel</title>
<ellipse fill="#fcffa4" stroke="white" stroke-width="0" cx="326.41" cy="-107.06" rx="36" ry="36"/>
<text text-anchor="middle" x="249.41" y="-79.66" font-family="Helvetica,sans-Serif" font-size="28.00" fill="#4d4d4d">nickel</text>
</g>
<!-- économie -->
<g id="node5" class="node">
<title>économie</title>
<ellipse fill="#b43359" stroke="white" stroke-width="0" cx="245.3" cy="-134.94" rx="18" ry="18"/>
<text text-anchor="middle" x="275.8" y="-158.94" font-family="Helvetica,sans-Serif" font-size="20.00" fill="#4d4d4d">économie</text>
</g>
<!-- environnement -->
<g id="node6" class="node">
<title>environnement</title>
<ellipse fill="#82206c" stroke="white" stroke-width="0" cx="157.5" cy="-185.92" rx="14.5" ry="14.5"/>
<text text-anchor="middle" x="71.5" y="-205.7" font-family="Helvetica,sans-Serif" font-size="18.40" fill="#4d4d4d">environnement</text>
</g>
<!-- emploi -->
<g id="node7" class="node">
<title>emploi</title>
<ellipse fill="#85216b" stroke="white" stroke-width="0" cx="237.12" cy="-204.46" rx="14.5" ry="14.5"/>
<text text-anchor="middle" x="190.62" y="-224.24" font-family="Helvetica,sans-Serif" font-size="18.40" fill="#4d4d4d">emploi</text>
</g>
<!-- argent -->
<g id="node8" class="node">
<title>argent</title>
<ellipse fill="#0c0826" stroke="white" stroke-width="0" cx="419.62" cy="-3.5" rx="3.5" ry="3.5"/>
<text text-anchor="middle" x="394.12" y="-11.12" font-family="Helvetica,sans-Serif" font-size="13.60" fill="#4d4d4d">argent</text>
</g>
<!-- camion -->
<g id="node9" class="node">
<title>camion</title>
<ellipse fill="#310a5c" stroke="white" stroke-width="0" cx="460.04" cy="-77.43" rx="7" ry="7"/>
<text text-anchor="middle" x="425.04" y="-89.27" font-family="Helvetica,sans-Serif" font-size="15.20" fill="#4d4d4d">camion</text>
</g>
<!-- usine -->
<g id="node10" class="node">
<title>usine</title>
<ellipse fill="#110a30" stroke="white" stroke-width="0" cx="400.4" cy="-123.91" rx="3.5" ry="3.5"/>
<text text-anchor="middle" x="414.9" y="-131.53" font-family="Helvetica,sans-Serif" font-size="13.60" fill="#4d4d4d">usine</text>
</g>
<!-- sln -->
<g id="node11" class="node">
<title>sln</title>
<ellipse fill="#02020c" stroke="white" stroke-width="0" cx="342.2" cy="-10.57" rx="0.5" ry="0.5"/>
<text text-anchor="middle" x="333.2" y="-14.47" font-family="Helvetica,sans-Serif" font-size="12.00" fill="#4d4d4d">sln</text>
</g>
<!-- minerai -->
<g id="node12" class="node">
<title>minerai</title>
<ellipse fill="#110a30" stroke="white" stroke-width="0" cx="405.75" cy="-232.35" rx="3.5" ry="3.5"/>
<text text-anchor="middle" x="376.25" y="-239.97" font-family="Helvetica,sans-Serif" font-size="13.60" fill="#4d4d4d">minerai</text>
</g>
</g>
</svg>
