<?xml version="1.0" encoding="UTF-8" standalone="no"?>
<!DOCTYPE svg PUBLIC "-//W3C//DTD SVG 1.1//EN"
 "http://www.w3.org/Graphics/SVG/1.1/DTD/svg11.dtd">
<!-- Generated by graphviz version 2.43.0 (0)
 -->
<!-- Pages: 1 -->
<svg width="575pt" height="475pt"
 viewBox="0.00 0.00 575.38 474.53" xmlns="http://www.w3.org/2000/svg" xmlns:xlink="http://www.w3.org/1999/xlink">
<g id="graph0" class="graph" transform="scale(1 1) rotate(0) translate(4 470.53)">
<polygon fill="white" stroke="transparent" points="-4,4 -4,-470.53 571.38,-470.53 571.38,4 -4,4"/>
<!-- pollution&#45;&#45;travail -->
<g id="edge1" class="edge">
<title>pollution&#45;&#45;travail</title>
<path fill="none" stroke="darkgrey" stroke-width="7.21" d="M354.79,-268.46C347.81,-298.43 337.67,-341.91 332.46,-364.27"/>
</g>
<!-- pollution&#45;&#45;richesse -->
<g id="edge2" class="edge">
<title>pollution&#45;&#45;richesse</title>
<path fill="none" stroke="darkgrey" stroke-width="3.29" d="M343.65,-263.45C331.49,-281.05 316.35,-302.98 307.89,-315.23"/>
</g>
<!-- pollution&#45;&#45;destruction -->
<g id="edge3" class="edge">
<title>pollution&#45;&#45;destruction</title>
<path fill="none" stroke="darkgrey" stroke-width="5.26" d="M383.17,-211.1C417.9,-168.9 485.42,-86.87 503.72,-64.63"/>
</g>
<!-- pollution&#45;&#45;argent -->
<g id="edge4" class="edge">
<title>pollution&#45;&#45;argent</title>
<path fill="none" stroke="darkgrey" stroke-width="3.23" d="M331.93,-249.16C292.07,-265.76 224.61,-293.86 203.54,-302.63"/>
</g>
<!-- pollution&#45;&#45;nickel -->
<g id="edge5" class="edge">
<title>pollution&#45;&#45;nickel</title>
<path fill="none" stroke="darkgrey" stroke-width="9.54" d="M330.07,-230.87C329.64,-230.8 329.22,-230.72 328.79,-230.65"/>
</g>
<!-- pollution&#45;&#45;montagne -->
<g id="edge6" class="edge">
<title>pollution&#45;&#45;montagne</title>
<path fill="none" stroke="darkgrey" stroke-width="1.77" d="M386.15,-214.44C393.87,-207.29 401.71,-200.05 406.66,-195.48"/>
</g>
<!-- pollution&#45;&#45;camion -->
<g id="edge7" class="edge">
<title>pollution&#45;&#45;camion</title>
<path fill="none" stroke="darkgrey" stroke-width="3.64" d="M392.03,-223.38C412.55,-214.32 438.58,-202.82 452.85,-196.52"/>
</g>
<!-- pollution&#45;&#45;économie -->
<g id="edge8" class="edge">
<title>pollution&#45;&#45;économie</title>
<path fill="none" stroke="darkgrey" stroke-width="8.74" d="M364.19,-269.09C365.5,-290.81 367.19,-318.75 368.33,-337.72"/>
</g>
<!-- pollution&#45;&#45;environnement -->
<g id="edge9" class="edge">
<title>pollution&#45;&#45;environnement</title>
<path fill="none" stroke="darkgrey" stroke-width="6.74" d="M339.39,-260.19C316.08,-284.33 280.73,-320.92 262.03,-340.28"/>
</g>
<!-- pollution&#45;&#45;emploi -->
<g id="edge10" class="edge">
<title>pollution&#45;&#45;emploi</title>
<path fill="none" stroke="darkgrey" stroke-width="10" d="M347.13,-265.58C330.04,-298.41 302.84,-350.7 289.24,-376.85"/>
</g>
<!-- pollution&#45;&#45;terre -->
<g id="edge11" class="edge">
<title>pollution&#45;&#45;terre</title>
<path fill="none" stroke="darkgrey" stroke-width="1.66" d="M379.72,-264.18C385.48,-273.27 391.35,-282.55 395.06,-288.41"/>
</g>
<!-- pollution&#45;&#45;usine -->
<g id="edge12" class="edge">
<title>pollution&#45;&#45;usine</title>
<path fill="none" stroke="darkgrey" stroke-width="1.99" d="M394.21,-242.67C409.77,-245.65 427.46,-249.04 438.54,-251.16"/>
</g>
<!-- pollution&#45;&#45;exploitation -->
<g id="edge13" class="edge">
<title>pollution&#45;&#45;exploitation</title>
<path fill="none" stroke="darkgrey" stroke-width="1.82" d="M353.98,-205.07C344.52,-168.98 329.52,-111.75 323.31,-88.06"/>
</g>
<!-- pollution&#45;&#45;ressource -->
<g id="edge14" class="edge">
<title>pollution&#45;&#45;ressource</title>
<path fill="none" stroke="darkgrey" stroke-width="1.39" d="M343.47,-209.73C322.81,-180.2 291.04,-134.77 279.85,-118.77"/>
</g>
<!-- pollution&#45;&#45;conflit -->
<g id="edge15" class="edge">
<title>pollution&#45;&#45;conflit</title>
<path fill="none" stroke="darkgrey" stroke-width="2.3" d="M368.51,-268.73C378.15,-318.07 395.99,-409.41 401.07,-435.44"/>
</g>
<!-- pollution&#45;&#45;développement -->
<g id="edge16" class="edge">
<title>pollution&#45;&#45;développement</title>
<path fill="none" stroke="darkgrey" stroke-width="2.84" d="M370.05,-204.63C384.24,-146.79 413.22,-28.6 418.53,-6.95"/>
</g>
<!-- pollution&#45;&#45;minerai -->
<g id="edge17" class="edge">
<title>pollution&#45;&#45;minerai</title>
<path fill="none" stroke="darkgrey" stroke-width="1.64" d="M369.14,-204.69C373.76,-183.39 379.55,-156.69 382.72,-142.09"/>
</g>
<!-- pollution&#45;&#45;déforestation -->
<g id="edge18" class="edge">
<title>pollution&#45;&#45;déforestation</title>
<path fill="none" stroke="darkgrey" stroke-width="2.54" d="M387.97,-256.7C418.23,-280.38 465.88,-317.67 478,-327.16"/>
</g>
<!-- travail&#45;&#45;richesse -->
<g id="edge19" class="edge">
<title>travail&#45;&#45;richesse</title>
<path fill="none" stroke="darkgrey" stroke-width="2.41" d="M322.39,-365.64C317.52,-356.13 311.04,-343.45 306.57,-334.72"/>
</g>
<!-- travail&#45;&#45;nickel -->
<g id="edge20" class="edge">
<title>travail&#45;&#45;nickel</title>
<path fill="none" stroke="darkgrey" stroke-width="3.9" d="M325.76,-364.5C320.24,-340.83 309.01,-292.74 301.26,-259.54"/>
</g>
<!-- travail&#45;&#45;économie -->
<g id="edge21" class="edge">
<title>travail&#45;&#45;économie</title>
<path fill="none" stroke="darkgrey" stroke-width="3.53" d="M342.36,-372.34C344.86,-371.14 347.51,-369.86 350.15,-368.59"/>
</g>
<!-- travail&#45;&#45;environnement -->
<g id="edge22" class="edge">
<title>travail&#45;&#45;environnement</title>
<path fill="none" stroke="darkgrey" stroke-width="3.35" d="M315.2,-374.33C301.73,-370.04 281.25,-363.52 266.72,-358.9"/>
</g>
<!-- travail&#45;&#45;terre -->
<g id="edge23" class="edge">
<title>travail&#45;&#45;terre</title>
<path fill="none" stroke="darkgrey" stroke-width="1.05" d="M338.51,-367.39C353.7,-349.07 383.05,-313.67 394.35,-300.05"/>
</g>
<!-- richesse&#45;&#45;nickel -->
<g id="edge24" class="edge">
<title>richesse&#45;&#45;nickel</title>
<path fill="none" stroke="darkgrey" stroke-width="2.88" d="M300.48,-313.5C299.42,-300.75 297.62,-279.19 296.06,-260.47"/>
</g>
<!-- richesse&#45;&#45;économie -->
<g id="edge25" class="edge">
<title>richesse&#45;&#45;économie</title>
<path fill="none" stroke="darkgrey" stroke-width="2.24" d="M311.47,-329.72C321.63,-334.86 337.57,-342.94 350.2,-349.34"/>
</g>
<!-- richesse&#45;&#45;environnement -->
<g id="edge26" class="edge">
<title>richesse&#45;&#45;environnement</title>
<path fill="none" stroke="darkgrey" stroke-width="1.17" d="M291.37,-330.16C284.05,-334.21 273.97,-339.78 265.52,-344.45"/>
</g>
<!-- richesse&#45;&#45;emploi -->
<g id="edge27" class="edge">
<title>richesse&#45;&#45;emploi</title>
<path fill="none" stroke="darkgrey" stroke-width="1.95" d="M298.21,-335.27C294.99,-345.99 289.97,-362.69 286.17,-375.34"/>
</g>
<!-- richesse&#45;&#45;terre -->
<g id="edge28" class="edge">
<title>richesse&#45;&#45;terre</title>
<path fill="none" stroke="darkgrey" d="M312.22,-321.28C332.45,-315.03 375.5,-301.75 392.16,-296.61"/>
</g>
<!-- argent&#45;&#45;nickel -->
<g id="edge29" class="edge">
<title>argent&#45;&#45;nickel</title>
<path fill="none" stroke="darkgrey" stroke-width="4.22" d="M202.5,-300.74C214.39,-290.7 243.43,-266.2 265.45,-247.62"/>
</g>
<!-- argent&#45;&#45;emploi -->
<g id="edge30" class="edge">
<title>argent&#45;&#45;emploi</title>
<path fill="none" stroke="darkgrey" stroke-width="2.59" d="M202.06,-310.54C214.89,-323.93 249.34,-359.87 268.18,-379.52"/>
</g>
<!-- nickel&#45;&#45;montagne -->
<g id="edge32" class="edge">
<title>nickel&#45;&#45;montagne</title>
<path fill="none" stroke="darkgrey" stroke-width="3.34" d="M327.71,-214.52C354.83,-206.84 390.31,-196.8 404.99,-192.64"/>
</g>
<!-- nickel&#45;&#45;camion -->
<g id="edge33" class="edge">
<title>nickel&#45;&#45;camion</title>
<path fill="none" stroke="darkgrey" stroke-width="5.76" d="M328.75,-217.53C367.78,-210.09 428,-198.61 452.49,-193.94"/>
</g>
<!-- nickel&#45;&#45;économie -->
<g id="edge34" class="edge">
<title>nickel&#45;&#45;économie</title>
<path fill="none" stroke="darkgrey" stroke-width="6.51" d="M311,-255.95C325.85,-282.11 346.46,-318.4 358.88,-340.25"/>
</g>
<!-- nickel&#45;&#45;environnement -->
<g id="edge35" class="edge">
<title>nickel&#45;&#45;environnement</title>
<path fill="none" stroke="darkgrey" stroke-width="4.01" d="M281.46,-258.58C273.02,-283.52 261.94,-316.26 255.25,-336.01"/>
</g>
<!-- nickel&#45;&#45;emploi -->
<g id="edge38" class="edge">
<title>nickel&#45;&#45;emploi</title>
<path fill="none" stroke="darkgrey" stroke-width="6.15" d="M290.44,-260.48C287.91,-295.67 284.17,-347.71 282.22,-374.86"/>
</g>
<!-- nickel&#45;&#45;terre -->
<g id="edge39" class="edge">
<title>nickel&#45;&#45;terre</title>
<path fill="none" stroke="darkgrey" stroke-width="1.82" d="M323.1,-244.26C347.32,-260.31 379.44,-281.6 392.75,-290.42"/>
</g>
<!-- nickel&#45;&#45;usine -->
<g id="edge40" class="edge">
<title>nickel&#45;&#45;usine</title>
<path fill="none" stroke="darkgrey" stroke-width="5.24" d="M328.54,-230.9C363.87,-237.43 415.98,-247.06 438.47,-251.21"/>
</g>
<!-- nickel&#45;&#45;exploitation -->
<g id="edge41" class="edge">
<title>nickel&#45;&#45;exploitation</title>
<path fill="none" stroke="darkgrey" stroke-width="1.9" d="M299.68,-188.73C305.8,-155.91 314.51,-109.2 318.42,-88.21"/>
</g>
<!-- nickel&#45;&#45;ressource -->
<g id="edge43" class="edge">
<title>nickel&#45;&#45;ressource</title>
<path fill="none" stroke="darkgrey" stroke-width="1.88" d="M287.49,-188.48C283.7,-164.06 279.01,-133.79 276.9,-120.18"/>
</g>
<!-- nickel&#45;&#45;minerai -->
<g id="edge44" class="edge">
<title>nickel&#45;&#45;minerai</title>
<path fill="none" stroke="darkgrey" stroke-width="4.7" d="M318.67,-198.42C338.45,-178.42 364.53,-152.05 377.32,-139.13"/>
</g>
<!-- nickel&#45;&#45;déforestation -->
<g id="edge45" class="edge">
<title>nickel&#45;&#45;déforestation</title>
<path fill="none" stroke="darkgrey" stroke-width="1.12" d="M324.48,-241.92C372.11,-268.56 458.95,-317.15 477.38,-327.46"/>
</g>
<!-- nickel&#45;&#45;extraction -->
<g id="edge31" class="edge">
<title>nickel&#45;&#45;extraction</title>
<path fill="none" stroke="darkgrey" stroke-width="1.33" d="M258.08,-233.75C198.79,-249.71 83.85,-280.66 73.2,-283.53"/>
</g>
<!-- nickel&#45;&#45;caillou -->
<g id="edge36" class="edge">
<title>nickel&#45;&#45;caillou</title>
<path fill="none" stroke="darkgrey" stroke-width="1.12" d="M327.93,-215.11C387.88,-199.26 506.13,-167.99 527.77,-162.27"/>
</g>
<!-- nickel&#45;&#45;terre rouge -->
<g id="edge37" class="edge">
<title>nickel&#45;&#45;terre rouge</title>
<path fill="none" stroke="darkgrey" stroke-width="2.37" d="M257.3,-217.89C202.92,-208.08 103.56,-190.15 83.2,-186.48"/>
</g>
<!-- nickel&#45;&#45;sln -->
<g id="edge42" class="edge">
<title>nickel&#45;&#45;sln</title>
<path fill="none" stroke="darkgrey" stroke-width="6.31" d="M263.43,-203.58C219.35,-172.7 139.3,-116.6 117.09,-101.03"/>
</g>
<!-- nickel&#45;&#45;goro -->
<g id="edge46" class="edge">
<title>nickel&#45;&#45;goro</title>
<path fill="none" stroke="darkgrey" stroke-width="1.54" d="M271.39,-195.27C235.08,-146.52 165.23,-52.74 158.76,-44.05"/>
</g>
<!-- montagne&#45;&#45;camion -->
<g id="edge47" class="edge">
<title>montagne&#45;&#45;camion</title>
<path fill="none" stroke="darkgrey" stroke-width="1.34" d="M418.98,-190.87C427.62,-191.06 442.22,-191.39 452.31,-191.61"/>
</g>
<!-- montagne&#45;&#45;terre -->
<g id="edge48" class="edge">
<title>montagne&#45;&#45;terre</title>
<path fill="none" stroke="darkgrey" stroke-width="1.28" d="M410.92,-197.85C408.57,-216.81 402.18,-268.31 399.82,-287.33"/>
</g>
<!-- camion&#45;&#45;terre -->
<g id="edge50" class="edge">
<title>camion&#45;&#45;terre</title>
<path fill="none" stroke="darkgrey" stroke-width="1.08" d="M457.44,-201.33C444.48,-221.98 413.95,-270.59 402.96,-288.1"/>
</g>
<!-- camion&#45;&#45;usine -->
<g id="edge51" class="edge">
<title>camion&#45;&#45;usine</title>
<path fill="none" stroke="darkgrey" stroke-width="1.92" d="M460.9,-202.83C458.37,-214.01 454.46,-231.23 451.93,-242.37"/>
</g>
<!-- camion&#45;&#45;minerai -->
<g id="edge52" class="edge">
<title>camion&#45;&#45;minerai</title>
<path fill="none" stroke="darkgrey" stroke-width="1.43" d="M454.41,-184.91C439.3,-173.23 408.98,-149.8 393.94,-138.17"/>
</g>
<!-- camion&#45;&#45;caillou -->
<g id="edge49" class="edge">
<title>camion&#45;&#45;caillou</title>
<path fill="none" stroke="darkgrey" stroke-width="1.28" d="M473.69,-187.23C489.26,-180.23 517.99,-167.31 527.82,-162.89"/>
</g>
<!-- économie&#45;&#45;environnement -->
<g id="edge53" class="edge">
<title>économie&#45;&#45;environnement</title>
<path fill="none" stroke="darkgrey" stroke-width="8.67" d="M348.13,-358.15C325.16,-357.04 289.15,-355.3 267.55,-354.25"/>
</g>
<!-- économie&#45;&#45;emploi -->
<g id="edge54" class="edge">
<title>économie&#45;&#45;emploi</title>
<path fill="none" stroke="darkgrey" stroke-width="7.87" d="M349.5,-366.82C333.96,-372.71 312.7,-380.77 297.99,-386.35"/>
</g>
<!-- économie&#45;&#45;usine -->
<g id="edge55" class="edge">
<title>économie&#45;&#45;usine</title>
<path fill="none" stroke="darkgrey" stroke-width="1.2" d="M382.81,-341.7C399.99,-318.89 429.41,-279.86 442.65,-262.28"/>
</g>
<!-- économie&#45;&#45;conflit -->
<g id="edge56" class="edge">
<title>économie&#45;&#45;conflit</title>
<path fill="none" stroke="darkgrey" stroke-width="1.31" d="M377.58,-379.36C384.79,-397.67 395,-423.6 399.79,-435.75"/>
</g>
<!-- environnement&#45;&#45;emploi -->
<g id="edge57" class="edge">
<title>environnement&#45;&#45;emploi</title>
<path fill="none" stroke="darkgrey" stroke-width="3.9" d="M260.77,-367.62C263.66,-371.23 266.77,-375.12 269.66,-378.73"/>
</g>
<!-- emploi&#45;&#45;conflit -->
<g id="edge58" class="edge">
<title>emploi&#45;&#45;conflit</title>
<path fill="none" stroke="darkgrey" stroke-width="2.36" d="M297.82,-399.73C325.09,-410.88 377.58,-432.35 395.93,-439.86"/>
</g>
<!-- usine&#45;&#45;minerai -->
<g id="edge59" class="edge">
<title>usine&#45;&#45;minerai</title>
<path fill="none" stroke="darkgrey" stroke-width="3.05" d="M444.19,-243.27C432.05,-220.29 402.25,-163.86 390.22,-141.08"/>
</g>
<!-- exploitation&#45;&#45;ressource -->
<g id="edge60" class="edge">
<title>exploitation&#45;&#45;ressource</title>
<path fill="none" stroke="darkgrey" stroke-width="2.32" d="M311.85,-84.12C302.93,-91.26 289.22,-102.21 281.53,-108.36"/>
</g>
<!-- exploitation&#45;&#45;minerai -->
<g id="edge61" class="edge">
<title>exploitation&#45;&#45;minerai</title>
<path fill="none" stroke="darkgrey" stroke-width="2.4" d="M328.91,-84.31C341.22,-94.61 363.98,-113.66 376.4,-124.06"/>
</g>
<!-- ressource&#45;&#45;minerai -->
<g id="edge63" class="edge">
<title>ressource&#45;&#45;minerai</title>
<path fill="none" stroke="darkgrey" stroke-width="1.81" d="M282.95,-114.16C301.56,-117.28 351.53,-125.68 373.93,-129.44"/>
</g>
<!-- sln&#45;&#45;goro -->
<g id="edge62" class="edge">
<title>sln&#45;&#45;goro</title>
<path fill="none" stroke="darkgrey" stroke-width="1.19" d="M115.91,-91.6C127.07,-78.91 154.54,-47.65 157.93,-43.8"/>
</g>
<!-- pollution -->
<g id="node1" class="node">
<title>pollution</title>
<ellipse fill="#fac026" stroke="white" stroke-width="0" cx="362.23" cy="-236.55" rx="32.5" ry="32.5"/>
<text text-anchor="middle" x="271.73" y="-276.93" font-family="Helvetica,sans-Serif" font-size="26.40" fill="#4d4d4d">pollution</text>
</g>
<!-- travail -->
<g id="node2" class="node">
<title>travail</title>
<ellipse fill="#9f2a63" stroke="white" stroke-width="0" cx="329.09" cy="-378.75" rx="14.5" ry="14.5"/>
<text text-anchor="middle" x="344.59" y="-398.53" font-family="Helvetica,sans-Serif" font-size="18.40" fill="#4d4d4d">travail</text>
</g>
<!-- richesse -->
<g id="node3" class="node">
<title>richesse</title>
<ellipse fill="#69166e" stroke="white" stroke-width="0" cx="301.41" cy="-324.61" rx="11" ry="11"/>
<text text-anchor="middle" x="255.41" y="-318.17" font-family="Helvetica,sans-Serif" font-size="16.80" fill="#4d4d4d">richesse</text>
</g>
<!-- destruction -->
<g id="node4" class="node">
<title>destruction</title>
<ellipse fill="#380962" stroke="white" stroke-width="0" cx="508.39" cy="-58.96" rx="7" ry="7"/>
<text text-anchor="middle" x="457.89" y="-70.8" font-family="Helvetica,sans-Serif" font-size="15.20" fill="#4d4d4d">destruction</text>
</g>
<!-- argent -->
<g id="node5" class="node">
<title>argent</title>
<ellipse fill="#4f0d6c" stroke="white" stroke-width="0" cx="197.06" cy="-305.33" rx="7" ry="7"/>
<text text-anchor="middle" x="165.06" y="-317.17" font-family="Helvetica,sans-Serif" font-size="15.20" fill="#4d4d4d">argent</text>
</g>
<!-- nickel -->
<g id="node6" class="node">
<title>nickel</title>
<ellipse fill="#fcffa4" stroke="white" stroke-width="0" cx="293.04" cy="-224.34" rx="36" ry="36"/>
<text text-anchor="middle" x="216.04" y="-196.94" font-family="Helvetica,sans-Serif" font-size="28.00" fill="#4d4d4d">nickel</text>
</g>
<!-- montagne -->
<g id="node7" class="node">
<title>montagne</title>
<ellipse fill="#3e0966" stroke="white" stroke-width="0" cx="411.81" cy="-190.71" rx="7" ry="7"/>
<text text-anchor="middle" x="365.81" y="-171.55" font-family="Helvetica,sans-Serif" font-size="15.20" fill="#4d4d4d">montagne</text>
</g>
<!-- camion -->
<g id="node8" class="node">
<title>camion</title>
<ellipse fill="#6d186e" stroke="white" stroke-width="0" cx="463.39" cy="-191.86" rx="11" ry="11"/>
<text text-anchor="middle" x="483.39" y="-207.42" font-family="Helvetica,sans-Serif" font-size="16.80" fill="#4d4d4d">camion</text>
</g>
<!-- économie -->
<g id="node9" class="node">
<title>économie</title>
<ellipse fill="#d54a41" stroke="white" stroke-width="0" cx="369.63" cy="-359.19" rx="21.5" ry="21.5"/>
<text text-anchor="middle" x="401.63" y="-320.41" font-family="Helvetica,sans-Serif" font-size="21.60" fill="#4d4d4d">économie</text>
</g>
<!-- environnement -->
<g id="node10" class="node">
<title>environnement</title>
<ellipse fill="#b0315b" stroke="white" stroke-width="0" cx="249.38" cy="-353.38" rx="18" ry="18"/>
<text text-anchor="middle" x="155.38" y="-377.38" font-family="Helvetica,sans-Serif" font-size="20.00" fill="#4d4d4d">environnement</text>
</g>
<!-- emploi -->
<g id="node11" class="node">
<title>emploi</title>
<ellipse fill="#b3325a" stroke="white" stroke-width="0" cx="280.93" cy="-392.82" rx="18" ry="18"/>
<text text-anchor="middle" x="229.43" y="-416.82" font-family="Helvetica,sans-Serif" font-size="20.00" fill="#4d4d4d">emploi</text>
</g>
<!-- terre -->
<g id="node12" class="node">
<title>terre</title>
<ellipse fill="#380962" stroke="white" stroke-width="0" cx="398.93" cy="-294.52" rx="7" ry="7"/>
<text text-anchor="middle" x="373.43" y="-292.36" font-family="Helvetica,sans-Serif" font-size="15.20" fill="#4d4d4d">terre</text>
</g>
<!-- usine -->
<g id="node13" class="node">
<title>usine</title>
<ellipse fill="#540f6d" stroke="white" stroke-width="0" cx="449.46" cy="-253.25" rx="11" ry="11"/>
<text text-anchor="middle" x="461.46" y="-268.81" font-family="Helvetica,sans-Serif" font-size="16.80" fill="#4d4d4d">usine</text>
</g>
<!-- exploitation -->
<g id="node14" class="node">
<title>exploitation</title>
<ellipse fill="#5a116e" stroke="white" stroke-width="0" cx="320.47" cy="-77.24" rx="11" ry="11"/>
<text text-anchor="middle" x="259.47" y="-70.8" font-family="Helvetica,sans-Serif" font-size="16.80" fill="#4d4d4d">exploitation</text>
</g>
<!-- ressource -->
<g id="node15" class="node">
<title>ressource</title>
<ellipse fill="#470b6a" stroke="white" stroke-width="0" cx="275.78" cy="-112.95" rx="7" ry="7"/>
<text text-anchor="middle" x="231.78" y="-124.79" font-family="Helvetica,sans-Serif" font-size="15.20" fill="#4d4d4d">ressource</text>
</g>
<!-- conflit -->
<g id="node16" class="node">
<title>conflit</title>
<ellipse fill="#380962" stroke="white" stroke-width="0" cx="402.46" cy="-442.53" rx="7" ry="7"/>
<text text-anchor="middle" x="371.46" y="-454.37" font-family="Helvetica,sans-Serif" font-size="15.20" fill="#4d4d4d">conflit</text>
</g>
<!-- développement -->
<g id="node17" class="node">
<title>développement</title>
<ellipse fill="#060419" stroke="white" stroke-width="0" cx="419.37" cy="-3.5" rx="3.5" ry="3.5"/>
<text text-anchor="middle" x="361.87" y="-11.12" font-family="Helvetica,sans-Serif" font-size="13.60" fill="#4d4d4d">développement</text>
</g>
<!-- minerai -->
<g id="node18" class="node">
<title>minerai</title>
<ellipse fill="#540f6d" stroke="white" stroke-width="0" cx="385.06" cy="-131.31" rx="11" ry="11"/>
<text text-anchor="middle" x="342.06" y="-146.87" font-family="Helvetica,sans-Serif" font-size="16.80" fill="#4d4d4d">minerai</text>
</g>
<!-- déforestation -->
<g id="node19" class="node">
<title>déforestation</title>
<ellipse fill="#10092d" stroke="white" stroke-width="0" cx="480.88" cy="-329.41" rx="3.5" ry="3.5"/>
<text text-anchor="middle" x="522.38" y="-337.03" font-family="Helvetica,sans-Serif" font-size="13.60" fill="#4d4d4d">déforestation</text>
</g>
<!-- extraction -->
<g id="node20" class="node">
<title>extraction</title>
<ellipse fill="#010005" stroke="white" stroke-width="0" cx="72.41" cy="-283.74" rx="0.5" ry="0.5"/>
<text text-anchor="middle" x="41.41" y="-287.64" font-family="Helvetica,sans-Serif" font-size="12.00" fill="#4d4d4d">extraction</text>
</g>
<!-- caillou -->
<g id="node21" class="node">
<title>caillou</title>
<ellipse fill="#0b0724" stroke="white" stroke-width="0" cx="531.22" cy="-161.36" rx="3.5" ry="3.5"/>
<text text-anchor="middle" x="505.72" y="-168.98" font-family="Helvetica,sans-Serif" font-size="13.60" fill="#4d4d4d">caillou</text>
</g>
<!-- terre rouge -->
<g id="node22" class="node">
<title>terre rouge</title>
<ellipse fill="#040312" stroke="white" stroke-width="0" cx="79.5" cy="-185.81" rx="3.5" ry="3.5"/>
<text text-anchor="middle" x="38" y="-193.43" font-family="Helvetica,sans-Serif" font-size="13.60" fill="#4d4d4d">terre rouge</text>
</g>
<!-- sln -->
<g id="node23" class="node">
<title>sln</title>
<ellipse fill="#3e0966" stroke="white" stroke-width="0" cx="111.23" cy="-96.93" rx="7" ry="7"/>
<text text-anchor="middle" x="92.73" y="-108.77" font-family="Helvetica,sans-Serif" font-size="15.20" fill="#4d4d4d">sln</text>
</g>
<!-- goro -->
<g id="node24" class="node">
<title>goro</title>
<ellipse fill="#000004" stroke="white" stroke-width="0" cx="158.27" cy="-43.4" rx="0.5" ry="0.5"/>
<text text-anchor="middle" x="143.77" y="-47.3" font-family="Helvetica,sans-Serif" font-size="12.00" fill="#4d4d4d">goro</text>
</g>
</g>
</svg>
