<?xml version="1.0" encoding="UTF-8" standalone="no"?>
<!DOCTYPE svg PUBLIC "-//W3C//DTD SVG 1.1//EN"
 "http://www.w3.org/Graphics/SVG/1.1/DTD/svg11.dtd">
<!-- Generated by graphviz version 2.43.0 (0)
 -->
<!-- Pages: 1 -->
<svg width="499pt" height="179pt"
 viewBox="0.00 0.00 499.42 178.92" xmlns="http://www.w3.org/2000/svg" xmlns:xlink="http://www.w3.org/1999/xlink">
<g id="graph0" class="graph" transform="scale(1 1) rotate(0) translate(4 174.92)">
<polygon fill="white" stroke="transparent" points="-4,4 -4,-174.92 495.42,-174.92 495.42,4 -4,4"/>
<!-- emploi&#45;&#45;pollution -->
<g id="edge1" class="edge">
<title>emploi&#45;&#45;pollution</title>
<path fill="none" stroke="darkgrey" stroke-width="3.36" d="M195.74,-72.15C210.95,-62.11 236.86,-45 254.32,-33.48"/>
</g>
<!-- emploi&#45;&#45;impact environnemental -->
<g id="edge2" class="edge">
<title>emploi&#45;&#45;impact environnemental</title>
<path fill="none" stroke="darkgrey" stroke-width="2.93" d="M198.08,-80.77C208.46,-81.09 222.85,-81.52 236.22,-81.93"/>
</g>
<!-- emploi&#45;&#45;économie du pays -->
<g id="edge3" class="edge">
<title>emploi&#45;&#45;économie du pays</title>
<path fill="none" stroke="darkgrey" stroke-width="1.42" d="M190.18,-93.38C198.54,-109.36 212.19,-135.44 217.01,-144.66"/>
</g>
<!-- emploi&#45;&#45;amélioration environnementale -->
<g id="edge4" class="edge">
<title>emploi&#45;&#45;amélioration environnementale</title>
<path fill="none" stroke="darkgrey" stroke-width="1.35" d="M172.41,-70C164.89,-62.89 155.05,-53.61 148.2,-47.14"/>
</g>
<!-- pollution&#45;&#45;impact environnemental -->
<g id="edge6" class="edge">
<title>pollution&#45;&#45;impact environnemental</title>
<path fill="none" stroke="darkgrey" stroke-width="10" d="M272.48,-43.02C272.49,-44.27 272.49,-45.54 272.49,-46.82"/>
</g>
<!-- pollution&#45;&#45;économie du pays -->
<g id="edge7" class="edge">
<title>pollution&#45;&#45;économie du pays</title>
<path fill="none" stroke="darkgrey" d="M263.96,-41.55C250.83,-72.48 226.49,-129.83 220.25,-144.52"/>
</g>
<!-- pollution&#45;&#45;épuisement de la ressource -->
<g id="edge5" class="edge">
<title>pollution&#45;&#45;épuisement de la ressource</title>
<path fill="none" stroke="darkgrey" stroke-width="2.3" d="M294.15,-20.1C320.86,-18.38 364.27,-15.59 377.18,-14.75"/>
</g>
<!-- impact environnemental&#45;&#45;économie du pays -->
<g id="edge10" class="edge">
<title>impact environnemental&#45;&#45;économie du pays</title>
<path fill="none" stroke="darkgrey" stroke-width="2.17" d="M249.41,-110.96C238.26,-124.45 226.22,-139 221.19,-145.09"/>
</g>
<!-- impact environnemental&#45;&#45;amélioration environnementale -->
<g id="edge11" class="edge">
<title>impact environnemental&#45;&#45;amélioration environnementale</title>
<path fill="none" stroke="darkgrey" stroke-width="1.13" d="M238.05,-71.67C209.06,-62.13 169.43,-49.08 150.68,-42.91"/>
</g>
<!-- impact environnemental&#45;&#45;conflit -->
<g id="edge9" class="edge">
<title>impact environnemental&#45;&#45;conflit</title>
<path fill="none" stroke="darkgrey" stroke-width="1.91" d="M296.43,-110.44C314.3,-130.93 336.29,-156.15 340.26,-160.7"/>
</g>
<!-- épuisement de la ressource&#45;&#45;impact environnemental -->
<g id="edge8" class="edge">
<title>épuisement de la ressource&#45;&#45;impact environnemental</title>
<path fill="none" stroke="darkgrey" stroke-width="2.81" d="M377.79,-16.49C366.96,-23.33 330.24,-46.54 303.2,-63.63"/>
</g>
<!-- emploi -->
<g id="node1" class="node">
<title>emploi</title>
<ellipse fill="#7d1e6d" stroke="white" stroke-width="0" cx="183.35" cy="-80.33" rx="14.5" ry="14.5"/>
<text text-anchor="middle" x="154.85" y="-97.43" font-family="Helvetica,sans-Serif" font-size="8.00" fill="#4d4d4d">emploi</text>
</g>
<!-- pollution -->
<g id="node2" class="node">
<title>pollution</title>
<ellipse fill="#d94d3d" stroke="white" stroke-width="0" cx="272.46" cy="-21.5" rx="21.5" ry="21.5"/>
<text text-anchor="middle" x="232.46" y="-2.6" font-family="Helvetica,sans-Serif" font-size="8.00" fill="#4d4d4d">pollution</text>
</g>
<!-- impact environnemental -->
<g id="node3" class="node">
<title>impact environnemental</title>
<ellipse fill="#fcffa4" stroke="white" stroke-width="0" cx="272.52" cy="-83.02" rx="36" ry="36"/>
<text text-anchor="middle" x="186.52" y="-121.62" font-family="Helvetica,sans-Serif" font-size="8.00" fill="#4d4d4d">impact environnemental</text>
</g>
<!-- économie du pays -->
<g id="node4" class="node">
<title>économie du pays</title>
<ellipse fill="#0e092b" stroke="white" stroke-width="0" cx="218.77" cy="-148.02" rx="3.5" ry="3.5"/>
<text text-anchor="middle" x="177.27" y="-154.12" font-family="Helvetica,sans-Serif" font-size="8.00" fill="#4d4d4d">économie du pays</text>
</g>
<!-- amélioration environnementale -->
<g id="node5" class="node">
<title>amélioration environnementale</title>
<ellipse fill="#751b6e" stroke="white" stroke-width="0" cx="140" cy="-39.39" rx="11" ry="11"/>
<text text-anchor="middle" x="64.5" y="-52.99" font-family="Helvetica,sans-Serif" font-size="8.00" fill="#4d4d4d">amélioration environnementale</text>
</g>
<!-- épuisement de la ressource -->
<g id="node6" class="node">
<title>épuisement de la ressource</title>
<ellipse fill="#140b34" stroke="white" stroke-width="0" cx="380.92" cy="-14.51" rx="3.5" ry="3.5"/>
<text text-anchor="middle" x="434.42" y="-20.61" font-family="Helvetica,sans-Serif" font-size="8.00" fill="#4d4d4d">épuisement de la ressource</text>
</g>
<!-- conflit -->
<g id="node7" class="node">
<title>conflit</title>
<ellipse fill="#000004" stroke="white" stroke-width="0" cx="340.89" cy="-161.42" rx="0.5" ry="0.5"/>
<text text-anchor="middle" x="327.39" y="-164.52" font-family="Helvetica,sans-Serif" font-size="8.00" fill="#4d4d4d">conflit</text>
</g>
</g>
</svg>
