<?xml version="1.0" encoding="UTF-8" standalone="no"?>
<!DOCTYPE svg PUBLIC "-//W3C//DTD SVG 1.1//EN"
 "http://www.w3.org/Graphics/SVG/1.1/DTD/svg11.dtd">
<!-- Generated by graphviz version 2.43.0 (0)
 -->
<!-- Pages: 1 -->
<svg width="733pt" height="426pt"
 viewBox="0.00 0.00 732.84 426.35" xmlns="http://www.w3.org/2000/svg" xmlns:xlink="http://www.w3.org/1999/xlink">
<g id="graph0" class="graph" transform="scale(1 1) rotate(0) translate(4 422.35)">
<polygon fill="white" stroke="transparent" points="-4,4 -4,-422.35 728.84,-422.35 728.84,4 -4,4"/>
<!-- pollution&#45;&#45;dégradation environnementale -->
<g id="edge1" class="edge">
<title>pollution&#45;&#45;dégradation environnementale</title>
<path fill="none" stroke="darkgrey" stroke-width="10" d="M331.89,-124.92C351.59,-141.78 388.28,-173.18 412.8,-194.16"/>
</g>
<!-- pollution&#45;&#45;nouvelle&#45;calédonie -->
<g id="edge2" class="edge">
<title>pollution&#45;&#45;nouvelle&#45;calédonie</title>
<path fill="none" stroke="darkgrey" stroke-width="1.19" d="M332.79,-124.2C377.5,-157.86 510.87,-258.28 532.45,-274.53"/>
</g>
<!-- pollution&#45;&#45;travail -->
<g id="edge3" class="edge">
<title>pollution&#45;&#45;travail</title>
<path fill="none" stroke="darkgrey" stroke-width="6.64" d="M329.08,-128.03C338.43,-140.76 351.92,-159.15 361.8,-172.6"/>
</g>
<!-- pollution&#45;&#45;économie -->
<g id="edge4" class="edge">
<title>pollution&#45;&#45;économie</title>
<path fill="none" stroke="darkgrey" stroke-width="5.4" d="M306.72,-127.5C298.45,-137.81 287.32,-151.67 279.05,-161.96"/>
</g>
<!-- pollution&#45;&#45;nickel -->
<g id="edge5" class="edge">
<title>pollution&#45;&#45;nickel</title>
<path fill="none" stroke="darkgrey" stroke-width="4.77" d="M331.68,-100.87C335.97,-96.94 340.88,-92.45 345.78,-87.96"/>
</g>
<!-- pollution&#45;&#45;ressource minière -->
<g id="edge6" class="edge">
<title>pollution&#45;&#45;ressource minière</title>
<path fill="none" stroke="darkgrey" stroke-width="1.74" d="M336.44,-114.57C370.76,-117.13 443.95,-122.59 471.75,-124.66"/>
</g>
<!-- pollution&#45;&#45;politique -->
<g id="edge7" class="edge">
<title>pollution&#45;&#45;politique</title>
<path fill="none" stroke="darkgrey" stroke-width="2.78" d="M313.87,-130.82C306.08,-162.49 289.85,-228.48 282.68,-257.67"/>
</g>
<!-- pollution&#45;&#45;secteur nickel -->
<g id="edge8" class="edge">
<title>pollution&#45;&#45;secteur nickel</title>
<path fill="none" stroke="darkgrey" stroke-width="2.53" d="M328.31,-128.54C350.35,-161.95 402.5,-241.01 424.44,-274.27"/>
</g>
<!-- pollution&#45;&#45;nature -->
<g id="edge9" class="edge">
<title>pollution&#45;&#45;nature</title>
<path fill="none" stroke="darkgrey" stroke-width="3.5" d="M335.79,-117.09C348.65,-119.92 365.88,-123.72 377.94,-126.38"/>
</g>
<!-- pollution&#45;&#45;exploitation minière -->
<g id="edge10" class="edge">
<title>pollution&#45;&#45;exploitation minière</title>
<path fill="none" stroke="darkgrey" stroke-width="1.84" d="M322.43,-130.74C332.89,-174.13 359.76,-285.59 368.3,-320.99"/>
</g>
<!-- pollution&#45;&#45;alternative au développement -->
<g id="edge11" class="edge">
<title>pollution&#45;&#45;alternative au développement</title>
<path fill="none" stroke="darkgrey" stroke-width="1.65" d="M302.65,-103.82C271.2,-84.84 201.71,-42.89 185.86,-33.32"/>
</g>
<!-- pollution&#45;&#45;matériel -->
<g id="edge12" class="edge">
<title>pollution&#45;&#45;matériel</title>
<path fill="none" stroke="darkgrey" stroke-width="2.61" d="M320.37,-131.2C323.25,-155.03 328.27,-196.62 330.93,-218.68"/>
</g>
<!-- pollution&#45;&#45;industrie -->
<g id="edge13" class="edge">
<title>pollution&#45;&#45;industrie</title>
<path fill="none" stroke="darkgrey" stroke-width="2.36" d="M334.98,-120.23C368.97,-134.44 445.62,-166.49 479.68,-180.73"/>
</g>
<!-- dégradation environnementale&#45;&#45;nouvelle&#45;calédonie -->
<g id="edge14" class="edge">
<title>dégradation environnementale&#45;&#45;nouvelle&#45;calédonie</title>
<path fill="none" stroke="darkgrey" stroke-width="1.32" d="M465.03,-232.58C489.24,-247.78 522.16,-268.44 532.31,-274.81"/>
</g>
<!-- dégradation environnementale&#45;&#45;travail -->
<g id="edge15" class="edge">
<title>dégradation environnementale&#45;&#45;travail</title>
<path fill="none" stroke="darkgrey" stroke-width="7.73" d="M407.16,-203.12C402.89,-201.41 398.59,-199.68 394.58,-198.07"/>
</g>
<!-- dégradation environnementale&#45;&#45;économie -->
<g id="edge16" class="edge">
<title>dégradation environnementale&#45;&#45;économie</title>
<path fill="none" stroke="darkgrey" stroke-width="7.74" d="M405.54,-207.94C369.98,-199.76 313.79,-186.82 285.36,-180.28"/>
</g>
<!-- dégradation environnementale&#45;&#45;nickel -->
<g id="edge17" class="edge">
<title>dégradation environnementale&#45;&#45;nickel</title>
<path fill="none" stroke="darkgrey" stroke-width="9.19" d="M424.7,-185.26C413.79,-159.65 398.13,-122.88 386.86,-96.42"/>
</g>
<!-- dégradation environnementale&#45;&#45;ressource minière -->
<g id="edge18" class="edge">
<title>dégradation environnementale&#45;&#45;ressource minière</title>
<path fill="none" stroke="darkgrey" stroke-width="4" d="M452.32,-185.89C461.09,-168.49 471.65,-147.56 477.75,-135.46"/>
</g>
<!-- dégradation environnementale&#45;&#45;politique -->
<g id="edge19" class="edge">
<title>dégradation environnementale&#45;&#45;politique</title>
<path fill="none" stroke="darkgrey" stroke-width="4.03" d="M406.58,-226.38C372.2,-238.71 318.17,-258.09 292.96,-267.14"/>
</g>
<!-- dégradation environnementale&#45;&#45;secteur nickel -->
<g id="edge20" class="edge">
<title>dégradation environnementale&#45;&#45;secteur nickel</title>
<path fill="none" stroke="darkgrey" stroke-width="3.83" d="M436.15,-248.03C435.82,-255.95 435.49,-264.13 435.2,-271.11"/>
</g>
<!-- dégradation environnementale&#45;&#45;nature -->
<g id="edge21" class="edge">
<title>dégradation environnementale&#45;&#45;nature</title>
<path fill="none" stroke="darkgrey" stroke-width="5.35" d="M422.23,-186.27C414.47,-171.51 405.41,-154.29 399.33,-142.73"/>
</g>
<!-- dégradation environnementale&#45;&#45;exploitation minière -->
<g id="edge23" class="edge">
<title>dégradation environnementale&#45;&#45;exploitation minière</title>
<path fill="none" stroke="darkgrey" stroke-width="3.66" d="M421.38,-243.54C406.84,-269.03 386.28,-305.08 376.51,-322.2"/>
</g>
<!-- dégradation environnementale&#45;&#45;alternative au développement -->
<g id="edge24" class="edge">
<title>dégradation environnementale&#45;&#45;alternative au développement</title>
<path fill="none" stroke="darkgrey" stroke-width="1.96" d="M410.7,-195.96C350.37,-152.42 207.42,-49.27 185.45,-33.41"/>
</g>
<!-- dégradation environnementale&#45;&#45;matériel -->
<g id="edge25" class="edge">
<title>dégradation environnementale&#45;&#45;matériel</title>
<path fill="none" stroke="darkgrey" stroke-width="4.31" d="M405.2,-220.87C385.84,-224.21 362.16,-228.3 347.25,-230.87"/>
</g>
<!-- dégradation environnementale&#45;&#45;industrie -->
<g id="edge27" class="edge">
<title>dégradation environnementale&#45;&#45;industrie</title>
<path fill="none" stroke="darkgrey" stroke-width="3.17" d="M467.02,-201.54C471.52,-199.44 476.01,-197.35 480.09,-195.45"/>
</g>
<!-- dégradation environnementale&#45;&#45;société néo&#45;calédonienne -->
<g id="edge22" class="edge">
<title>dégradation environnementale&#45;&#45;société néo&#45;calédonienne</title>
<path fill="none" stroke="darkgrey" stroke-width="1.7" d="M416.55,-240.21C377.19,-287.01 294.77,-385.02 279.66,-402.98"/>
</g>
<!-- dégradation environnementale&#45;&#45;foncier -->
<g id="edge26" class="edge">
<title>dégradation environnementale&#45;&#45;foncier</title>
<path fill="none" stroke="darkgrey" stroke-width="2.07" d="M446.45,-183.59C461.44,-130.5 490.55,-27.44 496.31,-7.05"/>
</g>
<!-- dégradation environnementale&#45;&#45;risque -->
<g id="edge28" class="edge">
<title>dégradation environnementale&#45;&#45;risque</title>
<path fill="none" stroke="darkgrey" stroke-width="1.59" d="M470.12,-215.56C542.95,-216.16 713.25,-217.56 723.82,-217.65"/>
</g>
<!-- dégradation environnementale&#45;&#45;échange commercial -->
<g id="edge29" class="edge">
<title>dégradation environnementale&#45;&#45;échange commercial</title>
<path fill="none" stroke="darkgrey" stroke-width="1.88" d="M404.75,-217.21C353.16,-220.22 256.02,-225.9 229.03,-227.47"/>
</g>
<!-- nouvelle&#45;calédonie&#45;&#45;travail -->
<g id="edge30" class="edge">
<title>nouvelle&#45;calédonie&#45;&#45;travail</title>
<path fill="none" stroke="darkgrey" stroke-width="1.4" d="M532.05,-274.95C514.38,-265.42 431.48,-220.72 393.59,-200.29"/>
</g>
<!-- nouvelle&#45;calédonie&#45;&#45;économie -->
<g id="edge31" class="edge">
<title>nouvelle&#45;calédonie&#45;&#45;économie</title>
<path fill="none" stroke="darkgrey" stroke-width="1.09" d="M532.03,-275.49C506.11,-265.76 338.76,-202.91 284.54,-182.55"/>
</g>
<!-- nouvelle&#45;calédonie&#45;&#45;nickel -->
<g id="edge32" class="edge">
<title>nouvelle&#45;calédonie&#45;&#45;nickel</title>
<path fill="none" stroke="darkgrey" stroke-width="2.65" d="M533.11,-273.74C518.25,-254.23 435.06,-145.06 394.7,-92.1"/>
</g>
<!-- nouvelle&#45;calédonie&#45;&#45;ressource minière -->
<g id="edge33" class="edge">
<title>nouvelle&#45;calédonie&#45;&#45;ressource minière</title>
<path fill="none" stroke="darkgrey" stroke-width="1.13" d="M534.22,-273.32C527.79,-254.84 497.29,-167.2 486.54,-136.3"/>
</g>
<!-- nouvelle&#45;calédonie&#45;&#45;politique -->
<g id="edge34" class="edge">
<title>nouvelle&#45;calédonie&#45;&#45;politique</title>
<path fill="none" stroke="darkgrey" stroke-width="1.89" d="M531.79,-276.69C505.51,-276.22 343.7,-273.27 293.78,-272.36"/>
</g>
<!-- nouvelle&#45;calédonie&#45;&#45;secteur nickel -->
<g id="edge35" class="edge">
<title>nouvelle&#45;calédonie&#45;&#45;secteur nickel</title>
<path fill="none" stroke="darkgrey" stroke-width="1.44" d="M531.58,-277.24C518.76,-278.85 476.81,-284.12 452.43,-287.18"/>
</g>
<!-- nouvelle&#45;calédonie&#45;&#45;industrie -->
<g id="edge36" class="edge">
<title>nouvelle&#45;calédonie&#45;&#45;industrie</title>
<path fill="none" stroke="darkgrey" stroke-width="1.29" d="M533.94,-273.38C529.06,-262.21 513.21,-225.94 503.79,-204.36"/>
</g>
<!-- travail&#45;&#45;économie -->
<g id="edge37" class="edge">
<title>travail&#45;&#45;économie</title>
<path fill="none" stroke="darkgrey" stroke-width="7.73" d="M353.22,-187.29C333.46,-184.73 304.43,-180.97 285.78,-178.55"/>
</g>
<!-- travail&#45;&#45;nickel -->
<g id="edge38" class="edge">
<title>travail&#45;&#45;nickel</title>
<path fill="none" stroke="darkgrey" stroke-width="8.12" d="M374.3,-168.55C374.02,-149.62 373.6,-121.66 373.27,-99.32"/>
</g>
<!-- travail&#45;&#45;ressource minière -->
<g id="edge39" class="edge">
<title>travail&#45;&#45;ressource minière</title>
<path fill="none" stroke="darkgrey" stroke-width="3.18" d="M393.46,-178.81C416.7,-164.94 455.32,-141.88 473.18,-131.21"/>
</g>
<!-- travail&#45;&#45;politique -->
<g id="edge40" class="edge">
<title>travail&#45;&#45;politique</title>
<path fill="none" stroke="darkgrey" stroke-width="3.96" d="M357.98,-204.35C338.53,-221.06 306.88,-248.25 290.21,-262.57"/>
</g>
<!-- travail&#45;&#45;secteur nickel -->
<g id="edge41" class="edge">
<title>travail&#45;&#45;secteur nickel</title>
<path fill="none" stroke="darkgrey" stroke-width="4.93" d="M385.87,-208.75C397.18,-227.53 414.4,-256.15 425.02,-273.78"/>
</g>
<!-- travail&#45;&#45;nature -->
<g id="edge42" class="edge">
<title>travail&#45;&#45;nature</title>
<path fill="none" stroke="darkgrey" stroke-width="3.11" d="M380.74,-169.24C383.23,-160.77 386.05,-151.2 388.29,-143.58"/>
</g>
<!-- travail&#45;&#45;exploitation minière -->
<g id="edge44" class="edge">
<title>travail&#45;&#45;exploitation minière</title>
<path fill="none" stroke="darkgrey" stroke-width="2.92" d="M374.06,-211.61C373.26,-242.31 371.83,-297.52 371.23,-320.96"/>
</g>
<!-- travail&#45;&#45;alternative au développement -->
<g id="edge45" class="edge">
<title>travail&#45;&#45;alternative au développement</title>
<path fill="none" stroke="darkgrey" stroke-width="1.04" d="M357.91,-176.25C315.21,-140.96 204.09,-49.12 185.31,-33.6"/>
</g>
<!-- travail&#45;&#45;matériel -->
<g id="edge46" class="edge">
<title>travail&#45;&#45;matériel</title>
<path fill="none" stroke="darkgrey" stroke-width="3.54" d="M359.49,-205.7C353.95,-211.42 347.83,-217.75 342.84,-222.91"/>
</g>
<!-- travail&#45;&#45;industrie -->
<g id="edge49" class="edge">
<title>travail&#45;&#45;industrie</title>
<path fill="none" stroke="darkgrey" stroke-width="3.65" d="M396.13,-189.66C419.51,-189.22 456.46,-188.53 478.42,-188.12"/>
</g>
<!-- travail&#45;&#45;société néo&#45;calédonienne -->
<g id="edge43" class="edge">
<title>travail&#45;&#45;société néo&#45;calédonienne</title>
<path fill="none" stroke="darkgrey" stroke-width="1.59" d="M365.63,-209.97C343.7,-258.59 288.48,-380.97 278.74,-402.56"/>
</g>
<!-- travail&#45;&#45;foncier -->
<g id="edge47" class="edge">
<title>travail&#45;&#45;foncier</title>
<path fill="none" stroke="darkgrey" stroke-width="1.16" d="M386.6,-171.83C414.58,-129.29 482.78,-25.61 495.32,-6.54"/>
</g>
<!-- travail&#45;&#45;risque -->
<g id="edge50" class="edge">
<title>travail&#45;&#45;risque</title>
<path fill="none" stroke="darkgrey" stroke-width="1.64" d="M396.23,-191.77C470.09,-197.59 708.77,-216.43 723.61,-217.6"/>
</g>
<!-- travail&#45;&#45;échange commercial -->
<g id="edge51" class="edge">
<title>travail&#45;&#45;échange commercial</title>
<path fill="none" stroke="darkgrey" stroke-width="1.68" d="M353.7,-195.24C318.9,-203.86 250.77,-220.74 228.87,-226.16"/>
</g>
<!-- travail&#45;&#45;relation politique -->
<g id="edge48" class="edge">
<title>travail&#45;&#45;relation politique</title>
<path fill="none" stroke="darkgrey" d="M352.74,-189.98C285.19,-189.72 83.64,-188.95 71.11,-188.9"/>
</g>
<!-- économie&#45;&#45;nickel -->
<g id="edge52" class="edge">
<title>économie&#45;&#45;nickel</title>
<path fill="none" stroke="darkgrey" stroke-width="6.08" d="M280.09,-162.8C296.73,-144.92 326.58,-112.87 347.9,-89.96"/>
</g>
<!-- économie&#45;&#45;ressource minière -->
<g id="edge53" class="edge">
<title>économie&#45;&#45;ressource minière</title>
<path fill="none" stroke="darkgrey" stroke-width="2.04" d="M285.23,-172.05C328.18,-161.92 437.37,-136.19 472.04,-128.01"/>
</g>
<!-- économie&#45;&#45;politique -->
<g id="edge54" class="edge">
<title>économie&#45;&#45;politique</title>
<path fill="none" stroke="darkgrey" stroke-width="4.49" d="M269.79,-194.24C271.99,-212.57 275.35,-240.63 277.39,-257.58"/>
</g>
<!-- économie&#45;&#45;secteur nickel -->
<g id="edge55" class="edge">
<title>économie&#45;&#45;secteur nickel</title>
<path fill="none" stroke="darkgrey" stroke-width="3.17" d="M282.72,-186.45C314.48,-208.01 387.88,-257.83 419.5,-279.3"/>
</g>
<!-- économie&#45;&#45;nature -->
<g id="edge56" class="edge">
<title>économie&#45;&#45;nature</title>
<path fill="none" stroke="darkgrey" stroke-width="2.42" d="M284.71,-169.81C309.68,-160.48 355.64,-143.31 378.6,-134.73"/>
</g>
<!-- économie&#45;&#45;exploitation minière -->
<g id="edge58" class="edge">
<title>économie&#45;&#45;exploitation minière</title>
<path fill="none" stroke="darkgrey" stroke-width="1.6" d="M277.72,-191.42C298.94,-223.41 347.65,-296.84 364.82,-322.72"/>
</g>
<!-- économie&#45;&#45;alternative au développement -->
<g id="edge59" class="edge">
<title>économie&#45;&#45;alternative au développement</title>
<path fill="none" stroke="darkgrey" stroke-width="1.2" d="M258.36,-160.42C238.73,-126.99 193.97,-50.73 184.41,-34.45"/>
</g>
<!-- économie&#45;&#45;matériel -->
<g id="edge60" class="edge">
<title>économie&#45;&#45;matériel</title>
<path fill="none" stroke="darkgrey" stroke-width="1.95" d="M281.42,-188.32C293.37,-198.82 310.41,-213.79 321.52,-223.55"/>
</g>
<!-- économie&#45;&#45;industrie -->
<g id="edge62" class="edge">
<title>économie&#45;&#45;industrie</title>
<path fill="none" stroke="darkgrey" stroke-width="2.34" d="M285.97,-177.13C328.94,-179.3 435.69,-184.7 478.43,-186.86"/>
</g>
<!-- économie&#45;&#45;société néo&#45;calédonienne -->
<g id="edge57" class="edge">
<title>économie&#45;&#45;société néo&#45;calédonienne</title>
<path fill="none" stroke="darkgrey" stroke-width="1.06" d="M268.38,-194.22C270.45,-243.49 276.11,-378.38 277.11,-402.22"/>
</g>
<!-- économie&#45;&#45;échange commercial -->
<g id="edge63" class="edge">
<title>économie&#45;&#45;échange commercial</title>
<path fill="none" stroke="darkgrey" stroke-width="1.38" d="M255.61,-189.78C246.3,-200.31 233.86,-214.37 226.99,-222.13"/>
</g>
<!-- économie&#45;&#45;relation politique -->
<g id="edge61" class="edge">
<title>économie&#45;&#45;relation politique</title>
<path fill="none" stroke="darkgrey" stroke-width="1.03" d="M249.43,-177.37C202.92,-180.37 82.52,-188.12 71.34,-188.84"/>
</g>
<!-- nickel&#45;&#45;ressource minière -->
<g id="edge64" class="edge">
<title>nickel&#45;&#45;ressource minière</title>
<path fill="none" stroke="darkgrey" stroke-width="5.29" d="M404.27,-81.1C427.64,-94.31 457.98,-111.46 473.19,-120.06"/>
</g>
<!-- nickel&#45;&#45;politique -->
<g id="edge65" class="edge">
<title>nickel&#45;&#45;politique</title>
<path fill="none" stroke="darkgrey" stroke-width="2.45" d="M357.91,-96.37C336.98,-143.06 299.7,-226.2 285.17,-258.62"/>
</g>
<!-- nickel&#45;&#45;secteur nickel -->
<g id="edge66" class="edge">
<title>nickel&#45;&#45;secteur nickel</title>
<path fill="none" stroke="darkgrey" stroke-width="6.13" d="M382.25,-98.12C395.63,-147.19 419.54,-234.8 429.69,-271.99"/>
</g>
<!-- nickel&#45;&#45;nature -->
<g id="edge67" class="edge">
<title>nickel&#45;&#45;nature</title>
<path fill="none" stroke="darkgrey" stroke-width="5.53" d="M383.04,-97.98C384.9,-104.24 386.73,-110.43 388.28,-115.65"/>
</g>
<!-- nickel&#45;&#45;exploitation minière -->
<g id="edge68" class="edge">
<title>nickel&#45;&#45;exploitation minière</title>
<path fill="none" stroke="darkgrey" stroke-width="7.34" d="M372.5,-99.51C372.09,-161.11 371.27,-283.2 371.02,-320.72"/>
</g>
<!-- nickel&#45;&#45;alternative au développement -->
<g id="edge69" class="edge">
<title>nickel&#45;&#45;alternative au développement</title>
<path fill="none" stroke="darkgrey" stroke-width="1.38" d="M336.98,-57.27C288.35,-49.11 205.26,-35.16 186.46,-32"/>
</g>
<!-- nickel&#45;&#45;matériel -->
<g id="edge70" class="edge">
<title>nickel&#45;&#45;matériel</title>
<path fill="none" stroke="darkgrey" stroke-width="5.34" d="M364.45,-98.52C355.7,-135.7 342.34,-192.47 336.12,-218.9"/>
</g>
<!-- nickel&#45;&#45;industrie -->
<g id="edge72" class="edge">
<title>nickel&#45;&#45;industrie</title>
<path fill="none" stroke="darkgrey" stroke-width="7.99" d="M398.39,-89.07C424.46,-115.29 463.76,-154.81 483.8,-174.97"/>
</g>
<!-- nickel&#45;&#45;foncier -->
<g id="edge71" class="edge">
<title>nickel&#45;&#45;foncier</title>
<path fill="none" stroke="darkgrey" stroke-width="1.91" d="M405.47,-47.57C436.9,-32.49 481.4,-11.14 493.92,-5.13"/>
</g>
<!-- nickel&#45;&#45;échange commercial -->
<g id="edge73" class="edge">
<title>nickel&#45;&#45;échange commercial</title>
<path fill="none" stroke="darkgrey" stroke-width="2.42" d="M348.17,-90.09C311.61,-129.99 245.2,-202.47 226.76,-222.59"/>
</g>
<!-- ressource minière&#45;&#45;politique -->
<g id="edge74" class="edge">
<title>ressource minière&#45;&#45;politique</title>
<path fill="none" stroke="darkgrey" stroke-width="2.86" d="M473.77,-131.97C440.97,-155.58 328.01,-236.91 290.98,-263.56"/>
</g>
<!-- ressource minière&#45;&#45;secteur nickel -->
<g id="edge75" class="edge">
<title>ressource minière&#45;&#45;secteur nickel</title>
<path fill="none" stroke="darkgrey" stroke-width="1.72" d="M479.61,-136.24C471.44,-163.95 449.61,-237.99 439.6,-271.96"/>
</g>
<!-- ressource minière&#45;&#45;nature -->
<g id="edge76" class="edge">
<title>ressource minière&#45;&#45;nature</title>
<path fill="none" stroke="darkgrey" stroke-width="1.68" d="M471.7,-125.98C455.49,-126.72 425.27,-128.08 407.18,-128.9"/>
</g>
<!-- ressource minière&#45;&#45;exploitation minière -->
<g id="edge77" class="edge">
<title>ressource minière&#45;&#45;exploitation minière</title>
<path fill="none" stroke="darkgrey" stroke-width="2.31" d="M477.53,-135.16C458.79,-169.77 395.24,-287.11 376.31,-322.06"/>
</g>
<!-- ressource minière&#45;&#45;matériel -->
<g id="edge78" class="edge">
<title>ressource minière&#45;&#45;matériel</title>
<path fill="none" stroke="darkgrey" stroke-width="1.73" d="M473.84,-131.91C448.1,-150.42 373.76,-203.86 344.62,-224.81"/>
</g>
<!-- ressource minière&#45;&#45;industrie -->
<g id="edge79" class="edge">
<title>ressource minière&#45;&#45;industrie</title>
<path fill="none" stroke="darkgrey" stroke-width="2.3" d="M485.18,-136.33C487.21,-145.54 490.17,-158.93 492.56,-169.74"/>
</g>
<!-- ressource minière&#45;&#45;échange commercial -->
<g id="edge80" class="edge">
<title>ressource minière&#45;&#45;échange commercial</title>
<path fill="none" stroke="darkgrey" stroke-width="1.31" d="M472.23,-129.62C428.76,-146.69 264.16,-211.3 228.67,-225.23"/>
</g>
<!-- politique&#45;&#45;secteur nickel -->
<g id="edge81" class="edge">
<title>politique&#45;&#45;secteur nickel</title>
<path fill="none" stroke="darkgrey" stroke-width="2.95" d="M293.74,-273.73C322.29,-276.91 385.38,-283.96 416.44,-287.43"/>
</g>
<!-- politique&#45;&#45;nature -->
<g id="edge82" class="edge">
<title>politique&#45;&#45;nature</title>
<path fill="none" stroke="darkgrey" stroke-width="1.22" d="M288.4,-260.43C309.75,-233.57 362.17,-167.62 383.33,-141"/>
</g>
<!-- politique&#45;&#45;exploitation minière -->
<g id="edge84" class="edge">
<title>politique&#45;&#45;exploitation minière</title>
<path fill="none" stroke="darkgrey" stroke-width="1.59" d="M291.51,-280.17C310.11,-292.3 344.86,-314.95 361.54,-325.83"/>
</g>
<!-- politique&#45;&#45;alternative au développement -->
<g id="edge85" class="edge">
<title>politique&#45;&#45;alternative au développement</title>
<path fill="none" stroke="darkgrey" stroke-width="1.26" d="M273.66,-258.46C254.92,-211.71 193.85,-59.42 183.96,-34.74"/>
</g>
<!-- politique&#45;&#45;matériel -->
<g id="edge86" class="edge">
<title>politique&#45;&#45;matériel</title>
<path fill="none" stroke="darkgrey" stroke-width="1.1" d="M291.02,-263.5C299.9,-257.09 311.98,-248.36 320.85,-241.95"/>
</g>
<!-- politique&#45;&#45;industrie -->
<g id="edge88" class="edge">
<title>politique&#45;&#45;industrie</title>
<path fill="none" stroke="darkgrey" stroke-width="2.53" d="M292.73,-266.82C330.75,-252.08 438.09,-210.45 479.73,-194.3"/>
</g>
<!-- politique&#45;&#45;société néo&#45;calédonienne -->
<g id="edge83" class="edge">
<title>politique&#45;&#45;société néo&#45;calédonienne</title>
<path fill="none" stroke="darkgrey" stroke-width="1.27" d="M278.92,-286.66C278.5,-317 277.54,-385.49 277.31,-402.15"/>
</g>
<!-- politique&#45;&#45;échange commercial -->
<g id="edge89" class="edge">
<title>politique&#45;&#45;échange commercial</title>
<path fill="none" stroke="darkgrey" stroke-width="1.35" d="M267.55,-263.15C255.4,-253.76 236.81,-239.4 227.55,-232.25"/>
</g>
<!-- politique&#45;&#45;relation politique -->
<g id="edge87" class="edge">
<title>politique&#45;&#45;relation politique</title>
<path fill="none" stroke="darkgrey" stroke-width="1.59" d="M265.44,-266.64C220.84,-248.85 81.95,-193.46 71.16,-189.16"/>
</g>
<!-- secteur nickel&#45;&#45;nature -->
<g id="edge90" class="edge">
<title>secteur nickel&#45;&#45;nature</title>
<path fill="none" stroke="darkgrey" stroke-width="1.71" d="M429.87,-272.03C421.49,-240.14 403.82,-172.97 396.13,-143.7"/>
</g>
<!-- secteur nickel&#45;&#45;exploitation minière -->
<g id="edge92" class="edge">
<title>secteur nickel&#45;&#45;exploitation minière</title>
<path fill="none" stroke="darkgrey" stroke-width="1.94" d="M419.4,-299.52C407.22,-307.67 390.46,-318.89 380.18,-325.77"/>
</g>
<!-- secteur nickel&#45;&#45;matériel -->
<g id="edge93" class="edge">
<title>secteur nickel&#45;&#45;matériel</title>
<path fill="none" stroke="darkgrey" stroke-width="2.29" d="M418.55,-280.68C398.43,-269.6 364.17,-250.71 345.59,-240.48"/>
</g>
<!-- secteur nickel&#45;&#45;industrie -->
<g id="edge95" class="edge">
<title>secteur nickel&#45;&#45;industrie</title>
<path fill="none" stroke="darkgrey" stroke-width="5.06" d="M443.88,-274C455.55,-254.89 475.31,-222.54 487.02,-203.37"/>
</g>
<!-- secteur nickel&#45;&#45;société néo&#45;calédonienne -->
<g id="edge91" class="edge">
<title>secteur nickel&#45;&#45;société néo&#45;calédonienne</title>
<path fill="none" stroke="darkgrey" stroke-width="1.12" d="M419.94,-300.18C384.98,-326.07 297.67,-390.73 280.29,-403.6"/>
</g>
<!-- secteur nickel&#45;&#45;foncier -->
<g id="edge94" class="edge">
<title>secteur nickel&#45;&#45;foncier</title>
<path fill="none" stroke="darkgrey" stroke-width="1.67" d="M438.38,-271.56C451.07,-213.85 490.45,-34.73 496.53,-7.1"/>
</g>
<!-- secteur nickel&#45;&#45;échange commercial -->
<g id="edge96" class="edge">
<title>secteur nickel&#45;&#45;échange commercial</title>
<path fill="none" stroke="darkgrey" stroke-width="1.85" d="M417.05,-284.4C373.03,-271.66 258.61,-238.52 228.99,-229.94"/>
</g>
<!-- nature&#45;&#45;exploitation minière -->
<g id="edge98" class="edge">
<title>nature&#45;&#45;exploitation minière</title>
<path fill="none" stroke="darkgrey" stroke-width="1.33" d="M390.87,-144.13C386.79,-182.56 375.8,-286.15 372.15,-320.63"/>
</g>
<!-- nature&#45;&#45;matériel -->
<g id="edge99" class="edge">
<title>nature&#45;&#45;matériel</title>
<path fill="none" stroke="darkgrey" stroke-width="3.03" d="M385.09,-142.3C373.63,-162.22 351.58,-200.56 340.09,-220.55"/>
</g>
<!-- nature&#45;&#45;industrie -->
<g id="edge101" class="edge">
<title>nature&#45;&#45;industrie</title>
<path fill="none" stroke="darkgrey" stroke-width="2.33" d="M405.18,-136.71C424.19,-147.33 459.9,-167.3 480.6,-178.87"/>
</g>
<!-- nature&#45;&#45;société néo&#45;calédonienne -->
<g id="edge97" class="edge">
<title>nature&#45;&#45;société néo&#45;calédonienne</title>
<path fill="none" stroke="darkgrey" stroke-width="1.16" d="M386.7,-143.27C365.19,-194.88 289.71,-375.98 278.62,-402.57"/>
</g>
<!-- nature&#45;&#45;foncier -->
<g id="edge100" class="edge">
<title>nature&#45;&#45;foncier</title>
<path fill="none" stroke="darkgrey" stroke-width="1.28" d="M401.72,-118.38C424.59,-90.9 482.55,-21.25 494.96,-6.34"/>
</g>
<!-- nature&#45;&#45;échange commercial -->
<g id="edge102" class="edge">
<title>nature&#45;&#45;échange commercial</title>
<path fill="none" stroke="darkgrey" stroke-width="1.02" d="M379.6,-136.96C345.36,-156.7 252.72,-210.12 228.02,-224.36"/>
</g>
<!-- exploitation minière&#45;&#45;matériel -->
<g id="edge104" class="edge">
<title>exploitation minière&#45;&#45;matériel</title>
<path fill="none" stroke="darkgrey" stroke-width="2.52" d="M366.85,-321.41C359.88,-303.43 345.7,-266.87 337.99,-246.99"/>
</g>
<!-- exploitation minière&#45;&#45;industrie -->
<g id="edge105" class="edge">
<title>exploitation minière&#45;&#45;industrie</title>
<path fill="none" stroke="darkgrey" stroke-width="2.76" d="M378.42,-323.37C399.44,-299.25 459.16,-230.7 484.71,-201.37"/>
</g>
<!-- exploitation minière&#45;&#45;échange commercial -->
<g id="edge106" class="edge">
<title>exploitation minière&#45;&#45;échange commercial</title>
<path fill="none" stroke="darkgrey" stroke-width="1.65" d="M361.62,-325.45C333.58,-305.87 250.55,-247.89 227.75,-231.97"/>
</g>
<!-- matériel&#45;&#45;industrie -->
<g id="edge108" class="edge">
<title>matériel&#45;&#45;industrie</title>
<path fill="none" stroke="darkgrey" stroke-width="3.95" d="M346.96,-229.41C376.93,-221.07 446.41,-201.73 479.03,-192.66"/>
</g>
<!-- matériel&#45;&#45;foncier -->
<g id="edge107" class="edge">
<title>matériel&#45;&#45;foncier</title>
<path fill="none" stroke="darkgrey" stroke-width="1.14" d="M341.33,-221.34C372.55,-177.74 478.77,-29.4 495.18,-6.48"/>
</g>
<!-- matériel&#45;&#45;échange commercial -->
<g id="edge109" class="edge">
<title>matériel&#45;&#45;échange commercial</title>
<path fill="none" stroke="darkgrey" stroke-width="1.53" d="M318.22,-232.66C294.17,-231.47 246.88,-229.13 228.99,-228.24"/>
</g>
<!-- industrie&#45;&#45;échange commercial -->
<g id="edge112" class="edge">
<title>industrie&#45;&#45;échange commercial</title>
<path fill="none" stroke="darkgrey" stroke-width="1.44" d="M478.52,-190.41C424.34,-198.32 264.48,-221.67 228.95,-226.86"/>
</g>
<!-- société néo&#45;calédonienne&#45;&#45;matériel -->
<g id="edge103" class="edge">
<title>société néo&#45;calédonienne&#45;&#45;matériel</title>
<path fill="none" stroke="darkgrey" stroke-width="1.32" d="M278.42,-402.24C284.86,-382.22 316.38,-284.17 328.21,-247.37"/>
</g>
<!-- foncier&#45;&#45;industrie -->
<g id="edge110" class="edge">
<title>foncier&#45;&#45;industrie</title>
<path fill="none" stroke="darkgrey" stroke-width="1.92" d="M497.3,-7.02C497.22,-27.12 496.79,-128.05 496.62,-169.73"/>
</g>
<!-- relation politique&#45;&#45;échange commercial -->
<g id="edge111" class="edge">
<title>relation politique&#45;&#45;échange commercial</title>
<path fill="none" stroke="darkgrey" stroke-width="1.02" d="M71.18,-189.07C80.6,-191.5 186.08,-218.66 214.75,-226.05"/>
</g>
<!-- pollution -->
<g id="node1" class="node">
<title>pollution</title>
<ellipse fill="#a52c60" stroke="white" stroke-width="0" cx="318.2" cy="-113.21" rx="18" ry="18"/>
<text text-anchor="middle" x="281.7" y="-133.81" font-family="Helvetica,sans-Serif" font-size="8.00" fill="#4d4d4d">pollution</text>
</g>
<!-- dégradation environnementale -->
<g id="node2" class="node">
<title>dégradation environnementale</title>
<ellipse fill="#f1ec6d" stroke="white" stroke-width="0" cx="437.5" cy="-215.29" rx="32.5" ry="32.5"/>
<text text-anchor="middle" x="341.5" y="-250.39" font-family="Helvetica,sans-Serif" font-size="8.00" fill="#4d4d4d">dégradation environnementale</text>
</g>
<!-- nouvelle&#45;calédonie -->
<g id="node3" class="node">
<title>nouvelle&#45;calédonie</title>
<ellipse fill="#10092d" stroke="white" stroke-width="0" cx="535.41" cy="-276.76" rx="3.5" ry="3.5"/>
<text text-anchor="middle" x="492.41" y="-282.86" font-family="Helvetica,sans-Serif" font-size="8.00" fill="#4d4d4d">nouvelle&#45;calédonie</text>
</g>
<!-- travail -->
<g id="node4" class="node">
<title>travail</title>
<ellipse fill="#e8602d" stroke="white" stroke-width="0" cx="374.62" cy="-190.06" rx="21.5" ry="21.5"/>
<text text-anchor="middle" x="340.12" y="-171.16" font-family="Helvetica,sans-Serif" font-size="8.00" fill="#4d4d4d">travail</text>
</g>
<!-- économie -->
<g id="node5" class="node">
<title>économie</title>
<ellipse fill="#b1325a" stroke="white" stroke-width="0" cx="267.62" cy="-176.2" rx="18" ry="18"/>
<text text-anchor="middle" x="229.12" y="-196.8" font-family="Helvetica,sans-Serif" font-size="8.00" fill="#4d4d4d">économie</text>
</g>
<!-- nickel -->
<g id="node6" class="node">
<title>nickel</title>
<ellipse fill="#fcffa4" stroke="white" stroke-width="0" cx="372.74" cy="-63.28" rx="36" ry="36"/>
<text text-anchor="middle" x="324.74" y="-29.88" font-family="Helvetica,sans-Serif" font-size="8.00" fill="#4d4d4d">nickel</text>
</g>
<!-- ressource minière -->
<g id="node7" class="node">
<title>ressource minière</title>
<ellipse fill="#5d126e" stroke="white" stroke-width="0" cx="482.78" cy="-125.48" rx="11" ry="11"/>
<text text-anchor="middle" x="435.28" y="-108.08" font-family="Helvetica,sans-Serif" font-size="8.00" fill="#4d4d4d">ressource minière</text>
</g>
<!-- politique -->
<g id="node8" class="node">
<title>politique</title>
<ellipse fill="#932667" stroke="white" stroke-width="0" cx="279.13" cy="-272.09" rx="14.5" ry="14.5"/>
<text text-anchor="middle" x="246.13" y="-289.19" font-family="Helvetica,sans-Serif" font-size="8.00" fill="#4d4d4d">politique</text>
</g>
<!-- secteur nickel -->
<g id="node9" class="node">
<title>secteur nickel</title>
<ellipse fill="#ad305d" stroke="white" stroke-width="0" cx="434.45" cy="-289.44" rx="18" ry="18"/>
<text text-anchor="middle" x="387.95" y="-310.04" font-family="Helvetica,sans-Serif" font-size="8.00" fill="#4d4d4d">secteur nickel</text>
</g>
<!-- nature -->
<g id="node10" class="node">
<title>nature</title>
<ellipse fill="#7d1e6d" stroke="white" stroke-width="0" cx="392.41" cy="-129.57" rx="14.5" ry="14.5"/>
<text text-anchor="middle" x="364.41" y="-146.67" font-family="Helvetica,sans-Serif" font-size="8.00" fill="#4d4d4d">nature</text>
</g>
<!-- exploitation minière -->
<g id="node11" class="node">
<title>exploitation minière</title>
<ellipse fill="#71196e" stroke="white" stroke-width="0" cx="370.94" cy="-331.96" rx="11" ry="11"/>
<text text-anchor="middle" x="319.44" y="-345.56" font-family="Helvetica,sans-Serif" font-size="8.00" fill="#4d4d4d">exploitation minière</text>
</g>
<!-- alternative au développement -->
<g id="node12" class="node">
<title>alternative au développement</title>
<ellipse fill="#08051d" stroke="white" stroke-width="0" cx="182.6" cy="-31.35" rx="3.5" ry="3.5"/>
<text text-anchor="middle" x="117.1" y="-37.45" font-family="Helvetica,sans-Serif" font-size="8.00" fill="#4d4d4d">alternative au développement</text>
</g>
<!-- matériel -->
<g id="node13" class="node">
<title>matériel</title>
<ellipse fill="#88226a" stroke="white" stroke-width="0" cx="332.71" cy="-233.38" rx="14.5" ry="14.5"/>
<text text-anchor="middle" x="301.21" y="-221.48" font-family="Helvetica,sans-Serif" font-size="8.00" fill="#4d4d4d">matériel</text>
</g>
<!-- industrie -->
<g id="node14" class="node">
<title>industrie</title>
<ellipse fill="#ab2f5e" stroke="white" stroke-width="0" cx="496.54" cy="-187.78" rx="18" ry="18"/>
<text text-anchor="middle" x="460.04" y="-172.38" font-family="Helvetica,sans-Serif" font-size="8.00" fill="#4d4d4d">industrie</text>
</g>
<!-- société néo&#45;calédonienne -->
<g id="node15" class="node">
<title>société néo&#45;calédonienne</title>
<ellipse fill="#0c0826" stroke="white" stroke-width="0" cx="277.26" cy="-405.85" rx="3.5" ry="3.5"/>
<text text-anchor="middle" x="219.76" y="-411.95" font-family="Helvetica,sans-Serif" font-size="8.00" fill="#4d4d4d">société néo&#45;calédonienne</text>
</g>
<!-- foncier -->
<g id="node16" class="node">
<title>foncier</title>
<ellipse fill="#160b39" stroke="white" stroke-width="0" cx="497.32" cy="-3.5" rx="3.5" ry="3.5"/>
<text text-anchor="middle" x="479.32" y="-9.6" font-family="Helvetica,sans-Serif" font-size="8.00" fill="#4d4d4d">foncier</text>
</g>
<!-- risque -->
<g id="node17" class="node">
<title>risque</title>
<ellipse fill="#000004" stroke="white" stroke-width="0" cx="724.34" cy="-217.65" rx="0.5" ry="0.5"/>
<text text-anchor="middle" x="710.84" y="-220.75" font-family="Helvetica,sans-Serif" font-size="8.00" fill="#4d4d4d">risque</text>
</g>
<!-- échange commercial -->
<g id="node18" class="node">
<title>échange commercial</title>
<ellipse fill="#290b55" stroke="white" stroke-width="0" cx="221.9" cy="-227.89" rx="7" ry="7"/>
<text text-anchor="middle" x="171.9" y="-237.49" font-family="Helvetica,sans-Serif" font-size="8.00" fill="#4d4d4d">échange commercial</text>
</g>
<!-- relation politique -->
<g id="node19" class="node">
<title>relation politique</title>
<ellipse fill="#030210" stroke="white" stroke-width="0" cx="70.5" cy="-188.9" rx="0.5" ry="0.5"/>
<text text-anchor="middle" x="35" y="-192" font-family="Helvetica,sans-Serif" font-size="8.00" fill="#4d4d4d">relation politique</text>
</g>
</g>
</svg>
