<?xml version="1.0" encoding="UTF-8" standalone="no"?>
<!DOCTYPE svg PUBLIC "-//W3C//DTD SVG 1.1//EN"
 "http://www.w3.org/Graphics/SVG/1.1/DTD/svg11.dtd">
<!-- Generated by graphviz version 2.43.0 (0)
 -->
<!-- Pages: 1 -->
<svg width="839pt" height="678pt"
 viewBox="0.00 0.00 839.13 678.07" xmlns="http://www.w3.org/2000/svg" xmlns:xlink="http://www.w3.org/1999/xlink">
<g id="graph0" class="graph" transform="scale(1 1) rotate(0) translate(4 674.07)">
<polygon fill="white" stroke="transparent" points="-4,4 -4,-674.07 835.13,-674.07 835.13,4 -4,4"/>
<!-- avenir sans nickel&#45;&#45;travail -->
<g id="edge1" class="edge">
<title>avenir sans nickel&#45;&#45;travail</title>
<path fill="none" stroke="darkgrey" stroke-width="2.91" d="M438.74,-423.07C442.16,-408.53 446.2,-391.33 449.17,-378.74"/>
</g>
<!-- avenir sans nickel&#45;&#45;politique -->
<g id="edge2" class="edge">
<title>avenir sans nickel&#45;&#45;politique</title>
<path fill="none" stroke="darkgrey" stroke-width="3.25" d="M406.93,-466.66C384.33,-480.05 351.62,-499.45 331.21,-511.55"/>
</g>
<!-- avenir sans nickel&#45;&#45;secteur nickel -->
<g id="edge3" class="edge">
<title>avenir sans nickel&#45;&#45;secteur nickel</title>
<path fill="none" stroke="darkgrey" stroke-width="2.56" d="M404.52,-461.61C399.92,-463.25 395.23,-464.93 390.86,-466.49"/>
</g>
<!-- avenir sans nickel&#45;&#45;relation politique -->
<g id="edge4" class="edge">
<title>avenir sans nickel&#45;&#45;relation politique</title>
<path fill="none" stroke="darkgrey" stroke-width="1.03" d="M427.75,-480.84C420.32,-531.8 405.44,-633.85 402.5,-654.05"/>
</g>
<!-- avenir sans nickel&#45;&#45;avenir avec nickel -->
<g id="edge5" class="edge">
<title>avenir sans nickel&#45;&#45;avenir avec nickel</title>
<path fill="none" stroke="darkgrey" stroke-width="3.02" d="M431.32,-422.61C430.52,-387.46 429.21,-330.13 428.66,-305.96"/>
</g>
<!-- avenir sans nickel&#45;&#45;pollution -->
<g id="edge6" class="edge">
<title>avenir sans nickel&#45;&#45;pollution</title>
<path fill="none" stroke="darkgrey" stroke-width="4.75" d="M406.09,-438.56C373.76,-422.04 319.03,-394.06 288.5,-378.45"/>
</g>
<!-- avenir sans nickel&#45;&#45;ressource minière -->
<g id="edge7" class="edge">
<title>avenir sans nickel&#45;&#45;ressource minière</title>
<path fill="none" stroke="darkgrey" stroke-width="5.67" d="M419.01,-425.58C401.77,-390.74 371.59,-329.74 355.29,-296.79"/>
</g>
<!-- avenir sans nickel&#45;&#45;dégradation environnementale -->
<g id="edge8" class="edge">
<title>avenir sans nickel&#45;&#45;dégradation environnementale</title>
<path fill="none" stroke="darkgrey" stroke-width="5.23" d="M403.3,-447.06C381.36,-443.44 351,-438.43 327.51,-434.56"/>
</g>
<!-- avenir sans nickel&#45;&#45;société néo&#45;calédonienne -->
<g id="edge9" class="edge">
<title>avenir sans nickel&#45;&#45;société néo&#45;calédonienne</title>
<path fill="none" stroke="darkgrey" stroke-width="2.59" d="M402.88,-448.93C350.21,-443.75 240.88,-433 201.34,-429.11"/>
</g>
<!-- avenir sans nickel&#45;&#45;alternative au développement -->
<g id="edge10" class="edge">
<title>avenir sans nickel&#45;&#45;alternative au développement</title>
<path fill="none" stroke="darkgrey" stroke-width="3.87" d="M411.8,-430.88C382.78,-400.82 329.76,-345.88 302.22,-317.36"/>
</g>
<!-- avenir sans nickel&#45;&#45;économie -->
<g id="edge11" class="edge">
<title>avenir sans nickel&#45;&#45;économie</title>
<path fill="none" stroke="darkgrey" stroke-width="2.12" d="M405.76,-439.17C394.94,-433.97 382.75,-428.1 373.27,-423.54"/>
</g>
<!-- avenir sans nickel&#45;&#45;amélioration environnementale -->
<g id="edge12" class="edge">
<title>avenir sans nickel&#45;&#45;amélioration environnementale</title>
<path fill="none" stroke="darkgrey" stroke-width="2.06" d="M455.31,-433.75C472.35,-420.57 494.51,-403.42 506.7,-393.99"/>
</g>
<!-- travail&#45;&#45;politique -->
<g id="edge13" class="edge">
<title>travail&#45;&#45;politique</title>
<path fill="none" stroke="darkgrey" stroke-width="3.2" d="M441.32,-374.8C415.5,-404.43 354.81,-474.07 326.92,-506.07"/>
</g>
<!-- travail&#45;&#45;secteur nickel -->
<g id="edge14" class="edge">
<title>travail&#45;&#45;secteur nickel</title>
<path fill="none" stroke="darkgrey" stroke-width="3.11" d="M442.52,-375.75C427.36,-396.4 399.84,-433.88 383.59,-456.02"/>
</g>
<!-- travail&#45;&#45;avenir avec nickel -->
<g id="edge15" class="edge">
<title>travail&#45;&#45;avenir avec nickel</title>
<path fill="none" stroke="darkgrey" stroke-width="1.37" d="M446.91,-343.93C442.3,-331.64 436.22,-315.46 432.31,-305.05"/>
</g>
<!-- travail&#45;&#45;pollution -->
<g id="edge16" class="edge">
<title>travail&#45;&#45;pollution</title>
<path fill="none" stroke="darkgrey" stroke-width="4.59" d="M435.05,-361.61C401.4,-362.7 329.6,-365.02 291.38,-366.26"/>
</g>
<!-- travail&#45;&#45;ressource minière -->
<g id="edge17" class="edge">
<title>travail&#45;&#45;ressource minière</title>
<path fill="none" stroke="darkgrey" stroke-width="2.41" d="M439.05,-349.66C419.85,-334.39 385.62,-307.16 363.92,-289.91"/>
</g>
<!-- travail&#45;&#45;dégradation environnementale -->
<g id="edge18" class="edge">
<title>travail&#45;&#45;dégradation environnementale</title>
<path fill="none" stroke="darkgrey" stroke-width="5.74" d="M436.67,-368C410.48,-378.98 359.21,-400.47 325.25,-414.7"/>
</g>
<!-- travail&#45;&#45;société néo&#45;calédonienne -->
<g id="edge19" class="edge">
<title>travail&#45;&#45;société néo&#45;calédonienne</title>
<path fill="none" stroke="darkgrey" stroke-width="3.11" d="M435.84,-365.39C386.36,-377.76 246.11,-412.81 200.9,-424.11"/>
</g>
<!-- travail&#45;&#45;alternative au développement -->
<g id="edge20" class="edge">
<title>travail&#45;&#45;alternative au développement</title>
<path fill="none" stroke="darkgrey" stroke-width="3.34" d="M436.22,-354.74C405.89,-343.6 342.65,-320.39 308.19,-307.74"/>
</g>
<!-- travail&#45;&#45;économie -->
<g id="edge22" class="edge">
<title>travail&#45;&#45;économie</title>
<path fill="none" stroke="darkgrey" stroke-width="3.55" d="M437.43,-370.05C419.58,-380.18 390.79,-396.52 372.93,-406.66"/>
</g>
<!-- travail&#45;&#45;amélioration environnementale -->
<g id="edge23" class="edge">
<title>travail&#45;&#45;amélioration environnementale</title>
<path fill="none" stroke="darkgrey" stroke-width="2.4" d="M470.05,-367.98C481.32,-372.67 495.81,-378.71 505.42,-382.71"/>
</g>
<!-- travail&#45;&#45;nickel -->
<g id="edge21" class="edge">
<title>travail&#45;&#45;nickel</title>
<path fill="none" stroke="darkgrey" stroke-width="1.32" d="M436.23,-355.37C385.82,-338.73 239.28,-290.34 205.62,-279.23"/>
</g>
<!-- travail&#45;&#45;essor technologique -->
<g id="edge24" class="edge">
<title>travail&#45;&#45;essor technologique</title>
<path fill="none" stroke="darkgrey" stroke-width="2.8" d="M460.22,-344.28C466.95,-327.92 477.15,-303.14 483.91,-286.7"/>
</g>
<!-- travail&#45;&#45;matériel -->
<g id="edge25" class="edge">
<title>travail&#45;&#45;matériel</title>
<path fill="none" stroke="darkgrey" stroke-width="1.14" d="M471.53,-359.01C544.54,-350.94 813.1,-321.26 829.82,-319.41"/>
</g>
<!-- politique&#45;&#45;secteur nickel -->
<g id="edge28" class="edge">
<title>politique&#45;&#45;secteur nickel</title>
<path fill="none" stroke="darkgrey" stroke-width="3.43" d="M328.96,-508.78C336.75,-502.22 346.03,-494.41 353.85,-487.83"/>
</g>
<!-- politique&#45;&#45;relation politique -->
<g id="edge29" class="edge">
<title>politique&#45;&#45;relation politique</title>
<path fill="none" stroke="darkgrey" stroke-width="1.46" d="M324.53,-540.87C346.1,-573.37 389.95,-639.44 399.93,-654.48"/>
</g>
<!-- politique&#45;&#45;avenir avec nickel -->
<g id="edge30" class="edge">
<title>politique&#45;&#45;avenir avec nickel</title>
<path fill="none" stroke="darkgrey" stroke-width="1.37" d="M322.34,-503.24C346,-456.71 405.24,-340.2 423.18,-304.93"/>
</g>
<!-- politique&#45;&#45;pollution -->
<g id="edge31" class="edge">
<title>politique&#45;&#45;pollution</title>
<path fill="none" stroke="darkgrey" stroke-width="2.89" d="M306.31,-502.01C297.79,-473.33 282.41,-421.54 273.39,-391.14"/>
</g>
<!-- politique&#45;&#45;ressource minière -->
<g id="edge32" class="edge">
<title>politique&#45;&#45;ressource minière</title>
<path fill="none" stroke="darkgrey" stroke-width="3.71" d="M315.2,-501.05C321.05,-455.11 334.68,-347.99 340.89,-299.17"/>
</g>
<!-- politique&#45;&#45;dégradation environnementale -->
<g id="edge33" class="edge">
<title>politique&#45;&#45;dégradation environnementale</title>
<path fill="none" stroke="darkgrey" stroke-width="4.33" d="M307.79,-501.35C305.37,-490.3 302.36,-476.52 299.61,-463.94"/>
</g>
<!-- politique&#45;&#45;société néo&#45;calédonienne -->
<g id="edge34" class="edge">
<title>politique&#45;&#45;société néo&#45;calédonienne</title>
<path fill="none" stroke="darkgrey" stroke-width="1.68" d="M295.23,-509.67C269.25,-490.05 220.74,-453.4 198.44,-436.56"/>
</g>
<!-- politique&#45;&#45;alternative au développement -->
<g id="edge36" class="edge">
<title>politique&#45;&#45;alternative au développement</title>
<path fill="none" stroke="darkgrey" stroke-width="2.68" d="M309.78,-501.24C304.6,-459.7 293.23,-368.46 287.71,-324.18"/>
</g>
<!-- politique&#45;&#45;économie -->
<g id="edge37" class="edge">
<title>politique&#45;&#45;économie</title>
<path fill="none" stroke="darkgrey" stroke-width="3.49" d="M320.72,-502.81C329.13,-482.63 342,-451.71 349.94,-432.65"/>
</g>
<!-- politique&#45;&#45;nouvelle&#45;calédonie -->
<g id="edge35" class="edge">
<title>politique&#45;&#45;nouvelle&#45;calédonie</title>
<path fill="none" stroke="darkgrey" stroke-width="1.27" d="M290.81,-521.06C261.04,-518.84 209.02,-514.95 190.2,-513.55"/>
</g>
<!-- secteur nickel&#45;&#45;relation politique -->
<g id="edge38" class="edge">
<title>secteur nickel&#45;&#45;relation politique</title>
<path fill="none" stroke="darkgrey" stroke-width="1.1" d="M374.26,-495.18C381.66,-538.56 398.01,-634.27 401.37,-653.98"/>
</g>
<!-- secteur nickel&#45;&#45;avenir avec nickel -->
<g id="edge39" class="edge">
<title>secteur nickel&#45;&#45;avenir avec nickel</title>
<path fill="none" stroke="darkgrey" stroke-width="1.49" d="M377.23,-453.18C389.56,-414.97 415.64,-334.19 424.98,-305.25"/>
</g>
<!-- secteur nickel&#45;&#45;pollution -->
<g id="edge40" class="edge">
<title>secteur nickel&#45;&#45;pollution</title>
<path fill="none" stroke="darkgrey" stroke-width="3.31" d="M355.2,-457.99C336.15,-438.52 303.79,-405.45 283.79,-385.01"/>
</g>
<!-- secteur nickel&#45;&#45;ressource minière -->
<g id="edge41" class="edge">
<title>secteur nickel&#45;&#45;ressource minière</title>
<path fill="none" stroke="darkgrey" stroke-width="2.14" d="M367.76,-452.37C362.81,-415.16 352.65,-338.65 347.39,-299.07"/>
</g>
<!-- secteur nickel&#45;&#45;dégradation environnementale -->
<g id="edge42" class="edge">
<title>secteur nickel&#45;&#45;dégradation environnementale</title>
<path fill="none" stroke="darkgrey" stroke-width="3.07" d="M351.54,-462.82C343.08,-457.98 332.9,-452.15 323.36,-446.69"/>
</g>
<!-- secteur nickel&#45;&#45;société néo&#45;calédonienne -->
<g id="edge43" class="edge">
<title>secteur nickel&#45;&#45;société néo&#45;calédonienne</title>
<path fill="none" stroke="darkgrey" stroke-width="1.48" d="M349.5,-468.44C311.75,-458.99 233.6,-439.42 201.22,-431.31"/>
</g>
<!-- secteur nickel&#45;&#45;alternative au développement -->
<g id="edge45" class="edge">
<title>secteur nickel&#45;&#45;alternative au développement</title>
<path fill="none" stroke="darkgrey" stroke-width="4.77" d="M361.06,-454.37C345.01,-421.77 312.67,-356.12 295.65,-321.54"/>
</g>
<!-- secteur nickel&#45;&#45;économie -->
<g id="edge47" class="edge">
<title>secteur nickel&#45;&#45;économie</title>
<path fill="none" stroke="darkgrey" stroke-width="2.14" d="M365.68,-452.78C364.19,-446.42 362.57,-439.49 361.13,-433.37"/>
</g>
<!-- secteur nickel&#45;&#45;amélioration environnementale -->
<g id="edge48" class="edge">
<title>secteur nickel&#45;&#45;amélioration environnementale</title>
<path fill="none" stroke="darkgrey" stroke-width="2.76" d="M389.27,-462.57C420.51,-443.9 482.26,-407 506.06,-392.78"/>
</g>
<!-- secteur nickel&#45;&#45;nickel -->
<g id="edge46" class="edge">
<title>secteur nickel&#45;&#45;nickel</title>
<path fill="none" stroke="darkgrey" stroke-width="1.7" d="M356.23,-457.29C319.92,-415.72 225.73,-307.9 203.45,-282.4"/>
</g>
<!-- secteur nickel&#45;&#45;essor technologique -->
<g id="edge49" class="edge">
<title>secteur nickel&#45;&#45;essor technologique</title>
<path fill="none" stroke="darkgrey" stroke-width="1.37" d="M381.7,-454.9C405.25,-414.96 459.86,-322.37 481.65,-285.41"/>
</g>
<!-- secteur nickel&#45;&#45;nouvelle&#45;calédonie -->
<g id="edge44" class="edge">
<title>secteur nickel&#45;&#45;nouvelle&#45;calédonie</title>
<path fill="none" stroke="darkgrey" stroke-width="1.05" d="M349.46,-478.16C307.71,-486.91 216.46,-506.04 190.29,-511.52"/>
</g>
<!-- relation politique&#45;&#45;dégradation environnementale -->
<g id="edge50" class="edge">
<title>relation politique&#45;&#45;dégradation environnementale</title>
<path fill="none" stroke="darkgrey" stroke-width="1.07" d="M400.43,-654.33C390.47,-633.63 335.23,-518.79 307.62,-461.37"/>
</g>
<!-- relation politique&#45;&#45;économie -->
<g id="edge51" class="edge">
<title>relation politique&#45;&#45;économie</title>
<path fill="none" stroke="darkgrey" stroke-width="1.38" d="M401.28,-653.77C396.58,-628.53 369.79,-484.5 360.31,-433.56"/>
</g>
<!-- avenir avec nickel&#45;&#45;ressource minière -->
<g id="edge52" class="edge">
<title>avenir avec nickel&#45;&#45;ressource minière</title>
<path fill="none" stroke="darkgrey" stroke-width="1.38" d="M417.38,-291.97C405.06,-288.97 384.72,-284.02 368.59,-280.09"/>
</g>
<!-- avenir avec nickel&#45;&#45;dégradation environnementale -->
<g id="edge53" class="edge">
<title>avenir avec nickel&#45;&#45;dégradation environnementale</title>
<path fill="none" stroke="darkgrey" stroke-width="2.43" d="M420.27,-302.63C400.47,-322.07 349.07,-372.55 317.64,-403.4"/>
</g>
<!-- avenir avec nickel&#45;&#45;alternative au développement -->
<g id="edge54" class="edge">
<title>avenir avec nickel&#45;&#45;alternative au développement</title>
<path fill="none" stroke="darkgrey" stroke-width="1.9" d="M417.12,-295C394.07,-295.71 341.13,-297.34 309.57,-298.31"/>
</g>
<!-- avenir avec nickel&#45;&#45;économie -->
<g id="edge55" class="edge">
<title>avenir avec nickel&#45;&#45;économie</title>
<path fill="none" stroke="darkgrey" stroke-width="2.16" d="M422.8,-304.15C410.57,-324.88 381.37,-374.38 366.32,-399.9"/>
</g>
<!-- avenir avec nickel&#45;&#45;amélioration environnementale -->
<g id="edge56" class="edge">
<title>avenir avec nickel&#45;&#45;amélioration environnementale</title>
<path fill="none" stroke="darkgrey" stroke-width="2.77" d="M436.15,-302.84C452.76,-320.41 491.63,-361.52 508.12,-378.96"/>
</g>
<!-- avenir avec nickel&#45;&#45;essor technologique -->
<g id="edge57" class="edge">
<title>avenir avec nickel&#45;&#45;essor technologique</title>
<path fill="none" stroke="darkgrey" stroke-width="2.02" d="M438.72,-290.54C448.28,-286.73 462.69,-280.99 473.95,-276.51"/>
</g>
<!-- pollution&#45;&#45;ressource minière -->
<g id="edge58" class="edge">
<title>pollution&#45;&#45;ressource minière</title>
<path fill="none" stroke="darkgrey" stroke-width="4.26" d="M282.37,-347.81C295.73,-331.86 314.62,-309.31 327.97,-293.36"/>
</g>
<!-- pollution&#45;&#45;dégradation environnementale -->
<g id="edge59" class="edge">
<title>pollution&#45;&#45;dégradation environnementale</title>
<path fill="none" stroke="darkgrey" stroke-width="10" d="M275.94,-390.36C276.62,-392 277.31,-393.66 278.01,-395.34"/>
</g>
<!-- pollution&#45;&#45;société néo&#45;calédonienne -->
<g id="edge61" class="edge">
<title>pollution&#45;&#45;société néo&#45;calédonienne</title>
<path fill="none" stroke="darkgrey" stroke-width="2.84" d="M246.16,-382.36C231.06,-393.86 210.89,-409.22 198.35,-418.77"/>
</g>
<!-- pollution&#45;&#45;alternative au développement -->
<g id="edge63" class="edge">
<title>pollution&#45;&#45;alternative au développement</title>
<path fill="none" stroke="darkgrey" stroke-width="4.25" d="M272.76,-342.91C274.45,-336.65 276.27,-329.9 277.96,-323.62"/>
</g>
<!-- pollution&#45;&#45;économie -->
<g id="edge65" class="edge">
<title>pollution&#45;&#45;économie</title>
<path fill="none" stroke="darkgrey" stroke-width="4.04" d="M288.67,-379.09C304.94,-387.81 326.56,-399.4 341.08,-407.18"/>
</g>
<!-- pollution&#45;&#45;amélioration environnementale -->
<g id="edge66" class="edge">
<title>pollution&#45;&#45;amélioration environnementale</title>
<path fill="none" stroke="darkgrey" stroke-width="1.47" d="M291.53,-369.09C344.93,-373.36 467.29,-383.14 504.68,-386.12"/>
</g>
<!-- pollution&#45;&#45;nickel -->
<g id="edge64" class="edge">
<title>pollution&#45;&#45;nickel</title>
<path fill="none" stroke="darkgrey" stroke-width="1.72" d="M250.91,-346.62C235.49,-326.05 212.68,-295.61 203.13,-282.88"/>
</g>
<!-- pollution&#45;&#45;essor technologique -->
<g id="edge67" class="edge">
<title>pollution&#45;&#45;essor technologique</title>
<path fill="none" stroke="darkgrey" stroke-width="2.42" d="M289.43,-357.02C334.83,-337.36 434.45,-294.2 474.11,-277.03"/>
</g>
<!-- pollution&#45;&#45;nouvelle&#45;calédonie -->
<g id="edge62" class="edge">
<title>pollution&#45;&#45;nouvelle&#45;calédonie</title>
<path fill="none" stroke="darkgrey" stroke-width="1.03" d="M253.8,-388.92C234.42,-422.96 198.07,-486.81 186.66,-506.84"/>
</g>
<!-- pollution&#45;&#45;nature -->
<g id="edge60" class="edge">
<title>pollution&#45;&#45;nature</title>
<path fill="none" stroke="darkgrey" stroke-width="2.32" d="M240.94,-365.64C188.75,-362.69 71.45,-356.06 41.22,-354.35"/>
</g>
<!-- ressource minière&#45;&#45;dégradation environnementale -->
<g id="edge68" class="edge">
<title>ressource minière&#45;&#45;dégradation environnementale</title>
<path fill="none" stroke="darkgrey" stroke-width="6.36" d="M336.04,-297.94C327.32,-323.76 313.32,-365.22 303.43,-394.51"/>
</g>
<!-- ressource minière&#45;&#45;alternative au développement -->
<g id="edge70" class="edge">
<title>ressource minière&#45;&#45;alternative au développement</title>
<path fill="none" stroke="darkgrey" stroke-width="4.34" d="M320.91,-283.85C316.6,-285.65 312.1,-287.54 307.79,-289.35"/>
</g>
<!-- ressource minière&#45;&#45;économie -->
<g id="edge72" class="edge">
<title>ressource minière&#45;&#45;économie</title>
<path fill="none" stroke="darkgrey" stroke-width="3.36" d="M346.36,-299.11C348.94,-327.37 353.07,-372.7 355.35,-397.7"/>
</g>
<!-- ressource minière&#45;&#45;amélioration environnementale -->
<g id="edge73" class="edge">
<title>ressource minière&#45;&#45;amélioration environnementale</title>
<path fill="none" stroke="darkgrey" stroke-width="1.4" d="M365.13,-287.97C402.73,-312.7 479.98,-363.5 506.53,-380.96"/>
</g>
<!-- ressource minière&#45;&#45;nickel -->
<g id="edge71" class="edge">
<title>ressource minière&#45;&#45;nickel</title>
<path fill="none" stroke="darkgrey" stroke-width="1.06" d="M319.08,-274.61C285.14,-275.27 226.37,-276.4 205.93,-276.8"/>
</g>
<!-- ressource minière&#45;&#45;essor technologique -->
<g id="edge74" class="edge">
<title>ressource minière&#45;&#45;essor technologique</title>
<path fill="none" stroke="darkgrey" stroke-width="3.81" d="M369.32,-273.38C398.66,-272.51 446.4,-271.09 472.47,-270.31"/>
</g>
<!-- ressource minière&#45;&#45;nouvelle&#45;calédonie -->
<g id="edge69" class="edge">
<title>ressource minière&#45;&#45;nouvelle&#45;calédonie</title>
<path fill="none" stroke="darkgrey" stroke-width="1.26" d="M330.08,-294.91C295.51,-346.22 207.46,-476.92 187.3,-506.85"/>
</g>
<!-- dégradation environnementale&#45;&#45;société néo&#45;calédonienne -->
<g id="edge76" class="edge">
<title>dégradation environnementale&#45;&#45;société néo&#45;calédonienne</title>
<path fill="none" stroke="darkgrey" stroke-width="2.4" d="M255.68,-428.33C237.02,-428.15 215.29,-427.94 201.28,-427.81"/>
</g>
<!-- dégradation environnementale&#45;&#45;alternative au développement -->
<g id="edge78" class="edge">
<title>dégradation environnementale&#45;&#45;alternative au développement</title>
<path fill="none" stroke="darkgrey" stroke-width="4.17" d="M289.86,-392.58C288.63,-370.86 287.1,-343.75 286.01,-324.32"/>
</g>
<!-- dégradation environnementale&#45;&#45;économie -->
<g id="edge80" class="edge">
<title>dégradation environnementale&#45;&#45;économie</title>
<path fill="none" stroke="darkgrey" stroke-width="6.09" d="M327.49,-421.59C331.53,-420.78 335.5,-419.99 339.16,-419.26"/>
</g>
<!-- dégradation environnementale&#45;&#45;amélioration environnementale -->
<g id="edge81" class="edge">
<title>dégradation environnementale&#45;&#45;amélioration environnementale</title>
<path fill="none" stroke="darkgrey" stroke-width="2.87" d="M327.36,-422.08C379.14,-412.44 472.72,-395.01 504.68,-389.06"/>
</g>
<!-- dégradation environnementale&#45;&#45;nickel -->
<g id="edge79" class="edge">
<title>dégradation environnementale&#45;&#45;nickel</title>
<path fill="none" stroke="darkgrey" stroke-width="2.02" d="M273.03,-397.97C250.37,-361.08 213.94,-301.79 202.35,-282.91"/>
</g>
<!-- dégradation environnementale&#45;&#45;essor technologique -->
<g id="edge82" class="edge">
<title>dégradation environnementale&#45;&#45;essor technologique</title>
<path fill="none" stroke="darkgrey" stroke-width="3.25" d="M320.41,-405.91C363.61,-371.41 444.06,-307.16 476.64,-281.14"/>
</g>
<!-- dégradation environnementale&#45;&#45;nouvelle&#45;calédonie -->
<g id="edge77" class="edge">
<title>dégradation environnementale&#45;&#45;nouvelle&#45;calédonie</title>
<path fill="none" stroke="darkgrey" d="M263.32,-450.84C237.9,-470.56 202.68,-497.87 188.95,-508.52"/>
</g>
<!-- dégradation environnementale&#45;&#45;nature -->
<g id="edge75" class="edge">
<title>dégradation environnementale&#45;&#45;nature</title>
<path fill="none" stroke="darkgrey" stroke-width="3.19" d="M257.12,-418.6C195.8,-400.83 72.01,-364.96 41.11,-356"/>
</g>
<!-- société néo&#45;calédonienne&#45;&#45;alternative au développement -->
<g id="edge86" class="edge">
<title>société néo&#45;calédonienne&#45;&#45;alternative au développement</title>
<path fill="none" stroke="darkgrey" stroke-width="2.71" d="M195.71,-415.8C212.46,-393.79 248.54,-346.42 269.2,-319.28"/>
</g>
<!-- société néo&#45;calédonienne&#45;&#45;économie -->
<g id="edge88" class="edge">
<title>société néo&#45;calédonienne&#45;&#45;économie</title>
<path fill="none" stroke="darkgrey" stroke-width="2.47" d="M201.19,-426.65C232.24,-424.47 305.03,-419.36 338.97,-416.97"/>
</g>
<!-- société néo&#45;calédonienne&#45;&#45;nickel -->
<g id="edge87" class="edge">
<title>société néo&#45;calédonienne&#45;&#45;nickel</title>
<path fill="none" stroke="darkgrey" stroke-width="1.78" d="M187.84,-412.94C190.37,-381.23 196.24,-307.5 198.1,-284.16"/>
</g>
<!-- société néo&#45;calédonienne&#45;&#45;nouvelle&#45;calédonie -->
<g id="edge85" class="edge">
<title>société néo&#45;calédonienne&#45;&#45;nouvelle&#45;calédonie</title>
<path fill="none" stroke="darkgrey" stroke-width="1.34" d="M186.06,-442.53C185.29,-461.06 184.01,-491.99 183.44,-505.88"/>
</g>
<!-- alternative au développement&#45;&#45;économie -->
<g id="edge92" class="edge">
<title>alternative au développement&#45;&#45;économie</title>
<path fill="none" stroke="darkgrey" stroke-width="5.09" d="M297.86,-320.47C312.23,-343.62 334.79,-379.95 347.49,-400.4"/>
</g>
<!-- alternative au développement&#45;&#45;amélioration environnementale -->
<g id="edge93" class="edge">
<title>alternative au développement&#45;&#45;amélioration environnementale</title>
<path fill="none" stroke="darkgrey" stroke-width="3.73" d="M308.02,-307.99C357.37,-326.77 470.33,-369.74 505.25,-383.02"/>
</g>
<!-- alternative au développement&#45;&#45;nickel -->
<g id="edge91" class="edge">
<title>alternative au développement&#45;&#45;nickel</title>
<path fill="none" stroke="darkgrey" stroke-width="1.65" d="M260.19,-292.79C241.74,-288.04 217.63,-281.82 205.82,-278.78"/>
</g>
<!-- alternative au développement&#45;&#45;essor technologique -->
<g id="edge94" class="edge">
<title>alternative au développement&#45;&#45;essor technologique</title>
<path fill="none" stroke="darkgrey" stroke-width="3.76" d="M309.47,-295.54C351.58,-289.56 435.93,-277.57 472.86,-272.32"/>
</g>
<!-- économie&#45;&#45;amélioration environnementale -->
<g id="edge96" class="edge">
<title>économie&#45;&#45;amélioration environnementale</title>
<path fill="none" stroke="darkgrey" stroke-width="1.41" d="M374.89,-412.47C407.97,-406.49 477.76,-393.87 504.75,-388.99"/>
</g>
<!-- économie&#45;&#45;essor technologique -->
<g id="edge97" class="edge">
<title>économie&#45;&#45;essor technologique</title>
<path fill="none" stroke="darkgrey" stroke-width="1.02" d="M369.35,-402.24C394.86,-374.44 453.07,-310.97 478.55,-283.2"/>
</g>
<!-- amélioration environnementale&#45;&#45;essor technologique -->
<g id="edge98" class="edge">
<title>amélioration environnementale&#45;&#45;essor technologique</title>
<path fill="none" stroke="darkgrey" stroke-width="1.76" d="M513.43,-376.19C509.16,-356 499.92,-312.44 494.69,-287.76"/>
</g>
<!-- nickel&#45;&#45;économie -->
<g id="edge95" class="edge">
<title>nickel&#45;&#45;économie</title>
<path fill="none" stroke="darkgrey" stroke-width="1.08" d="M203.94,-281.55C225.83,-300.74 310.03,-374.54 343.32,-403.72"/>
</g>
<!-- exploitation minière&#45;&#45;ressource minière -->
<g id="edge26" class="edge">
<title>exploitation minière&#45;&#45;ressource minière</title>
<path fill="none" stroke="darkgrey" stroke-width="1.22" d="M252.56,-6.92C261.19,-32.13 315.19,-189.79 335.96,-250.42"/>
</g>
<!-- exploitation minière&#45;&#45;alternative au développement -->
<g id="edge27" class="edge">
<title>exploitation minière&#45;&#45;alternative au développement</title>
<path fill="none" stroke="darkgrey" stroke-width="1.05" d="M251.81,-7.24C254.91,-34.9 274.42,-208.64 281.78,-274.14"/>
</g>
<!-- nouvelle&#45;calédonie&#45;&#45;alternative au développement -->
<g id="edge89" class="edge">
<title>nouvelle&#45;calédonie&#45;&#45;alternative au développement</title>
<path fill="none" stroke="darkgrey" stroke-width="1.92" d="M186.29,-506.38C199.53,-478.45 251.09,-369.72 273.77,-321.88"/>
</g>
<!-- nouvelle&#45;calédonie&#45;&#45;économie -->
<g id="edge90" class="edge">
<title>nouvelle&#45;calédonie&#45;&#45;économie</title>
<path fill="none" stroke="darkgrey" stroke-width="1.41" d="M189.33,-509.56C213.77,-495.88 304.03,-445.35 341.02,-424.65"/>
</g>
<!-- nature&#45;&#45;société néo&#45;calédonienne -->
<g id="edge83" class="edge">
<title>nature&#45;&#45;société néo&#45;calédonienne</title>
<path fill="none" stroke="darkgrey" stroke-width="1.13" d="M40.56,-357.11C63.73,-368.3 142.03,-406.11 173.45,-421.28"/>
</g>
<!-- nature&#45;&#45;alternative au développement -->
<g id="edge84" class="edge">
<title>nature&#45;&#45;alternative au développement</title>
<path fill="none" stroke="darkgrey" stroke-width="1.28" d="M40.96,-352.42C72.74,-345.46 204.8,-316.55 260.08,-304.44"/>
</g>
<!-- avenir sans nickel -->
<g id="node1" class="node">
<title>avenir sans nickel</title>
<ellipse fill="#f98c0a" stroke="white" stroke-width="0" cx="431.98" cy="-451.8" rx="29" ry="29"/>
<text text-anchor="middle" x="439.48" y="-483.4" font-family="Helvetica,sans-Serif" font-size="8.00" fill="#4d4d4d">avenir sans nickel</text>
</g>
<!-- travail -->
<g id="node2" class="node">
<title>travail</title>
<ellipse fill="#bd3853" stroke="white" stroke-width="0" cx="453.33" cy="-361.02" rx="18" ry="18"/>
<text text-anchor="middle" x="422.33" y="-381.62" font-family="Helvetica,sans-Serif" font-size="8.00" fill="#4d4d4d">travail</text>
</g>
<!-- politique -->
<g id="node3" class="node">
<title>politique</title>
<ellipse fill="#cb4149" stroke="white" stroke-width="0" cx="312.45" cy="-522.68" rx="21.5" ry="21.5"/>
<text text-anchor="middle" x="272.45" y="-546.78" font-family="Helvetica,sans-Serif" font-size="8.00" fill="#4d4d4d">politique</text>
</g>
<!-- secteur nickel -->
<g id="node4" class="node">
<title>secteur nickel</title>
<ellipse fill="#ca404a" stroke="white" stroke-width="0" cx="370.6" cy="-473.73" rx="21.5" ry="21.5"/>
<text text-anchor="middle" x="377.6" y="-497.83" font-family="Helvetica,sans-Serif" font-size="8.00" fill="#4d4d4d">secteur nickel</text>
</g>
<!-- relation politique -->
<g id="node5" class="node">
<title>relation politique</title>
<ellipse fill="#160b39" stroke="white" stroke-width="0" cx="401.99" cy="-657.57" rx="3.5" ry="3.5"/>
<text text-anchor="middle" x="363.49" y="-663.67" font-family="Helvetica,sans-Serif" font-size="8.00" fill="#4d4d4d">relation politique</text>
</g>
<!-- avenir avec nickel -->
<g id="node6" class="node">
<title>avenir avec nickel</title>
<ellipse fill="#550f6d" stroke="white" stroke-width="0" cx="428.4" cy="-294.65" rx="11" ry="11"/>
<text text-anchor="middle" x="380.9" y="-308.25" font-family="Helvetica,sans-Serif" font-size="8.00" fill="#4d4d4d">avenir avec nickel</text>
</g>
<!-- pollution -->
<g id="node7" class="node">
<title>pollution</title>
<ellipse fill="#eb6628" stroke="white" stroke-width="0" cx="266.24" cy="-367.07" rx="25" ry="25"/>
<text text-anchor="middle" x="222.74" y="-394.67" font-family="Helvetica,sans-Serif" font-size="8.00" fill="#4d4d4d">pollution</text>
</g>
<!-- ressource minière -->
<g id="node8" class="node">
<title>ressource minière</title>
<ellipse fill="#f3761b" stroke="white" stroke-width="0" cx="344.08" cy="-274.13" rx="25" ry="25"/>
<text text-anchor="middle" x="282.58" y="-251.73" font-family="Helvetica,sans-Serif" font-size="8.00" fill="#4d4d4d">ressource minière</text>
</g>
<!-- dégradation environnementale -->
<g id="node9" class="node">
<title>dégradation environnementale</title>
<ellipse fill="#fcffa4" stroke="white" stroke-width="0" cx="291.9" cy="-428.68" rx="36" ry="36"/>
<text text-anchor="middle" x="192.4" y="-467.28" font-family="Helvetica,sans-Serif" font-size="8.00" fill="#4d4d4d">dégradation environnementale</text>
</g>
<!-- société néo&#45;calédonienne -->
<g id="node10" class="node">
<title>société néo&#45;calédonienne</title>
<ellipse fill="#902568" stroke="white" stroke-width="0" cx="186.67" cy="-427.67" rx="14.5" ry="14.5"/>
<text text-anchor="middle" x="118.17" y="-444.77" font-family="Helvetica,sans-Serif" font-size="8.00" fill="#4d4d4d">société néo&#45;calédonienne</text>
</g>
<!-- alternative au développement -->
<g id="node11" class="node">
<title>alternative au développement</title>
<ellipse fill="#f98b0b" stroke="white" stroke-width="0" cx="284.58" cy="-299.08" rx="25" ry="25"/>
<text text-anchor="middle" x="197.58" y="-326.68" font-family="Helvetica,sans-Serif" font-size="8.00" fill="#4d4d4d">alternative au développement</text>
</g>
<!-- économie -->
<g id="node12" class="node">
<title>économie</title>
<ellipse fill="#b0315b" stroke="white" stroke-width="0" cx="356.99" cy="-415.71" rx="18" ry="18"/>
<text text-anchor="middle" x="359.49" y="-436.31" font-family="Helvetica,sans-Serif" font-size="8.00" fill="#4d4d4d">économie</text>
</g>
<!-- amélioration environnementale -->
<g id="node13" class="node">
<title>amélioration environnementale</title>
<ellipse fill="#781c6d" stroke="white" stroke-width="0" cx="515.73" cy="-387.01" rx="11" ry="11"/>
<text text-anchor="middle" x="440.23" y="-400.61" font-family="Helvetica,sans-Serif" font-size="8.00" fill="#4d4d4d">amélioration environnementale</text>
</g>
<!-- nickel -->
<g id="node14" class="node">
<title>nickel</title>
<ellipse fill="#2f0a5b" stroke="white" stroke-width="0" cx="198.68" cy="-276.93" rx="7" ry="7"/>
<text text-anchor="middle" x="179.68" y="-286.53" font-family="Helvetica,sans-Serif" font-size="8.00" fill="#4d4d4d">nickel</text>
</g>
<!-- essor technologique -->
<g id="node15" class="node">
<title>essor technologique</title>
<ellipse fill="#ad305d" stroke="white" stroke-width="0" cx="490.88" cy="-269.76" rx="18" ry="18"/>
<text text-anchor="middle" x="430.38" y="-254.36" font-family="Helvetica,sans-Serif" font-size="8.00" fill="#4d4d4d">essor technologique</text>
</g>
<!-- matériel -->
<g id="node16" class="node">
<title>matériel</title>
<ellipse fill="#000004" stroke="white" stroke-width="0" cx="830.63" cy="-319.32" rx="0.5" ry="0.5"/>
<text text-anchor="middle" x="813.13" y="-322.42" font-family="Helvetica,sans-Serif" font-size="8.00" fill="#4d4d4d">matériel</text>
</g>
<!-- exploitation minière -->
<g id="node17" class="node">
<title>exploitation minière</title>
<ellipse fill="#0c0826" stroke="white" stroke-width="0" cx="251.39" cy="-3.5" rx="3.5" ry="3.5"/>
<text text-anchor="middle" x="207.39" y="-9.6" font-family="Helvetica,sans-Serif" font-size="8.00" fill="#4d4d4d">exploitation minière</text>
</g>
<!-- nouvelle&#45;calédonie -->
<g id="node18" class="node">
<title>nouvelle&#45;calédonie</title>
<ellipse fill="#320a5e" stroke="white" stroke-width="0" cx="183.15" cy="-513.02" rx="7" ry="7"/>
<text text-anchor="middle" x="136.65" y="-522.62" font-family="Helvetica,sans-Serif" font-size="8.00" fill="#4d4d4d">nouvelle&#45;calédonie</text>
</g>
<!-- nature -->
<g id="node19" class="node">
<title>nature</title>
<ellipse fill="#4d0d6c" stroke="white" stroke-width="0" cx="34" cy="-353.94" rx="7" ry="7"/>
<text text-anchor="middle" x="13.5" y="-363.54" font-family="Helvetica,sans-Serif" font-size="8.00" fill="#4d4d4d">nature</text>
</g>
</g>
</svg>
