<?xml version="1.0" encoding="UTF-8" standalone="no"?>
<!DOCTYPE svg PUBLIC "-//W3C//DTD SVG 1.1//EN"
 "http://www.w3.org/Graphics/SVG/1.1/DTD/svg11.dtd">
<!-- Generated by graphviz version 2.43.0 (0)
 -->
<!-- Pages: 1 -->
<svg width="822pt" height="417pt"
 viewBox="0.00 0.00 821.72 416.84" xmlns="http://www.w3.org/2000/svg" xmlns:xlink="http://www.w3.org/1999/xlink">
<g id="graph0" class="graph" transform="scale(1 1) rotate(0) translate(4 412.84)">
<polygon fill="white" stroke="transparent" points="-4,4 -4,-412.84 817.72,-412.84 817.72,4 -4,4"/>
<!-- fin&#45;&#45;emploi -->
<g id="edge1" class="edge">
<title>fin&#45;&#45;emploi</title>
<path fill="none" stroke="darkgrey" stroke-width="1.81" d="M395.01,-200.64C388.67,-195.49 379.94,-188.39 372.63,-182.44"/>
</g>
<!-- fin&#45;&#45;pollution -->
<g id="edge2" class="edge">
<title>fin&#45;&#45;pollution</title>
<path fill="none" stroke="darkgrey" stroke-width="3.07" d="M407.19,-196.77C408.68,-192.09 410.47,-186.47 412.19,-181.07"/>
</g>
<!-- fin&#45;&#45;épuisement de la ressource -->
<g id="edge3" class="edge">
<title>fin&#45;&#45;épuisement de la ressource</title>
<path fill="none" stroke="darkgrey" stroke-width="1.02" d="M414.8,-209.27C423.99,-210.58 436.98,-212.42 446.17,-213.72"/>
</g>
<!-- fin&#45;&#45;impact environnemental -->
<g id="edge4" class="edge">
<title>fin&#45;&#45;impact environnemental</title>
<path fill="none" stroke="darkgrey" stroke-width="3.04" d="M414.9,-209.45C427.84,-211.48 449.81,-214.91 468.77,-217.88"/>
</g>
<!-- emploi&#45;&#45;pollution -->
<g id="edge5" class="edge">
<title>emploi&#45;&#45;pollution</title>
<path fill="none" stroke="darkgrey" stroke-width="5.59" d="M376.68,-167.93C383.18,-166.79 390.57,-165.5 397.33,-164.32"/>
</g>
<!-- emploi&#45;&#45;impact environnemental -->
<g id="edge6" class="edge">
<title>emploi&#45;&#45;impact environnemental</title>
<path fill="none" stroke="darkgrey" stroke-width="6.24" d="M375.7,-177.2C398.87,-185.52 440.86,-200.58 470.64,-211.27"/>
</g>
<!-- emploi&#45;&#45;conflit -->
<g id="edge7" class="edge">
<title>emploi&#45;&#45;conflit</title>
<path fill="none" stroke="darkgrey" stroke-width="1.25" d="M376.6,-168.21C402.47,-164.08 449.05,-156.63 466.58,-153.83"/>
</g>
<!-- emploi&#45;&#45;économie du pays -->
<g id="edge8" class="edge">
<title>emploi&#45;&#45;économie du pays</title>
<path fill="none" stroke="darkgrey" stroke-width="3.2" d="M371.5,-183.7C390.28,-202.15 424.71,-235.95 440.28,-251.24"/>
</g>
<!-- emploi&#45;&#45;amélioration environnementale -->
<g id="edge9" class="edge">
<title>emploi&#45;&#45;amélioration environnementale</title>
<path fill="none" stroke="darkgrey" stroke-width="4.28" d="M353.76,-188.71C348.26,-208.49 339.4,-240.38 333.9,-260.17"/>
</g>
<!-- emploi&#45;&#45;famille -->
<g id="edge10" class="edge">
<title>emploi&#45;&#45;famille</title>
<path fill="none" stroke="darkgrey" stroke-width="1.09" d="M343.59,-160.76C313.81,-140.37 249.78,-96.51 243.85,-92.44"/>
</g>
<!-- emploi&#45;&#45;développement durable -->
<g id="edge11" class="edge">
<title>emploi&#45;&#45;développement durable</title>
<path fill="none" stroke="darkgrey" stroke-width="1.26" d="M341.62,-176.95C328.28,-181.55 310.14,-187.8 298.83,-191.7"/>
</g>
<!-- emploi&#45;&#45;innovation -->
<g id="edge12" class="edge">
<title>emploi&#45;&#45;innovation</title>
<path fill="none" stroke="darkgrey" stroke-width="1.01" d="M359.1,-189.16C359.39,-200.94 359.76,-215.95 360.01,-226.03"/>
</g>
<!-- pollution&#45;&#45;épuisement de la ressource -->
<g id="edge14" class="edge">
<title>pollution&#45;&#45;épuisement de la ressource</title>
<path fill="none" stroke="darkgrey" stroke-width="3.62" d="M431.13,-178.19C437.73,-187.56 445.57,-198.69 450.92,-206.3"/>
</g>
<!-- pollution&#45;&#45;impact environnemental -->
<g id="edge17" class="edge">
<title>pollution&#45;&#45;impact environnemental</title>
<path fill="none" stroke="darkgrey" stroke-width="10" d="M436.14,-173.31C447.42,-181.57 462.41,-192.54 475.5,-202.11"/>
</g>
<!-- pollution&#45;&#45;conflit -->
<g id="edge18" class="edge">
<title>pollution&#45;&#45;conflit</title>
<path fill="none" stroke="darkgrey" stroke-width="1.69" d="M440.07,-157.52C449.44,-156.17 459.81,-154.69 466.48,-153.73"/>
</g>
<!-- pollution&#45;&#45;économie du pays -->
<g id="edge21" class="edge">
<title>pollution&#45;&#45;économie du pays</title>
<path fill="none" stroke="darkgrey" stroke-width="3.39" d="M425.01,-181.47C431.18,-202.04 440.35,-232.61 445.14,-248.57"/>
</g>
<!-- pollution&#45;&#45;amélioration environnementale -->
<g id="edge22" class="edge">
<title>pollution&#45;&#45;amélioration environnementale</title>
<path fill="none" stroke="darkgrey" stroke-width="2.4" d="M405.49,-177.87C387.75,-201.06 356.57,-241.79 340.03,-263.41"/>
</g>
<!-- pollution&#45;&#45;développement durable -->
<g id="edge24" class="edge">
<title>pollution&#45;&#45;développement durable</title>
<path fill="none" stroke="darkgrey" stroke-width="1.2" d="M397.78,-166.16C369.69,-173.64 320.86,-186.65 299.19,-192.43"/>
</g>
<!-- pollution&#45;&#45;innovation -->
<g id="edge25" class="edge">
<title>pollution&#45;&#45;innovation</title>
<path fill="none" stroke="darkgrey" stroke-width="2.34" d="M405.47,-177.97C393.48,-193.7 376.32,-216.21 366.97,-228.46"/>
</g>
<!-- pollution&#45;&#45;montagne -->
<g id="edge15" class="edge">
<title>pollution&#45;&#45;montagne</title>
<path fill="none" stroke="darkgrey" d="M407.54,-142.01C389.09,-111.39 353.44,-52.24 344.82,-37.93"/>
</g>
<!-- pollution&#45;&#45;biodiversité -->
<g id="edge16" class="edge">
<title>pollution&#45;&#45;biodiversité</title>
<path fill="none" stroke="darkgrey" stroke-width="2.01" d="M420.34,-138.9C422.95,-103.84 427.96,-36.39 429.6,-14.24"/>
</g>
<!-- pollution&#45;&#45;vision positive de la ressource -->
<g id="edge19" class="edge">
<title>pollution&#45;&#45;vision positive de la ressource</title>
<path fill="none" stroke="darkgrey" stroke-width="1.06" d="M430.08,-179.09C450.35,-212.18 491.55,-279.42 500.93,-294.73"/>
</g>
<!-- pollution&#45;&#45;développement -->
<g id="edge20" class="edge">
<title>pollution&#45;&#45;développement</title>
<path fill="none" stroke="darkgrey" stroke-width="3.35" d="M417.05,-182.07C414.79,-210.89 410.85,-260.98 409.11,-283.21"/>
</g>
<!-- pollution&#45;&#45;déclin -->
<g id="edge23" class="edge">
<title>pollution&#45;&#45;déclin</title>
<path fill="none" stroke="darkgrey" stroke-width="1.11" d="M433.76,-145.14C453.04,-125.33 485.09,-92.4 494.18,-83.06"/>
</g>
<!-- pollution&#45;&#45;richesse -->
<g id="edge26" class="edge">
<title>pollution&#45;&#45;richesse</title>
<path fill="none" stroke="darkgrey" stroke-width="1.09" d="M439.42,-154.69C471.7,-145.5 531.98,-128.35 547.42,-123.95"/>
</g>
<!-- épuisement de la ressource&#45;&#45;impact environnemental -->
<g id="edge27" class="edge">
<title>épuisement de la ressource&#45;&#45;impact environnemental</title>
<path fill="none" stroke="darkgrey" stroke-width="4.09" d="M468.26,-217.2C468.48,-217.23 468.7,-217.27 468.93,-217.31"/>
</g>
<!-- épuisement de la ressource&#45;&#45;conflit -->
<g id="edge28" class="edge">
<title>épuisement de la ressource&#45;&#45;conflit</title>
<path fill="none" stroke="darkgrey" stroke-width="1.5" d="M460.09,-204.39C463.43,-191.51 468.9,-170.45 471.71,-159.63"/>
</g>
<!-- épuisement de la ressource&#45;&#45;économie du pays -->
<g id="edge30" class="edge">
<title>épuisement de la ressource&#45;&#45;économie du pays</title>
<path fill="none" stroke="darkgrey" stroke-width="1.29" d="M455,-226.35C453.63,-233.05 451.89,-241.55 450.53,-248.22"/>
</g>
<!-- épuisement de la ressource&#45;&#45;développement -->
<g id="edge29" class="edge">
<title>épuisement de la ressource&#45;&#45;développement</title>
<path fill="none" stroke="darkgrey" stroke-width="2.05" d="M451.44,-224.68C442,-239.9 423.47,-269.81 414.04,-285.02"/>
</g>
<!-- impact environnemental&#45;&#45;conflit -->
<g id="edge32" class="edge">
<title>impact environnemental&#45;&#45;conflit</title>
<path fill="none" stroke="darkgrey" stroke-width="4.59" d="M490.03,-190.19C484.84,-178.42 479.52,-166.36 476.37,-159.2"/>
</g>
<!-- impact environnemental&#45;&#45;économie du pays -->
<g id="edge36" class="edge">
<title>impact environnemental&#45;&#45;économie du pays</title>
<path fill="none" stroke="darkgrey" stroke-width="4.39" d="M474.2,-242.77C468.18,-246.58 462.3,-250.29 457.67,-253.22"/>
</g>
<!-- impact environnemental&#45;&#45;amélioration environnementale -->
<g id="edge37" class="edge">
<title>impact environnemental&#45;&#45;amélioration environnementale</title>
<path fill="none" stroke="darkgrey" stroke-width="2.56" d="M470.01,-234.23C432.8,-245.74 375.22,-263.53 346.52,-272.41"/>
</g>
<!-- impact environnemental&#45;&#45;innovation -->
<g id="edge40" class="edge">
<title>impact environnemental&#45;&#45;innovation</title>
<path fill="none" stroke="darkgrey" stroke-width="2.14" d="M468.65,-226.93C436.73,-229.97 392.12,-234.21 371.52,-236.17"/>
</g>
<!-- impact environnemental&#45;&#45;vision positive de la ressource -->
<g id="edge33" class="edge">
<title>impact environnemental&#45;&#45;vision positive de la ressource</title>
<path fill="none" stroke="darkgrey" stroke-width="1.62" d="M503.81,-259.82C503.47,-273.68 503.11,-287.71 502.95,-294.18"/>
</g>
<!-- impact environnemental&#45;&#45;développement -->
<g id="edge35" class="edge">
<title>impact environnemental&#45;&#45;développement</title>
<path fill="none" stroke="darkgrey" stroke-width="4.97" d="M475.51,-244.97C455.54,-259.64 430.39,-278.11 417.22,-287.79"/>
</g>
<!-- impact environnemental&#45;&#45;déclin -->
<g id="edge39" class="edge">
<title>impact environnemental&#45;&#45;déclin</title>
<path fill="none" stroke="darkgrey" stroke-width="1.55" d="M502.69,-187.42C500.63,-151.02 497.65,-98.24 496.86,-84.11"/>
</g>
<!-- impact environnemental&#45;&#45;richesse -->
<g id="edge41" class="edge">
<title>impact environnemental&#45;&#45;richesse</title>
<path fill="none" stroke="darkgrey" stroke-width="1.56" d="M519.91,-190.56C531,-166.5 544.89,-136.39 549.52,-126.35"/>
</g>
<!-- impact environnemental&#45;&#45;croissance minière -->
<g id="edge31" class="edge">
<title>impact environnemental&#45;&#45;croissance minière</title>
<path fill="none" stroke="darkgrey" stroke-width="1.33" d="M524.56,-253.82C546.84,-287.87 580.45,-339.23 584.56,-345.51"/>
</g>
<!-- impact environnemental&#45;&#45;avenir -->
<g id="edge34" class="edge">
<title>impact environnemental&#45;&#45;avenir</title>
<path fill="none" stroke="darkgrey" stroke-width="1.12" d="M538.15,-209.68C568.02,-197.33 607.82,-180.88 612.68,-178.87"/>
</g>
<!-- impact environnemental&#45;&#45;revenu -->
<g id="edge38" class="edge">
<title>impact environnemental&#45;&#45;revenu</title>
<path fill="none" stroke="darkgrey" stroke-width="1.45" d="M536.76,-240.06C573.85,-259.23 630.79,-288.66 637.76,-292.26"/>
</g>
<!-- impact environnemental&#45;&#45;automatisation -->
<g id="edge42" class="edge">
<title>impact environnemental&#45;&#45;automatisation</title>
<path fill="none" stroke="darkgrey" stroke-width="1.01" d="M541.04,-221.45C583.66,-219.04 650.58,-215.26 666.64,-214.35"/>
</g>
<!-- conflit&#45;&#45;économie du pays -->
<g id="edge43" class="edge">
<title>conflit&#45;&#45;économie du pays</title>
<path fill="none" stroke="darkgrey" stroke-width="1.2" d="M471.85,-159.7C467.56,-177.83 456.04,-226.48 450.87,-248.29"/>
</g>
<!-- amélioration environnementale&#45;&#45;développement durable -->
<g id="edge49" class="edge">
<title>amélioration environnementale&#45;&#45;développement durable</title>
<path fill="none" stroke="darkgrey" stroke-width="3.35" d="M320.96,-261.52C312.71,-244.81 300.14,-219.34 293.24,-205.37"/>
</g>
<!-- amélioration environnementale&#45;&#45;innovation -->
<g id="edge50" class="edge">
<title>amélioration environnementale&#45;&#45;innovation</title>
<path fill="none" stroke="darkgrey" stroke-width="1.23" d="M340.29,-263.17C344.63,-257.54 349.46,-251.28 353.28,-246.32"/>
</g>
<!-- amélioration environnementale&#45;&#45;maintien de l’exploitation -->
<g id="edge48" class="edge">
<title>amélioration environnementale&#45;&#45;maintien de l’exploitation</title>
<path fill="none" stroke="darkgrey" stroke-width="1.61" d="M311.71,-283.69C280.72,-294.2 217.51,-315.65 202.19,-320.84"/>
</g>
<!-- développement durable&#45;&#45;innovation -->
<g id="edge51" class="edge">
<title>développement durable&#45;&#45;innovation</title>
<path fill="none" stroke="darkgrey" stroke-width="1.6" d="M298,-200.98C311.82,-209.03 336.99,-223.68 350.73,-231.68"/>
</g>
<!-- procédé industriel&#45;&#45;amélioration environnementale -->
<g id="edge13" class="edge">
<title>procédé industriel&#45;&#45;amélioration environnementale</title>
<path fill="none" stroke="darkgrey" stroke-width="1.02" d="M282.41,-387.09C288.15,-373.62 310.37,-321.52 321.92,-294.42"/>
</g>
<!-- vision positive de la ressource&#45;&#45;économie du pays -->
<g id="edge44" class="edge">
<title>vision positive de la ressource&#45;&#45;économie du pays</title>
<path fill="none" stroke="darkgrey" stroke-width="1.24" d="M499.93,-295.79C492.05,-290.2 470.17,-274.65 457.57,-265.7"/>
</g>
<!-- développement&#45;&#45;économie du pays -->
<g id="edge45" class="edge">
<title>développement&#45;&#45;économie du pays</title>
<path fill="none" stroke="darkgrey" stroke-width="1.87" d="M416.73,-286.91C423.53,-280.93 433.02,-272.58 439.82,-266.59"/>
</g>
<!-- développement&#45;&#45;amélioration environnementale -->
<g id="edge46" class="edge">
<title>développement&#45;&#45;amélioration environnementale</title>
<path fill="none" stroke="darkgrey" stroke-width="2.08" d="M397.21,-292.09C384.12,-289.35 362.09,-284.74 346.62,-281.51"/>
</g>
<!-- développement&#45;&#45;innovation -->
<g id="edge47" class="edge">
<title>développement&#45;&#45;innovation</title>
<path fill="none" stroke="darkgrey" stroke-width="1.09" d="M401.16,-285.96C392.09,-275.15 376.47,-256.53 367.39,-245.71"/>
</g>
<!-- fin -->
<g id="node1" class="node">
<title>fin</title>
<ellipse fill="#751b6e" stroke="white" stroke-width="0" cx="403.7" cy="-207.7" rx="11" ry="11"/>
<text text-anchor="middle" x="381.7" y="-223.26" font-family="Helvetica,sans-Serif" font-size="16.80" fill="#4d4d4d">fin</text>
</g>
<!-- emploi -->
<g id="node2" class="node">
<title>emploi</title>
<ellipse fill="#b1325a" stroke="white" stroke-width="0" cx="358.65" cy="-171.08" rx="18" ry="18"/>
<text text-anchor="middle" x="307.15" y="-159.08" font-family="Helvetica,sans-Serif" font-size="20.00" fill="#4d4d4d">emploi</text>
</g>
<!-- pollution -->
<g id="node3" class="node">
<title>pollution</title>
<ellipse fill="#e75e2e" stroke="white" stroke-width="0" cx="418.73" cy="-160.57" rx="21.5" ry="21.5"/>
<text text-anchor="middle" x="350.23" y="-121.79" font-family="Helvetica,sans-Serif" font-size="21.60" fill="#4d4d4d">pollution</text>
</g>
<!-- épuisement de la ressource -->
<g id="node4" class="node">
<title>épuisement de la ressource</title>
<ellipse fill="#5c126e" stroke="white" stroke-width="0" cx="457.25" cy="-215.29" rx="11" ry="11"/>
<text text-anchor="middle" x="328.75" y="-208.85" font-family="Helvetica,sans-Serif" font-size="16.80" fill="#4d4d4d">épuisement de la ressource</text>
</g>
<!-- impact environnemental -->
<g id="node5" class="node">
<title>impact environnemental</title>
<ellipse fill="#fcffa4" stroke="white" stroke-width="0" cx="504.72" cy="-223.5" rx="36" ry="36"/>
<text text-anchor="middle" x="641.22" y="-268.1" font-family="Helvetica,sans-Serif" font-size="28.00" fill="#4d4d4d">impact environnemental</text>
</g>
<!-- conflit -->
<g id="node6" class="node">
<title>conflit</title>
<ellipse fill="#490b6a" stroke="white" stroke-width="0" cx="473.51" cy="-152.72" rx="7" ry="7"/>
<text text-anchor="middle" x="490.51" y="-164.56" font-family="Helvetica,sans-Serif" font-size="15.20" fill="#4d4d4d">conflit</text>
</g>
<!-- économie du pays -->
<g id="node7" class="node">
<title>économie du pays</title>
<ellipse fill="#57106e" stroke="white" stroke-width="0" cx="448.31" cy="-259.12" rx="11" ry="11"/>
<text text-anchor="middle" x="360.31" y="-252.68" font-family="Helvetica,sans-Serif" font-size="16.80" fill="#4d4d4d">économie du pays</text>
</g>
<!-- amélioration environnementale -->
<g id="node8" class="node">
<title>amélioration environnementale</title>
<ellipse fill="#b43359" stroke="white" stroke-width="0" cx="329" cy="-277.82" rx="18" ry="18"/>
<text text-anchor="middle" x="155.5" y="-301.82" font-family="Helvetica,sans-Serif" font-size="20.00" fill="#4d4d4d">amélioration environnementale</text>
</g>
<!-- famille -->
<g id="node9" class="node">
<title>famille</title>
<ellipse fill="#010106" stroke="white" stroke-width="0" cx="243.4" cy="-92.14" rx="0.5" ry="0.5"/>
<text text-anchor="middle" x="222.4" y="-96.04" font-family="Helvetica,sans-Serif" font-size="12.00" fill="#4d4d4d">famille</text>
</g>
<!-- développement durable -->
<g id="node10" class="node">
<title>développement durable</title>
<ellipse fill="#57106e" stroke="white" stroke-width="0" cx="288.29" cy="-195.33" rx="11" ry="11"/>
<text text-anchor="middle" x="176.29" y="-188.89" font-family="Helvetica,sans-Serif" font-size="16.80" fill="#4d4d4d">développement durable</text>
</g>
<!-- innovation -->
<g id="node11" class="node">
<title>innovation</title>
<ellipse fill="#721a6e" stroke="white" stroke-width="0" cx="360.28" cy="-237.24" rx="11" ry="11"/>
<text text-anchor="middle" x="304.78" y="-230.8" font-family="Helvetica,sans-Serif" font-size="16.80" fill="#4d4d4d">innovation</text>
</g>
<!-- procédé industriel -->
<g id="node12" class="node">
<title>procédé industriel</title>
<ellipse fill="#040314" stroke="white" stroke-width="0" cx="281.02" cy="-390.34" rx="3.5" ry="3.5"/>
<text text-anchor="middle" x="216.02" y="-397.96" font-family="Helvetica,sans-Serif" font-size="13.60" fill="#4d4d4d">procédé industriel</text>
</g>
<!-- montagne -->
<g id="node13" class="node">
<title>montagne</title>
<ellipse fill="#040312" stroke="white" stroke-width="0" cx="342.9" cy="-34.76" rx="3.5" ry="3.5"/>
<text text-anchor="middle" x="304.4" y="-42.38" font-family="Helvetica,sans-Serif" font-size="13.60" fill="#4d4d4d">montagne</text>
</g>
<!-- biodiversité -->
<g id="node14" class="node">
<title>biodiversité</title>
<ellipse fill="#290b55" stroke="white" stroke-width="0" cx="430.14" cy="-7" rx="7" ry="7"/>
<text text-anchor="middle" x="378.14" y="-18.84" font-family="Helvetica,sans-Serif" font-size="15.20" fill="#4d4d4d">biodiversité</text>
</g>
<!-- vision positive de la ressource -->
<g id="node15" class="node">
<title>vision positive de la ressource</title>
<ellipse fill="#230c4c" stroke="white" stroke-width="0" cx="502.86" cy="-297.88" rx="3.5" ry="3.5"/>
<text text-anchor="middle" x="601.86" y="-305.5" font-family="Helvetica,sans-Serif" font-size="13.60" fill="#4d4d4d">vision positive de la ressource</text>
</g>
<!-- développement -->
<g id="node16" class="node">
<title>développement</title>
<ellipse fill="#59106e" stroke="white" stroke-width="0" cx="408.23" cy="-294.39" rx="11" ry="11"/>
<text text-anchor="middle" x="463.73" y="-309.95" font-family="Helvetica,sans-Serif" font-size="16.80" fill="#4d4d4d">développement</text>
</g>
<!-- déclin -->
<g id="node17" class="node">
<title>déclin</title>
<ellipse fill="#180c3c" stroke="white" stroke-width="0" cx="496.65" cy="-80.52" rx="3.5" ry="3.5"/>
<text text-anchor="middle" x="472.65" y="-88.14" font-family="Helvetica,sans-Serif" font-size="13.60" fill="#4d4d4d">déclin</text>
</g>
<!-- richesse -->
<g id="node18" class="node">
<title>richesse</title>
<ellipse fill="#040312" stroke="white" stroke-width="0" cx="551.1" cy="-122.91" rx="3.5" ry="3.5"/>
<text text-anchor="middle" x="520.1" y="-130.53" font-family="Helvetica,sans-Serif" font-size="13.60" fill="#4d4d4d">richesse</text>
</g>
<!-- croissance minière -->
<g id="node19" class="node">
<title>croissance minière</title>
<ellipse fill="#010106" stroke="white" stroke-width="0" cx="584.98" cy="-346.15" rx="0.5" ry="0.5"/>
<text text-anchor="middle" x="528.48" y="-350.05" font-family="Helvetica,sans-Serif" font-size="12.00" fill="#4d4d4d">croissance minière</text>
</g>
<!-- avenir -->
<g id="node20" class="node">
<title>avenir</title>
<ellipse fill="#000004" stroke="white" stroke-width="0" cx="613.17" cy="-178.66" rx="0.5" ry="0.5"/>
<text text-anchor="middle" x="593.67" y="-182.56" font-family="Helvetica,sans-Serif" font-size="12.00" fill="#4d4d4d">avenir</text>
</g>
<!-- revenu -->
<g id="node21" class="node">
<title>revenu</title>
<ellipse fill="#02020c" stroke="white" stroke-width="0" cx="638.47" cy="-292.63" rx="0.5" ry="0.5"/>
<text text-anchor="middle" x="616.97" y="-295.53" font-family="Helvetica,sans-Serif" font-size="12.00" fill="#4d4d4d">revenu</text>
</g>
<!-- automatisation -->
<g id="node22" class="node">
<title>automatisation</title>
<ellipse fill="#140b34" stroke="white" stroke-width="0" cx="670.19" cy="-214.15" rx="3.5" ry="3.5"/>
<text text-anchor="middle" x="615.69" y="-221.77" font-family="Helvetica,sans-Serif" font-size="13.60" fill="#4d4d4d">automatisation</text>
</g>
<!-- maintien de l’exploitation -->
<g id="node23" class="node">
<title>maintien de l’exploitation</title>
<ellipse fill="#0d0829" stroke="white" stroke-width="0" cx="198.79" cy="-322" rx="3.5" ry="3.5"/>
<text text-anchor="middle" x="107.79" y="-329.62" font-family="Helvetica,sans-Serif" font-size="13.60" fill="#4d4d4d">maintien de l’exploitation</text>
</g>
</g>
</svg>
