<?xml version="1.0" encoding="UTF-8" standalone="no"?>
<!DOCTYPE svg PUBLIC "-//W3C//DTD SVG 1.1//EN"
 "http://www.w3.org/Graphics/SVG/1.1/DTD/svg11.dtd">
<!-- Generated by graphviz version 2.43.0 (0)
 -->
<!-- Pages: 1 -->
<svg width="1052pt" height="532pt"
 viewBox="0.00 0.00 1051.52 531.97" xmlns="http://www.w3.org/2000/svg" xmlns:xlink="http://www.w3.org/1999/xlink">
<g id="graph0" class="graph" transform="scale(1 1) rotate(0) translate(4 527.97)">
<polygon fill="white" stroke="transparent" points="-4,4 -4,-527.97 1047.52,-527.97 1047.52,4 -4,4"/>
<!-- pollution&#45;&#45;dégradation environnementale -->
<g id="edge1" class="edge">
<title>pollution&#45;&#45;dégradation environnementale</title>
<path fill="none" stroke="darkgrey" stroke-width="10" d="M652.23,-362.79C645.3,-350.37 635.52,-332.8 627.26,-317.99"/>
</g>
<!-- pollution&#45;&#45;nouvelle&#45;calédonie -->
<g id="edge2" class="edge">
<title>pollution&#45;&#45;nouvelle&#45;calédonie</title>
<path fill="none" stroke="darkgrey" stroke-width="1.29" d="M643.85,-384.22C627.7,-389.37 604.82,-396.65 596.19,-399.4"/>
</g>
<!-- pollution&#45;&#45;travail -->
<g id="edge3" class="edge">
<title>pollution&#45;&#45;travail</title>
<path fill="none" stroke="darkgrey" stroke-width="6.68" d="M662.24,-360.67C663.71,-337.25 666.28,-296.29 667.93,-269.88"/>
</g>
<!-- pollution&#45;&#45;économie -->
<g id="edge4" class="edge">
<title>pollution&#45;&#45;économie</title>
<path fill="none" stroke="darkgrey" stroke-width="5.45" d="M666.82,-361.39C677.65,-328.52 701.05,-257.53 711.83,-224.82"/>
</g>
<!-- pollution&#45;&#45;nickel -->
<g id="edge5" class="edge">
<title>pollution&#45;&#45;nickel</title>
<path fill="none" stroke="darkgrey" stroke-width="4.83" d="M671.9,-363.89C694.59,-332.71 747.55,-259.91 777.35,-218.94"/>
</g>
<!-- pollution&#45;&#45;ressource minière -->
<g id="edge6" class="edge">
<title>pollution&#45;&#45;ressource minière</title>
<path fill="none" stroke="darkgrey" stroke-width="1.83" d="M677.41,-386.61C709.02,-401.89 777.82,-435.15 803.49,-447.55"/>
</g>
<!-- pollution&#45;&#45;politique -->
<g id="edge7" class="edge">
<title>pollution&#45;&#45;politique</title>
<path fill="none" stroke="darkgrey" stroke-width="2.86" d="M673.59,-365.63C696.04,-342.07 742.81,-292.98 763.5,-271.27"/>
</g>
<!-- pollution&#45;&#45;secteur nickel -->
<g id="edge8" class="edge">
<title>pollution&#45;&#45;secteur nickel</title>
<path fill="none" stroke="darkgrey" stroke-width="2.62" d="M677.36,-370.91C691.69,-364.02 712.47,-354.03 726.87,-347.11"/>
</g>
<!-- pollution&#45;&#45;nature -->
<g id="edge9" class="edge">
<title>pollution&#45;&#45;nature</title>
<path fill="none" stroke="darkgrey" stroke-width="3.58" d="M678.3,-372.66C711.97,-360.79 786.01,-334.66 816.8,-323.8"/>
</g>
<!-- pollution&#45;&#45;société néo&#45;calédonienne -->
<g id="edge10" class="edge">
<title>pollution&#45;&#45;société néo&#45;calédonienne</title>
<path fill="none" stroke="darkgrey" stroke-width="1.06" d="M662.92,-396.89C665.95,-427.28 671.86,-486.62 673.38,-501.84"/>
</g>
<!-- pollution&#45;&#45;exploitation minière -->
<g id="edge11" class="edge">
<title>pollution&#45;&#45;exploitation minière</title>
<path fill="none" stroke="darkgrey" stroke-width="1.93" d="M676.68,-387.87C694.7,-398.44 723.78,-415.5 738.72,-424.26"/>
</g>
<!-- pollution&#45;&#45;alternative au développement -->
<g id="edge12" class="edge">
<title>pollution&#45;&#45;alternative au développement</title>
<path fill="none" stroke="darkgrey" stroke-width="1.74" d="M654.32,-361.91C633.54,-310.36 571.53,-156.57 561.49,-131.68"/>
</g>
<!-- pollution&#45;&#45;matériel -->
<g id="edge13" class="edge">
<title>pollution&#45;&#45;matériel</title>
<path fill="none" stroke="darkgrey" stroke-width="2.69" d="M678.9,-374.98C724.05,-365.46 842.41,-340.49 883.49,-331.83"/>
</g>
<!-- pollution&#45;&#45;industrie -->
<g id="edge14" class="edge">
<title>pollution&#45;&#45;industrie</title>
<path fill="none" stroke="darkgrey" stroke-width="2.44" d="M679.04,-380.9C718.04,-385.61 810.17,-396.75 849.26,-401.48"/>
</g>
<!-- dégradation environnementale&#45;&#45;nouvelle&#45;calédonie -->
<g id="edge15" class="edge">
<title>dégradation environnementale&#45;&#45;nouvelle&#45;calédonie</title>
<path fill="none" stroke="darkgrey" stroke-width="1.42" d="M606.02,-321.66C601.39,-349.05 595.2,-385.75 593.29,-397.05"/>
</g>
<!-- dégradation environnementale&#45;&#45;travail -->
<g id="edge16" class="edge">
<title>dégradation environnementale&#45;&#45;travail</title>
<path fill="none" stroke="darkgrey" stroke-width="7.75" d="M637.41,-269.55C641.52,-266.39 645.71,-263.16 649.64,-260.12"/>
</g>
<!-- dégradation environnementale&#45;&#45;économie -->
<g id="edge17" class="edge">
<title>dégradation environnementale&#45;&#45;économie</title>
<path fill="none" stroke="darkgrey" stroke-width="7.77" d="M637.37,-269.55C658.09,-253.54 686.36,-231.71 703.19,-218.72"/>
</g>
<!-- dégradation environnementale&#45;&#45;nickel -->
<g id="edge18" class="edge">
<title>dégradation environnementale&#45;&#45;nickel</title>
<path fill="none" stroke="darkgrey" stroke-width="9.2" d="M640.28,-274.17C674.45,-255.93 731.19,-225.63 766.69,-206.68"/>
</g>
<!-- dégradation environnementale&#45;&#45;ressource minière -->
<g id="edge19" class="edge">
<title>dégradation environnementale&#45;&#45;ressource minière</title>
<path fill="none" stroke="darkgrey" stroke-width="4.07" d="M637.01,-310.19C682.66,-346.98 776.05,-422.24 804.8,-445.41"/>
</g>
<!-- dégradation environnementale&#45;&#45;politique -->
<g id="edge20" class="edge">
<title>dégradation environnementale&#45;&#45;politique</title>
<path fill="none" stroke="darkgrey" stroke-width="4.1" d="M643.49,-283.84C678.6,-277.56 733.33,-267.77 759.22,-263.13"/>
</g>
<!-- dégradation environnementale&#45;&#45;secteur nickel -->
<g id="edge21" class="edge">
<title>dégradation environnementale&#45;&#45;secteur nickel</title>
<path fill="none" stroke="darkgrey" stroke-width="3.9" d="M642.03,-301.08C668.22,-310.92 704.96,-324.74 726.26,-332.74"/>
</g>
<!-- dégradation environnementale&#45;&#45;nature -->
<g id="edge22" class="edge">
<title>dégradation environnementale&#45;&#45;nature</title>
<path fill="none" stroke="darkgrey" stroke-width="5.4" d="M643.78,-293.91C692.13,-300.38 781.3,-312.32 816.15,-316.98"/>
</g>
<!-- dégradation environnementale&#45;&#45;société néo&#45;calédonienne -->
<g id="edge24" class="edge">
<title>dégradation environnementale&#45;&#45;société néo&#45;calédonienne</title>
<path fill="none" stroke="darkgrey" stroke-width="1.8" d="M620.49,-320.97C636.09,-375 666.9,-481.75 672.77,-502.08"/>
</g>
<!-- dégradation environnementale&#45;&#45;exploitation minière -->
<g id="edge25" class="edge">
<title>dégradation environnementale&#45;&#45;exploitation minière</title>
<path fill="none" stroke="darkgrey" stroke-width="3.73" d="M634.33,-313.06C665.67,-345.19 720.33,-401.23 740.49,-421.9"/>
</g>
<!-- dégradation environnementale&#45;&#45;alternative au développement -->
<g id="edge26" class="edge">
<title>dégradation environnementale&#45;&#45;alternative au développement</title>
<path fill="none" stroke="darkgrey" stroke-width="2.06" d="M601.54,-258.48C588.49,-217.46 566.56,-148.53 561.28,-131.94"/>
</g>
<!-- dégradation environnementale&#45;&#45;matériel -->
<g id="edge27" class="edge">
<title>dégradation environnementale&#45;&#45;matériel</title>
<path fill="none" stroke="darkgrey" stroke-width="4.38" d="M643.72,-294C705.74,-302.5 839.27,-320.8 883.34,-326.84"/>
</g>
<!-- dégradation environnementale&#45;&#45;industrie -->
<g id="edge30" class="edge">
<title>dégradation environnementale&#45;&#45;industrie</title>
<path fill="none" stroke="darkgrey" stroke-width="3.25" d="M641.28,-302.89C695.46,-327.04 808.3,-377.35 850.71,-396.26"/>
</g>
<!-- dégradation environnementale&#45;&#45;amélioration environnementale -->
<g id="edge23" class="edge">
<title>dégradation environnementale&#45;&#45;amélioration environnementale</title>
<path fill="none" stroke="darkgrey" stroke-width="1.09" d="M581.42,-302.25C487.29,-342.01 203.24,-461.98 189.98,-467.59"/>
</g>
<!-- dégradation environnementale&#45;&#45;foncier -->
<g id="edge28" class="edge">
<title>dégradation environnementale&#45;&#45;foncier</title>
<path fill="none" stroke="darkgrey" stroke-width="2.15" d="M643.81,-292.86C728.59,-301.44 952.7,-324.13 983.79,-327.28"/>
</g>
<!-- dégradation environnementale&#45;&#45;relation politique -->
<g id="edge29" class="edge">
<title>dégradation environnementale&#45;&#45;relation politique</title>
<path fill="none" stroke="darkgrey" stroke-width="1" d="M625.56,-260.31C658.02,-193.09 736.03,-31.56 748.02,-6.73"/>
</g>
<!-- dégradation environnementale&#45;&#45;risque -->
<g id="edge31" class="edge">
<title>dégradation environnementale&#45;&#45;risque</title>
<path fill="none" stroke="darkgrey" stroke-width="1.68" d="M583.56,-272.27C513.57,-228.81 335.16,-118.02 324.08,-111.14"/>
</g>
<!-- dégradation environnementale&#45;&#45;échange commercial -->
<g id="edge32" class="edge">
<title>dégradation environnementale&#45;&#45;échange commercial</title>
<path fill="none" stroke="darkgrey" stroke-width="1.97" d="M642.05,-278.46C706.36,-255.1 852.33,-202.08 885.66,-189.98"/>
</g>
<!-- nouvelle&#45;calédonie&#45;&#45;travail -->
<g id="edge33" class="edge">
<title>nouvelle&#45;calédonie&#45;&#45;travail</title>
<path fill="none" stroke="darkgrey" stroke-width="1.5" d="M594.32,-397.26C602.46,-380.75 639.56,-305.53 658.42,-267.28"/>
</g>
<!-- nouvelle&#45;calédonie&#45;&#45;économie -->
<g id="edge34" class="edge">
<title>nouvelle&#45;calédonie&#45;&#45;économie</title>
<path fill="none" stroke="darkgrey" stroke-width="1.19" d="M594.67,-397.48C607.6,-377.5 680.93,-264.17 707.69,-222.8"/>
</g>
<!-- nouvelle&#45;calédonie&#45;&#45;nickel -->
<g id="edge35" class="edge">
<title>nouvelle&#45;calédonie&#45;&#45;nickel</title>
<path fill="none" stroke="darkgrey" stroke-width="2.73" d="M595.32,-397.84C613.57,-379.15 723.1,-267 773.44,-215.46"/>
</g>
<!-- nouvelle&#45;calédonie&#45;&#45;ressource minière -->
<g id="edge36" class="edge">
<title>nouvelle&#45;calédonie&#45;&#45;ressource minière</title>
<path fill="none" stroke="darkgrey" stroke-width="1.23" d="M596.18,-401.32C620.2,-406.96 762.1,-440.3 802.62,-449.81"/>
</g>
<!-- nouvelle&#45;calédonie&#45;&#45;politique -->
<g id="edge37" class="edge">
<title>nouvelle&#45;calédonie&#45;&#45;politique</title>
<path fill="none" stroke="darkgrey" stroke-width="1.98" d="M595.55,-398.31C614.76,-383.46 725.85,-297.56 762.21,-269.44"/>
</g>
<!-- nouvelle&#45;calédonie&#45;&#45;secteur nickel -->
<g id="edge38" class="edge">
<title>nouvelle&#45;calédonie&#45;&#45;secteur nickel</title>
<path fill="none" stroke="darkgrey" stroke-width="1.54" d="M596.14,-399.11C613.44,-392.07 691.68,-360.22 726.53,-346.03"/>
</g>
<!-- nouvelle&#45;calédonie&#45;&#45;nature -->
<g id="edge39" class="edge">
<title>nouvelle&#45;calédonie&#45;&#45;nature</title>
<path fill="none" stroke="darkgrey" d="M596.07,-399.35C620.42,-391.01 770,-339.72 816.72,-323.7"/>
</g>
<!-- nouvelle&#45;calédonie&#45;&#45;exploitation minière -->
<g id="edge40" class="edge">
<title>nouvelle&#45;calédonie&#45;&#45;exploitation minière</title>
<path fill="none" stroke="darkgrey" stroke-width="1.04" d="M596.25,-401.18C615.24,-404.76 705.35,-421.76 737.12,-427.75"/>
</g>
<!-- nouvelle&#45;calédonie&#45;&#45;industrie -->
<g id="edge41" class="edge">
<title>nouvelle&#45;calédonie&#45;&#45;industrie</title>
<path fill="none" stroke="darkgrey" stroke-width="1.39" d="M596.59,-400.55C624.3,-400.87 792.54,-402.8 848.91,-403.45"/>
</g>
<!-- travail&#45;&#45;économie -->
<g id="edge42" class="edge">
<title>travail&#45;&#45;économie</title>
<path fill="none" stroke="darkgrey" stroke-width="7.76" d="M689.29,-229.5C693.94,-225.9 698.8,-222.14 703.15,-218.77"/>
</g>
<!-- travail&#45;&#45;nickel -->
<g id="edge43" class="edge">
<title>travail&#45;&#45;nickel</title>
<path fill="none" stroke="darkgrey" stroke-width="8.14" d="M692.6,-234.94C712.78,-226.31 742.33,-213.68 765.12,-203.94"/>
</g>
<!-- travail&#45;&#45;ressource minière -->
<g id="edge44" class="edge">
<title>travail&#45;&#45;ressource minière</title>
<path fill="none" stroke="darkgrey" stroke-width="3.25" d="M683.83,-265.47C714.4,-309.56 785.02,-411.4 806.86,-442.9"/>
</g>
<!-- travail&#45;&#45;politique -->
<g id="edge45" class="edge">
<title>travail&#45;&#45;politique</title>
<path fill="none" stroke="darkgrey" stroke-width="4.03" d="M694.47,-248.58C714.7,-251.63 742.51,-255.83 759.24,-258.35"/>
</g>
<!-- travail&#45;&#45;secteur nickel -->
<g id="edge46" class="edge">
<title>travail&#45;&#45;secteur nickel</title>
<path fill="none" stroke="darkgrey" stroke-width="4.99" d="M685.17,-264.83C699.23,-282.79 719.53,-308.71 732.06,-324.73"/>
</g>
<!-- travail&#45;&#45;nature -->
<g id="edge47" class="edge">
<title>travail&#45;&#45;nature</title>
<path fill="none" stroke="darkgrey" stroke-width="3.19" d="M692.25,-255.28C726.43,-270.99 789.96,-300.21 817.43,-312.84"/>
</g>
<!-- travail&#45;&#45;société néo&#45;calédonienne -->
<g id="edge48" class="edge">
<title>travail&#45;&#45;société néo&#45;calédonienne</title>
<path fill="none" stroke="darkgrey" stroke-width="1.69" d="M669.92,-270.28C670.89,-330.23 673.28,-477.09 673.69,-501.89"/>
</g>
<!-- travail&#45;&#45;exploitation minière -->
<g id="edge49" class="edge">
<title>travail&#45;&#45;exploitation minière</title>
<path fill="none" stroke="darkgrey" stroke-width="3" d="M679.32,-267.88C696.55,-308.37 731.58,-390.7 743.87,-419.57"/>
</g>
<!-- travail&#45;&#45;alternative au développement -->
<g id="edge50" class="edge">
<title>travail&#45;&#45;alternative au développement</title>
<path fill="none" stroke="darkgrey" stroke-width="1.14" d="M652.17,-226.35C625.18,-197.59 574.94,-144.07 562.81,-131.13"/>
</g>
<!-- travail&#45;&#45;matériel -->
<g id="edge51" class="edge">
<title>travail&#45;&#45;matériel</title>
<path fill="none" stroke="darkgrey" stroke-width="3.62" d="M693.07,-253.49C740.58,-270.97 846.49,-309.94 884.16,-323.8"/>
</g>
<!-- travail&#45;&#45;industrie -->
<g id="edge54" class="edge">
<title>travail&#45;&#45;industrie</title>
<path fill="none" stroke="darkgrey" stroke-width="3.73" d="M689.19,-260.63C729.06,-292.64 818.49,-364.46 853.18,-392.31"/>
</g>
<!-- travail&#45;&#45;foncier -->
<g id="edge52" class="edge">
<title>travail&#45;&#45;foncier</title>
<path fill="none" stroke="darkgrey" stroke-width="1.26" d="M693.92,-251.18C762.83,-269.13 955.67,-319.38 983.92,-326.74"/>
</g>
<!-- travail&#45;&#45;relation politique -->
<g id="edge53" class="edge">
<title>travail&#45;&#45;relation politique</title>
<path fill="none" stroke="darkgrey" stroke-width="1.1" d="M677.47,-220.8C695.91,-165.24 740.52,-30.81 748.38,-7.1"/>
</g>
<!-- travail&#45;&#45;risque -->
<g id="edge55" class="edge">
<title>travail&#45;&#45;risque</title>
<path fill="none" stroke="darkgrey" stroke-width="1.74" d="M646,-235.71C570.56,-206.49 338.66,-116.66 324.24,-111.08"/>
</g>
<!-- travail&#45;&#45;échange commercial -->
<g id="edge56" class="edge">
<title>travail&#45;&#45;échange commercial</title>
<path fill="none" stroke="darkgrey" stroke-width="1.78" d="M693.8,-238.57C743.92,-225.69 856.55,-196.73 885.59,-189.27"/>
</g>
<!-- économie&#45;&#45;nickel -->
<g id="edge57" class="edge">
<title>économie&#45;&#45;nickel</title>
<path fill="none" stroke="darkgrey" stroke-width="6.12" d="M735.1,-203.76C743.41,-201.91 753.63,-199.63 763.42,-197.45"/>
</g>
<!-- économie&#45;&#45;ressource minière -->
<g id="edge58" class="edge">
<title>économie&#45;&#45;ressource minière</title>
<path fill="none" stroke="darkgrey" stroke-width="2.13" d="M724.07,-224.5C742.52,-271.57 794.34,-403.7 809.31,-441.89"/>
</g>
<!-- économie&#45;&#45;politique -->
<g id="edge59" class="edge">
<title>économie&#45;&#45;politique</title>
<path fill="none" stroke="darkgrey" stroke-width="4.55" d="M730.8,-220.21C740.68,-229.49 753.96,-241.97 763.12,-250.57"/>
</g>
<!-- économie&#45;&#45;secteur nickel -->
<g id="edge60" class="edge">
<title>économie&#45;&#45;secteur nickel</title>
<path fill="none" stroke="darkgrey" stroke-width="3.25" d="M720.96,-225.42C725.91,-250.51 734.89,-296.13 739.85,-321.3"/>
</g>
<!-- économie&#45;&#45;nature -->
<g id="edge61" class="edge">
<title>économie&#45;&#45;nature</title>
<path fill="none" stroke="darkgrey" stroke-width="2.51" d="M730.45,-220.45C753.1,-242.7 799.38,-288.19 820.15,-308.6"/>
</g>
<!-- économie&#45;&#45;société néo&#45;calédonienne -->
<g id="edge62" class="edge">
<title>économie&#45;&#45;société néo&#45;calédonienne</title>
<path fill="none" stroke="darkgrey" stroke-width="1.16" d="M714.8,-225.87C706.05,-285.47 678.54,-472.8 674.3,-501.71"/>
</g>
<!-- économie&#45;&#45;exploitation minière -->
<g id="edge63" class="edge">
<title>économie&#45;&#45;exploitation minière</title>
<path fill="none" stroke="darkgrey" stroke-width="1.69" d="M719.99,-225.87C726.13,-270.22 741.75,-382.96 746.7,-418.76"/>
</g>
<!-- économie&#45;&#45;alternative au développement -->
<g id="edge64" class="edge">
<title>économie&#45;&#45;alternative au développement</title>
<path fill="none" stroke="darkgrey" stroke-width="1.3" d="M701.22,-199.49C665.42,-181.41 581.46,-139.04 563.53,-129.99"/>
</g>
<!-- économie&#45;&#45;matériel -->
<g id="edge65" class="edge">
<title>économie&#45;&#45;matériel</title>
<path fill="none" stroke="darkgrey" stroke-width="2.04" d="M732.53,-217.81C767.4,-241.23 853.15,-298.84 885.32,-320.45"/>
</g>
<!-- économie&#45;&#45;industrie -->
<g id="edge67" class="edge">
<title>économie&#45;&#45;industrie</title>
<path fill="none" stroke="darkgrey" stroke-width="2.42" d="M728.49,-222.1C756.2,-258.34 828.54,-352.96 856.27,-389.23"/>
</g>
<!-- économie&#45;&#45;relation politique -->
<g id="edge66" class="edge">
<title>économie&#45;&#45;relation politique</title>
<path fill="none" stroke="darkgrey" stroke-width="1.13" d="M720.32,-189.57C727.41,-144.47 745.53,-29.26 749,-7.19"/>
</g>
<!-- économie&#45;&#45;échange commercial -->
<g id="edge68" class="edge">
<title>économie&#45;&#45;échange commercial</title>
<path fill="none" stroke="darkgrey" stroke-width="1.48" d="M735.55,-205.6C773.46,-201.23 859.89,-191.25 885.34,-188.31"/>
</g>
<!-- nickel&#45;&#45;ressource minière -->
<g id="edge69" class="edge">
<title>nickel&#45;&#45;ressource minière</title>
<path fill="none" stroke="darkgrey" stroke-width="5.35" d="M800.72,-225.57C804.1,-285.87 810.73,-404.33 812.79,-441.16"/>
</g>
<!-- nickel&#45;&#45;politique -->
<g id="edge70" class="edge">
<title>nickel&#45;&#45;politique</title>
<path fill="none" stroke="darkgrey" stroke-width="2.54" d="M786.66,-223.81C783.81,-231.89 780.93,-240.06 778.62,-246.63"/>
</g>
<!-- nickel&#45;&#45;secteur nickel -->
<g id="edge71" class="edge">
<title>nickel&#45;&#45;secteur nickel</title>
<path fill="none" stroke="darkgrey" stroke-width="6.17" d="M786.15,-223.53C774.8,-254.21 758.55,-298.14 749.7,-322.05"/>
</g>
<!-- nickel&#45;&#45;nature -->
<g id="edge72" class="edge">
<title>nickel&#45;&#45;nature</title>
<path fill="none" stroke="darkgrey" stroke-width="5.58" d="M807.35,-224.58C813.85,-250.92 822.43,-285.63 827.15,-304.75"/>
</g>
<!-- nickel&#45;&#45;exploitation minière -->
<g id="edge73" class="edge">
<title>nickel&#45;&#45;exploitation minière</title>
<path fill="none" stroke="darkgrey" stroke-width="7.37" d="M791.26,-225.03C779.64,-280.38 757.76,-384.52 750.59,-418.68"/>
</g>
<!-- nickel&#45;&#45;alternative au développement -->
<g id="edge74" class="edge">
<title>nickel&#45;&#45;alternative au développement</title>
<path fill="none" stroke="darkgrey" stroke-width="1.48" d="M763.76,-180.6C703.7,-165.17 585.25,-134.73 563.57,-129.15"/>
</g>
<!-- nickel&#45;&#45;matériel -->
<g id="edge75" class="edge">
<title>nickel&#45;&#45;matériel</title>
<path fill="none" stroke="darkgrey" stroke-width="5.4" d="M819.72,-219.11C841.3,-249.44 873.85,-295.18 889.19,-316.75"/>
</g>
<!-- nickel&#45;&#45;industrie -->
<g id="edge78" class="edge">
<title>nickel&#45;&#45;industrie</title>
<path fill="none" stroke="darkgrey" stroke-width="8.01" d="M809.73,-223.98C824.58,-270.31 850.44,-351.02 861.74,-386.31"/>
</g>
<!-- nickel&#45;&#45;foncier -->
<g id="edge76" class="edge">
<title>nickel&#45;&#45;foncier</title>
<path fill="none" stroke="darkgrey" stroke-width="2" d="M827.78,-210.85C875.33,-245.65 966.27,-312.19 984.26,-325.35"/>
</g>
<!-- nickel&#45;&#45;relation politique -->
<g id="edge77" class="edge">
<title>nickel&#45;&#45;relation politique</title>
<path fill="none" stroke="darkgrey" stroke-width="1.05" d="M789.47,-154.58C776.9,-106.99 755.43,-25.68 750.57,-7.28"/>
</g>
<!-- nickel&#45;&#45;échange commercial -->
<g id="edge79" class="edge">
<title>nickel&#45;&#45;échange commercial</title>
<path fill="none" stroke="darkgrey" stroke-width="2.51" d="M834.71,-188.78C853.31,-188.36 874.34,-187.89 885.18,-187.65"/>
</g>
<!-- ressource minière&#45;&#45;politique -->
<g id="edge80" class="edge">
<title>ressource minière&#45;&#45;politique</title>
<path fill="none" stroke="darkgrey" stroke-width="2.94" d="M811.17,-441.49C804.41,-408.84 784.28,-311.56 776.68,-274.81"/>
</g>
<!-- ressource minière&#45;&#45;secteur nickel -->
<g id="edge81" class="edge">
<title>ressource minière&#45;&#45;secteur nickel</title>
<path fill="none" stroke="darkgrey" stroke-width="1.81" d="M807.44,-442.7C795.33,-423.13 767.79,-378.64 753.07,-354.85"/>
</g>
<!-- ressource minière&#45;&#45;nature -->
<g id="edge82" class="edge">
<title>ressource minière&#45;&#45;nature</title>
<path fill="none" stroke="darkgrey" stroke-width="1.77" d="M814.82,-441.43C817.91,-417.53 825.27,-360.57 828.75,-333.58"/>
</g>
<!-- ressource minière&#45;&#45;exploitation minière -->
<g id="edge83" class="edge">
<title>ressource minière&#45;&#45;exploitation minière</title>
<path fill="none" stroke="darkgrey" stroke-width="2.39" d="M802.94,-448.73C790.85,-444.56 771.07,-437.73 758.9,-433.53"/>
</g>
<!-- ressource minière&#45;&#45;matériel -->
<g id="edge84" class="edge">
<title>ressource minière&#45;&#45;matériel</title>
<path fill="none" stroke="darkgrey" stroke-width="1.82" d="M819.75,-443.06C834.78,-421.07 872.53,-365.78 889.4,-341.08"/>
</g>
<!-- ressource minière&#45;&#45;industrie -->
<g id="edge85" class="edge">
<title>ressource minière&#45;&#45;industrie</title>
<path fill="none" stroke="darkgrey" stroke-width="2.38" d="M821.83,-444.74C830.36,-437.04 843.68,-425 853.7,-415.94"/>
</g>
<!-- ressource minière&#45;&#45;échange commercial -->
<g id="edge86" class="edge">
<title>ressource minière&#45;&#45;échange commercial</title>
<path fill="none" stroke="darkgrey" stroke-width="1.41" d="M816.61,-441.64C829.79,-397.51 879.71,-230.39 890.47,-194.36"/>
</g>
<!-- politique&#45;&#45;secteur nickel -->
<g id="edge87" class="edge">
<title>politique&#45;&#45;secteur nickel</title>
<path fill="none" stroke="darkgrey" stroke-width="3.03" d="M768.43,-274.24C763.27,-287.61 755.4,-308 749.86,-322.35"/>
</g>
<!-- politique&#45;&#45;nature -->
<g id="edge88" class="edge">
<title>politique&#45;&#45;nature</title>
<path fill="none" stroke="darkgrey" stroke-width="1.32" d="M783.9,-270.98C794.13,-281.47 809.83,-297.58 820.17,-308.18"/>
</g>
<!-- politique&#45;&#45;société néo&#45;calédonienne -->
<g id="edge89" class="edge">
<title>politique&#45;&#45;société néo&#45;calédonienne</title>
<path fill="none" stroke="darkgrey" stroke-width="1.36" d="M768.2,-274.06C748.96,-321.19 685.45,-476.8 675.16,-502.01"/>
</g>
<!-- politique&#45;&#45;exploitation minière -->
<g id="edge90" class="edge">
<title>politique&#45;&#45;exploitation minière</title>
<path fill="none" stroke="darkgrey" stroke-width="1.68" d="M771.55,-274.97C766.57,-308.08 754.4,-388.91 749.93,-418.64"/>
</g>
<!-- politique&#45;&#45;alternative au développement -->
<g id="edge91" class="edge">
<title>politique&#45;&#45;alternative au développement</title>
<path fill="none" stroke="darkgrey" stroke-width="1.36" d="M761.31,-252.86C719.47,-226.94 584.91,-143.62 563.11,-130.12"/>
</g>
<!-- politique&#45;&#45;matériel -->
<g id="edge92" class="edge">
<title>politique&#45;&#45;matériel</title>
<path fill="none" stroke="darkgrey" stroke-width="1.2" d="M786.53,-267.59C810.3,-280.67 860.99,-308.57 884.85,-321.7"/>
</g>
<!-- politique&#45;&#45;industrie -->
<g id="edge95" class="edge">
<title>politique&#45;&#45;industrie</title>
<path fill="none" stroke="darkgrey" stroke-width="2.61" d="M781.7,-272.74C798.76,-298.83 838.75,-359.99 857.4,-388.51"/>
</g>
<!-- politique&#45;&#45;foncier -->
<g id="edge93" class="edge">
<title>politique&#45;&#45;foncier</title>
<path fill="none" stroke="darkgrey" stroke-width="1.07" d="M787.74,-264.94C831.01,-278.53 960.9,-319.33 983.89,-326.55"/>
</g>
<!-- politique&#45;&#45;relation politique -->
<g id="edge94" class="edge">
<title>politique&#45;&#45;relation politique</title>
<path fill="none" stroke="darkgrey" stroke-width="1.69" d="M772.35,-245.98C767.67,-196.07 752.39,-33.46 749.92,-7.12"/>
</g>
<!-- politique&#45;&#45;échange commercial -->
<g id="edge96" class="edge">
<title>politique&#45;&#45;échange commercial</title>
<path fill="none" stroke="darkgrey" stroke-width="1.45" d="M786.44,-252.72C811.81,-237.11 867.91,-202.62 886.44,-191.22"/>
</g>
<!-- secteur nickel&#45;&#45;nature -->
<g id="edge97" class="edge">
<title>secteur nickel&#45;&#45;nature</title>
<path fill="none" stroke="darkgrey" stroke-width="1.8" d="M761.03,-335.07C777.37,-331.28 801.34,-325.72 816.46,-322.21"/>
</g>
<!-- secteur nickel&#45;&#45;société néo&#45;calédonienne -->
<g id="edge98" class="edge">
<title>secteur nickel&#45;&#45;société néo&#45;calédonienne</title>
<path fill="none" stroke="darkgrey" stroke-width="1.22" d="M736.31,-356.03C720.54,-393.69 683.23,-482.81 675.26,-501.85"/>
</g>
<!-- secteur nickel&#45;&#45;exploitation minière -->
<g id="edge99" class="edge">
<title>secteur nickel&#45;&#45;exploitation minière</title>
<path fill="none" stroke="darkgrey" stroke-width="2.03" d="M744.35,-357.52C745.34,-375.84 746.82,-403.4 747.64,-418.67"/>
</g>
<!-- secteur nickel&#45;&#45;alternative au développement -->
<g id="edge100" class="edge">
<title>secteur nickel&#45;&#45;alternative au développement</title>
<path fill="none" stroke="darkgrey" stroke-width="1.09" d="M731.35,-325.33C693.92,-282.26 580.92,-152.21 562.63,-131.16"/>
</g>
<!-- secteur nickel&#45;&#45;matériel -->
<g id="edge101" class="edge">
<title>secteur nickel&#45;&#45;matériel</title>
<path fill="none" stroke="darkgrey" stroke-width="2.37" d="M761.38,-337.96C792.25,-335.89 854.66,-331.71 883.08,-329.8"/>
</g>
<!-- secteur nickel&#45;&#45;industrie -->
<g id="edge103" class="edge">
<title>secteur nickel&#45;&#45;industrie</title>
<path fill="none" stroke="darkgrey" stroke-width="5.12" d="M759.57,-347.6C783.32,-359.96 827.34,-382.86 851.1,-395.22"/>
</g>
<!-- secteur nickel&#45;&#45;foncier -->
<g id="edge102" class="edge">
<title>secteur nickel&#45;&#45;foncier</title>
<path fill="none" stroke="darkgrey" stroke-width="1.77" d="M761.71,-338.31C813.58,-335.86 959.18,-328.98 983.83,-327.81"/>
</g>
<!-- secteur nickel&#45;&#45;échange commercial -->
<g id="edge104" class="edge">
<title>secteur nickel&#45;&#45;échange commercial</title>
<path fill="none" stroke="darkgrey" stroke-width="1.94" d="M756.09,-326.24C787.36,-294.43 866.99,-213.44 887.59,-192.49"/>
</g>
<!-- nature&#45;&#45;société néo&#45;calédonienne -->
<g id="edge105" class="edge">
<title>nature&#45;&#45;société néo&#45;calédonienne</title>
<path fill="none" stroke="darkgrey" stroke-width="1.26" d="M821.3,-330.03C790.42,-366.74 692.71,-482.92 676.14,-502.62"/>
</g>
<!-- nature&#45;&#45;exploitation minière -->
<g id="edge106" class="edge">
<title>nature&#45;&#45;exploitation minière</title>
<path fill="none" stroke="darkgrey" stroke-width="1.42" d="M821.83,-330.79C805.22,-353.15 769.65,-401.03 754.88,-420.91"/>
</g>
<!-- nature&#45;&#45;matériel -->
<g id="edge107" class="edge">
<title>nature&#45;&#45;matériel</title>
<path fill="none" stroke="darkgrey" stroke-width="3.11" d="M845.21,-321.07C856.47,-322.73 871.99,-325.01 883.24,-326.67"/>
</g>
<!-- nature&#45;&#45;industrie -->
<g id="edge109" class="edge">
<title>nature&#45;&#45;industrie</title>
<path fill="none" stroke="darkgrey" stroke-width="2.41" d="M836.53,-332.53C842.93,-347.32 853.15,-370.94 860.04,-386.87"/>
</g>
<!-- nature&#45;&#45;foncier -->
<g id="edge108" class="edge">
<title>nature&#45;&#45;foncier</title>
<path fill="none" stroke="darkgrey" stroke-width="1.38" d="M845.39,-319.74C879.84,-321.66 964.13,-326.35 983.42,-327.42"/>
</g>
<!-- nature&#45;&#45;échange commercial -->
<g id="edge110" class="edge">
<title>nature&#45;&#45;échange commercial</title>
<path fill="none" stroke="darkgrey" stroke-width="1.12" d="M837.03,-305.35C850.19,-277.41 879.86,-214.37 889.46,-193.98"/>
</g>
<!-- société néo&#45;calédonienne&#45;&#45;matériel -->
<g id="edge111" class="edge">
<title>société néo&#45;calédonienne&#45;&#45;matériel</title>
<path fill="none" stroke="darkgrey" stroke-width="1.42" d="M676.58,-503.24C698.71,-485.79 844.2,-371.06 886.35,-337.83"/>
</g>
<!-- exploitation minière&#45;&#45;matériel -->
<g id="edge112" class="edge">
<title>exploitation minière&#45;&#45;matériel</title>
<path fill="none" stroke="darkgrey" stroke-width="2.6" d="M757.59,-423.53C783.55,-405.99 856.49,-356.71 885.58,-337.06"/>
</g>
<!-- exploitation minière&#45;&#45;industrie -->
<g id="edge113" class="edge">
<title>exploitation minière&#45;&#45;industrie</title>
<path fill="none" stroke="darkgrey" stroke-width="2.84" d="M759.23,-427.43C779.84,-422.9 824.46,-413.08 849.45,-407.59"/>
</g>
<!-- exploitation minière&#45;&#45;échange commercial -->
<g id="edge114" class="edge">
<title>exploitation minière&#45;&#45;échange commercial</title>
<path fill="none" stroke="darkgrey" stroke-width="1.74" d="M753.9,-420.35C777.65,-380.44 869.05,-226.91 888.76,-193.8"/>
</g>
<!-- matériel&#45;&#45;industrie -->
<g id="edge116" class="edge">
<title>matériel&#45;&#45;industrie</title>
<path fill="none" stroke="darkgrey" stroke-width="4.01" d="M892.19,-342.54C887.1,-355.03 879.58,-373.51 874.14,-386.87"/>
</g>
<!-- matériel&#45;&#45;foncier -->
<g id="edge115" class="edge">
<title>matériel&#45;&#45;foncier</title>
<path fill="none" stroke="darkgrey" stroke-width="1.24" d="M912.57,-328.62C933.85,-328.35 971.84,-327.85 983.73,-327.69"/>
</g>
<!-- matériel&#45;&#45;échange commercial -->
<g id="edge117" class="edge">
<title>matériel&#45;&#45;échange commercial</title>
<path fill="none" stroke="darkgrey" stroke-width="1.62" d="M897.23,-314.22C896.12,-284.32 893.62,-217.03 892.79,-194.78"/>
</g>
<!-- industrie&#45;&#45;échange commercial -->
<g id="edge120" class="edge">
<title>industrie&#45;&#45;échange commercial</title>
<path fill="none" stroke="darkgrey" stroke-width="1.54" d="M869.41,-385.6C874.67,-340.54 888.18,-224.65 891.68,-194.66"/>
</g>
<!-- foncier&#45;&#45;industrie -->
<g id="edge118" class="edge">
<title>foncier&#45;&#45;industrie</title>
<path fill="none" stroke="darkgrey" stroke-width="2.01" d="M984.42,-329.52C970.48,-338.35 910.99,-376 882.56,-394"/>
</g>
<!-- relation politique&#45;&#45;échange commercial -->
<g id="edge119" class="edge">
<title>relation politique&#45;&#45;échange commercial</title>
<path fill="none" stroke="darkgrey" stroke-width="1.12" d="M751.82,-6.39C767.95,-27.15 866.1,-153.48 888.13,-181.84"/>
</g>
<!-- pollution -->
<g id="node1" class="node">
<title>pollution</title>
<ellipse fill="#a82e5f" stroke="white" stroke-width="0" cx="661.11" cy="-378.73" rx="18" ry="18"/>
<text text-anchor="middle" x="600.11" y="-366.73" font-family="Helvetica,sans-Serif" font-size="20.00" fill="#4d4d4d">pollution</text>
</g>
<!-- dégradation environnementale -->
<g id="node2" class="node">
<title>dégradation environnementale</title>
<ellipse fill="#f1ec6d" stroke="white" stroke-width="0" cx="611.43" cy="-289.58" rx="32.5" ry="32.5"/>
<text text-anchor="middle" x="373.43" y="-329.96" font-family="Helvetica,sans-Serif" font-size="26.40" fill="#4d4d4d">dégradation environnementale</text>
</g>
<!-- nouvelle&#45;calédonie -->
<g id="node3" class="node">
<title>nouvelle&#45;calédonie</title>
<ellipse fill="#120a32" stroke="white" stroke-width="0" cx="592.71" cy="-400.51" rx="3.5" ry="3.5"/>
<text text-anchor="middle" x="525.21" y="-408.13" font-family="Helvetica,sans-Serif" font-size="13.60" fill="#4d4d4d">nouvelle&#45;calédonie</text>
</g>
<!-- travail -->
<g id="node4" class="node">
<title>travail</title>
<ellipse fill="#e9612b" stroke="white" stroke-width="0" cx="669.5" cy="-244.82" rx="25" ry="25"/>
<text text-anchor="middle" x="607" y="-227.26" font-family="Helvetica,sans-Serif" font-size="23.20" fill="#4d4d4d">travail</text>
</g>
<!-- économie -->
<g id="node5" class="node">
<title>économie</title>
<ellipse fill="#b3325a" stroke="white" stroke-width="0" cx="717.47" cy="-207.69" rx="18" ry="18"/>
<text text-anchor="middle" x="650.97" y="-195.69" font-family="Helvetica,sans-Serif" font-size="20.00" fill="#4d4d4d">économie</text>
</g>
<!-- nickel -->
<g id="node6" class="node">
<title>nickel</title>
<ellipse fill="#fcffa4" stroke="white" stroke-width="0" cx="798.71" cy="-189.58" rx="36" ry="36"/>
<text text-anchor="middle" x="721.71" y="-162.18" font-family="Helvetica,sans-Serif" font-size="28.00" fill="#4d4d4d">nickel</text>
</g>
<!-- ressource minière -->
<g id="node7" class="node">
<title>ressource minière</title>
<ellipse fill="#61136e" stroke="white" stroke-width="0" cx="813.41" cy="-452.35" rx="11" ry="11"/>
<text text-anchor="middle" x="726.41" y="-467.91" font-family="Helvetica,sans-Serif" font-size="16.80" fill="#4d4d4d">ressource minière</text>
</g>
<!-- politique -->
<g id="node8" class="node">
<title>politique</title>
<ellipse fill="#952667" stroke="white" stroke-width="0" cx="773.72" cy="-260.54" rx="14.5" ry="14.5"/>
<text text-anchor="middle" x="718.22" y="-280.32" font-family="Helvetica,sans-Serif" font-size="18.40" fill="#4d4d4d">politique</text>
</g>
<!-- secteur nickel -->
<g id="node9" class="node">
<title>secteur nickel</title>
<ellipse fill="#b0315b" stroke="white" stroke-width="0" cx="743.37" cy="-339.17" rx="18" ry="18"/>
<text text-anchor="middle" x="794.87" y="-363.17" font-family="Helvetica,sans-Serif" font-size="20.00" fill="#4d4d4d">secteur nickel</text>
</g>
<!-- nature -->
<g id="node10" class="node">
<title>nature</title>
<ellipse fill="#7f1e6c" stroke="white" stroke-width="0" cx="830.64" cy="-318.92" rx="14.5" ry="14.5"/>
<text text-anchor="middle" x="847.14" y="-338.7" font-family="Helvetica,sans-Serif" font-size="18.40" fill="#4d4d4d">nature</text>
</g>
<!-- société néo&#45;calédonienne -->
<g id="node11" class="node">
<title>société néo&#45;calédonienne</title>
<ellipse fill="#0e092b" stroke="white" stroke-width="0" cx="673.74" cy="-505.47" rx="3.5" ry="3.5"/>
<text text-anchor="middle" x="583.74" y="-513.09" font-family="Helvetica,sans-Serif" font-size="13.60" fill="#4d4d4d">société néo&#45;calédonienne</text>
</g>
<!-- exploitation minière -->
<g id="node12" class="node">
<title>exploitation minière</title>
<ellipse fill="#741a6e" stroke="white" stroke-width="0" cx="748.24" cy="-429.85" rx="11" ry="11"/>
<text text-anchor="middle" x="652.74" y="-445.41" font-family="Helvetica,sans-Serif" font-size="16.80" fill="#4d4d4d">exploitation minière</text>
</g>
<!-- alternative au développement -->
<g id="node13" class="node">
<title>alternative au développement</title>
<ellipse fill="#0b0724" stroke="white" stroke-width="0" cx="560.12" cy="-128.27" rx="3.5" ry="3.5"/>
<text text-anchor="middle" x="453.62" y="-135.89" font-family="Helvetica,sans-Serif" font-size="13.60" fill="#4d4d4d">alternative au développement</text>
</g>
<!-- matériel -->
<g id="node14" class="node">
<title>matériel</title>
<ellipse fill="#8c2369" stroke="white" stroke-width="0" cx="897.78" cy="-328.82" rx="14.5" ry="14.5"/>
<text text-anchor="middle" x="922.28" y="-348.6" font-family="Helvetica,sans-Serif" font-size="18.40" fill="#4d4d4d">matériel</text>
</g>
<!-- industrie -->
<g id="node15" class="node">
<title>industrie</title>
<ellipse fill="#ad305d" stroke="white" stroke-width="0" cx="867.3" cy="-403.66" rx="18" ry="18"/>
<text text-anchor="middle" x="805.3" y="-391.66" font-family="Helvetica,sans-Serif" font-size="20.00" fill="#4d4d4d">industrie</text>
</g>
<!-- amélioration environnementale -->
<g id="node16" class="node">
<title>amélioration environnementale</title>
<ellipse fill="#000004" stroke="white" stroke-width="0" cx="189.5" cy="-467.79" rx="0.5" ry="0.5"/>
<text text-anchor="middle" x="94.5" y="-471.69" font-family="Helvetica,sans-Serif" font-size="12.00" fill="#4d4d4d">amélioration environnementale</text>
</g>
<!-- foncier -->
<g id="node17" class="node">
<title>foncier</title>
<ellipse fill="#190c3e" stroke="white" stroke-width="0" cx="987.39" cy="-327.65" rx="3.5" ry="3.5"/>
<text text-anchor="middle" x="960.89" y="-328.27" font-family="Helvetica,sans-Serif" font-size="13.60" fill="#4d4d4d">foncier</text>
</g>
<!-- relation politique -->
<g id="node18" class="node">
<title>relation politique</title>
<ellipse fill="#040314" stroke="white" stroke-width="0" cx="749.58" cy="-3.5" rx="3.5" ry="3.5"/>
<text text-anchor="middle" x="688.58" y="-11.12" font-family="Helvetica,sans-Serif" font-size="13.60" fill="#4d4d4d">relation politique</text>
</g>
<!-- risque -->
<g id="node19" class="node">
<title>risque</title>
<ellipse fill="#010106" stroke="white" stroke-width="0" cx="323.54" cy="-110.81" rx="0.5" ry="0.5"/>
<text text-anchor="middle" x="304.54" y="-114.71" font-family="Helvetica,sans-Serif" font-size="12.00" fill="#4d4d4d">risque</text>
</g>
<!-- échange commercial -->
<g id="node20" class="node">
<title>échange commercial</title>
<ellipse fill="#2d0b59" stroke="white" stroke-width="0" cx="892.52" cy="-187.48" rx="7" ry="7"/>
<text text-anchor="middle" x="964.52" y="-199.32" font-family="Helvetica,sans-Serif" font-size="15.20" fill="#4d4d4d">échange commercial</text>
</g>
</g>
</svg>
