<?xml version="1.0" encoding="UTF-8" standalone="no"?>
<!DOCTYPE svg PUBLIC "-//W3C//DTD SVG 1.1//EN"
 "http://www.w3.org/Graphics/SVG/1.1/DTD/svg11.dtd">
<!-- Generated by graphviz version 2.43.0 (0)
 -->
<!-- Pages: 1 -->
<svg width="462pt" height="369pt"
 viewBox="0.00 0.00 461.88 369.17" xmlns="http://www.w3.org/2000/svg" xmlns:xlink="http://www.w3.org/1999/xlink">
<g id="graph0" class="graph" transform="scale(1 1) rotate(0) translate(4 365.17)">
<polygon fill="white" stroke="transparent" points="-4,4 -4,-365.17 457.88,-365.17 457.88,4 -4,4"/>
<!-- fin&#45;&#45;pollution -->
<g id="edge1" class="edge">
<title>fin&#45;&#45;pollution</title>
<path fill="none" stroke="darkgrey" stroke-width="1.62" d="M227.92,-21.61C233.82,-43.09 247.28,-92.2 255.44,-121.96"/>
</g>
<!-- fin&#45;&#45;impact environnemental -->
<g id="edge2" class="edge">
<title>fin&#45;&#45;impact environnemental</title>
<path fill="none" stroke="darkgrey" stroke-width="1.89" d="M220.71,-21.46C211.22,-44.53 188.14,-100.6 173.17,-136.98"/>
</g>
<!-- pollution&#45;&#45;impact environnemental -->
<g id="edge9" class="edge">
<title>pollution&#45;&#45;impact environnemental</title>
<path fill="none" stroke="darkgrey" stroke-width="10" d="M237.76,-151.96C224.83,-155 208.71,-158.8 194.46,-162.16"/>
</g>
<!-- pollution&#45;&#45;économie du pays -->
<g id="edge11" class="edge">
<title>pollution&#45;&#45;économie du pays</title>
<path fill="none" stroke="darkgrey" stroke-width="2.48" d="M239.12,-157.03C201.06,-174.93 126.43,-210.02 99.26,-222.8"/>
</g>
<!-- pollution&#45;&#45;amélioration environnementale -->
<g id="edge12" class="edge">
<title>pollution&#45;&#45;amélioration environnementale</title>
<path fill="none" stroke="darkgrey" stroke-width="1.61" d="M269.76,-170.08C274.47,-184.73 280.38,-203.14 284.63,-216.35"/>
</g>
<!-- pollution&#45;&#45;épuisement de la ressource -->
<g id="edge7" class="edge">
<title>pollution&#45;&#45;épuisement de la ressource</title>
<path fill="none" stroke="darkgrey" stroke-width="3.32" d="M249.83,-168.14C228.64,-205.96 186.02,-282.06 170.78,-309.27"/>
</g>
<!-- pollution&#45;&#45;biodiversité -->
<g id="edge8" class="edge">
<title>pollution&#45;&#45;biodiversité</title>
<path fill="none" stroke="darkgrey" stroke-width="1.26" d="M286.71,-150.61C332.37,-158.75 427.31,-175.68 446.83,-179.16"/>
</g>
<!-- pollution&#45;&#45;développement -->
<g id="edge10" class="edge">
<title>pollution&#45;&#45;développement</title>
<path fill="none" stroke="darkgrey" stroke-width="1.66" d="M250.48,-168.69C238.55,-191.77 220.52,-226.64 211.79,-243.53"/>
</g>
<!-- pollution&#45;&#45;innovation -->
<g id="edge13" class="edge">
<title>pollution&#45;&#45;innovation</title>
<path fill="none" stroke="darkgrey" stroke-width="1.21" d="M283.89,-133.88C319.99,-113.44 390.76,-73.35 416.53,-58.76"/>
</g>
<!-- impact environnemental&#45;&#45;économie du pays -->
<g id="edge20" class="edge">
<title>impact environnemental&#45;&#45;économie du pays</title>
<path fill="none" stroke="darkgrey" stroke-width="3.5" d="M131.2,-193.34C119.27,-203.04 106.23,-213.64 97.86,-220.44"/>
</g>
<!-- impact environnemental&#45;&#45;amélioration environnementale -->
<g id="edge21" class="edge">
<title>impact environnemental&#45;&#45;amélioration environnementale</title>
<path fill="none" stroke="darkgrey" stroke-width="2.28" d="M192.06,-186.18C218.08,-198.74 253.41,-215.8 273.8,-225.64"/>
</g>
<!-- impact environnemental&#45;&#45;développement -->
<g id="edge19" class="edge">
<title>impact environnemental&#45;&#45;développement</title>
<path fill="none" stroke="darkgrey" stroke-width="2.73" d="M177.28,-201.79C185.76,-216.66 195.28,-233.38 201.13,-243.65"/>
</g>
<!-- impact environnemental&#45;&#45;conflit -->
<g id="edge18" class="edge">
<title>impact environnemental&#45;&#45;conflit</title>
<path fill="none" stroke="darkgrey" stroke-width="3.41" d="M142.75,-202.47C120.63,-245.04 83.03,-317.36 71.83,-338.92"/>
</g>
<!-- impact environnemental&#45;&#45;richesse -->
<g id="edge22" class="edge">
<title>impact environnemental&#45;&#45;richesse</title>
<path fill="none" stroke="darkgrey" stroke-width="1.25" d="M136.68,-142.38C102.59,-100.33 41.57,-25.08 35.92,-18.11"/>
</g>
<!-- emploi&#45;&#45;pollution -->
<g id="edge3" class="edge">
<title>emploi&#45;&#45;pollution</title>
<path fill="none" stroke="darkgrey" stroke-width="4.6" d="M122.91,-128.45C150.98,-132.03 205.19,-138.96 237.04,-143.03"/>
</g>
<!-- emploi&#45;&#45;impact environnemental -->
<g id="edge4" class="edge">
<title>emploi&#45;&#45;impact environnemental</title>
<path fill="none" stroke="darkgrey" stroke-width="4.54" d="M118.92,-137.55C122.7,-140.62 126.94,-144.06 131.21,-147.52"/>
</g>
<!-- emploi&#45;&#45;économie du pays -->
<g id="edge5" class="edge">
<title>emploi&#45;&#45;économie du pays</title>
<path fill="none" stroke="darkgrey" stroke-width="2.67" d="M102.04,-144.28C98.77,-165.26 93.49,-199.12 90.78,-216.51"/>
</g>
<!-- emploi&#45;&#45;amélioration environnementale -->
<g id="edge6" class="edge">
<title>emploi&#45;&#45;amélioration environnementale</title>
<path fill="none" stroke="darkgrey" stroke-width="2.98" d="M120.67,-135.3C155.67,-155.59 239.42,-204.13 274.39,-224.4"/>
</g>
<!-- amélioration environnementale&#45;&#45;développement durable -->
<g id="edge25" class="edge">
<title>amélioration environnementale&#45;&#45;développement durable</title>
<path fill="none" stroke="darkgrey" stroke-width="1.65" d="M302.96,-246.57C326.07,-270.07 373.78,-318.6 389.5,-334.59"/>
</g>
<!-- épuisement de la ressource&#45;&#45;impact environnemental -->
<g id="edge14" class="edge">
<title>épuisement de la ressource&#45;&#45;impact environnemental</title>
<path fill="none" stroke="darkgrey" stroke-width="3.77" d="M164.77,-308.04C163.94,-286.75 162.1,-239.56 160.81,-206.4"/>
</g>
<!-- épuisement de la ressource&#45;&#45;économie du pays -->
<g id="edge17" class="edge">
<title>épuisement de la ressource&#45;&#45;économie du pays</title>
<path fill="none" stroke="darkgrey" d="M157.9,-310.44C143.31,-292.88 110.71,-253.65 96.22,-236.22"/>
</g>
<!-- épuisement de la ressource&#45;&#45;développement -->
<g id="edge16" class="edge">
<title>épuisement de la ressource&#45;&#45;développement</title>
<path fill="none" stroke="darkgrey" stroke-width="1.08" d="M171.15,-309.8C179.03,-297.28 192.87,-275.32 200.75,-262.81"/>
</g>
<!-- épuisement de la ressource&#45;&#45;conflit -->
<g id="edge15" class="edge">
<title>épuisement de la ressource&#45;&#45;conflit</title>
<path fill="none" stroke="darkgrey" stroke-width="1.26" d="M154.49,-322.1C134.64,-327.43 92.63,-338.71 75.79,-343.24"/>
</g>
<!-- développement&#45;&#45;économie du pays -->
<g id="edge23" class="edge">
<title>développement&#45;&#45;économie du pays</title>
<path fill="none" stroke="darkgrey" stroke-width="1.28" d="M195.83,-251.02C173.42,-246.1 122.27,-234.88 99.89,-229.97"/>
</g>
<!-- développement&#45;&#45;amélioration environnementale -->
<g id="edge24" class="edge">
<title>développement&#45;&#45;amélioration environnementale</title>
<path fill="none" stroke="darkgrey" stroke-width="1.14" d="M217.6,-250.8C231.56,-247.48 255.92,-241.68 272.53,-237.73"/>
</g>
<!-- fin -->
<g id="node1" class="node">
<title>fin</title>
<ellipse fill="#71196e" stroke="white" stroke-width="0" cx="225.01" cy="-11" rx="11" ry="11"/>
<text text-anchor="middle" x="208.51" y="-24.6" font-family="Helvetica,sans-Serif" font-size="8.00" fill="#4d4d4d">fin</text>
</g>
<!-- pollution -->
<g id="node2" class="node">
<title>pollution</title>
<ellipse fill="#eb6628" stroke="white" stroke-width="0" cx="262.1" cy="-146.23" rx="25" ry="25"/>
<text text-anchor="middle" x="218.6" y="-173.83" font-family="Helvetica,sans-Serif" font-size="8.00" fill="#4d4d4d">pollution</text>
</g>
<!-- impact environnemental -->
<g id="node3" class="node">
<title>impact environnemental</title>
<ellipse fill="#fcffa4" stroke="white" stroke-width="0" cx="159.41" cy="-170.41" rx="36" ry="36"/>
<text text-anchor="middle" x="73.41" y="-209.01" font-family="Helvetica,sans-Serif" font-size="8.00" fill="#4d4d4d">impact environnemental</text>
</g>
<!-- emploi -->
<g id="node4" class="node">
<title>emploi</title>
<ellipse fill="#b1325a" stroke="white" stroke-width="0" cx="104.87" cy="-126.14" rx="18" ry="18"/>
<text text-anchor="middle" x="72.87" y="-146.74" font-family="Helvetica,sans-Serif" font-size="8.00" fill="#4d4d4d">emploi</text>
</g>
<!-- économie du pays -->
<g id="node5" class="node">
<title>économie du pays</title>
<ellipse fill="#59106e" stroke="white" stroke-width="0" cx="89.06" cy="-227.6" rx="11" ry="11"/>
<text text-anchor="middle" x="40.06" y="-241.2" font-family="Helvetica,sans-Serif" font-size="8.00" fill="#4d4d4d">économie du pays</text>
</g>
<!-- amélioration environnementale -->
<g id="node6" class="node">
<title>amélioration environnementale</title>
<ellipse fill="#ae305c" stroke="white" stroke-width="0" cx="290.15" cy="-233.53" rx="18" ry="18"/>
<text text-anchor="middle" x="207.65" y="-218.13" font-family="Helvetica,sans-Serif" font-size="8.00" fill="#4d4d4d">amélioration environnementale</text>
</g>
<!-- épuisement de la ressource -->
<g id="node7" class="node">
<title>épuisement de la ressource</title>
<ellipse fill="#5d126e" stroke="white" stroke-width="0" cx="165.2" cy="-319.23" rx="11" ry="11"/>
<text text-anchor="middle" x="97.2" y="-310.83" font-family="Helvetica,sans-Serif" font-size="8.00" fill="#4d4d4d">épuisement de la ressource</text>
</g>
<!-- biodiversité -->
<g id="node8" class="node">
<title>biodiversité</title>
<ellipse fill="#0e092b" stroke="white" stroke-width="0" cx="450.38" cy="-179.79" rx="3.5" ry="3.5"/>
<text text-anchor="middle" x="422.38" y="-185.89" font-family="Helvetica,sans-Serif" font-size="8.00" fill="#4d4d4d">biodiversité</text>
</g>
<!-- développement -->
<g id="node9" class="node">
<title>développement</title>
<ellipse fill="#550f6d" stroke="white" stroke-width="0" cx="206.69" cy="-253.4" rx="11" ry="11"/>
<text text-anchor="middle" x="163.19" y="-267" font-family="Helvetica,sans-Serif" font-size="8.00" fill="#4d4d4d">développement</text>
</g>
<!-- innovation -->
<g id="node10" class="node">
<title>innovation</title>
<ellipse fill="#65156e" stroke="white" stroke-width="0" cx="426.21" cy="-53.27" rx="11" ry="11"/>
<text text-anchor="middle" x="393.21" y="-66.87" font-family="Helvetica,sans-Serif" font-size="8.00" fill="#4d4d4d">innovation</text>
</g>
<!-- conflit -->
<g id="node11" class="node">
<title>conflit</title>
<ellipse fill="#420a68" stroke="white" stroke-width="0" cx="68.58" cy="-345.17" rx="7" ry="7"/>
<text text-anchor="middle" x="48.58" y="-354.77" font-family="Helvetica,sans-Serif" font-size="8.00" fill="#4d4d4d">conflit</text>
</g>
<!-- richesse -->
<g id="node12" class="node">
<title>richesse</title>
<ellipse fill="#000004" stroke="white" stroke-width="0" cx="35.5" cy="-17.59" rx="0.5" ry="0.5"/>
<text text-anchor="middle" x="17.5" y="-20.69" font-family="Helvetica,sans-Serif" font-size="8.00" fill="#4d4d4d">richesse</text>
</g>
<!-- développement durable -->
<g id="node13" class="node">
<title>développement durable</title>
<ellipse fill="#490b6a" stroke="white" stroke-width="0" cx="394.65" cy="-339.82" rx="7" ry="7"/>
<text text-anchor="middle" x="338.15" y="-349.42" font-family="Helvetica,sans-Serif" font-size="8.00" fill="#4d4d4d">développement durable</text>
</g>
</g>
</svg>
