<?xml version="1.0" encoding="UTF-8" standalone="no"?>
<!DOCTYPE svg PUBLIC "-//W3C//DTD SVG 1.1//EN"
 "http://www.w3.org/Graphics/SVG/1.1/DTD/svg11.dtd">
<!-- Generated by graphviz version 2.43.0 (0)
 -->
<!-- Pages: 1 -->
<svg width="485pt" height="284pt"
 viewBox="0.00 0.00 484.58 284.39" xmlns="http://www.w3.org/2000/svg" xmlns:xlink="http://www.w3.org/1999/xlink">
<g id="graph0" class="graph" transform="scale(1 1) rotate(0) translate(4 280.39)">
<polygon fill="white" stroke="transparent" points="-4,4 -4,-280.39 480.58,-280.39 480.58,4 -4,4"/>
<!-- emploi&#45;&#45;pollution -->
<g id="edge1" class="edge">
<title>emploi&#45;&#45;pollution</title>
<path fill="none" stroke="darkgrey" stroke-width="10" d="M364.59,-218.68C359.02,-196.42 349.32,-157.71 342.22,-129.36"/>
</g>
<!-- emploi&#45;&#45;impact environnemental -->
<g id="edge2" class="edge">
<title>emploi&#45;&#45;impact environnemental</title>
<path fill="none" stroke="darkgrey" stroke-width="1.79" d="M353.24,-226.9C332.88,-214.66 297.72,-193.51 277.51,-181.36"/>
</g>
<!-- pollution&#45;&#45;impact environnemental -->
<g id="edge4" class="edge">
<title>pollution&#45;&#45;impact environnemental</title>
<path fill="none" stroke="darkgrey" stroke-width="6.8" d="M308.84,-121C297.22,-133.66 283.85,-148.22 274.38,-158.54"/>
</g>
<!-- pollution&#45;&#45;épuisable -->
<g id="edge3" class="edge">
<title>pollution&#45;&#45;épuisable</title>
<path fill="none" stroke="darkgrey" stroke-width="9.44" d="M297.14,-91.78C256.6,-89.06 192.9,-84.78 164.42,-82.86"/>
</g>
<!-- pollution&#45;&#45;démolition -->
<g id="edge5" class="edge">
<title>pollution&#45;&#45;démolition</title>
<path fill="none" stroke="darkgrey" stroke-width="4.97" d="M366.15,-79.19C405.63,-61.06 467.71,-32.55 475.31,-29.06"/>
</g>
<!-- pollution&#45;&#45;économie -->
<g id="edge6" class="edge">
<title>pollution&#45;&#45;économie</title>
<path fill="none" stroke="darkgrey" stroke-width="5.05" d="M309.41,-66.97C294.87,-50.48 277.31,-30.55 267.56,-19.47"/>
</g>
<!-- impact environnemental&#45;&#45;économie -->
<g id="edge7" class="edge">
<title>impact environnemental&#45;&#45;économie</title>
<path fill="none" stroke="darkgrey" d="M261.78,-153.87C261.39,-120.31 260.55,-49.51 260.22,-22.14"/>
</g>
<!-- emploi -->
<g id="node1" class="node">
<title>emploi</title>
<ellipse fill="#c73e4c" stroke="white" stroke-width="0" cx="369.03" cy="-236.39" rx="18" ry="18"/>
<text text-anchor="middle" x="317.53" y="-260.39" font-family="Helvetica,sans-Serif" font-size="20.00" fill="#4d4d4d">emploi</text>
</g>
<!-- pollution -->
<g id="node2" class="node">
<title>pollution</title>
<ellipse fill="#fcffa4" stroke="white" stroke-width="0" cx="333.42" cy="-94.22" rx="36" ry="36"/>
<text text-anchor="middle" x="235.92" y="-66.82" font-family="Helvetica,sans-Serif" font-size="28.00" fill="#4d4d4d">pollution</text>
</g>
<!-- impact environnemental -->
<g id="node3" class="node">
<title>impact environnemental</title>
<ellipse fill="#ab2f5e" stroke="white" stroke-width="0" cx="262" cy="-172.03" rx="18" ry="18"/>
<text text-anchor="middle" x="122" y="-196.03" font-family="Helvetica,sans-Serif" font-size="20.00" fill="#4d4d4d">impact environnemental</text>
</g>
<!-- épuisable -->
<g id="node4" class="node">
<title>épuisable</title>
<ellipse fill="#7c1d6d" stroke="white" stroke-width="0" cx="149.82" cy="-81.88" rx="14.5" ry="14.5"/>
<text text-anchor="middle" x="89.82" y="-101.66" font-family="Helvetica,sans-Serif" font-size="18.40" fill="#4d4d4d">épuisable</text>
</g>
<!-- démolition -->
<g id="node5" class="node">
<title>démolition</title>
<ellipse fill="#000004" stroke="white" stroke-width="0" cx="476.08" cy="-28.7" rx="0.5" ry="0.5"/>
<text text-anchor="middle" x="443.58" y="-32.6" font-family="Helvetica,sans-Serif" font-size="12.00" fill="#4d4d4d">démolition</text>
</g>
<!-- économie -->
<g id="node6" class="node">
<title>économie</title>
<ellipse fill="#64156e" stroke="white" stroke-width="0" cx="260.09" cy="-11" rx="11" ry="11"/>
<text text-anchor="middle" x="207.59" y="-26.56" font-family="Helvetica,sans-Serif" font-size="16.80" fill="#4d4d4d">économie</text>
</g>
</g>
</svg>
