<?xml version="1.0" encoding="UTF-8" standalone="no"?>
<!DOCTYPE svg PUBLIC "-//W3C//DTD SVG 1.1//EN"
 "http://www.w3.org/Graphics/SVG/1.1/DTD/svg11.dtd">
<!-- Generated by graphviz version 2.43.0 (0)
 -->
<!-- Pages: 1 -->
<svg width="563pt" height="381pt"
 viewBox="0.00 0.00 563.25 381.43" xmlns="http://www.w3.org/2000/svg" xmlns:xlink="http://www.w3.org/1999/xlink">
<g id="graph0" class="graph" transform="scale(1 1) rotate(0) translate(4 377.43)">
<polygon fill="white" stroke="transparent" points="-4,4 -4,-377.43 559.25,-377.43 559.25,4 -4,4"/>
<!-- pollution&#45;&#45;emploi -->
<g id="edge1" class="edge">
<title>pollution&#45;&#45;emploi</title>
<path fill="none" stroke="darkgrey" stroke-width="10" d="M222.73,-153.52C219.95,-170.18 216.42,-191.29 213.45,-209.02"/>
</g>
<!-- pollution&#45;&#45;démolition -->
<g id="edge2" class="edge">
<title>pollution&#45;&#45;démolition</title>
<path fill="none" stroke="darkgrey" stroke-width="2.61" d="M222.87,-96.02C217.9,-65.48 210.47,-19.86 208.38,-6.99"/>
</g>
<!-- pollution&#45;&#45;argent -->
<g id="edge3" class="edge">
<title>pollution&#45;&#45;argent</title>
<path fill="none" stroke="darkgrey" stroke-width="1.06" d="M212.06,-149.53C205.57,-159.92 198.56,-171.14 194.36,-177.86"/>
</g>
<!-- pollution&#45;&#45;nickel -->
<g id="edge4" class="edge">
<title>pollution&#45;&#45;nickel</title>
<path fill="none" stroke="darkgrey" stroke-width="4.08" d="M249.08,-144.47C266.39,-160.32 290.69,-182.57 308.63,-199.01"/>
</g>
<!-- pollution&#45;&#45;camion -->
<g id="edge5" class="edge">
<title>pollution&#45;&#45;camion</title>
<path fill="none" stroke="darkgrey" stroke-width="1.19" d="M255.57,-117C276.59,-111.19 303.84,-103.65 316.5,-100.15"/>
</g>
<!-- pollution&#45;&#45;économie -->
<g id="edge6" class="edge">
<title>pollution&#45;&#45;économie</title>
<path fill="none" stroke="darkgrey" stroke-width="4.04" d="M249.77,-143.63C254.42,-147.58 259.19,-151.64 263.43,-155.24"/>
</g>
<!-- pollution&#45;&#45;impact environnemental -->
<g id="edge7" class="edge">
<title>pollution&#45;&#45;impact environnemental</title>
<path fill="none" stroke="darkgrey" stroke-width="3.87" d="M237.33,-152.06C243.3,-168.72 250.74,-189.51 255.88,-203.86"/>
</g>
<!-- pollution&#45;&#45;déforestation -->
<g id="edge8" class="edge">
<title>pollution&#45;&#45;déforestation</title>
<path fill="none" stroke="darkgrey" stroke-width="1.37" d="M201.74,-111.23C171.25,-95.25 123.88,-70.42 118.08,-67.38"/>
</g>
<!-- emploi&#45;&#45;argent -->
<g id="edge10" class="edge">
<title>emploi&#45;&#45;argent</title>
<path fill="none" stroke="darkgrey" stroke-width="2.37" d="M197.81,-210.15C195.79,-202.89 193.86,-195.96 192.5,-191.05"/>
</g>
<!-- emploi&#45;&#45;nickel -->
<g id="edge11" class="edge">
<title>emploi&#45;&#45;nickel</title>
<path fill="none" stroke="darkgrey" stroke-width="5.36" d="M243.02,-238.1C261.1,-234.67 282.91,-230.52 300.49,-227.18"/>
</g>
<!-- emploi&#45;&#45;économie -->
<g id="edge12" class="edge">
<title>emploi&#45;&#45;économie</title>
<path fill="none" stroke="darkgrey" stroke-width="7.33" d="M231.86,-217.61C243.02,-205.15 255.75,-190.93 264.88,-180.73"/>
</g>
<!-- emploi&#45;&#45;impact environnemental -->
<g id="edge13" class="edge">
<title>emploi&#45;&#45;impact environnemental</title>
<path fill="none" stroke="darkgrey" stroke-width="4.83" d="M240.44,-230.4C242.15,-229.65 243.82,-228.92 245.44,-228.21"/>
</g>
<!-- emploi&#45;&#45;richesse -->
<g id="edge9" class="edge">
<title>emploi&#45;&#45;richesse</title>
<path fill="none" stroke="darkgrey" stroke-width="2.82" d="M226.99,-275.21C235.95,-289.14 245.74,-304.34 250.97,-312.49"/>
</g>
<!-- emploi&#45;&#45;conflit -->
<g id="edge14" class="edge">
<title>emploi&#45;&#45;conflit</title>
<path fill="none" stroke="darkgrey" stroke-width="1.48" d="M176.54,-263.56C150.67,-279.21 116.33,-299.98 105.76,-306.38"/>
</g>
<!-- argent&#45;&#45;nickel -->
<g id="edge16" class="edge">
<title>argent&#45;&#45;nickel</title>
<path fill="none" stroke="darkgrey" stroke-width="1.78" d="M197.39,-185.77C215.81,-190.57 267.24,-203.98 301.12,-212.82"/>
</g>
<!-- nickel&#45;&#45;camion -->
<g id="edge18" class="edge">
<title>nickel&#45;&#45;camion</title>
<path fill="none" stroke="darkgrey" stroke-width="2.1" d="M330.27,-188.46C328.15,-160.03 325.23,-120.94 324.05,-105.2"/>
</g>
<!-- nickel&#45;&#45;économie -->
<g id="edge19" class="edge">
<title>nickel&#45;&#45;économie</title>
<path fill="none" stroke="darkgrey" stroke-width="2.29" d="M309.18,-198.11C302.68,-191.78 295.87,-185.13 290.21,-179.62"/>
</g>
<!-- nickel&#45;&#45;impact environnemental -->
<g id="edge20" class="edge">
<title>nickel&#45;&#45;impact environnemental</title>
<path fill="none" stroke="darkgrey" stroke-width="1.01" d="M299.84,-221C293.06,-220.99 286.16,-220.98 280.14,-220.97"/>
</g>
<!-- nickel&#45;&#45;exploitation -->
<g id="edge17" class="edge">
<title>nickel&#45;&#45;exploitation</title>
<path fill="none" stroke="darkgrey" stroke-width="1.67" d="M358.69,-201.4C386.95,-180.03 430.57,-147.03 449.18,-132.95"/>
</g>
<!-- nickel&#45;&#45;terre rouge -->
<g id="edge21" class="edge">
<title>nickel&#45;&#45;terre rouge</title>
<path fill="none" stroke="darkgrey" d="M352.73,-246.98C374.99,-275.8 408.37,-319.02 412.45,-324.31"/>
</g>
<!-- nickel&#45;&#45;usine -->
<g id="edge22" class="edge">
<title>nickel&#45;&#45;usine</title>
<path fill="none" stroke="darkgrey" stroke-width="2.14" d="M364.1,-230.08C393.18,-238.44 434.28,-250.26 450.33,-254.87"/>
</g>
<!-- nickel&#45;&#45;sln -->
<g id="edge23" class="edge">
<title>nickel&#45;&#45;sln</title>
<path fill="none" stroke="darkgrey" stroke-width="3.05" d="M334.26,-253.81C335.85,-287.56 338.19,-337.16 338.85,-351.14"/>
</g>
<!-- nickel&#45;&#45;minerai -->
<g id="edge24" class="edge">
<title>nickel&#45;&#45;minerai</title>
<path fill="none" stroke="darkgrey" stroke-width="1.62" d="M364.19,-212.59C387.37,-206.37 417.09,-198.38 430.5,-194.77"/>
</g>
<!-- économie&#45;&#45;impact environnemental -->
<g id="edge27" class="edge">
<title>économie&#45;&#45;impact environnemental</title>
<path fill="none" stroke="darkgrey" stroke-width="5.64" d="M272.32,-184.34C270.58,-190.5 268.63,-197.44 266.89,-203.6"/>
</g>
<!-- richesse&#45;&#45;nickel -->
<g id="edge15" class="edge">
<title>richesse&#45;&#45;nickel</title>
<path fill="none" stroke="darkgrey" stroke-width="1.08" d="M259.21,-312.91C269.19,-300.44 294.03,-269.4 312.08,-246.84"/>
</g>
<!-- exploitation&#45;&#45;minerai -->
<g id="edge26" class="edge">
<title>exploitation&#45;&#45;minerai</title>
<path fill="none" stroke="darkgrey" stroke-width="1.47" d="M454.8,-136.92C450.55,-150.76 443.28,-174.44 439.72,-186.04"/>
</g>
<!-- exploitation&#45;&#45;ressource -->
<g id="edge25" class="edge">
<title>exploitation&#45;&#45;ressource</title>
<path fill="none" stroke="darkgrey" stroke-width="1" d="M467.41,-120.2C487.95,-106.96 536.29,-75.79 548.77,-67.74"/>
</g>
<!-- usine&#45;&#45;minerai -->
<g id="edge28" class="edge">
<title>usine&#45;&#45;minerai</title>
<path fill="none" stroke="darkgrey" stroke-width="1.07" d="M455.03,-249.98C451.3,-237.73 443.52,-212.2 439.76,-199.85"/>
</g>
<!-- pollution -->
<g id="node1" class="node">
<title>pollution</title>
<ellipse fill="#fb9706" stroke="white" stroke-width="0" cx="227.55" cy="-124.75" rx="29" ry="29"/>
<text text-anchor="middle" x="144.55" y="-102.91" font-family="Helvetica,sans-Serif" font-size="24.80" fill="#4d4d4d">pollution</text>
</g>
<!-- emploi -->
<g id="node2" class="node">
<title>emploi</title>
<ellipse fill="#fcffa4" stroke="white" stroke-width="0" cx="207.46" cy="-244.86" rx="36" ry="36"/>
<text text-anchor="middle" x="123.96" y="-217.46" font-family="Helvetica,sans-Serif" font-size="28.00" fill="#4d4d4d">emploi</text>
</g>
<!-- démolition -->
<g id="node3" class="node">
<title>démolition</title>
<ellipse fill="#10092d" stroke="white" stroke-width="0" cx="207.81" cy="-3.5" rx="3.5" ry="3.5"/>
<text text-anchor="middle" x="167.81" y="-11.12" font-family="Helvetica,sans-Serif" font-size="13.60" fill="#4d4d4d">démolition</text>
</g>
<!-- argent -->
<g id="node4" class="node">
<title>argent</title>
<ellipse fill="#260c51" stroke="white" stroke-width="0" cx="190.53" cy="-183.98" rx="7" ry="7"/>
<text text-anchor="middle" x="158.53" y="-195.82" font-family="Helvetica,sans-Serif" font-size="15.20" fill="#4d4d4d">argent</text>
</g>
<!-- nickel -->
<g id="node5" class="node">
<title>nickel</title>
<ellipse fill="#f8cf3a" stroke="white" stroke-width="0" cx="332.71" cy="-221.06" rx="32.5" ry="32.5"/>
<text text-anchor="middle" x="338.71" y="-261.44" font-family="Helvetica,sans-Serif" font-size="26.40" fill="#4d4d4d">nickel</text>
</g>
<!-- camion -->
<g id="node6" class="node">
<title>camion</title>
<ellipse fill="#400a67" stroke="white" stroke-width="0" cx="323.53" cy="-98.21" rx="7" ry="7"/>
<text text-anchor="middle" x="288.53" y="-110.05" font-family="Helvetica,sans-Serif" font-size="15.20" fill="#4d4d4d">camion</text>
</g>
<!-- économie -->
<g id="node7" class="node">
<title>économie</title>
<ellipse fill="#ad305d" stroke="white" stroke-width="0" cx="277.22" cy="-166.96" rx="18" ry="18"/>
<text text-anchor="middle" x="307.72" y="-132.96" font-family="Helvetica,sans-Serif" font-size="20.00" fill="#4d4d4d">économie</text>
</g>
<!-- impact environnemental -->
<g id="node8" class="node">
<title>impact environnemental</title>
<ellipse fill="#bf3952" stroke="white" stroke-width="0" cx="262" cy="-220.94" rx="18" ry="18"/>
<text text-anchor="middle" x="122" y="-186.94" font-family="Helvetica,sans-Serif" font-size="20.00" fill="#4d4d4d">impact environnemental</text>
</g>
<!-- déforestation -->
<g id="node9" class="node">
<title>déforestation</title>
<ellipse fill="#000004" stroke="white" stroke-width="0" cx="117.49" cy="-67.07" rx="0.5" ry="0.5"/>
<text text-anchor="middle" x="76.99" y="-70.97" font-family="Helvetica,sans-Serif" font-size="12.00" fill="#4d4d4d">déforestation</text>
</g>
<!-- richesse -->
<g id="node10" class="node">
<title>richesse</title>
<ellipse fill="#470b6a" stroke="white" stroke-width="0" cx="254.8" cy="-318.43" rx="7" ry="7"/>
<text text-anchor="middle" x="215.8" y="-330.27" font-family="Helvetica,sans-Serif" font-size="15.20" fill="#4d4d4d">richesse</text>
</g>
<!-- conflit -->
<g id="node11" class="node">
<title>conflit</title>
<ellipse fill="#0c0826" stroke="white" stroke-width="0" cx="102.53" cy="-308.33" rx="3.5" ry="3.5"/>
<text text-anchor="middle" x="78.03" y="-315.95" font-family="Helvetica,sans-Serif" font-size="13.60" fill="#4d4d4d">conflit</text>
</g>
<!-- exploitation -->
<g id="node12" class="node">
<title>exploitation</title>
<ellipse fill="#741a6e" stroke="white" stroke-width="0" cx="458.08" cy="-126.22" rx="11" ry="11"/>
<text text-anchor="middle" x="397.08" y="-101.78" font-family="Helvetica,sans-Serif" font-size="16.80" fill="#4d4d4d">exploitation</text>
</g>
<!-- terre rouge -->
<g id="node13" class="node">
<title>terre rouge</title>
<ellipse fill="#010005" stroke="white" stroke-width="0" cx="412.87" cy="-324.85" rx="0.5" ry="0.5"/>
<text text-anchor="middle" x="378.87" y="-328.75" font-family="Helvetica,sans-Serif" font-size="12.00" fill="#4d4d4d">terre rouge</text>
</g>
<!-- usine -->
<g id="node14" class="node">
<title>usine</title>
<ellipse fill="#260c51" stroke="white" stroke-width="0" cx="457.12" cy="-256.83" rx="7" ry="7"/>
<text text-anchor="middle" x="429.12" y="-268.67" font-family="Helvetica,sans-Serif" font-size="15.20" fill="#4d4d4d">usine</text>
</g>
<!-- sln -->
<g id="node15" class="node">
<title>sln</title>
<ellipse fill="#120a32" stroke="white" stroke-width="0" cx="339.02" cy="-354.93" rx="3.5" ry="3.5"/>
<text text-anchor="middle" x="326.02" y="-362.55" font-family="Helvetica,sans-Serif" font-size="13.60" fill="#4d4d4d">sln</text>
</g>
<!-- minerai -->
<g id="node16" class="node">
<title>minerai</title>
<ellipse fill="#280b53" stroke="white" stroke-width="0" cx="437.63" cy="-192.86" rx="7" ry="7"/>
<text text-anchor="middle" x="401.63" y="-204.7" font-family="Helvetica,sans-Serif" font-size="15.20" fill="#4d4d4d">minerai</text>
</g>
<!-- ressource -->
<g id="node17" class="node">
<title>ressource</title>
<ellipse fill="#190c3e" stroke="white" stroke-width="0" cx="551.75" cy="-65.82" rx="3.5" ry="3.5"/>
<text text-anchor="middle" x="515.75" y="-73.44" font-family="Helvetica,sans-Serif" font-size="13.60" fill="#4d4d4d">ressource</text>
</g>
</g>
</svg>
