<?xml version="1.0" encoding="UTF-8" standalone="no"?>
<!DOCTYPE svg PUBLIC "-//W3C//DTD SVG 1.1//EN"
 "http://www.w3.org/Graphics/SVG/1.1/DTD/svg11.dtd">
<!-- Generated by graphviz version 2.43.0 (0)
 -->
<!-- Pages: 1 -->
<svg width="922pt" height="758pt"
 viewBox="0.00 0.00 922.42 757.87" xmlns="http://www.w3.org/2000/svg" xmlns:xlink="http://www.w3.org/1999/xlink">
<g id="graph0" class="graph" transform="scale(1 1) rotate(0) translate(4 753.87)">
<polygon fill="white" stroke="transparent" points="-4,4 -4,-753.87 918.42,-753.87 918.42,4 -4,4"/>
<!-- pollution&#45;&#45;emploi -->
<g id="edge1" class="edge">
<title>pollution&#45;&#45;emploi</title>
<path fill="none" stroke="darkgrey" stroke-width="10" d="M413.01,-448.88C413,-448.74 413,-448.6 413,-448.47"/>
</g>
<!-- pollution&#45;&#45;richesse -->
<g id="edge2" class="edge">
<title>pollution&#45;&#45;richesse</title>
<path fill="none" stroke="darkgrey" stroke-width="2.75" d="M398.96,-503.99C377.44,-543.24 337.39,-616.28 322.85,-642.8"/>
</g>
<!-- pollution&#45;&#45;démolition -->
<g id="edge3" class="edge">
<title>pollution&#45;&#45;démolition</title>
<path fill="none" stroke="darkgrey" stroke-width="3.06" d="M418.87,-507.02C429.96,-562.05 453.6,-679.4 459.68,-709.61"/>
</g>
<!-- pollution&#45;&#45;argent -->
<g id="edge4" class="edge">
<title>pollution&#45;&#45;argent</title>
<path fill="none" stroke="darkgrey" stroke-width="2.44" d="M392.77,-457.38C342.1,-405.32 211.76,-271.42 178.03,-236.77"/>
</g>
<!-- pollution&#45;&#45;nickel -->
<g id="edge5" class="edge">
<title>pollution&#45;&#45;nickel</title>
<path fill="none" stroke="darkgrey" stroke-width="6.32" d="M387.07,-465.17C374.16,-458.68 358.52,-450.82 345.2,-444.12"/>
</g>
<!-- pollution&#45;&#45;nature -->
<g id="edge6" class="edge">
<title>pollution&#45;&#45;nature</title>
<path fill="none" stroke="darkgrey" stroke-width="1.09" d="M436.52,-460.95C505.75,-409.89 705.26,-262.72 717.67,-253.57"/>
</g>
<!-- pollution&#45;&#45;exploitation -->
<g id="edge7" class="edge">
<title>pollution&#45;&#45;exploitation</title>
<path fill="none" stroke="darkgrey" stroke-width="2.36" d="M386.83,-490.99C354.45,-506.72 300.65,-532.85 275.77,-544.94"/>
</g>
<!-- pollution&#45;&#45;montagne -->
<g id="edge8" class="edge">
<title>pollution&#45;&#45;montagne</title>
<path fill="none" stroke="darkgrey" stroke-width="2" d="M384.42,-483.88C313.55,-497.83 132.98,-533.38 94.32,-540.98"/>
</g>
<!-- pollution&#45;&#45;camion -->
<g id="edge9" class="edge">
<title>pollution&#45;&#45;camion</title>
<path fill="none" stroke="darkgrey" stroke-width="2.73" d="M384.58,-471.52C332.95,-459.33 226.08,-434.1 191.63,-425.97"/>
</g>
<!-- pollution&#45;&#45;économie -->
<g id="edge10" class="edge">
<title>pollution&#45;&#45;économie</title>
<path fill="none" stroke="darkgrey" stroke-width="5.43" d="M392.48,-498.9C376.35,-515.08 354.42,-537.08 340.74,-550.8"/>
</g>
<!-- pollution&#45;&#45;impact environnemental -->
<g id="edge11" class="edge">
<title>pollution&#45;&#45;impact environnemental</title>
<path fill="none" stroke="darkgrey" stroke-width="4.52" d="M424,-505.49C428.67,-517.15 434.03,-530.52 438.34,-541.27"/>
</g>
<!-- pollution&#45;&#45;terre rouge -->
<g id="edge12" class="edge">
<title>pollution&#45;&#45;terre rouge</title>
<path fill="none" stroke="darkgrey" stroke-width="1.07" d="M424.02,-451.11C449.72,-387.38 512.52,-231.64 522.65,-206.52"/>
</g>
<!-- pollution&#45;&#45;terre -->
<g id="edge13" class="edge">
<title>pollution&#45;&#45;terre</title>
<path fill="none" stroke="darkgrey" stroke-width="1.76" d="M384.29,-482.3C329.25,-490.05 211.85,-506.58 181.64,-510.84"/>
</g>
<!-- pollution&#45;&#45;usine -->
<g id="edge14" class="edge">
<title>pollution&#45;&#45;usine</title>
<path fill="none" stroke="darkgrey" stroke-width="2.43" d="M392.28,-498.6C348.22,-541.72 247.57,-640.23 223.84,-663.46"/>
</g>
<!-- pollution&#45;&#45;érosion -->
<g id="edge15" class="edge">
<title>pollution&#45;&#45;érosion</title>
<path fill="none" stroke="darkgrey" stroke-width="1.2" d="M441.88,-482.22C524.51,-493.62 757.34,-525.73 771.81,-527.73"/>
</g>
<!-- pollution&#45;&#45;sln -->
<g id="edge16" class="edge">
<title>pollution&#45;&#45;sln</title>
<path fill="none" stroke="darkgrey" stroke-width="1.32" d="M402.23,-451.29C382.1,-401.24 339.97,-296.51 328.83,-268.81"/>
</g>
<!-- pollution&#45;&#45;ressource -->
<g id="edge17" class="edge">
<title>pollution&#45;&#45;ressource</title>
<path fill="none" stroke="darkgrey" stroke-width="1.66" d="M404.84,-506.09C387.7,-564.06 348.98,-694.98 339.57,-726.8"/>
</g>
<!-- pollution&#45;&#45;conflit -->
<g id="edge18" class="edge">
<title>pollution&#45;&#45;conflit</title>
<path fill="none" stroke="darkgrey" stroke-width="2.31" d="M389.52,-460.89C355.66,-435.93 295.19,-391.37 276.27,-377.42"/>
</g>
<!-- pollution&#45;&#45;développement -->
<g id="edge19" class="edge">
<title>pollution&#45;&#45;développement</title>
<path fill="none" stroke="darkgrey" stroke-width="2.08" d="M441.36,-471.73C506.89,-456.64 665.5,-420.1 691.08,-414.21"/>
</g>
<!-- pollution&#45;&#45;minerai -->
<g id="edge20" class="edge">
<title>pollution&#45;&#45;minerai</title>
<path fill="none" stroke="darkgrey" stroke-width="2.38" d="M387.46,-491.98C334.44,-520.4 214.66,-584.61 179.4,-603.52"/>
</g>
<!-- pollution&#45;&#45;déforestation -->
<g id="edge21" class="edge">
<title>pollution&#45;&#45;déforestation</title>
<path fill="none" stroke="darkgrey" stroke-width="1.84" d="M431.33,-501.31C467.35,-546.84 545.34,-645.4 559.65,-663.48"/>
</g>
<!-- emploi&#45;&#45;richesse -->
<g id="edge22" class="edge">
<title>emploi&#45;&#45;richesse</title>
<path fill="none" stroke="darkgrey" stroke-width="3.58" d="M399.53,-446.24C377.56,-501.49 334.93,-608.67 321.53,-642.36"/>
</g>
<!-- emploi&#45;&#45;démolition -->
<g id="edge23" class="edge">
<title>emploi&#45;&#45;démolition</title>
<path fill="none" stroke="darkgrey" stroke-width="3.08" d="M418.59,-448.39C429.84,-519.38 454.38,-674.23 459.98,-709.54"/>
</g>
<!-- emploi&#45;&#45;argent -->
<g id="edge24" class="edge">
<title>emploi&#45;&#45;argent</title>
<path fill="none" stroke="darkgrey" stroke-width="3.05" d="M384.09,-390.75C329.29,-349.22 212.55,-260.75 179.1,-235.4"/>
</g>
<!-- emploi&#45;&#45;nickel -->
<g id="edge25" class="edge">
<title>emploi&#45;&#45;nickel</title>
<path fill="none" stroke="darkgrey" stroke-width="7.75" d="M377.4,-418.78C367.89,-420.44 357.67,-422.22 348.36,-423.84"/>
</g>
<!-- emploi&#45;&#45;nature -->
<g id="edge26" class="edge">
<title>emploi&#45;&#45;nature</title>
<path fill="none" stroke="darkgrey" stroke-width="1.08" d="M445.02,-395.83C520.97,-356.16 706.21,-259.42 717.71,-253.41"/>
</g>
<!-- emploi&#45;&#45;exploitation -->
<g id="edge27" class="edge">
<title>emploi&#45;&#45;exploitation</title>
<path fill="none" stroke="darkgrey" stroke-width="3.11" d="M386.35,-437.1C352.77,-468.08 296.5,-519.98 273.1,-541.56"/>
</g>
<!-- emploi&#45;&#45;montagne -->
<g id="edge28" class="edge">
<title>emploi&#45;&#45;montagne</title>
<path fill="none" stroke="darkgrey" stroke-width="1.48" d="M379.26,-426C304.77,-455.67 129.66,-525.43 93.55,-539.81"/>
</g>
<!-- emploi&#45;&#45;camion -->
<g id="edge29" class="edge">
<title>emploi&#45;&#45;camion</title>
<path fill="none" stroke="darkgrey" stroke-width="2.31" d="M376.88,-414.27C323.12,-416.77 224.69,-421.34 191.75,-422.87"/>
</g>
<!-- emploi&#45;&#45;économie -->
<g id="edge30" class="edge">
<title>emploi&#45;&#45;économie</title>
<path fill="none" stroke="darkgrey" stroke-width="6.62" d="M395.11,-444.25C377.31,-475.9 350.66,-523.28 336.91,-547.73"/>
</g>
<!-- emploi&#45;&#45;impact environnemental -->
<g id="edge31" class="edge">
<title>emploi&#45;&#45;impact environnemental</title>
<path fill="none" stroke="darkgrey" stroke-width="6.27" d="M420.86,-447.87C427.32,-476.59 436.23,-516.17 441.65,-540.22"/>
</g>
<!-- emploi&#45;&#45;terre rouge -->
<g id="edge33" class="edge">
<title>emploi&#45;&#45;terre rouge</title>
<path fill="none" stroke="darkgrey" stroke-width="1.78" d="M429.8,-380.77C457.85,-327.88 512.01,-225.75 522.33,-206.31"/>
</g>
<!-- emploi&#45;&#45;terre -->
<g id="edge35" class="edge">
<title>emploi&#45;&#45;terre</title>
<path fill="none" stroke="darkgrey" stroke-width="2.06" d="M379.51,-426.5C322.33,-450.3 209.15,-497.4 180.92,-509.15"/>
</g>
<!-- emploi&#45;&#45;usine -->
<g id="edge36" class="edge">
<title>emploi&#45;&#45;usine</title>
<path fill="none" stroke="darkgrey" stroke-width="1.91" d="M391.02,-441.44C346,-500.77 245.38,-633.35 223.16,-662.63"/>
</g>
<!-- emploi&#45;&#45;érosion -->
<g id="edge37" class="edge">
<title>emploi&#45;&#45;érosion</title>
<path fill="none" stroke="darkgrey" stroke-width="1.15" d="M447.4,-423.64C534.59,-451.58 757.97,-523.16 771.84,-527.61"/>
</g>
<!-- emploi&#45;&#45;sln -->
<g id="edge38" class="edge">
<title>emploi&#45;&#45;sln</title>
<path fill="none" stroke="darkgrey" stroke-width="1.93" d="M394.92,-381.39C373.86,-344.85 340.47,-286.93 329.61,-268.1"/>
</g>
<!-- emploi&#45;&#45;ressource -->
<g id="edge39" class="edge">
<title>emploi&#45;&#45;ressource</title>
<path fill="none" stroke="darkgrey" stroke-width="2.16" d="M404.63,-447.9C387.17,-522.23 347.55,-691 339.08,-727.03"/>
</g>
<!-- emploi&#45;&#45;conflit -->
<g id="edge41" class="edge">
<title>emploi&#45;&#45;conflit</title>
<path fill="none" stroke="darkgrey" stroke-width="3.29" d="M378.06,-402.94C344.12,-393.53 295.11,-379.96 277.26,-375.01"/>
</g>
<!-- emploi&#45;&#45;développement -->
<g id="edge42" class="edge">
<title>emploi&#45;&#45;développement</title>
<path fill="none" stroke="darkgrey" stroke-width="1.69" d="M449.16,-412.7C518.7,-412.9 666.17,-413.32 691,-413.39"/>
</g>
<!-- emploi&#45;&#45;minerai -->
<g id="edge43" class="edge">
<title>emploi&#45;&#45;minerai</title>
<path fill="none" stroke="darkgrey" stroke-width="1.86" d="M384.51,-435.49C329.57,-479.78 211.24,-575.16 178.19,-601.81"/>
</g>
<!-- emploi&#45;&#45;déforestation -->
<g id="edge44" class="edge">
<title>emploi&#45;&#45;déforestation</title>
<path fill="none" stroke="darkgrey" stroke-width="2.06" d="M431.19,-443.71C467.56,-505.65 546.67,-640.39 560,-663.09"/>
</g>
<!-- emploi&#45;&#45;roche -->
<g id="edge32" class="edge">
<title>emploi&#45;&#45;roche</title>
<path fill="none" stroke="darkgrey" stroke-width="1.38" d="M376.93,-414.86C294.35,-420.06 94.58,-432.63 45.18,-435.73"/>
</g>
<!-- emploi&#45;&#45;industrie -->
<g id="edge34" class="edge">
<title>emploi&#45;&#45;industrie</title>
<path fill="none" stroke="darkgrey" stroke-width="1.18" d="M432.99,-382.29C494.53,-289.35 677,-13.83 685.52,-0.97"/>
</g>
<!-- emploi&#45;&#45;main d’oeuvre -->
<g id="edge40" class="edge">
<title>emploi&#45;&#45;main d’oeuvre</title>
<path fill="none" stroke="darkgrey" stroke-width="1.01" d="M410.18,-376.46C403.85,-293.14 388.62,-92.39 386.4,-63.06"/>
</g>
<!-- emploi&#45;&#45;exportation -->
<g id="edge45" class="edge">
<title>emploi&#45;&#45;exportation</title>
<path fill="none" stroke="darkgrey" stroke-width="1.29" d="M441.97,-434.6C485.49,-467.56 564.3,-527.26 581.02,-539.92"/>
</g>
<!-- richesse&#45;&#45;démolition -->
<g id="edge46" class="edge">
<title>richesse&#45;&#45;démolition</title>
<path fill="none" stroke="darkgrey" stroke-width="1.2" d="M327.73,-657.35C355.67,-669.81 432.09,-703.87 454.73,-713.96"/>
</g>
<!-- richesse&#45;&#45;nickel -->
<g id="edge47" class="edge">
<title>richesse&#45;&#45;nickel</title>
<path fill="none" stroke="darkgrey" stroke-width="2.47" d="M317.33,-641.67C317.13,-609.2 316.55,-513.31 316.25,-462.28"/>
</g>
<!-- richesse&#45;&#45;exploitation -->
<g id="edge48" class="edge">
<title>richesse&#45;&#45;exploitation</title>
<path fill="none" stroke="darkgrey" stroke-width="1.34" d="M312.12,-643.03C302.18,-624.71 280.64,-585.03 269.46,-564.43"/>
</g>
<!-- richesse&#45;&#45;économie -->
<g id="edge49" class="edge">
<title>richesse&#45;&#45;économie</title>
<path fill="none" stroke="darkgrey" stroke-width="1.83" d="M318.69,-641.81C320.47,-626.84 323.69,-599.76 325.83,-581.72"/>
</g>
<!-- richesse&#45;&#45;impact environnemental -->
<g id="edge50" class="edge">
<title>richesse&#45;&#45;impact environnemental</title>
<path fill="none" stroke="darkgrey" stroke-width="2.66" d="M326.68,-646.18C348.06,-631.05 401.07,-593.54 428.83,-573.9"/>
</g>
<!-- richesse&#45;&#45;terre -->
<g id="edge51" class="edge">
<title>richesse&#45;&#45;terre</title>
<path fill="none" stroke="darkgrey" stroke-width="1.24" d="M309.3,-644.77C283.07,-618.92 200.91,-537.95 179.55,-516.9"/>
</g>
<!-- richesse&#45;&#45;usine -->
<g id="edge52" class="edge">
<title>richesse&#45;&#45;usine</title>
<path fill="none" stroke="darkgrey" stroke-width="1.06" d="M306.46,-654.48C286.1,-657.72 242.88,-664.59 225.86,-667.3"/>
</g>
<!-- richesse&#45;&#45;conflit -->
<g id="edge53" class="edge">
<title>richesse&#45;&#45;conflit</title>
<path fill="none" stroke="darkgrey" stroke-width="1.05" d="M315.56,-641.78C307.82,-595.74 278.07,-418.6 271.66,-380.41"/>
</g>
<!-- démolition&#45;&#45;nickel -->
<g id="edge54" class="edge">
<title>démolition&#45;&#45;nickel</title>
<path fill="none" stroke="darkgrey" stroke-width="1.66" d="M457.97,-710.54C441.35,-677.63 363.71,-523.86 330.82,-458.73"/>
</g>
<!-- démolition&#45;&#45;économie -->
<g id="edge55" class="edge">
<title>démolition&#45;&#45;économie</title>
<path fill="none" stroke="darkgrey" stroke-width="1.34" d="M456.39,-711.36C437.59,-689.71 367.86,-609.48 339.8,-577.18"/>
</g>
<!-- démolition&#45;&#45;impact environnemental -->
<g id="edge56" class="edge">
<title>démolition&#45;&#45;impact environnemental</title>
<path fill="none" stroke="darkgrey" stroke-width="1.38" d="M460.46,-709.73C458.36,-687.53 451.84,-618.64 448.48,-583.12"/>
</g>
<!-- argent&#45;&#45;nickel -->
<g id="edge57" class="edge">
<title>argent&#45;&#45;nickel</title>
<path fill="none" stroke="darkgrey" stroke-width="2.87" d="M176.63,-237.64C197.72,-266.67 263.66,-357.39 296.73,-402.89"/>
</g>
<!-- argent&#45;&#45;camion -->
<g id="edge58" class="edge">
<title>argent&#45;&#45;camion</title>
<path fill="none" stroke="darkgrey" stroke-width="1.02" d="M170.58,-239.52C172.45,-273.66 178.15,-377.35 180.05,-411.99"/>
</g>
<!-- nickel&#45;&#45;exploitation -->
<g id="edge59" class="edge">
<title>nickel&#45;&#45;exploitation</title>
<path fill="none" stroke="darkgrey" stroke-width="3.66" d="M302.93,-459.3C291.88,-484.41 276.6,-519.14 268.32,-537.98"/>
</g>
<!-- nickel&#45;&#45;montagne -->
<g id="edge60" class="edge">
<title>nickel&#45;&#45;montagne</title>
<path fill="none" stroke="darkgrey" stroke-width="2.77" d="M286.57,-444C232.68,-470.58 121.22,-525.54 93.38,-539.27"/>
</g>
<!-- nickel&#45;&#45;camion -->
<g id="edge61" class="edge">
<title>nickel&#45;&#45;camion</title>
<path fill="none" stroke="darkgrey" stroke-width="4.17" d="M283.28,-428C253.54,-426.66 211.43,-424.77 191.69,-423.88"/>
</g>
<!-- nickel&#45;&#45;économie -->
<g id="edge62" class="edge">
<title>nickel&#45;&#45;économie</title>
<path fill="none" stroke="darkgrey" stroke-width="4.87" d="M318.94,-461.93C321.27,-488.14 324.47,-524.05 326.37,-545.43"/>
</g>
<!-- nickel&#45;&#45;impact environnemental -->
<g id="edge63" class="edge">
<title>nickel&#45;&#45;impact environnemental</title>
<path fill="none" stroke="darkgrey" stroke-width="4.33" d="M339.06,-452.76C365.52,-479.55 408.24,-522.79 430.99,-545.83"/>
</g>
<!-- nickel&#45;&#45;terre rouge -->
<g id="edge65" class="edge">
<title>nickel&#45;&#45;terre rouge</title>
<path fill="none" stroke="darkgrey" stroke-width="2.39" d="M338.31,-405.24C387.56,-351.63 502.9,-226.08 521.49,-205.85"/>
</g>
<!-- nickel&#45;&#45;terre -->
<g id="edge66" class="edge">
<title>nickel&#45;&#45;terre</title>
<path fill="none" stroke="darkgrey" stroke-width="2.11" d="M287.73,-445.94C253.67,-465.76 198.79,-497.69 180.54,-508.3"/>
</g>
<!-- nickel&#45;&#45;usine -->
<g id="edge67" class="edge">
<title>nickel&#45;&#45;usine</title>
<path fill="none" stroke="darkgrey" stroke-width="3.43" d="M303.73,-459.73C280.92,-515.74 233.37,-632.53 221.49,-661.71"/>
</g>
<!-- nickel&#45;&#45;sln -->
<g id="edge68" class="edge">
<title>nickel&#45;&#45;sln</title>
<path fill="none" stroke="darkgrey" stroke-width="3.56" d="M318.01,-396.77C320.42,-356.41 324.37,-290.45 325.66,-268.97"/>
</g>
<!-- nickel&#45;&#45;ressource -->
<g id="edge69" class="edge">
<title>nickel&#45;&#45;ressource</title>
<path fill="none" stroke="darkgrey" stroke-width="1.81" d="M318.34,-462.04C323.24,-531.68 334.5,-691.55 336.98,-726.88"/>
</g>
<!-- nickel&#45;&#45;conflit -->
<g id="edge72" class="edge">
<title>nickel&#45;&#45;conflit</title>
<path fill="none" stroke="darkgrey" stroke-width="1.38" d="M295.38,-403.93C287.84,-394.61 279.98,-384.91 275.15,-378.94"/>
</g>
<!-- nickel&#45;&#45;minerai -->
<g id="edge73" class="edge">
<title>nickel&#45;&#45;minerai</title>
<path fill="none" stroke="darkgrey" stroke-width="3.52" d="M295.36,-454.79C262.05,-495.54 198.11,-573.78 176.67,-600.02"/>
</g>
<!-- nickel&#45;&#45;déforestation -->
<g id="edge74" class="edge">
<title>nickel&#45;&#45;déforestation</title>
<path fill="none" stroke="darkgrey" stroke-width="1.9" d="M339.62,-452.18C396.6,-507.07 538.61,-643.9 559.38,-663.91"/>
</g>
<!-- nickel&#45;&#45;roche -->
<g id="edge64" class="edge">
<title>nickel&#45;&#45;roche</title>
<path fill="none" stroke="darkgrey" stroke-width="2.27" d="M283.42,-430.27C220.49,-431.83 85.03,-435.18 45.22,-436.16"/>
</g>
<!-- nickel&#45;&#45;main d’oeuvre -->
<g id="edge70" class="edge">
<title>nickel&#45;&#45;main d’oeuvre</title>
<path fill="none" stroke="darkgrey" stroke-width="1.18" d="M322.15,-397.28C338,-313.59 379.67,-93.52 385.45,-62.99"/>
</g>
<!-- nickel&#45;&#45;exportation -->
<g id="edge75" class="edge">
<title>nickel&#45;&#45;exportation</title>
<path fill="none" stroke="darkgrey" stroke-width="1.66" d="M346.03,-442.08C410.26,-469.12 557.26,-530.99 580.95,-540.96"/>
</g>
<!-- nickel&#45;&#45;usine du sud -->
<g id="edge71" class="edge">
<title>nickel&#45;&#45;usine du sud</title>
<path fill="none" stroke="darkgrey" stroke-width="1.91" d="M306.86,-398.16C280.71,-309.06 207.14,-58.37 197.49,-25.47"/>
</g>
<!-- exploitation&#45;&#45;camion -->
<g id="edge76" class="edge">
<title>exploitation&#45;&#45;camion</title>
<path fill="none" stroke="darkgrey" stroke-width="1.4" d="M254.57,-539.15C238.34,-513.74 201.39,-455.84 186.78,-432.95"/>
</g>
<!-- exploitation&#45;&#45;économie -->
<g id="edge77" class="edge">
<title>exploitation&#45;&#45;économie</title>
<path fill="none" stroke="darkgrey" stroke-width="1.68" d="M276.96,-554.13C286.77,-555.95 299.78,-558.36 310.2,-560.29"/>
</g>
<!-- exploitation&#45;&#45;impact environnemental -->
<g id="edge78" class="edge">
<title>exploitation&#45;&#45;impact environnemental</title>
<path fill="none" stroke="darkgrey" stroke-width="2.56" d="M277.15,-552.23C309.56,-554 387.11,-558.22 424.94,-560.28"/>
</g>
<!-- exploitation&#45;&#45;terre -->
<g id="edge80" class="edge">
<title>exploitation&#45;&#45;terre</title>
<path fill="none" stroke="darkgrey" stroke-width="1.24" d="M249.04,-545.42C229.81,-536.77 195.09,-521.15 180.82,-514.73"/>
</g>
<!-- exploitation&#45;&#45;usine -->
<g id="edge81" class="edge">
<title>exploitation&#45;&#45;usine</title>
<path fill="none" stroke="darkgrey" stroke-width="1.81" d="M257.22,-565.31C247.79,-590.61 228.12,-643.33 221.22,-661.83"/>
</g>
<!-- exploitation&#45;&#45;ressource -->
<g id="edge82" class="edge">
<title>exploitation&#45;&#45;ressource</title>
<path fill="none" stroke="darkgrey" stroke-width="1.78" d="M267.92,-564.85C282.89,-601.22 323.85,-700.76 334.77,-727.3"/>
</g>
<!-- exploitation&#45;&#45;conflit -->
<g id="edge83" class="edge">
<title>exploitation&#45;&#45;conflit</title>
<path fill="none" stroke="darkgrey" stroke-width="1.09" d="M263.06,-536.84C264.69,-500.57 268.89,-407.35 270.1,-380.47"/>
</g>
<!-- exploitation&#45;&#45;minerai -->
<g id="edge84" class="edge">
<title>exploitation&#45;&#45;minerai</title>
<path fill="none" stroke="darkgrey" stroke-width="2.52" d="M249.87,-559.18C231.03,-570.81 195.86,-592.54 178.97,-602.97"/>
</g>
<!-- exploitation&#45;&#45;roche -->
<g id="edge79" class="edge">
<title>exploitation&#45;&#45;roche</title>
<path fill="none" stroke="darkgrey" stroke-width="1.52" d="M249.13,-544.75C207.62,-523.85 80.8,-460 44.07,-441.51"/>
</g>
<!-- exploitation&#45;&#45;exportation -->
<g id="edge85" class="edge">
<title>exploitation&#45;&#45;exportation</title>
<path fill="none" stroke="darkgrey" stroke-width="1.07" d="M277.06,-551.02C335.34,-549.37 548.95,-543.32 580.33,-542.43"/>
</g>
<!-- montagne&#45;&#45;camion -->
<g id="edge86" class="edge">
<title>montagne&#45;&#45;camion</title>
<path fill="none" stroke="darkgrey" stroke-width="1.48" d="M91.49,-536.69C106.63,-517.46 155.6,-455.25 173.79,-432.14"/>
</g>
<!-- montagne&#45;&#45;économie -->
<g id="edge87" class="edge">
<title>montagne&#45;&#45;économie</title>
<path fill="none" stroke="darkgrey" stroke-width="1.12" d="M94.18,-543.06C126.77,-545.92 260.75,-557.69 309.85,-562"/>
</g>
<!-- montagne&#45;&#45;terre -->
<g id="edge89" class="edge">
<title>montagne&#45;&#45;terre</title>
<path fill="none" stroke="darkgrey" stroke-width="1.25" d="M93.83,-540.03C110.1,-534.34 150.88,-520.09 167.36,-514.33"/>
</g>
<!-- montagne&#45;&#45;usine -->
<g id="edge90" class="edge">
<title>montagne&#45;&#45;usine</title>
<path fill="none" stroke="darkgrey" stroke-width="1.05" d="M92.3,-547.53C113.58,-567.88 192.36,-643.19 213.51,-663.41"/>
</g>
<!-- montagne&#45;&#45;minerai -->
<g id="edge91" class="edge">
<title>montagne&#45;&#45;minerai</title>
<path fill="none" stroke="darkgrey" stroke-width="1.02" d="M92.64,-547C106.83,-558.43 143.97,-588.33 160.86,-601.94"/>
</g>
<!-- montagne&#45;&#45;roche -->
<g id="edge88" class="edge">
<title>montagne&#45;&#45;roche</title>
<path fill="none" stroke="darkgrey" stroke-width="1.18" d="M83.82,-536.12C74.95,-518.38 49.77,-467.99 38.99,-446.42"/>
</g>
<!-- camion&#45;&#45;économie -->
<g id="edge92" class="edge">
<title>camion&#45;&#45;économie</title>
<path fill="none" stroke="darkgrey" stroke-width="1.29" d="M189.02,-431.33C213.49,-454.61 285.2,-522.87 314.89,-551.12"/>
</g>
<!-- camion&#45;&#45;impact environnemental -->
<g id="edge93" class="edge">
<title>camion&#45;&#45;impact environnemental</title>
<path fill="none" stroke="darkgrey" stroke-width="1.58" d="M190.45,-428.46C229.5,-448.75 374.74,-524.21 427.29,-551.51"/>
</g>
<!-- camion&#45;&#45;terre -->
<g id="edge95" class="edge">
<title>camion&#45;&#45;terre</title>
<path fill="none" stroke="darkgrey" stroke-width="1.34" d="M179.88,-434.59C178.58,-453 176.03,-489.15 174.94,-504.59"/>
</g>
<!-- camion&#45;&#45;usine -->
<g id="edge96" class="edge">
<title>camion&#45;&#45;usine</title>
<path fill="none" stroke="darkgrey" stroke-width="1.98" d="M182.41,-434.55C188.99,-476.87 212.28,-626.74 217.65,-661.29"/>
</g>
<!-- camion&#45;&#45;sln -->
<g id="edge97" class="edge">
<title>camion&#45;&#45;sln</title>
<path fill="none" stroke="darkgrey" stroke-width="1.3" d="M188.09,-415.16C214.01,-386.38 300.22,-290.68 321.36,-267.2"/>
</g>
<!-- camion&#45;&#45;minerai -->
<g id="edge98" class="edge">
<title>camion&#45;&#45;minerai</title>
<path fill="none" stroke="darkgrey" stroke-width="1.67" d="M180.01,-434.43C178.01,-467.34 172.13,-564.49 170.13,-597.63"/>
</g>
<!-- camion&#45;&#45;roche -->
<g id="edge94" class="edge">
<title>camion&#45;&#45;roche</title>
<path fill="none" stroke="darkgrey" stroke-width="1.5" d="M169.65,-424.37C142.47,-426.79 72.47,-433.01 45.15,-435.44"/>
</g>
<!-- économie&#45;&#45;impact environnemental -->
<g id="edge99" class="edge">
<title>économie&#45;&#45;impact environnemental</title>
<path fill="none" stroke="darkgrey" stroke-width="5.31" d="M346.23,-563.26C367.39,-562.88 402.22,-562.25 424.74,-561.84"/>
</g>
<!-- économie&#45;&#45;terre -->
<g id="edge100" class="edge">
<title>économie&#45;&#45;terre</title>
<path fill="none" stroke="darkgrey" stroke-width="1.2" d="M310.67,-557.75C276.94,-546.39 203.77,-521.74 181.2,-514.13"/>
</g>
<!-- économie&#45;&#45;usine -->
<g id="edge101" class="edge">
<title>économie&#45;&#45;usine</title>
<path fill="none" stroke="darkgrey" stroke-width="1.39" d="M314.59,-576.44C290.44,-599.63 240.57,-647.49 224.14,-663.26"/>
</g>
<!-- économie&#45;&#45;sln -->
<g id="edge102" class="edge">
<title>économie&#45;&#45;sln</title>
<path fill="none" stroke="darkgrey" stroke-width="1.72" d="M327.87,-545.17C327.5,-486.85 326.37,-307.77 326.12,-269.3"/>
</g>
<!-- économie&#45;&#45;ressource -->
<g id="edge103" class="edge">
<title>économie&#45;&#45;ressource</title>
<path fill="none" stroke="darkgrey" stroke-width="1.16" d="M329,-581.81C331.07,-618.88 335.68,-701.65 337.07,-726.61"/>
</g>
<!-- économie&#45;&#45;conflit -->
<g id="edge104" class="edge">
<title>économie&#45;&#45;conflit</title>
<path fill="none" stroke="darkgrey" stroke-width="1.83" d="M322.78,-546.35C310.6,-506.06 280.7,-407.08 272.53,-380.04"/>
</g>
<!-- économie&#45;&#45;minerai -->
<g id="edge105" class="edge">
<title>économie&#45;&#45;minerai</title>
<path fill="none" stroke="darkgrey" stroke-width="1.18" d="M310.42,-568.6C277.36,-578.04 206.85,-598.17 180.07,-605.82"/>
</g>
<!-- économie&#45;&#45;déforestation -->
<g id="edge106" class="edge">
<title>économie&#45;&#45;déforestation</title>
<path fill="none" stroke="darkgrey" stroke-width="1.02" d="M344.81,-570.98C393.84,-592.52 534.64,-654.38 558.48,-664.85"/>
</g>
<!-- impact environnemental&#45;&#45;terre -->
<g id="edge107" class="edge">
<title>impact environnemental&#45;&#45;terre</title>
<path fill="none" stroke="darkgrey" stroke-width="1.14" d="M425.08,-557.56C368.48,-547.24 216.47,-519.52 181.62,-513.17"/>
</g>
<!-- impact environnemental&#45;&#45;usine -->
<g id="edge108" class="edge">
<title>impact environnemental&#45;&#45;usine</title>
<path fill="none" stroke="darkgrey" stroke-width="1.53" d="M426.62,-570.76C378.15,-593.53 255.36,-651.23 225.42,-665.3"/>
</g>
<!-- impact environnemental&#45;&#45;sln -->
<g id="edge109" class="edge">
<title>impact environnemental&#45;&#45;sln</title>
<path fill="none" stroke="darkgrey" stroke-width="1.26" d="M438.34,-541.34C414.2,-481.27 343.42,-305.12 328.75,-268.63"/>
</g>
<!-- impact environnemental&#45;&#45;ressource -->
<g id="edge110" class="edge">
<title>impact environnemental&#45;&#45;ressource</title>
<path fill="none" stroke="darkgrey" stroke-width="1.26" d="M434.77,-579.9C410.61,-618.13 356.12,-704.36 341.27,-727.86"/>
</g>
<!-- impact environnemental&#45;&#45;conflit -->
<g id="edge111" class="edge">
<title>impact environnemental&#45;&#45;conflit</title>
<path fill="none" stroke="darkgrey" stroke-width="1.18" d="M431.72,-545.72C394.55,-505.94 298.13,-402.75 275.32,-378.35"/>
</g>
<!-- impact environnemental&#45;&#45;développement -->
<g id="edge112" class="edge">
<title>impact environnemental&#45;&#45;développement</title>
<path fill="none" stroke="darkgrey" stroke-width="1.34" d="M465.08,-550.32C518.28,-518.58 668.44,-429 691.58,-415.2"/>
</g>
<!-- impact environnemental&#45;&#45;minerai -->
<g id="edge113" class="edge">
<title>impact environnemental&#45;&#45;minerai</title>
<path fill="none" stroke="darkgrey" d="M425.15,-565.09C369.67,-574.59 221.98,-599.86 180.45,-606.97"/>
</g>
<!-- impact environnemental&#45;&#45;exportation -->
<g id="edge115" class="edge">
<title>impact environnemental&#45;&#45;exportation</title>
<path fill="none" stroke="darkgrey" stroke-width="1.39" d="M467.95,-558.46C501.55,-553.8 564.29,-545.09 580.37,-542.85"/>
</g>
<!-- impact environnemental&#45;&#45;épuisable -->
<g id="edge114" class="edge">
<title>impact environnemental&#45;&#45;épuisable</title>
<path fill="none" stroke="darkgrey" stroke-width="1.18" d="M467.12,-567.41C555.47,-592.86 897.36,-691.35 913.34,-695.96"/>
</g>
<!-- usine&#45;&#45;minerai -->
<g id="edge118" class="edge">
<title>usine&#45;&#45;minerai</title>
<path fill="none" stroke="darkgrey" stroke-width="2.19" d="M214.21,-662.93C205.63,-652.56 186.98,-630.04 176.67,-617.58"/>
</g>
<!-- sln&#45;&#45;usine du sud -->
<g id="edge119" class="edge">
<title>sln&#45;&#45;usine du sud</title>
<path fill="none" stroke="darkgrey" stroke-width="1.05" d="M322.74,-255.79C303.96,-221 211.7,-50.16 198.11,-24.99"/>
</g>
<!-- ressource&#45;&#45;minerai -->
<g id="edge120" class="edge">
<title>ressource&#45;&#45;minerai</title>
<path fill="none" stroke="darkgrey" stroke-width="1.28" d="M331.5,-729.42C306.36,-710.72 209.15,-638.39 178.65,-615.7"/>
</g>
<!-- roche&#45;&#45;terre -->
<g id="edge116" class="edge">
<title>roche&#45;&#45;terre</title>
<path fill="none" stroke="darkgrey" stroke-width="1" d="M44.1,-441.86C71.39,-456.52 146.06,-496.62 168.18,-508.5"/>
</g>
<!-- roche&#45;&#45;minerai -->
<g id="edge117" class="edge">
<title>roche&#45;&#45;minerai</title>
<path fill="none" stroke="darkgrey" stroke-width="1.07" d="M40.9,-445.22C64.08,-474.73 139,-570.09 162.4,-599.88"/>
</g>
<!-- pollution -->
<g id="node1" class="node">
<title>pollution</title>
<ellipse fill="#fb9606" stroke="white" stroke-width="0" cx="413.08" cy="-478.24" rx="29" ry="29"/>
<text text-anchor="middle" x="365.58" y="-509.84" font-family="Helvetica,sans-Serif" font-size="8.00" fill="#4d4d4d">pollution</text>
</g>
<!-- emploi -->
<g id="node2" class="node">
<title>emploi</title>
<ellipse fill="#fcffa4" stroke="white" stroke-width="0" cx="412.92" cy="-412.59" rx="36" ry="36"/>
<text text-anchor="middle" x="362.92" y="-451.19" font-family="Helvetica,sans-Serif" font-size="8.00" fill="#4d4d4d">emploi</text>
</g>
<!-- richesse -->
<g id="node3" class="node">
<title>richesse</title>
<ellipse fill="#69166e" stroke="white" stroke-width="0" cx="317.4" cy="-652.75" rx="11" ry="11"/>
<text text-anchor="middle" x="288.9" y="-666.35" font-family="Helvetica,sans-Serif" font-size="8.00" fill="#4d4d4d">richesse</text>
</g>
<!-- démolition -->
<g id="node4" class="node">
<title>démolition</title>
<ellipse fill="#3b0964" stroke="white" stroke-width="0" cx="461.13" cy="-716.81" rx="7" ry="7"/>
<text text-anchor="middle" x="432.13" y="-726.41" font-family="Helvetica,sans-Serif" font-size="8.00" fill="#4d4d4d">démolition</text>
</g>
<!-- argent -->
<g id="node5" class="node">
<title>argent</title>
<ellipse fill="#520e6d" stroke="white" stroke-width="0" cx="169.97" cy="-228.48" rx="11" ry="11"/>
<text text-anchor="middle" x="144.97" y="-242.08" font-family="Helvetica,sans-Serif" font-size="8.00" fill="#4d4d4d">argent</text>
</g>
<!-- nickel -->
<g id="node6" class="node">
<title>nickel</title>
<ellipse fill="#fac42a" stroke="white" stroke-width="0" cx="316.05" cy="-429.47" rx="32.5" ry="32.5"/>
<text text-anchor="middle" x="271.55" y="-464.57" font-family="Helvetica,sans-Serif" font-size="8.00" fill="#4d4d4d">nickel</text>
</g>
<!-- nature -->
<g id="node7" class="node">
<title>nature</title>
<ellipse fill="#02020e" stroke="white" stroke-width="0" cx="718.27" cy="-253.12" rx="0.5" ry="0.5"/>
<text text-anchor="middle" x="704.27" y="-256.22" font-family="Helvetica,sans-Serif" font-size="8.00" fill="#4d4d4d">nature</text>
</g>
<!-- exploitation -->
<g id="node8" class="node">
<title>exploitation</title>
<ellipse fill="#9a2865" stroke="white" stroke-width="0" cx="262.4" cy="-551.43" rx="14.5" ry="14.5"/>
<text text-anchor="middle" x="223.4" y="-568.53" font-family="Helvetica,sans-Serif" font-size="8.00" fill="#4d4d4d">exploitation</text>
</g>
<!-- montagne -->
<g id="node9" class="node">
<title>montagne</title>
<ellipse fill="#3d0965" stroke="white" stroke-width="0" cx="86.97" cy="-542.43" rx="7" ry="7"/>
<text text-anchor="middle" x="58.47" y="-552.03" font-family="Helvetica,sans-Serif" font-size="8.00" fill="#4d4d4d">montagne</text>
</g>
<!-- camion -->
<g id="node10" class="node">
<title>camion</title>
<ellipse fill="#64156e" stroke="white" stroke-width="0" cx="180.67" cy="-423.39" rx="11" ry="11"/>
<text text-anchor="middle" x="154.17" y="-436.99" font-family="Helvetica,sans-Serif" font-size="8.00" fill="#4d4d4d">camion</text>
</g>
<!-- économie -->
<g id="node11" class="node">
<title>économie</title>
<ellipse fill="#c03a51" stroke="white" stroke-width="0" cx="327.99" cy="-563.59" rx="18" ry="18"/>
<text text-anchor="middle" x="289.49" y="-584.19" font-family="Helvetica,sans-Serif" font-size="8.00" fill="#4d4d4d">économie</text>
</g>
<!-- impact environnemental -->
<g id="node12" class="node">
<title>impact environnemental</title>
<ellipse fill="#d34743" stroke="white" stroke-width="0" cx="446.43" cy="-561.45" rx="21.5" ry="21.5"/>
<text text-anchor="middle" x="374.93" y="-585.55" font-family="Helvetica,sans-Serif" font-size="8.00" fill="#4d4d4d">impact environnemental</text>
</g>
<!-- terre rouge -->
<g id="node13" class="node">
<title>terre rouge</title>
<ellipse fill="#1e0c45" stroke="white" stroke-width="0" cx="524.04" cy="-203.07" rx="3.5" ry="3.5"/>
<text text-anchor="middle" x="498.04" y="-209.17" font-family="Helvetica,sans-Serif" font-size="8.00" fill="#4d4d4d">terre rouge</text>
</g>
<!-- terre -->
<g id="node14" class="node">
<title>terre</title>
<ellipse fill="#3b0964" stroke="white" stroke-width="0" cx="174.43" cy="-511.85" rx="7" ry="7"/>
<text text-anchor="middle" x="157.93" y="-521.45" font-family="Helvetica,sans-Serif" font-size="8.00" fill="#4d4d4d">terre</text>
</g>
<!-- usine -->
<g id="node15" class="node">
<title>usine</title>
<ellipse fill="#4f0d6c" stroke="white" stroke-width="0" cx="218.76" cy="-668.43" rx="7" ry="7"/>
<text text-anchor="middle" x="200.26" y="-678.03" font-family="Helvetica,sans-Serif" font-size="8.00" fill="#4d4d4d">usine</text>
</g>
<!-- érosion -->
<g id="node16" class="node">
<title>érosion</title>
<ellipse fill="#02020c" stroke="white" stroke-width="0" cx="772.52" cy="-527.83" rx="0.5" ry="0.5"/>
<text text-anchor="middle" x="756.52" y="-530.93" font-family="Helvetica,sans-Serif" font-size="8.00" fill="#4d4d4d">érosion</text>
</g>
<!-- sln -->
<g id="node17" class="node">
<title>sln</title>
<ellipse fill="#3d0965" stroke="white" stroke-width="0" cx="326.08" cy="-261.97" rx="7" ry="7"/>
<text text-anchor="middle" x="312.58" y="-271.57" font-family="Helvetica,sans-Serif" font-size="8.00" fill="#4d4d4d">sln</text>
</g>
<!-- ressource -->
<g id="node18" class="node">
<title>ressource</title>
<ellipse fill="#440a68" stroke="white" stroke-width="0" cx="337.48" cy="-733.87" rx="7" ry="7"/>
<text text-anchor="middle" x="310.48" y="-743.47" font-family="Helvetica,sans-Serif" font-size="8.00" fill="#4d4d4d">ressource</text>
</g>
<!-- conflit -->
<g id="node19" class="node">
<title>conflit</title>
<ellipse fill="#360961" stroke="white" stroke-width="0" cx="270.44" cy="-373.12" rx="7" ry="7"/>
<text text-anchor="middle" x="250.44" y="-382.72" font-family="Helvetica,sans-Serif" font-size="8.00" fill="#4d4d4d">conflit</text>
</g>
<!-- développement -->
<g id="node20" class="node">
<title>développement</title>
<ellipse fill="#0b0724" stroke="white" stroke-width="0" cx="694.59" cy="-413.4" rx="3.5" ry="3.5"/>
<text text-anchor="middle" x="658.59" y="-419.5" font-family="Helvetica,sans-Serif" font-size="8.00" fill="#4d4d4d">développement</text>
</g>
<!-- minerai -->
<g id="node21" class="node">
<title>minerai</title>
<ellipse fill="#510e6c" stroke="white" stroke-width="0" cx="169.45" cy="-608.85" rx="11" ry="11"/>
<text text-anchor="middle" x="142.95" y="-622.45" font-family="Helvetica,sans-Serif" font-size="8.00" fill="#4d4d4d">minerai</text>
</g>
<!-- déforestation -->
<g id="node22" class="node">
<title>déforestation</title>
<ellipse fill="#1c0c43" stroke="white" stroke-width="0" cx="561.93" cy="-666.36" rx="3.5" ry="3.5"/>
<text text-anchor="middle" x="530.93" y="-672.46" font-family="Helvetica,sans-Serif" font-size="8.00" fill="#4d4d4d">déforestation</text>
</g>
<!-- roche -->
<g id="node23" class="node">
<title>roche</title>
<ellipse fill="#510e6c" stroke="white" stroke-width="0" cx="34" cy="-436.44" rx="11" ry="11"/>
<text text-anchor="middle" x="11.5" y="-450.04" font-family="Helvetica,sans-Serif" font-size="8.00" fill="#4d4d4d">roche</text>
</g>
<!-- industrie -->
<g id="node24" class="node">
<title>industrie</title>
<ellipse fill="#02020e" stroke="white" stroke-width="0" cx="685.83" cy="-0.5" rx="0.5" ry="0.5"/>
<text text-anchor="middle" x="666.83" y="-3.6" font-family="Helvetica,sans-Serif" font-size="8.00" fill="#4d4d4d">industrie</text>
</g>
<!-- main d’oeuvre -->
<g id="node25" class="node">
<title>main d’oeuvre</title>
<ellipse fill="#1b0c41" stroke="white" stroke-width="0" cx="386.12" cy="-59.45" rx="3.5" ry="3.5"/>
<text text-anchor="middle" x="353.62" y="-65.55" font-family="Helvetica,sans-Serif" font-size="8.00" fill="#4d4d4d">main d’oeuvre</text>
</g>
<!-- exportation -->
<g id="node26" class="node">
<title>exportation</title>
<ellipse fill="#0c0826" stroke="white" stroke-width="0" cx="584.19" cy="-542.32" rx="3.5" ry="3.5"/>
<text text-anchor="middle" x="557.19" y="-548.42" font-family="Helvetica,sans-Serif" font-size="8.00" fill="#4d4d4d">exportation</text>
</g>
<!-- usine du sud -->
<g id="node27" class="node">
<title>usine du sud</title>
<ellipse fill="#09061f" stroke="white" stroke-width="0" cx="196.44" cy="-21.89" rx="3.5" ry="3.5"/>
<text text-anchor="middle" x="166.44" y="-27.99" font-family="Helvetica,sans-Serif" font-size="8.00" fill="#4d4d4d">usine du sud</text>
</g>
<!-- épuisable -->
<g id="node28" class="node">
<title>épuisable</title>
<ellipse fill="#000004" stroke="white" stroke-width="0" cx="913.92" cy="-696.12" rx="0.5" ry="0.5"/>
<text text-anchor="middle" x="892.92" y="-699.22" font-family="Helvetica,sans-Serif" font-size="8.00" fill="#4d4d4d">épuisable</text>
</g>
</g>
</svg>
