<?xml version="1.0" encoding="UTF-8" standalone="no"?>
<!DOCTYPE svg PUBLIC "-//W3C//DTD SVG 1.1//EN"
 "http://www.w3.org/Graphics/SVG/1.1/DTD/svg11.dtd">
<!-- Generated by graphviz version 2.43.0 (0)
 -->
<!-- Pages: 1 -->
<svg width="918pt" height="801pt"
 viewBox="0.00 0.00 917.73 801.06" xmlns="http://www.w3.org/2000/svg" xmlns:xlink="http://www.w3.org/1999/xlink">
<g id="graph0" class="graph" transform="scale(1 1) rotate(0) translate(4 797.06)">
<polygon fill="white" stroke="transparent" points="-4,4 -4,-797.06 913.73,-797.06 913.73,4 -4,4"/>
<!-- avenir sans nickel&#45;&#45;industrie -->
<g id="edge1" class="edge">
<title>avenir sans nickel&#45;&#45;industrie</title>
<path fill="none" stroke="darkgrey" stroke-width="1.11" d="M306.89,-355C271.25,-409.3 187.22,-537.31 173.03,-558.91"/>
</g>
<!-- avenir sans nickel&#45;&#45;travail -->
<g id="edge2" class="edge">
<title>avenir sans nickel&#45;&#45;travail</title>
<path fill="none" stroke="darkgrey" stroke-width="3.45" d="M326.18,-301.77C329.84,-269.94 335.61,-219.76 338.67,-193.09"/>
</g>
<!-- avenir sans nickel&#45;&#45;politique -->
<g id="edge3" class="edge">
<title>avenir sans nickel&#45;&#45;politique</title>
<path fill="none" stroke="darkgrey" stroke-width="3.9" d="M338.02,-355.58C345.49,-367.85 354.35,-382.39 361.21,-393.66"/>
</g>
<!-- avenir sans nickel&#45;&#45;secteur nickel -->
<g id="edge4" class="edge">
<title>avenir sans nickel&#45;&#45;secteur nickel</title>
<path fill="none" stroke="darkgrey" stroke-width="3.26" d="M350.17,-320.36C379.88,-309.14 426.68,-291.46 453.33,-281.39"/>
</g>
<!-- avenir sans nickel&#45;&#45;relation politique -->
<g id="edge5" class="edge">
<title>avenir sans nickel&#45;&#45;relation politique</title>
<path fill="none" stroke="darkgrey" stroke-width="1.32" d="M351.12,-337.22C398.79,-348.25 491.84,-369.79 510.94,-374.21"/>
</g>
<!-- avenir sans nickel&#45;&#45;avenir avec nickel -->
<g id="edge6" class="edge">
<title>avenir sans nickel&#45;&#45;avenir avec nickel</title>
<path fill="none" stroke="darkgrey" stroke-width="3.21" d="M294.36,-337.38C255.48,-346.51 187.65,-362.45 161.23,-368.66"/>
</g>
<!-- avenir sans nickel&#45;&#45;pollution -->
<g id="edge7" class="edge">
<title>avenir sans nickel&#45;&#45;pollution</title>
<path fill="none" stroke="darkgrey" stroke-width="5.61" d="M311.9,-303.62C309.74,-298.29 307.5,-292.75 305.39,-287.55"/>
</g>
<!-- avenir sans nickel&#45;&#45;ressource minière -->
<g id="edge8" class="edge">
<title>avenir sans nickel&#45;&#45;ressource minière</title>
<path fill="none" stroke="darkgrey" stroke-width="5.69" d="M315.46,-358.87C313.83,-365.1 312.11,-371.65 310.52,-377.71"/>
</g>
<!-- avenir sans nickel&#45;&#45;dégradation environnementale -->
<g id="edge9" class="edge">
<title>avenir sans nickel&#45;&#45;dégradation environnementale</title>
<path fill="none" stroke="darkgrey" stroke-width="6.27" d="M336.11,-304.82C339.94,-297.34 344.17,-289.07 348.18,-281.25"/>
</g>
<!-- avenir sans nickel&#45;&#45;nature -->
<g id="edge10" class="edge">
<title>avenir sans nickel&#45;&#45;nature</title>
<path fill="none" stroke="darkgrey" stroke-width="1.28" d="M313.18,-303.14C291.87,-242.48 241.63,-99.5 227.55,-59.44"/>
</g>
<!-- avenir sans nickel&#45;&#45;société néo&#45;calédonienne -->
<g id="edge11" class="edge">
<title>avenir sans nickel&#45;&#45;société néo&#45;calédonienne</title>
<path fill="none" stroke="darkgrey" stroke-width="3.16" d="M340.33,-307.5C360.09,-281.29 391.49,-239.62 406.78,-219.34"/>
</g>
<!-- avenir sans nickel&#45;&#45;alternative au développement -->
<g id="edge12" class="edge">
<title>avenir sans nickel&#45;&#45;alternative au développement</title>
<path fill="none" stroke="darkgrey" stroke-width="4.69" d="M293.8,-327.92C279.32,-326.55 261.88,-324.89 247.43,-323.52"/>
</g>
<!-- avenir sans nickel&#45;&#45;économie -->
<g id="edge13" class="edge">
<title>avenir sans nickel&#45;&#45;économie</title>
<path fill="none" stroke="darkgrey" stroke-width="2.8" d="M299.71,-348.19C286.93,-357.85 271.44,-369.57 260.33,-377.96"/>
</g>
<!-- avenir sans nickel&#45;&#45;amélioration environnementale -->
<g id="edge14" class="edge">
<title>avenir sans nickel&#45;&#45;amélioration environnementale</title>
<path fill="none" stroke="darkgrey" stroke-width="2.25" d="M297.43,-316.73C256.41,-294.23 177.44,-250.9 149.82,-235.74"/>
</g>
<!-- avenir sans nickel&#45;&#45;essor technologique -->
<g id="edge15" class="edge">
<title>avenir sans nickel&#45;&#45;essor technologique</title>
<path fill="none" stroke="darkgrey" stroke-width="1.52" d="M315.85,-302.27C306.75,-265.36 291.13,-202.05 283.58,-171.44"/>
</g>
<!-- industrie&#45;&#45;ressource minière -->
<g id="edge16" class="edge">
<title>industrie&#45;&#45;ressource minière</title>
<path fill="none" stroke="darkgrey" stroke-width="1.06" d="M173.3,-559.25C186.8,-543.02 255.99,-459.87 287.94,-421.48"/>
</g>
<!-- industrie&#45;&#45;alternative au développement -->
<g id="edge17" class="edge">
<title>industrie&#45;&#45;alternative au développement</title>
<path fill="none" stroke="darkgrey" stroke-width="1.13" d="M171.73,-558.24C176.37,-534.68 201.46,-407.38 212.87,-349.47"/>
</g>
<!-- industrie&#45;&#45;économie -->
<g id="edge19" class="edge">
<title>industrie&#45;&#45;économie</title>
<path fill="none" stroke="darkgrey" stroke-width="1.13" d="M172.41,-558.73C180.58,-539.81 221.69,-444.64 238.51,-405.68"/>
</g>
<!-- industrie&#45;&#45;nickel -->
<g id="edge18" class="edge">
<title>industrie&#45;&#45;nickel</title>
<path fill="none" stroke="darkgrey" stroke-width="1.1" d="M171.14,-558.41C172.44,-528.64 181.33,-324.26 183.13,-283.06"/>
</g>
<!-- travail&#45;&#45;politique -->
<g id="edge20" class="edge">
<title>travail&#45;&#45;politique</title>
<path fill="none" stroke="darkgrey" stroke-width="3.64" d="M343.18,-193.24C348.96,-236.42 363.47,-344.78 369.65,-390.89"/>
</g>
<!-- travail&#45;&#45;secteur nickel -->
<g id="edge21" class="edge">
<title>travail&#45;&#45;secteur nickel</title>
<path fill="none" stroke="darkgrey" stroke-width="3.79" d="M355.22,-185.77C379.85,-204.06 429.8,-241.13 456.28,-260.79"/>
</g>
<!-- travail&#45;&#45;relation politique -->
<g id="edge22" class="edge">
<title>travail&#45;&#45;relation politique</title>
<path fill="none" stroke="darkgrey" d="M352.68,-188.77C388.7,-230.25 494.88,-352.52 512.06,-372.3"/>
</g>
<!-- travail&#45;&#45;avenir avec nickel -->
<g id="edge23" class="edge">
<title>travail&#45;&#45;avenir avec nickel</title>
<path fill="none" stroke="darkgrey" stroke-width="1.77" d="M327.95,-188.21C291.41,-225.84 187.35,-333.03 158.03,-363.23"/>
</g>
<!-- travail&#45;&#45;pollution -->
<g id="edge24" class="edge">
<title>travail&#45;&#45;pollution</title>
<path fill="none" stroke="darkgrey" stroke-width="5.33" d="M332.52,-191.37C325.44,-205.44 315.16,-225.89 307.29,-241.53"/>
</g>
<!-- travail&#45;&#45;ressource minière -->
<g id="edge25" class="edge">
<title>travail&#45;&#45;ressource minière</title>
<path fill="none" stroke="darkgrey" stroke-width="2.97" d="M337.87,-192.84C331.39,-233.07 315.58,-331.07 308.14,-377.21"/>
</g>
<!-- travail&#45;&#45;dégradation environnementale -->
<g id="edge26" class="edge">
<title>travail&#45;&#45;dégradation environnementale</title>
<path fill="none" stroke="darkgrey" stroke-width="6.43" d="M346.31,-192.17C348.47,-198.82 351.02,-206.69 353.53,-214.42"/>
</g>
<!-- travail&#45;&#45;nature -->
<g id="edge27" class="edge">
<title>travail&#45;&#45;nature</title>
<path fill="none" stroke="darkgrey" stroke-width="1.2" d="M328.23,-161.52C303.96,-135.33 251.15,-78.33 231.45,-57.06"/>
</g>
<!-- travail&#45;&#45;société néo&#45;calédonienne -->
<g id="edge28" class="edge">
<title>travail&#45;&#45;société néo&#45;calédonienne</title>
<path fill="none" stroke="darkgrey" stroke-width="3.61" d="M357.39,-182.22C370.85,-188.05 389.57,-196.14 402.14,-201.58"/>
</g>
<!-- travail&#45;&#45;alternative au développement -->
<g id="edge30" class="edge">
<title>travail&#45;&#45;alternative au développement</title>
<path fill="none" stroke="darkgrey" stroke-width="3.94" d="M329.03,-189C307.82,-214.29 262.89,-267.86 237.34,-298.33"/>
</g>
<!-- travail&#45;&#45;économie -->
<g id="edge32" class="edge">
<title>travail&#45;&#45;économie</title>
<path fill="none" stroke="darkgrey" stroke-width="4.06" d="M333.29,-191.82C315.52,-231.82 270.86,-332.39 253.13,-372.31"/>
</g>
<!-- travail&#45;&#45;amélioration environnementale -->
<g id="edge33" class="edge">
<title>travail&#45;&#45;amélioration environnementale</title>
<path fill="none" stroke="darkgrey" stroke-width="2.89" d="M323.28,-179.84C282.84,-190.99 183.69,-218.31 150.8,-227.38"/>
</g>
<!-- travail&#45;&#45;essor technologique -->
<g id="edge34" class="edge">
<title>travail&#45;&#45;essor technologique</title>
<path fill="none" stroke="darkgrey" stroke-width="3.14" d="M323.61,-169.13C315.08,-166.19 304.8,-162.65 296.28,-159.71"/>
</g>
<!-- travail&#45;&#45;nickel -->
<g id="edge31" class="edge">
<title>travail&#45;&#45;nickel</title>
<path fill="none" stroke="darkgrey" stroke-width="1.58" d="M325.38,-184.88C291.52,-206.57 211.72,-257.71 189.36,-272.04"/>
</g>
<!-- travail&#45;&#45;nouvelle&#45;calédonie -->
<g id="edge29" class="edge">
<title>travail&#45;&#45;nouvelle&#45;calédonie</title>
<path fill="none" stroke="darkgrey" stroke-width="1.02" d="M322.52,-174.09C292.77,-172.56 235.06,-169.59 214.87,-168.55"/>
</g>
<!-- travail&#45;&#45;matériel -->
<g id="edge35" class="edge">
<title>travail&#45;&#45;matériel</title>
<path fill="none" stroke="darkgrey" stroke-width="1.25" d="M353.43,-161.91C390.83,-123.22 498.7,-11.65 508.73,-1.28"/>
</g>
<!-- politique&#45;&#45;secteur nickel -->
<g id="edge43" class="edge">
<title>politique&#45;&#45;secteur nickel</title>
<path fill="none" stroke="darkgrey" stroke-width="4" d="M385.31,-394.66C404.77,-368.02 441.56,-317.66 460.96,-291.1"/>
</g>
<!-- politique&#45;&#45;relation politique -->
<g id="edge44" class="edge">
<title>politique&#45;&#45;relation politique</title>
<path fill="none" stroke="darkgrey" stroke-width="1.89" d="M393.44,-406.72C427.98,-397.66 494.7,-380.18 510.84,-375.95"/>
</g>
<!-- politique&#45;&#45;avenir avec nickel -->
<g id="edge45" class="edge">
<title>politique&#45;&#45;avenir avec nickel</title>
<path fill="none" stroke="darkgrey" stroke-width="1.68" d="M351.19,-408.27C304.91,-399.74 196.54,-379.77 161.44,-373.3"/>
</g>
<!-- politique&#45;&#45;pollution -->
<g id="edge46" class="edge">
<title>politique&#45;&#45;pollution</title>
<path fill="none" stroke="darkgrey" stroke-width="3.62" d="M362.49,-392.85C348.29,-365.41 322.4,-315.34 307.43,-286.4"/>
</g>
<!-- politique&#45;&#45;ressource minière -->
<g id="edge47" class="edge">
<title>politique&#45;&#45;ressource minière</title>
<path fill="none" stroke="darkgrey" stroke-width="4.07" d="M350.87,-408.98C343.99,-407.95 336.31,-406.8 329.21,-405.74"/>
</g>
<!-- politique&#45;&#45;dégradation environnementale -->
<g id="edge48" class="edge">
<title>politique&#45;&#45;dégradation environnementale</title>
<path fill="none" stroke="darkgrey" stroke-width="5.22" d="M371.47,-390.52C370.19,-363.64 367.99,-317.41 366.45,-285.11"/>
</g>
<!-- politique&#45;&#45;société néo&#45;calédonienne -->
<g id="edge49" class="edge">
<title>politique&#45;&#45;société néo&#45;calédonienne</title>
<path fill="none" stroke="darkgrey" stroke-width="2.49" d="M376.96,-391.06C385.79,-349.27 405.25,-257.09 412.73,-221.69"/>
</g>
<!-- politique&#45;&#45;alternative au développement -->
<g id="edge51" class="edge">
<title>politique&#45;&#45;alternative au développement</title>
<path fill="none" stroke="darkgrey" stroke-width="3.24" d="M353.93,-401.17C326.33,-384.79 274.44,-353.98 243.53,-335.62"/>
</g>
<!-- politique&#45;&#45;économie -->
<g id="edge53" class="edge">
<title>politique&#45;&#45;économie</title>
<path fill="none" stroke="darkgrey" stroke-width="3.81" d="M351.28,-408.32C326.74,-403.84 286.79,-396.53 263.71,-392.32"/>
</g>
<!-- politique&#45;&#45;amélioration environnementale -->
<g id="edge54" class="edge">
<title>politique&#45;&#45;amélioration environnementale</title>
<path fill="none" stroke="darkgrey" stroke-width="1.11" d="M355.4,-398.83C309.26,-362.74 183.34,-264.26 148.84,-237.27"/>
</g>
<!-- politique&#45;&#45;essor technologique -->
<g id="edge55" class="edge">
<title>politique&#45;&#45;essor technologique</title>
<path fill="none" stroke="darkgrey" stroke-width="1.08" d="M365.18,-391.93C347.36,-342.56 301.97,-216.8 285.41,-170.93"/>
</g>
<!-- politique&#45;&#45;nickel -->
<g id="edge52" class="edge">
<title>politique&#45;&#45;nickel</title>
<path fill="none" stroke="darkgrey" stroke-width="1.25" d="M355.05,-399.62C314.28,-370.21 214.32,-298.1 189.23,-280"/>
</g>
<!-- politique&#45;&#45;nouvelle&#45;calédonie -->
<g id="edge50" class="edge">
<title>politique&#45;&#45;nouvelle&#45;calédonie</title>
<path fill="none" stroke="darkgrey" stroke-width="1.73" d="M360.38,-394.26C326.63,-344.29 232.68,-205.17 211.82,-174.3"/>
</g>
<!-- politique&#45;&#45;risque -->
<g id="edge56" class="edge">
<title>politique&#45;&#45;risque</title>
<path fill="none" stroke="darkgrey" stroke-width="1.15" d="M382.95,-431.13C423.78,-505.03 570.56,-770.69 577.41,-783.11"/>
</g>
<!-- secteur nickel&#45;&#45;relation politique -->
<g id="edge57" class="edge">
<title>secteur nickel&#45;&#45;relation politique</title>
<path fill="none" stroke="darkgrey" stroke-width="1.56" d="M481.72,-293.72C491.74,-318.63 508.13,-359.38 513.01,-371.51"/>
</g>
<!-- secteur nickel&#45;&#45;avenir avec nickel -->
<g id="edge58" class="edge">
<title>secteur nickel&#45;&#45;avenir avec nickel</title>
<path fill="none" stroke="darkgrey" stroke-width="1.87" d="M452.95,-279.95C390.77,-298.7 207.24,-354.05 160.95,-368.01"/>
</g>
<!-- secteur nickel&#45;&#45;pollution -->
<g id="edge59" class="edge">
<title>secteur nickel&#45;&#45;pollution</title>
<path fill="none" stroke="darkgrey" stroke-width="4.01" d="M451.88,-272.53C418.78,-270.75 356.01,-267.37 321.04,-265.49"/>
</g>
<!-- secteur nickel&#45;&#45;ressource minière -->
<g id="edge60" class="edge">
<title>secteur nickel&#45;&#45;ressource minière</title>
<path fill="none" stroke="darkgrey" stroke-width="2.55" d="M456.49,-286.71C424.92,-310.6 357.87,-361.34 324.25,-386.79"/>
</g>
<!-- secteur nickel&#45;&#45;dégradation environnementale -->
<g id="edge61" class="edge">
<title>secteur nickel&#45;&#45;dégradation environnementale</title>
<path fill="none" stroke="darkgrey" stroke-width="3.69" d="M452.67,-268.93C437.83,-265.56 417.58,-260.96 400.25,-257.02"/>
</g>
<!-- secteur nickel&#45;&#45;société néo&#45;calédonienne -->
<g id="edge62" class="edge">
<title>secteur nickel&#45;&#45;société néo&#45;calédonienne</title>
<path fill="none" stroke="darkgrey" stroke-width="2.12" d="M459.35,-257.33C448.76,-245.22 434.63,-229.06 425.36,-218.46"/>
</g>
<!-- secteur nickel&#45;&#45;alternative au développement -->
<g id="edge64" class="edge">
<title>secteur nickel&#45;&#45;alternative au développement</title>
<path fill="none" stroke="darkgrey" stroke-width="5.7" d="M452.36,-277.63C406.61,-286.07 298.96,-305.93 247.24,-315.47"/>
</g>
<!-- secteur nickel&#45;&#45;économie -->
<g id="edge66" class="edge">
<title>secteur nickel&#45;&#45;économie</title>
<path fill="none" stroke="darkgrey" stroke-width="2.71" d="M454.24,-283.53C410.09,-305.87 302.93,-360.08 261.98,-380.79"/>
</g>
<!-- secteur nickel&#45;&#45;amélioration environnementale -->
<g id="edge67" class="edge">
<title>secteur nickel&#45;&#45;amélioration environnementale</title>
<path fill="none" stroke="darkgrey" stroke-width="3.27" d="M452.29,-270.92C388.14,-262.59 198.78,-237.99 151.03,-231.79"/>
</g>
<!-- secteur nickel&#45;&#45;essor technologique -->
<g id="edge69" class="edge">
<title>secteur nickel&#45;&#45;essor technologique</title>
<path fill="none" stroke="darkgrey" stroke-width="2.24" d="M455.03,-262.21C416.82,-238.65 330.24,-185.28 294.81,-163.44"/>
</g>
<!-- secteur nickel&#45;&#45;nickel -->
<g id="edge65" class="edge">
<title>secteur nickel&#45;&#45;nickel</title>
<path fill="none" stroke="darkgrey" stroke-width="2.24" d="M451.86,-273.86C392.01,-274.3 227.25,-275.51 190.69,-275.77"/>
</g>
<!-- secteur nickel&#45;&#45;nouvelle&#45;calédonie -->
<g id="edge63" class="edge">
<title>secteur nickel&#45;&#45;nouvelle&#45;calédonie</title>
<path fill="none" stroke="darkgrey" stroke-width="1.26" d="M453.68,-265.77C398.83,-244.01 247.84,-184.1 214.33,-170.81"/>
</g>
<!-- secteur nickel&#45;&#45;foncier -->
<g id="edge68" class="edge">
<title>secteur nickel&#45;&#45;foncier</title>
<path fill="none" stroke="darkgrey" stroke-width="1.01" d="M493.08,-264.22C570.87,-226.21 856.62,-86.61 869.97,-80.09"/>
</g>
<!-- secteur nickel&#45;&#45;échange commercial -->
<g id="edge70" class="edge">
<title>secteur nickel&#45;&#45;échange commercial</title>
<path fill="none" stroke="darkgrey" stroke-width="1.17" d="M494.98,-277.02C580.37,-290.3 894.04,-339.11 908.7,-341.39"/>
</g>
<!-- relation politique&#45;&#45;pollution -->
<g id="edge71" class="edge">
<title>relation politique&#45;&#45;pollution</title>
<path fill="none" stroke="darkgrey" stroke-width="1.21" d="M510.98,-373.27C489.16,-362.2 369.02,-301.24 318.41,-275.56"/>
</g>
<!-- relation politique&#45;&#45;ressource minière -->
<g id="edge72" class="edge">
<title>relation politique&#45;&#45;ressource minière</title>
<path fill="none" stroke="darkgrey" stroke-width="1.11" d="M510.77,-375.48C489.34,-378.24 379.07,-392.39 328.97,-398.82"/>
</g>
<!-- relation politique&#45;&#45;dégradation environnementale -->
<g id="edge73" class="edge">
<title>relation politique&#45;&#45;dégradation environnementale</title>
<path fill="none" stroke="darkgrey" stroke-width="1.47" d="M511.56,-372.61C497.05,-360.39 430.7,-304.51 392.34,-272.2"/>
</g>
<!-- relation politique&#45;&#45;économie -->
<g id="edge74" class="edge">
<title>relation politique&#45;&#45;économie</title>
<path fill="none" stroke="darkgrey" stroke-width="1.71" d="M510.62,-375.21C483.51,-376.63 318.87,-385.21 263.7,-388.09"/>
</g>
<!-- avenir avec nickel&#45;&#45;pollution -->
<g id="edge75" class="edge">
<title>avenir avec nickel&#45;&#45;pollution</title>
<path fill="none" stroke="darkgrey" stroke-width="1.18" d="M159.37,-364.54C182.41,-347.59 243.46,-302.71 275.55,-279.12"/>
</g>
<!-- avenir avec nickel&#45;&#45;ressource minière -->
<g id="edge76" class="edge">
<title>avenir avec nickel&#45;&#45;ressource minière</title>
<path fill="none" stroke="darkgrey" stroke-width="1.69" d="M161.33,-373.45C185.93,-378.37 245.66,-390.31 279.57,-397.09"/>
</g>
<!-- avenir avec nickel&#45;&#45;dégradation environnementale -->
<g id="edge77" class="edge">
<title>avenir avec nickel&#45;&#45;dégradation environnementale</title>
<path fill="none" stroke="darkgrey" stroke-width="2.84" d="M160.03,-365.66C190.35,-348.38 283.75,-295.12 333.22,-266.91"/>
</g>
<!-- avenir avec nickel&#45;&#45;alternative au développement -->
<g id="edge78" class="edge">
<title>avenir avec nickel&#45;&#45;alternative au développement</title>
<path fill="none" stroke="darkgrey" stroke-width="2.43" d="M159.18,-364.64C168.29,-357.91 182.81,-347.17 195.2,-338.01"/>
</g>
<!-- avenir avec nickel&#45;&#45;économie -->
<g id="edge79" class="edge">
<title>avenir avec nickel&#45;&#45;économie</title>
<path fill="none" stroke="darkgrey" stroke-width="2.25" d="M161.21,-373.28C177.46,-376.31 208.17,-382.03 227.74,-385.68"/>
</g>
<!-- avenir avec nickel&#45;&#45;amélioration environnementale -->
<g id="edge80" class="edge">
<title>avenir avec nickel&#45;&#45;amélioration environnementale</title>
<path fill="none" stroke="darkgrey" stroke-width="2.93" d="M149.45,-360.18C147.54,-333.85 142.71,-267.64 140.8,-241.36"/>
</g>
<!-- avenir avec nickel&#45;&#45;essor technologique -->
<g id="edge81" class="edge">
<title>avenir avec nickel&#45;&#45;essor technologique</title>
<path fill="none" stroke="darkgrey" stroke-width="2.32" d="M155.97,-361.61C176.25,-327.43 244.95,-211.63 270,-169.41"/>
</g>
<!-- pollution&#45;&#45;ressource minière -->
<g id="edge82" class="edge">
<title>pollution&#45;&#45;ressource minière</title>
<path fill="none" stroke="darkgrey" stroke-width="4.59" d="M297.4,-289.11C298.89,-313.94 301.15,-351.83 302.64,-376.76"/>
</g>
<!-- pollution&#45;&#45;dégradation environnementale -->
<g id="edge83" class="edge">
<title>pollution&#45;&#45;dégradation environnementale</title>
<path fill="none" stroke="darkgrey" stroke-width="10" d="M320.37,-258.74C323.3,-258.09 326.35,-257.42 329.4,-256.75"/>
</g>
<!-- pollution&#45;&#45;nature -->
<g id="edge84" class="edge">
<title>pollution&#45;&#45;nature</title>
<path fill="none" stroke="darkgrey" stroke-width="2.72" d="M287.92,-240.28C272.31,-193.64 238.31,-92.08 227.33,-59.28"/>
</g>
<!-- pollution&#45;&#45;société néo&#45;calédonienne -->
<g id="edge85" class="edge">
<title>pollution&#45;&#45;société néo&#45;calédonienne</title>
<path fill="none" stroke="darkgrey" stroke-width="3.71" d="M318.73,-253.35C343.45,-241.65 382.05,-223.39 402.3,-213.81"/>
</g>
<!-- pollution&#45;&#45;alternative au développement -->
<g id="edge87" class="edge">
<title>pollution&#45;&#45;alternative au développement</title>
<path fill="none" stroke="darkgrey" stroke-width="4.84" d="M275.58,-279.02C265.28,-286.56 252.72,-295.75 242.01,-303.59"/>
</g>
<!-- pollution&#45;&#45;économie -->
<g id="edge89" class="edge">
<title>pollution&#45;&#45;économie</title>
<path fill="none" stroke="darkgrey" stroke-width="4.55" d="M286.59,-287.34C276.72,-311.89 261.38,-350.04 252.56,-371.96"/>
</g>
<!-- pollution&#45;&#45;amélioration environnementale -->
<g id="edge90" class="edge">
<title>pollution&#45;&#45;amélioration environnementale</title>
<path fill="none" stroke="darkgrey" stroke-width="1.82" d="M271.21,-258.79C236.69,-251.31 175.49,-238.05 150.79,-232.69"/>
</g>
<!-- pollution&#45;&#45;essor technologique -->
<g id="edge91" class="edge">
<title>pollution&#45;&#45;essor technologique</title>
<path fill="none" stroke="darkgrey" stroke-width="2.96" d="M292.17,-239.39C289.06,-218.81 284.71,-190.02 281.93,-171.65"/>
</g>
<!-- pollution&#45;&#45;nickel -->
<g id="edge88" class="edge">
<title>pollution&#45;&#45;nickel</title>
<path fill="none" stroke="darkgrey" stroke-width="2.22" d="M270.95,-266.74C245.06,-269.42 206.21,-273.46 190.46,-275.1"/>
</g>
<!-- pollution&#45;&#45;nouvelle&#45;calédonie -->
<g id="edge86" class="edge">
<title>pollution&#45;&#45;nouvelle&#45;calédonie</title>
<path fill="none" stroke="darkgrey" stroke-width="1.3" d="M278.9,-245.64C258.47,-223.42 225.38,-187.42 212.78,-173.71"/>
</g>
<!-- ressource minière&#45;&#45;dégradation environnementale -->
<g id="edge92" class="edge">
<title>ressource minière&#45;&#45;dégradation environnementale</title>
<path fill="none" stroke="darkgrey" stroke-width="6.63" d="M313.35,-378.76C323.48,-353.17 339.85,-311.8 351.39,-282.65"/>
</g>
<!-- ressource minière&#45;&#45;société néo&#45;calédonienne -->
<g id="edge93" class="edge">
<title>ressource minière&#45;&#45;société néo&#45;calédonienne</title>
<path fill="none" stroke="darkgrey" stroke-width="1.23" d="M316.73,-380.06C340.1,-339.32 389.53,-253.15 408.29,-220.43"/>
</g>
<!-- ressource minière&#45;&#45;alternative au développement -->
<g id="edge95" class="edge">
<title>ressource minière&#45;&#45;alternative au développement</title>
<path fill="none" stroke="darkgrey" stroke-width="5.12" d="M285.99,-384.78C272.44,-371.92 253.89,-354.33 239.67,-340.84"/>
</g>
<!-- ressource minière&#45;&#45;économie -->
<g id="edge97" class="edge">
<title>ressource minière&#45;&#45;économie</title>
<path fill="none" stroke="darkgrey" stroke-width="3.8" d="M279.7,-396.57C274.2,-395.35 268.46,-394.08 263.3,-392.93"/>
</g>
<!-- ressource minière&#45;&#45;amélioration environnementale -->
<g id="edge98" class="edge">
<title>ressource minière&#45;&#45;amélioration environnementale</title>
<path fill="none" stroke="darkgrey" stroke-width="1.88" d="M286.58,-383.63C251.18,-346.62 172.54,-264.38 147.68,-238.39"/>
</g>
<!-- ressource minière&#45;&#45;essor technologique -->
<g id="edge99" class="edge">
<title>ressource minière&#45;&#45;essor technologique</title>
<path fill="none" stroke="darkgrey" stroke-width="4.17" d="M301.62,-376.84C296.59,-326.69 285.41,-215.36 281.04,-171.81"/>
</g>
<!-- ressource minière&#45;&#45;nickel -->
<g id="edge96" class="edge">
<title>ressource minière&#45;&#45;nickel</title>
<path fill="none" stroke="darkgrey" stroke-width="1.37" d="M286.85,-383.92C258.82,-354.62 204.93,-298.29 188.39,-281"/>
</g>
<!-- ressource minière&#45;&#45;nouvelle&#45;calédonie -->
<g id="edge94" class="edge">
<title>ressource minière&#45;&#45;nouvelle&#45;calédonie</title>
<path fill="none" stroke="darkgrey" stroke-width="1.55" d="M294.54,-378.73C273.2,-326.98 222.71,-204.59 210.42,-174.8"/>
</g>
<!-- dégradation environnementale&#45;&#45;nature -->
<g id="edge100" class="edge">
<title>dégradation environnementale&#45;&#45;nature</title>
<path fill="none" stroke="darkgrey" stroke-width="3.8" d="M343.94,-219.42C311.48,-173.33 250.41,-86.6 230.38,-58.14"/>
</g>
<!-- dégradation environnementale&#45;&#45;société néo&#45;calédonienne -->
<g id="edge101" class="edge">
<title>dégradation environnementale&#45;&#45;société néo&#45;calédonienne</title>
<path fill="none" stroke="darkgrey" stroke-width="2.95" d="M392.92,-226.02C396.97,-222.72 400.94,-219.5 404.39,-216.69"/>
</g>
<!-- dégradation environnementale&#45;&#45;alternative au développement -->
<g id="edge103" class="edge">
<title>dégradation environnementale&#45;&#45;alternative au développement</title>
<path fill="none" stroke="darkgrey" stroke-width="5.21" d="M332.28,-264.89C306.03,-277.78 269.53,-295.71 245.02,-307.75"/>
</g>
<!-- dégradation environnementale&#45;&#45;économie -->
<g id="edge105" class="edge">
<title>dégradation environnementale&#45;&#45;économie</title>
<path fill="none" stroke="darkgrey" stroke-width="6.49" d="M341.21,-276.62C316.01,-306.28 277.01,-352.18 257.57,-375.06"/>
</g>
<!-- dégradation environnementale&#45;&#45;amélioration environnementale -->
<g id="edge106" class="edge">
<title>dégradation environnementale&#45;&#45;amélioration environnementale</title>
<path fill="none" stroke="darkgrey" stroke-width="2.87" d="M328.62,-245.96C276.51,-241.65 182.97,-233.91 151.03,-231.27"/>
</g>
<!-- dégradation environnementale&#45;&#45;essor technologique -->
<g id="edge107" class="edge">
<title>dégradation environnementale&#45;&#45;essor technologique</title>
<path fill="none" stroke="darkgrey" stroke-width="3.6" d="M340.46,-221.95C324.47,-204.16 304.2,-181.61 291.47,-167.45"/>
</g>
<!-- dégradation environnementale&#45;&#45;nickel -->
<g id="edge104" class="edge">
<title>dégradation environnementale&#45;&#45;nickel</title>
<path fill="none" stroke="darkgrey" stroke-width="2.37" d="M328.91,-254.26C284.95,-260.78 213.44,-271.38 190.65,-274.76"/>
</g>
<!-- dégradation environnementale&#45;&#45;nouvelle&#45;calédonie -->
<g id="edge102" class="edge">
<title>dégradation environnementale&#45;&#45;nouvelle&#45;calédonie</title>
<path fill="none" stroke="darkgrey" stroke-width="1.45" d="M332.57,-232.41C294.52,-212.84 233.85,-181.63 214.12,-171.48"/>
</g>
<!-- dégradation environnementale&#45;&#45;matériel -->
<g id="edge108" class="edge">
<title>dégradation environnementale&#45;&#45;matériel</title>
<path fill="none" stroke="darkgrey" stroke-width="1.02" d="M382.92,-217.73C420.58,-153.09 504.05,-9.82 509.23,-0.93"/>
</g>
<!-- nature&#45;&#45;société néo&#45;calédonienne -->
<g id="edge109" class="edge">
<title>nature&#45;&#45;société néo&#45;calédonienne</title>
<path fill="none" stroke="darkgrey" stroke-width="1.78" d="M232.32,-55.86C263.08,-81.28 368.68,-168.56 404.07,-197.82"/>
</g>
<!-- nature&#45;&#45;alternative au développement -->
<g id="edge110" class="edge">
<title>nature&#45;&#45;alternative au développement</title>
<path fill="none" stroke="darkgrey" stroke-width="1.46" d="M223.61,-60.18C222.84,-99.68 220.25,-232.08 219.09,-291.48"/>
</g>
<!-- nature&#45;&#45;amélioration environnementale -->
<g id="edge111" class="edge">
<title>nature&#45;&#45;amélioration environnementale</title>
<path fill="none" stroke="darkgrey" stroke-width="1.05" d="M219.2,-58.86C204.58,-90.52 159.46,-188.22 144.72,-220.14"/>
</g>
<!-- nature&#45;&#45;essor technologique -->
<g id="edge112" class="edge">
<title>nature&#45;&#45;essor technologique</title>
<path fill="none" stroke="darkgrey" stroke-width="1.07" d="M229.14,-58.91C238.79,-77.18 259.24,-115.94 270.81,-137.86"/>
</g>
<!-- société néo&#45;calédonienne&#45;&#45;alternative au développement -->
<g id="edge114" class="edge">
<title>société néo&#45;calédonienne&#45;&#45;alternative au développement</title>
<path fill="none" stroke="darkgrey" stroke-width="3.18" d="M403.1,-214.72C371.13,-233.09 286.57,-281.67 243.91,-306.19"/>
</g>
<!-- société néo&#45;calédonienne&#45;&#45;économie -->
<g id="edge116" class="edge">
<title>société néo&#45;calédonienne&#45;&#45;économie</title>
<path fill="none" stroke="darkgrey" stroke-width="2.96" d="M405.61,-218.27C376.15,-249.73 290.56,-341.12 258.25,-375.63"/>
</g>
<!-- société néo&#45;calédonienne&#45;&#45;nickel -->
<g id="edge115" class="edge">
<title>société néo&#45;calédonienne&#45;&#45;nickel</title>
<path fill="none" stroke="darkgrey" stroke-width="2.09" d="M401.55,-211.63C357.23,-224.68 222.33,-264.38 190.31,-273.8"/>
</g>
<!-- société néo&#45;calédonienne&#45;&#45;nouvelle&#45;calédonie -->
<g id="edge113" class="edge">
<title>société néo&#45;calédonienne&#45;&#45;nouvelle&#45;calédonie</title>
<path fill="none" stroke="darkgrey" stroke-width="1.66" d="M401.43,-204.76C360.67,-197.06 244.91,-175.2 214.88,-169.53"/>
</g>
<!-- alternative au développement&#45;&#45;économie -->
<g id="edge120" class="edge">
<title>alternative au développement&#45;&#45;économie</title>
<path fill="none" stroke="darkgrey" stroke-width="5.54" d="M229.27,-347.75C232.53,-355.94 236.02,-364.72 238.95,-372.06"/>
</g>
<!-- alternative au développement&#45;&#45;amélioration environnementale -->
<g id="edge121" class="edge">
<title>alternative au développement&#45;&#45;amélioration environnementale</title>
<path fill="none" stroke="darkgrey" stroke-width="4.49" d="M199.11,-298.42C182.4,-279.18 159.17,-252.43 147.43,-238.91"/>
</g>
<!-- alternative au développement&#45;&#45;essor technologique -->
<g id="edge122" class="edge">
<title>alternative au développement&#45;&#45;essor technologique</title>
<path fill="none" stroke="darkgrey" stroke-width="4.34" d="M228.55,-293.21C241.15,-258.57 262.39,-200.17 272.92,-171.21"/>
</g>
<!-- alternative au développement&#45;&#45;nickel -->
<g id="edge119" class="edge">
<title>alternative au développement&#45;&#45;nickel</title>
<path fill="none" stroke="darkgrey" stroke-width="2.12" d="M200.57,-297.77C195.85,-291.72 191.17,-285.73 187.9,-281.54"/>
</g>
<!-- économie&#45;&#45;amélioration environnementale -->
<g id="edge126" class="edge">
<title>économie&#45;&#45;amélioration environnementale</title>
<path fill="none" stroke="darkgrey" stroke-width="1.66" d="M235.57,-373.81C213.97,-341.39 163.94,-266.29 146.3,-239.81"/>
</g>
<!-- économie&#45;&#45;essor technologique -->
<g id="edge127" class="edge">
<title>économie&#45;&#45;essor technologique</title>
<path fill="none" stroke="darkgrey" stroke-width="1.41" d="M248.28,-370.96C254.52,-327.18 270.4,-215.81 276.66,-171.97"/>
</g>
<!-- amélioration environnementale&#45;&#45;essor technologique -->
<g id="edge128" class="edge">
<title>amélioration environnementale&#45;&#45;essor technologique</title>
<path fill="none" stroke="darkgrey" stroke-width="2.02" d="M150.01,-224.85C173.83,-211.76 234.04,-178.68 263.08,-162.72"/>
</g>
<!-- essor technologique&#45;&#45;matériel -->
<g id="edge129" class="edge">
<title>essor technologique&#45;&#45;matériel</title>
<path fill="none" stroke="darkgrey" stroke-width="1" d="M294.35,-143.78C343.97,-110.73 499.35,-7.25 509.01,-0.81"/>
</g>
<!-- nickel&#45;&#45;économie -->
<g id="edge123" class="edge">
<title>nickel&#45;&#45;économie</title>
<path fill="none" stroke="darkgrey" stroke-width="1.47" d="M186.97,-282.24C196.49,-299.54 222.92,-347.6 236.85,-372.93"/>
</g>
<!-- nickel&#45;&#45;amélioration environnementale -->
<g id="edge124" class="edge">
<title>nickel&#45;&#45;amélioration environnementale</title>
<path fill="none" stroke="darkgrey" stroke-width="1.23" d="M178.46,-270.61C170.97,-262.77 156.75,-247.88 147.85,-238.58"/>
</g>
<!-- nickel&#45;&#45;essor technologique -->
<g id="edge125" class="edge">
<title>nickel&#45;&#45;essor technologique</title>
<path fill="none" stroke="darkgrey" stroke-width="1.08" d="M187.81,-270.27C201.94,-252.28 246.73,-195.24 267.92,-168.26"/>
</g>
<!-- nouvelle&#45;calédonie&#45;&#45;alternative au développement -->
<g id="edge117" class="edge">
<title>nouvelle&#45;calédonie&#45;&#45;alternative au développement</title>
<path fill="none" stroke="darkgrey" stroke-width="2.17" d="M208.21,-175.54C209.68,-196.19 213.89,-255.56 216.46,-291.68"/>
</g>
<!-- nouvelle&#45;calédonie&#45;&#45;économie -->
<g id="edge118" class="edge">
<title>nouvelle&#45;calédonie&#45;&#45;économie</title>
<path fill="none" stroke="darkgrey" stroke-width="1.77" d="M208.95,-175.52C214.25,-206.28 234.72,-325.24 242.6,-370.97"/>
</g>
<!-- exploitation minière&#45;&#45;politique -->
<g id="edge36" class="edge">
<title>exploitation minière&#45;&#45;politique</title>
<path fill="none" stroke="darkgrey" stroke-width="1.14" d="M464.06,-469.6C452.82,-462.56 414.16,-438.32 390.82,-423.69"/>
</g>
<!-- exploitation minière&#45;&#45;secteur nickel -->
<g id="edge37" class="edge">
<title>exploitation minière&#45;&#45;secteur nickel</title>
<path fill="none" stroke="darkgrey" stroke-width="1.38" d="M467.33,-467.8C468.02,-446.59 471.46,-341.57 472.96,-295.47"/>
</g>
<!-- exploitation minière&#45;&#45;pollution -->
<g id="edge38" class="edge">
<title>exploitation minière&#45;&#45;pollution</title>
<path fill="none" stroke="darkgrey" stroke-width="1.16" d="M464.79,-468.65C448.19,-448.55 350.81,-330.62 311.93,-283.54"/>
</g>
<!-- exploitation minière&#45;&#45;ressource minière -->
<g id="edge39" class="edge">
<title>exploitation minière&#45;&#45;ressource minière</title>
<path fill="none" stroke="darkgrey" stroke-width="1.4" d="M463.8,-470.13C446.47,-462.73 367.31,-428.96 327.36,-411.91"/>
</g>
<!-- exploitation minière&#45;&#45;dégradation environnementale -->
<g id="edge40" class="edge">
<title>exploitation minière&#45;&#45;dégradation environnementale</title>
<path fill="none" stroke="darkgrey" d="M465.6,-468.08C455.97,-447.17 405.58,-337.69 379.86,-281.82"/>
</g>
<!-- exploitation minière&#45;&#45;société néo&#45;calédonienne -->
<g id="edge41" class="edge">
<title>exploitation minière&#45;&#45;société néo&#45;calédonienne</title>
<path fill="none" stroke="darkgrey" stroke-width="1.03" d="M466.48,-467.84C461.18,-440.63 428.4,-272.46 418.54,-221.85"/>
</g>
<!-- exploitation minière&#45;&#45;alternative au développement -->
<g id="edge42" class="edge">
<title>exploitation minière&#45;&#45;alternative au développement</title>
<path fill="none" stroke="darkgrey" stroke-width="1.52" d="M464.06,-469.67C441.35,-455.9 301.6,-371.15 243.66,-336.01"/>
</g>
<!-- avenir sans nickel -->
<g id="node1" class="node">
<title>avenir sans nickel</title>
<ellipse fill="#f98e09" stroke="white" stroke-width="0" cx="322.86" cy="-330.68" rx="29" ry="29"/>
<text text-anchor="middle" x="257.36" y="-362.28" font-family="Helvetica,sans-Serif" font-size="8.00" fill="#4d4d4d">avenir sans nickel</text>
</g>
<!-- industrie -->
<g id="node2" class="node">
<title>industrie</title>
<ellipse fill="#08051d" stroke="white" stroke-width="0" cx="170.99" cy="-562.03" rx="3.5" ry="3.5"/>
<text text-anchor="middle" x="148.99" y="-568.13" font-family="Helvetica,sans-Serif" font-size="8.00" fill="#4d4d4d">industrie</text>
</g>
<!-- travail -->
<g id="node3" class="node">
<title>travail</title>
<ellipse fill="#bf3952" stroke="white" stroke-width="0" cx="340.75" cy="-175.03" rx="18" ry="18"/>
<text text-anchor="middle" x="309.75" y="-195.63" font-family="Helvetica,sans-Serif" font-size="8.00" fill="#4d4d4d">travail</text>
</g>
<!-- politique -->
<g id="node4" class="node">
<title>politique</title>
<ellipse fill="#cf4446" stroke="white" stroke-width="0" cx="372.5" cy="-412.2" rx="21.5" ry="21.5"/>
<text text-anchor="middle" x="332.5" y="-436.3" font-family="Helvetica,sans-Serif" font-size="8.00" fill="#4d4d4d">politique</text>
</g>
<!-- secteur nickel -->
<g id="node5" class="node">
<title>secteur nickel</title>
<ellipse fill="#cc4248" stroke="white" stroke-width="0" cx="473.67" cy="-273.7" rx="21.5" ry="21.5"/>
<text text-anchor="middle" x="423.67" y="-297.8" font-family="Helvetica,sans-Serif" font-size="8.00" fill="#4d4d4d">secteur nickel</text>
</g>
<!-- relation politique -->
<g id="node6" class="node">
<title>relation politique</title>
<ellipse fill="#160b39" stroke="white" stroke-width="0" cx="514.42" cy="-375.02" rx="3.5" ry="3.5"/>
<text text-anchor="middle" x="475.92" y="-381.12" font-family="Helvetica,sans-Serif" font-size="8.00" fill="#4d4d4d">relation politique</text>
</g>
<!-- avenir avec nickel -->
<g id="node7" class="node">
<title>avenir avec nickel</title>
<ellipse fill="#550f6d" stroke="white" stroke-width="0" cx="150.26" cy="-371.24" rx="11" ry="11"/>
<text text-anchor="middle" x="102.76" y="-384.84" font-family="Helvetica,sans-Serif" font-size="8.00" fill="#4d4d4d">avenir avec nickel</text>
</g>
<!-- pollution -->
<g id="node8" class="node">
<title>pollution</title>
<ellipse fill="#eb6628" stroke="white" stroke-width="0" cx="295.91" cy="-264.14" rx="25" ry="25"/>
<text text-anchor="middle" x="252.41" y="-241.74" font-family="Helvetica,sans-Serif" font-size="8.00" fill="#4d4d4d">pollution</text>
</g>
<!-- ressource minière -->
<g id="node9" class="node">
<title>ressource minière</title>
<ellipse fill="#f1731d" stroke="white" stroke-width="0" cx="304.15" cy="-402" rx="25" ry="25"/>
<text text-anchor="middle" x="242.65" y="-429.6" font-family="Helvetica,sans-Serif" font-size="8.00" fill="#4d4d4d">ressource minière</text>
</g>
<!-- dégradation environnementale -->
<g id="node10" class="node">
<title>dégradation environnementale</title>
<ellipse fill="#fcffa4" stroke="white" stroke-width="0" cx="364.73" cy="-248.95" rx="36" ry="36"/>
<text text-anchor="middle" x="265.23" y="-215.55" font-family="Helvetica,sans-Serif" font-size="8.00" fill="#4d4d4d">dégradation environnementale</text>
</g>
<!-- nature -->
<g id="node11" class="node">
<title>nature</title>
<ellipse fill="#520e6d" stroke="white" stroke-width="0" cx="223.83" cy="-48.84" rx="11" ry="11"/>
<text text-anchor="middle" x="199.33" y="-62.44" font-family="Helvetica,sans-Serif" font-size="8.00" fill="#4d4d4d">nature</text>
</g>
<!-- société néo&#45;calédonienne -->
<g id="node12" class="node">
<title>société néo&#45;calédonienne</title>
<ellipse fill="#902568" stroke="white" stroke-width="0" cx="415.73" cy="-207.46" rx="14.5" ry="14.5"/>
<text text-anchor="middle" x="455.23" y="-224.56" font-family="Helvetica,sans-Serif" font-size="8.00" fill="#4d4d4d">société néo&#45;calédonienne</text>
</g>
<!-- alternative au développement -->
<g id="node13" class="node">
<title>alternative au développement</title>
<ellipse fill="#fa9008" stroke="white" stroke-width="0" cx="218.52" cy="-320.77" rx="29" ry="29"/>
<text text-anchor="middle" x="127.52" y="-352.37" font-family="Helvetica,sans-Serif" font-size="8.00" fill="#4d4d4d">alternative au développement</text>
</g>
<!-- économie -->
<g id="node14" class="node">
<title>économie</title>
<ellipse fill="#ae305c" stroke="white" stroke-width="0" cx="245.7" cy="-389.02" rx="18" ry="18"/>
<text text-anchor="middle" x="207.2" y="-409.62" font-family="Helvetica,sans-Serif" font-size="8.00" fill="#4d4d4d">économie</text>
</g>
<!-- amélioration environnementale -->
<g id="node15" class="node">
<title>amélioration environnementale</title>
<ellipse fill="#771c6d" stroke="white" stroke-width="0" cx="140" cy="-230.35" rx="11" ry="11"/>
<text text-anchor="middle" x="64.5" y="-243.95" font-family="Helvetica,sans-Serif" font-size="8.00" fill="#4d4d4d">amélioration environnementale</text>
</g>
<!-- essor technologique -->
<g id="node16" class="node">
<title>essor technologique</title>
<ellipse fill="#ad305d" stroke="white" stroke-width="0" cx="279.24" cy="-153.84" rx="18" ry="18"/>
<text text-anchor="middle" x="218.74" y="-138.44" font-family="Helvetica,sans-Serif" font-size="8.00" fill="#4d4d4d">essor technologique</text>
</g>
<!-- nickel -->
<g id="node17" class="node">
<title>nickel</title>
<ellipse fill="#310a5c" stroke="white" stroke-width="0" cx="183.44" cy="-275.83" rx="7" ry="7"/>
<text text-anchor="middle" x="164.44" y="-285.43" font-family="Helvetica,sans-Serif" font-size="8.00" fill="#4d4d4d">nickel</text>
</g>
<!-- nouvelle&#45;calédonie -->
<g id="node18" class="node">
<title>nouvelle&#45;calédonie</title>
<ellipse fill="#310a5c" stroke="white" stroke-width="0" cx="207.69" cy="-168.18" rx="7" ry="7"/>
<text text-anchor="middle" x="161.19" y="-177.78" font-family="Helvetica,sans-Serif" font-size="8.00" fill="#4d4d4d">nouvelle&#45;calédonie</text>
</g>
<!-- matériel -->
<g id="node19" class="node">
<title>matériel</title>
<ellipse fill="#010005" stroke="white" stroke-width="0" cx="509.48" cy="-0.5" rx="0.5" ry="0.5"/>
<text text-anchor="middle" x="491.98" y="-3.6" font-family="Helvetica,sans-Serif" font-size="8.00" fill="#4d4d4d">matériel</text>
</g>
<!-- exploitation minière -->
<g id="node20" class="node">
<title>exploitation minière</title>
<ellipse fill="#0e092b" stroke="white" stroke-width="0" cx="467.21" cy="-471.58" rx="3.5" ry="3.5"/>
<text text-anchor="middle" x="423.21" y="-477.68" font-family="Helvetica,sans-Serif" font-size="8.00" fill="#4d4d4d">exploitation minière</text>
</g>
<!-- risque -->
<g id="node21" class="node">
<title>risque</title>
<ellipse fill="#000004" stroke="white" stroke-width="0" cx="577.66" cy="-783.56" rx="0.5" ry="0.5"/>
<text text-anchor="middle" x="564.16" y="-786.66" font-family="Helvetica,sans-Serif" font-size="8.00" fill="#4d4d4d">risque</text>
</g>
<!-- foncier -->
<g id="node22" class="node">
<title>foncier</title>
<ellipse fill="#010005" stroke="white" stroke-width="0" cx="870.46" cy="-79.85" rx="0.5" ry="0.5"/>
<text text-anchor="middle" x="855.46" y="-82.95" font-family="Helvetica,sans-Serif" font-size="8.00" fill="#4d4d4d">foncier</text>
</g>
<!-- échange commercial -->
<g id="node23" class="node">
<title>échange commercial</title>
<ellipse fill="#02020c" stroke="white" stroke-width="0" cx="909.23" cy="-341.47" rx="0.5" ry="0.5"/>
<text text-anchor="middle" x="865.73" y="-344.57" font-family="Helvetica,sans-Serif" font-size="8.00" fill="#4d4d4d">échange commercial</text>
</g>
</g>
</svg>
