<?xml version="1.0" encoding="UTF-8" standalone="no"?>
<!DOCTYPE svg PUBLIC "-//W3C//DTD SVG 1.1//EN"
 "http://www.w3.org/Graphics/SVG/1.1/DTD/svg11.dtd">
<!-- Generated by graphviz version 2.43.0 (0)
 -->
<!-- Pages: 1 -->
<svg width="944pt" height="468pt"
 viewBox="0.00 0.00 943.82 467.97" xmlns="http://www.w3.org/2000/svg" xmlns:xlink="http://www.w3.org/1999/xlink">
<g id="graph0" class="graph" transform="scale(1 1) rotate(0) translate(4 463.97)">
<polygon fill="white" stroke="transparent" points="-4,4 -4,-463.97 939.82,-463.97 939.82,4 -4,4"/>
<!-- pollution&#45;&#45;dégradation environnementale -->
<g id="edge1" class="edge">
<title>pollution&#45;&#45;dégradation environnementale</title>
<path fill="none" stroke="darkgrey" stroke-width="10" d="M603.42,-143.73C573.55,-147.2 513.43,-154.19 476.01,-158.54"/>
</g>
<!-- pollution&#45;&#45;nouvelle&#45;calédonie -->
<g id="edge2" class="edge">
<title>pollution&#45;&#45;nouvelle&#45;calédonie</title>
<path fill="none" stroke="darkgrey" stroke-width="1.1" d="M610.95,-126.85C588.37,-95.11 536.4,-22.06 525.31,-6.46"/>
</g>
<!-- pollution&#45;&#45;travail -->
<g id="edge3" class="edge">
<title>pollution&#45;&#45;travail</title>
<path fill="none" stroke="darkgrey" stroke-width="6.61" d="M604.35,-147.53C559.95,-162.83 441.23,-203.75 393.12,-220.33"/>
</g>
<!-- pollution&#45;&#45;économie -->
<g id="edge4" class="edge">
<title>pollution&#45;&#45;économie</title>
<path fill="none" stroke="darkgrey" stroke-width="5.35" d="M606.7,-130.91C595.67,-122.91 580.67,-112.02 569.65,-104.03"/>
</g>
<!-- pollution&#45;&#45;nickel -->
<g id="edge5" class="edge">
<title>pollution&#45;&#45;nickel</title>
<path fill="none" stroke="darkgrey" stroke-width="4.72" d="M603.85,-146.14C594.02,-148.67 581.41,-151.9 569.64,-154.92"/>
</g>
<!-- pollution&#45;&#45;ressource minière -->
<g id="edge6" class="edge">
<title>pollution&#45;&#45;ressource minière</title>
<path fill="none" stroke="darkgrey" stroke-width="1.66" d="M604.44,-135.79C571.57,-124.51 500.24,-100.05 473.12,-90.75"/>
</g>
<!-- pollution&#45;&#45;politique -->
<g id="edge7" class="edge">
<title>pollution&#45;&#45;politique</title>
<path fill="none" stroke="darkgrey" stroke-width="2.71" d="M623.58,-159.58C625.08,-172.26 627.06,-189.06 628.46,-200.98"/>
</g>
<!-- pollution&#45;&#45;secteur nickel -->
<g id="edge8" class="edge">
<title>pollution&#45;&#45;secteur nickel</title>
<path fill="none" stroke="darkgrey" stroke-width="2.46" d="M607.75,-153.76C586.91,-172.2 547.53,-207.04 526.77,-225.42"/>
</g>
<!-- pollution&#45;&#45;nature -->
<g id="edge9" class="edge">
<title>pollution&#45;&#45;nature</title>
<path fill="none" stroke="darkgrey" stroke-width="3.44" d="M612.63,-157.57C591.39,-195.91 537.76,-292.73 518.39,-327.68"/>
</g>
<!-- pollution&#45;&#45;exploitation minière -->
<g id="edge10" class="edge">
<title>pollution&#45;&#45;exploitation minière</title>
<path fill="none" stroke="darkgrey" stroke-width="1.76" d="M607.8,-153.89C575.1,-183.26 493.06,-256.92 466.42,-280.84"/>
</g>
<!-- pollution&#45;&#45;alternative au développement -->
<g id="edge11" class="edge">
<title>pollution&#45;&#45;alternative au développement</title>
<path fill="none" stroke="darkgrey" stroke-width="1.56" d="M633.28,-127.81C657.16,-99.89 709.94,-38.19 721.98,-24.11"/>
</g>
<!-- pollution&#45;&#45;matériel -->
<g id="edge12" class="edge">
<title>pollution&#45;&#45;matériel</title>
<path fill="none" stroke="darkgrey" stroke-width="2.54" d="M614.47,-158.42C602.05,-188.23 576.39,-249.82 565.05,-277.05"/>
</g>
<!-- pollution&#45;&#45;industrie -->
<g id="edge13" class="edge">
<title>pollution&#45;&#45;industrie</title>
<path fill="none" stroke="darkgrey" stroke-width="2.28" d="M604.56,-147.86C567.81,-161.43 480.98,-193.46 444.14,-207.05"/>
</g>
<!-- dégradation environnementale&#45;&#45;nouvelle&#45;calédonie -->
<g id="edge14" class="edge">
<title>dégradation environnementale&#45;&#45;nouvelle&#45;calédonie</title>
<path fill="none" stroke="darkgrey" stroke-width="1.24" d="M458.12,-133.19C478.43,-92.71 513.6,-22.63 521.56,-6.76"/>
</g>
<!-- dégradation environnementale&#45;&#45;travail -->
<g id="edge15" class="edge">
<title>dégradation environnementale&#45;&#45;travail</title>
<path fill="none" stroke="darkgrey" stroke-width="7.7" d="M419.44,-184.37C409.3,-193.67 397.75,-204.25 388.64,-212.6"/>
</g>
<!-- dégradation environnementale&#45;&#45;économie -->
<g id="edge16" class="edge">
<title>dégradation environnementale&#45;&#45;économie</title>
<path fill="none" stroke="darkgrey" stroke-width="7.72" d="M471.33,-145.09C492.86,-131.77 521.87,-113.8 539.44,-102.93"/>
</g>
<!-- dégradation environnementale&#45;&#45;nickel -->
<g id="edge17" class="edge">
<title>dégradation environnementale&#45;&#45;nickel</title>
<path fill="none" stroke="darkgrey" stroke-width="9.18" d="M476.07,-162.91C483.31,-163.03 491.02,-163.17 498.38,-163.3"/>
</g>
<!-- dégradation environnementale&#45;&#45;ressource minière -->
<g id="edge18" class="edge">
<title>dégradation environnementale&#45;&#45;ressource minière</title>
<path fill="none" stroke="darkgrey" stroke-width="3.94" d="M451.5,-130.4C454.39,-118.87 457.47,-106.59 459.61,-98.06"/>
</g>
<!-- dégradation environnementale&#45;&#45;politique -->
<g id="edge19" class="edge">
<title>dégradation environnementale&#45;&#45;politique</title>
<path fill="none" stroke="darkgrey" stroke-width="3.98" d="M474.75,-171.27C515.86,-183.04 586.37,-203.22 616.22,-211.77"/>
</g>
<!-- dégradation environnementale&#45;&#45;secteur nickel -->
<g id="edge20" class="edge">
<title>dégradation environnementale&#45;&#45;secteur nickel</title>
<path fill="none" stroke="darkgrey" stroke-width="3.77" d="M465.92,-186.51C477.38,-198.86 490.89,-213.44 500.52,-223.83"/>
</g>
<!-- dégradation environnementale&#45;&#45;nature -->
<g id="edge21" class="edge">
<title>dégradation environnementale&#45;&#45;nature</title>
<path fill="none" stroke="darkgrey" stroke-width="5.31" d="M455.15,-192.96C470.07,-232.16 495.27,-298.41 506.09,-326.87"/>
</g>
<!-- dégradation environnementale&#45;&#45;exploitation minière -->
<g id="edge23" class="edge">
<title>dégradation environnementale&#45;&#45;exploitation minière</title>
<path fill="none" stroke="darkgrey" stroke-width="3.6" d="M447.21,-194.81C450.32,-221.96 454.56,-259.1 456.65,-277.38"/>
</g>
<!-- dégradation environnementale&#45;&#45;alternative au développement -->
<g id="edge24" class="edge">
<title>dégradation environnementale&#45;&#45;alternative au développement</title>
<path fill="none" stroke="darkgrey" stroke-width="1.89" d="M472.77,-147.62C539.11,-114.3 697.04,-34.99 721.31,-22.8"/>
</g>
<!-- dégradation environnementale&#45;&#45;matériel -->
<g id="edge25" class="edge">
<title>dégradation environnementale&#45;&#45;matériel</title>
<path fill="none" stroke="darkgrey" stroke-width="4.26" d="M465.31,-186.43C490.5,-214.28 530.86,-258.9 549.46,-279.47"/>
</g>
<!-- dégradation environnementale&#45;&#45;industrie -->
<g id="edge27" class="edge">
<title>dégradation environnementale&#45;&#45;industrie</title>
<path fill="none" stroke="darkgrey" stroke-width="3.11" d="M433.51,-193.46C433.24,-194.29 432.98,-195.11 432.72,-195.92"/>
</g>
<!-- dégradation environnementale&#45;&#45;société néo&#45;calédonienne -->
<g id="edge22" class="edge">
<title>dégradation environnementale&#45;&#45;société néo&#45;calédonienne</title>
<path fill="none" stroke="darkgrey" stroke-width="1.62" d="M455.96,-192.46C483.35,-258.72 547.19,-413.16 557.48,-438.05"/>
</g>
<!-- dégradation environnementale&#45;&#45;foncier -->
<g id="edge26" class="edge">
<title>dégradation environnementale&#45;&#45;foncier</title>
<path fill="none" stroke="darkgrey" stroke-width="1.99" d="M431.34,-192.81C409.9,-246.52 366.88,-354.31 358.69,-374.85"/>
</g>
<!-- dégradation environnementale&#45;&#45;risque -->
<g id="edge28" class="edge">
<title>dégradation environnementale&#45;&#45;risque</title>
<path fill="none" stroke="darkgrey" stroke-width="1.51" d="M410.83,-160.03C328.78,-154.26 119.62,-139.56 106.63,-138.65"/>
</g>
<!-- dégradation environnementale&#45;&#45;échange commercial -->
<g id="edge29" class="edge">
<title>dégradation environnementale&#45;&#45;échange commercial</title>
<path fill="none" stroke="darkgrey" stroke-width="1.8" d="M416.94,-143.01C400.89,-131.34 381.75,-117.43 372.26,-110.53"/>
</g>
<!-- nouvelle&#45;calédonie&#45;&#45;travail -->
<g id="edge30" class="edge">
<title>nouvelle&#45;calédonie&#45;&#45;travail</title>
<path fill="none" stroke="darkgrey" stroke-width="1.32" d="M521.07,-6.67C506.18,-28.78 417.37,-160.71 384.59,-209.41"/>
</g>
<!-- nouvelle&#45;calédonie&#45;&#45;économie -->
<g id="edge31" class="edge">
<title>nouvelle&#45;calédonie&#45;&#45;économie</title>
<path fill="none" stroke="darkgrey" d="M524.4,-6.91C528.36,-18.13 541.17,-54.4 548.88,-76.23"/>
</g>
<!-- nouvelle&#45;calédonie&#45;&#45;nickel -->
<g id="edge32" class="edge">
<title>nouvelle&#45;calédonie&#45;&#45;nickel</title>
<path fill="none" stroke="darkgrey" stroke-width="2.58" d="M523.45,-7.15C524.56,-22.97 529.01,-86.58 531.9,-127.76"/>
</g>
<!-- nouvelle&#45;calédonie&#45;&#45;ressource minière -->
<g id="edge33" class="edge">
<title>nouvelle&#45;calédonie&#45;&#45;ressource minière</title>
<path fill="none" stroke="darkgrey" stroke-width="1.05" d="M520.89,-6.67C512.34,-18.42 482.29,-59.69 468.89,-78.09"/>
</g>
<!-- nouvelle&#45;calédonie&#45;&#45;politique -->
<g id="edge34" class="edge">
<title>nouvelle&#45;calédonie&#45;&#45;politique</title>
<path fill="none" stroke="darkgrey" stroke-width="1.8" d="M524.88,-6.83C536.26,-29.41 602.22,-160.24 623.55,-202.57"/>
</g>
<!-- nouvelle&#45;calédonie&#45;&#45;secteur nickel -->
<g id="edge35" class="edge">
<title>nouvelle&#45;calédonie&#45;&#45;secteur nickel</title>
<path fill="none" stroke="darkgrey" stroke-width="1.35" d="M523.04,-7.17C522,-31.42 516.1,-168.92 513.95,-219.12"/>
</g>
<!-- nouvelle&#45;calédonie&#45;&#45;industrie -->
<g id="edge36" class="edge">
<title>nouvelle&#45;calédonie&#45;&#45;industrie</title>
<path fill="none" stroke="darkgrey" stroke-width="1.21" d="M521.69,-6.8C511.74,-28.54 455.28,-151.86 434.67,-196.88"/>
</g>
<!-- travail&#45;&#45;économie -->
<g id="edge37" class="edge">
<title>travail&#45;&#45;économie</title>
<path fill="none" stroke="darkgrey" stroke-width="7.71" d="M389.94,-214.59C425.8,-188.24 507.06,-128.52 540.32,-104.08"/>
</g>
<!-- travail&#45;&#45;nickel -->
<g id="edge38" class="edge">
<title>travail&#45;&#45;nickel</title>
<path fill="none" stroke="darkgrey" stroke-width="8.1" d="M392.63,-219.54C419.69,-208.93 468.07,-189.96 500.71,-177.17"/>
</g>
<!-- travail&#45;&#45;ressource minière -->
<g id="edge39" class="edge">
<title>travail&#45;&#45;ressource minière</title>
<path fill="none" stroke="darkgrey" stroke-width="3.11" d="M384.2,-209.1C403.62,-178.77 441.72,-119.28 456.4,-96.37"/>
</g>
<!-- travail&#45;&#45;politique -->
<g id="edge40" class="edge">
<title>travail&#45;&#45;politique</title>
<path fill="none" stroke="darkgrey" stroke-width="3.9" d="M393.98,-226.48C445.04,-224.16 572.41,-218.39 615.61,-216.43"/>
</g>
<!-- travail&#45;&#45;secteur nickel -->
<g id="edge41" class="edge">
<title>travail&#45;&#45;secteur nickel</title>
<path fill="none" stroke="darkgrey" stroke-width="4.88" d="M394.12,-228.99C421.72,-230.96 468.92,-234.31 494.82,-236.15"/>
</g>
<!-- travail&#45;&#45;nature -->
<g id="edge42" class="edge">
<title>travail&#45;&#45;nature</title>
<path fill="none" stroke="darkgrey" stroke-width="3.04" d="M389.19,-241.09C417.75,-264.35 475.17,-311.11 499.72,-331.1"/>
</g>
<!-- travail&#45;&#45;exploitation minière -->
<g id="edge44" class="edge">
<title>travail&#45;&#45;exploitation minière</title>
<path fill="none" stroke="darkgrey" stroke-width="2.85" d="M390.15,-240.1C407.95,-252.8 434.7,-271.89 448.67,-281.86"/>
</g>
<!-- travail&#45;&#45;matériel -->
<g id="edge45" class="edge">
<title>travail&#45;&#45;matériel</title>
<path fill="none" stroke="darkgrey" stroke-width="3.48" d="M393.17,-234.44C431.59,-247.4 512.9,-274.81 545.5,-285.8"/>
</g>
<!-- travail&#45;&#45;industrie -->
<g id="edge47" class="edge">
<title>travail&#45;&#45;industrie</title>
<path fill="none" stroke="darkgrey" stroke-width="3.59" d="M393.43,-222.03C398.73,-220.66 404.37,-219.21 409.49,-217.89"/>
</g>
<!-- travail&#45;&#45;société néo&#45;calédonienne -->
<g id="edge43" class="edge">
<title>travail&#45;&#45;société néo&#45;calédonienne</title>
<path fill="none" stroke="darkgrey" stroke-width="1.51" d="M386.76,-243.89C426.84,-289.89 538.39,-417.93 556.42,-438.62"/>
</g>
<!-- travail&#45;&#45;foncier -->
<g id="edge46" class="edge">
<title>travail&#45;&#45;foncier</title>
<path fill="none" stroke="darkgrey" stroke-width="1.07" d="M370.28,-249.06C366.62,-285.55 359.44,-357.11 357.7,-374.43"/>
</g>
<!-- travail&#45;&#45;risque -->
<g id="edge48" class="edge">
<title>travail&#45;&#45;risque</title>
<path fill="none" stroke="darkgrey" stroke-width="1.56" d="M351.98,-220.63C291.53,-200.47 117.35,-142.39 106.52,-138.78"/>
</g>
<!-- travail&#45;&#45;échange commercial -->
<g id="edge49" class="edge">
<title>travail&#45;&#45;échange commercial</title>
<path fill="none" stroke="darkgrey" stroke-width="1.6" d="M371.35,-205.78C369.94,-177.98 367.58,-131.26 366.67,-113.42"/>
</g>
<!-- économie&#45;&#45;nickel -->
<g id="edge50" class="edge">
<title>économie&#45;&#45;nickel</title>
<path fill="none" stroke="darkgrey" stroke-width="6.04" d="M549.86,-110.8C548.22,-116.43 546.35,-122.89 544.48,-129.32"/>
</g>
<!-- économie&#45;&#45;ressource minière -->
<g id="edge51" class="edge">
<title>économie&#45;&#45;ressource minière</title>
<path fill="none" stroke="darkgrey" stroke-width="1.96" d="M536.64,-92.1C517.78,-90.82 488.98,-88.87 473.36,-87.81"/>
</g>
<!-- économie&#45;&#45;politique -->
<g id="edge52" class="edge">
<title>économie&#45;&#45;politique</title>
<path fill="none" stroke="darkgrey" stroke-width="4.43" d="M564.46,-108.85C579.57,-133.43 608.73,-180.85 622.57,-203.35"/>
</g>
<!-- économie&#45;&#45;secteur nickel -->
<g id="edge53" class="edge">
<title>économie&#45;&#45;secteur nickel</title>
<path fill="none" stroke="darkgrey" stroke-width="3.1" d="M549.89,-110.73C541.86,-138.42 526.25,-192.27 518.22,-220.01"/>
</g>
<!-- économie&#45;&#45;nature -->
<g id="edge54" class="edge">
<title>économie&#45;&#45;nature</title>
<path fill="none" stroke="darkgrey" stroke-width="2.35" d="M551.78,-111.12C543.54,-157.83 521.37,-283.38 513.83,-326.08"/>
</g>
<!-- économie&#45;&#45;exploitation minière -->
<g id="edge55" class="edge">
<title>économie&#45;&#45;exploitation minière</title>
<path fill="none" stroke="darkgrey" stroke-width="1.51" d="M546.82,-109.64C527.42,-148.66 478.76,-246.55 462.96,-278.33"/>
</g>
<!-- économie&#45;&#45;alternative au développement -->
<g id="edge56" class="edge">
<title>économie&#45;&#45;alternative au développement</title>
<path fill="none" stroke="darkgrey" stroke-width="1.11" d="M571.49,-86.3C609.82,-69.99 702.75,-30.45 721.24,-22.59"/>
</g>
<!-- économie&#45;&#45;matériel -->
<g id="edge57" class="edge">
<title>économie&#45;&#45;matériel</title>
<path fill="none" stroke="darkgrey" stroke-width="1.87" d="M555.34,-111.54C556.23,-150.34 558.3,-240.54 559.11,-275.91"/>
</g>
<!-- économie&#45;&#45;industrie -->
<g id="edge58" class="edge">
<title>économie&#45;&#45;industrie</title>
<path fill="none" stroke="darkgrey" stroke-width="2.26" d="M541.73,-105.73C517.24,-128.72 465.03,-177.75 440.45,-200.83"/>
</g>
<!-- économie&#45;&#45;échange commercial -->
<g id="edge59" class="edge">
<title>économie&#45;&#45;échange commercial</title>
<path fill="none" stroke="darkgrey" stroke-width="1.3" d="M536.84,-94.58C496.45,-97.33 400.37,-103.88 373.43,-105.72"/>
</g>
<!-- nickel&#45;&#45;ressource minière -->
<g id="edge60" class="edge">
<title>nickel&#45;&#45;ressource minière</title>
<path fill="none" stroke="darkgrey" stroke-width="5.25" d="M509.63,-137.49C495.79,-122.72 479.48,-105.33 470.1,-95.31"/>
</g>
<!-- nickel&#45;&#45;politique -->
<g id="edge61" class="edge">
<title>nickel&#45;&#45;politique</title>
<path fill="none" stroke="darkgrey" stroke-width="2.38" d="M566.32,-181.2C583.74,-190.63 604.34,-201.77 617.34,-208.81"/>
</g>
<!-- nickel&#45;&#45;secteur nickel -->
<g id="edge62" class="edge">
<title>nickel&#45;&#45;secteur nickel</title>
<path fill="none" stroke="darkgrey" stroke-width="6.09" d="M524.42,-198.55C522.26,-206 520.07,-213.56 518.21,-220.02"/>
</g>
<!-- nickel&#45;&#45;nature -->
<g id="edge63" class="edge">
<title>nickel&#45;&#45;nature</title>
<path fill="none" stroke="darkgrey" stroke-width="5.49" d="M529.74,-199.68C524.67,-238.38 516.82,-298.25 513.22,-325.77"/>
</g>
<!-- nickel&#45;&#45;exploitation minière -->
<g id="edge64" class="edge">
<title>nickel&#45;&#45;exploitation minière</title>
<path fill="none" stroke="darkgrey" stroke-width="7.31" d="M515.52,-194.73C498.52,-222.38 474.62,-261.28 463.73,-279"/>
</g>
<!-- nickel&#45;&#45;alternative au développement -->
<g id="edge65" class="edge">
<title>nickel&#45;&#45;alternative au développement</title>
<path fill="none" stroke="darkgrey" stroke-width="1.3" d="M563.29,-142.27C611.05,-106.4 703.09,-37.27 721.29,-23.6"/>
</g>
<!-- nickel&#45;&#45;matériel -->
<g id="edge66" class="edge">
<title>nickel&#45;&#45;matériel</title>
<path fill="none" stroke="darkgrey" stroke-width="5.3" d="M541.46,-199.54C546.46,-224.83 552.92,-257.49 556.58,-276"/>
</g>
<!-- nickel&#45;&#45;industrie -->
<g id="edge68" class="edge">
<title>nickel&#45;&#45;industrie</title>
<path fill="none" stroke="darkgrey" stroke-width="7.97" d="M501.66,-179.03C482.43,-187.88 458.96,-198.68 443.56,-205.77"/>
</g>
<!-- nickel&#45;&#45;foncier -->
<g id="edge67" class="edge">
<title>nickel&#45;&#45;foncier</title>
<path fill="none" stroke="darkgrey" stroke-width="1.83" d="M511.28,-191.97C467.39,-245.07 375.1,-356.76 359.56,-375.56"/>
</g>
<!-- nickel&#45;&#45;échange commercial -->
<g id="edge69" class="edge">
<title>nickel&#45;&#45;échange commercial</title>
<path fill="none" stroke="darkgrey" stroke-width="2.35" d="M500,-152.12C459.27,-138.13 394.31,-115.82 373.19,-108.57"/>
</g>
<!-- ressource minière&#45;&#45;politique -->
<g id="edge70" class="edge">
<title>ressource minière&#45;&#45;politique</title>
<path fill="none" stroke="darkgrey" stroke-width="2.79" d="M471.39,-93.98C499.71,-115.7 586.86,-182.53 618.54,-206.82"/>
</g>
<!-- ressource minière&#45;&#45;secteur nickel -->
<g id="edge71" class="edge">
<title>ressource minière&#45;&#45;secteur nickel</title>
<path fill="none" stroke="darkgrey" stroke-width="1.63" d="M466.02,-97.88C474.71,-123.6 496.67,-188.64 507.27,-220"/>
</g>
<!-- ressource minière&#45;&#45;nature -->
<g id="edge72" class="edge">
<title>ressource minière&#45;&#45;nature</title>
<path fill="none" stroke="darkgrey" stroke-width="1.6" d="M464.47,-97.95C472.27,-138.41 499.62,-280.1 508.48,-326.03"/>
</g>
<!-- ressource minière&#45;&#45;exploitation minière -->
<g id="edge73" class="edge">
<title>ressource minière&#45;&#45;exploitation minière</title>
<path fill="none" stroke="darkgrey" stroke-width="2.23" d="M462.12,-98.17C461.34,-133.3 458.95,-241.71 458.17,-277.14"/>
</g>
<!-- ressource minière&#45;&#45;matériel -->
<g id="edge74" class="edge">
<title>ressource minière&#45;&#45;matériel</title>
<path fill="none" stroke="darkgrey" stroke-width="1.65" d="M467.18,-97.15C483.25,-130.82 535.04,-239.36 553.13,-277.28"/>
</g>
<!-- ressource minière&#45;&#45;industrie -->
<g id="edge75" class="edge">
<title>ressource minière&#45;&#45;industrie</title>
<path fill="none" stroke="darkgrey" stroke-width="2.22" d="M459.36,-97.82C453.27,-119.65 439.42,-169.3 432.02,-195.83"/>
</g>
<!-- ressource minière&#45;&#45;échange commercial -->
<g id="edge76" class="edge">
<title>ressource minière&#45;&#45;échange commercial</title>
<path fill="none" stroke="darkgrey" stroke-width="1.23" d="M451.34,-89.26C431.44,-93.22 390,-101.48 373.41,-104.79"/>
</g>
<!-- politique&#45;&#45;secteur nickel -->
<g id="edge77" class="edge">
<title>politique&#45;&#45;secteur nickel</title>
<path fill="none" stroke="darkgrey" stroke-width="2.88" d="M615.86,-218.43C594.49,-222.39 554.35,-229.82 531.08,-234.13"/>
</g>
<!-- politique&#45;&#45;nature -->
<g id="edge78" class="edge">
<title>politique&#45;&#45;nature</title>
<path fill="none" stroke="darkgrey" stroke-width="1.13" d="M620.07,-226.41C597.6,-249.98 543.84,-306.37 521.4,-329.91"/>
</g>
<!-- politique&#45;&#45;exploitation minière -->
<g id="edge80" class="edge">
<title>politique&#45;&#45;exploitation minière</title>
<path fill="none" stroke="darkgrey" stroke-width="1.5" d="M616.69,-221.48C583.37,-235.53 497.88,-271.61 468.23,-284.12"/>
</g>
<!-- politique&#45;&#45;alternative au développement -->
<g id="edge81" class="edge">
<title>politique&#45;&#45;alternative au développement</title>
<path fill="none" stroke="darkgrey" stroke-width="1.18" d="M636.54,-202.7C655.69,-163.17 712.34,-46.24 722.8,-24.66"/>
</g>
<!-- politique&#45;&#45;matériel -->
<g id="edge82" class="edge">
<title>politique&#45;&#45;matériel</title>
<path fill="none" stroke="darkgrey" stroke-width="1.01" d="M620.07,-226.48C606.62,-240.69 583.01,-265.62 569.56,-279.82"/>
</g>
<!-- politique&#45;&#45;industrie -->
<g id="edge84" class="edge">
<title>politique&#45;&#45;industrie</title>
<path fill="none" stroke="darkgrey" stroke-width="2.46" d="M615.6,-215.6C579.32,-215.16 485.13,-214.03 445.32,-213.55"/>
</g>
<!-- politique&#45;&#45;société néo&#45;calédonienne -->
<g id="edge79" class="edge">
<title>politique&#45;&#45;société néo&#45;calédonienne</title>
<path fill="none" stroke="darkgrey" stroke-width="1.18" d="M625.75,-229.89C611.48,-275.05 567.44,-414.43 559.98,-438.05"/>
</g>
<!-- politique&#45;&#45;échange commercial -->
<g id="edge85" class="edge">
<title>politique&#45;&#45;échange commercial</title>
<path fill="none" stroke="darkgrey" stroke-width="1.26" d="M616.76,-210.19C568.86,-190.3 407.62,-123.36 372.92,-108.95"/>
</g>
<!-- politique&#45;&#45;relation politique -->
<g id="edge83" class="edge">
<title>politique&#45;&#45;relation politique</title>
<path fill="none" stroke="darkgrey" stroke-width="1.51" d="M644.92,-217.86C703.97,-226.26 921.14,-257.15 934.66,-259.07"/>
</g>
<!-- secteur nickel&#45;&#45;nature -->
<g id="edge86" class="edge">
<title>secteur nickel&#45;&#45;nature</title>
<path fill="none" stroke="darkgrey" stroke-width="1.62" d="M512.82,-255.88C512.46,-275.91 511.88,-307.53 511.55,-325.92"/>
</g>
<!-- secteur nickel&#45;&#45;exploitation minière -->
<g id="edge88" class="edge">
<title>secteur nickel&#45;&#45;exploitation minière</title>
<path fill="none" stroke="darkgrey" stroke-width="1.86" d="M499.79,-249.8C489.32,-259.47 475.08,-272.62 466.2,-280.82"/>
</g>
<!-- secteur nickel&#45;&#45;matériel -->
<g id="edge89" class="edge">
<title>secteur nickel&#45;&#45;matériel</title>
<path fill="none" stroke="darkgrey" stroke-width="2.21" d="M525.08,-251.12C532.79,-259.96 542.7,-271.32 549.9,-279.56"/>
</g>
<!-- secteur nickel&#45;&#45;industrie -->
<g id="edge91" class="edge">
<title>secteur nickel&#45;&#45;industrie</title>
<path fill="none" stroke="darkgrey" stroke-width="5.02" d="M495.75,-232.57C480.83,-228.39 459.44,-222.39 444.52,-218.2"/>
</g>
<!-- secteur nickel&#45;&#45;société néo&#45;calédonienne -->
<g id="edge87" class="edge">
<title>secteur nickel&#45;&#45;société néo&#45;calédonienne</title>
<path fill="none" stroke="darkgrey" stroke-width="1.03" d="M517.14,-255.2C527.22,-300.18 553.32,-416.61 558.13,-438.05"/>
</g>
<!-- secteur nickel&#45;&#45;foncier -->
<g id="edge90" class="edge">
<title>secteur nickel&#45;&#45;foncier</title>
<path fill="none" stroke="darkgrey" stroke-width="1.59" d="M499.6,-249.7C465.24,-280.75 376.3,-361.12 359.93,-375.92"/>
</g>
<!-- secteur nickel&#45;&#45;échange commercial -->
<g id="edge92" class="edge">
<title>secteur nickel&#45;&#45;échange commercial</title>
<path fill="none" stroke="darkgrey" stroke-width="1.77" d="M499.61,-225.34C468.37,-197.42 392.38,-129.5 371.62,-110.95"/>
</g>
<!-- nature&#45;&#45;exploitation minière -->
<g id="edge94" class="edge">
<title>nature&#45;&#45;exploitation minière</title>
<path fill="none" stroke="darkgrey" stroke-width="1.24" d="M500.74,-330.24C490.53,-320.28 475.28,-305.4 466,-296.35"/>
</g>
<!-- nature&#45;&#45;matériel -->
<g id="edge95" class="edge">
<title>nature&#45;&#45;matériel</title>
<path fill="none" stroke="darkgrey" stroke-width="2.96" d="M521.5,-329.91C529.67,-321.43 541.08,-309.58 549.25,-301.1"/>
</g>
<!-- nature&#45;&#45;industrie -->
<g id="edge97" class="edge">
<title>nature&#45;&#45;industrie</title>
<path fill="none" stroke="darkgrey" stroke-width="2.25" d="M503.21,-328.33C487.75,-304.95 453.97,-253.89 437.12,-228.41"/>
</g>
<!-- nature&#45;&#45;société néo&#45;calédonienne -->
<g id="edge93" class="edge">
<title>nature&#45;&#45;société néo&#45;calédonienne</title>
<path fill="none" stroke="darkgrey" stroke-width="1.07" d="M517.51,-353.72C528.6,-377.23 551.19,-425.14 557.33,-438.14"/>
</g>
<!-- nature&#45;&#45;foncier -->
<g id="edge96" class="edge">
<title>nature&#45;&#45;foncier</title>
<path fill="none" stroke="darkgrey" stroke-width="1.19" d="M497.07,-344.01C463.13,-352.33 378.79,-373.01 360.75,-377.43"/>
</g>
<!-- exploitation minière&#45;&#45;matériel -->
<g id="edge99" class="edge">
<title>exploitation minière&#45;&#45;matériel</title>
<path fill="none" stroke="darkgrey" stroke-width="2.44" d="M469.17,-288.69C487.66,-289.06 524.43,-289.8 544.87,-290.21"/>
</g>
<!-- exploitation minière&#45;&#45;industrie -->
<g id="edge100" class="edge">
<title>exploitation minière&#45;&#45;industrie</title>
<path fill="none" stroke="darkgrey" stroke-width="2.69" d="M453.64,-278.02C448.55,-265.6 440,-244.71 433.98,-230.04"/>
</g>
<!-- exploitation minière&#45;&#45;échange commercial -->
<g id="edge101" class="edge">
<title>exploitation minière&#45;&#45;échange commercial</title>
<path fill="none" stroke="darkgrey" stroke-width="1.57" d="M452.87,-278.41C436.21,-245.27 383.35,-140.11 369.6,-112.75"/>
</g>
<!-- matériel&#45;&#45;industrie -->
<g id="edge103" class="edge">
<title>matériel&#45;&#45;industrie</title>
<path fill="none" stroke="darkgrey" stroke-width="3.89" d="M546.76,-283.11C522.44,-268.92 469.33,-237.94 442.83,-222.48"/>
</g>
<!-- matériel&#45;&#45;foncier -->
<g id="edge102" class="edge">
<title>matériel&#45;&#45;foncier</title>
<path fill="none" stroke="darkgrey" stroke-width="1.05" d="M545.87,-296.4C504.62,-314.31 382.27,-367.44 360.61,-376.84"/>
</g>
<!-- matériel&#45;&#45;échange commercial -->
<g id="edge104" class="edge">
<title>matériel&#45;&#45;échange commercial</title>
<path fill="none" stroke="darkgrey" stroke-width="1.44" d="M548.79,-280.34C512.88,-246.07 397.18,-135.66 371.42,-111.08"/>
</g>
<!-- industrie&#45;&#45;échange commercial -->
<g id="edge106" class="edge">
<title>industrie&#45;&#45;échange commercial</title>
<path fill="none" stroke="darkgrey" stroke-width="1.36" d="M418.16,-197.52C404.55,-173.54 379.27,-129.02 369.91,-112.55"/>
</g>
<!-- société néo&#45;calédonienne&#45;&#45;matériel -->
<g id="edge98" class="edge">
<title>société néo&#45;calédonienne&#45;&#45;matériel</title>
<path fill="none" stroke="darkgrey" stroke-width="1.24" d="M558.91,-437.73C558.98,-419.48 559.27,-339.13 559.39,-305.45"/>
</g>
<!-- foncier&#45;&#45;industrie -->
<g id="edge105" class="edge">
<title>foncier&#45;&#45;industrie</title>
<path fill="none" stroke="darkgrey" stroke-width="1.84" d="M358.78,-374.83C366.65,-356.23 404.3,-267.28 420.12,-229.91"/>
</g>
<!-- pollution -->
<g id="node1" class="node">
<title>pollution</title>
<ellipse fill="#a52c60" stroke="white" stroke-width="0" cx="621.46" cy="-141.63" rx="18" ry="18"/>
<text text-anchor="middle" x="646.46" y="-165.63" font-family="Helvetica,sans-Serif" font-size="20.00" fill="#4d4d4d">pollution</text>
</g>
<!-- dégradation environnementale -->
<g id="node2" class="node">
<title>dégradation environnementale</title>
<ellipse fill="#f1ec6d" stroke="white" stroke-width="0" cx="443.5" cy="-162.32" rx="32.5" ry="32.5"/>
<text text-anchor="middle" x="205.5" y="-137.7" font-family="Helvetica,sans-Serif" font-size="26.40" fill="#4d4d4d">dégradation environnementale</text>
</g>
<!-- nouvelle&#45;calédonie -->
<g id="node3" class="node">
<title>nouvelle&#45;calédonie</title>
<ellipse fill="#10092d" stroke="white" stroke-width="0" cx="523.2" cy="-3.5" rx="3.5" ry="3.5"/>
<text text-anchor="middle" x="455.7" y="-11.12" font-family="Helvetica,sans-Serif" font-size="13.60" fill="#4d4d4d">nouvelle&#45;calédonie</text>
</g>
<!-- travail -->
<g id="node4" class="node">
<title>travail</title>
<ellipse fill="#e8602d" stroke="white" stroke-width="0" cx="372.44" cy="-227.45" rx="21.5" ry="21.5"/>
<text text-anchor="middle" x="315.94" y="-255.67" font-family="Helvetica,sans-Serif" font-size="21.60" fill="#4d4d4d">travail</text>
</g>
<!-- économie -->
<g id="node5" class="node">
<title>économie</title>
<ellipse fill="#b1325a" stroke="white" stroke-width="0" cx="554.92" cy="-93.34" rx="18" ry="18"/>
<text text-anchor="middle" x="488.42" y="-59.34" font-family="Helvetica,sans-Serif" font-size="20.00" fill="#4d4d4d">économie</text>
</g>
<!-- nickel -->
<g id="node6" class="node">
<title>nickel</title>
<ellipse fill="#fcffa4" stroke="white" stroke-width="0" cx="534.43" cy="-163.95" rx="36" ry="36"/>
<text text-anchor="middle" x="493.43" y="-105.55" font-family="Helvetica,sans-Serif" font-size="28.00" fill="#4d4d4d">nickel</text>
</g>
<!-- ressource minière -->
<g id="node7" class="node">
<title>ressource minière</title>
<ellipse fill="#5d126e" stroke="white" stroke-width="0" cx="462.36" cy="-87.06" rx="11" ry="11"/>
<text text-anchor="middle" x="375.36" y="-80.62" font-family="Helvetica,sans-Serif" font-size="16.80" fill="#4d4d4d">ressource minière</text>
</g>
<!-- politique -->
<g id="node8" class="node">
<title>politique</title>
<ellipse fill="#932667" stroke="white" stroke-width="0" cx="630.21" cy="-215.77" rx="14.5" ry="14.5"/>
<text text-anchor="middle" x="574.71" y="-235.55" font-family="Helvetica,sans-Serif" font-size="18.40" fill="#4d4d4d">politique</text>
</g>
<!-- secteur nickel -->
<g id="node9" class="node">
<title>secteur nickel</title>
<ellipse fill="#ad305d" stroke="white" stroke-width="0" cx="513.16" cy="-237.45" rx="18" ry="18"/>
<text text-anchor="middle" x="425.66" y="-261.45" font-family="Helvetica,sans-Serif" font-size="20.00" fill="#4d4d4d">secteur nickel</text>
</g>
<!-- nature -->
<g id="node10" class="node">
<title>nature</title>
<ellipse fill="#7d1e6d" stroke="white" stroke-width="0" cx="511.28" cy="-340.52" rx="14.5" ry="14.5"/>
<text text-anchor="middle" x="465.78" y="-360.3" font-family="Helvetica,sans-Serif" font-size="18.40" fill="#4d4d4d">nature</text>
</g>
<!-- exploitation minière -->
<g id="node11" class="node">
<title>exploitation minière</title>
<ellipse fill="#71196e" stroke="white" stroke-width="0" cx="457.92" cy="-288.47" rx="11" ry="11"/>
<text text-anchor="middle" x="362.42" y="-304.03" font-family="Helvetica,sans-Serif" font-size="16.80" fill="#4d4d4d">exploitation minière</text>
</g>
<!-- alternative au développement -->
<g id="node12" class="node">
<title>alternative au développement</title>
<ellipse fill="#08051d" stroke="white" stroke-width="0" cx="724.46" cy="-21.22" rx="3.5" ry="3.5"/>
<text text-anchor="middle" x="617.96" y="-28.84" font-family="Helvetica,sans-Serif" font-size="13.60" fill="#4d4d4d">alternative au développement</text>
</g>
<!-- matériel -->
<g id="node13" class="node">
<title>matériel</title>
<ellipse fill="#88226a" stroke="white" stroke-width="0" cx="559.45" cy="-290.51" rx="14.5" ry="14.5"/>
<text text-anchor="middle" x="505.95" y="-310.29" font-family="Helvetica,sans-Serif" font-size="18.40" fill="#4d4d4d">matériel</text>
</g>
<!-- industrie -->
<g id="node14" class="node">
<title>industrie</title>
<ellipse fill="#ab2f5e" stroke="white" stroke-width="0" cx="427.14" cy="-213.33" rx="18" ry="18"/>
<text text-anchor="middle" x="365.14" y="-179.33" font-family="Helvetica,sans-Serif" font-size="20.00" fill="#4d4d4d">industrie</text>
</g>
<!-- société néo&#45;calédonienne -->
<g id="node15" class="node">
<title>société néo&#45;calédonienne</title>
<ellipse fill="#0c0826" stroke="white" stroke-width="0" cx="558.9" cy="-441.47" rx="3.5" ry="3.5"/>
<text text-anchor="middle" x="468.9" y="-449.09" font-family="Helvetica,sans-Serif" font-size="13.60" fill="#4d4d4d">société néo&#45;calédonienne</text>
</g>
<!-- foncier -->
<g id="node16" class="node">
<title>foncier</title>
<ellipse fill="#160b39" stroke="white" stroke-width="0" cx="357.32" cy="-378.27" rx="3.5" ry="3.5"/>
<text text-anchor="middle" x="330.82" y="-385.89" font-family="Helvetica,sans-Serif" font-size="13.60" fill="#4d4d4d">foncier</text>
</g>
<!-- risque -->
<g id="node17" class="node">
<title>risque</title>
<ellipse fill="#000004" stroke="white" stroke-width="0" cx="105.99" cy="-138.61" rx="0.5" ry="0.5"/>
<text text-anchor="middle" x="123.99" y="-128.51" font-family="Helvetica,sans-Serif" font-size="12.00" fill="#4d4d4d">risque</text>
</g>
<!-- échange commercial -->
<g id="node18" class="node">
<title>échange commercial</title>
<ellipse fill="#290b55" stroke="white" stroke-width="0" cx="366.31" cy="-106.2" rx="7" ry="7"/>
<text text-anchor="middle" x="280.31" y="-104.04" font-family="Helvetica,sans-Serif" font-size="15.20" fill="#4d4d4d">échange commercial</text>
</g>
<!-- relation politique -->
<g id="node19" class="node">
<title>relation politique</title>
<ellipse fill="#030210" stroke="white" stroke-width="0" cx="935.32" cy="-259.16" rx="0.5" ry="0.5"/>
<text text-anchor="middle" x="884.82" y="-263.06" font-family="Helvetica,sans-Serif" font-size="12.00" fill="#4d4d4d">relation politique</text>
</g>
</g>
</svg>
