<?xml version="1.0" encoding="UTF-8" standalone="no"?>
<!DOCTYPE svg PUBLIC "-//W3C//DTD SVG 1.1//EN"
 "http://www.w3.org/Graphics/SVG/1.1/DTD/svg11.dtd">
<!-- Generated by graphviz version 2.43.0 (0)
 -->
<!-- Pages: 1 -->
<svg width="930pt" height="411pt"
 viewBox="0.00 0.00 929.93 411.38" xmlns="http://www.w3.org/2000/svg" xmlns:xlink="http://www.w3.org/1999/xlink">
<g id="graph0" class="graph" transform="scale(1 1) rotate(0) translate(4 407.38)">
<polygon fill="white" stroke="transparent" points="-4,4 -4,-407.38 925.93,-407.38 925.93,4 -4,4"/>
<!-- avenir sans nickel&#45;&#45;travail -->
<g id="edge1" class="edge">
<title>avenir sans nickel&#45;&#45;travail</title>
<path fill="none" stroke="darkgrey" stroke-width="2.93" d="M552.9,-334.12C559.14,-327.97 566.02,-321.21 571.78,-315.55"/>
</g>
<!-- avenir sans nickel&#45;&#45;politique -->
<g id="edge2" class="edge">
<title>avenir sans nickel&#45;&#45;politique</title>
<path fill="none" stroke="darkgrey" stroke-width="3.42" d="M517.02,-333.9C507.69,-324.56 496.5,-313.35 488.06,-304.89"/>
</g>
<!-- avenir sans nickel&#45;&#45;secteur nickel -->
<g id="edge3" class="edge">
<title>avenir sans nickel&#45;&#45;secteur nickel</title>
<path fill="none" stroke="darkgrey" stroke-width="2.74" d="M531.59,-327C526.32,-287.53 516.17,-211.38 511.56,-176.82"/>
</g>
<!-- avenir sans nickel&#45;&#45;avenir avec nickel -->
<g id="edge4" class="edge">
<title>avenir sans nickel&#45;&#45;avenir avec nickel</title>
<path fill="none" stroke="darkgrey" stroke-width="2.67" d="M558.55,-342.99C595.83,-329.08 666.28,-302.8 688.39,-294.55"/>
</g>
<!-- avenir sans nickel&#45;&#45;pollution -->
<g id="edge5" class="edge">
<title>avenir sans nickel&#45;&#45;pollution</title>
<path fill="none" stroke="darkgrey" stroke-width="5.27" d="M517.75,-333.24C493.8,-307.32 450.76,-260.71 428.16,-236.24"/>
</g>
<!-- avenir sans nickel&#45;&#45;ressource minière -->
<g id="edge6" class="edge">
<title>avenir sans nickel&#45;&#45;ressource minière</title>
<path fill="none" stroke="darkgrey" stroke-width="5.35" d="M550.37,-332.07C575.02,-300.6 622.94,-239.42 647.62,-207.91"/>
</g>
<!-- avenir sans nickel&#45;&#45;dégradation environnementale -->
<g id="edge7" class="edge">
<title>avenir sans nickel&#45;&#45;dégradation environnementale</title>
<path fill="none" stroke="darkgrey" stroke-width="5.98" d="M524.51,-328.98C514.29,-306.5 498.57,-271.93 486.99,-246.47"/>
</g>
<!-- avenir sans nickel&#45;&#45;société néo&#45;calédonienne -->
<g id="edge8" class="edge">
<title>avenir sans nickel&#45;&#45;société néo&#45;calédonienne</title>
<path fill="none" stroke="darkgrey" stroke-width="2.63" d="M521.03,-330.93C490.9,-285.55 420.45,-179.44 399.17,-147.39"/>
</g>
<!-- avenir sans nickel&#45;&#45;alternative au développement -->
<g id="edge9" class="edge">
<title>avenir sans nickel&#45;&#45;alternative au développement</title>
<path fill="none" stroke="darkgrey" stroke-width="4.27" d="M535.02,-326.77C535.26,-280.28 535.77,-181.16 536,-134.5"/>
</g>
<!-- avenir sans nickel&#45;&#45;économie -->
<g id="edge10" class="edge">
<title>avenir sans nickel&#45;&#45;économie</title>
<path fill="none" stroke="darkgrey" stroke-width="2.24" d="M536.81,-326.71C538.5,-304.56 540.9,-273.01 542.29,-254.7"/>
</g>
<!-- avenir sans nickel&#45;&#45;amélioration environnementale -->
<g id="edge11" class="edge">
<title>avenir sans nickel&#45;&#45;amélioration environnementale</title>
<path fill="none" stroke="darkgrey" stroke-width="1.64" d="M554.49,-335.82C578.89,-315.9 619.53,-282.73 637.23,-268.28"/>
</g>
<!-- travail&#45;&#45;politique -->
<g id="edge12" class="edge">
<title>travail&#45;&#45;politique</title>
<path fill="none" stroke="darkgrey" stroke-width="3.14" d="M566.68,-301.03C546.4,-299.05 513.7,-295.86 493.41,-293.88"/>
</g>
<!-- travail&#45;&#45;secteur nickel -->
<g id="edge13" class="edge">
<title>travail&#45;&#45;secteur nickel</title>
<path fill="none" stroke="darkgrey" stroke-width="3.31" d="M576.38,-286.85C561.85,-259.21 532.15,-202.68 517.59,-174.98"/>
</g>
<!-- travail&#45;&#45;avenir avec nickel -->
<g id="edge14" class="edge">
<title>travail&#45;&#45;avenir avec nickel</title>
<path fill="none" stroke="darkgrey" stroke-width="1.12" d="M602.99,-301.01C627.75,-298.59 670.85,-294.38 687.93,-292.72"/>
</g>
<!-- travail&#45;&#45;pollution -->
<g id="edge15" class="edge">
<title>travail&#45;&#45;pollution</title>
<path fill="none" stroke="darkgrey" stroke-width="4.96" d="M568.32,-294.88C536.57,-279.58 466.93,-246.04 432.89,-229.64"/>
</g>
<!-- travail&#45;&#45;ressource minière -->
<g id="edge16" class="edge">
<title>travail&#45;&#45;ressource minière</title>
<path fill="none" stroke="darkgrey" stroke-width="2.42" d="M595,-287.8C608.78,-267.64 633.34,-231.7 648.91,-208.92"/>
</g>
<!-- travail&#45;&#45;dégradation environnementale -->
<g id="edge17" class="edge">
<title>travail&#45;&#45;dégradation environnementale</title>
<path fill="none" stroke="darkgrey" stroke-width="6.15" d="M570.47,-291.49C552.93,-277.6 522.76,-253.7 500.43,-236.02"/>
</g>
<!-- travail&#45;&#45;société néo&#45;calédonienne -->
<g id="edge18" class="edge">
<title>travail&#45;&#45;société néo&#45;calédonienne</title>
<path fill="none" stroke="darkgrey" stroke-width="3.11" d="M570.96,-290.95C533.69,-258.93 431.71,-171.34 401.51,-145.39"/>
</g>
<!-- travail&#45;&#45;alternative au développement -->
<g id="edge19" class="edge">
<title>travail&#45;&#45;alternative au développement</title>
<path fill="none" stroke="darkgrey" stroke-width="3.46" d="M580.35,-285.27C571.66,-250.66 552.25,-173.41 542.29,-133.75"/>
</g>
<!-- travail&#45;&#45;économie -->
<g id="edge20" class="edge">
<title>travail&#45;&#45;économie</title>
<path fill="none" stroke="darkgrey" stroke-width="3.59" d="M574.75,-287.58C567.58,-276.69 558.05,-262.21 551.39,-252.09"/>
</g>
<!-- travail&#45;&#45;amélioration environnementale -->
<g id="edge21" class="edge">
<title>travail&#45;&#45;amélioration environnementale</title>
<path fill="none" stroke="darkgrey" stroke-width="2.33" d="M599.87,-292.51C611.34,-284.71 626.73,-274.24 636.5,-267.6"/>
</g>
<!-- travail&#45;&#45;essor technologique -->
<g id="edge22" class="edge">
<title>travail&#45;&#45;essor technologique</title>
<path fill="none" stroke="darkgrey" stroke-width="2.6" d="M585.23,-284.74C586.1,-251.69 587.93,-182.05 588.73,-151.71"/>
</g>
<!-- politique&#45;&#45;secteur nickel -->
<g id="edge23" class="edge">
<title>politique&#45;&#45;secteur nickel</title>
<path fill="none" stroke="darkgrey" stroke-width="3.53" d="M479.81,-274.43C486.28,-248.96 498.17,-202.23 504.66,-176.72"/>
</g>
<!-- politique&#45;&#45;avenir avec nickel -->
<g id="edge25" class="edge">
<title>politique&#45;&#45;avenir avec nickel</title>
<path fill="none" stroke="darkgrey" stroke-width="1.02" d="M493.68,-292.1C539.51,-292.08 657.4,-292.02 687.91,-292.01"/>
</g>
<!-- politique&#45;&#45;pollution -->
<g id="edge26" class="edge">
<title>politique&#45;&#45;pollution</title>
<path fill="none" stroke="darkgrey" stroke-width="3.12" d="M463.37,-278.25C453.11,-266.34 438.29,-249.15 427.46,-236.57"/>
</g>
<!-- politique&#45;&#45;ressource minière -->
<g id="edge27" class="edge">
<title>politique&#45;&#45;ressource minière</title>
<path fill="none" stroke="darkgrey" stroke-width="3.6" d="M491.32,-283.24C524.95,-264.62 602.94,-221.43 641.2,-200.25"/>
</g>
<!-- politique&#45;&#45;dégradation environnementale -->
<g id="edge28" class="edge">
<title>politique&#45;&#45;dégradation environnementale</title>
<path fill="none" stroke="darkgrey" stroke-width="4.84" d="M474.54,-273.88C474.24,-266.62 473.87,-258.01 473.52,-249.59"/>
</g>
<!-- politique&#45;&#45;société néo&#45;calédonienne -->
<g id="edge29" class="edge">
<title>politique&#45;&#45;société néo&#45;calédonienne</title>
<path fill="none" stroke="darkgrey" stroke-width="1.9" d="M466.81,-276.2C449.8,-244.38 412.02,-173.7 398.18,-147.81"/>
</g>
<!-- politique&#45;&#45;alternative au développement -->
<g id="edge31" class="edge">
<title>politique&#45;&#45;alternative au développement</title>
<path fill="none" stroke="darkgrey" stroke-width="2.71" d="M481.03,-274.91C491.94,-242.09 515.75,-170.52 528.19,-133.1"/>
</g>
<!-- politique&#45;&#45;économie -->
<g id="edge32" class="edge">
<title>politique&#45;&#45;économie</title>
<path fill="none" stroke="darkgrey" stroke-width="3.32" d="M489.75,-281.05C502.25,-271.48 520.09,-257.83 531.71,-248.93"/>
</g>
<!-- politique&#45;&#45;relation politique -->
<g id="edge24" class="edge">
<title>politique&#45;&#45;relation politique</title>
<path fill="none" stroke="darkgrey" stroke-width="1.26" d="M459.99,-301.66C422.4,-325.11 327.99,-384 319.22,-389.47"/>
</g>
<!-- politique&#45;&#45;nouvelle&#45;calédonie -->
<g id="edge30" class="edge">
<title>politique&#45;&#45;nouvelle&#45;calédonie</title>
<path fill="none" stroke="darkgrey" stroke-width="1.08" d="M481.11,-274.92C500.44,-217.64 561.98,-35.3 571.47,-7.16"/>
</g>
<!-- secteur nickel&#45;&#45;avenir avec nickel -->
<g id="edge33" class="edge">
<title>secteur nickel&#45;&#45;avenir avec nickel</title>
<path fill="none" stroke="darkgrey" stroke-width="1.23" d="M524.09,-169.63C562.54,-197.13 663.85,-269.58 689.33,-287.8"/>
</g>
<!-- secteur nickel&#45;&#45;pollution -->
<g id="edge34" class="edge">
<title>secteur nickel&#45;&#45;pollution</title>
<path fill="none" stroke="darkgrey" stroke-width="3.54" d="M493.79,-168.81C476.86,-179.64 449.69,-197.02 431.69,-208.54"/>
</g>
<!-- secteur nickel&#45;&#45;ressource minière -->
<g id="edge35" class="edge">
<title>secteur nickel&#45;&#45;ressource minière</title>
<path fill="none" stroke="darkgrey" stroke-width="1.96" d="M527.14,-162.37C554.67,-167.57 607.35,-177.54 638.45,-183.42"/>
</g>
<!-- secteur nickel&#45;&#45;dégradation environnementale -->
<g id="edge36" class="edge">
<title>secteur nickel&#45;&#45;dégradation environnementale</title>
<path fill="none" stroke="darkgrey" stroke-width="3.19" d="M499.02,-173.87C496.95,-176.9 494.72,-180.18 492.44,-183.53"/>
</g>
<!-- secteur nickel&#45;&#45;société néo&#45;calédonienne -->
<g id="edge37" class="edge">
<title>secteur nickel&#45;&#45;société néo&#45;calédonienne</title>
<path fill="none" stroke="darkgrey" stroke-width="1.5" d="M491.28,-155.75C466.95,-151.37 424.2,-143.68 404.06,-140.06"/>
</g>
<!-- secteur nickel&#45;&#45;alternative au développement -->
<g id="edge38" class="edge">
<title>secteur nickel&#45;&#45;alternative au développement</title>
<path fill="none" stroke="darkgrey" stroke-width="5.36" d="M517.85,-142.96C519.82,-139.32 521.95,-135.4 524.03,-131.55"/>
</g>
<!-- secteur nickel&#45;&#45;économie -->
<g id="edge40" class="edge">
<title>secteur nickel&#45;&#45;économie</title>
<path fill="none" stroke="darkgrey" stroke-width="2.14" d="M516.27,-175.75C522.62,-190.76 531.8,-212.49 537.69,-226.42"/>
</g>
<!-- secteur nickel&#45;&#45;amélioration environnementale -->
<g id="edge41" class="edge">
<title>secteur nickel&#45;&#45;amélioration environnementale</title>
<path fill="none" stroke="darkgrey" stroke-width="2.74" d="M523.81,-169.91C552.2,-191.13 613.97,-237.3 637.02,-254.53"/>
</g>
<!-- secteur nickel&#45;&#45;essor technologique -->
<g id="edge42" class="edge">
<title>secteur nickel&#45;&#45;essor technologique</title>
<path fill="none" stroke="darkgrey" stroke-width="1.63" d="M526.92,-154.11C541.36,-150.15 561.48,-144.63 574.88,-140.96"/>
</g>
<!-- secteur nickel&#45;&#45;nickel -->
<g id="edge39" class="edge">
<title>secteur nickel&#45;&#45;nickel</title>
<path fill="none" stroke="darkgrey" stroke-width="1.63" d="M494.75,-148.1C456.05,-118.93 351.53,-40.17 332.27,-25.66"/>
</g>
<!-- avenir avec nickel&#45;&#45;ressource minière -->
<g id="edge44" class="edge">
<title>avenir avec nickel&#45;&#45;ressource minière</title>
<path fill="none" stroke="darkgrey" stroke-width="1.04" d="M693.1,-285.19C688.62,-270.65 677.93,-235.99 670.61,-212.27"/>
</g>
<!-- avenir avec nickel&#45;&#45;dégradation environnementale -->
<g id="edge45" class="edge">
<title>avenir avec nickel&#45;&#45;dégradation environnementale</title>
<path fill="none" stroke="darkgrey" stroke-width="2.27" d="M688.28,-289.57C660.98,-279.97 559.68,-244.34 505.96,-225.45"/>
</g>
<!-- avenir avec nickel&#45;&#45;alternative au développement -->
<g id="edge46" class="edge">
<title>avenir avec nickel&#45;&#45;alternative au développement</title>
<path fill="none" stroke="darkgrey" stroke-width="1.83" d="M690.27,-286.33C669.4,-262.35 587.84,-168.64 552.55,-128.09"/>
</g>
<!-- avenir avec nickel&#45;&#45;économie -->
<g id="edge47" class="edge">
<title>avenir avec nickel&#45;&#45;économie</title>
<path fill="none" stroke="darkgrey" stroke-width="1.64" d="M688.29,-289.63C664.97,-281.64 588.96,-255.58 557.37,-244.75"/>
</g>
<!-- avenir avec nickel&#45;&#45;amélioration environnementale -->
<g id="edge48" class="edge">
<title>avenir avec nickel&#45;&#45;amélioration environnementale</title>
<path fill="none" stroke="darkgrey" stroke-width="2.37" d="M689.16,-288.23C680.73,-282.95 665.36,-273.34 655.4,-267.11"/>
</g>
<!-- avenir avec nickel&#45;&#45;essor technologique -->
<g id="edge49" class="edge">
<title>avenir avec nickel&#45;&#45;essor technologique</title>
<path fill="none" stroke="darkgrey" stroke-width="1.72" d="M691.18,-286.12C675.58,-263.35 619,-180.7 597.49,-149.29"/>
</g>
<!-- pollution&#45;&#45;ressource minière -->
<g id="edge50" class="edge">
<title>pollution&#45;&#45;ressource minière</title>
<path fill="none" stroke="darkgrey" stroke-width="4.16" d="M435.11,-217.44C481.28,-211.5 588.93,-197.64 637.98,-191.33"/>
</g>
<!-- pollution&#45;&#45;dégradation environnementale -->
<g id="edge51" class="edge">
<title>pollution&#45;&#45;dégradation environnementale</title>
<path fill="none" stroke="darkgrey" stroke-width="10" d="M434.88,-217.77C435.27,-217.73 435.67,-217.68 436.06,-217.64"/>
</g>
<!-- pollution&#45;&#45;société néo&#45;calédonienne -->
<g id="edge53" class="edge">
<title>pollution&#45;&#45;société néo&#45;calédonienne</title>
<path fill="none" stroke="darkgrey" stroke-width="3.21" d="M408.13,-199.08C404.16,-183.1 398.87,-161.81 395.71,-149.07"/>
</g>
<!-- pollution&#45;&#45;alternative au développement -->
<g id="edge54" class="edge">
<title>pollution&#45;&#45;alternative au développement</title>
<path fill="none" stroke="darkgrey" stroke-width="4.43" d="M429.43,-205.73C452.05,-185.28 493.21,-148.04 517.26,-126.29"/>
</g>
<!-- pollution&#45;&#45;économie -->
<g id="edge56" class="edge">
<title>pollution&#45;&#45;économie</title>
<path fill="none" stroke="darkgrey" stroke-width="4.12" d="M434.86,-223.5C461.4,-227.52 505.87,-234.27 528.78,-237.74"/>
</g>
<!-- pollution&#45;&#45;amélioration environnementale -->
<g id="edge57" class="edge">
<title>pollution&#45;&#45;amélioration environnementale</title>
<path fill="none" stroke="darkgrey" stroke-width="1.18" d="M434.85,-224.02C483.08,-232.51 598.68,-252.87 634.89,-259.24"/>
</g>
<!-- pollution&#45;&#45;essor technologique -->
<g id="edge58" class="edge">
<title>pollution&#45;&#45;essor technologique</title>
<path fill="none" stroke="darkgrey" stroke-width="2.4" d="M432.86,-211.02C468.79,-194.02 544.62,-158.12 575.55,-143.48"/>
</g>
<!-- pollution&#45;&#45;nickel -->
<g id="edge55" class="edge">
<title>pollution&#45;&#45;nickel</title>
<path fill="none" stroke="darkgrey" stroke-width="1.61" d="M404.85,-200.28C385.54,-155.11 339.48,-47.39 330.67,-26.79"/>
</g>
<!-- pollution&#45;&#45;nature -->
<g id="edge52" class="edge">
<title>pollution&#45;&#45;nature</title>
<path fill="none" stroke="darkgrey" stroke-width="2.15" d="M392.65,-226.22C359.11,-235.9 294.58,-254.51 273.38,-260.63"/>
</g>
<!-- ressource minière&#45;&#45;dégradation environnementale -->
<g id="edge59" class="edge">
<title>ressource minière&#45;&#45;dégradation environnementale</title>
<path fill="none" stroke="darkgrey" stroke-width="6.37" d="M638.16,-191.41C604.86,-195.84 545.75,-203.7 507.75,-208.75"/>
</g>
<!-- ressource minière&#45;&#45;alternative au développement -->
<g id="edge60" class="edge">
<title>ressource minière&#45;&#45;alternative au développement</title>
<path fill="none" stroke="darkgrey" stroke-width="4.73" d="M641.89,-174.89C618.44,-160.33 580.93,-137.05 557.46,-122.47"/>
</g>
<!-- ressource minière&#45;&#45;économie -->
<g id="edge61" class="edge">
<title>ressource minière&#45;&#45;économie</title>
<path fill="none" stroke="darkgrey" stroke-width="3.31" d="M640.06,-198.09C615.33,-208.81 576.91,-225.45 556.77,-234.18"/>
</g>
<!-- ressource minière&#45;&#45;amélioration environnementale -->
<g id="edge62" class="edge">
<title>ressource minière&#45;&#45;amélioration environnementale</title>
<path fill="none" stroke="darkgrey" stroke-width="1.24" d="M657.41,-212.43C654.4,-225.22 650.85,-240.27 648.51,-250.23"/>
</g>
<!-- ressource minière&#45;&#45;essor technologique -->
<g id="edge63" class="edge">
<title>ressource minière&#45;&#45;essor technologique</title>
<path fill="none" stroke="darkgrey" stroke-width="3.71" d="M642.52,-173.88C629.18,-164.67 612.26,-153.02 601.08,-145.31"/>
</g>
<!-- dégradation environnementale&#45;&#45;société néo&#45;calédonienne -->
<g id="edge65" class="edge">
<title>dégradation environnementale&#45;&#45;société néo&#45;calédonienne</title>
<path fill="none" stroke="darkgrey" stroke-width="2.4" d="M445.68,-188.38C430.24,-173.64 411.75,-155.99 401.28,-146"/>
</g>
<!-- dégradation environnementale&#45;&#45;alternative au développement -->
<g id="edge66" class="edge">
<title>dégradation environnementale&#45;&#45;alternative au développement</title>
<path fill="none" stroke="darkgrey" stroke-width="4.83" d="M490.89,-182.78C501.17,-166.08 513.62,-145.83 522.86,-130.81"/>
</g>
<!-- dégradation environnementale&#45;&#45;économie -->
<g id="edge68" class="edge">
<title>dégradation environnementale&#45;&#45;économie</title>
<path fill="none" stroke="darkgrey" stroke-width="6.21" d="M506.03,-226.12C514.37,-229.2 522.83,-232.34 529.58,-234.84"/>
</g>
<!-- dégradation environnementale&#45;&#45;amélioration environnementale -->
<g id="edge69" class="edge">
<title>dégradation environnementale&#45;&#45;amélioration environnementale</title>
<path fill="none" stroke="darkgrey" stroke-width="2.31" d="M506.78,-223.04C546.83,-234.02 610.31,-251.42 635.31,-258.28"/>
</g>
<!-- dégradation environnementale&#45;&#45;essor technologique -->
<g id="edge70" class="edge">
<title>dégradation environnementale&#45;&#45;essor technologique</title>
<path fill="none" stroke="darkgrey" stroke-width="3.1" d="M502.16,-193.82C526.42,-177.98 559.27,-156.54 576.83,-145.08"/>
</g>
<!-- dégradation environnementale&#45;&#45;nickel -->
<g id="edge67" class="edge">
<title>dégradation environnementale&#45;&#45;nickel</title>
<path fill="none" stroke="darkgrey" stroke-width="1.77" d="M450.31,-184.63C414.42,-136.83 345.26,-44.73 331.58,-26.52"/>
</g>
<!-- dégradation environnementale&#45;&#45;nature -->
<g id="edge64" class="edge">
<title>dégradation environnementale&#45;&#45;nature</title>
<path fill="none" stroke="darkgrey" stroke-width="3.31" d="M436.67,-221.95C386.62,-233.91 298.38,-255 273.28,-260.99"/>
</g>
<!-- société néo&#45;calédonienne&#45;&#45;alternative au développement -->
<g id="edge73" class="edge">
<title>société néo&#45;calédonienne&#45;&#45;alternative au développement</title>
<path fill="none" stroke="darkgrey" stroke-width="2.64" d="M404.2,-135.8C427.21,-131.16 480.15,-120.5 511.53,-114.18"/>
</g>
<!-- société néo&#45;calédonienne&#45;&#45;économie -->
<g id="edge75" class="edge">
<title>société néo&#45;calédonienne&#45;&#45;économie</title>
<path fill="none" stroke="darkgrey" stroke-width="2.41" d="M402.38,-144.43C428.5,-162.12 501.88,-211.83 531.14,-231.65"/>
</g>
<!-- société néo&#45;calédonienne&#45;&#45;nouvelle&#45;calédonie -->
<g id="edge72" class="edge">
<title>société néo&#45;calédonienne&#45;&#45;nouvelle&#45;calédonie</title>
<path fill="none" stroke="darkgrey" d="M402.13,-131.2C435.61,-106.14 550.4,-20.2 569.89,-5.61"/>
</g>
<!-- société néo&#45;calédonienne&#45;&#45;nickel -->
<g id="edge74" class="edge">
<title>société néo&#45;calédonienne&#45;&#45;nickel</title>
<path fill="none" stroke="darkgrey" stroke-width="1.47" d="M387.53,-128.28C374.04,-104.01 339.5,-41.87 331.07,-26.72"/>
</g>
<!-- alternative au développement&#45;&#45;économie -->
<g id="edge79" class="edge">
<title>alternative au développement&#45;&#45;économie</title>
<path fill="none" stroke="darkgrey" stroke-width="5.19" d="M537.54,-134.43C539.04,-161.44 541.38,-203.39 542.6,-225.38"/>
</g>
<!-- alternative au développement&#45;&#45;amélioration environnementale -->
<g id="edge80" class="edge">
<title>alternative au développement&#45;&#45;amélioration environnementale</title>
<path fill="none" stroke="darkgrey" stroke-width="4.06" d="M550.94,-129.72C575.17,-163.26 622.32,-228.52 639.48,-252.27"/>
</g>
<!-- alternative au développement&#45;&#45;essor technologique -->
<g id="edge81" class="edge">
<title>alternative au développement&#45;&#45;essor technologique</title>
<path fill="none" stroke="darkgrey" stroke-width="3.89" d="M558.29,-120.87C564.42,-124.09 570.86,-127.47 576.26,-130.31"/>
</g>
<!-- alternative au développement&#45;&#45;nickel -->
<g id="edge78" class="edge">
<title>alternative au développement&#45;&#45;nickel</title>
<path fill="none" stroke="darkgrey" stroke-width="1.5" d="M512.8,-99.54C463.75,-79.19 352.82,-33.15 332.45,-24.69"/>
</g>
<!-- économie&#45;&#45;amélioration environnementale -->
<g id="edge82" class="edge">
<title>économie&#45;&#45;amélioration environnementale</title>
<path fill="none" stroke="darkgrey" stroke-width="1.01" d="M557.67,-242.91C578.35,-247.2 616.26,-255.04 634.93,-258.91"/>
</g>
<!-- amélioration environnementale&#45;&#45;essor technologique -->
<g id="edge83" class="edge">
<title>amélioration environnementale&#45;&#45;essor technologique</title>
<path fill="none" stroke="darkgrey" stroke-width="1.39" d="M641.28,-251.03C631.05,-228.68 606.59,-175.25 595.18,-150.31"/>
</g>
<!-- relation politique&#45;&#45;économie -->
<g id="edge43" class="edge">
<title>relation politique&#45;&#45;économie</title>
<path fill="none" stroke="darkgrey" stroke-width="1.06" d="M319.21,-389.45C330.47,-381.94 485.84,-278.35 531.12,-248.16"/>
</g>
<!-- nouvelle&#45;calédonie&#45;&#45;alternative au développement -->
<g id="edge76" class="edge">
<title>nouvelle&#45;calédonie&#45;&#45;alternative au développement</title>
<path fill="none" stroke="darkgrey" stroke-width="1.56" d="M571.49,-7.02C567.33,-19.06 553.4,-59.31 544.32,-85.57"/>
</g>
<!-- nouvelle&#45;calédonie&#45;&#45;économie -->
<g id="edge77" class="edge">
<title>nouvelle&#45;calédonie&#45;&#45;économie</title>
<path fill="none" stroke="darkgrey" stroke-width="1.12" d="M572.25,-7.21C569.13,-32.36 551.08,-178.11 545.24,-225.25"/>
</g>
<!-- nature&#45;&#45;société néo&#45;calédonienne -->
<g id="edge71" class="edge">
<title>nature&#45;&#45;société néo&#45;calédonienne</title>
<path fill="none" stroke="darkgrey" stroke-width="1.14" d="M271.57,-257.59C291.08,-238.38 360.9,-169.64 384.84,-146.06"/>
</g>
<!-- avenir sans nickel -->
<g id="node1" class="node">
<title>avenir sans nickel</title>
<ellipse fill="#f78212" stroke="white" stroke-width="0" cx="534.9" cy="-351.82" rx="25" ry="25"/>
<text text-anchor="middle" x="404.9" y="-334.26" font-family="Helvetica,sans-Serif" font-size="23.20" fill="#4d4d4d">avenir sans nickel</text>
</g>
<!-- travail -->
<g id="node2" class="node">
<title>travail</title>
<ellipse fill="#a92e5e" stroke="white" stroke-width="0" cx="584.75" cy="-302.79" rx="18" ry="18"/>
<text text-anchor="middle" x="535.25" y="-290.79" font-family="Helvetica,sans-Serif" font-size="20.00" fill="#4d4d4d">travail</text>
</g>
<!-- politique -->
<g id="node3" class="node">
<title>politique</title>
<ellipse fill="#bd3853" stroke="white" stroke-width="0" cx="475.31" cy="-292.11" rx="18" ry="18"/>
<text text-anchor="middle" x="414.31" y="-280.11" font-family="Helvetica,sans-Serif" font-size="20.00" fill="#4d4d4d">politique</text>
</g>
<!-- secteur nickel -->
<g id="node4" class="node">
<title>secteur nickel</title>
<ellipse fill="#bc3754" stroke="white" stroke-width="0" cx="509.18" cy="-158.97" rx="18" ry="18"/>
<text text-anchor="middle" x="421.68" y="-146.97" font-family="Helvetica,sans-Serif" font-size="20.00" fill="#4d4d4d">secteur nickel</text>
</g>
<!-- avenir avec nickel -->
<g id="node5" class="node">
<title>avenir avec nickel</title>
<ellipse fill="#320a5e" stroke="white" stroke-width="0" cx="695.21" cy="-292.01" rx="7" ry="7"/>
<text text-anchor="middle" x="756.21" y="-303.85" font-family="Helvetica,sans-Serif" font-size="15.20" fill="#4d4d4d">avenir avec nickel</text>
</g>
<!-- pollution -->
<g id="node6" class="node">
<title>pollution</title>
<ellipse fill="#e35933" stroke="white" stroke-width="0" cx="413.39" cy="-220.24" rx="21.5" ry="21.5"/>
<text text-anchor="middle" x="344.89" y="-248.46" font-family="Helvetica,sans-Serif" font-size="21.60" fill="#4d4d4d">pollution</text>
</g>
<!-- ressource minière -->
<g id="node7" class="node">
<title>ressource minière</title>
<ellipse fill="#eb6429" stroke="white" stroke-width="0" cx="663.15" cy="-188.09" rx="25" ry="25"/>
<text text-anchor="middle" x="742.65" y="-220.53" font-family="Helvetica,sans-Serif" font-size="23.20" fill="#4d4d4d">ressource minière</text>
</g>
<!-- dégradation environnementale -->
<g id="node8" class="node">
<title>dégradation environnementale</title>
<ellipse fill="#fcffa4" stroke="white" stroke-width="0" cx="472" cy="-213.51" rx="36" ry="36"/>
<text text-anchor="middle" x="218" y="-186.11" font-family="Helvetica,sans-Serif" font-size="28.00" fill="#4d4d4d">dégradation environnementale</text>
</g>
<!-- société néo&#45;calédonienne -->
<g id="node9" class="node">
<title>société néo&#45;calédonienne</title>
<ellipse fill="#741a6e" stroke="white" stroke-width="0" cx="392.97" cy="-138.06" rx="11" ry="11"/>
<text text-anchor="middle" x="273.47" y="-113.62" font-family="Helvetica,sans-Serif" font-size="16.80" fill="#4d4d4d">société néo&#45;calédonienne</text>
</g>
<!-- alternative au développement -->
<g id="node10" class="node">
<title>alternative au développement</title>
<ellipse fill="#f78410" stroke="white" stroke-width="0" cx="536.13" cy="-109.23" rx="25" ry="25"/>
<text text-anchor="middle" x="334.63" y="-65.67" font-family="Helvetica,sans-Serif" font-size="23.20" fill="#4d4d4d">alternative au développement</text>
</g>
<!-- économie -->
<g id="node11" class="node">
<title>économie</title>
<ellipse fill="#972766" stroke="white" stroke-width="0" cx="543.42" cy="-239.96" rx="14.5" ry="14.5"/>
<text text-anchor="middle" x="483.42" y="-259.74" font-family="Helvetica,sans-Serif" font-size="18.40" fill="#4d4d4d">économie</text>
</g>
<!-- amélioration environnementale -->
<g id="node12" class="node">
<title>amélioration environnementale</title>
<ellipse fill="#59106e" stroke="white" stroke-width="0" cx="645.93" cy="-261.19" rx="11" ry="11"/>
<text text-anchor="middle" x="789.43" y="-254.75" font-family="Helvetica,sans-Serif" font-size="16.80" fill="#4d4d4d">amélioration environnementale</text>
</g>
<!-- essor technologique -->
<g id="node13" class="node">
<title>essor technologique</title>
<ellipse fill="#952667" stroke="white" stroke-width="0" cx="589.11" cy="-137.06" rx="14.5" ry="14.5"/>
<text text-anchor="middle" x="669.11" y="-107.84" font-family="Helvetica,sans-Serif" font-size="18.40" fill="#4d4d4d">essor technologique</text>
</g>
<!-- relation politique -->
<g id="node14" class="node">
<title>relation politique</title>
<ellipse fill="#000004" stroke="white" stroke-width="0" cx="318.57" cy="-389.88" rx="0.5" ry="0.5"/>
<text text-anchor="middle" x="268.07" y="-393.78" font-family="Helvetica,sans-Serif" font-size="12.00" fill="#4d4d4d">relation politique</text>
</g>
<!-- nouvelle&#45;calédonie -->
<g id="node15" class="node">
<title>nouvelle&#45;calédonie</title>
<ellipse fill="#0d0829" stroke="white" stroke-width="0" cx="572.71" cy="-3.5" rx="3.5" ry="3.5"/>
<text text-anchor="middle" x="505.21" y="-11.12" font-family="Helvetica,sans-Serif" font-size="13.60" fill="#4d4d4d">nouvelle&#45;calédonie</text>
</g>
<!-- nickel -->
<g id="node16" class="node">
<title>nickel</title>
<ellipse fill="#0c0826" stroke="white" stroke-width="0" cx="329.2" cy="-23.35" rx="3.5" ry="3.5"/>
<text text-anchor="middle" x="305.7" y="-30.97" font-family="Helvetica,sans-Serif" font-size="13.60" fill="#4d4d4d">nickel</text>
</g>
<!-- nature -->
<g id="node17" class="node">
<title>nature</title>
<ellipse fill="#2d0b59" stroke="white" stroke-width="0" cx="266.45" cy="-262.62" rx="7" ry="7"/>
<text text-anchor="middle" x="234.45" y="-274.46" font-family="Helvetica,sans-Serif" font-size="15.20" fill="#4d4d4d">nature</text>
</g>
</g>
</svg>
