<?xml version="1.0" encoding="UTF-8" standalone="no"?>
<!DOCTYPE svg PUBLIC "-//W3C//DTD SVG 1.1//EN"
 "http://www.w3.org/Graphics/SVG/1.1/DTD/svg11.dtd">
<!-- Generated by graphviz version 2.43.0 (0)
 -->
<!-- Pages: 1 -->
<svg width="351pt" height="339pt"
 viewBox="0.00 0.00 350.92 339.28" xmlns="http://www.w3.org/2000/svg" xmlns:xlink="http://www.w3.org/1999/xlink">
<g id="graph0" class="graph" transform="scale(1 1) rotate(0) translate(4 335.28)">
<polygon fill="white" stroke="transparent" points="-4,4 -4,-335.28 346.92,-335.28 346.92,4 -4,4"/>
<!-- emploi&#45;&#45;pollution -->
<g id="edge1" class="edge">
<title>emploi&#45;&#45;pollution</title>
<path fill="none" stroke="darkgrey" stroke-width="8.49" d="M162.34,-286.81C168.8,-264.46 180.13,-225.2 188.38,-196.64"/>
</g>
<!-- pollution&#45;&#45;épuisable -->
<g id="edge2" class="edge">
<title>pollution&#45;&#45;épuisable</title>
<path fill="none" stroke="darkgrey" stroke-width="10" d="M163.46,-152.34C133.38,-144.14 91.5,-132.74 69.81,-126.83"/>
</g>
<!-- pollution&#45;&#45;impact environnemental -->
<g id="edge3" class="edge">
<title>pollution&#45;&#45;impact environnemental</title>
<path fill="none" stroke="darkgrey" stroke-width="5.24" d="M207.49,-126.67C214.9,-97.89 225.08,-58.38 230.9,-35.79"/>
</g>
<!-- pollution&#45;&#45;démolition -->
<g id="edge4" class="edge">
<title>pollution&#45;&#45;démolition</title>
<path fill="none" stroke="darkgrey" d="M233.29,-171.32C273.24,-182.16 334.2,-198.7 341.67,-200.72"/>
</g>
<!-- emploi -->
<g id="node1" class="node">
<title>emploi</title>
<ellipse fill="#c13a50" stroke="white" stroke-width="0" cx="157.29" cy="-304.28" rx="18" ry="18"/>
<text text-anchor="middle" x="125.29" y="-324.88" font-family="Helvetica,sans-Serif" font-size="8.00" fill="#4d4d4d">emploi</text>
</g>
<!-- pollution -->
<g id="node2" class="node">
<title>pollution</title>
<ellipse fill="#fcffa4" stroke="white" stroke-width="0" cx="198.43" cy="-161.86" rx="36" ry="36"/>
<text text-anchor="middle" x="143.93" y="-200.46" font-family="Helvetica,sans-Serif" font-size="8.00" fill="#4d4d4d">pollution</text>
</g>
<!-- épuisable -->
<g id="node3" class="node">
<title>épuisable</title>
<ellipse fill="#7c1d6d" stroke="white" stroke-width="0" cx="55.5" cy="-122.93" rx="14.5" ry="14.5"/>
<text text-anchor="middle" x="20.5" y="-140.03" font-family="Helvetica,sans-Serif" font-size="8.00" fill="#4d4d4d">épuisable</text>
</g>
<!-- impact environnemental -->
<g id="node4" class="node">
<title>impact environnemental</title>
<ellipse fill="#ab2f5e" stroke="white" stroke-width="0" cx="235.48" cy="-18" rx="18" ry="18"/>
<text text-anchor="middle" x="167.48" y="-38.6" font-family="Helvetica,sans-Serif" font-size="8.00" fill="#4d4d4d">impact environnemental</text>
</g>
<!-- démolition -->
<g id="node5" class="node">
<title>démolition</title>
<ellipse fill="#000004" stroke="white" stroke-width="0" cx="342.42" cy="-200.93" rx="0.5" ry="0.5"/>
<text text-anchor="middle" x="319.92" y="-204.03" font-family="Helvetica,sans-Serif" font-size="8.00" fill="#4d4d4d">démolition</text>
</g>
</g>
</svg>
