<?xml version="1.0" encoding="UTF-8" standalone="no"?>
<!DOCTYPE svg PUBLIC "-//W3C//DTD SVG 1.1//EN"
 "http://www.w3.org/Graphics/SVG/1.1/DTD/svg11.dtd">
<!-- Generated by graphviz version 2.43.0 (0)
 -->
<!-- Pages: 1 -->
<svg width="429pt" height="368pt"
 viewBox="0.00 0.00 428.69 368.00" xmlns="http://www.w3.org/2000/svg" xmlns:xlink="http://www.w3.org/1999/xlink">
<g id="graph0" class="graph" transform="scale(1 1) rotate(0) translate(4 364)">
<polygon fill="white" stroke="transparent" points="-4,4 -4,-364 424.69,-364 424.69,4 -4,4"/>
<!-- pollution&#45;&#45;travail -->
<g id="edge1" class="edge">
<title>pollution&#45;&#45;travail</title>
<path fill="none" stroke="darkgrey" stroke-width="7" d="M229.53,-131.98C251.65,-122.85 280.61,-110.89 297.4,-103.96"/>
</g>
<!-- pollution&#45;&#45;richesse -->
<g id="edge2" class="edge">
<title>pollution&#45;&#45;richesse</title>
<path fill="none" stroke="darkgrey" stroke-width="2.78" d="M224.27,-123.53C245.17,-106.02 273.74,-82.08 287.81,-70.29"/>
</g>
<!-- pollution&#45;&#45;destruction -->
<g id="edge3" class="edge">
<title>pollution&#45;&#45;destruction</title>
<path fill="none" stroke="darkgrey" stroke-width="5.57" d="M169.16,-132.16C143.91,-121.84 109.8,-107.89 95.63,-102.1"/>
</g>
<!-- pollution&#45;&#45;argent -->
<g id="edge4" class="edge">
<title>pollution&#45;&#45;argent</title>
<path fill="none" stroke="darkgrey" stroke-width="2.96" d="M191.32,-112.79C189.21,-104.39 187.13,-96.09 185.71,-90.45"/>
</g>
<!-- pollution&#45;&#45;nickel -->
<g id="edge5" class="edge">
<title>pollution&#45;&#45;nickel</title>
<path fill="none" stroke="darkgrey" stroke-width="8.36" d="M230.17,-155.94C234.61,-157.58 239.19,-159.28 243.68,-160.95"/>
</g>
<!-- pollution&#45;&#45;montagne -->
<g id="edge6" class="edge">
<title>pollution&#45;&#45;montagne</title>
<path fill="none" stroke="darkgrey" stroke-width="1.25" d="M189.42,-175.67C185.46,-188.18 181.26,-201.45 178.8,-209.23"/>
</g>
<!-- pollution&#45;&#45;camion -->
<g id="edge7" class="edge">
<title>pollution&#45;&#45;camion</title>
<path fill="none" stroke="darkgrey" stroke-width="3.19" d="M189.96,-175.91C182.26,-201.92 171.76,-237.32 166.6,-254.74"/>
</g>
<!-- pollution&#45;&#45;économie -->
<g id="edge8" class="edge">
<title>pollution&#45;&#45;économie</title>
<path fill="none" stroke="darkgrey" stroke-width="8.23" d="M224.96,-124.5C232.06,-118.98 239.6,-113.12 246.09,-108.07"/>
</g>
<!-- pollution&#45;&#45;environnement -->
<g id="edge9" class="edge">
<title>pollution&#45;&#45;environnement</title>
<path fill="none" stroke="darkgrey" stroke-width="6.83" d="M218.47,-117.59C230.02,-101.4 244.3,-81.4 253.84,-68.03"/>
</g>
<!-- pollution&#45;&#45;emploi -->
<g id="edge10" class="edge">
<title>pollution&#45;&#45;emploi</title>
<path fill="none" stroke="darkgrey" stroke-width="10" d="M207.93,-113.1C211.72,-99.36 216.02,-83.75 219.23,-72.14"/>
</g>
<!-- pollution&#45;&#45;terre -->
<g id="edge11" class="edge">
<title>pollution&#45;&#45;terre</title>
<path fill="none" stroke="darkgrey" stroke-width="1.54" d="M171.54,-161.93C168.23,-164.01 165.15,-165.95 162.65,-167.52"/>
</g>
<!-- pollution&#45;&#45;usine -->
<g id="edge12" class="edge">
<title>pollution&#45;&#45;usine</title>
<path fill="none" stroke="darkgrey" d="M204.83,-176.51C209.22,-201.83 215.09,-235.67 218.08,-252.91"/>
</g>
<!-- pollution&#45;&#45;exploitation -->
<g id="edge13" class="edge">
<title>pollution&#45;&#45;exploitation</title>
<path fill="none" stroke="darkgrey" stroke-width="1.51" d="M221.98,-167.85C243.22,-189.73 273.76,-221.18 288.1,-235.94"/>
</g>
<!-- pollution&#45;&#45;ressource -->
<g id="edge14" class="edge">
<title>pollution&#45;&#45;ressource</title>
<path fill="none" stroke="darkgrey" stroke-width="1.05" d="M218.51,-170.76C232.67,-190.12 250.83,-214.94 259.03,-226.14"/>
</g>
<!-- pollution&#45;&#45;conflit -->
<g id="edge15" class="edge">
<title>pollution&#45;&#45;conflit</title>
<path fill="none" stroke="darkgrey" stroke-width="1.58" d="M191.37,-112.94C183.17,-80.28 170.95,-31.58 166.49,-13.81"/>
</g>
<!-- pollution&#45;&#45;développement -->
<g id="edge16" class="edge">
<title>pollution&#45;&#45;développement</title>
<path fill="none" stroke="darkgrey" stroke-width="2.76" d="M169.81,-158.58C138.2,-173.71 90.84,-196.37 78.14,-202.45"/>
</g>
<!-- pollution&#45;&#45;déforestation -->
<g id="edge17" class="edge">
<title>pollution&#45;&#45;déforestation</title>
<path fill="none" stroke="darkgrey" stroke-width="2.87" d="M166.63,-144.79C130.89,-145.13 76.72,-145.65 62.19,-145.78"/>
</g>
<!-- travail&#45;&#45;richesse -->
<g id="edge18" class="edge">
<title>travail&#45;&#45;richesse</title>
<path fill="none" stroke="darkgrey" stroke-width="2.41" d="M305.43,-84.81C303.87,-81.09 302.2,-77.12 300.72,-73.6"/>
</g>
<!-- travail&#45;&#45;nickel -->
<g id="edge19" class="edge">
<title>travail&#45;&#45;nickel</title>
<path fill="none" stroke="darkgrey" stroke-width="3.4" d="M305.07,-111.74C301.48,-119.77 296.75,-130.34 292.22,-140.46"/>
</g>
<!-- travail&#45;&#45;économie -->
<g id="edge20" class="edge">
<title>travail&#45;&#45;économie</title>
<path fill="none" stroke="darkgrey" stroke-width="3.49" d="M296.5,-97.19C292.88,-96.92 288.92,-96.61 285.04,-96.32"/>
</g>
<!-- travail&#45;&#45;environnement -->
<g id="edge21" class="edge">
<title>travail&#45;&#45;environnement</title>
<path fill="none" stroke="darkgrey" stroke-width="3.29" d="M300.26,-87.85C293.47,-81.3 284.68,-72.8 277.5,-65.87"/>
</g>
<!-- richesse&#45;&#45;nickel -->
<g id="edge22" class="edge">
<title>richesse&#45;&#45;nickel</title>
<path fill="none" stroke="darkgrey" stroke-width="2.53" d="M294.46,-74.12C291.94,-88.84 287.34,-115.66 283.56,-137.73"/>
</g>
<!-- richesse&#45;&#45;économie -->
<g id="edge23" class="edge">
<title>richesse&#45;&#45;économie</title>
<path fill="none" stroke="darkgrey" stroke-width="2.21" d="M288.35,-70.77C285.53,-73.47 282.24,-76.6 279.01,-79.69"/>
</g>
<!-- richesse&#45;&#45;emploi -->
<g id="edge24" class="edge">
<title>richesse&#45;&#45;emploi</title>
<path fill="none" stroke="darkgrey" stroke-width="1.88" d="M285.36,-61.87C273.9,-60.54 255.74,-58.44 242.15,-56.86"/>
</g>
<!-- argent&#45;&#45;nickel -->
<g id="edge25" class="edge">
<title>argent&#45;&#45;nickel</title>
<path fill="none" stroke="darkgrey" stroke-width="4.22" d="M189.2,-88.37C200.95,-99.7 229.86,-127.58 251.4,-148.36"/>
</g>
<!-- argent&#45;&#45;emploi -->
<g id="edge26" class="edge">
<title>argent&#45;&#45;emploi</title>
<path fill="none" stroke="darkgrey" stroke-width="2.77" d="M189.83,-79.05C194.88,-75.46 202.38,-70.14 209.06,-65.39"/>
</g>
<!-- nickel&#45;&#45;montagne -->
<g id="edge28" class="edge">
<title>nickel&#45;&#45;montagne</title>
<path fill="none" stroke="darkgrey" stroke-width="2.72" d="M244.15,-187.54C222.36,-196.74 195.73,-208 183.45,-213.19"/>
</g>
<!-- nickel&#45;&#45;camion -->
<g id="edge29" class="edge">
<title>nickel&#45;&#45;camion</title>
<path fill="none" stroke="darkgrey" stroke-width="4.83" d="M249.27,-196.17C223.96,-216.57 188.35,-245.25 172.13,-258.32"/>
</g>
<!-- nickel&#45;&#45;économie -->
<g id="edge30" class="edge">
<title>nickel&#45;&#45;économie</title>
<path fill="none" stroke="darkgrey" stroke-width="5.16" d="M271.05,-137.76C269.71,-130.26 268.33,-122.59 267.12,-115.83"/>
</g>
<!-- nickel&#45;&#45;environnement -->
<g id="edge31" class="edge">
<title>nickel&#45;&#45;environnement</title>
<path fill="none" stroke="darkgrey" stroke-width="2.59" d="M273.53,-137.39C271.16,-115.53 268.24,-88.6 266.35,-71.17"/>
</g>
<!-- nickel&#45;&#45;emploi -->
<g id="edge33" class="edge">
<title>nickel&#45;&#45;emploi</title>
<path fill="none" stroke="darkgrey" stroke-width="5.23" d="M262.56,-140.41C252.43,-117.9 239.46,-89.08 231.45,-71.28"/>
</g>
<!-- nickel&#45;&#45;terre -->
<g id="edge34" class="edge">
<title>nickel&#45;&#45;terre</title>
<path fill="none" stroke="darkgrey" stroke-width="1.2" d="M241.19,-172.83C213.94,-172.34 178.84,-171.72 163.89,-171.45"/>
</g>
<!-- nickel&#45;&#45;usine -->
<g id="edge35" class="edge">
<title>nickel&#45;&#45;usine</title>
<path fill="none" stroke="darkgrey" stroke-width="4.9" d="M258.15,-203.88C246.94,-221.55 233.58,-242.63 226.01,-254.56"/>
</g>
<!-- nickel&#45;&#45;exploitation -->
<g id="edge36" class="edge">
<title>nickel&#45;&#45;exploitation</title>
<path fill="none" stroke="darkgrey" stroke-width="1.17" d="M286.66,-208.41C289.05,-217.46 291.45,-226.54 293.23,-233.29"/>
</g>
<!-- nickel&#45;&#45;ressource -->
<g id="edge38" class="edge">
<title>nickel&#45;&#45;ressource</title>
<path fill="none" stroke="darkgrey" stroke-width="1.53" d="M269.02,-208.59C267.52,-214.83 266.11,-220.7 265.08,-225.02"/>
</g>
<!-- nickel&#45;&#45;extraction -->
<g id="edge27" class="edge">
<title>nickel&#45;&#45;extraction</title>
<path fill="none" stroke="darkgrey" stroke-width="1.06" d="M303.46,-198.86C332.38,-227.09 375.76,-269.41 381.07,-274.59"/>
</g>
<!-- nickel&#45;&#45;terre rouge -->
<g id="edge32" class="edge">
<title>nickel&#45;&#45;terre rouge</title>
<path fill="none" stroke="darkgrey" stroke-width="2.15" d="M311.97,-184.76C346.8,-196.15 397.32,-212.67 410.84,-217.09"/>
</g>
<!-- nickel&#45;&#45;sln -->
<g id="edge37" class="edge">
<title>nickel&#45;&#45;sln</title>
<path fill="none" stroke="darkgrey" stroke-width="6.53" d="M312.88,-165.82C344.9,-158.92 389.53,-149.28 406.64,-145.59"/>
</g>
<!-- nickel&#45;&#45;minerai -->
<g id="edge39" class="edge">
<title>nickel&#45;&#45;minerai</title>
<path fill="none" stroke="darkgrey" stroke-width="3.95" d="M276.57,-209.54C275.92,-236.95 275.05,-272.88 274.63,-290.7"/>
</g>
<!-- nickel&#45;&#45;goro -->
<g id="edge40" class="edge">
<title>nickel&#45;&#45;goro</title>
<path fill="none" stroke="darkgrey" stroke-width="1.16" d="M312.74,-165.83C336.94,-160.59 365.57,-154.39 370.72,-153.28"/>
</g>
<!-- montagne&#45;&#45;camion -->
<g id="edge41" class="edge">
<title>montagne&#45;&#45;camion</title>
<path fill="none" stroke="darkgrey" stroke-width="1.12" d="M174.81,-222.91C172.63,-231.05 168.97,-244.73 166.4,-254.35"/>
</g>
<!-- montagne&#45;&#45;terre -->
<g id="edge42" class="edge">
<title>montagne&#45;&#45;terre</title>
<path fill="none" stroke="darkgrey" stroke-width="1.3" d="M173.69,-209.46C169.9,-201 163.38,-186.42 159.59,-177.95"/>
</g>
<!-- camion&#45;&#45;usine -->
<g id="edge44" class="edge">
<title>camion&#45;&#45;usine</title>
<path fill="none" stroke="darkgrey" stroke-width="1.39" d="M174.64,-265.05C184.55,-264.83 198.95,-264.5 208.86,-264.28"/>
</g>
<!-- camion&#45;&#45;caillou -->
<g id="edge43" class="edge">
<title>camion&#45;&#45;caillou</title>
<path fill="none" stroke="darkgrey" stroke-width="1.42" d="M155.58,-273.18C137.71,-291.02 94.87,-333.81 83.8,-344.86"/>
</g>
<!-- économie&#45;&#45;environnement -->
<g id="edge45" class="edge">
<title>économie&#45;&#45;environnement</title>
<path fill="none" stroke="darkgrey" stroke-width="8.96" d="M263.89,-72.97C263.91,-72.5 263.92,-72.03 263.93,-71.56"/>
</g>
<!-- économie&#45;&#45;emploi -->
<g id="edge46" class="edge">
<title>économie&#45;&#45;emploi</title>
<path fill="none" stroke="darkgrey" stroke-width="8.42" d="M247.8,-78.89C244.1,-75.14 240.21,-71.19 236.66,-67.6"/>
</g>
<!-- environnement&#45;&#45;emploi -->
<g id="edge47" class="edge">
<title>environnement&#45;&#45;emploi</title>
<path fill="none" stroke="darkgrey" stroke-width="3.48" d="M246.1,-53.92C244.77,-53.97 243.42,-54.02 242.09,-54.07"/>
</g>
<!-- emploi&#45;&#45;conflit -->
<g id="edge48" class="edge">
<title>emploi&#45;&#45;conflit</title>
<path fill="none" stroke="darkgrey" stroke-width="2.03" d="M209.98,-43.44C197.39,-33.29 179.55,-18.91 170.51,-11.62"/>
</g>
<!-- usine&#45;&#45;minerai -->
<g id="edge49" class="edge">
<title>usine&#45;&#45;minerai</title>
<path fill="none" stroke="darkgrey" stroke-width="2.97" d="M229.47,-270.59C239.45,-277.51 255.07,-288.33 265,-295.22"/>
</g>
<!-- exploitation&#45;&#45;ressource -->
<g id="edge50" class="edge">
<title>exploitation&#45;&#45;ressource</title>
<path fill="none" stroke="darkgrey" stroke-width="2.75" d="M285.75,-240.36C280.66,-238.47 274.66,-236.26 270.16,-234.59"/>
</g>
<!-- exploitation&#45;&#45;minerai -->
<g id="edge51" class="edge">
<title>exploitation&#45;&#45;minerai</title>
<path fill="none" stroke="darkgrey" stroke-width="2.54" d="M292.12,-254.73C288.19,-265.11 282.24,-280.87 278.32,-291.23"/>
</g>
<!-- ressource&#45;&#45;minerai -->
<g id="edge53" class="edge">
<title>ressource&#45;&#45;minerai</title>
<path fill="none" stroke="darkgrey" stroke-width="2.26" d="M264.48,-239.02C266.39,-251.13 270.34,-276.22 272.63,-290.72"/>
</g>
<!-- sln&#45;&#45;goro -->
<g id="edge52" class="edge">
<title>sln&#45;&#45;goro</title>
<path fill="none" stroke="darkgrey" stroke-width="1.37" d="M406.73,-145.56C395.88,-147.88 375.79,-152.19 372.12,-152.97"/>
</g>
<!-- pollution -->
<g id="node1" class="node">
<title>pollution</title>
<ellipse fill="#fac026" stroke="white" stroke-width="0" cx="199.28" cy="-144.48" rx="32.5" ry="32.5"/>
<text text-anchor="middle" x="148.28" y="-114.58" font-family="Helvetica,sans-Serif" font-size="8.00" fill="#4d4d4d">pollution</text>
</g>
<!-- travail -->
<g id="node2" class="node">
<title>travail</title>
<ellipse fill="#9f2a63" stroke="white" stroke-width="0" cx="311.08" cy="-98.31" rx="14.5" ry="14.5"/>
<text text-anchor="middle" x="309.58" y="-115.41" font-family="Helvetica,sans-Serif" font-size="8.00" fill="#4d4d4d">travail</text>
</g>
<!-- richesse -->
<g id="node3" class="node">
<title>richesse</title>
<ellipse fill="#69166e" stroke="white" stroke-width="0" cx="296.34" cy="-63.14" rx="11" ry="11"/>
<text text-anchor="middle" x="302.84" y="-76.74" font-family="Helvetica,sans-Serif" font-size="8.00" fill="#4d4d4d">richesse</text>
</g>
<!-- destruction -->
<g id="node4" class="node">
<title>destruction</title>
<ellipse fill="#380962" stroke="white" stroke-width="0" cx="89.05" cy="-99.41" rx="7" ry="7"/>
<text text-anchor="middle" x="58.55" y="-109.01" font-family="Helvetica,sans-Serif" font-size="8.00" fill="#4d4d4d">destruction</text>
</g>
<!-- argent -->
<g id="node5" class="node">
<title>argent</title>
<ellipse fill="#4f0d6c" stroke="white" stroke-width="0" cx="183.91" cy="-83.26" rx="7" ry="7"/>
<text text-anchor="middle" x="162.91" y="-92.86" font-family="Helvetica,sans-Serif" font-size="8.00" fill="#4d4d4d">argent</text>
</g>
<!-- nickel -->
<g id="node6" class="node">
<title>nickel</title>
<ellipse fill="#fcffa4" stroke="white" stroke-width="0" cx="277.44" cy="-173.47" rx="36" ry="36"/>
<text text-anchor="middle" x="229.44" y="-212.07" font-family="Helvetica,sans-Serif" font-size="8.00" fill="#4d4d4d">nickel</text>
</g>
<!-- montagne -->
<g id="node7" class="node">
<title>montagne</title>
<ellipse fill="#3e0966" stroke="white" stroke-width="0" cx="176.64" cy="-216.06" rx="7" ry="7"/>
<text text-anchor="middle" x="148.14" y="-225.66" font-family="Helvetica,sans-Serif" font-size="8.00" fill="#4d4d4d">montagne</text>
</g>
<!-- camion -->
<g id="node8" class="node">
<title>camion</title>
<ellipse fill="#6d186e" stroke="white" stroke-width="0" cx="163.47" cy="-265.3" rx="11" ry="11"/>
<text text-anchor="middle" x="136.97" y="-278.9" font-family="Helvetica,sans-Serif" font-size="8.00" fill="#4d4d4d">camion</text>
</g>
<!-- économie -->
<g id="node9" class="node">
<title>économie</title>
<ellipse fill="#d44842" stroke="white" stroke-width="0" cx="263.33" cy="-94.66" rx="21.5" ry="21.5"/>
<text text-anchor="middle" x="221.33" y="-75.76" font-family="Helvetica,sans-Serif" font-size="8.00" fill="#4d4d4d">économie</text>
</g>
<!-- environnement -->
<g id="node10" class="node">
<title>environnement</title>
<ellipse fill="#b0315b" stroke="white" stroke-width="0" cx="264.41" cy="-53.22" rx="18" ry="18"/>
<text text-anchor="middle" x="215.41" y="-28.82" font-family="Helvetica,sans-Serif" font-size="8.00" fill="#4d4d4d">environnement</text>
</g>
<!-- emploi -->
<g id="node11" class="node">
<title>emploi</title>
<ellipse fill="#b3325a" stroke="white" stroke-width="0" cx="224.02" cy="-54.76" rx="18" ry="18"/>
<text text-anchor="middle" x="192.02" y="-39.36" font-family="Helvetica,sans-Serif" font-size="8.00" fill="#4d4d4d">emploi</text>
</g>
<!-- terre -->
<g id="node12" class="node">
<title>terre</title>
<ellipse fill="#380962" stroke="white" stroke-width="0" cx="156.62" cy="-171.32" rx="7" ry="7"/>
<text text-anchor="middle" x="140.12" y="-180.92" font-family="Helvetica,sans-Serif" font-size="8.00" fill="#4d4d4d">terre</text>
</g>
<!-- usine -->
<g id="node13" class="node">
<title>usine</title>
<ellipse fill="#540f6d" stroke="white" stroke-width="0" cx="220" cy="-264.03" rx="11" ry="11"/>
<text text-anchor="middle" x="197.5" y="-277.63" font-family="Helvetica,sans-Serif" font-size="8.00" fill="#4d4d4d">usine</text>
</g>
<!-- exploitation -->
<g id="node14" class="node">
<title>exploitation</title>
<ellipse fill="#5a116e" stroke="white" stroke-width="0" cx="296.1" cy="-244.18" rx="11" ry="11"/>
<text text-anchor="middle" x="260.6" y="-257.78" font-family="Helvetica,sans-Serif" font-size="8.00" fill="#4d4d4d">exploitation</text>
</g>
<!-- ressource -->
<g id="node15" class="node">
<title>ressource</title>
<ellipse fill="#470b6a" stroke="white" stroke-width="0" cx="263.38" cy="-232.09" rx="7" ry="7"/>
<text text-anchor="middle" x="236.38" y="-241.69" font-family="Helvetica,sans-Serif" font-size="8.00" fill="#4d4d4d">ressource</text>
</g>
<!-- conflit -->
<g id="node16" class="node">
<title>conflit</title>
<ellipse fill="#380962" stroke="white" stroke-width="0" cx="164.79" cy="-7" rx="7" ry="7"/>
<text text-anchor="middle" x="144.79" y="-16.6" font-family="Helvetica,sans-Serif" font-size="8.00" fill="#4d4d4d">conflit</text>
</g>
<!-- développement -->
<g id="node17" class="node">
<title>développement</title>
<ellipse fill="#060419" stroke="white" stroke-width="0" cx="74.92" cy="-203.99" rx="3.5" ry="3.5"/>
<text text-anchor="middle" x="38.92" y="-210.09" font-family="Helvetica,sans-Serif" font-size="8.00" fill="#4d4d4d">développement</text>
</g>
<!-- déforestation -->
<g id="node18" class="node">
<title>déforestation</title>
<ellipse fill="#10092d" stroke="white" stroke-width="0" cx="58.5" cy="-145.82" rx="3.5" ry="3.5"/>
<text text-anchor="middle" x="27.5" y="-151.92" font-family="Helvetica,sans-Serif" font-size="8.00" fill="#4d4d4d">déforestation</text>
</g>
<!-- extraction -->
<g id="node19" class="node">
<title>extraction</title>
<ellipse fill="#010005" stroke="white" stroke-width="0" cx="381.61" cy="-275.12" rx="0.5" ry="0.5"/>
<text text-anchor="middle" x="360.61" y="-278.22" font-family="Helvetica,sans-Serif" font-size="8.00" fill="#4d4d4d">extraction</text>
</g>
<!-- terre rouge -->
<g id="node20" class="node">
<title>terre rouge</title>
<ellipse fill="#040312" stroke="white" stroke-width="0" cx="414.27" cy="-218.22" rx="3.5" ry="3.5"/>
<text text-anchor="middle" x="388.27" y="-224.32" font-family="Helvetica,sans-Serif" font-size="8.00" fill="#4d4d4d">terre rouge</text>
</g>
<!-- sln -->
<g id="node21" class="node">
<title>sln</title>
<ellipse fill="#3e0966" stroke="white" stroke-width="0" cx="413.69" cy="-144.07" rx="7" ry="7"/>
<text text-anchor="middle" x="400.19" y="-153.67" font-family="Helvetica,sans-Serif" font-size="8.00" fill="#4d4d4d">sln</text>
</g>
<!-- minerai -->
<g id="node22" class="node">
<title>minerai</title>
<ellipse fill="#540f6d" stroke="white" stroke-width="0" cx="274.36" cy="-301.71" rx="11" ry="11"/>
<text text-anchor="middle" x="247.86" y="-315.31" font-family="Helvetica,sans-Serif" font-size="8.00" fill="#4d4d4d">minerai</text>
</g>
<!-- goro -->
<g id="node23" class="node">
<title>goro</title>
<ellipse fill="#000004" stroke="white" stroke-width="0" cx="371.53" cy="-153.1" rx="0.5" ry="0.5"/>
<text text-anchor="middle" x="361.53" y="-156.2" font-family="Helvetica,sans-Serif" font-size="8.00" fill="#4d4d4d">goro</text>
</g>
<!-- caillou -->
<g id="node24" class="node">
<title>caillou</title>
<ellipse fill="#0b0724" stroke="white" stroke-width="0" cx="81.16" cy="-347.5" rx="3.5" ry="3.5"/>
<text text-anchor="middle" x="63.66" y="-353.6" font-family="Helvetica,sans-Serif" font-size="8.00" fill="#4d4d4d">caillou</text>
</g>
</g>
</svg>
