<?xml version="1.0" encoding="UTF-8" standalone="no"?>
<!DOCTYPE svg PUBLIC "-//W3C//DTD SVG 1.1//EN"
 "http://www.w3.org/Graphics/SVG/1.1/DTD/svg11.dtd">
<!-- Generated by graphviz version 2.43.0 (0)
 -->
<!-- Pages: 1 -->
<svg width="1449pt" height="1435pt"
 viewBox="0.00 0.00 1448.76 1435.12" xmlns="http://www.w3.org/2000/svg" xmlns:xlink="http://www.w3.org/1999/xlink">
<g id="graph0" class="graph" transform="scale(1 1) rotate(0) translate(4 1431.12)">
<polygon fill="white" stroke="transparent" points="-4,4 -4,-1431.12 1444.76,-1431.12 1444.76,4 -4,4"/>
<!-- fin&#45;&#45;emploi -->
<g id="edge1" class="edge">
<title>fin&#45;&#45;emploi</title>
<path fill="none" stroke="darkgrey" stroke-width="2.36" d="M761.52,-847.44C720.98,-824.15 595.65,-752.16 551.46,-726.77"/>
</g>
<!-- fin&#45;&#45;pollution -->
<g id="edge2" class="edge">
<title>fin&#45;&#45;pollution</title>
<path fill="none" stroke="darkgrey" stroke-width="3.53" d="M777.46,-840.28C788.95,-786.57 829.13,-598.86 843.65,-531.04"/>
</g>
<!-- fin&#45;&#45;épuisement de la ressource -->
<g id="edge3" class="edge">
<title>fin&#45;&#45;épuisement de la ressource</title>
<path fill="none" stroke="darkgrey" stroke-width="1.63" d="M768.26,-841.44C759.12,-821.36 742.05,-783.85 733.85,-765.84"/>
</g>
<!-- fin&#45;&#45;impact environnemental -->
<g id="edge4" class="edge">
<title>fin&#45;&#45;impact environnemental</title>
<path fill="none" stroke="darkgrey" stroke-width="3.5" d="M785.12,-845C812.94,-819.65 887.87,-751.38 928.34,-714.51"/>
</g>
<!-- fin&#45;&#45;développement -->
<g id="edge5" class="edge">
<title>fin&#45;&#45;développement</title>
<path fill="none" stroke="darkgrey" stroke-width="1.25" d="M783.52,-843.16C799.19,-823.24 830.78,-783.07 844.73,-765.34"/>
</g>
<!-- fin&#45;&#45;économie du pays -->
<g id="edge6" class="edge">
<title>fin&#45;&#45;économie du pays</title>
<path fill="none" stroke="darkgrey" stroke-width="1.18" d="M768.67,-868.25C763.18,-881.27 754.97,-900.72 749.97,-912.55"/>
</g>
<!-- fin&#45;&#45;amélioration environnementale -->
<g id="edge7" class="edge">
<title>fin&#45;&#45;amélioration environnementale</title>
<path fill="none" stroke="darkgrey" stroke-width="1.43" d="M782.25,-842.29C804.32,-807.28 866.65,-708.45 890.84,-670.11"/>
</g>
<!-- fin&#45;&#45;maintien de l’exploitation -->
<g id="edge8" class="edge">
<title>fin&#45;&#45;maintien de l’exploitation</title>
<path fill="none" stroke="darkgrey" stroke-width="1.05" d="M780.12,-868.37C797.06,-908.16 846,-1023.1 855.02,-1044.31"/>
</g>
<!-- emploi&#45;&#45;pollution -->
<g id="edge10" class="edge">
<title>emploi&#45;&#45;pollution</title>
<path fill="none" stroke="darkgrey" stroke-width="5.89" d="M550.94,-707.6C602.12,-673.04 769.1,-560.28 828.07,-520.46"/>
</g>
<!-- emploi&#45;&#45;épuisement de la ressource -->
<g id="edge11" class="edge">
<title>emploi&#45;&#45;épuisement de la ressource</title>
<path fill="none" stroke="darkgrey" stroke-width="1.52" d="M553.68,-721.29C592.95,-728.99 685.92,-747.2 718.06,-753.5"/>
</g>
<!-- emploi&#45;&#45;impact environnemental -->
<g id="edge12" class="edge">
<title>emploi&#45;&#45;impact environnemental</title>
<path fill="none" stroke="darkgrey" stroke-width="6.49" d="M553.85,-716.61C617.57,-712.4 833.06,-698.16 919.16,-692.47"/>
</g>
<!-- emploi&#45;&#45;développement -->
<g id="edge16" class="edge">
<title>emploi&#45;&#45;développement</title>
<path fill="none" stroke="darkgrey" stroke-width="1.24" d="M553.72,-719.99C611.78,-727.13 793.95,-749.5 840.63,-755.24"/>
</g>
<!-- emploi&#45;&#45;économie du pays -->
<g id="edge17" class="edge">
<title>emploi&#45;&#45;économie du pays</title>
<path fill="none" stroke="darkgrey" stroke-width="3.66" d="M548.96,-730.63C588.43,-769.21 705.3,-883.45 737.39,-914.81"/>
</g>
<!-- emploi&#45;&#45;amélioration environnementale -->
<g id="edge18" class="edge">
<title>emploi&#45;&#45;amélioration environnementale</title>
<path fill="none" stroke="darkgrey" stroke-width="4.66" d="M553.68,-714.71C615.61,-703.98 820.91,-668.43 882.79,-657.71"/>
</g>
<!-- emploi&#45;&#45;exploitation -->
<g id="edge9" class="edge">
<title>emploi&#45;&#45;exploitation</title>
<path fill="none" stroke="darkgrey" stroke-width="1.1" d="M517.73,-719.27C485.96,-721.86 421.96,-727.08 405.52,-728.42"/>
</g>
<!-- emploi&#45;&#45;conflit -->
<g id="edge13" class="edge">
<title>emploi&#45;&#45;conflit</title>
<path fill="none" stroke="darkgrey" stroke-width="1.83" d="M554.29,-716.97C575.74,-716 610.46,-714.44 628.06,-713.65"/>
</g>
<!-- emploi&#45;&#45;développement alternatif -->
<g id="edge14" class="edge">
<title>emploi&#45;&#45;développement alternatif</title>
<path fill="none" stroke="darkgrey" stroke-width="1.17" d="M520.12,-726.93C447.54,-769.13 146.82,-943.95 111.83,-964.29"/>
</g>
<!-- emploi&#45;&#45;vision positive de la ressource -->
<g id="edge15" class="edge">
<title>emploi&#45;&#45;vision positive de la ressource</title>
<path fill="none" stroke="darkgrey" stroke-width="1.45" d="M547.79,-731.4C567.46,-753.76 605.81,-797.38 619.5,-812.95"/>
</g>
<!-- emploi&#45;&#45;famille -->
<g id="edge19" class="edge">
<title>emploi&#45;&#45;famille</title>
<path fill="none" stroke="darkgrey" stroke-width="1.69" d="M517.6,-718.43C433.37,-721.37 84.37,-733.53 43.76,-734.94"/>
</g>
<!-- emploi&#45;&#45;développement durable -->
<g id="edge20" class="edge">
<title>emploi&#45;&#45;développement durable</title>
<path fill="none" stroke="darkgrey" stroke-width="1.84" d="M552.52,-710.93C592.46,-694.48 692.64,-653.22 725.17,-639.82"/>
</g>
<!-- emploi&#45;&#45;innovation -->
<g id="edge21" class="edge">
<title>emploi&#45;&#45;innovation</title>
<path fill="none" stroke="darkgrey" stroke-width="1.62" d="M549.77,-706.03C586.39,-675.1 684.81,-591.97 718.28,-563.7"/>
</g>
<!-- emploi&#45;&#45;formation -->
<g id="edge22" class="edge">
<title>emploi&#45;&#45;formation</title>
<path fill="none" stroke="darkgrey" stroke-width="1.52" d="M526.18,-702.31C497.04,-655.58 411.57,-518.5 404.94,-507.86"/>
</g>
<!-- emploi&#45;&#45;automatisation -->
<g id="edge23" class="edge">
<title>emploi&#45;&#45;automatisation</title>
<path fill="none" stroke="darkgrey" stroke-width="1.28" d="M539.93,-700.12C552.67,-645.12 591.15,-479.02 597.37,-452.14"/>
</g>
<!-- pollution&#45;&#45;épuisement de la ressource -->
<g id="edge30" class="edge">
<title>pollution&#45;&#45;épuisement de la ressource</title>
<path fill="none" stroke="darkgrey" stroke-width="4.05" d="M838.1,-528.94C813,-581.2 751.7,-708.88 734.05,-745.63"/>
</g>
<!-- pollution&#45;&#45;impact environnemental -->
<g id="edge33" class="edge">
<title>pollution&#45;&#45;impact environnemental</title>
<path fill="none" stroke="darkgrey" stroke-width="10" d="M861.53,-528.17C880.27,-560.58 915.57,-621.64 937.06,-658.81"/>
</g>
<!-- pollution&#45;&#45;développement -->
<g id="edge38" class="edge">
<title>pollution&#45;&#45;développement</title>
<path fill="none" stroke="darkgrey" stroke-width="3.8" d="M849.2,-531.74C849.78,-585.29 851.1,-708.02 851.5,-745.51"/>
</g>
<!-- pollution&#45;&#45;économie du pays -->
<g id="edge39" class="edge">
<title>pollution&#45;&#45;économie du pays</title>
<path fill="none" stroke="darkgrey" stroke-width="3.83" d="M842.85,-530.87C823.22,-610.03 761.95,-857.02 748.32,-911.96"/>
</g>
<!-- pollution&#45;&#45;amélioration environnementale -->
<g id="edge40" class="edge">
<title>pollution&#45;&#45;amélioration environnementale</title>
<path fill="none" stroke="darkgrey" stroke-width="2.91" d="M857.23,-530.19C867.67,-560.15 885.35,-610.87 894.58,-637.35"/>
</g>
<!-- pollution&#45;&#45;conflit -->
<g id="edge34" class="edge">
<title>pollution&#45;&#45;conflit</title>
<path fill="none" stroke="darkgrey" stroke-width="2.25" d="M831.04,-524C787.62,-566.78 677.99,-674.79 647.2,-705.12"/>
</g>
<!-- pollution&#45;&#45;vision positive de la ressource -->
<g id="edge36" class="edge">
<title>pollution&#45;&#45;vision positive de la ressource</title>
<path fill="none" stroke="darkgrey" stroke-width="1.66" d="M834.2,-526.86C789.15,-589.55 654.66,-776.68 628.83,-812.63"/>
</g>
<!-- pollution&#45;&#45;développement durable -->
<g id="edge43" class="edge">
<title>pollution&#45;&#45;développement durable</title>
<path fill="none" stroke="darkgrey" stroke-width="1.8" d="M832.2,-525.43C807.19,-553.92 761.07,-606.47 743.05,-627"/>
</g>
<!-- pollution&#45;&#45;innovation -->
<g id="edge44" class="edge">
<title>pollution&#45;&#45;innovation</title>
<path fill="none" stroke="darkgrey" stroke-width="2.86" d="M825.64,-515.69C801.09,-525.52 763.24,-540.67 743.18,-548.71"/>
</g>
<!-- pollution&#45;&#45;automatisation -->
<g id="edge47" class="edge">
<title>pollution&#45;&#45;automatisation</title>
<path fill="none" stroke="darkgrey" stroke-width="1.38" d="M824.43,-500.71C766.77,-487.39 625.53,-454.75 601.68,-449.24"/>
</g>
<!-- pollution&#45;&#45;montagne -->
<g id="edge31" class="edge">
<title>pollution&#45;&#45;montagne</title>
<path fill="none" stroke="darkgrey" stroke-width="1.6" d="M849.12,-481.09C849.87,-385.09 852.48,-46.58 852.78,-7.24"/>
</g>
<!-- pollution&#45;&#45;biodiversité -->
<g id="edge32" class="edge">
<title>pollution&#45;&#45;biodiversité</title>
<path fill="none" stroke="darkgrey" stroke-width="2.55" d="M851.89,-481.31C859.39,-417.83 878.83,-253.16 883.14,-216.67"/>
</g>
<!-- pollution&#45;&#45;milieu -->
<g id="edge35" class="edge">
<title>pollution&#45;&#45;milieu</title>
<path fill="none" stroke="darkgrey" stroke-width="1.04" d="M864.3,-486.34C907.67,-429.81 1029.04,-271.6 1046.82,-248.43"/>
</g>
<!-- pollution&#45;&#45;avenir -->
<g id="edge37" class="edge">
<title>pollution&#45;&#45;avenir</title>
<path fill="none" stroke="darkgrey" stroke-width="1.29" d="M873.85,-502.16C951.18,-489.08 1183.84,-449.72 1216.18,-444.26"/>
</g>
<!-- pollution&#45;&#45;revenu -->
<g id="edge41" class="edge">
<title>pollution&#45;&#45;revenu</title>
<path fill="none" stroke="darkgrey" stroke-width="1.5" d="M870.67,-493.63C938.15,-454.08 1141.16,-335.1 1169.38,-318.56"/>
</g>
<!-- pollution&#45;&#45;déclin -->
<g id="edge42" class="edge">
<title>pollution&#45;&#45;déclin</title>
<path fill="none" stroke="darkgrey" stroke-width="1.71" d="M871.63,-516.89C932.37,-545.03 1096.39,-621.02 1131.54,-637.31"/>
</g>
<!-- pollution&#45;&#45;richesse -->
<g id="edge45" class="edge">
<title>pollution&#45;&#45;richesse</title>
<path fill="none" stroke="darkgrey" stroke-width="1.69" d="M864.71,-525.84C915.44,-588.44 1072.31,-781.99 1092.91,-807.42"/>
</g>
<!-- pollution&#45;&#45;santé -->
<g id="edge46" class="edge">
<title>pollution&#45;&#45;santé</title>
<path fill="none" stroke="darkgrey" stroke-width="1.11" d="M836.86,-484.14C788.9,-395.81 614,-73.69 605.83,-58.64"/>
</g>
<!-- épuisement de la ressource&#45;&#45;impact environnemental -->
<g id="edge48" class="edge">
<title>épuisement de la ressource&#45;&#45;impact environnemental</title>
<path fill="none" stroke="darkgrey" stroke-width="4.49" d="M739.82,-752.61C771.75,-743.34 868.06,-715.37 920.39,-700.18"/>
</g>
<!-- épuisement de la ressource&#45;&#45;développement -->
<g id="edge51" class="edge">
<title>épuisement de la ressource&#45;&#45;développement</title>
<path fill="none" stroke="darkgrey" stroke-width="2.58" d="M740.52,-755.77C763.84,-755.94 817.06,-756.33 840.35,-756.51"/>
</g>
<!-- épuisement de la ressource&#45;&#45;économie du pays -->
<g id="edge52" class="edge">
<title>épuisement de la ressource&#45;&#45;économie du pays</title>
<path fill="none" stroke="darkgrey" stroke-width="1.88" d="M730.3,-766.65C733.26,-796.87 741.53,-881.11 744.52,-911.63"/>
</g>
<!-- épuisement de la ressource&#45;&#45;amélioration environnementale -->
<g id="edge53" class="edge">
<title>épuisement de la ressource&#45;&#45;amélioration environnementale</title>
<path fill="none" stroke="darkgrey" stroke-width="1.29" d="M738.93,-749.96C767.25,-733.26 850,-684.47 884.84,-663.92"/>
</g>
<!-- épuisement de la ressource&#45;&#45;conflit -->
<g id="edge49" class="edge">
<title>épuisement de la ressource&#45;&#45;conflit</title>
<path fill="none" stroke="darkgrey" stroke-width="2.07" d="M719.23,-750.97C701.9,-742.8 666.46,-726.08 649.09,-717.89"/>
</g>
<!-- épuisement de la ressource&#45;&#45;vision positive de la ressource -->
<g id="edge50" class="edge">
<title>épuisement de la ressource&#45;&#45;vision positive de la ressource</title>
<path fill="none" stroke="darkgrey" stroke-width="1.07" d="M719.56,-761.5C698.29,-774.28 647.95,-804.55 630.55,-815.01"/>
</g>
<!-- épuisement de la ressource&#45;&#45;innovation -->
<g id="edge54" class="edge">
<title>épuisement de la ressource&#45;&#45;innovation</title>
<path fill="none" stroke="darkgrey" stroke-width="1.34" d="M729.25,-744.56C729.31,-710.4 729.5,-606.98 729.58,-568.65"/>
</g>
<!-- impact environnemental&#45;&#45;développement -->
<g id="edge62" class="edge">
<title>impact environnemental&#45;&#45;développement</title>
<path fill="none" stroke="darkgrey" stroke-width="5.31" d="M924.64,-709.68C902.93,-723.63 875.18,-741.45 860.95,-750.59"/>
</g>
<!-- impact environnemental&#45;&#45;économie du pays -->
<g id="edge63" class="edge">
<title>impact environnemental&#45;&#45;économie du pays</title>
<path fill="none" stroke="darkgrey" stroke-width="4.77" d="M930.7,-717.25C883.41,-769.77 781.59,-882.9 753.14,-914.51"/>
</g>
<!-- impact environnemental&#45;&#45;amélioration environnementale -->
<g id="edge64" class="edge">
<title>impact environnemental&#45;&#45;amélioration environnementale</title>
<path fill="none" stroke="darkgrey" stroke-width="3.06" d="M924.68,-670.29C921.66,-668.32 918.68,-666.39 915.91,-664.59"/>
</g>
<!-- impact environnemental&#45;&#45;maintien de l’exploitation -->
<g id="edge65" class="edge">
<title>impact environnemental&#45;&#45;maintien de l’exploitation</title>
<path fill="none" stroke="darkgrey" stroke-width="1.18" d="M945.5,-725.03C922.51,-808.33 865.78,-1013.94 857.48,-1044"/>
</g>
<!-- impact environnemental&#45;&#45;conflit -->
<g id="edge58" class="edge">
<title>impact environnemental&#45;&#45;conflit</title>
<path fill="none" stroke="darkgrey" stroke-width="4.95" d="M919.19,-692.71C848.15,-697.9 692.99,-709.22 650.18,-712.34"/>
</g>
<!-- impact environnemental&#45;&#45;vision positive de la ressource -->
<g id="edge60" class="edge">
<title>impact environnemental&#45;&#45;vision positive de la ressource</title>
<path fill="none" stroke="darkgrey" stroke-width="2.19" d="M921.31,-703.24C845.93,-732.55 667.91,-801.77 631.2,-816.04"/>
</g>
<!-- impact environnemental&#45;&#45;développement durable -->
<g id="edge68" class="edge">
<title>impact environnemental&#45;&#45;développement durable</title>
<path fill="none" stroke="darkgrey" stroke-width="1.53" d="M919.86,-681.33C868.94,-668.68 777.54,-645.97 746.33,-638.22"/>
</g>
<!-- impact environnemental&#45;&#45;innovation -->
<g id="edge69" class="edge">
<title>impact environnemental&#45;&#45;innovation</title>
<path fill="none" stroke="darkgrey" stroke-width="2.67" d="M924.25,-671.47C874.07,-641.22 776.93,-582.67 742.27,-561.78"/>
</g>
<!-- impact environnemental&#45;&#45;automatisation -->
<g id="edge75" class="edge">
<title>impact environnemental&#45;&#45;automatisation</title>
<path fill="none" stroke="darkgrey" stroke-width="1.62" d="M925.32,-669.9C845.24,-615.68 629.59,-469.68 601.31,-450.53"/>
</g>
<!-- impact environnemental&#45;&#45;milieu -->
<g id="edge59" class="edge">
<title>impact environnemental&#45;&#45;milieu</title>
<path fill="none" stroke="darkgrey" stroke-width="1.45" d="M962.58,-654.84C983.4,-556.27 1041.14,-282.82 1048.28,-249.02"/>
</g>
<!-- impact environnemental&#45;&#45;avenir -->
<g id="edge61" class="edge">
<title>impact environnemental&#45;&#45;avenir</title>
<path fill="none" stroke="darkgrey" stroke-width="1.71" d="M981.5,-665.56C1043.5,-607.84 1195.05,-466.78 1217.2,-446.15"/>
</g>
<!-- impact environnemental&#45;&#45;revenu -->
<g id="edge66" class="edge">
<title>impact environnemental&#45;&#45;revenu</title>
<path fill="none" stroke="darkgrey" stroke-width="2.02" d="M973.31,-658.89C1022.11,-575.1 1153.53,-349.47 1170.77,-319.87"/>
</g>
<!-- impact environnemental&#45;&#45;déclin -->
<g id="edge67" class="edge">
<title>impact environnemental&#45;&#45;déclin</title>
<path fill="none" stroke="darkgrey" stroke-width="2.12" d="M990.01,-680.63C1034.42,-668.58 1108.16,-648.57 1131.16,-642.33"/>
</g>
<!-- impact environnemental&#45;&#45;richesse -->
<g id="edge70" class="edge">
<title>impact environnemental&#45;&#45;richesse</title>
<path fill="none" stroke="darkgrey" stroke-width="2.13" d="M982.47,-713.53C1018.44,-744.38 1078.72,-796.09 1092.36,-807.79"/>
</g>
<!-- impact environnemental&#45;&#45;croissance minière -->
<g id="edge57" class="edge">
<title>impact environnemental&#45;&#45;croissance minière</title>
<path fill="none" stroke="darkgrey" stroke-width="1.91" d="M964.12,-655.11C982.4,-583.86 1022.79,-426.49 1029.3,-401.15"/>
</g>
<!-- impact environnemental&#45;&#45;production -->
<g id="edge71" class="edge">
<title>impact environnemental&#45;&#45;production</title>
<path fill="none" stroke="darkgrey" stroke-width="1.16" d="M990.2,-699.14C1094.21,-726 1396.12,-803.96 1433.46,-813.6"/>
</g>
<!-- impact environnemental&#45;&#45;sentiment négatif -->
<g id="edge72" class="edge">
<title>impact environnemental&#45;&#45;sentiment négatif</title>
<path fill="none" stroke="darkgrey" stroke-width="1.05" d="M970.97,-722.67C1017.43,-818.27 1150.5,-1092.1 1156.71,-1104.88"/>
</g>
<!-- impact environnemental&#45;&#45;main d’oeuvre -->
<g id="edge73" class="edge">
<title>impact environnemental&#45;&#45;main d’oeuvre</title>
<path fill="none" stroke="darkgrey" stroke-width="1.35" d="M985.56,-709.57C1083.2,-772.1 1383.19,-964.21 1397.2,-973.18"/>
</g>
<!-- impact environnemental&#45;&#45;investissement -->
<g id="edge74" class="edge">
<title>impact environnemental&#45;&#45;investissement</title>
<path fill="none" stroke="darkgrey" stroke-width="1.39" d="M977.82,-718.41C1051.77,-810.72 1281.74,-1097.79 1292.48,-1111.19"/>
</g>
<!-- développement&#45;&#45;économie du pays -->
<g id="edge81" class="edge">
<title>développement&#45;&#45;économie du pays</title>
<path fill="none" stroke="darkgrey" stroke-width="2.42" d="M845.62,-766C826.96,-795.27 770.12,-884.42 751.56,-913.55"/>
</g>
<!-- développement&#45;&#45;amélioration environnementale -->
<g id="edge82" class="edge">
<title>développement&#45;&#45;amélioration environnementale</title>
<path fill="none" stroke="darkgrey" stroke-width="2.62" d="M856.49,-746.44C864.96,-728.81 882.46,-692.38 892.69,-671.09"/>
</g>
<!-- développement&#45;&#45;développement durable -->
<g id="edge84" class="edge">
<title>développement&#45;&#45;développement durable</title>
<path fill="none" stroke="darkgrey" stroke-width="1.41" d="M844,-748.65C823.02,-726.77 764.54,-665.78 743.35,-643.67"/>
</g>
<!-- développement&#45;&#45;innovation -->
<g id="edge85" class="edge">
<title>développement&#45;&#45;innovation</title>
<path fill="none" stroke="darkgrey" stroke-width="1.69" d="M845.9,-747.1C825.97,-714.03 759.59,-603.9 737.12,-566.61"/>
</g>
<!-- développement&#45;&#45;déclin -->
<g id="edge83" class="edge">
<title>développement&#45;&#45;déclin</title>
<path fill="none" stroke="darkgrey" stroke-width="1.02" d="M861.82,-752.45C907.69,-733.86 1094.26,-658.24 1131.68,-643.07"/>
</g>
<!-- développement&#45;&#45;richesse -->
<g id="edge86" class="edge">
<title>développement&#45;&#45;richesse</title>
<path fill="none" stroke="darkgrey" stroke-width="1.25" d="M862.4,-758.96C905.66,-768.48 1065.63,-803.69 1091.59,-809.4"/>
</g>
<!-- économie du pays&#45;&#45;amélioration environnementale -->
<g id="edge88" class="edge">
<title>économie du pays&#45;&#45;amélioration environnementale</title>
<path fill="none" stroke="darkgrey" stroke-width="1.14" d="M751.14,-913.31C774.16,-873.46 862.74,-720.16 891.51,-670.36"/>
</g>
<!-- économie du pays&#45;&#45;développement durable -->
<g id="edge89" class="edge">
<title>économie du pays&#45;&#45;développement durable</title>
<path fill="none" stroke="darkgrey" stroke-width="1.15" d="M745.23,-911.6C743.61,-865.64 737.55,-692.55 735.94,-646.73"/>
</g>
<!-- économie du pays&#45;&#45;indépendance -->
<g id="edge87" class="edge">
<title>économie du pays&#45;&#45;indépendance</title>
<path fill="none" stroke="darkgrey" stroke-width="1.11" d="M746.47,-934.06C751.75,-1003.25 779.77,-1371.06 782.82,-1411.08"/>
</g>
<!-- amélioration environnementale&#45;&#45;maintien de l’exploitation -->
<g id="edge91" class="edge">
<title>amélioration environnementale&#45;&#45;maintien de l’exploitation</title>
<path fill="none" stroke="darkgrey" stroke-width="2.17" d="M898.59,-672.54C890.53,-744.33 860.8,-1009.05 856.89,-1043.9"/>
</g>
<!-- amélioration environnementale&#45;&#45;développement durable -->
<g id="edge92" class="edge">
<title>amélioration environnementale&#45;&#45;développement durable</title>
<path fill="none" stroke="darkgrey" stroke-width="3.8" d="M882.62,-652.55C848.37,-648.59 774.66,-640.07 746.66,-636.83"/>
</g>
<!-- amélioration environnementale&#45;&#45;innovation -->
<g id="edge93" class="edge">
<title>amélioration environnementale&#45;&#45;innovation</title>
<path fill="none" stroke="darkgrey" stroke-width="1.82" d="M884.82,-645.36C851.25,-625.63 773.32,-579.83 742.49,-561.72"/>
</g>
<!-- amélioration environnementale&#45;&#45;formation -->
<g id="edge94" class="edge">
<title>amélioration environnementale&#45;&#45;formation</title>
<path fill="none" stroke="darkgrey" stroke-width="1.29" d="M883.24,-649.47C797.49,-623.99 422.68,-512.6 405.16,-507.4"/>
</g>
<!-- amélioration environnementale&#45;&#45;développement culturel -->
<g id="edge90" class="edge">
<title>amélioration environnementale&#45;&#45;développement culturel</title>
<path fill="none" stroke="darkgrey" d="M918.81,-654.61C1009.64,-654.5 1410.15,-654.01 1428.87,-653.99"/>
</g>
<!-- exploitation&#45;&#45;impact environnemental -->
<g id="edge24" class="edge">
<title>exploitation&#45;&#45;impact environnemental</title>
<path fill="none" stroke="darkgrey" stroke-width="1.15" d="M405.14,-728.49C444.59,-725.74 803.24,-700.69 919.17,-692.6"/>
</g>
<!-- conflit&#45;&#45;développement -->
<g id="edge77" class="edge">
<title>conflit&#45;&#45;développement</title>
<path fill="none" stroke="darkgrey" stroke-width="1.32" d="M649.89,-715.37C686.35,-722.82 804.38,-746.94 840.81,-754.38"/>
</g>
<!-- conflit&#45;&#45;économie du pays -->
<g id="edge78" class="edge">
<title>conflit&#45;&#45;économie du pays</title>
<path fill="none" stroke="darkgrey" stroke-width="1.79" d="M644.05,-722.99C661.91,-758.13 722.47,-877.31 740.51,-912.8"/>
</g>
<!-- vision positive de la ressource&#45;&#45;économie du pays -->
<g id="edge79" class="edge">
<title>vision positive de la ressource&#45;&#45;économie du pays</title>
<path fill="none" stroke="darkgrey" stroke-width="1.83" d="M630.02,-823.39C649.28,-839.96 713.55,-895.27 736.98,-915.43"/>
</g>
<!-- vision positive de la ressource&#45;&#45;innovation -->
<g id="edge80" class="edge">
<title>vision positive de la ressource&#45;&#45;innovation</title>
<path fill="none" stroke="darkgrey" stroke-width="1.55" d="M627.1,-812.1C640.82,-777.58 704.93,-616.23 724.15,-567.87"/>
</g>
<!-- développement durable&#45;&#45;innovation -->
<g id="edge95" class="edge">
<title>développement durable&#45;&#45;innovation</title>
<path fill="none" stroke="darkgrey" stroke-width="2.17" d="M734.75,-624.57C733.7,-610.16 731.84,-584.82 730.67,-568.79"/>
</g>
<!-- innovation&#45;&#45;automatisation -->
<g id="edge96" class="edge">
<title>innovation&#45;&#45;automatisation</title>
<path fill="none" stroke="darkgrey" stroke-width="1.42" d="M717.94,-544.76C689.31,-521.72 616.72,-463.32 601.19,-450.82"/>
</g>
<!-- procédé industriel&#45;&#45;pollution -->
<g id="edge25" class="edge">
<title>procédé industriel&#45;&#45;pollution</title>
<path fill="none" stroke="darkgrey" stroke-width="1.35" d="M805.65,-390.02C810.64,-403.45 829.03,-452.89 840.17,-482.83"/>
</g>
<!-- procédé industriel&#45;&#45;impact environnemental -->
<g id="edge26" class="edge">
<title>procédé industriel&#45;&#45;impact environnemental</title>
<path fill="none" stroke="darkgrey" stroke-width="1.18" d="M806.06,-389.97C819.05,-416.12 903.34,-585.81 939.12,-657.84"/>
</g>
<!-- procédé industriel&#45;&#45;amélioration environnementale -->
<g id="edge27" class="edge">
<title>procédé industriel&#45;&#45;amélioration environnementale</title>
<path fill="none" stroke="darkgrey" stroke-width="1.63" d="M805.58,-389.95C814.87,-415.83 874.75,-582.64 894.38,-637.31"/>
</g>
<!-- procédé industriel&#45;&#45;développement durable -->
<g id="edge28" class="edge">
<title>procédé industriel&#45;&#45;développement durable</title>
<path fill="none" stroke="darkgrey" stroke-width="1.01" d="M803.39,-390.08C796.15,-416.27 750.65,-580.9 738.52,-624.8"/>
</g>
<!-- exploitation raisonnée&#45;&#45;amélioration environnementale -->
<g id="edge29" class="edge">
<title>exploitation raisonnée&#45;&#45;amélioration environnementale</title>
<path fill="none" stroke="darkgrey" stroke-width="1.03" d="M1414.13,-476.8C1393.72,-483.86 1004.88,-618.52 917.8,-648.67"/>
</g>
<!-- montagne&#45;&#45;biodiversité -->
<g id="edge55" class="edge">
<title>montagne&#45;&#45;biodiversité</title>
<path fill="none" stroke="darkgrey" stroke-width="1.15" d="M853.35,-7.07C856.99,-31.11 877.91,-169.21 882.92,-202.31"/>
</g>
<!-- biodiversité&#45;&#45;impact environnemental -->
<g id="edge56" class="edge">
<title>biodiversité&#45;&#45;impact environnemental</title>
<path fill="none" stroke="darkgrey" stroke-width="1.38" d="M885.06,-216.6C892.32,-265.65 934.83,-552.84 949.87,-654.47"/>
</g>
<!-- croissance minière&#45;&#45;innovation -->
<g id="edge76" class="edge">
<title>croissance minière&#45;&#45;innovation</title>
<path fill="none" stroke="darkgrey" stroke-width="1.3" d="M1026.81,-399.43C998.24,-414.3 796.61,-519.26 742.78,-547.28"/>
</g>
<!-- fin -->
<g id="node1" class="node">
<title>fin</title>
<ellipse fill="#7f1e6c" stroke="white" stroke-width="0" cx="774.35" cy="-854.81" rx="14.5" ry="14.5"/>
<text text-anchor="middle" x="754.35" y="-871.91" font-family="Helvetica,sans-Serif" font-size="8.00" fill="#4d4d4d">fin</text>
</g>
<!-- emploi -->
<g id="node2" class="node">
<title>emploi</title>
<ellipse fill="#b93556" stroke="white" stroke-width="0" cx="535.84" cy="-717.8" rx="18" ry="18"/>
<text text-anchor="middle" x="503.84" y="-738.4" font-family="Helvetica,sans-Serif" font-size="8.00" fill="#4d4d4d">emploi</text>
</g>
<!-- pollution -->
<g id="node3" class="node">
<title>pollution</title>
<ellipse fill="#ea632a" stroke="white" stroke-width="0" cx="848.93" cy="-506.37" rx="25" ry="25"/>
<text text-anchor="middle" x="805.43" y="-533.97" font-family="Helvetica,sans-Serif" font-size="8.00" fill="#4d4d4d">pollution</text>
</g>
<!-- épuisement de la ressource -->
<g id="node4" class="node">
<title>épuisement de la ressource</title>
<ellipse fill="#67166e" stroke="white" stroke-width="0" cx="729.22" cy="-755.69" rx="11" ry="11"/>
<text text-anchor="middle" x="661.22" y="-769.29" font-family="Helvetica,sans-Serif" font-size="8.00" fill="#4d4d4d">épuisement de la ressource</text>
</g>
<!-- impact environnemental -->
<g id="node5" class="node">
<title>impact environnemental</title>
<ellipse fill="#fcffa4" stroke="white" stroke-width="0" cx="955.14" cy="-690.09" rx="36" ry="36"/>
<text text-anchor="middle" x="869.14" y="-728.69" font-family="Helvetica,sans-Serif" font-size="8.00" fill="#4d4d4d">impact environnemental</text>
</g>
<!-- développement -->
<g id="node6" class="node">
<title>développement</title>
<ellipse fill="#64156e" stroke="white" stroke-width="0" cx="851.62" cy="-756.59" rx="11" ry="11"/>
<text text-anchor="middle" x="808.12" y="-770.19" font-family="Helvetica,sans-Serif" font-size="8.00" fill="#4d4d4d">développement</text>
</g>
<!-- économie du pays -->
<g id="node7" class="node">
<title>économie du pays</title>
<ellipse fill="#62146e" stroke="white" stroke-width="0" cx="745.62" cy="-922.86" rx="11" ry="11"/>
<text text-anchor="middle" x="696.62" y="-936.46" font-family="Helvetica,sans-Serif" font-size="8.00" fill="#4d4d4d">économie du pays</text>
</g>
<!-- amélioration environnementale -->
<g id="node8" class="node">
<title>amélioration environnementale</title>
<ellipse fill="#bc3754" stroke="white" stroke-width="0" cx="900.6" cy="-654.63" rx="18" ry="18"/>
<text text-anchor="middle" x="818.1" y="-675.23" font-family="Helvetica,sans-Serif" font-size="8.00" fill="#4d4d4d">amélioration environnementale</text>
</g>
<!-- maintien de l’exploitation -->
<g id="node9" class="node">
<title>maintien de l’exploitation</title>
<ellipse fill="#180c3c" stroke="white" stroke-width="0" cx="856.47" cy="-1047.69" rx="3.5" ry="3.5"/>
<text text-anchor="middle" x="800.97" y="-1053.79" font-family="Helvetica,sans-Serif" font-size="8.00" fill="#4d4d4d">maintien de l’exploitation</text>
</g>
<!-- exploitation -->
<g id="node10" class="node">
<title>exploitation</title>
<ellipse fill="#0d0829" stroke="white" stroke-width="0" cx="401.6" cy="-728.74" rx="3.5" ry="3.5"/>
<text text-anchor="middle" x="373.6" y="-734.84" font-family="Helvetica,sans-Serif" font-size="8.00" fill="#4d4d4d">exploitation</text>
</g>
<!-- conflit -->
<g id="node11" class="node">
<title>conflit</title>
<ellipse fill="#540f6d" stroke="white" stroke-width="0" cx="639.05" cy="-713.16" rx="11" ry="11"/>
<text text-anchor="middle" x="615.05" y="-726.76" font-family="Helvetica,sans-Serif" font-size="8.00" fill="#4d4d4d">conflit</text>
</g>
<!-- développement alternatif -->
<g id="node12" class="node">
<title>développement alternatif</title>
<ellipse fill="#040312" stroke="white" stroke-width="0" cx="108.5" cy="-966.22" rx="3.5" ry="3.5"/>
<text text-anchor="middle" x="52.5" y="-972.32" font-family="Helvetica,sans-Serif" font-size="8.00" fill="#4d4d4d">développement alternatif</text>
</g>
<!-- vision positive de la ressource -->
<g id="node13" class="node">
<title>vision positive de la ressource</title>
<ellipse fill="#310a5c" stroke="white" stroke-width="0" cx="624.51" cy="-818.64" rx="7" ry="7"/>
<text text-anchor="middle" x="555.51" y="-828.24" font-family="Helvetica,sans-Serif" font-size="8.00" fill="#4d4d4d">vision positive de la ressource</text>
</g>
<!-- famille -->
<g id="node14" class="node">
<title>famille</title>
<ellipse fill="#060419" stroke="white" stroke-width="0" cx="39.9" cy="-735.07" rx="3.5" ry="3.5"/>
<text text-anchor="middle" x="22.4" y="-741.17" font-family="Helvetica,sans-Serif" font-size="8.00" fill="#4d4d4d">famille</text>
</g>
<!-- développement durable -->
<g id="node15" class="node">
<title>développement durable</title>
<ellipse fill="#61136e" stroke="white" stroke-width="0" cx="735.55" cy="-635.54" rx="11" ry="11"/>
<text text-anchor="middle" x="675.05" y="-649.14" font-family="Helvetica,sans-Serif" font-size="8.00" fill="#4d4d4d">développement durable</text>
</g>
<!-- innovation -->
<g id="node16" class="node">
<title>innovation</title>
<ellipse fill="#7c1d6d" stroke="white" stroke-width="0" cx="729.6" cy="-554.14" rx="14.5" ry="14.5"/>
<text text-anchor="middle" x="693.1" y="-571.24" font-family="Helvetica,sans-Serif" font-size="8.00" fill="#4d4d4d">innovation</text>
</g>
<!-- formation -->
<g id="node17" class="node">
<title>formation</title>
<ellipse fill="#010005" stroke="white" stroke-width="0" cx="404.53" cy="-507.21" rx="0.5" ry="0.5"/>
<text text-anchor="middle" x="384.03" y="-510.31" font-family="Helvetica,sans-Serif" font-size="8.00" fill="#4d4d4d">formation</text>
</g>
<!-- automatisation -->
<g id="node18" class="node">
<title>automatisation</title>
<ellipse fill="#210c4a" stroke="white" stroke-width="0" cx="598.23" cy="-448.44" rx="3.5" ry="3.5"/>
<text text-anchor="middle" x="563.23" y="-454.54" font-family="Helvetica,sans-Serif" font-size="8.00" fill="#4d4d4d">automatisation</text>
</g>
<!-- procédé industriel -->
<g id="node19" class="node">
<title>procédé industriel</title>
<ellipse fill="#0d0829" stroke="white" stroke-width="0" cx="804.36" cy="-386.56" rx="3.5" ry="3.5"/>
<text text-anchor="middle" x="763.86" y="-392.66" font-family="Helvetica,sans-Serif" font-size="8.00" fill="#4d4d4d">procédé industriel</text>
</g>
<!-- exploitation raisonnée -->
<g id="node20" class="node">
<title>exploitation raisonnée</title>
<ellipse fill="#02010a" stroke="white" stroke-width="0" cx="1414.97" cy="-476.51" rx="0.5" ry="0.5"/>
<text text-anchor="middle" x="1368.47" y="-479.61" font-family="Helvetica,sans-Serif" font-size="8.00" fill="#4d4d4d">exploitation raisonnée</text>
</g>
<!-- montagne -->
<g id="node21" class="node">
<title>montagne</title>
<ellipse fill="#0c0826" stroke="white" stroke-width="0" cx="852.81" cy="-3.5" rx="3.5" ry="3.5"/>
<text text-anchor="middle" x="827.81" y="-9.6" font-family="Helvetica,sans-Serif" font-size="8.00" fill="#4d4d4d">montagne</text>
</g>
<!-- biodiversité -->
<g id="node22" class="node">
<title>biodiversité</title>
<ellipse fill="#380962" stroke="white" stroke-width="0" cx="884" cy="-209.43" rx="7" ry="7"/>
<text text-anchor="middle" x="852.5" y="-219.03" font-family="Helvetica,sans-Serif" font-size="8.00" fill="#4d4d4d">biodiversité</text>
</g>
<!-- milieu -->
<g id="node23" class="node">
<title>milieu</title>
<ellipse fill="#0d0829" stroke="white" stroke-width="0" cx="1049" cy="-245.58" rx="3.5" ry="3.5"/>
<text text-anchor="middle" x="1033" y="-251.68" font-family="Helvetica,sans-Serif" font-size="8.00" fill="#4d4d4d">milieu</text>
</g>
<!-- avenir -->
<g id="node24" class="node">
<title>avenir</title>
<ellipse fill="#040314" stroke="white" stroke-width="0" cx="1219.92" cy="-443.62" rx="3.5" ry="3.5"/>
<text text-anchor="middle" x="1203.42" y="-449.72" font-family="Helvetica,sans-Serif" font-size="8.00" fill="#4d4d4d">avenir</text>
</g>
<!-- revenu -->
<g id="node25" class="node">
<title>revenu</title>
<ellipse fill="#09061f" stroke="white" stroke-width="0" cx="1172.64" cy="-316.65" rx="3.5" ry="3.5"/>
<text text-anchor="middle" x="1155.14" y="-322.75" font-family="Helvetica,sans-Serif" font-size="8.00" fill="#4d4d4d">revenu</text>
</g>
<!-- déclin -->
<g id="node26" class="node">
<title>déclin</title>
<ellipse fill="#240c4f" stroke="white" stroke-width="0" cx="1138.23" cy="-640.41" rx="7" ry="7"/>
<text text-anchor="middle" x="1118.73" y="-650.01" font-family="Helvetica,sans-Serif" font-size="8.00" fill="#4d4d4d">déclin</text>
</g>
<!-- richesse -->
<g id="node27" class="node">
<title>richesse</title>
<ellipse fill="#0c0826" stroke="white" stroke-width="0" cx="1095.16" cy="-810.19" rx="3.5" ry="3.5"/>
<text text-anchor="middle" x="1074.16" y="-816.29" font-family="Helvetica,sans-Serif" font-size="8.00" fill="#4d4d4d">richesse</text>
</g>
<!-- santé -->
<g id="node28" class="node">
<title>santé</title>
<ellipse fill="#000004" stroke="white" stroke-width="0" cx="605.53" cy="-58.09" rx="0.5" ry="0.5"/>
<text text-anchor="middle" x="593.03" y="-61.19" font-family="Helvetica,sans-Serif" font-size="8.00" fill="#4d4d4d">santé</text>
</g>
<!-- croissance minière -->
<g id="node29" class="node">
<title>croissance minière</title>
<ellipse fill="#060419" stroke="white" stroke-width="0" cx="1030.19" cy="-397.67" rx="3.5" ry="3.5"/>
<text text-anchor="middle" x="988.69" y="-403.77" font-family="Helvetica,sans-Serif" font-size="8.00" fill="#4d4d4d">croissance minière</text>
</g>
<!-- production -->
<g id="node30" class="node">
<title>production</title>
<ellipse fill="#0a0722" stroke="white" stroke-width="0" cx="1437.26" cy="-814.58" rx="3.5" ry="3.5"/>
<text text-anchor="middle" x="1411.76" y="-820.68" font-family="Helvetica,sans-Serif" font-size="8.00" fill="#4d4d4d">production</text>
</g>
<!-- sentiment négatif -->
<g id="node31" class="node">
<title>sentiment négatif</title>
<ellipse fill="#010106" stroke="white" stroke-width="0" cx="1156.94" cy="-1105.35" rx="0.5" ry="0.5"/>
<text text-anchor="middle" x="1119.94" y="-1108.45" font-family="Helvetica,sans-Serif" font-size="8.00" fill="#4d4d4d">sentiment négatif</text>
</g>
<!-- main d’oeuvre -->
<g id="node32" class="node">
<title>main d’oeuvre</title>
<ellipse fill="#000004" stroke="white" stroke-width="0" cx="1397.71" cy="-973.5" rx="0.5" ry="0.5"/>
<text text-anchor="middle" x="1368.21" y="-976.6" font-family="Helvetica,sans-Serif" font-size="8.00" fill="#4d4d4d">main d’oeuvre</text>
</g>
<!-- investissement -->
<g id="node33" class="node">
<title>investissement</title>
<ellipse fill="#010005" stroke="white" stroke-width="0" cx="1292.87" cy="-1111.68" rx="0.5" ry="0.5"/>
<text text-anchor="middle" x="1260.87" y="-1114.78" font-family="Helvetica,sans-Serif" font-size="8.00" fill="#4d4d4d">investissement</text>
</g>
<!-- indépendance -->
<g id="node34" class="node">
<title>indépendance</title>
<ellipse fill="#07051b" stroke="white" stroke-width="0" cx="783.09" cy="-1414.62" rx="3.5" ry="3.5"/>
<text text-anchor="middle" x="749.59" y="-1420.72" font-family="Helvetica,sans-Serif" font-size="8.00" fill="#4d4d4d">indépendance</text>
</g>
<!-- développement culturel -->
<g id="node35" class="node">
<title>développement culturel</title>
<ellipse fill="#000004" stroke="white" stroke-width="0" cx="1429.55" cy="-653.99" rx="0.5" ry="0.5"/>
<text text-anchor="middle" x="1380.55" y="-657.09" font-family="Helvetica,sans-Serif" font-size="8.00" fill="#4d4d4d">développement culturel</text>
</g>
</g>
</svg>
