<?xml version="1.0" encoding="UTF-8" standalone="no"?>
<!DOCTYPE svg PUBLIC "-//W3C//DTD SVG 1.1//EN"
 "http://www.w3.org/Graphics/SVG/1.1/DTD/svg11.dtd">
<!-- Generated by graphviz version 2.43.0 (0)
 -->
<!-- Pages: 1 -->
<svg width="1517pt" height="1441pt"
 viewBox="0.00 0.00 1516.76 1441.12" xmlns="http://www.w3.org/2000/svg" xmlns:xlink="http://www.w3.org/1999/xlink">
<g id="graph0" class="graph" transform="scale(1 1) rotate(0) translate(4 1437.12)">
<polygon fill="white" stroke="transparent" points="-4,4 -4,-1437.12 1512.76,-1437.12 1512.76,4 -4,4"/>
<!-- fin&#45;&#45;emploi -->
<g id="edge1" class="edge">
<title>fin&#45;&#45;emploi</title>
<path fill="none" stroke="darkgrey" stroke-width="2.36" d="M829.52,-847.44C788.98,-824.15 663.65,-752.16 619.46,-726.77"/>
</g>
<!-- fin&#45;&#45;pollution -->
<g id="edge2" class="edge">
<title>fin&#45;&#45;pollution</title>
<path fill="none" stroke="darkgrey" stroke-width="3.53" d="M845.46,-840.28C856.95,-786.57 897.13,-598.86 911.65,-531.04"/>
</g>
<!-- fin&#45;&#45;épuisement de la ressource -->
<g id="edge3" class="edge">
<title>fin&#45;&#45;épuisement de la ressource</title>
<path fill="none" stroke="darkgrey" stroke-width="1.63" d="M836.26,-841.44C827.12,-821.36 810.05,-783.85 801.85,-765.84"/>
</g>
<!-- fin&#45;&#45;impact environnemental -->
<g id="edge4" class="edge">
<title>fin&#45;&#45;impact environnemental</title>
<path fill="none" stroke="darkgrey" stroke-width="3.5" d="M853.12,-845C880.94,-819.65 955.87,-751.38 996.34,-714.51"/>
</g>
<!-- fin&#45;&#45;développement -->
<g id="edge5" class="edge">
<title>fin&#45;&#45;développement</title>
<path fill="none" stroke="darkgrey" stroke-width="1.25" d="M851.52,-843.16C867.19,-823.24 898.78,-783.07 912.73,-765.34"/>
</g>
<!-- fin&#45;&#45;économie du pays -->
<g id="edge6" class="edge">
<title>fin&#45;&#45;économie du pays</title>
<path fill="none" stroke="darkgrey" stroke-width="1.18" d="M836.67,-868.25C831.18,-881.27 822.97,-900.72 817.97,-912.55"/>
</g>
<!-- fin&#45;&#45;amélioration environnementale -->
<g id="edge7" class="edge">
<title>fin&#45;&#45;amélioration environnementale</title>
<path fill="none" stroke="darkgrey" stroke-width="1.43" d="M850.25,-842.29C872.32,-807.28 934.65,-708.45 958.84,-670.11"/>
</g>
<!-- fin&#45;&#45;maintien de l’exploitation -->
<g id="edge8" class="edge">
<title>fin&#45;&#45;maintien de l’exploitation</title>
<path fill="none" stroke="darkgrey" stroke-width="1.05" d="M848.12,-868.37C865.06,-908.16 914,-1023.1 923.02,-1044.31"/>
</g>
<!-- emploi&#45;&#45;pollution -->
<g id="edge10" class="edge">
<title>emploi&#45;&#45;pollution</title>
<path fill="none" stroke="darkgrey" stroke-width="5.89" d="M618.94,-707.6C670.12,-673.04 837.1,-560.28 896.07,-520.46"/>
</g>
<!-- emploi&#45;&#45;épuisement de la ressource -->
<g id="edge11" class="edge">
<title>emploi&#45;&#45;épuisement de la ressource</title>
<path fill="none" stroke="darkgrey" stroke-width="1.52" d="M621.68,-721.29C660.95,-728.99 753.92,-747.2 786.06,-753.5"/>
</g>
<!-- emploi&#45;&#45;impact environnemental -->
<g id="edge12" class="edge">
<title>emploi&#45;&#45;impact environnemental</title>
<path fill="none" stroke="darkgrey" stroke-width="6.49" d="M621.85,-716.61C685.57,-712.4 901.06,-698.16 987.16,-692.47"/>
</g>
<!-- emploi&#45;&#45;développement -->
<g id="edge16" class="edge">
<title>emploi&#45;&#45;développement</title>
<path fill="none" stroke="darkgrey" stroke-width="1.24" d="M621.72,-719.99C679.78,-727.13 861.95,-749.5 908.63,-755.24"/>
</g>
<!-- emploi&#45;&#45;économie du pays -->
<g id="edge17" class="edge">
<title>emploi&#45;&#45;économie du pays</title>
<path fill="none" stroke="darkgrey" stroke-width="3.66" d="M616.96,-730.63C656.43,-769.21 773.3,-883.45 805.39,-914.81"/>
</g>
<!-- emploi&#45;&#45;amélioration environnementale -->
<g id="edge18" class="edge">
<title>emploi&#45;&#45;amélioration environnementale</title>
<path fill="none" stroke="darkgrey" stroke-width="4.66" d="M621.68,-714.71C683.61,-703.98 888.91,-668.43 950.79,-657.71"/>
</g>
<!-- emploi&#45;&#45;exploitation -->
<g id="edge9" class="edge">
<title>emploi&#45;&#45;exploitation</title>
<path fill="none" stroke="darkgrey" stroke-width="1.1" d="M585.73,-719.27C553.96,-721.86 489.96,-727.08 473.52,-728.42"/>
</g>
<!-- emploi&#45;&#45;conflit -->
<g id="edge13" class="edge">
<title>emploi&#45;&#45;conflit</title>
<path fill="none" stroke="darkgrey" stroke-width="1.83" d="M622.29,-716.97C643.74,-716 678.46,-714.44 696.06,-713.65"/>
</g>
<!-- emploi&#45;&#45;développement alternatif -->
<g id="edge14" class="edge">
<title>emploi&#45;&#45;développement alternatif</title>
<path fill="none" stroke="darkgrey" stroke-width="1.17" d="M588.12,-726.93C515.54,-769.13 214.82,-943.95 179.83,-964.29"/>
</g>
<!-- emploi&#45;&#45;vision positive de la ressource -->
<g id="edge15" class="edge">
<title>emploi&#45;&#45;vision positive de la ressource</title>
<path fill="none" stroke="darkgrey" stroke-width="1.45" d="M615.79,-731.4C635.46,-753.76 673.81,-797.38 687.5,-812.95"/>
</g>
<!-- emploi&#45;&#45;famille -->
<g id="edge19" class="edge">
<title>emploi&#45;&#45;famille</title>
<path fill="none" stroke="darkgrey" stroke-width="1.69" d="M585.6,-718.43C501.37,-721.37 152.37,-733.53 111.76,-734.94"/>
</g>
<!-- emploi&#45;&#45;développement durable -->
<g id="edge20" class="edge">
<title>emploi&#45;&#45;développement durable</title>
<path fill="none" stroke="darkgrey" stroke-width="1.84" d="M620.52,-710.93C660.46,-694.48 760.64,-653.22 793.17,-639.82"/>
</g>
<!-- emploi&#45;&#45;innovation -->
<g id="edge21" class="edge">
<title>emploi&#45;&#45;innovation</title>
<path fill="none" stroke="darkgrey" stroke-width="1.62" d="M617.77,-706.03C654.39,-675.1 752.81,-591.97 786.28,-563.7"/>
</g>
<!-- emploi&#45;&#45;formation -->
<g id="edge22" class="edge">
<title>emploi&#45;&#45;formation</title>
<path fill="none" stroke="darkgrey" stroke-width="1.52" d="M594.18,-702.31C565.04,-655.58 479.57,-518.5 472.94,-507.86"/>
</g>
<!-- emploi&#45;&#45;automatisation -->
<g id="edge23" class="edge">
<title>emploi&#45;&#45;automatisation</title>
<path fill="none" stroke="darkgrey" stroke-width="1.28" d="M607.93,-700.12C620.67,-645.12 659.15,-479.02 665.37,-452.14"/>
</g>
<!-- pollution&#45;&#45;épuisement de la ressource -->
<g id="edge30" class="edge">
<title>pollution&#45;&#45;épuisement de la ressource</title>
<path fill="none" stroke="darkgrey" stroke-width="4.05" d="M906.1,-528.94C881,-581.2 819.7,-708.88 802.05,-745.63"/>
</g>
<!-- pollution&#45;&#45;impact environnemental -->
<g id="edge33" class="edge">
<title>pollution&#45;&#45;impact environnemental</title>
<path fill="none" stroke="darkgrey" stroke-width="10" d="M929.53,-528.17C948.27,-560.58 983.57,-621.64 1005.06,-658.81"/>
</g>
<!-- pollution&#45;&#45;développement -->
<g id="edge38" class="edge">
<title>pollution&#45;&#45;développement</title>
<path fill="none" stroke="darkgrey" stroke-width="3.8" d="M917.2,-531.74C917.78,-585.29 919.1,-708.02 919.5,-745.51"/>
</g>
<!-- pollution&#45;&#45;économie du pays -->
<g id="edge39" class="edge">
<title>pollution&#45;&#45;économie du pays</title>
<path fill="none" stroke="darkgrey" stroke-width="3.83" d="M910.85,-530.87C891.22,-610.03 829.95,-857.02 816.32,-911.96"/>
</g>
<!-- pollution&#45;&#45;amélioration environnementale -->
<g id="edge40" class="edge">
<title>pollution&#45;&#45;amélioration environnementale</title>
<path fill="none" stroke="darkgrey" stroke-width="2.91" d="M925.23,-530.19C935.67,-560.15 953.35,-610.87 962.58,-637.35"/>
</g>
<!-- pollution&#45;&#45;conflit -->
<g id="edge34" class="edge">
<title>pollution&#45;&#45;conflit</title>
<path fill="none" stroke="darkgrey" stroke-width="2.25" d="M899.04,-524C855.62,-566.78 745.99,-674.79 715.2,-705.12"/>
</g>
<!-- pollution&#45;&#45;vision positive de la ressource -->
<g id="edge36" class="edge">
<title>pollution&#45;&#45;vision positive de la ressource</title>
<path fill="none" stroke="darkgrey" stroke-width="1.66" d="M902.2,-526.86C857.15,-589.55 722.66,-776.68 696.83,-812.63"/>
</g>
<!-- pollution&#45;&#45;développement durable -->
<g id="edge43" class="edge">
<title>pollution&#45;&#45;développement durable</title>
<path fill="none" stroke="darkgrey" stroke-width="1.8" d="M900.2,-525.43C875.19,-553.92 829.07,-606.47 811.05,-627"/>
</g>
<!-- pollution&#45;&#45;innovation -->
<g id="edge44" class="edge">
<title>pollution&#45;&#45;innovation</title>
<path fill="none" stroke="darkgrey" stroke-width="2.86" d="M893.64,-515.69C869.09,-525.52 831.24,-540.67 811.18,-548.71"/>
</g>
<!-- pollution&#45;&#45;automatisation -->
<g id="edge47" class="edge">
<title>pollution&#45;&#45;automatisation</title>
<path fill="none" stroke="darkgrey" stroke-width="1.38" d="M892.43,-500.71C834.77,-487.39 693.53,-454.75 669.68,-449.24"/>
</g>
<!-- pollution&#45;&#45;montagne -->
<g id="edge31" class="edge">
<title>pollution&#45;&#45;montagne</title>
<path fill="none" stroke="darkgrey" stroke-width="1.6" d="M917.12,-481.09C917.87,-385.09 920.48,-46.58 920.78,-7.24"/>
</g>
<!-- pollution&#45;&#45;biodiversité -->
<g id="edge32" class="edge">
<title>pollution&#45;&#45;biodiversité</title>
<path fill="none" stroke="darkgrey" stroke-width="2.55" d="M919.89,-481.31C927.39,-417.83 946.83,-253.16 951.14,-216.67"/>
</g>
<!-- pollution&#45;&#45;milieu -->
<g id="edge35" class="edge">
<title>pollution&#45;&#45;milieu</title>
<path fill="none" stroke="darkgrey" stroke-width="1.04" d="M932.3,-486.34C975.67,-429.81 1097.04,-271.6 1114.82,-248.43"/>
</g>
<!-- pollution&#45;&#45;avenir -->
<g id="edge37" class="edge">
<title>pollution&#45;&#45;avenir</title>
<path fill="none" stroke="darkgrey" stroke-width="1.29" d="M941.85,-502.16C1019.18,-489.08 1251.84,-449.72 1284.18,-444.26"/>
</g>
<!-- pollution&#45;&#45;revenu -->
<g id="edge41" class="edge">
<title>pollution&#45;&#45;revenu</title>
<path fill="none" stroke="darkgrey" stroke-width="1.5" d="M938.67,-493.63C1006.15,-454.08 1209.16,-335.1 1237.38,-318.56"/>
</g>
<!-- pollution&#45;&#45;déclin -->
<g id="edge42" class="edge">
<title>pollution&#45;&#45;déclin</title>
<path fill="none" stroke="darkgrey" stroke-width="1.71" d="M939.63,-516.89C1000.37,-545.03 1164.39,-621.02 1199.54,-637.31"/>
</g>
<!-- pollution&#45;&#45;richesse -->
<g id="edge45" class="edge">
<title>pollution&#45;&#45;richesse</title>
<path fill="none" stroke="darkgrey" stroke-width="1.69" d="M932.71,-525.84C983.44,-588.44 1140.31,-781.99 1160.91,-807.42"/>
</g>
<!-- pollution&#45;&#45;santé -->
<g id="edge46" class="edge">
<title>pollution&#45;&#45;santé</title>
<path fill="none" stroke="darkgrey" stroke-width="1.11" d="M904.86,-484.14C856.9,-395.81 682,-73.69 673.83,-58.64"/>
</g>
<!-- épuisement de la ressource&#45;&#45;impact environnemental -->
<g id="edge48" class="edge">
<title>épuisement de la ressource&#45;&#45;impact environnemental</title>
<path fill="none" stroke="darkgrey" stroke-width="4.49" d="M807.82,-752.61C839.75,-743.34 936.06,-715.37 988.39,-700.18"/>
</g>
<!-- épuisement de la ressource&#45;&#45;développement -->
<g id="edge51" class="edge">
<title>épuisement de la ressource&#45;&#45;développement</title>
<path fill="none" stroke="darkgrey" stroke-width="2.58" d="M808.52,-755.77C831.84,-755.94 885.06,-756.33 908.35,-756.51"/>
</g>
<!-- épuisement de la ressource&#45;&#45;économie du pays -->
<g id="edge52" class="edge">
<title>épuisement de la ressource&#45;&#45;économie du pays</title>
<path fill="none" stroke="darkgrey" stroke-width="1.88" d="M798.3,-766.65C801.26,-796.87 809.53,-881.11 812.52,-911.63"/>
</g>
<!-- épuisement de la ressource&#45;&#45;amélioration environnementale -->
<g id="edge53" class="edge">
<title>épuisement de la ressource&#45;&#45;amélioration environnementale</title>
<path fill="none" stroke="darkgrey" stroke-width="1.29" d="M806.93,-749.96C835.25,-733.26 918,-684.47 952.84,-663.92"/>
</g>
<!-- épuisement de la ressource&#45;&#45;conflit -->
<g id="edge49" class="edge">
<title>épuisement de la ressource&#45;&#45;conflit</title>
<path fill="none" stroke="darkgrey" stroke-width="2.07" d="M787.23,-750.97C769.9,-742.8 734.46,-726.08 717.09,-717.89"/>
</g>
<!-- épuisement de la ressource&#45;&#45;vision positive de la ressource -->
<g id="edge50" class="edge">
<title>épuisement de la ressource&#45;&#45;vision positive de la ressource</title>
<path fill="none" stroke="darkgrey" stroke-width="1.07" d="M787.56,-761.5C766.29,-774.28 715.95,-804.55 698.55,-815.01"/>
</g>
<!-- épuisement de la ressource&#45;&#45;innovation -->
<g id="edge54" class="edge">
<title>épuisement de la ressource&#45;&#45;innovation</title>
<path fill="none" stroke="darkgrey" stroke-width="1.34" d="M797.25,-744.56C797.31,-710.4 797.5,-606.98 797.58,-568.65"/>
</g>
<!-- impact environnemental&#45;&#45;développement -->
<g id="edge62" class="edge">
<title>impact environnemental&#45;&#45;développement</title>
<path fill="none" stroke="darkgrey" stroke-width="5.31" d="M992.64,-709.68C970.93,-723.63 943.18,-741.45 928.95,-750.59"/>
</g>
<!-- impact environnemental&#45;&#45;économie du pays -->
<g id="edge63" class="edge">
<title>impact environnemental&#45;&#45;économie du pays</title>
<path fill="none" stroke="darkgrey" stroke-width="4.77" d="M998.7,-717.25C951.41,-769.77 849.59,-882.9 821.14,-914.51"/>
</g>
<!-- impact environnemental&#45;&#45;amélioration environnementale -->
<g id="edge64" class="edge">
<title>impact environnemental&#45;&#45;amélioration environnementale</title>
<path fill="none" stroke="darkgrey" stroke-width="3.06" d="M992.68,-670.29C989.66,-668.32 986.68,-666.39 983.91,-664.59"/>
</g>
<!-- impact environnemental&#45;&#45;maintien de l’exploitation -->
<g id="edge65" class="edge">
<title>impact environnemental&#45;&#45;maintien de l’exploitation</title>
<path fill="none" stroke="darkgrey" stroke-width="1.18" d="M1013.5,-725.03C990.51,-808.33 933.78,-1013.94 925.48,-1044"/>
</g>
<!-- impact environnemental&#45;&#45;conflit -->
<g id="edge58" class="edge">
<title>impact environnemental&#45;&#45;conflit</title>
<path fill="none" stroke="darkgrey" stroke-width="4.95" d="M987.19,-692.71C916.15,-697.9 760.99,-709.22 718.18,-712.34"/>
</g>
<!-- impact environnemental&#45;&#45;vision positive de la ressource -->
<g id="edge60" class="edge">
<title>impact environnemental&#45;&#45;vision positive de la ressource</title>
<path fill="none" stroke="darkgrey" stroke-width="2.19" d="M989.31,-703.24C913.93,-732.55 735.91,-801.77 699.2,-816.04"/>
</g>
<!-- impact environnemental&#45;&#45;développement durable -->
<g id="edge68" class="edge">
<title>impact environnemental&#45;&#45;développement durable</title>
<path fill="none" stroke="darkgrey" stroke-width="1.53" d="M987.86,-681.33C936.94,-668.68 845.54,-645.97 814.33,-638.22"/>
</g>
<!-- impact environnemental&#45;&#45;innovation -->
<g id="edge69" class="edge">
<title>impact environnemental&#45;&#45;innovation</title>
<path fill="none" stroke="darkgrey" stroke-width="2.67" d="M992.25,-671.47C942.07,-641.22 844.93,-582.67 810.27,-561.78"/>
</g>
<!-- impact environnemental&#45;&#45;automatisation -->
<g id="edge75" class="edge">
<title>impact environnemental&#45;&#45;automatisation</title>
<path fill="none" stroke="darkgrey" stroke-width="1.62" d="M993.32,-669.9C913.24,-615.68 697.59,-469.68 669.31,-450.53"/>
</g>
<!-- impact environnemental&#45;&#45;milieu -->
<g id="edge59" class="edge">
<title>impact environnemental&#45;&#45;milieu</title>
<path fill="none" stroke="darkgrey" stroke-width="1.45" d="M1030.58,-654.84C1051.4,-556.27 1109.14,-282.82 1116.28,-249.02"/>
</g>
<!-- impact environnemental&#45;&#45;avenir -->
<g id="edge61" class="edge">
<title>impact environnemental&#45;&#45;avenir</title>
<path fill="none" stroke="darkgrey" stroke-width="1.71" d="M1049.5,-665.56C1111.5,-607.84 1263.05,-466.78 1285.2,-446.15"/>
</g>
<!-- impact environnemental&#45;&#45;revenu -->
<g id="edge66" class="edge">
<title>impact environnemental&#45;&#45;revenu</title>
<path fill="none" stroke="darkgrey" stroke-width="2.02" d="M1041.31,-658.89C1090.11,-575.1 1221.53,-349.47 1238.77,-319.87"/>
</g>
<!-- impact environnemental&#45;&#45;déclin -->
<g id="edge67" class="edge">
<title>impact environnemental&#45;&#45;déclin</title>
<path fill="none" stroke="darkgrey" stroke-width="2.12" d="M1058.01,-680.63C1102.42,-668.58 1176.16,-648.57 1199.16,-642.33"/>
</g>
<!-- impact environnemental&#45;&#45;richesse -->
<g id="edge70" class="edge">
<title>impact environnemental&#45;&#45;richesse</title>
<path fill="none" stroke="darkgrey" stroke-width="2.13" d="M1050.47,-713.53C1086.44,-744.38 1146.72,-796.09 1160.36,-807.79"/>
</g>
<!-- impact environnemental&#45;&#45;croissance minière -->
<g id="edge57" class="edge">
<title>impact environnemental&#45;&#45;croissance minière</title>
<path fill="none" stroke="darkgrey" stroke-width="1.91" d="M1032.12,-655.11C1050.4,-583.86 1090.79,-426.49 1097.3,-401.15"/>
</g>
<!-- impact environnemental&#45;&#45;production -->
<g id="edge71" class="edge">
<title>impact environnemental&#45;&#45;production</title>
<path fill="none" stroke="darkgrey" stroke-width="1.16" d="M1058.2,-699.14C1162.21,-726 1464.12,-803.96 1501.46,-813.6"/>
</g>
<!-- impact environnemental&#45;&#45;sentiment négatif -->
<g id="edge72" class="edge">
<title>impact environnemental&#45;&#45;sentiment négatif</title>
<path fill="none" stroke="darkgrey" stroke-width="1.05" d="M1038.97,-722.67C1085.43,-818.27 1218.5,-1092.1 1224.71,-1104.88"/>
</g>
<!-- impact environnemental&#45;&#45;main d’oeuvre -->
<g id="edge73" class="edge">
<title>impact environnemental&#45;&#45;main d’oeuvre</title>
<path fill="none" stroke="darkgrey" stroke-width="1.35" d="M1053.56,-709.57C1151.2,-772.1 1451.19,-964.21 1465.2,-973.18"/>
</g>
<!-- impact environnemental&#45;&#45;investissement -->
<g id="edge74" class="edge">
<title>impact environnemental&#45;&#45;investissement</title>
<path fill="none" stroke="darkgrey" stroke-width="1.39" d="M1045.82,-718.41C1119.77,-810.72 1349.74,-1097.79 1360.48,-1111.19"/>
</g>
<!-- développement&#45;&#45;économie du pays -->
<g id="edge81" class="edge">
<title>développement&#45;&#45;économie du pays</title>
<path fill="none" stroke="darkgrey" stroke-width="2.42" d="M913.62,-766C894.96,-795.27 838.12,-884.42 819.56,-913.55"/>
</g>
<!-- développement&#45;&#45;amélioration environnementale -->
<g id="edge82" class="edge">
<title>développement&#45;&#45;amélioration environnementale</title>
<path fill="none" stroke="darkgrey" stroke-width="2.62" d="M924.49,-746.44C932.96,-728.81 950.46,-692.38 960.69,-671.09"/>
</g>
<!-- développement&#45;&#45;développement durable -->
<g id="edge84" class="edge">
<title>développement&#45;&#45;développement durable</title>
<path fill="none" stroke="darkgrey" stroke-width="1.41" d="M912,-748.65C891.02,-726.77 832.54,-665.78 811.35,-643.67"/>
</g>
<!-- développement&#45;&#45;innovation -->
<g id="edge85" class="edge">
<title>développement&#45;&#45;innovation</title>
<path fill="none" stroke="darkgrey" stroke-width="1.69" d="M913.9,-747.1C893.97,-714.03 827.59,-603.9 805.12,-566.61"/>
</g>
<!-- développement&#45;&#45;déclin -->
<g id="edge83" class="edge">
<title>développement&#45;&#45;déclin</title>
<path fill="none" stroke="darkgrey" stroke-width="1.02" d="M929.82,-752.45C975.69,-733.86 1162.26,-658.24 1199.68,-643.07"/>
</g>
<!-- développement&#45;&#45;richesse -->
<g id="edge86" class="edge">
<title>développement&#45;&#45;richesse</title>
<path fill="none" stroke="darkgrey" stroke-width="1.25" d="M930.4,-758.96C973.66,-768.48 1133.63,-803.69 1159.59,-809.4"/>
</g>
<!-- économie du pays&#45;&#45;amélioration environnementale -->
<g id="edge88" class="edge">
<title>économie du pays&#45;&#45;amélioration environnementale</title>
<path fill="none" stroke="darkgrey" stroke-width="1.14" d="M819.14,-913.31C842.16,-873.46 930.74,-720.16 959.51,-670.36"/>
</g>
<!-- économie du pays&#45;&#45;développement durable -->
<g id="edge89" class="edge">
<title>économie du pays&#45;&#45;développement durable</title>
<path fill="none" stroke="darkgrey" stroke-width="1.15" d="M813.23,-911.6C811.61,-865.64 805.55,-692.55 803.94,-646.73"/>
</g>
<!-- économie du pays&#45;&#45;indépendance -->
<g id="edge87" class="edge">
<title>économie du pays&#45;&#45;indépendance</title>
<path fill="none" stroke="darkgrey" stroke-width="1.11" d="M814.47,-934.06C819.75,-1003.25 847.77,-1371.06 850.82,-1411.08"/>
</g>
<!-- amélioration environnementale&#45;&#45;maintien de l’exploitation -->
<g id="edge91" class="edge">
<title>amélioration environnementale&#45;&#45;maintien de l’exploitation</title>
<path fill="none" stroke="darkgrey" stroke-width="2.17" d="M966.59,-672.54C958.53,-744.33 928.8,-1009.05 924.89,-1043.9"/>
</g>
<!-- amélioration environnementale&#45;&#45;développement durable -->
<g id="edge92" class="edge">
<title>amélioration environnementale&#45;&#45;développement durable</title>
<path fill="none" stroke="darkgrey" stroke-width="3.8" d="M950.62,-652.55C916.37,-648.59 842.66,-640.07 814.66,-636.83"/>
</g>
<!-- amélioration environnementale&#45;&#45;innovation -->
<g id="edge93" class="edge">
<title>amélioration environnementale&#45;&#45;innovation</title>
<path fill="none" stroke="darkgrey" stroke-width="1.82" d="M952.82,-645.36C919.25,-625.63 841.32,-579.83 810.49,-561.72"/>
</g>
<!-- amélioration environnementale&#45;&#45;formation -->
<g id="edge94" class="edge">
<title>amélioration environnementale&#45;&#45;formation</title>
<path fill="none" stroke="darkgrey" stroke-width="1.29" d="M951.24,-649.47C865.49,-623.99 490.68,-512.6 473.16,-507.4"/>
</g>
<!-- amélioration environnementale&#45;&#45;développement culturel -->
<g id="edge90" class="edge">
<title>amélioration environnementale&#45;&#45;développement culturel</title>
<path fill="none" stroke="darkgrey" d="M986.81,-654.61C1077.64,-654.5 1478.15,-654.01 1496.87,-653.99"/>
</g>
<!-- exploitation&#45;&#45;impact environnemental -->
<g id="edge24" class="edge">
<title>exploitation&#45;&#45;impact environnemental</title>
<path fill="none" stroke="darkgrey" stroke-width="1.15" d="M473.14,-728.49C512.59,-725.74 871.24,-700.69 987.17,-692.6"/>
</g>
<!-- conflit&#45;&#45;développement -->
<g id="edge77" class="edge">
<title>conflit&#45;&#45;développement</title>
<path fill="none" stroke="darkgrey" stroke-width="1.32" d="M717.89,-715.37C754.35,-722.82 872.38,-746.94 908.81,-754.38"/>
</g>
<!-- conflit&#45;&#45;économie du pays -->
<g id="edge78" class="edge">
<title>conflit&#45;&#45;économie du pays</title>
<path fill="none" stroke="darkgrey" stroke-width="1.79" d="M712.05,-722.99C729.91,-758.13 790.47,-877.31 808.51,-912.8"/>
</g>
<!-- vision positive de la ressource&#45;&#45;économie du pays -->
<g id="edge79" class="edge">
<title>vision positive de la ressource&#45;&#45;économie du pays</title>
<path fill="none" stroke="darkgrey" stroke-width="1.83" d="M698.02,-823.39C717.28,-839.96 781.55,-895.27 804.98,-915.43"/>
</g>
<!-- vision positive de la ressource&#45;&#45;innovation -->
<g id="edge80" class="edge">
<title>vision positive de la ressource&#45;&#45;innovation</title>
<path fill="none" stroke="darkgrey" stroke-width="1.55" d="M695.1,-812.1C708.82,-777.58 772.93,-616.23 792.15,-567.87"/>
</g>
<!-- développement durable&#45;&#45;innovation -->
<g id="edge95" class="edge">
<title>développement durable&#45;&#45;innovation</title>
<path fill="none" stroke="darkgrey" stroke-width="2.17" d="M802.75,-624.57C801.7,-610.16 799.84,-584.82 798.67,-568.79"/>
</g>
<!-- innovation&#45;&#45;automatisation -->
<g id="edge96" class="edge">
<title>innovation&#45;&#45;automatisation</title>
<path fill="none" stroke="darkgrey" stroke-width="1.42" d="M785.94,-544.76C757.31,-521.72 684.72,-463.32 669.19,-450.82"/>
</g>
<!-- procédé industriel&#45;&#45;pollution -->
<g id="edge25" class="edge">
<title>procédé industriel&#45;&#45;pollution</title>
<path fill="none" stroke="darkgrey" stroke-width="1.35" d="M873.65,-390.02C878.64,-403.45 897.03,-452.89 908.17,-482.83"/>
</g>
<!-- procédé industriel&#45;&#45;impact environnemental -->
<g id="edge26" class="edge">
<title>procédé industriel&#45;&#45;impact environnemental</title>
<path fill="none" stroke="darkgrey" stroke-width="1.18" d="M874.06,-389.97C887.05,-416.12 971.34,-585.81 1007.12,-657.84"/>
</g>
<!-- procédé industriel&#45;&#45;amélioration environnementale -->
<g id="edge27" class="edge">
<title>procédé industriel&#45;&#45;amélioration environnementale</title>
<path fill="none" stroke="darkgrey" stroke-width="1.63" d="M873.58,-389.95C882.87,-415.83 942.75,-582.64 962.38,-637.31"/>
</g>
<!-- procédé industriel&#45;&#45;développement durable -->
<g id="edge28" class="edge">
<title>procédé industriel&#45;&#45;développement durable</title>
<path fill="none" stroke="darkgrey" stroke-width="1.01" d="M871.39,-390.08C864.15,-416.27 818.65,-580.9 806.52,-624.8"/>
</g>
<!-- exploitation raisonnée&#45;&#45;amélioration environnementale -->
<g id="edge29" class="edge">
<title>exploitation raisonnée&#45;&#45;amélioration environnementale</title>
<path fill="none" stroke="darkgrey" stroke-width="1.03" d="M1482.13,-476.8C1461.72,-483.86 1072.88,-618.52 985.8,-648.67"/>
</g>
<!-- montagne&#45;&#45;biodiversité -->
<g id="edge55" class="edge">
<title>montagne&#45;&#45;biodiversité</title>
<path fill="none" stroke="darkgrey" stroke-width="1.15" d="M921.35,-7.07C924.99,-31.11 945.91,-169.21 950.92,-202.31"/>
</g>
<!-- biodiversité&#45;&#45;impact environnemental -->
<g id="edge56" class="edge">
<title>biodiversité&#45;&#45;impact environnemental</title>
<path fill="none" stroke="darkgrey" stroke-width="1.38" d="M953.06,-216.6C960.32,-265.65 1002.83,-552.84 1017.87,-654.47"/>
</g>
<!-- croissance minière&#45;&#45;innovation -->
<g id="edge76" class="edge">
<title>croissance minière&#45;&#45;innovation</title>
<path fill="none" stroke="darkgrey" stroke-width="1.3" d="M1094.81,-399.43C1066.24,-414.3 864.61,-519.26 810.78,-547.28"/>
</g>
<!-- fin -->
<g id="node1" class="node">
<title>fin</title>
<ellipse fill="#7f1e6c" stroke="white" stroke-width="0" cx="842.35" cy="-854.81" rx="14.5" ry="14.5"/>
<text text-anchor="middle" x="815.35" y="-874.59" font-family="Helvetica,sans-Serif" font-size="18.40" fill="#4d4d4d">fin</text>
</g>
<!-- emploi -->
<g id="node2" class="node">
<title>emploi</title>
<ellipse fill="#b93556" stroke="white" stroke-width="0" cx="603.84" cy="-717.8" rx="18" ry="18"/>
<text text-anchor="middle" x="552.34" y="-741.8" font-family="Helvetica,sans-Serif" font-size="20.00" fill="#4d4d4d">emploi</text>
</g>
<!-- pollution -->
<g id="node3" class="node">
<title>pollution</title>
<ellipse fill="#ea632a" stroke="white" stroke-width="0" cx="916.93" cy="-506.37" rx="25" ry="25"/>
<text text-anchor="middle" x="840.43" y="-488.81" font-family="Helvetica,sans-Serif" font-size="23.20" fill="#4d4d4d">pollution</text>
</g>
<!-- épuisement de la ressource -->
<g id="node4" class="node">
<title>épuisement de la ressource</title>
<ellipse fill="#67166e" stroke="white" stroke-width="0" cx="797.22" cy="-755.69" rx="11" ry="11"/>
<text text-anchor="middle" x="668.72" y="-771.25" font-family="Helvetica,sans-Serif" font-size="16.80" fill="#4d4d4d">épuisement de la ressource</text>
</g>
<!-- impact environnemental -->
<g id="node5" class="node">
<title>impact environnemental</title>
<ellipse fill="#fcffa4" stroke="white" stroke-width="0" cx="1023.14" cy="-690.09" rx="36" ry="36"/>
<text text-anchor="middle" x="1159.64" y="-734.69" font-family="Helvetica,sans-Serif" font-size="28.00" fill="#4d4d4d">impact environnemental</text>
</g>
<!-- développement -->
<g id="node6" class="node">
<title>développement</title>
<ellipse fill="#64156e" stroke="white" stroke-width="0" cx="919.62" cy="-756.59" rx="11" ry="11"/>
<text text-anchor="middle" x="975.12" y="-772.15" font-family="Helvetica,sans-Serif" font-size="16.80" fill="#4d4d4d">développement</text>
</g>
<!-- économie du pays -->
<g id="node7" class="node">
<title>économie du pays</title>
<ellipse fill="#62146e" stroke="white" stroke-width="0" cx="813.62" cy="-922.86" rx="11" ry="11"/>
<text text-anchor="middle" x="725.62" y="-938.42" font-family="Helvetica,sans-Serif" font-size="16.80" fill="#4d4d4d">économie du pays</text>
</g>
<!-- amélioration environnementale -->
<g id="node8" class="node">
<title>amélioration environnementale</title>
<ellipse fill="#bc3754" stroke="white" stroke-width="0" cx="968.6" cy="-654.63" rx="18" ry="18"/>
<text text-anchor="middle" x="795.1" y="-678.63" font-family="Helvetica,sans-Serif" font-size="20.00" fill="#4d4d4d">amélioration environnementale</text>
</g>
<!-- maintien de l’exploitation -->
<g id="node9" class="node">
<title>maintien de l’exploitation</title>
<ellipse fill="#180c3c" stroke="white" stroke-width="0" cx="924.47" cy="-1047.69" rx="3.5" ry="3.5"/>
<text text-anchor="middle" x="833.47" y="-1055.31" font-family="Helvetica,sans-Serif" font-size="13.60" fill="#4d4d4d">maintien de l’exploitation</text>
</g>
<!-- exploitation -->
<g id="node10" class="node">
<title>exploitation</title>
<ellipse fill="#0d0829" stroke="white" stroke-width="0" cx="469.6" cy="-728.74" rx="3.5" ry="3.5"/>
<text text-anchor="middle" x="425.6" y="-736.36" font-family="Helvetica,sans-Serif" font-size="13.60" fill="#4d4d4d">exploitation</text>
</g>
<!-- conflit -->
<g id="node11" class="node">
<title>conflit</title>
<ellipse fill="#540f6d" stroke="white" stroke-width="0" cx="707.05" cy="-713.16" rx="11" ry="11"/>
<text text-anchor="middle" x="670.05" y="-728.72" font-family="Helvetica,sans-Serif" font-size="16.80" fill="#4d4d4d">conflit</text>
</g>
<!-- développement alternatif -->
<g id="node12" class="node">
<title>développement alternatif</title>
<ellipse fill="#040312" stroke="white" stroke-width="0" cx="176.5" cy="-966.22" rx="3.5" ry="3.5"/>
<text text-anchor="middle" x="86.5" y="-973.84" font-family="Helvetica,sans-Serif" font-size="13.60" fill="#4d4d4d">développement alternatif</text>
</g>
<!-- vision positive de la ressource -->
<g id="node13" class="node">
<title>vision positive de la ressource</title>
<ellipse fill="#310a5c" stroke="white" stroke-width="0" cx="692.51" cy="-818.64" rx="7" ry="7"/>
<text text-anchor="middle" x="571.01" y="-830.48" font-family="Helvetica,sans-Serif" font-size="15.20" fill="#4d4d4d">vision positive de la ressource</text>
</g>
<!-- famille -->
<g id="node14" class="node">
<title>famille</title>
<ellipse fill="#060419" stroke="white" stroke-width="0" cx="107.9" cy="-735.07" rx="3.5" ry="3.5"/>
<text text-anchor="middle" x="81.4" y="-742.69" font-family="Helvetica,sans-Serif" font-size="13.60" fill="#4d4d4d">famille</text>
</g>
<!-- développement durable -->
<g id="node15" class="node">
<title>développement durable</title>
<ellipse fill="#61136e" stroke="white" stroke-width="0" cx="803.55" cy="-635.54" rx="11" ry="11"/>
<text text-anchor="middle" x="691.55" y="-651.1" font-family="Helvetica,sans-Serif" font-size="16.80" fill="#4d4d4d">développement durable</text>
</g>
<!-- innovation -->
<g id="node16" class="node">
<title>innovation</title>
<ellipse fill="#7c1d6d" stroke="white" stroke-width="0" cx="797.6" cy="-554.14" rx="14.5" ry="14.5"/>
<text text-anchor="middle" x="733.1" y="-573.92" font-family="Helvetica,sans-Serif" font-size="18.40" fill="#4d4d4d">innovation</text>
</g>
<!-- formation -->
<g id="node17" class="node">
<title>formation</title>
<ellipse fill="#010005" stroke="white" stroke-width="0" cx="472.53" cy="-507.21" rx="0.5" ry="0.5"/>
<text text-anchor="middle" x="443.03" y="-511.11" font-family="Helvetica,sans-Serif" font-size="12.00" fill="#4d4d4d">formation</text>
</g>
<!-- automatisation -->
<g id="node18" class="node">
<title>automatisation</title>
<ellipse fill="#210c4a" stroke="white" stroke-width="0" cx="666.23" cy="-448.44" rx="3.5" ry="3.5"/>
<text text-anchor="middle" x="611.73" y="-456.06" font-family="Helvetica,sans-Serif" font-size="13.60" fill="#4d4d4d">automatisation</text>
</g>
<!-- procédé industriel -->
<g id="node19" class="node">
<title>procédé industriel</title>
<ellipse fill="#0d0829" stroke="white" stroke-width="0" cx="872.36" cy="-386.56" rx="3.5" ry="3.5"/>
<text text-anchor="middle" x="807.36" y="-394.18" font-family="Helvetica,sans-Serif" font-size="13.60" fill="#4d4d4d">procédé industriel</text>
</g>
<!-- exploitation raisonnée -->
<g id="node20" class="node">
<title>exploitation raisonnée</title>
<ellipse fill="#02010a" stroke="white" stroke-width="0" cx="1482.97" cy="-476.51" rx="0.5" ry="0.5"/>
<text text-anchor="middle" x="1415.97" y="-480.41" font-family="Helvetica,sans-Serif" font-size="12.00" fill="#4d4d4d">exploitation raisonnée</text>
</g>
<!-- montagne -->
<g id="node21" class="node">
<title>montagne</title>
<ellipse fill="#0c0826" stroke="white" stroke-width="0" cx="920.81" cy="-3.5" rx="3.5" ry="3.5"/>
<text text-anchor="middle" x="882.31" y="-11.12" font-family="Helvetica,sans-Serif" font-size="13.60" fill="#4d4d4d">montagne</text>
</g>
<!-- biodiversité -->
<g id="node22" class="node">
<title>biodiversité</title>
<ellipse fill="#380962" stroke="white" stroke-width="0" cx="952" cy="-209.43" rx="7" ry="7"/>
<text text-anchor="middle" x="900" y="-221.27" font-family="Helvetica,sans-Serif" font-size="15.20" fill="#4d4d4d">biodiversité</text>
</g>
<!-- milieu -->
<g id="node23" class="node">
<title>milieu</title>
<ellipse fill="#0d0829" stroke="white" stroke-width="0" cx="1117" cy="-245.58" rx="3.5" ry="3.5"/>
<text text-anchor="middle" x="1092.5" y="-253.2" font-family="Helvetica,sans-Serif" font-size="13.60" fill="#4d4d4d">milieu</text>
</g>
<!-- avenir -->
<g id="node24" class="node">
<title>avenir</title>
<ellipse fill="#040314" stroke="white" stroke-width="0" cx="1287.92" cy="-443.62" rx="3.5" ry="3.5"/>
<text text-anchor="middle" x="1262.92" y="-451.24" font-family="Helvetica,sans-Serif" font-size="13.60" fill="#4d4d4d">avenir</text>
</g>
<!-- revenu -->
<g id="node25" class="node">
<title>revenu</title>
<ellipse fill="#09061f" stroke="white" stroke-width="0" cx="1240.64" cy="-316.65" rx="3.5" ry="3.5"/>
<text text-anchor="middle" x="1213.64" y="-324.27" font-family="Helvetica,sans-Serif" font-size="13.60" fill="#4d4d4d">revenu</text>
</g>
<!-- déclin -->
<g id="node26" class="node">
<title>déclin</title>
<ellipse fill="#240c4f" stroke="white" stroke-width="0" cx="1206.23" cy="-640.41" rx="7" ry="7"/>
<text text-anchor="middle" x="1176.23" y="-652.25" font-family="Helvetica,sans-Serif" font-size="15.20" fill="#4d4d4d">déclin</text>
</g>
<!-- richesse -->
<g id="node27" class="node">
<title>richesse</title>
<ellipse fill="#0c0826" stroke="white" stroke-width="0" cx="1163.16" cy="-810.19" rx="3.5" ry="3.5"/>
<text text-anchor="middle" x="1132.16" y="-817.81" font-family="Helvetica,sans-Serif" font-size="13.60" fill="#4d4d4d">richesse</text>
</g>
<!-- santé -->
<g id="node28" class="node">
<title>santé</title>
<ellipse fill="#000004" stroke="white" stroke-width="0" cx="673.53" cy="-58.09" rx="0.5" ry="0.5"/>
<text text-anchor="middle" x="656.03" y="-61.99" font-family="Helvetica,sans-Serif" font-size="12.00" fill="#4d4d4d">santé</text>
</g>
<!-- croissance minière -->
<g id="node29" class="node">
<title>croissance minière</title>
<ellipse fill="#060419" stroke="white" stroke-width="0" cx="1098.19" cy="-397.67" rx="3.5" ry="3.5"/>
<text text-anchor="middle" x="1031.19" y="-405.29" font-family="Helvetica,sans-Serif" font-size="13.60" fill="#4d4d4d">croissance minière</text>
</g>
<!-- production -->
<g id="node30" class="node">
<title>production</title>
<ellipse fill="#0a0722" stroke="white" stroke-width="0" cx="1505.26" cy="-814.58" rx="3.5" ry="3.5"/>
<text text-anchor="middle" x="1465.26" y="-822.2" font-family="Helvetica,sans-Serif" font-size="13.60" fill="#4d4d4d">production</text>
</g>
<!-- sentiment négatif -->
<g id="node31" class="node">
<title>sentiment négatif</title>
<ellipse fill="#010106" stroke="white" stroke-width="0" cx="1224.94" cy="-1105.35" rx="0.5" ry="0.5"/>
<text text-anchor="middle" x="1171.44" y="-1109.25" font-family="Helvetica,sans-Serif" font-size="12.00" fill="#4d4d4d">sentiment négatif</text>
</g>
<!-- main d’oeuvre -->
<g id="node32" class="node">
<title>main d’oeuvre</title>
<ellipse fill="#000004" stroke="white" stroke-width="0" cx="1465.71" cy="-973.5" rx="0.5" ry="0.5"/>
<text text-anchor="middle" x="1421.71" y="-977.4" font-family="Helvetica,sans-Serif" font-size="12.00" fill="#4d4d4d">main d’oeuvre</text>
</g>
<!-- investissement -->
<g id="node33" class="node">
<title>investissement</title>
<ellipse fill="#010005" stroke="white" stroke-width="0" cx="1360.87" cy="-1111.68" rx="0.5" ry="0.5"/>
<text text-anchor="middle" x="1315.37" y="-1115.58" font-family="Helvetica,sans-Serif" font-size="12.00" fill="#4d4d4d">investissement</text>
</g>
<!-- indépendance -->
<g id="node34" class="node">
<title>indépendance</title>
<ellipse fill="#07051b" stroke="white" stroke-width="0" cx="851.09" cy="-1414.62" rx="3.5" ry="3.5"/>
<text text-anchor="middle" x="799.09" y="-1422.24" font-family="Helvetica,sans-Serif" font-size="13.60" fill="#4d4d4d">indépendance</text>
</g>
<!-- développement culturel -->
<g id="node35" class="node">
<title>développement culturel</title>
<ellipse fill="#000004" stroke="white" stroke-width="0" cx="1497.55" cy="-653.99" rx="0.5" ry="0.5"/>
<text text-anchor="middle" x="1426.05" y="-657.89" font-family="Helvetica,sans-Serif" font-size="12.00" fill="#4d4d4d">développement culturel</text>
</g>
</g>
</svg>
