<?xml version="1.0" encoding="UTF-8" standalone="no"?>
<!DOCTYPE svg PUBLIC "-//W3C//DTD SVG 1.1//EN"
 "http://www.w3.org/Graphics/SVG/1.1/DTD/svg11.dtd">
<!-- Generated by graphviz version 2.43.0 (0)
 -->
<!-- Pages: 1 -->
<svg width="355pt" height="204pt"
 viewBox="0.00 0.00 355.28 203.85" xmlns="http://www.w3.org/2000/svg" xmlns:xlink="http://www.w3.org/1999/xlink">
<g id="graph0" class="graph" transform="scale(1 1) rotate(0) translate(4 199.85)">
<polygon fill="white" stroke="transparent" points="-4,4 -4,-199.85 351.28,-199.85 351.28,4 -4,4"/>
<!-- pollution&#45;&#45;épuisement -->
<g id="edge1" class="edge">
<title>pollution&#45;&#45;épuisement</title>
<path fill="none" stroke="darkgrey" stroke-width="4.51" d="M232.85,-95.3C270.21,-91.23 325.29,-85.22 340.04,-83.61"/>
</g>
<!-- pollution&#45;&#45;environnement -->
<g id="edge2" class="edge">
<title>pollution&#45;&#45;environnement</title>
<path fill="none" stroke="darkgrey" stroke-width="4.05" d="M161.08,-102.96C134.92,-105.7 101.15,-109.22 84.02,-111.01"/>
</g>
<!-- pollution&#45;&#45;ressource -->
<g id="edge3" class="edge">
<title>pollution&#45;&#45;ressource</title>
<path fill="none" stroke="darkgrey" stroke-width="2.18" d="M171.43,-125.17C154.08,-142.85 132.56,-164.77 122.88,-174.62"/>
</g>
<!-- pollution&#45;&#45;destruction -->
<g id="edge4" class="edge">
<title>pollution&#45;&#45;destruction</title>
<path fill="none" stroke="darkgrey" stroke-width="7.21" d="M226.61,-119.84C248.1,-134.76 274.93,-153.39 284.24,-159.85"/>
</g>
<!-- pollution&#45;&#45;économie -->
<g id="edge5" class="edge">
<title>pollution&#45;&#45;économie</title>
<path fill="none" stroke="darkgrey" stroke-width="10" d="M167,-78.62C146.28,-64.35 119.78,-46.1 104.63,-35.67"/>
</g>
<!-- pollution&#45;&#45;emploi -->
<g id="edge6" class="edge">
<title>pollution&#45;&#45;emploi</title>
<path fill="none" stroke="darkgrey" stroke-width="9.48" d="M187.28,-64.35C183.07,-49.13 178.44,-32.38 175.51,-21.78"/>
</g>
<!-- pollution&#45;&#45;richesse -->
<g id="edge7" class="edge">
<title>pollution&#45;&#45;richesse</title>
<path fill="none" stroke="darkgrey" stroke-width="1.19" d="M223.71,-74.45C242.25,-57.32 264.28,-36.96 268.24,-33.29"/>
</g>
<!-- environnement&#45;&#45;ressource -->
<g id="edge8" class="edge">
<title>environnement&#45;&#45;ressource</title>
<path fill="none" stroke="darkgrey" stroke-width="1.5" d="M79.22,-121.58C88.54,-135.67 105.86,-161.87 113.7,-173.73"/>
</g>
<!-- environnement&#45;&#45;économie -->
<g id="edge9" class="edge">
<title>environnement&#45;&#45;économie</title>
<path fill="none" stroke="darkgrey" d="M75.47,-101.42C78.96,-86.26 85.34,-58.57 89.23,-41.67"/>
</g>
<!-- économie&#45;&#45;emploi -->
<g id="edge10" class="edge">
<title>économie&#45;&#45;emploi</title>
<path fill="none" stroke="darkgrey" stroke-width="1.09" d="M106.83,-24.42C122.47,-21.22 147.2,-16.17 161.44,-13.26"/>
</g>
<!-- pollution -->
<g id="node1" class="node">
<title>pollution</title>
<ellipse fill="#fcffa4" stroke="white" stroke-width="0" cx="196.92" cy="-99.22" rx="36" ry="36"/>
<text text-anchor="middle" x="142.42" y="-137.82" font-family="Helvetica,sans-Serif" font-size="8.00" fill="#4d4d4d">pollution</text>
</g>
<!-- épuisement -->
<g id="node2" class="node">
<title>épuisement</title>
<ellipse fill="#10092d" stroke="white" stroke-width="0" cx="343.78" cy="-83.2" rx="3.5" ry="3.5"/>
<text text-anchor="middle" x="315.78" y="-89.3" font-family="Helvetica,sans-Serif" font-size="8.00" fill="#4d4d4d">épuisement</text>
</g>
<!-- environnement -->
<g id="node3" class="node">
<title>environnement</title>
<ellipse fill="#5a116e" stroke="white" stroke-width="0" cx="73" cy="-112.16" rx="11" ry="11"/>
<text text-anchor="middle" x="31" y="-125.76" font-family="Helvetica,sans-Serif" font-size="8.00" fill="#4d4d4d">environnement</text>
</g>
<!-- ressource -->
<g id="node4" class="node">
<title>ressource</title>
<ellipse fill="#440a68" stroke="white" stroke-width="0" cx="117.75" cy="-179.85" rx="7" ry="7"/>
<text text-anchor="middle" x="90.75" y="-189.45" font-family="Helvetica,sans-Serif" font-size="8.00" fill="#4d4d4d">ressource</text>
</g>
<!-- destruction -->
<g id="node5" class="node">
<title>destruction</title>
<ellipse fill="#09061f" stroke="white" stroke-width="0" cx="287.6" cy="-162.19" rx="3.5" ry="3.5"/>
<text text-anchor="middle" x="260.6" y="-168.29" font-family="Helvetica,sans-Serif" font-size="8.00" fill="#4d4d4d">destruction</text>
</g>
<!-- économie -->
<g id="node6" class="node">
<title>économie</title>
<ellipse fill="#7c1d6d" stroke="white" stroke-width="0" cx="92.53" cy="-27.34" rx="14.5" ry="14.5"/>
<text text-anchor="middle" x="57.53" y="-44.44" font-family="Helvetica,sans-Serif" font-size="8.00" fill="#4d4d4d">économie</text>
</g>
<!-- emploi -->
<g id="node7" class="node">
<title>emploi</title>
<ellipse fill="#64156e" stroke="white" stroke-width="0" cx="172.53" cy="-11" rx="11" ry="11"/>
<text text-anchor="middle" x="147.53" y="-24.6" font-family="Helvetica,sans-Serif" font-size="8.00" fill="#4d4d4d">emploi</text>
</g>
<!-- richesse -->
<g id="node8" class="node">
<title>richesse</title>
<ellipse fill="#000004" stroke="white" stroke-width="0" cx="268.87" cy="-32.71" rx="0.5" ry="0.5"/>
<text text-anchor="middle" x="250.87" y="-35.81" font-family="Helvetica,sans-Serif" font-size="8.00" fill="#4d4d4d">richesse</text>
</g>
</g>
</svg>
