<?xml version="1.0" encoding="UTF-8" standalone="no"?>
<!DOCTYPE svg PUBLIC "-//W3C//DTD SVG 1.1//EN"
 "http://www.w3.org/Graphics/SVG/1.1/DTD/svg11.dtd">
<!-- Generated by graphviz version 2.43.0 (0)
 -->
<!-- Pages: 1 -->
<svg width="1034pt" height="616pt"
 viewBox="0.00 0.00 1033.60 615.62" xmlns="http://www.w3.org/2000/svg" xmlns:xlink="http://www.w3.org/1999/xlink">
<g id="graph0" class="graph" transform="scale(1 1) rotate(0) translate(4 611.62)">
<polygon fill="white" stroke="transparent" points="-4,4 -4,-611.62 1029.6,-611.62 1029.6,4 -4,4"/>
<!-- pollution&#45;&#45;dégradation environnementale -->
<g id="edge1" class="edge">
<title>pollution&#45;&#45;dégradation environnementale</title>
<path fill="none" stroke="darkgrey" stroke-width="10" d="M430.94,-412.93C452.25,-382.78 500.73,-314.17 527.64,-276.09"/>
</g>
<!-- pollution&#45;&#45;nouvelle&#45;calédonie -->
<g id="edge2" class="edge">
<title>pollution&#45;&#45;nouvelle&#45;calédonie</title>
<path fill="none" stroke="darkgrey" stroke-width="1.46" d="M412.44,-411.4C381.1,-346.68 267.23,-111.5 252.24,-80.55"/>
</g>
<!-- pollution&#45;&#45;travail -->
<g id="edge3" class="edge">
<title>pollution&#45;&#45;travail</title>
<path fill="none" stroke="darkgrey" stroke-width="6.75" d="M411.75,-412.03C396.72,-384.59 365.8,-328.09 348.66,-296.78"/>
</g>
<!-- pollution&#45;&#45;économie -->
<g id="edge4" class="edge">
<title>pollution&#45;&#45;économie</title>
<path fill="none" stroke="darkgrey" stroke-width="5.54" d="M427.95,-411C435.17,-394.89 445.99,-370.75 453.15,-354.77"/>
</g>
<!-- pollution&#45;&#45;nickel -->
<g id="edge5" class="edge">
<title>pollution&#45;&#45;nickel</title>
<path fill="none" stroke="darkgrey" stroke-width="4.93" d="M435.13,-417.17C459.8,-399.28 509.91,-362.95 541.93,-339.74"/>
</g>
<!-- pollution&#45;&#45;ressource minière -->
<g id="edge6" class="edge">
<title>pollution&#45;&#45;ressource minière</title>
<path fill="none" stroke="darkgrey" stroke-width="2" d="M405.47,-417.71C365.11,-390.33 254.7,-315.43 222,-293.25"/>
</g>
<!-- pollution&#45;&#45;politique -->
<g id="edge7" class="edge">
<title>pollution&#45;&#45;politique</title>
<path fill="none" stroke="darkgrey" stroke-width="3.01" d="M417.83,-409.71C411.74,-366.8 396.53,-259.75 390.99,-220.73"/>
</g>
<!-- pollution&#45;&#45;secteur nickel -->
<g id="edge8" class="edge">
<title>pollution&#45;&#45;secteur nickel</title>
<path fill="none" stroke="darkgrey" stroke-width="2.77" d="M403.85,-420.51C393.25,-415.81 379.54,-409.73 368.88,-405.01"/>
</g>
<!-- pollution&#45;&#45;nature -->
<g id="edge9" class="edge">
<title>pollution&#45;&#45;nature</title>
<path fill="none" stroke="darkgrey" stroke-width="3.71" d="M402.6,-424.23C367.72,-417.16 291.01,-401.62 259.12,-395.16"/>
</g>
<!-- pollution&#45;&#45;amélioration environnementale -->
<g id="edge10" class="edge">
<title>pollution&#45;&#45;amélioration environnementale</title>
<path fill="none" stroke="darkgrey" stroke-width="1.01" d="M436.58,-436.37C496.69,-468.06 705.31,-578.03 734.35,-593.34"/>
</g>
<!-- pollution&#45;&#45;société néo&#45;calédonienne -->
<g id="edge11" class="edge">
<title>pollution&#45;&#45;société néo&#45;calédonienne</title>
<path fill="none" stroke="darkgrey" stroke-width="1.24" d="M402.46,-424.68C341.43,-413.9 144.03,-379.06 115.06,-373.95"/>
</g>
<!-- pollution&#45;&#45;exploitation minière -->
<g id="edge12" class="edge">
<title>pollution&#45;&#45;exploitation minière</title>
<path fill="none" stroke="darkgrey" stroke-width="2.1" d="M408.19,-414.4C368.68,-370.93 244.82,-234.64 208.92,-195.14"/>
</g>
<!-- pollution&#45;&#45;alternative au développement -->
<g id="edge13" class="edge">
<title>pollution&#45;&#45;alternative au développement</title>
<path fill="none" stroke="darkgrey" stroke-width="1.91" d="M436.48,-436.35C467.77,-452.9 535.14,-488.55 550.5,-496.68"/>
</g>
<!-- pollution&#45;&#45;matériel -->
<g id="edge14" class="edge">
<title>pollution&#45;&#45;matériel</title>
<path fill="none" stroke="darkgrey" stroke-width="2.84" d="M403.53,-434.68C371.66,-447.58 303.18,-475.32 273.78,-487.22"/>
</g>
<!-- pollution&#45;&#45;foncier -->
<g id="edge15" class="edge">
<title>pollution&#45;&#45;foncier</title>
<path fill="none" stroke="darkgrey" stroke-width="1" d="M421.45,-446.04C423.46,-480.86 427.78,-555.58 429.14,-579.16"/>
</g>
<!-- pollution&#45;&#45;relation politique -->
<g id="edge16" class="edge">
<title>pollution&#45;&#45;relation politique</title>
<path fill="none" stroke="darkgrey" stroke-width="1.01" d="M420.46,-409.69C420.69,-338.88 421.52,-83.45 421.63,-49.84"/>
</g>
<!-- pollution&#45;&#45;industrie -->
<g id="edge17" class="edge">
<title>pollution&#45;&#45;industrie</title>
<path fill="none" stroke="darkgrey" stroke-width="2.6" d="M424.41,-410.22C432.53,-374.5 450.83,-293.98 458.96,-258.19"/>
</g>
<!-- pollution&#45;&#45;échange commercial -->
<g id="edge18" class="edge">
<title>pollution&#45;&#45;échange commercial</title>
<path fill="none" stroke="darkgrey" stroke-width="1.13" d="M414.91,-410.27C396.84,-352.5 339.78,-170.02 327.94,-132.17"/>
</g>
<!-- dégradation environnementale&#45;&#45;nouvelle&#45;calédonie -->
<g id="edge19" class="edge">
<title>dégradation environnementale&#45;&#45;nouvelle&#45;calédonie</title>
<path fill="none" stroke="darkgrey" stroke-width="1.59" d="M518.41,-233.02C450.03,-193.23 278.74,-93.55 253.69,-78.97"/>
</g>
<!-- dégradation environnementale&#45;&#45;travail -->
<g id="edge20" class="edge">
<title>dégradation environnementale&#45;&#45;travail</title>
<path fill="none" stroke="darkgrey" stroke-width="7.8" d="M514.17,-253.27C472.07,-258.34 399.39,-267.1 361.37,-271.67"/>
</g>
<!-- dégradation environnementale&#45;&#45;économie -->
<g id="edge21" class="edge">
<title>dégradation environnementale&#45;&#45;économie</title>
<path fill="none" stroke="darkgrey" stroke-width="7.81" d="M523.47,-273.21C507.36,-289.88 486.43,-311.52 473.24,-325.16"/>
</g>
<!-- dégradation environnementale&#45;&#45;nickel -->
<g id="edge22" class="edge">
<title>dégradation environnementale&#45;&#45;nickel</title>
<path fill="none" stroke="darkgrey" stroke-width="9.22" d="M557.53,-280.33C557.99,-281.63 558.45,-282.93 558.92,-284.23"/>
</g>
<!-- dégradation environnementale&#45;&#45;ressource minière -->
<g id="edge23" class="edge">
<title>dégradation environnementale&#45;&#45;ressource minière</title>
<path fill="none" stroke="darkgrey" stroke-width="4.19" d="M514.21,-253.02C441.74,-261.18 269,-280.64 223.76,-285.74"/>
</g>
<!-- dégradation environnementale&#45;&#45;politique -->
<g id="edge24" class="edge">
<title>dégradation environnementale&#45;&#45;politique</title>
<path fill="none" stroke="darkgrey" stroke-width="4.22" d="M515.01,-240.75C480.87,-231.39 427.96,-216.9 402.94,-210.04"/>
</g>
<!-- dégradation environnementale&#45;&#45;secteur nickel -->
<g id="edge25" class="edge">
<title>dégradation environnementale&#45;&#45;secteur nickel</title>
<path fill="none" stroke="darkgrey" stroke-width="4.02" d="M520.28,-269.36C478.8,-300.95 399.43,-361.41 366.68,-386.35"/>
</g>
<!-- dégradation environnementale&#45;&#45;nature -->
<g id="edge26" class="edge">
<title>dégradation environnementale&#45;&#45;nature</title>
<path fill="none" stroke="darkgrey" stroke-width="5.5" d="M517.04,-263.34C452.97,-293.67 303.19,-364.59 257.95,-386.01"/>
</g>
<!-- dégradation environnementale&#45;&#45;amélioration environnementale -->
<g id="edge27" class="edge">
<title>dégradation environnementale&#45;&#45;amélioration environnementale</title>
<path fill="none" stroke="darkgrey" stroke-width="1.27" d="M562.33,-277.97C604.91,-354.98 719.9,-562.92 735.86,-591.78"/>
</g>
<!-- dégradation environnementale&#45;&#45;société néo&#45;calédonienne -->
<g id="edge28" class="edge">
<title>dégradation environnementale&#45;&#45;société néo&#45;calédonienne</title>
<path fill="none" stroke="darkgrey" stroke-width="1.96" d="M515.23,-258.29C421.72,-284.94 148.7,-362.72 114.94,-372.34"/>
</g>
<!-- dégradation environnementale&#45;&#45;exploitation minière -->
<g id="edge29" class="edge">
<title>dégradation environnementale&#45;&#45;exploitation minière</title>
<path fill="none" stroke="darkgrey" stroke-width="3.86" d="M514.45,-243.38C441.38,-229.69 264.82,-196.63 213.37,-186.99"/>
</g>
<!-- dégradation environnementale&#45;&#45;alternative au développement -->
<g id="edge30" class="edge">
<title>dégradation environnementale&#45;&#45;alternative au développement</title>
<path fill="none" stroke="darkgrey" stroke-width="2.22" d="M547.45,-281.93C549.21,-343.09 552.88,-471.14 553.56,-494.61"/>
</g>
<!-- dégradation environnementale&#45;&#45;matériel -->
<g id="edge31" class="edge">
<title>dégradation environnementale&#45;&#45;matériel</title>
<path fill="none" stroke="darkgrey" stroke-width="4.49" d="M521.58,-270.56C461.93,-321.23 312.84,-447.88 270.99,-483.43"/>
</g>
<!-- dégradation environnementale&#45;&#45;foncier -->
<g id="edge32" class="edge">
<title>dégradation environnementale&#45;&#45;foncier</title>
<path fill="none" stroke="darkgrey" stroke-width="2.31" d="M535.83,-280.19C510,-354.62 445.35,-540.95 432,-579.42"/>
</g>
<!-- dégradation environnementale&#45;&#45;relation politique -->
<g id="edge33" class="edge">
<title>dégradation environnementale&#45;&#45;relation politique</title>
<path fill="none" stroke="darkgrey" stroke-width="1.18" d="M529.42,-221.55C498.42,-171.12 435.09,-68.07 423.49,-49.19"/>
</g>
<!-- dégradation environnementale&#45;&#45;industrie -->
<g id="edge34" class="edge">
<title>dégradation environnementale&#45;&#45;industrie</title>
<path fill="none" stroke="darkgrey" stroke-width="3.39" d="M513.98,-245.91C502.8,-244.72 490.7,-243.43 481.09,-242.4"/>
</g>
<!-- dégradation environnementale&#45;&#45;échange commercial -->
<g id="edge36" class="edge">
<title>dégradation environnementale&#45;&#45;échange commercial</title>
<path fill="none" stroke="darkgrey" stroke-width="2.13" d="M518.11,-233.41C466.18,-204.2 358.78,-143.81 331.96,-128.73"/>
</g>
<!-- dégradation environnementale&#45;&#45;risque -->
<g id="edge35" class="edge">
<title>dégradation environnementale&#45;&#45;risque</title>
<path fill="none" stroke="darkgrey" stroke-width="1.85" d="M560.7,-219.72C589.28,-159.94 651.99,-28.79 662.56,-6.69"/>
</g>
<!-- dégradation environnementale&#45;&#45;avenir sans nickel -->
<g id="edge37" class="edge">
<title>dégradation environnementale&#45;&#45;avenir sans nickel</title>
<path fill="none" stroke="darkgrey" stroke-width="1.16" d="M579.04,-246.45C684.23,-236.97 1009.37,-207.68 1024.55,-206.31"/>
</g>
<!-- nouvelle&#45;calédonie&#45;&#45;travail -->
<g id="edge38" class="edge">
<title>nouvelle&#45;calédonie&#45;&#45;travail</title>
<path fill="none" stroke="darkgrey" stroke-width="1.67" d="M252.1,-80.61C260.89,-100.79 306.16,-204.82 326.56,-251.71"/>
</g>
<!-- nouvelle&#45;calédonie&#45;&#45;économie -->
<g id="edge39" class="edge">
<title>nouvelle&#45;calédonie&#45;&#45;économie</title>
<path fill="none" stroke="darkgrey" stroke-width="1.37" d="M252.97,-80.11C272.56,-104.49 408.69,-273.81 449.19,-324.19"/>
</g>
<!-- nouvelle&#45;calédonie&#45;&#45;nickel -->
<g id="edge40" class="edge">
<title>nouvelle&#45;calédonie&#45;&#45;nickel</title>
<path fill="none" stroke="darkgrey" stroke-width="2.88" d="M253.79,-79.57C280.54,-99.72 469.28,-241.86 542.34,-296.88"/>
</g>
<!-- nouvelle&#45;calédonie&#45;&#45;ressource minière -->
<g id="edge41" class="edge">
<title>nouvelle&#45;calédonie&#45;&#45;ressource minière</title>
<path fill="none" stroke="darkgrey" stroke-width="1.41" d="M249.96,-80.82C245.69,-104.49 221.82,-236.75 214.74,-276"/>
</g>
<!-- nouvelle&#45;calédonie&#45;&#45;politique -->
<g id="edge42" class="edge">
<title>nouvelle&#45;calédonie&#45;&#45;politique</title>
<path fill="none" stroke="darkgrey" stroke-width="2.14" d="M253.5,-79.87C269.64,-94.93 348.96,-168.92 378.14,-196.13"/>
</g>
<!-- nouvelle&#45;calédonie&#45;&#45;secteur nickel -->
<g id="edge43" class="edge">
<title>nouvelle&#45;calédonie&#45;&#45;secteur nickel</title>
<path fill="none" stroke="darkgrey" stroke-width="1.71" d="M251.75,-80.78C261.22,-110.68 326.96,-318.42 346.53,-380.22"/>
</g>
<!-- nouvelle&#45;calédonie&#45;&#45;nature -->
<g id="edge44" class="edge">
<title>nouvelle&#45;calédonie&#45;&#45;nature</title>
<path fill="none" stroke="darkgrey" stroke-width="1.18" d="M250.55,-80.72C250,-110.53 246.12,-320.11 245.05,-377.66"/>
</g>
<!-- nouvelle&#45;calédonie&#45;&#45;exploitation minière -->
<g id="edge45" class="edge">
<title>nouvelle&#45;calédonie&#45;&#45;exploitation minière</title>
<path fill="none" stroke="darkgrey" stroke-width="1.22" d="M248.9,-80.74C242.16,-94.76 217.26,-146.51 205.42,-171.13"/>
</g>
<!-- nouvelle&#45;calédonie&#45;&#45;industrie -->
<g id="edge46" class="edge">
<title>nouvelle&#45;calédonie&#45;&#45;industrie</title>
<path fill="none" stroke="darkgrey" stroke-width="1.57" d="M253.62,-79.49C274.99,-95.92 404.55,-195.54 448.45,-229.3"/>
</g>
<!-- travail&#45;&#45;économie -->
<g id="edge47" class="edge">
<title>travail&#45;&#45;économie</title>
<path fill="none" stroke="darkgrey" stroke-width="7.8" d="M359,-286.19C383.56,-298.8 422.34,-318.7 444.18,-329.91"/>
</g>
<!-- travail&#45;&#45;nickel -->
<g id="edge48" class="edge">
<title>travail&#45;&#45;nickel</title>
<path fill="none" stroke="darkgrey" stroke-width="8.18" d="M361.21,-279.28C402.85,-287.07 487.26,-302.87 535.39,-311.88"/>
</g>
<!-- travail&#45;&#45;ressource minière -->
<g id="edge49" class="edge">
<title>travail&#45;&#45;ressource minière</title>
<path fill="none" stroke="darkgrey" stroke-width="3.39" d="M311.5,-277.16C284.65,-279.83 243.26,-283.94 223.71,-285.89"/>
</g>
<!-- travail&#45;&#45;politique -->
<g id="edge50" class="edge">
<title>travail&#45;&#45;politique</title>
<path fill="none" stroke="darkgrey" stroke-width="4.15" d="M351.98,-254.49C361.04,-242.66 372.16,-228.12 379.83,-218.1"/>
</g>
<!-- travail&#45;&#45;secteur nickel -->
<g id="edge51" class="edge">
<title>travail&#45;&#45;secteur nickel</title>
<path fill="none" stroke="darkgrey" stroke-width="5.09" d="M339.68,-299.53C342.66,-323.23 347.07,-358.35 349.73,-379.48"/>
</g>
<!-- travail&#45;&#45;nature -->
<g id="edge52" class="edge">
<title>travail&#45;&#45;nature</title>
<path fill="none" stroke="darkgrey" stroke-width="3.32" d="M320.98,-294.61C301.65,-319.38 269.33,-360.79 253.74,-380.77"/>
</g>
<!-- travail&#45;&#45;société néo&#45;calédonienne -->
<g id="edge53" class="edge">
<title>travail&#45;&#45;société néo&#45;calédonienne</title>
<path fill="none" stroke="darkgrey" stroke-width="1.86" d="M313.31,-284.85C260.98,-307.79 136.73,-362.26 114.83,-371.86"/>
</g>
<!-- travail&#45;&#45;exploitation minière -->
<g id="edge54" class="edge">
<title>travail&#45;&#45;exploitation minière</title>
<path fill="none" stroke="darkgrey" stroke-width="3.14" d="M315.37,-260.74C286.3,-241.64 234.96,-207.9 211.45,-192.45"/>
</g>
<!-- travail&#45;&#45;alternative au développement -->
<g id="edge55" class="edge">
<title>travail&#45;&#45;alternative au développement</title>
<path fill="none" stroke="darkgrey" stroke-width="1.32" d="M354.32,-292.97C402.12,-342.22 531.2,-475.21 551.08,-495.68"/>
</g>
<!-- travail&#45;&#45;matériel -->
<g id="edge56" class="edge">
<title>travail&#45;&#45;matériel</title>
<path fill="none" stroke="darkgrey" stroke-width="3.75" d="M328.2,-298.43C312.18,-344.04 277.57,-442.56 264.79,-478.96"/>
</g>
<!-- travail&#45;&#45;foncier -->
<g id="edge57" class="edge">
<title>travail&#45;&#45;foncier</title>
<path fill="none" stroke="darkgrey" stroke-width="1.43" d="M343.77,-298.87C363.32,-364.4 416.54,-542.8 427.55,-579.71"/>
</g>
<!-- travail&#45;&#45;relation politique -->
<g id="edge58" class="edge">
<title>travail&#45;&#45;relation politique</title>
<path fill="none" stroke="darkgrey" stroke-width="1.28" d="M345.33,-251.07C365.12,-197.94 412.1,-71.8 420.39,-49.56"/>
</g>
<!-- travail&#45;&#45;industrie -->
<g id="edge59" class="edge">
<title>travail&#45;&#45;industrie</title>
<path fill="none" stroke="darkgrey" stroke-width="3.85" d="M360.93,-268.07C385.76,-261.36 423.63,-251.11 445.59,-245.18"/>
</g>
<!-- travail&#45;&#45;échange commercial -->
<g id="edge61" class="edge">
<title>travail&#45;&#45;échange commercial</title>
<path fill="none" stroke="darkgrey" stroke-width="1.94" d="M334.75,-249.66C332.23,-214.77 327.81,-153.41 326.3,-132.48"/>
</g>
<!-- travail&#45;&#45;risque -->
<g id="edge60" class="edge">
<title>travail&#45;&#45;risque</title>
<path fill="none" stroke="darkgrey" stroke-width="1.91" d="M356.06,-258.51C421.89,-204.01 633.28,-29.01 661.06,-6"/>
</g>
<!-- économie&#45;&#45;nickel -->
<g id="edge62" class="edge">
<title>économie&#45;&#45;nickel</title>
<path fill="none" stroke="darkgrey" stroke-width="6.2" d="M478.3,-335.13C493.69,-332.38 516.42,-328.33 535.53,-324.92"/>
</g>
<!-- économie&#45;&#45;ressource minière -->
<g id="edge63" class="edge">
<title>économie&#45;&#45;ressource minière</title>
<path fill="none" stroke="darkgrey" stroke-width="2.29" d="M442.71,-334.61C394.56,-324.63 262.81,-297.35 223.79,-289.26"/>
</g>
<!-- économie&#45;&#45;politique -->
<g id="edge64" class="edge">
<title>économie&#45;&#45;politique</title>
<path fill="none" stroke="darkgrey" stroke-width="4.66" d="M451.9,-322.37C437.54,-295.88 409.04,-243.31 395.89,-219.03"/>
</g>
<!-- économie&#45;&#45;secteur nickel -->
<g id="edge65" class="edge">
<title>économie&#45;&#45;secteur nickel</title>
<path fill="none" stroke="darkgrey" stroke-width="3.39" d="M444.52,-347.04C424,-358.24 388.63,-377.54 368.08,-388.76"/>
</g>
<!-- économie&#45;&#45;nature -->
<g id="edge66" class="edge">
<title>économie&#45;&#45;nature</title>
<path fill="none" stroke="darkgrey" stroke-width="2.66" d="M442.88,-342.72C401.11,-353.16 296.91,-379.21 258.92,-388.71"/>
</g>
<!-- économie&#45;&#45;amélioration environnementale -->
<g id="edge67" class="edge">
<title>économie&#45;&#45;amélioration environnementale</title>
<path fill="none" stroke="darkgrey" stroke-width="1" d="M473.9,-350.69C525.59,-398.58 710.7,-570.09 735.06,-592.66"/>
</g>
<!-- économie&#45;&#45;société néo&#45;calédonienne -->
<g id="edge68" class="edge">
<title>économie&#45;&#45;société néo&#45;calédonienne</title>
<path fill="none" stroke="darkgrey" stroke-width="1.34" d="M442.26,-340.13C375.49,-346.83 146.99,-369.76 115.19,-372.95"/>
</g>
<!-- économie&#45;&#45;exploitation minière -->
<g id="edge69" class="edge">
<title>économie&#45;&#45;exploitation minière</title>
<path fill="none" stroke="darkgrey" stroke-width="1.86" d="M444.96,-329.13C397.47,-301.16 255.07,-217.29 211.73,-191.77"/>
</g>
<!-- économie&#45;&#45;alternative au développement -->
<g id="edge70" class="edge">
<title>économie&#45;&#45;alternative au développement</title>
<path fill="none" stroke="darkgrey" stroke-width="1.47" d="M469.63,-353.94C490.69,-390.12 541.74,-477.85 551.89,-495.3"/>
</g>
<!-- économie&#45;&#45;matériel -->
<g id="edge71" class="edge">
<title>économie&#45;&#45;matériel</title>
<path fill="none" stroke="darkgrey" stroke-width="2.2" d="M446.1,-349.41C408.19,-378.62 306.29,-457.12 271.63,-483.81"/>
</g>
<!-- économie&#45;&#45;foncier -->
<g id="edge72" class="edge">
<title>économie&#45;&#45;foncier</title>
<path fill="none" stroke="darkgrey" stroke-width="1.1" d="M458.26,-356.55C451.97,-406.91 434.57,-546.33 430.45,-579.36"/>
</g>
<!-- économie&#45;&#45;relation politique -->
<g id="edge73" class="edge">
<title>économie&#45;&#45;relation politique</title>
<path fill="none" stroke="darkgrey" stroke-width="1.31" d="M458.1,-320.03C450.25,-261.07 425.89,-78.09 422.13,-49.86"/>
</g>
<!-- économie&#45;&#45;industrie -->
<g id="edge74" class="edge">
<title>économie&#45;&#45;industrie</title>
<path fill="none" stroke="darkgrey" stroke-width="2.58" d="M460.99,-319.9C461.43,-302.41 462.09,-276.25 462.53,-258.79"/>
</g>
<!-- économie&#45;&#45;échange commercial -->
<g id="edge76" class="edge">
<title>économie&#45;&#45;échange commercial</title>
<path fill="none" stroke="darkgrey" stroke-width="1.65" d="M450.84,-322.98C423.69,-280.05 347.66,-159.84 329.64,-131.36"/>
</g>
<!-- économie&#45;&#45;risque -->
<g id="edge75" class="edge">
<title>économie&#45;&#45;risque</title>
<path fill="none" stroke="darkgrey" stroke-width="1.09" d="M470.08,-322.6C507.65,-260.81 644.16,-36.27 662.13,-6.72"/>
</g>
<!-- nickel&#45;&#45;ressource minière -->
<g id="edge77" class="edge">
<title>nickel&#45;&#45;ressource minière</title>
<path fill="none" stroke="darkgrey" stroke-width="5.44" d="M535.13,-315.39C456.14,-308.43 270.93,-292.11 223.81,-287.95"/>
</g>
<!-- nickel&#45;&#45;politique -->
<g id="edge78" class="edge">
<title>nickel&#45;&#45;politique</title>
<path fill="none" stroke="darkgrey" stroke-width="2.69" d="M540.22,-299.5C499.61,-274.46 430.11,-231.6 401.65,-214.05"/>
</g>
<!-- nickel&#45;&#45;secteur nickel -->
<g id="edge79" class="edge">
<title>nickel&#45;&#45;secteur nickel</title>
<path fill="none" stroke="darkgrey" stroke-width="6.25" d="M536.89,-330.9C489.35,-348.04 405.12,-378.39 369.11,-391.37"/>
</g>
<!-- nickel&#45;&#45;nature -->
<g id="edge80" class="edge">
<title>nickel&#45;&#45;nature</title>
<path fill="none" stroke="darkgrey" stroke-width="5.67" d="M535.9,-326.52C464.86,-342.56 307.13,-378.17 259,-389.04"/>
</g>
<!-- nickel&#45;&#45;exploitation minière -->
<g id="edge81" class="edge">
<title>nickel&#45;&#45;exploitation minière</title>
<path fill="none" stroke="darkgrey" stroke-width="7.42" d="M537.13,-306.29C458.38,-277.88 266.14,-208.51 212.93,-189.31"/>
</g>
<!-- nickel&#45;&#45;alternative au développement -->
<g id="edge82" class="edge">
<title>nickel&#45;&#45;alternative au développement</title>
<path fill="none" stroke="darkgrey" stroke-width="1.65" d="M567.64,-354.51C563.14,-400.83 555.69,-477.47 554.01,-494.79"/>
</g>
<!-- nickel&#45;&#45;matériel -->
<g id="edge83" class="edge">
<title>nickel&#45;&#45;matériel</title>
<path fill="none" stroke="darkgrey" stroke-width="5.49" d="M539.58,-336.23C472.51,-373.79 318.2,-460.2 272.74,-485.66"/>
</g>
<!-- nickel&#45;&#45;foncier -->
<g id="edge84" class="edge">
<title>nickel&#45;&#45;foncier</title>
<path fill="none" stroke="darkgrey" stroke-width="2.16" d="M554.2,-350.61C521.02,-413.38 449.29,-549.12 432.93,-580.07"/>
</g>
<!-- nickel&#45;&#45;relation politique -->
<g id="edge85" class="edge">
<title>nickel&#45;&#45;relation politique</title>
<path fill="none" stroke="darkgrey" stroke-width="1.23" d="M553.69,-286.79C517.49,-220.83 436.48,-73.22 423.43,-49.44"/>
</g>
<!-- nickel&#45;&#45;industrie -->
<g id="edge86" class="edge">
<title>nickel&#45;&#45;industrie</title>
<path fill="none" stroke="darkgrey" stroke-width="8.05" d="M541.87,-297.43C521.1,-282.44 494.1,-262.94 477.68,-251.08"/>
</g>
<!-- nickel&#45;&#45;échange commercial -->
<g id="edge87" class="edge">
<title>nickel&#45;&#45;échange commercial</title>
<path fill="none" stroke="darkgrey" stroke-width="2.66" d="M542.51,-296.01C485.12,-250.8 359.1,-151.51 331.28,-129.59"/>
</g>
<!-- nickel&#45;&#45;avenir sans nickel -->
<g id="edge88" class="edge">
<title>nickel&#45;&#45;avenir sans nickel</title>
<path fill="none" stroke="darkgrey" stroke-width="1.03" d="M606.38,-309.85C710.54,-284.08 1010.59,-209.85 1024.59,-206.39"/>
</g>
<!-- ressource minière&#45;&#45;politique -->
<g id="edge89" class="edge">
<title>ressource minière&#45;&#45;politique</title>
<path fill="none" stroke="darkgrey" stroke-width="3.08" d="M222.99,-282.29C253.1,-268.48 341.4,-228 375.38,-212.42"/>
</g>
<!-- ressource minière&#45;&#45;secteur nickel -->
<g id="edge90" class="edge">
<title>ressource minière&#45;&#45;secteur nickel</title>
<path fill="none" stroke="darkgrey" stroke-width="1.98" d="M221.47,-293.89C244.81,-312.42 308.93,-363.33 337.7,-386.17"/>
</g>
<!-- ressource minière&#45;&#45;nature -->
<g id="edge91" class="edge">
<title>ressource minière&#45;&#45;nature</title>
<path fill="none" stroke="darkgrey" stroke-width="1.94" d="M216.06,-297.85C221.91,-317.07 234.07,-357.05 240.53,-378.29"/>
</g>
<!-- ressource minière&#45;&#45;exploitation minière -->
<g id="edge92" class="edge">
<title>ressource minière&#45;&#45;exploitation minière</title>
<path fill="none" stroke="darkgrey" stroke-width="2.55" d="M211.29,-275.99C208.81,-257.37 203.78,-219.61 201.01,-198.83"/>
</g>
<!-- ressource minière&#45;&#45;alternative au développement -->
<g id="edge93" class="edge">
<title>ressource minière&#45;&#45;alternative au développement</title>
<path fill="none" stroke="darkgrey" stroke-width="1.01" d="M222.23,-292.85C273.85,-324.86 519.98,-477.46 550.55,-496.42"/>
</g>
<!-- ressource minière&#45;&#45;matériel -->
<g id="edge94" class="edge">
<title>ressource minière&#45;&#45;matériel</title>
<path fill="none" stroke="darkgrey" stroke-width="1.99" d="M215.22,-297.76C223.11,-332.17 247.68,-439.45 256.62,-478.47"/>
</g>
<!-- ressource minière&#45;&#45;industrie -->
<g id="edge95" class="edge">
<title>ressource minière&#45;&#45;industrie</title>
<path fill="none" stroke="darkgrey" stroke-width="2.54" d="M223.83,-284.92C263.18,-277.61 396.46,-252.84 445.06,-243.8"/>
</g>
<!-- ressource minière&#45;&#45;échange commercial -->
<g id="edge96" class="edge">
<title>ressource minière&#45;&#45;échange commercial</title>
<path fill="none" stroke="darkgrey" stroke-width="1.58" d="M219.16,-277.82C239.89,-248.15 304.85,-155.21 321.73,-131.04"/>
</g>
<!-- politique&#45;&#45;secteur nickel -->
<g id="edge97" class="edge">
<title>politique&#45;&#45;secteur nickel</title>
<path fill="none" stroke="darkgrey" stroke-width="3.18" d="M386.16,-220.58C379.51,-255 362.72,-342.03 355.45,-379.7"/>
</g>
<!-- politique&#45;&#45;nature -->
<g id="edge98" class="edge">
<title>politique&#45;&#45;nature</title>
<path fill="none" stroke="darkgrey" stroke-width="1.49" d="M379.91,-217.84C354.03,-251.25 279.68,-347.21 253.79,-380.61"/>
</g>
<!-- politique&#45;&#45;société néo&#45;calédonienne -->
<g id="edge99" class="edge">
<title>politique&#45;&#45;société néo&#45;calédonienne</title>
<path fill="none" stroke="darkgrey" stroke-width="1.54" d="M376.29,-213.82C326.04,-244.08 141.89,-355.02 114.83,-371.32"/>
</g>
<!-- politique&#45;&#45;exploitation minière -->
<g id="edge100" class="edge">
<title>politique&#45;&#45;exploitation minière</title>
<path fill="none" stroke="darkgrey" stroke-width="1.85" d="M374.35,-204.52C339.01,-200.45 249.1,-190.08 213.71,-186"/>
</g>
<!-- politique&#45;&#45;alternative au développement -->
<g id="edge101" class="edge">
<title>politique&#45;&#45;alternative au développement</title>
<path fill="none" stroke="darkgrey" stroke-width="1.54" d="M396.22,-219.13C425.86,-271.7 536.47,-467.86 551.88,-495.18"/>
</g>
<!-- politique&#45;&#45;matériel -->
<g id="edge102" class="edge">
<title>politique&#45;&#45;matériel</title>
<path fill="none" stroke="darkgrey" stroke-width="1.38" d="M382.88,-219.64C361.21,-267.79 287.6,-431.33 265.95,-479.43"/>
</g>
<!-- politique&#45;&#45;foncier -->
<g id="edge103" class="edge">
<title>politique&#45;&#45;foncier</title>
<path fill="none" stroke="darkgrey" stroke-width="1.25" d="M390.47,-220.64C397.21,-283.72 423.95,-533.95 428.8,-579.36"/>
</g>
<!-- politique&#45;&#45;relation politique -->
<g id="edge104" class="edge">
<title>politique&#45;&#45;relation politique</title>
<path fill="none" stroke="darkgrey" stroke-width="1.85" d="M391.89,-191.72C399.06,-156.64 417.06,-68.6 420.91,-49.77"/>
</g>
<!-- politique&#45;&#45;industrie -->
<g id="edge105" class="edge">
<title>politique&#45;&#45;industrie</title>
<path fill="none" stroke="darkgrey" stroke-width="2.76" d="M402.17,-212.33C414.57,-218.07 433.14,-226.66 446.49,-232.84"/>
</g>
<!-- politique&#45;&#45;échange commercial -->
<g id="edge107" class="edge">
<title>politique&#45;&#45;échange commercial</title>
<path fill="none" stroke="darkgrey" stroke-width="1.62" d="M379.88,-194.61C366.1,-176.94 340.39,-143.98 330.15,-130.85"/>
</g>
<!-- politique&#45;&#45;risque -->
<g id="edge106" class="edge">
<title>politique&#45;&#45;risque</title>
<path fill="none" stroke="darkgrey" stroke-width="1.01" d="M400.75,-197.49C449.72,-161.42 635.24,-24.75 661.09,-5.71"/>
</g>
<!-- secteur nickel&#45;&#45;nature -->
<g id="edge108" class="edge">
<title>secteur nickel&#45;&#45;nature</title>
<path fill="none" stroke="darkgrey" stroke-width="1.97" d="M333.81,-396.63C312.78,-395.6 278.59,-393.91 259.27,-392.96"/>
</g>
<!-- secteur nickel&#45;&#45;amélioration environnementale -->
<g id="edge109" class="edge">
<title>secteur nickel&#45;&#45;amélioration environnementale</title>
<path fill="none" stroke="darkgrey" stroke-width="1.16" d="M368.09,-405.77C436.52,-440.83 701.51,-576.57 734.36,-593.4"/>
</g>
<!-- secteur nickel&#45;&#45;société néo&#45;calédonienne -->
<g id="edge110" class="edge">
<title>secteur nickel&#45;&#45;société néo&#45;calédonienne</title>
<path fill="none" stroke="darkgrey" stroke-width="1.4" d="M333.93,-395.71C282.8,-390.56 139.3,-376.12 115.01,-373.67"/>
</g>
<!-- secteur nickel&#45;&#45;exploitation minière -->
<g id="edge111" class="edge">
<title>secteur nickel&#45;&#45;exploitation minière</title>
<path fill="none" stroke="darkgrey" stroke-width="2.19" d="M341.49,-382.88C312.81,-342.89 233.62,-232.47 207.53,-196.1"/>
</g>
<!-- secteur nickel&#45;&#45;alternative au développement -->
<g id="edge112" class="edge">
<title>secteur nickel&#45;&#45;alternative au développement</title>
<path fill="none" stroke="darkgrey" stroke-width="1.27" d="M368.17,-405.61C411.53,-427.29 528.64,-485.84 550.22,-496.63"/>
</g>
<!-- secteur nickel&#45;&#45;matériel -->
<g id="edge113" class="edge">
<title>secteur nickel&#45;&#45;matériel</title>
<path fill="none" stroke="darkgrey" stroke-width="2.53" d="M339.2,-410.78C320.71,-429.91 286.93,-464.88 270.06,-482.34"/>
</g>
<!-- secteur nickel&#45;&#45;foncier -->
<g id="edge114" class="edge">
<title>secteur nickel&#45;&#45;foncier</title>
<path fill="none" stroke="darkgrey" stroke-width="1.94" d="M358.89,-414.3C375.27,-454.21 416.04,-553.5 426.88,-579.91"/>
</g>
<!-- secteur nickel&#45;&#45;relation politique -->
<g id="edge115" class="edge">
<title>secteur nickel&#45;&#45;relation politique</title>
<path fill="none" stroke="darkgrey" stroke-width="1.05" d="M355.55,-379.62C368.75,-313.06 414.53,-82.06 420.91,-49.91"/>
</g>
<!-- secteur nickel&#45;&#45;industrie -->
<g id="edge116" class="edge">
<title>secteur nickel&#45;&#45;industrie</title>
<path fill="none" stroke="darkgrey" stroke-width="5.22" d="M362.44,-382.76C383.6,-352.82 431.29,-285.32 452.49,-255.32"/>
</g>
<!-- secteur nickel&#45;&#45;échange commercial -->
<g id="edge117" class="edge">
<title>secteur nickel&#45;&#45;échange commercial</title>
<path fill="none" stroke="darkgrey" stroke-width="2.1" d="M350.24,-379.24C345.05,-325.35 329.96,-168.66 326.5,-132.68"/>
</g>
<!-- nature&#45;&#45;société néo&#45;calédonienne -->
<g id="edge118" class="edge">
<title>nature&#45;&#45;société néo&#45;calédonienne</title>
<path fill="none" stroke="darkgrey" stroke-width="1.44" d="M230.26,-390.19C200.04,-385.89 131.78,-376.2 115.19,-373.84"/>
</g>
<!-- nature&#45;&#45;exploitation minière -->
<g id="edge119" class="edge">
<title>nature&#45;&#45;exploitation minière</title>
<path fill="none" stroke="darkgrey" stroke-width="1.6" d="M241.64,-377.96C233.29,-339.97 210.61,-236.81 202.24,-198.71"/>
</g>
<!-- nature&#45;&#45;alternative au développement -->
<g id="edge120" class="edge">
<title>nature&#45;&#45;alternative au développement</title>
<path fill="none" stroke="darkgrey" d="M258.86,-397.08C315.03,-416.38 521.56,-487.32 550.33,-497.2"/>
</g>
<!-- nature&#45;&#45;matériel -->
<g id="edge121" class="edge">
<title>nature&#45;&#45;matériel</title>
<path fill="none" stroke="darkgrey" stroke-width="3.25" d="M246.95,-406.66C249.82,-425.78 254.87,-459.34 257.75,-478.45"/>
</g>
<!-- nature&#45;&#45;foncier -->
<g id="edge122" class="edge">
<title>nature&#45;&#45;foncier</title>
<path fill="none" stroke="darkgrey" stroke-width="1.55" d="M254.98,-402.97C289.33,-439.06 400.03,-555.41 424.67,-581.3"/>
</g>
<!-- nature&#45;&#45;industrie -->
<g id="edge123" class="edge">
<title>nature&#45;&#45;industrie</title>
<path fill="none" stroke="darkgrey" stroke-width="2.57" d="M256.82,-383.87C294.08,-357.96 407.4,-279.13 448.17,-250.77"/>
</g>
<!-- nature&#45;&#45;échange commercial -->
<g id="edge124" class="edge">
<title>nature&#45;&#45;échange commercial</title>
<path fill="none" stroke="darkgrey" stroke-width="1.3" d="M249.02,-378.27C263.8,-329.56 312.72,-168.3 323.62,-132.38"/>
</g>
<!-- société néo&#45;calédonienne&#45;&#45;matériel -->
<g id="edge125" class="edge">
<title>société néo&#45;calédonienne&#45;&#45;matériel</title>
<path fill="none" stroke="darkgrey" stroke-width="1.6" d="M114.33,-375.6C131,-389.03 216.69,-458.03 248.23,-483.44"/>
</g>
<!-- société néo&#45;calédonienne&#45;&#45;relation politique -->
<g id="edge126" class="edge">
<title>société néo&#45;calédonienne&#45;&#45;relation politique</title>
<path fill="none" stroke="darkgrey" stroke-width="1.13" d="M114.18,-370.49C142.72,-340.39 390.01,-79.55 418.89,-49.08"/>
</g>
<!-- exploitation minière&#45;&#45;matériel -->
<g id="edge127" class="edge">
<title>exploitation minière&#45;&#45;matériel</title>
<path fill="none" stroke="darkgrey" stroke-width="2.75" d="M201.93,-198.78C212.15,-250.6 246.86,-426.63 257.06,-478.4"/>
</g>
<!-- exploitation minière&#45;&#45;relation politique -->
<g id="edge128" class="edge">
<title>exploitation minière&#45;&#45;relation politique</title>
<path fill="none" stroke="darkgrey" stroke-width="1.03" d="M211.68,-176.49C254.9,-149.67 395.7,-62.28 418.51,-48.13"/>
</g>
<!-- exploitation minière&#45;&#45;industrie -->
<g id="edge129" class="edge">
<title>exploitation minière&#45;&#45;industrie</title>
<path fill="none" stroke="darkgrey" stroke-width="2.99" d="M213.26,-187.33C258.02,-196.86 396.14,-226.25 445.35,-236.72"/>
</g>
<!-- exploitation minière&#45;&#45;échange commercial -->
<g id="edge130" class="edge">
<title>exploitation minière&#45;&#45;échange commercial</title>
<path fill="none" stroke="darkgrey" stroke-width="1.91" d="M212.63,-177.99C239.7,-165.38 299.53,-137.49 319.3,-128.28"/>
</g>
<!-- alternative au développement&#45;&#45;industrie -->
<g id="edge131" class="edge">
<title>alternative au développement&#45;&#45;industrie</title>
<path fill="none" stroke="darkgrey" stroke-width="1.17" d="M552.38,-494.7C543.23,-468.68 487.68,-310.69 469.06,-257.75"/>
</g>
<!-- matériel&#45;&#45;foncier -->
<g id="edge132" class="edge">
<title>matériel&#45;&#45;foncier</title>
<path fill="none" stroke="darkgrey" stroke-width="1.42" d="M272.66,-499.87C306.57,-518.58 398.07,-569.07 423.14,-582.9"/>
</g>
<!-- matériel&#45;&#45;industrie -->
<g id="edge133" class="edge">
<title>matériel&#45;&#45;industrie</title>
<path fill="none" stroke="darkgrey" stroke-width="4.14" d="M269.16,-481.34C302.3,-440.17 414.97,-300.14 451.47,-254.78"/>
</g>
<!-- matériel&#45;&#45;échange commercial -->
<g id="edge134" class="edge">
<title>matériel&#45;&#45;échange commercial</title>
<path fill="none" stroke="darkgrey" stroke-width="1.79" d="M262.49,-478.43C273.53,-416.84 316.54,-176.82 324.51,-132.36"/>
</g>
<!-- foncier&#45;&#45;industrie -->
<g id="edge135" class="edge">
<title>foncier&#45;&#45;industrie</title>
<path fill="none" stroke="darkgrey" stroke-width="2.18" d="M430.26,-579.22C434.33,-537.1 455.01,-322.99 461.22,-258.73"/>
</g>
<!-- relation politique&#45;&#45;échange commercial -->
<g id="edge136" class="edge">
<title>relation politique&#45;&#45;échange commercial</title>
<path fill="none" stroke="darkgrey" stroke-width="1.3" d="M418.88,-48.46C405.74,-59.3 349.51,-105.68 331.41,-120.61"/>
</g>
<!-- industrie&#45;&#45;échange commercial -->
<g id="edge138" class="edge">
<title>industrie&#45;&#45;échange commercial</title>
<path fill="none" stroke="darkgrey" stroke-width="1.71" d="M449.07,-228.79C419.37,-203.85 350.85,-146.31 331.16,-129.77"/>
</g>
<!-- industrie&#45;&#45;risque -->
<g id="edge137" class="edge">
<title>industrie&#45;&#45;risque</title>
<path fill="none" stroke="darkgrey" stroke-width="1.09" d="M474.67,-226.71C514.4,-179.89 642.91,-28.45 661.77,-6.23"/>
</g>
<!-- pollution -->
<g id="node1" class="node">
<title>pollution</title>
<ellipse fill="#ae305c" stroke="white" stroke-width="0" cx="420.4" cy="-427.84" rx="18" ry="18"/>
<text text-anchor="middle" x="383.9" y="-448.44" font-family="Helvetica,sans-Serif" font-size="8.00" fill="#4d4d4d">pollution</text>
</g>
<!-- dégradation environnementale -->
<g id="node2" class="node">
<title>dégradation environnementale</title>
<ellipse fill="#f1ed71" stroke="white" stroke-width="0" cx="546.52" cy="-249.38" rx="32.5" ry="32.5"/>
<text text-anchor="middle" x="450.52" y="-284.48" font-family="Helvetica,sans-Serif" font-size="8.00" fill="#4d4d4d">dégradation environnementale</text>
</g>
<!-- nouvelle&#45;calédonie -->
<g id="node3" class="node">
<title>nouvelle&#45;calédonie</title>
<ellipse fill="#1e0c45" stroke="white" stroke-width="0" cx="250.61" cy="-77.18" rx="3.5" ry="3.5"/>
<text text-anchor="middle" x="207.61" y="-83.28" font-family="Helvetica,sans-Serif" font-size="8.00" fill="#4d4d4d">nouvelle&#45;calédonie</text>
</g>
<!-- travail -->
<g id="node4" class="node">
<title>travail</title>
<ellipse fill="#eb6429" stroke="white" stroke-width="0" cx="336.55" cy="-274.66" rx="25" ry="25"/>
<text text-anchor="middle" x="298.55" y="-302.26" font-family="Helvetica,sans-Serif" font-size="8.00" fill="#4d4d4d">travail</text>
</g>
<!-- économie -->
<g id="node5" class="node">
<title>économie</title>
<ellipse fill="#ba3655" stroke="white" stroke-width="0" cx="460.53" cy="-338.3" rx="18" ry="18"/>
<text text-anchor="middle" x="422.03" y="-358.9" font-family="Helvetica,sans-Serif" font-size="8.00" fill="#4d4d4d">économie</text>
</g>
<!-- nickel -->
<g id="node6" class="node">
<title>nickel</title>
<ellipse fill="#fcffa4" stroke="white" stroke-width="0" cx="571.13" cy="-318.56" rx="36" ry="36"/>
<text text-anchor="middle" x="523.13" y="-357.16" font-family="Helvetica,sans-Serif" font-size="8.00" fill="#4d4d4d">nickel</text>
</g>
<!-- ressource minière -->
<g id="node7" class="node">
<title>ressource minière</title>
<ellipse fill="#6a176e" stroke="white" stroke-width="0" cx="212.76" cy="-286.98" rx="11" ry="11"/>
<text text-anchor="middle" x="165.26" y="-300.58" font-family="Helvetica,sans-Serif" font-size="8.00" fill="#4d4d4d">ressource minière</text>
</g>
<!-- politique -->
<g id="node8" class="node">
<title>politique</title>
<ellipse fill="#9d2964" stroke="white" stroke-width="0" cx="388.93" cy="-206.2" rx="14.5" ry="14.5"/>
<text text-anchor="middle" x="355.93" y="-223.3" font-family="Helvetica,sans-Serif" font-size="8.00" fill="#4d4d4d">politique</text>
</g>
<!-- secteur nickel -->
<g id="node9" class="node">
<title>secteur nickel</title>
<ellipse fill="#b63458" stroke="white" stroke-width="0" cx="352" cy="-397.53" rx="18" ry="18"/>
<text text-anchor="middle" x="305.5" y="-418.13" font-family="Helvetica,sans-Serif" font-size="8.00" fill="#4d4d4d">secteur nickel</text>
</g>
<!-- nature -->
<g id="node10" class="node">
<title>nature</title>
<ellipse fill="#88226a" stroke="white" stroke-width="0" cx="244.78" cy="-392.25" rx="14.5" ry="14.5"/>
<text text-anchor="middle" x="216.78" y="-409.35" font-family="Helvetica,sans-Serif" font-size="8.00" fill="#4d4d4d">nature</text>
</g>
<!-- amélioration environnementale -->
<g id="node11" class="node">
<title>amélioration environnementale</title>
<ellipse fill="#040312" stroke="white" stroke-width="0" cx="737.71" cy="-595.12" rx="3.5" ry="3.5"/>
<text text-anchor="middle" x="669.71" y="-601.22" font-family="Helvetica,sans-Serif" font-size="8.00" fill="#4d4d4d">amélioration environnementale</text>
</g>
<!-- société néo&#45;calédonienne -->
<g id="node12" class="node">
<title>société néo&#45;calédonienne</title>
<ellipse fill="#190c3e" stroke="white" stroke-width="0" cx="111.5" cy="-373.32" rx="3.5" ry="3.5"/>
<text text-anchor="middle" x="54" y="-379.42" font-family="Helvetica,sans-Serif" font-size="8.00" fill="#4d4d4d">société néo&#45;calédonienne</text>
</g>
<!-- exploitation minière -->
<g id="node13" class="node">
<title>exploitation minière</title>
<ellipse fill="#7d1e6d" stroke="white" stroke-width="0" cx="199.07" cy="-184.31" rx="14.5" ry="14.5"/>
<text text-anchor="middle" x="144.07" y="-201.41" font-family="Helvetica,sans-Serif" font-size="8.00" fill="#4d4d4d">exploitation minière</text>
</g>
<!-- alternative au développement -->
<g id="node14" class="node">
<title>alternative au développement</title>
<ellipse fill="#140b34" stroke="white" stroke-width="0" cx="553.66" cy="-498.35" rx="3.5" ry="3.5"/>
<text text-anchor="middle" x="488.16" y="-504.45" font-family="Helvetica,sans-Serif" font-size="8.00" fill="#4d4d4d">alternative au développement</text>
</g>
<!-- matériel -->
<g id="node15" class="node">
<title>matériel</title>
<ellipse fill="#932667" stroke="white" stroke-width="0" cx="259.91" cy="-492.84" rx="14.5" ry="14.5"/>
<text text-anchor="middle" x="228.41" y="-509.94" font-family="Helvetica,sans-Serif" font-size="8.00" fill="#4d4d4d">matériel</text>
</g>
<!-- foncier -->
<g id="node16" class="node">
<title>foncier</title>
<ellipse fill="#260c51" stroke="white" stroke-width="0" cx="429.56" cy="-586.44" rx="7" ry="7"/>
<text text-anchor="middle" x="408.06" y="-596.04" font-family="Helvetica,sans-Serif" font-size="8.00" fill="#4d4d4d">foncier</text>
</g>
<!-- relation politique -->
<g id="node17" class="node">
<title>relation politique</title>
<ellipse fill="#0c0826" stroke="white" stroke-width="0" cx="421.64" cy="-46.18" rx="3.5" ry="3.5"/>
<text text-anchor="middle" x="383.14" y="-52.28" font-family="Helvetica,sans-Serif" font-size="8.00" fill="#4d4d4d">relation politique</text>
</g>
<!-- industrie -->
<g id="node18" class="node">
<title>industrie</title>
<ellipse fill="#b43359" stroke="white" stroke-width="0" cx="462.98" cy="-240.47" rx="18" ry="18"/>
<text text-anchor="middle" x="426.48" y="-261.07" font-family="Helvetica,sans-Serif" font-size="8.00" fill="#4d4d4d">industrie</text>
</g>
<!-- échange commercial -->
<g id="node19" class="node">
<title>échange commercial</title>
<ellipse fill="#390963" stroke="white" stroke-width="0" cx="325.78" cy="-125.26" rx="7" ry="7"/>
<text text-anchor="middle" x="275.78" y="-134.86" font-family="Helvetica,sans-Serif" font-size="8.00" fill="#4d4d4d">échange commercial</text>
</g>
<!-- risque -->
<g id="node20" class="node">
<title>risque</title>
<ellipse fill="#050417" stroke="white" stroke-width="0" cx="664.09" cy="-3.5" rx="3.5" ry="3.5"/>
<text text-anchor="middle" x="647.59" y="-9.6" font-family="Helvetica,sans-Serif" font-size="8.00" fill="#4d4d4d">risque</text>
</g>
<!-- avenir sans nickel -->
<g id="node21" class="node">
<title>avenir sans nickel</title>
<ellipse fill="#000004" stroke="white" stroke-width="0" cx="1025.1" cy="-206.26" rx="0.5" ry="0.5"/>
<text text-anchor="middle" x="988.1" y="-209.36" font-family="Helvetica,sans-Serif" font-size="8.00" fill="#4d4d4d">avenir sans nickel</text>
</g>
</g>
</svg>
