<?xml version="1.0" encoding="UTF-8" standalone="no"?>
<!DOCTYPE svg PUBLIC "-//W3C//DTD SVG 1.1//EN"
 "http://www.w3.org/Graphics/SVG/1.1/DTD/svg11.dtd">
<!-- Generated by graphviz version 2.43.0 (0)
 -->
<!-- Pages: 1 -->
<svg width="1105pt" height="600pt"
 viewBox="0.00 0.00 1104.70 599.68" xmlns="http://www.w3.org/2000/svg" xmlns:xlink="http://www.w3.org/1999/xlink">
<g id="graph0" class="graph" transform="scale(1 1) rotate(0) translate(4 595.68)">
<polygon fill="white" stroke="transparent" points="-4,4 -4,-595.68 1100.7,-595.68 1100.7,4 -4,4"/>
<!-- avenir sans nickel&#45;&#45;industrie -->
<g id="edge1" class="edge">
<title>avenir sans nickel&#45;&#45;industrie</title>
<path fill="none" stroke="darkgrey" stroke-width="1.2" d="M376.54,-396.09C366.42,-438.86 348.04,-516.55 343.88,-534.17"/>
</g>
<!-- avenir sans nickel&#45;&#45;travail -->
<g id="edge2" class="edge">
<title>avenir sans nickel&#45;&#45;travail</title>
<path fill="none" stroke="darkgrey" stroke-width="4.19" d="M406.17,-349.42C433.68,-327.56 479.01,-291.55 502.04,-273.26"/>
</g>
<!-- avenir sans nickel&#45;&#45;politique -->
<g id="edge3" class="edge">
<title>avenir sans nickel&#45;&#45;politique</title>
<path fill="none" stroke="darkgrey" stroke-width="4.71" d="M366.5,-343.82C363.9,-340.13 361.25,-336.38 358.77,-332.85"/>
</g>
<!-- avenir sans nickel&#45;&#45;secteur nickel -->
<g id="edge4" class="edge">
<title>avenir sans nickel&#45;&#45;secteur nickel</title>
<path fill="none" stroke="darkgrey" stroke-width="4.32" d="M412.08,-362.57C470.66,-352.34 602.47,-329.31 654.07,-320.3"/>
</g>
<!-- avenir sans nickel&#45;&#45;relation politique -->
<g id="edge5" class="edge">
<title>avenir sans nickel&#45;&#45;relation politique</title>
<path fill="none" stroke="darkgrey" stroke-width="1.51" d="M399.81,-391.87C434.13,-442.24 511.07,-555.15 525.19,-575.88"/>
</g>
<!-- avenir sans nickel&#45;&#45;avenir avec nickel -->
<g id="edge6" class="edge">
<title>avenir sans nickel&#45;&#45;avenir avec nickel</title>
<path fill="none" stroke="darkgrey" stroke-width="3.29" d="M396.39,-341.43C424.47,-285.42 489.32,-156.04 507.71,-119.34"/>
</g>
<!-- avenir sans nickel&#45;&#45;pollution -->
<g id="edge7" class="edge">
<title>avenir sans nickel&#45;&#45;pollution</title>
<path fill="none" stroke="darkgrey" stroke-width="7.01" d="M382.93,-338.54C382.72,-320.38 382.44,-297.24 382.24,-279.87"/>
</g>
<!-- avenir sans nickel&#45;&#45;ressource minière -->
<g id="edge8" class="edge">
<title>avenir sans nickel&#45;&#45;ressource minière</title>
<path fill="none" stroke="darkgrey" stroke-width="5.57" d="M409.83,-379.72C424.26,-386.31 441.93,-394.38 455.75,-400.69"/>
</g>
<!-- avenir sans nickel&#45;&#45;dégradation environnementale -->
<g id="edge9" class="edge">
<title>avenir sans nickel&#45;&#45;dégradation environnementale</title>
<path fill="none" stroke="darkgrey" stroke-width="7.96" d="M407.76,-351.95C415.68,-346.89 424.56,-341.21 432.87,-335.91"/>
</g>
<!-- avenir sans nickel&#45;&#45;nature -->
<g id="edge10" class="edge">
<title>avenir sans nickel&#45;&#45;nature</title>
<path fill="none" stroke="darkgrey" stroke-width="2.55" d="M400.08,-343.88C443.51,-282.57 558.08,-120.81 586.48,-80.73"/>
</g>
<!-- avenir sans nickel&#45;&#45;société néo&#45;calédonienne -->
<g id="edge11" class="edge">
<title>avenir sans nickel&#45;&#45;société néo&#45;calédonienne</title>
<path fill="none" stroke="darkgrey" stroke-width="3.96" d="M395.56,-341.14C412.86,-303.89 443.75,-237.36 456.86,-209.13"/>
</g>
<!-- avenir sans nickel&#45;&#45;nouvelle&#45;calédonie -->
<g id="edge12" class="edge">
<title>avenir sans nickel&#45;&#45;nouvelle&#45;calédonie</title>
<path fill="none" stroke="darkgrey" stroke-width="1.1" d="M394.92,-394.45C408.87,-426.62 431.35,-478.49 439.3,-496.81"/>
</g>
<!-- avenir sans nickel&#45;&#45;alternative au développement -->
<g id="edge13" class="edge">
<title>avenir sans nickel&#45;&#45;alternative au développement</title>
<path fill="none" stroke="darkgrey" stroke-width="5.93" d="M412.5,-368.63C463.18,-370.4 566.8,-374.04 617.57,-375.82"/>
</g>
<!-- avenir sans nickel&#45;&#45;nickel -->
<g id="edge14" class="edge">
<title>avenir sans nickel&#45;&#45;nickel</title>
<path fill="none" stroke="darkgrey" stroke-width="1.12" d="M408.7,-381.61C455.33,-407.32 552.1,-460.67 577.69,-474.77"/>
</g>
<!-- avenir sans nickel&#45;&#45;économie -->
<g id="edge15" class="edge">
<title>avenir sans nickel&#45;&#45;économie</title>
<path fill="none" stroke="darkgrey" stroke-width="3.79" d="M412.39,-366.36C455.71,-364.51 535.83,-361.09 571.55,-359.56"/>
</g>
<!-- avenir sans nickel&#45;&#45;amélioration environnementale -->
<g id="edge16" class="edge">
<title>avenir sans nickel&#45;&#45;amélioration environnementale</title>
<path fill="none" stroke="darkgrey" stroke-width="2.34" d="M408.34,-352.23C454.53,-323.89 551.18,-264.6 581.64,-245.91"/>
</g>
<!-- avenir sans nickel&#45;&#45;essor technologique -->
<g id="edge17" class="edge">
<title>avenir sans nickel&#45;&#45;essor technologique</title>
<path fill="none" stroke="darkgrey" stroke-width="2.31" d="M406.42,-349.65C457.34,-310.16 577.88,-216.68 619.56,-184.36"/>
</g>
<!-- avenir sans nickel&#45;&#45;risque -->
<g id="edge18" class="edge">
<title>avenir sans nickel&#45;&#45;risque</title>
<path fill="none" stroke="darkgrey" stroke-width="1.36" d="M357.33,-354.01C277.8,-312.37 41.88,-188.83 27.22,-181.15"/>
</g>
<!-- industrie&#45;&#45;politique -->
<g id="edge19" class="edge">
<title>industrie&#45;&#45;politique</title>
<path fill="none" stroke="darkgrey" stroke-width="1.46" d="M343.08,-533.92C343.42,-510.54 345.21,-387.24 345.95,-336.73"/>
</g>
<!-- industrie&#45;&#45;secteur nickel -->
<g id="edge20" class="edge">
<title>industrie&#45;&#45;secteur nickel</title>
<path fill="none" stroke="darkgrey" stroke-width="1.33" d="M346.31,-535.6C375.63,-516.08 592.65,-371.63 657.26,-328.63"/>
</g>
<!-- industrie&#45;&#45;ressource minière -->
<g id="edge21" class="edge">
<title>industrie&#45;&#45;ressource minière</title>
<path fill="none" stroke="darkgrey" stroke-width="1.74" d="M345.85,-535.14C360.38,-521.57 427.12,-459.21 460.08,-428.42"/>
</g>
<!-- industrie&#45;&#45;dégradation environnementale -->
<g id="edge22" class="edge">
<title>industrie&#45;&#45;dégradation environnementale</title>
<path fill="none" stroke="darkgrey" stroke-width="1.19" d="M344.72,-534.66C355.59,-514.69 415.72,-404.12 446,-348.43"/>
</g>
<!-- industrie&#45;&#45;alternative au développement -->
<g id="edge23" class="edge">
<title>industrie&#45;&#45;alternative au développement</title>
<path fill="none" stroke="darkgrey" stroke-width="1.47" d="M346.43,-535.98C373.43,-521.68 553.23,-426.46 621.08,-390.53"/>
</g>
<!-- industrie&#45;&#45;nickel -->
<g id="edge24" class="edge">
<title>industrie&#45;&#45;nickel</title>
<path fill="none" stroke="darkgrey" stroke-width="1.12" d="M346.43,-536.95C372.51,-530.5 540.59,-488.98 577.04,-479.98"/>
</g>
<!-- industrie&#45;&#45;économie -->
<g id="edge25" class="edge">
<title>industrie&#45;&#45;économie</title>
<path fill="none" stroke="darkgrey" stroke-width="1.48" d="M346.14,-535.53C370.11,-518.12 525.51,-405.3 574.67,-369.6"/>
</g>
<!-- travail&#45;&#45;politique -->
<g id="edge27" class="edge">
<title>travail&#45;&#45;politique</title>
<path fill="none" stroke="darkgrey" stroke-width="4.15" d="M499.18,-267.23C467.66,-277.1 400.91,-298.01 366.99,-308.63"/>
</g>
<!-- travail&#45;&#45;secteur nickel -->
<g id="edge28" class="edge">
<title>travail&#45;&#45;secteur nickel</title>
<path fill="none" stroke="darkgrey" stroke-width="4.77" d="M533.75,-267.79C563.27,-277.96 623.23,-298.62 654.82,-309.51"/>
</g>
<!-- travail&#45;&#45;relation politique -->
<g id="edge29" class="edge">
<title>travail&#45;&#45;relation politique</title>
<path fill="none" stroke="darkgrey" d="M517.07,-280.26C519.25,-342.97 526.28,-545.76 527.32,-575.52"/>
</g>
<!-- travail&#45;&#45;avenir avec nickel -->
<g id="edge30" class="edge">
<title>travail&#45;&#45;avenir avec nickel</title>
<path fill="none" stroke="darkgrey" stroke-width="2.15" d="M515.99,-243.75C515.2,-211.91 513.58,-146.71 512.94,-120.62"/>
</g>
<!-- travail&#45;&#45;pollution -->
<g id="edge31" class="edge">
<title>travail&#45;&#45;pollution</title>
<path fill="none" stroke="darkgrey" stroke-width="6.49" d="M498.3,-260.87C474.78,-259.63 433.64,-257.47 407.11,-256.07"/>
</g>
<!-- travail&#45;&#45;ressource minière -->
<g id="edge32" class="edge">
<title>travail&#45;&#45;ressource minière</title>
<path fill="none" stroke="darkgrey" stroke-width="3.69" d="M511.95,-279.54C505.19,-306.19 492.4,-356.67 484.77,-386.76"/>
</g>
<!-- travail&#45;&#45;dégradation environnementale -->
<g id="edge33" class="edge">
<title>travail&#45;&#45;dégradation environnementale</title>
<path fill="none" stroke="darkgrey" stroke-width="7.55" d="M503.87,-274.75C499.34,-279.42 494.05,-284.86 488.82,-290.24"/>
</g>
<!-- travail&#45;&#45;nature -->
<g id="edge34" class="edge">
<title>travail&#45;&#45;nature</title>
<path fill="none" stroke="darkgrey" stroke-width="1.45" d="M523.22,-244.95C538.65,-206.59 575.99,-113.73 588.64,-82.27"/>
</g>
<!-- travail&#45;&#45;société néo&#45;calédonienne -->
<g id="edge35" class="edge">
<title>travail&#45;&#45;société néo&#45;calédonienne</title>
<path fill="none" stroke="darkgrey" stroke-width="4.25" d="M504.84,-247.52C495.15,-235.54 481.49,-218.68 472.45,-207.52"/>
</g>
<!-- travail&#45;&#45;nouvelle&#45;calédonie -->
<g id="edge36" class="edge">
<title>travail&#45;&#45;nouvelle&#45;calédonie</title>
<path fill="none" stroke="darkgrey" stroke-width="1.12" d="M511.1,-279.21C496.13,-327.91 454.24,-464.25 444.32,-496.55"/>
</g>
<!-- travail&#45;&#45;alternative au développement -->
<g id="edge37" class="edge">
<title>travail&#45;&#45;alternative au développement</title>
<path fill="none" stroke="darkgrey" stroke-width="4.82" d="M530.4,-274.14C553.02,-294.07 597.84,-333.59 624.82,-357.37"/>
</g>
<!-- travail&#45;&#45;nickel -->
<g id="edge38" class="edge">
<title>travail&#45;&#45;nickel</title>
<path fill="none" stroke="darkgrey" stroke-width="1.75" d="M521.85,-279.17C535.82,-323.91 572.62,-441.77 581.88,-471.41"/>
</g>
<!-- travail&#45;&#45;économie -->
<g id="edge39" class="edge">
<title>travail&#45;&#45;économie</title>
<path fill="none" stroke="darkgrey" stroke-width="4.79" d="M527.54,-276.56C541.36,-294.89 564.83,-326 578.59,-344.25"/>
</g>
<!-- travail&#45;&#45;amélioration environnementale -->
<g id="edge40" class="edge">
<title>travail&#45;&#45;amélioration environnementale</title>
<path fill="none" stroke="darkgrey" stroke-width="3.5" d="M533.74,-256.8C548.03,-252.64 567.89,-246.87 580.08,-243.33"/>
</g>
<!-- travail&#45;&#45;essor technologique -->
<g id="edge41" class="edge">
<title>travail&#45;&#45;essor technologique</title>
<path fill="none" stroke="darkgrey" stroke-width="3.48" d="M530.85,-250.95C553.43,-233.93 596.85,-201.18 619.5,-184.1"/>
</g>
<!-- travail&#45;&#45;exploitation minière -->
<g id="edge26" class="edge">
<title>travail&#45;&#45;exploitation minière</title>
<path fill="none" stroke="darkgrey" stroke-width="1.42" d="M501.73,-251.26C463.38,-223.7 362.01,-150.85 343.35,-137.43"/>
</g>
<!-- travail&#45;&#45;matériel -->
<g id="edge42" class="edge">
<title>travail&#45;&#45;matériel</title>
<path fill="none" stroke="darkgrey" stroke-width="1.12" d="M509.42,-245.08C486.03,-189.21 411.85,-12.06 407.24,-1.04"/>
</g>
<!-- politique&#45;&#45;secteur nickel -->
<g id="edge52" class="edge">
<title>politique&#45;&#45;secteur nickel</title>
<path fill="none" stroke="darkgrey" stroke-width="4.83" d="M367.85,-315.22C427.49,-315.48 593.96,-316.22 653.69,-316.49"/>
</g>
<!-- politique&#45;&#45;relation politique -->
<g id="edge53" class="edge">
<title>politique&#45;&#45;relation politique</title>
<path fill="none" stroke="darkgrey" stroke-width="2.37" d="M358.43,-332.86C396.04,-387.67 508.87,-552.11 525.41,-576.21"/>
</g>
<!-- politique&#45;&#45;avenir avec nickel -->
<g id="edge54" class="edge">
<title>politique&#45;&#45;avenir avec nickel</title>
<path fill="none" stroke="darkgrey" stroke-width="1.91" d="M359.88,-298.29C393.57,-256.66 479.92,-149.93 505.45,-118.38"/>
</g>
<!-- politique&#45;&#45;pollution -->
<g id="edge55" class="edge">
<title>politique&#45;&#45;pollution</title>
<path fill="none" stroke="darkgrey" stroke-width="4.72" d="M357.36,-296.35C361.04,-290.12 365.17,-283.12 368.98,-276.68"/>
</g>
<!-- politique&#45;&#45;ressource minière -->
<g id="edge56" class="edge">
<title>politique&#45;&#45;ressource minière</title>
<path fill="none" stroke="darkgrey" stroke-width="4.49" d="M363.84,-327.87C388.3,-345.62 432.53,-377.7 458.35,-396.43"/>
</g>
<!-- politique&#45;&#45;dégradation environnementale -->
<g id="edge57" class="edge">
<title>politique&#45;&#45;dégradation environnementale</title>
<path fill="none" stroke="darkgrey" stroke-width="6.61" d="M368.03,-315.35C384.57,-315.53 407.71,-315.78 427.05,-315.98"/>
</g>
<!-- politique&#45;&#45;nature -->
<g id="edge58" class="edge">
<title>politique&#45;&#45;nature</title>
<path fill="none" stroke="darkgrey" stroke-width="1.63" d="M361.69,-299.89C408.73,-253.46 549.27,-114.72 584.72,-79.73"/>
</g>
<!-- politique&#45;&#45;société néo&#45;calédonienne -->
<g id="edge59" class="edge">
<title>politique&#45;&#45;société néo&#45;calédonienne</title>
<path fill="none" stroke="darkgrey" stroke-width="3.64" d="M361.53,-299.53C385.63,-274.91 431.9,-227.65 452.58,-206.53"/>
</g>
<!-- politique&#45;&#45;nouvelle&#45;calédonie -->
<g id="edge60" class="edge">
<title>politique&#45;&#45;nouvelle&#45;calédonie</title>
<path fill="none" stroke="darkgrey" stroke-width="2.24" d="M356.17,-334.57C377.32,-376.12 426.06,-471.81 438.99,-497.2"/>
</g>
<!-- politique&#45;&#45;alternative au développement -->
<g id="edge61" class="edge">
<title>politique&#45;&#45;alternative au développement</title>
<path fill="none" stroke="darkgrey" stroke-width="4.01" d="M367.4,-319.46C420.2,-330.3 557.9,-358.57 618.07,-370.93"/>
</g>
<!-- politique&#45;&#45;nickel -->
<g id="edge62" class="edge">
<title>politique&#45;&#45;nickel</title>
<path fill="none" stroke="darkgrey" stroke-width="1.79" d="M364.13,-327.38C413.16,-361.02 548.12,-453.63 578.07,-474.18"/>
</g>
<!-- politique&#45;&#45;économie -->
<g id="edge63" class="edge">
<title>politique&#45;&#45;économie</title>
<path fill="none" stroke="darkgrey" stroke-width="4.16" d="M367.43,-318.92C414.6,-327.39 527.64,-347.68 571.62,-355.58"/>
</g>
<!-- politique&#45;&#45;amélioration environnementale -->
<g id="edge64" class="edge">
<title>politique&#45;&#45;amélioration environnementale</title>
<path fill="none" stroke="darkgrey" stroke-width="1.46" d="M367.13,-308.73C417.2,-293.39 542.73,-254.94 580.28,-243.44"/>
</g>
<!-- politique&#45;&#45;essor technologique -->
<g id="edge65" class="edge">
<title>politique&#45;&#45;essor technologique</title>
<path fill="none" stroke="darkgrey" stroke-width="1.33" d="M365.59,-305.58C419.02,-279.22 568.05,-205.69 617.7,-181.2"/>
</g>
<!-- politique&#45;&#45;risque -->
<g id="edge66" class="edge">
<title>politique&#45;&#45;risque</title>
<path fill="none" stroke="darkgrey" stroke-width="1.64" d="M326.26,-306.72C258.44,-278.23 40.7,-186.75 27.16,-181.06"/>
</g>
<!-- secteur nickel&#45;&#45;relation politique -->
<g id="edge67" class="edge">
<title>secteur nickel&#45;&#45;relation politique</title>
<path fill="none" stroke="darkgrey" stroke-width="2.05" d="M664.72,-335.47C633.46,-390.97 543.17,-551.26 529.25,-575.96"/>
</g>
<!-- secteur nickel&#45;&#45;avenir avec nickel -->
<g id="edge68" class="edge">
<title>secteur nickel&#45;&#45;avenir avec nickel</title>
<path fill="none" stroke="darkgrey" stroke-width="2.21" d="M662.05,-299.63C629.11,-257.7 544.67,-150.22 519.71,-118.45"/>
</g>
<!-- secteur nickel&#45;&#45;pollution -->
<g id="edge69" class="edge">
<title>secteur nickel&#45;&#45;pollution</title>
<path fill="none" stroke="darkgrey" stroke-width="5" d="M654.26,-312.13C601.3,-300.97 463,-271.83 406.51,-259.92"/>
</g>
<!-- secteur nickel&#45;&#45;ressource minière -->
<g id="edge70" class="edge">
<title>secteur nickel&#45;&#45;ressource minière</title>
<path fill="none" stroke="darkgrey" stroke-width="3.06" d="M655.77,-325.99C619.13,-343.6 540.39,-381.43 501.41,-400.16"/>
</g>
<!-- secteur nickel&#45;&#45;dégradation environnementale -->
<g id="edge71" class="edge">
<title>secteur nickel&#45;&#45;dégradation environnementale</title>
<path fill="none" stroke="darkgrey" stroke-width="4.56" d="M653.48,-316.56C617.1,-316.52 543.82,-316.45 499.64,-316.41"/>
</g>
<!-- secteur nickel&#45;&#45;société néo&#45;calédonienne -->
<g id="edge72" class="edge">
<title>secteur nickel&#45;&#45;société néo&#45;calédonienne</title>
<path fill="none" stroke="darkgrey" stroke-width="2.97" d="M656.52,-305.87C613.99,-281.69 511.48,-223.42 475.64,-203.05"/>
</g>
<!-- secteur nickel&#45;&#45;nouvelle&#45;calédonie -->
<g id="edge73" class="edge">
<title>secteur nickel&#45;&#45;nouvelle&#45;calédonie</title>
<path fill="none" stroke="darkgrey" stroke-width="1.3" d="M658.21,-330.33C610.26,-368.77 476.37,-476.08 447.66,-499.1"/>
</g>
<!-- secteur nickel&#45;&#45;alternative au développement -->
<g id="edge74" class="edge">
<title>secteur nickel&#45;&#45;alternative au développement</title>
<path fill="none" stroke="darkgrey" stroke-width="7.31" d="M666.05,-336.32C663.91,-340.85 661.6,-345.74 659.36,-350.5"/>
</g>
<!-- secteur nickel&#45;&#45;nickel -->
<g id="edge75" class="edge">
<title>secteur nickel&#45;&#45;nickel</title>
<path fill="none" stroke="darkgrey" stroke-width="2.94" d="M664.7,-335.44C644.18,-371.76 600.1,-449.79 587.46,-472.15"/>
</g>
<!-- secteur nickel&#45;&#45;économie -->
<g id="edge76" class="edge">
<title>secteur nickel&#45;&#45;économie</title>
<path fill="none" stroke="darkgrey" stroke-width="3.5" d="M655.89,-326.16C640.76,-333.6 620.02,-343.81 605.78,-350.81"/>
</g>
<!-- secteur nickel&#45;&#45;amélioration environnementale -->
<g id="edge77" class="edge">
<title>secteur nickel&#45;&#45;amélioration environnementale</title>
<path fill="none" stroke="darkgrey" stroke-width="3.89" d="M659.1,-301.84C641.3,-285.7 613.45,-260.44 599.54,-247.84"/>
</g>
<!-- secteur nickel&#45;&#45;essor technologique -->
<g id="edge79" class="edge">
<title>secteur nickel&#45;&#45;essor technologique</title>
<path fill="none" stroke="darkgrey" stroke-width="3.5" d="M669.35,-295.72C661.2,-267.44 646.79,-217.41 639.14,-190.86"/>
</g>
<!-- secteur nickel&#45;&#45;foncier -->
<g id="edge78" class="edge">
<title>secteur nickel&#45;&#45;foncier</title>
<path fill="none" stroke="darkgrey" stroke-width="1.34" d="M697.1,-315.19C781.26,-309.81 1081.65,-290.6 1095.69,-289.7"/>
</g>
<!-- secteur nickel&#45;&#45;échange commercial -->
<g id="edge80" class="edge">
<title>secteur nickel&#45;&#45;échange commercial</title>
<path fill="none" stroke="darkgrey" stroke-width="1.22" d="M695.51,-307.81C759.67,-279.9 955.72,-194.58 967.91,-189.28"/>
</g>
<!-- relation politique&#45;&#45;pollution -->
<g id="edge81" class="edge">
<title>relation politique&#45;&#45;pollution</title>
<path fill="none" stroke="darkgrey" stroke-width="1.31" d="M526,-575.97C513.52,-548.13 423.33,-347.03 392.36,-277.96"/>
</g>
<!-- relation politique&#45;&#45;ressource minière -->
<g id="edge82" class="edge">
<title>relation politique&#45;&#45;ressource minière</title>
<path fill="none" stroke="darkgrey" stroke-width="1.19" d="M526.42,-575.67C521.24,-557.85 497.65,-476.65 485.65,-435.37"/>
</g>
<!-- relation politique&#45;&#45;dégradation environnementale -->
<g id="edge83" class="edge">
<title>relation politique&#45;&#45;dégradation environnementale</title>
<path fill="none" stroke="darkgrey" stroke-width="1.88" d="M526.54,-575.46C520.68,-551.41 487.87,-416.7 472.02,-351.6"/>
</g>
<!-- relation politique&#45;&#45;alternative au développement -->
<g id="edge84" class="edge">
<title>relation politique&#45;&#45;alternative au développement</title>
<path fill="none" stroke="darkgrey" stroke-width="1.03" d="M529.32,-576C540.9,-556.39 603.07,-451.1 632.04,-402.04"/>
</g>
<!-- relation politique&#45;&#45;économie -->
<g id="edge85" class="edge">
<title>relation politique&#45;&#45;économie</title>
<path fill="none" stroke="darkgrey" stroke-width="1.99" d="M528.42,-575.72C534.84,-552.94 571.19,-423.97 584.59,-376.41"/>
</g>
<!-- avenir avec nickel&#45;&#45;pollution -->
<g id="edge86" class="edge">
<title>avenir avec nickel&#45;&#45;pollution</title>
<path fill="none" stroke="darkgrey" stroke-width="1.8" d="M505.26,-117.7C484.84,-140.38 427.36,-204.27 398.66,-236.16"/>
</g>
<!-- avenir avec nickel&#45;&#45;ressource minière -->
<g id="edge87" class="edge">
<title>avenir avec nickel&#45;&#45;ressource minière</title>
<path fill="none" stroke="darkgrey" stroke-width="1.94" d="M511.41,-120.56C506.5,-164.04 488.5,-323.47 481.45,-385.85"/>
</g>
<!-- avenir avec nickel&#45;&#45;dégradation environnementale -->
<g id="edge88" class="edge">
<title>avenir avec nickel&#45;&#45;dégradation environnementale</title>
<path fill="none" stroke="darkgrey" stroke-width="3.32" d="M510.08,-120.3C503.04,-149.9 483.24,-233.13 471.83,-281.1"/>
</g>
<!-- avenir avec nickel&#45;&#45;société néo&#45;calédonienne -->
<g id="edge89" class="edge">
<title>avenir avec nickel&#45;&#45;société néo&#45;calédonienne</title>
<path fill="none" stroke="darkgrey" stroke-width="1.05" d="M507.16,-119.05C498.17,-134.69 480.34,-165.72 470.31,-183.18"/>
</g>
<!-- avenir avec nickel&#45;&#45;alternative au développement -->
<g id="edge90" class="edge">
<title>avenir avec nickel&#45;&#45;alternative au développement</title>
<path fill="none" stroke="darkgrey" stroke-width="3.06" d="M517.6,-119.3C536.52,-156.99 604.81,-292.98 633.78,-350.68"/>
</g>
<!-- avenir avec nickel&#45;&#45;économie -->
<g id="edge91" class="edge">
<title>avenir avec nickel&#45;&#45;économie</title>
<path fill="none" stroke="darkgrey" stroke-width="2.14" d="M515.96,-120.18C527.98,-159.14 569.43,-293.53 584.24,-341.56"/>
</g>
<!-- avenir avec nickel&#45;&#45;amélioration environnementale -->
<g id="edge92" class="edge">
<title>avenir avec nickel&#45;&#45;amélioration environnementale</title>
<path fill="none" stroke="darkgrey" stroke-width="2.95" d="M518.55,-119.29C533.15,-143.62 570.86,-206.48 585.31,-230.56"/>
</g>
<!-- avenir avec nickel&#45;&#45;essor technologique -->
<g id="edge93" class="edge">
<title>avenir avec nickel&#45;&#45;essor technologique</title>
<path fill="none" stroke="darkgrey" stroke-width="2.59" d="M522.59,-114.68C543.54,-125.67 592.41,-151.3 617.91,-164.68"/>
</g>
<!-- pollution&#45;&#45;ressource minière -->
<g id="edge94" class="edge">
<title>pollution&#45;&#45;ressource minière</title>
<path fill="none" stroke="darkgrey" stroke-width="5" d="M395.18,-276.16C413.64,-306.02 446.91,-359.86 465.37,-389.71"/>
</g>
<!-- pollution&#45;&#45;dégradation environnementale -->
<g id="edge95" class="edge">
<title>pollution&#45;&#45;dégradation environnementale</title>
<path fill="none" stroke="darkgrey" stroke-width="10" d="M402.09,-269.98C411.89,-277.39 423.85,-286.44 434.6,-294.57"/>
</g>
<!-- pollution&#45;&#45;nature -->
<g id="edge96" class="edge">
<title>pollution&#45;&#45;nature</title>
<path fill="none" stroke="darkgrey" stroke-width="3.16" d="M401.04,-238.17C445.26,-199.79 553.3,-106.02 584.41,-79.02"/>
</g>
<!-- pollution&#45;&#45;société néo&#45;calédonienne -->
<g id="edge97" class="edge">
<title>pollution&#45;&#45;société néo&#45;calédonienne</title>
<path fill="none" stroke="darkgrey" stroke-width="5.06" d="M402.4,-239.89C417.79,-228.71 438.34,-213.79 451.12,-204.51"/>
</g>
<!-- pollution&#45;&#45;nouvelle&#45;calédonie -->
<g id="edge98" class="edge">
<title>pollution&#45;&#45;nouvelle&#45;calédonie</title>
<path fill="none" stroke="darkgrey" stroke-width="1.44" d="M387.83,-279.05C401.09,-333.81 432.76,-464.57 440.48,-496.4"/>
</g>
<!-- pollution&#45;&#45;alternative au développement -->
<g id="edge99" class="edge">
<title>pollution&#45;&#45;alternative au développement</title>
<path fill="none" stroke="darkgrey" stroke-width="5.7" d="M404.99,-265.36C453.97,-287.94 568.18,-340.56 620.22,-364.54"/>
</g>
<!-- pollution&#45;&#45;nickel -->
<g id="edge100" class="edge">
<title>pollution&#45;&#45;nickel</title>
<path fill="none" stroke="darkgrey" stroke-width="2.85" d="M398.82,-273.41C441.89,-321.05 554.19,-445.27 579.08,-472.8"/>
</g>
<!-- pollution&#45;&#45;économie -->
<g id="edge101" class="edge">
<title>pollution&#45;&#45;économie</title>
<path fill="none" stroke="darkgrey" stroke-width="5.28" d="M404.56,-266.08C446.8,-287.25 536.76,-332.33 573.46,-350.73"/>
</g>
<!-- pollution&#45;&#45;amélioration environnementale -->
<g id="edge102" class="edge">
<title>pollution&#45;&#45;amélioration environnementale</title>
<path fill="none" stroke="darkgrey" stroke-width="2.12" d="M407.17,-252.98C452.79,-249.79 547.3,-243.19 579.79,-240.92"/>
</g>
<!-- pollution&#45;&#45;essor technologique -->
<g id="edge103" class="edge">
<title>pollution&#45;&#45;essor technologique</title>
<path fill="none" stroke="darkgrey" stroke-width="3.63" d="M406.11,-246.92C456.76,-230.52 572.96,-192.91 616.84,-178.71"/>
</g>
<!-- pollution&#45;&#45;risque -->
<g id="edge104" class="edge">
<title>pollution&#45;&#45;risque</title>
<path fill="none" stroke="darkgrey" stroke-width="1.53" d="M357.23,-249.6C279.14,-233.35 41.97,-184 27.22,-180.93"/>
</g>
<!-- ressource minière&#45;&#45;dégradation environnementale -->
<g id="edge105" class="edge">
<title>ressource minière&#45;&#45;dégradation environnementale</title>
<path fill="none" stroke="darkgrey" stroke-width="7.02" d="M474.62,-386.23C472.95,-375.81 470.98,-363.5 469.16,-352.14"/>
</g>
<!-- ressource minière&#45;&#45;société néo&#45;calédonienne -->
<g id="edge106" class="edge">
<title>ressource minière&#45;&#45;société néo&#45;calédonienne</title>
<path fill="none" stroke="darkgrey" stroke-width="1.79" d="M476.78,-386.01C473.5,-340.65 466.68,-246.43 464.07,-210.35"/>
</g>
<!-- ressource minière&#45;&#45;nouvelle&#45;calédonie -->
<g id="edge107" class="edge">
<title>ressource minière&#45;&#45;nouvelle&#45;calédonie</title>
<path fill="none" stroke="darkgrey" stroke-width="1.72" d="M469.41,-434.43C461.24,-455.16 449.82,-484.13 444.77,-496.94"/>
</g>
<!-- ressource minière&#45;&#45;alternative au développement -->
<g id="edge108" class="edge">
<title>ressource minière&#45;&#45;alternative au développement</title>
<path fill="none" stroke="darkgrey" stroke-width="6.32" d="M503.44,-406.06C534.07,-399.83 586.04,-389.24 618.32,-382.67"/>
</g>
<!-- ressource minière&#45;&#45;nickel -->
<g id="edge109" class="edge">
<title>ressource minière&#45;&#45;nickel</title>
<path fill="none" stroke="darkgrey" stroke-width="1.58" d="M499.93,-424.71C524.48,-440.34 563.29,-465.06 578.05,-474.46"/>
</g>
<!-- ressource minière&#45;&#45;économie -->
<g id="edge110" class="edge">
<title>ressource minière&#45;&#45;économie</title>
<path fill="none" stroke="darkgrey" stroke-width="4.38" d="M501.32,-400.41C522.62,-390.36 553.97,-375.58 573,-366.6"/>
</g>
<!-- ressource minière&#45;&#45;amélioration environnementale -->
<g id="edge111" class="edge">
<title>ressource minière&#45;&#45;amélioration environnementale</title>
<path fill="none" stroke="darkgrey" stroke-width="2.46" d="M492.39,-390.16C516.9,-352.88 567.15,-276.48 584.78,-249.68"/>
</g>
<!-- ressource minière&#45;&#45;essor technologique -->
<g id="edge112" class="edge">
<title>ressource minière&#45;&#45;essor technologique</title>
<path fill="none" stroke="darkgrey" stroke-width="4.53" d="M492.39,-390C523.23,-342.79 597.13,-229.64 624.03,-188.46"/>
</g>
<!-- dégradation environnementale&#45;&#45;nature -->
<g id="edge113" class="edge">
<title>dégradation environnementale&#45;&#45;nature</title>
<path fill="none" stroke="darkgrey" stroke-width="4.69" d="M480.36,-284.38C509.97,-228.4 569.74,-115.44 587.69,-81.5"/>
</g>
<!-- dégradation environnementale&#45;&#45;société néo&#45;calédonienne -->
<g id="edge114" class="edge">
<title>dégradation environnementale&#45;&#45;société néo&#45;calédonienne</title>
<path fill="none" stroke="darkgrey" stroke-width="3.67" d="M463.31,-280.22C463.23,-256.92 463.13,-227.88 463.07,-210.66"/>
</g>
<!-- dégradation environnementale&#45;&#45;nouvelle&#45;calédonie -->
<g id="edge115" class="edge">
<title>dégradation environnementale&#45;&#45;nouvelle&#45;calédonie</title>
<path fill="none" stroke="darkgrey" stroke-width="1.92" d="M459.34,-352.45C454.18,-397.9 445.66,-472.9 443.01,-496.29"/>
</g>
<!-- dégradation environnementale&#45;&#45;alternative au développement -->
<g id="edge116" class="edge">
<title>dégradation environnementale&#45;&#45;alternative au développement</title>
<path fill="none" stroke="darkgrey" stroke-width="6.83" d="M497.95,-327.74C533.04,-339.31 586.72,-357 619.16,-367.7"/>
</g>
<!-- dégradation environnementale&#45;&#45;nickel -->
<g id="edge117" class="edge">
<title>dégradation environnementale&#45;&#45;nickel</title>
<path fill="none" stroke="darkgrey" stroke-width="2.67" d="M484.99,-345.31C514.26,-384.6 564.63,-452.23 579.66,-472.41"/>
</g>
<!-- dégradation environnementale&#45;&#45;économie -->
<g id="edge118" class="edge">
<title>dégradation environnementale&#45;&#45;économie</title>
<path fill="none" stroke="darkgrey" stroke-width="7.06" d="M497.57,-327.85C521.79,-336 553.27,-346.59 572.42,-353.03"/>
</g>
<!-- dégradation environnementale&#45;&#45;amélioration environnementale -->
<g id="edge119" class="edge">
<title>dégradation environnementale&#45;&#45;amélioration environnementale</title>
<path fill="none" stroke="darkgrey" stroke-width="2.57" d="M494.65,-297.72C523.14,-280.71 563.46,-256.62 581.59,-245.79"/>
</g>
<!-- dégradation environnementale&#45;&#45;essor technologique -->
<g id="edge120" class="edge">
<title>dégradation environnementale&#45;&#45;essor technologique</title>
<path fill="none" stroke="darkgrey" stroke-width="4.01" d="M491.22,-293.04C528.05,-262.12 591.63,-208.74 619.84,-185.05"/>
</g>
<!-- dégradation environnementale&#45;&#45;matériel -->
<g id="edge121" class="edge">
<title>dégradation environnementale&#45;&#45;matériel</title>
<path fill="none" stroke="darkgrey" stroke-width="1.01" d="M457.07,-280.75C442.78,-200.72 409.2,-12.74 407.12,-1.07"/>
</g>
<!-- nature&#45;&#45;société néo&#45;calédonienne -->
<g id="edge122" class="edge">
<title>nature&#45;&#45;société néo&#45;calédonienne</title>
<path fill="none" stroke="darkgrey" stroke-width="2.63" d="M584.78,-79.41C562.24,-100.98 498.88,-161.57 473.62,-185.74"/>
</g>
<!-- nature&#45;&#45;alternative au développement -->
<g id="edge123" class="edge">
<title>nature&#45;&#45;alternative au développement</title>
<path fill="none" stroke="darkgrey" stroke-width="1.43" d="M594.83,-82.5C602.39,-125.19 630.19,-282.3 641.79,-347.84"/>
</g>
<!-- nature&#45;&#45;économie -->
<g id="edge124" class="edge">
<title>nature&#45;&#45;économie</title>
<path fill="none" stroke="darkgrey" stroke-width="1.06" d="M592.78,-82.9C592.27,-126.76 590.4,-286.46 589.77,-340.66"/>
</g>
<!-- nature&#45;&#45;amélioration environnementale -->
<g id="edge125" class="edge">
<title>nature&#45;&#45;amélioration environnementale</title>
<path fill="none" stroke="darkgrey" stroke-width="1.17" d="M592.79,-82.7C592.45,-113.15 591.52,-198.05 591.18,-228.82"/>
</g>
<!-- nature&#45;&#45;essor technologique -->
<g id="edge126" class="edge">
<title>nature&#45;&#45;essor technologique</title>
<path fill="none" stroke="darkgrey" stroke-width="1.57" d="M597.16,-82.12C604.26,-99.65 618.6,-135.05 627.16,-156.17"/>
</g>
<!-- société néo&#45;calédonienne&#45;&#45;nouvelle&#45;calédonie -->
<g id="edge127" class="edge">
<title>société néo&#45;calédonienne&#45;&#45;nouvelle&#45;calédonie</title>
<path fill="none" stroke="darkgrey" stroke-width="1.9" d="M462.01,-210.71C458.28,-265.79 445.31,-457.41 442.66,-496.49"/>
</g>
<!-- société néo&#45;calédonienne&#45;&#45;alternative au développement -->
<g id="edge128" class="edge">
<title>société néo&#45;calédonienne&#45;&#45;alternative au développement</title>
<path fill="none" stroke="darkgrey" stroke-width="3.79" d="M473.43,-206.12C502.84,-235.06 586.91,-317.79 626.21,-356.46"/>
</g>
<!-- société néo&#45;calédonienne&#45;&#45;nickel -->
<g id="edge129" class="edge">
<title>société néo&#45;calédonienne&#45;&#45;nickel</title>
<path fill="none" stroke="darkgrey" stroke-width="2.38" d="M468.85,-209.49C490.47,-259.95 565.56,-435.2 581.16,-471.6"/>
</g>
<!-- société néo&#45;calédonienne&#45;&#45;économie -->
<g id="edge130" class="edge">
<title>société néo&#45;calédonienne&#45;&#45;économie</title>
<path fill="none" stroke="darkgrey" stroke-width="3.57" d="M471.92,-207.33C494.42,-236.3 553.56,-312.45 578.36,-344.38"/>
</g>
<!-- société néo&#45;calédonienne&#45;&#45;amélioration environnementale -->
<g id="edge131" class="edge">
<title>société néo&#45;calédonienne&#45;&#45;amélioration environnementale</title>
<path fill="none" stroke="darkgrey" stroke-width="1.17" d="M477.21,-200.78C503.12,-209.74 557.54,-228.55 580.49,-236.49"/>
</g>
<!-- société néo&#45;calédonienne&#45;&#45;essor technologique -->
<g id="edge132" class="edge">
<title>société néo&#45;calédonienne&#45;&#45;essor technologique</title>
<path fill="none" stroke="darkgrey" stroke-width="1.52" d="M477.6,-193.93C508.78,-189.79 581.86,-180.08 615.94,-175.55"/>
</g>
<!-- nouvelle&#45;calédonie&#45;&#45;alternative au développement -->
<g id="edge133" class="edge">
<title>nouvelle&#45;calédonie&#45;&#45;alternative au développement</title>
<path fill="none" stroke="darkgrey" stroke-width="2.31" d="M448.54,-499.55C474.73,-483.35 575.15,-421.24 622.26,-392.1"/>
</g>
<!-- nouvelle&#45;calédonie&#45;&#45;économie -->
<g id="edge134" class="edge">
<title>nouvelle&#45;calédonie&#45;&#45;économie</title>
<path fill="none" stroke="darkgrey" stroke-width="2.1" d="M447.43,-498.33C468.25,-477.89 545.42,-402.13 576.48,-371.63"/>
</g>
<!-- nouvelle&#45;calédonie&#45;&#45;amélioration environnementale -->
<g id="edge135" class="edge">
<title>nouvelle&#45;calédonie&#45;&#45;amélioration environnementale</title>
<path fill="none" stroke="darkgrey" stroke-width="1.1" d="M445.87,-496.97C465.88,-461.57 561.61,-292.22 585.59,-249.79"/>
</g>
<!-- alternative au développement&#45;&#45;nickel -->
<g id="edge136" class="edge">
<title>alternative au développement&#45;&#45;nickel</title>
<path fill="none" stroke="darkgrey" stroke-width="2.64" d="M631.53,-401.65C616.98,-425.11 596.16,-458.67 587.75,-472.23"/>
</g>
<!-- alternative au développement&#45;&#45;économie -->
<g id="edge137" class="edge">
<title>alternative au développement&#45;&#45;économie</title>
<path fill="none" stroke="darkgrey" stroke-width="6.2" d="M619.25,-368.14C615.01,-366.8 610.74,-365.46 606.81,-364.22"/>
</g>
<!-- alternative au développement&#45;&#45;amélioration environnementale -->
<g id="edge138" class="edge">
<title>alternative au développement&#45;&#45;amélioration environnementale</title>
<path fill="none" stroke="darkgrey" stroke-width="5.65" d="M635.88,-349.84C623.42,-319.33 603.76,-271.24 595.23,-250.36"/>
</g>
<!-- alternative au développement&#45;&#45;essor technologique -->
<g id="edge140" class="edge">
<title>alternative au développement&#45;&#45;essor technologique</title>
<path fill="none" stroke="darkgrey" stroke-width="5.16" d="M645.07,-347.66C642.37,-304.87 637.4,-226.36 635.17,-191.11"/>
</g>
<!-- alternative au développement&#45;&#45;foncier -->
<g id="edge139" class="edge">
<title>alternative au développement&#45;&#45;foncier</title>
<path fill="none" stroke="darkgrey" stroke-width="1.22" d="M675.71,-371.26C772.54,-352.47 1081.26,-292.57 1095.68,-289.77"/>
</g>
<!-- nickel&#45;&#45;économie -->
<g id="edge141" class="edge">
<title>nickel&#45;&#45;économie</title>
<path fill="none" stroke="darkgrey" stroke-width="1.83" d="M584.34,-471.14C585.19,-452.86 587.47,-403.79 588.71,-376.95"/>
</g>
<!-- nickel&#45;&#45;amélioration environnementale -->
<g id="edge142" class="edge">
<title>nickel&#45;&#45;amélioration environnementale</title>
<path fill="none" stroke="darkgrey" stroke-width="1.55" d="M584.22,-471.13C585.22,-437.31 589.49,-292.95 590.72,-251.38"/>
</g>
<!-- nickel&#45;&#45;essor technologique -->
<g id="edge143" class="edge">
<title>nickel&#45;&#45;essor technologique</title>
<path fill="none" stroke="darkgrey" stroke-width="1.43" d="M585.15,-471.31C591.39,-433.26 621.49,-249.64 631.09,-191.11"/>
</g>
<!-- économie&#45;&#45;amélioration environnementale -->
<g id="edge144" class="edge">
<title>économie&#45;&#45;amélioration environnementale</title>
<path fill="none" stroke="darkgrey" stroke-width="1.8" d="M589.78,-340.77C590.1,-315.88 590.65,-271.72 590.91,-251.19"/>
</g>
<!-- économie&#45;&#45;essor technologique -->
<g id="edge145" class="edge">
<title>économie&#45;&#45;essor technologique</title>
<path fill="none" stroke="darkgrey" stroke-width="1.83" d="M593.82,-340.99C602.32,-305.51 621.29,-226.33 629.78,-190.89"/>
</g>
<!-- économie&#45;&#45;échange commercial -->
<g id="edge146" class="edge">
<title>économie&#45;&#45;échange commercial</title>
<path fill="none" stroke="darkgrey" stroke-width="1.05" d="M606.33,-351.28C677.95,-319.19 955.09,-195.03 968.04,-189.23"/>
</g>
<!-- amélioration environnementale&#45;&#45;essor technologique -->
<g id="edge147" class="edge">
<title>amélioration environnementale&#45;&#45;essor technologique</title>
<path fill="none" stroke="darkgrey" stroke-width="2.18" d="M597.03,-230.82C604.09,-219.82 615.93,-201.37 624.31,-188.3"/>
</g>
<!-- essor technologique&#45;&#45;matériel -->
<g id="edge148" class="edge">
<title>essor technologique&#45;&#45;matériel</title>
<path fill="none" stroke="darkgrey" stroke-width="1.32" d="M619.49,-162.08C570.95,-125.17 417.05,-8.13 407.48,-0.86"/>
</g>
<!-- exploitation minière&#45;&#45;politique -->
<g id="edge43" class="edge">
<title>exploitation minière&#45;&#45;politique</title>
<path fill="none" stroke="darkgrey" stroke-width="1.34" d="M340.49,-139.05C341.14,-158.77 344.16,-251.05 345.56,-293.57"/>
</g>
<!-- exploitation minière&#45;&#45;secteur nickel -->
<g id="edge44" class="edge">
<title>exploitation minière&#45;&#45;secteur nickel</title>
<path fill="none" stroke="darkgrey" stroke-width="1.78" d="M343.68,-137.08C373.11,-153.01 589.98,-270.38 656.21,-306.22"/>
</g>
<!-- exploitation minière&#45;&#45;pollution -->
<g id="edge45" class="edge">
<title>exploitation minière&#45;&#45;pollution</title>
<path fill="none" stroke="darkgrey" stroke-width="1.64" d="M341.57,-138.74C346.21,-152.09 363.29,-201.14 373.68,-231.02"/>
</g>
<!-- exploitation minière&#45;&#45;ressource minière -->
<g id="edge46" class="edge">
<title>exploitation minière&#45;&#45;ressource minière</title>
<path fill="none" stroke="darkgrey" stroke-width="1.4" d="M342.12,-138.78C355.12,-164.72 437.09,-328.3 467.38,-388.72"/>
</g>
<!-- exploitation minière&#45;&#45;dégradation environnementale -->
<g id="edge47" class="edge">
<title>exploitation minière&#45;&#45;dégradation environnementale</title>
<path fill="none" stroke="darkgrey" stroke-width="1.33" d="M342.5,-138.43C354.28,-155.76 411.9,-240.54 443.16,-286.54"/>
</g>
<!-- exploitation minière&#45;&#45;société néo&#45;calédonienne -->
<g id="edge48" class="edge">
<title>exploitation minière&#45;&#45;société néo&#45;calédonienne</title>
<path fill="none" stroke="darkgrey" stroke-width="1.32" d="M343.65,-136.91C358.73,-144.36 421.89,-175.56 449.74,-189.31"/>
</g>
<!-- exploitation minière&#45;&#45;alternative au développement -->
<g id="edge49" class="edge">
<title>exploitation minière&#45;&#45;alternative au développement</title>
<path fill="none" stroke="darkgrey" stroke-width="2.06" d="M343.4,-137.68C369.58,-158.31 557.92,-306.72 624.05,-358.82"/>
</g>
<!-- exploitation minière&#45;&#45;amélioration environnementale -->
<g id="edge50" class="edge">
<title>exploitation minière&#45;&#45;amélioration environnementale</title>
<path fill="none" stroke="darkgrey" stroke-width="1.12" d="M343.91,-136.77C370.39,-147.85 537.53,-217.75 580.82,-235.86"/>
</g>
<!-- exploitation minière&#45;&#45;matériel -->
<g id="edge51" class="edge">
<title>exploitation minière&#45;&#45;matériel</title>
<path fill="none" stroke="darkgrey" stroke-width="1.14" d="M342.02,-131.96C351.8,-112.17 401.98,-10.68 406.66,-1.21"/>
</g>
<!-- avenir sans nickel -->
<g id="node1" class="node">
<title>avenir sans nickel</title>
<ellipse fill="#fa9407" stroke="white" stroke-width="0" cx="383.28" cy="-367.6" rx="29" ry="29"/>
<text text-anchor="middle" x="317.78" y="-399.2" font-family="Helvetica,sans-Serif" font-size="8.00" fill="#4d4d4d">avenir sans nickel</text>
</g>
<!-- industrie -->
<g id="node2" class="node">
<title>industrie</title>
<ellipse fill="#07051b" stroke="white" stroke-width="0" cx="343.02" cy="-537.79" rx="3.5" ry="3.5"/>
<text text-anchor="middle" x="321.02" y="-543.89" font-family="Helvetica,sans-Serif" font-size="8.00" fill="#4d4d4d">industrie</text>
</g>
<!-- travail -->
<g id="node3" class="node">
<title>travail</title>
<ellipse fill="#bf3952" stroke="white" stroke-width="0" cx="516.43" cy="-261.83" rx="18" ry="18"/>
<text text-anchor="middle" x="485.43" y="-246.43" font-family="Helvetica,sans-Serif" font-size="8.00" fill="#4d4d4d">travail</text>
</g>
<!-- politique -->
<g id="node4" class="node">
<title>politique</title>
<ellipse fill="#d74b3f" stroke="white" stroke-width="0" cx="346.26" cy="-315.12" rx="21.5" ry="21.5"/>
<text text-anchor="middle" x="306.26" y="-339.22" font-family="Helvetica,sans-Serif" font-size="8.00" fill="#4d4d4d">politique</text>
</g>
<!-- secteur nickel -->
<g id="node5" class="node">
<title>secteur nickel</title>
<ellipse fill="#d24644" stroke="white" stroke-width="0" cx="675.36" cy="-316.58" rx="21.5" ry="21.5"/>
<text text-anchor="middle" x="625.36" y="-297.68" font-family="Helvetica,sans-Serif" font-size="8.00" fill="#4d4d4d">secteur nickel</text>
</g>
<!-- relation politique -->
<g id="node6" class="node">
<title>relation politique</title>
<ellipse fill="#120a32" stroke="white" stroke-width="0" cx="527.44" cy="-579.18" rx="3.5" ry="3.5"/>
<text text-anchor="middle" x="488.94" y="-585.28" font-family="Helvetica,sans-Serif" font-size="8.00" fill="#4d4d4d">relation politique</text>
</g>
<!-- avenir avec nickel -->
<g id="node7" class="node">
<title>avenir avec nickel</title>
<ellipse fill="#510e6c" stroke="white" stroke-width="0" cx="512.66" cy="-109.47" rx="11" ry="11"/>
<text text-anchor="middle" x="465.16" y="-123.07" font-family="Helvetica,sans-Serif" font-size="8.00" fill="#4d4d4d">avenir avec nickel</text>
</g>
<!-- pollution -->
<g id="node8" class="node">
<title>pollution</title>
<ellipse fill="#eb6628" stroke="white" stroke-width="0" cx="381.94" cy="-254.74" rx="25" ry="25"/>
<text text-anchor="middle" x="338.44" y="-282.34" font-family="Helvetica,sans-Serif" font-size="8.00" fill="#4d4d4d">pollution</text>
</g>
<!-- ressource minière -->
<g id="node9" class="node">
<title>ressource minière</title>
<ellipse fill="#ec6726" stroke="white" stroke-width="0" cx="478.6" cy="-411.12" rx="25" ry="25"/>
<text text-anchor="middle" x="417.1" y="-438.72" font-family="Helvetica,sans-Serif" font-size="8.00" fill="#4d4d4d">ressource minière</text>
</g>
<!-- dégradation environnementale -->
<g id="node10" class="node">
<title>dégradation environnementale</title>
<ellipse fill="#fcffa4" stroke="white" stroke-width="0" cx="463.44" cy="-316.37" rx="36" ry="36"/>
<text text-anchor="middle" x="490.94" y="-354.97" font-family="Helvetica,sans-Serif" font-size="8.00" fill="#4d4d4d">dégradation environnementale</text>
</g>
<!-- nature -->
<g id="node11" class="node">
<title>nature</title>
<ellipse fill="#5c126e" stroke="white" stroke-width="0" cx="592.91" cy="-71.64" rx="11" ry="11"/>
<text text-anchor="middle" x="568.41" y="-85.24" font-family="Helvetica,sans-Serif" font-size="8.00" fill="#4d4d4d">nature</text>
</g>
<!-- société néo&#45;calédonienne -->
<g id="node12" class="node">
<title>société néo&#45;calédonienne</title>
<ellipse fill="#8d2369" stroke="white" stroke-width="0" cx="463.02" cy="-195.87" rx="14.5" ry="14.5"/>
<text text-anchor="middle" x="394.52" y="-212.97" font-family="Helvetica,sans-Serif" font-size="8.00" fill="#4d4d4d">société néo&#45;calédonienne</text>
</g>
<!-- nouvelle&#45;calédonie -->
<g id="node13" class="node">
<title>nouvelle&#45;calédonie</title>
<ellipse fill="#2b0b57" stroke="white" stroke-width="0" cx="442.19" cy="-503.48" rx="7" ry="7"/>
<text text-anchor="middle" x="395.69" y="-513.08" font-family="Helvetica,sans-Serif" font-size="8.00" fill="#4d4d4d">nouvelle&#45;calédonie</text>
</g>
<!-- alternative au développement -->
<g id="node14" class="node">
<title>alternative au développement</title>
<ellipse fill="#fb9b06" stroke="white" stroke-width="0" cx="646.92" cy="-376.85" rx="29" ry="29"/>
<text text-anchor="middle" x="679.92" y="-408.45" font-family="Helvetica,sans-Serif" font-size="8.00" fill="#4d4d4d">alternative au développement</text>
</g>
<!-- nickel -->
<g id="node15" class="node">
<title>nickel</title>
<ellipse fill="#2f0a5b" stroke="white" stroke-width="0" cx="584.01" cy="-478.26" rx="7" ry="7"/>
<text text-anchor="middle" x="565.01" y="-487.86" font-family="Helvetica,sans-Serif" font-size="8.00" fill="#4d4d4d">nickel</text>
</g>
<!-- économie -->
<g id="node16" class="node">
<title>économie</title>
<ellipse fill="#a82e5f" stroke="white" stroke-width="0" cx="589.56" cy="-358.79" rx="18" ry="18"/>
<text text-anchor="middle" x="551.06" y="-379.39" font-family="Helvetica,sans-Serif" font-size="8.00" fill="#4d4d4d">économie</text>
</g>
<!-- amélioration environnementale -->
<g id="node17" class="node">
<title>amélioration environnementale</title>
<ellipse fill="#721a6e" stroke="white" stroke-width="0" cx="591.05" cy="-240.14" rx="11" ry="11"/>
<text text-anchor="middle" x="515.55" y="-231.74" font-family="Helvetica,sans-Serif" font-size="8.00" fill="#4d4d4d">amélioration environnementale</text>
</g>
<!-- essor technologique -->
<g id="node18" class="node">
<title>essor technologique</title>
<ellipse fill="#a92e5e" stroke="white" stroke-width="0" cx="634.03" cy="-173.14" rx="18" ry="18"/>
<text text-anchor="middle" x="573.53" y="-193.74" font-family="Helvetica,sans-Serif" font-size="8.00" fill="#4d4d4d">essor technologique</text>
</g>
<!-- risque -->
<g id="node19" class="node">
<title>risque</title>
<ellipse fill="#000004" stroke="white" stroke-width="0" cx="26.5" cy="-180.78" rx="0.5" ry="0.5"/>
<text text-anchor="middle" x="13" y="-183.88" font-family="Helvetica,sans-Serif" font-size="8.00" fill="#4d4d4d">risque</text>
</g>
<!-- exploitation minière -->
<g id="node20" class="node">
<title>exploitation minière</title>
<ellipse fill="#110a30" stroke="white" stroke-width="0" cx="340.37" cy="-135.29" rx="3.5" ry="3.5"/>
<text text-anchor="middle" x="296.37" y="-141.39" font-family="Helvetica,sans-Serif" font-size="8.00" fill="#4d4d4d">exploitation minière</text>
</g>
<!-- matériel -->
<g id="node21" class="node">
<title>matériel</title>
<ellipse fill="#010005" stroke="white" stroke-width="0" cx="407.01" cy="-0.5" rx="0.5" ry="0.5"/>
<text text-anchor="middle" x="389.51" y="-3.6" font-family="Helvetica,sans-Serif" font-size="8.00" fill="#4d4d4d">matériel</text>
</g>
<!-- foncier -->
<g id="node22" class="node">
<title>foncier</title>
<ellipse fill="#000004" stroke="white" stroke-width="0" cx="1096.2" cy="-289.67" rx="0.5" ry="0.5"/>
<text text-anchor="middle" x="1081.2" y="-292.77" font-family="Helvetica,sans-Serif" font-size="8.00" fill="#4d4d4d">foncier</text>
</g>
<!-- échange commercial -->
<g id="node23" class="node">
<title>échange commercial</title>
<ellipse fill="#010108" stroke="white" stroke-width="0" cx="968.51" cy="-189.02" rx="0.5" ry="0.5"/>
<text text-anchor="middle" x="925.01" y="-192.12" font-family="Helvetica,sans-Serif" font-size="8.00" fill="#4d4d4d">échange commercial</text>
</g>
</g>
</svg>
