<?xml version="1.0" encoding="UTF-8" standalone="no"?>
<!DOCTYPE svg PUBLIC "-//W3C//DTD SVG 1.1//EN"
 "http://www.w3.org/Graphics/SVG/1.1/DTD/svg11.dtd">
<!-- Generated by graphviz version 2.43.0 (0)
 -->
<!-- Pages: 1 -->
<svg width="544pt" height="441pt"
 viewBox="0.00 0.00 543.70 441.40" xmlns="http://www.w3.org/2000/svg" xmlns:xlink="http://www.w3.org/1999/xlink">
<g id="graph0" class="graph" transform="scale(1 1) rotate(0) translate(4 437.4)">
<polygon fill="white" stroke="transparent" points="-4,4 -4,-437.4 539.7,-437.4 539.7,4 -4,4"/>
<!-- avenir sans nickel&#45;&#45;travail -->
<g id="edge1" class="edge">
<title>avenir sans nickel&#45;&#45;travail</title>
<path fill="none" stroke="darkgrey" stroke-width="2.36" d="M206.96,-304.92C207.9,-327.49 209.24,-359.84 210.02,-378.44"/>
</g>
<!-- avenir sans nickel&#45;&#45;politique -->
<g id="edge2" class="edge">
<title>avenir sans nickel&#45;&#45;politique</title>
<path fill="none" stroke="darkgrey" stroke-width="2.72" d="M226.32,-294.55C250.87,-312.34 291.47,-341.75 313.15,-357.45"/>
</g>
<!-- avenir sans nickel&#45;&#45;secteur nickel -->
<g id="edge3" class="edge">
<title>avenir sans nickel&#45;&#45;secteur nickel</title>
<path fill="none" stroke="darkgrey" stroke-width="1.98" d="M188.98,-260.98C183.52,-254.92 177.59,-248.34 172.55,-242.75"/>
</g>
<!-- avenir sans nickel&#45;&#45;avenir avec nickel -->
<g id="edge4" class="edge">
<title>avenir sans nickel&#45;&#45;avenir avec nickel</title>
<path fill="none" stroke="darkgrey" stroke-width="2.48" d="M228.33,-267.83C277.29,-241.76 391.12,-181.15 412.04,-170.01"/>
</g>
<!-- avenir sans nickel&#45;&#45;pollution -->
<g id="edge5" class="edge">
<title>avenir sans nickel&#45;&#45;pollution</title>
<path fill="none" stroke="darkgrey" stroke-width="4.34" d="M218.66,-301.49C232.44,-324.97 254.17,-361.98 267.21,-384.2"/>
</g>
<!-- avenir sans nickel&#45;&#45;ressource minière -->
<g id="edge6" class="edge">
<title>avenir sans nickel&#45;&#45;ressource minière</title>
<path fill="none" stroke="darkgrey" stroke-width="5.33" d="M230.9,-282.22C267.56,-285.83 335.28,-292.5 369.8,-295.9"/>
</g>
<!-- avenir sans nickel&#45;&#45;dégradation environnementale -->
<g id="edge7" class="edge">
<title>avenir sans nickel&#45;&#45;dégradation environnementale</title>
<path fill="none" stroke="darkgrey" stroke-width="4.86" d="M230.93,-277.73C245.83,-276.52 264.98,-274.96 281.47,-273.62"/>
</g>
<!-- avenir sans nickel&#45;&#45;société néo&#45;calédonienne -->
<g id="edge8" class="edge">
<title>avenir sans nickel&#45;&#45;société néo&#45;calédonienne</title>
<path fill="none" stroke="darkgrey" stroke-width="2.02" d="M188.74,-298.57C169.94,-319.16 140.63,-351.27 126.77,-366.46"/>
</g>
<!-- avenir sans nickel&#45;&#45;alternative au développement -->
<g id="edge9" class="edge">
<title>avenir sans nickel&#45;&#45;alternative au développement</title>
<path fill="none" stroke="darkgrey" stroke-width="3.39" d="M222.12,-260.67C225.54,-256.65 229.14,-252.41 232.56,-248.38"/>
</g>
<!-- avenir sans nickel&#45;&#45;économie -->
<g id="edge10" class="edge">
<title>avenir sans nickel&#45;&#45;économie</title>
<path fill="none" stroke="darkgrey" stroke-width="1.5" d="M221.1,-259.41C236.03,-239.4 258.3,-209.56 270.49,-193.23"/>
</g>
<!-- avenir sans nickel&#45;&#45;amélioration environnementale -->
<g id="edge11" class="edge">
<title>avenir sans nickel&#45;&#45;amélioration environnementale</title>
<path fill="none" stroke="darkgrey" stroke-width="1.44" d="M226,-295.17C240.91,-306.59 260.22,-321.4 269.67,-328.64"/>
</g>
<!-- travail&#45;&#45;politique -->
<g id="edge12" class="edge">
<title>travail&#45;&#45;politique</title>
<path fill="none" stroke="darkgrey" stroke-width="2.67" d="M225.01,-390.06C246.41,-385.49 286.62,-376.92 309.92,-371.95"/>
</g>
<!-- travail&#45;&#45;secteur nickel -->
<g id="edge13" class="edge">
<title>travail&#45;&#45;secteur nickel</title>
<path fill="none" stroke="darkgrey" stroke-width="2.58" d="M206.35,-379.16C197.2,-349.29 175.75,-279.29 165.74,-246.64"/>
</g>
<!-- travail&#45;&#45;pollution -->
<g id="edge14" class="edge">
<title>travail&#45;&#45;pollution</title>
<path fill="none" stroke="darkgrey" stroke-width="4.16" d="M225.29,-395.24C234.52,-396.58 246.6,-398.33 256.89,-399.82"/>
</g>
<!-- travail&#45;&#45;ressource minière -->
<g id="edge15" class="edge">
<title>travail&#45;&#45;ressource minière</title>
<path fill="none" stroke="darkgrey" stroke-width="1.82" d="M223.62,-386.28C255,-369.75 335.08,-327.58 372.03,-308.12"/>
</g>
<!-- travail&#45;&#45;dégradation environnementale -->
<g id="edge16" class="edge">
<title>travail&#45;&#45;dégradation environnementale</title>
<path fill="none" stroke="darkgrey" stroke-width="5.4" d="M220.48,-381.83C237,-362.88 270.73,-324.21 293.71,-297.87"/>
</g>
<!-- travail&#45;&#45;société néo&#45;calédonienne -->
<g id="edge17" class="edge">
<title>travail&#45;&#45;société néo&#45;calédonienne</title>
<path fill="none" stroke="darkgrey" stroke-width="2.57" d="M196.31,-390.29C177.99,-386.65 146.64,-380.44 130.05,-377.15"/>
</g>
<!-- travail&#45;&#45;alternative au développement -->
<g id="edge18" class="edge">
<title>travail&#45;&#45;alternative au développement</title>
<path fill="none" stroke="darkgrey" stroke-width="2.82" d="M213.95,-378.87C220.46,-350.92 234.97,-288.61 243.06,-253.87"/>
</g>
<!-- travail&#45;&#45;économie -->
<g id="edge19" class="edge">
<title>travail&#45;&#45;économie</title>
<path fill="none" stroke="darkgrey" stroke-width="3.05" d="M215.13,-379.24C227.56,-340.9 262.26,-233.85 274.71,-195.45"/>
</g>
<!-- travail&#45;&#45;amélioration environnementale -->
<g id="edge20" class="edge">
<title>travail&#45;&#45;amélioration environnementale</title>
<path fill="none" stroke="darkgrey" stroke-width="1.8" d="M221.32,-383.2C235.4,-370.13 259.61,-347.66 270.19,-337.84"/>
</g>
<!-- travail&#45;&#45;essor technologique -->
<g id="edge21" class="edge">
<title>travail&#45;&#45;essor technologique</title>
<path fill="none" stroke="darkgrey" stroke-width="2.24" d="M225.38,-393.82C265.4,-395.72 375.65,-400.95 415.59,-402.85"/>
</g>
<!-- politique&#45;&#45;secteur nickel -->
<g id="edge22" class="edge">
<title>politique&#45;&#45;secteur nickel</title>
<path fill="none" stroke="darkgrey" stroke-width="2.92" d="M313.88,-356.52C282.44,-330.46 206.47,-267.47 174.73,-241.16"/>
</g>
<!-- politique&#45;&#45;pollution -->
<g id="edge23" class="edge">
<title>politique&#45;&#45;pollution</title>
<path fill="none" stroke="darkgrey" stroke-width="2.34" d="M312.96,-378.55C307.59,-382.31 301.47,-386.6 295.88,-390.51"/>
</g>
<!-- politique&#45;&#45;ressource minière -->
<g id="edge24" class="edge">
<title>politique&#45;&#45;ressource minière</title>
<path fill="none" stroke="darkgrey" stroke-width="3.22" d="M340.09,-354.6C350.52,-343.06 365.54,-326.44 376.61,-314.19"/>
</g>
<!-- politique&#45;&#45;dégradation environnementale -->
<g id="edge25" class="edge">
<title>politique&#45;&#45;dégradation environnementale</title>
<path fill="none" stroke="darkgrey" stroke-width="3.89" d="M325.9,-349.8C324.6,-337.67 322.84,-321.36 321.27,-306.71"/>
</g>
<!-- politique&#45;&#45;société néo&#45;calédonienne -->
<g id="edge26" class="edge">
<title>politique&#45;&#45;société néo&#45;calédonienne</title>
<path fill="none" stroke="darkgrey" stroke-width="1.03" d="M309.7,-368.71C267.62,-370.09 164.45,-373.47 130.23,-374.6"/>
</g>
<!-- politique&#45;&#45;alternative au développement -->
<g id="edge27" class="edge">
<title>politique&#45;&#45;alternative au développement</title>
<path fill="none" stroke="darkgrey" stroke-width="2.11" d="M318.95,-352.46C304.81,-327.64 277.22,-279.18 261.17,-251"/>
</g>
<!-- politique&#45;&#45;économie -->
<g id="edge28" class="edge">
<title>politique&#45;&#45;économie</title>
<path fill="none" stroke="darkgrey" stroke-width="2.98" d="M323.29,-350.56C313.74,-313.91 291.83,-229.85 283.01,-196.01"/>
</g>
<!-- secteur nickel&#45;&#45;pollution -->
<g id="edge29" class="edge">
<title>secteur nickel&#45;&#45;pollution</title>
<path fill="none" stroke="darkgrey" stroke-width="2.79" d="M170.68,-244.41C192.33,-276.33 242.67,-350.54 265.96,-384.88"/>
</g>
<!-- secteur nickel&#45;&#45;ressource minière -->
<g id="edge30" class="edge">
<title>secteur nickel&#45;&#45;ressource minière</title>
<path fill="none" stroke="darkgrey" stroke-width="1.52" d="M177.78,-234.47C219.5,-246.89 325.34,-278.39 370.41,-291.81"/>
</g>
<!-- secteur nickel&#45;&#45;dégradation environnementale -->
<g id="edge31" class="edge">
<title>secteur nickel&#45;&#45;dégradation environnementale</title>
<path fill="none" stroke="darkgrey" stroke-width="2.53" d="M178.13,-233.98C203.31,-240.62 249.99,-252.93 282.32,-261.45"/>
</g>
<!-- secteur nickel&#45;&#45;alternative au développement -->
<g id="edge32" class="edge">
<title>secteur nickel&#45;&#45;alternative au développement</title>
<path fill="none" stroke="darkgrey" stroke-width="4.36" d="M178.74,-229.3C191.68,-229.29 209.19,-229.28 223.47,-229.28"/>
</g>
<!-- secteur nickel&#45;&#45;économie -->
<g id="edge34" class="edge">
<title>secteur nickel&#45;&#45;économie</title>
<path fill="none" stroke="darkgrey" stroke-width="1.52" d="M177.2,-222.56C200.86,-213.04 243.61,-195.84 265.5,-187.04"/>
</g>
<!-- secteur nickel&#45;&#45;amélioration environnementale -->
<g id="edge35" class="edge">
<title>secteur nickel&#45;&#45;amélioration environnementale</title>
<path fill="none" stroke="darkgrey" stroke-width="2.2" d="M174.07,-241.61C199.52,-264.58 253.22,-313.02 270.15,-328.3"/>
</g>
<!-- secteur nickel&#45;&#45;nickel -->
<g id="edge33" class="edge">
<title>secteur nickel&#45;&#45;nickel</title>
<path fill="none" stroke="darkgrey" stroke-width="1.05" d="M143.75,-236.62C118.04,-247.9 71.04,-268.51 65.27,-271.04"/>
</g>
<!-- avenir avec nickel&#45;&#45;dégradation environnementale -->
<g id="edge36" class="edge">
<title>avenir avec nickel&#45;&#45;dégradation environnementale</title>
<path fill="none" stroke="darkgrey" stroke-width="1.84" d="M412.95,-170.77C403.4,-180.76 367.68,-218.12 342.73,-244.22"/>
</g>
<!-- avenir avec nickel&#45;&#45;alternative au développement -->
<g id="edge37" class="edge">
<title>avenir avec nickel&#45;&#45;alternative au développement</title>
<path fill="none" stroke="darkgrey" stroke-width="1.27" d="M411.89,-169.51C394.18,-176 313.32,-205.62 272.5,-220.58"/>
</g>
<!-- avenir avec nickel&#45;&#45;économie -->
<g id="edge38" class="edge">
<title>avenir avec nickel&#45;&#45;économie</title>
<path fill="none" stroke="darkgrey" stroke-width="1.55" d="M411.73,-168.59C394.98,-170.23 324.88,-177.06 293.97,-180.08"/>
</g>
<!-- avenir avec nickel&#45;&#45;amélioration environnementale -->
<g id="edge39" class="edge">
<title>avenir avec nickel&#45;&#45;amélioration environnementale</title>
<path fill="none" stroke="darkgrey" stroke-width="2.21" d="M412.94,-171.1C396.53,-190.41 301.89,-301.82 279.93,-327.66"/>
</g>
<!-- avenir avec nickel&#45;&#45;essor technologique -->
<g id="edge40" class="edge">
<title>avenir avec nickel&#45;&#45;essor technologique</title>
<path fill="none" stroke="darkgrey" stroke-width="1.4" d="M415.6,-171.93C417.19,-196.96 426.38,-341.99 429.35,-388.91"/>
</g>
<!-- pollution&#45;&#45;ressource minière -->
<g id="edge41" class="edge">
<title>pollution&#45;&#45;ressource minière</title>
<path fill="none" stroke="darkgrey" stroke-width="3.81" d="M294.38,-387.87C316,-367.82 354.02,-332.53 375.43,-312.67"/>
</g>
<!-- pollution&#45;&#45;dégradation environnementale -->
<g id="edge42" class="edge">
<title>pollution&#45;&#45;dégradation environnementale</title>
<path fill="none" stroke="darkgrey" stroke-width="10" d="M284.31,-382.24C290.41,-361.69 299.88,-329.78 307.12,-305.35"/>
</g>
<!-- pollution&#45;&#45;société néo&#45;calédonienne -->
<g id="edge44" class="edge">
<title>pollution&#45;&#45;société néo&#45;calédonienne</title>
<path fill="none" stroke="darkgrey" stroke-width="2.29" d="M256.72,-399.13C222.43,-393.11 156.51,-381.55 130.22,-376.93"/>
</g>
<!-- pollution&#45;&#45;alternative au développement -->
<g id="edge45" class="edge">
<title>pollution&#45;&#45;alternative au développement</title>
<path fill="none" stroke="darkgrey" stroke-width="3.8" d="M274.58,-381.61C269.12,-349.37 258.79,-288.31 252.99,-254.1"/>
</g>
<!-- pollution&#45;&#45;économie -->
<g id="edge47" class="edge">
<title>pollution&#45;&#45;économie</title>
<path fill="none" stroke="darkgrey" stroke-width="3.58" d="M278.29,-381.27C278.5,-336.44 278.98,-234.41 279.16,-196.27"/>
</g>
<!-- pollution&#45;&#45;essor technologique -->
<g id="edge48" class="edge">
<title>pollution&#45;&#45;essor technologique</title>
<path fill="none" stroke="darkgrey" stroke-width="1.83" d="M299.98,-402.99C331.35,-403.12 388.45,-403.37 415.41,-403.48"/>
</g>
<!-- pollution&#45;&#45;nickel -->
<g id="edge46" class="edge">
<title>pollution&#45;&#45;nickel</title>
<path fill="none" stroke="darkgrey" stroke-width="1.07" d="M259.61,-391.45C209.7,-360.68 75.72,-278.1 65.32,-271.69"/>
</g>
<!-- pollution&#45;&#45;nature -->
<g id="edge43" class="edge">
<title>pollution&#45;&#45;nature</title>
<path fill="none" stroke="darkgrey" stroke-width="1.72" d="M297.28,-392.1C351.74,-361.32 505.44,-274.43 529.12,-261.04"/>
</g>
<!-- ressource minière&#45;&#45;dégradation environnementale -->
<g id="edge49" class="edge">
<title>ressource minière&#45;&#45;dégradation environnementale</title>
<path fill="none" stroke="darkgrey" stroke-width="6.08" d="M371.06,-290.55C364.91,-288.27 357.98,-285.71 351.19,-283.2"/>
</g>
<!-- ressource minière&#45;&#45;alternative au développement -->
<g id="edge50" class="edge">
<title>ressource minière&#45;&#45;alternative au développement</title>
<path fill="none" stroke="darkgrey" stroke-width="3.9" d="M371.73,-288.59C345.52,-275.94 299.03,-253.51 271.35,-240.15"/>
</g>
<!-- ressource minière&#45;&#45;économie -->
<g id="edge51" class="edge">
<title>ressource minière&#45;&#45;économie</title>
<path fill="none" stroke="darkgrey" stroke-width="2.84" d="M376.13,-282.3C352.96,-258.2 309.26,-212.75 289.45,-192.15"/>
</g>
<!-- ressource minière&#45;&#45;essor technologique -->
<g id="edge52" class="edge">
<title>ressource minière&#45;&#45;essor technologique</title>
<path fill="none" stroke="darkgrey" stroke-width="3.33" d="M398.77,-318.36C406.52,-339.32 418.4,-371.43 425.14,-389.65"/>
</g>
<!-- dégradation environnementale&#45;&#45;société néo&#45;calédonienne -->
<g id="edge54" class="edge">
<title>dégradation environnementale&#45;&#45;société néo&#45;calédonienne</title>
<path fill="none" stroke="darkgrey" stroke-width="1.81" d="M285.52,-287.46C239.52,-311.63 156.93,-355.03 128.74,-369.84"/>
</g>
<!-- dégradation environnementale&#45;&#45;alternative au développement -->
<g id="edge55" class="edge">
<title>dégradation environnementale&#45;&#45;alternative au développement</title>
<path fill="none" stroke="darkgrey" stroke-width="3.71" d="M286.31,-251.92C280.92,-248.67 275.42,-245.35 270.36,-242.29"/>
</g>
<!-- dégradation environnementale&#45;&#45;économie -->
<g id="edge57" class="edge">
<title>dégradation environnementale&#45;&#45;économie</title>
<path fill="none" stroke="darkgrey" stroke-width="5.78" d="M303.19,-237.49C296.91,-222.83 289.89,-206.41 285.07,-195.17"/>
</g>
<!-- dégradation environnementale&#45;&#45;amélioration environnementale -->
<g id="edge58" class="edge">
<title>dégradation environnementale&#45;&#45;amélioration environnementale</title>
<path fill="none" stroke="darkgrey" stroke-width="2.32" d="M297.13,-300.77C290.41,-310.72 283.6,-320.83 279.43,-327.01"/>
</g>
<!-- dégradation environnementale&#45;&#45;essor technologique -->
<g id="edge59" class="edge">
<title>dégradation environnementale&#45;&#45;essor technologique</title>
<path fill="none" stroke="darkgrey" stroke-width="2.73" d="M340.79,-298.23C365.46,-327.26 403.13,-371.6 420.67,-392.24"/>
</g>
<!-- dégradation environnementale&#45;&#45;nickel -->
<g id="edge56" class="edge">
<title>dégradation environnementale&#45;&#45;nickel</title>
<path fill="none" stroke="darkgrey" stroke-width="1.39" d="M281.19,-270.79C214.04,-270.95 76.02,-271.27 65.34,-271.29"/>
</g>
<!-- dégradation environnementale&#45;&#45;nature -->
<g id="edge53" class="edge">
<title>dégradation environnementale&#45;&#45;nature</title>
<path fill="none" stroke="darkgrey" stroke-width="2.66" d="M353.35,-268.8C408.05,-265.89 508.01,-260.59 528.48,-259.5"/>
</g>
<!-- société néo&#45;calédonienne&#45;&#45;alternative au développement -->
<g id="edge60" class="edge">
<title>société néo&#45;calédonienne&#45;&#45;alternative au développement</title>
<path fill="none" stroke="darkgrey" stroke-width="2.14" d="M126.35,-366.71C146.57,-344.02 203.4,-280.22 231.96,-248.16"/>
</g>
<!-- société néo&#45;calédonienne&#45;&#45;économie -->
<g id="edge62" class="edge">
<title>société néo&#45;calédonienne&#45;&#45;économie</title>
<path fill="none" stroke="darkgrey" stroke-width="1.89" d="M126.09,-366.4C151.89,-335.25 240.77,-227.95 269.9,-192.78"/>
</g>
<!-- société néo&#45;calédonienne&#45;&#45;nickel -->
<g id="edge61" class="edge">
<title>société néo&#45;calédonienne&#45;&#45;nickel</title>
<path fill="none" stroke="darkgrey" stroke-width="1.14" d="M113.79,-365.02C101.05,-340.7 69.04,-279.61 65.09,-272.06"/>
</g>
<!-- alternative au développement&#45;&#45;économie -->
<g id="edge65" class="edge">
<title>alternative au développement&#45;&#45;économie</title>
<path fill="none" stroke="darkgrey" stroke-width="4.71" d="M262.23,-208.18C265.35,-203.29 268.57,-198.23 271.36,-193.85"/>
</g>
<!-- alternative au développement&#45;&#45;amélioration environnementale -->
<g id="edge66" class="edge">
<title>alternative au développement&#45;&#45;amélioration environnementale</title>
<path fill="none" stroke="darkgrey" stroke-width="3.24" d="M255.02,-253.59C261.04,-277.07 269.78,-311.15 273.54,-325.84"/>
</g>
<!-- alternative au développement&#45;&#45;essor technologique -->
<g id="edge67" class="edge">
<title>alternative au développement&#45;&#45;essor technologique</title>
<path fill="none" stroke="darkgrey" stroke-width="3.27" d="M266.86,-246.61C304.33,-282.6 389.54,-364.43 419.57,-393.26"/>
</g>
<!-- alternative au développement&#45;&#45;nickel -->
<g id="edge64" class="edge">
<title>alternative au développement&#45;&#45;nickel</title>
<path fill="none" stroke="darkgrey" d="M224.34,-234.85C176.61,-245.74 74.83,-268.98 65.39,-271.14"/>
</g>
<!-- amélioration environnementale&#45;&#45;essor technologique -->
<g id="edge68" class="edge">
<title>amélioration environnementale&#45;&#45;essor technologique</title>
<path fill="none" stroke="darkgrey" stroke-width="1.12" d="M282.04,-336.05C305.55,-346.75 384.99,-382.92 416.87,-397.44"/>
</g>
<!-- nouvelle&#45;calédonie&#45;&#45;alternative au développement -->
<g id="edge63" class="edge">
<title>nouvelle&#45;calédonie&#45;&#45;alternative au développement</title>
<path fill="none" stroke="darkgrey" stroke-width="1.29" d="M244.66,-1.16C244.85,-11.72 247.3,-146.98 248.33,-204.09"/>
</g>
<!-- avenir sans nickel -->
<g id="node1" class="node">
<title>avenir sans nickel</title>
<ellipse fill="#f3761b" stroke="white" stroke-width="0" cx="205.91" cy="-279.76" rx="25" ry="25"/>
<text text-anchor="middle" x="144.41" y="-307.36" font-family="Helvetica,sans-Serif" font-size="8.00" fill="#4d4d4d">avenir sans nickel</text>
</g>
<!-- travail -->
<g id="node2" class="node">
<title>travail</title>
<ellipse fill="#982766" stroke="white" stroke-width="0" cx="210.63" cy="-393.12" rx="14.5" ry="14.5"/>
<text text-anchor="middle" x="183.13" y="-410.22" font-family="Helvetica,sans-Serif" font-size="8.00" fill="#4d4d4d">travail</text>
</g>
<!-- politique -->
<g id="node3" class="node">
<title>politique</title>
<ellipse fill="#ab2f5e" stroke="white" stroke-width="0" cx="327.87" cy="-368.12" rx="18" ry="18"/>
<text text-anchor="middle" x="291.37" y="-352.72" font-family="Helvetica,sans-Serif" font-size="8.00" fill="#4d4d4d">politique</text>
</g>
<!-- secteur nickel -->
<g id="node4" class="node">
<title>secteur nickel</title>
<ellipse fill="#a92e5e" stroke="white" stroke-width="0" cx="160.43" cy="-229.31" rx="18" ry="18"/>
<text text-anchor="middle" x="113.93" y="-249.91" font-family="Helvetica,sans-Serif" font-size="8.00" fill="#4d4d4d">secteur nickel</text>
</g>
<!-- avenir avec nickel -->
<g id="node5" class="node">
<title>avenir avec nickel</title>
<ellipse fill="#190c3e" stroke="white" stroke-width="0" cx="415.37" cy="-168.24" rx="3.5" ry="3.5"/>
<text text-anchor="middle" x="375.37" y="-174.34" font-family="Helvetica,sans-Serif" font-size="8.00" fill="#4d4d4d">avenir avec nickel</text>
</g>
<!-- pollution -->
<g id="node6" class="node">
<title>pollution</title>
<ellipse fill="#da4e3c" stroke="white" stroke-width="0" cx="278.19" cy="-402.9" rx="21.5" ry="21.5"/>
<text text-anchor="middle" x="238.19" y="-427" font-family="Helvetica,sans-Serif" font-size="8.00" fill="#4d4d4d">pollution</text>
</g>
<!-- ressource minière -->
<g id="node7" class="node">
<title>ressource minière</title>
<ellipse fill="#e75e2e" stroke="white" stroke-width="0" cx="391.24" cy="-298.01" rx="21.5" ry="21.5"/>
<text text-anchor="middle" x="333.24" y="-322.11" font-family="Helvetica,sans-Serif" font-size="8.00" fill="#4d4d4d">ressource minière</text>
</g>
<!-- dégradation environnementale -->
<g id="node8" class="node">
<title>dégradation environnementale</title>
<ellipse fill="#fcffa4" stroke="white" stroke-width="0" cx="317.4" cy="-270.7" rx="36" ry="36"/>
<text text-anchor="middle" x="344.9" y="-228.3" font-family="Helvetica,sans-Serif" font-size="8.00" fill="#4d4d4d">dégradation environnementale</text>
</g>
<!-- société néo&#45;calédonienne -->
<g id="node9" class="node">
<title>société néo&#45;calédonienne</title>
<ellipse fill="#61136e" stroke="white" stroke-width="0" cx="119" cy="-374.96" rx="11" ry="11"/>
<text text-anchor="middle" x="54" y="-388.56" font-family="Helvetica,sans-Serif" font-size="8.00" fill="#4d4d4d">société néo&#45;calédonienne</text>
</g>
<!-- alternative au développement -->
<g id="node10" class="node">
<title>alternative au développement</title>
<ellipse fill="#f3761b" stroke="white" stroke-width="0" cx="248.79" cy="-229.26" rx="25" ry="25"/>
<text text-anchor="middle" x="161.79" y="-197.86" font-family="Helvetica,sans-Serif" font-size="8.00" fill="#4d4d4d">alternative au développement</text>
</g>
<!-- économie -->
<g id="node11" class="node">
<title>économie</title>
<ellipse fill="#88226a" stroke="white" stroke-width="0" cx="279.23" cy="-181.52" rx="14.5" ry="14.5"/>
<text text-anchor="middle" x="244.23" y="-169.62" font-family="Helvetica,sans-Serif" font-size="8.00" fill="#4d4d4d">économie</text>
</g>
<!-- amélioration environnementale -->
<g id="node12" class="node">
<title>amélioration environnementale</title>
<ellipse fill="#440a68" stroke="white" stroke-width="0" cx="275.38" cy="-333.02" rx="7" ry="7"/>
<text text-anchor="middle" x="203.88" y="-342.62" font-family="Helvetica,sans-Serif" font-size="8.00" fill="#4d4d4d">amélioration environnementale</text>
</g>
<!-- essor technologique -->
<g id="node13" class="node">
<title>essor technologique</title>
<ellipse fill="#84206b" stroke="white" stroke-width="0" cx="430.28" cy="-403.55" rx="14.5" ry="14.5"/>
<text text-anchor="middle" x="373.28" y="-420.65" font-family="Helvetica,sans-Serif" font-size="8.00" fill="#4d4d4d">essor technologique</text>
</g>
<!-- nickel -->
<g id="node14" class="node">
<title>nickel</title>
<ellipse fill="#000004" stroke="white" stroke-width="0" cx="64.68" cy="-271.3" rx="0.5" ry="0.5"/>
<text text-anchor="middle" x="52.18" y="-274.4" font-family="Helvetica,sans-Serif" font-size="8.00" fill="#4d4d4d">nickel</text>
</g>
<!-- nature -->
<g id="node15" class="node">
<title>nature</title>
<ellipse fill="#10092d" stroke="white" stroke-width="0" cx="532.2" cy="-259.3" rx="3.5" ry="3.5"/>
<text text-anchor="middle" x="515.2" y="-265.4" font-family="Helvetica,sans-Serif" font-size="8.00" fill="#4d4d4d">nature</text>
</g>
<!-- nouvelle&#45;calédonie -->
<g id="node16" class="node">
<title>nouvelle&#45;calédonie</title>
<ellipse fill="#010005" stroke="white" stroke-width="0" cx="244.65" cy="-0.5" rx="0.5" ry="0.5"/>
<text text-anchor="middle" x="204.65" y="-3.6" font-family="Helvetica,sans-Serif" font-size="8.00" fill="#4d4d4d">nouvelle&#45;calédonie</text>
</g>
</g>
</svg>
