<?xml version="1.0" encoding="UTF-8" standalone="no"?>
<!DOCTYPE svg PUBLIC "-//W3C//DTD SVG 1.1//EN"
 "http://www.w3.org/Graphics/SVG/1.1/DTD/svg11.dtd">
<!-- Generated by graphviz version 2.43.0 (0)
 -->
<!-- Pages: 1 -->
<svg width="844pt" height="625pt"
 viewBox="0.00 0.00 843.82 624.73" xmlns="http://www.w3.org/2000/svg" xmlns:xlink="http://www.w3.org/1999/xlink">
<g id="graph0" class="graph" transform="scale(1 1) rotate(0) translate(4 620.73)">
<polygon fill="white" stroke="transparent" points="-4,4 -4,-620.73 839.82,-620.73 839.82,4 -4,4"/>
<!-- fin&#45;&#45;emploi -->
<g id="edge1" class="edge">
<title>fin&#45;&#45;emploi</title>
<path fill="none" stroke="darkgrey" stroke-width="2.21" d="M309.53,-287.92C308.53,-277.39 307.18,-263.08 306.12,-251.84"/>
</g>
<!-- fin&#45;&#45;pollution -->
<g id="edge2" class="edge">
<title>fin&#45;&#45;pollution</title>
<path fill="none" stroke="darkgrey" stroke-width="3.4" d="M325.28,-304.83C352.93,-309.4 413.81,-319.46 448.14,-325.13"/>
</g>
<!-- fin&#45;&#45;épuisement de la ressource -->
<g id="edge3" class="edge">
<title>fin&#45;&#45;épuisement de la ressource</title>
<path fill="none" stroke="darkgrey" stroke-width="1.46" d="M323.32,-294.74C336.17,-286.76 355.95,-274.47 367.54,-267.26"/>
</g>
<!-- fin&#45;&#45;impact environnemental -->
<g id="edge4" class="edge">
<title>fin&#45;&#45;impact environnemental</title>
<path fill="none" stroke="darkgrey" stroke-width="3.37" d="M324.74,-297.95C358.15,-287.07 444.06,-259.08 492.42,-243.32"/>
</g>
<!-- fin&#45;&#45;développement -->
<g id="edge5" class="edge">
<title>fin&#45;&#45;développement</title>
<path fill="none" stroke="darkgrey" stroke-width="1.08" d="M325.21,-299.89C348.83,-295.66 395.45,-287.3 416.65,-283.5"/>
</g>
<!-- fin&#45;&#45;amélioration environnementale -->
<g id="edge6" class="edge">
<title>fin&#45;&#45;amélioration environnementale</title>
<path fill="none" stroke="darkgrey" stroke-width="1.26" d="M315.18,-288.16C320.57,-270.17 329.83,-239.27 335.61,-219.97"/>
</g>
<!-- emploi&#45;&#45;pollution -->
<g id="edge7" class="edge">
<title>emploi&#45;&#45;pollution</title>
<path fill="none" stroke="darkgrey" stroke-width="5.8" d="M320.28,-242.88C350.51,-259.98 416.46,-297.28 450.94,-316.79"/>
</g>
<!-- emploi&#45;&#45;épuisement de la ressource -->
<g id="edge8" class="edge">
<title>emploi&#45;&#45;épuisement de la ressource</title>
<path fill="none" stroke="darkgrey" stroke-width="1.34" d="M321.6,-240.43C335.5,-245.71 354.64,-252.98 366.37,-257.43"/>
</g>
<!-- emploi&#45;&#45;impact environnemental -->
<g id="edge9" class="edge">
<title>emploi&#45;&#45;impact environnemental</title>
<path fill="none" stroke="darkgrey" stroke-width="6.42" d="M322.62,-233.76C359.24,-233.47 442.43,-232.8 490.57,-232.41"/>
</g>
<!-- emploi&#45;&#45;développement -->
<g id="edge12" class="edge">
<title>emploi&#45;&#45;développement</title>
<path fill="none" stroke="darkgrey" stroke-width="1.06" d="M321.29,-240.43C347.12,-250.42 395.72,-269.2 417.08,-277.46"/>
</g>
<!-- emploi&#45;&#45;amélioration environnementale -->
<g id="edge14" class="edge">
<title>emploi&#45;&#45;amélioration environnementale</title>
<path fill="none" stroke="darkgrey" stroke-width="4.56" d="M318.38,-221.93C321.1,-219.59 323.96,-217.13 326.69,-214.79"/>
</g>
<!-- emploi&#45;&#45;conflit -->
<g id="edge10" class="edge">
<title>emploi&#45;&#45;conflit</title>
<path fill="none" stroke="darkgrey" stroke-width="1.67" d="M311.88,-250.36C325.41,-280.23 353.65,-342.55 364.77,-367.08"/>
</g>
<!-- emploi&#45;&#45;vision positive de la ressource -->
<g id="edge11" class="edge">
<title>emploi&#45;&#45;vision positive de la ressource</title>
<path fill="none" stroke="darkgrey" stroke-width="1.28" d="M317.08,-220.89C332.82,-204.68 358.98,-177.76 370.03,-166.39"/>
</g>
<!-- emploi&#45;&#45;économie du pays -->
<g id="edge13" class="edge">
<title>emploi&#45;&#45;économie du pays</title>
<path fill="none" stroke="darkgrey" stroke-width="3.53" d="M315.03,-248.54C326.91,-264.9 345.77,-290.91 355.69,-304.58"/>
</g>
<!-- emploi&#45;&#45;famille -->
<g id="edge15" class="edge">
<title>emploi&#45;&#45;famille</title>
<path fill="none" stroke="darkgrey" stroke-width="1.52" d="M286.9,-229.12C234.03,-214.66 78.18,-172.03 52.96,-165.14"/>
</g>
<!-- emploi&#45;&#45;développement durable -->
<g id="edge16" class="edge">
<title>emploi&#45;&#45;développement durable</title>
<path fill="none" stroke="darkgrey" stroke-width="1.68" d="M319.54,-223.93C346.17,-206.34 400.68,-170.33 422.49,-155.92"/>
</g>
<!-- emploi&#45;&#45;innovation -->
<g id="edge17" class="edge">
<title>emploi&#45;&#45;innovation</title>
<path fill="none" stroke="darkgrey" stroke-width="1.45" d="M321.88,-229.07C350.39,-221.16 406.39,-205.64 432.61,-198.36"/>
</g>
<!-- emploi&#45;&#45;formation -->
<g id="edge18" class="edge">
<title>emploi&#45;&#45;formation</title>
<path fill="none" stroke="darkgrey" stroke-width="1.35" d="M290.64,-222.26C257.26,-194.05 174.25,-123.89 166.54,-117.38"/>
</g>
<!-- emploi&#45;&#45;automatisation -->
<g id="edge19" class="edge">
<title>emploi&#45;&#45;automatisation</title>
<path fill="none" stroke="darkgrey" stroke-width="1.1" d="M317.25,-247.13C346.52,-277.3 416.83,-349.77 430.81,-364.18"/>
</g>
<!-- pollution&#45;&#45;épuisement de la ressource -->
<g id="edge22" class="edge">
<title>pollution&#45;&#45;épuisement de la ressource</title>
<path fill="none" stroke="darkgrey" stroke-width="3.93" d="M452.1,-314.52C431.58,-300.03 401.19,-278.58 386.11,-267.92"/>
</g>
<!-- pollution&#45;&#45;impact environnemental -->
<g id="edge25" class="edge">
<title>pollution&#45;&#45;impact environnemental</title>
<path fill="none" stroke="darkgrey" stroke-width="10" d="M485.17,-307.2C492.31,-294.32 501.44,-277.87 509.33,-263.64"/>
</g>
<!-- pollution&#45;&#45;développement -->
<g id="edge29" class="edge">
<title>pollution&#45;&#45;développement</title>
<path fill="none" stroke="darkgrey" stroke-width="3.67" d="M455.54,-310.93C448.55,-303.57 440.85,-295.47 435.31,-289.64"/>
</g>
<!-- pollution&#45;&#45;amélioration environnementale -->
<g id="edge31" class="edge">
<title>pollution&#45;&#45;amélioration environnementale</title>
<path fill="none" stroke="darkgrey" stroke-width="2.77" d="M454.84,-311.9C427.84,-286.04 377.64,-237.97 353.89,-215.23"/>
</g>
<!-- pollution&#45;&#45;conflit -->
<g id="edge26" class="edge">
<title>pollution&#45;&#45;conflit</title>
<path fill="none" stroke="darkgrey" stroke-width="2.1" d="M450.22,-339.78C428.19,-350.01 395.8,-365.05 379.52,-372.61"/>
</g>
<!-- pollution&#45;&#45;vision positive de la ressource -->
<g id="edge27" class="edge">
<title>pollution&#45;&#45;vision positive de la ressource</title>
<path fill="none" stroke="darkgrey" stroke-width="1.49" d="M460.36,-307.59C437.88,-268.92 391.93,-189.86 378.79,-167.24"/>
</g>
<!-- pollution&#45;&#45;économie du pays -->
<g id="edge30" class="edge">
<title>pollution&#45;&#45;économie du pays</title>
<path fill="none" stroke="darkgrey" stroke-width="3.71" d="M448.1,-325.74C424.65,-322.43 390.57,-317.64 373.25,-315.2"/>
</g>
<!-- pollution&#45;&#45;développement durable -->
<g id="edge34" class="edge">
<title>pollution&#45;&#45;développement durable</title>
<path fill="none" stroke="darkgrey" stroke-width="1.63" d="M467.31,-304.65C458.25,-265.1 440.79,-188.91 434.31,-160.65"/>
</g>
<!-- pollution&#45;&#45;innovation -->
<g id="edge35" class="edge">
<title>pollution&#45;&#45;innovation</title>
<path fill="none" stroke="darkgrey" stroke-width="2.71" d="M468.14,-304.51C462.71,-276.54 454.05,-231.91 449.61,-209.02"/>
</g>
<!-- pollution&#45;&#45;automatisation -->
<g id="edge37" class="edge">
<title>pollution&#45;&#45;automatisation</title>
<path fill="none" stroke="darkgrey" stroke-width="1.21" d="M454.49,-346.65C447.2,-353.53 439.66,-360.64 435.83,-364.26"/>
</g>
<!-- pollution&#45;&#45;montagne -->
<g id="edge23" class="edge">
<title>pollution&#45;&#45;montagne</title>
<path fill="none" stroke="darkgrey" stroke-width="1.43" d="M473.81,-354.54C475.92,-415.75 481.19,-568.67 482.08,-594.5"/>
</g>
<!-- pollution&#45;&#45;biodiversité -->
<g id="edge24" class="edge">
<title>pollution&#45;&#45;biodiversité</title>
<path fill="none" stroke="darkgrey" stroke-width="2.4" d="M491.95,-345.69C523.65,-373.13 585.67,-426.8 604.28,-442.91"/>
</g>
<!-- pollution&#45;&#45;avenir -->
<g id="edge28" class="edge">
<title>pollution&#45;&#45;avenir</title>
<path fill="none" stroke="darkgrey" stroke-width="1.11" d="M495.46,-318.37C540.08,-296.85 637.06,-250.07 656.3,-240.79"/>
</g>
<!-- pollution&#45;&#45;revenu -->
<g id="edge32" class="edge">
<title>pollution&#45;&#45;revenu</title>
<path fill="none" stroke="darkgrey" stroke-width="1.32" d="M498.21,-328.16C547.66,-326.06 654.23,-321.53 675.37,-320.63"/>
</g>
<!-- pollution&#45;&#45;déclin -->
<g id="edge33" class="edge">
<title>pollution&#45;&#45;déclin</title>
<path fill="none" stroke="darkgrey" stroke-width="1.54" d="M496.99,-336.92C539.98,-350.66 627.85,-378.73 652.98,-386.77"/>
</g>
<!-- pollution&#45;&#45;richesse -->
<g id="edge36" class="edge">
<title>pollution&#45;&#45;richesse</title>
<path fill="none" stroke="darkgrey" stroke-width="1.52" d="M487.95,-349.68C502.99,-370.15 524.84,-399.9 531.6,-409.12"/>
</g>
<!-- épuisement de la ressource&#45;&#45;impact environnemental -->
<g id="edge38" class="edge">
<title>épuisement de la ressource&#45;&#45;impact environnemental</title>
<path fill="none" stroke="darkgrey" stroke-width="4.38" d="M388.18,-259.23C409.77,-255.01 457.77,-245.62 491.2,-239.08"/>
</g>
<!-- épuisement de la ressource&#45;&#45;développement -->
<g id="edge40" class="edge">
<title>épuisement de la ressource&#45;&#45;développement</title>
<path fill="none" stroke="darkgrey" stroke-width="2.43" d="M387.17,-265.5C395.97,-268.99 408.57,-273.99 417.36,-277.47"/>
</g>
<!-- épuisement de la ressource&#45;&#45;amélioration environnementale -->
<g id="edge42" class="edge">
<title>épuisement de la ressource&#45;&#45;amélioration environnementale</title>
<path fill="none" stroke="darkgrey" stroke-width="1.11" d="M371.11,-252C365.53,-242.91 356.98,-229.02 350.38,-218.29"/>
</g>
<!-- épuisement de la ressource&#45;&#45;conflit -->
<g id="edge39" class="edge">
<title>épuisement de la ressource&#45;&#45;conflit</title>
<path fill="none" stroke="darkgrey" stroke-width="1.91" d="M376.2,-272.55C374.76,-294.64 371.57,-343.86 370.13,-366.06"/>
</g>
<!-- épuisement de la ressource&#45;&#45;économie du pays -->
<g id="edge41" class="edge">
<title>épuisement de la ressource&#45;&#45;économie du pays</title>
<path fill="none" stroke="darkgrey" stroke-width="1.71" d="M373.88,-272.26C371.37,-281.22 367.81,-293.89 365.3,-302.85"/>
</g>
<!-- épuisement de la ressource&#45;&#45;innovation -->
<g id="edge43" class="edge">
<title>épuisement de la ressource&#45;&#45;innovation</title>
<path fill="none" stroke="darkgrey" stroke-width="1.17" d="M384.93,-253.75C397.55,-241.65 422.05,-218.15 436.13,-204.65"/>
</g>
<!-- impact environnemental&#45;&#45;développement -->
<g id="edge50" class="edge">
<title>impact environnemental&#45;&#45;développement</title>
<path fill="none" stroke="darkgrey" stroke-width="5.21" d="M494.33,-248.3C474.67,-258.09 450.91,-269.92 437.7,-276.5"/>
</g>
<!-- impact environnemental&#45;&#45;amélioration environnementale -->
<g id="edge52" class="edge">
<title>impact environnemental&#45;&#45;amélioration environnementale</title>
<path fill="none" stroke="darkgrey" stroke-width="2.92" d="M490.95,-226.44C451.46,-220.19 389.54,-210.4 359.02,-205.57"/>
</g>
<!-- impact environnemental&#45;&#45;conflit -->
<g id="edge46" class="edge">
<title>impact environnemental&#45;&#45;conflit</title>
<path fill="none" stroke="darkgrey" stroke-width="4.85" d="M500.12,-256.75C463.63,-290.4 400.14,-348.96 377.62,-369.73"/>
</g>
<!-- impact environnemental&#45;&#45;vision positive de la ressource -->
<g id="edge48" class="edge">
<title>impact environnemental&#45;&#45;vision positive de la ressource</title>
<path fill="none" stroke="darkgrey" stroke-width="2.03" d="M493.92,-216.7C457.34,-199.56 400.89,-173.1 381.78,-164.15"/>
</g>
<!-- impact environnemental&#45;&#45;économie du pays -->
<g id="edge51" class="edge">
<title>impact environnemental&#45;&#45;économie du pays</title>
<path fill="none" stroke="darkgrey" stroke-width="4.66" d="M494.31,-248.22C456.47,-266.97 396.14,-296.87 372.37,-308.65"/>
</g>
<!-- impact environnemental&#45;&#45;développement durable -->
<g id="edge56" class="edge">
<title>impact environnemental&#45;&#45;développement durable</title>
<path fill="none" stroke="darkgrey" stroke-width="1.35" d="M499.6,-208.52C479.64,-191.22 453.8,-168.82 440.53,-157.32"/>
</g>
<!-- impact environnemental&#45;&#45;innovation -->
<g id="edge57" class="edge">
<title>impact environnemental&#45;&#45;innovation</title>
<path fill="none" stroke="darkgrey" stroke-width="2.52" d="M493.8,-216.57C481.92,-210.98 469.18,-204.98 459.96,-200.64"/>
</g>
<!-- impact environnemental&#45;&#45;automatisation -->
<g id="edge61" class="edge">
<title>impact environnemental&#45;&#45;automatisation</title>
<path fill="none" stroke="darkgrey" stroke-width="1.45" d="M506.06,-261.98C482.15,-296.37 444.96,-349.86 435.5,-363.46"/>
</g>
<!-- impact environnemental&#45;&#45;avenir -->
<g id="edge49" class="edge">
<title>impact environnemental&#45;&#45;avenir</title>
<path fill="none" stroke="darkgrey" stroke-width="1.54" d="M563.12,-234.04C596.61,-235.82 643.06,-238.29 656.12,-238.98"/>
</g>
<!-- impact environnemental&#45;&#45;revenu -->
<g id="edge54" class="edge">
<title>impact environnemental&#45;&#45;revenu</title>
<path fill="none" stroke="darkgrey" stroke-width="1.86" d="M558,-250.21C596.97,-272.83 660.43,-309.66 675.68,-318.52"/>
</g>
<!-- impact environnemental&#45;&#45;déclin -->
<g id="edge55" class="edge">
<title>impact environnemental&#45;&#45;déclin</title>
<path fill="none" stroke="darkgrey" stroke-width="1.96" d="M550.3,-259.8C582.67,-297.96 638.87,-364.23 655.24,-383.54"/>
</g>
<!-- impact environnemental&#45;&#45;richesse -->
<g id="edge58" class="edge">
<title>impact environnemental&#45;&#45;richesse</title>
<path fill="none" stroke="darkgrey" stroke-width="1.97" d="M528.21,-268.51C529.98,-314.89 532.88,-391.16 533.54,-408.4"/>
</g>
<!-- impact environnemental&#45;&#45;croissance minière -->
<g id="edge45" class="edge">
<title>impact environnemental&#45;&#45;croissance minière</title>
<path fill="none" stroke="darkgrey" stroke-width="1.75" d="M522.1,-196.39C514.44,-138.38 499.86,-28 497.08,-7"/>
</g>
<!-- impact environnemental&#45;&#45;milieu -->
<g id="edge47" class="edge">
<title>impact environnemental&#45;&#45;milieu</title>
<path fill="none" stroke="darkgrey" stroke-width="1.28" d="M557.76,-212.84C613.18,-178.31 725.5,-108.32 746.07,-95.5"/>
</g>
<!-- impact environnemental&#45;&#45;maintien de l’exploitation -->
<g id="edge53" class="edge">
<title>impact environnemental&#45;&#45;maintien de l’exploitation</title>
<path fill="none" stroke="darkgrey" d="M515.27,-197.94C499.91,-152.47 473.99,-75.78 468.12,-58.43"/>
</g>
<!-- impact environnemental&#45;&#45;main d’oeuvre -->
<g id="edge59" class="edge">
<title>impact environnemental&#45;&#45;main d’oeuvre</title>
<path fill="none" stroke="darkgrey" stroke-width="1.18" d="M546.83,-201.55C584.51,-143.99 662.88,-24.25 670.15,-13.15"/>
</g>
<!-- impact environnemental&#45;&#45;investissement -->
<g id="edge60" class="edge">
<title>impact environnemental&#45;&#45;investissement</title>
<path fill="none" stroke="darkgrey" stroke-width="1.22" d="M562.82,-228.73C633.26,-222.11 783.47,-207.99 795.1,-206.89"/>
</g>
<!-- développement&#45;&#45;amélioration environnementale -->
<g id="edge68" class="edge">
<title>développement&#45;&#45;amélioration environnementale</title>
<path fill="none" stroke="darkgrey" stroke-width="2.47" d="M419.28,-273.97C404.25,-260.33 372.48,-231.47 354.3,-214.96"/>
</g>
<!-- développement&#45;&#45;économie du pays -->
<g id="edge67" class="edge">
<title>développement&#45;&#45;économie du pays</title>
<path fill="none" stroke="darkgrey" stroke-width="2.26" d="M417.68,-286.41C405.4,-292.45 384.61,-302.67 372.29,-308.73"/>
</g>
<!-- développement&#45;&#45;développement durable -->
<g id="edge69" class="edge">
<title>développement&#45;&#45;développement durable</title>
<path fill="none" stroke="darkgrey" stroke-width="1.23" d="M427.96,-270.3C428.76,-245.4 430.66,-185.84 431.46,-160.97"/>
</g>
<!-- développement&#45;&#45;innovation -->
<g id="edge70" class="edge">
<title>développement&#45;&#45;innovation</title>
<path fill="none" stroke="darkgrey" stroke-width="1.52" d="M430.03,-270.5C433.48,-254.85 439.79,-226.17 443.6,-208.85"/>
</g>
<!-- développement&#45;&#45;richesse -->
<g id="edge71" class="edge">
<title>développement&#45;&#45;richesse</title>
<path fill="none" stroke="darkgrey" stroke-width="1.08" d="M434.56,-290.09C455.58,-315.93 517.78,-392.39 531.13,-408.81"/>
</g>
<!-- amélioration environnementale&#45;&#45;développement durable -->
<g id="edge73" class="edge">
<title>amélioration environnementale&#45;&#45;développement durable</title>
<path fill="none" stroke="darkgrey" stroke-width="3.67" d="M356.64,-193.47C375.59,-182.45 406.69,-164.37 422.28,-155.31"/>
</g>
<!-- amélioration environnementale&#45;&#45;innovation -->
<g id="edge74" class="edge">
<title>amélioration environnementale&#45;&#45;innovation</title>
<path fill="none" stroke="darkgrey" stroke-width="1.65" d="M358.76,-201.28C379.44,-199.68 412.97,-197.07 432.13,-195.58"/>
</g>
<!-- amélioration environnementale&#45;&#45;formation -->
<g id="edge75" class="edge">
<title>amélioration environnementale&#45;&#45;formation</title>
<path fill="none" stroke="darkgrey" stroke-width="1.11" d="M324.34,-194.61C282.86,-174.26 176.58,-122.1 166.71,-117.25"/>
</g>
<!-- amélioration environnementale&#45;&#45;maintien de l’exploitation -->
<g id="edge72" class="edge">
<title>amélioration environnementale&#45;&#45;maintien de l’exploitation</title>
<path fill="none" stroke="darkgrey" stroke-width="2.02" d="M352.65,-188.78C380.86,-155.72 450.62,-73.97 464.49,-57.71"/>
</g>
<!-- conflit&#45;&#45;développement -->
<g id="edge63" class="edge">
<title>conflit&#45;&#45;développement</title>
<path fill="none" stroke="darkgrey" stroke-width="1.14" d="M375.2,-367.78C386.35,-349.42 410.7,-309.35 421.83,-291.03"/>
</g>
<!-- conflit&#45;&#45;économie du pays -->
<g id="edge64" class="edge">
<title>conflit&#45;&#45;économie du pays</title>
<path fill="none" stroke="darkgrey" stroke-width="1.62" d="M368.16,-366.22C366.85,-354.54 364.8,-336.25 363.5,-324.61"/>
</g>
<!-- vision positive de la ressource&#45;&#45;économie du pays -->
<g id="edge65" class="edge">
<title>vision positive de la ressource&#45;&#45;économie du pays</title>
<path fill="none" stroke="darkgrey" stroke-width="1.67" d="M374.58,-168.43C372.49,-193.07 365.73,-272.81 363.22,-302.44"/>
</g>
<!-- vision positive de la ressource&#45;&#45;innovation -->
<g id="edge66" class="edge">
<title>vision positive de la ressource&#45;&#45;innovation</title>
<path fill="none" stroke="darkgrey" stroke-width="1.38" d="M381.8,-164.15C393.5,-169.6 418.07,-181.05 433.42,-188.21"/>
</g>
<!-- développement durable&#45;&#45;innovation -->
<g id="edge76" class="edge">
<title>développement durable&#45;&#45;innovation</title>
<path fill="none" stroke="darkgrey" stroke-width="2.01" d="M435.44,-160.58C437.45,-166.57 439.96,-174.08 442.11,-180.51"/>
</g>
<!-- innovation&#45;&#45;automatisation -->
<g id="edge77" class="edge">
<title>innovation&#45;&#45;automatisation</title>
<path fill="none" stroke="darkgrey" stroke-width="1.24" d="M445.62,-209.12C442.7,-246.39 435.11,-343.07 433.54,-363.05"/>
</g>
<!-- procédé industriel&#45;&#45;pollution -->
<g id="edge20" class="edge">
<title>procédé industriel&#45;&#45;pollution</title>
<path fill="none" stroke="darkgrey" stroke-width="1.18" d="M267.08,-414.81C287.71,-406.23 400.12,-359.5 449.57,-338.95"/>
</g>
<!-- procédé industriel&#45;&#45;amélioration environnementale -->
<g id="edge21" class="edge">
<title>procédé industriel&#45;&#45;amélioration environnementale</title>
<path fill="none" stroke="darkgrey" stroke-width="1.46" d="M265.01,-412.82C272.97,-390.75 318.02,-265.82 334.63,-219.75"/>
</g>
<!-- biodiversité&#45;&#45;impact environnemental -->
<g id="edge44" class="edge">
<title>biodiversité&#45;&#45;impact environnemental</title>
<path fill="none" stroke="darkgrey" stroke-width="1.2" d="M607.11,-440.9C597.03,-414.69 559.78,-317.81 539.76,-265.74"/>
</g>
<!-- croissance minière&#45;&#45;innovation -->
<g id="edge62" class="edge">
<title>croissance minière&#45;&#45;innovation</title>
<path fill="none" stroke="darkgrey" stroke-width="1.12" d="M495.67,-7.14C490.03,-28.75 460.88,-140.42 450.47,-180.28"/>
</g>
<!-- fin -->
<g id="node1" class="node">
<title>fin</title>
<ellipse fill="#7f1e6c" stroke="white" stroke-width="0" cx="310.9" cy="-302.46" rx="14.5" ry="14.5"/>
<text text-anchor="middle" x="283.9" y="-322.24" font-family="Helvetica,sans-Serif" font-size="18.40" fill="#4d4d4d">fin</text>
</g>
<!-- emploi -->
<g id="node2" class="node">
<title>emploi</title>
<ellipse fill="#b93556" stroke="white" stroke-width="0" cx="304.42" cy="-233.91" rx="18" ry="18"/>
<text text-anchor="middle" x="252.92" y="-257.91" font-family="Helvetica,sans-Serif" font-size="20.00" fill="#4d4d4d">emploi</text>
</g>
<!-- pollution -->
<g id="node3" class="node">
<title>pollution</title>
<ellipse fill="#ea632a" stroke="white" stroke-width="0" cx="472.94" cy="-329.23" rx="25" ry="25"/>
<text text-anchor="middle" x="499.44" y="-361.67" font-family="Helvetica,sans-Serif" font-size="23.20" fill="#4d4d4d">pollution</text>
</g>
<!-- épuisement de la ressource -->
<g id="node4" class="node">
<title>épuisement de la ressource</title>
<ellipse fill="#67166e" stroke="white" stroke-width="0" cx="376.92" cy="-261.44" rx="11" ry="11"/>
<text text-anchor="middle" x="248.42" y="-277" font-family="Helvetica,sans-Serif" font-size="16.80" fill="#4d4d4d">épuisement de la ressource</text>
</g>
<!-- impact environnemental -->
<g id="node5" class="node">
<title>impact environnemental</title>
<ellipse fill="#fcffa4" stroke="white" stroke-width="0" cx="526.82" cy="-232.12" rx="36" ry="36"/>
<text text-anchor="middle" x="663.32" y="-276.72" font-family="Helvetica,sans-Serif" font-size="28.00" fill="#4d4d4d">impact environnemental</text>
</g>
<!-- développement -->
<g id="node6" class="node">
<title>développement</title>
<ellipse fill="#64156e" stroke="white" stroke-width="0" cx="427.6" cy="-281.53" rx="11" ry="11"/>
<text text-anchor="middle" x="397.1" y="-257.09" font-family="Helvetica,sans-Serif" font-size="16.80" fill="#4d4d4d">développement</text>
</g>
<!-- amélioration environnementale -->
<g id="node7" class="node">
<title>amélioration environnementale</title>
<ellipse fill="#bc3754" stroke="white" stroke-width="0" cx="340.78" cy="-202.68" rx="18" ry="18"/>
<text text-anchor="middle" x="167.28" y="-190.68" font-family="Helvetica,sans-Serif" font-size="20.00" fill="#4d4d4d">amélioration environnementale</text>
</g>
<!-- conflit -->
<g id="node8" class="node">
<title>conflit</title>
<ellipse fill="#540f6d" stroke="white" stroke-width="0" cx="369.4" cy="-377.31" rx="11" ry="11"/>
<text text-anchor="middle" x="332.4" y="-392.87" font-family="Helvetica,sans-Serif" font-size="16.80" fill="#4d4d4d">conflit</text>
</g>
<!-- vision positive de la ressource -->
<g id="node9" class="node">
<title>vision positive de la ressource</title>
<ellipse fill="#310a5c" stroke="white" stroke-width="0" cx="375.2" cy="-161.07" rx="7" ry="7"/>
<text text-anchor="middle" x="253.7" y="-158.91" font-family="Helvetica,sans-Serif" font-size="15.20" fill="#4d4d4d">vision positive de la ressource</text>
</g>
<!-- économie du pays -->
<g id="node10" class="node">
<title>économie du pays</title>
<ellipse fill="#62146e" stroke="white" stroke-width="0" cx="362.27" cy="-313.65" rx="11" ry="11"/>
<text text-anchor="middle" x="274.27" y="-329.21" font-family="Helvetica,sans-Serif" font-size="16.80" fill="#4d4d4d">économie du pays</text>
</g>
<!-- famille -->
<g id="node11" class="node">
<title>famille</title>
<ellipse fill="#060419" stroke="white" stroke-width="0" cx="49.5" cy="-164.19" rx="3.5" ry="3.5"/>
<text text-anchor="middle" x="23" y="-171.81" font-family="Helvetica,sans-Serif" font-size="13.60" fill="#4d4d4d">famille</text>
</g>
<!-- développement durable -->
<g id="node12" class="node">
<title>développement durable</title>
<ellipse fill="#61136e" stroke="white" stroke-width="0" cx="431.82" cy="-149.76" rx="11" ry="11"/>
<text text-anchor="middle" x="319.82" y="-125.32" font-family="Helvetica,sans-Serif" font-size="16.80" fill="#4d4d4d">développement durable</text>
</g>
<!-- innovation -->
<g id="node13" class="node">
<title>innovation</title>
<ellipse fill="#7c1d6d" stroke="white" stroke-width="0" cx="446.78" cy="-194.43" rx="14.5" ry="14.5"/>
<text text-anchor="middle" x="511.28" y="-165.21" font-family="Helvetica,sans-Serif" font-size="18.40" fill="#4d4d4d">innovation</text>
</g>
<!-- formation -->
<g id="node14" class="node">
<title>formation</title>
<ellipse fill="#010005" stroke="white" stroke-width="0" cx="165.97" cy="-116.89" rx="0.5" ry="0.5"/>
<text text-anchor="middle" x="136.47" y="-120.79" font-family="Helvetica,sans-Serif" font-size="12.00" fill="#4d4d4d">formation</text>
</g>
<!-- automatisation -->
<g id="node15" class="node">
<title>automatisation</title>
<ellipse fill="#210c4a" stroke="white" stroke-width="0" cx="433.25" cy="-366.7" rx="3.5" ry="3.5"/>
<text text-anchor="middle" x="378.75" y="-352.32" font-family="Helvetica,sans-Serif" font-size="13.60" fill="#4d4d4d">automatisation</text>
</g>
<!-- procédé industriel -->
<g id="node16" class="node">
<title>procédé industriel</title>
<ellipse fill="#0d0829" stroke="white" stroke-width="0" cx="263.8" cy="-416.17" rx="3.5" ry="3.5"/>
<text text-anchor="middle" x="198.8" y="-423.79" font-family="Helvetica,sans-Serif" font-size="13.60" fill="#4d4d4d">procédé industriel</text>
</g>
<!-- montagne -->
<g id="node17" class="node">
<title>montagne</title>
<ellipse fill="#0c0826" stroke="white" stroke-width="0" cx="482.2" cy="-598.23" rx="3.5" ry="3.5"/>
<text text-anchor="middle" x="443.7" y="-605.85" font-family="Helvetica,sans-Serif" font-size="13.60" fill="#4d4d4d">montagne</text>
</g>
<!-- biodiversité -->
<g id="node18" class="node">
<title>biodiversité</title>
<ellipse fill="#380962" stroke="white" stroke-width="0" cx="609.68" cy="-447.58" rx="7" ry="7"/>
<text text-anchor="middle" x="557.68" y="-459.42" font-family="Helvetica,sans-Serif" font-size="15.20" fill="#4d4d4d">biodiversité</text>
</g>
<!-- avenir -->
<g id="node19" class="node">
<title>avenir</title>
<ellipse fill="#040314" stroke="white" stroke-width="0" cx="659.65" cy="-239.17" rx="3.5" ry="3.5"/>
<text text-anchor="middle" x="634.65" y="-246.79" font-family="Helvetica,sans-Serif" font-size="13.60" fill="#4d4d4d">avenir</text>
</g>
<!-- revenu -->
<g id="node20" class="node">
<title>revenu</title>
<ellipse fill="#09061f" stroke="white" stroke-width="0" cx="679.06" cy="-320.48" rx="3.5" ry="3.5"/>
<text text-anchor="middle" x="652.06" y="-328.1" font-family="Helvetica,sans-Serif" font-size="13.60" fill="#4d4d4d">revenu</text>
</g>
<!-- déclin -->
<g id="node21" class="node">
<title>déclin</title>
<ellipse fill="#240c4f" stroke="white" stroke-width="0" cx="659.84" cy="-388.96" rx="7" ry="7"/>
<text text-anchor="middle" x="629.84" y="-400.8" font-family="Helvetica,sans-Serif" font-size="15.20" fill="#4d4d4d">déclin</text>
</g>
<!-- richesse -->
<g id="node22" class="node">
<title>richesse</title>
<ellipse fill="#0c0826" stroke="white" stroke-width="0" cx="533.67" cy="-411.94" rx="3.5" ry="3.5"/>
<text text-anchor="middle" x="502.67" y="-419.56" font-family="Helvetica,sans-Serif" font-size="13.60" fill="#4d4d4d">richesse</text>
</g>
<!-- croissance minière -->
<g id="node23" class="node">
<title>croissance minière</title>
<ellipse fill="#060419" stroke="white" stroke-width="0" cx="496.62" cy="-3.5" rx="3.5" ry="3.5"/>
<text text-anchor="middle" x="429.62" y="-11.12" font-family="Helvetica,sans-Serif" font-size="13.60" fill="#4d4d4d">croissance minière</text>
</g>
<!-- milieu -->
<g id="node24" class="node">
<title>milieu</title>
<ellipse fill="#0d0829" stroke="white" stroke-width="0" cx="749.35" cy="-93.46" rx="3.5" ry="3.5"/>
<text text-anchor="middle" x="724.85" y="-101.08" font-family="Helvetica,sans-Serif" font-size="13.60" fill="#4d4d4d">milieu</text>
</g>
<!-- maintien de l’exploitation -->
<g id="node25" class="node">
<title>maintien de l’exploitation</title>
<ellipse fill="#180c3c" stroke="white" stroke-width="0" cx="466.92" cy="-54.87" rx="3.5" ry="3.5"/>
<text text-anchor="middle" x="375.92" y="-62.49" font-family="Helvetica,sans-Serif" font-size="13.60" fill="#4d4d4d">maintien de l’exploitation</text>
</g>
<!-- main d’oeuvre -->
<g id="node26" class="node">
<title>main d’oeuvre</title>
<ellipse fill="#000004" stroke="white" stroke-width="0" cx="670.69" cy="-12.32" rx="0.5" ry="0.5"/>
<text text-anchor="middle" x="626.69" y="-16.22" font-family="Helvetica,sans-Serif" font-size="12.00" fill="#4d4d4d">main d’oeuvre</text>
</g>
<!-- investissement -->
<g id="node27" class="node">
<title>investissement</title>
<ellipse fill="#000004" stroke="white" stroke-width="0" cx="795.81" cy="-206.83" rx="0.5" ry="0.5"/>
<text text-anchor="middle" x="750.31" y="-210.73" font-family="Helvetica,sans-Serif" font-size="12.00" fill="#4d4d4d">investissement</text>
</g>
</g>
</svg>
