<?xml version="1.0" encoding="UTF-8" standalone="no"?>
<!DOCTYPE svg PUBLIC "-//W3C//DTD SVG 1.1//EN"
 "http://www.w3.org/Graphics/SVG/1.1/DTD/svg11.dtd">
<!-- Generated by graphviz version 2.43.0 (0)
 -->
<!-- Pages: 1 -->
<svg width="556pt" height="430pt"
 viewBox="0.00 0.00 556.49 430.43" xmlns="http://www.w3.org/2000/svg" xmlns:xlink="http://www.w3.org/1999/xlink">
<g id="graph0" class="graph" transform="scale(1 1) rotate(0) translate(4 426.43)">
<polygon fill="white" stroke="transparent" points="-4,4 -4,-426.43 552.49,-426.43 552.49,4 -4,4"/>
<!-- pollution&#45;&#45;emploi -->
<g id="edge1" class="edge">
<title>pollution&#45;&#45;emploi</title>
<path fill="none" stroke="darkgrey" stroke-width="10" d="M353.32,-218.96C353.04,-219 352.77,-219.03 352.49,-219.07"/>
</g>
<!-- pollution&#45;&#45;richesse -->
<g id="edge2" class="edge">
<title>pollution&#45;&#45;richesse</title>
<path fill="none" stroke="darkgrey" stroke-width="1.31" d="M376.7,-243.74C372.31,-266.13 366.43,-296.07 363.33,-311.87"/>
</g>
<!-- pollution&#45;&#45;démolition -->
<g id="edge3" class="edge">
<title>pollution&#45;&#45;démolition</title>
<path fill="none" stroke="darkgrey" stroke-width="2.89" d="M410.03,-224.38C447.98,-236.93 513.78,-258.68 534.82,-265.63"/>
</g>
<!-- pollution&#45;&#45;argent -->
<g id="edge4" class="edge">
<title>pollution&#45;&#45;argent</title>
<path fill="none" stroke="darkgrey" stroke-width="1.4" d="M370.58,-241.86C354.54,-278.33 326.72,-341.56 317.83,-361.77"/>
</g>
<!-- pollution&#45;&#45;nickel -->
<g id="edge5" class="edge">
<title>pollution&#45;&#45;nickel</title>
<path fill="none" stroke="darkgrey" stroke-width="4.3" d="M354.1,-223C324.03,-231.3 276.53,-244.41 245.27,-253.04"/>
</g>
<!-- pollution&#45;&#45;exploitation -->
<g id="edge6" class="edge">
<title>pollution&#45;&#45;exploitation</title>
<path fill="none" stroke="darkgrey" stroke-width="1.31" d="M357.52,-199.75C319.51,-176.04 248.22,-131.54 219.34,-113.52"/>
</g>
<!-- pollution&#45;&#45;camion -->
<g id="edge7" class="edge">
<title>pollution&#45;&#45;camion</title>
<path fill="none" stroke="darkgrey" stroke-width="1.52" d="M396.27,-240.89C404.65,-256.29 414.85,-275.04 420.99,-286.31"/>
</g>
<!-- pollution&#45;&#45;économie -->
<g id="edge8" class="edge">
<title>pollution&#45;&#45;économie</title>
<path fill="none" stroke="darkgrey" stroke-width="4.26" d="M358.1,-232.15C340.8,-244.24 318.07,-260.14 303.33,-270.45"/>
</g>
<!-- pollution&#45;&#45;impact environnemental -->
<g id="edge9" class="edge">
<title>pollution&#45;&#45;impact environnemental</title>
<path fill="none" stroke="darkgrey" stroke-width="4.1" d="M355.32,-204.21C332.29,-194.81 299.89,-181.59 280.33,-173.61"/>
</g>
<!-- pollution&#45;&#45;développement -->
<g id="edge10" class="edge">
<title>pollution&#45;&#45;développement</title>
<path fill="none" stroke="darkgrey" stroke-width="1.29" d="M409.41,-204.17C452.86,-186.47 534.02,-153.4 541.53,-150.33"/>
</g>
<!-- pollution&#45;&#45;déforestation -->
<g id="edge11" class="edge">
<title>pollution&#45;&#45;déforestation</title>
<path fill="none" stroke="darkgrey" stroke-width="1.69" d="M401.5,-192.93C420.91,-170.4 449.2,-137.56 457.56,-127.85"/>
</g>
<!-- emploi&#45;&#45;richesse -->
<g id="edge12" class="edge">
<title>emploi&#45;&#45;richesse</title>
<path fill="none" stroke="darkgrey" stroke-width="3.1" d="M331.49,-256.66C340.2,-276.01 350.62,-299.17 356.52,-312.29"/>
</g>
<!-- emploi&#45;&#45;argent -->
<g id="edge13" class="edge">
<title>emploi&#45;&#45;argent</title>
<path fill="none" stroke="darkgrey" stroke-width="2.66" d="M316.24,-259.78C315.85,-294.05 315.3,-342.95 315.09,-361.07"/>
</g>
<!-- emploi&#45;&#45;nickel -->
<g id="edge14" class="edge">
<title>emploi&#45;&#45;nickel</title>
<path fill="none" stroke="darkgrey" stroke-width="5.53" d="M282.7,-236.25C270.41,-240.79 256.62,-245.9 244.62,-250.33"/>
</g>
<!-- emploi&#45;&#45;économie -->
<g id="edge15" class="edge">
<title>emploi&#45;&#45;économie</title>
<path fill="none" stroke="darkgrey" stroke-width="7.43" d="M300.66,-256C299.21,-258.94 297.78,-261.83 296.43,-264.54"/>
</g>
<!-- emploi&#45;&#45;impact environnemental -->
<g id="edge16" class="edge">
<title>emploi&#45;&#45;impact environnemental</title>
<path fill="none" stroke="darkgrey" stroke-width="5.03" d="M291.88,-197.2C286.34,-191.26 280.69,-185.22 275.89,-180.09"/>
</g>
<!-- emploi&#45;&#45;conflit -->
<g id="edge17" class="edge">
<title>emploi&#45;&#45;conflit</title>
<path fill="none" stroke="darkgrey" stroke-width="1.8" d="M323.55,-188.27C329.27,-158.91 336.83,-120.13 339.15,-108.2"/>
</g>
<!-- richesse&#45;&#45;nickel -->
<g id="edge18" class="edge">
<title>richesse&#45;&#45;nickel</title>
<path fill="none" stroke="darkgrey" stroke-width="1.42" d="M350.61,-318.31C328.56,-309.19 277.07,-287.89 243.94,-274.18"/>
</g>
<!-- richesse&#45;&#45;économie -->
<g id="edge19" class="edge">
<title>richesse&#45;&#45;économie</title>
<path fill="none" stroke="darkgrey" d="M351.38,-317.07C339.25,-310.12 318.49,-298.23 304.12,-289.99"/>
</g>
<!-- argent&#45;&#45;nickel -->
<g id="edge20" class="edge">
<title>argent&#45;&#45;nickel</title>
<path fill="none" stroke="darkgrey" stroke-width="2.09" d="M310.13,-363.05C297.02,-349.26 260.42,-310.74 236.31,-285.37"/>
</g>
<!-- nickel&#45;&#45;exploitation -->
<g id="edge21" class="edge">
<title>nickel&#45;&#45;exploitation</title>
<path fill="none" stroke="darkgrey" stroke-width="1.99" d="M212.34,-229C210.81,-195.57 208.51,-145.15 207.38,-120.41"/>
</g>
<!-- nickel&#45;&#45;camion -->
<g id="edge23" class="edge">
<title>nickel&#45;&#45;camion</title>
<path fill="none" stroke="darkgrey" stroke-width="2.4" d="M246.12,-266.98C294.68,-274.88 384.14,-289.45 415.35,-294.53"/>
</g>
<!-- nickel&#45;&#45;économie -->
<g id="edge24" class="edge">
<title>nickel&#45;&#45;économie</title>
<path fill="none" stroke="darkgrey" stroke-width="2.58" d="M245.42,-269.87C254.14,-272.12 263.29,-274.48 270.88,-276.45"/>
</g>
<!-- nickel&#45;&#45;impact environnemental -->
<g id="edge25" class="edge">
<title>nickel&#45;&#45;impact environnemental</title>
<path fill="none" stroke="darkgrey" stroke-width="1.35" d="M228.96,-232.69C237.5,-216.32 247.85,-196.47 254.95,-182.84"/>
</g>
<!-- nickel&#45;&#45;montagne -->
<g id="edge22" class="edge">
<title>nickel&#45;&#45;montagne</title>
<path fill="none" stroke="darkgrey" stroke-width="1.27" d="M181.03,-262.8C152.43,-263.74 113.1,-265.03 97.26,-265.55"/>
</g>
<!-- nickel&#45;&#45;roche -->
<g id="edge26" class="edge">
<title>nickel&#45;&#45;roche</title>
<path fill="none" stroke="darkgrey" stroke-width="1.07" d="M187.83,-281.7C156.71,-305.62 106.65,-344.09 89.67,-357.15"/>
</g>
<!-- nickel&#45;&#45;terre rouge -->
<g id="edge27" class="edge">
<title>nickel&#45;&#45;terre rouge</title>
<path fill="none" stroke="darkgrey" stroke-width="1.34" d="M203.91,-292.79C191.88,-330.48 172.59,-390.89 167.68,-406.27"/>
</g>
<!-- nickel&#45;&#45;usine -->
<g id="edge28" class="edge">
<title>nickel&#45;&#45;usine</title>
<path fill="none" stroke="darkgrey" stroke-width="2.44" d="M183.06,-250.59C138.9,-234.62 60.3,-206.19 36.81,-197.69"/>
</g>
<!-- nickel&#45;&#45;sln -->
<g id="edge29" class="edge">
<title>nickel&#45;&#45;sln</title>
<path fill="none" stroke="darkgrey" stroke-width="3.31" d="M214.25,-294.41C214.56,-318.96 214.96,-350.66 215.14,-364.58"/>
</g>
<!-- nickel&#45;&#45;minerai -->
<g id="edge30" class="edge">
<title>nickel&#45;&#45;minerai</title>
<path fill="none" stroke="darkgrey" stroke-width="1.93" d="M193.4,-236.04C166.23,-201.88 119.93,-143.68 105.47,-125.5"/>
</g>
<!-- exploitation&#45;&#45;impact environnemental -->
<g id="edge31" class="edge">
<title>exploitation&#45;&#45;impact environnemental</title>
<path fill="none" stroke="darkgrey" stroke-width="1.2" d="M216.58,-116.27C226.09,-126.52 240.52,-142.07 250.84,-153.19"/>
</g>
<!-- exploitation&#45;&#45;minerai -->
<g id="edge33" class="edge">
<title>exploitation&#45;&#45;minerai</title>
<path fill="none" stroke="darkgrey" stroke-width="1.79" d="M192.01,-107.62C168.99,-110.73 125.27,-116.64 108.15,-118.95"/>
</g>
<!-- exploitation&#45;&#45;ressource -->
<g id="edge32" class="edge">
<title>exploitation&#45;&#45;ressource</title>
<path fill="none" stroke="darkgrey" stroke-width="1.34" d="M195.56,-96.18C171.12,-75.45 113.59,-26.64 95.79,-11.53"/>
</g>
<!-- économie&#45;&#45;impact environnemental -->
<g id="edge34" class="edge">
<title>économie&#45;&#45;impact environnemental</title>
<path fill="none" stroke="darkgrey" stroke-width="5.8" d="M284.42,-263.09C279.73,-241.63 271.92,-205.82 267.24,-184.42"/>
</g>
<!-- usine&#45;&#45;minerai -->
<g id="edge35" class="edge">
<title>usine&#45;&#45;minerai</title>
<path fill="none" stroke="darkgrey" stroke-width="1.41" d="M35.11,-189.81C48.21,-175.92 82.91,-139.12 95.96,-125.28"/>
</g>
<!-- ressource&#45;&#45;minerai -->
<g id="edge36" class="edge">
<title>ressource&#45;&#45;minerai</title>
<path fill="none" stroke="darkgrey" stroke-width="1.12" d="M91.11,-14.06C93.01,-34.34 98.46,-92.58 100.36,-112.85"/>
</g>
<!-- pollution -->
<g id="node1" class="node">
<title>pollution</title>
<ellipse fill="#fb9d07" stroke="white" stroke-width="0" cx="382.3" cy="-215.22" rx="29" ry="29"/>
<text text-anchor="middle" x="334.8" y="-179.82" font-family="Helvetica,sans-Serif" font-size="8.00" fill="#4d4d4d">pollution</text>
</g>
<!-- emploi -->
<g id="node2" class="node">
<title>emploi</title>
<ellipse fill="#fcffa4" stroke="white" stroke-width="0" cx="316.65" cy="-223.7" rx="36" ry="36"/>
<text text-anchor="middle" x="266.65" y="-190.3" font-family="Helvetica,sans-Serif" font-size="8.00" fill="#4d4d4d">emploi</text>
</g>
<!-- richesse -->
<g id="node3" class="node">
<title>richesse</title>
<ellipse fill="#59106e" stroke="white" stroke-width="0" cx="361.21" cy="-322.7" rx="11" ry="11"/>
<text text-anchor="middle" x="332.71" y="-336.3" font-family="Helvetica,sans-Serif" font-size="8.00" fill="#4d4d4d">richesse</text>
</g>
<!-- démolition -->
<g id="node4" class="node">
<title>démolition</title>
<ellipse fill="#240c4f" stroke="white" stroke-width="0" cx="541.49" cy="-267.83" rx="7" ry="7"/>
<text text-anchor="middle" x="512.49" y="-277.43" font-family="Helvetica,sans-Serif" font-size="8.00" fill="#4d4d4d">démolition</text>
</g>
<!-- argent -->
<g id="node5" class="node">
<title>argent</title>
<ellipse fill="#3d0965" stroke="white" stroke-width="0" cx="315.01" cy="-368.18" rx="7" ry="7"/>
<text text-anchor="middle" x="294.01" y="-377.78" font-family="Helvetica,sans-Serif" font-size="8.00" fill="#4d4d4d">argent</text>
</g>
<!-- nickel -->
<g id="node6" class="node">
<title>nickel</title>
<ellipse fill="#f7d13d" stroke="white" stroke-width="0" cx="213.83" cy="-261.72" rx="32.5" ry="32.5"/>
<text text-anchor="middle" x="169.33" y="-296.82" font-family="Helvetica,sans-Serif" font-size="8.00" fill="#4d4d4d">nickel</text>
</g>
<!-- exploitation -->
<g id="node7" class="node">
<title>exploitation</title>
<ellipse fill="#84206b" stroke="white" stroke-width="0" cx="206.71" cy="-105.64" rx="14.5" ry="14.5"/>
<text text-anchor="middle" x="167.71" y="-122.74" font-family="Helvetica,sans-Serif" font-size="8.00" fill="#4d4d4d">exploitation</text>
</g>
<!-- camion -->
<g id="node8" class="node">
<title>camion</title>
<ellipse fill="#540f6d" stroke="white" stroke-width="0" cx="426.44" cy="-296.34" rx="11" ry="11"/>
<text text-anchor="middle" x="399.94" y="-309.94" font-family="Helvetica,sans-Serif" font-size="8.00" fill="#4d4d4d">camion</text>
</g>
<!-- économie -->
<g id="node9" class="node">
<title>économie</title>
<ellipse fill="#b93556" stroke="white" stroke-width="0" cx="288.32" cy="-280.94" rx="18" ry="18"/>
<text text-anchor="middle" x="249.82" y="-301.54" font-family="Helvetica,sans-Serif" font-size="8.00" fill="#4d4d4d">économie</text>
</g>
<!-- impact environnemental -->
<g id="node10" class="node">
<title>impact environnemental</title>
<ellipse fill="#c83f4b" stroke="white" stroke-width="0" cx="263.37" cy="-166.69" rx="18" ry="18"/>
<text text-anchor="middle" x="195.37" y="-187.29" font-family="Helvetica,sans-Serif" font-size="8.00" fill="#4d4d4d">impact environnemental</text>
</g>
<!-- développement -->
<g id="node11" class="node">
<title>développement</title>
<ellipse fill="#000004" stroke="white" stroke-width="0" cx="542.09" cy="-150.11" rx="0.5" ry="0.5"/>
<text text-anchor="middle" x="509.09" y="-153.21" font-family="Helvetica,sans-Serif" font-size="8.00" fill="#4d4d4d">développement</text>
</g>
<!-- déforestation -->
<g id="node12" class="node">
<title>déforestation</title>
<ellipse fill="#09061f" stroke="white" stroke-width="0" cx="459.98" cy="-125.05" rx="3.5" ry="3.5"/>
<text text-anchor="middle" x="428.98" y="-131.15" font-family="Helvetica,sans-Serif" font-size="8.00" fill="#4d4d4d">déforestation</text>
</g>
<!-- conflit -->
<g id="node13" class="node">
<title>conflit</title>
<ellipse fill="#1f0c48" stroke="white" stroke-width="0" cx="339.87" cy="-104.55" rx="3.5" ry="3.5"/>
<text text-anchor="middle" x="323.37" y="-110.65" font-family="Helvetica,sans-Serif" font-size="8.00" fill="#4d4d4d">conflit</text>
</g>
<!-- montagne -->
<g id="node14" class="node">
<title>montagne</title>
<ellipse fill="#260c51" stroke="white" stroke-width="0" cx="90.24" cy="-265.78" rx="7" ry="7"/>
<text text-anchor="middle" x="61.74" y="-275.38" font-family="Helvetica,sans-Serif" font-size="8.00" fill="#4d4d4d">montagne</text>
</g>
<!-- roche -->
<g id="node15" class="node">
<title>roche</title>
<ellipse fill="#390963" stroke="white" stroke-width="0" cx="83.82" cy="-361.65" rx="7" ry="7"/>
<text text-anchor="middle" x="65.32" y="-371.25" font-family="Helvetica,sans-Serif" font-size="8.00" fill="#4d4d4d">roche</text>
</g>
<!-- terre rouge -->
<g id="node16" class="node">
<title>terre rouge</title>
<ellipse fill="#0b0724" stroke="white" stroke-width="0" cx="166.51" cy="-409.93" rx="3.5" ry="3.5"/>
<text text-anchor="middle" x="140.51" y="-416.03" font-family="Helvetica,sans-Serif" font-size="8.00" fill="#4d4d4d">terre rouge</text>
</g>
<!-- usine -->
<g id="node17" class="node">
<title>usine</title>
<ellipse fill="#3b0964" stroke="white" stroke-width="0" cx="30" cy="-195.23" rx="7" ry="7"/>
<text text-anchor="middle" x="11.5" y="-204.83" font-family="Helvetica,sans-Serif" font-size="8.00" fill="#4d4d4d">usine</text>
</g>
<!-- sln -->
<g id="node18" class="node">
<title>sln</title>
<ellipse fill="#260c51" stroke="white" stroke-width="0" cx="215.23" cy="-371.66" rx="7" ry="7"/>
<text text-anchor="middle" x="201.73" y="-381.26" font-family="Helvetica,sans-Serif" font-size="8.00" fill="#4d4d4d">sln</text>
</g>
<!-- minerai -->
<g id="node19" class="node">
<title>minerai</title>
<ellipse fill="#3e0966" stroke="white" stroke-width="0" cx="101.03" cy="-119.91" rx="7" ry="7"/>
<text text-anchor="middle" x="78.53" y="-129.51" font-family="Helvetica,sans-Serif" font-size="8.00" fill="#4d4d4d">minerai</text>
</g>
<!-- ressource -->
<g id="node20" class="node">
<title>ressource</title>
<ellipse fill="#2f0a5b" stroke="white" stroke-width="0" cx="90.45" cy="-7" rx="7" ry="7"/>
<text text-anchor="middle" x="63.45" y="-16.6" font-family="Helvetica,sans-Serif" font-size="8.00" fill="#4d4d4d">ressource</text>
</g>
</g>
</svg>
