<?xml version="1.0" encoding="UTF-8" standalone="no"?>
<!DOCTYPE svg PUBLIC "-//W3C//DTD SVG 1.1//EN"
 "http://www.w3.org/Graphics/SVG/1.1/DTD/svg11.dtd">
<!-- Generated by graphviz version 2.43.0 (0)
 -->
<!-- Pages: 1 -->
<svg width="428pt" height="277pt"
 viewBox="0.00 0.00 428.26 277.36" xmlns="http://www.w3.org/2000/svg" xmlns:xlink="http://www.w3.org/1999/xlink">
<g id="graph0" class="graph" transform="scale(1 1) rotate(0) translate(4 273.36)">
<polygon fill="white" stroke="transparent" points="-4,4 -4,-273.36 424.26,-273.36 424.26,4 -4,4"/>
<!-- pollution&#45;&#45;emploi -->
<g id="edge1" class="edge">
<title>pollution&#45;&#45;emploi</title>
<path fill="none" stroke="darkgrey" stroke-width="10" d="M146.11,-120.45C145.99,-119.89 145.88,-119.34 145.77,-118.78"/>
</g>
<!-- pollution&#45;&#45;démolition -->
<g id="edge2" class="edge">
<title>pollution&#45;&#45;démolition</title>
<path fill="none" stroke="darkgrey" stroke-width="2.3" d="M133.61,-171.88C112.45,-198.19 79.43,-239.24 70.57,-250.27"/>
</g>
<!-- pollution&#45;&#45;nickel -->
<g id="edge3" class="edge">
<title>pollution&#45;&#45;nickel</title>
<path fill="none" stroke="darkgrey" stroke-width="3.82" d="M180.39,-143.25C197.62,-139.73 219.65,-135.24 237.48,-131.6"/>
</g>
<!-- pollution&#45;&#45;économie -->
<g id="edge4" class="edge">
<title>pollution&#45;&#45;économie</title>
<path fill="none" stroke="darkgrey" stroke-width="3.78" d="M164.54,-122.85C171.77,-107.79 180.62,-89.35 186.85,-76.37"/>
</g>
<!-- pollution&#45;&#45;impact environnemental -->
<g id="edge5" class="edge">
<title>pollution&#45;&#45;impact environnemental</title>
<path fill="none" stroke="darkgrey" stroke-width="3.61" d="M144.68,-120.94C137.97,-95.07 128.24,-57.49 122.57,-35.62"/>
</g>
<!-- pollution&#45;&#45;déforestation -->
<g id="edge6" class="edge">
<title>pollution&#45;&#45;déforestation</title>
<path fill="none" stroke="darkgrey" d="M152.19,-178.12C152.38,-204.43 152.65,-239.87 152.69,-245.25"/>
</g>
<!-- emploi&#45;&#45;nickel -->
<g id="edge9" class="edge">
<title>emploi&#45;&#45;nickel</title>
<path fill="none" stroke="darkgrey" stroke-width="5.16" d="M172.9,-94.35C193.19,-100.82 218.67,-108.94 238.34,-115.21"/>
</g>
<!-- emploi&#45;&#45;économie -->
<g id="edge10" class="edge">
<title>emploi&#45;&#45;économie</title>
<path fill="none" stroke="darkgrey" stroke-width="7.21" d="M171.82,-69.6C173.89,-68.74 175.93,-67.89 177.88,-67.08"/>
</g>
<!-- emploi&#45;&#45;impact environnemental -->
<g id="edge11" class="edge">
<title>emploi&#45;&#45;impact environnemental</title>
<path fill="none" stroke="darkgrey" stroke-width="4.61" d="M127.66,-48.79C126.2,-44.13 124.75,-39.52 123.44,-35.35"/>
</g>
<!-- emploi&#45;&#45;richesse -->
<g id="edge7" class="edge">
<title>emploi&#45;&#45;richesse</title>
<path fill="none" stroke="darkgrey" stroke-width="2.52" d="M110.4,-106.38C90.67,-122.5 65.96,-142.7 55.14,-151.54"/>
</g>
<!-- emploi&#45;&#45;argent -->
<g id="edge8" class="edge">
<title>emploi&#45;&#45;argent</title>
<path fill="none" stroke="darkgrey" stroke-width="2.04" d="M168.29,-62.9C192.27,-46.38 224.07,-24.48 237.26,-15.4"/>
</g>
<!-- emploi&#45;&#45;conflit -->
<g id="edge12" class="edge">
<title>emploi&#45;&#45;conflit</title>
<path fill="none" stroke="darkgrey" stroke-width="1.12" d="M102.48,-82.97C77.15,-82.66 46,-82.28 35.62,-82.16"/>
</g>
<!-- nickel&#45;&#45;économie -->
<g id="edge16" class="edge">
<title>nickel&#45;&#45;économie</title>
<path fill="none" stroke="darkgrey" stroke-width="1.96" d="M244.48,-103.46C232.43,-92.98 218.41,-80.8 208.32,-72.02"/>
</g>
<!-- nickel&#45;&#45;exploitation -->
<g id="edge14" class="edge">
<title>nickel&#45;&#45;exploitation</title>
<path fill="none" stroke="darkgrey" stroke-width="1.32" d="M301.81,-122.3C332.8,-119.64 377.75,-115.77 398.28,-114.01"/>
</g>
<!-- nickel&#45;&#45;camion -->
<g id="edge15" class="edge">
<title>nickel&#45;&#45;camion</title>
<path fill="none" stroke="darkgrey" stroke-width="1.77" d="M266.68,-157.79C264.24,-187.48 260.82,-229.11 259.44,-245.9"/>
</g>
<!-- nickel&#45;&#45;usine -->
<g id="edge17" class="edge">
<title>nickel&#45;&#45;usine</title>
<path fill="none" stroke="darkgrey" stroke-width="1.81" d="M286.92,-152.72C303.18,-178.32 326.16,-214.49 335.13,-228.61"/>
</g>
<!-- nickel&#45;&#45;sln -->
<g id="edge18" class="edge">
<title>nickel&#45;&#45;sln</title>
<path fill="none" stroke="darkgrey" stroke-width="2.75" d="M296.29,-143.47C307.4,-151.05 318.91,-158.91 324.24,-162.55"/>
</g>
<!-- nickel&#45;&#45;minerai -->
<g id="edge19" class="edge">
<title>nickel&#45;&#45;minerai</title>
<path fill="none" stroke="darkgrey" stroke-width="1.26" d="M296.55,-106.64C316.78,-92.91 342.78,-75.27 354.19,-67.53"/>
</g>
<!-- économie&#45;&#45;impact environnemental -->
<g id="edge21" class="edge">
<title>économie&#45;&#45;impact environnemental</title>
<path fill="none" stroke="darkgrey" stroke-width="5.45" d="M178.77,-51.41C165.61,-44.17 147.01,-33.95 133.86,-26.72"/>
</g>
<!-- argent&#45;&#45;nickel -->
<g id="edge13" class="edge">
<title>argent&#45;&#45;nickel</title>
<path fill="none" stroke="darkgrey" stroke-width="1.43" d="M245.01,-18.31C248.36,-33.01 256.23,-67.52 262.12,-93.36"/>
</g>
<!-- exploitation&#45;&#45;minerai -->
<g id="edge20" class="edge">
<title>exploitation&#45;&#45;minerai</title>
<path fill="none" stroke="darkgrey" stroke-width="1.11" d="M401.12,-104.89C390.85,-94.58 373.48,-77.14 364.98,-68.61"/>
</g>
<!-- pollution -->
<g id="node1" class="node">
<title>pollution</title>
<ellipse fill="#fb9706" stroke="white" stroke-width="0" cx="151.97" cy="-149.05" rx="29" ry="29"/>
<text text-anchor="middle" x="104.47" y="-180.65" font-family="Helvetica,sans-Serif" font-size="8.00" fill="#4d4d4d">pollution</text>
</g>
<!-- emploi -->
<g id="node2" class="node">
<title>emploi</title>
<ellipse fill="#fcffa4" stroke="white" stroke-width="0" cx="138.52" cy="-83.4" rx="36" ry="36"/>
<text text-anchor="middle" x="88.52" y="-122" font-family="Helvetica,sans-Serif" font-size="8.00" fill="#4d4d4d">emploi</text>
</g>
<!-- démolition -->
<g id="node3" class="node">
<title>démolition</title>
<ellipse fill="#10092d" stroke="white" stroke-width="0" cx="68.31" cy="-253.07" rx="3.5" ry="3.5"/>
<text text-anchor="middle" x="42.81" y="-259.17" font-family="Helvetica,sans-Serif" font-size="8.00" fill="#4d4d4d">démolition</text>
</g>
<!-- nickel -->
<g id="node4" class="node">
<title>nickel</title>
<ellipse fill="#f8cf3a" stroke="white" stroke-width="0" cx="269.36" cy="-125.09" rx="32.5" ry="32.5"/>
<text text-anchor="middle" x="224.86" y="-160.19" font-family="Helvetica,sans-Serif" font-size="8.00" fill="#4d4d4d">nickel</text>
</g>
<!-- économie -->
<g id="node5" class="node">
<title>économie</title>
<ellipse fill="#ad305d" stroke="white" stroke-width="0" cx="194.65" cy="-60.14" rx="18" ry="18"/>
<text text-anchor="middle" x="156.15" y="-35.74" font-family="Helvetica,sans-Serif" font-size="8.00" fill="#4d4d4d">économie</text>
</g>
<!-- impact environnemental -->
<g id="node6" class="node">
<title>impact environnemental</title>
<ellipse fill="#bf3952" stroke="white" stroke-width="0" cx="118" cy="-18" rx="18" ry="18"/>
<text text-anchor="middle" x="50" y="-38.6" font-family="Helvetica,sans-Serif" font-size="8.00" fill="#4d4d4d">impact environnemental</text>
</g>
<!-- déforestation -->
<g id="node7" class="node">
<title>déforestation</title>
<ellipse fill="#000004" stroke="white" stroke-width="0" cx="152.69" cy="-245.94" rx="0.5" ry="0.5"/>
<text text-anchor="middle" x="124.69" y="-249.04" font-family="Helvetica,sans-Serif" font-size="8.00" fill="#4d4d4d">déforestation</text>
</g>
<!-- richesse -->
<g id="node8" class="node">
<title>richesse</title>
<ellipse fill="#470b6a" stroke="white" stroke-width="0" cx="49.65" cy="-156.03" rx="7" ry="7"/>
<text text-anchor="middle" x="25.15" y="-165.63" font-family="Helvetica,sans-Serif" font-size="8.00" fill="#4d4d4d">richesse</text>
</g>
<!-- argent -->
<g id="node9" class="node">
<title>argent</title>
<ellipse fill="#260c51" stroke="white" stroke-width="0" cx="243.38" cy="-11.18" rx="7" ry="7"/>
<text text-anchor="middle" x="222.38" y="-20.78" font-family="Helvetica,sans-Serif" font-size="8.00" fill="#4d4d4d">argent</text>
</g>
<!-- conflit -->
<g id="node10" class="node">
<title>conflit</title>
<ellipse fill="#0c0826" stroke="white" stroke-width="0" cx="32.07" cy="-82.12" rx="3.5" ry="3.5"/>
<text text-anchor="middle" x="15.57" y="-88.22" font-family="Helvetica,sans-Serif" font-size="8.00" fill="#4d4d4d">conflit</text>
</g>
<!-- exploitation -->
<g id="node11" class="node">
<title>exploitation</title>
<ellipse fill="#741a6e" stroke="white" stroke-width="0" cx="409.26" cy="-113.06" rx="11" ry="11"/>
<text text-anchor="middle" x="373.76" y="-126.66" font-family="Helvetica,sans-Serif" font-size="8.00" fill="#4d4d4d">exploitation</text>
</g>
<!-- camion -->
<g id="node12" class="node">
<title>camion</title>
<ellipse fill="#400a67" stroke="white" stroke-width="0" cx="258.83" cy="-253.36" rx="7" ry="7"/>
<text text-anchor="middle" x="236.33" y="-262.96" font-family="Helvetica,sans-Serif" font-size="8.00" fill="#4d4d4d">camion</text>
</g>
<!-- usine -->
<g id="node13" class="node">
<title>usine</title>
<ellipse fill="#260c51" stroke="white" stroke-width="0" cx="338.93" cy="-234.59" rx="7" ry="7"/>
<text text-anchor="middle" x="320.43" y="-244.19" font-family="Helvetica,sans-Serif" font-size="8.00" fill="#4d4d4d">usine</text>
</g>
<!-- sln -->
<g id="node14" class="node">
<title>sln</title>
<ellipse fill="#120a32" stroke="white" stroke-width="0" cx="327.29" cy="-164.63" rx="3.5" ry="3.5"/>
<text text-anchor="middle" x="317.29" y="-170.73" font-family="Helvetica,sans-Serif" font-size="8.00" fill="#4d4d4d">sln</text>
</g>
<!-- minerai -->
<g id="node15" class="node">
<title>minerai</title>
<ellipse fill="#280b53" stroke="white" stroke-width="0" cx="359.99" cy="-63.6" rx="7" ry="7"/>
<text text-anchor="middle" x="337.49" y="-73.2" font-family="Helvetica,sans-Serif" font-size="8.00" fill="#4d4d4d">minerai</text>
</g>
</g>
</svg>
