<?xml version="1.0" encoding="UTF-8" standalone="no"?>
<!DOCTYPE svg PUBLIC "-//W3C//DTD SVG 1.1//EN"
 "http://www.w3.org/Graphics/SVG/1.1/DTD/svg11.dtd">
<!-- Generated by graphviz version 2.43.0 (0)
 -->
<!-- Pages: 1 -->
<svg width="298pt" height="270pt"
 viewBox="0.00 0.00 298.00 270.47" xmlns="http://www.w3.org/2000/svg" xmlns:xlink="http://www.w3.org/1999/xlink">
<g id="graph0" class="graph" transform="scale(1 1) rotate(0) translate(4 266.47)">
<polygon fill="white" stroke="transparent" points="-4,4 -4,-266.47 294,-266.47 294,4 -4,4"/>
<!-- pollution&#45;&#45;destruction -->
<g id="edge1" class="edge">
<title>pollution&#45;&#45;destruction</title>
<path fill="none" stroke="darkgrey" stroke-width="10" d="M190.31,-159.12C227.42,-170.98 282.13,-188.46 288.82,-190.6"/>
</g>
<!-- pollution&#45;&#45;économie -->
<g id="edge2" class="edge">
<title>pollution&#45;&#45;économie</title>
<path fill="none" stroke="darkgrey" d="M129.15,-172.42C106.3,-193.17 74.87,-221.71 60.18,-235.04"/>
</g>
<!-- pollution&#45;&#45;emploi -->
<g id="edge3" class="edge">
<title>pollution&#45;&#45;emploi</title>
<path fill="none" stroke="darkgrey" stroke-width="1.86" d="M148.21,-112.81C141.63,-82.66 132.59,-41.18 128.36,-21.8"/>
</g>
<!-- pollution -->
<g id="node1" class="node">
<title>pollution</title>
<ellipse fill="#fcffa4" stroke="white" stroke-width="0" cx="155.91" cy="-148.12" rx="36" ry="36"/>
<text text-anchor="middle" x="101.41" y="-186.72" font-family="Helvetica,sans-Serif" font-size="8.00" fill="#4d4d4d">pollution</text>
</g>
<!-- destruction -->
<g id="node2" class="node">
<title>destruction</title>
<ellipse fill="#000004" stroke="white" stroke-width="0" cx="289.5" cy="-190.82" rx="0.5" ry="0.5"/>
<text text-anchor="middle" x="265.5" y="-193.92" font-family="Helvetica,sans-Serif" font-size="8.00" fill="#4d4d4d">destruction</text>
</g>
<!-- économie -->
<g id="node3" class="node">
<title>économie</title>
<ellipse fill="#6c186e" stroke="white" stroke-width="0" cx="52" cy="-242.47" rx="11" ry="11"/>
<text text-anchor="middle" x="20.5" y="-256.07" font-family="Helvetica,sans-Serif" font-size="8.00" fill="#4d4d4d">économie</text>
</g>
<!-- emploi -->
<g id="node4" class="node">
<title>emploi</title>
<ellipse fill="#520e6d" stroke="white" stroke-width="0" cx="126.01" cy="-11" rx="11" ry="11"/>
<text text-anchor="middle" x="101.01" y="-24.6" font-family="Helvetica,sans-Serif" font-size="8.00" fill="#4d4d4d">emploi</text>
</g>
</g>
</svg>
