<?xml version="1.0" encoding="UTF-8" standalone="no"?>
<!DOCTYPE svg PUBLIC "-//W3C//DTD SVG 1.1//EN"
 "http://www.w3.org/Graphics/SVG/1.1/DTD/svg11.dtd">
<!-- Generated by graphviz version 2.43.0 (0)
 -->
<!-- Pages: 1 -->
<svg width="1022pt" height="672pt"
 viewBox="0.00 0.00 1022.15 671.68" xmlns="http://www.w3.org/2000/svg" xmlns:xlink="http://www.w3.org/1999/xlink">
<g id="graph0" class="graph" transform="scale(1 1) rotate(0) translate(4 667.68)">
<polygon fill="white" stroke="transparent" points="-4,4 -4,-667.68 1018.15,-667.68 1018.15,4 -4,4"/>
<!-- pollution&#45;&#45;emploi -->
<g id="edge1" class="edge">
<title>pollution&#45;&#45;emploi</title>
<path fill="none" stroke="darkgrey" stroke-width="10" d="M622.07,-329.23C617.17,-325.22 611.94,-320.93 606.87,-316.78"/>
</g>
<!-- pollution&#45;&#45;richesse -->
<g id="edge2" class="edge">
<title>pollution&#45;&#45;richesse</title>
<path fill="none" stroke="darkgrey" stroke-width="1.8" d="M617.54,-359.24C569.83,-379.48 472.9,-420.6 440.99,-434.13"/>
</g>
<!-- pollution&#45;&#45;démolition -->
<g id="edge3" class="edge">
<title>pollution&#45;&#45;démolition</title>
<path fill="none" stroke="darkgrey" stroke-width="2.89" d="M672.01,-337.37C718.8,-319.64 811.66,-284.45 837.53,-274.64"/>
</g>
<!-- pollution&#45;&#45;argent -->
<g id="edge4" class="edge">
<title>pollution&#45;&#45;argent</title>
<path fill="none" stroke="darkgrey" stroke-width="1.73" d="M626.09,-370.41C588.42,-416.43 504.84,-518.52 484.53,-543.33"/>
</g>
<!-- pollution&#45;&#45;nickel -->
<g id="edge5" class="edge">
<title>pollution&#45;&#45;nickel</title>
<path fill="none" stroke="darkgrey" stroke-width="5.07" d="M615.42,-347.36C561.78,-346.68 448.03,-345.24 391.77,-344.53"/>
</g>
<!-- pollution&#45;&#45;exploitation -->
<g id="edge6" class="edge">
<title>pollution&#45;&#45;exploitation</title>
<path fill="none" stroke="darkgrey" stroke-width="1.63" d="M622.65,-328.73C576.11,-288.55 469.17,-196.22 434.56,-166.34"/>
</g>
<!-- pollution&#45;&#45;montagne -->
<g id="edge7" class="edge">
<title>pollution&#45;&#45;montagne</title>
<path fill="none" stroke="darkgrey" stroke-width="1.16" d="M638.02,-375.99C622.74,-440.96 585.8,-598.04 577.63,-632.8"/>
</g>
<!-- pollution&#45;&#45;camion -->
<g id="edge8" class="edge">
<title>pollution&#45;&#45;camion</title>
<path fill="none" stroke="darkgrey" stroke-width="1.94" d="M638.33,-319.05C627.32,-269.2 605.13,-168.73 597.83,-135.67"/>
</g>
<!-- pollution&#45;&#45;économie -->
<g id="edge9" class="edge">
<title>pollution&#45;&#45;économie</title>
<path fill="none" stroke="darkgrey" stroke-width="4.67" d="M620.47,-363.8C597.84,-378.84 564.75,-400.82 545.67,-413.49"/>
</g>
<!-- pollution&#45;&#45;impact environnemental -->
<g id="edge10" class="edge">
<title>pollution&#45;&#45;impact environnemental</title>
<path fill="none" stroke="darkgrey" stroke-width="4.2" d="M617.17,-338.3C579.39,-325.35 512.52,-302.42 481.01,-291.62"/>
</g>
<!-- pollution&#45;&#45;terre -->
<g id="edge11" class="edge">
<title>pollution&#45;&#45;terre</title>
<path fill="none" stroke="darkgrey" stroke-width="1.1" d="M639.09,-376.34C631.39,-415.93 617.95,-485.04 613.65,-507.14"/>
</g>
<!-- pollution&#45;&#45;usine -->
<g id="edge12" class="edge">
<title>pollution&#45;&#45;usine</title>
<path fill="none" stroke="darkgrey" stroke-width="1.1" d="M630.72,-322.1C595.85,-257.99 506.32,-93.35 487.82,-59.34"/>
</g>
<!-- pollution&#45;&#45;conflit -->
<g id="edge13" class="edge">
<title>pollution&#45;&#45;conflit</title>
<path fill="none" stroke="darkgrey" stroke-width="1.24" d="M661.25,-323.87C693.57,-277.36 762.98,-177.5 775.71,-159.19"/>
</g>
<!-- pollution&#45;&#45;développement -->
<g id="edge14" class="edge">
<title>pollution&#45;&#45;développement</title>
<path fill="none" stroke="darkgrey" stroke-width="1.52" d="M672.09,-358.08C754.93,-389.32 997.81,-480.91 1012.91,-486.61"/>
</g>
<!-- pollution&#45;&#45;déforestation -->
<g id="edge15" class="edge">
<title>pollution&#45;&#45;déforestation</title>
<path fill="none" stroke="darkgrey" stroke-width="1.66" d="M671.76,-358.85C713.39,-375.93 790.08,-407.39 807.48,-414.53"/>
</g>
<!-- emploi&#45;&#45;richesse -->
<g id="edge16" class="edge">
<title>emploi&#45;&#45;richesse</title>
<path fill="none" stroke="darkgrey" stroke-width="3.22" d="M553.15,-319.15C518.75,-352.65 459.82,-410.05 438.52,-430.8"/>
</g>
<!-- emploi&#45;&#45;démolition -->
<g id="edge17" class="edge">
<title>emploi&#45;&#45;démolition</title>
<path fill="none" stroke="darkgrey" stroke-width="1.51" d="M615.07,-290.99C678.27,-285.77 805.35,-275.28 837.06,-272.66"/>
</g>
<!-- emploi&#45;&#45;argent -->
<g id="edge18" class="edge">
<title>emploi&#45;&#45;argent</title>
<path fill="none" stroke="darkgrey" stroke-width="2.74" d="M565.97,-327.55C542.45,-388.1 494.29,-512.11 482.61,-542.17"/>
</g>
<!-- emploi&#45;&#45;nickel -->
<g id="edge19" class="edge">
<title>emploi&#45;&#45;nickel</title>
<path fill="none" stroke="darkgrey" stroke-width="6.41" d="M543.64,-302.02C501.34,-311.66 431.17,-327.64 390.56,-336.89"/>
</g>
<!-- emploi&#45;&#45;exploitation -->
<g id="edge20" class="edge">
<title>emploi&#45;&#45;exploitation</title>
<path fill="none" stroke="darkgrey" stroke-width="1.47" d="M551.93,-270.07C517.3,-239.53 458.92,-188.04 434.64,-166.62"/>
</g>
<!-- emploi&#45;&#45;camion -->
<g id="edge21" class="edge">
<title>emploi&#45;&#45;camion</title>
<path fill="none" stroke="darkgrey" d="M582.5,-258.1C586.25,-219.51 591.99,-160.39 594.36,-135.98"/>
</g>
<!-- emploi&#45;&#45;économie -->
<g id="edge22" class="edge">
<title>emploi&#45;&#45;économie</title>
<path fill="none" stroke="darkgrey" stroke-width="7.06" d="M566.29,-328C556.87,-353.19 544.44,-386.45 537.01,-406.34"/>
</g>
<!-- emploi&#45;&#45;impact environnemental -->
<g id="edge23" class="edge">
<title>emploi&#45;&#45;impact environnemental</title>
<path fill="none" stroke="darkgrey" stroke-width="5.5" d="M542.83,-291.36C522.47,-289.9 497.95,-288.13 481.65,-286.96"/>
</g>
<!-- emploi&#45;&#45;terre -->
<g id="edge24" class="edge">
<title>emploi&#45;&#45;terre</title>
<path fill="none" stroke="darkgrey" stroke-width="1.09" d="M584.43,-329.83C592.5,-383.2 607.15,-480.15 611.21,-507.06"/>
</g>
<!-- emploi&#45;&#45;conflit -->
<g id="edge26" class="edge">
<title>emploi&#45;&#45;conflit</title>
<path fill="none" stroke="darkgrey" stroke-width="2.32" d="M608.76,-273.35C658.78,-238.69 756.11,-171.25 774.64,-158.41"/>
</g>
<!-- emploi&#45;&#45;déforestation -->
<g id="edge27" class="edge">
<title>emploi&#45;&#45;déforestation</title>
<path fill="none" stroke="darkgrey" stroke-width="1.12" d="M611.28,-310.93C669.06,-341.32 786.19,-402.92 807.64,-414.21"/>
</g>
<!-- emploi&#45;&#45;ressource -->
<g id="edge25" class="edge">
<title>emploi&#45;&#45;ressource</title>
<path fill="none" stroke="darkgrey" stroke-width="1.24" d="M547.71,-275.98C481.81,-238.13 332.18,-152.17 300.23,-133.82"/>
</g>
<!-- richesse&#45;&#45;nickel -->
<g id="edge28" class="edge">
<title>richesse&#45;&#45;nickel</title>
<path fill="none" stroke="darkgrey" stroke-width="1.76" d="M423.67,-429.51C413.44,-416.03 393.79,-390.15 378.8,-370.4"/>
</g>
<!-- richesse&#45;&#45;économie -->
<g id="edge29" class="edge">
<title>richesse&#45;&#45;économie</title>
<path fill="none" stroke="darkgrey" stroke-width="1.25" d="M441.63,-436.9C458.83,-434.31 492.09,-429.31 512.71,-426.2"/>
</g>
<!-- richesse&#45;&#45;impact environnemental -->
<g id="edge30" class="edge">
<title>richesse&#45;&#45;impact environnemental</title>
<path fill="none" stroke="darkgrey" stroke-width="1.43" d="M432.92,-427.57C438.59,-401.41 452.9,-335.29 459.81,-303.4"/>
</g>
<!-- argent&#45;&#45;nickel -->
<g id="edge31" class="edge">
<title>argent&#45;&#45;nickel</title>
<path fill="none" stroke="darkgrey" stroke-width="2.33" d="M476.26,-542.48C461.12,-516.91 404.06,-420.5 375.44,-372.14"/>
</g>
<!-- nickel&#45;&#45;exploitation -->
<g id="edge32" class="edge">
<title>nickel&#45;&#45;exploitation</title>
<path fill="none" stroke="darkgrey" stroke-width="2.59" d="M369.53,-313.19C383.74,-272.04 408.27,-201.01 418.66,-170.93"/>
</g>
<!-- nickel&#45;&#45;montagne -->
<g id="edge33" class="edge">
<title>nickel&#45;&#45;montagne</title>
<path fill="none" stroke="darkgrey" stroke-width="1.79" d="M378.12,-370.34C425.87,-435.33 547.55,-600.95 571.78,-633.92"/>
</g>
<!-- nickel&#45;&#45;camion -->
<g id="edge34" class="edge">
<title>nickel&#45;&#45;camion</title>
<path fill="none" stroke="darkgrey" stroke-width="3.05" d="M382.84,-321.88C434.53,-273.98 554.39,-162.89 587.08,-132.6"/>
</g>
<!-- nickel&#45;&#45;économie -->
<g id="edge35" class="edge">
<title>nickel&#45;&#45;économie</title>
<path fill="none" stroke="darkgrey" stroke-width="3.44" d="M388.37,-357.76C424.63,-374.52 484.87,-402.37 513.91,-415.8"/>
</g>
<!-- nickel&#45;&#45;impact environnemental -->
<g id="edge36" class="edge">
<title>nickel&#45;&#45;impact environnemental</title>
<path fill="none" stroke="darkgrey" stroke-width="2.47" d="M387.49,-328.14C406.88,-317.33 431.78,-303.44 447.73,-294.54"/>
</g>
<!-- nickel&#45;&#45;terre -->
<g id="edge39" class="edge">
<title>nickel&#45;&#45;terre</title>
<path fill="none" stroke="darkgrey" stroke-width="1.02" d="M385.97,-362.31C443.94,-401.21 577.05,-490.51 606.46,-510.24"/>
</g>
<!-- nickel&#45;&#45;usine -->
<g id="edge40" class="edge">
<title>nickel&#45;&#45;usine</title>
<path fill="none" stroke="darkgrey" stroke-width="2.78" d="M371.82,-314.07C400.27,-248.15 466.82,-93.97 481.53,-59.88"/>
</g>
<!-- nickel&#45;&#45;ressource -->
<g id="edge42" class="edge">
<title>nickel&#45;&#45;ressource</title>
<path fill="none" stroke="darkgrey" stroke-width="1.02" d="M349.31,-312.57C333.84,-261.46 304.23,-163.61 296.21,-137.1"/>
</g>
<!-- nickel&#45;&#45;roche -->
<g id="edge37" class="edge">
<title>nickel&#45;&#45;roche</title>
<path fill="none" stroke="darkgrey" stroke-width="1.47" d="M338.82,-370.29C299.52,-421.66 214.36,-532.97 194.31,-559.17"/>
</g>
<!-- nickel&#45;&#45;terre rouge -->
<g id="edge38" class="edge">
<title>nickel&#45;&#45;terre rouge</title>
<path fill="none" stroke="darkgrey" stroke-width="1.67" d="M327.15,-336.93C261.64,-322.09 115.38,-288.94 90.73,-283.36"/>
</g>
<!-- nickel&#45;&#45;sln -->
<g id="edge41" class="edge">
<title>nickel&#45;&#45;sln</title>
<path fill="none" stroke="darkgrey" stroke-width="3.34" d="M326.72,-350.29C253.02,-364.46 75.24,-398.64 37.23,-405.94"/>
</g>
<!-- nickel&#45;&#45;usine du sud -->
<g id="edge43" class="edge">
<title>nickel&#45;&#45;usine du sud</title>
<path fill="none" stroke="darkgrey" stroke-width="1.04" d="M333.06,-364.06C266.49,-415.56 93.32,-549.51 82.56,-557.83"/>
</g>
<!-- nickel&#45;&#45;minerai -->
<g id="edge44" class="edge">
<title>nickel&#45;&#45;minerai</title>
<path fill="none" stroke="darkgrey" stroke-width="2.5" d="M352.06,-312.09C336.09,-236.82 296.89,-52.08 288.8,-13.95"/>
</g>
<!-- exploitation&#45;&#45;impact environnemental -->
<g id="edge45" class="edge">
<title>exploitation&#45;&#45;impact environnemental</title>
<path fill="none" stroke="darkgrey" stroke-width="1.66" d="M427.98,-171.1C435.4,-194.95 450.3,-242.79 458.29,-268.46"/>
</g>
<!-- exploitation&#45;&#45;ressource -->
<g id="edge46" class="edge">
<title>exploitation&#45;&#45;ressource</title>
<path fill="none" stroke="darkgrey" stroke-width="1.44" d="M409.19,-153.89C381.56,-148.23 321.86,-136 301.29,-131.79"/>
</g>
<!-- exploitation&#45;&#45;minerai -->
<g id="edge47" class="edge">
<title>exploitation&#45;&#45;minerai</title>
<path fill="none" stroke="darkgrey" stroke-width="2.01" d="M413.74,-146.05C386.77,-116.39 312.15,-34.31 292.25,-12.42"/>
</g>
<!-- camion&#45;&#45;usine -->
<g id="edge48" class="edge">
<title>camion&#45;&#45;usine</title>
<path fill="none" stroke="darkgrey" stroke-width="1.04" d="M585.98,-118.73C563.75,-104.37 508.71,-68.81 490.44,-57.01"/>
</g>
<!-- économie&#45;&#45;impact environnemental -->
<g id="edge49" class="edge">
<title>économie&#45;&#45;impact environnemental</title>
<path fill="none" stroke="darkgrey" stroke-width="5.56" d="M522.65,-407.16C509.76,-380.63 484.46,-328.51 471.58,-302"/>
</g>
<!-- usine&#45;&#45;minerai -->
<g id="edge50" class="edge">
<title>usine&#45;&#45;minerai</title>
<path fill="none" stroke="darkgrey" stroke-width="1.63" d="M477.43,-51.49C446.84,-44.33 325.29,-15.89 294.46,-8.67"/>
</g>
<!-- ressource&#45;&#45;minerai -->
<g id="edge51" class="edge">
<title>ressource&#45;&#45;minerai</title>
<path fill="none" stroke="darkgrey" stroke-width="1.08" d="M293.75,-122.99C292.53,-101 288.92,-35.89 287.72,-14.15"/>
</g>
<!-- pollution -->
<g id="node1" class="node">
<title>pollution</title>
<ellipse fill="#fb9b06" stroke="white" stroke-width="0" cx="644.66" cy="-347.73" rx="29" ry="29"/>
<text text-anchor="middle" x="561.66" y="-383.89" font-family="Helvetica,sans-Serif" font-size="24.80" fill="#4d4d4d">pollution</text>
</g>
<!-- emploi -->
<g id="node2" class="node">
<title>emploi</title>
<ellipse fill="#fcffa4" stroke="white" stroke-width="0" cx="579.01" cy="-293.96" rx="36" ry="36"/>
<text text-anchor="middle" x="495.51" y="-338.56" font-family="Helvetica,sans-Serif" font-size="28.00" fill="#4d4d4d">emploi</text>
</g>
<!-- richesse -->
<g id="node3" class="node">
<title>richesse</title>
<ellipse fill="#5a116e" stroke="white" stroke-width="0" cx="430.54" cy="-438.56" rx="11" ry="11"/>
<text text-anchor="middle" x="384.54" y="-454.12" font-family="Helvetica,sans-Serif" font-size="16.80" fill="#4d4d4d">richesse</text>
</g>
<!-- démolition -->
<g id="node4" class="node">
<title>démolition</title>
<ellipse fill="#260c51" stroke="white" stroke-width="0" cx="844.36" cy="-272.06" rx="7" ry="7"/>
<text text-anchor="middle" x="796.36" y="-283.9" font-family="Helvetica,sans-Serif" font-size="15.20" fill="#4d4d4d">démolition</text>
</g>
<!-- argent -->
<g id="node5" class="node">
<title>argent</title>
<ellipse fill="#3e0966" stroke="white" stroke-width="0" cx="480.02" cy="-548.84" rx="7" ry="7"/>
<text text-anchor="middle" x="448.02" y="-560.68" font-family="Helvetica,sans-Serif" font-size="15.20" fill="#4d4d4d">argent</text>
</g>
<!-- nickel -->
<g id="node6" class="node">
<title>nickel</title>
<ellipse fill="#f8cd37" stroke="white" stroke-width="0" cx="358.85" cy="-344.11" rx="32.5" ry="32.5"/>
<text text-anchor="middle" x="287.85" y="-384.49" font-family="Helvetica,sans-Serif" font-size="26.40" fill="#4d4d4d">nickel</text>
</g>
<!-- exploitation -->
<g id="node7" class="node">
<title>exploitation</title>
<ellipse fill="#87216b" stroke="white" stroke-width="0" cx="423.53" cy="-156.82" rx="14.5" ry="14.5"/>
<text text-anchor="middle" x="353.53" y="-176.6" font-family="Helvetica,sans-Serif" font-size="18.40" fill="#4d4d4d">exploitation</text>
</g>
<!-- montagne -->
<g id="node8" class="node">
<title>montagne</title>
<ellipse fill="#280b53" stroke="white" stroke-width="0" cx="576.01" cy="-639.68" rx="7" ry="7"/>
<text text-anchor="middle" x="530.01" y="-651.52" font-family="Helvetica,sans-Serif" font-size="15.20" fill="#4d4d4d">montagne</text>
</g>
<!-- camion -->
<g id="node9" class="node">
<title>camion</title>
<ellipse fill="#550f6d" stroke="white" stroke-width="0" cx="595.44" cy="-124.84" rx="11" ry="11"/>
<text text-anchor="middle" x="553.44" y="-140.4" font-family="Helvetica,sans-Serif" font-size="16.80" fill="#4d4d4d">camion</text>
</g>
<!-- économie -->
<g id="node10" class="node">
<title>économie</title>
<ellipse fill="#b93556" stroke="white" stroke-width="0" cx="530.59" cy="-423.51" rx="18" ry="18"/>
<text text-anchor="middle" x="464.09" y="-411.51" font-family="Helvetica,sans-Serif" font-size="20.00" fill="#4d4d4d">économie</text>
</g>
<!-- impact environnemental -->
<g id="node11" class="node">
<title>impact environnemental</title>
<ellipse fill="#ca404a" stroke="white" stroke-width="0" cx="463.65" cy="-285.66" rx="18" ry="18"/>
<text text-anchor="middle" x="323.65" y="-273.66" font-family="Helvetica,sans-Serif" font-size="20.00" fill="#4d4d4d">impact environnemental</text>
</g>
<!-- terre -->
<g id="node12" class="node">
<title>terre</title>
<ellipse fill="#260c51" stroke="white" stroke-width="0" cx="612.28" cy="-514.15" rx="7" ry="7"/>
<text text-anchor="middle" x="586.78" y="-525.99" font-family="Helvetica,sans-Serif" font-size="15.20" fill="#4d4d4d">terre</text>
</g>
<!-- usine -->
<g id="node13" class="node">
<title>usine</title>
<ellipse fill="#3d0965" stroke="white" stroke-width="0" cx="484.45" cy="-53.13" rx="7" ry="7"/>
<text text-anchor="middle" x="456.45" y="-64.97" font-family="Helvetica,sans-Serif" font-size="15.20" fill="#4d4d4d">usine</text>
</g>
<!-- conflit -->
<g id="node14" class="node">
<title>conflit</title>
<ellipse fill="#210c4a" stroke="white" stroke-width="0" cx="777.73" cy="-156.27" rx="3.5" ry="3.5"/>
<text text-anchor="middle" x="753.23" y="-163.89" font-family="Helvetica,sans-Serif" font-size="13.60" fill="#4d4d4d">conflit</text>
</g>
<!-- développement -->
<g id="node15" class="node">
<title>développement</title>
<ellipse fill="#010005" stroke="white" stroke-width="0" cx="1013.65" cy="-486.89" rx="0.5" ry="0.5"/>
<text text-anchor="middle" x="966.15" y="-490.79" font-family="Helvetica,sans-Serif" font-size="12.00" fill="#4d4d4d">développement</text>
</g>
<!-- déforestation -->
<g id="node16" class="node">
<title>déforestation</title>
<ellipse fill="#0b0724" stroke="white" stroke-width="0" cx="811.05" cy="-416" rx="3.5" ry="3.5"/>
<text text-anchor="middle" x="762.55" y="-423.62" font-family="Helvetica,sans-Serif" font-size="13.60" fill="#4d4d4d">déforestation</text>
</g>
<!-- ressource -->
<g id="node17" class="node">
<title>ressource</title>
<ellipse fill="#310a5c" stroke="white" stroke-width="0" cx="294.16" cy="-130.33" rx="7" ry="7"/>
<text text-anchor="middle" x="250.16" y="-142.17" font-family="Helvetica,sans-Serif" font-size="15.20" fill="#4d4d4d">ressource</text>
</g>
<!-- roche -->
<g id="node18" class="node">
<title>roche</title>
<ellipse fill="#3b0964" stroke="white" stroke-width="0" cx="190.03" cy="-564.77" rx="7" ry="7"/>
<text text-anchor="middle" x="161.53" y="-576.61" font-family="Helvetica,sans-Serif" font-size="15.20" fill="#4d4d4d">roche</text>
</g>
<!-- terre rouge -->
<g id="node19" class="node">
<title>terre rouge</title>
<ellipse fill="#0c0826" stroke="white" stroke-width="0" cx="87.17" cy="-282.55" rx="3.5" ry="3.5"/>
<text text-anchor="middle" x="45.67" y="-290.17" font-family="Helvetica,sans-Serif" font-size="13.60" fill="#4d4d4d">terre rouge</text>
</g>
<!-- sln -->
<g id="node20" class="node">
<title>sln</title>
<ellipse fill="#280b53" stroke="white" stroke-width="0" cx="30" cy="-407.33" rx="7" ry="7"/>
<text text-anchor="middle" x="11.5" y="-419.17" font-family="Helvetica,sans-Serif" font-size="15.20" fill="#4d4d4d">sln</text>
</g>
<!-- usine du sud -->
<g id="node21" class="node">
<title>usine du sud</title>
<ellipse fill="#000004" stroke="white" stroke-width="0" cx="82.04" cy="-558.24" rx="0.5" ry="0.5"/>
<text text-anchor="middle" x="43.54" y="-562.14" font-family="Helvetica,sans-Serif" font-size="12.00" fill="#4d4d4d">usine du sud</text>
</g>
<!-- minerai -->
<g id="node22" class="node">
<title>minerai</title>
<ellipse fill="#400a67" stroke="white" stroke-width="0" cx="287.32" cy="-7" rx="7" ry="7"/>
<text text-anchor="middle" x="251.32" y="-18.84" font-family="Helvetica,sans-Serif" font-size="15.20" fill="#4d4d4d">minerai</text>
</g>
</g>
</svg>
