<?xml version="1.0" encoding="UTF-8" standalone="no"?>
<!DOCTYPE svg PUBLIC "-//W3C//DTD SVG 1.1//EN"
 "http://www.w3.org/Graphics/SVG/1.1/DTD/svg11.dtd">
<!-- Generated by graphviz version 2.43.0 (0)
 -->
<!-- Pages: 1 -->
<svg width="945pt" height="560pt"
 viewBox="0.00 0.00 944.83 559.78" xmlns="http://www.w3.org/2000/svg" xmlns:xlink="http://www.w3.org/1999/xlink">
<g id="graph0" class="graph" transform="scale(1 1) rotate(0) translate(4 555.78)">
<polygon fill="white" stroke="transparent" points="-4,4 -4,-555.78 940.83,-555.78 940.83,4 -4,4"/>
<!-- pollution&#45;&#45;emploi -->
<g id="edge1" class="edge">
<title>pollution&#45;&#45;emploi</title>
<path fill="none" stroke="darkgrey" stroke-width="7.03" d="M468.89,-244.75C451.38,-230.27 424.03,-207.65 406.46,-193.13"/>
</g>
<!-- pollution&#45;&#45;économie du pays -->
<g id="edge2" class="edge">
<title>pollution&#45;&#45;économie du pays</title>
<path fill="none" stroke="darkgrey" stroke-width="4.17" d="M474.81,-239.77C466.81,-225.87 456.15,-207.32 449.15,-195.16"/>
</g>
<!-- pollution&#45;&#45;richesse -->
<g id="edge3" class="edge">
<title>pollution&#45;&#45;richesse</title>
<path fill="none" stroke="darkgrey" stroke-width="1.66" d="M484.2,-236.99C482.63,-213.13 480.2,-176.03 479.17,-160.44"/>
</g>
<!-- pollution&#45;&#45;impact environnemental -->
<g id="edge4" class="edge">
<title>pollution&#45;&#45;impact environnemental</title>
<path fill="none" stroke="darkgrey" stroke-width="10" d="M505.17,-248.72C510.85,-245.86 517.22,-242.66 523.46,-239.51"/>
</g>
<!-- pollution&#45;&#45;conflit -->
<g id="edge5" class="edge">
<title>pollution&#45;&#45;conflit</title>
<path fill="none" stroke="darkgrey" stroke-width="2.24" d="M483.78,-236.85C480.72,-200.51 474.67,-128.67 472.34,-100.99"/>
</g>
<!-- pollution&#45;&#45;revenu -->
<g id="edge6" class="edge">
<title>pollution&#45;&#45;revenu</title>
<path fill="none" stroke="darkgrey" stroke-width="1.93" d="M475.09,-239.75C457.78,-208.79 424.15,-148.64 413.34,-129.31"/>
</g>
<!-- pollution&#45;&#45;nickel -->
<g id="edge7" class="edge">
<title>pollution&#45;&#45;nickel</title>
<path fill="none" stroke="darkgrey" stroke-width="3.96" d="M464.63,-253.75C443.77,-248.95 411.93,-241.62 390.98,-236.8"/>
</g>
<!-- pollution&#45;&#45;milieu -->
<g id="edge8" class="edge">
<title>pollution&#45;&#45;milieu</title>
<path fill="none" stroke="darkgrey" stroke-width="1.18" d="M478.44,-279.03C467.86,-309.19 448.8,-363.55 443.93,-377.46"/>
</g>
<!-- pollution&#45;&#45;exploitation -->
<g id="edge9" class="edge">
<title>pollution&#45;&#45;exploitation</title>
<path fill="none" stroke="darkgrey" stroke-width="1.99" d="M463.8,-256.91C447.66,-255.68 426.34,-254.05 413.6,-253.08"/>
</g>
<!-- pollution&#45;&#45;montagne -->
<g id="edge10" class="edge">
<title>pollution&#45;&#45;montagne</title>
<path fill="none" stroke="darkgrey" stroke-width="2.14" d="M494.98,-239.16C498.53,-231.81 502.33,-223.94 504.9,-218.61"/>
</g>
<!-- pollution&#45;&#45;biodiversité -->
<g id="edge11" class="edge">
<title>pollution&#45;&#45;biodiversité</title>
<path fill="none" stroke="darkgrey" stroke-width="1.38" d="M496.41,-277.32C515.71,-310.82 554.93,-378.89 563.86,-394.39"/>
</g>
<!-- pollution&#45;&#45;développement -->
<g id="edge12" class="edge">
<title>pollution&#45;&#45;développement</title>
<path fill="none" stroke="darkgrey" stroke-width="2.18" d="M494.96,-238.99C510.93,-205.52 542.49,-139.37 550.13,-123.36"/>
</g>
<!-- pollution&#45;&#45;engin -->
<g id="edge13" class="edge">
<title>pollution&#45;&#45;engin</title>
<path fill="none" stroke="darkgrey" stroke-width="2.38" d="M467.76,-246.48C462.06,-242.63 455.99,-238.51 451.14,-235.23"/>
</g>
<!-- pollution&#45;&#45;minerai -->
<g id="edge14" class="edge">
<title>pollution&#45;&#45;minerai</title>
<path fill="none" stroke="darkgrey" stroke-width="2.02" d="M469.53,-272.99C456.25,-284.9 437.6,-301.61 425.06,-312.85"/>
</g>
<!-- pollution&#45;&#45;terre -->
<g id="edge15" class="edge">
<title>pollution&#45;&#45;terre</title>
<path fill="none" stroke="darkgrey" stroke-width="1.92" d="M469.51,-273.49C466.5,-276.27 463.47,-279.08 460.83,-281.52"/>
</g>
<!-- pollution&#45;&#45;usine -->
<g id="edge16" class="edge">
<title>pollution&#45;&#45;usine</title>
<path fill="none" stroke="darkgrey" stroke-width="2.17" d="M464.72,-253.07C430.72,-244.13 364.31,-226.65 335.05,-218.94"/>
</g>
<!-- pollution&#45;&#45;opérateur minier -->
<g id="edge17" class="edge">
<title>pollution&#45;&#45;opérateur minier</title>
<path fill="none" stroke="darkgrey" stroke-width="1.07" d="M464.31,-261.98C434.45,-266.75 381.27,-275.25 358.34,-278.92"/>
</g>
<!-- pollution&#45;&#45;vision positive de la ressource -->
<g id="edge18" class="edge">
<title>pollution&#45;&#45;vision positive de la ressource</title>
<path fill="none" stroke="darkgrey" stroke-width="1.15" d="M467.11,-269.79C438.84,-286.94 386.25,-318.82 368.27,-329.73"/>
</g>
<!-- pollution&#45;&#45;nuisance -->
<g id="edge19" class="edge">
<title>pollution&#45;&#45;nuisance</title>
<path fill="none" stroke="darkgrey" stroke-width="1.08" d="M505.56,-266.74C542.68,-281.94 619.29,-313.29 626.39,-316.2"/>
</g>
<!-- emploi&#45;&#45;économie du pays -->
<g id="edge21" class="edge">
<title>emploi&#45;&#45;économie du pays</title>
<path fill="none" stroke="darkgrey" stroke-width="5.51" d="M411.18,-180.57C416.58,-180.91 422.25,-181.27 427.22,-181.59"/>
</g>
<!-- emploi&#45;&#45;richesse -->
<g id="edge22" class="edge">
<title>emploi&#45;&#45;richesse</title>
<path fill="none" stroke="darkgrey" stroke-width="2.5" d="M410.27,-173.16C430.01,-167.39 458.63,-159.02 471.7,-155.2"/>
</g>
<!-- emploi&#45;&#45;impact environnemental -->
<g id="edge23" class="edge">
<title>emploi&#45;&#45;impact environnemental</title>
<path fill="none" stroke="darkgrey" stroke-width="8.08" d="M410.66,-184.77C438.35,-192.11 487.4,-205.09 520.75,-213.92"/>
</g>
<!-- emploi&#45;&#45;conflit -->
<g id="edge24" class="edge">
<title>emploi&#45;&#45;conflit</title>
<path fill="none" stroke="darkgrey" stroke-width="3.32" d="M404.23,-163.21C421.69,-144.11 450.23,-112.89 463.78,-98.06"/>
</g>
<!-- emploi&#45;&#45;revenu -->
<g id="edge25" class="edge">
<title>emploi&#45;&#45;revenu</title>
<path fill="none" stroke="darkgrey" stroke-width="2.97" d="M396.94,-158.97C400.62,-148.82 404.83,-137.18 407.43,-130"/>
</g>
<!-- emploi&#45;&#45;nickel -->
<g id="edge26" class="edge">
<title>emploi&#45;&#45;nickel</title>
<path fill="none" stroke="darkgrey" stroke-width="5.35" d="M382,-199.43C380.51,-203.38 378.95,-207.52 377.46,-211.48"/>
</g>
<!-- emploi&#45;&#45;exploitation -->
<g id="edge28" class="edge">
<title>emploi&#45;&#45;exploitation</title>
<path fill="none" stroke="darkgrey" stroke-width="2.5" d="M393.44,-200.72C395.8,-214.02 398.73,-230.53 400.64,-241.22"/>
</g>
<!-- emploi&#45;&#45;montagne -->
<g id="edge29" class="edge">
<title>emploi&#45;&#45;montagne</title>
<path fill="none" stroke="darkgrey" stroke-width="1.39" d="M410.51,-185.02C437.72,-192.6 483.87,-205.45 501.18,-210.27"/>
</g>
<!-- emploi&#45;&#45;développement -->
<g id="edge31" class="edge">
<title>emploi&#45;&#45;développement</title>
<path fill="none" stroke="darkgrey" stroke-width="1.45" d="M409.83,-171.8C448.55,-157.62 530.93,-127.45 548.49,-121.02"/>
</g>
<!-- emploi&#45;&#45;engin -->
<g id="edge32" class="edge">
<title>emploi&#45;&#45;engin</title>
<path fill="none" stroke="darkgrey" stroke-width="1.86" d="M405.25,-194.1C414.6,-203.01 426.1,-213.96 433.65,-221.16"/>
</g>
<!-- emploi&#45;&#45;minerai -->
<g id="edge33" class="edge">
<title>emploi&#45;&#45;minerai</title>
<path fill="none" stroke="darkgrey" stroke-width="2.05" d="M392.84,-200.72C397.17,-229.55 404.77,-280.21 408.8,-307.09"/>
</g>
<!-- emploi&#45;&#45;terre -->
<g id="edge34" class="edge">
<title>emploi&#45;&#45;terre</title>
<path fill="none" stroke="darkgrey" stroke-width="2.15" d="M400.59,-198.35C414.13,-221.96 436.63,-261.21 447.04,-279.36"/>
</g>
<!-- emploi&#45;&#45;usine -->
<g id="edge35" class="edge">
<title>emploi&#45;&#45;usine</title>
<path fill="none" stroke="darkgrey" stroke-width="2.07" d="M370.39,-189.21C358.75,-195.28 344.19,-202.86 333.84,-208.25"/>
</g>
<!-- emploi&#45;&#45;opérateur minier -->
<g id="edge36" class="edge">
<title>emploi&#45;&#45;opérateur minier</title>
<path fill="none" stroke="darkgrey" stroke-width="1.81" d="M381.25,-199.25C372.35,-220.62 358.59,-253.63 351.64,-270.3"/>
</g>
<!-- emploi&#45;&#45;vision positive de la ressource -->
<g id="edge37" class="edge">
<title>emploi&#45;&#45;vision positive de la ressource</title>
<path fill="none" stroke="darkgrey" stroke-width="1.78" d="M385.78,-200.66C379.48,-235.93 367.23,-304.47 363.3,-326.5"/>
</g>
<!-- emploi&#45;&#45;production -->
<g id="edge27" class="edge">
<title>emploi&#45;&#45;production</title>
<path fill="none" stroke="darkgrey" stroke-width="1.06" d="M372.9,-165.47C343.05,-140.93 282.36,-91.07 268.55,-79.72"/>
</g>
<!-- emploi&#45;&#45;main d’oeuvre -->
<g id="edge30" class="edge">
<title>emploi&#45;&#45;main d’oeuvre</title>
<path fill="none" stroke="darkgrey" stroke-width="1.09" d="M369.48,-187.41C338.06,-200.23 279.39,-224.17 264.37,-230.31"/>
</g>
<!-- emploi&#45;&#45;commerce -->
<g id="edge38" class="edge">
<title>emploi&#45;&#45;commerce</title>
<path fill="none" stroke="darkgrey" stroke-width="1.45" d="M385.85,-157.9C382.25,-137.56 377.04,-108.06 374.66,-94.59"/>
</g>
<!-- économie du pays&#45;&#45;richesse -->
<g id="edge39" class="edge">
<title>économie du pays&#45;&#45;richesse</title>
<path fill="none" stroke="darkgrey" stroke-width="1.41" d="M453.54,-173.23C460.11,-167.99 468.01,-161.68 473.18,-157.55"/>
</g>
<!-- économie du pays&#45;&#45;impact environnemental -->
<g id="edge40" class="edge">
<title>économie du pays&#45;&#45;impact environnemental</title>
<path fill="none" stroke="darkgrey" stroke-width="6.9" d="M455.86,-187.51C472.14,-193.32 499.63,-203.14 521.66,-211.01"/>
</g>
<!-- économie du pays&#45;&#45;conflit -->
<g id="edge41" class="edge">
<title>économie du pays&#45;&#45;conflit</title>
<path fill="none" stroke="darkgrey" stroke-width="2.25" d="M446.37,-168.43C452.3,-149.77 462.63,-117.28 467.98,-100.48"/>
</g>
<!-- économie du pays&#45;&#45;revenu -->
<g id="edge42" class="edge">
<title>économie du pays&#45;&#45;revenu</title>
<path fill="none" stroke="darkgrey" stroke-width="1.17" d="M434.95,-169.64C428.26,-157.23 418.42,-138.98 413.3,-129.46"/>
</g>
<!-- économie du pays&#45;&#45;nickel -->
<g id="edge43" class="edge">
<title>économie du pays&#45;&#45;nickel</title>
<path fill="none" stroke="darkgrey" stroke-width="2.81" d="M429.66,-190.9C418.16,-198.77 400.82,-210.65 387.76,-219.6"/>
</g>
<!-- économie du pays&#45;&#45;exploitation -->
<g id="edge44" class="edge">
<title>économie du pays&#45;&#45;exploitation</title>
<path fill="none" stroke="darkgrey" stroke-width="1.16" d="M434.68,-195.31C427.06,-208.83 415.2,-229.88 408.23,-242.24"/>
</g>
<!-- économie du pays&#45;&#45;montagne -->
<g id="edge45" class="edge">
<title>économie du pays&#45;&#45;montagne</title>
<path fill="none" stroke="darkgrey" stroke-width="1.09" d="M455.27,-188.52C469.31,-194.82 490.79,-204.45 501.48,-209.25"/>
</g>
<!-- économie du pays&#45;&#45;développement -->
<g id="edge46" class="edge">
<title>économie du pays&#45;&#45;développement</title>
<path fill="none" stroke="darkgrey" stroke-width="1.03" d="M454.5,-175.33C479.54,-161.04 534.34,-129.78 548.45,-121.73"/>
</g>
<!-- économie du pays&#45;&#45;engin -->
<g id="edge47" class="edge">
<title>économie du pays&#45;&#45;engin</title>
<path fill="none" stroke="darkgrey" stroke-width="1.11" d="M441.84,-197.18C441.81,-203.86 441.78,-211.64 441.76,-217.81"/>
</g>
<!-- économie du pays&#45;&#45;minerai -->
<g id="edge48" class="edge">
<title>économie du pays&#45;&#45;minerai</title>
<path fill="none" stroke="darkgrey" stroke-width="1.48" d="M438.86,-196.7C433.28,-222.89 421.36,-278.76 415.26,-307.35"/>
</g>
<!-- économie du pays&#45;&#45;terre -->
<g id="edge49" class="edge">
<title>économie du pays&#45;&#45;terre</title>
<path fill="none" stroke="darkgrey" stroke-width="1.19" d="M443.38,-197.34C445.56,-218.97 449.56,-258.68 451.51,-277.99"/>
</g>
<!-- économie du pays&#45;&#45;usine -->
<g id="edge50" class="edge">
<title>économie du pays&#45;&#45;usine</title>
<path fill="none" stroke="darkgrey" stroke-width="1.58" d="M427.5,-186.39C404.16,-192.67 358.31,-205 334.98,-211.28"/>
</g>
<!-- économie du pays&#45;&#45;opérateur minier -->
<g id="edge51" class="edge">
<title>économie du pays&#45;&#45;opérateur minier</title>
<path fill="none" stroke="darkgrey" stroke-width="1.1" d="M431.77,-193.03C412.8,-212.71 372.29,-254.76 355.19,-272.51"/>
</g>
<!-- richesse&#45;&#45;impact environnemental -->
<g id="edge52" class="edge">
<title>richesse&#45;&#45;impact environnemental</title>
<path fill="none" stroke="darkgrey" stroke-width="2.97" d="M484,-157.97C493.19,-166.31 512.66,-184 529.02,-198.85"/>
</g>
<!-- richesse&#45;&#45;conflit -->
<g id="edge53" class="edge">
<title>richesse&#45;&#45;conflit</title>
<path fill="none" stroke="darkgrey" stroke-width="1.23" d="M477.86,-145.88C476.58,-134.82 474.15,-113.69 472.66,-100.74"/>
</g>
<!-- richesse&#45;&#45;nickel -->
<g id="edge54" class="edge">
<title>richesse&#45;&#45;nickel</title>
<path fill="none" stroke="darkgrey" stroke-width="1.77" d="M472.84,-157.39C456.93,-168.89 412.44,-201.07 387.42,-219.16"/>
</g>
<!-- richesse&#45;&#45;exploitation -->
<g id="edge55" class="edge">
<title>richesse&#45;&#45;exploitation</title>
<path fill="none" stroke="darkgrey" stroke-width="1.23" d="M474.38,-158.76C461.75,-175.22 424.7,-223.46 409.36,-243.43"/>
</g>
<!-- richesse&#45;&#45;terre -->
<g id="edge56" class="edge">
<title>richesse&#45;&#45;terre</title>
<path fill="none" stroke="darkgrey" stroke-width="1.09" d="M477.37,-160.08C473.13,-182.16 459.94,-250.99 454.75,-278.04"/>
</g>
<!-- richesse&#45;&#45;usine -->
<g id="edge57" class="edge">
<title>richesse&#45;&#45;usine</title>
<path fill="none" stroke="darkgrey" stroke-width="1" d="M471.9,-155.82C447.91,-165.23 366.84,-197.02 334.3,-209.78"/>
</g>
<!-- impact environnemental&#45;&#45;conflit -->
<g id="edge58" class="edge">
<title>impact environnemental&#45;&#45;conflit</title>
<path fill="none" stroke="darkgrey" stroke-width="2.69" d="M536.46,-192.59C517.37,-162.42 489.37,-118.16 477.3,-99.07"/>
</g>
<!-- impact environnemental&#45;&#45;revenu -->
<g id="edge59" class="edge">
<title>impact environnemental&#45;&#45;revenu</title>
<path fill="none" stroke="darkgrey" stroke-width="2" d="M525.95,-202.72C490.59,-178.48 434.21,-139.83 415.88,-127.26"/>
</g>
<!-- impact environnemental&#45;&#45;nickel -->
<g id="edge60" class="edge">
<title>impact environnemental&#45;&#45;nickel</title>
<path fill="none" stroke="darkgrey" stroke-width="5.64" d="M519.51,-224.91C481.44,-226.69 422.88,-229.43 391.46,-230.9"/>
</g>
<!-- impact environnemental&#45;&#45;milieu -->
<g id="edge61" class="edge">
<title>impact environnemental&#45;&#45;milieu</title>
<path fill="none" stroke="darkgrey" stroke-width="1.97" d="M534.83,-252.47C505.96,-292.7 456.31,-361.89 445.07,-377.55"/>
</g>
<!-- impact environnemental&#45;&#45;exploitation -->
<g id="edge63" class="edge">
<title>impact environnemental&#45;&#45;exploitation</title>
<path fill="none" stroke="darkgrey" stroke-width="4.53" d="M520.29,-229.94C485.81,-236.47 435.57,-245.99 413.58,-250.16"/>
</g>
<!-- impact environnemental&#45;&#45;montagne -->
<g id="edge64" class="edge">
<title>impact environnemental&#45;&#45;montagne</title>
<path fill="none" stroke="darkgrey" stroke-width="2.65" d="M520.57,-215.07C518.56,-214.61 516.68,-214.17 515.03,-213.79"/>
</g>
<!-- impact environnemental&#45;&#45;biodiversité -->
<g id="edge65" class="edge">
<title>impact environnemental&#45;&#45;biodiversité</title>
<path fill="none" stroke="darkgrey" stroke-width="1.07" d="M557.87,-259.34C560.4,-304.02 564.49,-376.35 565.48,-393.73"/>
</g>
<!-- impact environnemental&#45;&#45;développement -->
<g id="edge66" class="edge">
<title>impact environnemental&#45;&#45;développement</title>
<path fill="none" stroke="darkgrey" stroke-width="2.3" d="M554.43,-187.04C553.49,-162.81 552.35,-133.57 551.96,-123.45"/>
</g>
<!-- impact environnemental&#45;&#45;engin -->
<g id="edge67" class="edge">
<title>impact environnemental&#45;&#45;engin</title>
<path fill="none" stroke="darkgrey" stroke-width="3.28" d="M519.72,-224.99C496.61,-226.13 468.17,-227.54 452.82,-228.3"/>
</g>
<!-- impact environnemental&#45;&#45;minerai -->
<g id="edge68" class="edge">
<title>impact environnemental&#45;&#45;minerai</title>
<path fill="none" stroke="darkgrey" stroke-width="2.73" d="M526.27,-244.05C495.92,-265.46 449.91,-297.92 426.42,-314.48"/>
</g>
<!-- impact environnemental&#45;&#45;terre -->
<g id="edge69" class="edge">
<title>impact environnemental&#45;&#45;terre</title>
<path fill="none" stroke="darkgrey" stroke-width="2.17" d="M525.42,-242.62C503.78,-256.45 476.12,-274.11 461.94,-283.17"/>
</g>
<!-- impact environnemental&#45;&#45;usine -->
<g id="edge71" class="edge">
<title>impact environnemental&#45;&#45;usine</title>
<path fill="none" stroke="darkgrey" stroke-width="2.31" d="M519.85,-221.97C467.21,-220.17 371.53,-216.89 335.17,-215.64"/>
</g>
<!-- impact environnemental&#45;&#45;opérateur minier -->
<g id="edge73" class="edge">
<title>impact environnemental&#45;&#45;opérateur minier</title>
<path fill="none" stroke="darkgrey" stroke-width="1.5" d="M520.93,-232.83C472.7,-246.12 388.23,-269.4 358.25,-277.67"/>
</g>
<!-- impact environnemental&#45;&#45;vision positive de la ressource -->
<g id="edge74" class="edge">
<title>impact environnemental&#45;&#45;vision positive de la ressource</title>
<path fill="none" stroke="darkgrey" stroke-width="2.21" d="M524.26,-241.17C477.29,-267.91 391.97,-316.47 368.29,-329.95"/>
</g>
<!-- impact environnemental&#45;&#45;nuisance -->
<g id="edge77" class="edge">
<title>impact environnemental&#45;&#45;nuisance</title>
<path fill="none" stroke="darkgrey" d="M577.74,-251.93C597.32,-277.61 623.41,-311.82 626.6,-315.99"/>
</g>
<!-- impact environnemental&#45;&#45;commerce -->
<g id="edge81" class="edge">
<title>impact environnemental&#45;&#45;commerce</title>
<path fill="none" stroke="darkgrey" stroke-width="1.66" d="M526.92,-201.68C482.71,-168.77 401.1,-108.01 379.02,-91.57"/>
</g>
<!-- impact environnemental&#45;&#45;amélioration environnementale -->
<g id="edge62" class="edge">
<title>impact environnemental&#45;&#45;amélioration environnementale</title>
<path fill="none" stroke="darkgrey" stroke-width="1.28" d="M576.09,-192.87C607.77,-145.47 666.59,-57.42 678.21,-40.02"/>
</g>
<!-- impact environnemental&#45;&#45;industrie -->
<g id="edge70" class="edge">
<title>impact environnemental&#45;&#45;industrie</title>
<path fill="none" stroke="darkgrey" stroke-width="1.12" d="M586.25,-203.67C640.28,-168.98 748.27,-99.64 758.28,-93.22"/>
</g>
<!-- impact environnemental&#45;&#45;relation internationale -->
<g id="edge72" class="edge">
<title>impact environnemental&#45;&#45;relation internationale</title>
<path fill="none" stroke="darkgrey" stroke-width="1.01" d="M586.49,-203.99C623.48,-180.81 681.62,-144.37 688.74,-139.9"/>
</g>
<!-- impact environnemental&#45;&#45;procédé industriel -->
<g id="edge75" class="edge">
<title>impact environnemental&#45;&#45;procédé industriel</title>
<path fill="none" stroke="darkgrey" stroke-width="1.2" d="M591.63,-228.25C631.99,-233.94 694.07,-242.68 709.85,-244.9"/>
</g>
<!-- impact environnemental&#45;&#45;danger -->
<g id="edge76" class="edge">
<title>impact environnemental&#45;&#45;danger</title>
<path fill="none" stroke="darkgrey" stroke-width="1.5" d="M584.51,-245.11C632.61,-281.83 725.13,-352.48 733.7,-359.03"/>
</g>
<!-- impact environnemental&#45;&#45;transition -->
<g id="edge78" class="edge">
<title>impact environnemental&#45;&#45;transition</title>
<path fill="none" stroke="darkgrey" stroke-width="1.15" d="M590.68,-232.72C652.58,-249.62 776.3,-283.39 787.77,-286.52"/>
</g>
<!-- impact environnemental&#45;&#45;épuisement de la ressource -->
<g id="edge79" class="edge">
<title>impact environnemental&#45;&#45;épuisement de la ressource</title>
<path fill="none" stroke="darkgrey" stroke-width="1.51" d="M573.7,-254.71C604.37,-308.77 664.26,-414.35 669.8,-424.13"/>
</g>
<!-- impact environnemental&#45;&#45;politique -->
<g id="edge80" class="edge">
<title>impact environnemental&#45;&#45;politique</title>
<path fill="none" stroke="darkgrey" stroke-width="1.01" d="M591.39,-217.43C649.83,-207.93 761.81,-189.73 783.13,-186.27"/>
</g>
<!-- conflit&#45;&#45;revenu -->
<g id="edge82" class="edge">
<title>conflit&#45;&#45;revenu</title>
<path fill="none" stroke="darkgrey" stroke-width="1.4" d="M461.51,-95.11C448.75,-102.05 426.9,-113.93 416.19,-119.75"/>
</g>
<!-- conflit&#45;&#45;nickel -->
<g id="edge83" class="edge">
<title>conflit&#45;&#45;nickel</title>
<path fill="none" stroke="darkgrey" stroke-width="1.1" d="M464.73,-99.07C448.03,-122.42 404.23,-183.7 382.45,-214.18"/>
</g>
<!-- revenu&#45;&#45;nickel -->
<g id="edge84" class="edge">
<title>revenu&#45;&#45;nickel</title>
<path fill="none" stroke="darkgrey" stroke-width="2.22" d="M407.39,-129.97C401.49,-145.97 386.54,-186.49 377.36,-211.36"/>
</g>
<!-- revenu&#45;&#45;engin -->
<g id="edge85" class="edge">
<title>revenu&#45;&#45;engin</title>
<path fill="none" stroke="darkgrey" stroke-width="1.09" d="M411.99,-130.1C417.41,-148.1 431.96,-196.42 438.48,-218.08"/>
</g>
<!-- nickel&#45;&#45;milieu -->
<g id="edge87" class="edge">
<title>nickel&#45;&#45;milieu</title>
<path fill="none" stroke="darkgrey" stroke-width="1.19" d="M379.31,-251.38C396.78,-287 432.86,-360.57 441.08,-377.32"/>
</g>
<!-- nickel&#45;&#45;exploitation -->
<g id="edge88" class="edge">
<title>nickel&#45;&#45;exploitation</title>
<path fill="none" stroke="darkgrey" stroke-width="2.84" d="M388.1,-243.27C389.86,-244.36 391.6,-245.43 393.22,-246.44"/>
</g>
<!-- nickel&#45;&#45;montagne -->
<g id="edge89" class="edge">
<title>nickel&#45;&#45;montagne</title>
<path fill="none" stroke="darkgrey" stroke-width="2.02" d="M391.07,-228.88C422.72,-224.36 480.64,-216.08 500.83,-213.2"/>
</g>
<!-- nickel&#45;&#45;engin -->
<g id="edge91" class="edge">
<title>nickel&#45;&#45;engin</title>
<path fill="none" stroke="darkgrey" stroke-width="3.47" d="M391.36,-231C404.27,-230.45 420.15,-229.77 430.58,-229.32"/>
</g>
<!-- nickel&#45;&#45;minerai -->
<g id="edge92" class="edge">
<title>nickel&#45;&#45;minerai</title>
<path fill="none" stroke="darkgrey" stroke-width="4.49" d="M378.62,-251.66C386.18,-268.53 396.93,-292.51 404.05,-308.41"/>
</g>
<!-- nickel&#45;&#45;terre -->
<g id="edge93" class="edge">
<title>nickel&#45;&#45;terre</title>
<path fill="none" stroke="darkgrey" stroke-width="2.94" d="M387.75,-244.33C404.88,-256.16 430,-273.49 443.4,-282.75"/>
</g>
<!-- nickel&#45;&#45;usine -->
<g id="edge95" class="edge">
<title>nickel&#45;&#45;usine</title>
<path fill="none" stroke="darkgrey" stroke-width="4.51" d="M349.21,-224.9C344.26,-223.21 339.09,-221.45 334.53,-219.89"/>
</g>
<!-- nickel&#45;&#45;opérateur minier -->
<g id="edge96" class="edge">
<title>nickel&#45;&#45;opérateur minier</title>
<path fill="none" stroke="darkgrey" stroke-width="3.35" d="M360.77,-251.47C357.74,-258.04 354.49,-265.1 351.94,-270.63"/>
</g>
<!-- nickel&#45;&#45;vision positive de la ressource -->
<g id="edge97" class="edge">
<title>nickel&#45;&#45;vision positive de la ressource</title>
<path fill="none" stroke="darkgrey" stroke-width="1.76" d="M368.13,-253.46C366.4,-276.29 363.75,-311.08 362.61,-326.13"/>
</g>
<!-- nickel&#45;&#45;production -->
<g id="edge86" class="edge">
<title>nickel&#45;&#45;production</title>
<path fill="none" stroke="darkgrey" stroke-width="1.08" d="M357.63,-213.89C333.18,-177.58 279.37,-97.67 267.89,-80.62"/>
</g>
<!-- nickel&#45;&#45;main d’oeuvre -->
<g id="edge90" class="edge">
<title>nickel&#45;&#45;main d’oeuvre</title>
<path fill="none" stroke="darkgrey" stroke-width="1.48" d="M348.24,-231.89C321.44,-231.85 277.6,-231.79 264.56,-231.77"/>
</g>
<!-- nickel&#45;&#45;commerce -->
<g id="edge99" class="edge">
<title>nickel&#45;&#45;commerce</title>
<path fill="none" stroke="darkgrey" stroke-width="1.74" d="M370.31,-210.28C371.14,-177.21 372.68,-115.69 373.21,-94.66"/>
</g>
<!-- nickel&#45;&#45;description minière -->
<g id="edge94" class="edge">
<title>nickel&#45;&#45;description minière</title>
<path fill="none" stroke="darkgrey" stroke-width="1.18" d="M377.34,-252.47C395.02,-300.42 438.09,-417.29 446.01,-438.79"/>
</g>
<!-- nickel&#45;&#45;localité -->
<g id="edge98" class="edge">
<title>nickel&#45;&#45;localité</title>
<path fill="none" stroke="darkgrey" stroke-width="1" d="M349.39,-239.33C310.36,-253.54 227.33,-283.74 209.64,-290.18"/>
</g>
<!-- nickel&#45;&#45;ressource non&#45;renouvelable -->
<g id="edge100" class="edge">
<title>nickel&#45;&#45;ressource non&#45;renouvelable</title>
<path fill="none" stroke="darkgrey" stroke-width="2.15" d="M356.46,-249.2C333,-279.67 285.39,-341.5 270.74,-360.52"/>
</g>
<!-- exploitation&#45;&#45;engin -->
<g id="edge102" class="edge">
<title>exploitation&#45;&#45;engin</title>
<path fill="none" stroke="darkgrey" stroke-width="1.86" d="M412.07,-246.58C418.13,-242.96 425.97,-238.27 432.06,-234.62"/>
</g>
<!-- exploitation&#45;&#45;minerai -->
<g id="edge103" class="edge">
<title>exploitation&#45;&#45;minerai</title>
<path fill="none" stroke="darkgrey" stroke-width="3.61" d="M403.95,-263.29C405.37,-274.9 407.62,-293.35 409.3,-307.05"/>
</g>
<!-- exploitation&#45;&#45;terre -->
<g id="edge104" class="edge">
<title>exploitation&#45;&#45;terre</title>
<path fill="none" stroke="darkgrey" stroke-width="1.01" d="M411.77,-259.01C420.8,-265.66 434.5,-275.76 443.51,-282.4"/>
</g>
<!-- exploitation&#45;&#45;usine -->
<g id="edge105" class="edge">
<title>exploitation&#45;&#45;usine</title>
<path fill="none" stroke="darkgrey" stroke-width="2.04" d="M392.54,-247.69C377.83,-241.04 350.42,-228.63 334.01,-221.21"/>
</g>
<!-- exploitation&#45;&#45;vision positive de la ressource -->
<g id="edge106" class="edge">
<title>exploitation&#45;&#45;vision positive de la ressource</title>
<path fill="none" stroke="darkgrey" stroke-width="1.63" d="M397.62,-262.21C389.16,-279.16 372.21,-313.14 365.2,-327.19"/>
</g>
<!-- exploitation&#45;&#45;main d’oeuvre -->
<g id="edge101" class="edge">
<title>exploitation&#45;&#45;main d’oeuvre</title>
<path fill="none" stroke="darkgrey" stroke-width="1.24" d="M391.47,-250.64C361.95,-246.37 282.7,-234.93 264.53,-232.31"/>
</g>
<!-- exploitation&#45;&#45;commerce -->
<g id="edge107" class="edge">
<title>exploitation&#45;&#45;commerce</title>
<path fill="none" stroke="darkgrey" stroke-width="1.7" d="M400.63,-241.17C395.06,-209.69 379.22,-120.3 374.64,-94.46"/>
</g>
<!-- montagne&#45;&#45;engin -->
<g id="edge108" class="edge">
<title>montagne&#45;&#45;engin</title>
<path fill="none" stroke="darkgrey" stroke-width="1.62" d="M500.91,-213.96C489.29,-216.88 466.12,-222.71 452.47,-226.14"/>
</g>
<!-- montagne&#45;&#45;minerai -->
<g id="edge109" class="edge">
<title>montagne&#45;&#45;minerai</title>
<path fill="none" stroke="darkgrey" stroke-width="1.85" d="M503.35,-217.61C488.97,-234.43 444.92,-285.94 423.47,-311.01"/>
</g>
<!-- montagne&#45;&#45;terre -->
<g id="edge110" class="edge">
<title>montagne&#45;&#45;terre</title>
<path fill="none" stroke="darkgrey" stroke-width="1.5" d="M503.85,-217.96C494.29,-231.24 470.71,-264 459.18,-280.01"/>
</g>
<!-- engin&#45;&#45;minerai -->
<g id="edge113" class="edge">
<title>engin&#45;&#45;minerai</title>
<path fill="none" stroke="darkgrey" stroke-width="2.82" d="M438.37,-239.51C433.17,-256.04 423.13,-288 416.9,-307.82"/>
</g>
<!-- engin&#45;&#45;terre -->
<g id="edge114" class="edge">
<title>engin&#45;&#45;terre</title>
<path fill="none" stroke="darkgrey" stroke-width="2.24" d="M443.72,-239.9C445.69,-250.78 448.68,-267.28 450.64,-278.13"/>
</g>
<!-- engin&#45;&#45;usine -->
<g id="edge115" class="edge">
<title>engin&#45;&#45;usine</title>
<path fill="none" stroke="darkgrey" stroke-width="2.38" d="M430.54,-227.58C408.53,-225.09 359.56,-219.55 335.1,-216.78"/>
</g>
<!-- engin&#45;&#45;opérateur minier -->
<g id="edge116" class="edge">
<title>engin&#45;&#45;opérateur minier</title>
<path fill="none" stroke="darkgrey" stroke-width="1.48" d="M431.97,-234.2C413.88,-244.13 375.31,-265.31 357.15,-275.28"/>
</g>
<!-- minerai&#45;&#45;terre -->
<g id="edge117" class="edge">
<title>minerai&#45;&#45;terre</title>
<path fill="none" stroke="darkgrey" stroke-width="1.91" d="M425.42,-312.86C431.57,-307.49 438.62,-301.34 443.99,-296.65"/>
</g>
<!-- minerai&#45;&#45;usine -->
<g id="edge119" class="edge">
<title>minerai&#45;&#45;usine</title>
<path fill="none" stroke="darkgrey" stroke-width="2.97" d="M399.98,-311.1C381.83,-289.15 346.9,-246.93 330.1,-226.61"/>
</g>
<!-- minerai&#45;&#45;opérateur minier -->
<g id="edge120" class="edge">
<title>minerai&#45;&#45;opérateur minier</title>
<path fill="none" stroke="darkgrey" stroke-width="1.98" d="M396.61,-314.73C384.17,-306.14 366.83,-294.16 356.37,-286.94"/>
</g>
<!-- minerai&#45;&#45;vision positive de la ressource -->
<g id="edge122" class="edge">
<title>minerai&#45;&#45;vision positive de la ressource</title>
<path fill="none" stroke="darkgrey" stroke-width="1.4" d="M393.64,-328.08C385.23,-329.52 375.67,-331.16 369.29,-332.26"/>
</g>
<!-- minerai&#45;&#45;description minière -->
<g id="edge118" class="edge">
<title>minerai&#45;&#45;description minière</title>
<path fill="none" stroke="darkgrey" stroke-width="1.2" d="M416.77,-342.3C425.33,-370.32 441.7,-423.97 446.14,-438.5"/>
</g>
<!-- minerai&#45;&#45;ressource non&#45;renouvelable -->
<g id="edge123" class="edge">
<title>minerai&#45;&#45;ressource non&#45;renouvelable</title>
<path fill="none" stroke="darkgrey" stroke-width="1.84" d="M393.99,-329.98C361.87,-339.1 294.84,-358.13 273.23,-364.27"/>
</g>
<!-- minerai&#45;&#45;nouvelle&#45;calédonie -->
<g id="edge121" class="edge">
<title>minerai&#45;&#45;nouvelle&#45;calédonie</title>
<path fill="none" stroke="darkgrey" stroke-width="1.23" d="M417.36,-342.1C434.05,-390.73 480.82,-527.05 484.45,-537.63"/>
</g>
<!-- terre&#45;&#45;usine -->
<g id="edge124" class="edge">
<title>terre&#45;&#45;usine</title>
<path fill="none" stroke="darkgrey" stroke-width="1.71" d="M442.71,-283.56C419.08,-270.32 359.52,-236.94 333.31,-222.26"/>
</g>
<!-- terre&#45;&#45;opérateur minier -->
<g id="edge125" class="edge">
<title>terre&#45;&#45;opérateur minier</title>
<path fill="none" stroke="darkgrey" stroke-width="1.11" d="M441.36,-288.21C421.09,-286.59 378.72,-283.2 358.51,-281.58"/>
</g>
<!-- usine&#45;&#45;opérateur minier -->
<g id="edge126" class="edge">
<title>usine&#45;&#45;opérateur minier</title>
<path fill="none" stroke="darkgrey" stroke-width="3.47" d="M326.15,-228.72C331.16,-241.02 338.44,-258.89 343.02,-270.14"/>
</g>
<!-- usine&#45;&#45;vision positive de la ressource -->
<g id="edge127" class="edge">
<title>usine&#45;&#45;vision positive de la ressource</title>
<path fill="none" stroke="darkgrey" stroke-width="1.07" d="M325.53,-229.18C334.49,-254.78 353.16,-308.11 359.71,-326.83"/>
</g>
<!-- usine&#45;&#45;commerce -->
<g id="edge130" class="edge">
<title>usine&#45;&#45;commerce</title>
<path fill="none" stroke="darkgrey" stroke-width="1.4" d="M326.26,-201.47C337.54,-174.18 362.46,-113.85 370.69,-93.92"/>
</g>
<!-- usine&#45;&#45;localité -->
<g id="edge128" class="edge">
<title>usine&#45;&#45;localité</title>
<path fill="none" stroke="darkgrey" stroke-width="1.85" d="M308.38,-223.3C282.57,-240.52 223.75,-279.75 209.45,-289.29"/>
</g>
<!-- usine&#45;&#45;ressource non&#45;renouvelable -->
<g id="edge132" class="edge">
<title>usine&#45;&#45;ressource non&#45;renouvelable</title>
<path fill="none" stroke="darkgrey" stroke-width="1.13" d="M315.7,-228.82C304.43,-260.19 277.05,-336.44 268.76,-359.5"/>
</g>
<!-- usine&#45;&#45;production énergétique -->
<g id="edge129" class="edge">
<title>usine&#45;&#45;production énergétique</title>
<path fill="none" stroke="darkgrey" stroke-width="1.09" d="M308.23,-207.4C269.45,-183.16 152.22,-109.88 141.32,-103.07"/>
</g>
<!-- usine&#45;&#45;métallurgie -->
<g id="edge131" class="edge">
<title>usine&#45;&#45;métallurgie</title>
<path fill="none" stroke="darkgrey" stroke-width="1.21" d="M305.78,-215.51C258.92,-216.67 116.53,-220.18 105.48,-220.45"/>
</g>
<!-- opérateur minier&#45;&#45;localité -->
<g id="edge133" class="edge">
<title>opérateur minier&#45;&#45;localité</title>
<path fill="none" stroke="darkgrey" stroke-width="1.31" d="M336.25,-281.52C306.9,-283.75 228.07,-289.75 210,-291.12"/>
</g>
<!-- changement climatique&#45;&#45;impact environnemental -->
<g id="edge20" class="edge">
<title>changement climatique&#45;&#45;impact environnemental</title>
<path fill="none" stroke="darkgrey" stroke-width="1.3" d="M597.48,-1.14C595.67,-10.78 573.83,-127.23 562.52,-187.52"/>
</g>
<!-- main d’oeuvre&#45;&#45;minerai -->
<g id="edge111" class="edge">
<title>main d’oeuvre&#45;&#45;minerai</title>
<path fill="none" stroke="darkgrey" stroke-width="1.4" d="M263.93,-233.71C280.88,-244.2 361.8,-294.26 396.09,-315.48"/>
</g>
<!-- main d’oeuvre&#45;&#45;usine -->
<g id="edge112" class="edge">
<title>main d’oeuvre&#45;&#45;usine</title>
<path fill="none" stroke="darkgrey" stroke-width="1.51" d="M264.35,-230.78C272.45,-228.53 292.61,-222.92 306.47,-219.07"/>
</g>
<!-- pollution -->
<g id="node1" class="node">
<title>pollution</title>
<ellipse fill="#cb4149" stroke="white" stroke-width="0" cx="485.61" cy="-258.57" rx="21.5" ry="21.5"/>
<text text-anchor="middle" x="511.11" y="-286.79" font-family="Helvetica,sans-Serif" font-size="21.60" fill="#4d4d4d">pollution</text>
</g>
<!-- emploi -->
<g id="node2" class="node">
<title>emploi</title>
<ellipse fill="#e35933" stroke="white" stroke-width="0" cx="389.61" cy="-179.2" rx="21.5" ry="21.5"/>
<text text-anchor="middle" x="331.11" y="-164.42" font-family="Helvetica,sans-Serif" font-size="21.60" fill="#4d4d4d">emploi</text>
</g>
<!-- économie du pays -->
<g id="node3" class="node">
<title>économie du pays</title>
<ellipse fill="#801f6c" stroke="white" stroke-width="0" cx="441.89" cy="-182.52" rx="14.5" ry="14.5"/>
<text text-anchor="middle" x="541.89" y="-173.3" font-family="Helvetica,sans-Serif" font-size="18.40" fill="#4d4d4d">économie du pays</text>
</g>
<!-- richesse -->
<g id="node4" class="node">
<title>richesse</title>
<ellipse fill="#360961" stroke="white" stroke-width="0" cx="478.69" cy="-153.15" rx="7" ry="7"/>
<text text-anchor="middle" x="503.69" y="-133.99" font-family="Helvetica,sans-Serif" font-size="15.20" fill="#4d4d4d">richesse</text>
</g>
<!-- impact environnemental -->
<g id="node5" class="node">
<title>impact environnemental</title>
<ellipse fill="#fcffa4" stroke="white" stroke-width="0" cx="555.83" cy="-223.21" rx="36" ry="36"/>
<text text-anchor="middle" x="764.33" y="-267.81" font-family="Helvetica,sans-Serif" font-size="28.00" fill="#4d4d4d">impact environnemental</text>
</g>
<!-- conflit -->
<g id="node6" class="node">
<title>conflit</title>
<ellipse fill="#520e6d" stroke="white" stroke-width="0" cx="471.39" cy="-89.74" rx="11" ry="11"/>
<text text-anchor="middle" x="434.39" y="-83.3" font-family="Helvetica,sans-Serif" font-size="16.80" fill="#4d4d4d">conflit</text>
</g>
<!-- revenu -->
<g id="node7" class="node">
<title>revenu</title>
<ellipse fill="#3e0966" stroke="white" stroke-width="0" cx="409.9" cy="-123.17" rx="7" ry="7"/>
<text text-anchor="middle" x="376.4" y="-135.01" font-family="Helvetica,sans-Serif" font-size="15.20" fill="#4d4d4d">revenu</text>
</g>
<!-- nickel -->
<g id="node8" class="node">
<title>nickel</title>
<ellipse fill="#d74b3f" stroke="white" stroke-width="0" cx="369.77" cy="-231.92" rx="21.5" ry="21.5"/>
<text text-anchor="middle" x="316.77" y="-260.14" font-family="Helvetica,sans-Serif" font-size="21.60" fill="#4d4d4d">nickel</text>
</g>
<!-- milieu -->
<g id="node9" class="node">
<title>milieu</title>
<ellipse fill="#120a32" stroke="white" stroke-width="0" cx="442.77" cy="-380.77" rx="3.5" ry="3.5"/>
<text text-anchor="middle" x="418.27" y="-388.39" font-family="Helvetica,sans-Serif" font-size="13.60" fill="#4d4d4d">milieu</text>
</g>
<!-- exploitation -->
<g id="node10" class="node">
<title>exploitation</title>
<ellipse fill="#771c6d" stroke="white" stroke-width="0" cx="402.6" cy="-252.24" rx="11" ry="11"/>
<text text-anchor="middle" x="441.6" y="-227.8" font-family="Helvetica,sans-Serif" font-size="16.80" fill="#4d4d4d">exploitation</text>
</g>
<!-- montagne -->
<g id="node11" class="node">
<title>montagne</title>
<ellipse fill="#2f0a5b" stroke="white" stroke-width="0" cx="508.01" cy="-212.17" rx="7" ry="7"/>
<text text-anchor="middle" x="462.01" y="-210.01" font-family="Helvetica,sans-Serif" font-size="15.20" fill="#4d4d4d">montagne</text>
</g>
<!-- biodiversité -->
<g id="node12" class="node">
<title>biodiversité</title>
<ellipse fill="#0b0724" stroke="white" stroke-width="0" cx="565.7" cy="-397.57" rx="3.5" ry="3.5"/>
<text text-anchor="middle" x="522.2" y="-405.19" font-family="Helvetica,sans-Serif" font-size="13.60" fill="#4d4d4d">biodiversité</text>
</g>
<!-- développement -->
<g id="node13" class="node">
<title>développement</title>
<ellipse fill="#190c3e" stroke="white" stroke-width="0" cx="551.82" cy="-119.8" rx="3.5" ry="3.5"/>
<text text-anchor="middle" x="494.32" y="-105.42" font-family="Helvetica,sans-Serif" font-size="13.60" fill="#4d4d4d">développement</text>
</g>
<!-- engin -->
<g id="node14" class="node">
<title>engin</title>
<ellipse fill="#6c186e" stroke="white" stroke-width="0" cx="441.72" cy="-228.85" rx="11" ry="11"/>
<text text-anchor="middle" x="407.22" y="-204.41" font-family="Helvetica,sans-Serif" font-size="16.80" fill="#4d4d4d">engin</text>
</g>
<!-- minerai -->
<g id="node15" class="node">
<title>minerai</title>
<ellipse fill="#ab2f5e" stroke="white" stroke-width="0" cx="411.49" cy="-325.01" rx="18" ry="18"/>
<text text-anchor="middle" x="355.49" y="-349.01" font-family="Helvetica,sans-Serif" font-size="20.00" fill="#4d4d4d">minerai</text>
</g>
<!-- terre -->
<g id="node16" class="node">
<title>terre</title>
<ellipse fill="#550f6d" stroke="white" stroke-width="0" cx="452.63" cy="-289.12" rx="11" ry="11"/>
<text text-anchor="middle" x="420.63" y="-282.68" font-family="Helvetica,sans-Serif" font-size="16.80" fill="#4d4d4d">terre</text>
</g>
<!-- usine -->
<g id="node17" class="node">
<title>usine</title>
<ellipse fill="#7d1e6d" stroke="white" stroke-width="0" cx="320.61" cy="-215.14" rx="14.5" ry="14.5"/>
<text text-anchor="middle" x="280.61" y="-205.92" font-family="Helvetica,sans-Serif" font-size="18.40" fill="#4d4d4d">usine</text>
</g>
<!-- opérateur minier -->
<g id="node18" class="node">
<title>opérateur minier</title>
<ellipse fill="#71196e" stroke="white" stroke-width="0" cx="347.32" cy="-280.68" rx="11" ry="11"/>
<text text-anchor="middle" x="265.32" y="-296.24" font-family="Helvetica,sans-Serif" font-size="16.80" fill="#4d4d4d">opérateur minier</text>
</g>
<!-- vision positive de la ressource -->
<g id="node19" class="node">
<title>vision positive de la ressource</title>
<ellipse fill="#280b53" stroke="white" stroke-width="0" cx="362.05" cy="-333.5" rx="7" ry="7"/>
<text text-anchor="middle" x="240.55" y="-331.34" font-family="Helvetica,sans-Serif" font-size="15.20" fill="#4d4d4d">vision positive de la ressource</text>
</g>
<!-- nuisance -->
<g id="node20" class="node">
<title>nuisance</title>
<ellipse fill="#02020e" stroke="white" stroke-width="0" cx="626.92" cy="-316.41" rx="0.5" ry="0.5"/>
<text text-anchor="middle" x="599.42" y="-320.31" font-family="Helvetica,sans-Serif" font-size="12.00" fill="#4d4d4d">nuisance</text>
</g>
<!-- changement climatique -->
<g id="node21" class="node">
<title>changement climatique</title>
<ellipse fill="#010005" stroke="white" stroke-width="0" cx="597.6" cy="-0.5" rx="0.5" ry="0.5"/>
<text text-anchor="middle" x="526.1" y="-4.4" font-family="Helvetica,sans-Serif" font-size="12.00" fill="#4d4d4d">changement climatique</text>
</g>
<!-- production -->
<g id="node22" class="node">
<title>production</title>
<ellipse fill="#07051b" stroke="white" stroke-width="0" cx="265.71" cy="-77.38" rx="3.5" ry="3.5"/>
<text text-anchor="middle" x="225.71" y="-85" font-family="Helvetica,sans-Serif" font-size="13.60" fill="#4d4d4d">production</text>
</g>
<!-- main d’oeuvre -->
<g id="node23" class="node">
<title>main d’oeuvre</title>
<ellipse fill="#210c4a" stroke="white" stroke-width="0" cx="260.79" cy="-231.77" rx="3.5" ry="3.5"/>
<text text-anchor="middle" x="207.79" y="-239.39" font-family="Helvetica,sans-Serif" font-size="13.60" fill="#4d4d4d">main d’oeuvre</text>
</g>
<!-- commerce -->
<g id="node24" class="node">
<title>commerce</title>
<ellipse fill="#310a5c" stroke="white" stroke-width="0" cx="373.39" cy="-87.38" rx="7" ry="7"/>
<text text-anchor="middle" x="326.39" y="-99.22" font-family="Helvetica,sans-Serif" font-size="15.20" fill="#4d4d4d">commerce</text>
</g>
<!-- amélioration environnementale -->
<g id="node25" class="node">
<title>amélioration environnementale</title>
<ellipse fill="#050417" stroke="white" stroke-width="0" cx="680.23" cy="-36.99" rx="3.5" ry="3.5"/>
<text text-anchor="middle" x="570.73" y="-44.61" font-family="Helvetica,sans-Serif" font-size="13.60" fill="#4d4d4d">amélioration environnementale</text>
</g>
<!-- industrie -->
<g id="node26" class="node">
<title>industrie</title>
<ellipse fill="#02020c" stroke="white" stroke-width="0" cx="759.02" cy="-92.74" rx="0.5" ry="0.5"/>
<text text-anchor="middle" x="732.52" y="-96.64" font-family="Helvetica,sans-Serif" font-size="12.00" fill="#4d4d4d">industrie</text>
</g>
<!-- relation internationale -->
<g id="node27" class="node">
<title>relation internationale</title>
<ellipse fill="#02020c" stroke="white" stroke-width="0" cx="689.47" cy="-139.45" rx="0.5" ry="0.5"/>
<text text-anchor="middle" x="622.97" y="-143.35" font-family="Helvetica,sans-Serif" font-size="12.00" fill="#4d4d4d">relation internationale</text>
</g>
<!-- procédé industriel -->
<g id="node28" class="node">
<title>procédé industriel</title>
<ellipse fill="#040312" stroke="white" stroke-width="0" cx="713.59" cy="-245.43" rx="3.5" ry="3.5"/>
<text text-anchor="middle" x="771.59" y="-231.05" font-family="Helvetica,sans-Serif" font-size="13.60" fill="#4d4d4d">procédé industriel</text>
</g>
<!-- danger -->
<g id="node29" class="node">
<title>danger</title>
<ellipse fill="#02020e" stroke="white" stroke-width="0" cx="734.34" cy="-359.52" rx="0.5" ry="0.5"/>
<text text-anchor="middle" x="712.34" y="-363.42" font-family="Helvetica,sans-Serif" font-size="12.00" fill="#4d4d4d">danger</text>
</g>
<!-- transition -->
<g id="node30" class="node">
<title>transition</title>
<ellipse fill="#000004" stroke="white" stroke-width="0" cx="788.62" cy="-286.75" rx="0.5" ry="0.5"/>
<text text-anchor="middle" x="759.62" y="-290.65" font-family="Helvetica,sans-Serif" font-size="12.00" fill="#4d4d4d">transition</text>
</g>
<!-- épuisement de la ressource -->
<g id="node31" class="node">
<title>épuisement de la ressource</title>
<ellipse fill="#02010a" stroke="white" stroke-width="0" cx="670.22" cy="-424.86" rx="0.5" ry="0.5"/>
<text text-anchor="middle" x="586.72" y="-428.76" font-family="Helvetica,sans-Serif" font-size="12.00" fill="#4d4d4d">épuisement de la ressource</text>
</g>
<!-- politique -->
<g id="node32" class="node">
<title>politique</title>
<ellipse fill="#040314" stroke="white" stroke-width="0" cx="786.68" cy="-185.69" rx="3.5" ry="3.5"/>
<text text-anchor="middle" x="753.18" y="-193.31" font-family="Helvetica,sans-Serif" font-size="13.60" fill="#4d4d4d">politique</text>
</g>
<!-- description minière -->
<g id="node33" class="node">
<title>description minière</title>
<ellipse fill="#110a30" stroke="white" stroke-width="0" cx="447.27" cy="-442.21" rx="3.5" ry="3.5"/>
<text text-anchor="middle" x="378.27" y="-449.83" font-family="Helvetica,sans-Serif" font-size="13.60" fill="#4d4d4d">description minière</text>
</g>
<!-- localité -->
<g id="node34" class="node">
<title>localité</title>
<ellipse fill="#10092d" stroke="white" stroke-width="0" cx="206.28" cy="-291.41" rx="3.5" ry="3.5"/>
<text text-anchor="middle" x="178.28" y="-277.03" font-family="Helvetica,sans-Serif" font-size="13.60" fill="#4d4d4d">localité</text>
</g>
<!-- ressource non&#45;renouvelable -->
<g id="node35" class="node">
<title>ressource non&#45;renouvelable</title>
<ellipse fill="#240c4f" stroke="white" stroke-width="0" cx="266.35" cy="-366.22" rx="7" ry="7"/>
<text text-anchor="middle" x="153.85" y="-378.06" font-family="Helvetica,sans-Serif" font-size="15.20" fill="#4d4d4d">ressource non&#45;renouvelable</text>
</g>
<!-- nouvelle&#45;calédonie -->
<g id="node36" class="node">
<title>nouvelle&#45;calédonie</title>
<ellipse fill="#030210" stroke="white" stroke-width="0" cx="484.68" cy="-538.28" rx="0.5" ry="0.5"/>
<text text-anchor="middle" x="427.68" y="-542.18" font-family="Helvetica,sans-Serif" font-size="12.00" fill="#4d4d4d">nouvelle&#45;calédonie</text>
</g>
<!-- production énergétique -->
<g id="node37" class="node">
<title>production énergétique</title>
<ellipse fill="#010106" stroke="white" stroke-width="0" cx="140.5" cy="-102.56" rx="0.5" ry="0.5"/>
<text text-anchor="middle" x="70" y="-106.46" font-family="Helvetica,sans-Serif" font-size="12.00" fill="#4d4d4d">production énergétique</text>
</g>
<!-- métallurgie -->
<g id="node38" class="node">
<title>métallurgie</title>
<ellipse fill="#030210" stroke="white" stroke-width="0" cx="104.8" cy="-220.47" rx="0.5" ry="0.5"/>
<text text-anchor="middle" x="70.3" y="-224.37" font-family="Helvetica,sans-Serif" font-size="12.00" fill="#4d4d4d">métallurgie</text>
</g>
</g>
</svg>
