<?xml version="1.0" encoding="UTF-8" standalone="no"?>
<!DOCTYPE svg PUBLIC "-//W3C//DTD SVG 1.1//EN"
 "http://www.w3.org/Graphics/SVG/1.1/DTD/svg11.dtd">
<!-- Generated by graphviz version 2.43.0 (0)
 -->
<!-- Pages: 1 -->
<svg width="438pt" height="373pt"
 viewBox="0.00 0.00 438.20 373.21" xmlns="http://www.w3.org/2000/svg" xmlns:xlink="http://www.w3.org/1999/xlink">
<g id="graph0" class="graph" transform="scale(1 1) rotate(0) translate(4 369.21)">
<polygon fill="white" stroke="transparent" points="-4,4 -4,-369.21 434.2,-369.21 434.2,4 -4,4"/>
<!-- pollution&#45;&#45;travail -->
<g id="edge1" class="edge">
<title>pollution&#45;&#45;travail</title>
<path fill="none" stroke="darkgrey" stroke-width="6.61" d="M335.76,-133.58C338.77,-121.25 342.05,-107.76 344.44,-97.94"/>
</g>
<!-- pollution&#45;&#45;richesse -->
<g id="edge2" class="edge">
<title>pollution&#45;&#45;richesse</title>
<path fill="none" stroke="darkgrey" stroke-width="1.85" d="M352.8,-144.2C361.18,-137.06 369.99,-129.55 376.25,-124.21"/>
</g>
<!-- pollution&#45;&#45;destruction -->
<g id="edge3" class="edge">
<title>pollution&#45;&#45;destruction</title>
<path fill="none" stroke="darkgrey" stroke-width="5" d="M338.99,-195.97C351.07,-229.72 369.64,-281.64 376.18,-299.93"/>
</g>
<!-- pollution&#45;&#45;argent -->
<g id="edge4" class="edge">
<title>pollution&#45;&#45;argent</title>
<path fill="none" stroke="darkgrey" stroke-width="2.05" d="M296.48,-157.11C268.68,-149.88 230.28,-139.89 214.81,-135.87"/>
</g>
<!-- pollution&#45;&#45;nickel -->
<g id="edge5" class="edge">
<title>pollution&#45;&#45;nickel</title>
<path fill="none" stroke="darkgrey" stroke-width="8.15" d="M297.08,-175.99C295.79,-176.43 294.48,-176.88 293.18,-177.33"/>
</g>
<!-- pollution&#45;&#45;camion -->
<g id="edge6" class="edge">
<title>pollution&#45;&#45;camion</title>
<path fill="none" stroke="darkgrey" stroke-width="2.3" d="M329.01,-197.83C329.34,-208.83 329.69,-220.39 329.94,-228.62"/>
</g>
<!-- pollution&#45;&#45;économie -->
<g id="edge7" class="edge">
<title>pollution&#45;&#45;économie</title>
<path fill="none" stroke="darkgrey" stroke-width="8" d="M320.37,-133.52C316.43,-117.19 311.74,-97.72 308.25,-83.26"/>
</g>
<!-- pollution&#45;&#45;environnement -->
<g id="edge8" class="edge">
<title>pollution&#45;&#45;environnement</title>
<path fill="none" stroke="darkgrey" stroke-width="6.42" d="M306.63,-140.3C301.36,-134.14 295.9,-127.76 291.28,-122.36"/>
</g>
<!-- pollution&#45;&#45;emploi -->
<g id="edge9" class="edge">
<title>pollution&#45;&#45;emploi</title>
<path fill="none" stroke="darkgrey" stroke-width="10" d="M303.83,-143.15C283.66,-124.68 255.67,-99.05 239.31,-84.07"/>
</g>
<!-- pollution&#45;&#45;développement -->
<g id="edge10" class="edge">
<title>pollution&#45;&#45;développement</title>
<path fill="none" stroke="darkgrey" stroke-width="1.82" d="M353.16,-186.24C381.39,-209.75 423.96,-245.2 429.17,-249.54"/>
</g>
<!-- pollution&#45;&#45;déforestation -->
<g id="edge11" class="edge">
<title>pollution&#45;&#45;déforestation</title>
<path fill="none" stroke="darkgrey" stroke-width="1.95" d="M357.36,-179.6C371.79,-186.63 387.47,-194.27 394.03,-197.46"/>
</g>
<!-- travail&#45;&#45;richesse -->
<g id="edge12" class="edge">
<title>travail&#45;&#45;richesse</title>
<path fill="none" stroke="darkgrey" stroke-width="1.43" d="M358.78,-93.57C364.41,-98.59 371.17,-104.63 376.4,-109.29"/>
</g>
<!-- travail&#45;&#45;nickel -->
<g id="edge13" class="edge">
<title>travail&#45;&#45;nickel</title>
<path fill="none" stroke="darkgrey" stroke-width="2.54" d="M338.35,-95.11C325.07,-110.82 300.57,-139.81 282.27,-161.46"/>
</g>
<!-- travail&#45;&#45;économie -->
<g id="edge14" class="edge">
<title>travail&#45;&#45;économie</title>
<path fill="none" stroke="darkgrey" stroke-width="2.65" d="M334.7,-77.46C330.89,-75.61 326.65,-73.55 322.54,-71.56"/>
</g>
<!-- travail&#45;&#45;environnement -->
<g id="edge15" class="edge">
<title>travail&#45;&#45;environnement</title>
<path fill="none" stroke="darkgrey" stroke-width="2.42" d="M334.05,-88.87C323.29,-92.78 308.3,-98.22 296.76,-102.41"/>
</g>
<!-- richesse&#45;&#45;nickel -->
<g id="edge16" class="edge">
<title>richesse&#45;&#45;nickel</title>
<path fill="none" stroke="darkgrey" stroke-width="1.57" d="M374.99,-122.53C356.94,-132.89 317.97,-155.25 290.15,-171.21"/>
</g>
<!-- richesse&#45;&#45;économie -->
<g id="edge17" class="edge">
<title>richesse&#45;&#45;économie</title>
<path fill="none" stroke="darkgrey" stroke-width="1.2" d="M375.51,-110.58C362.34,-101.77 338.11,-85.56 321.35,-74.33"/>
</g>
<!-- argent&#45;&#45;nickel -->
<g id="edge18" class="edge">
<title>argent&#45;&#45;nickel</title>
<path fill="none" stroke="darkgrey" stroke-width="3.47" d="M213.01,-139.57C218.09,-145.06 226.3,-153.94 234.37,-162.68"/>
</g>
<!-- argent&#45;&#45;emploi -->
<g id="edge19" class="edge">
<title>argent&#45;&#45;emploi</title>
<path fill="none" stroke="darkgrey" stroke-width="1.83" d="M210.01,-126.94C212.64,-117.8 217.3,-101.67 220.89,-89.21"/>
</g>
<!-- nickel&#45;&#45;camion -->
<g id="edge21" class="edge">
<title>nickel&#45;&#45;camion</title>
<path fill="none" stroke="darkgrey" stroke-width="4.16" d="M288.31,-210.12C300.15,-218.53 312.93,-227.62 321.24,-233.52"/>
</g>
<!-- nickel&#45;&#45;économie -->
<g id="edge22" class="edge">
<title>nickel&#45;&#45;économie</title>
<path fill="none" stroke="darkgrey" stroke-width="4.53" d="M270.72,-155.14C278.77,-132.06 289.15,-102.32 295.97,-82.77"/>
</g>
<!-- nickel&#45;&#45;environnement -->
<g id="edge23" class="edge">
<title>nickel&#45;&#45;environnement</title>
<path fill="none" stroke="darkgrey" stroke-width="1.63" d="M267.87,-154.09C270.36,-144.43 272.95,-134.37 275.06,-126.17"/>
</g>
<!-- nickel&#45;&#45;emploi -->
<g id="edge25" class="edge">
<title>nickel&#45;&#45;emploi</title>
<path fill="none" stroke="darkgrey" stroke-width="4.61" d="M249.05,-154.28C243.06,-132.92 235.65,-106.51 230.86,-89.42"/>
</g>
<!-- nickel&#45;&#45;montagne -->
<g id="edge20" class="edge">
<title>nickel&#45;&#45;montagne</title>
<path fill="none" stroke="darkgrey" stroke-width="1.78" d="M266.82,-224.32C272.04,-247.32 278.42,-275.45 281.37,-288.42"/>
</g>
<!-- nickel&#45;&#45;terre rouge -->
<g id="edge24" class="edge">
<title>nickel&#45;&#45;terre rouge</title>
<path fill="none" stroke="darkgrey" stroke-width="1.13" d="M240.79,-220.64C229.44,-240.43 216.51,-262.97 214.18,-267.02"/>
</g>
<!-- nickel&#45;&#45;usine -->
<g id="edge26" class="edge">
<title>nickel&#45;&#45;usine</title>
<path fill="none" stroke="darkgrey" stroke-width="4.24" d="M232.08,-213.53C207.55,-235.87 173.12,-267.21 160.14,-279.02"/>
</g>
<!-- nickel&#45;&#45;sln -->
<g id="edge27" class="edge">
<title>nickel&#45;&#45;sln</title>
<path fill="none" stroke="darkgrey" stroke-width="6.08" d="M255.45,-225.09C251.81,-263.61 246.29,-321.96 244.38,-342.09"/>
</g>
<!-- nickel&#45;&#45;minerai -->
<g id="edge28" class="edge">
<title>nickel&#45;&#45;minerai</title>
<path fill="none" stroke="darkgrey" stroke-width="3.17" d="M222.99,-193.2C193.53,-196.51 154.16,-200.93 138.35,-202.7"/>
</g>
<!-- économie&#45;&#45;environnement -->
<g id="edge29" class="edge">
<title>économie&#45;&#45;environnement</title>
<path fill="none" stroke="darkgrey" stroke-width="8.82" d="M293.43,-81.34C291.55,-85.05 289.6,-88.89 287.77,-92.49"/>
</g>
<!-- économie&#45;&#45;emploi -->
<g id="edge30" class="edge">
<title>économie&#45;&#45;emploi</title>
<path fill="none" stroke="darkgrey" stroke-width="8.21" d="M281.64,-64.85C269.77,-66.33 255.19,-68.15 243.92,-69.56"/>
</g>
<!-- environnement&#45;&#45;emploi -->
<g id="edge31" class="edge">
<title>environnement&#45;&#45;emploi</title>
<path fill="none" stroke="darkgrey" stroke-width="2.64" d="M264.62,-98.4C257.18,-93.29 248.21,-87.12 240.78,-82.02"/>
</g>
<!-- emploi&#45;&#45;conflit -->
<g id="edge32" class="edge">
<title>emploi&#45;&#45;conflit</title>
<path fill="none" stroke="darkgrey" d="M210.7,-61.39C189.37,-46.8 151.57,-20.92 137.09,-11.01"/>
</g>
<!-- usine&#45;&#45;minerai -->
<g id="edge33" class="edge">
<title>usine&#45;&#45;minerai</title>
<path fill="none" stroke="darkgrey" stroke-width="2.06" d="M152.91,-276.93C148.46,-261.76 137.8,-225.47 133.35,-210.32"/>
</g>
<!-- exploitation&#45;&#45;minerai -->
<g id="edge35" class="edge">
<title>exploitation&#45;&#45;minerai</title>
<path fill="none" stroke="darkgrey" stroke-width="1.58" d="M62.95,-211.7C77.23,-209.99 109.74,-206.09 124.19,-204.35"/>
</g>
<!-- exploitation&#45;&#45;ressource -->
<g id="edge34" class="edge">
<title>exploitation&#45;&#45;ressource</title>
<path fill="none" stroke="darkgrey" stroke-width="1.81" d="M60.32,-218.54C67.15,-228.04 80.37,-246.42 87.08,-255.76"/>
</g>
<!-- ressource&#45;&#45;minerai -->
<g id="edge36" class="edge">
<title>ressource&#45;&#45;minerai</title>
<path fill="none" stroke="darkgrey" stroke-width="1.26" d="M95.21,-255.73C102.82,-244.73 119.34,-220.84 127.13,-209.59"/>
</g>
<!-- pollution -->
<g id="node1" class="node">
<title>pollution</title>
<ellipse fill="#fbbe23" stroke="white" stroke-width="0" cx="328.03" cy="-165.31" rx="32.5" ry="32.5"/>
<text text-anchor="middle" x="277.03" y="-135.41" font-family="Helvetica,sans-Serif" font-size="8.00" fill="#4d4d4d">pollution</text>
</g>
<!-- travail -->
<g id="node2" class="node">
<title>travail</title>
<ellipse fill="#972766" stroke="white" stroke-width="0" cx="347.88" cy="-83.84" rx="14.5" ry="14.5"/>
<text text-anchor="middle" x="320.38" y="-100.94" font-family="Helvetica,sans-Serif" font-size="8.00" fill="#4d4d4d">travail</text>
</g>
<!-- richesse -->
<g id="node3" class="node">
<title>richesse</title>
<ellipse fill="#5f136e" stroke="white" stroke-width="0" cx="384.88" cy="-116.86" rx="11" ry="11"/>
<text text-anchor="middle" x="356.38" y="-108.46" font-family="Helvetica,sans-Serif" font-size="8.00" fill="#4d4d4d">richesse</text>
</g>
<!-- destruction -->
<g id="node4" class="node">
<title>destruction</title>
<ellipse fill="#2b0b57" stroke="white" stroke-width="0" cx="378.55" cy="-306.57" rx="7" ry="7"/>
<text text-anchor="middle" x="348.05" y="-316.17" font-family="Helvetica,sans-Serif" font-size="8.00" fill="#4d4d4d">destruction</text>
</g>
<!-- argent -->
<g id="node5" class="node">
<title>argent</title>
<ellipse fill="#450a69" stroke="white" stroke-width="0" cx="207.94" cy="-134.08" rx="7" ry="7"/>
<text text-anchor="middle" x="186.94" y="-143.68" font-family="Helvetica,sans-Serif" font-size="8.00" fill="#4d4d4d">argent</text>
</g>
<!-- nickel -->
<g id="node6" class="node">
<title>nickel</title>
<ellipse fill="#fcffa4" stroke="white" stroke-width="0" cx="258.85" cy="-189.17" rx="36" ry="36"/>
<text text-anchor="middle" x="210.85" y="-227.77" font-family="Helvetica,sans-Serif" font-size="8.00" fill="#4d4d4d">nickel</text>
</g>
<!-- camion -->
<g id="node7" class="node">
<title>camion</title>
<ellipse fill="#65156e" stroke="white" stroke-width="0" cx="330.28" cy="-239.95" rx="11" ry="11"/>
<text text-anchor="middle" x="303.78" y="-253.55" font-family="Helvetica,sans-Serif" font-size="8.00" fill="#4d4d4d">camion</text>
</g>
<!-- économie -->
<g id="node8" class="node">
<title>économie</title>
<ellipse fill="#d04545" stroke="white" stroke-width="0" cx="303.16" cy="-62.16" rx="21.5" ry="21.5"/>
<text text-anchor="middle" x="261.16" y="-43.26" font-family="Helvetica,sans-Serif" font-size="8.00" fill="#4d4d4d">économie</text>
</g>
<!-- environnement -->
<g id="node9" class="node">
<title>environnement</title>
<ellipse fill="#a92e5e" stroke="white" stroke-width="0" cx="279.56" cy="-108.66" rx="18" ry="18"/>
<text text-anchor="middle" x="230.56" y="-93.26" font-family="Helvetica,sans-Serif" font-size="8.00" fill="#4d4d4d">environnement</text>
</g>
<!-- emploi -->
<g id="node10" class="node">
<title>emploi</title>
<ellipse fill="#ad305d" stroke="white" stroke-width="0" cx="225.91" cy="-71.81" rx="18" ry="18"/>
<text text-anchor="middle" x="193.91" y="-56.41" font-family="Helvetica,sans-Serif" font-size="8.00" fill="#4d4d4d">emploi</text>
</g>
<!-- développement -->
<g id="node11" class="node">
<title>développement</title>
<ellipse fill="#010108" stroke="white" stroke-width="0" cx="429.7" cy="-249.98" rx="0.5" ry="0.5"/>
<text text-anchor="middle" x="396.7" y="-253.08" font-family="Helvetica,sans-Serif" font-size="8.00" fill="#4d4d4d">développement</text>
</g>
<!-- déforestation -->
<g id="node12" class="node">
<title>déforestation</title>
<ellipse fill="#08051d" stroke="white" stroke-width="0" cx="397.18" cy="-199" rx="3.5" ry="3.5"/>
<text text-anchor="middle" x="366.18" y="-205.1" font-family="Helvetica,sans-Serif" font-size="8.00" fill="#4d4d4d">déforestation</text>
</g>
<!-- montagne -->
<g id="node13" class="node">
<title>montagne</title>
<ellipse fill="#340a5f" stroke="white" stroke-width="0" cx="283" cy="-295.6" rx="7" ry="7"/>
<text text-anchor="middle" x="254.5" y="-305.2" font-family="Helvetica,sans-Serif" font-size="8.00" fill="#4d4d4d">montagne</text>
</g>
<!-- terre rouge -->
<g id="node14" class="node">
<title>terre rouge</title>
<ellipse fill="#000004" stroke="white" stroke-width="0" cx="213.82" cy="-267.66" rx="0.5" ry="0.5"/>
<text text-anchor="middle" x="190.82" y="-270.76" font-family="Helvetica,sans-Serif" font-size="8.00" fill="#4d4d4d">terre rouge</text>
</g>
<!-- usine -->
<g id="node15" class="node">
<title>usine</title>
<ellipse fill="#4a0c6b" stroke="white" stroke-width="0" cx="154.92" cy="-283.78" rx="7" ry="7"/>
<text text-anchor="middle" x="136.42" y="-293.38" font-family="Helvetica,sans-Serif" font-size="8.00" fill="#4d4d4d">usine</text>
</g>
<!-- sln -->
<g id="node16" class="node">
<title>sln</title>
<ellipse fill="#340a5f" stroke="white" stroke-width="0" cx="243.71" cy="-349.21" rx="7" ry="7"/>
<text text-anchor="middle" x="230.21" y="-358.81" font-family="Helvetica,sans-Serif" font-size="8.00" fill="#4d4d4d">sln</text>
</g>
<!-- minerai -->
<g id="node17" class="node">
<title>minerai</title>
<ellipse fill="#4a0c6b" stroke="white" stroke-width="0" cx="131.34" cy="-203.49" rx="7" ry="7"/>
<text text-anchor="middle" x="108.84" y="-213.09" font-family="Helvetica,sans-Serif" font-size="8.00" fill="#4d4d4d">minerai</text>
</g>
<!-- conflit -->
<g id="node18" class="node">
<title>conflit</title>
<ellipse fill="#2b0b57" stroke="white" stroke-width="0" cx="131.23" cy="-7" rx="7" ry="7"/>
<text text-anchor="middle" x="111.23" y="-16.6" font-family="Helvetica,sans-Serif" font-size="8.00" fill="#4d4d4d">conflit</text>
</g>
<!-- exploitation -->
<g id="node19" class="node">
<title>exploitation</title>
<ellipse fill="#4f0d6c" stroke="white" stroke-width="0" cx="56" cy="-212.54" rx="7" ry="7"/>
<text text-anchor="middle" x="24.5" y="-222.14" font-family="Helvetica,sans-Serif" font-size="8.00" fill="#4d4d4d">exploitation</text>
</g>
<!-- ressource -->
<g id="node20" class="node">
<title>ressource</title>
<ellipse fill="#3d0965" stroke="white" stroke-width="0" cx="91.22" cy="-261.51" rx="7" ry="7"/>
<text text-anchor="middle" x="64.22" y="-271.11" font-family="Helvetica,sans-Serif" font-size="8.00" fill="#4d4d4d">ressource</text>
</g>
</g>
</svg>
