<?xml version="1.0" encoding="UTF-8" standalone="no"?>
<!DOCTYPE svg PUBLIC "-//W3C//DTD SVG 1.1//EN"
 "http://www.w3.org/Graphics/SVG/1.1/DTD/svg11.dtd">
<!-- Generated by graphviz version 2.43.0 (0)
 -->
<!-- Pages: 1 -->
<svg width="501pt" height="375pt"
 viewBox="0.00 0.00 501.26 375.43" xmlns="http://www.w3.org/2000/svg" xmlns:xlink="http://www.w3.org/1999/xlink">
<g id="graph0" class="graph" transform="scale(1 1) rotate(0) translate(4 371.43)">
<polygon fill="white" stroke="transparent" points="-4,4 -4,-371.43 497.26,-371.43 497.26,4 -4,4"/>
<!-- pollution&#45;&#45;emploi -->
<g id="edge1" class="edge">
<title>pollution&#45;&#45;emploi</title>
<path fill="none" stroke="darkgrey" stroke-width="10" d="M160.74,-153.52C157.96,-170.18 154.43,-191.29 151.46,-209.02"/>
</g>
<!-- pollution&#45;&#45;démolition -->
<g id="edge2" class="edge">
<title>pollution&#45;&#45;démolition</title>
<path fill="none" stroke="darkgrey" stroke-width="2.61" d="M160.88,-96.02C155.91,-65.48 148.48,-19.86 146.38,-6.99"/>
</g>
<!-- pollution&#45;&#45;argent -->
<g id="edge3" class="edge">
<title>pollution&#45;&#45;argent</title>
<path fill="none" stroke="darkgrey" stroke-width="1.06" d="M150.07,-149.53C143.57,-159.92 136.57,-171.14 132.37,-177.86"/>
</g>
<!-- pollution&#45;&#45;nickel -->
<g id="edge4" class="edge">
<title>pollution&#45;&#45;nickel</title>
<path fill="none" stroke="darkgrey" stroke-width="4.08" d="M187.09,-144.47C204.4,-160.32 228.69,-182.57 246.64,-199.01"/>
</g>
<!-- pollution&#45;&#45;camion -->
<g id="edge5" class="edge">
<title>pollution&#45;&#45;camion</title>
<path fill="none" stroke="darkgrey" stroke-width="1.19" d="M193.57,-117C214.6,-111.19 241.85,-103.65 254.5,-100.15"/>
</g>
<!-- pollution&#45;&#45;économie -->
<g id="edge6" class="edge">
<title>pollution&#45;&#45;économie</title>
<path fill="none" stroke="darkgrey" stroke-width="4.04" d="M187.78,-143.63C192.43,-147.58 197.2,-151.64 201.43,-155.24"/>
</g>
<!-- pollution&#45;&#45;impact environnemental -->
<g id="edge7" class="edge">
<title>pollution&#45;&#45;impact environnemental</title>
<path fill="none" stroke="darkgrey" stroke-width="3.87" d="M175.33,-152.06C181.3,-168.72 188.75,-189.51 193.89,-203.86"/>
</g>
<!-- pollution&#45;&#45;déforestation -->
<g id="edge8" class="edge">
<title>pollution&#45;&#45;déforestation</title>
<path fill="none" stroke="darkgrey" stroke-width="1.37" d="M139.75,-111.23C109.26,-95.25 61.89,-70.42 56.09,-67.38"/>
</g>
<!-- emploi&#45;&#45;argent -->
<g id="edge10" class="edge">
<title>emploi&#45;&#45;argent</title>
<path fill="none" stroke="darkgrey" stroke-width="2.37" d="M135.82,-210.15C133.8,-202.89 131.87,-195.96 130.51,-191.05"/>
</g>
<!-- emploi&#45;&#45;nickel -->
<g id="edge11" class="edge">
<title>emploi&#45;&#45;nickel</title>
<path fill="none" stroke="darkgrey" stroke-width="5.36" d="M181.02,-238.1C199.11,-234.67 220.91,-230.52 238.5,-227.18"/>
</g>
<!-- emploi&#45;&#45;économie -->
<g id="edge12" class="edge">
<title>emploi&#45;&#45;économie</title>
<path fill="none" stroke="darkgrey" stroke-width="7.33" d="M169.87,-217.61C181.02,-205.15 193.76,-190.93 202.89,-180.73"/>
</g>
<!-- emploi&#45;&#45;impact environnemental -->
<g id="edge13" class="edge">
<title>emploi&#45;&#45;impact environnemental</title>
<path fill="none" stroke="darkgrey" stroke-width="4.83" d="M178.45,-230.4C180.16,-229.65 181.83,-228.92 183.44,-228.21"/>
</g>
<!-- emploi&#45;&#45;richesse -->
<g id="edge9" class="edge">
<title>emploi&#45;&#45;richesse</title>
<path fill="none" stroke="darkgrey" stroke-width="2.82" d="M164.99,-275.21C173.96,-289.14 183.74,-304.34 188.98,-312.49"/>
</g>
<!-- emploi&#45;&#45;conflit -->
<g id="edge14" class="edge">
<title>emploi&#45;&#45;conflit</title>
<path fill="none" stroke="darkgrey" stroke-width="1.48" d="M114.55,-263.56C88.68,-279.21 54.34,-299.98 43.77,-306.38"/>
</g>
<!-- argent&#45;&#45;nickel -->
<g id="edge16" class="edge">
<title>argent&#45;&#45;nickel</title>
<path fill="none" stroke="darkgrey" stroke-width="1.78" d="M135.4,-185.77C153.82,-190.57 205.25,-203.98 239.13,-212.82"/>
</g>
<!-- nickel&#45;&#45;camion -->
<g id="edge18" class="edge">
<title>nickel&#45;&#45;camion</title>
<path fill="none" stroke="darkgrey" stroke-width="2.1" d="M268.28,-188.46C266.16,-160.03 263.23,-120.94 262.06,-105.2"/>
</g>
<!-- nickel&#45;&#45;économie -->
<g id="edge19" class="edge">
<title>nickel&#45;&#45;économie</title>
<path fill="none" stroke="darkgrey" stroke-width="2.29" d="M247.19,-198.11C240.69,-191.78 233.87,-185.13 228.21,-179.62"/>
</g>
<!-- nickel&#45;&#45;impact environnemental -->
<g id="edge20" class="edge">
<title>nickel&#45;&#45;impact environnemental</title>
<path fill="none" stroke="darkgrey" stroke-width="1.01" d="M237.85,-221C231.07,-220.99 224.16,-220.98 218.14,-220.97"/>
</g>
<!-- nickel&#45;&#45;exploitation -->
<g id="edge17" class="edge">
<title>nickel&#45;&#45;exploitation</title>
<path fill="none" stroke="darkgrey" stroke-width="1.67" d="M296.7,-201.4C324.96,-180.03 368.58,-147.03 387.19,-132.95"/>
</g>
<!-- nickel&#45;&#45;terre rouge -->
<g id="edge21" class="edge">
<title>nickel&#45;&#45;terre rouge</title>
<path fill="none" stroke="darkgrey" d="M290.74,-246.98C313,-275.8 346.38,-319.02 350.46,-324.31"/>
</g>
<!-- nickel&#45;&#45;usine -->
<g id="edge22" class="edge">
<title>nickel&#45;&#45;usine</title>
<path fill="none" stroke="darkgrey" stroke-width="2.14" d="M302.11,-230.08C331.19,-238.44 372.29,-250.26 388.34,-254.87"/>
</g>
<!-- nickel&#45;&#45;sln -->
<g id="edge23" class="edge">
<title>nickel&#45;&#45;sln</title>
<path fill="none" stroke="darkgrey" stroke-width="3.05" d="M272.26,-253.81C273.85,-287.56 276.19,-337.16 276.85,-351.14"/>
</g>
<!-- nickel&#45;&#45;minerai -->
<g id="edge24" class="edge">
<title>nickel&#45;&#45;minerai</title>
<path fill="none" stroke="darkgrey" stroke-width="1.62" d="M302.2,-212.59C325.37,-206.37 355.09,-198.38 368.5,-194.77"/>
</g>
<!-- économie&#45;&#45;impact environnemental -->
<g id="edge27" class="edge">
<title>économie&#45;&#45;impact environnemental</title>
<path fill="none" stroke="darkgrey" stroke-width="5.64" d="M210.33,-184.34C208.59,-190.5 206.64,-197.44 204.9,-203.6"/>
</g>
<!-- richesse&#45;&#45;nickel -->
<g id="edge15" class="edge">
<title>richesse&#45;&#45;nickel</title>
<path fill="none" stroke="darkgrey" stroke-width="1.08" d="M197.22,-312.91C207.2,-300.44 232.04,-269.4 250.08,-246.84"/>
</g>
<!-- exploitation&#45;&#45;minerai -->
<g id="edge26" class="edge">
<title>exploitation&#45;&#45;minerai</title>
<path fill="none" stroke="darkgrey" stroke-width="1.47" d="M392.8,-136.92C388.56,-150.76 381.29,-174.44 377.72,-186.04"/>
</g>
<!-- exploitation&#45;&#45;ressource -->
<g id="edge25" class="edge">
<title>exploitation&#45;&#45;ressource</title>
<path fill="none" stroke="darkgrey" stroke-width="1" d="M405.41,-120.2C425.96,-106.96 474.3,-75.79 486.78,-67.74"/>
</g>
<!-- usine&#45;&#45;minerai -->
<g id="edge28" class="edge">
<title>usine&#45;&#45;minerai</title>
<path fill="none" stroke="darkgrey" stroke-width="1.07" d="M393.04,-249.98C389.31,-237.73 381.53,-212.2 377.76,-199.85"/>
</g>
<!-- pollution -->
<g id="node1" class="node">
<title>pollution</title>
<ellipse fill="#fb9706" stroke="white" stroke-width="0" cx="165.55" cy="-124.75" rx="29" ry="29"/>
<text text-anchor="middle" x="118.05" y="-156.35" font-family="Helvetica,sans-Serif" font-size="8.00" fill="#4d4d4d">pollution</text>
</g>
<!-- emploi -->
<g id="node2" class="node">
<title>emploi</title>
<ellipse fill="#fcffa4" stroke="white" stroke-width="0" cx="145.47" cy="-244.86" rx="36" ry="36"/>
<text text-anchor="middle" x="95.47" y="-283.46" font-family="Helvetica,sans-Serif" font-size="8.00" fill="#4d4d4d">emploi</text>
</g>
<!-- démolition -->
<g id="node3" class="node">
<title>démolition</title>
<ellipse fill="#10092d" stroke="white" stroke-width="0" cx="145.82" cy="-3.5" rx="3.5" ry="3.5"/>
<text text-anchor="middle" x="120.32" y="-9.6" font-family="Helvetica,sans-Serif" font-size="8.00" fill="#4d4d4d">démolition</text>
</g>
<!-- argent -->
<g id="node4" class="node">
<title>argent</title>
<ellipse fill="#260c51" stroke="white" stroke-width="0" cx="128.54" cy="-183.98" rx="7" ry="7"/>
<text text-anchor="middle" x="107.54" y="-193.58" font-family="Helvetica,sans-Serif" font-size="8.00" fill="#4d4d4d">argent</text>
</g>
<!-- nickel -->
<g id="node5" class="node">
<title>nickel</title>
<ellipse fill="#f8cf3a" stroke="white" stroke-width="0" cx="270.72" cy="-221.06" rx="32.5" ry="32.5"/>
<text text-anchor="middle" x="226.22" y="-256.16" font-family="Helvetica,sans-Serif" font-size="8.00" fill="#4d4d4d">nickel</text>
</g>
<!-- camion -->
<g id="node6" class="node">
<title>camion</title>
<ellipse fill="#400a67" stroke="white" stroke-width="0" cx="261.53" cy="-98.21" rx="7" ry="7"/>
<text text-anchor="middle" x="239.03" y="-107.81" font-family="Helvetica,sans-Serif" font-size="8.00" fill="#4d4d4d">camion</text>
</g>
<!-- économie -->
<g id="node7" class="node">
<title>économie</title>
<ellipse fill="#ad305d" stroke="white" stroke-width="0" cx="215.23" cy="-166.96" rx="18" ry="18"/>
<text text-anchor="middle" x="176.73" y="-187.56" font-family="Helvetica,sans-Serif" font-size="8.00" fill="#4d4d4d">économie</text>
</g>
<!-- impact environnemental -->
<g id="node8" class="node">
<title>impact environnemental</title>
<ellipse fill="#bf3952" stroke="white" stroke-width="0" cx="200.01" cy="-220.94" rx="18" ry="18"/>
<text text-anchor="middle" x="179.51" y="-196.54" font-family="Helvetica,sans-Serif" font-size="8.00" fill="#4d4d4d">impact environnemental</text>
</g>
<!-- déforestation -->
<g id="node9" class="node">
<title>déforestation</title>
<ellipse fill="#000004" stroke="white" stroke-width="0" cx="55.5" cy="-67.07" rx="0.5" ry="0.5"/>
<text text-anchor="middle" x="27.5" y="-70.17" font-family="Helvetica,sans-Serif" font-size="8.00" fill="#4d4d4d">déforestation</text>
</g>
<!-- richesse -->
<g id="node10" class="node">
<title>richesse</title>
<ellipse fill="#470b6a" stroke="white" stroke-width="0" cx="192.81" cy="-318.43" rx="7" ry="7"/>
<text text-anchor="middle" x="168.31" y="-328.03" font-family="Helvetica,sans-Serif" font-size="8.00" fill="#4d4d4d">richesse</text>
</g>
<!-- conflit -->
<g id="node11" class="node">
<title>conflit</title>
<ellipse fill="#0c0826" stroke="white" stroke-width="0" cx="40.53" cy="-308.33" rx="3.5" ry="3.5"/>
<text text-anchor="middle" x="24.03" y="-314.43" font-family="Helvetica,sans-Serif" font-size="8.00" fill="#4d4d4d">conflit</text>
</g>
<!-- exploitation -->
<g id="node12" class="node">
<title>exploitation</title>
<ellipse fill="#741a6e" stroke="white" stroke-width="0" cx="396.09" cy="-126.22" rx="11" ry="11"/>
<text text-anchor="middle" x="360.59" y="-139.82" font-family="Helvetica,sans-Serif" font-size="8.00" fill="#4d4d4d">exploitation</text>
</g>
<!-- terre rouge -->
<g id="node13" class="node">
<title>terre rouge</title>
<ellipse fill="#010005" stroke="white" stroke-width="0" cx="350.88" cy="-324.85" rx="0.5" ry="0.5"/>
<text text-anchor="middle" x="327.88" y="-327.95" font-family="Helvetica,sans-Serif" font-size="8.00" fill="#4d4d4d">terre rouge</text>
</g>
<!-- usine -->
<g id="node14" class="node">
<title>usine</title>
<ellipse fill="#260c51" stroke="white" stroke-width="0" cx="395.12" cy="-256.83" rx="7" ry="7"/>
<text text-anchor="middle" x="376.62" y="-266.43" font-family="Helvetica,sans-Serif" font-size="8.00" fill="#4d4d4d">usine</text>
</g>
<!-- sln -->
<g id="node15" class="node">
<title>sln</title>
<ellipse fill="#120a32" stroke="white" stroke-width="0" cx="277.03" cy="-354.93" rx="3.5" ry="3.5"/>
<text text-anchor="middle" x="267.03" y="-361.03" font-family="Helvetica,sans-Serif" font-size="8.00" fill="#4d4d4d">sln</text>
</g>
<!-- minerai -->
<g id="node16" class="node">
<title>minerai</title>
<ellipse fill="#280b53" stroke="white" stroke-width="0" cx="375.63" cy="-192.86" rx="7" ry="7"/>
<text text-anchor="middle" x="353.13" y="-202.46" font-family="Helvetica,sans-Serif" font-size="8.00" fill="#4d4d4d">minerai</text>
</g>
<!-- ressource -->
<g id="node17" class="node">
<title>ressource</title>
<ellipse fill="#190c3e" stroke="white" stroke-width="0" cx="489.76" cy="-65.82" rx="3.5" ry="3.5"/>
<text text-anchor="middle" x="466.26" y="-71.92" font-family="Helvetica,sans-Serif" font-size="8.00" fill="#4d4d4d">ressource</text>
</g>
</g>
</svg>
