<?xml version="1.0" encoding="UTF-8" standalone="no"?>
<!DOCTYPE svg PUBLIC "-//W3C//DTD SVG 1.1//EN"
 "http://www.w3.org/Graphics/SVG/1.1/DTD/svg11.dtd">
<!-- Generated by graphviz version 2.43.0 (0)
 -->
<!-- Pages: 1 -->
<svg width="654pt" height="303pt"
 viewBox="0.00 0.00 653.56 303.33" xmlns="http://www.w3.org/2000/svg" xmlns:xlink="http://www.w3.org/1999/xlink">
<g id="graph0" class="graph" transform="scale(1 1) rotate(0) translate(4 299.33)">
<polygon fill="white" stroke="transparent" points="-4,4 -4,-299.33 649.56,-299.33 649.56,4 -4,4"/>
<!-- emploi&#45;&#45;pollution -->
<g id="edge1" class="edge">
<title>emploi&#45;&#45;pollution</title>
<path fill="none" stroke="darkgrey" stroke-width="10" d="M427.32,-142.08C398.18,-146.13 345.55,-153.44 310.35,-158.33"/>
</g>
<!-- emploi&#45;&#45;exploitation -->
<g id="edge2" class="edge">
<title>emploi&#45;&#45;exploitation</title>
<path fill="none" stroke="darkgrey" stroke-width="1.24" d="M457.73,-119.58C470.41,-92.26 492.55,-44.57 498.53,-31.69"/>
</g>
<!-- emploi&#45;&#45;impact environnemental -->
<g id="edge3" class="edge">
<title>emploi&#45;&#45;impact environnemental</title>
<path fill="none" stroke="darkgrey" stroke-width="5.81" d="M427.02,-139.85C404.28,-140.62 368.91,-141.82 347.5,-142.55"/>
</g>
<!-- emploi&#45;&#45;ressource -->
<g id="edge4" class="edge">
<title>emploi&#45;&#45;ressource</title>
<path fill="none" stroke="darkgrey" stroke-width="2.65" d="M440.92,-118.71C432.62,-96.85 419.78,-63.02 413.38,-46.15"/>
</g>
<!-- emploi&#45;&#45;démolition -->
<g id="edge5" class="edge">
<title>emploi&#45;&#45;démolition</title>
<path fill="none" stroke="darkgrey" stroke-width="1.09" d="M435.14,-156.23C414.71,-182.08 376.99,-229.82 364.1,-246.14"/>
</g>
<!-- emploi&#45;&#45;économie -->
<g id="edge6" class="edge">
<title>emploi&#45;&#45;économie</title>
<path fill="none" stroke="darkgrey" stroke-width="3.39" d="M433.13,-123.83C406.97,-98.1 354.81,-46.77 332.51,-24.83"/>
</g>
<!-- emploi&#45;&#45;végétalisation -->
<g id="edge7" class="edge">
<title>emploi&#45;&#45;végétalisation</title>
<path fill="none" stroke="darkgrey" stroke-width="2.89" d="M470.07,-141.51C512.37,-146.24 604.81,-156.59 631.32,-159.56"/>
</g>
<!-- emploi&#45;&#45;écologie -->
<g id="edge8" class="edge">
<title>emploi&#45;&#45;écologie</title>
<path fill="none" stroke="darkgrey" stroke-width="1.03" d="M445.57,-160.43C439.96,-199.18 428.56,-277.86 427.5,-285.15"/>
</g>
<!-- emploi&#45;&#45;automatisation -->
<g id="edge9" class="edge">
<title>emploi&#45;&#45;automatisation</title>
<path fill="none" stroke="darkgrey" stroke-width="1.74" d="M454.87,-159.72C459.56,-175.28 465.71,-195.68 468.87,-206.18"/>
</g>
<!-- pollution&#45;&#45;impact environnemental -->
<g id="edge12" class="edge">
<title>pollution&#45;&#45;impact environnemental</title>
<path fill="none" stroke="darkgrey" stroke-width="6.31" d="M308.53,-150.78C309.75,-150.33 310.94,-149.89 312.11,-149.46"/>
</g>
<!-- pollution&#45;&#45;ressource -->
<g id="edge13" class="edge">
<title>pollution&#45;&#45;ressource</title>
<path fill="none" stroke="darkgrey" stroke-width="2.62" d="M300.94,-138.42C332.06,-109.01 382.07,-61.76 401.45,-43.45"/>
</g>
<!-- pollution&#45;&#45;démolition -->
<g id="edge14" class="edge">
<title>pollution&#45;&#45;démolition</title>
<path fill="none" stroke="darkgrey" stroke-width="5.48" d="M299.66,-189.36C319.06,-209.55 344.33,-235.85 354.79,-246.73"/>
</g>
<!-- pollution&#45;&#45;économie -->
<g id="edge15" class="edge">
<title>pollution&#45;&#45;économie</title>
<path fill="none" stroke="darkgrey" stroke-width="7.58" d="M285.61,-128.78C295.72,-97.02 310.23,-51.48 317.5,-28.67"/>
</g>
<!-- pollution&#45;&#45;écologie -->
<g id="edge19" class="edge">
<title>pollution&#45;&#45;écologie</title>
<path fill="none" stroke="darkgrey" stroke-width="1.47" d="M303,-186.03C345.12,-219.77 419.98,-279.73 426.91,-285.28"/>
</g>
<!-- pollution&#45;&#45;automatisation -->
<g id="edge20" class="edge">
<title>pollution&#45;&#45;automatisation</title>
<path fill="none" stroke="darkgrey" stroke-width="1.09" d="M309.71,-172.19C357.36,-184.28 439.39,-205.08 463.86,-211.28"/>
</g>
<!-- pollution&#45;&#45;épuisable -->
<g id="edge10" class="edge">
<title>pollution&#45;&#45;épuisable</title>
<path fill="none" stroke="darkgrey" stroke-width="8.26" d="M245.13,-142.11C233.94,-134.07 221.82,-125.36 213.13,-119.11"/>
</g>
<!-- pollution&#45;&#45;montagne -->
<g id="edge11" class="edge">
<title>pollution&#45;&#45;montagne</title>
<path fill="none" stroke="darkgrey" stroke-width="1.24" d="M241.96,-178.7C197.97,-199.45 124.35,-234.18 117.54,-237.39"/>
</g>
<!-- pollution&#45;&#45;argent -->
<g id="edge16" class="edge">
<title>pollution&#45;&#45;argent</title>
<path fill="none" stroke="darkgrey" stroke-width="1.74" d="M240.23,-151.75C185.71,-133.46 84.63,-99.54 75.28,-96.4"/>
</g>
<!-- pollution&#45;&#45;technologie -->
<g id="edge17" class="edge">
<title>pollution&#45;&#45;technologie</title>
<path fill="none" stroke="darkgrey" stroke-width="1.85" d="M238.43,-165.83C181.89,-169.79 76.86,-177.14 56.11,-178.6"/>
</g>
<!-- pollution&#45;&#45;richesse -->
<g id="edge18" class="edge">
<title>pollution&#45;&#45;richesse</title>
<path fill="none" stroke="darkgrey" stroke-width="2.06" d="M285.66,-128.93C293.89,-103.34 304.25,-71.12 307.57,-60.8"/>
</g>
<!-- exploitation&#45;&#45;ressource -->
<g id="edge25" class="edge">
<title>exploitation&#45;&#45;ressource</title>
<path fill="none" stroke="darkgrey" d="M496.16,-28.73C483.16,-29.8 440.9,-33.28 420.58,-34.95"/>
</g>
<!-- impact environnemental&#45;&#45;ressource -->
<g id="edge26" class="edge">
<title>impact environnemental&#45;&#45;ressource</title>
<path fill="none" stroke="darkgrey" stroke-width="2.71" d="M339.99,-128.7C356.86,-106.16 388.91,-63.33 402.79,-44.79"/>
</g>
<!-- impact environnemental&#45;&#45;démolition -->
<g id="edge27" class="edge">
<title>impact environnemental&#45;&#45;démolition</title>
<path fill="none" stroke="darkgrey" stroke-width="1.09" d="M334.05,-160.62C340.85,-184.85 352.85,-227.6 357.61,-244.56"/>
</g>
<!-- impact environnemental&#45;&#45;économie -->
<g id="edge28" class="edge">
<title>impact environnemental&#45;&#45;économie</title>
<path fill="none" stroke="darkgrey" stroke-width="4.01" d="M328.14,-125.01C326.71,-99.24 324.13,-52.58 322.82,-28.99"/>
</g>
<!-- impact environnemental&#45;&#45;richesse -->
<g id="edge30" class="edge">
<title>impact environnemental&#45;&#45;richesse</title>
<path fill="none" stroke="darkgrey" stroke-width="1.27" d="M324.9,-125.41C319.93,-104.62 312.04,-71.66 309.48,-60.95"/>
</g>
<!-- impact environnemental&#45;&#45;conflit -->
<g id="edge29" class="edge">
<title>impact environnemental&#45;&#45;conflit</title>
<path fill="none" stroke="darkgrey" stroke-width="1.47" d="M317.5,-157.07C291.14,-188.53 228.14,-263.7 214.67,-279.77"/>
</g>
<!-- ressource&#45;&#45;économie -->
<g id="edge31" class="edge">
<title>ressource&#45;&#45;économie</title>
<path fill="none" stroke="darkgrey" stroke-width="1.35" d="M398.75,-33.24C383.06,-29.41 353.81,-22.27 336.31,-17.99"/>
</g>
<!-- épuisable&#45;&#45;impact environnemental -->
<g id="edge21" class="edge">
<title>épuisable&#45;&#45;impact environnemental</title>
<path fill="none" stroke="darkgrey" stroke-width="1.62" d="M215.28,-114.09C238.86,-120.11 286.02,-132.15 311.63,-138.7"/>
</g>
<!-- épuisable&#45;&#45;économie -->
<g id="edge22" class="edge">
<title>épuisable&#45;&#45;économie</title>
<path fill="none" stroke="darkgrey" stroke-width="2.36" d="M212.68,-101.26C235.86,-82.87 287.63,-41.78 310.63,-23.53"/>
</g>
<!-- épuisable&#45;&#45;conflit -->
<g id="edge23" class="edge">
<title>épuisable&#45;&#45;conflit</title>
<path fill="none" stroke="darkgrey" stroke-width="1.71" d="M202.03,-125.16C204.41,-162.44 210.6,-259.19 211.88,-279.18"/>
</g>
<!-- épuisable&#45;&#45;développement -->
<g id="edge24" class="edge">
<title>épuisable&#45;&#45;développement</title>
<path fill="none" stroke="darkgrey" stroke-width="1.09" d="M191.11,-99.89C172.28,-79.94 132.43,-37.74 122.18,-26.88"/>
</g>
<!-- emploi -->
<g id="node1" class="node">
<title>emploi</title>
<ellipse fill="#e45a31" stroke="white" stroke-width="0" cx="448.66" cy="-139.11" rx="21.5" ry="21.5"/>
<text text-anchor="middle" x="413.16" y="-163.21" font-family="Helvetica,sans-Serif" font-size="8.00" fill="#4d4d4d">emploi</text>
</g>
<!-- pollution -->
<g id="node2" class="node">
<title>pollution</title>
<ellipse fill="#fcffa4" stroke="white" stroke-width="0" cx="274.61" cy="-163.29" rx="36" ry="36"/>
<text text-anchor="middle" x="220.11" y="-201.89" font-family="Helvetica,sans-Serif" font-size="8.00" fill="#4d4d4d">pollution</text>
</g>
<!-- exploitation -->
<g id="node3" class="node">
<title>exploitation</title>
<ellipse fill="#0c0826" stroke="white" stroke-width="0" cx="500.05" cy="-28.41" rx="3.5" ry="3.5"/>
<text text-anchor="middle" x="472.05" y="-34.51" font-family="Helvetica,sans-Serif" font-size="8.00" fill="#4d4d4d">exploitation</text>
</g>
<!-- impact environnemental -->
<g id="node4" class="node">
<title>impact environnemental</title>
<ellipse fill="#c63d4d" stroke="white" stroke-width="0" cx="329.15" cy="-143.17" rx="18" ry="18"/>
<text text-anchor="middle" x="361.15" y="-118.77" font-family="Helvetica,sans-Serif" font-size="8.00" fill="#4d4d4d">impact environnemental</text>
</g>
<!-- ressource -->
<g id="node5" class="node">
<title>ressource</title>
<ellipse fill="#59106e" stroke="white" stroke-width="0" cx="409.47" cy="-35.86" rx="11" ry="11"/>
<text text-anchor="middle" x="378.47" y="-49.46" font-family="Helvetica,sans-Serif" font-size="8.00" fill="#4d4d4d">ressource</text>
</g>
<!-- démolition -->
<g id="node6" class="node">
<title>démolition</title>
<ellipse fill="#230c4c" stroke="white" stroke-width="0" cx="359.64" cy="-251.78" rx="7" ry="7"/>
<text text-anchor="middle" x="330.64" y="-261.38" font-family="Helvetica,sans-Serif" font-size="8.00" fill="#4d4d4d">démolition</text>
</g>
<!-- économie -->
<g id="node7" class="node">
<title>économie</title>
<ellipse fill="#8a226a" stroke="white" stroke-width="0" cx="322.01" cy="-14.5" rx="14.5" ry="14.5"/>
<text text-anchor="middle" x="287.01" y="-31.6" font-family="Helvetica,sans-Serif" font-size="8.00" fill="#4d4d4d">économie</text>
</g>
<!-- végétalisation -->
<g id="node8" class="node">
<title>végétalisation</title>
<ellipse fill="#510e6c" stroke="white" stroke-width="0" cx="638.56" cy="-160.37" rx="7" ry="7"/>
<text text-anchor="middle" x="602.06" y="-169.97" font-family="Helvetica,sans-Serif" font-size="8.00" fill="#4d4d4d">végétalisation</text>
</g>
<!-- écologie -->
<g id="node9" class="node">
<title>écologie</title>
<ellipse fill="#030210" stroke="white" stroke-width="0" cx="427.42" cy="-285.69" rx="0.5" ry="0.5"/>
<text text-anchor="middle" x="408.92" y="-288.79" font-family="Helvetica,sans-Serif" font-size="8.00" fill="#4d4d4d">écologie</text>
</g>
<!-- automatisation -->
<g id="node10" class="node">
<title>automatisation</title>
<ellipse fill="#2d0b59" stroke="white" stroke-width="0" cx="470.95" cy="-213.08" rx="7" ry="7"/>
<text text-anchor="middle" x="432.45" y="-222.68" font-family="Helvetica,sans-Serif" font-size="8.00" fill="#4d4d4d">automatisation</text>
</g>
<!-- épuisable -->
<g id="node11" class="node">
<title>épuisable</title>
<ellipse fill="#9f2a63" stroke="white" stroke-width="0" cx="201.09" cy="-110.46" rx="14.5" ry="14.5"/>
<text text-anchor="middle" x="166.09" y="-127.56" font-family="Helvetica,sans-Serif" font-size="8.00" fill="#4d4d4d">épuisable</text>
</g>
<!-- montagne -->
<g id="node12" class="node">
<title>montagne</title>
<ellipse fill="#010106" stroke="white" stroke-width="0" cx="117.03" cy="-237.63" rx="0.5" ry="0.5"/>
<text text-anchor="middle" x="95.03" y="-240.73" font-family="Helvetica,sans-Serif" font-size="8.00" fill="#4d4d4d">montagne</text>
</g>
<!-- argent -->
<g id="node13" class="node">
<title>argent</title>
<ellipse fill="#000004" stroke="white" stroke-width="0" cx="74.58" cy="-96.16" rx="0.5" ry="0.5"/>
<text text-anchor="middle" x="60.08" y="-99.26" font-family="Helvetica,sans-Serif" font-size="8.00" fill="#4d4d4d">argent</text>
</g>
<!-- technologie -->
<g id="node14" class="node">
<title>technologie</title>
<ellipse fill="#0d0829" stroke="white" stroke-width="0" cx="52.5" cy="-178.85" rx="3.5" ry="3.5"/>
<text text-anchor="middle" x="24.5" y="-184.95" font-family="Helvetica,sans-Serif" font-size="8.00" fill="#4d4d4d">technologie</text>
</g>
<!-- richesse -->
<g id="node15" class="node">
<title>richesse</title>
<ellipse fill="#0d0829" stroke="white" stroke-width="0" cx="308.64" cy="-57.46" rx="3.5" ry="3.5"/>
<text text-anchor="middle" x="287.64" y="-63.56" font-family="Helvetica,sans-Serif" font-size="8.00" fill="#4d4d4d">richesse</text>
</g>
<!-- conflit -->
<g id="node16" class="node">
<title>conflit</title>
<ellipse fill="#180c3c" stroke="white" stroke-width="0" cx="212.11" cy="-282.83" rx="3.5" ry="3.5"/>
<text text-anchor="middle" x="195.61" y="-288.93" font-family="Helvetica,sans-Serif" font-size="8.00" fill="#4d4d4d">conflit</text>
</g>
<!-- développement -->
<g id="node17" class="node">
<title>développement</title>
<ellipse fill="#0d0829" stroke="white" stroke-width="0" cx="119.74" cy="-24.29" rx="3.5" ry="3.5"/>
<text text-anchor="middle" x="83.74" y="-30.39" font-family="Helvetica,sans-Serif" font-size="8.00" fill="#4d4d4d">développement</text>
</g>
</g>
</svg>
