<?xml version="1.0" encoding="UTF-8" standalone="no"?>
<!DOCTYPE svg PUBLIC "-//W3C//DTD SVG 1.1//EN"
 "http://www.w3.org/Graphics/SVG/1.1/DTD/svg11.dtd">
<!-- Generated by graphviz version 2.43.0 (0)
 -->
<!-- Pages: 1 -->
<svg width="577pt" height="468pt"
 viewBox="0.00 0.00 576.97 468.38" xmlns="http://www.w3.org/2000/svg" xmlns:xlink="http://www.w3.org/1999/xlink">
<g id="graph0" class="graph" transform="scale(1 1) rotate(0) translate(4 464.38)">
<polygon fill="white" stroke="transparent" points="-4,4 -4,-464.38 572.97,-464.38 572.97,4 -4,4"/>
<!-- pollution&#45;&#45;emploi -->
<g id="edge1" class="edge">
<title>pollution&#45;&#45;emploi</title>
<path fill="none" stroke="darkgrey" stroke-width="10" d="M234.03,-190.85C235.04,-192.99 236.06,-195.17 237.09,-197.35"/>
</g>
<!-- pollution&#45;&#45;richesse -->
<g id="edge2" class="edge">
<title>pollution&#45;&#45;richesse</title>
<path fill="none" stroke="darkgrey" stroke-width="1.38" d="M250.41,-160.09C259.41,-158.71 268.8,-157.26 275.79,-156.18"/>
</g>
<!-- pollution&#45;&#45;démolition -->
<g id="edge3" class="edge">
<title>pollution&#45;&#45;démolition</title>
<path fill="none" stroke="darkgrey" stroke-width="2.53" d="M199.73,-184.07C178.38,-203.13 147.35,-230.82 134.79,-242.02"/>
</g>
<!-- pollution&#45;&#45;argent -->
<g id="edge4" class="edge">
<title>pollution&#45;&#45;argent</title>
<path fill="none" stroke="darkgrey" stroke-width="1.31" d="M243.87,-145.81C264.05,-128.82 292.41,-104.94 304.23,-94.99"/>
</g>
<!-- pollution&#45;&#45;nickel -->
<g id="edge5" class="edge">
<title>pollution&#45;&#45;nickel</title>
<path fill="none" stroke="darkgrey" stroke-width="4.82" d="M250.7,-162.87C281.6,-161.12 330.35,-158.34 362.57,-156.51"/>
</g>
<!-- pollution&#45;&#45;exploitation -->
<g id="edge6" class="edge">
<title>pollution&#45;&#45;exploitation</title>
<path fill="none" stroke="darkgrey" stroke-width="1.21" d="M241.45,-185.9C268.89,-215.51 317.44,-267.91 338.37,-290.48"/>
</g>
<!-- pollution&#45;&#45;camion -->
<g id="edge7" class="edge">
<title>pollution&#45;&#45;camion</title>
<path fill="none" stroke="darkgrey" stroke-width="1.54" d="M226.96,-135.98C231.25,-112.98 237.05,-81.91 240.08,-65.68"/>
</g>
<!-- pollution&#45;&#45;économie -->
<g id="edge8" class="edge">
<title>pollution&#45;&#45;économie</title>
<path fill="none" stroke="darkgrey" stroke-width="4.4" d="M249.81,-172.09C272.47,-178.17 303.61,-186.53 322.88,-191.7"/>
</g>
<!-- pollution&#45;&#45;impact environnemental -->
<g id="edge9" class="edge">
<title>pollution&#45;&#45;impact environnemental</title>
<path fill="none" stroke="darkgrey" stroke-width="3.9" d="M242.7,-184.76C259.19,-200.61 281.62,-222.16 295.6,-235.6"/>
</g>
<!-- pollution&#45;&#45;développement -->
<g id="edge10" class="edge">
<title>pollution&#45;&#45;développement</title>
<path fill="none" stroke="darkgrey" stroke-width="1.09" d="M200.86,-143.85C169.35,-112.48 112.55,-55.94 107.3,-50.71"/>
</g>
<!-- pollution&#45;&#45;déforestation -->
<g id="edge11" class="edge">
<title>pollution&#45;&#45;déforestation</title>
<path fill="none" stroke="darkgrey" stroke-width="1.24" d="M192.47,-162.88C151.41,-160.57 79.63,-156.52 62.33,-155.54"/>
</g>
<!-- emploi&#45;&#45;richesse -->
<g id="edge12" class="edge">
<title>emploi&#45;&#45;richesse</title>
<path fill="none" stroke="darkgrey" stroke-width="2.88" d="M267.47,-197.2C272.8,-185.4 278.43,-172.97 282.23,-164.58"/>
</g>
<!-- emploi&#45;&#45;démolition -->
<g id="edge13" class="edge">
<title>emploi&#45;&#45;démolition</title>
<path fill="none" stroke="darkgrey" stroke-width="1.08" d="M216.87,-235.04C188.7,-238.89 151.67,-243.94 136.33,-246.03"/>
</g>
<!-- emploi&#45;&#45;argent -->
<g id="edge14" class="edge">
<title>emploi&#45;&#45;argent</title>
<path fill="none" stroke="darkgrey" stroke-width="2.37" d="M266.24,-196.69C279.92,-163.24 299.91,-114.37 307.07,-96.88"/>
</g>
<!-- emploi&#45;&#45;nickel -->
<g id="edge15" class="edge">
<title>emploi&#45;&#45;nickel</title>
<path fill="none" stroke="darkgrey" stroke-width="6.23" d="M284.58,-213.23C309.07,-200.27 342.56,-182.55 366.27,-170"/>
</g>
<!-- emploi&#45;&#45;exploitation -->
<g id="edge16" class="edge">
<title>emploi&#45;&#45;exploitation</title>
<path fill="none" stroke="darkgrey" stroke-width="1.04" d="M281.57,-251.72C300.09,-265.46 323.09,-282.53 336.72,-292.65"/>
</g>
<!-- emploi&#45;&#45;économie -->
<g id="edge17" class="edge">
<title>emploi&#45;&#45;économie</title>
<path fill="none" stroke="darkgrey" stroke-width="6.91" d="M286.31,-217.23C299.1,-212.33 313.12,-206.95 323.7,-202.9"/>
</g>
<!-- emploi&#45;&#45;impact environnemental -->
<g id="edge18" class="edge">
<title>emploi&#45;&#45;impact environnemental</title>
<path fill="none" stroke="darkgrey" stroke-width="5.28" d="M287.11,-241.24C288.55,-241.7 289.97,-242.15 291.35,-242.59"/>
</g>
<!-- emploi&#45;&#45;conflit -->
<g id="edge19" class="edge">
<title>emploi&#45;&#45;conflit</title>
<path fill="none" stroke="darkgrey" stroke-width="1.93" d="M237.58,-263.08C225.05,-290.61 208.43,-327.15 203.31,-338.4"/>
</g>
<!-- richesse&#45;&#45;nickel -->
<g id="edge20" class="edge">
<title>richesse&#45;&#45;nickel</title>
<path fill="none" stroke="darkgrey" stroke-width="1.35" d="M298,-154.5C313.05,-154.52 340.44,-154.56 362.33,-154.6"/>
</g>
<!-- richesse&#45;&#45;impact environnemental -->
<g id="edge21" class="edge">
<title>richesse&#45;&#45;impact environnemental</title>
<path fill="none" stroke="darkgrey" d="M289.3,-165.23C293.02,-181.17 300.05,-211.3 304.53,-230.5"/>
</g>
<!-- argent&#45;&#45;nickel -->
<g id="edge22" class="edge">
<title>argent&#45;&#45;nickel</title>
<path fill="none" stroke="darkgrey" stroke-width="1.95" d="M315.35,-94.58C326.05,-102.63 350.01,-120.62 368.92,-134.83"/>
</g>
<!-- nickel&#45;&#45;exploitation -->
<g id="edge23" class="edge">
<title>nickel&#45;&#45;exploitation</title>
<path fill="none" stroke="darkgrey" stroke-width="2.22" d="M385.35,-185.75C375.35,-217.04 360.39,-263.88 352.95,-287.15"/>
</g>
<!-- nickel&#45;&#45;camion -->
<g id="edge25" class="edge">
<title>nickel&#45;&#45;camion</title>
<path fill="none" stroke="darkgrey" stroke-width="2.7" d="M367.9,-136.79C332.97,-114.01 274.34,-75.79 251.56,-60.93"/>
</g>
<!-- nickel&#45;&#45;économie -->
<g id="edge26" class="edge">
<title>nickel&#45;&#45;économie</title>
<path fill="none" stroke="darkgrey" stroke-width="3.11" d="M369.19,-174.56C364.35,-178.26 359.44,-182.01 355.1,-185.32"/>
</g>
<!-- nickel&#45;&#45;impact environnemental -->
<g id="edge27" class="edge">
<title>nickel&#45;&#45;impact environnemental</title>
<path fill="none" stroke="darkgrey" stroke-width="2.09" d="M372.97,-178.72C356.43,-196.57 334.48,-220.24 320.98,-234.82"/>
</g>
<!-- nickel&#45;&#45;montagne -->
<g id="edge24" class="edge">
<title>nickel&#45;&#45;montagne</title>
<path fill="none" stroke="darkgrey" stroke-width="1.37" d="M399.55,-122.24C404.18,-87.1 411.25,-33.44 413.79,-14.19"/>
</g>
<!-- nickel&#45;&#45;roche -->
<g id="edge28" class="edge">
<title>nickel&#45;&#45;roche</title>
<path fill="none" stroke="darkgrey" stroke-width="1.04" d="M427.92,-157C453.94,-158.88 488.37,-161.36 503.08,-162.42"/>
</g>
<!-- nickel&#45;&#45;terre rouge -->
<g id="edge29" class="edge">
<title>nickel&#45;&#45;terre rouge</title>
<path fill="none" stroke="darkgrey" stroke-width="1.25" d="M427.3,-147.58C470.82,-137.98 545.18,-121.57 562.01,-117.85"/>
</g>
<!-- nickel&#45;&#45;usine -->
<g id="edge30" class="edge">
<title>nickel&#45;&#45;usine</title>
<path fill="none" stroke="darkgrey" stroke-width="2.41" d="M421.63,-173.91C454.85,-198.22 509.83,-238.44 527.74,-251.54"/>
</g>
<!-- nickel&#45;&#45;sln -->
<g id="edge31" class="edge">
<title>nickel&#45;&#45;sln</title>
<path fill="none" stroke="darkgrey" stroke-width="3" d="M416.63,-129.9C443.27,-99 487.07,-48.21 501.34,-31.67"/>
</g>
<!-- nickel&#45;&#45;minerai -->
<g id="edge32" class="edge">
<title>nickel&#45;&#45;minerai</title>
<path fill="none" stroke="darkgrey" stroke-width="2.12" d="M408.51,-184.4C422.86,-216.67 444.76,-265.94 452.62,-283.62"/>
</g>
<!-- exploitation&#45;&#45;impact environnemental -->
<g id="edge33" class="edge">
<title>exploitation&#45;&#45;impact environnemental</title>
<path fill="none" stroke="darkgrey" stroke-width="1.23" d="M339.59,-289.52C333.64,-281.56 325.75,-271.01 319.43,-262.55"/>
</g>
<!-- exploitation&#45;&#45;minerai -->
<g id="edge35" class="edge">
<title>exploitation&#45;&#45;minerai</title>
<path fill="none" stroke="darkgrey" stroke-width="1.6" d="M362.87,-299.83C386.17,-297.42 431.2,-292.75 448.52,-290.95"/>
</g>
<!-- exploitation&#45;&#45;ressource -->
<g id="edge34" class="edge">
<title>exploitation&#45;&#45;ressource</title>
<path fill="none" stroke="darkgrey" stroke-width="1.01" d="M353.21,-315.31C363.52,-345.4 387.49,-415.38 395.08,-437.53"/>
</g>
<!-- économie&#45;&#45;impact environnemental -->
<g id="edge36" class="edge">
<title>économie&#45;&#45;impact environnemental</title>
<path fill="none" stroke="darkgrey" stroke-width="5.34" d="M330.96,-211.95C326.93,-218.49 322.24,-226.09 318.2,-232.63"/>
</g>
<!-- usine&#45;&#45;minerai -->
<g id="edge37" class="edge">
<title>usine&#45;&#45;minerai</title>
<path fill="none" stroke="darkgrey" stroke-width="1.21" d="M526.93,-258.75C512.19,-265.25 476.92,-280.8 462.19,-287.29"/>
</g>
<!-- pollution -->
<g id="node1" class="node">
<title>pollution</title>
<ellipse fill="#fb9906" stroke="white" stroke-width="0" cx="221.64" cy="-164.53" rx="29" ry="29"/>
<text text-anchor="middle" x="174.14" y="-196.13" font-family="Helvetica,sans-Serif" font-size="8.00" fill="#4d4d4d">pollution</text>
</g>
<!-- emploi -->
<g id="node2" class="node">
<title>emploi</title>
<ellipse fill="#fcffa4" stroke="white" stroke-width="0" cx="252.54" cy="-230.18" rx="36" ry="36"/>
<text text-anchor="middle" x="202.54" y="-268.78" font-family="Helvetica,sans-Serif" font-size="8.00" fill="#4d4d4d">emploi</text>
</g>
<!-- richesse -->
<g id="node3" class="node">
<title>richesse</title>
<ellipse fill="#59106e" stroke="white" stroke-width="0" cx="286.79" cy="-154.48" rx="11" ry="11"/>
<text text-anchor="middle" x="293.29" y="-168.08" font-family="Helvetica,sans-Serif" font-size="8.00" fill="#4d4d4d">richesse</text>
</g>
<!-- démolition -->
<g id="node4" class="node">
<title>démolition</title>
<ellipse fill="#240c4f" stroke="white" stroke-width="0" cx="129.21" cy="-247" rx="7" ry="7"/>
<text text-anchor="middle" x="100.21" y="-256.6" font-family="Helvetica,sans-Serif" font-size="8.00" fill="#4d4d4d">démolition</text>
</g>
<!-- argent -->
<g id="node5" class="node">
<title>argent</title>
<ellipse fill="#3d0965" stroke="white" stroke-width="0" cx="309.73" cy="-90.36" rx="7" ry="7"/>
<text text-anchor="middle" x="288.73" y="-99.96" font-family="Helvetica,sans-Serif" font-size="8.00" fill="#4d4d4d">argent</text>
</g>
<!-- nickel -->
<g id="node6" class="node">
<title>nickel</title>
<ellipse fill="#f8cd37" stroke="white" stroke-width="0" cx="395.29" cy="-154.65" rx="32.5" ry="32.5"/>
<text text-anchor="middle" x="350.79" y="-124.75" font-family="Helvetica,sans-Serif" font-size="8.00" fill="#4d4d4d">nickel</text>
</g>
<!-- exploitation -->
<g id="node7" class="node">
<title>exploitation</title>
<ellipse fill="#85216b" stroke="white" stroke-width="0" cx="348.42" cy="-301.33" rx="14.5" ry="14.5"/>
<text text-anchor="middle" x="309.42" y="-318.43" font-family="Helvetica,sans-Serif" font-size="8.00" fill="#4d4d4d">exploitation</text>
</g>
<!-- camion -->
<g id="node8" class="node">
<title>camion</title>
<ellipse fill="#540f6d" stroke="white" stroke-width="0" cx="242.11" cy="-54.77" rx="11" ry="11"/>
<text text-anchor="middle" x="215.61" y="-68.37" font-family="Helvetica,sans-Serif" font-size="8.00" fill="#4d4d4d">camion</text>
</g>
<!-- économie -->
<g id="node9" class="node">
<title>économie</title>
<ellipse fill="#b73557" stroke="white" stroke-width="0" cx="340.53" cy="-196.44" rx="18" ry="18"/>
<text text-anchor="middle" x="302.03" y="-181.04" font-family="Helvetica,sans-Serif" font-size="8.00" fill="#4d4d4d">économie</text>
</g>
<!-- impact environnemental -->
<g id="node10" class="node">
<title>impact environnemental</title>
<ellipse fill="#c83f4b" stroke="white" stroke-width="0" cx="308.64" cy="-248.12" rx="18" ry="18"/>
<text text-anchor="middle" x="340.64" y="-268.72" font-family="Helvetica,sans-Serif" font-size="8.00" fill="#4d4d4d">impact environnemental</text>
</g>
<!-- développement -->
<g id="node11" class="node">
<title>développement</title>
<ellipse fill="#000004" stroke="white" stroke-width="0" cx="106.91" cy="-50.32" rx="0.5" ry="0.5"/>
<text text-anchor="middle" x="73.91" y="-53.42" font-family="Helvetica,sans-Serif" font-size="8.00" fill="#4d4d4d">développement</text>
</g>
<!-- déforestation -->
<g id="node12" class="node">
<title>déforestation</title>
<ellipse fill="#09061f" stroke="white" stroke-width="0" cx="58.5" cy="-155.33" rx="3.5" ry="3.5"/>
<text text-anchor="middle" x="27.5" y="-161.43" font-family="Helvetica,sans-Serif" font-size="8.00" fill="#4d4d4d">déforestation</text>
</g>
<!-- conflit -->
<g id="node13" class="node">
<title>conflit</title>
<ellipse fill="#1f0c48" stroke="white" stroke-width="0" cx="201.75" cy="-341.84" rx="3.5" ry="3.5"/>
<text text-anchor="middle" x="185.25" y="-347.94" font-family="Helvetica,sans-Serif" font-size="8.00" fill="#4d4d4d">conflit</text>
</g>
<!-- montagne -->
<g id="node14" class="node">
<title>montagne</title>
<ellipse fill="#260c51" stroke="white" stroke-width="0" cx="414.74" cy="-7" rx="7" ry="7"/>
<text text-anchor="middle" x="386.24" y="-16.6" font-family="Helvetica,sans-Serif" font-size="8.00" fill="#4d4d4d">montagne</text>
</g>
<!-- roche -->
<g id="node15" class="node">
<title>roche</title>
<ellipse fill="#390963" stroke="white" stroke-width="0" cx="510.24" cy="-162.94" rx="7" ry="7"/>
<text text-anchor="middle" x="491.74" y="-172.54" font-family="Helvetica,sans-Serif" font-size="8.00" fill="#4d4d4d">roche</text>
</g>
<!-- terre rouge -->
<g id="node16" class="node">
<title>terre rouge</title>
<ellipse fill="#0b0724" stroke="white" stroke-width="0" cx="565.47" cy="-117.09" rx="3.5" ry="3.5"/>
<text text-anchor="middle" x="539.47" y="-123.19" font-family="Helvetica,sans-Serif" font-size="8.00" fill="#4d4d4d">terre rouge</text>
</g>
<!-- usine -->
<g id="node17" class="node">
<title>usine</title>
<ellipse fill="#3b0964" stroke="white" stroke-width="0" cx="533.58" cy="-255.81" rx="7" ry="7"/>
<text text-anchor="middle" x="515.08" y="-265.41" font-family="Helvetica,sans-Serif" font-size="8.00" fill="#4d4d4d">usine</text>
</g>
<!-- sln -->
<g id="node18" class="node">
<title>sln</title>
<ellipse fill="#260c51" stroke="white" stroke-width="0" cx="505.99" cy="-26.28" rx="7" ry="7"/>
<text text-anchor="middle" x="492.49" y="-35.88" font-family="Helvetica,sans-Serif" font-size="8.00" fill="#4d4d4d">sln</text>
</g>
<!-- minerai -->
<g id="node19" class="node">
<title>minerai</title>
<ellipse fill="#3d0965" stroke="white" stroke-width="0" cx="455.56" cy="-290.22" rx="7" ry="7"/>
<text text-anchor="middle" x="433.06" y="-299.82" font-family="Helvetica,sans-Serif" font-size="8.00" fill="#4d4d4d">minerai</text>
</g>
<!-- ressource -->
<g id="node20" class="node">
<title>ressource</title>
<ellipse fill="#2f0a5b" stroke="white" stroke-width="0" cx="397.43" cy="-444.38" rx="7" ry="7"/>
<text text-anchor="middle" x="370.43" y="-453.98" font-family="Helvetica,sans-Serif" font-size="8.00" fill="#4d4d4d">ressource</text>
</g>
</g>
</svg>
