<?xml version="1.0" encoding="UTF-8" standalone="no"?>
<!DOCTYPE svg PUBLIC "-//W3C//DTD SVG 1.1//EN"
 "http://www.w3.org/Graphics/SVG/1.1/DTD/svg11.dtd">
<!-- Generated by graphviz version 2.43.0 (0)
 -->
<!-- Pages: 1 -->
<svg width="516pt" height="339pt"
 viewBox="0.00 0.00 515.63 338.91" xmlns="http://www.w3.org/2000/svg" xmlns:xlink="http://www.w3.org/1999/xlink">
<g id="graph0" class="graph" transform="scale(1 1) rotate(0) translate(4 334.91)">
<polygon fill="white" stroke="transparent" points="-4,4 -4,-334.91 511.63,-334.91 511.63,4 -4,4"/>
<!-- fin&#45;&#45;emploi -->
<g id="edge1" class="edge">
<title>fin&#45;&#45;emploi</title>
<path fill="none" stroke="darkgrey" stroke-width="1.08" d="M143.93,-216.34C153.19,-198.89 172.71,-162.09 184.01,-140.79"/>
</g>
<!-- fin&#45;&#45;pollution -->
<g id="edge2" class="edge">
<title>fin&#45;&#45;pollution</title>
<path fill="none" stroke="darkgrey" stroke-width="1.9" d="M149.52,-223.17C180.5,-214.83 270.56,-190.6 314.3,-178.83"/>
</g>
<!-- fin&#45;&#45;épuisement de la ressource -->
<g id="edge3" class="edge">
<title>fin&#45;&#45;épuisement de la ressource</title>
<path fill="none" stroke="darkgrey" stroke-width="1.2" d="M149.31,-229.3C166.95,-234.7 202.23,-245.52 219.98,-250.95"/>
</g>
<!-- fin&#45;&#45;impact environnemental -->
<g id="edge4" class="edge">
<title>fin&#45;&#45;impact environnemental</title>
<path fill="none" stroke="darkgrey" stroke-width="2.17" d="M147.9,-219.74C155.33,-214.59 166.26,-207.02 176.68,-199.81"/>
</g>
<!-- emploi&#45;&#45;pollution -->
<g id="edge5" class="edge">
<title>emploi&#45;&#45;pollution</title>
<path fill="none" stroke="darkgrey" stroke-width="4.78" d="M209.92,-130.28C236,-138.78 285.41,-154.89 314.86,-164.49"/>
</g>
<!-- emploi&#45;&#45;impact environnemental -->
<g id="edge6" class="edge">
<title>emploi&#45;&#45;impact environnemental</title>
<path fill="none" stroke="darkgrey" stroke-width="4.73" d="M197.05,-142.19C197.21,-142.81 197.37,-143.44 197.53,-144.08"/>
</g>
<!-- emploi&#45;&#45;économie du pays -->
<g id="edge7" class="edge">
<title>emploi&#45;&#45;économie du pays</title>
<path fill="none" stroke="darkgrey" stroke-width="2.91" d="M205.06,-138.38C225.77,-161.19 266.64,-206.2 283.53,-224.8"/>
</g>
<!-- emploi&#45;&#45;amélioration environnementale -->
<g id="edge8" class="edge">
<title>emploi&#45;&#45;amélioration environnementale</title>
<path fill="none" stroke="darkgrey" stroke-width="3.22" d="M209.33,-131.81C224.7,-138.4 247.37,-148.11 262.73,-154.7"/>
</g>
<!-- pollution&#45;&#45;épuisement de la ressource -->
<g id="edge9" class="edge">
<title>pollution&#45;&#45;épuisement de la ressource</title>
<path fill="none" stroke="darkgrey" stroke-width="3.54" d="M318.64,-187.49C294.96,-205.45 256.66,-234.52 239.49,-247.55"/>
</g>
<!-- pollution&#45;&#45;impact environnemental -->
<g id="edge12" class="edge">
<title>pollution&#45;&#45;impact environnemental</title>
<path fill="none" stroke="darkgrey" stroke-width="10" d="M313.52,-173.58C293.43,-174.63 265.04,-176.11 242.54,-177.29"/>
</g>
<!-- pollution&#45;&#45;économie du pays -->
<g id="edge15" class="edge">
<title>pollution&#45;&#45;économie du pays</title>
<path fill="none" stroke="darkgrey" stroke-width="2.73" d="M323.12,-192.2C314.66,-203.02 304.62,-215.85 298.07,-224.23"/>
</g>
<!-- pollution&#45;&#45;amélioration environnementale -->
<g id="edge16" class="edge">
<title>pollution&#45;&#45;amélioration environnementale</title>
<path fill="none" stroke="darkgrey" stroke-width="1.89" d="M313.9,-167.91C308.32,-166.93 302.5,-165.9 297.27,-164.99"/>
</g>
<!-- pollution&#45;&#45;montagne -->
<g id="edge10" class="edge">
<title>pollution&#45;&#45;montagne</title>
<path fill="none" stroke="darkgrey" stroke-width="1.05" d="M363.57,-169.57C407.21,-164.86 493.78,-155.5 501.8,-154.63"/>
</g>
<!-- pollution&#45;&#45;biodiversité -->
<g id="edge11" class="edge">
<title>pollution&#45;&#45;biodiversité</title>
<path fill="none" stroke="darkgrey" stroke-width="1.55" d="M349.07,-149.48C366.73,-110.67 401.51,-34.23 409.41,-16.85"/>
</g>
<!-- pollution&#45;&#45;conflit -->
<g id="edge13" class="edge">
<title>pollution&#45;&#45;conflit</title>
<path fill="none" stroke="darkgrey" stroke-width="1.14" d="M353.13,-192.87C361.12,-204.28 370.48,-217.65 375.76,-225.2"/>
</g>
<!-- pollution&#45;&#45;développement -->
<g id="edge14" class="edge">
<title>pollution&#45;&#45;développement</title>
<path fill="none" stroke="darkgrey" stroke-width="1.94" d="M321.62,-190.73C293.79,-220.82 239.77,-279.21 219.73,-300.88"/>
</g>
<!-- pollution&#45;&#45;déclin -->
<g id="edge17" class="edge">
<title>pollution&#45;&#45;déclin</title>
<path fill="none" stroke="darkgrey" stroke-width="1.06" d="M359.32,-157.78C399.16,-129.8 484.31,-70 501.19,-58.14"/>
</g>
<!-- pollution&#45;&#45;développement durable -->
<g id="edge18" class="edge">
<title>pollution&#45;&#45;développement durable</title>
<path fill="none" stroke="darkgrey" stroke-width="1.18" d="M344.31,-196.87C351.45,-228.18 363.37,-280.47 367.68,-299.35"/>
</g>
<!-- pollution&#45;&#45;innovation -->
<g id="edge19" class="edge">
<title>pollution&#45;&#45;innovation</title>
<path fill="none" stroke="darkgrey" stroke-width="1.5" d="M331.15,-196.41C321.59,-226.98 305.54,-278.3 298.65,-300.33"/>
</g>
<!-- épuisement de la ressource&#45;&#45;impact environnemental -->
<g id="edge20" class="edge">
<title>épuisement de la ressource&#45;&#45;impact environnemental</title>
<path fill="none" stroke="darkgrey" stroke-width="3.98" d="M227.21,-243.48C224.67,-235.61 221.08,-224.48 217.59,-213.68"/>
</g>
<!-- épuisement de la ressource&#45;&#45;économie du pays -->
<g id="edge23" class="edge">
<title>épuisement de la ressource&#45;&#45;économie du pays</title>
<path fill="none" stroke="darkgrey" stroke-width="1.3" d="M241.2,-250.56C252.3,-246.69 269.66,-240.63 280.7,-236.77"/>
</g>
<!-- épuisement de la ressource&#45;&#45;conflit -->
<g id="edge21" class="edge">
<title>épuisement de la ressource&#45;&#45;conflit</title>
<path fill="none" stroke="darkgrey" stroke-width="1.55" d="M241.9,-252.5C271.05,-248 348.61,-236.02 372.7,-232.3"/>
</g>
<!-- épuisement de la ressource&#45;&#45;développement -->
<g id="edge22" class="edge">
<title>épuisement de la ressource&#45;&#45;développement</title>
<path fill="none" stroke="darkgrey" stroke-width="1.38" d="M227.08,-264.84C223.77,-274.57 218.9,-288.93 215.6,-298.66"/>
</g>
<!-- impact environnemental&#45;&#45;économie du pays -->
<g id="edge27" class="edge">
<title>impact environnemental&#45;&#45;économie du pays</title>
<path fill="none" stroke="darkgrey" stroke-width="3.72" d="M237.02,-198.66C252.74,-208.68 270.82,-220.21 281.58,-227.07"/>
</g>
<!-- impact environnemental&#45;&#45;amélioration environnementale -->
<g id="edge28" class="edge">
<title>impact environnemental&#45;&#45;amélioration environnementale</title>
<path fill="none" stroke="darkgrey" stroke-width="2.54" d="M241.66,-170.82C248.65,-169.16 255.71,-167.48 261.8,-166.03"/>
</g>
<!-- impact environnemental&#45;&#45;conflit -->
<g id="edge24" class="edge">
<title>impact environnemental&#45;&#45;conflit</title>
<path fill="none" stroke="darkgrey" stroke-width="3.63" d="M241.15,-189.57C283.28,-202.2 351.39,-222.62 373.08,-229.12"/>
</g>
<!-- impact environnemental&#45;&#45;développement -->
<g id="edge26" class="edge">
<title>impact environnemental&#45;&#45;développement</title>
<path fill="none" stroke="darkgrey" stroke-width="2.97" d="M208.01,-215.4C209.19,-243.21 210.75,-279.83 211.53,-298"/>
</g>
<!-- impact environnemental&#45;&#45;innovation -->
<g id="edge29" class="edge">
<title>impact environnemental&#45;&#45;innovation</title>
<path fill="none" stroke="darkgrey" stroke-width="1.16" d="M226.63,-209.07C246.71,-238.82 276.32,-282.71 289.1,-301.65"/>
</g>
<!-- impact environnemental&#45;&#45;vision positive de la ressource -->
<g id="edge25" class="edge">
<title>impact environnemental&#45;&#45;vision positive de la ressource</title>
<path fill="none" stroke="darkgrey" stroke-width="1.14" d="M202.76,-143.24C198.5,-101.88 191.86,-37.52 190.18,-21.15"/>
</g>
<!-- impact environnemental&#45;&#45;richesse -->
<g id="edge30" class="edge">
<title>impact environnemental&#45;&#45;richesse</title>
<path fill="none" stroke="darkgrey" stroke-width="1.54" d="M185.17,-150C154.91,-108.54 102.57,-36.83 97.73,-30.2"/>
</g>
<!-- impact environnemental&#45;&#45;automatisation -->
<g id="edge31" class="edge">
<title>impact environnemental&#45;&#45;automatisation</title>
<path fill="none" stroke="darkgrey" stroke-width="1.08" d="M172.58,-166.31C136.98,-152.79 84.23,-132.76 70.09,-127.4"/>
</g>
<!-- amélioration environnementale&#45;&#45;développement durable -->
<g id="edge36" class="edge">
<title>amélioration environnementale&#45;&#45;développement durable</title>
<path fill="none" stroke="darkgrey" stroke-width="1.93" d="M289.03,-177.32C308.6,-208.79 352.28,-279.05 365.45,-300.24"/>
</g>
<!-- amélioration environnementale&#45;&#45;innovation -->
<g id="edge37" class="edge">
<title>amélioration environnementale&#45;&#45;innovation</title>
<path fill="none" stroke="darkgrey" stroke-width="1.12" d="M281.34,-179.83C284.67,-210.96 291.4,-274.01 294.15,-299.66"/>
</g>
<!-- amélioration environnementale&#45;&#45;maintien de l’exploitation -->
<g id="edge35" class="edge">
<title>amélioration environnementale&#45;&#45;maintien de l’exploitation</title>
<path fill="none" stroke="darkgrey" stroke-width="1.18" d="M280.84,-143.69C283.73,-106.97 290.11,-25.82 291.57,-7.31"/>
</g>
<!-- conflit&#45;&#45;économie du pays -->
<g id="edge32" class="edge">
<title>conflit&#45;&#45;économie du pays</title>
<path fill="none" stroke="darkgrey" d="M372.68,-231.34C357.18,-231.68 320.8,-232.49 302.31,-232.89"/>
</g>
<!-- développement&#45;&#45;économie du pays -->
<g id="edge33" class="edge">
<title>développement&#45;&#45;économie du pays</title>
<path fill="none" stroke="darkgrey" stroke-width="1.58" d="M220.17,-301.37C235.33,-286.79 267.65,-255.7 282.86,-241.07"/>
</g>
<!-- développement&#45;&#45;amélioration environnementale -->
<g id="edge34" class="edge">
<title>développement&#45;&#45;amélioration environnementale</title>
<path fill="none" stroke="darkgrey" stroke-width="1.44" d="M216.64,-299.1C228.06,-274.13 257.66,-209.41 271.75,-178.61"/>
</g>
<!-- développement durable&#45;&#45;innovation -->
<g id="edge38" class="edge">
<title>développement durable&#45;&#45;innovation</title>
<path fill="none" stroke="darkgrey" stroke-width="1.04" d="M362.2,-306.84C349.26,-307.63 321.73,-309.3 306.34,-310.24"/>
</g>
<!-- fin -->
<g id="node1" class="node">
<title>fin</title>
<ellipse fill="#71196e" stroke="white" stroke-width="0" cx="138.77" cy="-226.07" rx="11" ry="11"/>
<text text-anchor="middle" x="122.27" y="-239.67" font-family="Helvetica,sans-Serif" font-size="8.00" fill="#4d4d4d">fin</text>
</g>
<!-- emploi -->
<g id="node2" class="node">
<title>emploi</title>
<ellipse fill="#b1325a" stroke="white" stroke-width="0" cx="192.58" cy="-124.63" rx="18" ry="18"/>
<text text-anchor="middle" x="160.58" y="-109.23" font-family="Helvetica,sans-Serif" font-size="8.00" fill="#4d4d4d">emploi</text>
</g>
<!-- pollution -->
<g id="node3" class="node">
<title>pollution</title>
<ellipse fill="#eb6628" stroke="white" stroke-width="0" cx="338.7" cy="-172.26" rx="25" ry="25"/>
<text text-anchor="middle" x="295.2" y="-199.86" font-family="Helvetica,sans-Serif" font-size="8.00" fill="#4d4d4d">pollution</text>
</g>
<!-- épuisement de la ressource -->
<g id="node4" class="node">
<title>épuisement de la ressource</title>
<ellipse fill="#5d126e" stroke="white" stroke-width="0" cx="230.68" cy="-254.23" rx="11" ry="11"/>
<text text-anchor="middle" x="162.68" y="-267.83" font-family="Helvetica,sans-Serif" font-size="8.00" fill="#4d4d4d">épuisement de la ressource</text>
</g>
<!-- impact environnemental -->
<g id="node5" class="node">
<title>impact environnemental</title>
<ellipse fill="#fcffa4" stroke="white" stroke-width="0" cx="206.46" cy="-179.17" rx="36" ry="36"/>
<text text-anchor="middle" x="120.46" y="-145.77" font-family="Helvetica,sans-Serif" font-size="8.00" fill="#4d4d4d">impact environnemental</text>
</g>
<!-- économie du pays -->
<g id="node6" class="node">
<title>économie du pays</title>
<ellipse fill="#59106e" stroke="white" stroke-width="0" cx="291.11" cy="-233.14" rx="11" ry="11"/>
<text text-anchor="middle" x="242.11" y="-224.74" font-family="Helvetica,sans-Serif" font-size="8.00" fill="#4d4d4d">économie du pays</text>
</g>
<!-- amélioration environnementale -->
<g id="node7" class="node">
<title>amélioration environnementale</title>
<ellipse fill="#ae305c" stroke="white" stroke-width="0" cx="279.42" cy="-161.85" rx="18" ry="18"/>
<text text-anchor="middle" x="325.92" y="-137.45" font-family="Helvetica,sans-Serif" font-size="8.00" fill="#4d4d4d">amélioration environnementale</text>
</g>
<!-- montagne -->
<g id="node8" class="node">
<title>montagne</title>
<ellipse fill="#010106" stroke="white" stroke-width="0" cx="502.4" cy="-154.57" rx="0.5" ry="0.5"/>
<text text-anchor="middle" x="480.4" y="-157.67" font-family="Helvetica,sans-Serif" font-size="8.00" fill="#4d4d4d">montagne</text>
</g>
<!-- biodiversité -->
<g id="node9" class="node">
<title>biodiversité</title>
<ellipse fill="#0e092b" stroke="white" stroke-width="0" cx="411.04" cy="-13.28" rx="3.5" ry="3.5"/>
<text text-anchor="middle" x="383.04" y="-19.38" font-family="Helvetica,sans-Serif" font-size="8.00" fill="#4d4d4d">biodiversité</text>
</g>
<!-- conflit -->
<g id="node10" class="node">
<title>conflit</title>
<ellipse fill="#420a68" stroke="white" stroke-width="0" cx="379.95" cy="-231.18" rx="7" ry="7"/>
<text text-anchor="middle" x="359.95" y="-240.78" font-family="Helvetica,sans-Serif" font-size="8.00" fill="#4d4d4d">conflit</text>
</g>
<!-- développement -->
<g id="node11" class="node">
<title>développement</title>
<ellipse fill="#550f6d" stroke="white" stroke-width="0" cx="212.01" cy="-309.23" rx="11" ry="11"/>
<text text-anchor="middle" x="168.51" y="-322.83" font-family="Helvetica,sans-Serif" font-size="8.00" fill="#4d4d4d">développement</text>
</g>
<!-- déclin -->
<g id="node12" class="node">
<title>déclin</title>
<ellipse fill="#0e092b" stroke="white" stroke-width="0" cx="504.13" cy="-56.07" rx="3.5" ry="3.5"/>
<text text-anchor="middle" x="488.13" y="-62.17" font-family="Helvetica,sans-Serif" font-size="8.00" fill="#4d4d4d">déclin</text>
</g>
<!-- développement durable -->
<g id="node13" class="node">
<title>développement durable</title>
<ellipse fill="#490b6a" stroke="white" stroke-width="0" cx="369.29" cy="-306.41" rx="7" ry="7"/>
<text text-anchor="middle" x="312.79" y="-293.01" font-family="Helvetica,sans-Serif" font-size="8.00" fill="#4d4d4d">développement durable</text>
</g>
<!-- innovation -->
<g id="node14" class="node">
<title>innovation</title>
<ellipse fill="#65156e" stroke="white" stroke-width="0" cx="295.35" cy="-310.91" rx="11" ry="11"/>
<text text-anchor="middle" x="262.35" y="-324.51" font-family="Helvetica,sans-Serif" font-size="8.00" fill="#4d4d4d">innovation</text>
</g>
<!-- vision positive de la ressource -->
<g id="node15" class="node">
<title>vision positive de la ressource</title>
<ellipse fill="#1b0c41" stroke="white" stroke-width="0" cx="189.78" cy="-17.27" rx="3.5" ry="3.5"/>
<text text-anchor="middle" x="124.28" y="-23.37" font-family="Helvetica,sans-Serif" font-size="8.00" fill="#4d4d4d">vision positive de la ressource</text>
</g>
<!-- richesse -->
<g id="node16" class="node">
<title>richesse</title>
<ellipse fill="#000004" stroke="white" stroke-width="0" cx="97.37" cy="-29.7" rx="0.5" ry="0.5"/>
<text text-anchor="middle" x="79.37" y="-32.8" font-family="Helvetica,sans-Serif" font-size="8.00" fill="#4d4d4d">richesse</text>
</g>
<!-- automatisation -->
<g id="node17" class="node">
<title>automatisation</title>
<ellipse fill="#0c0826" stroke="white" stroke-width="0" cx="66.5" cy="-126.03" rx="3.5" ry="3.5"/>
<text text-anchor="middle" x="31.5" y="-132.13" font-family="Helvetica,sans-Serif" font-size="8.00" fill="#4d4d4d">automatisation</text>
</g>
<!-- maintien de l’exploitation -->
<g id="node18" class="node">
<title>maintien de l’exploitation</title>
<ellipse fill="#040314" stroke="white" stroke-width="0" cx="291.87" cy="-3.5" rx="3.5" ry="3.5"/>
<text text-anchor="middle" x="236.37" y="-2.6" font-family="Helvetica,sans-Serif" font-size="8.00" fill="#4d4d4d">maintien de l’exploitation</text>
</g>
</g>
</svg>
