<?xml version="1.0" encoding="UTF-8" standalone="no"?>
<!DOCTYPE svg PUBLIC "-//W3C//DTD SVG 1.1//EN"
 "http://www.w3.org/Graphics/SVG/1.1/DTD/svg11.dtd">
<!-- Generated by graphviz version 2.43.0 (0)
 -->
<!-- Pages: 1 -->
<svg width="555pt" height="447pt"
 viewBox="0.00 0.00 555.20 447.09" xmlns="http://www.w3.org/2000/svg" xmlns:xlink="http://www.w3.org/1999/xlink">
<g id="graph0" class="graph" transform="scale(1 1) rotate(0) translate(4 443.09)">
<polygon fill="white" stroke="transparent" points="-4,4 -4,-443.09 551.2,-443.09 551.2,4 -4,4"/>
<!-- fin&#45;&#45;emploi -->
<g id="edge1" class="edge">
<title>fin&#45;&#45;emploi</title>
<path fill="none" stroke="darkgrey" stroke-width="1.03" d="M346.83,-134.37C324.86,-148.03 279.03,-176.51 254.99,-191.45"/>
</g>
<!-- fin&#45;&#45;pollution -->
<g id="edge2" class="edge">
<title>fin&#45;&#45;pollution</title>
<path fill="none" stroke="darkgrey" stroke-width="1.62" d="M367.1,-139.09C370.64,-144.66 374.92,-151.38 378.96,-157.71"/>
</g>
<!-- fin&#45;&#45;épuisement de la ressource -->
<g id="edge3" class="edge">
<title>fin&#45;&#45;épuisement de la ressource</title>
<path fill="none" stroke="darkgrey" stroke-width="1.58" d="M355.69,-112.42C353.79,-104.68 351.48,-95.27 349.73,-88.15"/>
</g>
<!-- fin&#45;&#45;impact environnemental -->
<g id="edge4" class="edge">
<title>fin&#45;&#45;impact environnemental</title>
<path fill="none" stroke="darkgrey" stroke-width="2.03" d="M344.55,-129.53C330.97,-132.17 310.22,-136.2 292.33,-139.67"/>
</g>
<!-- emploi&#45;&#45;pollution -->
<g id="edge5" class="edge">
<title>emploi&#45;&#45;pollution</title>
<path fill="none" stroke="darkgrey" stroke-width="4.59" d="M257.36,-198.5C284.64,-194.58 336.79,-187.07 367.73,-182.61"/>
</g>
<!-- emploi&#45;&#45;impact environnemental -->
<g id="edge6" class="edge">
<title>emploi&#45;&#45;impact environnemental</title>
<path fill="none" stroke="darkgrey" stroke-width="4.24" d="M245.04,-183.82C245.32,-182.94 245.6,-182.05 245.89,-181.15"/>
</g>
<!-- emploi&#45;&#45;conflit -->
<g id="edge7" class="edge">
<title>emploi&#45;&#45;conflit</title>
<path fill="none" stroke="darkgrey" stroke-width="1.06" d="M245.5,-183.96C254.03,-159.62 269.39,-115.76 276.43,-95.65"/>
</g>
<!-- emploi&#45;&#45;économie du pays -->
<g id="edge8" class="edge">
<title>emploi&#45;&#45;économie du pays</title>
<path fill="none" stroke="darkgrey" stroke-width="3.01" d="M253.56,-189.56C267.51,-178.12 288.46,-160.95 300.19,-151.33"/>
</g>
<!-- emploi&#45;&#45;amélioration environnementale -->
<g id="edge9" class="edge">
<title>emploi&#45;&#45;amélioration environnementale</title>
<path fill="none" stroke="darkgrey" stroke-width="2.96" d="M251.31,-215.08C265.49,-231.93 289.16,-260.02 303.31,-276.82"/>
</g>
<!-- emploi&#45;&#45;famille -->
<g id="edge10" class="edge">
<title>emploi&#45;&#45;famille</title>
<path fill="none" stroke="darkgrey" d="M221.39,-200.75C187.82,-200.14 118.58,-198.9 110.05,-198.74"/>
</g>
<!-- emploi&#45;&#45;formation -->
<g id="edge11" class="edge">
<title>emploi&#45;&#45;formation</title>
<path fill="none" stroke="darkgrey" stroke-width="1.27" d="M225.73,-213.49C196.41,-239.9 129.99,-299.72 123.82,-305.27"/>
</g>
<!-- emploi&#45;&#45;automatisation -->
<g id="edge12" class="edge">
<title>emploi&#45;&#45;automatisation</title>
<path fill="none" stroke="darkgrey" stroke-width="1.08" d="M227.48,-214.62C217.09,-226.32 202.88,-242.32 197.16,-248.77"/>
</g>
<!-- pollution&#45;&#45;épuisement de la ressource -->
<g id="edge13" class="edge">
<title>pollution&#45;&#45;épuisement de la ressource</title>
<path fill="none" stroke="darkgrey" stroke-width="3.73" d="M382.23,-155.97C372.64,-134.52 358.8,-103.57 351.68,-87.66"/>
</g>
<!-- pollution&#45;&#45;impact environnemental -->
<g id="edge16" class="edge">
<title>pollution&#45;&#45;impact environnemental</title>
<path fill="none" stroke="darkgrey" stroke-width="10" d="M368,-173.15C346.78,-168.07 315.88,-160.66 292.06,-154.95"/>
</g>
<!-- pollution&#45;&#45;conflit -->
<g id="edge17" class="edge">
<title>pollution&#45;&#45;conflit</title>
<path fill="none" stroke="darkgrey" stroke-width="1.18" d="M373.22,-162.88C348.49,-142.2 306.71,-107.26 288.76,-92.25"/>
</g>
<!-- pollution&#45;&#45;économie du pays -->
<g id="edge19" class="edge">
<title>pollution&#45;&#45;économie du pays</title>
<path fill="none" stroke="darkgrey" stroke-width="2.67" d="M369.26,-169.32C352.84,-162.47 331.63,-153.62 319.24,-148.44"/>
</g>
<!-- pollution&#45;&#45;amélioration environnementale -->
<g id="edge20" class="edge">
<title>pollution&#45;&#45;amélioration environnementale</title>
<path fill="none" stroke="darkgrey" stroke-width="1.91" d="M378.15,-199.79C362.82,-221.87 338.95,-256.26 325.38,-275.81"/>
</g>
<!-- pollution&#45;&#45;montagne -->
<g id="edge14" class="edge">
<title>pollution&#45;&#45;montagne</title>
<path fill="none" stroke="darkgrey" stroke-width="1.39" d="M407.81,-158.76C427.16,-133.05 459.04,-90.69 467.63,-79.29"/>
</g>
<!-- pollution&#45;&#45;biodiversité -->
<g id="edge15" class="edge">
<title>pollution&#45;&#45;biodiversité</title>
<path fill="none" stroke="darkgrey" stroke-width="1.63" d="M411.42,-195.66C434.62,-216.1 472.24,-249.23 482.9,-258.62"/>
</g>
<!-- pollution&#45;&#45;développement -->
<g id="edge18" class="edge">
<title>pollution&#45;&#45;développement</title>
<path fill="none" stroke="darkgrey" stroke-width="1.54" d="M370.57,-191.56C363.99,-195.31 357.11,-199.23 351.76,-202.27"/>
</g>
<!-- pollution&#45;&#45;revenu -->
<g id="edge21" class="edge">
<title>pollution&#45;&#45;revenu</title>
<path fill="none" stroke="darkgrey" stroke-width="1.06" d="M417.17,-183.76C454.64,-190.94 523.41,-204.12 540.02,-207.3"/>
</g>
<!-- pollution&#45;&#45;déclin -->
<g id="edge22" class="edge">
<title>pollution&#45;&#45;déclin</title>
<path fill="none" stroke="darkgrey" stroke-width="1.35" d="M416.02,-169.82C451.36,-155.95 515.74,-130.68 531.28,-124.57"/>
</g>
<!-- pollution&#45;&#45;développement durable -->
<g id="edge23" class="edge">
<title>pollution&#45;&#45;développement durable</title>
<path fill="none" stroke="darkgrey" stroke-width="1.48" d="M391.36,-204.02C390.28,-226.88 388.73,-259.65 387.92,-276.69"/>
</g>
<!-- pollution&#45;&#45;innovation -->
<g id="edge24" class="edge">
<title>pollution&#45;&#45;innovation</title>
<path fill="none" stroke="darkgrey" stroke-width="1.4" d="M371.69,-193.01C350.04,-207.5 317.15,-229.53 301.21,-240.2"/>
</g>
<!-- épuisement de la ressource&#45;&#45;impact environnemental -->
<g id="edge25" class="edge">
<title>épuisement de la ressource&#45;&#45;impact environnemental</title>
<path fill="none" stroke="darkgrey" stroke-width="4.14" d="M338.11,-84.24C326,-93.54 303.86,-110.54 285.77,-124.43"/>
</g>
<!-- épuisement de la ressource&#45;&#45;conflit -->
<g id="edge26" class="edge">
<title>épuisement de la ressource&#45;&#45;conflit</title>
<path fill="none" stroke="darkgrey" stroke-width="1.87" d="M336.03,-78.63C323.7,-80.04 303.86,-82.32 291.44,-83.75"/>
</g>
<!-- épuisement de la ressource&#45;&#45;économie du pays -->
<g id="edge28" class="edge">
<title>épuisement de la ressource&#45;&#45;économie du pays</title>
<path fill="none" stroke="darkgrey" stroke-width="1.61" d="M341.62,-86.93C334.45,-99.48 321.94,-121.41 314.65,-134.16"/>
</g>
<!-- épuisement de la ressource&#45;&#45;développement -->
<g id="edge27" class="edge">
<title>épuisement de la ressource&#45;&#45;développement</title>
<path fill="none" stroke="darkgrey" stroke-width="1.37" d="M346.66,-88.48C345.72,-113.11 343.47,-172.07 342.53,-196.68"/>
</g>
<!-- impact environnemental&#45;&#45;conflit -->
<g id="edge29" class="edge">
<title>impact environnemental&#45;&#45;conflit</title>
<path fill="none" stroke="darkgrey" stroke-width="3.41" d="M269.78,-112.56C272.13,-106.33 274.4,-100.29 276.22,-95.46"/>
</g>
<!-- impact environnemental&#45;&#45;économie du pays -->
<g id="edge32" class="edge">
<title>impact environnemental&#45;&#45;économie du pays</title>
<path fill="none" stroke="darkgrey" stroke-width="3.62" d="M293.08,-144.88C294.74,-144.8 296.34,-144.73 297.84,-144.66"/>
</g>
<!-- impact environnemental&#45;&#45;amélioration environnementale -->
<g id="edge33" class="edge">
<title>impact environnemental&#45;&#45;amélioration environnementale</title>
<path fill="none" stroke="darkgrey" stroke-width="2.78" d="M270.44,-179.98C282.3,-209.43 299.07,-251.1 308.3,-274.02"/>
</g>
<!-- impact environnemental&#45;&#45;automatisation -->
<g id="edge36" class="edge">
<title>impact environnemental&#45;&#45;automatisation</title>
<path fill="none" stroke="darkgrey" stroke-width="1.42" d="M238.61,-177.5C223.23,-203.41 202.83,-237.8 196.54,-248.39"/>
</g>
<!-- impact environnemental&#45;&#45;développement -->
<g id="edge31" class="edge">
<title>impact environnemental&#45;&#45;développement</title>
<path fill="none" stroke="darkgrey" stroke-width="2.25" d="M286.28,-167.61C302.63,-179.37 321.89,-193.22 332.98,-201.2"/>
</g>
<!-- impact environnemental&#45;&#45;innovation -->
<g id="edge34" class="edge">
<title>impact environnemental&#45;&#45;innovation</title>
<path fill="none" stroke="darkgrey" stroke-width="1.01" d="M268.9,-180.64C275.61,-199.86 283.55,-222.57 288.12,-235.66"/>
</g>
<!-- impact environnemental&#45;&#45;vision positive de la ressource -->
<g id="edge30" class="edge">
<title>impact environnemental&#45;&#45;vision positive de la ressource</title>
<path fill="none" stroke="darkgrey" stroke-width="1.21" d="M226.16,-127.24C196.15,-108.45 152.82,-81.33 137.04,-71.45"/>
</g>
<!-- impact environnemental&#45;&#45;richesse -->
<g id="edge35" class="edge">
<title>impact environnemental&#45;&#45;richesse</title>
<path fill="none" stroke="darkgrey" stroke-width="1.82" d="M244.83,-112.64C231.68,-75.96 211.91,-20.82 206.9,-6.82"/>
</g>
<!-- conflit&#45;&#45;économie du pays -->
<g id="edge37" class="edge">
<title>conflit&#45;&#45;économie du pays</title>
<path fill="none" stroke="darkgrey" stroke-width="1.23" d="M285.03,-95.08C290.3,-105.88 298.63,-122.98 303.95,-133.88"/>
</g>
<!-- amélioration environnementale&#45;&#45;développement durable -->
<g id="edge43" class="edge">
<title>amélioration environnementale&#45;&#45;développement durable</title>
<path fill="none" stroke="darkgrey" stroke-width="1.54" d="M333.28,-290.03C346.85,-289.5 364.91,-288.81 376.35,-288.36"/>
</g>
<!-- amélioration environnementale&#45;&#45;innovation -->
<g id="edge44" class="edge">
<title>amélioration environnementale&#45;&#45;innovation</title>
<path fill="none" stroke="darkgrey" stroke-width="1.39" d="M306.67,-274.74C303.46,-268.6 299.9,-261.77 297.07,-256.35"/>
</g>
<!-- amélioration environnementale&#45;&#45;maintien de l’exploitation -->
<g id="edge42" class="edge">
<title>amélioration environnementale&#45;&#45;maintien de l’exploitation</title>
<path fill="none" stroke="darkgrey" stroke-width="1.27" d="M314.9,-308.77C314.68,-341.11 314.23,-407.06 314.12,-423.04"/>
</g>
<!-- développement&#45;&#45;économie du pays -->
<g id="edge38" class="edge">
<title>développement&#45;&#45;économie du pays</title>
<path fill="none" stroke="darkgrey" stroke-width="1.73" d="M336.93,-197.83C330.74,-185.95 320.43,-166.18 314.21,-154.23"/>
</g>
<!-- développement&#45;&#45;amélioration environnementale -->
<g id="edge39" class="edge">
<title>développement&#45;&#45;amélioration environnementale</title>
<path fill="none" stroke="darkgrey" stroke-width="1.42" d="M338.68,-218.28C334.15,-232.14 326.13,-256.73 320.69,-273.38"/>
</g>
<!-- développement&#45;&#45;développement durable -->
<g id="edge40" class="edge">
<title>développement&#45;&#45;développement durable</title>
<path fill="none" stroke="darkgrey" stroke-width="1.26" d="M347.66,-217.6C356.35,-232.99 373.07,-262.59 381.79,-278.03"/>
</g>
<!-- développement&#45;&#45;innovation -->
<g id="edge41" class="edge">
<title>développement&#45;&#45;innovation</title>
<path fill="none" stroke="darkgrey" stroke-width="1.11" d="M333.36,-214.5C324.26,-221.52 310.07,-232.44 300.88,-239.52"/>
</g>
<!-- développement durable&#45;&#45;innovation -->
<g id="edge45" class="edge">
<title>développement durable&#45;&#45;innovation</title>
<path fill="none" stroke="darkgrey" stroke-width="1.08" d="M377.17,-283.5C358.79,-275.51 320.36,-258.81 302.04,-250.85"/>
</g>
<!-- innovation&#45;&#45;automatisation -->
<g id="edge46" class="edge">
<title>innovation&#45;&#45;automatisation</title>
<path fill="none" stroke="darkgrey" stroke-width="1.09" d="M280.73,-247.04C258.98,-248.2 211.83,-250.71 198.31,-251.43"/>
</g>
<!-- fin -->
<g id="node1" class="node">
<title>fin</title>
<ellipse fill="#84206b" stroke="white" stroke-width="0" cx="359.19" cy="-126.69" rx="14.5" ry="14.5"/>
<text text-anchor="middle" x="339.19" y="-143.79" font-family="Helvetica,sans-Serif" font-size="8.00" fill="#4d4d4d">fin</text>
</g>
<!-- emploi -->
<g id="node2" class="node">
<title>emploi</title>
<ellipse fill="#c03a51" stroke="white" stroke-width="0" cx="239.51" cy="-201.07" rx="18" ry="18"/>
<text text-anchor="middle" x="207.51" y="-221.67" font-family="Helvetica,sans-Serif" font-size="8.00" fill="#4d4d4d">emploi</text>
</g>
<!-- pollution -->
<g id="node3" class="node">
<title>pollution</title>
<ellipse fill="#f2741c" stroke="white" stroke-width="0" cx="392.55" cy="-179.04" rx="25" ry="25"/>
<text text-anchor="middle" x="349.05" y="-156.64" font-family="Helvetica,sans-Serif" font-size="8.00" fill="#4d4d4d">pollution</text>
</g>
<!-- épuisement de la ressource -->
<g id="node4" class="node">
<title>épuisement de la ressource</title>
<ellipse fill="#741a6e" stroke="white" stroke-width="0" cx="347.08" cy="-77.36" rx="11" ry="11"/>
<text text-anchor="middle" x="279.08" y="-59.96" font-family="Helvetica,sans-Serif" font-size="8.00" fill="#4d4d4d">épuisement de la ressource</text>
</g>
<!-- impact environnemental -->
<g id="node5" class="node">
<title>impact environnemental</title>
<ellipse fill="#fcffa4" stroke="white" stroke-width="0" cx="256.98" cy="-146.53" rx="36" ry="36"/>
<text text-anchor="middle" x="170.98" y="-185.13" font-family="Helvetica,sans-Serif" font-size="8.00" fill="#4d4d4d">impact environnemental</text>
</g>
<!-- conflit -->
<g id="node6" class="node">
<title>conflit</title>
<ellipse fill="#59106e" stroke="white" stroke-width="0" cx="280.14" cy="-85.05" rx="11" ry="11"/>
<text text-anchor="middle" x="256.14" y="-98.65" font-family="Helvetica,sans-Serif" font-size="8.00" fill="#4d4d4d">conflit</text>
</g>
<!-- économie du pays -->
<g id="node7" class="node">
<title>économie du pays</title>
<ellipse fill="#6f196e" stroke="white" stroke-width="0" cx="308.95" cy="-144.15" rx="11" ry="11"/>
<text text-anchor="middle" x="335.95" y="-126.75" font-family="Helvetica,sans-Serif" font-size="8.00" fill="#4d4d4d">économie du pays</text>
</g>
<!-- amélioration environnementale -->
<g id="node8" class="node">
<title>amélioration environnementale</title>
<ellipse fill="#ba3655" stroke="white" stroke-width="0" cx="315.02" cy="-290.73" rx="18" ry="18"/>
<text text-anchor="middle" x="232.52" y="-311.33" font-family="Helvetica,sans-Serif" font-size="8.00" fill="#4d4d4d">amélioration environnementale</text>
</g>
<!-- famille -->
<g id="node9" class="node">
<title>famille</title>
<ellipse fill="#02020e" stroke="white" stroke-width="0" cx="109.18" cy="-198.73" rx="0.5" ry="0.5"/>
<text text-anchor="middle" x="94.68" y="-201.83" font-family="Helvetica,sans-Serif" font-size="8.00" fill="#4d4d4d">famille</text>
</g>
<!-- formation -->
<g id="node10" class="node">
<title>formation</title>
<ellipse fill="#000004" stroke="white" stroke-width="0" cx="123.36" cy="-305.68" rx="0.5" ry="0.5"/>
<text text-anchor="middle" x="102.86" y="-308.78" font-family="Helvetica,sans-Serif" font-size="8.00" fill="#4d4d4d">formation</text>
</g>
<!-- automatisation -->
<g id="node11" class="node">
<title>automatisation</title>
<ellipse fill="#230c4c" stroke="white" stroke-width="0" cx="194.62" cy="-251.62" rx="3.5" ry="3.5"/>
<text text-anchor="middle" x="159.62" y="-257.72" font-family="Helvetica,sans-Serif" font-size="8.00" fill="#4d4d4d">automatisation</text>
</g>
<!-- montagne -->
<g id="node12" class="node">
<title>montagne</title>
<ellipse fill="#0d0829" stroke="white" stroke-width="0" cx="469.81" cy="-76.39" rx="3.5" ry="3.5"/>
<text text-anchor="middle" x="444.81" y="-82.49" font-family="Helvetica,sans-Serif" font-size="8.00" fill="#4d4d4d">montagne</text>
</g>
<!-- biodiversité -->
<g id="node13" class="node">
<title>biodiversité</title>
<ellipse fill="#1f0c48" stroke="white" stroke-width="0" cx="485.79" cy="-261.17" rx="3.5" ry="3.5"/>
<text text-anchor="middle" x="457.79" y="-267.27" font-family="Helvetica,sans-Serif" font-size="8.00" fill="#4d4d4d">biodiversité</text>
</g>
<!-- développement -->
<g id="node14" class="node">
<title>développement</title>
<ellipse fill="#6a176e" stroke="white" stroke-width="0" cx="342.11" cy="-207.77" rx="11" ry="11"/>
<text text-anchor="middle" x="298.61" y="-221.37" font-family="Helvetica,sans-Serif" font-size="8.00" fill="#4d4d4d">développement</text>
</g>
<!-- revenu -->
<g id="node15" class="node">
<title>revenu</title>
<ellipse fill="#08051d" stroke="white" stroke-width="0" cx="543.7" cy="-208.01" rx="3.5" ry="3.5"/>
<text text-anchor="middle" x="526.2" y="-214.11" font-family="Helvetica,sans-Serif" font-size="8.00" fill="#4d4d4d">revenu</text>
</g>
<!-- déclin -->
<g id="node16" class="node">
<title>déclin</title>
<ellipse fill="#230c4c" stroke="white" stroke-width="0" cx="534.72" cy="-123.22" rx="3.5" ry="3.5"/>
<text text-anchor="middle" x="518.72" y="-129.32" font-family="Helvetica,sans-Serif" font-size="8.00" fill="#4d4d4d">déclin</text>
</g>
<!-- développement durable -->
<g id="node17" class="node">
<title>développement durable</title>
<ellipse fill="#5a116e" stroke="white" stroke-width="0" cx="387.39" cy="-287.94" rx="11" ry="11"/>
<text text-anchor="middle" x="425.89" y="-301.54" font-family="Helvetica,sans-Serif" font-size="8.00" fill="#4d4d4d">développement durable</text>
</g>
<!-- innovation -->
<g id="node18" class="node">
<title>innovation</title>
<ellipse fill="#751b6e" stroke="white" stroke-width="0" cx="291.89" cy="-246.44" rx="11" ry="11"/>
<text text-anchor="middle" x="258.89" y="-260.04" font-family="Helvetica,sans-Serif" font-size="8.00" fill="#4d4d4d">innovation</text>
</g>
<!-- vision positive de la ressource -->
<g id="node19" class="node">
<title>vision positive de la ressource</title>
<ellipse fill="#340a5f" stroke="white" stroke-width="0" cx="131" cy="-67.67" rx="7" ry="7"/>
<text text-anchor="middle" x="62" y="-77.27" font-family="Helvetica,sans-Serif" font-size="8.00" fill="#4d4d4d">vision positive de la ressource</text>
</g>
<!-- richesse -->
<g id="node20" class="node">
<title>richesse</title>
<ellipse fill="#0a0722" stroke="white" stroke-width="0" cx="205.7" cy="-3.5" rx="3.5" ry="3.5"/>
<text text-anchor="middle" x="184.7" y="-9.6" font-family="Helvetica,sans-Serif" font-size="8.00" fill="#4d4d4d">richesse</text>
</g>
<!-- maintien de l’exploitation -->
<g id="node21" class="node">
<title>maintien de l’exploitation</title>
<ellipse fill="#150b37" stroke="white" stroke-width="0" cx="314.1" cy="-426.59" rx="3.5" ry="3.5"/>
<text text-anchor="middle" x="258.6" y="-432.69" font-family="Helvetica,sans-Serif" font-size="8.00" fill="#4d4d4d">maintien de l’exploitation</text>
</g>
</g>
</svg>
