<?xml version="1.0" encoding="UTF-8" standalone="no"?>
<!DOCTYPE svg PUBLIC "-//W3C//DTD SVG 1.1//EN"
 "http://www.w3.org/Graphics/SVG/1.1/DTD/svg11.dtd">
<!-- Generated by graphviz version 2.43.0 (0)
 -->
<!-- Pages: 1 -->
<svg width="574pt" height="521pt"
 viewBox="0.00 0.00 574.40 521.45" xmlns="http://www.w3.org/2000/svg" xmlns:xlink="http://www.w3.org/1999/xlink">
<g id="graph0" class="graph" transform="scale(1 1) rotate(0) translate(4 517.45)">
<polygon fill="white" stroke="transparent" points="-4,4 -4,-517.45 570.4,-517.45 570.4,4 -4,4"/>
<!-- pollution&#45;&#45;dégradation environnementale -->
<g id="edge1" class="edge">
<title>pollution&#45;&#45;dégradation environnementale</title>
<path fill="none" stroke="darkgrey" stroke-width="10" d="M349.42,-308.81C343.58,-313.12 336.65,-318.23 329.99,-323.14"/>
</g>
<!-- pollution&#45;&#45;nouvelle&#45;calédonie -->
<g id="edge2" class="edge">
<title>pollution&#45;&#45;nouvelle&#45;calédonie</title>
<path fill="none" stroke="darkgrey" d="M367.16,-280.2C373.62,-243.64 388.04,-162.12 391.33,-143.52"/>
</g>
<!-- pollution&#45;&#45;travail -->
<g id="edge3" class="edge">
<title>pollution&#45;&#45;travail</title>
<path fill="none" stroke="darkgrey" stroke-width="6.57" d="M361.69,-316.21C359.56,-332.95 356.4,-357.81 354.15,-375.53"/>
</g>
<!-- pollution&#45;&#45;économie -->
<g id="edge4" class="edge">
<title>pollution&#45;&#45;économie</title>
<path fill="none" stroke="darkgrey" stroke-width="5.3" d="M350.15,-310.31C328.35,-329.6 286.3,-366.79 264.66,-385.94"/>
</g>
<!-- pollution&#45;&#45;nickel -->
<g id="edge5" class="edge">
<title>pollution&#45;&#45;nickel</title>
<path fill="none" stroke="darkgrey" stroke-width="4.66" d="M346.8,-291.26C329.58,-284.46 302.62,-273.8 281.13,-265.3"/>
</g>
<!-- pollution&#45;&#45;ressource minière -->
<g id="edge6" class="edge">
<title>pollution&#45;&#45;ressource minière</title>
<path fill="none" stroke="darkgrey" stroke-width="1.56" d="M347.32,-290.49C309.94,-273.53 220.33,-232.87 189.98,-219.1"/>
</g>
<!-- pollution&#45;&#45;politique -->
<g id="edge7" class="edge">
<title>pollution&#45;&#45;politique</title>
<path fill="none" stroke="darkgrey" stroke-width="2.63" d="M355.22,-282.26C349.62,-272.17 342.44,-259.25 337.16,-249.75"/>
</g>
<!-- pollution&#45;&#45;secteur nickel -->
<g id="edge8" class="edge">
<title>pollution&#45;&#45;secteur nickel</title>
<path fill="none" stroke="darkgrey" stroke-width="2.38" d="M346.08,-295.73C304.94,-290.36 204.05,-277.2 162.96,-271.84"/>
</g>
<!-- pollution&#45;&#45;nature -->
<g id="edge9" class="edge">
<title>pollution&#45;&#45;nature</title>
<path fill="none" stroke="darkgrey" stroke-width="3.36" d="M346.1,-300.84C294.57,-308.86 146.51,-331.88 99.32,-339.22"/>
</g>
<!-- pollution&#45;&#45;exploitation minière -->
<g id="edge10" class="edge">
<title>pollution&#45;&#45;exploitation minière</title>
<path fill="none" stroke="darkgrey" stroke-width="1.67" d="M347.8,-306.42C302.37,-329.88 174.65,-395.82 138.21,-414.63"/>
</g>
<!-- pollution&#45;&#45;alternative au développement -->
<g id="edge11" class="edge">
<title>pollution&#45;&#45;alternative au développement</title>
<path fill="none" stroke="darkgrey" stroke-width="1.47" d="M381.31,-292.08C418.97,-279.08 506.46,-248.87 525.15,-242.42"/>
</g>
<!-- pollution&#45;&#45;matériel -->
<g id="edge12" class="edge">
<title>pollution&#45;&#45;matériel</title>
<path fill="none" stroke="darkgrey" stroke-width="2.45" d="M356.01,-314.42C337.77,-351.76 293.38,-442.67 276.73,-476.75"/>
</g>
<!-- pollution&#45;&#45;industrie -->
<g id="edge13" class="edge">
<title>pollution&#45;&#45;industrie</title>
<path fill="none" stroke="darkgrey" stroke-width="2.2" d="M346.07,-301.37C310.91,-307.85 233.26,-322.16 198.26,-328.61"/>
</g>
<!-- dégradation environnementale&#45;&#45;nouvelle&#45;calédonie -->
<g id="edge14" class="edge">
<title>dégradation environnementale&#45;&#45;nouvelle&#45;calédonie</title>
<path fill="none" stroke="darkgrey" stroke-width="1.14" d="M316.81,-312.55C338.86,-261.87 381.99,-162.72 390.52,-143.1"/>
</g>
<!-- dégradation environnementale&#45;&#45;travail -->
<g id="edge15" class="edge">
<title>dégradation environnementale&#45;&#45;travail</title>
<path fill="none" stroke="darkgrey" stroke-width="7.68" d="M325.38,-367.19C329.41,-371.81 333.54,-376.53 337.28,-380.81"/>
</g>
<!-- dégradation environnementale&#45;&#45;économie -->
<g id="edge16" class="edge">
<title>dégradation environnementale&#45;&#45;économie</title>
<path fill="none" stroke="darkgrey" stroke-width="7.69" d="M281.12,-366.34C275.09,-372.68 268.79,-379.31 263.53,-384.85"/>
</g>
<!-- dégradation environnementale&#45;&#45;nickel -->
<g id="edge17" class="edge">
<title>dégradation environnementale&#45;&#45;nickel</title>
<path fill="none" stroke="darkgrey" stroke-width="9.17" d="M286.59,-314.83C280.24,-304.65 273.02,-293.05 266.53,-282.62"/>
</g>
<!-- dégradation environnementale&#45;&#45;ressource minière -->
<g id="edge18" class="edge">
<title>dégradation environnementale&#45;&#45;ressource minière</title>
<path fill="none" stroke="darkgrey" stroke-width="3.88" d="M281.04,-318.99C252.78,-289.83 206.04,-241.6 187.58,-222.55"/>
</g>
<!-- dégradation environnementale&#45;&#45;politique -->
<g id="edge19" class="edge">
<title>dégradation environnementale&#45;&#45;politique</title>
<path fill="none" stroke="darkgrey" stroke-width="3.91" d="M311.63,-310.73C316.56,-290.77 322.67,-266 326.43,-250.77"/>
</g>
<!-- dégradation environnementale&#45;&#45;secteur nickel -->
<g id="edge20" class="edge">
<title>dégradation environnementale&#45;&#45;secteur nickel</title>
<path fill="none" stroke="darkgrey" stroke-width="3.7" d="M273.94,-328.75C240.72,-313.48 188.23,-289.34 161.67,-277.13"/>
</g>
<!-- dégradation environnementale&#45;&#45;nature -->
<g id="edge21" class="edge">
<title>dégradation environnementale&#45;&#45;nature</title>
<path fill="none" stroke="darkgrey" stroke-width="5.25" d="M270.99,-342.32C222.64,-342.11 134.2,-341.71 99.35,-341.56"/>
</g>
<!-- dégradation environnementale&#45;&#45;exploitation minière -->
<g id="edge23" class="edge">
<title>dégradation environnementale&#45;&#45;exploitation minière</title>
<path fill="none" stroke="darkgrey" stroke-width="3.53" d="M274.04,-355.57C233.96,-373.22 164.67,-403.73 138.65,-415.18"/>
</g>
<!-- dégradation environnementale&#45;&#45;alternative au développement -->
<g id="edge24" class="edge">
<title>dégradation environnementale&#45;&#45;alternative au développement</title>
<path fill="none" stroke="darkgrey" stroke-width="1.79" d="M333.66,-329.02C389.1,-304.05 504.24,-252.21 525.34,-242.7"/>
</g>
<!-- dégradation environnementale&#45;&#45;matériel -->
<g id="edge25" class="edge">
<title>dégradation environnementale&#45;&#45;matériel</title>
<path fill="none" stroke="darkgrey" stroke-width="4.19" d="M296.52,-374.47C289.4,-405.82 278.87,-452.17 273.58,-475.46"/>
</g>
<!-- dégradation environnementale&#45;&#45;industrie -->
<g id="edge27" class="edge">
<title>dégradation environnementale&#45;&#45;industrie</title>
<path fill="none" stroke="darkgrey" stroke-width="3.03" d="M271.41,-339.69C248.15,-337.69 217.67,-335.07 198.59,-333.43"/>
</g>
<!-- dégradation environnementale&#45;&#45;société néo&#45;calédonienne -->
<g id="edge22" class="edge">
<title>dégradation environnementale&#45;&#45;société néo&#45;calédonienne</title>
<path fill="none" stroke="darkgrey" stroke-width="1.53" d="M333.51,-355.79C395.72,-383.67 535.86,-446.46 559.48,-457.05"/>
</g>
<!-- dégradation environnementale&#45;&#45;foncier -->
<g id="edge26" class="edge">
<title>dégradation environnementale&#45;&#45;foncier</title>
<path fill="none" stroke="darkgrey" stroke-width="1.9" d="M275.02,-326.75C210.92,-291.75 60.14,-209.41 35.83,-196.13"/>
</g>
<!-- dégradation environnementale&#45;&#45;risque -->
<g id="edge28" class="edge">
<title>dégradation environnementale&#45;&#45;risque</title>
<path fill="none" stroke="darkgrey" stroke-width="1.41" d="M327.86,-364.97C371.1,-405.4 458.21,-486.84 466.29,-494.39"/>
</g>
<!-- dégradation environnementale&#45;&#45;échange commercial -->
<g id="edge29" class="edge">
<title>dégradation environnementale&#45;&#45;échange commercial</title>
<path fill="none" stroke="darkgrey" stroke-width="1.71" d="M280.71,-365.85C245.74,-401.28 181.44,-466.42 163.13,-484.98"/>
</g>
<!-- nouvelle&#45;calédonie&#45;&#45;travail -->
<g id="edge30" class="edge">
<title>nouvelle&#45;calédonie&#45;&#45;travail</title>
<path fill="none" stroke="darkgrey" stroke-width="1.22" d="M391.44,-143.32C387.45,-168.61 363.75,-318.87 354.82,-375.46"/>
</g>
<!-- nouvelle&#45;calédonie&#45;&#45;nickel -->
<g id="edge31" class="edge">
<title>nouvelle&#45;calédonie&#45;&#45;nickel</title>
<path fill="none" stroke="darkgrey" stroke-width="2.5" d="M388.99,-142.03C374.72,-153.12 313.18,-200.94 276.11,-229.74"/>
</g>
<!-- nouvelle&#45;calédonie&#45;&#45;politique -->
<g id="edge32" class="edge">
<title>nouvelle&#45;calédonie&#45;&#45;politique</title>
<path fill="none" stroke="darkgrey" stroke-width="1.71" d="M389.94,-142.91C381.86,-155.54 352.13,-201.97 337.77,-224.4"/>
</g>
<!-- nouvelle&#45;calédonie&#45;&#45;secteur nickel -->
<g id="edge33" class="edge">
<title>nouvelle&#45;calédonie&#45;&#45;secteur nickel</title>
<path fill="none" stroke="darkgrey" stroke-width="1.26" d="M388.89,-141.33C365.05,-153.86 211.41,-234.65 161.06,-261.13"/>
</g>
<!-- nouvelle&#45;calédonie&#45;&#45;industrie -->
<g id="edge34" class="edge">
<title>nouvelle&#45;calédonie&#45;&#45;industrie</title>
<path fill="none" stroke="darkgrey" stroke-width="1.11" d="M389.34,-142.12C368.87,-160.71 236.71,-280.82 193.89,-319.73"/>
</g>
<!-- travail&#45;&#45;économie -->
<g id="edge35" class="edge">
<title>travail&#45;&#45;économie</title>
<path fill="none" stroke="darkgrey" stroke-width="7.68" d="M329.64,-397.22C311.54,-397.4 286.08,-397.64 269.09,-397.81"/>
</g>
<!-- travail&#45;&#45;nickel -->
<g id="edge36" class="edge">
<title>travail&#45;&#45;nickel</title>
<path fill="none" stroke="darkgrey" stroke-width="8.08" d="M338.88,-379.52C321.44,-355.18 289.62,-310.8 268.51,-281.35"/>
</g>
<!-- travail&#45;&#45;ressource minière -->
<g id="edge37" class="edge">
<title>travail&#45;&#45;ressource minière</title>
<path fill="none" stroke="darkgrey" stroke-width="3.03" d="M336.48,-381.13C301.24,-343.65 213.88,-250.76 187.44,-222.65"/>
</g>
<!-- travail&#45;&#45;politique -->
<g id="edge38" class="edge">
<title>travail&#45;&#45;politique</title>
<path fill="none" stroke="darkgrey" stroke-width="3.83" d="M348.52,-375.39C344.07,-342.22 335.67,-279.67 331.87,-251.32"/>
</g>
<!-- travail&#45;&#45;secteur nickel -->
<g id="edge39" class="edge">
<title>travail&#45;&#45;secteur nickel</title>
<path fill="none" stroke="darkgrey" stroke-width="4.82" d="M333.11,-385.69C292.97,-360.89 197.84,-302.11 160.52,-279.04"/>
</g>
<!-- travail&#45;&#45;nature -->
<g id="edge40" class="edge">
<title>travail&#45;&#45;nature</title>
<path fill="none" stroke="darkgrey" stroke-width="2.96" d="M330.04,-392.56C277.5,-381.62 143.12,-353.66 98.97,-344.47"/>
</g>
<!-- travail&#45;&#45;exploitation minière -->
<g id="edge42" class="edge">
<title>travail&#45;&#45;exploitation minière</title>
<path fill="none" stroke="darkgrey" stroke-width="2.77" d="M329.63,-399.23C282.93,-403.98 174.63,-415 139.56,-418.57"/>
</g>
<!-- travail&#45;&#45;matériel -->
<g id="edge43" class="edge">
<title>travail&#45;&#45;matériel</title>
<path fill="none" stroke="darkgrey" stroke-width="3.41" d="M336.91,-413.63C320.41,-432.53 293.94,-462.85 279.84,-479"/>
</g>
<!-- travail&#45;&#45;industrie -->
<g id="edge44" class="edge">
<title>travail&#45;&#45;industrie</title>
<path fill="none" stroke="darkgrey" stroke-width="3.52" d="M331.15,-389.28C297.19,-376.34 229.45,-350.52 197.7,-338.42"/>
</g>
<!-- travail&#45;&#45;société néo&#45;calédonienne -->
<g id="edge41" class="edge">
<title>travail&#45;&#45;société néo&#45;calédonienne</title>
<path fill="none" stroke="darkgrey" stroke-width="1.41" d="M372.08,-403.02C420.31,-417.06 537.84,-451.28 559.45,-457.57"/>
</g>
<!-- travail&#45;&#45;risque -->
<g id="edge45" class="edge">
<title>travail&#45;&#45;risque</title>
<path fill="none" stroke="darkgrey" stroke-width="1.47" d="M367.96,-411.04C398.4,-436.86 460.69,-489.69 466.46,-494.59"/>
</g>
<!-- travail&#45;&#45;échange commercial -->
<g id="edge46" class="edge">
<title>travail&#45;&#45;échange commercial</title>
<path fill="none" stroke="darkgrey" stroke-width="1.51" d="M331.82,-406.44C289.4,-426.86 190.78,-474.32 164.61,-486.92"/>
</g>
<!-- économie&#45;&#45;nickel -->
<g id="edge47" class="edge">
<title>économie&#45;&#45;nickel</title>
<path fill="none" stroke="darkgrey" stroke-width="6" d="M250.6,-379.79C250.04,-356.94 249.06,-317.19 248.35,-288.08"/>
</g>
<!-- économie&#45;&#45;ressource minière -->
<g id="edge48" class="edge">
<title>économie&#45;&#45;ressource minière</title>
<path fill="none" stroke="darkgrey" stroke-width="1.87" d="M244.46,-381.05C229.98,-343.78 195.7,-255.55 183.85,-225.05"/>
</g>
<!-- économie&#45;&#45;politique -->
<g id="edge49" class="edge">
<title>économie&#45;&#45;politique</title>
<path fill="none" stroke="darkgrey" stroke-width="4.37" d="M259.04,-381.63C274.7,-349.6 309.15,-279.15 323.47,-249.86"/>
</g>
<!-- économie&#45;&#45;secteur nickel -->
<g id="edge50" class="edge">
<title>économie&#45;&#45;secteur nickel</title>
<path fill="none" stroke="darkgrey" stroke-width="3.03" d="M239.3,-383.75C218.83,-358.92 176.86,-308.02 156.57,-283.43"/>
</g>
<!-- économie&#45;&#45;nature -->
<g id="edge51" class="edge">
<title>économie&#45;&#45;nature</title>
<path fill="none" stroke="darkgrey" stroke-width="2.26" d="M233.87,-392.15C200.83,-380.93 129,-356.54 98.66,-346.24"/>
</g>
<!-- économie&#45;&#45;exploitation minière -->
<g id="edge52" class="edge">
<title>économie&#45;&#45;exploitation minière</title>
<path fill="none" stroke="darkgrey" stroke-width="1.42" d="M233.21,-401.14C207.43,-405.71 160.52,-414.01 139.32,-417.77"/>
</g>
<!-- économie&#45;&#45;alternative au développement -->
<g id="edge53" class="edge">
<title>économie&#45;&#45;alternative au développement</title>
<path fill="none" stroke="darkgrey" stroke-width="1.01" d="M266.77,-389.11C321.14,-358.4 499.33,-257.77 525.48,-243.01"/>
</g>
<!-- économie&#45;&#45;matériel -->
<g id="edge54" class="edge">
<title>économie&#45;&#45;matériel</title>
<path fill="none" stroke="darkgrey" stroke-width="1.78" d="M254.75,-415.72C258.4,-433.15 263.9,-459.43 267.28,-475.59"/>
</g>
<!-- économie&#45;&#45;industrie -->
<g id="edge55" class="edge">
<title>économie&#45;&#45;industrie</title>
<path fill="none" stroke="darkgrey" stroke-width="2.18" d="M237.78,-385.55C225.17,-373.73 206.32,-356.06 193.73,-344.25"/>
</g>
<!-- économie&#45;&#45;échange commercial -->
<g id="edge56" class="edge">
<title>économie&#45;&#45;échange commercial</title>
<path fill="none" stroke="darkgrey" stroke-width="1.2" d="M238.13,-410.78C217.38,-431.33 177.54,-470.81 163.33,-484.89"/>
</g>
<!-- nickel&#45;&#45;ressource minière -->
<g id="edge57" class="edge">
<title>nickel&#45;&#45;ressource minière</title>
<path fill="none" stroke="darkgrey" stroke-width="5.19" d="M215.58,-234.32C206.11,-229.07 196.44,-223.71 189.53,-219.88"/>
</g>
<!-- nickel&#45;&#45;politique -->
<g id="edge58" class="edge">
<title>nickel&#45;&#45;politique</title>
<path fill="none" stroke="darkgrey" stroke-width="2.29" d="M282.9,-245.41C294.43,-243.27 306.56,-241.02 315.62,-239.34"/>
</g>
<!-- nickel&#45;&#45;secteur nickel -->
<g id="edge59" class="edge">
<title>nickel&#45;&#45;secteur nickel</title>
<path fill="none" stroke="darkgrey" stroke-width="6.04" d="M211.95,-258.07C195.43,-260.9 176.51,-264.14 163.02,-266.45"/>
</g>
<!-- nickel&#45;&#45;nature -->
<g id="edge60" class="edge">
<title>nickel&#45;&#45;nature</title>
<path fill="none" stroke="darkgrey" stroke-width="5.44" d="M215.69,-269.46C179.79,-289.2 123.06,-320.39 97.69,-334.34"/>
</g>
<!-- nickel&#45;&#45;exploitation minière -->
<g id="edge61" class="edge">
<title>nickel&#45;&#45;exploitation minière</title>
<path fill="none" stroke="darkgrey" stroke-width="7.28" d="M226.45,-281.59C198.94,-320.33 152.2,-386.16 135,-410.39"/>
</g>
<!-- nickel&#45;&#45;alternative au développement -->
<g id="edge62" class="edge">
<title>nickel&#45;&#45;alternative au développement</title>
<path fill="none" stroke="darkgrey" stroke-width="1.2" d="M283.65,-250.6C353.08,-247.94 500.32,-242.28 525.12,-241.33"/>
</g>
<!-- nickel&#45;&#45;matériel -->
<g id="edge63" class="edge">
<title>nickel&#45;&#45;matériel</title>
<path fill="none" stroke="darkgrey" stroke-width="5.25" d="M250.9,-287.88C256.01,-341.11 265.37,-438.67 268.89,-475.42"/>
</g>
<!-- nickel&#45;&#45;industrie -->
<g id="edge65" class="edge">
<title>nickel&#45;&#45;industrie</title>
<path fill="none" stroke="darkgrey" stroke-width="7.95" d="M224.05,-279.93C213.35,-292.71 201.12,-307.29 192.36,-317.75"/>
</g>
<!-- nickel&#45;&#45;foncier -->
<g id="edge64" class="edge">
<title>nickel&#45;&#45;foncier</title>
<path fill="none" stroke="darkgrey" stroke-width="1.74" d="M212.45,-242.6C157.72,-227.91 56.08,-200.64 36,-195.25"/>
</g>
<!-- nickel&#45;&#45;échange commercial -->
<g id="edge66" class="edge">
<title>nickel&#45;&#45;échange commercial</title>
<path fill="none" stroke="darkgrey" stroke-width="2.26" d="M234.76,-285.85C213.37,-342.84 171.46,-454.53 160.7,-483.2"/>
</g>
<!-- ressource minière&#45;&#45;politique -->
<g id="edge67" class="edge">
<title>ressource minière&#45;&#45;politique</title>
<path fill="none" stroke="darkgrey" stroke-width="2.71" d="M191.02,-216.13C217.9,-220.1 285.65,-230.14 315.46,-234.55"/>
</g>
<!-- ressource minière&#45;&#45;secteur nickel -->
<g id="edge68" class="edge">
<title>ressource minière&#45;&#45;secteur nickel</title>
<path fill="none" stroke="darkgrey" stroke-width="1.54" d="M173.7,-224.04C168.51,-232.3 160.92,-244.37 154.86,-254"/>
</g>
<!-- ressource minière&#45;&#45;nature -->
<g id="edge69" class="edge">
<title>ressource minière&#45;&#45;nature</title>
<path fill="none" stroke="darkgrey" stroke-width="1.5" d="M172.9,-223.59C156.04,-246.12 112.48,-304.33 93.61,-329.55"/>
</g>
<!-- ressource minière&#45;&#45;exploitation minière -->
<g id="edge70" class="edge">
<title>ressource minière&#45;&#45;exploitation minière</title>
<path fill="none" stroke="darkgrey" stroke-width="2.14" d="M177.05,-225.2C168.21,-260.5 140.14,-372.7 131.17,-408.57"/>
</g>
<!-- ressource minière&#45;&#45;matériel -->
<g id="edge71" class="edge">
<title>ressource minière&#45;&#45;matériel</title>
<path fill="none" stroke="darkgrey" stroke-width="1.55" d="M183.17,-224.92C197.16,-267.48 249.79,-427.61 265.7,-476.01"/>
</g>
<!-- ressource minière&#45;&#45;industrie -->
<g id="edge72" class="edge">
<title>ressource minière&#45;&#45;industrie</title>
<path fill="none" stroke="darkgrey" stroke-width="2.13" d="M179.81,-225.71C179.95,-246.03 180.24,-289 180.4,-313.59"/>
</g>
<!-- ressource minière&#45;&#45;échange commercial -->
<g id="edge73" class="edge">
<title>ressource minière&#45;&#45;échange commercial</title>
<path fill="none" stroke="darkgrey" stroke-width="1.13" d="M178.86,-225.6C175.26,-271.52 161.64,-445.39 158.7,-482.88"/>
</g>
<!-- politique&#45;&#45;secteur nickel -->
<g id="edge74" class="edge">
<title>politique&#45;&#45;secteur nickel</title>
<path fill="none" stroke="darkgrey" stroke-width="2.81" d="M315.41,-239.26C281.96,-245.2 199.52,-259.85 163.01,-266.34"/>
</g>
<!-- politique&#45;&#45;nature -->
<g id="edge75" class="edge">
<title>politique&#45;&#45;nature</title>
<path fill="none" stroke="darkgrey" stroke-width="1.03" d="M316.37,-242.47C273.5,-260.8 140.99,-317.43 98.17,-335.73"/>
</g>
<!-- politique&#45;&#45;exploitation minière -->
<g id="edge77" class="edge">
<title>politique&#45;&#45;exploitation minière</title>
<path fill="none" stroke="darkgrey" stroke-width="1.41" d="M319.07,-246.53C283.26,-279.05 169.17,-382.66 136.94,-411.93"/>
</g>
<!-- politique&#45;&#45;alternative au développement -->
<g id="edge78" class="edge">
<title>politique&#45;&#45;alternative au développement</title>
<path fill="none" stroke="darkgrey" stroke-width="1.08" d="M344.52,-237.02C385.95,-237.96 502.57,-240.6 524.96,-241.11"/>
</g>
<!-- politique&#45;&#45;industrie -->
<g id="edge80" class="edge">
<title>politique&#45;&#45;industrie</title>
<path fill="none" stroke="darkgrey" stroke-width="2.37" d="M317.43,-244.64C290.22,-261.98 225.63,-303.14 195.94,-322.05"/>
</g>
<!-- politique&#45;&#45;société néo&#45;calédonienne -->
<g id="edge76" class="edge">
<title>politique&#45;&#45;société néo&#45;calédonienne</title>
<path fill="none" stroke="darkgrey" stroke-width="1.08" d="M340.52,-246.8C382.72,-286.99 537.38,-434.27 560.1,-455.92"/>
</g>
<!-- politique&#45;&#45;échange commercial -->
<g id="edge81" class="edge">
<title>politique&#45;&#45;échange commercial</title>
<path fill="none" stroke="darkgrey" stroke-width="1.17" d="M321.62,-248.91C290.93,-294.18 184.33,-451.4 162.19,-484.06"/>
</g>
<!-- politique&#45;&#45;relation politique -->
<g id="edge79" class="edge">
<title>politique&#45;&#45;relation politique</title>
<path fill="none" stroke="darkgrey" stroke-width="1.41" d="M334.01,-222.62C348.36,-173.36 395.63,-11.09 398.58,-0.99"/>
</g>
<!-- secteur nickel&#45;&#45;nature -->
<g id="edge82" class="edge">
<title>secteur nickel&#45;&#45;nature</title>
<path fill="none" stroke="darkgrey" stroke-width="1.53" d="M133.45,-283.39C122.07,-296.96 104.94,-317.36 94.3,-330.03"/>
</g>
<!-- secteur nickel&#45;&#45;exploitation minière -->
<g id="edge83" class="edge">
<title>secteur nickel&#45;&#45;exploitation minière</title>
<path fill="none" stroke="darkgrey" stroke-width="1.77" d="M143.08,-287.63C139.58,-319.15 132.45,-383.16 129.6,-408.76"/>
</g>
<!-- secteur nickel&#45;&#45;matériel -->
<g id="edge84" class="edge">
<title>secteur nickel&#45;&#45;matériel</title>
<path fill="none" stroke="darkgrey" stroke-width="2.12" d="M154.1,-285.37C177.82,-327.13 241.65,-439.53 263.12,-477.34"/>
</g>
<!-- secteur nickel&#45;&#45;industrie -->
<g id="edge86" class="edge">
<title>secteur nickel&#45;&#45;industrie</title>
<path fill="none" stroke="darkgrey" stroke-width="4.96" d="M154.04,-285.25C159.37,-294.63 166.12,-306.51 171.47,-315.93"/>
</g>
<!-- secteur nickel&#45;&#45;foncier -->
<g id="edge85" class="edge">
<title>secteur nickel&#45;&#45;foncier</title>
<path fill="none" stroke="darkgrey" stroke-width="1.5" d="M129.92,-259.37C103.02,-241.41 48.61,-205.07 35.43,-196.27"/>
</g>
<!-- secteur nickel&#45;&#45;échange commercial -->
<g id="edge87" class="edge">
<title>secteur nickel&#45;&#45;échange commercial</title>
<path fill="none" stroke="darkgrey" stroke-width="1.67" d="M146.17,-287.56C148.87,-333.23 155.89,-451.95 157.7,-482.68"/>
</g>
<!-- nature&#45;&#45;exploitation minière -->
<g id="edge88" class="edge">
<title>nature&#45;&#45;exploitation minière</title>
<path fill="none" stroke="darkgrey" stroke-width="1.14" d="M91.89,-354.41C100.62,-370.03 115.12,-395.96 122.95,-409.99"/>
</g>
<!-- nature&#45;&#45;matériel -->
<g id="edge89" class="edge">
<title>nature&#45;&#45;matériel</title>
<path fill="none" stroke="darkgrey" stroke-width="2.88" d="M96.01,-350.56C129.06,-377 225.16,-453.86 258.63,-480.63"/>
</g>
<!-- nature&#45;&#45;industrie -->
<g id="edge91" class="edge">
<title>nature&#45;&#45;industrie</title>
<path fill="none" stroke="darkgrey" stroke-width="2.17" d="M99.23,-340.03C116.2,-338.33 144.25,-335.52 162.56,-333.68"/>
</g>
<!-- nature&#45;&#45;foncier -->
<g id="edge90" class="edge">
<title>nature&#45;&#45;foncier</title>
<path fill="none" stroke="darkgrey" stroke-width="1.1" d="M79.77,-327.65C68.3,-295.3 40.24,-216.15 33.82,-198.04"/>
</g>
<!-- exploitation minière&#45;&#45;matériel -->
<g id="edge93" class="edge">
<title>exploitation minière&#45;&#45;matériel</title>
<path fill="none" stroke="darkgrey" stroke-width="2.36" d="M138.59,-424.76C163.75,-437.21 228.77,-469.4 256.94,-483.35"/>
</g>
<!-- exploitation minière&#45;&#45;industrie -->
<g id="edge94" class="edge">
<title>exploitation minière&#45;&#45;industrie</title>
<path fill="none" stroke="darkgrey" stroke-width="2.61" d="M134.16,-409.97C143.13,-394.87 160.46,-365.68 171.21,-347.57"/>
</g>
<!-- exploitation minière&#45;&#45;échange commercial -->
<g id="edge95" class="edge">
<title>exploitation minière&#45;&#45;échange commercial</title>
<path fill="none" stroke="darkgrey" stroke-width="1.47" d="M132.77,-430.08C138.98,-444.75 150.14,-471.14 155.34,-483.42"/>
</g>
<!-- matériel&#45;&#45;industrie -->
<g id="edge96" class="edge">
<title>matériel&#45;&#45;industrie</title>
<path fill="none" stroke="darkgrey" stroke-width="3.82" d="M263.09,-477.28C246.87,-448.71 207.45,-379.3 189.59,-347.84"/>
</g>
<!-- matériel&#45;&#45;échange commercial -->
<g id="edge97" class="edge">
<title>matériel&#45;&#45;échange commercial</title>
<path fill="none" stroke="darkgrey" stroke-width="1.35" d="M255.62,-489.96C231.28,-489.98 183.41,-490.01 165.3,-490.03"/>
</g>
<!-- industrie&#45;&#45;échange commercial -->
<g id="edge99" class="edge">
<title>industrie&#45;&#45;échange commercial</title>
<path fill="none" stroke="darkgrey" stroke-width="1.26" d="M178,-349.71C173.08,-384.45 162.42,-459.81 159.12,-483.06"/>
</g>
<!-- société néo&#45;calédonienne&#45;&#45;matériel -->
<g id="edge92" class="edge">
<title>société néo&#45;calédonienne&#45;&#45;matériel</title>
<path fill="none" stroke="darkgrey" stroke-width="1.14" d="M559.2,-458.97C530.22,-462.08 339.39,-482.54 284.83,-488.39"/>
</g>
<!-- foncier&#45;&#45;industrie -->
<g id="edge98" class="edge">
<title>foncier&#45;&#45;industrie</title>
<path fill="none" stroke="darkgrey" stroke-width="1.75" d="M35.07,-196.7C50.73,-211.26 133.8,-288.45 166.9,-319.21"/>
</g>
<!-- pollution -->
<g id="node1" class="node">
<title>pollution</title>
<ellipse fill="#a52c60" stroke="white" stroke-width="0" cx="364" cy="-298.06" rx="18" ry="18"/>
<text text-anchor="middle" x="327.5" y="-282.66" font-family="Helvetica,sans-Serif" font-size="8.00" fill="#4d4d4d">pollution</text>
</g>
<!-- dégradation environnementale -->
<g id="node2" class="node">
<title>dégradation environnementale</title>
<ellipse fill="#f1ec6d" stroke="white" stroke-width="0" cx="303.79" cy="-342.47" rx="32.5" ry="32.5"/>
<text text-anchor="middle" x="207.79" y="-303.57" font-family="Helvetica,sans-Serif" font-size="8.00" fill="#4d4d4d">dégradation environnementale</text>
</g>
<!-- nouvelle&#45;calédonie -->
<g id="node3" class="node">
<title>nouvelle&#45;calédonie</title>
<ellipse fill="#10092d" stroke="white" stroke-width="0" cx="392.01" cy="-139.69" rx="3.5" ry="3.5"/>
<text text-anchor="middle" x="349.01" y="-145.79" font-family="Helvetica,sans-Serif" font-size="8.00" fill="#4d4d4d">nouvelle&#45;calédonie</text>
</g>
<!-- travail -->
<g id="node4" class="node">
<title>travail</title>
<ellipse fill="#e8602d" stroke="white" stroke-width="0" cx="351.42" cy="-397.01" rx="21.5" ry="21.5"/>
<text text-anchor="middle" x="316.92" y="-421.11" font-family="Helvetica,sans-Serif" font-size="8.00" fill="#4d4d4d">travail</text>
</g>
<!-- économie -->
<g id="node5" class="node">
<title>économie</title>
<ellipse fill="#b1325a" stroke="white" stroke-width="0" cx="251.05" cy="-397.99" rx="18" ry="18"/>
<text text-anchor="middle" x="212.55" y="-418.59" font-family="Helvetica,sans-Serif" font-size="8.00" fill="#4d4d4d">économie</text>
</g>
<!-- nickel -->
<g id="node6" class="node">
<title>nickel</title>
<ellipse fill="#fcffa4" stroke="white" stroke-width="0" cx="247.46" cy="-251.99" rx="36" ry="36"/>
<text text-anchor="middle" x="199.46" y="-290.59" font-family="Helvetica,sans-Serif" font-size="8.00" fill="#4d4d4d">nickel</text>
</g>
<!-- ressource minière -->
<g id="node7" class="node">
<title>ressource minière</title>
<ellipse fill="#5d126e" stroke="white" stroke-width="0" cx="179.73" cy="-214.45" rx="11" ry="11"/>
<text text-anchor="middle" x="132.23" y="-228.05" font-family="Helvetica,sans-Serif" font-size="8.00" fill="#4d4d4d">ressource minière</text>
</g>
<!-- politique -->
<g id="node8" class="node">
<title>politique</title>
<ellipse fill="#932667" stroke="white" stroke-width="0" cx="329.91" cy="-236.69" rx="14.5" ry="14.5"/>
<text text-anchor="middle" x="333.91" y="-253.79" font-family="Helvetica,sans-Serif" font-size="8.00" fill="#4d4d4d">politique</text>
</g>
<!-- secteur nickel -->
<g id="node9" class="node">
<title>secteur nickel</title>
<ellipse fill="#ad305d" stroke="white" stroke-width="0" cx="145.1" cy="-269.52" rx="18" ry="18"/>
<text text-anchor="middle" x="98.6" y="-290.12" font-family="Helvetica,sans-Serif" font-size="8.00" fill="#4d4d4d">secteur nickel</text>
</g>
<!-- nature -->
<g id="node10" class="node">
<title>nature</title>
<ellipse fill="#7d1e6d" stroke="white" stroke-width="0" cx="84.68" cy="-341.49" rx="14.5" ry="14.5"/>
<text text-anchor="middle" x="56.68" y="-358.59" font-family="Helvetica,sans-Serif" font-size="8.00" fill="#4d4d4d">nature</text>
</g>
<!-- exploitation minière -->
<g id="node11" class="node">
<title>exploitation minière</title>
<ellipse fill="#71196e" stroke="white" stroke-width="0" cx="128.38" cy="-419.7" rx="11" ry="11"/>
<text text-anchor="middle" x="76.88" y="-433.3" font-family="Helvetica,sans-Serif" font-size="8.00" fill="#4d4d4d">exploitation minière</text>
</g>
<!-- alternative au développement -->
<g id="node12" class="node">
<title>alternative au développement</title>
<ellipse fill="#08051d" stroke="white" stroke-width="0" cx="528.7" cy="-241.19" rx="3.5" ry="3.5"/>
<text text-anchor="middle" x="463.2" y="-247.29" font-family="Helvetica,sans-Serif" font-size="8.00" fill="#4d4d4d">alternative au développement</text>
</g>
<!-- matériel -->
<g id="node13" class="node">
<title>matériel</title>
<ellipse fill="#88226a" stroke="white" stroke-width="0" cx="270.28" cy="-489.95" rx="14.5" ry="14.5"/>
<text text-anchor="middle" x="238.78" y="-507.05" font-family="Helvetica,sans-Serif" font-size="8.00" fill="#4d4d4d">matériel</text>
</g>
<!-- industrie -->
<g id="node14" class="node">
<title>industrie</title>
<ellipse fill="#ab2f5e" stroke="white" stroke-width="0" cx="180.53" cy="-331.88" rx="18" ry="18"/>
<text text-anchor="middle" x="144.03" y="-352.48" font-family="Helvetica,sans-Serif" font-size="8.00" fill="#4d4d4d">industrie</text>
</g>
<!-- société néo&#45;calédonienne -->
<g id="node15" class="node">
<title>société néo&#45;calédonienne</title>
<ellipse fill="#0c0826" stroke="white" stroke-width="0" cx="562.9" cy="-458.58" rx="3.5" ry="3.5"/>
<text text-anchor="middle" x="505.4" y="-464.68" font-family="Helvetica,sans-Serif" font-size="8.00" fill="#4d4d4d">société néo&#45;calédonienne</text>
</g>
<!-- foncier -->
<g id="node16" class="node">
<title>foncier</title>
<ellipse fill="#160b39" stroke="white" stroke-width="0" cx="32.5" cy="-194.31" rx="3.5" ry="3.5"/>
<text text-anchor="middle" x="14.5" y="-200.41" font-family="Helvetica,sans-Serif" font-size="8.00" fill="#4d4d4d">foncier</text>
</g>
<!-- risque -->
<g id="node17" class="node">
<title>risque</title>
<ellipse fill="#000004" stroke="white" stroke-width="0" cx="466.89" cy="-494.96" rx="0.5" ry="0.5"/>
<text text-anchor="middle" x="453.39" y="-498.06" font-family="Helvetica,sans-Serif" font-size="8.00" fill="#4d4d4d">risque</text>
</g>
<!-- échange commercial -->
<g id="node18" class="node">
<title>échange commercial</title>
<ellipse fill="#290b55" stroke="white" stroke-width="0" cx="158.14" cy="-490.03" rx="7" ry="7"/>
<text text-anchor="middle" x="108.14" y="-499.63" font-family="Helvetica,sans-Serif" font-size="8.00" fill="#4d4d4d">échange commercial</text>
</g>
<!-- relation politique -->
<g id="node19" class="node">
<title>relation politique</title>
<ellipse fill="#030210" stroke="white" stroke-width="0" cx="398.72" cy="-0.5" rx="0.5" ry="0.5"/>
<text text-anchor="middle" x="363.22" y="-3.6" font-family="Helvetica,sans-Serif" font-size="8.00" fill="#4d4d4d">relation politique</text>
</g>
</g>
</svg>
