<?xml version="1.0" encoding="UTF-8" standalone="no"?>
<!DOCTYPE svg PUBLIC "-//W3C//DTD SVG 1.1//EN"
 "http://www.w3.org/Graphics/SVG/1.1/DTD/svg11.dtd">
<!-- Generated by graphviz version 2.43.0 (0)
 -->
<!-- Pages: 1 -->
<svg width="354pt" height="223pt"
 viewBox="0.00 0.00 354.44 223.20" xmlns="http://www.w3.org/2000/svg" xmlns:xlink="http://www.w3.org/1999/xlink">
<g id="graph0" class="graph" transform="scale(1 1) rotate(0) translate(4 219.2)">
<polygon fill="white" stroke="transparent" points="-4,4 -4,-219.2 350.44,-219.2 350.44,4 -4,4"/>
<!-- fin&#45;&#45;impact environnemental -->
<g id="edge1" class="edge">
<title>fin&#45;&#45;impact environnemental</title>
<path fill="none" stroke="darkgrey" stroke-width="1.14" d="M282.65,-71.29C271.74,-77.88 247.99,-92.22 228.26,-104.12"/>
</g>
<!-- impact environnemental&#45;&#45;économie du pays -->
<g id="edge13" class="edge">
<title>impact environnemental&#45;&#45;économie du pays</title>
<path fill="none" stroke="darkgrey" stroke-width="2.9" d="M164.92,-139.37C135.28,-154.49 94.18,-175.48 82.63,-181.37"/>
</g>
<!-- impact environnemental&#45;&#45;amélioration environnementale -->
<g id="edge14" class="edge">
<title>impact environnemental&#45;&#45;amélioration environnementale</title>
<path fill="none" stroke="darkgrey" stroke-width="1.96" d="M175.45,-152.35C166.5,-164.54 156.77,-177.78 150.53,-186.27"/>
</g>
<!-- impact environnemental&#45;&#45;conflit -->
<g id="edge11" class="edge">
<title>impact environnemental&#45;&#45;conflit</title>
<path fill="none" stroke="darkgrey" stroke-width="2.67" d="M219.88,-150.81C236.96,-171.6 257.97,-197.2 261.76,-201.82"/>
</g>
<!-- impact environnemental&#45;&#45;développement -->
<g id="edge12" class="edge">
<title>impact environnemental&#45;&#45;développement</title>
<path fill="none" stroke="darkgrey" stroke-width="1.37" d="M232.72,-129.55C269.85,-136.39 324.56,-146.47 339.22,-149.17"/>
</g>
<!-- emploi&#45;&#45;impact environnemental -->
<g id="edge3" class="edge">
<title>emploi&#45;&#45;impact environnemental</title>
<path fill="none" stroke="darkgrey" stroke-width="3.59" d="M75.93,-120.74C96.02,-121.11 132.97,-121.79 160.79,-122.31"/>
</g>
<!-- emploi&#45;&#45;pollution -->
<g id="edge2" class="edge">
<title>emploi&#45;&#45;pollution</title>
<path fill="none" stroke="darkgrey" stroke-width="3.98" d="M74.36,-113.43C82.45,-109.03 93,-103.28 102.04,-98.37"/>
</g>
<!-- emploi&#45;&#45;économie du pays -->
<g id="edge4" class="edge">
<title>emploi&#45;&#45;économie du pays</title>
<path fill="none" stroke="darkgrey" stroke-width="2.22" d="M65.52,-134.66C69.73,-149.21 76,-170.87 78.46,-179.37"/>
</g>
<!-- emploi&#45;&#45;amélioration environnementale -->
<g id="edge5" class="edge">
<title>emploi&#45;&#45;amélioration environnementale</title>
<path fill="none" stroke="darkgrey" stroke-width="2.16" d="M72.21,-130.25C88.82,-145.28 120.3,-173.78 135.43,-187.47"/>
</g>
<!-- pollution&#45;&#45;impact environnemental -->
<g id="edge7" class="edge">
<title>pollution&#45;&#45;impact environnemental</title>
<path fill="none" stroke="darkgrey" stroke-width="10" d="M140.64,-97.01C147.85,-100.33 156.22,-104.19 164.28,-107.9"/>
</g>
<!-- pollution&#45;&#45;économie du pays -->
<g id="edge8" class="edge">
<title>pollution&#45;&#45;économie du pays</title>
<path fill="none" stroke="darkgrey" stroke-width="1.84" d="M112.26,-108.15C102.06,-131.45 86.02,-168.08 81.03,-179.47"/>
</g>
<!-- pollution&#45;&#45;amélioration environnementale -->
<g id="edge9" class="edge">
<title>pollution&#45;&#45;amélioration environnementale</title>
<path fill="none" stroke="darkgrey" d="M125.6,-109.18C130.42,-131.76 137.87,-166.63 141.63,-184.23"/>
</g>
<!-- pollution&#45;&#45;épuisement de la ressource -->
<g id="edge6" class="edge">
<title>pollution&#45;&#45;épuisement de la ressource</title>
<path fill="none" stroke="darkgrey" stroke-width="3.02" d="M131.63,-68.83C143,-48.18 160.2,-16.93 165.78,-6.8"/>
</g>
<!-- épuisement de la ressource&#45;&#45;impact environnemental -->
<g id="edge10" class="edge">
<title>épuisement de la ressource&#45;&#45;impact environnemental</title>
<path fill="none" stroke="darkgrey" stroke-width="3.48" d="M168.45,-6.95C171.35,-18.73 181.1,-58.32 188.42,-88.01"/>
</g>
<!-- fin -->
<g id="node1" class="node">
<title>fin</title>
<ellipse fill="#280b53" stroke="white" stroke-width="0" cx="288.67" cy="-67.66" rx="7" ry="7"/>
<text text-anchor="middle" x="276.17" y="-77.26" font-family="Helvetica,sans-Serif" font-size="8.00" fill="#4d4d4d">fin</text>
</g>
<!-- impact environnemental -->
<g id="node2" class="node">
<title>impact environnemental</title>
<ellipse fill="#fcffa4" stroke="white" stroke-width="0" cx="197.03" cy="-122.97" rx="36" ry="36"/>
<text text-anchor="middle" x="111.03" y="-161.57" font-family="Helvetica,sans-Serif" font-size="8.00" fill="#4d4d4d">impact environnemental</text>
</g>
<!-- emploi -->
<g id="node3" class="node">
<title>emploi</title>
<ellipse fill="#7d1e6d" stroke="white" stroke-width="0" cx="61.41" cy="-120.48" rx="14.5" ry="14.5"/>
<text text-anchor="middle" x="32.91" y="-137.58" font-family="Helvetica,sans-Serif" font-size="8.00" fill="#4d4d4d">emploi</text>
</g>
<!-- pollution -->
<g id="node4" class="node">
<title>pollution</title>
<ellipse fill="#d94d3d" stroke="white" stroke-width="0" cx="121.08" cy="-88.01" rx="21.5" ry="21.5"/>
<text text-anchor="middle" x="81.08" y="-69.11" font-family="Helvetica,sans-Serif" font-size="8.00" fill="#4d4d4d">pollution</text>
</g>
<!-- économie du pays -->
<g id="node5" class="node">
<title>économie du pays</title>
<ellipse fill="#0e092b" stroke="white" stroke-width="0" cx="79.5" cy="-182.97" rx="3.5" ry="3.5"/>
<text text-anchor="middle" x="38" y="-189.07" font-family="Helvetica,sans-Serif" font-size="8.00" fill="#4d4d4d">économie du pays</text>
</g>
<!-- amélioration environnementale -->
<g id="node6" class="node">
<title>amélioration environnementale</title>
<ellipse fill="#751b6e" stroke="white" stroke-width="0" cx="143.97" cy="-195.2" rx="11" ry="11"/>
<text text-anchor="middle" x="68.47" y="-208.8" font-family="Helvetica,sans-Serif" font-size="8.00" fill="#4d4d4d">amélioration environnementale</text>
</g>
<!-- épuisement de la ressource -->
<g id="node7" class="node">
<title>épuisement de la ressource</title>
<ellipse fill="#140b34" stroke="white" stroke-width="0" cx="167.6" cy="-3.5" rx="3.5" ry="3.5"/>
<text text-anchor="middle" x="107.1" y="-9.6" font-family="Helvetica,sans-Serif" font-size="8.00" fill="#4d4d4d">épuisement de la ressource</text>
</g>
<!-- conflit -->
<g id="node8" class="node">
<title>conflit</title>
<ellipse fill="#000004" stroke="white" stroke-width="0" cx="262.36" cy="-202.55" rx="0.5" ry="0.5"/>
<text text-anchor="middle" x="248.86" y="-205.65" font-family="Helvetica,sans-Serif" font-size="8.00" fill="#4d4d4d">conflit</text>
</g>
<!-- développement -->
<g id="node9" class="node">
<title>développement</title>
<ellipse fill="#0a0722" stroke="white" stroke-width="0" cx="342.94" cy="-149.86" rx="3.5" ry="3.5"/>
<text text-anchor="middle" x="306.94" y="-155.96" font-family="Helvetica,sans-Serif" font-size="8.00" fill="#4d4d4d">développement</text>
</g>
</g>
</svg>
