<?xml version="1.0" encoding="UTF-8" standalone="no"?>
<!DOCTYPE svg PUBLIC "-//W3C//DTD SVG 1.1//EN"
 "http://www.w3.org/Graphics/SVG/1.1/DTD/svg11.dtd">
<!-- Generated by graphviz version 2.43.0 (0)
 -->
<!-- Pages: 1 -->
<svg width="1205pt" height="622pt"
 viewBox="0.00 0.00 1204.60 621.62" xmlns="http://www.w3.org/2000/svg" xmlns:xlink="http://www.w3.org/1999/xlink">
<g id="graph0" class="graph" transform="scale(1 1) rotate(0) translate(4 617.62)">
<polygon fill="white" stroke="transparent" points="-4,4 -4,-617.62 1200.6,-617.62 1200.6,4 -4,4"/>
<!-- pollution&#45;&#45;dégradation environnementale -->
<g id="edge1" class="edge">
<title>pollution&#45;&#45;dégradation environnementale</title>
<path fill="none" stroke="darkgrey" stroke-width="10" d="M495.94,-412.93C517.25,-382.78 565.73,-314.17 592.64,-276.09"/>
</g>
<!-- pollution&#45;&#45;nouvelle&#45;calédonie -->
<g id="edge2" class="edge">
<title>pollution&#45;&#45;nouvelle&#45;calédonie</title>
<path fill="none" stroke="darkgrey" stroke-width="1.46" d="M477.44,-411.4C446.1,-346.68 332.23,-111.5 317.24,-80.55"/>
</g>
<!-- pollution&#45;&#45;travail -->
<g id="edge3" class="edge">
<title>pollution&#45;&#45;travail</title>
<path fill="none" stroke="darkgrey" stroke-width="6.75" d="M476.75,-412.03C461.72,-384.59 430.8,-328.09 413.66,-296.78"/>
</g>
<!-- pollution&#45;&#45;économie -->
<g id="edge4" class="edge">
<title>pollution&#45;&#45;économie</title>
<path fill="none" stroke="darkgrey" stroke-width="5.54" d="M492.95,-411C500.17,-394.89 510.99,-370.75 518.15,-354.77"/>
</g>
<!-- pollution&#45;&#45;nickel -->
<g id="edge5" class="edge">
<title>pollution&#45;&#45;nickel</title>
<path fill="none" stroke="darkgrey" stroke-width="4.93" d="M500.13,-417.17C524.8,-399.28 574.91,-362.95 606.93,-339.74"/>
</g>
<!-- pollution&#45;&#45;ressource minière -->
<g id="edge6" class="edge">
<title>pollution&#45;&#45;ressource minière</title>
<path fill="none" stroke="darkgrey" stroke-width="2" d="M470.47,-417.71C430.11,-390.33 319.7,-315.43 287,-293.25"/>
</g>
<!-- pollution&#45;&#45;politique -->
<g id="edge7" class="edge">
<title>pollution&#45;&#45;politique</title>
<path fill="none" stroke="darkgrey" stroke-width="3.01" d="M482.83,-409.71C476.74,-366.8 461.53,-259.75 455.99,-220.73"/>
</g>
<!-- pollution&#45;&#45;secteur nickel -->
<g id="edge8" class="edge">
<title>pollution&#45;&#45;secteur nickel</title>
<path fill="none" stroke="darkgrey" stroke-width="2.77" d="M468.85,-420.51C458.25,-415.81 444.54,-409.73 433.88,-405.01"/>
</g>
<!-- pollution&#45;&#45;nature -->
<g id="edge9" class="edge">
<title>pollution&#45;&#45;nature</title>
<path fill="none" stroke="darkgrey" stroke-width="3.71" d="M467.6,-424.23C432.72,-417.16 356.01,-401.62 324.12,-395.16"/>
</g>
<!-- pollution&#45;&#45;amélioration environnementale -->
<g id="edge10" class="edge">
<title>pollution&#45;&#45;amélioration environnementale</title>
<path fill="none" stroke="darkgrey" stroke-width="1.01" d="M501.58,-436.37C561.69,-468.06 770.31,-578.03 799.35,-593.34"/>
</g>
<!-- pollution&#45;&#45;société néo&#45;calédonienne -->
<g id="edge11" class="edge">
<title>pollution&#45;&#45;société néo&#45;calédonienne</title>
<path fill="none" stroke="darkgrey" stroke-width="1.24" d="M467.46,-424.68C406.43,-413.9 209.03,-379.06 180.06,-373.95"/>
</g>
<!-- pollution&#45;&#45;exploitation minière -->
<g id="edge12" class="edge">
<title>pollution&#45;&#45;exploitation minière</title>
<path fill="none" stroke="darkgrey" stroke-width="2.1" d="M473.19,-414.4C433.68,-370.93 309.82,-234.64 273.92,-195.14"/>
</g>
<!-- pollution&#45;&#45;alternative au développement -->
<g id="edge13" class="edge">
<title>pollution&#45;&#45;alternative au développement</title>
<path fill="none" stroke="darkgrey" stroke-width="1.91" d="M501.48,-436.35C532.77,-452.9 600.14,-488.55 615.5,-496.68"/>
</g>
<!-- pollution&#45;&#45;matériel -->
<g id="edge14" class="edge">
<title>pollution&#45;&#45;matériel</title>
<path fill="none" stroke="darkgrey" stroke-width="2.84" d="M468.53,-434.68C436.66,-447.58 368.18,-475.32 338.78,-487.22"/>
</g>
<!-- pollution&#45;&#45;foncier -->
<g id="edge15" class="edge">
<title>pollution&#45;&#45;foncier</title>
<path fill="none" stroke="darkgrey" stroke-width="1" d="M486.45,-446.04C488.46,-480.86 492.78,-555.58 494.14,-579.16"/>
</g>
<!-- pollution&#45;&#45;relation politique -->
<g id="edge16" class="edge">
<title>pollution&#45;&#45;relation politique</title>
<path fill="none" stroke="darkgrey" stroke-width="1.01" d="M485.46,-409.69C485.69,-338.88 486.52,-83.45 486.63,-49.84"/>
</g>
<!-- pollution&#45;&#45;industrie -->
<g id="edge17" class="edge">
<title>pollution&#45;&#45;industrie</title>
<path fill="none" stroke="darkgrey" stroke-width="2.6" d="M489.41,-410.22C497.53,-374.5 515.83,-293.98 523.96,-258.19"/>
</g>
<!-- pollution&#45;&#45;échange commercial -->
<g id="edge18" class="edge">
<title>pollution&#45;&#45;échange commercial</title>
<path fill="none" stroke="darkgrey" stroke-width="1.13" d="M479.91,-410.27C461.84,-352.5 404.78,-170.02 392.94,-132.17"/>
</g>
<!-- dégradation environnementale&#45;&#45;nouvelle&#45;calédonie -->
<g id="edge19" class="edge">
<title>dégradation environnementale&#45;&#45;nouvelle&#45;calédonie</title>
<path fill="none" stroke="darkgrey" stroke-width="1.59" d="M583.41,-233.02C515.03,-193.23 343.74,-93.55 318.69,-78.97"/>
</g>
<!-- dégradation environnementale&#45;&#45;travail -->
<g id="edge20" class="edge">
<title>dégradation environnementale&#45;&#45;travail</title>
<path fill="none" stroke="darkgrey" stroke-width="7.8" d="M579.17,-253.27C537.07,-258.34 464.39,-267.1 426.37,-271.67"/>
</g>
<!-- dégradation environnementale&#45;&#45;économie -->
<g id="edge21" class="edge">
<title>dégradation environnementale&#45;&#45;économie</title>
<path fill="none" stroke="darkgrey" stroke-width="7.81" d="M588.47,-273.21C572.36,-289.88 551.43,-311.52 538.24,-325.16"/>
</g>
<!-- dégradation environnementale&#45;&#45;nickel -->
<g id="edge22" class="edge">
<title>dégradation environnementale&#45;&#45;nickel</title>
<path fill="none" stroke="darkgrey" stroke-width="9.22" d="M622.53,-280.33C622.99,-281.63 623.45,-282.93 623.92,-284.23"/>
</g>
<!-- dégradation environnementale&#45;&#45;ressource minière -->
<g id="edge23" class="edge">
<title>dégradation environnementale&#45;&#45;ressource minière</title>
<path fill="none" stroke="darkgrey" stroke-width="4.19" d="M579.21,-253.02C506.74,-261.18 334,-280.64 288.76,-285.74"/>
</g>
<!-- dégradation environnementale&#45;&#45;politique -->
<g id="edge24" class="edge">
<title>dégradation environnementale&#45;&#45;politique</title>
<path fill="none" stroke="darkgrey" stroke-width="4.22" d="M580.01,-240.75C545.87,-231.39 492.96,-216.9 467.94,-210.04"/>
</g>
<!-- dégradation environnementale&#45;&#45;secteur nickel -->
<g id="edge25" class="edge">
<title>dégradation environnementale&#45;&#45;secteur nickel</title>
<path fill="none" stroke="darkgrey" stroke-width="4.02" d="M585.28,-269.36C543.8,-300.95 464.43,-361.41 431.68,-386.35"/>
</g>
<!-- dégradation environnementale&#45;&#45;nature -->
<g id="edge26" class="edge">
<title>dégradation environnementale&#45;&#45;nature</title>
<path fill="none" stroke="darkgrey" stroke-width="5.5" d="M582.04,-263.34C517.97,-293.67 368.19,-364.59 322.95,-386.01"/>
</g>
<!-- dégradation environnementale&#45;&#45;amélioration environnementale -->
<g id="edge27" class="edge">
<title>dégradation environnementale&#45;&#45;amélioration environnementale</title>
<path fill="none" stroke="darkgrey" stroke-width="1.27" d="M627.33,-277.97C669.91,-354.98 784.9,-562.92 800.86,-591.78"/>
</g>
<!-- dégradation environnementale&#45;&#45;société néo&#45;calédonienne -->
<g id="edge28" class="edge">
<title>dégradation environnementale&#45;&#45;société néo&#45;calédonienne</title>
<path fill="none" stroke="darkgrey" stroke-width="1.96" d="M580.23,-258.29C486.72,-284.94 213.7,-362.72 179.94,-372.34"/>
</g>
<!-- dégradation environnementale&#45;&#45;exploitation minière -->
<g id="edge29" class="edge">
<title>dégradation environnementale&#45;&#45;exploitation minière</title>
<path fill="none" stroke="darkgrey" stroke-width="3.86" d="M579.45,-243.38C506.38,-229.69 329.82,-196.63 278.37,-186.99"/>
</g>
<!-- dégradation environnementale&#45;&#45;alternative au développement -->
<g id="edge30" class="edge">
<title>dégradation environnementale&#45;&#45;alternative au développement</title>
<path fill="none" stroke="darkgrey" stroke-width="2.22" d="M612.45,-281.93C614.21,-343.09 617.88,-471.14 618.56,-494.61"/>
</g>
<!-- dégradation environnementale&#45;&#45;matériel -->
<g id="edge31" class="edge">
<title>dégradation environnementale&#45;&#45;matériel</title>
<path fill="none" stroke="darkgrey" stroke-width="4.49" d="M586.58,-270.56C526.93,-321.23 377.84,-447.88 335.99,-483.43"/>
</g>
<!-- dégradation environnementale&#45;&#45;foncier -->
<g id="edge32" class="edge">
<title>dégradation environnementale&#45;&#45;foncier</title>
<path fill="none" stroke="darkgrey" stroke-width="2.31" d="M600.83,-280.19C575,-354.62 510.35,-540.95 497,-579.42"/>
</g>
<!-- dégradation environnementale&#45;&#45;relation politique -->
<g id="edge33" class="edge">
<title>dégradation environnementale&#45;&#45;relation politique</title>
<path fill="none" stroke="darkgrey" stroke-width="1.18" d="M594.42,-221.55C563.42,-171.12 500.09,-68.07 488.49,-49.19"/>
</g>
<!-- dégradation environnementale&#45;&#45;industrie -->
<g id="edge34" class="edge">
<title>dégradation environnementale&#45;&#45;industrie</title>
<path fill="none" stroke="darkgrey" stroke-width="3.39" d="M578.98,-245.91C567.8,-244.72 555.7,-243.43 546.09,-242.4"/>
</g>
<!-- dégradation environnementale&#45;&#45;échange commercial -->
<g id="edge36" class="edge">
<title>dégradation environnementale&#45;&#45;échange commercial</title>
<path fill="none" stroke="darkgrey" stroke-width="2.13" d="M583.11,-233.41C531.18,-204.2 423.78,-143.81 396.96,-128.73"/>
</g>
<!-- dégradation environnementale&#45;&#45;risque -->
<g id="edge35" class="edge">
<title>dégradation environnementale&#45;&#45;risque</title>
<path fill="none" stroke="darkgrey" stroke-width="1.85" d="M625.7,-219.72C654.28,-159.94 716.99,-28.79 727.56,-6.69"/>
</g>
<!-- dégradation environnementale&#45;&#45;avenir sans nickel -->
<g id="edge37" class="edge">
<title>dégradation environnementale&#45;&#45;avenir sans nickel</title>
<path fill="none" stroke="darkgrey" stroke-width="1.16" d="M644.04,-246.45C749.23,-236.97 1074.37,-207.68 1089.55,-206.31"/>
</g>
<!-- nouvelle&#45;calédonie&#45;&#45;travail -->
<g id="edge38" class="edge">
<title>nouvelle&#45;calédonie&#45;&#45;travail</title>
<path fill="none" stroke="darkgrey" stroke-width="1.67" d="M317.1,-80.61C325.89,-100.79 371.16,-204.82 391.56,-251.71"/>
</g>
<!-- nouvelle&#45;calédonie&#45;&#45;économie -->
<g id="edge39" class="edge">
<title>nouvelle&#45;calédonie&#45;&#45;économie</title>
<path fill="none" stroke="darkgrey" stroke-width="1.37" d="M317.97,-80.11C337.56,-104.49 473.69,-273.81 514.19,-324.19"/>
</g>
<!-- nouvelle&#45;calédonie&#45;&#45;nickel -->
<g id="edge40" class="edge">
<title>nouvelle&#45;calédonie&#45;&#45;nickel</title>
<path fill="none" stroke="darkgrey" stroke-width="2.88" d="M318.79,-79.57C345.54,-99.72 534.28,-241.86 607.34,-296.88"/>
</g>
<!-- nouvelle&#45;calédonie&#45;&#45;ressource minière -->
<g id="edge41" class="edge">
<title>nouvelle&#45;calédonie&#45;&#45;ressource minière</title>
<path fill="none" stroke="darkgrey" stroke-width="1.41" d="M314.96,-80.82C310.69,-104.49 286.82,-236.75 279.74,-276"/>
</g>
<!-- nouvelle&#45;calédonie&#45;&#45;politique -->
<g id="edge42" class="edge">
<title>nouvelle&#45;calédonie&#45;&#45;politique</title>
<path fill="none" stroke="darkgrey" stroke-width="2.14" d="M318.5,-79.87C334.64,-94.93 413.96,-168.92 443.14,-196.13"/>
</g>
<!-- nouvelle&#45;calédonie&#45;&#45;secteur nickel -->
<g id="edge43" class="edge">
<title>nouvelle&#45;calédonie&#45;&#45;secteur nickel</title>
<path fill="none" stroke="darkgrey" stroke-width="1.71" d="M316.75,-80.78C326.22,-110.68 391.96,-318.42 411.53,-380.22"/>
</g>
<!-- nouvelle&#45;calédonie&#45;&#45;nature -->
<g id="edge44" class="edge">
<title>nouvelle&#45;calédonie&#45;&#45;nature</title>
<path fill="none" stroke="darkgrey" stroke-width="1.18" d="M315.55,-80.72C315,-110.53 311.12,-320.11 310.05,-377.66"/>
</g>
<!-- nouvelle&#45;calédonie&#45;&#45;exploitation minière -->
<g id="edge45" class="edge">
<title>nouvelle&#45;calédonie&#45;&#45;exploitation minière</title>
<path fill="none" stroke="darkgrey" stroke-width="1.22" d="M313.9,-80.74C307.16,-94.76 282.26,-146.51 270.42,-171.13"/>
</g>
<!-- nouvelle&#45;calédonie&#45;&#45;industrie -->
<g id="edge46" class="edge">
<title>nouvelle&#45;calédonie&#45;&#45;industrie</title>
<path fill="none" stroke="darkgrey" stroke-width="1.57" d="M318.62,-79.49C339.99,-95.92 469.55,-195.54 513.45,-229.3"/>
</g>
<!-- travail&#45;&#45;économie -->
<g id="edge47" class="edge">
<title>travail&#45;&#45;économie</title>
<path fill="none" stroke="darkgrey" stroke-width="7.8" d="M424,-286.19C448.56,-298.8 487.34,-318.7 509.18,-329.91"/>
</g>
<!-- travail&#45;&#45;nickel -->
<g id="edge48" class="edge">
<title>travail&#45;&#45;nickel</title>
<path fill="none" stroke="darkgrey" stroke-width="8.18" d="M426.21,-279.28C467.85,-287.07 552.26,-302.87 600.39,-311.88"/>
</g>
<!-- travail&#45;&#45;ressource minière -->
<g id="edge49" class="edge">
<title>travail&#45;&#45;ressource minière</title>
<path fill="none" stroke="darkgrey" stroke-width="3.39" d="M376.5,-277.16C349.65,-279.83 308.26,-283.94 288.71,-285.89"/>
</g>
<!-- travail&#45;&#45;politique -->
<g id="edge50" class="edge">
<title>travail&#45;&#45;politique</title>
<path fill="none" stroke="darkgrey" stroke-width="4.15" d="M416.98,-254.49C426.04,-242.66 437.16,-228.12 444.83,-218.1"/>
</g>
<!-- travail&#45;&#45;secteur nickel -->
<g id="edge51" class="edge">
<title>travail&#45;&#45;secteur nickel</title>
<path fill="none" stroke="darkgrey" stroke-width="5.09" d="M404.68,-299.53C407.66,-323.23 412.07,-358.35 414.73,-379.48"/>
</g>
<!-- travail&#45;&#45;nature -->
<g id="edge52" class="edge">
<title>travail&#45;&#45;nature</title>
<path fill="none" stroke="darkgrey" stroke-width="3.32" d="M385.98,-294.61C366.65,-319.38 334.33,-360.79 318.74,-380.77"/>
</g>
<!-- travail&#45;&#45;société néo&#45;calédonienne -->
<g id="edge53" class="edge">
<title>travail&#45;&#45;société néo&#45;calédonienne</title>
<path fill="none" stroke="darkgrey" stroke-width="1.86" d="M378.31,-284.85C325.98,-307.79 201.73,-362.26 179.83,-371.86"/>
</g>
<!-- travail&#45;&#45;exploitation minière -->
<g id="edge54" class="edge">
<title>travail&#45;&#45;exploitation minière</title>
<path fill="none" stroke="darkgrey" stroke-width="3.14" d="M380.37,-260.74C351.3,-241.64 299.96,-207.9 276.45,-192.45"/>
</g>
<!-- travail&#45;&#45;alternative au développement -->
<g id="edge55" class="edge">
<title>travail&#45;&#45;alternative au développement</title>
<path fill="none" stroke="darkgrey" stroke-width="1.32" d="M419.32,-292.97C467.12,-342.22 596.2,-475.21 616.08,-495.68"/>
</g>
<!-- travail&#45;&#45;matériel -->
<g id="edge56" class="edge">
<title>travail&#45;&#45;matériel</title>
<path fill="none" stroke="darkgrey" stroke-width="3.75" d="M393.2,-298.43C377.18,-344.04 342.57,-442.56 329.79,-478.96"/>
</g>
<!-- travail&#45;&#45;foncier -->
<g id="edge57" class="edge">
<title>travail&#45;&#45;foncier</title>
<path fill="none" stroke="darkgrey" stroke-width="1.43" d="M408.77,-298.87C428.32,-364.4 481.54,-542.8 492.55,-579.71"/>
</g>
<!-- travail&#45;&#45;relation politique -->
<g id="edge58" class="edge">
<title>travail&#45;&#45;relation politique</title>
<path fill="none" stroke="darkgrey" stroke-width="1.28" d="M410.33,-251.07C430.12,-197.94 477.1,-71.8 485.39,-49.56"/>
</g>
<!-- travail&#45;&#45;industrie -->
<g id="edge59" class="edge">
<title>travail&#45;&#45;industrie</title>
<path fill="none" stroke="darkgrey" stroke-width="3.85" d="M425.93,-268.07C450.76,-261.36 488.63,-251.11 510.59,-245.18"/>
</g>
<!-- travail&#45;&#45;échange commercial -->
<g id="edge61" class="edge">
<title>travail&#45;&#45;échange commercial</title>
<path fill="none" stroke="darkgrey" stroke-width="1.94" d="M399.75,-249.66C397.23,-214.77 392.81,-153.41 391.3,-132.48"/>
</g>
<!-- travail&#45;&#45;risque -->
<g id="edge60" class="edge">
<title>travail&#45;&#45;risque</title>
<path fill="none" stroke="darkgrey" stroke-width="1.91" d="M421.06,-258.51C486.89,-204.01 698.28,-29.01 726.06,-6"/>
</g>
<!-- économie&#45;&#45;nickel -->
<g id="edge62" class="edge">
<title>économie&#45;&#45;nickel</title>
<path fill="none" stroke="darkgrey" stroke-width="6.2" d="M543.3,-335.13C558.69,-332.38 581.42,-328.33 600.53,-324.92"/>
</g>
<!-- économie&#45;&#45;ressource minière -->
<g id="edge63" class="edge">
<title>économie&#45;&#45;ressource minière</title>
<path fill="none" stroke="darkgrey" stroke-width="2.29" d="M507.71,-334.61C459.56,-324.63 327.81,-297.35 288.79,-289.26"/>
</g>
<!-- économie&#45;&#45;politique -->
<g id="edge64" class="edge">
<title>économie&#45;&#45;politique</title>
<path fill="none" stroke="darkgrey" stroke-width="4.66" d="M516.9,-322.37C502.54,-295.88 474.04,-243.31 460.89,-219.03"/>
</g>
<!-- économie&#45;&#45;secteur nickel -->
<g id="edge65" class="edge">
<title>économie&#45;&#45;secteur nickel</title>
<path fill="none" stroke="darkgrey" stroke-width="3.39" d="M509.52,-347.04C489,-358.24 453.63,-377.54 433.08,-388.76"/>
</g>
<!-- économie&#45;&#45;nature -->
<g id="edge66" class="edge">
<title>économie&#45;&#45;nature</title>
<path fill="none" stroke="darkgrey" stroke-width="2.66" d="M507.88,-342.72C466.11,-353.16 361.91,-379.21 323.92,-388.71"/>
</g>
<!-- économie&#45;&#45;amélioration environnementale -->
<g id="edge67" class="edge">
<title>économie&#45;&#45;amélioration environnementale</title>
<path fill="none" stroke="darkgrey" stroke-width="1" d="M538.9,-350.69C590.59,-398.58 775.7,-570.09 800.06,-592.66"/>
</g>
<!-- économie&#45;&#45;société néo&#45;calédonienne -->
<g id="edge68" class="edge">
<title>économie&#45;&#45;société néo&#45;calédonienne</title>
<path fill="none" stroke="darkgrey" stroke-width="1.34" d="M507.26,-340.13C440.49,-346.83 211.99,-369.76 180.19,-372.95"/>
</g>
<!-- économie&#45;&#45;exploitation minière -->
<g id="edge69" class="edge">
<title>économie&#45;&#45;exploitation minière</title>
<path fill="none" stroke="darkgrey" stroke-width="1.86" d="M509.96,-329.13C462.47,-301.16 320.07,-217.29 276.73,-191.77"/>
</g>
<!-- économie&#45;&#45;alternative au développement -->
<g id="edge70" class="edge">
<title>économie&#45;&#45;alternative au développement</title>
<path fill="none" stroke="darkgrey" stroke-width="1.47" d="M534.63,-353.94C555.69,-390.12 606.74,-477.85 616.89,-495.3"/>
</g>
<!-- économie&#45;&#45;matériel -->
<g id="edge71" class="edge">
<title>économie&#45;&#45;matériel</title>
<path fill="none" stroke="darkgrey" stroke-width="2.2" d="M511.1,-349.41C473.19,-378.62 371.29,-457.12 336.63,-483.81"/>
</g>
<!-- économie&#45;&#45;foncier -->
<g id="edge72" class="edge">
<title>économie&#45;&#45;foncier</title>
<path fill="none" stroke="darkgrey" stroke-width="1.1" d="M523.26,-356.55C516.97,-406.91 499.57,-546.33 495.45,-579.36"/>
</g>
<!-- économie&#45;&#45;relation politique -->
<g id="edge73" class="edge">
<title>économie&#45;&#45;relation politique</title>
<path fill="none" stroke="darkgrey" stroke-width="1.31" d="M523.1,-320.03C515.25,-261.07 490.89,-78.09 487.13,-49.86"/>
</g>
<!-- économie&#45;&#45;industrie -->
<g id="edge74" class="edge">
<title>économie&#45;&#45;industrie</title>
<path fill="none" stroke="darkgrey" stroke-width="2.58" d="M525.99,-319.9C526.43,-302.41 527.09,-276.25 527.53,-258.79"/>
</g>
<!-- économie&#45;&#45;échange commercial -->
<g id="edge76" class="edge">
<title>économie&#45;&#45;échange commercial</title>
<path fill="none" stroke="darkgrey" stroke-width="1.65" d="M515.84,-322.98C488.69,-280.05 412.66,-159.84 394.64,-131.36"/>
</g>
<!-- économie&#45;&#45;risque -->
<g id="edge75" class="edge">
<title>économie&#45;&#45;risque</title>
<path fill="none" stroke="darkgrey" stroke-width="1.09" d="M535.08,-322.6C572.65,-260.81 709.16,-36.27 727.13,-6.72"/>
</g>
<!-- nickel&#45;&#45;ressource minière -->
<g id="edge77" class="edge">
<title>nickel&#45;&#45;ressource minière</title>
<path fill="none" stroke="darkgrey" stroke-width="5.44" d="M600.13,-315.39C521.14,-308.43 335.93,-292.11 288.81,-287.95"/>
</g>
<!-- nickel&#45;&#45;politique -->
<g id="edge78" class="edge">
<title>nickel&#45;&#45;politique</title>
<path fill="none" stroke="darkgrey" stroke-width="2.69" d="M605.22,-299.5C564.61,-274.46 495.11,-231.6 466.65,-214.05"/>
</g>
<!-- nickel&#45;&#45;secteur nickel -->
<g id="edge79" class="edge">
<title>nickel&#45;&#45;secteur nickel</title>
<path fill="none" stroke="darkgrey" stroke-width="6.25" d="M601.89,-330.9C554.35,-348.04 470.12,-378.39 434.11,-391.37"/>
</g>
<!-- nickel&#45;&#45;nature -->
<g id="edge80" class="edge">
<title>nickel&#45;&#45;nature</title>
<path fill="none" stroke="darkgrey" stroke-width="5.67" d="M600.9,-326.52C529.86,-342.56 372.13,-378.17 324,-389.04"/>
</g>
<!-- nickel&#45;&#45;exploitation minière -->
<g id="edge81" class="edge">
<title>nickel&#45;&#45;exploitation minière</title>
<path fill="none" stroke="darkgrey" stroke-width="7.42" d="M602.13,-306.29C523.38,-277.88 331.14,-208.51 277.93,-189.31"/>
</g>
<!-- nickel&#45;&#45;alternative au développement -->
<g id="edge82" class="edge">
<title>nickel&#45;&#45;alternative au développement</title>
<path fill="none" stroke="darkgrey" stroke-width="1.65" d="M632.64,-354.51C628.14,-400.83 620.69,-477.47 619.01,-494.79"/>
</g>
<!-- nickel&#45;&#45;matériel -->
<g id="edge83" class="edge">
<title>nickel&#45;&#45;matériel</title>
<path fill="none" stroke="darkgrey" stroke-width="5.49" d="M604.58,-336.23C537.51,-373.79 383.2,-460.2 337.74,-485.66"/>
</g>
<!-- nickel&#45;&#45;foncier -->
<g id="edge84" class="edge">
<title>nickel&#45;&#45;foncier</title>
<path fill="none" stroke="darkgrey" stroke-width="2.16" d="M619.2,-350.61C586.02,-413.38 514.29,-549.12 497.93,-580.07"/>
</g>
<!-- nickel&#45;&#45;relation politique -->
<g id="edge85" class="edge">
<title>nickel&#45;&#45;relation politique</title>
<path fill="none" stroke="darkgrey" stroke-width="1.23" d="M618.69,-286.79C582.49,-220.83 501.48,-73.22 488.43,-49.44"/>
</g>
<!-- nickel&#45;&#45;industrie -->
<g id="edge86" class="edge">
<title>nickel&#45;&#45;industrie</title>
<path fill="none" stroke="darkgrey" stroke-width="8.05" d="M606.87,-297.43C586.1,-282.44 559.1,-262.94 542.68,-251.08"/>
</g>
<!-- nickel&#45;&#45;échange commercial -->
<g id="edge87" class="edge">
<title>nickel&#45;&#45;échange commercial</title>
<path fill="none" stroke="darkgrey" stroke-width="2.66" d="M607.51,-296.01C550.12,-250.8 424.1,-151.51 396.28,-129.59"/>
</g>
<!-- nickel&#45;&#45;avenir sans nickel -->
<g id="edge88" class="edge">
<title>nickel&#45;&#45;avenir sans nickel</title>
<path fill="none" stroke="darkgrey" stroke-width="1.03" d="M671.38,-309.85C775.54,-284.08 1075.59,-209.85 1089.59,-206.39"/>
</g>
<!-- ressource minière&#45;&#45;politique -->
<g id="edge89" class="edge">
<title>ressource minière&#45;&#45;politique</title>
<path fill="none" stroke="darkgrey" stroke-width="3.08" d="M287.99,-282.29C318.1,-268.48 406.4,-228 440.38,-212.42"/>
</g>
<!-- ressource minière&#45;&#45;secteur nickel -->
<g id="edge90" class="edge">
<title>ressource minière&#45;&#45;secteur nickel</title>
<path fill="none" stroke="darkgrey" stroke-width="1.98" d="M286.47,-293.89C309.81,-312.42 373.93,-363.33 402.7,-386.17"/>
</g>
<!-- ressource minière&#45;&#45;nature -->
<g id="edge91" class="edge">
<title>ressource minière&#45;&#45;nature</title>
<path fill="none" stroke="darkgrey" stroke-width="1.94" d="M281.06,-297.85C286.91,-317.07 299.07,-357.05 305.53,-378.29"/>
</g>
<!-- ressource minière&#45;&#45;exploitation minière -->
<g id="edge92" class="edge">
<title>ressource minière&#45;&#45;exploitation minière</title>
<path fill="none" stroke="darkgrey" stroke-width="2.55" d="M276.29,-275.99C273.81,-257.37 268.78,-219.61 266.01,-198.83"/>
</g>
<!-- ressource minière&#45;&#45;alternative au développement -->
<g id="edge93" class="edge">
<title>ressource minière&#45;&#45;alternative au développement</title>
<path fill="none" stroke="darkgrey" stroke-width="1.01" d="M287.23,-292.85C338.85,-324.86 584.98,-477.46 615.55,-496.42"/>
</g>
<!-- ressource minière&#45;&#45;matériel -->
<g id="edge94" class="edge">
<title>ressource minière&#45;&#45;matériel</title>
<path fill="none" stroke="darkgrey" stroke-width="1.99" d="M280.22,-297.76C288.11,-332.17 312.68,-439.45 321.62,-478.47"/>
</g>
<!-- ressource minière&#45;&#45;industrie -->
<g id="edge95" class="edge">
<title>ressource minière&#45;&#45;industrie</title>
<path fill="none" stroke="darkgrey" stroke-width="2.54" d="M288.83,-284.92C328.18,-277.61 461.46,-252.84 510.06,-243.8"/>
</g>
<!-- ressource minière&#45;&#45;échange commercial -->
<g id="edge96" class="edge">
<title>ressource minière&#45;&#45;échange commercial</title>
<path fill="none" stroke="darkgrey" stroke-width="1.58" d="M284.16,-277.82C304.89,-248.15 369.85,-155.21 386.73,-131.04"/>
</g>
<!-- politique&#45;&#45;secteur nickel -->
<g id="edge97" class="edge">
<title>politique&#45;&#45;secteur nickel</title>
<path fill="none" stroke="darkgrey" stroke-width="3.18" d="M451.16,-220.58C444.51,-255 427.72,-342.03 420.45,-379.7"/>
</g>
<!-- politique&#45;&#45;nature -->
<g id="edge98" class="edge">
<title>politique&#45;&#45;nature</title>
<path fill="none" stroke="darkgrey" stroke-width="1.49" d="M444.91,-217.84C419.03,-251.25 344.68,-347.21 318.79,-380.61"/>
</g>
<!-- politique&#45;&#45;société néo&#45;calédonienne -->
<g id="edge99" class="edge">
<title>politique&#45;&#45;société néo&#45;calédonienne</title>
<path fill="none" stroke="darkgrey" stroke-width="1.54" d="M441.29,-213.82C391.04,-244.08 206.89,-355.02 179.83,-371.32"/>
</g>
<!-- politique&#45;&#45;exploitation minière -->
<g id="edge100" class="edge">
<title>politique&#45;&#45;exploitation minière</title>
<path fill="none" stroke="darkgrey" stroke-width="1.85" d="M439.35,-204.52C404.01,-200.45 314.1,-190.08 278.71,-186"/>
</g>
<!-- politique&#45;&#45;alternative au développement -->
<g id="edge101" class="edge">
<title>politique&#45;&#45;alternative au développement</title>
<path fill="none" stroke="darkgrey" stroke-width="1.54" d="M461.22,-219.13C490.86,-271.7 601.47,-467.86 616.88,-495.18"/>
</g>
<!-- politique&#45;&#45;matériel -->
<g id="edge102" class="edge">
<title>politique&#45;&#45;matériel</title>
<path fill="none" stroke="darkgrey" stroke-width="1.38" d="M447.88,-219.64C426.21,-267.79 352.6,-431.33 330.95,-479.43"/>
</g>
<!-- politique&#45;&#45;foncier -->
<g id="edge103" class="edge">
<title>politique&#45;&#45;foncier</title>
<path fill="none" stroke="darkgrey" stroke-width="1.25" d="M455.47,-220.64C462.21,-283.72 488.95,-533.95 493.8,-579.36"/>
</g>
<!-- politique&#45;&#45;relation politique -->
<g id="edge104" class="edge">
<title>politique&#45;&#45;relation politique</title>
<path fill="none" stroke="darkgrey" stroke-width="1.85" d="M456.89,-191.72C464.06,-156.64 482.06,-68.6 485.91,-49.77"/>
</g>
<!-- politique&#45;&#45;industrie -->
<g id="edge105" class="edge">
<title>politique&#45;&#45;industrie</title>
<path fill="none" stroke="darkgrey" stroke-width="2.76" d="M467.17,-212.33C479.57,-218.07 498.14,-226.66 511.49,-232.84"/>
</g>
<!-- politique&#45;&#45;échange commercial -->
<g id="edge107" class="edge">
<title>politique&#45;&#45;échange commercial</title>
<path fill="none" stroke="darkgrey" stroke-width="1.62" d="M444.88,-194.61C431.1,-176.94 405.39,-143.98 395.15,-130.85"/>
</g>
<!-- politique&#45;&#45;risque -->
<g id="edge106" class="edge">
<title>politique&#45;&#45;risque</title>
<path fill="none" stroke="darkgrey" stroke-width="1.01" d="M465.75,-197.49C514.72,-161.42 700.24,-24.75 726.09,-5.71"/>
</g>
<!-- secteur nickel&#45;&#45;nature -->
<g id="edge108" class="edge">
<title>secteur nickel&#45;&#45;nature</title>
<path fill="none" stroke="darkgrey" stroke-width="1.97" d="M398.81,-396.63C377.78,-395.6 343.59,-393.91 324.27,-392.96"/>
</g>
<!-- secteur nickel&#45;&#45;amélioration environnementale -->
<g id="edge109" class="edge">
<title>secteur nickel&#45;&#45;amélioration environnementale</title>
<path fill="none" stroke="darkgrey" stroke-width="1.16" d="M433.09,-405.77C501.52,-440.83 766.51,-576.57 799.36,-593.4"/>
</g>
<!-- secteur nickel&#45;&#45;société néo&#45;calédonienne -->
<g id="edge110" class="edge">
<title>secteur nickel&#45;&#45;société néo&#45;calédonienne</title>
<path fill="none" stroke="darkgrey" stroke-width="1.4" d="M398.93,-395.71C347.8,-390.56 204.3,-376.12 180.01,-373.67"/>
</g>
<!-- secteur nickel&#45;&#45;exploitation minière -->
<g id="edge111" class="edge">
<title>secteur nickel&#45;&#45;exploitation minière</title>
<path fill="none" stroke="darkgrey" stroke-width="2.19" d="M406.49,-382.88C377.81,-342.89 298.62,-232.47 272.53,-196.1"/>
</g>
<!-- secteur nickel&#45;&#45;alternative au développement -->
<g id="edge112" class="edge">
<title>secteur nickel&#45;&#45;alternative au développement</title>
<path fill="none" stroke="darkgrey" stroke-width="1.27" d="M433.17,-405.61C476.53,-427.29 593.64,-485.84 615.22,-496.63"/>
</g>
<!-- secteur nickel&#45;&#45;matériel -->
<g id="edge113" class="edge">
<title>secteur nickel&#45;&#45;matériel</title>
<path fill="none" stroke="darkgrey" stroke-width="2.53" d="M404.2,-410.78C385.71,-429.91 351.93,-464.88 335.06,-482.34"/>
</g>
<!-- secteur nickel&#45;&#45;foncier -->
<g id="edge114" class="edge">
<title>secteur nickel&#45;&#45;foncier</title>
<path fill="none" stroke="darkgrey" stroke-width="1.94" d="M423.89,-414.3C440.27,-454.21 481.04,-553.5 491.88,-579.91"/>
</g>
<!-- secteur nickel&#45;&#45;relation politique -->
<g id="edge115" class="edge">
<title>secteur nickel&#45;&#45;relation politique</title>
<path fill="none" stroke="darkgrey" stroke-width="1.05" d="M420.55,-379.62C433.75,-313.06 479.53,-82.06 485.91,-49.91"/>
</g>
<!-- secteur nickel&#45;&#45;industrie -->
<g id="edge116" class="edge">
<title>secteur nickel&#45;&#45;industrie</title>
<path fill="none" stroke="darkgrey" stroke-width="5.22" d="M427.44,-382.76C448.6,-352.82 496.29,-285.32 517.49,-255.32"/>
</g>
<!-- secteur nickel&#45;&#45;échange commercial -->
<g id="edge117" class="edge">
<title>secteur nickel&#45;&#45;échange commercial</title>
<path fill="none" stroke="darkgrey" stroke-width="2.1" d="M415.24,-379.24C410.05,-325.35 394.96,-168.66 391.5,-132.68"/>
</g>
<!-- nature&#45;&#45;société néo&#45;calédonienne -->
<g id="edge118" class="edge">
<title>nature&#45;&#45;société néo&#45;calédonienne</title>
<path fill="none" stroke="darkgrey" stroke-width="1.44" d="M295.26,-390.19C265.04,-385.89 196.78,-376.2 180.19,-373.84"/>
</g>
<!-- nature&#45;&#45;exploitation minière -->
<g id="edge119" class="edge">
<title>nature&#45;&#45;exploitation minière</title>
<path fill="none" stroke="darkgrey" stroke-width="1.6" d="M306.64,-377.96C298.29,-339.97 275.61,-236.81 267.24,-198.71"/>
</g>
<!-- nature&#45;&#45;alternative au développement -->
<g id="edge120" class="edge">
<title>nature&#45;&#45;alternative au développement</title>
<path fill="none" stroke="darkgrey" d="M323.86,-397.08C380.03,-416.38 586.56,-487.32 615.33,-497.2"/>
</g>
<!-- nature&#45;&#45;matériel -->
<g id="edge121" class="edge">
<title>nature&#45;&#45;matériel</title>
<path fill="none" stroke="darkgrey" stroke-width="3.25" d="M311.95,-406.66C314.82,-425.78 319.87,-459.34 322.75,-478.45"/>
</g>
<!-- nature&#45;&#45;foncier -->
<g id="edge122" class="edge">
<title>nature&#45;&#45;foncier</title>
<path fill="none" stroke="darkgrey" stroke-width="1.55" d="M319.98,-402.97C354.33,-439.06 465.03,-555.41 489.67,-581.3"/>
</g>
<!-- nature&#45;&#45;industrie -->
<g id="edge123" class="edge">
<title>nature&#45;&#45;industrie</title>
<path fill="none" stroke="darkgrey" stroke-width="2.57" d="M321.82,-383.87C359.08,-357.96 472.4,-279.13 513.17,-250.77"/>
</g>
<!-- nature&#45;&#45;échange commercial -->
<g id="edge124" class="edge">
<title>nature&#45;&#45;échange commercial</title>
<path fill="none" stroke="darkgrey" stroke-width="1.3" d="M314.02,-378.27C328.8,-329.56 377.72,-168.3 388.62,-132.38"/>
</g>
<!-- société néo&#45;calédonienne&#45;&#45;matériel -->
<g id="edge125" class="edge">
<title>société néo&#45;calédonienne&#45;&#45;matériel</title>
<path fill="none" stroke="darkgrey" stroke-width="1.6" d="M179.33,-375.6C196,-389.03 281.69,-458.03 313.23,-483.44"/>
</g>
<!-- société néo&#45;calédonienne&#45;&#45;relation politique -->
<g id="edge126" class="edge">
<title>société néo&#45;calédonienne&#45;&#45;relation politique</title>
<path fill="none" stroke="darkgrey" stroke-width="1.13" d="M179.18,-370.49C207.72,-340.39 455.01,-79.55 483.89,-49.08"/>
</g>
<!-- exploitation minière&#45;&#45;matériel -->
<g id="edge127" class="edge">
<title>exploitation minière&#45;&#45;matériel</title>
<path fill="none" stroke="darkgrey" stroke-width="2.75" d="M266.93,-198.78C277.15,-250.6 311.86,-426.63 322.06,-478.4"/>
</g>
<!-- exploitation minière&#45;&#45;relation politique -->
<g id="edge128" class="edge">
<title>exploitation minière&#45;&#45;relation politique</title>
<path fill="none" stroke="darkgrey" stroke-width="1.03" d="M276.68,-176.49C319.9,-149.67 460.7,-62.28 483.51,-48.13"/>
</g>
<!-- exploitation minière&#45;&#45;industrie -->
<g id="edge129" class="edge">
<title>exploitation minière&#45;&#45;industrie</title>
<path fill="none" stroke="darkgrey" stroke-width="2.99" d="M278.26,-187.33C323.02,-196.86 461.14,-226.25 510.35,-236.72"/>
</g>
<!-- exploitation minière&#45;&#45;échange commercial -->
<g id="edge130" class="edge">
<title>exploitation minière&#45;&#45;échange commercial</title>
<path fill="none" stroke="darkgrey" stroke-width="1.91" d="M277.63,-177.99C304.7,-165.38 364.53,-137.49 384.3,-128.28"/>
</g>
<!-- alternative au développement&#45;&#45;industrie -->
<g id="edge131" class="edge">
<title>alternative au développement&#45;&#45;industrie</title>
<path fill="none" stroke="darkgrey" stroke-width="1.17" d="M617.38,-494.7C608.23,-468.68 552.68,-310.69 534.06,-257.75"/>
</g>
<!-- matériel&#45;&#45;foncier -->
<g id="edge132" class="edge">
<title>matériel&#45;&#45;foncier</title>
<path fill="none" stroke="darkgrey" stroke-width="1.42" d="M337.66,-499.87C371.57,-518.58 463.07,-569.07 488.14,-582.9"/>
</g>
<!-- matériel&#45;&#45;industrie -->
<g id="edge133" class="edge">
<title>matériel&#45;&#45;industrie</title>
<path fill="none" stroke="darkgrey" stroke-width="4.14" d="M334.16,-481.34C367.3,-440.17 479.97,-300.14 516.47,-254.78"/>
</g>
<!-- matériel&#45;&#45;échange commercial -->
<g id="edge134" class="edge">
<title>matériel&#45;&#45;échange commercial</title>
<path fill="none" stroke="darkgrey" stroke-width="1.79" d="M327.49,-478.43C338.53,-416.84 381.54,-176.82 389.51,-132.36"/>
</g>
<!-- foncier&#45;&#45;industrie -->
<g id="edge135" class="edge">
<title>foncier&#45;&#45;industrie</title>
<path fill="none" stroke="darkgrey" stroke-width="2.18" d="M495.26,-579.22C499.33,-537.1 520.01,-322.99 526.22,-258.73"/>
</g>
<!-- relation politique&#45;&#45;échange commercial -->
<g id="edge136" class="edge">
<title>relation politique&#45;&#45;échange commercial</title>
<path fill="none" stroke="darkgrey" stroke-width="1.3" d="M483.88,-48.46C470.74,-59.3 414.51,-105.68 396.41,-120.61"/>
</g>
<!-- industrie&#45;&#45;échange commercial -->
<g id="edge138" class="edge">
<title>industrie&#45;&#45;échange commercial</title>
<path fill="none" stroke="darkgrey" stroke-width="1.71" d="M514.07,-228.79C484.37,-203.85 415.85,-146.31 396.16,-129.77"/>
</g>
<!-- industrie&#45;&#45;risque -->
<g id="edge137" class="edge">
<title>industrie&#45;&#45;risque</title>
<path fill="none" stroke="darkgrey" stroke-width="1.09" d="M539.67,-226.71C579.4,-179.89 707.91,-28.45 726.77,-6.23"/>
</g>
<!-- pollution -->
<g id="node1" class="node">
<title>pollution</title>
<ellipse fill="#ae305c" stroke="white" stroke-width="0" cx="485.4" cy="-427.84" rx="18" ry="18"/>
<text text-anchor="middle" x="424.4" y="-451.84" font-family="Helvetica,sans-Serif" font-size="20.00" fill="#4d4d4d">pollution</text>
</g>
<!-- dégradation environnementale -->
<g id="node2" class="node">
<title>dégradation environnementale</title>
<ellipse fill="#f1ed71" stroke="white" stroke-width="0" cx="611.52" cy="-249.38" rx="32.5" ry="32.5"/>
<text text-anchor="middle" x="784.52" y="-195.76" font-family="Helvetica,sans-Serif" font-size="26.40" fill="#4d4d4d">dégradation environnementale</text>
</g>
<!-- nouvelle&#45;calédonie -->
<g id="node3" class="node">
<title>nouvelle&#45;calédonie</title>
<ellipse fill="#1e0c45" stroke="white" stroke-width="0" cx="315.61" cy="-77.18" rx="3.5" ry="3.5"/>
<text text-anchor="middle" x="248.11" y="-84.8" font-family="Helvetica,sans-Serif" font-size="13.60" fill="#4d4d4d">nouvelle&#45;calédonie</text>
</g>
<!-- travail -->
<g id="node4" class="node">
<title>travail</title>
<ellipse fill="#eb6429" stroke="white" stroke-width="0" cx="401.55" cy="-274.66" rx="25" ry="25"/>
<text text-anchor="middle" x="339.05" y="-307.1" font-family="Helvetica,sans-Serif" font-size="23.20" fill="#4d4d4d">travail</text>
</g>
<!-- économie -->
<g id="node5" class="node">
<title>économie</title>
<ellipse fill="#ba3655" stroke="white" stroke-width="0" cx="525.53" cy="-338.3" rx="18" ry="18"/>
<text text-anchor="middle" x="459.03" y="-362.3" font-family="Helvetica,sans-Serif" font-size="20.00" fill="#4d4d4d">économie</text>
</g>
<!-- nickel -->
<g id="node6" class="node">
<title>nickel</title>
<ellipse fill="#fcffa4" stroke="white" stroke-width="0" cx="636.13" cy="-318.56" rx="36" ry="36"/>
<text text-anchor="middle" x="559.13" y="-291.16" font-family="Helvetica,sans-Serif" font-size="28.00" fill="#4d4d4d">nickel</text>
</g>
<!-- ressource minière -->
<g id="node7" class="node">
<title>ressource minière</title>
<ellipse fill="#6a176e" stroke="white" stroke-width="0" cx="277.76" cy="-286.98" rx="11" ry="11"/>
<text text-anchor="middle" x="190.76" y="-302.54" font-family="Helvetica,sans-Serif" font-size="16.80" fill="#4d4d4d">ressource minière</text>
</g>
<!-- politique -->
<g id="node8" class="node">
<title>politique</title>
<ellipse fill="#9d2964" stroke="white" stroke-width="0" cx="453.93" cy="-206.2" rx="14.5" ry="14.5"/>
<text text-anchor="middle" x="398.43" y="-225.98" font-family="Helvetica,sans-Serif" font-size="18.40" fill="#4d4d4d">politique</text>
</g>
<!-- secteur nickel -->
<g id="node9" class="node">
<title>secteur nickel</title>
<ellipse fill="#b63458" stroke="white" stroke-width="0" cx="417" cy="-397.53" rx="18" ry="18"/>
<text text-anchor="middle" x="329.5" y="-421.53" font-family="Helvetica,sans-Serif" font-size="20.00" fill="#4d4d4d">secteur nickel</text>
</g>
<!-- nature -->
<g id="node10" class="node">
<title>nature</title>
<ellipse fill="#88226a" stroke="white" stroke-width="0" cx="309.78" cy="-392.25" rx="14.5" ry="14.5"/>
<text text-anchor="middle" x="264.28" y="-383.03" font-family="Helvetica,sans-Serif" font-size="18.40" fill="#4d4d4d">nature</text>
</g>
<!-- amélioration environnementale -->
<g id="node11" class="node">
<title>amélioration environnementale</title>
<ellipse fill="#040312" stroke="white" stroke-width="0" cx="802.71" cy="-595.12" rx="3.5" ry="3.5"/>
<text text-anchor="middle" x="693.21" y="-602.74" font-family="Helvetica,sans-Serif" font-size="13.60" fill="#4d4d4d">amélioration environnementale</text>
</g>
<!-- société néo&#45;calédonienne -->
<g id="node12" class="node">
<title>société néo&#45;calédonienne</title>
<ellipse fill="#190c3e" stroke="white" stroke-width="0" cx="176.5" cy="-373.32" rx="3.5" ry="3.5"/>
<text text-anchor="middle" x="86.5" y="-380.94" font-family="Helvetica,sans-Serif" font-size="13.60" fill="#4d4d4d">société néo&#45;calédonienne</text>
</g>
<!-- exploitation minière -->
<g id="node13" class="node">
<title>exploitation minière</title>
<ellipse fill="#7d1e6d" stroke="white" stroke-width="0" cx="264.07" cy="-184.31" rx="14.5" ry="14.5"/>
<text text-anchor="middle" x="156.07" y="-204.09" font-family="Helvetica,sans-Serif" font-size="18.40" fill="#4d4d4d">exploitation minière</text>
</g>
<!-- alternative au développement -->
<g id="node14" class="node">
<title>alternative au développement</title>
<ellipse fill="#140b34" stroke="white" stroke-width="0" cx="618.66" cy="-498.35" rx="3.5" ry="3.5"/>
<text text-anchor="middle" x="512.16" y="-505.97" font-family="Helvetica,sans-Serif" font-size="13.60" fill="#4d4d4d">alternative au développement</text>
</g>
<!-- matériel -->
<g id="node15" class="node">
<title>matériel</title>
<ellipse fill="#932667" stroke="white" stroke-width="0" cx="324.91" cy="-492.84" rx="14.5" ry="14.5"/>
<text text-anchor="middle" x="271.41" y="-512.62" font-family="Helvetica,sans-Serif" font-size="18.40" fill="#4d4d4d">matériel</text>
</g>
<!-- foncier -->
<g id="node16" class="node">
<title>foncier</title>
<ellipse fill="#260c51" stroke="white" stroke-width="0" cx="494.56" cy="-586.44" rx="7" ry="7"/>
<text text-anchor="middle" x="461.56" y="-598.28" font-family="Helvetica,sans-Serif" font-size="15.20" fill="#4d4d4d">foncier</text>
</g>
<!-- relation politique -->
<g id="node17" class="node">
<title>relation politique</title>
<ellipse fill="#0c0826" stroke="white" stroke-width="0" cx="486.64" cy="-46.18" rx="3.5" ry="3.5"/>
<text text-anchor="middle" x="425.64" y="-53.8" font-family="Helvetica,sans-Serif" font-size="13.60" fill="#4d4d4d">relation politique</text>
</g>
<!-- industrie -->
<g id="node18" class="node">
<title>industrie</title>
<ellipse fill="#b43359" stroke="white" stroke-width="0" cx="527.98" cy="-240.47" rx="18" ry="18"/>
<text text-anchor="middle" x="536.98" y="-206.47" font-family="Helvetica,sans-Serif" font-size="20.00" fill="#4d4d4d">industrie</text>
</g>
<!-- échange commercial -->
<g id="node19" class="node">
<title>échange commercial</title>
<ellipse fill="#390963" stroke="white" stroke-width="0" cx="390.78" cy="-125.26" rx="7" ry="7"/>
<text text-anchor="middle" x="304.78" y="-137.1" font-family="Helvetica,sans-Serif" font-size="15.20" fill="#4d4d4d">échange commercial</text>
</g>
<!-- risque -->
<g id="node20" class="node">
<title>risque</title>
<ellipse fill="#050417" stroke="white" stroke-width="0" cx="729.09" cy="-3.5" rx="3.5" ry="3.5"/>
<text text-anchor="middle" x="704.59" y="-11.12" font-family="Helvetica,sans-Serif" font-size="13.60" fill="#4d4d4d">risque</text>
</g>
<!-- avenir sans nickel -->
<g id="node21" class="node">
<title>avenir sans nickel</title>
<ellipse fill="#000004" stroke="white" stroke-width="0" cx="1090.1" cy="-206.26" rx="0.5" ry="0.5"/>
<text text-anchor="middle" x="1143.1" y="-210.16" font-family="Helvetica,sans-Serif" font-size="12.00" fill="#4d4d4d">avenir sans nickel</text>
</g>
</g>
</svg>
