<?xml version="1.0" encoding="UTF-8" standalone="no"?>
<!DOCTYPE svg PUBLIC "-//W3C//DTD SVG 1.1//EN"
 "http://www.w3.org/Graphics/SVG/1.1/DTD/svg11.dtd">
<!-- Generated by graphviz version 2.43.0 (0)
 -->
<!-- Pages: 1 -->
<svg width="574pt" height="379pt"
 viewBox="0.00 0.00 573.61 379.11" xmlns="http://www.w3.org/2000/svg" xmlns:xlink="http://www.w3.org/1999/xlink">
<g id="graph0" class="graph" transform="scale(1 1) rotate(0) translate(4 375.11)">
<polygon fill="white" stroke="transparent" points="-4,4 -4,-375.11 569.61,-375.11 569.61,4 -4,4"/>
<!-- pollution&#45;&#45;emploi -->
<g id="edge1" class="edge">
<title>pollution&#45;&#45;emploi</title>
<path fill="none" stroke="darkgrey" stroke-width="10" d="M255.4,-160.88C268.25,-149.94 284.47,-136.12 298.08,-124.53"/>
</g>
<!-- pollution&#45;&#45;richesse -->
<g id="edge2" class="edge">
<title>pollution&#45;&#45;richesse</title>
<path fill="none" stroke="darkgrey" stroke-width="1.19" d="M242.96,-152.63C254.65,-120.57 273.45,-69.02 281.5,-46.96"/>
</g>
<!-- pollution&#45;&#45;démolition -->
<g id="edge3" class="edge">
<title>pollution&#45;&#45;démolition</title>
<path fill="none" stroke="darkgrey" stroke-width="2.8" d="M206.44,-167.88C182.08,-156.79 147.69,-141.13 133.36,-134.6"/>
</g>
<!-- pollution&#45;&#45;argent -->
<g id="edge4" class="edge">
<title>pollution&#45;&#45;argent</title>
<path fill="none" stroke="darkgrey" stroke-width="1.29" d="M234.11,-150.64C234.83,-131.86 235.7,-108.95 236.14,-97.55"/>
</g>
<!-- pollution&#45;&#45;nickel -->
<g id="edge5" class="edge">
<title>pollution&#45;&#45;nickel</title>
<path fill="none" stroke="darkgrey" stroke-width="4.22" d="M261.91,-177.49C290.08,-175.07 332.84,-171.4 362.19,-168.88"/>
</g>
<!-- pollution&#45;&#45;exploitation -->
<g id="edge6" class="edge">
<title>pollution&#45;&#45;exploitation</title>
<path fill="none" stroke="darkgrey" stroke-width="1.19" d="M258.66,-194.31C293.23,-213.62 353.45,-247.25 379.79,-261.96"/>
</g>
<!-- pollution&#45;&#45;camion -->
<g id="edge7" class="edge">
<title>pollution&#45;&#45;camion</title>
<path fill="none" stroke="darkgrey" stroke-width="1.41" d="M239.08,-208.37C241.93,-221.66 245.16,-236.7 247.28,-246.58"/>
</g>
<!-- pollution&#45;&#45;économie -->
<g id="edge8" class="edge">
<title>pollution&#45;&#45;économie</title>
<path fill="none" stroke="darkgrey" stroke-width="4.19" d="M262.17,-176.62C272.99,-175.38 284.95,-174 294.49,-172.91"/>
</g>
<!-- pollution&#45;&#45;impact environnemental -->
<g id="edge9" class="edge">
<title>pollution&#45;&#45;impact environnemental</title>
<path fill="none" stroke="darkgrey" stroke-width="4.02" d="M257.56,-195.95C274.11,-206.7 295.4,-220.55 309.52,-229.72"/>
</g>
<!-- pollution&#45;&#45;développement -->
<g id="edge10" class="edge">
<title>pollution&#45;&#45;développement</title>
<path fill="none" stroke="darkgrey" stroke-width="1.18" d="M212.33,-200.39C183.45,-228.94 133.84,-277.96 127.75,-283.98"/>
</g>
<!-- pollution&#45;&#45;déforestation -->
<g id="edge11" class="edge">
<title>pollution&#45;&#45;déforestation</title>
<path fill="none" stroke="darkgrey" stroke-width="1.58" d="M203.78,-181.45C159.93,-183.66 80.28,-187.68 62.21,-188.59"/>
</g>
<!-- emploi&#45;&#45;richesse -->
<g id="edge12" class="edge">
<title>emploi&#45;&#45;richesse</title>
<path fill="none" stroke="darkgrey" stroke-width="3" d="M306.4,-70.27C300.9,-61.41 295.3,-52.4 291.27,-45.9"/>
</g>
<!-- emploi&#45;&#45;argent -->
<g id="edge13" class="edge">
<title>emploi&#45;&#45;argent</title>
<path fill="none" stroke="darkgrey" stroke-width="2.56" d="M289.82,-96.81C272.57,-94.74 253.49,-92.44 243.46,-91.24"/>
</g>
<!-- emploi&#45;&#45;nickel -->
<g id="edge14" class="edge">
<title>emploi&#45;&#45;nickel</title>
<path fill="none" stroke="darkgrey" stroke-width="5.47" d="M352.12,-126.04C358.22,-131.77 364.67,-137.83 370.66,-143.45"/>
</g>
<!-- emploi&#45;&#45;économie -->
<g id="edge15" class="edge">
<title>emploi&#45;&#45;économie</title>
<path fill="none" stroke="darkgrey" stroke-width="7.39" d="M318.92,-136.78C317.87,-142.41 316.82,-148.01 315.89,-153"/>
</g>
<!-- emploi&#45;&#45;impact environnemental -->
<g id="edge16" class="edge">
<title>emploi&#45;&#45;impact environnemental</title>
<path fill="none" stroke="darkgrey" stroke-width="4.96" d="M325.34,-137.13C325.16,-164.21 324.92,-200.18 324.78,-221.5"/>
</g>
<!-- emploi&#45;&#45;conflit -->
<g id="edge17" class="edge">
<title>emploi&#45;&#45;conflit</title>
<path fill="none" stroke="darkgrey" stroke-width="1.69" d="M340.58,-68.06C351.13,-44.83 364.1,-16.27 368.42,-6.75"/>
</g>
<!-- richesse&#45;&#45;nickel -->
<g id="edge18" class="edge">
<title>richesse&#45;&#45;nickel</title>
<path fill="none" stroke="darkgrey" stroke-width="1.31" d="M292.53,-44.9C308.74,-64.12 348.7,-111.49 373.59,-140.99"/>
</g>
<!-- argent&#45;&#45;nickel -->
<g id="edge19" class="edge">
<title>argent&#45;&#45;nickel</title>
<path fill="none" stroke="darkgrey" stroke-width="1.99" d="M242.81,-93.45C263.12,-103.16 327,-133.69 365.16,-151.94"/>
</g>
<!-- nickel&#45;&#45;exploitation -->
<g id="edge20" class="edge">
<title>nickel&#45;&#45;exploitation</title>
<path fill="none" stroke="darkgrey" stroke-width="1.88" d="M394.12,-198.71C393.75,-217.47 393.3,-240.11 393.02,-254.58"/>
</g>
<!-- nickel&#45;&#45;camion -->
<g id="edge22" class="edge">
<title>nickel&#45;&#45;camion</title>
<path fill="none" stroke="darkgrey" stroke-width="2.3" d="M367.11,-183.48C334.05,-204.28 280.46,-237.99 258.96,-251.51"/>
</g>
<!-- nickel&#45;&#45;économie -->
<g id="edge23" class="edge">
<title>nickel&#45;&#45;économie</title>
<path fill="none" stroke="darkgrey" stroke-width="2.48" d="M362.27,-167.96C351.5,-168.58 339.91,-169.25 330.63,-169.79"/>
</g>
<!-- nickel&#45;&#45;impact environnemental -->
<g id="edge24" class="edge">
<title>nickel&#45;&#45;impact environnemental</title>
<path fill="none" stroke="darkgrey" stroke-width="1.23" d="M372.19,-189.74C360.67,-201.82 347.07,-216.08 337.38,-226.24"/>
</g>
<!-- nickel&#45;&#45;montagne -->
<g id="edge21" class="edge">
<title>nickel&#45;&#45;montagne</title>
<path fill="none" stroke="darkgrey" stroke-width="1.15" d="M411.69,-137.99C429.78,-107.98 457.2,-62.48 467.22,-45.85"/>
</g>
<!-- nickel&#45;&#45;terre rouge -->
<g id="edge25" class="edge">
<title>nickel&#45;&#45;terre rouge</title>
<path fill="none" stroke="darkgrey" stroke-width="1.23" d="M427.5,-165.65C467.21,-165.11 530.87,-164.26 547.08,-164.04"/>
</g>
<!-- nickel&#45;&#45;usine -->
<g id="edge26" class="edge">
<title>nickel&#45;&#45;usine</title>
<path fill="none" stroke="darkgrey" stroke-width="2.34" d="M400.4,-198.15C408.4,-243.66 422.55,-324.11 426.78,-348.15"/>
</g>
<!-- nickel&#45;&#45;sln -->
<g id="edge27" class="edge">
<title>nickel&#45;&#45;sln</title>
<path fill="none" stroke="darkgrey" stroke-width="3.22" d="M422.92,-149.82C462.27,-127.09 531.23,-87.25 552.31,-75.08"/>
</g>
<!-- nickel&#45;&#45;minerai -->
<g id="edge28" class="edge">
<title>nickel&#45;&#45;minerai</title>
<path fill="none" stroke="darkgrey" stroke-width="1.83" d="M419.08,-187.88C443.77,-210 480.25,-242.69 494.06,-255.06"/>
</g>
<!-- exploitation&#45;&#45;impact environnemental -->
<g id="edge29" class="edge">
<title>exploitation&#45;&#45;impact environnemental</title>
<path fill="none" stroke="darkgrey" stroke-width="1.09" d="M379.28,-263.34C368.44,-258.61 353.12,-251.95 341.46,-246.88"/>
</g>
<!-- exploitation&#45;&#45;minerai -->
<g id="edge31" class="edge">
<title>exploitation&#45;&#45;minerai</title>
<path fill="none" stroke="darkgrey" stroke-width="1.68" d="M407.59,-267.92C430.88,-265.92 475.11,-262.14 492.42,-260.66"/>
</g>
<!-- exploitation&#45;&#45;ressource -->
<g id="edge30" class="edge">
<title>exploitation&#45;&#45;ressource</title>
<path fill="none" stroke="darkgrey" stroke-width="1.23" d="M405.47,-276.53C427.24,-289.08 470.84,-314.21 487.04,-323.55"/>
</g>
<!-- économie&#45;&#45;impact environnemental -->
<g id="edge32" class="edge">
<title>économie&#45;&#45;impact environnemental</title>
<path fill="none" stroke="darkgrey" stroke-width="5.75" d="M315.75,-188.89C317.51,-198.91 319.7,-211.35 321.47,-221.39"/>
</g>
<!-- usine&#45;&#45;minerai -->
<g id="edge33" class="edge">
<title>usine&#45;&#45;minerai</title>
<path fill="none" stroke="darkgrey" stroke-width="1.29" d="M432.27,-349.45C444.92,-332.66 482.14,-283.25 495.11,-266.04"/>
</g>
<!-- ressource&#45;&#45;minerai -->
<g id="edge34" class="edge">
<title>ressource&#45;&#45;minerai</title>
<path fill="none" stroke="darkgrey" d="M493.97,-319.97C495.18,-307.12 497.71,-280.33 498.93,-267.38"/>
</g>
<!-- pollution -->
<g id="node1" class="node">
<title>pollution</title>
<ellipse fill="#fb9d07" stroke="white" stroke-width="0" cx="232.99" cy="-179.98" rx="29" ry="29"/>
<text text-anchor="middle" x="185.49" y="-211.58" font-family="Helvetica,sans-Serif" font-size="8.00" fill="#4d4d4d">pollution</text>
</g>
<!-- emploi -->
<g id="node2" class="node">
<title>emploi</title>
<ellipse fill="#fcffa4" stroke="white" stroke-width="0" cx="325.57" cy="-101.11" rx="36" ry="36"/>
<text text-anchor="middle" x="275.57" y="-139.71" font-family="Helvetica,sans-Serif" font-size="8.00" fill="#4d4d4d">emploi</text>
</g>
<!-- richesse -->
<g id="node3" class="node">
<title>richesse</title>
<ellipse fill="#59106e" stroke="white" stroke-width="0" cx="285.35" cy="-36.39" rx="11" ry="11"/>
<text text-anchor="middle" x="256.85" y="-49.99" font-family="Helvetica,sans-Serif" font-size="8.00" fill="#4d4d4d">richesse</text>
</g>
<!-- démolition -->
<g id="node4" class="node">
<title>démolition</title>
<ellipse fill="#240c4f" stroke="white" stroke-width="0" cx="126.68" cy="-131.56" rx="7" ry="7"/>
<text text-anchor="middle" x="97.68" y="-141.16" font-family="Helvetica,sans-Serif" font-size="8.00" fill="#4d4d4d">démolition</text>
</g>
<!-- argent -->
<g id="node5" class="node">
<title>argent</title>
<ellipse fill="#3d0965" stroke="white" stroke-width="0" cx="236.41" cy="-90.39" rx="7" ry="7"/>
<text text-anchor="middle" x="215.41" y="-99.99" font-family="Helvetica,sans-Serif" font-size="8.00" fill="#4d4d4d">argent</text>
</g>
<!-- nickel -->
<g id="node6" class="node">
<title>nickel</title>
<ellipse fill="#f7d13d" stroke="white" stroke-width="0" cx="394.76" cy="-166.09" rx="32.5" ry="32.5"/>
<text text-anchor="middle" x="350.26" y="-201.19" font-family="Helvetica,sans-Serif" font-size="8.00" fill="#4d4d4d">nickel</text>
</g>
<!-- exploitation -->
<g id="node7" class="node">
<title>exploitation</title>
<ellipse fill="#84206b" stroke="white" stroke-width="0" cx="392.73" cy="-269.19" rx="14.5" ry="14.5"/>
<text text-anchor="middle" x="353.73" y="-286.29" font-family="Helvetica,sans-Serif" font-size="8.00" fill="#4d4d4d">exploitation</text>
</g>
<!-- camion -->
<g id="node8" class="node">
<title>camion</title>
<ellipse fill="#540f6d" stroke="white" stroke-width="0" cx="249.6" cy="-257.4" rx="11" ry="11"/>
<text text-anchor="middle" x="223.1" y="-271" font-family="Helvetica,sans-Serif" font-size="8.00" fill="#4d4d4d">camion</text>
</g>
<!-- économie -->
<g id="node9" class="node">
<title>économie</title>
<ellipse fill="#b93556" stroke="white" stroke-width="0" cx="312.57" cy="-170.83" rx="18" ry="18"/>
<text text-anchor="middle" x="315.07" y="-191.43" font-family="Helvetica,sans-Serif" font-size="8.00" fill="#4d4d4d">économie</text>
</g>
<!-- impact environnemental -->
<g id="node10" class="node">
<title>impact environnemental</title>
<ellipse fill="#c83f4b" stroke="white" stroke-width="0" cx="324.66" cy="-239.57" rx="18" ry="18"/>
<text text-anchor="middle" x="256.66" y="-224.17" font-family="Helvetica,sans-Serif" font-size="8.00" fill="#4d4d4d">impact environnemental</text>
</g>
<!-- développement -->
<g id="node11" class="node">
<title>développement</title>
<ellipse fill="#000004" stroke="white" stroke-width="0" cx="127.13" cy="-284.59" rx="0.5" ry="0.5"/>
<text text-anchor="middle" x="94.13" y="-287.69" font-family="Helvetica,sans-Serif" font-size="8.00" fill="#4d4d4d">développement</text>
</g>
<!-- déforestation -->
<g id="node12" class="node">
<title>déforestation</title>
<ellipse fill="#09061f" stroke="white" stroke-width="0" cx="58.5" cy="-188.78" rx="3.5" ry="3.5"/>
<text text-anchor="middle" x="27.5" y="-194.88" font-family="Helvetica,sans-Serif" font-size="8.00" fill="#4d4d4d">déforestation</text>
</g>
<!-- conflit -->
<g id="node13" class="node">
<title>conflit</title>
<ellipse fill="#1f0c48" stroke="white" stroke-width="0" cx="369.89" cy="-3.5" rx="3.5" ry="3.5"/>
<text text-anchor="middle" x="353.39" y="-9.6" font-family="Helvetica,sans-Serif" font-size="8.00" fill="#4d4d4d">conflit</text>
</g>
<!-- montagne -->
<g id="node14" class="node">
<title>montagne</title>
<ellipse fill="#260c51" stroke="white" stroke-width="0" cx="471.05" cy="-39.48" rx="7" ry="7"/>
<text text-anchor="middle" x="442.55" y="-49.08" font-family="Helvetica,sans-Serif" font-size="8.00" fill="#4d4d4d">montagne</text>
</g>
<!-- terre rouge -->
<g id="node15" class="node">
<title>terre rouge</title>
<ellipse fill="#0b0724" stroke="white" stroke-width="0" cx="550.94" cy="-163.99" rx="3.5" ry="3.5"/>
<text text-anchor="middle" x="524.94" y="-170.09" font-family="Helvetica,sans-Serif" font-size="8.00" fill="#4d4d4d">terre rouge</text>
</g>
<!-- usine -->
<g id="node16" class="node">
<title>usine</title>
<ellipse fill="#3b0964" stroke="white" stroke-width="0" cx="428" cy="-355.11" rx="7" ry="7"/>
<text text-anchor="middle" x="409.5" y="-364.71" font-family="Helvetica,sans-Serif" font-size="8.00" fill="#4d4d4d">usine</text>
</g>
<!-- sln -->
<g id="node17" class="node">
<title>sln</title>
<ellipse fill="#260c51" stroke="white" stroke-width="0" cx="558.61" cy="-71.44" rx="7" ry="7"/>
<text text-anchor="middle" x="545.11" y="-81.04" font-family="Helvetica,sans-Serif" font-size="8.00" fill="#4d4d4d">sln</text>
</g>
<!-- minerai -->
<g id="node18" class="node">
<title>minerai</title>
<ellipse fill="#3e0966" stroke="white" stroke-width="0" cx="499.62" cy="-260.04" rx="7" ry="7"/>
<text text-anchor="middle" x="477.12" y="-269.64" font-family="Helvetica,sans-Serif" font-size="8.00" fill="#4d4d4d">minerai</text>
</g>
<!-- ressource -->
<g id="node19" class="node">
<title>ressource</title>
<ellipse fill="#2f0a5b" stroke="white" stroke-width="0" cx="493.29" cy="-327.16" rx="7" ry="7"/>
<text text-anchor="middle" x="466.29" y="-336.76" font-family="Helvetica,sans-Serif" font-size="8.00" fill="#4d4d4d">ressource</text>
</g>
</g>
</svg>
