<?xml version="1.0" encoding="UTF-8" standalone="no"?>
<!DOCTYPE svg PUBLIC "-//W3C//DTD SVG 1.1//EN"
 "http://www.w3.org/Graphics/SVG/1.1/DTD/svg11.dtd">
<!-- Generated by graphviz version 2.43.0 (0)
 -->
<!-- Pages: 1 -->
<svg width="330pt" height="243pt"
 viewBox="0.00 0.00 330.00 242.86" xmlns="http://www.w3.org/2000/svg" xmlns:xlink="http://www.w3.org/1999/xlink">
<g id="graph0" class="graph" transform="scale(1 1) rotate(0) translate(4 238.86)">
<polygon fill="white" stroke="transparent" points="-4,4 -4,-238.86 326,-238.86 326,4 -4,4"/>
<!-- emploi&#45;&#45;pollution -->
<g id="edge1" class="edge">
<title>emploi&#45;&#45;pollution</title>
<path fill="none" stroke="darkgrey" stroke-width="9.35" d="M210.19,-78.52C195.5,-85.37 173.47,-95.65 155.11,-104.21"/>
</g>
<!-- emploi&#45;&#45;impact environnemental -->
<g id="edge2" class="edge">
<title>emploi&#45;&#45;impact environnemental</title>
<path fill="none" stroke="darkgrey" stroke-width="1.7" d="M211.11,-61.21C195.96,-51.66 172.96,-37.17 157.84,-27.64"/>
</g>
<!-- emploi&#45;&#45;végétalisation -->
<g id="edge3" class="edge">
<title>emploi&#45;&#45;végétalisation</title>
<path fill="none" stroke="darkgrey" d="M242.53,-79.89C264.77,-92.36 303.56,-114.1 315.14,-120.59"/>
</g>
<!-- pollution&#45;&#45;impact environnemental -->
<g id="edge5" class="edge">
<title>pollution&#45;&#45;impact environnemental</title>
<path fill="none" stroke="darkgrey" stroke-width="7.94" d="M129.22,-84.08C132.52,-67.71 136.29,-49.01 138.97,-35.69"/>
</g>
<!-- pollution&#45;&#45;épuisable -->
<g id="edge4" class="edge">
<title>pollution&#45;&#45;épuisable</title>
<path fill="none" stroke="darkgrey" stroke-width="10" d="M140.57,-150.68C150.36,-167.11 161.84,-186.37 169.2,-198.71"/>
</g>
<!-- pollution&#45;&#45;démolition -->
<g id="edge6" class="edge">
<title>pollution&#45;&#45;démolition</title>
<path fill="none" stroke="darkgrey" stroke-width="6.1" d="M105.39,-151.81C90.34,-180.87 70.18,-219.77 67.72,-224.52"/>
</g>
<!-- pollution&#45;&#45;économie -->
<g id="edge7" class="edge">
<title>pollution&#45;&#45;économie</title>
<path fill="none" stroke="darkgrey" stroke-width="4.56" d="M99.12,-91.42C85.23,-74.35 68.45,-53.72 59.13,-42.26"/>
</g>
<!-- impact environnemental&#45;&#45;économie -->
<g id="edge8" class="edge">
<title>impact environnemental&#45;&#45;économie</title>
<path fill="none" stroke="darkgrey" stroke-width="1.98" d="M124.65,-21.06C106.3,-24.2 78.35,-28.98 63.01,-31.61"/>
</g>
<!-- emploi -->
<g id="node1" class="node">
<title>emploi</title>
<ellipse fill="#c13a50" stroke="white" stroke-width="0" cx="226.51" cy="-70.91" rx="18" ry="18"/>
<text text-anchor="middle" x="194.51" y="-91.51" font-family="Helvetica,sans-Serif" font-size="8.00" fill="#4d4d4d">emploi</text>
</g>
<!-- pollution -->
<g id="node2" class="node">
<title>pollution</title>
<ellipse fill="#fcffa4" stroke="white" stroke-width="0" cx="122.06" cy="-119.63" rx="36" ry="36"/>
<text text-anchor="middle" x="67.56" y="-158.23" font-family="Helvetica,sans-Serif" font-size="8.00" fill="#4d4d4d">pollution</text>
</g>
<!-- impact environnemental -->
<g id="node3" class="node">
<title>impact environnemental</title>
<ellipse fill="#ab2f5e" stroke="white" stroke-width="0" cx="142.54" cy="-18" rx="18" ry="18"/>
<text text-anchor="middle" x="74.54" y="-2.6" font-family="Helvetica,sans-Serif" font-size="8.00" fill="#4d4d4d">impact environnemental</text>
</g>
<!-- végétalisation -->
<g id="node4" class="node">
<title>végétalisation</title>
<ellipse fill="#1e0c45" stroke="white" stroke-width="0" cx="318.5" cy="-122.47" rx="3.5" ry="3.5"/>
<text text-anchor="middle" x="285.5" y="-128.57" font-family="Helvetica,sans-Serif" font-size="8.00" fill="#4d4d4d">végétalisation</text>
</g>
<!-- épuisable -->
<g id="node5" class="node">
<title>épuisable</title>
<ellipse fill="#7c1d6d" stroke="white" stroke-width="0" cx="176.74" cy="-211.36" rx="14.5" ry="14.5"/>
<text text-anchor="middle" x="141.74" y="-228.46" font-family="Helvetica,sans-Serif" font-size="8.00" fill="#4d4d4d">épuisable</text>
</g>
<!-- démolition -->
<g id="node6" class="node">
<title>démolition</title>
<ellipse fill="#000004" stroke="white" stroke-width="0" cx="67.48" cy="-225" rx="0.5" ry="0.5"/>
<text text-anchor="middle" x="44.98" y="-228.1" font-family="Helvetica,sans-Serif" font-size="8.00" fill="#4d4d4d">démolition</text>
</g>
<!-- économie -->
<g id="node7" class="node">
<title>économie</title>
<ellipse fill="#64156e" stroke="white" stroke-width="0" cx="52" cy="-33.49" rx="11" ry="11"/>
<text text-anchor="middle" x="20.5" y="-47.09" font-family="Helvetica,sans-Serif" font-size="8.00" fill="#4d4d4d">économie</text>
</g>
</g>
</svg>
