<?xml version="1.0" encoding="UTF-8" standalone="no"?>
<!DOCTYPE svg PUBLIC "-//W3C//DTD SVG 1.1//EN"
 "http://www.w3.org/Graphics/SVG/1.1/DTD/svg11.dtd">
<!-- Generated by graphviz version 2.43.0 (0)
 -->
<!-- Pages: 1 -->
<svg width="955pt" height="511pt"
 viewBox="0.00 0.00 955.14 510.62" xmlns="http://www.w3.org/2000/svg" xmlns:xlink="http://www.w3.org/1999/xlink">
<g id="graph0" class="graph" transform="scale(1 1) rotate(0) translate(4 506.62)">
<polygon fill="white" stroke="transparent" points="-4,4 -4,-506.62 951.14,-506.62 951.14,4 -4,4"/>
<!-- pollution&#45;&#45;dégradation environnementale -->
<g id="edge1" class="edge">
<title>pollution&#45;&#45;dégradation environnementale</title>
<path fill="none" stroke="darkgrey" stroke-width="9.06" d="M446.41,-168.23C458.16,-192.18 480.4,-237.53 495.57,-268.45"/>
</g>
<!-- pollution&#45;&#45;nouvelle&#45;calédonie -->
<g id="edge2" class="edge">
<title>pollution&#45;&#45;nouvelle&#45;calédonie</title>
<path fill="none" stroke="darkgrey" stroke-width="1.57" d="M420.16,-151.58C363.17,-150.22 191.11,-146.11 163.26,-145.44"/>
</g>
<!-- pollution&#45;&#45;travail -->
<g id="edge3" class="edge">
<title>pollution&#45;&#45;travail</title>
<path fill="none" stroke="darkgrey" stroke-width="6.53" d="M421.2,-145.6C407.37,-140.47 387.94,-133.25 373.38,-127.84"/>
</g>
<!-- pollution&#45;&#45;économie -->
<g id="edge4" class="edge">
<title>pollution&#45;&#45;économie</title>
<path fill="none" stroke="darkgrey" stroke-width="5.41" d="M435.55,-169.84C432.7,-187.25 428.38,-213.64 425.52,-231.13"/>
</g>
<!-- pollution&#45;&#45;nickel -->
<g id="edge5" class="edge">
<title>pollution&#45;&#45;nickel</title>
<path fill="none" stroke="darkgrey" stroke-width="5.32" d="M451.41,-164.58C462.11,-174.96 477.64,-190.03 490.89,-202.89"/>
</g>
<!-- pollution&#45;&#45;ressource minière -->
<g id="edge6" class="edge">
<title>pollution&#45;&#45;ressource minière</title>
<path fill="none" stroke="darkgrey" stroke-width="2.17" d="M422.86,-161.71C372.22,-193.16 213.31,-291.86 172.58,-317.15"/>
</g>
<!-- pollution&#45;&#45;politique -->
<g id="edge7" class="edge">
<title>pollution&#45;&#45;politique</title>
<path fill="none" stroke="darkgrey" stroke-width="3.26" d="M420.63,-155.12C385.68,-161.19 308.84,-174.54 276.9,-180.09"/>
</g>
<!-- pollution&#45;&#45;secteur nickel -->
<g id="edge8" class="edge">
<title>pollution&#45;&#45;secteur nickel</title>
<path fill="none" stroke="darkgrey" stroke-width="3.37" d="M422.98,-161.69C408.75,-170.57 387.79,-183.66 373.58,-192.53"/>
</g>
<!-- pollution&#45;&#45;nature -->
<g id="edge9" class="edge">
<title>pollution&#45;&#45;nature</title>
<path fill="none" stroke="darkgrey" stroke-width="3.63" d="M421.43,-158.03C374.12,-174.74 241.78,-221.49 198.65,-236.72"/>
</g>
<!-- pollution&#45;&#45;amélioration environnementale -->
<g id="edge10" class="edge">
<title>pollution&#45;&#45;amélioration environnementale</title>
<path fill="none" stroke="darkgrey" stroke-width="1.19" d="M456.42,-148.34C516.32,-136.06 706.26,-97.14 718.07,-94.72"/>
</g>
<!-- pollution&#45;&#45;société néo&#45;calédonienne -->
<g id="edge11" class="edge">
<title>pollution&#45;&#45;société néo&#45;calédonienne</title>
<path fill="none" stroke="darkgrey" stroke-width="1.69" d="M422.1,-144.08C376.71,-122.05 251.06,-61.07 228.85,-50.29"/>
</g>
<!-- pollution&#45;&#45;exploitation minière -->
<g id="edge12" class="edge">
<title>pollution&#45;&#45;exploitation minière</title>
<path fill="none" stroke="darkgrey" stroke-width="2.34" d="M432.2,-168.96C418.61,-205.67 386.68,-291.96 374.26,-325.51"/>
</g>
<!-- pollution&#45;&#45;alternative au développement -->
<g id="edge13" class="edge">
<title>pollution&#45;&#45;alternative au développement</title>
<path fill="none" stroke="darkgrey" stroke-width="2.04" d="M430.27,-168.49C399.12,-231.05 289.18,-451.9 274.71,-480.96"/>
</g>
<!-- pollution&#45;&#45;matériel -->
<g id="edge14" class="edge">
<title>pollution&#45;&#45;matériel</title>
<path fill="none" stroke="darkgrey" stroke-width="2.93" d="M440.15,-170.18C444.28,-214.64 454.83,-328.21 458.6,-368.82"/>
</g>
<!-- pollution&#45;&#45;foncier -->
<g id="edge15" class="edge">
<title>pollution&#45;&#45;foncier</title>
<path fill="none" stroke="darkgrey" stroke-width="1.27" d="M431.8,-135.1C419.22,-103.12 392.44,-35.09 384,-13.63"/>
</g>
<!-- pollution&#45;&#45;relation politique -->
<g id="edge16" class="edge">
<title>pollution&#45;&#45;relation politique</title>
<path fill="none" stroke="darkgrey" stroke-width="1.14" d="M425.38,-165.01C378.39,-211.69 219.74,-369.28 197.66,-391.21"/>
</g>
<!-- pollution&#45;&#45;industrie -->
<g id="edge17" class="edge">
<title>pollution&#45;&#45;industrie</title>
<path fill="none" stroke="darkgrey" stroke-width="2.96" d="M425.61,-164.65C397.66,-192.13 331.62,-257.03 303.6,-284.57"/>
</g>
<!-- pollution&#45;&#45;risque -->
<g id="edge18" class="edge">
<title>pollution&#45;&#45;risque</title>
<path fill="none" stroke="darkgrey" stroke-width="1.1" d="M450.77,-138.85C477.18,-110.58 537.98,-45.51 550.96,-31.62"/>
</g>
<!-- pollution&#45;&#45;échange commercial -->
<g id="edge19" class="edge">
<title>pollution&#45;&#45;échange commercial</title>
<path fill="none" stroke="darkgrey" stroke-width="1.32" d="M433.81,-169.48C418.53,-226.89 370.27,-408.24 360.26,-445.85"/>
</g>
<!-- dégradation environnementale&#45;&#45;nouvelle&#45;calédonie -->
<g id="edge20" class="edge">
<title>dégradation environnementale&#45;&#45;nouvelle&#45;calédonie</title>
<path fill="none" stroke="darkgrey" stroke-width="1.8" d="M478.32,-286.2C396.86,-250.21 191.25,-159.4 162.74,-146.81"/>
</g>
<!-- dégradation environnementale&#45;&#45;travail -->
<g id="edge21" class="edge">
<title>dégradation environnementale&#45;&#45;travail</title>
<path fill="none" stroke="darkgrey" stroke-width="8.13" d="M487.4,-273.41C454.01,-235.34 394.66,-167.66 367.46,-136.66"/>
</g>
<!-- dégradation environnementale&#45;&#45;économie -->
<g id="edge22" class="edge">
<title>dégradation environnementale&#45;&#45;économie</title>
<path fill="none" stroke="darkgrey" stroke-width="7.51" d="M480.11,-282.61C465.91,-274.36 449.76,-264.97 438.19,-258.24"/>
</g>
<!-- dégradation environnementale&#45;&#45;nickel -->
<g id="edge23" class="edge">
<title>dégradation environnementale&#45;&#45;nickel</title>
<path fill="none" stroke="darkgrey" stroke-width="10" d="M514.12,-264.89C514.15,-264.6 514.17,-264.32 514.19,-264.03"/>
</g>
<!-- dégradation environnementale&#45;&#45;ressource minière -->
<g id="edge24" class="edge">
<title>dégradation environnementale&#45;&#45;ressource minière</title>
<path fill="none" stroke="darkgrey" stroke-width="4.43" d="M475.46,-303.12C398.26,-308.06 219.98,-319.46 173.99,-322.4"/>
</g>
<!-- dégradation environnementale&#45;&#45;politique -->
<g id="edge25" class="edge">
<title>dégradation environnementale&#45;&#45;politique</title>
<path fill="none" stroke="darkgrey" stroke-width="4.69" d="M478.9,-285.36C423.68,-259.14 313.93,-207 275.89,-188.93"/>
</g>
<!-- dégradation environnementale&#45;&#45;secteur nickel -->
<g id="edge26" class="edge">
<title>dégradation environnementale&#45;&#45;secteur nickel</title>
<path fill="none" stroke="darkgrey" stroke-width="4.78" d="M481.15,-281.33C448.69,-260.44 398.47,-228.12 373.43,-212.01"/>
</g>
<!-- dégradation environnementale&#45;&#45;nature -->
<g id="edge27" class="edge">
<title>dégradation environnementale&#45;&#45;nature</title>
<path fill="none" stroke="darkgrey" stroke-width="5.38" d="M475.87,-294.37C404.79,-281.48 247.85,-253.01 199.41,-244.22"/>
</g>
<!-- dégradation environnementale&#45;&#45;amélioration environnementale -->
<g id="edge28" class="edge">
<title>dégradation environnementale&#45;&#45;amélioration environnementale</title>
<path fill="none" stroke="darkgrey" stroke-width="1.5" d="M537.26,-275.12C591.07,-221.57 710.85,-102.36 718.29,-94.96"/>
</g>
<!-- dégradation environnementale&#45;&#45;société néo&#45;calédonienne -->
<g id="edge29" class="edge">
<title>dégradation environnementale&#45;&#45;société néo&#45;calédonienne</title>
<path fill="none" stroke="darkgrey" stroke-width="2.18" d="M484.28,-276.87C417.92,-218.35 251.26,-71.39 228.15,-51.01"/>
</g>
<!-- dégradation environnementale&#45;&#45;exploitation minière -->
<g id="edge30" class="edge">
<title>dégradation environnementale&#45;&#45;exploitation minière</title>
<path fill="none" stroke="darkgrey" stroke-width="4.15" d="M476.64,-310.2C446.71,-318.28 405.03,-329.52 383.44,-335.34"/>
</g>
<!-- dégradation environnementale&#45;&#45;alternative au développement -->
<g id="edge31" class="edge">
<title>dégradation environnementale&#45;&#45;alternative au développement</title>
<path fill="none" stroke="darkgrey" stroke-width="2.39" d="M482.69,-322.93C424.51,-367.69 296.56,-466.1 275.96,-481.95"/>
</g>
<!-- dégradation environnementale&#45;&#45;matériel -->
<g id="edge32" class="edge">
<title>dégradation environnementale&#45;&#45;matériel</title>
<path fill="none" stroke="darkgrey" stroke-width="4.57" d="M492.27,-331.62C483.81,-345.22 474.34,-360.45 467.85,-370.88"/>
</g>
<!-- dégradation environnementale&#45;&#45;foncier -->
<g id="edge33" class="edge">
<title>dégradation environnementale&#45;&#45;foncier</title>
<path fill="none" stroke="darkgrey" stroke-width="2.46" d="M496.77,-267.69C466.62,-199.55 399.22,-47.28 384.33,-13.65"/>
</g>
<!-- dégradation environnementale&#45;&#45;relation politique -->
<g id="edge34" class="edge">
<title>dégradation environnementale&#45;&#45;relation politique</title>
<path fill="none" stroke="darkgrey" stroke-width="1.54" d="M476.68,-311.03C400.93,-333.29 225.55,-384.81 198.61,-392.72"/>
</g>
<!-- dégradation environnementale&#45;&#45;industrie -->
<g id="edge35" class="edge">
<title>dégradation environnementale&#45;&#45;industrie</title>
<path fill="none" stroke="darkgrey" stroke-width="4.12" d="M474.98,-300.24C427.22,-299.47 345.28,-298.16 308.94,-297.58"/>
</g>
<!-- dégradation environnementale&#45;&#45;risque -->
<g id="edge36" class="edge">
<title>dégradation environnementale&#45;&#45;risque</title>
<path fill="none" stroke="darkgrey" stroke-width="1.88" d="M516.97,-265C527.35,-197.82 549.03,-57.41 552.85,-32.72"/>
</g>
<!-- dégradation environnementale&#45;&#45;échange commercial -->
<g id="edge37" class="edge">
<title>dégradation environnementale&#45;&#45;échange commercial</title>
<path fill="none" stroke="darkgrey" stroke-width="2.46" d="M485.83,-326.25C448.74,-363.07 382.43,-428.9 363.56,-447.63"/>
</g>
<!-- dégradation environnementale&#45;&#45;avenir sans nickel -->
<g id="edge38" class="edge">
<title>dégradation environnementale&#45;&#45;avenir sans nickel</title>
<path fill="none" stroke="darkgrey" stroke-width="1.26" d="M546.69,-309.59C647.05,-334.56 928.3,-404.54 945.78,-408.88"/>
</g>
<!-- nouvelle&#45;calédonie&#45;&#45;travail -->
<g id="edge39" class="edge">
<title>nouvelle&#45;calédonie&#45;&#45;travail</title>
<path fill="none" stroke="darkgrey" stroke-width="1.89" d="M163.13,-144.87C183.85,-142.2 286.18,-128.97 331.49,-123.12"/>
</g>
<!-- nouvelle&#45;calédonie&#45;&#45;économie -->
<g id="edge40" class="edge">
<title>nouvelle&#45;calédonie&#45;&#45;économie</title>
<path fill="none" stroke="darkgrey" stroke-width="1.67" d="M162.76,-146.66C188.17,-156.69 351.9,-221.28 405.56,-242.45"/>
</g>
<!-- nouvelle&#45;calédonie&#45;&#45;nickel -->
<g id="edge41" class="edge">
<title>nouvelle&#45;calédonie&#45;&#45;nickel</title>
<path fill="none" stroke="darkgrey" stroke-width="2.89" d="M162.97,-146.17C192.45,-152.99 398.2,-200.63 481.74,-219.97"/>
</g>
<!-- nouvelle&#45;calédonie&#45;&#45;ressource minière -->
<g id="edge42" class="edge">
<title>nouvelle&#45;calédonie&#45;&#45;ressource minière</title>
<path fill="none" stroke="darkgrey" stroke-width="1.57" d="M159.51,-149.07C159.94,-170.3 162.07,-276.68 162.77,-311.82"/>
</g>
<!-- nouvelle&#45;calédonie&#45;&#45;politique -->
<g id="edge43" class="edge">
<title>nouvelle&#45;calédonie&#45;&#45;politique</title>
<path fill="none" stroke="darkgrey" stroke-width="2.12" d="M162.87,-146.59C176.14,-151.39 224.61,-168.89 248.72,-177.6"/>
</g>
<!-- nouvelle&#45;calédonie&#45;&#45;secteur nickel -->
<g id="edge44" class="edge">
<title>nouvelle&#45;calédonie&#45;&#45;secteur nickel</title>
<path fill="none" stroke="darkgrey" stroke-width="1.84" d="M162.89,-146.34C184.07,-152.4 297.06,-184.71 340.82,-197.22"/>
</g>
<!-- nouvelle&#45;calédonie&#45;&#45;nature -->
<g id="edge45" class="edge">
<title>nouvelle&#45;calédonie&#45;&#45;nature</title>
<path fill="none" stroke="darkgrey" stroke-width="1.34" d="M160.4,-149.01C163.78,-161.78 175.17,-204.86 181.15,-227.47"/>
</g>
<!-- nouvelle&#45;calédonie&#45;&#45;société néo&#45;calédonienne -->
<g id="edge46" class="edge">
<title>nouvelle&#45;calédonie&#45;&#45;société néo&#45;calédonienne</title>
<path fill="none" stroke="darkgrey" stroke-width="1.09" d="M161.63,-142.14C171.75,-127.32 213.76,-65.81 223.47,-51.6"/>
</g>
<!-- nouvelle&#45;calédonie&#45;&#45;exploitation minière -->
<g id="edge47" class="edge">
<title>nouvelle&#45;calédonie&#45;&#45;exploitation minière</title>
<path fill="none" stroke="darkgrey" stroke-width="1.34" d="M162.09,-147.8C182.81,-166.95 319.04,-292.83 358.51,-329.29"/>
</g>
<!-- nouvelle&#45;calédonie&#45;&#45;foncier -->
<g id="edge48" class="edge">
<title>nouvelle&#45;calédonie&#45;&#45;foncier</title>
<path fill="none" stroke="darkgrey" stroke-width="1.06" d="M162.57,-143.4C186.71,-128.35 342.76,-31.08 375.41,-10.73"/>
</g>
<!-- nouvelle&#45;calédonie&#45;&#45;relation politique -->
<g id="edge49" class="edge">
<title>nouvelle&#45;calédonie&#45;&#45;relation politique</title>
<path fill="none" stroke="darkgrey" stroke-width="1.1" d="M159.94,-148.86C163.94,-176.7 190.45,-361.33 194.57,-390.01"/>
</g>
<!-- nouvelle&#45;calédonie&#45;&#45;industrie -->
<g id="edge50" class="edge">
<title>nouvelle&#45;calédonie&#45;&#45;industrie</title>
<path fill="none" stroke="darkgrey" stroke-width="1.61" d="M161.94,-148.25C176.4,-164.99 249.56,-249.69 278.69,-283.41"/>
</g>
<!-- nouvelle&#45;calédonie&#45;&#45;échange commercial -->
<g id="edge51" class="edge">
<title>nouvelle&#45;calédonie&#45;&#45;échange commercial</title>
<path fill="none" stroke="darkgrey" stroke-width="1.06" d="M161.41,-148.39C180.26,-177.51 328.63,-406.7 354.57,-446.76"/>
</g>
<!-- travail&#45;&#45;économie -->
<g id="edge52" class="edge">
<title>travail&#45;&#45;économie</title>
<path fill="none" stroke="darkgrey" stroke-width="7.06" d="M363.38,-139.33C377.04,-164.67 400.97,-209.08 413.82,-232.93"/>
</g>
<!-- travail&#45;&#45;nickel -->
<g id="edge53" class="edge">
<title>travail&#45;&#45;nickel</title>
<path fill="none" stroke="darkgrey" stroke-width="8.23" d="M371.29,-132.27C399.18,-150.63 452.9,-185.99 486.71,-208.24"/>
</g>
<!-- travail&#45;&#45;ressource minière -->
<g id="edge54" class="edge">
<title>travail&#45;&#45;ressource minière</title>
<path fill="none" stroke="darkgrey" stroke-width="3.53" d="M338.22,-136.23C300.05,-176.94 199.83,-283.83 170.91,-314.67"/>
</g>
<!-- travail&#45;&#45;politique -->
<g id="edge55" class="edge">
<title>travail&#45;&#45;politique</title>
<path fill="none" stroke="darkgrey" stroke-width="4.36" d="M335.24,-132.62C317.29,-144.96 290.15,-163.6 274.61,-174.28"/>
</g>
<!-- travail&#45;&#45;secteur nickel -->
<g id="edge56" class="edge">
<title>travail&#45;&#45;secteur nickel</title>
<path fill="none" stroke="darkgrey" stroke-width="5.01" d="M354.45,-141.83C355.26,-155 356.28,-171.66 357.04,-184.13"/>
</g>
<!-- travail&#45;&#45;nature -->
<g id="edge57" class="edge">
<title>travail&#45;&#45;nature</title>
<path fill="none" stroke="darkgrey" stroke-width="3.76" d="M335.45,-133.07C301.02,-157.88 225.85,-212.06 196.73,-233.04"/>
</g>
<!-- travail&#45;&#45;amélioration environnementale -->
<g id="edge58" class="edge">
<title>travail&#45;&#45;amélioration environnementale</title>
<path fill="none" stroke="darkgrey" stroke-width="1.16" d="M374.64,-118.81C450.54,-113.47 702.23,-95.75 717.89,-94.65"/>
</g>
<!-- travail&#45;&#45;société néo&#45;calédonienne -->
<g id="edge59" class="edge">
<title>travail&#45;&#45;société néo&#45;calédonienne</title>
<path fill="none" stroke="darkgrey" stroke-width="2.02" d="M334.3,-109.75C303.23,-92.3 243.21,-58.61 228.69,-50.46"/>
</g>
<!-- travail&#45;&#45;exploitation minière -->
<g id="edge60" class="edge">
<title>travail&#45;&#45;exploitation minière</title>
<path fill="none" stroke="darkgrey" stroke-width="3.53" d="M354.74,-142.11C358.01,-186.65 365.38,-287.12 368.14,-324.66"/>
</g>
<!-- travail&#45;&#45;alternative au développement -->
<g id="edge61" class="edge">
<title>travail&#45;&#45;alternative au développement</title>
<path fill="none" stroke="darkgrey" stroke-width="1.58" d="M348.49,-141.45C332.62,-213.64 281.13,-447.78 273.97,-480.35"/>
</g>
<!-- travail&#45;&#45;matériel -->
<g id="edge62" class="edge">
<title>travail&#45;&#45;matériel</title>
<path fill="none" stroke="darkgrey" stroke-width="3.85" d="M361.34,-140.54C382.21,-191.94 436.87,-326.62 454.44,-369.92"/>
</g>
<!-- travail&#45;&#45;foncier -->
<g id="edge63" class="edge">
<title>travail&#45;&#45;foncier</title>
<path fill="none" stroke="darkgrey" stroke-width="1.76" d="M358.39,-99.27C364.83,-73.41 375.43,-30.91 379.61,-14.13"/>
</g>
<!-- travail&#45;&#45;relation politique -->
<g id="edge64" class="edge">
<title>travail&#45;&#45;relation politique</title>
<path fill="none" stroke="darkgrey" stroke-width="1.44" d="M342.28,-139.12C309.22,-196.31 211.23,-365.84 196.87,-390.7"/>
</g>
<!-- travail&#45;&#45;industrie -->
<g id="edge65" class="edge">
<title>travail&#45;&#45;industrie</title>
<path fill="none" stroke="darkgrey" stroke-width="4.16" d="M345.97,-140.62C333.57,-175.76 308.32,-247.28 296.73,-280.11"/>
</g>
<!-- travail&#45;&#45;risque -->
<g id="edge66" class="edge">
<title>travail&#45;&#45;risque</title>
<path fill="none" stroke="darkgrey" stroke-width="2.02" d="M372.71,-111.4C418.38,-90.57 529.69,-39.8 550.16,-30.47"/>
</g>
<!-- travail&#45;&#45;échange commercial -->
<g id="edge67" class="edge">
<title>travail&#45;&#45;échange commercial</title>
<path fill="none" stroke="darkgrey" stroke-width="2.13" d="M353.48,-141.88C354.53,-207.91 357.68,-405.37 358.31,-445.54"/>
</g>
<!-- économie&#45;&#45;nickel -->
<g id="edge68" class="edge">
<title>économie&#45;&#45;nickel</title>
<path fill="none" stroke="darkgrey" stroke-width="6.45" d="M440.31,-245.2C451.94,-242.6 467.54,-239.12 481.63,-235.97"/>
</g>
<!-- économie&#45;&#45;ressource minière -->
<g id="edge69" class="edge">
<title>économie&#45;&#45;ressource minière</title>
<path fill="none" stroke="darkgrey" stroke-width="2.5" d="M405.13,-254.13C355.35,-268.31 213.54,-308.71 173.59,-320.09"/>
</g>
<!-- économie&#45;&#45;politique -->
<g id="edge70" class="edge">
<title>économie&#45;&#45;politique</title>
<path fill="none" stroke="darkgrey" stroke-width="4.84" d="M405.74,-242.16C373.8,-228.87 304.98,-200.24 275.92,-188.15"/>
</g>
<!-- économie&#45;&#45;secteur nickel -->
<g id="edge71" class="edge">
<title>économie&#45;&#45;secteur nickel</title>
<path fill="none" stroke="darkgrey" stroke-width="3.83" d="M407.95,-238.5C397.41,-230.81 383.24,-220.47 372.71,-212.79"/>
</g>
<!-- économie&#45;&#45;nature -->
<g id="edge72" class="edge">
<title>économie&#45;&#45;nature</title>
<path fill="none" stroke="darkgrey" stroke-width="2.96" d="M404.31,-248.58C358.76,-247.13 240.81,-243.37 199.46,-242.05"/>
</g>
<!-- économie&#45;&#45;amélioration environnementale -->
<g id="edge73" class="edge">
<title>économie&#45;&#45;amélioration environnementale</title>
<path fill="none" stroke="darkgrey" stroke-width="1.17" d="M438.91,-240.63C499.04,-209.24 705.2,-101.62 718.02,-94.92"/>
</g>
<!-- économie&#45;&#45;société néo&#45;calédonienne -->
<g id="edge74" class="edge">
<title>économie&#45;&#45;société néo&#45;calédonienne</title>
<path fill="none" stroke="darkgrey" stroke-width="1.66" d="M409.94,-236.31C369.84,-195.52 246.91,-70.46 227.94,-51.17"/>
</g>
<!-- économie&#45;&#45;exploitation minière -->
<g id="edge75" class="edge">
<title>économie&#45;&#45;exploitation minière</title>
<path fill="none" stroke="darkgrey" stroke-width="2.22" d="M413.27,-264.84C402.88,-282.37 386.26,-310.41 376.67,-326.58"/>
</g>
<!-- économie&#45;&#45;alternative au développement -->
<g id="edge76" class="edge">
<title>économie&#45;&#45;alternative au développement</title>
<path fill="none" stroke="darkgrey" stroke-width="1.67" d="M412.76,-264.58C382.25,-312.56 290.1,-457.45 275.19,-480.9"/>
</g>
<!-- économie&#45;&#45;matériel -->
<g id="edge77" class="edge">
<title>économie&#45;&#45;matériel</title>
<path fill="none" stroke="darkgrey" stroke-width="2.42" d="M427.46,-266.73C434.94,-293.62 449.1,-344.47 455.99,-369.25"/>
</g>
<!-- économie&#45;&#45;foncier -->
<g id="edge78" class="edge">
<title>économie&#45;&#45;foncier</title>
<path fill="none" stroke="darkgrey" stroke-width="1.38" d="M419.54,-231.36C411.18,-182.2 388.04,-46.14 382.56,-13.91"/>
</g>
<!-- économie&#45;&#45;relation politique -->
<g id="edge79" class="edge">
<title>économie&#45;&#45;relation politique</title>
<path fill="none" stroke="darkgrey" stroke-width="1.54" d="M407.29,-258.87C360.47,-288.63 220.81,-377.41 198.21,-391.78"/>
</g>
<!-- économie&#45;&#45;industrie -->
<g id="edge80" class="edge">
<title>économie&#45;&#45;industrie</title>
<path fill="none" stroke="darkgrey" stroke-width="2.82" d="M405.59,-255.35C380.41,-264.54 333.39,-281.7 308,-290.96"/>
</g>
<!-- économie&#45;&#45;risque -->
<g id="edge81" class="edge">
<title>économie&#45;&#45;risque</title>
<path fill="none" stroke="darkgrey" stroke-width="1.18" d="M431.77,-233.68C459,-187.87 538.09,-54.78 551.49,-32.24"/>
</g>
<!-- économie&#45;&#45;échange commercial -->
<g id="edge82" class="edge">
<title>économie&#45;&#45;échange commercial</title>
<path fill="none" stroke="darkgrey" stroke-width="1.84" d="M417.1,-266.52C403.65,-309.21 369.41,-417.89 360.55,-446"/>
</g>
<!-- nickel&#45;&#45;ressource minière -->
<g id="edge83" class="edge">
<title>nickel&#45;&#45;ressource minière</title>
<path fill="none" stroke="darkgrey" stroke-width="5.36" d="M481.97,-237.47C404.21,-258.35 219.89,-307.83 173.66,-320.24"/>
</g>
<!-- nickel&#45;&#45;politique -->
<g id="edge84" class="edge">
<title>nickel&#45;&#45;politique</title>
<path fill="none" stroke="darkgrey" stroke-width="3.53" d="M481.24,-221.72C424.5,-211.57 316.05,-192.16 277,-185.17"/>
</g>
<!-- nickel&#45;&#45;secteur nickel -->
<g id="edge85" class="edge">
<title>nickel&#45;&#45;secteur nickel</title>
<path fill="none" stroke="darkgrey" stroke-width="6.52" d="M481.25,-222.28C448.53,-216.94 401.38,-209.24 375.98,-205.09"/>
</g>
<!-- nickel&#45;&#45;nature -->
<g id="edge86" class="edge">
<title>nickel&#45;&#45;nature</title>
<path fill="none" stroke="darkgrey" stroke-width="5.69" d="M480.71,-229.57C408.45,-232.51 248.9,-238.98 199.65,-240.98"/>
</g>
<!-- nickel&#45;&#45;amélioration environnementale -->
<g id="edge87" class="edge">
<title>nickel&#45;&#45;amélioration environnementale</title>
<path fill="none" stroke="darkgrey" stroke-width="1.18" d="M547.08,-208.11C600.73,-172.62 707.97,-101.66 717.91,-95.09"/>
</g>
<!-- nickel&#45;&#45;société néo&#45;calédonienne -->
<g id="edge88" class="edge">
<title>nickel&#45;&#45;société néo&#45;calédonienne</title>
<path fill="none" stroke="darkgrey" stroke-width="1.29" d="M485.96,-209.07C416.83,-166.49 253.78,-66.09 228.73,-50.66"/>
</g>
<!-- nickel&#45;&#45;exploitation minière -->
<g id="edge89" class="edge">
<title>nickel&#45;&#45;exploitation minière</title>
<path fill="none" stroke="darkgrey" stroke-width="7.17" d="M488.05,-249.78C455.48,-274.28 404.03,-312.99 381.01,-330.3"/>
</g>
<!-- nickel&#45;&#45;alternative au développement -->
<g id="edge90" class="edge">
<title>nickel&#45;&#45;alternative au développement</title>
<path fill="none" stroke="darkgrey" stroke-width="1.91" d="M491.71,-254.54C434.05,-315.09 295.82,-460.3 275.62,-481.52"/>
</g>
<!-- nickel&#45;&#45;matériel -->
<g id="edge91" class="edge">
<title>nickel&#45;&#45;matériel</title>
<path fill="none" stroke="darkgrey" stroke-width="5.77" d="M504.38,-262.21C492.02,-295.99 473.7,-346.03 464.96,-369.9"/>
</g>
<!-- nickel&#45;&#45;foncier -->
<g id="edge92" class="edge">
<title>nickel&#45;&#45;foncier</title>
<path fill="none" stroke="darkgrey" stroke-width="2.53" d="M498.03,-197.36C465.61,-144.44 401.16,-39.27 385.09,-13.04"/>
</g>
<!-- nickel&#45;&#45;relation politique -->
<g id="edge93" class="edge">
<title>nickel&#45;&#45;relation politique</title>
<path fill="none" stroke="darkgrey" stroke-width="1.53" d="M484.84,-244.59C409.5,-283.38 225.33,-378.19 198.41,-392.05"/>
</g>
<!-- nickel&#45;&#45;industrie -->
<g id="edge94" class="edge">
<title>nickel&#45;&#45;industrie</title>
<path fill="none" stroke="darkgrey" stroke-width="8.07" d="M482.02,-238.76C432.95,-253.77 345.32,-280.57 308.13,-291.94"/>
</g>
<!-- nickel&#45;&#45;risque -->
<g id="edge95" class="edge">
<title>nickel&#45;&#45;risque</title>
<path fill="none" stroke="darkgrey" stroke-width="1.25" d="M523.41,-192.5C532.77,-141.49 549.27,-51.63 552.76,-32.59"/>
</g>
<!-- nickel&#45;&#45;échange commercial -->
<g id="edge96" class="edge">
<title>nickel&#45;&#45;échange commercial</title>
<path fill="none" stroke="darkgrey" stroke-width="3.26" d="M495.83,-257.93C458.12,-311.39 381.2,-420.44 362.57,-446.86"/>
</g>
<!-- nickel&#45;&#45;avenir sans nickel -->
<g id="edge97" class="edge">
<title>nickel&#45;&#45;avenir sans nickel</title>
<path fill="none" stroke="darkgrey" stroke-width="1.14" d="M550.24,-242.15C648.85,-283.68 932.9,-403.31 946.16,-408.89"/>
</g>
<!-- ressource minière&#45;&#45;politique -->
<g id="edge98" class="edge">
<title>ressource minière&#45;&#45;politique</title>
<path fill="none" stroke="darkgrey" stroke-width="3.06" d="M169.53,-313.88C186.92,-289.34 234.33,-222.39 253.9,-194.76"/>
</g>
<!-- ressource minière&#45;&#45;secteur nickel -->
<g id="edge99" class="edge">
<title>ressource minière&#45;&#45;secteur nickel</title>
<path fill="none" stroke="darkgrey" stroke-width="2.3" d="M172.41,-317.27C203.63,-297.93 303.95,-235.76 342.68,-211.75"/>
</g>
<!-- ressource minière&#45;&#45;nature -->
<g id="edge100" class="edge">
<title>ressource minière&#45;&#45;nature</title>
<path fill="none" stroke="darkgrey" stroke-width="2.08" d="M165.86,-312.45C169.75,-297.95 176.73,-271.96 181.06,-255.81"/>
</g>
<!-- ressource minière&#45;&#45;société néo&#45;calédonienne -->
<g id="edge101" class="edge">
<title>ressource minière&#45;&#45;société néo&#45;calédonienne</title>
<path fill="none" stroke="darkgrey" stroke-width="1.06" d="M165.45,-312.35C176.1,-265.57 218.13,-80.94 224.63,-52.38"/>
</g>
<!-- ressource minière&#45;&#45;exploitation minière -->
<g id="edge102" class="edge">
<title>ressource minière&#45;&#45;exploitation minière</title>
<path fill="none" stroke="darkgrey" stroke-width="2.58" d="M174.09,-323.97C208.8,-326.68 315.43,-334.99 354.59,-338.04"/>
</g>
<!-- ressource minière&#45;&#45;alternative au développement -->
<g id="edge103" class="edge">
<title>ressource minière&#45;&#45;alternative au développement</title>
<path fill="none" stroke="darkgrey" stroke-width="1.15" d="M169.24,-332.22C190.35,-363.09 258.53,-462.76 271.13,-481.18"/>
</g>
<!-- ressource minière&#45;&#45;matériel -->
<g id="edge104" class="edge">
<title>ressource minière&#45;&#45;matériel</title>
<path fill="none" stroke="darkgrey" stroke-width="2.11" d="M173.92,-325.33C219.44,-334.59 394.09,-370.13 445.59,-380.62"/>
</g>
<!-- ressource minière&#45;&#45;relation politique -->
<g id="edge105" class="edge">
<title>ressource minière&#45;&#45;relation politique</title>
<path fill="none" stroke="darkgrey" stroke-width="1.11" d="M167.6,-333.23C174.95,-349.4 188.99,-380.29 193.6,-390.43"/>
</g>
<!-- ressource minière&#45;&#45;industrie -->
<g id="edge106" class="edge">
<title>ressource minière&#45;&#45;industrie</title>
<path fill="none" stroke="darkgrey" stroke-width="2.68" d="M173.89,-320.9C195.96,-316.44 246.15,-306.29 272.98,-300.86"/>
</g>
<!-- ressource minière&#45;&#45;échange commercial -->
<g id="edge107" class="edge">
<title>ressource minière&#45;&#45;échange commercial</title>
<path fill="none" stroke="darkgrey" stroke-width="1.8" d="M172.43,-329.36C206.74,-352.11 324.42,-430.17 352.42,-448.74"/>
</g>
<!-- politique&#45;&#45;secteur nickel -->
<g id="edge108" class="edge">
<title>politique&#45;&#45;secteur nickel</title>
<path fill="none" stroke="darkgrey" stroke-width="3.46" d="M277.05,-185.56C293.98,-189.03 321.96,-194.76 340.22,-198.5"/>
</g>
<!-- politique&#45;&#45;nature -->
<g id="edge109" class="edge">
<title>politique&#45;&#45;nature</title>
<path fill="none" stroke="darkgrey" stroke-width="1.83" d="M250.74,-191.54C236.06,-202.7 211.14,-221.63 196.53,-232.73"/>
</g>
<!-- politique&#45;&#45;société néo&#45;calédonienne -->
<g id="edge110" class="edge">
<title>politique&#45;&#45;société néo&#45;calédonienne</title>
<path fill="none" stroke="darkgrey" stroke-width="1.67" d="M258.56,-168.25C250.2,-138.02 231.14,-69.13 226.5,-52.38"/>
</g>
<!-- politique&#45;&#45;exploitation minière -->
<g id="edge111" class="edge">
<title>politique&#45;&#45;exploitation minière</title>
<path fill="none" stroke="darkgrey" stroke-width="2.08" d="M270.72,-194.61C290.53,-223.69 340.85,-297.55 360.84,-326.89"/>
</g>
<!-- politique&#45;&#45;alternative au développement -->
<g id="edge112" class="edge">
<title>politique&#45;&#45;alternative au développement</title>
<path fill="none" stroke="darkgrey" stroke-width="1.72" d="M263.04,-197.13C265,-252.89 271.99,-451.38 273.01,-480.54"/>
</g>
<!-- politique&#45;&#45;matériel -->
<g id="edge113" class="edge">
<title>politique&#45;&#45;matériel</title>
<path fill="none" stroke="darkgrey" stroke-width="1.66" d="M272.87,-193.1C306.98,-227.83 415.77,-338.55 449.73,-373.12"/>
</g>
<!-- politique&#45;&#45;foncier -->
<g id="edge114" class="edge">
<title>politique&#45;&#45;foncier</title>
<path fill="none" stroke="darkgrey" stroke-width="1.41" d="M270.7,-170.51C293.99,-136.11 360.12,-38.41 377.28,-13.07"/>
</g>
<!-- politique&#45;&#45;relation politique -->
<g id="edge115" class="edge">
<title>politique&#45;&#45;relation politique</title>
<path fill="none" stroke="darkgrey" stroke-width="1.87" d="M258.11,-196.44C244.45,-239.2 203.46,-367.57 196.21,-390.29"/>
</g>
<!-- politique&#45;&#45;industrie -->
<g id="edge116" class="edge">
<title>politique&#45;&#45;industrie</title>
<path fill="none" stroke="darkgrey" stroke-width="2.97" d="M266.09,-197.11C271.24,-218.09 280.75,-256.83 286.31,-279.49"/>
</g>
<!-- politique&#45;&#45;risque -->
<g id="edge117" class="edge">
<title>politique&#45;&#45;risque</title>
<path fill="none" stroke="darkgrey" stroke-width="1.11" d="M275.4,-175.78C327.74,-148.15 523.06,-45.01 550.27,-30.64"/>
</g>
<!-- politique&#45;&#45;échange commercial -->
<g id="edge118" class="edge">
<title>politique&#45;&#45;échange commercial</title>
<path fill="none" stroke="darkgrey" stroke-width="1.73" d="M267.42,-196.35C284.82,-245.38 343.42,-410.44 356.03,-445.95"/>
</g>
<!-- secteur nickel&#45;&#45;nature -->
<g id="edge119" class="edge">
<title>secteur nickel&#45;&#45;nature</title>
<path fill="none" stroke="darkgrey" stroke-width="2.39" d="M340.58,-206.17C306.16,-214 230.49,-231.21 199.03,-238.37"/>
</g>
<!-- secteur nickel&#45;&#45;amélioration environnementale -->
<g id="edge120" class="edge">
<title>secteur nickel&#45;&#45;amélioration environnementale</title>
<path fill="none" stroke="darkgrey" stroke-width="1.23" d="M375.53,-196.99C445.29,-176.17 701.9,-99.6 717.87,-94.83"/>
</g>
<!-- secteur nickel&#45;&#45;société néo&#45;calédonienne -->
<g id="edge121" class="edge">
<title>secteur nickel&#45;&#45;société néo&#45;calédonienne</title>
<path fill="none" stroke="darkgrey" stroke-width="1.62" d="M346.37,-188.55C317.2,-154.79 242.86,-68.77 228.06,-51.65"/>
</g>
<!-- secteur nickel&#45;&#45;exploitation minière -->
<g id="edge122" class="edge">
<title>secteur nickel&#45;&#45;exploitation minière</title>
<path fill="none" stroke="darkgrey" stroke-width="2.62" d="M359.61,-220.37C361.83,-247.88 366,-299.53 368.03,-324.68"/>
</g>
<!-- secteur nickel&#45;&#45;alternative au développement -->
<g id="edge123" class="edge">
<title>secteur nickel&#45;&#45;alternative au développement</title>
<path fill="none" stroke="darkgrey" stroke-width="1.39" d="M352.83,-219.81C335.67,-276.71 282.42,-453.33 274.21,-480.58"/>
</g>
<!-- secteur nickel&#45;&#45;matériel -->
<g id="edge124" class="edge">
<title>secteur nickel&#45;&#45;matériel</title>
<path fill="none" stroke="darkgrey" stroke-width="3.05" d="M367,-217.95C386.84,-253.29 434.52,-338.21 452.73,-370.65"/>
</g>
<!-- secteur nickel&#45;&#45;foncier -->
<g id="edge125" class="edge">
<title>secteur nickel&#45;&#45;foncier</title>
<path fill="none" stroke="darkgrey" stroke-width="2.08" d="M360.29,-184.16C365.23,-142.64 377.26,-41.65 380.55,-14.06"/>
</g>
<!-- secteur nickel&#45;&#45;relation politique -->
<g id="edge126" class="edge">
<title>secteur nickel&#45;&#45;relation politique</title>
<path fill="none" stroke="darkgrey" stroke-width="1.25" d="M346.42,-215.95C312.25,-256.1 214.12,-371.41 197.51,-390.93"/>
</g>
<!-- secteur nickel&#45;&#45;industrie -->
<g id="edge127" class="edge">
<title>secteur nickel&#45;&#45;industrie</title>
<path fill="none" stroke="darkgrey" stroke-width="5.19" d="M347.6,-217.03C334.93,-234.9 313.78,-264.71 301.14,-282.53"/>
</g>
<!-- secteur nickel&#45;&#45;risque -->
<g id="edge128" class="edge">
<title>secteur nickel&#45;&#45;risque</title>
<path fill="none" stroke="darkgrey" stroke-width="1.04" d="M371.88,-190C412.51,-153.96 530.55,-49.27 550.53,-31.54"/>
</g>
<!-- secteur nickel&#45;&#45;échange commercial -->
<g id="edge129" class="edge">
<title>secteur nickel&#45;&#45;échange commercial</title>
<path fill="none" stroke="darkgrey" stroke-width="2.28" d="M358.16,-220.19C358.22,-270.69 358.38,-412.05 358.42,-445.54"/>
</g>
<!-- nature&#45;&#45;société néo&#45;calédonienne -->
<g id="edge130" class="edge">
<title>nature&#45;&#45;société néo&#45;calédonienne</title>
<path fill="none" stroke="darkgrey" stroke-width="1.72" d="M187.93,-227.08C196.45,-186.6 220.16,-73.9 224.71,-52.27"/>
</g>
<!-- nature&#45;&#45;exploitation minière -->
<g id="edge131" class="edge">
<title>nature&#45;&#45;exploitation minière</title>
<path fill="none" stroke="darkgrey" stroke-width="1.93" d="M197.84,-248.45C231.6,-266.32 321.99,-314.18 356.01,-332.19"/>
</g>
<!-- nature&#45;&#45;alternative au développement -->
<g id="edge132" class="edge">
<title>nature&#45;&#45;alternative au développement</title>
<path fill="none" stroke="darkgrey" stroke-width="1.2" d="M189.88,-255.32C207.01,-302.42 262.85,-455.85 271.9,-480.71"/>
</g>
<!-- nature&#45;&#45;matériel -->
<g id="edge133" class="edge">
<title>nature&#45;&#45;matériel</title>
<path fill="none" stroke="darkgrey" stroke-width="3.41" d="M197.78,-248.24C243.88,-272.03 400.21,-352.7 446.78,-376.73"/>
</g>
<!-- nature&#45;&#45;foncier -->
<g id="edge134" class="edge">
<title>nature&#45;&#45;foncier</title>
<path fill="none" stroke="darkgrey" stroke-width="1.69" d="M194.36,-230.27C229.47,-188.35 351.42,-42.77 376.76,-12.53"/>
</g>
<!-- nature&#45;&#45;industrie -->
<g id="edge135" class="edge">
<title>nature&#45;&#45;industrie</title>
<path fill="none" stroke="darkgrey" stroke-width="2.73" d="M197.85,-248.41C217.16,-258.58 253.45,-277.68 274.47,-288.76"/>
</g>
<!-- nature&#45;&#45;échange commercial -->
<g id="edge136" class="edge">
<title>nature&#45;&#45;échange commercial</title>
<path fill="none" stroke="darkgrey" stroke-width="1.49" d="M194.21,-252.94C226.17,-291.82 330.57,-418.84 353.81,-447.11"/>
</g>
<!-- société néo&#45;calédonienne&#45;&#45;matériel -->
<g id="edge137" class="edge">
<title>société néo&#45;calédonienne&#45;&#45;matériel</title>
<path fill="none" stroke="darkgrey" stroke-width="1.65" d="M227.5,-51.55C247.65,-80.32 411.96,-314.97 451.45,-371.38"/>
</g>
<!-- société néo&#45;calédonienne&#45;&#45;relation politique -->
<g id="edge138" class="edge">
<title>société néo&#45;calédonienne&#45;&#45;relation politique</title>
<path fill="none" stroke="darkgrey" stroke-width="1.14" d="M225.13,-52.53C222.02,-87.93 198.55,-354.64 195.44,-389.9"/>
</g>
<!-- exploitation minière&#45;&#45;matériel -->
<g id="edge139" class="edge">
<title>exploitation minière&#45;&#45;matériel</title>
<path fill="none" stroke="darkgrey" stroke-width="2.82" d="M382.6,-345.72C399.86,-354.16 429.67,-368.73 446.82,-377.11"/>
</g>
<!-- exploitation minière&#45;&#45;foncier -->
<g id="edge140" class="edge">
<title>exploitation minière&#45;&#45;foncier</title>
<path fill="none" stroke="darkgrey" stroke-width="1.17" d="M369.74,-324.48C371.87,-266.59 379.61,-55.57 381.13,-14.1"/>
</g>
<!-- exploitation minière&#45;&#45;relation politique -->
<g id="edge141" class="edge">
<title>exploitation minière&#45;&#45;relation politique</title>
<path fill="none" stroke="darkgrey" stroke-width="1.08" d="M355.25,-343.55C318.13,-355.19 218.44,-386.43 198.58,-392.66"/>
</g>
<!-- exploitation minière&#45;&#45;industrie -->
<g id="edge142" class="edge">
<title>exploitation minière&#45;&#45;industrie</title>
<path fill="none" stroke="darkgrey" stroke-width="3.22" d="M356.24,-332.26C342.64,-325.01 321.27,-313.61 306.65,-305.81"/>
</g>
<!-- exploitation minière&#45;&#45;risque -->
<g id="edge143" class="edge">
<title>exploitation minière&#45;&#45;risque</title>
<path fill="none" stroke="darkgrey" d="M376.65,-326.63C408.83,-272.45 535,-60 551.62,-32.02"/>
</g>
<!-- exploitation minière&#45;&#45;échange commercial -->
<g id="edge144" class="edge">
<title>exploitation minière&#45;&#45;échange commercial</title>
<path fill="none" stroke="darkgrey" stroke-width="2" d="M367.8,-354.02C365.45,-378.79 360.81,-427.61 359.09,-445.73"/>
</g>
<!-- alternative au développement&#45;&#45;industrie -->
<g id="edge145" class="edge">
<title>alternative au développement&#45;&#45;industrie</title>
<path fill="none" stroke="darkgrey" stroke-width="1.41" d="M273.47,-480.56C275.39,-460.12 285.04,-357.34 288.98,-315.27"/>
</g>
<!-- matériel&#45;&#45;foncier -->
<g id="edge146" class="edge">
<title>matériel&#45;&#45;foncier</title>
<path fill="none" stroke="darkgrey" stroke-width="1.78" d="M456.98,-369.24C443.95,-306.77 392.24,-58.98 382.85,-14.02"/>
</g>
<!-- matériel&#45;&#45;industrie -->
<g id="edge147" class="edge">
<title>matériel&#45;&#45;industrie</title>
<path fill="none" stroke="darkgrey" stroke-width="4.14" d="M446.97,-376.92C416.46,-361.37 340.35,-322.59 306.89,-305.55"/>
</g>
<!-- matériel&#45;&#45;échange commercial -->
<g id="edge148" class="edge">
<title>matériel&#45;&#45;échange commercial</title>
<path fill="none" stroke="darkgrey" stroke-width="1.92" d="M447.92,-391.75C426.07,-406.64 380.65,-437.59 364.38,-448.67"/>
</g>
<!-- foncier&#45;&#45;industrie -->
<g id="edge149" class="edge">
<title>foncier&#45;&#45;industrie</title>
<path fill="none" stroke="darkgrey" stroke-width="2.15" d="M379.24,-13.89C367.75,-50.64 313.58,-223.98 296.11,-279.87"/>
</g>
<!-- relation politique&#45;&#45;échange commercial -->
<g id="edge150" class="edge">
<title>relation politique&#45;&#45;échange commercial</title>
<path fill="none" stroke="darkgrey" stroke-width="1.36" d="M198.52,-394.98C218.86,-402.33 324.18,-440.36 351.79,-450.33"/>
</g>
<!-- industrie&#45;&#45;risque -->
<g id="edge151" class="edge">
<title>industrie&#45;&#45;risque</title>
<path fill="none" stroke="darkgrey" stroke-width="1.17" d="M303.35,-284.34C352.35,-234.31 527.82,-55.12 550.91,-31.55"/>
</g>
<!-- industrie&#45;&#45;échange commercial -->
<g id="edge152" class="edge">
<title>industrie&#45;&#45;échange commercial</title>
<path fill="none" stroke="darkgrey" stroke-width="2.02" d="M297.92,-313.92C312.67,-347.75 345.61,-423.31 355.54,-446.1"/>
</g>
<!-- pollution -->
<g id="node1" class="node">
<title>pollution</title>
<ellipse fill="#ab2f5e" stroke="white" stroke-width="0" cx="438.46" cy="-152.02" rx="18" ry="18"/>
<text text-anchor="middle" x="463.46" y="-176.02" font-family="Helvetica,sans-Serif" font-size="20.00" fill="#4d4d4d">pollution</text>
</g>
<!-- dégradation environnementale -->
<g id="node2" class="node">
<title>dégradation environnementale</title>
<ellipse fill="#f1ef75" stroke="white" stroke-width="0" cx="511.44" cy="-300.82" rx="36" ry="36"/>
<text text-anchor="middle" x="693.44" y="-345.42" font-family="Helvetica,sans-Serif" font-size="28.00" fill="#4d4d4d">dégradation environnementale</text>
</g>
<!-- nouvelle&#45;calédonie -->
<g id="node3" class="node">
<title>nouvelle&#45;calédonie</title>
<ellipse fill="#1c0c43" stroke="white" stroke-width="0" cx="159.44" cy="-145.35" rx="3.5" ry="3.5"/>
<text text-anchor="middle" x="91.94" y="-152.97" font-family="Helvetica,sans-Serif" font-size="13.60" fill="#4d4d4d">nouvelle&#45;calédonie</text>
</g>
<!-- travail -->
<g id="node4" class="node">
<title>travail</title>
<ellipse fill="#e65d2f" stroke="white" stroke-width="0" cx="353.14" cy="-120.32" rx="21.5" ry="21.5"/>
<text text-anchor="middle" x="296.64" y="-148.54" font-family="Helvetica,sans-Serif" font-size="21.60" fill="#4d4d4d">travail</text>
</g>
<!-- économie -->
<g id="node5" class="node">
<title>économie</title>
<ellipse fill="#b3325a" stroke="white" stroke-width="0" cx="422.57" cy="-249.16" rx="18" ry="18"/>
<text text-anchor="middle" x="356.07" y="-237.16" font-family="Helvetica,sans-Serif" font-size="20.00" fill="#4d4d4d">économie</text>
</g>
<!-- nickel -->
<g id="node6" class="node">
<title>nickel</title>
<ellipse fill="#fcffa4" stroke="white" stroke-width="0" cx="516.87" cy="-228.1" rx="36" ry="36"/>
<text text-anchor="middle" x="439.87" y="-200.7" font-family="Helvetica,sans-Serif" font-size="28.00" fill="#4d4d4d">nickel</text>
</g>
<!-- ressource minière -->
<g id="node7" class="node">
<title>ressource minière</title>
<ellipse fill="#64156e" stroke="white" stroke-width="0" cx="163" cy="-323.1" rx="11" ry="11"/>
<text text-anchor="middle" x="76" y="-338.66" font-family="Helvetica,sans-Serif" font-size="16.80" fill="#4d4d4d">ressource minière</text>
</g>
<!-- politique -->
<g id="node8" class="node">
<title>politique</title>
<ellipse fill="#9b2964" stroke="white" stroke-width="0" cx="262.53" cy="-182.58" rx="14.5" ry="14.5"/>
<text text-anchor="middle" x="207.03" y="-202.36" font-family="Helvetica,sans-Serif" font-size="18.40" fill="#4d4d4d">politique</text>
</g>
<!-- secteur nickel -->
<g id="node9" class="node">
<title>secteur nickel</title>
<ellipse fill="#b43359" stroke="white" stroke-width="0" cx="358.14" cy="-202.17" rx="18" ry="18"/>
<text text-anchor="middle" x="270.64" y="-226.17" font-family="Helvetica,sans-Serif" font-size="20.00" fill="#4d4d4d">secteur nickel</text>
</g>
<!-- nature -->
<g id="node10" class="node">
<title>nature</title>
<ellipse fill="#85216b" stroke="white" stroke-width="0" cx="184.88" cy="-241.58" rx="14.5" ry="14.5"/>
<text text-anchor="middle" x="139.38" y="-261.36" font-family="Helvetica,sans-Serif" font-size="18.40" fill="#4d4d4d">nature</text>
</g>
<!-- amélioration environnementale -->
<g id="node11" class="node">
<title>amélioration environnementale</title>
<ellipse fill="#030210" stroke="white" stroke-width="0" cx="718.65" cy="-94.6" rx="0.5" ry="0.5"/>
<text text-anchor="middle" x="623.65" y="-98.5" font-family="Helvetica,sans-Serif" font-size="12.00" fill="#4d4d4d">amélioration environnementale</text>
</g>
<!-- société néo&#45;calédonienne -->
<g id="node12" class="node">
<title>société néo&#45;calédonienne</title>
<ellipse fill="#180c3c" stroke="white" stroke-width="0" cx="225.48" cy="-48.66" rx="3.5" ry="3.5"/>
<text text-anchor="middle" x="135.48" y="-56.28" font-family="Helvetica,sans-Serif" font-size="13.60" fill="#4d4d4d">société néo&#45;calédonienne</text>
</g>
<!-- exploitation minière -->
<g id="node13" class="node">
<title>exploitation minière</title>
<ellipse fill="#7a1d6d" stroke="white" stroke-width="0" cx="369.2" cy="-339.18" rx="14.5" ry="14.5"/>
<text text-anchor="middle" x="261.2" y="-358.96" font-family="Helvetica,sans-Serif" font-size="18.40" fill="#4d4d4d">exploitation minière</text>
</g>
<!-- alternative au développement -->
<g id="node14" class="node">
<title>alternative au développement</title>
<ellipse fill="#120a32" stroke="white" stroke-width="0" cx="273.14" cy="-484.12" rx="3.5" ry="3.5"/>
<text text-anchor="middle" x="166.64" y="-491.74" font-family="Helvetica,sans-Serif" font-size="13.60" fill="#4d4d4d">alternative au développement</text>
</g>
<!-- matériel -->
<g id="node15" class="node">
<title>matériel</title>
<ellipse fill="#932667" stroke="white" stroke-width="0" cx="459.97" cy="-383.54" rx="14.5" ry="14.5"/>
<text text-anchor="middle" x="406.47" y="-403.32" font-family="Helvetica,sans-Serif" font-size="18.40" fill="#4d4d4d">matériel</text>
</g>
<!-- foncier -->
<g id="node16" class="node">
<title>foncier</title>
<ellipse fill="#240c4f" stroke="white" stroke-width="0" cx="381.39" cy="-7" rx="7" ry="7"/>
<text text-anchor="middle" x="348.39" y="-18.84" font-family="Helvetica,sans-Serif" font-size="15.20" fill="#4d4d4d">foncier</text>
</g>
<!-- relation politique -->
<g id="node17" class="node">
<title>relation politique</title>
<ellipse fill="#0b0724" stroke="white" stroke-width="0" cx="195.11" cy="-393.75" rx="3.5" ry="3.5"/>
<text text-anchor="middle" x="134.11" y="-401.37" font-family="Helvetica,sans-Serif" font-size="13.60" fill="#4d4d4d">relation politique</text>
</g>
<!-- industrie -->
<g id="node18" class="node">
<title>industrie</title>
<ellipse fill="#b3325a" stroke="white" stroke-width="0" cx="290.67" cy="-297.28" rx="18" ry="18"/>
<text text-anchor="middle" x="228.67" y="-321.28" font-family="Helvetica,sans-Serif" font-size="20.00" fill="#4d4d4d">industrie</text>
</g>
<!-- risque -->
<g id="node19" class="node">
<title>risque</title>
<ellipse fill="#050417" stroke="white" stroke-width="0" cx="553.43" cy="-28.98" rx="3.5" ry="3.5"/>
<text text-anchor="middle" x="528.93" y="-36.6" font-family="Helvetica,sans-Serif" font-size="13.60" fill="#4d4d4d">risque</text>
</g>
<!-- échange commercial -->
<g id="node20" class="node">
<title>échange commercial</title>
<ellipse fill="#380962" stroke="white" stroke-width="0" cx="358.43" cy="-452.73" rx="7" ry="7"/>
<text text-anchor="middle" x="272.43" y="-464.57" font-family="Helvetica,sans-Serif" font-size="15.20" fill="#4d4d4d">échange commercial</text>
</g>
<!-- avenir sans nickel -->
<g id="node21" class="node">
<title>avenir sans nickel</title>
<ellipse fill="#000004" stroke="white" stroke-width="0" cx="946.64" cy="-409.1" rx="0.5" ry="0.5"/>
<text text-anchor="middle" x="892.64" y="-413" font-family="Helvetica,sans-Serif" font-size="12.00" fill="#4d4d4d">avenir sans nickel</text>
</g>
</g>
</svg>
