<?xml version="1.0" encoding="UTF-8" standalone="no"?>
<!DOCTYPE svg PUBLIC "-//W3C//DTD SVG 1.1//EN"
 "http://www.w3.org/Graphics/SVG/1.1/DTD/svg11.dtd">
<!-- Generated by graphviz version 2.43.0 (0)
 -->
<!-- Pages: 1 -->
<svg width="765pt" height="385pt"
 viewBox="0.00 0.00 765.12 384.79" xmlns="http://www.w3.org/2000/svg" xmlns:xlink="http://www.w3.org/1999/xlink">
<g id="graph0" class="graph" transform="scale(1 1) rotate(0) translate(4 380.79)">
<polygon fill="white" stroke="transparent" points="-4,4 -4,-380.79 761.12,-380.79 761.12,4 -4,4"/>
<!-- pollution&#45;&#45;travail -->
<g id="edge1" class="edge">
<title>pollution&#45;&#45;travail</title>
<path fill="none" stroke="darkgrey" stroke-width="6.76" d="M593.49,-161.65C587.96,-191.74 579.94,-235.39 575.82,-257.84"/>
</g>
<!-- pollution&#45;&#45;richesse -->
<g id="edge2" class="edge">
<title>pollution&#45;&#45;richesse</title>
<path fill="none" stroke="darkgrey" stroke-width="2.22" d="M604.91,-161.76C608.25,-181.15 612.29,-204.65 614.64,-218.26"/>
</g>
<!-- pollution&#45;&#45;destruction -->
<g id="edge3" class="edge">
<title>pollution&#45;&#45;destruction</title>
<path fill="none" stroke="darkgrey" stroke-width="4.5" d="M630.98,-121.35C667.07,-111.92 723.64,-97.13 743.2,-92.02"/>
</g>
<!-- pollution&#45;&#45;argent -->
<g id="edge4" class="edge">
<title>pollution&#45;&#45;argent</title>
<path fill="none" stroke="darkgrey" stroke-width="2.15" d="M570.01,-115.25C545.64,-103.33 512.85,-87.3 499.25,-80.65"/>
</g>
<!-- pollution&#45;&#45;nickel -->
<g id="edge5" class="edge">
<title>pollution&#45;&#45;nickel</title>
<path fill="none" stroke="darkgrey" stroke-width="9.47" d="M570.5,-145.23C547.53,-157.64 515.43,-174.99 491.74,-187.8"/>
</g>
<!-- pollution&#45;&#45;camion -->
<g id="edge6" class="edge">
<title>pollution&#45;&#45;camion</title>
<path fill="none" stroke="darkgrey" stroke-width="2.63" d="M583.92,-100.82C578.97,-91.58 573.8,-81.97 570.1,-75.07"/>
</g>
<!-- pollution&#45;&#45;économie -->
<g id="edge7" class="edge">
<title>pollution&#45;&#45;économie</title>
<path fill="none" stroke="darkgrey" stroke-width="8.54" d="M580.66,-156.2C568.05,-174.11 551.75,-197.26 540.68,-212.99"/>
</g>
<!-- pollution&#45;&#45;environnement -->
<g id="edge8" class="edge">
<title>pollution&#45;&#45;environnement</title>
<path fill="none" stroke="darkgrey" stroke-width="6.21" d="M577.33,-153.62C573.05,-158.27 568.72,-162.99 564.9,-167.15"/>
</g>
<!-- pollution&#45;&#45;emploi -->
<g id="edge9" class="edge">
<title>pollution&#45;&#45;emploi</title>
<path fill="none" stroke="darkgrey" stroke-width="10" d="M566.73,-130.55C547.39,-131.1 523.61,-131.78 507.6,-132.24"/>
</g>
<!-- pollution&#45;&#45;conflit -->
<g id="edge10" class="edge">
<title>pollution&#45;&#45;conflit</title>
<path fill="none" stroke="darkgrey" stroke-width="1.07" d="M577.04,-105.97C550,-77.37 506.25,-31.09 491.4,-15.39"/>
</g>
<!-- pollution&#45;&#45;développement -->
<g id="edge11" class="edge">
<title>pollution&#45;&#45;développement</title>
<path fill="none" stroke="darkgrey" stroke-width="1.69" d="M616.57,-101.6C638.41,-66 673.81,-8.29 678.15,-1.22"/>
</g>
<!-- pollution&#45;&#45;déforestation -->
<g id="edge12" class="edge">
<title>pollution&#45;&#45;déforestation</title>
<path fill="none" stroke="darkgrey" stroke-width="1.35" d="M629.66,-141.88C662.8,-155.31 713.03,-175.66 726.5,-181.12"/>
</g>
<!-- travail&#45;&#45;richesse -->
<g id="edge13" class="edge">
<title>travail&#45;&#45;richesse</title>
<path fill="none" stroke="darkgrey" stroke-width="1.2" d="M583.66,-262C591.39,-254.36 601.73,-244.15 608.74,-237.22"/>
</g>
<!-- travail&#45;&#45;nickel -->
<g id="edge14" class="edge">
<title>travail&#45;&#45;nickel</title>
<path fill="none" stroke="darkgrey" stroke-width="2.93" d="M560.6,-264.91C543.91,-254.97 513.85,-237.06 490.91,-223.4"/>
</g>
<!-- travail&#45;&#45;économie -->
<g id="edge15" class="edge">
<title>travail&#45;&#45;économie</title>
<path fill="none" stroke="darkgrey" stroke-width="2.5" d="M562.25,-262.31C556.84,-257.31 550.2,-251.18 544.21,-245.65"/>
</g>
<!-- travail&#45;&#45;environnement -->
<g id="edge16" class="edge">
<title>travail&#45;&#45;environnement</title>
<path fill="none" stroke="darkgrey" stroke-width="2.29" d="M569.92,-258.04C566.3,-241.91 560.41,-215.7 556.5,-198.31"/>
</g>
<!-- richesse&#45;&#45;nickel -->
<g id="edge17" class="edge">
<title>richesse&#45;&#45;nickel</title>
<path fill="none" stroke="darkgrey" stroke-width="1.75" d="M605.31,-227.72C582.73,-224.19 531.07,-216.1 495.83,-210.58"/>
</g>
<!-- richesse&#45;&#45;économie -->
<g id="edge18" class="edge">
<title>richesse&#45;&#45;économie</title>
<path fill="none" stroke="darkgrey" d="M605.37,-229.65C591.43,-229.86 567.31,-230.22 549.73,-230.48"/>
</g>
<!-- argent&#45;&#45;nickel -->
<g id="edge19" class="edge">
<title>argent&#45;&#45;nickel</title>
<path fill="none" stroke="darkgrey" stroke-width="3.3" d="M491.15,-84.41C487.05,-100.28 476.66,-140.46 468.99,-170.1"/>
</g>
<!-- argent&#45;&#45;emploi -->
<g id="edge20" class="edge">
<title>argent&#45;&#45;emploi</title>
<path fill="none" stroke="darkgrey" stroke-width="1.4" d="M492.49,-84.78C492.03,-92.26 491.31,-104.25 490.69,-114.38"/>
</g>
<!-- nickel&#45;&#45;camion -->
<g id="edge22" class="edge">
<title>nickel&#45;&#45;camion</title>
<path fill="none" stroke="darkgrey" stroke-width="5.08" d="M481.7,-176.02C505.7,-144.05 542.94,-94.42 558.08,-74.24"/>
</g>
<!-- nickel&#45;&#45;économie -->
<g id="edge23" class="edge">
<title>nickel&#45;&#45;économie</title>
<path fill="none" stroke="darkgrey" stroke-width="5.95" d="M493.66,-217.73C498.49,-219.56 503.33,-221.4 507.79,-223.09"/>
</g>
<!-- nickel&#45;&#45;environnement -->
<g id="edge24" class="edge">
<title>nickel&#45;&#45;environnement</title>
<path fill="none" stroke="darkgrey" stroke-width="3.05" d="M494.97,-195.76C508.68,-192.15 523.81,-188.17 535.11,-185.2"/>
</g>
<!-- nickel&#45;&#45;emploi -->
<g id="edge26" class="edge">
<title>nickel&#45;&#45;emploi</title>
<path fill="none" stroke="darkgrey" stroke-width="5.54" d="M473.74,-171.4C476.82,-163.88 479.96,-156.22 482.62,-149.72"/>
</g>
<!-- nickel&#45;&#45;montagne -->
<g id="edge21" class="edge">
<title>nickel&#45;&#45;montagne</title>
<path fill="none" stroke="darkgrey" stroke-width="2.28" d="M442.97,-236.91C429,-263.16 410.34,-298.23 402.84,-312.32"/>
</g>
<!-- nickel&#45;&#45;terre rouge -->
<g id="edge25" class="edge">
<title>nickel&#45;&#45;terre rouge</title>
<path fill="none" stroke="darkgrey" stroke-width="1.14" d="M463.29,-240.99C467.49,-286.57 474.25,-360 474.87,-366.78"/>
</g>
<!-- nickel&#45;&#45;usine -->
<g id="edge27" class="edge">
<title>nickel&#45;&#45;usine</title>
<path fill="none" stroke="darkgrey" stroke-width="4.47" d="M424.25,-198.5C396.59,-193.49 360.56,-186.96 345.65,-184.26"/>
</g>
<!-- nickel&#45;&#45;sln -->
<g id="edge28" class="edge">
<title>nickel&#45;&#45;sln</title>
<path fill="none" stroke="darkgrey" stroke-width="5.72" d="M428.63,-222.94C395.51,-241.92 345.7,-270.47 328.18,-280.51"/>
</g>
<!-- nickel&#45;&#45;minerai -->
<g id="edge29" class="edge">
<title>nickel&#45;&#45;minerai</title>
<path fill="none" stroke="darkgrey" stroke-width="3.86" d="M426.49,-190.95C383.64,-173.01 312.35,-143.17 290.62,-134.07"/>
</g>
<!-- économie&#45;&#45;environnement -->
<g id="edge30" class="edge">
<title>économie&#45;&#45;environnement</title>
<path fill="none" stroke="darkgrey" stroke-width="8.46" d="M537.64,-211.25C539.94,-206.52 542.37,-201.51 544.59,-196.94"/>
</g>
<!-- économie&#45;&#45;emploi -->
<g id="edge31" class="edge">
<title>économie&#45;&#45;emploi</title>
<path fill="none" stroke="darkgrey" stroke-width="7.53" d="M520.15,-210.48C513.09,-192.54 502.92,-166.66 496.28,-149.78"/>
</g>
<!-- environnement&#45;&#45;emploi -->
<g id="edge32" class="edge">
<title>environnement&#45;&#45;emploi</title>
<path fill="none" stroke="darkgrey" stroke-width="2.93" d="M537.93,-169.52C527.76,-161.78 514.25,-151.51 504.1,-143.79"/>
</g>
<!-- emploi&#45;&#45;conflit -->
<g id="edge33" class="edge">
<title>emploi&#45;&#45;conflit</title>
<path fill="none" stroke="darkgrey" stroke-width="1.14" d="M489.09,-114.64C488.35,-87.02 486.97,-35.63 486.46,-16.97"/>
</g>
<!-- usine&#45;&#45;minerai -->
<g id="edge34" class="edge">
<title>usine&#45;&#45;minerai</title>
<path fill="none" stroke="darkgrey" stroke-width="1.93" d="M333.29,-177.86C322.72,-167.86 299.52,-145.91 289.22,-136.17"/>
</g>
<!-- exploitation&#45;&#45;minerai -->
<g id="edge36" class="edge">
<title>exploitation&#45;&#45;minerai</title>
<path fill="none" stroke="darkgrey" stroke-width="1.18" d="M158.15,-90.13C180.87,-97.56 254.29,-121.59 277.22,-129.09"/>
</g>
<!-- exploitation&#45;&#45;ressource -->
<g id="edge35" class="edge">
<title>exploitation&#45;&#45;ressource</title>
<path fill="none" stroke="darkgrey" stroke-width="1.09" d="M144.54,-86.26C125.67,-81.69 73.07,-68.96 54.01,-64.35"/>
</g>
<!-- pollution -->
<g id="node1" class="node">
<title>pollution</title>
<ellipse fill="#fbbe23" stroke="white" stroke-width="0" cx="599.38" cy="-129.61" rx="32.5" ry="32.5"/>
<text text-anchor="middle" x="548.38" y="-99.71" font-family="Helvetica,sans-Serif" font-size="8.00" fill="#4d4d4d">pollution</text>
</g>
<!-- travail -->
<g id="node2" class="node">
<title>travail</title>
<ellipse fill="#972766" stroke="white" stroke-width="0" cx="573.15" cy="-272.38" rx="14.5" ry="14.5"/>
<text text-anchor="middle" x="545.65" y="-289.48" font-family="Helvetica,sans-Serif" font-size="8.00" fill="#4d4d4d">travail</text>
</g>
<!-- richesse -->
<g id="node3" class="node">
<title>richesse</title>
<ellipse fill="#5f136e" stroke="white" stroke-width="0" cx="616.57" cy="-229.49" rx="11" ry="11"/>
<text text-anchor="middle" x="588.07" y="-243.09" font-family="Helvetica,sans-Serif" font-size="8.00" fill="#4d4d4d">richesse</text>
</g>
<!-- destruction -->
<g id="node4" class="node">
<title>destruction</title>
<ellipse fill="#2b0b57" stroke="white" stroke-width="0" cx="750.12" cy="-90.21" rx="7" ry="7"/>
<text text-anchor="middle" x="719.62" y="-99.81" font-family="Helvetica,sans-Serif" font-size="8.00" fill="#4d4d4d">destruction</text>
</g>
<!-- argent -->
<g id="node5" class="node">
<title>argent</title>
<ellipse fill="#450a69" stroke="white" stroke-width="0" cx="492.93" cy="-77.56" rx="7" ry="7"/>
<text text-anchor="middle" x="471.93" y="-87.16" font-family="Helvetica,sans-Serif" font-size="8.00" fill="#4d4d4d">argent</text>
</g>
<!-- nickel -->
<g id="node6" class="node">
<title>nickel</title>
<ellipse fill="#fcffa4" stroke="white" stroke-width="0" cx="459.98" cy="-204.97" rx="36" ry="36"/>
<text text-anchor="middle" x="411.98" y="-243.57" font-family="Helvetica,sans-Serif" font-size="8.00" fill="#4d4d4d">nickel</text>
</g>
<!-- camion -->
<g id="node7" class="node">
<title>camion</title>
<ellipse fill="#65156e" stroke="white" stroke-width="0" cx="564.83" cy="-65.25" rx="11" ry="11"/>
<text text-anchor="middle" x="538.33" y="-78.85" font-family="Helvetica,sans-Serif" font-size="8.00" fill="#4d4d4d">camion</text>
</g>
<!-- économie -->
<g id="node8" class="node">
<title>économie</title>
<ellipse fill="#d04545" stroke="white" stroke-width="0" cx="528.14" cy="-230.8" rx="21.5" ry="21.5"/>
<text text-anchor="middle" x="486.14" y="-254.9" font-family="Helvetica,sans-Serif" font-size="8.00" fill="#4d4d4d">économie</text>
</g>
<!-- environnement -->
<g id="node9" class="node">
<title>environnement</title>
<ellipse fill="#a92e5e" stroke="white" stroke-width="0" cx="552.53" cy="-180.62" rx="18" ry="18"/>
<text text-anchor="middle" x="503.53" y="-156.22" font-family="Helvetica,sans-Serif" font-size="8.00" fill="#4d4d4d">environnement</text>
</g>
<!-- emploi -->
<g id="node10" class="node">
<title>emploi</title>
<ellipse fill="#ad305d" stroke="white" stroke-width="0" cx="489.58" cy="-132.75" rx="18" ry="18"/>
<text text-anchor="middle" x="457.58" y="-153.35" font-family="Helvetica,sans-Serif" font-size="8.00" fill="#4d4d4d">emploi</text>
</g>
<!-- conflit -->
<g id="node11" class="node">
<title>conflit</title>
<ellipse fill="#2b0b57" stroke="white" stroke-width="0" cx="486.28" cy="-9.97" rx="7" ry="7"/>
<text text-anchor="middle" x="466.28" y="-19.57" font-family="Helvetica,sans-Serif" font-size="8.00" fill="#4d4d4d">conflit</text>
</g>
<!-- développement -->
<g id="node12" class="node">
<title>développement</title>
<ellipse fill="#010108" stroke="white" stroke-width="0" cx="678.59" cy="-0.5" rx="0.5" ry="0.5"/>
<text text-anchor="middle" x="645.59" y="-3.6" font-family="Helvetica,sans-Serif" font-size="8.00" fill="#4d4d4d">développement</text>
</g>
<!-- déforestation -->
<g id="node13" class="node">
<title>déforestation</title>
<ellipse fill="#08051d" stroke="white" stroke-width="0" cx="729.93" cy="-182.51" rx="3.5" ry="3.5"/>
<text text-anchor="middle" x="698.93" y="-188.61" font-family="Helvetica,sans-Serif" font-size="8.00" fill="#4d4d4d">déforestation</text>
</g>
<!-- montagne -->
<g id="node14" class="node">
<title>montagne</title>
<ellipse fill="#340a5f" stroke="white" stroke-width="0" cx="399.52" cy="-318.56" rx="7" ry="7"/>
<text text-anchor="middle" x="371.02" y="-328.16" font-family="Helvetica,sans-Serif" font-size="8.00" fill="#4d4d4d">montagne</text>
</g>
<!-- terre rouge -->
<g id="node15" class="node">
<title>terre rouge</title>
<ellipse fill="#000004" stroke="white" stroke-width="0" cx="474.92" cy="-367.29" rx="0.5" ry="0.5"/>
<text text-anchor="middle" x="451.92" y="-370.39" font-family="Helvetica,sans-Serif" font-size="8.00" fill="#4d4d4d">terre rouge</text>
</g>
<!-- usine -->
<g id="node16" class="node">
<title>usine</title>
<ellipse fill="#4a0c6b" stroke="white" stroke-width="0" cx="338.73" cy="-183" rx="7" ry="7"/>
<text text-anchor="middle" x="320.23" y="-192.6" font-family="Helvetica,sans-Serif" font-size="8.00" fill="#4d4d4d">usine</text>
</g>
<!-- sln -->
<g id="node17" class="node">
<title>sln</title>
<ellipse fill="#340a5f" stroke="white" stroke-width="0" cx="321.82" cy="-284.15" rx="7" ry="7"/>
<text text-anchor="middle" x="308.32" y="-293.75" font-family="Helvetica,sans-Serif" font-size="8.00" fill="#4d4d4d">sln</text>
</g>
<!-- minerai -->
<g id="node18" class="node">
<title>minerai</title>
<ellipse fill="#4a0c6b" stroke="white" stroke-width="0" cx="284.13" cy="-131.35" rx="7" ry="7"/>
<text text-anchor="middle" x="261.63" y="-140.95" font-family="Helvetica,sans-Serif" font-size="8.00" fill="#4d4d4d">minerai</text>
</g>
<!-- exploitation -->
<g id="node19" class="node">
<title>exploitation</title>
<ellipse fill="#4f0d6c" stroke="white" stroke-width="0" cx="151.39" cy="-87.91" rx="7" ry="7"/>
<text text-anchor="middle" x="119.89" y="-97.51" font-family="Helvetica,sans-Serif" font-size="8.00" fill="#4d4d4d">exploitation</text>
</g>
<!-- ressource -->
<g id="node20" class="node">
<title>ressource</title>
<ellipse fill="#3d0965" stroke="white" stroke-width="0" cx="47" cy="-62.65" rx="7" ry="7"/>
<text text-anchor="middle" x="20" y="-72.25" font-family="Helvetica,sans-Serif" font-size="8.00" fill="#4d4d4d">ressource</text>
</g>
</g>
</svg>
