<?xml version="1.0" encoding="UTF-8" standalone="no"?>
<!DOCTYPE svg PUBLIC "-//W3C//DTD SVG 1.1//EN"
 "http://www.w3.org/Graphics/SVG/1.1/DTD/svg11.dtd">
<!-- Generated by graphviz version 2.43.0 (0)
 -->
<!-- Pages: 1 -->
<svg width="512pt" height="467pt"
 viewBox="0.00 0.00 511.81 466.53" xmlns="http://www.w3.org/2000/svg" xmlns:xlink="http://www.w3.org/1999/xlink">
<g id="graph0" class="graph" transform="scale(1 1) rotate(0) translate(4 462.53)">
<polygon fill="white" stroke="transparent" points="-4,4 -4,-462.53 507.81,-462.53 507.81,4 -4,4"/>
<!-- pollution&#45;&#45;travail -->
<g id="edge1" class="edge">
<title>pollution&#45;&#45;travail</title>
<path fill="none" stroke="darkgrey" stroke-width="7.21" d="M323.88,-268.46C316.9,-298.43 306.76,-341.91 301.55,-364.27"/>
</g>
<!-- pollution&#45;&#45;richesse -->
<g id="edge2" class="edge">
<title>pollution&#45;&#45;richesse</title>
<path fill="none" stroke="darkgrey" stroke-width="3.29" d="M312.74,-263.45C300.58,-281.05 285.44,-302.98 276.98,-315.23"/>
</g>
<!-- pollution&#45;&#45;destruction -->
<g id="edge3" class="edge">
<title>pollution&#45;&#45;destruction</title>
<path fill="none" stroke="darkgrey" stroke-width="5.26" d="M352.26,-211.1C386.99,-168.9 454.51,-86.87 472.81,-64.63"/>
</g>
<!-- pollution&#45;&#45;argent -->
<g id="edge4" class="edge">
<title>pollution&#45;&#45;argent</title>
<path fill="none" stroke="darkgrey" stroke-width="3.23" d="M301.02,-249.16C261.16,-265.76 193.7,-293.86 172.63,-302.63"/>
</g>
<!-- pollution&#45;&#45;nickel -->
<g id="edge5" class="edge">
<title>pollution&#45;&#45;nickel</title>
<path fill="none" stroke="darkgrey" stroke-width="9.54" d="M299.16,-230.87C298.73,-230.8 298.31,-230.72 297.88,-230.65"/>
</g>
<!-- pollution&#45;&#45;montagne -->
<g id="edge6" class="edge">
<title>pollution&#45;&#45;montagne</title>
<path fill="none" stroke="darkgrey" stroke-width="1.77" d="M355.24,-214.44C362.96,-207.29 370.8,-200.05 375.75,-195.48"/>
</g>
<!-- pollution&#45;&#45;camion -->
<g id="edge7" class="edge">
<title>pollution&#45;&#45;camion</title>
<path fill="none" stroke="darkgrey" stroke-width="3.64" d="M361.12,-223.38C381.64,-214.32 407.67,-202.82 421.94,-196.52"/>
</g>
<!-- pollution&#45;&#45;économie -->
<g id="edge8" class="edge">
<title>pollution&#45;&#45;économie</title>
<path fill="none" stroke="darkgrey" stroke-width="8.74" d="M333.28,-269.09C334.59,-290.81 336.28,-318.75 337.42,-337.72"/>
</g>
<!-- pollution&#45;&#45;environnement -->
<g id="edge9" class="edge">
<title>pollution&#45;&#45;environnement</title>
<path fill="none" stroke="darkgrey" stroke-width="6.74" d="M308.48,-260.19C285.17,-284.33 249.82,-320.92 231.12,-340.28"/>
</g>
<!-- pollution&#45;&#45;emploi -->
<g id="edge10" class="edge">
<title>pollution&#45;&#45;emploi</title>
<path fill="none" stroke="darkgrey" stroke-width="10" d="M316.22,-265.58C299.13,-298.41 271.93,-350.7 258.33,-376.85"/>
</g>
<!-- pollution&#45;&#45;terre -->
<g id="edge11" class="edge">
<title>pollution&#45;&#45;terre</title>
<path fill="none" stroke="darkgrey" stroke-width="1.66" d="M348.81,-264.18C354.57,-273.27 360.44,-282.55 364.15,-288.41"/>
</g>
<!-- pollution&#45;&#45;usine -->
<g id="edge12" class="edge">
<title>pollution&#45;&#45;usine</title>
<path fill="none" stroke="darkgrey" stroke-width="1.99" d="M363.3,-242.67C378.86,-245.65 396.55,-249.04 407.63,-251.16"/>
</g>
<!-- pollution&#45;&#45;exploitation -->
<g id="edge13" class="edge">
<title>pollution&#45;&#45;exploitation</title>
<path fill="none" stroke="darkgrey" stroke-width="1.82" d="M323.07,-205.07C313.61,-168.98 298.61,-111.75 292.4,-88.06"/>
</g>
<!-- pollution&#45;&#45;ressource -->
<g id="edge14" class="edge">
<title>pollution&#45;&#45;ressource</title>
<path fill="none" stroke="darkgrey" stroke-width="1.39" d="M312.56,-209.73C291.9,-180.2 260.13,-134.77 248.94,-118.77"/>
</g>
<!-- pollution&#45;&#45;conflit -->
<g id="edge15" class="edge">
<title>pollution&#45;&#45;conflit</title>
<path fill="none" stroke="darkgrey" stroke-width="2.3" d="M337.6,-268.73C347.24,-318.07 365.08,-409.41 370.16,-435.44"/>
</g>
<!-- pollution&#45;&#45;développement -->
<g id="edge16" class="edge">
<title>pollution&#45;&#45;développement</title>
<path fill="none" stroke="darkgrey" stroke-width="2.84" d="M339.14,-204.63C353.33,-146.79 382.31,-28.6 387.62,-6.95"/>
</g>
<!-- pollution&#45;&#45;minerai -->
<g id="edge17" class="edge">
<title>pollution&#45;&#45;minerai</title>
<path fill="none" stroke="darkgrey" stroke-width="1.64" d="M338.23,-204.69C342.85,-183.39 348.64,-156.69 351.81,-142.09"/>
</g>
<!-- pollution&#45;&#45;déforestation -->
<g id="edge18" class="edge">
<title>pollution&#45;&#45;déforestation</title>
<path fill="none" stroke="darkgrey" stroke-width="2.54" d="M357.06,-256.7C387.32,-280.38 434.97,-317.67 447.09,-327.16"/>
</g>
<!-- travail&#45;&#45;richesse -->
<g id="edge19" class="edge">
<title>travail&#45;&#45;richesse</title>
<path fill="none" stroke="darkgrey" stroke-width="2.41" d="M291.48,-365.64C286.61,-356.13 280.13,-343.45 275.66,-334.72"/>
</g>
<!-- travail&#45;&#45;nickel -->
<g id="edge20" class="edge">
<title>travail&#45;&#45;nickel</title>
<path fill="none" stroke="darkgrey" stroke-width="3.9" d="M294.85,-364.5C289.33,-340.83 278.1,-292.74 270.35,-259.54"/>
</g>
<!-- travail&#45;&#45;économie -->
<g id="edge21" class="edge">
<title>travail&#45;&#45;économie</title>
<path fill="none" stroke="darkgrey" stroke-width="3.53" d="M311.45,-372.34C313.95,-371.14 316.6,-369.86 319.24,-368.59"/>
</g>
<!-- travail&#45;&#45;environnement -->
<g id="edge22" class="edge">
<title>travail&#45;&#45;environnement</title>
<path fill="none" stroke="darkgrey" stroke-width="3.35" d="M284.29,-374.33C270.82,-370.04 250.34,-363.52 235.81,-358.9"/>
</g>
<!-- travail&#45;&#45;terre -->
<g id="edge23" class="edge">
<title>travail&#45;&#45;terre</title>
<path fill="none" stroke="darkgrey" stroke-width="1.05" d="M307.6,-367.39C322.79,-349.07 352.14,-313.67 363.44,-300.05"/>
</g>
<!-- richesse&#45;&#45;nickel -->
<g id="edge24" class="edge">
<title>richesse&#45;&#45;nickel</title>
<path fill="none" stroke="darkgrey" stroke-width="2.88" d="M269.57,-313.5C268.51,-300.75 266.71,-279.19 265.15,-260.47"/>
</g>
<!-- richesse&#45;&#45;économie -->
<g id="edge25" class="edge">
<title>richesse&#45;&#45;économie</title>
<path fill="none" stroke="darkgrey" stroke-width="2.24" d="M280.56,-329.72C290.72,-334.86 306.66,-342.94 319.29,-349.34"/>
</g>
<!-- richesse&#45;&#45;environnement -->
<g id="edge26" class="edge">
<title>richesse&#45;&#45;environnement</title>
<path fill="none" stroke="darkgrey" stroke-width="1.17" d="M260.46,-330.16C253.14,-334.21 243.06,-339.78 234.61,-344.45"/>
</g>
<!-- richesse&#45;&#45;emploi -->
<g id="edge27" class="edge">
<title>richesse&#45;&#45;emploi</title>
<path fill="none" stroke="darkgrey" stroke-width="1.95" d="M267.3,-335.27C264.08,-345.99 259.06,-362.69 255.26,-375.34"/>
</g>
<!-- richesse&#45;&#45;terre -->
<g id="edge28" class="edge">
<title>richesse&#45;&#45;terre</title>
<path fill="none" stroke="darkgrey" d="M281.31,-321.28C301.54,-315.03 344.59,-301.75 361.25,-296.61"/>
</g>
<!-- argent&#45;&#45;nickel -->
<g id="edge29" class="edge">
<title>argent&#45;&#45;nickel</title>
<path fill="none" stroke="darkgrey" stroke-width="4.22" d="M171.59,-300.74C183.48,-290.7 212.52,-266.2 234.54,-247.62"/>
</g>
<!-- argent&#45;&#45;emploi -->
<g id="edge30" class="edge">
<title>argent&#45;&#45;emploi</title>
<path fill="none" stroke="darkgrey" stroke-width="2.59" d="M171.15,-310.54C183.98,-323.93 218.43,-359.87 237.27,-379.52"/>
</g>
<!-- nickel&#45;&#45;montagne -->
<g id="edge32" class="edge">
<title>nickel&#45;&#45;montagne</title>
<path fill="none" stroke="darkgrey" stroke-width="3.34" d="M296.8,-214.52C323.92,-206.84 359.4,-196.8 374.08,-192.64"/>
</g>
<!-- nickel&#45;&#45;camion -->
<g id="edge33" class="edge">
<title>nickel&#45;&#45;camion</title>
<path fill="none" stroke="darkgrey" stroke-width="5.76" d="M297.84,-217.53C336.87,-210.09 397.09,-198.61 421.58,-193.94"/>
</g>
<!-- nickel&#45;&#45;économie -->
<g id="edge34" class="edge">
<title>nickel&#45;&#45;économie</title>
<path fill="none" stroke="darkgrey" stroke-width="6.51" d="M280.09,-255.95C294.94,-282.11 315.55,-318.4 327.97,-340.25"/>
</g>
<!-- nickel&#45;&#45;environnement -->
<g id="edge35" class="edge">
<title>nickel&#45;&#45;environnement</title>
<path fill="none" stroke="darkgrey" stroke-width="4.01" d="M250.55,-258.58C242.11,-283.52 231.03,-316.26 224.34,-336.01"/>
</g>
<!-- nickel&#45;&#45;emploi -->
<g id="edge38" class="edge">
<title>nickel&#45;&#45;emploi</title>
<path fill="none" stroke="darkgrey" stroke-width="6.15" d="M259.53,-260.48C257,-295.67 253.26,-347.71 251.31,-374.86"/>
</g>
<!-- nickel&#45;&#45;terre -->
<g id="edge39" class="edge">
<title>nickel&#45;&#45;terre</title>
<path fill="none" stroke="darkgrey" stroke-width="1.82" d="M292.19,-244.26C316.41,-260.31 348.53,-281.6 361.84,-290.42"/>
</g>
<!-- nickel&#45;&#45;usine -->
<g id="edge40" class="edge">
<title>nickel&#45;&#45;usine</title>
<path fill="none" stroke="darkgrey" stroke-width="5.24" d="M297.63,-230.9C332.96,-237.43 385.07,-247.06 407.56,-251.21"/>
</g>
<!-- nickel&#45;&#45;exploitation -->
<g id="edge41" class="edge">
<title>nickel&#45;&#45;exploitation</title>
<path fill="none" stroke="darkgrey" stroke-width="1.9" d="M268.77,-188.73C274.89,-155.91 283.6,-109.2 287.51,-88.21"/>
</g>
<!-- nickel&#45;&#45;ressource -->
<g id="edge43" class="edge">
<title>nickel&#45;&#45;ressource</title>
<path fill="none" stroke="darkgrey" stroke-width="1.88" d="M256.58,-188.48C252.79,-164.06 248.1,-133.79 245.99,-120.18"/>
</g>
<!-- nickel&#45;&#45;minerai -->
<g id="edge44" class="edge">
<title>nickel&#45;&#45;minerai</title>
<path fill="none" stroke="darkgrey" stroke-width="4.7" d="M287.76,-198.42C307.54,-178.42 333.62,-152.05 346.41,-139.13"/>
</g>
<!-- nickel&#45;&#45;déforestation -->
<g id="edge45" class="edge">
<title>nickel&#45;&#45;déforestation</title>
<path fill="none" stroke="darkgrey" stroke-width="1.12" d="M293.57,-241.92C341.2,-268.56 428.04,-317.15 446.47,-327.46"/>
</g>
<!-- nickel&#45;&#45;extraction -->
<g id="edge31" class="edge">
<title>nickel&#45;&#45;extraction</title>
<path fill="none" stroke="darkgrey" stroke-width="1.33" d="M227.17,-233.75C167.88,-249.71 52.94,-280.66 42.29,-283.53"/>
</g>
<!-- nickel&#45;&#45;caillou -->
<g id="edge36" class="edge">
<title>nickel&#45;&#45;caillou</title>
<path fill="none" stroke="darkgrey" stroke-width="1.12" d="M297.02,-215.11C356.97,-199.26 475.22,-167.99 496.86,-162.27"/>
</g>
<!-- nickel&#45;&#45;terre rouge -->
<g id="edge37" class="edge">
<title>nickel&#45;&#45;terre rouge</title>
<path fill="none" stroke="darkgrey" stroke-width="2.37" d="M226.39,-217.89C172.01,-208.08 72.65,-190.15 52.29,-186.48"/>
</g>
<!-- nickel&#45;&#45;sln -->
<g id="edge42" class="edge">
<title>nickel&#45;&#45;sln</title>
<path fill="none" stroke="darkgrey" stroke-width="6.31" d="M232.52,-203.58C188.44,-172.7 108.39,-116.6 86.18,-101.03"/>
</g>
<!-- nickel&#45;&#45;goro -->
<g id="edge46" class="edge">
<title>nickel&#45;&#45;goro</title>
<path fill="none" stroke="darkgrey" stroke-width="1.54" d="M240.48,-195.27C204.17,-146.52 134.32,-52.74 127.85,-44.05"/>
</g>
<!-- montagne&#45;&#45;camion -->
<g id="edge47" class="edge">
<title>montagne&#45;&#45;camion</title>
<path fill="none" stroke="darkgrey" stroke-width="1.34" d="M388.07,-190.87C396.71,-191.06 411.31,-191.39 421.4,-191.61"/>
</g>
<!-- montagne&#45;&#45;terre -->
<g id="edge48" class="edge">
<title>montagne&#45;&#45;terre</title>
<path fill="none" stroke="darkgrey" stroke-width="1.28" d="M380.01,-197.85C377.66,-216.81 371.27,-268.31 368.91,-287.33"/>
</g>
<!-- camion&#45;&#45;terre -->
<g id="edge50" class="edge">
<title>camion&#45;&#45;terre</title>
<path fill="none" stroke="darkgrey" stroke-width="1.08" d="M426.53,-201.33C413.57,-221.98 383.04,-270.59 372.05,-288.1"/>
</g>
<!-- camion&#45;&#45;usine -->
<g id="edge51" class="edge">
<title>camion&#45;&#45;usine</title>
<path fill="none" stroke="darkgrey" stroke-width="1.92" d="M429.99,-202.83C427.46,-214.01 423.55,-231.23 421.02,-242.37"/>
</g>
<!-- camion&#45;&#45;minerai -->
<g id="edge52" class="edge">
<title>camion&#45;&#45;minerai</title>
<path fill="none" stroke="darkgrey" stroke-width="1.43" d="M423.5,-184.91C408.39,-173.23 378.07,-149.8 363.03,-138.17"/>
</g>
<!-- camion&#45;&#45;caillou -->
<g id="edge49" class="edge">
<title>camion&#45;&#45;caillou</title>
<path fill="none" stroke="darkgrey" stroke-width="1.28" d="M442.78,-187.23C458.35,-180.23 487.08,-167.31 496.91,-162.89"/>
</g>
<!-- économie&#45;&#45;environnement -->
<g id="edge53" class="edge">
<title>économie&#45;&#45;environnement</title>
<path fill="none" stroke="darkgrey" stroke-width="8.67" d="M317.22,-358.15C294.25,-357.04 258.24,-355.3 236.64,-354.25"/>
</g>
<!-- économie&#45;&#45;emploi -->
<g id="edge54" class="edge">
<title>économie&#45;&#45;emploi</title>
<path fill="none" stroke="darkgrey" stroke-width="7.87" d="M318.59,-366.82C303.05,-372.71 281.79,-380.77 267.08,-386.35"/>
</g>
<!-- économie&#45;&#45;usine -->
<g id="edge55" class="edge">
<title>économie&#45;&#45;usine</title>
<path fill="none" stroke="darkgrey" stroke-width="1.2" d="M351.9,-341.7C369.08,-318.89 398.5,-279.86 411.74,-262.28"/>
</g>
<!-- économie&#45;&#45;conflit -->
<g id="edge56" class="edge">
<title>économie&#45;&#45;conflit</title>
<path fill="none" stroke="darkgrey" stroke-width="1.31" d="M346.67,-379.36C353.88,-397.67 364.09,-423.6 368.88,-435.75"/>
</g>
<!-- environnement&#45;&#45;emploi -->
<g id="edge57" class="edge">
<title>environnement&#45;&#45;emploi</title>
<path fill="none" stroke="darkgrey" stroke-width="3.9" d="M229.86,-367.62C232.75,-371.23 235.86,-375.12 238.75,-378.73"/>
</g>
<!-- emploi&#45;&#45;conflit -->
<g id="edge58" class="edge">
<title>emploi&#45;&#45;conflit</title>
<path fill="none" stroke="darkgrey" stroke-width="2.36" d="M266.91,-399.73C294.18,-410.88 346.67,-432.35 365.02,-439.86"/>
</g>
<!-- usine&#45;&#45;minerai -->
<g id="edge59" class="edge">
<title>usine&#45;&#45;minerai</title>
<path fill="none" stroke="darkgrey" stroke-width="3.05" d="M413.28,-243.27C401.14,-220.29 371.34,-163.86 359.31,-141.08"/>
</g>
<!-- exploitation&#45;&#45;ressource -->
<g id="edge60" class="edge">
<title>exploitation&#45;&#45;ressource</title>
<path fill="none" stroke="darkgrey" stroke-width="2.32" d="M280.94,-84.12C272.02,-91.26 258.31,-102.21 250.62,-108.36"/>
</g>
<!-- exploitation&#45;&#45;minerai -->
<g id="edge61" class="edge">
<title>exploitation&#45;&#45;minerai</title>
<path fill="none" stroke="darkgrey" stroke-width="2.4" d="M298,-84.31C310.31,-94.61 333.07,-113.66 345.49,-124.06"/>
</g>
<!-- ressource&#45;&#45;minerai -->
<g id="edge63" class="edge">
<title>ressource&#45;&#45;minerai</title>
<path fill="none" stroke="darkgrey" stroke-width="1.81" d="M252.04,-114.16C270.65,-117.28 320.62,-125.68 343.02,-129.44"/>
</g>
<!-- sln&#45;&#45;goro -->
<g id="edge62" class="edge">
<title>sln&#45;&#45;goro</title>
<path fill="none" stroke="darkgrey" stroke-width="1.19" d="M85,-91.6C96.16,-78.91 123.63,-47.65 127.02,-43.8"/>
</g>
<!-- pollution -->
<g id="node1" class="node">
<title>pollution</title>
<ellipse fill="#fac026" stroke="white" stroke-width="0" cx="331.32" cy="-236.55" rx="32.5" ry="32.5"/>
<text text-anchor="middle" x="280.32" y="-271.65" font-family="Helvetica,sans-Serif" font-size="8.00" fill="#4d4d4d">pollution</text>
</g>
<!-- travail -->
<g id="node2" class="node">
<title>travail</title>
<ellipse fill="#9f2a63" stroke="white" stroke-width="0" cx="298.18" cy="-378.75" rx="14.5" ry="14.5"/>
<text text-anchor="middle" x="270.68" y="-366.85" font-family="Helvetica,sans-Serif" font-size="8.00" fill="#4d4d4d">travail</text>
</g>
<!-- richesse -->
<g id="node3" class="node">
<title>richesse</title>
<ellipse fill="#69166e" stroke="white" stroke-width="0" cx="270.5" cy="-324.61" rx="11" ry="11"/>
<text text-anchor="middle" x="242" y="-316.21" font-family="Helvetica,sans-Serif" font-size="8.00" fill="#4d4d4d">richesse</text>
</g>
<!-- destruction -->
<g id="node4" class="node">
<title>destruction</title>
<ellipse fill="#380962" stroke="white" stroke-width="0" cx="477.48" cy="-58.96" rx="7" ry="7"/>
<text text-anchor="middle" x="446.98" y="-68.56" font-family="Helvetica,sans-Serif" font-size="8.00" fill="#4d4d4d">destruction</text>
</g>
<!-- argent -->
<g id="node5" class="node">
<title>argent</title>
<ellipse fill="#4f0d6c" stroke="white" stroke-width="0" cx="166.15" cy="-305.33" rx="7" ry="7"/>
<text text-anchor="middle" x="145.15" y="-314.93" font-family="Helvetica,sans-Serif" font-size="8.00" fill="#4d4d4d">argent</text>
</g>
<!-- nickel -->
<g id="node6" class="node">
<title>nickel</title>
<ellipse fill="#fcffa4" stroke="white" stroke-width="0" cx="262.13" cy="-224.34" rx="36" ry="36"/>
<text text-anchor="middle" x="214.13" y="-262.94" font-family="Helvetica,sans-Serif" font-size="8.00" fill="#4d4d4d">nickel</text>
</g>
<!-- montagne -->
<g id="node7" class="node">
<title>montagne</title>
<ellipse fill="#3e0966" stroke="white" stroke-width="0" cx="380.9" cy="-190.71" rx="7" ry="7"/>
<text text-anchor="middle" x="352.4" y="-186.31" font-family="Helvetica,sans-Serif" font-size="8.00" fill="#4d4d4d">montagne</text>
</g>
<!-- camion -->
<g id="node8" class="node">
<title>camion</title>
<ellipse fill="#6d186e" stroke="white" stroke-width="0" cx="432.48" cy="-191.86" rx="11" ry="11"/>
<text text-anchor="middle" x="405.98" y="-205.46" font-family="Helvetica,sans-Serif" font-size="8.00" fill="#4d4d4d">camion</text>
</g>
<!-- économie -->
<g id="node9" class="node">
<title>économie</title>
<ellipse fill="#d54a41" stroke="white" stroke-width="0" cx="338.72" cy="-359.19" rx="21.5" ry="21.5"/>
<text text-anchor="middle" x="296.72" y="-340.29" font-family="Helvetica,sans-Serif" font-size="8.00" fill="#4d4d4d">économie</text>
</g>
<!-- environnement -->
<g id="node10" class="node">
<title>environnement</title>
<ellipse fill="#b0315b" stroke="white" stroke-width="0" cx="218.47" cy="-353.38" rx="18" ry="18"/>
<text text-anchor="middle" x="169.47" y="-373.98" font-family="Helvetica,sans-Serif" font-size="8.00" fill="#4d4d4d">environnement</text>
</g>
<!-- emploi -->
<g id="node11" class="node">
<title>emploi</title>
<ellipse fill="#b3325a" stroke="white" stroke-width="0" cx="250.02" cy="-392.82" rx="18" ry="18"/>
<text text-anchor="middle" x="218.02" y="-413.42" font-family="Helvetica,sans-Serif" font-size="8.00" fill="#4d4d4d">emploi</text>
</g>
<!-- terre -->
<g id="node12" class="node">
<title>terre</title>
<ellipse fill="#380962" stroke="white" stroke-width="0" cx="368.02" cy="-294.52" rx="7" ry="7"/>
<text text-anchor="middle" x="351.52" y="-304.12" font-family="Helvetica,sans-Serif" font-size="8.00" fill="#4d4d4d">terre</text>
</g>
<!-- usine -->
<g id="node13" class="node">
<title>usine</title>
<ellipse fill="#540f6d" stroke="white" stroke-width="0" cx="418.55" cy="-253.25" rx="11" ry="11"/>
<text text-anchor="middle" x="396.05" y="-266.85" font-family="Helvetica,sans-Serif" font-size="8.00" fill="#4d4d4d">usine</text>
</g>
<!-- exploitation -->
<g id="node14" class="node">
<title>exploitation</title>
<ellipse fill="#5a116e" stroke="white" stroke-width="0" cx="289.56" cy="-77.24" rx="11" ry="11"/>
<text text-anchor="middle" x="254.06" y="-90.84" font-family="Helvetica,sans-Serif" font-size="8.00" fill="#4d4d4d">exploitation</text>
</g>
<!-- ressource -->
<g id="node15" class="node">
<title>ressource</title>
<ellipse fill="#470b6a" stroke="white" stroke-width="0" cx="244.87" cy="-112.95" rx="7" ry="7"/>
<text text-anchor="middle" x="217.87" y="-122.55" font-family="Helvetica,sans-Serif" font-size="8.00" fill="#4d4d4d">ressource</text>
</g>
<!-- conflit -->
<g id="node16" class="node">
<title>conflit</title>
<ellipse fill="#380962" stroke="white" stroke-width="0" cx="371.55" cy="-442.53" rx="7" ry="7"/>
<text text-anchor="middle" x="351.55" y="-452.13" font-family="Helvetica,sans-Serif" font-size="8.00" fill="#4d4d4d">conflit</text>
</g>
<!-- développement -->
<g id="node17" class="node">
<title>développement</title>
<ellipse fill="#060419" stroke="white" stroke-width="0" cx="388.46" cy="-3.5" rx="3.5" ry="3.5"/>
<text text-anchor="middle" x="352.46" y="-9.6" font-family="Helvetica,sans-Serif" font-size="8.00" fill="#4d4d4d">développement</text>
</g>
<!-- minerai -->
<g id="node18" class="node">
<title>minerai</title>
<ellipse fill="#540f6d" stroke="white" stroke-width="0" cx="354.15" cy="-131.31" rx="11" ry="11"/>
<text text-anchor="middle" x="327.65" y="-144.91" font-family="Helvetica,sans-Serif" font-size="8.00" fill="#4d4d4d">minerai</text>
</g>
<!-- déforestation -->
<g id="node19" class="node">
<title>déforestation</title>
<ellipse fill="#10092d" stroke="white" stroke-width="0" cx="449.97" cy="-329.41" rx="3.5" ry="3.5"/>
<text text-anchor="middle" x="418.97" y="-335.51" font-family="Helvetica,sans-Serif" font-size="8.00" fill="#4d4d4d">déforestation</text>
</g>
<!-- extraction -->
<g id="node20" class="node">
<title>extraction</title>
<ellipse fill="#010005" stroke="white" stroke-width="0" cx="41.5" cy="-283.74" rx="0.5" ry="0.5"/>
<text text-anchor="middle" x="20.5" y="-286.84" font-family="Helvetica,sans-Serif" font-size="8.00" fill="#4d4d4d">extraction</text>
</g>
<!-- caillou -->
<g id="node21" class="node">
<title>caillou</title>
<ellipse fill="#0b0724" stroke="white" stroke-width="0" cx="500.31" cy="-161.36" rx="3.5" ry="3.5"/>
<text text-anchor="middle" x="482.81" y="-167.46" font-family="Helvetica,sans-Serif" font-size="8.00" fill="#4d4d4d">caillou</text>
</g>
<!-- terre rouge -->
<g id="node22" class="node">
<title>terre rouge</title>
<ellipse fill="#040312" stroke="white" stroke-width="0" cx="48.59" cy="-185.81" rx="3.5" ry="3.5"/>
<text text-anchor="middle" x="22.59" y="-191.91" font-family="Helvetica,sans-Serif" font-size="8.00" fill="#4d4d4d">terre rouge</text>
</g>
<!-- sln -->
<g id="node23" class="node">
<title>sln</title>
<ellipse fill="#3e0966" stroke="white" stroke-width="0" cx="80.32" cy="-96.93" rx="7" ry="7"/>
<text text-anchor="middle" x="66.82" y="-106.53" font-family="Helvetica,sans-Serif" font-size="8.00" fill="#4d4d4d">sln</text>
</g>
<!-- goro -->
<g id="node24" class="node">
<title>goro</title>
<ellipse fill="#000004" stroke="white" stroke-width="0" cx="127.36" cy="-43.4" rx="0.5" ry="0.5"/>
<text text-anchor="middle" x="117.36" y="-46.5" font-family="Helvetica,sans-Serif" font-size="8.00" fill="#4d4d4d">goro</text>
</g>
</g>
</svg>
