<?xml version="1.0" encoding="UTF-8" standalone="no"?>
<!DOCTYPE svg PUBLIC "-//W3C//DTD SVG 1.1//EN"
 "http://www.w3.org/Graphics/SVG/1.1/DTD/svg11.dtd">
<!-- Generated by graphviz version 2.43.0 (0)
 -->
<!-- Pages: 1 -->
<svg width="536pt" height="314pt"
 viewBox="0.00 0.00 536.30 313.73" xmlns="http://www.w3.org/2000/svg" xmlns:xlink="http://www.w3.org/1999/xlink">
<g id="graph0" class="graph" transform="scale(1 1) rotate(0) translate(4 309.73)">
<polygon fill="white" stroke="transparent" points="-4,4 -4,-309.73 532.3,-309.73 532.3,4 -4,4"/>
<!-- pollution&#45;&#45;emploi -->
<g id="edge1" class="edge">
<title>pollution&#45;&#45;emploi</title>
<path fill="none" stroke="darkgrey" stroke-width="10" d="M223.21,-171.75C223.57,-173.72 223.93,-175.73 224.3,-177.74"/>
</g>
<!-- pollution&#45;&#45;richesse -->
<g id="edge2" class="edge">
<title>pollution&#45;&#45;richesse</title>
<path fill="none" stroke="darkgrey" stroke-width="1.69" d="M239.72,-163.06C254.79,-176.87 274.02,-194.51 284.79,-204.39"/>
</g>
<!-- pollution&#45;&#45;démolition -->
<g id="edge3" class="edge">
<title>pollution&#45;&#45;démolition</title>
<path fill="none" stroke="darkgrey" stroke-width="3.2" d="M199.97,-120.36C174.31,-87.96 128.82,-30.51 114.58,-12.54"/>
</g>
<!-- pollution&#45;&#45;argent -->
<g id="edge4" class="edge">
<title>pollution&#45;&#45;argent</title>
<path fill="none" stroke="darkgrey" stroke-width="1.77" d="M238.89,-122.97C244.38,-117.67 249.82,-112.41 253.62,-108.73"/>
</g>
<!-- pollution&#45;&#45;nickel -->
<g id="edge5" class="edge">
<title>pollution&#45;&#45;nickel</title>
<path fill="none" stroke="darkgrey" stroke-width="4.55" d="M247.11,-144.08C274.47,-144.96 315.4,-146.27 343.9,-147.19"/>
</g>
<!-- pollution&#45;&#45;exploitation -->
<g id="edge6" class="edge">
<title>pollution&#45;&#45;exploitation</title>
<path fill="none" stroke="darkgrey" stroke-width="1.69" d="M242.38,-159.18C272.44,-178.96 322.4,-211.82 345.5,-227.01"/>
</g>
<!-- pollution&#45;&#45;montagne -->
<g id="edge7" class="edge">
<title>pollution&#45;&#45;montagne</title>
<path fill="none" stroke="darkgrey" stroke-width="1.14" d="M241.42,-125.78C267.77,-106.22 308.86,-75.72 323.9,-64.55"/>
</g>
<!-- pollution&#45;&#45;camion -->
<g id="edge8" class="edge">
<title>pollution&#45;&#45;camion</title>
<path fill="none" stroke="darkgrey" stroke-width="1.89" d="M233.98,-118.58C251.09,-92.25 277.36,-51.83 289.08,-33.79"/>
</g>
<!-- pollution&#45;&#45;économie -->
<g id="edge9" class="edge">
<title>pollution&#45;&#45;économie</title>
<path fill="none" stroke="darkgrey" stroke-width="4.51" d="M245.2,-154C253.46,-157.3 262.31,-160.83 269.71,-163.78"/>
</g>
<!-- pollution&#45;&#45;impact environnemental -->
<g id="edge10" class="edge">
<title>pollution&#45;&#45;impact environnemental</title>
<path fill="none" stroke="darkgrey" stroke-width="4.36" d="M233.62,-167.79C246.6,-188.27 264.65,-216.76 275.63,-234.09"/>
</g>
<!-- pollution&#45;&#45;terre -->
<g id="edge11" class="edge">
<title>pollution&#45;&#45;terre</title>
<path fill="none" stroke="darkgrey" stroke-width="1.22" d="M189.09,-146.7C169.64,-149.08 145.47,-152.05 133.71,-153.49"/>
</g>
<!-- pollution&#45;&#45;conflit -->
<g id="edge12" class="edge">
<title>pollution&#45;&#45;conflit</title>
<path fill="none" stroke="darkgrey" stroke-width="1.06" d="M193.94,-159.69C167.3,-178 126.58,-205.98 115.07,-213.89"/>
</g>
<!-- pollution&#45;&#45;développement -->
<g id="edge13" class="edge">
<title>pollution&#45;&#45;développement</title>
<path fill="none" stroke="darkgrey" stroke-width="1.67" d="M191.1,-131.47C149.37,-113.36 73.09,-80.25 66.03,-77.18"/>
</g>
<!-- pollution&#45;&#45;déforestation -->
<g id="edge14" class="edge">
<title>pollution&#45;&#45;déforestation</title>
<path fill="none" stroke="darkgrey" stroke-width="2.06" d="M203.93,-168.55C185.92,-201.05 156.13,-254.77 148.54,-268.47"/>
</g>
<!-- emploi&#45;&#45;richesse -->
<g id="edge15" class="edge">
<title>emploi&#45;&#45;richesse</title>
<path fill="none" stroke="darkgrey" stroke-width="3.4" d="M267.02,-212.6C272.48,-212.47 277.72,-212.34 282.06,-212.24"/>
</g>
<!-- emploi&#45;&#45;argent -->
<g id="edge16" class="edge">
<title>emploi&#45;&#45;argent</title>
<path fill="none" stroke="darkgrey" stroke-width="2.98" d="M239.73,-178.43C245.88,-154.35 253.54,-124.36 256.98,-110.88"/>
</g>
<!-- emploi&#45;&#45;nickel -->
<g id="edge17" class="edge">
<title>emploi&#45;&#45;nickel</title>
<path fill="none" stroke="darkgrey" stroke-width="5.73" d="M263.89,-198.66C288.76,-187.53 322.56,-172.42 346.65,-161.64"/>
</g>
<!-- emploi&#45;&#45;économie -->
<g id="edge18" class="edge">
<title>emploi&#45;&#45;économie</title>
<path fill="none" stroke="darkgrey" stroke-width="7.54" d="M259.45,-191.53C263.98,-188.07 268.48,-184.63 272.48,-181.57"/>
</g>
<!-- emploi&#45;&#45;impact environnemental -->
<g id="edge19" class="edge">
<title>emploi&#45;&#45;impact environnemental</title>
<path fill="none" stroke="darkgrey" stroke-width="5.24" d="M260.93,-233.32C264.09,-235.4 267.19,-237.44 270.07,-239.34"/>
</g>
<!-- emploi&#45;&#45;terre -->
<g id="edge20" class="edge">
<title>emploi&#45;&#45;terre</title>
<path fill="none" stroke="darkgrey" d="M199.25,-195.56C175.78,-182.25 145.67,-165.17 132.85,-157.89"/>
</g>
<!-- emploi&#45;&#45;conflit -->
<g id="edge22" class="edge">
<title>emploi&#45;&#45;conflit</title>
<path fill="none" stroke="darkgrey" stroke-width="2.16" d="M194.49,-214.24C165.27,-214.88 127.23,-215.7 115.53,-215.95"/>
</g>
<!-- emploi&#45;&#45;déforestation -->
<g id="edge23" class="edge">
<title>emploi&#45;&#45;déforestation</title>
<path fill="none" stroke="darkgrey" stroke-width="1.03" d="M200.92,-234.16C181.29,-247.77 157.79,-264.07 149.67,-269.7"/>
</g>
<!-- emploi&#45;&#45;ressource -->
<g id="edge21" class="edge">
<title>emploi&#45;&#45;ressource</title>
<path fill="none" stroke="darkgrey" stroke-width="1.18" d="M262.12,-231.34C294.06,-249.57 341.24,-276.5 358.14,-286.14"/>
</g>
<!-- richesse&#45;&#45;nickel -->
<g id="edge24" class="edge">
<title>richesse&#45;&#45;nickel</title>
<path fill="none" stroke="darkgrey" stroke-width="1.79" d="M302.01,-205.16C313.55,-196.36 334.11,-180.67 350.73,-167.99"/>
</g>
<!-- richesse&#45;&#45;économie -->
<g id="edge25" class="edge">
<title>richesse&#45;&#45;économie</title>
<path fill="none" stroke="darkgrey" stroke-width="1.39" d="M291.36,-200.67C290.79,-196.94 290.15,-192.69 289.53,-188.59"/>
</g>
<!-- richesse&#45;&#45;impact environnemental -->
<g id="edge26" class="edge">
<title>richesse&#45;&#45;impact environnemental</title>
<path fill="none" stroke="darkgrey" stroke-width="1.12" d="M290.79,-223C290.24,-225.68 289.63,-228.6 289.03,-231.5"/>
</g>
<!-- argent&#45;&#45;nickel -->
<g id="edge27" class="edge">
<title>argent&#45;&#45;nickel</title>
<path fill="none" stroke="darkgrey" stroke-width="2.44" d="M265.48,-106.24C280.72,-112 318.87,-126.41 346.22,-136.74"/>
</g>
<!-- nickel&#45;&#45;exploitation -->
<g id="edge28" class="edge">
<title>nickel&#45;&#45;exploitation</title>
<path fill="none" stroke="darkgrey" stroke-width="2.34" d="M369.77,-180.12C366.76,-194.07 363.39,-209.75 361.01,-220.8"/>
</g>
<!-- nickel&#45;&#45;montagne -->
<g id="edge29" class="edge">
<title>nickel&#45;&#45;montagne</title>
<path fill="none" stroke="darkgrey" stroke-width="1.65" d="M361.26,-119.43C351.2,-100.59 338.88,-77.52 333.05,-66.59"/>
</g>
<!-- nickel&#45;&#45;camion -->
<g id="edge30" class="edge">
<title>nickel&#45;&#45;camion</title>
<path fill="none" stroke="darkgrey" stroke-width="2.73" d="M358.74,-121.09C340.55,-93.5 313.37,-52.29 301.27,-33.94"/>
</g>
<!-- nickel&#45;&#45;économie -->
<g id="edge31" class="edge">
<title>nickel&#45;&#45;économie</title>
<path fill="none" stroke="darkgrey" stroke-width="2.9" d="M344.97,-156.12C331.33,-159.52 315.9,-163.36 304.36,-166.23"/>
</g>
<!-- nickel&#45;&#45;impact environnemental -->
<g id="edge32" class="edge">
<title>nickel&#45;&#45;impact environnemental</title>
<path fill="none" stroke="darkgrey" stroke-width="1.72" d="M354.77,-172.47C336.83,-192.34 312.09,-219.75 297.5,-235.92"/>
</g>
<!-- nickel&#45;&#45;ressource -->
<g id="edge37" class="edge">
<title>nickel&#45;&#45;ressource</title>
<path fill="none" stroke="darkgrey" stroke-width="1.04" d="M373.84,-180.7C370.94,-214.31 366.62,-264.43 365.04,-282.73"/>
</g>
<!-- nickel&#45;&#45;roche -->
<g id="edge33" class="edge">
<title>nickel&#45;&#45;roche</title>
<path fill="none" stroke="darkgrey" stroke-width="1.46" d="M378.2,-115.6C379.66,-85.07 381.74,-41.69 382.55,-24.75"/>
</g>
<!-- nickel&#45;&#45;terre rouge -->
<g id="edge34" class="edge">
<title>nickel&#45;&#45;terre rouge</title>
<path fill="none" stroke="darkgrey" stroke-width="1.72" d="M404.07,-130.33C439.11,-107.46 496.88,-69.76 510.77,-60.69"/>
</g>
<!-- nickel&#45;&#45;usine -->
<g id="edge35" class="edge">
<title>nickel&#45;&#45;usine</title>
<path fill="none" stroke="darkgrey" stroke-width="2.77" d="M404.53,-165.28C439.34,-186.55 496.58,-221.52 515.22,-232.91"/>
</g>
<!-- nickel&#45;&#45;sln -->
<g id="edge36" class="edge">
<title>nickel&#45;&#45;sln</title>
<path fill="none" stroke="darkgrey" stroke-width="3.6" d="M394.83,-120.91C416.16,-88.88 450.05,-37.99 461.54,-20.73"/>
</g>
<!-- nickel&#45;&#45;usine du sud -->
<g id="edge38" class="edge">
<title>nickel&#45;&#45;usine du sud</title>
<path fill="none" stroke="darkgrey" stroke-width="1.03" d="M409.07,-143.86C448.61,-138.54 511.14,-130.11 518.8,-129.08"/>
</g>
<!-- nickel&#45;&#45;minerai -->
<g id="edge39" class="edge">
<title>nickel&#45;&#45;minerai</title>
<path fill="none" stroke="darkgrey" stroke-width="2.28" d="M393.56,-175.99C411.27,-205.04 437.81,-248.58 447.51,-264.48"/>
</g>
<!-- exploitation&#45;&#45;impact environnemental -->
<g id="edge40" class="edge">
<title>exploitation&#45;&#45;impact environnemental</title>
<path fill="none" stroke="darkgrey" stroke-width="1.59" d="M343.57,-237.99C332,-240.25 315.67,-243.46 303.24,-245.89"/>
</g>
<!-- exploitation&#45;&#45;ressource -->
<g id="edge41" class="edge">
<title>exploitation&#45;&#45;ressource</title>
<path fill="none" stroke="darkgrey" stroke-width="1.72" d="M359.66,-249.8C360.93,-260.4 362.59,-274.29 363.58,-282.58"/>
</g>
<!-- exploitation&#45;&#45;minerai -->
<g id="edge42" class="edge">
<title>exploitation&#45;&#45;minerai</title>
<path fill="none" stroke="darkgrey" stroke-width="2.15" d="M371.68,-240.4C391.96,-248.09 429.1,-262.18 444.38,-267.98"/>
</g>
<!-- montagne&#45;&#45;roche -->
<g id="edge43" class="edge">
<title>montagne&#45;&#45;roche</title>
<path fill="none" stroke="darkgrey" stroke-width="1.15" d="M335.37,-55.7C345.66,-47.44 367.25,-30.13 377.4,-21.99"/>
</g>
<!-- camion&#45;&#45;roche -->
<g id="edge44" class="edge">
<title>camion&#45;&#45;roche</title>
<path fill="none" stroke="darkgrey" stroke-width="1.08" d="M306.2,-23.67C324.48,-22.22 360.36,-19.37 375.68,-18.16"/>
</g>
<!-- économie&#45;&#45;impact environnemental -->
<g id="edge45" class="edge">
<title>économie&#45;&#45;impact environnemental</title>
<path fill="none" stroke="darkgrey" stroke-width="5.99" d="M286.46,-188.88C286.23,-201.61 285.91,-218.52 285.67,-231.23"/>
</g>
<!-- ressource&#45;&#45;minerai -->
<g id="edge47" class="edge">
<title>ressource&#45;&#45;minerai</title>
<path fill="none" stroke="darkgrey" stroke-width="1.5" d="M371.54,-288.17C387.89,-284.55 428.05,-275.69 444.26,-272.11"/>
</g>
<!-- usine&#45;&#45;minerai -->
<g id="edge46" class="edge">
<title>usine&#45;&#45;minerai</title>
<path fill="none" stroke="darkgrey" stroke-width="1.78" d="M514.83,-239.76C501.55,-246.19 471.32,-260.84 457.88,-267.35"/>
</g>
<!-- pollution -->
<g id="node1" class="node">
<title>pollution</title>
<ellipse fill="#fc9f07" stroke="white" stroke-width="0" cx="218.01" cy="-143.15" rx="29" ry="29"/>
<text text-anchor="middle" x="170.51" y="-174.75" font-family="Helvetica,sans-Serif" font-size="8.00" fill="#4d4d4d">pollution</text>
</g>
<!-- emploi -->
<g id="node2" class="node">
<title>emploi</title>
<ellipse fill="#fcffa4" stroke="white" stroke-width="0" cx="230.79" cy="-213.46" rx="36" ry="36"/>
<text text-anchor="middle" x="180.79" y="-252.06" font-family="Helvetica,sans-Serif" font-size="8.00" fill="#4d4d4d">emploi</text>
</g>
<!-- richesse -->
<g id="node3" class="node">
<title>richesse</title>
<ellipse fill="#5c126e" stroke="white" stroke-width="0" cx="293.07" cy="-211.98" rx="11" ry="11"/>
<text text-anchor="middle" x="299.57" y="-225.58" font-family="Helvetica,sans-Serif" font-size="8.00" fill="#4d4d4d">richesse</text>
</g>
<!-- démolition -->
<g id="node4" class="node">
<title>démolition</title>
<ellipse fill="#260c51" stroke="white" stroke-width="0" cx="110.2" cy="-7" rx="7" ry="7"/>
<text text-anchor="middle" x="81.2" y="-16.6" font-family="Helvetica,sans-Serif" font-size="8.00" fill="#4d4d4d">démolition</text>
</g>
<!-- argent -->
<g id="node5" class="node">
<title>argent</title>
<ellipse fill="#3e0966" stroke="white" stroke-width="0" cx="258.81" cy="-103.72" rx="7" ry="7"/>
<text text-anchor="middle" x="237.81" y="-99.32" font-family="Helvetica,sans-Serif" font-size="8.00" fill="#4d4d4d">argent</text>
</g>
<!-- nickel -->
<g id="node6" class="node">
<title>nickel</title>
<ellipse fill="#f7d340" stroke="white" stroke-width="0" cx="376.64" cy="-148.23" rx="32.5" ry="32.5"/>
<text text-anchor="middle" x="332.14" y="-183.33" font-family="Helvetica,sans-Serif" font-size="8.00" fill="#4d4d4d">nickel</text>
</g>
<!-- exploitation -->
<g id="node7" class="node">
<title>exploitation</title>
<ellipse fill="#85216b" stroke="white" stroke-width="0" cx="357.91" cy="-235.18" rx="14.5" ry="14.5"/>
<text text-anchor="middle" x="367.91" y="-252.28" font-family="Helvetica,sans-Serif" font-size="8.00" fill="#4d4d4d">exploitation</text>
</g>
<!-- montagne -->
<g id="node8" class="node">
<title>montagne</title>
<ellipse fill="#290b55" stroke="white" stroke-width="0" cx="329.67" cy="-60.27" rx="7" ry="7"/>
<text text-anchor="middle" x="301.17" y="-69.87" font-family="Helvetica,sans-Serif" font-size="8.00" fill="#4d4d4d">montagne</text>
</g>
<!-- camion -->
<g id="node9" class="node">
<title>camion</title>
<ellipse fill="#57106e" stroke="white" stroke-width="0" cx="295.08" cy="-24.55" rx="11" ry="11"/>
<text text-anchor="middle" x="268.58" y="-38.15" font-family="Helvetica,sans-Serif" font-size="8.00" fill="#4d4d4d">camion</text>
</g>
<!-- économie -->
<g id="node10" class="node">
<title>économie</title>
<ellipse fill="#b93556" stroke="white" stroke-width="0" cx="286.81" cy="-170.61" rx="18" ry="18"/>
<text text-anchor="middle" x="289.31" y="-191.21" font-family="Helvetica,sans-Serif" font-size="8.00" fill="#4d4d4d">économie</text>
</g>
<!-- impact environnemental -->
<g id="node11" class="node">
<title>impact environnemental</title>
<ellipse fill="#ca404a" stroke="white" stroke-width="0" cx="285.33" cy="-249.4" rx="18" ry="18"/>
<text text-anchor="middle" x="217.33" y="-270" font-family="Helvetica,sans-Serif" font-size="8.00" fill="#4d4d4d">impact environnemental</text>
</g>
<!-- terre -->
<g id="node12" class="node">
<title>terre</title>
<ellipse fill="#260c51" stroke="white" stroke-width="0" cx="126.62" cy="-154.36" rx="7" ry="7"/>
<text text-anchor="middle" x="110.12" y="-163.96" font-family="Helvetica,sans-Serif" font-size="8.00" fill="#4d4d4d">terre</text>
</g>
<!-- conflit -->
<g id="node13" class="node">
<title>conflit</title>
<ellipse fill="#210c4a" stroke="white" stroke-width="0" cx="111.95" cy="-216.03" rx="3.5" ry="3.5"/>
<text text-anchor="middle" x="95.45" y="-222.13" font-family="Helvetica,sans-Serif" font-size="8.00" fill="#4d4d4d">conflit</text>
</g>
<!-- développement -->
<g id="node14" class="node">
<title>développement</title>
<ellipse fill="#010005" stroke="white" stroke-width="0" cx="65.5" cy="-76.95" rx="0.5" ry="0.5"/>
<text text-anchor="middle" x="32.5" y="-80.05" font-family="Helvetica,sans-Serif" font-size="8.00" fill="#4d4d4d">développement</text>
</g>
<!-- déforestation -->
<g id="node15" class="node">
<title>déforestation</title>
<ellipse fill="#0b0724" stroke="white" stroke-width="0" cx="146.74" cy="-271.73" rx="3.5" ry="3.5"/>
<text text-anchor="middle" x="115.74" y="-277.83" font-family="Helvetica,sans-Serif" font-size="8.00" fill="#4d4d4d">déforestation</text>
</g>
<!-- ressource -->
<g id="node16" class="node">
<title>ressource</title>
<ellipse fill="#310a5c" stroke="white" stroke-width="0" cx="364.43" cy="-289.73" rx="7" ry="7"/>
<text text-anchor="middle" x="337.43" y="-299.33" font-family="Helvetica,sans-Serif" font-size="8.00" fill="#4d4d4d">ressource</text>
</g>
<!-- roche -->
<g id="node17" class="node">
<title>roche</title>
<ellipse fill="#3b0964" stroke="white" stroke-width="0" cx="382.89" cy="-17.58" rx="7" ry="7"/>
<text text-anchor="middle" x="364.39" y="-27.18" font-family="Helvetica,sans-Serif" font-size="8.00" fill="#4d4d4d">roche</text>
</g>
<!-- terre rouge -->
<g id="node18" class="node">
<title>terre rouge</title>
<ellipse fill="#0c0826" stroke="white" stroke-width="0" cx="513.85" cy="-58.69" rx="3.5" ry="3.5"/>
<text text-anchor="middle" x="487.85" y="-64.79" font-family="Helvetica,sans-Serif" font-size="8.00" fill="#4d4d4d">terre rouge</text>
</g>
<!-- usine -->
<g id="node19" class="node">
<title>usine</title>
<ellipse fill="#3e0966" stroke="white" stroke-width="0" cx="521.3" cy="-236.63" rx="7" ry="7"/>
<text text-anchor="middle" x="502.8" y="-246.23" font-family="Helvetica,sans-Serif" font-size="8.00" fill="#4d4d4d">usine</text>
</g>
<!-- sln -->
<g id="node20" class="node">
<title>sln</title>
<ellipse fill="#290b55" stroke="white" stroke-width="0" cx="465.5" cy="-14.78" rx="7" ry="7"/>
<text text-anchor="middle" x="452" y="-24.38" font-family="Helvetica,sans-Serif" font-size="8.00" fill="#4d4d4d">sln</text>
</g>
<!-- usine du sud -->
<g id="node21" class="node">
<title>usine du sud</title>
<ellipse fill="#000004" stroke="white" stroke-width="0" cx="519.58" cy="-128.97" rx="0.5" ry="0.5"/>
<text text-anchor="middle" x="492.58" y="-132.07" font-family="Helvetica,sans-Serif" font-size="8.00" fill="#4d4d4d">usine du sud</text>
</g>
<!-- minerai -->
<g id="node22" class="node">
<title>minerai</title>
<ellipse fill="#400a67" stroke="white" stroke-width="0" cx="451.22" cy="-270.57" rx="7" ry="7"/>
<text text-anchor="middle" x="428.72" y="-280.17" font-family="Helvetica,sans-Serif" font-size="8.00" fill="#4d4d4d">minerai</text>
</g>
</g>
</svg>
