<?xml version="1.0" encoding="UTF-8" standalone="no"?>
<!DOCTYPE svg PUBLIC "-//W3C//DTD SVG 1.1//EN"
 "http://www.w3.org/Graphics/SVG/1.1/DTD/svg11.dtd">
<!-- Generated by graphviz version 2.43.0 (0)
 -->
<!-- Pages: 1 -->
<svg width="687pt" height="501pt"
 viewBox="0.00 0.00 687.13 501.40" xmlns="http://www.w3.org/2000/svg" xmlns:xlink="http://www.w3.org/1999/xlink">
<g id="graph0" class="graph" transform="scale(1 1) rotate(0) translate(4 497.4)">
<polygon fill="white" stroke="transparent" points="-4,4 -4,-497.4 683.13,-497.4 683.13,4 -4,4"/>
<!-- fin&#45;&#45;emploi -->
<g id="edge1" class="edge">
<title>fin&#45;&#45;emploi</title>
<path fill="none" stroke="darkgrey" stroke-width="2.03" d="M404.2,-158.31C398.14,-187.44 384.44,-253.31 377.82,-285.1"/>
</g>
<!-- fin&#45;&#45;pollution -->
<g id="edge2" class="edge">
<title>fin&#45;&#45;pollution</title>
<path fill="none" stroke="darkgrey" stroke-width="3.25" d="M393.12,-148.49C385.68,-150.9 376.33,-153.94 367.78,-156.71"/>
</g>
<!-- fin&#45;&#45;épuisement de la ressource -->
<g id="edge3" class="edge">
<title>fin&#45;&#45;épuisement de la ressource</title>
<path fill="none" stroke="darkgrey" stroke-width="1.26" d="M398.22,-155.53C382.4,-175.97 349.89,-217.99 335.75,-236.27"/>
</g>
<!-- fin&#45;&#45;impact environnemental -->
<g id="edge4" class="edge">
<title>fin&#45;&#45;impact environnemental</title>
<path fill="none" stroke="darkgrey" stroke-width="3.22" d="M392.86,-147.49C374.51,-152.05 342.12,-160.11 317.1,-166.33"/>
</g>
<!-- fin&#45;&#45;amélioration environnementale -->
<g id="edge5" class="edge">
<title>fin&#45;&#45;amélioration environnementale</title>
<path fill="none" stroke="darkgrey" stroke-width="1.06" d="M420.64,-150.34C436.98,-158.14 464.53,-171.3 482.05,-179.66"/>
</g>
<!-- emploi&#45;&#45;pollution -->
<g id="edge6" class="edge">
<title>emploi&#45;&#45;pollution</title>
<path fill="none" stroke="darkgrey" stroke-width="5.71" d="M370.21,-285.13C364.86,-260.73 355.24,-216.83 349.2,-189.26"/>
</g>
<!-- emploi&#45;&#45;épuisement de la ressource -->
<g id="edge7" class="edge">
<title>emploi&#45;&#45;épuisement de la ressource</title>
<path fill="none" stroke="darkgrey" stroke-width="1.15" d="M362.94,-288.64C354.47,-277.8 343.1,-263.24 335.89,-254.01"/>
</g>
<!-- emploi&#45;&#45;impact environnemental -->
<g id="edge8" class="edge">
<title>emploi&#45;&#45;impact environnemental</title>
<path fill="none" stroke="darkgrey" stroke-width="6.34" d="M363.56,-288.27C348.94,-267.92 322.19,-230.7 303.35,-204.5"/>
</g>
<!-- emploi&#45;&#45;amélioration environnementale -->
<g id="edge12" class="edge">
<title>emploi&#45;&#45;amélioration environnementale</title>
<path fill="none" stroke="darkgrey" stroke-width="4.43" d="M387.41,-290.58C411.31,-268.35 461.29,-221.87 485.13,-199.7"/>
</g>
<!-- emploi&#45;&#45;conflit -->
<g id="edge9" class="edge">
<title>emploi&#45;&#45;conflit</title>
<path fill="none" stroke="darkgrey" stroke-width="1.48" d="M367.48,-319.68C364.66,-326.83 361.44,-334.95 358.96,-341.21"/>
</g>
<!-- emploi&#45;&#45;vision positive de la ressource -->
<g id="edge10" class="edge">
<title>emploi&#45;&#45;vision positive de la ressource</title>
<path fill="none" stroke="darkgrey" stroke-width="1.08" d="M356.42,-298.46C329.46,-291.63 279.28,-278.91 261.06,-274.3"/>
</g>
<!-- emploi&#45;&#45;économie du pays -->
<g id="edge11" class="edge">
<title>emploi&#45;&#45;économie du pays</title>
<path fill="none" stroke="darkgrey" stroke-width="3.38" d="M355.85,-304.89C342.29,-306.34 324.23,-308.27 312.79,-309.49"/>
</g>
<!-- emploi&#45;&#45;famille -->
<g id="edge13" class="edge">
<title>emploi&#45;&#45;famille</title>
<path fill="none" stroke="darkgrey" stroke-width="1.33" d="M364.98,-318.73C342.27,-358.03 284.22,-458.45 273.1,-477.69"/>
</g>
<!-- emploi&#45;&#45;développement durable -->
<g id="edge14" class="edge">
<title>emploi&#45;&#45;développement durable</title>
<path fill="none" stroke="darkgrey" stroke-width="1.49" d="M390.49,-295.16C410.6,-285.59 444.09,-269.67 460.69,-261.78"/>
</g>
<!-- emploi&#45;&#45;innovation -->
<g id="edge15" class="edge">
<title>emploi&#45;&#45;innovation</title>
<path fill="none" stroke="darkgrey" stroke-width="1.25" d="M378.45,-285C383.17,-265.5 390.62,-234.74 394.95,-216.83"/>
</g>
<!-- emploi&#45;&#45;formation -->
<g id="edge16" class="edge">
<title>emploi&#45;&#45;formation</title>
<path fill="none" stroke="darkgrey" stroke-width="1.15" d="M372.77,-320.99C369.77,-361.39 362.73,-456.3 362.08,-465.11"/>
</g>
<!-- pollution&#45;&#45;épuisement de la ressource -->
<g id="edge18" class="edge">
<title>pollution&#45;&#45;épuisement de la ressource</title>
<path fill="none" stroke="darkgrey" stroke-width="3.79" d="M339.24,-189.12C336.48,-204.12 333.08,-222.55 330.96,-234.06"/>
</g>
<!-- pollution&#45;&#45;impact environnemental -->
<g id="edge21" class="edge">
<title>pollution&#45;&#45;impact environnemental</title>
<path fill="none" stroke="darkgrey" stroke-width="10" d="M319.07,-168.72C318.67,-168.79 318.27,-168.86 317.86,-168.93"/>
</g>
<!-- pollution&#45;&#45;amélioration environnementale -->
<g id="edge26" class="edge">
<title>pollution&#45;&#45;amélioration environnementale</title>
<path fill="none" stroke="darkgrey" stroke-width="2.6" d="M368.61,-168.19C399.84,-172.82 452.7,-180.66 480.31,-184.76"/>
</g>
<!-- pollution&#45;&#45;conflit -->
<g id="edge22" class="edge">
<title>pollution&#45;&#45;conflit</title>
<path fill="none" stroke="darkgrey" stroke-width="1.92" d="M345.27,-189.73C347.71,-231.03 352.47,-311.37 354.2,-340.61"/>
</g>
<!-- pollution&#45;&#45;vision positive de la ressource -->
<g id="edge23" class="edge">
<title>pollution&#45;&#45;vision positive de la ressource</title>
<path fill="none" stroke="darkgrey" stroke-width="1.3" d="M327.77,-183.82C306.84,-209.08 271.37,-251.88 258.8,-267.04"/>
</g>
<!-- pollution&#45;&#45;économie du pays -->
<g id="edge25" class="edge">
<title>pollution&#45;&#45;économie du pays</title>
<path fill="none" stroke="darkgrey" stroke-width="3.56" d="M336.84,-188.64C327.56,-220.91 311.51,-276.75 304.82,-300.02"/>
</g>
<!-- pollution&#45;&#45;développement durable -->
<g id="edge29" class="edge">
<title>pollution&#45;&#45;développement durable</title>
<path fill="none" stroke="darkgrey" stroke-width="1.44" d="M364.16,-179.37C392.17,-199.81 441.4,-235.73 461.6,-250.47"/>
</g>
<!-- pollution&#45;&#45;innovation -->
<g id="edge30" class="edge">
<title>pollution&#45;&#45;innovation</title>
<path fill="none" stroke="darkgrey" stroke-width="2.55" d="M364.42,-178.91C371.79,-184.06 379.85,-189.68 386.27,-194.16"/>
</g>
<!-- pollution&#45;&#45;montagne -->
<g id="edge19" class="edge">
<title>pollution&#45;&#45;montagne</title>
<path fill="none" stroke="darkgrey" stroke-width="1.24" d="M366.48,-153.88C399.9,-138.24 459.95,-110.14 474.44,-103.36"/>
</g>
<!-- pollution&#45;&#45;biodiversité -->
<g id="edge20" class="edge">
<title>pollution&#45;&#45;biodiversité</title>
<path fill="none" stroke="darkgrey" stroke-width="2.23" d="M325.23,-147.74C299.64,-124.61 254.94,-84.2 239.7,-70.43"/>
</g>
<!-- pollution&#45;&#45;développement -->
<g id="edge24" class="edge">
<title>pollution&#45;&#45;développement</title>
<path fill="none" stroke="darkgrey" stroke-width="3.53" d="M358.58,-185C373.46,-205.62 395.74,-236.48 406.82,-251.82"/>
</g>
<!-- pollution&#45;&#45;revenu -->
<g id="edge27" class="edge">
<title>pollution&#45;&#45;revenu</title>
<path fill="none" stroke="darkgrey" stroke-width="1.13" d="M319.32,-159.23C281.68,-151.12 212.12,-136.13 195.32,-132.51"/>
</g>
<!-- pollution&#45;&#45;déclin -->
<g id="edge28" class="edge">
<title>pollution&#45;&#45;déclin</title>
<path fill="none" stroke="darkgrey" stroke-width="1.34" d="M343.6,-139.39C343.32,-100.27 342.8,-27.47 342.68,-9.88"/>
</g>
<!-- pollution&#45;&#45;richesse -->
<g id="edge31" class="edge">
<title>pollution&#45;&#45;richesse</title>
<path fill="none" stroke="darkgrey" stroke-width="1.33" d="M332.88,-141.78C313.92,-102.25 276.12,-23.45 268.08,-6.68"/>
</g>
<!-- pollution&#45;&#45;automatisation -->
<g id="edge32" class="edge">
<title>pollution&#45;&#45;automatisation</title>
<path fill="none" stroke="darkgrey" stroke-width="1.01" d="M355.11,-141.96C368.07,-116.17 388.28,-75.98 394.28,-64.05"/>
</g>
<!-- épuisement de la ressource&#45;&#45;impact environnemental -->
<g id="edge33" class="edge">
<title>épuisement de la ressource&#45;&#45;impact environnemental</title>
<path fill="none" stroke="darkgrey" stroke-width="4.25" d="M322.81,-235.93C317.56,-228.06 309.69,-216.27 302.27,-205.15"/>
</g>
<!-- épuisement de la ressource&#45;&#45;conflit -->
<g id="edge34" class="edge">
<title>épuisement de la ressource&#45;&#45;conflit</title>
<path fill="none" stroke="darkgrey" stroke-width="1.72" d="M331.6,-256.08C336.6,-276.6 347.28,-320.47 352.23,-340.81"/>
</g>
<!-- épuisement de la ressource&#45;&#45;économie du pays -->
<g id="edge36" class="edge">
<title>épuisement de la ressource&#45;&#45;économie du pays</title>
<path fill="none" stroke="darkgrey" stroke-width="1.53" d="M324.68,-255.34C319.6,-267.58 311.16,-287.97 306.06,-300.28"/>
</g>
<!-- épuisement de la ressource&#45;&#45;développement -->
<g id="edge35" class="edge">
<title>épuisement de la ressource&#45;&#45;développement</title>
<path fill="none" stroke="darkgrey" stroke-width="2.26" d="M339.99,-247.19C356.21,-250.27 386.27,-255.98 402.5,-259.06"/>
</g>
<!-- impact environnemental&#45;&#45;amélioration environnementale -->
<g id="edge45" class="edge">
<title>impact environnemental&#45;&#45;amélioration environnementale</title>
<path fill="none" stroke="darkgrey" stroke-width="2.76" d="M318.35,-177.1C365.1,-179.78 444.7,-184.35 480.25,-186.39"/>
</g>
<!-- impact environnemental&#45;&#45;conflit -->
<g id="edge39" class="edge">
<title>impact environnemental&#45;&#45;conflit</title>
<path fill="none" stroke="darkgrey" stroke-width="4.73" d="M296.01,-208.65C312.81,-249.47 340.2,-316 350.64,-341.35"/>
</g>
<!-- impact environnemental&#45;&#45;vision positive de la ressource -->
<g id="edge41" class="edge">
<title>impact environnemental&#45;&#45;vision positive de la ressource</title>
<path fill="none" stroke="darkgrey" stroke-width="1.85" d="M272.24,-209.69C266.4,-230.06 259.54,-254.02 256.22,-265.6"/>
</g>
<!-- impact environnemental&#45;&#45;économie du pays -->
<g id="edge44" class="edge">
<title>impact environnemental&#45;&#45;économie du pays</title>
<path fill="none" stroke="darkgrey" stroke-width="4.54" d="M287.31,-210.66C291.57,-240.18 297.36,-280.28 300.14,-299.5"/>
</g>
<!-- impact environnemental&#45;&#45;développement durable -->
<g id="edge48" class="edge">
<title>impact environnemental&#45;&#45;développement durable</title>
<path fill="none" stroke="darkgrey" stroke-width="1.16" d="M315.43,-189.5C358.96,-208.45 432.93,-240.65 460.16,-252.5"/>
</g>
<!-- impact environnemental&#45;&#45;innovation -->
<g id="edge49" class="edge">
<title>impact environnemental&#45;&#45;innovation</title>
<path fill="none" stroke="darkgrey" stroke-width="2.35" d="M317.35,-183.38C339.8,-188.71 367.69,-195.33 384.21,-199.25"/>
</g>
<!-- impact environnemental&#45;&#45;développement -->
<g id="edge43" class="edge">
<title>impact environnemental&#45;&#45;développement</title>
<path fill="none" stroke="darkgrey" stroke-width="5.11" d="M312.31,-194.79C341.86,-214.16 385.14,-242.53 404.09,-254.95"/>
</g>
<!-- impact environnemental&#45;&#45;revenu -->
<g id="edge46" class="edge">
<title>impact environnemental&#45;&#45;revenu</title>
<path fill="none" stroke="darkgrey" stroke-width="1.67" d="M249.47,-159.39C228.59,-149.4 203.84,-137.56 194.96,-133.32"/>
</g>
<!-- impact environnemental&#45;&#45;déclin -->
<g id="edge47" class="edge">
<title>impact environnemental&#45;&#45;déclin</title>
<path fill="none" stroke="darkgrey" stroke-width="1.78" d="M294.41,-140.82C310.01,-97.21 335.66,-25.51 341.46,-9.31"/>
</g>
<!-- impact environnemental&#45;&#45;richesse -->
<g id="edge50" class="edge">
<title>impact environnemental&#45;&#45;richesse</title>
<path fill="none" stroke="darkgrey" stroke-width="1.79" d="M278.89,-139.07C274.89,-95.06 268.45,-24.27 266.9,-7.26"/>
</g>
<!-- impact environnemental&#45;&#45;automatisation -->
<g id="edge52" class="edge">
<title>impact environnemental&#45;&#45;automatisation</title>
<path fill="none" stroke="darkgrey" stroke-width="1.25" d="M307.71,-149.35C336.82,-120.09 381.85,-74.84 393.29,-63.33"/>
</g>
<!-- impact environnemental&#45;&#45;croissance minière -->
<g id="edge38" class="edge">
<title>impact environnemental&#45;&#45;croissance minière</title>
<path fill="none" stroke="darkgrey" stroke-width="1.56" d="M253.4,-152.81C210.8,-119.91 134.18,-60.74 117.93,-48.19"/>
</g>
<!-- impact environnemental&#45;&#45;milieu -->
<g id="edge40" class="edge">
<title>impact environnemental&#45;&#45;milieu</title>
<path fill="none" stroke="darkgrey" stroke-width="1.08" d="M246.71,-183.13C210.21,-191.49 156.7,-203.73 142.37,-207"/>
</g>
<!-- impact environnemental&#45;&#45;avenir -->
<g id="edge42" class="edge">
<title>impact environnemental&#45;&#45;avenir</title>
<path fill="none" stroke="darkgrey" stroke-width="1.35" d="M250.66,-193.27C205.52,-219.41 126.01,-265.46 109.15,-275.22"/>
</g>
<!-- impact environnemental&#45;&#45;investissement -->
<g id="edge51" class="edge">
<title>impact environnemental&#45;&#45;investissement</title>
<path fill="none" stroke="darkgrey" stroke-width="1.02" d="M246.55,-169.69C187.49,-160.85 74.72,-143.96 64.28,-142.4"/>
</g>
<!-- amélioration environnementale&#45;&#45;développement durable -->
<g id="edge61" class="edge">
<title>amélioration environnementale&#45;&#45;développement durable</title>
<path fill="none" stroke="darkgrey" stroke-width="3.53" d="M491.62,-204.29C486.37,-217.49 479.23,-235.43 474.78,-246.62"/>
</g>
<!-- amélioration environnementale&#45;&#45;innovation -->
<g id="edge62" class="edge">
<title>amélioration environnementale&#45;&#45;innovation</title>
<path fill="none" stroke="darkgrey" stroke-width="1.46" d="M480.46,-190.15C461.15,-193.08 430.74,-197.7 412.86,-200.42"/>
</g>
<!-- amélioration environnementale&#45;&#45;maintien de l’exploitation -->
<g id="edge60" class="edge">
<title>amélioration environnementale&#45;&#45;maintien de l’exploitation</title>
<path fill="none" stroke="darkgrey" stroke-width="1.83" d="M516.3,-188.54C556.62,-191.02 652.3,-196.9 672.03,-198.12"/>
</g>
<!-- conflit&#45;&#45;économie du pays -->
<g id="edge53" class="edge">
<title>conflit&#45;&#45;économie du pays</title>
<path fill="none" stroke="darkgrey" stroke-width="1.43" d="M346.08,-344.84C336.3,-337.3 320.57,-325.17 310.71,-317.58"/>
</g>
<!-- vision positive de la ressource&#45;&#45;économie du pays -->
<g id="edge54" class="edge">
<title>vision positive de la ressource&#45;&#45;économie du pays</title>
<path fill="none" stroke="darkgrey" stroke-width="1.48" d="M260.05,-277.24C268.28,-283.84 283.37,-295.94 292.97,-303.63"/>
</g>
<!-- vision positive de la ressource&#45;&#45;innovation -->
<g id="edge55" class="edge">
<title>vision positive de la ressource&#45;&#45;innovation</title>
<path fill="none" stroke="darkgrey" stroke-width="1.18" d="M260.79,-269.38C282.94,-258.63 355.13,-223.61 385.13,-209.05"/>
</g>
<!-- développement durable&#45;&#45;innovation -->
<g id="edge63" class="edge">
<title>développement durable&#45;&#45;innovation</title>
<path fill="none" stroke="darkgrey" stroke-width="1.82" d="M461.77,-250.38C448.81,-240.62 424.66,-222.41 410.2,-211.52"/>
</g>
<!-- innovation&#45;&#45;automatisation -->
<g id="edge64" class="edge">
<title>innovation&#45;&#45;automatisation</title>
<path fill="none" stroke="darkgrey" stroke-width="1.04" d="M398.15,-187.95C397.61,-155.92 396.36,-81.19 396.07,-64.12"/>
</g>
<!-- procédé industriel&#45;&#45;amélioration environnementale -->
<g id="edge17" class="edge">
<title>procédé industriel&#45;&#45;amélioration environnementale</title>
<path fill="none" stroke="darkgrey" stroke-width="1.26" d="M643.72,-84.36C626.97,-96.23 546.89,-153 513.25,-176.85"/>
</g>
<!-- biodiversité&#45;&#45;impact environnemental -->
<g id="edge37" class="edge">
<title>biodiversité&#45;&#45;impact environnemental</title>
<path fill="none" stroke="darkgrey" d="M237.28,-72.18C243.14,-85.61 256.91,-117.17 267.67,-141.81"/>
</g>
<!-- développement&#45;&#45;amélioration environnementale -->
<g id="edge57" class="edge">
<title>développement&#45;&#45;amélioration environnementale</title>
<path fill="none" stroke="darkgrey" stroke-width="2.29" d="M422,-253.82C436.66,-241.08 466.94,-214.73 484.64,-199.34"/>
</g>
<!-- développement&#45;&#45;économie du pays -->
<g id="edge56" class="edge">
<title>développement&#45;&#45;économie du pays</title>
<path fill="none" stroke="darkgrey" stroke-width="2.09" d="M403.25,-265.73C381.95,-275.16 333.33,-296.69 312.05,-306.12"/>
</g>
<!-- développement&#45;&#45;développement durable -->
<g id="edge58" class="edge">
<title>développement&#45;&#45;développement durable</title>
<path fill="none" stroke="darkgrey" stroke-width="1.04" d="M424.57,-260.37C434.54,-259.65 449.19,-258.6 459.27,-257.88"/>
</g>
<!-- développement&#45;&#45;innovation -->
<g id="edge59" class="edge">
<title>développement&#45;&#45;innovation</title>
<path fill="none" stroke="darkgrey" stroke-width="1.33" d="M410.78,-250.43C408.35,-241.05 404.81,-227.37 402.13,-217.04"/>
</g>
<!-- fin -->
<g id="node1" class="node">
<title>fin</title>
<ellipse fill="#7d1e6d" stroke="white" stroke-width="0" cx="407.2" cy="-143.92" rx="14.5" ry="14.5"/>
<text text-anchor="middle" x="387.2" y="-161.02" font-family="Helvetica,sans-Serif" font-size="8.00" fill="#4d4d4d">fin</text>
</g>
<!-- emploi -->
<g id="node2" class="node">
<title>emploi</title>
<ellipse fill="#b93556" stroke="white" stroke-width="0" cx="374.11" cy="-302.94" rx="18" ry="18"/>
<text text-anchor="middle" x="342.11" y="-323.54" font-family="Helvetica,sans-Serif" font-size="8.00" fill="#4d4d4d">emploi</text>
</g>
<!-- pollution -->
<g id="node3" class="node">
<title>pollution</title>
<ellipse fill="#ea632a" stroke="white" stroke-width="0" cx="343.78" cy="-164.5" rx="25" ry="25"/>
<text text-anchor="middle" x="300.28" y="-133.1" font-family="Helvetica,sans-Serif" font-size="8.00" fill="#4d4d4d">pollution</text>
</g>
<!-- épuisement de la ressource -->
<g id="node4" class="node">
<title>épuisement de la ressource</title>
<ellipse fill="#65156e" stroke="white" stroke-width="0" cx="328.92" cy="-245.09" rx="11" ry="11"/>
<text text-anchor="middle" x="260.92" y="-258.69" font-family="Helvetica,sans-Serif" font-size="8.00" fill="#4d4d4d">épuisement de la ressource</text>
</g>
<!-- impact environnemental -->
<g id="node5" class="node">
<title>impact environnemental</title>
<ellipse fill="#fcffa4" stroke="white" stroke-width="0" cx="282.17" cy="-175.02" rx="36" ry="36"/>
<text text-anchor="middle" x="196.17" y="-213.62" font-family="Helvetica,sans-Serif" font-size="8.00" fill="#4d4d4d">impact environnemental</text>
</g>
<!-- amélioration environnementale -->
<g id="node6" class="node">
<title>amélioration environnementale</title>
<ellipse fill="#ba3655" stroke="white" stroke-width="0" cx="498.32" cy="-187.43" rx="18" ry="18"/>
<text text-anchor="middle" x="544.82" y="-208.03" font-family="Helvetica,sans-Serif" font-size="8.00" fill="#4d4d4d">amélioration environnementale</text>
</g>
<!-- conflit -->
<g id="node7" class="node">
<title>conflit</title>
<ellipse fill="#520e6d" stroke="white" stroke-width="0" cx="354.85" cy="-351.59" rx="11" ry="11"/>
<text text-anchor="middle" x="330.85" y="-365.19" font-family="Helvetica,sans-Serif" font-size="8.00" fill="#4d4d4d">conflit</text>
</g>
<!-- vision positive de la ressource -->
<g id="node8" class="node">
<title>vision positive de la ressource</title>
<ellipse fill="#2f0a5b" stroke="white" stroke-width="0" cx="254.22" cy="-272.57" rx="7" ry="7"/>
<text text-anchor="middle" x="185.22" y="-282.17" font-family="Helvetica,sans-Serif" font-size="8.00" fill="#4d4d4d">vision positive de la ressource</text>
</g>
<!-- économie du pays -->
<g id="node9" class="node">
<title>économie du pays</title>
<ellipse fill="#61136e" stroke="white" stroke-width="0" cx="301.75" cy="-310.67" rx="11" ry="11"/>
<text text-anchor="middle" x="252.75" y="-324.27" font-family="Helvetica,sans-Serif" font-size="8.00" fill="#4d4d4d">économie du pays</text>
</g>
<!-- famille -->
<g id="node10" class="node">
<title>famille</title>
<ellipse fill="#050417" stroke="white" stroke-width="0" cx="271.25" cy="-480.9" rx="3.5" ry="3.5"/>
<text text-anchor="middle" x="253.75" y="-487" font-family="Helvetica,sans-Serif" font-size="8.00" fill="#4d4d4d">famille</text>
</g>
<!-- développement durable -->
<g id="node11" class="node">
<title>développement durable</title>
<ellipse fill="#61136e" stroke="white" stroke-width="0" cx="470.63" cy="-257.06" rx="11" ry="11"/>
<text text-anchor="middle" x="410.13" y="-239.66" font-family="Helvetica,sans-Serif" font-size="8.00" fill="#4d4d4d">développement durable</text>
</g>
<!-- innovation -->
<g id="node12" class="node">
<title>innovation</title>
<ellipse fill="#7c1d6d" stroke="white" stroke-width="0" cx="398.39" cy="-202.62" rx="14.5" ry="14.5"/>
<text text-anchor="middle" x="361.89" y="-219.72" font-family="Helvetica,sans-Serif" font-size="8.00" fill="#4d4d4d">innovation</text>
</g>
<!-- formation -->
<g id="node13" class="node">
<title>formation</title>
<ellipse fill="#000004" stroke="white" stroke-width="0" cx="362.03" cy="-465.77" rx="0.5" ry="0.5"/>
<text text-anchor="middle" x="341.53" y="-468.87" font-family="Helvetica,sans-Serif" font-size="8.00" fill="#4d4d4d">formation</text>
</g>
<!-- procédé industriel -->
<g id="node14" class="node">
<title>procédé industriel</title>
<ellipse fill="#0c0826" stroke="white" stroke-width="0" cx="646.82" cy="-82.16" rx="3.5" ry="3.5"/>
<text text-anchor="middle" x="606.32" y="-88.26" font-family="Helvetica,sans-Serif" font-size="8.00" fill="#4d4d4d">procédé industriel</text>
</g>
<!-- montagne -->
<g id="node15" class="node">
<title>montagne</title>
<ellipse fill="#0b0724" stroke="white" stroke-width="0" cx="477.65" cy="-101.86" rx="3.5" ry="3.5"/>
<text text-anchor="middle" x="452.65" y="-107.96" font-family="Helvetica,sans-Serif" font-size="8.00" fill="#4d4d4d">montagne</text>
</g>
<!-- biodiversité -->
<g id="node16" class="node">
<title>biodiversité</title>
<ellipse fill="#360961" stroke="white" stroke-width="0" cx="234.44" cy="-65.67" rx="7" ry="7"/>
<text text-anchor="middle" x="202.94" y="-75.27" font-family="Helvetica,sans-Serif" font-size="8.00" fill="#4d4d4d">biodiversité</text>
</g>
<!-- développement -->
<g id="node17" class="node">
<title>développement</title>
<ellipse fill="#62146e" stroke="white" stroke-width="0" cx="413.56" cy="-261.16" rx="11" ry="11"/>
<text text-anchor="middle" x="370.06" y="-274.76" font-family="Helvetica,sans-Serif" font-size="8.00" fill="#4d4d4d">développement</text>
</g>
<!-- revenu -->
<g id="node18" class="node">
<title>revenu</title>
<ellipse fill="#08051d" stroke="white" stroke-width="0" cx="191.59" cy="-131.71" rx="3.5" ry="3.5"/>
<text text-anchor="middle" x="174.09" y="-137.81" font-family="Helvetica,sans-Serif" font-size="8.00" fill="#4d4d4d">revenu</text>
</g>
<!-- déclin -->
<g id="node19" class="node">
<title>déclin</title>
<ellipse fill="#230c4c" stroke="white" stroke-width="0" cx="342.65" cy="-5.98" rx="3.5" ry="3.5"/>
<text text-anchor="middle" x="326.65" y="-12.08" font-family="Helvetica,sans-Serif" font-size="8.00" fill="#4d4d4d">déclin</text>
</g>
<!-- richesse -->
<g id="node20" class="node">
<title>richesse</title>
<ellipse fill="#0b0724" stroke="white" stroke-width="0" cx="266.56" cy="-3.5" rx="3.5" ry="3.5"/>
<text text-anchor="middle" x="245.56" y="-9.6" font-family="Helvetica,sans-Serif" font-size="8.00" fill="#4d4d4d">richesse</text>
</g>
<!-- automatisation -->
<g id="node21" class="node">
<title>automatisation</title>
<ellipse fill="#1f0c48" stroke="white" stroke-width="0" cx="396.01" cy="-60.6" rx="3.5" ry="3.5"/>
<text text-anchor="middle" x="361.01" y="-66.7" font-family="Helvetica,sans-Serif" font-size="8.00" fill="#4d4d4d">automatisation</text>
</g>
<!-- croissance minière -->
<g id="node22" class="node">
<title>croissance minière</title>
<ellipse fill="#050417" stroke="white" stroke-width="0" cx="114.85" cy="-45.81" rx="3.5" ry="3.5"/>
<text text-anchor="middle" x="73.35" y="-51.91" font-family="Helvetica,sans-Serif" font-size="8.00" fill="#4d4d4d">croissance minière</text>
</g>
<!-- milieu -->
<g id="node23" class="node">
<title>milieu</title>
<ellipse fill="#0c0826" stroke="white" stroke-width="0" cx="138.73" cy="-207.84" rx="3.5" ry="3.5"/>
<text text-anchor="middle" x="122.73" y="-213.94" font-family="Helvetica,sans-Serif" font-size="8.00" fill="#4d4d4d">milieu</text>
</g>
<!-- avenir -->
<g id="node24" class="node">
<title>avenir</title>
<ellipse fill="#040312" stroke="white" stroke-width="0" cx="105.96" cy="-277.07" rx="3.5" ry="3.5"/>
<text text-anchor="middle" x="89.46" y="-283.17" font-family="Helvetica,sans-Serif" font-size="8.00" fill="#4d4d4d">avenir</text>
</g>
<!-- investissement -->
<g id="node25" class="node">
<title>investissement</title>
<ellipse fill="#000004" stroke="white" stroke-width="0" cx="63.5" cy="-142.28" rx="0.5" ry="0.5"/>
<text text-anchor="middle" x="31.5" y="-145.38" font-family="Helvetica,sans-Serif" font-size="8.00" fill="#4d4d4d">investissement</text>
</g>
<!-- maintien de l’exploitation -->
<g id="node26" class="node">
<title>maintien de l’exploitation</title>
<ellipse fill="#160b39" stroke="white" stroke-width="0" cx="675.63" cy="-198.34" rx="3.5" ry="3.5"/>
<text text-anchor="middle" x="620.13" y="-197.44" font-family="Helvetica,sans-Serif" font-size="8.00" fill="#4d4d4d">maintien de l’exploitation</text>
</g>
</g>
</svg>
