<?xml version="1.0" encoding="UTF-8" standalone="no"?>
<!DOCTYPE svg PUBLIC "-//W3C//DTD SVG 1.1//EN"
 "http://www.w3.org/Graphics/SVG/1.1/DTD/svg11.dtd">
<!-- Generated by graphviz version 2.43.0 (0)
 -->
<!-- Pages: 1 -->
<svg width="919pt" height="432pt"
 viewBox="0.00 0.00 919.00 432.35" xmlns="http://www.w3.org/2000/svg" xmlns:xlink="http://www.w3.org/1999/xlink">
<g id="graph0" class="graph" transform="scale(1 1) rotate(0) translate(4 428.35)">
<polygon fill="white" stroke="transparent" points="-4,4 -4,-428.35 915,-428.35 915,4 -4,4"/>
<!-- pollution&#45;&#45;dégradation environnementale -->
<g id="edge1" class="edge">
<title>pollution&#45;&#45;dégradation environnementale</title>
<path fill="none" stroke="darkgrey" stroke-width="10" d="M361.89,-124.92C381.59,-141.78 418.28,-173.18 442.8,-194.16"/>
</g>
<!-- pollution&#45;&#45;nouvelle&#45;calédonie -->
<g id="edge2" class="edge">
<title>pollution&#45;&#45;nouvelle&#45;calédonie</title>
<path fill="none" stroke="darkgrey" stroke-width="1.19" d="M362.79,-124.2C407.5,-157.86 540.87,-258.28 562.45,-274.53"/>
</g>
<!-- pollution&#45;&#45;travail -->
<g id="edge3" class="edge">
<title>pollution&#45;&#45;travail</title>
<path fill="none" stroke="darkgrey" stroke-width="6.64" d="M359.08,-128.03C368.43,-140.76 381.92,-159.15 391.8,-172.6"/>
</g>
<!-- pollution&#45;&#45;économie -->
<g id="edge4" class="edge">
<title>pollution&#45;&#45;économie</title>
<path fill="none" stroke="darkgrey" stroke-width="5.4" d="M336.72,-127.5C328.45,-137.81 317.32,-151.67 309.05,-161.96"/>
</g>
<!-- pollution&#45;&#45;nickel -->
<g id="edge5" class="edge">
<title>pollution&#45;&#45;nickel</title>
<path fill="none" stroke="darkgrey" stroke-width="4.77" d="M361.68,-100.87C365.97,-96.94 370.88,-92.45 375.78,-87.96"/>
</g>
<!-- pollution&#45;&#45;ressource minière -->
<g id="edge6" class="edge">
<title>pollution&#45;&#45;ressource minière</title>
<path fill="none" stroke="darkgrey" stroke-width="1.74" d="M366.44,-114.57C400.76,-117.13 473.95,-122.59 501.75,-124.66"/>
</g>
<!-- pollution&#45;&#45;politique -->
<g id="edge7" class="edge">
<title>pollution&#45;&#45;politique</title>
<path fill="none" stroke="darkgrey" stroke-width="2.78" d="M343.87,-130.82C336.08,-162.49 319.85,-228.48 312.68,-257.67"/>
</g>
<!-- pollution&#45;&#45;secteur nickel -->
<g id="edge8" class="edge">
<title>pollution&#45;&#45;secteur nickel</title>
<path fill="none" stroke="darkgrey" stroke-width="2.53" d="M358.31,-128.54C380.35,-161.95 432.5,-241.01 454.44,-274.27"/>
</g>
<!-- pollution&#45;&#45;nature -->
<g id="edge9" class="edge">
<title>pollution&#45;&#45;nature</title>
<path fill="none" stroke="darkgrey" stroke-width="3.5" d="M365.79,-117.09C378.65,-119.92 395.88,-123.72 407.94,-126.38"/>
</g>
<!-- pollution&#45;&#45;exploitation minière -->
<g id="edge10" class="edge">
<title>pollution&#45;&#45;exploitation minière</title>
<path fill="none" stroke="darkgrey" stroke-width="1.84" d="M352.43,-130.74C362.89,-174.13 389.76,-285.59 398.3,-320.99"/>
</g>
<!-- pollution&#45;&#45;alternative au développement -->
<g id="edge11" class="edge">
<title>pollution&#45;&#45;alternative au développement</title>
<path fill="none" stroke="darkgrey" stroke-width="1.65" d="M332.65,-103.82C301.2,-84.84 231.71,-42.89 215.86,-33.32"/>
</g>
<!-- pollution&#45;&#45;matériel -->
<g id="edge12" class="edge">
<title>pollution&#45;&#45;matériel</title>
<path fill="none" stroke="darkgrey" stroke-width="2.61" d="M350.37,-131.2C353.25,-155.03 358.27,-196.62 360.93,-218.68"/>
</g>
<!-- pollution&#45;&#45;industrie -->
<g id="edge13" class="edge">
<title>pollution&#45;&#45;industrie</title>
<path fill="none" stroke="darkgrey" stroke-width="2.36" d="M364.98,-120.23C398.97,-134.44 475.62,-166.49 509.68,-180.73"/>
</g>
<!-- dégradation environnementale&#45;&#45;nouvelle&#45;calédonie -->
<g id="edge14" class="edge">
<title>dégradation environnementale&#45;&#45;nouvelle&#45;calédonie</title>
<path fill="none" stroke="darkgrey" stroke-width="1.32" d="M495.03,-232.58C519.24,-247.78 552.16,-268.44 562.31,-274.81"/>
</g>
<!-- dégradation environnementale&#45;&#45;travail -->
<g id="edge15" class="edge">
<title>dégradation environnementale&#45;&#45;travail</title>
<path fill="none" stroke="darkgrey" stroke-width="7.73" d="M437.16,-203.12C432.89,-201.41 428.59,-199.68 424.58,-198.07"/>
</g>
<!-- dégradation environnementale&#45;&#45;économie -->
<g id="edge16" class="edge">
<title>dégradation environnementale&#45;&#45;économie</title>
<path fill="none" stroke="darkgrey" stroke-width="7.74" d="M435.54,-207.94C399.98,-199.76 343.79,-186.82 315.36,-180.28"/>
</g>
<!-- dégradation environnementale&#45;&#45;nickel -->
<g id="edge17" class="edge">
<title>dégradation environnementale&#45;&#45;nickel</title>
<path fill="none" stroke="darkgrey" stroke-width="9.19" d="M454.7,-185.26C443.79,-159.65 428.13,-122.88 416.86,-96.42"/>
</g>
<!-- dégradation environnementale&#45;&#45;ressource minière -->
<g id="edge18" class="edge">
<title>dégradation environnementale&#45;&#45;ressource minière</title>
<path fill="none" stroke="darkgrey" stroke-width="4" d="M482.32,-185.89C491.09,-168.49 501.65,-147.56 507.75,-135.46"/>
</g>
<!-- dégradation environnementale&#45;&#45;politique -->
<g id="edge19" class="edge">
<title>dégradation environnementale&#45;&#45;politique</title>
<path fill="none" stroke="darkgrey" stroke-width="4.03" d="M436.58,-226.38C402.2,-238.71 348.17,-258.09 322.96,-267.14"/>
</g>
<!-- dégradation environnementale&#45;&#45;secteur nickel -->
<g id="edge20" class="edge">
<title>dégradation environnementale&#45;&#45;secteur nickel</title>
<path fill="none" stroke="darkgrey" stroke-width="3.83" d="M466.15,-248.03C465.82,-255.95 465.49,-264.13 465.2,-271.11"/>
</g>
<!-- dégradation environnementale&#45;&#45;nature -->
<g id="edge21" class="edge">
<title>dégradation environnementale&#45;&#45;nature</title>
<path fill="none" stroke="darkgrey" stroke-width="5.35" d="M452.23,-186.27C444.47,-171.51 435.41,-154.29 429.33,-142.73"/>
</g>
<!-- dégradation environnementale&#45;&#45;exploitation minière -->
<g id="edge23" class="edge">
<title>dégradation environnementale&#45;&#45;exploitation minière</title>
<path fill="none" stroke="darkgrey" stroke-width="3.66" d="M451.38,-243.54C436.84,-269.03 416.28,-305.08 406.51,-322.2"/>
</g>
<!-- dégradation environnementale&#45;&#45;alternative au développement -->
<g id="edge24" class="edge">
<title>dégradation environnementale&#45;&#45;alternative au développement</title>
<path fill="none" stroke="darkgrey" stroke-width="1.96" d="M440.7,-195.96C380.37,-152.42 237.42,-49.27 215.45,-33.41"/>
</g>
<!-- dégradation environnementale&#45;&#45;matériel -->
<g id="edge25" class="edge">
<title>dégradation environnementale&#45;&#45;matériel</title>
<path fill="none" stroke="darkgrey" stroke-width="4.31" d="M435.2,-220.87C415.84,-224.21 392.16,-228.3 377.25,-230.87"/>
</g>
<!-- dégradation environnementale&#45;&#45;industrie -->
<g id="edge27" class="edge">
<title>dégradation environnementale&#45;&#45;industrie</title>
<path fill="none" stroke="darkgrey" stroke-width="3.17" d="M497.02,-201.54C501.52,-199.44 506.01,-197.35 510.09,-195.45"/>
</g>
<!-- dégradation environnementale&#45;&#45;société néo&#45;calédonienne -->
<g id="edge22" class="edge">
<title>dégradation environnementale&#45;&#45;société néo&#45;calédonienne</title>
<path fill="none" stroke="darkgrey" stroke-width="1.7" d="M446.55,-240.21C407.19,-287.01 324.77,-385.02 309.66,-402.98"/>
</g>
<!-- dégradation environnementale&#45;&#45;foncier -->
<g id="edge26" class="edge">
<title>dégradation environnementale&#45;&#45;foncier</title>
<path fill="none" stroke="darkgrey" stroke-width="2.07" d="M476.45,-183.59C491.44,-130.5 520.55,-27.44 526.31,-7.05"/>
</g>
<!-- dégradation environnementale&#45;&#45;risque -->
<g id="edge28" class="edge">
<title>dégradation environnementale&#45;&#45;risque</title>
<path fill="none" stroke="darkgrey" stroke-width="1.59" d="M500.12,-215.56C572.95,-216.16 743.25,-217.56 753.82,-217.65"/>
</g>
<!-- dégradation environnementale&#45;&#45;échange commercial -->
<g id="edge29" class="edge">
<title>dégradation environnementale&#45;&#45;échange commercial</title>
<path fill="none" stroke="darkgrey" stroke-width="1.88" d="M434.75,-217.21C383.16,-220.22 286.02,-225.9 259.03,-227.47"/>
</g>
<!-- nouvelle&#45;calédonie&#45;&#45;travail -->
<g id="edge30" class="edge">
<title>nouvelle&#45;calédonie&#45;&#45;travail</title>
<path fill="none" stroke="darkgrey" stroke-width="1.4" d="M562.05,-274.95C544.38,-265.42 461.48,-220.72 423.59,-200.29"/>
</g>
<!-- nouvelle&#45;calédonie&#45;&#45;économie -->
<g id="edge31" class="edge">
<title>nouvelle&#45;calédonie&#45;&#45;économie</title>
<path fill="none" stroke="darkgrey" stroke-width="1.09" d="M562.03,-275.49C536.11,-265.76 368.76,-202.91 314.54,-182.55"/>
</g>
<!-- nouvelle&#45;calédonie&#45;&#45;nickel -->
<g id="edge32" class="edge">
<title>nouvelle&#45;calédonie&#45;&#45;nickel</title>
<path fill="none" stroke="darkgrey" stroke-width="2.65" d="M563.11,-273.74C548.25,-254.23 465.06,-145.06 424.7,-92.1"/>
</g>
<!-- nouvelle&#45;calédonie&#45;&#45;ressource minière -->
<g id="edge33" class="edge">
<title>nouvelle&#45;calédonie&#45;&#45;ressource minière</title>
<path fill="none" stroke="darkgrey" stroke-width="1.13" d="M564.22,-273.32C557.79,-254.84 527.29,-167.2 516.54,-136.3"/>
</g>
<!-- nouvelle&#45;calédonie&#45;&#45;politique -->
<g id="edge34" class="edge">
<title>nouvelle&#45;calédonie&#45;&#45;politique</title>
<path fill="none" stroke="darkgrey" stroke-width="1.89" d="M561.79,-276.69C535.51,-276.22 373.7,-273.27 323.78,-272.36"/>
</g>
<!-- nouvelle&#45;calédonie&#45;&#45;secteur nickel -->
<g id="edge35" class="edge">
<title>nouvelle&#45;calédonie&#45;&#45;secteur nickel</title>
<path fill="none" stroke="darkgrey" stroke-width="1.44" d="M561.58,-277.24C548.76,-278.85 506.81,-284.12 482.43,-287.18"/>
</g>
<!-- nouvelle&#45;calédonie&#45;&#45;industrie -->
<g id="edge36" class="edge">
<title>nouvelle&#45;calédonie&#45;&#45;industrie</title>
<path fill="none" stroke="darkgrey" stroke-width="1.29" d="M563.94,-273.38C559.06,-262.21 543.21,-225.94 533.79,-204.36"/>
</g>
<!-- travail&#45;&#45;économie -->
<g id="edge37" class="edge">
<title>travail&#45;&#45;économie</title>
<path fill="none" stroke="darkgrey" stroke-width="7.73" d="M383.22,-187.29C363.46,-184.73 334.43,-180.97 315.78,-178.55"/>
</g>
<!-- travail&#45;&#45;nickel -->
<g id="edge38" class="edge">
<title>travail&#45;&#45;nickel</title>
<path fill="none" stroke="darkgrey" stroke-width="8.12" d="M404.3,-168.55C404.02,-149.62 403.6,-121.66 403.27,-99.32"/>
</g>
<!-- travail&#45;&#45;ressource minière -->
<g id="edge39" class="edge">
<title>travail&#45;&#45;ressource minière</title>
<path fill="none" stroke="darkgrey" stroke-width="3.18" d="M423.46,-178.81C446.7,-164.94 485.32,-141.88 503.18,-131.21"/>
</g>
<!-- travail&#45;&#45;politique -->
<g id="edge40" class="edge">
<title>travail&#45;&#45;politique</title>
<path fill="none" stroke="darkgrey" stroke-width="3.96" d="M387.98,-204.35C368.53,-221.06 336.88,-248.25 320.21,-262.57"/>
</g>
<!-- travail&#45;&#45;secteur nickel -->
<g id="edge41" class="edge">
<title>travail&#45;&#45;secteur nickel</title>
<path fill="none" stroke="darkgrey" stroke-width="4.93" d="M415.87,-208.75C427.18,-227.53 444.4,-256.15 455.02,-273.78"/>
</g>
<!-- travail&#45;&#45;nature -->
<g id="edge42" class="edge">
<title>travail&#45;&#45;nature</title>
<path fill="none" stroke="darkgrey" stroke-width="3.11" d="M410.74,-169.24C413.23,-160.77 416.05,-151.2 418.29,-143.58"/>
</g>
<!-- travail&#45;&#45;exploitation minière -->
<g id="edge44" class="edge">
<title>travail&#45;&#45;exploitation minière</title>
<path fill="none" stroke="darkgrey" stroke-width="2.92" d="M404.06,-211.61C403.26,-242.31 401.83,-297.52 401.23,-320.96"/>
</g>
<!-- travail&#45;&#45;alternative au développement -->
<g id="edge45" class="edge">
<title>travail&#45;&#45;alternative au développement</title>
<path fill="none" stroke="darkgrey" stroke-width="1.04" d="M387.91,-176.25C345.21,-140.96 234.09,-49.12 215.31,-33.6"/>
</g>
<!-- travail&#45;&#45;matériel -->
<g id="edge46" class="edge">
<title>travail&#45;&#45;matériel</title>
<path fill="none" stroke="darkgrey" stroke-width="3.54" d="M389.49,-205.7C383.95,-211.42 377.83,-217.75 372.84,-222.91"/>
</g>
<!-- travail&#45;&#45;industrie -->
<g id="edge49" class="edge">
<title>travail&#45;&#45;industrie</title>
<path fill="none" stroke="darkgrey" stroke-width="3.65" d="M426.13,-189.66C449.51,-189.22 486.46,-188.53 508.42,-188.12"/>
</g>
<!-- travail&#45;&#45;société néo&#45;calédonienne -->
<g id="edge43" class="edge">
<title>travail&#45;&#45;société néo&#45;calédonienne</title>
<path fill="none" stroke="darkgrey" stroke-width="1.59" d="M395.63,-209.97C373.7,-258.59 318.48,-380.97 308.74,-402.56"/>
</g>
<!-- travail&#45;&#45;foncier -->
<g id="edge47" class="edge">
<title>travail&#45;&#45;foncier</title>
<path fill="none" stroke="darkgrey" stroke-width="1.16" d="M416.6,-171.83C444.58,-129.29 512.78,-25.61 525.32,-6.54"/>
</g>
<!-- travail&#45;&#45;risque -->
<g id="edge50" class="edge">
<title>travail&#45;&#45;risque</title>
<path fill="none" stroke="darkgrey" stroke-width="1.64" d="M426.23,-191.77C500.09,-197.59 738.77,-216.43 753.61,-217.6"/>
</g>
<!-- travail&#45;&#45;échange commercial -->
<g id="edge51" class="edge">
<title>travail&#45;&#45;échange commercial</title>
<path fill="none" stroke="darkgrey" stroke-width="1.68" d="M383.7,-195.24C348.9,-203.86 280.77,-220.74 258.87,-226.16"/>
</g>
<!-- travail&#45;&#45;relation politique -->
<g id="edge48" class="edge">
<title>travail&#45;&#45;relation politique</title>
<path fill="none" stroke="darkgrey" d="M382.74,-189.98C315.19,-189.72 113.64,-188.95 101.11,-188.9"/>
</g>
<!-- économie&#45;&#45;nickel -->
<g id="edge52" class="edge">
<title>économie&#45;&#45;nickel</title>
<path fill="none" stroke="darkgrey" stroke-width="6.08" d="M310.09,-162.8C326.73,-144.92 356.58,-112.87 377.9,-89.96"/>
</g>
<!-- économie&#45;&#45;ressource minière -->
<g id="edge53" class="edge">
<title>économie&#45;&#45;ressource minière</title>
<path fill="none" stroke="darkgrey" stroke-width="2.04" d="M315.23,-172.05C358.18,-161.92 467.37,-136.19 502.04,-128.01"/>
</g>
<!-- économie&#45;&#45;politique -->
<g id="edge54" class="edge">
<title>économie&#45;&#45;politique</title>
<path fill="none" stroke="darkgrey" stroke-width="4.49" d="M299.79,-194.24C301.99,-212.57 305.35,-240.63 307.39,-257.58"/>
</g>
<!-- économie&#45;&#45;secteur nickel -->
<g id="edge55" class="edge">
<title>économie&#45;&#45;secteur nickel</title>
<path fill="none" stroke="darkgrey" stroke-width="3.17" d="M312.72,-186.45C344.48,-208.01 417.88,-257.83 449.5,-279.3"/>
</g>
<!-- économie&#45;&#45;nature -->
<g id="edge56" class="edge">
<title>économie&#45;&#45;nature</title>
<path fill="none" stroke="darkgrey" stroke-width="2.42" d="M314.71,-169.81C339.68,-160.48 385.64,-143.31 408.6,-134.73"/>
</g>
<!-- économie&#45;&#45;exploitation minière -->
<g id="edge58" class="edge">
<title>économie&#45;&#45;exploitation minière</title>
<path fill="none" stroke="darkgrey" stroke-width="1.6" d="M307.72,-191.42C328.94,-223.41 377.65,-296.84 394.82,-322.72"/>
</g>
<!-- économie&#45;&#45;alternative au développement -->
<g id="edge59" class="edge">
<title>économie&#45;&#45;alternative au développement</title>
<path fill="none" stroke="darkgrey" stroke-width="1.2" d="M288.36,-160.42C268.73,-126.99 223.97,-50.73 214.41,-34.45"/>
</g>
<!-- économie&#45;&#45;matériel -->
<g id="edge60" class="edge">
<title>économie&#45;&#45;matériel</title>
<path fill="none" stroke="darkgrey" stroke-width="1.95" d="M311.42,-188.32C323.37,-198.82 340.41,-213.79 351.52,-223.55"/>
</g>
<!-- économie&#45;&#45;industrie -->
<g id="edge62" class="edge">
<title>économie&#45;&#45;industrie</title>
<path fill="none" stroke="darkgrey" stroke-width="2.34" d="M315.97,-177.13C358.94,-179.3 465.69,-184.7 508.43,-186.86"/>
</g>
<!-- économie&#45;&#45;société néo&#45;calédonienne -->
<g id="edge57" class="edge">
<title>économie&#45;&#45;société néo&#45;calédonienne</title>
<path fill="none" stroke="darkgrey" stroke-width="1.06" d="M298.38,-194.22C300.45,-243.49 306.11,-378.38 307.11,-402.22"/>
</g>
<!-- économie&#45;&#45;échange commercial -->
<g id="edge63" class="edge">
<title>économie&#45;&#45;échange commercial</title>
<path fill="none" stroke="darkgrey" stroke-width="1.38" d="M285.61,-189.78C276.3,-200.31 263.86,-214.37 256.99,-222.13"/>
</g>
<!-- économie&#45;&#45;relation politique -->
<g id="edge61" class="edge">
<title>économie&#45;&#45;relation politique</title>
<path fill="none" stroke="darkgrey" stroke-width="1.03" d="M279.43,-177.37C232.92,-180.37 112.52,-188.12 101.34,-188.84"/>
</g>
<!-- nickel&#45;&#45;ressource minière -->
<g id="edge64" class="edge">
<title>nickel&#45;&#45;ressource minière</title>
<path fill="none" stroke="darkgrey" stroke-width="5.29" d="M434.27,-81.1C457.64,-94.31 487.98,-111.46 503.19,-120.06"/>
</g>
<!-- nickel&#45;&#45;politique -->
<g id="edge65" class="edge">
<title>nickel&#45;&#45;politique</title>
<path fill="none" stroke="darkgrey" stroke-width="2.45" d="M387.91,-96.37C366.98,-143.06 329.7,-226.2 315.17,-258.62"/>
</g>
<!-- nickel&#45;&#45;secteur nickel -->
<g id="edge66" class="edge">
<title>nickel&#45;&#45;secteur nickel</title>
<path fill="none" stroke="darkgrey" stroke-width="6.13" d="M412.25,-98.12C425.63,-147.19 449.54,-234.8 459.69,-271.99"/>
</g>
<!-- nickel&#45;&#45;nature -->
<g id="edge67" class="edge">
<title>nickel&#45;&#45;nature</title>
<path fill="none" stroke="darkgrey" stroke-width="5.53" d="M413.04,-97.98C414.9,-104.24 416.73,-110.43 418.28,-115.65"/>
</g>
<!-- nickel&#45;&#45;exploitation minière -->
<g id="edge68" class="edge">
<title>nickel&#45;&#45;exploitation minière</title>
<path fill="none" stroke="darkgrey" stroke-width="7.34" d="M402.5,-99.51C402.09,-161.11 401.27,-283.2 401.02,-320.72"/>
</g>
<!-- nickel&#45;&#45;alternative au développement -->
<g id="edge69" class="edge">
<title>nickel&#45;&#45;alternative au développement</title>
<path fill="none" stroke="darkgrey" stroke-width="1.38" d="M366.98,-57.27C318.35,-49.11 235.26,-35.16 216.46,-32"/>
</g>
<!-- nickel&#45;&#45;matériel -->
<g id="edge70" class="edge">
<title>nickel&#45;&#45;matériel</title>
<path fill="none" stroke="darkgrey" stroke-width="5.34" d="M394.45,-98.52C385.7,-135.7 372.34,-192.47 366.12,-218.9"/>
</g>
<!-- nickel&#45;&#45;industrie -->
<g id="edge72" class="edge">
<title>nickel&#45;&#45;industrie</title>
<path fill="none" stroke="darkgrey" stroke-width="7.99" d="M428.39,-89.07C454.46,-115.29 493.76,-154.81 513.8,-174.97"/>
</g>
<!-- nickel&#45;&#45;foncier -->
<g id="edge71" class="edge">
<title>nickel&#45;&#45;foncier</title>
<path fill="none" stroke="darkgrey" stroke-width="1.91" d="M435.47,-47.57C466.9,-32.49 511.4,-11.14 523.92,-5.13"/>
</g>
<!-- nickel&#45;&#45;échange commercial -->
<g id="edge73" class="edge">
<title>nickel&#45;&#45;échange commercial</title>
<path fill="none" stroke="darkgrey" stroke-width="2.42" d="M378.17,-90.09C341.61,-129.99 275.2,-202.47 256.76,-222.59"/>
</g>
<!-- ressource minière&#45;&#45;politique -->
<g id="edge74" class="edge">
<title>ressource minière&#45;&#45;politique</title>
<path fill="none" stroke="darkgrey" stroke-width="2.86" d="M503.77,-131.97C470.97,-155.58 358.01,-236.91 320.98,-263.56"/>
</g>
<!-- ressource minière&#45;&#45;secteur nickel -->
<g id="edge75" class="edge">
<title>ressource minière&#45;&#45;secteur nickel</title>
<path fill="none" stroke="darkgrey" stroke-width="1.72" d="M509.61,-136.24C501.44,-163.95 479.61,-237.99 469.6,-271.96"/>
</g>
<!-- ressource minière&#45;&#45;nature -->
<g id="edge76" class="edge">
<title>ressource minière&#45;&#45;nature</title>
<path fill="none" stroke="darkgrey" stroke-width="1.68" d="M501.7,-125.98C485.49,-126.72 455.27,-128.08 437.18,-128.9"/>
</g>
<!-- ressource minière&#45;&#45;exploitation minière -->
<g id="edge77" class="edge">
<title>ressource minière&#45;&#45;exploitation minière</title>
<path fill="none" stroke="darkgrey" stroke-width="2.31" d="M507.53,-135.16C488.79,-169.77 425.24,-287.11 406.31,-322.06"/>
</g>
<!-- ressource minière&#45;&#45;matériel -->
<g id="edge78" class="edge">
<title>ressource minière&#45;&#45;matériel</title>
<path fill="none" stroke="darkgrey" stroke-width="1.73" d="M503.84,-131.91C478.1,-150.42 403.76,-203.86 374.62,-224.81"/>
</g>
<!-- ressource minière&#45;&#45;industrie -->
<g id="edge79" class="edge">
<title>ressource minière&#45;&#45;industrie</title>
<path fill="none" stroke="darkgrey" stroke-width="2.3" d="M515.18,-136.33C517.21,-145.54 520.17,-158.93 522.56,-169.74"/>
</g>
<!-- ressource minière&#45;&#45;échange commercial -->
<g id="edge80" class="edge">
<title>ressource minière&#45;&#45;échange commercial</title>
<path fill="none" stroke="darkgrey" stroke-width="1.31" d="M502.23,-129.62C458.76,-146.69 294.16,-211.3 258.67,-225.23"/>
</g>
<!-- politique&#45;&#45;secteur nickel -->
<g id="edge81" class="edge">
<title>politique&#45;&#45;secteur nickel</title>
<path fill="none" stroke="darkgrey" stroke-width="2.95" d="M323.74,-273.73C352.29,-276.91 415.38,-283.96 446.44,-287.43"/>
</g>
<!-- politique&#45;&#45;nature -->
<g id="edge82" class="edge">
<title>politique&#45;&#45;nature</title>
<path fill="none" stroke="darkgrey" stroke-width="1.22" d="M318.4,-260.43C339.75,-233.57 392.17,-167.62 413.33,-141"/>
</g>
<!-- politique&#45;&#45;exploitation minière -->
<g id="edge84" class="edge">
<title>politique&#45;&#45;exploitation minière</title>
<path fill="none" stroke="darkgrey" stroke-width="1.59" d="M321.51,-280.17C340.11,-292.3 374.86,-314.95 391.54,-325.83"/>
</g>
<!-- politique&#45;&#45;alternative au développement -->
<g id="edge85" class="edge">
<title>politique&#45;&#45;alternative au développement</title>
<path fill="none" stroke="darkgrey" stroke-width="1.26" d="M303.66,-258.46C284.92,-211.71 223.85,-59.42 213.96,-34.74"/>
</g>
<!-- politique&#45;&#45;matériel -->
<g id="edge86" class="edge">
<title>politique&#45;&#45;matériel</title>
<path fill="none" stroke="darkgrey" stroke-width="1.1" d="M321.02,-263.5C329.9,-257.09 341.98,-248.36 350.85,-241.95"/>
</g>
<!-- politique&#45;&#45;industrie -->
<g id="edge88" class="edge">
<title>politique&#45;&#45;industrie</title>
<path fill="none" stroke="darkgrey" stroke-width="2.53" d="M322.73,-266.82C360.75,-252.08 468.09,-210.45 509.73,-194.3"/>
</g>
<!-- politique&#45;&#45;société néo&#45;calédonienne -->
<g id="edge83" class="edge">
<title>politique&#45;&#45;société néo&#45;calédonienne</title>
<path fill="none" stroke="darkgrey" stroke-width="1.27" d="M308.92,-286.66C308.5,-317 307.54,-385.49 307.31,-402.15"/>
</g>
<!-- politique&#45;&#45;échange commercial -->
<g id="edge89" class="edge">
<title>politique&#45;&#45;échange commercial</title>
<path fill="none" stroke="darkgrey" stroke-width="1.35" d="M297.55,-263.15C285.4,-253.76 266.81,-239.4 257.55,-232.25"/>
</g>
<!-- politique&#45;&#45;relation politique -->
<g id="edge87" class="edge">
<title>politique&#45;&#45;relation politique</title>
<path fill="none" stroke="darkgrey" stroke-width="1.59" d="M295.44,-266.64C250.84,-248.85 111.95,-193.46 101.16,-189.16"/>
</g>
<!-- secteur nickel&#45;&#45;nature -->
<g id="edge90" class="edge">
<title>secteur nickel&#45;&#45;nature</title>
<path fill="none" stroke="darkgrey" stroke-width="1.71" d="M459.87,-272.03C451.49,-240.14 433.82,-172.97 426.13,-143.7"/>
</g>
<!-- secteur nickel&#45;&#45;exploitation minière -->
<g id="edge92" class="edge">
<title>secteur nickel&#45;&#45;exploitation minière</title>
<path fill="none" stroke="darkgrey" stroke-width="1.94" d="M449.4,-299.52C437.22,-307.67 420.46,-318.89 410.18,-325.77"/>
</g>
<!-- secteur nickel&#45;&#45;matériel -->
<g id="edge93" class="edge">
<title>secteur nickel&#45;&#45;matériel</title>
<path fill="none" stroke="darkgrey" stroke-width="2.29" d="M448.55,-280.68C428.43,-269.6 394.17,-250.71 375.59,-240.48"/>
</g>
<!-- secteur nickel&#45;&#45;industrie -->
<g id="edge95" class="edge">
<title>secteur nickel&#45;&#45;industrie</title>
<path fill="none" stroke="darkgrey" stroke-width="5.06" d="M473.88,-274C485.55,-254.89 505.31,-222.54 517.02,-203.37"/>
</g>
<!-- secteur nickel&#45;&#45;société néo&#45;calédonienne -->
<g id="edge91" class="edge">
<title>secteur nickel&#45;&#45;société néo&#45;calédonienne</title>
<path fill="none" stroke="darkgrey" stroke-width="1.12" d="M449.94,-300.18C414.98,-326.07 327.67,-390.73 310.29,-403.6"/>
</g>
<!-- secteur nickel&#45;&#45;foncier -->
<g id="edge94" class="edge">
<title>secteur nickel&#45;&#45;foncier</title>
<path fill="none" stroke="darkgrey" stroke-width="1.67" d="M468.38,-271.56C481.07,-213.85 520.45,-34.73 526.53,-7.1"/>
</g>
<!-- secteur nickel&#45;&#45;échange commercial -->
<g id="edge96" class="edge">
<title>secteur nickel&#45;&#45;échange commercial</title>
<path fill="none" stroke="darkgrey" stroke-width="1.85" d="M447.05,-284.4C403.03,-271.66 288.61,-238.52 258.99,-229.94"/>
</g>
<!-- nature&#45;&#45;exploitation minière -->
<g id="edge98" class="edge">
<title>nature&#45;&#45;exploitation minière</title>
<path fill="none" stroke="darkgrey" stroke-width="1.33" d="M420.87,-144.13C416.79,-182.56 405.8,-286.15 402.15,-320.63"/>
</g>
<!-- nature&#45;&#45;matériel -->
<g id="edge99" class="edge">
<title>nature&#45;&#45;matériel</title>
<path fill="none" stroke="darkgrey" stroke-width="3.03" d="M415.09,-142.3C403.63,-162.22 381.58,-200.56 370.09,-220.55"/>
</g>
<!-- nature&#45;&#45;industrie -->
<g id="edge101" class="edge">
<title>nature&#45;&#45;industrie</title>
<path fill="none" stroke="darkgrey" stroke-width="2.33" d="M435.18,-136.71C454.19,-147.33 489.9,-167.3 510.6,-178.87"/>
</g>
<!-- nature&#45;&#45;société néo&#45;calédonienne -->
<g id="edge97" class="edge">
<title>nature&#45;&#45;société néo&#45;calédonienne</title>
<path fill="none" stroke="darkgrey" stroke-width="1.16" d="M416.7,-143.27C395.19,-194.88 319.71,-375.98 308.62,-402.57"/>
</g>
<!-- nature&#45;&#45;foncier -->
<g id="edge100" class="edge">
<title>nature&#45;&#45;foncier</title>
<path fill="none" stroke="darkgrey" stroke-width="1.28" d="M431.72,-118.38C454.59,-90.9 512.55,-21.25 524.96,-6.34"/>
</g>
<!-- nature&#45;&#45;échange commercial -->
<g id="edge102" class="edge">
<title>nature&#45;&#45;échange commercial</title>
<path fill="none" stroke="darkgrey" stroke-width="1.02" d="M409.6,-136.96C375.36,-156.7 282.72,-210.12 258.02,-224.36"/>
</g>
<!-- exploitation minière&#45;&#45;matériel -->
<g id="edge104" class="edge">
<title>exploitation minière&#45;&#45;matériel</title>
<path fill="none" stroke="darkgrey" stroke-width="2.52" d="M396.85,-321.41C389.88,-303.43 375.7,-266.87 367.99,-246.99"/>
</g>
<!-- exploitation minière&#45;&#45;industrie -->
<g id="edge105" class="edge">
<title>exploitation minière&#45;&#45;industrie</title>
<path fill="none" stroke="darkgrey" stroke-width="2.76" d="M408.42,-323.37C429.44,-299.25 489.16,-230.7 514.71,-201.37"/>
</g>
<!-- exploitation minière&#45;&#45;échange commercial -->
<g id="edge106" class="edge">
<title>exploitation minière&#45;&#45;échange commercial</title>
<path fill="none" stroke="darkgrey" stroke-width="1.65" d="M391.62,-325.45C363.58,-305.87 280.55,-247.89 257.75,-231.97"/>
</g>
<!-- matériel&#45;&#45;industrie -->
<g id="edge108" class="edge">
<title>matériel&#45;&#45;industrie</title>
<path fill="none" stroke="darkgrey" stroke-width="3.95" d="M376.96,-229.41C406.93,-221.07 476.41,-201.73 509.03,-192.66"/>
</g>
<!-- matériel&#45;&#45;foncier -->
<g id="edge107" class="edge">
<title>matériel&#45;&#45;foncier</title>
<path fill="none" stroke="darkgrey" stroke-width="1.14" d="M371.33,-221.34C402.55,-177.74 508.77,-29.4 525.18,-6.48"/>
</g>
<!-- matériel&#45;&#45;échange commercial -->
<g id="edge109" class="edge">
<title>matériel&#45;&#45;échange commercial</title>
<path fill="none" stroke="darkgrey" stroke-width="1.53" d="M348.22,-232.66C324.17,-231.47 276.88,-229.13 258.99,-228.24"/>
</g>
<!-- industrie&#45;&#45;échange commercial -->
<g id="edge112" class="edge">
<title>industrie&#45;&#45;échange commercial</title>
<path fill="none" stroke="darkgrey" stroke-width="1.44" d="M508.52,-190.41C454.34,-198.32 294.48,-221.67 258.95,-226.86"/>
</g>
<!-- société néo&#45;calédonienne&#45;&#45;matériel -->
<g id="edge103" class="edge">
<title>société néo&#45;calédonienne&#45;&#45;matériel</title>
<path fill="none" stroke="darkgrey" stroke-width="1.32" d="M308.42,-402.24C314.86,-382.22 346.38,-284.17 358.21,-247.37"/>
</g>
<!-- foncier&#45;&#45;industrie -->
<g id="edge110" class="edge">
<title>foncier&#45;&#45;industrie</title>
<path fill="none" stroke="darkgrey" stroke-width="1.92" d="M527.3,-7.02C527.22,-27.12 526.79,-128.05 526.62,-169.73"/>
</g>
<!-- relation politique&#45;&#45;échange commercial -->
<g id="edge111" class="edge">
<title>relation politique&#45;&#45;échange commercial</title>
<path fill="none" stroke="darkgrey" stroke-width="1.02" d="M101.18,-189.07C110.6,-191.5 216.08,-218.66 244.75,-226.05"/>
</g>
<!-- pollution -->
<g id="node1" class="node">
<title>pollution</title>
<ellipse fill="#a52c60" stroke="white" stroke-width="0" cx="348.2" cy="-113.21" rx="18" ry="18"/>
<text text-anchor="middle" x="287.2" y="-137.21" font-family="Helvetica,sans-Serif" font-size="20.00" fill="#4d4d4d">pollution</text>
</g>
<!-- dégradation environnementale -->
<g id="node2" class="node">
<title>dégradation environnementale</title>
<ellipse fill="#f1ec6d" stroke="white" stroke-width="0" cx="467.5" cy="-215.29" rx="32.5" ry="32.5"/>
<text text-anchor="middle" x="705.5" y="-255.67" font-family="Helvetica,sans-Serif" font-size="26.40" fill="#4d4d4d">dégradation environnementale</text>
</g>
<!-- nouvelle&#45;calédonie -->
<g id="node3" class="node">
<title>nouvelle&#45;calédonie</title>
<ellipse fill="#10092d" stroke="white" stroke-width="0" cx="565.41" cy="-276.76" rx="3.5" ry="3.5"/>
<text text-anchor="middle" x="625.91" y="-284.38" font-family="Helvetica,sans-Serif" font-size="13.60" fill="#4d4d4d">nouvelle&#45;calédonie</text>
</g>
<!-- travail -->
<g id="node4" class="node">
<title>travail</title>
<ellipse fill="#e8602d" stroke="white" stroke-width="0" cx="404.62" cy="-190.06" rx="21.5" ry="21.5"/>
<text text-anchor="middle" x="418.12" y="-151.28" font-family="Helvetica,sans-Serif" font-size="21.60" fill="#4d4d4d">travail</text>
</g>
<!-- économie -->
<g id="node5" class="node">
<title>économie</title>
<ellipse fill="#b1325a" stroke="white" stroke-width="0" cx="297.62" cy="-176.2" rx="18" ry="18"/>
<text text-anchor="middle" x="231.12" y="-200.2" font-family="Helvetica,sans-Serif" font-size="20.00" fill="#4d4d4d">économie</text>
</g>
<!-- nickel -->
<g id="node6" class="node">
<title>nickel</title>
<ellipse fill="#fcffa4" stroke="white" stroke-width="0" cx="402.74" cy="-63.28" rx="36" ry="36"/>
<text text-anchor="middle" x="325.74" y="-35.88" font-family="Helvetica,sans-Serif" font-size="28.00" fill="#4d4d4d">nickel</text>
</g>
<!-- ressource minière -->
<g id="node7" class="node">
<title>ressource minière</title>
<ellipse fill="#5d126e" stroke="white" stroke-width="0" cx="512.78" cy="-125.48" rx="11" ry="11"/>
<text text-anchor="middle" x="577.78" y="-141.04" font-family="Helvetica,sans-Serif" font-size="16.80" fill="#4d4d4d">ressource minière</text>
</g>
<!-- politique -->
<g id="node8" class="node">
<title>politique</title>
<ellipse fill="#932667" stroke="white" stroke-width="0" cx="309.13" cy="-272.09" rx="14.5" ry="14.5"/>
<text text-anchor="middle" x="253.63" y="-291.87" font-family="Helvetica,sans-Serif" font-size="18.40" fill="#4d4d4d">politique</text>
</g>
<!-- secteur nickel -->
<g id="node9" class="node">
<title>secteur nickel</title>
<ellipse fill="#ad305d" stroke="white" stroke-width="0" cx="464.45" cy="-289.44" rx="18" ry="18"/>
<text text-anchor="middle" x="515.95" y="-313.44" font-family="Helvetica,sans-Serif" font-size="20.00" fill="#4d4d4d">secteur nickel</text>
</g>
<!-- nature -->
<g id="node10" class="node">
<title>nature</title>
<ellipse fill="#7d1e6d" stroke="white" stroke-width="0" cx="422.41" cy="-129.57" rx="14.5" ry="14.5"/>
<text text-anchor="middle" x="467.91" y="-120.35" font-family="Helvetica,sans-Serif" font-size="18.40" fill="#4d4d4d">nature</text>
</g>
<!-- exploitation minière -->
<g id="node11" class="node">
<title>exploitation minière</title>
<ellipse fill="#71196e" stroke="white" stroke-width="0" cx="400.94" cy="-331.96" rx="11" ry="11"/>
<text text-anchor="middle" x="305.44" y="-347.52" font-family="Helvetica,sans-Serif" font-size="16.80" fill="#4d4d4d">exploitation minière</text>
</g>
<!-- alternative au développement -->
<g id="node12" class="node">
<title>alternative au développement</title>
<ellipse fill="#08051d" stroke="white" stroke-width="0" cx="212.6" cy="-31.35" rx="3.5" ry="3.5"/>
<text text-anchor="middle" x="106.1" y="-38.97" font-family="Helvetica,sans-Serif" font-size="13.60" fill="#4d4d4d">alternative au développement</text>
</g>
<!-- matériel -->
<g id="node13" class="node">
<title>matériel</title>
<ellipse fill="#88226a" stroke="white" stroke-width="0" cx="362.71" cy="-233.38" rx="14.5" ry="14.5"/>
<text text-anchor="middle" x="309.21" y="-224.16" font-family="Helvetica,sans-Serif" font-size="18.40" fill="#4d4d4d">matériel</text>
</g>
<!-- industrie -->
<g id="node14" class="node">
<title>industrie</title>
<ellipse fill="#ab2f5e" stroke="white" stroke-width="0" cx="526.54" cy="-187.78" rx="18" ry="18"/>
<text text-anchor="middle" x="552.54" y="-211.78" font-family="Helvetica,sans-Serif" font-size="20.00" fill="#4d4d4d">industrie</text>
</g>
<!-- société néo&#45;calédonienne -->
<g id="node15" class="node">
<title>société néo&#45;calédonienne</title>
<ellipse fill="#0c0826" stroke="white" stroke-width="0" cx="307.26" cy="-405.85" rx="3.5" ry="3.5"/>
<text text-anchor="middle" x="217.26" y="-413.47" font-family="Helvetica,sans-Serif" font-size="13.60" fill="#4d4d4d">société néo&#45;calédonienne</text>
</g>
<!-- foncier -->
<g id="node16" class="node">
<title>foncier</title>
<ellipse fill="#160b39" stroke="white" stroke-width="0" cx="527.32" cy="-3.5" rx="3.5" ry="3.5"/>
<text text-anchor="middle" x="500.82" y="-11.12" font-family="Helvetica,sans-Serif" font-size="13.60" fill="#4d4d4d">foncier</text>
</g>
<!-- risque -->
<g id="node17" class="node">
<title>risque</title>
<ellipse fill="#000004" stroke="white" stroke-width="0" cx="754.34" cy="-217.65" rx="0.5" ry="0.5"/>
<text text-anchor="middle" x="735.34" y="-221.55" font-family="Helvetica,sans-Serif" font-size="12.00" fill="#4d4d4d">risque</text>
</g>
<!-- échange commercial -->
<g id="node18" class="node">
<title>échange commercial</title>
<ellipse fill="#290b55" stroke="white" stroke-width="0" cx="251.9" cy="-227.89" rx="7" ry="7"/>
<text text-anchor="middle" x="165.9" y="-239.73" font-family="Helvetica,sans-Serif" font-size="15.20" fill="#4d4d4d">échange commercial</text>
</g>
<!-- relation politique -->
<g id="node19" class="node">
<title>relation politique</title>
<ellipse fill="#030210" stroke="white" stroke-width="0" cx="100.5" cy="-188.9" rx="0.5" ry="0.5"/>
<text text-anchor="middle" x="50" y="-192.8" font-family="Helvetica,sans-Serif" font-size="12.00" fill="#4d4d4d">relation politique</text>
</g>
</g>
</svg>
