<?xml version="1.0" encoding="UTF-8" standalone="no"?>
<!DOCTYPE svg PUBLIC "-//W3C//DTD SVG 1.1//EN"
 "http://www.w3.org/Graphics/SVG/1.1/DTD/svg11.dtd">
<!-- Generated by graphviz version 2.43.0 (0)
 -->
<!-- Pages: 1 -->
<svg width="954pt" height="493pt"
 viewBox="0.00 0.00 953.67 492.54" xmlns="http://www.w3.org/2000/svg" xmlns:xlink="http://www.w3.org/1999/xlink">
<g id="graph0" class="graph" transform="scale(1 1) rotate(0) translate(4 488.54)">
<polygon fill="white" stroke="transparent" points="-4,4 -4,-488.54 949.67,-488.54 949.67,4 -4,4"/>
<!-- pollution&#45;&#45;dégradation environnementale -->
<g id="edge1" class="edge">
<title>pollution&#45;&#45;dégradation environnementale</title>
<path fill="none" stroke="darkgrey" stroke-width="9.03" d="M628.49,-176.2C613.06,-183.79 589.42,-195.42 570.13,-204.9"/>
</g>
<!-- pollution&#45;&#45;nouvelle&#45;calédonie -->
<g id="edge2" class="edge">
<title>pollution&#45;&#45;nouvelle&#45;calédonie</title>
<path fill="none" stroke="darkgrey" stroke-width="1.31" d="M633.61,-153.68C614.53,-128.78 576.69,-79.41 566.98,-66.73"/>
</g>
<!-- pollution&#45;&#45;travail -->
<g id="edge3" class="edge">
<title>pollution&#45;&#45;travail</title>
<path fill="none" stroke="darkgrey" stroke-width="6.43" d="M637.78,-185.15C630.64,-202.5 619.55,-229.49 611.97,-247.93"/>
</g>
<!-- pollution&#45;&#45;économie -->
<g id="edge4" class="edge">
<title>pollution&#45;&#45;économie</title>
<path fill="none" stroke="darkgrey" stroke-width="5.27" d="M660.3,-177.3C668.62,-182.17 678.85,-188.15 687.18,-193.02"/>
</g>
<!-- pollution&#45;&#45;nickel -->
<g id="edge5" class="edge">
<title>pollution&#45;&#45;nickel</title>
<path fill="none" stroke="darkgrey" stroke-width="5.18" d="M655.73,-182.54C665.69,-195.54 680.67,-215.09 693.08,-231.28"/>
</g>
<!-- pollution&#45;&#45;ressource minière -->
<g id="edge6" class="edge">
<title>pollution&#45;&#45;ressource minière</title>
<path fill="none" stroke="darkgrey" stroke-width="1.93" d="M643.31,-150.22C641.95,-133.29 639.97,-108.5 638.84,-94.35"/>
</g>
<!-- pollution&#45;&#45;politique -->
<g id="edge7" class="edge">
<title>pollution&#45;&#45;politique</title>
<path fill="none" stroke="darkgrey" stroke-width="3.06" d="M647.63,-186.19C651.48,-210.13 658.21,-252.02 661.73,-273.96"/>
</g>
<!-- pollution&#45;&#45;secteur nickel -->
<g id="edge8" class="edge">
<title>pollution&#45;&#45;secteur nickel</title>
<path fill="none" stroke="darkgrey" stroke-width="3.17" d="M662.65,-166.07C697.05,-161.97 772.01,-153.02 806.56,-148.9"/>
</g>
<!-- pollution&#45;&#45;nature -->
<g id="edge9" class="edge">
<title>pollution&#45;&#45;nature</title>
<path fill="none" stroke="darkgrey" stroke-width="3.44" d="M661.64,-161.64C685.91,-152.22 730.15,-135.02 752.53,-126.33"/>
</g>
<!-- pollution&#45;&#45;société néo&#45;calédonienne -->
<g id="edge10" class="edge">
<title>pollution&#45;&#45;société néo&#45;calédonienne</title>
<path fill="none" stroke="darkgrey" stroke-width="1.44" d="M654.69,-153.01C678.67,-116.37 738.54,-24.89 750.46,-6.68"/>
</g>
<!-- pollution&#45;&#45;exploitation minière -->
<g id="edge11" class="edge">
<title>pollution&#45;&#45;exploitation minière</title>
<path fill="none" stroke="darkgrey" stroke-width="2.11" d="M654.7,-153.04C667.73,-133.17 690.32,-98.73 702.3,-80.48"/>
</g>
<!-- pollution&#45;&#45;alternative au développement -->
<g id="edge12" class="edge">
<title>pollution&#45;&#45;alternative au développement</title>
<path fill="none" stroke="darkgrey" stroke-width="1.8" d="M658.76,-179.73C703.99,-216.89 844.36,-332.24 866.02,-350.03"/>
</g>
<!-- pollution&#45;&#45;matériel -->
<g id="edge13" class="edge">
<title>pollution&#45;&#45;matériel</title>
<path fill="none" stroke="darkgrey" stroke-width="2.72" d="M662.44,-171.92C701.42,-180.1 794.05,-199.54 829.75,-207.03"/>
</g>
<!-- pollution&#45;&#45;foncier -->
<g id="edge14" class="edge">
<title>pollution&#45;&#45;foncier</title>
<path fill="none" stroke="darkgrey" stroke-width="1.01" d="M654.46,-183.36C682.67,-227.33 763.71,-353.67 782.32,-382.68"/>
</g>
<!-- pollution&#45;&#45;industrie -->
<g id="edge15" class="edge">
<title>pollution&#45;&#45;industrie</title>
<path fill="none" stroke="darkgrey" stroke-width="2.75" d="M660.41,-177.47C689.49,-194.67 751.49,-231.34 780.68,-248.6"/>
</g>
<!-- pollution&#45;&#45;échange commercial -->
<g id="edge16" class="edge">
<title>pollution&#45;&#45;échange commercial</title>
<path fill="none" stroke="darkgrey" stroke-width="1.07" d="M649.01,-185.84C658.84,-226.5 682.75,-325.38 689.28,-352.38"/>
</g>
<!-- dégradation environnementale&#45;&#45;nouvelle&#45;calédonie -->
<g id="edge17" class="edge">
<title>dégradation environnementale&#45;&#45;nouvelle&#45;calédonie</title>
<path fill="none" stroke="darkgrey" stroke-width="1.56" d="M543.86,-185.18C550.74,-144.98 561.33,-83.16 564.02,-67.44"/>
</g>
<!-- dégradation environnementale&#45;&#45;travail -->
<g id="edge18" class="edge">
<title>dégradation environnementale&#45;&#45;travail</title>
<path fill="none" stroke="darkgrey" stroke-width="8.08" d="M567.25,-241.95C573.7,-246.57 580.32,-251.32 586.13,-255.47"/>
</g>
<!-- dégradation environnementale&#45;&#45;économie -->
<g id="edge19" class="edge">
<title>dégradation environnementale&#45;&#45;économie</title>
<path fill="none" stroke="darkgrey" stroke-width="7.44" d="M573.56,-216.77C607.87,-212.89 658.26,-207.18 684.84,-204.17"/>
</g>
<!-- dégradation environnementale&#45;&#45;nickel -->
<g id="edge20" class="edge">
<title>dégradation environnementale&#45;&#45;nickel</title>
<path fill="none" stroke="darkgrey" stroke-width="10" d="M573.2,-228.65C604.12,-235.47 648.74,-245.31 679.65,-252.12"/>
</g>
<!-- dégradation environnementale&#45;&#45;ressource minière -->
<g id="edge21" class="edge">
<title>dégradation environnementale&#45;&#45;ressource minière</title>
<path fill="none" stroke="darkgrey" stroke-width="4.26" d="M559,-191.68C581.87,-160.32 616.89,-112.27 631.36,-92.43"/>
</g>
<!-- dégradation environnementale&#45;&#45;politique -->
<g id="edge22" class="edge">
<title>dégradation environnementale&#45;&#45;politique</title>
<path fill="none" stroke="darkgrey" stroke-width="4.53" d="M569.62,-237.85C595.92,-251.9 631.91,-271.13 650.96,-281.31"/>
</g>
<!-- dégradation environnementale&#45;&#45;secteur nickel -->
<g id="edge23" class="edge">
<title>dégradation environnementale&#45;&#45;secteur nickel</title>
<path fill="none" stroke="darkgrey" stroke-width="4.62" d="M572.64,-211.82C634.32,-195.89 760.48,-163.31 806.96,-151.31"/>
</g>
<!-- dégradation environnementale&#45;&#45;nature -->
<g id="edge24" class="edge">
<title>dégradation environnementale&#45;&#45;nature</title>
<path fill="none" stroke="darkgrey" stroke-width="5.24" d="M570.98,-206.31C622.11,-183.97 717.83,-142.15 752.93,-126.82"/>
</g>
<!-- dégradation environnementale&#45;&#45;société néo&#45;calédonienne -->
<g id="edge26" class="edge">
<title>dégradation environnementale&#45;&#45;société néo&#45;calédonienne</title>
<path fill="none" stroke="darkgrey" stroke-width="1.94" d="M563.23,-195.05C615.24,-142.42 730.34,-25.96 749.74,-6.33"/>
</g>
<!-- dégradation environnementale&#45;&#45;exploitation minière -->
<g id="edge27" class="edge">
<title>dégradation environnementale&#45;&#45;exploitation minière</title>
<path fill="none" stroke="darkgrey" stroke-width="3.97" d="M565.09,-196.66C603.66,-162.56 672.36,-101.84 699.14,-78.15"/>
</g>
<!-- dégradation environnementale&#45;&#45;alternative au développement -->
<g id="edge28" class="edge">
<title>dégradation environnementale&#45;&#45;alternative au développement</title>
<path fill="none" stroke="darkgrey" stroke-width="2.16" d="M571.32,-234.16C649.24,-265.12 837.88,-340.05 865.45,-351.01"/>
</g>
<!-- dégradation environnementale&#45;&#45;matériel -->
<g id="edge29" class="edge">
<title>dégradation environnementale&#45;&#45;matériel</title>
<path fill="none" stroke="darkgrey" stroke-width="4.41" d="M573.79,-219.56C641.18,-217.19 783.57,-212.17 829.5,-210.56"/>
</g>
<!-- dégradation environnementale&#45;&#45;foncier -->
<g id="edge30" class="edge">
<title>dégradation environnementale&#45;&#45;foncier</title>
<path fill="none" stroke="darkgrey" stroke-width="2.23" d="M567.71,-241.07C626.04,-280.48 751.63,-365.34 780.27,-384.68"/>
</g>
<!-- dégradation environnementale&#45;&#45;industrie -->
<g id="edge32" class="edge">
<title>dégradation environnementale&#45;&#45;industrie</title>
<path fill="none" stroke="darkgrey" stroke-width="3.94" d="M573.45,-225.95C629.46,-233.99 735.95,-249.27 778.38,-255.35"/>
</g>
<!-- dégradation environnementale&#45;&#45;échange commercial -->
<g id="edge34" class="edge">
<title>dégradation environnementale&#45;&#45;échange commercial</title>
<path fill="none" stroke="darkgrey" stroke-width="2.24" d="M564.79,-245.27C601.9,-278.81 666.2,-336.93 685.39,-354.27"/>
</g>
<!-- dégradation environnementale&#45;&#45;amélioration environnementale -->
<g id="edge25" class="edge">
<title>dégradation environnementale&#45;&#45;amélioration environnementale</title>
<path fill="none" stroke="darkgrey" stroke-width="1.25" d="M504.36,-207C419.92,-172.02 203.59,-82.41 190.16,-76.84"/>
</g>
<!-- dégradation environnementale&#45;&#45;relation politique -->
<g id="edge31" class="edge">
<title>dégradation environnementale&#45;&#45;relation politique</title>
<path fill="none" stroke="darkgrey" stroke-width="1.28" d="M538.48,-257.01C539.73,-318.82 542.19,-440.27 542.64,-462.5"/>
</g>
<!-- dégradation environnementale&#45;&#45;risque -->
<g id="edge33" class="edge">
<title>dégradation environnementale&#45;&#45;risque</title>
<path fill="none" stroke="darkgrey" stroke-width="1.64" d="M511.15,-245.81C461.76,-292.17 359.21,-388.46 340.41,-406.11"/>
</g>
<!-- dégradation environnementale&#45;&#45;avenir sans nickel -->
<g id="edge35" class="edge">
<title>dégradation environnementale&#45;&#45;avenir sans nickel</title>
<path fill="none" stroke="darkgrey" d="M501.46,-221.1C403.84,-221.82 141.85,-223.77 125.58,-223.89"/>
</g>
<!-- nouvelle&#45;calédonie&#45;&#45;travail -->
<g id="edge36" class="edge">
<title>nouvelle&#45;calédonie&#45;&#45;travail</title>
<path fill="none" stroke="darkgrey" stroke-width="1.65" d="M565.34,-67.26C569.4,-88.51 590.63,-199.64 599.64,-246.83"/>
</g>
<!-- nouvelle&#45;calédonie&#45;&#45;économie -->
<g id="edge37" class="edge">
<title>nouvelle&#45;calédonie&#45;&#45;économie</title>
<path fill="none" stroke="darkgrey" stroke-width="1.42" d="M567.55,-66.6C583.27,-82.37 659.09,-158.36 689.81,-189.14"/>
</g>
<!-- nouvelle&#45;calédonie&#45;&#45;nickel -->
<g id="edge38" class="edge">
<title>nouvelle&#45;calédonie&#45;&#45;nickel</title>
<path fill="none" stroke="darkgrey" stroke-width="2.67" d="M567.02,-66.79C581.19,-85.27 655.48,-182.22 693.13,-231.34"/>
</g>
<!-- nouvelle&#45;calédonie&#45;&#45;ressource minière -->
<g id="edge39" class="edge">
<title>nouvelle&#45;calédonie&#45;&#45;ressource minière</title>
<path fill="none" stroke="darkgrey" stroke-width="1.31" d="M568.2,-64.66C578.78,-67.5 610.5,-76.01 627.28,-80.51"/>
</g>
<!-- nouvelle&#45;calédonie&#45;&#45;politique -->
<g id="edge40" class="edge">
<title>nouvelle&#45;calédonie&#45;&#45;politique</title>
<path fill="none" stroke="darkgrey" stroke-width="1.89" d="M566.22,-67.24C576.84,-91.23 638.61,-230.84 658.13,-274.94"/>
</g>
<!-- nouvelle&#45;calédonie&#45;&#45;secteur nickel -->
<g id="edge41" class="edge">
<title>nouvelle&#45;calédonie&#45;&#45;secteur nickel</title>
<path fill="none" stroke="darkgrey" stroke-width="1.6" d="M568.34,-64.89C594.57,-73.26 753.87,-124.13 807.25,-141.17"/>
</g>
<!-- nouvelle&#45;calédonie&#45;&#45;nature -->
<g id="edge42" class="edge">
<title>nouvelle&#45;calédonie&#45;&#45;nature</title>
<path fill="none" stroke="darkgrey" stroke-width="1.08" d="M568.16,-64.71C590.23,-70.97 710.51,-105.14 752.11,-116.96"/>
</g>
<!-- nouvelle&#45;calédonie&#45;&#45;exploitation minière -->
<g id="edge43" class="edge">
<title>nouvelle&#45;calédonie&#45;&#45;exploitation minière</title>
<path fill="none" stroke="darkgrey" stroke-width="1.09" d="M568.26,-63.83C585.78,-64.38 662.61,-66.81 695.38,-67.84"/>
</g>
<!-- nouvelle&#45;calédonie&#45;&#45;industrie -->
<g id="edge44" class="edge">
<title>nouvelle&#45;calédonie&#45;&#45;industrie</title>
<path fill="none" stroke="darkgrey" stroke-width="1.36" d="M567.59,-66.17C590.13,-85.05 736.26,-207.49 782.49,-246.22"/>
</g>
<!-- travail&#45;&#45;économie -->
<g id="edge45" class="edge">
<title>travail&#45;&#45;économie</title>
<path fill="none" stroke="darkgrey" stroke-width="6.97" d="M621.87,-255.96C640.75,-243.4 669.96,-223.97 687.64,-212.21"/>
</g>
<!-- travail&#45;&#45;nickel -->
<g id="edge46" class="edge">
<title>travail&#45;&#45;nickel</title>
<path fill="none" stroke="darkgrey" stroke-width="8.17" d="M625.16,-266.49C640.33,-265.38 661.02,-263.87 678.73,-262.58"/>
</g>
<!-- travail&#45;&#45;ressource minière -->
<g id="edge47" class="edge">
<title>travail&#45;&#45;ressource minière</title>
<path fill="none" stroke="darkgrey" stroke-width="3.34" d="M607.62,-246.87C614.94,-207.46 630.39,-124.16 635.93,-94.31"/>
</g>
<!-- travail&#45;&#45;politique -->
<g id="edge48" class="edge">
<title>travail&#45;&#45;politique</title>
<path fill="none" stroke="darkgrey" stroke-width="4.2" d="M624.12,-274.9C632.74,-277.79 642.54,-281.08 650.27,-283.67"/>
</g>
<!-- travail&#45;&#45;secteur nickel -->
<g id="edge49" class="edge">
<title>travail&#45;&#45;secteur nickel</title>
<path fill="none" stroke="darkgrey" stroke-width="4.86" d="M622.92,-257.5C665.86,-233.92 768.94,-177.33 808.67,-155.52"/>
</g>
<!-- travail&#45;&#45;nature -->
<g id="edge50" class="edge">
<title>travail&#45;&#45;nature</title>
<path fill="none" stroke="darkgrey" stroke-width="3.57" d="M619.88,-253.41C652.97,-223.48 727.6,-155.97 755.49,-130.74"/>
</g>
<!-- travail&#45;&#45;société néo&#45;calédonienne -->
<g id="edge51" class="edge">
<title>travail&#45;&#45;société néo&#45;calédonienne</title>
<path fill="none" stroke="darkgrey" stroke-width="1.78" d="M614.4,-249.03C645.86,-193.11 736.71,-31.63 750.72,-6.74"/>
</g>
<!-- travail&#45;&#45;exploitation minière -->
<g id="edge52" class="edge">
<title>travail&#45;&#45;exploitation minière</title>
<path fill="none" stroke="darkgrey" stroke-width="3.34" d="M613.91,-248.9C635.48,-208.48 685.18,-115.35 703.41,-81.18"/>
</g>
<!-- travail&#45;&#45;alternative au développement -->
<g id="edge53" class="edge">
<title>travail&#45;&#45;alternative au développement</title>
<path fill="none" stroke="darkgrey" stroke-width="1.33" d="M624.5,-274.67C681.88,-292.91 839.81,-343.12 865.33,-351.24"/>
</g>
<!-- travail&#45;&#45;matériel -->
<g id="edge54" class="edge">
<title>travail&#45;&#45;matériel</title>
<path fill="none" stroke="darkgrey" stroke-width="3.66" d="M624.61,-263.01C672.48,-251.46 789.01,-223.34 829.76,-213.51"/>
</g>
<!-- travail&#45;&#45;foncier -->
<g id="edge55" class="edge">
<title>travail&#45;&#45;foncier</title>
<path fill="none" stroke="darkgrey" stroke-width="1.51" d="M621.86,-280.06C661.7,-306.4 755.2,-368.2 780.02,-384.61"/>
</g>
<!-- travail&#45;&#45;industrie -->
<g id="edge57" class="edge">
<title>travail&#45;&#45;industrie</title>
<path fill="none" stroke="darkgrey" stroke-width="3.98" d="M625.44,-266.91C663.74,-264.91 742.58,-260.78 778.25,-258.91"/>
</g>
<!-- travail&#45;&#45;échange commercial -->
<g id="edge59" class="edge">
<title>travail&#45;&#45;échange commercial</title>
<path fill="none" stroke="darkgrey" stroke-width="1.9" d="M618.89,-283.95C639.01,-304.98 673.41,-340.95 686.08,-354.2"/>
</g>
<!-- travail&#45;&#45;relation politique -->
<g id="edge56" class="edge">
<title>travail&#45;&#45;relation politique</title>
<path fill="none" stroke="darkgrey" stroke-width="1.19" d="M597.28,-288.87C583.15,-334.73 550.09,-442.08 543.76,-462.61"/>
</g>
<!-- travail&#45;&#45;risque -->
<g id="edge58" class="edge">
<title>travail&#45;&#45;risque</title>
<path fill="none" stroke="darkgrey" stroke-width="1.78" d="M584.54,-278.18C528.26,-307.96 365.73,-393.94 340.68,-407.19"/>
</g>
<!-- économie&#45;&#45;nickel -->
<g id="edge60" class="edge">
<title>économie&#45;&#45;nickel</title>
<path fill="none" stroke="darkgrey" stroke-width="6.35" d="M706.52,-219.79C706.86,-221.38 707.21,-223.03 707.56,-224.71"/>
</g>
<!-- économie&#45;&#45;ressource minière -->
<g id="edge61" class="edge">
<title>économie&#45;&#45;ressource minière</title>
<path fill="none" stroke="darkgrey" stroke-width="2.27" d="M694.03,-186.12C680.42,-161.18 654.55,-113.78 643.35,-93.26"/>
</g>
<!-- économie&#45;&#45;politique -->
<g id="edge62" class="edge">
<title>économie&#45;&#45;politique</title>
<path fill="none" stroke="darkgrey" stroke-width="4.68" d="M695.31,-218.75C687.96,-235.08 676.89,-259.7 670.08,-274.84"/>
</g>
<!-- économie&#45;&#45;secteur nickel -->
<g id="edge63" class="edge">
<title>économie&#45;&#45;secteur nickel</title>
<path fill="none" stroke="darkgrey" stroke-width="3.65" d="M719.21,-194.67C742.48,-184.09 784.76,-164.87 808.1,-154.27"/>
</g>
<!-- économie&#45;&#45;nature -->
<g id="edge64" class="edge">
<title>économie&#45;&#45;nature</title>
<path fill="none" stroke="darkgrey" stroke-width="2.75" d="M714.13,-187.63C726.47,-171.86 745.95,-146.97 757.28,-132.49"/>
</g>
<!-- économie&#45;&#45;société néo&#45;calédonienne -->
<g id="edge65" class="edge">
<title>économie&#45;&#45;société néo&#45;calédonienne</title>
<path fill="none" stroke="darkgrey" stroke-width="1.41" d="M707.19,-184.51C718.18,-140.64 746.26,-28.56 751.64,-7.09"/>
</g>
<!-- économie&#45;&#45;exploitation minière -->
<g id="edge66" class="edge">
<title>économie&#45;&#45;exploitation minière</title>
<path fill="none" stroke="darkgrey" stroke-width="1.99" d="M703.79,-184.09C705.29,-157.27 708.09,-107.4 709.46,-82.8"/>
</g>
<!-- économie&#45;&#45;alternative au développement -->
<g id="edge67" class="edge">
<title>économie&#45;&#45;alternative au développement</title>
<path fill="none" stroke="darkgrey" stroke-width="1.43" d="M716.36,-214.43C752.31,-246.94 848.33,-333.8 866.02,-349.8"/>
</g>
<!-- économie&#45;&#45;matériel -->
<g id="edge68" class="edge">
<title>économie&#45;&#45;matériel</title>
<path fill="none" stroke="darkgrey" stroke-width="2.19" d="M720.96,-203.16C749.3,-204.74 803.41,-207.77 829.43,-209.22"/>
</g>
<!-- économie&#45;&#45;foncier -->
<g id="edge69" class="edge">
<title>économie&#45;&#45;foncier</title>
<path fill="none" stroke="darkgrey" stroke-width="1.13" d="M710.17,-218.69C727.79,-258.1 771.62,-356.14 783.27,-382.21"/>
</g>
<!-- économie&#45;&#45;industrie -->
<g id="edge71" class="edge">
<title>économie&#45;&#45;industrie</title>
<path fill="none" stroke="darkgrey" stroke-width="2.6" d="M718.25,-211.36C735.61,-221.7 763.62,-238.38 780.99,-248.72"/>
</g>
<!-- économie&#45;&#45;échange commercial -->
<g id="edge72" class="edge">
<title>économie&#45;&#45;échange commercial</title>
<path fill="none" stroke="darkgrey" stroke-width="1.6" d="M701.42,-220.17C698.82,-254.68 693.25,-328.71 691.5,-352.08"/>
</g>
<!-- économie&#45;&#45;relation politique -->
<g id="edge70" class="edge">
<title>économie&#45;&#45;relation politique</title>
<path fill="none" stroke="darkgrey" stroke-width="1.28" d="M693.24,-217.86C661.34,-270.45 559.49,-438.37 544.54,-463.01"/>
</g>
<!-- nickel&#45;&#45;ressource minière -->
<g id="edge73" class="edge">
<title>nickel&#45;&#45;ressource minière</title>
<path fill="none" stroke="darkgrey" stroke-width="5.23" d="M700.54,-226.72C682.75,-185.97 653.57,-119.14 642.45,-93.68"/>
</g>
<!-- nickel&#45;&#45;politique -->
<g id="edge74" class="edge">
<title>nickel&#45;&#45;politique</title>
<path fill="none" stroke="darkgrey" stroke-width="3.34" d="M683.31,-277.56C681.05,-278.83 678.85,-280.05 676.8,-281.19"/>
</g>
<!-- nickel&#45;&#45;secteur nickel -->
<g id="edge75" class="edge">
<title>nickel&#45;&#45;secteur nickel</title>
<path fill="none" stroke="darkgrey" stroke-width="6.42" d="M740.19,-233.96C762.57,-210.85 794.38,-178 811.89,-159.93"/>
</g>
<!-- nickel&#45;&#45;nature -->
<g id="edge76" class="edge">
<title>nickel&#45;&#45;nature</title>
<path fill="none" stroke="darkgrey" stroke-width="5.56" d="M727.57,-225.94C738.36,-196.69 753.37,-155.99 761.15,-134.89"/>
</g>
<!-- nickel&#45;&#45;société néo&#45;calédonienne -->
<g id="edge77" class="edge">
<title>nickel&#45;&#45;société néo&#45;calédonienne</title>
<path fill="none" stroke="darkgrey" stroke-width="1.03" d="M720.25,-224.27C729.63,-160.14 748.68,-29.86 752.03,-6.97"/>
</g>
<!-- nickel&#45;&#45;exploitation minière -->
<g id="edge78" class="edge">
<title>nickel&#45;&#45;exploitation minière</title>
<path fill="none" stroke="darkgrey" stroke-width="7.09" d="M714.14,-223.88C713.09,-181.39 711.38,-112.77 710.64,-82.94"/>
</g>
<!-- nickel&#45;&#45;alternative au développement -->
<g id="edge79" class="edge">
<title>nickel&#45;&#45;alternative au développement</title>
<path fill="none" stroke="darkgrey" stroke-width="1.67" d="M746.16,-278.63C785.83,-302.47 851.07,-341.67 865.81,-350.53"/>
</g>
<!-- nickel&#45;&#45;matériel -->
<g id="edge80" class="edge">
<title>nickel&#45;&#45;matériel</title>
<path fill="none" stroke="darkgrey" stroke-width="5.64" d="M748.95,-246.82C775.54,-236.54 811.16,-222.78 830.4,-215.34"/>
</g>
<!-- nickel&#45;&#45;foncier -->
<g id="edge81" class="edge">
<title>nickel&#45;&#45;foncier</title>
<path fill="none" stroke="darkgrey" stroke-width="2.31" d="M732.62,-291.75C749.57,-322.43 773.91,-366.49 782.77,-382.53"/>
</g>
<!-- nickel&#45;&#45;industrie -->
<g id="edge83" class="edge">
<title>nickel&#45;&#45;industrie</title>
<path fill="none" stroke="darkgrey" stroke-width="8.01" d="M751.47,-259.04C760.79,-258.82 770.42,-258.58 778.36,-258.39"/>
</g>
<!-- nickel&#45;&#45;échange commercial -->
<g id="edge84" class="edge">
<title>nickel&#45;&#45;échange commercial</title>
<path fill="none" stroke="darkgrey" stroke-width="3.06" d="M706.55,-294.96C701.51,-315.75 695.56,-340.29 692.68,-352.16"/>
</g>
<!-- nickel&#45;&#45;relation politique -->
<g id="edge82" class="edge">
<title>nickel&#45;&#45;relation politique</title>
<path fill="none" stroke="darkgrey" stroke-width="1.28" d="M691.8,-287.72C649.17,-338.71 561.36,-443.73 545.27,-462.97"/>
</g>
<!-- ressource minière&#45;&#45;politique -->
<g id="edge85" class="edge">
<title>ressource minière&#45;&#45;politique</title>
<path fill="none" stroke="darkgrey" stroke-width="2.85" d="M639.36,-94.4C643.75,-128.89 657.23,-234.85 662.18,-273.76"/>
</g>
<!-- ressource minière&#45;&#45;secteur nickel -->
<g id="edge86" class="edge">
<title>ressource minière&#45;&#45;secteur nickel</title>
<path fill="none" stroke="darkgrey" stroke-width="2.07" d="M648.53,-86.97C679.39,-97.44 769.53,-128.03 807.5,-140.91"/>
</g>
<!-- ressource minière&#45;&#45;nature -->
<g id="edge87" class="edge">
<title>ressource minière&#45;&#45;nature</title>
<path fill="none" stroke="darkgrey" stroke-width="1.84" d="M648.9,-86.59C672.17,-93.41 726.56,-109.35 752.3,-116.89"/>
</g>
<!-- ressource minière&#45;&#45;exploitation minière -->
<g id="edge88" class="edge">
<title>ressource minière&#45;&#45;exploitation minière</title>
<path fill="none" stroke="darkgrey" stroke-width="2.36" d="M648.94,-81.09C661.51,-78.47 682.12,-74.18 695.94,-71.3"/>
</g>
<!-- ressource minière&#45;&#45;matériel -->
<g id="edge89" class="edge">
<title>ressource minière&#45;&#45;matériel</title>
<path fill="none" stroke="darkgrey" stroke-width="1.87" d="M647.35,-89.15C680.75,-109.67 793.77,-179.11 831.64,-202.37"/>
</g>
<!-- ressource minière&#45;&#45;industrie -->
<g id="edge90" class="edge">
<title>ressource minière&#45;&#45;industrie</title>
<path fill="none" stroke="darkgrey" stroke-width="2.46" d="M645.6,-91.8C671.09,-119.86 753.26,-210.35 784.39,-244.62"/>
</g>
<!-- ressource minière&#45;&#45;échange commercial -->
<g id="edge91" class="edge">
<title>ressource minière&#45;&#45;échange commercial</title>
<path fill="none" stroke="darkgrey" stroke-width="1.56" d="M640.04,-94.2C648.76,-139.63 682.33,-314.42 689.57,-352.11"/>
</g>
<!-- politique&#45;&#45;secteur nickel -->
<g id="edge92" class="edge">
<title>politique&#45;&#45;secteur nickel</title>
<path fill="none" stroke="darkgrey" stroke-width="3.27" d="M675.07,-278.56C703.57,-253.45 779.54,-186.5 810.86,-158.9"/>
</g>
<!-- politique&#45;&#45;nature -->
<g id="edge93" class="edge">
<title>politique&#45;&#45;nature</title>
<path fill="none" stroke="darkgrey" stroke-width="1.59" d="M671.72,-275.71C690.67,-244.71 739.46,-164.86 758.5,-133.71"/>
</g>
<!-- politique&#45;&#45;société néo&#45;calédonienne -->
<g id="edge94" class="edge">
<title>politique&#45;&#45;société néo&#45;calédonienne</title>
<path fill="none" stroke="darkgrey" stroke-width="1.42" d="M668.42,-274.16C684.95,-220.96 742.97,-34.29 751.49,-6.87"/>
</g>
<!-- politique&#45;&#45;exploitation minière -->
<g id="edge95" class="edge">
<title>politique&#45;&#45;exploitation minière</title>
<path fill="none" stroke="darkgrey" stroke-width="1.85" d="M667.07,-273.85C675.47,-233.9 698.95,-122.19 707.29,-82.51"/>
</g>
<!-- politique&#45;&#45;alternative au développement -->
<g id="edge96" class="edge">
<title>politique&#45;&#45;alternative au développement</title>
<path fill="none" stroke="darkgrey" stroke-width="1.47" d="M678.11,-292.69C720.04,-305.81 842.61,-344.15 865.23,-351.22"/>
</g>
<!-- politique&#45;&#45;matériel -->
<g id="edge97" class="edge">
<title>politique&#45;&#45;matériel</title>
<path fill="none" stroke="darkgrey" stroke-width="1.41" d="M677.57,-282.4C710.94,-267.9 796.89,-230.56 830.42,-215.99"/>
</g>
<!-- politique&#45;&#45;foncier -->
<g id="edge98" class="edge">
<title>politique&#45;&#45;foncier</title>
<path fill="none" stroke="darkgrey" stroke-width="1.16" d="M675.3,-297.55C700.69,-318.42 761.63,-368.5 780.49,-384.01"/>
</g>
<!-- politique&#45;&#45;industrie -->
<g id="edge100" class="edge">
<title>politique&#45;&#45;industrie</title>
<path fill="none" stroke="darkgrey" stroke-width="2.76" d="M678.21,-285.04C702.5,-279.48 752.04,-268.13 778.64,-262.04"/>
</g>
<!-- politique&#45;&#45;échange commercial -->
<g id="edge101" class="edge">
<title>politique&#45;&#45;échange commercial</title>
<path fill="none" stroke="darkgrey" stroke-width="1.49" d="M669.22,-301.98C674.97,-317.13 683.99,-340.94 688.38,-352.52"/>
</g>
<!-- politique&#45;&#45;relation politique -->
<g id="edge99" class="edge">
<title>politique&#45;&#45;relation politique</title>
<path fill="none" stroke="darkgrey" stroke-width="1.63" d="M655.69,-300.5C630.85,-336.9 558.24,-443.28 544.84,-462.9"/>
</g>
<!-- secteur nickel&#45;&#45;nature -->
<g id="edge102" class="edge">
<title>secteur nickel&#45;&#45;nature</title>
<path fill="none" stroke="darkgrey" stroke-width="2.16" d="M808.09,-139.43C799.05,-135.44 788.02,-130.58 779.56,-126.84"/>
</g>
<!-- secteur nickel&#45;&#45;société néo&#45;calédonienne -->
<g id="edge103" class="edge">
<title>secteur nickel&#45;&#45;société néo&#45;calédonienne</title>
<path fill="none" stroke="darkgrey" stroke-width="1.37" d="M816.53,-130.58C799.88,-97.51 762.76,-23.79 754.28,-6.96"/>
</g>
<!-- secteur nickel&#45;&#45;exploitation minière -->
<g id="edge104" class="edge">
<title>secteur nickel&#45;&#45;exploitation minière</title>
<path fill="none" stroke="darkgrey" stroke-width="2.4" d="M809.71,-136.48C786.82,-120.79 743.53,-91.11 722.44,-76.65"/>
</g>
<!-- secteur nickel&#45;&#45;alternative au développement -->
<g id="edge105" class="edge">
<title>secteur nickel&#45;&#45;alternative au développement</title>
<path fill="none" stroke="darkgrey" stroke-width="1.13" d="M828.51,-164.62C838.25,-209.96 863.46,-327.3 868.1,-348.91"/>
</g>
<!-- secteur nickel&#45;&#45;matériel -->
<g id="edge106" class="edge">
<title>secteur nickel&#45;&#45;matériel</title>
<path fill="none" stroke="darkgrey" stroke-width="2.84" d="M829.98,-164.03C833.09,-174.14 836.95,-186.72 839.85,-196.17"/>
</g>
<!-- secteur nickel&#45;&#45;foncier -->
<g id="edge107" class="edge">
<title>secteur nickel&#45;&#45;foncier</title>
<path fill="none" stroke="darkgrey" stroke-width="1.84" d="M821.83,-164.53C814.05,-213.41 792.58,-348.36 787.33,-381.33"/>
</g>
<!-- secteur nickel&#45;&#45;industrie -->
<g id="edge108" class="edge">
<title>secteur nickel&#45;&#45;industrie</title>
<path fill="none" stroke="darkgrey" stroke-width="5.05" d="M820.14,-164.6C814.85,-185.48 806.16,-219.8 800.91,-240.49"/>
</g>
<!-- secteur nickel&#45;&#45;échange commercial -->
<g id="edge109" class="edge">
<title>secteur nickel&#45;&#45;échange commercial</title>
<path fill="none" stroke="darkgrey" stroke-width="2.05" d="M815.05,-162.02C788.1,-204.86 712.66,-324.79 694.78,-353.2"/>
</g>
<!-- nature&#45;&#45;société néo&#45;calédonienne -->
<g id="edge110" class="edge">
<title>nature&#45;&#45;société néo&#45;calédonienne</title>
<path fill="none" stroke="darkgrey" stroke-width="1.48" d="M764.59,-106.58C761.41,-79.37 754.68,-21.84 752.95,-7.03"/>
</g>
<!-- nature&#45;&#45;exploitation minière -->
<g id="edge111" class="edge">
<title>nature&#45;&#45;exploitation minière</title>
<path fill="none" stroke="darkgrey" stroke-width="1.69" d="M755.48,-110.83C745.56,-101.5 730.95,-87.75 721.04,-78.44"/>
</g>
<!-- nature&#45;&#45;matériel -->
<g id="edge112" class="edge">
<title>nature&#45;&#45;matériel</title>
<path fill="none" stroke="darkgrey" stroke-width="3.21" d="M775.82,-131.91C790.76,-149 819.51,-181.89 834.49,-199.03"/>
</g>
<!-- nature&#45;&#45;foncier -->
<g id="edge113" class="edge">
<title>nature&#45;&#45;foncier</title>
<path fill="none" stroke="darkgrey" stroke-width="1.45" d="M767.38,-135.76C771.07,-185.52 782.98,-345.89 785.63,-381.58"/>
</g>
<!-- nature&#45;&#45;industrie -->
<g id="edge114" class="edge">
<title>nature&#45;&#45;industrie</title>
<path fill="none" stroke="darkgrey" stroke-width="2.52" d="M769.45,-135.38C775.03,-160.66 786.56,-212.92 792.6,-240.32"/>
</g>
<!-- nature&#45;&#45;échange commercial -->
<g id="edge115" class="edge">
<title>nature&#45;&#45;échange commercial</title>
<path fill="none" stroke="darkgrey" stroke-width="1.23" d="M761.9,-134.83C747.71,-179.73 703.28,-320.29 693.06,-352.62"/>
</g>
<!-- société néo&#45;calédonienne&#45;&#45;matériel -->
<g id="edge116" class="edge">
<title>société néo&#45;calédonienne&#45;&#45;matériel</title>
<path fill="none" stroke="darkgrey" stroke-width="1.41" d="M753.98,-6.74C763.67,-28.61 819.64,-154.83 838.16,-196.61"/>
</g>
<!-- exploitation minière&#45;&#45;matériel -->
<g id="edge117" class="edge">
<title>exploitation minière&#45;&#45;matériel</title>
<path fill="none" stroke="darkgrey" stroke-width="2.61" d="M720.34,-78.96C745.14,-105.23 809.01,-172.87 833.94,-199.27"/>
</g>
<!-- exploitation minière&#45;&#45;industrie -->
<g id="edge118" class="edge">
<title>exploitation minière&#45;&#45;industrie</title>
<path fill="none" stroke="darkgrey" stroke-width="3.02" d="M716.34,-81.65C731.71,-115.45 772.17,-204.45 788.99,-241.45"/>
</g>
<!-- exploitation minière&#45;&#45;échange commercial -->
<g id="edge119" class="edge">
<title>exploitation minière&#45;&#45;échange commercial</title>
<path fill="none" stroke="darkgrey" stroke-width="1.76" d="M709.29,-83.14C705.78,-135.95 693.98,-313.74 691.44,-352"/>
</g>
<!-- alternative au développement&#45;&#45;industrie -->
<g id="edge120" class="edge">
<title>alternative au développement&#45;&#45;industrie</title>
<path fill="none" stroke="darkgrey" stroke-width="1.15" d="M866.43,-349.21C857.36,-337.37 824.87,-294.99 807.55,-272.39"/>
</g>
<!-- matériel&#45;&#45;foncier -->
<g id="edge121" class="edge">
<title>matériel&#45;&#45;foncier</title>
<path fill="none" stroke="darkgrey" stroke-width="1.54" d="M839.57,-224.06C827.83,-260.25 796.82,-355.8 788.33,-381.96"/>
</g>
<!-- matériel&#45;&#45;industrie -->
<g id="edge122" class="edge">
<title>matériel&#45;&#45;industrie</title>
<path fill="none" stroke="darkgrey" stroke-width="3.96" d="M833.55,-220.67C826.42,-227.84 816.98,-237.34 809.41,-244.96"/>
</g>
<!-- matériel&#45;&#45;échange commercial -->
<g id="edge123" class="edge">
<title>matériel&#45;&#45;échange commercial</title>
<path fill="none" stroke="darkgrey" stroke-width="1.68" d="M833.59,-220.3C803.58,-249.54 718.35,-332.59 696.24,-354.14"/>
</g>
<!-- foncier&#45;&#45;industrie -->
<g id="edge124" class="edge">
<title>foncier&#45;&#45;industrie</title>
<path fill="none" stroke="darkgrey" stroke-width="1.91" d="M786.71,-381.64C788.27,-361.91 792.73,-305.56 795.05,-276.21"/>
</g>
<!-- industrie&#45;&#45;échange commercial -->
<g id="edge126" class="edge">
<title>industrie&#45;&#45;échange commercial</title>
<path fill="none" stroke="darkgrey" stroke-width="1.78" d="M783.12,-270.79C759.61,-293.37 711.83,-339.25 696.1,-354.35"/>
</g>
<!-- relation politique&#45;&#45;échange commercial -->
<g id="edge125" class="edge">
<title>relation politique&#45;&#45;échange commercial</title>
<path fill="none" stroke="darkgrey" stroke-width="1.1" d="M545.8,-463.81C564.35,-450.46 660.72,-381.06 685.26,-363.39"/>
</g>
<!-- pollution -->
<g id="node1" class="node">
<title>pollution</title>
<ellipse fill="#ab2f5e" stroke="white" stroke-width="0" cx="644.74" cy="-168.21" rx="18" ry="18"/>
<text text-anchor="middle" x="583.74" y="-156.21" font-family="Helvetica,sans-Serif" font-size="20.00" fill="#4d4d4d">pollution</text>
</g>
<!-- dégradation environnementale -->
<g id="node2" class="node">
<title>dégradation environnementale</title>
<ellipse fill="#f1ef75" stroke="white" stroke-width="0" cx="537.75" cy="-220.83" rx="36" ry="36"/>
<text text-anchor="middle" x="283.75" y="-265.43" font-family="Helvetica,sans-Serif" font-size="28.00" fill="#4d4d4d">dégradation environnementale</text>
</g>
<!-- nouvelle&#45;calédonie -->
<g id="node3" class="node">
<title>nouvelle&#45;calédonie</title>
<ellipse fill="#1c0c43" stroke="white" stroke-width="0" cx="564.66" cy="-63.71" rx="3.5" ry="3.5"/>
<text text-anchor="middle" x="497.16" y="-71.33" font-family="Helvetica,sans-Serif" font-size="13.60" fill="#4d4d4d">nouvelle&#45;calédonie</text>
</g>
<!-- travail -->
<g id="node4" class="node">
<title>travail</title>
<ellipse fill="#e65d2f" stroke="white" stroke-width="0" cx="603.69" cy="-268.05" rx="21.5" ry="21.5"/>
<text text-anchor="middle" x="547.19" y="-296.27" font-family="Helvetica,sans-Serif" font-size="21.60" fill="#4d4d4d">travail</text>
</g>
<!-- économie -->
<g id="node5" class="node">
<title>économie</title>
<ellipse fill="#b3325a" stroke="white" stroke-width="0" cx="702.78" cy="-202.14" rx="18" ry="18"/>
<text text-anchor="middle" x="733.28" y="-168.14" font-family="Helvetica,sans-Serif" font-size="20.00" fill="#4d4d4d">économie</text>
</g>
<!-- nickel -->
<g id="node6" class="node">
<title>nickel</title>
<ellipse fill="#fcffa4" stroke="white" stroke-width="0" cx="715.04" cy="-259.93" rx="36" ry="36"/>
<text text-anchor="middle" x="638.04" y="-201.53" font-family="Helvetica,sans-Serif" font-size="28.00" fill="#4d4d4d">nickel</text>
</g>
<!-- ressource minière -->
<g id="node7" class="node">
<title>ressource minière</title>
<ellipse fill="#64156e" stroke="white" stroke-width="0" cx="637.96" cy="-83.38" rx="11" ry="11"/>
<text text-anchor="middle" x="550.96" y="-98.94" font-family="Helvetica,sans-Serif" font-size="16.80" fill="#4d4d4d">ressource minière</text>
</g>
<!-- politique -->
<g id="node8" class="node">
<title>politique</title>
<ellipse fill="#9b2964" stroke="white" stroke-width="0" cx="664.03" cy="-288.29" rx="14.5" ry="14.5"/>
<text text-anchor="middle" x="690.53" y="-308.07" font-family="Helvetica,sans-Serif" font-size="18.40" fill="#4d4d4d">politique</text>
</g>
<!-- secteur nickel -->
<g id="node9" class="node">
<title>secteur nickel</title>
<ellipse fill="#b43359" stroke="white" stroke-width="0" cx="824.67" cy="-146.74" rx="18" ry="18"/>
<text text-anchor="middle" x="876.17" y="-170.74" font-family="Helvetica,sans-Serif" font-size="20.00" fill="#4d4d4d">secteur nickel</text>
</g>
<!-- nature -->
<g id="node10" class="node">
<title>nature</title>
<ellipse fill="#85216b" stroke="white" stroke-width="0" cx="766.28" cy="-120.99" rx="14.5" ry="14.5"/>
<text text-anchor="middle" x="720.78" y="-140.77" font-family="Helvetica,sans-Serif" font-size="18.40" fill="#4d4d4d">nature</text>
</g>
<!-- société néo&#45;calédonienne -->
<g id="node11" class="node">
<title>société néo&#45;calédonienne</title>
<ellipse fill="#180c3c" stroke="white" stroke-width="0" cx="752.54" cy="-3.5" rx="3.5" ry="3.5"/>
<text text-anchor="middle" x="662.54" y="-11.12" font-family="Helvetica,sans-Serif" font-size="13.60" fill="#4d4d4d">société néo&#45;calédonienne</text>
</g>
<!-- exploitation minière -->
<g id="node12" class="node">
<title>exploitation minière</title>
<ellipse fill="#7a1d6d" stroke="white" stroke-width="0" cx="710.28" cy="-68.31" rx="14.5" ry="14.5"/>
<text text-anchor="middle" x="602.28" y="-39.09" font-family="Helvetica,sans-Serif" font-size="18.40" fill="#4d4d4d">exploitation minière</text>
</g>
<!-- alternative au développement -->
<g id="node13" class="node">
<title>alternative au développement</title>
<ellipse fill="#120a32" stroke="white" stroke-width="0" cx="868.84" cy="-352.35" rx="3.5" ry="3.5"/>
<text text-anchor="middle" x="762.34" y="-337.97" font-family="Helvetica,sans-Serif" font-size="13.60" fill="#4d4d4d">alternative au développement</text>
</g>
<!-- matériel -->
<g id="node14" class="node">
<title>matériel</title>
<ellipse fill="#932667" stroke="white" stroke-width="0" cx="844.12" cy="-210.04" rx="14.5" ry="14.5"/>
<text text-anchor="middle" x="790.62" y="-200.82" font-family="Helvetica,sans-Serif" font-size="18.40" fill="#4d4d4d">matériel</text>
</g>
<!-- foncier -->
<g id="node15" class="node">
<title>foncier</title>
<ellipse fill="#240c4f" stroke="white" stroke-width="0" cx="786.16" cy="-388.67" rx="7" ry="7"/>
<text text-anchor="middle" x="753.16" y="-400.51" font-family="Helvetica,sans-Serif" font-size="15.20" fill="#4d4d4d">foncier</text>
</g>
<!-- industrie -->
<g id="node16" class="node">
<title>industrie</title>
<ellipse fill="#b3325a" stroke="white" stroke-width="0" cx="796.49" cy="-257.95" rx="18" ry="18"/>
<text text-anchor="middle" x="822.49" y="-281.95" font-family="Helvetica,sans-Serif" font-size="20.00" fill="#4d4d4d">industrie</text>
</g>
<!-- échange commercial -->
<g id="node17" class="node">
<title>échange commercial</title>
<ellipse fill="#380962" stroke="white" stroke-width="0" cx="690.95" cy="-359.3" rx="7" ry="7"/>
<text text-anchor="middle" x="604.95" y="-371.14" font-family="Helvetica,sans-Serif" font-size="15.20" fill="#4d4d4d">échange commercial</text>
</g>
<!-- amélioration environnementale -->
<g id="node18" class="node">
<title>amélioration environnementale</title>
<ellipse fill="#030210" stroke="white" stroke-width="0" cx="189.5" cy="-76.57" rx="0.5" ry="0.5"/>
<text text-anchor="middle" x="94.5" y="-80.47" font-family="Helvetica,sans-Serif" font-size="12.00" fill="#4d4d4d">amélioration environnementale</text>
</g>
<!-- relation politique -->
<g id="node19" class="node">
<title>relation politique</title>
<ellipse fill="#0b0724" stroke="white" stroke-width="0" cx="542.71" cy="-466.04" rx="3.5" ry="3.5"/>
<text text-anchor="middle" x="481.71" y="-473.66" font-family="Helvetica,sans-Serif" font-size="13.60" fill="#4d4d4d">relation politique</text>
</g>
<!-- risque -->
<g id="node20" class="node">
<title>risque</title>
<ellipse fill="#050417" stroke="white" stroke-width="0" cx="337.42" cy="-408.92" rx="3.5" ry="3.5"/>
<text text-anchor="middle" x="312.92" y="-416.54" font-family="Helvetica,sans-Serif" font-size="13.60" fill="#4d4d4d">risque</text>
</g>
<!-- avenir sans nickel -->
<g id="node21" class="node">
<title>avenir sans nickel</title>
<ellipse fill="#000004" stroke="white" stroke-width="0" cx="124.78" cy="-223.9" rx="0.5" ry="0.5"/>
<text text-anchor="middle" x="70.78" y="-227.8" font-family="Helvetica,sans-Serif" font-size="12.00" fill="#4d4d4d">avenir sans nickel</text>
</g>
</g>
</svg>
