<?xml version="1.0" encoding="UTF-8" standalone="no"?>
<!DOCTYPE svg PUBLIC "-//W3C//DTD SVG 1.1//EN"
 "http://www.w3.org/Graphics/SVG/1.1/DTD/svg11.dtd">
<!-- Generated by graphviz version 2.43.0 (0)
 -->
<!-- Pages: 1 -->
<svg width="1347pt" height="553pt"
 viewBox="0.00 0.00 1347.26 552.82" xmlns="http://www.w3.org/2000/svg" xmlns:xlink="http://www.w3.org/1999/xlink">
<g id="graph0" class="graph" transform="scale(1 1) rotate(0) translate(4 548.82)">
<polygon fill="white" stroke="transparent" points="-4,4 -4,-548.82 1343.26,-548.82 1343.26,4 -4,4"/>
<!-- pollution&#45;&#45;emploi -->
<g id="edge1" class="edge">
<title>pollution&#45;&#45;emploi</title>
<path fill="none" stroke="darkgrey" stroke-width="6.36" d="M566.07,-351.86C538.38,-330.72 477.72,-284.42 447.87,-261.63"/>
</g>
<!-- pollution&#45;&#45;économie du pays -->
<g id="edge2" class="edge">
<title>pollution&#45;&#45;économie du pays</title>
<path fill="none" stroke="darkgrey" stroke-width="3.39" d="M567.6,-375.55C541.9,-400.99 484.83,-457.48 463.93,-478.18"/>
</g>
<!-- pollution&#45;&#45;impact environnemental -->
<g id="edge3" class="edge">
<title>pollution&#45;&#45;impact environnemental</title>
<path fill="none" stroke="darkgrey" stroke-width="10" d="M564.2,-354.76C547.42,-346.43 520.77,-333.19 499.63,-322.69"/>
</g>
<!-- pollution&#45;&#45;conflit -->
<g id="edge4" class="edge">
<title>pollution&#45;&#45;conflit</title>
<path fill="none" stroke="darkgrey" stroke-width="1.28" d="M564.2,-370.89C513.57,-395.99 360.03,-472.12 327.05,-488.47"/>
</g>
<!-- pollution&#45;&#45;revenu -->
<g id="edge5" class="edge">
<title>pollution&#45;&#45;revenu</title>
<path fill="none" stroke="darkgrey" stroke-width="1.03" d="M578.51,-380.95C574.52,-418.53 565.52,-503.05 563.47,-522.35"/>
</g>
<!-- pollution&#45;&#45;nickel -->
<g id="edge6" class="edge">
<title>pollution&#45;&#45;nickel</title>
<path fill="none" stroke="darkgrey" stroke-width="2.79" d="M598.23,-359.51C628,-353.95 687.82,-342.79 719.72,-336.83"/>
</g>
<!-- pollution&#45;&#45;exploitation -->
<g id="edge7" class="edge">
<title>pollution&#45;&#45;exploitation</title>
<path fill="none" stroke="darkgrey" stroke-width="1.05" d="M585.35,-345.37C598.15,-299.77 632.31,-178.13 642.67,-141.23"/>
</g>
<!-- pollution&#45;&#45;montagne -->
<g id="edge8" class="edge">
<title>pollution&#45;&#45;montagne</title>
<path fill="none" stroke="darkgrey" stroke-width="1.43" d="M594.59,-374.35C629.63,-402.9 718.93,-475.65 736.71,-490.13"/>
</g>
<!-- pollution&#45;&#45;développement -->
<g id="edge9" class="edge">
<title>pollution&#45;&#45;développement</title>
<path fill="none" stroke="darkgrey" stroke-width="1.41" d="M562.02,-362.16C491.88,-359.6 244.69,-350.57 229.31,-350.01"/>
</g>
<!-- pollution&#45;&#45;engin -->
<g id="edge10" class="edge">
<title>pollution&#45;&#45;engin</title>
<path fill="none" stroke="darkgrey" stroke-width="1.58" d="M592.31,-348.85C624.4,-311.07 712.16,-207.7 738.16,-177.08"/>
</g>
<!-- pollution&#45;&#45;terre -->
<g id="edge11" class="edge">
<title>pollution&#45;&#45;terre</title>
<path fill="none" stroke="darkgrey" stroke-width="1.11" d="M583.86,-345.1C590.14,-312.57 603.23,-244.68 607.45,-222.79"/>
</g>
<!-- pollution&#45;&#45;usine -->
<g id="edge12" class="edge">
<title>pollution&#45;&#45;usine</title>
<path fill="none" stroke="darkgrey" stroke-width="1.1" d="M598.25,-359.94C663.2,-349.4 886.35,-313.2 938.6,-304.72"/>
</g>
<!-- emploi&#45;&#45;économie du pays -->
<g id="edge13" class="edge">
<title>emploi&#45;&#45;économie du pays</title>
<path fill="none" stroke="darkgrey" stroke-width="5.28" d="M432.88,-269.93C438.15,-319.04 450.92,-438.04 454.87,-474.9"/>
</g>
<!-- emploi&#45;&#45;impact environnemental -->
<g id="edge15" class="edge">
<title>emploi&#45;&#45;impact environnemental</title>
<path fill="none" stroke="darkgrey" stroke-width="6.5" d="M442.12,-266.8C443.95,-269.73 445.89,-272.82 447.85,-275.93"/>
</g>
<!-- emploi&#45;&#45;conflit -->
<g id="edge16" class="edge">
<title>emploi&#45;&#45;conflit</title>
<path fill="none" stroke="darkgrey" stroke-width="2.39" d="M421.59,-268.33C398.54,-319.37 338.12,-453.15 323.83,-484.8"/>
</g>
<!-- emploi&#45;&#45;revenu -->
<g id="edge17" class="edge">
<title>emploi&#45;&#45;revenu</title>
<path fill="none" stroke="darkgrey" stroke-width="2.42" d="M439.89,-267.97C467.69,-326.28 548.9,-496.64 561.42,-522.9"/>
</g>
<!-- emploi&#45;&#45;nickel -->
<g id="edge18" class="edge">
<title>emploi&#45;&#45;nickel</title>
<path fill="none" stroke="darkgrey" stroke-width="4.16" d="M451.42,-254.1C507.95,-269.49 663.71,-311.88 720.13,-327.23"/>
</g>
<!-- emploi&#45;&#45;exploitation -->
<g id="edge19" class="edge">
<title>emploi&#45;&#45;exploitation</title>
<path fill="none" stroke="darkgrey" stroke-width="1.39" d="M449.67,-237.96C493.88,-213.71 602.09,-154.37 635.62,-135.99"/>
</g>
<!-- emploi&#45;&#45;terre -->
<g id="edge20" class="edge">
<title>emploi&#45;&#45;terre</title>
<path fill="none" stroke="darkgrey" stroke-width="1.11" d="M452.07,-244.5C492.25,-237.15 576.93,-221.66 601.79,-217.11"/>
</g>
<!-- emploi&#45;&#45;richesse -->
<g id="edge14" class="edge">
<title>emploi&#45;&#45;richesse</title>
<path fill="none" stroke="darkgrey" stroke-width="1.91" d="M411.69,-237.35C359.62,-206.8 216.29,-122.7 193.12,-109.11"/>
</g>
<!-- emploi&#45;&#45;vision positive de la ressource -->
<g id="edge21" class="edge">
<title>emploi&#45;&#45;vision positive de la ressource</title>
<path fill="none" stroke="darkgrey" d="M429.49,-226.69C426.75,-172.13 419.73,-32 418.5,-7.26"/>
</g>
<!-- économie du pays&#45;&#45;impact environnemental -->
<g id="edge22" class="edge">
<title>économie du pays&#45;&#45;impact environnemental</title>
<path fill="none" stroke="darkgrey" stroke-width="6.21" d="M456.75,-474.75C458.33,-448.81 462.32,-383.79 464.84,-342.6"/>
</g>
<!-- économie du pays&#45;&#45;conflit -->
<g id="edge23" class="edge">
<title>économie du pays&#45;&#45;conflit</title>
<path fill="none" stroke="darkgrey" stroke-width="1.31" d="M444.99,-486.43C418.1,-487.55 349.96,-490.37 327.82,-491.29"/>
</g>
<!-- économie du pays&#45;&#45;nickel -->
<g id="edge24" class="edge">
<title>économie du pays&#45;&#45;nickel</title>
<path fill="none" stroke="darkgrey" stroke-width="1.63" d="M465.86,-480.7C507.04,-458.57 666.45,-372.89 721.81,-343.13"/>
</g>
<!-- impact environnemental&#45;&#45;conflit -->
<g id="edge26" class="edge">
<title>impact environnemental&#45;&#45;conflit</title>
<path fill="none" stroke="darkgrey" stroke-width="1.61" d="M444.51,-335.02C409.25,-379.63 343.2,-463.2 325.32,-485.82"/>
</g>
<!-- impact environnemental&#45;&#45;revenu -->
<g id="edge27" class="edge">
<title>impact environnemental&#45;&#45;revenu</title>
<path fill="none" stroke="darkgrey" stroke-width="1.29" d="M481.63,-339.89C505.86,-395.38 552.65,-502.52 561.56,-522.92"/>
</g>
<!-- impact environnemental&#45;&#45;nickel -->
<g id="edge28" class="edge">
<title>impact environnemental&#45;&#45;nickel</title>
<path fill="none" stroke="darkgrey" stroke-width="3.91" d="M503.13,-309.98C560.93,-315.55 672.53,-326.3 719.37,-330.81"/>
</g>
<!-- impact environnemental&#45;&#45;exploitation -->
<g id="edge30" class="edge">
<title>impact environnemental&#45;&#45;exploitation</title>
<path fill="none" stroke="darkgrey" stroke-width="3.58" d="M493.02,-280.91C534.25,-240.28 612.56,-163.11 637.71,-138.34"/>
</g>
<!-- impact environnemental&#45;&#45;montagne -->
<g id="edge31" class="edge">
<title>impact environnemental&#45;&#45;montagne</title>
<path fill="none" stroke="darkgrey" stroke-width="1.88" d="M497.02,-326.96C562.34,-371.54 713.57,-474.74 736.8,-490.6"/>
</g>
<!-- impact environnemental&#45;&#45;développement -->
<g id="edge32" class="edge">
<title>impact environnemental&#45;&#45;développement</title>
<path fill="none" stroke="darkgrey" stroke-width="1.56" d="M431.6,-312.96C368.28,-324.51 241.21,-347.67 229.43,-349.82"/>
</g>
<!-- impact environnemental&#45;&#45;engin -->
<g id="edge33" class="edge">
<title>impact environnemental&#45;&#45;engin</title>
<path fill="none" stroke="darkgrey" stroke-width="2.29" d="M499.54,-290.39C562.37,-259.23 697.71,-192.13 735.52,-173.38"/>
</g>
<!-- impact environnemental&#45;&#45;terre -->
<g id="edge35" class="edge">
<title>impact environnemental&#45;&#45;terre</title>
<path fill="none" stroke="darkgrey" stroke-width="1.23" d="M497.46,-287.05C531.79,-265.09 585.16,-230.95 602.87,-219.62"/>
</g>
<!-- impact environnemental&#45;&#45;vision positive de la ressource -->
<g id="edge36" class="edge">
<title>impact environnemental&#45;&#45;vision positive de la ressource</title>
<path fill="none" stroke="darkgrey" stroke-width="1.41" d="M461.31,-270.85C449.49,-197.33 423.13,-33.5 418.89,-7.12"/>
</g>
<!-- impact environnemental&#45;&#45;milieu -->
<g id="edge29" class="edge">
<title>impact environnemental&#45;&#45;milieu</title>
<path fill="none" stroke="darkgrey" stroke-width="1.19" d="M431.9,-314.5C332.51,-337.1 55.55,-400.1 38.34,-404.01"/>
</g>
<!-- impact environnemental&#45;&#45;minerai -->
<g id="edge34" class="edge">
<title>impact environnemental&#45;&#45;minerai</title>
<path fill="none" stroke="darkgrey" stroke-width="1.43" d="M502.38,-299.42C577.48,-284.36 750.27,-249.72 801.18,-239.52"/>
</g>
<!-- revenu&#45;&#45;nickel -->
<g id="edge37" class="edge">
<title>revenu&#45;&#45;nickel</title>
<path fill="none" stroke="darkgrey" stroke-width="1.61" d="M565.56,-523.58C583.08,-504.53 687.38,-391.07 726.27,-348.77"/>
</g>
<!-- nickel&#45;&#45;exploitation -->
<g id="edge38" class="edge">
<title>nickel&#45;&#45;exploitation</title>
<path fill="none" stroke="darkgrey" stroke-width="1.75" d="M731.58,-313.1C711.65,-270.73 665.43,-172.43 650.46,-140.61"/>
</g>
<!-- nickel&#45;&#45;montagne -->
<g id="edge39" class="edge">
<title>nickel&#45;&#45;montagne</title>
<path fill="none" stroke="darkgrey" stroke-width="1.07" d="M740.74,-354.43C740.48,-392.93 739.96,-471.18 739.84,-488.99"/>
</g>
<!-- nickel&#45;&#45;engin -->
<g id="edge40" class="edge">
<title>nickel&#45;&#45;engin</title>
<path fill="none" stroke="darkgrey" stroke-width="2.45" d="M741.49,-311.38C742.48,-276.03 744.43,-206.86 745.19,-179.73"/>
</g>
<!-- nickel&#45;&#45;terre -->
<g id="edge42" class="edge">
<title>nickel&#45;&#45;terre</title>
<path fill="none" stroke="darkgrey" stroke-width="2.13" d="M724.68,-318.53C694.93,-292.16 632.88,-237.18 614.22,-220.64"/>
</g>
<!-- nickel&#45;&#45;usine -->
<g id="edge43" class="edge">
<title>nickel&#45;&#45;usine</title>
<path fill="none" stroke="darkgrey" stroke-width="3.6" d="M762.43,-329.79C806.39,-323.48 905.04,-309.33 938.36,-304.55"/>
</g>
<!-- nickel&#45;&#45;minerai -->
<g id="edge41" class="edge">
<title>nickel&#45;&#45;minerai</title>
<path fill="none" stroke="darkgrey" stroke-width="3.59" d="M754.23,-315.67C769.33,-296.21 793.51,-265.04 806.53,-248.25"/>
</g>
<!-- nickel&#45;&#45;opérateur minier -->
<g id="edge44" class="edge">
<title>nickel&#45;&#45;opérateur minier</title>
<path fill="none" stroke="darkgrey" stroke-width="2.61" d="M762.15,-337.4C830.28,-351.88 1041.57,-396.79 1091.74,-407.45"/>
</g>
<!-- nickel&#45;&#45;ressource non&#45;renouvelable -->
<g id="edge45" class="edge">
<title>nickel&#45;&#45;ressource non&#45;renouvelable</title>
<path fill="none" stroke="darkgrey" stroke-width="1.54" d="M757.63,-318.76C813.9,-271.33 994.08,-119.43 1019.14,-98.31"/>
</g>
<!-- exploitation&#45;&#45;engin -->
<g id="edge46" class="edge">
<title>exploitation&#45;&#45;engin</title>
<path fill="none" stroke="darkgrey" stroke-width="1.07" d="M656,-134.39C675.13,-141.66 715.91,-157.17 735.11,-164.47"/>
</g>
<!-- exploitation&#45;&#45;usine -->
<g id="edge48" class="edge">
<title>exploitation&#45;&#45;usine</title>
<path fill="none" stroke="darkgrey" stroke-width="1.19" d="M655.46,-136.01C701.28,-162.01 894.61,-271.72 940.03,-297.5"/>
</g>
<!-- exploitation&#45;&#45;vision positive de la ressource -->
<g id="edge49" class="edge">
<title>exploitation&#45;&#45;vision positive de la ressource</title>
<path fill="none" stroke="darkgrey" stroke-width="1.01" d="M635.92,-125.01C595.97,-102.7 445.99,-18.96 421.65,-5.37"/>
</g>
<!-- exploitation&#45;&#45;minerai -->
<g id="edge47" class="edge">
<title>exploitation&#45;&#45;minerai</title>
<path fill="none" stroke="darkgrey" stroke-width="2.64" d="M655.31,-136.48C684.22,-154.55 770.36,-208.39 802.9,-228.74"/>
</g>
<!-- montagne&#45;&#45;minerai -->
<g id="edge50" class="edge">
<title>montagne&#45;&#45;minerai</title>
<path fill="none" stroke="darkgrey" stroke-width="1.18" d="M740.89,-489.04C748.69,-462.66 796.9,-299.65 811.41,-250.59"/>
</g>
<!-- engin&#45;&#45;terre -->
<g id="edge52" class="edge">
<title>engin&#45;&#45;terre</title>
<path fill="none" stroke="darkgrey" stroke-width="1.46" d="M734.78,-172.15C707.84,-181.49 637.9,-205.74 615.68,-213.44"/>
</g>
<!-- engin&#45;&#45;usine -->
<g id="edge53" class="edge">
<title>engin&#45;&#45;usine</title>
<path fill="none" stroke="darkgrey" stroke-width="1.38" d="M754.81,-174.56C788.81,-196.96 906.16,-274.3 940.25,-296.77"/>
</g>
<!-- engin&#45;&#45;minerai -->
<g id="edge51" class="edge">
<title>engin&#45;&#45;minerai</title>
<path fill="none" stroke="darkgrey" stroke-width="1.83" d="M753.54,-176.25C766.19,-188.57 790.75,-212.49 804.87,-226.24"/>
</g>
<!-- usine&#45;&#45;opérateur minier -->
<g id="edge57" class="edge">
<title>usine&#45;&#45;opérateur minier</title>
<path fill="none" stroke="darkgrey" stroke-width="2.93" d="M958.71,-309.3C985.84,-328.25 1065.94,-384.19 1093.25,-403.28"/>
</g>
<!-- usine&#45;&#45;localité -->
<g id="edge58" class="edge">
<title>usine&#45;&#45;localité</title>
<path fill="none" stroke="darkgrey" stroke-width="1.28" d="M960.42,-305.38C1021.8,-319.27 1324.11,-387.68 1338.25,-390.88"/>
</g>
<!-- richesse&#45;&#45;impact environnemental -->
<g id="edge25" class="edge">
<title>richesse&#45;&#45;impact environnemental</title>
<path fill="none" stroke="darkgrey" stroke-width="1.88" d="M193.06,-109.48C216.9,-126.63 371.46,-237.77 437.36,-285.15"/>
</g>
<!-- minerai&#45;&#45;terre -->
<g id="edge54" class="edge">
<title>minerai&#45;&#45;terre</title>
<path fill="none" stroke="darkgrey" stroke-width="1.01" d="M801,-235.17C760.19,-231.07 645.62,-219.54 615.91,-216.55"/>
</g>
<!-- minerai&#45;&#45;usine -->
<g id="edge55" class="edge">
<title>minerai&#45;&#45;usine</title>
<path fill="none" stroke="darkgrey" stroke-width="2.14" d="M828.89,-243.24C855.78,-256.53 915.93,-286.28 939.68,-298.03"/>
</g>
<!-- minerai&#45;&#45;ressource non&#45;renouvelable -->
<g id="edge56" class="edge">
<title>minerai&#45;&#45;ressource non&#45;renouvelable</title>
<path fill="none" stroke="darkgrey" stroke-width="1.13" d="M827.54,-228.46C867.99,-200.88 998.08,-112.2 1019.15,-97.83"/>
</g>
<!-- pollution -->
<g id="node1" class="node">
<title>pollution</title>
<ellipse fill="#c63d4d" stroke="white" stroke-width="0" cx="580.44" cy="-362.83" rx="18" ry="18"/>
<text text-anchor="middle" x="519.44" y="-386.83" font-family="Helvetica,sans-Serif" font-size="20.00" fill="#4d4d4d">pollution</text>
</g>
<!-- emploi -->
<g id="node2" class="node">
<title>emploi</title>
<ellipse fill="#e05536" stroke="white" stroke-width="0" cx="430.58" cy="-248.43" rx="21.5" ry="21.5"/>
<text text-anchor="middle" x="372.08" y="-276.65" font-family="Helvetica,sans-Serif" font-size="21.60" fill="#4d4d4d">emploi</text>
</g>
<!-- économie du pays -->
<g id="node3" class="node">
<title>économie du pays</title>
<ellipse fill="#6f196e" stroke="white" stroke-width="0" cx="456.06" cy="-485.97" rx="11" ry="11"/>
<text text-anchor="middle" x="368.06" y="-461.53" font-family="Helvetica,sans-Serif" font-size="16.80" fill="#4d4d4d">économie du pays</text>
</g>
<!-- impact environnemental -->
<g id="node4" class="node">
<title>impact environnemental</title>
<ellipse fill="#fcffa4" stroke="white" stroke-width="0" cx="467.05" cy="-306.5" rx="36" ry="36"/>
<text text-anchor="middle" x="675.55" y="-279.1" font-family="Helvetica,sans-Serif" font-size="28.00" fill="#4d4d4d">impact environnemental</text>
</g>
<!-- conflit -->
<g id="node5" class="node">
<title>conflit</title>
<ellipse fill="#390963" stroke="white" stroke-width="0" cx="320.76" cy="-491.59" rx="7" ry="7"/>
<text text-anchor="middle" x="289.76" y="-503.43" font-family="Helvetica,sans-Serif" font-size="15.20" fill="#4d4d4d">conflit</text>
</g>
<!-- revenu -->
<g id="node6" class="node">
<title>revenu</title>
<ellipse fill="#230c4c" stroke="white" stroke-width="0" cx="563.04" cy="-526.32" rx="3.5" ry="3.5"/>
<text text-anchor="middle" x="536.04" y="-533.94" font-family="Helvetica,sans-Serif" font-size="13.60" fill="#4d4d4d">revenu</text>
</g>
<!-- nickel -->
<g id="node7" class="node">
<title>nickel</title>
<ellipse fill="#d44842" stroke="white" stroke-width="0" cx="740.88" cy="-332.88" rx="21.5" ry="21.5"/>
<text text-anchor="middle" x="687.88" y="-361.1" font-family="Helvetica,sans-Serif" font-size="21.60" fill="#4d4d4d">nickel</text>
</g>
<!-- exploitation -->
<g id="node8" class="node">
<title>exploitation</title>
<ellipse fill="#62146e" stroke="white" stroke-width="0" cx="645.69" cy="-130.47" rx="11" ry="11"/>
<text text-anchor="middle" x="584.69" y="-146.03" font-family="Helvetica,sans-Serif" font-size="16.80" fill="#4d4d4d">exploitation</text>
</g>
<!-- montagne -->
<g id="node9" class="node">
<title>montagne</title>
<ellipse fill="#140b34" stroke="white" stroke-width="0" cx="739.82" cy="-492.66" rx="3.5" ry="3.5"/>
<text text-anchor="middle" x="701.32" y="-500.28" font-family="Helvetica,sans-Serif" font-size="13.60" fill="#4d4d4d">montagne</text>
</g>
<!-- développement -->
<g id="node10" class="node">
<title>développement</title>
<ellipse fill="#030210" stroke="white" stroke-width="0" cx="228.56" cy="-349.98" rx="0.5" ry="0.5"/>
<text text-anchor="middle" x="181.06" y="-353.88" font-family="Helvetica,sans-Serif" font-size="12.00" fill="#4d4d4d">développement</text>
</g>
<!-- engin -->
<g id="node11" class="node">
<title>engin</title>
<ellipse fill="#550f6d" stroke="white" stroke-width="0" cx="745.51" cy="-168.43" rx="11" ry="11"/>
<text text-anchor="middle" x="711.01" y="-183.99" font-family="Helvetica,sans-Serif" font-size="16.80" fill="#4d4d4d">engin</text>
</g>
<!-- terre -->
<g id="node12" class="node">
<title>terre</title>
<ellipse fill="#3e0966" stroke="white" stroke-width="0" cx="608.8" cy="-215.83" rx="7" ry="7"/>
<text text-anchor="middle" x="583.3" y="-227.67" font-family="Helvetica,sans-Serif" font-size="15.20" fill="#4d4d4d">terre</text>
</g>
<!-- usine -->
<g id="node13" class="node">
<title>usine</title>
<ellipse fill="#67166e" stroke="white" stroke-width="0" cx="949.61" cy="-302.93" rx="11" ry="11"/>
<text text-anchor="middle" x="915.61" y="-318.49" font-family="Helvetica,sans-Serif" font-size="16.80" fill="#4d4d4d">usine</text>
</g>
<!-- richesse -->
<g id="node14" class="node">
<title>richesse</title>
<ellipse fill="#1b0c41" stroke="white" stroke-width="0" cx="189.94" cy="-107.24" rx="3.5" ry="3.5"/>
<text text-anchor="middle" x="158.94" y="-114.86" font-family="Helvetica,sans-Serif" font-size="13.60" fill="#4d4d4d">richesse</text>
</g>
<!-- vision positive de la ressource -->
<g id="node15" class="node">
<title>vision positive de la ressource</title>
<ellipse fill="#0d0829" stroke="white" stroke-width="0" cx="418.31" cy="-3.5" rx="3.5" ry="3.5"/>
<text text-anchor="middle" x="312.31" y="-11.12" font-family="Helvetica,sans-Serif" font-size="13.60" fill="#4d4d4d">vision positive de la ressource</text>
</g>
<!-- milieu -->
<g id="node16" class="node">
<title>milieu</title>
<ellipse fill="#010005" stroke="white" stroke-width="0" cx="37.5" cy="-404.2" rx="0.5" ry="0.5"/>
<text text-anchor="middle" x="18.5" y="-408.1" font-family="Helvetica,sans-Serif" font-size="12.00" fill="#4d4d4d">milieu</text>
</g>
<!-- minerai -->
<g id="node17" class="node">
<title>minerai</title>
<ellipse fill="#9a2865" stroke="white" stroke-width="0" cx="815.54" cy="-236.64" rx="14.5" ry="14.5"/>
<text text-anchor="middle" x="765.54" y="-227.42" font-family="Helvetica,sans-Serif" font-size="18.40" fill="#4d4d4d">minerai</text>
</g>
<!-- opérateur minier -->
<g id="node18" class="node">
<title>opérateur minier</title>
<ellipse fill="#57106e" stroke="white" stroke-width="0" cx="1102.51" cy="-409.74" rx="11" ry="11"/>
<text text-anchor="middle" x="1020.51" y="-425.3" font-family="Helvetica,sans-Serif" font-size="16.80" fill="#4d4d4d">opérateur minier</text>
</g>
<!-- ressource non&#45;renouvelable -->
<g id="node19" class="node">
<title>ressource non&#45;renouvelable</title>
<ellipse fill="#08051d" stroke="white" stroke-width="0" cx="1022.05" cy="-95.86" rx="3.5" ry="3.5"/>
<text text-anchor="middle" x="925.05" y="-103.48" font-family="Helvetica,sans-Serif" font-size="13.60" fill="#4d4d4d">ressource non&#45;renouvelable</text>
</g>
<!-- localité -->
<g id="node20" class="node">
<title>localité</title>
<ellipse fill="#000004" stroke="white" stroke-width="0" cx="1338.76" cy="-390.99" rx="0.5" ry="0.5"/>
<text text-anchor="middle" x="1316.76" y="-394.89" font-family="Helvetica,sans-Serif" font-size="12.00" fill="#4d4d4d">localité</text>
</g>
</g>
</svg>
