<?xml version="1.0" encoding="UTF-8" standalone="no"?>
<!DOCTYPE svg PUBLIC "-//W3C//DTD SVG 1.1//EN"
 "http://www.w3.org/Graphics/SVG/1.1/DTD/svg11.dtd">
<!-- Generated by graphviz version 2.43.0 (0)
 -->
<!-- Pages: 1 -->
<svg width="913pt" height="670pt"
 viewBox="0.00 0.00 913.43 670.09" xmlns="http://www.w3.org/2000/svg" xmlns:xlink="http://www.w3.org/1999/xlink">
<g id="graph0" class="graph" transform="scale(1 1) rotate(0) translate(4 666.09)">
<polygon fill="white" stroke="transparent" points="-4,4 -4,-666.09 909.43,-666.09 909.43,4 -4,4"/>
<!-- pollution&#45;&#45;emploi -->
<g id="edge1" class="edge">
<title>pollution&#45;&#45;emploi</title>
<path fill="none" stroke="darkgrey" stroke-width="10" d="M570.57,-282.3C565.66,-284.34 560.49,-286.49 555.41,-288.6"/>
</g>
<!-- pollution&#45;&#45;richesse -->
<g id="edge2" class="edge">
<title>pollution&#45;&#45;richesse</title>
<path fill="none" stroke="darkgrey" stroke-width="2.65" d="M604.81,-242.97C617.19,-196.17 641.44,-104.46 649.75,-73.02"/>
</g>
<!-- pollution&#45;&#45;démolition -->
<g id="edge3" class="edge">
<title>pollution&#45;&#45;démolition</title>
<path fill="none" stroke="darkgrey" stroke-width="2.97" d="M624.39,-260.22C660.81,-245.49 723.43,-220.15 743.88,-211.87"/>
</g>
<!-- pollution&#45;&#45;argent -->
<g id="edge4" class="edge">
<title>pollution&#45;&#45;argent</title>
<path fill="none" stroke="darkgrey" stroke-width="2.34" d="M609.44,-297.78C630.45,-344.04 672.78,-437.27 686.71,-467.95"/>
</g>
<!-- pollution&#45;&#45;nickel -->
<g id="edge5" class="edge">
<title>pollution&#45;&#45;nickel</title>
<path fill="none" stroke="darkgrey" stroke-width="6.27" d="M569.51,-263.05C546.48,-256.34 513.79,-246.82 489.77,-239.82"/>
</g>
<!-- pollution&#45;&#45;exploitation -->
<g id="edge6" class="edge">
<title>pollution&#45;&#45;exploitation</title>
<path fill="none" stroke="darkgrey" stroke-width="2.26" d="M595.32,-242.23C592.7,-204.93 588.23,-141.49 586.22,-112.95"/>
</g>
<!-- pollution&#45;&#45;montagne -->
<g id="edge7" class="edge">
<title>pollution&#45;&#45;montagne</title>
<path fill="none" stroke="darkgrey" stroke-width="1.89" d="M571.4,-257.32C517.11,-228.36 394.19,-162.79 365.22,-147.34"/>
</g>
<!-- pollution&#45;&#45;camion -->
<g id="edge8" class="edge">
<title>pollution&#45;&#45;camion</title>
<path fill="none" stroke="darkgrey" stroke-width="2.64" d="M582.6,-246.13C560.1,-207.98 518.24,-136.98 503.04,-111.2"/>
</g>
<!-- pollution&#45;&#45;économie -->
<g id="edge9" class="edge">
<title>pollution&#45;&#45;économie</title>
<path fill="none" stroke="darkgrey" stroke-width="5.37" d="M586.37,-244.18C578.39,-224.58 567.85,-198.68 561.06,-182.01"/>
</g>
<!-- pollution&#45;&#45;impact environnemental -->
<g id="edge10" class="edge">
<title>pollution&#45;&#45;impact environnemental</title>
<path fill="none" stroke="darkgrey" stroke-width="4.45" d="M594.43,-242.09C594.42,-242 594.41,-241.91 594.4,-241.82"/>
</g>
<!-- pollution&#45;&#45;terre -->
<g id="edge11" class="edge">
<title>pollution&#45;&#45;terre</title>
<path fill="none" stroke="darkgrey" stroke-width="1.65" d="M576.42,-250.69C543.87,-218.88 483,-159.37 464.77,-141.55"/>
</g>
<!-- pollution&#45;&#45;usine -->
<g id="edge12" class="edge">
<title>pollution&#45;&#45;usine</title>
<path fill="none" stroke="darkgrey" stroke-width="2.33" d="M626.14,-264.96C643.14,-261.29 663.35,-256.93 673.84,-254.67"/>
</g>
<!-- pollution&#45;&#45;érosion -->
<g id="edge13" class="edge">
<title>pollution&#45;&#45;érosion</title>
<path fill="none" stroke="darkgrey" stroke-width="1.09" d="M626.25,-275.76C691.45,-286.14 845.33,-310.62 857.25,-312.52"/>
</g>
<!-- pollution&#45;&#45;sln -->
<g id="edge14" class="edge">
<title>pollution&#45;&#45;sln</title>
<path fill="none" stroke="darkgrey" stroke-width="1.21" d="M568.32,-273.18C517.21,-276.73 413.91,-283.91 385.87,-285.86"/>
</g>
<!-- pollution&#45;&#45;ressource -->
<g id="edge15" class="edge">
<title>pollution&#45;&#45;ressource</title>
<path fill="none" stroke="darkgrey" stroke-width="1.55" d="M613.73,-295.41C623.22,-309.47 634.41,-326.04 640.22,-334.64"/>
</g>
<!-- pollution&#45;&#45;conflit -->
<g id="edge16" class="edge">
<title>pollution&#45;&#45;conflit</title>
<path fill="none" stroke="darkgrey" stroke-width="2.21" d="M587.91,-243.39C567.9,-184.54 522.18,-50.11 511.4,-18.41"/>
</g>
<!-- pollution&#45;&#45;développement -->
<g id="edge17" class="edge">
<title>pollution&#45;&#45;développement</title>
<path fill="none" stroke="darkgrey" stroke-width="1.98" d="M590.95,-299.85C577.76,-358.88 548.39,-490.37 543.22,-513.52"/>
</g>
<!-- pollution&#45;&#45;minerai -->
<g id="edge18" class="edge">
<title>pollution&#45;&#45;minerai</title>
<path fill="none" stroke="darkgrey" stroke-width="2.28" d="M614.42,-247.62C635.29,-218.81 669.6,-171.45 683.84,-151.79"/>
</g>
<!-- pollution&#45;&#45;déforestation -->
<g id="edge19" class="edge">
<title>pollution&#45;&#45;déforestation</title>
<path fill="none" stroke="darkgrey" stroke-width="1.74" d="M618.51,-291.03C657.43,-327.59 737.9,-403.17 753.85,-418.15"/>
</g>
<!-- emploi&#45;&#45;richesse -->
<g id="edge20" class="edge">
<title>emploi&#45;&#45;richesse</title>
<path fill="none" stroke="darkgrey" stroke-width="3.5" d="M539.33,-270.57C569.18,-215.66 628.81,-105.96 647.14,-72.23"/>
</g>
<!-- emploi&#45;&#45;démolition -->
<g id="edge21" class="edge">
<title>emploi&#45;&#45;démolition</title>
<path fill="none" stroke="darkgrey" stroke-width="2.99" d="M555.71,-288.72C610.6,-266.31 715.92,-223.31 743.7,-211.97"/>
</g>
<!-- emploi&#45;&#45;argent -->
<g id="edge22" class="edge">
<title>emploi&#45;&#45;argent</title>
<path fill="none" stroke="darkgrey" stroke-width="2.96" d="M547.33,-328.76C586.44,-369.31 659.48,-445.04 683.44,-469.87"/>
</g>
<!-- emploi&#45;&#45;nickel -->
<g id="edge23" class="edge">
<title>emploi&#45;&#45;nickel</title>
<path fill="none" stroke="darkgrey" stroke-width="7.72" d="M497.82,-275.3C491.89,-268.62 485.56,-261.51 479.75,-254.97"/>
</g>
<!-- emploi&#45;&#45;exploitation -->
<g id="edge24" class="edge">
<title>emploi&#45;&#45;exploitation</title>
<path fill="none" stroke="darkgrey" stroke-width="3.02" d="M532.71,-267.85C546.8,-222.33 570.9,-144.43 580.78,-112.53"/>
</g>
<!-- emploi&#45;&#45;montagne -->
<g id="edge25" class="edge">
<title>emploi&#45;&#45;montagne</title>
<path fill="none" stroke="darkgrey" stroke-width="1.37" d="M496.16,-277.38C456.67,-238.98 383.77,-168.1 364.05,-148.92"/>
</g>
<!-- emploi&#45;&#45;camion -->
<g id="edge26" class="edge">
<title>emploi&#45;&#45;camion</title>
<path fill="none" stroke="darkgrey" stroke-width="2.21" d="M517.58,-266.56C511.87,-220.05 502.24,-141.53 498.7,-112.63"/>
</g>
<!-- emploi&#45;&#45;économie -->
<g id="edge27" class="edge">
<title>emploi&#45;&#45;économie</title>
<path fill="none" stroke="darkgrey" stroke-width="6.58" d="M530.3,-267.17C536.65,-240.18 545.14,-204.12 550.12,-182.95"/>
</g>
<!-- emploi&#45;&#45;impact environnemental -->
<g id="edge28" class="edge">
<title>emploi&#45;&#45;impact environnemental</title>
<path fill="none" stroke="darkgrey" stroke-width="6.22" d="M545.37,-275.07C556.23,-262.35 568.77,-247.65 578.14,-236.66"/>
</g>
<!-- emploi&#45;&#45;terre -->
<g id="edge32" class="edge">
<title>emploi&#45;&#45;terre</title>
<path fill="none" stroke="darkgrey" stroke-width="1.96" d="M509.19,-268.47C494.04,-228.23 469.89,-164.05 462.04,-143.18"/>
</g>
<!-- emploi&#45;&#45;usine -->
<g id="edge33" class="edge">
<title>emploi&#45;&#45;usine</title>
<path fill="none" stroke="darkgrey" stroke-width="1.8" d="M556.49,-291.78C594.84,-279.87 654.04,-261.49 674.08,-255.27"/>
</g>
<!-- emploi&#45;&#45;érosion -->
<g id="edge34" class="edge">
<title>emploi&#45;&#45;érosion</title>
<path fill="none" stroke="darkgrey" stroke-width="1.03" d="M558.26,-303.58C642.43,-306.13 844.81,-312.24 857.37,-312.62"/>
</g>
<!-- emploi&#45;&#45;sln -->
<g id="edge35" class="edge">
<title>emploi&#45;&#45;sln</title>
<path fill="none" stroke="darkgrey" stroke-width="1.83" d="M486.2,-298.46C452.22,-294.63 403.73,-289.17 385.76,-287.15"/>
</g>
<!-- emploi&#45;&#45;ressource -->
<g id="edge36" class="edge">
<title>emploi&#45;&#45;ressource</title>
<path fill="none" stroke="darkgrey" stroke-width="2.05" d="M556.67,-313.28C584.61,-321.96 621.67,-333.49 637.03,-338.27"/>
</g>
<!-- emploi&#45;&#45;conflit -->
<g id="edge37" class="edge">
<title>emploi&#45;&#45;conflit</title>
<path fill="none" stroke="darkgrey" stroke-width="3.2" d="M520.38,-266.24C517.34,-197.71 510.93,-52.96 509.42,-18.91"/>
</g>
<!-- emploi&#45;&#45;développement -->
<g id="edge38" class="edge">
<title>emploi&#45;&#45;développement</title>
<path fill="none" stroke="darkgrey" stroke-width="1.58" d="M525.41,-338.4C530.62,-393.03 540.13,-492.86 542.08,-513.31"/>
</g>
<!-- emploi&#45;&#45;minerai -->
<g id="edge39" class="edge">
<title>emploi&#45;&#45;minerai</title>
<path fill="none" stroke="darkgrey" stroke-width="1.75" d="M548.29,-277.54C587.33,-240.52 658.53,-172.99 682.35,-150.39"/>
</g>
<!-- emploi&#45;&#45;déforestation -->
<g id="edge40" class="edge">
<title>emploi&#45;&#45;déforestation</title>
<path fill="none" stroke="darkgrey" stroke-width="1.96" d="M554.61,-318.93C613.04,-348.38 731.48,-408.08 753.18,-419.02"/>
</g>
<!-- emploi&#45;&#45;roche -->
<g id="edge29" class="edge">
<title>emploi&#45;&#45;roche</title>
<path fill="none" stroke="darkgrey" stroke-width="1.26" d="M504.07,-271.17C467.89,-207.94 387.73,-67.82 365.9,-29.66"/>
</g>
<!-- emploi&#45;&#45;terre rouge -->
<g id="edge30" class="edge">
<title>emploi&#45;&#45;terre rouge</title>
<path fill="none" stroke="darkgrey" stroke-width="1.67" d="M488.18,-315.08C415.92,-342 250.88,-403.48 225.53,-412.92"/>
</g>
<!-- emploi&#45;&#45;industrie -->
<g id="edge31" class="edge">
<title>emploi&#45;&#45;industrie</title>
<path fill="none" stroke="darkgrey" stroke-width="1.06" d="M502.58,-332.94C450,-415.46 308.14,-638.08 299.32,-651.91"/>
</g>
<!-- emploi&#45;&#45;exportation -->
<g id="edge41" class="edge">
<title>emploi&#45;&#45;exportation</title>
<path fill="none" stroke="darkgrey" stroke-width="1.17" d="M499.77,-330.94C468.29,-371.25 413.21,-441.79 401.54,-456.74"/>
</g>
<!-- richesse&#45;&#45;démolition -->
<g id="edge42" class="edge">
<title>richesse&#45;&#45;démolition</title>
<path fill="none" stroke="darkgrey" stroke-width="1.09" d="M658.76,-71.33C677.09,-98.87 731.23,-180.17 746.5,-203.09"/>
</g>
<!-- richesse&#45;&#45;nickel -->
<g id="edge43" class="edge">
<title>richesse&#45;&#45;nickel</title>
<path fill="none" stroke="darkgrey" stroke-width="2.37" d="M644.27,-69.37C616.56,-93.36 526.99,-170.92 482.96,-209.03"/>
</g>
<!-- richesse&#45;&#45;exploitation -->
<g id="edge44" class="edge">
<title>richesse&#45;&#45;exploitation</title>
<path fill="none" stroke="darkgrey" stroke-width="1.23" d="M642.68,-67.46C630.95,-73.75 611.43,-84.21 598.43,-91.17"/>
</g>
<!-- richesse&#45;&#45;économie -->
<g id="edge45" class="edge">
<title>richesse&#45;&#45;économie</title>
<path fill="none" stroke="darkgrey" stroke-width="1.72" d="M644.91,-70.23C627.97,-88 587.42,-130.55 566.78,-152.2"/>
</g>
<!-- richesse&#45;&#45;impact environnemental -->
<g id="edge46" class="edge">
<title>richesse&#45;&#45;impact environnemental</title>
<path fill="none" stroke="darkgrey" stroke-width="2.57" d="M648.67,-72.5C638.8,-98.32 612.98,-165.85 599.96,-199.9"/>
</g>
<!-- richesse&#45;&#45;terre -->
<g id="edge47" class="edge">
<title>richesse&#45;&#45;terre</title>
<path fill="none" stroke="darkgrey" stroke-width="1.12" d="M642.25,-66.12C607.3,-79.56 494.55,-122.9 466.07,-133.85"/>
</g>
<!-- démolition&#45;&#45;nickel -->
<g id="edge48" class="edge">
<title>démolition&#45;&#45;nickel</title>
<path fill="none" stroke="darkgrey" stroke-width="1.55" d="M743.32,-209.7C708.57,-212.25 557.67,-223.29 490.51,-228.21"/>
</g>
<!-- démolition&#45;&#45;économie -->
<g id="edge49" class="edge">
<title>démolition&#45;&#45;économie</title>
<path fill="none" stroke="darkgrey" stroke-width="1.23" d="M743.56,-207.61C715.91,-201.43 613.56,-178.57 571.99,-169.28"/>
</g>
<!-- démolition&#45;&#45;impact environnemental -->
<g id="edge50" class="edge">
<title>démolition&#45;&#45;impact environnemental</title>
<path fill="none" stroke="darkgrey" stroke-width="1.27" d="M743.33,-209.67C720.59,-211.25 649.75,-216.17 613.73,-218.67"/>
</g>
<!-- argent&#45;&#45;nickel -->
<g id="edge51" class="edge">
<title>argent&#45;&#45;nickel</title>
<path fill="none" stroke="darkgrey" stroke-width="2.78" d="M683.51,-469.76C651.74,-436.05 530.88,-307.83 480.42,-254.29"/>
</g>
<!-- nickel&#45;&#45;exploitation -->
<g id="edge52" class="edge">
<title>nickel&#45;&#45;exploitation</title>
<path fill="none" stroke="darkgrey" stroke-width="3.58" d="M480.8,-206.93C508.65,-177.94 554.64,-130.07 574.98,-108.9"/>
</g>
<!-- nickel&#45;&#45;montagne -->
<g id="edge53" class="edge">
<title>nickel&#45;&#45;montagne</title>
<path fill="none" stroke="darkgrey" stroke-width="2.68" d="M433.59,-209.19C410.44,-188.96 377.39,-160.09 364.48,-148.81"/>
</g>
<!-- nickel&#45;&#45;camion -->
<g id="edge54" class="edge">
<title>nickel&#45;&#45;camion</title>
<path fill="none" stroke="darkgrey" stroke-width="4.09" d="M467.58,-199.34C476.16,-171.14 488.29,-131.27 494.05,-112.33"/>
</g>
<!-- nickel&#45;&#45;économie -->
<g id="edge55" class="edge">
<title>nickel&#45;&#45;économie</title>
<path fill="none" stroke="darkgrey" stroke-width="4.8" d="M485.13,-212.23C502.69,-200.32 524.91,-185.24 539.35,-175.45"/>
</g>
<!-- nickel&#45;&#45;impact environnemental -->
<g id="edge56" class="edge">
<title>nickel&#45;&#45;impact environnemental</title>
<path fill="none" stroke="darkgrey" stroke-width="4.26" d="M490.55,-228.06C515.36,-226.13 548.87,-223.53 570.52,-221.85"/>
</g>
<!-- nickel&#45;&#45;terre -->
<g id="edge59" class="edge">
<title>nickel&#45;&#45;terre</title>
<path fill="none" stroke="darkgrey" stroke-width="2.01" d="M458.56,-197.9C458.85,-178.34 459.2,-155.12 459.37,-143.6"/>
</g>
<!-- nickel&#45;&#45;usine -->
<g id="edge60" class="edge">
<title>nickel&#45;&#45;usine</title>
<path fill="none" stroke="darkgrey" stroke-width="3.34" d="M490.49,-233.86C543.62,-239.23 646.11,-249.6 673.89,-252.41"/>
</g>
<!-- nickel&#45;&#45;sln -->
<g id="edge61" class="edge">
<title>nickel&#45;&#45;sln</title>
<path fill="none" stroke="darkgrey" stroke-width="3.47" d="M431.2,-249.46C414.47,-261.22 394.34,-275.37 384.58,-282.22"/>
</g>
<!-- nickel&#45;&#45;ressource -->
<g id="edge62" class="edge">
<title>nickel&#45;&#45;ressource</title>
<path fill="none" stroke="darkgrey" stroke-width="1.7" d="M486.34,-247.27C530.87,-273.57 614.72,-323.09 638.02,-336.86"/>
</g>
<!-- nickel&#45;&#45;conflit -->
<g id="edge65" class="edge">
<title>nickel&#45;&#45;conflit</title>
<path fill="none" stroke="darkgrey" stroke-width="1.26" d="M465.49,-198.74C477.65,-146.56 501.11,-45.88 507.47,-18.59"/>
</g>
<!-- nickel&#45;&#45;minerai -->
<g id="edge66" class="edge">
<title>nickel&#45;&#45;minerai</title>
<path fill="none" stroke="darkgrey" stroke-width="3.44" d="M488.92,-218.92C541.49,-199.06 646.03,-159.55 679.67,-146.84"/>
</g>
<!-- nickel&#45;&#45;déforestation -->
<g id="edge67" class="edge">
<title>nickel&#45;&#45;déforestation</title>
<path fill="none" stroke="darkgrey" stroke-width="1.79" d="M485.63,-248.13C554.05,-291.72 728.05,-402.56 753.5,-418.77"/>
</g>
<!-- nickel&#45;&#45;roche -->
<g id="edge57" class="edge">
<title>nickel&#45;&#45;roche</title>
<path fill="none" stroke="darkgrey" stroke-width="2.17" d="M444.28,-200.84C422.07,-152.98 379.43,-61.1 365.13,-30.28"/>
</g>
<!-- nickel&#45;&#45;terre rouge -->
<g id="edge58" class="edge">
<title>nickel&#45;&#45;terre rouge</title>
<path fill="none" stroke="darkgrey" stroke-width="2.29" d="M432.39,-250.57C376.28,-294.25 246.1,-395.58 225.12,-411.91"/>
</g>
<!-- nickel&#45;&#45;exportation -->
<g id="edge68" class="edge">
<title>nickel&#45;&#45;exportation</title>
<path fill="none" stroke="darkgrey" stroke-width="1.55" d="M449.91,-262.42C435.34,-319.2 405.88,-434.04 400.27,-455.92"/>
</g>
<!-- nickel&#45;&#45;main d’oeuvre -->
<g id="edge63" class="edge">
<title>nickel&#45;&#45;main d’oeuvre</title>
<path fill="none" stroke="darkgrey" stroke-width="1.06" d="M425.62,-226.61C337.57,-215.83 98.52,-186.58 65.34,-182.52"/>
</g>
<!-- nickel&#45;&#45;usine du sud -->
<g id="edge64" class="edge">
<title>nickel&#45;&#45;usine du sud</title>
<path fill="none" stroke="darkgrey" stroke-width="1.8" d="M430.73,-212.57C354.58,-162.43 143.87,-23.69 116.22,-5.48"/>
</g>
<!-- exploitation&#45;&#45;camion -->
<g id="edge69" class="edge">
<title>exploitation&#45;&#45;camion</title>
<path fill="none" stroke="darkgrey" stroke-width="1.28" d="M570.68,-98.81C553.24,-99.45 524.33,-100.53 508.52,-101.11"/>
</g>
<!-- exploitation&#45;&#45;économie -->
<g id="edge70" class="edge">
<title>exploitation&#45;&#45;économie</title>
<path fill="none" stroke="darkgrey" stroke-width="1.57" d="M579.08,-111.52C574.15,-122.2 567.19,-137.29 561.9,-148.78"/>
</g>
<!-- exploitation&#45;&#45;impact environnemental -->
<g id="edge71" class="edge">
<title>exploitation&#45;&#45;impact environnemental</title>
<path fill="none" stroke="darkgrey" stroke-width="2.46" d="M586.05,-113.21C587.28,-134.57 589.55,-173.96 590.97,-198.51"/>
</g>
<!-- exploitation&#45;&#45;terre -->
<g id="edge73" class="edge">
<title>exploitation&#45;&#45;terre</title>
<path fill="none" stroke="darkgrey" stroke-width="1.12" d="M571.26,-102.49C544.41,-110.63 486.39,-128.22 466.41,-134.28"/>
</g>
<!-- exploitation&#45;&#45;usine -->
<g id="edge74" class="edge">
<title>exploitation&#45;&#45;usine</title>
<path fill="none" stroke="darkgrey" stroke-width="1.7" d="M592.87,-110.68C612.31,-142.12 662.97,-224.01 677.21,-247.03"/>
</g>
<!-- exploitation&#45;&#45;ressource -->
<g id="edge75" class="edge">
<title>exploitation&#45;&#45;ressource</title>
<path fill="none" stroke="darkgrey" stroke-width="1.67" d="M588.7,-112.69C599.86,-158.53 634.25,-299.76 642.42,-333.29"/>
</g>
<!-- exploitation&#45;&#45;minerai -->
<g id="edge76" class="edge">
<title>exploitation&#45;&#45;minerai</title>
<path fill="none" stroke="darkgrey" stroke-width="2.42" d="M598.94,-104.09C620.32,-113.14 661.05,-130.39 680.08,-138.45"/>
</g>
<!-- exploitation&#45;&#45;roche -->
<g id="edge72" class="edge">
<title>exploitation&#45;&#45;roche</title>
<path fill="none" stroke="darkgrey" stroke-width="1.41" d="M571.46,-93.48C530.27,-79.13 408.27,-36.62 371.15,-23.68"/>
</g>
<!-- montagne&#45;&#45;camion -->
<g id="edge77" class="edge">
<title>montagne&#45;&#45;camion</title>
<path fill="none" stroke="darkgrey" stroke-width="1.37" d="M366.07,-141.86C388.64,-134.93 459.24,-113.24 486.47,-104.87"/>
</g>
<!-- montagne&#45;&#45;économie -->
<g id="edge78" class="edge">
<title>montagne&#45;&#45;économie</title>
<path fill="none" stroke="darkgrey" d="M366.43,-144.84C394.51,-147.9 494.76,-158.84 536.17,-163.35"/>
</g>
<!-- montagne&#45;&#45;terre -->
<g id="edge80" class="edge">
<title>montagne&#45;&#45;terre</title>
<path fill="none" stroke="darkgrey" stroke-width="1.13" d="M366.24,-143.48C384.78,-142.07 433.86,-138.33 452.32,-136.93"/>
</g>
<!-- montagne&#45;&#45;roche -->
<g id="edge79" class="edge">
<title>montagne&#45;&#45;roche</title>
<path fill="none" stroke="darkgrey" stroke-width="1.07" d="M359.09,-137C359.31,-116.38 359.94,-55.96 360.2,-30.94"/>
</g>
<!-- camion&#45;&#45;économie -->
<g id="edge81" class="edge">
<title>camion&#45;&#45;économie</title>
<path fill="none" stroke="darkgrey" stroke-width="1.18" d="M504.78,-109.87C514.31,-120.54 530.92,-139.17 542.25,-151.86"/>
</g>
<!-- camion&#45;&#45;impact environnemental -->
<g id="edge82" class="edge">
<title>camion&#45;&#45;impact environnemental</title>
<path fill="none" stroke="darkgrey" stroke-width="1.47" d="M504.47,-110.45C520.24,-130.17 558.3,-177.76 578.73,-203.29"/>
</g>
<!-- camion&#45;&#45;terre -->
<g id="edge84" class="edge">
<title>camion&#45;&#45;terre</title>
<path fill="none" stroke="darkgrey" stroke-width="1.23" d="M488.94,-109.26C481.62,-116 471.22,-125.57 464.93,-131.36"/>
</g>
<!-- camion&#45;&#45;usine -->
<g id="edge85" class="edge">
<title>camion&#45;&#45;usine</title>
<path fill="none" stroke="darkgrey" stroke-width="1.87" d="M506.2,-108.84C538.44,-135.46 649.02,-226.74 675.33,-248.46"/>
</g>
<!-- camion&#45;&#45;sln -->
<g id="edge86" class="edge">
<title>camion&#45;&#45;sln</title>
<path fill="none" stroke="darkgrey" stroke-width="1.19" d="M491.29,-110.95C470.14,-143.9 399.8,-253.48 382.55,-280.36"/>
</g>
<!-- camion&#45;&#45;minerai -->
<g id="edge87" class="edge">
<title>camion&#45;&#45;minerai</title>
<path fill="none" stroke="darkgrey" stroke-width="1.56" d="M508.27,-103.87C542.24,-111.13 645.74,-133.26 679.55,-140.49"/>
</g>
<!-- camion&#45;&#45;roche -->
<g id="edge83" class="edge">
<title>camion&#45;&#45;roche</title>
<path fill="none" stroke="darkgrey" stroke-width="1.39" d="M487.48,-95.66C462.2,-80.6 395.26,-40.72 370.08,-25.72"/>
</g>
<!-- économie&#45;&#45;impact environnemental -->
<g id="edge88" class="edge">
<title>économie&#45;&#45;impact environnemental</title>
<path fill="none" stroke="darkgrey" stroke-width="5.25" d="M564.64,-180.31C569.38,-187.16 575.03,-195.32 579.98,-202.47"/>
</g>
<!-- économie&#45;&#45;terre -->
<g id="edge89" class="edge">
<title>économie&#45;&#45;terre</title>
<path fill="none" stroke="darkgrey" stroke-width="1.09" d="M536.88,-160.02C515.72,-153.55 480.99,-142.95 466.34,-138.48"/>
</g>
<!-- économie&#45;&#45;usine -->
<g id="edge90" class="edge">
<title>économie&#45;&#45;usine</title>
<path fill="none" stroke="darkgrey" stroke-width="1.28" d="M569.3,-175.74C597.36,-195.18 656.55,-236.2 675.21,-249.13"/>
</g>
<!-- économie&#45;&#45;sln -->
<g id="edge91" class="edge">
<title>économie&#45;&#45;sln</title>
<path fill="none" stroke="darkgrey" stroke-width="1.61" d="M539.3,-175.64C502.48,-201.02 408.75,-265.64 384.5,-282.36"/>
</g>
<!-- économie&#45;&#45;ressource -->
<g id="edge92" class="edge">
<title>économie&#45;&#45;ressource</title>
<path fill="none" stroke="darkgrey" stroke-width="1.04" d="M562.57,-181.49C581.69,-218.76 628.21,-309.39 640.92,-334.15"/>
</g>
<!-- économie&#45;&#45;conflit -->
<g id="edge93" class="edge">
<title>économie&#45;&#45;conflit</title>
<path fill="none" stroke="darkgrey" stroke-width="1.72" d="M549.18,-147.99C539.25,-114.24 517.73,-41 511.09,-18.41"/>
</g>
<!-- économie&#45;&#45;minerai -->
<g id="edge94" class="edge">
<title>économie&#45;&#45;minerai</title>
<path fill="none" stroke="darkgrey" stroke-width="1.07" d="M572.06,-162.38C600.59,-157.66 655.76,-148.53 679.29,-144.63"/>
</g>
<!-- impact environnemental&#45;&#45;terre -->
<g id="edge95" class="edge">
<title>impact environnemental&#45;&#45;terre</title>
<path fill="none" stroke="darkgrey" stroke-width="1.03" d="M573.76,-208.51C543.41,-189.36 484.45,-152.14 465.5,-140.18"/>
</g>
<!-- impact environnemental&#45;&#45;usine -->
<g id="edge96" class="edge">
<title>impact environnemental&#45;&#45;usine</title>
<path fill="none" stroke="darkgrey" stroke-width="1.42" d="M612.8,-227.81C632.67,-235.19 661.58,-245.92 674.42,-250.69"/>
</g>
<!-- impact environnemental&#45;&#45;sln -->
<g id="edge97" class="edge">
<title>impact environnemental&#45;&#45;sln</title>
<path fill="none" stroke="darkgrey" stroke-width="1.15" d="M571.36,-226.63C524.77,-241.07 414.1,-275.38 385.53,-284.24"/>
</g>
<!-- impact environnemental&#45;&#45;ressource -->
<g id="edge98" class="edge">
<title>impact environnemental&#45;&#45;ressource</title>
<path fill="none" stroke="darkgrey" stroke-width="1.14" d="M600.8,-240.03C612.73,-267.66 633.72,-316.29 641.32,-333.89"/>
</g>
<!-- impact environnemental&#45;&#45;conflit -->
<g id="edge99" class="edge">
<title>impact environnemental&#45;&#45;conflit</title>
<path fill="none" stroke="darkgrey" stroke-width="1.07" d="M584.25,-200.16C566.21,-154.9 522.94,-46.36 511.77,-18.33"/>
</g>
<!-- impact environnemental&#45;&#45;développement -->
<g id="edge100" class="edge">
<title>impact environnemental&#45;&#45;développement</title>
<path fill="none" stroke="darkgrey" stroke-width="1.23" d="M588.64,-241.51C578.12,-304.26 547.73,-485.47 543.05,-513.4"/>
</g>
<!-- impact environnemental&#45;&#45;exportation -->
<g id="edge102" class="edge">
<title>impact environnemental&#45;&#45;exportation</title>
<path fill="none" stroke="darkgrey" stroke-width="1.28" d="M578.65,-236.99C538.18,-287.23 419.93,-434 401.7,-456.63"/>
</g>
<!-- impact environnemental&#45;&#45;épuisable -->
<g id="edge101" class="edge">
<title>impact environnemental&#45;&#45;épuisable</title>
<path fill="none" stroke="darkgrey" stroke-width="1.06" d="M610.84,-208.85C676.06,-169.26 890.91,-38.82 904.28,-30.71"/>
</g>
<!-- usine&#45;&#45;minerai -->
<g id="edge103" class="edge">
<title>usine&#45;&#45;minerai</title>
<path fill="none" stroke="darkgrey" stroke-width="2.09" d="M681.59,-245.89C683.19,-227.1 687.48,-176.65 689.4,-154.04"/>
</g>
<!-- ressource&#45;&#45;minerai -->
<g id="edge104" class="edge">
<title>ressource&#45;&#45;minerai</title>
<path fill="none" stroke="darkgrey" stroke-width="1.17" d="M645.81,-333.45C652.72,-303.87 679.45,-189.5 687.83,-153.63"/>
</g>
<!-- pollution -->
<g id="node1" class="node">
<title>pollution</title>
<ellipse fill="#fb9606" stroke="white" stroke-width="0" cx="597.36" cy="-271.16" rx="29" ry="29"/>
<text text-anchor="middle" x="549.86" y="-244.76" font-family="Helvetica,sans-Serif" font-size="8.00" fill="#4d4d4d">pollution</text>
</g>
<!-- emploi -->
<g id="node2" class="node">
<title>emploi</title>
<ellipse fill="#fcffa4" stroke="white" stroke-width="0" cx="521.99" cy="-302.49" rx="36" ry="36"/>
<text text-anchor="middle" x="471.99" y="-341.09" font-family="Helvetica,sans-Serif" font-size="8.00" fill="#4d4d4d">emploi</text>
</g>
<!-- richesse -->
<g id="node3" class="node">
<title>richesse</title>
<ellipse fill="#69166e" stroke="white" stroke-width="0" cx="652.63" cy="-62.13" rx="11" ry="11"/>
<text text-anchor="middle" x="624.13" y="-75.73" font-family="Helvetica,sans-Serif" font-size="8.00" fill="#4d4d4d">richesse</text>
</g>
<!-- démolition -->
<g id="node4" class="node">
<title>démolition</title>
<ellipse fill="#3b0964" stroke="white" stroke-width="0" cx="750.55" cy="-209.17" rx="7" ry="7"/>
<text text-anchor="middle" x="721.55" y="-218.77" font-family="Helvetica,sans-Serif" font-size="8.00" fill="#4d4d4d">démolition</text>
</g>
<!-- argent -->
<g id="node5" class="node">
<title>argent</title>
<ellipse fill="#520e6d" stroke="white" stroke-width="0" cx="691.26" cy="-477.99" rx="11" ry="11"/>
<text text-anchor="middle" x="666.26" y="-491.59" font-family="Helvetica,sans-Serif" font-size="8.00" fill="#4d4d4d">argent</text>
</g>
<!-- nickel -->
<g id="node6" class="node">
<title>nickel</title>
<ellipse fill="#fac42a" stroke="white" stroke-width="0" cx="458.08" cy="-230.58" rx="32.5" ry="32.5"/>
<text text-anchor="middle" x="413.58" y="-265.68" font-family="Helvetica,sans-Serif" font-size="8.00" fill="#4d4d4d">nickel</text>
</g>
<!-- exploitation -->
<g id="node7" class="node">
<title>exploitation</title>
<ellipse fill="#9a2865" stroke="white" stroke-width="0" cx="585.19" cy="-98.27" rx="14.5" ry="14.5"/>
<text text-anchor="middle" x="546.19" y="-115.37" font-family="Helvetica,sans-Serif" font-size="8.00" fill="#4d4d4d">exploitation</text>
</g>
<!-- montagne -->
<g id="node8" class="node">
<title>montagne</title>
<ellipse fill="#3d0965" stroke="white" stroke-width="0" cx="359.02" cy="-144.03" rx="7" ry="7"/>
<text text-anchor="middle" x="330.52" y="-153.63" font-family="Helvetica,sans-Serif" font-size="8.00" fill="#4d4d4d">montagne</text>
</g>
<!-- camion -->
<g id="node9" class="node">
<title>camion</title>
<ellipse fill="#64156e" stroke="white" stroke-width="0" cx="497.34" cy="-101.53" rx="11" ry="11"/>
<text text-anchor="middle" x="470.84" y="-115.13" font-family="Helvetica,sans-Serif" font-size="8.00" fill="#4d4d4d">camion</text>
</g>
<!-- économie -->
<g id="node10" class="node">
<title>économie</title>
<ellipse fill="#c03a51" stroke="white" stroke-width="0" cx="554.27" cy="-165.33" rx="18" ry="18"/>
<text text-anchor="middle" x="515.77" y="-185.93" font-family="Helvetica,sans-Serif" font-size="8.00" fill="#4d4d4d">économie</text>
</g>
<!-- impact environnemental -->
<g id="node11" class="node">
<title>impact environnemental</title>
<ellipse fill="#d34743" stroke="white" stroke-width="0" cx="592.22" cy="-220.16" rx="21.5" ry="21.5"/>
<text text-anchor="middle" x="620.72" y="-192.26" font-family="Helvetica,sans-Serif" font-size="8.00" fill="#4d4d4d">impact environnemental</text>
</g>
<!-- terre -->
<g id="node12" class="node">
<title>terre</title>
<ellipse fill="#3b0964" stroke="white" stroke-width="0" cx="459.48" cy="-136.38" rx="7" ry="7"/>
<text text-anchor="middle" x="442.98" y="-145.98" font-family="Helvetica,sans-Serif" font-size="8.00" fill="#4d4d4d">terre</text>
</g>
<!-- usine -->
<g id="node13" class="node">
<title>usine</title>
<ellipse fill="#4f0d6c" stroke="white" stroke-width="0" cx="680.98" cy="-253.13" rx="7" ry="7"/>
<text text-anchor="middle" x="662.48" y="-262.73" font-family="Helvetica,sans-Serif" font-size="8.00" fill="#4d4d4d">usine</text>
</g>
<!-- érosion -->
<g id="node14" class="node">
<title>érosion</title>
<ellipse fill="#02020c" stroke="white" stroke-width="0" cx="857.99" cy="-312.64" rx="0.5" ry="0.5"/>
<text text-anchor="middle" x="841.99" y="-315.74" font-family="Helvetica,sans-Serif" font-size="8.00" fill="#4d4d4d">érosion</text>
</g>
<!-- sln -->
<g id="node15" class="node">
<title>sln</title>
<ellipse fill="#3d0965" stroke="white" stroke-width="0" cx="378.71" cy="-286.35" rx="7" ry="7"/>
<text text-anchor="middle" x="365.21" y="-295.95" font-family="Helvetica,sans-Serif" font-size="8.00" fill="#4d4d4d">sln</text>
</g>
<!-- ressource -->
<g id="node16" class="node">
<title>ressource</title>
<ellipse fill="#440a68" stroke="white" stroke-width="0" cx="644.17" cy="-340.49" rx="7" ry="7"/>
<text text-anchor="middle" x="617.17" y="-350.09" font-family="Helvetica,sans-Serif" font-size="8.00" fill="#4d4d4d">ressource</text>
</g>
<!-- conflit -->
<g id="node17" class="node">
<title>conflit</title>
<ellipse fill="#360961" stroke="white" stroke-width="0" cx="509.09" cy="-11.63" rx="7" ry="7"/>
<text text-anchor="middle" x="489.09" y="-21.23" font-family="Helvetica,sans-Serif" font-size="8.00" fill="#4d4d4d">conflit</text>
</g>
<!-- développement -->
<g id="node18" class="node">
<title>développement</title>
<ellipse fill="#0b0724" stroke="white" stroke-width="0" cx="542.44" cy="-517.03" rx="3.5" ry="3.5"/>
<text text-anchor="middle" x="506.44" y="-523.13" font-family="Helvetica,sans-Serif" font-size="8.00" fill="#4d4d4d">développement</text>
</g>
<!-- minerai -->
<g id="node19" class="node">
<title>minerai</title>
<ellipse fill="#510e6c" stroke="white" stroke-width="0" cx="690.36" cy="-142.8" rx="11" ry="11"/>
<text text-anchor="middle" x="663.86" y="-156.4" font-family="Helvetica,sans-Serif" font-size="8.00" fill="#4d4d4d">minerai</text>
</g>
<!-- déforestation -->
<g id="node20" class="node">
<title>déforestation</title>
<ellipse fill="#1c0c43" stroke="white" stroke-width="0" cx="756.63" cy="-420.76" rx="3.5" ry="3.5"/>
<text text-anchor="middle" x="725.63" y="-426.86" font-family="Helvetica,sans-Serif" font-size="8.00" fill="#4d4d4d">déforestation</text>
</g>
<!-- roche -->
<g id="node21" class="node">
<title>roche</title>
<ellipse fill="#510e6c" stroke="white" stroke-width="0" cx="360.32" cy="-19.91" rx="11" ry="11"/>
<text text-anchor="middle" x="337.82" y="-33.51" font-family="Helvetica,sans-Serif" font-size="8.00" fill="#4d4d4d">roche</text>
</g>
<!-- terre rouge -->
<g id="node22" class="node">
<title>terre rouge</title>
<ellipse fill="#1e0c45" stroke="white" stroke-width="0" cx="222.24" cy="-414.15" rx="3.5" ry="3.5"/>
<text text-anchor="middle" x="196.24" y="-420.25" font-family="Helvetica,sans-Serif" font-size="8.00" fill="#4d4d4d">terre rouge</text>
</g>
<!-- industrie -->
<g id="node23" class="node">
<title>industrie</title>
<ellipse fill="#02020e" stroke="white" stroke-width="0" cx="298.89" cy="-652.59" rx="0.5" ry="0.5"/>
<text text-anchor="middle" x="279.89" y="-655.69" font-family="Helvetica,sans-Serif" font-size="8.00" fill="#4d4d4d">industrie</text>
</g>
<!-- exportation -->
<g id="node24" class="node">
<title>exportation</title>
<ellipse fill="#0c0826" stroke="white" stroke-width="0" cx="399.33" cy="-459.57" rx="3.5" ry="3.5"/>
<text text-anchor="middle" x="372.33" y="-465.67" font-family="Helvetica,sans-Serif" font-size="8.00" fill="#4d4d4d">exportation</text>
</g>
<!-- main d’oeuvre -->
<g id="node25" class="node">
<title>main d’oeuvre</title>
<ellipse fill="#1b0c41" stroke="white" stroke-width="0" cx="61.5" cy="-182.05" rx="3.5" ry="3.5"/>
<text text-anchor="middle" x="29" y="-188.15" font-family="Helvetica,sans-Serif" font-size="8.00" fill="#4d4d4d">main d’oeuvre</text>
</g>
<!-- usine du sud -->
<g id="node26" class="node">
<title>usine du sud</title>
<ellipse fill="#09061f" stroke="white" stroke-width="0" cx="113.21" cy="-3.5" rx="3.5" ry="3.5"/>
<text text-anchor="middle" x="83.21" y="-9.6" font-family="Helvetica,sans-Serif" font-size="8.00" fill="#4d4d4d">usine du sud</text>
</g>
<!-- épuisable -->
<g id="node27" class="node">
<title>épuisable</title>
<ellipse fill="#000004" stroke="white" stroke-width="0" cx="904.93" cy="-30.31" rx="0.5" ry="0.5"/>
<text text-anchor="middle" x="883.93" y="-33.41" font-family="Helvetica,sans-Serif" font-size="8.00" fill="#4d4d4d">épuisable</text>
</g>
</g>
</svg>
