<?xml version="1.0" encoding="UTF-8" standalone="no"?>
<!DOCTYPE svg PUBLIC "-//W3C//DTD SVG 1.1//EN"
 "http://www.w3.org/Graphics/SVG/1.1/DTD/svg11.dtd">
<!-- Generated by graphviz version 2.43.0 (0)
 -->
<!-- Pages: 1 -->
<svg width="332pt" height="293pt"
 viewBox="0.00 0.00 332.07 293.14" xmlns="http://www.w3.org/2000/svg" xmlns:xlink="http://www.w3.org/1999/xlink">
<g id="graph0" class="graph" transform="scale(1 1) rotate(0) translate(4 289.14)">
<polygon fill="white" stroke="transparent" points="-4,4 -4,-289.14 328.07,-289.14 328.07,4 -4,4"/>
<!-- pollution&#45;&#45;environnement -->
<g id="edge1" class="edge">
<title>pollution&#45;&#45;environnement</title>
<path fill="none" stroke="darkgrey" d="M216.37,-158.62C248.13,-174.11 293.98,-196.48 310.68,-204.62"/>
</g>
<!-- pollution&#45;&#45;destruction -->
<g id="edge2" class="edge">
<title>pollution&#45;&#45;destruction</title>
<path fill="none" stroke="darkgrey" stroke-width="10" d="M167.37,-174.9C148.59,-211.78 119.93,-268.05 116.42,-274.95"/>
</g>
<!-- pollution&#45;&#45;économie -->
<g id="edge3" class="edge">
<title>pollution&#45;&#45;économie</title>
<path fill="none" stroke="darkgrey" stroke-width="1.24" d="M151.87,-125.9C122.47,-110.4 80.63,-88.35 61.83,-78.43"/>
</g>
<!-- pollution&#45;&#45;emploi -->
<g id="edge4" class="edge">
<title>pollution&#45;&#45;emploi</title>
<path fill="none" stroke="darkgrey" stroke-width="2.38" d="M200.15,-110.5C215.02,-81.25 236.04,-39.91 245.63,-21.06"/>
</g>
<!-- pollution -->
<g id="node1" class="node">
<title>pollution</title>
<ellipse fill="#fcffa4" stroke="white" stroke-width="0" cx="183.76" cy="-142.72" rx="36" ry="36"/>
<text text-anchor="middle" x="129.26" y="-181.32" font-family="Helvetica,sans-Serif" font-size="8.00" fill="#4d4d4d">pollution</text>
</g>
<!-- environnement -->
<g id="node2" class="node">
<title>environnement</title>
<ellipse fill="#490b6a" stroke="white" stroke-width="0" cx="317.07" cy="-207.74" rx="7" ry="7"/>
<text text-anchor="middle" x="279.07" y="-217.34" font-family="Helvetica,sans-Serif" font-size="8.00" fill="#4d4d4d">environnement</text>
</g>
<!-- destruction -->
<g id="node3" class="node">
<title>destruction</title>
<ellipse fill="#000004" stroke="white" stroke-width="0" cx="116.06" cy="-275.64" rx="0.5" ry="0.5"/>
<text text-anchor="middle" x="92.06" y="-278.74" font-family="Helvetica,sans-Serif" font-size="8.00" fill="#4d4d4d">destruction</text>
</g>
<!-- économie -->
<g id="node4" class="node">
<title>économie</title>
<ellipse fill="#6c186e" stroke="white" stroke-width="0" cx="52" cy="-73.25" rx="11" ry="11"/>
<text text-anchor="middle" x="20.5" y="-86.85" font-family="Helvetica,sans-Serif" font-size="8.00" fill="#4d4d4d">économie</text>
</g>
<!-- emploi -->
<g id="node5" class="node">
<title>emploi</title>
<ellipse fill="#520e6d" stroke="white" stroke-width="0" cx="250.74" cy="-11" rx="11" ry="11"/>
<text text-anchor="middle" x="225.74" y="-24.6" font-family="Helvetica,sans-Serif" font-size="8.00" fill="#4d4d4d">emploi</text>
</g>
</g>
</svg>
