<?xml version="1.0" encoding="UTF-8" standalone="no"?>
<!DOCTYPE svg PUBLIC "-//W3C//DTD SVG 1.1//EN"
 "http://www.w3.org/Graphics/SVG/1.1/DTD/svg11.dtd">
<!-- Generated by graphviz version 2.43.0 (0)
 -->
<!-- Pages: 1 -->
<svg width="755pt" height="556pt"
 viewBox="0.00 0.00 755.18 555.78" xmlns="http://www.w3.org/2000/svg" xmlns:xlink="http://www.w3.org/1999/xlink">
<g id="graph0" class="graph" transform="scale(1 1) rotate(0) translate(4 551.78)">
<polygon fill="white" stroke="transparent" points="-4,4 -4,-551.78 751.18,-551.78 751.18,4 -4,4"/>
<!-- pollution&#45;&#45;emploi -->
<g id="edge1" class="edge">
<title>pollution&#45;&#45;emploi</title>
<path fill="none" stroke="darkgrey" stroke-width="7.03" d="M425.89,-244.75C408.38,-230.27 381.03,-207.65 363.46,-193.13"/>
</g>
<!-- pollution&#45;&#45;économie du pays -->
<g id="edge2" class="edge">
<title>pollution&#45;&#45;économie du pays</title>
<path fill="none" stroke="darkgrey" stroke-width="4.17" d="M431.81,-239.77C423.81,-225.87 413.15,-207.32 406.15,-195.16"/>
</g>
<!-- pollution&#45;&#45;richesse -->
<g id="edge3" class="edge">
<title>pollution&#45;&#45;richesse</title>
<path fill="none" stroke="darkgrey" stroke-width="1.66" d="M441.2,-236.99C439.63,-213.13 437.2,-176.03 436.17,-160.44"/>
</g>
<!-- pollution&#45;&#45;impact environnemental -->
<g id="edge4" class="edge">
<title>pollution&#45;&#45;impact environnemental</title>
<path fill="none" stroke="darkgrey" stroke-width="10" d="M462.17,-248.72C467.85,-245.86 474.22,-242.66 480.46,-239.51"/>
</g>
<!-- pollution&#45;&#45;conflit -->
<g id="edge5" class="edge">
<title>pollution&#45;&#45;conflit</title>
<path fill="none" stroke="darkgrey" stroke-width="2.24" d="M440.78,-236.85C437.72,-200.51 431.67,-128.67 429.34,-100.99"/>
</g>
<!-- pollution&#45;&#45;revenu -->
<g id="edge6" class="edge">
<title>pollution&#45;&#45;revenu</title>
<path fill="none" stroke="darkgrey" stroke-width="1.93" d="M432.09,-239.75C414.78,-208.79 381.15,-148.64 370.34,-129.31"/>
</g>
<!-- pollution&#45;&#45;nickel -->
<g id="edge7" class="edge">
<title>pollution&#45;&#45;nickel</title>
<path fill="none" stroke="darkgrey" stroke-width="3.96" d="M421.63,-253.75C400.77,-248.95 368.93,-241.62 347.98,-236.8"/>
</g>
<!-- pollution&#45;&#45;milieu -->
<g id="edge8" class="edge">
<title>pollution&#45;&#45;milieu</title>
<path fill="none" stroke="darkgrey" stroke-width="1.18" d="M435.44,-279.03C424.86,-309.19 405.8,-363.55 400.93,-377.46"/>
</g>
<!-- pollution&#45;&#45;exploitation -->
<g id="edge9" class="edge">
<title>pollution&#45;&#45;exploitation</title>
<path fill="none" stroke="darkgrey" stroke-width="1.99" d="M420.8,-256.91C404.66,-255.68 383.34,-254.05 370.6,-253.08"/>
</g>
<!-- pollution&#45;&#45;montagne -->
<g id="edge10" class="edge">
<title>pollution&#45;&#45;montagne</title>
<path fill="none" stroke="darkgrey" stroke-width="2.14" d="M451.98,-239.16C455.53,-231.81 459.33,-223.94 461.9,-218.61"/>
</g>
<!-- pollution&#45;&#45;biodiversité -->
<g id="edge11" class="edge">
<title>pollution&#45;&#45;biodiversité</title>
<path fill="none" stroke="darkgrey" stroke-width="1.38" d="M453.41,-277.32C472.71,-310.82 511.93,-378.89 520.86,-394.39"/>
</g>
<!-- pollution&#45;&#45;développement -->
<g id="edge12" class="edge">
<title>pollution&#45;&#45;développement</title>
<path fill="none" stroke="darkgrey" stroke-width="2.18" d="M451.96,-238.99C467.93,-205.52 499.49,-139.37 507.13,-123.36"/>
</g>
<!-- pollution&#45;&#45;engin -->
<g id="edge13" class="edge">
<title>pollution&#45;&#45;engin</title>
<path fill="none" stroke="darkgrey" stroke-width="2.38" d="M424.76,-246.48C419.06,-242.63 412.99,-238.51 408.14,-235.23"/>
</g>
<!-- pollution&#45;&#45;minerai -->
<g id="edge14" class="edge">
<title>pollution&#45;&#45;minerai</title>
<path fill="none" stroke="darkgrey" stroke-width="2.02" d="M426.53,-272.99C413.25,-284.9 394.6,-301.61 382.06,-312.85"/>
</g>
<!-- pollution&#45;&#45;terre -->
<g id="edge15" class="edge">
<title>pollution&#45;&#45;terre</title>
<path fill="none" stroke="darkgrey" stroke-width="1.92" d="M426.51,-273.49C423.5,-276.27 420.47,-279.08 417.83,-281.52"/>
</g>
<!-- pollution&#45;&#45;usine -->
<g id="edge16" class="edge">
<title>pollution&#45;&#45;usine</title>
<path fill="none" stroke="darkgrey" stroke-width="2.17" d="M421.72,-253.07C387.72,-244.13 321.31,-226.65 292.05,-218.94"/>
</g>
<!-- pollution&#45;&#45;opérateur minier -->
<g id="edge17" class="edge">
<title>pollution&#45;&#45;opérateur minier</title>
<path fill="none" stroke="darkgrey" stroke-width="1.07" d="M421.31,-261.98C391.45,-266.75 338.27,-275.25 315.34,-278.92"/>
</g>
<!-- pollution&#45;&#45;vision positive de la ressource -->
<g id="edge18" class="edge">
<title>pollution&#45;&#45;vision positive de la ressource</title>
<path fill="none" stroke="darkgrey" stroke-width="1.15" d="M424.11,-269.79C395.84,-286.94 343.25,-318.82 325.27,-329.73"/>
</g>
<!-- pollution&#45;&#45;nuisance -->
<g id="edge19" class="edge">
<title>pollution&#45;&#45;nuisance</title>
<path fill="none" stroke="darkgrey" stroke-width="1.08" d="M462.56,-266.74C499.68,-281.94 576.29,-313.29 583.39,-316.2"/>
</g>
<!-- emploi&#45;&#45;économie du pays -->
<g id="edge21" class="edge">
<title>emploi&#45;&#45;économie du pays</title>
<path fill="none" stroke="darkgrey" stroke-width="5.51" d="M368.18,-180.57C373.58,-180.91 379.25,-181.27 384.22,-181.59"/>
</g>
<!-- emploi&#45;&#45;richesse -->
<g id="edge22" class="edge">
<title>emploi&#45;&#45;richesse</title>
<path fill="none" stroke="darkgrey" stroke-width="2.5" d="M367.27,-173.16C387.01,-167.39 415.63,-159.02 428.7,-155.2"/>
</g>
<!-- emploi&#45;&#45;impact environnemental -->
<g id="edge23" class="edge">
<title>emploi&#45;&#45;impact environnemental</title>
<path fill="none" stroke="darkgrey" stroke-width="8.08" d="M367.66,-184.77C395.35,-192.11 444.4,-205.09 477.75,-213.92"/>
</g>
<!-- emploi&#45;&#45;conflit -->
<g id="edge24" class="edge">
<title>emploi&#45;&#45;conflit</title>
<path fill="none" stroke="darkgrey" stroke-width="3.32" d="M361.23,-163.21C378.69,-144.11 407.23,-112.89 420.78,-98.06"/>
</g>
<!-- emploi&#45;&#45;revenu -->
<g id="edge25" class="edge">
<title>emploi&#45;&#45;revenu</title>
<path fill="none" stroke="darkgrey" stroke-width="2.97" d="M353.94,-158.97C357.62,-148.82 361.83,-137.18 364.43,-130"/>
</g>
<!-- emploi&#45;&#45;nickel -->
<g id="edge26" class="edge">
<title>emploi&#45;&#45;nickel</title>
<path fill="none" stroke="darkgrey" stroke-width="5.35" d="M339,-199.43C337.51,-203.38 335.95,-207.52 334.46,-211.48"/>
</g>
<!-- emploi&#45;&#45;exploitation -->
<g id="edge28" class="edge">
<title>emploi&#45;&#45;exploitation</title>
<path fill="none" stroke="darkgrey" stroke-width="2.5" d="M350.44,-200.72C352.8,-214.02 355.73,-230.53 357.64,-241.22"/>
</g>
<!-- emploi&#45;&#45;montagne -->
<g id="edge29" class="edge">
<title>emploi&#45;&#45;montagne</title>
<path fill="none" stroke="darkgrey" stroke-width="1.39" d="M367.51,-185.02C394.72,-192.6 440.87,-205.45 458.18,-210.27"/>
</g>
<!-- emploi&#45;&#45;développement -->
<g id="edge31" class="edge">
<title>emploi&#45;&#45;développement</title>
<path fill="none" stroke="darkgrey" stroke-width="1.45" d="M366.83,-171.8C405.55,-157.62 487.93,-127.45 505.49,-121.02"/>
</g>
<!-- emploi&#45;&#45;engin -->
<g id="edge32" class="edge">
<title>emploi&#45;&#45;engin</title>
<path fill="none" stroke="darkgrey" stroke-width="1.86" d="M362.25,-194.1C371.6,-203.01 383.1,-213.96 390.65,-221.16"/>
</g>
<!-- emploi&#45;&#45;minerai -->
<g id="edge33" class="edge">
<title>emploi&#45;&#45;minerai</title>
<path fill="none" stroke="darkgrey" stroke-width="2.05" d="M349.84,-200.72C354.17,-229.55 361.77,-280.21 365.8,-307.09"/>
</g>
<!-- emploi&#45;&#45;terre -->
<g id="edge34" class="edge">
<title>emploi&#45;&#45;terre</title>
<path fill="none" stroke="darkgrey" stroke-width="2.15" d="M357.59,-198.35C371.13,-221.96 393.63,-261.21 404.04,-279.36"/>
</g>
<!-- emploi&#45;&#45;usine -->
<g id="edge35" class="edge">
<title>emploi&#45;&#45;usine</title>
<path fill="none" stroke="darkgrey" stroke-width="2.07" d="M327.39,-189.21C315.75,-195.28 301.19,-202.86 290.84,-208.25"/>
</g>
<!-- emploi&#45;&#45;opérateur minier -->
<g id="edge36" class="edge">
<title>emploi&#45;&#45;opérateur minier</title>
<path fill="none" stroke="darkgrey" stroke-width="1.81" d="M338.25,-199.25C329.35,-220.62 315.59,-253.63 308.64,-270.3"/>
</g>
<!-- emploi&#45;&#45;vision positive de la ressource -->
<g id="edge37" class="edge">
<title>emploi&#45;&#45;vision positive de la ressource</title>
<path fill="none" stroke="darkgrey" stroke-width="1.78" d="M342.78,-200.66C336.48,-235.93 324.23,-304.47 320.3,-326.5"/>
</g>
<!-- emploi&#45;&#45;production -->
<g id="edge27" class="edge">
<title>emploi&#45;&#45;production</title>
<path fill="none" stroke="darkgrey" stroke-width="1.06" d="M329.9,-165.47C300.05,-140.93 239.36,-91.07 225.55,-79.72"/>
</g>
<!-- emploi&#45;&#45;main d’oeuvre -->
<g id="edge30" class="edge">
<title>emploi&#45;&#45;main d’oeuvre</title>
<path fill="none" stroke="darkgrey" stroke-width="1.09" d="M326.48,-187.41C295.06,-200.23 236.39,-224.17 221.37,-230.31"/>
</g>
<!-- emploi&#45;&#45;commerce -->
<g id="edge38" class="edge">
<title>emploi&#45;&#45;commerce</title>
<path fill="none" stroke="darkgrey" stroke-width="1.45" d="M342.85,-157.9C339.25,-137.56 334.04,-108.06 331.66,-94.59"/>
</g>
<!-- économie du pays&#45;&#45;richesse -->
<g id="edge39" class="edge">
<title>économie du pays&#45;&#45;richesse</title>
<path fill="none" stroke="darkgrey" stroke-width="1.41" d="M410.54,-173.23C417.11,-167.99 425.01,-161.68 430.18,-157.55"/>
</g>
<!-- économie du pays&#45;&#45;impact environnemental -->
<g id="edge40" class="edge">
<title>économie du pays&#45;&#45;impact environnemental</title>
<path fill="none" stroke="darkgrey" stroke-width="6.9" d="M412.86,-187.51C429.14,-193.32 456.63,-203.14 478.66,-211.01"/>
</g>
<!-- économie du pays&#45;&#45;conflit -->
<g id="edge41" class="edge">
<title>économie du pays&#45;&#45;conflit</title>
<path fill="none" stroke="darkgrey" stroke-width="2.25" d="M403.37,-168.43C409.3,-149.77 419.63,-117.28 424.98,-100.48"/>
</g>
<!-- économie du pays&#45;&#45;revenu -->
<g id="edge42" class="edge">
<title>économie du pays&#45;&#45;revenu</title>
<path fill="none" stroke="darkgrey" stroke-width="1.17" d="M391.95,-169.64C385.26,-157.23 375.42,-138.98 370.3,-129.46"/>
</g>
<!-- économie du pays&#45;&#45;nickel -->
<g id="edge43" class="edge">
<title>économie du pays&#45;&#45;nickel</title>
<path fill="none" stroke="darkgrey" stroke-width="2.81" d="M386.66,-190.9C375.16,-198.77 357.82,-210.65 344.76,-219.6"/>
</g>
<!-- économie du pays&#45;&#45;exploitation -->
<g id="edge44" class="edge">
<title>économie du pays&#45;&#45;exploitation</title>
<path fill="none" stroke="darkgrey" stroke-width="1.16" d="M391.68,-195.31C384.06,-208.83 372.2,-229.88 365.23,-242.24"/>
</g>
<!-- économie du pays&#45;&#45;montagne -->
<g id="edge45" class="edge">
<title>économie du pays&#45;&#45;montagne</title>
<path fill="none" stroke="darkgrey" stroke-width="1.09" d="M412.27,-188.52C426.31,-194.82 447.79,-204.45 458.48,-209.25"/>
</g>
<!-- économie du pays&#45;&#45;développement -->
<g id="edge46" class="edge">
<title>économie du pays&#45;&#45;développement</title>
<path fill="none" stroke="darkgrey" stroke-width="1.03" d="M411.5,-175.33C436.54,-161.04 491.34,-129.78 505.45,-121.73"/>
</g>
<!-- économie du pays&#45;&#45;engin -->
<g id="edge47" class="edge">
<title>économie du pays&#45;&#45;engin</title>
<path fill="none" stroke="darkgrey" stroke-width="1.11" d="M398.84,-197.18C398.81,-203.86 398.78,-211.64 398.76,-217.81"/>
</g>
<!-- économie du pays&#45;&#45;minerai -->
<g id="edge48" class="edge">
<title>économie du pays&#45;&#45;minerai</title>
<path fill="none" stroke="darkgrey" stroke-width="1.48" d="M395.86,-196.7C390.28,-222.89 378.36,-278.76 372.26,-307.35"/>
</g>
<!-- économie du pays&#45;&#45;terre -->
<g id="edge49" class="edge">
<title>économie du pays&#45;&#45;terre</title>
<path fill="none" stroke="darkgrey" stroke-width="1.19" d="M400.38,-197.34C402.56,-218.97 406.56,-258.68 408.51,-277.99"/>
</g>
<!-- économie du pays&#45;&#45;usine -->
<g id="edge50" class="edge">
<title>économie du pays&#45;&#45;usine</title>
<path fill="none" stroke="darkgrey" stroke-width="1.58" d="M384.5,-186.39C361.16,-192.67 315.31,-205 291.98,-211.28"/>
</g>
<!-- économie du pays&#45;&#45;opérateur minier -->
<g id="edge51" class="edge">
<title>économie du pays&#45;&#45;opérateur minier</title>
<path fill="none" stroke="darkgrey" stroke-width="1.1" d="M388.77,-193.03C369.8,-212.71 329.29,-254.76 312.19,-272.51"/>
</g>
<!-- richesse&#45;&#45;impact environnemental -->
<g id="edge52" class="edge">
<title>richesse&#45;&#45;impact environnemental</title>
<path fill="none" stroke="darkgrey" stroke-width="2.97" d="M441,-157.97C450.19,-166.31 469.66,-184 486.02,-198.85"/>
</g>
<!-- richesse&#45;&#45;conflit -->
<g id="edge53" class="edge">
<title>richesse&#45;&#45;conflit</title>
<path fill="none" stroke="darkgrey" stroke-width="1.23" d="M434.86,-145.88C433.58,-134.82 431.15,-113.69 429.66,-100.74"/>
</g>
<!-- richesse&#45;&#45;nickel -->
<g id="edge54" class="edge">
<title>richesse&#45;&#45;nickel</title>
<path fill="none" stroke="darkgrey" stroke-width="1.77" d="M429.84,-157.39C413.93,-168.89 369.44,-201.07 344.42,-219.16"/>
</g>
<!-- richesse&#45;&#45;exploitation -->
<g id="edge55" class="edge">
<title>richesse&#45;&#45;exploitation</title>
<path fill="none" stroke="darkgrey" stroke-width="1.23" d="M431.38,-158.76C418.75,-175.22 381.7,-223.46 366.36,-243.43"/>
</g>
<!-- richesse&#45;&#45;terre -->
<g id="edge56" class="edge">
<title>richesse&#45;&#45;terre</title>
<path fill="none" stroke="darkgrey" stroke-width="1.09" d="M434.37,-160.08C430.13,-182.16 416.94,-250.99 411.75,-278.04"/>
</g>
<!-- richesse&#45;&#45;usine -->
<g id="edge57" class="edge">
<title>richesse&#45;&#45;usine</title>
<path fill="none" stroke="darkgrey" stroke-width="1" d="M428.9,-155.82C404.91,-165.23 323.84,-197.02 291.3,-209.78"/>
</g>
<!-- impact environnemental&#45;&#45;conflit -->
<g id="edge58" class="edge">
<title>impact environnemental&#45;&#45;conflit</title>
<path fill="none" stroke="darkgrey" stroke-width="2.69" d="M493.46,-192.59C474.37,-162.42 446.37,-118.16 434.3,-99.07"/>
</g>
<!-- impact environnemental&#45;&#45;revenu -->
<g id="edge59" class="edge">
<title>impact environnemental&#45;&#45;revenu</title>
<path fill="none" stroke="darkgrey" stroke-width="2" d="M482.95,-202.72C447.59,-178.48 391.21,-139.83 372.88,-127.26"/>
</g>
<!-- impact environnemental&#45;&#45;nickel -->
<g id="edge60" class="edge">
<title>impact environnemental&#45;&#45;nickel</title>
<path fill="none" stroke="darkgrey" stroke-width="5.64" d="M476.51,-224.91C438.44,-226.69 379.88,-229.43 348.46,-230.9"/>
</g>
<!-- impact environnemental&#45;&#45;milieu -->
<g id="edge61" class="edge">
<title>impact environnemental&#45;&#45;milieu</title>
<path fill="none" stroke="darkgrey" stroke-width="1.97" d="M491.83,-252.47C462.96,-292.7 413.31,-361.89 402.07,-377.55"/>
</g>
<!-- impact environnemental&#45;&#45;exploitation -->
<g id="edge63" class="edge">
<title>impact environnemental&#45;&#45;exploitation</title>
<path fill="none" stroke="darkgrey" stroke-width="4.53" d="M477.29,-229.94C442.81,-236.47 392.57,-245.99 370.58,-250.16"/>
</g>
<!-- impact environnemental&#45;&#45;montagne -->
<g id="edge64" class="edge">
<title>impact environnemental&#45;&#45;montagne</title>
<path fill="none" stroke="darkgrey" stroke-width="2.65" d="M477.57,-215.07C475.56,-214.61 473.68,-214.17 472.03,-213.79"/>
</g>
<!-- impact environnemental&#45;&#45;biodiversité -->
<g id="edge65" class="edge">
<title>impact environnemental&#45;&#45;biodiversité</title>
<path fill="none" stroke="darkgrey" stroke-width="1.07" d="M514.87,-259.34C517.4,-304.02 521.49,-376.35 522.48,-393.73"/>
</g>
<!-- impact environnemental&#45;&#45;développement -->
<g id="edge66" class="edge">
<title>impact environnemental&#45;&#45;développement</title>
<path fill="none" stroke="darkgrey" stroke-width="2.3" d="M511.43,-187.04C510.49,-162.81 509.35,-133.57 508.96,-123.45"/>
</g>
<!-- impact environnemental&#45;&#45;engin -->
<g id="edge67" class="edge">
<title>impact environnemental&#45;&#45;engin</title>
<path fill="none" stroke="darkgrey" stroke-width="3.28" d="M476.72,-224.99C453.61,-226.13 425.17,-227.54 409.82,-228.3"/>
</g>
<!-- impact environnemental&#45;&#45;minerai -->
<g id="edge68" class="edge">
<title>impact environnemental&#45;&#45;minerai</title>
<path fill="none" stroke="darkgrey" stroke-width="2.73" d="M483.27,-244.05C452.92,-265.46 406.91,-297.92 383.42,-314.48"/>
</g>
<!-- impact environnemental&#45;&#45;terre -->
<g id="edge69" class="edge">
<title>impact environnemental&#45;&#45;terre</title>
<path fill="none" stroke="darkgrey" stroke-width="2.17" d="M482.42,-242.62C460.78,-256.45 433.12,-274.11 418.94,-283.17"/>
</g>
<!-- impact environnemental&#45;&#45;usine -->
<g id="edge71" class="edge">
<title>impact environnemental&#45;&#45;usine</title>
<path fill="none" stroke="darkgrey" stroke-width="2.31" d="M476.85,-221.97C424.21,-220.17 328.53,-216.89 292.17,-215.64"/>
</g>
<!-- impact environnemental&#45;&#45;opérateur minier -->
<g id="edge73" class="edge">
<title>impact environnemental&#45;&#45;opérateur minier</title>
<path fill="none" stroke="darkgrey" stroke-width="1.5" d="M477.93,-232.83C429.7,-246.12 345.23,-269.4 315.25,-277.67"/>
</g>
<!-- impact environnemental&#45;&#45;vision positive de la ressource -->
<g id="edge74" class="edge">
<title>impact environnemental&#45;&#45;vision positive de la ressource</title>
<path fill="none" stroke="darkgrey" stroke-width="2.21" d="M481.26,-241.17C434.29,-267.91 348.97,-316.47 325.29,-329.95"/>
</g>
<!-- impact environnemental&#45;&#45;nuisance -->
<g id="edge77" class="edge">
<title>impact environnemental&#45;&#45;nuisance</title>
<path fill="none" stroke="darkgrey" d="M534.74,-251.93C554.32,-277.61 580.41,-311.82 583.6,-315.99"/>
</g>
<!-- impact environnemental&#45;&#45;commerce -->
<g id="edge81" class="edge">
<title>impact environnemental&#45;&#45;commerce</title>
<path fill="none" stroke="darkgrey" stroke-width="1.66" d="M483.92,-201.68C439.71,-168.77 358.1,-108.01 336.02,-91.57"/>
</g>
<!-- impact environnemental&#45;&#45;amélioration environnementale -->
<g id="edge62" class="edge">
<title>impact environnemental&#45;&#45;amélioration environnementale</title>
<path fill="none" stroke="darkgrey" stroke-width="1.28" d="M533.09,-192.87C564.77,-145.47 623.59,-57.42 635.21,-40.02"/>
</g>
<!-- impact environnemental&#45;&#45;industrie -->
<g id="edge70" class="edge">
<title>impact environnemental&#45;&#45;industrie</title>
<path fill="none" stroke="darkgrey" stroke-width="1.12" d="M543.25,-203.67C597.28,-168.98 705.27,-99.64 715.28,-93.22"/>
</g>
<!-- impact environnemental&#45;&#45;relation internationale -->
<g id="edge72" class="edge">
<title>impact environnemental&#45;&#45;relation internationale</title>
<path fill="none" stroke="darkgrey" stroke-width="1.01" d="M543.49,-203.99C580.48,-180.81 638.62,-144.37 645.74,-139.9"/>
</g>
<!-- impact environnemental&#45;&#45;procédé industriel -->
<g id="edge75" class="edge">
<title>impact environnemental&#45;&#45;procédé industriel</title>
<path fill="none" stroke="darkgrey" stroke-width="1.2" d="M548.63,-228.25C588.99,-233.94 651.07,-242.68 666.85,-244.9"/>
</g>
<!-- impact environnemental&#45;&#45;danger -->
<g id="edge76" class="edge">
<title>impact environnemental&#45;&#45;danger</title>
<path fill="none" stroke="darkgrey" stroke-width="1.5" d="M541.51,-245.11C589.61,-281.83 682.13,-352.48 690.7,-359.03"/>
</g>
<!-- impact environnemental&#45;&#45;transition -->
<g id="edge78" class="edge">
<title>impact environnemental&#45;&#45;transition</title>
<path fill="none" stroke="darkgrey" stroke-width="1.15" d="M547.68,-232.72C609.58,-249.62 733.3,-283.39 744.77,-286.52"/>
</g>
<!-- impact environnemental&#45;&#45;épuisement de la ressource -->
<g id="edge79" class="edge">
<title>impact environnemental&#45;&#45;épuisement de la ressource</title>
<path fill="none" stroke="darkgrey" stroke-width="1.51" d="M530.7,-254.71C561.37,-308.77 621.26,-414.35 626.8,-424.13"/>
</g>
<!-- impact environnemental&#45;&#45;politique -->
<g id="edge80" class="edge">
<title>impact environnemental&#45;&#45;politique</title>
<path fill="none" stroke="darkgrey" stroke-width="1.01" d="M548.39,-217.43C606.83,-207.93 718.81,-189.73 740.13,-186.27"/>
</g>
<!-- conflit&#45;&#45;revenu -->
<g id="edge82" class="edge">
<title>conflit&#45;&#45;revenu</title>
<path fill="none" stroke="darkgrey" stroke-width="1.4" d="M418.51,-95.11C405.75,-102.05 383.9,-113.93 373.19,-119.75"/>
</g>
<!-- conflit&#45;&#45;nickel -->
<g id="edge83" class="edge">
<title>conflit&#45;&#45;nickel</title>
<path fill="none" stroke="darkgrey" stroke-width="1.1" d="M421.73,-99.07C405.03,-122.42 361.23,-183.7 339.45,-214.18"/>
</g>
<!-- revenu&#45;&#45;nickel -->
<g id="edge84" class="edge">
<title>revenu&#45;&#45;nickel</title>
<path fill="none" stroke="darkgrey" stroke-width="2.22" d="M364.39,-129.97C358.49,-145.97 343.54,-186.49 334.36,-211.36"/>
</g>
<!-- revenu&#45;&#45;engin -->
<g id="edge85" class="edge">
<title>revenu&#45;&#45;engin</title>
<path fill="none" stroke="darkgrey" stroke-width="1.09" d="M368.99,-130.1C374.41,-148.1 388.96,-196.42 395.48,-218.08"/>
</g>
<!-- nickel&#45;&#45;milieu -->
<g id="edge87" class="edge">
<title>nickel&#45;&#45;milieu</title>
<path fill="none" stroke="darkgrey" stroke-width="1.19" d="M336.31,-251.38C353.78,-287 389.86,-360.57 398.08,-377.32"/>
</g>
<!-- nickel&#45;&#45;exploitation -->
<g id="edge88" class="edge">
<title>nickel&#45;&#45;exploitation</title>
<path fill="none" stroke="darkgrey" stroke-width="2.84" d="M345.1,-243.27C346.86,-244.36 348.6,-245.43 350.22,-246.44"/>
</g>
<!-- nickel&#45;&#45;montagne -->
<g id="edge89" class="edge">
<title>nickel&#45;&#45;montagne</title>
<path fill="none" stroke="darkgrey" stroke-width="2.02" d="M348.07,-228.88C379.72,-224.36 437.64,-216.08 457.83,-213.2"/>
</g>
<!-- nickel&#45;&#45;engin -->
<g id="edge91" class="edge">
<title>nickel&#45;&#45;engin</title>
<path fill="none" stroke="darkgrey" stroke-width="3.47" d="M348.36,-231C361.27,-230.45 377.15,-229.77 387.58,-229.32"/>
</g>
<!-- nickel&#45;&#45;minerai -->
<g id="edge92" class="edge">
<title>nickel&#45;&#45;minerai</title>
<path fill="none" stroke="darkgrey" stroke-width="4.49" d="M335.62,-251.66C343.18,-268.53 353.93,-292.51 361.05,-308.41"/>
</g>
<!-- nickel&#45;&#45;terre -->
<g id="edge93" class="edge">
<title>nickel&#45;&#45;terre</title>
<path fill="none" stroke="darkgrey" stroke-width="2.94" d="M344.75,-244.33C361.88,-256.16 387,-273.49 400.4,-282.75"/>
</g>
<!-- nickel&#45;&#45;usine -->
<g id="edge95" class="edge">
<title>nickel&#45;&#45;usine</title>
<path fill="none" stroke="darkgrey" stroke-width="4.51" d="M306.21,-224.9C301.26,-223.21 296.09,-221.45 291.53,-219.89"/>
</g>
<!-- nickel&#45;&#45;opérateur minier -->
<g id="edge96" class="edge">
<title>nickel&#45;&#45;opérateur minier</title>
<path fill="none" stroke="darkgrey" stroke-width="3.35" d="M317.77,-251.47C314.74,-258.04 311.49,-265.1 308.94,-270.63"/>
</g>
<!-- nickel&#45;&#45;vision positive de la ressource -->
<g id="edge97" class="edge">
<title>nickel&#45;&#45;vision positive de la ressource</title>
<path fill="none" stroke="darkgrey" stroke-width="1.76" d="M325.13,-253.46C323.4,-276.29 320.75,-311.08 319.61,-326.13"/>
</g>
<!-- nickel&#45;&#45;production -->
<g id="edge86" class="edge">
<title>nickel&#45;&#45;production</title>
<path fill="none" stroke="darkgrey" stroke-width="1.08" d="M314.63,-213.89C290.18,-177.58 236.37,-97.67 224.89,-80.62"/>
</g>
<!-- nickel&#45;&#45;main d’oeuvre -->
<g id="edge90" class="edge">
<title>nickel&#45;&#45;main d’oeuvre</title>
<path fill="none" stroke="darkgrey" stroke-width="1.48" d="M305.24,-231.89C278.44,-231.85 234.6,-231.79 221.56,-231.77"/>
</g>
<!-- nickel&#45;&#45;commerce -->
<g id="edge99" class="edge">
<title>nickel&#45;&#45;commerce</title>
<path fill="none" stroke="darkgrey" stroke-width="1.74" d="M327.31,-210.28C328.14,-177.21 329.68,-115.69 330.21,-94.66"/>
</g>
<!-- nickel&#45;&#45;description minière -->
<g id="edge94" class="edge">
<title>nickel&#45;&#45;description minière</title>
<path fill="none" stroke="darkgrey" stroke-width="1.18" d="M334.34,-252.47C352.02,-300.42 395.09,-417.29 403.01,-438.79"/>
</g>
<!-- nickel&#45;&#45;localité -->
<g id="edge98" class="edge">
<title>nickel&#45;&#45;localité</title>
<path fill="none" stroke="darkgrey" stroke-width="1" d="M306.39,-239.33C267.36,-253.54 184.33,-283.74 166.64,-290.18"/>
</g>
<!-- nickel&#45;&#45;ressource non&#45;renouvelable -->
<g id="edge100" class="edge">
<title>nickel&#45;&#45;ressource non&#45;renouvelable</title>
<path fill="none" stroke="darkgrey" stroke-width="2.15" d="M313.46,-249.2C290,-279.67 242.39,-341.5 227.74,-360.52"/>
</g>
<!-- exploitation&#45;&#45;engin -->
<g id="edge102" class="edge">
<title>exploitation&#45;&#45;engin</title>
<path fill="none" stroke="darkgrey" stroke-width="1.86" d="M369.07,-246.58C375.13,-242.96 382.97,-238.27 389.06,-234.62"/>
</g>
<!-- exploitation&#45;&#45;minerai -->
<g id="edge103" class="edge">
<title>exploitation&#45;&#45;minerai</title>
<path fill="none" stroke="darkgrey" stroke-width="3.61" d="M360.95,-263.29C362.37,-274.9 364.62,-293.35 366.3,-307.05"/>
</g>
<!-- exploitation&#45;&#45;terre -->
<g id="edge104" class="edge">
<title>exploitation&#45;&#45;terre</title>
<path fill="none" stroke="darkgrey" stroke-width="1.01" d="M368.77,-259.01C377.8,-265.66 391.5,-275.76 400.51,-282.4"/>
</g>
<!-- exploitation&#45;&#45;usine -->
<g id="edge105" class="edge">
<title>exploitation&#45;&#45;usine</title>
<path fill="none" stroke="darkgrey" stroke-width="2.04" d="M349.54,-247.69C334.83,-241.04 307.42,-228.63 291.01,-221.21"/>
</g>
<!-- exploitation&#45;&#45;vision positive de la ressource -->
<g id="edge106" class="edge">
<title>exploitation&#45;&#45;vision positive de la ressource</title>
<path fill="none" stroke="darkgrey" stroke-width="1.63" d="M354.62,-262.21C346.16,-279.16 329.21,-313.14 322.2,-327.19"/>
</g>
<!-- exploitation&#45;&#45;main d’oeuvre -->
<g id="edge101" class="edge">
<title>exploitation&#45;&#45;main d’oeuvre</title>
<path fill="none" stroke="darkgrey" stroke-width="1.24" d="M348.47,-250.64C318.95,-246.37 239.7,-234.93 221.53,-232.31"/>
</g>
<!-- exploitation&#45;&#45;commerce -->
<g id="edge107" class="edge">
<title>exploitation&#45;&#45;commerce</title>
<path fill="none" stroke="darkgrey" stroke-width="1.7" d="M357.63,-241.17C352.06,-209.69 336.22,-120.3 331.64,-94.46"/>
</g>
<!-- montagne&#45;&#45;engin -->
<g id="edge108" class="edge">
<title>montagne&#45;&#45;engin</title>
<path fill="none" stroke="darkgrey" stroke-width="1.62" d="M457.91,-213.96C446.29,-216.88 423.12,-222.71 409.47,-226.14"/>
</g>
<!-- montagne&#45;&#45;minerai -->
<g id="edge109" class="edge">
<title>montagne&#45;&#45;minerai</title>
<path fill="none" stroke="darkgrey" stroke-width="1.85" d="M460.35,-217.61C445.97,-234.43 401.92,-285.94 380.47,-311.01"/>
</g>
<!-- montagne&#45;&#45;terre -->
<g id="edge110" class="edge">
<title>montagne&#45;&#45;terre</title>
<path fill="none" stroke="darkgrey" stroke-width="1.5" d="M460.85,-217.96C451.29,-231.24 427.71,-264 416.18,-280.01"/>
</g>
<!-- engin&#45;&#45;minerai -->
<g id="edge113" class="edge">
<title>engin&#45;&#45;minerai</title>
<path fill="none" stroke="darkgrey" stroke-width="2.82" d="M395.37,-239.51C390.17,-256.04 380.13,-288 373.9,-307.82"/>
</g>
<!-- engin&#45;&#45;terre -->
<g id="edge114" class="edge">
<title>engin&#45;&#45;terre</title>
<path fill="none" stroke="darkgrey" stroke-width="2.24" d="M400.72,-239.9C402.69,-250.78 405.68,-267.28 407.64,-278.13"/>
</g>
<!-- engin&#45;&#45;usine -->
<g id="edge115" class="edge">
<title>engin&#45;&#45;usine</title>
<path fill="none" stroke="darkgrey" stroke-width="2.38" d="M387.54,-227.58C365.53,-225.09 316.56,-219.55 292.1,-216.78"/>
</g>
<!-- engin&#45;&#45;opérateur minier -->
<g id="edge116" class="edge">
<title>engin&#45;&#45;opérateur minier</title>
<path fill="none" stroke="darkgrey" stroke-width="1.48" d="M388.97,-234.2C370.88,-244.13 332.31,-265.31 314.15,-275.28"/>
</g>
<!-- minerai&#45;&#45;terre -->
<g id="edge117" class="edge">
<title>minerai&#45;&#45;terre</title>
<path fill="none" stroke="darkgrey" stroke-width="1.91" d="M382.42,-312.86C388.57,-307.49 395.62,-301.34 400.99,-296.65"/>
</g>
<!-- minerai&#45;&#45;usine -->
<g id="edge119" class="edge">
<title>minerai&#45;&#45;usine</title>
<path fill="none" stroke="darkgrey" stroke-width="2.97" d="M356.98,-311.1C338.83,-289.15 303.9,-246.93 287.1,-226.61"/>
</g>
<!-- minerai&#45;&#45;opérateur minier -->
<g id="edge120" class="edge">
<title>minerai&#45;&#45;opérateur minier</title>
<path fill="none" stroke="darkgrey" stroke-width="1.98" d="M353.61,-314.73C341.17,-306.14 323.83,-294.16 313.37,-286.94"/>
</g>
<!-- minerai&#45;&#45;vision positive de la ressource -->
<g id="edge122" class="edge">
<title>minerai&#45;&#45;vision positive de la ressource</title>
<path fill="none" stroke="darkgrey" stroke-width="1.4" d="M350.64,-328.08C342.23,-329.52 332.67,-331.16 326.29,-332.26"/>
</g>
<!-- minerai&#45;&#45;description minière -->
<g id="edge118" class="edge">
<title>minerai&#45;&#45;description minière</title>
<path fill="none" stroke="darkgrey" stroke-width="1.2" d="M373.77,-342.3C382.33,-370.32 398.7,-423.97 403.14,-438.5"/>
</g>
<!-- minerai&#45;&#45;ressource non&#45;renouvelable -->
<g id="edge123" class="edge">
<title>minerai&#45;&#45;ressource non&#45;renouvelable</title>
<path fill="none" stroke="darkgrey" stroke-width="1.84" d="M350.99,-329.98C318.87,-339.1 251.84,-358.13 230.23,-364.27"/>
</g>
<!-- minerai&#45;&#45;nouvelle&#45;calédonie -->
<g id="edge121" class="edge">
<title>minerai&#45;&#45;nouvelle&#45;calédonie</title>
<path fill="none" stroke="darkgrey" stroke-width="1.23" d="M374.36,-342.1C391.05,-390.73 437.82,-527.05 441.45,-537.63"/>
</g>
<!-- terre&#45;&#45;usine -->
<g id="edge124" class="edge">
<title>terre&#45;&#45;usine</title>
<path fill="none" stroke="darkgrey" stroke-width="1.71" d="M399.71,-283.56C376.08,-270.32 316.52,-236.94 290.31,-222.26"/>
</g>
<!-- terre&#45;&#45;opérateur minier -->
<g id="edge125" class="edge">
<title>terre&#45;&#45;opérateur minier</title>
<path fill="none" stroke="darkgrey" stroke-width="1.11" d="M398.36,-288.21C378.09,-286.59 335.72,-283.2 315.51,-281.58"/>
</g>
<!-- usine&#45;&#45;opérateur minier -->
<g id="edge126" class="edge">
<title>usine&#45;&#45;opérateur minier</title>
<path fill="none" stroke="darkgrey" stroke-width="3.47" d="M283.15,-228.72C288.16,-241.02 295.44,-258.89 300.02,-270.14"/>
</g>
<!-- usine&#45;&#45;vision positive de la ressource -->
<g id="edge127" class="edge">
<title>usine&#45;&#45;vision positive de la ressource</title>
<path fill="none" stroke="darkgrey" stroke-width="1.07" d="M282.53,-229.18C291.49,-254.78 310.16,-308.11 316.71,-326.83"/>
</g>
<!-- usine&#45;&#45;commerce -->
<g id="edge130" class="edge">
<title>usine&#45;&#45;commerce</title>
<path fill="none" stroke="darkgrey" stroke-width="1.4" d="M283.26,-201.47C294.54,-174.18 319.46,-113.85 327.69,-93.92"/>
</g>
<!-- usine&#45;&#45;localité -->
<g id="edge128" class="edge">
<title>usine&#45;&#45;localité</title>
<path fill="none" stroke="darkgrey" stroke-width="1.85" d="M265.38,-223.3C239.57,-240.52 180.75,-279.75 166.45,-289.29"/>
</g>
<!-- usine&#45;&#45;ressource non&#45;renouvelable -->
<g id="edge132" class="edge">
<title>usine&#45;&#45;ressource non&#45;renouvelable</title>
<path fill="none" stroke="darkgrey" stroke-width="1.13" d="M272.7,-228.82C261.43,-260.19 234.05,-336.44 225.76,-359.5"/>
</g>
<!-- usine&#45;&#45;production énergétique -->
<g id="edge129" class="edge">
<title>usine&#45;&#45;production énergétique</title>
<path fill="none" stroke="darkgrey" stroke-width="1.09" d="M265.23,-207.4C226.45,-183.16 109.22,-109.88 98.32,-103.07"/>
</g>
<!-- usine&#45;&#45;métallurgie -->
<g id="edge131" class="edge">
<title>usine&#45;&#45;métallurgie</title>
<path fill="none" stroke="darkgrey" stroke-width="1.21" d="M262.78,-215.51C215.92,-216.67 73.53,-220.18 62.48,-220.45"/>
</g>
<!-- opérateur minier&#45;&#45;localité -->
<g id="edge133" class="edge">
<title>opérateur minier&#45;&#45;localité</title>
<path fill="none" stroke="darkgrey" stroke-width="1.31" d="M293.25,-281.52C263.9,-283.75 185.07,-289.75 167,-291.12"/>
</g>
<!-- changement climatique&#45;&#45;impact environnemental -->
<g id="edge20" class="edge">
<title>changement climatique&#45;&#45;impact environnemental</title>
<path fill="none" stroke="darkgrey" stroke-width="1.3" d="M554.48,-1.14C552.67,-10.78 530.83,-127.23 519.52,-187.52"/>
</g>
<!-- main d’oeuvre&#45;&#45;minerai -->
<g id="edge111" class="edge">
<title>main d’oeuvre&#45;&#45;minerai</title>
<path fill="none" stroke="darkgrey" stroke-width="1.4" d="M220.93,-233.71C237.88,-244.2 318.8,-294.26 353.09,-315.48"/>
</g>
<!-- main d’oeuvre&#45;&#45;usine -->
<g id="edge112" class="edge">
<title>main d’oeuvre&#45;&#45;usine</title>
<path fill="none" stroke="darkgrey" stroke-width="1.51" d="M221.35,-230.78C229.45,-228.53 249.61,-222.92 263.47,-219.07"/>
</g>
<!-- pollution -->
<g id="node1" class="node">
<title>pollution</title>
<ellipse fill="#cb4149" stroke="white" stroke-width="0" cx="442.61" cy="-258.57" rx="21.5" ry="21.5"/>
<text text-anchor="middle" x="439.61" y="-282.67" font-family="Helvetica,sans-Serif" font-size="8.00" fill="#4d4d4d">pollution</text>
</g>
<!-- emploi -->
<g id="node2" class="node">
<title>emploi</title>
<ellipse fill="#e35933" stroke="white" stroke-width="0" cx="346.61" cy="-179.2" rx="21.5" ry="21.5"/>
<text text-anchor="middle" x="311.11" y="-203.3" font-family="Helvetica,sans-Serif" font-size="8.00" fill="#4d4d4d">emploi</text>
</g>
<!-- économie du pays -->
<g id="node3" class="node">
<title>économie du pays</title>
<ellipse fill="#801f6c" stroke="white" stroke-width="0" cx="398.89" cy="-182.52" rx="14.5" ry="14.5"/>
<text text-anchor="middle" x="451.39" y="-170.62" font-family="Helvetica,sans-Serif" font-size="8.00" fill="#4d4d4d">économie du pays</text>
</g>
<!-- richesse -->
<g id="node4" class="node">
<title>richesse</title>
<ellipse fill="#360961" stroke="white" stroke-width="0" cx="435.69" cy="-153.15" rx="7" ry="7"/>
<text text-anchor="middle" x="411.19" y="-148.75" font-family="Helvetica,sans-Serif" font-size="8.00" fill="#4d4d4d">richesse</text>
</g>
<!-- impact environnemental -->
<g id="node5" class="node">
<title>impact environnemental</title>
<ellipse fill="#fcffa4" stroke="white" stroke-width="0" cx="512.83" cy="-223.21" rx="36" ry="36"/>
<text text-anchor="middle" x="526.83" y="-261.81" font-family="Helvetica,sans-Serif" font-size="8.00" fill="#4d4d4d">impact environnemental</text>
</g>
<!-- conflit -->
<g id="node6" class="node">
<title>conflit</title>
<ellipse fill="#520e6d" stroke="white" stroke-width="0" cx="428.39" cy="-89.74" rx="11" ry="11"/>
<text text-anchor="middle" x="404.39" y="-103.34" font-family="Helvetica,sans-Serif" font-size="8.00" fill="#4d4d4d">conflit</text>
</g>
<!-- revenu -->
<g id="node7" class="node">
<title>revenu</title>
<ellipse fill="#3e0966" stroke="white" stroke-width="0" cx="366.9" cy="-123.17" rx="7" ry="7"/>
<text text-anchor="middle" x="345.9" y="-132.77" font-family="Helvetica,sans-Serif" font-size="8.00" fill="#4d4d4d">revenu</text>
</g>
<!-- nickel -->
<g id="node8" class="node">
<title>nickel</title>
<ellipse fill="#d74b3f" stroke="white" stroke-width="0" cx="326.77" cy="-231.92" rx="21.5" ry="21.5"/>
<text text-anchor="middle" x="293.27" y="-256.02" font-family="Helvetica,sans-Serif" font-size="8.00" fill="#4d4d4d">nickel</text>
</g>
<!-- milieu -->
<g id="node9" class="node">
<title>milieu</title>
<ellipse fill="#120a32" stroke="white" stroke-width="0" cx="399.77" cy="-380.77" rx="3.5" ry="3.5"/>
<text text-anchor="middle" x="383.77" y="-386.87" font-family="Helvetica,sans-Serif" font-size="8.00" fill="#4d4d4d">milieu</text>
</g>
<!-- exploitation -->
<g id="node10" class="node">
<title>exploitation</title>
<ellipse fill="#771c6d" stroke="white" stroke-width="0" cx="359.6" cy="-252.24" rx="11" ry="11"/>
<text text-anchor="middle" x="373.1" y="-265.84" font-family="Helvetica,sans-Serif" font-size="8.00" fill="#4d4d4d">exploitation</text>
</g>
<!-- montagne -->
<g id="node11" class="node">
<title>montagne</title>
<ellipse fill="#2f0a5b" stroke="white" stroke-width="0" cx="465.01" cy="-212.17" rx="7" ry="7"/>
<text text-anchor="middle" x="436.51" y="-221.77" font-family="Helvetica,sans-Serif" font-size="8.00" fill="#4d4d4d">montagne</text>
</g>
<!-- biodiversité -->
<g id="node12" class="node">
<title>biodiversité</title>
<ellipse fill="#0b0724" stroke="white" stroke-width="0" cx="522.7" cy="-397.57" rx="3.5" ry="3.5"/>
<text text-anchor="middle" x="494.7" y="-403.67" font-family="Helvetica,sans-Serif" font-size="8.00" fill="#4d4d4d">biodiversité</text>
</g>
<!-- développement -->
<g id="node13" class="node">
<title>développement</title>
<ellipse fill="#190c3e" stroke="white" stroke-width="0" cx="508.82" cy="-119.8" rx="3.5" ry="3.5"/>
<text text-anchor="middle" x="472.82" y="-125.9" font-family="Helvetica,sans-Serif" font-size="8.00" fill="#4d4d4d">développement</text>
</g>
<!-- engin -->
<g id="node14" class="node">
<title>engin</title>
<ellipse fill="#6c186e" stroke="white" stroke-width="0" cx="398.72" cy="-228.85" rx="11" ry="11"/>
<text text-anchor="middle" x="375.72" y="-220.45" font-family="Helvetica,sans-Serif" font-size="8.00" fill="#4d4d4d">engin</text>
</g>
<!-- minerai -->
<g id="node15" class="node">
<title>minerai</title>
<ellipse fill="#ab2f5e" stroke="white" stroke-width="0" cx="368.49" cy="-325.01" rx="18" ry="18"/>
<text text-anchor="middle" x="334.99" y="-345.61" font-family="Helvetica,sans-Serif" font-size="8.00" fill="#4d4d4d">minerai</text>
</g>
<!-- terre -->
<g id="node16" class="node">
<title>terre</title>
<ellipse fill="#550f6d" stroke="white" stroke-width="0" cx="409.63" cy="-289.12" rx="11" ry="11"/>
<text text-anchor="middle" x="389.13" y="-280.72" font-family="Helvetica,sans-Serif" font-size="8.00" fill="#4d4d4d">terre</text>
</g>
<!-- usine -->
<g id="node17" class="node">
<title>usine</title>
<ellipse fill="#7d1e6d" stroke="white" stroke-width="0" cx="277.61" cy="-215.14" rx="14.5" ry="14.5"/>
<text text-anchor="middle" x="251.61" y="-232.24" font-family="Helvetica,sans-Serif" font-size="8.00" fill="#4d4d4d">usine</text>
</g>
<!-- opérateur minier -->
<g id="node18" class="node">
<title>opérateur minier</title>
<ellipse fill="#71196e" stroke="white" stroke-width="0" cx="304.32" cy="-280.68" rx="11" ry="11"/>
<text text-anchor="middle" x="258.82" y="-294.28" font-family="Helvetica,sans-Serif" font-size="8.00" fill="#4d4d4d">opérateur minier</text>
</g>
<!-- vision positive de la ressource -->
<g id="node19" class="node">
<title>vision positive de la ressource</title>
<ellipse fill="#280b53" stroke="white" stroke-width="0" cx="319.05" cy="-333.5" rx="7" ry="7"/>
<text text-anchor="middle" x="250.05" y="-343.1" font-family="Helvetica,sans-Serif" font-size="8.00" fill="#4d4d4d">vision positive de la ressource</text>
</g>
<!-- nuisance -->
<g id="node20" class="node">
<title>nuisance</title>
<ellipse fill="#02020e" stroke="white" stroke-width="0" cx="583.92" cy="-316.41" rx="0.5" ry="0.5"/>
<text text-anchor="middle" x="564.42" y="-319.51" font-family="Helvetica,sans-Serif" font-size="8.00" fill="#4d4d4d">nuisance</text>
</g>
<!-- changement climatique -->
<g id="node21" class="node">
<title>changement climatique</title>
<ellipse fill="#010005" stroke="white" stroke-width="0" cx="554.6" cy="-0.5" rx="0.5" ry="0.5"/>
<text text-anchor="middle" x="505.6" y="-3.6" font-family="Helvetica,sans-Serif" font-size="8.00" fill="#4d4d4d">changement climatique</text>
</g>
<!-- production -->
<g id="node22" class="node">
<title>production</title>
<ellipse fill="#07051b" stroke="white" stroke-width="0" cx="222.71" cy="-77.38" rx="3.5" ry="3.5"/>
<text text-anchor="middle" x="197.21" y="-83.48" font-family="Helvetica,sans-Serif" font-size="8.00" fill="#4d4d4d">production</text>
</g>
<!-- main d’oeuvre -->
<g id="node23" class="node">
<title>main d’oeuvre</title>
<ellipse fill="#210c4a" stroke="white" stroke-width="0" cx="217.79" cy="-231.77" rx="3.5" ry="3.5"/>
<text text-anchor="middle" x="185.29" y="-237.87" font-family="Helvetica,sans-Serif" font-size="8.00" fill="#4d4d4d">main d’oeuvre</text>
</g>
<!-- commerce -->
<g id="node24" class="node">
<title>commerce</title>
<ellipse fill="#310a5c" stroke="white" stroke-width="0" cx="330.39" cy="-87.38" rx="7" ry="7"/>
<text text-anchor="middle" x="301.89" y="-96.98" font-family="Helvetica,sans-Serif" font-size="8.00" fill="#4d4d4d">commerce</text>
</g>
<!-- amélioration environnementale -->
<g id="node25" class="node">
<title>amélioration environnementale</title>
<ellipse fill="#050417" stroke="white" stroke-width="0" cx="637.23" cy="-36.99" rx="3.5" ry="3.5"/>
<text text-anchor="middle" x="569.23" y="-43.09" font-family="Helvetica,sans-Serif" font-size="8.00" fill="#4d4d4d">amélioration environnementale</text>
</g>
<!-- industrie -->
<g id="node26" class="node">
<title>industrie</title>
<ellipse fill="#02020c" stroke="white" stroke-width="0" cx="716.02" cy="-92.74" rx="0.5" ry="0.5"/>
<text text-anchor="middle" x="697.02" y="-95.84" font-family="Helvetica,sans-Serif" font-size="8.00" fill="#4d4d4d">industrie</text>
</g>
<!-- relation internationale -->
<g id="node27" class="node">
<title>relation internationale</title>
<ellipse fill="#02020c" stroke="white" stroke-width="0" cx="646.47" cy="-139.45" rx="0.5" ry="0.5"/>
<text text-anchor="middle" x="600.47" y="-142.55" font-family="Helvetica,sans-Serif" font-size="8.00" fill="#4d4d4d">relation internationale</text>
</g>
<!-- procédé industriel -->
<g id="node28" class="node">
<title>procédé industriel</title>
<ellipse fill="#040312" stroke="white" stroke-width="0" cx="670.59" cy="-245.43" rx="3.5" ry="3.5"/>
<text text-anchor="middle" x="630.09" y="-251.53" font-family="Helvetica,sans-Serif" font-size="8.00" fill="#4d4d4d">procédé industriel</text>
</g>
<!-- danger -->
<g id="node29" class="node">
<title>danger</title>
<ellipse fill="#02020e" stroke="white" stroke-width="0" cx="691.34" cy="-359.52" rx="0.5" ry="0.5"/>
<text text-anchor="middle" x="675.84" y="-362.62" font-family="Helvetica,sans-Serif" font-size="8.00" fill="#4d4d4d">danger</text>
</g>
<!-- transition -->
<g id="node30" class="node">
<title>transition</title>
<ellipse fill="#000004" stroke="white" stroke-width="0" cx="745.62" cy="-286.75" rx="0.5" ry="0.5"/>
<text text-anchor="middle" x="725.12" y="-289.85" font-family="Helvetica,sans-Serif" font-size="8.00" fill="#4d4d4d">transition</text>
</g>
<!-- épuisement de la ressource -->
<g id="node31" class="node">
<title>épuisement de la ressource</title>
<ellipse fill="#02010a" stroke="white" stroke-width="0" cx="627.22" cy="-424.86" rx="0.5" ry="0.5"/>
<text text-anchor="middle" x="569.72" y="-427.96" font-family="Helvetica,sans-Serif" font-size="8.00" fill="#4d4d4d">épuisement de la ressource</text>
</g>
<!-- politique -->
<g id="node32" class="node">
<title>politique</title>
<ellipse fill="#040314" stroke="white" stroke-width="0" cx="743.68" cy="-185.69" rx="3.5" ry="3.5"/>
<text text-anchor="middle" x="721.68" y="-191.79" font-family="Helvetica,sans-Serif" font-size="8.00" fill="#4d4d4d">politique</text>
</g>
<!-- description minière -->
<g id="node33" class="node">
<title>description minière</title>
<ellipse fill="#110a30" stroke="white" stroke-width="0" cx="404.27" cy="-442.21" rx="3.5" ry="3.5"/>
<text text-anchor="middle" x="361.27" y="-448.31" font-family="Helvetica,sans-Serif" font-size="8.00" fill="#4d4d4d">description minière</text>
</g>
<!-- localité -->
<g id="node34" class="node">
<title>localité</title>
<ellipse fill="#10092d" stroke="white" stroke-width="0" cx="163.28" cy="-291.41" rx="3.5" ry="3.5"/>
<text text-anchor="middle" x="144.28" y="-297.51" font-family="Helvetica,sans-Serif" font-size="8.00" fill="#4d4d4d">localité</text>
</g>
<!-- ressource non&#45;renouvelable -->
<g id="node35" class="node">
<title>ressource non&#45;renouvelable</title>
<ellipse fill="#240c4f" stroke="white" stroke-width="0" cx="223.35" cy="-366.22" rx="7" ry="7"/>
<text text-anchor="middle" x="158.85" y="-375.82" font-family="Helvetica,sans-Serif" font-size="8.00" fill="#4d4d4d">ressource non&#45;renouvelable</text>
</g>
<!-- nouvelle&#45;calédonie -->
<g id="node36" class="node">
<title>nouvelle&#45;calédonie</title>
<ellipse fill="#030210" stroke="white" stroke-width="0" cx="441.68" cy="-538.28" rx="0.5" ry="0.5"/>
<text text-anchor="middle" x="401.68" y="-541.38" font-family="Helvetica,sans-Serif" font-size="8.00" fill="#4d4d4d">nouvelle&#45;calédonie</text>
</g>
<!-- production énergétique -->
<g id="node37" class="node">
<title>production énergétique</title>
<ellipse fill="#010106" stroke="white" stroke-width="0" cx="97.5" cy="-102.56" rx="0.5" ry="0.5"/>
<text text-anchor="middle" x="48.5" y="-105.66" font-family="Helvetica,sans-Serif" font-size="8.00" fill="#4d4d4d">production énergétique</text>
</g>
<!-- métallurgie -->
<g id="node38" class="node">
<title>métallurgie</title>
<ellipse fill="#030210" stroke="white" stroke-width="0" cx="61.8" cy="-220.47" rx="0.5" ry="0.5"/>
<text text-anchor="middle" x="37.8" y="-223.57" font-family="Helvetica,sans-Serif" font-size="8.00" fill="#4d4d4d">métallurgie</text>
</g>
</g>
</svg>
