<?xml version="1.0" encoding="UTF-8" standalone="no"?>
<!DOCTYPE svg PUBLIC "-//W3C//DTD SVG 1.1//EN"
 "http://www.w3.org/Graphics/SVG/1.1/DTD/svg11.dtd">
<!-- Generated by graphviz version 2.43.0 (0)
 -->
<!-- Pages: 1 -->
<svg width="447pt" height="253pt"
 viewBox="0.00 0.00 447.30 252.85" xmlns="http://www.w3.org/2000/svg" xmlns:xlink="http://www.w3.org/1999/xlink">
<g id="graph0" class="graph" transform="scale(1 1) rotate(0) translate(4 248.85)">
<polygon fill="white" stroke="transparent" points="-4,4 -4,-248.85 443.3,-248.85 443.3,4 -4,4"/>
<!-- pollution&#45;&#45;travail -->
<g id="edge1" class="edge">
<title>pollution&#45;&#45;travail</title>
<path fill="none" stroke="darkgrey" stroke-width="5.91" d="M168.68,-77.57C178.94,-66.01 190.92,-52.51 198.47,-44.02"/>
</g>
<!-- pollution&#45;&#45;destruction -->
<g id="edge2" class="edge">
<title>pollution&#45;&#45;destruction</title>
<path fill="none" stroke="darkgrey" stroke-width="3.96" d="M126.33,-81.29C98.24,-58.76 53.53,-22.9 48.06,-18.51"/>
</g>
<!-- pollution&#45;&#45;nickel -->
<g id="edge3" class="edge">
<title>pollution&#45;&#45;nickel</title>
<path fill="none" stroke="darkgrey" stroke-width="7.76" d="M178.32,-101.04C202.46,-102.25 236.85,-103.97 262.69,-105.26"/>
</g>
<!-- pollution&#45;&#45;économie -->
<g id="edge4" class="edge">
<title>pollution&#45;&#45;économie</title>
<path fill="none" stroke="darkgrey" stroke-width="7.59" d="M175,-112.95C183.78,-117.49 193.34,-122.43 201.17,-126.47"/>
</g>
<!-- pollution&#45;&#45;environnement -->
<g id="edge5" class="edge">
<title>pollution&#45;&#45;environnement</title>
<path fill="none" stroke="darkgrey" stroke-width="5.68" d="M142.68,-128.33C139.43,-142.85 135.61,-159.83 132.98,-171.58"/>
</g>
<!-- pollution&#45;&#45;emploi -->
<g id="edge6" class="edge">
<title>pollution&#45;&#45;emploi</title>
<path fill="none" stroke="darkgrey" stroke-width="10" d="M163.72,-124.97C175.84,-146.07 192.58,-175.21 202.05,-191.72"/>
</g>
<!-- travail&#45;&#45;nickel -->
<g id="edge7" class="edge">
<title>travail&#45;&#45;nickel</title>
<path fill="none" stroke="darkgrey" d="M214.81,-42.47C227.42,-52.18 251.06,-70.39 270.03,-85"/>
</g>
<!-- travail&#45;&#45;économie -->
<g id="edge8" class="edge">
<title>travail&#45;&#45;économie</title>
<path fill="none" stroke="darkgrey" stroke-width="1.13" d="M207.21,-46.63C209.2,-63.6 213.03,-96.33 215.43,-116.83"/>
</g>
<!-- nickel&#45;&#45;économie -->
<g id="edge11" class="edge">
<title>nickel&#45;&#45;économie</title>
<path fill="none" stroke="darkgrey" stroke-width="3.4" d="M264.27,-118.89C254.08,-122.39 243.36,-126.07 234.76,-129.03"/>
</g>
<!-- nickel&#45;&#45;emploi -->
<g id="edge12" class="edge">
<title>nickel&#45;&#45;emploi</title>
<path fill="none" stroke="darkgrey" stroke-width="3.49" d="M274.27,-133.68C256.2,-153.39 232.51,-179.23 219.33,-193.61"/>
</g>
<!-- nickel&#45;&#45;camion -->
<g id="edge10" class="edge">
<title>nickel&#45;&#45;camion</title>
<path fill="none" stroke="darkgrey" stroke-width="2.95" d="M334.13,-99.2C365.37,-92.27 408.43,-82.72 425.21,-79"/>
</g>
<!-- nickel&#45;&#45;usine -->
<g id="edge13" class="edge">
<title>nickel&#45;&#45;usine</title>
<path fill="none" stroke="darkgrey" stroke-width="3.05" d="M333.93,-115.09C347.92,-118.28 362.25,-121.54 368.87,-123.05"/>
</g>
<!-- nickel&#45;&#45;sln -->
<g id="edge14" class="edge">
<title>nickel&#45;&#45;sln</title>
<path fill="none" stroke="darkgrey" stroke-width="5.26" d="M304.5,-71.41C308.58,-46.5 313.44,-16.77 314.32,-11.42"/>
</g>
<!-- nickel&#45;&#45;minerai -->
<g id="edge15" class="edge">
<title>nickel&#45;&#45;minerai</title>
<path fill="none" stroke="darkgrey" stroke-width="1.76" d="M318.08,-137.71C338.26,-169.59 368.01,-216.57 375.98,-229.15"/>
</g>
<!-- économie&#45;&#45;environnement -->
<g id="edge16" class="edge">
<title>économie&#45;&#45;environnement</title>
<path fill="none" stroke="darkgrey" stroke-width="8.58" d="M201.86,-144.06C184.89,-153.91 158.18,-169.42 142.47,-178.54"/>
</g>
<!-- économie&#45;&#45;emploi -->
<g id="edge17" class="edge">
<title>économie&#45;&#45;emploi</title>
<path fill="none" stroke="darkgrey" stroke-width="7.84" d="M215.45,-152.84C214.11,-164.27 212.38,-178.9 211.12,-189.67"/>
</g>
<!-- environnement&#45;&#45;emploi -->
<g id="edge18" class="edge">
<title>environnement&#45;&#45;emploi</title>
<path fill="none" stroke="darkgrey" stroke-width="1.11" d="M143.99,-189.24C158.39,-192.59 180.54,-197.75 195,-201.12"/>
</g>
<!-- argent&#45;&#45;nickel -->
<g id="edge9" class="edge">
<title>argent&#45;&#45;nickel</title>
<path fill="none" stroke="darkgrey" stroke-width="2.12" d="M389.19,-6.49C379.58,-17.17 346.25,-54.19 322.84,-80.2"/>
</g>
<!-- pollution -->
<g id="node1" class="node">
<title>pollution</title>
<ellipse fill="#fcb216" stroke="white" stroke-width="0" cx="149.14" cy="-99.59" rx="29" ry="29"/>
<text text-anchor="middle" x="101.64" y="-131.19" font-family="Helvetica,sans-Serif" font-size="8.00" fill="#4d4d4d">pollution</text>
</g>
<!-- travail -->
<g id="node2" class="node">
<title>travail</title>
<ellipse fill="#6d186e" stroke="white" stroke-width="0" cx="205.92" cy="-35.62" rx="11" ry="11"/>
<text text-anchor="middle" x="181.92" y="-49.22" font-family="Helvetica,sans-Serif" font-size="8.00" fill="#4d4d4d">travail</text>
</g>
<!-- destruction -->
<g id="node3" class="node">
<title>destruction</title>
<ellipse fill="#000004" stroke="white" stroke-width="0" cx="47.5" cy="-18.06" rx="0.5" ry="0.5"/>
<text text-anchor="middle" x="23.5" y="-21.16" font-family="Helvetica,sans-Serif" font-size="8.00" fill="#4d4d4d">destruction</text>
</g>
<!-- nickel -->
<g id="node4" class="node">
<title>nickel</title>
<ellipse fill="#fcffa4" stroke="white" stroke-width="0" cx="298.67" cy="-107.06" rx="36" ry="36"/>
<text text-anchor="middle" x="250.67" y="-145.66" font-family="Helvetica,sans-Serif" font-size="8.00" fill="#4d4d4d">nickel</text>
</g>
<!-- économie -->
<g id="node5" class="node">
<title>économie</title>
<ellipse fill="#b43359" stroke="white" stroke-width="0" cx="217.56" cy="-134.94" rx="18" ry="18"/>
<text text-anchor="middle" x="179.06" y="-155.54" font-family="Helvetica,sans-Serif" font-size="8.00" fill="#4d4d4d">économie</text>
</g>
<!-- environnement -->
<g id="node6" class="node">
<title>environnement</title>
<ellipse fill="#82206c" stroke="white" stroke-width="0" cx="129.76" cy="-185.92" rx="14.5" ry="14.5"/>
<text text-anchor="middle" x="84.26" y="-203.02" font-family="Helvetica,sans-Serif" font-size="8.00" fill="#4d4d4d">environnement</text>
</g>
<!-- emploi -->
<g id="node7" class="node">
<title>emploi</title>
<ellipse fill="#85216b" stroke="white" stroke-width="0" cx="209.38" cy="-204.46" rx="14.5" ry="14.5"/>
<text text-anchor="middle" x="180.88" y="-221.56" font-family="Helvetica,sans-Serif" font-size="8.00" fill="#4d4d4d">emploi</text>
</g>
<!-- argent -->
<g id="node8" class="node">
<title>argent</title>
<ellipse fill="#0c0826" stroke="white" stroke-width="0" cx="391.88" cy="-3.5" rx="3.5" ry="3.5"/>
<text text-anchor="middle" x="374.38" y="-9.6" font-family="Helvetica,sans-Serif" font-size="8.00" fill="#4d4d4d">argent</text>
</g>
<!-- camion -->
<g id="node9" class="node">
<title>camion</title>
<ellipse fill="#310a5c" stroke="white" stroke-width="0" cx="432.3" cy="-77.43" rx="7" ry="7"/>
<text text-anchor="middle" x="409.8" y="-87.03" font-family="Helvetica,sans-Serif" font-size="8.00" fill="#4d4d4d">camion</text>
</g>
<!-- usine -->
<g id="node10" class="node">
<title>usine</title>
<ellipse fill="#110a30" stroke="white" stroke-width="0" cx="372.66" cy="-123.91" rx="3.5" ry="3.5"/>
<text text-anchor="middle" x="357.66" y="-130.01" font-family="Helvetica,sans-Serif" font-size="8.00" fill="#4d4d4d">usine</text>
</g>
<!-- sln -->
<g id="node11" class="node">
<title>sln</title>
<ellipse fill="#02020c" stroke="white" stroke-width="0" cx="314.45" cy="-10.57" rx="0.5" ry="0.5"/>
<text text-anchor="middle" x="307.45" y="-13.67" font-family="Helvetica,sans-Serif" font-size="8.00" fill="#4d4d4d">sln</text>
</g>
<!-- minerai -->
<g id="node12" class="node">
<title>minerai</title>
<ellipse fill="#110a30" stroke="white" stroke-width="0" cx="378.01" cy="-232.35" rx="3.5" ry="3.5"/>
<text text-anchor="middle" x="359.01" y="-238.45" font-family="Helvetica,sans-Serif" font-size="8.00" fill="#4d4d4d">minerai</text>
</g>
</g>
</svg>
